<?xml version="1.0" encoding="utf-8"?>
<svg version="1.1" xmlns:xlink="http://www.w3.org/1999/xlink" width="1252px" height="675px" xmlns="http://www.w3.org/2000/svg">
  <defs>
    <mask fill="white" id="clip1453">
      <path d="M 1248.99760191847 674.578125  L 2.00159872102318 674.578125  C 0.600479616306956 674.578125  -0.500399680255795 673.65  0.500399680255795 672.46875  L 0.500399680255795 0  L 1251.49960031974 0  L 1251.49960031974 672.46875  C 1251.49960031974 673.65  1250.39872102318 674.578125  1248.99760191847 674.578125  Z " fill-rule="evenodd" />
    </mask>
  </defs>
  <g transform="matrix(1 0 0 1 -24 -445 )">
    <path d="M 1248.99760191847 674.578125  L 2.00159872102318 674.578125  C 0.600479616306956 674.578125  -0.500399680255795 673.65  0.500399680255795 672.46875  L 0.500399680255795 0  L 1251.49960031974 0  L 1251.49960031974 672.46875  C 1251.49960031974 673.65  1250.39872102318 674.578125  1248.99760191847 674.578125  Z " fill-rule="nonzero" fill="#ffffff" stroke="none" transform="matrix(1 0 0 1 24 445 )" />
    <path d="M 1248.99760191847 674.578125  L 2.00159872102318 674.578125  C 0.600479616306956 674.578125  -0.500399680255795 673.65  0.500399680255795 672.46875  L 0.500399680255795 0  L 1251.49960031974 0  L 1251.49960031974 672.46875  C 1251.49960031974 673.65  1250.39872102318 674.578125  1248.99760191847 674.578125  Z " stroke-width="2" stroke="#e4e4e4" fill="none" transform="matrix(1 0 0 1 24 445 )" mask="url(#clip1453)" />
  </g>
</svg>