<?xml version="1.0" encoding="utf-8"?>
<svg version="1.1" xmlns:xlink="http://www.w3.org/1999/xlink" width="1252px" height="264px" xmlns="http://www.w3.org/2000/svg">
  <defs>
    <mask fill="white" id="clip1289">
      <path d="M 1248.99760191847 263.835  L 2.00159872102318 263.835  C 0.600479616306956 263.835  -0.500399680255795 263.472  0.500399680255795 263.01  L 0.500399680255795 0  L 1251.49960031974 0  L 1251.49960031974 263.01  C 1251.49960031974 263.472  1250.39872102318 263.835  1248.99760191847 263.835  Z " fill-rule="evenodd" />
    </mask>
  </defs>
  <g transform="matrix(1 0 0 1 -24 -1144 )">
    <path d="M 1248.99760191847 263.835  L 2.00159872102318 263.835  C 0.600479616306956 263.835  -0.500399680255795 263.472  0.500399680255795 263.01  L 0.500399680255795 0  L 1251.49960031974 0  L 1251.49960031974 263.01  C 1251.49960031974 263.472  1250.39872102318 263.835  1248.99760191847 263.835  Z " fill-rule="nonzero" fill="#ffffff" stroke="none" transform="matrix(1 0 0 1 24 1144 )" />
    <path d="M 1248.99760191847 263.835  L 2.00159872102318 263.835  C 0.600479616306956 263.835  -0.500399680255795 263.472  0.500399680255795 263.01  L 0.500399680255795 0  L 1251.49960031974 0  L 1251.49960031974 263.01  C 1251.49960031974 263.472  1250.39872102318 263.835  1248.99760191847 263.835  Z " stroke-width="2" stroke="#e4e4e4" fill="none" transform="matrix(1 0 0 1 24 1144 )" mask="url(#clip1289)" />
  </g>
</svg>