<svg xmlns="http://www.w3.org/2000/svg" xmlns:xlink="http://www.w3.org/1999/xlink" width="1252" height="264" version="1.1"><defs><mask id="clip2828" fill="#fff"><path fill-rule="evenodd" d="M 1248.99760191847 263.835 L 2.00159872102318 263.835 C 0.600479616306956 263.835 -0.500399680255795 263.472 0.500399680255795 263.01 L 0.500399680255795 0 L 1251.49960031974 0 L 1251.49960031974 263.01 C 1251.49960031974 263.472 1250.39872102318 263.835 1248.99760191847 263.835 Z"/></mask></defs><g><path fill="#fff" fill-rule="nonzero" stroke="none" d="M 1248.99760191847 263.835 L 2.00159872102318 263.835 C 0.600479616306956 263.835 -0.500399680255795 263.472 0.500399680255795 263.01 L 0.500399680255795 0 L 1251.49960031974 0 L 1251.49960031974 263.01 C 1251.49960031974 263.472 1250.39872102318 263.835 1248.99760191847 263.835 Z" transform="matrix(1 0 0 1 -24 -1144 ) matrix(1 0 0 1 24 1144 )"/><path fill="none" stroke="#e4e4e4" stroke-width="2" d="M 1248.99760191847 263.835 L 2.00159872102318 263.835 C 0.600479616306956 263.835 -0.500399680255795 263.472 0.500399680255795 263.01 L 0.500399680255795 0 L 1251.49960031974 0 L 1251.49960031974 263.01 C 1251.49960031974 263.472 1250.39872102318 263.835 1248.99760191847 263.835 Z" mask="url(#clip2828)" transform="matrix(1 0 0 1 -24 -1144 ) matrix(1 0 0 1 24 1144 )"/></g></svg>