<?xml version="1.0" encoding="utf-8"?>
<svg version="1.1" xmlns:xlink="http://www.w3.org/1999/xlink" width="42px" height="43px" xmlns="http://www.w3.org/2000/svg">
  <g transform="matrix(1 0 0 1 71 -88 )">
    <path d="M 1.42000000000002 14.44  C 4.30000000000002 9.89333333333333  7.18000000000002 5.18666666666667  10.9933333333334 1.36  C 12.8733333333334 -0.373333333333335  15.0066666666667 1.67999999999999  16.6866666666667 2.66666666666666  C 20.0733333333334 5.14666666666666  23.6466666666667 7.42666666666666  26.7666666666667 10.2666666666667  C 28.4733333333334 11.9733333333333  27.14 14.4933333333333  27.06 16.52  C 23.5666666666667 17.3733333333333  20.4333333333334 15.7866666666667  17.6333333333334 13.88  C 18.4866666666667 20.4933333333333  21.1666666666667 27.32  27.0733333333334 30.9733333333333  C 30.6733333333334 33.7066666666667  35.3266666666667 33.6533333333333  39.5133333333334 34.7466666666667  C 43.58 35.96  42.0333333333333 43.0266666666667  37.78 42.5733333333333  C 23.58 42.6666666666667  11.3666666666667 30.72  9.94000000000002 16.8133333333333  C 8.31333333333335 18.0933333333333  6.96666666666668 20.2933333333333  4.64666666666668 20.2133333333333  C 2.18000000000002 19.84  -0.179999999999982 16.7733333333333  1.42000000000002 14.44  Z " fill-rule="nonzero" fill="#0066ff" stroke="none" transform="matrix(1 0 0 1 -71 88 )" />
  </g>
</svg>