<svg xmlns="http://www.w3.org/2000/svg" xmlns:xlink="http://www.w3.org/1999/xlink" width="140" height="40" version="1.1"><g><path fill="#59595a" fill-rule="nonzero" stroke="none" d="M -15.8541019662497 35.5 C -15.8541019662497 35.5 -12.2743148582968 36.011398158279 -12.2743148582968 36.011398158279 C -12.2743148582968 36.011398158279 -0.546060779586782 55 -0.546060779586782 55 C -0.546060779586782 55 -12.2743148582968 73.988601841721 -12.2743148582968 73.988601841721 C -12.2743148582968 73.988601841721 -15.8541019662497 74.5 -15.8541019662497 74.5 C -15.8541019662497 74.5 -139.5 74.5 -139.5 74.5 C -139.5 74.5 -139.5 35.5 -139.5 35.5 C -139.5 35.5 -15.8541019662497 35.5 -15.8541019662497 35.5 Z" transform="matrix(1 0 0 1 140 -35 )"/><path fill="none" stroke="#d0d0d0" stroke-width="1" d="M -15.8541019662497 35.5 C -15.8541019662497 35.5 -12.2743148582968 36.011398158279 -12.2743148582968 36.011398158279 C -12.2743148582968 36.011398158279 -0.546060779586782 55 -0.546060779586782 55 C -0.546060779586782 55 -12.2743148582968 73.988601841721 -12.2743148582968 73.988601841721 C -12.2743148582968 73.988601841721 -15.8541019662497 74.5 -15.8541019662497 74.5 C -15.8541019662497 74.5 -139.5 74.5 -139.5 74.5 C -139.5 74.5 -139.5 35.5 -139.5 35.5 C -139.5 35.5 -15.8541019662497 35.5 -15.8541019662497 35.5 Z" transform="matrix(1 0 0 1 140 -35 )"/></g></svg>