<?xml version="1.0" encoding="utf-8"?>
<svg version="1.1" xmlns:xlink="http://www.w3.org/1999/xlink" width="120px" height="40px" xmlns="http://www.w3.org/2000/svg">
  <g transform="matrix(1 0 0 1 -80 -35 )">
    <path d="M 95.9068883707497 35.5  C 95.9068883707497 35.5  92.2808485156511 36.1043399758498  92.2808485156511 36.1043399758498  C 92.2808485156511 36.1043399758498  80.5525078110061 55  80.5525078110061 55  C 80.5525078110061 55  92.2808485156511 73.8956600241502  92.2808485156511 73.8956600241502  C 92.2808485156511 73.8956600241502  95.9068883707497 74.5  95.9068883707497 74.5  C 95.9068883707497 74.5  199.5 74.5  199.5 74.5  C 199.5 74.5  199.5 35.5  199.5 35.5  C 199.5 35.5  95.9068883707497 35.5  95.9068883707497 35.5  Z " fill-rule="nonzero" fill="#59595a" stroke="none" />
    <path d="M 95.9068883707497 35.5  C 95.9068883707497 35.5  92.2808485156511 36.1043399758498  92.2808485156511 36.1043399758498  C 92.2808485156511 36.1043399758498  80.5525078110061 55  80.5525078110061 55  C 80.5525078110061 55  92.2808485156511 73.8956600241502  92.2808485156511 73.8956600241502  C 92.2808485156511 73.8956600241502  95.9068883707497 74.5  95.9068883707497 74.5  C 95.9068883707497 74.5  199.5 74.5  199.5 74.5  C 199.5 74.5  199.5 35.5  199.5 35.5  C 199.5 35.5  95.9068883707497 35.5  95.9068883707497 35.5  Z " stroke-width="1" stroke="#d0d0d0" fill="none" />
  </g>
</svg>