<svg xmlns="http://www.w3.org/2000/svg" xmlns:xlink="http://www.w3.org/1999/xlink" width="80" height="40" version="1.1"><defs><linearGradient id="LinearGradient1531" x1="1009" x2="1088.2" y1="41.176" y2="41.176" gradientUnits="userSpaceOnUse"><stop id="Stop1532" offset="0" stop-color="#fe7548"/><stop id="Stop1533" offset="1" stop-color="#f59a23"/></linearGradient></defs><g><path fill="#fff" fill-rule="nonzero" stroke="none" d="M 1009.5 40 A 19.5 19.5 0 0 1 1029 20.5 L 1069 20.5 A 19.5 19.5 0 0 1 1088.5 40 A 19.5 19.5 0 0 1 1069 59.5 L 1029 59.5 A 19.5 19.5 0 0 1 1009.5 40 Z" transform="matrix(1 0 0 1 -1009 -20 )"/><path fill="none" stroke="url(#LinearGradient1531)" stroke-width="1" d="M 1009.5 40 A 19.5 19.5 0 0 1 1029 20.5 L 1069 20.5 A 19.5 19.5 0 0 1 1088.5 40 A 19.5 19.5 0 0 1 1069 59.5 L 1029 59.5 A 19.5 19.5 0 0 1 1009.5 40 Z" transform="matrix(1 0 0 1 -1009 -20 )"/></g></svg>