<svg xmlns="http://www.w3.org/2000/svg" xmlns:xlink="http://www.w3.org/1999/xlink" width="18" height="18" version="1.1"><g><path fill="#55acee" fill-rule="nonzero" stroke="none" d="M 2.55443478824017 8.18215384615388 L 2.61490159539476 8.1378461538462 L 2.58129061060852 8.03703010817313 L 2.55443478824017 7.90490969350966 L 2.53565217310858 7.8325083533654 L 2.53565217310858 7.74180602163469 L 2.53565217310858 7.63312373798084 L 2.53565217310858 7.53487626201928 L 2.56794507606907 7.4183277584134 L 2.60155606085526 7.29407358173075 L 2.64455835320722 7.16468226562503 L 2.70304804687499 7.02004013221156 L 2.78032037417763 6.86977927283652 L 2.88906178248352 6.71903679086532 L 2.88906178248352 6.61340468149041 L 2.89993592516448 6.51483611177878 L 2.91591762335529 6.38046822115391 L 2.96303889597042 6.23052841947117 L 3.00604118832239 6.06742474759616 L 3.04031120476974 5.99213378004805 L 3.07985354851975 5.92230100961544 L 3.13092906661184 5.84476254807686 L 3.1861235649671 5.78745149639422 L 3.1861235649671 5.68181940504809 L 3.1861235649671 5.56222072716352 L 3.1861235649671 5.41501004206731 L 3.21825171463815 5.22317057091342 L 3.25054461759869 5.00050835336534 L 3.30837527960525 4.73418059495185 L 3.38778947368419 4.45725751802885 L 3.44677346422696 4.3042675600961 L 3.50526315789473 4.13859531850957 L 3.56902517886511 3.9835183954327 L 3.6456384375 3.81800668269224 L 3.72373454975329 3.63660200120197 L 3.81352860814141 3.46595318509611 L 3.91452631578947 3.2845485036058 L 4.04221511101971 3.10330435096159 L 4.10054005139805 2.99991973557687 L 4.16364302220394 2.91435450721156 L 4.30006407483552 2.72283611177889 L 4.43978032277961 2.5314782632212 L 4.59976202097039 2.33466219951927 L 4.77045309004933 2.14282274639416 L 4.95597254728618 1.95419397836534 L 5.14940045847039 1.75994648437506 L 5.38319451685854 1.55028762620194 L 5.53246682565789 1.4233043509615 L 5.71320823396382 1.28620736177887 L 5.89658580592105 1.16468226562491 L 6.09545079769735 1.04813378004809 L 6.28640731702302 0.944749164663509 L 6.50125400699008 0.859344483173037 L 6.72977573807562 0.752909693509618 L 6.95697940583884 0.680508353365359 L 7.18401830180924 0.605538461538431 L 7.4286865028783 0.530729098557745 L 7.6731899321546 0.47373912259619 L 7.93120366776311 0.426862878605735 L 8.19185354851971 0.385605342548106 L 8.44854920230262 0.351892968750067 L 8.70656293791119 0.317859537259584 L 8.98072310649673 0.302929759615348 L 9.24153775904608 0.302929759615348 L 9.51157894736845 0.302929759615348 L 9.79101144325659 0.302929759615348 L 10.061052631579 0.336321075721084 L 10.332411901727 0.367785955528835 L 10.6097025123355 0.396200661057752 L 10.8660686410362 0.455759188701937 L 11.1377574362665 0.512267560096207 L 11.3924759765625 0.576802680288471 L 11.6712494222862 0.649525078125033 L 11.9266269942434 0.737498329326914 L 12.171130442023 0.838314374999949 L 12.4317803227796 0.944749164663509 L 12.6701876398026 1.06129765024033 L 12.9013455345395 1.190367890625 L 13.1280549239309 1.33292307692313 L 13.3241189987664 1.46488294471161 L 13.4140778104441 1.5398528365385 L 13.5094736842105 1.5942742427884 L 13.690874142681 1.74437457331734 L 13.8439359251645 1.88949832932698 L 13.9958443976151 2.03975918870188 L 14.1451167064145 2.2054314302884 L 14.2676979461349 2.36580602163468 L 14.4126865028783 2.5314782632212 L 14.5146727672698 2.70983277043271 L 14.6176475884046 2.86795986778853 L 14.7272128186678 3.05193311899035 L 14.8171716303454 3.21230769230774 L 14.9700686410362 3.55151839543268 L 15.0455286081414 3.72714380408658 L 15.1040183018092 3.89024749399033 L 15.1623432421875 4.06635450721152 L 15.2147368421053 4.232026748798 L 15.2523020538652 4.37442140625007 L 15.2994233449836 4.54266219951918 L 15.3829565193257 4.8428628786057 L 15.4358443976151 5.10437457331735 L 15.4701144140625 5.35802006610576 L 15.499771171875 5.56222072716352 L 15.5468924444901 5.87285619591347 L 15.5574370620888 5.92230100961544 L 15.595002292352 5.97929096754811 L 15.6959999999999 6.13982608774032 L 15.7604210526316 6.24802674879814 L 15.8182517146382 6.36232775841341 L 15.892228828125 6.48369230769225 L 15.9568146525493 6.62913712139419 L 15.9981693379934 6.77907692307693 L 16.0438077754934 6.9420200661057 L 16.0790663671875 7.11010033052893 L 16.0948832935856 7.19277591346151 L 16.1083935999177 7.29407358173075 L 16.1083935999177 7.38204681490385 L 16.0948832935856 7.47002006610583 L 16.0948832935856 7.57902340745198 L 16.0680274527138 7.68481604567313 L 16.0197528515625 7.88933780048072 L 15.9647231064967 7.99288294471154 L 15.9243569777961 8.10943143028854 L 15.9243569777961 8.1378461538462 L 15.9434690995065 8.17412709735575 L 15.9981693379934 8.25969230769232 L 16.2375652117599 8.60404013221154 L 16.4268741426809 8.86266219951921 L 16.5171624794408 9.03620066105762 L 16.639414194079 9.22498995793268 L 16.745354685444 9.43240134014425 L 16.8679359251645 9.65442140625006 L 16.9901876398027 9.90325083533659 L 17.1275972491776 10.1854715805288 L 17.204869557977 10.3585284194711 L 17.2762105263157 10.5269297596154 L 17.3378306620065 10.705444813702 L 17.3986269942434 10.8659799338942 L 17.4442654502467 11.0342207271635 L 17.4913867228618 11.1923478245192 L 17.5503707134046 11.5002541766827 L 17.5973272327303 11.8160267487981 L 17.6296201356908 12.0956789242788 L 17.6296201356908 12.2480267487981 L 17.6296201356908 12.3724414723558 L 17.6296201356908 12.4891505048077 L 17.6082013754112 12.6292976502404 L 17.5773913075658 12.8697792728365 L 17.5342242619243 13.0869832752403 L 17.4684851274671 13.283317734375 L 17.4442654502467 13.3635852764422 L 17.3986269942434 13.4595852764424 L 17.3597437006579 13.5270100420674 L 17.3086682010691 13.6096856249999 L 17.2628649917763 13.6618595372597 L 17.204869557977 13.7289632091346 L 17.1541235649671 13.7830635396635 L 17.0989290666118 13.8297792728365 L 17.0330251788651 13.8583545072115 L 16.9737116632401 13.8869297596154 L 16.9256018338815 13.9023411418269 L 16.8832585731908 13.9023411418269 L 16.851459948602 13.9023411418269 L 16.8040091509047 13.8869297596154 L 16.7128970291941 13.8427826141827 L 16.6715423252467 13.8142073617788 L 16.628540051398 13.7830635396635 L 16.5810892537006 13.7418060216346 L 16.5331441591283 13.6954113641827 L 16.4535652117599 13.6096856249999 L 16.359816926398 13.4883210757211 L 16.2858398129112 13.3635852764422 L 16.2120274527138 13.2632508353365 L 16.1398626994243 13.1467023497596 L 16.0387002199836 12.9394514963943 L 15.9243569777961 12.7243344411058 L 15.9110114432566 12.716789296875 L 15.892228828125 12.716789296875 L 15.8451075555099 12.7506621995192 L 15.8182517146382 12.8070100420673 L 15.7739313589638 12.8773244170673 L 15.6959999999999 13.0869832752403 L 15.5791853474507 13.3846153846154 L 15.4287597286185 13.7418060216346 L 15.3154050431744 13.9204816045673 L 15.1964485053454 14.1067023497596 L 15.0562379790296 14.3162006610576 L 14.9071304420231 14.5212040204327 L 14.8305171648849 14.6139933173078 L 14.7375926829769 14.7146488341346 L 14.5247231064967 14.9194916466346 L 14.5435057216282 14.937632109375 L 14.5725034292763 14.9662073617789 L 14.6786086924343 15.0281739122596 L 15.1221418852796 15.235103671875 L 15.3154050431744 15.3410568569711 L 15.499771171875 15.4446020012019 L 15.6826544654605 15.5741538461538 L 15.8451075555099 15.7090033413461 L 15.9243569777961 15.7688829447115 L 15.9836704749177 15.8387157151441 L 16.0438077754934 15.9186621995193 L 16.0948832935856 16.0067959795674 L 16.1219038877467 16.0795183954327 L 16.1555148725329 16.1673310997596 L 16.1690251788652 16.2419799338942 L 16.1848421052632 16.3304347896635 L 16.1690251788652 16.3899933173077 L 16.1690251788652 16.4489096935096 L 16.1555148725329 16.5118394711538 L 16.1219038877467 16.5680267487981 L 16.1083935999177 16.6124949879808 L 16.0790663671875 16.6661137139424 L 15.9981693379934 16.7730301081731 L 15.9243569777961 16.8587558473558 L 15.8665263157894 16.9226488341347 L 15.8182517146382 16.9700066826923 L 15.6959999999999 17.0578194050481 L 15.5574370620888 17.1331103725962 L 15.4096475884046 17.2058327704328 L 15.2523020538652 17.2750234074519 L 15.0750205941612 17.3418060216346 L 14.9811075555098 17.3707023497597 L 14.8960915275494 17.3943010096154 L 14.6919542269737 17.4406956490385 L 14.4797437006579 17.4845217367789 L 14.2676979461349 17.5289899579327 L 14.0360457730263 17.5651103725962 L 13.7971441591283 17.5749030108173 L 13.5523112047697 17.6036387920673 L 13.310773464227 17.6036387920673 L 13.0553958737665 17.6036387920673 L 12.7930984046052 17.6036387920673 L 12.518773464227 17.5880668810096 L 12.2635606455592 17.5651103725962 L 11.9897299835527 17.5289899579327 L 11.7168878782895 17.5002541766827 L 11.4292173848684 17.4610836057692 L 11.1511029708059 17.3943010096154 L 10.8794141940789 17.3418060216346 L 10.6097025123355 17.2673177343749 L 10.332411901727 17.1716387920673 L 10.061052631579 17.0913712319711 L 9.91853546669407 17.0446555168268 L 9.79101144325659 17.0000267487981 L 9.71044393914475 16.9700066826923 L 9.63102974506576 16.9542742427885 L 9.52772539884869 16.9542742427885 L 9.40547368421054 16.9542742427885 L 9.14465903166119 16.9358127043269 L 9.01235697779605 16.9226488341347 L 8.84232494037828 16.9045083533654 L 8.73341876027959 17.0000267487981 L 8.58431120476977 17.0913712319711 L 8.38281006784538 17.187210703125 L 8.15956064555922 17.3064882872596 L 8.02396337787835 17.3707023497597 L 7.88292906661187 17.422394657452 L 7.56972083264805 17.5466488341346 L 7.39968879523028 17.5880668810096 L 7.22158353207238 17.635103671875 L 6.97444393914473 17.6811772536058 L 6.81989932154599 17.6940200661058 L 6.65579862458882 17.707183954327 L 6.48527230879937 17.7256454927885 L 6.28640731702302 17.7335117127404 L 6.09545079769735 17.7335117127404 L 5.89658580592105 17.7335117127404 L 5.47397711348685 17.7335117127404 L 5.01495651932563 17.7256454927885 L 4.57027001644732 17.6811772536058 L 4.34454920230262 17.6506755829327 L 4.12673684210528 17.6193712319711 L 3.91452631578947 17.5880668810096 L 3.70215103618422 17.5466488341346 L 3.50526315789473 17.4845217367789 L 3.30837527960525 17.4406956490385 L 3.13092906661184 17.3707023497597 L 2.96303889597042 17.3064882872596 L 2.80717619654608 17.2331237379807 L 2.67141419407894 17.1531772536058 L 2.53565217310858 17.0578194050481 L 2.49001373560853 17.0107826141827 L 2.42954690995067 16.9542742427885 L 2.38374370065792 16.9045083533654 L 2.34222426192436 16.8483210757211 L 2.30449427837173 16.7906889663462 L 2.27500229235198 16.7341805949519 L 2.23265903166118 16.6124949879808 L 2.21733638363486 16.5502073617788 L 2.19838901521383 16.4802140444711 L 2.19838901521383 16.4163210757211 L 2.21733638363486 16.3432775841346 L 2.21733638363486 16.2708762620193 L 2.23265903166118 16.1979933173077 L 2.23265903166118 16.1541672295673 L 2.23265903166118 16.0535117127403 L 2.24007322574014 15.9754916466346 L 2.27500229235198 15.8870367908654 L 2.30449427837173 15.7995451442308 L 2.35820594161185 15.6932709014424 L 2.39725400699013 15.6521739122596 L 2.42954690995067 15.6057792728365 L 2.51423341282895 15.5048026802885 L 2.58129061060852 15.4524682211538 L 2.64455835320722 15.4163478245192 L 2.70304804687499 15.3699531850962 L 2.79646682565793 15.3410568569711 L 2.87027916735192 15.2978729026442 L 2.96303889597042 15.2508361117788 L 3.06914415912828 15.2201739122596 L 3.17524942228619 15.1883879567308 L 3.29766590871709 15.1630234074519 L 3.41464531455591 15.1472909675481 L 3.55287872738487 15.1294715805288 L 3.70215103618422 15.1188762620192 L 3.7418581147204 15.105712373798 L 3.74976658717104 15.105712373798 L 3.76871395559212 15.0899799338943 L 3.76871395559212 15.0724816045673 L 3.7418581147204 15.0360401322115 L 3.66178488898029 14.9997591887019 L 3.4629199157072 14.8313578665865 L 3.32979405838814 14.7281337800481 L 3.17524942228619 14.5961739122596 L 3.0195514946546 14.4488026802886 L 2.85693363281247 14.2596923076923 L 2.67141419407894 14.0474648798077 L 2.60155606085526 13.9333244170673 L 2.50879633223686 13.8142073617788 L 2.42954690995067 13.6767892968749 L 2.35820594161185 13.5270100420674 L 2.26165675781252 13.3846153846154 L 2.19838901521383 13.2215117127403 L 2.12391762335524 13.0585685697116 L 2.04911670641447 12.8773244170673 L 1.99425171463819 12.703946484375 L 1.94301144325656 12.4891505048077 L 1.92686499177632 12.4809632091346 L 1.91154232524668 12.4809632091346 L 1.90330434621712 12.4655518449519 L 1.88452173108552 12.4655518449519 L 1.85305263157895 12.4809632091346 L 1.83690618009866 12.4891505048077 L 1.81548741981908 12.5251103725962 L 1.80741419407896 12.5690969891827 L 1.79126774259871 12.607946484375 L 1.76309381990134 12.6724816045673 L 1.67165217310854 12.8309297596154 L 1.62453090049341 12.9264481550481 L 1.55005949013161 13.0092842848558 L 1.46998626439145 13.1099398016826 L 1.38266361636514 13.2215117127403 L 1.28990388774669 13.3200802644231 L 1.1811624794408 13.4155986598558 L 1.0796704749178 13.5059799338943 L 0.968787181332237 13.5764548557692 L 0.846370713404599 13.6514247475961 L 0.729556060855271 13.6954113641827 L 0.591157894736824 13.7289632091346 L 0.455395873766412 13.7418060216346 L 0.442050339226955 13.7418060216346 L 0.423102970805922 13.7418060216346 L 0.392128149671032 13.7289632091346 L 0.368073225740102 13.6767892968749 L 0.32770709703949 13.6514247475961 L 0.275313497121704 13.5270100420674 L 0.243020594161163 13.4595852764424 L 0.208091527549323 13.3635852764422 L 0.179258573190788 13.2632508353365 L 0.163771171875027 13.1645217367789 L 0.120768879523013 12.9394514963943 L 0.104622428042768 12.8070100420673 L 0.104622428042768 12.6724816045673 L 0.104622428042768 12.3724414723558 L 0.120768879523013 12.0489632091346 L 0.147624720394731 11.8832909675481 L 0.179258573190788 11.7124816045673 L 0.208091527549323 11.5286689002404 L 0.259167045641459 11.3578595372596 L 0.316997707648017 11.1608829447116 L 0.376146451480275 10.969685625 L 0.455395873766412 10.772709032452 L 0.529867284128312 10.5837591887019 L 0.632842105263188 10.3920802644231 L 0.729556060855271 10.1854715805288 L 0.846370713404599 9.99138461538467 L 0.984274601151316 9.78140468149032 L 1.12464988075658 9.59261538461541 L 1.27112127261515 9.38311705528853 L 1.39337300575662 9.23799331730763 L 1.55005949013161 9.06975250600959 L 1.71465446546056 8.90151171274044 L 1.79126774259871 8.82140468149036 L 1.88452173108552 8.73070234975964 L 2.01962472039472 8.61640134014423 L 2.15818763980265 8.50033444110573 L 2.38374370065792 8.30351839543272 L 2.55443478824017 8.18215384615388 Z" transform="matrix(1 0 0 1 -1102 -238 ) matrix(1 0 0 1 1102 238 )"/></g></svg>