<svg xmlns="http://www.w3.org/2000/svg" xmlns:xlink="http://www.w3.org/1999/xlink" width="20" height="18" version="1.1"><g><path fill="#fff" fill-rule="nonzero" stroke="none" d="M 0.535930232558144 8.86011627906977 C 0.218953488372094 6.12197674418604 1.77348837209301 3.47488372093024 3.98558139534883 1.95744186046511 C 7.67802325581394 -0.551395348837204 12.9789534883721 -0.527790697674419 16.5398837209302 2.22720930232558 C 18.9374418604651 4.00430232558139 20.2626744186046 7.29546511627906 19.3016279069767 10.1920930232558 C 18.7620930232558 12.0669767441861 17.3458139534884 13.5001162790698 15.8418604651163 14.663488372093 C 16.0138372093023 15.4356976744186 16.1790697674419 16.2146511627907 16.3038372093023 17.0003488372093 C 15.113488372093 16.5383720930233 13.9602325581395 15.4289534883721 12.6012790697674 15.9280232558139 C 10.0081395348837 16.5653488372093 7.19581395348837 16.1977906976744 4.8353488372093 14.9568604651163 C 2.57267441860465 13.7361627906977 0.721395348837206 11.4970930232558 0.535930232558144 8.86011627906977 Z M 7.41162790697673 6.75255813953488 C 9.03697674418603 6.16581395348837 7.91406976744186 3.48162790697674 6.3460465116279 4.28418604651164 C 4.71058139534884 4.87093023255814 5.83348837209302 7.53825581395348 7.41162790697673 6.75255813953488 Z M 13.8152325581395 6.75255813953488 C 15.4405813953488 6.15906976744185 14.3277906976744 3.48837209302326 12.7462790697674 4.2706976744186 C 11.1276744186047 4.88441860465116 12.2337209302326 7.52476744186046 13.8152325581395 6.75255813953488 Z" transform="matrix(1 0 0 1 -668 -86 ) matrix(1 0 0 1 668 86 )"/></g></svg>