<svg xmlns="http://www.w3.org/2000/svg" xmlns:xlink="http://www.w3.org/1999/xlink" width="18" height="28" version="1.1"><g><path fill="#1980ff" fill-rule="nonzero" stroke="none" d="M 0.581395348837205 6.86046511627907 C 0.581395348837205 4.61127906976744 0.581395348837205 2.36546511627907 0.584767441860457 0.119651162790698 C 2.83058139534883 0.116279069767442 5.07639534883721 0.112906976744185 7.32558139534883 0.119651162790698 C 7.32558139534883 1.24255813953488 7.32558139534883 2.36546511627907 7.32558139534883 3.48837209302325 C 8.44848837209302 3.48837209302325 9.57476744186046 3.48837209302325 10.6976744186046 3.48837209302325 C 10.6976744186046 4.61127906976744 10.6976744186046 5.73418604651163 10.6976744186046 6.86046511627907 C 11.8239534883721 6.86046511627907 12.9468604651163 6.86046511627907 14.0697674418605 6.86383720930233 C 14.0697674418605 11.3588372093023 14.0663953488372 15.8504651162791 14.0731395348837 20.3454651162791 C 15.1960465116279 20.3488372093023 16.3189534883721 20.3488372093023 17.4418604651163 20.3488372093023 C 17.4418604651163 22.598023255814 17.4418604651163 24.8438372093023 17.4418604651163 27.093023255814 C 15.1926744186047 27.093023255814 12.9468604651163 27.093023255814 10.7010465116279 27.093023255814 C 10.6943023255814 25.9667441860465 10.6943023255814 24.8438372093023 10.6976744186046 23.7209302325581 C 11.8205813953488 23.7209302325581 12.943488372093 23.7209302325581 14.0663953488372 23.7209302325581 C 14.0697674418605 22.5946511627907 14.0731395348837 21.4717441860465 14.0731395348837 20.3488372093023 C 12.9468604651163 20.3454651162791 11.8239534883721 20.3488372093023 10.7010465116279 20.3522093023256 C 10.6976744186046 21.4751162790698 10.6943023255814 22.598023255814 10.6976744186046 23.7209302325581 C 9.57139534883721 23.7209302325581 8.44848837209302 23.7209302325581 7.32558139534883 23.7209302325581 C 7.32220930232558 22.598023255814 7.32558139534883 21.4751162790698 7.32895348837209 20.3488372093023 C 8.45186046511628 20.3522093023256 9.57476744186046 20.3488372093023 10.6976744186046 20.3488372093023 C 10.6976744186046 19.2259302325581 10.7010465116279 18.0996511627907 10.6943023255814 16.9767441860465 C 9.57139534883721 16.9767441860465 8.44848837209302 16.9767441860465 7.32558139534883 16.9767441860465 C 7.32558139534883 15.8538372093023 7.32558139534883 14.7309302325581 7.32220930232558 13.608023255814 C 6.19930232558139 13.6046511627907 5.07639534883721 13.6046511627907 3.95348837209302 13.6046511627907 C 3.95348837209302 11.3554651162791 3.95686046511627 9.1096511627907 3.95348837209302 6.86046511627907 C 2.82720930232558 6.86046511627907 1.70430232558139 6.86046511627907 0.581395348837205 6.86046511627907 Z M 10.6976744186046 10.2325581395349 C 9.57476744186046 10.2291860465116 8.44848837209302 10.2291860465116 7.32558139534883 10.2325581395349 C 7.32220930232558 11.3588372093023 7.32220930232558 12.4817441860465 7.32558139534883 13.6046511627907 C 8.44848837209302 13.608023255814 9.57139534883721 13.6046511627907 10.6976744186046 13.6046511627907 C 10.7010465116279 12.4783720930233 10.7010465116279 11.3554651162791 10.6976744186046 10.2325581395349 Z" transform="matrix(1 0 0 1 -649 -28 ) matrix(1 0 0 1 649 28 )"/></g></svg>