<svg xmlns="http://www.w3.org/2000/svg" xmlns:xlink="http://www.w3.org/1999/xlink" width="24" height="24" version="1.1"><g><path fill="#1980ff" fill-rule="nonzero" stroke="none" d="M 0.282441860465113 23.7209302325581 C 0.279069767441854 15.8538372093023 0.279069767441854 7.98337209302326 0.282441860465113 0.116279069767442 C 8.14953488372092 0.116279069767442 16.0166279069768 0.116279069767442 23.8837209302326 0.116279069767442 C 23.8837209302326 7.98337209302326 23.8837209302326 15.8504651162791 23.8837209302326 23.7209302325581 C 16.0166279069768 23.7243023255814 8.14953488372092 23.7209302325581 0.282441860465113 23.7209302325581 Z M 20.5116279069767 3.48837209302325 C 14.8903488372093 3.48837209302325 9.27244186046512 3.48837209302325 3.65116279069767 3.48837209302325 C 3.64779069767442 9.1096511627907 3.64779069767442 14.7275581395349 3.65453488372093 20.3488372093023 C 9.27244186046512 20.3488372093023 14.8903488372093 20.3522093023256 20.5082558139535 20.3488372093023 C 20.515 14.7275581395349 20.5116279069767 9.1096511627907 20.5116279069767 3.48837209302325 Z" transform="matrix(1 0 0 1 -710 -28 ) matrix(1 0 0 1 710 28 )"/></g></svg>