<svg xmlns="http://www.w3.org/2000/svg" xmlns:xlink="http://www.w3.org/1999/xlink" width="58" height="95" version="1.1"><g><path fill="#1980ff" fill-rule="nonzero" stroke="none" d="M 20.8338372093023 3.85709302325581 C 20.8372093023256 2.73418604651163 20.8372093023256 1.61127906976744 20.8372093023256 0.488372093023255 C 21.9601162790698 0.488372093023255 23.0830232558139 0.488372093023255 24.2093023255814 0.49174418604651 C 24.2093023255814 1.6146511627907 24.2126744186046 2.73755813953488 24.2093023255814 3.86046511627907 C 25.3322093023256 3.86046511627907 26.4551162790698 3.86383720930233 27.578023255814 3.86383720930233 C 27.5847674418605 4.98674418604651 27.5847674418605 6.1096511627907 27.5813953488372 7.23255813953488 C 26.4551162790698 7.23593023255814 25.3322093023256 7.23593023255814 24.2093023255814 7.23255813953488 C 24.2093023255814 6.1096511627907 24.2093023255814 4.98674418604651 24.2093023255814 3.86383720930233 C 23.0830232558139 3.86046511627907 21.9601162790698 3.85709302325581 20.8338372093023 3.86046511627907 C 20.8372093023256 6.1096511627907 20.8338372093023 8.35546511627907 20.8372093023256 10.6012790697674 C 21.9601162790698 10.6046511627907 23.0830232558139 10.6046511627907 24.2093023255814 10.6046511627907 C 24.2126744186046 11.7275581395349 24.2126744186046 12.8538372093023 24.2059302325581 13.9767441860465 C 23.0830232558139 13.9767441860465 21.9601162790698 13.9767441860465 20.8372093023256 13.9767441860465 C 20.8372093023256 15.0996511627907 20.8372093023256 16.2259302325581 20.8372093023256 17.3488372093023 C 19.7109302325581 17.3488372093023 18.588023255814 17.3488372093023 17.4651162790698 17.3488372093023 C 17.4617441860465 19.598023255814 17.4651162790698 21.8438372093023 17.4651162790698 24.093023255814 C 16.3422093023256 24.093023255814 15.2193023255814 24.093023255814 14.0963953488372 24.0963953488372 C 14.093023255814 25.2193023255814 14.093023255814 26.3422093023256 14.093023255814 27.4651162790698 C 15.2159302325581 27.4651162790698 16.3422093023256 27.4651162790698 17.4651162790698 27.4651162790698 C 17.4651162790698 28.588023255814 17.4651162790698 29.7109302325581 17.4651162790698 30.8372093023256 C 19.7143023255814 30.8372093023256 21.9601162790698 30.8338372093023 24.2059302325581 30.8372093023256 C 24.2093023255814 31.9601162790698 24.2126744186046 33.0863953488372 24.2093023255814 34.2093023255814 C 23.0863953488372 34.2059302325581 21.963488372093 34.2059302325581 20.8405813953488 34.2093023255814 C 20.8372093023256 35.3322093023256 20.8338372093023 36.4551162790698 20.8338372093023 37.578023255814 C 21.9601162790698 37.5813953488372 23.0830232558139 37.5813953488372 24.2093023255814 37.5813953488372 C 24.2093023255814 36.458488372093 24.2093023255814 35.3322093023256 24.2093023255814 34.2093023255814 C 25.3322093023256 34.2093023255814 26.4551162790698 34.2059302325581 27.5813953488372 34.2093023255814 C 27.578023255814 33.0863953488372 27.5847674418605 31.9601162790698 27.5847674418605 30.8372093023256 C 28.7076744186047 30.8372093023256 29.8305813953488 30.8372093023256 30.953488372093 30.8372093023256 C 30.953488372093 28.588023255814 30.953488372093 26.3422093023256 30.953488372093 24.093023255814 C 32.0763953488372 24.093023255814 33.1993023255814 24.093023255814 34.3222093023256 24.0963953488372 C 34.3289534883721 26.3422093023256 34.3222093023256 28.588023255814 34.3289534883721 30.8338372093023 C 35.4518604651163 30.8405813953488 36.5747674418605 30.8405813953488 37.6976744186046 30.8372093023256 C 37.6943023255814 29.7143023255814 37.6976744186046 28.5913953488372 37.6976744186046 27.4651162790698 C 39.9468604651163 27.4617441860465 42.1926744186047 27.4651162790698 44.4418604651163 27.4651162790698 C 44.4418604651163 28.588023255814 44.4418604651163 29.7143023255814 44.4418604651163 30.8372093023256 C 42.1926744186047 30.8372093023256 39.9468604651163 30.8338372093023 37.6976744186046 30.8405813953488 C 37.6976744186046 31.963488372093 37.6976744186046 33.0863953488372 37.6976744186046 34.2093023255814 C 34.3255813953488 34.2160465116279 30.953488372093 34.2025581395349 27.5847674418605 34.2126744186046 C 27.5813953488372 35.3355813953488 27.5847674418605 36.458488372093 27.5813953488372 37.5813953488372 C 26.458488372093 37.578023255814 25.3355813953488 37.578023255814 24.2126744186046 37.5813953488372 C 24.2059302325581 40.953488372093 24.2059302325581 44.3255813953488 24.2093023255814 47.6976744186047 C 25.3322093023256 47.7010465116279 26.4551162790698 47.7010465116279 27.5813953488372 47.6976744186047 C 27.5813953488372 45.448488372093 27.5813953488372 43.2026744186046 27.5813953488372 40.953488372093 C 29.8305813953488 40.953488372093 32.0763953488372 40.953488372093 34.3255813953488 40.953488372093 C 34.3255813953488 39.8272093023256 34.3255813953488 38.7043023255814 34.3289534883721 37.5813953488372 C 36.5747674418605 37.578023255814 38.8205813953488 37.5813953488372 41.0697674418605 37.5813953488372 C 41.0663953488372 36.458488372093 41.0697674418605 35.3355813953488 41.0697674418605 34.2126744186046 C 43.3189534883721 34.2025581395349 45.5647674418605 34.2160465116279 47.8139534883721 34.2059302325581 C 47.8139534883721 33.0830232558139 47.8105813953488 31.9601162790698 47.8139534883721 30.8405813953488 C 48.9368604651163 30.8372093023256 50.0597674418605 30.8372093023256 51.1860465116279 30.8372093023256 C 51.1826744186046 29.7109302325581 51.1860465116279 28.588023255814 51.1860465116279 27.4651162790698 C 52.3123255813953 27.4651162790698 53.4352325581395 27.4651162790698 54.561511627907 27.4651162790698 C 54.5581395348837 28.2879069767442 54.5345348837209 29.1140697674419 54.5277906976744 29.9402325581395 C 54.43 30.3516279069767 54.7570930232558 30.7461627906977 55.1347674418605 30.8641860465116 C 56.0654651162791 30.8743023255814 56.9961627906977 30.8338372093023 57.9302325581395 30.8338372093023 C 57.9268604651163 31.9601162790698 57.9302325581395 33.0863953488372 57.9302325581395 34.2126744186046 C 57.1040697674419 34.2059302325581 56.2812790697675 34.1856976744186 55.4551162790698 34.1789534883721 C 55.0403488372093 34.0811627906977 54.6458139534884 34.4082558139535 54.5311627906977 34.7859302325581 C 54.5210465116279 35.7166279069767 54.5581395348837 36.6473255813953 54.5648837209302 37.578023255814 C 53.4386046511628 37.578023255814 52.3123255813953 37.5813953488372 51.1894186046512 37.5813953488372 C 51.1860465116279 38.7043023255814 51.1860465116279 39.8305813953488 51.1826744186046 40.953488372093 C 48.9368604651163 40.953488372093 46.6910465116279 40.953488372093 44.4418604651163 40.953488372093 C 44.4418604651163 39.8272093023256 44.4418604651163 38.7043023255814 44.4418604651163 37.5813953488372 C 43.3189534883721 37.5813953488372 42.1960465116279 37.5813953488372 41.0731395348837 37.5847674418605 C 41.0697674418605 38.7076744186047 41.0697674418605 39.8305813953488 41.0697674418605 40.953488372093 C 39.943488372093 40.953488372093 38.8205813953488 40.953488372093 37.6976744186046 40.953488372093 C 37.7010465116279 42.851976744186 37.6943023255814 44.7470930232558 37.6976744186046 46.6422093023256 C 36.4533720930233 47.4177906976744 35.3540697674419 48.3923255813953 34.3424418604651 49.4477906976744 C 34.3289534883721 48.8610465116279 34.3222093023256 48.2776744186047 34.3120930232558 47.6976744186047 C 33.1925581395349 47.6943023255814 32.073023255814 47.6976744186047 30.9568604651163 47.7010465116279 C 30.953488372093 48.8205813953488 30.953488372093 49.943488372093 30.953488372093 51.0663953488372 C 31.7324418604651 51.0663953488372 32.5113953488372 51.0663953488372 33.2903488372093 51.0697674418605 C 32.1438372093023 53.3627906976744 31.5638372093023 56.0503488372093 32.2955813953488 58.5659302325581 C 32.8283720930233 60.9331395348837 34.3154651162791 62.9395348837209 36.0824418604651 64.5513953488372 C 35.4956976744186 64.5581395348837 34.9089534883721 64.561511627907 34.3255813953488 64.5716279069767 C 34.3255813953488 66.8140697674419 34.3222093023256 69.056511627907 34.3289534883721 71.3023255813954 C 35.448488372093 71.3023255813954 36.5713953488372 71.3023255813954 37.6909302325581 71.3023255813954 C 37.6943023255814 70.4289534883721 37.6976744186046 69.5522093023256 37.7010465116279 68.6788372093023 C 38.7868604651163 68.1966279069767 39.7816279069767 67.5356976744186 40.8674418604651 67.0602325581395 C 42.6816279069767 67.2355813953488 44.4553488372093 67.7548837209302 46.2324418604651 68.1258139534884 C 47.2339534883721 69.3161627906977 48.3231395348837 70.4289534883721 49.6213953488372 71.3023255813954 C 47.8948837209302 71.3090697674419 46.1683720930233 71.2989534883721 44.4418604651163 71.3023255813954 C 44.4418604651163 70.1794186046512 44.4418604651163 69.056511627907 44.4452325581395 67.9336046511628 C 43.3189534883721 67.9268604651163 42.1960465116279 67.9268604651163 41.0697674418605 67.9268604651163 C 41.0697674418605 69.0531395348837 41.0697674418605 70.1760465116279 41.0731395348837 71.2989534883721 C 42.1960465116279 71.3023255813954 43.3189534883721 71.3023255813954 44.4418604651163 71.3023255813954 C 44.4418604651163 73.551511627907 44.4418604651163 75.8006976744186 44.4418604651163 78.0498837209302 C 43.6156976744186 78.0431395348837 42.7895348837209 78.0229069767442 41.9667441860465 78.0161627906977 C 41.551976744186 77.9183720930233 41.1574418604651 78.2454651162791 41.0427906976744 78.626511627907 C 41.0326744186046 79.5538372093023 41.0731395348837 80.4879069767442 41.0731395348837 81.4186046511628 C 39.9468604651163 81.4186046511628 38.8172093023256 81.4186046511628 37.6909302325581 81.4152325581395 C 37.6976744186046 80.5924418604651 37.7212790697674 79.7696511627907 37.728023255814 78.9468604651163 C 37.8258139534884 78.5320930232558 37.4987209302326 78.1341860465116 37.1244186046512 78.0161627906977 C 36.1903488372093 78.0060465116279 35.2596511627907 78.046511627907 34.3289534883721 78.0532558139535 C 34.3289534883721 76.926976744186 34.3255813953488 75.8006976744186 34.3222093023256 74.6777906976744 C 33.1993023255814 74.6744186046512 32.0763953488372 74.6710465116279 30.953488372093 74.6744186046512 C 30.953488372093 75.7973255813953 30.953488372093 76.9202325581395 30.953488372093 78.046511627907 C 29.8305813953488 78.046511627907 28.7076744186047 78.046511627907 27.5847674418605 78.0498837209302 C 27.578023255814 81.4186046511628 27.5813953488372 84.7906976744186 27.5813953488372 88.1594186046512 C 28.7043023255814 88.1594186046512 29.8305813953488 88.1627906976744 30.953488372093 88.1661627906977 C 30.953488372093 89.2890697674418 30.953488372093 90.411976744186 30.953488372093 91.5348837209302 C 28.7043023255814 91.5348837209302 26.458488372093 91.5348837209302 24.2093023255814 91.5348837209302 C 24.2093023255814 92.6577906976744 24.2059302325581 93.7806976744186 24.2093023255814 94.906976744186 C 23.0863953488372 94.906976744186 21.9601162790698 94.906976744186 20.8372093023256 94.906976744186 C 20.8372093023256 92.6577906976744 20.8372093023256 90.411976744186 20.8405813953488 88.1627906976744 C 21.963488372093 88.1594186046512 23.0863953488372 88.1594186046512 24.2093023255814 88.1627906976744 C 24.2126744186046 87.0398837209302 24.2126744186046 85.9136046511628 24.2059302325581 84.7906976744186 C 21.9601162790698 84.7873255813954 19.7109302325581 84.7906976744186 17.4651162790698 84.7906976744186 C 17.4651162790698 82.5448837209302 17.4651162790698 80.2956976744186 17.4651162790698 78.0498837209302 C 20.8372093023256 78.0431395348837 24.2093023255814 78.0498837209302 27.5813953488372 78.046511627907 C 27.5813953488372 75.7973255813953 27.5813953488372 73.5481395348837 27.578023255814 71.3023255813954 C 26.458488372093 71.2989534883721 25.3355813953488 71.3023255813954 24.2126744186046 71.3056976744186 C 24.2093023255814 72.4286046511628 24.2093023255814 73.551511627907 24.2059302325581 74.6744186046512 C 23.0830232558139 74.6744186046512 21.9601162790698 74.6744186046512 20.8405813953488 74.6744186046512 C 20.8372093023256 73.551511627907 20.8338372093023 72.4286046511628 20.8338372093023 71.3056976744186 C 21.9601162790698 71.3023255813954 23.0830232558139 71.3023255813954 24.2093023255814 71.3023255813954 C 24.2059302325581 69.3532558139535 24.1991860465116 67.4041860465116 24.2396511627907 65.4551162790698 C 24.3543023255814 64.9459302325581 23.8248837209302 64.4097674418605 23.3123255813953 64.5277906976744 C 21.3632558139535 64.5716279069767 19.4141860465116 64.5581395348837 17.4651162790698 64.5581395348837 C 17.4651162790698 65.6810465116279 17.4651162790698 66.8039534883721 17.4651162790698 67.9302325581395 C 16.3388372093023 67.9302325581395 15.2159302325581 67.9302325581395 14.093023255814 67.9302325581395 C 14.093023255814 64.5581395348837 14.093023255814 61.1860465116279 14.093023255814 57.8173255813953 C 12.9701162790698 57.8105813953488 11.8472093023256 57.8105813953488 10.7243023255814 57.8139534883721 C 10.7209302325581 58.9402325581395 10.7209302325581 60.0631395348837 10.7175581395349 61.1860465116279 C 8.47174418604651 61.1894186046512 6.22593023255814 61.1826744186046 3.97674418604651 61.1860465116279 C 3.97674418604651 60.0631395348837 3.97674418604651 58.9368604651163 3.97674418604651 57.8139534883721 C 6.22593023255814 57.8139534883721 8.47511627906977 57.8139534883721 10.7209302325581 57.8139534883721 C 10.7209302325581 56.6876744186046 10.7209302325581 55.5647674418605 10.7209302325581 54.4418604651163 C 9.5946511627907 54.4418604651163 8.47174418604651 54.4418604651163 7.34883720930232 54.4418604651163 C 7.34883720930232 53.3155813953488 7.34883720930232 52.1926744186047 7.35220930232558 51.0697674418605 C 10.7209302325581 51.0663953488372 14.093023255814 51.0697674418605 17.4651162790698 51.0697674418605 C 17.4651162790698 52.1926744186047 17.4651162790698 53.3155813953488 17.4651162790698 54.4418604651163 C 20.8372093023256 54.4418604651163 24.2093023255814 54.4418604651163 27.5813953488372 54.4418604651163 C 27.5813953488372 53.3189534883721 27.5813953488372 52.1926744186047 27.578023255814 51.0731395348837 C 25.3322093023256 51.0663953488372 23.0863953488372 51.0731395348837 20.8372093023256 51.0663953488372 C 20.8372093023256 47.6976744186047 20.8372093023256 44.3255813953488 20.8372093023256 40.953488372093 C 19.7109302325581 40.953488372093 18.588023255814 40.953488372093 17.4651162790698 40.953488372093 C 17.4651162790698 38.7043023255814 17.4651162790698 36.458488372093 17.4651162790698 34.2126744186046 C 16.3422093023256 34.2093023255814 15.2193023255814 34.2059302325581 14.093023255814 34.2059302325581 C 14.093023255814 33.0830232558139 14.093023255814 31.9601162790698 14.0896511627907 30.8372093023256 C 12.9701162790698 30.8338372093023 11.8472093023256 30.8372093023256 10.7243023255814 30.8405813953488 C 10.7209302325581 31.963488372093 10.7209302325581 33.0863953488372 10.7175581395349 34.2093023255814 C 9.5946511627907 34.2093023255814 8.47174418604651 34.2093023255814 7.34883720930232 34.2093023255814 C 7.34546511627907 33.0863953488372 7.34883720930232 31.963488372093 7.35220930232558 30.8405813953488 C 8.47511627906977 30.8405813953488 9.59802325581396 30.8372093023256 10.7209302325581 30.8372093023256 C 10.7209302325581 29.7109302325581 10.7209302325581 28.588023255814 10.7175581395349 27.4651162790698 C 9.5946511627907 27.4651162790698 8.47174418604651 27.4651162790698 7.34883720930232 27.4651162790698 C 7.34883720930232 28.588023255814 7.34883720930232 29.7109302325581 7.34546511627907 30.8372093023256 C 6.22255813953488 30.8372093023256 5.0996511627907 30.8372093023256 3.97674418604651 30.8372093023256 C 3.97674418604651 29.7109302325581 3.97674418604651 28.588023255814 3.97674418604651 27.4651162790698 C 2.85046511627907 27.4651162790698 1.72755813953488 27.4651162790698 0.604651162790695 27.4651162790698 C 0.604651162790695 26.3422093023256 0.604651162790695 25.2193023255814 0.608023255813954 24.0963953488372 C 5.10302325581396 24.0896511627907 9.59802325581396 24.093023255814 14.093023255814 24.093023255814 C 14.093023255814 20.7209302325581 14.093023255814 17.3488372093023 14.093023255814 13.9767441860465 C 15.2159302325581 13.9767441860465 16.3422093023256 13.9767441860465 17.4651162790698 13.9767441860465 C 17.4651162790698 10.6046511627907 17.4651162790698 7.23255813953488 17.4651162790698 3.86046511627907 C 18.588023255814 3.86046511627907 19.7109302325581 3.86046511627907 20.8338372093023 3.85709302325581 Z M 54.6255813953488 30.8608139534884 C 53.4790697674419 30.8203488372093 52.3325581395349 30.8338372093023 51.1860465116279 30.8405813953488 C 51.1826744186046 31.963488372093 51.1826744186046 33.0830232558139 51.1860465116279 34.2059302325581 C 52.2887209302326 34.1722093023256 53.4048837209302 34.3138372093023 54.4974418604651 34.1486046511628 C 54.6593023255814 33.0627906976744 54.4873255813953 31.9533720930233 54.6255813953488 30.8608139534884 Z M 27.5813953488372 57.8173255813953 C 24.2093023255814 57.8105813953488 20.8372093023256 57.8139534883721 17.4651162790698 57.8139534883721 C 17.4651162790698 58.9368604651163 17.4651162790698 60.0597674418605 17.4651162790698 61.1860465116279 C 19.7143023255814 61.1927906976744 21.963488372093 61.1793023255814 24.2126744186046 61.1894186046512 C 24.2463953488372 62.2887209302326 24.1047674418605 63.4048837209302 24.27 64.4974418604651 C 25.3625581395349 64.6593023255814 26.4787209302326 64.5210465116279 27.5813953488372 64.5547674418605 C 27.5813953488372 62.3089534883721 27.5813953488372 60.0631395348837 27.5813953488372 57.8173255813953 Z M 30.953488372093 64.5581395348837 C 29.8305813953488 64.5581395348837 28.7076744186047 64.5581395348837 27.5813953488372 64.561511627907 C 27.5813953488372 66.8073255813953 27.5813953488372 69.0531395348837 27.5813953488372 71.2989534883721 C 28.7076744186047 71.3023255813954 29.8305813953488 71.3023255813954 30.953488372093 71.3023255813954 C 30.953488372093 69.0531395348837 30.953488372093 66.8073255813953 30.953488372093 64.5581395348837 Z M 41.0630232558139 74.6744186046512 C 39.943488372093 74.6710465116279 38.8205813953488 74.6710465116279 37.7010465116279 74.6744186046512 C 37.7347674418605 75.7770930232558 37.5931395348837 76.8932558139535 37.7583720930233 77.9858139534884 C 38.8273255813953 78.1105813953488 39.9367441860465 78.1105813953488 41.0090697674419 77.9858139534884 C 41.1743023255814 76.8932558139535 41.0326744186046 75.7770930232558 41.0630232558139 74.6744186046512 Z" transform="matrix(1 0 0 1 -622 -31 ) matrix(1 0 0 1 622 31 )"/></g></svg>