<svg xmlns="http://www.w3.org/2000/svg" xmlns:xlink="http://www.w3.org/1999/xlink" width="11" height="7" version="1.1"><g><path fill="#1980ff" fill-rule="nonzero" stroke="none" d="M 0.279069767441854 3.46511627906977 C 0.279069767441854 2.34220930232558 0.279069767441854 1.21593023255814 0.282441860465113 0.0930232558139537 C 2.52825581395349 0.0930232558139537 4.77406976744184 0.0896511627906946 7.01988372093024 0.0930232558139537 C 7.02325581395348 1.21593023255814 7.02325581395348 2.34220930232558 7.02325581395348 3.46511627906977 C 8.14616279069766 3.46511627906977 9.26906976744186 3.46511627906977 10.3953488372093 3.46511627906977 C 10.3953488372093 4.58802325581395 10.3953488372093 5.71430232558139 10.3953488372093 6.83720930232558 C 8.14616279069766 6.83720930232558 5.90034883720931 6.83720930232558 3.65116279069767 6.83720930232558 C 3.65116279069767 5.71093023255813 3.64779069767442 4.58802325581395 3.65116279069767 3.46511627906977 C 2.52488372093023 3.46511627906977 1.40197674418604 3.46511627906977 0.279069767441854 3.46511627906977 Z" transform="matrix(1 0 0 1 -710 -55 ) matrix(1 0 0 1 710 55 )"/></g></svg>