<svg xmlns="http://www.w3.org/2000/svg" xmlns:xlink="http://www.w3.org/1999/xlink" width="55" height="61" version="1.1"><g><path fill="#1980ff" fill-rule="nonzero" stroke="none" d="M 17.7906976744186 6.93023255813954 C 17.7906976744186 4.68104651162791 17.7906976744186 2.43523255813953 17.7940697674419 0.186046511627907 C 18.916976744186 0.182674418604648 20.0398837209302 0.182674418604648 21.1627906976744 0.182674418604648 C 21.1594186046512 1.3089534883721 21.1627906976744 2.43186046511627 21.1661627906977 3.55813953488372 C 22.2856976744186 3.55813953488372 23.4086046511628 3.55476744186046 24.531511627907 3.55813953488372 C 24.5382558139535 5.80732558139535 24.531511627907 8.05313953488373 24.5382558139535 10.2989534883721 C 26.7840697674419 10.3023255813954 29.0298837209302 10.3023255813954 31.2756976744186 10.2989534883721 C 31.2790697674419 9.1760465116279 31.2790697674419 8.05313953488373 31.2790697674419 6.93023255813954 C 30.1527906976744 6.93023255813954 29.0298837209302 6.93023255813954 27.906976744186 6.93023255813954 C 27.906976744186 5.80395348837209 27.906976744186 4.68104651162791 27.906976744186 3.55813953488372 C 30.1561627906977 3.55813953488372 32.401976744186 3.55813953488372 34.6511627906977 3.55813953488372 C 34.6545348837209 5.80732558139535 34.6545348837209 8.05313953488373 34.6477906976744 10.3023255813954 C 33.5248837209302 10.3023255813954 32.401976744186 10.3056976744186 31.2790697674419 10.3023255813954 C 31.2756976744186 11.4252325581395 31.2756976744186 12.5481395348837 31.2824418604651 13.6744186046512 C 33.5282558139535 13.6811627906977 35.7740697674418 13.6676744186046 38.0198837209302 13.6744186046512 C 38.0232558139535 14.7973255813953 38.0266279069767 15.9202325581395 38.0232558139535 17.046511627907 C 36.9003488372093 17.0431395348837 35.7774418604651 17.0431395348837 34.6545348837209 17.046511627907 C 34.6444186046512 19.2956976744186 34.6579069767442 21.541511627907 34.6511627906977 23.7906976744186 C 33.5248837209302 23.7906976744186 32.401976744186 23.7906976744186 31.2790697674419 23.7940697674419 C 31.2756976744186 24.916976744186 31.2756976744186 26.0398837209302 31.2790697674419 27.1627906976744 C 32.401976744186 27.1594186046512 33.5248837209302 27.1594186046512 34.6511627906977 27.1627906976744 C 34.6511627906977 28.2856976744186 34.6511627906977 29.4086046511628 34.6511627906977 30.531511627907 C 35.7740697674418 30.5382558139535 36.896976744186 30.5348837209302 38.0232558139535 30.531511627907 C 38.0198837209302 29.4086046511628 38.0198837209302 28.2856976744186 38.0232558139535 27.1661627906977 C 39.1461627906977 27.1594186046512 40.2690697674419 27.1594186046512 41.3953488372093 27.1695348837209 C 41.3953488372093 29.4153488372093 41.3953488372093 31.6611627906977 41.3953488372093 33.906976744186 C 42.5182558139535 33.906976744186 43.6411627906977 33.906976744186 44.7674418604651 33.906976744186 C 44.7674418604651 35.0298837209302 44.7674418604651 36.1527906976744 44.7708139534884 37.2790697674419 C 45.8937209302325 37.2790697674419 47.0132558139535 37.2790697674419 48.1395348837209 37.2790697674419 C 48.1361627906977 35.33 48.1294186046512 33.3809302325581 48.1698837209302 31.4318604651163 C 48.2643023255814 31.0170930232558 47.9372093023256 30.6225581395349 47.5629069767442 30.5079069767442 C 46.6288372093023 30.4944186046512 45.6947674418605 30.5348837209302 44.7606976744186 30.5416279069767 C 44.7674418604651 29.7154651162791 44.7910465116279 28.8893023255814 44.7977906976744 28.0631395348837 C 44.8955813953488 27.645 44.5651162790698 27.2504651162791 44.1908139534884 27.1358139534884 C 43.2567441860465 27.1256976744186 42.3260465116279 27.1627906976744 41.3953488372093 27.1695348837209 C 41.3953488372093 26.0432558139535 41.3953488372093 24.916976744186 41.3953488372093 23.7906976744186 C 42.5182558139535 23.7906976744186 43.6445348837209 23.7906976744186 44.7708139534884 23.7940697674419 C 44.8011627906977 24.8933720930232 44.6629069767442 26.0095348837209 44.8281395348837 27.1020930232558 C 45.9206976744186 27.2673255813953 47.0368604651163 27.1256976744186 48.1429069767442 27.1594186046512 C 48.1766279069767 28.2620930232558 48.035 29.3816279069767 48.2002325581395 30.4741860465116 C 49.2927906976744 30.6360465116279 50.4089534883721 30.4977906976744 51.5116279069767 30.531511627907 C 51.5082558139535 29.4086046511628 51.5082558139535 28.2856976744186 51.5116279069767 27.1661627906977 C 52.6345348837209 27.1594186046512 53.7574418604651 27.1594186046512 54.8837209302326 27.1627906976744 C 54.8837209302326 28.2856976744186 54.8837209302326 29.4086046511628 54.8837209302326 30.5348837209302 C 53.7608139534884 30.5348837209302 52.6379069767442 30.5348837209302 51.515 30.5382558139535 C 51.5082558139535 32.7840697674419 51.515 35.0298837209302 51.5116279069767 37.2790697674419 C 50.3853488372093 37.2790697674419 49.2624418604651 37.2790697674419 48.1429069767442 37.2790697674419 C 48.1361627906977 38.401976744186 48.1361627906977 39.5282558139535 48.1395348837209 40.6511627906977 C 50.3887209302326 40.6545348837209 52.6345348837209 40.6444186046512 54.8837209302326 40.6511627906977 C 54.8837209302326 41.7740697674418 54.8837209302326 42.9003488372093 54.8837209302326 44.0232558139535 C 53.7574418604651 44.0232558139535 52.6345348837209 44.0232558139535 51.515 44.0266279069767 C 51.5116279069767 45.1495348837209 51.5116279069767 46.2724418604651 51.5116279069767 47.3953488372093 C 48.1395348837209 47.3953488372093 44.7674418604651 47.391976744186 41.3953488372093 47.3953488372093 C 41.3953488372093 48.5182558139535 41.3953488372093 49.6411627906977 41.3953488372093 50.7674418604651 C 40.2724418604651 50.7674418604651 39.1495348837209 50.7674418604651 38.0266279069767 50.7674418604651 C 38.0198837209302 53.0166279069768 38.0198837209302 55.2624418604651 38.0266279069767 57.5116279069767 C 39.1495348837209 57.5116279069767 40.2724418604651 57.5116279069767 41.3953488372093 57.5116279069767 C 41.3953488372093 58.6345348837209 41.3953488372093 59.7574418604651 41.3953488372093 60.8837209302326 C 38.0232558139535 60.8837209302326 34.6511627906977 60.8837209302326 31.2790697674419 60.8837209302326 C 31.2790697674419 59.7574418604651 31.2790697674419 58.6345348837209 31.2824418604651 57.5116279069767 C 32.401976744186 57.5082558139535 33.5248837209302 57.5082558139535 34.6477906976744 57.5116279069767 C 34.6511627906977 56.3853488372093 34.6545348837209 55.2624418604651 34.6511627906977 54.1395348837209 C 33.5248837209302 54.1395348837209 32.401976744186 54.1395348837209 31.2824418604651 54.1395348837209 C 31.2756976744186 51.8903488372093 31.2790697674419 49.6445348837209 31.2790697674419 47.3953488372093 C 30.1527906976744 47.3953488372093 29.0298837209302 47.3953488372093 27.906976744186 47.3953488372093 C 27.906976744186 48.5182558139535 27.906976744186 49.6411627906977 27.906976744186 50.7674418604651 C 26.7806976744186 50.7674418604651 25.6577906976744 50.7674418604651 24.5348837209302 50.7674418604651 C 24.531511627907 48.5182558139535 24.5382558139535 46.2724418604651 24.531511627907 44.0266279069767 C 23.4086046511628 44.0198837209302 22.2856976744186 44.0198837209302 21.1627906976744 44.0232558139535 C 21.1594186046512 46.2724418604651 21.1627906976744 48.5182558139535 21.1627906976744 50.7674418604651 C 22.2856976744186 50.7674418604651 23.4086046511628 50.7708139534884 24.531511627907 50.7708139534884 C 24.5348837209302 53.0166279069768 24.5348837209302 55.2624418604651 24.5382558139535 57.5082558139535 C 22.2856976744186 57.515 20.0398837209302 57.5082558139535 17.7906976744186 57.5082558139535 C 17.7873255813954 56.3853488372093 17.7873255813954 55.2624418604651 17.7940697674419 54.1395348837209 C 18.9136046511628 54.1361627906977 20.0398837209302 54.1361627906977 21.1627906976744 54.1395348837209 C 21.1627906976744 53.0166279069768 21.1661627906977 51.8903488372093 21.1594186046512 50.7708139534884 C 18.9136046511628 50.7674418604651 16.6677906976744 50.7674418604651 14.4186046511628 50.7674418604651 C 14.4152325581395 53.0166279069768 14.4186046511628 55.2624418604651 14.4186046511628 57.5116279069767 C 13.2956976744186 57.5116279069767 12.1694186046512 57.5116279069767 11.0498837209302 57.5116279069767 C 11.0498837209302 56.3853488372093 11.0431395348837 55.2624418604651 11.0431395348837 54.1395348837209 C 8.79732558139534 54.1361627906977 6.55151162790698 54.1361627906977 4.3056976744186 54.1395348837209 C 4.29895348837209 55.2624418604651 4.29895348837209 56.3853488372093 4.30232558139535 57.5116279069767 C 5.42523255813954 57.5082558139535 6.54813953488373 57.5116279069767 7.67104651162791 57.5116279069767 C 7.67441860465117 58.6345348837209 7.67779069767441 59.7574418604651 7.67441860465117 60.8837209302326 C 6.54813953488373 60.8837209302326 5.42523255813954 60.8837209302326 4.30232558139535 60.8837209302326 C 4.30232558139535 59.7608139534884 4.30232558139535 58.6379069767442 4.29895348837209 57.515 C 3.1760465116279 57.5116279069767 2.05313953488373 57.5116279069767 0.930232558139536 57.5116279069767 C 0.930232558139536 55.2624418604651 0.930232558139536 53.0132558139535 0.930232558139536 50.7674418604651 C 3.1760465116279 50.7674418604651 5.42523255813954 50.7674418604651 7.67104651162791 50.7674418604651 C 7.67441860465117 49.6411627906977 7.67441860465117 48.5182558139535 7.67441860465117 47.3953488372093 C 11.046511627907 47.3953488372093 14.4186046511628 47.3953488372093 17.7906976744186 47.3953488372093 C 17.7738372093023 39.7170930232558 17.8244186046512 32.0422093023256 17.7637209302326 24.3673255813953 C 17.8783720930232 23.9896511627907 18.2729069767442 23.6625581395349 18.6876744186047 23.7603488372093 C 20.6367441860465 23.8008139534884 22.5824418604651 23.7906976744186 24.531511627907 23.7940697674419 C 24.531511627907 24.916976744186 24.5348837209302 26.0398837209302 24.5382558139535 27.1627906976744 C 25.6611627906977 27.1627906976744 26.7840697674419 27.1627906976744 27.906976744186 27.1627906976744 C 27.906976744186 28.2856976744186 27.906976744186 29.4086046511628 27.906976744186 30.5348837209302 C 29.0298837209302 30.5348837209302 30.1527906976744 30.5348837209302 31.2756976744186 30.5348837209302 C 31.2790697674419 29.411976744186 31.2824418604651 28.2890697674418 31.2790697674419 27.1661627906977 C 30.1527906976744 27.1627906976744 29.0298837209302 27.1594186046512 27.906976744186 27.1627906976744 C 27.906976744186 26.036511627907 27.906976744186 24.9136046511628 27.906976744186 23.7906976744186 C 26.7806976744186 23.7906976744186 25.6577906976744 23.7906976744186 24.5348837209302 23.7906976744186 C 24.5348837209302 22.6644186046512 24.5348837209302 21.541511627907 24.5348837209302 20.4186046511628 C 25.6577906976744 20.4186046511628 26.7806976744186 20.4186046511628 27.906976744186 20.4186046511628 C 27.906976744186 19.2923255813954 27.906976744186 18.1694186046512 27.906976744186 17.046511627907 C 26.7840697674419 17.046511627907 25.6611627906977 17.046511627907 24.5382558139535 17.0498837209302 C 24.5348837209302 18.1727906976744 24.5348837209302 19.2956976744186 24.5348837209302 20.4186046511628 C 23.411976744186 20.4186046511628 22.2856976744186 20.4186046511628 21.1627906976744 20.4186046511628 C 21.1594186046512 19.2923255813954 21.1594186046512 18.1694186046512 21.1627906976744 17.046511627907 C 22.2856976744186 17.046511627907 23.411976744186 17.0431395348837 24.5348837209302 17.0431395348837 C 24.5348837209302 15.9202325581395 24.5348837209302 14.7973255813953 24.5348837209302 13.6744186046512 C 23.4086046511628 13.6744186046512 22.2856976744186 13.6710465116279 21.1627906976744 13.6744186046512 C 21.1594186046512 11.4252325581395 21.1695348837209 9.17941860465116 21.1594186046512 6.93023255813954 C 20.036511627907 6.93023255813954 18.9136046511628 6.93023255813954 17.7906976744186 6.93023255813954 Z M 24.531511627907 27.1627906976744 C 23.4086046511628 27.1594186046512 22.2856976744186 27.1594186046512 21.1627906976744 27.1627906976744 C 21.1627906976744 29.411976744186 21.1594186046512 31.6577906976744 21.1627906976744 33.906976744186 C 22.2856976744186 33.906976744186 23.411976744186 33.906976744186 24.5348837209302 33.906976744186 C 24.5348837209302 31.6577906976744 24.5348837209302 29.411976744186 24.531511627907 27.1627906976744 Z M 38.0232558139535 33.906976744186 C 34.6511627906977 33.906976744186 31.2790697674419 33.906976744186 27.906976744186 33.906976744186 C 27.906976744186 37.2790697674419 27.906976744186 40.6511627906977 27.906976744186 44.0232558139535 C 31.2790697674419 44.0232558139535 34.6511627906977 44.0266279069767 38.0232558139535 44.0198837209302 C 38.0232558139535 40.6477906976744 38.0232558139535 37.2790697674419 38.0232558139535 33.906976744186 Z M 24.5348837209302 37.2824418604651 C 23.411976744186 37.2756976744186 22.2890697674418 37.2756976744186 21.1627906976744 37.2790697674419 C 21.1594186046512 38.401976744186 21.1594186046512 39.5282558139535 21.1627906976744 40.6511627906977 C 22.2856976744186 40.6511627906977 23.4086046511628 40.6511627906977 24.531511627907 40.6511627906977 C 24.5348837209302 39.5282558139535 24.5382558139535 38.4053488372093 24.5348837209302 37.2824418604651 Z M 44.7674418604651 40.6545348837209 C 43.6445348837209 40.6477906976744 42.5182558139535 40.6477906976744 41.3953488372093 40.6511627906977 C 41.3953488372093 41.7740697674418 41.3953488372093 42.896976744186 41.3953488372093 44.0232558139535 C 42.5182558139535 44.0232558139535 43.6411627906977 44.0232558139535 44.7640697674419 44.0232558139535 C 44.7674418604651 42.9003488372093 44.7708139534884 41.7774418604651 44.7674418604651 40.6545348837209 Z" transform="matrix(1 0 0 1 -679 -92 ) matrix(1 0 0 1 679 92 )"/></g></svg>