<svg xmlns="http://www.w3.org/2000/svg" xmlns:xlink="http://www.w3.org/1999/xlink" width="11" height="11" version="1.1"><g><path fill="#1980ff" fill-rule="nonzero" stroke="none" d="M 3.48837209302325 7.41860465116278 C 3.49174418604651 5.16941860465116 3.485 2.92360465116279 3.48837209302325 0.674418604651166 C 5.73755813953488 0.671046511627907 7.98674418604651 0.671046511627907 10.2325581395349 0.674418604651166 C 10.2359302325581 2.92360465116279 10.2359302325581 5.16941860465116 10.2325581395349 7.41860465116278 C 9.1096511627907 7.41860465116278 7.98674418604651 7.41860465116278 6.86046511627907 7.41860465116278 C 6.86046511627907 8.54151162790697 6.86046511627907 9.66441860465117 6.85709302325581 10.7873255813954 C 4.61127906976744 10.7906976744186 2.36546511627907 10.7906976744186 0.119651162790698 10.7873255813954 C 0.116279069767442 9.66441860465117 0.116279069767442 8.54151162790697 0.116279069767442 7.41860465116278 C 1.23918604651163 7.41860465116278 2.36546511627907 7.41860465116278 3.48837209302325 7.41860465116278 Z" transform="matrix(1 0 0 1 -609 -105 ) matrix(1 0 0 1 609 105 )"/></g></svg>