<svg xmlns="http://www.w3.org/2000/svg" xmlns:xlink="http://www.w3.org/1999/xlink" width="11" height="11" version="1.1"><g><path fill="#1980ff" fill-rule="nonzero" stroke="none" d="M 4.13953488372093 4.13953488372093 C 4.13616279069768 3.01662790697675 4.13953488372093 1.89034883720929 4.13953488372093 0.770813953488371 C 5.26244186046512 0.764069767441853 6.38872093023255 0.764069767441853 7.51499999999999 0.770813953488371 C 7.51162790697674 3.01662790697675 7.5082558139535 5.26244186046512 7.51499999999999 7.51162790697674 C 8.63790697674418 7.51162790697674 9.75744186046512 7.51162790697674 10.8837209302326 7.51162790697674 C 10.8837209302326 8.63453488372093 10.8837209302326 9.75744186046512 10.8837209302326 10.8837209302326 C 7.51162790697674 10.8837209302326 4.13953488372093 10.8837209302326 0.767441860465112 10.8837209302326 C 0.767441860465112 8.63453488372093 0.767441860465112 6.38872093023255 0.770813953488371 4.13953488372093 C 1.89034883720929 4.13616279069768 3.01325581395349 4.13616279069768 4.13953488372093 4.13953488372093 Z" transform="matrix(1 0 0 1 -723 -142 ) matrix(1 0 0 1 723 142 )"/></g></svg>