<svg xmlns="http://www.w3.org/2000/svg" xmlns:xlink="http://www.w3.org/1999/xlink" width="34" height="28" version="1.1"><g><path fill="#96cf1d" fill-rule="nonzero" stroke="none" d="M 0.334186046511626 11.481976744186 C 0.128488372093017 8.46732558139536 1.68302325581395 5.5470930232558 3.99290697674418 3.68232558139534 C 8.4339534883721 0.0606976744186056 15.2894186046512 -0.0370930232558209 19.8720930232558 3.37883720930233 C 21.996511627907 4.90976744186047 23.3622093023256 7.27697674418604 23.9422093023256 9.80267441860465 C 26.2352325581395 10.1837209302326 28.5956976744186 10.8480232558139 30.3390697674419 12.4632558139535 C 32.6826744186046 14.4797674418605 33.8561627906977 17.9462790697674 32.6927906976744 20.893488372093 C 32.1161627906977 22.6132558139535 30.8179069767442 23.9317441860465 29.4353488372093 25.0377906976744 C 29.6983720930233 25.941511627907 29.9479069767442 26.851976744186 30.0861627906977 27.7894186046512 C 28.9329069767442 27.523023255814 27.9617441860465 26.8148837209302 26.8658139534884 26.4136046511628 C 25.7631395348837 26.3731395348837 24.6941860465116 26.7643023255814 23.591511627907 26.7508139534884 C 19.6360465116279 26.9396511627907 15.5052325581395 24.8590697674419 13.7787209302326 21.2070930232558 C 11.7487209302326 21.3756976744186 9.74232558139535 21.0620930232558 7.76627906976744 20.6574418604651 C 6.45453488372093 21.1261627906977 5.33837209302325 22.053488372093 3.95244186046511 22.3468604651163 C 3.98953488372093 21.2172093023256 4.63697674418604 20.1347674418605 4.5796511627907 19.0320930232558 C 2.27313953488372 17.1841860465116 0.354418604651165 14.5472093023256 0.334186046511626 11.481976744186 Z M 10.0424418604651 7.13534883720929 C 9.93116279069767 6.11023255813953 8.78465116279069 5.53697674418604 7.85732558139535 5.8606976744186 C 6.51860465116279 6.17767441860465 6.34662790697674 8.35267441860465 7.6246511627907 8.8686046511628 C 8.75093023255815 9.55651162790697 10.3324418604651 8.42011627906976 10.0424418604651 7.13534883720929 Z M 18.1759302325581 7.41523255813954 C 18.2029069767442 6.27546511627907 17.0024418604651 5.47627906976744 15.9503488372093 5.85732558139535 C 14.615 6.17093023255813 14.4160465116279 8.36279069767443 15.7143023255814 8.86186046511628 C 16.7529069767442 9.51941860465115 18.1995348837209 8.60558139534884 18.1759302325581 7.41523255813954 Z M 29.5398837209302 12.2272093023256 C 25.9789534883721 9.47220930232558 20.6780232558139 9.4486046511628 16.9855813953488 11.9574418604651 C 14.773488372093 13.4748837209302 13.2189534883721 16.121976744186 13.5359302325581 18.8601162790698 C 13.7213953488372 21.4970930232558 15.5726744186046 23.7361627906977 17.8353488372093 24.9568604651163 C 20.1958139534884 26.1977906976744 23.0081395348837 26.5653488372093 25.6012790697674 25.9280232558139 C 26.9602325581395 25.4289534883721 28.113488372093 26.5383720930233 29.3038372093023 27.0003488372093 C 29.1790697674419 26.2146511627907 29.0138372093023 25.4356976744186 28.8418604651163 24.663488372093 C 30.3458139534884 23.5001162790698 31.7620930232558 22.0669767441861 32.3016279069767 20.1920930232558 C 33.2626744186046 17.2954651162791 31.9374418604651 14.0043023255814 29.5398837209302 12.2272093023256 Z" transform="matrix(1 0 0 1 -655 -76 ) matrix(1 0 0 1 655 76 )"/></g></svg>