<svg xmlns="http://www.w3.org/2000/svg" xmlns:xlink="http://www.w3.org/1999/xlink" width="35" height="35" version="1.1"><g><path fill="#fff" fill-rule="nonzero" stroke="none" d="M 34.7889415322581 17.4610131048387 C 34.7889415322581 26.98171875 27.0428629032258 34.7273034274194 17.5226512096774 34.7273034274194 C 8.00145161290323 34.7273034274194 0.255866935483873 26.98171875 0.255866935483873 17.4610131048387 C 0.255866935483873 7.94030745967742 8.00145161290323 0.194228830645161 17.5226512096774 0.194228830645161 C 27.0433568548387 0.194228830645161 34.7889415322581 7.94030745967742 34.7889415322581 17.4610131048387 Z M 33.3437802419355 17.4609778225806 C 33.3437802419355 8.73701612903226 26.2461189516129 1.63935483870968 17.5226512096774 1.63935483870968 C 8.79868951612903 1.63935483870968 1.70102822580645 8.73701612903226 1.70102822580645 17.4609778225806 C 1.70102822580645 26.184939516129 8.79819556451613 33.2821068548387 17.5226512096774 33.2821068548387 C 26.2461189516129 33.2821068548387 33.3437802419355 26.184939516129 33.3437802419355 17.4609778225806 Z M 15.0364868951613 16.5794153225806 L 14.4010887096774 16.0880745967742 C 16.1160181451613 14.2189969758065 17.6382358870968 13.2844758064516 18.9673185483871 13.2844758064516 C 19.3146370967742 13.2844758064516 19.5550151209677 13.3374697580645 19.6898991935484 13.4434576612903 C 19.8242893145161 13.549939516129 19.8922076612903 13.7180241935484 19.8922076612903 13.9492641129032 C 19.8922076612903 14.2965826612903 19.5839112903226 15.4522177419355 18.9673185483871 17.4176512096774 C 17.9653377016129 20.8282459677419 17.4643649193548 22.8422983870968 17.4643649193548 23.4584324596774 C 17.4643649193548 23.7672227822581 17.560720766129 23.920877016129 17.7538911290323 23.920877016129 C 18.139279233871 23.920877016129 18.9287903225806 23.3428125 20.1239415322581 22.1866834677419 L 20.6442137096774 22.7358518145161 C 19.4105342741935 23.9112449596774 18.4861038306452 24.6771875 17.8695110887097 25.0341381048387 C 17.2524243951613 25.3901360887097 16.7321522177419 25.5683467741935 16.3087298387097 25.5683467741935 C 15.9619052419355 25.5683467741935 15.7060735887097 25.4426008064516 15.5427872983871 25.1925907258065 C 15.3785131048387 24.9425806451613 15.296622983871 24.6728125 15.296622983871 24.3832862903226 C 15.296622983871 23.3240070564516 16.0090776209677 20.4524546370968 17.43546875 15.7701108870968 C 17.5120665322581 15.5388709677419 17.5510887096774 15.3563205645161 17.5510887096774 15.2209425403226 C 17.5510887096774 15.009002016129 17.43546875 14.9030141129032 17.2037701612903 14.9030141129032 C 16.8762096774194 14.9035080645161 16.1536290322581 15.4623084677419 15.0365221774194 16.5794153225806 Z M 17.9450856854839 10.8262550403226 C 17.9450856854839 10.4028326612903 18.0896018145161 10.0511743951613 18.3781401209677 9.77177419354839 C 18.6676663306452 9.49237399193548 19.0043649193548 9.35269153225807 19.3902469758065 9.35269153225807 C 19.6407510080645 9.35269153225807 19.8618296370968 9.46347782258064 20.0550352822581 9.68459173387097 C 20.2472177419355 9.90665826612903 20.3440675403226 10.161502016129 20.3440675403226 10.4505342741935 C 20.3440675403226 10.8364163306452 20.1995514112903 11.1832409274194 19.9110131048387 11.4910433467742 C 19.6214868951613 11.7998336693548 19.2939264112903 11.9534879032258 18.9282963709677 11.9534879032258 C 18.6195060483871 11.9534879032258 18.3786340725806 11.8479939516129 18.2057157258065 11.6360534274194 C 18.0318094758065 11.4241129032258 17.9450856854839 11.1543447580645 17.9450856854839 10.8262903225806 Z" transform="matrix(1 0 0 1 -18 -9 ) matrix(1 0 0 1 18 9 )"/></g></svg>