<svg xmlns="http://www.w3.org/2000/svg" xmlns:xlink="http://www.w3.org/1999/xlink" width="28" height="26" version="1.1"><g><path fill="#1980ff" fill-rule="nonzero" stroke="none" d="M 16.9604000000001 10.2806 L 17.2261 25.5016000000001 C 16.0452 25.8262 14.7981 26 13.5089 26 C 6.04813999999999 26 0 20.1797000000001 0 13 C 0 5.82029999999986 6.04813999999999 0 13.5089 0 C 16.5934999999999 0 19.4367 0.994902999999795 21.7107 2.66944999999987 L 9.16593 2.88842000000022 C 8.01489000000004 2.90851000000021 7.14174000000003 3.26175000000012 6.54647999999997 3.94815000000017 C 5.95122000000003 4.63455000000022 5.66377999999997 5.5613800000001 5.68415000000005 6.72866999999997 C 5.70380999999998 7.85501000000022 6.01133000000004 8.75610000000006 6.60671000000002 9.43195999999989 C 7.20209999999997 10.1078000000002 8.09894999999995 10.4353000000001 9.29729999999995 10.4144000000001 L 16.9604000000001 10.2806 Z M 23.9613000000001 10.1583999999998 L 24.1507 21.0086999999999 C 25.947 18.8013999999998 27.0178 16.0210000000002 27.0178 13 C 27.0178 12.0070000000001 26.9021 11.0401000000002 26.683 10.1109000000001 L 23.9613000000001 10.1583999999998 Z" transform="matrix(1 0 0 1 -949 -137 ) matrix(1 0 0 1 949 137 )"/></g></svg>