<?xml version="1.0" encoding="utf-8"?>
<svg version="1.1" xmlns:xlink="http://www.w3.org/1999/xlink" width="147px" height="147px" xmlns="http://www.w3.org/2000/svg">
  <g transform="matrix(1 0 0 1 -40 -1111 )">
    <path d="M 113.5 1112  C 154.1 1112  186 1143.9  186 1184.5  C 186 1225.1  154.1 1257  113.5 1257  C 72.9 1257  41 1225.1  41 1184.5  C 41 1143.9  72.9 1112  113.5 1112  Z " fill-rule="nonzero" fill="#f58f63" stroke="none" />
    <path d="M 113.5 1112  C 154.1 1112  186 1143.9  186 1184.5  C 186 1225.1  154.1 1257  113.5 1257  C 72.9 1257  41 1225.1  41 1184.5  C 41 1143.9  72.9 1112  113.5 1112  Z " stroke-width="2" stroke="#ffffff" fill="none" />
  </g>
</svg>