<?xml version="1.0" encoding="utf-8"?>
<svg version="1.1" xmlns:xlink="http://www.w3.org/1999/xlink" width="149px" height="53px" xmlns="http://www.w3.org/2000/svg">
  <g transform="matrix(1 0 0 1 -548 -763 )">
    <path d="M 676.019576693977 764.5  C 676.019576693977 764.5  678.987602998199 765.02787045008  678.987602998199 765.02787045008  C 678.987602998199 765.02787045008  695.309574009399 789.5  695.309574009399 789.5  C 695.309574009399 789.5  678.987602998199 813.97212954992  678.987602998199 813.97212954992  C 678.987602998199 813.97212954992  676.019576693977 814.5  676.019576693977 814.5  C 676.019576693977 814.5  549.5 814.5  549.5 814.5  C 549.5 814.5  549.5 764.5  549.5 764.5  C 549.5 764.5  676.019576693977 764.5  676.019576693977 764.5  Z " fill-rule="nonzero" fill="#a1a1a1" stroke="none" />
    <path d="M 675.946384462652 764  C 675.946384462652 764  679.2584019988 764.589050098711  679.2584019988 764.589050098711  C 679.2584019988 764.589050098711  695.873049339599 789.5  695.873049339599 789.5  C 695.873049339599 789.5  679.2584019988 814.410949901289  679.2584019988 814.410949901289  C 679.2584019988 814.410949901289  675.946384462651 815  675.946384462651 815  C 675.946384462651 815  549 815  549 815  C 549 815  549 764  549 764  C 549 764  675.946384462652 764  675.946384462652 764  Z " stroke-width="2" stroke="#ffffff" fill="none" />
  </g>
</svg>