<?xml version="1.0" encoding="utf-8"?>
<svg version="1.1" xmlns:xlink="http://www.w3.org/1999/xlink" width="149px" height="53px" xmlns="http://www.w3.org/2000/svg">
  <g transform="matrix(1 0 0 1 -418 -763 )">
    <path d="M 546.019576693977 764.5  C 546.019576693977 764.5  548.987602998199 765.02787045008  548.987602998199 765.02787045008  C 548.987602998199 765.02787045008  565.309574009399 789.5  565.309574009399 789.5  C 565.309574009399 789.5  548.987602998199 813.97212954992  548.987602998199 813.97212954992  C 548.987602998199 813.97212954992  546.019576693977 814.5  546.019576693977 814.5  C 546.019576693977 814.5  419.5 814.5  419.5 814.5  C 419.5 814.5  419.5 764.5  419.5 764.5  C 419.5 764.5  546.019576693977 764.5  546.019576693977 764.5  Z " fill-rule="nonzero" fill="#f58f63" stroke="none" />
    <path d="M 545.946384462652 764  C 545.946384462652 764  549.2584019988 764.589050098711  549.2584019988 764.589050098711  C 549.2584019988 764.589050098711  565.873049339599 789.5  565.873049339599 789.5  C 565.873049339599 789.5  549.2584019988 814.410949901289  549.2584019988 814.410949901289  C 549.2584019988 814.410949901289  545.946384462651 815  545.946384462651 815  C 545.946384462651 815  419 815  419 815  C 419 815  419 764  419 764  C 419 764  545.946384462652 764  545.946384462652 764  Z " stroke-width="2" stroke="#ffffff" fill="none" />
  </g>
</svg>