<svg xmlns="http://www.w3.org/2000/svg" xmlns:xlink="http://www.w3.org/1999/xlink" width="183" height="157" version="1.1"><g><path fill="#666" fill-rule="nonzero" stroke="none" d="M 61.5276227678571 56.1663411458333 C 64.0806361607142 58.7216796875 65.3571428571429 61.8051215277778 65.3571428571429 65.4166666666667 C 65.3571428571429 69.0282118055555 64.0806361607142 72.1116536458333 61.5276227678571 74.6669921875 C 58.974609375 77.2223307291667 55.8939732142857 78.5 52.2857142857143 78.5 C 48.6774553571429 78.5 45.5968191964286 77.2223307291667 43.0438058035714 74.6669921875 C 40.4907924107143 72.1116536458333 39.2142857142857 69.0282118055555 39.2142857142857 65.4166666666667 C 39.2142857142857 61.8051215277778 40.4907924107143 58.7216796875 43.0438058035714 56.1663411458333 C 45.5968191964286 53.6110026041667 48.6774553571429 52.3333333333333 52.2857142857143 52.3333333333333 C 55.8939732142857 52.3333333333333 58.974609375 53.6110026041667 61.5276227678571 56.1663411458333 Z M 100.741908482143 56.1663411458333 C 103.294921875 58.7216796875 104.571428571429 61.8051215277778 104.571428571429 65.4166666666667 C 104.571428571429 69.0282118055555 103.294921875 72.1116536458333 100.741908482143 74.6669921875 C 98.1888950892858 77.2223307291667 95.1082589285714 78.5 91.5 78.5 C 87.8917410714286 78.5 84.8111049107143 77.2223307291667 82.2580915178571 74.6669921875 C 79.705078125 72.1116536458333 78.4285714285714 69.0282118055555 78.4285714285714 65.4166666666667 C 78.4285714285714 61.8051215277778 79.705078125 58.7216796875 82.2580915178571 56.1663411458333 C 84.8111049107143 53.6110026041667 87.8917410714286 52.3333333333333 91.5 52.3333333333333 C 95.1082589285714 52.3333333333333 98.1888950892858 53.6110026041667 100.741908482143 56.1663411458333 Z M 139.956194196429 56.1663411458333 C 142.509207589286 58.7216796875 143.785714285714 61.8051215277778 143.785714285714 65.4166666666667 C 143.785714285714 69.0282118055555 142.509207589286 72.1116536458333 139.956194196429 74.6669921875 C 137.403180803571 77.2223307291667 134.322544642857 78.5 130.714285714286 78.5 C 127.106026785714 78.5 124.025390625 77.2223307291667 121.472377232143 74.6669921875 C 118.919363839286 72.1116536458333 117.642857142857 69.0282118055555 117.642857142857 65.4166666666667 C 117.642857142857 61.8051215277778 118.919363839286 58.7216796875 121.472377232143 56.1663411458333 C 124.025390625 53.6110026041667 127.106026785714 52.3333333333333 130.714285714286 52.3333333333333 C 134.322544642857 52.3333333333333 137.403180803571 53.6110026041667 139.956194196429 56.1663411458333 Z M 130.458984375 20.1871744791667 C 118.374720982143 15.4512803819444 105.388392857143 13.0833333333333 91.5 13.0833333333333 C 77.6116071428571 13.0833333333333 64.6252790178571 15.4512803819444 52.541015625 20.1871744791667 C 40.4567522321429 24.9230685763889 30.857421875 31.3114149305555 23.7430245535714 39.3522135416667 C 16.6286272321429 47.3930121527778 13.0714285714286 56.0811631944444 13.0714285714286 65.4166666666667 C 13.0714285714286 73.0486111111111 15.5053013392857 80.3228081597222 20.373046875 87.2392578125 C 25.2407924107143 94.1557074652778 32.0998883928571 100.135199652778 40.9503348214286 105.177734375 L 49.8348214285714 110.288411458333 L 47.0775669642857 120.100911458333 C 45.4436383928571 126.301866319444 43.0608258928571 132.162109375 39.9291294642857 137.681640625 C 50.27734375 133.388671875 59.6383928571429 127.5625 68.0122767857142 120.203125 L 72.4034598214286 116.319010416667 L 78.2243303571429 116.932291666667 C 82.921875 117.477430555556 87.3470982142857 117.75 91.5 117.75 C 105.388392857143 117.75 118.374720982143 115.382052951389 130.458984375 110.646158854167 C 142.543247767857 105.910264756944 152.142578125 99.5219184027778 159.256975446429 91.4811197916667 C 166.371372767857 83.4403211805555 169.928571428571 74.7521701388889 169.928571428571 65.4166666666667 C 169.928571428571 56.0811631944444 166.371372767857 47.3930121527778 159.256975446429 39.3522135416667 C 152.142578125 31.3114149305555 142.543247767857 24.9230685763889 130.458984375 20.1871744791667 Z M 175.749441964286 40.0166015625 C 180.583147321429 48.0914713541667 183 56.5581597222222 183 65.4166666666667 C 183 77.2734375 178.915178571429 88.2273220486111 170.745535714286 98.2783203125 C 162.575892857143 108.329318576389 151.478794642857 116.267903645833 137.454241071429 122.094075520833 C 123.4296875 127.920247395833 108.111607142857 130.833333333333 91.5 130.833333333333 C 86.734375 130.833333333333 81.7985491071429 130.560763888889 76.6925223214286 130.015625 C 63.2126116071429 141.940538194444 47.5541294642858 150.185763888889 29.7170758928571 154.751302083333 C 26.3811383928571 155.705295138889 22.5005580357143 156.454861111111 18.0753348214286 157 L 17.5647321428571 157 C 16.5435267857143 157 15.6244419642857 156.642252604167 14.8074776785714 155.9267578125 C 13.9905133928571 155.211263020833 13.4458705357143 154.274305555556 13.1735491071429 153.115885416667 L 13.1735491071429 153.013671875 C 12.9693080357143 152.741102430556 12.9522879464286 152.332248263889 13.1224888392857 151.787109375 C 13.2926897321429 151.241970486111 13.3607700892857 150.901258680556 13.3267299107143 150.764973958333 C 13.2926897321429 150.628689236111 13.4458705357143 150.305013020833 13.7862723214286 149.7939453125 L 14.3989955357143 148.8740234375 C 14.3989955357143 148.8740234375 14.6372767857143 148.584418402778 15.1138392857143 148.005208333333 C 15.5904017857143 147.425998263889 15.8627232142857 147.119357638889 15.9308035714286 147.085286458333 C 16.4073660714286 146.540147569444 17.4626116071429 145.364691840278 19.0965401785714 143.558919270833 C 20.73046875 141.753146701389 21.9048549107143 140.458441840278 22.6196986607143 139.6748046875 C 23.3345424107143 138.891167534722 24.3897879464286 137.545355902778 25.7854352678571 135.637369791667 C 27.1810825892857 133.729383680556 28.2873883928571 131.991753472222 29.1043526785714 130.424479166667 C 29.9213169642857 128.857204861111 30.8404017857143 126.847005208333 31.8616071428571 124.393880208333 C 32.8828125 121.940755208333 33.7678571428571 119.351345486111 34.5167410714286 116.625651041667 C 23.828125 110.560980902778 15.4031808035714 103.065321180556 9.24190848214289 94.138671875 C 3.08063616071433 85.2120225694445 0 75.6380208333333 0 65.4166666666667 C 0 56.5581597222222 2.41685267857144 48.0914713541667 7.25055803571433 40.0166015625 C 12.0842633928571 31.9417317708333 18.5859375 24.9741753472222 26.7555803571429 19.1139322916667 C 34.9252232142857 13.2536892361111 44.6607142857143 8.60297309027777 55.9620535714286 5.16178385416666 C 67.2633928571429 1.72059461805554 79.109375 0 91.5 0 C 103.890625 0 115.736607142857 1.72059461805554 127.037946428571 5.16178385416666 C 138.339285714286 8.60297309027777 148.074776785714 13.2536892361111 156.244419642857 19.1139322916667 C 164.4140625 24.9741753472222 170.915736607143 31.9417317708333 175.749441964286 40.0166015625 Z" transform="matrix(1 0 0 1 -325 -80 ) matrix(1 0 0 1 325 80 )"/></g></svg>