<svg xmlns="http://www.w3.org/2000/svg" xmlns:xlink="http://www.w3.org/1999/xlink" width="147" height="147" version="1.1"><g><path fill="#999" fill-rule="nonzero" stroke="none" d="M 113.5 1112 C 154.1 1112 186 1143.9 186 1184.5 C 186 1225.1 154.1 1257 113.5 1257 C 72.9 1257 41 1225.1 41 1184.5 C 41 1143.9 72.9 1112 113.5 1112 Z" transform="matrix(1 0 0 1 -40 -1111 )"/><path fill="none" stroke="#fff" stroke-width="2" d="M 113.5 1112 C 154.1 1112 186 1143.9 186 1184.5 C 186 1225.1 154.1 1257 113.5 1257 C 72.9 1257 41 1225.1 41 1184.5 C 41 1143.9 72.9 1112 113.5 1112 Z" transform="matrix(1 0 0 1 -40 -1111 )"/></g></svg>