<?xml version="1.0" encoding="utf-8"?>
<svg version="1.1" xmlns:xlink="http://www.w3.org/1999/xlink" width="220px" height="304px" xmlns="http://www.w3.org/2000/svg">
  <g transform="matrix(1 0 0 1 -99 -980 )">
    <path d="M 99.5 1262  C 99.5 1262  99.5 985  99.5 985  C 99.5 982.514718625761  101.514718625761 980.5  104 980.5  C 104 980.5  314 980.5  314 980.5  C 316.485281374239 980.5  318.5 982.514718625761  318.5 985  C 318.5 985  318.5 1262  318.5 1262  C 318.5 1264.48528137424  316.485281374239 1266.5  314 1266.5  C 314 1266.5  151.727986566726 1266.5  151.727986566726 1266.5  C 151.727986566726 1266.5  141.020265188856 1283.04829667489  141.020265188856 1283.04829667489  C 141.020265188856 1283.04829667489  131.285973027157 1266.5  131.285973027157 1266.5  C 131.285973027157 1266.5  104 1266.5  104 1266.5  C 101.514718625761 1266.5  99.5 1264.48528137424  99.5 1262  Z " fill-rule="nonzero" fill="#ffffff" stroke="none" />
    <path d="M 99 1262  C 99 1262  99 985  99 985  C 99 982.238576250846  101.238576250846 980  104 980  C 104 980  314 980  314 980  C 316.761423749154 980  319 982.238576250846  319 985  C 319 985  319 1262  319 1262  C 319 1264.76142374915  316.761423749154 1267  314 1267  C 314 1267  152 1267  152 1267  C 152 1267  141 1284  141 1284  C 141 1284  131 1267  131 1267  C 131 1267  104 1267  104 1267  C 101.238576250846 1267  99 1264.76142374915  99 1262  Z M 100 1262  C 100 1264.20913899932  101.790861000677 1266  104 1266  C 104 1266  131.571946054313 1266  131.571946054313 1266  C 131.571946054313 1266  141.040530377712 1282.09659334978  141.040530377712 1282.09659334978  C 141.040530377712 1282.09659334978  151.455973133452 1266  151.455973133452 1266  C 151.455973133452 1266  314 1266  314 1266  C 316.209138999323 1266  318 1264.20913899932  318 1262  C 318 1262  318 985  318 985  C 318 982.790861000677  316.209138999323 981  314 981  C 314 981  104 981  104 981  C 101.790861000677 981  100 982.790861000677  100 985  C 100 985  100 1262  100 1262  Z " fill-rule="nonzero" fill="#e4e4e4" stroke="none" />
  </g>
</svg>