<?xml version="1.0" encoding="utf-8"?>
<svg version="1.1" xmlns:xlink="http://www.w3.org/1999/xlink" width="220px" height="264px" xmlns="http://www.w3.org/2000/svg">
  <g transform="matrix(1 0 0 1 -99 -1316 )">
    <path d="M 99.5 1574.23684210526  C 99.5 1574.23684210526  99.5 1335  99.5 1335  C 99.5 1332.51471862576  101.514718625761 1330.5  104 1330.5  C 104 1330.5  125.663835027798 1330.5  125.663835027798 1330.5  C 125.663835027798 1330.5  135.976181680069 1316.8605618264  135.976181680069 1316.8605618264  C 135.976181680069 1316.8605618264  145.148746704368 1330.5  145.148746704368 1330.5  C 145.148746704368 1330.5  314 1330.5  314 1330.5  C 316.485281374239 1330.5  318.5 1332.51471862576  318.5 1335  C 318.5 1335  318.5 1574.23684210526  318.5 1574.23684210526  C 318.5 1576.7221234795  316.485281374239 1578.73684210526  314 1578.73684210526  C 314 1578.73684210526  104 1578.73684210526  104 1578.73684210526  C 101.514718625761 1578.73684210526  99.5 1576.7221234795  99.5 1574.23684210526  Z " fill-rule="nonzero" fill="#ffffff" stroke="none" />
    <path d="M 99 1574.23684210526  C 99 1574.23684210526  99 1335  99 1335  C 99 1332.23857625085  101.238576250846 1330  104 1330  C 104 1330  125.415043985371 1330  125.415043985371 1330  C 125.415043985371 1330  136 1316  136 1316  C 136 1316  145.415043985371 1330  145.415043985371 1330  C 145.415043985371 1330  314 1330  314 1330  C 316.761423749154 1330  319 1332.23857625085  319 1335  C 319 1335  319 1574.23684210526  319 1574.23684210526  C 319 1576.99826585442  316.761423749154 1579.23684210526  314 1579.23684210526  C 314 1579.23684210526  104 1579.23684210526  104 1579.23684210526  C 101.238576250846 1579.23684210526  99 1576.99826585442  99 1574.23684210526  Z M 100 1574.23684210526  C 100 1576.44598110459  101.790861000677 1578.23684210526  104 1578.23684210526  C 104 1578.23684210526  314 1578.23684210526  314 1578.23684210526  C 316.209138999323 1578.23684210526  318 1576.44598110459  318 1574.23684210526  C 318 1574.23684210526  318 1335  318 1335  C 318 1332.79086100068  316.209138999323 1331  314 1331  C 314 1331  144.882449423365 1331  144.882449423365 1331  C 144.882449423365 1331  135.952363360138 1317.7211236528  135.952363360138 1317.7211236528  C 135.952363360138 1317.7211236528  125.912626070224 1331  125.912626070224 1331  C 125.912626070224 1331  104 1331  104 1331  C 101.790861000677 1331  100 1332.79086100068  100 1335  C 100 1335  100 1574.23684210526  100 1574.23684210526  Z " fill-rule="nonzero" fill="#e4e4e4" stroke="none" />
  </g>
</svg>