<?xml version="1.0" encoding="utf-8"?>
<svg version="1.1" xmlns:xlink="http://www.w3.org/1999/xlink" width="16px" height="16px" xmlns="http://www.w3.org/2000/svg">
  <g transform="matrix(1 0 0 1 0 -10 )">
    <path d="M 8 13.5  C 10.52 13.5  12.5 15.48  12.5 18  C 12.5 20.52  10.52 22.5  8 22.5  C 5.48 22.5  3.5 20.52  3.5 18  C 3.5 15.48  5.48 13.5  8 13.5  Z " fill-rule="nonzero" fill="#1980ff" stroke="none" />
    <path d="M 8 12  C 11.36 12  14 14.64  14 18  C 14 21.36  11.36 24  8 24  C 4.64 24  2 21.36  2 18  C 2 14.64  4.64 12  8 12  Z " stroke-width="4" stroke="#1980ff" fill="none" stroke-opacity="0.498039215686275" />
  </g>
</svg>