<?xml version="1.0" encoding="utf-8"?>
<svg version="1.1" xmlns:xlink="http://www.w3.org/1999/xlink" width="1178px" height="242px" xmlns="http://www.w3.org/2000/svg">
  <g transform="matrix(1 0 0 1 -61 -510 )">
    <path d="M 62 513  A 2 2 0 0 1 64 511 L 1236 511  A 2 2 0 0 1 1238 513 L 1238 749  A 2 2 0 0 1 1236 751 L 64 751  A 2 2 0 0 1 62 749 L 62 513  Z " fill-rule="nonzero" fill="#ffffff" stroke="none" />
    <path d="M 61.5 513  A 2.5 2.5 0 0 1 64 510.5 L 1236 510.5  A 2.5 2.5 0 0 1 1238.5 513 L 1238.5 749  A 2.5 2.5 0 0 1 1236 751.5 L 64 751.5  A 2.5 2.5 0 0 1 61.5 749 L 61.5 513  Z " stroke-width="1" stroke-dasharray="9,4" stroke="#cccccc" fill="none" stroke-dashoffset="0.5" />
  </g>
</svg>