<?xml version="1.0" encoding="utf-8"?>
<svg version="1.1" xmlns:xlink="http://www.w3.org/1999/xlink" width="1252px" height="320px" xmlns="http://www.w3.org/2000/svg">
  <defs>
    <mask fill="white" id="clip1260">
      <path d="M 1248.99760191847 319.8  L 2.00159872102318 319.8  C 0.600479616306956 319.8  -0.500399680255795 319.36  0.500399680255795 318.8  L 0.500399680255795 0  L 1251.49960031974 0  L 1251.49960031974 318.8  C 1251.49960031974 319.36  1250.39872102318 319.8  1248.99760191847 319.8  Z " fill-rule="evenodd" />
    </mask>
  </defs>
  <g transform="matrix(1 0 0 1 -24 -471 )">
    <path d="M 1248.99760191847 319.8  L 2.00159872102318 319.8  C 0.600479616306956 319.8  -0.500399680255795 319.36  0.500399680255795 318.8  L 0.500399680255795 0  L 1251.49960031974 0  L 1251.49960031974 318.8  C 1251.49960031974 319.36  1250.39872102318 319.8  1248.99760191847 319.8  Z " fill-rule="nonzero" fill="#ffffff" stroke="none" transform="matrix(1 0 0 1 24 471 )" />
    <path d="M 1248.99760191847 319.8  L 2.00159872102318 319.8  C 0.600479616306956 319.8  -0.500399680255795 319.36  0.500399680255795 318.8  L 0.500399680255795 0  L 1251.49960031974 0  L 1251.49960031974 318.8  C 1251.49960031974 319.36  1250.39872102318 319.8  1248.99760191847 319.8  Z " stroke-width="2" stroke="#e4e4e4" fill="none" transform="matrix(1 0 0 1 24 471 )" mask="url(#clip1260)" />
  </g>
</svg>