<svg xmlns="http://www.w3.org/2000/svg" xmlns:xlink="http://www.w3.org/1999/xlink" width="1178" height="242" version="1.1"><g><path fill="#fff" fill-rule="nonzero" stroke="none" d="M 62 513 A 2 2 0 0 1 64 511 L 1236 511 A 2 2 0 0 1 1238 513 L 1238 749 A 2 2 0 0 1 1236 751 L 64 751 A 2 2 0 0 1 62 749 L 62 513 Z" transform="matrix(1 0 0 1 -61 -510 )"/><path fill="none" stroke="#ccc" stroke-dasharray="9 4" stroke-dashoffset=".5" stroke-width="1" d="M 61.5 513 A 2.5 2.5 0 0 1 64 510.5 L 1236 510.5 A 2.5 2.5 0 0 1 1238.5 513 L 1238.5 749 A 2.5 2.5 0 0 1 1236 751.5 L 64 751.5 A 2.5 2.5 0 0 1 61.5 749 L 61.5 513 Z" transform="matrix(1 0 0 1 -61 -510 )"/></g></svg>