<svg xmlns="http://www.w3.org/2000/svg" xmlns:xlink="http://www.w3.org/1999/xlink" width="360" height="225" version="1.1"><g><path fill="#ccc" fill-rule="nonzero" stroke="none" d="M 5 5 L 365 5 L 365 230 L 5 230 L 5 5" transform="matrix(1 0 0 1 -5 -5 )"/><path fill="#fff" fill-rule="nonzero" stroke="none" d="M 21 21 L 349 21 L 349 214 L 21 214 L 21 21" transform="matrix(1 0 0 1 -5 -5 )"/><path fill="#ccc" fill-rule="nonzero" stroke="none" d="M 209.075 72.5 C 199.625 72.5 192.2 65.075 192.2 55.625 C 192.2 46.175 199.625 38.75 209.075 38.75 C 218.525 38.75 225.95 46.175 225.95 55.625 C 225.95 65.075 218.525 72.5 209.075 72.5" transform="matrix(1 0 0 1 -5 -5 )"/><path fill="#169bd5" fill-rule="nonzero" stroke="none" d="M 27 209 L 27 108.9 L 106.25 63.4 L 217.2 140.75 L 280.6 90.7 L 344 140.75 L 344 209 L 27 209" transform="matrix(1 0 0 1 -5 -5 )"/></g></svg>