<?xml version="1.0" encoding="utf-8"?>
<svg version="1.1" xmlns:xlink="http://www.w3.org/1999/xlink" width="231px" height="150px" xmlns="http://www.w3.org/2000/svg">
  <g transform="matrix(1 0 0 1 1 1 )">
    <path d="M 0.5 139.703481346664  C 0.5 139.703481346664  0.5 0.5  0.5 0.5  C 0.5 0.5  229.5 0.5  229.5 0.5  C 229.5 0.5  229.5 139.703481346664  229.5 139.703481346664  C 229.5 139.703481346664  126.41878799578 139.703481346664  126.41878799578 139.703481346664  C 126.41878799578 139.703481346664  114.084324207425 148.008433067076  114.084324207425 148.008433067076  C 114.084324207425 148.008433067076  102.807100172359 139.703481346664  102.807100172359 139.703481346664  C 102.807100172359 139.703481346664  0.5 139.703481346664  0.5 139.703481346664  Z " fill-rule="nonzero" fill="#ffffff" stroke="none" />
    <path d="M 0 140.203481346664  C 0 140.203481346664  0 0  0 0  C 0 0  230 0  230 0  C 230 0  230 140.203481346664  230 140.203481346664  C 230 140.203481346664  126.571428571429 140.203481346664  126.571428571429 140.203481346664  C 126.571428571429 140.203481346664  114.071428571428 148.619890708793  114.071428571428 148.619890708793  C 114.071428571428 148.619890708793  102.642857142857 140.203481346664  102.642857142857 140.203481346664  C 102.642857142857 140.203481346664  0 140.203481346664  0 140.203481346664  Z M 1 139.203481346664  C 1 139.203481346664  102.971343201859 139.203481346664  102.971343201859 139.203481346664  C 102.971343201859 139.203481346664  114.097219843422 147.396975425359  114.097219843422 147.396975425359  C 114.097219843422 147.396975425359  126.266147420131 139.203481346664  126.266147420131 139.203481346664  C 126.266147420131 139.203481346664  229 139.203481346664  229 139.203481346664  C 229 139.203481346664  229 1  229 1  C 229 1  1 1  1 1  C 1 1  1 139.203481346664  1 139.203481346664  Z " fill-rule="nonzero" fill="#e4e4e4" stroke="none" />
  </g>
</svg>