<?xml version="1.0" encoding="utf-8"?>
<svg version="1.1" xmlns:xlink="http://www.w3.org/1999/xlink" width="230px" height="110px" xmlns="http://www.w3.org/2000/svg">
  <g>
    <path d="M 0.5 94.0413972091656  C 0.5 94.0413972091656  0.5 5  0.5 5  C 0.5 2.51471862576143  2.51471862576143 0.5  5 0.5  C 5 0.5  225 0.5  225 0.5  C 227.485281374239 0.5  229.5 2.51471862576143  229.5 5  C 229.5 5  229.5 94.0413972091656  229.5 94.0413972091656  C 229.5 96.5266785834042  227.485281374239 98.5413972091656  225 98.5413972091656  C 225 98.5413972091656  125.860281796939 98.5413972091656  125.860281796939 98.5413972091656  C 125.860281796939 98.5413972091656  115.633413246089 109.053525665517  115.633413246089 109.053525665517  C 115.633413246089 109.053525665517  102.821731764804 98.5413972091656  102.821731764804 98.5413972091656  C 102.821731764804 98.5413972091656  5 98.5413972091656  5 98.5413972091656  C 2.51471862576143 98.5413972091656  0.5 96.5266785834042  0.5 94.0413972091656  Z " fill-rule="nonzero" fill="#ffffff" stroke="none" />
    <path d="M 0 94.0413972091656  C 0 94.0413972091656  0 5  0 5  C 0 2.23857625084603  2.23857625084603 0  5 0  C 5 0  225 0  225 0  C 227.761423749154 0  230 2.23857625084603  230 5  C 230 5  230 94.0413972091656  230 94.0413972091656  C 230 96.8028209583196  227.761423749154 99.0413972091656  225 99.0413972091656  C 225 99.0413972091656  126.071428571429 99.0413972091656  126.071428571429 99.0413972091656  C 126.071428571429 99.0413972091656  115.671428571428 109.731486301683  115.671428571428 109.731486301683  C 115.671428571428 109.731486301683  102.642857142857 99.0413972091656  102.642857142857 99.0413972091656  C 102.642857142857 99.0413972091656  5 99.0413972091656  5 99.0413972091656  C 2.23857625084603 99.0413972091656  0 96.8028209583196  0 94.0413972091656  Z M 1 94.0413972091656  C 1 96.2505362084888  2.79086100067683 98.0413972091656  5 98.0413972091656  C 5 98.0413972091656  103.00060638675 98.0413972091656  103.00060638675 98.0413972091656  C 103.00060638675 98.0413972091656  115.595397920749 108.375565029351  115.595397920749 108.375565029351  C 115.595397920749 108.375565029351  125.64913502245 98.0413972091656  125.64913502245 98.0413972091656  C 125.64913502245 98.0413972091656  225 98.0413972091656  225 98.0413972091656  C 227.209138999323 98.0413972091656  229 96.2505362084888  229 94.0413972091656  C 229 94.0413972091656  229 5  229 5  C 229 2.79086100067683  227.209138999323 1  225 1  C 225 1  5 1  5 1  C 2.79086100067683 1  1 2.79086100067683  1 5  C 1 5  1 94.0413972091656  1 94.0413972091656  Z " fill-rule="nonzero" fill="#e4e4e4" stroke="none" />
  </g>
</svg>