<svg xmlns="http://www.w3.org/2000/svg" xmlns:xlink="http://www.w3.org/1999/xlink" width="101" height="239" version="1.1"><g><path fill="#fff" fill-rule="nonzero" stroke="none" d="M 69.9372294372294 155.056177144921 C 69.9372294372294 155.056177144921 69.9372294372294 -63.6108759361771 69.9372294372294 -63.6108759361771 C 69.9372294372294 -66.0961573104157 71.9519480629909 -68.1108759361771 74.4372294372294 -68.1108759361771 C 74.4372294372294 -68.1108759361771 165 -68.1108759361771 165 -68.1108759361771 C 167.485281374239 -68.1108759361771 169.5 -66.0961573104157 169.5 -63.6108759361771 C 169.5 -63.6108759361771 169.5 155.056177144921 169.5 155.056177144921 C 169.5 157.54145851916 167.485281374239 159.556177144921 165 159.556177144921 C 165 159.556177144921 129.258267977411 159.556177144921 129.258267977411 159.556177144921 C 129.258267977411 159.556177144921 118.152238050752 168.694922056086 118.152238050752 168.694922056086 C 118.152238050752 168.694922056086 109.655383378179 159.556177144921 109.655383378179 159.556177144921 C 109.655383378179 159.556177144921 74.4372294372294 159.556177144921 74.4372294372294 159.556177144921 C 71.9519480629909 159.556177144921 69.9372294372294 157.54145851916 69.9372294372294 155.056177144921 Z" transform="matrix(1 0 0 1 -69 69 )"/><path fill="#e4e4e4" fill-rule="nonzero" stroke="none" d="M 69.4372294372294 155.056177144921 C 69.4372294372294 155.056177144921 69.4372294372294 -63.6108759361771 69.4372294372294 -63.6108759361771 C 69.4372294372294 -66.3722996853311 71.6758056880755 -68.6108759361771 74.4372294372294 -68.6108759361771 C 74.4372294372294 -68.6108759361771 165 -68.6108759361771 165 -68.6108759361771 C 167.761423749154 -68.6108759361771 170 -66.3722996853311 170 -63.6108759361771 C 170 -63.6108759361771 170 155.056177144921 170 155.056177144921 C 170 157.817600894075 167.761423749154 160.056177144921 165 160.056177144921 C 165 160.056177144921 129.437538651824 160.056177144921 129.437538651824 160.056177144921 C 129.437538651824 160.056177144921 118.106522677682 169.380054827211 118.106522677682 169.380054827211 C 118.106522677682 169.380054827211 109.437538651824 160.056177144921 109.437538651824 160.056177144921 C 109.437538651824 160.056177144921 74.4372294372294 160.056177144921 74.4372294372294 160.056177144921 C 71.6758056880755 160.056177144921 69.4372294372294 157.817600894075 69.4372294372294 155.056177144921 Z M 70.4372294372294 155.056177144921 C 70.4372294372294 157.265316144245 72.2280904379063 159.056177144921 74.4372294372294 159.056177144921 C 74.4372294372294 159.056177144921 109.873228104533 159.056177144921 109.873228104533 159.056177144921 C 109.873228104533 159.056177144921 118.197953423823 168.00978928496 118.197953423823 168.00978928496 C 118.197953423823 168.00978928496 129.078997302998 159.056177144921 129.078997302998 159.056177144921 C 129.078997302998 159.056177144921 165 159.056177144921 165 159.056177144921 C 167.209138999323 159.056177144921 169 157.265316144245 169 155.056177144921 C 169 155.056177144921 169 -63.6108759361771 169 -63.6108759361771 C 169 -65.8200149355003 167.209138999323 -67.6108759361771 165 -67.6108759361771 C 165 -67.6108759361771 74.4372294372294 -67.6108759361771 74.4372294372294 -67.6108759361771 C 72.2280904379063 -67.6108759361771 70.4372294372294 -65.8200149355003 70.4372294372294 -63.6108759361771 C 70.4372294372294 -63.6108759361771 70.4372294372294 155.056177144921 70.4372294372294 155.056177144921 Z" transform="matrix(1 0 0 1 -69 69 )"/></g></svg>