<svg xmlns="http://www.w3.org/2000/svg" xmlns:xlink="http://www.w3.org/1999/xlink" width="96" height="239" version="1.1"><g><path fill="#fff" fill-rule="nonzero" stroke="none" d="M 71.9155844155844 153.056177144921 C 71.9155844155844 153.056177144921 71.9155844155844 -65.6108759361771 71.9155844155844 -65.6108759361771 C 71.9155844155844 -68.0961573104157 73.9303030413459 -70.1108759361771 76.4155844155844 -70.1108759361771 C 76.4155844155844 -70.1108759361771 162 -70.1108759361771 162 -70.1108759361771 C 164.485281374239 -70.1108759361771 166.5 -68.0961573104157 166.5 -65.6108759361771 C 166.5 -65.6108759361771 166.5 153.056177144921 166.5 153.056177144921 C 166.5 155.54145851916 164.485281374239 157.556177144921 162 157.556177144921 C 162 157.556177144921 128.760551915899 157.556177144921 128.760551915899 157.556177144921 C 128.760551915899 157.556177144921 117.718928459429 166.695068617473 117.718928459429 166.695068617473 C 117.718928459429 166.695068617473 109.157352938053 157.556177144921 109.157352938053 157.556177144921 C 109.157352938053 157.556177144921 76.4155844155844 157.556177144921 76.4155844155844 157.556177144921 C 73.9303030413459 157.556177144921 71.9155844155844 155.54145851916 71.9155844155844 153.056177144921 Z" transform="matrix(1 0 0 1 -71 71 )"/><path fill="#e4e4e4" fill-rule="nonzero" stroke="none" d="M 71.4155844155844 153.056177144921 C 71.4155844155844 153.056177144921 71.4155844155844 -65.6108759361771 71.4155844155844 -65.6108759361771 C 71.4155844155844 -68.3722996853311 73.6541606664304 -70.6108759361771 76.4155844155844 -70.6108759361771 C 76.4155844155844 -70.6108759361771 162 -70.6108759361771 162 -70.6108759361771 C 164.761423749154 -70.6108759361771 167 -68.3722996853311 167 -65.6108759361771 C 167 -65.6108759361771 167 153.056177144921 167 153.056177144921 C 167 155.817600894075 164.761423749154 158.056177144921 162 158.056177144921 C 162 158.056177144921 128.940630797774 158.056177144921 128.940630797774 158.056177144921 C 128.940630797774 158.056177144921 117.675506703539 167.380054827211 117.675506703539 167.380054827211 C 117.675506703539 167.380054827211 108.940630797774 158.056177144921 108.940630797774 158.056177144921 C 108.940630797774 158.056177144921 76.4155844155844 158.056177144921 76.4155844155844 158.056177144921 C 73.6541606664304 158.056177144921 71.4155844155844 155.817600894075 71.4155844155844 153.056177144921 Z M 72.4155844155844 153.056177144921 C 72.4155844155844 155.265316144245 74.2064454162612 157.056177144921 76.4155844155844 157.056177144921 C 76.4155844155844 157.056177144921 109.374075078332 157.056177144921 109.374075078332 157.056177144921 C 109.374075078332 157.056177144921 117.762350215318 166.010082407734 117.762350215318 166.010082407734 C 117.762350215318 166.010082407734 128.580473034025 157.056177144921 128.580473034025 157.056177144921 C 128.580473034025 157.056177144921 162 157.056177144921 162 157.056177144921 C 164.209138999323 157.056177144921 166 155.265316144245 166 153.056177144921 C 166 153.056177144921 166 -65.6108759361771 166 -65.6108759361771 C 166 -67.8200149355003 164.209138999323 -69.6108759361771 162 -69.6108759361771 C 162 -69.6108759361771 76.4155844155844 -69.6108759361771 76.4155844155844 -69.6108759361771 C 74.2064454162612 -69.6108759361771 72.4155844155844 -67.8200149355003 72.4155844155844 -65.6108759361771 C 72.4155844155844 -65.6108759361771 72.4155844155844 153.056177144921 72.4155844155844 153.056177144921 Z" transform="matrix(1 0 0 1 -71 71 )"/></g></svg>