<svg xmlns="http://www.w3.org/2000/svg" xmlns:xlink="http://www.w3.org/1999/xlink" width="300" height="45" version="1.1"><g><path fill="#fff" fill-rule="nonzero" stroke="none" d="M 436.5 2486 A 3.5 3.5 0 0 1 440 2482.5 L 730 2482.5 A 3.5 3.5 0 0 1 733.5 2486 L 733.5 2521 A 3.5 3.5 0 0 1 730 2524.5 L 440 2524.5 A 3.5 3.5 0 0 1 436.5 2521 L 436.5 2486 Z" transform="matrix(1 0 0 1 -435 -2481 )"/><path fill="none" stroke="#1980ff" stroke-width="2" d="M 436 2486 A 4 4 0 0 1 440 2482 L 730 2482 A 4 4 0 0 1 734 2486 L 734 2521 A 4 4 0 0 1 730 2525 L 440 2525 A 4 4 0 0 1 436 2521 L 436 2486 Z" transform="matrix(1 0 0 1 -435 -2481 )"/></g></svg>