<svg xmlns="http://www.w3.org/2000/svg" xmlns:xlink="http://www.w3.org/1999/xlink" width="300" height="45" version="1.1"><g><path fill="#fff" fill-rule="nonzero" stroke="none" d="M 435.5 2486 A 4.5 4.5 0 0 1 440 2481.5 L 730 2481.5 A 4.5 4.5 0 0 1 734.5 2486 L 734.5 2521 A 4.5 4.5 0 0 1 730 2525.5 L 440 2525.5 A 4.5 4.5 0 0 1 435.5 2521 L 435.5 2486 Z" transform="matrix(1 0 0 1 -435 -2481 )"/><path fill="none" stroke="#ef553b" stroke-width="1" d="M 435.5 2486 A 4.5 4.5 0 0 1 440 2481.5 L 730 2481.5 A 4.5 4.5 0 0 1 734.5 2486 L 734.5 2521 A 4.5 4.5 0 0 1 730 2525.5 L 440 2525.5 A 4.5 4.5 0 0 1 435.5 2521 L 435.5 2486 Z" transform="matrix(1 0 0 1 -435 -2481 )"/></g></svg>