<?xml version="1.0" encoding="utf-8"?>
<svg version="1.1" xmlns:xlink="http://www.w3.org/1999/xlink" width="300px" height="45px" xmlns="http://www.w3.org/2000/svg">
  <g transform="matrix(1 0 0 1 -435 -2481 )">
    <path d="M 436.5 2486  A 3.5 3.5 0 0 1 440 2482.5 L 730 2482.5  A 3.5 3.5 0 0 1 733.5 2486 L 733.5 2521  A 3.5 3.5 0 0 1 730 2524.5 L 440 2524.5  A 3.5 3.5 0 0 1 436.5 2521 L 436.5 2486  Z " fill-rule="nonzero" fill="#ffffff" stroke="none" />
    <path d="M 436 2486  A 4 4 0 0 1 440 2482 L 730 2482  A 4 4 0 0 1 734 2486 L 734 2521  A 4 4 0 0 1 730 2525 L 440 2525  A 4 4 0 0 1 436 2521 L 436 2486  Z " stroke-width="2" stroke="#1980ff" fill="none" />
  </g>
</svg>