<?xml version="1.0" encoding="utf-8"?>
<svg version="1.1" xmlns:xlink="http://www.w3.org/1999/xlink" width="300px" height="45px" xmlns="http://www.w3.org/2000/svg">
  <g transform="matrix(1 0 0 1 -435 -2481 )">
    <path d="M 435.5 2486  A 4.5 4.5 0 0 1 440 2481.5 L 730 2481.5  A 4.5 4.5 0 0 1 734.5 2486 L 734.5 2521  A 4.5 4.5 0 0 1 730 2525.5 L 440 2525.5  A 4.5 4.5 0 0 1 435.5 2521 L 435.5 2486  Z " fill-rule="nonzero" fill="#ffffff" stroke="none" />
    <path d="M 435.5 2486  A 4.5 4.5 0 0 1 440 2481.5 L 730 2481.5  A 4.5 4.5 0 0 1 734.5 2486 L 734.5 2521  A 4.5 4.5 0 0 1 730 2525.5 L 440 2525.5  A 4.5 4.5 0 0 1 435.5 2521 L 435.5 2486  Z " stroke-width="1" stroke="#ef553b" fill="none" />
  </g>
</svg>