<?xml version="1.0" encoding="utf-8"?>
<svg version="1.1" xmlns:xlink="http://www.w3.org/1999/xlink" width="1252px" height="801px" xmlns="http://www.w3.org/2000/svg">
  <defs>
    <mask fill="white" id="clip2559">
      <path d="M 1248.99760191847 800.499375  L 2.00159872102318 800.499375  C 0.600479616306956 800.499375  -0.500399680255795 799.398  0.500399680255795 797.99625  L 0.500399680255795 0  L 1251.49960031974 0  L 1251.49960031974 797.99625  C 1251.49960031974 799.398  1250.39872102318 800.499375  1248.99760191847 800.499375  Z " fill-rule="evenodd" />
    </mask>
  </defs>
  <g transform="matrix(1 0 0 1 -24 -523 )">
    <path d="M 1248.99760191847 800.499375  L 2.00159872102318 800.499375  C 0.600479616306956 800.499375  -0.500399680255795 799.398  0.500399680255795 797.99625  L 0.500399680255795 0  L 1251.49960031974 0  L 1251.49960031974 797.99625  C 1251.49960031974 799.398  1250.39872102318 800.499375  1248.99760191847 800.499375  Z " fill-rule="nonzero" fill="#ffffff" stroke="none" transform="matrix(1 0 0 1 24 523 )" />
    <path d="M 1248.99760191847 800.499375  L 2.00159872102318 800.499375  C 0.600479616306956 800.499375  -0.500399680255795 799.398  0.500399680255795 797.99625  L 0.500399680255795 0  L 1251.49960031974 0  L 1251.49960031974 797.99625  C 1251.49960031974 799.398  1250.39872102318 800.499375  1248.99760191847 800.499375  Z " stroke-width="2" stroke="#e4e4e4" fill="none" transform="matrix(1 0 0 1 24 523 )" mask="url(#clip2559)" />
  </g>
</svg>