<?xml version="1.0" encoding="utf-8"?>
<svg version="1.1" xmlns:xlink="http://www.w3.org/1999/xlink" width="30px" height="24px" xmlns="http://www.w3.org/2000/svg">
  <g transform="matrix(1 0 0 1 -1045 -2176 )">
    <path d="M 8.1298828125 6.68345323741007  C 8.3740234375 6.44844124700239  8.49609375 6.13429256594724  8.49609375 5.7410071942446  C 8.49609375 5.34772182254196  8.3740234375 5.03117505995203  8.1298828125 4.79136690647482  C 7.8857421875 4.5515587529976  7.5634765625 4.43165467625899  7.1630859375 4.43165467625899  C 6.7431640625 4.43165467625899  6.3720703125 4.55395683453237  6.0498046875 4.79856115107913  C 5.7275390625 5.0431654676259  5.56640625 5.35731414868106  5.56640625 5.7410071942446  C 5.56640625 6.11510791366906  5.7275390625 6.42446043165468  6.0498046875 6.66906474820144  C 6.3720703125 6.9136690647482  6.7431640625 7.03597122302158  7.1630859375 7.03597122302158  C 7.5634765625 7.03597122302158  7.8857421875 6.91846522781775  8.1298828125 6.68345323741007  Z M 19.00634765625 13.7697841726619  C 19.25537109375 13.5587529976019  19.3798828125 13.3141486810552  19.3798828125 13.0359712230216  C 19.3798828125 12.7673860911271  19.25537109375 12.5275779376499  19.00634765625 12.3165467625899  C 18.75732421875 12.10551558753  18.4375 12  18.046875 12  C 17.783203125 12  17.54150390625 12.1079136690648  17.32177734375 12.3237410071942  C 17.10205078125 12.5395683453237  16.9921875 12.7769784172662  16.9921875 13.0359712230216  C 16.9921875 13.3045563549161  17.10205078125 13.5467625899281  17.32177734375 13.7625899280576  C 17.54150390625 13.9784172661871  17.783203125 14.0863309352518  18.046875 14.0863309352518  C 18.4375 14.0863309352518  18.75732421875 13.9808153477218  19.00634765625 13.7697841726619  Z M 15.56396484375 6.68345323741007  C 15.80322265625 6.44844124700239  15.9228515625 6.13429256594724  15.9228515625 5.7410071942446  C 15.9228515625 5.34772182254196  15.80322265625 5.03117505995203  15.56396484375 4.79136690647482  C 15.32470703125 4.5515587529976  15.0048828125 4.43165467625899  14.6044921875 4.43165467625899  C 14.1845703125 4.43165467625899  13.8134765625 4.55395683453237  13.4912109375 4.79856115107913  C 13.1689453125 5.0431654676259  13.0078125 5.35731414868106  13.0078125 5.7410071942446  C 13.0078125 6.11510791366906  13.1689453125 6.42446043165468  13.4912109375 6.66906474820144  C 13.8134765625 6.9136690647482  14.1845703125 7.03597122302158  14.6044921875 7.03597122302158  C 15.0048828125 7.03597122302158  15.32470703125 6.91846522781775  15.56396484375 6.68345323741007  Z M 24.84375 13.7697841726619  C 25.09765625 13.5587529976019  25.224609375 13.3141486810552  25.224609375 13.0359712230216  C 25.224609375 12.7673860911271  25.09765625 12.5275779376499  24.84375 12.3165467625899  C 24.58984375 12.10551558753  24.2724609375 12  23.8916015625 12  C 23.6279296875 12  23.38623046875 12.1079136690648  23.16650390625 12.3237410071942  C 22.94677734375 12.5395683453237  22.8369140625 12.7769784172662  22.8369140625 13.0359712230216  C 22.8369140625 13.3045563549161  22.94677734375 13.5467625899281  23.16650390625 13.7625899280576  C 23.38623046875 13.9784172661871  23.6279296875 14.0863309352518  23.8916015625 14.0863309352518  C 24.2724609375 14.0863309352518  24.58984375 13.9808153477218  24.84375 13.7697841726619  Z M 19.32861328125 3.57553956834532  C 20.35888671875 4.69304556354916  21.025390625 5.94244604316547  21.328125 7.32374100719424  C 21.025390625 7.28537170263789  20.68359375 7.26618705035971  20.302734375 7.26618705035971  C 18.65234375 7.26618705035971  17.1337890625 7.63549160671462  15.7470703125 8.37410071942446  C 14.3603515625 9.11270983213429  13.26904296875 10.1127098321343  12.47314453125 11.3741007194245  C 11.67724609375 12.6354916067146  11.279296875 14.0143884892086  11.279296875 15.5107913669065  C 11.279296875 16.2589928057554  11.3916015625 16.9880095923261  11.6162109375 17.6978417266187  C 11.2744140625 17.726618705036  10.9423828125 17.7410071942446  10.6201171875 17.7410071942446  C 10.3662109375 17.7410071942446  10.1220703125 17.7338129496403  9.8876953125 17.7194244604317  C 9.6533203125 17.705035971223  9.384765625 17.673860911271  9.08203125 17.6258992805755  C 8.779296875 17.5779376498801  8.56201171875 17.5443645083933  8.43017578125 17.5251798561151  C 8.29833984375 17.5059952038369  8.0322265625 17.4556354916067  7.6318359375 17.3741007194245  C 7.2314453125 17.2925659472422  6.9873046875 17.242206235012  6.8994140625 17.2230215827338  L 3.193359375 19.0503597122302  L 4.248046875 15.9136690647482  C 1.416015625 13.9664268585132  0 11.6163069544365  0 8.86330935251799  C 0 7.24220623501199  0.47607421875 5.75059952038369  1.42822265625 4.38848920863309  C 2.38037109375 3.02637889688249  3.66943359375 1.95443645083932  5.29541015625 1.1726618705036  C 6.92138671875 0.390887290167868  8.6962890625 0  10.6201171875 0  C 12.3388671875 0  13.96240234375 0.31654676258993  15.49072265625 0.949640287769782  C 17.01904296875 1.58273381294964  18.29833984375 2.45803357314148  19.32861328125 3.57553956834532  Z M 28.74755859375 11.6043165467626  C 29.58251953125 12.7697841726619  30 14.0335731414868  30 15.3956834532374  C 30 16.5179856115108  29.66552734375 17.589928057554  28.99658203125 18.6115107913669  C 28.32763671875 19.6330935251799  27.421875 20.5611510791367  26.279296875 21.3956834532374  L 27.0849609375 24  L 24.169921875 22.431654676259  C 22.705078125 22.7865707434053  21.640625 22.9640287769784  20.9765625 22.9640287769784  C 19.326171875 22.9640287769784  17.8076171875 22.6258992805755  16.4208984375 21.9496402877698  C 15.0341796875 21.273381294964  13.94287109375 20.3549160671463  13.14697265625 19.1942446043166  C 12.35107421875 18.0335731414868  11.953125 16.7673860911271  11.953125 15.3956834532374  C 11.953125 14.0239808153477  12.35107421875 12.757793764988  13.14697265625 11.5971223021583  C 13.94287109375 10.4364508393285  15.0341796875 9.5179856115108  16.4208984375 8.84172661870504  C 17.8076171875 8.16546762589928  19.326171875 7.8273381294964  20.9765625 7.8273381294964  C 22.548828125 7.8273381294964  24.0283203125 8.16546762589928  25.4150390625 8.84172661870504  C 26.8017578125 9.5179856115108  27.91259765625 10.4388489208633  28.74755859375 11.6043165467626  Z " fill-rule="nonzero" fill="#95a5a6" stroke="none" transform="matrix(1 0 0 1 1045 2176 )" />
  </g>
</svg>