<?xml version="1.0" encoding="utf-8"?>
<svg version="1.1" xmlns:xlink="http://www.w3.org/1999/xlink" width="1252px" height="1262px" xmlns="http://www.w3.org/2000/svg">
  <defs>
    <mask fill="white" id="clip1181">
      <path d="M 1248.99760191847 1261.21125  L 2.00159872102318 1261.21125  C 0.600479616306956 1261.21125  -0.500399680255795 1259.476  0.500399680255795 1257.2675  L 0.500399680255795 0  L 1251.49960031974 0  L 1251.49960031974 1257.2675  C 1251.49960031974 1259.476  1250.39872102318 1261.21125  1248.99760191847 1261.21125  Z " fill-rule="evenodd" />
    </mask>
  </defs>
  <g transform="matrix(1 0 0 1 -24 -1398 )">
    <path d="M 1248.99760191847 1261.21125  L 2.00159872102318 1261.21125  C 0.600479616306956 1261.21125  -0.500399680255795 1259.476  0.500399680255795 1257.2675  L 0.500399680255795 0  L 1251.49960031974 0  L 1251.49960031974 1257.2675  C 1251.49960031974 1259.476  1250.39872102318 1261.21125  1248.99760191847 1261.21125  Z " fill-rule="nonzero" fill="#ffffff" stroke="none" transform="matrix(1 0 0 1 24 1398 )" />
    <path d="M 1248.99760191847 1261.21125  L 2.00159872102318 1261.21125  C 0.600479616306956 1261.21125  -0.500399680255795 1259.476  0.500399680255795 1257.2675  L 0.500399680255795 0  L 1251.49960031974 0  L 1251.49960031974 1257.2675  C 1251.49960031974 1259.476  1250.39872102318 1261.21125  1248.99760191847 1261.21125  Z " stroke-width="2" stroke="#e4e4e4" fill="none" transform="matrix(1 0 0 1 24 1398 )" mask="url(#clip1181)" />
  </g>
</svg>