<?xml version="1.0" encoding="utf-8"?>
<svg version="1.1" xmlns:xlink="http://www.w3.org/1999/xlink" width="35px" height="35px" xmlns="http://www.w3.org/2000/svg">
  <defs>
    <linearGradient gradientUnits="userSpaceOnUse" x1="0" y1="18.5294117647059" x2="34.65" y2="18.5294117647059" id="LinearGradient1270">
      <stop id="Stop1271" stop-color="#77d0fe" offset="0" />
      <stop id="Stop1272" stop-color="#1277ff" offset="1" />
    </linearGradient>
  </defs>
  <g transform="matrix(1 0 0 1 -529 -1570 )">
    <path d="M 21.861875 13.43118  L 22.209075 33.319475  C 20.686575 33.7435  19.07885 33.97065  17.416665 33.97065  C 7.79770249999999 33.97065  0 26.366025  0 16.98529  C 0 7.60457250000001  7.79770249999999 0  17.416665 0  C 21.39375 0  25.059475 1.30001374999999  27.991425 3.4880825  L 11.81047 3.77051500000002  C 10.32647 3.79641499999998  9.20085250000001 4.25768000000001  8.43359999999999 5.15432750000002  C 7.66634750000002 6.05095750000002  7.29603000000001 7.261835  7.3226475 8.7869775  C 7.3483375 10.258605  7.74507999999999 11.4360225  8.51291 12.3192475  C 9.2807225 13.2024725  10.4371225 13.6305925  11.98211 13.603625  L 21.861875 13.43118  Z M 30.888025 13.2736275  L 31.135475 27.45085  C 33.452125 24.566675  34.8334 20.933325  34.8334 16.98529  C 34.8334 15.6885575  34.6843 14.42574  34.402025 13.21229  L 30.888025 13.2736275  Z " fill-rule="nonzero" fill="url(#LinearGradient1270)" stroke="none" transform="matrix(1 0 0 1 529 1570 )" />
  </g>
</svg>