<?xml version="1.0" encoding="utf-8"?>
<svg version="1.1" xmlns:xlink="http://www.w3.org/1999/xlink" width="30px" height="24px" xmlns="http://www.w3.org/2000/svg">
  <g transform="matrix(1 0 0 1 -1005 -2176 )">
    <path d="M 10.2505805581141 19.197175076888  C 10.7024428847575 19.0483784355524  11.0511020874146 18.7866065665359  11.296558166085 18.4118594698387  C 11.5308571502705 18.0371123731415  11.5922211699381 17.6568542897282  11.4806502250879 17.2710852195987  C 11.3690792802377 16.8853161494692  11.1180446543246 16.6097668136625  10.7275463473489 16.4444372121784  C 10.3482051348582 16.2901295841266  9.94097118615486 16.2846185974105  9.50584450123893 16.42790425203  C 9.07071781632311 16.5711899066495  8.73600498177239 16.8246952955917  8.501705997587 17.1884204188567  C 8.25624991891647 17.5631675155539  8.18372880476376 17.9406701056092  8.28414265512897 18.3209281890225  C 8.38455650549419 18.7011862724358  8.62443403692215 18.9794911016007  9.00377524941296 19.155842676517  C 9.38311646190366 19.3321942514333  9.79871823147083 19.3459717182237  10.2505805581141 19.197175076888  Z M 12.5015243704675 16.7172310546271  C 12.6688807877427 16.6566102007496  12.791608827078 16.5546569465011  12.8697084884731 16.4113712918816  C 12.9589652443533 16.2680856372621  12.9784901597021 16.1220444892845  12.9282832345195 15.9732478479488  C 12.8780763093369 15.8244512066132  12.7804517325929 15.7224979523647  12.6354095042876 15.6673880852033  C 12.4792101814974 15.612278218042  12.3202215850858 15.6150337114  12.158443715053 15.6756545652775  C 11.9966658450202 15.736275419155  11.8767270793061 15.8382286734035  11.7986274179111 15.981514328023  C 11.6089568116657 16.3231955044234  11.6814779258183 16.5711899066495  12.016190760369 16.7254975347013  C 12.1723900831593 16.7806074018627  12.3341679531921 16.7778519085046  12.5015243704675 16.7172310546271  Z M 15.739871044745 15.0308691194897  C 16.2698330327836 16.0283577151102  16.2837794008899 17.078200684534  15.7817101490639 18.1803980277611  C 15.279640897238 19.3046393178527  14.3982304329212 20.131287325273  13.1374787561136 20.660342050022  C 11.8767270793061 21.189396774771  10.6271324969837 21.2555286153646  9.38869500914623 20.8587375718028  C 8.19488589924878 20.4839904751056  7.37205018097841 19.7868506555145  6.920187854335 18.7673181130295  C 6.4683255276917 17.7477855705444  6.50458608476794 16.714475561269  7.02896952556406 15.6673880852033  C 7.55335296636008 14.6423445560021  8.3985028736005 13.8763174024593  9.56441924728533 13.3693066245749  C 10.7303356209702 12.8622958466904  11.9046198155187 12.7575870990838  13.0872718309312 13.0551803817552  C 14.3257093187685 13.374817611291  15.2099090567067 14.0333805238692  15.739871044745 15.0308691194897  Z M 18.7857578391562 19.9080923632695  C 20.420272181212 18.6019885115454  21.1594296908446 17.1443325251276  21.0032303680545 15.5351244040161  C 20.9028165176891 14.4770149545181  20.4063258131057 13.5401472127751  19.5137582543038 12.724521178787  C 18.6211906955021 11.908895144799  17.4580635954385 11.3081975927402  16.0243769541133 10.9224285226108  C 14.5906903127879 10.5366594524813  13.0593790947185 10.4209287314425  11.4304432999053 10.5752363594942  C 8.94241122974527 10.8287417484365  6.88113802363747 11.6085463687696  5.24662368158174 12.9146502204937  C 3.61210933952591 14.2207540722178  2.87295182989327 15.6784100586356  3.02915115268349 17.2876181797471  C 3.12956500304871 18.3457276292451  3.62605570763222 19.2825953709881  4.51862326643402 20.0982214049762  C 5.41119082523582 20.9138474389642  6.57431792529937 21.514544991023  8.00800456662466 21.9003140611524  C 9.44169120795007 22.2860831312819  10.9730024260194 22.4018138523207  12.6019382208327 22.247506224269  C 15.0899702909927 21.9940008353267  17.1512434971004 21.2141962149936  18.7857578391562 19.9080923632695  Z M 25.5887962013985 13.6751663873204  C 25.9681374138893 14.2538199925146  26.1578080201346 14.8958499449444  26.1578080201346 15.6012562446097  C 26.1578080201346 16.3507504380041  25.9514017721618 17.119533084905  25.5385892762158 17.9076041853124  C 25.1257767802701 18.6956752857197  24.5177151308364 19.4506804658303  23.7144043279147 20.172619725644  C 22.9110935249932 20.8945589854577  21.97110831463 21.5420999246036  20.8944486968254 22.1152425430817  C 19.8177890790207 22.6883851615598  18.5570374022132 23.145797058999  17.1121936664028 23.4874782353994  C 15.6673499305925 23.8291594117998  14.1583529014932 24  12.5852025791051 24  C 11.0120522567169 24  9.47795176502642 23.8153819450095  7.98290110403344 23.4461458350284  C 6.48785044304046 23.0769097250473  5.14620983121653 22.5643879604467  3.95797926856165 21.9085805412266  C 2.76974870590677 21.2527731220065  1.81302785381611 20.4206141278701  1.08781671228966 19.4121035588173  C 0.362605570763221 18.4035929897645  0 17.3041511398955  0 16.1137780092103  C 0 14.8462510644992  0.387709033354554 13.496059319046  1.16312710006355 12.0632027728508  C 1.93854516677266 10.6303462266556  3.04030824716851 9.20851165389267  4.46841634125135 7.79769905456202  C 6.35396530922017 5.93498554450827  8.25903919253776 4.63439267950032  10.183637991204 3.89592045953818  C 12.1082367898703 3.15744823957604  13.4833486851495 3.19602514658899  14.308973677041 4.01165118057703  C 15.0341848185674 4.71705748024235  15.1457557634177 5.86885370391465  14.6436865115917 7.4670398515939  C 14.5990581336516 7.62134747964569  14.5934795864091 7.7315672139684  14.6269508698642 7.79769905456202  C 14.6604221533192 7.86383089515564  14.7162076257444 7.90240780216859  14.7943072871395 7.91342977560086  C 14.8724069485345 7.92445174903313  14.953295883551 7.92169625567507  15.0369740921886 7.90516329552666  C 15.1206523008265 7.88863033537826  15.1959626886003 7.86934188187178  15.2629052555105 7.84729793500724  L 15.3633191058756 7.81423201471043  C 16.9141552392938 7.16393558220646  18.2864778609514 6.83878736595447  19.4802869708489 6.83878736595447  C 20.6740960807463 6.83878736595447  21.5276138088505 7.17495755563873  22.0408401551613 7.84729793500724  C 22.5429094069875 8.5416822612403  22.5429094069875 9.52263789671239  22.0408401551613 10.7901648414235  C 22.0185259661913 10.933450496043  21.9934225036001 11.0436702303658  21.9655297673875 11.1208240443917  C 21.9376370311751 11.1979778584175  21.9627404937663 11.2668651923692  22.0408401551613 11.3274860462467  C 22.1189398165566 11.3881069001242  22.1858823834668 11.4294393004952  22.2416678558918 11.4514832473598  C 22.297453328317 11.4735271942243  22.3922886314395 11.5065931145211  22.5261737652598 11.5506810082502  C 23.1621281509061 11.7490765300311  23.7367185168848 12.0080929056894  24.2499448631959 12.3277301352253  C 24.763171209507 12.6473673647611  25.2094549889077 13.0965127821262  25.5887962013985 13.6751663873204  Z M 23.2290707178162 4.2017802222837  C 23.8873392924325 4.4056867307807  24.4507725639263 4.76665636068757  24.9193705322971 5.28468911200429  C 25.3879685006681 5.80272186332102  25.691999325385 6.40066392202171  25.8314630064476 7.07851528810636  C 25.9709266875105 7.75636665419101  25.9346661304341 8.40390759333691  25.7226813352188 9.02113810554407  C 25.6334245793386 9.2746434944863  25.4688574356845 9.4620170428349  25.2289799042566 9.58325875058988  C 24.9891023728286 9.70450045834486  24.7408570205369 9.7265444052094  24.4842438473812 9.64939059118351  C 24.2276306742258 9.56121480372533  24.0379600679805 9.39864069559935  23.9152320286451 9.16166826680553  C 23.79250398931 8.9246958380117  23.7701898003399 8.67945692914368  23.848289461735 8.42595154020146  C 24.0714313514355 7.7315672139684  23.9375462176152 7.11984768847737  23.4466340602741 6.59079296372838  C 22.9557219029333 6.06173823897938  22.3588173479846 5.86885370391465  21.6559203954282 6.01213935853417  C 21.3881501277876 6.06724922569552  21.1371155018745 6.02316133196643  20.9028165176891 5.87987567734692  C 20.6685175335037 5.73659002272739  20.5290538524409 5.53268351423039  20.4844254745008 5.26815615185589  C 20.4286400020758 5.00362878948139  20.4732683800159 4.75838988061336  20.6183106083211 4.53243942525182  C 20.7633528366265 4.30648896989026  20.9697590845993 4.16595880862882  21.2375293522398 4.11084894146746  C 21.9069550213411 3.96756328684794  22.5708021431999 3.99787371378669  23.2290707178162 4.2017802222837  Z M 24.4675082056538 0.366133467853479  C 25.8175166383416 0.779457471563637  26.9778544647838 1.52068518488384  27.9485216849808 2.5898166078141  C 28.9191889051775 3.64792605731209  29.54677546996 4.87412060165221  29.8312813793283 6.26840024083446  C 30.1157872886964 7.6626798800167  30.0404769009223 8.99358317196339  29.6053502160064 10.2611101166745  C 29.5049363656413 10.5587033993458  29.3152657593958 10.7791428679913  29.0363383972703 10.9224285226108  C 28.7574110351449 11.0657141772303  28.4673265785342 11.0877581240948  28.1660850274387 10.9885603632044  C 27.8648434763429 10.889362602314  27.6417015866427 10.7019890539654  27.4966593583373 10.4264397181586  C 27.3516171300321 10.1508903823518  27.3237243938194 9.86431907311279  27.4129811496996 9.56672579044147  C 27.7253797952803 8.66292396899527  27.7811652677053 7.71503425381999  27.5803375669749 6.72305664491563  C 27.3795098662447 5.73107903601126  26.9332260868437 4.86034313486187  26.2414862287722 4.11084894146746  C 25.549746370701 3.35033277464078  24.7241213788092 2.82403354324986  23.7646112530974 2.53195124729468  C 22.8051011273855 2.2398689513395  21.8400124544311 2.19302556425236  20.8693452342342 2.39142108603323  C 20.5569465886535 2.45755292662685  20.2668621320429 2.40519855282357  19.9990918644023 2.23435796462337  C 19.7313215967617 2.06351737642317  19.5639651794865 1.82378945427128  19.4970226125763 1.5151741981677  C 19.4300800456662 1.20655894206412  19.48307624447 0.922743126183152  19.6560112089878 0.663726750524794  C 19.8289461735059 0.404710374866429  20.071612978555 0.242136266740439  20.3840116241357 0.176004426146809  C 21.7563342457933 -0.110566883092228  23.117499772966 -0.0471905358566715  24.4675082056538 0.366133467853479  Z " fill-rule="nonzero" fill="#95a5a6" stroke="none" transform="matrix(1 0 0 1 1005 2176 )" />
  </g>
</svg>