<svg xmlns="http://www.w3.org/2000/svg" xmlns:xlink="http://www.w3.org/1999/xlink" width="1252" height="1262" version="1.1"><defs><mask id="clip2741" fill="#fff"><path fill-rule="evenodd" d="M 1248.99760191847 1261.21125 L 2.00159872102318 1261.21125 C 0.600479616306956 1261.21125 -0.500399680255795 1259.476 0.500399680255795 1257.2675 L 0.500399680255795 0 L 1251.49960031974 0 L 1251.49960031974 1257.2675 C 1251.49960031974 1259.476 1250.39872102318 1261.21125 1248.99760191847 1261.21125 Z"/></mask></defs><g><path fill="#fff" fill-rule="nonzero" stroke="none" d="M 1248.99760191847 1261.21125 L 2.00159872102318 1261.21125 C 0.600479616306956 1261.21125 -0.500399680255795 1259.476 0.500399680255795 1257.2675 L 0.500399680255795 0 L 1251.49960031974 0 L 1251.49960031974 1257.2675 C 1251.49960031974 1259.476 1250.39872102318 1261.21125 1248.99760191847 1261.21125 Z" transform="matrix(1 0 0 1 -24 -1398 ) matrix(1 0 0 1 24 1398 )"/><path fill="none" stroke="#e4e4e4" stroke-width="2" d="M 1248.99760191847 1261.21125 L 2.00159872102318 1261.21125 C 0.600479616306956 1261.21125 -0.500399680255795 1259.476 0.500399680255795 1257.2675 L 0.500399680255795 0 L 1251.49960031974 0 L 1251.49960031974 1257.2675 C 1251.49960031974 1259.476 1250.39872102318 1261.21125 1248.99760191847 1261.21125 Z" mask="url(#clip2741)" transform="matrix(1 0 0 1 -24 -1398 ) matrix(1 0 0 1 24 1398 )"/></g></svg>