<svg xmlns="http://www.w3.org/2000/svg" xmlns:xlink="http://www.w3.org/1999/xlink" width="64" height="64" version="1.1"><g><path fill="#1980ff" fill-rule="nonzero" stroke="none" d="M 17.6666666666667 29.2083333333333 L 32.2083333333333 48.9166666666667 L 46.7916666666667 29.2083333333333 C 47.2361111111111 28.5972222222222 47.5763888888889 27.7777777777778 47.8125 26.75 C 48.0486111111111 25.7222222222222 47.9652777777778 24.5416666666667 47.5625 23.2083333333333 C 47.1597222222222 21.875 46.3055555555555 20.7777777777778 45 19.9166666666667 C 43.8888888888889 19.1944444444444 42.7361111111111 18.8402777777778 41.5416666666667 18.8541666666667 C 40.3472222222222 18.8680555555556 39.3263888888889 19.1111111111111 38.4791666666667 19.5833333333333 C 37.6319444444445 20.0555555555556 36.875 20.6805555555556 36.2083333333333 21.4583333333333 C 35.2083333333333 22.5694444444444 33.875 23.125 32.2083333333333 23.125 C 30.5694444444445 23.125 29.25 22.5694444444444 28.25 21.4583333333333 C 27.5833333333333 20.6805555555556 26.8263888888889 20.0555555555556 25.9791666666667 19.5833333333333 C 25.1319444444445 19.1111111111111 24.1111111111111 18.8680555555556 22.9166666666667 18.8541666666667 C 21.7222222222222 18.8402777777778 20.5555555555555 19.1944444444444 19.4166666666667 19.9166666666667 C 18.1388888888889 20.7777777777778 17.2986111111111 21.875 16.8958333333333 23.2083333333333 C 16.4930555555555 24.5416666666667 16.4097222222222 25.7222222222222 16.6458333333333 26.75 C 16.8819444444445 27.7777777777778 17.2222222222222 28.5972222222222 17.6666666666667 29.2083333333333 Z M 59.7083333333333 15.9375 C 62.5694444444445 20.8402777777778 64 26.1944444444444 64 32 C 64 37.8055555555556 62.5694444444445 43.1597222222222 59.7083333333333 48.0625 C 56.8472222222222 52.9652777777778 52.9652777777778 56.8472222222222 48.0625 59.7083333333333 C 43.1597222222222 62.5694444444444 37.8055555555555 64 32 64 C 26.1944444444445 64 20.8402777777778 62.5694444444444 15.9375 59.7083333333333 C 11.0347222222222 56.8472222222222 7.15277777777777 52.9652777777778 4.29166666666669 48.0625 C 1.43055555555554 43.1597222222222 0 37.8055555555556 0 32 C 0 26.1944444444444 1.43055555555554 20.8402777777778 4.29166666666669 15.9375 C 7.15277777777777 11.0347222222222 11.0347222222222 7.15277777777777 15.9375 4.29166666666666 C 20.8402777777778 1.43055555555555 26.1944444444445 0 32 0 C 37.8055555555555 0 43.1597222222222 1.43055555555555 48.0625 4.29166666666666 C 52.9652777777778 7.15277777777777 56.8472222222222 11.0347222222222 59.7083333333333 15.9375 Z" transform="matrix(1 0 0 1 -445 -2392 ) matrix(1 0 0 1 445 2392 )"/></g></svg>