<svg xmlns="http://www.w3.org/2000/svg" xmlns:xlink="http://www.w3.org/1999/xlink" width="1252" height="140" version="1.1"><defs><mask id="clip2742" fill="#fff"><path fill-rule="evenodd" d="M 1248.99760191847 139.9125 L 2.00159872102318 139.9125 C 0.600479616306956 139.9125 -0.500399680255795 139.72 0.500399680255795 139.475 L 0.500399680255795 0 L 1251.49960031974 0 L 1251.49960031974 139.475 C 1251.49960031974 139.72 1250.39872102318 139.9125 1248.99760191847 139.9125 Z"/></mask></defs><g><path fill="#fff" fill-rule="nonzero" stroke="none" d="M 1248.99760191847 139.9125 L 2.00159872102318 139.9125 C 0.600479616306956 139.9125 -0.500399680255795 139.72 0.500399680255795 139.475 L 0.500399680255795 0 L 1251.49960031974 0 L 1251.49960031974 139.475 C 1251.49960031974 139.72 1250.39872102318 139.9125 1248.99760191847 139.9125 Z" transform="matrix(1 0 0 1 -24 -2734 ) matrix(1 0 0 1 24 2734 )"/><path fill="none" stroke="#e4e4e4" stroke-width="2" d="M 1248.99760191847 139.9125 L 2.00159872102318 139.9125 C 0.600479616306956 139.9125 -0.500399680255795 139.72 0.500399680255795 139.475 L 0.500399680255795 0 L 1251.49960031974 0 L 1251.49960031974 139.475 C 1251.49960031974 139.72 1250.39872102318 139.9125 1248.99760191847 139.9125 Z" mask="url(#clip2742)" transform="matrix(1 0 0 1 -24 -2734 ) matrix(1 0 0 1 24 2734 )"/></g></svg>