<?xml version="1.0" encoding="utf-8"?>
<svg version="1.1" xmlns:xlink="http://www.w3.org/1999/xlink" width="100px" height="40px" xmlns="http://www.w3.org/2000/svg">
  <g>
    <path d="M 0 0  L 100 0  L 100 40  L 0 40  L 0 0  " fill-rule="nonzero" fill="#cccccc" stroke="none" />
    <path d="M 3 3  L 97 3  L 97 37  L 3 37  L 3 3  " fill-rule="nonzero" fill="#ffffff" stroke="none" />
    <path d="M 55 12  C 53.32 12  52 10.68  52 9  C 52 7.32  53.32 6  55 6  C 56.68 6  58 7.32  58 9  C 58 10.68  56.68 12  55 12  " fill-rule="nonzero" fill="#cccccc" stroke="none" />
    <path d="M 4 36  L 4 18.4  L 27 10.4  L 59.2 28.32  L 77.6 15.2  L 96 28.32  L 96 36  L 4 36  " fill-rule="nonzero" fill="#169bd5" stroke="none" />
  </g>
</svg>