<?xml version="1.0" encoding="utf-8"?>
<svg version="1.1" xmlns:xlink="http://www.w3.org/1999/xlink" width="24px" height="24px" xmlns="http://www.w3.org/2000/svg">
  <g transform="matrix(1 0 0 1 -1056 -2187 )">
    <path d="M 17.65625 16.25  C 17.8541666666667 16.0520833333333  17.953125 15.8125  17.953125 15.53125  C 17.953125 15.2604166666667  17.8541666666667 15.0260416666667  17.65625 14.828125  L 14.828125 12  L 17.65625 9.171875  C 17.8541666666667 8.97395833333333  17.953125 8.73958333333333  17.953125 8.46875  C 17.953125 8.1875  17.8541666666667 7.94791666666666  17.65625 7.75  L 16.25 6.34375  C 16.0520833333333 6.14583333333333  15.8125 6.046875  15.53125 6.046875  C 15.2604166666667 6.046875  15.0260416666667 6.14583333333333  14.828125 6.34375  L 12 9.171875  L 9.171875 6.34375  C 8.97395833333333 6.14583333333333  8.73958333333333 6.046875  8.46875 6.046875  C 8.1875 6.046875  7.94791666666667 6.14583333333333  7.75 6.34375  L 6.34375 7.75  C 6.14583333333333 7.94791666666666  6.046875 8.1875  6.046875 8.46875  C 6.046875 8.73958333333333  6.14583333333333 8.97395833333333  6.34375 9.171875  L 9.171875 12  L 6.34375 14.828125  C 6.14583333333333 15.0260416666667  6.046875 15.2604166666667  6.046875 15.53125  C 6.046875 15.8125  6.14583333333333 16.0520833333333  6.34375 16.25  L 7.75 17.65625  C 7.94791666666667 17.8541666666667  8.1875 17.953125  8.46875 17.953125  C 8.73958333333333 17.953125  8.97395833333333 17.8541666666667  9.171875 17.65625  L 12 14.828125  L 14.828125 17.65625  C 15.0260416666667 17.8541666666667  15.2604166666667 17.953125  15.53125 17.953125  C 15.8125 17.953125  16.0520833333333 17.8541666666667  16.25 17.65625  L 17.65625 16.25  Z M 22.390625 5.9765625  C 23.4635416666667 7.81510416666666  24 9.82291666666666  24 12  C 24 14.1770833333333  23.4635416666667 16.1848958333333  22.390625 18.0234375  C 21.3177083333333 19.8619791666667  19.8619791666667 21.3177083333333  18.0234375 22.390625  C 16.1848958333333 23.4635416666667  14.1770833333333 24  12 24  C 9.82291666666667 24  7.81510416666667 23.4635416666667  5.9765625 22.390625  C 4.13802083333333 21.3177083333333  2.68229166666667 19.8619791666667  1.609375 18.0234375  C 0.536458333333333 16.1848958333333  0 14.1770833333333  0 12  C 0 9.82291666666666  0.536458333333333 7.81510416666666  1.609375 5.9765625  C 2.68229166666667 4.13802083333333  4.13802083333333 2.68229166666666  5.9765625 1.609375  C 7.81510416666667 0.536458333333331  9.82291666666667 0  12 0  C 14.1770833333333 0  16.1848958333333 0.536458333333331  18.0234375 1.609375  C 19.8619791666667 2.68229166666666  21.3177083333333 4.13802083333333  22.390625 5.9765625  Z " fill-rule="nonzero" fill="#f05b47" stroke="none" transform="matrix(1 0 0 1 1056 2187 )" />
  </g>
</svg>