<?xml version="1.0" encoding="utf-8"?>
<svg version="1.1" xmlns:xlink="http://www.w3.org/1999/xlink" width="80px" height="80px" xmlns="http://www.w3.org/2000/svg">
  <g transform="matrix(1 0 0 1 -226 -177 )">
    <path d="M 61.9791666666667 33.3333333333333  C 61.9791666666667 34.2361111111111  61.6493055555556 35.0173611111111  60.9895833333333 35.6770833333333  L 39.0104166666667 57.65625  C 38.3506944444444 58.3159722222222  37.5694444444444 58.6458333333333  36.6666666666667 58.6458333333333  C 35.7638888888889 58.6458333333333  34.9826388888889 58.3159722222222  34.3229166666667 57.65625  L 19.0104166666667 42.34375  C 18.3506944444445 41.6840277777778  18.0208333333333 40.9027777777778  18.0208333333333 40  C 18.0208333333333 39.0972222222222  18.3506944444445 38.3159722222222  19.0104166666667 37.65625  L 24.3229166666667 32.34375  C 24.9826388888889 31.6840277777778  25.7638888888889 31.3541666666667  26.6666666666667 31.3541666666667  C 27.5694444444444 31.3541666666667  28.3506944444444 31.6840277777778  29.0104166666667 32.34375  L 36.6666666666667 40  L 50.9895833333333 25.6770833333333  C 51.6493055555556 25.0173611111111  52.4305555555556 24.6875  53.3333333333333 24.6875  C 54.2361111111111 24.6875  55.0173611111111 25.0173611111111  55.6770833333333 25.6770833333333  L 60.9895833333333 30.9895833333333  C 61.6493055555556 31.6493055555555  61.9791666666667 32.4305555555555  61.9791666666667 33.3333333333333  Z M 64.53125 54.21875  C 67.0659722222223 49.8784722222222  68.3333333333333 45.1388888888889  68.3333333333333 40  C 68.3333333333333 34.8611111111111  67.0659722222223 30.1215277777778  64.53125 25.78125  C 61.9965277777778 21.4409722222222  58.5590277777778 18.0034722222222  54.21875 15.46875  C 49.8784722222223 12.9340277777778  45.1388888888889 11.6666666666667  40 11.6666666666667  C 34.8611111111111 11.6666666666667  30.1215277777778 12.9340277777778  25.78125 15.46875  C 21.4409722222222 18.0034722222222  18.0034722222222 21.4409722222222  15.46875 25.78125  C 12.9340277777778 30.1215277777778  11.6666666666667 34.8611111111111  11.6666666666667 40  C 11.6666666666667 45.1388888888889  12.9340277777778 49.8784722222222  15.46875 54.21875  C 18.0034722222222 58.5590277777778  21.4409722222222 61.9965277777778  25.78125 64.53125  C 30.1215277777778 67.0659722222223  34.8611111111111 68.3333333333333  40 68.3333333333333  C 45.1388888888889 68.3333333333333  49.8784722222223 67.0659722222223  54.21875 64.53125  C 58.5590277777778 61.9965277777778  61.9965277777778 58.5590277777778  64.53125 54.21875  Z M 74.6354166666667 19.921875  C 78.2118055555555 26.0503472222222  80 32.7430555555555  80 40  C 80 47.2569444444445  78.2118055555555 53.9496527777778  74.6354166666667 60.078125  C 71.0590277777778 66.2065972222223  66.2065972222223 71.0590277777777  60.078125 74.6354166666667  C 53.9496527777778 78.2118055555556  47.2569444444444 80  40 80  C 32.7430555555556 80  26.0503472222222 78.2118055555556  19.921875 74.6354166666667  C 13.7934027777778 71.0590277777777  8.94097222222221 66.2065972222223  5.36458333333333 60.078125  C 1.78819444444446 53.9496527777778  0 47.2569444444445  0 40  C 0 32.7430555555555  1.78819444444446 26.0503472222222  5.36458333333333 19.921875  C 8.94097222222221 13.7934027777778  13.7934027777778 8.94097222222221  19.921875 5.36458333333333  C 26.0503472222222 1.78819444444442  32.7430555555556 0  40 0  C 47.2569444444444 0  53.9496527777778 1.78819444444442  60.078125 5.36458333333333  C 66.2065972222223 8.94097222222221  71.0590277777778 13.7934027777778  74.6354166666667 19.921875  Z " fill-rule="nonzero" fill="#2ecc71" stroke="none" transform="matrix(1 0 0 1 226 177 )" />
  </g>
</svg>