<?xml version="1.0" encoding="utf-8"?>
<svg version="1.1" xmlns:xlink="http://www.w3.org/1999/xlink" width="12px" height="12px" xmlns="http://www.w3.org/2000/svg">
  <g transform="matrix(1 0 0 1 -1054 -2247 )">
    <path d="M 7.9296875 9.9296875  C 7.9765625 9.8828125  8 9.82291666666667  8 9.75  L 8 8.5  C 8 8.42708333333333  7.9765625 8.3671875  7.9296875 8.3203125  C 7.8828125 8.2734375  7.82291666666667 8.25  7.75 8.25  L 7 8.25  L 7 4.25  C 7 4.17708333333333  6.9765625 4.1171875  6.9296875 4.0703125  C 6.8828125 4.0234375  6.82291666666667 4  6.75 4  L 4.25 4  C 4.17708333333333 4  4.1171875 4.0234375  4.0703125 4.0703125  C 4.0234375 4.1171875  4 4.17708333333333  4 4.25  L 4 5.5  C 4 5.57291666666667  4.0234375 5.6328125  4.0703125 5.6796875  C 4.1171875 5.7265625  4.17708333333333 5.75  4.25 5.75  L 5 5.75  L 5 8.25  L 4.25 8.25  C 4.17708333333333 8.25  4.1171875 8.2734375  4.0703125 8.3203125  C 4.0234375 8.3671875  4 8.42708333333333  4 8.5  L 4 9.75  C 4 9.82291666666667  4.0234375 9.8828125  4.0703125 9.9296875  C 4.1171875 9.9765625  4.17708333333333 10  4.25 10  L 7.75 10  C 7.82291666666667 10  7.8828125 9.9765625  7.9296875 9.9296875  Z M 6.9296875 2.9296875  C 6.9765625 2.8828125  7 2.82291666666667  7 2.75  L 7 1.5  C 7 1.42708333333333  6.9765625 1.3671875  6.9296875 1.3203125  C 6.8828125 1.2734375  6.82291666666667 1.25  6.75 1.25  L 5.25 1.25  C 5.17708333333333 1.25  5.1171875 1.2734375  5.0703125 1.3203125  C 5.0234375 1.3671875  5 1.42708333333333  5 1.5  L 5 2.75  C 5 2.82291666666667  5.0234375 2.8828125  5.0703125 2.9296875  C 5.1171875 2.9765625  5.17708333333333 3  5.25 3  L 6.75 3  C 6.82291666666667 3  6.8828125 2.9765625  6.9296875 2.9296875  Z M 11.1953125 2.98828125  C 11.7317708333333 3.90755208333333  12 4.91145833333333  12 6  C 12 7.08854166666667  11.7317708333333 8.09244791666667  11.1953125 9.01171875  C 10.6588541666667 9.93098958333333  9.93098958333333 10.6588541666667  9.01171875 11.1953125  C 8.09244791666667 11.7317708333333  7.08854166666667 12  6 12  C 4.91145833333333 12  3.90755208333333 11.7317708333333  2.98828125 11.1953125  C 2.06901041666667 10.6588541666667  1.34114583333333 9.93098958333333  0.8046875 9.01171875  C 0.268229166666667 8.09244791666667  0 7.08854166666667  0 6  C 0 4.91145833333333  0.268229166666667 3.90755208333333  0.8046875 2.98828125  C 1.34114583333333 2.06901041666667  2.06901041666667 1.34114583333333  2.98828125 0.8046875  C 3.90755208333333 0.268229166666666  4.91145833333333 0  6 0  C 7.08854166666667 0  8.09244791666667 0.268229166666666  9.01171875 0.8046875  C 9.93098958333333 1.34114583333333  10.6588541666667 2.06901041666667  11.1953125 2.98828125  Z " fill-rule="nonzero" fill="#999999" stroke="none" transform="matrix(1 0 0 1 1054 2247 )" />
  </g>
</svg>