<?xml version="1.0" encoding="utf-8"?>
<svg version="1.1" xmlns:xlink="http://www.w3.org/1999/xlink" width="9px" height="7px" xmlns="http://www.w3.org/2000/svg">
  <g transform="matrix(1 0 0 1 -3 -4 )">
    <path d="M 8.83741935483871 0.966329966329965  C 8.9458064516129 1.07631874298541  9 1.20987654320987  9 1.36700336700337  C 9 1.52413019079685  8.9458064516129 1.65768799102133  8.83741935483871 1.76767676767677  L 4.63354838709677 6.03367003367003  L 3.84387096774193 6.83501683501684  C 3.73548387096774 6.94500561167228  3.60387096774194 7  3.44903225806452 7  C 3.2941935483871 7  3.16258064516129 6.94500561167228  3.0541935483871 6.83501683501684  L 2.26451612903226 6.03367003367003  L 0.162580645161291 3.9006734006734  C 0.0541935483870968 3.79068462401796  0 3.65712682379349  0 3.5  C 0 3.34287317620651  0.0541935483870968 3.20931537598204  0.162580645161291 3.0993265993266  L 0.95225806451613 2.2979797979798  C 1.06064516129032 2.18799102132436  1.19225806451613 2.13299663299663  1.34709677419355 2.13299663299664  C 1.50193548387097 2.13299663299663  1.63354838709677 2.18799102132436  1.74193548387097 2.2979797979798  L 3.44903225806452 4.03619528619529  L 7.25806451612903 0.164983164983163  C 7.36645161290323 0.0549943883277209  7.49806451612904 0  7.65290322580645 0  C 7.80774193548387 0  7.93935483870968 0.0549943883277209  8.04774193548387 0.164983164983163  L 8.83741935483871 0.966329966329965  Z " fill-rule="nonzero" fill="#cccccc" stroke="none" transform="matrix(1 0 0 1 3 4 )" />
  </g>
</svg>