<?xml version="1.0" encoding="utf-8"?>
<svg version="1.1" xmlns:xlink="http://www.w3.org/1999/xlink" width="8px" height="7px" xmlns="http://www.w3.org/2000/svg">
  <g transform="matrix(1 0 0 1 -3 -4 )">
    <path d="M 7.85548387096774 0.966329966329965  C 7.95182795698925 1.07631874298541  8 1.20987654320987  8 1.36700336700337  C 8 1.52413019079685  7.95182795698925 1.65768799102133  7.85548387096774 1.76767676767677  L 4.11870967741935 6.03367003367003  L 3.41677419354839 6.83501683501684  C 3.32043010752688 6.94500561167228  3.20344086021506 7  3.0658064516129 7  C 2.92817204301075 7  2.81118279569893 6.94500561167228  2.71483870967742 6.83501683501684  L 2.01290322580645 6.03367003367003  L 0.144516129032259 3.9006734006734  C 0.0481720430107528 3.79068462401796  0 3.65712682379349  0 3.5  C 0 3.34287317620651  0.0481720430107528 3.20931537598204  0.144516129032259 3.0993265993266  L 0.846451612903226 2.2979797979798  C 0.942795698924733 2.18799102132436  1.05978494623656 2.13299663299663  1.19741935483871 2.13299663299664  C 1.33505376344086 2.13299663299663  1.45204301075269 2.18799102132436  1.54838709677419 2.2979797979798  L 3.0658064516129 4.03619528619529  L 6.45161290322581 0.164983164983163  C 6.54795698924731 0.0549943883277209  6.66494623655914 0  6.80258064516129 0  C 6.94021505376344 0  7.05720430107527 0.0549943883277209  7.15354838709677 0.164983164983163  L 7.85548387096774 0.966329966329965  Z " fill-rule="nonzero" fill="#ffffff" stroke="none" transform="matrix(1 0 0 1 3 4 )" />
  </g>
</svg>