<?xml version="1.0" encoding="utf-8"?>
<svg version="1.1" xmlns:xlink="http://www.w3.org/1999/xlink" width="67px" height="67px" xmlns="http://www.w3.org/2000/svg">
  <g transform="matrix(1 0 0 1 -92 -360 )">
    <path d="M 125.5 362.5  C 142.86 362.5  156.5 376.14  156.5 393.5  C 156.5 410.86  142.86 424.5  125.5 424.5  C 108.14 424.5  94.5 410.86  94.5 393.5  C 94.5 376.14  108.14 362.5  125.5 362.5  Z " fill-rule="nonzero" fill="#6badff" stroke="none" fill-opacity="0.698039215686274" />
    <path d="M 125.5 361.5  C 143.42 361.5  157.5 375.58  157.5 393.5  C 157.5 411.42  143.42 425.5  125.5 425.5  C 107.58 425.5  93.5 411.42  93.5 393.5  C 93.5 375.58  107.58 361.5  125.5 361.5  Z " stroke-width="3" stroke="#6badff" fill="none" stroke-opacity="0.298039215686275" />
  </g>
</svg>