<svg xmlns="http://www.w3.org/2000/svg" xmlns:xlink="http://www.w3.org/1999/xlink" width="67" height="67" version="1.1"><g><path fill="#fff" fill-rule="nonzero" stroke="none" d="M 273.5 2.5 C 290.86 2.5 304.5 16.14 304.5 33.5 C 304.5 50.86 290.86 64.5 273.5 64.5 C 256.14 64.5 242.5 50.86 242.5 33.5 C 242.5 16.14 256.14 2.5 273.5 2.5 Z" transform="matrix(1 0 0 1 -240 0 )"/><path fill="none" stroke="#fe7548" stroke-opacity=".498" stroke-width="3" d="M 273.5 1.5 C 291.42 1.5 305.5 15.58 305.5 33.5 C 305.5 51.42 291.42 65.5 273.5 65.5 C 255.58 65.5 241.5 51.42 241.5 33.5 C 241.5 15.58 255.58 1.5 273.5 1.5 Z" transform="matrix(1 0 0 1 -240 0 )"/></g></svg>