<svg xmlns="http://www.w3.org/2000/svg" xmlns:xlink="http://www.w3.org/1999/xlink" width="67" height="67" version="1.1"><g><path fill="#1980ff" fill-rule="nonzero" stroke="none" d="M 430.5 172.5 C 447.86 172.5 461.5 186.14 461.5 203.5 C 461.5 220.86 447.86 234.5 430.5 234.5 C 413.14 234.5 399.5 220.86 399.5 203.5 C 399.5 186.14 413.14 172.5 430.5 172.5 Z" transform="matrix(1 0 0 1 -397 -170 )"/><path fill="none" stroke="#6badff" stroke-opacity=".298" stroke-width="3" d="M 430.5 171.5 C 448.42 171.5 462.5 185.58 462.5 203.5 C 462.5 221.42 448.42 235.5 430.5 235.5 C 412.58 235.5 398.5 221.42 398.5 203.5 C 398.5 185.58 412.58 171.5 430.5 171.5 Z" transform="matrix(1 0 0 1 -397 -170 )"/></g></svg>