<svg xmlns="http://www.w3.org/2000/svg" xmlns:xlink="http://www.w3.org/1999/xlink" width="67" height="67" version="1.1"><g><path fill="#6badff" fill-opacity=".698" fill-rule="nonzero" stroke="none" d="M 348.5 362.5 C 365.86 362.5 379.5 376.14 379.5 393.5 C 379.5 410.86 365.86 424.5 348.5 424.5 C 331.14 424.5 317.5 410.86 317.5 393.5 C 317.5 376.14 331.14 362.5 348.5 362.5 Z" transform="matrix(1 0 0 1 -315 -360 )"/><path fill="none" stroke="#6badff" stroke-opacity=".298" stroke-width="3" d="M 348.5 361.5 C 366.42 361.5 380.5 375.58 380.5 393.5 C 380.5 411.42 366.42 425.5 348.5 425.5 C 330.58 425.5 316.5 411.42 316.5 393.5 C 316.5 375.58 330.58 361.5 348.5 361.5 Z" transform="matrix(1 0 0 1 -315 -360 )"/></g></svg>