<?xml version="1.0" encoding="utf-8"?>
<svg version="1.1" xmlns:xlink="http://www.w3.org/1999/xlink" width="1024px" height="583px" xmlns="http://www.w3.org/2000/svg">
  <g transform="matrix(1 0 0 1 -88 -121 )">
    <path d="M 89 124  A 2 2 0 0 1 91 122 L 1109 122  A 2 2 0 0 1 1111 124 L 1111 701  A 2 2 0 0 1 1109 703 L 91 703  A 2 2 0 0 1 89 701 L 89 124  Z " fill-rule="nonzero" fill="#ffffff" stroke="none" fill-opacity="0" />
    <path d="M 88.5 124  A 2.5 2.5 0 0 1 91 121.5 L 1109 121.5  A 2.5 2.5 0 0 1 1111.5 124 L 1111.5 701  A 2.5 2.5 0 0 1 1109 703.5 L 91 703.5  A 2.5 2.5 0 0 1 88.5 701 L 88.5 124  Z " stroke-width="1" stroke-dasharray="9,4" stroke="#cccccc" fill="none" stroke-dashoffset="0.5" />
  </g>
</svg>