<svg xmlns="http://www.w3.org/2000/svg" xmlns:xlink="http://www.w3.org/1999/xlink" width="1024" height="583" version="1.1"><g><path fill="#fff" fill-opacity="0" fill-rule="nonzero" stroke="none" d="M 89 124 A 2 2 0 0 1 91 122 L 1109 122 A 2 2 0 0 1 1111 124 L 1111 701 A 2 2 0 0 1 1109 703 L 91 703 A 2 2 0 0 1 89 701 L 89 124 Z" transform="matrix(1 0 0 1 -88 -121 )"/><path fill="none" stroke="#ccc" stroke-dasharray="9 4" stroke-dashoffset=".5" stroke-width="1" d="M 88.5 124 A 2.5 2.5 0 0 1 91 121.5 L 1109 121.5 A 2.5 2.5 0 0 1 1111.5 124 L 1111.5 701 A 2.5 2.5 0 0 1 1109 703.5 L 91 703.5 A 2.5 2.5 0 0 1 88.5 701 L 88.5 124 Z" transform="matrix(1 0 0 1 -88 -121 )"/></g></svg>