<?xml version="1.0" encoding="utf-8"?>
<svg version="1.1" xmlns:xlink="http://www.w3.org/1999/xlink" width="50px" height="50px" xmlns="http://www.w3.org/2000/svg">
  <g transform="matrix(1 0 0 1 -357 -3991 )">
    <path d="M 49.5689450333333 25.19420545  C 49.5689450333333 11.7505862166666  38.6421875 0.823828683333318  25.19420545 0.823828683333318  C 11.7505862166666 0.823828683333318  0.823828683333318 11.7505862166666  0.823828683333318 25.19420545  C 0.823828683333318 38.6421875  11.7505862166666 49.5689450333333  25.19420545 49.5689450333333  C 38.6421875 49.5689450333333  49.5689450333333 38.6421875  49.5689450333333 25.19420545  Z M 3.03971409999997 25.19420545  C 3.03971409999997 12.94576795  12.94576795 3.03971410000003  25.19420545 3.03971410000003  C 37.4470057666666 3.03971410000003  47.3530596166667 12.94576795  47.3530596166667 25.19420545  C 47.3530596166667 37.4470057666666  37.4470057666666 47.3530596166667  25.19420545 47.3530596166667  C 12.94576795 47.3530596166667  3.03971409999997 37.4470057666666  3.03971409999997 25.19420545  Z M 17.1158200333333 15.54987035  C 16.9064450333333 15.3317708333333  16.6229166666667 15.2183599333333  16.3175786833333 15.2139971166667  C 15.86829455 15.2183599333333  15.4669924666666 15.4888020833333  15.2925133 15.9031903833333  C 15.1267575333334 16.3219403833334  15.2227216333333 16.8017575333333  15.54987035 17.1158200333333  L 23.6282557666667 25.19420545  L 15.54987035 33.2725908666666  C 15.2576174666667 33.5517575333333  15.14420545 33.9661458333334  15.24453125 34.35  C 15.34485705 34.7425786833334  15.6501950333334 35.0435549666666  16.0384120166667 35.1438807666667  C 16.4222661833334 35.2485682666667  16.8410161833333 35.13079455  17.1158200333333 34.8429033666666  L 25.19420545 26.76015625  L 33.2725908666666 34.8429033666666  C 33.5517575333333 35.13079455  33.9661458333334 35.2485682666667  34.35 35.1438807666667  C 34.7425786833334 35.0435549666666  35.0435549666666 34.7425786833334  35.1438807666667 34.35  C 35.2485682666667 33.9661458333334  35.13079455 33.5517575333333  34.8429033666666 33.2725908666666  L 26.76015625 25.19420545  L 34.8429033666666 17.1158200333333  C 35.1700520833333 16.7973958333333  35.2660161833334 16.3132158666667  35.0871742 15.8901041666667  C 34.9083333333333 15.4669924666667  34.4939450333334 15.2009120166667  34.0359375 15.2139971166667  C 33.7480474333333 15.2227216333333  33.4732424666666 15.34049535  33.2725908666666 15.54987035  L 25.19420545 23.6282557666667  L 17.1158200333333 15.54987035  Z " fill-rule="nonzero" fill="#ffffff" stroke="none" transform="matrix(1 0 0 1 357 3991 )" />
  </g>
</svg>