<?xml version="1.0" encoding="utf-8"?>
<svg version="1.1" xmlns:xlink="http://www.w3.org/1999/xlink" width="50px" height="50px" xmlns="http://www.w3.org/2000/svg">
  <g transform="matrix(1 0 0 1 -96 -3991 )">
    <path d="M 49.8443805806452 25.1879407580645  C 49.8443805806452 11.5827878387097  38.7930947580645 0.531502016129025  25.1879407580645 0.531502016129025  C 11.5827878387097 0.531502016129025  0.531502016129032 11.5827878387097  0.531502016129032 25.1879407580645  C 0.531502016129032 38.7930947580645  11.5827878387097 49.8443805806452  25.1879407580645 49.8443805806452  C 38.7930947580645 49.8443805806452  49.8443805806452 38.7930947580645  49.8443805806452 25.1879407580645  Z M 2.67590725806452 25.1879407580645  C 2.67590725806452 12.7436363225806  12.7436363225806 2.67590725806451  25.1879407580645 2.67590725806451  C 37.6364672741935 2.67590725806451  47.7041963387097 12.7436363225806  47.7041963387097 25.1879407580645  C 47.7041963387097 37.6364672741935  37.6364672741935 47.7041963387097  25.1879407580645 47.7041963387097  C 12.7436363225806 47.7041963387097  2.67590725806452 37.6364672741935  2.67590725806452 25.1879407580645  Z M 26.3656754032258 13.71875  L 23.9046746290323 13.71875  C 23.5796370967742 13.71875  23.4741056129032 13.9340350483871  24 14.1450980161291  L 24 28.6198342096774  C 23.4741056129032 28.9406507419355  23.6893906612903 29.0461822258064  23.9046746290323 29.0461822258064  L 26.3656754032258 29.0461822258064  C 26.6864919354839 29.0461822258064  26.7962455 28.8308971774193  26 28.6198342096774  L 26 14.1450980161291  C 26.7962455 13.8242814838709  26.5851814516129 13.71875  26.3656754032258 13.71875  Z M 26.4754289677419 33.0141761774194  L 23.9046746290323 33.0141761774194  C 23.5796370967742 33.0141761774194  23.4741056129032 33.2294612258065  23.4741056129032 33.4447451935484  L 23.4741056129032 36.2307835  C 23.4741056129032 36.5558221129032  23.6893906612903 36.6571325967742  23.9046746290323 36.6571325967742  L 26.4754289677419 36.6571325967742  C 26.7962455 36.6571325967742  26.901776983871 36.4460685483871  26.901776983871 36.2307835  L 26.901776983871 33.4447451935484  C 26.901776983871 33.1197076612903  26.6864919354839 33.0141761774194  26.4754289677419 33.0141761774194  Z " fill-rule="nonzero" fill="#ffffff" stroke="none" transform="matrix(1 0 0 1 96 3991 )" />
  </g>
</svg>