<?xml version="1.0" encoding="utf-8"?>
<svg version="1.1" xmlns:xlink="http://www.w3.org/1999/xlink" width="49px" height="49px" xmlns="http://www.w3.org/2000/svg">
  <g transform="matrix(1 0 0 1 -227 -3992 )">
    <path d="M 48.5876733333333 24.3342011111112  C 48.5876733333333 10.9574655555556  37.7152777777778 0.0850699999999733  24.3342011111112 0.0850699999999733  C 10.9574655555556 0.0850699999999733  0.0850699999999733 10.9574655555556  0.0850699999999733 24.3342011111112  C 0.0850699999999733 37.7152777777778  10.9574655555556 48.5876733333333  24.3342011111112 48.5876733333333  C 37.7152777777778 48.5876733333333  48.5876733333333 37.7152777777778  48.5876733333333 24.3342011111112  Z M 2.28993111111106 24.3342011111112  C 2.28993111111106 12.1467011111112  12.1467011111112 2.28993111111106  24.3342011111112 2.28993111111106  C 36.5260422222223 2.28993111111106  46.3828122222222 12.1467011111112  46.3828122222222 24.3342011111112  C 46.3828122222222 36.5260422222223  36.5260422222223 46.3828122222222  24.3342011111112 46.3828122222222  C 12.1467011111112 46.3828122222222  2.28993111111106 36.5260422222223  2.28993111111106 24.3342011111112  Z M 36.33941 13.8784722222222  C 36.1397566666667 13.5138888888889  35.7578122222222 13.2925344444444  35.3454866666667 13.3012155555556  C 34.9852433333333 13.3098955555556  34.6423611111111 13.4921877777778  34.4470488888888 13.7960066666667  L 23.1970488888888 30.3715277777778  L 15.1631944444445 22.9149311111111  C 14.8767366666667 22.6371533333333  14.46007 22.5416666666666  14.0781255555555 22.6501733333333  C 13.7005211111111 22.7673611111111  13.4053822222222 23.0842011111112  13.3229166666666 23.4704866666667  C 13.2361111111111 23.8611111111111  13.36632 24.2647566666667  13.6657988888888 24.5295144444444  L 23.5833333333334 33.7352433333333  L 36.2699655555556 15.0329866666667  C 36.5086811111111 14.6944444444445  36.5347222222222 14.2473955555556  36.33941 13.8784722222222  Z " fill-rule="nonzero" fill="#ffffff" stroke="none" transform="matrix(1 0 0 1 227 3992 )" />
  </g>
</svg>