<svg xmlns="http://www.w3.org/2000/svg" xmlns:xlink="http://www.w3.org/1999/xlink" width="30" height="30" version="1.1"><defs><linearGradient id="LinearGradient2700" x1="15" x2="15" y1="0" y2="30" gradientUnits="userSpaceOnUse"><stop id="Stop2701" offset="0" stop-color="#fff"/><stop id="Stop2702" offset="1" stop-color="#ccc"/></linearGradient></defs><g><path fill="url(#LinearGradient2700)" fill-rule="nonzero" stroke="none" d="M 18.3248733688188 2.87089589068825 C 18.3248733688188 1.35137272267207 17.0725525137362 0.118294534412939 15.5231184168955 0.118294534412939 C 13.9764609065934 0.118294534412939 12.724140051511 1.35137272267207 12.724140051511 2.87089589068825 C 12.724140051511 4.390419757085 13.9764609065934 5.62076937246962 15.5231184168955 5.62076937246962 C 17.0725525137362 5.62076937246962 18.3248733688188 4.390419757085 18.3248733688188 2.87089589068825 Z M 27.9935668475275 6.4391840991903 C 27.9935668475275 4.54319050607285 26.4246945123626 2.99911437246965 24.4920665934067 2.99911437246965 C 22.5622159718406 2.99911437246965 20.9933436366758 4.54319050607285 20.9933436366758 6.4391840991903 C 20.9933436366758 8.33517839068833 22.5622159718406 9.87652595141708 24.4920665934067 9.87652595141708 C 26.4246945123626 9.87652595141708 27.9935668475275 8.33517839068833 27.9935668475275 6.4391840991903 Z M 9.09213241071427 6.4391840991903 C 9.09213241071427 5.0751595546559 7.94255165521986 3.98939636639682 6.55416952953294 3.98939636639682 C 5.16578740384614 3.98939636639682 4.06063558722531 5.0751595546559 4.06063558722531 6.4391840991903 C 4.06063558722531 7.80320864372476 5.16578740384614 8.9326213157895 6.55416952953294 8.9326213157895 C 7.94255165521986 8.9326213157895 9.09213241071427 7.80320864372476 9.09213241071427 6.4391840991903 Z M 5.46012476991757 15.2507830060729 C 5.46012476991757 13.8867584615384 4.31054401442304 12.7573457894737 2.92216188873624 12.7573457894737 C 1.53377976304944 12.7573457894737 0.384199718406535 13.8867584615384 0.384199718406535 15.2507830060729 C 0.384199718406535 16.6148075506073 1.53377976304944 17.7442195242915 2.92216188873624 17.7442195242915 C 4.31054401442304 17.7442195242915 5.46012476991757 16.6148075506073 5.46012476991757 15.2507830060729 Z M 29.6568481009615 15.6818144129555 C 29.6568481009615 14.9234171153847 29.0265231490386 14.3041497975709 28.2573589182692 14.3041497975709 C 27.4854188118132 14.3041497975709 26.8550931490385 14.9234171153847 26.8550931490385 15.6818144129555 C 26.8550931490385 16.4374845344129 27.4854188118132 17.0567511538461 28.2573589182692 17.0567511538461 C 29.0265231490386 17.0567511538461 29.6568481009615 16.4374845344129 29.6568481009615 15.6818144129555 Z M 9.09213241071427 24.0623812145749 C 9.09213241071427 22.6983566700405 7.94255165521986 21.5716725708502 6.55416952953294 21.5716725708502 C 5.16578740384614 21.5716725708502 4.06063558722531 22.6983566700405 4.06063558722531 24.0623812145749 C 4.06063558722531 25.4291343319838 5.16578740384614 26.5148975202429 6.55416952953294 26.5148975202429 C 7.94255165521986 26.5148975202429 9.09213241071427 25.4291343319838 9.09213241071427 24.0623812145749 Z M 26.1553485576923 24.0623812145749 C 26.1553485576923 23.1512131680162 25.4222827953297 22.387359423077 24.4920665934067 22.387359423077 C 23.5646276888737 22.387359423077 22.787133698489 23.1512131680162 22.787133698489 24.0623812145749 C 22.787133698489 24.9762778340082 23.5646276888737 25.6964827935222 24.4920665934067 25.6964827935222 C 25.4222827953297 25.6964827935222 26.1553485576923 24.9762778340082 26.1553485576923 24.0623812145749 Z M 17.6251287774726 27.6306694230769 C 17.6251287774726 26.4930731275304 16.683805518544 25.5682643117408 15.5231184168955 25.5682643117408 C 14.3652079017858 25.5682643117408 13.4238846428573 26.4930731275304 13.4238846428573 27.6306694230769 C 13.4238846428573 28.770994291498 14.3652079017858 29.6958031072874 15.5231184168955 29.6958031072874 C 16.683805518544 29.6958031072874 17.6251287774726 28.770994291498 17.6251287774726 27.6306694230769 Z" transform="matrix(1 0 0 1 -757 -4014 ) matrix(1 0 0 1 757 4014 )"/></g></svg>