<svg xmlns="http://www.w3.org/2000/svg" xmlns:xlink="http://www.w3.org/1999/xlink" width="50" height="50" version="1.1"><g><path fill="#fff" fill-rule="nonzero" stroke="none" d="M 25.3567915645161 0.548387096774206 C 25.3019153225806 0.539945096774204 25.2470390806452 0.531502016129025 25.1879407580645 0.531502016129025 C 11.5827878387097 0.531502016129025 0.531502016129025 11.5827878387097 0.531502016129025 25.1879407580645 C 0.531502016129025 38.7930947580645 11.5827878387097 49.8443805806452 25.1879407580645 49.8443805806452 C 38.7930947580645 49.8443805806452 49.8443805806452 38.7930947580645 49.8443805806452 25.1879407580645 C 49.8443805806452 11.6418850806452 38.8817411612903 0.641255580645179 25.3567915645161 0.548387096774206 Z M 2.67590725806451 25.1879407580645 C 2.67590725806451 12.7436363225806 12.7436363225806 2.67590725806451 25.1879407580645 2.67590725806451 C 37.6364672741936 2.67590725806451 47.7041963387097 12.7436363225806 47.7041963387097 25.1879407580645 C 47.7041963387097 37.6364672741935 37.6364672741936 47.7041963387097 25.1879407580645 47.7041963387097 C 12.7436363225806 47.7041963387097 2.67590725806451 37.6364672741935 2.67590725806451 25.1879407580645 Z M 19.8269281935484 20.8991302741936 C 19.8269281935484 19.1261968064516 18.3874753387097 17.6825229516129 16.6103197903226 17.6825229516129 C 14.8373863225806 17.6825229516129 13.397933467742 19.1261968064516 13.397933467742 20.8991302741936 C 13.397933467742 22.6762858225807 14.8373863225806 24.1157386774194 16.6103197903226 24.1157386774194 C 18.3874753387097 24.1157386774194 19.8269281935484 22.6762858225807 19.8269281935484 20.8991302741936 Z M 36.9821701290323 20.8991302741936 C 36.9821701290323 19.1261968064516 35.5427172741936 17.6825229516129 33.7655617258065 17.6825229516129 C 31.9884072580645 17.6825229516129 30.5489544032258 19.1261968064516 30.5489544032258 20.8991302741936 C 30.5489544032258 22.6762858225807 31.9884072580645 24.1157386774194 33.7655617258065 24.1157386774194 C 35.5427172741936 24.1157386774194 36.9821701290323 22.6762858225807 36.9821701290323 20.8991302741936 Z M 36.6655745967742 34.0779362580645 C 36.6655745967742 34.0779362580645 32.0981608225807 29.4767512419355 25.1879407580645 29.4767512419355 C 18.2777217741935 29.4767512419355 13.710308 34.0779362580645 13.710308 34.0779362580645 C 13.4274826290323 34.3480975483871 13.3177290645161 34.749118483871 13.4190395483871 35.1205902580645 C 13.5119080322581 35.5005040322581 13.8073964032258 35.7917714032258 14.1830902580645 35.8888608870968 C 14.554562032258 35.9901713709677 14.9598039677419 35.8761968064516 15.2257431774194 35.593372516129 C 15.2257431774194 35.593372516129 19.2317293709677 31.6211564838709 25.1879407580645 31.6211564838709 C 31.1441532258065 31.6211564838709 35.1501383387097 35.593372516129 35.1501383387097 35.593372516129 C 35.4202996290322 35.8761968064516 35.8213205645161 35.9901713709677 36.1927923387096 35.8888608870968 C 36.5727071935484 35.7917714032258 36.8639745645162 35.5005040322581 36.9610640483871 35.1205902580645 C 37.0623745322581 34.749118483871 36.9483999677419 34.3480975483871 36.6655745967742 34.0779362580645 Z" transform="matrix(1 0 0 1 -487 -3991 ) matrix(1 0 0 1 487 3991 )"/></g></svg>