<svg xmlns="http://www.w3.org/2000/svg" xmlns:xlink="http://www.w3.org/1999/xlink" width="143" height="41" version="1.1"><g><path fill="#000" fill-opacity=".698" fill-rule="nonzero" stroke="none" d="M 1012.5 4006 C 1012.5 4006 1012.5 3998.72210013566 1012.5 3998.72210013566 C 1012.5 3998.72210013566 990.587088116234 4008.72582077825 990.587088116234 4008.72582077825 C 990.587088116234 4008.72582077825 1012.5 3979.66739414978 1012.5 3979.66739414978 C 1012.5 3979.66739414978 1012.5 3972 1012.5 3972 C 1012.5 3970.61928812542 1013.61928812542 3969.5 1015 3969.5 C 1015 3969.5 1129 3969.5 1129 3969.5 C 1130.38071187458 3969.5 1131.5 3970.61928812542 1131.5 3972 C 1131.5 3972 1131.5 4006 1131.5 4006 C 1131.5 4007.38071187458 1130.38071187458 4008.5 1129 4008.5 C 1129 4008.5 1015 4008.5 1015 4008.5 C 1013.61928812542 4008.5 1012.5 4007.38071187458 1012.5 4006 Z" transform="matrix(1 0 0 1 -989 -3969 )"/><path fill="#d0d0d0" fill-rule="nonzero" stroke="none" d="M 1012 4006 C 1012 4006 1012 3999.5 1012 3999.5 C 1012 3999.5 989 4010 989 4010 C 989 4010 1012 3979.5 1012 3979.5 C 1012 3979.5 1012 3972 1012 3972 C 1012 3970.34314575051 1013.34314575051 3969 1015 3969 C 1015 3969 1129 3969 1129 3969 C 1130.65685424949 3969 1132 3970.34314575051 1132 3972 C 1132 3972 1132 4006 1132 4006 C 1132 4007.65685424949 1130.65685424949 4009 1129 4009 C 1129 4009 1015 4009 1015 4009 C 1013.34314575051 4009 1012 4007.65685424949 1012 4006 Z M 1013 4006 C 1013 4007.10456949966 1013.89543050034 4008 1015 4008 C 1015 4008 1129 4008 1129 4008 C 1130.10456949966 4008 1131 4007.10456949966 1131 4006 C 1131 4006 1131 3972 1131 3972 C 1131 3970.89543050034 1130.10456949966 3970 1129 3970 C 1129 3970 1015 3970 1015 3970 C 1013.89543050034 3970 1013 3970.89543050034 1013 3972 C 1013 3972 1013 3979.83478829956 1013 3979.83478829956 C 1013 3979.83478829956 992.174176232468 4007.4516415565 992.174176232468 4007.4516415565 C 992.174176232468 4007.4516415565 1013 3997.94420027132 1013 3997.94420027132 C 1013 3997.94420027132 1013 4006 1013 4006 Z" transform="matrix(1 0 0 1 -989 -3969 )"/></g></svg>