<?xml version="1.0" encoding="utf-8"?>
<svg version="1.1" xmlns:xlink="http://www.w3.org/1999/xlink" width="55px" height="55px" xmlns="http://www.w3.org/2000/svg">
  <g transform="matrix(1 0 0 1 -621 -17 )">
    <path d="M 15.1822916666666 25.1009114583333  L 27.6790364583334 42.0377604166667  L 40.2115885416666 25.1009114583333  C 40.5935329861111 24.5757378472222  40.8859592013889 23.8715277777778  41.0888671875 22.98828125  C 41.2917751736111 22.1050347222222  41.2201605902778 21.0904947916667  40.8740234375 19.9446614583333  C 40.5278862847222 18.798828125  39.7938368055555 17.8559027777778  38.671875 17.1158854166667  C 37.7170138888889 16.4952256944444  36.7263454861111 16.1908637152778  35.6998697916666 16.2027994791667  C 34.6733940972222 16.2147352430555  33.7961154513889 16.4236111111111  33.0680338541666 16.8294270833333  C 32.3399522569445 17.2352430555555  31.689453125 17.7723524305555  31.1165364583334 18.4407552083333  C 30.2571614583334 19.3956163194445  29.111328125 19.873046875  27.6790364583334 19.873046875  C 26.2706163194445 19.873046875  25.13671875 19.3956163194445  24.27734375 18.4407552083333  C 23.7044270833334 17.7723524305555  23.0539279513889 17.2352430555555  22.3258463541666 16.8294270833333  C 21.5977647569445 16.4236111111111  20.7204861111111 16.2147352430555  19.6940104166666 16.2027994791667  C 18.6675347222222 16.1908637152778  17.6649305555555 16.4952256944444  16.6861979166666 17.1158854166667  C 15.5881076388889 17.8559027777778  14.8659939236111 18.798828125  14.5198567708334 19.9446614583333  C 14.1737196180555 21.0904947916667  14.1021050347222 22.1050347222222  14.3050130208334 22.98828125  C 14.5079210069445 23.8715277777778  14.8003472222222 24.5757378472222  15.1822916666666 25.1009114583333  Z M 51.3118489583334 13.6962890625  C 53.7706163194445 17.9096137152778  55 22.5108506944444  55 27.5  C 55 32.4891493055555  53.7706163194445 37.0903862847222  51.3118489583334 41.3037109375  C 48.8530815972222 45.5170355902778  45.5170355902778 48.8530815972222  41.3037109375 51.3118489583333  C 37.0903862847222 53.7706163194445  32.4891493055555 55  27.5 55  C 22.5108506944445 55  17.9096137152778 53.7706163194445  13.6962890625 51.3118489583333  C 9.48296440972217 48.8530815972222  6.14691840277783 45.5170355902778  3.68815104166663 41.3037109375  C 1.22938368055554 37.0903862847222  0 32.4891493055555  0 27.5  C 0 22.5108506944444  1.22938368055554 17.9096137152778  3.68815104166663 13.6962890625  C 6.14691840277783 9.48296440972223  9.48296440972217 6.14691840277777  13.6962890625 3.68815104166666  C 17.9096137152778 1.22938368055554  22.5108506944445 0  27.5 0  C 32.4891493055555 0  37.0903862847222 1.22938368055554  41.3037109375 3.68815104166666  C 45.5170355902778 6.14691840277777  48.8530815972222 9.48296440972223  51.3118489583334 13.6962890625  Z " fill-rule="nonzero" fill="#ffffff" stroke="none" transform="matrix(1 0 0 1 621 17 )" />
  </g>
</svg>