<?xml version="1.0" encoding="utf-8"?>
<svg version="1.1" xmlns:xlink="http://www.w3.org/1999/xlink" width="1724px" height="91px" xmlns="http://www.w3.org/2000/svg">
  <defs>
    <linearGradient gradientUnits="userSpaceOnUse" x1="0" y1="45.5" x2="1724" y2="45.5" id="LinearGradient2669">
      <stop id="Stop2670" stop-color="#090f27" offset="0" />
      <stop id="Stop2671" stop-color="#090f27" offset="0.19" />
      <stop id="Stop2672" stop-color="#2a80bb" offset="0.43" />
      <stop id="Stop2673" stop-color="#2a80bb" offset="0.56" />
      <stop id="Stop2674" stop-color="#090f27" offset="0.79" />
      <stop id="Stop2675" stop-color="#090f27" offset="1" />
    </linearGradient>
    <linearGradient gradientUnits="userSpaceOnUse" x1="0" y1="45.5" x2="1724" y2="45.5" id="LinearGradient2676">
      <stop id="Stop2677" stop-color="#090f27" offset="0" />
      <stop id="Stop2678" stop-color="#090f27" offset="0.11" />
      <stop id="Stop2679" stop-color="#2e7ab7" offset="0.28" />
      <stop id="Stop2680" stop-color="#2f7bb7" offset="0.72" />
      <stop id="Stop2681" stop-color="#090f27" offset="0.88" />
      <stop id="Stop2682" stop-color="#090f27" offset="1" />
    </linearGradient>
    <mask fill="white" id="clip2683">
      <path d="M 591.140444444444 52  L 627.919111111111 90.9999999999994  L 1099.912 90.9999999999994  L 1135.15822222222 52  L 1659.40746666572 52  L 1724 52.5999999999997  L 1722.08444444444 52.5999999999997  L 1722.08444444444 0.511817718479392  L 0 0.511817718479392  L 1.14933333333338 52  L 591.140444444444 52  Z " fill-rule="evenodd" />
    </mask>
  </defs>
  <g transform="matrix(1 0 0 1 0 2 )">
    <path d="M 591.140444444444 52  L 627.919111111111 90.9999999999994  L 1099.912 90.9999999999994  L 1135.15822222222 52  L 1659.40746666572 52  L 1724 52.5999999999997  L 1722.08444444444 52.5999999999997  L 1722.08444444444 0.511817718479392  L 0 0.511817718479392  L 1.14933333333338 52  L 591.140444444444 52  Z " fill-rule="nonzero" fill="url(#LinearGradient2669)" stroke="none" transform="matrix(1 0 0 1 0 -2 )" />
    <path d="M 591.140444444444 52  L 627.919111111111 90.9999999999994  L 1099.912 90.9999999999994  L 1135.15822222222 52  L 1659.40746666572 52  L 1724 52.5999999999997  L 1722.08444444444 52.5999999999997  L 1722.08444444444 0.511817718479392  L 0 0.511817718479392  L 1.14933333333338 52  L 591.140444444444 52  Z " stroke-width="6" stroke="url(#LinearGradient2676)" fill="none" transform="matrix(1 0 0 1 0 -2 )" mask="url(#clip2683)" />
  </g>
</svg>