<?xml version="1.0" encoding="utf-8"?>
<svg version="1.1" xmlns:xlink="http://www.w3.org/1999/xlink" width="1724px" height="91px" xmlns="http://www.w3.org/2000/svg">
  <defs>
    <linearGradient gradientUnits="userSpaceOnUse" x1="0" y1="45.5" x2="1724" y2="45.5" id="LinearGradient1377">
      <stop id="Stop1378" stop-color="#090f27" offset="0" />
      <stop id="Stop1379" stop-color="#090f27" offset="0.19" />
      <stop id="Stop1380" stop-color="#2a80bb" offset="0.43" />
      <stop id="Stop1381" stop-color="#2a80bb" offset="0.56" />
      <stop id="Stop1382" stop-color="#090f27" offset="0.79" />
      <stop id="Stop1383" stop-color="#090f27" offset="1" />
    </linearGradient>
    <linearGradient gradientUnits="userSpaceOnUse" x1="0" y1="45.5" x2="1724" y2="45.5" id="LinearGradient1384">
      <stop id="Stop1385" stop-color="#090f27" offset="0" />
      <stop id="Stop1386" stop-color="#090f27" offset="0.11" />
      <stop id="Stop1387" stop-color="#2e7ab7" offset="0.28" />
      <stop id="Stop1388" stop-color="#2f7bb7" offset="0.72" />
      <stop id="Stop1389" stop-color="#090f27" offset="0.88" />
      <stop id="Stop1390" stop-color="#090f27" offset="1" />
    </linearGradient>
    <mask fill="white" id="clip1391">
      <path d="M 591.140444444444 52  L 627.919111111111 90.9999999999994  L 1099.912 90.9999999999994  L 1135.15822222222 52  L 1659.40746666572 52  L 1724 52.5999999999997  L 1722.08444444444 52.5999999999997  L 1722.08444444444 0.511817718479392  L 0 0.511817718479392  L 1.14933333333338 52  L 591.140444444444 52  Z " fill-rule="evenodd" />
    </mask>
  </defs>
  <g transform="matrix(1 0 0 1 0 2 )">
    <path d="M 591.140444444444 52  L 627.919111111111 90.9999999999994  L 1099.912 90.9999999999994  L 1135.15822222222 52  L 1659.40746666572 52  L 1724 52.5999999999997  L 1722.08444444444 52.5999999999997  L 1722.08444444444 0.511817718479392  L 0 0.511817718479392  L 1.14933333333338 52  L 591.140444444444 52  Z " fill-rule="nonzero" fill="url(#LinearGradient1377)" stroke="none" transform="matrix(1 0 0 1 0 -2 )" />
    <path d="M 591.140444444444 52  L 627.919111111111 90.9999999999994  L 1099.912 90.9999999999994  L 1135.15822222222 52  L 1659.40746666572 52  L 1724 52.5999999999997  L 1722.08444444444 52.5999999999997  L 1722.08444444444 0.511817718479392  L 0 0.511817718479392  L 1.14933333333338 52  L 591.140444444444 52  Z " stroke-width="6" stroke="url(#LinearGradient1384)" fill="none" transform="matrix(1 0 0 1 0 -2 )" mask="url(#clip1391)" />
  </g>
</svg>