<?xml version="1.0" encoding="utf-8"?>
<svg version="1.1" xmlns:xlink="http://www.w3.org/1999/xlink" width="30px" height="30px" xmlns="http://www.w3.org/2000/svg">
  <g transform="matrix(1 0 0 1 -11 -11 )">
    <path d="M 30 15  C 30 6.71509713650585  23.2848685545342 0  15 0  C 6.71571429572741 0  0 6.71509713650585  0 15  C 0 23.2849028634942  6.71571429572741 30  15 30  C 23.2849028634942 30  30 23.2849028634942  30 15  Z M 28.7499771329442 15  C 28.7499771329442 18.3362056812502  27.5549142713574 21.3976456776199  25.5718628506829 23.7804685510336  C 24.2010171279844 23.2079656908256  20.9643428453093 22.0849714130642  18.961782860817 21.4941599650167  C 18.7902514293267 21.4404342444859  18.7640228660105 21.4318628343326  18.7640228660105 20.7202285306423  C 18.7640228660105 20.1330856619546  19.0051200024895 19.5422742474119  19.2407314244087 19.041737111159  C 19.4964342939123 18.497279982972  19.7991771263987 17.5830170956321  19.9071771422666 16.7626970994468  C 20.2117371434577 16.4098628168297  20.6255657209103 15.7140685311022  20.8910400100504 14.3883770852761  C 21.1247657123545 13.2189942121991  21.0155999959633 12.7940913792613  20.8611085919191 12.395074221069  C 20.8446857236947 12.352319929658  20.8275771788431 12.3107999231855  20.8159885905017 12.2692799502177  C 20.7573943146328 11.9958856520961  20.8373828739348 10.5713485178268  21.0375428877077 9.46649138361964  C 21.1761257563836 8.70850282707841  21.0027428807333 7.0971770936175  19.9590514521422 5.76287996218294  C 19.299874308589 4.92061710775815  18.0383314376069 3.88549708932031  15.7348114468682 3.74139426413425  L 14.4713485808159 3.74266282452775  C 12.2069828530385 3.88549712282515  10.9454057401062 4.92061710775815  10.286228596553 5.76287996218294  C 9.24250289250671 7.0971770936175  9.06915432581637 8.7085028270784  9.20708572631071 9.46649138361964  C 9.40789714125549 10.5713142423716  9.48781714964724 11.995851376641  9.43049143417177 12.2644113948794  C 9.41763428543692 12.3107656812352  9.40059429149565 12.3522856877078  9.38413714781601 12.3950742545738  C 9.22974857013726 12.7940914127662  9.12047999387583 13.2189942457039  9.35420572968475 14.388377118781  C 9.61968001882491 15.7140685311022  10.0335085962774 16.4098628168297  10.3381028729237 16.7626971329517  C 10.4461028887916 17.5830171291369  10.748845721278 18.497279982972  11.0046171416919 19.0417371446639  C 11.1919885576402 19.4396571532433  11.2792800002069 19.9804800110303  11.2792800002069 20.7458057262914  C 11.2792800002069 21.4575428563472  11.2530514368908 21.4660114401351  11.0925257099753 21.516137165721  C 9.02101714621095 22.1277600134352  5.72386286805192 23.3190857447518  4.49465143416747 23.8574057237021  C 2.47251430144207 21.4636800055838  1.24998859160071 18.3727543060191  1.24998859160071 15  C 1.24998859160071 7.41822858095313  7.41822858095317 1.25002286705584  15 1.25002286705584  C 22.5817714190469 1.25002286705584  28.7499771329442 7.41819430549799  28.7499771329442 15  Z " fill-rule="nonzero" fill="#00284d" stroke="none" transform="matrix(1 0 0 1 11 11 )" />
  </g>
</svg>