<?xml version="1.0" encoding="utf-8"?>
<svg version="1.1" xmlns:xlink="http://www.w3.org/1999/xlink" width="120px" height="40px" xmlns="http://www.w3.org/2000/svg">
  <g transform="matrix(1 0 0 1 -970 -654 )">
    <path d="M 971 674  A 19 19 0 0 1 990 655 L 1070 655  A 19 19 0 0 1 1089 674 A 19 19 0 0 1 1070 693 L 990 693  A 19 19 0 0 1 971 674 Z " fill-rule="nonzero" fill="#f2f2f2" stroke="none" />
    <path d="M 970.5 674  A 19.5 19.5 0 0 1 990 654.5 L 1070 654.5  A 19.5 19.5 0 0 1 1089.5 674 A 19.5 19.5 0 0 1 1070 693.5 L 990 693.5  A 19.5 19.5 0 0 1 970.5 674 Z " stroke-width="1" stroke-dasharray="9,4" stroke="#e4e4e4" fill="none" stroke-dashoffset="0.5" />
  </g>
</svg>