<svg xmlns="http://www.w3.org/2000/svg" xmlns:xlink="http://www.w3.org/1999/xlink" width="120" height="40" version="1.1"><g><path fill="#f2f2f2" fill-rule="nonzero" stroke="none" d="M 971 597 A 2 2 0 0 1 973 595 L 1087 595 A 2 2 0 0 1 1089 597 L 1089 631 A 2 2 0 0 1 1087 633 L 973 633 A 2 2 0 0 1 971 631 L 971 597 Z" transform="matrix(1 0 0 1 -970 -594 )"/><path fill="none" stroke="#e4e4e4" stroke-dasharray="9 4" stroke-dashoffset=".5" stroke-width="1" d="M 970.5 597 A 2.5 2.5 0 0 1 973 594.5 L 1087 594.5 A 2.5 2.5 0 0 1 1089.5 597 L 1089.5 631 A 2.5 2.5 0 0 1 1087 633.5 L 973 633.5 A 2.5 2.5 0 0 1 970.5 631 L 970.5 597 Z" transform="matrix(1 0 0 1 -970 -594 )"/></g></svg>