<svg xmlns="http://www.w3.org/2000/svg" xmlns:xlink="http://www.w3.org/1999/xlink" width="94" height="38" version="1.1"><g><path fill="#ff784e" fill-rule="nonzero" stroke="none" d="M 933.5 1773 A 1.5 1.5 0 0 1 935 1771.5 L 1025 1771.5 A 1.5 1.5 0 0 1 1026.5 1773 L 1026.5 1807 A 1.5 1.5 0 0 1 1025 1808.5 L 935 1808.5 A 1.5 1.5 0 0 1 933.5 1807 L 933.5 1773 Z" transform="matrix(1 0 0 1 -933 -1771 )"/><path fill="none" stroke="#ff784e" stroke-width="1" d="M 933.5 1773 A 1.5 1.5 0 0 1 935 1771.5 L 1025 1771.5 A 1.5 1.5 0 0 1 1026.5 1773 L 1026.5 1807 A 1.5 1.5 0 0 1 1025 1808.5 L 935 1808.5 A 1.5 1.5 0 0 1 933.5 1807 L 933.5 1773 Z" transform="matrix(1 0 0 1 -933 -1771 )"/></g></svg>