<?xml version="1.0" encoding="utf-8"?>
<svg version="1.1" xmlns:xlink="http://www.w3.org/1999/xlink" width="94px" height="38px" xmlns="http://www.w3.org/2000/svg">
  <g transform="matrix(1 0 0 1 -933 -1771 )">
    <path d="M 933.5 1773  A 1.5 1.5 0 0 1 935 1771.5 L 1025 1771.5  A 1.5 1.5 0 0 1 1026.5 1773 L 1026.5 1807  A 1.5 1.5 0 0 1 1025 1808.5 L 935 1808.5  A 1.5 1.5 0 0 1 933.5 1807 L 933.5 1773  Z " fill-rule="nonzero" fill="#ff784e" stroke="none" />
    <path d="M 933.5 1773  A 1.5 1.5 0 0 1 935 1771.5 L 1025 1771.5  A 1.5 1.5 0 0 1 1026.5 1773 L 1026.5 1807  A 1.5 1.5 0 0 1 1025 1808.5 L 935 1808.5  A 1.5 1.5 0 0 1 933.5 1807 L 933.5 1773  Z " stroke-width="1" stroke="#ff784e" fill="none" />
  </g>
</svg>