<svg xmlns="http://www.w3.org/2000/svg" xmlns:xlink="http://www.w3.org/1999/xlink" width="94" height="38" version="1.1"><g><path fill="#f8c64f" fill-rule="nonzero" stroke="none" d="M 714.5 1773 A 1.5 1.5 0 0 1 716 1771.5 L 806 1771.5 A 1.5 1.5 0 0 1 807.5 1773 L 807.5 1807 A 1.5 1.5 0 0 1 806 1808.5 L 716 1808.5 A 1.5 1.5 0 0 1 714.5 1807 L 714.5 1773 Z" transform="matrix(1 0 0 1 -714 -1771 )"/><path fill="none" stroke="#f8c64f" stroke-width="1" d="M 714.5 1773 A 1.5 1.5 0 0 1 716 1771.5 L 806 1771.5 A 1.5 1.5 0 0 1 807.5 1773 L 807.5 1807 A 1.5 1.5 0 0 1 806 1808.5 L 716 1808.5 A 1.5 1.5 0 0 1 714.5 1807 L 714.5 1773 Z" transform="matrix(1 0 0 1 -714 -1771 )"/></g></svg>