<?xml version="1.0" encoding="utf-8"?>
<svg version="1.1" xmlns:xlink="http://www.w3.org/1999/xlink" width="100px" height="40px" xmlns="http://www.w3.org/2000/svg">
  <g transform="matrix(1 0 0 1 -178 -2910 )">
    <path d="M 179 2912  A 1 1 0 0 1 180 2911 L 276 2911  A 1 1 0 0 1 277 2912 L 277 2948  A 1 1 0 0 1 276 2949 L 180 2949  A 1 1 0 0 1 179 2948 L 179 2912  Z " fill-rule="nonzero" fill="#33ab9f" stroke="none" fill-opacity="0.8" />
    <path d="M 178.5 2912  A 1.5 1.5 0 0 1 180 2910.5 L 276 2910.5  A 1.5 1.5 0 0 1 277.5 2912 L 277.5 2948  A 1.5 1.5 0 0 1 276 2949.5 L 180 2949.5  A 1.5 1.5 0 0 1 178.5 2948 L 178.5 2912  Z " stroke-width="1" stroke="#33ab9f" fill="none" stroke-opacity="0.8" />
  </g>
</svg>