<svg xmlns="http://www.w3.org/2000/svg" xmlns:xlink="http://www.w3.org/1999/xlink" width="100" height="40" version="1.1"><g><path fill="#33ab9f" fill-rule="nonzero" stroke="none" d="M 178.5 2912 A 1.5 1.5 0 0 1 180 2910.5 L 276 2910.5 A 1.5 1.5 0 0 1 277.5 2912 L 277.5 2948 A 1.5 1.5 0 0 1 276 2949.5 L 180 2949.5 A 1.5 1.5 0 0 1 178.5 2948 L 178.5 2912 Z" transform="matrix(1 0 0 1 -178 -2910 )"/><path fill="none" stroke="#33ab9f" stroke-width="1" d="M 178.5 2912 A 1.5 1.5 0 0 1 180 2910.5 L 276 2910.5 A 1.5 1.5 0 0 1 277.5 2912 L 277.5 2948 A 1.5 1.5 0 0 1 276 2949.5 L 180 2949.5 A 1.5 1.5 0 0 1 178.5 2948 L 178.5 2912 Z" transform="matrix(1 0 0 1 -178 -2910 )"/></g></svg>