<?xml version="1.0" encoding="utf-8"?>
<svg version="1.1" xmlns:xlink="http://www.w3.org/1999/xlink" width="94px" height="38px" xmlns="http://www.w3.org/2000/svg">
  <g transform="matrix(1 0 0 1 -496 -1771 )">
    <path d="M 497 1773  A 1 1 0 0 1 498 1772 L 588 1772  A 1 1 0 0 1 589 1773 L 589 1807  A 1 1 0 0 1 588 1808 L 498 1808  A 1 1 0 0 1 497 1807 L 497 1773  Z " fill-rule="nonzero" fill="#4bb2ff" stroke="none" fill-opacity="0.8" />
    <path d="M 496.5 1773  A 1.5 1.5 0 0 1 498 1771.5 L 588 1771.5  A 1.5 1.5 0 0 1 589.5 1773 L 589.5 1807  A 1.5 1.5 0 0 1 588 1808.5 L 498 1808.5  A 1.5 1.5 0 0 1 496.5 1807 L 496.5 1773  Z " stroke-width="1" stroke="#4bb2ff" fill="none" stroke-opacity="0.8" />
  </g>
</svg>