<svg xmlns="http://www.w3.org/2000/svg" xmlns:xlink="http://www.w3.org/1999/xlink" width="94" height="38" version="1.1"><g><path fill="#4bb2ff" fill-opacity=".8" fill-rule="nonzero" stroke="none" d="M 497 1773 A 1 1 0 0 1 498 1772 L 588 1772 A 1 1 0 0 1 589 1773 L 589 1807 A 1 1 0 0 1 588 1808 L 498 1808 A 1 1 0 0 1 497 1807 L 497 1773 Z" transform="matrix(1 0 0 1 -496 -1771 )"/><path fill="none" stroke="#4bb2ff" stroke-opacity=".8" stroke-width="1" d="M 496.5 1773 A 1.5 1.5 0 0 1 498 1771.5 L 588 1771.5 A 1.5 1.5 0 0 1 589.5 1773 L 589.5 1807 A 1.5 1.5 0 0 1 588 1808.5 L 498 1808.5 A 1.5 1.5 0 0 1 496.5 1807 L 496.5 1773 Z" transform="matrix(1 0 0 1 -496 -1771 )"/></g></svg>