<?xml version="1.0" encoding="utf-8"?>
<svg version="1.1" xmlns:xlink="http://www.w3.org/1999/xlink" width="60px" height="60px" xmlns="http://www.w3.org/2000/svg">
  <g transform="matrix(1 0 0 1 -805 -2140 )">
    <path d="M 805.5 2144  A 3.5 3.5 0 0 1 809 2140.5 L 861 2140.5  A 3.5 3.5 0 0 1 864.5 2144 L 864.5 2196  A 3.5 3.5 0 0 1 861 2199.5 L 809 2199.5  A 3.5 3.5 0 0 1 805.5 2196 L 805.5 2144  Z " fill-rule="nonzero" fill="#33ab9f" stroke="none" />
    <path d="M 805.5 2144  A 3.5 3.5 0 0 1 809 2140.5 L 861 2140.5  A 3.5 3.5 0 0 1 864.5 2144 L 864.5 2196  A 3.5 3.5 0 0 1 861 2199.5 L 809 2199.5  A 3.5 3.5 0 0 1 805.5 2196 L 805.5 2144  Z " stroke-width="1" stroke="#33ab9f" fill="none" />
  </g>
</svg>