<svg xmlns="http://www.w3.org/2000/svg" xmlns:xlink="http://www.w3.org/1999/xlink" width="30" height="30" version="1.1"><g><path fill="#33ab9f" fill-opacity=".8" fill-rule="nonzero" stroke="none" d="M 1217 2144 A 3 3 0 0 1 1220 2141 L 1242 2141 A 3 3 0 0 1 1245 2144 L 1245 2166 A 3 3 0 0 1 1242 2169 L 1220 2169 A 3 3 0 0 1 1217 2166 L 1217 2144 Z" transform="matrix(1 0 0 1 -1216 -2140 )"/><path fill="none" stroke="#33ab9f" stroke-opacity=".8" stroke-width="1" d="M 1216.5 2144 A 3.5 3.5 0 0 1 1220 2140.5 L 1242 2140.5 A 3.5 3.5 0 0 1 1245.5 2144 L 1245.5 2166 A 3.5 3.5 0 0 1 1242 2169.5 L 1220 2169.5 A 3.5 3.5 0 0 1 1216.5 2166 L 1216.5 2144 Z" transform="matrix(1 0 0 1 -1216 -2140 )"/></g></svg>