<svg xmlns="http://www.w3.org/2000/svg" xmlns:xlink="http://www.w3.org/1999/xlink" width="100" height="44" version="1.1"><g><path fill="#33ab9f" fill-rule="nonzero" stroke="none" d="M 279.5 2144 A 3.5 3.5 0 0 1 283 2140.5 L 375 2140.5 A 3.5 3.5 0 0 1 378.5 2144 L 378.5 2180 A 3.5 3.5 0 0 1 375 2183.5 L 283 2183.5 A 3.5 3.5 0 0 1 279.5 2180 L 279.5 2144 Z" transform="matrix(1 0 0 1 -279 -2140 )"/><path fill="none" stroke="#33ab9f" stroke-width="1" d="M 279.5 2144 A 3.5 3.5 0 0 1 283 2140.5 L 375 2140.5 A 3.5 3.5 0 0 1 378.5 2144 L 378.5 2180 A 3.5 3.5 0 0 1 375 2183.5 L 283 2183.5 A 3.5 3.5 0 0 1 279.5 2180 L 279.5 2144 Z" transform="matrix(1 0 0 1 -279 -2140 )"/></g></svg>