<?xml version="1.0" encoding="utf-8"?>
<svg version="1.1" xmlns:xlink="http://www.w3.org/1999/xlink" width="100px" height="44px" xmlns="http://www.w3.org/2000/svg">
  <g transform="matrix(1 0 0 1 -279 -2220 )">
    <path d="M 280 2242  A 21 21 0 0 1 301 2221 L 357 2221  A 21 21 0 0 1 378 2242 A 21 21 0 0 1 357 2263 L 301 2263  A 21 21 0 0 1 280 2242 Z " fill-rule="nonzero" fill="#33ab9f" stroke="none" fill-opacity="0.8" />
    <path d="M 279.5 2242  A 21.5 21.5 0 0 1 301 2220.5 L 357 2220.5  A 21.5 21.5 0 0 1 378.5 2242 A 21.5 21.5 0 0 1 357 2263.5 L 301 2263.5  A 21.5 21.5 0 0 1 279.5 2242 Z " stroke-width="1" stroke="#33ab9f" fill="none" stroke-opacity="0.8" />
  </g>
</svg>