<svg xmlns="http://www.w3.org/2000/svg" xmlns:xlink="http://www.w3.org/1999/xlink" width="85" height="35" version="1.1"><g><path fill="#33ab9f" fill-opacity=".8" fill-rule="nonzero" stroke="none" d="M 470 2237.5 A 16.5 16.5 0 0 1 486.5 2221 L 536.5 2221 A 16.5 16.5 0 0 1 553 2237.5 A 16.5 16.5 0 0 1 536.5 2254 L 486.5 2254 A 16.5 16.5 0 0 1 470 2237.5 Z" transform="matrix(1 0 0 1 -469 -2220 )"/><path fill="none" stroke="#33ab9f" stroke-opacity=".8" stroke-width="1" d="M 469.5 2237.5 A 17 17 0 0 1 486.5 2220.5 L 536.5 2220.5 A 17 17 0 0 1 553.5 2237.5 A 17 17 0 0 1 536.5 2254.5 L 486.5 2254.5 A 17 17 0 0 1 469.5 2237.5 Z" transform="matrix(1 0 0 1 -469 -2220 )"/></g></svg>