<svg xmlns="http://www.w3.org/2000/svg" xmlns:xlink="http://www.w3.org/1999/xlink" width="100" height="44" version="1.1"><g><path fill="#33ab9f" fill-opacity=".8" fill-rule="nonzero" stroke="none" d="M 280 2242 A 21 21 0 0 1 301 2221 L 357 2221 A 21 21 0 0 1 378 2242 A 21 21 0 0 1 357 2263 L 301 2263 A 21 21 0 0 1 280 2242 Z" transform="matrix(1 0 0 1 -279 -2220 )"/><path fill="none" stroke="#33ab9f" stroke-opacity=".8" stroke-width="1" d="M 279.5 2242 A 21.5 21.5 0 0 1 301 2220.5 L 357 2220.5 A 21.5 21.5 0 0 1 378.5 2242 A 21.5 21.5 0 0 1 357 2263.5 L 301 2263.5 A 21.5 21.5 0 0 1 279.5 2242 Z" transform="matrix(1 0 0 1 -279 -2220 )"/></g></svg>