<svg xmlns="http://www.w3.org/2000/svg" xmlns:xlink="http://www.w3.org/1999/xlink" width="44" height="44" version="1.1"><g><path fill="#33ab9f" fill-opacity=".8" fill-rule="nonzero" stroke="none" d="M 957 2144 A 3 3 0 0 1 960 2141 L 996 2141 A 3 3 0 0 1 999 2144 L 999 2180 A 3 3 0 0 1 996 2183 L 960 2183 A 3 3 0 0 1 957 2180 L 957 2144 Z" transform="matrix(1 0 0 1 -956 -2140 )"/><path fill="none" stroke="#33ab9f" stroke-opacity=".8" stroke-width="1" d="M 956.5 2144 A 3.5 3.5 0 0 1 960 2140.5 L 996 2140.5 A 3.5 3.5 0 0 1 999.5 2144 L 999.5 2180 A 3.5 3.5 0 0 1 996 2183.5 L 960 2183.5 A 3.5 3.5 0 0 1 956.5 2180 L 956.5 2144 Z" transform="matrix(1 0 0 1 -956 -2140 )"/></g></svg>