<?xml version="1.0" encoding="utf-8"?>
<svg version="1.1" xmlns:xlink="http://www.w3.org/1999/xlink" width="70px" height="30px" xmlns="http://www.w3.org/2000/svg">
  <g transform="matrix(1 0 0 1 -645 -2220 )">
    <path d="M 645.5 2235  A 14.5 14.5 0 0 1 660 2220.5 L 700 2220.5  A 14.5 14.5 0 0 1 714.5 2235 A 14.5 14.5 0 0 1 700 2249.5 L 660 2249.5  A 14.5 14.5 0 0 1 645.5 2235 Z " fill-rule="nonzero" fill="#33ab9f" stroke="none" />
    <path d="M 645.5 2235  A 14.5 14.5 0 0 1 660 2220.5 L 700 2220.5  A 14.5 14.5 0 0 1 714.5 2235 A 14.5 14.5 0 0 1 700 2249.5 L 660 2249.5  A 14.5 14.5 0 0 1 645.5 2235 Z " stroke-width="1" stroke="#33ab9f" fill="none" />
  </g>
</svg>