<svg xmlns="http://www.w3.org/2000/svg" xmlns:xlink="http://www.w3.org/1999/xlink" width="70" height="30" version="1.1"><g><path fill="#33ab9f" fill-opacity=".8" fill-rule="nonzero" stroke="none" d="M 646 2235 A 14 14 0 0 1 660 2221 L 700 2221 A 14 14 0 0 1 714 2235 A 14 14 0 0 1 700 2249 L 660 2249 A 14 14 0 0 1 646 2235 Z" transform="matrix(1 0 0 1 -645 -2220 )"/><path fill="none" stroke="#33ab9f" stroke-opacity=".8" stroke-width="1" d="M 645.5 2235 A 14.5 14.5 0 0 1 660 2220.5 L 700 2220.5 A 14.5 14.5 0 0 1 714.5 2235 A 14.5 14.5 0 0 1 700 2249.5 L 660 2249.5 A 14.5 14.5 0 0 1 645.5 2235 Z" transform="matrix(1 0 0 1 -645 -2220 )"/></g></svg>