<?xml version="1.0" encoding="utf-8"?>
<svg version="1.1" xmlns:xlink="http://www.w3.org/1999/xlink" width="130px" height="60px" xmlns="http://www.w3.org/2000/svg">
  <g transform="matrix(1 0 0 1 -58 -2220 )">
    <path d="M 58.5 2250  A 29.5 29.5 0 0 1 88 2220.5 L 158 2220.5  A 29.5 29.5 0 0 1 187.5 2250 A 29.5 29.5 0 0 1 158 2279.5 L 88 2279.5  A 29.5 29.5 0 0 1 58.5 2250 Z " fill-rule="nonzero" fill="#33ab9f" stroke="none" />
    <path d="M 58.5 2250  A 29.5 29.5 0 0 1 88 2220.5 L 158 2220.5  A 29.5 29.5 0 0 1 187.5 2250 A 29.5 29.5 0 0 1 158 2279.5 L 88 2279.5  A 29.5 29.5 0 0 1 58.5 2250 Z " stroke-width="1" stroke="#33ab9f" fill="none" />
  </g>
</svg>