<?xml version="1.0" encoding="utf-8"?>
<svg version="1.1" xmlns:xlink="http://www.w3.org/1999/xlink" width="70px" height="30px" xmlns="http://www.w3.org/2000/svg">
  <g transform="matrix(1 0 0 1 -645 -2140 )">
    <path d="M 645.5 2144  A 3.5 3.5 0 0 1 649 2140.5 L 711 2140.5  A 3.5 3.5 0 0 1 714.5 2144 L 714.5 2166  A 3.5 3.5 0 0 1 711 2169.5 L 649 2169.5  A 3.5 3.5 0 0 1 645.5 2166 L 645.5 2144  Z " fill-rule="nonzero" fill="#33ab9f" stroke="none" />
    <path d="M 645.5 2144  A 3.5 3.5 0 0 1 649 2140.5 L 711 2140.5  A 3.5 3.5 0 0 1 714.5 2144 L 714.5 2166  A 3.5 3.5 0 0 1 711 2169.5 L 649 2169.5  A 3.5 3.5 0 0 1 645.5 2166 L 645.5 2144  Z " stroke-width="1" stroke="#33ab9f" fill="none" />
  </g>
</svg>