<svg xmlns="http://www.w3.org/2000/svg" xmlns:xlink="http://www.w3.org/1999/xlink" width="85" height="35" version="1.1"><g><path fill="#33ab9f" fill-rule="nonzero" stroke="none" d="M 469.5 2144 A 3.5 3.5 0 0 1 473 2140.5 L 550 2140.5 A 3.5 3.5 0 0 1 553.5 2144 L 553.5 2171 A 3.5 3.5 0 0 1 550 2174.5 L 473 2174.5 A 3.5 3.5 0 0 1 469.5 2171 L 469.5 2144 Z" transform="matrix(1 0 0 1 -469 -2140 )"/><path fill="none" stroke="#33ab9f" stroke-width="1" d="M 469.5 2144 A 3.5 3.5 0 0 1 473 2140.5 L 550 2140.5 A 3.5 3.5 0 0 1 553.5 2144 L 553.5 2171 A 3.5 3.5 0 0 1 550 2174.5 L 473 2174.5 A 3.5 3.5 0 0 1 469.5 2171 L 469.5 2144 Z" transform="matrix(1 0 0 1 -469 -2140 )"/></g></svg>