<svg xmlns="http://www.w3.org/2000/svg" xmlns:xlink="http://www.w3.org/1999/xlink" width="35" height="35" version="1.1"><g><path fill="#33ab9f" fill-opacity=".8" fill-rule="nonzero" stroke="none" d="M 1091 2144 A 3 3 0 0 1 1094 2141 L 1121 2141 A 3 3 0 0 1 1124 2144 L 1124 2171 A 3 3 0 0 1 1121 2174 L 1094 2174 A 3 3 0 0 1 1091 2171 L 1091 2144 Z" transform="matrix(1 0 0 1 -1090 -2140 )"/><path fill="none" stroke="#33ab9f" stroke-opacity=".8" stroke-width="1" d="M 1090.5 2144 A 3.5 3.5 0 0 1 1094 2140.5 L 1121 2140.5 A 3.5 3.5 0 0 1 1124.5 2144 L 1124.5 2171 A 3.5 3.5 0 0 1 1121 2174.5 L 1094 2174.5 A 3.5 3.5 0 0 1 1090.5 2171 L 1090.5 2144 Z" transform="matrix(1 0 0 1 -1090 -2140 )"/></g></svg>