<?xml version="1.0" encoding="utf-8"?>
<svg version="1.1" xmlns:xlink="http://www.w3.org/1999/xlink" width="30px" height="30px" xmlns="http://www.w3.org/2000/svg">
  <g transform="matrix(1 0 0 1 -1216 -2220 )">
    <path d="M 1217 2235  A 14 14 0 0 1 1231 2221 A 14 14 0 0 1 1245 2235 A 14 14 0 0 1 1231 2249 A 14 14 0 0 1 1217 2235 Z " fill-rule="nonzero" fill="#33ab9f" stroke="none" fill-opacity="0.8" />
    <path d="M 1216.5 2235  A 14.5 14.5 0 0 1 1231 2220.5 A 14.5 14.5 0 0 1 1245.5 2235 A 14.5 14.5 0 0 1 1231 2249.5 A 14.5 14.5 0 0 1 1216.5 2235 Z " stroke-width="1" stroke="#33ab9f" fill="none" stroke-opacity="0.8" />
  </g>
</svg>