<svg xmlns="http://www.w3.org/2000/svg" xmlns:xlink="http://www.w3.org/1999/xlink" width="70" height="30" version="1.1"><g><path fill="#33ab9f" fill-opacity=".8" fill-rule="nonzero" stroke="none" d="M 646 2144 A 3 3 0 0 1 649 2141 L 711 2141 A 3 3 0 0 1 714 2144 L 714 2166 A 3 3 0 0 1 711 2169 L 649 2169 A 3 3 0 0 1 646 2166 L 646 2144 Z" transform="matrix(1 0 0 1 -645 -2140 )"/><path fill="none" stroke="#33ab9f" stroke-opacity=".8" stroke-width="1" d="M 645.5 2144 A 3.5 3.5 0 0 1 649 2140.5 L 711 2140.5 A 3.5 3.5 0 0 1 714.5 2144 L 714.5 2166 A 3.5 3.5 0 0 1 711 2169.5 L 649 2169.5 A 3.5 3.5 0 0 1 645.5 2166 L 645.5 2144 Z" transform="matrix(1 0 0 1 -645 -2140 )"/></g></svg>