<?xml version="1.0" encoding="utf-8"?>
<svg version="1.1" xmlns:xlink="http://www.w3.org/1999/xlink" width="94px" height="38px" xmlns="http://www.w3.org/2000/svg">
  <g transform="matrix(1 0 0 1 -277 -1771 )">
    <path d="M 278 1773  A 1 1 0 0 1 279 1772 L 369 1772  A 1 1 0 0 1 370 1773 L 370 1807  A 1 1 0 0 1 369 1808 L 279 1808  A 1 1 0 0 1 278 1807 L 278 1773  Z " fill-rule="nonzero" fill="#33ab9f" stroke="none" fill-opacity="0.8" />
    <path d="M 277.5 1773  A 1.5 1.5 0 0 1 279 1771.5 L 369 1771.5  A 1.5 1.5 0 0 1 370.5 1773 L 370.5 1807  A 1.5 1.5 0 0 1 369 1808.5 L 279 1808.5  A 1.5 1.5 0 0 1 277.5 1807 L 277.5 1773  Z " stroke-width="1" stroke="#33ab9f" fill="none" stroke-opacity="0.8" />
  </g>
</svg>