<?xml version="1.0" encoding="utf-8"?>
<svg version="1.1" xmlns:xlink="http://www.w3.org/1999/xlink" width="44px" height="44px" xmlns="http://www.w3.org/2000/svg">
  <g transform="matrix(1 0 0 1 -956 -2220 )">
    <path d="M 956.5 2242  A 21.5 21.5 0 0 1 978 2220.5 A 21.5 21.5 0 0 1 999.5 2242 A 21.5 21.5 0 0 1 978 2263.5 A 21.5 21.5 0 0 1 956.5 2242 Z " fill-rule="nonzero" fill="#33ab9f" stroke="none" />
    <path d="M 956.5 2242  A 21.5 21.5 0 0 1 978 2220.5 A 21.5 21.5 0 0 1 999.5 2242 A 21.5 21.5 0 0 1 978 2263.5 A 21.5 21.5 0 0 1 956.5 2242 Z " stroke-width="1" stroke="#33ab9f" fill="none" />
  </g>
</svg>