<?xml version="1.0" encoding="utf-8"?>
<svg version="1.1" xmlns:xlink="http://www.w3.org/1999/xlink" width="30px" height="30px" xmlns="http://www.w3.org/2000/svg">
  <g transform="matrix(1 0 0 1 -1216 -2140 )">
    <path d="M 1216.5 2144  A 3.5 3.5 0 0 1 1220 2140.5 L 1242 2140.5  A 3.5 3.5 0 0 1 1245.5 2144 L 1245.5 2166  A 3.5 3.5 0 0 1 1242 2169.5 L 1220 2169.5  A 3.5 3.5 0 0 1 1216.5 2166 L 1216.5 2144  Z " fill-rule="nonzero" fill="#33ab9f" stroke="none" />
    <path d="M 1216.5 2144  A 3.5 3.5 0 0 1 1220 2140.5 L 1242 2140.5  A 3.5 3.5 0 0 1 1245.5 2144 L 1245.5 2166  A 3.5 3.5 0 0 1 1242 2169.5 L 1220 2169.5  A 3.5 3.5 0 0 1 1216.5 2166 L 1216.5 2144  Z " stroke-width="1" stroke="#33ab9f" fill="none" />
  </g>
</svg>