<?xml version="1.0" encoding="utf-8"?>
<svg version="1.1" xmlns:xlink="http://www.w3.org/1999/xlink" width="130px" height="60px" xmlns="http://www.w3.org/2000/svg">
  <g transform="matrix(1 0 0 1 -58 -2140 )">
    <path d="M 59 2144  A 3 3 0 0 1 62 2141 L 184 2141  A 3 3 0 0 1 187 2144 L 187 2196  A 3 3 0 0 1 184 2199 L 62 2199  A 3 3 0 0 1 59 2196 L 59 2144  Z " fill-rule="nonzero" fill="#33ab9f" stroke="none" fill-opacity="0.8" />
    <path d="M 58.5 2144  A 3.5 3.5 0 0 1 62 2140.5 L 184 2140.5  A 3.5 3.5 0 0 1 187.5 2144 L 187.5 2196  A 3.5 3.5 0 0 1 184 2199.5 L 62 2199.5  A 3.5 3.5 0 0 1 58.5 2196 L 58.5 2144  Z " stroke-width="1" stroke="#33ab9f" fill="none" stroke-opacity="0.8" />
  </g>
</svg>