<?xml version="1.0" encoding="utf-8"?>
<svg version="1.1" xmlns:xlink="http://www.w3.org/1999/xlink" width="35px" height="35px" xmlns="http://www.w3.org/2000/svg">
  <g transform="matrix(1 0 0 1 -1090 -2220 )">
    <path d="M 1091 2237.5  A 16.5 16.5 0 0 1 1107.5 2221 A 16.5 16.5 0 0 1 1124 2237.5 A 16.5 16.5 0 0 1 1107.5 2254 A 16.5 16.5 0 0 1 1091 2237.5 Z " fill-rule="nonzero" fill="#33ab9f" stroke="none" fill-opacity="0.8" />
    <path d="M 1090.5 2237.5  A 17 17 0 0 1 1107.5 2220.5 A 17 17 0 0 1 1124.5 2237.5 A 17 17 0 0 1 1107.5 2254.5 A 17 17 0 0 1 1090.5 2237.5 Z " stroke-width="1" stroke="#33ab9f" fill="none" stroke-opacity="0.8" />
  </g>
</svg>