<svg xmlns="http://www.w3.org/2000/svg" xmlns:xlink="http://www.w3.org/1999/xlink" width="94" height="38" version="1.1"><g><path fill="#33ab9f" fill-rule="nonzero" stroke="none" d="M 277.5 1773 A 1.5 1.5 0 0 1 279 1771.5 L 369 1771.5 A 1.5 1.5 0 0 1 370.5 1773 L 370.5 1807 A 1.5 1.5 0 0 1 369 1808.5 L 279 1808.5 A 1.5 1.5 0 0 1 277.5 1807 L 277.5 1773 Z" transform="matrix(1 0 0 1 -277 -1771 )"/><path fill="none" stroke="#33ab9f" stroke-width="1" d="M 277.5 1773 A 1.5 1.5 0 0 1 279 1771.5 L 369 1771.5 A 1.5 1.5 0 0 1 370.5 1773 L 370.5 1807 A 1.5 1.5 0 0 1 369 1808.5 L 279 1808.5 A 1.5 1.5 0 0 1 277.5 1807 L 277.5 1773 Z" transform="matrix(1 0 0 1 -277 -1771 )"/></g></svg>