<svg xmlns="http://www.w3.org/2000/svg" xmlns:xlink="http://www.w3.org/1999/xlink" width="30" height="30" version="1.1"><g><path fill="#33ab9f" fill-rule="nonzero" stroke="none" d="M 1216.5 2235 A 14.5 14.5 0 0 1 1231 2220.5 A 14.5 14.5 0 0 1 1245.5 2235 A 14.5 14.5 0 0 1 1231 2249.5 A 14.5 14.5 0 0 1 1216.5 2235 Z" transform="matrix(1 0 0 1 -1216 -2220 )"/><path fill="none" stroke="#33ab9f" stroke-width="1" d="M 1216.5 2235 A 14.5 14.5 0 0 1 1231 2220.5 A 14.5 14.5 0 0 1 1245.5 2235 A 14.5 14.5 0 0 1 1231 2249.5 A 14.5 14.5 0 0 1 1216.5 2235 Z" transform="matrix(1 0 0 1 -1216 -2220 )"/></g></svg>