<?xml version="1.0" encoding="utf-8"?>
<svg version="1.1" xmlns:xlink="http://www.w3.org/1999/xlink" width="100px" height="44px" xmlns="http://www.w3.org/2000/svg">
  <g transform="matrix(1 0 0 1 -279 -2140 )">
    <path d="M 280 2144  A 3 3 0 0 1 283 2141 L 375 2141  A 3 3 0 0 1 378 2144 L 378 2180  A 3 3 0 0 1 375 2183 L 283 2183  A 3 3 0 0 1 280 2180 L 280 2144  Z " fill-rule="nonzero" fill="#33ab9f" stroke="none" fill-opacity="0.8" />
    <path d="M 279.5 2144  A 3.5 3.5 0 0 1 283 2140.5 L 375 2140.5  A 3.5 3.5 0 0 1 378.5 2144 L 378.5 2180  A 3.5 3.5 0 0 1 375 2183.5 L 283 2183.5  A 3.5 3.5 0 0 1 279.5 2180 L 279.5 2144  Z " stroke-width="1" stroke="#33ab9f" fill="none" stroke-opacity="0.8" />
  </g>
</svg>