<svg xmlns="http://www.w3.org/2000/svg" xmlns:xlink="http://www.w3.org/1999/xlink" width="44" height="44" version="1.1"><g><path fill="#33ab9f" fill-opacity=".8" fill-rule="nonzero" stroke="none" d="M 957 2242 A 21 21 0 0 1 978 2221 A 21 21 0 0 1 999 2242 A 21 21 0 0 1 978 2263 A 21 21 0 0 1 957 2242 Z" transform="matrix(1 0 0 1 -956 -2220 )"/><path fill="none" stroke="#33ab9f" stroke-opacity=".8" stroke-width="1" d="M 956.5 2242 A 21.5 21.5 0 0 1 978 2220.5 A 21.5 21.5 0 0 1 999.5 2242 A 21.5 21.5 0 0 1 978 2263.5 A 21.5 21.5 0 0 1 956.5 2242 Z" transform="matrix(1 0 0 1 -956 -2220 )"/></g></svg>