<svg xmlns="http://www.w3.org/2000/svg" xmlns:xlink="http://www.w3.org/1999/xlink" width="130" height="60" version="1.1"><g><path fill="#33ab9f" fill-rule="nonzero" stroke="none" d="M 58.5 2144 A 3.5 3.5 0 0 1 62 2140.5 L 184 2140.5 A 3.5 3.5 0 0 1 187.5 2144 L 187.5 2196 A 3.5 3.5 0 0 1 184 2199.5 L 62 2199.5 A 3.5 3.5 0 0 1 58.5 2196 L 58.5 2144 Z" transform="matrix(1 0 0 1 -58 -2140 )"/><path fill="none" stroke="#33ab9f" stroke-width="1" d="M 58.5 2144 A 3.5 3.5 0 0 1 62 2140.5 L 184 2140.5 A 3.5 3.5 0 0 1 187.5 2144 L 187.5 2196 A 3.5 3.5 0 0 1 184 2199.5 L 62 2199.5 A 3.5 3.5 0 0 1 58.5 2196 L 58.5 2144 Z" transform="matrix(1 0 0 1 -58 -2140 )"/></g></svg>