<svg xmlns="http://www.w3.org/2000/svg" xmlns:xlink="http://www.w3.org/1999/xlink" width="60" height="60" version="1.1"><g><path fill="#33ab9f" fill-opacity=".8" fill-rule="nonzero" stroke="none" d="M 806 2250 A 29 29 0 0 1 835 2221 A 29 29 0 0 1 864 2250 A 29 29 0 0 1 835 2279 A 29 29 0 0 1 806 2250 Z" transform="matrix(1 0 0 1 -805 -2220 )"/><path fill="none" stroke="#33ab9f" stroke-opacity=".8" stroke-width="1" d="M 805.5 2250 A 29.5 29.5 0 0 1 835 2220.5 A 29.5 29.5 0 0 1 864.5 2250 A 29.5 29.5 0 0 1 835 2279.5 A 29.5 29.5 0 0 1 805.5 2250 Z" transform="matrix(1 0 0 1 -805 -2220 )"/></g></svg>