<?xml version="1.0" encoding="utf-8"?>
<svg version="1.1" xmlns:xlink="http://www.w3.org/1999/xlink" width="85px" height="35px" xmlns="http://www.w3.org/2000/svg">
  <g transform="matrix(1 0 0 1 -469 -2140 )">
    <path d="M 469.5 2144  A 3.5 3.5 0 0 1 473 2140.5 L 550 2140.5  A 3.5 3.5 0 0 1 553.5 2144 L 553.5 2171  A 3.5 3.5 0 0 1 550 2174.5 L 473 2174.5  A 3.5 3.5 0 0 1 469.5 2171 L 469.5 2144  Z " fill-rule="nonzero" fill="#33ab9f" stroke="none" />
    <path d="M 469.5 2144  A 3.5 3.5 0 0 1 473 2140.5 L 550 2140.5  A 3.5 3.5 0 0 1 553.5 2144 L 553.5 2171  A 3.5 3.5 0 0 1 550 2174.5 L 473 2174.5  A 3.5 3.5 0 0 1 469.5 2171 L 469.5 2144  Z " stroke-width="1" stroke="#33ab9f" fill="none" />
  </g>
</svg>