<svg xmlns="http://www.w3.org/2000/svg" xmlns:xlink="http://www.w3.org/1999/xlink" width="1252" height="470" version="1.1"><defs><mask id="clip2751" fill="#fff"><path fill-rule="evenodd" d="M 1248.99760191847 469.70625 L 2.00159872102318 469.70625 C 0.600479616306956 469.70625 -0.500399680255795 469.06 0.500399680255795 468.2375 L 0.500399680255795 0 L 1251.49960031974 0 L 1251.49960031974 468.2375 C 1251.49960031974 469.06 1250.39872102318 469.70625 1248.99760191847 469.70625 Z"/></mask></defs><g><path fill="#fff" fill-rule="nonzero" stroke="none" d="M 1248.99760191847 469.70625 L 2.00159872102318 469.70625 C 0.600479616306956 469.70625 -0.500399680255795 469.06 0.500399680255795 468.2375 L 0.500399680255795 0 L 1251.49960031974 0 L 1251.49960031974 468.2375 C 1251.49960031974 469.06 1250.39872102318 469.70625 1248.99760191847 469.70625 Z" transform="matrix(1 0 0 1 -24 -471 ) matrix(1 0 0 1 24 471 )"/><path fill="none" stroke="#e4e4e4" stroke-width="2" d="M 1248.99760191847 469.70625 L 2.00159872102318 469.70625 C 0.600479616306956 469.70625 -0.500399680255795 469.06 0.500399680255795 468.2375 L 0.500399680255795 0 L 1251.49960031974 0 L 1251.49960031974 468.2375 C 1251.49960031974 469.06 1250.39872102318 469.70625 1248.99760191847 469.70625 Z" mask="url(#clip2751)" transform="matrix(1 0 0 1 -24 -471 ) matrix(1 0 0 1 24 471 )"/></g></svg>