<?xml version="1.0" encoding="utf-8"?>
<svg version="1.1" xmlns:xlink="http://www.w3.org/1999/xlink" width="207px" height="49px" xmlns="http://www.w3.org/2000/svg">
  <g transform="matrix(1 0 0 1 -989 -801 )">
    <path d="M 989.5 845  C 989.5 845  989.5 813  989.5 813  C 989.5 810.514718625761  991.514718625761 808.5  994 808.5  C 994 808.5  1029.47605197131 808.5  1029.47605197131 808.5  C 1029.47605197131 808.5  1039.00901654452 801.610394334994  1039.00901654452 801.610394334994  C 1039.00901654452 801.610394334994  1049.16063958561 808.5  1049.16063958561 808.5  C 1049.16063958561 808.5  1191 808.5  1191 808.5  C 1193.48528137424 808.5  1195.5 810.514718625761  1195.5 813  C 1195.5 813  1195.5 845  1195.5 845  C 1195.5 847.485281374239  1193.48528137424 849.5  1191 849.5  C 1191 849.5  994 849.5  994 849.5  C 991.514718625761 849.5  989.5 847.485281374239  989.5 845  Z " fill-rule="nonzero" fill="#ffffff" stroke="none" />
    <path d="M 989 845  C 989 845  989 813  989 813  C 989 810.238576250846  991.238576250846 808  994 808  C 994 808  1029.31428571429 808  1029.31428571429 808  C 1029.31428571429 808  1039 801  1039 801  C 1039 801  1049.31428571429 808  1049.31428571429 808  C 1049.31428571429 808  1191 808  1191 808  C 1193.76142374915 808  1196 810.238576250846  1196 813  C 1196 813  1196 845  1196 845  C 1196 847.761423749154  1193.76142374915 850  1191 850  C 1191 850  994 850  994 850  C 991.238576250846 850  989 847.761423749154  989 845  Z M 990 845  C 990 847.209138999323  991.790861000677 849  994 849  C 994 849  1191 849  1191 849  C 1193.20913899932 849  1195 847.209138999323  1195 845  C 1195 845  1195 813  1195 813  C 1195 810.790861000677  1193.20913899932 809  1191 809  C 1191 809  1049.00699345694 809  1049.00699345694 809  C 1049.00699345694 809  1039.01803308905 802.220788669988  1039.01803308905 802.220788669988  C 1039.01803308905 802.220788669988  1029.63781822834 809  1029.63781822834 809  C 1029.63781822834 809  994 809  994 809  C 991.790861000677 809  990 810.790861000677  990 813  C 990 813  990 845  990 845  Z " fill-rule="nonzero" fill="#e4e4e4" stroke="none" />
  </g>
</svg>