<?xml version="1.0" encoding="utf-8"?>
<svg version="1.1" xmlns:xlink="http://www.w3.org/1999/xlink" width="236px" height="68px" xmlns="http://www.w3.org/2000/svg">
  <defs>
    <filter x="-3px" y="-3px" width="236px" height="68px" filterUnits="userSpaceOnUse" id="filter2525">
      <feOffset dx="0" dy="0" in="SourceAlpha" result="shadowOffsetInner" />
      <feGaussianBlur stdDeviation="1.5" in="shadowOffsetInner" result="shadowGaussian" />
      <feComposite in2="shadowGaussian" operator="atop" in="SourceAlpha" result="shadowComposite" />
      <feColorMatrix type="matrix" values="0 0 0 0 0  0 0 0 0 0  0 0 0 0 0  0 0 0 0.349019607843137 0  " in="shadowComposite" />
    </filter>
    <g id="widget2526">
      <path d="M 1 48.6348888373144  C 1 48.6348888373144  1 5  1 5  C 1 2.79086100067683  2.79086100067683 1  5 1  C 5 1  225 1  225 1  C 227.209138999323 1  229 2.79086100067683  229 5  C 229 5  229 48.6348888373143  229 48.6348888373143  C 229 50.8440278366375  227.209138999323 52.6348888373143  225 52.6348888373143  C 225 52.6348888373143  125.757737464917 52.6348888373143  125.757737464917 52.6348888373143  C 125.757737464917 52.6348888373143  114.719922721055 60.3156173750463  114.719922721055 60.3156173750463  C 114.719922721055 60.3156173750463  102.940070011219 52.6348888373143  102.940070011219 52.6348888373143  C 102.940070011219 52.6348888373143  5 52.6348888373143  5 52.6348888373143  C 2.79086100067683 52.6348888373143  1 50.8440278366375  1 48.6348888373144  Z " fill-rule="nonzero" fill="#000000" stroke="none" fill-opacity="0.8" />
    </g>
  </defs>
  <g transform="matrix(1 0 0 1 3 3 )">
    <use xlink:href="#widget2526" filter="url(#filter2525)" />
    <use xlink:href="#widget2526" />
  </g>
</svg>