<?xml version="1.0" encoding="utf-8"?>
<svg version="1.1" xmlns:xlink="http://www.w3.org/1999/xlink" width="250px" height="54px" xmlns="http://www.w3.org/2000/svg">
  <defs>
    <filter x="-3px" y="-3px" width="250px" height="54px" filterUnits="userSpaceOnUse" id="filter2539">
      <feOffset dx="0" dy="0" in="SourceAlpha" result="shadowOffsetInner" />
      <feGaussianBlur stdDeviation="1.5" in="shadowOffsetInner" result="shadowGaussian" />
      <feComposite in2="shadowGaussian" operator="atop" in="SourceAlpha" result="shadowComposite" />
      <feColorMatrix type="matrix" values="0 0 0 0 0  0 0 0 0 0  0 0 0 0 0  0 0 0 0.349019607843137 0  " in="shadowComposite" />
    </filter>
    <g id="widget2540">
      <path d="M 18.7549019607843 42.4893793543935  C 18.7549019607843 42.4893793543935  18.7549019607843 34.1083168304282  18.7549019607843 34.1083168304282  C 18.7549019607843 34.1083168304282  1.04086966681132 24.0174974776379  1.04086966681132 24.0174974776379  C 1.04086966681132 24.0174974776379  18.7549019607843 14.7008915459466  18.7549019607843 14.7008915459466  C 18.7549019607843 14.7008915459466  18.7549019607843 5.0996015936255  18.7549019607843 5.0996015936255  C 18.7549019607843 2.61432021938693  20.7696205865457 0.599601593625498  23.2549019607843 0.599601593625498  C 23.2549019607843 0.599601593625498  238.745098039216 0.599601593625498  238.745098039216 0.599601593625498  C 241.230379413454 0.599601593625498  243.245098039216 2.61432021938693  243.245098039216 5.0996015936255  C 243.245098039216 5.0996015936255  243.245098039216 42.4893793543935  243.245098039216 42.4893793543935  C 243.245098039216 44.9746607286321  241.230379413454 46.9893793543935  238.745098039216 46.9893793543935  C 238.745098039216 46.9893793543935  23.2549019607843 46.9893793543935  23.2549019607843 46.9893793543935  C 20.7696205865457 46.9893793543935  18.7549019607843 44.9746607286321  18.7549019607843 42.4893793543935  Z " fill-rule="nonzero" fill="#ffffff" stroke="none" fill-opacity="0.996078431372549" />
      <path d="M 18.2549019607843 42.4893793543935  C 18.2549019607843 42.4893793543935  18.2549019607843 34.3989263953102  18.2549019607843 34.3989263953102  C 18.2549019607843 34.3989263953102  0 24  0 24  C 0 24  18.2549019607843 14.3989263953102  18.2549019607843 14.3989263953102  C 18.2549019607843 14.3989263953102  18.2549019607843 5.0996015936255  18.2549019607843 5.0996015936255  C 18.2549019607843 2.33817784447153  20.4934782116304 0.099601593625498  23.2549019607843 0.099601593625498  C 23.2549019607843 0.099601593625498  238.745098039216 0.099601593625498  238.745098039216 0.099601593625498  C 241.50652178837 0.099601593625498  243.745098039216 2.33817784447153  243.745098039216 5.0996015936255  C 243.745098039216 5.0996015936255  243.745098039216 42.4893793543935  243.745098039216 42.4893793543935  C 243.745098039216 45.2508031035475  241.50652178837 47.4893793543935  238.745098039216 47.4893793543935  C 238.745098039216 47.4893793543935  23.2549019607843 47.4893793543935  23.2549019607843 47.4893793543935  C 20.4934782116304 47.4893793543935  18.2549019607843 45.2508031035475  18.2549019607843 42.4893793543935  Z M 19.2549019607843 42.4893793543935  C 19.2549019607843 44.6985183537167  21.0457629614611 46.4893793543935  23.2549019607843 46.4893793543935  C 23.2549019607843 46.4893793543935  238.745098039216 46.4893793543935  238.745098039216 46.4893793543935  C 240.954237038539 46.4893793543935  242.745098039216 44.6985183537167  242.745098039216 42.4893793543935  C 242.745098039216 42.4893793543935  242.745098039216 5.0996015936255  242.745098039216 5.0996015936255  C 242.745098039216 2.89046259430232  240.954237038539 1.0996015936255  238.745098039216 1.0996015936255  C 238.745098039216 1.0996015936255  23.2549019607843 1.0996015936255  23.2549019607843 1.0996015936255  C 21.0457629614611 1.0996015936255  19.2549019607843 2.89046259430232  19.2549019607843 5.0996015936255  C 19.2549019607843 5.0996015936255  19.2549019607843 15.0028566965829  19.2549019607843 15.0028566965829  C 19.2549019607843 15.0028566965829  2.08173933362264 24.0349949552758  2.08173933362264 24.0349949552758  C 2.08173933362264 24.0349949552758  19.2549019607843 33.8177072655463  19.2549019607843 33.8177072655463  C 19.2549019607843 33.8177072655463  19.2549019607843 42.4893793543935  19.2549019607843 42.4893793543935  Z " fill-rule="nonzero" fill="#e4e4e4" stroke="none" />
    </g>
  </defs>
  <g transform="matrix(1 0 0 1 3 3 )">
    <use xlink:href="#widget2540" filter="url(#filter2539)" />
    <use xlink:href="#widget2540" />
  </g>
</svg>