<?xml version="1.0" encoding="utf-8"?>
<svg version="1.1" xmlns:xlink="http://www.w3.org/1999/xlink" width="236px" height="76px" xmlns="http://www.w3.org/2000/svg">
  <defs>
    <filter x="-3px" y="-3px" width="236px" height="76px" filterUnits="userSpaceOnUse" id="filter1184">
      <feOffset dx="0" dy="0" in="SourceAlpha" result="shadowOffsetInner" />
      <feGaussianBlur stdDeviation="1.5" in="shadowOffsetInner" result="shadowGaussian" />
      <feComposite in2="shadowGaussian" operator="atop" in="SourceAlpha" result="shadowComposite" />
      <feColorMatrix type="matrix" values="0 0 0 0 0  0 0 0 0 0  0 0 0 0 0  0 0 0 0.349019607843137 0  " in="shadowComposite" />
    </filter>
    <g id="widget1185">
      <path d="M 0.5 64.6348888373144  C 0.5 64.6348888373144  0.5 21  0.5 21  C 0.5 18.5147186257614  2.51471862576143 16.5  5 16.5  C 5 16.5  26.6944555843037 16.5  26.6944555843037 16.5  C 26.6944555843037 16.5  36.9756299835154 0.943712534412649  36.9756299835154 0.943712534412649  C 36.9756299835154 0.943712534412649  46.139814916288 16.5  46.139814916288 16.5  C 46.139814916288 16.5  225 16.5  225 16.5  C 227.485281374239 16.5  229.5 18.5147186257614  229.5 21  C 229.5 21  229.5 64.6348888373144  229.5 64.6348888373144  C 229.5 67.120170211553  227.485281374239 69.1348888373144  225 69.1348888373144  C 225 69.1348888373144  5 69.1348888373144  5 69.1348888373144  C 2.51471862576143 69.1348888373144  0.5 67.120170211553  0.5 64.6348888373144  Z " fill-rule="nonzero" fill="#ffffff" stroke="none" fill-opacity="0.996078431372549" />
      <path d="M 0 64.6348888373144  C 0 64.6348888373144  0 21  0 21  C 0 18.238576250846  2.23857625084603 16  5 16  C 5 16  26.4255753018656 16  26.4255753018656 16  C 26.4255753018656 16  37 0  37 0  C 37 0  46.4255753018656 16  46.4255753018656 16  C 46.4255753018656 16  225 16  225 16  C 227.761423749154 16  230 18.238576250846  230 21  C 230 21  230 64.6348888373144  230 64.6348888373144  C 230 67.3963125864684  227.761423749154 69.6348888373144  225 69.6348888373144  C 225 69.6348888373144  5 69.6348888373144  5 69.6348888373144  C 2.23857625084603 69.6348888373144  0 67.3963125864684  0 64.6348888373144  Z M 1 64.6348888373144  C 1 66.8440278366376  2.79086100067683 68.6348888373144  5 68.6348888373144  C 5 68.6348888373144  225 68.6348888373144  225 68.6348888373144  C 227.209138999323 68.6348888373144  229 66.8440278366376  229 64.6348888373144  C 229 64.6348888373144  229 21  229 21  C 229 18.7908610006768  227.209138999323 17  225 17  C 225 17  45.8540545307103 17  45.8540545307103 17  C 45.8540545307103 17  36.9512599670307 1.8874250688253  36.9512599670307 1.8874250688253  C 36.9512599670307 1.8874250688253  26.9633358667419 17  26.9633358667419 17  C 26.9633358667419 17  5 17  5 17  C 2.79086100067683 17  1 18.7908610006768  1 21  C 1 21  1 64.6348888373144  1 64.6348888373144  Z " fill-rule="nonzero" fill="#e4e4e4" stroke="none" />
    </g>
  </defs>
  <g transform="matrix(1 0 0 1 3 3 )">
    <use xlink:href="#widget1185" filter="url(#filter1184)" />
    <use xlink:href="#widget1185" />
  </g>
</svg>