<?xml version="1.0" encoding="utf-8"?>
<svg version="1.1" xmlns:xlink="http://www.w3.org/1999/xlink" width="236px" height="75px" xmlns="http://www.w3.org/2000/svg">
  <defs>
    <filter x="-3px" y="-18px" width="236px" height="75px" filterUnits="userSpaceOnUse" id="filter1164">
      <feOffset dx="0" dy="0" in="SourceAlpha" result="shadowOffsetInner" />
      <feGaussianBlur stdDeviation="1.5" in="shadowOffsetInner" result="shadowGaussian" />
      <feComposite in2="shadowGaussian" operator="atop" in="SourceAlpha" result="shadowComposite" />
      <feColorMatrix type="matrix" values="0 0 0 0 0  0 0 0 0 0  0 0 0 0 0  0 0 0 0.349019607843137 0  " in="shadowComposite" />
    </filter>
    <g id="widget1165">
      <path d="M 0.999999999999997 48.6348888373144  C 0.999999999999997 48.6348888373144  0.999999999999997 5  0.999999999999997 5  C 0.999999999999997 2.79086100067683  2.79086100067682 0.999999999999998  5 0.999999999999998  C 5 0.999999999999998  26.1977664030283 0.999999999999998  26.1977664030283 0.999999999999998  C 26.1977664030283 0.999999999999998  35.9727176955795 -13.1970180039538  35.9727176955795 -13.1970180039538  C 35.9727176955795 -13.1970180039538  45.1271237416334 0.999999999999998  45.1271237416334 0.999999999999998  C 45.1271237416334 0.999999999999998  225 0.999999999999998  225 0.999999999999998  C 227.209138999323 0.999999999999998  229 2.79086100067683  229 5  C 229 5  229 48.6348888373144  229 48.6348888373144  C 229 50.8440278366376  227.209138999323 52.6348888373144  225 52.6348888373144  C 225 52.6348888373144  5 52.6348888373144  5 52.6348888373144  C 2.79086100067682 52.6348888373144  0.999999999999997 50.8440278366376  0.999999999999997 48.6348888373144  Z " fill-rule="nonzero" fill="#000000" stroke="none" fill-opacity="0.8" />
    </g>
  </defs>
  <g transform="matrix(1 0 0 1 3 18 )">
    <use xlink:href="#widget1165" filter="url(#filter1164)" />
    <use xlink:href="#widget1165" />
  </g>
</svg>