<?xml version="1.0" encoding="utf-8"?>
<svg version="1.1" xmlns:xlink="http://www.w3.org/1999/xlink" width="236px" height="74px" xmlns="http://www.w3.org/2000/svg">
  <defs>
    <filter x="-3px" y="-3px" width="236px" height="74px" filterUnits="userSpaceOnUse" id="filter1161">
      <feOffset dx="0" dy="0" in="SourceAlpha" result="shadowOffsetInner" />
      <feGaussianBlur stdDeviation="1.5" in="shadowOffsetInner" result="shadowGaussian" />
      <feComposite in2="shadowGaussian" operator="atop" in="SourceAlpha" result="shadowComposite" />
      <feColorMatrix type="matrix" values="0 0 0 0 0  0 0 0 0 0  0 0 0 0 0  0 0 0 0.349019607843137 0  " in="shadowComposite" />
    </filter>
    <g id="widget1162">
      <path d="M 1 48.6348888373144  C 1 48.6348888373144  1 5  1 5  C 1 2.79086100067683  2.79086100067683 1  5 1  C 5 1  225 1  225 1  C 227.209138999323 1  229 2.79086100067683  229 5  C 229 5  229 48.6348888373144  229 48.6348888373144  C 229 50.8440278366375  227.209138999323 52.6348888373144  225 52.6348888373144  C 225 52.6348888373144  44.4776900654867 52.6348888373144  44.4776900654867 52.6348888373144  C 44.4776900654867 52.6348888373144  34.9615354223267 66.3049507663443  34.9615354223267 66.3049507663443  C 34.9615354223267 66.3049507663443  24.4937653148508 52.6348888373144  24.4937653148508 52.6348888373144  C 24.4937653148508 52.6348888373144  5 52.6348888373144  5 52.6348888373144  C 2.79086100067683 52.6348888373144  1 50.8440278366375  1 48.6348888373144  Z " fill-rule="nonzero" fill="#000000" stroke="none" fill-opacity="0.8" />
    </g>
  </defs>
  <g transform="matrix(1 0 0 1 3 3 )">
    <use xlink:href="#widget1162" filter="url(#filter1161)" />
    <use xlink:href="#widget1162" />
  </g>
</svg>