<?xml version="1.0" encoding="utf-8"?>
<svg version="1.1" xmlns:xlink="http://www.w3.org/1999/xlink" width="236px" height="74px" xmlns="http://www.w3.org/2000/svg">
  <defs>
    <filter x="-3px" y="-3px" width="236px" height="74px" filterUnits="userSpaceOnUse" id="filter1338">
      <feOffset dx="0" dy="0" in="SourceAlpha" result="shadowOffsetInner" />
      <feGaussianBlur stdDeviation="1.5" in="shadowOffsetInner" result="shadowGaussian" />
      <feComposite in2="shadowGaussian" operator="atop" in="SourceAlpha" result="shadowComposite" />
      <feColorMatrix type="matrix" values="0 0 0 0 0  0 0 0 0 0  0 0 0 0 0  0 0 0 0.349019607843137 0  " in="shadowComposite" />
    </filter>
    <g id="widget1339">
      <path d="M 0.5 48.6348888373144  C 0.5 48.6348888373144  0.5 5  0.5 5  C 0.5 2.51471862576143  2.51471862576143 0.5  5 0.5  C 5 0.5  225 0.5  225 0.5  C 227.485281374239 0.5  229.5 2.51471862576143  229.5 5  C 229.5 5  229.5 48.6348888373144  229.5 48.6348888373144  C 229.5 51.1201702115529  227.485281374239 53.1348888373144  225 53.1348888373144  C 225 53.1348888373144  44.7388450327433 53.1348888373144  44.7388450327433 53.1348888373144  C 44.7388450327433 53.1348888373144  34.9807677111634 67.1524753831722  34.9807677111634 67.1524753831722  C 34.9807677111634 67.1524753831722  24.2468826574253 53.1348888373144  24.2468826574253 53.1348888373144  C 24.2468826574253 53.1348888373144  5 53.1348888373144  5 53.1348888373144  C 2.51471862576143 53.1348888373144  0.5 51.1201702115529  0.5 48.6348888373144  Z " fill-rule="nonzero" fill="#ffffff" stroke="none" fill-opacity="0.996078431372549" />
      <path d="M 0 48.6348888373144  C 0 48.6348888373144  0 5  0 5  C 0 2.23857625084603  2.23857625084603 0  5 0  C 5 0  225 0  225 0  C 227.761423749154 0  230 2.23857625084603  230 5  C 230 5  230 48.6348888373144  230 48.6348888373144  C 230 51.3963125864683  227.761423749154 53.6348888373144  225 53.6348888373144  C 225 53.6348888373144  45 53.6348888373143  45 53.6348888373143  C 45 53.6348888373143  35 68  35 68  C 35 68  24 53.6348888373143  24 53.6348888373143  C 24 53.6348888373143  5 53.6348888373144  5 53.6348888373144  C 2.23857625084603 53.6348888373144  0 51.3963125864683  0 48.6348888373144  Z M 1 48.6348888373144  C 1 50.8440278366375  2.79086100067683 52.6348888373144  5 52.6348888373144  C 5 52.6348888373144  24.4937653148508 52.6348888373144  24.4937653148508 52.6348888373144  C 24.4937653148508 52.6348888373144  34.9615354223267 66.3049507663443  34.9615354223267 66.3049507663443  C 34.9615354223267 66.3049507663443  44.4776900654867 52.6348888373144  44.4776900654867 52.6348888373144  C 44.4776900654867 52.6348888373144  225 52.6348888373144  225 52.6348888373144  C 227.209138999323 52.6348888373144  229 50.8440278366375  229 48.6348888373144  C 229 48.6348888373144  229 5  229 5  C 229 2.79086100067683  227.209138999323 1  225 1  C 225 1  5 1  5 1  C 2.79086100067683 1  1 2.79086100067683  1 5  C 1 5  1 48.6348888373144  1 48.6348888373144  Z " fill-rule="nonzero" fill="#e4e4e4" stroke="none" />
    </g>
  </defs>
  <g transform="matrix(1 0 0 1 3 3 )">
    <use xlink:href="#widget1339" filter="url(#filter1338)" />
    <use xlink:href="#widget1339" />
  </g>
</svg>