<?xml version="1.0" encoding="utf-8"?>
<svg version="1.1" xmlns:xlink="http://www.w3.org/1999/xlink" width="236px" height="70px" xmlns="http://www.w3.org/2000/svg">
  <defs>
    <filter x="-3px" y="-13px" width="236px" height="70px" filterUnits="userSpaceOnUse" id="filter1175">
      <feOffset dx="0" dy="0" in="SourceAlpha" result="shadowOffsetInner" />
      <feGaussianBlur stdDeviation="1.5" in="shadowOffsetInner" result="shadowGaussian" />
      <feComposite in2="shadowGaussian" operator="atop" in="SourceAlpha" result="shadowComposite" />
      <feColorMatrix type="matrix" values="0 0 0 0 0  0 0 0 0 0  0 0 0 0 0  0 0 0 0.349019607843137 0  " in="shadowComposite" />
    </filter>
    <g id="widget1176">
      <path d="M 1 48.6348888373144  C 1 48.6348888373144  1 4.99999999999999  1 4.99999999999999  C 1 2.79086100067681  2.79086100067683 0.999999999999988  5 0.999999999999988  C 5 0.999999999999988  105.215690625533 0.999999999999988  105.215690625533 0.999999999999988  C 105.215690625533 0.999999999999988  114.986355381306 -8.58572062838672  114.986355381306 -8.58572062838672  C 114.986355381306 -8.58572062838672  124.387131882306 0.999999999999988  124.387131882306 0.999999999999988  C 124.387131882306 0.999999999999988  225 0.999999999999988  225 0.999999999999988  C 227.209138999323 0.999999999999988  229 2.79086100067681  229 4.99999999999999  C 229 4.99999999999999  229 48.6348888373144  229 48.6348888373144  C 229 50.8440278366376  227.209138999323 52.6348888373144  225 52.6348888373144  C 225 52.6348888373144  5 52.6348888373144  5 52.6348888373144  C 2.79086100067683 52.6348888373144  1 50.8440278366376  1 48.6348888373144  Z " fill-rule="nonzero" fill="#000000" stroke="none" fill-opacity="0.8" />
    </g>
  </defs>
  <g transform="matrix(1 0 0 1 3 13 )">
    <use xlink:href="#widget1176" filter="url(#filter1175)" />
    <use xlink:href="#widget1176" />
  </g>
</svg>