<?xml version="1.0" encoding="utf-8"?>
<svg version="1.1" xmlns:xlink="http://www.w3.org/1999/xlink" width="250px" height="54px" xmlns="http://www.w3.org/2000/svg">
  <defs>
    <filter x="-3px" y="-3px" width="250px" height="54px" filterUnits="userSpaceOnUse" id="filter1243">
      <feOffset dx="0" dy="0" in="SourceAlpha" result="shadowOffsetInner" />
      <feGaussianBlur stdDeviation="1.5" in="shadowOffsetInner" result="shadowGaussian" />
      <feComposite in2="shadowGaussian" operator="atop" in="SourceAlpha" result="shadowComposite" />
      <feColorMatrix type="matrix" values="0 0 0 0 0  0 0 0 0 0  0 0 0 0 0  0 0 0 0.349019607843137 0  " in="shadowComposite" />
    </filter>
    <g id="widget1244">
      <path d="M 19.2549019607843 42.4893793543935  C 19.2549019607843 42.4893793543935  19.2549019607843 33.8177072655463  19.2549019607843 33.8177072655463  C 19.2549019607843 33.8177072655463  2.08173933362264 24.0349949552758  2.08173933362264 24.0349949552758  C 2.08173933362264 24.0349949552758  19.2549019607843 15.0028566965829  19.2549019607843 15.0028566965829  C 19.2549019607843 15.0028566965829  19.2549019607843 5.0996015936255  19.2549019607843 5.0996015936255  C 19.2549019607843 2.89046259430232  21.0457629614611 1.0996015936255  23.2549019607843 1.0996015936255  C 23.2549019607843 1.0996015936255  238.745098039216 1.0996015936255  238.745098039216 1.0996015936255  C 240.954237038539 1.0996015936255  242.745098039216 2.89046259430232  242.745098039216 5.0996015936255  C 242.745098039216 5.0996015936255  242.745098039216 42.4893793543935  242.745098039216 42.4893793543935  C 242.745098039216 44.6985183537167  240.954237038539 46.4893793543935  238.745098039216 46.4893793543935  C 238.745098039216 46.4893793543935  23.2549019607843 46.4893793543935  23.2549019607843 46.4893793543935  C 21.0457629614611 46.4893793543935  19.2549019607843 44.6985183537167  19.2549019607843 42.4893793543935  Z " fill-rule="nonzero" fill="#000000" stroke="none" fill-opacity="0.8" />
    </g>
  </defs>
  <g transform="matrix(1 0 0 1 3 3 )">
    <use xlink:href="#widget1244" filter="url(#filter1243)" />
    <use xlink:href="#widget1244" />
  </g>
</svg>