<?xml version="1.0" encoding="utf-8"?>
<svg version="1.1" xmlns:xlink="http://www.w3.org/1999/xlink" width="236px" height="68px" xmlns="http://www.w3.org/2000/svg">
  <defs>
    <filter x="-3px" y="-3px" width="236px" height="68px" filterUnits="userSpaceOnUse" id="filter1171">
      <feOffset dx="0" dy="0" in="SourceAlpha" result="shadowOffsetInner" />
      <feGaussianBlur stdDeviation="1.5" in="shadowOffsetInner" result="shadowGaussian" />
      <feComposite in2="shadowGaussian" operator="atop" in="SourceAlpha" result="shadowComposite" />
      <feColorMatrix type="matrix" values="0 0 0 0 0  0 0 0 0 0  0 0 0 0 0  0 0 0 0.349019607843137 0  " in="shadowComposite" />
    </filter>
    <g id="widget1172">
      <path d="M 0.5 48.6348888373143  C 0.5 48.6348888373143  0.5 5  0.5 5  C 0.5 2.51471862576143  2.51471862576143 0.5  5 0.5  C 5 0.5  225 0.5  225 0.5  C 227.485281374239 0.5  229.5 2.51471862576143  229.5 5  C 229.5 5  229.5 48.6348888373143  229.5 48.6348888373143  C 229.5 51.1201702115529  227.485281374239 53.1348888373143  225 53.1348888373143  C 225 53.1348888373143  125.914583018173 53.1348888373143  125.914583018173 53.1348888373143  C 125.914583018173 53.1348888373143  114.729008979575 60.9184365524042  114.729008979575 60.9184365524042  C 114.729008979575 60.9184365524042  102.791463577039 53.1348888373143  102.791463577039 53.1348888373143  C 102.791463577039 53.1348888373143  5 53.1348888373143  5 53.1348888373143  C 2.51471862576143 53.1348888373143  0.5 51.1201702115529  0.5 48.6348888373143  Z " fill-rule="nonzero" fill="#ffffff" stroke="none" fill-opacity="0.968627450980392" />
      <path d="M 0 48.6348888373143  C 0 48.6348888373143  0 5  0 5  C 0 2.23857625084603  2.23857625084603 0  5 0  C 5 0  225 0  225 0  C 227.761423749154 0  230 2.23857625084603  230 5  C 230 5  230 48.6348888373143  230 48.6348888373143  C 230 51.3963125864683  227.761423749154 53.6348888373143  225 53.6348888373143  C 225 53.6348888373143  126.071428571429 53.6348888373143  126.071428571429 53.6348888373143  C 126.071428571429 53.6348888373143  114.738095238095 61.521255729762  114.738095238095 61.521255729762  C 114.738095238095 61.521255729762  102.642857142857 53.6348888373143  102.642857142857 53.6348888373143  C 102.642857142857 53.6348888373143  5 53.6348888373143  5 53.6348888373143  C 2.23857625084603 53.6348888373143  0 51.3963125864683  0 48.6348888373143  Z M 1 48.6348888373144  C 1 50.8440278366375  2.79086100067683 52.6348888373143  5 52.6348888373143  C 5 52.6348888373143  102.940070011219 52.6348888373143  102.940070011219 52.6348888373143  C 102.940070011219 52.6348888373143  114.719922721055 60.3156173750463  114.719922721055 60.3156173750463  C 114.719922721055 60.3156173750463  125.757737464917 52.6348888373143  125.757737464917 52.6348888373143  C 125.757737464917 52.6348888373143  225 52.6348888373143  225 52.6348888373143  C 227.209138999323 52.6348888373143  229 50.8440278366375  229 48.6348888373143  C 229 48.6348888373143  229 5  229 5  C 229 2.79086100067683  227.209138999323 1  225 1  C 225 1  5 1  5 1  C 2.79086100067683 1  1 2.79086100067683  1 5  C 1 5  1 48.6348888373144  1 48.6348888373144  Z " fill-rule="nonzero" fill="#e4e4e4" stroke="none" />
    </g>
  </defs>
  <g transform="matrix(1 0 0 1 3 3 )">
    <use xlink:href="#widget1172" filter="url(#filter1171)" />
    <use xlink:href="#widget1172" />
  </g>
</svg>