<svg xmlns="http://www.w3.org/2000/svg" xmlns:xlink="http://www.w3.org/1999/xlink" width="236" height="74" version="1.1"><defs><filter id="filter2708" width="236" height="74" x="-3" y="-3" filterUnits="userSpaceOnUse"><feOffset dx="0" dy="0" in="SourceAlpha" result="shadowOffsetInner"/><feGaussianBlur in="shadowOffsetInner" result="shadowGaussian" stdDeviation="1.5"/><feComposite in="SourceAlpha" in2="shadowGaussian" operator="atop" result="shadowComposite"/><feColorMatrix in="shadowComposite" type="matrix" values="0 0 0 0 0 0 0 0 0 0 0 0 0 0 0 0 0 0 0.349019607843137 0"/></filter><g id="widget2709"><path fill="#000" fill-opacity=".8" fill-rule="nonzero" stroke="none" d="M 1 48.6348888373144 C 1 48.6348888373144 1 5 1 5 C 1 2.79086100067683 2.79086100067683 1 5 1 C 5 1 225 1 225 1 C 227.209138999323 1 229 2.79086100067683 229 5 C 229 5 229 48.6348888373144 229 48.6348888373144 C 229 50.8440278366375 227.209138999323 52.6348888373144 225 52.6348888373144 C 225 52.6348888373144 44.4776900654867 52.6348888373144 44.4776900654867 52.6348888373144 C 44.4776900654867 52.6348888373144 34.9615354223267 66.3049507663443 34.9615354223267 66.3049507663443 C 34.9615354223267 66.3049507663443 24.4937653148508 52.6348888373144 24.4937653148508 52.6348888373144 C 24.4937653148508 52.6348888373144 5 52.6348888373144 5 52.6348888373144 C 2.79086100067683 52.6348888373144 1 50.8440278366375 1 48.6348888373144 Z"/></g></defs><g transform="matrix(1 0 0 1 3 3 )"><use filter="url(#filter2708)" xlink:href="#widget2709"/><use xlink:href="#widget2709"/></g></svg>