<svg xmlns="http://www.w3.org/2000/svg" xmlns:xlink="http://www.w3.org/1999/xlink" width="236" height="75" version="1.1"><defs><filter id="filter2724" width="236" height="75" x="-3" y="-18" filterUnits="userSpaceOnUse"><feOffset dx="0" dy="0" in="SourceAlpha" result="shadowOffsetInner"/><feGaussianBlur in="shadowOffsetInner" result="shadowGaussian" stdDeviation="1.5"/><feComposite in="SourceAlpha" in2="shadowGaussian" operator="atop" result="shadowComposite"/><feColorMatrix in="shadowComposite" type="matrix" values="0 0 0 0 0 0 0 0 0 0 0 0 0 0 0 0 0 0 0.349019607843137 0"/></filter><g id="widget2725"><path fill="#000" fill-opacity=".8" fill-rule="nonzero" stroke="none" d="M 0.999999999999997 48.6348888373144 C 0.999999999999997 48.6348888373144 0.999999999999997 5 0.999999999999997 5 C 0.999999999999997 2.79086100067683 2.79086100067682 0.999999999999998 5 0.999999999999998 C 5 0.999999999999998 26.1977664030283 0.999999999999998 26.1977664030283 0.999999999999998 C 26.1977664030283 0.999999999999998 35.9727176955795 -13.1970180039538 35.9727176955795 -13.1970180039538 C 35.9727176955795 -13.1970180039538 45.1271237416334 0.999999999999998 45.1271237416334 0.999999999999998 C 45.1271237416334 0.999999999999998 225 0.999999999999998 225 0.999999999999998 C 227.209138999323 0.999999999999998 229 2.79086100067683 229 5 C 229 5 229 48.6348888373144 229 48.6348888373144 C 229 50.8440278366376 227.209138999323 52.6348888373144 225 52.6348888373144 C 225 52.6348888373144 5 52.6348888373144 5 52.6348888373144 C 2.79086100067682 52.6348888373144 0.999999999999997 50.8440278366376 0.999999999999997 48.6348888373144 Z"/></g></defs><g transform="matrix(1 0 0 1 3 18 )"><use filter="url(#filter2724)" xlink:href="#widget2725"/><use xlink:href="#widget2725"/></g></svg>