<svg xmlns="http://www.w3.org/2000/svg" xmlns:xlink="http://www.w3.org/1999/xlink" width="236" height="68" version="1.1"><defs><filter id="filter2706" width="236" height="68" x="-3" y="-3" filterUnits="userSpaceOnUse"><feOffset dx="0" dy="0" in="SourceAlpha" result="shadowOffsetInner"/><feGaussianBlur in="shadowOffsetInner" result="shadowGaussian" stdDeviation="1.5"/><feComposite in="SourceAlpha" in2="shadowGaussian" operator="atop" result="shadowComposite"/><feColorMatrix in="shadowComposite" type="matrix" values="0 0 0 0 0 0 0 0 0 0 0 0 0 0 0 0 0 0 0.349019607843137 0"/></filter><g id="widget2707"><path fill="#000" fill-opacity=".8" fill-rule="nonzero" stroke="none" d="M 1 48.6348888373144 C 1 48.6348888373144 1 5 1 5 C 1 2.79086100067683 2.79086100067683 1 5 1 C 5 1 225 1 225 1 C 227.209138999323 1 229 2.79086100067683 229 5 C 229 5 229 48.6348888373143 229 48.6348888373143 C 229 50.8440278366375 227.209138999323 52.6348888373143 225 52.6348888373143 C 225 52.6348888373143 125.757737464917 52.6348888373143 125.757737464917 52.6348888373143 C 125.757737464917 52.6348888373143 114.719922721055 60.3156173750463 114.719922721055 60.3156173750463 C 114.719922721055 60.3156173750463 102.940070011219 52.6348888373143 102.940070011219 52.6348888373143 C 102.940070011219 52.6348888373143 5 52.6348888373143 5 52.6348888373143 C 2.79086100067683 52.6348888373143 1 50.8440278366375 1 48.6348888373144 Z"/></g></defs><g transform="matrix(1 0 0 1 3 3 )"><use filter="url(#filter2706)" xlink:href="#widget2707"/><use xlink:href="#widget2707"/></g></svg>