<svg xmlns="http://www.w3.org/2000/svg" xmlns:xlink="http://www.w3.org/1999/xlink" width="236" height="72" version="1.1"><defs><filter id="filter2726" width="236" height="72" x="-3" y="-3" filterUnits="userSpaceOnUse"><feOffset dx="0" dy="0" in="SourceAlpha" result="shadowOffsetInner"/><feGaussianBlur in="shadowOffsetInner" result="shadowGaussian" stdDeviation="1.5"/><feComposite in="SourceAlpha" in2="shadowGaussian" operator="atop" result="shadowComposite"/><feColorMatrix in="shadowComposite" type="matrix" values="0 0 0 0 0 0 0 0 0 0 0 0 0 0 0 0 0 0 0.349019607843137 0"/></filter><g id="widget2727"><path fill="#fff" fill-opacity=".969" fill-rule="nonzero" stroke="none" d="M 0.5 60.6348888373143 C 0.5 60.6348888373143 0.5 17 0.5 17 C 0.5 14.5147186257614 2.51471862576143 12.5 5 12.5 C 5 12.5 104.300466063623 12.5 104.300466063623 12.5 C 104.300466063623 12.5 114.002508130603 0.781028994730161 114.002508130603 0.781028994730161 C 114.002508130603 0.781028994730161 123.832084405739 12.5 123.832084405739 12.5 C 123.832084405739 12.5 225 12.5 225 12.5 C 227.485281374239 12.5 229.5 14.5147186257614 229.5 17 C 229.5 17 229.5 60.6348888373143 229.5 60.6348888373143 C 229.5 63.1201702115529 227.485281374239 65.1348888373143 225 65.1348888373143 C 225 65.1348888373143 5 65.1348888373143 5 65.1348888373143 C 2.51471862576143 65.1348888373143 0.5 63.1201702115529 0.5 60.6348888373143 Z"/><path fill="#e4e4e4" fill-rule="nonzero" stroke="none" d="M 0 60.6348888373143 C 0 60.6348888373143 0 17 0 17 C 0 14.238576250846 2.23857625084603 12 5 12 C 5 12 104.065296283145 12 104.065296283145 12 C 104.065296283145 12 114 0 114 0 C 114 0 124.065296283145 12 124.065296283145 12 C 124.065296283145 12 225 12 225 12 C 227.761423749154 12 230 14.238576250846 230 17 C 230 17 230 60.6348888373143 230 60.6348888373143 C 230 63.3963125864683 227.761423749154 65.6348888373143 225 65.6348888373143 C 225 65.6348888373143 5 65.6348888373143 5 65.6348888373143 C 2.23857625084603 65.6348888373143 0 63.3963125864683 0 60.6348888373143 Z M 1 60.6348888373143 C 1 62.8440278366375 2.79086100067683 64.6348888373143 5 64.6348888373143 C 5 64.6348888373143 225 64.6348888373143 225 64.6348888373143 C 227.209138999323 64.6348888373143 229 62.8440278366375 229 60.6348888373143 C 229 60.6348888373143 229 17 229 17 C 229 14.7908610006768 227.209138999323 13 225 13 C 225 13 123.598872528333 13 123.598872528333 13 C 123.598872528333 13 114.005016261207 1.56205798946032 114.005016261207 1.56205798946032 C 114.005016261207 1.56205798946032 104.5356358441 13 104.5356358441 13 C 104.5356358441 13 5 13 5 13 C 2.79086100067683 13 1 14.7908610006768 1 17 C 1 17 1 60.6348888373143 1 60.6348888373143 Z"/></g></defs><g transform="matrix(1 0 0 1 3 3 )"><use filter="url(#filter2726)" xlink:href="#widget2727"/><use xlink:href="#widget2727"/></g></svg>