<svg xmlns="http://www.w3.org/2000/svg" xmlns:xlink="http://www.w3.org/1999/xlink" width="236" height="70" version="1.1"><defs><filter id="filter2722" width="236" height="70" x="-3" y="-13" filterUnits="userSpaceOnUse"><feOffset dx="0" dy="0" in="SourceAlpha" result="shadowOffsetInner"/><feGaussianBlur in="shadowOffsetInner" result="shadowGaussian" stdDeviation="1.5"/><feComposite in="SourceAlpha" in2="shadowGaussian" operator="atop" result="shadowComposite"/><feColorMatrix in="shadowComposite" type="matrix" values="0 0 0 0 0 0 0 0 0 0 0 0 0 0 0 0 0 0 0.349019607843137 0"/></filter><g id="widget2723"><path fill="#000" fill-opacity=".8" fill-rule="nonzero" stroke="none" d="M 1 48.6348888373144 C 1 48.6348888373144 1 4.99999999999999 1 4.99999999999999 C 1 2.79086100067681 2.79086100067683 0.999999999999988 5 0.999999999999988 C 5 0.999999999999988 105.215690625533 0.999999999999988 105.215690625533 0.999999999999988 C 105.215690625533 0.999999999999988 114.986355381306 -8.58572062838672 114.986355381306 -8.58572062838672 C 114.986355381306 -8.58572062838672 124.387131882306 0.999999999999988 124.387131882306 0.999999999999988 C 124.387131882306 0.999999999999988 225 0.999999999999988 225 0.999999999999988 C 227.209138999323 0.999999999999988 229 2.79086100067681 229 4.99999999999999 C 229 4.99999999999999 229 48.6348888373144 229 48.6348888373144 C 229 50.8440278366376 227.209138999323 52.6348888373144 225 52.6348888373144 C 225 52.6348888373144 5 52.6348888373144 5 52.6348888373144 C 2.79086100067683 52.6348888373144 1 50.8440278366376 1 48.6348888373144 Z"/></g></defs><g transform="matrix(1 0 0 1 3 13 )"><use filter="url(#filter2722)" xlink:href="#widget2723"/><use xlink:href="#widget2723"/></g></svg>