<svg xmlns="http://www.w3.org/2000/svg" xmlns:xlink="http://www.w3.org/1999/xlink" width="30" height="30" version="1.1"><g><path fill="#ccc" fill-rule="nonzero" stroke="none" d="M 10 10 L 40 10 L 40 40 L 10 40 L 10 10" transform="matrix(1 0 0 1 -10 -10 )"/><path fill="#fff" fill-rule="nonzero" stroke="none" d="M 12 12 L 38 12 L 38 38 L 12 38 L 12 12" transform="matrix(1 0 0 1 -10 -10 )"/><path fill="#ccc" fill-rule="nonzero" stroke="none" d="M 27.85 19 C 26.59 19 25.6 18.01 25.6 16.75 C 25.6 15.49 26.59 14.5 27.85 14.5 C 29.11 14.5 30.1 15.49 30.1 16.75 C 30.1 18.01 29.11 19 27.85 19" transform="matrix(1 0 0 1 -10 -10 )"/><path fill="#169bd5" fill-rule="nonzero" stroke="none" d="M 13 37 L 13 23.8 L 19 17.8 L 27.4 22.6 L 32.2 21.4 L 37 22.6 L 37 37 L 13 37" transform="matrix(1 0 0 1 -10 -10 )"/></g></svg>