<?xml version="1.0" encoding="utf-8"?>
<svg version="1.1" xmlns:xlink="http://www.w3.org/1999/xlink" width="30px" height="30px" xmlns="http://www.w3.org/2000/svg">
  <g transform="matrix(1 0 0 1 -10 -10 )">
    <path d="M 10 10  L 40 10  L 40 40  L 10 40  L 10 10  " fill-rule="nonzero" fill="#cccccc" stroke="none" />
    <path d="M 12 12  L 38 12  L 38 38  L 12 38  L 12 12  " fill-rule="nonzero" fill="#ffffff" stroke="none" />
    <path d="M 27.85 19  C 26.59 19  25.6 18.01  25.6 16.75  C 25.6 15.49  26.59 14.5  27.85 14.5  C 29.11 14.5  30.1 15.49  30.1 16.75  C 30.1 18.01  29.11 19  27.85 19  " fill-rule="nonzero" fill="#cccccc" stroke="none" />
    <path d="M 13 37  L 13 23.8  L 19 17.8  L 27.4 22.6  L 32.2 21.4  L 37 22.6  L 37 37  L 13 37  " fill-rule="nonzero" fill="#169bd5" stroke="none" />
  </g>
</svg>