<?xml version="1.0" encoding="utf-8"?>
<svg version="1.1" xmlns:xlink="http://www.w3.org/1999/xlink" width="23px" height="18px" xmlns="http://www.w3.org/2000/svg">
  <defs>
    <linearGradient gradientUnits="userSpaceOnUse" x1="11.5" y1="18" x2="11.5" y2="0" id="LinearGradient1">
      <stop id="Stop2" stop-color="#ffa028" offset="0" />
      <stop id="Stop3" stop-color="#ff1610" offset="1" />
    </linearGradient>
  </defs>
  <g transform="matrix(1 0 0 1 -1002 -238 )">
    <path d="M 16.7312475121628 9.01082059151787  L 16.7313174480319 9.01305803571428  C 16.4739845324095 8.96306584821432  16.3069077411667 8.88832617187508  16.2300870743034 8.78883900669639  C 16.1532664074402 8.68935184151796  16.1403748955723 8.59785770089288  16.1914125386997 8.51435658482145  L 16.2687616099071 8.38987332589287  C 16.2857637967468 8.37339006696421  16.3030457270628 8.34839397321433  16.320607400855 8.31488504464286  C 16.3381690746474 8.28137611607139  16.3724687331073 8.21062918526781  16.4235063762347 8.10264425223214  C 16.4745440193622 7.99465931919649  16.513226325618 7.88667438616066  16.5395532950023 7.77868945312499  C 16.5658802643865 7.67070452008934  16.5872728696742 7.53772349330361  16.6037311108654 7.37974637276793  C 16.6201893520566 7.22176925223212  16.6158067042606 7.07202622767867  16.5905831674775 6.93051729910712  C 16.5653596306945 6.78900837053561  16.5137780419185 6.63527260044652  16.43583840115 6.46930998883935  C 16.3578987603814 6.30334737723215  16.2506249078579 6.15360435267853  16.1140168435795 6.02008091517851  C 15.8737016561011 5.78710044642863  15.5606687060789 5.637357421875  15.1749179935132 5.57085184151793  C 14.7891672809475 5.50434626116066  14.4034243390339 5.50009737723204  14.0176891677724 5.55810518973212  C 13.6319539965109 5.61611300223217  13.2676269718414 5.69085267857144  12.9247080937638 5.78232421875  C 12.5817892156863 5.87379575892856  12.2989374785002 5.96104101562505  12.0761528822055 6.04405998883935  L 11.7419992997199 6.19408175223207  C 11.5702678878569 6.2440739397322  11.4287021475258 6.27732672991077  11.3173020787262 6.29384012276786  C 11.2059020099269 6.31035351562495  11.1200363039953 6.30610463169651  11.0597049609317 6.28109347098207  C 10.9993736178682 6.25608231026777  10.9521824475405 6.23108621651787  10.9181314499483 6.20610518973217  C 10.8840804523564 6.18112416294644  10.8711889404885 6.1228752790179  10.8794569143447 6.03135853794637  C 10.8877248882008 5.939841796875  10.8962259816207 5.86085323660719  10.9049601946042 5.79439285714288  C 10.9136944075876 5.7279324776786  10.9350870128753 5.62393275669648  10.9691380104674 5.48239369419639  C 11.0031890080594 5.34085463169636  11.0289720317952 5.22861328125  11.0464870816748 5.14566964285719  C 11.0464870816748 4.94619810267854  11.0335955698068 4.75922460937508  11.0078125460711 4.58474916294636  C 10.9820295223352 4.41027371651785  10.9263372585877 4.2150510602678  10.8407357548283 3.99908119419647  C 10.7551342510689 3.783111328125  10.6308504410537 3.60862834821432  10.4678843247825 3.47563225446424  C 10.3049182085115 3.34263616071426  10.0991513403607 3.23465122767861  9.85058372033019 3.15167745535706  C 9.60201610029979 3.06870368303566  9.28047428620573 3.04370758928576  8.88595827804813 3.07668917410715  C 8.49144226989043 3.1096707589286  8.0456244164333 3.20940652901787  7.5485047176766 3.37589648437489  C 6.94823738267237 3.57536802455356  6.33946895424833 3.87033398437494  5.72219943240452 4.26079436383921  C 5.10492991056072 4.65125474330358  4.56913567620032 5.05845452008931  4.11481672932333 5.48239369419639  C 3.66049778244629 5.90633286830353  3.24458916900095 6.31779659598223  2.86709088898715 6.7167848772322  C 2.48959260897344 7.11577315848217  2.19796003489112 7.43999916294648  1.99219316674042 7.6894628906251  L 1.70906945673012 8.0884059709821  C 1.14336598235784 8.80334849330361  0.723346693940749 9.51828348214295  0.449011591478695 10.2332109375  C 0.174676489016691 10.9481383928571  0.0460100312054514 11.488341796875  0.063012218045129 11.8538211495535  L 0.063012218045129 12.3772700892858  C 0.166175395596878 13.1751863839286  0.419117892771136 13.8901213727678  0.821839709568106 14.5220750558035  C 1.22456152636497 15.1540287388392  1.70467126762984 15.6652282366072  2.26216893336285 16.0556735491072  C 2.81966659909575 16.4461188616071  3.47562619784758 16.7785864955358  4.23004772961821 17.0530764508929  C 4.98446926138875 17.3275664062499  5.70902040640821 17.5270530133929  6.40370116467644 17.6515362723214  C 7.09838192294462 17.77601953125  7.83144193203595 17.8632647879465  8.60288119195049 17.9132720424107  C 9.87201517887859 18.0132865513394  11.188052822006 17.9177996651787  12.5509941213327 17.6268113839285  C 13.9139354206595 17.3358231026785  15.1827974347634 16.832865234375  16.3575801636445 16.1179377790178  C 17.5323628925255 15.4030103236607  18.3597897009681 14.5468376116071  18.8398605889725 13.5494196428571  C 19.1312134195784 12.9674732142858  19.2812880239815 12.4187645089286  19.2900844021819 11.9032935267857  C 19.2988807803823 11.3878225446429  19.2088888581749 10.9681171875  19.0201086355595 10.6441774553572  C 18.8313284129441 10.3202377232142  18.5868870091897 10.0335133928571  18.286784424296 9.78400446428568  C 17.9866818394025 9.53449553571435  17.7038301022163 9.35150725446424  17.4382292127378 9.23503962053577  C 17.1726283232591 9.11857198660713  16.9369677564008 9.04383231026786  16.7312475121628 9.01082059151787  Z M 8.88770667477517 16.7672260044644  L 8.88689075630258 16.7680622209822  C 7.03505110816257 16.8510510602678  5.46193698093273 16.5018289620536  4.16754837461302 15.7203959263393  C 2.87315976829331 14.9389628906249  2.22598100643767 13.9498091517857  2.22601208904617 12.7529347098214  C 2.22601208904617 11.57255859375  2.86908017593006 10.5544084821428  4.15521634969779 9.69848437499995  C 5.44135252346557 8.8425602678572  7.01884929849136 8.37284765624995  8.88770667477517 8.28934654017853  C 10.7565640510591 8.20584542410707  12.3340608260848 8.5050602678571  13.6201969998526 9.18699107142861  C 14.9063331736203 9.86892187500006  15.5494012605042 10.7998267299107  15.5494012605042 11.9797056361606  C 15.5494012605042 13.1765951450893  14.8934416617524 14.252994140625  13.5815224642488 15.2089026227679  C 12.2696032667453 16.1648111049108  10.7049980035874 16.6842522321428  8.88770667477517 16.7672260044644  Z M 8.14041860165121 9.85967075892867  L 8.1412345201238 9.86043917410707  C 7.64413036267137 9.9104313616072  7.1983125092142 10.0226727120536  6.80378095975233 10.1971632254465  C 6.40924941029046 10.3716537388392  6.1006146493685 10.5711403459822  5.87787667698662 10.7956230468751  C 5.65513870460464 11.0201057477678  5.46638956459778 11.2610717075892  5.31162925696597 11.5185209263393  C 5.1568689493341 11.7759701450892  5.04959509681065 12.0294416852679  4.98980769939554 12.278935546875  C 4.93002030198042 12.5284294084822  4.89133799572461 12.7568973214286  4.87376078062801 12.9643392857143  C 4.85618356553147 13.17178125  4.84768247211166 13.3337586495536  4.84825750036858 13.450271484375  L 4.87376078062801 13.6497656250001  L 4.87376078062801 13.7495239955357  C 4.87376078062801 13.7995161830357  4.89104271094402 13.899251953125  4.92560657157602 14.0487313058036  C 4.96017043220797 14.1982106584822  5.00736160253575 14.3354556361608  5.06718008255936 14.4604662388394  C 5.12699856258297 14.5854768415178  5.22549157821022 14.7227218191965  5.36265912944128 14.872201171875  C 5.49982668067228 15.0216805245536  5.66279279694337 15.1464199218751  5.85155747825449 15.2464193638393  C 6.98352391395159 15.7783736049108  8.03811019583271 15.9403510044644  9.01531632389799 15.7323515625  C 9.99252245196328 15.5243521205356  10.7812669541501 15.0464054129464  11.3815498304585 14.2985114397321  C 11.621865017937 14.0160510602679  11.78044071576 13.6668289620535  11.8572769239275 13.2508451450893  C 11.934113132095 12.8348613281249  11.916831201779 12.4151559709822  11.8054311329795 11.9917290736608  C 11.6940310641801 11.5683021763393  11.5011712492014 11.1818420758928  11.2268516880437 10.8323487723213  C 10.9525321268859 10.48285546875  10.5453965796845 10.2126219308035  10.0054450464396 10.0216481584821  C 9.46549351319474 9.83067438616081  8.8438180315986 9.7766819196429  8.14041860165121 9.85967075892867  Z M 7.21612284387441 14.5722480468749  L 7.21528361344544 14.5737848772321  C 7.11212043589369 14.5902681361606  7.01362742026638 14.5945170200892  6.91980456656347 14.5865315290179  C 6.8259817128606 14.5785460379464  6.74011600692908 14.5617915736607  6.66220744876904 14.5362681361608  C 6.58429889060884 14.5107446986607  6.50720625092139 14.4817633928572  6.43092952970664 14.44932421875  C 6.35465280849183 14.4168850446429  6.29045945132442 14.3711342075894  6.23834945820436 14.3120717075892  C 6.18623946508426 14.2530092075893  6.13904829475648 14.1947603236606  6.09677594722102 14.1373250558036  C 6.05450359968547 14.0798897879465  6.02020394122562 14.0133917410713  5.99387697184138 13.9378309151786  C 5.96755000245714 13.8622700892858  5.95465849058925 13.7832815290178  5.95520243623768 13.700865234375  C 5.95520243623768 13.5178769531249  6.00678402501353 13.3391450892857  6.10994720256528 13.1646696428572  C 6.21311038011698 12.9901941964286  6.35467612044816 12.8404511718749  6.53464442355892 12.7154405691964  C 6.71461272666964 12.590429966518  6.91598140572015 12.5196830357144  7.13875046071063 12.5031997767856  C 7.29293574008548 12.4867165178571  7.44301034448874 12.4909654017857  7.58897427392005 12.5159464285714  C 7.73493820335151 12.5409274553571  7.85922201336674 12.5824218749999  7.96182570396579 12.6404296875  C 8.06442939456484 12.6984375000001  8.15442131677228 12.764935546875  8.23180147058821 12.8399238281251  C 8.3091816244041 12.914912109375  8.36487388815174 13.0021573660714  8.39887826183105 13.1016595982143  C 8.4328826355104 13.2011618303571  8.45016456582635 13.3091467633928  8.45072405277905 13.4256143973214  C 8.45072405277905 13.6086026785714  8.39503178903146 13.7830856584822  8.28364726153627 13.9490633370535  C 8.17226273404093 14.1150410156251  8.02218812963783 14.2562712053572  7.83342344832675 14.37275390625  C 7.64465876701558 14.4892366071428  7.43889189886478 14.5557346540178  7.21612284387441 14.5722480468749  Z M 9.40129238537523 12.7784506138393  C 9.2811270209839 12.861439453125  9.15684321096857 12.8989411272321  9.02844095532953 12.8909556361608  C 8.9000386996904 12.8829701450893  8.81004677748285 12.8289776785713  8.75846518870706 12.7289782366072  L 8.70661939775905 12.6292198660714  C 8.68961721091953 12.5957109375  8.68111611749967 12.5624581473214  8.68111611749967 12.5294614955356  L 8.68111611749967 12.429703125  C 8.68111611749967 12.3797109375001  8.68961721091953 12.3382165178571  8.70661939775905 12.3052198660715  L 8.75846518870706 12.2054614955357  C 8.77546737554674 12.1719525669643  8.8012503992825 12.1469564732144  8.8358142599145 12.1304732142857  L 8.91316333112194 12.03071484375  C 9.05034642365722 11.9307003348214  9.18313132709226 11.8892059151786  9.31151804142707 11.9062315848215  C 9.43990475576194 11.9232572544643  9.52989667796943 11.9897553013392  9.5814938080495 12.1057257254464  C 9.63305985552118 12.1722313058036  9.65445246080888 12.2469709821429  9.64567162391274 12.3299447544643  C 9.63689078701655 12.4129185267856  9.61110776328074 12.4919070870536  9.5683225527053 12.5669104352679  C 9.5255373421298 12.6419137834822  9.46984507838221 12.7126607142858  9.40124576146246 12.7791512276786  Z M 18.5313501584845 7.56568024553571  L 18.5321194530444 7.56642606026785  C 18.6352826305961 7.56642606026785  18.7296572005995 7.54142996651795  18.8152431630547 7.49143777901794  C 18.9008291255098 7.44144559151778  18.9694206717775 7.37921149553581  19.0210178018576 7.30473549107138  C 19.0726149319377 7.2302594866072  19.1069145903976 7.15127092633921  19.1239167772373 7.06776981026778  C 19.1409189640769 7.05128655133923  19.1494200574967 7.02629045758935  19.1494200574967 6.99278152901788  C 19.3551713843432 5.0974478236607  18.6692947749276 4.0167999441965  17.0917902292496 3.75083789062505  C 16.6286904454764 3.66784905133927  16.1998903201632 3.65960742187498  15.8053898533098 3.72611300223207  C 15.6852244889184 3.72611300223207  15.5823488254951 3.75509430803568  15.49676286304 3.81305691964285  C 15.4111769005849 3.87101953124994  15.3382027065212 3.94575920758938  15.2778402808492 4.03727594866068  C 15.2174778551771 4.1287926897322  15.1875841564696 4.22427957589293  15.1881591847265 4.32373660714283  C 15.1881591847265 4.49022656250003  15.2482418669222 4.63145675223214  15.3684072313136 4.7474271763393  C 15.488572595705 4.86339760044652  15.6342490110079 4.92164648437492  15.8054364772225 4.922173828125  C 17.1431542397661 4.62268777901782  17.8633149663374 5.03840039062507  17.9659186569364 6.16931166294649  C 18.0004825175685 6.45177204241076  17.9832005872524 6.71774916294639  17.9140728659885 6.96724302455354  C 17.9140728659885 7.13373297991074  17.9741555481842 7.27496316964285  18.0943209125756 7.39093359375002  C 18.2144862769669 7.50690401785724  18.3601626922699 7.56515290178563  18.5313501584845 7.56568024553571  Z M 18.0950902071355 0.535133370535649  C 17.3406375927564 0.368643415178627  16.3288442921029 0.401896205357198  15.0597103051747 0.634891741071439  C 15.0427081183351 0.634891741071439  15.0254261880191 0.643133370535679  15.0078645142268 0.659616629464236  L 14.9823612339673 0.709880022321522  L 14.9568579537078 0.734604910714242  C 14.768108813701 0.784597098214272  14.6136515615018 0.88859681919634  14.4934861971104 1.04660407366073  C 14.3733208327191 1.20461132812494  14.3132381505234 1.37509402901783  14.3132381505234 1.55805217633934  C 14.3132381505234 1.80753097098214  14.3991038564549 2.01525920758922  14.5708352683179 2.18123688616075  C 14.7425666801808 2.34721456473207  14.9483335483316 2.4304595424108  15.1881358727702 2.43097181919647  L 15.2654849439777 2.43097181919647  C 15.2824871308172 2.43097181919647  15.321169437073 2.42273018973216  15.3815318627451 2.4062469308035  C 15.4418942884171 2.38976367187497  15.5060876455846 2.37726562500002  15.5741119342474 2.36875279017867  C 15.6421362229103 2.36023995535707  15.7151104169738 2.34348549107144  15.7930345164382 2.31848939732136  C 15.8709586159025 2.29349330357149  15.9395501621701 2.26849720982141  15.998809155241 2.24350111607151  C 16.058068148312 2.21850502232138  16.1738430942553 2.20600697544645  16.3461339930709 2.20600697544645  C 16.5184248918866 2.20600697544645  16.7285744078333 2.21850502232138  16.9765825409111 2.24350111607151  C 17.2245906739889 2.26849720982141  17.4989413177552 2.33073130580356  17.79963447221 2.43020340401782  C 18.1003276266647 2.52967550223215  18.4004612941668 2.65441489955361  18.7000354747162 2.8044215959821  C 18.9996096552657 2.95442829241065  19.2997433227677 3.16215652901788  19.6004364772225 3.42760630580351  C 19.9011296316773 3.69305608258929  20.1625809929235 4.0005200892857  20.3847905609612 4.34999832589283  C 20.8308881578947 5.33091796874997  20.9167538638263 6.27858482142856  20.6423876787558 7.19299888392866  C 20.6423876787558 7.20948214285714  20.6380050309598 7.2262366071428  20.6292397353678 7.24326227678571  C 20.6204744397759 7.26028794642848  20.607582927908 7.30178236607144  20.5905651997642 7.36774553571427  C 20.5735474716203 7.43370870535713  20.5562655413043 7.49594280133929  20.5387194088162 7.55444782366066  C 20.5211732763281 7.61295284598219  20.5038913460121 7.68769252232141  20.4868736178681 7.77866685267849  C 20.4698558897243 7.86964118303581  20.4613547963045 7.94862974330362  20.4613703376088 8.01563253348214  C 20.4613703376088 8.16511188616078  20.5041710894885 8.28985128348209  20.5897725932479 8.38985072544642  C 20.6753740970073 8.48985016741076  20.7826479495307 8.56059709821434  20.9115941508182 8.60209151785712  C 21.0405403521058 8.64358593750011  21.1906149565089 8.6643256138393  21.3618179640277 8.66431054687492  C 21.8419354759448 8.66431054687492  22.1247872131309 8.38157896205358  22.210373175586 7.81611579241076  C 22.4161245024326 7.1676637834822  22.5318994483758 6.54847181919649  22.5576980134159 5.95853989955363  C 22.583496578456 5.36860797991076  22.5406958265763 4.84916685267857  22.4292957577768 4.40021651785718  C 22.3178956889774 3.95126618303574  22.1508188977345 3.53156082589285  21.9280653840484 3.14110044642858  C 21.7053118703622 2.75064006696439  21.4479789547398 2.41817243303563  21.1560666371812 2.14369754464278  C 20.8641543196227 1.86922265625008  20.5382298577325 1.61974386160713  20.1782932515111 1.39526116071424  C 19.8183566452897 1.17077845982149  19.4710318074599 0.992046595982089  19.1363187380215 0.85906556919636  C 18.8016056685832 0.726084542410632  18.4542808307534 0.618099609374983  18.0943442245319 0.535110770089207  Z " fill-rule="nonzero" fill="url(#LinearGradient1)" stroke="none" transform="matrix(1 0 0 1 1002 238 )" />
  </g>
</svg>