<svg xmlns="http://www.w3.org/2000/svg" xmlns:xlink="http://www.w3.org/1999/xlink" width="8" height="16" version="1.1"><g><path fill="#6badff" fill-rule="nonzero" stroke="none" d="M 7.86254295532646 7.6312625250501 C 7.95418098510882 7.73814295257181 8 7.86105544422178 8 8 C 8 8.13894455577822 7.95418098510882 8.26185704742819 7.86254295532646 8.3687374749499 L 1.45704467353952 15.8396793587174 C 1.36540664375716 15.9465597862391 1.26002290950745 16 1.14089347079038 16 C 1.02176403207331 16 0.916380297823597 15.9465597862391 0.824742268041237 15.8396793587174 L 0.13745704467354 15.0380761523046 C 0.0458190148911799 14.9311957247829 0 14.8082832331329 0 14.6693386773547 C 0 14.5303941215765 0.0458190148911799 14.4074816299265 0.13745704467354 14.3006012024048 L 5.53951890034364 8 L 0.13745704467354 1.69939879759519 C 0.0458190148911799 1.59251837007348 0 1.46960587842351 0 1.33066132264529 C 0 1.19171676686707 0.0458190148911799 1.0688042752171 0.13745704467354 0.96192384769539 L 0.824742268041237 0.160320641282565 C 0.916380297823597 0.0534402137608545 1.02176403207331 0 1.14089347079038 0 C 1.26002290950745 0 1.36540664375716 0.0534402137608545 1.45704467353952 0.160320641282565 L 7.86254295532646 7.6312625250501 Z" transform="matrix(1 0 0 1 -7 -12 ) matrix(1 0 0 1 7 12 )"/></g></svg>