<?xml version="1.0" encoding="utf-8"?>
<svg version="1.1" xmlns:xlink="http://www.w3.org/1999/xlink" width="48px" height="34px" xmlns="http://www.w3.org/2000/svg">
  <g transform="matrix(1 0 0 1 -659 -28 )">
    <path d="M 0.697674418604649 3.48837209302325  C 0.694302325581397 2.36546511627907  0.694302325581397 1.23918604651163  0.697674418604649 0.116279069767442  C 5.19267441860465 0.116279069767442  9.6910465116279 0.116279069767442  14.1860465116279 0.116279069767442  C 14.1860465116279 1.23918604651163  14.1860465116279 2.36209302325581  14.1860465116279 3.48837209302325  C 15.3089534883721 3.48837209302325  16.4318604651163 3.48837209302325  17.5581395348837 3.48837209302325  C 17.5581395348837 4.61127906976744  17.5581395348837 5.73418604651163  17.5581395348837 6.85709302325581  C 18.6844186046512 6.86046511627907  19.8073255813953 6.86046511627907  20.9302325581395 6.86046511627907  C 20.9302325581395 5.73418604651163  20.9302325581395 4.61127906976744  20.9302325581395 3.48837209302325  C 22.0531395348837 3.48837209302325  23.1760465116279 3.48837209302325  24.3023255813954 3.48837209302325  C 24.3023255813954 2.36546511627907  24.3023255813954 1.23918604651163  24.3056976744186 0.116279069767442  C 32.1727906976744 0.116279069767442  40.0398837209302 0.116279069767442  47.906976744186 0.116279069767442  C 47.906976744186 4.61127906976744  47.906976744186 9.1096511627907  47.906976744186 13.6046511627907  C 46.7806976744186 13.6046511627907  45.6577906976744 13.6046511627907  44.5382558139535 13.608023255814  C 44.5348837209302 14.7309302325581  44.5348837209302 15.8538372093023  44.5348837209302 16.9767441860465  C 43.4086046511628 16.9767441860465  42.2856976744186 16.9767441860465  41.1627906976744 16.9767441860465  C 41.1627906976744 15.8538372093023  41.1627906976744 14.7309302325581  41.1627906976744 13.608023255814  C 40.036511627907 13.6046511627907  38.9136046511628 13.6012790697674  37.7906976744186 13.6012790697674  C 37.7906976744186 11.3554651162791  37.7906976744186 9.1096511627907  37.7906976744186 6.86046511627907  C 38.9136046511628 6.86046511627907  40.036511627907 6.85709302325581  41.1594186046512 6.86046511627907  C 41.1594186046512 7.98337209302326  41.1627906976744 9.1096511627907  41.1627906976744 10.2325581395349  C 42.2856976744186 10.2325581395349  43.4086046511628 10.2325581395349  44.531511627907 10.2325581395349  C 44.5348837209302 7.98337209302326  44.5348837209302 5.73755813953488  44.5348837209302 3.48837209302325  C 38.9136046511628 3.48837209302325  33.2956976744186 3.48837209302325  27.6744186046512 3.48837209302325  C 27.6710465116279 4.61127906976744  27.6710465116279 5.73755813953488  27.6744186046512 6.86046511627907  C 29.9202325581395 6.86046511627907  32.1694186046512 6.86046511627907  34.4186046511628 6.86046511627907  C 34.4186046511628 7.98337209302326  34.4186046511628 9.10627906976744  34.4186046511628 10.2291860465116  C 32.1694186046512 10.2393023255814  29.9236046511628 10.2291860465116  27.6777906976744 10.2325581395349  C 27.6744186046512 9.1096511627907  27.6744186046512 7.98674418604651  27.6710465116279 6.86383720930233  C 26.5481395348837 6.86046511627907  25.4218604651163 6.85709302325581  24.2989534883721 6.86046511627907  C 24.2989534883721 7.98674418604651  24.2989534883721 9.1096511627907  24.3023255813954 10.2325581395349  C 25.4286046511628 10.2325581395349  26.551511627907 10.2325581395349  27.6777906976744 10.2325581395349  C 27.6744186046512 11.3554651162791  27.6744186046512 12.4783720930233  27.6710465116279 13.6046511627907  C 26.5481395348837 13.6046511627907  25.4286046511628 13.6046511627907  24.3056976744186 13.6046511627907  C 24.3023255813954 12.4817441860465  24.3023255813954 11.3588372093023  24.2989534883721 10.2325581395349  C 23.1760465116279 10.2325581395349  22.0531395348837 10.2291860465116  20.9302325581395 10.2325581395349  C 20.9302325581395 11.3554651162791  20.9268604651163 12.4817441860465  20.9302325581395 13.6046511627907  C 19.8073255813953 13.6046511627907  18.6844186046512 13.6046511627907  17.561511627907 13.608023255814  C 17.5581395348837 14.7309302325581  17.5581395348837 15.8538372093023  17.5581395348837 16.9767441860465  C 16.4352325581395 16.9767441860465  15.3123255813953 16.9767441860465  14.1894186046512 16.9767441860465  C 14.1826744186046 19.2259302325581  14.1826744186046 21.4717441860465  14.1860465116279 23.7209302325581  C 15.3089534883721 23.7209302325581  16.4318604651163 23.7209302325581  17.5547674418605 23.7209302325581  C 17.5581395348837 22.598023255814  17.561511627907 21.4717441860465  17.561511627907 20.3488372093023  C 18.6844186046512 20.3488372093023  19.8073255813953 20.3488372093023  20.9302325581395 20.3488372093023  C 20.9268604651163 21.4717441860465  20.9302325581395 22.5946511627907  20.9302325581395 23.7175581395349  C 22.0531395348837 23.7209302325581  23.1760465116279 23.7209302325581  24.2989534883721 23.7209302325581  C 24.3023255813954 22.598023255814  24.3056976744186 21.4751162790698  24.3056976744186 20.3522093023256  C 25.4286046511628 20.3522093023256  26.551511627907 20.3488372093023  27.6710465116279 20.3488372093023  C 27.6744186046512 21.4717441860465  27.6744186046512 22.598023255814  27.6744186046512 23.7209302325581  C 26.551511627907 23.7175581395349  25.4286046511628 23.7209302325581  24.3056976744186 23.7243023255814  C 24.2989534883721 27.093023255814  24.3056976744186 30.4651162790698  24.2989534883721 33.8338372093023  C 23.1760465116279 33.8372093023256  22.0531395348837 33.8372093023256  20.9302325581395 33.8338372093023  C 20.9302325581395 32.7109302325581  20.9302325581395 31.588023255814  20.9302325581395 30.4651162790698  C 19.8073255813953 30.4651162790698  18.6844186046512 30.4651162790698  17.561511627907 30.4651162790698  C 17.5581395348837 29.3422093023256  17.5581395348837 28.2159302325581  17.5547674418605 27.093023255814  C 16.4318604651163 27.0896511627907  15.3089534883721 27.0896511627907  14.1894186046512 27.093023255814  C 14.1860465116279 28.2159302325581  14.1826744186046 29.3388372093023  14.1860465116279 30.4651162790698  C 13.0631395348837 30.4651162790698  11.9368604651163 30.4651162790698  10.8139534883721 30.4651162790698  C 10.8139534883721 24.8438372093023  10.8105813953488 19.2259302325581  10.8173255813953 13.6046511627907  C 11.9402325581395 13.6012790697674  13.0631395348837 13.6046511627907  14.1860465116279 13.6046511627907  C 14.1826744186046 12.4783720930233  14.1826744186046 11.3554651162791  14.1860465116279 10.2325581395349  C 15.3089534883721 10.2325581395349  16.4318604651163 10.2325581395349  17.5547674418605 10.2325581395349  C 17.5581395348837 9.1096511627907  17.561511627907 7.98337209302326  17.5581395348837 6.86046511627907  C 15.3123255813953 6.86383720930233  13.0631395348837 6.85709302325581  10.8139534883721 6.86383720930233  C 10.8139534883721 7.98337209302326  10.8173255813953 9.10627906976744  10.8139534883721 10.2291860465116  C 9.6910465116279 10.2325581395349  8.56476744186047 10.2359302325581  7.44186046511628 10.2325581395349  C 7.43848837209302 7.98337209302326  7.44186046511628 5.73755813953488  7.44186046511628 3.48837209302325  C 5.19267441860465 3.48837209302325  2.94686046511627 3.48837209302325  0.697674418604649 3.48837209302325  Z " fill-rule="nonzero" fill="#1980ff" stroke="none" transform="matrix(1 0 0 1 659 28 )" />
  </g>
</svg>