<?xml version="1.0" encoding="utf-8"?>
<svg version="1.1" xmlns:xlink="http://www.w3.org/1999/xlink" width="21px" height="41px" xmlns="http://www.w3.org/2000/svg">
  <g transform="matrix(1 0 0 1 -676 -65 )">
    <path d="M 3.93023255813954 6.95348837209302  C 3.93023255813954 4.70767441860465  3.93023255813954 2.45848837209302  3.93023255813954 0.212674418604649  C 5.05313953488373 0.205930232558138  6.1760465116279 0.20930232558139  7.29895348837209 0.212674418604649  C 7.3056976744186 4.70767441860465  7.29895348837209 9.20267441860464  7.30232558139535 13.6976744186046  C 10.6744186046512 13.6976744186046  14.046511627907 13.6976744186046  17.4186046511628 13.6976744186046  C 17.4186046511628 15.943488372093  17.4186046511628 18.1926744186047  17.4186046511628 20.4418604651163  C 16.2956976744186 20.4418604651163  15.1694186046512 20.4418604651163  14.046511627907 20.4418604651163  C 14.046511627907 21.5647674418605  14.046511627907 22.6876744186046  14.0498837209302 23.8105813953488  C 15.1727906976744 23.8139534883721  16.2956976744186 23.8139534883721  17.4186046511628 23.8139534883721  C 17.4186046511628 24.9368604651163  17.4186046511628 26.0597674418605  17.4186046511628 27.1826744186046  C 16.2956976744186 27.1860465116279  15.1727906976744 27.1860465116279  14.0498837209302 27.1894186046512  C 14.046511627907 28.3123255813953  14.0431395348837 29.4352325581395  14.046511627907 30.5581395348837  C 15.1694186046512 30.5581395348837  16.2923255813954 30.5581395348837  17.4186046511628 30.5581395348837  C 17.4186046511628 31.6810465116279  17.4186046511628 32.8039534883721  17.4186046511628 33.9302325581395  C 18.541511627907 33.9302325581395  19.6677906976744 33.9302325581395  20.7906976744186 33.9302325581395  C 20.7906976744186 36.1760465116279  20.7906976744186 38.4252325581395  20.7873255813954 40.6710465116279  C 19.6644186046512 40.6744186046512  18.541511627907 40.6744186046512  17.4186046511628 40.6744186046512  C 17.4186046511628 39.5481395348837  17.4186046511628 38.4252325581395  17.4186046511628 37.3023255813954  C 16.2956976744186 37.3023255813954  15.1727906976744 37.3023255813954  14.0498837209302 37.2989534883721  C 14.046511627907 36.1760465116279  14.046511627907 35.0531395348837  14.046511627907 33.9336046511628  C 13.3653488372093 33.9302325581395  12.6841860465116 33.9302325581395  12.0063953488372 33.9302325581395  C 13.1427906976744 31.9170930232558  13.6958139534884 29.5229069767442  13.1191860465116 27.2433720930233  C 13.3518604651163 27.2163953488372  13.8172093023256 27.1590697674418  14.0498837209302 27.1320930232558  C 14.046511627907 26.0294186046512  14.046511627907 24.9267441860465  14.0498837209302 23.8274418604651  C 13.2001162790698 23.7970930232558  12.333488372093 23.905  11.5039534883721 23.7094186046512  C 10.276511627907 22.4145348837209  8.88383720930233 21.2916279069767  7.29558139534883 20.4722093023256  C 7.30906976744186 18.2162790697674  7.30232558139535 15.956976744186  7.29895348837209 13.7010465116279  C 6.1760465116279 13.6976744186046  5.05313953488373 13.6976744186046  3.93023255813954 13.6943023255814  C 3.92686046511628 12.5713953488372  3.93023255813954 11.448488372093  3.93023255813954 10.3255813953488  C 2.80732558139535 10.3255813953488  1.68104651162791 10.3255813953488  0.558139534883722 10.3255813953488  C 0.558139534883722 9.19930232558139  0.558139534883722 8.07639534883721  0.558139534883722 6.95348837209302  C 1.68104651162791 6.95348837209302  2.80395348837209 6.95348837209302  3.93023255813954 6.95348837209302  Z " fill-rule="nonzero" fill="#1980ff" stroke="none" transform="matrix(1 0 0 1 676 65 )" />
  </g>
</svg>