<?xml version="1.0" encoding="utf-8"?>
<svg version="1.1" xmlns:xlink="http://www.w3.org/1999/xlink" width="50px" height="50px" xmlns="http://www.w3.org/2000/svg">
  <defs>
    <linearGradient gradientUnits="userSpaceOnUse" x1="0" y1="26.4705882352941" x2="49.5" y2="26.4705882352941" id="LinearGradient1394">
      <stop id="Stop1395" stop-color="#77d0fe" offset="0" />
      <stop id="Stop1396" stop-color="#1277ff" offset="1" />
    </linearGradient>
  </defs>
  <g transform="matrix(1 0 0 1 -25 -15 )">
    <path d="M 31.23125 19.1874  L 31.72725 47.59925  C 29.55225 48.205  27.2555 48.5295  24.88095 48.5295  C 11.139575 48.5295  0 37.66575  0 24.2647  C 0 10.863675  11.139575 0  24.88095 0  C 30.5625 0  35.79925 1.85716249999999  39.98775 4.982975  L 16.8721 5.38645000000002  C 14.7521 5.42344999999997  13.144075 6.08240000000002  12.048 7.36332500000003  C 10.951925 8.64422500000003  10.4229 10.37405  10.460925 12.552825  C 10.497625 14.65515  11.0644 16.337175  12.1613 17.598925  C 13.258175 18.860675  14.910175 19.472275  17.1173 19.43375  L 31.23125 19.1874  Z M 44.12575 18.962325  L 44.47925 39.2155  C 47.78875 35.09525  49.762 29.90475  49.762 24.2647  C 49.762 22.412225  49.549 20.6082  49.14575 18.8747  L 44.12575 18.962325  Z " fill-rule="nonzero" fill="url(#LinearGradient1394)" stroke="none" transform="matrix(1 0 0 1 25 15 )" />
  </g>
</svg>