<svg xmlns="http://www.w3.org/2000/svg" xmlns:xlink="http://www.w3.org/1999/xlink" width="180" height="45" version="1.1"><g><path fill="#fff" fill-opacity=".996" fill-rule="nonzero" stroke="none" d="M 1 40 L 179 40 L 179 82 A 2 2 0 0 1 177 84 L 3 84 A 2 2 0 0 1 1 82 L 1 40 Z" transform="matrix(1 0 0 1 0 -40 )"/><path fill="none" stroke="#d4d4d4" stroke-opacity=".498" stroke-width="1" d="M 179.5 40 L 179.5 82 A 2.5 2.5 0 0 1 177 84.5 L 3 84.5 A 2.5 2.5 0 0 1 0.5 82 L 0.5 40" transform="matrix(1 0 0 1 0 -40 )"/></g></svg>