<?xml version="1.0" encoding="utf-8"?>
<svg version="1.1" xmlns:xlink="http://www.w3.org/1999/xlink" width="10px" height="6px" xmlns="http://www.w3.org/2000/svg">
  <g transform="matrix(1 0 0 1 -180 -20 )">
    <path d="M 5.39612595419847 5.29185114503817  C 5.39987595419847 5.28809160305344  5.40081106870229 5.28292938931298  5.40434160305344 5.27919847328244  L 9.5175286259542 1.53651717557252  C 9.73891221374046 1.31044847328244  9.74148854961832 0.946040076335878  9.52292938931298 0.723024809160305  C 9.3043606870229 0.499990458015267  8.94770038167939 0.502356870229007  8.72606870229008 0.728645038167939  L 5.00309160305344 4.11628816793893  L 1.27281488549618 0.721832061068702  C 1.05121183206107 0.495772900763359  0.692414122137405 0.495534351145038  0.471049618320611 0.721364503816794  C 0.249923664122138 0.94743320610687  0.250143129770993 1.3137213740458  0.47151717557252 1.54001908396947  L 4.59457061068702 5.29162213740458  C 4.81593511450382 5.51769083969466  5.17498091603054 5.51790076335878  5.39610687022901 5.29185114503817  Z " fill-rule="nonzero" fill="#3399ff" stroke="none" transform="matrix(1 0 0 1 180 20 )" />
  </g>
</svg>