<svg xmlns="http://www.w3.org/2000/svg" xmlns:xlink="http://www.w3.org/1999/xlink" width="230" height="115" version="1.1"><g><path fill="#ccc" fill-rule="nonzero" stroke="none" d="M 14 19 L 244 19 L 244 134 L 14 134 L 14 19" transform="matrix(1 0 0 1 -14 -19 )"/><path fill="#fff" fill-rule="nonzero" stroke="none" d="M 22 27 L 236 27 L 236 126 L 22 126 L 22 27" transform="matrix(1 0 0 1 -14 -19 )"/><path fill="#ccc" fill-rule="nonzero" stroke="none" d="M 142.225 53.5 C 137.395 53.5 133.6 49.705 133.6 44.875 C 133.6 40.045 137.395 36.25 142.225 36.25 C 147.055 36.25 150.85 40.045 150.85 44.875 C 150.85 49.705 147.055 53.5 142.225 53.5" transform="matrix(1 0 0 1 -14 -19 )"/><path fill="#169bd5" fill-rule="nonzero" stroke="none" d="M 25 123 L 25 71.85 L 77 48.6 L 149.8 95.1 L 191.4 62.55 L 233 95.1 L 233 123 L 25 123" transform="matrix(1 0 0 1 -14 -19 )"/></g></svg>