<?xml version="1.0" encoding="utf-8"?>
<svg version="1.1" xmlns:xlink="http://www.w3.org/1999/xlink" width="8px" height="8px" xmlns="http://www.w3.org/2000/svg">
  <g transform="matrix(1 0 0 1 -724 -4796 )">
    <path d="M 728 4796  C 730.24 4796  732 4797.76  732 4800  C 732 4802.24  730.24 4804  728 4804  C 725.76 4804  724 4802.24  724 4800  C 724 4797.76  725.76 4796  728 4796  Z " fill-rule="nonzero" fill="#ffffff" stroke="none" />
    <path d="M 728 4796.5  C 729.96 4796.5  731.5 4798.04  731.5 4800  C 731.5 4801.96  729.96 4803.5  728 4803.5  C 726.04 4803.5  724.5 4801.96  724.5 4800  C 724.5 4798.04  726.04 4796.5  728 4796.5  Z " stroke-width="1" stroke="#1890ff" fill="none" />
  </g>
</svg>