<?xml version="1.0" encoding="utf-8"?>
<svg version="1.1" xmlns:xlink="http://www.w3.org/1999/xlink" width="12px" height="10px" xmlns="http://www.w3.org/2000/svg">
  <g transform="matrix(1 0 0 1 -72 -1013 )">
    <path d="M 11.5168269230769 3.31676136363636  C 11.8389423076923 3.97964015151515  12 4.66856060606061  12 5.38352272727273  C 12 6.16950757575758  11.8557692307692 6.91287878787879  11.5673076923077 7.61363636363636  L 11.4230769230769 7.96164772727273  L 10.0889423076923 8.19602272727273  C 9.98317307692308 8.58901515151515  9.765625 8.91216856060606  9.43629807692308 9.16548295454545  C 9.10697115384616 9.41879734848485  8.73076923076923 9.54545454545455  8.30769230769231 9.54545454545455  L 8.30769230769231 9.77272727272727  C 8.30769230769231 9.83901515151515  8.28605769230769 9.89346590909091  8.24278846153846 9.93607954545455  C 8.19951923076923 9.97869318181818  8.14423076923077 10  8.07692307692308 10  L 7.61538461538462 10  C 7.54807692307692 10  7.49278846153846 9.97869318181818  7.44951923076923 9.93607954545455  C 7.40625 9.89346590909091  7.38461538461539 9.83901515151515  7.38461538461539 9.77272727272727  L 7.38461538461539 5.68181818181818  C 7.38461538461539 5.6155303030303  7.40625 5.56107954545455  7.44951923076923 5.51846590909091  C 7.49278846153846 5.47585227272727  7.54807692307692 5.45454545454545  7.61538461538462 5.45454545454545  L 8.07692307692308 5.45454545454545  C 8.14423076923077 5.45454545454545  8.19951923076923 5.47585227272727  8.24278846153846 5.51846590909091  C 8.28605769230769 5.56107954545455  8.30769230769231 5.6155303030303  8.30769230769231 5.68181818181818  L 8.30769230769231 5.90909090909091  C 8.64903846153846 5.90909090909091  8.96153846153846 5.99313446969697  9.24519230769231 6.16122159090909  C 9.52884615384616 6.32930871212121  9.75240384615385 6.55539772727273  9.91586538461539 6.83948863636364  L 10.40625 6.75426136363636  C 10.5456730769231 6.30445075757576  10.6153846153846 5.84753787878788  10.6153846153846 5.38352272727273  C 10.6153846153846 4.68276515151515  10.4038461538462 4.02225378787879  9.98076923076923 3.40198863636364  C 9.55769230769231 2.78172348484849  8.98918269230769 2.28693181818182  8.27524038461539 1.91761363636364  C 7.56129807692308 1.54829545454545  6.80288461538462 1.36363636363636  6 1.36363636363636  C 5.19711538461539 1.36363636363636  4.43870192307692 1.54829545454545  3.72475961538462 1.91761363636364  C 3.01081730769231 2.28693181818182  2.44230769230769 2.78172348484849  2.01923076923077 3.40198863636364  C 1.59615384615385 4.02225378787879  1.38461538461538 4.68276515151515  1.38461538461538 5.38352272727273  C 1.38461538461538 5.84753787878788  1.45432692307692 6.30445075757576  1.59375 6.75426136363636  L 2.08413461538462 6.83948863636364  C 2.24759615384615 6.55539772727273  2.47115384615385 6.32930871212121  2.75480769230769 6.16122159090909  C 3.03846153846154 5.99313446969697  3.35096153846154 5.90909090909091  3.69230769230769 5.90909090909091  L 3.69230769230769 5.68181818181818  C 3.69230769230769 5.6155303030303  3.71394230769231 5.56107954545455  3.75721153846154 5.51846590909091  C 3.80048076923077 5.47585227272727  3.85576923076923 5.45454545454545  3.92307692307692 5.45454545454545  L 4.38461538461538 5.45454545454545  C 4.45192307692308 5.45454545454545  4.50721153846154 5.47585227272727  4.55048076923077 5.51846590909091  C 4.59375 5.56107954545455  4.61538461538462 5.6155303030303  4.61538461538462 5.68181818181818  L 4.61538461538462 9.77272727272727  C 4.61538461538462 9.83901515151515  4.59375 9.89346590909091  4.55048076923077 9.93607954545455  C 4.50721153846154 9.97869318181818  4.45192307692308 10  4.38461538461538 10  L 3.92307692307692 10  C 3.85576923076923 10  3.80048076923077 9.97869318181818  3.75721153846154 9.93607954545455  C 3.71394230769231 9.89346590909091  3.69230769230769 9.83901515151515  3.69230769230769 9.77272727272727  L 3.69230769230769 9.54545454545455  C 3.26923076923077 9.54545454545455  2.89302884615385 9.41879734848485  2.56370192307692 9.16548295454545  C 2.234375 8.91216856060606  2.01682692307692 8.58901515151515  1.91105769230769 8.19602272727273  L 0.576923076923077 7.96164772727273  L 0.432692307692308 7.61363636363636  C 0.144230769230769 6.91287878787879  0 6.16950757575758  0 5.38352272727273  C 0 4.66856060606061  0.161057692307692 3.97964015151515  0.483173076923077 3.31676136363636  C 0.805288461538461 2.65388257575757  1.23557692307692 2.0797821969697  1.77403846153846 1.59446022727273  C 2.3125 1.10913825757576  2.95192307692308 0.722064393939393  3.69230769230769 0.433238636363636  C 4.43269230769231 0.144412878787878  5.20192307692308 0  6 0  C 6.79807692307692 0  7.56730769230769 0.144412878787878  8.30769230769231 0.433238636363636  C 9.04807692307692 0.722064393939393  9.6875 1.10913825757576  10.2259615384615 1.59446022727273  C 10.7644230769231 2.0797821969697  11.1947115384615 2.65388257575757  11.5168269230769 3.31676136363636  Z " fill-rule="nonzero" fill="#989898" stroke="none" transform="matrix(1 0 0 1 72 1013 )" />
  </g>
</svg>