<?xml version="1.0" encoding="utf-8"?>
<svg version="1.1" xmlns:xlink="http://www.w3.org/1999/xlink" width="8px" height="8px" xmlns="http://www.w3.org/2000/svg">
  <g transform="matrix(1 0 0 1 -366 -2735 )">
    <path d="M 370 2736  C 371.68 2736  373 2737.32  373 2739  C 373 2740.68  371.68 2742  370 2742  C 368.32 2742  367 2740.68  367 2739  C 367 2737.32  368.32 2736  370 2736  Z " fill-rule="nonzero" fill="#ffffff" stroke="none" />
    <path d="M 370 2736  C 371.68 2736  373 2737.32  373 2739  C 373 2740.68  371.68 2742  370 2742  C 368.32 2742  367 2740.68  367 2739  C 367 2737.32  368.32 2736  370 2736  Z " stroke-width="2" stroke="#2db7f5" fill="none" />
  </g>
</svg>