<?xml version="1.0" encoding="utf-8"?>
<svg version="1.1" xmlns:xlink="http://www.w3.org/1999/xlink" width="8px" height="8px" xmlns="http://www.w3.org/2000/svg">
  <g transform="matrix(1 0 0 1 -366 -2797 )">
    <path d="M 370 2798  C 371.68 2798  373 2799.32  373 2801  C 373 2802.68  371.68 2804  370 2804  C 368.32 2804  367 2802.68  367 2801  C 367 2799.32  368.32 2798  370 2798  Z " fill-rule="nonzero" fill="#ffffff" stroke="none" />
    <path d="M 370 2798  C 371.68 2798  373 2799.32  373 2801  C 373 2802.68  371.68 2804  370 2804  C 368.32 2804  367 2802.68  367 2801  C 367 2799.32  368.32 2798  370 2798  Z " stroke-width="2" stroke="#4ad2e7" fill="none" />
  </g>
</svg>