<?xml version="1.0" encoding="utf-8"?>
<svg version="1.1" xmlns:xlink="http://www.w3.org/1999/xlink" width="64px" height="64px" xmlns="http://www.w3.org/2000/svg">
  <g transform="matrix(1 0 0 1 -485 -1862 )">
    <path d="M 514.333511537483 1862.61306260062  C 515.22026999089 1862.53772771924  516.109897522075 1862.5  517 1862.5  C 534.39696961967 1862.5  548.5 1876.60303038033  548.5 1894  C 548.5 1911.39696961967  534.39696961967 1925.5  517 1925.5  C 500.852014491797 1925.5  487.349015581785 1913.29642682772  485.672190417079 1897.28974163612  L 517.044318343823 1894.49803201142  A 0.5 0.5 0 0 0 517.497470760719 1893.9497720971 L 514.333511537502 1862.61306260062  Z " fill-rule="nonzero" fill="#0096fa" stroke="none" />
    <path d="M 514.333511537483 1862.61306260062  C 515.22026999089 1862.53772771924  516.109897522075 1862.5  517 1862.5  C 534.39696961967 1862.5  548.5 1876.60303038033  548.5 1894  C 548.5 1911.39696961967  534.39696961967 1925.5  517 1925.5  C 500.852014491797 1925.5  487.349015581785 1913.29642682772  485.672190417079 1897.28974163612  L 517.044318343823 1894.49803201142  A 0.5 0.5 0 0 0 517.497470760719 1893.9497720971 L 514.333511537502 1862.61306260062  Z " stroke-width="1" stroke="#ffffff" fill="none" />
  </g>
</svg>