<?xml version="1.0" encoding="utf-8"?>
<svg version="1.1" xmlns:xlink="http://www.w3.org/1999/xlink" width="72px" height="72px" xmlns="http://www.w3.org/2000/svg">
  <g transform="matrix(1 0 0 1 -1106 -3627 )">
    <path d="M 1138.93164339028 3627.63285157446  C 1139.95195577199 3627.54433207501  1140.97569884216 3627.5  1142 3627.5  C 1161.60610861899 3627.5  1177.5 3643.39389138101  1177.5 3663  C 1177.5 3682.60610861899  1161.60610861899 3698.5  1142 3698.5  C 1122.39389138101 3698.5  1106.5 3682.60610861899  1106.5 3663  C 1106.5 3656.93519765408  1108.05371061054 3650.97438352717  1111.00914695025 3645.68477291851  L 1141.75 3663.43301270189  A 0.5 0.5 0 0 0 1142.49747076072 3662.9497720971 L 1138.93164339024 3627.63285157447  Z " fill-rule="nonzero" fill="#0096fa" stroke="none" />
    <path d="M 1138.93164339028 3627.63285157446  C 1139.95195577199 3627.54433207501  1140.97569884216 3627.5  1142 3627.5  C 1161.60610861899 3627.5  1177.5 3643.39389138101  1177.5 3663  C 1177.5 3682.60610861899  1161.60610861899 3698.5  1142 3698.5  C 1122.39389138101 3698.5  1106.5 3682.60610861899  1106.5 3663  C 1106.5 3656.93519765408  1108.05371061054 3650.97438352717  1111.00914695025 3645.68477291851  L 1141.75 3663.43301270189  A 0.5 0.5 0 0 0 1142.49747076072 3662.9497720971 L 1138.93164339024 3627.63285157447  Z " stroke-width="1" stroke="#ffffff" fill="none" />
  </g>
</svg>