<?xml version="1.0" encoding="utf-8"?>
<svg version="1.1" xmlns:xlink="http://www.w3.org/1999/xlink" width="136px" height="97px" xmlns="http://www.w3.org/2000/svg">
  <defs>
    <mask fill="white" id="clip203">
      <path d="M 0 91.8035714285714  L 0 5.19642857142857  C 0 2.28642857142857  2.64 0  6 0  L 130 0  C 133.36 0  136 2.28642857142857  136 5.19642857142857  L 136 91.8035714285714  C 136 94.7135714285714  133.36 97  130 97  L 6 97  C 2.64 97  0 94.7135714285714  0 91.8035714285714  Z " fill-rule="evenodd" />
    </mask>
  </defs>
  <g transform="matrix(1 0 0 1 -388 -2731 )">
    <path d="M 0 91.8035714285714  L 0 5.19642857142857  C 0 2.28642857142857  2.64 0  6 0  L 130 0  C 133.36 0  136 2.28642857142857  136 5.19642857142857  L 136 91.8035714285714  C 136 94.7135714285714  133.36 97  130 97  L 6 97  C 2.64 97  0 94.7135714285714  0 91.8035714285714  Z " fill-rule="nonzero" fill="#000000" stroke="none" transform="matrix(1 0 0 1 388 2731 )" />
    <path d="M 0 91.8035714285714  L 0 5.19642857142857  C 0 2.28642857142857  2.64 0  6 0  L 130 0  C 133.36 0  136 2.28642857142857  136 5.19642857142857  L 136 91.8035714285714  C 136 94.7135714285714  133.36 97  130 97  L 6 97  C 2.64 97  0 94.7135714285714  0 91.8035714285714  Z " stroke-width="2" stroke="#ebebeb" fill="none" transform="matrix(1 0 0 1 388 2731 )" mask="url(#clip203)" />
  </g>
</svg>