<?xml version="1.0" encoding="utf-8"?>
<svg version="1.1" xmlns:xlink="http://www.w3.org/1999/xlink" width="44px" height="44px" xmlns="http://www.w3.org/2000/svg">
  <g transform="matrix(1 0 0 1 -1120 -3641 )">
    <path d="M 1142 3641  C 1154.32 3641  1164 3650.68  1164 3663  C 1164 3675.32  1154.32 3685  1142 3685  C 1129.68 3685  1120 3675.32  1120 3663  C 1120 3650.68  1129.68 3641  1142 3641  Z " fill-rule="nonzero" fill="#ffffff" stroke="none" />
    <path d="M 1142 3641.5  C 1154.04 3641.5  1163.5 3650.96  1163.5 3663  C 1163.5 3675.04  1154.04 3684.5  1142 3684.5  C 1129.96 3684.5  1120.5 3675.04  1120.5 3663  C 1120.5 3650.96  1129.96 3641.5  1142 3641.5  Z " stroke-width="1" stroke="#ffffff" fill="none" />
  </g>
</svg>