<?xml version="1.0" encoding="utf-8"?>
<svg version="1.1" xmlns:xlink="http://www.w3.org/1999/xlink" width="26px" height="28px" xmlns="http://www.w3.org/2000/svg">
  <g transform="matrix(1 0 0 1 -57 -1812 )">
    <path d="M 25.9353693181818 21.3919270833333  C 25.9784564393939 22.0056423611111  26 22.6345486111111  26 23.2786458333333  C 26 24.7369791666667  25.5506628787879 25.8884548611111  24.6519886363636 26.7330729166667  C 23.7533143939394 27.5776909722222  22.5591856060606 28  21.0696022727273 28  L 4.93039772727273 28  C 3.44081439393939 28  2.24668560606061 27.5776909722222  1.34801136363636 26.7330729166667  C 0.449337121212121 25.8884548611111  0 24.7369791666667  0 23.2786458333333  C 0 22.6345486111111  0.0215435606060606 22.0056423611111  0.0646306818181818 21.3919270833333  C 0.107717803030303 20.7782118055556  0.193892045454545 20.1158854166667  0.323153409090909 19.4049479166667  C 0.452414772727273 18.6940104166667  0.615530303030303 18.0347222222222  0.8125 17.4270833333333  C 1.0094696969697 16.8194444444444  1.27414772727273 16.2269965277778  1.60653409090909 15.6497395833333  C 1.93892045454545 15.0724826388889  2.32054924242424 14.5802951388889  2.75142045454545 14.1731770833333  C 3.18229166666667 13.7660590277778  3.70857007575758 13.4409722222222  4.33025568181818 13.1979166666667  C 4.95194128787879 12.9548611111111  5.63825757575758 12.8333333333333  6.38920454545455 12.8333333333333  C 6.5 12.8333333333333  6.75852272727273 12.9639756944444  7.16477272727273 13.2252604166667  C 7.57102272727273 13.4865451388889  8.0295928030303 13.7782118055556  8.54048295454546 14.1002604166667  C 9.05137310606061 14.4223090277778  9.71614583333334 14.7139756944444  10.5348011363636 14.9752604166667  C 11.3534564393939 15.2365451388889  12.1751893939394 15.3671875  13 15.3671875  C 13.8248106060606 15.3671875  14.6465435606061 15.2365451388889  15.4651988636364 14.9752604166667  C 16.2838541666667 14.7139756944444  16.9486268939394 14.4223090277778  17.4595170454545 14.1002604166667  C 17.9704071969697 13.7782118055556  18.4289772727273 13.4865451388889  18.8352272727273 13.2252604166667  C 19.2414772727273 12.9639756944444  19.5 12.8333333333333  19.6107954545455 12.8333333333333  C 20.3617424242424 12.8333333333333  21.0480587121212 12.9548611111111  21.6697443181818 13.1979166666667  C 22.2914299242424 13.4409722222222  22.8177083333333 13.7660590277778  23.2485795454545 14.1731770833333  C 23.6794507575758 14.5802951388889  24.0610795454545 15.0724826388889  24.3934659090909 15.6497395833333  C 24.7258522727273 16.2269965277778  24.9905303030303 16.8194444444444  25.1875 17.4270833333333  C 25.3844696969697 18.0347222222222  25.5475852272727 18.6940104166667  25.6768465909091 19.4049479166667  C 25.8061079545455 20.1158854166667  25.8922821969697 20.7782118055556  25.9353693181818 21.3919270833333  Z M 18.0134943181818 2.05078125  C 19.3984375 3.41796875  20.0909090909091 5.06770833333333  20.0909090909091 7  C 20.0909090909091 8.93229166666667  19.3984375 10.58203125  18.0134943181818 11.94921875  C 16.6285511363636 13.31640625  14.9573863636364 14  13 14  C 11.0426136363636 14  9.37144886363636 13.31640625  7.98650568181818 11.94921875  C 6.6015625 10.58203125  5.90909090909091 8.93229166666667  5.90909090909091 7  C 5.90909090909091 5.06770833333333  6.6015625 3.41796875  7.98650568181818 2.05078125  C 9.37144886363636 0.68359375  11.0426136363636 0  13 0  C 14.9573863636364 0  16.6285511363636 0.68359375  18.0134943181818 2.05078125  Z " fill-rule="nonzero" fill="#ffffff" stroke="none" transform="matrix(1 0 0 1 57 1812 )" />
  </g>
</svg>