<?xml version="1.0" encoding="utf-8"?>
<svg version="1.1" xmlns:xlink="http://www.w3.org/1999/xlink" width="804px" height="153px" xmlns="http://www.w3.org/2000/svg">
  <g transform="matrix(1 0 0 1 -362 -4800 )">
    <path d="M 0 89.4570044872446  C 0 89.4570044872446  26.6864191251271 88.1118016274979  69.262461851475 88.1118016274979  C 111.838504577823 88.1118016274979  108.375381485249 116.361061682178  143.414038657172 116.361061682178  C 178.452695829095 116.361061682178  165.652518234093 64.1055338288896  219.195320447609 64.5707515819309  C 257.900813835199 64.9070522968678  263.538140370534 82.544347975174  286.828077314344 82.7309901885111  C 328.792980671414 83.067290903448  325.126144455748 -0.3352864008466  366.683621566633 0.00101431409029829  C 408.241098677518 0.337315029027197  386.680172290926 86.7030718663856  434.316378433367 92.1474102067379  C 460.799084435402 95.1741166411682  471.595879959308 91.6429591343328  506.838250254324 94.1652144963579  C 542.080620549339 96.6874698583831  541.469481180061 147.637028171288  582.619532044761 147.973328886225  C 623.769582909461 148.309629601162  614.940733277938 129.669367415203  655.956256358088 129.813090279645  C 700.276359863949 129.968392754169  702.402848423194 149.318531745972  734.996948118006 149.991133175845  C 767.591047812818 150.663734605719  780.898060415493 112.842411226726  801 114.343257392558  " stroke-width="2" stroke="#1890ff" fill="none" transform="matrix(1 0 0 1 363 4801 )" />
  </g>
</svg>