<?xml version="1.0" encoding="utf-8"?>
<svg version="1.1" xmlns:xlink="http://www.w3.org/1999/xlink" width="26px" height="28px" xmlns="http://www.w3.org/2000/svg">
  <g transform="matrix(1 0 0 1 -396 -6301 )">
    <path d="M 4.01171875 23.3725961538462  C 4.22612847222222 23.1594551282051  4.33333333333333 22.9070512820513  4.33333333333333 22.6153846153846  C 4.33333333333333 22.3237179487179  4.22612847222222 22.0713141025641  4.01171875 21.8581730769231  C 3.79730902777778 21.6450320512821  3.54340277777778 21.5384615384615  3.25 21.5384615384615  C 2.95659722222222 21.5384615384615  2.70269097222222 21.6450320512821  2.48828125 21.8581730769231  C 2.27387152777778 22.0713141025641  2.16666666666667 22.3237179487179  2.16666666666667 22.6153846153846  C 2.16666666666667 22.9070512820513  2.27387152777778 23.1594551282051  2.48828125 23.3725961538462  C 2.70269097222222 23.5857371794872  2.95659722222222 23.6923076923077  3.25 23.6923076923077  C 3.54340277777778 23.6923076923077  3.79730902777778 23.5857371794872  4.01171875 23.3725961538462  Z M 23.4694010416667 14.2860576923077  C 23.7120225694444 13.770032051282  23.8333333333333 13.3157051282051  23.8333333333333 12.9230769230769  C 23.8333333333333 12.3509615384615  23.61328125 11.8489583333333  23.1731770833333 11.4170673076923  C 22.7330729166667 10.9851762820513  22.2309027777778 10.7692307692308  21.6666666666667 10.7692307692308  L 15.7083333333333 10.7692307692308  C 15.7083333333333 10.1185897435897  15.9791666666667 9.22395833333333  16.5208333333333 8.08533653846154  C 17.0625 6.94671474358974  17.3333333333333 6.04647435897436  17.3333333333333 5.38461538461538  C 17.3333333333333 4.28525641025641  17.1527777777778 3.47195512820513  16.7916666666667 2.94471153846154  C 16.4305555555556 2.41746794871795  15.7083333333333 2.15384615384615  14.625 2.15384615384615  C 14.3315972222222 2.44551282051282  14.1171875 2.92227564102564  13.9817708333333 3.58413461538462  C 13.8463541666667 4.24599358974359  13.6742621527778 4.94991987179487  13.4654947916667 5.69591346153846  C 13.2567274305556 6.44190705128205  12.9210069444444 7.05608974358974  12.4583333333333 7.53846153846154  C 12.2100694444444 7.79647435897436  11.7756076388889 8.30689102564102  11.1549479166667 9.06971153846154  C 11.1098090277778 9.12580128205128  10.9800347222222 9.29407051282051  10.765625 9.57451923076923  C 10.5512152777778 9.85496794871795  10.3734809027778 10.0849358974359  10.232421875 10.2644230769231  C 10.0913628472222 10.4439102564103  9.89670138888889 10.6822916666667  9.6484375 10.9795673076923  C 9.40017361111111 11.2768429487179  9.17447916666667 11.5236378205128  8.97135416666667 11.7199519230769  C 8.76822916666667 11.916266025641  8.55099826388889 12.1153846153846  8.31966145833333 12.3173076923077  C 8.08832465277778 12.5192307692308  7.86263020833333 12.6706730769231  7.642578125 12.7716346153846  C 7.42252604166667 12.8725961538462  7.22222222222222 12.9230769230769  7.04166666666667 12.9230769230769  L 7 12.9230769230769  L 7 23.6923076923077  L 7.04166666666667 23.6923076923077  C 7.18836805555556 23.6923076923077  7.36610243055556 23.7091346153846  7.57486979166667 23.7427884615385  C 7.78363715277778 23.7764423076923  7.96983506944444 23.8129006410256  8.13346354166667 23.8521634615385  C 8.29709201388889 23.8914262820513  8.51150173611111 23.953125  8.77669270833333 24.0372596153846  C 9.04188368055556 24.1213942307692  9.23936631944444 24.1858974358974  9.369140625 24.2307692307692  C 9.49891493055556 24.275641025641  9.69921875 24.3457532051282  9.97005208333333 24.4411057692308  C 10.2408854166667 24.5364583333333  10.4045138888889 24.5953525641026  10.4609375 24.6177884615385  C 12.8420138888889 25.4366987179487  14.7717013888889 25.8461538461538  16.25 25.8461538461538  L 18.2981770833333 25.8461538461538  C 20.46484375 25.8461538461538  21.5481770833333 24.9094551282051  21.5481770833333 23.0360576923077  C 21.5481770833333 22.744391025641  21.5199652777778 22.4302884615385  21.4635416666667 22.09375  C 21.8020833333333 21.9142628205128  22.0700954861111 21.6197916666667  22.267578125 21.2103365384615  C 22.4650607638889 20.8008814102564  22.5638020833333 20.3886217948718  22.5638020833333 19.9735576923077  C 22.5638020833333 19.5584935897436  22.4622395833333 19.1714743589744  22.2591145833333 18.8125  C 22.8572048611111 18.2516025641026  23.15625 17.5841346153846  23.15625 16.8100961538462  C 23.15625 16.5296474358974  23.0998263888889 16.2183493589744  22.9869791666667 15.8762019230769  C 22.8741319444444 15.5340544871795  22.7330729166667 15.2676282051282  22.5638020833333 15.0769230769231  C 22.9249131944444 15.0657051282051  23.2267795138889 14.8020833333333  23.4694010416667 14.2860576923077  Z M 24.7135416666667 9.89423076923077  C 25.5711805555556 10.7467948717949  26 11.7508012820513  26 12.90625  C 26 13.9046474358974  25.7235243055556 14.8189102564103  25.1705729166667 15.6490384615385  C 25.2721354166667 16.0192307692308  25.3229166666667 16.40625  25.3229166666667 16.8100961538462  C 25.3229166666667 17.6738782051282  25.1085069444444 18.4815705128205  24.6796875 19.2331730769231  C 24.7135416666667 19.46875  24.73046875 19.7099358974359  24.73046875 19.9567307692308  C 24.73046875 21.0897435897436  24.3919270833333 22.088141025641  23.71484375 22.9519230769231  C 23.7261284722222 24.5112179487179  23.2465277777778 25.7423878205128  22.2760416666667 26.6454326923077  C 21.3055555555556 27.5484775641026  20.0247395833333 28  18.43359375 28  L 17.82421875 28  L 16.25 28  C 15.1666666666667 28  14.0974392361111 27.8737980769231  13.0423177083333 27.6213942307692  C 11.9871961805556 27.3689903846154  10.765625 27.0016025641026  9.37760416666667 26.5192307692308  C 8.06857638888889 26.0705128205128  7.28993055555556 25.8461538461538  7.04166666666667 25.8461538461538  L 2.16666666666667 25.8461538461538  C 1.56857638888889 25.8461538461538  1.05794270833333 25.6358173076923  0.634765625 25.2151442307692  C 0.211588541666667 24.7944711538462  0 24.286858974359  0 23.6923076923077  L 0 12.9230769230769  C 0 12.3285256410256  0.211588541666667 11.8209134615385  0.634765625 11.4002403846154  C 1.05794270833333 10.9795673076923  1.56857638888889 10.7692307692308  2.16666666666667 10.7692307692308  L 6.8046875 10.7692307692308  C 7.2109375 10.5  7.98394097222222 9.63060897435897  9.12369791666667 8.16105769230769  C 9.77821180555556 7.31971153846154  10.3819444444444 6.60176282051282  10.9348958333333 6.00721153846154  C 11.2057291666667 5.72676282051282  11.4060329861111 5.24719551282051  11.5358072916667 4.56850961538462  C 11.6655815972222 3.88982371794872  11.8376736111111 3.18028846153846  12.0520833333333 2.43990384615385  C 12.2664930555556 1.69951923076923  12.6163194444444 1.09375  13.1015625 0.622596153846152  C 13.5416666666667 0.207532051282053  14.0494791666667 0  14.625 0  C 15.5729166666667 0  16.4249131944444 0.182291666666669  17.1809895833333 0.546875  C 17.9370659722222 0.911458333333331  18.5125868055556 1.48076923076923  18.9075520833333 2.25480769230769  C 19.3025173611111 3.02884615384615  19.5 4.07211538461538  19.5 5.38461538461538  C 19.5 6.42788461538462  19.2291666666667 7.50480769230769  18.6875 8.61538461538462  L 21.6666666666667 8.61538461538462  C 22.8402777777778 8.61538461538462  23.8559027777778 9.04166666666667  24.7135416666667 9.89423076923077  Z " fill-rule="nonzero" fill="#fbfbfb" stroke="none" transform="matrix(1 0 0 1 396 6301 )" />
  </g>
</svg>