<svg xmlns="http://www.w3.org/2000/svg" xmlns:xlink="http://www.w3.org/1999/xlink" width="10" height="12" version="1.1"><g><path fill="#989898" fill-rule="nonzero" stroke="none" d="M 9.79166666666667 0.857142857142857 L 9.16666666666667 0.857142857142857 C 9.16666666666667 2.02232142857143 8.935546875 3.05245535714286 8.47330729166667 3.94754464285714 C 8.01106770833333 4.84263392857143 7.43272569444445 5.52678571428571 6.73828125 6 C 7.43272569444445 6.47321428571428 8.01106770833333 7.15736607142857 8.47330729166667 8.05245535714286 C 8.935546875 8.94754464285714 9.16666666666667 9.97767857142857 9.16666666666667 11.1428571428571 L 9.79166666666667 11.1428571428571 C 9.85243055555556 11.1428571428571 9.90234375 11.1629464285714 9.94140625 11.203125 C 9.98046875 11.2433035714286 10 11.2946428571429 10 11.3571428571429 L 10 11.7857142857143 C 10 11.8482142857143 9.98046875 11.8995535714286 9.94140625 11.9397321428571 C 9.90234375 11.9799107142857 9.85243055555556 12 9.79166666666667 12 L 0.208333333333333 12 C 0.147569444444444 12 0.09765625 11.9799107142857 0.05859375 11.9397321428571 C 0.01953125 11.8995535714286 0 11.8482142857143 0 11.7857142857143 L 0 11.3571428571429 C 0 11.2946428571429 0.01953125 11.2433035714286 0.05859375 11.203125 C 0.09765625 11.1629464285714 0.147569444444444 11.1428571428571 0.208333333333333 11.1428571428571 L 0.833333333333333 11.1428571428571 C 0.833333333333333 9.97767857142857 1.064453125 8.94754464285714 1.52669270833333 8.05245535714286 C 1.98893229166667 7.15736607142857 2.56727430555556 6.47321428571428 3.26171875 6 C 2.56727430555556 5.52678571428571 1.98893229166667 4.84263392857143 1.52669270833333 3.94754464285714 C 1.064453125 3.05245535714286 0.833333333333333 2.02232142857143 0.833333333333333 0.857142857142857 L 0.208333333333333 0.857142857142857 C 0.147569444444444 0.857142857142857 0.09765625 0.837053571428572 0.05859375 0.796875 C 0.01953125 0.756696428571428 0 0.705357142857142 0 0.642857142857143 L 0 0.214285714285715 C 0 0.151785714285713 0.01953125 0.100446428571428 0.05859375 0.0602678571428568 C 0.09765625 0.0200892857142851 0.147569444444444 0 0.208333333333333 0 L 9.79166666666667 0 C 9.85243055555556 0 9.90234375 0.0200892857142851 9.94140625 0.0602678571428568 C 9.98046875 0.100446428571428 10 0.151785714285713 10 0.214285714285715 L 10 0.642857142857143 C 10 0.705357142857142 9.98046875 0.756696428571428 9.94140625 0.796875 C 9.90234375 0.837053571428572 9.85243055555556 0.857142857142857 9.79166666666667 0.857142857142857 Z M 5.49153645833333 5.75558035714286 C 5.54144965277778 5.68191964285714 5.60763888888889 5.62946428571429 5.69010416666667 5.59821428571428 C 6.02430555555556 5.46875 6.34765625 5.26227678571429 6.66015625 4.97879464285714 C 6.97265625 4.6953125 7.25368923611111 4.35491071428571 7.50325520833333 3.95758928571429 C 7.75282118055556 3.56026785714286 7.95355902777778 3.09151785714286 8.10546875 2.55133928571429 C 8.25737847222222 2.01116071428571 8.33333333333333 1.44642857142857 8.33333333333333 0.857142857142857 L 1.66666666666667 0.857142857142857 C 1.66666666666667 1.44642857142857 1.74262152777778 2.01116071428571 1.89453125 2.55133928571429 C 2.04644097222222 3.09151785714286 2.24717881944444 3.56026785714286 2.49674479166667 3.95758928571429 C 2.74631076388889 4.35491071428571 3.02734375 4.6953125 3.33984375 4.97879464285714 C 3.65234375 5.26227678571429 3.97569444444444 5.46875 4.30989583333333 5.59821428571428 C 4.39236111111111 5.62946428571429 4.45855034722222 5.68191964285714 4.50846354166667 5.75558035714286 C 4.55837673611111 5.82924107142857 4.58333333333333 5.91071428571429 4.58333333333333 6 C 4.58333333333333 6.08928571428571 4.55837673611111 6.17075892857143 4.50846354166667 6.24441964285714 C 4.45855034722222 6.31808035714286 4.39236111111111 6.37053571428571 4.30989583333333 6.40178571428571 C 3.97569444444444 6.53125 3.65234375 6.73772321428571 3.33984375 7.02120535714286 C 3.02734375 7.3046875 2.74631076388889 7.64508928571428 2.49674479166667 8.04241071428571 C 2.24717881944444 8.43973214285714 2.04644097222222 8.90848214285714 1.89453125 9.44866071428571 C 1.74262152777778 9.98883928571429 1.66666666666667 10.5535714285714 1.66666666666667 11.1428571428571 L 8.33333333333333 11.1428571428571 C 8.33333333333333 10.5535714285714 8.25737847222222 9.98883928571429 8.10546875 9.44866071428571 C 7.95355902777778 8.90848214285714 7.75282118055556 8.43973214285714 7.50325520833333 8.04241071428571 C 7.25368923611111 7.64508928571428 6.97265625 7.3046875 6.66015625 7.02120535714286 C 6.34765625 6.73772321428571 6.02430555555556 6.53125 5.69010416666667 6.40178571428571 C 5.60763888888889 6.37053571428571 5.54144965277778 6.31808035714286 5.49153645833333 6.24441964285714 C 5.44162326388889 6.17075892857143 5.41666666666667 6.08928571428571 5.41666666666667 6 C 5.41666666666667 5.91071428571429 5.44162326388889 5.82924107142857 5.49153645833333 5.75558035714286 Z" transform="matrix(1 0 0 1 -341 -880 ) matrix(1 0 0 1 341 880 )"/></g></svg>