<?xml version="1.0" encoding="utf-8"?>
<svg version="1.1" xmlns:xlink="http://www.w3.org/1999/xlink" width="8px" height="8px" xmlns="http://www.w3.org/2000/svg">
  <g transform="matrix(1 0 0 1 -390 -8269 )">
    <path d="M 394 8270  C 395.68 8270  397 8271.32  397 8273  C 397 8274.68  395.68 8276  394 8276  C 392.32 8276  391 8274.68  391 8273  C 391 8271.32  392.32 8270  394 8270  Z " fill-rule="nonzero" fill="#ffffff" stroke="none" />
    <path d="M 394 8270  C 395.68 8270  397 8271.32  397 8273  C 397 8274.68  395.68 8276  394 8276  C 392.32 8276  391 8274.68  391 8273  C 391 8271.32  392.32 8270  394 8270  Z " stroke-width="2" stroke="#2db7f5" fill="none" />
  </g>
</svg>