<svg xmlns="http://www.w3.org/2000/svg" xmlns:xlink="http://www.w3.org/1999/xlink" width="12" height="10" version="1.1"><g><path fill="#989898" fill-rule="nonzero" stroke="none" d="M 7.94140625 7.05859375 C 8.06380208333333 7.18098958333333 8.125 7.328125 8.125 7.5 C 8.125 7.671875 8.06380208333333 7.81901041666667 7.94140625 7.94140625 C 7.81901041666667 8.06380208333333 7.671875 8.125 7.5 8.125 C 7.328125 8.125 7.18098958333333 8.06380208333333 7.05859375 7.94140625 C 6.93619791666667 7.81901041666667 6.875 7.671875 6.875 7.5 C 6.875 7.328125 6.93619791666667 7.18098958333333 7.05859375 7.05859375 C 7.18098958333333 6.93619791666667 7.328125 6.875 7.5 6.875 C 7.671875 6.875 7.81901041666667 6.93619791666667 7.94140625 7.05859375 Z M 9.94140625 7.05859375 C 10.0638020833333 7.18098958333333 10.125 7.328125 10.125 7.5 C 10.125 7.671875 10.0638020833333 7.81901041666667 9.94140625 7.94140625 C 9.81901041666667 8.06380208333333 9.671875 8.125 9.5 8.125 C 9.328125 8.125 9.18098958333333 8.06380208333333 9.05859375 7.94140625 C 8.93619791666667 7.81901041666667 8.875 7.671875 8.875 7.5 C 8.875 7.328125 8.93619791666667 7.18098958333333 9.05859375 7.05859375 C 9.18098958333333 6.93619791666667 9.328125 6.875 9.5 6.875 C 9.671875 6.875 9.81901041666667 6.93619791666667 9.94140625 7.05859375 Z M 10.92578125 8.92578125 C 10.9752604166667 8.87630208333333 11 8.81770833333333 11 8.75 L 11 6.25 C 11 6.18229166666667 10.9752604166667 6.12369791666667 10.92578125 6.07421875 C 10.8763020833333 6.02473958333333 10.8177083333333 6 10.75 6 L 1.25 6 C 1.18229166666667 6 1.12369791666667 6.02473958333333 1.07421875 6.07421875 C 1.02473958333333 6.12369791666667 1 6.18229166666667 1 6.25 L 1 8.75 C 1 8.81770833333333 1.02473958333333 8.87630208333333 1.07421875 8.92578125 C 1.12369791666667 8.97526041666667 1.18229166666667 9 1.25 9 L 10.75 9 C 10.8177083333333 9 10.8763020833333 8.97526041666667 10.92578125 8.92578125 Z M 2.6171875 1.234375 L 1.390625 5 L 10.609375 5 L 9.3828125 1.234375 C 9.36197916666667 1.16666666666667 9.3203125 1.11067708333333 9.2578125 1.06640625 C 9.1953125 1.02213541666667 9.12760416666667 1 9.0546875 1 L 2.9453125 1 C 2.87239583333333 1 2.8046875 1.02213541666667 2.7421875 1.06640625 C 2.6796875 1.11067708333333 2.63802083333333 1.16666666666667 2.6171875 1.234375 Z M 11.875 5.6640625 C 11.9583333333333 5.92447916666667 12 6.11979166666667 12 6.25 L 12 8.75 C 12 9.09375 11.8776041666667 9.38802083333333 11.6328125 9.6328125 C 11.3880208333333 9.87760416666667 11.09375 10 10.75 10 L 1.25 10 C 0.90625 10 0.611979166666667 9.87760416666667 0.3671875 9.6328125 C 0.122395833333333 9.38802083333333 0 9.09375 0 8.75 L 0 6.25 C 0 6.11979166666667 0.0416666666666667 5.92447916666667 0.125 5.6640625 L 1.6640625 0.9296875 C 1.75260416666667 0.653645833333332 1.91666666666667 0.4296875 2.15625 0.2578125 C 2.39583333333333 0.0859374999999996 2.65885416666667 0 2.9453125 0 L 9.0546875 0 C 9.34114583333333 0 9.60416666666667 0.0859374999999996 9.84375 0.2578125 C 10.0833333333333 0.4296875 10.2473958333333 0.653645833333332 10.3359375 0.9296875 L 11.875 5.6640625 Z" transform="matrix(1 0 0 1 -456 -1013 ) matrix(1 0 0 1 456 1013 )"/></g></svg>