<?xml version="1.0" encoding="utf-8"?>
<svg version="1.1" xmlns:xlink="http://www.w3.org/1999/xlink" width="320px" height="97px" xmlns="http://www.w3.org/2000/svg">
  <g transform="matrix(1 0 0 1 -869 -7969 )">
    <path d="M 318.757598784195 95.5083333333333  L 0.581762917933103 95.5083333333333  C 0.581762917933103 95.5083333333333  0 7.66666666666663  0.0969604863222176 7.69666666666672  C 26.0649953574744 7  42.9858156028369 33.0666666666667  56.8834853090172 33.0666666666667  C 70.7811550151976 33.0666666666667  91.819870009285 -1  113.766970618034 0.288888888888778  C 135.714071226784 1.57777777777756  141.152949484195 6.70855793162559  172.266464032422 9.4666666666667  C 189.563602599814 11  207.927576601671 62.3333333333333  231.089159067882 63.8777777777777  C 254.250741534093 65.4222222222222  273.830097676479 67.3555555555554  291.527862208713 65.8444444444443  C 309.225626740947 64.3333333333333  297.970287836583 31.6666666666666  318.030395136778 33.0666666666667  C 318.703806870938 33  318.757598784195 95.5083333333333  318.757598784195 95.5083333333333  Z " fill-rule="nonzero" fill="#4ad2e7" stroke="none" transform="matrix(1 0 0 1 869 7969 )" />
  </g>
</svg>