<?xml version="1.0" encoding="utf-8"?>
<svg version="1.1" xmlns:xlink="http://www.w3.org/1999/xlink" width="11px" height="12px" xmlns="http://www.w3.org/2000/svg">
  <g transform="matrix(1 0 0 1 -636 -880 )">
    <path d="M 1.697265625 2.63221153846154  C 1.78797743055556 2.54086538461538  1.83333333333333 2.43269230769231  1.83333333333333 2.30769230769231  C 1.83333333333333 2.18269230769231  1.78797743055556 2.07451923076923  1.697265625 1.98317307692308  C 1.60655381944444 1.89182692307692  1.49913194444444 1.84615384615385  1.375 1.84615384615385  C 1.25086805555556 1.84615384615385  1.14344618055556 1.89182692307692  1.052734375 1.98317307692308  C 0.962022569444444 2.07451923076923  0.916666666666667 2.18269230769231  0.916666666666667 2.30769230769231  C 0.916666666666667 2.43269230769231  0.962022569444444 2.54086538461538  1.052734375 2.63221153846154  C 1.14344618055556 2.72355769230769  1.25086805555556 2.76923076923077  1.375 2.76923076923077  C 1.49913194444444 2.76923076923077  1.60655381944444 2.72355769230769  1.697265625 2.63221153846154  Z M 9.80403645833333 7.10697115384615  C 9.990234375 6.921875  10.0833333333333 6.70673076923077  10.0833333333333 6.46153846153846  C 10.0833333333333 6.29326923076923  10.0320095486111 6.09855769230769  9.92936197916667 5.87740384615385  C 9.82671440972222 5.65625  9.69900173611111 5.54326923076923  9.54622395833333 5.53846153846154  C 9.61783854166667 5.45673076923077  9.67751736111111 5.34254807692308  9.72526041666667 5.19591346153846  C 9.77300347222222 5.04927884615384  9.796875 4.91586538461538  9.796875 4.79567307692308  C 9.796875 4.46394230769231  9.67035590277778 4.17788461538462  9.41731770833333 3.9375  C 9.50325520833333 3.78365384615385  9.54622395833333 3.61778846153846  9.54622395833333 3.43990384615385  C 9.54622395833333 3.26201923076923  9.50444878472222 3.08533653846154  9.4208984375 2.90985576923077  C 9.33734809027778 2.734375  9.22395833333333 2.60817307692308  9.08072916666667 2.53125  C 9.10460069444445 2.38701923076923  9.11653645833333 2.25240384615385  9.11653645833333 2.12740384615385  C 9.11653645833333 1.71875  8.99956597222222 1.41586538461538  8.765625 1.21875  C 8.53168402777778 1.02163461538461  8.20703125 0.923076923076922  7.79166666666667 0.923076923076922  L 6.875 0.923076923076922  C 6.24956597222222 0.923076923076922  5.43315972222222 1.09855769230769  4.42578125 1.44951923076923  C 4.40190972222222 1.45913461538461  4.33268229166667 1.484375  4.21809895833333 1.52524038461539  C 4.103515625 1.56610576923077  4.01877170138889 1.59615384615385  3.9638671875 1.61538461538461  C 3.90896267361111 1.63461538461538  3.82541232638889 1.66225961538461  3.71321614583333 1.69831730769231  C 3.60101996527778 1.734375  3.51030815972222 1.76081730769231  3.44108072916667 1.77764423076923  C 3.37185329861111 1.79447115384615  3.29307725694445 1.81009615384615  3.20475260416667 1.82451923076923  C 3.11642795138889 1.83894230769231  3.04123263888889 1.84615384615385  2.97916666666667 1.84615384615385  L 2.75 1.84615384615385  L 2.75 6.46153846153846  L 2.97916666666667 6.46153846153846  C 3.05555555555556 6.46153846153846  3.14029947916667 6.48317307692308  3.2333984375 6.52644230769231  C 3.32649739583333 6.56971153846154  3.42198350694445 6.63461538461539  3.51985677083333 6.72115384615385  C 3.61773003472222 6.80769230769231  3.70963541666667 6.89302884615385  3.79557291666667 6.97716346153846  C 3.88151041666667 7.06129807692308  3.97699652777778 7.16706730769231  4.08203125 7.29447115384615  C 4.18706597222222 7.421875  4.26942274305556 7.52403846153846  4.3291015625 7.60096153846154  C 4.38878038194444 7.67788461538462  4.46397569444444 7.77644230769231  4.5546875 7.89663461538462  C 4.64539930555556 8.01682692307692  4.70030381944444 8.08894230769231  4.71940104166667 8.11298076923077  C 4.98198784722222 8.43990384615385  5.16579861111111 8.65865384615385  5.27083333333333 8.76923076923077  C 5.46657986111111 8.97596153846154  5.60861545138889 9.23918269230769  5.69694010416667 9.55889423076923  C 5.78526475694444 9.87860576923077  5.85807291666667 10.1802884615385  5.91536458333333 10.4639423076923  C 5.97265625 10.7475961538462  6.06336805555556 10.9519230769231  6.1875 11.0769230769231  C 6.64583333333333 11.0769230769231  6.95138888888889 10.9639423076923  7.10416666666667 10.7379807692308  C 7.25694444444444 10.5120192307692  7.33333333333333 10.1634615384615  7.33333333333333 9.69230769230769  C 7.33333333333333 9.40865384615385  7.21875 9.02283653846154  6.98958333333333 8.53485576923077  C 6.76041666666667 8.046875  6.64583333333333 7.66346153846154  6.64583333333333 7.38461538461539  L 9.16666666666667 7.38461538461539  C 9.40538194444445 7.38461538461539  9.61783854166667 7.29206730769231  9.80403645833333 7.10697115384615  Z M 10.6490885416667 5.29326923076923  C 10.8830295138889 5.64903846153846  11 6.04086538461538  11 6.46875  C 11 6.96394230769231  10.8185763888889 7.39423076923077  10.4557291666667 7.75961538461539  C 10.0928819444444 8.125  9.66319444444445 8.30769230769231  9.16666666666667 8.30769230769231  L 7.90625 8.30769230769231  C 8.13541666666667 8.78365384615385  8.25 9.24519230769231  8.25 9.69230769230769  C 8.25 10.2596153846154  8.16644965277778 10.7067307692308  7.99934895833333 11.0336538461538  C 7.83224826388889 11.3653846153846  7.58875868055556 11.609375  7.26888020833333 11.765625  C 6.94900173611111 11.921875  6.58854166666667 12  6.1875 12  C 5.94401041666667 12  5.72916666666667 11.9110576923077  5.54296875 11.7331730769231  C 5.38064236111111 11.5745192307692  5.25173611111111 11.3774038461538  5.15625 11.1418269230769  C 5.06076388888889 10.90625  4.99989149305556 10.6887019230769  4.9736328125 10.4891826923077  C 4.94737413194444 10.2896634615385  4.90559895833333 10.0865384615385  4.84830729166667 9.87980769230769  C 4.791015625 9.67307692307692  4.71701388888889 9.51923076923077  4.62630208333333 9.41826923076923  C 4.39713541666667 9.17788461538462  4.14171006944444 8.87259615384615  3.86002604166667 8.50240384615385  C 3.37782118055556 7.87259615384615  3.05078125 7.5  2.87890625 7.38461538461539  L 0.916666666666667 7.38461538461539  C 0.663628472222222 7.38461538461539  0.447591145833333 7.29447115384615  0.2685546875 7.11418269230769  C 0.0895182291666667 6.93389423076923  0 6.71634615384615  0 6.46153846153846  L 0 1.84615384615385  C 0 1.59134615384615  0.0895182291666667 1.37379807692308  0.2685546875 1.19350961538461  C 0.447591145833333 1.01322115384615  0.663628472222222 0.923076923076922  0.916666666666667 0.923076923076922  L 2.97916666666667 0.923076923076922  C 3.08420138888889 0.923076923076922  3.41362847222222 0.826923076923075  3.96744791666667 0.634615384615385  C 4.57855902777778 0.423076923076922  5.11089409722222 0.264423076923075  5.564453125 0.158653846153846  C 6.01801215277778 0.0528846153846145  6.49544270833333 0  6.99674479166667 0  L 7.798828125 0  C 8.46723090277778 0  9.00792100694445 0.189903846153846  9.4208984375 0.569711538461539  C 9.83387586805556 0.949519230769229  10.0379774305556 1.46875  10.033203125 2.12740384615385  L 10.033203125 2.16346153846154  C 10.3196614583333 2.53365384615385  10.462890625 2.96153846153846  10.462890625 3.44711538461539  C 10.462890625 3.55288461538461  10.4557291666667 3.65625  10.44140625 3.75721153846154  C 10.6228298611111 4.07932692307692  10.7135416666667 4.42548076923077  10.7135416666667 4.79567307692308  C 10.7135416666667 4.96875  10.6920572916667 5.13461538461539  10.6490885416667 5.29326923076923  Z " fill-rule="nonzero" fill="#989898" stroke="none" transform="matrix(1 0 0 1 636 880 )" />
  </g>
</svg>