<svg xmlns="http://www.w3.org/2000/svg" xmlns:xlink="http://www.w3.org/1999/xlink" width="10" height="32" version="1.1"><g><path fill="#fff" fill-rule="nonzero" stroke="none" d="M 8.87892376681614 24.4318181818182 C 9.16292974588939 24.719696969697 9.30493273542601 25.0606060606061 9.30493273542601 25.4545454545455 L 9.30493273542601 30.5454545454545 C 9.30493273542601 30.9393939393939 9.16292974588939 31.280303030303 8.87892376681614 31.5681818181818 C 8.5949177877429 31.8560606060606 8.25859491778774 32 7.86995515695067 32 L 2.13004484304933 32 C 1.74140508221226 32 1.4050822122571 31.8560606060606 1.12107623318386 31.5681818181818 C 0.837070254110613 31.280303030303 0.695067264573991 30.9393939393939 0.695067264573991 30.5454545454545 L 0.695067264573991 25.4545454545455 C 0.695067264573991 25.0606060606061 0.837070254110613 24.719696969697 1.12107623318386 24.4318181818182 C 1.4050822122571 24.1439393939394 1.74140508221226 24 2.13004484304933 24 L 7.86995515695067 24 C 8.25859491778774 24 8.5949177877429 24.1439393939394 8.87892376681614 24.4318181818182 Z M 9.58520179372197 0.431818181818183 C 9.86173393124066 0.719696969696965 9.99252615844544 1.06060606060606 9.97757847533632 1.45454545454545 L 9.34977578475336 18.9090909090909 C 9.33482810164424 19.3030303030303 9.18161434977579 19.6439393939394 8.89013452914798 19.9318181818182 C 8.59865470852018 20.219696969697 8.25859491778774 20.3636363636364 7.86995515695067 20.3636363636364 L 2.13004484304933 20.3636363636364 C 1.74140508221226 20.3636363636364 1.40134529147982 20.219696969697 1.10986547085202 19.9318181818182 C 0.818385650224215 19.6439393939394 0.665171898355755 19.3030303030303 0.650224215246637 18.9090909090909 L 0.0224215246636771 1.45454545454545 C 0.00747384155455926 1.06060606060606 0.138266068759342 0.719696969696965 0.414798206278027 0.431818181818183 C 0.691330343796712 0.143939393939391 1.02391629297459 0 1.41255605381166 0 L 8.58744394618834 0 C 8.97608370702541 0 9.30866965620329 0.143939393939391 9.58520179372197 0.431818181818183 Z" transform="matrix(1 0 0 1 -69 -898 ) matrix(1 0 0 1 69 898 )"/></g></svg>