<?xml version="1.0" encoding="utf-8"?>
<svg version="1.1" xmlns:xlink="http://www.w3.org/1999/xlink" width="8px" height="8px" xmlns="http://www.w3.org/2000/svg">
  <g transform="matrix(1 0 0 1 -390 -8331 )">
    <path d="M 394 8332  C 395.68 8332  397 8333.32  397 8335  C 397 8336.68  395.68 8338  394 8338  C 392.32 8338  391 8336.68  391 8335  C 391 8333.32  392.32 8332  394 8332  Z " fill-rule="nonzero" fill="#ffffff" stroke="none" />
    <path d="M 394 8332  C 395.68 8332  397 8333.32  397 8335  C 397 8336.68  395.68 8338  394 8338  C 392.32 8338  391 8336.68  391 8335  C 391 8333.32  392.32 8332  394 8332  Z " stroke-width="2" stroke="#4ad2e7" fill="none" />
  </g>
</svg>