<?xml version="1.0" encoding="utf-8"?>
<svg version="1.1" xmlns:xlink="http://www.w3.org/1999/xlink" width="660px" height="181px" xmlns="http://www.w3.org/2000/svg">
  <g transform="matrix(1 0 0 1 -93 -7885 )">
    <path d="M 658.499240121581 179.5  L 1.20182370820669 179.5  C 1.20182370820669 179.5  0.200303951367784 89.8000000000001  0.200303951367784 90.2  C 9.93520537534702 89.8220244596549  36.4123933454109 88  56.7527862208713 88  C 91.6390577507599 88  88.8014184397163 116  117.511651469098 116  C 146.22188449848 116  135.73358068687 64.205553807075  179.60587639311 64.6666666666665  C 211.320668693009 65  215.939822837475 82.4816713087945  235.023302938197 82.6666666666665  C 269.408814589666 83  266.404255319149 0.33333333333303  300.455927051672 0.666666666666515  C 334.507598784195 1  316.840848090779 86.6037003010063  355.873353596758 92  C 377.572948328268 95  386.419706180345 91.5  415.2968591692 94  C 444.174012158055 96.5  443.673252279635 147  477.391084093212 147.333333333333  C 511.108915906788 147.666666666667  503.874668057087 129.190878621366  537.482269503546 129.333333333333  C 573.797602402754 129.487265481583  575.540020263424 148.666666666667  602.247213779129 149.333333333333  C 624.638241483882 149.892259593945  642.575075987842 115  656.996960486322 116  C 657.397568389058 116.6  658.499240121581 179.5  658.499240121581 179.5  Z " fill-rule="nonzero" fill="#2db6f4" stroke="none" transform="matrix(1 0 0 1 93 7885 )" />
  </g>
</svg>