<?xml version="1.0" encoding="utf-8"?>
<svg version="1.1" xmlns:xlink="http://www.w3.org/1999/xlink" width="660px" height="153px" xmlns="http://www.w3.org/2000/svg">
  <g transform="matrix(1 0 0 1 -92 -7885 )">
    <path d="M 0 89.3333333333333  C 0 89.3333333333333  21.8666158536585 88  56.7530487804878 88  C 91.6394817073171 88  88.8018292682927 116  117.512195121951 116  C 146.22256097561 116  135.734208641183 64.205553807075  179.606707317073 64.6666666666665  C 211.321646341463 65  215.940821855864 82.4816713087945  235.024390243902 82.6666666666665  C 269.41006097561 83  266.405487804878 0.33333333333303  300.457317073171 0.666666666666515  C 334.509146341463 1  316.842313915051 86.6037003010063  355.875 92  C 377.574695121951 95  386.421493902439 91.5  415.298780487805 94  C 444.176067073171 96.5  443.675304878049 147  477.393292682927 147.333333333333  C 511.111280487805 147.666666666667  503.876999169767 129.190878621366  537.484756097561 129.333333333333  C 573.800257005082 129.487265481583  575.542682926829 148.666666666667  602.25 149.333333333333  C 628.957317073171 150  639.860965531143 112.512396694215  656.332317073171 114  " stroke-width="2" stroke="#2db7f5" fill="none" transform="matrix(1 0 0 1 93 7886 )" />
  </g>
</svg>