<svg xmlns="http://www.w3.org/2000/svg" xmlns:xlink="http://www.w3.org/1999/xlink" width="8" height="8" version="1.1"><g><path fill="#fff" fill-rule="nonzero" stroke="none" d="M 370 2798 C 371.68 2798 373 2799.32 373 2801 C 373 2802.68 371.68 2804 370 2804 C 368.32 2804 367 2802.68 367 2801 C 367 2799.32 368.32 2798 370 2798 Z" transform="matrix(1 0 0 1 -366 -2797 )"/><path fill="none" stroke="#4ad2e7" stroke-width="2" d="M 370 2798 C 371.68 2798 373 2799.32 373 2801 C 373 2802.68 371.68 2804 370 2804 C 368.32 2804 367 2802.68 367 2801 C 367 2799.32 368.32 2798 370 2798 Z" transform="matrix(1 0 0 1 -366 -2797 )"/></g></svg>