<svg xmlns="http://www.w3.org/2000/svg" xmlns:xlink="http://www.w3.org/1999/xlink" width="8" height="8" version="1.1"><g><path fill="#fff" fill-rule="nonzero" stroke="none" d="M 370 2736 C 371.68 2736 373 2737.32 373 2739 C 373 2740.68 371.68 2742 370 2742 C 368.32 2742 367 2740.68 367 2739 C 367 2737.32 368.32 2736 370 2736 Z" transform="matrix(1 0 0 1 -366 -2735 )"/><path fill="none" stroke="#2db7f5" stroke-width="2" d="M 370 2736 C 371.68 2736 373 2737.32 373 2739 C 373 2740.68 371.68 2742 370 2742 C 368.32 2742 367 2740.68 367 2739 C 367 2737.32 368.32 2736 370 2736 Z" transform="matrix(1 0 0 1 -366 -2735 )"/></g></svg>