<svg xmlns="http://www.w3.org/2000/svg" xmlns:xlink="http://www.w3.org/1999/xlink" width="136" height="75" version="1.1"><defs><mask id="clip1616" fill="#fff"><path fill-rule="evenodd" d="M 0 70.9821428571429 L 0 4.01785714285714 C 0 1.76785714285714 2.64 0 6 0 L 130 0 C 133.36 0 136 1.76785714285714 136 4.01785714285714 L 136 70.9821428571429 C 136 73.2321428571429 133.36 75 130 75 L 6 75 C 2.64 75 0 73.2321428571429 0 70.9821428571429 Z"/></mask></defs><g><path fill="#000" fill-rule="nonzero" stroke="none" d="M 0 70.9821428571429 L 0 4.01785714285714 C 0 1.76785714285714 2.64 0 6 0 L 130 0 C 133.36 0 136 1.76785714285714 136 4.01785714285714 L 136 70.9821428571429 C 136 73.2321428571429 133.36 75 130 75 L 6 75 C 2.64 75 0 73.2321428571429 0 70.9821428571429 Z" transform="matrix(1 0 0 1 -385 -2346 ) matrix(1 0 0 1 385 2346 )"/><path fill="none" stroke="#ebebeb" stroke-width="2" d="M 0 70.9821428571429 L 0 4.01785714285714 C 0 1.76785714285714 2.64 0 6 0 L 130 0 C 133.36 0 136 1.76785714285714 136 4.01785714285714 L 136 70.9821428571429 C 136 73.2321428571429 133.36 75 130 75 L 6 75 C 2.64 75 0 73.2321428571429 0 70.9821428571429 Z" mask="url(#clip1616)" transform="matrix(1 0 0 1 -385 -2346 ) matrix(1 0 0 1 385 2346 )"/></g></svg>