<?xml version="1.0" encoding="utf-8"?>
<svg version="1.1" xmlns:xlink="http://www.w3.org/1999/xlink" width="45px" height="45px" xmlns="http://www.w3.org/2000/svg">
  <g transform="matrix(1 0 0 1 -203 -5661 )">
    <path d="M 225.5 5661  C 238.1 5661  248 5670.9  248 5683.5  C 248 5696.1  238.1 5706  225.5 5706  C 212.9 5706  203 5696.1  203 5683.5  C 203 5670.9  212.9 5661  225.5 5661  Z " fill-rule="nonzero" fill="#ffffff" stroke="none" />
    <path d="M 225.5 5661.5  C 237.82 5661.5  247.5 5671.18  247.5 5683.5  C 247.5 5695.82  237.82 5705.5  225.5 5705.5  C 213.18 5705.5  203.5 5695.82  203.5 5683.5  C 203.5 5671.18  213.18 5661.5  225.5 5661.5  Z " stroke-width="1" stroke="#e4e4e4" fill="none" />
  </g>
</svg>