<?xml version="1.0" encoding="utf-8"?>
<svg version="1.1" xmlns:xlink="http://www.w3.org/1999/xlink" width="45px" height="45px" xmlns="http://www.w3.org/2000/svg">
  <g transform="matrix(1 0 0 1 -203 -5731 )">
    <path d="M 225.5 5731  C 238.1 5731  248 5740.9  248 5753.5  C 248 5766.1  238.1 5776  225.5 5776  C 212.9 5776  203 5766.1  203 5753.5  C 203 5740.9  212.9 5731  225.5 5731  Z " fill-rule="nonzero" fill="#000000" stroke="none" />
    <path d="M 225.5 5731.5  C 237.82 5731.5  247.5 5741.18  247.5 5753.5  C 247.5 5765.82  237.82 5775.5  225.5 5775.5  C 213.18 5775.5  203.5 5765.82  203.5 5753.5  C 203.5 5741.18  213.18 5731.5  225.5 5731.5  Z " stroke-width="1" stroke="#e4e4e4" fill="none" />
  </g>
</svg>