<svg xmlns="http://www.w3.org/2000/svg" xmlns:xlink="http://www.w3.org/1999/xlink" width="45" height="45" version="1.1"><g><path fill="#000" fill-rule="nonzero" stroke="none" d="M 201.5 197 C 214.1 197 224 206.9 224 219.5 C 224 232.1 214.1 242 201.5 242 C 188.9 242 179 232.1 179 219.5 C 179 206.9 188.9 197 201.5 197 Z" transform="matrix(1 0 0 1 -179 -197 )"/><path fill="none" stroke="#e4e4e4" stroke-width="1" d="M 201.5 197.5 C 213.82 197.5 223.5 207.18 223.5 219.5 C 223.5 231.82 213.82 241.5 201.5 241.5 C 189.18 241.5 179.5 231.82 179.5 219.5 C 179.5 207.18 189.18 197.5 201.5 197.5 Z" transform="matrix(1 0 0 1 -179 -197 )"/></g></svg>