<svg xmlns="http://www.w3.org/2000/svg" xmlns:xlink="http://www.w3.org/1999/xlink" width="45" height="45" version="1.1"><g><path fill="#fff" fill-rule="nonzero" stroke="none" d="M 201.5 127 C 214.1 127 224 136.9 224 149.5 C 224 162.1 214.1 172 201.5 172 C 188.9 172 179 162.1 179 149.5 C 179 136.9 188.9 127 201.5 127 Z" transform="matrix(1 0 0 1 -179 -127 )"/><path fill="none" stroke="#e4e4e4" stroke-width="1" d="M 201.5 127.5 C 213.82 127.5 223.5 137.18 223.5 149.5 C 223.5 161.82 213.82 171.5 201.5 171.5 C 189.18 171.5 179.5 161.82 179.5 149.5 C 179.5 137.18 189.18 127.5 201.5 127.5 Z" transform="matrix(1 0 0 1 -179 -127 )"/></g></svg>