<svg xmlns="http://www.w3.org/2000/svg" xmlns:xlink="http://www.w3.org/1999/xlink" width="24" height="26" version="1.1"><g><path fill="#fff" fill-rule="nonzero" stroke="none" d="M 1.84615384615385 19.9642857142857 L 1.84615384615385 24.1428571428571 L 6 24.1428571428571 L 6 19.9642857142857 L 1.84615384615385 19.9642857142857 Z M 6.92307692307692 19.9642857142857 L 6.92307692307692 24.1428571428571 L 11.5384615384615 24.1428571428571 L 11.5384615384615 19.9642857142857 L 6.92307692307692 19.9642857142857 Z M 1.84615384615385 14.3928571428571 L 1.84615384615385 19.0357142857143 L 6 19.0357142857143 L 6 14.3928571428571 L 1.84615384615385 14.3928571428571 Z M 6.92307692307692 14.3928571428571 L 6.92307692307692 19.0357142857143 L 11.5384615384615 19.0357142857143 L 11.5384615384615 14.3928571428571 L 6.92307692307692 14.3928571428571 Z M 1.84615384615385 9.28571428571428 L 1.84615384615385 13.4642857142857 L 6 13.4642857142857 L 6 9.28571428571428 L 1.84615384615385 9.28571428571428 Z M 12.4615384615385 19.9642857142857 L 12.4615384615385 24.1428571428571 L 17.0769230769231 24.1428571428571 L 17.0769230769231 19.9642857142857 L 12.4615384615385 19.9642857142857 Z M 6.92307692307692 9.28571428571428 L 6.92307692307692 13.4642857142857 L 11.5384615384615 13.4642857142857 L 11.5384615384615 9.28571428571428 L 6.92307692307692 9.28571428571428 Z M 18 19.9642857142857 L 18 24.1428571428571 L 22.1538461538462 24.1428571428571 L 22.1538461538462 19.9642857142857 L 18 19.9642857142857 Z M 12.4615384615385 14.3928571428571 L 12.4615384615385 19.0357142857143 L 17.0769230769231 19.0357142857143 L 17.0769230769231 14.3928571428571 L 12.4615384615385 14.3928571428571 Z M 7.24759615384615 6.82645089285714 C 7.33894230769231 6.73456101190476 7.38461538461539 6.62574404761904 7.38461538461539 6.5 L 7.38461538461539 2.32142857142857 C 7.38461538461539 2.19568452380952 7.33894230769231 2.08686755952381 7.24759615384615 1.99497767857143 C 7.15625 1.90308779761905 7.04807692307692 1.85714285714286 6.92307692307692 1.85714285714286 L 6 1.85714285714286 C 5.875 1.85714285714286 5.76682692307692 1.90308779761905 5.67548076923077 1.99497767857143 C 5.58413461538462 2.08686755952381 5.53846153846154 2.19568452380952 5.53846153846154 2.32142857142857 L 5.53846153846154 6.5 C 5.53846153846154 6.62574404761904 5.58413461538462 6.73456101190476 5.67548076923077 6.82645089285714 C 5.76682692307692 6.91834077380952 5.875 6.96428571428572 6 6.96428571428572 L 6.92307692307692 6.96428571428572 C 7.04807692307692 6.96428571428572 7.15625 6.91834077380952 7.24759615384615 6.82645089285714 Z M 18 14.3928571428571 L 18 19.0357142857143 L 22.1538461538462 19.0357142857143 L 22.1538461538462 14.3928571428571 L 18 14.3928571428571 Z M 12.4615384615385 9.28571428571428 L 12.4615384615385 13.4642857142857 L 17.0769230769231 13.4642857142857 L 17.0769230769231 9.28571428571428 L 12.4615384615385 9.28571428571428 Z M 18 9.28571428571428 L 18 13.4642857142857 L 22.1538461538462 13.4642857142857 L 22.1538461538462 9.28571428571428 L 18 9.28571428571428 Z M 18.3245192307692 6.82645089285714 C 18.4158653846154 6.73456101190476 18.4615384615385 6.62574404761904 18.4615384615385 6.5 L 18.4615384615385 2.32142857142857 C 18.4615384615385 2.19568452380952 18.4158653846154 2.08686755952381 18.3245192307692 1.99497767857143 C 18.2331730769231 1.90308779761905 18.125 1.85714285714286 18 1.85714285714286 L 17.0769230769231 1.85714285714286 C 16.9519230769231 1.85714285714286 16.84375 1.90308779761905 16.7524038461538 1.99497767857143 C 16.6610576923077 2.08686755952381 16.6153846153846 2.19568452380952 16.6153846153846 2.32142857142857 L 16.6153846153846 6.5 C 16.6153846153846 6.62574404761904 16.6610576923077 6.73456101190476 16.7524038461538 6.82645089285714 C 16.84375 6.91834077380952 16.9519230769231 6.96428571428572 17.0769230769231 6.96428571428572 L 18 6.96428571428572 C 18.125 6.96428571428572 18.2331730769231 6.91834077380952 18.3245192307692 6.82645089285714 Z M 23.4519230769231 4.265625 C 23.8173076923077 4.63318452380952 24 5.06845238095238 24 5.57142857142857 L 24 24.1428571428571 C 24 24.6458333333333 23.8173076923077 25.0811011904762 23.4519230769231 25.4486607142857 C 23.0865384615385 25.8162202380952 22.6538461538462 26 22.1538461538462 26 L 1.84615384615385 26 C 1.34615384615385 26 0.913461538461539 25.8162202380952 0.548076923076923 25.4486607142857 C 0.182692307692308 25.0811011904762 0 24.6458333333333 0 24.1428571428571 L 0 5.57142857142857 C 0 5.06845238095238 0.182692307692308 4.63318452380952 0.548076923076923 4.265625 C 0.913461538461539 3.89806547619047 1.34615384615385 3.71428571428572 1.84615384615385 3.71428571428572 L 3.69230769230769 3.71428571428572 L 3.69230769230769 2.32142857142857 C 3.69230769230769 1.68303571428572 3.91826923076923 1.13653273809524 4.37019230769231 0.681919642857144 C 4.82211538461539 0.227306547619048 5.36538461538462 0 6 0 L 6.92307692307692 0 C 7.55769230769231 0 8.10096153846154 0.227306547619048 8.55288461538462 0.681919642857144 C 9.00480769230769 1.13653273809524 9.23076923076923 1.68303571428572 9.23076923076923 2.32142857142857 L 9.23076923076923 3.71428571428572 L 14.7692307692308 3.71428571428572 L 14.7692307692308 2.32142857142857 C 14.7692307692308 1.68303571428572 14.9951923076923 1.13653273809524 15.4471153846154 0.681919642857144 C 15.8990384615385 0.227306547619048 16.4423076923077 0 17.0769230769231 0 L 18 0 C 18.6346153846154 0 19.1778846153846 0.227306547619048 19.6298076923077 0.681919642857144 C 20.0817307692308 1.13653273809524 20.3076923076923 1.68303571428572 20.3076923076923 2.32142857142857 L 20.3076923076923 3.71428571428572 L 22.1538461538462 3.71428571428572 C 22.6538461538462 3.71428571428572 23.0865384615385 3.89806547619047 23.4519230769231 4.265625 Z" transform="matrix(1 0 0 1 -62 -1364 ) matrix(1 0 0 1 62 1364 )"/></g></svg>