<svg xmlns="http://www.w3.org/2000/svg" xmlns:xlink="http://www.w3.org/1999/xlink" width="285" height="44" version="1.1"><g><path fill="#2db6f4" fill-rule="nonzero" stroke="none" d="M 282.995905099629 42.8541954022988 L 0.516494427558233 42.8541954022988 C 0.516494427558233 42.8541954022988 1.31481481481478 7.31494252873562 0.788888888888889 7.31494252873562 C 31.2610020866889 3.90095018350438 28.9259259259258 2.96551724137931 51.5407407407407 2.96551724137931 C 74.1555555555556 2.96551724137931 77.2855341663852 25.7143295019157 96.7703703703703 26.0965517241379 C 116.255206574355 26.4787739463601 122.79195266505 -0.620220751311052 150.414814814815 0.197701149425276 C 165.771372284138 0.652413793103428 185.900427783407 16.4878051450465 206.463492063492 16.9458128078818 C 227.026556343577 17.403820470717 231.773477428796 6.97226053639845 247.485714285714 6.52413793103448 C 263.197951142632 6.07601532567051 265.186358775189 17.8015763546798 282.995905099629 18.2167487684729 C 283.593766182596 18.1969786535304 282.995905099629 42.8541954022988 282.995905099629 42.8541954022988 Z" transform="matrix(1 0 0 1 -18 -1529 ) matrix(1 0 0 1 18 1529 )"/></g></svg>