<svg xmlns="http://www.w3.org/2000/svg" xmlns:xlink="http://www.w3.org/1999/xlink" width="901" height="153" version="1.1"><g><path fill="none" stroke="#2db7f5" stroke-width="2" d="M 0 89.3333333333333 C 0 89.3333333333333 29.8877032520325 88 77.5711382113821 88 C 125.254573170732 88 121.376016260163 116 160.617886178862 116 C 199.859756097561 116 185.524078173185 64.205553807075 245.489837398374 64.6666666666665 C 288.838414634146 65 295.151990908015 82.4816713087945 321.235772357724 82.6666666666665 C 368.234756097561 83 364.128048780488 0.33333333333303 410.670731707317 0.666666666666515 C 457.213414634146 1 433.066054635793 86.6037003010063 486.416666666667 92 C 516.076219512195 95 528.16819105691 91.5 567.638211382114 94 C 607.108231707317 96.5 606.423780487805 147 652.510162601626 147.333333333333 C 698.596544715447 147.666666666667 688.708592472528 129.190878621366 734.644308943089 129.333333333333 C 784.281020990203 129.487265481583 786.662601626016 148.666666666667 823.166666666667 149.333333333333 C 859.670731707317 150 874.574044211516 112.512396694215 897.087398373984 114" transform="matrix(1 0 0 1 -299 -4274 ) matrix(1 0 0 1 300 4275 )"/></g></svg>