<svg xmlns="http://www.w3.org/2000/svg" xmlns:xlink="http://www.w3.org/1999/xlink" width="219" height="116" version="1.1"><g><path fill="#808bc6" fill-rule="nonzero" stroke="none" d="M 217.229251097602 114.610057471264 L 0.396464032421461 114.610057471264 C 0.396464032421461 114.610057471264 1.00925925925924 19.5632183908046 0.605555555555556 19.5632183908046 C 23.996121320064 10.4327737465815 22.2037037037036 7.93103448275862 39.5629629629629 7.93103448275862 C 56.9222222222222 7.93103448275862 59.3248114375774 68.7708812260537 74.2814814814815 69.7931034482759 C 89.2381515253856 70.815325670498 94.2557946513415 -1.658729916297 115.459259259259 0.528735632183878 C 127.247039288529 1.74482758620684 142.698215692897 44.0952928297755 158.48253968254 45.320197044335 C 174.266863672183 46.5451012588944 177.910627040414 18.6467432950191 189.971428571429 17.448275862069 C 202.032230102443 16.2498084291188 203.55854300349 47.6088669950738 217.229251097602 48.7192118226601 C 217.688172633119 48.6663382594417 217.229251097602 114.610057471264 217.229251097602 114.610057471264 Z" transform="matrix(1 0 0 1 -310 -4750 ) matrix(1 0 0 1 310 4750 )"/></g></svg>