<?xml version="1.0" encoding="utf-8"?>
<svg version="1.1" xmlns:xlink="http://www.w3.org/1999/xlink" width="64px" height="64px" xmlns="http://www.w3.org/2000/svg">
  <g transform="matrix(1 0 0 1 -250 -1862 )">
    <path d="M 282 1862  C 299.92 1862  314 1876.08  314 1894  C 314 1911.92  299.92 1926  282 1926  C 264.08 1926  250 1911.92  250 1894  C 250 1876.08  264.08 1862  282 1862  Z " fill-rule="nonzero" fill="#e9e9e9" stroke="none" />
    <path d="M 282 1862.5  C 299.64 1862.5  313.5 1876.36  313.5 1894  C 313.5 1911.64  299.64 1925.5  282 1925.5  C 264.36 1925.5  250.5 1911.64  250.5 1894  C 250.5 1876.36  264.36 1862.5  282 1862.5  Z " stroke-width="1" stroke="#ffffff" fill="none" />
  </g>
</svg>