<svg xmlns="http://www.w3.org/2000/svg" xmlns:xlink="http://www.w3.org/1999/xlink" width="219" height="63" version="1.1"><g><path fill="#2db6f4" fill-rule="nonzero" stroke="none" d="M 217.229251097602 61.7897701149425 L 0.396464032421461 61.7897701149425 C 0.396464032421461 61.7897701149425 1.00925925925924 10.5471264367816 0.605555555555556 10.5471264367816 C 23.996121320064 5.62462584598306 22.2037037037036 4.27586206896552 39.5629629629629 4.27586206896552 C 56.9222222222222 4.27586206896552 59.3248114375774 37.0764750957855 74.2814814814815 37.6275862068966 C 89.2381515253856 38.1786973180076 94.2557946513415 -0.894271780960121 115.459259259259 0.285057471264352 C 127.247039288529 0.940689655172385 142.698215692897 23.7731143951833 158.48253968254 24.4334975369458 C 174.266863672183 25.0938806787083 177.910627040414 10.0530268199233 189.971428571429 9.40689655172414 C 202.032230102443 8.76076628352492 203.55854300349 25.6673891625615 217.229251097602 26.2660098522168 C 217.688172633119 26.2375041050903 217.229251097602 61.7897701149425 217.229251097602 61.7897701149425 Z" transform="matrix(1 0 0 1 -45 -4803 ) matrix(1 0 0 1 45 4803 )"/></g></svg>