<svg xmlns="http://www.w3.org/2000/svg" xmlns:xlink="http://www.w3.org/1999/xlink" width="219" height="164" version="1.1"><g><path fill="#7dc856" fill-rule="nonzero" stroke="none" d="M 217.229251097602 162.447298850575 L 0.396464032421461 162.447298850575 C 0.396464032421461 162.447298850575 1.00925925925924 27.7287356321839 0.605555555555556 27.7287356321839 C 23.996121320064 14.7873227886329 22.2037037037036 11.2413793103448 39.5629629629629 11.2413793103448 C 56.9222222222222 11.2413793103448 59.3248114375774 97.4752490421457 74.2814814814815 98.9241379310345 C 89.2381515253856 100.373026819923 94.2557946513415 -2.35106935962096 115.459259259259 0.749425287356279 C 127.247039288529 2.47310344827579 142.698215692897 62.5002846195949 158.48253968254 64.2364532019704 C 174.266863672183 65.9726217843459 177.910627040414 26.4297318007662 189.971428571429 24.7310344827586 C 202.032230102443 23.032337164751 203.55854300349 67.4803940886699 217.229251097602 69.0541871921182 C 217.688172633119 68.9792446633826 217.229251097602 162.447298850575 217.229251097602 162.447298850575 Z" transform="matrix(1 0 0 1 -575 -4702 ) matrix(1 0 0 1 575 4702 )"/></g></svg>