<?xml version="1.0" encoding="utf-8"?>
<svg version="1.1" xmlns:xlink="http://www.w3.org/1999/xlink" width="28px" height="28px" xmlns="http://www.w3.org/2000/svg">
  <defs>
    <filter x="462px" y="2320px" width="28px" height="28px" filterUnits="userSpaceOnUse" id="filter136">
      <feOffset dx="0" dy="1" in="SourceAlpha" result="shadowOffsetInner" />
      <feGaussianBlur stdDeviation="1" in="shadowOffsetInner" result="shadowGaussian" />
      <feComposite in2="shadowGaussian" operator="atop" in="SourceAlpha" result="shadowComposite" />
      <feColorMatrix type="matrix" values="0 0 0 0 0  0 0 0 0 0  0 0 0 0 0  0 0 0 0.349019607843137 0  " in="shadowComposite" />
    </filter>
    <g id="widget137">
      <path d="M 476 2321  C 482.72 2321  488 2326.28  488 2333  C 488 2339.72  482.72 2345  476 2345  C 469.28 2345  464 2339.72  464 2333  C 464 2326.28  469.28 2321  476 2321  Z " fill-rule="nonzero" fill="#ffffff" stroke="none" />
      <path d="M 476 2321.5  C 482.44 2321.5  487.5 2326.56  487.5 2333  C 487.5 2339.44  482.44 2344.5  476 2344.5  C 469.56 2344.5  464.5 2339.44  464.5 2333  C 464.5 2326.56  469.56 2321.5  476 2321.5  Z " stroke-width="1" stroke="#d9d9d9" fill="none" />
    </g>
  </defs>
  <g transform="matrix(1 0 0 1 -462 -2320 )">
    <use xlink:href="#widget137" filter="url(#filter136)" />
    <use xlink:href="#widget137" />
  </g>
</svg>