<?xml version="1.0" encoding="utf-8"?>
<svg version="1.1" xmlns:xlink="http://www.w3.org/1999/xlink" width="64px" height="64px" xmlns="http://www.w3.org/2000/svg">
  <g transform="matrix(1 0 0 1 -250 -1862 )">
    <path d="M 279.333511537484 1862.61306260062  C 280.22026999089 1862.53772771924  281.109897522075 1862.5  282 1862.5  C 299.39696961967 1862.5  313.5 1876.60303038033  313.5 1894  C 313.5 1911.39696961967  299.39696961967 1925.5  282 1925.5  C 264.60303038033 1925.5  250.5 1911.39696961967  250.5 1894  C 250.5 1888.63735536427  251.869029054164 1883.36633840497  254.473635776507 1878.68499647495  L 281.75 1894.43301270189  A 0.5 0.5 0 0 0 282.497470760719 1893.9497720971 L 279.333511537502 1862.61306260062  Z " fill-rule="nonzero" fill="#99d5fd" stroke="none" />
    <path d="M 279.333511537484 1862.61306260062  C 280.22026999089 1862.53772771924  281.109897522075 1862.5  282 1862.5  C 299.39696961967 1862.5  313.5 1876.60303038033  313.5 1894  C 313.5 1911.39696961967  299.39696961967 1925.5  282 1925.5  C 264.60303038033 1925.5  250.5 1911.39696961967  250.5 1894  C 250.5 1888.63735536427  251.869029054164 1883.36633840497  254.473635776507 1878.68499647495  L 281.75 1894.43301270189  A 0.5 0.5 0 0 0 282.497470760719 1893.9497720971 L 279.333511537502 1862.61306260062  Z " stroke-width="1" stroke="#ffffff" fill="none" />
  </g>
</svg>