<svg xmlns="http://www.w3.org/2000/svg" xmlns:xlink="http://www.w3.org/1999/xlink" width="64" height="28" version="1.1"><defs><mask id="clip1622" fill="#fff"><path fill-rule="evenodd" d="M 64 24 L 64 4 C 64 1.76 62.24 0 60 0 L 0 0 L 0 28 L 60 28 C 62.24 28 64 26.24 64 24 Z"/></mask></defs><g><path fill="#fff" fill-rule="nonzero" stroke="none" d="M 64 24 L 64 4 C 64 1.76 62.24 0 60 0 L 0 0 L 0 28 L 60 28 C 62.24 28 64 26.24 64 24 Z" transform="matrix(1 0 0 1 -173 -6365 ) matrix(1 0 0 1 173 6365 )"/><path fill="none" stroke="#d9d9d9" stroke-width="2" d="M 64 24 L 64 4 C 64 1.76 62.24 0 60 0 L 0 0 L 0 28 L 60 28 C 62.24 28 64 26.24 64 24 Z" mask="url(#clip1622)" transform="matrix(1 0 0 1 -173 -6365 ) matrix(1 0 0 1 173 6365 )"/></g></svg>