<?xml version="1.0" encoding="utf-8"?>
<svg version="1.1" xmlns:xlink="http://www.w3.org/1999/xlink" width="64px" height="28px" xmlns="http://www.w3.org/2000/svg">
  <defs>
    <mask fill="white" id="clip1622">
      <path d="M 64 24  L 64 4  C 64 1.76  62.24 0  60 0  L 0 0  L 0 28  L 60 28  C 62.24 28  64 26.24  64 24  Z " fill-rule="evenodd" />
    </mask>
  </defs>
  <g transform="matrix(1 0 0 1 -173 -6365 )">
    <path d="M 64 24  L 64 4  C 64 1.76  62.24 0  60 0  L 0 0  L 0 28  L 60 28  C 62.24 28  64 26.24  64 24  Z " fill-rule="nonzero" fill="#ffffff" stroke="none" transform="matrix(1 0 0 1 173 6365 )" />
    <path d="M 64 24  L 64 4  C 64 1.76  62.24 0  60 0  L 0 0  L 0 28  L 60 28  C 62.24 28  64 26.24  64 24  Z " stroke-width="2" stroke="#d9d9d9" fill="none" transform="matrix(1 0 0 1 173 6365 )" mask="url(#clip1622)" />
  </g>
</svg>