<?xml version="1.0" encoding="utf-8"?>
<svg version="1.1" xmlns:xlink="http://www.w3.org/1999/xlink" width="144px" height="81px" xmlns="http://www.w3.org/2000/svg">
  <defs>
    <mask fill="white" id="clip108">
      <path d="M 0 69.0892857142858  L 0 3.91071428571422  C 0 1.72071428571439  2.63999999999999 0  6 0  L 130 0  C 133.36 0  136 1.72071428571439  136 3.91071428571422  L 136 69.0892857142858  C 136 71.2792857142858  133.36 73  130 73  L 6 73  C 2.63999999999999 73  0 71.2792857142858  0 69.0892857142858  Z " fill-rule="evenodd" />
    </mask>
    <filter x="744px" y="13032px" width="144px" height="81px" filterUnits="userSpaceOnUse" id="filter109">
      <feOffset dx="0" dy="0" in="SourceAlpha" result="shadowOffsetInner" />
      <feGaussianBlur stdDeviation="2" in="shadowOffsetInner" result="shadowGaussian" />
      <feComposite in2="shadowGaussian" operator="atop" in="SourceAlpha" result="shadowComposite" />
      <feColorMatrix type="matrix" values="0 0 0 0 0  0 0 0 0 0  0 0 0 0 0  0 0 0 0.149019607843137 0  " in="shadowComposite" />
    </filter>
    <g id="widget110">
      <path d="M 0 69.0892857142858  L 0 3.91071428571422  C 0 1.72071428571439  2.63999999999999 0  6 0  L 130 0  C 133.36 0  136 1.72071428571439  136 3.91071428571422  L 136 69.0892857142858  C 136 71.2792857142858  133.36 73  130 73  L 6 73  C 2.63999999999999 73  0 71.2792857142858  0 69.0892857142858  Z " fill-rule="nonzero" fill="#ffffff" stroke="none" transform="matrix(1 0 0 1 748 13036 )" />
      <path d="M 0 69.0892857142858  L 0 3.91071428571422  C 0 1.72071428571439  2.63999999999999 0  6 0  L 130 0  C 133.36 0  136 1.72071428571439  136 3.91071428571422  L 136 69.0892857142858  C 136 71.2792857142858  133.36 73  130 73  L 6 73  C 2.63999999999999 73  0 71.2792857142858  0 69.0892857142858  Z " stroke-width="2" stroke="#ebebeb" fill="none" transform="matrix(1 0 0 1 748 13036 )" mask="url(#clip108)" />
    </g>
  </defs>
  <g transform="matrix(1 0 0 1 -744 -13032 )">
    <use xlink:href="#widget110" filter="url(#filter109)" />
    <use xlink:href="#widget110" />
  </g>
</svg>