<?xml version="1.0" encoding="utf-8"?>
<svg version="1.1" xmlns:xlink="http://www.w3.org/1999/xlink" width="902px" height="181px" xmlns="http://www.w3.org/2000/svg">
  <g transform="matrix(1 0 0 1 -328 -13066 )">
    <path d="M 900.315349544073 179.5  L 1.64316109422493 179.5  C 1.64316109422493 179.5  0.273860182370825 89.8000000000001  0.273860182370825 90.2  C 13.583641947174 89.8220244596549  49.7838640428152 88  77.5937183383992 88  C 125.29103343465 88  121.41134751773 116  160.664640324215 116  C 199.917933130699 116  185.578082244112 64.205553807075  245.561296859169 64.6666666666665  C 288.922492401216 65  295.237906489476 82.4816713087945  321.32928064843 82.6666666666665  C 368.341945288754 83  364.234042553191 0.33333333333303  410.790273556231 0.666666666666515  C 457.346504559271 1  433.192115523205 86.6037003010063  486.558257345492 92  C 516.226443768997 95  528.321935157042 91.5  567.803444782168 94  C 607.284954407295 96.5  606.600303951368 147  652.700101317122 147.333333333333  C 698.799898682877 147.666666666667  688.909068163028 129.190878621366  734.858156028369 129.333333333333  C 784.509316790412 129.487265481583  786.891590678825 148.666666666667  823.406281661601 149.333333333333  C 854.019811194199 149.892259593945  878.543465045593 115  898.261398176292 116  C 898.809118541034 116.6  900.315349544073 179.5  900.315349544073 179.5  Z " fill-rule="nonzero" fill="#49a9ee" stroke="none" transform="matrix(1 0 0 1 328 13066 )" />
  </g>
</svg>