<svg xmlns="http://www.w3.org/2000/svg" xmlns:xlink="http://www.w3.org/1999/xlink" width="10" height="6" version="1.1"><g><path fill="#656565" fill-rule="nonzero" stroke="none" d="M 9.814453125 0.197916666666686 C 9.93815104166663 0.329861111111086 10 0.486111111111114 10 0.666666666666686 C 10 0.847222222222257 9.93815104166663 1.0034722222222 9.814453125 1.13541666666669 L 5.439453125 5.80208333333331 C 5.31575520833337 5.9340277777778 5.16927083333337 6 5 6 C 4.83072916666663 6 4.68424479166663 5.9340277777778 4.560546875 5.80208333333331 L 0.185546875 1.13541666666669 C 0.0618489583333712 1.0034722222222 0 0.847222222222257 0 0.666666666666686 C 0 0.486111111111114 0.0618489583333712 0.329861111111086 0.185546875 0.197916666666686 C 0.309244791666629 0.0659722222222001 0.455729166666629 0 0.625 0 L 9.375 0 C 9.54427083333337 0 9.69075520833337 0.0659722222222001 9.814453125 0.197916666666686 Z" transform="matrix(1 0 0 1 -142 -6085 ) matrix(1 0 0 1 142 6085 )"/></g></svg>