<svg xmlns="http://www.w3.org/2000/svg" xmlns:xlink="http://www.w3.org/1999/xlink" width="144" height="81" version="1.1"><defs><mask id="clip1626" fill="#fff"><path fill-rule="evenodd" d="M 0 69.0892857142858 L 0 3.91071428571422 C 0 1.72071428571439 2.63999999999999 0 6 0 L 130 0 C 133.36 0 136 1.72071428571439 136 3.91071428571422 L 136 69.0892857142858 C 136 71.2792857142858 133.36 73 130 73 L 6 73 C 2.63999999999999 73 0 71.2792857142858 0 69.0892857142858 Z"/></mask><filter id="filter1627" width="144" height="81" x="720" y="7498" filterUnits="userSpaceOnUse"><feOffset dx="0" dy="0" in="SourceAlpha" result="shadowOffsetInner"/><feGaussianBlur in="shadowOffsetInner" result="shadowGaussian" stdDeviation="2"/><feComposite in="SourceAlpha" in2="shadowGaussian" operator="atop" result="shadowComposite"/><feColorMatrix in="shadowComposite" type="matrix" values="0 0 0 0 0 0 0 0 0 0 0 0 0 0 0 0 0 0 0.149019607843137 0"/></filter><g id="widget1628"><path fill="#fff" fill-rule="nonzero" stroke="none" d="M 0 69.0892857142858 L 0 3.91071428571422 C 0 1.72071428571439 2.63999999999999 0 6 0 L 130 0 C 133.36 0 136 1.72071428571439 136 3.91071428571422 L 136 69.0892857142858 C 136 71.2792857142858 133.36 73 130 73 L 6 73 C 2.63999999999999 73 0 71.2792857142858 0 69.0892857142858 Z" transform="matrix(1 0 0 1 724 7502 )"/><path fill="none" stroke="#ebebeb" stroke-width="2" d="M 0 69.0892857142858 L 0 3.91071428571422 C 0 1.72071428571439 2.63999999999999 0 6 0 L 130 0 C 133.36 0 136 1.72071428571439 136 3.91071428571422 L 136 69.0892857142858 C 136 71.2792857142858 133.36 73 130 73 L 6 73 C 2.63999999999999 73 0 71.2792857142858 0 69.0892857142858 Z" mask="url(#clip1626)" transform="matrix(1 0 0 1 724 7502 )"/></g></defs><g transform="matrix(1 0 0 1 -720 -7498 )"><use filter="url(#filter1627)" xlink:href="#widget1628"/><use xlink:href="#widget1628"/></g></svg>