<?xml version="1.0" encoding="utf-8"?>
<svg version="1.1" xmlns:xlink="http://www.w3.org/1999/xlink" width="10px" height="10px" xmlns="http://www.w3.org/2000/svg">
  <g transform="matrix(1 0 0 1 -723 -4795 )">
    <path d="M 728 4795  C 730.8 4795  733 4797.2  733 4800  C 733 4802.8  730.8 4805  728 4805  C 725.2 4805  723 4802.8  723 4800  C 723 4797.2  725.2 4795  728 4795  Z " fill-rule="nonzero" fill="#ffffff" stroke="none" fill-opacity="0" />
    <path d="M 728 4795.5  C 730.52 4795.5  732.5 4797.48  732.5 4800  C 732.5 4802.52  730.52 4804.5  728 4804.5  C 725.48 4804.5  723.5 4802.52  723.5 4800  C 723.5 4797.48  725.48 4795.5  728 4795.5  Z " stroke-width="1" stroke="#1890ff" fill="none" />
  </g>
</svg>