<svg xmlns="http://www.w3.org/2000/svg" xmlns:xlink="http://www.w3.org/1999/xlink" width="88" height="32" version="1.1"><g><path fill="#fff" fill-rule="nonzero" stroke="none" d="M 691 1363 A 3 3 0 0 1 694 1360 L 777 1360 L 777 1390 L 694 1390 A 3 3 0 0 1 691 1387 L 691 1363 Z" transform="matrix(1 0 0 1 -690 -1359 )"/><path fill="none" stroke="#1890ff" stroke-opacity=".847" stroke-width="1" d="M 690.5 1363 A 3.5 3.5 0 0 1 694 1359.5 L 777.5 1359.5 L 777.5 1390.5 L 694 1390.5 A 3.5 3.5 0 0 1 690.5 1387 L 690.5 1363 Z" transform="matrix(1 0 0 1 -690 -1359 )"/></g></svg>