<svg xmlns="http://www.w3.org/2000/svg" xmlns:xlink="http://www.w3.org/1999/xlink" width="60" height="32" version="1.1"><defs><mask id="clip1629" fill="#fff"><path fill-rule="evenodd" d="M 60 27.4285714285714 L 60 4.57142857142857 C 60 2.01142857142857 58.35 0 56.25 0 L 0 0 L 0 32 L 56.25 32 C 58.35 32 60 29.9885714285714 60 27.4285714285714 Z"/></mask></defs><g><path fill="#fff" fill-rule="nonzero" stroke="none" d="M 60 27.4285714285714 L 60 4.57142857142857 C 60 2.01142857142857 58.35 0 56.25 0 L 0 0 L 0 32 L 56.25 32 C 58.35 32 60 29.9885714285714 60 27.4285714285714 Z" transform="matrix(1 0 0 1 -838 -1359 ) matrix(1 0 0 1 838 1359 )"/><path fill="none" stroke="#d9d9d9" stroke-width="2" d="M 60 27.4285714285714 L 60 4.57142857142857 C 60 2.01142857142857 58.35 0 56.25 0 L 0 0 L 0 32 L 56.25 32 C 58.35 32 60 29.9885714285714 60 27.4285714285714 Z" mask="url(#clip1629)" transform="matrix(1 0 0 1 -838 -1359 ) matrix(1 0 0 1 838 1359 )"/></g></svg>