<svg xmlns="http://www.w3.org/2000/svg" xmlns:xlink="http://www.w3.org/1999/xlink" width="64" height="64" version="1.1"><g><path fill="#e9e9e9" fill-rule="nonzero" stroke="none" d="M 282 1862 C 299.92 1862 314 1876.08 314 1894 C 314 1911.92 299.92 1926 282 1926 C 264.08 1926 250 1911.92 250 1894 C 250 1876.08 264.08 1862 282 1862 Z" transform="matrix(1 0 0 1 -250 -1862 )"/><path fill="none" stroke="#fff" stroke-width="1" d="M 282 1862.5 C 299.64 1862.5 313.5 1876.36 313.5 1894 C 313.5 1911.64 299.64 1925.5 282 1925.5 C 264.36 1925.5 250.5 1911.64 250.5 1894 C 250.5 1876.36 264.36 1862.5 282 1862.5 Z" transform="matrix(1 0 0 1 -250 -1862 )"/></g></svg>