<svg xmlns="http://www.w3.org/2000/svg" xmlns:xlink="http://www.w3.org/1999/xlink" width="39" height="39" version="1.1"><g><path fill="#fff" fill-rule="nonzero" stroke="none" d="M 281.5 1874 C 292.42 1874 301 1882.58 301 1893.5 C 301 1904.42 292.42 1913 281.5 1913 C 270.58 1913 262 1904.42 262 1893.5 C 262 1882.58 270.58 1874 281.5 1874 Z" transform="matrix(1 0 0 1 -262 -1874 )"/><path fill="none" stroke="#fff" stroke-width="1" d="M 281.5 1874.5 C 292.14 1874.5 300.5 1882.86 300.5 1893.5 C 300.5 1904.14 292.14 1912.5 281.5 1912.5 C 270.86 1912.5 262.5 1904.14 262.5 1893.5 C 262.5 1882.86 270.86 1874.5 281.5 1874.5 Z" transform="matrix(1 0 0 1 -262 -1874 )"/></g></svg>