<svg xmlns="http://www.w3.org/2000/svg" xmlns:xlink="http://www.w3.org/1999/xlink" width="8" height="8" version="1.1"><g><path fill="#2fc25b" fill-rule="nonzero" stroke="none" d="M 370 2170 C 372.24 2170 374 2171.76 374 2174 C 374 2176.24 372.24 2178 370 2178 C 367.76 2178 366 2176.24 366 2174 C 366 2171.76 367.76 2170 370 2170 Z" transform="matrix(1 0 0 1 -366 -2170 )"/><path fill="none" stroke="#fff" stroke-width="1" d="M 370 2170.5 C 371.96 2170.5 373.5 2172.04 373.5 2174 C 373.5 2175.96 371.96 2177.5 370 2177.5 C 368.04 2177.5 366.5 2175.96 366.5 2174 C 366.5 2172.04 368.04 2170.5 370 2170.5 Z" transform="matrix(1 0 0 1 -366 -2170 )"/></g></svg>