<svg xmlns="http://www.w3.org/2000/svg" xmlns:xlink="http://www.w3.org/1999/xlink" width="28" height="28" version="1.1"><defs><filter id="filter1630" width="28" height="28" x="462" y="2320" filterUnits="userSpaceOnUse"><feOffset dx="0" dy="1" in="SourceAlpha" result="shadowOffsetInner"/><feGaussianBlur in="shadowOffsetInner" result="shadowGaussian" stdDeviation="1"/><feComposite in="SourceAlpha" in2="shadowGaussian" operator="atop" result="shadowComposite"/><feColorMatrix in="shadowComposite" type="matrix" values="0 0 0 0 0 0 0 0 0 0 0 0 0 0 0 0 0 0 0.349019607843137 0"/></filter><g id="widget1631"><path fill="#fff" fill-rule="nonzero" stroke="none" d="M 476 2321 C 482.72 2321 488 2326.28 488 2333 C 488 2339.72 482.72 2345 476 2345 C 469.28 2345 464 2339.72 464 2333 C 464 2326.28 469.28 2321 476 2321 Z"/><path fill="none" stroke="#d9d9d9" stroke-width="1" d="M 476 2321.5 C 482.44 2321.5 487.5 2326.56 487.5 2333 C 487.5 2339.44 482.44 2344.5 476 2344.5 C 469.56 2344.5 464.5 2339.44 464.5 2333 C 464.5 2326.56 469.56 2321.5 476 2321.5 Z"/></g></defs><g transform="matrix(1 0 0 1 -462 -2320 )"><use filter="url(#filter1630)" xlink:href="#widget1631"/><use xlink:href="#widget1631"/></g></svg>