<svg xmlns="http://www.w3.org/2000/svg" xmlns:xlink="http://www.w3.org/1999/xlink" width="64" height="64" version="1.1"><g><path fill="#99d5fd" fill-rule="nonzero" stroke="none" d="M 970.333511537483 1862.61306260062 C 971.22026999089 1862.53772771924 972.109897522075 1862.5 973 1862.5 C 990.39696961967 1862.5 1004.5 1876.60303038033 1004.5 1894 C 1004.5 1897.66574587582 1003.86015349941 1901.30205982673 1002.61053495812 1904.7455215092 L 973.466461790861 1893.64265085702 L 970.333511537502 1862.61306260062 Z" transform="matrix(1 0 0 1 -941 -1862 )"/><path fill="none" stroke="#fff" stroke-width="1" d="M 970.333511537483 1862.61306260062 C 971.22026999089 1862.53772771924 972.109897522075 1862.5 973 1862.5 C 990.39696961967 1862.5 1004.5 1876.60303038033 1004.5 1894 C 1004.5 1897.66574587582 1003.86015349941 1901.30205982673 1002.61053495812 1904.7455215092 L 973.466461790861 1893.64265085702 L 970.333511537502 1862.61306260062 Z" transform="matrix(1 0 0 1 -941 -1862 )"/></g></svg>