<svg xmlns="http://www.w3.org/2000/svg" xmlns:xlink="http://www.w3.org/1999/xlink" width="8" height="8" version="1.1"><g><path fill="#1890ff" fill-rule="nonzero" stroke="none" d="M 370 2190 C 372.24 2190 374 2191.76 374 2194 C 374 2196.24 372.24 2198 370 2198 C 367.76 2198 366 2196.24 366 2194 C 366 2191.76 367.76 2190 370 2190 Z" transform="matrix(1 0 0 1 -366 -2190 )"/><path fill="none" stroke="#fff" stroke-width="1" d="M 370 2190.5 C 371.96 2190.5 373.5 2192.04 373.5 2194 C 373.5 2195.96 371.96 2197.5 370 2197.5 C 368.04 2197.5 366.5 2195.96 366.5 2194 C 366.5 2192.04 368.04 2190.5 370 2190.5 Z" transform="matrix(1 0 0 1 -366 -2190 )"/></g></svg>