<svg xmlns="http://www.w3.org/2000/svg" xmlns:xlink="http://www.w3.org/1999/xlink" width="64" height="64" version="1.1"><g><path fill="#99d5fd" fill-rule="nonzero" stroke="none" d="M 749.333511537483 1862.61306260062 C 750.22026999089 1862.53772771924 751.109897522075 1862.5 752 1862.5 C 769.39696961967 1862.5 783.5 1876.60303038033 783.5 1894 C 783.5 1905.96871677607 776.719064607497 1916.88769656238 766.027901691843 1922.20406607265 L 752.488718347843 1893.8630858283 L 749.333511537502 1862.61306260062 Z" transform="matrix(1 0 0 1 -720 -1862 )"/><path fill="none" stroke="#fff" stroke-width="1" d="M 749.333511537483 1862.61306260062 C 750.22026999089 1862.53772771924 751.109897522075 1862.5 752 1862.5 C 769.39696961967 1862.5 783.5 1876.60303038033 783.5 1894 C 783.5 1905.96871677607 776.719064607497 1916.88769656238 766.027901691843 1922.20406607265 L 752.488718347843 1893.8630858283 L 749.333511537502 1862.61306260062 Z" transform="matrix(1 0 0 1 -720 -1862 )"/></g></svg>