<svg xmlns="http://www.w3.org/2000/svg" xmlns:xlink="http://www.w3.org/1999/xlink" width="64" height="64" version="1.1"><g><path fill="#99d5fd" fill-rule="nonzero" stroke="none" d="M 279.333511537484 1862.61306260062 C 280.22026999089 1862.53772771924 281.109897522075 1862.5 282 1862.5 C 299.39696961967 1862.5 313.5 1876.60303038033 313.5 1894 C 313.5 1911.39696961967 299.39696961967 1925.5 282 1925.5 C 264.60303038033 1925.5 250.5 1911.39696961967 250.5 1894 C 250.5 1888.63735536427 251.869029054164 1883.36633840497 254.473635776507 1878.68499647495 L 281.75 1894.43301270189 A 0.5 0.5 0 0 0 282.497470760719 1893.9497720971 L 279.333511537502 1862.61306260062 Z" transform="matrix(1 0 0 1 -250 -1862 )"/><path fill="none" stroke="#fff" stroke-width="1" d="M 279.333511537484 1862.61306260062 C 280.22026999089 1862.53772771924 281.109897522075 1862.5 282 1862.5 C 299.39696961967 1862.5 313.5 1876.60303038033 313.5 1894 C 313.5 1911.39696961967 299.39696961967 1925.5 282 1925.5 C 264.60303038033 1925.5 250.5 1911.39696961967 250.5 1894 C 250.5 1888.63735536427 251.869029054164 1883.36633840497 254.473635776507 1878.68499647495 L 281.75 1894.43301270189 A 0.5 0.5 0 0 0 282.497470760719 1893.9497720971 L 279.333511537502 1862.61306260062 Z" transform="matrix(1 0 0 1 -250 -1862 )"/></g></svg>