<?xml version="1.0" encoding="utf-8"?>
<svg version="1.1" xmlns:xlink="http://www.w3.org/1999/xlink" width="72px" height="72px" xmlns="http://www.w3.org/2000/svg">
  <g transform="matrix(1 0 0 1 -1106 -3627 )">
    <path d="M 1142 3627  C 1162.16 3627  1178 3642.84  1178 3663  C 1178 3683.16  1162.16 3699  1142 3699  C 1121.84 3699  1106 3683.16  1106 3663  C 1106 3642.84  1121.84 3627  1142 3627  Z " fill-rule="nonzero" fill="#e9e9e9" stroke="none" />
    <path d="M 1142 3627.5  C 1161.88 3627.5  1177.5 3643.12  1177.5 3663  C 1177.5 3682.88  1161.88 3698.5  1142 3698.5  C 1122.12 3698.5  1106.5 3682.88  1106.5 3663  C 1106.5 3643.12  1122.12 3627.5  1142 3627.5  Z " stroke-width="1" stroke="#ffffff" fill="none" />
  </g>
</svg>