<svg xmlns="http://www.w3.org/2000/svg" xmlns:xlink="http://www.w3.org/1999/xlink" width="44" height="44" version="1.1"><g><path fill="#fff" fill-rule="nonzero" stroke="none" d="M 1142 3641 C 1154.32 3641 1164 3650.68 1164 3663 C 1164 3675.32 1154.32 3685 1142 3685 C 1129.68 3685 1120 3675.32 1120 3663 C 1120 3650.68 1129.68 3641 1142 3641 Z" transform="matrix(1 0 0 1 -1120 -3641 )"/><path fill="none" stroke="#fff" stroke-width="1" d="M 1142 3641.5 C 1154.04 3641.5 1163.5 3650.96 1163.5 3663 C 1163.5 3675.04 1154.04 3684.5 1142 3684.5 C 1129.96 3684.5 1120.5 3675.04 1120.5 3663 C 1120.5 3650.96 1129.96 3641.5 1142 3641.5 Z" transform="matrix(1 0 0 1 -1120 -3641 )"/></g></svg>