<svg xmlns="http://www.w3.org/2000/svg" xmlns:xlink="http://www.w3.org/1999/xlink" width="33" height="33" version="1.1"><g><path fill="#1890ff" fill-opacity=".298" fill-rule="nonzero" stroke="none" d="M 724.5 4379 C 733.74 4379 741 4386.26 741 4395.5 C 741 4404.74 733.74 4412 724.5 4412 C 715.26 4412 708 4404.74 708 4395.5 C 708 4386.26 715.26 4379 724.5 4379 Z" transform="matrix(1 0 0 1 -708 -4379 )"/><path fill="none" stroke="#1890ff" stroke-width="1" d="M 724.5 4379.5 C 733.46 4379.5 740.5 4386.54 740.5 4395.5 C 740.5 4404.46 733.46 4411.5 724.5 4411.5 C 715.54 4411.5 708.5 4404.46 708.5 4395.5 C 708.5 4386.54 715.54 4379.5 724.5 4379.5 Z" transform="matrix(1 0 0 1 -708 -4379 )"/></g></svg>