<svg xmlns="http://www.w3.org/2000/svg" xmlns:xlink="http://www.w3.org/1999/xlink" width="15" height="15" version="1.1"><g><path fill="#1890ff" fill-opacity=".298" fill-rule="nonzero" stroke="none" d="M 548.5 4476 C 552.7 4476 556 4479.3 556 4483.5 C 556 4487.7 552.7 4491 548.5 4491 C 544.3 4491 541 4487.7 541 4483.5 C 541 4479.3 544.3 4476 548.5 4476 Z" transform="matrix(1 0 0 1 -541 -4476 )"/><path fill="none" stroke="#1890ff" stroke-width="1" d="M 548.5 4476.5 C 552.42 4476.5 555.5 4479.58 555.5 4483.5 C 555.5 4487.42 552.42 4490.5 548.5 4490.5 C 544.58 4490.5 541.5 4487.42 541.5 4483.5 C 541.5 4479.58 544.58 4476.5 548.5 4476.5 Z" transform="matrix(1 0 0 1 -541 -4476 )"/></g></svg>