<svg xmlns="http://www.w3.org/2000/svg" xmlns:xlink="http://www.w3.org/1999/xlink" width="28" height="28" version="1.1"><g><path fill="#1890ff" fill-opacity=".298" fill-rule="nonzero" stroke="none" d="M 664 4427 C 671.84 4427 678 4433.16 678 4441 C 678 4448.84 671.84 4455 664 4455 C 656.16 4455 650 4448.84 650 4441 C 650 4433.16 656.16 4427 664 4427 Z" transform="matrix(1 0 0 1 -650 -4427 )"/><path fill="none" stroke="#1890ff" stroke-width="1" d="M 664 4427.5 C 671.56 4427.5 677.5 4433.44 677.5 4441 C 677.5 4448.56 671.56 4454.5 664 4454.5 C 656.44 4454.5 650.5 4448.56 650.5 4441 C 650.5 4433.44 656.44 4427.5 664 4427.5 Z" transform="matrix(1 0 0 1 -650 -4427 )"/></g></svg>