<svg xmlns="http://www.w3.org/2000/svg" xmlns:xlink="http://www.w3.org/1999/xlink" width="7" height="7" version="1.1"><g><path fill="#1890ff" fill-rule="nonzero" stroke="none" d="M 979.5 4506 C 981.46 4506 983 4507.54 983 4509.5 C 983 4511.46 981.46 4513 979.5 4513 C 977.54 4513 976 4511.46 976 4509.5 C 976 4507.54 977.54 4506 979.5 4506 Z" transform="matrix(1 0 0 1 -976 -4506 )"/><path fill="none" stroke="#fff" stroke-width="1" d="M 979.5 4506.5 C 981.18 4506.5 982.5 4507.82 982.5 4509.5 C 982.5 4511.18 981.18 4512.5 979.5 4512.5 C 977.82 4512.5 976.5 4511.18 976.5 4509.5 C 976.5 4507.82 977.82 4506.5 979.5 4506.5 Z" transform="matrix(1 0 0 1 -976 -4506 )"/></g></svg>