<svg xmlns="http://www.w3.org/2000/svg" xmlns:xlink="http://www.w3.org/1999/xlink" width="20" height="20" version="1.1"><g><path fill="#1890ff" fill-opacity=".298" fill-rule="nonzero" stroke="none" d="M 605 4448 C 610.6 4448 615 4452.4 615 4458 C 615 4463.6 610.6 4468 605 4468 C 599.4 4468 595 4463.6 595 4458 C 595 4452.4 599.4 4448 605 4448 Z" transform="matrix(1 0 0 1 -595 -4448 )"/><path fill="none" stroke="#1890ff" stroke-width="1" d="M 605 4448.5 C 610.32 4448.5 614.5 4452.68 614.5 4458 C 614.5 4463.32 610.32 4467.5 605 4467.5 C 599.68 4467.5 595.5 4463.32 595.5 4458 C 595.5 4452.68 599.68 4448.5 605 4448.5 Z" transform="matrix(1 0 0 1 -595 -4448 )"/></g></svg>