<svg xmlns="http://www.w3.org/2000/svg" xmlns:xlink="http://www.w3.org/1999/xlink" width="805" height="181" version="1.1"><g><path fill="#1890ff" fill-rule="nonzero" stroke="none" d="M 804 180 L 1.22318575992699 180 C 1.22318575992699 180 0 89.7153258283993 0 90.117933071082 C 11.8895236112846 89.7374938458324 44.2268979533679 87.9035932363268 69.0692225772099 87.9035932363268 C 111.676859881333 87.9035932363268 108.211166894873 116.086100224118 143.275825346113 116.086100224118 C 178.340483797353 116.086100224118 165.530807522327 63.954052304087 219.113342461585 64.4181707465012 C 257.847558192606 64.7536767820703 263.489068041849 82.3492954898689 286.796287844211 82.535496667224 C 328.792332268371 82.8710027027928 325.12277498859 -0.334494118303836 366.711090826107 0.00101191726525939 C 408.299406663624 0.336517952834354 386.7224804724 86.4981923069004 434.394036208733 91.9296656631541 C 460.896394340484 94.9492199832748 471.701201886506 91.4264066098008 506.969724631066 93.9427018765677 C 542.238247375627 96.4589971433347 541.626654495664 147.288161532029 582.807241746539 147.623667567597 C 623.987828997414 147.959173603166 615.152427705415 129.362958399894 656.198387342157 129.506341646875 C 700.551379648093 129.661277141292 702.679446219382 148.965691709873 735.297733150768 149.636703781011 C 762.644558863953 150.199273182631 784.551346417161 115.079582117411 802.165221360109 116.086100224118 C 802.654495664081 116.690011088141 804 180 804 180 Z" transform="matrix(1 0 0 1 -363 -4800 ) matrix(1 0 0 1 363 4800 )"/></g></svg>