<?xml version="1.0" encoding="utf-8"?>
<svg version="1.1" xmlns:xlink="http://www.w3.org/1999/xlink" width="28px" height="32px" xmlns="http://www.w3.org/2000/svg">
  <g transform="matrix(1 0 0 1 -60 -633 )">
    <path d="M 5.92447916666667 12.9464285714286  C 8.42795138888889 13.4583333333333  11.1197916666667 13.7142857142857  14 13.7142857142857  C 16.8802083333333 13.7142857142857  19.5720486111111 13.4583333333333  22.0755208333333 12.9464285714286  C 24.5789930555556 12.4345238095238  26.5538194444444 11.6785714285714  28 10.6785714285714  L 28 13.7142857142857  C 28 14.5357142857143  27.3741319444444 15.297619047619  26.1223958333333 16  C 24.8706597222222 16.7023809523809  23.1692708333333 17.2589285714286  21.0182291666667 17.6696428571429  C 18.8671875 18.0803571428571  16.5277777777778 18.2857142857143  14 18.2857142857143  C 11.4722222222222 18.2857142857143  9.1328125 18.0803571428571  6.98177083333333 17.6696428571429  C 4.83072916666667 17.2589285714286  3.12934027777778 16.7023809523809  1.87760416666667 16  C 0.625868055555555 15.297619047619  0 14.5357142857143  0 13.7142857142857  L 0 10.6785714285714  C 1.44618055555556 11.6785714285714  3.42100694444445 12.4345238095238  5.92447916666667 12.9464285714286  Z M 5.92447916666667 26.6607142857143  C 8.42795138888889 27.172619047619  11.1197916666667 27.4285714285714  14 27.4285714285714  C 16.8802083333333 27.4285714285714  19.5720486111111 27.172619047619  22.0755208333333 26.6607142857143  C 24.5789930555556 26.1488095238095  26.5538194444444 25.3928571428571  28 24.3928571428571  L 28 27.4285714285714  C 28 28.25  27.3741319444444 29.0119047619048  26.1223958333333 29.7142857142857  C 24.8706597222222 30.4166666666667  23.1692708333333 30.9732142857143  21.0182291666667 31.3839285714286  C 18.8671875 31.7946428571429  16.5277777777778 32  14 32  C 11.4722222222222 32  9.1328125 31.7946428571429  6.98177083333333 31.3839285714286  C 4.83072916666667 30.9732142857143  3.12934027777778 30.4166666666667  1.87760416666667 29.7142857142857  C 0.625868055555555 29.0119047619048  0 28.25  0 27.4285714285714  L 0 24.3928571428571  C 1.44618055555556 25.3928571428571  3.42100694444445 26.1488095238095  5.92447916666667 26.6607142857143  Z M 5.92447916666667 19.8035714285714  C 8.42795138888889 20.3154761904762  11.1197916666667 20.5714285714286  14 20.5714285714286  C 16.8802083333333 20.5714285714286  19.5720486111111 20.3154761904762  22.0755208333333 19.8035714285714  C 24.5789930555556 19.2916666666667  26.5538194444444 18.5357142857143  28 17.5357142857143  L 28 20.5714285714286  C 28 21.3928571428571  27.3741319444444 22.1547619047619  26.1223958333333 22.8571428571429  C 24.8706597222222 23.5595238095238  23.1692708333333 24.1160714285714  21.0182291666667 24.5267857142857  C 18.8671875 24.9375  16.5277777777778 25.1428571428571  14 25.1428571428571  C 11.4722222222222 25.1428571428571  9.1328125 24.9375  6.98177083333333 24.5267857142857  C 4.83072916666667 24.1160714285714  3.12934027777778 23.5595238095238  1.87760416666667 22.8571428571429  C 0.625868055555555 22.1547619047619  0 21.3928571428571  0 20.5714285714286  L 0 17.5357142857143  C 1.44618055555556 18.5357142857143  3.42100694444445 19.2916666666667  5.92447916666667 19.8035714285714  Z M 6.98177083333333 0.616071428571427  C 9.1328125 0.205357142857142  11.4722222222222 0  14 0  C 16.5277777777778 0  18.8671875 0.205357142857142  21.0182291666667 0.616071428571427  C 23.1692708333333 1.02678571428572  24.8706597222222 1.58333333333333  26.1223958333333 2.28571428571428  C 27.3741319444444 2.98809523809524  28 3.75  28 4.57142857142857  L 28 6.85714285714286  C 28 7.67857142857143  27.3741319444444 8.44047619047619  26.1223958333333 9.14285714285714  C 24.8706597222222 9.84523809523809  23.1692708333333 10.4017857142857  21.0182291666667 10.8125  C 18.8671875 11.2232142857143  16.5277777777778 11.4285714285714  14 11.4285714285714  C 11.4722222222222 11.4285714285714  9.1328125 11.2232142857143  6.98177083333333 10.8125  C 4.83072916666667 10.4017857142857  3.12934027777778 9.84523809523809  1.87760416666667 9.14285714285714  C 0.625868055555555 8.44047619047619  0 7.67857142857143  0 6.85714285714286  L 0 4.57142857142857  C 0 3.75  0.625868055555555 2.98809523809524  1.87760416666667 2.28571428571428  C 3.12934027777778 1.58333333333333  4.83072916666667 1.02678571428572  6.98177083333333 0.616071428571427  Z " fill-rule="nonzero" fill="#ffffff" stroke="none" transform="matrix(1 0 0 1 60 633 )" />
  </g>
</svg>