<?xml version="1.0" encoding="utf-8"?>
<svg version="1.1" xmlns:xlink="http://www.w3.org/1999/xlink" width="12px" height="12px" xmlns="http://www.w3.org/2000/svg">
  <g transform="matrix(1 0 0 1 -273 -1013 )">
    <path d="M 7.78125 7.078125  C 8.30729166666667 7.46354166666667  8.66666666666667 7.97135416666667  8.859375 8.6015625  C 8.90104166666667 8.73177083333333  8.890625 8.85807291666667  8.828125 8.98046875  C 8.765625 9.10286458333333  8.66927083333333 9.18489583333333  8.5390625 9.2265625  C 8.40885416666667 9.26822916666667  8.28125 9.2578125  8.15625 9.1953125  C 8.03125 9.1328125  7.94791666666667 9.03385416666667  7.90625 8.8984375  C 7.77604166666667 8.48177083333333  7.53515625 8.14453125  7.18359375 7.88671875  C 6.83203125 7.62890625  6.4375 7.5  6 7.5  C 5.5625 7.5  5.16796875 7.62890625  4.81640625 7.88671875  C 4.46484375 8.14453125  4.22395833333333 8.48177083333333  4.09375 8.8984375  C 4.05208333333333 9.03385416666667  3.97005208333333 9.1328125  3.84765625 9.1953125  C 3.72526041666667 9.2578125  3.59895833333333 9.26822916666667  3.46875 9.2265625  C 3.33333333333333 9.18489583333333  3.234375 9.10286458333333  3.171875 8.98046875  C 3.109375 8.85807291666667  3.09895833333333 8.73177083333333  3.140625 8.6015625  C 3.33333333333333 7.97135416666667  3.69270833333333 7.46354166666667  4.21875 7.078125  C 4.74479166666667 6.69270833333333  5.33854166666667 6.5  6 6.5  C 6.66145833333333 6.5  7.25520833333333 6.69270833333333  7.78125 7.078125  Z M 4.70703125 3.29296875  C 4.90234375 3.48828125  5 3.72395833333333  5 4  C 5 4.27604166666667  4.90234375 4.51171875  4.70703125 4.70703125  C 4.51171875 4.90234375  4.27604166666667 5  4 5  C 3.72395833333333 5  3.48828125 4.90234375  3.29296875 4.70703125  C 3.09765625 4.51171875  3 4.27604166666667  3 4  C 3 3.72395833333333  3.09765625 3.48828125  3.29296875 3.29296875  C 3.48828125 3.09765625  3.72395833333333 3  4 3  C 4.27604166666667 3  4.51171875 3.09765625  4.70703125 3.29296875  Z M 8.70703125 3.29296875  C 8.90234375 3.48828125  9 3.72395833333333  9 4  C 9 4.27604166666667  8.90234375 4.51171875  8.70703125 4.70703125  C 8.51171875 4.90234375  8.27604166666667 5  8 5  C 7.72395833333333 5  7.48828125 4.90234375  7.29296875 4.70703125  C 7.09765625 4.51171875  7 4.27604166666667  7 4  C 7 3.72395833333333  7.09765625 3.48828125  7.29296875 3.29296875  C 7.48828125 3.09765625  7.72395833333333 3  8 3  C 8.27604166666667 3  8.51171875 3.09765625  8.70703125 3.29296875  Z M 10.6015625 7.94140625  C 10.8671875 7.32421875  11 6.67708333333333  11 6  C 11 5.32291666666667  10.8671875 4.67578125  10.6015625 4.05859375  C 10.3359375 3.44140625  9.98046875 2.91015625  9.53515625 2.46484375  C 9.08984375 2.01953125  8.55859375 1.6640625  7.94140625 1.3984375  C 7.32421875 1.1328125  6.67708333333333 1  6 1  C 5.32291666666667 1  4.67578125 1.1328125  4.05859375 1.3984375  C 3.44140625 1.6640625  2.91015625 2.01953125  2.46484375 2.46484375  C 2.01953125 2.91015625  1.6640625 3.44140625  1.3984375 4.05859375  C 1.1328125 4.67578125  1 5.32291666666667  1 6  C 1 6.67708333333333  1.1328125 7.32421875  1.3984375 7.94140625  C 1.6640625 8.55859375  2.01953125 9.08984375  2.46484375 9.53515625  C 2.91015625 9.98046875  3.44140625 10.3359375  4.05859375 10.6015625  C 4.67578125 10.8671875  5.32291666666667 11  6 11  C 6.67708333333333 11  7.32421875 10.8671875  7.94140625 10.6015625  C 8.55859375 10.3359375  9.08984375 9.98046875  9.53515625 9.53515625  C 9.98046875 9.08984375  10.3359375 8.55859375  10.6015625 7.94140625  Z M 11.1953125 2.98828125  C 11.7317708333333 3.90755208333333  12 4.91145833333333  12 6  C 12 7.08854166666667  11.7317708333333 8.09244791666667  11.1953125 9.01171875  C 10.6588541666667 9.93098958333333  9.93098958333333 10.6588541666667  9.01171875 11.1953125  C 8.09244791666667 11.7317708333333  7.08854166666667 12  6 12  C 4.91145833333333 12  3.90755208333333 11.7317708333333  2.98828125 11.1953125  C 2.06901041666667 10.6588541666667  1.34114583333333 9.93098958333333  0.8046875 9.01171875  C 0.268229166666667 8.09244791666667  0 7.08854166666667  0 6  C 0 4.91145833333333  0.268229166666667 3.90755208333333  0.8046875 2.98828125  C 1.34114583333333 2.06901041666667  2.06901041666667 1.34114583333333  2.98828125 0.8046875  C 3.90755208333333 0.268229166666666  4.91145833333333 0  6 0  C 7.08854166666667 0  8.09244791666667 0.268229166666666  9.01171875 0.8046875  C 9.93098958333333 1.34114583333333  10.6588541666667 2.06901041666667  11.1953125 2.98828125  Z " fill-rule="nonzero" fill="#989898" stroke="none" transform="matrix(1 0 0 1 273 1013 )" />
  </g>
</svg>