<?xml version="1.0" encoding="utf-8"?>
<svg version="1.1" xmlns:xlink="http://www.w3.org/1999/xlink" width="321px" height="146px" xmlns="http://www.w3.org/2000/svg">
  <g transform="matrix(1 0 0 1 -845 -2385 )">
    <path d="M 318.86862546437 144.508333333333  L 0.581965552178291 144.508333333333  C 0.581965552178291 144.508333333333  1.48148148148145 24.6666666666666  0.888888888888889 24.6666666666666  C 35.2236643230298 13.1543668978636  32.5925925925925 10  58.074074074074 10  C 83.5555555555556 10  87.0822920184622 86.7111111111112  109.037037037037 88  C 130.991782055612 89.2888888888888  138.357129763437 -2.09144206837448  169.481481481481 0.666666666666629  C 186.784644827198 2.19999999999993  209.465270741867 55.5984126984126  232.634920634921 57.1428571428571  C 255.804570527975 58.6873015873016  261.153214004278 23.5111111111111  278.857142857143 22  C 296.561071710008 20.4888888888889  298.801531014297 60.0285714285714  318.86862546437 61.4285714285714  C 319.542271755038 61.3619047619047  318.86862546437 144.508333333333  318.86862546437 144.508333333333  Z " fill-rule="nonzero" fill="#2db6f4" stroke="none" transform="matrix(1 0 0 1 845 2385 )" />
  </g>
</svg>