<?xml version="1.0" encoding="utf-8"?>
<svg version="1.1" xmlns:xlink="http://www.w3.org/1999/xlink" width="136px" height="75px" xmlns="http://www.w3.org/2000/svg">
  <defs>
    <mask fill="white" id="clip80">
      <path d="M 0 70.9821428571429  L 0 4.01785714285714  C 0 1.76785714285714  2.64 0  6 0  L 130 0  C 133.36 0  136 1.76785714285714  136 4.01785714285714  L 136 70.9821428571429  C 136 73.2321428571429  133.36 75  130 75  L 6 75  C 2.64 75  0 73.2321428571429  0 70.9821428571429  Z " fill-rule="evenodd" />
    </mask>
  </defs>
  <g transform="matrix(1 0 0 1 -385 -2346 )">
    <path d="M 0 70.9821428571429  L 0 4.01785714285714  C 0 1.76785714285714  2.64 0  6 0  L 130 0  C 133.36 0  136 1.76785714285714  136 4.01785714285714  L 136 70.9821428571429  C 136 73.2321428571429  133.36 75  130 75  L 6 75  C 2.64 75  0 73.2321428571429  0 70.9821428571429  Z " fill-rule="nonzero" fill="#000000" stroke="none" transform="matrix(1 0 0 1 385 2346 )" />
    <path d="M 0 70.9821428571429  L 0 4.01785714285714  C 0 1.76785714285714  2.64 0  6 0  L 130 0  C 133.36 0  136 1.76785714285714  136 4.01785714285714  L 136 70.9821428571429  C 136 73.2321428571429  133.36 75  130 75  L 6 75  C 2.64 75  0 73.2321428571429  0 70.9821428571429  Z " stroke-width="2" stroke="#ebebeb" fill="none" transform="matrix(1 0 0 1 385 2346 )" mask="url(#clip80)" />
  </g>
</svg>