<?xml version="1.0" encoding="utf-8"?>
<svg version="1.1" xmlns:xlink="http://www.w3.org/1999/xlink" width="107px" height="75px" xmlns="http://www.w3.org/2000/svg">
  <defs>
    <mask fill="white" id="clip1452">
      <path d="M 0 70.9821428571429  L 0 4.01785714285714  C 0 1.76785714285714  2.07705882352941 0  4.72058823529412 0  L 102.279411764706 0  C 104.922941176471 0  107 1.76785714285714  107 4.01785714285714  L 107 70.9821428571429  C 107 73.2321428571429  104.922941176471 75  102.279411764706 75  L 4.72058823529412 75  C 2.07705882352941 75  0 73.2321428571429  0 70.9821428571429  Z " fill-rule="evenodd" />
    </mask>
  </defs>
  <g transform="matrix(1 0 0 1 -721 -4269 )">
    <path d="M 0 70.9821428571429  L 0 4.01785714285714  C 0 1.76785714285714  2.07705882352941 0  4.72058823529412 0  L 102.279411764706 0  C 104.922941176471 0  107 1.76785714285714  107 4.01785714285714  L 107 70.9821428571429  C 107 73.2321428571429  104.922941176471 75  102.279411764706 75  L 4.72058823529412 75  C 2.07705882352941 75  0 73.2321428571429  0 70.9821428571429  Z " fill-rule="nonzero" fill="#000000" stroke="none" transform="matrix(1 0 0 1 721 4269 )" />
    <path d="M 0 70.9821428571429  L 0 4.01785714285714  C 0 1.76785714285714  2.07705882352941 0  4.72058823529412 0  L 102.279411764706 0  C 104.922941176471 0  107 1.76785714285714  107 4.01785714285714  L 107 70.9821428571429  C 107 73.2321428571429  104.922941176471 75  102.279411764706 75  L 4.72058823529412 75  C 2.07705882352941 75  0 73.2321428571429  0 70.9821428571429  Z " stroke-width="2" stroke="#ebebeb" fill="none" transform="matrix(1 0 0 1 721 4269 )" mask="url(#clip1452)" />
  </g>
</svg>