<?xml version="1.0" encoding="utf-8"?>
<svg version="1.1" xmlns:xlink="http://www.w3.org/1999/xlink" width="153px" height="30px" xmlns="http://www.w3.org/2000/svg">
  <g transform="matrix(1 0 0 1 -42 -2005 )">
    <path d="M 151.462597095576 28.9016666666667  L 0.276433637284688 28.9016666666667  C 0.276433637284688 28.9016666666667  0.703703703703688 4.93333333333333  0.422222222222222 4.93333333333333  C 16.7312405534391 2.63087337957272  15.4814814814814 2  27.5851851851852 2  C 39.6888888888889 2  41.3640887087695 17.3422222222222  51.7925925925926 17.6  C 62.2210964764156 17.8577777777778  65.7196366376326 -0.418288413674895  80.5037037037037 0.133333333333326  C 88.722706292919 0.439999999999986  99.4960036023866 11.1196825396825  110.501587301587 11.4285714285714  C 121.507171000788 11.7374603174603  124.047776652032 4.70222222222221  132.457142857143 4.4  C 140.866509062254 4.09777777777779  141.930727231791 12.0057142857143  151.462597095576 12.2857142857143  C 151.782579083643 12.2723809523809  151.462597095576 28.9016666666667  151.462597095576 28.9016666666667  Z " fill-rule="nonzero" fill="#2db6f4" stroke="none" transform="matrix(1 0 0 1 42 2005 )" />
  </g>
</svg>