<?xml version="1.0" encoding="utf-8"?>
<svg version="1.1" xmlns:xlink="http://www.w3.org/1999/xlink" width="598px" height="358px" xmlns="http://www.w3.org/2000/svg">
  <defs>
    <mask fill="white" id="clip1290">
      <path d="M 0 18  L 356.233080740801 18  L 373.5 0  L 390.771816276311 18  L 598 18  L 598 358  L 0 358  L 0 18  Z " fill-rule="evenodd" />
    </mask>
  </defs>
  <g transform="matrix(1 0 0 1 -589 -1994 )">
    <path d="M 0 18  L 356.233080740801 18  L 373.5 0  L 390.771816276311 18  L 598 18  L 598 358  L 0 358  L 0 18  Z " fill-rule="nonzero" fill="#ffffff" stroke="none" transform="matrix(1 0 0 1 589 1994 )" />
    <path d="M 0 18  L 356.233080740801 18  L 373.5 0  L 390.771816276311 18  L 598 18  L 598 358  L 0 358  L 0 18  Z " stroke-width="2" stroke="#e4e4e4" fill="none" transform="matrix(1 0 0 1 589 1994 )" mask="url(#clip1290)" />
  </g>
</svg>