<?xml version="1.0" encoding="utf-8"?>
<svg version="1.1" xmlns:xlink="http://www.w3.org/1999/xlink" width="134px" height="205px" xmlns="http://www.w3.org/2000/svg">
  <defs>
    <mask fill="white" id="clip2654">
      <path d="M 0 0  L 0 161.071428571429  L 0.957142857142843 164  L 67 205  L 133.042857142857 164  L 134 161.071428571429  L 134 0  L 0 0  Z " fill-rule="evenodd" />
    </mask>
  </defs>
  <g transform="matrix(1 0 0 1 -257 -1954 )">
    <path d="M 0 0  L 0 161.071428571429  L 0.957142857142843 164  L 67 205  L 133.042857142857 164  L 134 161.071428571429  L 134 0  L 0 0  Z " fill-rule="nonzero" fill="#1980ff" stroke="none" transform="matrix(1 0 0 1 257 1954 )" />
    <path d="M 0 0  L 0 161.071428571429  L 0.957142857142843 164  L 67 205  L 133.042857142857 164  L 134 161.071428571429  L 134 0  L 0 0  Z " stroke-width="2" stroke="#d0d0d0" fill="none" transform="matrix(1 0 0 1 257 1954 )" mask="url(#clip2654)" />
  </g>
</svg>