<?xml version="1.0" encoding="utf-8"?>
<svg version="1.1" xmlns:xlink="http://www.w3.org/1999/xlink" width="75px" height="115px" xmlns="http://www.w3.org/2000/svg">
  <defs>
    <mask fill="white" id="clip1459">
      <path d="M 0 0  L 0 90.3571428571429  L 0.535714285714278 92  L 37.5 115  L 74.4642857142857 92  L 75 90.3571428571429  L 75 0  L 0 0  Z " fill-rule="evenodd" />
    </mask>
  </defs>
  <g transform="matrix(1 0 0 1 -136 -1299 )">
    <path d="M 0 0  L 0 90.3571428571429  L 0.535714285714278 92  L 37.5 115  L 74.4642857142857 92  L 75 90.3571428571429  L 75 0  L 0 0  Z " fill-rule="nonzero" fill="#1980ff" stroke="none" transform="matrix(1 0 0 1 136 1299 )" />
    <path d="M 0 0  L 0 90.3571428571429  L 0.535714285714278 92  L 37.5 115  L 74.4642857142857 92  L 75 90.3571428571429  L 75 0  L 0 0  Z " stroke-width="2" stroke="#d0d0d0" fill="none" transform="matrix(1 0 0 1 136 1299 )" mask="url(#clip1459)" />
  </g>
</svg>