<svg xmlns="http://www.w3.org/2000/svg" xmlns:xlink="http://www.w3.org/1999/xlink" width="134" height="205" version="1.1"><defs><mask id="clip2835" fill="#fff"><path fill-rule="evenodd" d="M 0 0 L 0 161.071428571429 L 0.957142857142843 164 L 67 205 L 133.042857142857 164 L 134 161.071428571429 L 134 0 L 0 0 Z"/></mask></defs><g><path fill="#1980ff" fill-rule="nonzero" stroke="none" d="M 0 0 L 0 161.071428571429 L 0.957142857142843 164 L 67 205 L 133.042857142857 164 L 134 161.071428571429 L 134 0 L 0 0 Z" transform="matrix(1 0 0 1 -257 -1954 ) matrix(1 0 0 1 257 1954 )"/><path fill="none" stroke="#d0d0d0" stroke-width="2" d="M 0 0 L 0 161.071428571429 L 0.957142857142843 164 L 67 205 L 133.042857142857 164 L 134 161.071428571429 L 134 0 L 0 0 Z" mask="url(#clip2835)" transform="matrix(1 0 0 1 -257 -1954 ) matrix(1 0 0 1 257 1954 )"/></g></svg>