<svg xmlns="http://www.w3.org/2000/svg" xmlns:xlink="http://www.w3.org/1999/xlink" width="75" height="115" version="1.1"><defs><mask id="clip2833" fill="#fff"><path fill-rule="evenodd" d="M 0 0 L 0 90.3571428571429 L 0.535714285714278 92 L 37.5 115 L 74.4642857142857 92 L 75 90.3571428571429 L 75 0 L 0 0 Z"/></mask></defs><g><path fill="#1980ff" fill-rule="nonzero" stroke="none" d="M 0 0 L 0 90.3571428571429 L 0.535714285714278 92 L 37.5 115 L 74.4642857142857 92 L 75 90.3571428571429 L 75 0 L 0 0 Z" transform="matrix(1 0 0 1 -136 -1299 ) matrix(1 0 0 1 136 1299 )"/><path fill="none" stroke="#d0d0d0" stroke-width="2" d="M 0 0 L 0 90.3571428571429 L 0.535714285714278 92 L 37.5 115 L 74.4642857142857 92 L 75 90.3571428571429 L 75 0 L 0 0 Z" mask="url(#clip2833)" transform="matrix(1 0 0 1 -136 -1299 ) matrix(1 0 0 1 136 1299 )"/></g></svg>