<svg xmlns="http://www.w3.org/2000/svg" xmlns:xlink="http://www.w3.org/1999/xlink" width="598" height="358" version="1.1"><defs><mask id="clip2834" fill="#fff"><path fill-rule="evenodd" d="M 0 18 L 356.233080740801 18 L 373.5 0 L 390.771816276311 18 L 598 18 L 598 358 L 0 358 L 0 18 Z"/></mask></defs><g><path fill="#fff" fill-rule="nonzero" stroke="none" d="M 0 18 L 356.233080740801 18 L 373.5 0 L 390.771816276311 18 L 598 18 L 598 358 L 0 358 L 0 18 Z" transform="matrix(1 0 0 1 -589 -1994 ) matrix(1 0 0 1 589 1994 )"/><path fill="none" stroke="#e4e4e4" stroke-width="2" d="M 0 18 L 356.233080740801 18 L 373.5 0 L 390.771816276311 18 L 598 18 L 598 358 L 0 358 L 0 18 Z" mask="url(#clip2834)" transform="matrix(1 0 0 1 -589 -1994 ) matrix(1 0 0 1 589 1994 )"/></g></svg>