<svg xmlns="http://www.w3.org/2000/svg" xmlns:xlink="http://www.w3.org/1999/xlink" width="40" height="36" version="1.1"><defs><mask id="clip1604" fill="#fff"><path fill-rule="evenodd" d="M 40 25 L 30.2071743520583 25.0000139266435 L 20.3548780487805 36 L 10.90975715217 25 L 0 25 L 0 0 L 40 0 L 40 25 Z"/></mask></defs><g><path fill="#fff" fill-rule="nonzero" stroke="none" d="M 40 25 L 30.2071743520583 25.0000139266435 L 20.3548780487805 36 L 10.90975715217 25 L 0 25 L 0 0 L 40 0 L 40 25 Z" transform="matrix(1 0 0 1 -150 -2709 ) matrix(1 0 0 1 150 2709 )"/><path fill="none" stroke="#0079fe" stroke-width="2" d="M 40 25 L 30.2071743520583 25.0000139266435 L 20.3548780487805 36 L 10.90975715217 25 L 0 25 L 0 0 L 40 0 L 40 25 Z" mask="url(#clip1604)" transform="matrix(1 0 0 1 -150 -2709 ) matrix(1 0 0 1 150 2709 )"/></g></svg>