<?xml version="1.0" encoding="utf-8"?>
<svg version="1.1" xmlns:xlink="http://www.w3.org/1999/xlink" width="40px" height="35px" xmlns="http://www.w3.org/2000/svg">
  <g transform="matrix(1 0 0 1 -150 -3301 )">
    <path d="M 150.5 3321.24886877828  C 150.5 3321.24886877828  150.5 3306  150.5 3306  C 150.5 3303.51471862576  152.514718625761 3301.5  155 3301.5  C 155 3301.5  185 3301.5  185 3301.5  C 187.485281374239 3301.5  189.5 3303.51471862576  189.5 3306  C 189.5 3306  189.5 3321.24886877828  189.5 3321.24886877828  C 189.5 3323.73415015252  187.485281374239 3325.74886877828  185 3325.74886877828  C 185 3325.74886877828  178.29831685879 3325.74886877828  178.29831685879 3325.74886877828  C 178.29831685879 3325.74886877828  169.761359509374 3335.2513476175  169.761359509374 3335.2513476175  C 169.761359509374 3335.2513476175  161.24456423203 3325.74886877828  161.24456423203 3325.74886877828  C 161.24456423203 3325.74886877828  155 3325.74886877828  155 3325.74886877828  C 152.514718625761 3325.74886877828  150.5 3323.73415015252  150.5 3321.24886877828  Z " fill-rule="nonzero" fill="#ffffff" stroke="none" />
    <path d="M 150 3321.24886877828  C 150 3321.24886877828  150 3306  150 3306  C 150 3303.23857625085  152.238576250846 3301  155 3301  C 155 3301  185 3301  185 3301  C 187.761423749154 3301  190 3303.23857625085  190 3306  C 190 3306  190 3321.24886877828  190 3321.24886877828  C 190 3324.01029252743  187.761423749154 3326.24886877828  185 3326.24886877828  C 185 3326.24886877828  178.521264367816 3326.24886877828  178.521264367816 3326.24886877828  C 178.521264367816 3326.24886877828  169.76091954023 3336  169.76091954023 3336  C 169.76091954023 3336  161.021264367816 3326.24886877828  161.021264367816 3326.24886877828  C 161.021264367816 3326.24886877828  155 3326.24886877828  155 3326.24886877828  C 152.238576250846 3326.24886877828  150 3324.01029252743  150 3321.24886877828  Z M 151 3321.24886877828  C 151 3323.4580077776  152.790861000677 3325.24886877828  155 3325.24886877828  C 155 3325.24886877828  161.467864096244 3325.24886877828  161.467864096244 3325.24886877828  C 161.467864096244 3325.24886877828  169.761799478519 3334.50269523499  169.761799478519 3334.50269523499  C 169.761799478519 3334.50269523499  178.075369349764 3325.24886877828  178.075369349764 3325.24886877828  C 178.075369349764 3325.24886877828  185 3325.24886877828  185 3325.24886877828  C 187.209138999323 3325.24886877828  189 3323.4580077776  189 3321.24886877828  C 189 3321.24886877828  189 3306  189 3306  C 189 3303.79086100068  187.209138999323 3302  185 3302  C 185 3302  155 3302  155 3302  C 152.790861000677 3302  151 3303.79086100068  151 3306  C 151 3306  151 3321.24886877828  151 3321.24886877828  Z " fill-rule="nonzero" fill="#0079fe" stroke="none" />
  </g>
</svg>