<?xml version="1.0" encoding="utf-8"?>
<svg version="1.1" xmlns:xlink="http://www.w3.org/1999/xlink" width="40px" height="36px" xmlns="http://www.w3.org/2000/svg">
  <defs>
    <mask fill="white" id="clip66">
      <path d="M 40 25  L 30.2071743520583 25.0000139266435  L 20.3548780487805 36  L 10.90975715217 25  L 0 25  L 0 0  L 40 0  L 40 25  Z " fill-rule="evenodd" />
    </mask>
  </defs>
  <g transform="matrix(1 0 0 1 -150 -2709 )">
    <path d="M 40 25  L 30.2071743520583 25.0000139266435  L 20.3548780487805 36  L 10.90975715217 25  L 0 25  L 0 0  L 40 0  L 40 25  Z " fill-rule="nonzero" fill="#ffffff" stroke="none" transform="matrix(1 0 0 1 150 2709 )" />
    <path d="M 40 25  L 30.2071743520583 25.0000139266435  L 20.3548780487805 36  L 10.90975715217 25  L 0 25  L 0 0  L 40 0  L 40 25  Z " stroke-width="2" stroke="#0079fe" fill="none" transform="matrix(1 0 0 1 150 2709 )" mask="url(#clip66)" />
  </g>
</svg>