<?xml version="1.0" encoding="utf-8"?>
<svg version="1.1" xmlns:xlink="http://www.w3.org/1999/xlink" width="100px" height="100px" xmlns="http://www.w3.org/2000/svg">
  <g transform="matrix(1 0 0 1 -333 -969 )">
    <path d="M 382.812553152339 969.500354913603  C 382.875035005519 969.500118305312  382.937517400069 969.5  383 969.5  C 410.338095116624 969.5  432.5 991.661904883376  432.5 1019  C 432.5 1046.33809511662  410.338095116624 1068.5  383 1068.5  C 355.828785977552 1068.5  333.770760593303 1046.60783701058  333.502473593284 1019.50006077778  L 383 1019.5  A 0.5 0.5 0 0 0 383.499951781667 1018.99305622525 L 382.812553152339 969.500354913603  Z " fill-rule="nonzero" fill="#0079fe" stroke="none" />
    <path d="M 382.812553152339 969.500354913603  C 382.875035005519 969.500118305312  382.937517400069 969.5  383 969.5  C 410.338095116624 969.5  432.5 991.661904883376  432.5 1019  C 432.5 1046.33809511662  410.338095116624 1068.5  383 1068.5  C 355.828785977552 1068.5  333.770760593303 1046.60783701058  333.502473593284 1019.50006077778  L 383 1019.5  A 0.5 0.5 0 0 0 383.499951781667 1018.99305622525 L 382.812553152339 969.500354913603  Z " stroke-width="1" stroke="#0079fe" fill="none" />
  </g>
</svg>