<?xml version="1.0" encoding="utf-8"?>
<svg version="1.1" xmlns:xlink="http://www.w3.org/1999/xlink" width="150px" height="150px" xmlns="http://www.w3.org/2000/svg">
  <g transform="matrix(1 0 0 1 -589 -789 )">
    <path d="M 663.435795824221 789.502136449103  C 663.623859914565 789.500712159331  663.811929321458 789.5  664 789.5  C 705.145213862394 789.5  738.5 822.854786137606  738.5 864  C 738.5 904.978380023753  705.415156571161 938.229380820579  664.500115563177 938.498356540786  L 664.5 864  A 0.5 0.5 0 0 0 664.4999489874 863.992857871609 L 663.435795824221 789.502136449103  Z " fill-rule="nonzero" fill="#0079fe" stroke="none" />
    <path d="M 663.435795824221 789.502136449103  C 663.623859914565 789.500712159331  663.811929321458 789.5  664 789.5  C 705.145213862394 789.5  738.5 822.854786137606  738.5 864  C 738.5 904.978380023753  705.415156571161 938.229380820579  664.500115563177 938.498356540786  L 664.5 864  L 663.435795824221 789.502136449103  Z " stroke-width="1" stroke="#0079fe" fill="none" />
  </g>
</svg>