<?xml version="1.0" encoding="utf-8"?>
<svg version="1.1" xmlns:xlink="http://www.w3.org/1999/xlink" width="150px" height="150px" xmlns="http://www.w3.org/2000/svg">
  <g transform="matrix(1 0 0 1 -846 -789 )">
    <path d="M 884.183851412014 799.232560106601  C 895.403004678032 792.855163048421  908.089223569893 789.5  921 789.5  C 962.145213862394 789.5  995.5 822.854786137606  995.5 864  C 995.5 905.145213862394  962.145213862394 938.5  921 938.5  C 889.099699263196 938.5  860.75979750275 918.193326595342  850.482786195508 888.032784231748  L 921.158113883008 864.474341649025  A 0.5 0.5 0 0 0 921.433012701892 863.75 L 884.183851412013 799.232560106601  Z " fill-rule="nonzero" fill="#ff3b30" stroke="none" />
    <path d="M 884.183851412014 799.232560106601  C 895.403004678032 792.855163048421  908.089223569893 789.5  921 789.5  C 962.145213862394 789.5  995.5 822.854786137606  995.5 864  C 995.5 905.145213862394  962.145213862394 938.5  921 938.5  C 889.099699263196 938.5  860.75979750275 918.193326595342  850.482786195508 888.032784231748  L 921.158113883008 864.474341649025  A 0.5 0.5 0 0 0 921.433012701892 863.75 L 884.183851412013 799.232560106601  Z " stroke-width="1" stroke="#ff3b30" fill="none" />
  </g>
</svg>