<?xml version="1.0" encoding="utf-8"?>
<svg version="1.1" xmlns:xlink="http://www.w3.org/1999/xlink" width="152px" height="152px" xmlns="http://www.w3.org/2000/svg">
  <defs>
    <mask fill="white" id="clip65">
      <path d="M 152 0  L 152 152  L 0 152  L 0 0  L 152 0  Z M 151 76  C 151 34  118 1  76 1  C 34 1  1 34  1 76  C 1 118  34 151  76 151  C 118 151  151 118  151 76  Z " fill-rule="evenodd" />
    </mask>
  </defs>
  <g transform="matrix(1 0 0 1 -79 -839 )">
    <path d="M 152 0  L 152 152  L 0 152  L 0 0  L 152 0  Z M 151 76  C 151 34  118 1  76 1  C 34 1  1 34  1 76  C 1 118  34 151  76 151  C 118 151  151 118  151 76  Z " fill-rule="nonzero" fill="#ffffff" stroke="none" transform="matrix(1 0 0 1 79 839 )" />
    <path d="M 152 0  L 152 152  L 0 152  L 0 0  L 152 0  Z " stroke-width="2" stroke="#ffffff" fill="none" transform="matrix(1 0 0 1 79 839 )" mask="url(#clip65)" />
    <path d="M 151 76  C 151 34  118 1  76 1  C 34 1  1 34  1 76  C 1 118  34 151  76 151  C 118 151  151 118  151 76  Z " stroke-width="2" stroke="#ffffff" fill="none" transform="matrix(1 0 0 1 79 839 )" mask="url(#clip65)" />
  </g>
</svg>