<svg xmlns="http://www.w3.org/2000/svg" xmlns:xlink="http://www.w3.org/1999/xlink" width="150" height="150" version="1.1"><g><path fill="#0079fe" fill-rule="nonzero" stroke="none" d="M 407.465352646126 789.501918466265 C 407.643565025955 789.500639496722 407.821781957885 789.5 408 789.5 C 449.145213862394 789.5 482.5 822.854786137606 482.5 864 C 482.5 905.145213862394 449.145213862394 938.5 408 938.5 C 367.021619976247 938.5 333.770619179421 905.415156571161 333.501643459214 864.500115563177 L 408 864.5 A 0.5 0.5 0 0 0 408.499951781667 863.993056225255 L 407.465352646126 789.501918466265 Z" transform="matrix(1 0 0 1 -333 -789 )"/><path fill="none" stroke="#0079fe" stroke-width="1" d="M 407.465352646126 789.501918466265 C 407.643565025955 789.500639496722 407.821781957885 789.5 408 789.5 C 449.145213862394 789.5 482.5 822.854786137606 482.5 864 C 482.5 905.145213862394 449.145213862394 938.5 408 938.5 C 367.021619976247 938.5 333.770619179421 905.415156571161 333.501643459214 864.500115563177 L 408 864.5 A 0.5 0.5 0 0 0 408.499951781667 863.993056225255 L 407.465352646126 789.501918466265 Z" transform="matrix(1 0 0 1 -333 -789 )"/></g></svg>