<svg xmlns="http://www.w3.org/2000/svg" xmlns:xlink="http://www.w3.org/1999/xlink" width="150" height="150" version="1.1"><g><path fill="#4bd863" fill-rule="nonzero" stroke="none" d="M 1140.18385141201 799.232560106601 C 1151.40300467803 792.855163048421 1164.08922356989 789.5 1177 789.5 C 1218.14521386239 789.5 1251.5 822.854786137606 1251.5 864 C 1251.5 905.145213862394 1218.14521386239 938.5 1177 938.5 C 1145.0996992632 938.5 1116.75979750275 918.193326595342 1106.48278619551 888.032784231748 L 1177.15811388301 864.474341649025 A 0.5 0.5 0 0 0 1177.43301270189 863.75 L 1140.18385141201 799.232560106601 Z" transform="matrix(1 0 0 1 -1102 -789 )"/><path fill="none" stroke="#4bd863" stroke-width="1" d="M 1140.18385141201 799.232560106601 C 1151.40300467803 792.855163048421 1164.08922356989 789.5 1177 789.5 C 1218.14521386239 789.5 1251.5 822.854786137606 1251.5 864 C 1251.5 905.145213862394 1218.14521386239 938.5 1177 938.5 C 1145.0996992632 938.5 1116.75979750275 918.193326595342 1106.48278619551 888.032784231748 L 1177.15811388301 864.474341649025 A 0.5 0.5 0 0 0 1177.43301270189 863.75 L 1140.18385141201 799.232560106601 Z" transform="matrix(1 0 0 1 -1102 -789 )"/></g></svg>