<svg xmlns="http://www.w3.org/2000/svg" xmlns:xlink="http://www.w3.org/1999/xlink" width="100" height="100" version="1.1"><g><path fill="#4bd863" fill-rule="nonzero" stroke="none" d="M 1127.6842750341 975.883928936182 C 1135.10258274885 971.700278597483 1143.47766020685 969.5 1152 969.5 C 1179.33809511662 969.5 1201.5 991.661904883376 1201.5 1019 C 1201.5 1046.33809511662 1179.33809511662 1068.5 1152 1068.5 C 1130.86050956626 1068.5 1112.07416698503 1055.07886230419 1105.20066596721 1035.12682429561 L 1152.15811388301 1019.47434164903 A 0.5 0.5 0 0 0 1152.43301270189 1018.75 L 1127.6842750341 975.883928936182 Z" transform="matrix(1 0 0 1 -1102 -969 )"/><path fill="none" stroke="#4bd863" stroke-width="1" d="M 1127.6842750341 975.883928936182 C 1135.10258274885 971.700278597483 1143.47766020685 969.5 1152 969.5 C 1179.33809511662 969.5 1201.5 991.661904883376 1201.5 1019 C 1201.5 1046.33809511662 1179.33809511662 1068.5 1152 1068.5 C 1130.86050956626 1068.5 1112.07416698503 1055.07886230419 1105.20066596721 1035.12682429561 L 1152.15811388301 1019.47434164903 A 0.5 0.5 0 0 0 1152.43301270189 1018.75 L 1127.6842750341 975.883928936182 Z" transform="matrix(1 0 0 1 -1102 -969 )"/></g></svg>