<svg xmlns="http://www.w3.org/2000/svg" xmlns:xlink="http://www.w3.org/1999/xlink" width="100" height="100" version="1.1"><g><path fill="#0079fe" fill-rule="nonzero" stroke="none" d="M 638.792914348924 969.500433178329 C 638.86194233942 969.500144393855 638.930971040794 969.5 639 969.5 C 666.338095116624 969.5 688.5 991.661904883376 688.5 1019 C 688.5 1046.17121402245 666.607837010582 1068.2292394067 639.500060777778 1068.49752640672 L 639.5 1019 A 0.5 0.5 0 0 0 639.4999489874 1018.99285787161 L 638.792914348924 969.500433178329 Z" transform="matrix(1 0 0 1 -589 -969 )"/><path fill="none" stroke="#0079fe" stroke-width="1" d="M 638.792914348924 969.500433178329 C 638.86194233942 969.500144393855 638.930971040794 969.5 639 969.5 C 666.338095116624 969.5 688.5 991.661904883376 688.5 1019 C 688.5 1046.17121402245 666.607837010582 1068.2292394067 639.500060777778 1068.49752640672 L 639.5 1019 L 638.792914348924 969.500433178329 Z" transform="matrix(1 0 0 1 -589 -969 )"/></g></svg>