<svg xmlns="http://www.w3.org/2000/svg" xmlns:xlink="http://www.w3.org/1999/xlink" width="152" height="152" version="1.1"><defs><mask id="clip1603" fill="#fff"><path fill-rule="evenodd" d="M 152 0 L 152 152 L 0 152 L 0 0 L 152 0 Z M 151 76 C 151 34 118 1 76 1 C 34 1 1 34 1 76 C 1 118 34 151 76 151 C 118 151 151 118 151 76 Z"/></mask></defs><g><path fill="#fff" fill-rule="nonzero" stroke="none" d="M 152 0 L 152 152 L 0 152 L 0 0 L 152 0 Z M 151 76 C 151 34 118 1 76 1 C 34 1 1 34 1 76 C 1 118 34 151 76 151 C 118 151 151 118 151 76 Z" transform="matrix(1 0 0 1 -79 -839 ) matrix(1 0 0 1 79 839 )"/><path fill="none" stroke="#fff" stroke-width="2" d="M 152 0 L 152 152 L 0 152 L 0 0 L 152 0 Z" mask="url(#clip1603)" transform="matrix(1 0 0 1 -79 -839 ) matrix(1 0 0 1 79 839 )"/><path fill="none" stroke="#fff" stroke-width="2" d="M 151 76 C 151 34 118 1 76 1 C 34 1 1 34 1 76 C 1 118 34 151 76 151 C 118 151 151 118 151 76 Z" mask="url(#clip1603)" transform="matrix(1 0 0 1 -79 -839 ) matrix(1 0 0 1 79 839 )"/></g></svg>