<?xml version="1.0" encoding="utf-8"?>
<svg version="1.1" xmlns:xlink="http://www.w3.org/1999/xlink" width="100px" height="100px" xmlns="http://www.w3.org/2000/svg">
  <g transform="matrix(1 0 0 1 -846 -969 )">
    <path d="M 871.684275034095 975.883928936182  C 879.102582748855 971.700278597483  887.477660206855 969.5  896 969.5  C 923.338095116624 969.5  945.5 991.661904883376  945.5 1019  C 945.5 1046.33809511662  923.338095116624 1068.5  896 1068.5  C 874.860509566261 1068.5  856.074166985029 1055.07886230419  849.200665967211 1035.12682429561  L 896.158113883008 1019.47434164903  A 0.5 0.5 0 0 0 896.433012701892 1018.75 L 871.684275034095 975.883928936182  Z " fill-rule="nonzero" fill="#ff3b30" stroke="none" />
    <path d="M 871.684275034095 975.883928936182  C 879.102582748855 971.700278597483  887.477660206855 969.5  896 969.5  C 923.338095116624 969.5  945.5 991.661904883376  945.5 1019  C 945.5 1046.33809511662  923.338095116624 1068.5  896 1068.5  C 874.860509566261 1068.5  856.074166985029 1055.07886230419  849.200665967211 1035.12682429561  L 896.158113883008 1019.47434164903  A 0.5 0.5 0 0 0 896.433012701892 1018.75 L 871.684275034095 975.883928936182  Z " stroke-width="1" stroke="#ff3b30" fill="none" />
  </g>
</svg>