<?xml version="1.0" encoding="utf-8"?>
<svg version="1.1" xmlns:xlink="http://www.w3.org/1999/xlink" width="1252px" height="935px" xmlns="http://www.w3.org/2000/svg">
  <defs>
    <mask fill="white" id="clip1279">
      <path d="M 1248.99760191847 934.415625  L 2.00159872102318 934.415625  C 0.600479616306956 934.415625  -0.500399680255795 933.13  0.500399680255795 931.49375  L 0.500399680255795 0  L 1251.49960031974 0  L 1251.49960031974 931.49375  C 1251.49960031974 933.13  1250.39872102318 934.415625  1248.99760191847 934.415625  Z " fill-rule="evenodd" />
    </mask>
  </defs>
  <g transform="matrix(1 0 0 1 -24 -445 )">
    <path d="M 1248.99760191847 934.415625  L 2.00159872102318 934.415625  C 0.600479616306956 934.415625  -0.500399680255795 933.13  0.500399680255795 931.49375  L 0.500399680255795 0  L 1251.49960031974 0  L 1251.49960031974 931.49375  C 1251.49960031974 933.13  1250.39872102318 934.415625  1248.99760191847 934.415625  Z " fill-rule="nonzero" fill="#999999" stroke="none" transform="matrix(1 0 0 1 24 445 )" />
    <path d="M 1248.99760191847 934.415625  L 2.00159872102318 934.415625  C 0.600479616306956 934.415625  -0.500399680255795 933.13  0.500399680255795 931.49375  L 0.500399680255795 0  L 1251.49960031974 0  L 1251.49960031974 931.49375  C 1251.49960031974 933.13  1250.39872102318 934.415625  1248.99760191847 934.415625  Z " stroke-width="2" stroke="#e4e4e4" fill="none" transform="matrix(1 0 0 1 24 445 )" mask="url(#clip1279)" />
  </g>
</svg>