<?xml version="1.0" encoding="utf-8"?>
<svg version="1.1" xmlns:xlink="http://www.w3.org/1999/xlink" width="1252px" height="716px" xmlns="http://www.w3.org/2000/svg">
  <defs>
    <mask fill="white" id="clip1352">
      <path d="M 1248.99760191847 715.5525  L 2.00159872102318 715.5525  C 0.600479616306956 715.5525  -0.500399680255795 714.568  0.500399680255795 713.315  L 0.500399680255795 0  L 1251.49960031974 0  L 1251.49960031974 713.315  C 1251.49960031974 714.568  1250.39872102318 715.5525  1248.99760191847 715.5525  Z " fill-rule="evenodd" />
    </mask>
  </defs>
  <g transform="matrix(1 0 0 1 -24 -2614 )">
    <path d="M 1248.99760191847 715.5525  L 2.00159872102318 715.5525  C 0.600479616306956 715.5525  -0.500399680255795 714.568  0.500399680255795 713.315  L 0.500399680255795 0  L 1251.49960031974 0  L 1251.49960031974 713.315  C 1251.49960031974 714.568  1250.39872102318 715.5525  1248.99760191847 715.5525  Z " fill-rule="nonzero" fill="#999999" stroke="none" transform="matrix(1 0 0 1 24 2614 )" />
    <path d="M 1248.99760191847 715.5525  L 2.00159872102318 715.5525  C 0.600479616306956 715.5525  -0.500399680255795 714.568  0.500399680255795 713.315  L 0.500399680255795 0  L 1251.49960031974 0  L 1251.49960031974 713.315  C 1251.49960031974 714.568  1250.39872102318 715.5525  1248.99760191847 715.5525  Z " stroke-width="2" stroke="#e4e4e4" fill="none" transform="matrix(1 0 0 1 24 2614 )" mask="url(#clip1352)" />
  </g>
</svg>