<svg xmlns="http://www.w3.org/2000/svg" xmlns:xlink="http://www.w3.org/1999/xlink" width="1252" height="935" version="1.1"><defs><mask id="clip2823" fill="#fff"><path fill-rule="evenodd" d="M 1248.99760191847 934.415625 L 2.00159872102318 934.415625 C 0.600479616306956 934.415625 -0.500399680255795 933.13 0.500399680255795 931.49375 L 0.500399680255795 0 L 1251.49960031974 0 L 1251.49960031974 931.49375 C 1251.49960031974 933.13 1250.39872102318 934.415625 1248.99760191847 934.415625 Z"/></mask></defs><g><path fill="#999" fill-rule="nonzero" stroke="none" d="M 1248.99760191847 934.415625 L 2.00159872102318 934.415625 C 0.600479616306956 934.415625 -0.500399680255795 933.13 0.500399680255795 931.49375 L 0.500399680255795 0 L 1251.49960031974 0 L 1251.49960031974 931.49375 C 1251.49960031974 933.13 1250.39872102318 934.415625 1248.99760191847 934.415625 Z" transform="matrix(1 0 0 1 -24 -445 ) matrix(1 0 0 1 24 445 )"/><path fill="none" stroke="#e4e4e4" stroke-width="2" d="M 1248.99760191847 934.415625 L 2.00159872102318 934.415625 C 0.600479616306956 934.415625 -0.500399680255795 933.13 0.500399680255795 931.49375 L 0.500399680255795 0 L 1251.49960031974 0 L 1251.49960031974 931.49375 C 1251.49960031974 933.13 1250.39872102318 934.415625 1248.99760191847 934.415625 Z" mask="url(#clip2823)" transform="matrix(1 0 0 1 -24 -445 ) matrix(1 0 0 1 24 445 )"/></g></svg>