<svg xmlns="http://www.w3.org/2000/svg" xmlns:xlink="http://www.w3.org/1999/xlink" width="1252" height="716" version="1.1"><defs><mask id="clip2825" fill="#fff"><path fill-rule="evenodd" d="M 1248.99760191847 715.5525 L 2.00159872102318 715.5525 C 0.600479616306956 715.5525 -0.500399680255795 714.568 0.500399680255795 713.315 L 0.500399680255795 0 L 1251.49960031974 0 L 1251.49960031974 713.315 C 1251.49960031974 714.568 1250.39872102318 715.5525 1248.99760191847 715.5525 Z"/></mask></defs><g><path fill="#999" fill-rule="nonzero" stroke="none" d="M 1248.99760191847 715.5525 L 2.00159872102318 715.5525 C 0.600479616306956 715.5525 -0.500399680255795 714.568 0.500399680255795 713.315 L 0.500399680255795 0 L 1251.49960031974 0 L 1251.49960031974 713.315 C 1251.49960031974 714.568 1250.39872102318 715.5525 1248.99760191847 715.5525 Z" transform="matrix(1 0 0 1 -24 -2614 ) matrix(1 0 0 1 24 2614 )"/><path fill="none" stroke="#e4e4e4" stroke-width="2" d="M 1248.99760191847 715.5525 L 2.00159872102318 715.5525 C 0.600479616306956 715.5525 -0.500399680255795 714.568 0.500399680255795 713.315 L 0.500399680255795 0 L 1251.49960031974 0 L 1251.49960031974 713.315 C 1251.49960031974 714.568 1250.39872102318 715.5525 1248.99760191847 715.5525 Z" mask="url(#clip2825)" transform="matrix(1 0 0 1 -24 -2614 ) matrix(1 0 0 1 24 2614 )"/></g></svg>