<?xml version="1.0" encoding="utf-8"?>
<svg version="1.1" xmlns:xlink="http://www.w3.org/1999/xlink" width="1252px" height="1086px" xmlns="http://www.w3.org/2000/svg">
  <defs>
    <mask fill="white" id="clip2824">
      <path d="M 1248.99760191847 1085.32125  L 2.00159872102318 1085.32125  C 0.600479616306956 1085.32125  -0.500399680255795 1083.828  0.500399680255795 1081.9275  L 0.500399680255795 0  L 1251.49960031974 0  L 1251.49960031974 1081.9275  C 1251.49960031974 1083.828  1250.39872102318 1085.32125  1248.99760191847 1085.32125  Z " fill-rule="evenodd" />
    </mask>
  </defs>
  <g transform="matrix(1 0 0 1 -24 -1454 )">
    <path d="M 1248.99760191847 1085.32125  L 2.00159872102318 1085.32125  C 0.600479616306956 1085.32125  -0.500399680255795 1083.828  0.500399680255795 1081.9275  L 0.500399680255795 0  L 1251.49960031974 0  L 1251.49960031974 1081.9275  C 1251.49960031974 1083.828  1250.39872102318 1085.32125  1248.99760191847 1085.32125  Z " fill-rule="nonzero" fill="#999999" stroke="none" transform="matrix(1 0 0 1 24 1454 )" />
    <path d="M 1248.99760191847 1085.32125  L 2.00159872102318 1085.32125  C 0.600479616306956 1085.32125  -0.500399680255795 1083.828  0.500399680255795 1081.9275  L 0.500399680255795 0  L 1251.49960031974 0  L 1251.49960031974 1081.9275  C 1251.49960031974 1083.828  1250.39872102318 1085.32125  1248.99760191847 1085.32125  Z " stroke-width="2" stroke="#e4e4e4" fill="none" transform="matrix(1 0 0 1 24 1454 )" mask="url(#clip2824)" />
  </g>
</svg>