<svg xmlns="http://www.w3.org/2000/svg" xmlns:xlink="http://www.w3.org/1999/xlink" width="1252" height="1086" version="1.1"><defs><mask id="clip2824" fill="#fff"><path fill-rule="evenodd" d="M 1248.99760191847 1085.32125 L 2.00159872102318 1085.32125 C 0.600479616306956 1085.32125 -0.500399680255795 1083.828 0.500399680255795 1081.9275 L 0.500399680255795 0 L 1251.49960031974 0 L 1251.49960031974 1081.9275 C 1251.49960031974 1083.828 1250.39872102318 1085.32125 1248.99760191847 1085.32125 Z"/></mask></defs><g><path fill="#999" fill-rule="nonzero" stroke="none" d="M 1248.99760191847 1085.32125 L 2.00159872102318 1085.32125 C 0.600479616306956 1085.32125 -0.500399680255795 1083.828 0.500399680255795 1081.9275 L 0.500399680255795 0 L 1251.49960031974 0 L 1251.49960031974 1081.9275 C 1251.49960031974 1083.828 1250.39872102318 1085.32125 1248.99760191847 1085.32125 Z" transform="matrix(1 0 0 1 -24 -1454 ) matrix(1 0 0 1 24 1454 )"/><path fill="none" stroke="#e4e4e4" stroke-width="2" d="M 1248.99760191847 1085.32125 L 2.00159872102318 1085.32125 C 0.600479616306956 1085.32125 -0.500399680255795 1083.828 0.500399680255795 1081.9275 L 0.500399680255795 0 L 1251.49960031974 0 L 1251.49960031974 1081.9275 C 1251.49960031974 1083.828 1250.39872102318 1085.32125 1248.99760191847 1085.32125 Z" mask="url(#clip2824)" transform="matrix(1 0 0 1 -24 -1454 ) matrix(1 0 0 1 24 1454 )"/></g></svg>