<svg xmlns="http://www.w3.org/2000/svg" xmlns:xlink="http://www.w3.org/1999/xlink" width="1252" height="526" version="1.1"><defs><mask id="clip2826" fill="#fff"><path fill-rule="evenodd" d="M 1248.99760191847 525.67125 L 2.00159872102318 525.67125 C 0.600479616306956 525.67125 -0.500399680255795 524.948 0.500399680255795 524.0275 L 0.500399680255795 0 L 1251.49960031974 0 L 1251.49960031974 524.0275 C 1251.49960031974 524.948 1250.39872102318 525.67125 1248.99760191847 525.67125 Z"/></mask></defs><g><path fill="#999" fill-rule="nonzero" stroke="none" d="M 1248.99760191847 525.67125 L 2.00159872102318 525.67125 C 0.600479616306956 525.67125 -0.500399680255795 524.948 0.500399680255795 524.0275 L 0.500399680255795 0 L 1251.49960031974 0 L 1251.49960031974 524.0275 C 1251.49960031974 524.948 1250.39872102318 525.67125 1248.99760191847 525.67125 Z" transform="matrix(1 0 0 1 -24 -3404 ) matrix(1 0 0 1 24 3404 )"/><path fill="none" stroke="#e4e4e4" stroke-width="2" d="M 1248.99760191847 525.67125 L 2.00159872102318 525.67125 C 0.600479616306956 525.67125 -0.500399680255795 524.948 0.500399680255795 524.0275 L 0.500399680255795 0 L 1251.49960031974 0 L 1251.49960031974 524.0275 C 1251.49960031974 524.948 1250.39872102318 525.67125 1248.99760191847 525.67125 Z" mask="url(#clip2826)" transform="matrix(1 0 0 1 -24 -3404 ) matrix(1 0 0 1 24 3404 )"/></g></svg>