<svg xmlns="http://www.w3.org/2000/svg" xmlns:xlink="http://www.w3.org/1999/xlink" width="40" height="40" version="1.1"><g><path fill="#666" fill-rule="nonzero" stroke="none" d="M 61 964 C 72.2 964 81 972.8 81 984 C 81 995.2 72.2 1004 61 1004 C 49.8 1004 41 995.2 41 984 C 41 972.8 49.8 964 61 964 Z" transform="matrix(1 0 0 1 -41 -964 )"/><path fill="none" stroke="#666" stroke-width="1" d="M 61 964.5 C 71.92 964.5 80.5 973.08 80.5 984 C 80.5 994.92 71.92 1003.5 61 1003.5 C 50.08 1003.5 41.5 994.92 41.5 984 C 41.5 973.08 50.08 964.5 61 964.5 Z" transform="matrix(1 0 0 1 -41 -964 )"/></g></svg>