<svg xmlns="http://www.w3.org/2000/svg" xmlns:xlink="http://www.w3.org/1999/xlink" width="40" height="40" version="1.1"><g><path fill="#ccc" fill-rule="nonzero" stroke="none" d="M 61 880 C 72.2 880 81 888.8 81 900 C 81 911.2 72.2 920 61 920 C 49.8 920 41 911.2 41 900 C 41 888.8 49.8 880 61 880 Z" transform="matrix(1 0 0 1 -41 -880 )"/><path fill="none" stroke="#dedede" stroke-width="1" d="M 61 880.5 C 71.92 880.5 80.5 889.08 80.5 900 C 80.5 910.92 71.92 919.5 61 919.5 C 50.08 919.5 41.5 910.92 41.5 900 C 41.5 889.08 50.08 880.5 61 880.5 Z" transform="matrix(1 0 0 1 -41 -880 )"/></g></svg>