<?xml version="1.0" encoding="utf-8"?>
<svg version="1.1" xmlns:xlink="http://www.w3.org/1999/xlink" width="551px" height="192px" xmlns="http://www.w3.org/2000/svg">
  <g transform="matrix(1 0 0 1 -387 -1626 )">
    <path d="M 388 1632  A 5 5 0 0 1 393 1627 L 932 1627  A 5 5 0 0 1 937 1632 L 937 1812  A 5 5 0 0 1 932 1817 L 393 1817  A 5 5 0 0 1 388 1812 L 388 1632  Z " fill-rule="nonzero" fill="#000000" stroke="none" fill-opacity="0.0196078431372549" />
    <path d="M 387.5 1632  A 5.5 5.5 0 0 1 393 1626.5 L 932 1626.5  A 5.5 5.5 0 0 1 937.5 1632 L 937.5 1812  A 5.5 5.5 0 0 1 932 1817.5 L 393 1817.5  A 5.5 5.5 0 0 1 387.5 1812 L 387.5 1632  Z " stroke-width="1" stroke-dasharray="9,4" stroke="#108ee9" fill="none" stroke-dashoffset="0.5" />
  </g>
</svg>