<?xml version="1.0" encoding="utf-8"?>
<svg version="1.1" xmlns:xlink="http://www.w3.org/1999/xlink" width="104px" height="104px" xmlns="http://www.w3.org/2000/svg">
  <g transform="matrix(1 0 0 1 -1026 -1324 )">
    <path d="M 1027 1328  A 3 3 0 0 1 1030 1325 L 1126 1325  A 3 3 0 0 1 1129 1328 L 1129 1424  A 3 3 0 0 1 1126 1427 L 1030 1427  A 3 3 0 0 1 1027 1424 L 1027 1328  Z " fill-rule="nonzero" fill="#ffffff" stroke="none" />
    <path d="M 1026.5 1328  A 3.5 3.5 0 0 1 1030 1324.5 L 1126 1324.5  A 3.5 3.5 0 0 1 1129.5 1328 L 1129.5 1424  A 3.5 3.5 0 0 1 1126 1427.5 L 1030 1427.5  A 3.5 3.5 0 0 1 1026.5 1424 L 1026.5 1328  Z " stroke-width="1" stroke-dasharray="9,4" stroke="#d9d9d9" fill="none" stroke-dashoffset="0.5" />
  </g>
</svg>