<?xml version="1.0" encoding="utf-8"?>
<svg version="1.1" xmlns:xlink="http://www.w3.org/1999/xlink" width="104px" height="104px" xmlns="http://www.w3.org/2000/svg">
  <g transform="matrix(1 0 0 1 -748 -1196 )">
    <path d="M 749 1200  A 3 3 0 0 1 752 1197 L 848 1197  A 3 3 0 0 1 851 1200 L 851 1296  A 3 3 0 0 1 848 1299 L 752 1299  A 3 3 0 0 1 749 1296 L 749 1200  Z " fill-rule="nonzero" fill="#000000" stroke="none" fill-opacity="0.498039215686275" />
    <path d="M 748.5 1200  A 3.5 3.5 0 0 1 752 1196.5 L 848 1196.5  A 3.5 3.5 0 0 1 851.5 1200 L 851.5 1296  A 3.5 3.5 0 0 1 848 1299.5 L 752 1299.5  A 3.5 3.5 0 0 1 748.5 1296 L 748.5 1200  Z " stroke-width="1" stroke-dasharray="9,4" stroke="#000000" fill="none" stroke-opacity="0.149019607843137" stroke-dashoffset="0.5" />
  </g>
</svg>