<?xml version="1.0" encoding="utf-8"?>
<svg version="1.1" xmlns:xlink="http://www.w3.org/1999/xlink" width="104px" height="104px" xmlns="http://www.w3.org/2000/svg">
  <g transform="matrix(1 0 0 1 -380 -1196 )">
    <path d="M 381 1200  A 3 3 0 0 1 384 1197 L 480 1197  A 3 3 0 0 1 483 1200 L 483 1296  A 3 3 0 0 1 480 1299 L 384 1299  A 3 3 0 0 1 381 1296 L 381 1200  Z " fill-rule="nonzero" fill="#ffffff" stroke="none" />
    <path d="M 380.5 1200  A 3.5 3.5 0 0 1 384 1196.5 L 480 1196.5  A 3.5 3.5 0 0 1 483.5 1200 L 483.5 1296  A 3.5 3.5 0 0 1 480 1299.5 L 384 1299.5  A 3.5 3.5 0 0 1 380.5 1296 L 380.5 1200  Z " stroke-width="1" stroke-dasharray="9,4" stroke="#000000" fill="none" stroke-opacity="0.149019607843137" stroke-dashoffset="0.5" />
  </g>
</svg>