<svg xmlns="http://www.w3.org/2000/svg" xmlns:xlink="http://www.w3.org/1999/xlink" width="104" height="104" version="1.1"><g><path fill="#fff" fill-rule="nonzero" stroke="none" d="M 381 1200 A 3 3 0 0 1 384 1197 L 480 1197 A 3 3 0 0 1 483 1200 L 483 1296 A 3 3 0 0 1 480 1299 L 384 1299 A 3 3 0 0 1 381 1296 L 381 1200 Z" transform="matrix(1 0 0 1 -380 -1196 )"/><path fill="none" stroke="#000" stroke-dasharray="9 4" stroke-dashoffset=".5" stroke-opacity=".149" stroke-width="1" d="M 380.5 1200 A 3.5 3.5 0 0 1 384 1196.5 L 480 1196.5 A 3.5 3.5 0 0 1 483.5 1200 L 483.5 1296 A 3.5 3.5 0 0 1 480 1299.5 L 384 1299.5 A 3.5 3.5 0 0 1 380.5 1296 L 380.5 1200 Z" transform="matrix(1 0 0 1 -380 -1196 )"/></g></svg>