<svg xmlns="http://www.w3.org/2000/svg" xmlns:xlink="http://www.w3.org/1999/xlink" width="104" height="104" version="1.1"><g><path fill="#fafafa" fill-rule="nonzero" stroke="none" d="M 381 1072 A 3 3 0 0 1 384 1069 L 480 1069 A 3 3 0 0 1 483 1072 L 483 1168 A 3 3 0 0 1 480 1171 L 384 1171 A 3 3 0 0 1 381 1168 L 381 1072 Z" transform="matrix(1 0 0 1 -380 -1068 )"/><path fill="none" stroke="#000" stroke-dasharray="9 4" stroke-dashoffset=".5" stroke-opacity=".149" stroke-width="1" d="M 380.5 1072 A 3.5 3.5 0 0 1 384 1068.5 L 480 1068.5 A 3.5 3.5 0 0 1 483.5 1072 L 483.5 1168 A 3.5 3.5 0 0 1 480 1171.5 L 384 1171.5 A 3.5 3.5 0 0 1 380.5 1168 L 380.5 1072 Z" transform="matrix(1 0 0 1 -380 -1068 )"/></g></svg>