<svg xmlns="http://www.w3.org/2000/svg" xmlns:xlink="http://www.w3.org/1999/xlink" width="104" height="104" version="1.1"><g><path fill="#fff" fill-rule="nonzero" stroke="none" d="M 1027 1328 A 3 3 0 0 1 1030 1325 L 1126 1325 A 3 3 0 0 1 1129 1328 L 1129 1424 A 3 3 0 0 1 1126 1427 L 1030 1427 A 3 3 0 0 1 1027 1424 L 1027 1328 Z" transform="matrix(1 0 0 1 -1026 -1324 )"/><path fill="none" stroke="#d9d9d9" stroke-dasharray="9 4" stroke-dashoffset=".5" stroke-width="1" d="M 1026.5 1328 A 3.5 3.5 0 0 1 1030 1324.5 L 1126 1324.5 A 3.5 3.5 0 0 1 1129.5 1328 L 1129.5 1424 A 3.5 3.5 0 0 1 1126 1427.5 L 1030 1427.5 A 3.5 3.5 0 0 1 1026.5 1424 L 1026.5 1328 Z" transform="matrix(1 0 0 1 -1026 -1324 )"/></g></svg>