<svg xmlns="http://www.w3.org/2000/svg" xmlns:xlink="http://www.w3.org/1999/xlink" width="551" height="192" version="1.1"><g><path fill="#000" fill-opacity=".02" fill-rule="nonzero" stroke="none" d="M 388 1632 A 5 5 0 0 1 393 1627 L 932 1627 A 5 5 0 0 1 937 1632 L 937 1812 A 5 5 0 0 1 932 1817 L 393 1817 A 5 5 0 0 1 388 1812 L 388 1632 Z" transform="matrix(1 0 0 1 -387 -1626 )"/><path fill="none" stroke="#108ee9" stroke-dasharray="9 4" stroke-dashoffset=".5" stroke-width="1" d="M 387.5 1632 A 5.5 5.5 0 0 1 393 1626.5 L 932 1626.5 A 5.5 5.5 0 0 1 937.5 1632 L 937.5 1812 A 5.5 5.5 0 0 1 932 1817.5 L 393 1817.5 A 5.5 5.5 0 0 1 387.5 1812 L 387.5 1632 Z" transform="matrix(1 0 0 1 -387 -1626 )"/></g></svg>