<svg xmlns="http://www.w3.org/2000/svg" xmlns:xlink="http://www.w3.org/1999/xlink" width="104" height="104" version="1.1"><g><path fill="#000" fill-opacity=".498" fill-rule="nonzero" stroke="none" d="M 749 1200 A 3 3 0 0 1 752 1197 L 848 1197 A 3 3 0 0 1 851 1200 L 851 1296 A 3 3 0 0 1 848 1299 L 752 1299 A 3 3 0 0 1 749 1296 L 749 1200 Z" transform="matrix(1 0 0 1 -748 -1196 )"/><path fill="none" stroke="#000" stroke-dasharray="9 4" stroke-dashoffset=".5" stroke-opacity=".149" stroke-width="1" d="M 748.5 1200 A 3.5 3.5 0 0 1 752 1196.5 L 848 1196.5 A 3.5 3.5 0 0 1 851.5 1200 L 851.5 1296 A 3.5 3.5 0 0 1 848 1299.5 L 752 1299.5 A 3.5 3.5 0 0 1 748.5 1296 L 748.5 1200 Z" transform="matrix(1 0 0 1 -748 -1196 )"/></g></svg>