<?xml version="1.0" encoding="utf-8"?>
<svg version="1.1" xmlns:xlink="http://www.w3.org/1999/xlink" width="80px" height="80px" xmlns="http://www.w3.org/2000/svg">
  <defs>
    <mask fill="white" id="clip1220">
      <path d="M 1041.5 1415.5  C 1039.835 1415.5  1038.5 1414.165  1038.5 1412.5  L 1038.5 1339.5  C 1038.5 1337.835  1039.835 1336.5  1041.5 1336.5  L 1114.5 1336.5  C 1116.165 1336.5  1117.5 1337.835  1117.5 1339.5  L 1117.5 1412.5  C 1117.5 1414.165  1116.165 1415.5  1114.5 1415.5  L 1041.5 1415.5  " fill-rule="evenodd" />
    </mask>
  </defs>
  <g transform="matrix(1 0 0 1 -1038 -1336 )">
    <path d="M 1038 1336  L 1118 1336  L 1118 1416  L 1038 1416  L 1038 1336  " fill-rule="nonzero" fill="#cccccc" stroke="none" mask="url(#clip1220)" />
    <path d="M 1044 1342  L 1112 1342  L 1112 1410  L 1044 1410  L 1044 1342  " fill-rule="nonzero" fill="#ffffff" stroke="none" mask="url(#clip1220)" />
    <path d="M 1085.6 1360  C 1082.24 1360  1079.6 1357.36  1079.6 1354  C 1079.6 1350.64  1082.24 1348  1085.6 1348  C 1088.96 1348  1091.6 1350.64  1091.6 1354  C 1091.6 1357.36  1088.96 1360  1085.6 1360  " fill-rule="nonzero" fill="#cccccc" stroke="none" mask="url(#clip1220)" />
    <path d="M 1046 1408  L 1046 1372.8  L 1062 1356.8  L 1084.4 1369.6  L 1097.2 1366.4  L 1110 1369.6  L 1110 1408  L 1046 1408  " fill-rule="nonzero" fill="#169bd5" stroke="none" mask="url(#clip1220)" />
    <path d="M 1041 1415.5  C 1039.6125 1415.5  1038.5 1414.3875  1038.5 1413  L 1038.5 1339  C 1038.5 1337.6125  1039.6125 1336.5  1041 1336.5  L 1115 1336.5  C 1116.3875 1336.5  1117.5 1337.6125  1117.5 1339  L 1117.5 1413  C 1117.5 1414.3875  1116.3875 1415.5  1115 1415.5  L 1041 1415.5  Z " stroke-width="1" stroke-dasharray="3,1" stroke="#1980ff" fill="none" mask="url(#clip1220)" />
  </g>
</svg>