<?xml version="1.0" encoding="utf-8"?>
<svg version="1.1" xmlns:xlink="http://www.w3.org/1999/xlink" width="10px" height="10px" xmlns="http://www.w3.org/2000/svg">
  <g transform="matrix(1 0 0 1 -1017 -1702 )">
    <path d="M 1022 1702  C 1024.8 1702  1027 1704.2  1027 1707  C 1027 1709.8  1024.8 1712  1022 1712  C 1019.2 1712  1017 1709.8  1017 1707  C 1017 1704.2  1019.2 1702  1022 1702  Z " fill-rule="nonzero" fill="#ffffff" stroke="none" />
    <path d="M 1022 1702.5  C 1024.52 1702.5  1026.5 1704.48  1026.5 1707  C 1026.5 1709.52  1024.52 1711.5  1022 1711.5  C 1019.48 1711.5  1017.5 1709.52  1017.5 1707  C 1017.5 1704.48  1019.48 1702.5  1022 1702.5  Z " stroke-width="1" stroke="#cccccc" fill="none" />
  </g>
</svg>