<?xml version="1.0" encoding="utf-8"?>
<svg version="1.1" xmlns:xlink="http://www.w3.org/1999/xlink" width="150px" height="150px" xmlns="http://www.w3.org/2000/svg">
  <g transform="matrix(1 0 0 1 -80 -1050 )">
    <path d="M 81 1054  A 3 3 0 0 1 84 1051 L 226 1051  A 3 3 0 0 1 229 1054 L 229 1196  A 3 3 0 0 1 226 1199 L 84 1199  A 3 3 0 0 1 81 1196 L 81 1054  Z " fill-rule="nonzero" fill="#fafafa" stroke="none" />
    <path d="M 80.5 1054  A 3.5 3.5 0 0 1 84 1050.5 L 226 1050.5  A 3.5 3.5 0 0 1 229.5 1054 L 229.5 1196  A 3.5 3.5 0 0 1 226 1199.5 L 84 1199.5  A 3.5 3.5 0 0 1 80.5 1196 L 80.5 1054  Z " stroke-width="1" stroke-dasharray="9,4" stroke="#000000" fill="none" stroke-opacity="0.149019607843137" stroke-dashoffset="0.5" />
  </g>
</svg>