<?xml version="1.0" encoding="utf-8"?>
<svg version="1.1" xmlns:xlink="http://www.w3.org/1999/xlink" width="135px" height="53px" xmlns="http://www.w3.org/2000/svg">
  <g transform="matrix(1 0 0 1 -1021 -555 )">
    <path d="M 1021.5 592  C 1021.5 592  1021.5 560  1021.5 560  C 1021.5 557.514718625761  1023.51471862576 555.5  1026 555.5  C 1026 555.5  1151 555.5  1151 555.5  C 1153.48528137424 555.5  1155.5 557.514718625761  1155.5 560  C 1155.5 560  1155.5 592  1155.5 592  C 1155.5 594.485281374239  1153.48528137424 596.5  1151 596.5  C 1151 596.5  1064.82176513404 596.5  1064.82176513404 596.5  C 1064.82176513404 596.5  1055.62502149456 606.652386943923  1055.62502149456 606.652386943923  C 1055.62502149456 606.652386943923  1045.24737879611 596.5  1045.24737879611 596.5  C 1045.24737879611 596.5  1026 596.5  1026 596.5  C 1023.51471862576 596.5  1021.5 594.485281374239  1021.5 592  Z " fill-rule="nonzero" fill="#333333" stroke="none" />
    <path d="M 1021 592  C 1021 592  1021 560  1021 560  C 1021 557.238576250846  1023.23857625085 555  1026 555  C 1026 555  1151 555  1151 555  C 1153.76142374915 555  1156 557.238576250846  1156 560  C 1156 560  1156 592  1156 592  C 1156 594.761423749154  1153.76142374915 597  1151 597  C 1151 597  1065.04347826087 597  1065.04347826087 597  C 1065.04347826087 597  1055.64676616915 607.373134328358  1055.64676616915 607.373134328358  C 1055.64676616915 607.373134328358  1045.04347826087 597  1045.04347826087 597  C 1045.04347826087 597  1026 597  1026 597  C 1023.23857625085 597  1021 594.761423749154  1021 592  Z M 1022 592  C 1022 594.209138999323  1023.79086100068 596  1026 596  C 1026 596  1045.45127933136 596  1045.45127933136 596  C 1045.45127933136 596  1055.60327681997 605.931639559487  1055.60327681997 605.931639559487  C 1055.60327681997 605.931639559487  1064.60005200721 596  1064.60005200721 596  C 1064.60005200721 596  1151 596  1151 596  C 1153.20913899932 596  1155 594.209138999323  1155 592  C 1155 592  1155 560  1155 560  C 1155 557.790861000677  1153.20913899932 556  1151 556  C 1151 556  1026 556  1026 556  C 1023.79086100068 556  1022 557.790861000677  1022 560  C 1022 560  1022 592  1022 592  Z " fill-rule="nonzero" fill="#d0d0d0" stroke="none" />
  </g>
</svg>