<?xml version="1.0" encoding="utf-8"?>
<svg version="1.1" xmlns:xlink="http://www.w3.org/1999/xlink" width="350px" height="40px" xmlns="http://www.w3.org/2000/svg">
  <g transform="matrix(1 0 0 1 -145 -807 )">
    <path d="M 146 810  A 2 2 0 0 1 148 808 L 492 808  A 2 2 0 0 1 494 810 L 494 844  A 2 2 0 0 1 492 846 L 148 846  A 2 2 0 0 1 146 844 L 146 810  Z " fill-rule="nonzero" fill="#ffffff" stroke="none" fill-opacity="0" />
    <path d="M 145.5 810  A 2.5 2.5 0 0 1 148 807.5 L 492 807.5  A 2.5 2.5 0 0 1 494.5 810 L 494.5 844  A 2.5 2.5 0 0 1 492 846.5 L 148 846.5  A 2.5 2.5 0 0 1 145.5 844 L 145.5 810  Z " stroke-width="1" stroke-dasharray="9,4" stroke="#e4e4e4" fill="none" stroke-dashoffset="0.5" />
  </g>
</svg>