<?xml version="1.0" encoding="utf-8"?>
<svg version="1.1" xmlns:xlink="http://www.w3.org/1999/xlink" width="30px" height="30px" xmlns="http://www.w3.org/2000/svg">
  <g transform="matrix(1 0 0 1 -145 -2134 )">
    <path d="M 160 2134  C 168.4 2134  175 2140.6  175 2149  C 175 2157.4  168.4 2164  160 2164  C 151.6 2164  145 2157.4  145 2149  C 145 2140.6  151.6 2134  160 2134  Z " fill-rule="nonzero" fill="#ffffff" stroke="none" />
    <path d="M 160 2134.5  C 168.12 2134.5  174.5 2140.88  174.5 2149  C 174.5 2157.12  168.12 2163.5  160 2163.5  C 151.88 2163.5  145.5 2157.12  145.5 2149  C 145.5 2140.88  151.88 2134.5  160 2134.5  Z " stroke-width="1" stroke="#1980ff" fill="none" />
  </g>
</svg>