<svg xmlns="http://www.w3.org/2000/svg" xmlns:xlink="http://www.w3.org/1999/xlink" width="30" height="30" version="1.1"><g><path fill="#1980ff" fill-rule="nonzero" stroke="none" d="M 160 2224 C 168.4 2224 175 2230.6 175 2239 C 175 2247.4 168.4 2254 160 2254 C 151.6 2254 145 2247.4 145 2239 C 145 2230.6 151.6 2224 160 2224 Z" transform="matrix(1 0 0 1 -145 -2224 )"/><path fill="none" stroke="#1980ff" stroke-width="1" d="M 160 2224.5 C 168.12 2224.5 174.5 2230.88 174.5 2239 C 174.5 2247.12 168.12 2253.5 160 2253.5 C 151.88 2253.5 145.5 2247.12 145.5 2239 C 145.5 2230.88 151.88 2224.5 160 2224.5 Z" transform="matrix(1 0 0 1 -145 -2224 )"/></g></svg>