<?xml version="1.0" encoding="utf-8"?>
<svg version="1.1" xmlns:xlink="http://www.w3.org/1999/xlink" width="30px" height="30px" xmlns="http://www.w3.org/2000/svg">
  <g transform="matrix(1 0 0 1 -145 -1884 )">
    <path d="M 160 1884  C 168.4 1884  175 1890.6  175 1899  C 175 1907.4  168.4 1914  160 1914  C 151.6 1914  145 1907.4  145 1899  C 145 1890.6  151.6 1884  160 1884  Z " fill-rule="nonzero" fill="#ffffff" stroke="none" />
    <path d="M 160 1884.5  C 168.12 1884.5  174.5 1890.88  174.5 1899  C 174.5 1907.12  168.12 1913.5  160 1913.5  C 151.88 1913.5  145.5 1907.12  145.5 1899  C 145.5 1890.88  151.88 1884.5  160 1884.5  Z " stroke-width="1" stroke="#e4e4e4" fill="none" />
  </g>
</svg>