<svg xmlns="http://www.w3.org/2000/svg" xmlns:xlink="http://www.w3.org/1999/xlink" width="350" height="40" version="1.1"><g><path fill="#fff" fill-opacity="0" fill-rule="nonzero" stroke="none" d="M 146 810 A 2 2 0 0 1 148 808 L 492 808 A 2 2 0 0 1 494 810 L 494 844 A 2 2 0 0 1 492 846 L 148 846 A 2 2 0 0 1 146 844 L 146 810 Z" transform="matrix(1 0 0 1 -145 -807 )"/><path fill="none" stroke="#e4e4e4" stroke-dasharray="9 4" stroke-dashoffset=".5" stroke-width="1" d="M 145.5 810 A 2.5 2.5 0 0 1 148 807.5 L 492 807.5 A 2.5 2.5 0 0 1 494.5 810 L 494.5 844 A 2.5 2.5 0 0 1 492 846.5 L 148 846.5 A 2.5 2.5 0 0 1 145.5 844 L 145.5 810 Z" transform="matrix(1 0 0 1 -145 -807 )"/></g></svg>