<svg xmlns="http://www.w3.org/2000/svg" xmlns:xlink="http://www.w3.org/1999/xlink" width="30" height="30" version="1.1"><g><path fill="#fff" fill-rule="nonzero" stroke="none" d="M 160 2134 C 168.4 2134 175 2140.6 175 2149 C 175 2157.4 168.4 2164 160 2164 C 151.6 2164 145 2157.4 145 2149 C 145 2140.6 151.6 2134 160 2134 Z" transform="matrix(1 0 0 1 -145 -2134 )"/><path fill="none" stroke="#1980ff" stroke-width="1" d="M 160 2134.5 C 168.12 2134.5 174.5 2140.88 174.5 2149 C 174.5 2157.12 168.12 2163.5 160 2163.5 C 151.88 2163.5 145.5 2157.12 145.5 2149 C 145.5 2140.88 151.88 2134.5 160 2134.5 Z" transform="matrix(1 0 0 1 -145 -2134 )"/></g></svg>