<?xml version="1.0" encoding="utf-8"?>
<svg version="1.1" xmlns:xlink="http://www.w3.org/1999/xlink" width="150px" height="62px" xmlns="http://www.w3.org/2000/svg">
  <g>
    <path d="M 0 0  L 150 0  L 150 62  L 0 62  L 0 0  " fill-rule="nonzero" fill="#cccccc" stroke="none" />
    <path d="M 4 4  L 146 4  L 146 58  L 4 58  L 4 4  " fill-rule="nonzero" fill="#ffffff" stroke="none" />
    <path d="M 82.65 18.6  C 80.046 18.6  78 16.554  78 13.95  C 78 11.346  80.046 9.3  82.65 9.3  C 85.254 9.3  87.3 11.346  87.3 13.95  C 87.3 16.554  85.254 18.6  82.65 18.6  " fill-rule="nonzero" fill="#cccccc" stroke="none" />
    <path d="M 6 57  L 6 28.95  L 40.75 16.2  L 89.4 44.352  L 117.2 23.85  L 145 44.352  L 145 57  L 6 57  " fill-rule="nonzero" fill="#169bd5" stroke="none" />
    <path d="M 0.5 61.5  L 0.5 0.5  L 149.5 0.5  L 149.5 61.5  L 0.5 61.5  Z " stroke-width="1" stroke="#f6f6f6" fill="none" />
  </g>
</svg>