<?xml version="1.0" encoding="utf-8"?>
<svg version="1.1" xmlns:xlink="http://www.w3.org/1999/xlink" width="400px" height="365px" xmlns="http://www.w3.org/2000/svg">
  <g>
    <path d="M 1 3  A 2 2 0 0 1 3 1 L 397 1  A 2 2 0 0 1 399 3 L 399 362  A 2 2 0 0 1 397 364 L 3 364  A 2 2 0 0 1 1 362 L 1 3  Z " fill-rule="nonzero" fill="#1980ff" stroke="none" fill-opacity="0.0980392156862745" />
    <path d="M 0.5 3  A 2.5 2.5 0 0 1 3 0.5 L 397 0.5  A 2.5 2.5 0 0 1 399.5 3 L 399.5 362  A 2.5 2.5 0 0 1 397 364.5 L 3 364.5  A 2.5 2.5 0 0 1 0.5 362 L 0.5 3  Z " stroke-width="1" stroke-dasharray="9,4" stroke="#1980ff" fill="none" stroke-dashoffset="0.5" />
  </g>
</svg>