<svg xmlns="http://www.w3.org/2000/svg" xmlns:xlink="http://www.w3.org/1999/xlink" width="400" height="225" version="1.1"><g><path fill="#1980ff" fill-opacity=".098" fill-rule="nonzero" stroke="none" d="M 1 3 A 2 2 0 0 1 3 1 L 397 1 A 2 2 0 0 1 399 3 L 399 222 A 2 2 0 0 1 397 224 L 3 224 A 2 2 0 0 1 1 222 L 1 3 Z"/><path fill="none" stroke="#1980ff" stroke-dasharray="9 4" stroke-dashoffset=".5" stroke-width="1" d="M 0.5 3 A 2.5 2.5 0 0 1 3 0.5 L 397 0.5 A 2.5 2.5 0 0 1 399.5 3 L 399.5 222 A 2.5 2.5 0 0 1 397 224.5 L 3 224.5 A 2.5 2.5 0 0 1 0.5 222 L 0.5 3 Z"/></g></svg>