<svg xmlns="http://www.w3.org/2000/svg" xmlns:xlink="http://www.w3.org/1999/xlink" width="400" height="636" version="1.1"><g><path fill="#1980ff" fill-opacity=".098" fill-rule="nonzero" stroke="none" d="M 1 3 A 2 2 0 0 1 3 1 L 397 1 A 2 2 0 0 1 399 3 L 399 633 A 2 2 0 0 1 397 635 L 3 635 A 2 2 0 0 1 1 633 L 1 3 Z"/><path fill="none" stroke="#1980ff" stroke-dasharray="9 4" stroke-dashoffset=".5" stroke-width="1" d="M 0.5 3 A 2.5 2.5 0 0 1 3 0.5 L 397 0.5 A 2.5 2.5 0 0 1 399.5 3 L 399.5 633 A 2.5 2.5 0 0 1 397 635.5 L 3 635.5 A 2.5 2.5 0 0 1 0.5 633 L 0.5 3 Z"/></g></svg>