<?xml version="1.0" encoding="utf-8"?>
<svg version="1.1" xmlns:xlink="http://www.w3.org/1999/xlink" width="32px" height="32px" xmlns="http://www.w3.org/2000/svg">
  <g transform="matrix(1 0 0 1 -206 -2805 )">
    <path d="M 222 2805  C 230.96 2805  238 2812.04  238 2821  C 238 2829.96  230.96 2837  222 2837  C 213.04 2837  206 2829.96  206 2821  C 206 2812.04  213.04 2805  222 2805  Z " fill-rule="nonzero" fill="#ffffff" stroke="none" />
    <path d="M 222 2805.5  C 230.68 2805.5  237.5 2812.32  237.5 2821  C 237.5 2829.68  230.68 2836.5  222 2836.5  C 213.32 2836.5  206.5 2829.68  206.5 2821  C 206.5 2812.32  213.32 2805.5  222 2805.5  Z " stroke-width="1" stroke="#1890ff" fill="none" />
  </g>
</svg>