<svg xmlns="http://www.w3.org/2000/svg" xmlns:xlink="http://www.w3.org/1999/xlink" width="72" height="72" version="1.1"><g><path fill="#52c41a" fill-rule="nonzero" stroke="none" d="M 10.06 11.09 C 16.15 4.6 24.73 0.8 33.54 0 L 39.04 0 C 47.14 0.99 55.07 4.28 60.92 10.07 C 67.41 16.16 71.22 24.76 72 33.59 L 72 39.03 C 71.02 47.15 67.71 55.09 61.91 60.94 C 55.83 67.41 47.25 71.21 38.45 72 L 32.93 72 C 24.84 71.01 16.92 67.72 11.08 61.93 C 4.59 55.84 0.78 47.24 0 38.41 L 0 32.94 C 0.99 24.85 4.28 16.93 10.06 11.09 Z M 54.65 24.56 C 56.25 21.96 52.54 19.55 50.61 21.66 C 42.93 29.25 35.37 36.96 27.73 44.58 C 25.36 40.68 23.29 36.62 20.81 32.79 C 18.51 32.2 16.06 34.28 17.39 36.63 C 20.04 41.53 22.84 46.36 25.73 51.13 C 27.22 51.16 28.78 51 29.74 49.71 C 38 41.29 46.51 33.1 54.65 24.56 Z" transform="matrix(1 0 0 1 -614 -2884 ) matrix(1 0 0 1 614 2884 )"/></g></svg>