<?xml version="1.0" encoding="utf-8"?>
<svg version="1.1" xmlns:xlink="http://www.w3.org/1999/xlink" width="25px" height="22px" xmlns="http://www.w3.org/2000/svg">
  <defs>
    <filter x="951px" y="238px" width="25px" height="22px" filterUnits="userSpaceOnUse" id="filter64">
      <feOffset dx="2" dy="2" in="SourceAlpha" result="shadowOffsetInner" />
      <feGaussianBlur stdDeviation="1" in="shadowOffsetInner" result="shadowGaussian" />
      <feComposite in2="shadowGaussian" operator="atop" in="SourceAlpha" result="shadowComposite" />
      <feColorMatrix type="matrix" values="0 0 0 0 0.231372549019608  0 0 0 0 0.349019607843137  0 0 0 0 0.596078431372549  0 0 0 0.298039215686275 0  " in="shadowComposite" />
    </filter>
    <g id="widget65">
      <path d="M 12.9770728141622 9.75488819531249  C 12.9770728141622 10.396764984375  12.4793387887855 10.9139023828125  11.8680681122562 10.9139023828125  C 11.2566579748449 10.9139023828125  10.7588774473626 10.3967650078125  10.7588774473626 9.75488819531249  C 10.7588774473626 9.11660894531254  11.2566579748449 8.59947157031247  11.8680681122562 8.59947157031247  C 12.4793387660683 8.59947157031247  12.9770728141622 9.11660894531254  12.9770728141622 9.75488819531249  Z M 18.4813448725621 15.978668484375  C 19.7949898249114 14.9469359765625  20.6225705767952 13.4313075703125  20.6225705767952 11.7409816171875  C 20.6225705767952 8.76541504687494  18.0548618412012 6.32907489843746  14.8004470633865 6.11902530468752  C 14.6481814960107 6.11043911718747  14.4955672423537 6.10451514843753  14.3430459701906 6.10451514843753  C 10.873971612367 6.10451514843753  8.06319591699909 8.62844392968754  8.06319591699909 11.7410056171875  C 8.06319591699909 12.2103913828125  8.12826328956115 12.664931203125  8.24961079510195 13.09918078125  C 8.9246702748227 15.55629084375  11.396440078125 17.3777838515625  14.3430459701906 17.3777838515625  C 15.3457204842642 17.3777838515625  16.2919753817597 17.1677582578125  17.1308772495567 16.7917891640625  L 18.540507613586 17.7856513359375  C 18.540507613586 17.7856513359375  18.9163594614361 18.056643609375  18.879676228945 17.5349013515625  L 18.4813448725621 15.978668484375  Z M 7.61400093472959 11.7410775234375  C 7.61400088929517 8.37491182031254  10.6336942337101 5.63510540624998  14.3430459701906 5.63510540624998  C 14.4784577160904 5.63510540624998  14.6111263375443 5.64117328125001  14.7441436679964 5.64709727343751  C 14.2271149263076 2.4963774609375  11.2044692320479 0.0771856640624691  7.55195558566047 0.0771856640624691  C 3.53779379266399 0.0771856640624691  0.283378992132106 3.00073150781244  0.283378992132106 6.60280129687499  C 0.283378992132106 8.6110077421875  1.29472450188386 10.4062145859375  2.88235447584219 11.6040824296875  L 2.3454963458555 13.6937376328125  C 2.3454963458555 13.6937376328125  2.16205703457445 14.3873473593749  2.85696914228721 14.0757746015625  L 4.85978429410463 12.6648831796875  C 5.69310695423314 12.9651356015625  6.59993554022607 13.1313908906249  7.55195560837764 13.1313908906249  C 7.63383030031024 13.1313908906249  7.71277592752659 13.125442921875  7.79190754044771 13.125442921875  C 7.67609274046984 12.6793933359375  7.61400093472959 12.21607546875  7.61400093472959 11.7410775234375  Z M 18.3245462472296 9.75404875781248  C 18.3245462245124 10.395949546875  17.8268121991357 10.9130629453125  17.2155415453235 10.9130629453125  C 16.6041314079122 10.9130629453125  16.1063508804299 10.3959255703124  16.1063508804299 9.75404875781248  C 16.1063508804299 9.11576950781254  16.6041314079122 8.59863213281248  17.2155415453235 8.59863213281248  C 17.8268121991357 8.59863213281248  18.3245462472296 9.11576950781254  18.3245462472296 9.75404875781248  Z M 5.25346630319146 4.5511842890625  C 5.25346628047429 5.19306110156248  4.75573225509749 5.71019847656254  4.14446160128544 5.71019847656254  C 3.5330514638741 5.71019847656254  3.03527093639186 5.19306110156248  3.03527093639186 4.5511842890625  C 3.03527093639186 3.91290503906244  3.5330514638741 3.39576766406248  4.14446160128544 3.39576766406248  C 4.75573225509749 3.39576766406248  5.25346630319146 3.91290503906244  5.25346630319146 4.5511842890625  Z M 11.8174369287455 4.55034487500002  C 11.8174369060283 5.19224566406248  11.3197028806516 5.70935906249998  10.7084322268395 5.70935906249998  C 10.0970220894282 5.70935906249998  9.5992415619459 5.19222168750002  9.5992415619459 4.55034487500002  C 9.5992415619459 3.91206562500001  10.0970220894282 3.39492825000003  10.7084322268395 3.39492825000003  C 11.3197028806516 3.39492825000003  11.8174369287455 3.91206562500001  11.8174369287455 4.55034487500002  Z " fill-rule="nonzero" fill="#3b5998" stroke="none" transform="matrix(1 0 0 1 951 238 )" />
    </g>
  </defs>
  <g transform="matrix(1 0 0 1 -951 -238 )">
    <use xlink:href="#widget65" filter="url(#filter64)" />
    <use xlink:href="#widget65" />
  </g>
</svg>