<?xml version="1.0" encoding="utf-8"?>
<svg version="1.1" xmlns:xlink="http://www.w3.org/1999/xlink" width="22px" height="22px" xmlns="http://www.w3.org/2000/svg">
  <defs>
    <filter x="1054px" y="238px" width="22px" height="22px" filterUnits="userSpaceOnUse" id="filter132">
      <feOffset dx="2" dy="2" in="SourceAlpha" result="shadowOffsetInner" />
      <feGaussianBlur stdDeviation="1" in="shadowOffsetInner" result="shadowGaussian" />
      <feComposite in2="shadowGaussian" operator="atop" in="SourceAlpha" result="shadowComposite" />
      <feColorMatrix type="matrix" values="0 0 0 0 0.866666666666667  0 0 0 0 0.317647058823529  0 0 0 0 0.266666666666667  0 0 0 0.298039215686275 0  " in="shadowComposite" />
    </filter>
    <g id="widget133">
      <path d="M 12.3465023085938 7.23059841796875  L 6.70328539453125 0.29993951953125  C 7.45555306640625 0.1003829765625  8.227776375 0  9.00060440625 0  C 10.2088285136719 0  11.3837931914062 0.23765368359375  12.4940531953125 0.7075186171875  L 12.3465023085938 7.23059841796875  Z M 10.1157021386719 5.3819792578125  L 1.22273731054688 4.4724852421875  C 1.61580320507813 3.797016609375  2.09111058984375 3.17899606640625  2.6365651171875 2.63596041210937  C 3.49042519335938 1.7821003359375  4.488812578125 1.11933075585938  5.6057244609375 0.66579317578125  L 10.1157021386719 5.3819792578125  Z M 7.231203140625 5.65410179882813  L 0.29993951953125 11.298528140625  C 0.10098769921875 10.5492840644531  0 9.77706075585938  0 8.99999970117188  C 0 7.79056616601562  0.23825840625 6.61560147070312  0.7075186171875 5.50776035742188  L 7.231203140625 5.65410179882813  Z M 5.383188703125 7.8861114140625  L 4.4724852421875 16.7772620917969  C 3.80185433789063 16.3866150527344  3.18504324023438 15.9113076679687  2.63716983984375 15.3634342851562  C 1.78270504101563 14.5107836367187  1.1199354609375 13.5123962519531  0.667002603515625 12.3942749414063  L 5.383188703125 7.8861114140625  Z M 11.2979234003906 17.701269328125  C 10.5444463359375 17.8996164082031  9.77282773242188 17.9999994023438  9.00060440625 17.9999994023438  C 7.79238029882813 17.9999994023438  6.61741562109375 17.76234571875  5.5071556171875 17.2936902128906  L 5.65470650390625 10.7706104121094  L 11.2979234003906 17.701269328125  Z M 12.3948796464844 17.3348109316406  L 7.88550669140625 12.6186248496094  L 16.7784715195313 13.5281188652344  C 16.388429203125 14.1975403242187  15.9143312460937 14.8143514394531  15.3640389902344 15.3634342675781  C 14.5113883417969 16.2185037890625  13.5117915292969 16.8812733691406  12.3948796464844 17.3348109316406  Z M 17.2930854902344 12.4934484902344  L 10.7700056894531 12.34710703125  L 17.7006646054688 6.70268068945312  C 17.8996164257813 7.45252948828125  17.9999994023438 8.22535751953125  17.9999994023438 8.99999970117187  C 17.9999994023438 10.2130615371094  17.7617409960938 11.3868167871094  17.2930854902344 12.4934484902344  Z M 12.6180201269531 10.1144927109375  L 13.5275141601562 1.22334203320313  C 14.1975403417969 1.612174921875  14.8155608847656 2.08687758398438  15.3640389902344 2.63596041210937  C 16.2191085117188 3.48861106054688  16.8818780917969 4.48820787304687  17.3342062265625 5.60511975585938  L 12.6180201269531 10.1144927109375  Z " fill-rule="nonzero" fill="#dc4e41" stroke="none" transform="matrix(1 0 0 1 1054 238 )" />
    </g>
  </defs>
  <g transform="matrix(1 0 0 1 -1054 -238 )">
    <use xlink:href="#widget133" filter="url(#filter132)" />
    <use xlink:href="#widget133" />
  </g>
</svg>