<?xml version="1.0" encoding="utf-8"?>
<svg version="1.1" xmlns:xlink="http://www.w3.org/1999/xlink" width="24px" height="24px" xmlns="http://www.w3.org/2000/svg">
  <g transform="matrix(1 0 0 1 -609 -28 )">
    <path d="M 0.116279069767442 23.7175581395349  C 0.116279069767442 15.8504651162791  0.116279069767442 7.98674418604651  0.119651162790698 0.119651162790698  C 7.98674418604651 0.112906976744185  15.8538372093023 0.116279069767442  23.7209302325581 0.116279069767442  C 23.7209302325581 7.98337209302326  23.7243023255814 15.8538372093023  23.7209302325581 23.7209302325581  C 15.8538372093023 23.7209302325581  7.98674418604651 23.7243023255814  0.116279069767442 23.7175581395349  Z M 20.3488372093023 3.48837209302325  C 14.7275581395349 3.48837209302325  9.1096511627907 3.48837209302325  3.48837209302325 3.48837209302325  C 3.48837209302325 9.1096511627907  3.48837209302325 14.7275581395349  3.48837209302325 20.3488372093023  C 9.1096511627907 20.3488372093023  14.7275581395349 20.3522093023256  20.3454651162791 20.3454651162791  C 20.3522093023256 14.7275581395349  20.3488372093023 9.1096511627907  20.3488372093023 3.48837209302325  Z " fill-rule="nonzero" fill="#1980ff" stroke="none" transform="matrix(1 0 0 1 609 28 )" />
  </g>
</svg>