<?xml version="1.0" encoding="utf-8"?>
<svg version="1.1" xmlns:xlink="http://www.w3.org/1999/xlink" width="8px" height="11px" xmlns="http://www.w3.org/2000/svg">
  <g transform="matrix(1 0 0 1 -649 -41 )">
    <path d="M 0.581395348837205 10.7175581395349  C 0.581395348837205 7.34883720930232  0.578023255813953 3.97674418604651  0.584767441860457 0.608023255813954  C 1.70767441860465 0.604651162790695  2.83058139534883 0.604651162790695  3.95348837209302 0.604651162790695  C 3.95348837209302 1.72755813953488  3.95348837209302 2.85383720930233  3.95348837209302 3.97674418604651  C 5.07639534883721 3.97674418604651  6.20267441860464 3.97674418604651  7.32558139534883 3.97674418604651  C 7.32558139534883 5.0996511627907  7.32558139534883 6.22255813953488  7.32220930232558 7.34883720930232  C 6.19930232558139 7.34883720930232  5.07639534883721 7.34883720930232  3.95348837209302 7.34883720930232  C 3.95348837209302 8.47174418604651  3.95348837209302 9.5946511627907  3.95348837209302 10.7209302325581  C 2.83058139534883 10.7243023255814  1.70430232558139 10.7209302325581  0.581395348837205 10.7175581395349  Z " fill-rule="nonzero" fill="#6badff" stroke="none" transform="matrix(1 0 0 1 649 41 )" />
  </g>
</svg>