<?xml version="1.0" encoding="utf-8"?>
<svg version="1.1" xmlns:xlink="http://www.w3.org/1999/xlink" width="48px" height="49px" xmlns="http://www.w3.org/2000/svg">
  <g transform="matrix(1 0 0 1 -686 -44 )">
    <path d="M 4.04651162790698 7.72093023255814  C 4.04651162790698 5.47174418604651  4.04651162790698 3.22593023255814  4.04651162790698 0.97674418604651  C 7.41860465116278 0.973372093023254  10.7906976744186 0.980116279069769  14.1627906976744 0.97674418604651  C 14.21 4.32523255813954  14.0717441860465 7.69058139534884  14.223488372093 11.0323255813953  C 16.4389534883721 11.1908139534884  18.6780232558139 11.0424418604651  20.906976744186 11.093023255814  C 20.906976744186 12.2159302325581  20.906976744186 13.3422093023256  20.906976744186 14.4651162790698  C 19.7806976744186 14.4651162790698  18.6577906976744 14.4651162790698  17.5348837209302 14.4651162790698  C 17.531511627907 16.7143023255814  17.5348837209302 18.963488372093  17.5348837209302 21.2093023255814  C 18.6577906976744 21.2093023255814  19.7806976744186 21.2093023255814  20.906976744186 21.2059302325581  C 20.906976744186 18.9601162790698  20.906976744186 16.7143023255814  20.906976744186 14.4651162790698  C 22.0298837209302 14.4651162790698  23.1527906976744 14.4651162790698  24.2790697674419 14.4651162790698  C 24.2790697674419 17.8372093023256  24.2790697674419 21.2059302325581  24.2790697674419 24.578023255814  C 25.401976744186 24.5847674418605  26.5248837209302 24.5847674418605  27.6511627906977 24.578023255814  C 27.6477906976744 23.4551162790698  27.6477906976744 22.3322093023256  27.6511627906977 21.2093023255814  C 28.7740697674418 21.2059302325581  29.896976744186 21.2059302325581  31.0198837209302 21.2093023255814  C 31.0198837209302 22.3322093023256  31.0266279069767 23.4551162790698  31.0266279069767 24.5813953488372  C 33.2724418604651 24.5813953488372  35.5182558139535 24.5813953488372  37.7640697674419 24.5813953488372  C 37.7708139534884 22.3322093023256  37.7640697674419 20.0863953488372  37.7640697674419 17.8405813953488  C 38.8903488372093 17.8338372093023  40.0132558139535 17.8338372093023  41.1395348837209 17.8372093023256  C 41.1462790697674 20.0863953488372  41.1327906976744 22.3322093023256  41.1429069767442 24.5813953488372  C 43.3887209302326 24.5813953488372  45.6345348837209 24.5813953488372  47.8837209302326 24.5813953488372  C 47.8837209302326 25.7043023255814  47.8837209302326 26.8305813953488  47.8837209302326 27.953488372093  C 45.6345348837209 27.953488372093  43.3887209302326 27.9501162790698  41.1429069767442 27.953488372093  C 41.1395348837209 31.3255813953488  41.1361627906977 34.6976744186046  41.1395348837209 38.0697674418605  C 42.2624418604651 38.0731395348837  43.3887209302326 38.0697674418605  44.5116279069767 38.0663953488372  C 44.5082558139535 36.943488372093  44.5082558139535 35.8239534883721  44.5116279069767 34.7010465116279  C 45.6345348837209 34.6943023255814  46.7574418604651 34.6943023255814  47.8837209302326 34.6976744186046  C 47.8837209302326 36.9468604651163  47.8837209302326 39.1926744186047  47.8837209302326 41.4418604651163  C 44.5116279069767 41.4418604651163  41.1395348837209 41.438488372093  37.7674418604651 41.4418604651163  C 37.7674418604651 42.5647674418605  37.7674418604651 43.6876744186046  37.7674418604651 44.8139534883721  C 35.5182558139535 44.8139534883721  33.2724418604651 44.8139534883721  31.0266279069767 44.8105813953488  C 31.0232558139535 43.6876744186046  31.0232558139535 42.5647674418605  31.0232558139535 41.4418604651163  C 32.1461627906977 41.4418604651163  33.2690697674419 41.4418604651163  34.3953488372093 41.4418604651163  C 34.3953488372093 40.3155813953488  34.3953488372093 39.1926744186047  34.3953488372093 38.0697674418605  C 35.5182558139535 38.0697674418605  36.6411627906977 38.0697674418605  37.7640697674419 38.0697674418605  C 37.7674418604651 36.9468604651163  37.7708139534884 35.8239534883721  37.7674418604651 34.7010465116279  C 36.6445348837209 34.6976744186046  35.5216279069767 34.6943023255814  34.3953488372093 34.6976744186046  C 34.3953488372093 35.8205813953488  34.391976744186 36.9468604651163  34.3953488372093 38.0697674418605  C 33.2724418604651 38.0697674418605  32.1461627906977 38.0697674418605  31.0266279069767 38.0731395348837  C 31.0232558139535 39.1960465116279  31.0232558139535 40.3189534883721  31.0232558139535 41.4418604651163  C 28.7740697674418 41.4418604651163  26.5282558139535 41.4418604651163  24.2790697674419 41.4418604651163  C 24.2756976744186 42.5647674418605  24.2790697674419 43.6876744186046  24.2824418604651 44.8139534883721  C 25.4053488372093 44.8105813953488  26.5248837209302 44.8139534883721  27.6477906976744 44.8139534883721  C 27.6511627906977 45.9368604651163  27.6545348837209 47.0631395348837  27.6511627906977 48.1860465116279  C 23.1527906976744 48.1894186046512  18.6577906976744 48.1860465116279  14.1627906976744 48.1826744186046  C 14.1661627906977 47.0597674418605  14.1627906976744 45.9368604651163  14.1627906976744 44.8173255813953  C 11.9136046511628 44.8105813953488  9.66441860465117 44.8139534883721  7.41860465116278 44.8139534883721  C 7.41860465116278 43.6910465116279  7.41860465116278 42.5647674418605  7.41860465116278 41.4418604651163  C 9.66441860465117 41.4418604651163  11.9136046511628 41.4418604651163  14.1627906976744 41.4418604651163  C 14.1627906976744 40.3155813953488  14.1627906976744 39.1960465116279  14.1627906976744 38.0731395348837  C 13.036511627907 38.0697674418605  11.9136046511628 38.0663953488372  10.7906976744186 38.0663953488372  C 10.7906976744186 36.943488372093  10.7906976744186 35.8205813953488  10.7906976744186 34.7010465116279  C 9.66441860465117 34.6976744186046  8.54151162790697 34.6943023255814  7.41860465116278 34.6976744186046  C 7.41860465116278 33.5713953488372  7.41860465116278 32.448488372093  7.41860465116278 31.3255813953488  C 10.7906976744186 31.3222093023256  14.1594186046512 31.3289534883721  17.531511627907 31.3222093023256  C 17.5348837209302 30.1993023255814  17.5348837209302 29.0763953488372  17.5382558139535 27.953488372093  C 18.6611627906977 27.953488372093  19.7840697674419 27.953488372093  20.906976744186 27.953488372093  C 20.906976744186 26.8305813953488  20.906976744186 25.7110465116279  20.906976744186 24.591511627907  C 20.0808139534884 24.5813953488372  19.258023255814 24.5577906976744  18.4318604651163 24.5510465116279  C 18.0170930232558 24.4498837209302  17.6225581395349 24.7803488372093  17.5079069767442 25.158023255814  C 17.4977906976744 26.0887209302326  17.5348837209302 27.0227906976744  17.5382558139535 27.953488372093  C 16.4153488372093 27.953488372093  15.2890697674418 27.953488372093  14.1661627906977 27.953488372093  C 14.1627906976744 26.8305813953488  14.1594186046512 25.7076744186047  14.1594186046512 24.5813953488372  C 13.036511627907 24.5813953488372  11.9136046511628 24.578023255814  10.7906976744186 24.578023255814  C 10.7906976744186 23.4551162790698  10.7906976744186 22.3322093023256  10.7873255813954 21.2126744186046  C 9.66441860465117 21.2093023255814  8.54151162790697 21.2059302325581  7.41860465116278 21.2093023255814  C 7.41860465116278 20.0830232558139  7.41860465116278 18.9601162790698  7.41860465116278 17.8372093023256  C 9.66441860465117 17.8372093023256  11.9136046511628 17.8372093023256  14.1627906976744 17.8372093023256  C 14.1594186046512 15.8881395348837  14.1526744186047 13.9390697674419  14.1931395348837 11.99  C 14.2875581395349 11.5752325581395  13.9604651162791 11.1806976744186  13.5861627906977 11.0660465116279  C 12.6520930232558 11.0559302325581  11.7247674418605 11.093023255814  10.7940697674419 11.0997674418605  C 10.7873255813954 8.85058139534883  10.7940697674419 6.59802325581396  10.7873255813954 4.34883720930232  C 9.66441860465117 4.34883720930232  8.54151162790697 4.34883720930232  7.41860465116278 4.34883720930232  C 7.41860465116278 5.47174418604651  7.41860465116278 6.5946511627907  7.41860465116278 7.71755813953488  C 6.29569767441861 7.72093023255814  5.1727906976744 7.72093023255814  4.04988372093023 7.7243023255814  C 4.04651162790698 8.84720930232558  4.04651162790698 9.97011627906976  4.04313953488372 11.093023255814  C 2.92023255813955 11.093023255814  1.79732558139534 11.093023255814  0.674418604651166 11.093023255814  C 0.674418604651166 9.96674418604651  0.671046511627907 8.84383720930232  0.674418604651166 7.72093023255814  C 1.79732558139534 7.72093023255814  2.92023255813955 7.72093023255814  4.04651162790698 7.72093023255814  Z M 17.5281395348837 21.2093023255814  C 16.4052325581395 21.2059302325581  15.2856976744186 21.2059302325581  14.1627906976744 21.2093023255814  C 14.1594186046512 22.3322093023256  14.1594186046512 23.4551162790698  14.1627906976744 24.578023255814  C 15.2654651162791 24.5443023255814  16.3816279069767 24.6859302325581  17.4741860465116 24.5206976744186  C 17.6394186046512 23.4281395348837  17.4977906976744 22.311976744186  17.5281395348837 21.2093023255814  Z M 31.0232558139535 27.953488372093  C 28.7740697674418 27.953488372093  26.5282558139535 27.953488372093  24.2790697674419 27.953488372093  C 24.2790697674419 30.2026744186046  24.2790697674419 32.448488372093  24.2756976744186 34.6976744186046  C 23.1527906976744 34.6943023255814  22.0298837209302 34.6976744186046  20.9103488372093 34.6976744186046  C 20.906976744186 35.8205813953488  20.9036046511628 36.9468604651163  20.906976744186 38.0697674418605  C 24.2790697674419 38.0697674418605  27.6511627906977 38.0697674418605  31.0232558139535 38.0697674418605  C 31.0266279069767 36.943488372093  31.0232558139535 35.8205813953488  31.0198837209302 34.6976744186046  C 29.896976744186 34.6943023255814  28.7740697674418 34.6976744186046  27.6511627906977 34.6976744186046  C 27.6477906976744 33.5747674418605  27.6477906976744 32.448488372093  27.6545348837209 31.3255813953488  C 28.7740697674418 31.3255813953488  29.896976744186 31.3255813953488  31.0198837209302 31.3222093023256  C 31.0232558139535 30.1993023255814  31.0232558139535 29.0763953488372  31.0232558139535 27.953488372093  Z M 37.7674418604651 27.953488372093  C 36.6411627906977 27.953488372093  35.5182558139535 27.953488372093  34.3953488372093 27.953488372093  C 34.3953488372093 29.0763953488372  34.3953488372093 30.2026744186046  34.3953488372093 31.3255813953488  C 35.5182558139535 31.3255813953488  36.6411627906977 31.3255813953488  37.7640697674419 31.3222093023256  C 37.7674418604651 30.1993023255814  37.7674418604651 29.0763953488372  37.7674418604651 27.953488372093  Z M 20.906976744186 38.0697674418605  C 19.7840697674419 38.0697674418605  18.6577906976744 38.0697674418605  17.5382558139535 38.0731395348837  C 17.5348837209302 39.1960465116279  17.5348837209302 40.3189534883721  17.5348837209302 41.4418604651163  C 18.6577906976744 41.4418604651163  19.7806976744186 41.4418604651163  20.906976744186 41.4418604651163  C 20.906976744186 40.3155813953488  20.906976744186 39.1926744186047  20.906976744186 38.0697674418605  Z " fill-rule="nonzero" fill="#6badff" stroke="none" transform="matrix(1 0 0 1 686 44 )" />
  </g>
</svg>