<?xml version="1.0" encoding="utf-8"?>
<svg version="1.1" xmlns:xlink="http://www.w3.org/1999/xlink" width="28px" height="31px" xmlns="http://www.w3.org/2000/svg">
  <g transform="matrix(1 0 0 1 -612 -58 )">
    <path d="M 7.23255813953488 3.83720930232558  C 7.22918604651163 2.71430232558139  7.23255813953488 1.59139534883721  7.23255813953488 0.46848837209302  C 8.35546511627907 0.465116279069768  9.48174418604651 0.465116279069768  10.6046511627907 0.465116279069768  C 10.6046511627907 1.58802325581395  10.6046511627907 2.71093023255813  10.6012790697674 3.83383720930232  C 9.47837209302325 3.83720930232558  8.35883720930233 3.83720930232558  7.23593023255814 3.84058139534883  C 7.22918604651163 6.0863953488372  7.22918604651163 8.33220930232559  7.23255813953488 10.5813953488372  C 12.8538372093023 10.5847674418605  18.4717441860465 10.578023255814  24.0896511627907 10.5813953488372  C 24.0963953488372 12.8305813953488  24.0896511627907 15.0763953488372  24.0963953488372 17.3222093023256  C 25.2193023255814 17.3255813953488  26.3422093023256 17.3255813953488  27.4651162790698 17.3255813953488  C 27.4651162790698 18.448488372093  27.4651162790698 19.5713953488372  27.4651162790698 20.6943023255814  C 22.9701162790698 20.7044186046512  18.4751162790698 20.6909302325581  13.9767441860465 20.7010465116279  C 13.9733720930233 24.0697674418605  13.9767441860465 27.4418604651163  13.9767441860465 30.8139534883721  C 12.8538372093023 30.8139534883721  11.7309302325581 30.8139534883721  10.6046511627907 30.8105813953488  C 10.6046511627907 29.6876744186046  10.6046511627907 28.5647674418605  10.6046511627907 27.4418604651163  C 7.23255813953488 27.438488372093  3.86046511627907 27.4418604651163  0.488372093023255 27.4418604651163  C 0.488372093023255 25.1926744186047  0.488372093023255 22.9468604651163  0.488372093023255 20.6976744186046  C 1.61127906976744 20.6976744186046  2.73418604651163 20.6943023255814  3.86046511627907 20.6976744186046  C 3.86046511627907 19.5713953488372  3.86383720930233 18.448488372093  3.86383720930233 17.3289534883721  C 7.23593023255814 17.3255813953488  10.6046511627907 17.3255813953488  13.9767441860465 17.3255813953488  C 13.9767441860465 16.2026744186046  13.9767441860465 15.0763953488372  13.9767441860465 13.953488372093  C 11.7275581395349 13.953488372093  9.48174418604651 13.953488372093  7.23593023255814 13.953488372093  C 7.23255813953488 12.8305813953488  7.23255813953488 11.7043023255814  7.22918604651163 10.5813953488372  C 4.98337209302326 10.578023255814  2.73418604651163 10.5813953488372  0.488372093023255 10.5813953488372  C 0.488372093023255 9.45848837209302  0.488372093023255 8.33220930232559  0.488372093023255 7.20930232558139  C 1.61127906976744 7.20593023255814  2.73418604651163 7.20930232558139  3.86046511627907 7.20593023255814  C 3.86046511627907 6.08302325581395  3.86046511627907 4.96011627906977  3.86046511627907 3.83720930232558  C 4.98674418604651 3.83720930232558  6.1096511627907 3.83720930232558  7.23255813953488 3.83720930232558  Z M 20.7209302325581 13.953488372093  C 19.598023255814 13.953488372093  18.4717441860465 13.953488372093  17.3488372093023 13.953488372093  C 17.3488372093023 15.0763953488372  17.3488372093023 16.1993023255814  17.3522093023256 17.3222093023256  C 18.4751162790698 17.3289534883721  19.598023255814 17.3289534883721  20.7209302325581 17.3255813953488  C 20.7243023255814 16.2026744186046  20.7243023255814 15.0763953488372  20.7209302325581 13.953488372093  Z M 10.6012790697674 20.6976744186046  C 9.47837209302325 20.6943023255814  8.35546511627907 20.6943023255814  7.23255813953488 20.6976744186046  C 7.22918604651163 21.8205813953488  7.22918604651163 22.943488372093  7.23255813953488 24.0697674418605  C 8.35883720930233 24.0731395348837  9.48174418604651 24.0731395348837  10.6046511627907 24.0663953488372  C 10.608023255814 22.943488372093  10.6046511627907 21.8205813953488  10.6012790697674 20.6976744186046  Z " fill-rule="nonzero" fill="#6badff" stroke="none" transform="matrix(1 0 0 1 612 58 )" />
  </g>
</svg>