<?xml version="1.0" encoding="utf-8"?>
<svg version="1.1" xmlns:xlink="http://www.w3.org/1999/xlink" width="14px" height="28px" xmlns="http://www.w3.org/2000/svg">
  <g transform="matrix(1 0 0 1 -717 -88 )">
    <path d="M 6.76406976744185 14.2989534883721  C 6.77081395348837 9.80395348837209  6.76069767441861 5.31232558139534  6.77081395348837 0.817325581395338  C 7.89372093023255 0.813953488372093  9.01662790697675 0.810581395348834  10.1395348837209 0.817325581395338  C 10.1361627906977 1.94023255813953  10.1395348837209 3.06313953488372  10.1395348837209 4.18604651162791  C 11.2624418604651 4.18604651162791  12.3853488372093 4.18267441860465  13.5082558139535 4.18604651162791  C 13.5116279069767 6.43523255813953  13.5116279069767 8.68104651162791  13.5116279069767 10.9302325581395  C 12.3887209302326 10.9302325581395  11.2658139534884 10.9302325581395  10.1429069767442 10.9302325581395  C 10.1327906976744 15.4252325581395  10.1462790697674 19.9202325581395  10.1395348837209 24.4186046511628  C 7.89034883720929 24.4186046511628  5.64116279069768 24.4152325581395  3.3953488372093 24.4186046511628  C 3.3953488372093 25.541511627907  3.3953488372093 26.6677906976744  3.3953488372093 27.7906976744186  C 2.27244186046512 27.7906976744186  1.14616279069766 27.7906976744186  0.0266279069767421 27.7873255813954  C 0.0232558139534831 25.541511627907  0.0198837209302383 23.2956976744186  0.0266279069767421 21.0498837209302  C 1.14953488372092 21.046511627907  2.27244186046512 21.046511627907  3.3953488372093 21.046511627907  C 3.3953488372093 18.7973255813953  3.3953488372093 16.551511627907  3.3953488372093 14.3023255813954  C 4.51825581395347 14.3023255813954  5.64116279069768 14.3023255813954  6.76406976744185 14.2989534883721  Z " fill-rule="nonzero" fill="#6badff" stroke="none" transform="matrix(1 0 0 1 717 88 )" />
  </g>
</svg>