<?xml version="1.0" encoding="utf-8"?>
<svg version="1.1" xmlns:xlink="http://www.w3.org/1999/xlink" width="18px" height="11px" xmlns="http://www.w3.org/2000/svg">
  <g transform="matrix(1 0 0 1 -615 -92 )">
    <path d="M 4.23255813953488 3.55813953488372  C 4.23255813953488 2.43186046511627  4.22918604651163 1.3089534883721  4.23255813953488 0.186046511627907  C 6.48174418604651 0.182674418604648  8.73093023255814 0.182674418604648  10.9767441860465 0.186046511627907  C 10.9767441860465 1.3089534883721  10.9767441860465 2.43523255813953  10.9767441860465 3.55813953488372  C 9.85383720930233 3.55813953488372  8.73093023255814 3.55813953488372  7.60802325581395 3.56151162790697  C 7.6046511627907 4.68441860465116  7.6046511627907 5.80732558139535  7.6046511627907 6.93023255813954  C 8.72755813953488 6.93023255813954  9.85383720930233 6.93023255813954  10.9767441860465 6.93023255813954  C 10.9767441860465 5.80395348837209  10.9767441860465 4.68104651162791  10.9767441860465 3.55813953488372  C 13.2225581395349 3.55813953488372  15.4717441860465 3.55813953488372  17.7175581395349 3.55813953488372  C 17.7209302325581 4.68104651162791  17.7209302325581 5.80395348837209  17.7243023255814 6.93023255813954  C 16.598023255814 6.93023255813954  15.4751162790698 6.93023255813954  14.3488372093023 6.93023255813954  C 14.3488372093023 8.05313953488373  14.3488372093023 9.1760465116279  14.3488372093023 10.3023255813954  C 10.9767441860465 10.3023255813954  7.6046511627907 10.3023255813954  4.23255813953488 10.3023255813954  C 4.23255813953488 9.1760465116279  4.23255813953488 8.05313953488373  4.23255813953488 6.93023255813954  C 3.10627906976744 6.93023255813954  1.98337209302326 6.93023255813954  0.86046511627907 6.93023255813954  C 0.86046511627907 5.80395348837209  0.86046511627907 4.68104651162791  0.863837209302325 3.55813953488372  C 1.98674418604651 3.55476744186046  3.1096511627907 3.55813953488372  4.23255813953488 3.55813953488372  Z " fill-rule="nonzero" fill="#6badff" stroke="none" transform="matrix(1 0 0 1 615 92 )" />
  </g>
</svg>