<?xml version="1.0" encoding="utf-8"?>
<svg version="1.1" xmlns:xlink="http://www.w3.org/1999/xlink" width="14px" height="21px" xmlns="http://www.w3.org/2000/svg">
  <g transform="matrix(1 0 0 1 -666 -105 )">
    <path d="M 3.81058139534883 4.04651162790698  C 3.81058139534883 2.92023255813955  3.81395348837209 1.79732558139534  3.81732558139534 0.674418604651166  C 4.94023255813953 0.671046511627907  6.06313953488372 0.671046511627907  7.18604651162791 0.674418604651166  C 7.19279069767442 4.04651162790698  7.18267441860465 7.41860465116278  7.18604651162791 10.7906976744186  C 8.3089534883721 10.7906976744186  9.43186046511627 10.7940697674419  10.5547674418605 10.7940697674419  C 10.5547674418605 11.916976744186  10.5581395348837 13.036511627907  10.561511627907 14.1627906976744  C 11.6844186046512 14.1594186046512  12.8073255813953 14.1627906976744  13.9302325581395 14.1661627906977  C 13.9302325581395 16.411976744186  13.9302325581395 18.6577906976744  13.9302325581395 20.906976744186  C 12.8073255813953 20.906976744186  11.6810465116279 20.906976744186  10.5581395348837 20.906976744186  C 10.5581395348837 19.7806976744186  10.5581395348837 18.6577906976744  10.5547674418605 17.5348837209302  C 8.3089534883721 17.531511627907  6.06313953488372 17.5348837209302  3.81732558139534 17.5348837209302  C 3.81732558139534 16.411976744186  3.81395348837209 15.2856976744186  3.81058139534883 14.1661627906977  C 2.68767441860464 14.1627906976744  1.56476744186047 14.1594186046512  0.441860465116278 14.1627906976744  C 0.441860465116278 13.036511627907  0.441860465116278 11.9136046511628  0.441860465116278 10.7906976744186  C 1.56476744186047 10.7906976744186  2.68767441860464 10.7906976744186  3.81058139534883 10.7873255813954  C 3.81395348837209 9.66441860465117  3.81395348837209 8.54151162790697  3.81395348837209 7.41860465116278  C 2.68767441860464 7.41860465116278  1.56476744186047 7.41860465116278  0.441860465116278 7.41860465116278  C 0.441860465116278 6.29569767441861  0.441860465116278 5.1727906976744  0.441860465116278 4.04988372093023  C 1.56476744186047 4.04651162790698  2.68767441860464 4.04651162790698  3.81058139534883 4.04651162790698  Z M 7.18604651162791 10.7940697674419  C 6.05976744186046 10.7873255813954  4.93686046511628 10.7873255813954  3.81058139534883 10.7906976744186  C 3.81058139534883 11.9136046511628  3.81058139534883 13.0398837209302  3.81395348837209 14.1627906976744  C 4.93686046511628 14.1627906976744  6.05976744186046 14.1627906976744  7.18604651162791 14.1627906976744  C 7.18941860465115 13.0398837209302  7.18941860465115 11.916976744186  7.18604651162791 10.7940697674419  Z " fill-rule="nonzero" fill="#1980ff" stroke="none" transform="matrix(1 0 0 1 666 105 )" />
  </g>
</svg>