<?xml version="1.0" encoding="utf-8"?>
<svg version="1.1" xmlns:xlink="http://www.w3.org/1999/xlink" width="24px" height="24px" xmlns="http://www.w3.org/2000/svg">
  <g transform="matrix(1 0 0 1 -609 -129 )">
    <path d="M 0.116279069767442 23.8837209302326  C 0.116279069767442 16.0166279069768  0.112906976744185 8.14616279069766  0.119651162790698 0.279069767441854  C 7.98674418604651 0.279069767441854  15.8538372093023 0.279069767441854  23.7209302325581 0.279069767441854  C 23.7243023255814 8.14616279069766  23.7209302325581 16.0166279069768  23.7175581395349 23.8837209302326  C 15.8504651162791 23.8837209302326  7.98337209302326 23.8837209302326  0.116279069767442 23.8837209302326  Z M 20.3488372093023 3.65453488372093  C 14.7275581395349 3.64779069767442  9.1096511627907 3.64779069767442  3.48837209302325 3.65453488372093  C 3.48837209302325 9.27244186046512  3.48837209302325 14.8903488372093  3.48837209302325 20.5116279069767  C 9.10627906976744 20.5116279069767  14.7275581395349 20.5116279069767  20.3454651162791 20.5116279069767  C 20.3522093023256 14.8903488372093  20.3488372093023 9.27244186046512  20.3488372093023 3.65453488372093  Z " fill-rule="nonzero" fill="#6badff" stroke="none" transform="matrix(1 0 0 1 609 129 )" />
  </g>
</svg>