<?xml version="1.0" encoding="utf-8"?>
<svg version="1.1" xmlns:xlink="http://www.w3.org/1999/xlink" width="8px" height="8px" xmlns="http://www.w3.org/2000/svg">
  <g transform="matrix(1 0 0 1 -686 -129 )">
    <path d="M 0.674418604651166 3.65116279069767  C 0.671046511627907 2.52488372093023  0.674418604651166 1.40197674418604  0.677790697674411 0.279069767441854  C 1.80069767441859 0.275697674418609  2.92023255813955 0.275697674418609  4.04313953488372 0.279069767441854  C 4.04651162790698 1.40197674418604  4.04651162790698 2.52488372093023  4.04651162790698 3.65116279069767  C 5.16941860465116 3.64779069767442  6.29232558139536 3.65116279069767  7.41860465116278 3.65453488372093  C 7.41860465116278 4.77406976744184  7.41860465116278 5.89697674418605  7.41860465116278 7.02325581395348  C 6.29569767441861 7.02325581395348  5.1727906976744 7.02325581395348  4.04988372093023 7.02325581395348  C 4.04988372093023 5.90034883720931  4.04651162790698 4.7774418604651  4.04313953488372 3.65453488372093  C 2.92023255813955 3.65116279069767  1.79732558139534 3.64779069767442  0.674418604651166 3.65116279069767  Z " fill-rule="nonzero" fill="#1980ff" stroke="none" transform="matrix(1 0 0 1 686 129 )" />
  </g>
</svg>