<?xml version="1.0" encoding="utf-8"?>
<svg version="1.1" xmlns:xlink="http://www.w3.org/1999/xlink" width="11px" height="7px" xmlns="http://www.w3.org/2000/svg">
  <g transform="matrix(1 0 0 1 -656 -146 )">
    <path d="M 0.325581395348834 3.51162790697674  C 0.322209302325582 2.38534883720931  0.322209302325582 1.26244186046512  0.328953488372086 0.139534883720927  C 3.69767441860465 0.136162790697682  7.06976744186046 0.139534883720927  10.4418604651163 0.139534883720927  C 10.4418604651163 1.26244186046512  10.4418604651163 2.38534883720931  10.4418604651163 3.51162790697674  C 9.31895348837209 3.51162790697674  8.19604651162791 3.51162790697674  7.07313953488372 3.51499999999999  C 7.06976744186046 4.63790697674418  7.06976744186046 5.76081395348837  7.06976744186046 6.88372093023256  C 5.94686046511627 6.88372093023256  4.82058139534884 6.88372093023256  3.69767441860465 6.88372093023256  C 3.69767441860465 5.75744186046512  3.6943023255814 4.63453488372093  3.6943023255814 3.51162790697674  C 2.57139534883721 3.5082558139535  1.44848837209302 3.5082558139535  0.325581395348834 3.51162790697674  Z " fill-rule="nonzero" fill="#1980ff" stroke="none" transform="matrix(1 0 0 1 656 146 )" />
  </g>
</svg>