<?xml version="1.0" encoding="utf-8"?>
<svg version="1.1" xmlns:xlink="http://www.w3.org/1999/xlink" width="331px" height="200px" xmlns="http://www.w3.org/2000/svg">
  <g transform="matrix(1 0 0 1 -485 -460 )">
    <path d="M 88.649352264513 178.402730336879  L 88.649352264513 184.57354037234  L 94.8201624942336 184.57354037234  C 96.4861019875105 184.604643340133  97.8202653490811 185.964184839702  97.8199750293175 187.63041462766  C 97.8199750293175 189.317809166667  96.5034811819653 190.687288882979  94.8201624942336 190.687288882979  L 88.649352264513 190.687288882979  L 88.649352264513 196.85809891844  C 88.618249298123 198.524038336049  87.2587079164905 199.858201667342  85.5924782046137 199.857911453901  C 85.5775266916102 199.858134148182  85.5625737275468 199.858245499954  85.547620556183 199.858245499954  C 83.8887595681416 199.858245499954  82.5421542194034 198.516946974262  82.5356039496789 196.85809891844  L 82.5356039496789 190.687288882979  L 76.3647937199583 190.687288882979  C 74.6988542266815 190.656185915187  73.3646908651108 189.296644415617  73.3649811848744 187.63041462766  C 73.3649811848744 185.943020088652  74.6814750322266 184.57354037234  76.3647937199583 184.57354037234  L 82.5356039496789 184.57354037234  L 82.5356039496789 178.402730336879  C 82.566706917467 176.736790843393  83.9262484168656 175.402627481655  85.5924782046137 175.402917801418  C 87.2798727434086 175.402917801418  88.6493524595485 176.719411648936  88.649352264513 178.402730336879  Z M 10.1895806963635 95.883429822695  L 10.1895806963635 100.000020283688  L 14.3061713518743 100.000020283688  C 15.4157325439235 100.022215920649  16.3035511845382 100.928153305607  16.3033292062331 102.037936453901  C 16.3033292062331 103.16286608156  15.4270253233646 104.075852624113  14.3061713518743 104.075852624113  L 10.1895806963635 104.075852624113  L 10.1895806963635 108.192443280142  C 10.1673850594048 109.302004472331  9.26144767456129 110.189823113057  8.15166452640697 110.189601134752  C 8.14079145048041 110.189778038921  8.1299171154251 110.189866495395  8.11904260048467 110.189866495395  C 7.01461927686057 110.189866495395  6.11809195046102 109.296858063164  6.11374855148588 108.192443280142  L 6.11374855148588 104.075852624113  L 1.99715789597509 104.075852624113  C 0.887596703925859 104.053656987152  -0.000221936688836604 103.147719602195  0 102.037936453901  C 0 100.913006826241  0.876303924484809 100.000020283688  1.99715789597509 100.000020283688  L 6.11374855148588 100.000020283688  L 6.11374855148588 95.883429822695  C 6.13594418694837 94.773868706363  7.0418814541028 93.8860500960047  8.15166452640697 93.8862719680851  C 9.2765941539251 93.8862719680851  10.1895806963635 94.7625758510638  10.1895806963635 95.883429822695  Z M 319.993593139682 6.25587762411347  L 315.877002484171 6.25587762411346  L 315.877002484171 2.13928716312057  C 315.872659086938 1.03487237885383  314.976131760022 0.141863944694458  313.87170843516 0.141863944694458  C 313.860833855202 0.141863944694458  313.849959455133 0.14195240222626  313.839086314214 0.142129308510636  C 312.72930316606 0.141907330205518  311.823365781217 1.02972597093184  311.801170144258 2.13928716312057  L 311.801170144258 6.25587762411347  L 307.684579488747 6.25587762411347  C 306.580164781141 6.26022112845599  305.687156465595 7.15674842370863  305.687156465595 8.26117167260987  C 305.687156465595 8.27204625282563  305.687244923131 8.28292065315027  305.687421829424 8.29379379432624  C 305.687421829424 9.38611680851064  306.584104967609 10.331709964539  307.684579488747 10.331709964539  L 311.801170144258 10.331709964539  L 311.801170144258 14.4483006205674  C 311.801170144258 15.5691545921986  312.714156491661 16.4454584751773  313.839086314214 16.4454584751773  C 314.948869462369 16.4456804534824  315.854806847212 15.5578618127561  315.877002484171 14.4483006205674  L 315.877002484171 10.331709964539  L 319.993593139682 10.331709964539  C 321.114447111172 10.331709964539  321.990750994041 9.41872361702128  321.990750799005 8.29379379432624  C 321.99097277942 7.1840107203868  321.103154255267 6.27807336579741  319.993593139682 6.25587762411347  Z M 105.971621061897 69.4435241259702  C 105.971621061897 69.4394421172162  105.971627212641 69.4353601107856  105.971639514108 69.4312781205674  C 105.971638497022 67.1818489108718  107.79396791827 65.3576954147201  110.043396002958 66  L 146.729962523168 66  C 146.730259719641 65.3554459101655  146.730556916184 65.3554458776596  146.730854112664 65.3554458776596  C 148.981874156865 65.3554458776596  150.806686452577 67.1802581736009  150.806686452577 69.4312782180851  C 150.806686452577 71.6822982625693  148.981874156865 73.5071105585106  146.730854112664 73.5071105585106  C 146.730556916184 73.5071105585106  146.730259719641 73.5071105260047  146.729962523168 74  L 110.047471854021 74  C 110.043389863805 73.5071227624602  110.039307857372 73.5071289132043  110.03522584862 73.5071289132043  C 107.790958895573 73.5071289132043  105.971621061897 71.687791079299  105.971621061897 69.4435241259702  Z M 105.971565692996 93.9107290509178  C 105.971565692996 93.9025766342691  105.971590300145 93.8944242361867  105.971639514108 93.8862719680851  C 105.971639514108 91.6364125177305  107.78538485076 89.8104396276596  110.018941091613 90  L 158.98599011028 90  C 161.219546156098 89.8104396276596  163.033291492749 91.6201091134752  163.033291687785 93.8862719680851  C 163.033291687785 96.1361314184397  161.219546351134 97.9621043085106  158.98599011028 98  L 110.018941091613 98  C 107.782990974715 97.9598956996606  105.971565692996 96.1466802588984  105.971565692996 93.9107290509178  Z M 105.971606742923 118.357577275247  C 105.971606742923 118.35214004056  105.971617666673 118.346702811361  105.971639514108 118.341265620567  C 105.971639514108 116.091406170213  107.789460701823 114.265433280142  110.039320151895 114  L 130.434784865642 114  C 132.680568464651 114.265433475177  134.502465503429 116.075102960993  134.502465503429 118.341265620567  C 134.502465503429 120.591125070922  132.684644315714 122.417097960993  130.434784865642 122  L 110.039320151895 122  C 110.036591997594 122.417103461274  110.033863838428 122.417106211417  110.031135678582 122.417106211417  C 107.789119755921 122.417106211417  105.971606742923 120.599593198191  105.971606742923 118.357577275247  Z M 36.6824907107631 44.9762844680851  C 29.9294306858747 44.9762844680851  24.4549938860593 39.5018476675814  24.4549938860593 32.748787641844  C 24.4549938860593 25.9957276161066  29.9294306858747 20.5212908156028  36.6824907107631 20.5212908156028  C 43.4355507356514 20.5212908156028  48.9099875354669 25.9957276161066  48.9099875354669 32.748787641844  C 48.9099875354669 39.5018476675814  43.4355507356514 44.9762844680851  36.6824907107631 44.9762844680851  Z M 57.0605602456075 120.379181888298  C 57.0605602456075 123.755285522221  54.3240072850709 126.492327299378  50.9479037054234 126.492930301418  C 50.947539715491 126.49293036643  50.9471757256761 126.492930398936  50.9468117357378 126.492930398936  C 47.5702816694361 126.492930398936  44.8330632258682 123.755711955024  44.8330632258682 120.379181888298  C 44.8330632258682 117.002651821572  47.5702816694361 114.26543337766  50.9468117357378 114.26543337766  C 50.9471757256761 114.26543337766  50.947539715491 114.265433410166  50.9479037054234 114.265433475177  C 54.3240072850709 114.266036477217  57.0605602456075 117.003078254375  57.0605602456075 120.379181888298  Z M 30.5698341705638 32.7487875443262  C 30.5698341705638 36.1248911782549  33.3063871311097 38.8619329554152  36.6824907107631 38.8625359574468  C 36.6828547006601 38.8625360224586  36.6832186905307 38.8625360549645  36.6835826804335 38.8625360549645  C 40.0601127467352 38.8625360549645  42.7973311903031 36.1253176110525  42.7973311903031 32.7487875443262  C 42.7973311903031 29.3722574776  40.0601127467352 26.6350390336879  36.6835826804335 26.6350390336879  C 36.6832186905307 26.6350390336879  36.6828547006601 26.6350390661939  36.6824907107631 26.6350391312057  C 33.3063871311097 26.6356421332373  30.5698341705638 29.3726839103976  30.5698341705638 32.7487875443262  Z M 317.914918654127 97.9621043085106  C 311.161858575381 97.9621043085106  305.687421731906 92.4876674643467  305.687421731906 85.7346073847518  C 305.687421731906 78.9815473051568  311.161858575382 73.5071104609929  317.914918654127 73.5071104609929  C 324.667978732873 73.5071104609929  330.142415576349 78.9815473051568  330.142415576349 85.7346073847518  C 330.142415576349 92.4876674643467  324.667978732873 97.9621043085106  317.914918654127 97.9621043085106  Z M 311.802262113913 85.7346073847518  C 311.802262113913 89.1107110186863  314.538815074468 91.8477527958491  317.914918654127 91.8483557978723  C 317.91528264403 91.8483558628842  317.915646633875 91.8483558953901  317.916010623783 91.8483558953901  C 321.292540690084 91.8483558953901  324.029759133652 89.111137451478  324.029759133652 85.7346073847518  C 324.029759133652 82.3580773180255  321.292540690084 79.6208588741135  317.916010623783 79.6208588741135  C 317.915646633875 79.6208588741135  317.91528264403 79.6208589066194  317.914918654127 79.6208589716312  C 314.538815074468 79.6214619736544  311.802262113913 82.3585037508172  311.802262113913 85.7346073847518  Z M 252.70160199566 195.782079113475  C 248.199561961115 195.782079113475  244.549937413352 192.132454565253  244.549937413352 187.630414530142  C 244.549937413352 183.128374495031  248.199561961115 179.478749946809  252.70160199566 179.478749946809  C 257.203642030205 179.478749946809  260.853266577968 183.128374495031  260.853266577968 187.630414530142  C 260.853266577968 192.132454565253  257.203642030205 195.782079113475  252.70160199566 195.782079113475  Z M 252.701602339227 191.706246968085  C 254.952622383428 191.706246968085  256.77743467914 189.881434672144  256.77743467914 187.63041462766  C 256.77743467914 185.379394583175  254.952622383428 183.554582287234  252.701602339227 183.554582287234  C 250.450582295026 183.554582287234  248.625769999314 185.379394583175  248.625769999314 187.63041462766  C 248.625769999314 189.881434672144  250.450582295026 191.706246968085  252.701602339227 191.706246968085  Z M 199.014739094609 114.265433475177  L 202.393604023262 110.890644202128  C 217.464494450783 114.086179719748  228.244785423731 127.390313140206  228.246608151217 142.796259468085  C 228.246608151217 146.863940106383  228.352579693757 146.863940106383  195.949713137547 146.863940106383  C 163.546846581337 146.863940106383  163.033291687785 146.863940106383  163.033291687785 142.796259468085  C 163.033291687785 127.104305230496  174.119555480717 114.000504326241  188.88629581574 110.890644202128  L 192.265160744393 114.265433475177  L 191.564117677106 114.265433475177  L 188.295300142056 130.617672464539  C 187.846958670481 132.834925301418  188.812930886671 135.920330319149  190.447339556679 137.493601613475  L 195.949713137547 142.796259468085  L 200.962986931243 137.587345797872  C 202.532182374308 135.957012978723  203.432941363557 132.843077003546  202.984599696946 130.617672464539  L 199.715782161896 114.265433475177  L 199.014739094609 114.265433475177  Z M 195.639950017019 106.113768794326  C 186.635869947929 106.113768794326  179.336620852402 98.8145196978811  179.336620852402 89.8104396276596  C 179.336620852402 80.806359557438  186.635869947929 73.5071104609929  195.639950017019 73.5071104609929  C 204.644030086108 73.5071104609929  211.943279181636 80.806359557438  211.943279181636 89.8104396276596  C 211.943279181636 98.8145196978811  204.644030086108 106.113768794326  195.639950017019 106.113768794326  Z M 79.6213838968538 151  C 78.1876143482676 148.470861988013  77.4352644565026 145.658339185643  78 142.796259468085  L 78 57.2037812943262  C 77.4408135247875 48.1961919858156  84.7406292330896 40.9004521276596  93.7767493028755 40.9004521276596  L 97.8199750293175 40.9004521276596  L 97.8199750293175 36.8246199822695  C 97.8199750293175 27.8170306737589  105.11979073762 20.5212908156028  114.155910807405 21  L 252.668995382189 21  C 252.678505794939 20.5212741762585  252.688016220427 20.5212658565816  252.697526647734 20.5212658565816  C 261.702275816137 20.5212658565816  269.002694307343 27.8198710905604  269 36.8246199822695  L 269 122.417097960993  C 269.004931160277 131.424687269504  261.705115451975 138.72042712766  252.668995382189 138.72042712766  L 248.625769655747 138.72042712766  L 248.625769655747 142.796259468085  C 248.625769655747 145.767541241135  247.830982404074 148.55133464539  246.445199478716 151  L 269.017158713467 151  C 271.258866461412 150.947923953901  273.08076350019 152.757593439716  273.08076350019 155.023756294326  C 273.08076350019 157.273615744681  271.234411550067 159.099588634752  269.017158713467 159  L 69.2769214868069 159  C 69.2755519547574 159.099590020838  69.2741824221013 159.099590713882  69.2728128893504 159.099590713882  C 67.0307969666887 159.099590713882  65.2132839536906 157.282077700655  65.2132839536906 155.040061777712  C 65.2132839536906 155.034626600142  65.213294869177 155.029191428052  65.2133167000837 155.023756294326  C 65.2133167000837 152.773896843972  67.0596686502062 150.947923953901  69.2769214868069 151  L 79.6213838968538 151  Z M 248 57.2037812943262  L 248 130.568762641844  L 252.68937444247 130.568762641844  C 257.188634517842 130.56878282782  260.839788961961 126.928565404192  260 122.429325514184  L 260 36.812392429078  C 260.846525720121 32.315128254708  257.198880377831 28.6729461169658  252.701611152308 28.6729461169658  C 252.697532247304 28.6729461169658  252.693453342878 28.6729491784509  252.68937444247 29  L 114.135531552089 29  C 109.636271476716 28.6729351154424  105.985117032598 32.3131525390708  105.971639514108 36.812392429078  L 105.971639514108 41  L 232.289833877659 41  C 232.299344290412 40.9004354883153  232.308854715895 40.9004271686383  232.318365143204 40.9004271686383  C 241.323114311607 40.9004271686383  248.623532802813 48.1990324026171  248 57.2037812943262  Z M 93.7563702425943 49  C 89.257110167222 49.0520966225346  85.6059557231034 52.6923140461629  86 57.1915539361702  L 86 142.808486826241  C 85.5992189649436 147.305751000611  89.2468643072329 150.947933138353  93.7441335327559 150.947933138353  C 93.7482124377471 150.947933138353  93.7522913421988 150.947930076868  93.7563702425943 151  L 232.31021293794 151  C 236.809473089431 150.947944247364  240.460627652239 147.307726792367  240 142.808486826241  L 240 57.1915539361702  C 240.467364410788 52.6942897616857  236.819719068451 49.0521076237653  232.322449842814 49.0521076237653  C 232.318370872797 49.0521076237653  232.31429190336 49.0521106853479  232.31021293794 49  L 93.7563702425943 49  Z M 281.232395238588 155.040061777712  C 281.232395238588 155.03462660014  281.232406154074 155.029191428055  281.232427984981 155.023756294326  C 281.232427984981 152.773896843972  283.078779935103 150.947923953901  285.296032771704 151  L 301.623816847665 151  C 303.86552459561 150.947923953901  305.687421634388 152.757593439716  305.687421829424 155.023756294326  C 305.687421829424 157.273615744681  303.841069879301 159.099588634752  301.623816847665 159  L 285.296032771704 159  C 285.294663239654 159.099590020838  285.293293706998 159.099590713882  285.291924174247 159.099590713882  C 283.049908251586 159.099590713882  281.232395238588 157.282077700655  281.232395238588 155.040061777712  Z " fill-rule="nonzero" fill="#d2d2d2" stroke="none" transform="matrix(1 0 0 1 485 460 )" />
  </g>
</svg>