<?xml version="1.0" encoding="utf-8"?>
<svg version="1.1" xmlns:xlink="http://www.w3.org/1999/xlink" width="306px" height="200px" xmlns="http://www.w3.org/2000/svg">
  <g transform="matrix(1 0 0 1 -497 -2221 )">
    <path d="M 30.5926340665857 132.545157444799  L 30.5926340665857 136.664965499681  L 34.71244192128 136.664965499681  C 35.8228703105665 136.687178484058  36.7113828415939 137.593823921419  36.7111606897977 138.704474441608  C 36.7111606897977 139.830283396299  35.8341719161142 140.743983383535  34.71244192128 140.743983383535  L 30.5926340665857 140.743983383535  L 30.5926340665857 144.86379124314  C 30.5704210822351 145.97421963375  29.6637756459544 146.862732165836  28.5531251270891 146.86251001404  C 28.5422434362283 146.86268706029  28.5313604852143 146.862775587808  28.5204773541683 146.862775587808  C 27.4151908719805 146.862775587808  26.5179628922916 145.969069179578  26.5136161875926 144.86379124314  L 26.5136161875926 140.743983383535  L 22.3938081376206 140.743983383535  C 21.2833797483342 140.721770399158  20.3948672173068 139.815124961797  20.3950893691029 138.704474441608  C 20.3950893691029 137.578665486918  21.2720781427865 136.664965499681  22.3938081376206 136.664965499681  L 26.5136161875926 136.664965499681  L 26.5136161875926 132.545157444799  C 26.5358291719432 131.434729054189  27.4424746082238 130.546216522103  28.5531251270891 130.546438673899  C 29.6789340804379 130.546438673899  30.5926340665857 131.423427448628  30.5926340665857 132.545157444799  Z M 303.927617833995 120.348894159541  L 299.807809784023 120.348894159541  L 299.807809784023 116.229086299936  C 299.803463079324 115.123808363498  298.906235099635 114.230101955268  297.800948617447 114.230101955268  C 297.790065486401 114.230101955268  297.779182535387 114.230190482786  297.768300844527 114.230367529036  C 296.657650325661 114.23014537724  295.751004889381 115.118657909326  295.72879190503 116.229086299936  L 295.72879190503 120.348894159541  L 291.608984050336 120.348894159541  C 290.503706115215 120.353240864245  289.60999970805 121.250468845003  289.60999970805 122.355755328508  C 289.60999970805 122.366638459568  289.610088235568 122.377521410593  289.610265281818 122.388403101468  C 289.610265281818 123.48157980217  290.50764923863 124.427912043395  291.608984050336 124.427912043395  L 295.72879190503 124.427912043395  L 295.72879190503 128.547720098277  C 295.72879190503 129.669450094448  296.642491891178 130.546438869177  297.768300844527 130.546438673899  C 298.878951288945 130.546660827808  299.78559669482 129.658148412328  299.807809784023 128.547720098277  L 299.807809784023 124.427912043395  L 303.927617833995 124.427912043395  C 305.049347828829 124.427912043395  305.926336602513 123.514212056158  305.926336407235 122.388403101468  C 305.926558561144 121.277752655726  305.038046146723 120.37110724877  303.927617833995 120.348894159541  Z M 161.557659051535 197.585096571793  L 151.625250563053 187  L 48.935977060678 187  C 48.9346064191007 187.652689654001  48.9332357768636 187.652690347626  48.9318651345842 187.652690347626  C 46.6880969677581 187.652690347626  44.8691634802047 185.833756857905  44.8691634802047 183.589988688404  C 44.8691634802047 183.584549236781  44.8691744043273 183.579109790643  44.8691962525063 183.573670382897  C 44.8691962525063 181.322052473516  46.7169914079302 179.494652499043  48.935977060678 179  L 67.4343228216565 179  C 66.0066435019007 177.020673403557  65.2580303409995 174.213373895257  66 171.357012109764  L 66 53.0247050644544  C 65.2687756582885 44.0235231652748  72.5669346650698 36.7290039012014  81.5681176734829 36.7290039012014  C 81.5776360552025 36.7290039012014  81.5871544351045 36.7290122366263  81.596672802225 37  L 93.8174100193132 37  L 93.8174100193132 32.6296160357371  C 93.8219002254074 23.6284341365576  101.120059232189 16.3339148724841  110.121242240602 16.3339148724841  C 110.130760622321 16.3339148724841  110.140279002223 16.333923207909  110.149797369344 17  L 208.013592844286 17  C 208.025829895716 16.3339123108145  208.038066974319 16.333898526834  208.050304056802 16.333898526834  C 217.050157475762 16.333898526834  224.345980194369 23.6297212541362  224.345980194369 32.6295746838219  C 224.345980194369 32.6295884637289  224.345980194351 32.62960225583  224 32.6296160357371  L 224 150.961922885769  C 224.345980194316 153.927368885769  223.554650721105 156.705180059987  222.171863671062 159  L 244.736990240212 159  C 246.992687105424 159.099563470325  248.82008707772 160.910647415444  248.82008707772 163.17858135418  C 248.82008707772 165.430199263561  247.004924176246 167.257599238034  244.741069198727 167  L 195.79285543192 167  L 195.79285543192 171.357012109764  C 195.79285543192 174.322458109764  195.001525958709 177.100269283982  193.618738908665 179.49465269432  L 195.805092502741 179.49465269432  C 198.048552297132 179.49465269432  199.871873310913 181.305736639438  199.871873310913 183.573670382897  C 199.871873310913 185.825288292278  198.024078155489 187.652688266752  195.805092502741 187  L 174.345379899089 187  C 176.209491083849 190.777215992342  175.805668332575 194.872549710274  173.093121279012 197.585096571793  C 171.56592940613 199.11950661409  169.490275656214 199.982138580962  167.325390165273 199.982138580962  C 165.160504674333 199.982138580962  163.084850924417 199.11950661409  161.557659051535 197.585096571793  Z M 152.901983129496 165.85849596171  L 166.538139650577 179  L 179.509416365175 179  C 183.996335953956 179.49465269432  187.634819869211 175.864326887045  187 171.316221938736  L 187 52.8329912801532  C 187.634819869211 48.4276520280791  184.110548549863 44.8870644798979  179.762315503354 45  L 81.2948253807597 45  C 76.9465923342508 44.8870644798979  73.4223210149028 48.4439680574346  74 52.8329912801532  L 74 171.316221938736  C 73.4223210149028 175.831694633057  77.09343698883 179.49465269432  81.5436455604248 179  L 143.463135846552 179  L 141.366520706741 177.393958398213  C 139.297451604038 175.335814128404  138.488223270379 172.327663440203  139.245431425287 169.509216952138  L 135.394838738108 165.654545106573  C 130.465870880157 169.323648466395  124.48502768327 171.305320631401  118.34035164806 171.305320631401  C 102.566390788607 171.305320631401  89.7790689686344 158.517998796189  89.7790689686344 142.744037917936  C 89.7790689686344 135.190745713892  92.771081791677 127.944999746107  98.1003787532004 122.592353956605  C 103.458025547761 117.21556810291  110.736050704047 114.193307159484  118.326452881985 114.193307159484  C 134.095908248273 114.193307159484  146.879577644382 126.976976570828  146.879577644382 142.74643195591  C 146.879577644382 148.928116220771  144.873422184753 154.942848443911  141.162569851847 159.88681398596  L 145.017241692817 163.741485831525  C 147.834955844061 162.980606650948  150.844315770888 163.788603400319  152.901983129496 165.85849596171  Z M 195 53.0247050644544  L 195 159  L 208.066620086086 159  C 212.55690296538 159.077123533016  216.185756580183 155.431866320258  216 150.941527897894  L 216 32.650011023612  C 216.187944631608 28.1304593707722  212.549460716353 24.4919754511806  208.066620086086 25  L 110.092691169029 25  C 105.604002840385 24.5166508155725  101.977621285911 28.1612553942089  101.975445777299 32.650011023612  L 101.975445777299 37  L 179.460468081889 37  C 179.47270513332 36.7290013395318  179.484942211922 36.7289875555513  179.497179294406 36.7289875555513  C 188.497032713365 36.7289875555513  195.792855431972 44.0248102828535  195.792855431972 53.0246637125392  C 195.792855431972 53.0246774924462  195.792855431955 53.0246912845473  195 53.0247050644544  Z M 52.0074775407443 3.11792212252712  L 52.0074775407443 9.19565858200383  L 58.0852139929775 9.19565858200383  C 59.7984015646434 9.19565858200383  61.1852675732011 10.553971492023  61.1852675732011 12.2549219948947  C 61.1852675732011 13.9436354269304  59.7984015646434 15.3141854077856  58.0852139929775 15.3141854077856  L 52.0074775407443 15.3141854077856  L 52.0074775407443 21.3919218672623  C 52.0074775407443 23.10510944097  50.649164632344 24.4919754511806  48.9482141314994 24.4919754511806  C 47.2553354739585 24.4808015145514  45.888882742475 23.1052996706809  45.888882742475 21.4123841344392  C 45.888882742475 21.4055633222527  45.8889054025266 21.3987425288875  45.8889507222546 21.3919218672623  L 45.8889507222546 15.3141854077856  L 39.8112142700214 15.3141854077856  C 39.8016888776583 15.3142740349719  39.7921631245348 15.3143183492843  39.7826373198733 15.3143183492843  C 38.0910194877205 15.3143183492843  36.7178269954481 13.9465266937671  36.7111606897977 12.2549219948947  C 36.7111606897977 10.566208562859  38.0980266983554 9.19565858200383  39.8112142700214 9.19565858200383  L 45.8889507222546 9.19565858200383  L 45.8889507222546 3.11792212252712  C 45.8889507222546 1.4047345488194  47.2472636306549 0.0178685386088091  48.9482141314994 0.0178685386088091  C 50.6369275615225 0.0178685386088091  52.0074775407443 1.4047345488194  52.0074775407443 3.11792212252712  Z M 4.07898547138489 183.589988688207  C 4.07898547138489 183.584549236649  4.0789963955072 183.579109790577  4.07901824368572 183.573670382897  C 4.07901824368572 181.322052473516  5.92681339910954 179.494652499043  8.14579885657981 179  L 32.644379881626 179  C 34.8878396760167 179.49465269432  36.7111606897977 181.305736639438  36.7111606897977 183.573670382897  C 36.7111606897977 185.825288292278  34.8633655343739 187.652688266752  32.644379881626 187  L 8.14579885657981 187  C 8.14442828008668 187.652689653869  8.14305770295944 187.652690347428  8.14168712576438 187.652690347428  C 5.89791895893825 187.652690347428  4.07898547138489 185.833756857707  4.07898547138489 183.589988688207  Z M 118.291517000355 163.181269959676  C 123.701344004477 163.181269959676  128.889598578834 161.032224547372  132.714923938494 157.206899183153  C 136.540249298155 153.381573818933  138.689294707897 148.193319238393  138.689294707897 142.783492227824  C 138.689294707897 131.518110656084  129.556898558669 122.385714495972  118.291517000355 122.385714495972  C 112.881689996234 122.385714495972  107.693435421877 124.534759908276  103.868110062217 128.360085272495  C 100.042784702556 132.185410636715  97.8937392928134 137.373665217255  97.8937392928134 142.783492227824  C 97.8937392928134 154.048873799564  107.026135442041 163.181269959676  118.291517000355 163.181269959676  Z M 89.7383738690846 61.2153913568007  C 89.7383738690846 61.2113061709223  89.7383800245959 61.2072209873666  89.7383923355977 61.2031358200383  C 89.7383912099287 58.9519484961286  91.5621448652405 57.1263691985172  93.8133310607985 58  L 138.686606102404 58  C 138.686606102404 57.1241179361838  138.686606102404 57.1241179361838  138.686606102404 57.1241179361838  C 140.93938547126 57.1241179361838  142.765623981398 58.9503564484984  142.765623981398 61.2031358200383  C 142.765623981398 63.4559151915782  140.93938547126 65.2821537038928  138.686606102404 65.2821537038928  C 138.686606102404 65.2821537038928  138.686606102404 65.2821537038928  138.686606102404 66  L 93.8174100193132 66  C 93.8133249168897 65.2821660145034  93.8092397982289 65.2821721698192  93.8051546772562 65.2821721698192  C 91.5591336559985 65.2821721698192  89.7383738690846 63.4614123807353  89.7383738690846 61.2153913568007  Z M 89.7383184572596 81.622700968731  C 89.7383184572596 81.6145422063237  89.7383430834845 81.606383462501  89.7383923355977 81.5982248487556  C 89.7383923355977 79.3466069393746  91.5535552370719 77.5192069649011  93.7888569191557 78  L 159.110248206972 78  C 161.345549889056 77.5192071601787  163.160712985808 79.3302911052968  163.160712985808 81.5982248487556  C 163.160712985808 83.8498427581366  161.345550084334 85.6772427326101  159.110248206972 86  L 93.7888569191557 86  C 91.5511593349758 85.6750322250482  89.7383184572596 83.8603996474015  89.7383184572596 81.622700968731  Z M 89.7383595392689 102.009638359056  C 89.7383595392689 102.004196913815  89.7383704714005 101.998755474065  89.7383923355977 101.99331407275  C 89.7383923355977 99.7416961633695  91.5576341955865 97.914296188896  93.8092521022839 98  L 122.378692894016 98  C 124.626231646922 97.914296188896  126.449552660703 99.725380134014  126.449552660703 101.99331407275  C 126.449552660703 104.244931982131  124.630310800714 106.072331956605  122.378692894016 106  L 93.8092521022839 106  C 93.8065218028721 106.07233726596  93.8037914986092 106.072340018278  93.8010611936484 106.072340018278  C 91.5572930268222 106.072340018278  89.7383595392689 104.253406528557  89.7383595392689 102.009638359056  Z M 12.2370534417017 77.5192071601787  C 5.47871544298543 77.5192071601787  0 72.0404917106637  0 65.2821537038928  C 0 58.5238156971219  5.47871544298543 53.0451002476069  12.2370534417017 53.0451002476069  C 18.995391440418 53.0451002476069  24.4741068834034 58.5238156971219  24.4741068834034 65.2821537038928  C 24.4741068834034 72.0404917106637  18.995391440418 77.5192071601787  12.2370534417017 77.5192071601787  Z M 6.119620062115 65.282153606254  C 6.119620062115 68.6608957994259  8.85831167116684 71.4000767224387  12.2370538063943 71.4006803343969  C 12.2374181644814 71.4006803994895  12.2377825225117 71.4006804320357  12.2381468806047 71.4006804320357  C 15.6173159338872 71.4006804320357  18.3566736990943 68.6613226635639  18.3566736990943 65.282153606254  C 18.3566736990943 61.9029845489441  15.6173159338872 59.1636267804722  12.2381468806047 59.1636267804722  C 12.2377825225117 59.1636267804722  12.2374181644814 59.1636268130185  12.2370538063943 59.163626878111  C 8.85831167116685 59.1642304900693  6.119620062115 61.9034114130821  6.119620062115 65.282153606254  Z M 265.136158398415 53.0451002476069  C 258.377820399698 53.0451002476069  252.899104956713 47.5663847980919  252.899104956713 40.808046791321  C 252.899104956713 34.0497087845501  258.377820399698 28.5709933350351  265.136158398415 28.5709933350351  C 271.894496397131 28.5709933350351  277.373211840116 34.0497087845501  277.373211840116 40.808046791321  C 277.373211840116 47.5663847980919  271.894496397131 53.0451002476069  265.136158398415 53.0451002476069  Z M 259.018724654135 40.8080466936822  C 259.018724654135 44.1867888868541  261.757416263187 46.9259698098669  265.136158398415 46.9265734218251  C 265.136522756481 46.9265734869177  265.136887114552 46.926573519464  265.137251472625 46.926573519464  C 268.516420525907 46.926573519464  271.255778291115 44.1872157509921  271.255778291115 40.8080466936822  C 271.255778291115 37.4288776363723  268.516420525907 34.6895198679005  265.137251472625 34.6895198679005  C 265.136887114552 34.6895198679005  265.136522756481 34.6895199004467  265.136158398415 34.6895199655392  C 261.757416263187 34.6901235774975  259.018724654135 37.4293045005103  259.018724654135 40.8080466936822  Z " fill-rule="nonzero" fill="#d2d2d2" stroke="none" transform="matrix(1 0 0 1 497 2221 )" />
  </g>
</svg>