<?xml version="1.0" encoding="utf-8"?>
<svg version="1.1" xmlns:xlink="http://www.w3.org/1999/xlink" width="290px" height="201px" xmlns="http://www.w3.org/2000/svg">
  <g transform="matrix(1 0 0 1 -505 -1034 )">
    <path d="M 38.9920919921875 112.244852148437  L 34.8696447265625 112.244852148437  L 34.8696447265625 108.122404882813  C 34.8652951611224 107.016418845549  33.9674923461243 106.122139920727  32.8614977560195 106.122139920727  C 32.8506076641173 106.122139920727  32.8397177523615 106.122228504769  32.8288291015625 106.122405664062  C 31.7174670761997 106.12218337093  30.8102408374151 107.011265128351  30.788013671875 108.122404882813  L 30.788013671875 112.244852148438  L 26.66556640625 112.244852148438  C 25.5595803702334 112.249201715623  24.6653014473417 113.147004530103  24.6653014473417 114.252999118968  C 24.6653014473417 114.263889145761  24.665390030325 114.27477899241  24.6655671875 114.285667578125  C 24.6655671875 115.379544726563  25.5635259765625 116.326483007812  26.66556640625 116.326483203125  L 30.788013671875 116.326483203125  L 30.788013671875 120.44893046875  C 30.788013671875 121.57137890625  31.7022990234375 122.4489296875  32.8288291015625 122.4489296875  C 33.9401912028832 122.449152087008  34.8474175595241 121.560070299176  34.8696447265625 120.44893046875  L 34.8696447265625 116.326483203125  L 38.9920919921875 116.326483203125  C 40.1145404296875 116.326483203125  40.9920912109375 115.412197851562  40.9920912109375 114.285667578125  C 40.9923135040702 113.174305552762  40.103231746649 112.267079313978  38.9920919921875 112.244852148437  Z M 283.849134765625 116.285666796875  L 283.849134765625 120.4081140625  L 287.971582226563 120.4081140625  C 289.082721980416 120.43034133441  289.971803651621 121.337567660639  289.97158125 122.4489296875  C 289.97158125 123.575459765625  289.094030664063 124.489745117187  287.971582226563 124.489745117187  L 283.849134765625 124.489745117187  L 283.849134765625 128.612192382813  C 283.826907600085 129.723332137274  282.9196813613 130.612413894695  281.808319335938 130.612191601563  C 281.797430750222 130.612368758738  281.786540903574 130.612457341721  281.775650876781 130.612457341721  C 280.669656287916 130.612457341721  279.771853473435 129.718178418829  279.76750390625 128.612192382813  L 279.76750390625 124.489745117187  L 275.645056640625 124.489745117187  C 274.533916886164 124.467517951647  273.644835128742 123.560291712863  273.645057421875 122.4489296875  C 273.645057421875 121.322399609375  274.522608007812 120.408114257813  275.645056640625 120.4081140625  L 279.76750390625 120.4081140625  L 279.76750390625 116.285666796875  C 279.78973107179 115.174527042414  280.696957310575 114.285445284992  281.808319335938 114.285667578125  C 282.934849414063 114.285667578125  283.849134765625 115.163218164062  283.849134765625 116.285666796875  Z M 54.2165755859375 9.1836697265625  L 48.1349453125 9.1836697265625  L 48.1349453125 3.102039453125  C 48.1349453125 1.3877544921875  46.7635173828125 0  45.0737220703125 0  C 43.37168203125 0  42.012498828125 1.3877544921875  42.012498828125 3.102039453125  L 42.012498828125 9.1836697265625  L 35.93086875 9.1836697265625  C 34.2165837890625 9.1836697265625  32.828829296875 10.55509765625  32.8288291015625 12.24489296875  C 32.8288291015625 13.9469330078125  34.21658359375 15.3061162109375  35.93086875 15.3061162109375  L 42.012498828125 15.3061162109375  L 42.012498828125 21.3877462890625  C 42.012498828125 23.10203125  43.3839267578125 24.4897857421875  45.0737220703125 24.4897859375  C 46.775762109375 24.4897859375  48.1349453125 23.1020314453125  48.1349453125 21.3877462890625  L 48.1349453125 15.3061162109375  L 54.2165755859375 15.3061162109375  C 55.930860546875 15.3061162109375  57.3186150390625 13.93468828125  57.3186150390625 12.24489296875  C 57.3186150390625 10.5428529296875  55.930860546875 9.1836697265625  54.2165755859375 9.1836697265625  Z M 49.183924609375 191  L 82 191  L 82 40.848962890625  C 81.8016262610146 31.8287584392303  89.1024910728251 24.5078012198694  98.122680078125 25  L 179.779789648437 25  C 188.791908471554 24.4965271230755  196.094101216667 31.8041840490334  196.094101216667 40.8163053933981  C 196.094101216667 40.8271912339732  196.094090329335 40.8380770718276  196 40.848962890625  L 196 87.8938416015625  C 198.565844903355 86.4623410419242  201.372387871723 85.7103621932305  204.228759179687 86  L 228.775687890625 86  C 237.778142220216 85.7187235243975  245.073702247034 93.0179091483125  245.073702247034 102.020364589013  C 245.073702247034 102.035331231662  245.073681641232 102.050297867216  245 102.065264453125  L 245 191  L 277.698116992187 191  C 277.707640609782 191.836589778653  277.717164431541 191.836556445016  277.72668828247 191.836556445016  C 279.98091086841 191.836556445016  281.808319337158 193.663964913764  281.808319337158 195.918187499704  C 281.808319335938 198.17134765625  279.971585351563 199.999918359375  277.698116992188 200  L 49.183924609375 200  C 49.1744009266783 199.999985026946  49.1648770398116 200.000018361038  49.155353123775 200.000018361038  C 46.9011305378353 200.000018361038  45.0737220690875 198.172609892291  45.0737220690875 195.918387306351  C 45.0737220703125 193.665226953125  46.9104560546875 191.83665625  49.183924609375 191  Z M 90 40.83671796875  L 90 191  L 188 191  L 188 40.83671796875  C 187.930806640625 36.3061076171875  184.265501953125 32.6530478515625  179.747136523438 33  L 98.1553330078125 33  C 93.6356168044439 32.6530478515625  89.971662890625 36.3170017653814  90 40.83671796875  Z M 196 102.057101171875  L 196 191  L 237 191  L 237 102.057101171875  C 236.910411920928 102.047574289375  236.910428623618 102.038047355623  236.910428623618 102.028520414556  C 236.910428623618 97.5268380341593  233.261094011827 93.8775034223687  228.75941163143 93.8775034223687  C 228.755313286389 93.8775034223687  228.751214941941 93.8775065133508  228.747116601563 94  L 204.257330664063 94  C 199.714475390625 93.8775126953125  196.09406875 97.5387357421875  196 102.057101171875  Z M 106.298086080523 73.4979472951284  C 106.298086080523 73.4884173786783  106.298119691912 73.4788874918612  106.298186914063 73.4693578125  C 106.298074991842 71.2309792973733  108.100734966796 69.4101105926775  110.3390015625 70  L 126.747158203125 70  C 128.975728710938 69.3877267578125  130.787972851563 71.1999708984375  130.787972851563 73.4693578125  C 130.78808466667 75.7077362515105  128.985424722711 77.5286048377659  126.747158203125 78  L 110.3390015625 78  C 108.105309696842 77.5442958827299  106.298086080523 75.7316491875333  106.298086080523 73.4979472951284  Z M 147.114396041461 73.4979472951284  C 147.114396041461 73.4884173786756  147.114429652849 73.4788874918639  147.114496875 73.4693578125  C 147.114384952779 71.2309792973733  148.917044927734 69.4101105926775  151.155311523438 70  L 167.56346796875 70  C 169.792038476563 69.3877267578125  171.604282617188 71.1999708984375  171.604282617187 73.4693578125  C 171.604394432295 75.7077362515104  169.801734488336 77.5286048377659  167.56346796875 78  L 151.155311523438 78  C 148.92161965778 77.5442958827299  147.114396041461 75.7316491875333  147.114396041461 73.4979472951284  Z M 106.298086079145 114.314257256062  C 106.298086079145 114.304727274506  106.298119690993 114.295197322587  106.298186914063 114.285667578125  C 106.298075098955 112.047289139114  108.100735042914 110.226420552859  110.3390015625 110  L 126.747158203125 110  C 128.975728710938 110.20403671875  130.787972851563 112.016280859375  130.787972851563 114.285667578125  C 130.788084773783 116.524046093252  128.985424798829 118.344914797948  126.747158203125 118  L 110.3390015625 118  C 108.105309696302 118.360605844425  106.298086079145 116.547959149004  106.298086079145 114.314257256062  Z M 147.114396040083 114.314257256062  C 147.114396040083 114.304727274505  147.114429651931 114.295197322588  147.114496875 114.285667578125  C 147.114385059893 112.047289139114  148.917045003851 110.226420552859  151.155311523438 110  L 167.56346796875 110  C 169.792038476563 110.20403671875  171.604282617188 112.016280859375  171.604282617187 114.285667578125  C 171.604394539408 116.524046093252  169.801734564454 118.344914797948  167.56346796875 118  L 151.155311523438 118  C 148.92161965724 118.360605844425  147.114396040083 116.547959149004  147.114396040083 114.314257256062  Z M 106.298086079145 155.130567216999  C 106.298086079145 155.121037235444  106.298119690993 155.111507283524  106.298186914063 155.101977539062  C 106.298074991842 152.863599023936  108.100734966796 151.04273031924  110.3390015625 151  L 126.747158203125 151  C 128.975728710938 151.020346484375  130.787972851563 152.832590625  130.787972851563 155.101977539062  C 130.788084773783 157.340356054189  128.985424798829 159.161224758885  126.747158203125 159  L 110.3390015625 159  C 108.105309696302 159.176915805363  106.298086079145 157.364269109942  106.298086079145 155.130567216999  Z M 147.114396040083 155.130567216999  C 147.114396040083 155.121037235442  147.114429651931 155.111507283526  147.114496875 155.101977539062  C 147.114384952779 152.863599023936  148.917044927734 151.04273031924  151.155311523438 151  L 167.56346796875 151  C 169.792038476563 151.020346484375  171.604282617188 152.832590625  171.604282617187 155.101977539062  C 171.604394539408 157.340356054189  169.801734564454 159.161224758885  167.56346796875 159  L 151.155311523438 159  C 148.92161965724 159.176915805363  147.114396040083 157.364269109942  147.114396040083 155.130567216999  Z M 212 130.6530078125  L 212 114.244851367187  C 212.420592578125 112.016280859375  214.23283671875 110.20403671875  216.502223632812 110.20403671875  C 218.740602071823 110.203924903643  220.561470658078 112.006584847601  220 114.244851367187  L 220 130.6530078125  C 220.583854492187 132.881578320313  218.771610351562 134.693822460937  216.502223632812 134.69382265625  C 214.263845042325 134.693934577403  212.442976306634 132.891274484632  212 130.6530078125  Z M 212 171.469317773437  L 212 155.061161132812  C 212.420592578125 152.832590625  214.23283671875 151.020346484375  216.502223632812 151.020346484375  C 218.740602071823 151.020234669268  220.561470658078 152.822894613226  220 155.061161132812  L 220 171.469317773437  C 220.583854492187 173.69788828125  218.771610351562 175.510132421875  216.502223632812 175.510132421875  C 214.263845117686 175.510244344096  212.44297641299 173.707584369141  212 171.469317773437  Z M 4.25741022896159 195.922401638861  C 4.25741022896159 195.921030193874  4.25741092087032 195.919658748976  4.25741230468751 195.918287304688  C 4.25741230468751 193.665226953125  6.04516660156251 191.83665625  8.35128808593751 191  L 28.7349533203125 191  C 28.7403961072718 191.836634649636  28.7458389324293 191.836623751765  28.7512817630289 191.836623751765  C 31.0032501210971 191.836623751765  32.8288311770914 193.662204807759  32.8288311770914 195.914173165828  C 32.8288311770914 195.915544545711  32.8288304852483 195.916915925502  32.8288291015625 195.918287304688  C 32.8288291015625 198.17134765625  31.0410748046875 199.999918359375  28.7349533203125 200  L 8.35128808593751 200  C 8.34584529890649 199.999940155052  8.3404024736954 199.999951052923  8.33495964302409 199.999951052923  C 6.08299128495588 199.999951052923  4.25741022896159 198.174369996929  4.25741022896159 195.922401638861  Z M 12.42067421875 73.4693578125  C 5.65800656879907 73.4693578125  0.175781250000009 67.9871324937009  0.175781250000009 61.22446484375  C 0.175781250000009 54.4617971937991  5.65800656879907 48.979571875  12.42067421875 48.979571875  C 19.1833418687009 48.979571875  24.6655671875 54.4617971937991  24.6655671875 61.22446484375  C 24.6655671875 67.9871324937009  19.1833418687009 73.4693578125  12.42067421875 73.4693578125  Z M 12.42067421875 67.346911328125  C 15.8020080437255 67.346911328125  18.543120703125 64.6057986687255  18.543120703125 61.22446484375  C 18.543120703125 57.8431310187745  15.8020080437255 55.102018359375  12.42067421875 55.102018359375  C 9.03934039377454 55.102018359375  6.29822773437501 57.8431310187745  6.29822773437501 61.22446484375  C 6.29822773437501 64.6057986687255  9.03934039377454 67.346911328125  12.42067421875 67.346911328125  Z M 249.155271484375 48.979571875  C 242.392603834424 48.979571875  236.910378515625 43.4973465562009  236.910378515625 36.73467890625  C 236.910378515625 29.9720112562991  242.392603834424 24.4897859375  249.155271484375 24.4897859375  C 255.917939134326 24.4897859375  261.400164453125 29.9720112562991  261.400164453125 36.73467890625  C 261.400164453125 43.4973465562009  255.917939134326 48.979571875  249.155271484375 48.979571875  Z M 249.155271484375 42.857125390625  C 252.53660530935 42.857125390625  255.27771796875 40.1160127312255  255.27771796875 36.73467890625  C 255.27771796875 33.3533450812745  252.53660530935 30.612232421875  249.155271484375 30.612232421875  C 245.773937659399 30.612232421875  243.032825 33.3533450812745  243.032825 36.73467890625  C 243.032825 40.1160127312255  245.773937659399 42.857125390625  249.155271484375 42.857125390625  Z " fill-rule="nonzero" fill="#d2d2d2" stroke="none" transform="matrix(1 0 0 1 505 1034 )" />
  </g>
</svg>