<svg xmlns="http://www.w3.org/2000/svg" xmlns:xlink="http://www.w3.org/1999/xlink" width="180" height="200" version="1.1"><g><path fill="#cbcbcb" fill-rule="nonzero" stroke="none" d="M 141.476490825688 1 L 47.6348491486238 1 C 43.0534403669725 0.258264462809917 38.7294151376147 2.04442148760331 35.5035550458716 5.2904172892562 L 5.8016187412844 35.0196280991736 C 2.55860091743119 38.2656239008264 0.77408256880734 42.5764462809917 1 47.1620620495868 L 1 168.569214876033 C 0.77408256880734 174.236830710744 5.40696893944954 178.873966942149 11.069380733945 178 L 29 178 L 29 189.178719008264 C 28.2282110091743 194.846334842975 32.8610973798165 199.48347107438 38.5235091743119 199 L 168.930619266055 199 C 174.593035453211 199.48347107438 179.225917431193 194.846334842975 179 189.178719008264 L 179 31.172520661157 C 179.225917431193 25.5049092231405 174.593035453211 20.8677685950413 168.930619266055 21 L 151 21 L 151 10.5630165289256 C 151.771788990826 4.89540509090909 147.138907012844 0.258264462809917 141.476490825688 1 Z M 49 38.0423553719008 L 49 8 L 141.476490825688 8 C 143.363964352294 7.12809917355372 144.908256880734 8.67381418181818 145 10.5630165289256 L 145 144.52479338843 C 143.003625622018 144.52479338843 141.476490825688 146.053330512397 141.476490825688 147.959710743802 L 141.476490825688 154.829545454545 C 141.476490825688 156.73592568595 143.003625622018 158.264462809917 145 158.264462809917 L 145 168.569214876033 C 144.908256880734 170.458421619835 143.363964352294 172.004132231405 141.476490825688 172 L 11.069380733945 172 C 9.1819116 172.004132231405 7.63761467889908 170.458421619835 8 168.569214876033 L 8 158.264462809917 C 9.54224593761468 158.264462809917 11.069380733945 156.73592568595 11.069380733945 154.829545454545 L 11.069380733945 147.959710743802 C 11.069380733945 146.053330512397 9.54224593761468 144.52479338843 8 144.52479338843 L 8 49 L 38.5235091743119 49 C 44.1859253614679 48.3471074380165 48.8188073394495 43.7099712066116 49 38.0423553719008 Z M 40.3595051119266 10.150826446281 C 40.8571100917431 9.65276452892562 41.3890349284404 9.22340095867769 42 8.84555785123967 L 42 38.0423553719008 C 41.9552752293578 39.9315621157025 40.4109827009174 41.4772727272727 38.5235091743119 42 L 9.35349770642202 42 C 9.74815190091743 40.8933389752066 10.177121559633 40.3609256859504 10.6575688073394 39.8800372561983 L 40.3595051119266 10.150826446281 Z M 151 168.569214876033 L 151 28 L 168.930619266055 28 C 170.818092792661 27.7376033057851 172.362385321101 29.2833183140496 172 31.172520661157 L 172 189.178719008264 C 172.362385321101 191.067925752066 170.818092792661 192.613636363636 168.930619266055 192 L 38.5235091743119 192 C 36.636040040367 192.613636363636 35.0917431192661 191.067925752066 35 189.178719008264 L 35 178 L 141.476490825688 178 C 147.138907012844 178.873966942149 151.771788990826 174.236830710744 151 168.569214876033 Z M 86.5682339449541 62 L 38.5235091743119 62 C 36.6188779155963 62.0867768595041 35.0917431192661 63.6153139834711 35.0917431192661 65.521694214876 C 35.0917431192661 67.428074446281 36.6188779155963 68.9566115702479 38.5235091743119 69 L 86.5682339449541 69 C 88.4728652036697 68.9566115702479 90 67.428074446281 90 65.521694214876 C 90 63.6153139834711 88.4728652036697 62.0867768595041 86.5682339449541 62 Z M 114.022362385321 62 L 100.295298165138 62 C 98.390666906422 62.0867768595041 96.8635321100917 63.6153139834711 96.8635321100917 65.521694214876 C 96.8635321100917 67.428074446281 98.390666906422 68.9566115702479 100.295298165138 69 L 114.022362385321 69 C 115.926993644037 68.9566115702479 117.454128440367 67.428074446281 117.454128440367 65.521694214876 C 117.454128440367 63.6153139834711 115.926993644037 62.0867768595041 114.022362385321 62 Z M 100.295298165138 76 L 38.5235091743119 76 C 36.6188779155963 75.8264462809917 35.0917431192661 77.3549834049587 35.0917431192661 79.2613636363636 C 35.0917431192661 81.1677438677686 36.6188779155963 82.6962809917355 38.5235091743119 83 L 100.295298165138 83 C 102.199929423853 82.6962809917355 103.727064220183 81.1677438677686 103.727064220183 79.2613636363636 C 103.727064220183 77.3549834049587 102.199929423853 75.8264462809917 100.295298165138 76 Z M 107.158830275229 97 L 38.5235091743119 97 C 36.6188779155963 96.4359504132231 35.0917431192661 97.9644875371901 35.0917431192661 99.870867768595 C 35.0917431192661 101.777248 36.6188779155963 103.305785123967 38.5235091743119 103 L 107.158830275229 103 C 109.063461533945 103.305785123967 110.590596330275 101.777248 110.590596330275 99.870867768595 C 110.590596330275 97.9644875371901 109.063461533945 96.4359504132231 107.158830275229 97 Z M 72.8411697247707 110 L 38.5235091743119 110 C 36.6188779155963 110.175619834711 35.0917431192661 111.704156958678 35.0917431192661 113.610537190083 C 35.0917431192661 115.516917421488 36.6188779155963 117.045454545455 38.5235091743119 117 L 72.8411697247707 117 C 74.7458009834862 117.045454545455 76.2729357798165 115.516917421488 76.2729357798165 113.610537190083 C 76.2729357798165 111.704156958678 74.7458009834862 110.175619834711 72.8411697247707 110 Z M 28.2282110091743 147.959710743802 C 28.2282110091743 146.053330512397 26.701076212844 144.52479338843 24.7964449541284 144.52479338843 C 22.8918136954129 144.52479338843 21.3646788990826 146.053330512397 21.3646788990826 147.959710743802 L 21.3646788990826 154.829545454545 C 21.3646788990826 156.73592568595 22.8918136954129 158.264462809917 24.7964449541284 158.264462809917 C 26.701076212844 158.264462809917 28.2282110091743 156.73592568595 28.2282110091743 154.829545454545 L 28.2282110091743 147.959710743802 Z M 45.3870412844037 147.959710743802 C 45.3870412844037 146.053330512397 43.8599064880734 144.52479338843 41.9552752293578 144.52479338843 C 40.0506439706422 144.52479338843 38.5235091743119 146.053330512397 38.5235091743119 147.959710743802 L 38.5235091743119 154.829545454545 C 38.5235091743119 156.73592568595 40.0506439706422 158.264462809917 41.9552752293578 158.264462809917 C 43.8599064880734 158.264462809917 45.3870412844037 156.73592568595 45.3870412844037 154.829545454545 L 45.3870412844037 147.959710743802 Z M 62.545871559633 147.959710743802 C 62.545871559633 146.053330512397 61.0187367633028 144.52479338843 59.1141055045872 144.52479338843 C 57.2094742458716 144.52479338843 55.6823394495413 146.053330512397 55.6823394495413 147.959710743802 L 55.6823394495413 154.829545454545 C 55.6823394495413 156.73592568595 57.2094742458716 158.264462809917 59.1141055045872 158.264462809917 C 61.0187367633028 158.264462809917 62.545871559633 156.73592568595 62.545871559633 154.829545454545 L 62.545871559633 147.959710743802 Z M 79.7047018348624 147.959710743802 C 79.7047018348624 146.053330512397 78.1775670385321 144.52479338843 76.2729357798165 144.52479338843 C 74.3683045211009 144.52479338843 72.8411697247707 146.053330512397 72.8411697247707 147.959710743802 L 72.8411697247707 154.829545454545 C 72.8411697247707 156.73592568595 74.3683045211009 158.264462809917 76.2729357798165 158.264462809917 C 78.1775670385321 158.264462809917 79.7047018348624 156.73592568595 79.7047018348624 154.829545454545 L 79.7047018348624 147.959710743802 Z M 96.8635321100917 147.959710743802 C 96.8635321100917 146.053330512397 95.3363973137615 144.52479338843 93.4317660550459 144.52479338843 C 91.5271347963303 144.52479338843 90 146.053330512397 90 147.959710743802 L 90 154.829545454545 C 90 156.73592568595 91.5271347963303 158.264462809917 93.4317660550459 158.264462809917 C 95.3363973137615 158.264462809917 96.8635321100917 156.73592568595 96.8635321100917 154.829545454545 L 96.8635321100917 147.959710743802 Z M 114.022362385321 147.959710743802 C 114.022362385321 146.053330512397 112.495227588991 144.52479338843 110.590596330275 144.52479338843 C 108.68596507156 144.52479338843 107.158830275229 146.053330512397 107.158830275229 147.959710743802 L 107.158830275229 154.829545454545 C 107.158830275229 156.73592568595 108.68596507156 158.264462809917 110.590596330275 158.264462809917 C 112.495227588991 158.264462809917 114.022362385321 156.73592568595 114.022362385321 154.829545454545 L 114.022362385321 147.959710743802 Z M 131.18119266055 147.959710743802 C 131.18119266055 146.053330512397 129.65405786422 144.52479338843 127.749426605505 144.52479338843 C 125.844795346789 144.52479338843 124.317660550459 146.053330512397 124.317660550459 147.959710743802 L 124.317660550459 154.829545454545 C 124.317660550459 156.73592568595 125.844795346789 158.264462809917 127.749426605505 158.264462809917 C 129.65405786422 158.264462809917 131.18119266055 156.73592568595 131.18119266055 154.829545454545 L 131.18119266055 147.959710743802 Z" transform="matrix(1 0 0 1 -560 -1608 ) matrix(1 0 0 1 560 1608 )"/></g></svg>