<svg xmlns="http://www.w3.org/2000/svg" xmlns:xlink="http://www.w3.org/1999/xlink" width="200" height="196" version="1.1"><g><path fill="#d2d2d2" fill-rule="nonzero" stroke="none" d="M 65.3632251461988 81.7472052631579 C 68.7663374269006 81.7472052631579 71.5827062378168 78.9308364522417 71.5827062378168 75.52772417154 C 71.5827062378168 72.1246118908382 68.7663374269006 69.308243079922 65.3632251461988 69.308243079922 L 56.210026705653 69.308243079922 C 52.8069144249513 69.308243079922 49.9905456140351 72.1246118908382 49.9905456140351 75.52772417154 C 49.9905456140351 78.9308364522417 52.8069144249513 81.7472052631579 56.210026705653 81.7472052631579 L 65.3632251461988 81.7472052631579 Z M 88.8329649122807 82 L 143.517458479532 82 C 146.920570760234 81.7472052631579 149.73693957115 78.9308364522417 149.73693957115 75.52772417154 C 149.73693957115 72.1246118908382 146.920570760234 69.308243079922 143.517458479532 70 L 88.8329649122807 70 C 85.4298526315789 69.308243079922 82.6134838206628 72.1246118908382 82.6134838206628 75.52772417154 C 82.6134838206628 78.9308364522417 85.4298526315789 81.7472052631579 88.8329649122807 82 Z M 199.844833528265 87.9666865497076 C 199.610136452242 39.8537198830409 154.900282261209 0.776603118908387 99.746393957115 0.776603118908387 C 44.5925056530214 0.776603118908387 0 39.8537196881092 0 87.966686159844 C 0 115.543630409357 14.6685873294347 140.069508382066 38 156.028931384016 L 38 188.769218323587 C 37.4342348927875 193.815212280702 42.9496237816764 196.866278557505 47.1741768031189 194.284607212476 L 75.103167251462 177.386394736842 C 77.6848385964912 175.860861598441 78.7409769980507 172.692446783626 77.6848385964912 169.758729239766 C 77.6848385964912 169.758729239766 77.6848385964912 169.641380506823 77.6848385964912 169.641380506823 C 76.3940029239766 166.003570760234 72.0521009746589 164.595386549708 68.7663374269006 166.590314424951 L 55.1538883040936 174.804723391813 C 52.6895656920078 176.212907797271 49.6384994152047 174.452677387914 49.6384994152047 171.636308576998 L 49.9905454191033 149.222707212476 C 27.4595953216374 135.727606822612 12.6736592592592 113.31400545809 12.6736592592592 87.9666865497076 C 12.6736592592592 46.6599446393762 51.75077582846 13.215565497076 99.9810910331384 13.215565497076 C 148.211406237817 13.215565497076 187.288522807018 46.6599446393762 187.288522807018 87.9666865497076 C 187.288522807018 129.273428460039 148.211406237817 162.717807602339 99.9810910331384 162.717807602339 C 98.6902553606238 162.717807602339 97.3994196881091 162.717807602339 96.1085840155945 162.600458869396 C 91.6493335282651 162.365761403509 88.8329647173489 167.059709356725 90.7105438596491 171.049565107212 C 90.7105438596491 171.166913840156 90.8278925925926 171.284262573099 90.8278925925926 171.401611111111 C 91.7666822612085 173.396538986355 93.6442614035088 174.922072124756 95.8738865497076 175.0394208577 C 97.1647222222222 175.156769590643 98.5729066276803 175.156769590643 99.9810910331384 175.156769590643 C 155.134979337232 175.156769590643 199.844833528265 136.079653021443 199.844833528265 87.9666865497076 Z M 62.4295076023392 112.961959064327 C 62.4295076023392 116.365071345029 65.1285276803119 119.181440155945 68.6489886939571 119 L 131.078496296296 119 C 134.481608576998 119.181440155945 137.297977387914 116.365071345029 137.297977387914 112.961959064327 C 137.297977387914 109.558846783626 134.481608576998 106.74247797271 131.078496296296 106 L 68.6489886939571 106 C 65.2458764132554 106.74247797271 62.4295076023392 109.558846783626 62.4295076023392 112.961959064327 Z" transform="matrix(1 0 0 1 -547 -2799 ) matrix(1 0 0 1 547 2799 )"/></g></svg>