<svg xmlns="http://www.w3.org/2000/svg" xmlns:xlink="http://www.w3.org/1999/xlink" width="185" height="185" version="1.1"><g><path fill="#d2d2d2" fill-rule="nonzero" stroke="none" d="M 128.292923632813 0.757225390625081 C 128.292923632813 0.757225390625081 147.368068164063 0.901733984374914 147.685987109375 18.4739884765627 C 148.032808007812 36.0462427734374 147.975004492188 38.6184970703125 147.975004492188 38.6184970703125 C 147.975004492188 38.6184970703125 147.252461132813 44.3410404296874 142.021247265625 44.3410404296874 C 136.847836914063 44.3410404296874 135.807374414062 38.9942195312501 135 38.2427746093749 L 135 23.4161849609377 C 135.691767578125 23.4161849609377 136.992345703125 12.8959537109376 123.697547851562 13 L 21.5877212890625 13 C 21.5877212890625 12.8959537109376 12.6570853515625 12.5202312500001 13 21.4797687499999 L 13 149.976878515625 C 12.6570853515625 149.976878515625 13.610842578125 160.410404492187 23.870958203125 160 L 49.96922421875 160 C 49.96922421875 160.4104046875 55.2582416015625 161.364161914063 55.2582416015625 166.942196484375 C 55.2582416015625 172.520231054687 50.3160451171875 172.693641601562 50.3160449218751 172 L 17.6281837890625 172 C 17.6281837890625 172.635838085937 0.316045117187514 169.51445078125 0.22933984375004 153.127167578125 C 0.142634570312566 136.739884375 0.142634570312566 22.7803466796877 0.142634570312566 22.7803468749999 C 0.142634570312566 22.7803470703125 -1.96719199218751 0.583815039062301 22.223559375 0.583815039062301 C 46.4143107421876 0.583815039062301 128.292923632813 0.757225390625081 128.292923632813 0.757225390625081 Z M 62.1079525390626 123.647398828125 C 62.1079525390626 157.40462421875 89.4778947265625 184.77456640625 123.235120117188 184.77456640625 C 156.992345507812 184.77456640625 184.362287695312 157.40462421875 184.362287695312 123.647398828125 C 184.362287695312 89.8901734374999 156.992345507812 62.5202312500001 123.235120117188 62.5202312500001 C 89.4778947265625 62.5202312500001 62.1079525390626 89.8901734374999 62.1079525390626 123.647398828125 Z M 73.9576634765626 123.647398828125 C 73.9576634765626 96.421965234375 96.0096865234375 74.3699421874999 123.235120117188 74.3699421874999 C 150.460553710938 74.3699421874999 172.512576757812 96.421965234375 172.512576757812 123.647398828125 C 172.512576757812 150.872832421875 150.460553710938 172.92485546875 123.235120117188 172.92485546875 C 96.0096865234375 172.92485546875 73.9576634765626 150.872832421875 73.9576634765626 123.647398828125 Z M 51.55881953125 75 C 54.2177791015624 74.3121386718749 56.4143109375 76.4797687499999 56.4143109375 79.1676300781251 L 56.4143109375 81.7687861328127 C 56.4143109375 84.4566474609373 54.2177791015624 86.6242775390624 51.55881953125 87 L 35.027027734375 87 C 32.3680681640625 86.6242775390624 30.1715363281251 84.4566474609373 30.1715363281251 81.7687861328127 L 30.1715363281251 79.1676300781251 C 30.1715363281251 76.5086705078124 32.33916640625 74.3121386718749 35.027027734375 75 L 51.55881953125 75 Z M 113.11951328125 38 C 115.778472851563 37.4335259765626 117.9750046875 39.6011560546876 117.975004492188 42.2890173828123 L 117.975004492188 44.8901734374999 C 117.975004492188 47.578034765625 115.77847265625 49.7456648437501 113.11951328125 50 L 35.055929296875 50 C 32.3969697265625 49.7456646484375 30.200437890625 47.5780345703124 30.2004380859375 44.8901734374999 L 30.2004380859375 42.2890173828123 C 30.2004380859375 39.6300578125001 32.3680681640625 37.4335259765626 35.055929296875 38 L 113.11951328125 38 Z M 124.8536171875 116.104046289062 C 124.8536171875 116.104046289062 123.379628710938 115.1502890625 123.379628710938 111.219653125 C 123.379628710938 107.2890171875 123.321825195313 91.7398843750002 123.321825390625 91.7398843750002 C 123.321825585937 91.7398843750002 121.6744265625 86.6242773437498 117.512576757812 86.6242775390624 C 113.379628710938 86.6242775390624 111.29870390625 90.1213873046877 111 91.7687861328127 L 111 116.624277539062 C 111.240900390625 116.624277539062 110.980784765625 119.514450976562 113.610842578125 122.231213867187 C 116.240900390625 124.976878515625 137.830495703125 146.85549140625 137.830495898437 146.85549140625 C 137.83049609375 146.85549140625 141.963443945313 148.907514453125 145.431651953125 145.439306445312 C 148.899859960937 141.9710984375 144.940322460938 137.317919140625 144.940322460938 137.317919140625 L 124.8536171875 116.104046289062 Z" transform="matrix(1 0 0 1 -558 -3375 ) matrix(1 0 0 1 558 3375 )"/></g></svg>