<?xml version="1.0" encoding="utf-8"?>
<svg version="1.1" xmlns:xlink="http://www.w3.org/1999/xlink" width="25px" height="17px" xmlns="http://www.w3.org/2000/svg">
  <g transform="matrix(1 0 0 1 -75 -720 )">
    <path d="M 22.5716023226616 2.45035310734466  C 20.0704252981795 -0.66211158192087  4.46308066541117 0.188288606403036  1.22822504708096 3.53886534839926  C -0.972810734463299 5.81793785310736  1.51169177652227 13.0633474576271  3.44593534212176 15.2573799435028  C 5.38017890772126 17.4514124293786  19.5701898932831 16.2098281544256  22.4048571876961 14.8661958568738  C 25.2395244821092 13.5225635593221  25.0727793471437 5.5628177966102  22.5716023226616 2.45035310734466  Z M 21.1876177024482 13.5055555555556  L 21.2376412429379 13.5055555555556  C 19.0699544883867 14.4239877589454  6.81418706842434 15.3424199623352  5.14673571876961 13.981779661017  C 3.47928436911487 12.6211393596987  1.51169177652227 6.20912193973636  3.07909604519773 4.72942561205275  C 5.36350439422471 2.53539312617705  18.9365583804143 1.7020009416196  21.0375470809793 3.64091337099814  C 23.1385357815442 5.57982580037667  23.3052809165097 12.5871233521657  21.1876177024482 13.5055555555556  Z " fill-rule="nonzero" fill="#212126" stroke="none" transform="matrix(1 0 0 1 75 720 )" />
  </g>
</svg>