<?xml version="1.0" encoding="utf-8"?>
<svg version="1.1" xmlns:xlink="http://www.w3.org/1999/xlink" width="46px" height="27px" xmlns="http://www.w3.org/2000/svg">
  <g transform="matrix(1 0 0 1 -75 -703 )">
    <path d="M 44.4647415777359 5.81786281779662  C 45.8794814117319 2.99841101694916  38.7887371835112 2.30621027542374  37.2376368835879 2.06984904661017  C 30.4176760118604 1.0047329689805  23.4674184140764 1.05606469345353  16.6642515868034 2.22179555084747  C 11.3291483573969 3.18412341101697  5.84063960382226 5.24384269067798  3.26683580944409 10.3424920550848  C 2.07019820796559 12.9544035956086  1.31581177786255 15.7436131561542  1.0339331798842 18.5982521186441  C 0.573716607379489 22.0930217161017  1.30665411173885 25.9254502118644  2.1589070237846 26.1955773305085  C 2.58503347980748 21.9241922669492  5.15883727418565 22.0423728813559  5.82359454558134 17.8891684322034  C 6.40312652577247 14.2593352754237  10.2893998047011 11.6762447033898  10.4939405035921 11.4736493644068  C 9.75772095369699 12.904819929046  9.38890202311426 14.4936334665758  9.42010183441443 16.0995762711865  C 10.6984812024831 13.9892081567797  15.2836018692892 10.5619703389831  25.7492676292111 11.1697563559322  C 29.8211935496261 11.4725894039726  33.9145033442338 11.3253633560178  37.9535293297063 10.7307997881356  C 40.6697669640515 9.96107683452561  42.9941679532572 8.20723513519892  44.4647415777359 5.81786281779662  Z " fill-rule="nonzero" fill="#bf3c1b" stroke="none" transform="matrix(1 0 0 1 75 703 )" />
  </g>
</svg>