<?xml version="1.0" encoding="utf-8"?>
<svg version="1.1" xmlns:xlink="http://www.w3.org/1999/xlink" width="27px" height="10px" xmlns="http://www.w3.org/2000/svg">
  <g transform="matrix(1 0 0 1 -88 -738 )">
    <path d="M 26.2921108271828 2.0217460077979  C 26.2921108271828 1.68620023681386  26.1098251239621 1.37645358183459  25.8146186440678 1.21037350910234  C 25.309468682279 0.875392314665611  24.6313634059466 0.960890221846995  24.2276218220339 1.41046767106091  C 23.8899629237288 1.81065599497805  15.7861493644068 11.2484306340239  2.17849576271187 3.59482893910862  C 1.66503308218824 3.27529453180462  0.989204050422571 3.39863423701144  0.625264830508465 3.87829566854993  C 0.512715783539269 4.03581804245916  0.452293595839124 4.22388641287385  0.452293595839124 4.41668097817024  C 0.452293595839124 4.77898817554936  0.664492841267718 5.10859296347247  0.99668961864404 5.26228028876336  C 3.81068413276892 6.89656874286837  6.92796772106698 7.95685481887363  10.1641287076271 8.38041431261772  C 13.2846758931102 8.76247790779685  16.4523017918841 8.34916892202414  19.3653336864407 7.17984934086631  C 21.9470913095372 6.17551781036037  24.258463223611 4.59465356295676  26.1185116525424 2.56100910232268  C 26.2314587163451 2.40331527498341  26.2921108271828 2.21490743809396  26.2921108271828 2.0217460077979  Z " fill-rule="nonzero" fill="#c20902" stroke="none" transform="matrix(1 0 0 1 88 738 )" />
  </g>
</svg>