<?xml version="1.0" encoding="utf-8"?>
<svg version="1.1" xmlns:xlink="http://www.w3.org/1999/xlink" width="27px" height="12px" xmlns="http://www.w3.org/2000/svg">
  <g transform="matrix(1 0 0 1 -974 -736 )">
    <path d="M 26.8482521186441 2.20883777239716  C 26.9371037672326 1.75793772794879  26.6739151697841 1.31232740422653  26.2404661016949 1.17978208232447  C 25.7789270093113 0.989877456479137  25.2527762213016 1.21131416000432  25.0586599576272 1.67715899919295  C 23.4885460805085 6.1707021791768  18.7613215042373 9.13781275221957  13.2405985169492 9.10351089588383  C 8.56010786445066 9.25987760559048  4.19676759114668 6.70797616210463  1.97967425847465 2.517554479419  C 1.7418460961571 2.06018561882161  1.21454107864687 1.84302010324468  0.7303363347458 2.00302663438263  C 0.396177104357248 2.09926930935473  0.165553327131084 2.40921071008496  0.165553327131084 2.76205347278622  C 0.165553327131084 2.87920110289877  0.191234107128823 2.99487848283827  0.240730932203441 3.10068603712676  C 2.70979048633874 7.84622063923297  7.56857773466045 10.8064456234849  12.8522907838983 10.7843018563358  L 13.3418961864407 10.7843018563358  C 19.6730005296611 10.7843018563358  25.0417770127119 7.45702179176755  26.8482521186441 2.20883777239716  Z " fill-rule="nonzero" fill="#ff3b3b" stroke="none" transform="matrix(1 0 0 1 974 736 )" />
  </g>
</svg>