<?xml version="1.0" encoding="utf-8"?>
<svg version="1.1" xmlns:xlink="http://www.w3.org/1999/xlink" width="15px" height="12px" xmlns="http://www.w3.org/2000/svg">
  <g transform="matrix(1 0 0 1 -843 -757 )">
    <path d="M 12.5610091023227 6.05125100887835  C 13.027895480226 5.45096852300246  15.6291195856874 1.62631154156583  13.578154425612 1.54055690072646  C 13.4290655712714 1.51558701608082  13.2770314155459 1.51558701608082  13.1279425612053 1.54055690072646  C 12.327565913371 1.84927360774826  11.6105618330194 2.50100887812758  10.7935106716886 2.82687651331727  C 8.71013697034163 3.63536305509045  6.46584738491327 3.90624815373982  4.25710138104203 3.61581920903965  C 3.60679535467672 3.61581920903965  2.95648932831137 3.49576271186449  2.30618330194602 3.39285714285722  C 1.28903797865661 3.23849878934633  0.488661330822329 3.87308313155781  1.53915568110482 4.67917675544803  C 1.88857667454911 4.90172296421633  2.25692948010173 5.09116154992903  2.63967357187691 5.24515738498798  C 2.94426356553728 5.44993191959912  3.26830326904191 5.62232742688242  3.60679535467672 5.75968523002436  C 3.18993251726302 5.86259079903162  1.30571249215317 5.39951573849888  1.93934400502196 6.39426957223579  C 3.02318738229758 8.2465698143666  8.37570621468932 6.68583535108969  9.94311048336475 6.17130750605341  C 8.57580037664789 6.80589184826489  7.1751412429379 7.3718724778048  5.82450564971756 8.02360774818417  C 4.07368173258007 8.88115415657803  4.9907799748902 10.0131154156579  6.47481167608286 10.3046811945119  C 7.95884337727557 10.5962469733658  9.57627118644069 9.36138014527861  10.743487131199 8.31517352703812  C 11.4469535416495 7.64940093637254  12.0584742607691 6.88768495806161  12.5610091023227 6.05125100887835  Z " fill-rule="nonzero" fill="#ffffff" stroke="none" transform="matrix(1 0 0 1 843 757 )" />
  </g>
</svg>