<?xml version="1.0" encoding="utf-8"?>
<svg version="1.1" xmlns:xlink="http://www.w3.org/1999/xlink" width="47px" height="42px" xmlns="http://www.w3.org/2000/svg">
  <g transform="matrix(1 0 0 1 -473 -702 )">
    <path d="M 46.1919306564433 19.6442937853107  C 45.8728519303201 14.8876553672318  42.329398708636 1.45813559322039  38.7691518697875 1.18920903954811  C 32.0115057480984 0.601655654667643  25.2033157561261 1.12973942987484  18.6168112725316 2.75234463276841  C 8.43987927091738 5.37437853107351  0.580466437987608 16.6356779661018  1.48732176486411 27.2582768361583  C 2.0079238969599 33.3763559322034  4.07353880817862 41.4945762711865  11.563492063492 41.0239548022599  C 10.9500364933634 40.1855634651242  10.3891707603169 39.3098682828112  9.88413034705406 38.4019209039548  C 7.06280266343824 33.0233898305085  5.9208366962604 24.1992372881356  7.96965799031475 18.3668926553673  C 8.35591118509548 18.4509322033898  10.4215260963142 19.1064406779661  10.3711452448211 19.6274858757062  C 10.7741920567662 15.1397740112994  12.6550771791767 13.3749435028248  16.6855452986279 11.7781920903954  C 19.857740523688 10.3973833208991  23.2213545361776 9.50759066762306  26.6609538942695 9.13935028248589  C 29.0792347659403 9.03850282485877  31.3463730831315 11.2403389830509  33.4791624630078 12.3328531073445  C 35.8096259243509 13.614519047426  38.4753483913552 14.1539809976719  41.1202582728006 13.8791807909605  C 40.6697208663884 13.0770988031424  40.4218236649712 12.1769854140639  40.3981327347323 11.2571468926553  C 40.3981327347323 10.7024858757062  43.7568561676083 14.0808757062146  43.8744114877589 14.2825706214689  C 45.1033448268949 15.8354799802854  45.9025849309304 17.6845711279159  46.1919306564433 19.6442937853107  Z " fill-rule="nonzero" fill="#bf3c1b" stroke="none" transform="matrix(1 0 0 1 473 702 )" />
  </g>
</svg>