<?xml version="1.0" encoding="utf-8"?>
<svg version="1.1" xmlns:xlink="http://www.w3.org/1999/xlink" width="25px" height="9px" xmlns="http://www.w3.org/2000/svg">
  <g transform="matrix(1 0 0 1 -488 -740 )">
    <path d="M 24.4946641556811 2.03199152542376  C 24.0727765379268 1.65196273171067  23.4576695435627 1.65959854267521  23.0439814814815 2.05000000000005  C 22.6771421845574 2.41016949152551  14.3232109227872 10.9101694915255  2.80112209667293 1.8158898305086  C 2.35945959260551 1.44889044125974  1.73208923540773 1.50340676195418  1.35043942247335 1.94194915254252  C 1.21565759068833 2.11169532761373  1.14156726654649 2.32792703202218  1.14156726654649 2.55153998376985  C 1.14156726654649 2.87506741229354  1.29619482545312 3.17567838342006  1.55053358443188 3.34661016949158  C 3.93469675306415 5.29221578501295  6.65646306452017 6.70072985119139  9.55430006277462 7.48855932203401  C 12.3461661776118 8.20668915527909  15.2614180708812 8.14471135912285  18.0249529190207 7.30847457627123  C 20.4548256556885 6.58566384054395  22.6974069000398 5.26682064157595  24.5780367231639 3.45466101694921  C 24.7468549730809 3.27824157154211  24.8421694339616 3.03539465688971  24.8421694339616 2.78169058535513  C 24.8421694339616 2.48661827514057  24.7133956887999 2.20880506847723  24.4946641556811 2.03199152542376  Z " fill-rule="nonzero" fill="#c20902" stroke="none" transform="matrix(1 0 0 1 488 740 )" />
  </g>
</svg>