<?xml version="1.0" encoding="utf-8"?>
<svg version="1.1" xmlns:xlink="http://www.w3.org/1999/xlink" width="18px" height="15px" xmlns="http://www.w3.org/2000/svg">
  <g transform="matrix(1 0 0 1 -372 -720 )">
    <path d="M 16.5433359013867 2.22300690521034  C 14.693374422188 0.0219711236660676  4.39580123266563 0.63892812303834  2.33301232665639 3.14010514752046  C 0.925077041602448 4.80755649717518  1.38347457627119 11.4773618957941  2.59495377503851 13.1448132454489  C 3.80643297380584 14.8122645951036  13.7765793528505 14.1119350282487  15.9048536209553 13.0614406779661  C 18.0331278890601 12.0109463276836  18.3932973805855 4.42404268675456  16.5433359013867 2.22300690521034  Z M 15.4628274268105 3.5402934714376  C 17.1490755007704 5.07434871312  17.3291602465331 10.5269146264909  15.5774268104776 11.3439657878217  C 13.8420647149461 12.144342435656  5.41082434514638 12.8780210295041  4.28120184899845 11.7941776522286  C 3.1515793528505 10.710334274953  2.36575500770414 5.90807438794731  3.4462634822804 4.64081136220974  C 5.08339753466869 2.78994036409292  13.7765793528505 2.0062382297552  15.4628274268105 3.5402934714376  Z " fill-rule="nonzero" fill="#2b2521" stroke="none" transform="matrix(1 0 0 1 372 720 )" />
  </g>
</svg>