<?xml version="1.0" encoding="utf-8"?>
<svg version="1.1" xmlns:xlink="http://www.w3.org/1999/xlink" width="46px" height="17px" xmlns="http://www.w3.org/2000/svg">
  <g transform="matrix(1 0 0 1 -207 -699 )">
    <path d="M 38.2765833158959 12.7079802259887  C 30.5722169910023 12.6569562146893  14.1237357885192 12.146716101695  10.4931383832043 14.034604519774  C 8.78863255911277 14.9020127118644  4.39100753295667 17.0280131826742  2.14105984515587 13.4733403954803  C 1.06722117597822 11.7725400188324  1.85129385506032 9.25535546139362  2.53309618469692 7.33345103578158  C 3.33421392201993 4.98634651600758  5.94210783287995 3.67673022598873  8.17501046243982 2.72428201506595  C 12.1294639743321 1.02348163841812  16.6975395828974 1.21056967984939  20.9758492013671 1.27860169491534  C 25.7518104727142 1.39155933421949  30.4917571903319 2.13503396920252  35.0721123666039 3.48964218455746  C 38.0890876752459 4.37405838041433  43.7650920694706 5.19044256120529  44.8218856804073 8.59204331450097  C 46.1343551649578 12.9290842749529  41.4128740322243 12.6909722222223  38.2765833158959 12.7079802259887  Z " fill-rule="nonzero" fill="#bf3c1b" stroke="none" transform="matrix(1 0 0 1 207 699 )" />
  </g>
</svg>