<?xml version="1.0" encoding="utf-8"?>
<svg version="1.1" xmlns:xlink="http://www.w3.org/1999/xlink" width="73px" height="58px" xmlns="http://www.w3.org/2000/svg">
  <g transform="matrix(1 0 0 1 -676 -700 )">
    <path d="M 66.6211322428065 34.2776567124025  C 73.9245691542942 33.0342144202314  75.3512870625848 23.1364137745494  67.3854454079622 21.7437584073177  C 71.1220875487233 20.7655838041431  75.3343023255814 12.7743946731235  69.0839191083081 13.2220338983051  C 70.7823928086542 15.7420769437719  66.7400254018307 16.9026230831316  65.3982311785573 14.9960115684692  C 65.2868704357356 14.8630904703079  65.2162212596865 14.7021781003843  65.1944143345158 14.5317931127253  C 64.9736127534709 11.3817393058919  61.6785737747997 9.22643933279528  59.1648326982876 7.28666935700835  C 55.2863041834009 4.32415110672451  50.8042552696726 2.20446065502653  46.0186462576096 1.06945789615283  C 37.764064073928 -0.787415926822694  27.9129166119213 -0.323197471078814  21.3398233915823 5.0153147699758  C 18.707189156046 7.17061474307239  16.3972649235755 11.6470069948884  12.7455464678316 12.5257062146893  C 8.24459116191472 13.5867769706753  5.7478348224061 18.0631692224913  9.3485990671396 20.81532149583  C 8.92171619295118 21.0931244728701  8.42014173298943 21.2413672128506  7.90708732456256 21.2413672128506  C 6.57906400146337 21.2413672128506  5.46471982841526 20.2639642430139  5.32321639731968 18.9750269034167  C 1.4506963605308 21.6111245628195  -0.00999102176674212 26.7341068065644  5.32321639731968 29.0386198547216  C -0.944151556957058 32.2052528921173  0.601459510357818 38.6711528114071  7.31043062672445 41.4896220069949  C 4.16825428108437 44.3412496637073  5.76481955940962 49.1989642184558  9.00890432707042 51.1221549636804  C 8.77111800902204 49.0994888350821  10.7073780274164 44.5899381221415  14.2571880611396 46.8944511702986  C 16.4482191345858 48.3036857680926  15.2932570183506 52.100329566855  12.3039433057416 50.2102972827549  C 11.5226454035825 53.6421980091472  17.3993644067796 55.7809187516815  19.0978381071256 52.9127118644068  C 18.8940212630841 55.4990718321227  20.6944033854509 56.4938256658596  23.1232207769456 56.3280333602368  C 26.7409697586826 56.1125033629271  27.9978402969386 53.7250941619586  30.4266576884334 53.0121872477805  C 33.657970677835 52.227007695235  36.9828813413942 51.8701110096211  40.3117746244471 51.9511164917945  C 46.3073867866684 51.8516411084208  51.4537620987168 57.6543718052193  57.4323895239347 55.1509079903148  C 59.5127974289035 54.5843096542375  60.8559014051357 52.617753108216  60.5915506065782 50.5253026634383  C 58.8930769062322 51.6526903416734  54.7148316033811 50.0113465160076  58.179717952087 47.3420903954803  C 59.8781916524329 46.0157519504978  62.4938411509657 47.2591942426689  64.2602537993256 46.2312819478074  C 66.3493764507512 45.0541565778854  65.5001396005782 40.7601358622545  65.6530022336093 40.6772397094431  C 67.1476590899138 39.7488027979554  69.6274306924189 39.6824858757062  69.7802933254501 42.3351627656713  C 72.8545307230764 36.36663976325  69.9331559584812 34.7252959375841  66.6211322428065 34.2776567124025  Z " fill-rule="nonzero" fill="#c93712" stroke="none" transform="matrix(1 0 0 1 676 700 )" />
  </g>
</svg>