<?xml version="1.0" encoding="utf-8"?>
<svg version="1.1" xmlns:xlink="http://www.w3.org/1999/xlink" width="21px" height="27px" xmlns="http://www.w3.org/2000/svg">
  <g transform="matrix(1 0 0 1 -849 -751 )">
    <path d="M 20.353225047081 7.47298728813568  C 21.0010298964218 6.64572298728825  12.9472398775894 0.804224046610184  9.70821563088511 1.80031779661022  C 8.86782015065916 2.03667902542377  11.8267125706215 12.8924126059322  0.954096045197744 20.8105137711864  C 0.527489990212999 22.4678754124436  0.304189866333218 24.1678105660394  0.288782956685516 25.8753972457628  L 6.22407603578154 25.8753972457628  C 6.39915842749526 25.6559189618644  6.55673258003763 25.4364406779662  6.74932321092279 25.2338453389831  C 10.91628413371 20.6079184322034  16.5539371468926 17.5521054025424  16.6239701035782 17.1637976694916  C 16.7640360169491 16.3702992584746  11.6691384180791 14.9690148305085  11.8617290489642 14.5131753177966  C 12.0543196798494 14.0573358050848  19.7054201977401 8.30025158898311  20.353225047081 7.47298728813568  Z " fill-rule="nonzero" fill="#3a3a4a" stroke="none" transform="matrix(1 0 0 1 849 751 )" />
  </g>
</svg>