<?xml version="1.0" encoding="utf-8"?>
<svg version="1.1" xmlns:xlink="http://www.w3.org/1999/xlink" width="46px" height="17px" xmlns="http://www.w3.org/2000/svg">
  <g transform="matrix(1 0 0 1 -1097 -699 )">
    <path d="M 45.7988683127572 9.39962335216584  C 44.7079845853386 5.87896657250475  38.9297098416684 4.97754237288141  35.8445543000628 4.00808615819219  C 31.1925586194317 2.54959500106766  26.3655647428614 1.72015015583604  21.4926152612122 1.5419256120529  C 17.1802155262607 1.38885357815464  12.4757794517682 1.06570150659153  8.40201053218944 2.76650188323935  C 6.16910790262951 3.70194209039568  3.4078084676013 4.994550376648  2.53851049731462 7.37567090395492  C 1.82261805119623 9.31458333333346  0.970365139150441 11.8997999058382  2.02715875008717 13.634616290019  C 4.27710643788793 17.3083451035784  8.84518204645322 15.2163606403015  10.5496878705447 14.3659604519776  C 14.2825556253051 12.5120880414314  31.1230731673292 14.1448564030134  38.9808450163911 14.2639124293787  C 42.2534961986468 14.2639124293787  46.9920223896212 13.8387123352168  45.7988683127572 9.39962335216584  Z " fill-rule="nonzero" fill="#bf3c1b" stroke="none" transform="matrix(1 0 0 1 1097 699 )" />
  </g>
</svg>