<?xml version="1.0" encoding="utf-8"?>
<svg version="1.1" xmlns:xlink="http://www.w3.org/1999/xlink" width="52px" height="18px" xmlns="http://www.w3.org/2000/svg">
  <g transform="matrix(1 0 0 1 -824 -690 )">
    <path d="M 51.2489520685256 15.6656394453005  C 50.6950117386711 10.6777344204843  47.6128098257139 6.29363972216426  43.04250956807 3.992873651772  C 36.9338284429864 0.898690292758113  28.9623352165725 1.01328967642531  22.3501913613996 1.56991525423732  C 16.8170025821862 2.09269073967229  11.4531212612258 3.71986696291233  6.59180790960447 6.35034668721112  C 1.37257760767864 9.06798921417567  -0.0203359455683694 14.6997303543914  0.869114877589434 17.4337442218799  C 3.46791598003651 14.2155237769777  7.0751123375849 11.9155836888658  11.1397545714112 10.8852080123267  C 10.9215873883725 12.244029275809  8.50496628394382 15.0107858243452  8.03506773586046 16.3041217257319  C 10.1328291112325 15.0107858243452  20.3699046230484 10.0666409861325  23.1389496385396 9.98478428351312  C 22.2662809063847 11.0325500770416  20.2692120770305 12.4077426810478  20.4705971690662 13.8811633281972  C 24.951415466861 12.9807395993837  29.7007472207035 10.279468412943  34.3661685195309 10.426810477658  C 32.9900370572869 11.818374422188  30.7244547718851 12.2112865947612  29.6000546746856 13.9302773497689  C 34.0976550634834 13.7993066255778  39.0315898183585 12.9971109399076  43.6802290261831 12.7679121725732  C 42.1745865401531 13.4364129987798  40.768857464367 14.3010625158223  39.5014883664419 15.3382126348228  C 43.1935483870967 15.3382126348228  47.6743666848915 14.748844375963  51.2489520685256 15.6656394453005  Z " fill-rule="nonzero" fill="#693a27" stroke="none" transform="matrix(1 0 0 1 824 690 )" />
  </g>
</svg>