<?xml version="1.0" encoding="utf-8"?>
<svg version="1.1" xmlns:xlink="http://www.w3.org/1999/xlink" width="27px" height="18px" xmlns="http://www.w3.org/2000/svg">
  <g transform="matrix(1 0 0 1 -853 -718 )">
    <path d="M 25.6382415254237 0.797187981510064  C 24.8616260593221 0.0932203389830797  22.8863215042373 0.993644067796636  20.3707627118644 0.928158705701112  C 16.825344279661 0.846302003081712  -1.23940677966105 -0.201463790446791  0.280058262711835 7.98420647149464  C 0.657929841115005 11.4860847138083  2.67492610894853 14.6251436267103  5.75013241525424 16.4973035439138  C 8.48516949152544 17.9379815100154  17.2305349576271 17.1030431432974  19.8980402542373 14.5000000000001  C 23.0889168432203 11.3894453004623  22.9538532838983 6.51078582434522  23.1057997881356 4.67719568567031  C 23.8199122347539 4.60565063376873  24.501600730676 4.35140783808679  25.0811043432203 3.94048536209557  C 25.0811043432203 3.94048536209557  26.4148569915254 1.50115562403705  25.6382415254237 0.797187981510064  Z M 19.5941472457627 12.404468412943  L 19.5941472457627 12.3880970724191  C 17.3993644067796 15.3676810477658  8.90724311440672 16.5464175654854  5.56442002118641 14.2708012326657  C 3.01509533898304 12.5354391371341  1.22550317796606 7.00192604006166  2.55925582627112 5.87230354391376  C 5.32805879237281 3.56394453004626  17.2980667372881 2.59803543913718  20.5058262711864 4.66082434514643  C 21.5525688559322 5.34842064714949  21.2824417372882 10.1124807395994  19.5941472457627 12.404468412943  Z " fill-rule="nonzero" fill="#3a3a4a" stroke="none" transform="matrix(1 0 0 1 853 718 )" />
  </g>
</svg>