<?xml version="1.0" encoding="utf-8"?>
<svg version="1.1" xmlns:xlink="http://www.w3.org/1999/xlink" width="49px" height="46px" xmlns="http://www.w3.org/2000/svg">
  <g transform="matrix(1 0 0 1 -471 -697 )">
    <path d="M 48.1189768816157 10.1522372183859  C 47.3066165572192 7.49643684047738  45.4051645665309 5.31857669765225  42.8954842846938 4.16942177582486  C 30.9609024936684 -1.3190869777499  18.8403711279953 2.02174443746955  7.61577862198843 7.57843342400784  C 5.19157410786493 8.75735759804034  3.17662514691663 10.6464841370992  1.83443730112343 12.9987619446189  C -0.599811676082878 17.3622968542931  1.5132516721865 28.5949902350561  3.67702854081433 37.6459161609822  C 5.36747921942982 44.7877955639255  11.1319160335087 45.3673275441166  11.1488205402948 45.3673275441166  C 5.62104682122215 38.0209074422822  8.8329031105916 20.1235962893213  11.1488205402948 16.3055032433565  C 10.285250149221 18.2068707784348  10.4913690393299 20.4280822532226  11.6897647574518 22.1349131617494  C 11.6897647574518 18.0781893004116  15.1720931553997 16.6804945246565  18.147286349763 15.146439282974  C 21.9472102144246 13.2105645747906  26.0894769647269 12.0519772333864  30.3354357425807 11.737427634791  C 31.8061278329762 14.4816820115785  37.6719916877719 17.8225134267978  40.8162299499968 17.4304770872567  C 39.7670188870253 16.7542477063429  39.3707308625327 15.4029308673513  39.8864820767582 14.2600962544464  C 41.4583923973215 14.6579277683532  42.9586176152713 15.3021188692428  44.332367361517 16.1691427774289  C 45.5899582462166 17.2059518940766  46.7865709837043 18.315761187573  47.9161228001818 19.4929291344073  C 47.8316002662511 16.4077735928018  49.1163427819988 13.0839872358233  48.1189768816157 10.1522372183859  Z " fill-rule="nonzero" fill="#231e1a" stroke="none" transform="matrix(1 0 0 1 471 697 )" />
  </g>
</svg>