<?xml version="1.0" encoding="utf-8"?>
<svg version="1.1" xmlns:xlink="http://www.w3.org/1999/xlink" width="22px" height="12px" xmlns="http://www.w3.org/2000/svg">
  <g transform="matrix(1 0 0 1 -477 -724 )">
    <path d="M 21.193079144163 5.45210292285057  C 21.193079144163 4.20160621906864  20.6625879939061 3.01140935557516  19.7366181370418 2.18442292171108  C 16.7736853541938 -0.473970944309908  5.02354048964216 0.829499596448743  1.72198681732577 1.03531073446327  C -1.57956685499062 1.2411218724778  3.63519484282194 7.79277643260694  5.49760973489784 9.14769975786927  C 8.03726640591043 10.9828490718321  17.0615131102419 10.7770379338176  19.6181008257279 8.82183212267968  C 20.6150394212961 7.99440745981581  21.193079144163 6.75766831870754  21.193079144163 5.45210292285057  Z M 20.1492038263625 5.61496577885772  C 20.1492038263625 6.77839570833511  19.5239479174512 7.84956541414213  18.5175829349558 8.41020984665062  C 16.333478197885 9.73083131557707  8.79916340721423 9.76513317191296  6.78436911487756 8.78753026634389  C 4.41402288859913 7.65556900726398  0.943158771548579 2.57889426957234  3.66905693176877 2.25302663438265  C 6.39495509198896 1.92715899919296  15.3006844850065 0.383575464084093  18.9069969578444 3.07627118644077  C 19.6896984266138 3.6795758958584  20.1492038263625 4.61866575527919  20.1492038263625 5.61496577885772  Z " fill-rule="nonzero" fill="#f5f5f5" stroke="none" transform="matrix(1 0 0 1 477 724 )" />
  </g>
</svg>