<?xml version="1.0" encoding="utf-8"?>
<svg version="1.1" xmlns:xlink="http://www.w3.org/1999/xlink" width="25px" height="9px" xmlns="http://www.w3.org/2000/svg">
  <g transform="matrix(1 0 0 1 -357 -739 )">
    <path d="M 24.7878162585663 1.91515821763101  C 24.7878162585663 1.57155513195693  24.6199215669966 1.25345731246534  24.3461629001883 1.07838983050854  C 23.8724952877992 0.733836570172434  23.2375402788185 0.810031171250086  22.8454566854991 1.25847457627122  C 22.5286409290647 1.67266949152544  14.7082940991839 11.3792372881356  1.95229127432514 3.29343220338986  C 1.45883344911037 2.98522005151406  0.831423003548224 3.10703637173104  0.468259573132445 3.58156779661022  C 0.371073662539582 3.74250459508049  0.319328164946195 3.93049569357347  0.319328164946195 4.12263475561512  C 0.319328164946195 4.49436937573584  0.512057016192919 4.83480524001191  0.81842435655993 5.00423728813561  C 3.46195552535627 6.7520529845509  6.40578607642352 7.90372033539616  9.47249686126803 8.3898305084746  C 15.0877657694086 9.18720403480761  20.7140229436407 7.00749512955866  24.57960608914 2.53707627118646  C 24.7141505490002 2.36240548756132  24.7878162585663 2.14236803774164  24.7878162585663 1.91515821763101  Z " fill-rule="nonzero" fill="#94110c" stroke="none" transform="matrix(1 0 0 1 357 739 )" />
  </g>
</svg>