<?xml version="1.0" encoding="utf-8"?>
<svg version="1.1" xmlns:xlink="http://www.w3.org/1999/xlink" width="22px" height="17px" xmlns="http://www.w3.org/2000/svg">
  <g transform="matrix(1 0 0 1 -345 -720 )">
    <path d="M 19.3818629581342 2.87975517890777  C 17.0792409097494 0.311546610169555  4.34709546573952 0.889818738229837  1.84130088367376 3.56007532956692  C 0.148196436332019 5.3799317325801  0.689989859481373 12.7103813559322  2.21378386208893 14.4622057438795  C 3.73757786469649 16.2140301318268  16.0295161523975 15.8738700564973  18.6538280457772 14.7853578154426  C 21.2781399391569 13.696845574388  21.6844850065189 5.44796374764598  19.3818629581342 2.87975517890777  Z M 18.2474829784152 12.8294373822976  L 18.2644140228886 12.8464453860641  C 16.1141713747646 13.6458215630886  5.70157902361291 14.12204566855  4.29630233231928 12.9314854048965  C 2.89102564102563 11.7409251412431  1.84130088367376 6.60450800376654  3.19578444154713 5.26087570621473  C 5.15978560046354 3.35597928436918  15.927929885557 2.82873116760833  18.0443104447341 4.5125235404897  C 20.1606910039113 6.19631591337106  20.4654498044328 12.0640772128061  18.2474829784152 12.8294373822976  Z " fill-rule="nonzero" fill="#2b2521" stroke="none" transform="matrix(1 0 0 1 345 720 )" />
  </g>
</svg>