<?xml version="1.0" encoding="utf-8"?>
<svg version="1.1" xmlns:xlink="http://www.w3.org/1999/xlink" width="40px" height="24px" xmlns="http://www.w3.org/2000/svg">
  <g transform="matrix(1 0 0 1 -76 -754 )">
    <path d="M 36.3955586942875 23  C 36.5122802887633 22.3486682808717  36.6290018832391 21.5597255851494  36.8290960451977 20.8565375302664  C 38.0796845574388 14.5621468926554  41.3812382297552 8.85088781275224  36.6956999372253 3.56840193704601  C 35.6246892578787 2.40807012681724  34.3595205690408 1.45532064481487  32.9606089139988 0.755649717514132  C 33.1622391198022 1.24803914209903  33.236903243666 1.7856208339181  33.1773775894539 2.31638418079097  C 32.0768596986817 12.4525827280065  21.5052181418707 22.6230831315577  21.5052181418707 22.6230831315577  C 21.5052181418707 22.6230831315577  6.21468926553671 8.62792574656984  8.91596045197738 1.76755447941891  C 9.1323825568941 1.2062170148201  9.41820103787054 0.675891631630196  9.7663606403013 0.189669087974177  C 6.18134023854361 1.69895076674738  2.71304143126174 4.04862792574659  1.76259416195855 7.39305891848267  C 0.812146892655363 10.7374899112188  2.67969240426865 17.8208232445521  3.43004551161329 23  L 36.3955586942875 23  Z " fill-rule="nonzero" fill="#1e1e29" stroke="none" transform="matrix(1 0 0 1 76 754 )" />
  </g>
</svg>