<svg xmlns="http://www.w3.org/2000/svg" xmlns:xlink="http://www.w3.org/1999/xlink" width="24" height="18" version="1.1"><g><path fill="#212126" fill-rule="nonzero" stroke="none" d="M 21.5159402744148 3.65119414483824 C 19.2691686844229 0.507896764252715 3.59322033898305 0.671610169491537 0.986279257465696 3.74942218798152 C -0.728813559322037 5.82858243451467 0.300242130750584 12.6718027734977 1.53510895883776 14.8983050847458 C 2.76997578692493 17.1248073959939 15.4102098466505 17.0920647149461 18.4459241323648 15.9296995377504 C 21.4816384180791 14.7673343605547 23.7627118644068 6.79449152542376 21.5159402744148 3.65119414483824 Z M 19.7322437449556 4.8299306625578 C 21.6874495560936 6.89271956856704 19.9723567393059 13.6377118644068 17.7084342211461 14.4399075500771 C 15.4273607748184 15.2584745762712 4.159200968523 15.2748459167951 3.06154156577883 13.8341679506934 C 1.96388216303468 12.3934899845917 1.3464487489911 6.25423728813561 2.70137207425343 4.8299306625578 C 4.57082324455206 2.75077041602467 17.7770379338176 2.76714175654857 19.7322437449556 4.8299306625578 Z" transform="matrix(1 0 0 1 -105 -718 ) matrix(1 0 0 1 105 718 )"/></g></svg>