<svg xmlns="http://www.w3.org/2000/svg" xmlns:xlink="http://www.w3.org/1999/xlink" width="67" height="53" version="1.1"><g><path fill="#c93712" fill-rule="nonzero" stroke="none" d="M 64.9620439030132 16.6560734463277 C 63.7293212812986 14.6725984221667 61.6252201311004 13.3776262056681 59.281120527307 13.1597406132298 C 61.9121086393597 7.67497204566856 51.0362405838042 3.49925700329568 46.9138006120528 6.53162149835217 C 46.2602430555556 -0.212489701035777 37.7137211629002 -0.610176847928429 33.6247969632768 4.16206891478343 C 32.3051449730508 2.46010911477973 30.3604164375699 1.34086352033333 28.2119997645951 1.04685293079097 C 25.8733579997137 0.520561839163904 23.4258646016006 1.22903556322328 21.7434557438795 2.91929658074389 C 24.0392861346516 2.91929658074389 27.8935999293785 7.24414430320152 21.0228666431262 6.61447298728815 C 18.1907838983051 6.34934822269304 16.4982374058381 5.27227886652543 13.6493967749529 6.79674626294728 C 11.3535663841808 8.03951859698683 9.79508298022595 10.2102276071092 11.9736081685499 12.3146554260829 C 11.9736081685499 12.3146554260829 6.94624234934083 12.0329603637006 6.10834804613933 16.5732219573917 C 5.78994821092279 18.4456656073446 6.56081096986815 18.9096339453861 4.68392773069675 20.3181092572976 C 3.54704862359787 21.3537085229619 1.94458741267845 21.7246881639345 0.460940442561225 21.295756826742 C 0.686986754758355 23.1638148150134 1.60669982087802 24.882260082842 3.0416548964218 26.1177134828155 C 4.71562186841131 27.2506905033131 6.90554594838262 27.3090398746904 8.63878884180786 26.2668461629002 C 8.4544520951035 27.4267670080038 11.9903660546139 37.2198130002354 13.4483021421845 36.2090248352166 C 10.93461923258 37.866054613936 9.86211452448208 41.3623874470339 12.3422816619585 42.9531360346045 C 12.7863031015488 43.2288532170516 13.2732091927932 43.4303927914385 13.7834598634652 43.5496667549435 C 10.8340719161959 46.2837658898305 11.8060293079096 49.4652630649718 13.2136917372881 50.426340336629 C 15.0616254497999 51.5580052975752 17.3413768497473 51.7607018894714 19.3638359227872 50.9731601636064 C 20.4040221772486 50.5818396348953 21.0496723637399 49.5494964500799 20.939077212806 48.4544748999529 C 19.5984463276836 48.719599664548 18.2913312146892 49.1504274070151 17.1853107344632 48.0402174552731 C 14.1018596986817 44.958142066855 20.5368879472693 42.4063162076271 17.4031632532956 39.9704824329096 C 16.7328478107344 39.4402329037194 15.5765536723163 39.3739517125706 15.5095221280602 38.3134526541902 C 15.4424905838041 37.2529535958098 16.6490583804143 36.9215476400659 17.101521304143 36.2918763241526 C 18.6767625941619 34.0880267184558 16.2301112288135 31.5030602636535 14.2359227871939 30.691115672081 C 15.5262800141242 30.691115672081 19.1627412900188 31.2545057968456 18.743794138418 28.8186720221281 C 20.7714983521657 30.5751235875706 23.7711599576271 28.1061492172787 22.9165077683615 25.7531669314972 C 23.2851812617702 26.8136659898776 25.2123381591336 26.4656897363465 25.8658957156308 26.0348619938795 C 27.0557056261769 25.222917402307 26.9551583097928 23.6487391125235 27.5416843220338 22.4722479696328 C 27.5530825967139 23.7929546993168 28.2083201478928 25.0270552754533 29.301262358757 25.7863075270716 C 29.671725760955 26.0326938323871 30.1080574207623 26.1642917247705 30.5545231015836 26.1642917247705 C 31.3965403984786 26.1642917247705 32.1677979242767 25.6985114322437 32.5522922551788 24.9577926377119 C 33.3063971280602 27.5758996880885 35.9038694679849 29.7134681026365 38.233215630885 27.0787907544727 C 38.8973997687811 28.1137420133987 38.9296278923789 29.4266772874333 38.3170050612052 30.4922720986347 C 37.2109845809792 31.9670286016949 35.7362906073446 30.4922720986347 34.7978489877589 31.121943414548 C 33.8594073681732 31.7516147304614 35.7698063794726 33.8394722516479 36.5574270244821 34.0880267184558 C 38.2989303992273 34.4747410963131 40.1092731825979 33.8285036406404 41.1993614642184 32.4309969397363 C 41.7590822895739 31.3662129261404 41.9810127905556 30.159258802331 41.8361611346516 28.9678047022128 C 43.1097604755179 31.0225216278249 45.1877383474576 32.4144266419492 47.3997793079096 30.260287929614 C 48.9415048258003 32.1990127707156 50.4832303436911 33.1269494467985 52.6952713041431 31.204794903484 C 53.751018126177 32.9612464689266 53.5666813794727 35.3142287547081 56.1306379472693 35.6787753060264 C 59.0800258945386 36.1096030484934 58.9124470338983 32.6961217043315 58.3929525659133 30.7076859698682 C 57.7226371233521 28.2387115995763 56.8009533898305 23.4001846457156 59.6833097928437 21.2294756355932 C 61.4596457156309 19.8872815148305 64.1073917137476 20.7489369997646 63.2862552966101 23.085348987759 C 64.7403306576083 22.2528280686803 65.6356222224324 20.7172716537422 65.6356222224324 19.0558399476523 C 65.6356222224324 18.2102810242691 65.4027663297385 17.3806822162126 64.9620439030132 16.6560734463277 Z" transform="matrix(1 0 0 1 -681 -688 ) matrix(1 0 0 1 681 688 )"/></g></svg>