<svg xmlns="http://www.w3.org/2000/svg" xmlns:xlink="http://www.w3.org/1999/xlink" width="31" height="12" version="1.1"><g><path fill="#f04d4d" fill-rule="nonzero" stroke="none" d="M 30.4615174943007 1.27845036319613 C 28.9889186941389 1.99962021335343 27.2357084754078 1.47331089160133 26.3480027752998 0.0435835351089671 C 26.0708425088659 0.912848819421888 26.264608031374 1.87168139163035 26.8540303796214 2.54761904761907 C 24.8569070992066 7.09589516130139 20.4157521041268 9.89838562641547 15.6561292001189 9.61380145278453 C 11.2037435649206 9.7697953406923 7.04325256609386 7.29267351097605 4.88263826940227 3.19935431799838 C 5.40941128614093 2.41221168304135 5.40941128614093 1.36240494327019 4.88263826940232 0.575262308313171 C 4.44440910825142 1.69345944974798 3.4072411212792 2.42324693597432 2.25629768066764 2.42324693597432 C 1.86226771675375 2.42324693597432 1.47254812371794 2.33710526527652 1.11191644365148 2.17029862792576 C 1.50120390223876 3.09364692555948 2.31524316674895 3.74160444653534 3.26661462979482 3.88539144471349 C 5.68034040893469 8.47173024041118 10.2763933520613 11.3165888927654 15.2643658935474 11.3117433414044 L 15.7377465556546 11.3117433414044 C 21.6958135097631 11.3117433414044 26.7234426107641 8.15597255851493 28.5843183169788 3.18220338983051 C 29.5363800030471 3.04165084663412 30.29413903407 2.27317296416057 30.4615174943007 1.27845036319613 Z" transform="matrix(1 0 0 1 -702 -736 ) matrix(1 0 0 1 702 736 )"/></g></svg>