<svg xmlns="http://www.w3.org/2000/svg" xmlns:xlink="http://www.w3.org/1999/xlink" width="47" height="27" version="1.1"><g><path fill="#bc551e" fill-rule="nonzero" stroke="none" d="M 45.1056799838579 7.8118379237288 C 44.3734177196613 6.69058521810669 43.3824531651224 5.76385438778581 42.2171778315846 5.11056673728823 C 39.7206423434861 3.79904171375846 37.0683795357533 2.81191728307604 34.3241777643261 2.17293432203393 C 29.7711792796248 0.849869063366006 25.0576451619785 0.16805523492946 20.3183010492332 0.146980932203462 C 16.1198967581383 0.146980932203462 11.5520328894269 -0.0387314618643675 7.63912009012643 1.83527542372886 C 5.50633071025016 2.84825211864412 2.88652643260689 4.23265360169495 2.09722642588109 6.66379766949162 C 1.39168765285711 9.90465018578755 1.42613822712281 13.2641309199063 2.19798812886732 16.4896716101695 C 2.64925893831446 19.89390841926 3.74976968082473 23.1786072364145 5.43915624159267 26.1635990466103 C 5.61855218276675 23.7987580569955 6.49563405896334 21.5414852113629 7.95819881624967 19.6805481991526 C 9.08337116626309 18.2117319915255 10.6955584140436 15.5611096398305 12.6436180051116 15.2234507415255 C 12.6436180051116 15.2234507415255 11.33371586629 19.0221133474577 11.1321924603174 19.4273040254238 C 10.3107992062631 20.6147121377747 9.19295383510114 21.5638209005733 7.89102434759208 22.1792240466103 C 9.10016478342744 23.2090836864408 12.6772052394403 23.0064883474577 14.1214563155771 22.7025953389831 C 15.1941998066058 22.5426993948281 16.2197456198945 22.1510342696533 17.127513788001 21.5545550847458 C 17.0021594333686 21.9353364668722 16.9452921023393 22.3355251847003 16.9595776163572 22.7363612288136 C 18.8572563559321 22.4662341101695 20.7885223298359 22.5506488347458 22.7365819209039 22.1285752118645 C 24.1605634742608 21.776514332835 25.5534875120736 21.3078544284688 26.9013989776701 20.7272907838983 C 26.6977553519882 21.0097629231557 26.5547805834981 21.33172993373 26.4815585485606 21.6727356991525 C 26.8806461946033 21.5560853056922 27.2684672994434 21.4035220079741 27.6403181329028 21.2168961864407 C 27.4432655178501 21.6516664496896 27.3402342701597 22.1235276425695 27.338033023944 22.6012976694915 C 31.0494224172719 22.5 34.9287479822437 22.432468220339 38.6233437584072 22.0779263771186 C 44.6354587032553 21.4870233050847 46.4491693570083 10.0066207627118 45.1056799838579 7.8118379237288 Z" transform="matrix(1 0 0 1 -961 -698 ) matrix(1 0 0 1 961 698 )"/></g></svg>