<?xml version="1.0" encoding="utf-8"?>
<svg version="1.1" xmlns:xlink="http://www.w3.org/1999/xlink" width="51px" height="42px" xmlns="http://www.w3.org/2000/svg">
  <g transform="matrix(1 0 0 1 -958 -690 )">
    <path d="M 49.0482815442562 13.6231073446329  C 48.2627565295475 12.2448725858649  47.1833147159034 11.0519562438035  45.8847928436912 10.1270621468927  C 43.3846162900188 8.44627118644073  41.9729519774011 5.82423728813563  39.0815913370998 4.44598870056503  C 36.4632926666637 3.22542199600014  33.6964522314487 2.34412211600365  30.8497175141243 1.82395480225998  C 26.881789610414 1.14364374792878  22.8310980033692 1.07560346897694  18.8420668549906 1.62225988700569  C 12.242961393597 2.49627118644074  4.30022363465158 5.70658192090402  2.31028719397365 12.6986723163842  C 1.0857109227872 16.9846892655368  1.81705508474579 21.9262146892656  2.20823917137473 26.2794632768362  C 2.66745527306969 31.3218361581921  1.91910310734466 37.2886440677967  6.69835216572504 40.5998022598871  C 6.9874882297551 39.3896327683617  6.91945621468922 38.0618079096046  7.10654425612052 36.8348305084746  C 7.4602260960942 35.209958471332  7.65388691575394 33.555063107208  7.6848163841808 31.8933050847459  C 7.44723841463367 30.3389855895377  7.44723841463367 28.758217800293  7.68481638418075 27.2038983050848  C 8.46908015838047 24.4464255936741  10.170725892098 22.0305679886214  12.5150894538606 20.3462711864407  C 14.3859698681732 18.867175141243  15.5425141242938 19.5731073446328  14.9472339924671 21.8253672316385  C 14.1794139644246 23.8208446394641  12.8298854613765 25.5464027563646  11.06940913371 26.7837005649718  C 13.0466921801054 26.8845066136189  15.0279194018156 26.8845066136189  17.005202448211 26.7837005649718  C 19.0769552065777 26.1838924007259  20.8515890720343 24.8491226128225  21.9885475517891 23.0355367231639  C 21.0360993408663 24.7163276836159  21.3592514124294 25.7752259887006  19.8455390772128 27.2543220338984  C 24.403684086629 28.5653389830509  26.9548846516008 27.0862429378531  30.7646774952919 24.2625141242938  C 30.4734712121482 25.0706999512727  30.0791024081499 25.8388617955823  29.5911252354049 26.5483898305085  C 30.1864053672317 26.2458474576272  31.1558615819209 25.657570621469  31.6490936911488 25.4222598870057  C 31.3769656308852 26.1954237288137  31.0538135593221 26.918163841808  30.7476694915255 27.6577118644069  C 33.7580861581921 27.1534745762713  36.8025188323918 28.3300282485877  39.8129354990584 27.6577118644069  C 43.5376883239172 26.7164689265538  49.4054496233522 22.1447175141244  50.0177377589455 18.1780508474578  C 50.2332560737251 16.594776068211  49.8909423660928 14.9864315397198  49.0482815442562 13.6231073446329  Z " fill-rule="nonzero" fill="#261b18" stroke="none" transform="matrix(1 0 0 1 958 690 )" />
  </g>
</svg>