<svg xmlns="http://www.w3.org/2000/svg" xmlns:xlink="http://www.w3.org/1999/xlink" width="73" height="74" version="1.1"><g><path fill="#261b18" fill-rule="nonzero" stroke="none" d="M 71.9381542066307 40.051660674542 C 73.4328110629352 32.5808722821435 73.8574294880217 7.98111410717346 45.0343307931502 6.70233050847463 C 43.9812770989357 3.95967621126526 43.8114297289011 2.96693631227537 44.287002364998 1.16654361410721 C 42.17310347633 2.08173602858772 40.558353709972 3.85301596976057 39.853986007095 6.02928650915947 C 37.7481672434967 3.00281188993085 34.2905146463841 1.1772088889778 30.5803196032058 1.13289141414147 C 32.1686562499861 2.65588759101535 33.3379372892646 4.55559796394649 33.9772670038978 6.65185220852599 C 31.7013122454342 6.97154810820072 30.104746967109 7.00520030816646 27.8118074716419 7.3080701078583 C 16.0583694652476 8.85607130628317 9.12859676783597 15.9230332990927 6.10531358122012 26.5234762883068 C 4.64462619892253 31.5713062831707 5.30703094205752 38.4868333761343 6.10531358122012 43.6019677709296 C 6.46199305829278 46.1931871682931 9.07764255682559 52.789018361582 6.10531358122012 54.7913242595447 C 5.70007090479229 55.1031015166775 5.20157846971532 55.2723402611035 4.68848176329792 55.2723402611035 C 3.41274583643983 55.2723402611035 2.37855753082734 54.2478112485074 2.37855753082734 52.9839906634319 C 2.37855753082734 52.8736988930933 2.3866063046371 52.7635514246364 2.40264091446586 52.6544095617189 C 0.935910071358257 53.5103164484875 0.0355475231806824 55.0709162687148 0.0355475231806824 56.7572962581699 C 0.0355475231806824 58.0967848821741 0.605036626895383 59.3743282958058 1.60435827530326 60.2766328539634 C 4.03317566679802 62.3967214518062 8.39825307668717 62.6154607515836 11.3705820522927 61.5890686526281 C 10.741323996476 65.6975862012659 11.8266427269882 69.8828987195368 14.3768805019052 73.1822515408321 C 14.7454165372446 71.5625675718874 15.6332365608325 70.1045583890016 16.9076063154206 69.0262048450608 C 16.143293150265 69.6151183444616 19.4043626549293 71.2640761427838 19.7440573949984 71.3313805427153 C 21.0778554064144 71.4213284167146 22.412345350417 71.1662006228059 23.6165774317873 70.5910321434686 C 27.0135248324793 69.4636834446157 29.5612353829982 67.5791602465332 33.1789843647352 66.8219857473035 C 36.0663896553234 66.2162461479199 61.6114341085271 70.9275541431262 60.8471209433714 65.8965502482451 C 61.0509377874129 67.2089860469098 61.1698309464371 68.5550740455402 61.3566630534752 69.8843359441876 C 64.0572362370254 67.7978995463105 66.4520841545132 64.4326795497346 66.0784199404371 60.8823724533471 C 70.0698331362501 60.3102850539291 72.7194521087899 59.1997624550591 71.4795663075373 54.6735415596644 C 70.8341463014058 56.4402820578669 68.660099964963 56.3561515579524 67.182427845662 55.6662814586544 C 62.2908235886655 53.4284101609314 65.7557099373713 45.0153601694915 67.8957867998072 39.3281383752782 C 68.4154423477815 38.0420155577452 68.8411565891329 36.7205695707991 69.1696420750667 35.3740048793015 C 70.1735894744291 36.8846978166817 71.0976711266733 38.4460187322067 71.9381542066307 40.051660674542 Z" transform="matrix(1 0 0 1 -945 -684 ) matrix(1 0 0 1 945 684 )"/></g></svg>