<svg xmlns="http://www.w3.org/2000/svg" xmlns:xlink="http://www.w3.org/1999/xlink" width="24" height="22" version="1.1"><g><path fill="#fff" fill-rule="nonzero" stroke="none" d="M 21.8979015334947 11.9505287556135 L 8.82889426957226 1.79190207156315 C 8.62872170954722 1.63502762512777 8.38066199258726 1.54964338632834 8.12508029013731 1.54964338632834 C 7.77707695797829 1.54964338632834 7.44841492601842 1.70766426583109 7.23385794995966 1.97814356077072 L 1.67695722356737 9.03838910618575 C 1.30392873181555 9.53546600917403 1.40311467789409 10.2359300721604 1.89991928974975 10.6129762422136 L 14.9689265536723 20.771602926264 C 15.458056525402 21.1456631892714 16.1608036817956 21.0627163050092 16.546811945117 20.5853614370564 L 22.1037126715092 13.5251158916414 C 22.2585517214502 13.3288651658452 22.3426309913318 13.0872226814161 22.3426309913318 12.8384684402681 C 22.3426309913318 12.4902510584314 22.1781931470318 12.1619371025195 21.8979015334947 11.9505287556135 Z" transform="matrix(1 0 0 1 -859 -724 ) matrix(1 0 0 1 859 724 )"/></g></svg>