<svg xmlns="http://www.w3.org/2000/svg" xmlns:xlink="http://www.w3.org/1999/xlink" width="59" height="43" version="1.1"><g><path fill="#4f3023" fill-rule="nonzero" stroke="none" d="M 56.8125 10.6863456106041 C 54.2682173087387 6.12212521509717 49.7883391658604 2.90302975380874 44.5853174603175 1.90028791829642 C 32.0039682539682 -0.780204259017804 10.8551587301588 1.51972421410983 3.6875 11.9273142112126 C 1.56427804687104 14.7859858339058 0.768237960427542 18.3905600895396 1.49503968253965 21.85506301608 C 2.42261904761904 25.5448763218891 5.12103174603177 27.9937210270897 9.26984126984132 26.8189374185137 C 11.1453394776571 26.2478189331933 13.1671737318559 26.3534550663376 14.9702380952381 27.1167698826598 C 17.2301587301587 27.8613510430248 19.3382936507937 29.0526808996089 21.7162698412699 29.6152533318847 C 25.4434523809524 30.5087507243228 29.3730158730159 30.0620020281038 33.0833333333334 30.839675684485 C 37.3460709526378 32.4521176635724 41.2013355326027 34.9530057178558 44.3829365079365 38.1696635520789 C 45.0981764091393 39.3785077045765 46.1060748141289 40.3957670326505 47.3174603174603 41.131441945531 C 48.2450396825397 41.5450981457338 50.2857142857143 42.2896793060989 50.9771825396825 41.2472656815878 C 51.2580688646703 40.2010136723191 51.3606435026737 39.1163868050927 51.280753968254 38.037293568014 C 51.3819444444444 36.8294174634218 51.3819444444444 35.6049951108214 51.4325396825397 34.3971190062292 C 51.5674603174603 31.2864243807041 52.2251984126984 28.2750072432276 52.5287698412699 25.1974051137187 C 53.2982815764652 26.3372379316487 53.5545429542614 27.7379886831623 53.2371031746032 29.069227147617 C 55.2551742081671 27.6435304800233 56.821897776755 25.6877365138603 57.7569444444445 23.4269565768507 C 59.2262849626631 19.2314364097723 58.8851227600529 14.6291382805249 56.8125 10.6863456106041 Z" transform="matrix(1 0 0 1 -819 -688 ) matrix(1 0 0 1 819 688 )"/></g></svg>