<svg xmlns="http://www.w3.org/2000/svg" xmlns:xlink="http://www.w3.org/1999/xlink" width="46" height="17" version="1.1"><g><path fill="#bf3c1b" fill-rule="nonzero" stroke="none" d="M 44.7908035153798 6.94226694915259 C 43.6487846132385 3.48964218455746 37.7341494036409 2.89436205273073 34.6489938620353 2.11199387947273 C 29.900369279412 0.899786809180564 25.0104061278262 0.327766551629763 20.1095591825347 0.411193502824895 C 15.7630693311013 0.513241525423766 11.0245431401269 0.411193502824895 7.03599951175284 2.40112994350285 C 4.85423205691566 3.47263418079099 2.16111285485107 4.91831450094165 1.41113029225082 7.35045903954805 C 0.814553253818802 9.3574034839925 0.0986608077003152 11.9936440677966 1.25772476808258 13.677436440678 C 3.72925821301525 17.232109227872 8.17801841389412 14.8679967043315 9.78025388854012 13.9155484934087 C 13.4449414103369 11.8235640301318 30.4218194182883 12.4868761770245 38.313681383832 12.2147481167608 C 41.6033776243287 12.0956920903955 46.3248587570621 11.330331920904 44.7908035153798 6.94226694915259 Z" transform="matrix(1 0 0 1 -824 -700 ) matrix(1 0 0 1 824 700 )"/></g></svg>