<svg xmlns="http://www.w3.org/2000/svg" xmlns:xlink="http://www.w3.org/1999/xlink" width="25" height="25" version="1.1"><g><path fill="#3a3a4a" fill-rule="nonzero" stroke="none" d="M 23.45986346516 19.7373273697427 C 9.51997018204646 13.1508945386064 11.3708411801632 0.328193659761477 10.5371155053359 0.228146578782192 C 6.65195386064028 -0.255414312617669 -0.301318267419977 4.61354362837416 0.432360326428144 5.59733992467045 C 1.16603892027622 6.58113622096678 8.31940521029504 12.100400188324 8.50282485875705 12.5506120527307 C 8.6862445072191 13.0008239171374 3.83396107972378 14.3848085373509 3.96735718769619 15.1685106716886 C 3.96735718769619 15.5020009416196 10.9539783427495 18.9036016949152 15.0892576898933 22.4385985561833 C 15.5894930947897 22.8721359070935 16.0730539861896 23.3223477715003 16.5566148775894 23.7725596359071 L 24.2769146264909 23.7725596359071 C 24.0601459510358 22.5052966101696 23.793353735091 21.1546610169492 23.45986346516 19.7373273697427 Z" transform="matrix(1 0 0 1 -830 -753 ) matrix(1 0 0 1 830 753 )"/></g></svg>