<svg xmlns="http://www.w3.org/2000/svg" xmlns:xlink="http://www.w3.org/1999/xlink" width="49" height="25" version="1.1"><g><path fill="#4f3023" fill-rule="nonzero" stroke="none" d="M 45.8744561335152 10.4872881355932 C 45.0864951753535 8.11577680067316 43.7495505099254 5.95781416816398 41.9695150659133 4.18432203389832 C 41.0674617388278 3.40773329928095 40.0461075478303 2.77736838225141 38.9436083511916 2.31677652228498 C 36.0365761751832 1.16616148999363 32.9087755924925 0.659543690967297 29.7813656730957 0.832744821092296 C 27.3471166958894 0.94946641556812 24.9466767322554 0.515929064657901 22.4955232482629 0.632650659133702 C 19.8173912323584 0.773126846236375 17.1549153136495 1.12440892832268 14.5335005519839 1.68314500941619 C 11.385204337873 2.22948306778117 8.34786784204384 3.2769610138263 5.54030294174949 4.784604519774 C 3.19057649847397 6.16858913998743 2.34535115916624 9.23669962335216 1.33108075199684 11.5878060263654 C 0.991787694399592 12.7571061866503 0.87148874948434 13.9776319251494 0.976086109487681 15.1895009416196 C 0.916732201087788 17.1916841523477 0.967520323279136 19.1955692456135 1.12822667056303 21.1923258003766 C 1.43250779271382 24.7106481481481 6.19957870640949 25.0774874450722 8.14359698681729 22.4762633396108 C 9.79177052701174 20.470798732963 12.288837967427 19.3316178811069 14.9053997012793 19.3914783427495 C 19.4696165335411 19.041313559322 37.3376802065069 17.5239328311362 41.5807114098318 18.7911958568738 C 43.9304378531073 19.4748509102322 47.0408671017598 20.4586472065286 47.3451482239107 16.8903013182674 C 47.3151136908307 14.6779002532811 46.8140548927517 12.4964197718492 45.8744561335152 10.4872881355932 Z" transform="matrix(1 0 0 1 -822 -691 ) matrix(1 0 0 1 822 691 )"/></g></svg>