<svg xmlns="http://www.w3.org/2000/svg" xmlns:xlink="http://www.w3.org/1999/xlink" width="47" height="21" version="1.1"><g><path fill="#b54d26" fill-rule="nonzero" stroke="none" d="M 46.4659629741727 3.00606167608293 C 44.8537757263922 0.992614171374825 41.9820671912833 1.01012241054617 39.8156905770783 1.15018832391715 C 37.5822790603763 1.30910079154451 35.3705817941313 1.70807081434392 33.215799031477 2.34074858757065 C 31.2624272827481 2.70559529775249 29.3533330673305 3.29271396062492 27.5227628127522 4.09157250470813 C 26.3349388542773 5.01268645701631 24.8885258775697 5.49892741514358 23.4083266074792 5.47472339924676 C 20.0496031746032 5.36967396421851 17.1275137880011 3.2161605461394 13.7519967379608 2.88350400188328 C 10.2304068685083 2.29847970585122 6.6342094293364 2.4173141628222 3.15522430723703 3.23366878531079 C 2.24836898036051 3.49629237288141 -0.472197000269043 4.6168196798494 1.39189450497713 5.61478931261774 C 3.25598601022326 6.6127589453861 5.89258390503093 6.22757768361587 7.85743711326339 6.28010240112999 C 8.78108605730425 6.28010240112999 9.68794138418077 6.28010240112999 10.5947967110573 6.38515183615824 C 13.8191712066182 6.64777542372886 18.7732882701103 6.10502000941625 18.5717648641377 10.3245056497176 C 18.4374159268227 13.2133651129944 16.6908797417272 16.2247822504709 14.4573286588646 16.8025541431262 C 12.2869627699717 17.324335316571 10.0679298878316 17.594434685636 7.84064349609894 17.6079331450094 C 6.18218803632797 17.6406057670311 4.53701191119157 17.2939832933386 3.02087536992196 16.5924552730697 C 2.60103494081249 16.3823564030132 1.34151365348399 15.5419609227872 0.888085990045686 16.1547492937853 C 0.182754069141775 17.2052436440678 2.8193519639494 18.9035428436912 3.5246838848534 19.2011829096046 C 5.10219252626817 19.8429599203367 6.77025664195847 20.2096974209495 8.46200733118102 20.2866937382298 C 12.6772052394403 20.6893832391714 16.993164850686 20.4092514124294 19.3106840193704 16.3298316854991 C 20.6541733925208 13.9487111581921 21.3091244619316 11.1824093691149 22.5518521320957 8.76627236346524 C 24.5838798089857 4.79190207156316 25.6418776903417 10.1319150188325 26.3304159940812 12.4605108286253 C 26.6850693515533 13.7769339106133 27.2530426888873 15.0204329832019 28.0097777105192 16.137241054614 C 29.5989484035496 18.0365115777955 31.8900453115424 19.1384479459688 34.3073841471617 19.1661664312618 C 35.690461940701 19.2823721106827 37.0806948483498 19.0667601141035 38.3714395009416 18.5358698210923 C 39.1439458905031 18.2032132768362 39.4462309994619 17.2402601224106 38.5057884382567 16.8900953389831 C 37.825986259066 16.7935650629043 37.1367693233929 16.7935650629043 36.4569671442023 16.8900953389831 C 35.5867663000922 16.8846502705954 34.7176143465006 16.8261898097498 33.8539564837234 16.7150129472694 C 32.7246745008205 16.5021687556866 31.6531883113168 16.0362203865567 30.7135500739844 15.3493702919021 C 30.0490779232129 14.8861896603368 29.4784636572112 14.2912939362074 29.0341883575464 13.5985463747646 C 28.1994241073327 12.0917161713859 28.0516921088787 10.2755817542215 28.6311415456012 8.6437146892656 C 29.3700607008339 6.38515183615824 31.7043734866828 6.17505296610177 33.6692266949152 5.98246233521663 C 36.003539480764 5.73734698681738 38.3882331181059 5.73734698681738 40.7225459039547 5.47472339924678 C 41.7629209056188 5.41345419958666 42.8057836948654 5.41345419958666 43.8461586965294 5.47472339924676 C 45.1896480696798 5.47472339924676 48.0781502219531 5.019509180791 46.4659629741727 3.00606167608293 Z" transform="matrix(1 0 0 1 -828 -718 ) matrix(1 0 0 1 828 718 )"/></g></svg>