<svg xmlns="http://www.w3.org/2000/svg" xmlns:xlink="http://www.w3.org/1999/xlink" width="30" height="18" version="1.1"><g><path fill="#3a3a4a" fill-rule="nonzero" stroke="none" d="M 28.7084118016322 6.29872881355938 C 29.6255100439422 -1.98516949152537 10.0329566854991 0.683359013867522 6.18114406779659 1.07627118644071 C 3.44652385436286 1.37095531587061 1.04539391085998 0.781587057010796 0.428436911487751 1.37095531587061 C -0.188520087884475 1.96032357473042 1.29551161330824 4.44876733436059 1.29551161330824 4.44876733436059 C 1.98918980848963 4.8249462075435 2.7708728537435 5.01681386410582 3.56324544883866 5.00539291217261 C 3.8967357187696 6.88809707241914 4.14685342121781 11.7503852080124 7.86526993094791 14.5662557781202 C 10.9834039548023 16.9073574730355 20.5879237288136 16.972842835131 23.4392655367232 15.2865947611711 C 26.5548176109501 13.2869014217954 28.512142697177 9.94818683570327 28.7084118016322 6.29872881355938 Z M 25.9404425612053 4.43239599383669 C 27.5245213433773 5.43104776579357 26.0404896421845 11.1119029275809 23.4059165097301 13.060092449923 C 19.9542922159448 15.6303929121726 10.5998901443817 15.2211093990755 7.9653170119272 12.4379815100154 C 5.93102636534842 10.3097072419106 5.26404582548651 5.59476117103237 6.29786566227248 4.84167950693376 C 9.63276836158196 2.51694915254238 22.7389359698682 2.36960708782744 25.9404425612053 4.43239599383669 Z" transform="matrix(1 0 0 1 -821 -721 ) matrix(1 0 0 1 821 721 )"/></g></svg>