<svg xmlns="http://www.w3.org/2000/svg" xmlns:xlink="http://www.w3.org/1999/xlink" width="21" height="12" version="1.1"><g><path fill="#f5f5f5" fill-rule="nonzero" stroke="none" d="M 1.10460202774349 5.38155196331364 C 1.10460202774349 6.67468371553355 1.64464649344811 7.91152264234253 2.59925258945386 8.80468119451179 C 5.06791431261769 10.7427360774819 12.8415725047081 10.8627925746571 15.5203330979284 8.97619047619063 C 17.5162723634651 7.56981436642471 21.385593220339 0.19491525423736 18.7943738229755 0.19491525423736 C 15.6428907721281 0.19491525423736 5.45309557438793 -0.662631154156445 2.65177730696798 1.91000807102526 C 1.66528475035356 2.805805668654 1.10460202774349 4.06386266279391 1.10460202774349 5.38155196331364 Z M 3.66725517890772 2.87046004842624 L 3.61473046139359 2.95621468926561 C 7.51906779661018 0.160613397901573 14.7849870527307 1.42978208232453 17.3762064500942 1.54983857949969 C 19.2495880414312 1.65274414850696 16.7284016007533 7.43260694108156 14.2597398775894 8.61602098466515 C 12.1237346986817 9.6450766747378 5.89080155367229 9.69652945924138 3.75479637476457 8.37590799031474 C 2.78266568928575 7.77195150459186 2.19361987033947 6.72270700983118 2.19361987033947 5.59504477062878 C 2.19361987033947 4.50375817891865 2.7455222091756 3.48335328511774 3.66725517890772 2.87046004842624 Z" transform="matrix(1 0 0 1 -504 -724 ) matrix(1 0 0 1 504 724 )"/></g></svg>