<svg xmlns="http://www.w3.org/2000/svg" xmlns:xlink="http://www.w3.org/1999/xlink" width="18" height="17" version="1.1"><g><path fill="#f2b88e" fill-rule="nonzero" stroke="none" d="M 15.5853235747303 2.56040489642193 C 13.3260785824345 0.655508474576379 8.69298921417564 0.247316384180849 5.89348998459166 0.893620527307013 C 3.02318486368314 1.69784054804365 0.983823014972726 4.33929970446864 0.851117103235738 7.42469397363473 C 0.526160678714146 9.20638354486192 1.0577121855725 11.0407793357396 2.27542372881355 12.3400070621469 C 3.37868491589647 13.4041947500848 4.69959888431682 14.1950018132879 6.1390600924499 14.653095574388 C 7.20319722650229 14.9932556497176 9.08590138674883 16.3538959510359 9.41332819722649 16.3538959510359 C 9.74075500770414 16.3538959510359 10.1664098613251 15.792631826742 11.1814329738058 15.2483757062147 C 12.9449773853216 14.5396451271034 14.474138174576 13.3171691875898 15.5853235747303 11.7277189265537 C 16.7804314329738 9.29557438794734 17.8445685670262 4.46530131826748 15.5853235747303 2.56040489642193 Z" transform="matrix(1 0 0 1 -221 -746 ) matrix(1 0 0 1 221 746 )"/></g></svg>