<svg xmlns="http://www.w3.org/2000/svg" xmlns:xlink="http://www.w3.org/1999/xlink" width="47" height="25" version="1.1"><g><path fill="#b8b1ad" fill-rule="nonzero" stroke="none" d="M 42.0446975047081 7.68596986817324 C 40.7278354661714 6.3392705524717 39.1957408710734 5.21806867646883 37.5104208703255 4.36774168236035 C 28.6937718590261 -0.234424042686735 15.1581164245359 1.03283898305087 7.75213125504438 6.4353813559322 C 2.71404610573042 10.1704723791588 0.0774482109227692 14.6392419962335 0.379733319881609 20.9088590709353 C 0.53087587436104 24.3271343377276 5.16591421172988 24.8607187696171 7.09718018563355 22.3928907721281 C 8.78381908782422 20.4904175093325 11.2683672826099 19.4789773222354 13.8146270513855 19.6582705586943 C 18.2313483656174 19.4915254237288 35.5623612792575 18.674474262398 39.6264166330374 20.0584588826114 C 41.8599677158999 20.8254865034526 44.8156443368308 21.9927024482109 45.269072000269 18.3910075329567 C 45.8424442452649 14.5247346665523 44.6617710410551 10.6048577607315 42.0446975047081 7.68596986817324 Z" transform="matrix(1 0 0 1 -207 -690 ) matrix(1 0 0 1 207 690 )"/></g></svg>