<svg xmlns="http://www.w3.org/2000/svg" xmlns:xlink="http://www.w3.org/1999/xlink" width="47" height="40" version="1.1"><g><path fill="#302f2d" fill-rule="nonzero" stroke="none" d="M 25.5205685028248 9.85346045197739 C 29.2487515133172 9.43659761456374 31.0456685499058 8.43612680477089 34.2196621939736 10.6538370998117 C 35.3952153954802 11.4875627746391 38.4012728679042 14.6890693659762 40.9371090597256 12.3212884494665 C 42.1294558783966 11.1874215317012 44.0439282351359 6.56858129315765 43.4057707828894 0.482383866917833 C 45.5553537799301 2.98356089139993 44.7492601560398 7.5690521029505 44.094309086629 10.8205822347772 C 43.7986264674282 12.4709226247847 43.6804074018505 14.1477888031909 43.741643126177 15.8229362837414 C 43.8927856806565 17.8405524168237 45.421004842615 19.9248666038921 45.7400835687382 22.0258553044571 C 46.1095431463546 24.4770087884495 46.0927495291902 27.9453075957314 43.2714218455744 28.695660703076 C 43.5737069545332 31.8137947269304 42.7340260963142 33.5812931575644 39.4256835149314 33.2478028876334 C 40.4668877791229 37.1663135593221 36.6883239171375 39.7175141242938 33.531123890234 37.1663135593221 C 33.8166153820285 41.4016399874451 25.1343153080441 39.5674435028249 23.4549535916061 37.5998509102323 C 23.0351131624966 39.6007925298179 19.9618812214151 39.8175612052731 18.4168684422921 39.4673964218456 C 16.5306583995513 38.9224696664097 14.9974588194169 37.5536041067038 14.2520513855259 35.7489799121155 C 12.6592683400551 36.9944582181167 10.4615480980481 37.1465463156724 8.71015772128059 36.1324937225361 C 6.8628598331988 34.9652777777778 7.0307960048426 32.6641949152543 7.18193855932203 30.6799278091651 C 3.58810448614474 31.6803986189579 3.21864490852837 27.6451663527935 3.90718321226795 25.1773383553045 C 1.45531510626848 24.6604284369115 1.20341084880279 20.1749843063402 1.22020446596716 18.1907172002511 C 1.22020446596716 15.7062146892655 -0.862204062415945 2.90018832391712 1.70721936373418 2.09981167608284 C 3.97435768092546 1.39948210922784 3.65527895480224 4.60098870056494 3.87359597793918 6.03499686126805 C 5.30105343691147 15.0559086629002 11.8841513653484 16.5232658505964 14.5543364944848 13.0382925298179 C 17.9970280131827 8.51949937225356 20.4824833535109 9.92015850596355 25.5205685028248 9.85346045197739 Z" transform="matrix(1 0 0 1 -209 -726 ) matrix(1 0 0 1 209 726 )"/></g></svg>