<svg xmlns="http://www.w3.org/2000/svg" xmlns:xlink="http://www.w3.org/1999/xlink" width="34" height="17" version="1.1"><g><path fill="#595655" fill-rule="nonzero" stroke="none" d="M 33.6740466101695 5.97821327683624 C 33.3168785310734 6.70955743879478 31.0548140301318 7.47491760828631 30.7656779661017 6.53947740112998 C 31.0718220338983 7.4919256120528 31.9052142184557 9.34579802259892 31.343950094162 10.2642302259888 C 30.2214218455744 12.050070621469 26.5987170433145 10.8595103578155 25.2550847457627 10.1621822033899 C 25.7483168549906 11.1316384180791 27.1769891713748 12.8664548022599 26.1735169491525 13.9209510357816 C 24.4727165725047 15.6217514124294 22.2106520715631 12.2201506591337 20.8840277777778 12.7473987758946 C 20.0336275894539 13.1045668549906 20.7819797551789 15.2815913370999 19.4553554613936 15.8598634651601 C 17.584475047081 16.6932556497176 15.9006826741996 13.9039430320152 14.455002354049 13.2576388888889 C 13.5628670976752 14.5391070096265 12.0178608579666 15.199366086425 10.475129472693 14.9584392655368 C 8.14503295668551 14.6012711864408 8.36613700564972 13.2576388888889 7.83888888888889 11.3867584745763 C 5.96800847457627 13.4107109227873 2.82152777777778 14.3121351224106 2.51538370998116 10.6554143126178 C 0.0832391713747647 13.8189030131828 -0.154872881355929 7.06672551789083 0.950647363465153 5.31490112994358 C 1.79658413177339 4.04051926768103 2.82195736309011 2.89485085280205 3.99508003766478 1.91330037664791 C 5.79792843691148 0.399588041431392 6.71636064030132 0.977860169491578 8.91039312617702 1.50510828625243 C 12.7737651368642 2.62100679868396 16.8154596753809 2.98475930715051 20.8159957627119 2.57661252354057 C 25.1360287193974 1.84526836158198 28.5886534839924 -1.35223634651595 31.9732462335217 2.57661252354057 C 32.5515183615819 3.25693267419972 34.0142066854991 4.82166902071567 33.6740466101695 5.97821327683624 Z" transform="matrix(1 0 0 1 -218 -745 ) matrix(1 0 0 1 218 745 )"/></g></svg>