<?xml version="1.0" encoding="utf-8"?>
<svg version="1.1" xmlns:xlink="http://www.w3.org/1999/xlink" width="47px" height="25px" xmlns="http://www.w3.org/2000/svg">
  <g transform="matrix(1 0 0 1 -342 -705 )">
    <path d="M 45.4713856941081 6.61880100439433  C 46.9492240045736 3.83415725047087  39.9462856470272 2.80033741368494  38.4180664850686 2.50019617074704  C 31.7131943340772 1.12092276086263  24.8256313471733 0.844895548259312  18.0306152475114 1.68314500941624  C 12.6902449892386 2.38347457627119  7.16514494215765 4.1676475204018  4.37740449287057 9.11997802887636  C 3.08333771746419 11.6516413731851  2.22077536739908 14.3787421962726  1.82477468388484 17.1904425612053  C 1.1866172316384 20.6420668549906  1.82477468388484 24.4938794726931  2.56369383911754 24.794020715631  C 3.1850576741996 20.5753688010044  5.73768748318535 20.8088119899561  6.59416195856871 16.7068816698054  C 7.33308111380143 13.1385357815444  11.3131683817595 10.754080351538  11.5314854048964 10.5539861895795  C 10.7103487784046 11.9535546943988  10.2596958410344 13.5368634323499  10.2215832660748 15.1561519146265  C 11.5986598735539 13.1218612680478  16.3176662967447 9.9370291902072  26.6457408528383 11.0375470809793  C 30.664067272246 11.5316930985992  34.7255589562803 11.576438582965  38.7539388283562 11.1709431889517  C 41.4938091424611 10.555076263667  43.8952669859633 8.92770536333629  45.4713856941081 6.61880100439433  Z " fill-rule="nonzero" fill="#b54d26" stroke="none" transform="matrix(1 0 0 1 342 705 )" />
  </g>
</svg>