<?xml version="1.0" encoding="utf-8"?>
<svg version="1.1" xmlns:xlink="http://www.w3.org/1999/xlink" width="42px" height="18px" xmlns="http://www.w3.org/2000/svg">
  <g transform="matrix(1 0 0 1 -209 -689 )">
    <path d="M 34.7025988700565 11.9493451463791  C 36.5346610169492 12.244029275809  40.669406779661 15.8620955315871  41.9468079096045 17.9576271186441  C 42.0716518276746 16.1908595800641  41.9013601004662 14.4160659296135  41.4425706214689 12.7024268104777  C 40.7474876930131 10.6584266289734  39.5197105853379 8.82510961111125  37.8792937853107 7.38174114021573  C 34.4709406442002 4.14512751306246  30.0775110293557 2.0715267665809  25.3574011299435 1.471687211094  C 22.2262363300695 1.16309292487763  19.0633368281019 1.45226044463179  16.0458192090395 2.32299691833591  C 17.1933588861451 2.69705469104596  18.3160320224467 3.13992737306101  19.4074011299435 3.64907550077043  C 16.1594176410018 4.33393884255393  12.9895016934613 5.3320554415696  9.94454802259885 6.62865947611714  C 9.02011299435027 7.05431432973811  1.30528248587569 12.1785439137134  1.30528248587569 12.1785439137134  C 3.52611532132138 13.0748110597  6.0064938162929 13.1504915176126  8.28056497175139 12.3913713405239  C 11.7426350862544 11.5159214232374  15.3640448883122 11.4207390382112  18.8695480225988 12.1130585516179  C 22.2311299435028 12.8333975346687  25.1388983050847 14.4541602465332  28.3996327683616 15.1908705701079  C 28.5004802259887 13.7501926040062  27.088615819209 12.4895993836672  26.4667231638418 11.5073189522342  C 28.3324011299435 11.5073189522342  35.5093785310734 15.9275808936826  36.9884745762712 17.0899460708783  C 36.6355084745763 15.8620955315871  34.8874858757062 13.2590523882897  34.7025988700565 11.9493451463791  Z " fill-rule="nonzero" fill="#dfdddc" stroke="none" transform="matrix(1 0 0 1 209 689 )" />
  </g>
</svg>