<?xml version="1.0" encoding="utf-8"?>
<svg version="1.1" xmlns:xlink="http://www.w3.org/1999/xlink" width="140px" height="110px" xmlns="http://www.w3.org/2000/svg">
  <g transform="matrix(1 0 0 1 -20 -20 )">
    <path d="M 20 20  L 160 20  L 160 130  L 20 130  L 20 20  " fill-rule="nonzero" fill="#cccccc" stroke="none" />
    <path d="M 28 28  L 152 28  L 152 122  L 28 122  L 28 28  " fill-rule="nonzero" fill="#ffffff" stroke="none" />
    <path d="M 101.05 53  C 96.43 53  92.8 49.37  92.8 44.75  C 92.8 40.13  96.43 36.5  101.05 36.5  C 105.67 36.5  109.3 40.13  109.3 44.75  C 109.3 49.37  105.67 53  101.05 53  " fill-rule="nonzero" fill="#cccccc" stroke="none" />
    <path d="M 31 119  L 31 70.6  L 60.5 48.6  L 101.8 77.5142857142857  L 125.4 61.8  L 149 77.5142857142857  L 149 119  L 31 119  " fill-rule="nonzero" fill="#169bd5" stroke="none" />
  </g>
</svg>