<?xml version="1.0" encoding="utf-8"?>
<svg version="1.1" xmlns:xlink="http://www.w3.org/1999/xlink" width="14px" height="11px" xmlns="http://www.w3.org/2000/svg">
  <g transform="matrix(1 0 0 1 -8 -10 )">
    <path d="M 13.7470967741935 1.51851851851852  C 13.9156989247312 1.69135802469136  14 1.90123456790123  14 2.14814814814815  C 14 2.39506172839506  13.9156989247312 2.60493827160494  13.7470967741935 2.77777777777778  L 7.20774193548387 9.48148148148148  L 5.97935483870968 10.7407407407407  C 5.81075268817204 10.9135802469136  5.60602150537635 11  5.36516129032258 11  C 5.12430107526882 11  4.91956989247312 10.9135802469136  4.75096774193548 10.7407407407407  L 3.52258064516129 9.48148148148148  L 0.252903225806452 6.12962962962963  C 0.0843010752688169 5.95679012345679  0 5.74691358024691  0 5.5  C 0 5.25308641975309  0.0843010752688169 5.04320987654321  0.252903225806452 4.87037037037037  L 1.48129032258064 3.61111111111111  C 1.64989247311828 3.43827160493827  1.85462365591398 3.35185185185185  2.09548387096774 3.35185185185185  C 2.33634408602151 3.35185185185185  2.5410752688172 3.43827160493827  2.70967741935484 3.61111111111111  L 5.36516129032258 6.34259259259259  L 11.2903225806452 0.25925925925926  C 11.4589247311828 0.0864197530864192  11.6636559139785 0  11.9045161290323 0  C 12.145376344086 0  12.3501075268817 0.0864197530864192  12.5187096774194 0.25925925925926  L 13.7470967741935 1.51851851851852  Z " fill-rule="nonzero" fill="#999999" stroke="none" transform="matrix(1 0 0 1 8 10 )" />
  </g>
</svg>