<svg xmlns="http://www.w3.org/2000/svg" xmlns:xlink="http://www.w3.org/1999/xlink" width="7" height="13" version="1.1"><g><path fill="#999" fill-rule="nonzero" stroke="none" d="M 6.87972508591065 6.20040080160321 C 6.95990836197022 6.28724114896459 7 6.38710754843019 7 6.5 C 7 6.61289245156981 6.95990836197022 6.7127588510354 6.87972508591065 6.79959919839679 L 1.27491408934708 12.8697394789579 C 1.19473081328751 12.9565798263193 1.10252004581901 13 0.998281786941581 13 C 0.894043528064145 13 0.801832760595648 12.9565798263193 0.721649484536083 12.8697394789579 L 0.120274914089347 12.2184368737475 C 0.0400916380297822 12.1315965263861 0 12.0317301269205 0 11.9188376753507 C 0 11.8059452237809 0.0400916380297822 11.7060788243153 0.120274914089347 11.6192384769539 L 4.84707903780069 6.5 L 0.120274914089347 1.3807615230461 C 0.0400916380297822 1.2939211756847 0 1.19405477621911 0 1.0811623246493 C 0 0.968269873079492 0.0400916380297822 0.868403473613892 0.120274914089347 0.781563126252503 L 0.721649484536083 0.130260521042086 C 0.801832760595648 0.0434201736806914 0.894043528064145 0 0.998281786941581 0 C 1.10252004581901 0 1.19473081328751 0.0434201736806914 1.27491408934708 0.130260521042086 L 6.87972508591065 6.20040080160321 Z" transform="matrix(1 0 0 1 -12 -9 ) matrix(1 0 0 1 12 9 )"/></g></svg>