<svg xmlns="http://www.w3.org/2000/svg" xmlns:xlink="http://www.w3.org/1999/xlink" width="230" height="151" version="1.1"><g><path fill="#333" fill-rule="nonzero" stroke="none" d="M 0.5 149.7 C 0.5 149.7 0.5 8.49999999999995 0.5 8.49999999999995 C 0.5 8.49999999999995 36.162591906796 8.49999999999995 36.162591906796 8.49999999999995 C 36.162591906796 8.49999999999995 47.012427690175 0.609210339360684 47.012427690175 0.609210339360684 C 47.012427690175 0.609210339360684 58.848612181134 8.49999999999995 58.848612181134 8.49999999999995 C 58.848612181134 8.49999999999995 229.5 8.49999999999995 229.5 8.49999999999995 C 229.5 8.49999999999995 229.5 149.7 229.5 149.7 C 229.5 149.7 0.5 149.7 0.5 149.7 Z"/><path fill="#d0d0d0" fill-rule="nonzero" stroke="none" d="M 0 150.2 C 0 150.2 0 7.99999999999995 0 7.99999999999995 C 0 7.99999999999995 36 7.99999999999995 36 7.99999999999995 C 36 7.99999999999995 47 0 47 0 C 47 0 59 7.99999999999995 59 7.99999999999995 C 59 7.99999999999995 230 7.99999999999995 230 7.99999999999995 C 230 7.99999999999995 230 150.2 230 150.2 C 230 150.2 0 150.2 0 150.2 Z M 1 149.2 C 1 149.2 229 149.2 229 149.2 C 229 149.2 229 8.99999999999995 229 8.99999999999995 C 229 8.99999999999995 58.6972243622681 8.99999999999995 58.6972243622681 8.99999999999995 C 58.6972243622681 8.99999999999995 47.0248553803501 1.21842067872136 47.0248553803501 1.21842067872136 C 47.0248553803501 1.21842067872136 36.3251838135919 8.99999999999995 36.3251838135919 8.99999999999995 C 36.3251838135919 8.99999999999995 1 8.99999999999995 1 8.99999999999995 C 1 8.99999999999995 1 149.2 1 149.2 Z"/></g></svg>