<svg xmlns="http://www.w3.org/2000/svg" xmlns:xlink="http://www.w3.org/1999/xlink" width="243" height="143" version="1.1"><g><path fill="#f8f8f8" fill-rule="nonzero" stroke="none" d="M 0.5 141.7 C 0.5 141.7 0.5 0.49999999999995 0.5 0.49999999999995 C 0.5 0.49999999999995 229.5 0.49999999999995 229.5 0.49999999999995 C 229.5 0.49999999999995 229.5 15.4329964514614 229.5 15.4329964514614 C 229.5 15.4329964514614 242.179323326934 25.9681783545891 242.179323326934 25.9681783545891 C 242.179323326934 25.9681783545891 229.5 34.9396477236679 229.5 34.9396477236679 C 229.5 34.9396477236679 229.5 141.7 229.5 141.7 C 229.5 141.7 0.5 141.7 0.5 141.7 Z"/><path fill="#e4e4e4" fill-rule="nonzero" stroke="none" d="M 0 142.2 C 0 142.2 0 0 0 0 C 0 0 230 0 230 0 C 230 0 230 15.1983695652174 230 15.1983695652174 C 230 15.1983695652174 243 26 243 26 C 243 26 230 35.1983695652174 230 35.1983695652174 C 230 35.1983695652174 230 142.2 230 142.2 C 230 142.2 0 142.2 0 142.2 Z M 1 141.2 C 1 141.2 229 141.2 229 141.2 C 229 141.2 229 34.6809258821181 229 34.6809258821181 C 229 34.6809258821181 241.358646653869 25.9363567091782 241.358646653869 25.9363567091782 C 241.358646653869 25.9363567091782 229 15.6676233377052 229 15.6676233377052 C 229 15.6676233377052 229 0.99999999999995 229 0.99999999999995 C 229 0.99999999999995 1 0.99999999999995 1 0.99999999999995 C 1 0.99999999999995 1 141.2 1 141.2 Z"/></g></svg>