<svg xmlns="http://www.w3.org/2000/svg" xmlns:xlink="http://www.w3.org/1999/xlink" width="230" height="151" version="1.1"><g><path fill="#333" fill-rule="nonzero" stroke="none" d="M 0.5 139.703481346664 C 0.5 139.703481346664 0.5 0.5 0.5 0.5 C 0.5 0.5 229.5 0.5 229.5 0.5 C 229.5 0.5 229.5 139.703481346664 229.5 139.703481346664 C 229.5 139.703481346664 38.2739522496024 139.703481346664 38.2739522496024 139.703481346664 C 38.2739522496024 139.703481346664 28.9816432341559 150.263964253804 28.9816432341559 150.263964253804 C 28.9816432341559 150.263964253804 18.7111964276094 139.703481346664 18.7111964276094 139.703481346664 C 18.7111964276094 139.703481346664 0.5 139.703481346664 0.5 139.703481346664 Z"/><path fill="#e4e4e4" fill-rule="nonzero" stroke="none" d="M 0 140.203481346664 C 0 140.203481346664 0 0 0 0 C 0 0 230 0 230 0 C 230 0 230 140.203481346664 230 140.203481346664 C 230 140.203481346664 38.5 140.203481346664 38.5 140.203481346664 C 38.5 140.203481346664 29 151 29 151 C 29 151 18.5 140.203481346664 18.5 140.203481346664 C 18.5 140.203481346664 0 140.203481346664 0 140.203481346664 Z M 1 139.203481346664 C 1 139.203481346664 18.9223928552195 139.203481346664 18.9223928552195 139.203481346664 C 18.9223928552195 139.203481346664 28.9632864683117 149.527928507608 28.9632864683117 149.527928507608 C 28.9632864683117 149.527928507608 38.0479044992049 139.203481346664 38.0479044992049 139.203481346664 C 38.0479044992049 139.203481346664 229 139.203481346664 229 139.203481346664 C 229 139.203481346664 229 1 229 1 C 229 1 1 1 1 1 C 1 1 1 139.203481346664 1 139.203481346664 Z"/></g></svg>