<svg xmlns="http://www.w3.org/2000/svg" xmlns:xlink="http://www.w3.org/1999/xlink" width="248" height="143" version="1.1"><g><path fill="#f8f8f8" fill-rule="nonzero" stroke="none" d="M 18.5 141.7 C 18.5 141.7 18.5 41.8576617966295 18.5 41.8576617966295 C 18.5 41.8576617966295 1.03263835030045 33.9200524081958 1.03263835030045 33.9200524081958 C 1.03263835030045 33.9200524081958 18.5 22.4494821858521 18.5 22.4494821858521 C 18.5 22.4494821858521 18.5 0.499999999999955 18.5 0.499999999999955 C 18.5 0.499999999999955 247.5 0.499999999999955 247.5 0.499999999999955 C 247.5 0.499999999999955 247.5 141.7 247.5 141.7 C 247.5 141.7 18.5 141.7 18.5 141.7 Z"/><path fill="#e4e4e4" fill-rule="nonzero" stroke="none" d="M 18 142.2 C 18 142.2 18 42.1796536796537 18 42.1796536796537 C 18 42.1796536796537 0 34 0 34 C 0 34 18 22.1796536796537 18 22.1796536796537 C 18 22.1796536796537 18 0 18 0 C 18 0 248 0 248 0 C 248 0 248 142.2 248 142.2 C 248 142.2 18 142.2 18 142.2 Z M 19 141.2 C 19 141.2 247 141.2 247 141.2 C 247 141.2 247 0.999999999999955 247 0.999999999999955 C 247 0.999999999999955 19 0.999999999999955 19 0.999999999999955 C 19 0.999999999999955 19 22.7193106920507 19 22.7193106920507 C 19 22.7193106920507 2.06527670060089 33.8401048163916 2.06527670060089 33.8401048163916 C 2.06527670060089 33.8401048163916 19 41.5356699136053 19 41.5356699136053 C 19 41.5356699136053 19 141.2 19 141.2 Z"/></g></svg>