<?xml version="1.0" encoding="utf-8"?>
<svg version="1.1" xmlns:xlink="http://www.w3.org/1999/xlink" width="14px" height="14px" xmlns="http://www.w3.org/2000/svg">
  <g transform="matrix(1 0 0 1 -121 -415 )">
    <path d="M 128 416  C 131.36 416  134 418.64  134 422  C 134 425.36  131.36 428  128 428  C 124.64 428  122 425.36  122 422  C 122 418.64  124.64 416  128 416  Z " fill-rule="nonzero" fill="#ffffff" stroke="none" />
    <path d="M 128 416  C 131.36 416  134 418.64  134 422  C 134 425.36  131.36 428  128 428  C 124.64 428  122 425.36  122 422  C 122 418.64  124.64 416  128 416  Z " stroke-width="2" stroke="#0079fe" fill="none" />
  </g>
</svg>