<?xml version="1.0" encoding="utf-8"?>
<svg version="1.1" xmlns:xlink="http://www.w3.org/1999/xlink" width="14px" height="14px" xmlns="http://www.w3.org/2000/svg">
  <g transform="matrix(1 0 0 1 -505 -1512 )">
    <path d="M 512 1515.5  C 513.96 1515.5  515.5 1517.04  515.5 1519  C 515.5 1520.96  513.96 1522.5  512 1522.5  C 510.04 1522.5  508.5 1520.96  508.5 1519  C 508.5 1517.04  510.04 1515.5  512 1515.5  Z " fill-rule="nonzero" fill="#0079fe" stroke="none" />
    <path d="M 512 1514  C 514.8 1514  517 1516.2  517 1519  C 517 1521.8  514.8 1524  512 1524  C 509.2 1524  507 1521.8  507 1519  C 507 1516.2  509.2 1514  512 1514  Z " stroke-width="4" stroke="#0079fe" fill="none" stroke-opacity="0.498039215686275" />
  </g>
</svg>