<svg xmlns="http://www.w3.org/2000/svg" xmlns:xlink="http://www.w3.org/1999/xlink" width="14" height="14" version="1.1"><g><path fill="#fff" fill-rule="nonzero" stroke="none" d="M 128 416 C 131.36 416 134 418.64 134 422 C 134 425.36 131.36 428 128 428 C 124.64 428 122 425.36 122 422 C 122 418.64 124.64 416 128 416 Z" transform="matrix(1 0 0 1 -121 -415 )"/><path fill="none" stroke="#0079fe" stroke-width="2" d="M 128 416 C 131.36 416 134 418.64 134 422 C 134 425.36 131.36 428 128 428 C 124.64 428 122 425.36 122 422 C 122 418.64 124.64 416 128 416 Z" transform="matrix(1 0 0 1 -121 -415 )"/></g></svg>