<svg xmlns="http://www.w3.org/2000/svg" xmlns:xlink="http://www.w3.org/1999/xlink" width="30" height="30" version="1.1"><g><path fill="#fff" fill-rule="nonzero" stroke="none" d="M 965 656 C 972.84 656 979 662.16 979 670 C 979 677.84 972.84 684 965 684 C 957.16 684 951 677.84 951 670 C 951 662.16 957.16 656 965 656 Z" transform="matrix(1 0 0 1 -950 -655 )"/><path fill="none" stroke="#ff5918" stroke-width="2" d="M 965 656 C 972.84 656 979 662.16 979 670 C 979 677.84 972.84 684 965 684 C 957.16 684 951 677.84 951 670 C 951 662.16 957.16 656 965 656 Z" transform="matrix(1 0 0 1 -950 -655 )"/></g></svg>