<svg xmlns="http://www.w3.org/2000/svg" xmlns:xlink="http://www.w3.org/1999/xlink" width="10" height="10" version="1.1"><g><path fill="#0079fe" fill-rule="nonzero" stroke="none" d="M 116 1515 C 118.24 1515 120 1516.76 120 1519 C 120 1521.24 118.24 1523 116 1523 C 113.76 1523 112 1521.24 112 1519 C 112 1516.76 113.76 1515 116 1515 Z" transform="matrix(1 0 0 1 -111 -1514 )"/><path fill="none" stroke="#0079fe" stroke-width="2" d="M 116 1515 C 118.24 1515 120 1516.76 120 1519 C 120 1521.24 118.24 1523 116 1523 C 113.76 1523 112 1521.24 112 1519 C 112 1516.76 113.76 1515 116 1515 Z" transform="matrix(1 0 0 1 -111 -1514 )"/></g></svg>