<svg xmlns="http://www.w3.org/2000/svg" xmlns:xlink="http://www.w3.org/1999/xlink" width="10" height="10" version="1.1"><g><path fill="#fff" fill-rule="nonzero" stroke="none" d="M 116 1605 C 118.24 1605 120 1606.76 120 1609 C 120 1611.24 118.24 1613 116 1613 C 113.76 1613 112 1611.24 112 1609 C 112 1606.76 113.76 1605 116 1605 Z" transform="matrix(1 0 0 1 -111 -1604 )"/><path fill="none" stroke="#0079fe" stroke-width="2" d="M 116 1605 C 118.24 1605 120 1606.76 120 1609 C 120 1611.24 118.24 1613 116 1613 C 113.76 1613 112 1611.24 112 1609 C 112 1606.76 113.76 1605 116 1605 Z" transform="matrix(1 0 0 1 -111 -1604 )"/></g></svg>