<svg xmlns="http://www.w3.org/2000/svg" xmlns:xlink="http://www.w3.org/1999/xlink" width="10" height="10" version="1.1"><g><path fill="#ccc" fill-rule="nonzero" stroke="none" d="M 512 1605 C 514.24 1605 516 1606.76 516 1609 C 516 1611.24 514.24 1613 512 1613 C 509.76 1613 508 1611.24 508 1609 C 508 1606.76 509.76 1605 512 1605 Z" transform="matrix(1 0 0 1 -507 -1604 )"/><path fill="none" stroke="#ccc" stroke-width="2" d="M 512 1605 C 514.24 1605 516 1606.76 516 1609 C 516 1611.24 514.24 1613 512 1613 C 509.76 1613 508 1611.24 508 1609 C 508 1606.76 509.76 1605 512 1605 Z" transform="matrix(1 0 0 1 -507 -1604 )"/></g></svg>