<?xml version="1.0" encoding="utf-8"?>
<svg version="1.1" xmlns:xlink="http://www.w3.org/1999/xlink" width="60px" height="40px" xmlns="http://www.w3.org/2000/svg">
  <g transform="matrix(1 0 0 1 -676 -844 )">
    <path d="M 676.5 869  C 676.5 869  676.5 847  676.5 847  C 676.5 845.619288125423  677.619288125423 844.5  679 844.5  C 679 844.5  733 844.5  733 844.5  C 734.380711874577 844.5  735.5 845.619288125423  735.5 847  C 735.5 847  735.5 869  735.5 869  C 735.5 870.380711874577  734.380711874577 871.5  733 871.5  C 733 871.5  717.799112756926 871.5  717.799112756926 871.5  C 717.799112756926 871.5  705.986450620593 882.81923431109  705.986450620593 882.81923431109  C 705.986450620593 882.81923431109  693.189399972898 871.5  693.189399972898 871.5  C 693.189399972898 871.5  679 871.5  679 871.5  C 677.619288125423 871.5  676.5 870.380711874577  676.5 869  Z " fill-rule="nonzero" fill="#1980ff" stroke="none" />
    <path d="M 676 869  C 676 869  676 847  676 847  C 676 845.343145750508  677.343145750508 844  679 844  C 679 844  733 844  733 844  C 734.656854249492 844  736 845.343145750508  736 847  C 736 847  736 869  736 869  C 736 870.656854249492  734.656854249492 872  733 872  C 733 872  718 872  718 872  C 718 872  706 883.498746867168  706 883.498746867168  C 706 883.498746867168  693 872  693 872  C 693 872  679 872  679 872  C 677.343145750508 872  676 870.656854249492  676 869  Z M 677 869  C 677 870.104569499662  677.895430500338 871  679 871  C 679 871  693.378799945796 871  693.378799945796 871  C 693.378799945796 871  705.972901241185 882.139721755012  705.972901241185 882.139721755012  C 705.972901241185 882.139721755012  717.598225513853 871  717.598225513853 871  C 717.598225513853 871  733 871  733 871  C 734.104569499662 871  735 870.104569499662  735 869  C 735 869  735 847  735 847  C 735 845.895430500338  734.104569499662 845  733 845  C 733 845  679 845  679 845  C 677.895430500338 845  677 845.895430500338  677 847  C 677 847  677 869  677 869  Z " fill-rule="nonzero" fill="#1980ff" stroke="none" />
  </g>
</svg>