<svg xmlns="http://www.w3.org/2000/svg" xmlns:xlink="http://www.w3.org/1999/xlink" width="60" height="40" version="1.1"><g><path fill="#f95e5a" fill-rule="nonzero" stroke="none" d="M 676.5 1003 C 676.5 1003 676.5 981 676.5 981 C 676.5 979.619288125423 677.619288125423 978.5 679 978.5 C 679 978.5 733 978.5 733 978.5 C 734.380711874577 978.5 735.5 979.619288125423 735.5 981 C 735.5 981 735.5 1003 735.5 1003 C 735.5 1004.38071187458 734.380711874577 1005.5 733 1005.5 C 733 1005.5 717.799112756926 1005.5 717.799112756926 1005.5 C 717.799112756926 1005.5 705.986450620593 1016.81923431109 705.986450620593 1016.81923431109 C 705.986450620593 1016.81923431109 693.189399972898 1005.5 693.189399972898 1005.5 C 693.189399972898 1005.5 679 1005.5 679 1005.5 C 677.619288125423 1005.5 676.5 1004.38071187458 676.5 1003 Z" transform="matrix(1 0 0 1 -676 -978 )"/><path fill="#f95e5a" fill-rule="nonzero" stroke="none" d="M 676 1003 C 676 1003 676 981 676 981 C 676 979.343145750508 677.343145750508 978 679 978 C 679 978 733 978 733 978 C 734.656854249492 978 736 979.343145750508 736 981 C 736 981 736 1003 736 1003 C 736 1004.65685424949 734.656854249492 1006 733 1006 C 733 1006 718 1006 718 1006 C 718 1006 706 1017.49874686717 706 1017.49874686717 C 706 1017.49874686717 693 1006 693 1006 C 693 1006 679 1006 679 1006 C 677.343145750508 1006 676 1004.65685424949 676 1003 Z M 677 1003 C 677 1004.10456949966 677.895430500338 1005 679 1005 C 679 1005 693.378799945796 1005 693.378799945796 1005 C 693.378799945796 1005 705.972901241185 1016.13972175501 705.972901241185 1016.13972175501 C 705.972901241185 1016.13972175501 717.598225513853 1005 717.598225513853 1005 C 717.598225513853 1005 733 1005 733 1005 C 734.104569499662 1005 735 1004.10456949966 735 1003 C 735 1003 735 981 735 981 C 735 979.895430500338 734.104569499662 979 733 979 C 733 979 679 979 679 979 C 677.895430500338 979 677 979.895430500338 677 981 C 677 981 677 1003 677 1003 Z" transform="matrix(1 0 0 1 -676 -978 )"/></g></svg>