<?xml version="1.0" encoding="utf-8"?>
<svg version="1.1" xmlns:xlink="http://www.w3.org/1999/xlink" width="17px" height="13px" xmlns="http://www.w3.org/2000/svg">
  <g transform="matrix(1 0 0 1 -14 -8 )">
    <path d="M 16.6929032258065 1.7946127946128  C 16.8976344086022 1.99887766554433  17 2.24691358024691  17 2.53872053872054  C 17 2.83052749719416  16.8976344086022 3.07856341189675  16.6929032258065 3.28282828282828  L 8.75225806451613 11.2053872053872  L 7.26064516129032 12.6936026936027  C 7.05591397849463 12.8978675645342  6.80731182795699 13  6.51483870967743 13  C 6.22236559139785 13  5.97376344086021 12.8978675645342  5.76903225806451 12.6936026936027  L 4.27741935483871 11.2053872053872  L 0.307096774193544 7.24410774410774  C 0.102365591397849 7.0398428731762  0 6.79180695847362  0 6.5  C 0 6.20819304152637  0.102365591397849 5.9601571268238  0.307096774193544 5.75589225589226  L 1.79870967741935 4.26767676767677  C 2.00344086021505 4.06341189674523  2.25204301075269 3.96127946127946  2.54451612903227 3.96127946127946  C 2.83698924731182 3.96127946127946  3.08559139784946 4.06341189674523  3.29032258064516 4.26767676767677  L 6.51483870967743 7.49579124579125  L 13.7096774193548 0.306397306397304  C 13.9144086021505 0.102132435465764  14.1630107526882 0  14.4554838709677 0  C 14.7479569892473 0  14.9965591397849 0.102132435465764  15.2012903225806 0.306397306397304  L 16.6929032258065 1.7946127946128  Z " fill-rule="nonzero" fill="#ffffff" stroke="none" transform="matrix(1 0 0 1 14 8 )" />
  </g>
</svg>