<?xml version="1.0" encoding="utf-8"?>
<svg version="1.1" xmlns:xlink="http://www.w3.org/1999/xlink" width="13px" height="13px" xmlns="http://www.w3.org/2000/svg">
  <g transform="matrix(1 0 0 1 -42 -8 )">
    <path d="M 12.6936026936027 9.71717171717172  C 12.8978675645342 9.92143658810325  13 10.1694725028058  13 10.4612794612795  C 13 10.7530864197531  12.8978675645342 11.0011223344557  12.6936026936027 11.2053872053872  L 11.2053872053872 12.6936026936027  C 11.0011223344557 12.8978675645342  10.7530864197531 13  10.4612794612795 13  C 10.1694725028058 13  9.92143658810325 12.8978675645342  9.71717171717172 12.6936026936027  L 6.5 9.47643097643098  L 3.28282828282828 12.6936026936027  C 3.07856341189675 12.8978675645342  2.83052749719417 13  2.53872053872054 13  C 2.24691358024691 13  1.99887766554433 12.8978675645342  1.7946127946128 12.6936026936027  L 0.306397306397308 11.2053872053872  C 0.102132435465769 11.0011223344557  0 10.7530864197531  0 10.4612794612795  C 0 10.1694725028058  0.102132435465769 9.92143658810325  0.306397306397308 9.71717171717172  L 3.52356902356902 6.5  L 0.306397306397308 3.28282828282828  C 0.102132435465769 3.07856341189675  0 2.83052749719416  0 2.53872053872054  C 0 2.24691358024691  0.102132435465769 1.99887766554433  0.306397306397308 1.7946127946128  L 1.7946127946128 0.306397306397306  C 1.99887766554433 0.102132435465768  2.24691358024691 0  2.53872053872054 0  C 2.83052749719417 0  3.07856341189675 0.102132435465768  3.28282828282828 0.306397306397306  L 6.5 3.52356902356902  L 9.71717171717172 0.306397306397306  C 9.92143658810325 0.102132435465768  10.1694725028058 0  10.4612794612795 0  C 10.7530864197531 0  11.0011223344557 0.102132435465768  11.2053872053872 0.306397306397306  L 12.6936026936027 1.7946127946128  C 12.8978675645342 1.99887766554433  13 2.24691358024691  13 2.53872053872054  C 13 2.83052749719416  12.8978675645342 3.07856341189675  12.6936026936027 3.28282828282828  L 9.47643097643098 6.5  L 12.6936026936027 9.71717171717172  Z " fill-rule="nonzero" fill="#ffffff" stroke="none" transform="matrix(1 0 0 1 42 8 )" />
  </g>
</svg>