<svg xmlns="http://www.w3.org/2000/svg" xmlns:xlink="http://www.w3.org/1999/xlink" width="34" height="30" version="1.1"><g><path fill="#1890ff" fill-rule="nonzero" stroke="none" d="M 361.5 950 A 1.5 1.5 0 0 1 363 948.5 L 395 948.5 L 395 977.5 L 363 977.5 A 1.5 1.5 0 0 1 361.5 976 L 361.5 950 Z" transform="matrix(1 0 0 1 -361 -948 )"/><path fill="none" stroke="#5fb878" stroke-width="1" d="M 395 977.5 L 363 977.5 A 1.5 1.5 0 0 1 361.5 976 L 361.5 950 A 1.5 1.5 0 0 1 363 948.5 L 395 948.5" transform="matrix(1 0 0 1 -361 -948 )"/></g></svg>