<svg xmlns="http://www.w3.org/2000/svg" xmlns:xlink="http://www.w3.org/1999/xlink" width="15" height="14" version="1.1"><g><path fill="#999" fill-rule="nonzero" stroke="none" d="M 12.8497587870434 7.99844115354634 C 12.8559614059269 8.01299038711352 12.8590627153687 8.03481423746423 12.8590627153687 8.06391270459863 L 12.8590627153687 13.3016367887763 C 12.8590627153687 13.4907768251494 12.8001378359752 13.6544557027799 12.6822880771881 13.792673421668 C 12.5644383184011 13.930891140556 12.4248793935217 14 12.26361130255 14 L 8.69090282563749 14 L 8.69090282563749 9.80982073265781 L 6.30909717436249 9.80982073265781 L 6.30909717436249 14 L 2.73638869745003 14 C 2.57512060647828 14 2.43556168159889 13.930891140556 2.31771192281186 13.792673421668 C 2.1998621640248 13.6544557027799 2.14093728463128 13.4907768251494 2.14093728463128 13.3016367887763 L 2.14093728463128 8.06391270459863 C 2.14093728463128 8.05663808781502 2.14248793935217 8.04572616263962 2.14558924879393 8.03117692907249 C 2.1486905582357 8.01662769550534 2.15024121295658 8.00571577032995 2.15024121295658 7.99844115354634 L 7.5 2.82618862042093 L 12.8497587870434 7.99844115354634 Z M 14.9989662301861 7.0545596258769 C 15.0051688490696 7.15276695245514 14.9834596829772 7.23824369966229 14.933838731909 7.31098986749807 L 14.3569951757409 8.11847233047549 C 14.3073742246726 8.18394388152766 14.2422467263956 8.22395427383738 14.1616126809097 8.23850350740452 L 14.1337008959338 8.23850350740452 C 14.053066850448 8.23850350740452 13.9879393521709 8.21304234866198 13.9383184011027 8.16212003117691 L 7.5 1.86593920498833 L 1.06168159889731 8.16212003117691 C 0.987250172294968 8.22031696544555 0.912818745692629 8.24577812418809 0.838387319090279 8.23850350740452 C 0.757753273604404 8.22395427383738 0.692625775327359 8.18394388152766 0.643004824259137 8.11847233047549 L 0.0661612680909737 7.31098986749807 C 0.0165403170227409 7.23824369966229 -0.00516884906960716 7.15276695245514 0.0010337698139194 7.0545596258769 C 0.00723638869744596 6.9563522992985 0.0413507925568573 6.878150168875 0.103376981392133 6.8199532346064 L 6.79290144727774 0.28371005455964 C 6.99138525155066 0.0945700181865334 7.22708476912474 0 7.5 0 C 7.77291523087525 0 8.00861474844933 0.0945700181865334 8.20709855272225 0.28371005455964 L 10.4772570640937 2.50974279033514 L 10.4772570640937 0.381917381137919 C 10.4772570640937 0.280072746167815 10.5051688490696 0.196414653156637 10.5609924190214 0.130943102104425 C 10.6168159889731 0.0654715510522522 10.6881461061337 0.0327357755261062 10.7749827705031 0.0327357755261062 L 12.5613370089593 0.0327357755261062 C 12.6481736733287 0.0327357755261062 12.7195037904893 0.0654715510522522 12.7753273604411 0.130943102104425 C 12.8311509303928 0.196414653156637 12.8590627153687 0.280072746167815 12.8590627153687 0.381917381137919 L 12.8590627153687 4.83398285268904 L 14.8966230186079 6.8199532346064 C 14.9586492074431 6.878150168875 14.9927636113026 6.9563522992985 14.9989662301861 7.0545596258769 Z" transform="matrix(1 0 0 1 -49 -996 ) matrix(1 0 0 1 49 996 )"/></g></svg>