<svg xmlns="http://www.w3.org/2000/svg" xmlns:xlink="http://www.w3.org/1999/xlink" width="66" height="46" version="1.1"><defs><filter id="filter2695" width="66" height="46" x="356" y="688" filterUnits="userSpaceOnUse"><feOffset dx="0" dy="0" in="SourceAlpha" result="shadowOffsetInner"/><feGaussianBlur in="shadowOffsetInner" result="shadowGaussian" stdDeviation="1.5"/><feComposite in="SourceAlpha" in2="shadowGaussian" operator="atop" result="shadowComposite"/><feColorMatrix in="shadowComposite" type="matrix" values="0 0 0 0 0.0980392156862745 0 0 0 0 0.501960784313725 0 0 0 0 1 0 0 0 0.996078431372549 0"/></filter><g id="widget2696"><path fill="#fff" fill-opacity="0" fill-rule="nonzero" stroke="none" d="M 359.5 694 A 2.5 2.5 0 0 1 362 691.5 L 416 691.5 A 2.5 2.5 0 0 1 418.5 694 L 418.5 728 A 2.5 2.5 0 0 1 416 730.5 L 362 730.5 A 2.5 2.5 0 0 1 359.5 728 L 359.5 694 Z"/><path fill="none" stroke="#1980ff" stroke-width="1" d="M 359.5 694 A 2.5 2.5 0 0 1 362 691.5 L 416 691.5 A 2.5 2.5 0 0 1 418.5 694 L 418.5 728 A 2.5 2.5 0 0 1 416 730.5 L 362 730.5 A 2.5 2.5 0 0 1 359.5 728 L 359.5 694 Z"/></g></defs><g transform="matrix(1 0 0 1 -356 -688 )"><use filter="url(#filter2695)" xlink:href="#widget2696"/><use xlink:href="#widget2696"/></g></svg>