<?xml version="1.0" encoding="utf-8"?>
<svg version="1.1" xmlns:xlink="http://www.w3.org/1999/xlink" width="20px" height="20px" xmlns="http://www.w3.org/2000/svg">
  <g transform="matrix(1 0 0 1 -315 -2217 )">
    <path d="M 17.112962962963 19.4717592592593  L 2.6087962962963 19.4717592592593  C 1.3300925853588 19.4717592592593  0.294444451678241 18.4361111038773  0.294444451678241 17.1574074146412  L 0.294444451678241 4.25185185908565  C 0.294444451678241 2.97314814814815  1.33009260706019 1.93657408130787  2.6087962962963 2  L 17.1125000072338 2  C 18.3912037181713 1.93657408130787  19.4277777850116 2.97314814814815  19.4277777850116 4.25185185908565  L 19.4277777850116 17.1574074146412  C 19.4277777850116 18.4361111038773  18.3912036964699 19.4717592592593  17.112962962963 19.4717592592593  Z M 18.6425925853588 4.95277777054398  C 18.6425925853588 3.6749999927662  17.6069444299768 2.63842592592593  16.3282407407407 3  L 3.39398147424769 3  C 2.11527776331019 2.63842592592593  1.07870369646991 3.6749999927662  1 4.95277777054398  L 1 16.4555555483218  C 1.07870369646991 17.7342592592593  2.11527776331019 18.7708333260995  3.39398147424769 18.7708333260995  L 16.3282407407407 18.7708333260995  C 17.6069444516782 18.7708333260995  18.6425925853588 17.7342592592593  18.6425925853588 16.4555555483218  L 18.6425925853588 4.95277777054398  Z M 5.21620369646991 5.52361110387731  L 4.29027776331018 5.52361110387731  C 4.05324071903935 5.52361110387731  3.86157405237268 5.33101850405093  3.86157405237268 5.09490739293982  L 3.86157407407407 0.771759259259259  C 3.86157407407407 0.534722214988426  4.05324074074074 0.343055548321759  4.29027778501157 0.343055548321759  L 5.2162037181713 0.343055548321759  C 5.45324076244213 0.343055548321759  5.6449074291088 0.534722214988426  5.6449074291088 0.771759259259259  L 5.6449074291088 5.09537037037037  C 5.64537036313657 5.33148148148148  5.45324074074074 5.52361110387731  5.21620369646991 5.52361110387731  Z M 10.5671296296296 5.52361110387731  L 9.64120369646991 5.52361110387731  C 9.40416665219908 5.52361110387731  9.21249998553241 5.33101850405093  9.21249998553241 5.09490739293982  L 9.2125000072338 0.771759259259259  C 9.2125000072338 0.534722214988426  9.40416667390046 0.343055548321759  9.6412037181713 0.343055548321759  L 10.567129651331 0.343055548321759  C 10.8041666956019 0.343055548321759  10.9958333622685 0.534722214988426  10.9958333622685 0.771759259259259  L 10.9958333622685 5.09537037037037  C 10.9958333405671 5.33148148148148  10.8041666739005 5.52361110387731  10.5671296296296 5.52361110387731  Z M 15.5356481409144 5.52361110387731  L 14.6097222077546 5.52361110387731  C 14.4087962745949 5.52361110387731  14.244907385706 5.35972221498842  14.244907385706 5.15787037037037  L 14.2449074074074 0.70787037037037  C 14.2449074074074 0.506944437210648  14.4087962962963 0.343055548321759  14.609722229456 0.343055548321759  L 15.5356481626157 0.343055548321759  C 15.7375000072338 0.343055548321759  15.9013888961227 0.506944437210648  15.9013888961227 0.70787037037037  L 15.9013888961227 5.15833332609954  C 15.9009259186921 5.36018519241898  15.7375000072338 5.52361110387731  15.5356481409144 5.52361110387731  Z M 3.86157407407407 9.11018519241898  L 3.86157407407407 7.11759259259259  L 6.53657407407407 7.11759259259259  L 6.53657407407407 9.11018519241898  L 3.86157407407407 9.11018519241898  Z M 8.32083334056713 9.11018519241898  L 8.32083334056713 7.11759259259259  L 10.9958333405671 7.11759259259259  L 10.9958333405671 9.11018519241898  L 8.32083334056713 9.11018519241898  Z M 13.225462962963 9.11018519241898  L 13.225462962963 7.11759259259259  L 15.9009259186921 7.11759259259259  L 15.9009259186921 9.11018519241898  L 13.225462962963 9.11018519241898  Z M 3.86157407407407 12.2986111038773  L 3.86157407407407 10.3055555483218  L 6.53657407407407 10.3055555483218  L 6.53657407407407 12.2986111038773  L 3.86157407407407 12.2986111038773  Z M 8.32083334056713 12.2986111038773  L 8.32083334056713 10.3055555483218  L 10.9958333405671 10.3055555483218  L 10.9958333405671 12.2986111038773  L 8.32083334056713 12.2986111038773  Z M 13.225462962963 12.2986111038773  L 13.225462962963 10.3055555483218  L 15.9009259186921 10.3055555483218  L 15.9009259186921 12.2986111038773  L 13.225462962963 12.2986111038773  Z M 3.86157407407407 15.4865740813079  L 3.86157407407407 13.4939814814815  L 6.53657407407407 13.4939814814815  L 6.53657407407407 15.4865740813079  L 3.86157407407407 15.4865740813079  Z M 8.32083334056713 15.4865740813079  L 8.32083334056713 13.4939814814815  L 10.9958333405671 13.4939814814815  L 10.9958333405671 15.4865740813079  L 8.32083334056713 15.4865740813079  Z M 13.225462962963 15.4865740813079  L 13.225462962963 13.4939814814815  L 15.9009259186921 13.4939814814815  L 15.9009259186921 15.4865740813079  L 13.225462962963 15.4865740813079  Z " fill-rule="nonzero" fill="#666666" stroke="none" transform="matrix(1 0 0 1 315 2217 )" />
  </g>
</svg>