<?xml version="1.0" encoding="utf-8"?>
<svg version="1.1" xmlns:xlink="http://www.w3.org/1999/xlink" width="30px" height="30px" xmlns="http://www.w3.org/2000/svg">
  <g transform="matrix(1 0 0 1 -75 -471 )">
    <path d="M 90 472  C 97.84 472  104 478.16  104 486  C 104 493.84  97.84 500  90 500  C 82.16 500  76 493.84  76 486  C 76 478.16  82.16 472  90 472  Z " fill-rule="nonzero" fill="#0079fe" stroke="none" />
    <path d="M 90 472  C 97.84 472  104 478.16  104 486  C 104 493.84  97.84 500  90 500  C 82.16 500  76 493.84  76 486  C 76 478.16  82.16 472  90 472  Z " stroke-width="2" stroke="#0079fe" fill="none" />
  </g>
</svg>