<?xml version="1.0" encoding="utf-8"?>
<svg version="1.1" xmlns:xlink="http://www.w3.org/1999/xlink" width="30px" height="30px" xmlns="http://www.w3.org/2000/svg">
  <g transform="matrix(1 0 0 1 -398 -471 )">
    <path d="M 413 472  C 420.84 472  427 478.16  427 486  C 427 493.84  420.84 500  413 500  C 405.16 500  399 493.84  399 486  C 399 478.16  405.16 472  413 472  Z " fill-rule="nonzero" fill="#ffffff" stroke="none" />
    <path d="M 413 472  C 420.84 472  427 478.16  427 486  C 427 493.84  420.84 500  413 500  C 405.16 500  399 493.84  399 486  C 399 478.16  405.16 472  413 472  Z " stroke-width="2" stroke="#e4e4e4" fill="none" />
  </g>
</svg>