<?xml version="1.0" encoding="utf-8"?>
<svg version="1.1" xmlns:xlink="http://www.w3.org/1999/xlink" width="15px" height="15px" xmlns="http://www.w3.org/2000/svg">
  <g transform="matrix(1 0 0 1 -97 -1450 )">
    <path d="M 104.5 1452  C 107.58 1452  110 1454.42  110 1457.5  C 110 1460.58  107.58 1463  104.5 1463  C 101.42 1463  99 1460.58  99 1457.5  C 99 1454.42  101.42 1452  104.5 1452  Z " fill-rule="nonzero" fill="#0079fe" stroke="none" />
    <path d="M 104.5 1451.5  C 107.86 1451.5  110.5 1454.14  110.5 1457.5  C 110.5 1460.86  107.86 1463.5  104.5 1463.5  C 101.14 1463.5  98.5 1460.86  98.5 1457.5  C 98.5 1454.14  101.14 1451.5  104.5 1451.5  Z " stroke-width="3" stroke="#ffffff" fill="none" />
  </g>
</svg>