<?xml version="1.0" encoding="utf-8"?>
<svg version="1.1" xmlns:xlink="http://www.w3.org/1999/xlink" width="312px" height="50px" xmlns="http://www.w3.org/2000/svg">
  <g transform="matrix(1 0 0 1 -625 -2949 )">
    <path d="M 917.435167530411 2949.5  C 917.435167530411 2949.5  920.758165644522 2949.76626587453  920.758165644522 2949.76626587453  C 920.758165644522 2949.76626587453  936.469178729503 2974  936.469178729503 2974  C 936.469178729503 2974  920.758165644522 2998.23373412547  920.758165644522 2998.23373412547  C 920.758165644522 2998.23373412547  917.435167530411 2998.5  917.435167530411 2998.5  C 917.435167530411 2998.5  630 2998.5  630 2998.5  C 627.48 2998.5  625.5 2996.52  625.5 2994  C 625.5 2994  625.5 2954  625.5 2954  C 625.5 2951.48  627.48 2949.5  630 2949.5  C 630 2949.5  917.435167530411 2949.5  917.435167530411 2949.5  Z " fill-rule="nonzero" fill="#f2f2f2" stroke="none" />
    <path d="M 917.435167530411 2949.5  C 917.435167530411 2949.5  920.758165644522 2949.76626587453  920.758165644522 2949.76626587453  C 920.758165644522 2949.76626587453  936.469178729503 2974  936.469178729503 2974  C 936.469178729503 2974  920.758165644522 2998.23373412547  920.758165644522 2998.23373412547  C 920.758165644522 2998.23373412547  917.435167530411 2998.5  917.435167530411 2998.5  C 917.435167530411 2998.5  630 2998.5  630 2998.5  C 627.48 2998.5  625.5 2996.52  625.5 2994  C 625.5 2994  625.5 2954  625.5 2954  C 625.5 2951.48  627.48 2949.5  630 2949.5  C 630 2949.5  917.435167530411 2949.5  917.435167530411 2949.5  Z " stroke-width="1" stroke="#e4e4e4" fill="none" />
  </g>
</svg>