<?xml version="1.0" encoding="utf-8"?>
<svg version="1.1" xmlns:xlink="http://www.w3.org/1999/xlink" width="312px" height="50px" xmlns="http://www.w3.org/2000/svg">
  <g transform="matrix(1 0 0 1 -627 -3210 )">
    <path d="M 919.435167530411 3210.5  C 919.435167530411 3210.5  922.758165644522 3210.76626587453  922.758165644522 3210.76626587453  C 922.758165644522 3210.76626587453  938.469178729503 3235  938.469178729503 3235  C 938.469178729503 3235  922.758165644522 3259.23373412547  922.758165644522 3259.23373412547  C 922.758165644522 3259.23373412547  919.435167530411 3259.5  919.435167530411 3259.5  C 919.435167530411 3259.5  632 3259.5  632 3259.5  C 629.48 3259.5  627.5 3257.52  627.5 3255  C 627.5 3255  627.5 3215  627.5 3215  C 627.5 3212.48  629.48 3210.5  632 3210.5  C 632 3210.5  919.435167530411 3210.5  919.435167530411 3210.5  Z " fill-rule="nonzero" fill="#ffffff" stroke="none" />
    <path d="M 919.435167530411 3210.5  C 919.435167530411 3210.5  922.758165644522 3210.76626587453  922.758165644522 3210.76626587453  C 922.758165644522 3210.76626587453  938.469178729503 3235  938.469178729503 3235  C 938.469178729503 3235  922.758165644522 3259.23373412547  922.758165644522 3259.23373412547  C 922.758165644522 3259.23373412547  919.435167530411 3259.5  919.435167530411 3259.5  C 919.435167530411 3259.5  632 3259.5  632 3259.5  C 629.48 3259.5  627.5 3257.52  627.5 3255  C 627.5 3255  627.5 3215  627.5 3215  C 627.5 3212.48  629.48 3210.5  632 3210.5  C 632 3210.5  919.435167530411 3210.5  919.435167530411 3210.5  Z " stroke-width="1" stroke="#e4e4e4" fill="none" />
  </g>
</svg>