<?xml version="1.0" encoding="utf-8"?>
<svg version="1.1" xmlns:xlink="http://www.w3.org/1999/xlink" width="55px" height="55px" xmlns="http://www.w3.org/2000/svg">
  <g transform="matrix(1 0 0 1 -27 -26 )">
    <path d="M 3.17585925499232 5.93720885871345  L 3.17585932908407 7.7766070526963  C 1.17589893100097 8.00056689342409  0.730482669258181 9.87131519274381  1 12.3538755253801  L 1 39.5464910567544  C 0.58201058201058 42.6094104308391  1.91825936723896 44.9478458049889  4.99144018988735 45.2125495134211  L 9.40686787068612 45.2125495134211  C 9.77236983166922 48.4917250319591  8.85651555471071 50.7179941634795  6.57528058681516 52.1724316406141  C 6.16776747483359 52.4356582373684  5.96611136884281 52.9576491113743  6.09634679733743 53.4439482821637  C 6.22238240133128 53.9347097724562  6.64670018881208 54.2782421303801  7.12563397828981 54.2782421303801  C 9.74384751264932 54.2782421303801  15.8803528220676 53.4456797807326  19.1810756303661 45.1162289897668  C 19.6200914987314 44.7790666497845  20.0472493700192 44.4076169669225  20.4593150432048 44  L 43.4027264056324 44  C 46.7568297160134 44.1683673469389  47.0537738905086 43.2329931972789  47.1428571428571 39.5464910567544  L 47.1428571428571 38.5  L 49.2250921228879 38.5  C 52.3074242411674 38.7958828467544  54.8369701321044 36.2394648894152  54 33.1298243900877  L 54 5.93720885871345  C 54.8369701321044 2.82310718201755  52.3074242411674 0.271150402046783  49.2250921228879 1  L 8.79215926420891 1  C 5.70540514592934 0.271150402046783  3.17585925499232 2.82310718201755  3.17585925499232 5.93720885871345  Z M 44.5297484072994 9  L 6.11111111111111 9  L 6.09634679733743 5.93720885871345  C 5.40761471848439 4.05893212035088  6.93037726113671 2.53757355628655  8.79215926420891 3  L 49.2250921228879 3  C 51.0824509938556 2.53757355628655  52.5948723548387 4.05893212035088  52 5.93720885871345  L 52 33.1298243900877  C 52.5948723548387 35.0081011284503  51.0824509938556 36.5294596925146  49.2250921228879 35.75  L 47 35.7499999415908  L 47 12.3538755253801  C 46.6003401360544 8.93594104308374  47.5357142857143 8.31235827664398  44.5297484072994 9  Z M 14.9490079365079 26.6487205615942  C 14.9490079365079 29.2331444508134  13.0141853048115 31.3244263285024  10.6231150793651 31.3244263285024  C 8.23204593539191 31.3244263285024  6.29722222222222 29.2331444508134  6.29722222222222 26.6487205615942  C 6.29722222222222 24.0642978413016  8.23204593539191 21.973014794686  10.6231150793651 21.973014794686  C 13.0141853048115 21.973014794686  14.9490079365079 24.0642978413016  14.9490079365079 26.6487205615942  Z M 23.5103174603175 21.973014794686  C 25.9013876857639 21.973014794686  27.8362103174603 24.0642978413016  27.8362103174603 26.6487205615942  C 27.8362103174603 29.2331444508134  25.9013876857639 31.3244263285024  23.5103174603175 31.3244263285024  C 21.1192483163443 31.3244263285024  19.1844246031746 29.2331444508134  19.1844246031746 26.6487205615942  C 19.1844246031746 24.0642978413016  21.1192483163443 21.973014794686  23.5103174603175 21.973014794686  Z M 32.071626984127 26.6487205615942  C 32.071626984127 24.0642978413016  34.0064506972967 21.973014794686  36.3975198412698 21.973014794686  C 38.7885900667163 21.973014794686  40.7234126984127 24.0642978413016  40.7234126984127 26.6487205615942  C 40.7234126984127 29.2331444508134  38.7885900667163 31.3244263285024  36.3975198412698 31.3244263285024  C 34.0064506972967 31.3244263285024  32.071626984127 29.2331444508134  32.071626984127 26.6487205615942  Z " fill-rule="nonzero" fill="#0084ff" stroke="none" fill-opacity="0.498039215686275" transform="matrix(1 0 0 1 27 26 )" />
  </g>
</svg>