<?xml version="1.0" encoding="utf-8"?>
<svg version="1.1" xmlns:xlink="http://www.w3.org/1999/xlink" width="55px" height="55px" xmlns="http://www.w3.org/2000/svg">
  <g transform="matrix(1 0 0 1 -27 -27 )">
    <path d="M 28.5008179162609 0.0810126582277917  C 18.4216288242079 0.0810126582277917  11.4021935759119 6.53322083375542  11.4021935759119 15.7506610227847  L 11.4021935759119 19.4376371308017  C 11.2222080743015 19.9906835443039  11.2222080743015 20.5437299578057  11.4021935759119 21.0967763713079  L 11.4021935759119 22.0185204118143  C 11.4021935759119 25.1524501063291  12.8420777469852 27.5489845468355  14.6419329212793 27.5489845468355  C 16.6217736499138 34.1855415088608  21.8413536711857 38.7942616033756  27.6008903027488 38.7942616033756  C 33.1804413799716 38.7942616033756  38.5800069555838 33.8168438818566  40.5598476842184 26.9959381333333  C 42.3597028585125 26.9959381333333  43.7995870295858 24.5994036928269  43.7995870295858 21.4654739983121  L 43.7995870295858 20.5437299578061  L 43.7995870295858 19.4376371308017  L 43.7995870295858 18.5158930902953  C 43.9795725311961 17.7784978902955  43.7995870295858 17.2254514767933  43.7995870295858 16.6724050632911  L 43.7995870295858 15.7506610227847  C 43.7995870295858 6.90191840675107  37.1401228372407 0.0810126582277917  28.5008179162609 0.0810126582277917  Z M 39.1199635658752 20.3593811713081  L 41.9997318552918 20.3593811713081  L 41.9997318552918 21.4654739983121  C 41.9997318552918 23.6776596523205  41.0998042417796 25.1524501063291  40.5598476842184 25.1524500523205  L 40.3798621826081 25.1524500523205  C 40.1998766809977 24.968101265823  39.8399056250468 24.968101265823  39.479934569096 25.1524500523205  C 39.2999490674856 25.3367988388186  38.9399780115347 25.5211476793247  38.9399780115347 25.7054964658228  C 37.5000938404614 32.1577046413504  32.6404848224103 36.9507735223629  27.6008903027488 36.9507735763714  C 22.3813102287469 36.9507735763714  17.5217012106958 32.3420534818565  16.0818170923527 26.0741940928269  C 16.0818170923527 25.7054964658228  15.9018315907423 25.5211476793247  15.5418605347914 25.5211476793247  L 15.1818894788406 25.5211476793247  C 15.0019039772302 25.5211476793247  14.8219184228897 25.5211476793247  14.6419329212793 25.7054964658228  L 14.4619474196689 25.7054964658228  C 13.9219908621077 25.7054964658228  13.0220632485956 24.2307060118142  13.0220632485956 22.0185204118143  L 13.0220632485956 20.9124275848103  L 13.0220632485956 20.3593811713081  L 15.9018315907423 20.3593811713081  C 16.4417881483035 20.3593811713081  16.8017592042544 19.9906835443039  16.8017591515242 19.4376371308017  C 16.8017591515242 17.0411026902952  17.1617302074751 14.6445681957807  17.5217012634259 13.5384753687763  C 17.5217012634259 13.3541265822787  17.7016867650364 13.1697777417721  17.7016867650364 12.9854289552741  L 20.0414984968916 12.9854289552741  C 22.9212667863081 12.9854289552741  24.5411364589918 11.8793361282701  25.0810930692832 10.5888945147681  C 27.4209048011385 12.8010801687765  31.7405572616283 14.6445681957807  36.6001662796794 14.8289170362868  C 36.9601373356303 16.8567539037977  38.2200359523631 19.6219859713078  38.4000214539735 19.8063347578059  C 38.5800069555838 20.17503238481  38.9399780115347 20.3593811713081  39.1199635658752 20.3593811713081  Z M 1.08828453461956 55  L 53.6887037256101 55  C 54.0514652548629 54.9202032916141  54.2328459929199 54.7386214662647  54.4142267309768 54.5570395877171  C 54.5956074690338 54.3754577623672  54.5956074690338 54.0122940584702  54.5956074690338 53.8307122331203  L 52.7817999290475 46.7490203529105  C 52.4190383997947 45.1147837651697  51.3307538651752 43.8437108813259  49.8797078544417 43.1173834735318  L 37.7271971824309 36.7620190011162  C 37.545816444374 36.5804371757663  37.1830549151212 36.5804371757663  37.0016741770642 36.7620190011162  L 36.4575319097544 37.3067645303631  L 30.8347284985998 51.6517301161325  L 29.3836824347275 48.5648387660008  C 29.9278247020372 47.8385114114044  31.0161092366568 46.2042748236636  31.0161092366568 44.7516200612727  C 31.0161092366568 42.5726379442849  29.5650631727845 40.2120740019473  27.3884941035454 40.2120740019473  C 25.2119250343063 40.2120740019473  23.760878970434 42.5726379442849  23.7608790235728 44.7516200612727  C 23.7608790235728 46.2042748236636  24.8491635581924 47.8385114114044  25.3933058255022 48.5648387660008  L 23.7608790235728 51.8333119414824  L 17.7753140831654 37.3067645303631  L 17.2311718158556 36.7620190011162  L 16.50564875735 36.7620190011162  L 4.71589966773098 42.5726379442849  C 3.26485360385863 43.2989652988813  2.17656906923906 44.5700382359228  1.81380753998627 46.2042748236636  L 0 53.6491304077708  C 0 53.8307122331203  0 54.1938759370178  0.18138073805693 54.3754577623672  C 0.362761476113917 54.5570395877171  0.725523005366711 54.9202032916141  1.08828453461956 55  Z M 31.9230130332194 22.2354715367992  L 33.7368205732056 22.2354715367992  C 34.2809628405154 22.2354715367992  34.6437243697682 21.8723078329017  34.6437243697682 21.3275623036548  C 34.6437243697682 20.7828167744083  34.2809628405154 20.4196530705108  33.7368205732056 20.4196531237085  L 31.9230130332194 20.4196531237085  C 31.3788707659096 20.4196531237085  31.0161092366568 20.782816827606  31.0161092366568 21.3275623036548  C 31.0161092366568 21.872307779704  31.3788707659096 22.2354715367992  31.9230130332194 22.2354715367992  Z M 21.040167687024 22.2354715367992  L 22.8539752270103 22.2354715367992  C 23.39811749432 22.2354715367992  23.7608790235728 21.8723078329017  23.7608790235728 21.3275623036548  C 23.7608790235728 20.7828167744083  23.39811749432 20.4196530705108  22.8539752270103 20.4196531237085  L 21.040167687024 20.4196531237085  C 20.4960254197142 20.4196531237085  20.1332638904614 20.782816827606  20.1332638904614 21.3275623036548  C 20.1332638904614 21.872307779704  20.4960254197142 22.2354715367992  21.040167687024 22.2354715367992  Z " fill-rule="nonzero" fill="#0084ff" stroke="none" transform="matrix(1 0 0 1 27 27 )" />
  </g>
</svg>