<?xml version="1.0" encoding="utf-8"?>
<svg version="1.1" xmlns:xlink="http://www.w3.org/1999/xlink" width="30px" height="30px" xmlns="http://www.w3.org/2000/svg">
  <g transform="matrix(1 0 0 1 -75 -567 )">
    <path d="M 90 568  C 97.84 568  104 574.16  104 582  C 104 589.84  97.84 596  90 596  C 82.16 596  76 589.84  76 582  C 76 574.16  82.16 568  90 568  Z " fill-rule="nonzero" fill="#ffffff" stroke="none" />
    <path d="M 90 568  C 97.84 568  104 574.16  104 582  C 104 589.84  97.84 596  90 596  C 82.16 596  76 589.84  76 582  C 76 574.16  82.16 568  90 568  Z " stroke-width="2" stroke="#0079fe" fill="none" />
  </g>
</svg>