<?xml version="1.0" encoding="utf-8"?>
<svg version="1.1" xmlns:xlink="http://www.w3.org/1999/xlink" width="46px" height="46px" xmlns="http://www.w3.org/2000/svg">
  <g transform="matrix(1 0 0 1 -31 -36 )">
    <path d="M 14.1380118674074 45  C 14.1948859365854 45.1377083699091  14.2507976961211 45.1692565808551  14.3054976896864 45.1933383308063  C 9.77418599235435 42.1850550331862  6.81481481481481 36.853149736523  6.81481481481481 30.6666666666667  C 6.81481481481481 21.0698039215687  13.9362962962962 13.5294117647059  23 13.5294117647059  C 32.0637037037038 13.5294117647059  39.1851851851852 21.0698039215687  39.1851851851852 30.6666666666667  C 39.1851851851852 36.8791651618397  36.2008721539785 42.2298834234022  31.6372537385485 45.2311662764334  C 31.8320011984597 45.2836425516288  32.0382661253675 45.2520203115622  32.259030385926 45  L 44.7172311881482 45  C 45.3370202466667 45.5334463890198  45.8497942748149 44.9905091827452  45 44.3342619443137  L 45 16.611369787451  L 43.58466696 14.9542279411766  L 23.1985211266667 0.0305119443139262  L 2.81683506148151 14.9400640360784  L 1 16.6019267811766  L 1 44.3342619443137  C 0.551707746666596 44.9905091827452  1.06002314814814 45.5334463890198  1.68427083333325 45  L 14.1380118674074 45  Z " fill-rule="nonzero" fill="#0084ff" stroke="none" transform="matrix(1 0 0 1 31 36 )" />
  </g>
</svg>