<?xml version="1.0" encoding="utf-8"?>
<svg version="1.1" xmlns:xlink="http://www.w3.org/1999/xlink" width="54px" height="54px" xmlns="http://www.w3.org/2000/svg">
  <g transform="matrix(1 0 0 1 -28 -28 )">
    <path d="M 53.7770432692308 27.0827075961538  C 53.7770432692308 12.3452524038462  41.8201627884615 0.392503269230769  27.0827075961538 0.392503269230769  C 12.3452524038462 0.392503269230769  0.392503269230769 12.3452524038462  0.392503269230769 27.0827075961538  C 0.392503269230769 41.8201627884615  12.3452524038462 53.7770432692308  27.0827075961538 53.7770432692308  C 41.8201627884615 53.7770432692308  53.7770432692308 41.8201627884615  53.7770432692308 27.0827075961538  Z M 4.55716673076923 27.0827075961538  C 4.55716673076923 14.6630856730769  14.6630856730769 4.55716673076923  27.0827075961538 4.55716673076923  C 39.5023284615385 4.55716673076923  49.6082484615385 14.6630856730769  49.6082484615385 27.0827075961538  C 49.6082484615385 39.5023284615385  39.5023284615385 49.6082484615385  27.0827075961538 49.6082484615385  C 14.6630856730769 49.6082484615385  4.55716673076923 39.5023284615385  4.55716673076923 27.0827075961538  Z M 22.9180441346154 22.9180441346154  C 22.9180441346154 21.4513221153846  21.0546875 18.7492493269231  18.7492493269231 18.7492493269231  C 16.4479414423077 18.7492493269231  12.4981217307692 21.6165865384615  12.4981217307692 22.9180441346154  C 12.4981217307692 24.2195017307692  16.4479414423077 22.9180441346154  18.7492493269231 22.9180441346154  C 21.0546875 22.9180441346154  22.9180441346154 24.38063375  22.9180441346154 22.9180441346154  Z M 41.6672924038462 22.9180441346154  C 41.6672924038462 21.6165865384615  37.7216050961538 18.7492493269231  35.4161658653846 18.7492493269231  C 33.1148590384615 18.7492493269231  31.2515024038462 21.4513221153846  31.2515024038462 22.9180441346154  C 31.2515024038462 24.38063375  33.1148590384615 22.9180441346154  35.4161658653846 22.9180441346154  C 37.7216050961538 22.9180441346154  41.6672924038462 24.2195017307692  41.6672924038462 22.9180441346154  Z M 27.0827075961538 33.6602316346154  C 17.4147388461538 33.6602316346154  12.8245192307692 31.2515024038462  12.8245192307692 31.2515024038462  C 12.8245192307692 37.9736330769231  17.62545125 45.5096907692308  27.0827075961538 45.5096907692308  C 36.5399639423077 45.5096907692308  41.3408959615385 37.9736330769231  41.3408959615385 31.2515024038462  C 41.3408959615385 31.2515024038462  36.7506763461538 33.6602316346154  27.0827075961538 33.6602316346154  Z " fill-rule="nonzero" fill="#0084ff" stroke="none" fill-opacity="0.498039215686275" transform="matrix(1 0 0 1 28 28 )" />
  </g>
</svg>