<svg xmlns="http://www.w3.org/2000/svg" xmlns:xlink="http://www.w3.org/1999/xlink" width="30" height="30" version="1.1"><g><path fill="#0079fe" fill-rule="nonzero" stroke="none" d="M 90 472 C 97.84 472 104 478.16 104 486 C 104 493.84 97.84 500 90 500 C 82.16 500 76 493.84 76 486 C 76 478.16 82.16 472 90 472 Z" transform="matrix(1 0 0 1 -75 -471 )"/><path fill="none" stroke="#0079fe" stroke-width="2" d="M 90 472 C 97.84 472 104 478.16 104 486 C 104 493.84 97.84 500 90 500 C 82.16 500 76 493.84 76 486 C 76 478.16 82.16 472 90 472 Z" transform="matrix(1 0 0 1 -75 -471 )"/></g></svg>