<svg xmlns="http://www.w3.org/2000/svg" xmlns:xlink="http://www.w3.org/1999/xlink" width="30" height="30" version="1.1"><g><path fill="#fff" fill-rule="nonzero" stroke="none" d="M 90 568 C 97.84 568 104 574.16 104 582 C 104 589.84 97.84 596 90 596 C 82.16 596 76 589.84 76 582 C 76 574.16 82.16 568 90 568 Z" transform="matrix(1 0 0 1 -75 -567 )"/><path fill="none" stroke="#0079fe" stroke-width="2" d="M 90 568 C 97.84 568 104 574.16 104 582 C 104 589.84 97.84 596 90 596 C 82.16 596 76 589.84 76 582 C 76 574.16 82.16 568 90 568 Z" transform="matrix(1 0 0 1 -75 -567 )"/></g></svg>