<svg xmlns="http://www.w3.org/2000/svg" xmlns:xlink="http://www.w3.org/1999/xlink" width="15" height="15" version="1.1"><g><path fill="#0079fe" fill-rule="nonzero" stroke="none" d="M 104.5 1452 C 107.58 1452 110 1454.42 110 1457.5 C 110 1460.58 107.58 1463 104.5 1463 C 101.42 1463 99 1460.58 99 1457.5 C 99 1454.42 101.42 1452 104.5 1452 Z" transform="matrix(1 0 0 1 -97 -1450 )"/><path fill="none" stroke="#fff" stroke-width="3" d="M 104.5 1451.5 C 107.86 1451.5 110.5 1454.14 110.5 1457.5 C 110.5 1460.86 107.86 1463.5 104.5 1463.5 C 101.14 1463.5 98.5 1460.86 98.5 1457.5 C 98.5 1454.14 101.14 1451.5 104.5 1451.5 Z" transform="matrix(1 0 0 1 -97 -1450 )"/></g></svg>