<svg xmlns="http://www.w3.org/2000/svg" xmlns:xlink="http://www.w3.org/1999/xlink" width="15" height="15" version="1.1"><g><path fill="#ccc" fill-rule="nonzero" stroke="none" d="M 779.5 1325 C 782.58 1325 785 1327.42 785 1330.5 C 785 1333.58 782.58 1336 779.5 1336 C 776.42 1336 774 1333.58 774 1330.5 C 774 1327.42 776.42 1325 779.5 1325 Z" transform="matrix(1 0 0 1 -772 -1323 )"/><path fill="none" stroke="#fff" stroke-width="3" d="M 779.5 1324.5 C 782.86 1324.5 785.5 1327.14 785.5 1330.5 C 785.5 1333.86 782.86 1336.5 779.5 1336.5 C 776.14 1336.5 773.5 1333.86 773.5 1330.5 C 773.5 1327.14 776.14 1324.5 779.5 1324.5 Z" transform="matrix(1 0 0 1 -772 -1323 )"/></g></svg>