<?xml version="1.0" encoding="utf-8"?>
<svg version="1.1" xmlns:xlink="http://www.w3.org/1999/xlink" width="20px" height="20px" xmlns="http://www.w3.org/2000/svg">
  <g transform="matrix(1 0 0 1 -97 -1320 )">
    <path d="M 107 1322  C 111.48 1322  115 1325.52  115 1330  C 115 1334.48  111.48 1338  107 1338  C 102.52 1338  99 1334.48  99 1330  C 99 1325.52  102.52 1322  107 1322  Z " fill-rule="nonzero" fill="#0079fe" stroke="none" />
    <path d="M 107 1321.5  C 111.76 1321.5  115.5 1325.24  115.5 1330  C 115.5 1334.76  111.76 1338.5  107 1338.5  C 102.24 1338.5  98.5 1334.76  98.5 1330  C 98.5 1325.24  102.24 1321.5  107 1321.5  Z " stroke-width="3" stroke="#ffffff" fill="none" />
  </g>
</svg>