<svg xmlns="http://www.w3.org/2000/svg" xmlns:xlink="http://www.w3.org/1999/xlink" width="312" height="50" version="1.1"><g><path fill="#f2f2f2" fill-rule="nonzero" stroke="none" d="M 917.435167530411 2949.5 C 917.435167530411 2949.5 920.758165644522 2949.76626587453 920.758165644522 2949.76626587453 C 920.758165644522 2949.76626587453 936.469178729503 2974 936.469178729503 2974 C 936.469178729503 2974 920.758165644522 2998.23373412547 920.758165644522 2998.23373412547 C 920.758165644522 2998.23373412547 917.435167530411 2998.5 917.435167530411 2998.5 C 917.435167530411 2998.5 630 2998.5 630 2998.5 C 627.48 2998.5 625.5 2996.52 625.5 2994 C 625.5 2994 625.5 2954 625.5 2954 C 625.5 2951.48 627.48 2949.5 630 2949.5 C 630 2949.5 917.435167530411 2949.5 917.435167530411 2949.5 Z" transform="matrix(1 0 0 1 -625 -2949 )"/><path fill="none" stroke="#e4e4e4" stroke-width="1" d="M 917.435167530411 2949.5 C 917.435167530411 2949.5 920.758165644522 2949.76626587453 920.758165644522 2949.76626587453 C 920.758165644522 2949.76626587453 936.469178729503 2974 936.469178729503 2974 C 936.469178729503 2974 920.758165644522 2998.23373412547 920.758165644522 2998.23373412547 C 920.758165644522 2998.23373412547 917.435167530411 2998.5 917.435167530411 2998.5 C 917.435167530411 2998.5 630 2998.5 630 2998.5 C 627.48 2998.5 625.5 2996.52 625.5 2994 C 625.5 2994 625.5 2954 625.5 2954 C 625.5 2951.48 627.48 2949.5 630 2949.5 C 630 2949.5 917.435167530411 2949.5 917.435167530411 2949.5 Z" transform="matrix(1 0 0 1 -625 -2949 )"/></g></svg>