<svg xmlns="http://www.w3.org/2000/svg" xmlns:xlink="http://www.w3.org/1999/xlink" width="312" height="50" version="1.1"><g><path fill="#0079fe" fill-rule="nonzero" stroke="none" d="M 386.435167530411 2949.5 C 386.435167530411 2949.5 389.758165644522 2949.76626587453 389.758165644522 2949.76626587453 C 389.758165644522 2949.76626587453 405.469178729503 2974 405.469178729503 2974 C 405.469178729503 2974 389.758165644522 2998.23373412547 389.758165644522 2998.23373412547 C 389.758165644522 2998.23373412547 386.435167530411 2998.5 386.435167530411 2998.5 C 386.435167530411 2998.5 99 2998.5 99 2998.5 C 96.48 2998.5 94.5 2996.52 94.5 2994 C 94.5 2994 94.5 2954 94.5 2954 C 94.5 2951.48 96.48 2949.5 99 2949.5 C 99 2949.5 386.435167530411 2949.5 386.435167530411 2949.5 Z" transform="matrix(1 0 0 1 -94 -2949 )"/><path fill="none" stroke="#e4e4e4" stroke-width="1" d="M 386.435167530411 2949.5 C 386.435167530411 2949.5 389.758165644522 2949.76626587453 389.758165644522 2949.76626587453 C 389.758165644522 2949.76626587453 405.469178729503 2974 405.469178729503 2974 C 405.469178729503 2974 389.758165644522 2998.23373412547 389.758165644522 2998.23373412547 C 389.758165644522 2998.23373412547 386.435167530411 2998.5 386.435167530411 2998.5 C 386.435167530411 2998.5 99 2998.5 99 2998.5 C 96.48 2998.5 94.5 2996.52 94.5 2994 C 94.5 2994 94.5 2954 94.5 2954 C 94.5 2951.48 96.48 2949.5 99 2949.5 C 99 2949.5 386.435167530411 2949.5 386.435167530411 2949.5 Z" transform="matrix(1 0 0 1 -94 -2949 )"/></g></svg>