<svg xmlns="http://www.w3.org/2000/svg" xmlns:xlink="http://www.w3.org/1999/xlink" width="312" height="50" version="1.1"><g><path fill="#fff" fill-rule="nonzero" stroke="none" d="M 919.435167530411 3210.5 C 919.435167530411 3210.5 922.758165644522 3210.76626587453 922.758165644522 3210.76626587453 C 922.758165644522 3210.76626587453 938.469178729503 3235 938.469178729503 3235 C 938.469178729503 3235 922.758165644522 3259.23373412547 922.758165644522 3259.23373412547 C 922.758165644522 3259.23373412547 919.435167530411 3259.5 919.435167530411 3259.5 C 919.435167530411 3259.5 632 3259.5 632 3259.5 C 629.48 3259.5 627.5 3257.52 627.5 3255 C 627.5 3255 627.5 3215 627.5 3215 C 627.5 3212.48 629.48 3210.5 632 3210.5 C 632 3210.5 919.435167530411 3210.5 919.435167530411 3210.5 Z" transform="matrix(1 0 0 1 -627 -3210 )"/><path fill="none" stroke="#e4e4e4" stroke-width="1" d="M 919.435167530411 3210.5 C 919.435167530411 3210.5 922.758165644522 3210.76626587453 922.758165644522 3210.76626587453 C 922.758165644522 3210.76626587453 938.469178729503 3235 938.469178729503 3235 C 938.469178729503 3235 922.758165644522 3259.23373412547 922.758165644522 3259.23373412547 C 922.758165644522 3259.23373412547 919.435167530411 3259.5 919.435167530411 3259.5 C 919.435167530411 3259.5 632 3259.5 632 3259.5 C 629.48 3259.5 627.5 3257.52 627.5 3255 C 627.5 3255 627.5 3215 627.5 3215 C 627.5 3212.48 629.48 3210.5 632 3210.5 C 632 3210.5 919.435167530411 3210.5 919.435167530411 3210.5 Z" transform="matrix(1 0 0 1 -627 -3210 )"/></g></svg>