<svg xmlns="http://www.w3.org/2000/svg" xmlns:xlink="http://www.w3.org/1999/xlink" width="21" height="28" version="1.1"><g><path fill="#0084ff" fill-opacity=".498" fill-rule="nonzero" stroke="none" d="M 20.3933333515625 26.2022563923077 L 11.2466666484375 15.3583589923077 C 10.873333296875 14.9907692307692 10.1266666484375 14.9907692307692 9.7533333515625 15.3583589923077 L 0.419999999999997 26.3860513 C 0.233333351562496 26.5698461538462 0.046666648437498 27.1212307692308 0.233333351562496 27.3050256230769 C 0.419999999999997 27.6726153846154 0.793333351562497 27.8564102384615 1.1666666484375 27.8564102384615 L 19.8333333515625 27.8564102384615 C 20.3933333515625 27.8564102384615 20.766666703125 27.4888204769231 20.7666666484375 26.9374359153846 C 20.7666666484375 26.5698461538462 20.58 26.3860513 20.3933333515625 26.2022563923077 Z M 9.5666666484375 7.45517946923077 C 10.1266666484375 7.63897432307692 10.313333296875 7.63897432307692 10.5 7.63897437692308 C 10.6866666484375 7.63897437692308 10.8733333515625 7.63897437692308 11.06 7.45517946923077 L 17.5933333515625 1.94133331538461 C 17.966666703125 1.75753846153846 17.966666703125 1.20615384615385 17.78 0.838564084615381 C 17.5933333515625 0.47097432307692 17.22 0.287179469230765 16.8466666484375 0.287179469230765 L 3.78 0.287179469230765 C 3.4066666484375 0.287179469230765 3.0333333515625 0.47097432307692 2.8466666484375 0.838564084615381 C 2.66 1.20615384615384 2.8466666484375 1.57374355384615 3.0333333515625 1.94133331538461 L 9.5666666484375 7.45517946923077 Z" transform="matrix(1 0 0 1 -44 -45 ) matrix(1 0 0 1 44 45 )"/></g></svg>