<svg xmlns="http://www.w3.org/2000/svg" xmlns:xlink="http://www.w3.org/1999/xlink" width="55" height="55" version="1.1"><g><path fill="#0084ff" fill-opacity=".498" fill-rule="nonzero" stroke="none" d="M 32.7035159 0.82858045 C 32.5617193 0.366211216666667 32.1234375 0.0652349333333333 31.6464841 0.0652349333333333 C 10.6476568 0.0652349333333333 0 17.2732424666667 0 51.2356117 C 0 51.5583987166667 0.1332034 51.8506516 0.3738284 52.0643883 C 0.5757818 52.2345057666667 0.8335943 52.3391932666667 1.0914068 52.3391932666667 C 1.1515625 52.3391932666667 1.203125 52.3479166666667 1.2632818 52.3391932666667 C 1.3277341 52.33046875 7.7601568 51.2356117 19.6410159 51.2356117 C 19.6539068 51.2356117 19.6625 51.2356117 19.6753909 51.2356117 C 21.8066409 53.2552083333333 24.3160159 54.5550786833333 27.2808591 54.5550786833333 C 30.2671875 54.5550786833333 32.9957034 53.2552083333333 35.3289068 51.2007158666667 C 35.3761716 51.2050786833333 35.4148443 51.2356117 35.4664068 51.2356117 C 47.0980466 51.2356117 53.2082034 52.2999346166667 53.2683591 52.3086591333333 C 53.3328125 52.32174535 53.4101568 52.3391932666667 53.4703125 52.3391932666667 C 53.7238284 52.3391932666667 53.9902341 52.2694016 54.1878909 52.0992841333333 C 54.4371091 51.8855474333333 54.5617193 51.5627604166667 54.5617193 51.2356117 C 54.5617193 45.0503258 53.9730466 40.9413408666667 53.4402341 38.4942708333333 C 52.284375 39.5324224333333 50.7632818 40.1561846166667 49.1089841 40.1561846166667 L 49.0058591 40.1561846166667 C 48.4730466 43.9074867 45.3105466 46.8038408666667 41.4691409 46.8038408666667 L 36.3171875 46.8038408666667 C 35.8058591 47.4843096166667 35.3675784 48.0164716333333 35.0238284 48.3959641 C 34.9636716 48.46139295 34.8820318 48.5355474333333 34.8175784 48.6009762833333 C 34.5339841 48.9019536833333 34.375 49.0546221166667 34.375 49.0546221166667 C 32.2996091 51.0611325333333 29.8675784 52.3391932666667 27.2808591 52.3391932666667 C 22.0429693 52.3391932666667 17.5828125 47.0088541666667 13.4363284 35.9337887833333 C 13.3246091 35.4888674666667 12.8777341 35.2751307666667 12.5511716 35.2751307666667 C 11.0214841 35.16608045 9.8226568 33.853125 9.8226568 32.1912112166667 C 9.8226568 31.5281903833333 9.934375 30.6208987166667 10.3683591 30.2893883 C 10.8023443 29.9578778833333 11.6617193 30.0800133 11.6617193 30.0800133 L 12.0054693 30.0800133 C 21.0632818 30.0800133 29.6828125 20.9983721166667 32.7378909 15.1271487166667 C 36.0121091 22.2153645833333 41.45625 28.7452471166667 41.6710943 29.0767575333333 C 41.8902341 29.29921875 42.2296875 29.5260416666667 42.5605466 29.5260416666667 C 42.5605466 29.5260416666667 44.1117193 29.5260416666667 44.7433591 30.8433599333333 L 44.7433591 25.7529299666667 C 44.7433591 23.53704455 46.9261716 23.53704455 46.9261716 23.53704455 L 49.1089841 23.53704455 C 49.84375 23.53704455 50.5613284 23.6548182666667 51.2230466 23.8860028833333 C 50.4195318 12.3180341333333 43.2824216 4.06516955 33.5585943 3.63333333333333 L 32.7035159 0.82858045 Z M 32.5316409 46.8038408666667 L 36.3171875 46.8038408666667 C 36.78125 46.1888020833333 37.2882818 45.4385416666667 37.7867193 44.58795545 L 32.5316409 44.58795545 C 32.0761716 43.3055341333333 30.8816409 42.3720700333333 29.4636716 42.3720700333333 L 27.2808591 42.3720700333333 C 25.4804693 42.3720700333333 24.0066409 43.8638674666667 24.0066409 45.6958987166667 C 24.0066409 47.5235682666667 25.4804693 49.0197262833333 27.2808591 49.0197262833333 L 29.4636716 49.0197262833333 C 30.8816409 49.0197262833333 32.0761716 48.0819016 32.5316409 46.8038408666667 Z M 39.1144534 41.95768285 C 38.6976568 42.9347661833333 38.2464841 43.7984375 37.7867193 44.58795545 L 41.4691409 44.58795545 C 44.103125 44.58795545 46.3160159 42.6774091333333 46.8230466 40.1561846166667 C 46.8230466 40.1561846166667 44.7433591 40.1561846166667 44.7433591 37.9402992 L 44.7433591 33.5085283666667 C 44.7433591 34.94798205 42.0148443 35.2751307666667 42.0148443 35.2751307666667 C 41.5808591 35.2751307666667 41.1339841 35.7287766 41.0265625 36.1736979166667 C 40.6441409 37.9359375 40.1113284 39.6458333333333 39.4238284 41.2990237166667 C 39.325 41.4909508 39.221875 41.7003258 39.1144534 41.95768285 Z M 49.1089841 25.7529299666667 L 47 25.7529299666667 L 47 37.9402992 L 49.1089841 37.9402992 C 51.5066409 37.9402992 53.4703125 35.946875 53.4703125 33.5085283666667 L 53.4703125 30.1847008 C 53.4703125 27.7507158666667 51.5066409 25.7529299666667 49.1089841 25.7529299666667 Z" transform="matrix(1 0 0 1 -27 -27 ) matrix(1 0 0 1 27 27 )"/></g></svg>