<svg xmlns="http://www.w3.org/2000/svg" xmlns:xlink="http://www.w3.org/1999/xlink" width="55" height="55" version="1.1"><g><path fill="#0084ff" fill-rule="nonzero" stroke="none" d="M 30.1493642570694 5.36212679221152 C 29.7345636713703 4.64400193737131 28.968083751117 4.20946731966418 28.1520089743313 5 L 3.14223858933442 5 C 3.07009935703883 4.21861482523818 3.00246853820491 4.21861482523818 2.93032930590943 4.21861482523818 C 2.85819007361407 4.21861482523818 2.78605084131848 4.21861482523818 2.71842117671229 4.21861482523818 C 1.63182312459077 4.42444775212413 0.851817963952813 5.39871915641946 1 6.52393377033331 L 1 52.6531837780752 C 0.869852772026739 53.9247678488199 1.89332841877576 54.9585027231699 3.14223858933442 55 L 48.6124981570237 55 C 49.8659178952715 54.9585027231699 50.8848839743314 53.9247678488199 51 52.6531837780752 L 51 27.2809529527158 C 50.8939019554821 26.4530510052517 50.4700833886323 25.6800364331446 49.7577090468282 25.2546504919669 C 49.0498431184858 24.8429869801065 48.1796627632507 24.8429869801065 47.4672884214467 25.2546504919669 C 46.7549129254149 25.6800364331446 46.3310955127929 26.4530510052517 45 27.2809529527158 L 45 50 L 7 50 L 7 10 L 28.1520089743313 10 C 28.968083751117 8.83840139195749 29.7345636713703 8.40844052703759 30.1493642570694 7.68574191941016 C 30.5596552750792 6.96761706456995 30.5596552750792 6.08482539983895 30.1493642570694 5.36212679221152 Z M 44.5553217830433 1.67452730410543 L 43.0537431318682 3.13474586713946 L 51.8765518551588 12.0854213835213 L 53.3117613507326 10.5578728703447 C 54.5727551312577 9.28281167020204 54.5727551312577 7.39336521364946 53.3117613507326 6.11830401350685 L 48.9356159680251 1.67452730410543 C 48.3051190777625 1.03489277775208 47.496257670177 0.677202686939777 46.7122848286783 0.677202686939777 C 45.9283109252899 0.677202686939777 45.1858186733059 1.03489277775208 44.5553217830433 1.67452730410543 Z M 48.7365116868895 15.8643142966265 L 50.8312543791972 13.7434208671395 L 41.6143848340201 4.39297457974606 L 39.3246856009615 6.31608601137019 L 48.7365116868895 15.8643142966265 Z M 47.2349330357143 17.3876549572391 L 43.7049797859433 13.541431016712 L 43.7049797859433 13.7434208671395 L 41.2203250740232 11.2227566666409 L 41.4194293551587 11.2227566666409 L 38.0844326461385 7.83942667198277 L 19.1944134424603 26.8054311947746 C 19.0948613018926 26.8895936324528 19.0160489251374 26.9695482175669 18.9330888079976 27.0705431427806 L 18.8003526205739 27.1378730929228 C 18.5722130948565 27.4029850409287 18.4187360817308 27.7270101566695 18.3440725072497 28.0636599073817 L 15.797196380113 37.1489953240483 C 15.5732045947802 37.8770001406435 15.7723088759157 38.6849595423532 16.3032536256105 39.2235991434928 C 16.8341983753053 39.7622387446324 17.6264677594628 39.9600207424958 18.3440725072497 39.7369905519683 L 27.299617417964 37.1489953240483 C 27.9052257421398 37.0101275711995 28.4112829876374 36.5851064529658 28.6726065602106 36.0212186591624 L 47.2349330357143 17.3876549572391 Z" transform="matrix(1 0 0 1 -27 -27 ) matrix(1 0 0 1 27 27 )"/></g></svg>