<?xml version="1.0" encoding="utf-8"?>
<svg version="1.1" xmlns:xlink="http://www.w3.org/1999/xlink" width="30px" height="30px" xmlns="http://www.w3.org/2000/svg">
  <g transform="matrix(1 0 0 1 -75 -1024 )">
    <path d="M 90 1025  C 97.84 1025  104 1031.16  104 1039  C 104 1046.84  97.84 1053  90 1053  C 82.16 1053  76 1046.84  76 1039  C 76 1031.16  82.16 1025  90 1025  Z " fill-rule="nonzero" fill="#ffffff" stroke="none" />
    <path d="M 90 1025  C 97.84 1025  104 1031.16  104 1039  C 104 1046.84  97.84 1053  90 1053  C 82.16 1053  76 1046.84  76 1039  C 76 1031.16  82.16 1025  90 1025  Z " stroke-width="2" stroke="#cccccc" fill="none" />
  </g>
</svg>