<?xml version="1.0" encoding="utf-8"?>
<svg version="1.1" xmlns:xlink="http://www.w3.org/1999/xlink" width="312px" height="50px" xmlns="http://www.w3.org/2000/svg">
  <g transform="matrix(1 0 0 1 -94 -2949 )">
    <path d="M 386.435167530411 2949.5  C 386.435167530411 2949.5  389.758165644522 2949.76626587453  389.758165644522 2949.76626587453  C 389.758165644522 2949.76626587453  405.469178729503 2974  405.469178729503 2974  C 405.469178729503 2974  389.758165644522 2998.23373412547  389.758165644522 2998.23373412547  C 389.758165644522 2998.23373412547  386.435167530411 2998.5  386.435167530411 2998.5  C 386.435167530411 2998.5  99 2998.5  99 2998.5  C 96.48 2998.5  94.5 2996.52  94.5 2994  C 94.5 2994  94.5 2954  94.5 2954  C 94.5 2951.48  96.48 2949.5  99 2949.5  C 99 2949.5  386.435167530411 2949.5  386.435167530411 2949.5  Z " fill-rule="nonzero" fill="#0079fe" stroke="none" />
    <path d="M 386.435167530411 2949.5  C 386.435167530411 2949.5  389.758165644522 2949.76626587453  389.758165644522 2949.76626587453  C 389.758165644522 2949.76626587453  405.469178729503 2974  405.469178729503 2974  C 405.469178729503 2974  389.758165644522 2998.23373412547  389.758165644522 2998.23373412547  C 389.758165644522 2998.23373412547  386.435167530411 2998.5  386.435167530411 2998.5  C 386.435167530411 2998.5  99 2998.5  99 2998.5  C 96.48 2998.5  94.5 2996.52  94.5 2994  C 94.5 2994  94.5 2954  94.5 2954  C 94.5 2951.48  96.48 2949.5  99 2949.5  C 99 2949.5  386.435167530411 2949.5  386.435167530411 2949.5  Z " stroke-width="1" stroke="#e4e4e4" fill="none" />
  </g>
</svg>