<?xml version="1.0" encoding="utf-8"?>
<svg version="1.1" xmlns:xlink="http://www.w3.org/1999/xlink" width="14px" height="20px" xmlns="http://www.w3.org/2000/svg">
  <g transform="matrix(1 0 0 1 -47 -60 )">
    <path d="M 5.91718688476563 19.9790659375  L 5.91718688476563 15.49963796875  L 0.82140026171875 15.49963796875  L 0.82140026171875 13.63508390625  L 5.91718688476563 13.63508390625  L 5.91718688476563 11.6983716796875  L 0.82140026171875 11.6983716796875  L 0.82140026171875 9.689813671875  L 4.9762883515625 9.689813671875  L 0.01082372265625 0.0040659375  L 2.48169367578125 0.0040659375  L 6.04105837890625 7.0433901171875  C 6.43650690429688 7.8468133203125  6.74514698046875 8.54449828125  6.968946578125 9.133946015625  C 7.1644295625 8.65757728515625  7.50357286328125 7.91897146484375  7.98582982421875 6.918284765625  L 11.3627218632812 0.0040659375  L 13.9877478671875 0.0040659375  L 9.00719562695312 9.68965748046875  L 13.19892809375 9.68965748046875  L 13.19892809375 11.6985278515625  L 8.12489825 11.6985278515625  L 8.12489825 13.635240078125  L 13.19892809375 13.635240078125  L 13.19892809375 15.49963796875  L 8.12489825 15.49963796875  L 8.12489825 19.9790659375  L 5.91729621875 19.9790659375  Z " fill-rule="nonzero" fill="#0084ff" stroke="none" fill-opacity="0.498039215686275" transform="matrix(1 0 0 1 47 60 )" />
  </g>
</svg>