<?xml version="1.0" encoding="utf-8"?>
<svg version="1.1" xmlns:xlink="http://www.w3.org/1999/xlink" width="22px" height="22px" xmlns="http://www.w3.org/2000/svg">
  <g transform="matrix(1 0 0 1 -1070 -387 )">
    <path d="M 21.6988574 13.7625604285715  L 16.3808274142857 16.1237563142856  C 16.2594111428572 16.1724407428572  13.7825204 21.6981259  13.7825204 21.6981259  C 13.5639713 22.2093127142858  12.738341 22.0389170571429  12.5197917428571 21.4303615428571  L 7.9059757857143 8.65069307142855  C 7.71170983000002 8.13950625714284  8.12452488571432 7.72568845714281  8.65875622857141 7.89608395714288  L 21.4317417285714 12.4724224428572  C 22.0388227714285 12.7158447428572  22.2088054571428 13.5191381285714  21.6988574 13.7625604285715  Z M 8.70157199999994 14.3690859714286  C 8.54774925714287 14.3690859714286  8.41955965714294 14.3957262428571  8.2657408428571 14.3946348857143  C 4.66508818285718 14.3690859714286  2.89750846000004 11.5316879857143  2.89750846000004 8.63548887142856  C 2.89750846000004 5.63865751428571  5.44105585571424 2.8707297142857  8.66535088571425 2.8707297142857  C 11.8896457428572 2.8707297142857  14.4386190142858 4.38942349999996  14.4642557714286 7.74833211428572  C 14.4654257 7.90162041428575  14.4642557714286 8.0293687571429  14.4386185428572 8.18266145714283  L 17.2599514999999 8.92357651428573  C 17.2855887285714 8.66808862857147  17.2855887285714 8.43814949999995  17.2855887285714 8.18266161428569  C 17.3112258 3.40503899999997  13.4082207285715 0  8.63971397142848 0  C 3.87120713571426 0  0 3.85786641428571  0 8.63548902857144  C 0 13.4131117999999  3.40961305142855 17.2857142857142  8.20375694285713 17.2857142857142  C 8.46012828571429 17.2857142857142  8.71649962857134 17.2601655285714  8.97287097142862 17.2601655285714  L 8.70157199999994 14.3690859714286  Z " fill-rule="nonzero" fill="#0079fe" stroke="none" transform="matrix(1 0 0 1 1070 387 )" />
  </g>
</svg>