<?xml version="1.0" encoding="utf-8"?>
<svg version="1.1" xmlns:xlink="http://www.w3.org/1999/xlink" width="19px" height="26px" xmlns="http://www.w3.org/2000/svg">
  <g transform="matrix(1 0 0 1 -72 -682 )">
    <path d="M 15.5336106975152 13.2489368377335  C 15.6871597621295 12.2973214532133  15.6661325948297 11.4045702076071  15.4691109937326 10.5719462767061  C 15.76394937168 10.7847626728628  16.1486784301397 10.8801880893411  16.5699544450432 10.8185424974138  C 17.3055247036638 10.7105475301723  17.8192233108836 10.2903338939655  18.1574960237069 9.77162084913789  C 18.4282862338362 9.31758785862075  18.5508514035561 8.9078331146552  18.5187407731681 8.46419019482755  C 18.4554512607759 7.55915172327582  17.7119967052802 6.99192869655167  16.7889232300647 7.13838761551733  C 16.6280135636215 7.16391267789254  16.4717248379594 7.20980614704649  16.3224271997045 7.27289842443179  C 16.4685227562965 7.10045815533431  16.589205249065 6.91025607969755  16.6874118965517 6.71065988965506  C 16.9173111530173 6.19146519482752  16.9942906950431 5.73798264224138  16.9012916998922 5.26674749137942  C 16.7135376239224 4.30535486034478  15.8428231196121 3.78860284310349  14.8736264709052 4.05812582499993  C 14.4818887697745 4.16699559904987  14.1312542112398 4.39016482687816  13.8481578549648 4.68167354013326  C 13.8852392127892 4.59450753347232  13.917819012678 4.50567250560721  13.9462062957975 4.41574878706888  C 14.0979434375 3.85774609999999  14.1050751212284 3.38799032672409  13.9374977316811 2.92497778793108  C 13.5977198275862 1.97996155948272  12.6368733324353 1.58266116293112  11.6988913577587 1.99423932500008  C 11.3226556179969 2.15938122483522  11.0049104203184 2.43251334717979  10.7647649156106 2.76450895212747  C 10.7865548816235 2.36107734970642  10.7279895070187 1.99709081589231  10.5758290568965 1.64237993067536  C 10.1314980224138 0.600322685344736  9.03462140862069 0.216098752514426  8.02059024224138 0.741442275502777  C 7.43836024823003 1.04312358596462  7.00498026127184 1.58612718175414  6.77265849666816 2.20447990879484  C 6.6046781232742 1.6495576298903  6.29776278902301 1.1343162110777  5.81722969899425 0.69449502955672  C 4.68345641702592 -0.342842532019631  3.07989772701148 -0.185860807881909  2.19936371659486 1.04197808128083  C 1.18771122521554 2.45487914285718  1.53336890696841 4.65531008620701  2.93222224712645 5.70716298029561  C 3.41815739329223 6.07186750741903  3.96634897058783 6.23849077367504  4.49760934635384 6.22076152846921  C 4.23119464737778 6.4976131816743  3.99716781810179 6.82455891915765  3.79801401115623 7.20683799389371  C 2.9575280469067 8.81917930809982  2.75456315720083 10.4541581447559  3.39108243407702 12.1632017263828  C 3.57352619421908 12.6560308099856  3.74364514350913 13.1547731074893  3.89242334026363 13.6581146102731  C 4.21739181921907 14.7580654072378  4.03160881262681 15.7823387459591  3.3834022028397 16.7360415566632  C 2.96138335116632 17.3532874461207  2.45545859026367 17.8887335847701  1.89889884584176 18.3800992928341  C 1.5111527175456 18.7235744746768  1.18399855755581 19.1176704786278  0.920623814908765 19.5612524896731  C 0.582632322261645 20.128415079472  0.362030186866093 20.7387024492637  0.274572508874257 21.3939065059267  C 0.160370600659235 22.2483386853448  0.250287147565928 23.073383901311  0.621367450557841 23.8504662558369  C 1.10853177763687 24.8692146237429  1.91492716353952 25.5159967852012  2.99814529107505 25.7940680226293  C 4.45201873630833 26.1685428520116  5.83807528524341 25.9969994118176  7.12614044802228 25.1520642308728  C 7.869879604716 24.6650886494253  8.536027025355 24.0859801499641  9.15175198478704 23.448844295528  C 10.7897995086207 21.7521348958333  12.2374498235295 19.9025774066092  13.5503467530426 17.9474477999281  C 14.3429905451318 16.7673099946121  14.9698260547668 15.5005343862249  15.3560847048682 14.124453596444  C 15.4159481227181 13.8321667025862  15.4854953078094 13.5421794113686  15.5336106975152 13.2489368377335  Z M 9.7930289241379 3.15097806142239  C 9.69260288189656 3.56162634806037  9.45669289051727 3.9450140549568  9.00661634913791 4.17152786206884  C 8.49757090000003 4.42747644288784  7.94135723706898 4.25290827298841  7.67235033275858 3.76057853017232  C 7.29909851293098 3.07755838541675  7.61107635689655 2.08360019683914  8.31213195172415 1.72044890912366  C 8.87457280517242 1.42911172270124  9.48290892586203 1.64207888541659  9.72934663103456 2.22013732902292  C 9.85069045775867 2.50314585811793  9.86479621982761 2.79689134123555  9.7930289241379 3.15097806142239  Z M 5.85917422701147 3.13768896551733  C 5.87489506537355 3.57350906650254  5.79605673814649 3.94504231034489  5.59074929777296 4.28751213300484  C 5.14805724389367 5.0252705221676  4.2488923563219 5.21501823399012  3.53593576113508 4.72100581034488  C 2.67868193031603 4.12558275615766  2.42216473024422 2.82313574630552  2.99179416810347 1.95945775615769  C 3.48780326580459 1.20875681034477  4.43891379058903 1.07985550246303  5.13788890912355 1.67236239408862  C 5.60506532363507 2.06850287684733  5.81963799568967 2.58561527586198  5.85917422701147 3.13768896551733  Z M 12.4114537877156 5.04486511637924  C 11.9707925565733 5.23198987327578  11.5128933674569 5.05996857241371  11.3130261072199 4.63872281465524  C 11.0355342429957 4.05429766120687  11.3497240005388 3.24559110603445  11.9572817322199 2.97902691293098  C 12.444854612069 2.76506682758622  12.9442539547414 2.971526775862  13.1208983189655 3.46271641120688  C 13.2079123760776 3.70337418189661  13.2041494154095 3.94750681896562  13.1253421686422 4.23746593534474  C 13.0195132381465 4.57283866896546  12.8012612042025 4.87924300948271  12.4114537877156 5.04486511637924  Z M 16.7436243238147 8.13793458534474  C 17.1646823114224 8.07112149999989  17.503600086207 8.32980715517238  17.5326286799569 8.74265826379315  C 17.5471429768319 8.94505854741374  17.4913435587285 9.13197687327579  17.367810778556 9.33905611465525  C 17.2134933539871 9.57548218362081  16.9793651751078 9.76714832241373  16.6438161233836 9.81631202500012  C 16.2644374946121 9.87184049396546  15.9500685668103 9.648040775862  15.8879258701509 9.28431894224127  C 15.8017718723061 8.7797116594827  16.2188876939655 8.22119289482748  16.7436243238147 8.13793458534474  Z M 14.1239360829741 6.50179162413792  C 13.9516997413793 5.9280317939656  14.3553763927802 5.22549678793098  14.9518244127156 5.05966824999996  C 15.4305453502155 4.92662697844821  15.8604552451509 5.18173455172405  15.9531317268319 5.65651335689654  C 15.9990041109914 5.8891549465518  15.9610877478448 6.11312670172401  15.847446174569 6.369541649138  C 15.7025182381466 6.66414532931026  15.4584988523707 6.91725748103454  15.0765398706897 7.01868121724146  C 14.6446230657327 7.13317859396557  14.2481139601293 6.91512438275868  14.1239360829741 6.50179162413792  Z M 13.3185793919208 5.47350449637543  C 13.1102218513548 5.95431449126227  13.0505620268444 6.4893553414388  13.1973505765086 6.97822181034485  C 13.2106385323939 7.02248110337723  13.2254673321026 7.06563411250522  13.2417660971795 7.10763990891019  C 12.7874018363933 6.72357297669828  12.2984569906068 6.39542486417758  11.7826791005111 6.11061462034809  C 12.0384467295812 6.1268868910754  12.3072541315359 6.08189152544287  12.5728670689655 5.96913553017248  C 12.8713500803668 5.84228945391055  13.1175193825338 5.67256952414346  13.3185793919208 5.47350449637543  Z M 15.4583318587167 7.91162157018062  C 15.1638236294617 8.25342706679226  14.9627020257115 8.67280005655016  14.9048792363308 9.10299144007536  C 14.6947590411791 8.71843147726895  14.4391296593378 8.34954275265841  14.1378059871345 7.9964901359308  C 14.4349503881433 8.10274706579185  14.7747878891887 8.11829300263912  15.1261752505388 8.02514345862073  C 15.2431939356856 7.99407901692166  15.3538222874059 7.95598051514412  15.4583318587167 7.91162157018062  Z M 10.7333739419846 5.60174155767618  C 10.5619735806592 5.52873492811977  10.3884438686334 5.45916307766447  10.2130222591278 5.39264042295258  C 9.92626946043896 5.28399163109475  9.63738593913848 5.19327672313011  9.34615729956266 5.12245059652969  C 9.74244173195279 4.90845222046596  10.0421667466563 4.62472660623871  10.2633926079707 4.30103010901053  C 10.265420597807 4.60808405179728  10.3278377360626 4.91099188645876  10.4591911853448 5.18778038103437  C 10.5333921355718 5.34411584553641  10.626051098424 5.48260873388381  10.7333739419846 5.60174155767618  Z M 1.45174466227178 20.9120079988327  C 2.35570647870185 18.8141246228449  3.35550440720078 18.450042730783  4.07975454994931 17.5069717919362  C 4.60307371627795 16.8254568606321  5.11862154918867 15.5347894037357  5.03747807403653 14.2842303789512  C 4.94161161435085 12.804847189296  3.48746498123734 10.5397208737427  4.34155071222108 8.51363249595897  C 4.82974715491889 7.35580371093761  5.48490547515217 6.19176303654808  7.21390166151122 6.06886934716226  C 9.72855964122715 5.88994928834404  12.0900073372211 7.40687251706186  12.9829496759635 8.2684424097522  C 14.4756190040568 9.70932979301369  14.9698868093306 11.4636484195403  14.3304836189148 13.9565835084411  C 13.9190289120182 15.5601147135417  13.1047407725659 16.8948626302083  12.3831923686613 17.9691894127154  C 11.1879883615619 19.7492216213182  10.4314690611055 20.7578458423131  8.94043900862067 22.3023940418464  C 8.6075170808823 22.646854759339  6.1839292134888 25.7405503345008  3.06335152104458 24.8165331335308  C 1.65838274087218 24.4005760641164  0.912245380831621 22.1638512055495  1.45174466227178 20.9120079988327  Z M 6.95629474594324 5.0181655935703  C 6.76000338146986 5.0497320929735  6.56981443150187 5.08995876505674  6.40642655567524 5.10862716256156  C 6.5798932326976 4.84289510935582  6.70627136754104 4.56455881494117  6.79149585639937 4.26753767249579  C 6.81471535973628 4.31909569300456  6.8399226122898 4.36984829351968  6.86715300431035 4.41968296623554  C 6.98747553058405 4.63987666786579  7.1396689097466 4.82481301074858  7.3145287388524 4.97139025790989  C 7.19555853281162 4.98319008942303  7.0761515259897 4.99874243881027  6.95629474594324 5.0181655935703  Z " fill-rule="nonzero" fill="#0079fe" stroke="none" transform="matrix(1 0 0 1 72 682 )" />
  </g>
</svg>