<?xml version="1.0" encoding="utf-8"?>
<svg version="1.1" xmlns:xlink="http://www.w3.org/1999/xlink" width="22px" height="22px" xmlns="http://www.w3.org/2000/svg">
  <g transform="matrix(1 0 0 1 -459 -392 )">
    <path d="M 6.07291666666674 10.0403645833333  L 11.0716145833333 16.8151041666667  L 16.0846354166667 10.0403645833333  C 16.2374131944444 9.83029513888891  16.3543836805556 9.54861111111109  16.435546875 9.1953125  C 16.5167100694444 8.84201388888891  16.4880642361111 8.43619791666674  16.349609375 7.97786458333326  C 16.2111545138889 7.51953125  15.9175347222222 7.14236111111109  15.46875 6.84635416666674  C 15.0868055555556 6.59809027777771  14.6905381944444 6.47634548611109  14.2799479166667 6.48111979166674  C 13.8693576388889 6.48589409722229  13.5184461805556 6.56944444444446  13.2272135416667 6.73177083333326  C 12.9359809027778 6.89409722222229  12.67578125 7.10894097222229  12.4466145833333 7.37630208333326  C 12.1028645833333 7.75824652777771  11.64453125 7.94921875  11.0716145833333 7.94921875  C 10.5082465277778 7.94921875  10.0546875 7.75824652777771  9.7109375 7.37630208333326  C 9.48177083333326 7.10894097222229  9.2215711805556 6.89409722222229  8.93033854166674 6.73177083333326  C 8.63910590277777 6.56944444444446  8.2881944444444 6.48589409722229  7.87760416666674 6.48111979166674  C 7.46701388888886 6.47634548611109  7.06597222222223 6.59809027777771  6.67447916666674 6.84635416666674  C 6.2352430555556 7.14236111111109  5.9463975694444 7.51953125  5.80794270833326 7.97786458333326  C 5.66948784722223 8.43619791666674  5.64084201388886 8.84201388888891  5.72200520833326 9.1953125  C 5.80316840277777 9.54861111111109  5.92013888888886 9.83029513888891  6.07291666666674 10.0403645833333  Z M 20.5247395833333 5.478515625  C 21.5082465277778 7.16384548611109  22 9.00434027777771  22 11  C 22 12.9956597222223  21.5082465277778 14.8361545138889  20.5247395833333 16.521484375  C 19.5412326388889 18.2068142361111  18.2068142361111 19.5412326388889  16.521484375 20.5247395833333  C 14.8361545138889 21.5082465277777  12.9956597222222 22  11 22  C 9.00434027777777 22  7.16384548611114 21.5082465277777  5.478515625 20.5247395833333  C 3.79318576388886 19.5412326388889  2.45876736111114 18.2068142361111  1.47526041666674 16.521484375  C 0.491753472222229 14.8361545138889  0 12.9956597222223  0 11  C 0 9.00434027777771  0.491753472222229 7.16384548611109  1.47526041666674 5.478515625  C 2.45876736111114 3.79318576388891  3.79318576388886 2.45876736111109  5.478515625 1.47526041666674  C 7.16384548611114 0.491753472222285  9.00434027777777 0  11 0  C 12.9956597222222 0  14.8361545138889 0.491753472222285  16.521484375 1.47526041666674  C 18.2068142361111 2.45876736111109  19.5412326388889 3.79318576388891  20.5247395833333 5.478515625  Z " fill-rule="nonzero" fill="#0079fe" stroke="none" transform="matrix(1 0 0 1 459 392 )" />
  </g>
</svg>