<?xml version="1.0" encoding="utf-8"?>
<svg version="1.1" xmlns:xlink="http://www.w3.org/1999/xlink" width="17px" height="22px" xmlns="http://www.w3.org/2000/svg">
  <g transform="matrix(1 0 0 1 -777 -639 )">
    <path d="M 15.6125667933558 9.37276359898806  L 14.0697231137387 9.37276359898806  L 14.0697231137387 5.75896094244149  C 14.0697231137387 2.7324667931689  11.6273120073198 0.271347248576831  8.62236254222972 0.271347248576831  C 5.61730081644146 0.271347248576831  3.17219545326577 2.7324667931689  3.17219545326577 5.75896094244149  L 3.17219545326577 9.37276359898806  L 1.63065399774774 9.37276359898806  C 0.887353462837837 9.37276359898806  0.284940104166651 9.97940559772292  0.284940104166651 10.7280752688173  L 0.284940104166651 20.6223682795699  C 0.284940104166651 21.3723720746364  0.88737591497744 21.9791045224542  1.63065399774774 22  L 15.6139588260135 22  C 16.3573716216216 21.9791045224542  16.9583929476351 21.3723720746364  16.9583929476351 20.6223682795699  L 16.9583929476351 10.7280752688173  C 16.9582806869369 9.97936037318163  16.3560693975225 9.37276359898806  15.6125443412162 9.37276359898806  Z M 9.37805665822071 15.9330808032892  L 9.37805665822071 18.0936606578116  C 9.37805665822071 18.190169829222  9.29875570101348 18.271574003795  9.20142567567569 18.271574003795  L 8.04462408502252 18.271574003795  C 7.94610409628376 18.271574003795  7.86669087837834 18.190169829222  7.86669087837834 18.0936606578116  L 7.86669087837834 15.9330808032892  C 7.32321438626127 15.6531635041115  6.94678181306307 15.0920173940544  6.94678181306307 14.434271663504  C 6.94678181306307 13.503663662239  7.69697515484233 12.7466952877926  8.62110522240988 12.7466952877926  C 9.54651506193693 12.7466952877926  10.2968206644144 13.5036410499683  10.2968206644144 14.434271663504  C 10.2981004363739 15.0920173940544  9.92166786317568 15.6531635041115  9.37807911036037 15.9330808032892  Z M 11.9792043918919 9.37276359898806  L 5.26543088400899 9.37276359898806  L 5.26543088400899 5.848505534472  C 5.26543088400899 3.98434993674891  6.77268792229728 2.46632036685651  8.62364231418917 2.46632036685651  C 10.4745967060811 2.46632036685651  11.9791819397522 3.98434993674891  11.9791819397522 5.848505534472  L 11.9791819397522 9.37276359898806  Z " fill-rule="nonzero" fill="#0079fe" stroke="none" transform="matrix(1 0 0 1 777 639 )" />
  </g>
</svg>