<?xml version="1.0" encoding="utf-8"?>
<svg version="1.1" xmlns:xlink="http://www.w3.org/1999/xlink" width="22px" height="22px" xmlns="http://www.w3.org/2000/svg">
  <g transform="matrix(1 0 0 1 -247 -392 )">
    <path d="M 5.13075854973124 0.0854971703552678  C 2.32101529027454 0.0854971703552678  0.0107819447484871 2.37115356539704  0.0107819447484871 5.15100593911467  C 0.0107819447484871 7.93085831283247  2.32101529027454 10.2165147078742  5.13075854973124 10.2165147078742  L 10.2507351547139 10.2165147078742  L 10.2507351547139 5.15100593911467  C 10.1882963962653 2.37115356539704  7.94050178357816 0.0854971703552678  5.13075854973124 0.0854971703552678  Z M 8.62732792163501 8.61037776450894  L 5.06831979128265 8.61037776450894  C 3.13271889400926 8.61037776450894  1.50931166093028 7.06601533748102  1.50931166093028 5.0892314227774  C 1.50931166093028 3.17422202441111  3.07028013556067 1.56808508104586  5.06831979128265 1.56808508104586  C 7.00392068855604 1.56808508104586  8.62732792163501 3.11244750807367  8.62732792163501 5.0892314227774  L 8.62732792163501 8.61037776450894  Z M 21.9892180552515 5.15100593911467  C 21.9892180552515 2.37115356539704  19.6789847097255 0.0854971703552678  16.8692414502688 0.0854971703552678  C 14.0594981908122 0.0854971703552678  11.7492648452861 2.37115356539704  11.7492648452861 5.15100593911467  L 11.7492648452861 10.2165147078742  L 16.8692414502688 10.2165147078742  C 19.7414234425644 10.1547401915367  21.9892180552515 7.93085831283247  21.9892180552515 5.15100593911467  Z M 13.372672078365 5.15100593911467  C 13.372672078365 3.23599654074849  14.9336405529954 1.62985959738313  16.9316802087174 1.62985959738313  C 18.8672811059907 1.62985959738313  20.4906883390697 3.17422202441111  20.4906883390697 5.15100593911467  C 20.4906883390697 7.06601533748102  18.9297198644393 8.67215228084626  16.9316802087174 8.67215228084626  L 13.372672078365 8.67215228084626  L 13.372672078365 5.15100593911467  Z M 0.0107819447484871 16.7646113873243  C 0.0107819447484871 19.544463761042  2.32101529027454 21.8301201560839  5.13075854973124 21.8301201560839  C 7.94050180918782 21.8301201560839  10.2507351547139 19.544463761042  10.2507351547139 16.7646113873243  L 10.2507351547139 11.6991026185647  L 5.13075854973124 11.6991026185647  C 2.25857655743573 11.760877109565  0.0107819447484871 13.9847590136066  0.0107819447484871 16.7646113873243  Z M 8.62732792163501 16.7646113873243  C 8.62732792163501 18.6796207856905  7.06635944700463 20.2857577290558  5.06831979128265 20.2857577290558  C 3.13271889400926 20.2857577290558  1.50931166093028 18.7413953020279  1.50931166093028 16.7646113873243  C 1.50931166093028 14.8496019889581  3.07028013556067 13.2434650455928  5.06831979128265 13.2434650455928  L 8.62732792163501 13.2434650455928  L 8.62732792163501 16.7646113873243  Z M 16.8692414502688 11.760877109565  L 11.7492648452861 11.760877109565  L 11.7492648452861 16.8263858783245  C 11.7492648452861 19.6062382520421  14.0594981908122 21.891894647084  16.8692414502688 21.891894647084  C 19.6789847097255 21.891894647084  21.9892180552515 19.6062382520421  21.9892180552515 16.8263858783245  C 21.9892180552515 14.0465335046068  19.7414234425644 11.760877109565  16.8692414502688 11.760877109565  Z M 16.8692414502688 20.2857577037187  C 14.9336405529954 20.2857577037187  13.3102333199165 18.7413952766906  13.3102333199165 16.7646113619871  L 13.3102333199165 13.2434650202555  L 16.8692414502688 13.2434650202555  C 18.8048423475423 13.2434650202555  20.4282495806211 14.7878274472835  20.4282495806211 16.7646113619871  C 20.4282495806211 18.7413952766906  18.8672811059907 20.2857577037187  16.8692414502688 20.2857577037187  Z " fill-rule="nonzero" fill="#0079fe" stroke="none" transform="matrix(1 0 0 1 247 392 )" />
  </g>
</svg>