<?xml version="1.0" encoding="utf-8"?>
<svg version="1.1" xmlns:xlink="http://www.w3.org/1999/xlink" width="21px" height="22px" xmlns="http://www.w3.org/2000/svg">
  <g transform="matrix(1 0 0 1 -891 -437 )">
    <path d="M 20.8421052631579 13.9333333333333  C 20.8421052631579 15.1477333333333  19.8416842105263 16.1333333333333  18.6090225563911 16.1333333333333  C 17.3763609022557 16.1333333333333  16.375939849624 15.1477333333333  16.375939849624 13.9333333333333  L 16.375939849624 11  C 16.375939849624 10.0452  17.0012030075187 9.25173333333328  17.8646616541353 8.94813333333332  L 17.8646616541353 8.79999999999995  C 17.8646616541353 4.75053333333335  14.5314135338347 1.4666666666667  10.421052631579 1.4666666666667  C 6.31069172932325 1.4666666666667  2.97744360902254 4.75053333333335  2.97744360902254 8.79999999999995  L 2.97744360902254 8.94813333333332  C 3.84090225563909 9.25173333333328  4.46616541353387 10.0452  4.46616541353387 11  L 4.46616541353387 13.9333333333333  C 4.46616541353387 15.1477333333333  3.46574436090225 16.1333333333333  2.23308270676694 16.1333333333333  C 1.00042105263162 16.1333333333333  0 15.1477333333333  0 13.9333333333333  L 0 11  C 0 10.0452  0.625263157894665 9.25173333333328  1.48872180451121 8.94813333333332  L 1.48872180451121 8.79999999999995  C 1.48872180451121 3.9394666666667  5.48742857142861 0  10.421052631579 0  C 15.3546766917293 0  19.3533834586467 3.9394666666667  19.3533834586467 8.79999999999995  L 19.3533834586467 8.94813333333332  C 20.2168421052633 9.25173333333328  20.8421052631579 10.0452  20.8421052631579 11  L 20.8421052631579 13.9333333333333  Z M 2.97744360902254 11  C 2.97744360902254 10.5952  2.64396992481204 10.2666666666667  2.23308270676694 10.2666666666667  C 1.82219548872183 10.2666666666667  1.48872180451121 10.5952  1.48872180451121 11  L 1.48872180451121 13.9333333333333  C 1.48872180451121 14.3381333333333  1.82219548872183 14.6666666666666  2.23308270676694 14.6666666666666  C 2.64396992481204 14.6666666666666  2.97744360902254 14.3381333333333  2.97744360902254 13.9333333333333  L 2.97744360902254 11  Z M 19.3533834586467 13.9333333333333  L 19.3533834586467 11  C 19.3533834586467 10.5952  19.0199097744361 10.2666666666667  18.6090225563911 10.2666666666667  C 18.1981353383459 10.2666666666667  17.8646616541353 10.5952  17.8646616541353 11  L 17.8646616541353 13.9333333333333  C 17.8646616541353 14.3381333333333  18.1981353383459 14.6666666666666  18.6090225563911 14.6666666666666  C 19.0199097744361 14.6666666666666  19.3533834586467 14.3381333333333  19.3533834586467 13.9333333333333  Z M 19.3533834586467 16.1333333333333  C 19.3533834586467 19.3732  16.3536090225564 22  12.6541353383459 22  L 9.67669172932335 22  C 9.26580451127825 22  8.93233082706774 21.6714666666667  8.93233082706774 21.2666666666667  L 8.93233082706774 19.8  C 8.93233082706774 19.3951999999999  9.26580451127825 19.0666666666667  9.67669172932335 19.0666666666667  L 12.6541353383459 19.0666666666667  C 13.065022556391 19.0666666666667  13.3984962406015 19.3951999999999  13.3984962406015 19.8  L 13.3984962406015 20.4702666666667  C 15.9203909774437 20.1622666666668  17.8646616541353 18.348  17.8646616541353 16.1333333333333  L 18.6090225563911 16.1333333333333  L 19.3533834586467 16.1333333333333  Z " fill-rule="nonzero" fill="#0079fe" stroke="none" transform="matrix(1 0 0 1 891 437 )" />
  </g>
</svg>