<?xml version="1.0" encoding="utf-8"?>
<svg version="1.1" xmlns:xlink="http://www.w3.org/1999/xlink" width="13px" height="22px" xmlns="http://www.w3.org/2000/svg">
  <g transform="matrix(1 0 0 1 -549 -197 )">
    <path d="M 12.7766323024055 10.4929859719439  C 12.9255441008018 10.6399465597863  13 10.8089512358049  13 11  C 13 11.1910487641951  12.9255441008018 11.3600534402137  12.7766323024055 11.5070140280561  L 2.36769759450173 21.7795591182365  C 2.21878579610538 21.9265197060788  2.04753722794962 22  1.85395189003438 22  C 1.6603665521191 22  1.48911798396334 21.9265197060788  1.34020618556698 21.7795591182365  L 0.223367697594497 20.6773547094189  C 0.0744558991981705 20.5303941215765  0 20.3613894455577  0 20.1703406813627  C 0 19.9792919171676  0.0744558991981705 19.810287241149  0.223367697594497 19.6633266533066  L 9.00171821305841 11  L 0.223367697594497 2.33667334669337  C 0.0744558991981705 2.18971275885099  0 2.02070808283236  0 1.82965931863725  C 0 1.63861055444227  0.0744558991981705 1.46960587842352  0.223367697594497 1.32264529058114  L 1.34020618556698 0.220440881763466  C 1.48911798396334 0.0734802939211932  1.6603665521191 0  1.85395189003438 0  C 2.04753722794962 0  2.21878579610538 0.0734802939211932  2.36769759450173 0.220440881763466  L 12.7766323024055 10.4929859719439  Z " fill-rule="nonzero" fill="#0079fe" stroke="none" transform="matrix(1 0 0 1 549 197 )" />
  </g>
</svg>