<svg xmlns="http://www.w3.org/2000/svg" xmlns:xlink="http://www.w3.org/1999/xlink" width="40" height="40" version="1.1"><g><path fill="#1980ff" fill-rule="nonzero" stroke="none" d="M 101 1 L 137 1 A 2 2 0 0 1 139 3 L 139 37 A 2 2 0 0 1 137 39 L 101 39 L 101 1 Z" transform="matrix(1 0 0 1 -100 0 )"/><path fill="none" stroke="#1980ff" stroke-opacity=".8" stroke-width="1" d="M 100.5 0.5 L 137 0.5 A 2.5 2.5 0 0 1 139.5 3 L 139.5 37 A 2.5 2.5 0 0 1 137 39.5 L 100.5 39.5 L 100.5 0.5 Z" transform="matrix(1 0 0 1 -100 0 )"/></g></svg>