<?xml version="1.0" encoding="utf-8"?>
<svg version="1.1" xmlns:xlink="http://www.w3.org/1999/xlink" width="12px" height="12px" xmlns="http://www.w3.org/2000/svg">
  <g transform="matrix(1 0 0 1 -306 -1485 )">
    <path d="M 312 1485  C 315.36 1485  318 1487.64  318 1491  C 318 1494.36  315.36 1497  312 1497  C 308.64 1497  306 1494.36  306 1491  C 306 1487.64  308.64 1485  312 1485  Z " fill-rule="nonzero" fill="#ffffff" stroke="none" />
    <path d="M 312 1485.5  C 315.08 1485.5  317.5 1487.92  317.5 1491  C 317.5 1494.08  315.08 1496.5  312 1496.5  C 308.92 1496.5  306.5 1494.08  306.5 1491  C 306.5 1487.92  308.92 1485.5  312 1485.5  Z " stroke-width="1" stroke="#cccccc" fill="none" />
  </g>
</svg>