<svg xmlns="http://www.w3.org/2000/svg" xmlns:xlink="http://www.w3.org/1999/xlink" width="1252" height="1020" version="1.1"><defs><mask id="clip2747" fill="#fff"><path fill-rule="evenodd" d="M 1248.99760191847 1019.3625 L 2.00159872102318 1019.3625 C 0.600479616306956 1019.3625 -0.500399680255795 1017.96 0.500399680255795 1016.175 L 0.500399680255795 0 L 1251.49960031974 0 L 1251.49960031974 1016.175 C 1251.49960031974 1017.96 1250.39872102318 1019.3625 1248.99760191847 1019.3625 Z"/></mask></defs><g><path fill="#fff" fill-rule="nonzero" stroke="none" d="M 1248.99760191847 1019.3625 L 2.00159872102318 1019.3625 C 0.600479616306956 1019.3625 -0.500399680255795 1017.96 0.500399680255795 1016.175 L 0.500399680255795 0 L 1251.49960031974 0 L 1251.49960031974 1016.175 C 1251.49960031974 1017.96 1250.39872102318 1019.3625 1248.99760191847 1019.3625 Z" transform="matrix(1 0 0 1 -24 -1024 ) matrix(1 0 0 1 24 1024 )"/><path fill="none" stroke="#e4e4e4" stroke-width="2" d="M 1248.99760191847 1019.3625 L 2.00159872102318 1019.3625 C 0.600479616306956 1019.3625 -0.500399680255795 1017.96 0.500399680255795 1016.175 L 0.500399680255795 0 L 1251.49960031974 0 L 1251.49960031974 1016.175 C 1251.49960031974 1017.96 1250.39872102318 1019.3625 1248.99760191847 1019.3625 Z" mask="url(#clip2747)" transform="matrix(1 0 0 1 -24 -1024 ) matrix(1 0 0 1 24 1024 )"/></g></svg>