<svg xmlns="http://www.w3.org/2000/svg" xmlns:xlink="http://www.w3.org/1999/xlink" width="24" height="24" version="1.1"><g><path fill="#fff" fill-rule="nonzero" stroke="none" d="M 293 1852 C 299.72 1852 305 1857.28 305 1864 C 305 1870.72 299.72 1876 293 1876 C 286.28 1876 281 1870.72 281 1864 C 281 1857.28 286.28 1852 293 1852 Z" transform="matrix(1 0 0 1 -281 -1852 )"/><path fill="none" stroke="#ccc" stroke-width="1" d="M 293 1852.5 C 299.44 1852.5 304.5 1857.56 304.5 1864 C 304.5 1870.44 299.44 1875.5 293 1875.5 C 286.56 1875.5 281.5 1870.44 281.5 1864 C 281.5 1857.56 286.56 1852.5 293 1852.5 Z" transform="matrix(1 0 0 1 -281 -1852 )"/></g></svg>