<svg xmlns="http://www.w3.org/2000/svg" xmlns:xlink="http://www.w3.org/1999/xlink" width="13" height="12" version="1.1"><g><path fill="#000" fill-rule="nonzero" stroke="none" d="M 10.7692436416006 4.87237693687517 C 10.7692436416006 3.67665005490826 11.4168264050506 2.57610200210564 12.4583333333333 2.00181818181819 C 11.7796729871654 1.09138867341384 10.7329881591062 0.533386395682555 9.60375000000001 0.479999999999998 C 8.26041666666667 0.479999999999998 7.69708333333335 1.12363636363636 6.76541666666667 1.12363636363636 C 5.83374999999999 1.12363636363636 5.07541666666667 0.479999999999998 3.91625000000001 0.479999999999998 C 2.62842867955163 0.549294427379499 1.4590552661791 1.25868704003734 0.796250000000015 2.37272727272729 C -0.287083333333319 4.04727272727274 -0.102916666666665 7.20000000000003 1.65208333333334 9.88909090909091 C 2.28041666666669 10.8490909090909 3.11458333333333 11.9290909090909 4.20875000000002 11.94 C 5.18375000000003 11.94 5.46000000000002 11.3181818181818 6.77625000000003 11.3072727272727 C 8.09250000000003 11.2963636363636 8.34708333333335 11.9454545454545 9.32208333333335 11.94 C 10.4054166666667 11.94 11.2991666666667 10.7290909090909 11.9275 9.75818181818181 C 12.3072824886549 9.18604385002024 12.6302277739351 8.5776572577457 12.8916666666666 7.94181818181815 C 11.6160992245106 7.46665453216941 10.7692436416006 6.24193475482277 10.7692436416006 4.87237693687517 Z" transform="matrix(1 0 0 1 -150 -195 ) matrix(1 0 0 1 150 195 )"/></g></svg>