<?xml version="1.0" encoding="utf-8"?>
<svg version="1.1" xmlns:xlink="http://www.w3.org/1999/xlink" width="110px" height="60px" xmlns="http://www.w3.org/2000/svg">
  <g transform="matrix(1 0 0 1 -85 -19 )">
    <path d="M 109.030056647916 19.5  C 109.030056647916 19.5  105.293773535682 20.5189863033367  105.293773535682 20.5189863033367  C 105.293773535682 20.5189863033367  85.5899275820155 49  85.5899275820155 49  C 85.5899275820155 49  105.293773535682 77.4810136966633  105.293773535682 77.4810136966633  C 105.293773535682 77.4810136966633  109.030056647916 78.5  109.030056647916 78.5  C 109.030056647916 78.5  194.5 78.5  194.5 78.5  C 194.5 78.5  194.5 19.5  194.5 19.5  C 194.5 19.5  109.030056647916 19.5  109.030056647916 19.5  Z " fill-rule="nonzero" fill="#1980ff" stroke="none" />
    <path d="M 109.030056647916 19.5  C 109.030056647916 19.5  105.293773535682 20.5189863033367  105.293773535682 20.5189863033367  C 105.293773535682 20.5189863033367  85.5899275820155 49  85.5899275820155 49  C 85.5899275820155 49  105.293773535682 77.4810136966633  105.293773535682 77.4810136966633  C 105.293773535682 77.4810136966633  109.030056647916 78.5  109.030056647916 78.5  C 109.030056647916 78.5  194.5 78.5  194.5 78.5  C 194.5 78.5  194.5 19.5  194.5 19.5  C 194.5 19.5  109.030056647916 19.5  109.030056647916 19.5  Z " stroke-width="1" stroke="#1980ff" fill="none" />
  </g>
</svg>