<svg xmlns="http://www.w3.org/2000/svg" xmlns:xlink="http://www.w3.org/1999/xlink" width="110" height="60" version="1.1"><g><path fill="#1980ff" fill-rule="nonzero" stroke="none" d="M 109.030056647916 19.5 C 109.030056647916 19.5 105.293773535682 20.5189863033367 105.293773535682 20.5189863033367 C 105.293773535682 20.5189863033367 85.5899275820155 49 85.5899275820155 49 C 85.5899275820155 49 105.293773535682 77.4810136966633 105.293773535682 77.4810136966633 C 105.293773535682 77.4810136966633 109.030056647916 78.5 109.030056647916 78.5 C 109.030056647916 78.5 194.5 78.5 194.5 78.5 C 194.5 78.5 194.5 19.5 194.5 19.5 C 194.5 19.5 109.030056647916 19.5 109.030056647916 19.5 Z" transform="matrix(1 0 0 1 -85 -19 )"/><path fill="none" stroke="#1980ff" stroke-width="1" d="M 109.030056647916 19.5 C 109.030056647916 19.5 105.293773535682 20.5189863033367 105.293773535682 20.5189863033367 C 105.293773535682 20.5189863033367 85.5899275820155 49 85.5899275820155 49 C 85.5899275820155 49 105.293773535682 77.4810136966633 105.293773535682 77.4810136966633 C 105.293773535682 77.4810136966633 109.030056647916 78.5 109.030056647916 78.5 C 109.030056647916 78.5 194.5 78.5 194.5 78.5 C 194.5 78.5 194.5 19.5 194.5 19.5 C 194.5 19.5 109.030056647916 19.5 109.030056647916 19.5 Z" transform="matrix(1 0 0 1 -85 -19 )"/></g></svg>