<?xml version="1.0" encoding="utf-8"?>
<svg version="1.1" xmlns:xlink="http://www.w3.org/1999/xlink" width="30px" height="29px" xmlns="http://www.w3.org/2000/svg">
  <defs>
    <filter x="582px" y="841px" width="30px" height="29px" filterUnits="userSpaceOnUse" id="filter2627">
      <feOffset dx="0" dy="0" in="SourceAlpha" result="shadowOffsetInner" />
      <feGaussianBlur stdDeviation="2.5" in="shadowOffsetInner" result="shadowGaussian" />
      <feComposite in2="shadowGaussian" operator="atop" in="SourceAlpha" result="shadowComposite" />
      <feColorMatrix type="matrix" values="0 0 0 0 0.419607843137255  0 0 0 0 0.67843137254902  0 0 0 0 1  0 0 0 1 0  " in="shadowComposite" />
    </filter>
    <g id="widget2628">
      <path d="M 9.74834437086088 9.73907284768211  C 9.916114790287 9.89845474613687  10 10.0871964679912  10 10.305298013245  L 10 15.9423841059602  C 10 16.1604856512141  9.916114790287 16.3492273730684  9.74834437086088 16.5086092715232  C 9.58057395143487 16.6679911699779  9.38189845474619 16.7476821192053  9.15231788079473 16.7476821192053  C 8.92273730684326 16.7476821192053  8.72406181015458 16.6679911699779  8.55629139072846 16.5086092715232  L 6.64900662251659 14.6966887417219  L 2.25165562913912 18.8741721854305  C 2.1633554083885 18.9580573951435  2.06181015452535 19  1.94701986754967 19  C 1.83222958057399 19  1.73068432671084 18.9580573951435  1.64238410596022 18.8741721854305  L 0.132450331125824 17.4397350993377  C 0.0441501103753126 17.3558498896247  0 17.2593818984548  0 17.1503311258278  C 0 17.0412803532009  0.0441501103753126 16.9448123620309  0.132450331125824 16.8609271523179  L 4.5298013245033 12.6834437086093  L 2.62251655629143 10.871523178808  C 2.45474613686531 10.7121412803532  2.37086092715231 10.5233995584989  2.37086092715231 10.305298013245  C 2.37086092715231 10.0871964679912  2.45474613686531 9.89845474613687  2.62251655629143 9.73907284768211  C 2.79028697571744 9.57969094922735  2.98896247240623 9.5  3.21854304635758 9.5  L 9.15231788079473 9.5  C 9.38189845474619 9.5  9.58057395143487 9.57969094922735  9.74834437086088 9.73907284768211  Z M 19.8675496688742 1.56026490066226  C 19.9558498896247 1.64415011037525  20 1.74061810154524  20 1.84966887417219  C 20 1.95871964679913  19.9558498896247 2.05518763796907  19.8675496688742 2.13907284768211  L 15.4701986754967 6.31655629139071  L 17.3774834437086 8.12847682119204  C 17.5452538631347 8.2878587196468  17.6291390728477 8.4766004415011  17.6291390728477 8.69470198675499  C 17.6291390728477 8.91280353200883  17.5452538631347 9.10154525386313  17.3774834437086 9.26092715231789  C 17.2097130242826 9.42030905077265  17.0110375275938 9.5  16.7814569536424 9.5  L 10.8476821192053 9.5  C 10.6181015452539 9.5  10.4194260485651 9.42030905077265  10.2516556291391 9.26092715231789  C 10.083885209713 9.10154525386313  10 8.91280353200883  10 8.69470198675499  L 10 3.05761589403976  C 10 2.83951434878586  10.083885209713 2.65077262693156  10.2516556291391 2.4913907284768  C 10.4194260485651 2.3320088300221  10.6181015452539 2.25231788079469  10.8476821192053 2.25231788079469  C 11.0772626931567 2.25231788079469  11.2759381898454 2.3320088300221  11.4437086092715 2.4913907284768  L 13.3509933774834 4.30331125827813  L 17.7483443708609 0.125827814569533  C 17.8366445916115 0.0419426048564929  17.9381898454747 0  18.0529801324503 0  C 18.167770419426 0  18.2693156732892 0.0419426048564929  18.3576158940398 0.125827814569533  L 19.8675496688742 1.56026490066226  Z " fill-rule="nonzero" fill="#ffffff" stroke="none" transform="matrix(1 0 0 1 587 846 )" />
    </g>
  </defs>
  <g transform="matrix(1 0 0 1 -582 -841 )">
    <use xlink:href="#widget2628" filter="url(#filter2627)" />
    <use xlink:href="#widget2628" />
  </g>
</svg>