<svg xmlns="http://www.w3.org/2000/svg" xmlns:xlink="http://www.w3.org/1999/xlink" width="1252" height="1319" version="1.1"><defs><mask id="clip2805" fill="#fff"><path fill-rule="evenodd" d="M 1248.99760191847 1318.175625 L 2.00159872102318 1318.175625 C 0.600479616306956 1318.175625 -0.500399680255795 1316.362 0.500399680255795 1314.05375 L 0.500399680255795 0 L 1251.49960031974 0 L 1251.49960031974 1314.05375 C 1251.49960031974 1316.362 1250.39872102318 1318.175625 1248.99760191847 1318.175625 Z"/></mask></defs><g><path fill="#fff" fill-rule="nonzero" stroke="none" d="M 1248.99760191847 1318.175625 L 2.00159872102318 1318.175625 C 0.600479616306956 1318.175625 -0.500399680255795 1316.362 0.500399680255795 1314.05375 L 0.500399680255795 0 L 1251.49960031974 0 L 1251.49960031974 1314.05375 C 1251.49960031974 1316.362 1250.39872102318 1318.175625 1248.99760191847 1318.175625 Z" transform="matrix(1 0 0 1 -24 -471 ) matrix(1 0 0 1 24 471 )"/><path fill="none" stroke="#e4e4e4" stroke-width="2" d="M 1248.99760191847 1318.175625 L 2.00159872102318 1318.175625 C 0.600479616306956 1318.175625 -0.500399680255795 1316.362 0.500399680255795 1314.05375 L 0.500399680255795 0 L 1251.49960031974 0 L 1251.49960031974 1314.05375 C 1251.49960031974 1316.362 1250.39872102318 1318.175625 1248.99760191847 1318.175625 Z" mask="url(#clip2805)" transform="matrix(1 0 0 1 -24 -471 ) matrix(1 0 0 1 24 471 )"/></g></svg>