<svg xmlns="http://www.w3.org/2000/svg" xmlns:xlink="http://www.w3.org/1999/xlink" width="34" height="30" version="1.1"><defs><filter id="filter2812" width="34" height="30" x="1024" y="865" filterUnits="userSpaceOnUse"><feOffset dx="0" dy="0" in="SourceAlpha" result="shadowOffsetInner"/><feGaussianBlur in="shadowOffsetInner" result="shadowGaussian" stdDeviation="2.5"/><feComposite in="SourceAlpha" in2="shadowGaussian" operator="atop" result="shadowComposite"/><feColorMatrix in="shadowComposite" type="matrix" values="0 0 0 0 0.419607843137255 0 0 0 0 0.67843137254902 0 0 0 0 1 0 0 0 1 0"/></filter><g id="widget2813"><path fill="#fff" fill-rule="nonzero" stroke="none" d="M 8.06919642857152 9.7132884567439 C 8.40401785714274 9.38086927615723 8.57142857142852 8.97975013158259 8.57142857142852 8.50993102301999 C 8.57142857142852 8.04011191445744 8.40401785714274 7.63899276988286 8.06919642857152 7.30657358929608 C 7.73437499999996 6.97415440870935 7.33035714285714 6.80794481841605 6.85714285714284 6.80794481841605 C 6.38392857142854 6.80794481841605 5.97991071428572 6.97415440870935 5.64508928571427 7.30657358929608 C 5.31026785714283 7.63899276988286 5.14285714285716 8.04011191445744 5.14285714285716 8.50993102301999 C 5.14285714285716 8.97975013158259 5.31026785714283 9.38086927615723 5.64508928571427 9.7132884567439 C 5.97991071428572 10.0457076373307 6.38392857142854 10.211917227624 6.85714285714284 10.211917227624 C 7.33035714285714 10.211917227624 7.73437499999996 10.0457076373307 8.06919642857152 9.7132884567439 Z M 13.2120535714286 9.7132884567439 C 13.546875 9.38086927615723 13.7142857142857 8.97975013158259 13.7142857142857 8.50993102301999 C 13.7142857142857 8.04011191445744 13.546875 7.63899276988286 13.2120535714286 7.30657358929608 C 12.8772321428572 6.97415440870935 12.4732142857142 6.80794481841605 12 6.80794481841605 C 11.5267857142858 6.80794481841605 11.1227678571428 6.97415440870935 10.7879464285714 7.30657358929608 C 10.453125 7.63899276988286 10.2857142857143 8.04011191445744 10.2857142857143 8.50993102301999 C 10.2857142857143 8.97975013158259 10.453125 9.38086927615723 10.7879464285714 9.7132884567439 C 11.1227678571428 10.0457076373307 11.5267857142858 10.211917227624 12 10.211917227624 C 12.4732142857142 10.211917227624 12.8772321428572 10.0457076373307 13.2120535714286 9.7132884567439 Z M 18.3549107142857 9.7132884567439 C 18.6897321428572 9.38086927615723 18.8571428571428 8.97975013158259 18.8571428571428 8.50993102301999 C 18.8571428571428 8.04011191445744 18.6897321428572 7.63899276988286 18.3549107142857 7.30657358929608 C 18.0200892857143 6.97415440870935 17.6160714285715 6.80794481841605 17.1428571428572 6.80794481841605 C 16.6696428571429 6.80794481841605 16.265625 6.97415440870935 15.9308035714286 7.30657358929608 C 15.5959821428573 7.63899276988286 15.4285714285715 8.04011191445744 15.4285714285715 8.50993102301999 C 15.4285714285715 8.97975013158259 15.5959821428573 9.38086927615723 15.9308035714286 9.7132884567439 C 16.265625 10.0457076373307 16.6696428571429 10.211917227624 17.1428571428572 10.211917227624 C 17.6160714285715 10.211917227624 18.0200892857143 10.0457076373307 18.3549107142857 9.7132884567439 Z M 22.3928571428571 4.23502036067481 C 23.4642857142858 5.54253580431589 24 6.96750602509763 24 8.50993102301999 C 24 10.0523560209424 23.4642857142858 11.4773262417241 22.3928571428571 12.7848416853652 C 21.3214285714285 14.0923571290064 19.8660714285714 15.1250727166957 18.0267857142857 15.8829884484335 C 16.1875 16.6409041801712 14.1785714285713 17.01986204604 12 17.01986204604 C 11.0178571428572 17.01986204604 10.0758928571429 16.9400814426992 9.17410714285715 16.7805202360176 C 7.62946428571435 18.3140807224577 5.68750000000005 19.3290672871825 3.34821428571424 19.8254799301919 C 2.88392857142859 19.9141250450151 2.50000000000005 19.9717443696501 2.19642857142851 19.9983379040971 C 2.08928571428569 20.0072024155794 1.99107142857139 19.9806088811324 1.90178571428574 19.9185573007562 C 1.81249999999998 19.85650572038 1.75446428571424 19.7767251170392 1.72767857142853 19.6792154907338 C 1.69196428571418 19.5462478184991 1.78124999999995 19.3822543560763 1.99553571428572 19.1872351034654 C 2.0401785714286 19.1429125460539 2.14508928571432 19.047619047619 2.31026785714277 18.9013546081609 C 2.47544642857145 18.7550901687027 2.5892857142857 18.6509321587855 2.65178571428576 18.5888805784094 C 2.71428571428582 18.5268289980332 2.81919642857142 18.4138064766336 2.96651785714281 18.2498130142109 C 3.11383928571431 18.0858195517881 3.22098214285725 17.9462034959417 3.28794642857152 17.8309648466716 C 3.35491071428579 17.7157261974015 3.44642857142865 17.5517327349788 3.56250000000001 17.3389844594033 C 3.67857142857137 17.1262361838278 3.76785714285713 16.9134879082523 3.83035714285719 16.7007396326768 C 3.89285714285714 16.4879913571012 3.9575892857143 16.2331366519848 4.02455357142856 15.9361755173273 C 4.09151785714283 15.6392143826699 4.14732142857135 15.317875841436 4.19196428571423 14.9721598936259 C 2.88839285714279 14.1743538602177 1.86383928571429 13.2147704922574 1.11830357142848 12.0934097897449 C 0.372767857142904 10.9720490872323 0 9.77755616499076 0 8.50993102301999 C 0 6.96750602509763 0.535714285714246 5.54253580431589 1.60714285714285 4.23502036067481 C 2.67857142857146 2.92750491703373 4.13392857142861 1.89478932934429 5.97321428571429 1.13687359760655 C 7.81249999999998 0.378957865868813 9.82142857142866 0 12 0 C 14.1785714285713 0 16.1875 0.378957865868813 18.0267857142857 1.13687359760655 C 19.8660714285714 1.89478932934429 21.3214285714285 2.92750491703373 22.3928571428571 4.23502036067481 Z" transform="matrix(1 0 0 1 1029 870 )"/></g></defs><g transform="matrix(1 0 0 1 -1024 -865 )"><use filter="url(#filter2812)" xlink:href="#widget2813"/><use xlink:href="#widget2813"/></g></svg>