<?xml version="1.0" encoding="utf-8"?>
<svg version="1.1" xmlns:xlink="http://www.w3.org/1999/xlink" width="30px" height="30px" xmlns="http://www.w3.org/2000/svg">
  <defs>
    <filter x="579px" y="1251px" width="30px" height="30px" filterUnits="userSpaceOnUse" id="filter2818">
      <feOffset dx="0" dy="0" in="SourceAlpha" result="shadowOffsetInner" />
      <feGaussianBlur stdDeviation="2.5" in="shadowOffsetInner" result="shadowGaussian" />
      <feComposite in2="shadowGaussian" operator="atop" in="SourceAlpha" result="shadowComposite" />
      <feColorMatrix type="matrix" values="0 0 0 0 0.309803921568627  0 0 0 0 0.756862745098039  0 0 0 0 0.690196078431373  0 0 0 1 0  " in="shadowComposite" />
    </filter>
    <g id="widget2819">
      <path d="M 9.74834437086088 10.2516556291391  C 9.916114790287 10.4194260485651  10 10.6181015452539  10 10.8476821192053  L 10 16.7814569536424  C 10 17.0110375275938  9.916114790287 17.2097130242826  9.74834437086088 17.3774834437086  C 9.58057395143487 17.5452538631346  9.38189845474619 17.6291390728477  9.15231788079473 17.6291390728477  C 8.92273730684326 17.6291390728477  8.72406181015458 17.5452538631346  8.55629139072846 17.3774834437086  L 6.64900662251659 15.4701986754967  L 2.25165562913912 19.8675496688742  C 2.1633554083885 19.9558498896247  2.06181015452535 20  1.94701986754967 20  C 1.83222958057399 20  1.73068432671084 19.9558498896247  1.64238410596022 19.8675496688742  L 0.132450331125824 18.3576158940397  C 0.0441501103753126 18.2693156732892  0 18.1677704194261  0 18.0529801324503  C 0 17.9381898454746  0.0441501103753126 17.8366445916115  0.132450331125824 17.7483443708609  L 4.5298013245033 13.3509933774835  L 2.62251655629143 11.4437086092715  C 2.45474613686531 11.2759381898455  2.37086092715231 11.0772626931567  2.37086092715231 10.8476821192053  C 2.37086092715231 10.6181015452539  2.45474613686531 10.4194260485651  2.62251655629143 10.2516556291391  C 2.79028697571744 10.083885209713  2.98896247240623 10  3.21854304635758 10  L 9.15231788079473 10  C 9.38189845474619 10  9.58057395143487 10.083885209713  9.74834437086088 10.2516556291391  Z M 19.8675496688742 1.64238410596028  C 19.9558498896247 1.73068432671079  20 1.83222958057394  20 1.94701986754967  C 20 2.0618101545254  19.9558498896247 2.1633554083885  19.8675496688742 2.25165562913907  L 15.4701986754967 6.64900662251654  L 17.3774834437086 8.55629139072846  C 17.5452538631347 8.72406181015452  17.6291390728477 8.92273730684326  17.6291390728477 9.15231788079473  C 17.6291390728477 9.38189845474614  17.5452538631347 9.58057395143487  17.3774834437086 9.74834437086093  C 17.2097130242826 9.916114790287  17.0110375275938 10  16.7814569536424 10  L 10.8476821192053 10  C 10.6181015452539 10  10.4194260485651 9.916114790287  10.2516556291391 9.74834437086093  C 10.083885209713 9.58057395143487  10 9.38189845474614  10 9.15231788079473  L 10 3.21854304635764  C 10 2.98896247240617  10.083885209713 2.79028697571744  10.2516556291391 2.62251655629137  C 10.4194260485651 2.45474613686537  10.6181015452539 2.37086092715231  10.8476821192053 2.37086092715231  C 11.0772626931567 2.37086092715231  11.2759381898454 2.45474613686537  11.4437086092715 2.62251655629137  L 13.3509933774834 4.5298013245033  L 17.7483443708609 0.132450331125824  C 17.8366445916115 0.0441501103752557  17.9381898454747 0  18.0529801324503 0  C 18.167770419426 0  18.2693156732892 0.0441501103752557  18.3576158940398 0.132450331125824  L 19.8675496688742 1.64238410596028  Z " fill-rule="nonzero" fill="#4fc1b0" stroke="none" transform="matrix(1 0 0 1 584 1256 )" />
    </g>
  </defs>
  <g transform="matrix(1 0 0 1 -579 -1251 )">
    <use xlink:href="#widget2819" filter="url(#filter2818)" />
    <use xlink:href="#widget2819" />
  </g>
</svg>