<svg xmlns="http://www.w3.org/2000/svg" xmlns:xlink="http://www.w3.org/1999/xlink" width="115" height="115" version="1.1"><g><path fill="#ccc" fill-rule="nonzero" stroke="none" d="M 41 53 L 156 53 L 156 168 L 41 168 L 41 53" transform="matrix(1 0 0 1 -41 -53 )"/><path fill="#fff" fill-rule="nonzero" stroke="none" d="M 49 61 L 148 61 L 148 160 L 49 160 L 49 61" transform="matrix(1 0 0 1 -41 -53 )"/><path fill="#ccc" fill-rule="nonzero" stroke="none" d="M 109.425 87.5 C 104.595 87.5 100.8 83.705 100.8 78.875 C 100.8 74.045 104.595 70.25 109.425 70.25 C 114.255 70.25 118.05 74.045 118.05 78.875 C 118.05 83.705 114.255 87.5 109.425 87.5" transform="matrix(1 0 0 1 -41 -53 )"/><path fill="#169bd5" fill-rule="nonzero" stroke="none" d="M 52 157 L 52 105.85 L 75.25 82.6 L 107.8 101.2 L 126.4 96.55 L 145 101.2 L 145 157 L 52 157" transform="matrix(1 0 0 1 -41 -53 )"/></g></svg>