<?xml version="1.0" encoding="utf-8"?>
<svg version="1.1" xmlns:xlink="http://www.w3.org/1999/xlink" width="13px" height="13px" xmlns="http://www.w3.org/2000/svg">
  <g transform="matrix(1 0 0 1 -12 -41 )">
    <path d="M 11.93125 8.0078125  C 12.38125 8.121875  12.78125 7.8609375  12.90625 7.40625  C 12.9140625 7.3734375  12.91875 7.3609375  12.91875 7.328125  C 12.9890625 6.8296875  12.9921875 6.3046875  12.928125 5.7640625  C 12.875 5.3671875  12.534375 5.0671875  12.1390625 5.0671875  C 12.1203125 5.0671875  12.0765625 5.0703125  12.0578125 5.071875  C 12.0484375 5.0734375  12.0390625 5.0765625  12.0296875 5.0765625  C 12.009375 5.078125  11.9875 5.08125  11.9671875 5.0859375  C 11.9609375 5.0875  11.93125 5.0953125  11.925 5.096875  C 11.6125 5.178125  11.2859375 5.0328125  11.115625 4.7640625  C 11.015625 4.5984375  10.9890625 4.4046875  11.0390625 4.215625  C 11.0875 4.0296875  11.2109375 3.86875  11.38125 3.7734375  C 11.5640625 3.6671875  11.6953125 3.49375  11.7484375 3.2859375  C 11.8 3.0859375  11.7734375 2.8765625  11.65625 2.6734375  L 11.5921875 2.5796875  C 11.2671875 2.1671875  10.9125 1.8109375  10.5046875 1.4921875  C 10.5 1.4875  10.49375 1.4828125  10.4875 1.478125  C 10.1625 1.221875  9.6625 1.275  9.3890625 1.59375  L 9.35625 1.6359375  L 9.3046875 1.715625  C 9.14375 1.9828125  8.7875 2.115625  8.496875 2.0390625  C 8.1109375 1.9359375  7.878125 1.540625  7.9796875 1.15625  C 7.9828125 1.1453125  7.984375 1.134375  7.9875 1.1234375  C 8.08125 0.707812499999999  7.8265625 0.2875  7.3859375 0.168749999999999  C 7.3703125 0.1640625  7.325 0.159374999999999  7.3078125 0.15625  C 6.7953125 0.0968749999999989  6.2546875 0.0953124999999986  5.7453125 0.15625  C 5.7390625 0.15625  5.734375 0.157812499999999  5.728125 0.157812499999999  C 5.5203125 0.181249999999999  5.3328125 0.285937499999999  5.203125 0.4515625  C 5.075 0.612499999999999  5.015625 0.8203125  5.0421875 1.059375  C 5.04375 1.075  5.046875 1.0921875  5.05 1.1078125  C 5.0515625 1.1140625  5.059375 1.1453125  5.0609375 1.15  C 5.1390625 1.4546875  5.0015625 1.7890625  4.728125 1.959375  C 4.721875 1.9625  4.715625 1.9671875  4.7109375 1.971875  C 4.38125 2.159375  3.9296875 2.0296875  3.7390625 1.696875  C 3.5296875 1.3390625  3.0953125 1.1625  2.64375 1.41875  L 2.546875 1.484375  C 2.1296875 1.8125  1.76875 2.1734375  1.4484375 2.584375  C 1.315625 2.7515625  1.25625 2.9578125  1.28125 3.1671875  C 1.3046875 3.36875  1.40625 3.5546875  1.565625 3.6875  C 1.578125 3.6984375  1.5921875 3.7078125  1.60625 3.7171875  L 1.684375 3.7671875  C 1.953125 3.9296875  2.0859375 4.2625  2.0203125 4.5375  C 2.015625 4.55  2.0109375 4.5671875  2.0078125 4.5796875  C 1.925 4.8984375  1.6375 5.1203125  1.3125 5.1203125  C 1.253125 5.1203125  1.190625 5.1125  1.1140625 5.0921875  C 0.659375000000001 4.978125  0.25625 5.2453125  0.137499999999999 5.6953125  C 0.134375 5.709375  0.128125000000001 5.753125  0.1265625 5.76875  C 0.0656249999999989 6.2875  0.0656249999999989 6.8125  0.125 7.3296875  C 0.125 7.334375  0.125 7.3390625  0.1265625 7.34375  C 0.168749999999999 7.740625  0.501562499999999 8.040625  0.9296875 8.040625  C 0.948437499999999 8.0390625  0.9828125 8.0375  1.0125 8.03125  C 1.034375 8.0296875  1.0578125 8.0265625  1.0796875 8.021875  C 1.090625 8.0203125  1.103125 8.0171875  1.1140625 8.0140625  C 1.4046875 7.9375  1.75625 8.0734375  1.9265625 8.346875  C 2.0265625 8.5125  2.053125 8.70625  2.003125 8.8953125  C 1.953125 9.08125  1.83125 9.2421875  1.659375 9.3390625  C 1.478125 9.4453125  1.3484375 9.61875  1.29375 9.8265625  C 1.2421875 10.0265625  1.26875 10.234375  1.3875 10.440625  L 1.45 10.53125  C 1.775 10.9453125  2.13125 11.3015625  2.5421875 11.6234375  C 2.546875 11.6265625  2.55 11.6296875  2.5546875 11.6328125  C 2.8796875 11.8890625  3.3796875 11.8359375  3.653125 11.5171875  L 3.6859375 11.475  L 3.7375 11.3953125  C 3.8984375 11.1265625  4.25625 10.99375  4.5453125 11.071875  C 4.93125 11.175  5.1640625 11.5703125  5.0625 11.9546875  C 5.059375 11.9640625  5.0578125 11.975  5.0546875 11.9859375  C 4.9625 12.396875  5.2109375 12.8171875  5.628125 12.934375  C 5.6375 12.9375  5.659375 12.94375  5.6703125 12.9453125  C 5.684375 12.9484375  5.7203125 12.9546875  5.734375 12.95625  C 5.996875 12.9859375  6.2625 13  6.5234375 13  C 6.7828125 13  7.046875 12.984375  7.321875 12.953125  C 7.5296875 12.9234375  7.7140625 12.815625  7.8453125 12.6484375  C 7.9765625 12.4796875  8.0328125 12.2703125  8 12.0234375  C 7.996875 11.9984375  7.990625 11.975  7.9859375 11.9546875  C 7.90625 11.646875  8.0421875 11.3109375  8.3171875 11.140625  C 8.3234375 11.1375  8.3296875 11.1328125  8.3359375 11.128125  C 8.665625 10.9421875  9.11875 11.0703125  9.3078125 11.403125  C 9.51875 11.765625  9.965625 11.9359375  10.4046875 11.6796875  L 10.4984375 11.615625  C 10.915625 11.2875  11.275 10.9265625  11.5953125 10.515625  C 11.728125 10.3484375  11.7875 10.140625  11.7625 9.9328125  C 11.7390625 9.73125  11.6375 9.5453125  11.478125 9.4125  C 11.465625 9.4015625  11.4515625 9.3921875  11.4375 9.3828125  L 11.359375 9.3328125  C 11.090625 9.1703125  10.9578125 8.8375  11.0234375 8.5625  C 11.028125 8.55  11.0328125 8.5328125  11.0375 8.5203125  C 11.1203125 8.2015625  11.40625 7.9796875  11.7328125 7.9796875  C 11.79375 7.9796875  11.85625 7.9875  11.93125 8.0078125  Z M 12.1109375 5.49375  C 12.1125 5.49375  12.1203125 5.4921875  12.1375 5.4921875  C 12.31875 5.4921875  12.4765625 5.63124999999999  12.5015625 5.8171875  C 12.5609375 6.321875  12.5578125 6.809375  12.49375 7.271875  L 12.4890625 7.30625  C 12.4875 7.3125  12.4859375 7.325  12.484375 7.33125  C 12.4390625 7.4921875  12.29375 7.6046875  12.128125 7.6046875  C 12.096875 7.6046875  12.0671875 7.6  12.0375 7.5921875  C 11.9390625 7.5671875  11.828125 7.5515625  11.7328125 7.5515625  C 11.2125 7.5515625  10.7546875 7.90625  10.621875 8.4140625  C 10.5 8.9109375  10.709375 9.4453125  11.1390625 9.703125  L 11.203125 9.7453125  C 11.278125 9.8078125  11.325 9.89375  11.3359375 9.9859375  C 11.34375 10.0515625  11.3375 10.1515625  11.259375 10.25  C 10.95625 10.6390625  10.6203125 10.975  10.2328125 11.2796875  L 10.1671875 11.3234375  C 10.1125 11.3546875  10.0546875 11.3703125  9.99375 11.3703125  C 9.865625 11.3703125  9.74375 11.3015625  9.678125 11.1890625  C 9.475 10.83125  9.0921875 10.609375  8.678125 10.609375  C 8.471875 10.609375  8.26875 10.665625  8.0921875 10.7734375  C 7.6578125 11.0453125  7.4421875 11.578125  7.56875 12.0640625  L 7.578125 12.1171875  C 7.590625 12.2125  7.5640625 12.3078125  7.5046875 12.384375  C 7.44375 12.4625  7.35625 12.5125  7.259375 12.5265625  C 7.0125 12.5546875  6.7640625 12.56875  6.5234375 12.56875  C 6.28125 12.56875  6.03125 12.5546875  5.7828125 12.5265625  L 5.7609375 12.5234375  C 5.753125 12.521875  5.7453125 12.51875  5.7375 12.5171875  C 5.5421875 12.4625  5.425 12.2609375  5.478125 12.065625  C 5.6390625 11.453125  5.2703125 10.8171875  4.6546875 10.653125  C 4.5609375 10.628125  4.4625 10.615625  4.359375 10.615625  C 3.953125 10.615625  3.575 10.8265625  3.3671875 11.1703125  L 3.325 11.234375  C 3.2515625 11.3203125  3.1484375 11.3703125  3.0390625 11.3703125  C 2.984375 11.3703125  2.9 11.35625  2.81875 11.2921875  C 2.4296875 10.9890625  2.090625 10.65  1.7859375 10.2625  L 1.7421875 10.196875  C 1.696875 10.1171875  1.684375 10.021875  1.7078125 9.92968749999999  C 1.7328125 9.83437499999999  1.7921875 9.75468749999999  1.875 9.70624999999999  C 2.1421875 9.55624999999999  2.3390625 9.29843749999999  2.4171875 9.00156249999999  C 2.496875 8.7  2.453125 8.38906249999999  2.29375 8.121875  C 2.0796875 7.778125  1.690625 7.5578125  1.2890625 7.5578125  C 1.190625 7.5578125  1.09375 7.57031249999999  0.999999999999998 7.5953125  L 0.987499999999999 7.5984375  L 0.970312499999999 7.5984375  L 0.929687499999998 7.60625  C 0.928124999999998 7.60625  0.920312499999998 7.6078125  0.903124999999999 7.6078125  C 0.724999999999998 7.6078125  0.570312499999998 7.4703125  0.551562499999999 7.2921875  C 0.493749999999999 6.8015625  0.493749999999999 6.30312499999999  0.551562499999999 5.81249999999999  L 0.554687499999998 5.78437499999999  L 0.557812499999999 5.7703125  C 0.601562499999998 5.60625  0.748437499999998 5.4890625  0.915624999999999 5.4890625  C 0.946874999999999 5.4890625  0.976562499999998 5.49375  1.00625 5.5015625  C 1.1046875 5.5265625  1.215625 5.5421875  1.3109375 5.5421875  C 1.83125 5.5421875  2.2890625 5.1875  2.421875 4.6796875  C 2.54375 4.1828125  2.334375 3.64843749999999  1.9046875 3.39062499999999  L 1.840625 3.3484375  C 1.765625 3.2859375  1.71875 3.2  1.7078125 3.10781249999999  C 1.7 3.0421875  1.70625 2.9421875  1.784375 2.84218749999999  C 2.0875 2.45312499999999  2.4234375 2.11718749999999  2.8109375 1.81249999999999  L 2.878125 1.76875  C 2.93125 1.7390625  2.990625 1.721875  3.0515625 1.721875  C 3.1796875 1.721875  3.3 1.790625  3.3671875 1.90312499999999  C 3.5703125 2.2609375  3.953125 2.48281249999999  4.3671875 2.48281249999999  C 4.5734375 2.48281249999999  4.7765625 2.4265625  4.953125 2.31874999999999  C 5.384375 2.04843749999999  5.6015625 1.5203125  5.478125 1.0359375  C 5.4765625 1.0265625  5.4734375 1.01875  5.471875 1.0109375  L 5.4671875 0.976562499999995  C 5.4546875 0.881249999999994  5.48125 0.785937499999996  5.540625 0.710937499999995  C 5.6 0.635937499999995  5.684375 0.589062499999995  5.778125 0.578124999999995  C 6.025 0.548437499999995  6.278125 0.534374999999995  6.5203125 0.534374999999995  C 6.7625 0.534374999999995  7.0125 0.548437499999995  7.25625 0.576562499999994  L 7.284375 0.579687499999995  L 7.296875 0.582812499999994  C 7.4953125 0.635937499999994  7.615625 0.839062499999994  7.5640625 1.03593749999999  C 7.403125 1.64843749999999  7.771875 2.28437499999999  8.3875 2.44843749999999  C 8.48125 2.47343749999999  8.5796875 2.4859375  8.6828125 2.4859375  C 9.0890625 2.4859375  9.4671875 2.275  9.675 1.93125  L 9.7171875 1.86718749999999  C 9.790625 1.78124999999999  9.89375 1.73125  10.0015625 1.73125  C 10.05625 1.73125  10.140625 1.7453125  10.221875 1.809375  C 10.6109375 2.1125  10.95 2.45156249999999  11.2546875 2.83906249999999  L 11.2984375 2.90468749999999  C 11.34375 2.98437499999999  11.35625 3.0796875  11.3328125 3.17187499999999  C 11.3078125 3.2671875  11.2484375 3.34687499999999  11.165625 3.3953125  C 10.8984375 3.54531249999999  10.7015625 3.80312499999999  10.6234375 4.09999999999999  C 10.54375 4.4015625  10.5875 4.7125  10.746875 4.9796875  C 10.9609375 5.3234375  11.35 5.54375  11.7515625 5.54375  C 11.846875 5.54375  11.940625 5.53125  12.0328125 5.5078125  C 12.040625 5.50624999999999  12.05 5.503125  12.0578125 5.5015625  L 12.1109375 5.49375  Z M 5.2921875 8.215625  C 5.628125 8.4953125  6.053125 8.671875  6.525 8.671875  C 7.5953125 8.671875  8.4625 7.8046875  8.4625 6.734375  C 8.465625 5.6640625  7.596875 4.796875  6.5265625 4.796875  C 5.45625 4.796875  4.5890625 5.6640625  4.5890625 6.734375  C 4.5890625 6.8453125  4.60625 6.96875  4.625 7.075  C 4.6484375 7.16875  4.7328125 7.240625  4.834375 7.240625  C 4.953125 7.240625  5.05 7.14375  5.05 7.025  C 5.05 7.0078125  5.04375 6.99375  5.040625 6.978125  C 5.028125 6.8984375  5.01875 6.815625  5.01875 6.7328125  C 5.01875 5.9015625  5.6953125 5.225  6.5265625 5.225  C 7.3578125 5.225  8.034375 5.9015625  8.034375 6.7328125  C 8.034375 7.5640625  7.3578125 8.240625  6.5265625 8.240625  C 6.1578125 8.240625  5.825 8.103125  5.5625 7.8828125  C 5.525 7.853125  5.478125 7.8359375  5.4265625 7.8359375  C 5.3078125 7.8359375  5.2109375 7.9328125  5.2109375 8.0515625  C 5.2109375 8.11875  5.24375 8.1765625  5.2921875 8.215625  Z " fill-rule="nonzero" fill="#000000" stroke="none" fill-opacity="0.647058823529412" transform="matrix(1 0 0 1 12 41 )" />
  </g>
</svg>