<?xml version="1.0" encoding="utf-8"?>
<svg version="1.1" xmlns:xlink="http://www.w3.org/1999/xlink" width="32px" height="32px" xmlns="http://www.w3.org/2000/svg">
  <defs>
    <linearGradient gradientUnits="userSpaceOnUse" x1="0" y1="16.9411764705882" x2="31.68" y2="16.9411764705882" id="LinearGradient72">
      <stop id="Stop73" stop-color="#77d0fe" offset="0" />
      <stop id="Stop74" stop-color="#1277ff" offset="1" />
    </linearGradient>
  </defs>
  <g transform="matrix(1 0 0 1 -24 -17 )">
    <path d="M 19.988 12.279936  L 20.30544 30.46352  C 18.91344 30.8512  17.44352 31.05888  15.923808 31.05888  C 7.12932799999999 31.05888  0 24.10608  0 15.529408  C 0 6.95275200000001  7.12932799999999 0  15.923808 0  C 19.56 0  22.91152 1.18858399999999  25.59216 3.189104  L 10.798144 3.44732800000002  C 9.44134399999998 3.47100799999998  8.41220800000001 3.89273600000001  7.71071999999999 4.71252800000002  C 7.00923200000002 5.53230400000002  6.67065600000001 6.639392  6.694992 8.033808  C 6.71848 9.37929599999998  7.081216 10.455792  7.783232 11.263312  C 8.485232 12.070832  9.54251199999999 12.462256  10.955072 12.4376  L 19.988 12.279936  Z M 28.24048 12.135888  L 28.46672 25.09792  C 30.5848 22.46096  31.84768 19.13904  31.84768 15.529408  C 31.84768 14.343824  31.71136 13.189248  31.45328 12.079808  L 28.24048 12.135888  Z " fill-rule="nonzero" fill="url(#LinearGradient72)" stroke="none" transform="matrix(1 0 0 1 24 17 )" />
  </g>
</svg>