<svg xmlns="http://www.w3.org/2000/svg" xmlns:xlink="http://www.w3.org/1999/xlink" width="26" height="26" version="1.1"><g><path fill="#1980ff" fill-rule="nonzero" stroke="none" d="M 10.4445894162354 9.48277907312568 L 13 1.61803398874989 L 15.5554105837646 9.48277907312568 L 23.8248929432494 9.48277907312568 L 17.1347411797424 14.3434588481236 L 19.690151763507 22.2082039324994 L 13 17.3475241575015 L 6.30984823649301 22.2082039324994 L 8.86525882025763 14.3434588481236 L 2.17510705675063 9.48277907312568 L 10.4445894162354 9.48277907312568 Z"/><path fill="#1980ff" fill-rule="nonzero" stroke="none" d="M 10.0813181522327 8.98277907312568 L 13 0 L 15.9186818477673 8.98277907312568 L 25.363734711837 8.98277907312568 L 17.7225264320348 14.5344418537486 L 20.6412082798022 23.5172209268743 L 13 17.9655581462514 L 5.35879172019785 23.5172209268743 L 8.27747356796515 14.5344418537486 L 0.636265288163003 8.98277907312569 L 10.0813181522327 8.98277907312568 Z M 13 3.23606797749979 L 10.8078606802381 9.98277907312568 L 3.71394882533825 9.98277907312568 L 9.4530440725501 14.1524758424985 L 7.26090475278816 20.8991869381244 L 13 16.7294901687516 L 18.7390952472118 20.8991869381244 L 16.5469559274499 14.1524758424985 L 22.2860511746617 9.98277907312568 L 15.1921393197619 9.98277907312568 L 13 3.23606797749979 Z"/></g></svg>