<svg xmlns="http://www.w3.org/2000/svg" xmlns:xlink="http://www.w3.org/1999/xlink" width="91" height="74" version="1.1"><g><path fill="#ccc" fill-rule="nonzero" stroke="none" d="M 1.89711084604317 38.3237497071942 C 2.5218005589928 38.2679154294964 2.98285503021583 37.7163161021583 2.92702075251798 37.0917255705036 C 2.87118647482014 36.4671350388489 2.31958714748201 36.0061797489209 1.6950957971223 36.0620141064748 C 1.39829833368531 36.0943299891304 1.12514695274001 36.2390856834126 0.931762532374099 36.4665401107914 C 0.737620342384892 36.6946480265032 0.645814844947781 36.9925496464241 0.677880058273381 37.2903687748202 C 0.711566476115179 37.5880732631743 0.858511144693317 37.8614017020797 1.08825727985612 38.0537021194245 C 1.28496708874172 38.2317059503495 1.54200586295857 38.3282461636096 1.80726025899281 38.3237497071942 L 1.89711084604317 38.3237497071942 Z M 2.72609661798561 37.1029321784173 C 2.7599753575883 37.474590243637 2.56612776383884 37.8299317556785 2.23529023381295 38.0026280647482 C 1.90443315528683 38.1752730157537 1.50209234319486 38.1311733809851 1.21648775395683 37.8909595093525 C 1.02323279336376 37.7401784671438 0.905148810044899 37.5127708869292 0.892985920143882 37.267955718705 C 0.868843802082624 37.0234489724829 0.943353671121374 36.7794264799784 1.09995963453237 36.5901093834532 C 1.25120556698109 36.3965487275784 1.47919829859067 36.278389277421 1.72455016618705 36.2664092669065 L 1.80706197625899 36.2664092669065 C 2.28497646357545 36.2621430191368 2.68551883120114 36.6267243442979 2.72609661798561 37.1029321784173 Z M 89.0346263136691 9.0013181971223 C 89.8985208669065 8.92416169784173 90.5364996755396 8.16102679568345 90.459541618705 7.29673551726619 C 90.3820876553957 6.43264260143885 89.6188534920863 5.79466379280576 88.7548597575539 5.87201865467626 C 88.3442456661507 5.91665017535991 87.9663418592606 6.11692357124737 87.6988674064748 6.43165094820144 C 87.4300905703315 6.74719677506197 87.3029847450945 7.15942998726856 87.3473989230216 7.57154348776978 C 87.39405488565 7.98345442503157 87.597428961758 8.3616158505353 87.9153617266187 8.62763494028777 C 88.1875370695156 8.87390718872358 88.5431612507936 9.00749227506841 88.9101644093525 9.0013181971223 L 89.0346263136691 9.0013181971223 Z M 90.1811634410072 7.31210734028777 C 90.2282790709889 7.82639718548555 89.9600294306619 8.31819475447072 89.502127089928 8.55702392733813 C 89.0443454416936 8.79590910953375 88.4876498936807 8.7348895727011 88.0924844266187 8.40251264604317 C 87.8250305689423 8.19391741707351 87.6615856947958 7.87926343193021 87.6447190510791 7.54050237769784 C 87.6112916957057 7.20214378629755 87.714440837503 6.86445442492472 87.931229376259 6.6025257057554 C 88.1404769343157 6.33469196790034 88.4559427211212 6.17120294725009 88.7954214733813 6.15466122877698 L 88.9096685827338 6.15466122877698 C 89.5707547165467 6.14871083021583 90.1251308007194 6.65310385395683 90.1811634410072 7.31210734028777 Z M 8.72406953956835 5.86567153093525 C 8.58937001465369 5.86561681443904 8.4802034867285 5.75640592379768 8.48020349784173 5.62170638776978 L 8.48020349784173 4.04416416618705 L 7.36599675755396 5.15837090647482 C 7.31950554046333 5.20257419814713 7.2578069826116 5.22722371109258 7.19365587770112 5.22722371109258 C 7.05552178262645 5.22722371109258 6.94354197338457 5.1152439018507 6.94354197338457 4.97710980677603 C 6.94354197338457 4.91298295165737 6.96817290006771 4.85130581050624 7.01234644532374 4.80481977553957 L 8.12675154820144 3.6906130352518 L 6.54633330863309 3.6906130352518 C 6.41096517498239 3.6906130352518 6.3012276205036 3.580875480773 6.3012276205036 3.4455073471223 C 6.3012276205036 3.3101392134716 6.41096517498239 3.20040165899281 6.54633330863309 3.20040165899281 L 8.12675154820144 3.20040165899281 L 7.01234644532374 2.0994840942446 C 6.96065850005092 2.05530014527893 6.93089763974671 1.99070749643526 6.93089763974671 1.92270848884892 C 6.93089763974671 1.85470948126258 6.96065850005092 1.79011683241891 7.01234644532374 1.74593288345324 C 7.05662182764079 1.69436380208777 7.12120337627297 1.66469252538164 7.18917160143885 1.66469252538164 C 7.25713982660472 1.66469252538164 7.3217213752369 1.69436380208777 7.36599675755395 1.74593288345324 L 8.48020349784172 2.84942900215827 L 8.48020349784173 1.27168841798561 C 8.47670888461889 1.2551371045099 8.47494732841727 1.23826687396132 8.47494732841727 1.22135065986512 C 8.47494732841727 1.08677671665126 8.5840410643401 0.97768298072843 8.71861500755395 0.97768298072843 C 8.85318895076781 0.97768298072843 8.96228268669065 1.08677671665126 8.96228268669065 1.22135065986512 C 8.96228268669065 1.23826687396132 8.96052113048902 1.2551371045099 8.95702651726618 1.27168841798561 L 8.95702651726618 2.84942900215827 L 10.0819439589928 1.73512308057554 C 10.1262555024513 1.68361513588561 10.1908236866388 1.65398869573892 10.2587691151079 1.65398869573892 C 10.326714543577 1.65398869573892 10.3912827277646 1.68361513588561 10.435594271223 1.73512308057554 C 10.4871899837493 1.77936171166615 10.5168830971893 1.84393414036653 10.5168830971893 1.91189864604317 C 10.5168830971893 1.9798631517198 10.4871899837493 2.04443558042018 10.435594271223 2.08867421151079 L 9.32118916834532 3.20307931438849 L 10.898830571223 3.20307931438849 C 11.034143928557 3.20307931438849 11.1438370780576 3.31277246388899 11.1438370780576 3.44808582122302 C 11.1438370780576 3.58339917855705 11.034143928557 3.69309232805755 10.898830571223 3.69309232805755 L 9.32118916834532 3.69309232805755 L 10.435594271223 4.80759661223022 C 10.4987673258993 4.8704722028777 10.5232630294964 4.96260372014389 10.5002549654676 5.0488841 C 10.4770444146489 5.13515073958241 10.4096834202171 5.20254951682074 10.3234298093525 5.22580843741007 C 10.2370795129479 5.24883405307471 10.1450034453834 5.22407634466422 10.0818447776978 5.16085027913669 L 8.95682815467626 4.04406498489209 L 8.95682815467626 5.62170638776978 C 8.98360478848921 5.75836655323741 8.84714298561151 5.86557234964029 8.71316055539569 5.8655724294964 L 8.72406953956835 5.8655724294964 Z M 8.45697476511938 72.4170391169065 C 8.45697476511938 72.3066692555254 8.36879597005873 72.2165203066734 8.25845304820144 72.2140818856115 L 7.584177 72.2140818856115 L 7.584177 71.5397066561151 C 7.58417700000001 71.4276438605613 7.49333215490627 71.3367990154676 7.38126935935252 71.3367990154676 C 7.26920656379877 71.3367990154676 7.17836171870504 71.4276438605614 7.17836171870504 71.5397066561151 L 7.17836171870504 72.2140818856115 L 6.5040856705036 72.2140818856115 C 6.39202287494985 72.2140818856115 6.30117802985612 72.3049267307052 6.30117802985612 72.416989526259 C 6.30117802985612 72.5290523218127 6.39202287494985 72.6198971669065 6.5040856705036 72.6198971669065 L 7.17836171870504 72.6198971669065 L 7.17836171870504 73.2941732151079 C 7.17847109986187 73.4055721452692 7.26877951442199 73.4958361784547 7.38017848489209 73.4958908 L 7.3822611323741 73.4871635647482 C 7.49390958575571 73.4871637845091 7.58417721976091 73.3968961505039 7.58417721976091 73.285545380912 L 7.584177 72.6199963482014 L 8.25845304820144 72.6199963482014 C 8.36879597005873 72.6175579271395 8.45697476511938 72.5274089782876 8.45697476511938 72.4170391169065 Z M 90.9265464884892 70.0281143258993 C 89.8039100568345 70.0282135071942 88.9022306244604 68.9591303431655 88.9022306244604 67.6401317172662 C 88.9022306244604 68.976783176259 87.997179347482 70.0281143258993 86.8777163978417 70.0281143258993 C 88.0003528294964 70.0281143258993 88.9022306244604 71.0974949539568 88.9022306244604 72.4161961158273 C 88.9022306244604 71.0793462942446 89.8074802640288 70.0281143258993 90.9265464884892 70.0281143258993 Z" transform="matrix(1 0 0 1 -42 -1013 ) matrix(1 0 0 1 42 1013 )"/></g></svg>