<?xml version="1.0" encoding="utf-8"?>
<svg version="1.1" xmlns:xlink="http://www.w3.org/1999/xlink" width="95px" height="2px" xmlns="http://www.w3.org/2000/svg">
  <g transform="matrix(1 0 0 1 -41 -1090 )">
    <path d="M 94.1728110848921 1.88623175395682  L 88.2637961985612 1.88623175395682  C 87.9532957654107 1.88623175395682  87.7015854309353 1.63452141948139  87.7015854309353 1.32402098633094  C 87.7015854309353 1.01352055318048  87.9532957654107 0.761810218705023  88.2637961985612 0.761810218705023  L 94.1728110848921 0.761810218705023  C 94.4833115180425 0.761810218705023  94.735021852518 1.01352055318048  94.735021852518 1.32402098633094  C 94.735021852518 1.63452141948139  94.4833115180425 1.88623175395682  94.1728110848921 1.88623175395682  Z M 83.9663398431655 1.88623175395682  L 5.36353923093525 1.88623175395682  C 5.0530387977848 1.88623175395682  4.80132846330935 1.63452141948139  4.80132846330935 1.32402098633094  C 4.80132846330935 1.01352055318048  5.0530387977848 0.761810218705023  5.36353923093525 0.761810218705023  L 83.9663398431655 0.761810218705023  C 84.2768402763159 0.761810218705023  84.5285506107914 1.01352055318048  84.5285506107914 1.32402098633094  C 84.5285506107914 1.63452141948139  84.2768402763159 1.88623175395682  83.9663398431655 1.88623175395682  Z M 2.80160740431655 1.88623175395682  L 0.900761791366905 1.88623175395682  C 0.590261358216459 1.88623175395682  0.338551023741006 1.63452141948139  0.338551023741006 1.32402098633094  C 0.338551023741006 1.01352055318048  0.590261358216459 0.761810218705023  0.900761791366905 0.761810218705023  L 2.80160740431655 0.761810218705023  C 3.112107837467 0.761810218705023  3.36381817194244 1.01352055318048  3.36381817194244 1.32402098633094  C 3.36381817194244 1.63452141948139  3.112107837467 1.88623175395682  2.80160740431655 1.88623175395682  Z " fill-rule="nonzero" fill="#7ecafc" stroke="none" transform="matrix(1 0 0 1 41 1090 )" />
  </g>
</svg>