<?xml version="1.0" encoding="utf-8"?>
<svg version="1.1" xmlns:xlink="http://www.w3.org/1999/xlink" width="45px" height="34px" xmlns="http://www.w3.org/2000/svg">
  <g transform="matrix(1 0 0 1 -68 -1034 )">
    <path d="M 43.8515260582734 33.8570510151079  L 0.873094673381296 33.8570510151079  C 0.872398915519668 33.8570541077651  0.87170315164277 33.8570556540995  0.871007386907714 33.8570556540995  C 0.611663667305542 33.8570556540995  0.401424043022821 33.6468160298168  0.401424043022821 33.3874723102146  C 0.401424043022821 33.3867765454789  0.401425589357167 33.3860807816033  1 33.385385023741  L 1 1.34016344172662  C 0.401425876062078 1.33950071773137  0.401424473081193 1.33883798853868  0.401424473081193 1.33817525860331  C 0.401424473081193 1.07883153900113  0.611664097363921 0.868591914718415  0.871007816966092 0.868591914718415  C 0.871703438347183 0.868591914718415  0.872399058869377 0.868593460415614  0.873094673381296 1  L 43.8515260582734 1  C 43.8522214063188 0.868593464087965  43.852916760363 0.868591920226958  43.8536121152639 0.868591920226958  C 44.1130653874994 0.868591920226958  44.3233938217387 1.07892035446625  44.3233938217387 1.33837362670178  C 44.3233938217387 1.33897023333349  44.3233926852339 1.33956683942487  44 1.34016344172662  L 44 33.385385023741  C 44.3233926834574 33.385981455813  44.323393819074 33.3865778916681  44.323393819074 33.3871743280645  C 44.323393819074 33.6466823766167  44.1130209798564 33.8570552158343  43.8535129313042 33.8570552158343  C 43.852850638074 33.8570552158343  43.8521883455827 33.857053815589  43.8515260582734 33.8570510151079  Z " fill-rule="nonzero" fill="#b1ddfc" stroke="none" transform="matrix(1 0 0 1 68 1034 )" />
  </g>
</svg>