<svg xmlns="http://www.w3.org/2000/svg" xmlns:xlink="http://www.w3.org/1999/xlink" width="9" height="8" version="1.1"><g><path fill="#7ecafc" fill-rule="nonzero" stroke="none" d="M 8.46008223309352 6.52289412877699 C 8.45969978323667 6.86080223275462 8.1858955440516 7.13465083804482 7.84798750647482 7.13508803669063 L 0.876831587769779 7.13508803669063 C 0.538923550193019 7.13465083804482 0.265119311007936 6.86080223275461 0.264736861151071 6.52289412877698 L 0.264736861151071 1.32365923956835 C 0.265119311007936 0.985751135590725 0.538923550192997 0.711902530300506 0.876831587769779 0.711465331654679 L 7.84798750647482 0.711465331654679 C 8.18589554405158 0.711902530300513 8.45969978323667 0.985751135590732 8.46008223309352 1.32365923956835 L 8.46008223309352 6.52289412877699 Z M 7.84798750647482 0.992521164748197 L 0.876831587769779 0.992521164748197 C 0.8757011013181 0.992509459287398 0.874570561841004 0.992503606439357 0.873440014789701 0.992503606439357 C 0.692529276965324 0.992503606439357 0.545872147163799 1.13916073624087 0.545872147163799 1.32007147406525 C 0.545872147163799 1.32126742280072 0.545878696768568 1.32246336256952 0.545891795683453 1.32365923956835 L 0.545891795683453 6.52289412877698 C 0.545878696768561 6.52409000577619 0.545872147163799 6.52528594554421 0.545872147163799 6.52648189428007 C 0.545872147163799 6.70739263210445 0.692529276965324 6.85404976190597 0.873440014789701 6.85404976190597 C 0.874570561841594 6.85404976190597 0.875701101317517 6.85404390905792 0.876831587769779 6.85403220359713 L 7.84798750647482 6.85403220359713 C 7.84911760731563 6.85404389753177 7.85024776109518 6.85404974461647 7.851377922437 6.85404974461647 C 8.03234343657805 6.85404974461647 8.17904497135785 6.70734820983665 8.17904497135785 6.5263826956956 C 8.17904497135785 6.52521981533972 8.17903878081753 6.52405694322368 8.1790264 6.52289412877698 L 8.17902640000001 1.32365923956835 C 8.17903878081752 1.32249642512232 8.17904497135785 1.32133355300493 8.17904497135785 1.32017067264972 C 8.17904497135785 1.13920515850867 8.03234343657805 0.992503623728858 7.851377922437 0.992503623728858 C 7.85024776109484 0.992503623728858 7.84911760731597 0.992509470813559 7.84798750647482 0.992521164748197 Z" transform="matrix(1 0 0 1 -86 -1067 ) matrix(1 0 0 1 86 1067 )"/></g></svg>