<svg xmlns="http://www.w3.org/2000/svg" xmlns:xlink="http://www.w3.org/1999/xlink" width="45" height="6" version="1.1"><g><path fill="#fff" fill-rule="nonzero" stroke="none" d="M 43.8515260582734 5.85705101510791 L 0.873094673381296 5.85705101510791 C 0.872398915519668 5.85705410776514 0.87170315164277 5.85705565409948 0.871007386907714 5.85705565409948 C 0.611663667305542 5.85705565409948 0.401424043022821 5.64681602981676 0.401424043022821 5.3874723102146 C 0.401424043022821 5.38677654547885 0.401425589357167 5.38608078160333 0.401428682014384 5.38538502374101 L 0.401428682014384 0.500726290647485 C 0.401425286338181 0.49999732149066 0.401423588493174 0.499268345414919 0.401423588493174 0.498539368349299 C 0.401423588493174 0.239250425063794 0.611618807797612 0.02905520575937 0.870907751083102 0.02905520575937 C 0.871636728147891 0.02905520575937 0.872365704225317 0.0290569036043848 0.873094673381296 0 L 43.8515260582734 0 C 43.8522547328043 0.0290569077817153 43.8529834142391 0.0290552120254048 43.8537120966625 0.0290552120254048 C 44.1131105925814 0.0290552120254048 44.3233946218424 0.239339241286402 44.3233946218424 0.498737737205261 C 44.3233946218424 0.499400590582432 44.3233932186352 0.500063443211253 44.3233904122302 0.500726290647485 L 44.3233904122302 5.38538502374101 C 44.3233926834574 5.38598145581301 44.323393819074 5.38657789166808 44.323393819074 5.38717432806451 C 44.323393819074 5.64668237661672 44.1130209798564 5.85705521583429 43.8535129313042 5.85705521583429 C 43.852850638074 5.85705521583429 43.8521883455827 5.85705381558904 43.8515260582734 5.85705101510791 Z" transform="matrix(1 0 0 1 -68 -1062 ) matrix(1 0 0 1 68 1062 )"/></g></svg>