<svg xmlns="http://www.w3.org/2000/svg" xmlns:xlink="http://www.w3.org/1999/xlink" width="22" height="20" version="1.1"><g><path fill="#000" fill-rule="nonzero" stroke="none" d="M 12.546875 4.375 C 12.546875 5.41037500000001 13.4123515625 6.25 14.48046875 6.25 C 15.5485859375 6.25 16.4140625 5.41037500000001 16.4140625 4.375 C 16.4140625 3.33962499999999 15.5485859375 2.5 14.48046875 2.5 C 13.4123515625 2.5 12.546875 3.33962499999999 12.546875 4.375 Z M 13.3203125 4.375 C 13.3203125 3.753625 13.8400625 3.25 14.48046875 3.25 C 15.120875 3.25 15.640625 3.753625 15.640625 4.375 C 15.640625 4.996375 15.120875 5.5 14.48046875 5.5 C 13.8400625 5.5 13.3203125 4.996375 13.3203125 4.375 Z M 0.624335937499999 10.795 C 0.329656250000001 11.081125 0.166460937500001 11.47075 0.171875 11.875 C 0.171488281249999 12.272875 0.334296874999999 12.654625 0.624335937499999 12.93625 L 5.6516796875 17.81125 C 6.255734375 18.3955 7.23297265625001 18.3955 7.836640625 17.81125 L 18.278046875 8.06125000000001 C 18.5696328125 7.78037500000001 18.7336015625 7.39825 18.734375 7 L 18.734375 1.75 C 18.734375 0.921625000000006 18.04176171875 0.25 17.1875 0.25 L 11.7734375 0.25 C 11.3596484375 0.249624999999999 10.9621015625 0.410499999999994 10.6712890625 0.696250000000001 L 0.624335937499999 10.795 Z M 1.17734375 11.32 L 1.17734375 11.335375 L 11.208828125 1.22125 C 11.3581015625 1.07575000000001 11.56190234375 0.995874999999993 11.7734375 1 L 17.1875 1 C 17.6144375 1 17.9609375 1.33599999999999 17.9609375 1.75 L 17.9609375 7 C 17.96209765625 7.19762500000002 17.88320703125 7.38737500000002 17.7405078125 7.52874999999998 L 7.2991015625 17.27875 C 6.99243359375 17.5645 6.50748828125001 17.5645 6.2008203125 17.27875 L 1.1734765625 12.40375 C 1.0280703125 12.263875 0.946085937500001 12.073375 0.9453125 11.875 C 0.942605468749996 11.66725 1.02613671875 11.467 1.17734375 11.32 Z M 21.828125 3.25 C 21.828125 2.42162500000001 21.13551171875 1.75 20.28125 1.75 L 19.89453125 1.75 C 19.68067578125 1.75 19.5078125 1.91800000000001 19.5078125 2.125 C 19.5078125 2.33199999999999 19.68067578125 2.5 19.89453125 2.5 L 20.28125 2.5 C 20.7081875 2.5 21.0546875 2.83599999999999 21.0546875 3.25 L 21.0546875 8.5 C 21.05430078125 8.709625 20.97618359375 8.91212499999998 20.8342578125 9.07000000000001 L 10.435390625 18.77875 C 10.135296875 19.06225 9.6565390625 19.06225 9.3564453125 18.77875 L 8.9697265625 18.35875 C 8.835921875 18.197125 8.59267578125 18.17125 8.426 18.301 C 8.25932421875 18.43075 8.232640625 18.667 8.3664453125 18.82825 C 8.374953125 18.838 8.38384765625 18.8485 8.393515625 18.8575 L 8.780234375 19.2925 C 9.071046875 19.58425 9.4716875 19.74925 9.8901171875 19.75 C 10.29733203125 19.74925 10.68791796875 19.59325 10.976796875 19.315 L 21.3756640625 9.6025 C 21.66725 9.30512500000001 21.82928515625 8.91024999999998 21.828125 8.5 L 21.828125 3.25 Z" transform="matrix(1 0 0 1 -881 -912 ) matrix(1 0 0 1 881 912 )"/></g></svg>