<svg xmlns="http://www.w3.org/2000/svg" xmlns:xlink="http://www.w3.org/1999/xlink" width="20" height="20" version="1.1"><g><path fill="#000" fill-rule="nonzero" stroke="none" d="M 10.1177884615385 0.194711538461538 C 9.96153846153846 0.194711538461538 8.59375 0.257211538461538 8.59375 1.74519230769231 C 8.59375 4.93509615384615 6.57451923076923 6.94951923076923 5.70673076923077 7.66826923076923 L 5.47596153846154 7.85817307692308 L 5.27403846153846 7.63701923076923 C 5.15384615384615 7.50480769230769 4.65625 7.37019230769231 4.29086538461538 7.37019230769231 L 0.367788461538461 7.37019230769231 C 0.185096153846154 7.37019230769231 0.0264423076923076 7.52884615384615 0 7.71153846153846 L 0 19.4855769230769 C 0.0264423076923076 19.7115384615385 0.141826923076923 19.8269230769231 0.367788461538461 19.8269230769231 L 12.7980769230769 19.8269230769231 C 17.0240384615385 19.8269230769231 18.2908653846154 17.5817307692308 19.6899038461538 12.2115384615385 C 20.1466346153846 10.4639423076923 20.0552884615385 9.16346153846154 19.4230769230769 8.34375 C 18.7668269230769 7.49519230769231 17.6514423076923 7.31730769230769 16.8293269230769 7.31730769230769 C 16.4134615384615 7.31730769230769 16.1225961538462 7.36538461538462 16.1201923076923 7.36538461538462 L 16.0673076923077 7.37019230769231 L 12.3485576923077 7.37019230769231 L 12.5024038461538 6.94951923076923 C 12.5096153846154 6.93269230769231 13.1274038461538 5.23076923076923 13.1274038461538 4.23076923076923 C 13.1274038461538 0.569711538461538 11.2379807692308 0.173076923076923 10.4278846153846 0.173076923076923 C 10.2692307692308 0.173076923076923 10.1706730769231 0.189903846153846 10.1682692307692 0.189903846153846 L 10.1177884615385 0.194711538461538 Z M 5 19.1442307692308 L 4.60576923076923 19.1442307692308 L 1 19.1442307692308 L 1 8.05288461538462 L 5 8.05288461538462 L 5 19.1442307692308 Z M 9.18990384615384 1.74519230769231 C 9.18990384615384 1.125 9.60576923076923 0.810096153846154 10.4206730769231 0.810096153846152 C 11.3822115384615 0.810096153846152 12.5264423076923 1.34855769230769 12.5264423076923 3.91826923076923 C 12.5264423076923 5.75961538461538 11.5144230769231 7.28125 10.8822115384615 8.05048076923077 L 16.0264423076923 8.05048076923077 C 16.1346153846154 8.02644230769231 16.4447115384615 7.96634615384615 16.8293269230769 7.96634615384615 C 17.6778846153846 7.96634615384615 18.3485576923077 8.25240384615384 18.7644230769231 8.79567307692308 C 19.3389423076923 9.54326923076923 19.4134615384615 10.7451923076923 18.9807692307692 12.3701923076923 C 17.8413461538462 16.6610576923077 16.4639423076923 19.1442307692308 12.7908653846154 19.1442307692308 L 5.28605769230769 19.1442307692308 L 5.28605769230769 8.85336538461539 L 5.42307692307692 8.75961538461539 C 5.46153846153846 8.73317307692308 9.18990384615384 6.16586538461538 9.18990384615384 1.74519230769231 Z" transform="matrix(1 0 0 1 -881 -1810 ) matrix(1 0 0 1 881 1810 )"/></g></svg>