<?xml version="1.0" encoding="utf-8"?>
<svg version="1.1" xmlns:xlink="http://www.w3.org/1999/xlink" width="41px" height="44px" xmlns="http://www.w3.org/2000/svg">
  <g transform="matrix(1 0 0 1 -485 -3333 )">
    <path d="M 2.89286640726329 15  L 14.6703256194962 15  L 14.6703256194962 20  L 2.89286640726329 20  L 2.89286640726329 15  Z M 17.3571984435798 22  L 17.3571984435798 13  L 0.205993583179739 13  L 0.205993583179739 22  L 17.3571984435798 22  Z M 2.89286640726329 33  L 14.6703256194962 33  L 14.6703256194962 38  L 2.89286640726329 38  L 2.89286640726329 33  Z M 17.3571984435798 41  L 17.3571984435798 31  L 1 31  L 1 41  L 17.3571984435798 41  Z M 25.9641477233941 3  L 37.741606935627 3  L 37.741606935627 8  L 25.9641477233941 8  L 25.9641477233941 3  Z M 40.4284797597106 10  L 40.4284797597106 0  L 23.2772748993105 0  L 23.2772748993105 10  L 40.4284797597106 10  Z M 25.9641477233941 36  L 37.741606935627 36  L 37.741606935627 41  L 25.9641477233941 41  L 25.9641477233941 36  Z M 40.4284797597106 43  L 40.4284797597106 33  L 23 33  L 23 43  L 40.4284797597106 43  Z M 25.9641477233941 20  L 37.741606935627 20  L 37.741606935627 24  L 25.9641477233941 24  L 25.9641477233941 20  Z M 40.4284797597106 27  L 40.4284797597106 18  L 23.2772748993105 18  L 23.2772748993105 27  L 40.4284797597106 27  Z " fill-rule="nonzero" fill="#545efb" stroke="none" transform="matrix(1 0 0 1 485 3333 )" />
  </g>
</svg>