<?xml version="1.0" encoding="utf-8"?>
<svg version="1.1" xmlns:xlink="http://www.w3.org/1999/xlink" width="54px" height="26px" xmlns="http://www.w3.org/2000/svg">
  <g transform="matrix(1 0 0 1 -485 -3332 )">
    <path d="M 53.6554085603113 24.8646779074795  L 52.7230505836576 23  L 40.4679221789883 23  L 40.4858521400778 24.8646779074795  L 53.6554085603113 24.8646779074795  Z M 33.7979766536965 23.7405966277562  L 35.196513618677 25  L 7.18094941634241 25  L 8.5884513618677 23.7405966277562  L 33.7979766536965 23.7405966277562  Z M 16.7824435797665 13  L 17.4010272373541 14.693990488543  L 0.206194552529182 14.693990488543  L 0.824778210116729 13  L 16.7824435797665 13  Z M 40.6382568093385 2.20319930825768  L 39.6879688715953 1  L 23.7661634241245 1  L 23.2461945525292 2.20319930825768  L 40.6382568093385 2.20319930825768  Z M 39.7148638132296 18  L 40.4320622568093 19.7028966709901  L 25.8908638132296 19.7028966709901  L 25.8908638132296 18  L 39.7148638132296 18  Z " fill-rule="nonzero" fill="#c7c9fd" stroke="none" transform="matrix(1 0 0 1 485 3332 )" />
  </g>
</svg>