<?xml version="1.0" encoding="utf-8"?>
<svg version="1.1" xmlns:xlink="http://www.w3.org/1999/xlink" width="1024px" height="875px" xmlns="http://www.w3.org/2000/svg">
  <g transform="matrix(1 0 0 1 -88 -246 )">
    <path d="M 89 249  A 2 2 0 0 1 91 247 L 1109 247  A 2 2 0 0 1 1111 249 L 1111 1118  A 2 2 0 0 1 1109 1120 L 91 1120  A 2 2 0 0 1 89 1118 L 89 249  Z " fill-rule="nonzero" fill="#ffffff" stroke="none" fill-opacity="0" />
    <path d="M 88.5 249  A 2.5 2.5 0 0 1 91 246.5 L 1109 246.5  A 2.5 2.5 0 0 1 1111.5 249 L 1111.5 1118  A 2.5 2.5 0 0 1 1109 1120.5 L 91 1120.5  A 2.5 2.5 0 0 1 88.5 1118 L 88.5 249  Z " stroke-width="1" stroke-dasharray="9,4" stroke="#cccccc" fill="none" stroke-dashoffset="0.5" />
  </g>
</svg>