<svg xmlns="http://www.w3.org/2000/svg" xmlns:xlink="http://www.w3.org/1999/xlink" width="150" height="62" version="1.1"><g><path fill="#ccc" fill-rule="nonzero" stroke="none" d="M 0 0 L 150 0 L 150 62 L 0 62 L 0 0"/><path fill="#fff" fill-rule="nonzero" stroke="none" d="M 4 4 L 146 4 L 146 58 L 4 58 L 4 4"/><path fill="#ccc" fill-rule="nonzero" stroke="none" d="M 82.65 18.6 C 80.046 18.6 78 16.554 78 13.95 C 78 11.346 80.046 9.3 82.65 9.3 C 85.254 9.3 87.3 11.346 87.3 13.95 C 87.3 16.554 85.254 18.6 82.65 18.6"/><path fill="#169bd5" fill-rule="nonzero" stroke="none" d="M 6 57 L 6 28.95 L 40.75 16.2 L 89.4 44.352 L 117.2 23.85 L 145 44.352 L 145 57 L 6 57"/><path fill="none" stroke="#6badff" stroke-opacity=".6" stroke-width="1" d="M 0.5 61.5 L 0.5 0.5 L 149.5 0.5 L 149.5 61.5 L 0.5 61.5 Z"/></g></svg>