<svg xmlns="http://www.w3.org/2000/svg" xmlns:xlink="http://www.w3.org/1999/xlink" width="50" height="50" version="1.1"><g><path fill="#f9f9f9" fill-rule="nonzero" stroke="none" d="M 199 1198 C 211.32 1198 221 1207.68 221 1220 C 221 1232.32 211.32 1242 199 1242 C 186.68 1242 177 1232.32 177 1220 C 177 1207.68 186.68 1198 199 1198 Z" transform="matrix(1 0 0 1 -174 -1195 )"/><path fill="none" stroke="#ccc" stroke-width="4" d="M 199 1197 C 211.88 1197 222 1207.12 222 1220 C 222 1232.88 211.88 1243 199 1243 C 186.12 1243 176 1232.88 176 1220 C 176 1207.12 186.12 1197 199 1197 Z" transform="matrix(1 0 0 1 -174 -1195 )"/></g></svg>