<?xml version="1.0" encoding="utf-8"?>
<svg version="1.1" xmlns:xlink="http://www.w3.org/1999/xlink" width="50px" height="50px" xmlns="http://www.w3.org/2000/svg">
  <g transform="matrix(1 0 0 1 -174 -1338 )">
    <path d="M 199 1341  C 211.32 1341  221 1350.68  221 1363  C 221 1375.32  211.32 1385  199 1385  C 186.68 1385  177 1375.32  177 1363  C 177 1350.68  186.68 1341  199 1341  Z " fill-rule="nonzero" fill="#f9f9f9" stroke="none" />
    <path d="M 199 1340  C 211.88 1340  222 1350.12  222 1363  C 222 1375.88  211.88 1386  199 1386  C 186.12 1386  176 1375.88  176 1363  C 176 1350.12  186.12 1340  199 1340  Z " stroke-width="4" stroke="#0079fe" fill="none" />
  </g>
</svg>