<?xml version="1.0" encoding="utf-8"?>
<svg version="1.1" xmlns:xlink="http://www.w3.org/1999/xlink" width="20px" height="20px" xmlns="http://www.w3.org/2000/svg">
  <g transform="matrix(1 0 0 1 -8 -8 )">
    <path d="M 19.8793951612903 9.97772177419355  C 19.8793951612903 15.418125  15.453064516129 19.8441733870968  10.0129435483871 19.8441733870968  C 4.57225806451613 19.8441733870968  0.146209677419356 15.418125  0.146209677419356 9.97772177419355  C 0.146209677419356 4.5373185483871  4.57225806451613 0.110987903225806  10.0129435483871 0.110987903225806  C 15.4533467741936 0.110987903225806  19.8793951612903 4.5373185483871  19.8793951612903 9.97772177419355  Z M 19.0535887096774 9.97770161290322  C 19.0535887096774 4.99258064516129  14.9977822580645 0.936774193548386  10.0129435483871 0.936774193548387  C 5.02782258064516 0.936774193548387  0.972016129032259 4.99258064516129  0.972016129032259 9.97770161290323  C 0.972016129032259 14.9628225806452  5.02754032258065 19.0183467741935  10.0129435483871 19.0183467741935  C 14.9977822580645 19.0183467741935  19.0535887096774 14.9628225806452  19.0535887096774 9.97770161290322  Z M 8.59227822580645 9.47395161290323  L 8.2291935483871 9.19318548387097  C 9.20915322580645 8.12514112903226  10.0789919354839 7.59112903225807  10.8384677419355 7.59112903225807  C 11.036935483871 7.59112903225807  11.1742943548387 7.62141129032258  11.2513709677419 7.68197580645161  C 11.3281653225806 7.74282258064516  11.3669758064516 7.83887096774194  11.3669758064516 7.97100806451613  C 11.3669758064516 8.16947580645162  11.1908064516129 8.82983870967742  10.8384677419355 9.9529435483871  C 10.2659072580645 11.9018548387097  9.97963709677419 13.0527419354839  9.97963709677419 13.4048185483871  C 9.97963709677419 13.5812701612903  10.0346975806452 13.6690725806452  10.1450806451613 13.6690725806452  C 10.3653024193548 13.6690725806452  10.8164516129032 13.33875  11.4993951612903 12.6781048387097  L 11.7966935483871 12.9919153225806  C 11.0917338709677 13.6635685483871  10.5634879032258 14.10125  10.2111491935484 14.3052217741935  C 9.85852822580645 14.5086491935484  9.56122983870967 14.6104838709677  9.31927419354838 14.6104838709677  C 9.12108870967742 14.6104838709677  8.97489919354838 14.5386290322581  8.88159274193548 14.3957661290323  C 8.78772177419354 14.2529032258065  8.74092741935484 14.09875  8.74092741935484 13.9333064516129  C 8.74092741935484 13.3280040322581  9.14804435483871 11.6871169354839  9.963125 9.01149193548387  C 10.0068951612903 8.87935483870968  10.0291935483871 8.77504032258064  10.0291935483871 8.6976814516129  C 10.0291935483871 8.57657258064516  9.963125 8.51600806451613  9.83072580645161 8.51600806451613  C 9.64354838709677 8.51629032258064  9.23064516129032 8.83560483870968  8.59229838709677 9.47395161290322  Z M 10.2543346774194 6.1864314516129  C 10.2543346774194 5.94447580645161  10.3369153225806 5.74352822580645  10.5017943548387 5.58387096774194  C 10.6672379032258 5.42421370967742  10.8596370967742 5.34439516129032  11.0801411290323 5.34439516129032  C 11.2232862903226 5.34439516129032  11.3496169354839 5.40770161290323  11.4600201612903 5.53405241935484  C 11.5698387096774 5.66094758064516  11.6251814516129 5.80657258064516  11.6251814516129 5.97173387096774  C 11.6251814516129 6.19223790322581  11.5426008064516 6.39042338709677  11.3777217741935 6.56631048387097  C 11.2122782258065 6.74276209677419  11.0251008064516 6.83056451612903  10.8161693548387 6.83056451612903  C 10.6397177419355 6.83056451612903  10.5020766129032 6.77028225806452  10.4032661290323 6.64917338709677  C 10.3038911290323 6.52806451612903  10.2543346774194 6.37391129032258  10.2543346774194 6.18645161290322  Z " fill-rule="nonzero" fill="#ffffff" stroke="none" transform="matrix(1 0 0 1 8 8 )" />
  </g>
</svg>