<svg xmlns="http://www.w3.org/2000/svg" xmlns:xlink="http://www.w3.org/1999/xlink" width="215" height="40" version="1.1"><g><path fill="#464c5b" fill-rule="nonzero" stroke="none" d="M 945.5 30 A 19.5 19.5 0 0 1 965 10.5 L 1140 10.5 A 19.5 19.5 0 0 1 1159.5 30 A 19.5 19.5 0 0 1 1140 49.5 L 965 49.5 A 19.5 19.5 0 0 1 945.5 30 Z" transform="matrix(1 0 0 1 -945 -10 )"/><path fill="none" stroke="#ef553b" stroke-width="1" d="M 945.5 30 A 19.5 19.5 0 0 1 965 10.5 L 1140 10.5 A 19.5 19.5 0 0 1 1159.5 30 A 19.5 19.5 0 0 1 1140 49.5 L 965 49.5 A 19.5 19.5 0 0 1 945.5 30 Z" transform="matrix(1 0 0 1 -945 -10 )"/></g></svg>