<?xml version="1.0" encoding="utf-8"?>
<svg version="1.1" xmlns:xlink="http://www.w3.org/1999/xlink" width="215px" height="40px" xmlns="http://www.w3.org/2000/svg">
  <g transform="matrix(1 0 0 1 -945 -10 )">
    <path d="M 945.5 30  A 19.5 19.5 0 0 1 965 10.5 L 1140 10.5  A 19.5 19.5 0 0 1 1159.5 30 A 19.5 19.5 0 0 1 1140 49.5 L 965 49.5  A 19.5 19.5 0 0 1 945.5 30 Z " fill-rule="nonzero" fill="#464c5b" stroke="none" />
    <path d="M 945.5 30  A 19.5 19.5 0 0 1 965 10.5 L 1140 10.5  A 19.5 19.5 0 0 1 1159.5 30 A 19.5 19.5 0 0 1 1140 49.5 L 965 49.5  A 19.5 19.5 0 0 1 945.5 30 Z " stroke-width="1" stroke="#ef553b" fill="none" />
  </g>
</svg>