<?xml version="1.0" encoding="utf-8"?>
<svg version="1.1" xmlns:xlink="http://www.w3.org/1999/xlink" width="215px" height="40px" xmlns="http://www.w3.org/2000/svg">
  <g transform="matrix(1 0 0 1 -945 -10 )">
    <path d="M 946.5 30  A 18.5 18.5 0 0 1 965 11.5 L 1140 11.5  A 18.5 18.5 0 0 1 1158.5 30 A 18.5 18.5 0 0 1 1140 48.5 L 965 48.5  A 18.5 18.5 0 0 1 946.5 30 Z " fill-rule="nonzero" fill="#464c5b" stroke="none" />
    <path d="M 946 30  A 19 19 0 0 1 965 11 L 1140 11  A 19 19 0 0 1 1159 30 A 19 19 0 0 1 1140 49 L 965 49  A 19 19 0 0 1 946 30 Z " stroke-width="2" stroke="#1980ff" fill="none" />
  </g>
</svg>