<?xml version="1.0" encoding="utf-8"?>
<svg version="1.1" xmlns:xlink="http://www.w3.org/1999/xlink" width="30px" height="30px" xmlns="http://www.w3.org/2000/svg">
  <g transform="matrix(1 0 0 1 0 -127 )">
    <path d="M 15 0  C 6.68750000976562 0  0 6.68750000976563  0 15  C 0 23.3124999902344  6.68750000976563 30  15 30  C 23.3124999902344 30  30 23.3124999902344  30 15  C 30 6.68750000976562  23.3124999902344 0  15 0  Z M 10.1874999902344 6.06249999023438  C 10.6249999804687 5.625  11.3749999804688 5.625  11.8749999902344 6.06249999023438  L 19.9374999902344 14.1249999902344  C 20.1874999804687 14.3749999804688  20.3124999902344 14.6874999902344  20.25 15  C 20.25 15.3125000097656  20.1249999902344 15.6249999902344  19.9374999902344 15.8750000097656  L 11.8749999902344 23.9375000097656  C 11.4375 24.375  10.6875 24.375  10.2500000097656 23.9375000097656  L 10.125 23.8125  C 9.68750000976562 23.3750000097656  9.68750000976562 22.6250000097656  10.125 22.1874999902344  L 17.25 15  L 10.0625000097656 7.81250000976563  C 9.62500001953125 7.37500001953125  9.62500001953125 6.62500001953125  10.0625000097656 6.1875  L 10.1874999902344 6.06249999023438  Z " fill-rule="nonzero" fill="#000000" stroke="none" fill-opacity="0.298039215686275" transform="matrix(1 0 0 1 0 127 )" />
  </g>
</svg>