<?xml version="1.0" encoding="utf-8"?>
<svg version="1.1" xmlns:xlink="http://www.w3.org/1999/xlink" width="164px" height="55px" xmlns="http://www.w3.org/2000/svg">
  <defs>
    <mask fill="white" id="clip62">
      <path d="M 0.450549450549451 3.83196721311475  C 0.450549450549451 1.84836065573772  2.07252747252748 0.225409836065574  4.05494505494505 0.225409836065574  C 4.05494505494505 0.225409836065574  159.945054945055 0.225409836065574  159.945054945055 0.225409836065574  C 161.927472527473 0.225409836065574  163.549450549451 1.84836065573772  163.549450549451 3.83196721311475  C 163.549450549451 3.83196721311475  163.549450549451 50.7172131147541  163.549450549451 50.7172131147541  C 163.549450549451 52.7008196721311  161.927472527473 54.3237704918033  159.945054945055 54.3237704918033  C 159.945054945055 54.3237704918033  4.05494505494505 54.3237704918033  4.05494505494505 54.3237704918033  C 2.07252747252748 54.3237704918033  0.450549450549451 52.7008196721311  0.450549450549451 50.7172131147541  C 0.450549450549451 50.7172131147541  0.450549450549451 3.83196721311475  0.450549450549451 3.83196721311475  Z " fill-rule="evenodd" />
    </mask>
  </defs>
  <g transform="matrix(1 0 0 1 -47 -6 )">
    <path d="M 0.450549450549451 3.83196721311475  C 0.450549450549451 1.84836065573772  2.07252747252748 0.225409836065574  4.05494505494505 0.225409836065574  C 4.05494505494505 0.225409836065574  159.945054945055 0.225409836065574  159.945054945055 0.225409836065574  C 161.927472527473 0.225409836065574  163.549450549451 1.84836065573772  163.549450549451 3.83196721311475  C 163.549450549451 3.83196721311475  163.549450549451 50.7172131147541  163.549450549451 50.7172131147541  C 163.549450549451 52.7008196721311  161.927472527473 54.3237704918033  159.945054945055 54.3237704918033  C 159.945054945055 54.3237704918033  4.05494505494505 54.3237704918033  4.05494505494505 54.3237704918033  C 2.07252747252748 54.3237704918033  0.450549450549451 52.7008196721311  0.450549450549451 50.7172131147541  C 0.450549450549451 50.7172131147541  0.450549450549451 3.83196721311475  0.450549450549451 3.83196721311475  Z " fill-rule="nonzero" fill="#6badff" stroke="none" fill-opacity="0" transform="matrix(1 0 0 1 47 6 )" />
    <path d="M 0.450549450549451 3.83196721311475  C 0.450549450549451 1.84836065573772  2.07252747252748 0.225409836065574  4.05494505494505 0.225409836065574  C 4.05494505494505 0.225409836065574  159.945054945055 0.225409836065574  159.945054945055 0.225409836065574  C 161.927472527473 0.225409836065574  163.549450549451 1.84836065573772  163.549450549451 3.83196721311475  C 163.549450549451 3.83196721311475  163.549450549451 50.7172131147541  163.549450549451 50.7172131147541  C 163.549450549451 52.7008196721311  161.927472527473 54.3237704918033  159.945054945055 54.3237704918033  C 159.945054945055 54.3237704918033  4.05494505494505 54.3237704918033  4.05494505494505 54.3237704918033  C 2.07252747252748 54.3237704918033  0.450549450549451 52.7008196721311  0.450549450549451 50.7172131147541  C 0.450549450549451 50.7172131147541  0.450549450549451 3.83196721311475  0.450549450549451 3.83196721311475  Z " stroke-width="6" stroke="#fe7548" fill="none" transform="matrix(1 0 0 1 47 6 )" mask="url(#clip62)" />
  </g>
</svg>