<?xml version="1.0" encoding="utf-8"?>
<svg version="1.1" xmlns:xlink="http://www.w3.org/1999/xlink" width="67px" height="67px" xmlns="http://www.w3.org/2000/svg">
  <g transform="matrix(1 0 0 1 -240 0 )">
    <path d="M 273.5 2.5  C 290.86 2.5  304.5 16.14  304.5 33.5  C 304.5 50.86  290.86 64.5  273.5 64.5  C 256.14 64.5  242.5 50.86  242.5 33.5  C 242.5 16.14  256.14 2.5  273.5 2.5  Z " fill-rule="nonzero" fill="#ffffff" stroke="none" />
    <path d="M 273.5 1.5  C 291.42 1.5  305.5 15.58  305.5 33.5  C 305.5 51.42  291.42 65.5  273.5 65.5  C 255.58 65.5  241.5 51.42  241.5 33.5  C 241.5 15.58  255.58 1.5  273.5 1.5  Z " stroke-width="3" stroke="#fe7548" fill="none" stroke-opacity="0.498039215686275" />
  </g>
</svg>