<?xml version="1.0" encoding="utf-8"?>
<svg version="1.1" xmlns:xlink="http://www.w3.org/1999/xlink" width="67px" height="67px" xmlns="http://www.w3.org/2000/svg">
  <g transform="matrix(1 0 0 1 -597 -170 )">
    <path d="M 630.5 172.5  C 647.86 172.5  661.5 186.14  661.5 203.5  C 661.5 220.86  647.86 234.5  630.5 234.5  C 613.14 234.5  599.5 220.86  599.5 203.5  C 599.5 186.14  613.14 172.5  630.5 172.5  Z " fill-rule="nonzero" fill="#6badff" stroke="none" fill-opacity="0.698039215686274" />
    <path d="M 630.5 171.5  C 648.42 171.5  662.5 185.58  662.5 203.5  C 662.5 221.42  648.42 235.5  630.5 235.5  C 612.58 235.5  598.5 221.42  598.5 203.5  C 598.5 185.58  612.58 171.5  630.5 171.5  Z " stroke-width="3" stroke="#6badff" fill="none" stroke-opacity="0.298039215686275" />
  </g>
</svg>