<?xml version="1.0" encoding="utf-8"?>
<svg version="1.1" xmlns:xlink="http://www.w3.org/1999/xlink" width="67px" height="67px" xmlns="http://www.w3.org/2000/svg">
  <g transform="matrix(1 0 0 1 -245 -170 )">
    <path d="M 278.5 172.5  C 295.86 172.5  309.5 186.14  309.5 203.5  C 309.5 220.86  295.86 234.5  278.5 234.5  C 261.14 234.5  247.5 220.86  247.5 203.5  C 247.5 186.14  261.14 172.5  278.5 172.5  Z " fill-rule="nonzero" fill="#6badff" stroke="none" fill-opacity="0.698039215686274" />
    <path d="M 278.5 171.5  C 296.42 171.5  310.5 185.58  310.5 203.5  C 310.5 221.42  296.42 235.5  278.5 235.5  C 260.58 235.5  246.5 221.42  246.5 203.5  C 246.5 185.58  260.58 171.5  278.5 171.5  Z " stroke-width="3" stroke="#6badff" fill="none" stroke-opacity="0.298039215686275" />
  </g>
</svg>