<?xml version="1.0" encoding="utf-8"?>
<svg version="1.1" xmlns:xlink="http://www.w3.org/1999/xlink" width="32px" height="21px" xmlns="http://www.w3.org/2000/svg">
  <g transform="matrix(1 0 0 1 -24 -27 )">
    <path d="M 32 18.375  L 26.6666666666667 18.375  C 28.14 18.375  29.32 17.2003125  29 15.75  L 29 2.625  C 29.3333333333333 1.1746875  28.14 0  26.6666666666667 0  L 5.33333333333333 0  C 3.86 0  2.66666666666667 1.1746875  3 2.625  L 3 15.75  C 2.66666666666667 17.2003125  3.86 18.375  5.33333333333333 18.375  L 0 18.375  L 0 21  L 32 21  L 32 18.375  Z M 5.33333333333333 15.75  L 5.33333333333333 3  L 26.6666666666667 3  L 26.6666666666667 15.75  L 5.33333333333333 15.75  Z " fill-rule="nonzero" fill="#aaaaaa" stroke="none" transform="matrix(1 0 0 1 24 27 )" />
  </g>
</svg>