<?xml version="1.0" encoding="utf-8"?>
<svg version="1.1" xmlns:xlink="http://www.w3.org/1999/xlink" width="33px" height="155px" xmlns="http://www.w3.org/2000/svg">
  <g transform="matrix(1 0 0 1 -494 -1835 )">
    <path d="M 0.768471563981052 10.2544786729858  C 0.51354265402847 6.06553317535544  3.53792654028433 1.92873222748814  7.71528436018957 1.20450236966823  C 12.6516350710901 0.683056872037903  17.6401303317535 1.10600710900473  22.5938625592417 0.955367298578188  C 25.6819786729857 0.787345971563969  28.978672985782 1.78388625592416  30.8674644549763 4.36214454976302  C 33.0459478672986 6.96937203791468  32.7214928909953 10.5557582938388  32.7272867298578 13.7307819905213  C 32.6925236966824 57.561172985782  32.7330805687204 101.391563981043  32.7099052132702 145.227748815166  C 32.8084004739337 148.298483412322  31.3599407582939 151.380805687204  28.7353317535545 153.043637440758  C 26.0933412322275 154.851315165877  22.7329146919432 154.416777251185  19.7027369668247 154.47471563981  C 15.8382464454976 154.353045023697  11.9505805687204 154.683293838863  8.0976777251185 154.295106635071  C 3.78706161137438 153.756279620853  0.507748815165883 149.549952606635  0.768471563981052 145.250924170616  C 0.762677725118522 100.250177725118  0.768471563981052 55.2494312796209  0.768471563981052 10.2544786729858  Z M 10.2703672985782 11.7782582938388  C 11.0467417061611 10.225509478673  9.40708530805688 8.34251184834122  7.77901658767769 8.72490521327013  C 6.13356635071096 8.94507109004738  5.27028436018958 11.2336374407583  6.4754028436019 12.4213744075829  C 7.50670616113746 13.6786374407583  9.68518957345975 13.2788625592417  10.2703672985782 11.7782582938388  Z M 27.0319431279621 11.8014336492891  C 27.7967298578199 10.2486848341232  26.243981042654 8.38306872037914  24.5985308056872 8.78863744075828  C 23.1906279620853 9.01459715639809  22.3852843601896 10.7701303317535  23.1384834123223 11.9752488151659  C 23.8743009478673 13.5453791469194  26.4235900473934 13.4121208530806  27.0319431279621 11.8014336492891  Z M 18.76413507109 16.0425236966825  C 19.1291469194313 14.6346208530806  17.8776777251185 13.2325118483412  16.4523933649289 13.406327014218  C 14.5925710900474 13.3889454976303  13.6597630331754 16.0251421800948  15.0386966824645 17.1839099526066  C 16.1569075829384 18.4527606635071  18.6192890995261 17.809644549763  18.76413507109 16.0425236966825  Z M 10.2877488151659 21.7958056872038  C 10.7396682464455 20.3009952606635  9.23906398104265 18.7134834123223  7.72687203791475 19.1422274881516  C 6.2784123222749 19.3623933649289  5.50203791469198 21.2106279620853  6.31896919431279 22.4099526066351  C 7.15907582938394 24.0380213270142  9.9864691943128 23.6266587677725  10.2877488151659 21.7958056872038  Z M 27.0667061611375 22.2824881516588  C 27.9647511848341 20.6312440758294  26.2497748815166 18.4991113744076  24.4478909952607 19.124845971564  C 23.0689573459716 19.3913625592417  22.4258412322275 21.1700710900474  23.1037203791469 22.3404265402844  C 23.8221563981043 23.8873815165877  26.3656516587678 23.8642061611374  27.0667061611375 22.2824881516588  Z M 17.9645853080569 27.7055213270142  C 19.7259123222749 26.5351658767772  18.5265876777252 23.4296682464455  16.4292180094787 23.7541232227488  C 15.3689454976303 23.87  14.3028791469194 24.7101066350711  14.4187559241706 25.8746682464455  C 14.1290639810427 27.6707582938389  16.6435900473934 28.9627843601896  17.9645853080569 27.7055213270142  Z M 10.3283056872038 31.7032701421801  C 10.5195023696683 30.0694075829384  8.59015402843602 28.8932582938388  7.18225118483412 29.6580450236967  C 5.66426540284363 30.2953672985782  5.61212085308057 32.6071090047393  6.973672985782 33.4298341232227  C 8.25411137440761 34.3626421800948  10.4268009478673 33.3545142180095  10.3283056872038 31.7032701421801  Z M 27.2057582938389 32.230509478673  C 27.8199052132701 30.4112440758294  25.6066587677725 28.615154028436  23.9612085308057 29.6116943127962  C 22.8372037914692 30.1621090047393  22.5185426540285 31.7322393364929  23.1384834123223 32.769336492891  C 23.984383886256 34.385817535545  26.8233649289099 34.0613625592417  27.2057582938389 32.230509478673  Z M 18.8162796208531 36.3093720379147  C 18.8858056872038 34.8087677725118  17.2287677725118 33.6615876777251  15.8498341232228 34.2004146919431  C 14.1000947867299 34.7160663507109  13.8509597156398 37.4797274881517  15.5195853080569 38.250308056872  C 16.8927251184834 39.1193838862559  18.8973933649289 37.9316469194313  18.8162796208531 36.3093720379147  Z M 9.28541469194312 43.8819194312796  C 11.8173222748815 42.5840995260663  9.64463270142181 38.5457938388625  7.13010663507106 39.9421090047393  C 4.41279620853084 41.1414336492891  6.83462085308054 45.5157819905213  9.28541469194312 43.8819194312796  Z M 27.269490521327 42.1263862559242  C 27.4780687203792 40.4056161137441  25.4096682464455 39.0962085308057  23.9322393364929 39.9884597156398  C 22.4895734597156 40.7068957345972  22.4142535545024 43.0591943127962  23.8627132701421 43.8181872037915  C 25.166327014218 44.7336137440758  27.2636966824645 43.7544549763033  27.269490521327 42.1263862559242  Z M 18.804691943128 46.7382819905213  C 18.9843009478673 45.1971208530806  17.1360663507108 43.8935071090047  15.7687203791469 44.5945616113744  C 13.9842180094787 45.1565639810426  13.9262796208531 48.0071327014218  15.6586374407583 48.6560426540284  C 17.0028080568721 49.3744786729858  18.8626303317536 48.2910308056872  18.804691943128 46.7382819905213  Z M 10.2587796208531 53.0188033175355  C 11.035154028436 51.1705687203791  8.80452606635072 49.4034478672986  7.08375592417065 50.2841113744076  C 5.94236966824644 50.9446090047393  5.55418246445504 52.578471563981  6.39428909952608 53.6271563981043  C 7.33868483412323 55.0292654028436  9.76050947867304 54.629490521327  10.2587796208531 53.0188033175355  Z M 27.2405213270142 52.5610900473934  C 27.5302132701422 50.7939691943128  25.4212559241706 49.4613862559242  23.9032701421801 50.3478436018957  C 22.5185426540285 51.1358056872038  22.4548104265403 53.3838151658768  23.8511255924171 54.1891587677725  C 25.166327014218 54.9771208530806  27.1304383886256 54.1543957345972  27.2405213270142 52.5610900473934  Z M 18.804691943128 57.1556042654028  C 19.0480331753554 55.4522156398104  17.1882109004739 54.3340047393365  15.6934004739337 54.8960071090047  C 14.4129620853081 55.5507109004739  13.9262796208531 57.3525947867299  14.9170260663507 58.4650118483412  C 16.0700000000001 59.913471563981  18.8742180094786 59.0907464454976  18.804691943128 57.1556042654028  Z M 10.2529857819905 63.4129502369668  C 11.0988862559242 61.5415402843602  8.7755568720379 59.6933056872038  7.04319905213271 60.6550829383886  C 6.1161848341232 61.3039928909952  5.57735781990522 62.6249881516588  6.19729857819902 63.6620853080569  C 6.94470379146924 65.3307109004739  9.70836492890999 65.1684834123223  10.2529857819905 63.4129502369668  Z M 27.1130568720379 61.8602014218009  C 26.6669312796209 60.5739691943128  25.0388625592418 60.0641113744076  23.8800947867299 60.7072274881516  C 22.3331398104265 61.570509478673  22.5475118483412 64.3109952606635  24.3493957345972 64.7223578199052  C 26.0296090047393 65.4002369668246  27.8199052132701 63.4824763033175  27.1130568720379 61.8602014218009  Z M 18.7699289099526 66.9413981042654  C 18.4918246445498 65.3828554502369  16.5508886255924 64.6354502369668  15.2878317535545 65.5682582938388  C 14.0247748815166 66.4083649289099  14.1870023696683 68.7374881516588  15.6586374407583 69.2763151658768  C 17.1534478672986 70.1338033175355  19.1639099526066 68.5810545023697  18.7699289099526 66.9413981042654  Z M 21.0642890995261 138.298317535545  C 21.9970971563981 134.497559241706  17.5937796208531 131.073400473934  14.1174763033176 132.776789099526  C 10.8439573459716 134.074609004739  10.0733767772512 138.924052132701  12.8428317535545 141.125710900474  C 15.5195853080569 143.686587677725  20.5486374407583 141.994786729858  21.0642890995261 138.298317535545  Z " fill-rule="nonzero" fill="#f0f2f5" stroke="none" transform="matrix(1 0 0 1 494 1835 )" />
  </g>
</svg>