<?xml version="1.0" encoding="utf-8"?>
<svg version="1.1" xmlns:xlink="http://www.w3.org/1999/xlink" width="80px" height="156px" xmlns="http://www.w3.org/2000/svg">
  <g transform="matrix(1 0 0 1 -371 -1836 )">
    <path d="M 7.67732227488153 6.27644549763032  C 12.3761255924171 4.59623222748814  17.1270734597156 3.07245260663506  21.8664336492891 1.49652843601895  C 27.2489099526067 -0.461789099526078  33.6800710900474 2.77117298578198  35.3602843601896 8.22896919431279  C 49.8564691943128 51.1613151658768  64.3236848341232 94.0994549763033  78.7677251184834 137.043388625592  C 80.6217535545024 142.095616113744  77.9160308056872 148.225497630332  72.9043601895735 150.201196682464  C 68.7559715639811 151.777120853081  64.4859123222749 153.028590047393  60.2969668246446 154.506018957346  C 57.4579857819905 155.566291469194  54.2655805687204 155.908127962085  51.3454857819905 154.981113744076  C 48.0835545023697 153.839727488152  45.6675236966825 150.971777251185  44.7115402843602 147.698258293839  C 30.3370260663507 105.020841232227  15.9451303317535 62.3492180094786  1.5822037914692 19.6718009478673  C -0.393495260663514 14.4921090047393  2.46866113744076 8.16523696682463  7.67732227488153 6.27644549763032  Z M 31.3799170616114 5.29728672985781  C 29.097144549763 3.02610189573459  25.5455213270142 2.23813981042653  22.5037559241706 3.26364928909952  C 17.7817772511848 4.83377962085307  13.0424170616114 6.35176540284359  8.36099526066351 8.02039099526065  C 4.07355450236969 9.56734597156397  1.71546208530805 14.7818009478673  3.3493246445498 19.0344786729858  C 17.7238388625592 61.752452606635  32.1331161137441 104.458838862559  46.5134241706161 147.176812796209  C 47.3709123222749 150.189609004739  49.7637677725118 152.762073459716  52.8518838862559 153.497890995261  C 55.1868009478673 154.187357819905  57.5854502369668 153.47471563981  59.7986966824645 152.692547393365  C 63.7964454976303 151.296232227488  67.8521327014218 150.0563507109  71.8382938388626 148.613684834123  C 75.447855450237 147.327452606635  77.8870616113744 143.44558056872  77.4177606635071 139.633234597156  C 77.0585426540284 137.222997630332  76.0504146919431 134.980781990521  75.3261848341232 132.663246445498  C 61.80336492891 92.5235308056872  48.2689573459716 52.3838151658768  34.7461374407583 12.2383056872038  C 33.8944431279621 9.82227488151658  33.3266469194313 7.12234597156397  31.3799170616114 5.29728672985781  Z " fill-rule="nonzero" fill="#a3b1bf" stroke="none" transform="matrix(1 0 0 1 371 1836 )" />
  </g>
</svg>