<?xml version="1.0" encoding="utf-8"?>
<svg version="1.1" xmlns:xlink="http://www.w3.org/1999/xlink" width="47px" height="132px" xmlns="http://www.w3.org/2000/svg">
  <g transform="matrix(1 0 0 1 -528 -1847 )">
    <path d="M 0.592902843601962 131.101409952607  C 0.587109004739318 87.4795971563981  0.604490521327023 43.8577843601896  0.587109004739318 0.230177725118473  C 15.865462085308 0.195414691943117  31.1380213270142 0.230177725118473  46.4163744075829 0.212796208530794  C 46.427962085308 43.8404028436019  46.4047867298578 87.468009478673  46.427962085308 131.095616113744  C 31.1496090047393 131.118791469194  15.8712559241706 131.101409952607  0.592902843601962 131.101409952607  Z M 17.5920260663507 17.9709123222749  C 17.8875118483412 16.2327606635071  15.7437914691943 14.8770023696682  14.2779502369668 15.8213981042654  C 13.0206872037915 16.4818957345971  12.8236966824645 18.4112440758294  13.8781753554503 19.3382582938388  C 15.0775 20.572345971564  17.5225 19.7148578199052  17.5920260663507 17.9709123222749  Z M 33.5424644549763 17.8840047393365  C 33.7858056872038 16.0473578199052  31.3581872037914 14.7900947867298  29.9966350710901 15.983625592417  C 28.8726303317536 16.7657938388626  28.814691943128 18.5966469194313  29.9213151658768 19.4193720379147  C 31.2017535545024 20.5665521327014  33.5134952606635 19.6453317535545  33.5424644549763 17.8840047393365  Z M 17.2096327014218 114.884454976303  C 18.4611018957346 113.36067535545  16.7924763033175 110.904087677725  14.9210663507109 111.454502369668  C 13.5363388625593 111.715225118483  12.7078199052133 113.435995260664  13.461018957346 114.664289099526  C 14.1562796208531 116.095367298578  16.3463507109005 116.246007109005  17.2096327014218 114.884454976303  Z M 33.4787322274882 114.119668246445  C 33.9943838862559 112.508981042654  32.140355450237 110.8925  30.6049881516588 111.518234597156  C 28.8784241706161 111.981741706161  28.5829383886256 114.594763033175  30.1414810426541 115.463838862559  C 31.2944549763033 116.408234597156  33.2238033175356 115.53336492891  33.4787322274882 114.119668246445  Z " fill-rule="nonzero" fill="#f0f2f5" stroke="none" transform="matrix(1 0 0 1 528 1847 )" />
  </g>
</svg>