<?xml version="1.0" encoding="utf-8"?>
<svg version="1.1" xmlns:xlink="http://www.w3.org/1999/xlink" width="6px" height="5px" xmlns="http://www.w3.org/2000/svg">
  <g transform="matrix(1 0 0 1 -516 -1854 )">
    <path d="M 1.10372037914692 3.34042654028435  C 0.425841232227526 2.17007109004738  1.06895734597157 0.391362559241696  2.44789099526065 0.124845971563971  C 4.2497748815166 -0.500888625592427  5.96475118483414 1.63124407582937  5.06670616113746 3.28248815165876  C 4.36565165876777 4.86420616113743  1.82215639810431 4.88738151658767  1.10372037914692 3.34042654028435  Z M 4.04119668246443 1.23726303317535  C 3.56030805687203 1.17353080568719  2.58694312796206 1.04606635071089  2.10026066350713 0.988127962085297  C 2.07708530805684 1.82244075829383  2.06549763033178 2.66254739336492  2.05390995260666 3.50265402843601  C 2.56376777251188 3.45050947867298  3.57768957345974 3.33463270142179  4.08754739336496 3.2766943127962  C 4.07016587677725 2.59881516587677  4.05278436018961 1.91514218009478  4.04119668246443 1.23726303317535  Z " fill-rule="nonzero" fill="#b2bdc9" stroke="none" transform="matrix(1 0 0 1 516 1854 )" />
  </g>
</svg>