<?xml version="1.0" encoding="utf-8"?>
<svg version="1.1" xmlns:xlink="http://www.w3.org/1999/xlink" width="71px" height="72px" xmlns="http://www.w3.org/2000/svg">
  <g transform="matrix(1 0 0 1 -612 -1914 )">
    <path d="M 3.18761848341234 21.6963033175355  C 8.31516587677726 9.75520142180093  20.3895260663508 1.09920616113742  33.4256635071091 0.450296208530787  C 43.29836492891 -0.140675355450256  53.5129028436019 3.51523696682463  60.3786018957346 10.7227725118483  C 72.2212085308057 21.8005924170616  74.2664336492891 41.4243246445497  65.262808056872 54.8486492890995  C 59.5037322274882 64.0260900473934  49.2602251184834 70.300817535545  38.4199526066351 71.0192535545024  C 31.2008293838863 71.6623696682464  23.790509478673 69.9358056872038  17.5853080568721 66.187191943128  C 8.60485781990525 61.0075  2.3069549763033 51.5925118483412  0.760000000000048 41.3490047393365  C -0.462499999999977 34.7324407582938  0.731030805687169 27.8957109004739  3.18761848341234 21.6963033175355  Z M 15.0997511848341 13.8456516587677  C 11.6524170616114 16.3485900473933  10.053317535545 20.4564218009479  8.66859004739337 24.3209123222749  C 6.40319905213272 30.9027132701422  5.29078199052134 37.924845971564  5.66158767772509 44.8832464454976  C 6.48431279620854 40.7290639810426  6.89567535545024 36.4937677725118  8.04285545023697 32.403317535545  C 9.32329383886258 27.5249052132701  10.8992180094787 22.2525118483412  15.0591943127962 19.0195497630332  C 15.1171327014218 17.2929857819905  15.1345142180095 15.5664218009479  15.0997511848341 13.8456516587677  Z M 61.0796563981043 51.2043246445498  C 64.3415876777252 43.5390758293839  65.9406872037915 35.1090402843602  65.4366232227488 26.7832938388625  C 64.7355687203791 31.2677251184834  64.1619786729858 35.7869194312796  62.9336848341232 40.1612677725118  C 61.7749170616114 44.3733886255924  60.4423341232228 48.8230568720379  57.1861966824645 51.9285545023697  C 55.2858175355451 53.42336492891  56.1490995260663 56.0769431279621  55.9984597156398 58.1511374407583  C 58.3565521327014 56.4013981042654  59.9672393364929 53.8868720379147  61.0796563981043 51.2043246445498  Z " fill-rule="nonzero" fill="#f0f2f5" stroke="none" transform="matrix(1 0 0 1 612 1914 )" />
  </g>
</svg>