<?xml version="1.0" encoding="utf-8"?>
<svg version="1.1" xmlns:xlink="http://www.w3.org/1999/xlink" width="5px" height="6px" xmlns="http://www.w3.org/2000/svg">
  <g transform="matrix(1 0 0 1 -467 -1889 )">
    <path d="M 1.04728672985783 4.88216824644549  C -0.0998933649289029 3.98412322274881  -0.15783175355449 1.9388981042654  1.11681279620854 1.1277606635071  C 2.81440758293837 -0.0947393364928999  5.27099526066354 1.79405213270142  4.45406398104268 3.75236966824644  C 4.1064336492891 5.26456161137439  2.2350236966825 5.44417061611372  1.04728672985783 4.88216824644549  Z M 3.26053317535548 1.98524881516587  C 2.83178909952608 1.98524881516587  1.98009478672986 1.97945497630331  1.55135071090046 1.97945497630331  C 1.12840047393365 2.63995260663506  1.3775355450237 3.45688388625591  1.34277251184835 4.19270142180094  C 1.8584241706161 4.18690758293838  2.88972748815166 4.18111374407582  3.40537914691942 4.18111374407582  C 3.40537914691942 3.45109004739336  3.56181279620853 2.68050947867298  3.26053317535548 1.98524881516587  Z " fill-rule="nonzero" fill="#b0bcc9" stroke="none" transform="matrix(1 0 0 1 467 1889 )" />
  </g>
</svg>