<?xml version="1.0" encoding="utf-8"?>
<svg version="1.1" xmlns:xlink="http://www.w3.org/1999/xlink" width="81px" height="81px" xmlns="http://www.w3.org/2000/svg">
  <g transform="matrix(1 0 0 1 -607 -1909 )">
    <path d="M 8.44834123222751 16.5049407582938  C 14.8621208530806 7.8779146919431  24.8622867298578 2.04351895734595  35.5519194312797 0.826812796208515  C 42.8811255924171 -0.0306753554502421  50.4478791469194 1.15706161137439  57.1339691943128 4.29732227488151  C 66.5315758293839 8.70063981042652  74.0925355450237 16.9163033175355  77.6267772511848 26.6847156398104  C 80.570047393365 34.6628317535545  80.8655331753555 43.5853436018957  78.4552962085308 51.7372748815166  C 76.0566469194313 60.1846919431279  70.6567890995261 67.6935071090047  63.5709241706161 72.8500236966825  C 56.7689573459716 77.7689928909953  48.3736848341233 80.5268601895735  39.9610308056872 80.387808056872  C 30.3606398104265 80.4051895734597  20.8471563981043 76.6449881516588  13.7381161137441 70.2196208530806  C 7.13893364928913 64.3272867298578  2.60235781990519 56.1811492890995  1.09595971563982 47.4614218009479  C -0.83918246445495 36.719644549763  1.8317772511848 25.2072867298578  8.44834123222751 16.5049407582938  Z M 65.3786018957346 15.7227725118483  C 58.5129028436019 8.51523696682463  48.29836492891 4.85932464454974  38.4256635071091 5.45029620853079  C 25.3895260663508 6.09920616113742  13.3151658767773 14.7552014218009  8.18761848341234 26.6963033175355  C 5.73103080568717 32.8957109004739  4.53750000000002 39.7324407582938  5.76000000000005 46.3490047393365  C 7.3069549763033 56.5925118483412  13.6048578199053 66.0075  22.5853080568721 71.187191943128  C 28.790509478673 74.9358056872038  36.2008293838863 76.6623696682464  43.4199526066351 76.0192535545024  C 54.2602251184834 75.300817535545  64.5037322274882 69.0260900473934  70.262808056872 59.8486492890995  C 79.2664336492891 46.4243246445497  77.2212085308057 26.8005924170616  65.3786018957346 15.7227725118483  Z " fill-rule="nonzero" fill="#dce1e7" stroke="none" transform="matrix(1 0 0 1 607 1909 )" />
  </g>
</svg>