<?xml version="1.0" encoding="utf-8"?>
<svg version="1.1" xmlns:xlink="http://www.w3.org/1999/xlink" width="74px" height="80px" xmlns="http://www.w3.org/2000/svg">
  <g transform="matrix(1 0 0 1 -205 -1909 )">
    <path d="M 3.30949052132702 25.9083412322275  C 6.82055687203791 16.475971563981  14.062855450237 8.50944312796206  23.1128317535545 4.1119194312796  C 30.7780805687204 0.328542654028425  39.6832109004739 -0.818637440758309  48.0668957345972 0.792049763033162  C 58.2408767772512 2.69822274881514  67.4704620853081 8.82810426540283  73.333827014218 17.3392535545023  C 72.0823578199052 18.1272156398104  70.8308886255924 18.9325592417061  69.4751303317536 19.5351184834123  C 69.4056042654028 19.4482109004739  69.272345971564 19.2801895734597  69.2028199052133 19.1932819905213  C 64.4171090047393 12.8548222748815  57.5398222748815 8.08069905213269  49.8282227488152 6.09341232227487  C 41.7110545023697 3.94969194312796  32.8290995260664 4.81297393364927  25.3086966824645 8.55579383886254  C 18.0663981042654 12.1074170616114  12.1335071090047 18.2315047393365  8.79625592417062 25.572298578199  C 4.8043009478673 34.2109123222749  4.53778436018957 44.4718009478673  8.04885071090047 53.3131990521327  C 11.67 62.6181042654028  19.4221563981043 70.2080331753555  28.8255568720379 73.5858412322275  C 40.7145142180095 77.9949526066351  55.1006161137441 75.4109004739337  64.3186137440758 66.598471563981  L 64.7473578199052 66.4883886255924  C 66.1147037914692 66.8128436018957  67.0590995260663 67.9542298578199  68.1831042654028 68.7190165876777  C 61.2942298578199 75.4804265402844  51.8386848341232 79.5477014218009  42.1919431279621 79.8895379146919  C 34.1906516587678 80.2487559241706  26.1082464454976 78.0992417061611  19.3526303317536 73.8002132701422  C 11.1253791469194 68.6263151658768  4.91438388625592 60.3527132701422  2.28398104265403 50.995663507109  C -0.050936018957346 42.8089691943128  0.296694312796209 33.8748696682464  3.30949052132702 25.9083412322275  Z " fill-rule="nonzero" fill="#282b2f" stroke="none" transform="matrix(1 0 0 1 205 1909 )" />
  </g>
</svg>