<?xml version="1.0" encoding="utf-8"?>
<svg version="1.1" xmlns:xlink="http://www.w3.org/1999/xlink" width="5px" height="5px" xmlns="http://www.w3.org/2000/svg">
  <g transform="matrix(1 0 0 1 -557 -1862 )">
    <path d="M 0.921315165876763 4.41937203791468  C -0.185308056872032 3.59664691943127  -0.127369668246445 1.76579383886255  0.996635071090111 0.983625592417049  C 2.35818720379143 -0.209905213270151  4.78580568720383 1.0473578199052  4.54246445497625 2.88400473933648  C 4.51349526066349 4.64533175355449  2.20175355450237 5.56655213270141  0.921315165876763 4.41937203791468  Z M 4.17745260663503 2.09604265402842  C 3.16932464454982 1.79476303317535  2.15540284360196 1.53404028436018  1.12409952606635 1.37181279620852  C 1.11830568720382 1.92222748815165  1.1067180094787 3.02885071090046  1.10092417061611 3.58505924170615  C 1.48331753554504 3.79363744075828  2.25969194312796 4.21658767772511  2.64787914691942 4.4309597156398  C 3.16353080568717 3.65458530805686  3.66180094786728 2.87821090047392  4.17745260663503 2.09604265402842  Z " fill-rule="nonzero" fill="#99a5b1" stroke="none" transform="matrix(1 0 0 1 557 1862 )" />
  </g>
</svg>