<?xml version="1.0" encoding="utf-8"?>
<svg version="1.1" xmlns:xlink="http://www.w3.org/1999/xlink" width="6px" height="5px" xmlns="http://www.w3.org/2000/svg">
  <g transform="matrix(1 0 0 1 -499 -1895 )">
    <path d="M 1.19729857819902 3.66208530805686  C 0.577357819905217 2.62498815165876  1.1161848341232 1.30399289099525  2.04319905213271 0.655082938388617  C 3.7755568720379 -0.306694312796225  6.09888625592419 1.54154028436018  5.2529857819905 3.41295023696681  C 4.70836492890999 5.16848341232226  1.94470379146924 5.33071090047392  1.19729857819902 3.66208530805686  Z M 4.33755924170617 1.5531279620853  C 3.43372037914691 1.58789099526065  2.51829383886258 1.63424170616112  1.62024881516589 1.69218009478671  C 2.04899289099524 2.52069905213268  2.49511848341228 3.3434241706161  2.95862559241709 4.15456161137439  C 3.28308056872038 3.97495260663506  3.92040284360189 3.62152843601893  4.24485781990523 3.4419194312796  C 4.26803317535547 2.96682464454975  4.31438388625588 2.02822274881515  4.33755924170617 1.5531279620853  Z " fill-rule="nonzero" fill="#afbbc8" stroke="none" transform="matrix(1 0 0 1 499 1895 )" />
  </g>
</svg>