<?xml version="1.0" encoding="utf-8"?>
<svg version="1.1" xmlns:xlink="http://www.w3.org/1999/xlink" width="5px" height="5px" xmlns="http://www.w3.org/2000/svg">
  <g transform="matrix(1 0 0 1 -541 -1958 )">
    <path d="M 0.461018957345971 3.66428909952606  C -0.292180094786715 2.4359952606635  0.536338862559262 0.715225118483403  1.92106635071087 0.454502369668262  C 3.79247630331753 -0.0959123222748985  5.4611018957346 2.36067535545024  4.20963270142181 3.88445497630332  C 3.34635071090048 5.24600710900472  1.15627962085313 5.0953672985782  0.461018957345971 3.66428909952606  Z M 2.88863744075832 1.22508293838862  C 1.97321090047393 1.07444312796207  1.37644549763036 1.93193127962084  0.652215639810436 2.30273696682465  C 0.88976303317537 2.70251184834123  1.37065165876777 3.49626777251186  1.6081990521327 3.89604265402843  C 2.14123222748816 3.88445497630332  3.2130924170616 3.86707345971564  3.74612559241712 3.86127962085308  C 3.58389810426542 2.94005924170617  3.87359004739335 1.75811611374408  2.88863744075832 1.22508293838862  Z " fill-rule="nonzero" fill="#95a1ac" stroke="none" transform="matrix(1 0 0 1 541 1958 )" />
  </g>
</svg>