<?xml version="1.0" encoding="utf-8"?>
<svg version="1.1" xmlns:xlink="http://www.w3.org/1999/xlink" width="15px" height="15px" xmlns="http://www.w3.org/2000/svg">
  <g transform="matrix(1 0 0 1 -272 -1221 )">
    <path d="M 0.945747800586517 4.96087976539589  C 2.59187683284458 3.42560117302051  4.9141935483871 4.45096774193549  6.81527859237536 4.7558064516129  C 7.80739002932552 3.05979472140761  8.67202346041056 1.18642228739002  10.3957478005865 0.0945454545454396  C 11.6649853372434 1.87923753665689  10.7504692082111 4.08516129032257  10.4456304985337 6.03058651026393  C 12.1250146627566 7.03378299120234  14.5082991202346 7.77648093841641  14.8962756598241 9.97686217008797  C 12.9730205278592 10.5255718475073  11.0054252199414 10.1043401759531  9.10434017595308 9.69973607038123  C 8.1233137829912 11.3680351906158  7.35844574780059 13.4963636363636  5.32434017595308 14.1226686217009  C 4.74237536656891 12.2271260997067  5.16360703812317 10.2706158357771  5.56266862170088 8.39170087976538  C 3.83340175953079 7.52706744868034  2.09304985337243 6.56821114369501  0.945747800586517 4.96087976539589  Z " fill-rule="nonzero" fill="#363c41" stroke="none" transform="matrix(1 0 0 1 272 1221 )" />
  </g>
</svg>