<?xml version="1.0" encoding="utf-8"?>
<svg version="1.1" xmlns:xlink="http://www.w3.org/1999/xlink" width="12px" height="12px" xmlns="http://www.w3.org/2000/svg">
  <g transform="matrix(1 0 0 1 -330 -1485 )">
    <path d="M 0.587976539589448 6.97976539589439  C -0.260029325513202 5.41677419354841  0.931612903225812 3.96463343108502  2.07891495601173 3.01686217008796  C 2.48906158357772 1.66448680351903  3.34815249266862 0.0682404692081491  5.01645161290323 0.206803519061509  C 6.30785923753665 0.528269794721382  7.47178885630498 1.29313782991198  8.84633431085044 1.33747800586508  C 10.3982404692082 1.38181818181812  11.2795014662757 3.1055425219941  10.8859824046921 4.49117302052781  C 10.4813782991202 6.02645161290314  11.745073313783 7.80005865102635  10.4980058651026 9.10255131964806  C 9.79964809384164 10.0281524926686  8.5692082111437 9.96164222873898  7.54384164222874 10.1500879765396  C 6.36882697947215 11.1200293255131  4.45111436950147 11.8405571847507  3.29272727272728 10.4327565982404  C 2.60545454545453 9.11363636363632  1.6465982404692 8.00513196480938  0.587976539589448 6.97976539589439  Z " fill-rule="nonzero" fill="#41474c" stroke="none" transform="matrix(1 0 0 1 330 1485 )" />
  </g>
</svg>