<?xml version="1.0" encoding="utf-8"?>
<svg version="1.1" xmlns:xlink="http://www.w3.org/1999/xlink" width="16px" height="16px" xmlns="http://www.w3.org/2000/svg">
  <g transform="matrix(1 0 0 1 -570 -809 )">
    <path d="M 1.76507462686567 12.3316417910448  C 0.229253731343306 10.2692537313433  0.251194029850751 7.57791044776116  0.748507462686575 5.1644776119403  C 2.02104477611942 2.90462686567162  4.06149253731343 0.908059701492562  6.73089552238804 0.50582089552239  C 10.9214925373134 -0.32059701492534  15.2583582089553 3.0582089552239  15.5655223880597 7.30000000000001  C 15.960447761194 10.6202985074627  13.7810447761194 13.6407462686567  10.9726865671642 15.1838805970149  C 7.67432835820898 16.1565671641791  3.73238805970152 15.3374626865672  1.76507462686567 12.3316417910448  Z M 11.4261194029851 4.10402985074626  C 10.0146268656716 2.74373134328357  7.94492537313437 2.67059701492536  6.12388059701493 2.99970149253733  C 7.95955223880594 5.90313432835819  9.88298507462684 8.75537313432835  11.8576119402985 11.5710447761194  C 13.7005970149254 9.44283582089554  13.634776119403 5.93970149253732  11.4261194029851 4.10402985074626  Z " fill-rule="nonzero" fill="#a3b1bf" stroke="none" transform="matrix(1 0 0 1 570 809 )" />
  </g>
</svg>