<?xml version="1.0" encoding="utf-8"?>
<svg version="1.1" xmlns:xlink="http://www.w3.org/1999/xlink" width="36px" height="27px" xmlns="http://www.w3.org/2000/svg">
  <g transform="matrix(1 0 0 1 -433 -1258 )">
    <path d="M 7.87862170087976 5.63340175953078  C 10.516862170088 3.10601173020527  14.0141935483871 1.73700879765394  17.5503225806451 1.04419354838709  C 21.4965982404692 0.295953079178872  25.6645747800586 0.162932551319642  29.5387976539589 1.32686217008796  C 32.1659530791789 2.14161290322579  34.8152785923753 3.99281524926684  35.4138709677419 6.83058651026391  C 35.8572727272727 9.15290322580643  34.1945161290323 11.1592961876833  32.5262170087976 12.544926686217  C 28.6076539589443 15.6930791788856  23.8965102639296 17.5830791788856  19.6176832844575 20.1492668621701  C 15.9707038123167 22.3108504398827  12.5177126099707 24.8936656891496  8.52155425219939 26.3956891495601  C 6.50407624633431 27.1439296187683  3.89909090909092 27.3711730205278  2.28067448680349 25.6807038123167  C 0.0470381231671695 23.3750146627566  -0.0471847507331518 19.8056304985337  0.762023460410546 16.8736363636363  C 1.98137829912025 12.5504692082111  4.64178885630497 8.70950146627564  7.87862170087976 5.63340175953078  Z " fill-rule="nonzero" fill="#fafafa" stroke="none" transform="matrix(1 0 0 1 433 1258 )" />
  </g>
</svg>