<?xml version="1.0" encoding="utf-8"?>
<svg version="1.1" xmlns:xlink="http://www.w3.org/1999/xlink" width="22px" height="44px" xmlns="http://www.w3.org/2000/svg">
  <defs>
    <mask fill="white" id="clip1167">
      <path d="M 0.19932551319647 5.59923753665689  C 0.160527859237533 4.09167155425217  0.0663049853372399 2.21829912023458  1.36325513196482 1.1707624633431  C 2.78768328445747 0.167565982404682  4.43935483870968 1.37583577712607  5.48689149560118 2.37903225806451  C 8.69046920821114 5.62695014662756  10.8686803519062 9.70624633431086  12.9803812316716 13.7079472140762  C 16.4389149560117 20.6194721407625  19.3431964809384 27.874633431085  20.9560703812317 35.4512609970674  C 21.3495894428152 37.7846627565982  21.9093841642229 40.3009677419355  21.0447507331378 42.5955718475073  C 20.6013489736071 43.7539589442815  19.1381231671554 44.2527859237537  18.0628739002933 43.6652785923754  C 15.7793548387097 42.4958064516129  14.3272140762464 40.2621700879765  12.875073313783 38.2391495601173  C 8.61287390029324 31.7322287390029  5.42038123167154 24.5712903225806  2.89299120234605 17.232991202346  C 1.66809384164222 13.4474486803519  0.509706744868026 9.58431085043986  0.19932551319647 5.59923753665689  Z M 7.43231671554253 7.66105571847504  C 5.98017595307917 5.70454545454544  4.64442815249268 3.2880058651026  2.18909090909091 2.48988269794719  C 1.54061583577712 6.38627565982404  2.72117302052786 10.249413489736  3.74653958944282 13.9739882697947  C 6.21850439882698 22.0106451612903  9.61052785923752 29.8145161290322  14.1443108504399 36.9144868035191  C 15.6075366568915 38.9319648093841  16.9876246334311 41.3152492668621  19.4207917888563 42.2630205278592  C 20.1745747800586 38.4220527859237  18.9496774193548 34.5866275659824  17.968651026393 30.9063929618768  C 15.4745161290323 22.7533431085044  12.0492375366569 14.8386217008798  7.43231671554253 7.66105571847504  Z " fill-rule="evenodd" />
    </mask>
  </defs>
  <g transform="matrix(1 0 0 1 -360 -1309 )">
    <path d="M 0.19932551319647 5.59923753665689  C 0.160527859237533 4.09167155425217  0.0663049853372399 2.21829912023458  1.36325513196482 1.1707624633431  C 2.78768328445747 0.167565982404682  4.43935483870968 1.37583577712607  5.48689149560118 2.37903225806451  C 8.69046920821114 5.62695014662756  10.8686803519062 9.70624633431086  12.9803812316716 13.7079472140762  C 16.4389149560117 20.6194721407625  19.3431964809384 27.874633431085  20.9560703812317 35.4512609970674  C 21.3495894428152 37.7846627565982  21.9093841642229 40.3009677419355  21.0447507331378 42.5955718475073  C 20.6013489736071 43.7539589442815  19.1381231671554 44.2527859237537  18.0628739002933 43.6652785923754  C 15.7793548387097 42.4958064516129  14.3272140762464 40.2621700879765  12.875073313783 38.2391495601173  C 8.61287390029324 31.7322287390029  5.42038123167154 24.5712903225806  2.89299120234605 17.232991202346  C 1.66809384164222 13.4474486803519  0.509706744868026 9.58431085043986  0.19932551319647 5.59923753665689  Z M 7.43231671554253 7.66105571847504  C 5.98017595307917 5.70454545454544  4.64442815249268 3.2880058651026  2.18909090909091 2.48988269794719  C 1.54061583577712 6.38627565982404  2.72117302052786 10.249413489736  3.74653958944282 13.9739882697947  C 6.21850439882698 22.0106451612903  9.61052785923752 29.8145161290322  14.1443108504399 36.9144868035191  C 15.6075366568915 38.9319648093841  16.9876246334311 41.3152492668621  19.4207917888563 42.2630205278592  C 20.1745747800586 38.4220527859237  18.9496774193548 34.5866275659824  17.968651026393 30.9063929618768  C 15.4745161290323 22.7533431085044  12.0492375366569 14.8386217008798  7.43231671554253 7.66105571847504  Z " fill-rule="nonzero" fill="#ffffff" stroke="none" transform="matrix(1 0 0 1 360 1309 )" />
    <path d="M 0.19932551319647 5.59923753665689  C 0.160527859237533 4.09167155425217  0.0663049853372399 2.21829912023458  1.36325513196482 1.1707624633431  C 2.78768328445747 0.167565982404682  4.43935483870968 1.37583577712607  5.48689149560118 2.37903225806451  C 8.69046920821114 5.62695014662756  10.8686803519062 9.70624633431086  12.9803812316716 13.7079472140762  C 16.4389149560117 20.6194721407625  19.3431964809384 27.874633431085  20.9560703812317 35.4512609970674  C 21.3495894428152 37.7846627565982  21.9093841642229 40.3009677419355  21.0447507331378 42.5955718475073  C 20.6013489736071 43.7539589442815  19.1381231671554 44.2527859237537  18.0628739002933 43.6652785923754  C 15.7793548387097 42.4958064516129  14.3272140762464 40.2621700879765  12.875073313783 38.2391495601173  C 8.61287390029324 31.7322287390029  5.42038123167154 24.5712903225806  2.89299120234605 17.232991202346  C 1.66809384164222 13.4474486803519  0.509706744868026 9.58431085043986  0.19932551319647 5.59923753665689  Z " stroke-width="2" stroke="#a3b1bf" fill="none" transform="matrix(1 0 0 1 360 1309 )" mask="url(#clip1167)" />
    <path d="M 7.43231671554253 7.66105571847504  C 5.98017595307917 5.70454545454544  4.64442815249268 3.2880058651026  2.18909090909091 2.48988269794719  C 1.54061583577712 6.38627565982404  2.72117302052786 10.249413489736  3.74653958944282 13.9739882697947  C 6.21850439882698 22.0106451612903  9.61052785923752 29.8145161290322  14.1443108504399 36.9144868035191  C 15.6075366568915 38.9319648093841  16.9876246334311 41.3152492668621  19.4207917888563 42.2630205278592  C 20.1745747800586 38.4220527859237  18.9496774193548 34.5866275659824  17.968651026393 30.9063929618768  C 15.4745161290323 22.7533431085044  12.0492375366569 14.8386217008798  7.43231671554253 7.66105571847504  Z " stroke-width="2" stroke="#a3b1bf" fill="none" transform="matrix(1 0 0 1 360 1309 )" mask="url(#clip1167)" />
  </g>
</svg>