<?xml version="1.0" encoding="utf-8"?>
<svg version="1.1" xmlns:xlink="http://www.w3.org/1999/xlink" width="33px" height="17px" xmlns="http://www.w3.org/2000/svg">
  <g transform="matrix(1 0 0 1 -365 -716 )">
    <path d="M 0.987014925373131 16.0858208955224  C 0.979701492537316 10.9005970149254  0.972388059701487 5.71537313432836  0.987014925373131 0.530149253731366  C 11.5988059701492 1.36388059701494  22.1886567164179 2.35119402985077  32.7931343283582 3.23611940298508  C 32.8662686567164 6.60761194029851  32.844328358209 9.97910447761191  32.8077611940299 13.3505970149254  C 22.2032835820896 14.2867164179105  11.5988059701492 15.2374626865671  0.987014925373131 16.0858208955224  Z M 11.854776119403 5.43014925373134  C 8.90014925373134 2.95089552238807  4.4389552238806 6.2565671641791  5.12641791044776 9.79626865671639  C 6.30388059701492 11.2589552238806  7.70805970149254 13.4164179104478  9.89477611940298 12.8459701492537  C 13.1346268656716 12.1511940298508  14.7655223880597 7.52910447761195  11.854776119403 5.43014925373134  Z M 26.1013432835821 5.15955223880599  C 23.0223880597015 3.17029850746266  19.0877611940299 6.51985074626867  19.7605970149254 9.88402985074626  C 21.0770149253731 11.6831343283582  23.3588059701493 14.1038805970149  25.6844776119403 12.3194029850746  C 28.470895522388 11.0102985074627  28.8658208955224 6.69537313432838  26.1013432835821 5.15955223880599  Z " fill-rule="nonzero" fill="#f0f2f5" stroke="none" transform="matrix(1 0 0 1 365 716 )" />
  </g>
</svg>