<?xml version="1.0" encoding="utf-8"?>
<svg version="1.1" xmlns:xlink="http://www.w3.org/1999/xlink" width="106px" height="152px" xmlns="http://www.w3.org/2000/svg">
  <g transform="matrix(1 0 0 1 -236 -1319 )">
    <path d="M 61.4880351906158 29.4173607038123  C 60.1578299120235 21.2864809384164  60.263137829912 12.3297653958944  64.6472727272727 5.08014662756599  C 66.0439882697947 3.06266862170085  67.618064516129 0.696011730205271  70.162082111437 0.114046920821096  C 72.6340469208211 -0.251759530791787  74.2690909090909 2.06501466275657  75.1115542521994 4.05478005865101  C 78.3262170087977 11.5260997067449  81.4688269794722 19.0362170087976  84.666862170088 26.5186217008797  C 89.516568914956 26.2858357771261  94.366275659824 26.0308797653959  99.2215249266862 25.7703812316715  C 99.7591495601173 24.2739002932551  101.083812316716 22.7330791788856  102.851876832845 23.0933431085044  C 105.395894428152 23.2762463343108  106.59862170088 26.8123753665689  104.636568914956 28.4640469208211  C 103.566862170088 29.6612316715542  101.876392961877 29.4118181818182  100.546187683284 28.8686510263929  C 96.9601759530792 32.1498240469208  93.4018768328446 35.4642521994135  89.8879178885631 38.8174780058651  C 92.9861876832845 46.1391495601173  96.1121700879765 53.4497360703812  99.2048973607038 60.7714076246334  C 100.130498533724 62.8609384164223  100.579442815249 65.6931671554252  98.7282404692082 67.4279765395894  C 96.5389442815249 69.3734017595308  93.3409090909091 68.5697360703812  90.7580938416422 68.0709090909091  C 82.7491495601173 65.9592082111437  76.4528445747801 59.9455718475073  71.641935483871 53.4497360703812  C 70.7939296187683 53.7878299120235  69.9459237536657 54.1370087976539  69.0923753665689 54.4751026392961  C 68.7431964809384 53.9818181818181  68.3995601173021 53.4940762463343  68.0503812316716 53.0118768328445  C 66.5649853372434 53.6381818181818  65.0740469208211 54.2700293255132  63.588651026393 54.9018768328446  C 63.9101173020528 55.9715835777126  64.780293255132 57.01357771261  64.5973900293255 58.1719648093842  C 63.8657771260997 58.7760997067449  62.9401759530792 59.069853372434  62.0977126099707 59.4744574780059  C 62.2584457478006 59.9012316715542  62.5854545454546 60.754780058651  62.7461876832845 61.1760117302053  C 61.6321407624634 62.0073900293255  60.3351906158358 62.5283870967742  59.0493255131965 63.0327565982404  C 60.5458064516129 66.6409384164223  62.1697653958944 70.1881524926686  63.5664809384164 73.8351319648094  C 61.4658651026393 75.1875073313782  59.0548680351906 75.9191202346041  56.7824340175953 76.9334017595308  C 55.1141348973607 74.5833724340176  54.4102346041056 71.7289736070381  53.1576246334311 69.1627859237536  C 51.2897947214076 69.9498240469208  49.4275073313783 70.7424046920821  47.5596774193548 71.5349853372434  C 48.1194721407625 72.8485630498533  48.673724340176 74.1621407624633  49.1947214076246 75.4923460410557  C 49.0007331378299 75.7140469208211  48.6072140762463 76.1574486803519  48.4132258064516 76.3791495601173  C 49.333284457478 78.4575953079179  50.2145454545455 80.558211143695  51.0902639296188 82.6643695014662  C 54.5321700879765 81.256568914956  57.9020234604106 79.6603225806451  61.3993548387097 78.3910850439883  C 64.4144868035191 84.504486803519  66.7866862170088 90.9227272727273  69.5524046920821 97.158064516129  C 75.793284457478 111.951055718475  82.1671847507331 126.68862170088  88.3193841642229 141.514868035191  C 86.6178299120235 142.656627565982  84.6446920821114 143.28293255132  82.7824046920821 144.108768328446  C 77.273137829912 146.431085043988  71.7860410557185 148.814369501466  66.2546041055718 151.092346041056  C 65.2292375366569 149.712258064516  64.6971554252199 148.071671554252  64.0265102639296 146.5142228739  C 55.7570674486804 127.03780058651  47.482082111437 107.56137829912  39.2181818181818 88.0794134897361  C 41.6568914956012 86.2448387096774  44.7385337243402 85.5520234604106  47.4543695014663 84.2107331378299  C 46.5675659824047 82.1322873900293  45.6807624633431 80.0538416422287  44.8161290322581 77.969853372434  C 44.5112903225806 77.9310557184751  43.9071554252199 77.847917888563  43.6023167155425 77.8091202346041  C 43.0148093841642 76.5287976539589  42.4550146627566 75.2318475073314  41.9063049853372 73.9348973607038  C 38.7138123167155 75.298357771261  35.5102346041056 76.6230205278592  32.3399120234604 78.0363636363636  C 31.6803519061584 78.4187976539589  30.9321114369501 78.0751612903226  30.2614662756598 77.9255131964809  C 27.6176832844575 77.1772727272727  24.9461876832845 76.5232551319648  22.2857771260997 75.8193548387097  C 21.886715542522 77.9199706744868  21.6040469208211 80.0482991202346  21.1440175953079 82.1378299120234  C 21.0276246334311 83.0135483870968  19.9357478005865 83.5234604105572  19.4978885630499 82.5091788856305  C 18.6387976539589 80.885219941349  18.0346627565982 79.1393255131965  17.325219941349 77.4488563049853  C 16.2943108504399 79.0118475073314  15.4961876832845 80.7743695014663  14.1715249266862 82.1212023460411  C 13.1129032258065 82.4426686217009  12.8912023460411 81.0736656891496  12.5143108504399 80.4196480938416  C 11.1896480938416 77.0885923753665  9.5934017595308 73.8573020527859  8.4183870967742 70.4708211143695  C 8.61237536656892 70.2934604105571  8.99480938416423 69.9276539589443  9.18325513196481 69.7502932551319  C 10.9734897360704 69.9553665689149  12.7193841642229 70.4153958944281  14.4819061583578 70.7756598240469  C 12.6972140762463 66.7296187683284  11.0233724340176 62.6392375366569  9.27193548387097 58.5821114369501  C 8.1966862170088 60.2448680351906  7.22120234604106 61.9907624633431  5.90762463343109 63.4872434017595  C 4.64392961876833 62.52284457478  4.29475073313784 60.9265982404692  3.66844574780059 59.5520527859237  C 2.62645161290323 56.9082697947214  1.32395894428153 54.3642521994135  0.414985337243408 51.676129032258  C 0.54246334310851 51.4655131964809  0.80296187683285 51.0442815249266  0.930439882697954 50.8336656891495  C 2.78718475073314 50.9112609970674  4.58850439882699 51.4710557184751  6.40645161290323 51.8146920821114  C 5.7191788856305 50.0854252199413  4.83791788856306 48.428211143695  4.2892082111437 46.6435190615835  C 3.91785923753666 45.8453958944281  5.14275659824047 45.2578885630498  5.6859237536657 45.8176832844575  C 7.53158357771262 46.9317302052786  9.26639296187684 48.2342228739003  11.0787976539589 49.414780058651  C 12.4256304985337 46.9649853372434  13.8500586510264 44.5595307917888  15.1525513196481 42.0931085043988  C 15.4795601173021 41.5000586510264  15.7677712609971 40.785073313783  16.4993841642229 40.6187976539589  C 19.7140469208211 39.3329325513196  22.8788269794721 37.9473020527859  26.0657771260997 36.6060117302053  C 25.6445454545455 34.9044574780058  23.654780058651 33.02  25.0071554252199 31.3572434017595  C 24.1148093841642 29.1679472140762  23.1337829912023 27.0174486803519  22.2469794721408 24.8281524926686  C 21.2604105571848 23.0988856304985  23.9707038123167 22.4060703812317  25.2233137829912 22.2896774193548  C 26.775219941349 24.5898240469208  27.4569501466276 27.3666275659824  28.6984750733138 29.8441348973607  C 30.7990909090909 29.9549853372434  30.7824633431085 32.7595014662757  31.708064516129 34.211642228739  C 33.5758944281525 33.4190615835777  35.443724340176 32.6209384164223  37.3170967741936 31.828357771261  C 36.2584750733138 29.2233724340176  35.0169501466276 26.6904398826979  34.1135190615836 24.024486803519  C 36.2584750733138 22.871642228739  38.5087390029325 21.8906158357771  40.8199706744868 21.1202052785924  C 40.9751612903226 21.269853372434  41.28 21.558064516129  41.4351906158358 21.7021700879765  C 43.0314369501466 25.0165982404692  44.3117595307918 28.4806744868035  45.8137829912023 31.8449853372434  C 46.9278299120235 31.3738709677419  48.019706744868 30.8362463343108  49.1891788856305 30.5092375366569  C 49.9873020527859 30.6090029325513  50.1092375366569 31.623284457478  50.5692668621701 32.1553665689149  C 51.4061876832845 31.7840175953079  52.248651026393 31.4237536656891  53.0911143695015 31.0579472140762  C 53.9003225806452 31.994633431085  54.3769794721408 33.1474780058651  54.8425513196481 34.2836950146628  C 56.316862170088 33.6518475073314  57.796715542522 33.0255425219941  59.276568914956 32.3881524926686  C 58.1791495601173 30.5757478005865  60.1855425219941 29.938357771261  61.4880351906158 29.4173607038123  Z M 73.4210850439883 4.67554252199412  C 72.8224926686217 3.32316715542521  71.6585630498534 1.21700879765393  69.8627859237537 2.08164222873899  C 68.355219941349 2.9074780058651  67.3187683284458 4.35961876832843  66.3543695014663 5.74524926686218  C 63.3226099706745 10.4674780058651  62.4468914956012 16.2372434017595  62.5411143695015 21.7575953079179  C 62.6907624633431 25.2382991202346  62.8404105571848 28.8520234604106  64.3590615835777 32.0611436950146  C 67.1524926686217 38.5015542521994  69.7851906158358 45.019560117302  72.6451319648094 51.4322580645161  C 75.1725219941349 55.7277126099707  78.8361290322581 59.3192668621701  82.8156598240469 62.2900586510264  C 86.556862170088 64.9393841642229  91.0130498533724 67.0067448680352  95.6909384164223 66.8127565982405  C 97.0156011730205 66.8293841642229  98.2626686217009 65.7818475073313  98.2404985337243 64.41284457478  C 98.146275659824 62.0849853372434  96.8604105571848 60.0397947214076  96.0456598240469 57.9170087976539  C 88.4967448680352 40.169853372434  80.9921700879765 22.4060703812317  73.4210850439883 4.67554252199412  Z M 40.210293255132 23.2651612903225  C 38.9299706744868 23.7695307917888  37.6496480938416 24.2849853372434  36.3748680351906 24.8004398826979  C 43.2475953079179 41.4945161290322  50.4528739002933 58.0555718475073  57.4752492668622 74.6942228739003  C 58.7611143695015 74.1621407624633  60.0525219941349 73.6300586510263  61.3328445747801 73.0868914956012  C 59.8197360703812 69.3678592375366  58.2622873900293 65.6654545454545  56.5829032258065 62.0184750733138  C 51.0403812316716 49.1376539589442  45.6419648093842 36.1958651026393  40.210293255132 23.2651612903225  Z M 25.9382991202346 27.721348973607  C 25.378504398827 26.4964516129032  25.0293255131965 25.1385337243402  24.0760117302053 24.1408797653959  C 24.5803812316716 26.61284457478  25.8440762463343 28.8409384164223  26.8251026392962 31.1466275659824  C 27.1188563049853 29.9161876832844  26.365073313783 28.8187683284457  25.9382991202346 27.721348973607  Z M 99.1273020527859 27.6104985337243  C 94.5602639296188 27.7767741935484  89.9987683284457 28.0594428152492  85.4317302052786 28.2977712609971  C 86.6455425219941 31.2020527859237  87.870439882698 34.1063343108504  89.1285923753666 36.9939882697947  C 92.4818181818182 33.8901759530792  95.8682991202346 30.8196187683284  99.1273020527859 27.6104985337243  Z M 62.1198826979472 31.2630205278592  C 61.8427565982405 31.3406158357771  61.288504398827 31.501348973607  61.0169208211144 31.584486803519  C 63.8214369501466 38.1911730205278  66.6093255131965 44.8144868035191  69.4415542521994 51.4100879765396  C 69.6466275659824 52.0197653958944  70.0900293255132 52.2747214076246  70.7773020527859 52.1749560117302  C 68.2055718475073 45.0860703812317  64.8911436950147 38.279853372434  62.1198826979472 31.2630205278592  Z M 28.7705278592375 31.9225806451612  C 28.0777126099707 32.3382697947214  27.0578885630499 32.4546627565982  26.5646041055719 33.1086803519061  C 26.8361876832845 33.9788563049853  27.229706744868 34.7991495601173  27.6010557184751 35.6360703812317  C 28.3714662756598 35.2647214076246  29.1418768328446 34.8933724340176  29.9122873900293 34.5275659824047  C 29.529853372434 33.6573900293255  29.1474193548387 32.7872140762463  28.7705278592375 31.9225806451612  Z M 48.6958944281525 32.5765982404692  C 48.0086217008798 32.8648093841642  47.3158064516129 33.1585630498533  46.6285337243402 33.4523167155425  C 50.5193841642229 42.7748387096774  54.4933724340176 52.0641055718475  58.4618181818182 61.3533724340176  C 59.1490909090909 61.0374486803519  59.8474486803519 60.7326099706745  60.5347214076246 60.4222287390029  C 56.5551906158358 51.1551319648094  52.6366275659824 41.8603225806451  48.6958944281525 32.5765982404692  Z M 52.4648093841642 67.5166568914956  C 47.6206451612903 56.1711143695014  42.881788856305 44.7812316715543  37.9600293255132 33.474486803519  C 31.25357771261 36.3953958944281  24.5027859237537 39.2165395894428  17.7630791788856 42.059853372434  C 22.4963929618768 53.438651026393  27.434780058651 64.7343108504399  32.157008797654 76.1186510263929  C 38.9355131964809 73.2697947214076  45.6419648093842 70.2602052785924  52.4648093841642 67.5166568914956  Z M 52.414926686217 33.3747214076246  C 52.1488856304985 33.4079765395894  51.6278885630499 33.4689442815249  51.3618475073314 33.5021994134897  C 52.2708211143695 35.8411436950147  53.1465395894428 38.2133431085044  54.304926686217 40.4469794721407  C 54.5820527859238 40.496862170088  55.1418475073314 40.5966275659824  55.4245161290323 40.6465102639296  C 54.6485630498534 38.1357478005865  53.6398240469208 35.691495601173  52.414926686217 33.3747214076246  Z M 60.507008797654 33.8513782991202  C 58.7112316715543 34.4333431085044  56.727008797654 34.8545747800586  55.3746334310851 36.267917888563  C 57.2313782991202 35.8688563049853  59.2156011730205 35.3534017595308  60.507008797654 33.8513782991202  Z M 60.9393255131965 36.0240469208211  C 60.1522873900293 36.3288856304985  59.3652492668622 36.6392668621701  58.578211143695 36.9330205278592  C 57.9685337243402 37.1824340175953  57.3643988269795 37.4429325513196  56.7602639296188 37.703431085044  C 55.7958651026393 38.0415249266862  56.7436363636364 39.6488563049853  57.3200586510264 40.0756304985337  L 57.5417595307918 40.0202052785924  L 57.6138123167156 40.5689149560117  C 57.1205278592375 41.6940469208211  55.8512903225807 41.9656304985337  54.8536363636364 42.4644574780058  C 55.8014076246334 44.7147214076246  56.7602639296188 46.9705278592375  57.7191202346041 49.2263343108504  C 57.9075659824047 49.1321114369501  58.29 48.9436656891496  58.4784457478006 48.8549853372434  C 59.0493255131965 48.633284457478  59.6257478005865 48.4171260997067  60.2021700879765 48.2065102639296  C 60.507008797654 48.4226686217009  61.1277712609971 48.8549853372434  61.4381524926686 49.0711436950146  C 61.6044281524927 49.8082991202346  61.7651612903226 50.5399120234604  61.9314369501466 51.2826099706745  C 63.4888856304985 50.645219941349  65.0352492668622 49.9856598240469  66.5816129032258 49.3205571847507  C 64.7137829912024 44.8865395894428  62.8237829912023 40.458064516129  60.9393255131965 36.0240469208211  Z M 29.9621700879765 75.9468328445748  C 25.4006744868035 65.2275953079179  20.8946041055719 54.4751026392961  16.2776832844575 43.7780351906158  C 15.0306158357771 46.0726392961877  13.7392082111437 48.345073313783  12.436715542522 50.6119648093841  C 15.7622287390029 58.3825806451613  18.927008797654 66.2474193548387  22.4187976539589 73.9293548387096  C 24.8907624633431 74.7551906158358  27.4569501466276 75.259560117302  29.9621700879765 75.9468328445748  Z M 10.9457771260997 52.1804985337243  C 10.3083870967742 50.523284457478  8.40730205278593 49.9524046920821  7.12143695014663 48.921495601173  C 11.4002639296188 58.9312903225806  15.640293255132 68.9632551319648  19.8969501466276 78.9841348973607  C 20.0576832844575 77.354633431085  20.9334017595308 75.625366568915  20.2128739002933 74.0346627565982  C 17.1256891495601 66.7462463343109  14.0107917888563 59.4744574780059  10.9457771260997 52.1804985337243  Z M 59.6811730205279 50.4678592375367  C 59.4040469208211 50.4678592375367  58.8553372434018 50.4678592375367  58.578211143695 50.4678592375367  C 59.4539296187683 52.9342815249267  60.551348973607 55.3175659824047  61.5600879765396 57.7285630498533  C 61.8316715542522 57.6121700879765  62.3692961876833 57.384926686217  62.6408797653959 57.2685337243402  C 61.6709384164223 54.9960997067448  60.8728152492669 52.6349853372434  59.6811730205279 50.4678592375367  Z M 67.6513196480938 51.1773020527859  C 66.0661583577713 51.3324926686217  64.6140175953079 52.0253079178885  63.2560997067449 52.8289736070381  C 64.7913782991202 52.4853372434017  66.2712316715542 51.9255425219941  67.6513196480938 51.1773020527859  Z M 6.93853372434018 53.7989149560117  C 5.5917008797654 53.361055718475  4.178357771261 53.194780058651  2.79826979472141 52.906568914956  C 3.85689149560118 55.4007038123167  4.91551319648094 57.9003812316715  5.97967741935484 60.3945161290322  C 6.75563049853373 59.1862463343108  7.52604105571848 57.9724340175953  8.29645161290323 56.7586217008797  C 7.86967741935484 55.7609677419355  7.52049853372435 54.7189736070381  6.93853372434018 53.7989149560117  Z M 15.1026686217009 72.7210850439882  C 13.6837829912024 72.421788856305  12.2648973607038 72.1280351906158  10.8460117302053 71.8509090909091  C 11.8990909090909 74.3505865102639  12.9632551319648 76.8447214076246  14.0163343108504 79.3443988269794  C 14.7922873900293 78.1472140762463  15.5571554252199 76.9500293255132  16.338651026393 75.7639296187683  C 15.9229618768329 74.7496480938416  15.5072727272727 73.7353665689149  15.1026686217009 72.7210850439882  Z M 45.8636656891496 72.2333431085044  C 45.0987976539589 72.5714369501466  44.3339296187683 72.9095307917888  43.5635190615836 73.2531671554252  C 43.951495601173 74.1288856304985  44.3394721407625 75.0046041055718  44.7274486803519 75.8858651026393  C 45.4923167155425 75.547771260997  46.2627272727273 75.2096774193548  47.033137829912 74.8771260997067  C 46.6451612903226 73.9903225806452  46.2571847507331 73.1146041055719  45.8636656891496 72.2333431085044  Z M 49.4773900293255 83.5400879765396  C 48.5905865102639 81.217771260997  47.9698240469208 78.6294134897361  46.2848973607038 76.7338709677419  C 47.1994134897361 79.039560117302  47.7536656891496 81.7055131964809  49.4773900293255 83.5400879765396  Z M 60.5735190615836 80.5970087976539  C 54.1885337243402 83.3128445747801  47.814633431085 86.0453079178885  41.4185630498534 88.7334310850439  C 49.9817595307918 108.758563049853  58.4451906158358 128.828035190616  66.9751319648094 148.869794721408  C 73.3545747800587 146.120703812317  79.7949853372434 143.515718475073  86.1300879765396 140.672404692082  C 77.5225513196481 120.686070381232  69.097917888563 100.622140762463  60.5735190615836 80.5970087976539  Z " fill-rule="nonzero" fill="#a3b1bf" stroke="none" transform="matrix(1 0 0 1 236 1319 )" />
  </g>
</svg>