<?xml version="1.0" encoding="utf-8"?>
<svg version="1.1" xmlns:xlink="http://www.w3.org/1999/xlink" width="26px" height="46px" xmlns="http://www.w3.org/2000/svg">
  <g transform="matrix(1 0 0 1 -524 -623 )">
    <path d="M 4.0234328358209 22.6410447761194  C 0.0668656716417502 19.3134328358209  0.556865671641788 13.6820895522388  0.725074626865677 9.04537313432837  C 0.703134328358175 5.24238805970148  3.06537313432835 1.65149253731343  6.59044776119401 0.218059701492535  C 5.05462686567162 2.40477611940298  3.51149253731344 4.79626865671642  3.65044776119402 7.59731343283582  C 3.66507462686565 11.9488059701493  2.86059701492533 17.0682089552239  6.23940298507461 20.4835820895522  C 9.62552238805966 24.3085074626866  15.2276119402985 23.76  19.8058208955224 23.2480597014925  C 19.659552238806 27.7970149253731  19.4913432835821 32.375223880597  19.8643283582089 36.9168656716418  C 20.23 40.4785074626866  22.7019402985075 43.1991044776119  25.0276119402985 45.7002985074627  C 22.0802985074627 44.6179104477612  19.8570149253731 42.0655223880597  18.9282089552239 39.0962686567164  C 17.8165671641791 34.5692537313433  18.8550746268656 29.8520895522388  18.2114925373134 25.2665671641791  C 13.4797014925373 24.6010447761194  7.89223880597015 26.2246268656716  4.0234328358209 22.6410447761194  Z " fill-rule="nonzero" fill="#d0d6de" stroke="none" transform="matrix(1 0 0 1 524 623 )" />
  </g>
</svg>