<?xml version="1.0" encoding="utf-8"?>
<svg version="1.1" xmlns:xlink="http://www.w3.org/1999/xlink" width="13px" height="33px" xmlns="http://www.w3.org/2000/svg">
  <g transform="matrix(1 0 0 1 -345 -712 )">
    <path d="M 7.24507462686566 7.13373134328359  C 8.42985074626865 5.51746268656714  8.91253731343283 3.60865671641793  8.85402985074626 1.61940298507463  C 9.15388059701492 1.45119402985074  9.76089552238805 1.10014925373136  10.0680597014925 0.93194029850747  C 10.7482089552239 2.65059701492538  10.3825373134328 4.544776119403  10.455671641791 6.35119402985077  C 10.499552238806 12.2897014925373  10.3386567164179 18.2282089552239  10.5361194029851 24.1667164179104  C 11.2820895522388 24.6786567164179  12.0426865671642 25.1905970149254  12.7959701492537 25.7098507462686  C 13.0738805970149 27.9697014925373  12.9934328358209 30.2441791044776  12.8691044776119 32.5113432835821  C 8.73701492537313 32.3797014925373  4.52447761194029 32.9574626865672  0.450895522388059 32.1164179104478  C 4.42208955223879 31.9994029850747  8.39328358208954 32.2114925373134  12.3571641791045 31.9116417910448  C 12.5034328358209 30.31  12.4814925373134 28.7010447761194  12.2913432835821 27.1067164179105  C 10.5141791044776 26.6532835820896  8.75895522388059 26.0828358208955  6.95985074626865 25.7098507462686  C 8.25432835820894 24.2910447761194  9.98029850746267 22.5577611940298  9.15388059701492 20.4441791044776  C 8.56880597014925 18.0380597014925  5.67268656716418 17.4091044776119  3.56641791044775 17.9356716417911  C 4.78044776119402 17.6065671641791  6.01641791044776 17.3432835820896  7.25238805970149 17.0580597014925  C 7.68388059701492 13.7597014925373  7.48641791044775 10.4320895522388  7.24507462686566 7.13373134328359  Z " fill-rule="nonzero" fill="#d4dbe2" stroke="none" transform="matrix(1 0 0 1 345 712 )" />
  </g>
</svg>