<?xml version="1.0" encoding="utf-8"?>
<svg version="1.1" xmlns:xlink="http://www.w3.org/1999/xlink" width="24px" height="44px" xmlns="http://www.w3.org/2000/svg">
  <g transform="matrix(1 0 0 1 -333 -706 )">
    <path d="M 0.325223880597008 33.6405970149254  C 0.288656716417897 25.0911940298507  0.230149253731334 16.5344776119403  0.35447761194029 7.99238805970148  C 0.654328358208943 4.73059701492539  2.57776119402984 0.401044776119392  6.24910447761194 0.130447761194034  C 5.26910447761193 2.09776119402983  4.68402985074626 4.26253731343286  4.75716417910447 6.47119402985075  C 4.79373134328358 14.8011940298507  4.68402985074626 23.1311940298507  4.80835820895522 31.4538805970149  C 4.85223880597014 35.3080597014925  7.52164179104476 38.9282089552239  11.1637313432836 40.1568656716418  C 15.0179104477612 41.2173134328358  19.0841791044776 40.559104477612  23.0334328358209 40.7126865671642  C 22.8725373134328 41.6414925373134  22.7116417910448 42.5702985074627  22.5580597014925 43.5064179104477  C 22.09 43.5941791044776  21.1685074626866 43.7623880597015  20.7077611940298 43.8428358208955  C 16.6341791044776 43.6014925373134  12.5386567164179 43.9744776119403  8.4797014925373 43.5210447761194  C 3.76253731343282 42.8482089552239  0.222835820895511 38.3431343283582  0.325223880597008 33.6405970149254  Z " fill-rule="nonzero" fill="#dde3e8" stroke="none" transform="matrix(1 0 0 1 333 706 )" />
  </g>
</svg>