<?xml version="1.0" encoding="utf-8"?>
<svg version="1.1" xmlns:xlink="http://www.w3.org/1999/xlink" width="8px" height="9px" xmlns="http://www.w3.org/2000/svg">
  <g transform="matrix(1 0 0 1 -425 -1830 )">
    <path d="M 0.931872037914701 2.62970379146918  C 2.06746445497629 1.85332938388624  3.19146919431279 1.05957345971563  4.25174170616114 0.178909952606623  L 4.55302132701422 0.178909952606623  C 5.64226303317537 1.04798578199051  6.79523696682466 1.84174170616113  7.95400473933651 2.61811611374406  C 7.95400473933651 3.91593601895733  7.95979857819904 5.21954976303316  7.97138625592416 6.51736966824643  C 6.81261848341231 7.21263033175354  5.64805687203793 7.89630331753553  4.49508293838861 8.59156398104264  C 3.3015521327014 7.92527251184833  2.11381516587679 7.2473933649289  0.931872037914701 6.56951421800947  C 0.931872037914701 5.25431279620852  0.931872037914701 3.94490521327013  0.931872037914701 2.62970379146918  Z M 4.51246445497631 1.58101895734596  C 3.62600710900475 2.06770142180094  2.74534360189574 2.56017772511847  1.87047393364929 3.05844786729857  C 1.86468009478673 4.04340047393364  1.86468009478673 5.03414691943127  1.87047393364929 6.0248933649289  C 2.73954976303318 6.52316350710899  3.60862559241707 7.00984597156397  4.48928909952608 7.49652843601895  C 5.32939573459714 6.99825829383885  6.16950236966827 6.50578199052131  7.01540284360189 6.01330568720378  C 7.01540284360189 5.03414691943127  7.01540284360189 4.05498815165876  7.01540284360189 3.07582938388624  C 6.17529620853082 2.58335308056871  5.34098341232229 2.08508293838861  4.51246445497631 1.58101895734596  Z " fill-rule="nonzero" fill="#a3b1bf" stroke="none" transform="matrix(1 0 0 1 425 1830 )" />
  </g>
</svg>