<?xml version="1.0" encoding="utf-8"?>
<svg version="1.1" xmlns:xlink="http://www.w3.org/1999/xlink" width="5px" height="5px" xmlns="http://www.w3.org/2000/svg">
  <g transform="matrix(1 0 0 1 -541 -1862 )">
    <path d="M 0.878175355450253 4.33825829383885  C -0.176303317535542 3.41124407582937  0.0206872037914536 1.48189573459715  1.27795023696677 0.821398104265391  C 2.74379146919432 -0.122997630331763  4.88751184834121 1.23276066350709  4.59202606635068 2.97091232227487  C 4.52249999999998 4.71485781990521  2.07750000000004 5.57234597156398  0.878175355450253 4.33825829383885  Z M 3.58969194312795 1.36601895734596  C 2.55259478672986 1.53983412322274  1.53287914691941 1.81214454976302  0.542132701421792 2.13659952606634  C 1.05199052132701 2.8955924170616  1.58502369668247 3.66037914691942  2.11805687203793 4.41937203791468  C 2.5004502369668 4.20499999999999  3.27103080568719 3.77046208530805  3.65921800947865 3.55609004739335  C 3.641836492891 3.01146919431278  3.60707345971565 1.91643364928909  3.58969194312795 1.36601895734596  Z " fill-rule="nonzero" fill="#99a5b1" stroke="none" transform="matrix(1 0 0 1 541 1862 )" />
  </g>
</svg>