<?xml version="1.0" encoding="utf-8"?>
<svg version="1.1" xmlns:xlink="http://www.w3.org/1999/xlink" width="6px" height="5px" xmlns="http://www.w3.org/2000/svg">
  <g transform="matrix(1 0 0 1 -499 -1885 )">
    <path d="M 1.39428909952608 3.62715639810425  C 0.554182464455039 2.57847156398103  0.942369668246442 0.944609004739327  2.08375592417065 0.284111374407573  C 3.80452606635072 -0.596552132701433  6.03515402843601 1.17056872037914  5.25877962085315 3.01880331753554  C 4.76050947867304 4.62949052132701  2.33868483412323 5.02926540284359  1.39428909952608 3.62715639810425  Z M 4.27962085308059 1.22271327014217  C 3.53221563981043 1.21691943127961  2.78481042654028 1.21691943127961  2.04319905213271 1.21691943127961  C 2.01422985781994 1.73836492890995  1.96787914691942 2.77546208530804  1.94470379146924 3.29690758293838  C 2.73845971563986 3.3084952606635  3.53221563981043 3.32008293838862  4.32597156398106 3.32587677725117  C 4.31438388625588 2.79863744075828  4.2912085308057 1.7441587677725  4.27962085308059 1.22271327014217  Z " fill-rule="nonzero" fill="#aebac7" stroke="none" transform="matrix(1 0 0 1 499 1885 )" />
  </g>
</svg>