<?xml version="1.0" encoding="utf-8"?>
<svg version="1.1" xmlns:xlink="http://www.w3.org/1999/xlink" width="6px" height="5px" xmlns="http://www.w3.org/2000/svg">
  <g transform="matrix(1 0 0 1 -589 -1869 )">
    <path d="M 2.14318720379146 4.27927725118482  C 0.381860189573501 3.53766587677724  0.613613744075849 0.611777251184826  2.4850236966825 0.183033175355433  C 3.78284360189576 -0.303649289099532  5.49202606635072 0.843530805687188  5.32400473933649 2.291990521327  C 5.50361374407589 3.90847156398103  3.49894549763036 5.08462085308056  2.14318720379146 4.27927725118482  Z M 4.15944312796211 1.22013033175354  C 3.64958530805689 1.19116113744075  2.62986966824644 1.13901658767772  2.12001184834128 1.11004739336492  C 2.13159952606634 1.92118483412321  2.15477488151657 2.72652843601895  2.1837440758294 3.53187203791468  C 2.67042654028432 3.49710900473933  3.64958530805689 3.42758293838862  4.14206161137446 3.39281990521326  C 4.14206161137446 2.66859004739335  4.15364928909952 1.94436018957345  4.15944312796211 1.22013033175354  Z " fill-rule="nonzero" fill="#b0bcc8" stroke="none" transform="matrix(1 0 0 1 589 1869 )" />
  </g>
</svg>