<?xml version="1.0" encoding="utf-8"?>
<svg version="1.1" xmlns:xlink="http://www.w3.org/1999/xlink" width="13px" height="13px" xmlns="http://www.w3.org/2000/svg">
  <g transform="matrix(1 0 0 1 -310 -1162 )">
    <path d="M 1.59375366568915 2.30032258064516  C 2.41404692082112 1.29712609970674  3.77750733137829 1.51328445747801  4.91926686217009 1.48557184750733  C 5.93909090909091 0.826011730205274  7.07530791788857 -0.182727272727277  8.38334310850439 0.37706744868035  C 9.74680351906159 0.737331378299118  10.0682697947214 2.20609970674487  10.4119061583578 3.37557184750732  C 11.3596774193548 4.15152492668621  12.7065102639296 4.90530791788856  12.5734897360704 6.3408211143695  C 12.6510850439883 7.79296187683284  11.2876246334311 8.54120234604105  10.2955131964809 9.28944281524926  C 9.9241642228739 10.4533724340176  9.51956011730205 11.8722580645161  8.15609970674487 12.193724340176  C 6.8425219941349 12.6648387096774  5.75618768328447 11.7004398826979  4.80287390029326 10.9521994134897  C 3.5225513196481 10.8967741935484  1.87642228739004 11.0076246334311  1.20023460410557 9.6607917888563  C 0.418739002932568 8.57445747800586  1.01733137829912 7.2941348973607  1.42193548387097 6.20225806451613  C 1.03950146627565 4.93856304985337  0.440909090909102 3.35894428152492  1.59375366568915 2.30032258064516  Z " fill-rule="nonzero" fill="#41474c" stroke="none" transform="matrix(1 0 0 1 310 1162 )" />
  </g>
</svg>