<?xml version="1.0" encoding="utf-8"?>
<svg version="1.1" xmlns:xlink="http://www.w3.org/1999/xlink" width="28px" height="30px" xmlns="http://www.w3.org/2000/svg">
  <g transform="matrix(1 0 0 1 -475 -593 )">
    <path d="M 0.315522388059691 2.23686567164179  C 0.286268656716402 1.83462686567165  0.235074626865668 1.03014925373134  0.213134328358194 0.627910447761195  C 9.17208955223882 0.496268656716424  18.145671641791 0.503582089552239  27.1119402985074 0.620597014925366  C 27.1192537313433 10.1280597014925  27.1119402985074 19.6355223880597  27.1119402985074 29.1429850746269  C 18.1676119402985 29.2673134328358  9.20865671641789 29.2453731343284  0.264328358208928 29.1576119402985  C 0.264328358208928 28.6017910447761  0.264328358208928 27.4828358208955  0.264328358208928 26.9270149253731  C 0.966417910447746 26.2249253731343  2.22432835820894 25.7349253731343  2.10731343283581 24.5428358208955  C 2.25358208955222 18.1508955223881  2.14388059701491 11.7443283582089  2.15850746268654 5.34507462686567  C 2.45835820895519 3.89701492537314  1.21507462686566 3.08522388059701  0.315522388059691 2.23686567164179  Z " fill-rule="nonzero" fill="#d8dde4" stroke="none" transform="matrix(1 0 0 1 475 593 )" />
  </g>
</svg>