<?xml version="1.0" encoding="utf-8"?>
<svg version="1.1" xmlns:xlink="http://www.w3.org/1999/xlink" width="16px" height="16px" xmlns="http://www.w3.org/2000/svg">
  <g transform="matrix(1 0 0 1 -570 -544 )">
    <path d="M 3.35208955223885 13.9091044776119  C 0.580298507462715 11.8174626865672  -0.0852238805970273 7.97059701492537  1.01179104477615 4.81119402985075  C 2.66462686567166 1.82  6.13119402985075 -0.286268656716416  9.59044776119401 0.525522388059706  C 13.6932835820896 1.28611940298507  16.6040298507463 5.80582089552239  15.4265671641791 9.84283582089553  C 14.9073134328358 12.1392537313433  13.1374626865672 13.8505970149254  11.2286567164179 15.0792537313433  C 8.58119402985074 15.8179104477612  5.53149253731345 15.7740298507463  3.35208955223885 13.9091044776119  Z M 11.9526865671642 4.51134328358209  C 10.570447761194 2.85850746268657  8.23746268656714 2.51477611940299  6.23358208955227 2.98283582089552  C 7.57925373134327 5.24268656716418  9.12970149253732 7.36358208955224  10.5411940298508 9.57955223880597  C 11.060447761194 10.1061194029851  11.3456716417911 11.4298507462687  12.3183582089553 11.1446268656716  C 13.6055223880597 9.1334328358209  13.634776119403 6.31044776119403  11.9526865671642 4.51134328358209  Z " fill-rule="nonzero" fill="#a3b1bf" stroke="none" transform="matrix(1 0 0 1 570 544 )" />
  </g>
</svg>