<?xml version="1.0" encoding="utf-8"?>
<svg version="1.1" xmlns:xlink="http://www.w3.org/1999/xlink" width="180px" height="68px" xmlns="http://www.w3.org/2000/svg">
  <g transform="matrix(1 0 0 1 -353 -746 )">
    <path d="M 2.55805970149253 3.50641791044774  C 2.71164179104476 2.57029850746272  2.87253731343283 1.64149253731341  3.03343283582089 0.712686567164155  C 4.26940298507463 0.712686567164155  5.50537313432835 0.712686567164155  6.74865671641791 0.727313432835786  C 7.51656716417911 10.2494029850747  8.0065671641791 19.8007462686567  8.93537313432836 29.3155223880597  C 10.8076119402985 44.9662686567164  23.8986567164179 58.3498507462687  39.4982089552239 60.5877611940298  C 74.1785074626866 64.8222388059702  109.261044776119 65.7802985074627  144.131492537313 63.5423880597015  C 155.847611940298 62.6355223880597  167.62223880597 61.9261194029851  179.214029850746 59.9734328358209  C 175.169701492537 62.6940298507463  170.225820895522 63.6301492537313  165.464776119403 64.1640298507463  C 122.439850746269 69.0932835820896  78.8444776119403 69.1371641791045  35.8122388059702 64.2517910447761  C 32.1994029850746 63.9007462686567  28.6085074626866 63.1694029850746  25.200447761194 61.9041791044776  C 12.950447761194 57.274776119403  3.78671641791045 45.4197014925373  2.64582089552238 32.3359701492537  C 1.91447761194029 22.850447761194  1.02955223880596 13.3502985074626  0.707761194029843 3.84283582089552  C 1.16850746268656 3.76238805970149  2.08999999999999 3.59417910447763  2.55805970149253 3.50641791044774  Z " fill-rule="nonzero" fill="#d8dde4" stroke="none" transform="matrix(1 0 0 1 353 746 )" />
  </g>
</svg>