<?xml version="1.0" encoding="utf-8"?>
<svg version="1.1" xmlns:xlink="http://www.w3.org/1999/xlink" width="202px" height="255px" xmlns="http://www.w3.org/2000/svg">
  <g transform="matrix(1 0 0 1 -360 -554 )">
    <path d="M 4.16597014925372 34.3841791044776  C 5.65059701492537 19.5598507462687  17.8640298507463 6.70283582089552  32.5932835820896 4.47955223880598  C 77.6513432835821 -1.02746268656716  123.38223880597 -1.02746268656716  168.447611940298 4.4210447761194  C 179.702985074627 6.09582089552239  189.79552238806 13.8188059701493  194.402985074627 24.2111940298507  C 196.860298507463 29.3964179104478  197.452686567164 35.1667164179105  197.730597014925 40.82  C 198.366865671642 49.4425373134328  199.01776119403 58.0650746268657  199.515074626866 66.6949253731343  C 191.879850746269 67.2288059701492  184.171492537313 66.6583582089552  176.514328358209 66.9728358208955  C 174.327611940299 67.0240298507462  172.462686567164 68.2380597014925  170.590447761194 69.2180597014925  C 167.065373134328 70.6514925373134  164.703134328358 74.2423880597015  164.725074626866 78.0453731343284  C 164.556865671642 82.6820895522388  164.066865671642 88.3134328358209  168.023432835821 91.6410447761194  C 171.89223880597 95.2246268656716  177.479701492537 93.6010447761194  182.211492537313 94.2665671641791  C 182.855074626866 98.8520895522388  181.816567164179 103.569253731343  182.928208955224 108.096268656716  C 183.857014925373 111.06552238806  186.080298507463 113.617910447761  189.027611940299 114.700298507463  C 192.698955223881 116.850447761194  196.984626865672 116.916268656716  201.109402985075 116.879701492537  C 201.20447761194 123.776268656716  201.241044776119 130.672835820896  201.109402985075 137.57671641791  C 194.885671641791 131.718656716418  186.555671641791 128.018059701493  177.933134328358 128.135074626866  C 173.208656716418 127.996119402985  168.667014925373 129.407611940298  164.22776119403 130.826417910448  C 155.802686567164 132.22328358209  148.489253731343 137.883880597015  143.918358208955 144.955970149254  C 138.016417910448 153.995373134328  137.241194029851 166.011343283582  141.592686567164 175.847910447761  C 145.095820895522 183.995074626866  152.189850746269 190.44552238806  160.48328358209 193.487910447761  C 167.321343283582 195.97447761194  174.92 195.872089552239  181.838507462687 193.795074626866  C 188.347462686567 192.734626865672  194.505373134328 189.95552238806  199.59552238806 185.764925373134  C 199.120149253731 196.939850746269  198.162089552239 208.092835820896  197.342985074627 219.245820895522  C 196.501940298507 229.813731343284  190.439104477612 239.781940298507  181.436268656716 245.384029850746  C 176.258358208955 248.726268656716  170.158955223881 250.357164179104  164.05223880597 250.781343283582  C 120.522686567164 255.674029850746  76.43 255.557014925373  32.9443283582089 250.262089552239  C 21.0234328358209 248.506865671642  10.4482089552239 239.93552238806  6.23567164179104 228.650895522388  C 3.88805970149254 222.902537313433  3.92462686567164 216.605671641791  3.42 210.520895522388  C 2.84223880597014 201.503432835821  1.88417910447761 192.49328358209  1.86955223880597 183.461194029851  C 3.06164179104478 183.249104477612  4.25373134328358 183.022388059701  5.43850746268657 182.751791044776  C 5.66522388059703 181.998507462687  5.89925373134328 181.252537313433  6.12597014925373 180.513880597015  C 16.8328358208955 179.504626865672  27.554328358209 178.692835820896  38.2611940298507 177.683582089552  C 39.5117910447761 177.771343283582  40.294328358209 176.542686567164  40.1846268656716 175.416417910448  C 40.1846268656716 171.745074626866  40.3455223880597 168.059104477612  40.089552238806 164.395074626866  C 40.045671641791 163.085970149254  38.5171641791045 162.903134328358  37.515223880597 162.844626865672  C 27.0716417910448 161.893880597015  16.6207462686567 161.104029850746  6.1844776119403 160.087462686567  C 5.87731343283582 159.282985074627  5.57746268656716 158.478507462687  5.27761194029851 157.681343283582  C 3.74910447761194 157.513134328358  2.20597014925373 157.44  0.670149253731338 157.418059701493  C 0.114328358208951 138.41776119403  0.0265671641790988 119.39552238806  0.597014925373131 100.395223880597  C 2.21328358208955 100.088059701493  3.82223880597014 99.7662686567164  5.42388059701491 99.3859701492537  C 5.65059701492537 98.64  5.88462686567165 97.8940298507463  6.1186567164179 97.1480597014925  C 16.5768656716418 96.1680597014926  27.0497014925373 95.3197014925373  37.515223880597 94.4055223880597  C 38.6049253731343 94.3835820895522  40.17 94.0325373134328  40.1188059701493 92.6502985074627  C 40.2577611940298 88.7961194029851  40.3089552238806 84.92  40.0968656716418 81.0731343283582  C 40.1407462686567 79.7128358208955  38.5464179104477 79.5665671641791  37.5517910447761 79.4714925373134  C 27.0935820895522 78.5280597014925  16.6280597014925 77.7235820895523  6.17716417910448 76.7216417910448  C 5.87731343283582 75.9098507462687  5.58477611940297 75.1053731343283  5.28492537313433 74.3008955223881  C 4.01970149253732 74.2058208955224  2.74716417910447 74.1619402985075  1.51119402985074 73.854776119403  C 2.16208955223881 60.6832835820896  3.05432835820895 47.5264179104477  4.16597014925372 34.3841791044776  Z M 57.0420895522388 36.0297014925373  C 56.4277611940299 37.0316417910448  56.2741791044776 38.1944776119403  56.3034328358209 39.3426865671642  C 56.3034328358209 50.1738805970149  56.34 61.0050746268657  56.2888059701493 71.8362686567164  C 84.8916417910447 71.8728358208955  113.501791044776 71.8289552238806  142.111940298507 71.8582089552239  C 143.289402985075 71.8582089552239  144.459552238806 71.7411940298508  145.629701492537 71.609552238806  C 145.637014925373 59.7910447761194  145.629701492537 47.9725373134328  145.637014925373 36.1540298507463  C 116.105373134328 35.9858208955224  86.5737313432836 36.2271641791045  57.0420895522388 36.0297014925373  Z M 39.8482089552239 45.7346268656716  C 36.7911940298508 43.8038805970149  32.9370149253731 47.0729850746269  33.5220895522388 50.3932835820896  C 34.7507462686567 52.2582089552239  37.1202985074627 54.664328358209  39.4386567164179 52.9310447761194  C 42.2470149253731 51.6219402985075  42.6638805970149 47.2631343283582  39.8482089552239 45.7346268656716  Z M 170.51 48.8720895522388  C 170.400298507463 46.290447761194  167.431044776119 44.3889552238806  165.054179104478 45.4640298507463  C 163.203880597015 46.2611940298507  161.909402985075 48.3016417910448  162.326268656716 50.334776119403  C 163.277014925373 51.9949253731343  164.929850746269 53.8744776119403  167.050746268657 53.4722388059702  C 168.944925373134 52.7920895522388  170.714776119403 51.0222388059701  170.51 48.8720895522388  Z M 29.6167164179105 111.562835820896  C 26.574328358209 109.617462686567  22.7055223880597 112.886567164179  23.2905970149254 116.206865671642  C 24.5119402985075 118.093731343284  26.9253731343284 120.499850746269  29.2364179104478 118.73  C 32.0082089552239 117.413582089552  32.410447761194 113.091343283582  29.6167164179105 111.562835820896  Z M 31.554776119403 139.57328358209  C 31.4597014925373 136.984328358209  28.4685074626866 135.07552238806  26.0916417910448 136.150597014925  C 24.2413432835821 136.955074626866  22.9541791044776 139.002835820896  23.3710447761194 141.04328358209  C 24.3437313432836 142.666865671642  25.9673134328358 144.597611940298  28.0955223880597 144.144179104478  C 29.9897014925373 143.49328358209  31.7522388059701 141.708805970149  31.554776119403 139.57328358209  Z M 39.8628358208955 208.100149253731  C 36.7911940298508 206.140149253731  32.9077611940299 209.453134328358  33.5294029850746 212.788059701493  C 34.8092537313433 214.645671641791  37.1276119402985 217.066417910448  39.4679104477612 215.26  C 42.254328358209 213.958208955224  42.6419402985075 209.621343283582  39.8628358208955 208.100149253731  Z M 168.557313432836 208.092835820896  C 165.492985074627 206.154776119403  161.624179104478 209.460447761194  162.245820895522 212.780746268657  C 163.489104477612 214.631044776119  165.887910447761 217.015223880597  168.184328358209 215.274626865672  C 170.970746268657 213.950895522388  171.365671641791 209.60671641791  168.557313432836 208.092835820896  Z M 82.229552238806 215.384328358209  C 79.1505970149254 213.490149253731  75.325671641791 216.795820895522  75.9473134328358 220.116119402985  C 77.2271641791045 221.937164179104  79.5016417910448 224.350597014925  81.8419402985074 222.617313432836  C 84.6722388059702 221.308208955224  85.0891044776119 216.898208955224  82.229552238806 215.384328358209  Z M 124.705970149254 215.420895522388  C 121.648955223881 213.460895522388  117.758208955224 216.737313432836  118.365223880597 220.07223880597  C 119.608507462687 221.94447761194  121.941492537313 224.34328358209  124.281791044776 222.602686567164  C 127.068208955224 221.286268656716  127.499701492537 216.95671641791  124.705970149254 215.420895522388  Z " fill-rule="nonzero" fill="#e4e8ed" stroke="none" transform="matrix(1 0 0 1 360 554 )" />
  </g>
</svg>