<?xml version="1.0" encoding="utf-8"?>
<svg version="1.1" xmlns:xlink="http://www.w3.org/1999/xlink" width="29px" height="22px" xmlns="http://www.w3.org/2000/svg">
  <g transform="matrix(1 0 0 1 -562 -623 )">
    <path d="M 0.879253731343283 7.47298507462688  C 0.78417910447763 5.07417910447762  0.806119402985075 2.68268656716418  0.842686567164208 0.291194029850743  C 7.42477611940302 0.254626865671639  14.0068656716418 0.254626865671639  20.5889552238806 0.283880597014928  C 24.3188059701492 0.0644776119403048  27.880447761194 3.13611940298506  28.0559701492538 6.89522388059703  C 28.1656716417911 9.56462686567164  28.2095522388059 12.2486567164179  28.0194029850746 14.9180597014926  C 27.6537313432836 18.5235820895522  24.1798507462686 21.3465671641791  20.5889552238806 21.1637313432836  C 16.9541791044776 21.0174626865672  13.2389552238806 21.5732835820895  9.6626865671642 20.8053731343284  C 10.1234328358209 14.9838805970149  6.47402985074626 9.26477611940297  0.879253731343283 7.47298507462688  Z M 23.0535820895523 10.5592537313433  C 23.4997014925373 7.46567164179106  19.9161194029851 5.04492537313433  17.1882089552239 6.50029850746267  C 14.5114925373135 7.99223880597015  13.7582089552239 11.0053731343283  14.4017910447761 13.8502985074627  C 17.2101492537313 17.0389552238806  22.373432835821 14.1135820895522  23.0535820895523 10.5592537313433  Z " fill-rule="nonzero" fill="#f0f2f5" stroke="none" transform="matrix(1 0 0 1 562 623 )" />
  </g>
</svg>