<?xml version="1.0" encoding="utf-8"?>
<svg version="1.1" xmlns:xlink="http://www.w3.org/1999/xlink" width="193px" height="106px" xmlns="http://www.w3.org/2000/svg">
  <g transform="matrix(1 0 0 1 -202 -1886 )">
    <path d="M 80.0187085308057 6.60752369668246  C 79.4509123222749 4.89834123222748  79.2828909952607 2.54604265402843  81.0036611374408 1.42783175355449  C 83.1415876777251 0.147393364928895  85.7546090047393 0.802097156398098  88.0373815165877 1.27139810426539  C 96.5137677725119 3.38614928909951  105.013329383886 5.47193127962085  113.298518957346 8.27035545023695  C 115.320568720379 9.01776066350709  117.441113744076 9.67825829383884  119.185059241706 10.9876658767772  C 120.923210900474 12.3260426540284  121.386718009479 15.3967772511848  119.468957345972 16.787298578199  C 117.168803317536 18.2241706161137  114.318234597156 17.4304146919431  111.867440758294 16.8452369668246  C 107.661113744076 15.6575  103.252002369668 16.0804502369668  98.9471800947867 16.3006161137441  C 98.1592180094787 21.0515639810426  97.3480805687204 25.7967180094787  96.5543246445498 30.5476658767772  C 115.129372037915 34.8466943127962  133.70441943128 39.1573104265403  152.285260663507 43.4563388625592  C 152.012950236967 36.6427843601896  151.659526066351 29.8350236966825  151.427772511848 23.0214691943128  C 151.178637440758 21.0457701421801  153.299182464455 19.1453909952606  155.216943127962 19.9391469194313  C 159.718755924171 21.4397511848341  164.232156398104 22.9461492890995  168.68182464455 24.6031872037915  C 170.837132701422 25.3969431279621  170.871895734597 28.6646682464455  168.988898104265 29.7828791469194  C 167.621552132701 30.7504502369668  166.016658767773 29.8466113744076  164.602962085308 29.498981042654  C 163.890319905213 31.6195260663507  163.148708530806 33.7342772511848  162.424478672986 35.8548222748815  C 167.042168246445 37.4423341232227  171.654063981043 39.029845971564  176.26595971564 40.6173578199052  C 180.037748815166 38.5663388625592  183.792156398104 36.492144549763  187.558151658768 34.4353317535545  C 188.282381516588 34.139845971564  189.21518957346 33.4214099526066  189.951007109005 34.0877014218009  C 192.413388625592 36.243009478673  193.062298578199 40.0032109004739  191.967263033175 43.0160071090047  C 189.742428909953 48.6476184834123  184.261457345972 52.1239218009479  179.093353080569 54.7659123222749  C 177.337819905213 55.658163507109  176.057381516588 52.6337796208531  177.754976303318 51.8052606635071  C 181.70058056872 49.3892298578199  186.138661137441 47.0890758293839  188.461990521327 42.8827488151659  C 189.406386255924 41.2952369668246  189.23836492891 39.4064454976303  188.687950236967 37.7262322274881  C 184.6438507109 39.7946327014218  180.767772511848 42.1932819905213  176.677322274882 44.1631872037915  C 176.416599526066 44.1400118483412  175.889360189573 44.0994549763033  175.628637440758 44.0820734597156  C 170.669111374408 42.4540047393365  165.755936018957 40.6752962085308  160.802203791469 39.0182582938388  C 159.863601895735 38.688009478673  158.362997630332 38.1897393364929  158.69904028436 36.8919194312796  C 159.405888625592 33.9776184834123  160.628388625592 31.2197511848341  161.497464454976 28.3518009478673  C 160.077973933649 27.8825  158.658483412322 27.395817535545  157.244786729858 26.9149289099526  C 158.299265402844 51.6604146919431  159.388507109005 76.4116943127962  160.442985781991 101.162973933649  C 160.738471563981 102.941682464455  159.544940758294 104.963732227488  157.615592417062 104.981113744076  C 155.917997630332 105.10278436019  154.724466824645 103.434158767773  154.828755924171 101.858234597156  C 154.133495260663 86.2901895734597  153.472997630332 70.7163507109005  152.800912322275 55.1425118483412  C 135.824964454976 63.7811255924171  118.85481042654 72.4429146919431  101.867274881517 81.0467654028436  C 102.521978672986 85.2820616113744  101.728222748815 89.7549052132701  99.27163507109 93.3123222748815  C 95.8590639810427 98.6020971563981  88.9354265402844 101.620687203791  82.8055450236967 99.7029265402844  C 79.068518957346 98.7063862559242  76.530817535545 95.6240639810426  73.4890521327014 93.4687559241706  C 65.5630805687204 101.1861492891  54.6069312796209 106.024004739336  43.4537914691943 105.508353080569  C 34.1662677725119 105.89654028436  24.9540639810427 102.559289099526  17.6364454976303 96.9276777251185  C 8.95148104265403 90.2995260663507  2.98382701421801 80.2182464454976  1.42528436018957 69.4011492890995  C -0.0637322274881517 59.6501184834123  1.92355450236967 49.400817535545  7.03951421800948 40.9649881516588  C 12.6305687203791 31.5905568720379  21.952855450237 24.5046919431279  32.5150236966825 21.7236492890995  C 42.3181990521327 19.0700710900474  53.0715639810427 20.0724052132701  62.1852725118483 24.5684241706161  C 68.8308056872038 27.7724170616114  74.5145616113744 32.8072630331753  78.7324763033175 38.8386492890995  C 83.3501658767773 36.005462085308  87.9388862559242 33.1259241706161  92.5623696682464 30.3101184834123  C 93.3850947867299 25.6982227488151  94.1267061611374 21.0747393364929  94.9320497630332 16.4570497630332  C 91.9829857819905 16.341172985782  88.900663507109 16.2658530805687  86.1775592417062 15.0143838862559  C 83.1473815165877 13.1429739336493  81.1427132701422 9.92739336492889  80.0187085308057 6.60752369668246  Z M 89.6886255924171 4.57388625592416  C 87.2725947867299 3.99450236966823  84.7928317535545 3.17177725118482  82.2898933649289 3.69901658767772  C 83.0083293838863 7.83002369668245  85.4417417061611 12.818518957346  90.1173696682464 13.2704383886256  C 96.7281398104265 14.3191232227488  103.43740521327 12.5114454976303  110.053969194313 13.5775118483412  C 112.748104265403 13.9946682464455  115.41327014218 15.3040758293839  118.176931279621 14.5334952606635  C 117.464289099526 12.5404146919431  115.262630331754 12.042144549763  113.507097156398 11.3352962085308  C 105.720177725118 8.57163507109003  97.6841232227488 6.61331753554501  89.6886255924171 4.57388625592416  Z M 51.0668957345972 23.7920497630332  C 42.6832109004739 22.1813625592417  33.7780805687204 23.3285426540284  26.1128317535545 27.1119194312796  C 17.062855450237 31.5094431279621  9.82055687203791 39.475971563981  6.30949052132701 48.9083412322275  C 3.29669431279621 56.8748696682464  2.94906398104265 65.8089691943128  5.28398104265403 73.995663507109  C 7.91438388625593 83.3527132701422  14.1253791469194 91.6263151658768  22.3526303317536 96.8002132701422  C 29.1082464454976 101.099241706161  37.1906516587678 103.248755924171  45.1919431279621 102.889537914692  C 54.8386848341232 102.547701421801  64.2942298578199 98.4804265402844  71.1831042654028 91.7190165876777  C 70.0590995260663 90.9542298578199  69.1147037914692 89.8128436018957  67.7473578199052 89.4883886255924  L 67.3186137440758 89.598471563981  L 67.3997274881517 89.2102843601896  C 66.3162796208531 87.6691232227488  64.5259834123223 86.8058412322275  63.1006990521327 85.6181042654028  C 55.2906042654028 79.7083886255924  47.5094786729858 73.746528436019  39.658827014218 67.8947511848341  C 35.5162322274882 64.5227369668246  37.3760545023697 57.0313033175355  42.4282819905213 55.6465758293839  C 44.7284360189573 54.8238507109005  46.9880331753554 55.9826184834123  48.847855450237 57.2572630331753  C 55.7251421800948 53.1841943127962  62.4344075829384 48.8272274881516  69.2943127962085 44.7193957345971  C 70.2271208530806 44.0994549763033  71.4148578199052 43.7228554502369  72.0116232227488 42.7031398104265  L 72.2028199052133 42.1932819905213  C 72.272345971564 42.2801895734597  72.4056042654028 42.4482109004739  72.4751303317536 42.5351184834123  C 73.8308886255924 41.9325592417061  75.0823578199052 41.1272156398104  76.333827014218 40.3392535545023  C 70.4704620853081 31.8281042654028  61.2408767772512 25.6982227488151  51.0668957345972 23.7920497630332  Z M 93.88336492891 34.24413507109  C 89.5495734597156 36.9208886255924  85.233163507109 39.620817535545  80.881990521327 42.2686018957346  C 85.3084834123223 50.4842654028436  87.0756042654028 60.0672748815166  85.719845971564 69.3084478672986  C 90.0594312796209 68.8449407582938  94.4975118483412 70.2006990521327  97.6435663507109 73.2656398104265  C 114.833886255924 64.5632938388625  132.00682464455 55.8261848341232  149.156587677725 47.0543127962085  C 130.732180094787 42.7842535545024  112.307772511848 38.5141943127962  93.88336492891 34.24413507109  Z M 78.5007227488152 43.7865876777251  C 77.2434597156398 44.5455805687204  75.9861966824645 45.3161611374407  74.7347274881517 46.0867417061611  C 67.4286966824644 50.6291113744076  60.0879028436019 55.1077488151659  52.8108412322275 59.6964691943128  C 61.5711255924171 62.0487677725118  70.2039454976303 64.8761611374407  78.9816113744076 67.1879028436019  L 78.975817535545 67.2979857819905  C 80.3257819905213 67.6803791469194  81.6757464454976 68.0685663507109  83.0257109004739 68.4509597156398  C 84.10336492891 60.0035426540284  82.5158530805687 51.2954028436019  78.5007227488152 43.7865876777251  Z M 42.3645497630332 57.129798578199  C 38.6217298578199 58.445  37.3470853080569 63.9954976303317  40.3598815165877 66.6780450236967  C 41.7214336492891 68.0859478672986  43.7956279620853 67.9121327014218  45.5569549763033 67.6166469194313  C 44.0447630331754 66.6664573459716  42.3529620853081 66.0117535545023  40.9218838862559 64.9340995260663  C 40.2324170616114 64.0650236966824  40.4757582938389 62.6571208530805  41.4027725118483 62.0545616113744  C 43.3495023696682 60.5365758293839  45.5917180094787 59.4415402843602  47.6079739336493 58.0162559241706  C 45.9972867298578 57.2340876777251  44.1606398104265 56.3012796208531  42.3645497630332 57.129798578199  Z M 54.0970734597156 60.9537322274881  C 52.9846563981043 60.7045971563981  51.7273933649289 60.1715639810426  50.6671208530806 60.8784123222748  C 50.267345971564 62.1067061611374  50.0935308056872 63.3987322274881  49.8675710900474 64.6733767772512  C 58.3034004739337 68.5900118483412  66.7566113744076 72.4718838862559  75.2272037914692 76.3074052132702  C 76.0267535545024 75.3456279620853  76.8958293838863 74.4302014218009  77.5621208530806 73.3699289099526  C 79.3755924170616 72.0257582938389  81.368672985782 70.9538981042654  83.1879383886256 69.6155213270142  C 81.762654028436 69.0766943127962  80.3084004739337 68.6363625592417  78.8425592417062 68.2134123222749  C 70.5921327014218 65.8089691943128  62.3301184834123 63.4277014218009  54.0970734597156 60.9537322274881  Z M 49.0042890995261 63.2133293838862  C 49.241836492891 62.0951184834123  47.4863033175355 62.257345971564  47.2893127962085 63.1148341232227  C 47.0981161137441 64.1693127962085  48.8768246445498 64.1577251184834  49.0042890995261 63.2133293838862  Z M 47.4515402843602 68.2018246445497  C 46.113163507109 68.6653317535545  44.7689928909953 69.1114573459715  43.4248222748815 69.5402014218009  C 51.8432701421801 75.8612796208531  60.2095734597156 82.2518838862559  68.604845971564 88.6077251184834  C 69.6940876777251 89.4362440758294  70.7891232227488 90.2647630331753  71.8841587677725 91.0874881516588  C 72.2781398104265 90.6181872037915  72.666327014218 90.1546800947867  73.060308056872 89.691172985782  C 72.6837085308057 87.7386492890995  72.521481042654 85.7571563981043  72.5156872037915 83.7698696682465  C 72.9038744075829 82.5937203791469  73.10086492891 81.3654265402843  73.3731753554502 80.160308056872  C 64.7751184834123 76.0872393364929  56.0727725118483 72.234336492891  47.4515402843602 68.2018246445497  Z M 85.0535545023697 72.6804620853081  C 84.8160071090047 73.6132701421801  84.5726658767773 74.5460781990521  84.3351184834123 75.4788862559242  L 84.207654028436 75.4962677725119  C 83.7962914691943 76.9389336492891  83.326990521327 78.3642180094787  82.8750710900474 79.8010900473934  C 83.7499407582938 80.2182464454976  84.6248104265403 80.6411966824645  85.5054739336493 81.0525592417062  C 85.378009478673 80.7338981042654  85.1172867298578 80.0907819905213  84.9898222748815 79.7721208530806  C 85.9458056872038 79.2622630331753  86.8959952606635 78.7466113744076  87.823009478673 78.1846090047393  C 89.5090165876777 77.5646682464455  91.0675592417062 76.6550355450237  92.66086492891 75.8381042654028  C 93.3387440758294 75.4846800947867  94.0166232227488 75.125462085308  94.6945023696682 74.7662440758294  C 91.9192535545024 72.7673696682464  88.413981042654 71.9736137440758  85.0535545023697 72.6804620853081  Z M 81.7800355450237 74.0536018957346  C 80.4995971563981 75.1196682464455  78.7498578199052 76.0061255924171  78.2457938388626 77.6979265402844  C 78.8947037914692 78.0397630331753  79.5725829383886 78.346836492891  80.2388744075829 78.6597037914692  C 80.7777014218009 77.1301303317535  81.316528436019 75.6063507109005  81.7800355450237 74.0536018957346  Z M 78.3558767772512 82.3214099526066  C 77.5737085308057 82.0201303317536  76.7973341232228 81.7188507109005  76.0151658767772 81.42336492891  C 75.6791232227488 83.1846919431279  75.5400710900474 84.9749881516587  75.54586492891 86.7652843601896  C 76.5771682464455 85.3457938388626  77.4983886255924 83.8567772511848  78.3558767772512 82.3214099526066  Z M 99.0630568720379 82.5763388625593  C 98.4894668246445 82.8254739336493  97.9216706161137 83.0746090047393  97.3538744075829 83.3237440758294  L 97.3480805687204 83.4743838862559  C 96.4674170616114 83.8509834123223  95.5867535545024 84.2449644549763  94.7060900473934 84.6331516587678  L 94.6655331753554 84.8127606635071  C 92.5565758293839 85.7455687203791  90.5287322274881 86.852191943128  88.4545379146919 87.8661137440758  C 88.0779383886256 86.9448933649289  87.7071327014218 86.023672985782  87.3537085308057 85.0966587677725  C 85.0593483412322 86.1221682464455  83.0199170616114 84.3840165876777  80.9341350710901 83.6481990521327  C 80.0302962085308 85.143009478673  79.0743127962085 86.6088507109005  78.0140402843602 87.9935781990521  L 78.0603909952607 88.0804857819905  C 77.5273578199052 88.7757464454976  77.0001184834123 89.4768009478673  76.4728791469194 90.177855450237  C 77.753317535545 92.6518246445497  79.6015521327014 94.9461848341232  82.2203672985782 96.0759834123223  C 86.5831279620853 98.1907345971564  92.0930687203791 96.9045023696683  95.3723815165877 93.4224052132701  C 98.2055687203791 90.6065995260663  99.3469549763033 86.4987677725118  99.0630568720379 82.5763388625593  Z M 74.3117772511848 92.6865876777251  C 74.624644549763 92.9878672985782  74.624644549763 92.9878672985782  74.3117772511848 92.6865876777251  Z " fill-rule="nonzero" fill="#a3b1bf" stroke="none" transform="matrix(1 0 0 1 202 1886 )" />
  </g>
</svg>