<?xml version="1.0" encoding="utf-8"?>
<svg version="1.1" xmlns:xlink="http://www.w3.org/1999/xlink" width="29px" height="36px" xmlns="http://www.w3.org/2000/svg">
  <g transform="matrix(1 0 0 1 -463 -1286 )">
    <path d="M 0.170645161290309 15.5885923753665  C 0.231612903225795 11.7309970674487  1.22372434017595 7.71266862170086  3.93401759530792 4.83609970674485  C 7.46460410557185 0.751260997067448  13.4006451612903 -0.113372434017606  18.4665102639296 0.839941348973582  C 22.3518181818182 1.52721407624631  26.0043401759531 4.0823167155425  27.4620234604105 7.82351906158357  C 29.1912903225806 12.3462170087977  28.6093255131964 18.0383870967742  25.0510263929619 21.5412609970674  C 22.5735190615836 24.2016715542522  19.2590909090909 26.1581818181818  17.5076539589443 29.4393548387096  C 16.5044574780059 31.2129618768328  16.4545747800586 33.3024926686217  16.4324046920821 35.2922580645161  C 14.703137829912 35.2978005865102  12.9849560117302 35.2978005865102  11.2612316715542 35.286715542522  C 11.2834017595308 32.781495601173  11.3831671554252 30.1598826979472  12.6246920821114 27.9151612903226  C 14.7585630498533 23.9023753665689  18.7768914956011 21.4525806451613  21.5093548387097 17.9219941348973  C 24.4801466275659 14.1364516129032  23.2330791788856 7.55193548387095  18.5939882697947 5.71736070381229  C 14.8527859237537 4.34281524926686  9.85343108504398 4.80284457478004  7.37592375366566 8.25583577712609  C 5.72979472140761 10.3231964809384  5.39170087976538 13.0334897360704  5.24205278592376 15.5885923753665  C 3.54604105571846 15.5885923753665  1.85557184750732 15.5885923753665  0.170645161290309 15.5885923753665  Z " fill-rule="nonzero" fill="#ffffff" stroke="none" transform="matrix(1 0 0 1 463 1286 )" />
  </g>
</svg>