<?xml version="1.0" encoding="utf-8"?>
<svg version="1.1" xmlns:xlink="http://www.w3.org/1999/xlink" width="17px" height="16px" xmlns="http://www.w3.org/2000/svg">
  <g transform="matrix(1 0 0 1 -454 -835 )">
    <path d="M 3.21477611940298 13.8228358208955  C 0.889104477611937 11.7458208955223  0.494179104477581 8.3889552238806  1.1962686567164 5.49283582089555  C 2.64432835820895 2.79417910447762  5.37955223880596 0.592835820895516  8.5828358208955 0.724477611940301  C 12.9050746268657 0.709850746268671  16.605671641791 4.92238805970146  15.9913432835821 9.21537313432833  C 15.7207462686567 11.9725373134328  13.7241791044776 14.1958208955224  11.3985074626866 15.5268656716418  C 8.59014925373134 16.2435820895523  5.33567164179101 15.9876119402985  3.21477611940298 13.8228358208955  Z M 12.2249253731343 4.76149253731347  C 10.8207462686567 3.16716417910447  8.54626865671639 2.9038805970149  6.57164179104475 3.35731343283584  C 8.42925373134327 6.24611940298507  10.3380597014925 9.09835820895523  12.3126865671642 11.9140298507463  C 13.994776119403 9.88820895522389  14.1337313432836 6.68492537313432  12.2249253731343 4.76149253731347  Z " fill-rule="nonzero" fill="#a3b1bf" stroke="none" transform="matrix(1 0 0 1 454 835 )" />
  </g>
</svg>