<svg xmlns="http://www.w3.org/2000/svg" xmlns:xlink="http://www.w3.org/1999/xlink" width="8" height="9" version="1.1"><g><path fill="#a3b1bf" fill-rule="nonzero" stroke="none" d="M 0.244905213270158 6.90251184834122 C 0.239111374407599 5.54675355450236 0.239111374407599 4.18520142180094 0.244905213270158 2.82944312796208 C 1.42684834123222 2.1573578199052 2.60299763033177 1.48527251184833 3.79652843601897 0.824774881516579 C 4.94370853080571 1.50844786729857 6.10247630331756 2.18053317535544 7.26703791469197 2.85261848341231 C 7.26124407582941 4.1909952606635 7.26124407582941 5.53516587677724 7.26703791469197 6.87933649289099 C 6.10827014218012 7.5456279620853 4.94950236966827 8.21771327014217 3.80232227488153 8.90138625592416 C 2.60879146919433 8.24668246445496 1.42684834123222 7.57459715639809 0.244905213270158 6.90251184834122 Z M 3.71541469194315 1.91981042654028 C 2.86951421800947 2.40649289099525 2.0294075829384 2.88158767772511 1.18350710900475 3.36247630331752 C 1.18350710900475 4.37060426540283 1.19509478672987 5.3845260663507 1.22406398104266 6.39844786729856 C 2.06417061611376 6.8619549763033 2.90427725118482 7.33704976303316 3.74438388625592 7.81214454976302 C 4.60187203791469 7.33125592417061 5.45936018957346 6.84457345971563 6.31684834123223 6.35789099526065 C 6.32264218009482 5.35555687203791 6.31684834123223 4.35901658767771 6.31684834123223 3.35668246445497 C 5.44777251184834 2.87579383886255 4.58449052132704 2.39490521327013 3.71541469194315 1.91981042654028 Z" transform="matrix(1 0 0 1 -436 -1856 ) matrix(1 0 0 1 436 1856 )"/></g></svg>