<svg xmlns="http://www.w3.org/2000/svg" xmlns:xlink="http://www.w3.org/1999/xlink" width="453" height="161" version="1.1"><g><path fill="#a3b1bf" fill-rule="nonzero" stroke="none" d="M 214.650722748815 13.5604265402844 C 214.656516587678 11.2660663507109 214.540639810427 8.87900473933648 215.456066350711 6.72369668246444 C 216.921907582938 3.02143364928909 220.629964454976 0.327298578199041 224.62191943128 0.159277251184823 C 228.480616113744 0.00284360189572297 232.339312796209 0.147689573459703 236.203803317536 0.0897511848341113 C 239.36144549763 0.0491943127961969 242.797191943128 -0.072476303317548 245.514502369668 1.82790284360188 C 248.759052132701 3.82677725118482 250.410296208531 7.62174170616113 250.445059241706 11.3471800947867 C 252.223767772512 11.3413862559242 254.00827014218 11.3413862559242 255.792772511848 11.3413862559242 C 255.914443127962 8.4212914691943 256.766137440758 5.41428909952606 258.915651658768 3.32271327014217 C 261.09413507109 1.00517772511847 264.327097156398 -0.0319194312796327 267.45577014218 0.0897511848341113 C 272.484822274882 0.188246445497618 277.531255924171 -0.101445497630344 282.548720379147 0.25197867298577 C 287.908021327014 0.889300947867287 291.836244075829 6.05740521327013 291.668222748815 11.3413862559242 C 306.894431279621 11.3413862559242 322.120639810427 11.3355924170616 337.34105450237 11.3471800947867 C 337.416374407583 8.24747630331752 338.436090047393 5.06086492890994 340.817357819905 2.9634952606635 C 342.874170616114 0.987796208530794 345.747914691943 0.0434004739336373 348.575308056872 0.10133886255923 C 353.389988151659 0.118720379146907 358.216255924171 0.0260189573459595 363.030936018957 0.147689573459703 C 368.500319905213 0.263566350710889 373.222298578199 5.23468009478672 373.100627962085 10.6982701421801 C 373.118009478673 38.6998933649289 373.170154028436 66.7015165876777 373.077452606635 94.7031398104265 C 377.996421800948 85.6126066350711 386.449632701422 78.5383293838863 396.194869668246 75.1315521327014 C 405.650414691943 71.7885071090047 416.30528436019 71.9565284360189 425.644952606635 75.6066469194313 C 434.497938388626 79.0192180094786 442.116836492891 85.5025236966824 446.925722748815 93.671836492891 C 452.771706161137 103.422867298578 454.393981042654 115.549372037915 451.444917061611 126.511315165877 C 447.325497630332 142.612393364929 432.927808056872 155.816552132701 416.282109004739 157.630023696682 C 424.526741706161 157.954478672986 432.777168246446 157.687962085308 441.02759478673 157.798045023697 C 441.016007109005 158.730853080569 441.016007109005 159.663661137441 441.016007109005 160.596469194313 C 294.211718009479 160.596469194313 147.40163507109 160.596469194313 0.591552132701423 160.596469194313 C 0.585758293838865 159.675248815166 0.579964454976299 158.748234597156 0.579964454976299 157.832808056872 C 5.70751184834123 157.525734597156 10.8466469194313 157.548909952607 15.9741943127962 157.780663507109 C 122.772026066351 157.792251184834 229.564063981043 157.763281990521 336.361895734597 157.780663507109 C 358.888341232228 157.67058056872 381.414786729858 157.960272511848 403.941232227488 157.658992890995 C 391.038353080569 155.972985781991 379.300035545024 147.664620853081 373.083246445498 136.279727488152 C 373.118009478673 139.970402843602 373.193329383886 143.661078199052 373.06586492891 147.34595971564 C 372.903637440758 152.600971563981 368.245390995261 157.195485781991 362.996172985782 157.282393364929 C 358.001883886256 157.35191943128 353.00759478673 157.293981042654 348.019099526066 157.299774881517 C 343.667926540284 157.369300947867 339.484774881517 154.437618483412 338.071078199052 150.323992890995 C 337.538045023697 148.939265402844 337.491694312796 147.432867298578 337.346848341232 145.972819905213 C 322.120639810427 145.984407582938 306.894431279621 145.984407582938 291.674016587678 145.978613744076 C 291.685604265403 149.756196682464 290.005390995261 153.620687203791 286.697109004739 155.6311492891 C 283.249774881517 157.995035545024 278.892808056872 157.166516587678 274.970379146919 157.299774881517 C 271.308672985782 157.178104265403 267.600616113744 157.630023696682 263.973672985782 157.004289099526 C 258.996765402844 155.90345971564 255.665308056872 150.955521327014 255.786978672986 145.972819905213 C 254.002476303318 145.984407582938 252.223767772512 145.984407582938 250.439265402844 145.972819905213 C 250.375533175355 149.026172985782 249.431137440758 152.183815165877 247.136777251185 154.310154028436 C 245.016232227488 156.42490521327 241.997642180095 157.438827014218 239.031196682464 157.322950236967 C 234.204928909953 157.265011848341 229.372867298578 157.415651658768 224.546599526066 157.259218009479 C 219.169917061611 157.068021327014 214.581196682464 152.149052132701 214.679691943128 146.778163507109 C 214.627547393365 102.374182464455 214.685485781991 57.9644075829384 214.650722748815 13.5604265402844 Z M 239.060165876777 1.97274881516586 C 233.892061611374 2.07124407582937 228.700781990521 1.7120260663507 223.550059241706 2.18712085308056 C 219.349526066351 2.89976303317534 216.284585308057 7.03656398104264 216.539514218009 11.2486848341232 C 216.533720379147 56.2552251184834 216.527926540284 101.261765402844 216.545308056872 146.268305687204 C 216.307760663507 150.463045023697 219.395876777251 154.565082938389 223.584822274882 155.254549763033 C 226.777227488152 155.683293838863 230.01018957346 155.387808056872 233.219976303318 155.463127962085 C 235.91990521327 155.42836492891 238.631421800948 155.6311492891 241.319763033175 155.277725118483 C 244.911943127962 154.715722748815 247.942120853081 151.598637440758 248.336101895735 147.971694312796 C 248.648969194313 145.271765402844 248.451978672986 142.554454976303 248.486741706161 139.848732227488 C 248.498329383886 98.3358767772512 248.475154028436 56.8288151658768 248.498329383886 15.3159597156398 C 248.440390995261 12.0887914691943 248.932867298578 8.46184834123222 246.887642180095 5.6923933649289 C 245.166872037915 3.15469194312795 242.072962085308 1.86266587677724 239.060165876777 1.97274881516586 Z M 279.593862559242 1.95536729857819 C 274.640130331754 2.10600710900473 269.65163507109 1.6830568720379 264.71528436019 2.20450236966823 C 260.537926540284 2.92873222748814 257.513542654028 7.06553317535544 257.768471563981 11.2544786729858 C 257.768471563981 56.2494312796209 257.762677725119 101.250177725118 257.768471563981 146.250924170616 C 257.507748815166 150.549952606635 260.787061611374 154.756279620853 265.097677725119 155.295106635071 C 268.95058056872 155.683293838863 272.838246445498 155.353045023697 276.702736966825 155.47471563981 C 279.732914691943 155.416777251185 283.093341232227 155.851315165877 285.735331753555 154.043637440758 C 288.359940758294 152.380805687204 289.808400473934 149.298483412322 289.70990521327 146.227748815166 C 289.73308056872 102.391563981043 289.692523696682 58.561172985782 289.727286729858 14.7307819905213 C 289.721492890995 11.5557582938389 290.045947867299 7.96937203791468 287.867464454976 5.36214454976302 C 285.978672985782 2.78388625592416 282.681978672986 1.78734597156397 279.593862559242 1.95536729857819 Z M 357.845450236967 1.96695497630331 C 353.870876777251 2.11759478672985 349.849952606635 1.64249999999999 345.904348341232 2.26823459715639 C 342.97845971564 2.9634952606635 340.521872037915 5.30420616113743 339.687559241706 8.18374407582937 C 339.073412322275 10.7040639810426 339.322547393365 13.3228791469194 339.28778436019 15.8895497630332 C 339.293578199052 59.1637322274881 339.299372037915 102.432120853081 339.281990521327 145.700509478673 C 339.258815165877 147.913755924171 339.664383886256 150.231291469194 341.083874407583 151.998412322275 C 342.787263033175 154.327535545024 345.689976303318 155.521066350711 348.534751184834 155.45154028436 C 353.169822274882 155.463127962085 357.810687203791 155.509478672986 362.451552132701 155.434158767773 C 366.165402843602 155.480509478673 369.769170616114 152.96018957346 370.817855450237 149.368009478673 C 371.507322274882 146.639111374408 371.194454976303 143.788542654028 371.246599526066 141.0075 C 371.11913507109 137.56595971564 371.750663507109 133.973779620853 370.476018957346 130.677085308057 C 366.744786729858 121.053518957346 366.721611374408 110.033637440758 370.429668246445 100.398483412322 C 371.559466824645 97.6695853080569 371.235011848341 94.6683767772512 371.252393364929 91.7946327014218 C 371.235011848341 64.9401895734597 371.263981042654 38.0857464454976 371.240805687204 11.2313033175355 C 371.34509478673 8.18953791469193 369.931398104265 5.12459715639809 367.347345971564 3.45597156398103 C 364.577890995261 1.51503554502368 361.032061611374 2.03068720379146 357.845450236967 1.96695497630331 Z M 255.833329383886 13.1954146919431 C 254.002476303318 13.2127962085308 252.177417061611 13.2185900473934 250.358151658768 13.2301777251185 C 250.369739336493 56.851990521327 250.358151658768 100.479597156398 250.36394549763 144.107203791469 C 252.206386255924 144.101409952607 254.048827014218 144.101409952607 255.891267772512 144.101409952607 C 255.850710900474 100.468009478673 255.966587677725 56.8288151658768 255.833329383886 13.1954146919431 Z M 337.416374407583 13.2127962085308 C 322.138021327014 13.2301777251185 306.865462085308 13.1954146919431 291.587109004739 13.2301777251185 C 291.604490521327 56.8577843601896 291.587109004739 100.479597156398 291.592902843602 144.101409952607 C 306.871255924171 144.101409952607 322.149609004739 144.118791469194 337.427962085308 144.095616113744 C 337.404786729858 100.468009478673 337.427962085308 56.8404028436019 337.416374407583 13.2127962085308 Z M 427.133969194313 79.2973222748815 C 420.447879146919 76.1570616113744 412.881125592417 74.9693246445498 405.55191943128 75.8268127962085 C 394.862286729858 77.043518957346 384.862120853081 82.8779146919431 378.448341232228 91.5049407582938 C 371.831777251185 100.207286729858 369.160817535545 111.719644549763 371.09595971564 122.461421800948 C 372.602357819905 131.1811492891 377.138933649289 139.327286729858 383.738116113744 145.219620853081 C 390.847156398104 151.644988151659 400.360639810427 155.40518957346 409.961030805687 155.387808056872 C 418.373684834123 155.526860189573 426.768957345972 152.768992890995 433.570924170616 147.850023696682 C 440.656789099526 142.693507109005 446.056646919431 135.184691943128 448.455296208531 126.737274881517 C 450.865533175355 118.585343601896 450.570047393365 109.662831753554 447.626777251185 101.68471563981 C 444.092535545024 91.9163033175355 436.531575829384 83.7006398104265 427.133969194313 79.2973222748815 Z" transform="matrix(1 0 0 1 -237 -1834 ) matrix(1 0 0 1 237 1834 )"/></g></svg>