<?xml version="1.0" encoding="utf-8"?>
<svg version="1.1" xmlns:xlink="http://www.w3.org/1999/xlink" width="6px" height="6px" xmlns="http://www.w3.org/2000/svg">
  <g transform="matrix(1 0 0 1 -499 -1843 )">
    <path d="M 1.4754028436019 4.42137440758293  C 0.270284360189578 3.23363744075828  1.13356635071096 0.945071090047383  2.77901658767769 0.72490521327013  C 4.40708530805688 0.342511848341221  6.04674170616113 2.22550947867297  5.27036729857821 3.77825829383885  C 4.68518957345975 5.27886255924169  2.50670616113746 5.67863744075828  1.4754028436019 4.42137440758293  Z M 3.94357819905213 1.83732227488151  C 3.25411137440761 1.84311611374407  2.56464454976305 1.93002369668245  1.88676540284359 1.99375592417061  C 1.93890995260665 2.46885071090046  2.03740521327012 3.42483412322274  2.08954976303318 3.8999289099526  C 2.8659241706161 3.91731042654027  3.6480924170616 3.93469194312795  4.43026066350711 3.95207345971563  C 4.28541469194312 3.23943127962084  4.12318720379147 2.53258293838861  3.94357819905213 1.83732227488151  Z " fill-rule="nonzero" fill="#b4bfcb" stroke="none" transform="matrix(1 0 0 1 499 1843 )" />
  </g>
</svg>