<svg xmlns="http://www.w3.org/2000/svg" xmlns:xlink="http://www.w3.org/1999/xlink" width="5" height="5" version="1.1"><g><path fill="#b0bcc8" fill-rule="nonzero" stroke="none" d="M 1.51958530805689 4.25030805687203 C -0.149040284360183 3.47972748815165 0.100094786729869 0.716066350710889 1.84983412322276 0.200414691943116 C 3.22876777251184 -0.338412322274891 4.8858056872038 0.808767772511843 4.81627962085309 2.30937203791468 C 4.89739336492892 3.93164691943127 2.89272511848344 5.11938388625592 1.51958530805689 4.25030805687203 Z M 3.6169549763033 1.11584123222748 C 3.11289099526067 1.13901658767772 2.09896919431282 1.1969549763033 1.58911137440759 1.22013033175354 C 1.57752369668248 1.93856635071089 1.57172985781995 2.66279620853079 1.57172985781995 3.38123222748814 C 2.07579383886258 3.4159952606635 3.08392180094791 3.47972748815165 3.58219194312801 3.514490521327 C 3.59957345971566 2.71494075829383 3.61116113744077 1.91539099526065 3.6169549763033 1.11584123222748 Z" transform="matrix(1 0 0 1 -508 -1869 ) matrix(1 0 0 1 508 1869 )"/></g></svg>