<svg xmlns="http://www.w3.org/2000/svg" xmlns:xlink="http://www.w3.org/1999/xlink" width="6" height="6" version="1.1"><g><path fill="#b1bdc9" fill-rule="nonzero" stroke="none" d="M 1.7959834123223 4.9370260663507 C 0.399668246445515 4.32287914691942 0.173708530805698 2.32979857819904 1.26295023696684 1.32167061611373 C 2.35219194312799 0.19766587677724 4.66972748815169 0.74228672985781 4.94783175355451 2.37035545023696 C 5.60253554502373 4.13747630331752 3.37770142180096 5.84086492890994 1.7959834123223 4.9370260663507 Z M 4.03819905213271 1.97058056872037 C 3.2038862559242 1.97637440758293 2.37536729857823 1.98216824644549 1.54684834123225 1.99375592417061 C 1.59319905213272 2.46885071090046 1.68590047393366 3.41904028436018 1.73225118483413 3.89413507109004 C 2.42751184834123 3.91151658767771 3.12856635071091 3.92889810426539 3.8296208530806 3.94627962085307 C 3.8817654028436 3.45380331753553 3.98605450236965 2.4630568720379 4.03819905213271 1.97058056872037 Z" transform="matrix(1 0 0 1 -475 -1843 ) matrix(1 0 0 1 475 1843 )"/></g></svg>