<svg xmlns="http://www.w3.org/2000/svg" xmlns:xlink="http://www.w3.org/1999/xlink" width="6" height="5" version="1.1"><g><path fill="#b1bdc9" fill-rule="nonzero" stroke="none" d="M 1.55585308056874 4.09645734597155 C 0.37970379146924 3.27373222748814 0.373909952606653 1.25747630331753 1.57902843601897 0.457926540284348 C 3.04486966824646 -0.596552132701433 5.46090047393363 0.631741706161122 5.06112559241706 2.53791469194312 C 5.04374407582935 4.27606635071089 2.83629146919435 5.01188388625591 1.55585308056874 4.09645734597155 Z M 4.13990521327014 2.17290284360189 C 3.72854265402844 1.66304502369667 3.2824170616114 1.19374407582938 2.84208530805688 0.718649289099517 C 2.33222748815166 1.22850710900472 1.82236966824649 1.73836492890995 1.3183056872038 2.24822274881516 C 1.86292654028438 2.72911137440757 2.34960900473936 3.3084952606635 3.03328199052135 3.60398104265402 C 3.60107819905215 3.32008293838862 4.0298222748815 2.8102251184834 4.13990521327014 2.17290284360189 Z" transform="matrix(1 0 0 1 -459 -1885 ) matrix(1 0 0 1 459 1885 )"/></g></svg>