<svg xmlns="http://www.w3.org/2000/svg" xmlns:xlink="http://www.w3.org/1999/xlink" width="5" height="5" version="1.1"><g><path fill="#acb9c5" fill-rule="nonzero" stroke="none" d="M 1.02990521327018 4.05911137440758 C -0.37799763033172 3.10892180094786 0.0159834123222709 0.623364928909943 1.68460900473934 0.206208530805675 C 3.02298578199054 -0.29785545023698 4.70319905213273 0.849324644549753 4.56414691943127 2.3209597156398 C 4.7495497630332 4.08808056872037 2.32193127962086 5.20049763033175 1.02990521327018 4.05911137440758 Z M 3.44593601895735 1.14481042654027 C 2.90710900473931 1.15060426540283 1.83524881516587 1.16219194312796 1.29642180094788 1.16798578199051 C 1.308009478673 1.93856635071089 1.3253909952607 2.70914691943128 1.34277251184835 3.47972748815165 C 1.8584241706161 3.47972748815165 2.89552132701419 3.47393364928909 3.411172985782 3.47393364928909 C 3.42276066350712 2.69755924170615 3.43434834123224 1.92118483412321 3.44593601895735 1.14481042654027 Z" transform="matrix(1 0 0 1 -467 -1869 ) matrix(1 0 0 1 467 1869 )"/></g></svg>