<svg xmlns="http://www.w3.org/2000/svg" xmlns:xlink="http://www.w3.org/1999/xlink" width="33" height="155" version="1.1"><g><path fill="#f0f2f5" fill-rule="nonzero" stroke="none" d="M 0.687559241706197 7.18374407582937 C 1.5218720379147 4.30420616113743 3.97845971563981 1.9634952606635 6.90434834123221 1.26823459715639 C 10.8499526066351 0.642499999999988 14.8708767772512 1.11759478672985 18.8454502369668 0.966954976303306 C 22.0320616113744 1.03068720379146 25.5778909952606 0.515035545023685 28.347345971564 2.45597156398103 C 30.9313981042654 4.12459715639809 32.3450947867299 7.18953791469193 32.2408056872038 10.2313033175355 C 32.2639810426541 37.0857464454976 32.2350118483412 63.9401895734597 32.2523933649289 90.7946327014218 C 32.2350118483412 93.6683767772512 32.5594668246446 96.6695853080569 31.4296682464455 99.3984834123223 C 27.7216113744076 109.033637440758 27.7447867298578 120.053518957346 31.476018957346 129.677085308057 C 32.750663507109 132.973779620853 32.1191350710901 136.56595971564 32.2465995260663 140.0075 C 32.1944549763033 142.788542654028 32.5073222748815 145.639111374408 31.8178554502369 148.368009478673 C 30.7691706161137 151.96018957346 27.1654028436019 154.480509478673 23.4515521327015 154.434158767773 C 18.8106872037915 154.509478672986 14.1698222748815 154.463127962085 9.53475118483414 154.45154028436 C 6.68997630331751 154.521066350711 3.78726303317535 153.327535545024 2.08387440758298 150.998412322275 C 0.664383886255905 149.231291469194 0.258815165876797 146.913755924171 0.281990521327032 144.700509478673 C 0.299372037914679 101.432120853081 0.293578199052149 58.1637322274881 0.287784360189562 14.8895497630332 C 0.322547393364971 12.3228791469194 0.0734123222748622 9.70406398104264 0.687559241706197 7.18374407582937 Z M 9.58689573459714 11.986836492891 C 10.5197037914692 10.5557582938388 9.15815165876779 8.49315165876776 7.4779383886256 8.74808056872037 C 6.04686018957352 8.86975118483411 5.07349526066349 10.4978199052133 5.70502369668247 11.8014336492891 C 6.29020142180099 13.3889454976303 8.90322274881515 13.5685545023697 9.58689573459714 11.986836492891 Z M 26.7250710900474 10.4051184834123 C 26.4295853080569 8.77704976303316 24.2279265402844 8.21504739336492 23.0343957345972 9.25214454976302 C 21.8582464454976 10.2602725118483 22.1884952606635 12.3402606635071 23.5963981042654 12.9717890995261 C 25.1839099526067 13.8176895734597 27.2986611374408 12.1432701421801 26.7250710900474 10.4051184834123 Z M 17.935817535545 16.9173933649289 C 19.0192654028436 15.5558412322275 17.8720853080569 13.2209241706161 16.0759952606635 13.406327014218 C 14.7202369668246 13.3773578199052 13.6309952606635 14.7099407582938 13.9728317535545 16.0309360189573 C 14.0945023696682 17.9660781990521 16.9740402843602 18.493317535545 17.935817535545 16.9173933649289 Z M 9.83603080568724 21.8363625592417 C 10.3690639810426 20.1677369668246 8.50344786729863 18.4875236966825 6.90434834123221 19.1654028436019 C 5.52541469194313 19.6057345971564 4.99238151658767 21.4713507109005 5.8730450236967 22.6011492890995 C 6.85220379146921 24.0843720379147 9.51736966824649 23.6324526066351 9.83603080568724 21.8363625592417 Z M 26.7134834123223 21.6625473933649 C 27.0958767772512 20.0170971563981 25.2070853080569 18.5570497630332 23.7006872037915 19.2465165876777 C 22.286990521327 19.8143127962085 21.945154028436 21.8421563981043 23.0401895734597 22.8676658767772 C 24.1989573459716 24.0206398104265 26.493317535545 23.331172985782 26.7134834123223 21.6625473933649 Z M 18.3297985781991 25.8862559241706 C 18.4340876777251 24.4551777251185 16.8465758293839 23.4644312796208 15.5603436018957 23.8352369668246 C 13.6599644549763 24.1770734597156 13.3586848341233 27.0739928909953 15.0504857819905 27.9083056872038 C 16.4004502369669 28.8469075829384 18.567345971564 27.5317061611374 18.3297985781991 25.8862559241706 Z M 9.76650473933648 32.4448815165877 C 10.5834360189573 30.7299052132701 8.54979857819905 28.6267417061611 6.81744075829386 29.5247867298578 C 5.50223933649289 30.0636137440758 5.00396919431279 31.8712914691943 5.89622037914694 32.9895023696682 C 6.86379146919433 34.333672985782 9.20450236966826 33.9860426540284 9.76650473933648 32.4448815165877 Z M 26.7424526066351 31.5931872037915 C 26.8525355450237 30.0404383886256 25.0274763033175 28.9743720379147 23.6659241706161 29.6059004739336 C 22.0784123222749 30.2084597156398 21.9277725118483 32.7577488151659 23.4863151658768 33.4819786729858 C 24.8304857819905 34.3800236966825 26.8409478672986 33.2038744075829 26.7424526066351 31.5931872037915 Z M 18.3240047393365 36.291990521327 C 18.4920260663507 34.8435308056872 16.7828436018958 33.6963507109005 15.4850236966825 34.1830331753554 C 13.6136137440758 34.6117772511848 13.3818601895735 37.5376658767772 15.1431872037915 38.2792772511848 C 16.4989454976304 39.0846208530806 18.5036137440759 37.908471563981 18.3240047393365 36.291990521327 Z M 9.91135071090048 41.6918483412322 C 9.79547393364925 40.156481042654 8.11526066350712 39.368518957346 6.75370853080568 39.8609952606635 C 5.38056872037913 40.5736374407583 4.93444312796208 42.6594194312796 6.24385071090046 43.6501658767772 C 7.6401658767773 44.9595734597156 10.2763625592417 43.6096090047393 9.91135071090048 41.6918483412322 Z M 26.8003909952607 41.575971563981 C 26.6265758293839 40.0869549763033 24.8420734597157 39.2989928909953 23.5558412322275 39.9363151658768 C 21.9683293838862 40.6663388625592 21.893009478673 43.0765758293839 23.4515521327015 43.876125592417 C 24.969537914692 44.9248104265403 27.124845971564 43.3315047393365 26.8003909952607 41.575971563981 Z M 18.3066232227488 46.7498696682464 C 18.5963151658768 45.2666469194313 16.7712559241706 43.9804146919431 15.438672985782 44.5366232227488 C 13.7526658767773 44.994336492891 13.3760663507109 47.5088625592417 14.8129383886256 48.4590521327014 C 16.1049644549763 49.4787677725118 18.4340876777251 48.4880213270142 18.3066232227488 46.7498696682464 Z M 9.85341232227489 52.7059360189573 C 10.2995379146919 50.9388151658768 8.3180450236967 49.5425 6.7131516587678 50.2435545023697 C 5.51382701421801 50.9272274881517 5.00976303317537 52.6537914691943 6.000509478673 53.7256516587678 C 7.09554502369667 55.0814099526066 9.66221563981048 54.5309952606635 9.85341232227489 52.7059360189573 Z M 26.7018957345972 52.8913388625592 C 27.321836492891 51.0952488151659 25.1897037914692 49.4266232227488 23.5500473933649 50.2956990521327 C 22.3507227488152 50.909845971564 21.8756279620853 52.6479976303317 22.8605805687204 53.6677132701422 C 23.8687085308057 55.0466469194313 26.3310900473934 54.6063151658768 26.7018957345972 52.8913388625592 Z M 18.3066232227488 57.1961611374408 C 18.6658412322275 55.4000710900474 16.3656872037915 54.1080450236967 14.9230213270142 55.0987914691943 C 13.4166232227488 55.944691943128 13.6599644549763 58.6562085308057 15.386528436019 59.0849526066351 C 16.661172985782 59.5484597156398 18.3645616113744 58.6620023696682 18.3066232227488 57.1961611374408 Z M 9.73174170616113 61.7790876777251 C 9.31458530805691 60.3885663507109 7.31571090047396 60.0235545023696 6.29599526066352 60.9158056872038 C 4.63316350710903 62.0977488151659 5.74558056872036 65.1047511848341 7.79659952606636 64.7976777251185 C 9.30299763033179 64.8787914691943 10.3632701421801 63.1000829383886 9.73174170616113 61.7790876777251 Z M 26.5570497630332 61.6516232227488 C 26.0124289099526 60.3132464454976 24.1120497630332 60.0467298578199 23.0807464454977 60.9563625592417 C 21.5222037914692 62.2078317535545 22.6114454976303 65.0641943127962 24.6450829383886 64.8092654028436 C 26.2210071090047 64.9193483412322 27.321836492891 62.99 26.5570497630332 61.6516232227488 Z M 18.3066232227488 67.642452606635 C 18.6368720379147 65.8347748815166 16.4468009478673 64.4848104265403 14.9577843601896 65.4813507109005 C 13.9322748815165 66.1244668246445 13.5846445497631 67.6076895734597 14.3494312796208 68.5868483412322 C 15.3343838862559 70.1859478672986 18.1270142180094 69.5196563981042 18.3066232227488 67.642452606635 Z M 21.5627606635071 136.58913507109 C 21.1861611374408 133.570545023697 17.738827014218 131.548495260664 14.9114336492891 132.660912322275 C 12.651836492891 133.41990521327 11.1859952606636 135.928637440758 11.678471563981 138.275142180095 C 12.0666587677725 140.77808056872 14.6159478672986 142.65528436019 17.1246800947868 142.330829383886 C 19.882547393365 142.128045023697 22.0784123222749 139.323827014218 21.5627606635071 136.58913507109 Z" transform="matrix(1 0 0 1 -576 -1835 ) matrix(1 0 0 1 576 1835 )"/></g></svg>