<svg xmlns="http://www.w3.org/2000/svg" xmlns:xlink="http://www.w3.org/1999/xlink" width="5" height="6" version="1.1"><g><path fill="#b3bfca" fill-rule="nonzero" stroke="none" d="M 1.45155213270147 4.87612559241705 C -0.10699052132702 4.07657582938388 -0.0316706161137859 1.66633886255924 1.55584123222746 0.936315165876771 C 2.84207345971566 0.298992890995251 4.62657582938391 1.08695497630331 4.80039099526067 2.57597156398103 C 5.12484597156401 4.33150473933648 2.96953791469195 5.92481042654028 1.45155213270147 4.87612559241705 Z M 3.64741706161135 1.9560308056872 C 2.93477488151655 1.94444312796207 2.22213270142186 1.93285545023696 1.52107819905217 1.92126777251184 C 1.48631516587676 2.42533175355449 1.42837677725123 3.44504739336492 1.39361374407582 3.95490521327013 C 2.19895734597156 3.94331753554501 3.01009478672984 3.92014218009478 3.82123222748817 3.89696682464454 C 3.78067535545023 3.41028436018956 3.69376777251188 2.44271327014216 3.64741706161135 1.9560308056872 Z" transform="matrix(1 0 0 1 -598 -1874 ) matrix(1 0 0 1 598 1874 )"/></g></svg>