<svg xmlns="http://www.w3.org/2000/svg" xmlns:xlink="http://www.w3.org/1999/xlink" width="8" height="9" version="1.1"><g><path fill="#a3b1bf" fill-rule="nonzero" stroke="none" d="M 0.529964454976323 6.21377962085307 C 0.518376777251206 4.86381516587679 0.518376777251206 3.51385071090047 0.518376777251206 2.16968009478671 C 1.64817535545023 1.50338862559244 2.77797393364932 0.831303317535543 3.90197867298576 0.147630331753533 C 5.10709715639808 0.767571090047397 6.30642180094787 1.42227488151661 7.50574644549761 2.07118483412324 C 7.53471563981049 3.43273696682465 7.54630331753555 4.80008293838864 7.55789099526066 6.16742890995263 C 6.39912322274881 6.84530805687203 5.24035545023696 7.52318720379148 4.0873815165877 8.21265402843602 C 2.89385071090049 7.55215639810427 1.71190758293841 6.88007109004738 0.529964454976323 6.21377962085307 Z M 4.07000000000005 1.219490521327 C 3.21251184834125 1.68299763033176 2.36081753554504 2.14650473933651 1.51491706161136 2.61001184834123 C 1.47436018957347 3.61813981042653 1.45118483412324 4.62047393364929 1.43380331753553 5.63439573459715 C 2.30867298578198 6.13266587677725 3.18933649289102 6.63672985781992 4.07579383886258 7.13499999999999 C 4.91010663507109 6.63093601895733 5.75600710900477 6.13845971563981 6.60770142180098 5.64598341232227 C 6.60770142180098 4.6610308056872 6.60770142180098 3.6818720379147 6.61349526066351 2.70271327014217 C 5.7618009478673 2.21023696682462 4.91590047393362 1.71196682464458 4.07000000000005 1.219490521327 Z" transform="matrix(1 0 0 1 -506 -2040 ) matrix(1 0 0 1 506 2040 )"/></g></svg>