<svg xmlns="http://www.w3.org/2000/svg" xmlns:xlink="http://www.w3.org/1999/xlink" width="5" height="5" version="1.1"><g><path fill="#95a1ac" fill-rule="nonzero" stroke="none" d="M 1.14148104265405 4.46383886255924 C -0.417061611374379 3.59476303317535 -0.121575829383858 0.981741706161131 1.6049881516588 0.518234597156379 C 3.140355450237 -0.107500000000016 4.99438388625595 1.50898104265403 4.47873222748819 3.11966824644549 C 4.22380331753556 4.53336492890995 2.29445497630331 5.40823459715639 1.14148104265405 4.46383886255924 Z M 1.79039099526062 1.07444312796207 C 1.04298578199052 1.81026066350711 1.10092417061611 2.87632701421802 0.961872037914702 3.83231042654029 C 1.50069905213269 3.84969194312797 2.57255924170613 3.89024881516588 3.11138625592417 3.90763033175355 C 3.35472748815164 3.51364928909953 3.85299763033174 2.71989336492891 4.09633886255921 2.32591232227489 C 3.36631516587676 1.84502369668246 2.65946682464454 1.25984597156398 1.79039099526062 1.07444312796207 Z" transform="matrix(1 0 0 1 -557 -1958 ) matrix(1 0 0 1 557 1958 )"/></g></svg>