<svg xmlns="http://www.w3.org/2000/svg" xmlns:xlink="http://www.w3.org/1999/xlink" width="5" height="5" version="1.1"><g><path fill="#afbbc8" fill-rule="nonzero" stroke="none" d="M 2.64508293838861 4.80926540284359 C 0.611445497630314 5.06419431279619 -0.477796208530833 2.20783175355449 1.08074644549765 0.956362559241697 C 2.11204976303316 0.0467298578198836 4.01242890995258 0.313246445497612 4.55704976303321 1.6516232227488 C 5.32183649289101 2.98999999999998 4.22100710900475 4.91934834123221 2.64508293838861 4.80926540284359 Z M 3.79805687203788 1.6516232227488 C 2.99850710900472 1.622654028436 2.20475118483409 1.59947867298577 1.41099526066347 1.58209715639809 C 1.42258293838864 2.10933649289098 1.45155213270147 3.17540284360187 1.46893364928911 3.70843601895733 C 2.20475118483409 3.69684834123221 2.94056872037913 3.69105450236965 3.68797393364929 3.67946682464454 C 3.71694312796205 3.16960900473931 3.7748815165877 2.16148104265402 3.79805687203788 1.6516232227488 Z" transform="matrix(1 0 0 1 -598 -1895 ) matrix(1 0 0 1 598 1895 )"/></g></svg>