<svg xmlns="http://www.w3.org/2000/svg" xmlns:xlink="http://www.w3.org/1999/xlink" width="441" height="52" version="1.1"><g><path fill="#a3b1bf" fill-rule="nonzero" stroke="none" d="M 8.71451421800948 7.6083056872038 C 5.73648104265403 5.331327014218 2.84535545023697 2.90950236966825 0.232334123222749 0.209573459715642 C 17.8513981042654 -0.0221800947867337 35.4762559241706 0.180604265402849 53.0953199052133 0.111078199052145 C 167.430936018957 0.116872037914675 281.766552132701 0.111078199052145 396.102168246446 0.116872037914675 C 410.824312796209 0.192191943127966 425.552251184834 -0.0395616113744097 440.268601895735 0.232748815165877 C 433.536161137441 5.52831753554503 426.201161137441 10.0011611374408 418.848779620853 14.3813033175356 C 400.378021327014 25.2041943127962 380.731113744076 34.0571800947867 360.313625592417 40.5231042654029 C 335.979502369668 48.2173222748815 310.393909952607 52.3367417061611 284.84308056872 51.340201421801 C 259.6225 50.3610426540284 234.384537914692 48.3447867298578 209.52317535545 43.8719431279621 C 196.365367298578 41.4501184834123 183.340817535545 38.2345379146919 170.692867298578 33.8486018957346 C 162.691575829384 31.1776421800948 154.945213270142 27.823009478673 146.972890995261 25.0709360189573 C 132.95759478673 20.5980924170616 118.229656398104 18.8657345971564 103.59441943128 18.0314218009479 C 90.9812322274882 17.4752132701422 78.298518957346 17.7301421800948 65.7896208530806 19.514644549763 C 58.8312203791469 20.3721327014218 52.0176658767773 22.6664928909953 44.9375947867299 22.2435426540284 C 31.6233530805687 21.6467772511849 19.1897748815166 15.5400710900474 8.71451421800948 7.6083056872038 Z M 272.901978672986 38.1476303317535 C 271.777973933649 38.8313033175355 270.64817535545 39.5033886255924 269.518376777251 40.1696800947867 C 269.518376777251 41.5138507109005 269.518376777251 42.8638151658768 269.529964454976 44.2137796208531 C 270.711907582938 44.8800710900474 271.8938507109 45.5521563981043 273.087381516588 46.212654028436 C 274.240355450237 45.5231872037915 275.399123222749 44.845308056872 276.557890995261 44.1674289099526 C 276.546303317536 42.8000829383886 276.53471563981 41.4327369668246 276.505746445498 40.0711848341232 C 275.306421800948 39.4222748815166 274.107097156398 38.7675710900474 272.901978672986 38.1476303317535 Z" transform="matrix(1 0 0 1 -237 -2002 ) matrix(1 0 0 1 237 2002 )"/></g></svg>