<svg xmlns="http://www.w3.org/2000/svg" xmlns:xlink="http://www.w3.org/1999/xlink" width="5" height="5" version="1.1"><g><path fill="#aebac7" fill-rule="nonzero" stroke="none" d="M 0.860580568720422 3.66771327014217 C -0.124372037914668 2.64799763033174 0.350722748815201 0.909845971563968 1.55004739336493 0.29569905213269 C 3.18970379146919 -0.573376777251198 5.32183649289101 1.09524881516587 4.7018957345972 2.89133886255923 C 4.33109004739339 4.60631516587677 1.86870853080569 5.04664691943127 0.860580568720422 3.66771327014217 Z M 3.70535545023699 1.22850710900472 C 2.95215639810431 1.22271327014217 2.20475118483409 1.21691943127961 1.457345971564 1.21691943127961 C 1.44575829383888 1.74995260663506 1.42837677725123 2.8102251184834 1.41678909952606 3.33746445497629 C 2.19895734597156 3.32587677725117 2.9869194312796 3.31428909952606 3.7748815165877 3.29690758293838 C 3.75750000000005 2.78125592417061 3.72273696682464 1.7441587677725 3.70535545023699 1.22850710900472 Z" transform="matrix(1 0 0 1 -598 -1885 ) matrix(1 0 0 1 598 1885 )"/></g></svg>