<svg xmlns="http://www.w3.org/2000/svg" xmlns:xlink="http://www.w3.org/1999/xlink" width="20" height="13" version="1.1"><g><path fill="#41474c" fill-rule="nonzero" stroke="none" d="M 0.0603909952606614 5.08048578199052 L 0.0140402843601919 4.99357819905214 C 1.07431279620853 3.60885071090047 2.0302962085308 2.14300947867298 2.93413507109005 0.648199052132696 C 3.11953791469195 3.01787914691943 3.22962085308056 5.72939573459715 5.13579383886257 7.44437203791469 C 7.45912322274881 9.79087677725119 11.5206042654028 9.72714454976301 13.9134597156398 7.52548578199051 C 15.6400236966825 6.12337677725117 16.1556753554502 3.85798578199052 16.6655331753554 1.81276066350711 L 16.7060900473934 1.63315165876776 C 17.5867535545024 1.2449644549763 18.4674170616114 0.850983412322279 19.3480805687204 0.474383886255907 C 19.313317535545 1.72585308056873 19.3249052132701 2.98890995260663 19.116327014218 4.22879146919431 C 18.1024052132701 9.7039691943128 11.9725236966825 13.7828317535545 6.57266587677725 11.8824526066351 C 3.30494075829385 10.9844075829384 1.45670616113743 7.93105450236968 0.0603909952606614 5.08048578199052 Z" transform="matrix(1 0 0 1 -280 -1969 ) matrix(1 0 0 1 280 1969 )"/></g></svg>