<svg xmlns="http://www.w3.org/2000/svg" xmlns:xlink="http://www.w3.org/1999/xlink" width="6" height="5" version="1.1"><g><path fill="#aebbc7" fill-rule="nonzero" stroke="none" d="M 2.19575829383888 4.74553317535543 C 0.312760663507106 4.3515521327014 0.0578317535545239 1.59368483412321 1.67431279620854 0.666670616113734 C 2.75196682464457 0.203163507108997 4.20042654028435 0.434917061611358 4.75084123222751 1.57050947867297 C 5.7705568720379 3.16381516587676 4.00343601895736 5.42341232227486 2.19575829383888 4.74553317535543 Z M 3.97446682464454 1.61106635071089 C 3.18071090047397 1.61106635071089 2.38695497630334 1.61686018957344 1.59899289099525 1.62844786729856 C 1.62796208530807 2.13251184834121 1.69169431279624 3.14063981042652 1.72066350710901 3.64470379146918 C 2.44489336492893 3.64470379146918 3.16912322274885 3.64470379146918 3.89335308056872 3.64470379146918 C 3.91073459715642 3.13484597156396 3.9512914691943 2.12092417061611 3.97446682464454 1.61106635071089 Z" transform="matrix(1 0 0 1 -475 -1895 ) matrix(1 0 0 1 475 1895 )"/></g></svg>