<svg xmlns="http://www.w3.org/2000/svg" xmlns:xlink="http://www.w3.org/1999/xlink" width="6" height="14" version="1.1"><g><path fill="#616a73" fill-rule="nonzero" stroke="none" d="M 1.54175953079179 4.02020527859236 C 1.46970674486803 3.19436950146624 1.29234604105572 2.35744868035189 0.760263929618773 1.70343108504397 C 1.36439882697948 1.44293255131964 1.96853372434019 1.18243401759528 2.57821114369501 0.933020527859213 C 3.40404692082112 5.01231671554251 4.47375366568916 9.03064516129029 5.43815249266862 13.0711436950146 C 5.12777126099706 12.8549853372434 4.50700879765397 12.4226686217009 4.20217008797654 12.2065102639296 C 3.62574780058651 12.4171260997067 3.04932551319648 12.633284457478 2.47844574780059 12.8549853372434 C 2.71677419354839 12.7330498533724 3.18788856304985 12.4947214076246 3.42067448680352 12.3727859237536 C 2.86087976539591 9.76225806451612 1.99070381231672 7.21824046920818 1.61381231671555 4.56891495601172 L 1.54175953079179 4.02020527859236 Z" transform="matrix(1 0 0 1 -292 -1355 ) matrix(1 0 0 1 292 1355 )"/></g></svg>