<svg xmlns="http://www.w3.org/2000/svg" xmlns:xlink="http://www.w3.org/1999/xlink" width="13" height="12" version="1.1"><g><path fill="#41474c" fill-rule="nonzero" stroke="none" d="M 0.970058651026363 6.50633431085043 C 0.776070381231648 5.37011730205273 1.70167155425213 4.55536656891491 2.2503812316715 3.68519061583578 C 2.38340175953073 2.14436950146626 3.19815249266861 0.16568914956008 5.07706744868034 0.381847507331315 C 6.50149560117302 0.791994134897323 7.97026392961874 0.852961876832808 9.45565982404685 0.836334310850418 C 10.7581524926686 1.14671554252197 11.3401173020528 2.53234604105569 11.2625219941348 3.76832844574778 C 11.184926686217 5.25372434017589 12.6093548387096 6.66706744868031 11.7447214076246 8.11366568914957 C 10.979853372434 9.53809384164219 9.02888563049851 9.39953079178883 8.00351906158352 10.5800879765395 C 6.9615249266862 11.7384750733137 4.94958944281518 11.5056891495601 4.17917888563045 10.1699413489736 C 3.36442815249262 8.67900293255127 1.04211143695011 8.42404692082107 0.970058651026363 6.50633431085043 Z" transform="matrix(1 0 0 1 -642 -1460 ) matrix(1 0 0 1 642 1460 )"/></g></svg>