<svg xmlns="http://www.w3.org/2000/svg" xmlns:xlink="http://www.w3.org/1999/xlink" width="324" height="388" version="1.1"><g><path fill="#a3b1bf" fill-rule="nonzero" stroke="none" d="M 28.1673134328358 19.5707462686567 C 37.5650746268657 10.9482089552239 49.8808955223881 5.62402985074627 62.584328358209 4.62208955223881 C 88.6640298507463 2.68402985074627 114.787611940299 1.19940298507463 140.933134328358 0.541194029850746 C 180.484179104478 -0.453432835820896 220.027910447761 1.74791044776119 259.476567164179 4.47582089552239 C 267.301940298507 4.9365671641791 275.076119402985 6.75029850746269 282.140895522388 10.1876119402985 C 299.539552238806 18.3713432835821 312.177164179104 35.7334328358209 314.568656716418 54.8288059701493 C 321.362835820896 110.849701492537 324.748955223881 167.367910447761 323.044925373134 223.805671641791 C 321.925970149254 260.59223880597 319.015223880597 297.320298507463 314.451641791045 333.836268656716 C 311.416567164179 355.813134328358 294.49328358209 374.893880597015 273.218507462687 380.927462686567 C 264.925074626866 383.209253731343 256.280597014925 383.282388059702 247.76776119403 383.947910447761 C 212.458507462687 386.244328358209 177.061492537313 387.999552238806 141.66447761194 387.056119402985 C 118.217611940298 386.463731343284 94.7926865671642 385.169253731343 71.3970149253731 383.567611940299 C 65.7876119402985 383.150746268657 60.1270149253731 382.975223880597 54.62 381.717313432836 C 40.0223880597015 378.54328358209 26.8655223880597 369.416119402985 18.7183582089552 356.910149253731 C 13.2332835820895 348.675223880597 10.154328358209 338.999552238806 9.26940298507462 329.177611940299 C 1.75850746268656 265.857910447761 -1.25462686567165 201.916567164179 2.35820895522387 138.223880597015 C 3.74776119402984 111.778507462687 6.10999999999999 85.3916417910448 9.18895522388059 59.0998507462687 C 10.0373134328358 49.0292537313433 13.0943283582089 39.075671641791 18.725671641791 30.6359701492537 C 19.83 28.7710447761194 21.4828358208955 27.235223880597 22.3092537313433 25.2020895522388 C 24.2765671641791 23.3444776119403 26.1341791044776 21.3698507462687 28.1673134328358 19.5707462686567 Z M 244.857014925373 5.85805970149254 C 204.538059701493 3.22522388059702 164.094776119403 1.62358208955224 123.702686567164 3.4665671641791 C 103.561492537313 4.2344776119403 83.4422388059701 5.46313432835821 63.3449253731343 6.92582089552239 C 54.1373134328358 7.60597014925373 45.0979104477612 10.5386567164179 37.3237313432836 15.5337313432836 C 25.834328358209 22.8105970149254 17.1971641791045 34.4535820895522 13.6135820895522 47.5811940298507 C 11.9314925373134 53.5123880597015 11.5658208955224 59.6849253731343 10.8198507462687 65.7770149253731 C 5.51029850746268 112.634179104478 2.65805970149253 159.798507462687 3.28701492537313 206.962835820896 C 3.79895522388059 244.327164179104 6.3586567164179 281.647611940299 10.4761194029851 318.777910447761 C 11.5511940298507 327.217611940299 11.8437313432836 335.898656716418 14.8714925373134 343.943432835821 C 20.605223880597 360.215820895522 34.3910447761194 373.343432835821 50.9120895522388 378.294626865672 C 57.8817910447761 380.561791044776 65.2610447761194 380.766567164179 72.5086567164179 381.271194029851 C 95.7946268656716 382.858208955224 119.102537313433 384.130746268657 142.439701492537 384.708507462687 C 181.237462686567 385.688507462687 220.020597014925 383.49447761194 258.715970149254 380.81776119403 C 265.788059701493 380.437462686567 272.84552238806 379.011343283582 279.339850746269 376.129850746269 C 293.213432835821 370.147462686567 304.381044776119 358.248507462687 309.449253731343 344.009253731343 C 312.703731343284 335.284328358209 312.864626865672 325.864626865672 314.09328358209 316.737462686567 C 318.386268656716 277.376567164179 320.945970149254 237.796268656716 321.099552238806 198.194029850746 C 321.297014925373 151.475820895522 318.086417910448 104.794179104478 312.637910447761 58.4123880597015 C 311.965074626866 51.7132835820895 310.385373134328 45.0726865671642 307.489253731343 38.9732835820896 C 299.861343283582 22.3205970149254 283.508507462687 10.0632835820896 265.363880597015 7.47432835820896 C 258.562388059702 6.59671641791045 251.695074626866 6.39925373134328 244.857014925373 5.85805970149254 Z" transform="matrix(1 0 0 1 -299 -488 ) matrix(1 0 0 1 299 488 )"/></g></svg>