<svg xmlns="http://www.w3.org/2000/svg" xmlns:xlink="http://www.w3.org/1999/xlink" width="16" height="16" version="1.1"><g><path fill="#a3b1bf" fill-rule="nonzero" stroke="none" d="M 2.64432835820895 13.6997014925373 C 0.0699999999999932 11.5714925373134 -0.420000000000016 7.9220895522388 0.516119402985055 4.86507462686567 C 2.13238805970147 2.02014925373134 5.30641791044775 -0.12268656716418 8.67791044776118 0.447761194029852 C 12.7953731343283 0.945074626865672 15.954776119403 5.22343283582089 15.1064179104478 9.30432835820896 C 14.7114925373134 11.834776119403 12.8392537313433 13.7874626865672 10.7549253731343 15.1111940298507 C 8.01238805970146 15.8644776119403 4.83104477611937 15.7255223880597 2.64432835820895 13.6997014925373 Z M 11.954328358209 5.09910447761194 C 10.6671641791045 3.01477611940298 8.01238805970146 2.41507462686567 5.75253731343284 3.00014925373134 C 7.62477611940295 5.87432835820896 9.50432835820894 8.74119402985075 11.4935820895522 11.5422388059702 C 12.9562686567164 9.74313432835821 13.3365671641791 7.05179104477612 11.954328358209 5.09910447761194 Z" transform="matrix(1 0 0 1 -454 -519 ) matrix(1 0 0 1 454 519 )"/></g></svg>