<svg xmlns="http://www.w3.org/2000/svg" xmlns:xlink="http://www.w3.org/1999/xlink" width="16" height="16" version="1.1"><g><path fill="#a3b1bf" fill-rule="nonzero" stroke="none" d="M 1.735223880597 12.5853731343284 C 0.19940298507462 10.5229850746269 0.22134328358208 7.83164179104477 0.718656716417904 5.4255223880597 C 2.17402985074627 2.69761194029851 4.94582089552237 0.488955223880595 8.16373134328357 0.657164179104477 C 12.4567164179104 0.679104477611943 16.1134328358209 4.85507462686567 15.5137313432836 9.11149253731344 C 15.2577611940298 11.8686567164179 13.2831343283582 14.0773134328358 10.9794029850746 15.4229850746269 C 7.67373134328357 16.4249253731343 3.70253731343283 15.6058208955224 1.735223880597 12.5853731343284 Z M 11.4182089552239 4.37238805970149 C 9.99940298507462 2.99746268656717 7.92238805970148 2.92432835820895 6.09402985074626 3.2534328358209 C 7.7907462686567 5.93746268656717 9.56791044776119 8.57761194029851 11.3743283582089 11.1885074626866 C 11.6229850746269 11.1958208955224 12.1202985074627 11.2031343283582 12.3689552238806 11.2031343283582 C 13.6122388059701 9.03835820895523 13.3928358208955 6.03253731343283 11.4182089552239 4.37238805970149 Z" transform="matrix(1 0 0 1 -336 -544 ) matrix(1 0 0 1 336 544 )"/></g></svg>