<svg xmlns="http://www.w3.org/2000/svg" xmlns:xlink="http://www.w3.org/1999/xlink" width="17" height="34" version="1.1"><g><path fill="#a3b1bf" fill-rule="nonzero" stroke="none" d="M 0.156275659824047 5.14665689149558 C 0.0177126099706868 3.7222287390029 -0.215073313782995 2.00404692082111 0.838005865102645 0.851202346041021 C 2.17375366568915 -0.323812316715532 3.84205278592374 0.989765395894409 4.77873900293254 2.0206744868035 C 7.8215835777126 5.4958357771261 9.88894428152491 9.70260997067447 11.7955718475073 13.876129032258 C 13.8684750733138 18.7092082111437 15.7751026392962 23.7196480938416 16.3626099706745 28.9850439882698 C 16.4568328445748 30.3540469208211 16.506715542522 32.2606744868035 15.0213196480939 32.9202346041056 C 13.4749560117302 33.3691788856305 12.233431085044 32.0001759530792 11.2967448680352 30.9803519061583 C 8.35366568914955 27.4054252199413 6.28630498533724 23.2097360703812 4.41293255131964 19.0029618768328 C 2.52847507331377 14.5523167155425 0.821378299120241 9.95756598240467 0.156275659824047 5.14665689149558 Z M 5.90941348973607 6.52674486803517 C 4.78982404692081 4.89724340175951 3.74782991202346 3.02941348973604 1.86891495601172 2.18695014662754 C 1.73035190615835 5.13002932551319 2.41762463343109 8.02322580645159 3.276715542522 10.8221994134897 C 4.87296187683285 15.9046920821114 6.99020527859238 20.8375366568915 9.65615835777126 25.4544574780059 C 10.9808211143695 27.638211143695 12.3276539589443 29.938357771261 14.5169501466276 31.3738709677419 C 14.7663636363636 28.336568914956 14.0070381231671 25.3491495601173 13.1202346041056 22.4725806451613 C 11.3577126099707 16.9023460410557 9.00768328445747 11.4873020527859 5.90941348973607 6.52674486803517 Z" transform="matrix(1 0 0 1 -351 -1319 ) matrix(1 0 0 1 351 1319 )"/></g></svg>