<svg xmlns="http://www.w3.org/2000/svg" xmlns:xlink="http://www.w3.org/1999/xlink" width="37" height="66" version="1.1"><g><path fill="#f0f2f5" fill-rule="nonzero" stroke="none" d="M 4.35436950146628 4.74524926686217 C 5.31876832844576 3.35961876832843 6.35521994134896 1.9074780058651 7.86278592375366 1.08164222873899 C 9.65856304985337 0.217008797653932 10.8224926686217 2.32316715542521 11.4210850439883 3.67554252199412 C 18.9921700879765 21.4060703812317 26.4967448680352 39.169853372434 34.0456598240469 56.9170087976539 C 34.8604105571848 59.0397947214076 36.146275659824 61.0849853372434 36.2404985337243 63.41284457478 C 36.2626686217009 64.7818475073313 35.0156011730205 65.8293841642229 33.6909384164223 65.8127565982405 C 29.0130498533724 66.0067448680352 24.556862170088 63.9393841642229 20.8156598240469 61.2900586510264 C 16.8361290322581 58.3192668621701 13.1725219941349 54.7277126099707 10.6451319648094 50.4322580645161 C 7.78519061583577 44.019560117302 5.1524926686217 37.5015542521994 2.35906158357773 31.0611436950146 C 0.840410557184754 27.8520234604106 0.69076246334312 24.2382991202346 0.541114369501472 20.7575953079179 C 0.446891495601179 15.2372434017595 1.32260997067449 9.46747800586508 4.35436950146628 4.74524926686217 Z" transform="matrix(1 0 0 1 -298 -1320 ) matrix(1 0 0 1 298 1320 )"/></g></svg>