<?xml version="1.0" encoding="utf-8"?>
<svg version="1.1" xmlns:xlink="http://www.w3.org/1999/xlink" width="90px" height="36px" xmlns="http://www.w3.org/2000/svg">
  <g transform="matrix(1 0 0 1 -416 -590 )">
    <path d="M 0.288805970149255 35.8362686567164  C 0.340000000000003 25.0050746268657  0.303432835820885 14.1738805970149  0.303432835820885 3.34268656716418  C 0.274179104477611 2.1944776119403  0.427761194029856 1.03164179104478  1.04208955223881 0.0297014925373134  C 30.5737313432836 0.227164179104477  60.1053731343284 -0.0141791044776198  89.6370149253731 0.154029850746269  C 89.6297014925373 11.9725373134328  89.6370149253731 23.7910447761194  89.6297014925373 35.609552238806  C 88.4595522388059 35.7411940298508  87.2894029850746 35.8582089552239  86.1119402985074 35.8582089552239  C 57.5017910447761 35.8289552238806  28.8916417910447 35.8728358208955  0.288805970149255 35.8362686567164  Z M 59.2131343283582 3.6279104477612  C 40.885671641791 3.67910447761194  22.5508955223881 3.59865671641791  4.22343283582089 3.66447761194028  C 4.20880597014923 13.15  4.20880597014923 22.6428358208955  4.2307462686567 32.1283582089552  C 22.5728358208955 32.1868656716418  40.9149253731343 32.1210447761194  59.2643283582089 32.1576119402985  C 68.2086567164179 32.2453731343284  77.1676119402985 32.2673134328358  86.1119402985074 32.1429850746269  C 86.1119402985074 22.6355223880597  86.1192537313433 13.1280597014925  86.1119402985074 3.62059701492537  C 77.145671641791 3.50358208955224  68.1720895522388 3.49626865671642  59.2131343283582 3.6279104477612  Z " fill-rule="nonzero" fill="#a3b1bf" stroke="none" transform="matrix(1 0 0 1 416 590 )" />
  </g>
</svg>