<svg xmlns="http://www.w3.org/2000/svg" xmlns:xlink="http://www.w3.org/1999/xlink" width="17" height="16" version="1.1"><g><path fill="#a3b1bf" fill-rule="nonzero" stroke="none" d="M 3.17417910447761 13.7961194029851 C 0.848507462686563 11.6459701492537 0.519402985074624 8.22328358208958 1.35313432835821 5.31985074626866 C 2.97671641791045 2.43104477611939 6.20194029850745 0.244328358208946 9.62462686567163 0.865970149253741 C 13.6908955223881 1.39985074626864 16.7771641791045 5.61970149253733 15.98 9.66402985074626 C 15.5850746268657 12.1871641791045 13.7567164179104 14.1691044776119 11.6577611940298 15.4855223880597 C 8.77626865671641 16.3777611940299 5.35358208955223 16.0632835820896 3.17417910447761 13.7961194029851 Z M 12.8791044776119 5.59776119402983 C 11.6138805970149 3.48417910447762 8.90791044776119 2.76014925373133 6.62611940298506 3.4402985074627 C 8.51298507462686 6.30716417910449 10.3998507462686 9.17402985074625 12.3671641791045 11.9970149253731 C 13.7420895522388 10.1832835820896 14.2174626865672 7.56507462686565 12.8791044776119 5.59776119402983 Z" transform="matrix(1 0 0 1 -320 -678 ) matrix(1 0 0 1 320 678 )"/></g></svg>