<svg xmlns="http://www.w3.org/2000/svg" xmlns:xlink="http://www.w3.org/1999/xlink" width="10" height="19" version="1.1"><g><path fill="#a3b1bf" fill-rule="nonzero" stroke="none" d="M 1.81648093841642 7.25472140762463 C 1.28439882697947 5.23170087976536 0.253489736070392 2.76527859237535 1.7333431085044 0.902991202346016 C 3.34621700879765 0.487302052785878 4.40483870967741 2.12234604105572 5.23067448680352 3.23085043988269 C 7.39780058651026 6.68384164222871 9.06055718475073 10.5137243401759 9.86976539589443 14.5209677419355 C 10.0360410557185 15.6793548387097 10.2743695014663 17.5360997067449 8.83885630498533 18.0016715542522 C 7.50310850439882 18.0404692082111 6.63847507331377 16.8211143695015 5.91240469208211 15.8788856304985 C 4.10000000000001 13.2406451612903 2.85847507331378 10.2587683284457 1.81648093841642 7.25472140762463 Z M 8.25689149560118 15.8622580645161 C 7.43105571847507 11.2896774193548 5.72950146627566 6.70601173020526 2.76425219941349 3.0867448680352 C 3.49032258064517 7.681495601173 5.32489736070382 12.2263636363636 8.25689149560118 15.8622580645161 Z" transform="matrix(1 0 0 1 -345 -1330 ) matrix(1 0 0 1 345 1330 )"/></g></svg>