<svg xmlns="http://www.w3.org/2000/svg" xmlns:xlink="http://www.w3.org/1999/xlink" width="18" height="41" version="1.1"><g><path fill="#eaeff3" fill-rule="nonzero" stroke="none" d="M 0.119402985074622 33.334776119403 C 0.112089552238793 25.0340298507463 0.112089552238793 16.7332835820896 0.126716417910444 8.43985074626866 C -0.121940298507468 4.57104477611941 3.16910447761193 0.928955223880592 7.05985074626864 0.899701492537304 C 10.6214925373134 0.789999999999992 14.190447761194 0.877761194029858 17.7520895522388 0.870447761194043 C 17.8105970149254 3.15223880597017 17.8325373134328 5.44134328358208 17.7594029850746 7.73044776119403 C 16.764776119403 8.20582089552241 15.9237313432836 8.91522388059701 15.0388059701492 9.55149253731344 C 14.7389552238806 9.71970149253733 14.1392537313433 10.0561194029851 13.8394029850746 10.224328358209 C 12.5083582089552 9.22970149253732 11.1334328358209 7.80358208955224 9.30507462686567 8.15462686567165 C 6.73074626865671 8.46910447761195 5.04134328358209 11.3213432835821 5.98477611940297 13.734776119403 C 6.84044776119402 16.3164179104478 10.0291044776119 16.630895522388 12.2450746268657 15.7605970149254 C 12.4937313432836 19.0370149253731 12.6838805970149 22.3353731343284 12.2743283582089 25.6117910447761 C 11.0310447761194 25.9189552238806 9.78044776119402 26.2041791044776 8.55179104477611 26.5625373134328 C 6.74537313432835 27.7253731343284 5.08522388059701 30.2265671641791 6.62835820895522 32.2523880597015 C 7.63029850746268 34.2782089552239 9.97791044776119 34.5341791044776 11.9817910447761 34.3367164179105 C 13.7735820895522 34.7316417910448 15.5214925373134 35.2874626865672 17.3059701492537 35.7189552238806 C 17.5034328358209 37.3205970149254 17.5253731343284 38.929552238806 17.3937313432836 40.5385074626866 C 13.4225373134328 40.8310447761194 9.44402985074626 40.6920895522388 5.4655223880597 40.765223880597 C 2.23298507462686 39.9022388059702 -0.0926865671641934 36.6770149253731 0.119402985074622 33.334776119403 Z" transform="matrix(1 0 0 1 -340 -620 ) matrix(1 0 0 1 340 620 )"/></g></svg>