<svg xmlns="http://www.w3.org/2000/svg" xmlns:xlink="http://www.w3.org/1999/xlink" width="29" height="22" version="1.1"><g><path fill="#f0f2f5" fill-rule="nonzero" stroke="none" d="M 1.00537313432832 13.5065671641791 C 1.18089552238803 10.2301492537314 0.303283582089534 6.58805970149254 2.13164179104476 3.64805970149254 C 3.40417910447761 1.6002985074627 5.7517910447761 0.283880597014928 8.16522388059701 0.298507462686558 C 14.8643283582089 0.232686567164166 21.5634328358209 0.269253731343298 28.2625373134329 0.291194029850743 C 28.2991044776119 2.55104477611943 28.2991044776119 4.81820895522389 28.2991044776119 7.08537313432836 C 22.4044776119403 8.48955223880597 17.2192537313433 14.0038805970149 18.0017910447761 20.3446268656716 C 15.23 21.8585074626866 11.9389552238806 20.9297014925373 8.93313432835819 21.1710447761194 C 4.65477611940295 21.6025373134328 0.676268656716388 17.799552238806 1.00537313432832 13.5065671641791 Z M 12.0340298507463 6.72701492537314 C 9.34999999999999 4.84746268656716 5.14477611940299 7.39985074626867 5.54701492537313 10.6031343283582 C 5.06432835820894 12.5265671641791 6.8268656716418 13.6089552238806 8.06283582089551 14.6840298507463 C 9.65716417910448 14.7498507462687 11.3319402985074 14.5816417910448 12.3997014925373 13.2359701492537 C 14.5205970149254 11.6270149253731 14.3011940298507 8.09462686567164 12.0340298507463 6.72701492537314 Z" transform="matrix(1 0 0 1 -529 -623 ) matrix(1 0 0 1 529 623 )"/></g></svg>