<svg xmlns="http://www.w3.org/2000/svg" xmlns:xlink="http://www.w3.org/1999/xlink" width="319" height="383" version="1.1"><g><path fill="#f0f2f5" fill-rule="nonzero" stroke="none" d="M 60.3449253731343 4.92582089552239 C 80.4422388059701 3.46313432835821 100.561492537313 2.2344776119403 120.702686567164 1.4665671641791 C 161.094776119403 -0.376417910447761 201.538059701493 1.22522388059702 241.857014925373 3.85805970149254 C 248.695074626866 4.39925373134328 255.562388059702 4.59671641791045 262.363880597015 5.47432835820896 C 280.508507462687 8.06328358208955 296.861343283582 20.3205970149254 304.489253731343 36.9732835820896 C 307.385373134328 43.0726865671642 308.965074626866 49.7132835820895 309.637910447761 56.4123880597015 C 315.086417910448 102.794179104478 318.297014925373 149.475820895522 318.099552238806 196.194029850746 C 317.945970149254 235.796268656716 315.386268656716 275.376567164179 311.09328358209 314.737462686567 C 309.864626865672 323.864626865672 309.703731343284 333.284328358209 306.449253731343 342.009253731343 C 301.381044776119 356.248507462687 290.213432835821 368.147462686567 276.339850746269 374.129850746269 C 269.84552238806 377.011343283582 262.788059701493 378.437462686567 255.715970149254 378.81776119403 C 217.020597014925 381.49447761194 178.237462686567 383.688507462687 139.439701492537 382.708507462687 C 116.102537313433 382.130746268657 92.7946268656716 380.858208955224 69.5086567164179 379.271194029851 C 62.2610447761194 378.766567164179 54.8817910447761 378.561791044776 47.9120895522388 376.294626865672 C 31.3910447761194 371.343432835821 17.605223880597 358.215820895522 11.8714925373134 341.943432835821 C 8.84373134328358 333.898656716418 8.55119402985074 325.217611940299 7.47611940298507 316.777910447761 C 3.3586567164179 279.647611940299 0.79895522388059 242.327164179104 0.287014925373127 204.962835820896 C -0.341940298507469 157.798507462687 2.51029850746268 110.634179104478 7.81985074626865 63.7770149253731 C 8.56582089552238 57.6849253731343 8.93149253731343 51.5123880597015 10.6135820895522 45.5811940298507 C 14.1971641791045 32.4535820895522 22.834328358209 20.8105970149254 34.3237313432836 13.5337313432836 C 42.0979104477612 8.53865671641791 51.1373134328358 5.60597014925373 60.3449253731343 4.92582089552239 Z M 160.677910447761 29.4477611940299 C 157.306417910448 28.8773134328358 154.132388059701 31.0201492537313 152.516119402985 33.8650746268657 C 148.917910447761 35.7592537313433 148.047611940298 40.8640298507463 150.37328358209 44.0746268656716 C 152.954925373134 48.4261194029851 160.297611940298 48.7625373134328 162.754925373134 44.1111940298507 C 164.839253731343 42.7874626865672 166.711492537313 40.834776119403 167.106417910448 38.304328358209 C 167.954776119403 34.2234328358209 164.795373134328 29.9450746268657 160.677910447761 29.4477611940299 Z M 277.590447761194 54.5255223880597 C 274.131194029851 53.7137313432836 270.664626865672 55.82 269.011791044776 58.8111940298508 C 265.384328358209 60.5371641791045 264.660298507463 65.7077611940299 266.678805970149 68.925671641791 C 269.187313432836 73.4453731343283 276.764029850746 73.8402985074627 279.228656716418 69.0792537313433 C 281.137462686567 67.8505970149254 282.907313432836 66.1392537313433 283.426567164179 63.8428358208955 C 284.604029850746 59.8058208955224 281.69328358209 55.2861194029851 277.590447761194 54.5255223880597 Z M 42.1637313432836 54.6571641791045 C 38.9458208955224 54.4889552238806 36.1740298507463 56.6976119402985 34.7186567164179 59.4255223880597 C 30.8571641791045 61.1076119402985 30.469552238806 66.9510447761194 33.1097014925373 69.9129850746269 C 35.8376119402985 73.7086567164179 42.9023880597015 73.9061194029851 44.9794029850746 69.4229850746269 C 47.2831343283582 68.0773134328358 49.2577611940298 65.8686567164179 49.5137313432836 63.1114925373134 C 50.1134328358209 58.8550746268657 46.4567164179104 54.6791044776119 42.1637313432836 54.6571641791045 Z M 219.850895522388 65.2908955223881 C 177.615820895522 60.6541791044776 134.876119402985 60.9320895522388 92.6776119402985 65.8028358208955 C 83.1994029850746 66.6731343283582 74.3355223880597 71.5292537313433 68.0971641791045 78.6379104477612 C 66.0274626865672 79.34 64.4916417910448 80.9562686567164 63.0216417910448 82.4994029850746 C 57.3244776119403 88.3794029850746 54.0919402985075 96.3729850746269 53.4849253731343 104.490895522388 C 52.8705970149254 112.499104477612 52.3001492537313 120.507313432836 51.7223880597015 128.51552238806 C 49.1334328358209 128.500895522388 46.5298507462687 128.361940298507 43.9482089552239 128.625223880597 C 41.249552238806 128.961641791045 38.8946268656716 130.636417910448 37.2637313432836 132.75 C 33.694776119403 133.24 31.6470149253731 137.269701492537 31.4788059701492 140.582686567164 C 31.3691044776119 148.642089552239 31.5007462686567 156.708805970149 31.4129850746269 164.768208955224 C 31.1935820895522 168.212835820896 32.1662686567164 171.95 35.0697014925373 174.070895522388 C 39.165223880597 177.522835820896 44.8038805970149 175.665223880597 49.6380597014925 176.374626865672 C 49.9817910447761 180.54328358209 49.7111940298507 184.733880597015 49.7038805970149 188.909850746269 C 49.5429850746269 196.567014925373 49.8794029850746 204.231492537313 49.6892537313433 211.888656716418 C 45.1841791044776 211.427910447761 39.9916417910448 212.056865671642 37.2491044776119 216.130447761194 C 33.5777611940298 216.401044776119 31.6543283582089 220.730597014925 31.3544776119403 223.992388059701 C 31.2301492537313 232.53447761194 31.2886567164179 241.091194029851 31.325223880597 249.640597014925 C 31.2228358208955 254.343134328358 34.7625373134328 258.848208955224 39.4797014925373 259.521044776119 C 43.5386567164179 259.97447761194 47.6341791044776 259.601492537313 51.7077611940298 259.842835820896 C 52.029552238806 269.350298507463 52.9144776119403 278.850447761194 53.6458208955224 288.335970149254 C 54.7867164179105 301.419701492537 63.950447761194 313.274776119403 76.200447761194 317.904179104478 C 79.6085074626866 319.169402985075 83.1994029850746 319.900746268657 86.8122388059702 320.251791044776 C 129.84447761194 325.137164179105 173.439850746269 325.09328358209 216.464776119403 320.164029850746 C 221.225820895522 319.630149253731 226.169701492537 318.694029850746 230.214029850746 315.973432835821 C 241.432835820895 313.033432835821 251.101194029851 304.65223880597 255.277164179104 293.791791044776 C 258.107462686567 286.990298507463 257.880746268657 279.515970149254 258.538955223881 272.31223880597 C 259.241044776119 264.004179104478 259.635970149254 255.666865671642 260.147910447761 247.351492537313 C 264.616417910448 241.961492537313 267.951343283582 235.467164179104 268.558358208955 228.402388059702 C 269.567611940299 219.79447761194 266.737313432836 211.084179104478 261.544776119403 204.246119402985 C 261.457014925373 196.420746268657 261.647164179104 188.580746268657 261.493582089552 180.748059701493 C 266.517910447761 179.738805970149 270.986417910448 175.928507462687 272.083432835821 170.816417910448 C 272.917164179104 166.216268656716 272.083432835821 161.506417910448 272.683134328358 156.884328358209 C 277.641641791045 156.811194029851 283.528955223881 157.96671641791 287.383134328358 154.002835820896 C 291.434776119403 150.426567164179 290.462089552239 144.612388059701 290.42552238806 139.814776119403 C 290.220746268657 135.090298507463 285.993582089552 131.002089552239 281.261791044776 130.943582089552 C 274.116567164179 130.738805970149 266.95671641791 131.111791044776 259.818805970149 130.768059701493 C 259.350746268657 120.105074626866 258.436567164179 109.464029850746 257.632089552239 98.8229850746269 C 256.483880597015 85.3223880597015 247.151940298507 72.9773134328358 234.485074626866 68.1577611940299 C 229.841044776119 66.2416417910448 224.802089552239 65.7443283582089 219.850895522388 65.2908955223881 Z M 27.6246268656716 188.865970149254 C 24.2019402985074 188.244328358209 20.9767164179104 190.431044776119 19.3531343283582 193.319850746269 C 15.5574626865672 195.331044776119 14.9211940298507 200.779552238806 17.5686567164179 203.968208955224 C 20.3258208955224 207.990597014925 27.3467164179104 207.89552238806 29.6577611940298 203.48552238806 C 31.7567164179104 202.169104477612 33.5850746268657 200.187164179104 33.98 197.664029850746 C 34.7771641791045 193.619701492537 31.6908955223881 189.399850746269 27.6246268656716 188.865970149254 Z M 42.105223880597 317.933432835821 C 38.9019402985074 317.801791044776 36.1667164179104 320.010447761194 34.7113432835821 322.716417910448 C 30.7035820895522 324.508208955224 30.4183582089552 330.695373134328 33.4388059701492 333.576865671642 C 36.3202985074627 336.941044776119 43.0120895522388 337.087313432836 44.964776119403 332.713880597015 C 47.2758208955224 331.37552238806 49.250447761194 329.159552238806 49.5137313432836 326.402388059702 C 50.1207462686567 322.11671641791 46.4274626865672 317.926119402985 42.105223880597 317.933432835821 Z M 274.730895522388 319.505820895522 C 272.061492537313 319.908059701493 270.021044776119 321.904626865672 268.748507462687 324.16447761194 C 264.879701492537 325.839253731343 264.45552238806 331.741194029851 267.168805970149 334.673880597015 C 269.89671641791 338.411044776119 276.910298507463 338.688955223881 278.972686567164 334.183880597015 C 281.781044776119 332.640746268657 283.960447761194 329.620298507463 283.56552238806 326.3 C 283.258358208955 322.058208955224 278.921492537313 318.679402985075 274.730895522388 319.505820895522 Z M 160.582835820895 345.72447761194 C 157.379552238806 345.592835820896 154.644328358209 347.794179104478 153.196268656716 350.492835820896 C 149.005671641791 352.387014925373 148.895970149254 358.932537313433 152.289402985075 361.711641791045 C 155.229402985075 364.74671641791 161.570149253731 364.724776119403 163.398507462687 360.526865671642 C 165.724179104478 359.195820895522 167.720746268657 356.972537313433 167.991343283582 354.215373134328 C 168.605671641791 349.922388059701 164.905074626866 345.709850746269 160.582835820895 345.72447761194 Z" transform="matrix(1 0 0 1 -302 -490 ) matrix(1 0 0 1 302 490 )"/></g></svg>