<svg xmlns="http://www.w3.org/2000/svg" xmlns:xlink="http://www.w3.org/1999/xlink" width="33" height="16" version="1.1"><g><path fill="#f0f2f5" fill-rule="nonzero" stroke="none" d="M 0.987014925373131 15.7126865671642 C 0.979701492537316 10.5274626865672 0.972388059701487 5.33492537313433 0.994328358208946 0.149701492537304 C 11.5988059701492 0.998059701492537 22.1886567164179 1.97805970149253 32.7931343283582 2.86298507462686 C 32.8662686567164 6.23447761194029 32.8516417910448 9.60597014925375 32.8077611940299 12.9774626865672 C 22.2032835820896 13.9062686567164 11.5988059701492 14.8716417910448 0.987014925373131 15.7126865671642 Z M 11.4379104477612 4.76447761194029 C 8.36626865671641 2.82641791044776 4.50477611940299 6.13940298507461 5.12641791044776 9.46701492537315 C 6.39895522388059 11.2953731343284 8.72462686567164 13.7014925373134 11.0429850746269 11.9608955223881 C 13.8513432835821 10.6444776119403 14.2462686567164 6.28567164179105 11.4379104477612 4.76447761194029 Z M 26.1159701492537 4.79373134328358 C 23.044328358209 2.79716417910447 19.1097014925373 6.12477611940298 19.7532835820896 9.47432835820896 C 21.040447761194 11.3026865671642 23.3514925373134 13.7161194029851 25.6771641791045 11.9535820895522 C 28.4562686567164 10.6444776119403 28.8731343283582 6.3441791044776 26.1159701492537 4.79373134328358 Z" transform="matrix(1 0 0 1 -365 -633 ) matrix(1 0 0 1 365 633 )"/></g></svg>