<svg xmlns="http://www.w3.org/2000/svg" xmlns:xlink="http://www.w3.org/1999/xlink" width="282" height="367" version="1.1"><g><path fill="#d9dee4" fill-rule="nonzero" stroke="none" d="M 8.83164179104477 37.9759701492537 C 10.0529850746269 25.7698507462687 15.1870149253731 13.9732835820896 23.524328358209 4.94850746268657 C 25.2649253731343 3.16402985074627 26.8519402985075 1.03582089552239 29.3092537313433 0.202089552238807 C 28.4828358208955 2.23522388059702 26.83 3.77104477611941 25.725671641791 5.63597014925373 C 20.094328358209 14.075671641791 17.0373134328358 24.0292537313433 16.1889552238806 34.0998507462687 C 13.11 60.3916417910448 10.7477611940298 86.7785074626866 9.35820895522387 113.223880597015 C 5.74537313432835 176.916567164179 8.75850746268656 240.857910447761 16.2694029850746 304.177611940299 C 17.154328358209 313.999552238806 20.2332835820895 323.675223880597 25.7183582089552 331.910149253731 C 33.8655223880597 344.416119402985 47.0223880597015 353.54328358209 61.62 356.717313432836 C 67.1270149253731 357.975223880597 72.7876119402985 358.150746268657 78.3970149253731 358.567611940299 C 101.792686567164 360.169253731343 125.217611940298 361.463731343284 148.66447761194 362.056119402985 C 184.061492537313 362.999552238806 219.458507462687 361.244328358209 254.76776119403 358.947910447761 C 263.280597014925 358.282388059702 271.925074626866 358.209253731343 280.218507462687 355.927462686567 C 280.657313432836 355.985970149254 281.549552238806 356.102985074627 281.988358208955 356.161492537313 C 275.142985074627 359.818208955224 267.529701492537 361.997611940299 259.792089552239 362.626567164179 C 230.743134328358 364.827910447761 201.628358208955 366.290597014925 172.506268656716 367 L 149.754179104478 367 C 120.10552238806 366.33447761194 90.4788059701493 364.820597014925 60.9032835820896 362.597313432836 C 48.9897014925373 361.661194029851 37.4198507462686 356.856268656716 28.380447761194 349.016268656716 C 17.9514925373134 340.108507462687 10.9671641791045 327.295373134328 9.15343283582089 313.692388059702 C 3.85119402985074 270.623582089552 0.794179104477605 227.276865671642 1 183.886268656716 L 1 156.161044776119 C 0.640597014925367 152.577462686567 0.538208955223874 148.971940298507 0.662537313432829 145.381044776119 C 1.70835820895522 109.479402985075 4.59716417910447 73.6435820895522 8.83164179104477 37.9759701492537 Z" transform="matrix(1 0 0 1 -292 -513 ) matrix(1 0 0 1 292 513 )"/></g></svg>