<svg xmlns="http://www.w3.org/2000/svg" xmlns:xlink="http://www.w3.org/1999/xlink" width="28" height="36" version="1.1"><g><path fill="#f0f2f5" fill-rule="nonzero" stroke="none" d="M 1.05104477611937 14.4401492537313 C 1.13880597014924 12.6483582089552 3.31820895522389 13.0286567164179 4.55417910447761 12.7873134328358 C 4.0129850746269 8.1579104477612 5.30746268656713 2.81179104477613 9.79791044776124 0.566567164179105 C 9.90029850746271 1.84641791044777 10.1635820895523 3.30910447761192 9.08119402985074 4.26716417910447 C 6.87985074626869 6.5855223880597 7.07731343283581 9.94970149253732 7.17970149253733 12.9116417910448 C 12.174776119403 12.9043283582089 17.1625373134328 12.9262686567164 22.1502985074627 12.8970149253731 C 22.1502985074627 10.3446268656716 22.5013432835821 7.55820895522388 21.0094029850746 5.31298507462688 C 20.3292537313433 4.32567164179105 20.2561194029851 3.13358208955225 20.219552238806 1.97805970149253 C 24.2346268656717 3.61626865671641 24.3808955223881 8.94776119402985 24.2785074626865 12.6922388059702 C 25.280447761194 13.0213432835821 27.0576119402985 13.0067164179105 27.0210447761194 14.4840298507463 C 27.1526865671642 18.1334328358209 27.123432835821 21.7901492537314 27.0283582089552 25.439552238806 C 26.8820895522388 30.4126865671642 22.7061194029851 34.8592537313433 17.7549253731344 35.3346268656717 C 15.1220895522388 35.5174626865672 12.4746268656717 35.5613432835821 9.85641791044776 35.2688059701493 C 5.09537313432838 34.5886567164179 1.18999999999997 30.2591044776119 1.04373134328355 25.4468656716418 C 0.955970149253716 21.7755223880597 0.919402985074584 18.1041791044776 1.05104477611937 14.4401492537313 Z M 16.3873134328359 19.720447761194 C 15.3488059701493 17.9725373134328 12.8110447761194 18.3601492537314 11.765223880597 19.8886567164179 C 12.7013432835821 22.6823880597015 12.2332835820895 25.4907462686567 11.2898507462687 28.1967164179104 C 12.6720895522388 28.3868656716418 14.0616417910448 28.5258208955224 15.4585074626866 28.5697014925373 C 15.8753731343284 28.5185074626866 16.7164179104478 28.4088059701493 17.1332835820896 28.3576119402985 C 17.1040298507463 26.704776119403 16.4019402985075 25.1982089552239 15.8314925373135 23.684328358209 C 16.2702985074627 22.3971641791045 17.4185074626866 21.0222388059701 16.3873134328359 19.720447761194 Z" transform="matrix(1 0 0 1 -545 -633 ) matrix(1 0 0 1 545 633 )"/></g></svg>