<svg xmlns="http://www.w3.org/2000/svg" xmlns:xlink="http://www.w3.org/1999/xlink" width="16" height="17" version="1.1"><g><path fill="#a3b1bf" fill-rule="nonzero" stroke="none" d="M 1.74253731343283 12.8762686567164 C 0.19940298507462 10.8138805970149 0.22134328358208 8.12253731343287 0.711343283582082 5.71641791044777 C 2.16671641791044 3.01044776119403 4.90194029850745 0.80179104477611 8.10522388059701 0.933432835820895 C 12.4274626865672 0.92611940298508 16.1207462686567 5.11671641791048 15.5137313432836 9.40238805970154 C 15.250447761194 12.159552238806 13.2758208955224 14.3755223880597 10.964776119403 15.713880597015 C 7.66641791044775 16.7011940298507 3.70985074626865 15.8820895522388 1.74253731343283 12.8762686567164 Z M 11.7765671641791 4.99970149253733 C 10.3723880597015 3.36880597014925 8.08328358208954 3.14208955223882 6.09402985074626 3.5297014925373 C 7.9297014925373 6.44776119402985 9.86776119402984 9.30000000000001 11.8350746268657 12.1229850746269 C 13.5098507462687 10.1117910447761 13.6561194029851 6.93044776119405 11.7765671641791 4.99970149253733 Z" transform="matrix(1 0 0 1 -336 -807 ) matrix(1 0 0 1 336 807 )"/></g></svg>