<svg xmlns="http://www.w3.org/2000/svg" xmlns:xlink="http://www.w3.org/1999/xlink" width="56" height="30" version="1.1"><g><path fill="#f0f2f5" fill-rule="nonzero" stroke="none" d="M 0.230746268656702 29.1283582089552 C 0.208805970149228 19.6428358208955 0.208805970149228 10.15 0.223432835820887 0.664477611940285 C 18.5508955223881 0.598656716417906 36.885671641791 0.679104477611943 55.2131343283582 0.627910447761195 C 55.2350746268657 1.03014925373134 55.2862686567164 1.83462686567165 55.3155223880597 2.23686567164179 C 54.7670149253731 2.82194029850747 54.2111940298507 3.3923880597015 53.6480597014925 3.96283582089553 C 53.589552238806 10.8008955223881 53.589552238806 17.6462686567164 53.6407462686567 24.484328358209 C 53.5237313432836 25.5813432835821 54.7085074626866 26.1444776119403 55.2643283582089 26.9270149253731 C 55.2643283582089 27.4828358208955 55.2643283582089 28.6017910447761 55.2643283582089 29.1576119402985 C 36.9149253731343 29.1210447761194 18.5728358208955 29.1868656716418 0.230746268656702 29.1283582089552 Z M 50.9274626865672 11.2908955223881 C 51.22 9.86477611940299 49.6110447761194 9.01641791044777 48.5432835820895 9.95253731343284 C 47.9801492537313 13.2582089552239 48.3458208955224 16.6882089552239 48.3238805970149 20.0377611940299 C 48.0167164179104 21.8002985074627 51.095671641791 21.8661194029851 50.8982089552239 20.1035820895522 C 51.0079104477612 17.1708955223881 50.9567164179104 14.2235820895523 50.9274626865672 11.2908955223881 Z" transform="matrix(1 0 0 1 -420 -593 ) matrix(1 0 0 1 420 593 )"/></g></svg>