<svg xmlns="http://www.w3.org/2000/svg" xmlns:xlink="http://www.w3.org/1999/xlink" width="26" height="80" version="1.1"><g><path fill="#d8dde4" fill-rule="nonzero" stroke="none" d="M 0.412985074626853 32.7682089552239 C 0.500746268656712 24.7088059701493 0.369104477611934 16.6420895522388 0.478805970149246 8.58268656716419 C 0.647014925373128 5.26970149253731 2.69477611940298 1.23999999999998 6.26373134328357 0.75 C 5.18134328358208 2.97328358208955 4.66940298507462 5.42328358208954 4.77179104477611 7.89522388059703 C 4.84492537313432 15.9619402985075 4.68402985074626 24.0359701492537 4.84492537313432 32.1026865671642 C 4.90343283582089 36.1250746268657 7.84343283582088 39.8768656716418 11.719552238806 40.9153731343283 C 16.0710447761194 41.7929850746269 20.5541791044776 41.0982089552239 24.9641791044776 41.3834328358209 C 24.8032835820896 54.2038805970149 24.8471641791045 67.0316417910448 25.0080597014925 79.8594029850746 C 22.9017910447761 79.925223880597 20.7955223880597 79.9471641791045 18.6892537313433 79.8886567164179 C 18.8794029850746 72.2314925373134 18.5429850746269 64.5670149253731 18.7038805970149 56.9098507462687 C 18.7111940298507 52.7338805970149 18.9817910447761 48.5432835820895 18.6380597014925 44.3746268656716 C 13.8038805970149 43.665223880597 8.16522388059701 45.5228358208955 4.06970149253731 42.0708955223881 C 1.16626865671641 39.95 0.19358208955223 36.2128358208955 0.412985074626853 32.7682089552239 Z" transform="matrix(1 0 0 1 -333 -622 ) matrix(1 0 0 1 333 622 )"/></g></svg>