<?xml version="1.0" encoding="utf-8"?>
<svg version="1.1" xmlns:xlink="http://www.w3.org/1999/xlink" width="44px" height="66px" xmlns="http://www.w3.org/2000/svg">
  <g transform="matrix(1 0 0 1 -498 -684 )">
    <path d="M 3.59268656716418 45.8479104477612  C -0.758805970149297 36.0113432835821  0.0164179104477284 23.9953731343284  5.91835820895523 14.9559701492537  C 10.4892537313433 7.88388059701489  17.8026865671642 2.22328358208958  26.2277611940299 0.826417910447759  C 24.6188059701493 1.96731343283582  22.8562686567164 2.87417910447761  21.2326865671642 3.98582089552238  C 14.2264179104477 8.82731343283581  9.20940298507463 16.4917910447761  7.68820895522384 24.8876119402985  C 5.99149253731341 33.7368656716418  8.12701492537312 43.2662686567164  13.5535820895522 50.4846268656716  C 18.8558208955224 57.7541791044776  27.2955223880597 62.6322388059701  36.2471641791045 63.5902985074627  C 38.7702985074627 63.8901492537314  41.3080597014925 63.7219402985074  43.8385074626866 63.7950746268657  C 36.92 65.8720895522388  29.3213432835821 65.9744776119403  22.4832835820895 63.4879104477612  C 14.1898507462686 60.4455223880597  7.09582089552237 53.9950746268657  3.59268656716418 45.8479104477612  Z " fill-rule="nonzero" fill="#d0d6de" stroke="none" transform="matrix(1 0 0 1 498 684 )" />
  </g>
</svg>