<?xml version="1.0" encoding="utf-8"?>
<svg version="1.1" xmlns:xlink="http://www.w3.org/1999/xlink" width="115px" height="70px" xmlns="http://www.w3.org/2000/svg">
  <g transform="matrix(1 0 0 1 -10 -10 )">
    <path d="M 10 10  L 125 10  L 125 80  L 10 80  L 10 10  " fill-rule="nonzero" fill="#cccccc" stroke="none" />
    <path d="M 15 15  L 120 15  L 120 75  L 15 75  L 15 15  " fill-rule="nonzero" fill="#ffffff" stroke="none" />
    <path d="M 75.05 31  C 72.11 31  69.8 28.69  69.8 25.75  C 69.8 22.81  72.11 20.5  75.05 20.5  C 77.99 20.5  80.3 22.81  80.3 25.75  C 80.3 28.69  77.99 31  75.05 31  " fill-rule="nonzero" fill="#cccccc" stroke="none" />
    <path d="M 17 73  L 17 42.2  L 42.25 28.2  L 77.6 52.5478260869565  L 97.8 36.6  L 118 52.5478260869565  L 118 73  L 17 73  " fill-rule="nonzero" fill="#169bd5" stroke="none" />
  </g>
</svg>