<?xml version="1.0" encoding="utf-8"?>
<svg version="1.1" xmlns:xlink="http://www.w3.org/1999/xlink" width="230px" height="150px" xmlns="http://www.w3.org/2000/svg">
  <g transform="matrix(1 0 0 1 -15 -15 )">
    <path d="M 15 15  L 245 15  L 245 165  L 15 165  L 15 15  " fill-rule="nonzero" fill="#cccccc" stroke="none" />
    <path d="M 26 26  L 234 26  L 234 154  L 26 154  L 26 26  " fill-rule="nonzero" fill="#ffffff" stroke="none" />
    <path d="M 145.85 60  C 139.55 60  134.6 55.05  134.6 48.75  C 134.6 42.45  139.55 37.5  145.85 37.5  C 152.15 37.5  157.1 42.45  157.1 48.75  C 157.1 55.05  152.15 60  145.85 60  " fill-rule="nonzero" fill="#cccccc" stroke="none" />
    <path d="M 30 150  L 30 84  L 80 54  L 150 103.04347826087  L 190 72  L 230 103.04347826087  L 230 150  L 30 150  " fill-rule="nonzero" fill="#169bd5" stroke="none" />
  </g>
</svg>