<?xml version="1.0" encoding="utf-8"?>
<svg version="1.1" xmlns:xlink="http://www.w3.org/1999/xlink" width="40px" height="40px" xmlns="http://www.w3.org/2000/svg">
  <g transform="matrix(1 0 0 1 -553 -2604 )">
    <path d="M 573 2604  C 584.2 2604  593 2612.8  593 2624  C 593 2635.2  584.2 2644  573 2644  C 561.8 2644  553 2635.2  553 2624  C 553 2612.8  561.8 2604  573 2604  Z " fill-rule="nonzero" fill="#ffffff" stroke="none" />
    <path d="M 573 2604.5  C 583.92 2604.5  592.5 2613.08  592.5 2624  C 592.5 2634.92  583.92 2643.5  573 2643.5  C 562.08 2643.5  553.5 2634.92  553.5 2624  C 553.5 2613.08  562.08 2604.5  573 2604.5  Z " stroke-width="1" stroke="#797979" fill="none" />
  </g>
</svg>