<?xml version="1.0" encoding="utf-8"?>
<svg version="1.1" xmlns:xlink="http://www.w3.org/1999/xlink" width="45px" height="34px" xmlns="http://www.w3.org/2000/svg">
  <g transform="matrix(1 0 0 1 -68 -1034 )">
    <path d="M 44 33.385385023741  C 44.4635355751134 33.7234091512004  44.1895502919937 33.9973056865795  43.8515260582734 34  L 0.873094673381296 34  C 0.535109170415538 33.9972510228895  0.261184245396763 33.7233704691519  1 33.385385023741  L 1 1.34016344172662  C 0.261238890328009 1.00221673095178  0.535147838651106 0.728396520014996  0.873094673381296 1  L 43.8515260582734 1  C 44.189511622462 0.72834186256603  44.4634809239403 1.00217805019846  44 1.34016344172662  L 44 33.385385023741  Z M 43.8515260582734 1  L 0.873094673381296 1  C 0.87186536004284 1.00920980373279  0.87063597848023 1.00920288061439  0.869406587170168 1.00920288061439  C 0.688550625662472 1.00920288061439  0.541937900839237 1.15581560543763  0.541937900839237 1.33667156694533  C 0.541937900839237 1.33783555002205  0.54194410688271 1.33899952482685  1 1.34016344172662  L 1 33.385385023741  C 0.54194340434708 33.3865816054081  0.541936847020438 33.387778249955  0.541936847020438 33.3889749034856  C 0.541936847020438 33.56988564131  0.688593976821956 33.7165427711115  0.869504714646333 33.7165427711115  C 0.870701394508423 33.7165427711115  0.871898065387505 33.7165362134963  0.873094673381296 33.7165230985612  L 43.8515260582734 33.7165230985612  C 43.8527219314679 33.7165361894638  43.8539178673553 33.7165427350622  43.855113812199 33.7165427350622  C 44.0361341026567 33.7165427350622  44.1828800424148 33.5697967953041  44.1828800424148 33.3887765048463  C 44.1828800424148 33.3876459884491  44.1828741934261 33.3865154796169  44 33.385385023741  L 44 1.34016344172662  C 44.1828742165639 1.33903221098848  44.1828800771221 1.33790092712103  44.1828800771221 1.33676963566347  C 44.1828800771221 1.1558588978391  44.0362229473205 1.00920176803757  43.8553122094962 1.00920176803757  C 43.8540501274734 1.00920176803757  43.8527880559888 1.00920906202695  43.8515260582734 1  Z " fill-rule="nonzero" fill="#7ecafc" stroke="none" transform="matrix(1 0 0 1 68 1034 )" />
  </g>
</svg>