<?xml version="1.0" encoding="utf-8"?>
<svg version="1.1" xmlns:xlink="http://www.w3.org/1999/xlink" width="9px" height="7px" xmlns="http://www.w3.org/2000/svg">
  <g transform="matrix(1 0 0 1 -86 -1067 )">
    <path d="M 7.84798750647483 6.99456012014388  L 0.876831587769786 6.99456012014388  C 0.876168713000048 6.99456292796616  0.875505833028527 6.99456433188203  0.874842952312093 6.99456433188203  C 0.615554009026596 6.99456433188203  0.405358789722172 6.78436911257759  0.405358789722172 6.5250801692921  C 0.405358789722172 6.5243514861583  0.405360486198269 6.52362280401155  0.405363879136694 6.52289412877698  L 0.405363879136694 1.32365923956835  C 0.405360486198269 1.32293056433355  0.405358789722172 1.32220188218725  0.405358789722172 1.32147319905321  C 0.405358789722172 1.06218425576771  0.615554009026596 0.85198903646328  0.874842952312093 0.85198903646328  C 0.875505833028527 0.85198903646328  0.876168713000048 0.851990440379147  0.876831587769786 0.851993248201445  L 7.84798750647483 0.851993248201445  C 7.84868341514072 0.85199015354975  7.84937932982823 0.851988606218157  7.85007524537492 0.851988606218157  C 8.10936418866041 0.851988606218157  8.31955940796485 1.0621838255226  8.31955940796485 1.32147276880809  C 8.31955940796485 1.32220159535975  8.3195577108209 1.32293042092059  8.31955431654677 1.32365923956835  L 8.31955431654676 6.52289412877698  C 8.31955771082087 6.52362294742284  8.31955940796485 6.52435177298745  8.31955940796485 6.52508059953723  C 8.31955940796485 6.78436954282272  8.10936418866041 6.99456476212715  7.85007524537492 6.99456476212715  C 7.84937932982761 6.99456476212715  7.84868341514134 6.99456321479558  7.84798750647483 6.99456012014388  Z " fill-rule="nonzero" fill="#ffffff" stroke="none" transform="matrix(1 0 0 1 86 1067 )" />
  </g>
</svg>