<?xml version="1.0" encoding="utf-8"?>
<svg version="1.1" xmlns:xlink="http://www.w3.org/1999/xlink" width="45px" height="7px" xmlns="http://www.w3.org/2000/svg">
  <g transform="matrix(1 0 0 1 -68 -1061 )">
    <path d="M 44.463918328777 6.38538502374101  C 44.4635355751134 6.7234091512004  44.1895502919937 6.99730568657953  43.8515260582734 7  L 0.873094673381296 7  C 0.535109170415538 6.99725102288951  0.261184245396763 6.72337046915185  0.260801584172661 6.38538502374101  L 0.260801584172661 1.50072629064748  C 0.261184289399317 1.16274087642343  0.535109201552416 0.88886037127503  0.873094673381296 1  L 43.8515260582734 1  C 44.1895502608557 0.888805707590031  44.4635355311058 1.16270219437594  44.463918328777 1.50072629064748  L 44.463918328777 6.38538502374101  Z M 43.8515260582734 1.16958821582733  L 0.873094673381296 1.16958821582735  C 0.871898065387008 1.16957510089225  0.870701394508913 1.16956854327702  0.869504714646333 1.16956854327702  C 0.688593976821956 1.16956854327702  0.541936847020438 1.31622567307854  0.541936847020438 1.49713641090291  C 0.541936847020438 1.49833306443317  0.541943404347087 1.49952970898079  0.541956518705035 1.50072629064749  L 0.541956518705035 6.38538502374101  C 0.54194340434708 6.38658160540806  0.541936847020438 6.387778249955  0.541936847020438 6.38897490348559  C 0.541936847020438 6.56988564130996  0.688593976821956 6.71654277111149  0.869504714646333 6.71654277111149  C 0.870701394508423 6.71654277111149  0.871898065387505 6.71653621349626  0.873094673381296 6.71652309856116  L 43.8515260582734 6.71652309856116  C 43.8527219314679 6.7165361894638  43.8539178673553 6.71654273506218  43.855113812199 6.71654273506218  C 44.0361341026567 6.71654273506218  44.1828800424148 6.56979679530407  44.1828800424148 6.38877650484635  C 44.1828800424148 6.38764598844909  44.1828741934261 6.38651547961689  44.1828624956835 6.38538502374101  L 44.1828624956835 1.50072629064748  C 44.1828741934261 1.49959583477143  44.1828800424148 1.49846532593958  44.1828800424148 1.49733480954215  C 44.1828800424148 1.31631451908442  44.0361341026567 1.16956857932632  43.855113812199 1.16956857932632  C 43.8539178673553 1.16956857932632  43.8527219314679 1.16957512492471  43.8515260582734 1.16958821582733  Z " fill-rule="nonzero" fill="#7ecafc" stroke="none" transform="matrix(1 0 0 1 68 1061 )" />
  </g>
</svg>