<?xml version="1.0" encoding="utf-8"?>
<svg version="1.1" xmlns:xlink="http://www.w3.org/1999/xlink" width="73px" height="73px" xmlns="http://www.w3.org/2000/svg">
  <g transform="matrix(1 0 0 1 -52 -1019 )">
    <path d="M 72.4894177223022 60.2148196870504  C 72.4893185410072 67.1492817208633  66.8960699064748 72.7908274935252  60.0210124374101 72  L 13.1460804143885 72  C 6.21151927913669 72.7908274935252  0.569874325179857 67.1976780402878  1 60.3225213899281  L 1 13.4474901856115  C 0.569874325179857 10.0808700079137  1.87598050071943 6.92062853669064  4.24759963309353 4.54900940431654  C 6.61921876546763 2.17739027194244  9.77946023669065 0.871284096402873  13.1460804143885 1  L 59.9137074597122 1  C 63.2802284561151 0.871284096402873  66.4404699273381 2.17739027194244  68.8119898784173 4.54900940431654  C 71.1834106482014 6.92062853669064  72.4894177223022 10.0807708266187  72 13.4474901856115  L 72 39.5498790143885  L 72.4894177223022 39.5498790143885  C 72.4894177223022 39.8603794695906  72.2377073699503 40.1120898219424  71.9272069147482 40.1120898219424  C 71.6167064595461 40.1120898219424  71.3649961071943 39.8603794695906  71 39.5498790143885  L 71 13.4474901856115  C 71.3649961071943 7.13305674316547  66.2279425395684 1.99580481294964  59.9137074597122 2  L 13.1460804143885 2  C 6.83154779064749 1.99580481294964  1.69439504172662 7.13295756187051  2 13.4474901856115  L 2 60.3225213899281  C 1.69439504172662 66.577451166187  6.83154779064748 71.6664058784173  13.1460804143885 71  L 60.0210124374101 71  C 66.276041394964 71.6664058784173  71.3649961071942 66.5292531294964  71.3649961071942 60.2148196870504  L 71.3649961071942 56.0952794021583  C 71.3649961071943 55.7847789469562  71.6167064595461 55.5330685946043  71.9272069147482 55.5330685946043  C 72.2377073699503 55.5330685946043  72.4894177223022 55.7847789469562  72.4894177223022 56.0952794021583  L 72.4894177223022 60.2148196870504  Z " fill-rule="nonzero" fill="#7ecafc" stroke="none" transform="matrix(1 0 0 1 52 1019 )" />
  </g>
</svg>