<?xml version="1.0" encoding="utf-8"?>
<svg version="1.1" xmlns:xlink="http://www.w3.org/1999/xlink" width="36px" height="4px" xmlns="http://www.w3.org/2000/svg">
  <g transform="matrix(1 0 0 1 -72 -1073 )">
    <path d="M 35.4332771870504 3.79361421942446  L 1.30195498489208 3.79361421942446  C 1.30132549172346 3.79361675049705  1.30069599410759 3.79361801603713  1.3000664958505 3.79361801603713  C 1.04066799993165 3.79361801603713  0.830383970670646 3.58333398677613  0.830383970670646 3.32393549085728  C 0.830383970670646 3.32327306770097  0.830385372056945 3.3226106452845  0.830388174820143 3.32194822805755  L 0.830388174820143 0.522794947482012  C 0.830385083438202 0.522099333083638  0.83038353774149 0.521403712672466  0.83038353774149 0.520708091404913  C 0.83038353774149 0.261364371802735  1.04062316202422 0.0511247475200136  1.29996688162639 0.0511247475200136  C 1.3006295849429 0.0511247475200136  1.301292287515 0.0511261503881997  1.30195498489208 0  L 35.4332771870504 0  C 35.4339397406985 0.0511261521973552  35.4346022995375 0.0511247502337682  35.4352648591188 0.0511247502337682  C 35.6946633550376 0.0511247502337682  35.9049473842986 0.261408779494779  35.9049473842986 0.520807275413624  C 35.9049473842986 0.521469834994427  35.904945982335 0.522132393834248  35.9049431784173 0.522794947482012  L 35.9049431784173 3.32194822805755  C 35.9049457078569 3.32257758456777  35.9049469725804 3.32320694551962  35.9049469725804 3.32383630711283  C 35.9049469725804 3.58328957934836  35.6946185383411 3.79361801358766  35.4351652661056 3.79361801358766  C 35.4345359045142 3.79361801358766  35.4339065435588 3.79361674886403  35.4332771870504 3.79361421942446  Z " fill-rule="nonzero" fill="#b1ddfc" stroke="none" transform="matrix(1 0 0 1 72 1073 )" />
  </g>
</svg>