<?xml version="1.0" encoding="utf-8"?>
<svg version="1.1" xmlns:xlink="http://www.w3.org/1999/xlink" width="20px" height="20px" xmlns="http://www.w3.org/2000/svg">
  <g transform="matrix(1 0 0 1 -881 -673 )">
    <path d="M 3.44612352678571 6.25345646017699  C 3.44612352678571 6.2534564380531  3.75078553571429 0.00261769911504418  10.4994899107143 0.00261769911504418  C 17.2481714508929 0.00261769911504418  17.5800835491071 6.39026705752212  17.5800835491071 6.39026705752212  C 18.6038008928571 7.7338771460177  18.0507130357143 8.93995216814159  18.0507130357143 8.93995216814159  C 21.3421500223214 14.0668520575221  19.2125538839286 15.5480198672566  18.6316677232143 15.6572328982301  C 18.0507130357143 15.7664685619469  17.4970769866071 15.0262921902655  17.4970769866071 15.0262921902655  C 17.4970769866071 15.0262921902655  17.3039964732143 15.7658799557522  16.8332299330357 16.1507064823009  C 18.5487296875 16.9449007522124  18.2439762946429 17.9324817920354  18.2439762946429 17.9324817920354  C 18.2439762946429 17.9324817920354  17.8842202008929 20.9140157079646  10.7484868080357 19.0292984955752  L 10.1397566741071 18.9194742035398  C 3.30032524553571 21.3662627212389  2.450364375 18.0694055973451  2.450364375 18.0694055973451  C 2.450364375 18.0694055973451  2.17354633928571 16.6993525442478  3.50121761160714 16.1776927876106  C 2.72649716517857 15.7112281637168  2.450364375 14.724824380531  2.450364375 14.724824380531  C 2.450364375 14.724824380531  1.75855912946428 15.8486500442478  0.845875066964284 15.4374937610619  C -0.0669688839285728 15.0262695575221  -0.619942544642858 11.3804016371681  2.80957225446428 8.74855769911504  C 2.80957225446428 8.74855769911504  2.31224087053571 7.18579707964602  3.44612352678571 6.25345646017699  Z M 10.3879769196429 1.01732088495575  C 4.38486991071429 1.0172982300885  4.49697676339286 6.61002884955752  4.49697676339286 6.61002884955752  C 3.00331517857143 7.87080095132743  3.99912002232143 9.13270502212389  3.99912002232143 9.13270502212389  C 0.707705892857143 11.1342421238938  1.28861488839286 14.3688632300885  1.28861488839286 14.3688632300885  C 1.28861488839286 14.3688632300885  1.81367604910714 14.108033340708  2.18709142857143 13.3543185176991  C 2.5605525 12.6005357743363  3.14143866071429 13.4776586061947  3.14143866071429 13.4776586061947  C 3.14143866071429 13.4776586061947  3.50119475446429 15.2048726769912  4.60266508928571 15.8814546681416  C 5.70420395089286 16.5580592920354  4.5541265625 16.9897722566372  4.5541265625 16.9897722566372  C 4.5541265625 16.9897722566372  3.34166861607143 17.0072273230088  3.44610066964286 17.8232461061947  C 3.55041850446428 18.6392875221239  7.46109279017857 19.6609863053097  9.80779886160714 17.8508436725664  L 11.0523950223214 18.0153876769911  C 15.1464877901786 19.426531460177  17.1652562276786 18.1104962831858  17.3000676785714 17.8580430309734  C 17.4349248214286 17.6055671238938  16.6816526785714 17.1100560176991  15.9892535491071 16.8228963716814  C 15.2967858928571 16.5355782522124  15.1186438169643 16.2329105309734  15.7311656696429 15.8287272345133  C 16.3437788839286 15.4246797566372  16.58567203125 14.6226748451327  16.9441718303571 13.7925290265487  C 17.3025345758929 12.9623152654867  17.8426255357143 13.3678116814159  17.9120870089286 13.6011571902655  C 17.9814114285714 13.8343668584071  18.4929046428571 14.6150000663717  18.4929046428571 14.6150000663717  C 18.4929046428571 14.6150000663717  19.8264690625 13.2142704646018  17.0543599776786 9.07744196902654  C 17.0543599776786 9.07744196902654  17.6559635267857 7.83792838495575  16.6393727678571 6.82981329646017  C 16.6393727678571 6.82981329646017  16.3910611160714 1.01732088495575  10.3879769196429 1.01732088495575  Z " fill-rule="nonzero" fill="#000000" stroke="none" transform="matrix(1 0 0 1 881 673 )" />
  </g>
</svg>