<?xml version="1.0" encoding="utf-8"?>
<svg version="1.1" xmlns:xlink="http://www.w3.org/1999/xlink" width="22px" height="6px" xmlns="http://www.w3.org/2000/svg">
  <g transform="matrix(1 0 0 1 -496 -3360 )">
    <path d="M 4.17571984435797 5.95849546044099  L 3.32653696498054 5.95849546044099  L 1.50033722438391 1.29338521400778  L 1.47294422827496 1.29338521400778  L 1.47294422827496 5.95849546044099  L 0.614630350194553 5.95849546044099  L 0.614630350194553 0.637613488975357  L 2.07559014267186 0.637613488975357  L 3.7283009079118 5.07029831387807  L 3.75569390402076 5.07029831387807  L 5.35361867704281 0.637613488975357  L 6.83284046692607 0.637613488975357  L 6.83284046692607 5.95849546044099  L 5.94713359273671 5.95849546044099  L 5.94713359273671 1.29338521400778  L 5.91974059662776 1.29338521400778  C 5.81016861219196 1.69182879377432  5.22578469520104 3.24409857328145  4.17571984435797 5.95849546044099  Z M 9.20690012970169 5.95849546044099  L 8.32119325551233 5.95849546044099  L 8.32119325551233 0.637613488975357  L 9.20690012970169 0.637613488975357  L 9.20690012970169 5.95849546044099  Z M 10.5856809338521 0.637613488975357  L 10.5765499351492 0.637613488975357  L 11.6357457846952 0.637613488975357  L 14.6033203631647 4.99559014267185  L 14.6307133592737 4.99559014267185  L 14.6307133592737 0.637613488975357  L 15.4890272373541 0.637613488975357  L 15.4890272373541 5.95849546044099  L 14.46635538262 5.95849546044099  L 11.4439948119326 1.57561608300909  L 11.4439948119326 5.95849546044099  L 10.5856809338521 5.95849546044099  L 10.5856809338521 0.637613488975357  Z M 21.6981063553826 3.28560311284047  C 21.7437613488975 5.10350194552529  20.7576134889754 5.9916990920882  18.7396627756161 5.95849546044099  L 16.7673670557717 5.95849546044099  L 16.7673670557717 0.637613488975357  L 18.7031387808042 0.637613488975357  C 20.6663035019455 0.670817120622568  21.6615823605707 1.55071335927367  21.6981063553826 3.28560311284047  Z M 20.7667444876783 3.28560311284047  C 20.7210894941634 2.00726329442282  20.0271335927367 1.3514915693904  18.6848767833982 1.31828793774319  L 17.6622049286641 1.31828793774319  L 17.6622049286641 5.33592736705577  L 18.6848767833982 5.33592736705577  C 20.0727885862516 5.33592736705577  20.7667444876783 4.65525291828793  20.7667444876783 3.28560311284047  Z " fill-rule="nonzero" fill="#f2f2f2" stroke="none" transform="matrix(1 0 0 1 496 3360 )" />
  </g>
</svg>