<?xml version="1.0" encoding="utf-8"?>
<svg version="1.1" xmlns:xlink="http://www.w3.org/1999/xlink" width="70px" height="25px" xmlns="http://www.w3.org/2000/svg">
  <g transform="matrix(1 0 0 1 -524 -1158 )">
    <path d="M 525 1170.5  A 11.5 11.5 0 0 1 536.5 1159 L 581.5 1159  A 11.5 11.5 0 0 1 593 1170.5 A 11.5 11.5 0 0 1 581.5 1182 L 536.5 1182  A 11.5 11.5 0 0 1 525 1170.5 Z " fill-rule="nonzero" fill="#ffffff" stroke="none" />
    <path d="M 524.5 1170.5  A 12 12 0 0 1 536.5 1158.5 L 581.5 1158.5  A 12 12 0 0 1 593.5 1170.5 A 12 12 0 0 1 581.5 1182.5 L 536.5 1182.5  A 12 12 0 0 1 524.5 1170.5 Z " stroke-width="1" stroke-dasharray="9,4" stroke="#e4e4e4" fill="none" stroke-dashoffset="0.5" />
  </g>
</svg>