<?xml version="1.0" encoding="utf-8"?>
<svg version="1.1" xmlns:xlink="http://www.w3.org/1999/xlink" width="103px" height="34px" xmlns="http://www.w3.org/2000/svg">
  <defs>
    <mask fill="white" id="clip1146">
      <path d="M 0 18.75  L 7 12.24  L 7 0.113333333333344  L 103 0  L 103 34  L 7 34  L 7 18.5  L 0 18.75  Z " fill-rule="evenodd" />
    </mask>
  </defs>
  <g transform="matrix(1 0 0 1 -1227 -469 )">
    <path d="M 0 18.75  L 7 12.24  L 7 0.113333333333344  L 103 0  L 103 34  L 7 34  L 7 18.5  L 0 18.75  Z " fill-rule="nonzero" fill="#ff3b31" stroke="none" transform="matrix(1 0 0 1 1227 469 )" />
    <path d="M 0 18.75  L 7 12.24  L 7 0.113333333333344  L 103 0  L 103 34  L 7 34  L 7 18.5  L 0 18.75  Z " stroke-width="2" stroke="#ff3b31" fill="none" transform="matrix(1 0 0 1 1227 469 )" mask="url(#clip1146)" />
  </g>
</svg>