<?xml version="1.0" encoding="utf-8"?>
<svg version="1.1" xmlns:xlink="http://www.w3.org/1999/xlink" width="101px" height="34px" xmlns="http://www.w3.org/2000/svg">
  <defs>
    <mask fill="white" id="clip1140">
      <path d="M 0 18.75  L 7 12.24  L 7 0.113333333333344  L 101 0  L 101 34  L 7 34  L 7 18.5  L 0 18.75  Z " fill-rule="evenodd" />
    </mask>
  </defs>
  <g transform="matrix(1 0 0 1 -593 -673 )">
    <path d="M 0 18.75  L 7 12.24  L 7 0.113333333333344  L 101 0  L 101 34  L 7 34  L 7 18.5  L 0 18.75  Z " fill-rule="nonzero" fill="#fe9400" stroke="none" transform="matrix(1 0 0 1 593 673 )" />
    <path d="M 0 18.75  L 7 12.24  L 7 0.113333333333344  L 101 0  L 101 34  L 7 34  L 7 18.5  L 0 18.75  Z " stroke-width="2" stroke="#fe9400" fill="none" transform="matrix(1 0 0 1 593 673 )" mask="url(#clip1140)" />
  </g>
</svg>