<svg xmlns="http://www.w3.org/2000/svg" xmlns:xlink="http://www.w3.org/1999/xlink" width="103" height="34" version="1.1"><defs><mask id="clip2688" fill="#fff"><path fill-rule="evenodd" d="M 0 18.75 L 7 12.24 L 7 0.113333333333344 L 103 0 L 103 34 L 7 34 L 7 18.5 L 0 18.75 Z"/></mask></defs><g><path fill="#4bd863" fill-rule="nonzero" stroke="none" d="M 0 18.75 L 7 12.24 L 7 0.113333333333344 L 103 0 L 103 34 L 7 34 L 7 18.5 L 0 18.75 Z" transform="matrix(1 0 0 1 -1087 -469 ) matrix(1 0 0 1 1087 469 )"/><path fill="none" stroke="#4bd863" stroke-width="2" d="M 0 18.75 L 7 12.24 L 7 0.113333333333344 L 103 0 L 103 34 L 7 34 L 7 18.5 L 0 18.75 Z" mask="url(#clip2688)" transform="matrix(1 0 0 1 -1087 -469 ) matrix(1 0 0 1 1087 469 )"/></g></svg>