<svg xmlns="http://www.w3.org/2000/svg" xmlns:xlink="http://www.w3.org/1999/xlink" width="70" height="25" version="1.1"><g><path fill="#fff" fill-rule="nonzero" stroke="none" d="M 525 1170.5 A 11.5 11.5 0 0 1 536.5 1159 L 581.5 1159 A 11.5 11.5 0 0 1 593 1170.5 A 11.5 11.5 0 0 1 581.5 1182 L 536.5 1182 A 11.5 11.5 0 0 1 525 1170.5 Z" transform="matrix(1 0 0 1 -524 -1158 )"/><path fill="none" stroke="#e4e4e4" stroke-dasharray="9 4" stroke-dashoffset=".5" stroke-width="1" d="M 524.5 1170.5 A 12 12 0 0 1 536.5 1158.5 L 581.5 1158.5 A 12 12 0 0 1 593.5 1170.5 A 12 12 0 0 1 581.5 1182.5 L 536.5 1182.5 A 12 12 0 0 1 524.5 1170.5 Z" transform="matrix(1 0 0 1 -524 -1158 )"/></g></svg>