<svg xmlns="http://www.w3.org/2000/svg" xmlns:xlink="http://www.w3.org/1999/xlink" width="101" height="34" version="1.1"><defs><mask id="clip2687" fill="#fff"><path fill-rule="evenodd" d="M 0 18.75 L 7 12.24 L 7 0.113333333333344 L 101 0 L 101 34 L 7 34 L 7 18.5 L 0 18.75 Z"/></mask></defs><g><path fill="#fe9400" fill-rule="nonzero" stroke="none" d="M 0 18.75 L 7 12.24 L 7 0.113333333333344 L 101 0 L 101 34 L 7 34 L 7 18.5 L 0 18.75 Z" transform="matrix(1 0 0 1 -593 -673 ) matrix(1 0 0 1 593 673 )"/><path fill="none" stroke="#fe9400" stroke-width="2" d="M 0 18.75 L 7 12.24 L 7 0.113333333333344 L 101 0 L 101 34 L 7 34 L 7 18.5 L 0 18.75 Z" mask="url(#clip2687)" transform="matrix(1 0 0 1 -593 -673 ) matrix(1 0 0 1 593 673 )"/></g></svg>