<?xml version="1.0" encoding="utf-8"?>
<svg version="1.1" xmlns:xlink="http://www.w3.org/1999/xlink" width="115px" height="114px" xmlns="http://www.w3.org/2000/svg">
  <g transform="matrix(1 0 0 1 -41 -53 )">
    <path d="M 41 53  L 156 53  L 156 167  L 41 167  L 41 53  " fill-rule="nonzero" fill="#cccccc" stroke="none" />
    <path d="M 49 61  L 148 61  L 148 159  L 49 159  L 49 61  " fill-rule="nonzero" fill="#ffffff" stroke="none" />
    <path d="M 109.35 87.2  C 104.562 87.2  100.8 83.438  100.8 78.65  C 100.8 73.862  104.562 70.1  109.35 70.1  C 114.138 70.1  117.9 73.862  117.9 78.65  C 117.9 83.438  114.138 87.2  109.35 87.2  " fill-rule="nonzero" fill="#cccccc" stroke="none" />
    <path d="M 52 156  L 52 105.4  L 75.25 82.4  L 107.8 101.28  L 126.4 96.2  L 145 101.28  L 145 156  L 52 156  " fill-rule="nonzero" fill="#169bd5" stroke="none" />
  </g>
</svg>