<?xml version="1.0" encoding="utf-8"?>
<svg version="1.1" xmlns:xlink="http://www.w3.org/1999/xlink" width="25px" height="25px" xmlns="http://www.w3.org/2000/svg">
  <g transform="matrix(1 0 0 1 0 -85 )">
    <path d="M 15.1432142857143 9.88519230769236  L 15.3804464285714 24.5207692307693  C 14.3260714285714 24.8328846153846  13.2125892857143 25  12.0615178571429 25  C 5.40012499999999 25  0 19.4035576923078  0 12.5  C 0 5.59644230769217  5.40012499999999 0  12.0615178571429 0  C 14.815625 0  17.3541964285714 0.956637499999803  19.3845535714285 2.56677884615372  L 8.18386607142857 2.77732692307714  C 7.15615178571432 2.79664423076943  6.3765535714286 3.13629807692319  5.84507142857141 3.79629807692324  C 5.31358928571432 4.45629807692329  5.05694642857141 5.34748076923086  5.07513392857147 6.46987499999997  C 5.09268749999998 7.55289423076944  5.36725892857147 8.41932692307698  5.89884821428573 9.0691923076922  C 6.4304464285714 9.71903846153868  7.23120535714281 10.0339423076924  8.30116071428567 10.0138461538463  L 15.1432142857143 9.88519230769236  Z M 21.3940178571429 9.76769230769212  L 21.563125 20.2006730769229  C 23.1669642857143 18.0782692307691  24.1230357142857 15.4048076923079  24.1230357142857 12.5  C 24.1230357142857 11.5451923076924  24.0197321428572 10.6154807692309  23.8241071428571 9.72201923076936  L 21.3940178571429 9.76769230769212  Z " fill-rule="nonzero" fill="#1980ff" stroke="none" transform="matrix(1 0 0 1 0 85 )" />
  </g>
</svg>