<?xml version="1.0" encoding="utf-8"?>
<svg version="1.1" xmlns:xlink="http://www.w3.org/1999/xlink" width="8px" height="5px" xmlns="http://www.w3.org/2000/svg">
  <g transform="matrix(1 0 0 1 -262 -2656 )">
    <path d="M 7.8515625 0.164930555555556  C 7.95052083333333 0.274884259259259  8 0.405092592592591  8 0.555555555555556  C 8 0.706018518518518  7.95052083333333 0.836226851851851  7.8515625 0.946180555555556  L 4.3515625 4.83506944444444  C 4.25260416666667 4.94502314814815  4.13541666666667 5  4 5  C 3.86458333333333 5  3.74739583333333 4.94502314814815  3.6484375 4.83506944444444  L 0.1484375 0.946180555555556  C 0.0494791666666667 0.836226851851851  0 0.706018518518518  0 0.555555555555556  C 0 0.405092592592591  0.0494791666666667 0.274884259259259  0.1484375 0.164930555555556  C 0.247395833333333 0.0549768518518512  0.364583333333333 0  0.5 0  L 7.5 0  C 7.63541666666667 0  7.75260416666667 0.0549768518518512  7.8515625 0.164930555555556  Z " fill-rule="nonzero" fill="#666666" stroke="none" transform="matrix(1 0 0 1 262 2656 )" />
  </g>
</svg>