<?xml version="1.0" encoding="utf-8"?>
<svg version="1.1" xmlns:xlink="http://www.w3.org/1999/xlink" width="8px" height="5px" xmlns="http://www.w3.org/2000/svg">
  <g transform="matrix(1 0 0 1 -262 -2649 )">
    <path d="M 7.8515625 4.05381944444444  C 7.95052083333333 4.16377314814815  8 4.29398148148148  8 4.44444444444444  C 8 4.59490740740741  7.95052083333333 4.72511574074074  7.8515625 4.83506944444444  C 7.75260416666667 4.94502314814815  7.63541666666667 5  7.5 5  L 0.5 5  C 0.364583333333333 5  0.247395833333333 4.94502314814815  0.1484375 4.83506944444444  C 0.0494791666666667 4.72511574074074  0 4.59490740740741  0 4.44444444444444  C 0 4.29398148148148  0.0494791666666667 4.16377314814815  0.1484375 4.05381944444444  L 3.6484375 0.164930555555556  C 3.74739583333333 0.0549768518518512  3.86458333333333 0  4 0  C 4.13541666666667 0  4.25260416666667 0.0549768518518512  4.3515625 0.164930555555556  L 7.8515625 4.05381944444444  Z " fill-rule="nonzero" fill="#1980ff" stroke="none" transform="matrix(1 0 0 1 262 2649 )" />
  </g>
</svg>