<svg xmlns="http://www.w3.org/2000/svg" xmlns:xlink="http://www.w3.org/1999/xlink" width="16" height="16" version="1.1"><g><path fill="#ccc" fill-rule="nonzero" stroke="none" d="M 15.5 8 C 15.5 3.86429435267857 12.1357056473214 0.5 8 0.5 C 3.86481272321429 0.5 0.5 3.86429435267857 0.5 8 C 0.5 12.1357056473214 3.86429435267857 15.5 8 15.5 C 12.1351872767857 15.5 15.5 12.1357056473214 15.5 8 Z M 8.75911455915178 8.0021310546875 L 11.0594678180804 10.3100005691964 C 11.268397109375 10.5199953794643 11.2678499441964 10.8585731529018 11.0584022991071 11.0675024441964 C 10.9539520591518 11.1714343303571 10.8173344698661 11.2239330245536 10.6801985267857 11.2239330245536 C 10.5425154185268 11.2239330245536 10.4053794754464 11.1714343136161 10.3009004241071 11.0664369084821 L 7.997321796875 8.75588917410714 L 5.68625569196429 11.0423330133929 C 5.58180545200893 11.1451993638393 5.44570623325893 11.1971509095982 5.30963580915179 11.1971509095982 C 5.17143433035714 11.1971509095982 5.03375123883929 11.1441050502232 4.92875381696429 11.038042109375 C 4.72089004464286 10.8275001339286 4.72250272879464 10.4889223604911 4.93304472098214 10.280540234375 L 7.24143260602679 7.99732178013393 L 4.94159771763393 5.6899994140625 C 4.73266842633929 5.48052295758928 4.73321559151786 5.14142683035714 4.94266323660714 4.9324975390625 C 5.15213969308036 4.72302108258928 5.49068865513393 4.72411541294643 5.70016511160714 4.93356305803571 L 8.00319657366071 7.24356362723214 L 10.3142626785714 4.95714858258928 C 10.5242574888393 4.74876645647321 10.86390078125 4.75089749441964 11.0717645535714 4.96143948660714 C 11.2801466796875 5.17198146205357 11.2780156417411 5.51107758928571 11.0674736495536 5.71894136160714 L 8.75911455915178 8.0021310546875 Z" transform="matrix(1 0 0 1 -204 -2569 ) matrix(1 0 0 1 204 2569 )"/></g></svg>