<?xml version="1.0" encoding="utf-8"?>
<svg version="1.1" xmlns:xlink="http://www.w3.org/1999/xlink" width="128px" height="84px" xmlns="http://www.w3.org/2000/svg">
  <g transform="matrix(1 0 0 1 -961 -714 )">
    <path d="M 12.7969188252385 55.6136606305041  L 12.7969188252385 57.3369790325463  L 14.520237143542 57.3369790325463  C 14.9847300645507 57.3462707384295  15.3563954370066 57.7255211174564  15.3563025107651 58.1901069559668  C 15.3563025107651 58.6610335775367  14.9894575335379 59.0432348793874  14.520237143542 59.0432348793874  L 12.7969188252385 59.0432348793874  L 12.7969188252385 60.7665531997447  C 12.7876271193663 61.2310461213071  12.4083767407914 61.6027114942059  11.9437909028347 61.6026185679643  C 11.9392390844354 61.6026926265264  11.9346867389132 61.6027296576451  11.9301343180835 61.6027296576451  C 11.4677922601748 61.6027296576451  11.0924812098475 61.2288916829608  11.0906629804309 60.7665531997447  L 11.0906629804309 59.0432348793874  L 9.36734458044262 59.0432348793874  C 8.9028516594339 59.0339431735041  8.531186286978 58.6546927944772  8.53127921321952 58.1901069559668  C 8.53127921321952 57.7191803343969  8.89812419044664 57.3369790325463  9.36734458044262 57.3369790325463  L 11.0906629804309 57.3369790325463  L 11.0906629804309 55.6136606305042  C 11.099954686303 55.1491677089418  11.4792050648779 54.777502336043  11.9437909028347 54.7775952622846  C 12.4147175238433 54.7775952622846  12.7969188252385 55.1444402399489  12.7969188252385 55.6136606305041  Z M 127.133121185462 50.5119557268666  L 125.409802785474 50.5119557268666  L 125.409802785474 48.7886374065093  C 125.407984556057 48.3262989232933  125.03267350573 47.9524609486089  124.570331447821 47.9524609486089  C 124.565779026991 47.9524609486089  124.561226681469 47.9524979797276  124.55667486307 47.9525720382897  C 124.092089025113 47.9524791120481  123.712838646538 48.324144484947  123.703546940666 48.7886374065093  L 123.703546940666 50.5119557268666  L 121.980228622363 50.5119557268666  C 121.517890139698 50.5137739562854  121.144052165459 50.88908500706  121.144052165459 51.3514270655197  C 121.144052165459 51.3559794863554  121.144089196578 51.3605318318819  121.14416325514 51.3650836502872  C 121.14416325514 51.8223601786854  121.519539550799 52.2182115737077  121.980228622363 52.2182115737077  L 123.703546940666 52.2182115737077  L 123.703546940666 53.9415299757498  C 123.703546940666 54.4107503663051  124.085748242061 54.7775953439694  124.55667486307 54.7775952622846  C 125.021260669886 54.7776881894099  125.400511035742 54.4060228652876  125.409802785474 53.9415299757498  L 125.409802785474 52.2182115737077  L 127.133121185462 52.2182115737077  C 127.602341575458 52.2182115737077  127.969186552685 51.836010271857  127.969186471 51.3650836502872  C 127.969279398125 50.9004978429179  127.597614074446 50.5212474766097  127.133121185462 50.5119557268666  Z M 67.5796743744981 82.81990967709  L 63.424941411996 78  L 20.4699511887803 78  C 20.4693778485127 78.6651773716083  20.4688045079691 78.665177661752  20.4682311674078 78.665177661752  C 19.5296614767093 78.665177661752  18.7688004100203 77.9043165941562  18.7688004100203 76.9657469023391  C 18.7688004100203 76.9634715761696  18.7688049795879 76.9611962522951  18.7688141186955 76.9589209444799  C 18.7688141186955 76.0170677013402  19.5417480399185 75.2526650976388  20.4699511887804 75.2526651793235  L 28.2078213110197 75.2526651793235  C 27.6106221184421 74.2177980250173  27.2974767439475 73.0435028058592  28 71.8486848040842  L 28 22.3502034256541  C 27.3019715171926 18.5850031541019  30.3547961997678 15.5337009782803  34.1199969353131 15.5337009782803  C 34.1239784806076 15.5337009782803  34.1279600251417 15.533704464994  34.1319415643294 15.5337114384174  L 39.2438839296473 15.5337114384174  L 39.2438839296473 13.8189243548181  C 39.2457621857913 10.0537240832659  42.2985868683665 7.00242190744432  46.0637876039119 7.00242190744432  C 46.0677691492063 7.00242190744432  46.0717506937405 7.002425394158  46.0757322329282 7  L 87.0122218433613 7  C 87.0173406099728 7.00242083589625  87.0224593879503 7.0024150700482  87.0275781675513 7.0024150700482  C 90.7922227349592 7.0024150700482  93.8440701466641 10.0542624853903  93.8440701466641 13.818907057285  C 93.8440701466641 13.8189128214291  93.8440701466568 13.818918590674  93 13.8189243548181  L 93 63.3174056515635  C 93.8440701466421 64.5578536515635  93.513056510789 65.7198138813019  92.9346357839736 66.7213860268028  L 102.373642976298 66.7213860268028  C 103.317202449328 66.7213860268028  104.081605052118 67.4789636247607  104.081605052118 68.4276418736439  C 104.081605052118 69.3694951167837  103.32232122405 70.133897720485  102.375349207311 70  L 81.9002793963586 70  L 81.9002793963586 71.8486848040842  C 81.9002793963586 73.0891328040842  81.5692657605055 74.2510930338226  80.9908450336901 75.2526651793235  L 81.9053981710813 75.2526651793235  C 82.8438388693885 75.2526651793235  83.6065352411662 76.0102427772814  83.6065352411662 76.9589209444799  C 83.6065352411662 77.9007741876196  82.8336013199432 78.665176791321  81.9053981710813 78.665176791321  L 72.9287863630177 78.665176791321  C 73.7085452899761 79.9721687811104  73.5396259691819 81.6852495520102  72.4049657637697 82.81990967709  C 71.7661404051784 83.4617544006649  70.8978930849522 83.8225939162196  69.9923200691339 83.8225939162196  C 69.0867470533156 83.8225939162196  68.2184997330893 83.4617544006649  67.5796743744981 82.81990967709  Z M 63.9589994790047 69.548651905552  L 69.6630126642934 75.2526651793235  L 75.0889061919685 75.2526651793235  C 76.9657875885829 75.2526651793235  78.4877677884282 73.7340975213784  78 71.8316222488832  L 78 22.2700094243778  C 78.4877677884282 20.4272531359285  77.0135627920997 18.9462230504148  75.1946940667626 19  L 34.0056785906446 19  C 32.1868098653075 18.9462230504148  30.712604868979 20.434078141672  31 22.2700094243778  L 31 71.8316222488832  C 30.712604868979 73.7204474282068  32.2482350802949 75.2526651793235  34.1097602344261 75  L 60.0107234913683 75  L 59.1337080080485 74.3739433822591  C 58.2682150500551 73.5130202890054  57.9297143091781 72.2547088900197  58.2464549752833 71.07575088194  L 56.6357495375093 69.4633391295469  C 54.5739590609806 70.9981274630673  52.0721684426752 71.8270622248999  49.5018464410186 71.8270622248999  C 42.903588303731 71.8270622248999  37.5546432287098 66.4781171435038  37.5546432287098 59.8798589983523  C 37.5546432287098 56.7203119326083  38.8062041481525 53.6894116585024  41.0354525503583 51.4503964262923  C 43.2765597062529 49.2012833894526  46.3209623860067 47.9370696614834  49.4960325780854 47.9370696614834  C 56.092406064637 47.9370696614834  61.4398233283689 53.2844869315883  61.4398233283689 59.8808604260016  C 61.4398233283689 62.4666629943095  60.6006471883936 64.9826294144465  59.048395232145 67.0506934320357  L 60.6608069826165 68.6631051844288  C 61.8394586537247 68.3448289258867  63.0982758780184 68.682814494251  63.9589994790047 69.548651905552  Z M 82 22.3502034256541  L 82 66.7213860268028  L 87.0344031732646 66.7213860268028  C 88.9126914364989 66.7119993863597  90.4306432753708 65.1871859117421  90 63.3088744148054  L 90 13.8274555915763  C 90.4315585387118 11.936924181238  88.9095783388664 10.4149439795788  87.0344031732647 11  L 46.0518446720122 11  C 44.1742234103573 10.4252657006316  42.6573056359365 11.9498061779697  42.6563956192625 13.8274555915763  L 42.6563956192625 16  L 75.0684310930778 16  C 75.0735498596893 15.5336999067322  75.0786686376668 15.5336941408842  75.0837874172677 15.5336941408842  C 78.8484319846757 15.5336941408842  81.9002793963806 18.5855415562263  81.9002793963806 22.350186128121  C 81.9002793963806 22.3501918922651  81.9002793963733 22.35019766151  82 22.3502034256541  Z M 21.7547618471087 1.47416350223357  L 21.7547618471087 4.01648463560944  L 24.2970829774546 4.01648463560944  C 25.0137104584129 4.01648463560944  25.593837416241 4.58466781365667  25.593837416241 5.29617652074027  C 25.593837416241 6.00256645309508  25.0137104584129 6.57586840587109  24.2970829774546 6.57586840587109  L 21.7547618471087 6.57586840587109  L 21.7547618471087 9.11818953924697  C 21.7547618471087 9.83481702105935  21.1865786697387 10.4149439795788  20.475069963503 10.4149439795788  C 19.766937714597 10.4102699145836  19.1953496439111 9.83489659427174  19.1953496439111 9.12674891898109  C 19.1953496439111 9.12389576878545  19.1953591226255 9.12104262646272  19.1953780798974 9.11818953924697  L 19.1953780798974 6.57586840587109  L 16.6530569495514 6.57586840587109  C 16.6490724717002 6.57590547868104  16.6450878429427 6.57592401538689  16.6411031926267 6.57592401538689  C 15.9334983478047 6.57592401538689  15.3590910307757 6.00377587190257  15.3563025107651 5.29617652074027  C 15.3563025107651 4.58978658838545  15.9364294685931 4.01648463560944  16.6530569495514 4.01648463560944  L 19.1953780798973 4.01648463560944  L 19.1953780798973 1.47416350223357  C 19.1953780798973 0.757536020421185  19.7635612572674 0.17740906190172  20.475069963503 0.17740906190172  C 21.181459895016 0.17740906190172  21.7547618471087 0.757536020421185  21.7547618471087 1.47416350223357  Z M 1.70624228868388 76.9657469022564  C 1.70624228868388 76.9634715761148  1.70624685825138 76.9611962522673  1.70625599735873 76.9589209444799  C 1.70625599735873 76.0170677013402  2.47918991858177 75.2526650976388  3.40739298575887 75  L 13.6551654406802 75  C 14.5936061389874 75.2526651793235  15.3563025107651 76.0102427772814  15.3563025107651 76.9589209444799  C 15.3563025107651 77.9007741876196  14.583368589542 78.665176791321  13.6551654406802 78  L 3.40739298575887 78  C 3.40681967271599 78.6651773715531  3.40624635940787 78.6651776616693  3.40567304607137 78.6651776616693  C 2.46710335537286 78.6651776616693  1.70624228868388 77.9043165940735  1.70624228868388 76.9657469022564  Z M 49.4814188759656 68.4287665190802  C 51.7443530476243 68.4287665190802  53.9146033270938 67.5298194185086  55.5147394252524 65.9296833184429  C 57.1148755234111 64.3295472183772  58.0138226229113 62.1592969363212  58.0138226229113 59.8963627619655  C 58.0138226229113 55.1840462875122  54.1937353448029 51.3639590048509  49.4814188759656 51.3639590048509  C 47.2184847043069 51.3639590048509  45.0482344248375 52.2629061054225  43.4480983266788 53.8630422054882  C 41.8479622285202 55.4631783055539  40.94901512902 57.6334285876099  40.94901512902 59.8963627619655  C 40.94901512902 64.6086792364189  44.7691024071284 68.4287665190802  49.4814188759656 68.4287665190802  Z M 37.53762044197 25.7763728551323  C 37.53762044197 25.7746640192093  37.5376230168244 25.7729551842579  37.5376281665245 25.7712463560944  C 37.5376276956565 24.8295732271388  38.3005050416692 24.0659322137588  39.2421776986347 24  L 58.0126979774764 24  C 58.0126979774764 24.0649905092534  58.0126979774764 24.0649905092534  58.0126979774764 24.0649905092534  C 58.9550370598733 24.0649905092534  59.718953822284 24.8289072725745  59.718953822284 25.7712463560944  C 59.718953822284 26.7135854396144  58.9550370598733 27.4775022029355  58.0126979774764 27.4775022029355  C 58.0126979774764 27.4775022029355  58.0126979774764 27.4775022029355  58.0126979774764 28  L 39.2438839296473 28  C 39.2421751286336 27.477507352472  39.2404663208278 27.4775099272446  39.2387575120549 27.4775099272446  C 38.2992454508752 27.4775099272446  37.53762044197 26.7158849174317  37.53762044197 25.7763728551323  Z M 37.5375972631674 34.3127638039136  C 37.5375972631674 34.3093509882661  37.5376075643334 34.3059381803926  37.5376281665245 34.3025254269304  C 37.5376281665245 33.3606721837907  38.2969119945922 32.5962695800893  39.2319401491893 33  L 66.5559208186027 33  C 67.4909489731999 32.5962696617741  68.2502328829523 33.353847259732  68.2502328829523 34.3025254269304  C 68.2502328829523 35.2443786700702  67.4909490548847 36.0087812737715  66.5559208186027 36  L 39.2319401491893 36  C 38.2959097871794 36.0078566170136  37.5375972631674 35.2487946237496  37.5375972631674 34.3127638039136  Z M 37.5376144477987 42.8406330390824  C 37.5376144477987 42.8383568789815  37.5376190207166 42.8360807211777  37.5376281665245 42.8338045794512  C 37.5376281665245 41.8919513363114  38.2986182256048 41.1275487326101  39.240471467622 42  L 51.1910872236409 42  C 52.1312341529607 41.1275487326101  52.8939305247384 41.885126330568  52.8939305247384 42.8338045794512  C 52.8939305247384 43.7756578225909  52.1329404656581 44.5400604262923  51.1910872236409 44  L 39.240471467622 44  C 39.2393293815936 44.5400626471988  39.2381872935359 44.5400637984953  39.2370452051862 44.5400637984953  C 38.2984755144877 44.5400637984953  37.5376144477987 43.7792027308995  37.5376144477987 42.8406330390824  Z M 5.11876745273797 32.5962696617741  C 2.29175025066057 32.5962696617741  0 30.3045194083822  0 27.4775022029355  C 0 24.6504849974889  2.29175025066057 22.358734744097  5.11876745273797 22.358734744097  C 7.94578465481536 22.358734744097  10.2375349054759 24.6504849974889  10.2375349054759 27.4775022029355  C 10.2375349054759 30.3045194083822  7.94578465481536 32.5962696617741  5.11876745273797 32.5962696617741  Z M 2.55984107173438 27.4775021620932  C 2.55984107173438 28.8908322298252  3.70543756179528 30.0366334002358  5.11876760528912 30.0368858915124  C 6.53273346254106 30.0368859323548  7.67860860615709 28.8910107873731  7.67860860615709 27.4775021620932  C 7.67860860615709 26.0639935368132  6.53273346254106 24.9181183918315  5.11922483894574 24.9181183918315  C 3.70543756179528 24.9183709239506  2.55984107173438 26.0641720943611  2.55984107173438 27.4775021620932  Z M 110.906628349664 22.358734744097  C 108.079611147586 22.358734744097  105.787860896926 20.0669844907051  105.787860896926 17.2399672852585  C 105.787860896926 14.4129500798118  108.079611147586 12.1211998264199  110.906628349664 12.1211998264199  C 113.733645551741 12.1211998264199  116.025395802402 14.4129500798118  116.025395802402 17.2399672852585  C 116.025395802402 20.0669844907051  113.733645551741 22.358734744097  110.906628349664 22.358734744097  Z M 108.347701816109 17.2399672444161  C 108.347701816109 18.6532973121481  109.49329830617 19.7990984825587  110.906628349664 19.7993509738354  C 112.320594206916 19.7993510146777  113.466469350532 18.653475869696  113.466469350532 17.2399672444161  C 113.466469350532 15.8264586191361  112.320594206916 14.6805834741544  110.90708558332 14.6805834741544  C 109.49329830617 14.6808360062735  108.347701816109 15.826637176684  108.347701816109 17.2399672444161  Z " fill-rule="nonzero" fill="#cccccc" stroke="none" transform="matrix(1 0 0 1 961 714 )" />
  </g>
</svg>