<?xml version="1.0" encoding="utf-8"?>
<svg version="1.1" xmlns:xlink="http://www.w3.org/1999/xlink" width="400px" height="240px" xmlns="http://www.w3.org/2000/svg">
  <g transform="matrix(1 0 0 1 0 -120 )">
    <path d="M 0 120  L 400 120  L 400 360  L 0 360  L 0 120  " fill-rule="nonzero" fill="#cccccc" stroke="none" />
    <path d="M 17 137  L 383 137  L 383 343  L 17 343  L 17 137  " fill-rule="nonzero" fill="#ffffff" stroke="none" />
    <path d="M 226 192  C 215.92 192  208 184.08  208 174  C 208 163.92  215.92 156  226 156  C 236.08 156  244 163.92  244 174  C 244 184.08  236.08 192  226 192  " fill-rule="nonzero" fill="#cccccc" stroke="none" />
    <path d="M 23 337  L 23 230.3  L 111.5 181.8  L 235.4 267.16  L 306.2 210.9  L 377 267.16  L 377 337  L 23 337  " fill-rule="nonzero" fill="#169bd5" stroke="none" />
  </g>
</svg>