<?xml version="1.0" encoding="utf-8"?>
<svg version="1.1" xmlns:xlink="http://www.w3.org/1999/xlink" width="200px" height="120px" xmlns="http://www.w3.org/2000/svg">
  <g transform="matrix(1 0 0 1 -100 120 )">
    <path d="M 100 -120  L 300 -120  L 300 0  L 100 0  L 100 -120  " fill-rule="nonzero" fill="#cccccc" stroke="none" />
    <path d="M 108 -112  L 292 -112  L 292 -8  L 108 -8  L 108 -112  " fill-rule="nonzero" fill="#ffffff" stroke="none" />
    <path d="M 213 -84  C 207.96 -84  204 -87.96  204 -93  C 204 -98.04  207.96 -102  213 -102  C 218.04 -102  222 -98.04  222 -93  C 222 -87.96  218.04 -84  213 -84  " fill-rule="nonzero" fill="#cccccc" stroke="none" />
    <path d="M 111 -11  L 111 -64.9  L 155.5 -89.4  L 217.8 -46.28  L 253.4 -74.7  L 289 -46.28  L 289 -11  L 111 -11  " fill-rule="nonzero" fill="#169bd5" stroke="none" />
  </g>
</svg>