<svg xmlns="http://www.w3.org/2000/svg" xmlns:xlink="http://www.w3.org/1999/xlink" width="17" height="17" version="1.1"><g><path fill="#00284d" fill-rule="nonzero" stroke="none" d="M 11.5904269335938 14.0052299414062 L 6.346006875 14.0052299414062 L 6.16340015625 14.0052299414062 C 6.08060755859375 14.0052299414062 6.10448623046875 14.1099388671875 6.23375732421875 14.318276328125 C 6.36302841796875 14.5265256054687 6.5603856640625 14.7553903320312 6.82580703125 15.005862734375 C 7.0889573828125 15.2562248828125 7.4030180078125 15.485067578125 7.76258701171875 15.6933388867187 C 8.12323638671875 15.9016763476562 8.50891095703125 16.0064073242187 8.9171633203125 16.0064073242187 C 8.9341628125 16.0064073242187 8.950126015625 15.9995501953125 8.96710345703125 15.9984257226562 C 8.984125 15.9995722460937 8.99995591796875 16.0064073242187 9.0169994921875 16.0064073242187 C 9.42527390625 16.0064073242187 9.80980193359375 15.9005298242187 10.1727002734375 15.6933388867187 C 10.531122734375 15.4839651367187 10.8464401367187 15.255100390625 11.1095684375 15.005862734375 C 11.3738212109375 14.7554123828125 11.572236796875 14.52654765625 11.70040546875 14.318276328125 C 11.829764765625 14.108814375 11.8547017578125 14.0052299414062 11.7707405859375 14.0052299414062 L 11.5904269335938 14.0052299414062 Z M 16.834913125 12.232895234375 C 16.576282734375 11.8709008984375 16.2870709179687 11.4395415625 15.9661531640625 10.9398315039062 C 15.6462275976562 10.4401214453125 15.3446024023437 9.8880458984375 15.0565370898438 9.2835828125 C 14.7729697070313 8.6780173046875 14.527987421875 8.03823232421875 14.3237950976562 7.36552873046875 C 14.1196689257812 6.6904659375 14.0175837695313 6.00863423828125 14.0175837695313 5.3120519921875 C 14.0175837695313 4.631344765625 13.923480234375 4.01094052734375 13.7419538867188 3.4577184375 C 13.5593912695313 2.9011449609375 13.3144310351563 2.40820384765625 13.0070511328125 1.9768224609375 C 12.7008177734375 1.545352890625 12.3412928710938 1.18567365234375 11.9262054296875 0.893176582031249 C 11.5111179882813 0.600591308593749 11.0721739453125 0.379730234374999 10.60937328125 0.228366406249999 C 10.1239286914063 0.0895041601562494 9.572735078125 0.0132600195312493 9.00908400390625 0.00865185546874958 C 8.9966265234375 0.00865185546874958 8.9830445703125 0.00640289062499955 8.9693523828125 0.00640289062499955 L 8.9682719921875 0.00640289062499955 L 8.96712546875 0.00640289062499955 C 8.95356556640625 0.00640289062499955 8.941063984375 0.00865185546874958 8.92739384765625 0.00865185546874958 C 8.3648451953125 0.0132600195312493 7.81254916015625 0.0895041601562494 7.3282069921875 0.228366406249999 C 6.86432595703125 0.379752265625 6.42542599609375 0.601715781249999 6.00921408203125 0.894301054687499 C 5.5951629296875 1.186798125 5.2345135546875 1.54652146484375 4.93061734375 1.977991015625 C 4.62204681640625 2.40932828125 4.37708658203125 2.9022694140625 4.1945019140625 3.45886494140625 C 4.01191724609375 4.0120649609375 3.91889408203125 4.63249125 3.91889408203125 5.31319849609375 C 3.91889408203125 6.00865625 3.81678689453125 6.69170064453125 3.61266072265625 7.36665318359375 C 3.4073880078125 8.03946701171875 3.16233958984375 8.67803931640625 2.87888244140625 9.2835827734375 C 2.59194162109375 9.888045859375 2.29022822265625 10.44012140625 1.970390859375 10.9398314648437 C 1.650597578125 11.438395 1.36129755859375 11.8697763671875 1.10275537109375 12.2317486523438 L 1.1016308984375 12.2328951757813 C 1.00748326171875 12.3581093164063 0.962151289062502 12.4810965625 0.970022656250002 12.5983291015625 C 0.976879785156252 12.7167081835937 1.00748328125 12.815684453125 1.06302376953125 12.9010787890625 C 1.11635939453125 12.9830335351562 1.18446759765625 13.0501936523437 1.268296484375 13.0991416015625 C 1.26950916015625 13.100288125 1.271758125 13.0991416015625 1.27288259765625 13.100288125 C 1.31709009765625 13.1276284179687 1.37265263671875 13.1355438867188 1.428303359375 13.1470091601562 C 1.455467265625 13.1526536132812 1.48384384765625 13.1708878125 1.51100775390625 13.1708878125 L 1.5314468359375 13 L 16.4073020507813 13 L 16.42769703125 13.1708878125 C 16.4560956640625 13.1708878125 16.4821350976563 13.1515291210937 16.5105116796875 13.1470091601562 C 16.56607421875 13.1355218164062 16.6217029101562 13.1276284179687 16.6659324414062 13.100288125 C 16.6682034570312 13.0991416015625 16.6693058789063 13.100288125 16.67155484375 13.0991416015625 C 16.7543694921875 13.0501716015625 16.8224776953125 12.983011484375 16.8768936914062 12.9010787890625 C 16.9313097070313 12.8168089453125 16.961935234375 12.7178106054687 16.9687041796875 12.5983291015625 C 16.974392734375 12.4810745703125 16.9290387109375 12.3580873242187 16.834913125 12.232895234375 Z" transform="matrix(1 0 0 1 -200 -19 ) matrix(1 0 0 1 200 19 )"/></g></svg>