<svg xmlns="http://www.w3.org/2000/svg" xmlns:xlink="http://www.w3.org/1999/xlink" width="11" height="13" version="1.1"><g><path fill="#000" fill-opacity=".647" fill-rule="nonzero" stroke="none" d="M 9.12485106382979 3.82681481481481 C 9.12485106382979 1.76992592592592 7.49965957446809 0.105925925925926 5.5 0.105925925925926 C 3.50034042553191 0.105925925925926 1.87514893617021 1.77762962962963 1.87514893617021 3.83451851851852 C 1.87514893617021 5.32133333333333 2.72893617021277 6.60785185185185 3.9571914893617 7.20103703703704 C 1.68791489361702 7.88666666666667 0.025276595744681 10.0437037037037 0.025276595744681 12.6013333333333 C 0.025276595744681 12.7631111111111 0.152595744680851 12.8940740740741 0.309872340425532 12.8940740740741 C 0.467148936170213 12.8940740740741 0.594468085106383 12.7631111111111 0.594468085106383 12.6013333333333 C 0.594468085106383 9.8202962962963 2.79634042553191 7.55540740740741 5.5 7.55540740740741 C 7.49965957446809 7.55540740740741 9.12485106382979 5.8837037037037 9.12485106382979 3.82681481481481 Z M 8.54817021276596 3.83451851851852 C 8.54817021276596 5.56014814814815 7.18510638297872 6.96992592592593 5.5 6.96992592592593 C 3.81489361702128 6.96992592592593 2.45182978723404 5.56014814814815 2.45182978723404 3.83451851851852 C 2.45182978723404 2.10118518518518 3.8223829787234 0.699111111111111 5.5 0.699111111111111 C 7.18510638297872 0.699111111111111 8.54817021276596 2.10888888888889 8.54817021276596 3.83451851851852 Z M 10.9672340425532 12.609037037037 C 10.9747234042553 10.8294814814815 10.1883404255319 9.19629629629629 8.81778723404255 8.12548148148148 C 8.69046808510638 8.02533333333333 8.51072340425532 8.04844444444444 8.41336170212766 8.17940740740741 C 8.316 8.31037037037037 8.33846808510638 8.49525925925926 8.46578723404255 8.59540740740741 C 9.69404255319149 9.55837037037037 10.3980425531915 11.0220740740741 10.3980425531915 12.609037037037 C 10.3980425531915 12.7708148148148 10.5253617021277 12.9017777777778 10.6826382978723 12.9017777777778 C 10.839914893617 12.9017777777778 10.9672340425532 12.7708148148148 10.9672340425532 12.609037037037 Z" transform="matrix(1 0 0 1 -13 -10 ) matrix(1 0 0 1 13 10 )"/></g></svg>