<svg xmlns="http://www.w3.org/2000/svg" xmlns:xlink="http://www.w3.org/1999/xlink" width="15" height="14" version="1.1"><g><path fill="#000" fill-opacity=".647" fill-rule="nonzero" stroke="none" d="M 11.8200721153846 11.7049479166667 C 10.5349759615385 13.0963802083333 8.71838942307692 13.8942708333333 6.83653846153846 13.8942708333333 C 3.07680288461539 13.8942708333333 0.0180288461538462 10.8015104166667 0.0180288461538462 7 C 0.0180288461538462 3.19848958333333 3.07680288461538 0.105729166666667 6.83653846153846 0.105729166666667 C 8.71838942307692 0.105729166666667 10.5347956730769 0.903619791666667 11.8200721153846 2.29505208333333 C 11.9610576923077 2.44763020833333 11.9529447115385 2.68716145833333 11.8020432692308 2.82971354166667 C 11.6511418269231 2.972265625 11.4144230769231 2.96424479166667 11.2732572115385 2.811484375 C 10.1289663461538 1.57263020833333 8.51195913461538 0.862239583333334 6.83653846153846 0.862239583333334 C 3.48930288461538 0.862239583333334 0.766225961538462 3.61557291666667 0.766225961538462 7 C 0.766225961538462 10.3844270833333 3.48930288461538 13.1377604166667 6.83653846153846 13.1377604166667 C 8.51195913461538 13.1377604166667 10.1291466346154 12.4273697916667 11.2732572115385 11.188515625 C 11.4142427884615 11.0359375 11.6511418269231 11.027734375 11.8020432692308 11.1702864583333 C 11.9529447115385 11.3128385416667 11.9610576923077 11.5521875 11.8200721153846 11.7049479166667 Z M 14.8725360576923 6.73221354166667 C 15.0183894230769 6.88041666666667 15.0183894230769 7.11958333333333 14.8725360576923 7.26778645833333 L 13.0896634615385 9.06973958333333 C 13.0170072115385 9.14393229166667 12.9212740384615 9.18020833333333 12.8255408653846 9.18020833333333 C 12.7298076923077 9.18020833333333 12.6340745192308 9.14393229166667 12.5606971153846 9.06973958333333 C 12.41484375 8.922265625 12.41484375 8.68236979166667 12.5606971153846 8.53489583333334 L 13.7046274038462 7.37825520833333 L 6.86087740384615 7.37825520833333 C 6.65354567307692 7.37825520833333 6.48677884615385 7.20872395833333 6.48677884615385 7 C 6.48677884615385 6.79127604166667 6.65354567307692 6.62174479166667 6.86087740384615 6.62174479166667 L 13.7046274038462 6.62174479166667 L 12.5606971153846 5.46510416666667 C 12.41484375 5.31763020833333 12.41484375 5.077734375 12.5606971153846 4.93026041666667 C 12.7065504807692 4.78278645833333 12.9438100961538 4.78278645833333 13.0896634615385 4.93026041666667 L 14.8725360576923 6.73221354166667 Z" transform="matrix(1 0 0 1 -12 -12 ) matrix(1 0 0 1 12 12 )"/></g></svg>