<?xml version="1.0" encoding="utf-8"?>
<svg version="1.1" xmlns:xlink="http://www.w3.org/1999/xlink" width="425px" height="190px" xmlns="http://www.w3.org/2000/svg">
  <g transform="matrix(1 0 0 1 -35 -34 )">
    <path d="M 35 34  L 460 34  L 460 224  L 35 224  L 35 34  " fill-rule="nonzero" fill="#cccccc" stroke="none" />
    <path d="M 48 47  L 447 47  L 447 211  L 48 211  L 48 47  " fill-rule="nonzero" fill="#ffffff" stroke="none" />
    <path d="M 270.25 91  C 262.27 91  256 84.73  256 76.75  C 256 68.77  262.27 62.5  270.25 62.5  C 278.23 62.5  284.5 68.77  284.5 76.75  C 284.5 84.73  278.23 91  270.25 91  " fill-rule="nonzero" fill="#cccccc" stroke="none" />
    <path d="M 53 206  L 53 121.3  L 150.25 82.8  L 286.4 164.691764705882  L 364.2 105.9  L 442 164.691764705882  L 442 206  L 53 206  " fill-rule="nonzero" fill="#169bd5" stroke="none" />
  </g>
</svg>