<?xml version="1.0" encoding="utf-8"?>
<svg version="1.1" xmlns:xlink="http://www.w3.org/1999/xlink" width="200px" height="170px" xmlns="http://www.w3.org/2000/svg">
  <defs>
    <mask fill="white" id="clip1148">
      <path d="M 197.666666666667 7  C 199.967853124295 6.81914294651237  200 10.0511733451087  200 12.1568345323741  L 200 166.187363152956  C 200 168.293024340221  198.134519790962 170  195.833333333333 170  L 4.16666666666667 170  C 1.86548020903838 170  0 168.293024340221  0 166.187363152956  L 0 12.1568345323741  C 0 10.0511733451087  1.86548020903838 6.81914294651237  4.16666666666667 7  L 156.111111111111 7  L 167.222222222222 6.81914294651237  L 177.222222222222 0  L 187.222222222222 7  L 197.666666666667 7  Z " fill-rule="evenodd" />
    </mask>
  </defs>
  <g transform="matrix(1 0 0 1 0 -3 )">
    <path d="M 197.666666666667 7  C 199.967853124295 6.81914294651237  200 10.0511733451087  200 12.1568345323741  L 200 166.187363152956  C 200 168.293024340221  198.134519790962 170  195.833333333333 170  L 4.16666666666667 170  C 1.86548020903838 170  0 168.293024340221  0 166.187363152956  L 0 12.1568345323741  C 0 10.0511733451087  1.86548020903838 6.81914294651237  4.16666666666667 7  L 156.111111111111 7  L 167.222222222222 6.81914294651237  L 177.222222222222 0  L 187.222222222222 7  L 197.666666666667 7  Z " fill-rule="nonzero" fill="#ffffff" stroke="none" transform="matrix(1 0 0 1 0 3 )" />
    <path d="M 197.666666666667 7  C 199.967853124295 6.81914294651237  200 10.0511733451087  200 12.1568345323741  L 200 166.187363152956  C 200 168.293024340221  198.134519790962 170  195.833333333333 170  L 4.16666666666667 170  C 1.86548020903838 170  0 168.293024340221  0 166.187363152956  L 0 12.1568345323741  C 0 10.0511733451087  1.86548020903838 6.81914294651237  4.16666666666667 7  L 156.111111111111 7  L 167.222222222222 6.81914294651237  L 177.222222222222 0  L 187.222222222222 7  L 197.666666666667 7  Z " stroke-width="2" stroke="#d7dde4" fill="none" transform="matrix(1 0 0 1 0 3 )" mask="url(#clip1148)" />
  </g>
</svg>