<svg xmlns="http://www.w3.org/2000/svg" xmlns:xlink="http://www.w3.org/1999/xlink" width="200" height="170" version="1.1"><defs><mask id="clip2691" fill="#fff"><path fill-rule="evenodd" d="M 197.666666666667 7 C 199.967853124295 6.81914294651237 200 10.0511733451087 200 12.1568345323741 L 200 166.187363152956 C 200 168.293024340221 198.134519790962 170 195.833333333333 170 L 4.16666666666667 170 C 1.86548020903838 170 0 168.293024340221 0 166.187363152956 L 0 12.1568345323741 C 0 10.0511733451087 1.86548020903838 6.81914294651237 4.16666666666667 7 L 156.111111111111 7 L 167.222222222222 6.81914294651237 L 177.222222222222 0 L 187.222222222222 7 L 197.666666666667 7 Z"/></mask></defs><g><path fill="#fff" fill-rule="nonzero" stroke="none" d="M 197.666666666667 7 C 199.967853124295 6.81914294651237 200 10.0511733451087 200 12.1568345323741 L 200 166.187363152956 C 200 168.293024340221 198.134519790962 170 195.833333333333 170 L 4.16666666666667 170 C 1.86548020903838 170 0 168.293024340221 0 166.187363152956 L 0 12.1568345323741 C 0 10.0511733451087 1.86548020903838 6.81914294651237 4.16666666666667 7 L 156.111111111111 7 L 167.222222222222 6.81914294651237 L 177.222222222222 0 L 187.222222222222 7 L 197.666666666667 7 Z" transform="matrix(1 0 0 1 0 -3 ) matrix(1 0 0 1 0 3 )"/><path fill="none" stroke="#d7dde4" stroke-width="2" d="M 197.666666666667 7 C 199.967853124295 6.81914294651237 200 10.0511733451087 200 12.1568345323741 L 200 166.187363152956 C 200 168.293024340221 198.134519790962 170 195.833333333333 170 L 4.16666666666667 170 C 1.86548020903838 170 0 168.293024340221 0 166.187363152956 L 0 12.1568345323741 C 0 10.0511733451087 1.86548020903838 6.81914294651237 4.16666666666667 7 L 156.111111111111 7 L 167.222222222222 6.81914294651237 L 177.222222222222 0 L 187.222222222222 7 L 197.666666666667 7 Z" mask="url(#clip2691)" transform="matrix(1 0 0 1 0 -3 ) matrix(1 0 0 1 0 3 )"/></g></svg>