<?xml version="1.0" encoding="utf-8"?>
<svg version="1.1" xmlns:xlink="http://www.w3.org/1999/xlink" width="131px" height="80px" xmlns="http://www.w3.org/2000/svg">
  <g transform="matrix(1 0 0 1 -185 -100 )">
    <path d="M 185.5 174.007662835249  C 185.5 174.007662835249  185.5 116  185.5 116  C 185.5 113.514718625761  187.514718625761 111.5  190 111.5  C 190 111.5  233.00345931377 111.5  233.00345931377 111.5  C 233.00345931377 111.5  248.743179037986 100.779872178515  248.743179037986 100.779872178515  C 248.743179037986 100.779872178515  252.494600807379 111.5  252.494600807379 111.5  C 252.494600807379 111.5  311 111.5  311 111.5  C 313.485281374239 111.5  315.5 113.514718625761  315.5 116  C 315.5 116  315.5 174.007662835249  315.5 174.007662835249  C 315.5 176.492944209488  313.485281374239 178.507662835249  311 178.507662835249  C 311 178.507662835249  190 178.507662835249  190 178.507662835249  C 187.514718625761 178.507662835249  185.5 176.492944209488  185.5 174.007662835249  Z " fill-rule="nonzero" fill="#0079fe" stroke="none" />
    <path d="M 185 174.007662835249  C 185 174.007662835249  185 116  185 116  C 185 113.238576250846  187.238576250846 111  190 111  C 190 111  232.849360767939 111  232.849360767939 111  C 232.849360767939 111  249 100  249 100  C 249 100  252.849360767939 111  252.849360767939 111  C 252.849360767939 111  311 111  311 111  C 313.761423749154 111  316 113.238576250846  316 116  C 316 116  316 174.007662835249  316 174.007662835249  C 316 176.769086584403  313.761423749154 179.007662835249  311 179.007662835249  C 311 179.007662835249  190 179.007662835249  190 179.007662835249  C 187.238576250846 179.007662835249  185 176.769086584403  185 174.007662835249  Z M 186 174.007662835249  C 186 176.216801834572  187.790861000677 178.007662835249  190 178.007662835249  C 190 178.007662835249  311 178.007662835249  311 178.007662835249  C 313.209138999323 178.007662835249  315 176.216801834572  315 174.007662835249  C 315 174.007662835249  315 116  315 116  C 315 113.790861000677  313.209138999323 112  311 112  C 311 112  252.139840846819 112  252.139840846819 112  C 252.139840846819 112  248.486358075973 101.55974435703  248.486358075973 101.55974435703  C 248.486358075973 101.55974435703  233.157557859601 112  233.157557859601 112  C 233.157557859601 112  190 112  190 112  C 187.790861000677 112  186 113.790861000677  186 116  C 186 116  186 174.007662835249  186 174.007662835249  Z " fill-rule="nonzero" fill="#0079fe" stroke="none" />
  </g>
</svg>