<svg xmlns="http://www.w3.org/2000/svg" xmlns:xlink="http://www.w3.org/1999/xlink" width="20" height="20" version="1.1"><g><path fill="#fff" fill-rule="nonzero" stroke="none" d="M 185.118131381105 319.409830056251 L 187 313.61803398875 L 188.881868618895 319.409830056251 L 194.971723394364 319.409830056251 L 190.044927387734 322.989356881874 L 191.92679600663 328.781152949375 L 187 325.201626123751 L 182.07320399337 328.781152949375 L 183.955072612266 322.989356881874 L 179.028276605636 319.409830056251 L 185.118131381105 319.409830056251 Z" transform="matrix(1 0 0 1 -177 -312 )"/><path fill="#666" fill-rule="nonzero" stroke="none" d="M 184.754860117102 318.909830056251 L 187 312 L 189.245139882898 318.909830056251 L 196.510565162952 318.909830056251 L 190.632712640027 323.180339887499 L 192.877852522925 330.090169943749 L 187 325.819660112501 L 181.122147477075 330.090169943749 L 183.367287359973 323.180339887499 L 177.489434837048 318.909830056251 L 184.754860117102 318.909830056251 Z M 187 315.2360679775 L 185.481402645107 319.909830056251 L 180.567118374224 319.909830056251 L 184.542857864558 322.798373876249 L 183.024260509666 327.472135955 L 187 324.583592135001 L 190.975739490334 327.472135955 L 189.457142135442 322.798373876249 L 193.432881625776 319.909830056251 L 188.518597354893 319.909830056251 L 187 315.2360679775 Z" transform="matrix(1 0 0 1 -177 -312 )"/></g></svg>