<?xml version="1.0" encoding="utf-8"?>
<svg version="1.1" xmlns:xlink="http://www.w3.org/1999/xlink" width="120px" height="120px" xmlns="http://www.w3.org/2000/svg">
  <g transform="matrix(1 0 0 1 -570 -1253 )">
    <path d="M 571 1257  A 3 3 0 0 1 574 1254 L 686 1254  A 3 3 0 0 1 689 1257 L 689 1369  A 3 3 0 0 1 686 1372 L 574 1372  A 3 3 0 0 1 571 1369 L 571 1257  Z " fill-rule="nonzero" fill="#fafafa" stroke="none" />
    <path d="M 570.5 1257  A 3.5 3.5 0 0 1 574 1253.5 L 686 1253.5  A 3.5 3.5 0 0 1 689.5 1257 L 689.5 1369  A 3.5 3.5 0 0 1 686 1372.5 L 574 1372.5  A 3.5 3.5 0 0 1 570.5 1369 L 570.5 1257  Z " stroke-width="1" stroke-dasharray="9,4" stroke="#000000" fill="none" stroke-opacity="0.149019607843137" stroke-dashoffset="0.5" />
  </g>
</svg>