<?xml version="1.0" encoding="utf-8"?>
<svg version="1.1" xmlns:xlink="http://www.w3.org/1999/xlink" width="60px" height="60px" xmlns="http://www.w3.org/2000/svg">
  <g transform="matrix(1 0 0 1 -545 -1179 )">
    <path d="M 43.9718931776682 32.8143028646401  C 42.6790824010137 39.5916491422136  36.7648887544144 44.4572722465332  29.9299989910873 44.4572722465332  C 26.6039843426497 44.4572722465332  23.4020078950395 43.284663445982  20.8764873297821 41.1913585861473  L 20.2614112153519 41.9304729588494  C 22.9934526494565 44.155476808688  26.4078325950621 45.3727696403552  29.9312777135137 45.3779683632614  C 37.2597628927417 45.3779683632614  43.5409562521167 40.1427880438678  44.9578052870431 32.9984421109636  L 43.9718931776682 32.8143028646401  Z M 38.9822318725211 19.1445233379856  L 39.5998654892491 18.3440291973605  C 36.8677375669344 16.1190257817736  33.4535094863735 14.9013356027415  29.9299989910874 14.8952550705224  C 22.6015138118593 14.8952550705225  16.3177629501866 20.1291566100444  14.9021926951314 27.2760601026914  L 15.8881047470616 27.4601992915702  C 17.1182570333667 20.7467902267723  23.0311719575394 15.8811671224527  29.9299989910874 15.8811671224527  C 33.2547349170983 15.8811671224527  36.4592688095615 17.0512184207062  38.9822318725211 19.1445233379856  Z M 49.758212398716 40.8230801509452  L 48.2198826652601 40.760421660596  L 47.2339706133299 39.8998265893644  L 46.8656921781277 41.2540170764966  L 45.6329823895248 41.9944102290701  L 46.8043124676498 42.7322458219011  L 47.0498314244513 44.0877150889048  L 48.1572242323557 43.2245625153754  L 49.5139722217858 43.3473219937761  C 45.2647040117674 49.6310728554489  38.1203580214183 53.8189613549893  29.9900999791388 53.8189613549893  C 16.9954975549661 53.8189613549894  6.46375720570126 43.2859422258534  6.46375720570131 30.2913398016806  C 6.46375720570126 17.2967373775076  16.9954975549661 6.76627575066945  29.9900999791388 6.76627575066942  C 42.9847024033115 6.76627575066945  53.5177214750028 17.2967373775077  53.5177214750028 30.2913398016806  C 53.5177214750028 35.0955831955224  52.0394927295982 39.5916491422136  49.5753519322637 43.3460432139048  L 49.1431362842858 42.1158909275997  L 49.758212398716 40.8230801509452  Z M 54.5637345724292 30.1685803232798  C 54.5023548045065 16.5576230048056  43.4782978192123 5.53356601951134  29.9299989910874 5.53356601951137  C 16.3177629501866 5.53356601951131  5.2949846873189 16.5576230622503  5.29498462987402 30.1685803232798  C 5.29498457242909 43.779537584309  16.3190416726129 54.8048734069193  29.9299989910873 54.8048734069193  C 43.5396775296902 54.8048734069193  54.5637345724292 43.779537641754  54.5637345724292 30.1685803232798  Z M 57.337331539341 30.1673016008531  C 57.337331539341 45.2564876647319  45.0179062750946 57.5746342065518  29.9299989910873 57.5746341491069  C 14.8408129272086 57.5746341491068  2.52266638538879 45.2564876072871  2.52266638538879 30.1673016008532  C 2.52266638538879 15.0793943168461  14.8408129272087 2.76124777502619  29.9299989910874 2.76124777502613  C 45.0179062750946 2.76124777502613  57.3373315967859 15.0167358264967  57.337331539341 30.1673016008531  Z M 59.3078769207748 30.1673016008532  C 59.30787686333 13.9707227290702  46.1265778054255 0.790702336147518  29.9299989910874 0.790702336147547  C 13.7321413968778 0.790702336147575  0.553399726381429 13.9707227290702  0.553399726381429 30.1685803232798  C 0.553399726381429 46.3651591950627  13.7321413968778 59.5451795879856  29.9299989910873 59.5451795879857  C 46.1265778628703 59.5451795879857  59.3078769782196 46.3638804726364  59.3078769207748 30.1673016008532  Z M 21.3688040232564 47.4111722350445  L 21.3688040232564 47.4124510149157  L 20.3828919138814 46.4265389055406  L 19.9532337682013 47.7206284620664  L 18.7205239795983 48.3357045764966  L 19.8291955099292 49.1988571500261  L 20.0759932466019 50.5530476946032  L 21.1846647769328 49.7538323338495  L 22.5388553215101 49.9980725107798  L 22.109197118385 48.6438820236473  L 22.7242732328153 47.4111722350445  L 21.3688040232564 47.4111722350445  Z M 31.5936456477969 50.3088074602284  L 31.7777848941204 48.9520594707981  L 30.4223156271167 49.3216166284267  L 29.190884618385 48.645160746074  L 29.190884618385 49.999351290651  L 28.2049725090101 50.9238836321033  L 29.5617205558851 51.4174789905592  L 30.1767966703151 52.6489100567356  L 30.9772907534953 51.6016182368827  L 32.3314812980725 51.4174789905592  L 31.5936456477969 50.3088074602284  Z M 40.7072582971534 47.8433879404673  L 40.3990808500028 46.5505771638126  L 39.3530677525762 47.4124510149157  L 37.9362187750947 47.2884127566437  L 38.4924726813446 48.5198438228201  L 37.9362187750947 49.7538323338495  L 39.3530677525762 49.6297940755776  L 40.3990808500027 50.4916679266805  L 40.7072582971534 49.1988571500262  L 41.938689305885 48.5198438228201  L 40.7072582971534 47.8433879404673  Z M 12.4393306202232 20.0089546339415  L 13.794799887227 19.9450174211657  L 14.7794331592857 20.9309294730959  L 15.2730285751866 19.6381186964415  L 16.565839351841 19.0230425820114  L 15.45716782151 18.2225484413866  L 15.27174985276 16.868357954254  L 14.1016985545063 17.6688520374343  L 12.747508067374 17.4834341261289  L 13.1170652250027 18.7775236252099  L 12.4393306202232 20.0089546339415  Z M 28.6384669368593 10.4004678462576  L 28.3903904777601 11.7533796684083  L 29.7445810223373 11.3838224533349  L 31.0386705214182 12.0615570581143  L 31.0386705214181 10.707366570982  L 32.0245825733482 9.78283422952975  L 30.6703920862159 9.29051759350045  L 29.9926574239917 8.06036530719538  L 29.1921633408115 9.10637834717693  L 27.7765930857563 9.2905175935004  L 28.6384669368593 10.4004678462576  Z M 39.475827230977 13.3569253370667  L 39.475827230977 13.3556466146401  L 40.4617393403519 14.34155866657  L 40.8939549883299 13.0487478899159  L 42.1266647769328 12.4323929956144  L 40.9553347562526 11.5705191445114  L 40.7098157994513 10.2150499349528  L 39.6024229915468 11.0155440181328  L 38.2456749446718 10.7700250613314  L 38.6778906500946 12.1242155484636  L 38.0628144782196 13.3569253370666  L 39.475827230977 13.3569253370667  Z M 19.3982585843776 13.4771273131695  L 19.7077148113997 14.8325965801732  L 20.8163863417307 13.9694440066436  L 22.2319565967859 14.093482207471  L 21.6769814704072 12.8620511987394  L 22.2319565967859 11.6306201325629  L 20.8163863417306 11.754658390835  L 19.7077148113997 10.892784539732  L 19.3982585843777 12.122936826037  L 18.1681062980725 12.8006714308167  L 19.3982585843776 13.4771273131695  Z M 20.3854494161791 28.4461114009452  L 22.1692981064365 33.5559747396399  L 14.656673680885 36.2656344937761  L 15.8881047470616 39.6517501302652  C 16.072243993385 40.0826870558165  16.3804213830908 40.2681050245664  16.8113583086424 40.0826870558165  L 22.9084124791387 37.8666227175812  C 23.0938304478887 37.8052429496583  23.2779696367675 37.6198250383534  23.4020078950395 37.4356857920299  C 23.5247673734402 37.1901668352282  23.4020078950395 36.388393972177  22.971070969488 35.0955831955224  L 24.2638817461425 35.0329247051731  C 24.6948186716938 36.6351916514048  24.8175781500947 37.6185462584821  24.6347176836424 37.9893821959821  C 24.4492997148924 38.3602181334819  24.0784637773923 38.6658380783349  23.6488055742674 38.8525347695112  L 16.875295578863 41.2540170764966  C 15.8893835269328 41.6235742341253  15.1502691542307 41.2540170764966  14.7794331592857 40.2067252566437  L 12.5019891105725 33.8641521867907  L 13.6720404088261 33.4332152612393  L 14.2883952456828 35.0968619179487  L 20.6309683729806 32.8181390893644  L 19.5849553329991 29.9857198568276  L 11.5173557810688 32.8795188572871  L 11.1465198435689 31.7708472695115  L 20.3854494161791 28.4461114009452  Z M 27.8341366289549 37.8666227175812  L 25.5566925227969 31.4000113894562  C 25.3712745540468 31.9549865158348  25.1871353651682 32.446024429438  24.9416163509219 33.0009995558166  L 24.1411222677416 31.8936067479121  C 24.8175781500947 30.0470995673056  25.1257555972454 28.0752754060003  25.0029961188446 25.9806918237393  L 26.295806895499 26.1034513021402  C 26.3571866634219 27.0893633540701  26.295806895499 28.1353764514966  26.1103889267491 29.1826682713495  L 29.0041878697637 37.4356857920299  L 27.8341366289549 37.8666227175812  Z M 26.9748202227049 27.8885787722689  L 26.6039843426497 26.8412869524157  L 29.6832012544145 25.7338941445115  L 29.252264328863 24.5625641238312  L 30.4235943495431 24.1329059207064  L 30.8545312750946 25.3029572189599  L 34.1178874906277 24.1329059207064  L 34.4874446482563 25.2415774510372  L 31.2228097102968 26.4116287492907  L 31.5923669253704 27.3975408012209  L 34.4260649377784 26.4116287492907  L 35.718875656988 30.0458208448789  L 32.8250767139733 31.0931126647318  C 33.0693169483483 32.1404044845847  33.1933551491755 33.0009995558166  33.1319753812527 33.6800129404674  C 34.4874446482563 33.8641521867907  35.9656733936608 33.7413927083901  37.5052818495432 33.2477972924892  L 37.6280413279439 34.4792283012209  C 35.9042936257379 34.9728237171218  34.3007479570799 35.0955831955224  32.8250767139733 34.8487855162946  C 32.3928610659953 35.7119380898239  31.5297084350211 36.4497737400997  30.1755179478887 37.1901668352281  L 29.3136440967858 36.3270142042541  C 30.4223156271167 35.8346975682248  31.1614299998189 35.2196213963496  31.5923669253704 34.6032665594931  C 30.7436901398268 34.3479750261725  29.9352410027229 33.9743148214311  29.1908846183851 33.4933162492909  L 29.8686192231645 32.570062630265  C 30.5450751055175 32.9997208333899  31.2240884901682 33.307898280541  31.9632028628703 33.4933162492909  C 31.9544406012417 32.8533108783086  31.8924204947164 32.2151453726469  31.7777848941204 31.5854293007614  L 29.005466649635 32.384644661515  L 27.7126558729806 28.7517313457982  L 30.4235943495431 27.765819293868  L 30.0527584694881 26.7799071844931  L 26.9748202227049 27.8885787722689  Z M 29.6832012544145 31.0317328968091  L 31.3455691886975 30.4140992800812  L 30.7918728421902 28.8744908241988  L 29.1295048504622 29.4921244409267  L 29.6832012544145 31.0317328968091  Z M 32.5168992668225 29.984441134401  L 34.2406469690285 29.3668074602283  L 33.6856717852049 27.8271990043459  L 31.9619240829991 28.4448326210738  L 32.5168992668225 29.984441134401  Z M 42.4335634442124 28.2606934321953  L 39.5998654892491 29.2440479818275  C 40.0308024148006 30.8450362056329  40.0308024148006 32.2618851831145  39.5998654892491 33.5559747396399  L 38.4272566886976 33.0636580461659  C 38.7980926261977 31.7682897672138  38.6753331477968 30.2913398016807  38.1216367438446 28.6903515778755  L 35.9656733936609 22.7160569432245  L 45.3260837222454 19.3286625268644  L 48.6520983706828 28.5062123889967  C 48.9602758178336 29.4307447304488  48.6520983706828 30.0458208448789  47.7275660292307 30.4140992800812  L 46.3132744966021 30.9076946959819  L 45.5728814014733 29.860402876129  C 46.1265778054255 29.7376433977284  46.5587934534034 29.5535041514046  46.928350668477 29.4307447304488  C 47.2991866059771 29.3054277497504  47.4219460843777 28.9998078048974  47.299186605977 28.5062123889967  L 46.6201732213262 26.7198061964414  L 43.6023360200395 27.8284777267725  L 44.8363245310689 31.2772519110556  L 43.6662732328153 31.7081887791623  L 42.4335634442124 28.2606934321953  Z M 41.0141569644329 24.1942856311843  L 40.3377010820798 22.3464997281511  L 37.5052818495432 23.3324118375261  L 38.1817377318961 25.1801977405593  L 41.0141569644329 24.1942856311843  Z M 41.3849929019328 25.2428562309083  L 38.5525736693961 26.2287682828386  L 39.229029551749 28.0752754634454  L 42.0614487842859 27.0893634115149  L 41.3849929019328 25.2428562309083  Z M 42.1867657649843 23.7633487056327  L 45.2046029662711 22.6546771753019  L 44.5255895816204 20.8068912722687  L 41.5077523803336 21.9155628025995  L 42.1867657649843 23.7633487056327  Z M 43.2340575848372 26.6571477060924  L 46.2506160636975 25.6111346661106  L 45.5728814014734 23.7633487056327  L 42.5550442001865 24.8093618030592  L 43.2340575848372 26.6571477060924  Z " fill-rule="nonzero" fill="#cccccc" stroke="none" transform="matrix(1 0 0 1 545 1179 )" />
  </g>
</svg>