<svg xmlns="http://www.w3.org/2000/svg" xmlns:xlink="http://www.w3.org/1999/xlink" width="121" height="110" version="1.1"><g><path fill="#ccc" fill-rule="nonzero" stroke="none" d="M 118.048780487805 100.669642857143 C 118.048780487805 101.933218634618 118.701523296619 103.019062640804 119.69540035257 103.616070848905 C 118.701523477 104.213079916274 118.048780487805 105.298924047934 118.048780487805 106.5625 C 118.048780487805 107.957508115836 118.844377201421 109.135887551534 120.016260162602 109.679006731587 L 120.016260162602 110 L 0 110 L 0 63.3645167668427 C 0.332392817563446 63.403420669646 0.663399884751433 63.4234234234235 0.999866719978673 63.4234234234235 C 5.44314540850327 63.4234234234235 8.93429294948687 59.9351351351351 8.93429294948687 55.4954954954955 C 8.93429294948687 51.0558558558558 5.44314540850327 47.5675675675676 0.999866719978673 47.5675675675676 C 0.663440279920513 47.5675675675676 0.332472297014522 47.5875655186957 0 47.6264481845524 L 0 0 L 120.016260162602 0 L 120.016228852715 0.321006270836029 C 118.844363284003 0.864133062031495 118.048780487805 2.04250408569516 118.048780487805 3.4375 C 118.048780487805 4.70106547531883 118.701512652807 5.78690207749285 119.695357224664 6.38395389857614 C 118.701504593793 6.98096847178868 118.048780487805 8.06679946792297 118.048780487805 9.33035714285714 C 118.048780487805 10.5938248314222 118.70141162743 11.6795911544902 119.694947663142 12.2770571073209 C 118.701325274838 12.8741239422867 118.048780487805 13.9598301874895 118.048780487805 15.2232142857143 C 118.048780487805 16.6188262933799 118.845066169955 17.7976220254307 120.016260162602 18.3437038697157 L 120.01303149178 18.9832044536716 C 118.842916387966 19.5269915606558 118.048780487805 20.7044874615707 118.048780487805 22.0982142857143 C 118.048780487805 23.3618093879887 118.701543262529 24.4476672825645 119.695481295928 25.044593657375 C 118.70155891763 25.6415923899529 118.048780487805 26.7274611740919 118.048780487805 27.9910714285714 C 118.048780487805 29.2546508679986 118.701527080034 30.3404975059702 119.695415685267 30.9374902102341 C 118.701530190319 31.534497320066 118.048780487805 32.6203461215783 118.048780487805 33.8839285714286 C 118.048780487805 35.1475199529219 118.701539418285 36.2333751734448 119.695465710744 36.830317304375 C 118.701552093715 37.4273180269908 118.048780487805 38.5131820644913 118.048780487805 39.7767857142857 C 118.048780487805 41.039916925256 118.701064065687 42.1254414064162 119.693538793136 42.7243327324747 C 118.700708486083 43.3215790112669 118.048780487805 44.4068559787132 118.048780487805 45.6696428571429 C 118.048780487805 46.9333427975897 118.701651584087 48.019276036053 119.695920528397 48.6157584493083 C 118.701751238553 49.212701071232 118.048780487805 50.2987036174394 118.048780487805 51.5625 C 118.048780487805 52.9575061849707 118.844374999012 54.1358842894842 120.016260162602 54.678994011291 L 120.016807979784 55.3207379276043 C 118.844625405714 55.8637448604307 118.048780487805 57.0422742990509 118.048780487805 58.4375 C 118.048780487805 59.7010539797653 118.701500776124 60.7868823202228 119.695309116859 61.3839827978298 C 118.701483530278 61.9810035120637 118.048780487805 63.0668198556952 118.048780487805 64.3303571428572 C 118.048780487805 65.5938902085501 118.701479168933 66.6797035182394 119.695221456562 67.276892602645 C 118.701445149379 67.8739245052748 118.048780487805 68.9597141489919 118.048780487805 70.2232142857143 C 118.048780487805 71.4867893971428 118.701522608481 72.5726329246506 119.695397627778 73.1696439142253 C 118.701522283969 73.766653329464 118.048780487805 74.8524966312371 118.048780487805 76.1160714285714 C 118.048780487805 77.379657990477 118.701534438791 78.4655097472514 119.695445525063 79.0624722862747 C 118.701543255505 79.6594755862618 118.048780487805 80.7453334759522 118.048780487805 82.0089285714286 C 118.048780487805 83.2725137643558 118.701533024395 84.3583645372699 119.695439790797 84.9553328735182 C 118.701540744786 85.5523369056553 118.048780487805 86.6381930488924 118.048780487805 87.9017857142857 C 118.048780487805 89.2968041734981 118.844388999469 90.4751907401453 120.016260162602 91.0183605903752 L 120.016256374543 91.6602792296759 C 118.844375740451 92.2034003266356 118.048780487805 93.381778879291 118.048780487805 94.7767857142857 C 118.048780487805 96.0403541981125 118.701515761079 97.1261929624603 119.695369802823 97.7232320571062 C 118.70151010103 98.3202450246016 118.048780487805 99.4060798517046 118.048780487805 100.669642857143 Z"/></g></svg>