<?xml version="1.0" encoding="utf-8"?>
<svg version="1.1" xmlns:xlink="http://www.w3.org/1999/xlink" width="535px" height="244px" xmlns="http://www.w3.org/2000/svg">
  <defs>
    <mask fill="white" id="clip2748">
      <path d="M 533.717026378897 243.8475  L 0.855315747402078 243.8475  C 0.256594724220624 243.8475  -0.21382893685052 243.512  0.21382893685052 243.085  L 0.21382893685052 0  L 534.786171063149 0  L 534.786171063149 243.085  C 534.786171063149 243.512  534.315747402078 243.8475  533.717026378897 243.8475  Z " fill-rule="evenodd" />
    </mask>
  </defs>
  <g transform="matrix(1 0 0 1 0 -50 )">
    <path d="M 533.717026378897 243.8475  L 0.855315747402078 243.8475  C 0.256594724220624 243.8475  -0.21382893685052 243.512  0.21382893685052 243.085  L 0.21382893685052 0  L 534.786171063149 0  L 534.786171063149 243.085  C 534.786171063149 243.512  534.315747402078 243.8475  533.717026378897 243.8475  Z " fill-rule="nonzero" fill="#ffffff" stroke="none" transform="matrix(1 0 0 1 0 50 )" />
    <path d="M 533.717026378897 243.8475  L 0.855315747402078 243.8475  C 0.256594724220624 243.8475  -0.21382893685052 243.512  0.21382893685052 243.085  L 0.21382893685052 0  L 534.786171063149 0  L 534.786171063149 243.085  C 534.786171063149 243.512  534.315747402078 243.8475  533.717026378897 243.8475  Z " stroke-width="2" stroke="#e4e4e4" fill="none" transform="matrix(1 0 0 1 0 50 )" mask="url(#clip2748)" />
  </g>
</svg>