<svg xmlns="http://www.w3.org/2000/svg" xmlns:xlink="http://www.w3.org/1999/xlink" width="535" height="244" version="1.1"><defs><mask id="clip2748" fill="#fff"><path fill-rule="evenodd" d="M 533.717026378897 243.8475 L 0.855315747402078 243.8475 C 0.256594724220624 243.8475 -0.21382893685052 243.512 0.21382893685052 243.085 L 0.21382893685052 0 L 534.786171063149 0 L 534.786171063149 243.085 C 534.786171063149 243.512 534.315747402078 243.8475 533.717026378897 243.8475 Z"/></mask></defs><g><path fill="#fff" fill-rule="nonzero" stroke="none" d="M 533.717026378897 243.8475 L 0.855315747402078 243.8475 C 0.256594724220624 243.8475 -0.21382893685052 243.512 0.21382893685052 243.085 L 0.21382893685052 0 L 534.786171063149 0 L 534.786171063149 243.085 C 534.786171063149 243.512 534.315747402078 243.8475 533.717026378897 243.8475 Z" transform="matrix(1 0 0 1 0 -50 ) matrix(1 0 0 1 0 50 )"/><path fill="none" stroke="#e4e4e4" stroke-width="2" d="M 533.717026378897 243.8475 L 0.855315747402078 243.8475 C 0.256594724220624 243.8475 -0.21382893685052 243.512 0.21382893685052 243.085 L 0.21382893685052 0 L 534.786171063149 0 L 534.786171063149 243.085 C 534.786171063149 243.512 534.315747402078 243.8475 533.717026378897 243.8475 Z" mask="url(#clip2748)" transform="matrix(1 0 0 1 0 -50 ) matrix(1 0 0 1 0 50 )"/></g></svg>