<svg xmlns="http://www.w3.org/2000/svg" xmlns:xlink="http://www.w3.org/1999/xlink" width="1252" height="330" version="1.1"><defs><mask id="clip2749" fill="#fff"><path fill-rule="evenodd" d="M 1248.99760191847 329.79375 L 2.00159872102318 329.79375 C 0.600479616306956 329.79375 -0.500399680255795 329.34 0.500399680255795 328.7625 L 0.500399680255795 0 L 1251.49960031974 0 L 1251.49960031974 328.7625 C 1251.49960031974 329.34 1250.39872102318 329.79375 1248.99760191847 329.79375 Z"/></mask></defs><g><path fill="#fff" fill-rule="nonzero" stroke="none" d="M 1248.99760191847 329.79375 L 2.00159872102318 329.79375 C 0.600479616306956 329.79375 -0.500399680255795 329.34 0.500399680255795 328.7625 L 0.500399680255795 0 L 1251.49960031974 0 L 1251.49960031974 328.7625 C 1251.49960031974 329.34 1250.39872102318 329.79375 1248.99760191847 329.79375 Z" transform="matrix(1 0 0 1 -24 -445 ) matrix(1 0 0 1 24 445 )"/><path fill="none" stroke="#e4e4e4" stroke-width="2" d="M 1248.99760191847 329.79375 L 2.00159872102318 329.79375 C 0.600479616306956 329.79375 -0.500399680255795 329.34 0.500399680255795 328.7625 L 0.500399680255795 0 L 1251.49960031974 0 L 1251.49960031974 328.7625 C 1251.49960031974 329.34 1250.39872102318 329.79375 1248.99760191847 329.79375 Z" mask="url(#clip2749)" transform="matrix(1 0 0 1 -24 -445 ) matrix(1 0 0 1 24 445 )"/></g></svg>