<svg xmlns="http://www.w3.org/2000/svg" xmlns:xlink="http://www.w3.org/1999/xlink" width="60" height="60" version="1.1"><g><path fill="#ccc" fill-rule="nonzero" stroke="none" d="M 47.1855468749999 54.5859375000001 C 60.76171875 45.09375 64.0781249999999 26.390625 54.5859375 12.814453125 C 45.0937499999999 -0.761718749999933 26.3906249999999 -4.07812499999993 12.8144531250001 5.41406249999993 C -0.76171875 14.90625 -4.07812499999994 33.609375 5.4140625 47.185546875 C 14.9062500000001 60.7617187499999 33.6093750000001 64.0781249999999 47.1855468749999 54.5859375000001 Z M 14.220703125 7.423828125 C 26.689453125 -1.2890625 43.8574218750001 1.75195312499993 52.576171875 14.220703125 C 61.2890625000001 26.689453125 58.2480468749999 43.8574218750001 45.779296875 52.576171875 C 33.310546875 61.2890624999999 16.1425781249999 58.2480468750001 7.423828125 45.779296875 C -1.28906250000006 33.310546875 1.751953125 16.13671875 14.220703125 7.423828125 Z M 45.3243421875 51.6665062500001 C 56.9623593750001 43.5356765624999 59.7973359375 27.5078296875001 51.6665062499999 15.8756578124999 C 43.52983125 4.24348593750001 27.5078296875 1.40266406249994 15.8756578125 9.53349374999989 C 4.24348593749994 17.6701687500001 1.40266406249998 33.6921703124999 9.53349375000005 45.3243421875001 C 17.6643234375 56.9565140625 33.686325 59.7973359375001 45.3243421875 51.6665062500001 Z M 50.6669578125001 16.57125 C 58.4119968749999 27.6539624999999 55.7056171875 42.9160734375 44.62875 50.6669578124999 C 38.4978292880458 54.951488373333 31.0879012241078 56.037606143471 24.3781063134401 54.2775981328492 C 24.3612881187841 54.2730718925895 24.3444729547775 54.2685273453826 24.3276608619996 54.2639644992665 C 18.9852972515012 52.8140329902075 13.9530577509258 49.5163288029353 10.5330421874999 44.6287500000002 C 2.78800312499999 33.5460375000001 5.49438281250013 18.2839265624999 16.57125 10.5330421875 C 27.6539624999999 2.78800312499982 42.9160734375 5.49438281250011 50.6669578125001 16.57125 Z M 40.970625 28.257421875 C 41.8438235294119 28.584521484375 42.5658915441175 28.91162109375 43.131231617647 29.2446679687499 L 43.4222977941176 28.3942089843751 L 44.5473805147058 28.5607324218749 C 44.5921599264706 27.1274414062499 44.2227297794117 25.6644140625001 43.4446875 24.1657031249998 L 45.1519025735294 22.8929882812501 L 46.4169209558823 24.8139550781249 C 46.6184283088236 25.123212890625 46.6072334558824 25.3551562499999 46.3889338235294 25.5216796875 C 46.2042187499999 25.6584667968751 45.8571783088236 25.8904101562498 45.3590073529413 26.2234570312501 L 46.2713878676472 27.0203906249998 L 47.3181066176471 26.2412988281249 C 47.9730055147058 25.753623046875 48.0737591911765 25.158896484375 47.6147702205882 24.46306640625 L 42.101305147059 16.1012109374999 L 38.5469393382353 18.7477441406249 L 41.9053952205883 23.8445507812501 C 42.8009834558824 25.22431640625 43.2767647058824 26.5981347656249 43.3327389705883 27.966005859375 C 42.7953860294116 27.7102734375002 42.1404871323529 27.46048828125 41.3736397058823 27.216650390625 L 40.970625 28.257421875 Z M 42.6907661190713 31.3789225260415 C 42.577959486166 35.3253344726562 40.6305607707511 39.1668196614582 37.0860576210474 41.5976228841148 C 33.541554471344 44.0342553710937 29.1955305088932 44.50642578125 25.3838537549407 43.2531339518228 L 24.107357645751 44.1275236002602 C 28.4890047554347 45.8763028971353 33.6543611042491 45.4857421875 37.8163321393281 42.6294026692708 C 41.9783031744072 39.7730631510416 44.1394407732213 35.1446272786458 43.9672622282608 30.5045328776041 L 42.6907661190713 31.3789225260415 Z M 32.9843489583334 33.9439208984376 L 34.3702821180554 32.9471166992189 C 35.0632486979167 32.4574584960937 35.1835156249999 31.880361328125 34.7253559027778 31.2158251953125 L 31.6556857638889 26.7506087239584 L 33.0301649305557 25.7712923177084 L 32.3658333333332 24.8094637044271 L 30.9913541666666 25.7887801106771 L 29.8860438368056 24.179903157552 L 28.9010004340277 24.8852441406248 L 30.0063107638887 26.4941210937501 L 26.3410329861112 29.1056315104166 L 27.0053645833333 30.0674601236979 L 30.6706423611111 27.4559497070311 L 33.5742296006944 31.6821663411459 C 33.7288585069444 31.9036783854168 33.6715885416666 32.1077026367188 33.4138736979166 32.294239095052 C 33.0187109375 32.579873046875 32.583459201389 32.859677734375 32.1081184895834 33.133653157552 L 32.9843489583334 33.9439208984376 Z M 40.970625 28.257421875 C 41.8438235294119 28.584521484375 42.5658915441175 28.91162109375 43.131231617647 29.2446679687499 L 43.4222977941176 28.3942089843751 L 44.5473805147058 28.5607324218749 C 44.5921599264706 27.1274414062499 44.2227297794117 25.6644140625001 43.4446875 24.1657031249998 L 45.1519025735294 22.8929882812501 L 46.4169209558823 24.8139550781249 C 46.6184283088236 25.123212890625 46.6072334558824 25.3551562499999 46.3889338235294 25.5216796875 C 46.2042187499999 25.6584667968751 45.8571783088236 25.8904101562498 45.3590073529413 26.2234570312501 L 46.2713878676472 27.0203906249998 L 47.3181066176471 26.2412988281249 C 47.9730055147058 25.753623046875 48.0737591911765 25.158896484375 47.6147702205882 24.46306640625 L 42.101305147059 16.1012109374999 L 38.5469393382353 18.7477441406249 L 41.9053952205883 23.8445507812501 C 42.8009834558824 25.22431640625 43.2767647058824 26.5981347656249 43.3327389705883 27.966005859375 C 42.7953860294116 27.7102734375002 42.1404871323529 27.46048828125 41.3736397058823 27.216650390625 L 40.970625 28.257421875 Z M 32.9843489583334 33.9439208984376 L 34.3702821180554 32.9471166992189 C 35.0632486979167 32.4574584960937 35.1835156249999 31.880361328125 34.7253559027778 31.2158251953125 L 31.6556857638889 26.7506087239584 L 33.0301649305557 25.7712923177084 L 32.3658333333332 24.8094637044271 L 30.9913541666666 25.7887801106771 L 29.8860438368056 24.179903157552 L 28.9010004340277 24.8852441406248 L 30.0063107638887 26.4941210937501 L 26.3410329861112 29.1056315104166 L 27.0053645833333 30.0674601236979 L 30.6706423611111 27.4559497070311 L 33.5742296006944 31.6821663411459 C 33.7288585069444 31.9036783854168 33.6715885416666 32.1077026367188 33.4138736979166 32.294239095052 C 33.0187109375 32.579873046875 32.583459201389 32.859677734375 32.1081184895834 33.133653157552 L 32.9843489583334 33.9439208984376 Z M 42.6907661190713 31.3789225260415 C 42.577959486166 35.3253344726562 40.6305607707511 39.1668196614582 37.0860576210474 41.5976228841148 C 33.541554471344 44.0342553710937 29.1955305088932 44.50642578125 25.3838537549407 43.2531339518228 L 24.107357645751 44.1275236002602 C 28.4890047554347 45.8763028971353 33.6543611042491 45.4857421875 37.8163321393281 42.6294026692708 C 41.9783031744072 39.7730631510416 44.1394407732213 35.1446272786458 43.9672622282608 30.5045328776041 L 42.6907661190713 31.3789225260415 Z M 40.970625 28.257421875 C 41.8438235294119 28.584521484375 42.5658915441175 28.91162109375 43.131231617647 29.2446679687499 L 43.4222977941176 28.3942089843751 L 44.5473805147058 28.5607324218749 C 44.5921599264706 27.1274414062499 44.2227297794117 25.6644140625001 43.4446875 24.1657031249998 L 45.1519025735294 22.8929882812501 L 46.4169209558823 24.8139550781249 C 46.6184283088236 25.123212890625 46.6072334558824 25.3551562499999 46.3889338235294 25.5216796875 C 46.2042187499999 25.6584667968751 45.8571783088236 25.8904101562498 45.3590073529413 26.2234570312501 L 46.2713878676472 27.0203906249998 L 47.3181066176471 26.2412988281249 C 47.9730055147058 25.753623046875 48.0737591911765 25.158896484375 47.6147702205882 24.46306640625 L 42.101305147059 16.1012109374999 L 38.5469393382353 18.7477441406249 L 41.9053952205883 23.8445507812501 C 42.8009834558824 25.22431640625 43.2767647058824 26.5981347656249 43.3327389705883 27.966005859375 C 42.7953860294116 27.7102734375002 42.1404871323529 27.46048828125 41.3736397058823 27.216650390625 L 40.970625 28.257421875 Z M 42.6907661190713 31.3789225260415 C 42.577959486166 35.3253344726562 40.6305607707511 39.1668196614582 37.0860576210474 41.5976228841148 C 33.541554471344 44.0342553710937 29.1955305088932 44.50642578125 25.3838537549407 43.2531339518228 L 24.107357645751 44.1275236002602 C 28.4890047554347 45.8763028971353 33.6543611042491 45.4857421875 37.8163321393281 42.6294026692708 C 41.9783031744072 39.7730631510416 44.1394407732213 35.1446272786458 43.9672622282608 30.5045328776041 L 42.6907661190713 31.3789225260415 Z M 32.9843489583334 33.9439208984376 L 34.3702821180554 32.9471166992189 C 35.0632486979167 32.4574584960937 35.1835156249999 31.880361328125 34.7253559027778 31.2158251953125 L 31.6556857638889 26.7506087239584 L 33.0301649305557 25.7712923177084 L 32.3658333333332 24.8094637044271 L 30.9913541666666 25.7887801106771 L 29.8860438368056 24.179903157552 L 28.9010004340277 24.8852441406248 L 30.0063107638887 26.4941210937501 L 26.3410329861112 29.1056315104166 L 27.0053645833333 30.0674601236979 L 30.6706423611111 27.4559497070311 L 33.5742296006944 31.6821663411459 C 33.7288585069444 31.9036783854168 33.6715885416666 32.1077026367188 33.4138736979166 32.294239095052 C 33.0187109375 32.579873046875 32.583459201389 32.859677734375 32.1081184895834 33.133653157552 L 32.9843489583334 33.9439208984376 Z M 34.5223897058823 22.9524609375001 L 33.9794393382351 23.356875 L 34.6007536764706 24.2965429687501 L 35.1437040441175 23.89212890625 L 37.9648069852941 28.1622656250001 L 37.3099080882354 28.6499414062499 L 37.9312224264706 29.589609375 L 42.7394117647059 26.0093554687499 L 42.1180974264707 25.0696875 L 41.5471599264706 25.4978906249999 L 38.7260569852941 21.221806640625 L 39.2466176470589 20.8352343749998 L 38.6253033088234 19.8955664062501 L 38.1047426470587 20.2821386718751 L 37.3938694852941 19.2056835937502 L 36.470294117647 19.8955664062501 L 37.1811672794117 20.972021484375 L 35.4459650735294 22.262578125 L 34.7238970588234 21.162333984375 L 33.8003216911764 21.8522167968751 L 34.5223897058823 22.9524609375001 Z M 19.5254231770834 13.3803385416667 L 17.3051106770833 11.7018880208333 L 18.1112955729167 14.3649414062499 L 15.8315104166666 15.9574869791666 L 18.6135091145833 16.0103515625001 L 19.4263020833333 18.6734049479168 L 20.3382161458333 16.0433919270832 L 23.1136067708333 16.0896484375 L 20.8932942708333 14.4178059895834 L 21.8052083333333 11.7877929687501 L 19.5254231770834 13.3803385416667 Z M 12.3387451171876 29.0726806640624 L 14.0974365234375 27.052734375 L 11.4848876953124 27.6517089843751 L 10.1085205078126 25.3513916015624 L 9.87275390625001 28.0212890625 L 7.25383300781255 28.6266357421875 L 9.72619628906256 29.6780273437499 L 9.49042968750001 32.3479248046875 L 11.24912109375 30.3216064453125 L 13.721484375 31.372998046875 L 12.3387451171876 29.0726806640624 Z M 43.8948893229166 50.6981119791668 L 43.0887044270834 48.03505859375 L 45.3684895833334 46.4425130208334 L 42.5864908854167 46.3896484374999 L 41.7736979166667 43.7265950520831 L 40.8617838541667 46.3566080729167 L 38.0863932291666 46.3103515625001 L 40.3067057291666 47.9821940104166 L 39.3947916666667 50.6122070312499 L 41.6745768229166 49.0196614583332 L 43.8948893229166 50.6981119791668 Z M 16.1326554361979 40.4917244944853 L 22.5856510416666 36.0762545955882 L 19.5077994791667 31.7918244485294 L 11.574170735677 37.2214280790441 L 12.2387068684895 38.1501011029409 L 19.1697021484376 33.4041831341911 L 20.9126521809895 35.8369646139705 L 15.4681193033854 39.5630514705881 L 14.4713151041666 38.1671932444854 L 13.468681640625 38.8565762867645 L 17.2810205078125 44.1836270680145 C 17.9164103190103 45.066721047794 18.6683854166666 45.2148529411764 19.5311165364583 44.6223253676471 L 25.3312345377604 40.651251148897 C 25.7334537760415 40.3435926011029 25.9841121419271 39.9960523897059 26.0715511067709 39.5972357536764 C 26.1123559570312 39.2041164981618 25.7392830403646 38.3267198988971 24.9465030924478 36.9593485753677 L 23.7573331705728 37.318283547794 C 24.4685034179689 38.4349701286764 24.800771484375 39.1186557904409 24.7483081054688 39.3807352941178 C 24.6900154622396 39.6029331341909 24.5676009114582 39.7738545496323 24.3868937174478 39.899196920956 L 19.1405558268229 43.4885466452206 C 18.7558243815105 43.750626148897 18.429385579427 43.6936523437501 18.15541015625 43.3119278492646 L 16.1326554361979 40.4917244944853 Z M 32.8155029296876 10.8545572916665 L 34.5041015625 13.0220052083333 L 33.038525390625 15.3546549479168 L 35.5427490234375 14.3568359375001 L 37.23134765625 16.5176757812499 L 37.091162109375 13.74228515625 L 39.5953857421874 12.7444661458334 L 37.0083251953125 12.0241861979168 L 36.8681396484375 9.24879557291661 L 35.4025634765625 11.5814453124999 L 32.8155029296876 10.8545572916665 Z M 16.0327377717392 30.6954671223958 L 17.3092338809288 29.8210774739584 C 17.4220405138341 25.8746655273438 19.3694392292489 22.0331803385418 22.9139423789525 19.6023771158852 C 26.4584455286559 17.1715738932294 30.8044694911068 16.6935742187499 34.6161462450592 17.9468660481772 L 35.8926423542491 17.0724763997397 C 31.5109952445652 15.3236971028647 26.3456388957509 15.7142578125001 22.1836678606719 18.5705973307292 C 18.0216968255928 21.4269368489584 15.8605592267787 26.0553727213542 16.0327377717392 30.6954671223958 Z M 39.2186305147058 28.8521484375001 C 39.313786764706 29.8156054687499 39.2857996323529 30.725537109375 39.1346691176471 31.587890625 L 40.2653492647057 31.6057324218752 C 40.3828952205881 30.6720117187499 40.3772977941177 29.6966601562499 40.2373621323529 28.6856249999999 L 39.2186305147058 28.8521484375001 Z M 23.0537369791667 29.146436360677 L 22.8361111111112 30.2656551106769 C 23.9356944444445 30.3414355468747 24.8978298611111 30.5046549479168 25.7225173611112 30.749484049479 L 25.9344162326389 29.5253385416665 C 25.08109375 29.3213142903646 24.1189583333334 29.1988997395833 23.0537369791667 29.146436360677 Z M 49.8914794921875 35.8486083984375 L 50.1272460937499 33.1787109375001 L 52.7461669921875 32.5733642578126 L 50.2738037109375 31.52197265625 L 50.5095703124999 28.8520751953125 L 48.75087890625 30.8783935546875 L 46.2785156250001 29.8270019531249 L 47.6612548828125 32.1273193359375 L 45.9025634765625 34.1472656250001 L 48.5151123046876 33.548291015625 L 49.8914794921875 35.8486083984375 Z M 34.8971657986111 33.2793847656249 L 36.3060069444444 32.2592635091147 C 36.7756206597223 31.8920198567708 37.1364214409722 31.6063859049478 37.3826822916668 31.3965323893227 L 37.8351150173611 32.5682145182292 L 35.6645833333332 34.118798828125 C 35.3095095486111 34.3752864583333 34.6680859374999 34.8183105468751 33.7403125000001 35.4595296223957 C 33.0416189236111 35.943358561198 32.4345572916666 36.293114420573 31.9134006076389 36.497138671875 C 31.4036979166667 36.6720166015627 30.8596332465278 36.7011629231773 30.2812065972223 36.5729191080728 C 30.0177647569444 36.5029679361979 29.8230468749999 36.5146264648439 29.6913259548612 36.6020654296875 C 29.4737000868055 36.7594555664064 29.4278841145833 37.5114306640625 29.5596050347222 38.8579907226564 L 28.3741167534723 38.6889420572916 C 28.2996657986112 37.4531380208333 28.3970247395832 36.5729191080729 28.6604665798611 36.0541145833332 L 26.6331098090278 33.1045068359375 L 25.2357226562501 34.1013110351563 L 24.5828450520834 33.1686287434894 L 26.9137326388888 31.5072884114583 L 29.6397829861112 35.4711881510415 C 29.7199609374999 35.4653588867189 29.8115928819444 35.4828466796875 29.9146788194446 35.511993001302 C 30.3499305555555 35.6052612304688 30.7508203125 35.6285782877604 31.1173480902779 35.5702856445314 C 31.5411458333332 35.4886759440106 32.0737565104167 35.2321883138021 32.7151801215279 34.8008227539059 C 33.534140625 34.2412133789062 34.2614691840278 33.7282381184896 34.8971657986111 33.2793847656249 Z M 31.1230750868055 32.1077026367188 C 30.39001953125 31.7229711914063 29.4794270833333 31.3557275390624 28.37984375 30.9943131510417 L 28.8093684895833 29.9217285156249 C 29.9204058159722 30.2598258463542 30.8309982638888 30.5979231770832 31.5411458333333 30.9360205078126 L 31.1230750868055 32.1077026367188 Z M 16.0327377717392 30.6954671223958 L 17.3092338809288 29.8210774739584 C 17.4220405138341 25.8746655273438 19.3694392292489 22.0331803385418 22.9139423789525 19.6023771158852 C 26.4584455286559 17.1715738932294 30.8044694911068 16.6935742187499 34.6161462450592 17.9468660481772 L 35.8926423542491 17.0724763997397 C 31.5109952445652 15.3236971028647 26.3456388957509 15.7142578125001 22.1836678606719 18.5705973307292 C 18.0216968255928 21.4269368489584 15.8605592267787 26.0553727213542 16.0327377717392 30.6954671223958 Z M 49.8914794921875 35.8486083984375 L 50.1272460937499 33.1787109375001 L 52.7461669921875 32.5733642578126 L 50.2738037109375 31.52197265625 L 50.5095703124999 28.8520751953125 L 48.75087890625 30.8783935546875 L 46.2785156250001 29.8270019531249 L 47.6612548828125 32.1273193359375 L 45.9025634765625 34.1472656250001 L 48.5151123046876 33.548291015625 L 49.8914794921875 35.8486083984375 Z M 32.8155029296876 10.8545572916665 L 34.5041015625 13.0220052083333 L 33.038525390625 15.3546549479168 L 35.5427490234375 14.3568359375001 L 37.23134765625 16.5176757812499 L 37.091162109375 13.74228515625 L 39.5953857421874 12.7444661458334 L 37.0083251953125 12.0241861979168 L 36.8681396484375 9.24879557291661 L 35.4025634765625 11.5814453124999 L 32.8155029296876 10.8545572916665 Z M 25.7225173611112 30.749484049479 C 24.8978298611111 30.5046549479168 23.9356944444445 30.3414355468747 22.8361111111112 30.2656551106769 L 23.0537369791667 29.146436360677 C 24.1189583333334 29.1988997395833 25.08109375 29.3213142903646 25.9344162326389 29.5253385416665 L 25.7225173611112 30.749484049479 Z M 12.3387451171876 29.0726806640624 L 13.721484375 31.372998046875 L 11.24912109375 30.3216064453125 L 9.49042968750001 32.3479248046875 L 9.72619628906256 29.6780273437499 L 7.25383300781255 28.6266357421875 L 9.87275390625001 28.0212890625 L 10.1085205078126 25.3513916015624 L 11.4848876953124 27.6517089843751 L 14.0974365234375 27.052734375 L 12.3387451171876 29.0726806640624 Z M 26.0899088541667 11.5021484375001 L 23.3541666666667 11.9845377604165 L 25.8520182291666 13.2070312500001 L 25.4621419270835 15.96259765625 L 27.3983072916666 13.9603515624999 L 29.8961588541667 15.1828450520833 L 28.5943684895834 12.7246419270831 L 30.52392578125 10.7223958333333 L 27.78818359375 11.2047851562502 L 26.47978515625 8.74658203125 L 26.0899088541667 11.5021484375001 Z M 19.5077994791667 31.7918244485294 L 22.5856510416666 36.0762545955882 L 16.1326554361979 40.4917244944853 L 18.15541015625 43.3119278492646 C 18.429385579427 43.6936523437501 18.7558243815105 43.750626148897 19.1405558268229 43.4885466452206 L 24.3868937174478 39.899196920956 C 24.5676009114582 39.7738545496323 24.6900154622396 39.6029331341909 24.7483081054688 39.3807352941178 C 24.800771484375 39.1186557904409 24.4685034179689 38.4349701286764 23.7573331705728 37.318283547794 L 24.9465030924478 36.9593485753677 C 25.7392830403646 38.3267198988971 26.1123559570312 39.2041164981618 26.0715511067709 39.5972357536764 C 25.9841121419271 39.9960523897059 25.7334537760415 40.3435926011029 25.3312345377604 40.651251148897 L 19.5311165364583 44.6223253676471 C 18.6683854166666 45.2148529411764 17.9164103190103 45.066721047794 17.2810205078125 44.1836270680145 L 13.468681640625 38.8565762867645 L 14.4713151041666 38.1671932444854 L 15.4681193033854 39.5630514705881 L 20.9126521809895 35.8369646139705 L 19.1697021484376 33.4041831341911 L 12.2387068684895 38.1501011029409 L 11.574170735677 37.2214280790441 L 19.5077994791667 31.7918244485294 Z M 18.1112955729167 14.3649414062499 L 17.3051106770833 11.7018880208333 L 19.5254231770834 13.3803385416667 L 21.8052083333333 11.7877929687501 L 20.8932942708333 14.4178059895834 L 23.1136067708333 16.0896484375 L 20.3382161458333 16.0433919270832 L 19.4263020833333 18.6734049479168 L 18.6135091145833 16.0103515625001 L 15.8315104166666 15.9574869791666 L 18.1112955729167 14.3649414062499 Z M 43.8948893229166 50.6981119791668 L 41.6745768229166 49.0196614583332 L 39.3947916666667 50.6122070312499 L 40.3067057291666 47.9821940104166 L 38.0863932291666 46.3103515625001 L 40.8617838541667 46.3566080729167 L 41.7736979166667 43.7265950520831 L 42.5864908854167 46.3896484374999 L 45.3684895833334 46.4425130208334 L 43.0887044270834 48.03505859375 L 43.8948893229166 50.6981119791668 Z M 45.8114501953125 40.7749674479168 L 43.358203125 41.9049479166668 L 45.9834960937499 42.4798502604167 L 46.2638671875001 45.2486328125 L 47.6083740234374 42.8432942708332 L 50.2272949218749 43.4248046875 L 48.4367431640624 41.3564778645833 L 49.7812500000001 38.94453125 L 47.3280029296876 40.07451171875 L 45.537451171875 38.0061848958334 L 45.8114501953125 40.7749674479168 Z M 33.8016927083333 49.6396484375001 L 31.3038411458334 48.4171549479167 L 32.6056315104166 50.8753580729169 L 30.6760742187499 52.8776041666668 L 33.41181640625 52.3952148437499 L 34.66434410439 54.7484487080872 L 35.1100911458333 52.0978515624999 L 37.8458333333333 51.6154622395834 L 35.3479817708333 50.39296875 L 35.7378580729165 47.6374023437499 L 33.8016927083333 49.6396484375001 Z M 39.2186305147058 28.8521484375001 C 39.313786764706 29.8156054687499 39.2857996323529 30.725537109375 39.1346691176471 31.587890625 L 40.2653492647057 31.6057324218752 C 40.3828952205881 30.6720117187499 40.3772977941177 29.6966601562499 40.2373621323529 28.6856249999999 L 39.2186305147058 28.8521484375001 Z M 24.108837890625 49.85771484375 L 21.6046142578125 50.8555338541667 L 24.1916748046875 51.5758138020832 L 24.327596951676 54.2640621365933 L 25.7974365234375 52.0185546875001 L 28.3844970703125 52.7454427083334 L 26.6958984375001 50.5779947916667 L 28.161474609375 48.2453450520832 L 25.6572509765625 49.2431640624999 L 23.9686523437499 47.0823242187502 L 24.108837890625 49.85771484375 Z M 10.9727050781249 18.9751953125002 L 12.7632568359375 21.0435221354168 L 11.41875 23.4554687499999 L 13.8719970703125 22.3254882812499 L 15.662548828125 24.3938151041666 L 15.3885498046875 21.6250325520832 L 17.841796875 20.4950520833332 L 15.21650390625 19.9201497395833 L 14.9361328125 17.1513671874999 L 13.5916259765626 19.5567057291667 L 10.9727050781249 18.9751953125002 Z M 34.8971657986111 33.2793847656249 L 36.3060069444444 32.2592635091147 C 36.7756206597223 31.8920198567708 37.1364214409722 31.6063859049478 37.3826822916668 31.3965323893227 L 37.8351150173611 32.5682145182292 L 35.6645833333332 34.118798828125 C 35.3095095486111 34.3752864583333 34.6680859374999 34.8183105468751 33.7403125000001 35.4595296223957 C 33.0416189236111 35.943358561198 32.4345572916666 36.293114420573 31.9134006076389 36.497138671875 C 31.4036979166667 36.6720166015627 30.8596332465278 36.7011629231773 30.2812065972223 36.5729191080728 C 30.0177647569444 36.5029679361979 29.8230468749999 36.5146264648439 29.6913259548612 36.6020654296875 C 29.4737000868055 36.7594555664064 29.4278841145833 37.5114306640625 29.5596050347222 38.8579907226564 L 28.3741167534723 38.6889420572916 C 28.2996657986112 37.4531380208333 28.3970247395832 36.5729191080729 28.6604665798611 36.0541145833332 L 26.6331098090278 33.1045068359375 L 25.2357226562501 34.1013110351563 L 24.5828450520834 33.1686287434894 L 26.9137326388888 31.5072884114583 L 29.6397829861112 35.4711881510415 C 29.7199609374999 35.4653588867189 29.8115928819444 35.4828466796875 29.9146788194446 35.511993001302 C 30.3499305555555 35.6052612304688 30.7508203125 35.6285782877604 31.1173480902779 35.5702856445314 C 31.5411458333332 35.4886759440106 32.0737565104167 35.2321883138021 32.7151801215279 34.8008227539059 C 33.534140625 34.2412133789062 34.2614691840278 33.7282381184896 34.8971657986111 33.2793847656249 Z M 31.1230750868055 32.1077026367188 C 30.39001953125 31.7229711914063 29.4794270833333 31.3557275390624 28.37984375 30.9943131510417 L 28.8093684895833 29.9217285156249 C 29.9204058159722 30.2598258463542 30.8309982638888 30.5979231770832 31.5411458333333 30.9360205078126 L 31.1230750868055 32.1077026367188 Z M 38.3566268382352 22.7562011718751 L 36.6214246323528 24.0467578124999 L 36.0672794117647 23.20224609375 L 37.802481617647 21.9116894531251 L 38.3566268382352 22.7562011718751 Z M 41.2113143382354 20.6330273437501 L 40.1366084558824 19.0034765625001 L 41.7822518382352 17.7783398437502 L 42.8569577205881 19.407890625 L 41.2113143382354 20.6330273437501 Z M 43.4614797794118 20.3237695312499 L 44.5417830882353 21.9652148437499 L 42.8961397058823 23.1903515625001 L 41.8158363970588 21.5489062499999 L 43.4614797794118 20.3237695312499 Z M 38.3398345588235 26.6457128906251 L 40.075036764706 25.3551562499999 L 40.6235845588235 26.1877734374999 L 38.8883823529412 27.4783300781251 L 38.3398345588235 26.6457128906251 Z M 37.2035569852941 24.932900390625 L 38.9387591911765 23.6423437500001 L 39.4873069852941 24.4749609375001 L 37.7521047794118 25.7655175781249 L 37.2035569852941 24.932900390625 Z M 11.24912109375 30.3216064453125 L 13.721484375 31.372998046875 L 12.3387451171876 29.0726806640624 L 14.0974365234375 27.052734375 L 11.4848876953124 27.6517089843751 L 10.1085205078126 25.3513916015624 L 9.87275390625001 28.0212890625 L 7.25383300781255 28.6266357421875 L 9.72619628906256 29.6780273437499 L 9.49042968750001 32.3479248046875 L 11.24912109375 30.3216064453125 Z M 19.5254231770834 13.3803385416667 L 17.3051106770833 11.7018880208333 L 18.1112955729167 14.3649414062499 L 15.8315104166666 15.9574869791666 L 18.6135091145833 16.0103515625001 L 19.4263020833333 18.6734049479168 L 20.3382161458333 16.0433919270832 L 23.1136067708333 16.0896484375 L 20.8932942708333 14.4178059895834 L 21.8052083333333 11.7877929687501 L 19.5254231770834 13.3803385416667 Z M 32.8155029296876 10.8545572916665 L 34.5041015625 13.0220052083333 L 33.038525390625 15.3546549479168 L 35.5427490234375 14.3568359375001 L 37.23134765625 16.5176757812499 L 37.091162109375 13.74228515625 L 39.5953857421874 12.7444661458334 L 37.0083251953125 12.0241861979168 L 36.8681396484375 9.24879557291661 L 35.4025634765625 11.5814453124999 L 32.8155029296876 10.8545572916665 Z M 49.8914794921875 35.8486083984375 L 50.1272460937499 33.1787109375001 L 52.7461669921875 32.5733642578126 L 50.2738037109375 31.52197265625 L 50.5095703124999 28.8520751953125 L 48.75087890625 30.8783935546875 L 46.2785156250001 29.8270019531249 L 47.6612548828125 32.1273193359375 L 45.9025634765625 34.1472656250001 L 48.5151123046876 33.548291015625 L 49.8914794921875 35.8486083984375 Z M 39.2186305147058 28.8521484375001 C 39.313786764706 29.8156054687499 39.2857996323529 30.725537109375 39.1346691176471 31.587890625 L 40.2653492647057 31.6057324218752 C 40.3828952205881 30.6720117187499 40.3772977941177 29.6966601562499 40.2373621323529 28.6856249999999 L 39.2186305147058 28.8521484375001 Z M 16.1326554361979 40.4917244944853 L 22.5856510416666 36.0762545955882 L 19.5077994791667 31.7918244485294 L 11.574170735677 37.2214280790441 L 12.2387068684895 38.1501011029409 L 19.1697021484376 33.4041831341911 L 20.9126521809895 35.8369646139705 L 15.4681193033854 39.5630514705881 L 14.4713151041666 38.1671932444854 L 13.468681640625 38.8565762867645 L 17.2810205078125 44.1836270680145 C 17.9164103190103 45.066721047794 18.6683854166666 45.2148529411764 19.5311165364583 44.6223253676471 L 25.3312345377604 40.651251148897 C 25.7334537760415 40.3435926011029 25.9841121419271 39.9960523897059 26.0715511067709 39.5972357536764 C 26.1123559570312 39.2041164981618 25.7392830403646 38.3267198988971 24.9465030924478 36.9593485753677 L 23.7573331705728 37.318283547794 C 24.4685034179689 38.4349701286764 24.800771484375 39.1186557904409 24.7483081054688 39.3807352941178 C 24.6900154622396 39.6029331341909 24.5676009114582 39.7738545496323 24.3868937174478 39.899196920956 L 19.1405558268229 43.4885466452206 C 18.7558243815105 43.750626148897 18.429385579427 43.6936523437501 18.15541015625 43.3119278492646 L 16.1326554361979 40.4917244944853 Z M 16.0327377717392 30.6954671223958 L 17.3092338809288 29.8210774739584 C 17.4220405138341 25.8746655273438 19.3694392292489 22.0331803385418 22.9139423789525 19.6023771158852 C 26.4584455286559 17.1715738932294 30.8044694911068 16.6935742187499 34.6161462450592 17.9468660481772 L 35.8926423542491 17.0724763997397 C 31.5109952445652 15.3236971028647 26.3456388957509 15.7142578125001 22.1836678606719 18.5705973307292 C 18.0216968255928 21.4269368489584 15.8605592267787 26.0553727213542 16.0327377717392 30.6954671223958 Z M 23.0537369791667 29.146436360677 L 22.8361111111112 30.2656551106769 C 23.9356944444445 30.3414355468747 24.8978298611111 30.5046549479168 25.7225173611112 30.749484049479 L 25.9344162326389 29.5253385416665 C 25.08109375 29.3213142903646 24.1189583333334 29.1988997395833 23.0537369791667 29.146436360677 Z M 39.3947916666667 50.6122070312499 L 41.6745768229166 49.0196614583332 L 43.8948893229166 50.6981119791668 L 43.0887044270834 48.03505859375 L 45.3684895833334 46.4425130208334 L 42.5864908854167 46.3896484374999 L 41.7736979166667 43.7265950520831 L 40.8617838541667 46.3566080729167 L 38.0863932291666 46.3103515625001 L 40.3067057291666 47.9821940104166 L 39.3947916666667 50.6122070312499 Z M 31.1230750868055 32.1077026367188 C 30.39001953125 31.7229711914063 29.4794270833333 31.3557275390624 28.37984375 30.9943131510417 L 28.8093684895833 29.9217285156249 C 29.9204058159722 30.2598258463542 30.8309982638888 30.5979231770832 31.5411458333333 30.9360205078126 L 31.1230750868055 32.1077026367188 Z M 43.4614797794118 20.3237695312499 L 44.5417830882353 21.9652148437499 L 42.8961397058823 23.1903515625001 L 41.8158363970588 21.5489062499999 L 43.4614797794118 20.3237695312499 Z M 41.2113143382354 20.6330273437501 L 40.1366084558824 19.0034765625001 L 41.7822518382352 17.7783398437502 L 42.8569577205881 19.407890625 L 41.2113143382354 20.6330273437501 Z M 34.8971657986111 33.2793847656249 L 36.3060069444444 32.2592635091147 C 36.7756206597223 31.8920198567708 37.1364214409722 31.6063859049478 37.3826822916668 31.3965323893227 L 37.8351150173611 32.5682145182292 L 35.6645833333332 34.118798828125 C 35.3095095486111 34.3752864583333 34.6680859374999 34.8183105468751 33.7403125000001 35.4595296223957 C 33.0416189236111 35.943358561198 32.4345572916666 36.293114420573 31.9134006076389 36.497138671875 C 31.4036979166667 36.6720166015627 30.8596332465278 36.7011629231773 30.2812065972223 36.5729191080728 C 30.0177647569444 36.5029679361979 29.8230468749999 36.5146264648439 29.6913259548612 36.6020654296875 C 29.4737000868055 36.7594555664064 29.4278841145833 37.5114306640625 29.5596050347222 38.8579907226564 L 28.3741167534723 38.6889420572916 C 28.2996657986112 37.4531380208333 28.3970247395832 36.5729191080729 28.6604665798611 36.0541145833332 L 26.6331098090278 33.1045068359375 L 25.2357226562501 34.1013110351563 L 24.5828450520834 33.1686287434894 L 26.9137326388888 31.5072884114583 L 29.6397829861112 35.4711881510415 C 29.7199609374999 35.4653588867189 29.8115928819444 35.4828466796875 29.9146788194446 35.511993001302 C 30.3499305555555 35.6052612304688 30.7508203125 35.6285782877604 31.1173480902779 35.5702856445314 C 31.5411458333332 35.4886759440106 32.0737565104167 35.2321883138021 32.7151801215279 34.8008227539059 C 33.534140625 34.2412133789062 34.2614691840278 33.7282381184896 34.8971657986111 33.2793847656249 Z M 43.4614797794118 20.3237695312499 L 44.5417830882353 21.9652148437499 L 42.8961397058823 23.1903515625001 L 41.8158363970588 21.5489062499999 L 43.4614797794118 20.3237695312499 Z M 41.2113143382354 20.6330273437501 L 40.1366084558824 19.0034765625001 L 41.7822518382352 17.7783398437502 L 42.8569577205881 19.407890625 L 41.2113143382354 20.6330273437501 Z M 28.8093684895833 29.9217285156249 L 28.37984375 30.9943131510417 C 29.4794270833333 31.3557275390624 30.39001953125 31.7229711914063 31.1230750868055 32.1077026367188 L 31.5411458333333 30.9360205078126 C 30.8309982638888 30.5979231770832 29.9204058159722 30.2598258463542 28.8093684895833 29.9217285156249 Z M 37.3826822916668 31.3965323893227 C 37.1364214409722 31.6063859049478 36.7756206597223 31.8920198567708 36.3060069444444 32.2592635091147 L 34.8971657986111 33.2793847656249 C 34.2614691840278 33.7282381184896 33.534140625 34.2412133789062 32.7151801215279 34.8008227539059 C 32.0737565104167 35.2321883138021 31.5411458333332 35.4886759440106 31.1173480902779 35.5702856445314 C 30.7508203125 35.6285782877604 30.3499305555555 35.6052612304688 29.9146788194446 35.511993001302 C 29.8115928819444 35.4828466796875 29.7199609374999 35.4653588867189 29.6397829861112 35.4711881510415 L 26.9137326388888 31.5072884114583 L 24.5828450520834 33.1686287434894 L 25.2357226562501 34.1013110351563 L 26.6331098090278 33.1045068359375 L 28.6604665798611 36.0541145833332 C 28.3970247395832 36.5729191080729 28.2996657986112 37.4531380208333 28.3741167534723 38.6889420572916 L 29.5596050347222 38.8579907226564 C 29.4278841145833 37.5114306640625 29.4737000868055 36.7594555664064 29.6913259548612 36.6020654296875 C 29.8230468749999 36.5146264648439 30.0177647569444 36.5029679361979 30.2812065972223 36.5729191080728 C 30.8596332465278 36.7011629231773 31.4036979166667 36.6720166015627 31.9134006076389 36.497138671875 C 32.4345572916666 36.293114420573 33.0416189236111 35.943358561198 33.7403125000001 35.4595296223957 C 34.6680859374999 34.8183105468751 35.3095095486111 34.3752864583333 35.6645833333332 34.118798828125 L 37.8351150173611 32.5682145182292 L 37.3826822916668 31.3965323893227 Z M 34.8971657986111 33.2793847656249 L 36.3060069444444 32.2592635091147 C 36.7756206597223 31.8920198567708 37.1364214409722 31.6063859049478 37.3826822916668 31.3965323893227 L 37.8351150173611 32.5682145182292 L 35.6645833333332 34.118798828125 C 35.3095095486111 34.3752864583333 34.6680859374999 34.8183105468751 33.7403125000001 35.4595296223957 C 33.0416189236111 35.943358561198 32.4345572916666 36.293114420573 31.9134006076389 36.497138671875 C 31.4036979166667 36.6720166015627 30.8596332465278 36.7011629231773 30.2812065972223 36.5729191080728 C 30.0177647569444 36.5029679361979 29.8230468749999 36.5146264648439 29.6913259548612 36.6020654296875 C 29.4737000868055 36.7594555664064 29.4278841145833 37.5114306640625 29.5596050347222 38.8579907226564 L 28.3741167534723 38.6889420572916 C 28.2996657986112 37.4531380208333 28.3970247395832 36.5729191080729 28.6604665798611 36.0541145833332 L 26.6331098090278 33.1045068359375 L 25.2357226562501 34.1013110351563 L 24.5828450520834 33.1686287434894 L 26.9137326388888 31.5072884114583 L 29.6397829861112 35.4711881510415 C 29.7199609374999 35.4653588867189 29.8115928819444 35.4828466796875 29.9146788194446 35.511993001302 C 30.3499305555555 35.6052612304688 30.7508203125 35.6285782877604 31.1173480902779 35.5702856445314 C 31.5411458333332 35.4886759440106 32.0737565104167 35.2321883138021 32.7151801215279 34.8008227539059 C 33.534140625 34.2412133789062 34.2614691840278 33.7282381184896 34.8971657986111 33.2793847656249 Z M 31.1230750868055 32.1077026367188 C 30.39001953125 31.7229711914063 29.4794270833333 31.3557275390624 28.37984375 30.9943131510417 L 28.8093684895833 29.9217285156249 C 29.9204058159722 30.2598258463542 30.8309982638888 30.5979231770832 31.5411458333333 30.9360205078126 L 31.1230750868055 32.1077026367188 Z" transform="matrix(1 0 0 1 -545 -914 ) matrix(1 0 0 1 545 914 )"/></g></svg>