<svg xmlns="http://www.w3.org/2000/svg" xmlns:xlink="http://www.w3.org/1999/xlink" width="80" height="30" version="1.1"><defs><mask id="clip1597" fill="#fff"><path fill-rule="evenodd" d="M 23.0508459295008 29.0301724137931 L 23.0508459295008 20.8148410391318 L 0 30 L 23.0508474576271 8.43311974400757 L 23.0508459295008 0.0738916256158055 L 80 0.0738916256158055 L 80 29.0301724137931 L 23.0508459295008 29.0301724137931 Z"/></mask></defs><g><path fill="#fff" fill-rule="nonzero" stroke="none" d="M 23.0508459295008 29.0301724137931 L 23.0508459295008 20.8148410391318 L 0 30 L 23.0508474576271 8.43311974400757 L 23.0508459295008 0.0738916256158055 L 80 0.0738916256158055 L 80 29.0301724137931 L 23.0508459295008 29.0301724137931 Z" transform="matrix(1 0 0 1 -90 -163 ) matrix(1 0 0 1 90 163 )"/><path fill="none" stroke="#e1e7ef" stroke-width="2" d="M 23.0508459295008 29.0301724137931 L 23.0508459295008 20.8148410391318 L 0 30 L 23.0508474576271 8.43311974400757 L 23.0508459295008 0.0738916256158055 L 80 0.0738916256158055 L 80 29.0301724137931 L 23.0508459295008 29.0301724137931 Z" mask="url(#clip1597)" transform="matrix(1 0 0 1 -90 -163 ) matrix(1 0 0 1 90 163 )"/></g></svg>