<svg xmlns="http://www.w3.org/2000/svg" xmlns:xlink="http://www.w3.org/1999/xlink" width="80" height="80" version="1.1"><defs><linearGradient id="LinearGradient1598" x1="0" x2="79.2" y1="42.353" y2="42.353" gradientUnits="userSpaceOnUse"><stop id="Stop1599" offset="0" stop-color="#77d0fe"/><stop id="Stop1600" offset="1" stop-color="#1277ff"/></linearGradient></defs><g><path fill="url(#LinearGradient1598)" fill-rule="nonzero" stroke="none" d="M 49.97 30.69984 L 50.7636 76.1588 C 47.2836 77.128 43.6088 77.6472 39.80952 77.6472 C 17.82332 77.6472 0 60.2652000000001 0 38.82352 C 0 17.38188 17.82332 0 39.80952 0 C 48.9 0 57.2788 2.97145999999998 63.9804 7.97275999999999 L 26.99536 8.61832000000004 C 23.60336 8.67751999999996 21.03052 9.73184000000003 19.2768 11.7813200000001 C 17.5230800000001 13.8307600000001 16.67664 16.59848 16.73748 20.08452 C 16.7962 23.4482399999999 17.70304 26.13948 19.45808 28.15828 C 21.21308 30.17708 23.85628 31.1556399999999 27.38768 31.0940000000001 L 49.97 30.69984 Z M 70.6012000000001 30.3397199999999 L 71.1668 62.7447999999999 C 76.462 56.1523999999999 79.6192 47.8476000000001 79.6192 38.82352 C 79.6192 35.85956 79.2784 32.97312 78.6332 30.19952 L 70.6012000000001 30.3397199999999 Z" transform="matrix(1 0 0 1 -185 -150 ) matrix(1 0 0 1 185 150 )"/></g></svg>