<?xml version="1.0" encoding="utf-8"?>
<svg version="1.1" xmlns:xlink="http://www.w3.org/1999/xlink" width="14px" height="11px" xmlns="http://www.w3.org/2000/svg">
  <g transform="matrix(1 0 0 1 -30 -211 )">
    <path d="M 13.3319921875 0.34375  C 13.2724375 0.334984375  13.2118984375 0.334984375  13.15234375 0.34375  L 0.84765625 0.34375  C 0.48958984375 0.291671875  0.1590859375 0.553609375  0.109375 0.928984375  C 0.1010078125 0.991375  0.1010078125 1.054796875  0.109375 1.1171875  L 0.109375 9.8828125  C 0.109375 10.416484375  0.33578125 10.65625  0.84765625 10.65625  L 13.15234375 10.65625  C 13.64453125 10.65625  13.890625 10.3984375  13.890625 9.8828125  L 13.890625 1.1171875  C 13.94008984375 0.7420703125  13.6903046875 0.395828125  13.3319921875 0.34375  Z M 13.3984375 9.77453125  L 9.8817578125 6.090390625  C 9.79341015625 5.9823671875  9.638125 5.969734375  9.534765625 6.0622890625  C 9.43165234375 6.15484375  9.41959375 6.31778125  9.5081875 6.4258046875  C 9.51630859375 6.435859375  9.52516796875 6.445140625  9.534765625 6.45390625  L 13.0514453125 10.140625  L 0.9485546875 10.140625  L 4.465234375 6.456484375  C 4.55358203125 6.3484609375  4.5415234375 6.1855234375  4.43841015625 6.09296875  C 4.346125 6.01046875  4.21052734375 6.01046875  4.1182421875 6.09296875  L 0.6015625 9.777109375  L 0.6015625 1.181640625  L 6.2887890625 7.1394296875  C 6.6731875 7.542390625  7.296296875 7.5426484375  7.6811875 7.1404609375  C 7.6811875 7.140203125  7.6816796875 7.1399453125  7.6816796875 7.1394296875  L 13.3984375 1.150703125  L 13.3984375 9.77453125  Z M 6.6382421875 6.7890625  L 0.990390625 0.859375  L 12.980078125 0.859375  L 7.3346875 6.7890625  C 7.14298046875 6.9904140625  6.8311796875 6.990671875  6.638734375 6.789578125  C 6.638734375 6.7893203125  6.63848828125 6.7890625  6.6382421875 6.7890625  Z " fill-rule="nonzero" fill="#000000" stroke="none" fill-opacity="0.247058823529412" transform="matrix(1 0 0 1 30 211 )" />
  </g>
</svg>