<?xml version="1.0" encoding="utf-8"?>
<svg version="1.1" xmlns:xlink="http://www.w3.org/1999/xlink" width="21px" height="21px" xmlns="http://www.w3.org/2000/svg">
  <g transform="matrix(1 0 0 1 -367 -931 )">
    <path d="M 377.5 935  C 381.14 935  384 937.86  384 941.5  C 384 945.14  381.14 948  377.5 948  C 373.86 948  371 945.14  371 941.5  C 371 937.86  373.86 935  377.5 935  Z " fill-rule="nonzero" fill="#ffffff" stroke="none" fill-opacity="0" />
    <path d="M 377.5 933.5  C 381.98 933.5  385.5 937.02  385.5 941.5  C 385.5 945.98  381.98 949.5  377.5 949.5  C 373.02 949.5  369.5 945.98  369.5 941.5  C 369.5 937.02  373.02 933.5  377.5 933.5  Z " stroke-width="5" stroke="#1890ff" fill="none" />
  </g>
</svg>