<svg xmlns="http://www.w3.org/2000/svg" xmlns:xlink="http://www.w3.org/1999/xlink" width="21" height="21" version="1.1"><g><path fill="#fff" fill-opacity="0" fill-rule="nonzero" stroke="none" d="M 377.5 935 C 381.14 935 384 937.86 384 941.5 C 384 945.14 381.14 948 377.5 948 C 373.86 948 371 945.14 371 941.5 C 371 937.86 373.86 935 377.5 935 Z" transform="matrix(1 0 0 1 -367 -931 )"/><path fill="none" stroke="#ccc" stroke-width="5" d="M 377.5 933.5 C 381.98 933.5 385.5 937.02 385.5 941.5 C 385.5 945.98 381.98 949.5 377.5 949.5 C 373.02 949.5 369.5 945.98 369.5 941.5 C 369.5 937.02 373.02 933.5 377.5 933.5 Z" transform="matrix(1 0 0 1 -367 -931 )"/></g></svg>