<?xml version="1.0" encoding="utf-8"?>
<svg version="1.1" xmlns:xlink="http://www.w3.org/1999/xlink" width="10px" height="10px" xmlns="http://www.w3.org/2000/svg">
  <g transform="matrix(1 0 0 1 -372 -993 )">
    <path d="M 377 997  C 377.56 997  378 997.44  378 998  C 378 998.56  377.56 999  377 999  C 376.44 999  376 998.56  376 998  C 376 997.44  376.44 997  377 997  Z " fill-rule="nonzero" fill="#cccccc" stroke="none" />
    <path d="M 377 995.5  C 378.4 995.5  379.5 996.6  379.5 998  C 379.5 999.4  378.4 1000.5  377 1000.5  C 375.6 1000.5  374.5 999.4  374.5 998  C 374.5 996.6  375.6 995.5  377 995.5  Z " stroke-width="5" stroke="#ffffff" fill="none" />
  </g>
</svg>