<?xml version="1.0" encoding="utf-8"?>
<svg version="1.1" xmlns:xlink="http://www.w3.org/1999/xlink" width="22px" height="22px" xmlns="http://www.w3.org/2000/svg">
  <g transform="matrix(1 0 0 1 -366 -987 )">
    <path d="M 377 987  C 383.16 987  388 991.84  388 998  C 388 1004.16  383.16 1009  377 1009  C 370.84 1009  366 1004.16  366 998  C 366 991.84  370.84 987  377 987  Z " fill-rule="nonzero" fill="#ffffff" stroke="none" fill-opacity="0.0980392156862745" />
    <path d="M 377 987.5  C 382.88 987.5  387.5 992.12  387.5 998  C 387.5 1003.88  382.88 1008.5  377 1008.5  C 371.12 1008.5  366.5 1003.88  366.5 998  C 366.5 992.12  371.12 987.5  377 987.5  Z " stroke-width="1" stroke="#1980ff" fill="none" />
  </g>
</svg>