<svg xmlns="http://www.w3.org/2000/svg" xmlns:xlink="http://www.w3.org/1999/xlink" width="22" height="22" version="1.1"><g><path fill="#fff" fill-opacity=".098" fill-rule="nonzero" stroke="none" d="M 509 987 C 515.16 987 520 991.84 520 998 C 520 1004.16 515.16 1009 509 1009 C 502.84 1009 498 1004.16 498 998 C 498 991.84 502.84 987 509 987 Z" transform="matrix(1 0 0 1 -498 -987 )"/><path fill="none" stroke="#5fb878" stroke-width="1" d="M 509 987.5 C 514.88 987.5 519.5 992.12 519.5 998 C 519.5 1003.88 514.88 1008.5 509 1008.5 C 503.12 1008.5 498.5 1003.88 498.5 998 C 498.5 992.12 503.12 987.5 509 987.5 Z" transform="matrix(1 0 0 1 -498 -987 )"/></g></svg>