<?xml version="1.0" encoding="utf-8"?>
<svg version="1.1" xmlns:xlink="http://www.w3.org/1999/xlink" width="33px" height="33px" xmlns="http://www.w3.org/2000/svg">
  <g transform="matrix(1 0 0 1 -924 -672 )">
    <path d="M 29.92 11.22  C 30.745 13.2  33 14.245  33 16.5  C 33 18.755  30.635 20.13  29.81 22.11  C 28.985 24.09  29.645 26.675  28.16 28.16  C 26.675 29.645  24.09 28.985  22.11 29.81  C 20.13 30.635  18.755 33  16.5 33  C 14.245 33  12.87 30.635  10.89 29.81  C 8.91 28.985  6.325 29.645  4.84 28.16  C 3.355 26.675  4.015 24.09  3.19 22.11  C 2.365 20.13  0 18.755  0 16.5  C 0 14.245  2.365 12.87  3.19 10.89  C 4.015 8.91  3.355 6.325  4.84 4.84  C 6.325 3.355  8.635 4.18  10.56 3.355  C 12.54 2.475  14.245 0  16.5 0  C 18.755 0  20.515 2.53  22.495 3.355  C 24.475 4.18  26.675 3.3  28.16 4.84  C 29.645 6.325  29.095 9.24  29.92 11.22  Z " fill-rule="nonzero" fill="#fbfbfb" stroke="none" transform="matrix(1 0 0 1 924 672 )" />
  </g>
</svg>