<svg xmlns="http://www.w3.org/2000/svg" xmlns:xlink="http://www.w3.org/1999/xlink" width="45" height="45" version="1.1"><g><path fill="#1980ff" fill-rule="nonzero" stroke="none" d="M 40.43 15.405 C 41.585 18.045 44.5 19.475 44.5 22.5 C 44.5 25.525 41.365 27.34 40.21 29.98 C 39.055 32.62 40.045 36.03 38.01 38.065 C 35.975 40.1 32.565 39.11 29.925 40.265 C 27.285 41.42 25.525 44.5 22.5 44.5 C 19.475 44.5 17.66 41.365 15.02 40.21 C 12.38 39.055 8.97 40.045 6.935 38.01 C 4.9 35.975 5.89 32.565 4.735 29.925 C 3.58 27.285 0.5 25.525 0.5 22.5 C 0.5 19.475 3.635 17.66 4.79 15.02 C 5.945 12.38 4.955 8.97 6.99 6.935 C 9.025 4.9 11.995 6.055 14.635 4.955 C 17.275 3.855 19.475 0.5 22.5 0.5 C 25.525 0.5 27.89 3.91 30.53 5.01 C 33.17 6.11 36.085 4.955 38.065 6.935 C 40.045 8.915 39.275 12.765 40.43 15.405 Z" transform="matrix(1 0 0 1 -918 -666 ) matrix(1 0 0 1 918 666 )"/></g></svg>