<?xml version="1.0" encoding="utf-8"?>
<svg version="1.1" xmlns:xlink="http://www.w3.org/1999/xlink" width="35px" height="35px" xmlns="http://www.w3.org/2000/svg">
  <g transform="matrix(1 0 0 1 -87 -1084 )">
    <path d="M 87.5 1087  A 2.5 2.5 0 0 1 90 1084.5 L 119 1084.5  A 2.5 2.5 0 0 1 121.5 1087 L 121.5 1116  A 2.5 2.5 0 0 1 119 1118.5 L 90 1118.5  A 2.5 2.5 0 0 1 87.5 1116 L 87.5 1087  Z " fill-rule="nonzero" fill="#0079fe" stroke="none" />
    <path d="M 87.5 1087  A 2.5 2.5 0 0 1 90 1084.5 L 119 1084.5  A 2.5 2.5 0 0 1 121.5 1087 L 121.5 1116  A 2.5 2.5 0 0 1 119 1118.5 L 90 1118.5  A 2.5 2.5 0 0 1 87.5 1116 L 87.5 1087  Z " stroke-width="1" stroke="#0079fe" fill="none" />
  </g>
</svg>