<?xml version="1.0" encoding="utf-8"?>
<svg version="1.1" xmlns:xlink="http://www.w3.org/1999/xlink" width="35px" height="35px" xmlns="http://www.w3.org/2000/svg">
  <g transform="matrix(1 0 0 1 -128 -553 )">
    <path d="M 145.5 553  C 155.3 553  163 560.7  163 570.5  C 163 580.3  155.3 588  145.5 588  C 135.7 588  128 580.3  128 570.5  C 128 560.7  135.7 553  145.5 553  Z " fill-rule="nonzero" fill="#ffffff" stroke="none" />
    <path d="M 145.5 553.5  C 155.02 553.5  162.5 560.98  162.5 570.5  C 162.5 580.02  155.02 587.5  145.5 587.5  C 135.98 587.5  128.5 580.02  128.5 570.5  C 128.5 560.98  135.98 553.5  145.5 553.5  Z " stroke-width="1" stroke="#e4e4e4" fill="none" />
  </g>
</svg>