<?xml version="1.0" encoding="utf-8"?>
<svg version="1.1" xmlns:xlink="http://www.w3.org/1999/xlink" width="35px" height="35px" xmlns="http://www.w3.org/2000/svg">
  <g transform="matrix(1 0 0 1 -88 -553 )">
    <path d="M 105.5 553  C 115.3 553  123 560.7  123 570.5  C 123 580.3  115.3 588  105.5 588  C 95.7 588  88 580.3  88 570.5  C 88 560.7  95.7 553  105.5 553  Z " fill-rule="nonzero" fill="#0079fe" stroke="none" />
    <path d="M 105.5 553.5  C 115.02 553.5  122.5 560.98  122.5 570.5  C 122.5 580.02  115.02 587.5  105.5 587.5  C 95.98 587.5  88.5 580.02  88.5 570.5  C 88.5 560.98  95.98 553.5  105.5 553.5  Z " stroke-width="1" stroke="#0079fe" fill="none" />
  </g>
</svg>