<?xml version="1.0" encoding="utf-8"?>
<svg version="1.1" xmlns:xlink="http://www.w3.org/1999/xlink" width="320px" height="53px" xmlns="http://www.w3.org/2000/svg">
  <g transform="matrix(1 0 0 1 -216 -3951 )">
    <path d="M 216.5 3999  C 216.5 3999  216.5 3967  216.5 3967  C 216.5 3964.51471862576  218.514718625761 3962.5  221 3962.5  C 221 3962.5  282.99218872807 3962.5  282.99218872807 3962.5  C 282.99218872807 3962.5  296.003445743407 3951.64820376605  296.003445743407 3951.64820376605  C 296.003445743407 3951.64820376605  309.29957353765 3962.5  309.29957353765 3962.5  C 309.29957353765 3962.5  531 3962.5  531 3962.5  C 533.485281374239 3962.5  535.5 3964.51471862576  535.5 3967  C 535.5 3967  535.5 3999  535.5 3999  C 535.5 4001.48528137424  533.485281374239 4003.5  531 4003.5  C 531 4003.5  221 4003.5  221 4003.5  C 218.514718625761 4003.5  216.5 4001.48528137424  216.5 3999  Z " fill-rule="nonzero" fill="#333333" stroke="none" />
    <path d="M 216 3999  C 216 3999  216 3967  216 3967  C 216 3964.23857625085  218.238576250846 3962  221 3962  C 221 3962  282.811047306535 3962  282.811047306535 3962  C 282.811047306535 3962  296 3951  296 3951  C 296 3951  309.477713973202 3962  309.477713973202 3962  C 309.477713973202 3962  531 3962  531 3962  C 533.761423749154 3962  536 3964.23857625085  536 3967  C 536 3967  536 3999  536 3999  C 536 4001.76142374915  533.761423749154 4004  531 4004  C 531 4004  221 4004  221 4004  C 218.238576250846 4004  216 4001.76142374915  216 3999  Z M 217 3999  C 217 4001.20913899932  218.790861000677 4003  221 4003  C 221 4003  531 4003  531 4003  C 533.209138999323 4003  535 4001.20913899932  535 3999  C 535 3999  535 3967  535 3967  C 535 3964.79086100068  533.209138999323 3963  531 3963  C 531 3963  309.121433102098 3963  309.121433102098 3963  C 309.121433102098 3963  296.006891486814 3952.2964075321  296.006891486814 3952.2964075321  C 296.006891486814 3952.2964075321  283.173330149605 3963  283.173330149605 3963  C 283.173330149605 3963  221 3963  221 3963  C 218.790861000677 3963  217 3964.79086100068  217 3967  C 217 3967  217 3999  217 3999  Z " fill-rule="nonzero" fill="#d0d0d0" stroke="none" />
  </g>
</svg>