<?xml version="1.0" encoding="utf-8"?>
<svg version="1.1" xmlns:xlink="http://www.w3.org/1999/xlink" width="600px" height="360px" xmlns="http://www.w3.org/2000/svg">
  <g transform="matrix(1 0 0 1 -300 0 )">
    <path d="M 300 0  L 900 0  L 900 360  L 300 360  L 300 0  " fill-rule="nonzero" fill="#cccccc" stroke="none" />
    <path d="M 325 25  L 875 25  L 875 335  L 325 335  L 325 25  " fill-rule="nonzero" fill="#ffffff" stroke="none" />
    <path d="M 639 108  C 623.88 108  612 96.12  612 81  C 612 65.88  623.88 54  639 54  C 654.12 54  666 65.88  666 81  C 666 96.12  654.12 108  639 108  " fill-rule="nonzero" fill="#cccccc" stroke="none" />
    <path d="M 334 326  L 334 165.4  L 467 92.4  L 653.2 220.88  L 759.6 136.2  L 866 220.88  L 866 326  L 334 326  " fill-rule="nonzero" fill="#169bd5" stroke="none" />
  </g>
</svg>