<?xml version="1.0" encoding="utf-8"?>
<svg version="1.1" xmlns:xlink="http://www.w3.org/1999/xlink" width="300px" height="180px" xmlns="http://www.w3.org/2000/svg">
  <g transform="matrix(1 0 0 1 300 -90 )">
    <path d="M -300 90  L 0 90  L 0 270  L -300 270  L -300 90  " fill-rule="nonzero" fill="#cccccc" stroke="none" />
    <path d="M -287 103  L -13 103  L -13 257  L -287 257  L -287 103  " fill-rule="nonzero" fill="#ffffff" stroke="none" />
    <path d="M -130.5 144  C -138.06 144  -144 138.06  -144 130.5  C -144 122.94  -138.06 117  -130.5 117  C -122.94 117  -117 122.94  -117 130.5  C -117 138.06  -122.94 144  -130.5 144  " fill-rule="nonzero" fill="#cccccc" stroke="none" />
    <path d="M -283 253  L -283 173.25  L -216.75 137  L -124 200.8  L -71 158.75  L -18 200.8  L -18 253  L -283 253  " fill-rule="nonzero" fill="#169bd5" stroke="none" />
  </g>
</svg>