<svg xmlns="http://www.w3.org/2000/svg" xmlns:xlink="http://www.w3.org/1999/xlink" width="300" height="180" version="1.1"><g><path fill="#ccc" fill-rule="nonzero" stroke="none" d="M -300 90 L 0 90 L 0 270 L -300 270 L -300 90" transform="matrix(1 0 0 1 300 -90 )"/><path fill="#fff" fill-rule="nonzero" stroke="none" d="M -287 103 L -13 103 L -13 257 L -287 257 L -287 103" transform="matrix(1 0 0 1 300 -90 )"/><path fill="#ccc" fill-rule="nonzero" stroke="none" d="M -130.5 144 C -138.06 144 -144 138.06 -144 130.5 C -144 122.94 -138.06 117 -130.5 117 C -122.94 117 -117 122.94 -117 130.5 C -117 138.06 -122.94 144 -130.5 144" transform="matrix(1 0 0 1 300 -90 )"/><path fill="#169bd5" fill-rule="nonzero" stroke="none" d="M -283 253 L -283 173.25 L -216.75 137 L -124 200.8 L -71 158.75 L -18 200.8 L -18 253 L -283 253" transform="matrix(1 0 0 1 300 -90 )"/></g></svg>