<svg xmlns="http://www.w3.org/2000/svg" xmlns:xlink="http://www.w3.org/1999/xlink" width="28" height="30" version="1.1"><defs><mask id="clip1611" fill="#fff"><path fill-rule="evenodd" d="M 27.0763888888889 0.556640625 C 27.6921296296297 0.927734375 28 1.3671875 28 1.875 L 28 28.125 C 28 28.6328125 27.6921296296297 29.072265625 27.0763888888889 29.443359375 C 26.4606481481482 29.814453125 25.7314814814815 30 24.8888888888889 30 C 24.0462962962963 30 23.3171296296296 29.814453125 22.7013888888889 29.443359375 L 0.923611111111086 16.318359375 C 0.307870370370381 15.947265625 0 15.5078125 0 15 C 0 14.4921875 0.307870370370381 14.052734375 0.923611111111086 13.681640625 L 22.7013888888889 0.556640625 C 23.3171296296296 0.185546875 24.0462962962963 0 24.8888888888889 0 C 25.7314814814815 0 26.4606481481482 0.185546875 27.0763888888889 0.556640625 Z"/></mask></defs><g><path fill="#fff" fill-rule="nonzero" stroke="none" d="M 27.0763888888889 0.556640625 C 27.6921296296297 0.927734375 28 1.3671875 28 1.875 L 28 28.125 C 28 28.6328125 27.6921296296297 29.072265625 27.0763888888889 29.443359375 C 26.4606481481482 29.814453125 25.7314814814815 30 24.8888888888889 30 C 24.0462962962963 30 23.3171296296296 29.814453125 22.7013888888889 29.443359375 L 0.923611111111086 16.318359375 C 0.307870370370381 15.947265625 0 15.5078125 0 15 C 0 14.4921875 0.307870370370381 14.052734375 0.923611111111086 13.681640625 L 22.7013888888889 0.556640625 C 23.3171296296296 0.185546875 24.0462962962963 0 24.8888888888889 0 C 25.7314814814815 0 26.4606481481482 0.185546875 27.0763888888889 0.556640625 Z" transform="matrix(1 0 0 1 -497 -400 ) matrix(1 0 0 1 497 400 )"/><path fill="none" stroke="#0079fe" stroke-width="2" d="M 27.0763888888889 0.556640625 C 27.6921296296297 0.927734375 28 1.3671875 28 1.875 L 28 28.125 C 28 28.6328125 27.6921296296297 29.072265625 27.0763888888889 29.443359375 C 26.4606481481482 29.814453125 25.7314814814815 30 24.8888888888889 30 C 24.0462962962963 30 23.3171296296296 29.814453125 22.7013888888889 29.443359375 L 0.923611111111086 16.318359375 C 0.307870370370381 15.947265625 0 15.5078125 0 15 C 0 14.4921875 0.307870370370381 14.052734375 0.923611111111086 13.681640625 L 22.7013888888889 0.556640625 C 23.3171296296296 0.185546875 24.0462962962963 0 24.8888888888889 0 C 25.7314814814815 0 26.4606481481482 0.185546875 27.0763888888889 0.556640625 Z" mask="url(#clip1611)" transform="matrix(1 0 0 1 -497 -400 ) matrix(1 0 0 1 497 400 )"/></g></svg>