<?xml version="1.0" encoding="utf-8"?>
<svg version="1.1" xmlns:xlink="http://www.w3.org/1999/xlink" width="28px" height="30px" xmlns="http://www.w3.org/2000/svg">
  <defs>
    <mask fill="white" id="clip246">
      <path d="M 27.0763888888889 13.681640625  C 27.6921296296297 14.052734375  28 14.4921875  28 15  C 28 15.5078125  27.6921296296297 15.947265625  27.0763888888889 16.318359375  L 5.29861111111109 29.443359375  C 4.68287037037032 29.814453125  3.9537037037037 30  3.11111111111109 30  C 2.26851851851848 30  1.53935185185185 29.814453125  0.923611111111086 29.443359375  C 0.307870370370324 29.072265625  0 28.6328125  0 28.125  L 0 1.875  C 0 1.3671875  0.307870370370324 0.927734375  0.923611111111086 0.556640625  C 1.53935185185185 0.185546875  2.26851851851848 0  3.11111111111109 0  C 3.9537037037037 0  4.68287037037032 0.185546875  5.29861111111109 0.556640625  L 27.0763888888889 13.681640625  Z " fill-rule="evenodd" />
    </mask>
  </defs>
  <g transform="matrix(1 0 0 1 -730 -400 )">
    <path d="M 27.0763888888889 13.681640625  C 27.6921296296297 14.052734375  28 14.4921875  28 15  C 28 15.5078125  27.6921296296297 15.947265625  27.0763888888889 16.318359375  L 5.29861111111109 29.443359375  C 4.68287037037032 29.814453125  3.9537037037037 30  3.11111111111109 30  C 2.26851851851848 30  1.53935185185185 29.814453125  0.923611111111086 29.443359375  C 0.307870370370324 29.072265625  0 28.6328125  0 28.125  L 0 1.875  C 0 1.3671875  0.307870370370324 0.927734375  0.923611111111086 0.556640625  C 1.53935185185185 0.185546875  2.26851851851848 0  3.11111111111109 0  C 3.9537037037037 0  4.68287037037032 0.185546875  5.29861111111109 0.556640625  L 27.0763888888889 13.681640625  Z " fill-rule="nonzero" fill="#ffffff" stroke="none" transform="matrix(1 0 0 1 730 400 )" />
    <path d="M 27.0763888888889 13.681640625  C 27.6921296296297 14.052734375  28 14.4921875  28 15  C 28 15.5078125  27.6921296296297 15.947265625  27.0763888888889 16.318359375  L 5.29861111111109 29.443359375  C 4.68287037037032 29.814453125  3.9537037037037 30  3.11111111111109 30  C 2.26851851851848 30  1.53935185185185 29.814453125  0.923611111111086 29.443359375  C 0.307870370370324 29.072265625  0 28.6328125  0 28.125  L 0 1.875  C 0 1.3671875  0.307870370370324 0.927734375  0.923611111111086 0.556640625  C 1.53935185185185 0.185546875  2.26851851851848 0  3.11111111111109 0  C 3.9537037037037 0  4.68287037037032 0.185546875  5.29861111111109 0.556640625  L 27.0763888888889 13.681640625  Z " stroke-width="2" stroke="#0079fe" fill="none" transform="matrix(1 0 0 1 730 400 )" mask="url(#clip246)" />
  </g>
</svg>