<?xml version="1.0" encoding="utf-8"?>
<svg version="1.1" xmlns:xlink="http://www.w3.org/1999/xlink" width="80px" height="30px" xmlns="http://www.w3.org/2000/svg">
  <defs>
    <mask fill="white" id="clip1344">
      <path d="M 23.0508459295008 29.0301724137931  L 23.0508459295008 20.8148410391318  L 0 30  L 23.0508474576271 8.43311974400757  L 23.0508459295008 0.0738916256158055  L 80 0.0738916256158055  L 80 29.0301724137931  L 23.0508459295008 29.0301724137931  Z " fill-rule="evenodd" />
    </mask>
  </defs>
  <g transform="matrix(1 0 0 1 -90 -163 )">
    <path d="M 23.0508459295008 29.0301724137931  L 23.0508459295008 20.8148410391318  L 0 30  L 23.0508474576271 8.43311974400757  L 23.0508459295008 0.0738916256158055  L 80 0.0738916256158055  L 80 29.0301724137931  L 23.0508459295008 29.0301724137931  Z " fill-rule="nonzero" fill="#ffffff" stroke="none" transform="matrix(1 0 0 1 90 163 )" />
    <path d="M 23.0508459295008 29.0301724137931  L 23.0508459295008 20.8148410391318  L 0 30  L 23.0508474576271 8.43311974400757  L 23.0508459295008 0.0738916256158055  L 80 0.0738916256158055  L 80 29.0301724137931  L 23.0508459295008 29.0301724137931  Z " stroke-width="2" stroke="#e1e7ef" fill="none" transform="matrix(1 0 0 1 90 163 )" mask="url(#clip1344)" />
  </g>
</svg>