<?xml version="1.0" encoding="utf-8"?>
<svg version="1.1" xmlns:xlink="http://www.w3.org/1999/xlink" width="14px" height="14px" xmlns="http://www.w3.org/2000/svg">
  <g transform="matrix(1 0 0 1 -30 -210 )">
    <path d="M 7.5 10.5  C 7.5 10.7765  7.276 11  7 11  C 6.724 11  6.5 10.7765  6.5 10.5  L 6.5 9  C 6.5 8.7235  6.724 8.5  7 8.5  C 7.276 8.5  7.5 8.7235  7.5 9  L 7.5 10.5  Z M 13.5 12.5  C 13.5 13.327  12.827 14  12 14  L 2 14  C 1.173 14  0.5 13.327  0.5 12.5  L 0.5 7  C 0.5 6.173  1.173 5.5  2 5.5  L 12 5.5  C 12.827 5.5  13.5 6.173  13.5 7  L 13.5 12.5  Z M 12 6.5  L 2 6.5  C 1.7245 6.5  1.5 6.7245  1.5 7  L 1.5 12.5  C 1.5 12.776  1.7245 13  2 13  L 12 13  C 12.276 13  12.5 12.776  12.5 12.5  L 12.5 7  C 12.5 6.7245  12.276 6.5  12 6.5  Z M 11 6  C 11 6.276  10.7765 6.5  10.5 6.5  C 10.2235 6.5  10 6.276  10 6  L 10 3.969  C 10 2.2695  8.4025 1  6.974 1  C 5.512 1  4 2.108  4 3.962  L 4 6  C 4 6.276  3.776 6.5  3.5 6.5  C 3.224 6.5  3 6.276  3 6  L 3 3.962  C 3 1.482  5.0205 0  6.974 0  C 8.8785 0  11 1.63  11 3.969  L 11 6  Z " fill-rule="nonzero" fill="#000000" stroke="none" fill-opacity="0.247058823529412" transform="matrix(1 0 0 1 30 210 )" />
  </g>
</svg>