<?xml version="1.0" encoding="utf-8"?>
<svg version="1.1" xmlns:xlink="http://www.w3.org/1999/xlink" width="22px" height="16px" xmlns="http://www.w3.org/2000/svg">
  <g transform="matrix(1 0 0 1 -8 -11 )">
    <path d="M 22 8  C 20.27 3.61  16 0.5  11 0.5  C 6 0.5  1.73 3.61  0 8  C 1.73 12.39  6 15.5  11 15.5  C 16 15.5  20.27 12.39  22 8  Z M 16 8  C 16 10.76  13.76 13  11 13  C 8.24 13  6 10.76  6 8  C 6 5.24  8.24 3  11 3  C 13.76 3  16 5.24  16 8  Z M 14 8  C 14 6.34  12.66 5  11 5  C 9.34 5  8 6.34  8 8  C 8 9.66  9.34 11  11 11  C 12.66 11  14 9.66  14 8  Z " fill-rule="nonzero" fill="#8287a9" stroke="none" transform="matrix(1 0 0 1 8 11 )" />
  </g>
</svg>