<?xml version="1.0" encoding="utf-8"?>
<svg version="1.1" xmlns:xlink="http://www.w3.org/1999/xlink" width="22px" height="19px" xmlns="http://www.w3.org/2000/svg">
  <g transform="matrix(1 0 0 1 -8 -10 )">
    <path d="M 9.17 4.36  C 9.74 4.13  10.35 4  11 4  C 13.76 4  16 6.24  16 9  C 16 9.65  15.87 10.26  15.64 10.83  L 18.56 13.75  C 20.07 12.49  21.26 10.86  21.99 9  C 20.26 4.61  15.99 1.5  10.99 1.5  C 9.59 1.5  8.25 1.75  7.01 2.2  L 9.17 4.36  Z M 2.27 0  L 1 1.27  L 3.28 3.55  L 3.74 4.01  C 2.08 5.3  0.78 7.02  0 9  C 1.73 13.39  6 16.5  11 16.5  C 12.55 16.5  14.03 16.2  15.38 15.66  L 15.8 16.08  L 18.73 19  L 20 17.73  L 2.27 0  Z M 6 9  C 6 8.21  6.2 7.47  6.53 6.8  L 8.08 8.35  C 8.03 8.56  8 8.78  8 9  C 8 10.66  9.34 12  11 12  C 11.22 12  11.44 11.97  11.65 11.92  L 13.2 13.47  C 12.53 13.8  11.79 14  11 14  C 8.24 14  6 11.76  6 9  Z M 11.01 6.01  L 10.84 6.02  L 13.99 9.17  L 14.01 9.01  C 14.01 7.35  12.67 6.01  11.01 6.01  Z " fill-rule="nonzero" fill="#8287a9" stroke="none" transform="matrix(1 0 0 1 8 10 )" />
  </g>
</svg>