<?xml version="1.0" encoding="utf-8"?>
<svg version="1.1" xmlns:xlink="http://www.w3.org/1999/xlink" width="49px" height="37px" xmlns="http://www.w3.org/2000/svg">
  <g transform="matrix(1 0 0 1 -690 -705 )">
    <path d="M 47.9376014676279 15.5582038606403  C 45.232880381843 2.85449837356619  31.5402298850575 -0.47706942304399  19.6732661211768 1.71032357473038  C 16.44328587602 2.29343717480225  13.3128715138989 3.33018035869793  10.3757873887915 4.78949987159733  C 6.06513815832195 6.97689286937168  5.77776154295733 9.24841636706044  3.6139846743295 13.3539847628831  C 2.5659052535879 15.4404211607602  -0.00357977790764902 17.5268575586372  2.4475737060848 19.7142505564116  C 1.72097542907845 20.0282271609333  1.12437126452414 20.5804955558935  0.757123027469328 21.2790778548194  C 0.0549852099909017 22.6044197297598  -0.0967564115016493 24.1510469106336  0.334510357815436 25.5865594504366  C 0.824741054613916 27.2691694487246  2.19400610429247 27.908561248074  1.48401681927401 29.7930844461565  C 0.95014938737246 30.9372642145366  0.9014083377249 32.2471686202311  1.34878076498474 33.4275220424585  C 2.83637736216635 37.0283074387948  10.7307820313007 38.0378734377675  10.9167316059484 33.074173942818  C 10.9167316059484 32.653521443246  10.9167316059484 31.7617381441534  10.5279279498669 31.3915639445301  C 10.1391242937853 31.0213897449067  9.34461247483605 31.4925205444274  8.8374772712514 31.4925205444274  C 7.92903728026475 31.5464820825393  7.10849252991154 30.9550504767652  6.87655448405743 30.0791281458655  C 6.6567958958374 29.0022577469612  7.5865437690759 28.3965181475775  8.31343756088053 27.8917351480911  C 9.12831185331949 27.3450189757061  9.65045297495082 26.4602587102014  9.7334161309176 25.4856028505393  C 9.7334161309176 23.9712538520802  8.65152769660371 23.8029928522514  7.73868433015129 22.9785139530903  C 6.21727871939734 21.6829042544085  6.67370040262353 21.9184696541688  7.50202123514514 20.5387294555727  C 8.53319614910061 18.8561194572847  9.19247191376066 16.6014220595789  7.11321757906359 15.2889862609143  C 8.15391672018333 15.3288427321241  9.07325429595718 14.6194834400059  9.29389895447759 13.6063762626263  C 10.9843496330931 14.5486378616675  13.1481265017209 12.6809407635679  13.7059752256641 11.0824612651943  C 13.5369301578025 11.5704181646978  15.666898012858 10.6449826656395  15.8021340671473 10.5440260657422  C 16.541521229899 9.8531189636567  17.0889052062386 8.98368531000465  17.3911577050458 8.02011106831024  C 17.5602027729074 10.2411562660504  19.8592156958245 11.7386791645266  21.6510934151569 10.00559086629  C 22.8005998766154 12.7482451634994  25.1334218131048 12.6809407635679  27.7029068446004 12.0415489642185  C 28.5988457042666 15.2216818609827  25.911029125268 13.9092460623181  24.9981857588156 15.4908994607088  C 23.4936846548478 18.1325971580209  28.9200313332035 19.2767719568567  30.3738189168129 18.7551628573874  C 32.048255905512 18.0490439234864  33.0777818359094 16.3524366987441  32.9263994415223 14.5486378616675  C 33.1292535229561 16.6182481595617  36.0875422105332 15.6591604605376  37.152526138061 14.8851598613251  C 37.7779928891488 17.7792490583804  40.533427495292 18.3849886577641  42.5619683096306 16.4163349597672  C 42.933867458926 21.194947354905  49.1716304630171 21.1276429549735  47.9376014676279 15.5582038606403  Z " fill-rule="nonzero" fill="#bf3c1b" stroke="none" transform="matrix(1 0 0 1 690 705 )" />
  </g>
</svg>