<?xml version="1.0" encoding="utf-8"?>
<svg version="1.1" xmlns:xlink="http://www.w3.org/1999/xlink" width="51px" height="39px" xmlns="http://www.w3.org/2000/svg">
  <g transform="matrix(1 0 0 1 -1092 -692 )">
    <path d="M 47.0583451035781 6.79378531073462  C 45.7074278009466 5.3448391360399  44.1202498719629 4.13455639968871  42.3641360640302 3.21427474821914  C 33.3498940677966 -1.73936072218125  19.318290960452 -0.755419430115348  11.5626412429379 4.80893822156719  C 3.80699152542381 10.3732958732498  1.45988700564974 20.8234309751904  1.35783898305087 30.1199797347091  C 1.08600450266501 33.0051664156291  2.24118429874717 35.8414134852938  4.45329566854993 37.7200779906658  C 7.22560028248588 40.196895725866  7.10654425612057 32.8343005404079  7.41268832391718 30.035157209531  C 8.11001647834278 23.7922193564236  10.8142890772128 18.7707258658808  17.6174905838042 18.6519743306315  C 22.1926435969869 18.5671518054534  40.1360875706215 18.0582166543849  44.3200564971752 19.5680576025548  C 46.6161370056497 20.4162828543358  49.6605696798494 21.6716562269715  50.1878177966102 17.9903586342424  C 50.8516928143695 13.9804345179262  49.7063790660005 9.88275078015535  47.0583451035781 6.79378531073462  Z " fill-rule="nonzero" fill="#2b221c" stroke="none" transform="matrix(1 0 0 1 1092 692 )" />
  </g>
</svg>