<?xml version="1.0" encoding="utf-8"?>
<svg version="1.1" xmlns:xlink="http://www.w3.org/1999/xlink" width="22px" height="7px" xmlns="http://www.w3.org/2000/svg">
  <g transform="matrix(1 0 0 1 -1113 -735 )">
    <path d="M 20.3748189193104 3.75891596045209  C 19.951542807475 2.97104519774017  17.9367485151383 2.18317443502835  17.1748515138345 1.81550141242933  C 15.3575226280817 1.17417789722491  13.3997848868336 1.08906467437654  11.5368137041865 1.57038606403025  C 9.93108459578051 1.73414344742187  8.31076603155414 1.65154558207196  6.72839707373601 1.32527071563096  C 5.55359240849313 1.01793713535849  4.31021432964943 1.17397669456902  3.24060191221203 1.76297669491535  C 2.46177386643481 2.2882238700566  -0.568883094306845 4.28416313559333  0.209944951470373 5.26462452919026  C 0.616290018832392 5.84239642184568  2.08929088801971 5.85990466101697  2.69880848906269 5.82488818267439  C 3.91045631292988 5.68374418590939  5.04809690319594 5.15067715506554  5.94956902795879 4.30167137476462  C 6.6268108068955 5.19459157250479  7.03315587425752 5.87741290018836  8.2860531652904 5.63229755178918  C 9.17929674447853 5.51610109399606  9.95259459655621 4.93452998210303  10.3347095465739 4.09157250470813  C 10.7749167028828 4.72186911487772  14.2119187309865 6.57774246704342  14.4320223091409 5.05452565913376  C 15.6139726684456 5.46321968522231  16.870257132 5.58894023454432  18.1060589598724 5.42219868173268  C 18.698645516442 5.31714924670433  20.1039222077357 5.01950918079098  20.3748189193104 4.33668785310741  C 20.4510497151774 4.15216368624313  20.4510497151774 3.94344012731636  20.3748189193104 3.75891596045209  Z " fill-rule="nonzero" fill="#45362e" stroke="none" transform="matrix(1 0 0 1 1113 735 )" />
  </g>
</svg>