<?xml version="1.0" encoding="utf-8"?>
<svg version="1.1" xmlns:xlink="http://www.w3.org/1999/xlink" width="3px" height="3px" xmlns="http://www.w3.org/2000/svg">
  <g transform="matrix(1 0 0 1 -985 -757 )">
    <path d="M 0.878684107066235 0.78621051080836  C 0.873630322051355 0.78621051080836  0.868576676966825 0.786263695649595  0.863524011299418 0.786370056497233  C 0.477435388864478 0.802121366096543  0.172548368784959 1.11970052548936  0.172548368784959 1.50611031849127  C 0.172548368784959 1.51631805868904  0.172765345710559 1.52652464573482  0.173199152542381 1.53672316384186  C 0.181017055687548 1.92059030936764  0.49443809221269 2.22769315388766  0.878384839853197 2.22769315388766  C 0.888441742065368 2.22769315388766  0.898497494065666 2.22747806094111  0.908545197740139 2.22704802259894  C 1.29241234326597 2.21923011945373  1.59951518778594 1.90580908292858  1.59951518778594 1.52186233528803  C 1.59951518778594 1.51180543307582  1.59930009483935 1.50174968107569  1.59887005649718 1.49170197740114  C 1.5907892685112 1.09973945732254  1.27072991597235 0.78621051080836  0.878684107066235 0.78621051080836  Z " fill-rule="nonzero" fill="#fff9f0" stroke="none" transform="matrix(1 0 0 1 985 757 )" />
  </g>
</svg>