<?xml version="1.0" encoding="utf-8"?>
<svg version="1.1" xmlns:xlink="http://www.w3.org/1999/xlink" width="385px" height="97px" xmlns="http://www.w3.org/2000/svg">
  <g transform="matrix(1 0 0 1 -768 -3414 )">
    <path d="M 384 96  L 0.36451100732954 96  C 0.776070419387636 96  -0.632121609662505 81.8317653931911  0.36451100732954 81.9373808063489  C 1.36114362432159 82.0429962195067  24.0640006748304 79.9284352072559  37.3949636127997 72.8971256104304  C 50.7259265507689 65.8658160136048  58.1320170718629 67.8747616126978  69.9817619056134 55.8210880181397  C 81.8315067393638 43.7674144235816  95.162469677333 37.7405776263026  107.012214511083 29.7047952299305  C 118.861959344834 21.6690128335584  130.711704178584 21.6690128335584  142.561449012335 12.6287576376399  C 154.411193846085 3.58850244172132  163.298502471398 1.6552206035384  175.148247305149 0.575084043081787  C 186.997992138899 -0.505052517374807  192.922864555774 -0.353724995554614  209.216263702181 3.58850244172132  C 225.509662848588 7.53072987899726  229.953317161244 10.6198120385469  244.765498203432 16.6466488358259  C 259.57767924562 22.6734856331049  259.57767924562 22.6197245398267  277.352296496246 31.7137408290235  C 295.126913746872 40.8077571182203  301.051786163747 37.7405776263026  314.382749101716 41.7584688244886  C 327.713712039685 45.7763600226746  332.157366352342 43.7674144235816  349.931983602967 49.7942512208606  C 367.706600853593 55.8210880181397  384 69.8837072117908  384 69.8837072117908  C 384 69.8837072117908  384 96  384 96  Z " fill-rule="nonzero" fill="#7ecf51" stroke="none" fill-opacity="0.498039215686275" transform="matrix(1 0 0 1 768 3414 )" />
  </g>
</svg>