<?xml version="1.0" encoding="utf-8"?>
<svg version="1.1" xmlns:xlink="http://www.w3.org/1999/xlink" width="200px" height="200px" xmlns="http://www.w3.org/2000/svg">
  <g transform="matrix(1 0 0 1 -228 -8548 )">
    <path d="M 328 8548.5  C 383.72 8548.5  427.5 8592.28  427.5 8648  C 427.5 8703.72  383.72 8747.5  328 8747.5  C 272.28 8747.5  228.5 8703.72  228.5 8648  C 228.5 8592.28  272.28 8548.5  328 8548.5  Z " fill-rule="nonzero" fill="#ff9966" stroke="none" fill-opacity="0.2" />
    <path d="M 328 8548.5  C 383.72 8548.5  427.5 8592.28  427.5 8648  C 427.5 8703.72  383.72 8747.5  328 8747.5  C 272.28 8747.5  228.5 8703.72  228.5 8648  C 228.5 8592.28  272.28 8548.5  328 8548.5  Z " stroke-width="1" stroke="#ff9966" fill="none" stroke-opacity="0.498039215686275" />
  </g>
</svg>