<?xml version="1.0" encoding="utf-8"?>
<svg version="1.1" xmlns:xlink="http://www.w3.org/1999/xlink" width="878px" height="181px" xmlns="http://www.w3.org/2000/svg">
  <g transform="matrix(1 0 0 1 -203 -6183 )">
    <path d="M 0 179.623603675177  L 0 146.511108008678  C 0 147  24.0729981952503 126.442928816861  36.1094972928755 116.408839220952  C 47.8116491933444 104.367931705861  48.3033657700448 95.6355074883048  71.2159529942822 80.2861166756805  C 88.4314324532885 68.7532801759479  94.62025679522 70.9209663861657  106.322408695689 66.2383912414083  C 118.13194773693 59.9918821320471  120.923282354033 55.3651302972524  141.751025819413 47.4988639133249  C 160.348289203223 40.47500998348  164.940555338806 41.9305208594114  176.535320098502 39.1463493324547  C 188.237471998971 34.1293045345003  192.944341489063 34.2960066979697  211.641775799909 24.0952149385916  C 232.701765465411 12.6054797449329  226.985566172147 0.569192933375199  247.31361563234 0.0133999084105909  C 265.775392984944 -0.491367019725857  269.672302284949 13.3921860362889  280.851645611254 20.0815791002281  C 292.888144708879 29.7811990429398  304 37  316.961142904129 49.1804389283634  C 329.922285808259 61.3608778567268  328.001073295531 77.1319906378835  352.067598605536 86.3065704332258  C 368.684442324009 92.6412014893544  375.348108613886 78.5926871089062  387.174054306943 83.2963435544531  C 399 88  403.766855197641 125.327015626136  422.28051000835 124.436110897679  C 443.237311781108 123.427638287404  444 77  457.386965709756 74.2656629181352  C 470.773931419512 71.5313258362705  474.501647217924 94.7349456180154  492.493421411163 92.3270241907709  C 514.161689289846 89.427060798836  515 64  527.59987711257 60.217937483863  C 540.199754225139 56.435874967726  544.199114418875 67.8193796602016  563.709374405445 65.2349822818174  C 582.94669410555 62.6867395298339  585.776289417758 55.8698319923026  596.809746923914 51.1872568475452  C 608.84624602154 46.8391513559847  612.163203114587 40.3162822114364  632.91924421679 38.1429403728638  C 652.63269945526 36.0787665334678  656.99224241204 41.4876369048334  669.028741509665 43.1599851708181  C 680.396546212978 45.1668030899999  685.103365849052 52.2074560950832  703.132155619603 49.1804389283634  C 724.628207758131 45.5712716094171  725.483305824958 26.2245194730918  739.241652912479 29.1122597365459  C 753 32  760 78  773.345067022417 79.2827077160896  C 786.690134044834 80.5654154321792  788.085460484759 66.1901264612418  809.454564315292 54.1974837263178  C 827.578971250988 44.0258106937969  826.599873953453 50.7243077478758  843.55797842523 39.1463493324547  C 864.262762046809 25.0103871339735  875.731002376604 7.07452525109341  875.865501188302 7.0372626255467  C 876 7  877 179.247207350354  877 179.623603675177  C 877 180  0 180  0 179.623603675177  Z " fill-rule="nonzero" fill="#61a5e8" stroke="none" fill-opacity="0.498039215686275" transform="matrix(1 0 0 1 203 6183 )" />
  </g>
</svg>