<?xml version="1.0" encoding="utf-8"?>
<svg version="1.1" xmlns:xlink="http://www.w3.org/1999/xlink" width="200px" height="200px" xmlns="http://www.w3.org/2000/svg">
  <g transform="matrix(1 0 0 1 -368 -8548 )">
    <path d="M 468 8548.5  C 523.72 8548.5  567.5 8592.28  567.5 8648  C 567.5 8703.72  523.72 8747.5  468 8747.5  C 412.28 8747.5  368.5 8703.72  368.5 8648  C 368.5 8592.28  412.28 8548.5  468 8548.5  Z " fill-rule="nonzero" fill="#f3e7f8" stroke="none" fill-opacity="0.2" />
    <path d="M 468 8548.5  C 523.72 8548.5  567.5 8592.28  567.5 8648  C 567.5 8703.72  523.72 8747.5  468 8747.5  C 412.28 8747.5  368.5 8703.72  368.5 8648  C 368.5 8592.28  412.28 8548.5  468 8548.5  Z " stroke-width="1" stroke="#cc93e1" fill="none" stroke-opacity="0.498039215686275" />
  </g>
</svg>