<?xml version="1.0" encoding="utf-8"?>
<svg version="1.1" xmlns:xlink="http://www.w3.org/1999/xlink" width="116px" height="24px" preserveAspectRatio="xMinYMid meet" viewBox="768 7317  116 22" xmlns="http://www.w3.org/2000/svg">
  <g transform="matrix(0.96592582628906 0.258819045102522 -0.258819045102542 0.965925826289074 1924.77122999666 35.9110136989821 )">
    <path d="M 0 146  L 36 116  L 71 80  L 106 66  L 141.321184510251 47.3241379310345  L 176 39  L 211 24  L 246.56366967814 0  L 280 20  L 316 49  L 351 86  L 386 83  L 421 124  L 456 74  L 491 92  L 526 60  L 562 65  L 595 51  L 631 38  L 667 43  L 701 49  L 737 29  L 771 79  L 807 54  " stroke-width="2" stroke="#7ecf51" fill="none" transform="matrix(1 0 0 1 212 7278 )" />
  </g>
</svg>