<?xml version="1.0" encoding="utf-8"?>
<svg version="1.1" xmlns:xlink="http://www.w3.org/1999/xlink" width="246px" height="86px" xmlns="http://www.w3.org/2000/svg">
  <g transform="matrix(1 0 0 1 -680 -729 )">
    <path d="M 0.666158474411063 83  C 6 47  21 24  31.7709017024116 25  C 42.5418034048232 26  46.9032752809594 37.3467253471032  61.8722661166056 34  C 81.1616590951544 29.6873311554302  78.9472610615994 7  91.9736305307997 7  C 105 7  107 38  122.074994944994 34  C 137.149989889987 30  139 21  153.179738172994 13  C 167.359476345989 5  168.555447546764 -1  182.277723773382 7  C 196 15  201.758176375152 35  212.379088187576 34  C 223 33  237 11  242.48045260177 0  " stroke-width="2" stroke="#61a5e8" fill="none" transform="matrix(1 0 0 1 681 730 )" />
  </g>
</svg>