<?xml version="1.0" encoding="utf-8"?>
<svg version="1.1" xmlns:xlink="http://www.w3.org/1999/xlink" width="261px" height="126px" xmlns="http://www.w3.org/2000/svg">
  <g transform="matrix(1 0 0 1 -64 -1152 )">
    <path d="M 260 125  L 0.244473376648671 125  C 0.520501581927036 125  -0.423956756474773 64.8949243098842  0.244473376648671 65  C 0.912903509772114 65.1050756901158  29.4505139454158 20.9291942843599  39.2174187813445 21.8165627782725  C 50.2436150150869 22.8183437221728  54.7084635582185 34.1852769505708  70.0322530546887 30.8325912733749  C 89.7788479162525 26.5122418075325  87.5119636820269 3.78450578806768  100.847087328033 3.78450578806768  C 114.182210974039 3.78450578806768  116.229615460382 34.839715048976  131.661921601377 30.8325912733749  C 147.094227742371 26.8254674977738  148.988087241882 17.8094390026714  163.503917017166 9.79519145146928  C 178.01974679245 1.78094390026715  179.244065193452 -4.22974176313446  193.291590148065 3.78450578806768  C 207.339115102678 11.7987533392698  213.2337731745 31.8343722172752  224.106424421409 30.8325912733749  C 229.494214868957 30.3361727202998  259 19  259 19  C 259 19  260 125  260 125  Z " fill-rule="nonzero" fill="#199ed8" stroke="none" fill-opacity="0.498039215686275" transform="matrix(1 0 0 1 64 1152 )" />
  </g>
</svg>