<?xml version="1.0" encoding="utf-8"?>
<svg version="1.1" xmlns:xlink="http://www.w3.org/1999/xlink" width="260px" height="118px" xmlns="http://www.w3.org/2000/svg">
  <g transform="matrix(1 0 0 1 -379 -1160 )">
    <path d="M 259 116  L 0.245855080464452 117  C 0.523443329743223 117  -0.426352856517163 96.7362122197572  0.245855080464452 96.8421870031947  C 0.918063017446073 96.9481617866321  16.2306671218257 92.8106244038336  25.2221238950914 85.7553898549517  C 34.2135806683572 78.7001553060699  39.2088344312825 78.7001553060699  47.2012404519632 66.6054675079866  C 55.1936464726438 54.5107797099034  63.1860524933245 48.3555477659794  71.1784585140051 35.3069133404971  C 79.1708645346857 22.2582789150149  89.1613720605365 18.2267163156538  94.1566258234619 13.1872630664525  C 99.1518795863873 8.14780981725116  111.140488617408 3.10835656804982  119.132894638089 2.02454470144046  C 127.12530065877 0.940732834831095  129.12340216394 -1.93109668115151  140.112960442376 2.02454470144046  C 151.102518720811 5.98018608403243  155.098721731152 10.1635911169317  165.089229257003 16.2109350159733  C 175.079736782853 22.2582789150149  176.078787535438 26.1819534694935  188.067396566459 35.3069133404971  C 200.05600559748 44.4318732115008  207.049360865576 43.4239825616605  213.043665381086 47.4555451610216  C 219.037969896597 51.4871077603826  219.037969896597 47.4555451610216  236.021832690543 60.5581236089451  C 253.00569548449 73.6607020568685  259 84.7474992051115  259 84.7474992051115  C 259 84.7474992051115  259 116  259 116  Z " fill-rule="nonzero" fill="#61a5e8" stroke="none" fill-opacity="0.498039215686275" transform="matrix(1 0 0 1 379 1160 )" />
  </g>
</svg>