<svg xmlns="http://www.w3.org/2000/svg" xmlns:xlink="http://www.w3.org/1999/xlink" width="150" height="139" version="1.1"><defs><mask id="clip1638" fill="#fff"><path fill-rule="evenodd" d="M 0 55.2056737588653 L 75 0 L 150 55.2056737588653 L 125.328947368421 139 L 25.6578947368421 139 L 0 55.2056737588653 Z"/></mask></defs><g><path fill="#fff" fill-opacity="0" fill-rule="nonzero" stroke="none" d="M 0 55.2056737588653 L 75 0 L 150 55.2056737588653 L 125.328947368421 139 L 25.6578947368421 139 L 0 55.2056737588653 Z" transform="matrix(1 0 0 1 -337 -917 ) matrix(1 0 0 1 337 917 )"/><path fill="none" stroke="#ccc" stroke-width="2" d="M 0 55.2056737588653 L 75 0 L 150 55.2056737588653 L 125.328947368421 139 L 25.6578947368421 139 L 0 55.2056737588653 Z" mask="url(#clip1638)" transform="matrix(1 0 0 1 -337 -917 ) matrix(1 0 0 1 337 917 )"/></g></svg>