<svg xmlns="http://www.w3.org/2000/svg" xmlns:xlink="http://www.w3.org/1999/xlink" width="120" height="111" version="1.1"><defs><mask id="clip1639" fill="#fff"><path fill-rule="evenodd" d="M 0 44.0851063829787 L 60 0 L 120 44.0851063829787 L 100.263157894737 111 L 20.5263157894737 111 L 0 44.0851063829787 Z"/></mask></defs><g><path fill="#fff" fill-opacity="0" fill-rule="nonzero" stroke="none" d="M 0 44.0851063829787 L 60 0 L 120 44.0851063829787 L 100.263157894737 111 L 20.5263157894737 111 L 0 44.0851063829787 Z" transform="matrix(1 0 0 1 -352 -931 ) matrix(1 0 0 1 352 931 )"/><path fill="none" stroke="#ccc" stroke-width="2" d="M 0 44.0851063829787 L 60 0 L 120 44.0851063829787 L 100.263157894737 111 L 20.5263157894737 111 L 0 44.0851063829787 Z" mask="url(#clip1639)" transform="matrix(1 0 0 1 -352 -931 ) matrix(1 0 0 1 352 931 )"/></g></svg>