<svg xmlns="http://www.w3.org/2000/svg" xmlns:xlink="http://www.w3.org/1999/xlink" width="60" height="59" version="1.1"><defs><mask id="clip1641" fill="#fff"><path fill-rule="evenodd" d="M 0 23.4326241134752 L 30 0 L 60 23.4326241134752 L 50.1315789473684 59 L 10.2631578947368 59 L 0 23.4326241134752 Z"/></mask></defs><g><path fill="#fff" fill-opacity="0" fill-rule="nonzero" stroke="none" d="M 0 23.4326241134752 L 30 0 L 60 23.4326241134752 L 50.1315789473684 59 L 10.2631578947368 59 L 0 23.4326241134752 Z" transform="matrix(1 0 0 1 -382 -958 ) matrix(1 0 0 1 382 958 )"/><path fill="none" stroke="#ccc" stroke-width="2" d="M 0 23.4326241134752 L 30 0 L 60 23.4326241134752 L 50.1315789473684 59 L 10.2631578947368 59 L 0 23.4326241134752 Z" mask="url(#clip1641)" transform="matrix(1 0 0 1 -382 -958 ) matrix(1 0 0 1 382 958 )"/></g></svg>