<svg xmlns="http://www.w3.org/2000/svg" xmlns:xlink="http://www.w3.org/1999/xlink" width="30" height="30" version="1.1"><defs><mask id="clip1642" fill="#fff"><path fill-rule="evenodd" d="M 0 11.9148936170213 L 15 0 L 30 11.9148936170213 L 25.0657894736842 30 L 5.13157894736841 30 L 0 11.9148936170213 Z"/></mask></defs><g><path fill="#fff" fill-opacity="0" fill-rule="nonzero" stroke="none" d="M 0 11.9148936170213 L 15 0 L 30 11.9148936170213 L 25.0657894736842 30 L 5.13157894736841 30 L 0 11.9148936170213 Z" transform="matrix(1 0 0 1 -397 -973 ) matrix(1 0 0 1 397 973 )"/><path fill="none" stroke="#ccc" stroke-width="2" d="M 0 11.9148936170213 L 15 0 L 30 11.9148936170213 L 25.0657894736842 30 L 5.13157894736841 30 L 0 11.9148936170213 Z" mask="url(#clip1642)" transform="matrix(1 0 0 1 -397 -973 ) matrix(1 0 0 1 397 973 )"/></g></svg>