<svg xmlns="http://www.w3.org/2000/svg" xmlns:xlink="http://www.w3.org/1999/xlink" width="126" height="125" version="1.1"><defs><mask id="clip1643" fill="#fff"><path fill-rule="evenodd" d="M 0 41.2056737588653 L 74 0 L 119 48 L 125.328947368421 125 L 45 99 L 0 41.2056737588653 Z"/></mask></defs><g><path fill="#fff" fill-opacity="0" fill-rule="nonzero" stroke="none" d="M 0 41.2056737588653 L 74 0 L 119 48 L 125.328947368421 125 L 45 99 L 0 41.2056737588653 Z" transform="matrix(1 0 0 1 -337 -930 ) matrix(1 0 0 1 337 930 )"/><path fill="none" stroke="#61a5e8" stroke-width="6" d="M 0 41.2056737588653 L 74 0 L 119 48 L 125.328947368421 125 L 45 99 L 0 41.2056737588653 Z" mask="url(#clip1643)" transform="matrix(1 0 0 1 -337 -930 ) matrix(1 0 0 1 337 930 )"/></g></svg>