<svg xmlns="http://www.w3.org/2000/svg" xmlns:xlink="http://www.w3.org/1999/xlink" width="121" height="97" version="1.1"><defs><mask id="clip1644" fill="#fff"><path fill-rule="evenodd" d="M 0 34 L 45 0 L 121 27 L 85 97 L 7 97 L 0 34 Z"/></mask></defs><g><path fill="#fff" fill-opacity="0" fill-rule="nonzero" stroke="none" d="M 0 34 L 45 0 L 121 27 L 85 97 L 7 97 L 0 34 Z" transform="matrix(1 0 0 1 -364 -945 ) matrix(1 0 0 1 364 945 )"/><path fill="none" stroke="#7ecf51" stroke-width="6" d="M 0 34 L 45 0 L 121 27 L 85 97 L 7 97 L 0 34 Z" mask="url(#clip1644)" transform="matrix(1 0 0 1 -364 -945 ) matrix(1 0 0 1 364 945 )"/></g></svg>