<svg xmlns="http://www.w3.org/2000/svg" xmlns:xlink="http://www.w3.org/1999/xlink" width="247" height="48" version="1.1"><g><path fill="none" stroke="#7ecf51" stroke-width="2" d="M 0 38 C 14 43 19 46 30 43 C 41 40 48.0310091643538 19.3467253471032 63 16 C 82.2893929785488 11.6873311554302 89 26 96 32 C 103 38 111 44 124 43 C 137 42 135.820261827006 10 150 2 C 164.179738172994 -6 170.277723773382 15 184 23 C 197.722276226618 31 206 18 216 16 C 226 14 235 13 244 15" transform="matrix(1 0 0 1 -679 -731 ) matrix(1 0 0 1 680 732 )"/></g></svg>