<?xml version="1.0" encoding="utf-8"?>
<svg version="1.1" xmlns:xlink="http://www.w3.org/1999/xlink" width="86px" height="114px" xmlns="http://www.w3.org/2000/svg">
  <defs>
    <mask fill="white" id="clip107">
      <path d="M 5.15355805243453 5.45915492957742  L 0 0  L 86 0  L 86 12.5239436619718  L 80.8464419475655 17.3408450704225  L 77.3033707865168 26.3323943661972  L 73.7602996254682 32.112676056338  L 72.7940074906368 42.3887323943662  L 72.7940074906368 51.0591549295775  L 73.7602996254682 65.830985915493  L 58.9438202247191 88.9521126760563  L 39.6179775280899 112.07323943662  L 28.0224719101123 114  L 19.9700374531835 106.614084507042  L 14 98.5859154929577  L 14 85.7408450704225  L 23.5131086142323 70.969014084507  L 25.7677902621723 57.481690140845  L 23.5131086142323 46.8845070422535  L 17.7153558052435 39.1774647887324  L 16.4269662921349 28.5802816901408  L 14.8164794007491 22.4788732394366  L 21.9026217228464 19.5887323943662  L 19.9700374531835 14.1295774647887  L 16.4269662921349 12.5239436619718  L 11.5955056179776 12.5239436619718  L 5.15355805243453 9.63380281690142  L 5.15355805243453 5.45915492957742  Z " fill-rule="evenodd" />
    </mask>
  </defs>
  <g transform="matrix(1 0 0 1 -534 -2494 )">
    <path d="M 5.15355805243453 5.45915492957742  L 0 0  L 86 0  L 86 12.5239436619718  L 80.8464419475655 17.3408450704225  L 77.3033707865168 26.3323943661972  L 73.7602996254682 32.112676056338  L 72.7940074906368 42.3887323943662  L 72.7940074906368 51.0591549295775  L 73.7602996254682 65.830985915493  L 58.9438202247191 88.9521126760563  L 39.6179775280899 112.07323943662  L 28.0224719101123 114  L 19.9700374531835 106.614084507042  L 14 98.5859154929577  L 14 85.7408450704225  L 23.5131086142323 70.969014084507  L 25.7677902621723 57.481690140845  L 23.5131086142323 46.8845070422535  L 17.7153558052435 39.1774647887324  L 16.4269662921349 28.5802816901408  L 14.8164794007491 22.4788732394366  L 21.9026217228464 19.5887323943662  L 19.9700374531835 14.1295774647887  L 16.4269662921349 12.5239436619718  L 11.5955056179776 12.5239436619718  L 5.15355805243453 9.63380281690142  L 5.15355805243453 5.45915492957742  Z " fill-rule="nonzero" fill="#eeeeee" stroke="none" fill-opacity="0.498039215686275" transform="matrix(1 0 0 1 534 2494 )" />
    <path d="M 5.15355805243453 5.45915492957742  L 0 0  L 86 0  L 86 12.5239436619718  L 80.8464419475655 17.3408450704225  L 77.3033707865168 26.3323943661972  L 73.7602996254682 32.112676056338  L 72.7940074906368 42.3887323943662  L 72.7940074906368 51.0591549295775  L 73.7602996254682 65.830985915493  L 58.9438202247191 88.9521126760563  L 39.6179775280899 112.07323943662  L 28.0224719101123 114  L 19.9700374531835 106.614084507042  L 14 98.5859154929577  L 14 85.7408450704225  L 23.5131086142323 70.969014084507  L 25.7677902621723 57.481690140845  L 23.5131086142323 46.8845070422535  L 17.7153558052435 39.1774647887324  L 16.4269662921349 28.5802816901408  L 14.8164794007491 22.4788732394366  L 21.9026217228464 19.5887323943662  L 19.9700374531835 14.1295774647887  L 16.4269662921349 12.5239436619718  L 11.5955056179776 12.5239436619718  L 5.15355805243453 9.63380281690142  L 5.15355805243453 5.45915492957742  Z " stroke-width="2" stroke="#ff0000" fill="none" stroke-opacity="0.2" transform="matrix(1 0 0 1 534 2494 )" mask="url(#clip107)" />
  </g>
</svg>