<svg xmlns="http://www.w3.org/2000/svg" xmlns:xlink="http://www.w3.org/1999/xlink" width="261" height="135" version="1.1"><g><path fill="#7ecf51" fill-opacity=".498" fill-rule="nonzero" stroke="none" d="M 260 134 L 0.244473376648671 134 C 0.520501581927036 134 -0.423956756474773 9.19928124011674 0.244473376648671 9.30494590836434 C 0.912903509772114 9.41061057661193 26.0231078167587 52.6592355671089 35.7900126526874 53.5515780053964 C 46.8162088864297 54.5589742069094 55.3433322991326 49.8838194830476 70.6671217956027 46.5123410808685 C 90.4137166571666 42.1677748684654 88.2231519618932 28.4114461320827 101.558275607899 28.4114461320827 C 114.893399253905 28.4114461320827 116.020634446546 4.28408324002348 131.452940587541 0.254498433971428 C 146.885246728535 -3.77508637208062 147.828264624553 41.4986421188496 162.344094399837 33.4394725067454 C 176.859924175121 25.3803028946413 180.184212090175 16.3298554202484 194.231737044788 24.3890250323525 C 208.279261999401 32.4481946444566 214.250239610176 29.4188423335957 225.122890857085 28.4114461320827 C 230.510681304632 27.912245016536 259 8 259 8 C 259 8 260 134 260 134 Z" transform="matrix(1 0 0 1 -64 -1144 ) matrix(1 0 0 1 64 1144 )"/></g></svg>