<svg xmlns="http://www.w3.org/2000/svg" xmlns:xlink="http://www.w3.org/1999/xlink" width="260" height="97" version="1.1"><g><path fill="#7ecf51" fill-opacity=".498" fill-rule="nonzero" stroke="none" d="M 258 95 L 0.245855080464452 96 C 0.523443329743223 96 -0.426352856517163 81.8317653931911 0.245855080464452 81.9373808063489 C 0.918063017446073 82.0429962195067 16.2306671218257 79.9284352072559 25.2221238950914 72.8971256104303 C 34.2135806683572 65.8658160136048 39.2088344312825 67.8747616126978 47.2012404519632 55.8210880181397 C 55.1936464726438 43.7674144235816 64.1851032459095 37.7405776263026 72.1775092665902 29.7047952299305 C 80.1699152872708 21.6690128335584 88.1623213079515 21.6690128335584 96.1547273286321 12.6287576376399 C 104.147133349313 3.58850244172132 110.141437864823 1.6552206035384 118.133843885504 0.575084043081795 C 126.126249906184 -0.505052517374807 130.122452916525 -0.353724995554622 141.112011194961 3.58850244172132 C 152.101569473397 7.53072987899726 155.098721731152 10.6198120385469 165.089229257003 16.6466488358259 C 175.079736782853 22.6734856331049 175.079736782853 22.6197245398267 187.068345813874 31.7137408290235 C 199.056954844895 40.8077571182203 203.053157855236 37.7405776263026 212.044614628501 41.7584688244886 C 221.036071401767 45.7763600226746 224.033223659522 43.7674144235816 236.021832690543 49.7942512208607 C 248.010441721564 55.8210880181397 259 69.8837072117908 259 69.8837072117908 C 259 69.8837072117908 258 95 258 95 Z" transform="matrix(1 0 0 1 -379 -1182 ) matrix(1 0 0 1 379 1182 )"/></g></svg>