<?xml version="1.0" encoding="utf-8"?>
<svg version="1.1" xmlns:xlink="http://www.w3.org/1999/xlink" width="386px" height="165px" xmlns="http://www.w3.org/2000/svg">
  <g transform="matrix(1 0 0 1 -130 -3352 )">
    <path d="M 385 164  L 0.362008653883606 164  C 0.770742727084269 164  -0.627782120164568 78.403544400832  0.362008653883606 78.5531841199452  C 0.900741636784701 78.6346314867544  13.6651230988871 60.0341394038893  27.5189958544955 43.2681251365362  C 39.1182434266918 29.2306676171379  58.3964882748117 19.6047310810625  64.9872122762148 20.1806182809812  C 81.3144643915641 21.6072681454077  77.743786623538 53.115661922248  100.434782608696 48.3410566595303  C 129.674932692165 42.1883882371081  131.943734015345 17.1634284547081  140.805626598465 15.151968570526  C 149.667519181586 13.1405086863439  158.529411764706 18.1691583967991  172.314578005115 22.1920781651633  C 186.099744245524 26.2149979335274  190.038363171356 27.2207278756185  206.777493606138 26.2149979335274  C 223.516624040921 25.2092679914364  229.424552429668 26.2149979335274  243.209718670077 19.1748883388901  C 269.291464605574 5.85489301905574  278.657289002558 0.0660194391603617  278.657289002558 0.0660194391603617  C 287.519181585678 -0.939710502930679  296.946085766774 9.71910553305352  310.166240409207 20.1806182809812  C 323.38639505164 30.6421310289088  342.241773210152 31.8042099179502  348.567774936061 31.2436476439826  C 356.545849252623 30.5366912322484  384.015345268542 13.1405086863439  384.015345268542 13.1405086863439  C 384.015345268542 13.1405086863439  385 164  385 164  Z " fill-rule="nonzero" fill="#199ed8" stroke="none" fill-opacity="0.498039215686275" transform="matrix(1 0 0 1 130 3352 )" />
  </g>
</svg>