<?xml version="1.0" encoding="utf-8"?>
<svg version="1.1" xmlns:xlink="http://www.w3.org/1999/xlink" width="385px" height="118px" xmlns="http://www.w3.org/2000/svg">
  <g transform="matrix(1 0 0 1 -768 -3392 )">
    <path d="M 384 117  L 0.36451100732954 117  C 0.776070419387636 117  -0.632121609662505 96.7362122197572  0.36451100732954 96.8421870031947  C 1.36114362432159 96.9481617866321  24.0640006748304 92.8106244038336  37.3949636127997 85.7553898549517  C 50.7259265507689 78.7001553060699  58.1320170718629 78.7001553060699  69.9817619056134 66.6054675079866  C 81.8315067393638 54.5107797099034  93.6812515731143 48.3555477659794  105.530996406865 35.3069133404971  C 117.380741240615 22.2582789150149  132.192922282803 18.2267163156538  139.599012803897 13.1872630664525  C 147.005103324991 8.14780981725116  164.779720575617 3.10835656804983  176.629465409367 2.02454470144046  C 188.479210243118 0.940732834831095  191.441646451555 -1.93109668115152  207.735045597962 2.02454470144046  C 224.028444744369 5.98018608403243  229.953317161244 10.1635911169317  244.765498203432 16.2109350159733  C 259.57767924562 22.2582789150149  261.058897349839 26.1819534694935  278.833514600465 35.3069133404971  C 296.60813185109 44.4318732115008  306.976658580622 43.4239825616605  315.863967205935 47.4555451610216  C 324.751275831248 51.4871077603826  324.751275831248 47.4555451610216  349.931983602967 60.558123608945  C 375.112691374687 73.6607020568685  384 84.7474992051115  384 84.7474992051115  C 384 84.7474992051115  384 117  384 117  Z " fill-rule="nonzero" fill="#61a5e8" stroke="none" fill-opacity="0.498039215686275" transform="matrix(1 0 0 1 768 3392 )" />
  </g>
</svg>