<?xml version="1.0" encoding="utf-8"?>
<svg version="1.1" xmlns:xlink="http://www.w3.org/1999/xlink" width="384px" height="73px" xmlns="http://www.w3.org/2000/svg">
  <g transform="matrix(1 0 0 1 -770 -3438 )">
    <path d="M 381.517916360231 72  L 0.364969571207226 72  C 0.777046735201745 72  -0.632916834307763 63.870891377155  0.364969571207226 63.9763473671327  C 1.36285597672222 64.0818033571105  25.5773552971354 56.9556513133739  37.4420074034546 54.9497381551571  C 49.3066595097738 52.9438249969403  59.688230102803 50.9379118387235  71.5528822091222 45.9231289431814  C 83.4175343154413 40.9083460476394  98.2483494483403 37.8994763103142  108.62992004137 32.8846934147722  C 119.011490634399 27.8699105192301  126.426898200848 27.8699105192301  135.325387280588 21.8521710445797  C 144.223876360327 15.8344315699293  156.088528466646 10.8196486743872  175.368588139415 4.80190919973677  C 194.648647812183 -1.21583027491366  193.165566298894 -1.21583027491366  207.996381431792 2.79599604151997  C 222.827196564691 6.8078223579536  228.759522617851 7.810778937062  243.59033775075 13.8285184117124  C 258.421152883649 19.8462578863629  261.387315910229 26.8669539401217  277.701212556418 29.8758236774469  C 294.015109202606 32.8846934147722  301.430516769056 30.8787802565553  313.295168875375 33.8876499938806  C 325.159820981694 36.8965197312058  329.609065521564 36.8965197312058  347.406043681043 39.905389468531  C 365.203021840521 42.9142592058562  383 52.9438249969403  383 52.9438249969403  C 383 52.9438249969403  381.517916360231 72  381.517916360231 72  Z " fill-rule="nonzero" fill="#eecb5f" stroke="none" fill-opacity="0.498039215686275" transform="matrix(1 0 0 1 770 3438 )" />
  </g>
</svg>