<?xml version="1.0" encoding="utf-8"?>
<svg version="1.1" xmlns:xlink="http://www.w3.org/1999/xlink" width="11px" height="11px" xmlns="http://www.w3.org/2000/svg">
  <g transform="matrix(1 0 0 1 -374 -1820 )">
    <path d="M 379.5 1821  C 382.02 1821  384 1822.98  384 1825.5  C 384 1828.02  382.02 1830  379.5 1830  C 376.98 1830  375 1828.02  375 1825.5  C 375 1822.98  376.98 1821  379.5 1821  Z " fill-rule="nonzero" fill="#ffffff" stroke="none" />
    <path d="M 379.5 1821  C 382.02 1821  384 1822.98  384 1825.5  C 384 1828.02  382.02 1830  379.5 1830  C 376.98 1830  375 1828.02  375 1825.5  C 375 1822.98  376.98 1821  379.5 1821  Z " stroke-width="2" stroke="#61a5e8" fill="none" />
  </g>
</svg>