<svg xmlns="http://www.w3.org/2000/svg" xmlns:xlink="http://www.w3.org/1999/xlink" width="11" height="11" version="1.1"><g><path fill="#fff" fill-rule="nonzero" stroke="none" d="M 379.5 1821 C 382.02 1821 384 1822.98 384 1825.5 C 384 1828.02 382.02 1830 379.5 1830 C 376.98 1830 375 1828.02 375 1825.5 C 375 1822.98 376.98 1821 379.5 1821 Z" transform="matrix(1 0 0 1 -374 -1820 )"/><path fill="none" stroke="#61a5e8" stroke-width="2" d="M 379.5 1821 C 382.02 1821 384 1822.98 384 1825.5 C 384 1828.02 382.02 1830 379.5 1830 C 376.98 1830 375 1828.02 375 1825.5 C 375 1822.98 376.98 1821 379.5 1821 Z" transform="matrix(1 0 0 1 -374 -1820 )"/></g></svg>