<svg xmlns="http://www.w3.org/2000/svg" xmlns:xlink="http://www.w3.org/1999/xlink" width="11" height="11" version="1.1"><g><path fill="#fff" fill-rule="nonzero" stroke="none" d="M 1003.5 1848 C 1006.02 1848 1008 1849.98 1008 1852.5 C 1008 1855.02 1006.02 1857 1003.5 1857 C 1000.98 1857 999 1855.02 999 1852.5 C 999 1849.98 1000.98 1848 1003.5 1848 Z" transform="matrix(1 0 0 1 -998 -1847 )"/><path fill="none" stroke="#7ecf51" stroke-width="2" d="M 1003.5 1848 C 1006.02 1848 1008 1849.98 1008 1852.5 C 1008 1855.02 1006.02 1857 1003.5 1857 C 1000.98 1857 999 1855.02 999 1852.5 C 999 1849.98 1000.98 1848 1003.5 1848 Z" transform="matrix(1 0 0 1 -998 -1847 )"/></g></svg>