<svg xmlns="http://www.w3.org/2000/svg" xmlns:xlink="http://www.w3.org/1999/xlink" width="18" height="37" version="1.1"><g><path fill="red" fill-opacity=".2" fill-rule="nonzero" stroke="none" d="M 11.5471698113208 0 L 14.2641509433962 0 L 18 0 L 18 1.91379310344823 L 18 4.14655172413791 L 18 6.37931034482758 L 16.6415094339623 11.801724137931 L 16.6415094339623 19.4568965517241 L 14.2641509433962 24.2413793103448 L 14.2641509433962 27.1120689655172 L 11.5471698113208 29.3448275862069 L 11.5471698113208 32.5344827586207 L 11.5471698113208 37 L 8.83018867924528 37 L 8.83018867924528 32.5344827586207 L 4.75471698113208 30.9396551724137 L 1.69811320754722 27.1120689655172 L 0 24.2413793103448 L 0 22.0086206896552 L 1.69811320754722 19.4568965517241 L 3.05660377358493 15.6293103448275 L 4.75471698113208 9.88793103448272 L 6.11320754716979 6.37931034482758 L 8.83018867924528 4.14655172413791 L 8.83018867924528 1.91379310344823 L 11.5471698113208 0 Z" transform="matrix(1 0 0 1 -457 -2531 ) matrix(1 0 0 1 457 2531 )"/></g></svg>