<svg xmlns="http://www.w3.org/2000/svg" xmlns:xlink="http://www.w3.org/1999/xlink" width="491" height="381" version="1.1"><g><path fill="red" fill-opacity=".2" fill-rule="nonzero" stroke="none" d="M 22.9856957087126 183.798994974874 L 28.0936280884265 178.693467336683 L 22.9856957087126 172.949748743719 L 24.2626788036411 165.929648241206 L 19.1547464239272 161.462311557789 L 11.4928478543563 154.442211055276 L 8.30039011703511 149.974874371859 L 11.4928478543563 144.231155778894 L 7.02340702210663 141.040201005025 L 0 137.211055276382 L 0 134.658291457286 L 5.74642392717815 135.934673366834 L 7.02340702210663 129.552763819095 L 8.30039011703511 124.447236180905 L 7.02340702210663 118.70351758794 L 0 117.427135678392 L 1.91547464239272 114.874371859296 L 1.91547464239272 109.130653266332 L 4.46944083224967 109.130653266332 L 7.02340702210663 105.301507537688 L 13.408322496749 102.748743718593 L 20.4317295188557 101.472361809045 L 24.2626788036411 104.025125628141 L 28.0936280884265 105.301507537688 L 31.2860858257477 104.025125628141 L 35.1170351105332 101.472361809045 L 40.2249674902471 104.025125628141 L 46.6098829648895 101.472361809045 L 55.5487646293888 99.5577889447236 L 64.4876462938882 97.643216080402 L 68.9570871261378 89.3467336683417 L 68.9570871261378 86.1557788944724 L 71.5110533159948 86.1557788944724 L 72.7880364109233 75.9447236180905 L 74.0650195058518 70.8391959798995 L 72.7880364109233 68.286432160804 L 74.0650195058518 65.7336683417085 L 80.4499349804941 65.7336683417085 L 86.8348504551365 65.7336683417085 L 90.665799739922 68.286432160804 L 90.665799739922 63.1809045226131 L 97.6892067620286 54.8844221105527 L 104.074122236671 47.2261306532663 L 111.097529258778 53.608040201005 L 119.397919375813 54.8844221105527 L 120.674902470741 44.035175879397 L 125.782834850455 40.2060301507538 L 129.613784135241 41.4824120603015 L 133.444733420026 37.0150753768844 L 133.444733420026 33.8241206030151 L 141.106631989597 35.1005025125628 L 143.02210663199 37.0150753768844 L 141.106631989597 38.929648241206 L 143.02210663199 44.035175879397 L 148.130039011704 51.0552763819096 L 150.68400520156 51.0552763819096 L 154.514954486346 54.8844221105527 L 158.345903771131 56.1608040201005 L 158.345903771131 63.1809045226131 L 160.899869960988 65.7336683417085 L 160.899869960988 70.8391959798995 L 155.791937581274 77.859296482412 L 154.514954486346 81.0502512562814 L 158.345903771131 86.1557788944724 L 167.284785435631 87.4321608040201 L 176.862158647594 90.6231155778894 L 182.608582574772 97.643216080402 L 189.631989596879 99.5577889447236 L 189.631989596879 104.025125628141 L 190.908972691808 110.407035175879 L 195.378413524057 118.70351758794 L 201.7633289987 118.70351758794 L 213.89466840052 123.170854271357 L 223.472041612484 123.170854271357 L 233.049414824447 124.447236180905 L 239.43433029909 129.552763819095 L 249.011703511053 133.381909547739 L 256.673602080624 135.934673366834 L 259.866059817945 134.658291457286 L 263.697009102731 137.211055276382 L 273.274382314694 133.381909547739 L 280.936280884265 131.467336683417 L 290.513654096229 129.552763819095 L 299.452535760728 129.552763819095 L 307.752925877763 126.361809045226 L 314.137841352406 118.70351758794 L 319.884265279584 116.150753768844 L 319.884265279584 111.683417085427 L 315.414824447334 105.301507537688 L 321.161248374512 97.643216080402 L 326.269180754226 102.748743718593 L 331.37711313394 102.748743718593 L 339.677503250975 97.643216080402 L 347.339401820546 95.0904522613065 L 354.362808842653 90.6231155778894 L 354.362808842653 87.4321608040201 L 359.470741222367 82.964824120603 L 365.217165149545 81.0502512562814 L 374.156046814044 79.1356783919598 L 380.540962288687 79.1356783919598 L 380.540962288687 75.9447236180905 L 375.433029908973 68.286432160804 L 368.409622886866 63.1809045226131 L 362.024707412224 67.0100502512563 L 355.639791937581 65.7336683417085 L 349.893368010403 68.286432160804 L 347.339401820546 63.1809045226131 L 349.893368010403 56.1608040201005 L 354.362808842653 44.035175879397 L 362.024707412224 47.2261306532663 L 370.325097529259 41.4824120603015 L 371.602080624187 37.0150753768844 L 375.433029908973 29.356783919598 L 379.263979193758 19.7839195979899 L 381.817945383615 13.4020100502513 L 375.433029908973 13.4020100502513 L 374.156046814044 9.57286432160804 L 377.98699609883 7.02010050251256 L 385.6488946684 2.55276381909548 L 394.5877763329 1.27638190954774 L 401.611183355007 0 L 410.550065019506 2.55276381909548 L 416.934980494148 5.10552763819095 L 419.488946684005 9.57286432160804 L 421.404421326398 13.4020100502513 L 425.235370611183 19.7839195979899 L 427.78933680104 24.8894472361809 L 432.25877763329 30.6331658291457 L 436.089726918075 37.0150753768844 L 443.751625487646 37.0150753768844 L 452.052015604681 38.929648241206 L 456.521456436931 40.2060301507538 L 459.713914174252 45.3115577889447 L 459.713914174252 51.0552763819096 L 463.544863459038 53.608040201005 L 468.652795838752 53.608040201005 L 475.037711313394 51.0552763819096 L 475.037711313394 47.2261306532663 L 482.061118335501 44.035175879397 L 489.084525357607 38.929648241206 L 489.084525357607 40.2060301507538 L 489.084525357607 45.3115577889447 L 491 47.2261306532663 L 487.169050715215 52.3316582914573 L 487.169050715215 61.2663316582915 L 485.892067620286 70.8391959798995 L 484.615084525358 77.859296482412 L 475.037711313394 79.1356783919598 L 471.206762028609 84.2412060301508 L 473.760728218465 93.1758793969849 L 475.037711313394 97.643216080402 L 475.037711313394 104.025125628141 L 471.206762028609 107.854271356784 L 473.760728218465 111.683417085427 L 468.652795838752 110.407035175879 L 466.098829648895 106.577889447236 L 464.821846553966 110.407035175879 L 464.821846553966 113.597989949749 L 460.990897269181 118.70351758794 L 456.521456436931 120.618090452261 L 453.967490247074 120.618090452261 L 456.521456436931 124.447236180905 L 456.521456436931 127.638190954774 L 449.498049414824 127.638190954774 L 445.028608582575 124.447236180905 L 441.836150845254 127.638190954774 L 441.836150845254 131.467336683417 L 439.282184655397 134.658291457286 L 432.25877763329 141.040201005025 L 427.78933680104 145.507537688442 L 426.512353706112 149.974874371859 L 416.934980494148 152.527638190955 L 410.550065019506 158.909547738693 L 406.71911573472 163.376884422111 L 400.334200260078 165.929648241206 L 400.334200260078 163.376884422111 L 403.526657997399 158.909547738693 L 401.611183355007 156.356783919598 L 408.634590377113 145.507537688442 L 403.526657997399 141.040201005025 L 399.05721716515 139.125628140703 L 394.5877763329 145.507537688442 L 392.672301690507 151.251256281407 L 385.6488946684 156.356783919598 L 383.733420026008 163.376884422111 L 377.98699609883 165.929648241206 L 374.156046814044 161.462311557789 L 371.602080624187 165.929648241206 L 370.325097529259 170.396984924623 L 374.156046814044 175.502512562814 L 380.540962288687 175.502512562814 L 383.733420026008 178.693467336683 L 383.733420026008 183.798994974874 L 385.6488946684 186.35175879397 L 391.395318595579 183.798994974874 L 394.5877763329 179.969849246231 L 400.334200260078 176.778894472362 L 404.803641092328 178.693467336683 L 410.550065019506 178.693467336683 L 415.019505851756 179.969849246231 L 415.019505851756 183.798994974874 L 408.634590377113 188.266331658291 L 401.611183355007 192.733668341709 L 401.611183355007 196.562814070352 L 396.503250975293 197.839195979899 L 392.672301690507 203.582914572864 L 388.841352405722 211.241206030151 L 391.395318595579 215.708542713568 L 399.05721716515 216.984924623116 L 403.526657997399 227.195979899498 L 406.71911573472 232.939698492462 L 406.71911573472 237.407035175879 L 410.550065019506 237.407035175879 L 410.550065019506 240.597989949749 L 416.934980494148 241.874371859296 L 418.211963589077 247.618090452261 L 419.488946684005 255.914572864322 L 413.742522756827 257.190954773869 L 410.550065019506 260.381909547739 L 404.803641092328 263.572864321608 L 406.71911573472 263.572864321608 L 413.742522756827 261.658291457286 L 418.211963589077 265.48743718593 L 422.681404421326 260.381909547739 L 425.235370611183 265.48743718593 L 421.404421326398 271.231155778894 L 422.681404421326 276.974874371859 L 419.488946684005 280.165829145729 L 419.488946684005 284.633165829146 L 413.742522756827 289.738693467337 L 408.634590377113 298.035175879397 L 406.71911573472 305.05527638191 L 401.611183355007 303.778894472362 L 403.526657997399 307.608040201005 L 403.526657997399 312.075376884422 L 404.803641092328 317.180904522613 L 400.334200260078 322.286432160804 L 396.503250975293 326.753768844221 L 394.5877763329 330.582914572864 L 388.841352405722 328.668341708543 L 390.11833550065 332.497487437186 L 385.6488946684 337.603015075377 L 380.540962288687 340.793969849246 L 375.433029908973 346.537688442211 L 367.132639791938 351.643216080402 L 363.940182054616 351.643216080402 L 356.91677503251 352.91959798995 L 351.170351105332 358.025125628141 L 343.508452535761 361.21608040201 L 336.485045513654 363.768844221106 L 333.931079323797 365.683417085427 L 330.100130039012 363.768844221106 L 326.269180754226 365.683417085427 L 319.884265279584 368.236180904523 L 314.137841352406 368.236180904523 L 312.222366710013 371.427135678392 L 310.30689206762 371.427135678392 L 312.222366710013 375.894472361809 L 312.222366710013 379.085427135678 L 310.30689206762 381 L 305.837451235371 381 L 303.921976592978 375.894472361809 L 302.644993498049 373.341708542714 L 305.837451235371 368.236180904523 L 302.644993498049 365.683417085427 L 297.537061118335 368.236180904523 L 293.067620286086 365.683417085427 L 285.405721716515 368.236180904523 L 277.10533159948 363.768844221106 L 271.358907672302 361.21608040201 L 270.081924577373 356.748743718593 L 273.274382314694 352.91959798995 L 266.889466840052 349.72864321608 L 259.866059817945 346.537688442211 L 258.589076723017 344.623115577889 L 253.481144343303 346.537688442211 L 249.011703511053 351.643216080402 L 243.265279583875 354.195979899498 L 239.43433029909 351.643216080402 L 233.049414824447 354.195979899498 L 229.218465539662 349.72864321608 L 226.664499349805 351.643216080402 L 220.279583875163 352.91959798995 L 217.087126137841 354.195979899498 L 219.002600780234 359.301507537688 L 220.279583875163 363.768844221106 L 220.279583875163 365.683417085427 L 213.89466840052 365.683417085427 L 213.89466840052 361.21608040201 L 207.509752925878 362.492462311558 L 203.678803641092 362.492462311558 L 200.486345903771 355.472361809045 L 197.29388816645 355.472361809045 L 192.185955786736 354.195979899498 L 194.101430429129 349.72864321608 L 195.378413524057 346.537688442211 L 195.378413524057 344.623115577889 L 192.185955786736 340.793969849246 L 192.185955786736 335.688442211055 L 192.185955786736 332.497487437186 L 186.439531859558 332.497487437186 L 181.331599479844 333.773869346734 L 181.331599479844 328.668341708543 L 179.416124837451 325.477386934673 L 182.608582574772 319.733668341709 L 189.631989596879 313.35175879397 L 192.185955786736 308.884422110553 L 195.378413524057 300.587939698492 L 194.101430429129 292.291457286432 L 189.631989596879 291.015075376884 L 190.908972691808 285.909547738693 L 185.162548764629 281.442211055276 L 182.608582574772 285.909547738693 L 181.331599479844 288.462311557789 L 172.392717815345 284.633165829146 L 170.477243172952 281.442211055276 L 164.092327698309 281.442211055276 L 162.176853055917 284.633165829146 L 154.514954486346 288.462311557789 L 151.960988296489 285.909547738693 L 146.853055916775 292.291457286432 L 138.55266579974 293.56783919598 L 129.613784135241 291.015075376884 L 129.613784135241 284.633165829146 L 125.782834850455 284.633165829146 L 125.782834850455 278.889447236181 L 117.48244473342 275.060301507538 L 111.097529258778 271.231155778894 L 104.074122236671 275.060301507538 L 100.243172951886 281.442211055276 L 96.4122236671001 278.889447236181 L 100.243172951886 271.231155778894 L 93.8582574772432 271.231155778894 L 84.9193758127438 271.231155778894 L 79.1729518855657 265.48743718593 L 75.3420026007802 269.316582914573 L 72.7880364109233 266.763819095477 L 68.9570871261378 261.658291457286 L 64.4876462938882 255.914572864322 L 58.74122236671 250.809045226131 L 52.3563068920676 247.618090452261 L 48.5253576072822 240.597989949749 L 43.4174252275683 232.939698492462 L 37.6710013003901 229.110552763819 L 33.8400520156047 231.663316582915 L 26.816644993498 225.281407035176 L 24.2626788036411 219.537688442211 L 17.2392717815345 215.708542713568 L 15.3237971391417 206.13567839196 L 17.2392717815345 196.562814070352 L 19.1547464239272 192.733668341709 L 22.9856957087126 200.391959798995 L 25.5396618985696 191.457286432161 L 22.9856957087126 183.798994974874 Z" transform="matrix(1 0 0 1 -48 -2212 ) matrix(1 0 0 1 48 2212 )"/></g></svg>