<?xml version="1.0" encoding="utf-8"?>
<svg version="1.1" xmlns:xlink="http://www.w3.org/1999/xlink" width="76px" height="37px" xmlns="http://www.w3.org/2000/svg">
  <g transform="matrix(1 0 0 1 -675 -4998 )">
    <path d="M 675 5021  C 675 5021  675 5003  675 5003  C 675 5000.23857625085  677.238576250846 4998  680 4998  C 680 4998  746 4998  746 4998  C 748.761423749154 4998  751 5000.23857625085  751 5003  C 751 5003  751 5021  751 5021  C 751 5023.76142374915  748.761423749154 5026  746 5026  C 746 5026  724.625 5026  724.625 5026  C 724.625 5026  714.9 5035  714.9 5035  C 714.9 5035  706.125 5026  706.125 5026  C 706.125 5026  680 5026  680 5026  C 677.238576250846 5026  675 5023.76142374915  675 5021  Z " fill-rule="nonzero" fill="#2f363d" stroke="none" fill-opacity="0.8" />
  </g>
</svg>