<svg xmlns="http://www.w3.org/2000/svg" xmlns:xlink="http://www.w3.org/1999/xlink" width="386" height="186" version="1.1"><g><path fill="#7ecf51" fill-opacity=".498" fill-rule="nonzero" stroke="none" d="M 385 185 L 0.362008653883606 185 C 0.770742727084269 185 -0.627782120164568 7.51571830388489 0.362008653883606 7.66598841395265 C 1.35179942793179 7.81625852402041 19.0157287086708 65.3788499510181 33.4782608695652 66.6478871669906 C 41.4831406565967 67.3502877041936 57.2795253702317 74.7143418527784 69.9104859335038 73.6687752164064 C 83.0424203870544 72.5817389243621 97.7305576507439 63.0739608036371 109.296675191816 60.6299831246342 C 138.536825275285 54.4513952034126 118.158567774936 60.6299831246342 134.897698209719 51.6031270610995 C 143.818096662672 46.7926529938882 156.637492397596 34.5864240498751 167.391304347826 21.5136068493175 C 176.817023822722 10.0552785607693 193.976982097187 -2.55800932010815 207.762148337596 0.450942701070058 C 221.547314578005 3.45989472224826 214.654731457801 11.4837667787235 239.271099744246 24.5225588704957 C 263.887468030691 37.5613509622679 263.887468030691 32.8321673364056 275.703324808184 34.8381353505244 C 282.559220298105 36.0020549307887 295.439151906183 42.236809846332 308.196930946292 42 C 317.426664720292 41.8286777165653 333.797953964194 40 346.598465473146 34.8381353505244 C 359.398976982097 29.6762707010488 384.015345268542 7.66598841395265 384.015345268542 7.66598841395265 C 384.015345268542 7.66598841395265 385 185 385 185 Z" transform="matrix(1 0 0 1 -130 -3333 ) matrix(1 0 0 1 130 3333 )"/></g></svg>