<svg xmlns="http://www.w3.org/2000/svg" xmlns:xlink="http://www.w3.org/1999/xlink" width="11" height="11" version="1.1"><g><path fill="#fff" fill-rule="nonzero" stroke="none" d="M 943.5 3440.5 C 945.74 3440.5 947.5 3442.26 947.5 3444.5 C 947.5 3446.74 945.74 3448.5 943.5 3448.5 C 941.26 3448.5 939.5 3446.74 939.5 3444.5 C 939.5 3442.26 941.26 3440.5 943.5 3440.5 Z" transform="matrix(1 0 0 1 -938 -3439 )"/><path fill="none" stroke="#eecb5f" stroke-opacity=".498" stroke-width="2" d="M 943.5 3440 C 946.02 3440 948 3441.98 948 3444.5 C 948 3447.02 946.02 3449 943.5 3449 C 940.98 3449 939 3447.02 939 3444.5 C 939 3441.98 940.98 3440 943.5 3440 Z" transform="matrix(1 0 0 1 -938 -3439 )"/></g></svg>