<?xml version="1.0" encoding="utf-8"?>
<svg version="1.1" xmlns:xlink="http://www.w3.org/1999/xlink" width="200px" height="200px" xmlns="http://www.w3.org/2000/svg">
  <g transform="matrix(1 0 0 1 -298 -8428 )">
    <path d="M 398 8428.5  C 453.72 8428.5  497.5 8472.28  497.5 8528  C 497.5 8583.72  453.72 8627.5  398 8627.5  C 342.28 8627.5  298.5 8583.72  298.5 8528  C 298.5 8472.28  342.28 8428.5  398 8428.5  Z " fill-rule="nonzero" fill="#0099ff" stroke="none" fill-opacity="0.2" />
    <path d="M 398 8428.5  C 453.72 8428.5  497.5 8472.28  497.5 8528  C 497.5 8583.72  453.72 8627.5  398 8627.5  C 342.28 8627.5  298.5 8583.72  298.5 8528  C 298.5 8472.28  342.28 8428.5  398 8428.5  Z " stroke-width="1" stroke="#0099ff" fill="none" stroke-opacity="0.498039215686275" />
  </g>
</svg>