<svg xmlns="http://www.w3.org/2000/svg" xmlns:xlink="http://www.w3.org/1999/xlink" width="76" height="37" version="1.1"><g><path fill="#2f363d" fill-opacity=".8" fill-rule="nonzero" stroke="none" d="M 675 5021 C 675 5021 675 5003 675 5003 C 675 5000.23857625085 677.238576250846 4998 680 4998 C 680 4998 746 4998 746 4998 C 748.761423749154 4998 751 5000.23857625085 751 5003 C 751 5003 751 5021 751 5021 C 751 5023.76142374915 748.761423749154 5026 746 5026 C 746 5026 724.625 5026 724.625 5026 C 724.625 5026 714.9 5035 714.9 5035 C 714.9 5035 706.125 5026 706.125 5026 C 706.125 5026 680 5026 680 5026 C 677.238576250846 5026 675 5023.76142374915 675 5021 Z" transform="matrix(1 0 0 1 -675 -4998 )"/></g></svg>