<svg xmlns="http://www.w3.org/2000/svg" xmlns:xlink="http://www.w3.org/1999/xlink" width="206" height="24" preserveAspectRatio="xMinYMid meet" version="1.1" viewBox="220 5685 206 22"><g><path fill="none" stroke="#61a5e8" stroke-width="3" d="M 0 146 L 36 116 L 71 80 L 106 66 L 141.321184510251 47.3241379310345 L 176 39 L 211 24 L 246.56366967814 0 L 280 20 L 316 49 L 351 86 L 386 83 L 421 124 L 456 74 L 491 92 L 526 60 L 562 65 L 595 51 L 631 38 L 667 43 L 701 49 L 737 29 L 771 79 L 807 54 L 841 39 L 876 20" transform="matrix(0.882947592858928 0.469471562785897 -0.46947156278589 0.882947592858938 2711.917949135 515.091196295649 ) matrix(1 0 0 1 202 5634 )"/></g></svg>