<svg xmlns="http://www.w3.org/2000/svg" xmlns:xlink="http://www.w3.org/1999/xlink" width="879" height="150" version="1.1"><g><path fill="none" stroke="#7ecf51" stroke-width="3" d="M 0 146 L 35 133 L 70 118 L 106 66 L 141 32 L 176 39.5 L 210 39.5 L 246.56366967814 0 L 277 95 L 315 88 L 351 86 L 384 66 L 421 124 L 457 120 L 491 92 L 526 60 L 561 39 L 595 51 L 629 46 L 664 79 L 701 91 L 735 66 L 770 70 L 804 44 L 841 39 L 875 51" transform="matrix(1 0 0 1 -201.5 -5891.5 ) matrix(1 0 0 1 203 5893 )"/></g></svg>