<svg xmlns="http://www.w3.org/2000/svg" xmlns:xlink="http://www.w3.org/1999/xlink" width="878" height="199" version="1.1"><g><path fill="#7ecf51" fill-opacity=".498" fill-rule="nonzero" stroke="none" d="M 0.01290517508248 197.24987713373 C 0.01290517508248 180.162888440587 0 146 0.01290517508248 145.988911054301 C 0.02581035016496 145.977822108602 23.3585196210577 137.947975198704 35.0313268440453 133.927507270906 C 46.7041340670329 128.901922361158 54.1760443767136 131.878140497883 70.0497485130081 118.850752541662 C 96.4302279341683 97.2005606935744 83.2718158240806 93.62421740983 106.06869651537 66.584669480284 C 123.653221974451 45.7275344446638 131 36 141.087118184333 32.4106920939981 C 151.174236368665 28.8213841879963 165.211079706591 34.8930219352904 176.105539853295 39.4465109676452 C 187 44 194.087728124317 46.4228946823762 210.123435188859 39.4465109676452 C 235.352258981743 28.4706335247558 231.412699095077 -0.50610265677706 246.706349547538 0.24694867161147 C 262 1 261 74 277 95 C 283.666666666667 103.75 302.505366639361 91.0425160410571 315.178700195748 88.6972430831747 C 327.185016196535 88.0271650952083 332.476733550468 92.507590628796 351.197648198109 86.6870091192756 C 371.239349137319 80.4557775741442 370.430034400549 63.1693389605679 384.215017200274 66.584669480284 C 398 70 391.698380593437 110.698201045003 421.234491536035 124.88145443336 C 436.772857427668 132.342984528176 439.338580932552 128.464169159366 457.253439538397 120.860986505561 C 479.047687077351 111.611365925981 479.932036428773 102.098802842502 491.271334873961 92.717711010973 C 502.944142096948 81.9964632035108 505.089806262158 76.4280602560961 526.289756542923 60.5539675885865 C 544.532200953322 46.8943953151883 550 41 561.308178211886 39.4465109676452 C 572.616356423772 37.8930219352904 575.806663701808 49.6072298960698 595.32607354745 51.5079147510402 C 613.928751377078 53.3193336562363 612.817720973443 41.2580394043619 629.343968883014 46.4823298412923 C 652.488802863431 53.798892892377 641.732839376253 66.1855630340677 664.362390551977 79.6511902456286 C 682.652967184438 90.5349273778711 682.239817647227 94.8183888314573 701.381864887737 91.7125940290234 C 722.156233146073 88.3419553428939 714.123921439768 72.2713747957639 735.399760223301 66.584669480284 C 753.152803727717 61.8395532999227 752.776709327257 75.4993770594938 770.418181892264 70.6051374080823 C 791.861325207687 64.6562075849896 783.023474454295 53.4031495504586 804.436077227828 44.4720958773931 C 823.106916720681 36.6846133655532 820.845568527213 38.7348293999705 841.455551563589 39.4465109676452 C 860.618002604559 40.1082079313573 875.946893798305 45.9646596825846 875.473446899153 46.4823298412923 C 875 47 875.947946465103 196.48952030356 876.473973232551 196.24476015178 C 877 196 292.166594527572 196.914838139747 0.01290517508248 197.24987713373 Z" transform="matrix(1 0 0 1 -202 -6167 ) matrix(1 0 0 1 202 6167 )"/></g></svg>