<svg xmlns="http://www.w3.org/2000/svg" xmlns:xlink="http://www.w3.org/1999/xlink" width="878" height="153" version="1.1"><g><path fill="#7ecf51" fill-opacity=".498" fill-rule="nonzero" stroke="none" d="M 0.01290517508248 151.24987713373 C 0.01290517508248 134.162888440587 1.98709482491752 127.011088945699 2 127 C 2.01290517508248 126.988911054301 25.3271927770124 115.020467927798 37 111 C 48.6728072229876 105.974415090252 54.1760443767136 85.8781404978834 70.0497485130081 72.8507525416623 C 96.4302279341683 51.2005606935744 93 62 105 52 C 117 42 132.912881815667 35.5893079060019 143 32 C 153.087118184333 28.4106920939981 163.105539853295 25.4465109676452 174 30 C 184.894460146705 34.5534890323548 195.964292935458 43.976383714731 212 37 C 237.228823792884 26.0241225571106 231.706349547538 22.2469486716115 247 23 C 262.293650452462 23.7530513283885 269 32 283 33.6511902456286 C 297 35.3023804912571 303 38 315.178700195748 42.6972430831747 C 327.357400391495 47.3944861663495 335 60 350 65 C 365 70 369.215017200274 73.584669480284 383 77 C 396.784982799726 80.415330519716 391.463889057402 94.816746611643 421 109 C 436.538365891633 116.461530094816 439.338580932552 82.4641691593658 457.253439538397 74.8609865055615 C 479.047687077351 65.6113659259813 479.660701554812 85.3810918315295 491 76 C 502.672807222988 65.2787521925378 504.800049719235 79.8740926675097 526 64 C 544.242444410399 50.3404277266018 549.691821788114 57.5534890323548 561 56 C 572.308178211886 54.4465109676452 585 43 597 40 C 609 37 623 26 636 27 C 649 28 641.732839376253 20.1855630340677 664.362390551977 33.6511902456286 C 682.652967184438 44.5349273778711 682.239817647227 48.8183888314573 701.381864887737 45.7125940290234 C 722.156233146073 42.3419553428939 714.123921439768 26.2713747957639 735.399760223301 20.584669480284 C 753.152803727717 15.8395532999227 756.358527434993 68.8942396514115 774 64 C 795.443143315423 58.0510701769072 787.587397226467 59.9310536730655 809 51 C 827.670839492853 43.2125174881601 825.390016963624 29.2883184323253 846 30 C 865.16245104097 30.6616969637121 875.946893798305 -0.0353403174153755 875.473446899153 0.482329841292312 C 875 1 875.947946465103 150.48952030356 876.473973232551 150.24476015178 C 877 150 292.166594527572 150.914838139747 0.01290517508248 151.24987713373 Z" transform="matrix(1 0 0 1 -202 -6488 ) matrix(1 0 0 1 202 6488 )"/></g></svg>