<svg xmlns="http://www.w3.org/2000/svg" xmlns:xlink="http://www.w3.org/1999/xlink" width="878" height="103" version="1.1"><g><path fill="#eecb5f" fill-opacity=".498" fill-rule="nonzero" stroke="none" d="M 0 102 C 0 90.4404964432496 1.97540277087662 85.602238913911 1.98831587606827 85.5947371410972 C 2.00122898125991 85.5872353682835 25.3298429944653 77.4904745303078 37.0098230481167 74.7705913404842 C 48.6898031017681 71.3707373532046 54.1964219431596 57.7754244633949 70.0798803219085 48.9622777984394 C 96.4765703004867 34.3157257250052 93.0442345233943 41.6216448261066 105.051608410954 34.8565537007234 C 117.058982298513 28.0914625753402 132.981642430952 23.7545709560731 143.074959054892 21.326371449957 C 153.168275678832 18.898171943841 163.192853574038 16.8928764006491 174.094008264421 19.9733532248804 C 184.995162954804 23.0538300491117 196.071798052081 29.4285041682281 212.117358908359 24.7089170126486 C 237.361685577069 17.2836359044302 231.835817823045 14.7283433512483 247.138866080407 15.2377894371122 C 262.44191433777 15.7472355229761 269.152384874267 21.326371449957 283.160987743086 22.4434166976592 C 297.169590611905 23.5604619453613 303.173277555685 25.385426125187 315.359461448588 28.5631538747622 C 327.545645341491 31.7408816243375 335.192941255844 40.26862660103 350.202158615293 43.6511721637215 C 365.211375974742 47.0337177264131 369.428983263591 49.4587792952632 383.222436806081 51.7692815141814 C 397.015890348572 54.0797837330995 391.691526844002 63.8224729527441 421.24578745002 73.4175731154075 C 436.793701521898 78.4653662180297 439.595637268721 55.4658417429432 457.521504387316 50.3222193933513 C 479.32914428717 44.0647667837433 479.942535456284 57.4391665112315 491.288801794117 51.092772401643 C 502.968781847768 43.8397505621134 505.097331514597 53.7136313940312 526.310308966165 42.9746630511832 C 544.563963187721 33.7338379348536 550.016689156774 38.613539637493 561.331816138214 37.5625901508767 C 572.646943119653 36.5116406642603 585.346563913333 28.7679716878786 597.353937800892 26.7384443502636 C 609.361311688452 24.7089170126486 623.369914557271 17.2673167747271 636.37790293546 17.9438258872655 C 649.38589131365 18.6203349998038 642.114265087793 13.3337971829943 664.757721910675 22.4434166976592 C 683.059537931093 29.8063640460929 682.646134517363 32.7041647526506 701.79994436654 30.6030662671299 C 722.587078279514 28.3227984808891 714.549830792928 17.4509042969746 735.838743380039 13.6037963307324 C 753.602695963341 10.393681994665 756.810389557797 46.2856607743095 774.462702642394 42.9746630511832 C 795.919022568462 38.95015781601 788.058449197143 40.2219837825827 809.484209814443 34.1800445881851 C 828.166522363218 28.9117417051926 825.884298289916 19.4918941591229 846.506945967751 19.9733532248804 C 865.681172155333 20.4209972505706 876.472241851692 -0.345828198040611 875.998504023856 0.00438038161428592 C 875.52476619602 0.354588961269198 876.473295165343 101.48561167561 876.999645171312 101.320029202544 C 877.52599517728 101.154446729479 292.333215057104 101.773343067515 0 102 Z" transform="matrix(1 0 0 1 -203 -6538 ) matrix(1 0 0 1 203 6538 )"/></g></svg>