<svg xmlns="http://www.w3.org/2000/svg" xmlns:xlink="http://www.w3.org/1999/xlink" width="200" height="200" version="1.1"><g><path fill="#f3e7f8" fill-opacity=".2" fill-rule="nonzero" stroke="none" d="M 468 8548.5 C 523.72 8548.5 567.5 8592.28 567.5 8648 C 567.5 8703.72 523.72 8747.5 468 8747.5 C 412.28 8747.5 368.5 8703.72 368.5 8648 C 368.5 8592.28 412.28 8548.5 468 8548.5 Z" transform="matrix(1 0 0 1 -368 -8548 )"/><path fill="none" stroke="#cc93e1" stroke-opacity=".498" stroke-width="1" d="M 468 8548.5 C 523.72 8548.5 567.5 8592.28 567.5 8648 C 567.5 8703.72 523.72 8747.5 468 8747.5 C 412.28 8747.5 368.5 8703.72 368.5 8648 C 368.5 8592.28 412.28 8548.5 468 8548.5 Z" transform="matrix(1 0 0 1 -368 -8548 )"/></g></svg>