<svg xmlns="http://www.w3.org/2000/svg" xmlns:xlink="http://www.w3.org/1999/xlink" width="200" height="200" version="1.1"><g><path fill="#f96" fill-opacity=".2" fill-rule="nonzero" stroke="none" d="M 328 8548.5 C 383.72 8548.5 427.5 8592.28 427.5 8648 C 427.5 8703.72 383.72 8747.5 328 8747.5 C 272.28 8747.5 228.5 8703.72 228.5 8648 C 228.5 8592.28 272.28 8548.5 328 8548.5 Z" transform="matrix(1 0 0 1 -228 -8548 )"/><path fill="none" stroke="#f96" stroke-opacity=".498" stroke-width="1" d="M 328 8548.5 C 383.72 8548.5 427.5 8592.28 427.5 8648 C 427.5 8703.72 383.72 8747.5 328 8747.5 C 272.28 8747.5 228.5 8703.72 228.5 8648 C 228.5 8592.28 272.28 8548.5 328 8548.5 Z" transform="matrix(1 0 0 1 -228 -8548 )"/></g></svg>