<svg xmlns="http://www.w3.org/2000/svg" xmlns:xlink="http://www.w3.org/1999/xlink" width="200" height="200" version="1.1"><g><path fill="#09f" fill-opacity=".2" fill-rule="nonzero" stroke="none" d="M 398 8428.5 C 453.72 8428.5 497.5 8472.28 497.5 8528 C 497.5 8583.72 453.72 8627.5 398 8627.5 C 342.28 8627.5 298.5 8583.72 298.5 8528 C 298.5 8472.28 342.28 8428.5 398 8428.5 Z" transform="matrix(1 0 0 1 -298 -8428 )"/><path fill="none" stroke="#09f" stroke-opacity=".498" stroke-width="1" d="M 398 8428.5 C 453.72 8428.5 497.5 8472.28 497.5 8528 C 497.5 8583.72 453.72 8627.5 398 8627.5 C 342.28 8627.5 298.5 8583.72 298.5 8528 C 298.5 8472.28 342.28 8428.5 398 8428.5 Z" transform="matrix(1 0 0 1 -298 -8428 )"/></g></svg>