<svg xmlns="http://www.w3.org/2000/svg" xmlns:xlink="http://www.w3.org/1999/xlink" width="492" height="381" version="1.1"><g><path fill="red" fill-opacity=".2" fill-rule="nonzero" stroke="none" d="M 23.0325097529259 183.798994974874 L 28.1508452535761 178.693467336683 L 23.0325097529259 172.949748743719 L 24.3120936280884 165.929648241206 L 19.1937581274382 161.462311557789 L 11.5162548764629 154.442211055276 L 8.31729518855656 149.974874371859 L 11.5162548764629 144.231155778894 L 7.03771131339402 141.040201005025 L 0 137.211055276382 L 0 134.658291457286 L 5.75812743823147 135.934673366834 L 7.03771131339402 129.552763819095 L 8.31729518855656 124.447236180905 L 7.03771131339402 118.70351758794 L 0 117.427135678392 L 1.91937581274382 114.874371859296 L 1.91937581274382 109.130653266332 L 4.47854356306892 109.130653266332 L 7.03771131339402 105.301507537688 L 13.4356306892068 102.748743718593 L 20.4733420026008 101.472361809045 L 24.3120936280884 104.025125628141 L 28.1508452535761 105.301507537688 L 31.3498049414824 104.025125628141 L 35.1885565669701 101.472361809045 L 40.3068920676203 104.025125628141 L 46.704811443433 101.472361809045 L 55.6618985695709 99.5577889447236 L 64.6189856957087 97.643216080402 L 69.0975292587776 89.3467336683417 L 69.0975292587776 86.1557788944724 L 71.6566970091027 86.1557788944724 L 72.9362808842653 75.9447236180905 L 74.2158647594278 70.8391959798995 L 72.9362808842653 68.286432160804 L 74.2158647594278 65.7336683417085 L 80.6137841352406 65.7336683417085 L 87.0117035110533 65.7336683417085 L 90.850455136541 68.286432160804 L 90.850455136541 63.1809045226131 L 97.888166449935 54.8844221105527 L 104.286085825748 47.2261306532663 L 111.323797139142 53.608040201005 L 119.641092327698 54.8844221105527 L 120.920676202861 44.035175879397 L 126.039011703511 40.2060301507538 L 129.877763328999 41.4824120603015 L 133.716514954486 37.0150753768844 L 133.716514954486 33.8241206030151 L 141.394018205462 35.1005025125628 L 143.313394018205 37.0150753768844 L 141.394018205462 38.929648241206 L 143.313394018205 44.035175879397 L 148.431729518856 51.0552763819096 L 150.990897269181 51.0552763819096 L 154.829648894668 54.8844221105527 L 158.668400520156 56.1608040201005 L 158.668400520156 63.1809045226131 L 161.227568270481 65.7336683417085 L 161.227568270481 70.8391959798995 L 156.109232769831 77.859296482412 L 154.829648894668 81.0502512562814 L 158.668400520156 86.1557788944724 L 167.625487646294 87.4321608040201 L 177.222366710013 90.6231155778894 L 182.980494148244 97.643216080402 L 190.018205461638 99.5577889447236 L 190.018205461638 104.025125628141 L 191.297789336801 110.407035175879 L 195.77633289987 118.70351758794 L 202.174252275683 118.70351758794 L 214.330299089727 123.170854271357 L 223.927178153446 123.170854271357 L 233.524057217165 124.447236180905 L 239.921976592978 129.552763819095 L 249.518855656697 133.381909547739 L 257.196358907672 135.934673366834 L 260.395318595579 134.658291457286 L 264.234070221066 137.211055276382 L 273.830949284785 133.381909547739 L 281.508452535761 131.467336683417 L 291.10533159948 129.552763819095 L 300.062418725618 129.552763819095 L 308.379713914174 126.361809045226 L 314.777633289987 118.70351758794 L 320.535760728218 116.150753768844 L 320.535760728218 111.683417085427 L 316.05721716515 105.301507537688 L 321.815344603381 97.643216080402 L 326.933680104031 102.748743718593 L 332.052015604681 102.748743718593 L 340.369310793238 97.643216080402 L 348.046814044213 95.0904522613065 L 355.084525357607 90.6231155778894 L 355.084525357607 87.4321608040201 L 360.202860858257 82.964824120603 L 365.960988296489 81.0502512562814 L 374.918075422627 79.1356783919598 L 381.315994798439 79.1356783919598 L 381.315994798439 75.9447236180905 L 376.197659297789 68.286432160804 L 369.159947984395 63.1809045226131 L 362.762028608583 67.0100502512563 L 356.36410923277 65.7336683417085 L 350.605981794538 68.286432160804 L 348.046814044213 63.1809045226131 L 350.605981794538 56.1608040201005 L 355.084525357607 44.035175879397 L 362.762028608583 47.2261306532663 L 371.079323797139 41.4824120603015 L 372.358907672302 37.0150753768844 L 376.197659297789 29.356783919598 L 380.036410923277 19.78391959799 L 382.595578673602 13.4020100502513 L 376.197659297789 13.4020100502513 L 374.918075422627 9.57286432160804 L 378.756827048114 7.02010050251256 L 386.43433029909 2.55276381909547 L 395.391417425228 1.27638190954774 L 402.429128738622 0 L 411.386215864759 2.55276381909547 L 417.784135240572 5.10552763819095 L 420.343302990897 9.57286432160804 L 422.262678803641 13.4020100502513 L 426.101430429129 19.78391959799 L 428.660598179454 24.8894472361809 L 433.139141742523 30.6331658291457 L 436.97789336801 37.0150753768844 L 444.655396618986 37.0150753768844 L 452.972691807542 38.929648241206 L 457.451235370611 40.2060301507538 L 460.650195058518 45.3115577889447 L 460.650195058518 51.0552763819096 L 464.488946684005 53.608040201005 L 469.607282184655 53.608040201005 L 476.005201560468 51.0552763819096 L 476.005201560468 47.2261306532663 L 483.042912873862 44.035175879397 L 490.080624187256 38.929648241206 L 490.080624187256 40.2060301507538 L 490.080624187256 45.3115577889447 L 492 47.2261306532663 L 488.161248374512 52.3316582914573 L 488.161248374512 61.2663316582914 L 486.88166449935 70.8391959798995 L 485.602080624187 77.859296482412 L 476.005201560468 79.1356783919598 L 472.16644993498 84.2412060301508 L 474.725617685306 93.1758793969849 L 476.005201560468 97.643216080402 L 476.005201560468 104.025125628141 L 472.16644993498 107.854271356784 L 474.725617685306 111.683417085427 L 469.607282184655 110.407035175879 L 467.04811443433 106.577889447236 L 465.768530559168 110.407035175879 L 465.768530559168 113.597989949749 L 461.92977893368 118.70351758794 L 457.451235370611 120.618090452261 L 454.892067620286 120.618090452261 L 457.451235370611 124.447236180905 L 457.451235370611 127.638190954774 L 450.413524057217 127.638190954774 L 445.934980494148 124.447236180905 L 442.736020806242 127.638190954774 L 442.736020806242 131.467336683417 L 440.176853055917 134.658291457286 L 433.139141742523 141.040201005025 L 428.660598179454 145.507537688442 L 427.381014304291 149.974874371859 L 417.784135240572 152.527638190955 L 411.386215864759 158.909547738693 L 407.547464239272 163.376884422111 L 401.149544863459 165.929648241206 L 401.149544863459 163.376884422111 L 404.348504551365 158.909547738693 L 402.429128738622 156.356783919598 L 409.466840052016 145.507537688442 L 404.348504551365 141.040201005025 L 399.869960988297 139.125628140703 L 395.391417425228 145.507537688442 L 393.472041612484 151.251256281407 L 386.43433029909 156.356783919598 L 384.514954486346 163.376884422111 L 378.756827048114 165.929648241206 L 374.918075422627 161.462311557789 L 372.358907672302 165.929648241206 L 371.079323797139 170.396984924623 L 374.918075422627 175.502512562814 L 381.315994798439 175.502512562814 L 384.514954486346 178.693467336683 L 384.514954486346 183.798994974874 L 386.43433029909 186.35175879397 L 392.192457737321 183.798994974874 L 395.391417425228 179.969849246231 L 401.149544863459 176.778894472362 L 405.628088426528 178.693467336683 L 411.386215864759 178.693467336683 L 415.864759427828 179.969849246231 L 415.864759427828 183.798994974874 L 409.466840052016 188.266331658291 L 402.429128738622 192.733668341709 L 402.429128738622 196.562814070352 L 397.310793237971 197.839195979899 L 393.472041612484 203.582914572864 L 389.633289986996 211.241206030151 L 392.192457737321 215.708542713568 L 399.869960988297 216.984924623116 L 404.348504551365 227.195979899498 L 407.547464239272 232.939698492462 L 407.547464239272 237.407035175879 L 411.386215864759 237.407035175879 L 411.386215864759 240.597989949749 L 417.784135240572 241.874371859296 L 419.063719115735 247.618090452261 L 420.343302990897 255.914572864322 L 414.585175552666 257.190954773869 L 411.386215864759 260.381909547739 L 405.628088426528 263.572864321608 L 407.547464239272 263.572864321608 L 414.585175552666 261.658291457286 L 419.063719115735 265.48743718593 L 423.542262678804 260.381909547739 L 426.101430429129 265.48743718593 L 422.262678803641 271.231155778894 L 423.542262678804 276.974874371859 L 420.343302990897 280.165829145729 L 420.343302990897 284.633165829146 L 414.585175552666 289.738693467337 L 409.466840052016 298.035175879397 L 407.547464239272 305.05527638191 L 402.429128738622 303.778894472362 L 404.348504551365 307.608040201005 L 404.348504551365 312.075376884422 L 405.628088426528 317.180904522613 L 401.149544863459 322.286432160804 L 397.310793237971 326.753768844221 L 395.391417425228 330.582914572864 L 389.633289986996 328.668341708543 L 390.912873862159 332.497487437186 L 386.43433029909 337.603015075377 L 381.315994798439 340.793969849246 L 376.197659297789 346.537688442211 L 367.880364109233 351.643216080402 L 364.681404421326 351.643216080402 L 357.643693107932 352.91959798995 L 351.885565669701 358.025125628141 L 344.208062418726 361.21608040201 L 337.170351105332 363.768844221106 L 334.611183355007 365.683417085427 L 330.772431729519 363.768844221106 L 326.933680104031 365.683417085427 L 320.535760728218 368.236180904523 L 314.777633289987 368.236180904523 L 312.858257477243 371.427135678392 L 310.938881664499 371.427135678392 L 312.858257477243 375.894472361809 L 312.858257477243 379.085427135678 L 310.938881664499 381 L 306.46033810143 381 L 304.540962288687 375.894472361809 L 303.261378413524 373.341708542714 L 306.46033810143 368.236180904523 L 303.261378413524 365.683417085427 L 298.143042912874 368.236180904523 L 293.664499349805 365.683417085427 L 285.98699609883 368.236180904523 L 277.669700910273 363.768844221106 L 271.911573472042 361.21608040201 L 270.631989596879 356.748743718593 L 273.830949284785 352.91959798995 L 267.433029908973 349.72864321608 L 260.395318595579 346.537688442211 L 259.115734720416 344.623115577889 L 253.997399219766 346.537688442211 L 249.518855656697 351.643216080402 L 243.760728218465 354.195979899498 L 239.921976592978 351.643216080402 L 233.524057217165 354.195979899498 L 229.685305591678 349.72864321608 L 227.126137841352 351.643216080402 L 220.72821846554 352.91959798995 L 217.529258777633 354.195979899498 L 219.448634590377 359.301507537688 L 220.72821846554 363.768844221106 L 220.72821846554 365.683417085427 L 214.330299089727 365.683417085427 L 214.330299089727 361.21608040201 L 207.932379713914 362.492462311558 L 204.093628088427 362.492462311558 L 200.89466840052 355.472361809045 L 197.695708712614 355.472361809045 L 192.577373211964 354.195979899498 L 194.496749024707 349.72864321608 L 195.77633289987 346.537688442211 L 195.77633289987 344.623115577889 L 192.577373211964 340.793969849246 L 192.577373211964 335.688442211055 L 192.577373211964 332.497487437186 L 186.819245773732 332.497487437186 L 181.700910273082 333.773869346734 L 181.700910273082 328.668341708543 L 179.781534460338 325.477386934673 L 182.980494148244 319.733668341709 L 190.018205461638 313.35175879397 L 192.577373211964 308.884422110553 L 195.77633289987 300.587939698492 L 194.496749024707 292.291457286432 L 190.018205461638 291.015075376884 L 191.297789336801 285.909547738693 L 185.53966189857 281.442211055276 L 182.980494148244 285.909547738693 L 181.700910273082 288.462311557789 L 172.743823146944 284.633165829146 L 170.8244473342 281.442211055276 L 164.426527958388 281.442211055276 L 162.507152145644 284.633165829146 L 154.829648894668 288.462311557789 L 152.270481144343 285.909547738693 L 147.152145643693 292.291457286432 L 138.834850455137 293.56783919598 L 129.877763328999 291.015075376884 L 129.877763328999 284.633165829146 L 126.039011703511 284.633165829146 L 126.039011703511 278.889447236181 L 117.721716514954 275.060301507538 L 111.323797139142 271.231155778894 L 104.286085825748 275.060301507538 L 100.44733420026 281.442211055276 L 96.6085825747724 278.889447236181 L 100.44733420026 271.231155778894 L 94.0494148244473 271.231155778894 L 85.0923276983095 271.231155778894 L 79.334200260078 265.48743718593 L 75.4954486345904 269.316582914573 L 72.9362808842653 266.763819095477 L 69.0975292587776 261.658291457286 L 64.6189856957087 255.914572864322 L 58.8608582574772 250.809045226131 L 52.4629388816645 247.618090452261 L 48.6241872561768 240.597989949749 L 43.5058517555266 232.939698492462 L 37.7477243172952 229.110552763819 L 33.9089726918075 231.663316582915 L 26.8712613784135 225.281407035176 L 24.3120936280884 219.537688442211 L 17.2743823146944 215.708542713568 L 15.3550065019506 206.13567839196 L 17.2743823146944 196.562814070352 L 19.1937581274382 192.733668341709 L 23.0325097529259 200.391959798995 L 25.591677503251 191.457286432161 L 23.0325097529259 183.798994974874 Z" transform="matrix(1 0 0 1 -680 -2213 ) matrix(1 0 0 1 680 2213 )"/></g></svg>