<?xml version="1.0" encoding="utf-8"?>
<svg version="1.1" xmlns:xlink="http://www.w3.org/1999/xlink" width="89px" height="94px" xmlns="http://www.w3.org/2000/svg">
  <g transform="matrix(1 0 0 1 -858 -2487 )">
    <path d="M 19.2779783393502 4.86206896551723  L 21.8483754512635 0  L 21.8483754512635 4.86206896551723  L 21.8483754512635 9.07586206896553  L 23.1335740072202 11.0206896551724  L 23.1335740072202 9.07586206896553  L 26.3465703971119 4.86206896551723  L 31.4873646209386 9.07586206896553  L 29.2382671480144 13.2896551724138  L 31.4873646209386 17.5034482758621  L 36.6281588447653 17.5034482758621  L 39.1985559566787 24.6344827586207  L 42.7328519855596 31.1172413793104  L 44.0180505415162 35.0068965517241  L 45.9458483754513 39.5448275862069  L 53.3357400722022 35.0068965517241  L 54.6209386281588 36.6275862068966  L 59.1191335740072 33.7103448275862  L 57.5126353790614 29.1724137931034  L 55.9061371841155 24.6344827586207  L 62.3321299638989 20.4206896551724  L 63.6173285198556 17.5034482758621  L 63.6173285198556 15.2344827586207  L 66.8303249097473 13.2896551724138  L 66.8303249097473 11.0206896551724  L 68.7581227436823 11.0206896551724  L 73.2563176895307 11.0206896551724  L 73.2563176895307 15.2344827586207  L 71.971119133574 17.5034482758621  L 74.8628158844765 20.4206896551724  L 79.0397111913357 17.5034482758621  L 81.28880866426 20.4206896551724  L 81.28880866426 24.6344827586207  L 74.8628158844765 26.2551724137931  L 73.2563176895307 24.6344827586207  L 70.6859205776173 26.2551724137931  L 68.7581227436823 23.0137931034483  L 65.5451263537906 26.2551724137931  L 66.8303249097473 29.1724137931034  L 65.5451263537906 33.7103448275862  L 66.8303249097473 35.0068965517241  L 68.7581227436823 33.7103448275862  L 71.971119133574 33.7103448275862  L 74.8628158844765 36.6275862068966  L 73.2563176895307 38.5724137931034  L 71.971119133574 44.0827586206897  L 74.8628158844765 49.5931034482759  L 73.2563176895307 55.4275862068966  L 73.2563176895307 59.3172413793103  L 77.754512635379 59.3172413793103  L 79.0397111913357 62.2344827586207  L 81.28880866426 63.8551724137931  L 82.5740072202166 63.8551724137931  L 85.14440433213 63.8551724137931  L 87.072202166065 63.8551724137931  L 89 66.448275862069  L 87.072202166065 70.0137931034483  L 82.5740072202166 72.6068965517242  L 79.0397111913357 70.0137931034483  L 74.8628158844765 72.6068965517242  L 74.8628158844765 75.5241379310345  L 68.7581227436823 77.1448275862069  L 66.8303249097473 77.1448275862069  L 65.5451263537906 79.0896551724138  L 62.3321299638989 77.1448275862069  L 59.1191335740072 77.1448275862069  L 55.9061371841155 79.0896551724138  L 51.086642599278 75.5241379310345  L 47.8736462093863 77.1448275862069  L 47.8736462093863 79.0896551724138  L 41.4476534296029 79.0896551724138  L 39.1985559566787 81.0344827586207  L 41.4476534296029 86.2206896551724  L 41.4476534296029 90.4344827586207  L 41.4476534296029 94  L 39.1985559566787 92.3793103448276  L 36.6281588447653 92.3793103448276  L 36.6281588447653 90.4344827586207  L 35.0216606498195 86.2206896551724  L 31.4873646209386 88.1655172413793  L 24.7400722021661 88.1655172413793  L 23.1335740072202 84.6  L 23.1335740072202 81.0344827586207  L 19.2779783393502 81.0344827586207  L 14.4584837545127 79.0896551724138  L 16.3862815884477 77.1448275862069  L 16.3862815884477 73.9034482758621  L 20.5631768953069 70.0137931034483  L 16.3862815884477 68.7172413793103  L 13.173285198556 66.448275862069  L 13.173285198556 63.8551724137931  L 11.5667870036101 59.3172413793103  L 13.173285198556 57.696551724138  L 9.63898916967511 57.696551724138  L 8.03249097472927 55.4275862068966  L 2.57039711191336 59.3172413793103  L 0 57.696551724138  L 2.57039711191336 55.4275862068966  L 1.28519855595669 49.5931034482759  L 1.28519855595669 47.3241379310345  L 3.85559566787005 47.3241379310345  L 3.85559566787005 44.0827586206897  L 9.63898916967511 39.5448275862069  L 14.4584837545127 38.5724137931034  L 14.4584837545127 33.7103448275862  L 16.3862815884477 26.2551724137931  L 16.3862815884477 17.5034482758621  L 13.173285198556 17.5034482758621  L 9.63898916967511 11.0206896551724  L 11.5667870036101 9.07586206896553  L 14.4584837545127 11.0206896551724  L 17.6714801444044 11.0206896551724  L 16.3862815884477 7.7793103448276  L 17.6714801444044 2.26896551724144  L 19.2779783393502 4.86206896551723  Z " fill-rule="nonzero" fill="#ffcc99" stroke="none" transform="matrix(1 0 0 1 858 2487 )" />
  </g>
</svg>