<?xml version="1.0" encoding="utf-8"?>
<svg version="1.1" xmlns:xlink="http://www.w3.org/1999/xlink" width="219px" height="182px" xmlns="http://www.w3.org/2000/svg">
  <g transform="matrix(1 0 0 1 -881 -2217 )">
    <path d="M 1.60322108345534 121.014035087719  L 0 115.905263157895  L 2.88579795021963 115.905263157895  L 12.1844802342606 119.417543859649  L 21.4831625183016 119.417543859649  L 31.7437774524158 121.014035087719  L 38.4773060029282 125.484210526316  L 47.4553440702782 129.635087719298  L 56.1127379209371 132.508771929825  L 58.9985358711567 130.912280701754  L 62.2049780380673 134.424561403509  L 71.5036603221084 130.912280701754  L 80.4816983894583 127.080701754386  L 89.4597364568082 127.080701754386  L 99.0790629575403 127.080701754386  L 107.736456808199 122.929824561404  L 112.866764275256 115.905263157895  L 120.882869692533 110.477192982456  L 114.790629575403 103.133333333333  L 116.393850658858 99.6210526315789  L 120.882869692533 95.4701754385965  L 125.692532942899 98.6631578947369  L 130.502196193265 99.6210526315789  L 138.518301610542 95.4701754385965  L 140.762811127379 90.3614035087719  L 145.893118594436 91.6385964912281  L 152.94729136164 86.5298245614035  L 152.94729136164 82.3789473684211  L 159.03953147877 79.1859649122807  L 165.773060029283 76.3122807017544  L 174.751098096633 74.7157894736842  L 178.919472913616 74.7157894736842  L 180.843338213763 71.8421052631579  L 174.751098096633 65.1368421052632  L 165.773060029283 60.3473684210526  L 159.03953147877 65.1368421052632  L 155.512445095168 62.5824561403509  L 150.702781844802 62.5824561403509  L 149.420204978038 65.1368421052632  L 145.893118594436 62.5824561403509  L 147.816983894583 58.1122807017544  L 149.420204978038 49.8105263157895  L 152.94729136164 40.8701754385965  L 160.963396778917 43.7438596491228  L 169.300146412884 38.6350877192982  L 172.827232796486 35.7614035087719  L 170.90336749634 32.5684210526316  L 174.751098096633 23.9473684210526  L 175.965065502183 18.519298245614  L 178.919472913616 16.2842105263158  L 180.843338213763 12.4526315789474  L 178.919472913616 9.25964912280701  L 174.751098096633 8.30175438596491  L 174.751098096633 5.10877192982456  L 176.99560761347 3.51228070175438  L 184.370424597365 0  L 185.653001464129 1.91578947368421  L 184.370424597365 3.51228070175438  L 182.446559297218 8.30175438596491  L 186.935578330893 10.5368421052632  L 190.142020497804 7.02456140350877  L 193.348462664714 9.25964912280701  L 193.348462664714 14.6877192982456  L 196.234260614934 20.4350877192982  L 199.761346998536 20.4350877192982  L 207.136163982431 18.519298245614  L 212.266471449488 14.6877192982456  L 217.076134699854 18.519298245614  L 219 20.4350877192982  L 219 25.2245614035088  L 215.152269399707 33.8456140350877  L 217.076134699854 38.6350877192982  L 217.076134699854 40.8701754385965  L 213.549048316252 42.4666666666667  L 213.549048316252 45.659649122807  L 212.266471449488 49.8105263157895  L 213.549048316252 52.6842105263158  L 212.266471449488 54.2807017543859  L 209.755458515284 51.0877192982456  L 207.136163982431 55.2385964912281  L 201.685212298682 60.3473684210526  L 199.761346998536 64.1789473684211  L 203.609077598829 70.8842105263158  L 207.136163982431 67.0526315789474  L 208.739385065886 69.6070175438597  L 203.609077598829 73.4385964912281  L 205.532942898975 76.3122807017544  L 203.609077598829 79.1859649122807  L 203.609077598829 82.3789473684211  L 201.685212298682 79.1859649122807  L 199.761346998536 81.1017543859649  L 196.234260614934 79.1859649122807  L 196.234260614934 82.3789473684211  L 198.478770131772 85.5719298245614  L 199.761346998536 94.1929824561404  L 203.609077598829 99.6210526315789  L 208.739385065886 96.7473684210526  L 212.266471449488 103.133333333333  L 210.983894582723 106.326315789474  L 213.549048316252 107.922807017544  L 215.152269399707 110.477192982456  L 212.266471449488 112.39298245614  L 210.983894582723 113.989473684211  L 207.136163982431 115.905263157895  L 201.685212298682 117.501754385965  L 196.234260614934 121.014035087719  L 190.142020497804 124.20701754386  L 186.935578330893 129.635087719298  L 182.446559297218 122.929824561404  L 182.446559297218 127.080701754386  L 180.843338213763 134.424561403509  L 176.99560761347 134.424561403509  L 174.751098096633 135.701754385965  L 170.90336749634 130.912280701754  L 172.827232796486 129.635087719298  L 170.90336749634 125.484210526316  L 167.696925329429 121.014035087719  L 165.773060029283 121.014035087719  L 160.963396778917 125.484210526316  L 160.963396778917 128.357894736842  L 157.756954612006 129.635087719298  L 154.229868228404 130.912280701754  L 152.94729136164 129.635087719298  L 147.816983894583 134.424561403509  L 143.96925329429 134.424561403509  L 143.96925329429 129.635087719298  L 143.96925329429 128.357894736842  L 140.762811127379 129.635087719298  L 138.518301610542 135.701754385965  L 136.594436310395 137.298245614035  L 136.594436310395 141.768421052632  L 138.518301610542 144.642105263158  L 136.594436310395 147.515789473684  L 130.502196193265 150.708771929825  L 123.448023426061 149.431578947368  L 120.882869692533 155.817543859649  L 120.882869692533 159.329824561404  L 116.393850658858 159.329824561404  L 114.790629575403 160.926315789474  L 112.866764275256 159.329824561404  L 109.660322108345 160.926315789474  L 105.171303074671 160.926315789474  L 101.002928257687 167.312280701754  L 96.1932650073206 172.421052631579  L 96.1932650073206 177.529824561404  L 93.307467057101 175.933333333333  L 93.307467057101 181.361403508772  L 87.8565153733529 181.361403508772  L 83.6881405563689 177.529824561404  L 76.9546120058565 174.975438596491  L 74.389458272328 172.421052631579  L 74.389458272328 168.908771929825  L 79.519765739385 165.39649122807  L 76.9546120058565 160.926315789474  L 71.5036603221084 163.161403508772  L 68.9385065885798 167.312280701754  L 68.9385065885798 171.463157894737  L 67.9765739385066 174.017543859649  L 67.9765739385066 178.80701754386  L 60.2811127379209 180.40350877193  L 55.7920937042459 182  L 51.3030746705711 181.361403508772  L 46.1727672035139 175.933333333333  L 47.4553440702782 174.017543859649  L 47.4553440702782 171.463157894737  L 52.5856515373353 165.39649122807  L 54.5095168374817 163.161403508772  L 52.5856515373353 160.926315789474  L 47.4553440702782 159.329824561404  L 44.2489019033675 162.20350877193  L 40.4011713030746 160.926315789474  L 34.9502196193265 162.20350877193  L 34.9502196193265 165.39649122807  L 31.7437774524158 167.312280701754  L 27.5754026354319 163.161403508772  L 24.6896046852123 162.20350877193  L 24.6896046852123 157.094736842105  L 19.8799414348462 153.263157894737  L 16.0322108345534 150.708771929825  L 21.4831625183016 145.919298245614  L 22.7657393850659 141.768421052632  L 19.8799414348462 137.298245614035  L 14.4289897510981 140.171929824561  L 9.93997071742314 140.171929824561  L 7.05417276720351 141.768421052632  L 7.05417276720351 138.894736842105  L 2.88579795021963 134.424561403509  L 1.60322108345534 132.508771929825  L 4.80966325036604 129.635087719298  L 1.60322108345534 121.014035087719  Z " fill-rule="nonzero" fill="#cc9900" stroke="none" fill-opacity="0.498039215686275" transform="matrix(1 0 0 1 881 2217 )" />
  </g>
</svg>