<svg xmlns="http://www.w3.org/2000/svg" xmlns:xlink="http://www.w3.org/1999/xlink" width="17" height="17" version="1.1"><g><path fill="red" fill-opacity=".498" fill-rule="nonzero" stroke="none" d="M 17 6.61111111111111 L 17 8.5 L 15.0571428571428 10.1527777777778 L 11.9 10.1527777777778 L 11.9 12.2777777777778 L 13.1142857142857 15.1111111111111 L 8.25714285714287 17 L 6.31428571428575 15.1111111111111 L 3.64285714285717 17 L 2.18571428571425 15.1111111111111 L 0 15.1111111111111 L 2.18571428571425 12.2777777777778 L 0 12.2777777777778 L 2.18571428571425 10.1527777777778 L 5.10000000000002 10.1527777777778 L 3.64285714285717 6.61111111111111 L 3.64285714285717 3.77777777777777 L 8.25714285714287 1.65277777777777 L 8.25714285714287 0 L 10.4428571428572 0 L 11.9 1.65277777777777 L 17 1.65277777777777 L 15.0571428571428 5.43055555555554 L 17 6.61111111111111 Z" transform="matrix(1 0 0 1 -1031 -2357 ) matrix(1 0 0 1 1031 2357 )"/></g></svg>