<?xml version="1.0" encoding="utf-8"?>
<svg version="1.1" xmlns:xlink="http://www.w3.org/1999/xlink" width="18px" height="37px" xmlns="http://www.w3.org/2000/svg">
  <g transform="matrix(1 0 0 1 -1089 -2531 )">
    <path d="M 11.5471698113208 0  L 14.2641509433962 0  L 18 0  L 18 1.91379310344826  L 18 4.14655172413791  L 18 6.37931034482756  L 16.6415094339623 11.801724137931  L 16.6415094339623 19.4568965517241  L 14.2641509433962 24.2413793103448  L 14.2641509433962 27.1120689655172  L 11.5471698113208 29.3448275862069  L 11.5471698113208 32.5344827586206  L 11.5471698113208 37  L 8.83018867924528 37  L 8.83018867924528 32.5344827586206  L 4.75471698113211 30.9396551724137  L 1.69811320754724 27.1120689655172  L 0 24.2413793103448  L 0 22.0086206896552  L 1.69811320754724 19.4568965517241  L 3.05660377358493 15.6293103448276  L 4.75471698113211 9.88793103448273  L 6.11320754716979 6.37931034482756  L 8.83018867924528 4.14655172413791  L 8.83018867924528 1.91379310344826  L 11.5471698113208 0  Z " fill-rule="nonzero" fill="#0099ff" stroke="none" fill-opacity="0.498039215686275" transform="matrix(1 0 0 1 1089 2531 )" />
  </g>
</svg>