<?xml version="1.0" encoding="utf-8"?>
<svg version="1.1" xmlns:xlink="http://www.w3.org/1999/xlink" width="80px" height="58px" xmlns="http://www.w3.org/2000/svg">
  <g transform="matrix(1 0 0 1 -1077 -2291 )">
    <path d="M 8.31999999999994 2.56353591160222  L 9.91999999999996 0  L 15.68 0  L 17.6 0  L 19.52 6.08839779005525  L 21.44 8.33149171270718  L 26.24 7.37016574585635  L 28.48 8.33149171270718  L 30.08 6.08839779005525  L 34.24 9.93370165745857  L 37.76 8.33149171270718  L 41.28 8.33149171270718  L 42.56 9.93370165745857  L 42.56 12.1767955801105  L 42.56 14.0994475138122  L 46.72 14.0994475138122  L 49.92 19.2265193370166  L 51.84 17.9447513812155  L 51.84 14.0994475138122  L 54.08 14.0994475138122  L 56.96 19.2265193370166  L 59.52 23.3922651933702  L 61.76 23.3922651933702  L 61.76 19.2265193370166  L 65.6 19.2265193370166  L 67.2 16.0220994475138  L 67.2 17.9447513812155  L 69.44 16.0220994475138  L 73.92 19.2265193370166  L 75.2 22.1104972375691  L 76.8000000000001 20.5082872928177  L 80 22.1104972375691  L 78.4 23.3922651933702  L 78.4 26.5966850828729  L 75.2 28.5193370165746  L 76.8000000000001 33.0055248618785  L 73.92 30.121546961326  L 69.44 26.5966850828729  L 69.44 30.121546961326  L 69.44 33.0055248618785  L 67.2 35.2486187845304  L 64 40.0552486187845  L 59.52 41.3370165745856  L 55.68 42.2983425414365  L 59.52 46.1436464088398  L 59.52 48.0662983425414  L 51.84 50.6298342541436  L 48.64 46.1436464088398  L 45.44 48.0662983425414  L 45.44 51.5911602209945  L 42.56 55.1160220994475  L 42.56 58  L 39.04 58  L 39.04 55.1160220994475  L 35.84 49.3480662983425  L 34.24 46.1436464088398  L 34.24 43.9005524861878  L 30.08 38.1325966850829  L 28.48 35.2486187845304  L 26.24 38.1325966850829  L 24.96 33.0055248618785  L 19.52 33.0055248618785  L 17.6 33.0055248618785  L 15.68 30.121546961326  L 17.6 28.5193370165746  L 15.68 23.3922651933702  L 13.44 20.5082872928177  L 11.2 20.5082872928177  L 8.31999999999994 23.3922651933702  L 5.75999999999999 23.3922651933702  L 3.51999999999993 19.2265193370166  L 3.51999999999993 16.0220994475138  L 3.51999999999993 12.1767955801105  L 1.92000000000002 8.33149171270718  L 0 8.33149171270718  L 0 4.1657458563536  L 3.51999999999993 6.08839779005525  L 5.75999999999999 6.08839779005525  L 8.31999999999994 6.08839779005525  L 7.04000000000002 4.1657458563536  L 8.31999999999994 2.56353591160222  Z " fill-rule="nonzero" fill="#ff9933" stroke="none" fill-opacity="0.498039215686275" transform="matrix(1 0 0 1 1077 2291 )" />
  </g>
</svg>