<?xml version="1.0" encoding="utf-8"?>
<svg version="1.1" xmlns:xlink="http://www.w3.org/1999/xlink" width="100px" height="96px" xmlns="http://www.w3.org/2000/svg">
  <g transform="matrix(1 0 0 1 -869 -2431 )">
    <path d="M 1.27388535031847 5.525618729097  L 1.27388535031847 0.98568561872911  L 5.07936507936506 0  L 10.1910828025478 0.98568561872911  L 11.7834394904459 4.55277591973244  L 13.0573248407644 10.3898327759197  L 18.7898089171975 15.5783277591973  L 23.5668789808917 15.5783277591973  L 27.0700636942675 17.5240133779265  L 32.8025477707006 19.4696989966555  L 34.3949044585987 11.6869565217392  L 40.4458598726115 12.9840802675585  L 44.9044585987261 12.9840802675585  L 46.4968152866242 10.3898327759197  L 44.9044585987261 5.525618729097  L 47.7707006369426 4.55277591973244  L 50.3184713375796 0.98568561872911  L 53.5031847133758 4.55277591973244  L 53.5031847133758 8.11986622073577  L 56.3694267515923 8.11986622073577  L 60.5095541401274 10.3898327759197  L 63.3757961783439 14.2812040133779  L 65.6050955414013 21.0911036789297  L 71.9745222929936 21.0911036789297  L 75.1592356687898 19.4696989966555  L 78.6624203821656 19.4696989966555  L 85.031847133758 21.0911036789297  L 89.1719745222929 25.6310367892976  L 95.2229299363057 26.928160535117  L 100 26.928160535117  L 100 32.1166555183947  L 98.4076433121019 36.9808695652174  L 95.2229299363057 43.4664882943144  L 91.7197452229299 46.3850167224081  L 87.5796178343949 52.5463545150502  L 82.8025477707007 49.9521070234114  L 75.1592356687898 48.3307023411371  L 75.1592356687898 52.5463545150502  L 71.9745222929936 58.0591304347826  L 75.1592356687898 62.5990635451505  L 80.5732484076433 68.7604013377927  L 77.0700636942675 68.7604013377927  L 73.5668789808917 71.3546488294314  L 77.0700636942675 73.6246153846154  L 80.5732484076433 77.5159866220736  L 73.5668789808917 78.813110367893  L 69.4267515923567 78.813110367893  L 69.4267515923567 76.2188628762542  L 63.3757961783439 76.2188628762542  L 60.5095541401274 73.6246153846154  L 62.1019108280254 67.1389966555184  L 56.3694267515923 67.1389966555184  L 56.3694267515923 71.3546488294314  L 50.3184713375796 71.3546488294314  L 53.5031847133758 76.2188628762542  L 46.4968152866242 80.7587959866221  L 46.4968152866242 85.9472909698997  L 47.7707006369426 91.1357859531772  L 42.6751592356688 94.0543143812709  L 35.9872611464968 96  L 32.8025477707006 91.1357859531772  L 30.5732484076433 85.9472909698997  L 28.6624203821656 82.0559197324415  L 25.796178343949 73.6246153846154  L 20.3821656050955 73.6246153846154  L 18.7898089171975 71.3546488294314  L 20.3821656050955 67.1389966555184  L 14.968152866242 62.5990635451505  L 11.7834394904459 67.1389966555184  L 10.1910828025478 62.5990635451505  L 11.7834394904459 58.0591304347826  L 10.1910828025478 52.5463545150502  L 11.7834394904459 48.3307023411371  L 10.1910828025478 43.4664882943144  L 11.7834394904459 38.6022742474916  L 8.28025477707007 32.1166555183947  L 13.0573248407644 32.1166555183947  L 10.1910828025478 28.5495652173913  L 6.68789808917197 24.3339130434783  L 6.68789808917197 19.4696989966555  L 1.27388535031847 17.5240133779265  L 0 11.6869565217392  L 3.50318471337582 8.11986622073577  L 1.27388535031847 5.525618729097  Z " fill-rule="nonzero" fill="#996699" stroke="none" fill-opacity="0.498039215686275" transform="matrix(1 0 0 1 869 2431 )" />
  </g>
</svg>