<svg xmlns="http://www.w3.org/2000/svg" xmlns:xlink="http://www.w3.org/1999/xlink" width="27" height="47" version="1.1"><g><path fill="#fc0" fill-opacity=".498" fill-rule="nonzero" stroke="none" d="M 11.4324324324324 6.71428571428572 L 11.4324324324324 5.03571428571428 L 13.6216216216216 3.59693877551021 L 15.8108108108108 1.67857142857142 L 18.4864864864865 0 L 20.4324324324324 0 L 20.4324324324324 3.59693877551021 L 18.4864864864865 6.71428571428572 L 15.8108108108108 9.35204081632654 L 17.2702702702702 9.35204081632654 L 17.2702702702702 11.75 L 20.4324324324324 13.9081632653061 L 22.8648648648649 13.9081632653061 L 27 17.5051020408163 L 22.8648648648649 21.5816326530612 L 24.0810810810811 26.3775510204082 L 18.4864864864865 26.3775510204082 L 17.2702702702702 28.5357142857143 L 17.2702702702702 30.2142857142857 L 14.8378378378378 32.1326530612245 L 15.8108108108108 35.7295918367347 L 20.4324324324324 37.4081632653061 L 18.4864864864865 41.484693877551 L 15.8108108108108 41.484693877551 L 15.8108108108108 45.8010204081633 L 14.8378378378378 47 L 11.4324324324324 45.8010204081633 L 9.24324324324324 44.1224489795918 L 9.24324324324324 41.484693877551 L 7.29729729729728 42.6836734693878 L 5.10810810810811 39.3265306122449 L 7.29729729729728 37.4081632653061 L 5.10810810810811 32.1326530612245 L 5.10810810810811 30.2142857142857 L 6.3243243243243 30.2142857142857 L 5.10810810810811 27.5765306122449 L 1.45945945945944 24.4591836734694 L 0 24.4591836734694 L 0 21.5816326530612 L 3.40540540540541 19.6632653061224 L 6.3243243243243 19.6632653061224 L 9.24324324324324 17.5051020408163 L 11.4324324324324 16.0663265306122 L 11.4324324324324 13.9081632653061 L 11.4324324324324 11.75 L 11.4324324324324 9.35204081632654 L 11.4324324324324 6.71428571428572 Z" transform="matrix(1 0 0 1 -938 -2377 ) matrix(1 0 0 1 938 2377 )"/></g></svg>