<svg xmlns="http://www.w3.org/2000/svg" xmlns:xlink="http://www.w3.org/1999/xlink" width="46" height="58" version="1.1"><g><path fill="#fc9" fill-opacity=".498" fill-rule="nonzero" stroke="none" d="M 5.78010471204186 7.13114754098362 L 8.42931937172779 7.13114754098362 L 11.3193717277487 10.9344262295082 L 15.6544502617801 7.13114754098362 L 14.4502617801047 4.51639344262296 L 8.42931937172779 1.42622950819671 L 13.2460732984293 0 L 15.6544502617801 2.61475409836066 L 17.8219895287958 2.61475409836066 L 19.7486910994764 6.18032786885246 L 25.2879581151832 7.13114754098362 L 25.2879581151832 9.03278688524591 L 29.8638743455498 9.03278688524591 L 29.8638743455498 10.9344262295082 L 28.1780104712042 12.8360655737705 L 28.1780104712042 14.9754098360656 L 31.7905759162304 16.4016393442623 L 31.7905759162304 19.4918032786885 L 35.8848167539267 19.4918032786885 L 37.3298429319372 16.4016393442623 L 39.9790575916231 19.4918032786885 L 39.9790575916231 22.5819672131148 L 35.8848167539267 22.5819672131148 L 34.6806282722513 22.5819672131148 L 35.8848167539267 24.9590163934426 L 34.6806282722513 26.8606557377049 L 33.4764397905759 29.4754098360656 L 35.8848167539267 31.3770491803278 L 38.5340314136126 31.3770491803278 L 38.5340314136126 33.9918032786885 L 38.5340314136126 36.1311475409836 L 39.9790575916231 36.1311475409836 L 43.5916230366493 36.1311475409836 L 46 37.5573770491803 L 46 42.3114754098361 L 43.5916230366493 43.9754098360656 L 43.5916230366493 45.4016393442623 L 43.5916230366493 47.0655737704918 L 39.9790575916231 47.0655737704918 L 39.9790575916231 53.7213114754098 L 34.6806282722513 58 L 31.7905759162304 55.8606557377049 L 28.1780104712042 55.8606557377049 L 25.2879581151832 53.7213114754098 L 23.8429319371728 52.5327868852459 L 21.434554973822 58 L 19.7486910994764 55.8606557377049 L 21.434554973822 53.7213114754098 L 19.7486910994764 50.8688524590164 L 15.6544502617801 52.5327868852459 L 14.4502617801047 53.7213114754098 L 11.3193717277487 48.4918032786885 L 11.3193717277487 47.0655737704918 L 9.87434554973822 45.4016393442623 L 11.3193717277487 42.3114754098361 L 11.3193717277487 40.172131147541 L 8.42931937172779 40.172131147541 L 5.78010471204186 36.1311475409836 L 8.42931937172779 32.5655737704918 L 9.87434554973822 32.5655737704918 L 9.87434554973822 26.8606557377049 L 9.87434554973822 24.9590163934426 L 6.98429319371729 24.9590163934426 L 2.4083769633508 24.0081967213115 L 2.4083769633508 19.4918032786885 L 0 19.4918032786885 L 0 18.0655737704918 L 2.4083769633508 18.0655737704918 L 4.09424083769636 16.4016393442623 L 4.09424083769636 12.8360655737705 L 5.78010471204186 12.8360655737705 L 5.78010471204186 9.03278688524591 L 5.78010471204186 7.13114754098362 Z" transform="matrix(1 0 0 1 -1031 -2431 ) matrix(1 0 0 1 1031 2431 )"/></g></svg>