<svg xmlns="http://www.w3.org/2000/svg" xmlns:xlink="http://www.w3.org/1999/xlink" width="68" height="43" version="1.1"><g><path fill="#0c9" fill-opacity=".498" fill-rule="nonzero" stroke="none" d="M 21.4480286738351 1.93258426966293 L 24.1290322580646 0 L 26.5663082437276 1.93258426966293 L 26.5663082437276 3.86516853932585 L 28.5161290322581 0 L 30.9534050179211 1.93258426966293 L 33.1469534050179 0 L 36.5591397849462 3.86516853932585 L 35.3405017921147 5.31460674157304 L 35.3405017921147 8.21348314606743 L 37.7777777777778 11.5955056179775 L 42.1648745519714 10.3876404494382 L 43.8709677419355 8.21348314606743 L 43.8709677419355 7.00561797752809 L 47.0394265232975 5.31460674157304 L 47.0394265232975 3.86516853932585 L 50.4516129032259 1.93258426966293 L 54.8387096774193 3.86516853932585 L 57.0322580645162 3.86516853932585 L 58.9820788530466 5.31460674157304 L 62.1505376344086 5.31460674157304 L 62.1505376344086 3.86516853932585 L 65.3189964157706 5.31460674157304 L 68 5.31460674157304 L 68 7.00561797752809 L 66.5376344086022 8.21348314606743 L 68 10.3876404494382 L 66.5376344086022 11.5955056179775 L 63.8566308243728 10.3876404494382 L 62.1505376344086 10.3876404494382 L 58.9820788530466 11.5955056179775 L 54.8387096774193 15.2191011235955 L 53.6200716845878 18.3595505617978 L 51.9139784946237 20.7752808988764 L 50.4516129032259 22.9494382022472 L 49.2329749103943 20.7752808988764 L 47.0394265232975 20.7752808988764 L 48.258064516129 22.9494382022472 L 47.0394265232975 25.8483146067416 L 45.0896057347671 28.0224719101124 L 43.8709677419355 29.7134831460674 L 42.1648745519714 32.6123595505618 L 40.9462365591398 35.752808988764 L 37.7777777777778 36.9606741573034 L 36.5591397849462 38.4101123595506 L 36.5591397849462 40.3426966292135 L 35.3405017921147 40.3426966292135 L 33.1469534050179 43 L 29.7347670250896 40.3426966292135 L 28.5161290322581 40.3426966292135 L 26.5663082437276 43 L 24.1290322580646 43 L 21.4480286738351 43 L 18.7670250896057 38.4101123595506 L 16.0860215053763 38.4101123595506 L 14.6236559139785 40.3426966292135 L 14.6236559139785 41.5505617977528 L 12.4301075268817 43 L 6.82437275985666 43 L 5.36200716845877 41.5505617977528 L 2.43727598566306 38.4101123595506 L 0 40.3426966292135 L 0 35.752808988764 L 4.14336917562724 32.6123595505618 L 4.14336917562724 29.7134831460674 L 5.36200716845877 25.8483146067416 L 4.14336917562724 22.9494382022472 L 4.14336917562724 20.7752808988764 L 4.14336917562724 18.3595505617978 L 6.82437275985666 15.2191011235955 L 8.28673835125448 13.0449438202247 L 8.28673835125448 10.3876404494382 L 10.4802867383513 10.3876404494382 L 12.4301075268817 8.21348314606743 L 16.0860215053763 5.31460674157304 L 21.4480286738351 3.86516853932585 L 21.4480286738351 1.93258426966293 Z" transform="matrix(1 0 0 1 -1028 -2388 ) matrix(1 0 0 1 1028 2388 )"/></g></svg>