<?xml version="1.0" encoding="utf-8"?>
<svg version="1.1" xmlns:xlink="http://www.w3.org/1999/xlink" width="35px" height="73px" xmlns="http://www.w3.org/2000/svg">
  <g transform="matrix(1 0 0 1 -989 -2360 )">
    <path d="M 30.4452054794521 2.88157894736841  L 30.4452054794521 0  L 33.0821917808219 2.88157894736841  L 33.0821917808219 4.80263157894737  L 35 6.48355263157896  L 30.4452054794521 8.40460526315789  L 30.4452054794521 10.3256578947368  L 33.0821917808219 11.5263157894737  L 35 13.4473684210526  L 35 16.0888157894737  L 33.0821917808219 18.25  L 33.0821917808219 20.171052631579  L 30.4452054794521 20.171052631579  L 30.4452054794521 21.6118421052632  L 30.4452054794521 24.0131578947369  L 27.5684931506849 27.8552631578947  L 27.5684931506849 30.7368421052632  L 30.4452054794521 30.7368421052632  L 30.4452054794521 34.0986842105263  L 33.0821917808219 36.9802631578947  L 30.4452054794521 40.1019736842105  L 30.4452054794521 42.983552631579  L 30.4452054794521 46.3453947368421  L 27.5684931506849 48.0263157894737  L 29.486301369863 51.1480263157895  L 30.4452054794521 56.4309210526316  L 30.4452054794521 59.7927631578947  L 25.8904109589041 62.6743421052632  L 22.2945205479452 65.3157894736842  L 16.7808219178082 65.3157894736842  L 15.3424657534247 66.516447368421  L 12.7054794520548 66.516447368421  L 10.5479452054794 69.6381578947369  L 7.67123287671234 69.6381578947369  L 3.59589041095887 73  L 0 72.0394736842105  L 0 66.516447368421  L 1.43835616438355 62.6743421052632  L 3.59589041095887 62.6743421052632  L 1.43835616438355 56.4309210526316  L 1.43835616438355 49.4671052631579  L 1.43835616438355 45.1447368421053  L 3.59589041095887 42.0230263157895  L 3.59589041095887 40.1019736842105  L 3.59589041095887 36.9802631578947  L 1.43835616438355 34.0986842105263  L 1.43835616438355 30.7368421052632  L 4.79452054794524 27.8552631578947  L 7.67123287671234 18.25  L 5.99315068493155 18.25  L 7.67123287671234 16.0888157894737  L 10.5479452054794 16.0888157894737  L 14.1438356164384 16.0888157894737  L 14.1438356164384 11.5263157894737  L 14.1438356164384 8.40460526315789  L 16.7808219178082 6.48355263157896  L 23.7328767123288 6.48355263157896  L 27.5684931506849 6.48355263157896  L 29.486301369863 4.80263157894737  L 30.4452054794521 2.88157894736841  Z " fill-rule="nonzero" fill="#cc9966" stroke="none" fill-opacity="0.498039215686275" transform="matrix(1 0 0 1 989 2360 )" />
  </g>
</svg>