<svg xmlns="http://www.w3.org/2000/svg" xmlns:xlink="http://www.w3.org/1999/xlink" width="77" height="59" version="1.1"><g><path fill="#f99" fill-rule="nonzero" stroke="none" d="M 25.1869158878505 14.9306122448979 L 25.1869158878505 10.5959183673469 L 26.8660436137072 8.1877551020408 L 26.8660436137072 5.05714285714282 L 29.7445482866044 5.05714285714282 L 32.3831775700934 7.22448979591837 L 33.582554517134 8.1877551020408 L 35.2616822429906 7.22448979591837 L 33.582554517134 2.40816326530614 L 37.1806853582555 0 L 39.8193146417445 2.40816326530614 L 43.417445482866 2.40816326530614 L 45.3364485981309 2.40816326530614 L 46.7757009345794 2.40816326530614 L 50.3738317757009 2.40816326530614 L 52.2928348909657 3.85306122448975 L 50.3738317757009 6.26122448979595 L 48.9345794392523 9.39183673469387 L 48.9345794392523 10.5959183673469 L 50.3738317757009 12.0408163265307 L 56.1308411214953 10.5959183673469 L 59.7289719626168 8.1877551020408 L 62.8473520249221 9.39183673469387 L 62.8473520249221 8.1877551020408 L 64.7663551401869 7.22448979591837 L 68.6043613707165 7.22448979591837 L 70.7632398753894 8.1877551020408 L 73.8816199376947 8.1877551020408 L 75.3208722741433 12.0408163265307 L 75.3208722741433 14.9306122448979 L 77 18.3020408163266 L 77 21.1918367346939 L 73.8816199376947 22.8775510204081 L 73.8816199376947 25.0448979591837 L 70.7632398753894 26.4897959183673 L 68.6043613707165 28.8979591836734 L 64.7663551401869 28.8979591836734 L 62.8473520249221 28.8979591836734 L 62.8473520249221 30.5836734693877 L 59.7289719626168 28.8979591836734 L 57.5700934579439 30.5836734693877 L 56.1308411214953 32.269387755102 L 52.2928348909657 32.269387755102 L 52.2928348909657 33.7142857142857 L 50.3738317757009 36.604081632653 L 46.7757009345794 36.604081632653 L 45.3364485981309 33.7142857142857 L 43.417445482866 30.5836734693877 L 41.9781931464174 30.5836734693877 L 41.9781931464174 32.269387755102 L 41.9781931464174 33.7142857142857 L 43.417445482866 36.604081632653 L 42.8417445482777 36.7967346938806 L 39.8193146417445 37.8081632653061 L 39.8193146417445 39.734693877551 L 37.1806853582555 37.8081632653061 L 37.1806853582555 39.734693877551 L 37.1806853582555 42.1428571428571 L 35.2616822429906 40.9387755102041 L 33.582554517134 42.1428571428571 L 32.3831775700934 44.7918367346939 L 29.7445482866044 42.1428571428571 L 28.0654205607477 43.5877551020408 L 26.8660436137072 42.1428571428571 L 23.7476635514019 43.5877551020408 L 22.3084112149533 45.9959183673469 L 19.9096573208723 45.9959183673469 L 16.791277258567 45.9959183673469 L 13.6728971962617 47.2 L 11.993769470405 49.3673469387755 L 11.993769470405 53.4612244897959 L 10.0747663551402 53.4612244897959 L 8.1557632398754 53.4612244897959 L 10.0747663551402 53.4612244897959 L 10.0747663551402 55.6285714285714 L 10.0747663551402 57.4139784946236 L 6.47663551401865 59 L 3.83800623052963 59 L 3.83800623052963 55.6285714285714 L 2.39875389408098 53.4612244897959 L 0 51.2938775510204 L 2.39875389408098 47.2 L 2.39875389408098 45.9959183673469 L 6.47663551401865 42.1428571428571 L 8.1557632398754 42.1428571428571 L 10.0747663551402 40.9387755102041 L 10.0747663551402 37.8081632653061 L 11.993769470405 37.8081632653061 L 11.993769470405 36.604081632653 L 15.5919003115265 32.269387755102 L 17.9906542056075 32.269387755102 L 19.9096573208723 28.8979591836734 L 17.9906542056075 25.0448979591837 L 19.9096573208723 22.8775510204081 L 22.3084112149533 21.1918367346939 L 23.7476635514019 18.3020408163266 L 23.7476635514019 16.3755102040816 L 25.1869158878505 14.9306122448979 Z" transform="matrix(1 0 0 1 -981 -2534 ) matrix(1 0 0 1 981 2534 )"/></g></svg>