<?xml version="1.0" encoding="utf-8"?>
<svg version="1.1" xmlns:xlink="http://www.w3.org/1999/xlink" width="77px" height="55px" xmlns="http://www.w3.org/2000/svg">
  <g transform="matrix(1 0 0 1 -931 -2526 )">
    <path d="M 1.61764705882355 20.9064327485381  L 0 18.654970760234  L 4.52941176470589 13.8304093567252  L 11.6470588235294 16.0818713450293  L 15.2058823529412 17.3684210526316  L 18.4411764705882 13.8304093567252  L 25.2352941176471 11.5789473684211  L 25.2352941176471 9.64912280701754  L 27.1764705882353 8.04093567251467  L 28.7941176470588 11.5789473684211  L 31.3823529411764 11.5789473684211  L 33.6470588235294 13.8304093567252  L 36.5588235294118 11.5789473684211  L 38.1764705882353 9.64912280701754  L 40.764705882353 11.5789473684211  L 40.764705882353 8.04093567251467  L 44.9705882352941 9.64912280701754  L 44.9705882352941 6.75438596491231  L 48.2058823529412 6.75438596491231  L 51.1176470588236 3.85964912280703  L 53.7058823529412 5.46783625730995  L 55.0000000000001 2.25146198830416  L 57.264705882353 2.25146198830416  L 57.264705882353 5.46783625730995  L 62.1176470588236 0  L 66 0  L 68.5882352941177 2.25146198830416  L 68.5882352941177 5.46783625730995  L 70.5294117647059 5.46783625730995  L 68.5882352941177 8.04093567251467  L 68.5882352941177 11.5789473684211  L 64.7058823529412 13.8304093567252  L 64.7058823529412 16.0818713450293  L 68.5882352941177 13.8304093567252  L 70.5294117647059 16.0818713450293  L 70.5294117647059 18.654970760234  L 75.3823529411765 17.3684210526316  L 75.3823529411765 18.654970760234  L 77 23.4795321637427  L 75.3823529411765 23.4795321637427  L 75.3823529411765 26.6959064327486  L 72.4705882352942 29.9122807017544  L 70.5294117647059 33.4502923976608  L 70.5294117647059 37.3099415204678  L 68.5882352941177 40.8479532163743  L 66 40.8479532163743  L 63.4117647058824 44.3859649122807  L 63.4117647058824 46.3157894736842  L 60.1764705882353 47.2807017543859  L 60.1764705882353 48.8888888888889  L 57.264705882353 50.4970760233918  L 55.0000000000001 52.7485380116959  L 53.7058823529412 52.7485380116959  L 48.2058823529412 55  L 46.264705882353 52.7485380116959  L 43.0294117647059 52.7485380116959  L 40.764705882353 50.4970760233918  L 38.1764705882353 52.7485380116959  L 33.6470588235294 52.7485380116959  L 28.7941176470588 52.7485380116959  L 25.2352941176471 50.4970760233918  L 23.6176470588235 48.8888888888889  L 20.0588235294118 46.3157894736842  L 20.0588235294118 43.0994152046784  L 21.3529411764706 40.8479532163743  L 21.3529411764706 38.5964912280702  L 20.0588235294118 37.3099415204678  L 15.2058823529412 38.5964912280702  L 13.5882352941176 37.3099415204678  L 8.73529411764703 34.7368421052632  L 11.6470588235294 29.9122807017544  L 15.2058823529412 31.1988304093568  L 16.5 28.3040935672515  L 15.2058823529412 25.0877192982456  L 11.6470588235294 25.0877192982456  L 8.73529411764703 25.0877192982456  L 6.47058823529414 23.4795321637427  L 6.47058823529414 22.1929824561404  L 1.61764705882355 20.9064327485381  Z " fill-rule="nonzero" fill="#6699ff" stroke="none" fill-opacity="0.498039215686275" transform="matrix(1 0 0 1 931 2526 )" />
  </g>
</svg>