<?xml version="1.0" encoding="utf-8"?>
<svg version="1.1" xmlns:xlink="http://www.w3.org/1999/xlink" width="195px" height="152px" xmlns="http://www.w3.org/2000/svg">
  <g transform="matrix(1 0 0 1 -680 -2247 )">
    <path d="M 36.3235294117647 144.303797468354  L 28.1985294117647 144.303797468354  L 22.9411764705882 139.012658227848  L 22.9411764705882 129.392405063291  L 18.1617647058824 126.025316455696  L 13.8602941176471 123.139240506329  L 12.4264705882353 120.73417721519  L 9.55882352941176 120.73417721519  L 9.55882352941176 115.443037974684  L 10.9926470588235 113.037974683544  L 10.9926470588235 109.189873417722  L 7.64705882352941 107.746835443038  L 7.64705882352941 106.784810126582  L 5.25735294117647 103.898734177215  L 1.43382352941176 102.455696202532  L 1.43382352941176 100.050632911392  L 5.25735294117647 101.493670886076  L 6.69117647058824 100.050632911392  L 6.69117647058824 97.6455696202532  L 7.64705882352941 90.9113924050633  L 9.55882352941176 87.0632911392405  L 6.69117647058824 83.6962025316456  L 1.43382352941176 83.6962025316456  L 0 81.2911392405064  L 1.43382352941176 78.8860759493671  L 1.43382352941176 75.0379746835443  L 1.43382352941176 73.1139240506329  L 5.25735294117647 73.1139240506329  L 7.64705882352941 69.2658227848101  L 13.8602941176471 69.2658227848101  L 16.7279411764706 66.379746835443  L 21.0294117647059 66.379746835443  L 24.375 69.2658227848101  L 28.1985294117647 69.2658227848101  L 32.5 69.2658227848101  L 32.5 66.379746835443  L 39.1911764705882 66.379746835443  L 46.3602941176471 66.379746835443  L 58.3088235294118 63.9746835443038  L 65 61.0886075949367  L 67.3897058823529 55.7974683544304  L 70.2573529411765 52.9113924050633  L 73 52.9113924050633  L 73 40.4050632911393  L 72.6470588235294 36.0759493670886  L 72.6470588235294 33.1898734177215  L 72.6470588235294 30.7848101265823  L 79.3382352941177 30.7848101265823  L 86.0294117647059 30.7848101265823  L 90.3308823529412 33.1898734177215  L 92.2426470588235 29.3417721518987  L 97.9779411764706 19.7215189873418  L 103.713235294118 12.9873417721519  L 109.926470588235 17.7974683544304  L 117.573529411765 19.7215189873418  L 119.963235294118 17.7974683544304  L 122.352941176471 10.5822784810127  L 125.698529411765 4.81012658227848  L 129.044117647059 4.81012658227848  L 132.867647058824 4.81012658227848  L 134.301470588235 0  L 138.125 0  L 140.992647058824 0  L 140.992647058824 4.81012658227848  L 144.816176470588 10.5822784810127  L 147.683823529412 14.9113924050633  L 152.463235294118 14.9113924050633  L 154.852941176471 19.7215189873418  L 157.242647058824 21.6455696202532  L 157.242647058824 26.4556962025317  L 160.588235294118 32.2278481012658  L 160.588235294118 36.0759493670886  L 158.676470588235 39.4430379746835  L 154.852941176471 44.7341772151899  L 157.242647058824 49.5443037974684  L 162.5 52.9113924050633  L 168.713235294118 54.8354430379747  L 176.360294117647 55.7974683544304  L 182.573529411765 62.5316455696203  L 188.786764705882 66.379746835443  L 190.220588235294 72.1518987341772  L 190.220588235294 77.4430379746836  L 195 82.7341772151899  L 190.220588235294 87.0632911392405  L 191.654411764706 90.9113924050633  L 188.786764705882 94.2784810126582  L 182.573529411765 94.2784810126582  L 176.360294117647 97.6455696202532  L 170.625 103.898734177215  L 164.411764705882 103.898734177215  L 160.588235294118 107.746835443038  L 158.676470588235 115.443037974684  L 154.852941176471 120.73417721519  L 147.683823529412 123.139240506329  L 139.558823529412 123.139240506329  L 134.301470588235 125.063291139241  L 134.301470588235 126.025316455696  L 138.125 127.46835443038  L 136.691176470588 130.835443037975  L 139.558823529412 135.645569620253  L 140.992647058824 141.417721518987  L 138.125 146.227848101266  L 138.125 152  L 131.911764705882 149.594936708861  L 125.698529411765 151.037974683544  L 119.963235294118 146.227848101266  L 114.227941176471 144.303797468354  L 107.536764705882 142.860759493671  L 100.367647058824 142.860759493671  L 95.1102941176471 144.303797468354  L 88.8970588235294 146.227848101266  L 82.6838235294118 144.303797468354  L 74.5588235294118 146.227848101266  L 70.2573529411765 144.303797468354  L 65 140.455696202532  L 58.3088235294118 141.417721518987  L 52.5735294117647 140.455696202532  L 46.3602941176471 139.012658227848  L 41.5808823529412 139.012658227848  L 36.3235294117647 144.303797468354  Z " fill-rule="nonzero" fill="#cccccc" stroke="none" fill-opacity="0.498039215686275" transform="matrix(1 0 0 1 680 2247 )" />
  </g>
</svg>