<svg xmlns="http://www.w3.org/2000/svg" xmlns:xlink="http://www.w3.org/1999/xlink" width="47" height="65" version="1.1"><g><path fill="#f93" fill-opacity=".498" fill-rule="nonzero" stroke="none" d="M 4.36082474226805 15.0936329588015 L 3.14948453608247 13.3895131086142 L 6.05670103092785 9.49438202247188 L 8.96391752577318 9.49438202247188 L 12.5979381443299 7.30337078651684 L 14.5360824742268 7.30337078651684 L 14.5360824742268 4.62546816479397 L 17.9278350515464 2.67790262172286 L 22.2886597938144 4.62546816479397 L 25.4381443298969 2.67790262172286 L 28.8298969072165 0 L 30.5257731958763 0 L 28.8298969072165 4.62546816479397 L 30.5257731958763 5.84269662921344 L 33.4329896907216 2.67790262172286 L 33.4329896907216 0 L 38.520618556701 4.62546816479397 L 42.3969072164949 4.62546816479397 L 43.8505154639175 5.84269662921344 L 43.8505154639175 9.49438202247188 L 45.3041237113402 10.9550561797753 L 47 13.3895131086142 L 47 18.501872659176 L 47 21.6666666666666 L 40.9432989690721 24.5880149812734 L 38.520618556701 22.8838951310861 L 34.8865979381443 27.2659176029962 L 34.8865979381443 31.8913857677903 L 33.4329896907216 35.2996254681648 L 30.5257731958763 37.7340823970037 L 30.5257731958763 41.8726591760299 L 28.8298969072165 44.063670411985 L 30.5257731958763 45.5243445692884 L 27.1340206185567 48.4456928838952 L 27.1340206185567 52.0973782771536 L 25.4381443298969 55.9925093632959 L 25.4381443298969 59.6441947565543 L 23.5 59.6441947565543 L 23.5 63.5393258426966 L 20.3505154639175 61.3483146067416 L 17.9278350515464 61.3483146067416 L 11.3865979381443 65 L 8.96391752577318 65 L 8.96391752577318 63.5393258426966 L 10.4175257731958 61.3483146067416 L 11.3865979381443 59.6441947565543 L 12.5979381443299 57.4531835205992 L 11.3865979381443 54.2883895131086 L 7.99484536082474 55.9925093632959 L 6.05670103092785 55.9925093632959 L 4.36082474226805 54.2883895131086 L 4.36082474226805 50.3932584269663 L 6.05670103092785 48.4456928838952 L 7.99484536082474 45.5243445692884 L 4.36082474226805 45.5243445692884 L 6.05670103092785 41.8726591760299 L 3.14948453608247 39.6816479400749 L 3.14948453608247 35.2996254681648 L 1.6958762886598 35.2996254681648 L 3.14948453608247 33.1086142322097 L 1.6958762886598 31.8913857677903 L 0 29.4569288389513 L 1.6958762886598 26.0486891385768 L 3.14948453608247 24.5880149812734 L 4.36082474226805 22.8838951310861 L 6.05670103092785 21.6666666666666 L 6.05670103092785 18.501872659176 L 4.36082474226805 18.501872659176 L 4.36082474226805 15.0936329588015 Z" transform="matrix(1 0 0 1 -1021 -2482 ) matrix(1 0 0 1 1021 2482 )"/></g></svg>