<?xml version="1.0" encoding="utf-8"?>
<svg version="1.1" xmlns:xlink="http://www.w3.org/1999/xlink" width="55px" height="49px" xmlns="http://www.w3.org/2000/svg">
  <g transform="matrix(1 0 0 1 -1043 -2422 )">
    <path d="M 23.640350877193 0  L 25.5701754385964 0  L 27.0175438596491 3.71212121212122  L 28.7061403508771 3.71212121212122  L 30.6359649122807 5.19696969696969  L 37.1491228070175 7.42424242424244  L 38.8377192982456 11.8787878787879  L 41.25 18.3131313131313  L 44.1447368421053 22.520202020202  L 44.1447368421053 25.7373737373737  L 44.1447368421053 27.2222222222222  L 48.7280701754386 28.7070707070707  L 48.7280701754386 31.429292929293  L 53.5526315789473 32.9141414141415  L 55 35.1414141414141  L 55 38.6060606060606  L 48.7280701754386 35.1414141414141  L 46.5570175438596 35.1414141414141  L 48.7280701754386 38.6060606060606  L 48.7280701754386 40.3383838383838  L 46.5570175438596 44.5454545454546  L 46.5570175438596 46.2777777777778  L 42.9385964912281 49  L 40.0438596491227 46.2777777777778  L 37.1491228070175 46.2777777777778  L 33.2894736842105 46.2777777777778  L 30.6359649122807 44.5454545454546  L 28.7061403508771 44.5454545454546  L 25.5701754385964 44.5454545454546  L 27.0175438596491 40.3383838383838  L 23.640350877193 38.6060606060606  L 21.7105263157894 35.1414141414141  L 23.640350877193 32.9141414141415  L 23.640350877193 28.7070707070707  L 25.5701754385964 28.7070707070707  L 27.0175438596491 30.4393939393939  L 28.7061403508771 28.7070707070707  L 28.7061403508771 25.7373737373737  L 25.5701754385964 25.7373737373737  L 23.640350877193 25.7373737373737  L 21.7105263157894 27.2222222222222  L 19.0570175438596 27.2222222222222  L 19.0570175438596 22.520202020202  L 16.6447368421053 22.520202020202  L 16.6447368421053 18.3131313131313  L 17.8508771929824 18.3131313131313  L 17.8508771929824 16.5808080808081  L 14.7149122807017 16.5808080808081  L 13.2675438596491 14.1060606060606  L 7.96052631578948 14.1060606060606  L 6.27192982456137 10.1464646464646  L 2.8947368421052 7.42424242424244  L 0 7.42424242424244  L 0 5.19696969696969  L 4.58333333333331 3.71212121212122  L 7.96052631578948 7.42424242424244  L 9.89035087719293 7.42424242424244  L 11.578947368421 8.66161616161617  L 13.2675438596491 7.42424242424244  L 13.2675438596491 5.19696969696969  L 16.6447368421053 5.19696969696969  L 16.6447368421053 7.42424242424244  L 19.0570175438596 7.42424242424244  L 19.0570175438596 5.19696969696969  L 21.7105263157894 5.19696969696969  L 23.640350877193 2.47474747474749  L 23.640350877193 0  Z " fill-rule="nonzero" fill="#cccc66" stroke="none" fill-opacity="0.498039215686275" transform="matrix(1 0 0 1 1043 2422 )" />
  </g>
</svg>