<svg xmlns="http://www.w3.org/2000/svg" xmlns:xlink="http://www.w3.org/1999/xlink" width="52" height="77" version="1.1"><g><path fill="#fcf" fill-opacity=".498" fill-rule="nonzero" stroke="none" d="M 1.69302325581395 74.3111111111111 L 0 70.8888888888889 L 1.69302325581395 69.1777777777778 L 2.9023255813953 65.7555555555556 L 5.07906976744187 60.1333333333333 L 2.9023255813953 56.4666666666667 L 2.9023255813953 53.2888888888889 L 0 53.2888888888889 L 0 49.6222222222222 L 1.69302325581395 46.6888888888889 L 1.69302325581395 44 L 2.9023255813953 42.2888888888889 L 5.07906976744187 42.2888888888889 L 6.53023255813952 41.0666666666667 L 7.73953488372092 36.1777777777778 L 6.53023255813952 34.9555555555556 L 5.07906976744187 32.7555555555556 L 2.9023255813953 32.7555555555556 L 2.9023255813953 30.3111111111111 L 6.53023255813952 27.6222222222222 L 5.07906976744187 24.4444444444445 L 2.9023255813953 20.5333333333333 L 0 18.8222222222223 L 1.69302325581395 16.8666666666667 L 1.69302325581395 13.6888888888889 L 2.9023255813953 13.6888888888889 L 5.07906976744187 9.28888888888889 L 6.53023255813952 6.84444444444446 L 7.73953488372092 5.62222222222223 L 9.19069767441863 9.28888888888889 L 9.19069767441863 11.7333333333333 L 10.8837209302325 11.7333333333333 L 13.5441860465116 11.7333333333333 L 17.6558139534884 6.84444444444446 L 18.8651162790698 9.28888888888889 L 21.2837209302326 6.84444444444446 L 23.2186046511628 6.84444444444446 L 24.4279069767442 8.06666666666669 L 25.6372093023256 6.84444444444446 L 24.4279069767442 4.40000000000001 L 25.6372093023256 2.93333333333334 L 26.8465116279069 1.22222222222223 L 29.506976744186 1.22222222222223 L 29.506976744186 0 L 32.1674418604651 0 L 34.8279069767441 1.22222222222223 L 34.8279069767441 2.93333333333334 L 34.8279069767441 4.40000000000001 L 36.5209302325582 5.62222222222223 L 36.5209302325582 6.84444444444446 L 36.5209302325582 9.28888888888889 L 37.7302325581395 11.7333333333333 L 37.7302325581395 13.6888888888889 L 42.5674418604651 13.6888888888889 L 45.953488372093 13.6888888888889 L 43.7767441860465 16.8666666666667 L 43.7767441860465 18.8222222222223 L 43.7767441860465 20.5333333333333 L 47.646511627907 22.2444444444445 L 49.5813953488372 22.2444444444445 L 52 27.6222222222222 L 49.5813953488372 30.3111111111111 L 47.646511627907 32.7555555555556 L 47.646511627907 34.9555555555556 L 45.953488372093 37.6444444444444 L 43.7767441860465 37.6444444444444 L 40.6325581395349 41.0666666666667 L 37.7302325581395 37.6444444444444 L 36.5209302325582 34.9555555555556 L 34.8279069767441 34.9555555555556 L 33.3767441860465 32.7555555555556 L 33.3767441860465 30.3111111111111 L 34.8279069767441 30.3111111111111 L 33.3767441860465 26.4 L 32.1674418604651 26.4 L 29.506976744186 24.4444444444445 L 32.1674418604651 22.2444444444445 L 26.8465116279069 20.5333333333333 L 24.4279069767442 18.8222222222223 L 21.2837209302326 20.5333333333333 L 18.8651162790698 26.4 L 18.8651162790698 27.6222222222222 L 15.9627906976744 30.3111111111111 L 14.753488372093 31.7777777777778 L 15.9627906976744 32.7555555555556 L 15.9627906976744 34.9555555555556 L 17.6558139534884 36.1777777777778 L 21.2837209302326 34.9555555555556 L 23.2186046511628 37.6444444444444 L 24.4279069767442 34.9555555555556 L 26.8465116279069 34.9555555555556 L 26.8465116279069 37.6444444444444 L 28.0558139534884 41.0666666666667 L 26.8465116279069 44 L 29.506976744186 45.4666666666667 L 29.506976744186 46.6888888888889 L 32.1674418604651 46.6888888888889 L 33.3767441860465 46.6888888888889 L 34.8279069767441 46.6888888888889 L 36.5209302325582 49.6222222222222 L 36.5209302325582 51.8222222222223 L 33.3767441860465 55.2444444444445 L 29.506976744186 55.2444444444445 L 25.6372093023256 60.1333333333333 L 24.4279069767442 60.1333333333333 L 21.2837209302326 61.6 L 20.0744186046512 67.2222222222222 L 15.9627906976744 70.8888888888889 L 15.9627906976744 74.3111111111111 L 17.6558139534884 75.7777777777778 L 13.5441860465116 77 L 7.73953488372092 75.7777777777778 L 1.69302325581395 74.3111111111111 Z" transform="matrix(1 0 0 1 -1018 -2338 ) matrix(1 0 0 1 1018 2338 )"/></g></svg>