<?xml version="1.0" encoding="utf-8"?>
<svg version="1.1" xmlns:xlink="http://www.w3.org/1999/xlink" width="58px" height="55px" xmlns="http://www.w3.org/2000/svg">
  <g transform="matrix(1 0 0 1 -989 -2412 )">
    <path d="M 29.9586776859504 5.52401746724891  L 29.9586776859504 0  L 34.9917355371901 0  L 41.9421487603306 2.88209606986899  L 44.5785123966942 1.44104803493451  L 44.5785123966942 6.72489082969432  L 44.5785123966942 8.88646288209608  L 41.9421487603306 11.2882096069869  L 40.504132231405 15.6113537117904  L 43.3801652892562 15.6113537117904  L 47.2148760330579 18.9737991266375  L 50.8099173553719 18.9737991266375  L 53.4462809917355 20.6550218340611  L 56.801652892562 23.5371179039302  L 58 26.8995633187773  L 53.4462809917355 28.5807860262009  L 50.8099173553719 25.4585152838428  L 47.2148760330579 26.8995633187773  L 48.4132231404959 30.0218340611354  L 45.7768595041322 31.4628820960699  L 45.7768595041322 35.5458515283843  L 44.5785123966942 37.4672489082969  L 43.3801652892562 35.5458515283843  L 41.9421487603306 37.4672489082969  L 43.3801652892562 39.8689956331878  L 44.5785123966942 42.7510917030568  L 49.8512396694215 42.7510917030568  L 50.8099173553719 42.7510917030568  L 52.0082644628099 47.5545851528384  L 52.0082644628099 51.1572052401747  L 50.8099173553719 52.3580786026201  L 47.2148760330579 55  L 45.7768595041322 52.3580786026201  L 43.3801652892562 55  L 39.0661157024794 53.5589519650655  L 36.1900826446281 52.3580786026201  L 34.9917355371901 52.3580786026201  L 32.3553719008265 49.235807860262  L 32.3553719008265 44.9126637554585  L 29.9586776859504 47.5545851528384  L 27.0826446280992 46.1135371179039  L 24.206611570248 46.1135371179039  L 18.2148760330579 46.1135371179039  L 10.7851239669421 42.7510917030568  L 8.62809917355372 41.3100436681223  L 6.47107438016531 37.4672489082969  L 6.47107438016531 33.8646288209607  L 3.59504132231405 30.0218340611354  L 2.39669421487599 28.5807860262009  L 2.39669421487599 26.8995633187773  L 0 23.5371179039302  L 0 20.6550218340611  L 5.51239669421489 20.6550218340611  L 10.7851239669421 17.532751091703  L 13.6611570247934 14.410480349345  L 16.297520661157 14.410480349345  L 16.297520661157 12.4890829694323  L 22.5289256198347 12.4890829694323  L 25.8842975206612 10.3275109170306  L 28.2809917355372 8.88646288209608  L 29.9586776859504 5.52401746724891  Z " fill-rule="nonzero" fill="#33ccff" stroke="none" fill-opacity="0.498039215686275" transform="matrix(1 0 0 1 989 2412 )" />
  </g>
</svg>