<svg xmlns="http://www.w3.org/2000/svg" xmlns:xlink="http://www.w3.org/1999/xlink" width="75" height="47" version="1.1"><g><path fill="#09c" fill-opacity=".498" fill-rule="nonzero" stroke="none" d="M 21.672077922078 1.21134020618558 L 24.5941558441559 0 L 27.0292207792207 3.14948453608247 L 29.2207792207792 5.81443298969072 L 35.0649350649351 10.1752577319588 L 42.1266233766234 10.1752577319588 L 45.7792207792208 8.96391752577318 L 47.7272727272727 10.1752577319588 L 50.1623376623377 8.96391752577318 L 50.1623376623377 14.0515463917526 L 53.3279220779221 16.2319587628866 L 55.0324675324675 14.0515463917526 L 56.25 16.2319587628866 L 59.1720779220779 18.1701030927835 L 61.8506493506493 19.3814432989691 L 64.5292207792208 18.1701030927835 L 66.7207792207793 19.3814432989691 L 68.4253246753247 22.0463917525773 L 71.3474025974026 22.0463917525773 L 72.5649350649351 23.9845360824742 L 71.3474025974026 26.4072164948454 L 71.3474025974026 29.3144329896907 L 72.5649350649351 32.7061855670103 L 75 36.0979381443299 L 72.5649350649351 38.0360824742268 L 69.6428571428572 38.0360824742268 L 64.5292207792208 40.4587628865979 L 59.1720779220779 44.819587628866 L 56.25 44.819587628866 L 53.3279220779221 47 L 51.3798701298701 44.819587628866 L 51.3798701298701 42.6391752577319 L 51.3798701298701 40.4587628865979 L 50.1623376623377 38.0360824742268 L 45.7792207792208 42.6391752577319 L 44.0746753246754 40.4587628865979 L 39.448051948052 40.4587628865979 L 37.2564935064935 42.6391752577319 L 33.8474025974025 38.0360824742268 L 30.4383116883117 38.0360824742268 L 24.5941558441559 36.0979381443299 L 19.7240259740259 38.0360824742268 L 19.7240259740259 40.4587628865979 L 18.0194805194805 40.4587628865979 L 15.5844155844156 40.4587628865979 L 10.7142857142857 42.6391752577319 L 7.79220779220776 47 L 5.11363636363637 44.819587628866 L 3.65259740259739 42.6391752577319 L 0 38.0360824742268 L 0 34.159793814433 L 0 31.2525773195877 L 3.65259740259739 31.2525773195877 L 6.5746753246753 31.2525773195877 L 9.00974025974028 31.2525773195877 L 13.8798701298701 26.4072164948454 L 15.5844155844156 27.6185567010309 L 17.0454545454545 22.0463917525773 L 13.8798701298701 20.5927835051546 L 10.7142857142857 18.1701030927835 L 10.7142857142857 14.0515463917526 L 10.7142857142857 10.1752577319588 L 9.00974025974028 10.1752577319588 L 11.9318181818182 7.26804123711344 L 15.5844155844156 7.26804123711344 L 15.5844155844156 3.14948453608247 L 13.8798701298701 4.36082474226805 L 10.7142857142857 1.21134020618558 L 11.9318181818182 0 L 17.0454545454545 0 L 19.7240259740259 0 L 21.672077922078 1.21134020618558 Z" transform="matrix(1 0 0 1 -971 -2448 ) matrix(1 0 0 1 971 2448 )"/></g></svg>