<svg xmlns="http://www.w3.org/2000/svg" xmlns:xlink="http://www.w3.org/1999/xlink" width="55" height="60" version="1.1"><g><path fill="#c99" fill-opacity=".498" fill-rule="nonzero" stroke="none" d="M 4.88888888888886 12.7710843373494 L 3.66666666666669 10.6024096385542 L 6.11111111111114 7.46987951807228 L 6.11111111111114 4.81927710843371 L 12.2222222222222 2.40963855421683 L 14.6666666666667 4.81927710843371 L 16.6222222222223 2.40963855421683 L 16.6222222222223 0 L 20.5333333333334 0 L 26.8888888888889 1.20481927710847 L 29.0888888888889 1.20481927710847 L 33.4888888888889 4.81927710843371 L 37.4 2.40963855421683 L 40.5777777777778 3.85542168674698 L 40.5777777777778 4.81927710843371 L 45.9555555555556 2.40963855421683 L 48.1555555555556 3.85542168674698 L 48.1555555555556 7.46987951807228 L 49.6222222222222 9.15662650602411 L 53.0444444444444 15.1807228915663 L 53.0444444444444 17.8313253012048 L 49.6222222222222 22.4096385542169 L 48.1555555555556 27.9518072289156 L 49.6222222222222 27.9518072289156 L 51.0888888888889 30.6024096385542 L 49.6222222222222 34.2168674698795 L 51.0888888888889 37.3493975903615 L 53.0444444444444 38.7951807228916 L 53.0444444444444 42.4096385542168 L 55 43.6144578313253 L 51.0888888888889 47.9518072289156 L 53.0444444444444 51.566265060241 L 48.1555555555556 53.0120481927711 L 45.9555555555556 49.8795180722892 L 42.2888888888889 53.0120481927711 L 42.2888888888889 57.1084337349398 L 40.5777777777778 58.3132530120482 L 38.8666666666667 55.1807228915662 L 33.4888888888889 55.1807228915662 L 33.4888888888889 57.1084337349398 L 32.0222222222222 60 L 29.0888888888889 60 L 26.8888888888889 60 L 26.8888888888889 58.3132530120482 L 25.6666666666666 55.1807228915662 L 23.9555555555556 55.1807228915662 L 23.9555555555556 57.1084337349398 L 21.7555555555555 57.1084337349398 L 21.7555555555555 55.1807228915662 L 23.9555555555556 53.0120481927711 L 23.9555555555556 51.566265060241 L 26.8888888888889 47.9518072289156 L 23.9555555555556 46.7469879518072 L 25.6666666666666 42.4096385542168 L 21.7555555555555 40.722891566265 L 20.5333333333334 43.6144578313253 L 16.6222222222223 42.4096385542168 L 14.6666666666667 45.3012048192771 L 12.2222222222222 45.3012048192771 L 12.2222222222222 43.6144578313253 L 9.77777777777777 45.3012048192771 L 9.77777777777777 47.9518072289156 L 7.82222222222219 46.7469879518072 L 6.11111111111114 45.3012048192771 L 4.88888888888886 43.6144578313253 L 4.88888888888886 40.722891566265 L 4.88888888888886 38.7951807228916 L 7.82222222222219 35.9036144578313 L 6.11111111111114 33.0120481927711 L 1.95555555555558 34.2168674698795 L 0 34.2168674698795 L 1.95555555555558 30.6024096385542 L 6.11111111111114 27.9518072289156 L 3.66666666666669 24.8192771084337 L 4.88888888888886 22.4096385542169 L 4.88888888888886 20.722891566265 L 3.66666666666669 17.8313253012048 L 3.66666666666669 16.3855421686747 L 3.66666666666669 15.1807228915663 L 4.88888888888886 12.7710843373494 Z" transform="matrix(1 0 0 1 -975 -2485 ) matrix(1 0 0 1 975 2485 )"/></g></svg>