<?xml version="1.0" encoding="utf-8"?>
<svg version="1.1" xmlns:xlink="http://www.w3.org/1999/xlink" width="139px" height="122px" xmlns="http://www.w3.org/2000/svg">
  <g transform="matrix(1 0 0 1 -835 -2331 )">
    <path d="M 6.74133949191685 37.6858638743456  L 0 37.6858638743456  L 0 34.4921465968586  L 2.8891454965358 31.6178010471204  L 5.45727482678984 25.2303664921466  L 8.98845265588915 21.0785340314136  L 15.729792147806 19.4816753926702  L 21.1870669745958 14.6910994764398  L 26.9653579676674 10.5392670157068  L 32.4226327944573 10.5392670157068  L 36.9168591224018 6.06806282722513  L 35.6327944572748 4.13020833333331  L 40.7690531177829 0  L 46.8683602771363 1.59685863874347  L 48.473441108545 7.34554973821992  L 50.7205542725173 14.6910994764398  L 48.473441108545 19.4816753926702  L 53.6096997690531 23.9528795811518  L 53.6096997690531 27.4659685863875  L 56.1778290993071 25.2303664921466  L 60.9930715935335 25.2303664921466  L 66.7713625866051 23.9528795811518  L 69.6605080831409 27.4659685863875  L 68.3764434180139 30.6596858638744  L 63.9080459770115 35.5833333333333  L 66.7713625866051 38.9633507853403  L 69.6605080831409 42.7958115183246  L 72.8706697459584 42.7958115183246  L 72.8706697459584 47.9057591623037  L 74.4757505773672 49.5026178010472  L 78.3279445727482 52.3769633507854  L 82.5011547344111 49.5026178010472  L 81.217090069284 47.9057591623037  L 87.6374133949192 46.3089005235602  L 91.1685912240184 47.9057591623037  L 94.0577367205542 46.3089005235602  L 99.5150115473441 44.7120418848168  L 101.120092378753 49.5026178010472  L 99.5150115473441 52.3769633507854  L 94.0577367205542 55.9166666666667  L 94.0577367205542 58.1256544502618  L 92.7736720554272 61  L 97.5889145496536 65.4712041884817  L 102.40415704388 68.3455497382199  L 105.293302540416 70.9005235602094  L 107.86143187067 73.455497382199  L 109.145496535797 77.607329842932  L 111.392609699769 83.9947643979058  L 109.145496535797 86.2303664921466  L 111.392609699769 89.4240837696335  L 117.812933025404 93.2565445026178  L 120.70207852194 89.4240837696335  L 123.912240184757 82.717277486911  L 119.096997690531 78.8848167539267  L 121.986143187067 73.455497382199  L 127.122401847575 73.455497382199  L 131.937644341801 77.607329842932  L 137.715935334873 80.4816753926702  L 139 86.2303664921466  L 139 93.2565445026178  L 130.653579676674 93.2565445026178  L 131.937644341801 97.4083769633508  L 127.122401847575 97.4083769633508  L 123.912240184757 95.4921465968587  L 119.096997690531 95.4921465968587  L 120.70207852194 99.0052356020943  L 119.096997690531 101.240837696335  L 121.986143187067 104.115183246073  L 119.096997690531 108.905759162304  L 120.70207852194 113.057591623037  L 117.812933025404 113.057591623037  L 113.960739030023 113.057591623037  L 111.392609699769 115.293193717277  L 113.960739030023 116.570680628272  L 111.392609699769 120.083769633508  L 107.86143187067 122  L 101.120092378753 120.083769633508  L 97.5889145496536 120.083769633508  L 99.5150115473441 116.570680628272  L 97.5889145496536 111.141361256545  L 91.1685912240184 108.905759162304  L 87.6374133949192 102.837696335079  L 82.5011547344111 105.392670157068  L 81.217090069284 105.392670157068  L 82.5011547344111 111.141361256545  L 79.6120092378753 113.057591623037  L 74.4757505773672 113.057591623037  L 75.7598152424942 108.905759162304  L 70.9445727482679 108.905759162304  L 66.7713625866051 102.837696335079  L 68.3764434180139 99.0052356020943  L 74.4757505773672 102.837696335079  L 75.7598152424942 104.115183246073  L 81.217090069284 101.240837696335  L 79.6120092378753 97.4083769633508  L 81.217090069284 93.2565445026178  L 82.5011547344111 91.6596858638744  L 82.5011547344111 89.4240837696335  L 86.3533487297921 88.4659685863875  L 87.6374133949192 85.2722513089005  L 87.6374133949192 80.4816753926702  L 86.3533487297921 78.8848167539267  L 86.3533487297921 75.6910994764398  L 85.0692840646651 72.1780104712042  L 82.5011547344111 65.4712041884817  L 78.3279445727482 62.5968586387435  L 72.8706697459584 59.7225130890052  L 68.3764434180139 54.9319371727749  L 62.9494252873563 53.375  L 59.3879907621247 49.5026178010472  L 56.1778290993071 44.7120418848168  L 50.7205542725173 46.3089005235602  L 48.473441108545 47.9057591623037  L 44.6212471131639 42.7958115183246  L 40.7690531177829 42.7958115183246  L 38.8429561200924 44.7120418848168  L 38.8429561200924 47.9057591623037  L 36.9168591224018 49.5026178010472  L 35.6327944572748 52.3769633507854  L 30.6758620689655 52.3769633507854  L 25.5632183908046 49.5026178010472  L 19.2609699769053 49.5026178010472  L 17.013856812933 44.7120418848168  L 11.2355658198614 42.7958115183246  L 6.74133949191685 40.8795811518325  L 6.74133949191685 37.6858638743456  Z " fill-rule="nonzero" fill="#00cccc" stroke="none" fill-opacity="0.498039215686275" transform="matrix(1 0 0 1 835 2331 )" />
  </g>
</svg>