<svg xmlns="http://www.w3.org/2000/svg" xmlns:xlink="http://www.w3.org/1999/xlink" width="41" height="54" version="1.1"><g><path fill="#c6c" fill-opacity=".498" fill-rule="nonzero" stroke="none" d="M 1.19883040935673 41.5945945945946 L 0 39.6486486486486 L 0 37.4594594594594 L 1.19883040935673 34.5405405405405 L 1.19883040935673 32.3513513513514 L 1.19883040935673 30.1621621621622 L 4.79532163742692 27.4864864864865 L 4.79532163742692 25.2972972972973 L 6.47368421052636 22.6216216216216 L 4.79532163742692 17.027027027027 L 8.63157894736838 15.8108108108108 L 9.67056530214421 14.8378378378379 L 9.67056530214421 10.9459459459459 L 8.63157894736838 8.51351351351349 L 12.7076023391813 5.59459459459458 L 16.0643274853801 5.59459459459458 L 18.7017543859649 3.40540540540542 L 21.3391812865497 3.40540540540542 L 21.3391812865497 0 L 25.8947368421053 0 L 25.8947368421053 3.40540540540542 L 27.5730994152047 8.51351351351349 L 31.1695906432748 9.72972972972974 L 33.327485380117 8.51351351351349 L 33.327485380117 5.59459459459458 L 36.6842105263158 8.51351351351349 L 41 8.51351351351349 L 41 10.9459459459459 L 41 14.8378378378379 L 39.0818713450292 18.2432432432433 L 36.6842105263158 22.6216216216216 L 36.6842105263158 27.4864864864865 L 39.0818713450292 30.1621621621622 L 36.6842105263158 32.3513513513514 L 34.766081871345 34.5405405405405 L 31.1695906432748 37.4594594594594 L 28.8518518518518 43.054054054054 L 23.7368421052631 41.5945945945946 L 23.7368421052631 44.7567567567567 L 21.3391812865497 46.9459459459459 L 18.7017543859649 49.8648648648648 L 16.0643274853801 52.5405405405405 L 12.7076023391813 54 L 10.7894736842105 49.8648648648648 L 10.7894736842105 46.9459459459459 L 8.63157894736838 43.054054054054 L 6.47368421052636 43.054054054054 L 4.79532163742692 41.5945945945946 L 1.19883040935673 41.5945945945946 Z" transform="matrix(1 0 0 1 -1046 -2501 ) matrix(1 0 0 1 1046 2501 )"/></g></svg>