<svg xmlns="http://www.w3.org/2000/svg" xmlns:xlink="http://www.w3.org/1999/xlink" width="185" height="121" version="1.1"><g><path fill="#99c" fill-opacity=".498" fill-rule="nonzero" stroke="none" d="M 4.80519480519481 12.484126984127 L 11.0519480519481 6.24206349206349 L 19.7012987012987 6.24206349206349 L 23.5454545454545 1.92063492063491 L 28.8311688311688 0 L 34.1168831168831 1.92063492063491 L 39.8831168831169 3.36111111111111 L 47.0909090909091 1.92063492063491 L 51.8961038961039 5.28174603174602 L 57.1818181818182 7.68253968253967 L 64.8701298701299 6.24206349206349 L 71.5974025974026 7.68253968253967 L 77.3636363636364 6.24206349206349 L 82.6493506493507 3.36111111111111 L 89.8571428571429 3.36111111111111 L 96.5844155844156 6.24206349206349 L 102.831168831169 7.68253968253967 L 107.636363636364 12.484126984127 L 107.636363636364 15.3650793650794 L 107.636363636364 20.1666666666667 L 104.753246753247 25.9285714285714 L 106.194805194805 31.2103174603175 L 104.753246753247 36.0119047619048 L 107.636363636364 42.2539682539683 L 113.883116883117 46.0952380952381 L 119.168831168831 50.4166666666667 L 124.935064935065 53.7777777777778 L 131.662337662338 56.1785714285714 L 137.428571428571 59.0595238095238 L 144.155844155844 59.0595238095238 L 149.922077922078 62.4206349206349 L 153.285714285714 66.2619047619048 L 154.727272727273 70.1031746031746 L 159.532467532468 72.0238095238095 L 163.857142857143 72.0238095238095 L 166.25974025974 70.1031746031746 L 171.545454545455 66.2619047619048 L 174.909090909091 64.3412698412698 L 179.714285714286 70.1031746031746 L 182.116883116883 73.4642857142857 L 185 78.265873015873 L 182.116883116883 79.7063492063492 L 183.558441558442 85.468253968254 L 182.116883116883 90.75 L 183.558441558442 96.031746031746 L 183.558441558442 102.27380952381 L 182.116883116883 106.595238095238 L 179.714285714286 109.47619047619 L 176.831168831169 115.718253968254 L 174.909090909091 111.876984126984 L 173.467532467532 113.797619047619 L 168.181818181818 109.47619047619 L 162.415584415584 117.15873015873 L 154.727272727273 111.876984126984 L 145.597402597403 111.876984126984 L 138.87012987013 113.797619047619 L 129.74025974026 119.559523809524 L 120.61038961039 121 L 112.441558441558 119.559523809524 L 110.519480519481 111.876984126984 L 107.636363636364 105.154761904762 L 102.831168831169 106.595238095238 L 93.7012987012987 99.8730158730159 L 86.012987012987 102.27380952381 L 82.6493506493507 109.47619047619 L 80.2467532467533 106.595238095238 L 82.6493506493507 99.8730158730159 L 77.3636363636364 99 L 67.2727272727273 99 L 60.5454545454546 95.0714285714286 L 55.2597402597403 96.031746031746 L 50.4545454545455 88.8293650793651 L 47.0909090909091 85.468253968254 L 41.3246753246753 78.265873015873 L 35.5584415584416 73.4642857142857 L 30.2727272727273 67.702380952381 L 26.4285714285714 60.9801587301587 L 20.6623376623377 56.1785714285714 L 15.8571428571429 59.0595238095238 L 11.0519480519481 52.3373015873016 L 7.20779220779221 46.0952380952381 L 0 42.2539682539683 L 0 34.5714285714286 L 0 25.9285714285714 L 4.80519480519481 28.8095238095238 L 9.12987012987013 20.1666666666667 L 4.80519480519481 12.484126984127 Z" transform="matrix(1 0 0 1 -697 -2385 ) matrix(1 0 0 1 697 2385 )"/></g></svg>