<svg xmlns="http://www.w3.org/2000/svg" xmlns:xlink="http://www.w3.org/1999/xlink" width="58" height="52" version="1.1"><g><path fill="#0c6" fill-opacity=".498" fill-rule="nonzero" stroke="none" d="M 1.26775956284149 26 L 0 22.7901234567901 L 3.16939890710381 18.9382716049382 L 4.4371584699453 20.8641975308641 L 6.9726775956284 18.9382716049382 L 9.19125683060105 20.8641975308641 L 12.6775956284153 20.8641975308641 L 15.2131147540983 18.9382716049382 L 15.2131147540983 15.7283950617283 L 18.6994535519125 15.7283950617283 L 25.9890710382513 15.7283950617283 L 25.9890710382513 14.4444444444445 L 24.7213114754098 11.5555555555555 L 22.8196721311475 11.5555555555555 L 19.9672131147541 9.3086419753086 L 19.9672131147541 8.02469135802465 L 22.8196721311475 6.09876543209873 L 27.2568306010929 8.02469135802465 L 28.8415300546448 6.09876543209873 L 30.7431693989071 9.3086419753086 L 32.327868852459 6.09876543209873 L 34.2295081967213 3.20987654320987 L 36.1311475409836 5.1358024691358 L 36.1311475409836 3.20987654320987 L 38.0327868852459 0 L 41.2021857923497 1.60493827160491 L 41.2021857923497 3.20987654320987 L 45.6393442622951 1.60493827160491 L 46.9071038251366 5.1358024691358 L 45.6393442622951 6.09876543209873 L 48.1748633879781 8.02469135802465 L 49.7595628415301 11.5555555555555 L 52.2950819672131 11.5555555555555 L 54.5136612021857 9.3086419753086 L 55.7814207650273 12.8395061728395 L 55.7814207650273 15.7283950617283 L 55.7814207650273 18.9382716049382 L 54.5136612021857 20.8641975308641 L 51.0273224043715 26 L 52.2950819672131 26 L 55.7814207650273 24.716049382716 L 58 26 L 58 28.5679012345678 L 55.7814207650273 28.5679012345678 L 55.7814207650273 31.7777777777778 L 55.7814207650273 33.7037037037037 L 58 37.2345679012345 L 55.7814207650273 40.1234567901234 L 52.2950819672131 40.1234567901234 L 52.2950819672131 43.0123456790123 L 49.7595628415301 40.1234567901234 L 48.1748633879781 44.2962962962963 L 46.9071038251366 43.0123456790123 L 43.4207650273224 45.9012345679012 L 41.2021857923497 47.1851851851852 L 39.3005464480874 45.9012345679012 L 38.0327868852459 45.9012345679012 L 36.1311475409836 44.2962962962963 L 36.1311475409836 41.4074074074074 L 32.327868852459 43.0123456790123 L 32.327868852459 44.2962962962963 L 27.2568306010929 47.1851851851852 L 22.8196721311475 50.716049382716 L 19.9672131147541 49.4320987654321 L 12.6775956284153 47.1851851851852 L 9.19125683060105 52 L 6.9726775956284 50.716049382716 L 9.19125683060105 45.9012345679012 L 9.19125683060105 44.2962962962963 L 6.9726775956284 41.4074074074074 L 6.9726775956284 38.8395061728395 L 6.9726775956284 35.3086419753086 L 9.19125683060105 31.7777777777778 L 6.9726775956284 28.5679012345678 L 5.70491803278691 28.5679012345678 L 3.16939890710381 28.5679012345678 L 0 28.5679012345678 L 1.26775956284149 26 Z" transform="matrix(1 0 0 1 -923 -2493 ) matrix(1 0 0 1 923 2493 )"/></g></svg>