<svg xmlns="http://www.w3.org/2000/svg" xmlns:xlink="http://www.w3.org/1999/xlink" width="56" height="56" version="1.1"><g><path fill="#f6c" fill-opacity=".498" fill-rule="nonzero" stroke="none" d="M 35.0804597701149 5.37853107344631 L 35.0804597701149 0.949152542372872 L 37.6551724137931 0 L 41.5172413793103 2.53107344632767 L 42.8045977011495 6.64406779661016 L 46.0229885057471 2.53107344632767 L 46.0229885057471 6.64406779661016 L 50.528735632184 12.3389830508474 L 52.7816091954023 12.3389830508474 L 50.528735632184 16.135593220339 L 52.7816091954023 18.6666666666667 L 56 22.7796610169491 L 56 26.5762711864407 L 52.7816091954023 30.6892655367232 L 47.3103448275862 36.7005649717514 L 47.3103448275862 38.5988700564972 L 42.8045977011495 39.864406779661 L 35.0804597701149 43.9774011299435 L 28.9655172413793 48.7231638418079 L 27.6781609195402 51.8870056497175 L 24.7816091954023 51.8870056497175 L 24.7816091954023 53.7853107344633 L 20.9195402298851 56 L 20.9195402298851 53.7853107344633 L 22.528735632184 51.8870056497175 L 24.7816091954023 50.3050847457627 L 26.7126436781609 47.4576271186441 L 22.528735632184 48.7231638418079 L 20.9195402298851 45.8757062146892 L 22.528735632184 45.8757062146892 L 22.528735632184 42.7118644067797 L 26.7126436781609 39.864406779661 L 27.6781609195402 36.7005649717514 L 28.9655172413793 33.8531073446327 L 24.7816091954023 30.6892655367232 L 24.7816091954023 29.4237288135593 L 20.9195402298851 30.6892655367232 L 18.3448275862069 30.6892655367232 L 16.4137931034483 33.8531073446327 L 14.4827586206896 38.5988700564972 L 7.72413793103448 43.9774011299435 L 5.14942528735634 36.7005649717514 L 0 33.8531073446327 L 1.60919540229889 29.4237288135593 L 3.21839080459773 26.5762711864407 L 1.60919540229889 24.3615819209039 L 3.21839080459773 20.5649717514124 L 1.60919540229889 17.4011299435028 L 3.21839080459773 16.135593220339 L 6.43678160919541 18.6666666666667 L 7.72413793103448 22.7796610169491 L 11.2643678160919 18.6666666666667 L 16.4137931034483 16.135593220339 L 18.3448275862069 13.9209039548022 L 20.9195402298851 13.9209039548022 L 22.528735632184 10.7570621468926 L 26.7126436781609 10.7570621468926 L 26.7126436781609 8.22598870056495 L 28.9655172413793 8.22598870056495 L 33.1494252873563 8.22598870056495 L 33.1494252873563 5.37853107344631 L 35.0804597701149 5.37853107344631 Z" transform="matrix(1 0 0 1 -1059 -2323 ) matrix(1 0 0 1 1059 2323 )"/></g></svg>