<svg xmlns="http://www.w3.org/2000/svg" xmlns:xlink="http://www.w3.org/1999/xlink" width="46" height="47" version="1.1"><g><path fill="red" fill-opacity=".498" fill-rule="nonzero" stroke="none" d="M 0 30.0277777777778 L 3.83333333333331 25.7847222222223 L 1.91666666666669 23.1736111111111 L 5.43055555555554 20.8888888888889 L 8.9444444444444 23.1736111111111 L 11.1805555555555 23.1736111111111 L 12.4583333333333 24.4791666666667 L 16.6111111111111 25.7847222222223 L 19.1666666666667 20.8888888888889 L 21.4027777777778 17.9513888888889 L 24.2777777777778 16.3194444444445 L 27.1527777777778 9.79166666666665 L 28.75 8.15972222222228 L 28.75 4.24305555555558 L 28.75 2.28472222222228 L 30.6666666666667 0 L 34.5 4.24305555555558 L 36.4166666666667 6.20138888888893 L 39.9305555555555 6.20138888888893 L 41.2083333333333 8.15972222222228 L 44.7222222222222 9.79166666666665 L 46 16.3194444444445 L 44.7222222222222 16.3194444444445 L 41.2083333333333 17.9513888888889 L 38.0138888888889 20.8888888888889 L 36.4166666666667 20.8888888888889 L 33.2222222222222 20.8888888888889 L 30.6666666666667 20.8888888888889 L 28.75 20.8888888888889 L 30.6666666666667 23.1736111111111 L 28.75 25.7847222222223 L 33.2222222222222 31.9861111111112 L 36.4166666666667 36.5555555555556 L 38.0138888888889 42.1041666666667 L 38.0138888888889 44.7152777777778 L 34.5 47 L 32.2638888888889 47 L 30.6666666666667 44.7152777777778 L 28.75 42.1041666666667 L 28.75 38.1875 L 24.2777777777778 38.1875 L 19.1666666666667 35.25 L 19.1666666666667 38.1875 L 19.1666666666667 40.1458333333333 L 16.6111111111111 38.1875 L 14.6944444444444 40.1458333333333 L 12.4583333333333 44.7152777777778 L 8.9444444444444 42.1041666666667 L 7.66666666666669 40.1458333333333 L 5.43055555555554 38.1875 L 1.91666666666669 34.2708333333333 L 0 30.0277777777778 Z" transform="matrix(1 0 0 1 -941 -2458 ) matrix(1 0 0 1 941 2458 )"/></g></svg>