<svg xmlns="http://www.w3.org/2000/svg" xmlns:xlink="http://www.w3.org/1999/xlink" width="53" height="90" version="1.1"><g><path fill="#6c9" fill-opacity=".498" fill-rule="nonzero" stroke="none" d="M 50.3133640552996 0 L 51.778801843318 0 L 53 2.15425531914894 L 51.778801843318 2.15425531914894 L 53 3.82978723404256 L 50.3133640552996 9.81382978723406 L 50.3133640552996 12.9255319148936 L 47.1382488479263 14.6010638297872 L 47.1382488479263 18.1914893617021 L 50.3133640552996 22.9787234042553 L 47.1382488479263 25.1329787234042 L 47.1382488479263 26.8085106382979 L 45.184331797235 29.9202127659574 L 47.1382488479263 35.4255319148936 L 47.1382488479263 39.9734042553192 L 48.6036866359447 46.1968085106383 L 45.184331797235 50.9840425531915 L 45.184331797235 56.7287234042553 L 47.1382488479263 60.7978723404255 L 48.6036866359447 64.3882978723404 L 50.3133640552996 67.9787234042553 L 51.778801843318 70.1329787234043 L 51.778801843318 72.5265957446808 L 48.6036866359447 74.4414893617021 L 47.1382488479263 72.5265957446808 L 45.184331797235 72.5265957446808 L 39.0783410138249 72.5265957446808 L 37.1244239631337 72.5265957446808 L 39.0783410138249 74.4414893617021 L 40.7880184331798 76.5957446808511 L 42.4976958525346 76.5957446808511 L 43.7188940092166 79.468085106383 L 40.7880184331798 79.468085106383 L 39.0783410138249 79.468085106383 L 37.1244239631337 83.2978723404256 L 39.0783410138249 85.9308510638298 L 39.0783410138249 90 L 35.1705069124424 90 L 33.4608294930876 87.6063829787234 L 27.110599078341 83.2978723404256 L 21.7373271889401 84.4946808510638 L 19.5391705069124 81.8617021276596 L 16.3640552995392 79.468085106383 L 15.3870967741936 81.8617021276596 L 12.7004608294931 78.031914893617 L 11.2350230414746 78.031914893617 L 8.79262672811062 79.468085106383 L 4.88479262672811 76.5957446808511 L 2.19815668202767 78.031914893617 L 0 74.4414893617021 L 2.19815668202767 74.4414893617021 L 3.6635944700461 72.5265957446808 L 2.19815668202767 70.1329787234043 L 3.6635944700461 67.9787234042553 L 6.10599078341012 67.9787234042553 L 8.79262672811062 67.9787234042553 L 11.2350230414746 67.9787234042553 L 10.0138248847926 64.3882978723404 L 10.0138248847926 62.2340425531915 L 11.2350230414746 60.7978723404255 L 11.2350230414746 56.7287234042553 L 8.79262672811062 56.7287234042553 L 11.2350230414746 52.6595744680851 L 10.0138248847926 50.9840425531915 L 14.1658986175116 50.9840425531915 L 15.3870967741936 52.6595744680851 L 21.7373271889401 52.6595744680851 L 19.5391705069124 49.0691489361702 L 27.110599078341 49.0691489361702 L 29.0645161290323 49.0691489361702 L 29.0645161290323 43.3244680851064 L 30.5299539170507 39.9734042553192 L 30.5299539170507 35.4255319148936 L 27.110599078341 35.4255319148936 L 24.1797235023042 33.9893617021277 L 21.7373271889401 31.5957446808511 L 17.5852534562212 28.7234042553191 L 17.5852534562212 25.1329787234042 L 19.5391705069124 20.5851063829787 L 21.7373271889401 20.5851063829787 L 24.1797235023042 22.9787234042553 L 30.5299539170507 21.781914893617 L 30.5299539170507 18.1914893617021 L 33.4608294930876 18.1914893617021 L 33.4608294930876 14.6010638297872 L 37.1244239631337 9.81382978723406 L 39.0783410138249 7.65957446808511 L 42.4976958525346 3.82978723404256 L 42.4976958525346 2.15425531914894 L 47.1382488479263 2.15425531914894 L 50.3133640552996 0 Z" transform="matrix(1 0 0 1 -944 -2376 ) matrix(1 0 0 1 944 2376 )"/></g></svg>