<svg xmlns="http://www.w3.org/2000/svg" xmlns:xlink="http://www.w3.org/1999/xlink" width="122" height="88" version="1.1"><g><path fill="#990" fill-opacity=".498" fill-rule="nonzero" stroke="none" d="M 40.2408376963351 0 L 33.8534031413612 0 L 25.5497382198953 0 L 18.2041884816754 1.28 L 13.7329842931937 2.56 L 13.7329842931937 4.47999999999999 L 15.9685863874345 4.47999999999999 L 15.9685863874345 8.96000000000001 L 18.2041884816754 15.04 L 20.1204188481676 20.48 L 15.9685863874345 24 L 15.9685863874345 30.4 L 9.90052356020939 27.84 L 4.47120418848166 27.84 L 4.47120418848166 30.4 L 2.55497382198953 36.16 L 1.27748691099475 41.6 L 2.55497382198953 46.72 L 0 51.84 L 4.47120418848166 59.6231884057971 L 9.90052356020939 62.08 L 15.0104712041885 66.56 L 21.3979057591623 70.4 L 27.4659685863874 72 L 33.8534031413612 75.1999999999999 L 40.2408376963351 75.1999999999999 L 45.6701570680628 78.4 L 48.2251308900524 82.24 L 50.7801047120419 86.4 L 54.9319371727749 88 L 58.7643979057592 88 L 62.2774869109948 84.8 L 66.7486910994764 82.24 L 66.7486910994764 78.4 L 71.2198952879581 80 L 66.7486910994764 75.1999999999999 L 71.2198952879581 70.4 L 69.6230366492147 64 L 74.7329842931937 62.08 L 78.8848167539267 66.56 L 81.7591623036649 72 L 86.5497382198953 78.4 L 91.3403141361256 76.8 L 95.8115183246073 80 L 101.879581151832 82.24 L 103.157068062827 75.1999999999999 L 108.267015706806 75.1999999999999 L 108.267015706806 72 L 104.434554973822 70.4 L 100.282722513089 65.6 L 101.879581151832 62.08 L 109.86387434555 65.6 L 113.696335078534 64 L 113.696335078534 56 L 116.570680628272 50.56 L 122 46.72 L 120.083769633508 39.68 L 118.486910994764 34.24 L 116.570680628272 27.84 L 111.780104712042 24 L 104.434554973822 20.48 L 100.282722513089 16.64 L 92.9371727748691 12.16 L 88.4659685863874 6.72 L 81.7591623036649 8.96000000000001 L 78.8848167539267 4.47999999999999 L 72.4973821989529 4.47999999999999 L 71.2198952879581 10.56 L 65.7905759162304 15.04 L 60.6806282722513 12.16 L 53.0157068062827 10.56 L 49.5026178010471 5.76000000000002 L 44.3926701570681 4.47999999999999 L 40.2408376963351 0 Z" transform="matrix(1 0 0 1 -801 -2369 ) matrix(1 0 0 1 801 2369 )"/></g></svg>