<svg xmlns="http://www.w3.org/2000/svg" xmlns:xlink="http://www.w3.org/1999/xlink" width="108" height="103" version="1.1"><g><path fill="#69f" fill-opacity=".498" fill-rule="nonzero" stroke="none" d="M 5.4159292035398 6.69659442724458 L 2.54867256637164 4.14551083591331 L 10.8318584070796 2.23219814241486 L 17.5221238938053 0 L 19.1150442477876 2.23219814241486 L 26.1238938053097 4.14551083591331 L 28.6725663716814 2.23219814241486 L 33.1327433628318 4.14551083591331 L 36.6371681415929 10.5232198142415 L 39.8230088495575 15.3065015479876 L 41.0973451327434 19.7708978328173 L 45.8761061946902 27.4241486068111 L 48.7433628318584 32.2074303405573 L 50.0176991150443 36.0340557275542 L 53.2035398230088 38.266253869969 L 57.9823008849557 36.0340557275542 L 61.8053097345132 38.266253869969 L 64.3539823008849 38.266253869969 L 68.8141592920354 41.4551083591331 L 74.2300884955752 41.4551083591331 L 74.2300884955752 44.3250773993808 L 76.7787610619469 47.8328173374613 L 76.7787610619469 51.9783281733746 L 79.646017699115 54.2105263157895 L 85.6991150442477 51.9783281733746 L 90.7964601769912 51.9783281733746 L 92.3893805309734 47.8328173374613 L 97.4867256637168 44.3250773993808 L 100.991150442478 41.4551083591331 L 106.725663716814 40.1795665634675 L 105.132743362832 46.2383900928793 L 108 47.8328173374613 L 105.132743362832 51.9783281733746 L 103.539823008849 55.4860681114551 L 105.132743362832 59.312693498452 L 105.132743362832 65.0526315789474 L 103.539823008849 71.749226006192 L 100.991150442478 75.8947368421053 L 100.991150442478 79.4024767801858 L 93.9823008849557 79.4024767801858 L 88.5663716814159 83.8668730650155 L 85.6991150442477 83.8668730650155 L 86.9734513274336 87.0557275541796 L 90.7964601769912 92.1578947368421 L 92.3893805309734 101.405572755418 L 86.9734513274336 101.405572755418 L 83.787610619469 96.6222910216718 L 81.5575221238938 97.8978328173375 L 79.646017699115 96.6222910216718 L 76.7787610619469 97.8978328173375 L 75.5044247787611 101.405572755418 L 72.9557522123894 103 L 68.8141592920354 97.8978328173375 L 67.5398230088495 93.7523219814242 L 65.9469026548672 93.7523219814242 L 64.3539823008849 97.8978328173375 L 61.8053097345132 97.8978328173375 L 59.575221238938 93.7523219814242 L 57.9823008849557 93.7523219814242 L 55.4336283185841 92.1578947368421 L 55.4336283185841 88.969040247678 L 50.0176991150443 88.969040247678 L 46.8318584070797 88.969040247678 L 44.283185840708 87.0557275541796 L 41.0973451327434 87.0557275541796 L 38.5486725663717 87.0557275541796 L 36.6371681415929 87.0557275541796 L 35.3628318584071 88.969040247678 L 31.5398230088496 85.4613003095975 L 29.9469026548672 79.4024767801858 L 24.5309734513274 80.6780185758514 L 21.9823008849557 77.4891640866873 L 26.1238938053097 75.8947368421053 L 24.5309734513274 71.749226006192 L 21.9823008849557 74.938080495356 L 19.1150442477876 71.749226006192 L 17.5221238938053 68.2414860681115 L 19.1150442477876 65.0526315789474 L 24.5309734513274 59.312693498452 L 28.6725663716814 54.2105263157895 L 29.9469026548672 58.0371517027864 L 31.5398230088496 56.7616099071208 L 29.9469026548672 51.9783281733746 L 31.5398230088496 47.8328173374613 L 33.1327433628318 46.2383900928793 L 35.3628318584071 44.3250773993808 L 33.1327433628318 41.4551083591331 L 33.1327433628318 38.266253869969 L 35.3628318584071 34.1207430340557 L 35.3628318584071 32.2074303405573 L 36.6371681415929 29.9752321981424 L 36.6371681415929 27.4241486068111 L 36.6371681415929 24.8730650154799 L 33.1327433628318 22.3219814241486 L 29.9469026548672 19.7708978328173 L 26.1238938053097 22.3219814241486 L 23.2566371681416 23.5975232198142 L 19.1150442477876 23.5975232198142 L 17.5221238938053 24.8730650154799 L 13.6991150442478 24.8730650154799 L 12.1061946902655 19.7708978328173 L 12.1061946902655 17.8575851393189 L 12.1061946902655 15.3065015479876 L 7.64601769911502 13.3931888544892 L 5.4159292035398 15.3065015479876 L 2.54867256637164 13.3931888544892 L 0 12.1176470588235 L 2.54867256637164 10.5232198142415 L 5.4159292035398 6.69659442724458 Z" transform="matrix(1 0 0 1 -1065 -2212 ) matrix(1 0 0 1 1065 2212 )"/></g></svg>