<?xml version="1.0" encoding="utf-8"?>
<svg version="1.1" xmlns:xlink="http://www.w3.org/1999/xlink" width="35px" height="35px" xmlns="http://www.w3.org/2000/svg">
  <g transform="matrix(1 0 0 1 -78 -49 )">
    <path d="M 2.95058139534884 5.51495016611296  C 2.95058139534884 3.90838870431894  2.95058139534884 2.30423588039867  2.95058139534884 0.69767441860465  C 5.40939922480619 0.695265780730896  7.86821705426356 0.700083056478406  10.3270348837209 0.69767441860465  C 10.3614583333333 3.08945182724253  10.2606468023256 5.49327242524917  10.3712936046512 7.88023255813953  C 11.9867369186047 7.99343853820598  13.6193919573643 7.88745847176079  15.2446705426357 7.92358803986711  C 15.2446705426357 8.72566445182724  15.2446705426357 9.53014950166113  15.2446705426357 10.3322259136213  C 14.4234253875969 10.3322259136213  13.6046390503876 10.3322259136213  12.7858527131783 10.3322259136213  C 12.7833938953488 11.9387873754153  12.7858527131783 13.5453488372093  12.7858527131783 15.1495016611296  C 13.6046390503876 15.1495016611296  14.4234253875969 15.1495016611296  15.2446705426357 15.1470930232558  C 15.2446705426357 13.5429401993356  15.2446705426357 11.9387873754153  15.2446705426357 10.3322259136213  C 16.063456879845 10.3322259136213  16.8822432170543 10.3322259136213  17.703488372093 10.3322259136213  C 17.703488372093 12.7408637873754  17.703488372093 15.1470930232558  17.703488372093 17.55573089701  C 18.5222747093023 17.5605481727575  19.3410610465116 17.5605481727575  20.1623062015504 17.55573089701  C 20.1598473837209 16.7536544850498  20.1598473837209 15.9515780730897  20.1623062015504 15.1495016611296  C 20.9810925387597 15.1470930232558  21.799878875969 15.1470930232558  22.6186652131783 15.1495016611296  C 22.6186652131783 15.9515780730897  22.6235828488372 16.7536544850498  22.6235828488372 17.5581395348837  C 24.2611555232558 17.5581395348837  25.8987281976744 17.5581395348837  27.536300872093 17.5581395348837  C 27.5412185077519 15.9515780730897  27.536300872093 14.3474252491694  27.536300872093 12.7432724252492  C 28.3575460271318 12.7384551495017  29.1763323643411 12.7384551495017  29.9975775193798 12.7408637873754  C 30.0024951550388 14.3474252491694  29.9926598837209 15.9515780730897  30.0000363372093 17.5581395348837  C 31.6376090116279 17.5581395348837  33.2751816860465 17.5581395348837  34.9152131782946 17.5581395348837  C 34.9152131782946 18.3602159468439  34.9152131782946 19.1647009966777  34.9152131782946 19.9667774086379  C 33.2751816860465 19.9667774086379  31.6376090116279 19.9643687707641  30.0000363372093 19.9667774086379  C 29.9975775193798 22.375415282392  29.9951187015504 24.7840531561462  29.9975775193798 27.1926910299003  C 30.8163638565891 27.1950996677741  31.6376090116279 27.1926910299003  32.4563953488372 27.1902823920266  C 32.4539365310078 26.3882059800664  32.4539365310078 25.5885382059801  32.4563953488372 24.7864617940199  C 33.2751816860465 24.7816445182724  34.0939680232558 24.7816445182724  34.9152131782946 24.7840531561462  C 34.9152131782946 26.3906146179402  34.9152131782946 27.9947674418605  34.9152131782946 29.6013289036545  C 32.4563953488372 29.6013289036545  29.9975775193798 29.5989202657807  27.5387596899225 29.6013289036545  C 27.5387596899225 30.4034053156146  27.5387596899225 31.2054817275747  27.5387596899225 32.0099667774086  C 25.8987281976744 32.0099667774086  24.2611555232558 32.0099667774086  22.6235828488372 32.0075581395349  C 22.6211240310077 31.2054817275747  22.6211240310077 30.4034053156146  22.6211240310077 29.6013289036545  C 23.439910368217 29.6013289036545  24.2586967054264 29.6013289036545  25.0799418604651 29.6013289036545  C 25.0799418604651 28.7968438538206  25.0799418604651 27.9947674418605  25.0799418604651 27.1926910299003  C 25.8987281976744 27.1926910299003  26.7175145348837 27.1926910299003  27.536300872093 27.1926910299003  C 27.5387596899225 26.3906146179402  27.5412185077519 25.5885382059801  27.5387596899225 24.7864617940199  C 26.7199733527132 24.7840531561462  25.9011870155039 24.7816445182724  25.0799418604651 24.7840531561462  C 25.0799418604651 25.5861295681063  25.0774830426357 26.3906146179402  25.0799418604651 27.1926910299003  C 24.2611555232558 27.1926910299003  23.439910368217 27.1926910299003  22.6235828488372 27.1950996677741  C 22.6211240310077 27.9971760797342  22.6211240310077 28.7992524916944  22.6211240310077 29.6013289036545  C 20.9810925387597 29.6013289036545  19.3435198643411 29.6013289036545  17.703488372093 29.6013289036545  C 17.7010295542636 30.4034053156146  17.703488372093 31.2054817275747  17.7059471899225 32.0099667774086  C 18.5247335271318 32.0075581395349  19.3410610465116 32.0099667774086  20.1598473837209 32.0099667774086  C 20.1623062015504 32.8120431893688  20.1647650193798 33.6165282392027  20.1623062015504 34.4186046511628  C 16.8822432170543 34.4210132890365  13.6046390503876 34.4186046511628  10.3270348837209 34.416196013289  C 10.3294937015504 33.6141196013289  10.3270348837209 32.8120431893688  10.3270348837209 32.0123754152824  C 8.68700339147287 32.0075581395349  7.04697189922481 32.0099667774086  5.40939922480619 32.0099667774086  C 5.40939922480619 31.2078903654485  5.40939922480619 30.4034053156146  5.40939922480619 29.6013289036545  C 7.04697189922481 29.6013289036545  8.68700339147287 29.6013289036545  10.3270348837209 29.6013289036545  C 10.3270348837209 28.7968438538206  10.3270348837209 27.9971760797342  10.3270348837209 27.1950996677741  C 9.50578972868217 27.1926910299003  8.68700339147287 27.1902823920266  7.86821705426356 27.1902823920266  C 7.86821705426356 26.3882059800664  7.86821705426356 25.5861295681063  7.86821705426356 24.7864617940199  C 7.04697189922481 24.7840531561462  6.2281855620155 24.7816445182724  5.40939922480619 24.7840531561462  C 5.40939922480619 23.9795681063123  5.40939922480619 23.1774916943522  5.40939922480619 22.375415282392  C 7.86821705426356 22.3730066445183  10.3245760658915 22.3778239202658  12.7833938953488 22.3730066445183  C 12.7858527131783 21.5709302325581  12.7858527131783 20.768853820598  12.7883115310078 19.9667774086379  C 13.607097868217 19.9667774086379  14.4258842054264 19.9667774086379  15.2446705426357 19.9667774086379  C 15.2446705426357 19.1647009966777  15.2446705426357 18.3650332225914  15.2446705426357 17.565365448505  C 14.6422601744186 17.5581395348837  14.042308624031 17.5412790697674  13.439898255814 17.5364617940199  C 13.1374636627907 17.4642026578073  12.8497819767442 17.7002491694352  12.7661821705426 17.9700166112957  C 12.7588057170543 18.6348006644518  12.7858527131783 19.3019933554817  12.7883115310078 19.9667774086379  C 11.9695251937985 19.9667774086379  11.1482800387597 19.9667774086379  10.3294937015504 19.9667774086379  C 10.3270348837209 19.1647009966777  10.3245760658915 18.3626245847176  10.3245760658915 17.5581395348837  C 9.50578972868217 17.5581395348837  8.68700339147287 17.55573089701  7.86821705426356 17.55573089701  C 7.86821705426356 16.7536544850498  7.86821705426356 15.9515780730897  7.86575823643411 15.1519102990033  C 7.04697189922481 15.1495016611296  6.2281855620155 15.1470930232558  5.40939922480619 15.1495016611296  C 5.40939922480619 14.3450166112957  5.40939922480619 13.5429401993356  5.40939922480619 12.7408637873754  C 7.04697189922481 12.7408637873754  8.68700339147287 12.7408637873754  10.3270348837209 12.7408637873754  C 10.3245760658915 11.3486710963455  10.3196584302326 9.95647840531561  10.349164244186 8.56428571428571  C 10.4180111434109 8.26802325581395  10.1795058139535 7.98621262458472  9.90657703488373 7.90431893687707  C 9.22548449612402 7.89709302325582  8.54930959302324 7.92358803986711  7.87067587209302 7.92840531561462  C 7.86575823643411 6.3218438538206  7.87067587209302 4.71287375415283  7.86575823643411 3.1063122923588  C 7.04697189922481 3.1063122923588  6.2281855620155 3.1063122923588  5.40939922480619 3.1063122923588  C 5.40939922480619 3.90838870431894  5.40939922480619 4.71046511627907  5.40939922480619 5.5125415282392  C 4.5906128875969 5.51495016611296  3.77182655038758 5.51495016611296  2.95304021317829 5.51735880398671  C 2.95058139534884 6.31943521594684  2.95058139534884 7.12151162790697  2.94812257751938 7.92358803986711  C 2.12933624031009 7.92358803986711  1.31054990310077 7.92358803986711  0.491763565891475 7.92358803986711  C 0.491763565891475 7.11910299003322  0.489304748062015 6.31702657807309  0.491763565891475 5.51495016611296  C 1.31054990310077 5.51495016611296  2.12933624031009 5.51495016611296  2.95058139534884 5.51495016611296  Z M 12.7809350775194 15.1495016611296  C 11.9621487403101 15.1470930232558  11.1458212209302 15.1470930232558  10.3270348837209 15.1495016611296  C 10.3245760658915 15.9515780730897  10.3245760658915 16.7536544850498  10.3270348837209 17.55573089701  C 11.1310683139535 17.5316445182724  11.9449370155039 17.6328073089701  12.7415939922481 17.5147840531561  C 12.8620760658915 16.7343853820598  12.7588057170543 15.9371262458472  12.7809350775194 15.1495016611296  Z M 22.6211240310077 19.9667774086379  C 20.9810925387597 19.9667774086379  19.3435198643411 19.9667774086379  17.703488372093 19.9667774086379  C 17.703488372093 21.5733388704319  17.703488372093 23.1774916943522  17.7010295542636 24.7840531561462  C 16.8822432170543 24.7816445182724  16.063456879845 24.7840531561462  15.2471293604651 24.7840531561462  C 15.2446705426357 25.5861295681063  15.2422117248062 26.3906146179402  15.2446705426357 27.1926910299003  C 17.703488372093 27.1926910299003  20.1623062015504 27.1926910299003  22.6211240310077 27.1926910299003  C 22.6235828488372 26.3882059800664  22.6211240310077 25.5861295681063  22.6186652131783 24.7840531561462  C 21.799878875969 24.7816445182724  20.9810925387597 24.7840531561462  20.1623062015504 24.7840531561462  C 20.1598473837209 23.981976744186  20.1598473837209 23.1774916943522  20.1647650193798 22.375415282392  C 20.9810925387597 22.375415282392  21.799878875969 22.375415282392  22.6186652131783 22.3730066445183  C 22.6211240310077 21.5709302325581  22.6211240310077 20.768853820598  22.6211240310077 19.9667774086379  Z M 27.5387596899225 19.9667774086379  C 26.7175145348837 19.9667774086379  25.8987281976744 19.9667774086379  25.0799418604651 19.9667774086379  C 25.0799418604651 20.768853820598  25.0799418604651 21.5733388704319  25.0799418604651 22.375415282392  C 25.8987281976744 22.375415282392  26.7175145348837 22.375415282392  27.536300872093 22.3730066445183  C 27.5387596899225 21.5709302325581  27.5387596899225 20.768853820598  27.5387596899225 19.9667774086379  Z M 15.2446705426357 27.1926910299003  C 14.4258842054264 27.1926910299003  13.6046390503876 27.1926910299003  12.7883115310078 27.1950996677741  C 12.7858527131783 27.9971760797342  12.7858527131783 28.7992524916944  12.7858527131783 29.6013289036545  C 13.6046390503876 29.6013289036545  14.4234253875969 29.6013289036545  15.2446705426357 29.6013289036545  C 15.2446705426357 28.7968438538206  15.2446705426357 27.9947674418605  15.2446705426357 27.1926910299003  Z " fill-rule="nonzero" fill="#1980ff" stroke="none" transform="matrix(1 0 0 1 78 49 )" />
  </g>
</svg>