<?xml version="1.0" encoding="utf-8"?>
<svg version="1.1" xmlns:xlink="http://www.w3.org/1999/xlink" width="13px" height="8px" xmlns="http://www.w3.org/2000/svg">
  <g transform="matrix(1 0 0 1 -27 -83 )">
    <path d="M 3.05684754521964 2.5877378435518  C 3.05684754521964 1.76862579281183  3.05441214470284 0.951966173361525  3.05684754521964 0.135306553911205  C 4.68125968992248 0.132854122621562  6.30567183462532 0.132854122621562  7.92764857881137 0.135306553911205  C 7.92764857881137 0.951966173361525  7.92764857881137 1.77107822410148  7.92764857881137 2.5877378435518  C 7.11666020671835 2.5877378435518  6.30567183462532 2.5877378435518  5.4946834625323 2.59019027484143  C 5.4922480620155 3.40684989429175  5.4922480620155 4.22350951374207  5.4922480620155 5.04016913319239  C 6.30323643410853 5.04016913319239  7.11666020671835 5.04016913319239  7.92764857881137 5.04016913319239  C 7.92764857881137 4.22105708245243  7.92764857881137 3.40439746300212  7.92764857881137 2.5877378435518  C 9.54962532299742 2.5877378435518  11.1740374677003 2.5877378435518  12.7960142118863 2.5877378435518  C 12.7984496124031 3.40439746300212  12.7984496124031 4.22105708245243  12.8008850129199 5.04016913319239  C 11.9874612403101 5.04016913319239  11.1764728682171 5.04016913319239  10.3630490956072 5.04016913319239  C 10.3630490956072 5.85682875264271  10.3630490956072 6.67348837209302  10.3630490956072 7.49260042283298  C 7.92764857881137 7.49260042283298  5.4922480620155 7.49260042283298  3.05684754521964 7.49260042283298  C 3.05684754521964 6.67348837209302  3.05684754521964 5.85682875264271  3.05684754521964 5.04016913319239  C 2.24342377260982 5.04016913319239  1.4324354005168 5.04016913319239  0.621447028423772 5.04016913319239  C 0.621447028423772 4.22105708245243  0.621447028423772 3.40439746300212  0.623882428940568 2.5877378435518  C 1.43487080103359 2.58528541226215  2.24585917312662 2.5877378435518  3.05684754521964 2.5877378435518  Z " fill-rule="nonzero" fill="#1980ff" stroke="none" transform="matrix(1 0 0 1 27 83 )" />
  </g>
</svg>