<?xml version="1.0" encoding="utf-8"?>
<svg version="1.1" xmlns:xlink="http://www.w3.org/1999/xlink" width="42px" height="68px" xmlns="http://www.w3.org/2000/svg">
  <g transform="matrix(1 0 0 1 -32 -39 )">
    <path d="M 15.0865717722534 2.76086658506732  C 15.0890136327185 1.95710159118727  15.0890136327185 1.15333659730722  15.0890136327185 0.349571603427172  C 15.9021531676022 0.349571603427172  16.715292702486 0.349571603427172  17.5308740978348 0.351985312117502  C 17.5308740978348 1.15575030599755  17.5333159582999 1.9595152998776  17.5308740978348 2.76328029375765  C 18.3440136327185 2.76328029375765  19.1571531676022 2.76569400244798  19.970292702486 2.76569400244798  C 19.9751764234162 3.56945899632803  19.9751764234162 4.37322399020808  19.9727345629511 5.17698898408813  C 19.1571531676022 5.17940269277846  18.3440136327185 5.17940269277846  17.5308740978348 5.17698898408813  C 17.5308740978348 4.37322399020808  17.5308740978348 3.56945899632803  17.5308740978348 2.76569400244798  C 16.715292702486 2.76328029375765  15.9021531676022 2.76086658506732  15.0865717722534 2.76328029375765  C 15.0890136327185 4.37322399020808  15.0865717722534 5.98075397796817  15.0890136327185 7.58828396572827  C 15.9021531676022 7.5906976744186  16.715292702486 7.5906976744186  17.5308740978348 7.5906976744186  C 17.5333159582999 8.39446266829865  17.5333159582999 9.20064137086903  17.5284322373697 10.0044063647491  C 16.715292702486 10.0044063647491  15.9021531676022 10.0044063647491  15.0890136327185 10.0044063647491  C 15.0890136327185 10.8081713586291  15.0890136327185 11.6143500611995  15.0890136327185 12.4181150550796  C 14.2734322373697 12.4181150550796  13.460292702486 12.4181150550796  12.6471531676022 12.4181150550796  C 12.6447113071371 14.02805875153  12.6471531676022 15.6355887392901  12.6471531676022 17.2455324357405  C 11.8340136327185 17.2455324357405  11.0208740978348 17.2455324357405  10.2077345629511 17.2479461444308  C 10.205292702486 18.0517111383109  10.205292702486 18.8554761321909  10.205292702486 19.659241126071  C 11.0184322373697 19.659241126071  11.8340136327185 19.659241126071  12.6471531676022 19.659241126071  C 12.6471531676022 20.463006119951  12.6471531676022 21.2667711138311  12.6471531676022 22.0729498164015  C 14.2758740978348 22.0729498164015  15.9021531676022 22.0705361077111  17.5284322373697 22.0729498164015  C 17.5308740978348 22.8767148102815  17.5333159582999 23.6828935128519  17.5308740978348 24.4866585067319  C 16.7177345629511 24.4842447980416  15.9045950280674 24.4842447980416  15.0914554931836 24.4866585067319  C 15.0890136327185 25.290423500612  15.0865717722534 26.094188494492  15.0865717722534 26.8979534883721  C 15.9021531676022 26.9003671970624  16.715292702486 26.9003671970624  17.5308740978348 26.9003671970624  C 17.5308740978348 26.0966022031824  17.5308740978348 25.290423500612  17.5308740978348 24.4866585067319  C 18.3440136327185 24.4866585067319  19.1571531676022 24.4842447980416  19.9727345629511 24.4866585067319  C 19.970292702486 23.6828935128519  19.9751764234162 22.8767148102815  19.9751764234162 22.0729498164015  C 20.7883159582999 22.0729498164015  21.6014554931836 22.0729498164015  22.4145950280674 22.0729498164015  C 22.4145950280674 20.463006119951  22.4145950280674 18.8554761321909  22.4145950280674 17.2455324357405  C 23.2277345629511 17.2455324357405  24.0408740978348 17.2455324357405  24.8540136327185 17.2479461444308  C 24.8588973536488 18.8554761321909  24.8540136327185 20.463006119951  24.8588973536488 22.0705361077111  C 25.6720368885325 22.0753635250918  26.4851764234162 22.0753635250918  27.2983159582999 22.0729498164015  C 27.2958740978348 21.2691848225214  27.2983159582999 20.4654198286414  27.2983159582999 19.659241126071  C 28.9270368885325 19.6568274173807  30.5533159582999 19.659241126071  32.1820368885325 19.659241126071  C 32.1820368885325 20.463006119951  32.1820368885325 21.2691848225214  32.1820368885325 22.0729498164015  C 30.5533159582999 22.0729498164015  28.9270368885325 22.0705361077111  27.2983159582999 22.0753635250918  C 27.2983159582999 22.8791285189719  27.2983159582999 23.6828935128519  27.2983159582999 24.4866585067319  C 24.8564554931836 24.4914859241126  22.4145950280674 24.4818310893513  19.9751764234162 24.4890722154223  C 19.9727345629511 25.2928372093023  19.9751764234162 26.0966022031824  19.9727345629511 26.9003671970624  C 19.1595950280674 26.8979534883721  18.3464554931836 26.8979534883721  17.5333159582999 26.9003671970624  C 17.5284322373697 29.3140758873929  17.5284322373697 31.7277845777234  17.5308740978348 34.1414932680539  C 18.3440136327185 34.1439069767442  19.1571531676022 34.1439069767442  19.9727345629511 34.1414932680539  C 19.9727345629511 32.5315495716034  19.9727345629511 30.9240195838433  19.9727345629511 29.3140758873929  C 21.6014554931836 29.3140758873929  23.2277345629511 29.3140758873929  24.8564554931836 29.3140758873929  C 24.8564554931836 28.5078971848225  24.8564554931836 27.7041321909425  24.8588973536488 26.9003671970624  C 26.4851764234162 26.8979534883721  28.1114554931836 26.9003671970624  29.7401764234162 26.9003671970624  C 29.7377345629511 26.0966022031824  29.7401764234162 25.2928372093023  29.7401764234162 24.4890722154223  C 31.3688973536488 24.4818310893513  32.9951764234162 24.4914859241126  34.6238973536488 24.4842447980416  C 34.6238973536488 23.6804798041616  34.6214554931836 22.8767148102815  34.6238973536488 22.0753635250918  C 35.4370368885325 22.0729498164015  36.2501764234162 22.0729498164015  37.065757818765 22.0729498164015  C 37.0633159582999 21.2667711138311  37.065757818765 20.463006119951  37.065757818765 19.659241126071  C 37.8813392141139 19.659241126071  38.6944787489976 19.659241126071  39.5100601443464 19.659241126071  C 39.5076182838813 20.2481860465116  39.4905252606255 20.8395446756426  39.4856415396953 21.4309033047736  C 39.4148275862069 21.7253757649939  39.6516880513232 22.0077796817625  39.9251764234162 22.0922594859241  C 40.5991299117883 22.0995006119951  41.2730834001604 22.0705361077111  41.9494787489976 22.0705361077111  C 41.9470368885325 22.8767148102815  41.9494787489976 23.6828935128519  41.9494787489976 24.4890722154223  C 41.3512229350441 24.4842447980416  40.7554089815557 24.4697625458996  40.1571531676022 24.464935128519  C 39.8568043303929 24.3949375764994  39.5711066559743 24.6290673194614  39.4880834001604 24.8994026927785  C 39.480757818765 25.5655862913097  39.5076182838813 26.2317698898409  39.5125020048116 26.8979534883721  C 38.6969206094627 26.8979534883721  37.8813392141139 26.9003671970624  37.0681996792301 26.9003671970624  C 37.065757818765 27.7041321909425  37.065757818765 28.5103108935128  37.0633159582999 29.3140758873929  C 35.4370368885325 29.3140758873929  33.810757818765 29.3140758873929  32.1820368885325 29.3140758873929  C 32.1820368885325 28.5078971848225  32.1820368885325 27.7041321909425  32.1820368885325 26.9003671970624  C 31.3688973536488 26.9003671970624  30.555757818765 26.9003671970624  29.7426182838813 26.9027809057527  C 29.7401764234162 27.7065458996328  29.7401764234162 28.5103108935128  29.7401764234162 29.3140758873929  C 28.9245950280674 29.3140758873929  28.1114554931836 29.3140758873929  27.2983159582999 29.3140758873929  C 27.300757818765 30.672993880049  27.2958740978348 32.0294981640147  27.2983159582999 33.3860024479804  C 26.397269446672 33.9411554467564  25.6012229350441 34.6387172582619  24.8686647955092 35.3942080783354  C 24.8588973536488 34.9742227662179  24.8540136327185 34.5566511627907  24.8466880513232 34.1414932680539  C 24.0359903769046 34.1390795593635  23.225292702486 34.1414932680539  22.4170368885325 34.1439069767442  C 22.4145950280674 34.9452582619339  22.4145950280674 35.749023255814  22.4145950280674 36.552788249694  C 22.9786647955092 36.552788249694  23.5427345629511 36.552788249694  24.1068043303929 36.5552019583843  C 23.2765717722534 38.1965238678091  22.8565717722534 40.1202496940024  23.3864554931836 41.920876376989  C 23.772269446672 43.615299877601  24.8491299117883 45.0514565483476  26.1286647955092 46.2052093023256  C 25.703781074579 46.2100367197062  25.2788973536488 46.2124504283966  24.8564554931836 46.2196915544676  C 24.8564554931836 47.8248078335373  24.8540136327185 49.4299241126071  24.8588973536488 51.0374541003672  C 25.6695950280674 51.0374541003672  26.4827345629511 51.0374541003672  27.2934322373697 51.0374541003672  C 27.2958740978348 50.4123035495716  27.2983159582999 49.7847392900857  27.300757818765 49.1595887392901  C 28.0870368885325 48.8144283965728  28.8073857257418 48.3413414932681  29.5936647955092 48.0010085679315  C 30.9073857257418 48.1265214198286  32.1918043303929 48.4982325581395  33.4786647955092 48.7637405140759  C 34.2038973536488 49.6157796817625  34.9926182838813 50.4123035495716  35.9327345629511 51.0374541003672  C 34.6825020048116 51.0422815177479  33.432269446672 51.0350403916769  32.1820368885325 51.0374541003672  C 32.1820368885325 50.2336891064871  32.1820368885325 49.4299241126071  32.1844787489976 48.626159118727  C 31.3688973536488 48.6213317013464  30.555757818765 48.6213317013464  29.7401764234162 48.6213317013464  C 29.7401764234162 49.4275104039168  29.7401764234162 50.2312753977968  29.7426182838813 51.0350403916769  C 30.555757818765 51.0374541003672  31.3688973536488 51.0374541003672  32.1820368885325 51.0374541003672  C 32.1820368885325 52.6473977968176  32.1820368885325 54.257341493268  32.1820368885325 55.8672851897185  C 31.583781074579 55.8624577723378  30.9855252606255 55.8479755201958  30.3897113071371 55.8431481028152  C 30.0893624699278 55.7731505507956  29.8036647955092 56.0072802937576  29.7206415396953 56.280029375765  C 29.7133159582999 56.9437992656059  29.7426182838813 57.6123965728274  29.7426182838813 58.2785801713586  C 28.9270368885325 58.2785801713586  28.1090136327185 58.2785801713586  27.2934322373697 58.2761664626683  C 27.2983159582999 57.6872215422277  27.3154089815557 57.098276621787  27.320292702486 56.5093317013464  C 27.3911066559743 56.2124455324357  27.1542461908581 55.9276279069767  26.8831996792302 55.8431481028152  C 26.2068043303929 55.8359069767442  25.5328508420208 55.8648714810282  24.8588973536488 55.8696988984088  C 24.8588973536488 55.0635201958384  24.8564554931836 54.257341493268  24.8540136327185 53.453576499388  C 24.0408740978348 53.4511627906977  23.2277345629511 53.4487490820073  22.4145950280674 53.4511627906977  C 22.4145950280674 54.2549277845777  22.4145950280674 55.0586927784578  22.4145950280674 55.8648714810282  C 21.6014554931836 55.8648714810282  20.7883159582999 55.8648714810282  19.9751764234162 55.8672851897185  C 19.970292702486 58.2785801713586  19.9727345629511 60.6922888616891  19.9727345629511 63.1035838433293  C 20.7858740978348 63.1035838433293  21.6014554931836 63.1059975520196  22.4145950280674 63.1084112607099  C 22.4145950280674 63.91217625459  22.4145950280674 64.71594124847  22.4145950280674 65.5197062423501  C 20.7858740978348 65.5197062423501  19.1595950280674 65.5197062423501  17.5308740978348 65.5197062423501  C 17.5308740978348 66.3234712362301  17.5284322373697 67.1272362301102  17.5308740978348 67.9334149326805  C 16.7177345629511 67.9334149326805  15.9021531676022 67.9334149326805  15.0890136327185 67.9334149326805  C 15.0890136327185 66.3234712362301  15.0890136327185 64.71594124847  15.0914554931836 63.1059975520196  C 15.9045950280674 63.1035838433293  16.7177345629511 63.1035838433293  17.5308740978348 63.1059975520196  C 17.5333159582999 62.3022325581395  17.5333159582999 61.4960538555692  17.5284322373697 60.6922888616891  C 15.9021531676022 60.6898751529988  14.2734322373697 60.6922888616891  12.6471531676022 60.6922888616891  C 12.6471531676022 59.084758873929  12.6471531676022 57.4748151774786  12.6471531676022 55.8672851897185  C 15.0890136327185 55.8624577723378  17.5308740978348 55.8672851897185  19.9727345629511 55.8648714810282  C 19.9727345629511 54.2549277845777  19.9727345629511 52.6449840881273  19.970292702486 51.0374541003672  C 19.1595950280674 51.0350403916769  18.3464554931836 51.0374541003672  17.5333159582999 51.0398678090575  C 17.5308740978348 51.8436328029376  17.5308740978348 52.6473977968176  17.5284322373697 53.4511627906977  C 16.715292702486 53.4511627906977  15.9021531676022 53.4511627906977  15.0914554931836 53.4511627906977  C 15.0890136327185 52.6473977968176  15.0865717722534 51.8436328029376  15.0865717722534 51.0398678090575  C 15.9021531676022 51.0374541003672  16.715292702486 51.0374541003672  17.5308740978348 51.0374541003672  C 17.5284322373697 49.6423304773562  17.5235485164395 48.2472068543452  17.5528508420209 46.8520832313342  C 17.6358740978348 46.4876132190943  17.2525020048116 46.1038335373317  16.8813392141139 46.1883133414933  C 15.4699438652767 46.2196915544676  14.0585485164395 46.2100367197062  12.6471531676022 46.2100367197062  C 12.6471531676022 47.0138017135863  12.6471531676022 47.8175667074663  12.6471531676022 48.6237454100367  C 11.8315717722534 48.6237454100367  11.0184322373697 48.6237454100367  10.205292702486 48.6237454100367  C 10.205292702486 46.2100367197062  10.205292702486 43.7963280293758  10.205292702486 41.3850330477356  C 9.39215316760224 41.380205630355  8.57901363271852 41.380205630355  7.76587409783481 41.3826193390453  C 7.76343223736969 42.1887980416157  7.76343223736969 42.9925630354957  7.76099037690457 43.7963280293758  C 6.13471130713713 43.7987417380661  4.50843223736969 43.7939143206854  2.87971130713713 43.7963280293758  C 2.87971130713713 42.9925630354957  2.87971130713713 42.1863843329253  2.87971130713713 41.3826193390453  C 4.50843223736969 41.3826193390453  6.13715316760224 41.3826193390453  7.76343223736969 41.3826193390453  C 7.76343223736969 40.5764406364749  7.76343223736969 39.7726756425949  7.76343223736969 38.9689106487148  C 6.94785084202085 38.9689106487148  6.13471130713713 38.9689106487148  5.32157177225341 38.9689106487148  C 5.32157177225341 38.1627319461444  5.32157177225341 37.3589669522644  5.32401363271853 36.5552019583843  C 7.76343223736969 36.552788249694  10.205292702486 36.5552019583843  12.6471531676022 36.5552019583843  C 12.6471531676022 37.3589669522644  12.6471531676022 38.1627319461444  12.6471531676022 38.9689106487148  C 15.0890136327185 38.9689106487148  17.5308740978348 38.9689106487148  19.9727345629511 38.9689106487148  C 19.9727345629511 38.1651456548348  19.9727345629511 37.3589669522644  19.970292702486 36.5576156670747  C 18.3440136327185 36.552788249694  16.7177345629511 36.5576156670747  15.0890136327185 36.552788249694  C 15.0890136327185 34.1414932680539  15.0890136327185 31.7277845777234  15.0890136327185 29.3140758873929  C 14.2734322373697 29.3140758873929  13.460292702486 29.3140758873929  12.6471531676022 29.3140758873929  C 12.6471531676022 27.7041321909425  12.6471531676022 26.0966022031824  12.6471531676022 24.4890722154223  C 11.8340136327185 24.4866585067319  11.0208740978348 24.4842447980416  10.205292702486 24.4842447980416  C 10.205292702486 23.6804798041616  10.205292702486 22.8767148102815  10.2028508420208 22.0729498164015  C 9.39215316760224 22.0705361077111  8.57901363271852 22.0729498164015  7.76587409783481 22.0753635250918  C 7.76343223736969 22.8791285189719  7.76343223736969 23.6828935128519  7.76099037690457 24.4866585067319  C 6.94785084202085 24.4866585067319  6.13471130713713 24.4866585067319  5.32157177225341 24.4866585067319  C 5.31912991178829 23.6828935128519  5.32157177225341 22.8791285189719  5.32401363271853 22.0753635250918  C 6.13715316760224 22.0753635250918  6.95029270248597 22.0729498164015  7.76343223736969 22.0729498164015  C 7.76343223736969 21.2667711138311  7.76343223736969 20.463006119951  7.76099037690457 19.659241126071  C 6.94785084202085 19.659241126071  6.13471130713713 19.659241126071  5.32157177225341 19.659241126071  C 5.32157177225341 20.463006119951  5.32157177225341 21.2667711138311  5.31912991178829 22.0729498164015  C 4.50599037690457 22.0729498164015  3.69285084202085 22.0729498164015  2.87971130713713 22.0729498164015  C 2.87971130713713 21.2667711138311  2.87971130713713 20.463006119951  2.87971130713713 19.659241126071  C 2.06412991178829 19.659241126071  1.25099037690457 19.659241126071  0.437850842020848 19.659241126071  C 0.437850842020848 18.8554761321909  0.437850842020848 18.0517111383109  0.440292702485967 17.2479461444308  C 3.69529270248597 17.2431187270502  6.95029270248597 17.2455324357405  10.205292702486 17.2455324357405  C 10.205292702486 14.83182374541  10.205292702486 12.4181150550796  10.205292702486 10.0044063647491  C 11.0184322373697 10.0044063647491  11.8340136327185 10.0044063647491  12.6471531676022 10.0044063647491  C 12.6471531676022 7.5906976744186  12.6471531676022 5.17698898408813  12.6471531676022 2.76328029375765  C 13.460292702486 2.76328029375765  14.2734322373697 2.76328029375765  15.0865717722534 2.76086658506732  Z M 39.5564554931836 22.0898457772338  C 38.7262229350441 22.0608812729498  37.8959903769046 22.0705361077111  37.065757818765 22.0753635250918  C 37.0633159582999 22.8791285189719  37.0633159582999 23.6804798041616  37.065757818765 24.4842447980416  C 37.8642461908581 24.4601077111383  38.6725020048115 24.5614834761322  39.4636647955092 24.443211750306  C 39.5808740978348 23.6659975520196  39.4563392141139 22.8718873929009  39.5564554931836 22.0898457772338  Z M 19.9727345629511 41.3850330477356  C 17.5308740978348 41.380205630355  15.0890136327185 41.3826193390453  12.6471531676022 41.3826193390453  C 12.6471531676022 42.1863843329253  12.6471531676022 42.9901493268054  12.6471531676022 43.7963280293758  C 14.2758740978348 43.8011554467564  15.9045950280674 43.7915006119951  17.5333159582999 43.7987417380661  C 17.5577345629511 44.5856107711138  17.4551764234162 45.3845483476132  17.5748275862069 46.1665899632803  C 18.3659903769046 46.2824479804162  19.1742461908581 46.1834859241126  19.9727345629511 46.2076230110159  C 19.9727345629511 44.6000930232558  19.9727345629511 42.9925630354957  19.9727345629511 41.3850330477356  Z M 22.4145950280674 46.2100367197062  C 21.6014554931836 46.2100367197062  20.7883159582999 46.2100367197062  19.9727345629511 46.2124504283966  C 19.9727345629511 47.8199804161567  19.9727345629511 49.4275104039168  19.9727345629511 51.0350403916769  C 20.7883159582999 51.0374541003672  21.6014554931836 51.0374541003672  22.4145950280674 51.0374541003672  C 22.4145950280674 49.4275104039168  22.4145950280674 47.8199804161567  22.4145950280674 46.2100367197062  Z M 29.735292702486 53.4511627906977  C 28.9245950280674 53.4487490820073  28.1114554931836 53.4487490820073  27.300757818765 53.4511627906977  C 27.3251764234162 54.2404455324357  27.2226182838813 55.0393831089351  27.342269446672 55.8214247246022  C 28.1163392141139 55.9107319461444  28.9197113071371 55.9107319461444  29.6962229350441 55.8214247246022  C 29.8158740978348 55.0393831089351  29.7133159582999 54.2404455324357  29.735292702486 53.4511627906977  Z " fill-rule="nonzero" fill="#1980ff" stroke="none" transform="matrix(1 0 0 1 32 39 )" />
  </g>
</svg>