<?xml version="1.0" encoding="utf-8"?>
<svg version="1.1" xmlns:xlink="http://www.w3.org/1999/xlink" width="10px" height="15px" xmlns="http://www.w3.org/2000/svg">
  <g transform="matrix(1 0 0 1 -64 -92 )">
    <path d="M 2.7218438538206 2.89036544850499  C 2.7218438538206 2.0858803986711  2.72425249169435 1.28380398671096  2.7266611295681 0.481727574750833  C 3.52873754152823 0.479318936877076  4.33081395348837 0.479318936877076  5.13289036544851 0.481727574750833  C 5.13770764119602 2.89036544850499  5.13048172757475 5.29900332225913  5.13289036544851 7.70764119601328  C 5.93496677740864 7.70764119601328  6.73704318936877 7.71004983388704  7.5391196013289 7.71004983388704  C 7.5391196013289 8.51212624584717  7.54152823920266 9.31179401993355  7.5439368770764 10.1162790697674  C 8.34601328903654 10.1138704318937  9.14808970099668 10.1162790697674  9.95016611295681 10.1186877076412  C 9.95016611295681 11.7228405315615  9.95016611295681 13.3269933554817  9.95016611295681 14.9335548172757  C 9.14808970099668 14.9335548172757  8.34360465116279 14.9335548172757  7.54152823920266 14.9335548172757  C 7.54152823920266 14.1290697674419  7.54152823920266 13.3269933554817  7.5391196013289 12.5249169435216  C 5.93496677740864 12.5225083056478  4.33081395348837 12.5249169435216  2.7266611295681 12.5249169435216  C 2.7266611295681 11.7228405315615  2.72425249169435 10.9183554817276  2.7218438538206 10.1186877076412  C 1.91976744186046 10.1162790697674  1.11769102990033 10.1138704318937  0.315614617940199 10.1162790697674  C 0.315614617940199 9.31179401993355  0.315614617940199 8.50971760797342  0.315614617940199 7.70764119601328  C 1.11769102990033 7.70764119601328  1.91976744186046 7.70764119601328  2.7218438538206 7.70523255813954  C 2.72425249169435 6.90315614617941  2.72425249169435 6.10107973421926  2.72425249169435 5.29900332225913  C 1.91976744186046 5.29900332225913  1.11769102990033 5.29900332225913  0.315614617940199 5.29900332225913  C 0.315614617940199 4.496926910299  0.315614617940199 3.69485049833886  0.315614617940199 2.89277408637873  C 1.11769102990033 2.89036544850499  1.91976744186046 2.89036544850499  2.7218438538206 2.89036544850499  Z M 5.13289036544851 7.71004983388704  C 4.32840531561461 7.70523255813954  3.52632890365449 7.70523255813954  2.7218438538206 7.70764119601328  C 2.7218438538206 8.50971760797342  2.7218438538206 9.31420265780731  2.72425249169435 10.1162790697674  C 3.52632890365449 10.1162790697674  4.32840531561461 10.1162790697674  5.13289036544851 10.1162790697674  C 5.13529900332225 9.31420265780731  5.13529900332225 8.51212624584717  5.13289036544851 7.71004983388704  Z " fill-rule="nonzero" fill="#1980ff" stroke="none" transform="matrix(1 0 0 1 64 92 )" />
  </g>
</svg>