<?xml version="1.0" encoding="utf-8"?>
<svg version="1.1" xmlns:xlink="http://www.w3.org/1999/xlink" width="8px" height="8px" xmlns="http://www.w3.org/2000/svg">
  <g transform="matrix(1 0 0 1 -23 -92 )">
    <path d="M 2.53699788583509 5.3953488372093  C 2.53945031712473 3.75957716701902  2.53454545454545 2.12625792811839  2.53699788583509 0.490486257928121  C 4.17276955602537 0.488033826638478  5.80854122621564 0.488033826638478  7.44186046511628 0.490486257928121  C 7.44431289640592 2.12625792811839  7.44431289640592 3.75957716701902  7.44186046511628 5.3953488372093  C 6.62520084566596 5.3953488372093  5.80854122621564 5.3953488372093  4.98942917547569 5.3953488372093  C 4.98942917547569 6.21200845665962  4.98942917547569 7.02866807610995  4.98697674418605 7.84532769556025  C 3.35365750528541 7.84778012684989  1.72033826638478 7.84778012684989  0.0870190274841437 7.84532769556025  C 0.0845665961945033 7.02866807610995  0.0845665961945033 6.21200845665962  0.0845665961945033 5.3953488372093  C 0.901226215644819 5.3953488372093  1.72033826638478 5.3953488372093  2.53699788583509 5.3953488372093  Z " fill-rule="nonzero" fill="#1980ff" stroke="none" transform="matrix(1 0 0 1 23 92 )" />
  </g>
</svg>