<?xml version="1.0" encoding="utf-8"?>
<svg version="1.1" xmlns:xlink="http://www.w3.org/1999/xlink" width="14px" height="13px" xmlns="http://www.w3.org/2000/svg">
  <g transform="matrix(1 0 0 1 -65 -79 )">
    <path d="M 0.375151162790701 6.39897286821706  C 0.153267441860466 4.42142764857881  1.24144186046511 2.50963824289406  2.78990697674418 1.41370801033591  C 5.37461627906976 -0.398229974160203  9.08526744186047 -0.381182170542636  11.5779186046512 1.60854005167958  C 13.2562093023256 2.89199612403101  14.1838720930233 5.26894702842377  13.5111395348837 7.36095607235142  C 13.1334651162791 8.71503875968993  12.1420697674419 9.75008397932816  11.0893023255814 10.5902971576227  C 11.2096860465116 11.148003875969  11.3253488372093 11.7105813953488  11.4126860465116 12.2780297157623  C 10.5794418604651 11.9443798449612  9.77216279069768 11.1431330749354  8.82089534883721 11.5035723514212  C 7.00569767441861 11.9638630490956  5.03706976744186 11.6984043927649  3.38474418604651 10.802177002584  C 1.80087209302325 9.92056201550387  0.504976744186044 8.30345607235142  0.375151162790701 6.39897286821706  Z M 5.18813953488371 4.87684754521964  C 6.32588372093022 4.45308785529715  5.5398488372093 2.51450904392765  4.44223255813953 3.09413436692507  C 3.29740697674419 3.51789405684754  4.08344186046511 5.44429586563307  5.18813953488371 4.87684754521964  Z M 9.67066279069767 4.87684754521964  C 10.8084069767442 4.44821705426356  10.0294534883721 2.51937984496124  8.92239534883721 3.08439276485788  C 7.78937209302326 3.52763565891473  8.56360465116279 5.43455426356589  9.67066279069767 4.87684754521964  Z " fill-rule="nonzero" fill="#ffffff" stroke="none" transform="matrix(1 0 0 1 65 79 )" />
  </g>
</svg>