<?xml version="1.0" encoding="utf-8"?>
<svg version="1.1" xmlns:xlink="http://www.w3.org/1999/xlink" width="6px" height="6px" xmlns="http://www.w3.org/2000/svg">
  <g transform="matrix(1 0 0 1 -78 -110 )">
    <path d="M 0.505813953488374 2.73837209302325  C 0.50328488372093 1.89366279069768  0.505813953488374 1.05148255813953  0.508343023255808 0.20930232558139  C 1.35052325581394 0.206773255813957  2.19017441860466 0.206773255813957  3.03235465116279 0.20930232558139  C 3.03488372093024 1.05148255813953  3.03488372093024 1.89366279069768  3.03488372093024 2.73837209302325  C 3.87706395348837 2.73584302325582  4.71924418604652 2.73837209302325  5.56395348837209 2.7409011627907  C 5.56395348837209 3.58055232558138  5.56395348837209 4.42273255813954  5.56395348837209 5.26744186046511  C 4.72177325581395 5.26744186046511  3.8795930232558 5.26744186046511  3.03741279069767 5.26744186046511  C 3.03741279069767 4.42526162790698  3.03488372093024 3.58308139534883  3.03235465116279 2.7409011627907  C 2.19017441860466 2.73837209302325  1.34799418604651 2.73584302325582  0.505813953488374 2.73837209302325  Z " fill-rule="nonzero" fill="#1980ff" stroke="none" transform="matrix(1 0 0 1 78 110 )" />
  </g>
</svg>