<?xml version="1.0" encoding="utf-8"?>
<svg version="1.1" xmlns:xlink="http://www.w3.org/1999/xlink" width="17px" height="17px" xmlns="http://www.w3.org/2000/svg">
  <g transform="matrix(1 0 0 1 -23 -110 )">
    <path d="M 0.0823643410852715 16.9176356589147  C 0.0823643410852715 11.3451114341085  0.0799757751937976 5.77019864341084  0.0847529069767441 0.197674418604646  C 5.65727713178295 0.197674418604646  11.2298013565891 0.197674418604646  16.8023255813953 0.197674418604646  C 16.8047141472868 5.77019864341084  16.8023255813953 11.3451114341085  16.7999370155039 16.9176356589147  C 11.2274127906977 16.9176356589147  5.65488856589147 16.9176356589147  0.0823643410852715 16.9176356589147  Z M 14.4137596899225 2.58862887596899  C 10.4320203488372 2.58385174418605  6.45266957364341 2.58385174418605  2.47093023255814 2.58862887596899  C 2.47093023255814 6.56797965116279  2.47093023255814 10.5473304263566  2.47093023255814 14.5290697674419  C 6.45028100775194 14.5290697674419  10.4320203488372 14.5290697674419  14.411371124031 14.5290697674419  C 14.416148255814 10.5473304263566  14.4137596899225 6.56797965116279  14.4137596899225 2.58862887596899  Z " fill-rule="nonzero" fill="#1980ff" stroke="none" transform="matrix(1 0 0 1 23 110 )" />
  </g>
</svg>