<?xml version="1.0" encoding="utf-8"?>
<svg version="1.1" xmlns:xlink="http://www.w3.org/1999/xlink" width="11px" height="18px" xmlns="http://www.w3.org/2000/svg">
  <g transform="matrix(1 0 0 1 -35 -87 )">
    <path d="M 5.66201550387597 3.09767441860465  C 5.65954263565891 2.28675348837209  5.66201550387597 1.47826046511628  5.66448837209303 0.669767441860466  C 6.48795348837209 0.669767441860466  7.31141860465116 0.669767441860466  8.13488372093023 0.669767441860466  C 8.13488372093023 1.47826046511628  8.13488372093023 2.28675348837209  8.13735658914729 3.09524651162791  C 8.96082170542636 3.09767441860465  9.78428682170543 3.09767441860465  10.6077519379845 3.09767441860465  C 10.6077519379845 4.71708837209302  10.6077519379845 6.33650232558138  10.6077519379845 7.95591627906976  C 9.92524031007752 7.95348837209302  9.24025581395349 7.92678139534883  8.55774418604651 7.93406511627907  C 8.28325581395348 8.01661395348836  8.04091472868217 8.30067906976744  8.11262790697674 8.59931162790698  C 8.14477519379845 10.0002139534884  8.13488372093023 11.4035441860465  8.13735658914729 12.8068744186047  C 8.96082170542636 12.8093023255814  9.78428682170543 12.8093023255814  10.6077519379845 12.8093023255814  C 10.6077519379845 14.426288372093  10.6077519379845 16.0457023255814  10.6077519379845 17.6651162790698  C 9.78428682170543 17.6651162790698  8.9583488372093 17.6651162790698  8.13488372093023 17.662688372093  C 8.13241085271317 16.0457023255814  8.13735658914729 14.4287162790698  8.13735658914729 12.8093023255814  C 7.31141860465116 12.8068744186047  6.48795348837209 12.8093023255814  5.66201550387597 12.8117302325581  C 5.66201550387597 13.6202232558139  5.66201550387597 14.4287162790698  5.66201550387597 15.2372093023256  C 4.8385503875969 15.2372093023256  4.01508527131783 15.2372093023256  3.1891472868217 15.2372093023256  C 3.18667441860465 14.4287162790698  3.18667441860465 13.6202232558139  3.19162015503876 12.8093023255814  C 4.01508527131783 12.8117302325581  4.8385503875969 12.8093023255814  5.66201550387597 12.8093023255814  C 5.66448837209303 12.0008093023256  5.66201550387597 11.189888372093  5.65954263565891 10.3813953488372  C 4.83607751937984 10.3813953488372  4.01261240310077 10.3813953488372  3.1891472868217 10.3813953488372  C 3.1891472868217 9.5729023255814  3.1891472868217 8.76440930232557  3.18667441860465 7.95591627906976  C 2.36320930232558 7.95348837209302  1.53974418604651 7.95348837209302  0.71627906976744 7.95348837209302  C 0.71627906976744 7.14499534883721  0.71627906976744 6.33407441860465  0.718751937984497 5.52558139534884  C 1.54221705426357 5.52315348837209  2.36568217054263 5.52315348837209  3.1891472868217 5.52558139534884  C 3.18667441860465 4.71708837209302  3.19162015503876 3.90859534883721  3.19162015503876 3.10010232558139  C 4.01508527131783 3.10010232558139  4.8385503875969 3.09767441860465  5.66201550387597 3.09767441860465  Z M 8.13735658914729 3.09767441860465  C 7.31141860465116 3.09524651162791  6.48795348837209 3.09767441860465  5.66201550387597 3.10010232558139  C 5.66201550387597 3.90859534883721  5.66201550387597 4.71708837209302  5.66201550387597 5.52558139534884  C 4.8385503875969 5.52315348837209  4.01508527131783 5.52558139534884  3.19162015503876 5.52800930232558  C 3.18667441860465 6.33650232558138  3.18667441860465 7.14499534883721  3.1891472868217 7.95348837209302  C 4.82124031007752 7.91464186046511  6.4656976744186 8.0238976744186  8.09037209302326 7.90978604651162  C 8.20659689922481 6.31465116279069  8.09779069767442 4.70009302325582  8.13735658914729 3.09767441860465  Z " fill-rule="nonzero" fill="#1980ff" stroke="none" transform="matrix(1 0 0 1 35 87 )" />
  </g>
</svg>