<?xml version="1.0" encoding="utf-8"?>
<svg version="1.1" xmlns:xlink="http://www.w3.org/1999/xlink" width="17px" height="17px" xmlns="http://www.w3.org/2000/svg">
  <g transform="matrix(1 0 0 1 -96 -37 )">
    <path d="M 0.200062984496122 16.8023255813953  C 0.197674418604646 11.2298013565891  0.197674418604646 5.65488856589147  0.200062984496122 0.0823643410852715  C 5.77258720930232 0.0823643410852715  11.3451114341085 0.0823643410852715  16.9176356589147 0.0823643410852715  C 16.9176356589147 5.65488856589147  16.9176356589147 11.2274127906977  16.9176356589147 16.8023255813953  C 11.3451114341085 16.8047141472868  5.77258720930232 16.8023255813953  0.200062984496122 16.8023255813953  Z M 14.5290697674419 2.47093023255814  C 10.5473304263566 2.47093023255814  6.56797965116279 2.47093023255814  2.58624031007751 2.47093023255814  C 2.58385174418605 6.45266957364341  2.58385174418605 10.4320203488372  2.58862887596899 14.4137596899225  C 6.56797965116279 14.4137596899225  10.5473304263566 14.416148255814  14.5266812015504 14.4137596899225  C 14.5314583333333 10.4320203488372  14.5290697674419 6.45266957364341  14.5290697674419 2.47093023255814  Z " fill-rule="nonzero" fill="#1980ff" stroke="none" transform="matrix(1 0 0 1 96 37 )" />
  </g>
</svg>