<?xml version="1.0" encoding="utf-8"?>
<svg version="1.1" xmlns:xlink="http://www.w3.org/1999/xlink" width="35px" height="24px" xmlns="http://www.w3.org/2000/svg">
  <g transform="matrix(1 0 0 1 -59 -37 )">
    <path d="M 0.508720930232556 2.46238030095759  C 0.506262112403102 1.66974008207934  0.506262112403102 0.874719562243501  0.508720930232556 0.0820793433652532  C 3.78632509689923 0.0820793433652532  7.06638808139535 0.0820793433652532  10.343992248062 0.0820793433652532  C 10.343992248062 0.874719562243501  10.343992248062 1.66735978112175  10.343992248062 2.46238030095759  C 11.1627785852713 2.46238030095759  11.9815649224806 2.46238030095759  12.8028100775194 2.46238030095759  C 12.8028100775194 3.25502051983584  12.8028100775194 4.04766073871409  12.8028100775194 4.84030095759234  C 13.6240552325581 4.84268125854993  14.4428415697674 4.84268125854993  15.2616279069767 4.84268125854993  C 15.2616279069767 4.04766073871409  15.2616279069767 3.25502051983584  15.2616279069767 2.46238030095759  C 16.0804142441861 2.46238030095759  16.8992005813953 2.46238030095759  17.7204457364341 2.46238030095759  C 17.7204457364341 1.66974008207934  17.7204457364341 0.874719562243501  17.7229045542636 0.0820793433652532  C 23.4593265503876 0.0820793433652532  29.1957485465116 0.0820793433652532  34.9321705426357 0.0820793433652532  C 34.9321705426357 3.25502051983584  34.9321705426357 6.43034199726402  34.9321705426357 9.60328317373461  C 34.1109253875969 9.60328317373461  33.2921390503876 9.60328317373461  32.4758115310078 9.6056634746922  C 32.4733527131783 10.3983036935705  32.4733527131783 11.1909439124487  32.4733527131783 11.9835841313269  C 31.6521075581395 11.9835841313269  30.8333212209302 11.9835841313269  30.0145348837209 11.9835841313269  C 30.0145348837209 11.1909439124487  30.0145348837209 10.3983036935705  30.0145348837209 9.6056634746922  C 29.1932897286822 9.60328317373461  28.3745033914729 9.60090287277702  27.5557170542636 9.60090287277702  C 27.5557170542636 8.01562243502052  27.5557170542636 6.43034199726402  27.5557170542636 4.84268125854993  C 28.3745033914729 4.84268125854993  29.1932897286822 4.84030095759234  30.0120760658915 4.84268125854993  C 30.0120760658915 5.63532147742818  30.0145348837209 6.43034199726402  30.0145348837209 7.22298221614227  C 30.8333212209302 7.22298221614227  31.6521075581395 7.22298221614227  32.4708938953488 7.22298221614227  C 32.4733527131783 5.63532147742818  32.4733527131783 4.05004103967168  32.4733527131783 2.46238030095759  C 28.3745033914729 2.46238030095759  24.2781128875969 2.46238030095759  20.1792635658915 2.46238030095759  C 20.176804748062 3.25502051983584  20.176804748062 4.05004103967168  20.1792635658915 4.84268125854993  C 21.8168362403101 4.84268125854993  23.4568677325581 4.84268125854993  25.0968992248062 4.84268125854993  C 25.0968992248062 5.63532147742818  25.0968992248062 6.42796169630643  25.0968992248062 7.22060191518468  C 23.4568677325581 7.22774281805746  21.8192950581395 7.22060191518468  20.1817223837209 7.22298221614227  C 20.1792635658915 6.43034199726402  20.1792635658915 5.63770177838577  20.176804748062 4.84506155950752  C 19.3580184108527 4.84268125854993  18.5367732558139 4.84030095759234  17.7179869186047 4.84268125854993  C 17.7179869186047 5.63770177838577  17.7179869186047 6.43034199726402  17.7204457364341 7.22298221614227  C 18.5416908914729 7.22298221614227  19.3604772286822 7.22298221614227  20.1817223837209 7.22298221614227  C 20.1792635658915 8.01562243502052  20.1792635658915 8.80826265389877  20.176804748062 9.60328317373461  C 19.3580184108527 9.60328317373461  18.5416908914729 9.60328317373461  17.7229045542636 9.60328317373461  C 17.7204457364341 8.81064295485636  17.7204457364341 8.01800273597811  17.7179869186047 7.22298221614227  C 16.8992005813953 7.22298221614227  16.0804142441861 7.22060191518468  15.2616279069767 7.22298221614227  C 15.2616279069767 8.01562243502052  15.2591690891473 8.81064295485636  15.2616279069767 9.60328317373461  C 14.4428415697674 9.60328317373461  13.6240552325581 9.60328317373461  12.8052688953488 9.6056634746922  C 12.8028100775194 10.3983036935705  12.8028100775194 11.1909439124487  12.8028100775194 11.9835841313269  C 11.9840237403101 11.9835841313269  11.1652374031008 11.9835841313269  10.3464510658915 11.9835841313269  C 10.3415334302326 13.571244870041  10.3415334302326 15.1565253077975  10.343992248062 16.7441860465116  C 11.1627785852713 16.7441860465116  11.9815649224806 16.7441860465116  12.8003512596899 16.7441860465116  C 12.8028100775194 15.9515458276334  12.8052688953488 15.1565253077975  12.8052688953488 14.3638850889193  C 13.6240552325581 14.3638850889193  14.4428415697674 14.3638850889193  15.2616279069767 14.3638850889193  C 15.2591690891473 15.1565253077975  15.2616279069767 15.9491655266758  15.2616279069767 16.741805745554  C 16.0804142441861 16.7441860465116  16.8992005813953 16.7441860465116  17.7179869186047 16.7441860465116  C 17.7204457364341 15.9515458276334  17.7229045542636 15.1589056087551  17.7229045542636 14.3662653898769  C 18.5416908914729 14.3662653898769  19.3604772286822 14.3638850889193  20.176804748062 14.3638850889193  C 20.1792635658915 15.1565253077975  20.1792635658915 15.9515458276334  20.1792635658915 16.7441860465116  C 19.3604772286822 16.741805745554  18.5416908914729 16.7441860465116  17.7229045542636 16.7465663474692  C 17.7179869186047 19.124487004104  17.7229045542636 21.5047879616963  17.7179869186047 23.8827086183311  C 16.8992005813953 23.8850889192886  16.0804142441861 23.8850889192886  15.2616279069767 23.8827086183311  C 15.2616279069767 23.0900683994528  15.2616279069767 22.2974281805746  15.2616279069767 21.5047879616963  C 14.4428415697674 21.5047879616963  13.6240552325581 21.5047879616963  12.8052688953488 21.5047879616963  C 12.8028100775194 20.7121477428181  12.8028100775194 19.9171272229822  12.8003512596899 19.124487004104  C 11.9815649224806 19.1221067031464  11.1627785852713 19.1221067031464  10.3464510658915 19.124487004104  C 10.343992248062 19.9171272229822  10.3415334302326 20.7097674418605  10.343992248062 21.5047879616963  C 9.52520591085271 21.5047879616963  8.70396075581396 21.5047879616963  7.88517441860465 21.5047879616963  C 7.88517441860465 17.5368262653899  7.88271560077519 13.571244870041  7.8876332364341 9.60328317373461  C 8.70641957364341 9.60090287277702  9.52520591085271 9.60328317373461  10.343992248062 9.60328317373461  C 10.3415334302326 8.80826265389877  10.3415334302326 8.01562243502052  10.343992248062 7.22298221614227  C 11.1627785852713 7.22298221614227  11.9815649224806 7.22298221614227  12.8003512596899 7.22298221614227  C 12.8028100775194 6.43034199726402  12.8052688953488 5.63532147742818  12.8028100775194 4.84268125854993  C 11.1652374031008 4.84506155950752  9.52520591085271 4.84030095759234  7.88517441860465 4.84506155950752  C 7.88517441860465 5.63532147742818  7.8876332364341 6.42796169630643  7.88517441860465 7.22060191518468  C 7.06638808139535 7.22298221614227  6.24514292635659 7.22536251709986  5.42635658914729 7.22298221614227  C 5.42389777131783 5.63532147742818  5.42635658914729 4.05004103967168  5.42635658914729 2.46238030095759  C 3.78632509689923 2.46238030095759  2.14875242248062 2.46238030095759  0.508720930232556 2.46238030095759  Z " fill-rule="nonzero" fill="#1980ff" stroke="none" transform="matrix(1 0 0 1 59 37 )" />
  </g>
</svg>