<?xml version="1.0" encoding="utf-8"?>
<svg version="1.1" xmlns:xlink="http://www.w3.org/1999/xlink" width="40px" height="44px" xmlns="http://www.w3.org/2000/svg">
  <g transform="matrix(1 0 0 1 -73 -83 )">
    <path d="M 12.938689217759 4.99885627144491  C 12.938689217759 3.3764925657644  12.938689217759 1.7565611894777  12.9411416490486 0.134197483797179  C 13.7578012684989 0.131765154403353  14.5744608879493 0.131765154403353  15.3911205073996 0.131765154403353  C 15.3886680761099 0.944163171940529  15.3911205073996 1.75412886008387  15.3935729386892 2.56652687762105  C 16.2077801268499 2.56652687762105  17.0244397463002 2.56409454822722  17.8410993657505 2.56652687762105  C 17.8460042283298 4.18889058330156  17.8410993657505 5.80882195958826  17.8460042283298 7.42875333587495  C 19.4793234672304 7.43118566526878  21.1126427061311 7.43118566526878  22.7459619450317 7.42875333587495  C 22.7484143763214 6.6187876477316  22.7484143763214 5.80882195958826  22.7484143763214 4.99885627144491  C 21.9293023255814 4.99885627144491  21.1126427061311 4.99885627144491  20.2959830866808 4.99885627144491  C 20.2959830866808 4.18645825390774  20.2959830866808 3.3764925657644  20.2959830866808 2.56652687762105  C 21.931754756871 2.56652687762105  23.5650739957717 2.56652687762105  25.2008456659619 2.56652687762105  C 25.2032980972516 4.18889058330156  25.2032980972516 5.80882195958826  25.1983932346723 7.43118566526878  C 24.381733615222 7.43118566526878  23.5650739957717 7.43361799466259  22.7484143763214 7.43118566526878  C 22.7459619450317 8.24115135341213  22.7459619450317 9.05111704155548  22.750866807611 9.86351505909265  C 24.3841860465116 9.86837971788029  26.0175052854122 9.85865040030499  27.6508245243129 9.86351505909265  C 27.6532769556025 10.673480747236  27.6557293868922 11.4834464353793  27.6532769556025 12.2958444529165  C 26.8366173361522 12.2934121235227  26.0199577167019 12.2934121235227  25.2032980972516 12.2958444529165  C 25.1959408033827 13.918208158597  25.2057505285412 15.5381395348837  25.2008456659619 17.1605032405642  C 24.381733615222 17.1605032405642  23.5650739957717 17.1605032405642  22.7484143763214 17.1629355699581  C 22.7459619450317 17.9729012581014  22.7459619450317 18.7828669462448  22.7484143763214 19.5928326343881  C 23.5650739957717 19.5904003049943  24.381733615222 19.5904003049943  25.2008456659619 19.5928326343881  C 25.2008456659619 20.4027983225314  25.2008456659619 21.2127640106748  25.2008456659619 22.0227296988182  C 26.0175052854122 22.0275943576058  26.8341649048626 22.025162028212  27.6532769556025 22.0227296988182  C 27.6508245243129 21.2127640106748  27.6508245243129 20.4027983225314  27.6532769556025 19.5952649637819  C 28.4699365750528 19.5904003049943  29.2865961945032 19.5904003049943  30.1057082452431 19.5976972931757  C 30.1057082452431 21.2176286694624  30.1057082452431 22.8375600457491  30.1057082452431 24.4574914220358  C 30.9223678646934 24.4574914220358  31.7390274841438 24.4574914220358  32.5581395348837 24.4574914220358  C 32.5581395348837 25.2674571101792  32.5581395348837 26.0774227983225  32.5605919661734 26.8898208158597  C 33.3772515856237 26.8898208158597  34.1914587737844 26.8898208158597  35.0105708245243 26.8898208158597  C 35.0081183932347 25.4839344262295  35.0032135306554 24.0780480365993  35.0326427061311 22.6721616469691  C 35.101310782241 22.3729851315288  34.8634249471459 22.0884025924514  34.5912050739958 22.0057033930614  C 33.9118816067653 21.9959740754861  33.2325581395349 22.025162028212  32.5532346723044 22.0300266869996  C 32.5581395348837 21.4341059855128  32.5753065539112 20.8381852840259  32.5802114164905 20.2422645825391  C 32.6513319238901 19.9406557377049  32.4109936575053 19.6560731986275  32.1387737843552 19.5733739992375  C 31.4594503171247 19.566077011056  30.7825792811839 19.5928326343881  30.1057082452431 19.5976972931757  C 30.1057082452431 18.7852992756386  30.1057082452431 17.9729012581014  30.1057082452431 17.1605032405642  C 30.9223678646934 17.1605032405642  31.7414799154334 17.1605032405642  32.5605919661734 17.1629355699581  C 32.5826638477801 17.9558749523446  32.4821141649049 18.7609759817003  32.6022832980972 19.5490507052993  C 33.3968710359408 19.6682348455966  34.2086257928118 19.566077011056  35.0130232558139 19.5904003049943  C 35.0375475687104 20.3857720167747  34.9345454545455 21.1933053755242  35.0547145877378 21.9813800991231  C 35.8493023255814 22.0981319100267  36.6610570824524 21.9984064048799  37.4630021141649 22.0227296988182  C 37.4605496828753 21.2127640106748  37.4605496828753 20.4027983225314  37.4630021141649 19.5952649637819  C 38.2796617336152 19.5904003049943  39.0963213530655 19.5904003049943  39.9154334038055 19.5928326343881  C 39.9154334038055 20.4027983225314  39.9154334038055 21.2127640106748  39.9154334038055 22.025162028212  C 39.0987737843552 22.025162028212  38.2821141649049 22.025162028212  37.4654545454545 22.0275943576058  C 37.4605496828753 23.6475257338925  37.4654545454545 25.2674571101792  37.4630021141649 26.8898208158597  C 36.6438900634249 26.8898208158597  35.8272304439746 26.8898208158597  35.0130232558139 26.8898208158597  C 35.0081183932347 27.6997865040031  35.0081183932347 28.5121845215402  35.0105708245243 29.3221502096836  C 36.6463424947146 29.3245825390774  38.2796617336152 29.3172855508959  39.9154334038055 29.3221502096836  C 39.9154334038055 30.1321158978269  39.9154334038055 30.9445139153641  39.9154334038055 31.7544796035074  C 39.0963213530655 31.7544796035074  38.2796617336152 31.7544796035074  37.4654545454545 31.7569119329013  C 37.4630021141649 32.5668776210446  37.4630021141649 33.376843309188  37.4630021141649 34.1868089973313  C 35.0105708245243 34.1868089973313  32.5581395348837 34.1843766679375  30.1057082452431 34.1868089973313  C 30.1057082452431 34.9967746854746  30.1057082452431 35.806740373618  30.1057082452431 36.6191383911552  C 29.2890486257928 36.6191383911552  28.4723890063425 36.6191383911552  27.6557293868922 36.6191383911552  C 27.6508245243129 38.2415020968357  27.6508245243129 39.8614334731224  27.6557293868922 41.4837971788029  C 28.4723890063425 41.4837971788029  29.2890486257928 41.4837971788029  30.1057082452431 41.4837971788029  C 30.1057082452431 42.2937628669462  30.1057082452431 43.1037285550896  30.1057082452431 43.9161265726268  C 27.6532769556025 43.9161265726268  25.2008456659619 43.9161265726268  22.7484143763214 43.9161265726268  C 22.7484143763214 43.1037285550896  22.7484143763214 42.2937628669462  22.750866807611 41.4837971788029  C 23.5650739957717 41.4813648494091  24.381733615222 41.4813648494091  25.1983932346723 41.4837971788029  C 25.2008456659619 40.6713991612657  25.2032980972516 39.8614334731224  25.2008456659619 39.051467784979  C 24.381733615222 39.051467784979  23.5650739957717 39.051467784979  22.750866807611 39.051467784979  C 22.7459619450317 37.4291040792985  22.7484143763214 35.8091727030118  22.7484143763214 34.1868089973313  C 21.9293023255814 34.1868089973313  21.1126427061311 34.1868089973313  20.2959830866808 34.1868089973313  C 20.2959830866808 34.9967746854746  20.2959830866808 35.806740373618  20.2959830866808 36.6191383911552  C 19.4768710359408 36.6191383911552  18.6602114164905 36.6191383911552  17.8435517970402 36.6191383911552  C 17.8410993657505 34.9967746854746  17.8460042283298 33.376843309188  17.8410993657505 31.7569119329013  C 17.0244397463002 31.7520472741136  16.2077801268499 31.7520472741136  15.3911205073996 31.7544796035074  C 15.3886680761099 33.376843309188  15.3911205073996 34.9967746854746  15.3911205073996 36.6191383911552  C 16.2077801268499 36.6191383911552  17.0244397463002 36.621570720549  17.8410993657505 36.621570720549  C 17.8435517970402 38.2415020968357  17.8435517970402 39.8614334731224  17.8460042283298 41.4813648494091  C 16.2077801268499 41.4862295081967  14.5744608879493 41.4813648494091  12.938689217759 41.4813648494091  C 12.9362367864693 40.6713991612657  12.9362367864693 39.8614334731224  12.9411416490486 39.051467784979  C 13.7553488372093 39.0490354555852  14.5744608879493 39.0490354555852  15.3911205073996 39.051467784979  C 15.3911205073996 38.2415020968357  15.3935729386892 37.4291040792985  15.3886680761099 36.621570720549  C 13.7553488372093 36.6191383911552  12.1220295983087 36.6191383911552  10.4862579281184 36.6191383911552  C 10.4838054968288 38.2415020968357  10.4862579281184 39.8614334731224  10.4862579281184 41.4837971788029  C 9.66959830866808 41.4837971788029  8.85048625792811 41.4837971788029  8.03627906976744 41.4837971788029  C 8.03627906976744 40.6713991612657  8.03137420718816 39.8614334731224  8.03137420718816 39.051467784979  C 6.39805496828752 39.0490354555852  4.76473572938689 39.0490354555852  3.13141649048625 39.051467784979  C 3.12651162790698 39.8614334731224  3.12651162790698 40.6713991612657  3.12896405919662 41.4837971788029  C 3.94562367864694 41.4813648494091  4.76228329809726 41.4837971788029  5.57894291754757 41.4837971788029  C 5.58139534883721 42.2937628669462  5.58384778012684 43.1037285550896  5.58139534883721 43.9161265726268  C 4.76228329809726 43.9161265726268  3.94562367864694 43.9161265726268  3.12896405919662 43.9161265726268  C 3.12896405919662 43.1061608844834  3.12896405919662 42.2961951963401  3.12651162790698 41.4862295081967  C 2.30985200845666 41.4837971788029  1.49319238900635 41.4837971788029  0.676532769556026 41.4837971788029  C 0.676532769556026 39.8614334731224  0.676532769556026 38.2390697674419  0.676532769556026 36.6191383911552  C 2.30985200845666 36.6191383911552  3.94562367864694 36.6191383911552  5.57894291754757 36.6191383911552  C 5.58139534883721 35.806740373618  5.58139534883721 34.9967746854746  5.58139534883721 34.1868089973313  C 8.0338266384778 34.1868089973313  10.4862579281184 34.1868089973313  12.938689217759 34.1868089973313  C 12.9264270613108 28.6483949675944  12.9632135306554 23.1124132672512  12.9190697674419 17.5764315669081  C 13.0024524312896 17.3040106747998  13.2893868921776 17.0680747235989  13.5910359408034 17.1386122760198  C 15.0085412262156 17.1678002287457  16.4235940803383 17.1605032405642  17.8410993657505 17.1629355699581  C 17.8410993657505 17.9729012581014  17.8435517970402 18.7828669462448  17.8460042283298 19.5928326343881  C 18.6626638477801 19.5928326343881  19.4793234672304 19.5928326343881  20.2959830866808 19.5928326343881  C 20.2959830866808 20.4027983225314  20.2959830866808 21.2127640106748  20.2959830866808 22.025162028212  C 21.1126427061311 22.025162028212  21.9293023255814 22.025162028212  22.7459619450317 22.025162028212  C 22.7484143763214 21.2151963400686  22.750866807611 20.4052306519253  22.7484143763214 19.5952649637819  C 21.9293023255814 19.5928326343881  21.1126427061311 19.5904003049943  20.2959830866808 19.5928326343881  C 20.2959830866808 18.7804346168509  20.2959830866808 17.9704689287076  20.2959830866808 17.1605032405642  C 19.4768710359408 17.1605032405642  18.6602114164905 17.1605032405642  17.8435517970402 17.1605032405642  C 17.8435517970402 16.3481052230271  17.8435517970402 15.5381395348837  17.8435517970402 14.7281738467404  C 18.6602114164905 14.7281738467404  19.4768710359408 14.7281738467404  20.2959830866808 14.7281738467404  C 20.2959830866808 13.9157758292032  20.2959830866808 13.1058101410599  20.2959830866808 12.2958444529165  C 19.4793234672304 12.2958444529165  18.6626638477801 12.2958444529165  17.8460042283298 12.2982767823103  C 17.8435517970402 13.1082424704537  17.8435517970402 13.918208158597  17.8435517970402 14.7281738467404  C 17.0268921775899 14.7281738467404  16.2077801268499 14.7281738467404  15.3911205073996 14.7281738467404  C 15.3886680761099 13.9157758292032  15.3886680761099 13.1058101410599  15.3911205073996 12.2958444529165  C 16.2077801268499 12.2958444529165  17.0268921775899 12.2934121235227  17.8435517970402 12.2934121235227  C 17.8435517970402 11.4834464353793  17.8435517970402 10.673480747236  17.8435517970402 9.86351505909265  C 17.0244397463002 9.86351505909265  16.2077801268499 9.86108272969882  15.3911205073996 9.86351505909265  C 15.3886680761099 8.24115135341213  15.3960253699788 6.62121997712543  15.3886680761099 4.99885627144491  C 14.5720084566596 4.99885627144491  13.7553488372093 4.99885627144491  12.938689217759 4.99885627144491  Z M 17.8410993657505 19.5928326343881  C 17.0244397463002 19.5904003049943  16.2077801268499 19.5904003049943  15.3911205073996 19.5928326343881  C 15.3911205073996 21.2151963400686  15.3886680761099 22.8351277163553  15.3911205073996 24.4574914220358  C 16.2077801268499 24.4574914220358  17.0268921775899 24.4574914220358  17.8435517970402 24.4574914220358  C 17.8435517970402 22.8351277163553  17.8435517970402 21.2151963400686  17.8410993657505 19.5928326343881  Z M 27.6532769556025 24.4574914220358  C 25.2008456659619 24.4574914220358  22.7484143763214 24.4574914220358  20.2959830866808 24.4574914220358  C 20.2959830866808 26.8898208158597  20.2959830866808 29.3221502096836  20.2959830866808 31.7544796035074  C 22.7484143763214 31.7544796035074  25.2008456659619 31.7569119329013  27.6532769556025 31.7520472741136  C 27.6532769556025 29.3197178802897  27.6532769556025 26.8898208158597  27.6532769556025 24.4574914220358  Z M 17.8435517970402 26.8922531452535  C 17.0268921775899 26.8873884864659  16.2102325581395 26.8873884864659  15.3911205073996 26.8898208158597  C 15.3886680761099 27.6997865040031  15.3886680761099 28.5121845215402  15.3911205073996 29.3221502096836  C 16.2077801268499 29.3221502096836  17.0244397463002 29.3221502096836  17.8410993657505 29.3221502096836  C 17.8435517970402 28.5121845215402  17.8460042283298 27.7022188333969  17.8435517970402 26.8922531452535  Z M 32.5581395348837 29.3245825390774  C 31.7414799154334 29.3197178802897  30.9223678646934 29.3197178802897  30.1057082452431 29.3221502096836  C 30.1057082452431 30.1321158978269  30.1057082452431 30.9420815859703  30.1057082452431 31.7544796035074  C 30.9223678646934 31.7544796035074  31.7390274841438 31.7544796035074  32.5556871035941 31.7544796035074  C 32.5581395348837 30.9445139153641  32.5605919661734 30.1345482272207  32.5581395348837 29.3245825390774  Z " fill-rule="nonzero" fill="#1980ff" stroke="none" transform="matrix(1 0 0 1 73 83 )" />
  </g>
</svg>