<?xml version="1.0" encoding="utf-8"?>
<svg version="1.1" xmlns:xlink="http://www.w3.org/1999/xlink" width="147px" height="142px" xmlns="http://www.w3.org/2000/svg">
  <g>
    <path d="M 0.5 138.4  C 0.5 138.4  0.5 3  0.5 3  C 0.5 1.61928812542302  1.61928812542302 0.5  3 0.5  C 3 0.5  132 0.5  132 0.5  C 133.380711874577 0.5  134.5 1.61928812542302  134.5 3  C 134.5 3  134.5 61.7418844943757  134.5 61.7418844943757  C 134.5 61.7418844943757  146.218738835397 71.0192194057316  146.218738835397 71.0192194057316  C 146.218738835397 71.0192194057316  134.5 81.2731158867039  134.5 81.2731158867039  C 134.5 81.2731158867039  134.5 138.4  134.5 138.4  C 134.5 139.780711874577  133.380711874577 140.9  132 140.9  C 132 140.9  3 140.9  3 140.9  C 1.61928812542302 140.9  0.5 139.780711874577  0.5 138.4  Z " fill-rule="nonzero" fill="#ffffff" stroke="none" />
    <path d="M 0 138.4  C 0 138.4  0 3  0 3  C 0 1.34314575050762  1.34314575050762 0  3 0  C 3 0  132 0  132 0  C 133.656854249492 0  135 1.34314575050762  135 3  C 135 3  135 61.5000000000001  135 61.5000000000001  C 135 61.5000000000001  147 71  147 71  C 147 71  135 81.5000000000001  135 81.5000000000001  C 135 81.5000000000001  135 138.4  135 138.4  C 135 140.056854249492  133.656854249492 141.4  132 141.4  C 132 141.4  3 141.4  3 141.4  C 1.34314575050762 141.4  0 140.056854249492  0 138.4  Z M 1 138.4  C 1 139.504569499662  1.89543050033841 140.4  3 140.4  C 3 140.4  132 140.4  132 140.4  C 133.104569499662 140.4  134 139.504569499662  134 138.4  C 134 138.4  134 81.0462317734083  134 81.0462317734083  C 134 81.0462317734083  145.437477670794 71.0384388114632  145.437477670794 71.0384388114632  C 145.437477670794 71.0384388114632  134 61.9837689887512  134 61.9837689887512  C 134 61.9837689887512  134 3  134 3  C 134 1.89543050033841  133.104569499662 1  132 1  C 132 1  3 1  3 1  C 1.89543050033841 1  1 1.89543050033841  1 3  C 1 3  1 138.4  1 138.4  Z " fill-rule="nonzero" fill="#e4e4e4" stroke="none" />
  </g>
</svg>