<?xml version="1.0" encoding="utf-8"?>
<svg version="1.1" xmlns:xlink="http://www.w3.org/1999/xlink" width="8px" height="8px" xmlns="http://www.w3.org/2000/svg">
  <g transform="matrix(1 0 0 1 -105 -119 )">
    <path d="M 3.01057082452431 3.01057082452431  C 3.00811839323468 2.193911205074  3.01057082452431 1.37479915433403  3.01057082452431 0.560591966173361  C 3.82723044397463 0.555687103594075  4.64634249471458 0.555687103594075  5.46545454545454 0.560591966173361  C 5.4630021141649 2.193911205074  5.46054968287527 3.82723044397463  5.46545454545454 5.4630021141649  C 6.28211416490486 5.4630021141649  7.09632135306554 5.4630021141649  7.9154334038055 5.4630021141649  C 7.9154334038055 6.27966173361522  7.9154334038055 7.09632135306554  7.9154334038055 7.9154334038055  C 5.4630021141649 7.9154334038055  3.01057082452431 7.9154334038055  0.558139534883718 7.9154334038055  C 0.558139534883718 6.27966173361522  0.558139534883718 4.64634249471458  0.560591966173361 3.01057082452431  C 1.37479915433403 3.00811839323468  2.19145877378436 3.00811839323468  3.01057082452431 3.01057082452431  Z " fill-rule="nonzero" fill="#1980ff" stroke="none" transform="matrix(1 0 0 1 105 119 )" />
  </g>
</svg>