<svg xmlns="http://www.w3.org/2000/svg" xmlns:xlink="http://www.w3.org/1999/xlink" width="1252" height="650" version="1.1"><defs><mask id="clip2755" fill="#fff"><path fill-rule="evenodd" d="M 1248.99760191847 649.59375 L 2.00159872102318 649.59375 C 0.600479616306956 649.59375 -0.500399680255795 648.7 0.500399680255795 647.5625 L 0.500399680255795 0 L 1251.49960031974 0 L 1251.49960031974 647.5625 C 1251.49960031974 648.7 1250.39872102318 649.59375 1248.99760191847 649.59375 Z"/></mask></defs><g><path fill="#fff" fill-rule="nonzero" stroke="none" d="M 1248.99760191847 649.59375 L 2.00159872102318 649.59375 C 0.600479616306956 649.59375 -0.500399680255795 648.7 0.500399680255795 647.5625 L 0.500399680255795 0 L 1251.49960031974 0 L 1251.49960031974 647.5625 C 1251.49960031974 648.7 1250.39872102318 649.59375 1248.99760191847 649.59375 Z" transform="matrix(1 0 0 1 -24 -497 ) matrix(1 0 0 1 24 497 )"/><path fill="none" stroke="#e4e4e4" stroke-width="2" d="M 1248.99760191847 649.59375 L 2.00159872102318 649.59375 C 0.600479616306956 649.59375 -0.500399680255795 648.7 0.500399680255795 647.5625 L 0.500399680255795 0 L 1251.49960031974 0 L 1251.49960031974 647.5625 C 1251.49960031974 648.7 1250.39872102318 649.59375 1248.99760191847 649.59375 Z" mask="url(#clip2755)" transform="matrix(1 0 0 1 -24 -497 ) matrix(1 0 0 1 24 497 )"/></g></svg>