<svg xmlns="http://www.w3.org/2000/svg" xmlns:xlink="http://www.w3.org/1999/xlink" width="10" height="20" version="1.1"><g><path fill="#1980ff" fill-rule="nonzero" stroke="none" d="M 4.83147840531561 10.2135382059801 C 4.83629568106312 7.00282392026578 4.82906976744186 3.79451827242524 4.83629568106312 0.583803986710955 C 5.63837209302325 0.581395348837209 6.44044850498339 0.578986710963453 7.24252491694352 0.583803986710955 C 7.24011627906977 1.38588039867109 7.24252491694352 2.18795681063123 7.24252491694352 2.99003322259136 C 8.04460132890365 2.99003322259136 8.84667774086379 2.98762458471761 9.64875415282393 2.99003322259136 C 9.65116279069767 4.59659468438538 9.65116279069767 6.20074750830565 9.65116279069767 7.80730897009967 C 8.84908637873754 7.80730897009967 8.0470099667774 7.80730897009967 7.24493355481727 7.80730897009967 C 7.23770764119601 11.018023255814 7.24734219269103 14.2287375415282 7.24252491694352 17.4418604651163 C 5.63596345514949 17.4418604651163 4.02940199335548 17.4394518272425 2.42524916943521 17.4418604651163 C 2.42524916943521 18.2439368770764 2.42524916943521 19.0484219269103 2.42524916943521 19.8504983388704 C 1.62317275747509 19.8504983388704 0.818687707641185 19.8504983388704 0.0190199335548158 19.8480897009967 C 0.0166112956810593 18.2439368770764 0.014202657807313 16.6397840531561 0.0190199335548158 15.0356312292359 C 0.821096345514941 15.0332225913621 1.62317275747509 15.0332225913621 2.42524916943521 15.0332225913621 C 2.42524916943521 13.4266611295681 2.42524916943521 11.8225083056478 2.42524916943521 10.2159468438538 C 3.22732558139534 10.2159468438538 4.02940199335548 10.2159468438538 4.83147840531561 10.2135382059801 Z" transform="matrix(1 0 0 1 -101 -80 ) matrix(1 0 0 1 101 80 )"/></g></svg>