<svg xmlns="http://www.w3.org/2000/svg" xmlns:xlink="http://www.w3.org/1999/xlink" width="8" height="5" version="1.1"><g><path fill="#1980ff" fill-rule="nonzero" stroke="none" d="M 0.236786469344607 2.50830564784053 C 0.234334038054969 1.70382059800665 0.234334038054969 0.901744186046512 0.239238900634244 0.0996677740863764 C 2.6892177589852 0.0972591362126301 5.14164904862579 0.0996677740863764 7.59408033826638 0.0996677740863764 C 7.59408033826638 0.901744186046512 7.59408033826638 1.70382059800665 7.59408033826638 2.50830564784053 C 6.77742071881606 2.50830564784053 5.96076109936575 2.50830564784053 5.14410147991543 2.51071428571428 C 5.14164904862579 3.31279069767441 5.14164904862579 4.11486710963455 5.14164904862579 4.91694352159468 C 4.32498942917547 4.91694352159468 3.50587737843552 4.91694352159468 2.6892177589852 4.91694352159468 C 2.6892177589852 4.1124584717608 2.68676532769556 3.31038205980067 2.68676532769556 2.50830564784053 C 1.87010570824524 2.50589700996678 1.05344608879493 2.50589700996678 0.236786469344607 2.50830564784053 Z" transform="matrix(1 0 0 1 -57 -122 ) matrix(1 0 0 1 57 122 )"/></g></svg>