<svg xmlns="http://www.w3.org/2000/svg" xmlns:xlink="http://www.w3.org/1999/xlink" width="13" height="20" version="1.1"><g><path fill="#1980ff" fill-rule="nonzero" stroke="none" d="M 0.41989664082687 4.90033222591362 C 0.41989664082687 3.2937707641196 0.41989664082687 1.68961794019934 0.422332041343663 0.0854651162790697 C 2.04430878552971 0.0830564784053158 3.66628552971576 0.0806478405315606 5.2906976744186 0.0854651162790697 C 5.2906976744186 0.887541528239203 5.2906976744186 1.68961794019934 5.2906976744186 2.49169435215947 C 6.10168604651163 2.49169435215947 6.91510981912144 2.49169435215947 7.72609819121447 2.49169435215947 C 7.72609819121447 3.2937707641196 7.72609819121447 4.09584717607973 7.72609819121447 4.90033222591362 C 8.53952196382429 4.90033222591362 9.35051033591731 4.90033222591362 10.1614987080103 4.90274086378737 C 10.1614987080103 8.11345514950166 10.1590633074935 11.3217607973422 10.1639341085271 14.5324750830565 C 10.9749224806202 14.5348837209302 11.7859108527132 14.5348837209302 12.5968992248062 14.5348837209302 C 12.5968992248062 16.1414451827243 12.5968992248062 17.7455980066445 12.5968992248062 19.3521594684385 C 10.9724870801034 19.3521594684385 9.35051033591731 19.3521594684385 7.72853359173126 19.3521594684385 C 7.72366279069768 18.5476744186047 7.72366279069768 17.7455980066445 7.72609819121447 16.9435215946844 C 8.5370865633075 16.9435215946844 9.34807493540052 16.9435215946844 10.1590633074935 16.9435215946844 C 10.1614987080103 16.1390365448505 10.1639341085271 15.3369601328904 10.1639341085271 14.5348837209302 C 9.35051033591731 14.5324750830565 8.53952196382429 14.5348837209302 7.72853359173126 14.537292358804 C 7.72609819121447 15.3393687707641 7.72366279069768 16.1414451827243 7.72609819121447 16.9435215946844 C 6.91267441860465 16.9435215946844 6.10168604651163 16.9435215946844 5.2906976744186 16.9435215946844 C 5.28826227390181 16.1414451827243 5.2906976744186 15.3393687707641 5.2931330749354 14.5348837209302 C 6.10412144702842 14.537292358804 6.91510981912144 14.5348837209302 7.72609819121447 14.5348837209302 C 7.72609819121447 13.7328073089701 7.72853359173126 12.9283222591362 7.72366279069768 12.1262458471761 C 6.91267441860465 12.1262458471761 6.10168604651163 12.1262458471761 5.2906976744186 12.1262458471761 C 5.2906976744186 11.3241694352159 5.2906976744186 10.5220930232558 5.28826227390181 9.72001661129568 C 4.47727390180878 9.71760797342193 3.66628552971576 9.71760797342193 2.85529715762274 9.71760797342193 C 2.85529715762274 8.1110465116279 2.85773255813953 6.50689368770764 2.85529715762274 4.90033222591362 C 2.04187338501292 4.90033222591362 1.2308850129199 4.90033222591362 0.41989664082687 4.90033222591362 Z M 7.72609819121447 7.30897009966777 C 6.91510981912144 7.30656146179402 6.10168604651163 7.30656146179402 5.2906976744186 7.30897009966777 C 5.28826227390181 8.11345514950166 5.28826227390181 8.91553156146179 5.2906976744186 9.71760797342193 C 6.10168604651163 9.72001661129568 6.91267441860465 9.71760797342193 7.72609819121447 9.71760797342193 C 7.72853359173126 8.91312292358804 7.72853359173126 8.1110465116279 7.72609819121447 7.30897009966777 Z" transform="matrix(1 0 0 1 -52 -37 ) matrix(1 0 0 1 52 37 )"/></g></svg>