<svg xmlns="http://www.w3.org/2000/svg" xmlns:xlink="http://www.w3.org/1999/xlink" width="24" height="20" version="1.1"><g><path fill="#96cf1d" fill-rule="nonzero" stroke="none" d="M 0.235896032831736 8.20141196013289 C 0.0906976744186001 6.04808970099668 1.18801641586867 3.96220930232557 2.81852257181942 2.63023255813953 C 5.95337893296854 0.0433554817275755 10.7925307797538 -0.0264950166113006 14.0273597811218 2.41345514950166 C 15.5269493844049 3.50697674418605 16.4909712722298 5.19784053156146 16.9003830369357 7.00191029900332 C 18.5189876880985 7.27408637873754 20.1851983584131 7.7485880398671 21.4158139534884 8.90232558139535 C 23.070123119015 10.3426910299003 23.8984678522572 12.8187707641196 23.0772640218878 14.9239202657807 C 22.6702325581395 16.1523255813953 21.7538166894665 17.0941029900332 20.7778932968536 17.8841362126246 C 20.9635567715458 18.5296511627907 21.1396990424077 19.1799833887043 21.2372913816689 19.849584717608 C 20.4232284541724 19.6593023255814 19.7377017783858 19.153488372093 18.9641039671683 18.8668604651163 C 18.1857455540356 18.8379568106312 17.4311901504788 19.1173588039867 16.6528317373461 19.1077242524917 C 13.8607387140903 19.2426079734219 10.9448700410397 17.7564784053156 9.72615595075239 15.1479235880399 C 8.2932147742818 15.2683554817276 6.87693570451436 15.0443521594684 5.48207934336525 14.7553156146179 C 4.55614227086183 15.0901162790698 3.76826265389877 15.7524916943522 2.78995896032832 15.9620431893688 C 2.81614227086183 15.1551495016611 3.27316005471956 14.381976744186 3.23269493844049 13.5943521594684 C 1.60456908344733 12.2744186046512 0.250177838577293 10.3908637873754 0.235896032831736 8.20141196013289 Z M 7.08878248974008 5.09667774086378 C 7.01023255813953 4.36445182724252 6.20093023255814 3.95498338870432 5.54634746922025 4.18621262458472 C 4.60136798905609 4.41262458471761 4.47997264021887 5.96619601328904 5.38210670314638 6.33471760797343 C 6.17712722298222 6.82607973421926 7.29348837209302 6.01436877076411 7.08878248974008 5.09667774086378 Z M 12.8300683994528 5.29659468438538 C 12.8491108071135 4.48247508305648 12.0017236662107 3.91162790697675 11.2590697674419 4.18380398671096 C 10.3164705882353 4.4078073089701 10.1760328317373 5.97342192691031 11.0924487004104 6.32990033222591 C 11.8255813953488 6.79958471760797 12.846730506156 6.1468438538206 12.8300683994528 5.29659468438538 Z M 20.851682626539 8.73372093023255 C 18.3380848153215 6.76586378737541 14.5962517099863 6.74900332225914 11.9898221614227 8.54102990033222 C 10.4283447332421 9.6249169435216 9.33102599179207 11.5156976744186 9.55477428180575 13.471511627907 C 9.68569083447332 15.3550664451827 10.9924760601915 16.9544019933555 12.589658002736 17.8263289036545 C 14.2558686730506 18.712707641196 16.2410396716826 18.9752491694352 18.0714911080711 18.5200166112957 C 19.0307523939809 18.1635382059801 19.8448153214774 18.9559800664452 20.6850615595075 19.2859634551495 C 20.5969904240766 18.7247508305648 20.4803556771546 18.1683554817276 20.3589603283174 17.6167774086379 C 21.4205745554036 16.7857973421927 22.4203009575923 15.7621262458472 22.8011491108071 14.4229235880399 C 23.4795348837209 12.353903654485 22.5440766073871 10.003073089701 20.851682626539 8.73372093023255 Z" transform="matrix(1 0 0 1 -56 -72 ) matrix(1 0 0 1 56 72 )"/></g></svg>