<svg xmlns="http://www.w3.org/2000/svg" xmlns:xlink="http://www.w3.org/1999/xlink" width="6" height="8" version="1.1"><g><path fill="#1980ff" fill-rule="nonzero" stroke="none" d="M 0.436046511627904 7.79458773784355 C 0.436046511627904 5.3446088794926 0.433517441860465 2.89217758985201 0.438575581395343 0.442198731501058 C 1.28075581395349 0.439746300211415 2.12293604651162 0.439746300211415 2.96511627906976 0.439746300211415 C 2.96511627906976 1.25640591966173 2.96511627906976 2.07551797040169 2.96511627906976 2.89217758985201 C 3.80729651162791 2.89217758985201 4.65200581395348 2.89217758985201 5.49418604651163 2.89217758985201 C 5.49418604651163 3.70883720930232 5.49418604651163 4.52549682875264 5.49165697674419 5.3446088794926 C 4.64947674418604 5.3446088794926 3.80729651162791 5.3446088794926 2.96511627906976 5.3446088794926 C 2.96511627906976 6.16126849894292 2.96511627906976 6.97792811839323 2.96511627906976 7.79704016913319 C 2.12293604651162 7.79949260042283 1.27822674418605 7.79704016913319 0.436046511627904 7.79458773784355 Z" transform="matrix(1 0 0 1 -52 -46 ) matrix(1 0 0 1 52 46 )"/></g></svg>