<svg xmlns="http://www.w3.org/2000/svg" xmlns:xlink="http://www.w3.org/1999/xlink" width="32" height="27" version="1.1"><g><path fill="#1980ff" fill-rule="nonzero" stroke="none" d="M 17.2346723044397 2.95777233782129 C 17.2346723044397 2.15752141982864 17.2346723044397 1.35966646266829 17.2371247357294 0.561811505507949 C 18.0513319238901 0.561811505507949 18.8679915433404 0.561811505507949 19.6846511627907 0.564207466340265 C 19.6846511627907 1.35966646266829 19.6871035940803 2.15752141982864 19.68955602537 2.95777233782129 C 20.5062156448203 2.95777233782129 21.3228752642706 2.95777233782129 22.1395348837209 2.95777233782129 C 22.1395348837209 3.75562729498164 22.1395348837209 4.55348225214198 22.1395348837209 5.35373317013463 C 22.9561945031713 5.35373317013463 23.7728541226216 5.35373317013463 24.5895137420719 5.35612913096695 C 24.5919661733615 6.15398408812728 24.5919661733615 6.95183904528764 24.5919661733615 7.74969400244798 C 22.9561945031713 7.74969400244798 21.3228752642706 7.74969400244798 19.6871035940803 7.74969400244798 C 19.6871035940803 8.54754895960832 19.6871035940803 9.34540391676867 19.68955602537 10.143258873929 C 21.3228752642706 10.1456548347613 22.9561945031713 10.1456548347613 24.5895137420719 10.1456548347613 C 24.5895137420719 10.9435097919217 24.5919661733615 11.741364749082 24.5944186046512 12.5416156670747 C 25.4110782241015 12.5416156670747 26.2252854122622 12.5416156670747 27.0443974630021 12.5416156670747 C 27.0443974630021 11.7437607099143 27.0443974630021 10.9435097919217 27.0468498942917 10.1456548347613 C 27.8610570824524 10.143258873929 28.6777167019027 10.143258873929 29.4943763213531 10.1456548347613 C 29.4968287526427 10.9435097919217 29.4968287526427 11.741364749082 29.4992811839323 12.5392197062424 C 30.313488372093 12.5416156670747 31.132600422833 12.5416156670747 31.9492600422833 12.5416156670747 C 31.9492600422833 14.937576499388 31.9492600422833 17.3335373317013 31.9492600422833 19.7294981640147 C 31.132600422833 19.7294981640147 30.3159408033827 19.7294981640147 29.4992811839323 19.7294981640147 C 29.4992811839323 20.527353121175 29.4943763213531 21.3252080783354 29.4943763213531 22.125458996328 C 27.0443974630021 22.1278549571603 24.5919661733615 22.125458996328 22.1395348837209 22.125458996328 C 22.1395348837209 21.3252080783354 22.1395348837209 20.527353121175 22.1395348837209 19.7294981640147 C 22.9561945031713 19.7294981640147 23.7728541226216 19.7294981640147 24.5895137420719 19.7271022031824 C 24.5919661733615 18.929247246022 24.5919661733615 18.1313922888617 24.5919661733615 17.3335373317013 C 22.9561945031713 17.3335373317013 21.3228752642706 17.3335373317013 19.6871035940803 17.3335373317013 C 19.6871035940803 15.7354314565483 19.6871035940803 14.1397215422277 19.6846511627907 12.5416156670747 C 18.8679915433404 12.5392197062424 18.0513319238901 12.5392197062424 17.2346723044397 12.5416156670747 C 17.2371247357294 11.7437607099143 17.2346723044397 10.9435097919217 17.2322198731501 10.1456548347613 C 16.4155602536998 10.143258873929 15.5989006342495 10.143258873929 14.7797885835095 10.1480507955936 C 14.7797885835095 10.9435097919217 14.7822410147992 11.741364749082 14.7846934460888 12.5416156670747 C 15.6013530655391 12.5416156670747 16.4180126849894 12.5416156670747 17.2346723044397 12.5416156670747 C 17.2346723044397 13.339470624235 17.2346723044397 14.1373255813954 17.2322198731501 14.937576499388 C 14.7822410147992 14.9399724602203 12.3298097251586 14.9351805385557 9.87983086680761 14.9399724602203 C 9.87737843551797 15.7378274173807 9.87737843551797 16.5332864137087 9.87737843551797 17.3335373317013 C 9.05826638477801 17.3335373317013 8.2416067653277 17.3335373317013 7.42249471458774 17.3335373317013 C 7.42494714587737 15.7354314565483 7.42739957716702 14.1397215422277 7.42494714587737 12.5416156670747 C 5.78917547568711 12.5392197062424 4.15585623678647 12.5392197062424 2.5200845665962 12.544011627907 C 2.5200845665962 13.339470624235 2.5200845665962 14.1373255813954 2.5200845665962 14.937576499388 C 3.33674418604651 14.937576499388 4.15340380549682 14.937576499388 4.97006342494714 14.9399724602203 C 4.97251585623679 15.7378274173807 4.97251585623679 16.535682374541 4.97251585623679 17.3335373317013 C 5.78917547568711 17.3335373317013 6.60583509513742 17.3335373317013 7.42249471458774 17.3335373317013 C 7.42494714587737 18.1313922888617 7.42739957716702 18.929247246022 7.42494714587737 19.7294981640147 C 9.06071881606765 19.7294981640147 10.6940380549683 19.7294981640147 12.3298097251586 19.7294981640147 C 12.3298097251586 21.3276040391677 12.3298097251586 22.9233139534884 12.3298097251586 24.5214198286414 C 11.5131501057082 24.5214198286414 10.6964904862579 24.5214198286414 9.87983086680761 24.5238157894737 C 9.87737843551797 25.3192747858017 9.87737843551797 26.1171297429621 9.87737843551797 26.9173806609547 C 7.42494714587737 26.9173806609547 4.97251585623679 26.9173806609547 2.5200845665962 26.9173806609547 C 2.5200845665962 26.1171297429621 2.5200845665962 25.3192747858017 2.5200845665962 24.5214198286414 C 3.33674418604651 24.5214198286414 4.15340380549682 24.5214198286414 4.97006342494714 24.5214198286414 C 4.97006342494714 23.7211689106487 4.97496828752643 22.9233139534884 4.97496828752643 22.125458996328 C 5.79162790697675 22.1230630354957 6.60828752642705 22.1230630354957 7.42494714587737 22.125458996328 C 7.42739957716702 21.3276040391677 7.42739957716702 20.5297490820073 7.42494714587737 19.731894124847 C 5.78917547568711 19.7271022031824 4.15585623678647 19.7294981640147 2.5200845665962 19.7294981640147 C 2.5200845665962 18.929247246022 2.5200845665962 18.1313922888617 2.5200845665962 17.3335373317013 C 1.70342494714588 17.3335373317013 0.884312896405917 17.3335373317013 0.0676532769556027 17.3335373317013 C 0.0676532769556027 14.1397215422277 0.0676532769556027 10.9435097919217 0.0676532769556027 7.74969400244798 C 0.884312896405917 7.74969400244798 1.70342494714588 7.74969400244798 2.5200845665962 7.74969400244798 C 2.5200845665962 8.54754895960832 2.5200845665962 9.34540391676867 2.5200845665962 10.1456548347613 C 4.15585623678647 10.1456548347613 5.78917547568711 10.1456548347613 7.42494714587737 10.1456548347613 C 7.42249471458774 9.34540391676867 7.42494714587737 8.54754895960832 7.42494714587737 7.74969400244798 C 8.2416067653277 7.74969400244798 9.06071881606765 7.74969400244798 9.87737843551797 7.74969400244798 C 9.87737843551797 9.34779987760098 9.87492600422833 10.9435097919217 9.87737843551797 12.5392197062424 C 10.6940380549683 12.5416156670747 11.5106976744186 12.5416156670747 12.3298097251586 12.5416156670747 C 12.3322621564482 10.1456548347613 12.3298097251586 7.74969400244798 12.3298097251586 5.35373317013463 C 13.1464693446089 5.35373317013463 13.9631289640592 5.35373317013463 14.7797885835095 5.35612913096695 C 14.7822410147992 6.15398408812728 14.7822410147992 6.95183904528764 14.7822410147992 7.74969400244798 C 15.5989006342495 7.74969400244798 16.4180126849894 7.74969400244798 17.2346723044397 7.74969400244798 C 17.2346723044397 6.94944308445532 17.2346723044397 6.15158812729498 17.2346723044397 5.35373317013463 C 16.4155602536998 5.35133720930233 15.5989006342495 5.35133720930233 14.7822410147992 5.35133720930233 C 14.7797885835095 4.55348225214198 14.7822410147992 3.75562729498164 14.7822410147992 2.95777233782129 C 15.5989006342495 2.95777233782129 16.4180126849894 2.95537637698899 17.2346723044397 2.95777233782129 Z M 29.4943763213531 14.937576499388 C 28.6777167019027 14.9351805385557 27.8610570824524 14.9351805385557 27.0443974630021 14.937576499388 C 27.0419450317125 15.7354314565483 27.0419450317125 16.5332864137087 27.0443974630021 17.3335373317013 C 27.8610570824524 17.3335373317013 28.6777167019027 17.3335373317013 29.4968287526427 17.3335373317013 C 29.4968287526427 16.535682374541 29.4968287526427 15.7354314565483 29.4943763213531 14.937576499388 Z" transform="matrix(1 0 0 1 -42 -100 ) matrix(1 0 0 1 42 100 )"/></g></svg>