<svg xmlns="http://www.w3.org/2000/svg" xmlns:xlink="http://www.w3.org/1999/xlink" width="15" height="30" version="1.1"><g><path fill="#1980ff" fill-rule="nonzero" stroke="none" d="M 2.80730897009967 5.08791832104367 C 2.80730897009967 3.44463981849121 2.80730897009967 1.79889393079977 2.80730897009967 0.155615428247304 C 3.6093853820598 0.15068065796937 4.41146179401993 0.153148043108334 5.21353820598007 0.155615428247304 C 5.21835548172757 3.44463981849121 5.21353820598007 6.73366420873511 5.21594684385382 10.022688598979 C 7.62458471760798 10.022688598979 10.0332225913621 10.022688598979 12.4418604651163 10.022688598979 C 12.4418604651163 11.6659671015315 12.4418604651163 13.3117129892229 12.4418604651163 14.9574588769143 C 11.6397840531561 14.9574588769143 10.8352990033223 14.9574588769143 10.0332225913621 14.9574588769143 C 10.0332225913621 15.7790981281906 10.0332225913621 16.6007373794668 10.0356312292359 17.422376630743 C 10.837707641196 17.424844015882 11.6397840531561 17.424844015882 12.4418604651163 17.424844015882 C 12.4418604651163 18.2464832671583 12.4418604651163 19.0681225184345 12.4418604651163 19.8897617697107 C 11.6397840531561 19.8922291548497 10.837707641196 19.8922291548497 10.0356312292359 19.8946965399886 C 10.0332225913621 20.7163357912649 10.0308139534884 21.5379750425411 10.0332225913621 22.3596142938174 C 10.8352990033223 22.3596142938174 11.6373754152824 22.3596142938174 12.4418604651163 22.3596142938174 C 12.4418604651163 23.1812535450936 12.4418604651163 24.0028927963698 12.4418604651163 24.826999432785 C 13.2439368770764 24.826999432785 14.0484219269103 24.826999432785 14.8504983388704 24.826999432785 C 14.8504983388704 26.4702779353375 14.8504983388704 28.1160238230289 14.8480897009967 29.7593023255814 C 14.0460132890366 29.7617697107204 13.2439368770764 29.7617697107204 12.4418604651163 29.7617697107204 C 12.4418604651163 28.9376630743052 12.4418604651163 28.1160238230289 12.4418604651163 27.2943845717527 C 11.6397840531561 27.2943845717527 10.837707641196 27.2943845717527 10.0356312292359 27.2919171866137 C 10.0332225913621 26.4702779353375 10.0332225913621 25.6486386840613 10.0332225913621 24.829466817924 C 9.54667774086379 24.826999432785 9.06013289036544 24.826999432785 8.57599667774086 24.826999432785 C 9.38770764119601 23.3539705048213 9.78272425249169 21.6021270561543 9.37084717607974 19.9341747022121 C 9.53704318936877 19.9144356211004 9.86943521594684 19.8724900737379 10.0356312292359 19.8527509926262 C 10.0332225913621 19.0459160521838 10.0332225913621 18.2390811117414 10.0356312292359 17.4347135564379 C 9.42865448504983 17.4125070901872 8.80963455149502 17.4914634146341 8.21710963455148 17.348355076574 C 7.34036544850498 16.4008791832104 6.34559800664452 15.5792399319342 5.21112956810631 14.9796653431651 C 5.22076411960133 13.3289846851957 5.21594684385382 11.6758366420873 5.21353820598007 10.025155984118 C 4.41146179401993 10.022688598979 3.6093853820598 10.022688598979 2.80730897009967 10.02022121384 C 2.80490033222591 9.19858196256381 2.80730897009967 8.37694271128758 2.80730897009967 7.55530346001134 C 2.00523255813953 7.55530346001134 1.20074750830565 7.55530346001134 0.398671096345516 7.55530346001134 C 0.398671096345516 6.73119682359614 0.398671096345516 5.90955757231991 0.398671096345516 5.08791832104367 C 1.20074750830565 5.08791832104367 2.00282392026578 5.08791832104367 2.80730897009967 5.08791832104367 Z" transform="matrix(1 0 0 1 -71 -64 ) matrix(1 0 0 1 71 64 )"/></g></svg>