<svg xmlns="http://www.w3.org/2000/svg" xmlns:xlink="http://www.w3.org/1999/xlink" width="6" height="11" version="1.1"><g><path fill="#1980ff" fill-rule="nonzero" stroke="none" d="M 0.697674418604652 5.61085271317829 C 0.697674418604652 3.9614496124031 0.697674418604652 2.31451937984496 0.697674418604652 0.665116279069762 C 1.53985465116279 0.665116279069762 2.38203488372093 0.665116279069762 3.22674418604651 0.665116279069762 C 3.22674418604651 2.31451937984496 3.22674418604651 3.9614496124031 3.22674418604651 5.61085271317829 C 4.06892441860466 5.61085271317829 4.9111046511628 5.61085271317829 5.75581395348837 5.61085271317829 C 5.75581395348837 7.26025581395349 5.75328488372093 8.90718604651162 5.75581395348837 10.5565891472868 C 4.91363372093023 10.5565891472868 4.06892441860466 10.5565891472868 3.22674418604651 10.5565891472868 C 3.22421511627907 8.90718604651162 3.22927325581395 7.26025581395349 3.22421511627907 5.61332558139535 C 2.38203488372093 5.61085271317829 1.53985465116279 5.60837984496124 0.697674418604652 5.61085271317829 Z" transform="matrix(1 0 0 1 -73 -107 ) matrix(1 0 0 1 73 107 )"/></g></svg>