<?xml version="1.0" encoding="utf-8"?>
<svg version="1.1" xmlns:xlink="http://www.w3.org/1999/xlink" width="20px" height="22px" xmlns="http://www.w3.org/2000/svg">
  <g transform="matrix(1 0 0 1 -25 -59 )">
    <path d="M 5.16611295681063 2.7231807951988  C 5.16370431893688 1.92627906976744  5.16611295681063 1.12937734433608  5.16611295681063 0.332475618904724  C 5.96818936877076 0.330082520630158  6.77267441860465 0.330082520630158  7.57475083056478 0.330082520630158  C 7.57475083056478 1.12698424606151  7.57475083056478 1.92388597149287  7.57234219269103 2.72078769692423  C 6.7702657807309 2.7231807951988  5.97059800664452 2.7231807951988  5.16852159468439 2.72557389347337  C 5.16370431893688 4.31937734433608  5.16370431893688 5.9131807951988  5.16611295681063 7.50937734433608  C 9.18131229235881 7.51177044261065  13.1941029900332 7.50698424606152  17.2068936877076 7.50937734433608  C 17.2117109634552 9.10557389347336  17.2068936877076 10.6993773443361  17.2117109634552 12.2931807951988  C 18.0137873754153 12.2955738934734  18.8158637873754 12.2955738934734  19.6179401993356 12.2955738934734  C 19.6179401993356 13.0924756189047  19.6179401993356 13.8893773443361  19.6179401993356 14.6862790697674  C 16.4072259136213 14.6934583645912  13.196511627907 14.6838859714929  9.98338870431894 14.6910652663166  C 9.98098006644518 17.0817704426107  9.98338870431894 19.4748687171793  9.98338870431894 21.8679669917479  C 9.18131229235881 21.8679669917479  8.37923588039867 21.8679669917479  7.57475083056478 21.8655738934734  C 7.57475083056478 21.068672168042  7.57475083056478 20.2717704426107  7.57475083056478 19.4748687171793  C 5.16611295681063 19.4724756189047  2.75747508305648 19.4748687171793  0.348837209302325 19.4748687171793  C 0.348837209302325 17.878672168042  0.348837209302325 16.2848687171793  0.348837209302325 14.688672168042  C 1.15091362126246 14.688672168042  1.95299003322259 14.6862790697674  2.75747508305648 14.688672168042  C 2.75747508305648 13.8893773443361  2.75988372093023 13.0924756189047  2.75988372093023 12.2979669917479  C 5.16852159468439 12.2955738934734  7.57475083056478 12.2955738934734  9.98338870431894 12.2955738934734  C 9.98338870431894 11.498672168042  9.98338870431894 10.6993773443361  9.98338870431894 9.90247561890472  C 8.37682724252492 9.90247561890472  6.77267441860465 9.90247561890472  5.16852159468439 9.90247561890472  C 5.16611295681063 9.10557389347336  5.16611295681063 8.30627906976744  5.16370431893688 7.50937734433608  C 3.55955149501661 7.50698424606152  1.95299003322259 7.50937734433608  0.348837209302325 7.50937734433608  C 0.348837209302325 6.71247561890472  0.348837209302325 5.9131807951988  0.348837209302325 5.11627906976744  C 1.15091362126246 5.11388597149287  1.95299003322259 5.11627906976744  2.75747508305648 5.11388597149287  C 2.75747508305648 4.31698424606151  2.75747508305648 3.52008252063016  2.75747508305648 2.7231807951988  C 3.56196013289037 2.7231807951988  4.3640365448505 2.7231807951988  5.16611295681063 2.7231807951988  Z M 14.8006644518272 9.90247561890472  C 13.9985880398671 9.90247561890472  13.1941029900332 9.90247561890472  12.3920265780731 9.90247561890472  C 12.3920265780731 10.6993773443361  12.3920265780731 11.4962790697674  12.3944352159468 12.2931807951988  C 13.196511627907 12.2979669917479  13.9985880398671 12.2979669917479  14.8006644518272 12.2955738934734  C 14.803073089701 11.498672168042  14.803073089701 10.6993773443361  14.8006644518272 9.90247561890472  Z M 7.57234219269103 14.688672168042  C 6.7702657807309 14.6862790697674  5.96818936877076 14.6862790697674  5.16611295681063 14.688672168042  C 5.16370431893688 15.4855738934734  5.16370431893688 16.2824756189047  5.16611295681063 17.0817704426107  C 5.97059800664452 17.0841635408852  6.77267441860465 17.0841635408852  7.57475083056478 17.0793773443361  C 7.57715946843854 16.2824756189047  7.57475083056478 15.4855738934734  7.57234219269103 14.688672168042  Z " fill-rule="nonzero" fill="#1980ff" stroke="none" transform="matrix(1 0 0 1 25 59 )" />
  </g>
</svg>