<?xml version="1.0" encoding="utf-8"?>
<svg version="1.1" xmlns:xlink="http://www.w3.org/1999/xlink" width="80px" height="40px" xmlns="http://www.w3.org/2000/svg">
  <g transform="matrix(1 0 0 1 -1009 -20 )">
    <path d="M 1009.5 40  A 19.5 19.5 0 0 1 1029 20.5 L 1069 20.5  A 19.5 19.5 0 0 1 1088.5 40 A 19.5 19.5 0 0 1 1069 59.5 L 1029 59.5  A 19.5 19.5 0 0 1 1009.5 40 Z " fill-rule="nonzero" fill="#ffffff" stroke="none" />
    <path d="M 1009.5 40  A 19.5 19.5 0 0 1 1029 20.5 L 1069 20.5  A 19.5 19.5 0 0 1 1088.5 40 A 19.5 19.5 0 0 1 1069 59.5 L 1029 59.5  A 19.5 19.5 0 0 1 1009.5 40 Z " stroke-width="1" stroke="#f59a23" fill="none" />
  </g>
</svg>