<?xml version="1.0" encoding="utf-8"?>
<svg version="1.1" xmlns:xlink="http://www.w3.org/1999/xlink" width="70px" height="72px" xmlns="http://www.w3.org/2000/svg">
  <g>
    <path d="M 33.3236751944444 58.7873977826087  L 33.3236751944444 51.2984648152174  L 25.8809702083333 51.2984648152174  L 25.8809702083333 58.7873977826087  L 33.3236751944444 58.7873977826087  Z M 31.8372233472222 52.9212838695652  L 31.8372234444445 57.5567942282609  L 31.01495425 57.5567942282609  L 31.01495425 56.9627649782609  L 28.1791453611111 56.9627649782609  L 28.1791453611111 57.5567942282609  L 27.3568761666667 57.5567942282609  L 27.3568761666667 52.9212838695652  L 31.8372233472222 52.9212838695652  Z M 47.5343568194444 58.7343416086957  L 47.5343568194444 56.6446279891304  L 50.5283518055555 56.6446279891304  L 50.5283518055555 58.7343416086957  L 47.5343568194444 58.7343416086957  Z M 28.1791454583333 56.2203785543478  L 28.1791454583333 53.6639706195652  L 31.0149543472222 53.6639706195652  L 31.0149543472222 56.2203785543478  L 28.1791454583333 56.2203785543478  Z M 67.6633663366337 0  L 3.95359348611112 0  C 1.96641812499999 0.0725018478260893  0.355307750000009 1.69371919565218  1 3.69323726086955  L 1 67.9611154891304  C 0.355307750000009 69.9606335543479  1.96641812499999 71.581750826087  3.95359348611112 71  L 67.6633663366337 71  L 69 69.8019801980198  L 69 1.73267326732675  L 67.6633663366337 0  Z M 18.3470347083334 35.4159406956522  L 35.4381953333333 19.0812375  L 52.5313457083333 35.4159406956522  L 50.6811655 37.1847143152174  L 35.4391902083333 22.6152810978261  L 20.1971154583333 37.1847143152174  L 18.3470347083334 35.4159406956522  Z M 51.8460716666667 52.0303402173913  L 46.2271826527778 52.0303401195652  L 46.2271826527778 51.3195872282609  L 48.8626224722223 51.3195872282609  C 48.7255278611111 51.0013501630435  48.5181946666667 50.61203775  48.2406228888889 50.1523508152174  L 48.9680799027778 49.8128912608696  C 49.2843525416667 50.3432530434783  49.5091956527777 50.7639987391304  49.6427086944444 51.07552875  L 49.1261664444444 51.3195873260869  L 51.8460716666667 51.3195873260869  L 51.8460716666667 52.0303402173913  Z M 47.57663925 52.1894086630435  C 47.9279317222222 52.6915404782609  48.2476864722222 53.1935723152174  48.5359035 53.6957042282609  L 47.8190917361111 54.1094425434783  C 47.60121275 53.6639706195652  47.3060315972222 53.15473125  46.9335481805556 52.5819244891304  L 47.57663925 52.1894086630435  Z M 42.1683665277778 52.7198705217391  L 45.0780950277777 52.7198705217391  L 45.0780950277777 57.8008527065217  L 44.266371625 57.8008527065217  L 44.266371625 53.4835795108696  L 40.1972087222222 53.4835795108696  L 40.1972087222222 57.8432976847826  L 39.3854853194445 57.8432976847826  L 39.3854853194445 52.7198705217391  L 41.3568420416667 52.7198705217391  L 41.6520231944444 51.2877535434783  L 39.2694821944444 51.2877535434783  L 39.2694821944444 50.5235439782609  L 45.5524543055556 50.5235439782609  L 45.5524543055556 51.2877535434783  L 42.5057306527778 51.2877535434783  L 42.1683665277778 52.7198705217391  Z M 17.3525514166667 53.5259245108696  L 17.3525516111111 50.6190451304348  C 19.5945159861111 50.5908152608696  21.6115377916666 50.4386540217391  23.4037164861111 50.1628619347826  L 23.6988976388889 50.9907388695652  C 21.8856274583333 51.1816410978261  20.0373375416667 51.3054722934783  18.1538287777778 51.3620322065217  L 18.1538287777778 52.8576165  L 23.2561756388889 52.8576165  L 23.2561756388889 53.6107142934783  C 22.9153294027778 54.6113743043478  22.3829685138889 55.5095256847826  21.6589936111111 56.3050683586957  C 22.3899327361111 56.8884864130435  23.0699339305556 57.4577894347826  23.6988976388889 58.0128774456522  L 23.0664517222222 58.7024078478261  C 22.391723375 58.0871561086957  21.7170945833333 57.491325  21.0423662361111 56.915114576087  C 20.2200970416667 57.6540973369565  19.2080045694444 58.2923735217391  18.0062878333333 58.8297426847826  C 17.8516833055556 58.6106105869565  17.6759872916667 58.3842707608696  17.4791998888889 58.1509236521739  C 18.6317695277778 57.6487917391304  19.6051611388889 57.0547624891304  20.3993747222222 56.3688359021739  C 19.7175827916667 55.7959290652174  19.0358903194444 55.2408410543478  18.35419775 54.7033717173913  L 18.8601942083333 54.1517874456522  C 19.60864325 54.7139830108696  20.3219729027778 55.2602616847826  21.0001832638889 55.7906234673913  C 21.6081550416667 55.1400343043478  22.071968625 54.4098608804348  22.391723375 53.600203173913  L 18.1538286805556 53.600203173913  C 18.146765 55.643868  17.6513142361111 57.2385572608696  16.6673769305556 58.3841707826087  C 16.5127724027778 58.1720460652174  16.3265306944444 57.949210076087  16.1086517083334 57.7158628695652  C 16.9378850277778 56.7541440978261  17.3525514166667 55.3574646195652  17.3525514166667 53.5259245108696  Z M 14.1688328055556 50.5342553478261  L 14.8434616944444 50.0780721521739  C 15.2019173055556 50.5165365978261  15.6938859583333 51.1853450869565  16.3193676527778 52.0832962173913  L 15.5709186111111 52.6137581739131  C 15.0016476944444 51.7156067934783  14.5343520972222 51.0225726521739  14.1688328055556 50.5342553478261  Z M 24.0258157222222 59.1905249021739  C 23.9483143472222 59.4238720108696  23.8499205972222 59.7031678369565  23.7304354583333 60.0284123804348  L 20.3359014444445 60.0179012608696  L 17.7426445972222 59.986067576087  C 16.5408283055556 59.9719526413043  15.7010492916667 59.5618181413043  15.2231084444444 58.7556642717391  C 14.934990875 59.0243489021739  14.5132608055555 59.4981507717391  13.9580176944444 60.1769698043478  L 13.5258413888889 59.296537173913  C 14.1477415138889 58.6919968043478  14.59762675 58.2588379565217  14.8751985277778 57.9971608043478  L 14.8751985277778 54.4277797826087  L 13.6207530277778 54.4277797826087  L 13.6207530277778 53.6428483043478  L 15.6870213888889 53.6428483043478  L 15.6870213888889 58.1828575108696  C 16.1122335694444 58.868884173913  16.8642640833334 59.2189550217391  17.9430135694444 59.2329698804348  L 20.5785529444444 59.2648035652174  L 24.0258157222222 59.1905249021739  Z M 34.2092188472222 50.5130328586957  L 34.2092188472222 60.2299258043478  L 33.32377475 60.2299258043478  L 33.32377475 59.5511067717391  L 25.8810697638889 59.5511067717391  L 25.8810697638889 60.2299258043478  L 24.9955262083333 60.2299258043478  L 24.9955262083333 50.5130328586957  L 34.2092188472222 50.5130328586957  Z M 37.6669278611111 51.5529344347826  L 37.6669278611111 58.6706741413043  C 37.6669278611111 59.5121655326087  37.2347515555555 59.9329112282609  36.3702993888889 59.9329112282609  C 36.0118437777778 59.9329112282609  35.7237262083333 59.925803673913  35.5059467777778 59.9116887391304  C 35.4707280277778 59.5863441195652  35.41451725 59.2716106956522  35.3372149861111 58.9675886413044  C 35.6605513055555 59.0452709673913  35.9943338611111 59.0842122065217  36.3386622083333 59.0842122065217  C 36.6761258888889 59.0842122065217  36.8447582222222 58.9216400217391  36.8447582222222 58.5962954021739  L 36.8447582222222 51.5529344347826  L 35.1474911666667 51.5529344347826  L 35.1474911666667 50.77821375  L 39.0691132222222 50.77821375  L 39.0691132222222 51.5529344347826  L 37.6669278611111 51.5529344347826  Z M 45.5841910416667 59.6782414565217  L 44.9937291805555 60.389094423913  C 44.0519748472223 59.6040628695652  43.0645554305556 58.8615763695652  42.0314709305555 58.1614346739131  C 41.9611328888889 58.3028845434783  41.8839300833333 58.4302193804348  41.7995641388889 58.5433392065218  C 41.2162654166667 59.349493173913  40.2076550555556 59.9788598478261  38.7740314305556 60.4314392282609  C 38.6404189305556 60.1979919456522  38.4717865972222 59.94342225  38.2680349722222 59.6676301630435  C 39.596300625 59.2858257065217  40.5344734861111 58.7554639239131  41.0826529166667 58.0764446413044  C 41.5676574444444 57.4400704891304  41.8102093888889 56.4782517391304  41.8102093888889 55.1912884239131  L 41.8102093888889 54.003229923913  L 42.6218333333334 54.003229923913  L 42.6218333333334 55.1700659347826  C 42.6218333333334 56.0540023043478  42.5270211527778 56.807200173913  42.337197875 57.4293592173913  C 43.5249863611111 58.1931682826087  44.6073174166667 58.9427623369565  45.5841910416667 59.6782414565217  Z M 51.3084380277778 60.2511482934783  L 50.5283518055555 60.2511482934783  L 50.5283518055555 59.4662168152174  L 47.5343568194444 59.4662168152174  L 47.5343568194444 60.2616594130435  L 46.7541711388889 60.2616594130435  L 46.7541711388889 55.933875  L 51.3083385694445 55.933875  L 51.3083384722222 60.2511482934783  Z M 52.0357954861111 54.8307065543478  L 45.9951764027778 54.8307065543478  L 45.9951764027778 54.1199536630435  L 49.3686190277778 54.1199536630435  C 49.7867675277778 53.391682173913  50.1276137638889 52.726878  50.3911577361111 52.1257411956522  L 51.1712439583333 52.5288682173913  C 50.8656164722222 53.0662374782609  50.5404894166667 53.5966993369565  50.1961610694444 54.1199536630435  L 52.035696125 54.1199536630435  L 52.0356960277778 54.8307065543478  Z M 56.3895938472222 56.7931854130435  C 56.3896933055556 58.0094737826087  55.9152345694445 58.667070326087  54.9664165555556 58.7660752173913  C 54.6080604027778 58.8085201956522  54.1301195555556 58.7943050869565  53.5327930277778 58.7236302391304  C 53.4975742777777 58.4690605434783  53.4519091944444 58.1579310326087  53.395797875 57.7902415108696  C 53.9087585555556 57.8751314673913  54.3479985416667 57.9174762717391  54.7134182777778 57.9174762717391  C 55.3319358472222 57.9174762717391  55.6130891944445 57.4896230217391  55.5568784166667 56.6339166195652  C 55.5288228055555 55.8772150108696  54.9910896111111 55.102894826087  53.9439773055556 54.3109559673913  C 54.4008266666667 53.3986896521739  54.86464025 52.3839147065218  55.3354178611111 51.2665310543478  L 53.1848831111111 51.2665310543478  L 53.1848831111111 60.3148157608696  L 52.3837054027778 60.3148157608696  L 52.3837054027778 50.481199173913  L 56.1787785416666 50.481199173913  L 56.1787785416666 51.3514210108696  C 55.9046887777778 52.0656776413043  55.4795761527778 52.9921590652174  54.9032415555556 54.1306650326087  C 55.8941430833333 54.9085890326087  56.3895938472222 55.7960291413043  56.3895938472222 56.7931854130435  Z " fill-rule="nonzero" fill="#6badff" stroke="none" />
  </g>
</svg>