<?xml version="1.0" encoding="utf-8"?>
<svg version="1.1" xmlns:xlink="http://www.w3.org/1999/xlink" width="89px" height="28px" xmlns="http://www.w3.org/2000/svg">
  <g transform="matrix(1 0 0 1 -112 -81 )">
    <path d="M 88.9276875 23.7272  C 88.8720625 15.68  82.3639375 8.8928  74.33725 8.8928  C 72.0883697979697 8.89442936770955  69.8710484206717 9.42564816696279  67.8625 10.444  C 63.5440097785458 4.00071261900898  56.3277619052045 0.138669467450518  48.6069358798578 0.138669467450518  C 40.0340402838481 0.138669467450518  32.1580499652722 4.89233772301941  28.1184375 12.5048  C 25.2458741235054 10.8407046093405  21.9755597761775 10.0001841081116  18.6621875 10.0744  C 8.75058076700345 10.1019433464969  0.638183805646673 18.0215431311759  0.305937500000006 28  L 88.8609375 28  C 88.911 26.8744  88.9276875 25.34  88.9276875 23.7272  Z M 52.9605625 18.48  L 47.5983125 23.884  L 42.2305 18.48  L 45.6125 18.48  L 45.6125 12.32  L 50.0625 12.32  L 50.0625 18.48  L 52.9605625 18.48  Z " fill-rule="nonzero" fill="#ffffff" stroke="none" transform="matrix(1 0 0 1 112 81 )" />
  </g>
</svg>