<?xml version="1.0" encoding="utf-8"?>
<svg version="1.1" xmlns:xlink="http://www.w3.org/1999/xlink" width="121px" height="52px" xmlns="http://www.w3.org/2000/svg">
  <defs>
    <filter x="104px" y="213px" width="121px" height="52px" filterUnits="userSpaceOnUse" id="filter1302">
      <feOffset dx="10" dy="10" in="SourceAlpha" result="shadowOffsetInner" />
      <feGaussianBlur stdDeviation="2.5" in="shadowOffsetInner" result="shadowGaussian" />
      <feComposite in2="shadowGaussian" operator="atop" in="SourceAlpha" result="shadowComposite" />
      <feColorMatrix type="matrix" values="0 0 0 0 0  0 0 0 0 0  0 0 0 0 0  0 0 0 0.313725490196078 0  " in="shadowComposite" />
    </filter>
    <g id="widget1303">
      <path d="M 105.012146596859 35.3181818181818  C 105.533821989529 34.8584848484848  105.644816753927 32.8066666666667  105.012146596859 32.5151515151515  C 100.572356020942 30.4577272727273  96.1325654450262 30.6483333333333  91.0434554973822 27.469696969697  C 85.277277486911 23.8706060606061  84.9831413612565 0  84.9831413612565 0  L 20.6061780104712 0  C 20.6061780104712 0  20.3175916230367 23.8706060606061  14.5514136125654 27.469696969697  C 9.43455497382199 30.6483333333333  4.99476439790576 30.4577272727273  0.554973821989529 32.5151515151515  C -0.0776963350785265 32.8066666666667  0.033298429319373 34.8584848484848  0.554973821989529 35.3181818181818  C 2.4696335078534 37  10.6388481675393 36.4393939393939  10.6388481675393 36  L 94.9282722513089 36  C 94.9282722513089 36.4393939393939  103.097486910995 37  105.012146596859 35.3181818181818  Z " fill-rule="nonzero" fill="#d1d1d1" stroke="none" transform="matrix(1 0 0 1 104 213 )" />
    </g>
  </defs>
  <g transform="matrix(1 0 0 1 -104 -213 )">
    <use xlink:href="#widget1303" filter="url(#filter1302)" />
    <use xlink:href="#widget1303" />
  </g>
</svg>