<svg xmlns="http://www.w3.org/2000/svg" xmlns:xlink="http://www.w3.org/1999/xlink" width="20" height="18" version="1.1"><g><path fill="#999" fill-rule="nonzero" stroke="none" d="M 13.3906501939655 14.5138674158654 L 9.99968543103448 17.9178743509615 L 6.60874689655172 14.5138674158654 L 7.29176840517241 13.8282189230769 L 9.99968543103448 16.5465247067308 L 12.7076024784483 13.8282189230769 L 13.3906501939655 14.5138674158654 Z M 9.5166999137931 16.8782179759615 L 9.5166999137931 8.41942168269231 L 10.4826709698276 8.41942168269231 L 10.4826709698276 16.8782179759615 L 9.5166999137931 16.8782179759615 Z M 19.8832077801724 11.2438798485577 C 19.8831553448276 9.17438237740384 18.2905482327586 7.47836543509615 16.2685886206897 7.32345245913461 C 16.3203285663462 6.9958508435954 16.3463164995007 6.66467107187989 16.3463119396552 6.33297773076923 C 16.3463119396552 2.86571094230769 13.5463065301724 0.0549626105769224 10.0923504956897 0.054962588942307 C 6.72327409482759 0.054962588942307 3.97692793103448 2.72937593509615 3.84392015086207 6.07864887259615 C 1.72279448275862 6.47586501923077 0.117054375000001 8.34358352884615 0.117054353448277 10.5880718942308 C 0.117054353448277 13.1217557235577 2.16313049568966 15.1757276971154 4.68713293103448 15.1757276971154 L 4.69261157327586 15.1756750600962 L 5.7850894612069 15.1757276971154 L 5.7850894612069 14.2060413461538 L 4.69310963362069 14.2060413461538 C 4.69111739224138 14.2059624014423 4.68912517241379 14.2060413461538 4.68710672413793 14.2060413461538 C 3.72441234913793 14.2060413461538 2.81933547413793 13.8297188509615 2.13862077586207 13.1463597115385 C 1.45790607758621 12.4630268798077 1.08299920258621 11.5544689399038 1.08299920258621 10.5880718942308 C 1.08299920258621 9.62167484855769 1.45787984913793 8.71311690865384 2.13862077586207 8.02978407692308 C 2.62496163793104 7.54157267307692 3.22585594827586 7.21019518269231 3.88043568965517 7.06067666826923 C 4.14511138818692 7.00033101499826 4.41569016476397 6.96995002671125 4.68710672413793 6.97010244230769 C 4.73906206896552 6.97010244230769 4.79080771551724 6.97141817307692 4.84239607758621 6.97360225240385 C 4.81707492184631 6.76101553475207 4.80437384671343 6.54710498370164 4.80436015086207 6.33300403846154 C 4.80436015086207 6.22219402644231 4.80810868534483 6.11196291346154 4.81479314655172 6.00228441346154 C 4.89348635775862 4.70879915625 5.43246413793104 3.50367771634615 6.3531905387931 2.57943636778846 C 7.35195480603448 1.57683069951923 8.67990943965517 1.02464891826923 10.0923767241379 1.02464893990385 C 11.5048702155172 1.02464893990385 12.8327986206897 1.57680439182692 13.831562887931 2.57943636778846 C 14.8303271551724 3.58204203605769 15.3803932974138 4.9151041875 15.3803932974138 6.33300403846154 C 15.3803932974138 6.68593302403846 15.3462631896552 7.03359912980769 15.2796544396552 7.37223938221154 C 15.2184728225645 7.68268274713268 15.129465095591 7.9869397596535 15.0137175 8.28129729807692 L 15.952714762931 8.28129729807692 C 15.9572759267241 8.28190254807692 15.9617846767241 8.28163940625 15.9663458405172 8.28163938461538 C 15.9904361422414 8.28163938461538 16.0144740086207 8.28195516346154 16.0384594396552 8.28253408413461 C 16.7996760991379 8.30074365865384 17.5126073060345 8.60688560336538 18.0529219827586 9.14927841346154 C 18.6102754956897 9.70877559375 18.9172104956897 10.4526315865385 18.9172104956897 11.2438798485577 C 18.9172104956897 12.0351281105769 18.6102754741379 12.7789841033654 18.0529219827586 13.3384812836538 C 17.4955684698276 13.8979784639423 16.7545362931034 14.2060939831731 15.9663458405172 14.2060939831731 L 15.964982737069 14.2060676754808 L 14.4028358189655 14.2060939831731 L 14.4028358189655 15.1757803125 L 16.051382737069 15.1757803125 L 16.051382737069 15.1747014375 C 18.1753132543103 15.1292827427885 19.8832077586207 13.3868735048077 19.8832077801724 11.2438798485577 Z" transform="matrix(1 0 0 1 -322 -16 ) matrix(1 0 0 1 322 16 )"/></g></svg>