<svg xmlns="http://www.w3.org/2000/svg" xmlns:xlink="http://www.w3.org/1999/xlink" width="22" height="18" version="1.1"><g><path fill="#0079fe" fill-rule="nonzero" stroke="none" d="M 18.1314683 0.305915971199966 L 18.6714374 0 C 19.9463708583333 1.46050936560005 20.8106877 2.83876216599992 21.26441405 4.13479975519999 C 21.7181403083333 5.43083734440006 21.9450000916667 6.68080409359982 21.9450000916667 7.88473745600004 C 21.9450000916667 9.35182575999988 21.6581443833333 10.616594656 21.0844243499999 11.679082416 C 20.5107043166666 12.7415700839999 19.792627525 13.7070048359999 18.9301726166667 14.5754158359998 C 18.2102102416667 15.2990917 17.325269775 16.017822564 16.2753245416667 16.7316300479999 C 15.2253794 17.4454375319999 14.8241564166667 17.693786196 15.0716434916666 17.4766834919999 L 14.6666666666666 17.0720848799999 C 15.7991075 16.1576218079999 16.57155555 15.4536931919999 16.9840340083333 14.9602778719998 C 17.6065014583334 14.210286604 18.1764631583333 13.160972416 18.6939361583333 11.8123038440001 C 19.0914153833334 10.78599996 19.372646425 9.75477738799987 19.5376378083334 8.71860521600001 C 19.7026291916667 7.68243304399994 19.7851236916667 6.651210472 19.7851236916667 5.62490658799993 C 19.7851236916667 4.63807593879983 19.6688814666667 3.7351394364 19.436393625 2.91606999600003 C 19.2039057833334 2.09700055560006 18.768935075 1.22695791720002 18.1314683 0.305915971199966 Z M 11.8121069 6.59199579439996 L 11.9202043583333 7.25316902960003 C 12.667063475 6.23344401960003 13.268145 5.51800252359999 13.7234669916667 5.10682308719993 C 14.1787889833333 4.69564365080009 14.62263935 4.49005701919987 15.055031475 4.49005701919987 C 15.57259165 4.49005701919987 15.92963735 4.66768386640001 16.1261792083334 5.02294290600003 C 16.2310016 5.20715129519999 16.283411925 5.43082955199998 16.283411925 5.6939843923999 C 16.283411925 5.96371810680012 16.1753155666667 6.21042206840002 15.9591194583333 6.43410368319996 C 15.7429234416667 6.65778529799991 15.4808715416667 6.76962442640001 15.1729559666666 6.76962442640001 C 14.982965525 6.76962442640001 14.768410525 6.69725792559984 14.5292845500001 6.55252276199985 C 14.2901586666667 6.40778760760008 14.1083602 6.33542110679991 13.98388365 6.33542110679991 C 13.7414820583333 6.33542110679991 13.5105487916667 6.46041778080007 13.2910770666667 6.71041488239985 C 13.0716053416667 6.96041198400007 12.6932678583333 7.49000317600007 12.1560534333333 8.29920426400008 L 12.34276725 9.28603002799991 C 12.441038225 9.79260309599977 12.5229294666667 10.2087104479999 12.5884433583333 10.534364504 C 12.6539573416667 10.860018652 12.7260216416666 11.1609974799999 12.8046383666667 11.4373100959999 C 12.9094606666666 11.818884604 13.0142814083333 12.095192988 13.1191038 12.266243712 C 13.2239261 12.4372943439998 13.37788155 12.5228183720001 13.580974825 12.5228183720001 C 13.7644139416667 12.5228183720001 13.9871579833333 12.3879535479998 14.249213825 12.118219852 C 14.3933445333333 11.9734846239999 14.6128129583333 11.707044344 14.9076257916666 11.318891008 L 15.32036165 11.60507044 C 14.9731376666667 12.190589996 14.522735975 12.7464962240001 13.9691431 13.272805868 C 13.4155501333333 13.7991156039998 12.87343035 14.0622665159999 12.34276725 14.0622665159999 C 11.8972723833333 14.0622665159999 11.5303997416667 13.8780608960001 11.242138325 13.509644044 C 11.0783534583333 13.3122779159999 10.93422495 13.042548268 10.8097484 12.7004470039999 C 10.7442345083333 12.522817452 10.6541541333333 12.2086810599999 10.5395047083333 11.7580284439998 C 10.4248552833333 11.307375736 10.351153175 11.0294226679998 10.3183961833333 10.9241606840001 L 10.180817625 11.1609988599998 C 9.53222948333331 12.27940698 9.05726041916671 13.0063612639999 8.75589622416663 13.3418836999999 C 8.30384994083329 13.8418779399999 7.7797461683333 14.091871288 7.18356918583339 14.091871288 C 6.84289661916665 14.091871288 6.54645042333334 13.97509808 6.29422169750001 13.7415480759998 C 6.04199297166667 13.5079981639999 5.91588050166666 13.2201769000001 5.91588050166666 12.8780756359999 C 5.91588050166666 12.5951841919998 6.00923648416665 12.3336779639999 6.19595125416663 12.0935491319999 C 6.38266602416667 11.8534203920001 6.64308008833336 11.7333578159999 6.97720125666666 11.7333578159999 C 7.18029451333331 11.7333578159999 7.43088163583337 11.80572428 7.72897012250002 11.9504594159998 C 8.02705861833334 12.095194644 8.22195970749999 12.167561108 8.31367924749998 12.167561108 C 8.51677250416668 12.167561108 8.69201970083338 12.0771029360001 8.83942609916664 11.896184016 C 8.98683249750002 11.7152650959999 9.27672744166665 11.26626388 9.70911947499997 10.5491669359999 L 10.1022012666667 9.89786195199986 C 10.0366872833333 9.62154933600004 9.96626088333329 9.28274259199975 9.89091977500004 8.88143141599994 C 9.81557875833334 8.48012033200007 9.73860103333334 8.0689470320001 9.65998430833332 7.64789928000005 L 9.50275159166665 6.8090974495999 C 9.39137787499999 6.20384131760011 9.21449283333334 5.80582559079994 8.97209119583334 5.6150383367999 C 8.83451189499999 5.50319752480004 8.60849213583333 5.44727796519987 8.29402515333334 5.44727796519987 C 8.26126818 5.44727796519987 8.18265261000005 5.45221204480004 8.05817609666667 5.46208035120003 C 7.93369958333329 5.47194865760002 7.80922494000004 5.4834615100001 7.68474842666666 5.49661924879979 L 7.68474842666666 4.95386510160006 C 8.27437402000004 4.88149752439995 8.92131460916664 4.78939470520004 9.62558959999996 4.67755390240018 C 10.3298646 4.56571309960009 10.799920175 4.486767826 11.0357704416667 4.44071572639996 C 11.2323123 4.70387056679988 11.3944568833333 5.02294102919996 11.5222091416667 5.39793667239996 C 11.6499613083334 5.77293232479997 11.7465930083333 6.17094805159991 11.8121069 6.59199579439996 Z M 3.81244204000001 17.170767484 L 3.28387337666663 17.4766834919999 C 2.22673077000002 16.279328976 1.41514232750001 15.0178493559999 0.84908369883334 13.6922068199999 C 0.283025069250016 12.3665642839999 0 10.9899562319999 0 9.56234117199983 C 0 7.29263070920001 0.858446898833336 5.22031742440004 2.57536644750002 3.34533918080001 C 3.61001665750001 2.20719449400008 5.04575972999999 1.09209258720011 6.88263872083331 0 L 7.28749982583338 0.394730287199991 C 6.09540284833332 1.36840319759995 5.25944800333338 2.14963241240002 4.77961022916662 2.73844136399998 C 4.29977244583336 3.32725032479993 3.79370112916666 4.30255331879994 3.26138109916661 5.66437962040004 C 2.93899008333335 6.48673849319994 2.67470840083331 7.41599009599986 2.46852810416669 8.45216226799994 C 2.26234780750002 9.48833444000002 2.15925920833331 10.621527972 2.15925920833331 11.851776904 C 2.15925920833331 12.9636061039998 2.29233721750001 13.9208174359999 2.55849724166666 14.723439696 C 2.82465725666668 15.5260619559999 3.24263467916671 16.3418297279998 3.81244204000001 17.170767484 Z" transform="matrix(1 0 0 1 -731 -641 ) matrix(1 0 0 1 731 641 )"/></g></svg>