<svg xmlns="http://www.w3.org/2000/svg" xmlns:xlink="http://www.w3.org/1999/xlink" width="19" height="24" version="1.1"><g><path fill="#0079fe" fill-rule="nonzero" stroke="none" d="M 0 21.4774800424402 L 0 1.78688598408485 C 0 0.800015080459616 0.829623459310255 0 1.81231005848269 0 L 16.3945864386208 0 C 17.3954976496552 0 18.2068965517242 0.800811437665743 18 1.78688598408485 L 18 21.4774800424402 C 18.2068965517242 22.4643509460655 17.3772730924138 23.2643678160919 16.3945864386208 23 L 1.81231005848269 23 C 0.811398847448345 23.2643678160919 0 22.4635545888593 0 21.4774800424402 Z M 1.81231005848269 4 C 2.83131003972414 3.57913351016782 3.64137931034486 2.78593667904511 4 1.78688598408485 L 4 21.4774800424402 C 3.64137931034486 20.4898646790452 2.82555037903455 19.685234305924 1.81231005848269 19.685234305924 L 16.3945864386208 19.685234305924 C 15.3755864937931 19.685234305924 14.5655172413793 20.47842934748 14.5655172413793 21.4774800424402 L 14.5655172413793 1.78688598408485 C 14.5655172413793 2.77450134748005 15.3813462455173 3.57913351016782 16.3945864386208 4 L 1.81231005848269 4 Z M 12.744827586207 8.94783377541989 L 5.46206896551723 8.94783377541989 L 5.46206896551723 7.1582670203361 L 12.744827586207 7.1582670203361 L 12.744827586207 8.94783377541989 Z M 12.744827586207 12.5269672855882 L 5.46206896551723 12.5269672855882 L 5.46206896551723 10.7374005305039 L 12.744827586207 10.7374005305039 L 12.744827586207 12.5269672855882 Z M 12.744827586207 16.106100795756 L 5.46206896551723 16.106100795756 L 5.46206896551723 14.316534040672 L 12.744827586207 14.316534040672 L 12.744827586207 16.106100795756 Z" transform="matrix(1 0 0 1 -596 -638 ) matrix(1 0 0 1 596 638 )"/></g></svg>