<?xml version="1.0" encoding="utf-8"?>
<svg version="1.1" xmlns:xlink="http://www.w3.org/1999/xlink" width="21px" height="24px" xmlns="http://www.w3.org/2000/svg">
  <g transform="matrix(1 0 0 1 -551 -638 )">
    <path d="M 0 21.6525393979471  L 0 1.59811139187627  C 0 0.715498840442478  0.722761520935364 0  1.61048502424615 0  L 18.6972072590769 0  C 19.5866536393846 0  20.3076923076923 0.721341564647673  20 1.59811139187627  L 20 21.6525393979471  C 20.3076923076923 22.5351519663245  19.584930816 23.2506508220965  18.6972072590769 23  L 1.61048502424615 23  C 0.721038704049249 23.2506508220965  0 22.5293092453464  0 21.6525393979471  Z M 2.20735785953178 21  L 18 21  L 18 2.20735785953184  L 2.20735785953178 2.20735785953184  L 2.20735785953178 21  Z M 15.010033444816 4.85618729096996  L 15.010033444816 10.6732244737359  L 11.9197324414716 10.6732244737359  L 11.9197324414716 4.85618729096996  L 15.010033444816 4.85618729096996  Z M 4.4327349677975 6.57372313005703  L 3.53177257525084 6.57372313005703  L 3.53177257525084 4.91171250640969  L 4.4327349677975 4.85618729096996  L 9.18981639388431 4.85618729096996  L 10.090778786431 4.91171250640969  L 10.090778786431 6.57372313005703  L 9.18981639388431 6.57372313005703  L 4.4327349677975 6.57372313005703  Z M 3.53177257525084 10.6732244737359  L 3.53177257525084 9.01121385008855  L 4.4327349677975 8.82943143812713  L 9.18981639388431 8.82943143812713  L 10.090778786431 9.01121385008855  L 10.090778786431 10.6732244737359  L 9.18981639388431 10.5953177257525  L 4.4327349677975 10.5953177257525  L 3.53177257525084 10.6732244737359  Z M 3.53177257525084 15  L 3.53177257525084 13  L 15.010033444816 13  L 15.010033444816 15  L 3.53177257525084 15  Z M 3.53177257525084 19  L 3.53177257525084 17  L 15.010033444816 17  L 15.010033444816 19  L 3.53177257525084 19  Z " fill-rule="nonzero" fill="#0079fe" stroke="none" transform="matrix(1 0 0 1 551 638 )" />
  </g>
</svg>