<svg xmlns="http://www.w3.org/2000/svg" xmlns:xlink="http://www.w3.org/1999/xlink" width="21" height="24" version="1.1"><g><path fill="#0079fe" fill-rule="nonzero" stroke="none" d="M 17.6588628762541 16.6287625344482 L 17.6588647243923 17.6588628762541 L 19.4247491638796 17.6588628762541 L 19.4247491638796 23.8394648829432 L 13.2441471571906 23.8394648829432 L 13.2441471571906 17.6588628762541 L 15.8929765886288 17.6588628762564 L 15.8929765886288 16.6287625344482 L 15.8929765886288 15.8929765886288 L 17.6588628762541 15.8929765886288 L 17.6588628762541 16.6287625344482 Z M 2.64882943143812 15.8929765886288 L 2.64882943143812 16.6287625344482 L 2.64882930461283 17.6588628762541 L 6.1806020066889 17.6588628762541 L 6.1806020066889 23.8394648829432 L 0 23.8394648829432 L 0 17.6588628762541 L 0.882943143812668 17.6588628762564 L 0.882943143812668 16.6287625344482 L 0.882943143812668 15.8929765886288 L 2.64882943143812 15.8929765886288 Z M 0.882943143812668 15.010033444816 L 1.7217391304348 15.010033444816 L 7.95430397113466 15.010033444816 L 9.72361127091483 15.010033444816 L 16.8200668896321 15.010033444816 L 17.6588628762541 15.010033444816 L 17.6588628762541 13.2441471571906 L 16.8200668896321 13.2441471571906 L 9.7123745819398 13.2441471572464 L 9.71223905546685 12.1236912538147 L 10.103532683077 12.3612040133779 L 20.3076923076923 6.22842351411373 C 20.3076923076923 6.22842351411373 14.0406920123075 2.40316662421401 10.9071918646154 0.490538166902979 C 10.6393054707692 0.327025444013316 10.103532683077 0 10.103532683077 0 L 0 6.22842351411373 L 7.94648829431435 11.0518919832117 L 7.94648829431435 11.3311036715719 L 7.94649159369749 13.2441471571906 L 1.7217391304348 13.2441471571906 L 0.882943143812668 13.2441471571906 L 0.882943143812668 15.010033444816 Z" transform="matrix(1 0 0 1 -723 -295 ) matrix(1 0 0 1 723 295 )"/></g></svg>