<?xml version="1.0" encoding="utf-8"?>
<svg version="1.1" xmlns:xlink="http://www.w3.org/1999/xlink" width="12px" height="22px" xmlns="http://www.w3.org/2000/svg">
  <g transform="matrix(1 0 0 1 -585 -246 )">
    <path d="M 0.407439698252688 19.3304790735294  L 8.69951250589475 11.0558265529411  L 0.817837832147347 2.31680817499998  C 0.303888511242121 1.74695306176467  0.350181648821035 0.869231278235254  0.92123645054744 0.356361682794102  C 1.49229125065267 -0.156507912161736  2.37186087600003 -0.110312028426442  2.88581019852631 0.4595430772059  L 11.571294131158 10.0898065529412  C 11.7419638692633 10.2790411867647  11.8508535246316 10.5022254764706  11.8992623871579 10.7347249867647  C 12.0489946418948 11.2120180602941  11.9343847456843 11.7540700911764  11.5554327147369 12.1322260044117  L 2.37473257073691 21.2936388823529  C 1.8314796418947 21.8357505882353  0.9506926222316 21.8357505882353  0.407439695010567 21.2936388823529  C -0.135813233021054 20.7515273382352  -0.135813231399993 19.8725906176471  0.407439698252688 19.3304790735294  Z " fill-rule="nonzero" fill="#0079fe" stroke="none" transform="matrix(1 0 0 1 585 246 )" />
  </g>
</svg>