<?xml version="1.0" encoding="utf-8"?>
<svg version="1.1" xmlns:xlink="http://www.w3.org/1999/xlink" width="12px" height="22px" xmlns="http://www.w3.org/2000/svg">
  <g transform="matrix(1 0 0 1 -543 -246 )">
    <path d="M 11.5004068446667 19.2724696999999  L 3.31467856573329 11.2993577242858  L 11.2189940954667 2.74490369999998  C 11.7304960241333 2.1913301614286  11.6844233381333 1.33868614000011  11.1160878385333 0.840469961571301  C 10.5477523550667 0.342253784714188  9.67237115973342 0.387129785428613  9.16086921493331 0.940703316142759  L 0.576758683893331 10.2308662185714  C 0.516771247960037 10.2729352785715  0.459462193813351 10.3202503328571  0.405499505986654 10.3728113971429  C -0.135166503339974 10.8994341342857  -0.135166501726644 11.7532582828571  0.405499509213314 12.27988102  L 9.5424820157333 21.1795392285714  C 10.0831480420001 21.7061620285714  10.9597408345334 21.7061620285714  11.5004068446667 21.1795392285714  C 12.0410728548001 20.6529165857144  12.0410728548001 19.7990923428571  11.5004068446667 19.2724696999999  Z " fill-rule="nonzero" fill="#0079fe" stroke="none" transform="matrix(1 0 0 1 543 246 )" />
  </g>
</svg>