<?xml version="1.0" encoding="utf-8"?>
<svg version="1.1" xmlns:xlink="http://www.w3.org/1999/xlink" width="22px" height="17px" xmlns="http://www.w3.org/2000/svg">
  <g transform="matrix(1 0 0 1 -505 -445 )">
    <path d="M 0 0.708825364333279  C 0 0.317351925666571  0.328067808933326 0  0.731979369733352 0  L 8.80000000000001 0  L 11.825179036 3  L 22 3  L 22 16.2911746583334  C 22 16.6826481083333  21.6719321866667 17  21.2680206933333 17  L 0.731979369733352 17  C 0.327718327200017 17  0 16.6755824833333  0 16.2911746583334  L 0 0.708825364333279  Z M 7.45642089866669 2.83333333333326  L 3 2.83333333333326  L 3 14  L 19.0666666666667 14  L 19.0666666666667 5.6591358083333  L 10.6377445093333 5.65913585083331  L 7.45642089866669 2.83333333333326  Z " fill-rule="nonzero" fill="#0079fe" stroke="none" transform="matrix(1 0 0 1 505 445 )" />
  </g>
</svg>