<svg xmlns="http://www.w3.org/2000/svg" xmlns:xlink="http://www.w3.org/1999/xlink" width="24" height="22" version="1.1"><g><path fill="#0079fe" fill-rule="nonzero" stroke="none" d="M 0 22 L 23.8333333333334 22 L 23.8333333333334 0 L 20 4.25417807692293 L 20 18.5966575384615 L 3.40476190476193 18.5966575384615 L 3.40476190476193 3.4033424615385 L 6.73055597500002 3.4033424615385 L 6.73055597500002 0 L 0 0 L 0 22 Z M 7.56022676583461 15.8865660675997 C 7.59159343941246 16.0523716699931 7.52114233338432 16.220031102614 7.38335715974495 16.3130142933535 C 7.36105388964108 16.3303318149094 7.33665032550516 16.344534016138 7.31248182613979 16.354044899367 C 7.12590485249791 16.4300953269369 6.91513204337491 16.3660965830891 6.80486748714986 16.2025418880687 C 2.99653973904174 10.5536742491533 8.88773866471104 4.82729857712002 10.3075901180712 3.57336597349354 L 8.56015943880425 0.981413476688886 C 8.47404807099008 0.853685048055127 8.46534793204705 0.689580676069227 8.53674230964361 0.551880292129113 C 8.6112687905744 0.415465744553558 8.7524943829801 0.332625692503484 8.90431592475056 0 L 19.3198670827916 0 C 19.4571148078498 0.321331461556838 19.5853508974967 0.388903601886568 19.6646363660251 0.506507218757179 C 19.7418215553827 0.620995505271253 19.7569293888284 0.766044468468181 19.7057930295796 0.893473405937129 L 15.7981677173397 10.5482276471976 C 15.7387766744397 10.6902925629565 15.607020661569 10.7905387403431 15.4544939124561 10.8062160122789 C 15.2998852076138 10.8221651249231 15.1505394802953 10.7518410972442 15.0639030446931 10.6233338389951 L 13.1841549009632 7.83511571262682 C 12.0624673168729 8.60227587248028 11.1634919201152 9.28146494092664 10.4503882971225 9.89867751792553 C 7.02323240112139 12.8539731993832 7.53612249187415 15.7634526592863 7.56022676583461 15.8865660675997 Z" transform="matrix(1 0 0 1 -891 -387 ) matrix(1 0 0 1 891 387 )"/></g></svg>