<?xml version="1.0" encoding="utf-8"?>
<svg version="1.1" xmlns:xlink="http://www.w3.org/1999/xlink" width="22px" height="22px" xmlns="http://www.w3.org/2000/svg">
  <g transform="matrix(1 0 0 1 -203 -295 )">
    <path d="M 21.4814814814815 16.4444444444445  C 21.8271604938271 16.7901234567901  22 17.2098765432098  22 17.7037037037037  C 22 18.1975308641976  21.8271604938271 18.6172839506173  21.4814814814815 18.9629629629629  L 18.962962962963 21.4814814814815  C 18.6172839506173 21.8271604938271  18.1975308641975 22  17.7037037037037 22  C 17.2098765432099 22  16.7901234567901 21.8271604938271  16.4444444444445 21.4814814814815  L 11 16.0370370370371  L 5.55555555555554 21.4814814814815  C 5.2098765432099 21.8271604938271  4.79012345679013 22  4.29629629629628 22  C 3.80246913580248 22  3.38271604938274 21.8271604938271  3.03703703703701 21.4814814814815  L 0.518518518518505 18.9629629629629  C 0.172839506172863 18.6172839506173  0 18.1975308641976  0 17.7037037037037  C 0 17.2098765432098  0.172839506172863 16.7901234567901  0.518518518518505 16.4444444444445  L 5.96296296296296 11  L 0.518518518518505 5.55555555555554  C 0.172839506172863 5.20987654320993  0 4.79012345679018  0 4.2962962962963  C 0 3.80246913580243  0.172839506172863 3.38271604938268  0.518518518518505 3.03703703703707  L 3.03703703703701 0.518518518518476  C 3.38271604938274 0.172839506172863  3.80246913580248 0  4.29629629629628 0  C 4.79012345679013 0  5.2098765432099 0.172839506172863  5.55555555555554 0.518518518518476  L 11 5.96296296296293  L 16.4444444444445 0.518518518518476  C 16.7901234567901 0.172839506172863  17.2098765432099 0  17.7037037037037 0  C 18.1975308641975 0  18.6172839506173 0.172839506172863  18.962962962963 0.518518518518476  L 21.4814814814815 3.03703703703707  C 21.8271604938271 3.38271604938268  22 3.80246913580243  22 4.2962962962963  C 22 4.79012345679018  21.8271604938271 5.20987654320993  21.4814814814815 5.55555555555554  L 16.037037037037 11  L 21.4814814814815 16.4444444444445  Z " fill-rule="nonzero" fill="#0079fe" stroke="none" transform="matrix(1 0 0 1 203 295 )" />
  </g>
</svg>