<?xml version="1.0" encoding="utf-8"?>
<svg version="1.1" xmlns:xlink="http://www.w3.org/1999/xlink" width="22px" height="22px" xmlns="http://www.w3.org/2000/svg">
  <g transform="matrix(1 0 0 1 -159 -587 )">
    <path d="M 0.515896381578955 11.0365008223685  C 0.515896381578955 16.8766324013158  5.25087171052633 21.6110649671053  11.0910485197368 21.6110649671053  C 16.9311800986843 21.6110649671053  21.6650246710527 16.8766324013158  21.6650246710527 11.0365008223685  C 21.6650246710527 5.19632401315788  16.9311800986843 0.461348684210506  11.0910485197368 0.461348684210506  C 5.25087171052633 0.461348684210506  0.515896381578955 5.19632401315788  0.515896381578955 11.0365008223685  Z M 17.0718462171052 8.22403782894733  L 18.8636430921053 8.22403782894733  C 19.0427097039474 8.22403782894733  19.0427097039474 8.11914884868418  19.0427097039474 8.29875822368423  L 17.9660485197368 9.14248355263162  L 15.2789185855263 11.4204152960526  L 16.1720353618422 17.1551151315789  C 15.99296875 17.3336389802632  15.9885814144737 17.3336389802632  15.8084292763158 17.3336389802632  L 11.1427014802632 14.4662664473684  L 6.46702302631581 17.3336389802632  C 6.10888980263155 17.3336389802632  6.07207236842106 17.3336389802632  6.07207236842106 17.1551151315789  L 6.71529194078948 11.4204152960526  L 3.88089226973682 8.91180921052631  L 2.91192434210529 8.22403782894733  L 5.4288075657895 8.22403782894733  L 8.47411595394738 8.22403782894733  L 9.19097039473678 6.94691611842109  L 10.982224506579 3.16168585526313  C 11.1607483552631 3.16168585526313  11.1607483552631 3.16168585526313  11.3409457236842 3.16168585526313  L 13.3107236842105 6.94691611842109  L 14.027578125 8.22403782894733  L 17.0718462171052 8.22403782894733  Z M 2.63837171052631 8.22403782894733  L 2.91192434210529 8.22403782894733  L 2.63837171052631 8.22403782894733  Z M 7.11406034482758 14.4137931034483  L 15.3759137931035 14.4137931034483  L 10.4941422413793 13.1863553639847  L 15.1882025862069 8.34482758620689  L 7.48953017241382 8.34482758620689  L 12.5590129310344 9.42949712643681  L 7.11406034482758 14.4137931034483  Z " fill-rule="nonzero" fill="#0079fe" stroke="none" transform="matrix(1 0 0 1 159 587 )" />
  </g>
</svg>