<?xml version="1.0" encoding="utf-8"?>
<svg version="1.1" xmlns:xlink="http://www.w3.org/1999/xlink" width="24px" height="19px" xmlns="http://www.w3.org/2000/svg">
  <g transform="matrix(1 0 0 1 -891 -247 )">
    <path d="M 17.2737097139605 13.9179094943768  C 18.9003951633516 11.2173307695884  18.8847198566316 8.51431208755446  17.3504903452923 5.79776015428934  C 17.1353981840784 5.41718356724596  16.9017935565573 5.00710052049442  17.5925709870806 4.7863978761967  C 18.2347265951761 4.58132798122506  18.8405310960591 4.63367357561106  19.1937929291755 5.1853308857701  C 20.1155860790965 6.62476380239798  20.6330130588344 8.14780781206434  20.6028327737242 9.79960212380331  C 20.646773282833 11.3772614555257  20.1312968503114 12.8737496514548  19.2939801271029 14.3165587879915  C 19.029876034018 14.7717243005856  18.637355005112 14.9606223859096  18.0313022527651 14.921838414351  C 17.2055114903801 14.8689821312391  16.9120782600613 14.5181389766706  17.2737097139605 13.9179094943768  Z M 14.4227189736499 7.81786821885555  C 14.2667815898317 7.34198198407535  14.1853196451808 6.8579310344827  14.9032983432475 6.65765909161337  C 15.6300367715401 6.45499132509224  16.2795335300679 6.69807285373474  16.4511816851007 7.32807990209744  C 16.6864176793847 8.19167975648293  16.8221403011432 9.07662135576413  16.9872275246305 9.88804899773834  C 16.8016063586299 10.7592146110234  16.6662029173249 11.5376051058029  16.4628495039036 12.3016521826689  C 16.2974430999629 12.9228955603061  15.6471306580537 13.2244856244386  14.9650774932615 13.0591422684885  C 14.2017042417976 12.8741279393997  14.2409634375872 12.3854429624811  14.4127534505996 11.8645089382532  C 14.8574427514174 10.5152188865137  14.8659896946742 9.17015305015946  14.4227189736499 7.81786821885555  Z M 11.6799587786969 0.609497840470794  C 11.8628988288874 0.468207293022033  12.0515983130402 0.297977717782601  12.2681870759365 0.237865399026305  C 12.6763692257644 0.124689329863372  13.2111454363789 -0.0926991573913938  13.4990603913003 0.058485984117965  C 13.7961677432847 0.214432234059927  13.9967265545125 0.754325971279854  14.0064863834929 1.13159726740412  C 14.0560231898875 3.02768875185893  14.0293822613625 4.92556232717948  14.0293822613625 6.8227975415931  C 14.0294106329585 7.581702266707  14.0294106329585 8.34058039344973  14.0294106329585 9.09951171693479  C 14.0294106329585 11.6664141213171  14.0316519890324 14.2333165256996  14.0254953527279 16.8001125365972  C 14.0249279208105 17.0418917301793  14.014061599591 17.2967041256157  13.9342239288038 17.5225242965194  C 13.7315939910771 18.0963575553026  13.288089204387 18.3058197279604  12.7117202342224 18.0423362635353  C 12.2041523840505 17.8103186721581  11.720870619946 17.5078685940259  11.2808555395483 17.1741388314434  C 9.726914861976 15.9959107854471  8.20894936797096 14.7758701000325  6.64578792174002 13.6088665666535  C 6.34113372525327 13.3815568869668  5.89830985686406 13.2146787064898  5.51299521330983 13.2026828411097  C 4.01460612045732 13.1562420851149  2.51380544195553 13.1895698441421  1.01385591133005 13.1809253735245  C 0.157686262663855 13.1760046748652  0.0199421646993549 13.0476409357863  0.0165943163862643 12.2410719296055  C 0.00808283762433248 10.1434179887187  0.00487684729072058 8.04571085108989  0.0144948182916522 5.94811010694548  C 0.0182682405428096 5.11148494138627  0.172070661771549 4.97875906944194  1.06242808346504 4.97516828933908  C 2.4909379356818 4.96947623791709  3.92080962450043 5.00708633469651  5.34707812064319 4.95325123152702  C 5.77634036620503 4.93702622513717  6.26966567524866 4.76589230527918  6.60626628868851 4.51533564922386  C 8.31988230783529 3.23989055674338  9.99065721721346 1.91377556725763  11.6799587786969 0.609497840470794  Z M 19.7818651826378 3.32374635479607  C 19.6775083733884 3.17053973708073  19.5529672002178 3.0272809101682  19.4562099255771 2.87066970094804  C 19.2526943887509 2.54116907937532  18.7821616039063 2.22004694470922  19.3578415495996 1.83913167174001  C 19.8345451565467 1.523754785238  20.5554978058237 1.61716826465056  20.878204443456 2.13309686948128  C 21.621074150545 3.32159188673427  22.4284487073944 4.50295854052422  22.943149987386 5.77015813795424  C 23.4135611796767 6.92859699582914  23.5334514376667 8.1960359785993  23.8079770258787 9.41549149984905  C 23.6423071714046 12.143154459348  22.6449746474712 14.5634998387978  20.8843144692815 16.750497708314  C 20.7002841391924 16.979030913073  20.2744366178482 17.1310938008295  19.9385979844117 17.1692624634028  C 19.6945617290507 17.1970577612346  19.323461255029 17.0329458113557  19.1802252267205 16.8511193463031  C 19.0806713233439 16.7242451160075  19.2072795699282 16.3864192042709  19.3420041194747 16.2048055261874  C 20.3928677651932 14.7875645172065  21.1926731855722 13.2840915890184  21.5467203039316 11.611399823694  C 22.1736819091657 8.64940521452968  21.5351994094645 5.89618122037371  19.7818651826378 3.32374635479607  Z " fill-rule="nonzero" fill="#0079fe" stroke="none" transform="matrix(1 0 0 1 891 247 )" />
  </g>
</svg>