<?xml version="1.0" encoding="utf-8"?>
<svg version="1.1" xmlns:xlink="http://www.w3.org/1999/xlink" width="22px" height="22px" xmlns="http://www.w3.org/2000/svg">
  <g transform="matrix(1 0 0 1 -1115 -246 )">
    <path d="M 21.9959798595122 12.8315447082927  L 20.1644351512196 12.8315447082927  L 20.1644351512196 20.1577235629269  C 20.1644351512196 21.6752891863415  19.8504560663414 21.9892682712195  18.3303985404877 22  L 3.66807322146349 22  C 2.15050759804876 21.9892682926829  1.83403661073169 21.6752892078049  1.83403661073169 20.1577235843903  L 1.83403661073169 12.8315447082927  L 0 12.8315447082927  L 0 7.33691056195119  C 0 6.32520014634144  0.819834292683026 5.50536585365853  1.83403661073169 5.50536585365853  L 4.58259963512194 5.50536585365853  C 4.14651756682917 4.92973750634141  3.66558131902434 4.45129318243897  3.66558131902434 3.67382114536586  C 3.77771671414644 1.04736110439019  5.43233669268295 0.0107317073170634  7.3311626380488 0.0107317073170634  C 9.23248050731706 0.0107317073170634  11.1562254341463 2.59981327609755  10.9992358809757 5.50536585365853  C 10.9219870556097 2.28832609365854  12.7684831570731 0.0107317073170634  14.6648172214634 0.0107317073170634  C 16.5636431668293 0.0107317073170634  18.4998475843902 1.27163187317078  18.3303985404877 3.67382114536586  C 18.3303985404877 4.45129318243897  17.8494623141463 4.92973752780489  17.4133802243903 5.50536585365853  L 20.1619432487805 5.50536585365853  C 21.1736536643903 5.50536585365853  21.9959798595122 6.32520014634144  21.9959798595122 7.33691056195119  L 21.9959798595122 12.8315447082927  Z M 17.4158721482927 20.1577235629269  C 17.9217273346342 20.1577235843903  18.3303985404877 19.7465604760976  18.3303985404877 19.2407052682927  L 18.3303985404877 12.8315447082927  L 11.9162541970732 12.8315447082927  L 11.9162541970732 20.1577235629269  L 17.4158721482927 20.1577235629269  Z M 3.66807322146349 12.8315447082927  L 3.66807322146349 19.2407052682927  C 3.66807322146349 19.7465604760976  4.0792363297561 20.1577235843903  4.58509153756097 20.1577235843903  L 10.0847094887805 20.1577235843903  L 10.0847094673171 12.8315447082927  L 3.66807322146349 12.8315447082927  Z M 10.0822175648781 7.33691056195119  L 3.66807322146349 7.33691056195119  L 2.75105492682928 7.33691056195119  C 2.24519971902441 7.33691056195119  1.83403661073169 7.74807367024385  1.83403661073169 8.25143697560975  L 1.83403661073169 11  L 10.0822175648781 11  L 10.0822175648781 7.33691056195119  Z M 9.62370841756103 5.50536583219514  C 9.62620031999995 4.36656867121948  8.47245174439024 1.84227641560973  7.33365456195122 1.84227641560973  C 6.1948573795122 1.84227641560973  5.49961795121953 2.30576936780487  5.49961795121953 3.44456655024392  C 5.49961795121953 4.58336373268293  6.42411195317072 5.50536583219514  7.56041723317071 5.50536583219514  C 8.69921441560973 5.50536583219514  8.59206282536582 5.50536583219514  9.62370841756103 5.50536583219514  Z M 16.4963619082927 3.4445665717073  C 16.4988538321951 2.30576936780487  15.8036144039024 1.84227641560973  14.6648172214634 1.84227641560973  C 13.5260200390244 1.84227641560973  12.3747633443902 4.36656864975609  12.3747633443902 5.50536585365853  C 13.4064089365853 5.50536585365853  13.2967654439024 5.50536585365853  14.4355626263414 5.50536585365853  C 15.5743598087805 5.50536585365853  16.4963619082927 4.58336375414635  16.4963619082927 3.4445665717073  Z M 20.1644351512196 11  L 20.1644351512196 8.25143697560975  C 20.1644351512196 7.74558176780491  19.7532720429268 7.33691056195119  19.247416835122 7.33691056195119  L 18.3303985190245 7.33691056195119  L 11.9162541970732 7.33691056195119  L 11.9162541970732 11  L 20.1644351512196 11  Z " fill-rule="nonzero" fill="#0079fe" stroke="none" transform="matrix(1 0 0 1 1115 246 )" />
  </g>
</svg>