<?xml version="1.0" encoding="utf-8"?>
<svg version="1.1" xmlns:xlink="http://www.w3.org/1999/xlink" width="24px" height="23px" xmlns="http://www.w3.org/2000/svg">
  <g transform="matrix(1 0 0 1 -295 -684 )">
    <path d="M 3.22927405783639 18.1754670734957  C 2.66347079403056 18.4885226290512  1.88891108675455 18.1867337833798  1.46891108675459 17.4895833333333  C 1.04891108675463 16.7924328832866  1.16347079403056 15.9986995931709  1.72927405783639 15.6856440376154  L 5.77072594216384 13.4495329265041  C 5.79155388289382 13.4399613519211  5.81428717606786 13.4303284112094  5.83573568966278 13.4166638153603  L 1.16666666666663 13.4166666666667  C 0.513333333333321 13.4166666666667  0 12.7841666666666  0 11.9791666666667  C 0 11.1741666666667  0.513333333333321 10.5416666666667  1.16666666666663 10.5416666666667  L 5.83333333333337 10.5416666666667  C 6.48666666666668 10.5416666666667  7 11.1741666666667  7 11.9791666666667  C 7 12.6033457311062  6.69137855437339 13.1238159656033  6.24817070856716 13.3261413288935  C 6.71796360870326 13.3216965518581  7.2210991890189 13.6208702958226  7.53108891324564 14.1354166666667  C 7.9510889132456 14.8325671167132  7.83652920596967 15.6263004068289  7.27072594216384 15.9393559623844  L 3.22927405783639 18.1754670734957  Z M 18.1666666666666 13.4166666666667  C 18.0207912563911 13.4163203533911  17.8795231525538 13.3844338589156  17.7518292911357 13.3261413288909  C 17.3086214472787 13.1238159683892  17 12.6033457327768  17 11.9791666666667  C 17 11.1741666666667  17.5133333333333 10.5416666666667  18.1666666666666 10.5416666666667  L 22.8333333333334 10.5416666666667  C 23.4866666666667 10.5416666666667  24 11.1741666666667  24 11.9791666666667  C 24 12.7841666666666  23.4866666666667 13.4166666666667  22.8333333333334 13.4166666666667  L 18.1666666666666 13.4166666666667  Z M 14.0342952276566 17.4697209720928  C 13.7076285609899 16.927492844279  14.0225386608209 16.1852064581394  14.7499999999999 15.7827064581394  C 15.4774613391788 15.3802064581393  16.3057047723432 15.489992844279  16.6323714390099 16.0322209720928  L 18.9657047723432 19.9052790279066  C 19.2923714390099 20.4475071557204  18.9774613391788 21.1897935418599  18.2499999999999 21.59229354186  C 17.5225386608209 21.99479354186  16.6942952276565 21.8850071557204  16.3676285609898 21.3427790279066  L 14.0342952276566 17.4697209720928  Z M 10 5.5902777777777  L 10 1.11805555555563  C 10 0.491944444444433  10.66 0  11.5 0  C 12.34 0  13 0.491944444444433  13 1.11805555555563  L 13 5.5902777777777  C 13 6.2163888888889  12.34 6.70833333333333  11.5 6.70833333333333  C 10.66 6.70833333333333  10 6.2163888888889  10 5.5902777777777  Z M 9.9657047723432 5.53027902790701  C 10.2923714390099 6.07250715572082  9.97746133917883 6.81479354186033  9.24999999999989 7.21729354186041  C 8.52253866082094 7.61979354186047  7.69429522765654 7.51000715572082  7.36762856098983 6.96777902790701  L 5.03429522765657 3.09472097209321  C 4.70762856098986 2.55249284427939  5.02253866082094 1.81020645813988  5.74999999999989 1.40770645813981  C 6.47746133917883 1.00520645813974  7.30570477234323 1.11499284427939  7.63237143900994 1.65722097209321  L 9.9657047723432 5.53027902790701  Z M 3.22927405783616 4.82453292650432  L 7.27072594216361 7.06064403761558  C 7.83652920596944 7.37369959317107  7.95108891324537 8.16743288328684  7.53108891324541 8.86458333333333  C 7.11108891324545 9.56173378337982  6.33652920596944 9.86352262905117  5.77072594216361 9.55046707349568  L 1.72927405783616 7.31435596238442  C 1.16347079403033 7.00130040682893  1.0489110867544 6.20756711671316  1.46891108675436 5.51041666666667  C 1.88891108675432 4.81326621662018  2.66347079403033 4.51147737094883  3.22927405783616 4.82453292650432  Z M 16.4689110867544 14.1354166666667  C 16.7789008114959 13.6208702949682  17.2820363929678 13.3216965508645  17.7518292937734 13.326141328916  C 17.8944969640864 13.327491128218  18.0340896794838 13.3568414736225  18.1642643103399 13.4166638153606  L 22.2707259421637 15.6856440376156  C 22.8365292059697 15.9986995931711  22.9510889132456 16.7924328832868  22.5310889132456 17.4895833333333  C 22.1110889132457 18.1867337833798  21.3365292059697 18.4885226290512  20.7707259421637 18.1754670734957  L 16.7292740578363 15.9393559623844  C 16.1634707940303 15.6263004068289  16.0489110867544 14.8325671167132  16.4689110867544 14.1354166666667  Z M 14.0342952276567 5.53027902790679  L 16.3676285609899 1.65722097209299  C 16.6942952276567 1.11499284427918  17.5225386608211 1.00520645813953  18.25 1.4077064581396  C 18.9774613391788 1.81020645813967  19.2923714390099 2.55249284427918  18.9657047723432 3.09472097209299  L 16.6323714390099 6.96777902790679  C 16.3057047723432 7.51000715572061  15.4774613391788 7.61979354186026  14.75 7.21729354186019  C 14.0225386608211 6.81479354186012  13.70762856099 6.07250715572061  14.0342952276567 5.53027902790679  Z M 10 17.4097222222223  C 10.0003613703745 17.2699249540416  10.033634234175 17.1345430211971  10.094461222027 17.0121697373381  C 10.3055833373329 16.5874288869752  10.8486827136242 16.2916666666667  11.5 16.2916666666667  C 12.34 16.2916666666667  13 16.7836111111111  13 17.4097222222223  L 13 21.8819444444444  C 13 22.5080555555556  12.34 23  11.5 23  C 10.66 23  10 22.5080555555556  10 21.8819444444444  L 10 17.4097222222223  Z M 9.25 15.7827064581398  C 9.78691795307645 16.0797799443505  10.0990992512715 16.5619515432609  10.0944612220006 17.0121697398662  C 10.0930527357724 17.1488929239161  10.0624262883939 17.2826692761719  10.0000029752761 17.4074199640757  L 7.63237143900994 21.342779027907  C 7.30570477234323 21.8850071557208  6.47746133917883 21.9947935418605  5.75 21.5922935418604  C 5.02253866082106 21.1897935418603  4.70762856098997 20.4475071557208  5.03429522765668 19.905279027907  L 7.36762856098994 16.0322209720932  C 7.69429522765665 15.4899928442794  8.52253866082106 15.3802064581397  9.25 15.7827064581398  Z M 20.7707259421638 4.82453292650432  C 21.3365292059697 4.51147737094883  22.1110889132457 4.81326621662018  22.5310889132456 5.51041666666667  C 22.9510889132456 6.20756711671316  22.8365292059697 7.00130040682893  22.2707259421638 7.31435596238442  L 18.2292740578364 9.55046707349568  C 17.6634707940306 9.86352262905117  16.8889110867545 9.56173378337982  16.4689110867546 8.86458333333333  C 16.0489110867546 8.16743288328684  16.1634707940306 7.37369959317107  16.7292740578364 7.06064403761558  L 20.7707259421638 4.82453292650432  Z M 5.83573568966278 13.4166638153603  C 5.98161110288277 13.4163175027051  6.12047684875699 13.384433858903  6.24817070856716 13.3261413288935  C 6.12832986446881 13.3272751600594  5.96478783046837 13.3713586218371  5.83573568966278 13.4166638153603  Z " fill-rule="nonzero" fill="#0079fe" stroke="none" transform="matrix(1 0 0 1 295 684 )" />
  </g>
</svg>