<?xml version="1.0" encoding="utf-8"?>
<svg version="1.1" xmlns:xlink="http://www.w3.org/1999/xlink" width="22px" height="22px" xmlns="http://www.w3.org/2000/svg">
  <g transform="matrix(1 0 0 1 -337 -295 )">
    <path d="M 21.7501888720703 11  C 21.7501888720703 5.0628428930664  16.9371571069336 0.249811127929576  11 0.249811127929576  C 5.06281541992189 0.249811127929576  0.249811127929661 5.0628428930664  0.249811127929661 11  C 0.249811127929661 16.9371845800782  5.06281541992189 21.7501888720704  11 21.7501888720704  C 16.9371571069336 21.7501888720704  21.7501888720703 16.9371845800782  21.7501888720703 11  Z M 16.085784338379 15.2635418310547  C 16.3223164575195 15.5000464770508  16.3223164575195 15.8835214624023  16.085784338379 16.120026135254  C 15.8492796923829 16.3565582543946  15.4658046801758 16.3565582543946  15.2292725610351 16.120026135254  L 10.9647688745117 11.8555224487304  L 6.71559982177735 16.1047190014648  C 6.47906770263671 16.3412236474609  6.09559269042961 16.3412236474609  5.85908804443352 16.1047190014648  C 5.622555925293 15.8681868823242  5.622555925293 15.4847393432616  5.85908804443352 15.248179724121  L 10.108257097168 10.9990106713868  L 5.91325380615228 6.80397990722648  C 5.67672168701176 6.56744778808584  5.67672168701176 6.18400024902351  5.91325380615228 5.94749560302742  C 6.14975845214838 5.71096348388679  6.53323346435548 5.71096348388679  6.76976558349611 5.94749560302742  L 10.9647688745117 10.1424988940429  L 15.129020505371 5.86271557373041  C 15.3655526245118 5.62618345458978  15.7490001635742 5.62618345458978  15.9855322827149 5.86271557373041  C 16.222036928711 6.09924769287105  16.2220644018554 6.4826952319336  15.9855322827149 6.71922735107424  L 11.8212806787109 10.9990106713868  L 16.085784338379 15.2635418310547  Z " fill-rule="nonzero" fill="#0079fe" stroke="none" transform="matrix(1 0 0 1 337 295 )" />
  </g>
</svg>