<?xml version="1.0" encoding="utf-8"?>
<svg version="1.1" xmlns:xlink="http://www.w3.org/1999/xlink" width="12px" height="22px" xmlns="http://www.w3.org/2000/svg">
  <g transform="matrix(1 0 0 1 -782 -246 )">
    <path d="M 0.916373341210829 21.4133333407258  C 0.837319999999863 21.4867612903225  0.734066658789061 21.5238537560484  0.630813341211024 21.5238537560484  C 0.527559999999994 21.5238537560484  0.424306682421843 21.4867612903225  0.345253341210878 21.4133333185484  C 0.187953341210914 21.2657204153227  0.187953341210914 21.0257548165324  0.345253341210878 20.8781419133064  L 10.8980666824219 10.9752085725806  L 0.346059999999966 1.07227527620961  C 0.188760000000002 0.924662372983789  0.188760000000002 0.684696774193526  0.346059999999966 0.537083870967763  C 0.503360000000043 0.389470967741829  0.759073341210978 0.389470967741829  0.916373341210829 0.537083870967763  L 11.7547466824219 10.7072344012096  C 11.8305733412109 10.7783913830644  11.8725200236329 10.8745290322579  11.8725200236329 10.9752085947581  C 11.8725200236329 11.075888157258  11.8297666824219 11.1720258064516  11.7547466824219 11.2431827883064  L 0.916373341210829 21.4133333407258  Z " fill-rule="nonzero" fill="#0079fe" stroke="none" transform="matrix(1 0 0 1 782 246 )" />
  </g>
</svg>