<?xml version="1.0" encoding="utf-8"?>
<svg version="1.1" xmlns:xlink="http://www.w3.org/1999/xlink" width="22px" height="19px" xmlns="http://www.w3.org/2000/svg">
  <g transform="matrix(1 0 0 1 -637 -444 )">
    <path d="M 14.8426339285715 16.2291666666666  C 15.6201636904762 15.9652777777777  16.3035714285715 15.8333333333334  16.8928571428572 15.8333333333334  L 17.2857142857143 15.8333333333334  L 17.2857142857143 7.91666666666663  L 16.8928571428572 7.91666666666663  C 16.6063988095238 7.91666666666663  16.3301711309524 7.8671875  16.0641741071428 7.76822916666663  C 15.7981770833333 7.66927083333337  15.5424107142857 7.51671006944434  15.296875 7.310546875  C 15.0513392857143 7.10438368055566  14.8467261904762 6.91471354166663  14.6830357142857 6.74153645833337  C 14.5193452380952 6.568359375  14.3188244047619 6.345703125  14.0814732142857 6.07356770833337  C 14.0651041666667 6.048828125  14.05078125 6.0302734375  14.0385044642857 6.01790364583337  C 14.0262276785715 6.00553385416663  14.0098586309524 5.98697916666663  13.9893973214285 5.96223958333337  C 13.9689360119048 5.9375  13.9505208333333 5.91688368055566  13.9341517857143 5.900390625  C 13.3448660714285 5.232421875  12.8865327380952 4.63454861111109  12.5591517857143 4.10677083333337  C 12.4445684523809 3.92534722222229  12.2890625 3.64496527777771  12.0926339285715 3.265625  C 12.0844494047619 3.24088541666663  12.0414806547619 3.14811197916663  11.9637276785715 2.9873046875  C 11.8859747023809 2.82649739583337  11.8102678571428 2.67805989583337  11.7366071428572 2.5419921875  C 11.6629464285715 2.40592447916663  11.5811011904762 2.25954861111109  11.4910714285715 2.10286458333337  C 11.4010416666667 1.94618055555566  11.3130580357143 1.82042100694434  11.2271205357143 1.7255859375  C 11.1411830357143 1.63075086805566  11.0654761904762 1.58333333333337  11 1.58333333333337  C 10.4188988095238 1.58333333333337  9.9462425595238 1.70909288194434  9.58203125 1.96061197916663  C 9.2178199404762 2.21213107638891  9.03571428571433 2.61414930555566  9.03571428571433 3.16666666666663  C 9.03571428571433 3.52126736111109  9.09709821428567 3.86968315972229  9.2198660714285 4.2119140625  C 9.3426339285715 4.55414496527771  9.4776785714285 4.83452690972229  9.625 5.05305989583337  C 9.7723214285715 5.27159288194434  9.9073660714285 5.49837239583337  10.0301339285715 5.7333984375  C 10.1529017857143 5.96842447916663  10.2142857142857 6.16840277777771  10.2142857142857 6.33333333333337  L 3.14285714285717 6.33333333333337  C 2.73363095238091 6.33333333333337  2.36941964285717 6.49207899305566  2.05022321428567 6.8095703125  C 1.73102678571433 7.12706163194434  1.5714285714285 7.49609375  1.5714285714285 7.91666666666663  C 1.5714285714285 8.34548611111109  1.72693452380955 8.71657986111109  2.0379464285715 9.02994791666663  C 2.34895833333329 9.34331597222229  2.71726190476193 9.5  3.14285714285717 9.5  L 7.20647321428567 9.5  C 7.08370535714283 9.64019097222229  6.9813988095238 9.83604600694434  6.8995535714285 10.0875651041666  C 6.81770833333329 10.3390842013889  6.77678571428567 10.5679253472223  6.77678571428567 10.7740885416666  C 6.77678571428567 11.3430989583334  6.99367559523807 11.8337673611111  7.42745535714283 12.24609375  C 7.2801339285715 12.5099826388889  7.20647321428567 12.7944878472223  7.20647321428567 13.099609375  C 7.20647321428567 13.4047309027777  7.27808779761909 13.7077907986111  7.42131696428567 14.0087890625  C 7.56454613095238 14.3097873263889  7.7589285714285 14.5262586805557  8.00446428571433 14.658203125  C 7.9717261904762 14.8561197916666  7.95535714285717 15.0870225694443  7.95535714285717 15.3509114583334  C 7.95535714285717 16.0518663194443  8.15383184523807 16.5713975694443  8.55078125 16.9095052083334  C 8.94773065476193 17.2476128472223  9.50223214285717 17.4166666666666  10.2142857142857 17.4166666666666  C 10.9017857142857 17.4166666666666  11.6506696428572 17.2847222222223  12.4609375 17.0208333333334  C 13.2712053571428 16.7569444444443  14.0651041666667 16.4930555555557  14.8426339285715 16.2291666666666  Z M 20.1953125 15.5983072916666  C 20.3508184523809 15.4416232638889  20.4285714285715 15.2560763888889  20.4285714285715 15.0416666666666  C 20.4285714285715 14.8272569444443  20.3508184523809 14.6417100694443  20.1953125 14.4850260416666  C 20.0398065476191 14.3283420138889  19.8556547619048 14.25  19.6428571428572 14.25  C 19.4300595238096 14.25  19.2459077380952 14.3283420138889  19.0904017857143 14.4850260416666  C 18.9348958333333 14.6417100694443  18.8571428571428 14.8272569444443  18.8571428571428 15.0416666666666  C 18.8571428571428 15.2560763888889  18.9348958333333 15.4416232638889  19.0904017857143 15.5983072916666  C 19.2459077380952 15.7549913194443  19.4300595238096 15.8333333333334  19.6428571428572 15.8333333333334  C 19.8556547619048 15.8333333333334  20.0398065476191 15.7549913194443  20.1953125 15.5983072916666  Z M 21.5396205357143 6.79720052083337  C 21.8465401785715 7.1064453125  22 7.47960069444434  22 7.91666666666663  L 22 15.8333333333334  C 22 16.2703993055557  21.8465401785715 16.6435546875  21.5396205357143 16.9527994791666  C 21.2327008928572 17.2620442708334  20.8623511904761 17.4166666666666  20.4285714285715 17.4166666666666  L 16.8928571428572 17.4166666666666  C 16.4099702380952 17.4166666666666  15.4973958333333 17.6599392361111  14.1551339285715 18.146484375  C 12.6000744047619 18.7154947916666  11.3028273809524 19  10.2633928571428 19  C 9.10119047619045 19  8.15997023809521 18.6804470486111  7.43973214285717 18.0413411458334  C 6.71949404761909 17.4022352430557  6.36346726190479 16.5054253472223  6.37165178571433 15.3509114583334  L 6.3839285714285 15.2890625  C 5.88467261904762 14.6623263888889  5.63504464285717 13.9283854166666  5.63504464285717 13.0872395833334  C 5.63504464285717 12.9058159722223  5.6473214285715 12.728515625  5.671875 12.5553385416666  C 5.40178571428567 12.0852864583334  5.25037202380955 11.5946180555557  5.2176339285715 11.0833333333334  L 3.14285714285717 11.0833333333334  C 2.28348214285717 11.0833333333334  1.54482886904762 10.7699652777777  0.926897321428498 10.1432291666666  C 0.308965773809547 9.51649305555566  0 8.77018229166663  0 7.904296875  C 0 7.05490451388891  0.311011904761926 6.31684027777771  0.933035714285666 5.69010416666663  C 1.55505952380955 5.06336805555566  2.29166666666671 4.75  3.14285714285717 4.75  L 7.734375 4.75  C 7.55431547619045 4.25520833333337  7.46428571428567 3.72743055555566  7.46428571428567 3.16666666666663  C 7.46428571428567 2.16059027777771  7.7978050595238 1.38129340277771  8.46484375 0.828776041666629  C 9.1318824404762 0.276258680555657  9.97693452380955 0  11 0  C 11.3110119047619 0  11.5954241071428 0.0721571180556566  11.8532366071428 0.216471354166629  C 12.1110491071428 0.360785590277715  12.3361235119048 0.564887152777715  12.5284598214285 0.828776041666629  C 12.7207961309524 1.09266493055566  12.8865327380952 1.35243055555566  13.0256696428572 1.60807291666663  C 13.1648065476191 1.86371527777771  13.3162202380952 2.16059027777771  13.4799107142857 2.49869791666663  C 13.6436011904762 2.83680555555566  13.7786458333333 3.09244791666663  13.8850446428572 3.265625  C 14.1715029761904 3.71918402777771  14.5807291666667 4.25108506944434  15.1127232142857 4.861328125  C 15.1290922619048 4.88606770833337  15.1863839285715 4.95616319444434  15.2845982142857 5.07161458333337  C 15.3828125 5.18706597222229  15.4605654761904 5.27571614583337  15.5178571428572 5.33756510416663  C 15.5751488095238 5.3994140625  15.6590401785715 5.48806423611109  15.76953125 5.603515625  C 15.8800223214285 5.71896701388891  15.9782366071428 5.81174045138891  16.0641741071428 5.8818359375  C 16.1501116071428 5.95193142361109  16.2421875 6.02615017361109  16.3404017857143 6.1044921875  C 16.4386160714285 6.18283420138891  16.5347842261904 6.24055989583337  16.62890625 6.27766927083337  C 16.7230282738096 6.31477864583337  16.8110119047619 6.33333333333337  16.8928571428572 6.33333333333337  L 20.4285714285715 6.33333333333337  C 20.8623511904761 6.33333333333337  21.2327008928572 6.48795572916663  21.5396205357143 6.79720052083337  Z " fill-rule="nonzero" fill="#0079fe" stroke="none" transform="matrix(1 0 0 1 637 444 )" />
  </g>
</svg>