<?xml version="1.0" encoding="utf-8"?>
<svg version="1.1" xmlns:xlink="http://www.w3.org/1999/xlink" width="22px" height="26px" xmlns="http://www.w3.org/2000/svg">
  <g transform="matrix(1 0 0 1 -116 -636 )">
    <path d="M 21.9143006296297 18.9456169033453  C 20.9909716550926 18.6662865821314  20.1596688333333 18.0114630571915  19.4372636180556 16.9811463031851  C 18.7179259259259 15.9523559622396  18.3574901990741 14.7831372414864  18.3574901990741 13.5040180980569  C 18.3574901990741 12.319535449419  18.7025882337963 11.2419004480168  19.375912849537 10.2756923076924  C 19.7516862685185 9.73076923076923  20.3467886620371 9.12173756550487  21.1627538171297 8.43638613411457  C 20.6305359537038 7.78003622145434  20.079912849537 7.25037707241592  19.5323572939815 6.87641025641028  C 18.5599477199074 6.20632277824518  17.4494989166667 5.86288386868995  16.1948758125 5.86288386868995  C 15.4264575208333 5.86288386868995  14.518466238426 6.05063047055296  13.4847058703704 6.39254299238792  C 12.4494117407407 6.75124585516829  11.6978649027777 6.92372850380605  11.2438692615741 6.92372850380605  C 10.8818997731481 6.92372850380605  10.1610282939815 6.76803619611383  9.07972111342599 6.45512519300883  C 7.98307624074073 6.14374057762427  7.07355117129634 5.98804826993188  6.30666664120372 5.98804826993188  C 4.50295421990745 5.98804826993188  3.03053592824074 6.73750828966342  1.85720259490745 8.23337557902636  C 0.682335500000022 9.74603318399443  0.0872331064814489 11.6799758777043  0.0872331064814489 14.0657315412661  C 0.0872331064814489 16.6224434657452  0.870989090277817 19.2264736122796  2.38942045833335 21.9098763257211  C 3.94006097222223 24.5917526514424  5.49223527314814 25.948717948718  7.10576031712958 25.948717948718  C 7.62264048842587 25.948717948718  8.31283655787036 25.7777616878005  9.1748147893519 25.4175324372997  C 10.0229890902777 25.0756199154648  10.7730021412037 24.9031372668269  11.4003137060186 24.9031372668269  C 12.0429629375 24.9031372668269  12.8405228518519 25.0588295745193  13.7653856134259 25.4022684840745  C 14.7071198287038 25.7289170526843  15.4264575208333 25.9013997013221  15.9602091458333 25.9013997013221  C 17.2915206851852 25.9013997013221  18.6397037037037 24.8863469005408  19.9878866967592 22.8440301718751  C 20.8958779791667 21.4870648745994  21.5231895185185 20.177417799379  21.9143006296297 18.9456169033453  Z M 19.9878867222222 19.6966033361379  C 19.6550588310186 20.4582745336539  19.2240697407408 21.2321568836138  18.7041219953703 22.0075656212941  C 17.6964357268519 23.5339607917669  16.7209586041666 24.3765309185697  15.9586753842592 24.3765309185697  C 15.733211337963 24.3765309185697  15.2546753842593 24.3047903409455  14.300671025463 23.9735625838341  C 13.2377690601852 23.5782262383814  12.260758175926 23.3782684587341  11.3987799699074 23.3782684587341  C 10.5690109097222 23.3782684587341  9.62727669444439 23.588911003105  8.57971242129634 24.0117224542267  C 7.69012635416664 24.3826364694511  7.25300219212966 24.4223227529046  7.10576034259259 24.4223227529046  C 6.14255336342592 24.4223227529046  4.94007843287034 23.259209633714  3.72533333333331 21.1604162553085  C 2.30966450000005 18.6586545675081  1.6210021666667 16.3385339053486  1.6210021666667 14.0657314905849  C 1.6210021666667 12.0264675373598  2.09647057175926 10.4222262130409  3.06581262268514 9.17210856300073  C 3.95386490277781 8.04104973798076  4.98455772222223 7.51444341506414  6.30666664120372 7.51444341506414  C 6.92170803703709 7.51444341506414  7.69012632870374 7.6487661933092  8.65179954629627 7.92199093830129  C 10.2637908287037 8.38754147365779  10.8665620810185 8.45012367427887  11.2423355 8.45012367427887  C 11.8941873518519 8.45012367427887  12.7914422523148 8.24863950691105  13.9678431342593 7.84109200901446  C 14.8712331064814 7.54191854607376  15.6197124212963 7.38927903916277  16.1918082638889 7.38927903916277  C 17.1258736203704 7.38927903916277  17.9326361550926 7.63197587770435  18.6611764675926 8.13568628345354  C 18.7624052152778 8.2059004733573  18.8682352986111 8.28527301492386  18.9740653564814 8.37227754577322  C 18.6243660115741 8.73250679627409  18.3390849583333 9.07594573116978  18.1120871504629 9.40564707522037  C 17.2531764675925 10.6359215835337  16.8191198287037 12.014256435597  16.8191198287037 13.5055445111177  C 16.8191198287037 15.1052066469351  17.2746492314815 16.5674932290665  18.1749716805556 17.8557707494992  C 18.7179259259259 18.6266003240183  19.3222309398149 19.2417375655048  19.9878867222222 19.6966033361379  Z M 14.1104836481481 4.928730022536  C 13.5460566388889 5.48891705268431  12.9816296296297 5.86288386868995  12.4172026203704 6.05063047055296  C 12.0567668935186 6.16053091856975  11.5245490300927 6.25364102564106  10.7883398842592 6.31622322626208  C 10.8205490300926 4.77303771484378  11.2269978333334 3.43133634545279  12.0107538171296 2.30943589743595  C 12.7945098009259 1.18448264863775  14.108949886574 0.421285063401456  15.929533761574 0  C 15.9602091458333 0.140428354467133  15.9908845300926 0.250328802483921  16.0062222222222 0.343438909555232  C 16.0062222222222 0.451812969851744  16.0230936759259 0.544923076923169  16.0230936759259 0.6548235249399  C 16.0230936759259 1.29438309665466  15.8666492314815 2.01178882221552  15.5690980347222 2.77651282051283  C 15.2562091458333 3.55650074669472  14.7700043587963 4.27390649759622  14.1104836481481 4.928730022536  Z " fill-rule="nonzero" fill="#0079fe" stroke="none" transform="matrix(1 0 0 1 116 636 )" />
  </g>
</svg>