<?xml version="1.0" encoding="utf-8"?>
<svg version="1.1" xmlns:xlink="http://www.w3.org/1999/xlink" width="22px" height="32px" xmlns="http://www.w3.org/2000/svg">
  <g transform="matrix(1 0 0 1 -891 -536 )">
    <path d="M 7.5625 22.5146198830411  L 7.5625 30.8450292397661  L 8.47916666666669 30.8450292397661  C 8.70833333333331 30.8450292397661  8.9375 30.6198830409359  8.9375 30.3947368421053  L 8.9375 22.9649122807017  C 8.9375 22.7397660818714  8.70833333333331 22.5146198830411  8.47916666666669 22.5146198830411  L 7.5625 22.5146198830411  Z M 5.5 22.5146198830411  L 5.5 30.8450292397661  L 6.64583333333331 30.8450292397661  L 6.64583333333331 22.5146198830411  L 5.5 22.5146198830411  Z M 4.58333333333331 22.7397660818714  L 3.20833333333331 22.7397660818714  L 3.20833333333331 31.0701754385964  L 4.58333333333331 31.0701754385964  L 4.58333333333331 22.7397660818714  Z M 1.60416666666669 30.8450292397661  L 2.29166666666669 30.8450292397661  L 2.29166666666669 22.5146198830411  L 1.60416666666669 22.5146198830411  C 1.375 22.5146198830411  1.14583333333331 22.7397660818714  1.14583333333331 22.9649122807017  L 1.14583333333331 30.3947368421053  C 1.14583333333331 30.6198830409359  1.375 30.8450292397661  1.60416666666669 30.8450292397661  Z M 20.625 26.7923976608188  C 20.625 24.5409356725148  18.7916666666667 22.7397660818714  16.5 22.7397660818714  C 14.2083333333333 22.7397660818714  12.375 24.5409356725148  12.375 26.7923976608188  C 12.375 29.0438596491227  14.2083333333333 30.8450292397661  16.5 30.8450292397661  C 18.7916666666667 30.8450292397661  20.625 29.0438596491227  20.625 26.7923976608188  Z M 15.125 18.9122807017543  C 14.4375 18.9122807017543  13.9791666666667 18.4619883040937  13.9791666666667 17.7865497076023  C 13.9791666666667 17.7865497076023  13.9791666666667 17.7865497076023  14 17.7865497076023  L 14 1.80116959064316  C 13.9791666666667 1.80116959064316  13.9791666666667 1.80116959064316  13.9791666666667 1.80116959064316  C 13.9791666666667 0.90058479532172  14.6666666666667 0.45029239766086  15.125 0.45029239766086  L 17.875 0.45029239766086  C 18.5625 0.45029239766086  19.25 1.12573099415198  19 1.80116959064316  L 19 17.7865497076023  C 19.25 18.4619883040937  18.7916666666667 18.9122807017543  18.1041666666667 19.1374269005848  L 18.1041666666667 21.8391812865497  C 20.3958333333333 22.5146198830408  22 24.5409356725145  22 26.7923976608188  C 22 29.7192982456141  19.7083333333333 31.9707602339181  16.7291666666667 31.9707602339181  C 13.5208333333333 31.9707602339181  11 29.7192982456141  11 26.7923976608188  C 11 24.3157894736842  12.8333333333333 22.2894736842105  15.125 21.6140350877194  L 15.125 18.9122807017543  Z M 16.7291666666667 18.9122807017543  L 16.9583333333333 18.9122807017543  L 16.0416666666667 18.9122807017543  L 16.0416666666667 21.3888888888889  C 16.0416666666667 21.3888888888889  16.2708333333333 21.3888888888889  16.2708333333333 21.3888888888889  C 16.5 21.3888888888889  16.7291666666667 21.3888888888889  16.7291666666667 21.3888888888889  L 16.7291666666667 18.9122807017543  Z M 15 1.80116959064316  L 15 17.561403508772  C 15.125 17.561403508772  15.125 17.561403508772  15.125 17.561403508772  L 17.875 17.561403508772  L 17.875 1.80116959064316  L 15.125 1.80116959064316  C 15.125 1.80116959064316  15.125 1.80116959064316  15 1.80116959064316  Z M 5.27083333333331 18.9122807017543  L 4.58333333333331 18.9122807017543  L 4.58333333333331 21.8391812865497  L 5.27083333333331 21.8391812865497  L 5.27083333333331 18.9122807017543  Z M 10.0833333333333 30.8450292397661  C 9.85416666666669 31.295321637427  9.16666666666669 31.9707602339181  8.47916666666669 31.9707602339181  L 1.60416666666669 31.9707602339181  C 0.916666666666686 31.9707602339181  0.229166666666686 31.295321637427  0.229166666666686 30.6198830409359  L 0.229166666666686 23.1900584795322  C 0.229166666666686 22.5146198830411  0.916666666666686 21.8391812865497  1.60416666666669 21.8391812865497  L 3.66666666666669 21.8391812865497  L 3.66666666666669 18.9122807017543  C 2.97916666666669 18.9122807017543  2.52083333333331 18.4619883040937  2.29166666666669 17.7865497076023  L 2.29166666666669 1.57602339181284  C 2.52083333333331 0.90058479532172  2.97916666666669 0.45029239766086  3.66666666666669 0.45029239766086  L 6.41666666666669 0.45029239766086  C 7.10416666666669 0.45029239766086  7.79166666666669 1.12573099415198  8 1.80116959064316  L 8 17.7865497076023  C 7.79166666666669 18.4619883040937  7.33333333333331 18.9122807017543  6.64583333333331 19.1374269005848  L 6.64583333333331 22.06432748538  L 8.70833333333331 22.06432748538  C 9.39583333333331 22.06432748538  10.0833333333333 22.7397660818714  10.0833333333333 23.4152046783625  L 10.0833333333333 30.8450292397661  Z M 4 1.80116959064316  L 4 17.561403508772  C 3.66666666666669 17.561403508772  3.66666666666669 17.561403508772  3.66666666666669 17.561403508772  L 6.41666666666669 17.561403508772  L 6.41666666666669 1.80116959064316  L 3.66666666666669 1.80116959064316  C 3.66666666666669 1.80116959064316  3.66666666666669 1.80116959064316  4 1.80116959064316  Z " fill-rule="nonzero" fill="#0079fe" stroke="none" transform="matrix(1 0 0 1 891 536 )" />
  </g>
</svg>