<?xml version="1.0" encoding="utf-8"?>
<svg version="1.1" xmlns:xlink="http://www.w3.org/1999/xlink" width="24px" height="22px" xmlns="http://www.w3.org/2000/svg">
  <g transform="matrix(1 0 0 1 -1071 -541 )">
    <path d="M 21.0480761127392 16.1999916139461  C 22.332962530882 16.1872429435483  23.3743600222088 15.1253981420328  23.3743600222088 13.8221330123749  C 23.3743600222088 12.5107019083704  22.3202690236675 11.4437868899471  21.0246160064261 11.4437868899471  C 20.2559964452797 11.4437868899471  19.4862929983179 11.6879860869717  18.736990691035 12.1694616848581  C 18.4086455480577 12.3804363355117  18.083696580635 12.6375792112765  17.7650582372924 12.9378676828421  C 17.8024865606885 12.6184442536271  17.8212743939092 12.2970654820942  17.8213239542814 11.9754040079254  C 17.8213239542814 11.6818189481368  17.5861448187158 11.4438356420329  17.2960728881939 11  L 2.43650417400391 11  C 2.14643224348191 11.4438356420329  1.91125310791631 11.6818433241796  1.91125310791631 11.9754040079254  C 1.91125310791631 14.1258828820216  2.73876379835991 16.1476318739573  4.24136674726662 17.668233801446  C 4.74604806921525 18.1789850267658  5.30680241734126 18.6122448119438  5.90927432618014 18.962991692158  L 0.947943567993093 18.962991692158  C 0.657847551119573 18.962991692158  0.422692501905544 19.2009993743048  0.422692501905544 19.4945600580506  C 0.422692501905544 19.9748168537959  0.754385647734466 20.3909646569103  1.40859503948963 20.7314492230951  C 1.89843916894449 20.9863982550055  2.58473158083211 21.2120229073971  3.44844405750632 21.4021316653921  C 5.16849858731081 21.7807403625557  7.44776593874838 21.9892774089267  9.86634874697751 21.9892774089267  C 12.2849315552066 21.9892774089267  14.5641748202927 21.7807647385985  16.2841811773943 21.4021316653921  C 17.1478936540685 21.2120229073971  17.8341860659561 20.98634950292  18.3240301954111 20.7314492230951  C 18.9782395871662 20.3909402808677  19.3099327329952 19.9748412298387  19.3099327329952 19.4945600580506  C 19.3099327329952 19.2009749982619  19.0747535974295 18.962991692158  18.7846816669076 18.962991692158  L 13.8233509087206 18.962991692158  C 14.4258228175594 18.6122204359009  14.9865771656854 18.1789850267658  15.4912825739855 17.6682094254032  C 15.817997498382 17.3378607884422  16.116009820913 16.9796654115233  16.3820199369875 16.5975892484704  L 21.0480761127392 16.1999916139461  Z M 9.08783574792466 5.54712971277672  C 6.73691592499466 5.54712971277672  4.82432875359194 7.45988718603655  4.82432875359194 9.81097731082377  C 4.82435308242867 10.1040181493455  5.06189984434866 10.3415649112654  5.35491635403366 10.3415649112654  C 5.64793286371861 10.3415649112654  5.88550395447533 10.103969491672  5.88550395447533 9.81097731082377  C 5.88550395447533 8.05745207402089  7.30192882942208 6.62881412303108  9.05061262771386 6.60871850388452  C 8.16453206484147 7.3927152678001  7.60482284682314 8.537654653576  7.60482284682314 9.81100163966039  C 7.60482284682314 10.1040181493455  7.84236960874307 10.3415405824288  8.13536178959134 10.3415405824288  C 8.42835397043956 10.3415405824288  8.66590073235955 10.1039938205087  8.66590073235955 9.81100163966039  C 8.66590073235955 8.03842692369091  10.1079682012293 6.59633512598447  11.8805429171988 6.59633512598447  C 13.6140211925287 6.59093412422828  15.0325140185983 5.17883978222113  15.0325140185983 3.4443153669115  C 15.0321490860472 1.58055617084392  13.515732692103 0.0637018578385096  11.6519005095254 0.0637018578385096  C 9.78801966927415 0.0637018578385096  8.2716519330034 1.58021556712964  8.2716519330034 3.4443153669115  C 8.27199253671779 4.70082679797247  9.28112835581635 5.72665219907407  10.5316062353662 5.75338959065022  C 10.206418422483 5.86186331231175  9.89551683736494 6.00920256325156  9.60565070907836 6.19220881891232  C 9.61377654054922 6.15530197357913  9.61837469069286 6.11703271338865  9.61837469069286 6.07766865554487  C 9.61837469069286 5.78465214585992  9.38082792877282 5.54712971277672  9.08783574792466 5.54712971277672  Z M 17.0925432184346 3.83929031389033  C 16.8024712879127 3.83929031389033  16.567292152347 4.07729799603726  16.567292152347 4.37085867978305  C 16.5672680659956 6.36211324214401  14.9663446304668 7.98238880874578  12.9985619759908 7.98273007334535  C 11.6033841545548 7.98280320147387  10.4683630151388 9.13154859566197  10.4683630151388 10.5435065002781  C 10.4683630151388 10.8370915600668  10.7035421507044 11.0750748661708  10.9936140812263 11.0750748661708  C 11.2836860117483 11.0750748661708  11.5188651473139 10.8370671840239  11.5188651473139 10.5435065002781  C 11.5188651473139 9.71771929748337  12.1826609069465 9.04589118117354  12.9986342350452 9.04589118117354  C 15.5455732101556 9.04542803635985  17.6177942845222 6.9482351918798  17.6177942845222 4.37085867978305  C 17.6177942845222 4.07727361999446  17.3826151489566 3.83929031389033  17.0925432184346 3.83929031389033  Z M 11.5318863578917 5.54939229459347  C 12.3329133075245 5.18643037928371  12.8914790702161 4.37934554930297  12.8914790702161 3.44419372272779  C 12.8914304125425 3.15117721304267  12.6538836506226 2.91365477995959  12.3608671409376 2.91365477995959  C 12.0678506312526 2.91365477995959  11.8303768558429 3.15127452838976  11.8303768558429 3.44426670923798  C 11.8303768558429 4.13274846011592  11.2703027052735 4.69287126835894  10.5818452832322 4.69287126835894  C 9.89316890166032 4.69287126835894  9.33290012039697 4.13277278895282  9.33290012039697 3.44426670923798  C 9.3331190799276 2.16549439256073  10.3733958100521 1.12475541453819  11.6519978248723 1.12475541453819  C 12.9309647722435 1.12475541453819  13.9714604618987 2.16529976186678  13.9714604618987 3.44424238040131  C 13.9712658312048 4.59679669207645  13.0334621614251 5.53472200603977  11.8806402325458 5.53472200603977  C 11.7666109747499 5.53496529440719  11.6437016915442 5.54031763848968  11.5318863578917 5.54939229459347  Z M 21.0245437473717 12.5070455019467  C 21.74089592587 12.5070455019467  22.3237615446278 13.0970188664488  22.3237615446278 13.8222061405033  C 22.3237615446278 14.5471984062153  21.7409440985729 15.1370498905034  21.0245437473717 15.1370498905034  L 17.0517891117799 15.473634289836  C 17.7767882904489 14.3481192644605  19.2362525839072 12.5070455019467  21.0245437473717 12.5070455019467  Z M 15.9983002720248 15.1679587128059  C 15.896366832685 15.3356171353588  15.8016111260775 15.5003504327726  15.7166826508621 15.6575759089962  C 15.6851295304615 15.7159321555199  15.6594053071121 15.763684823415  15.638402008647 15.8054166087319  C 14.403470683413 17.7053097625833  12.2784523266663 18.9622604108731  9.86839608685079 18.9630160682007  C 6.23877561402691 18.9619191462737  3.25059876668945 16.1120428514322  2.98150604828112 12.5069967498609  L 16.7509746685109 12.5069967498609  C 16.6820636170101 13.4302881239572  16.4346967876104 14.3037304904755  16.0444256350531 15.0927829967324  C 16.0289667585404 15.1177888361147  16.0135915494783 15.1428475516486  15.9983002720248 15.1679587128059  Z M 2.45266611582741 20.0261771760289  L 9.86420506169839 20.0261771760289  L 17.2799109463704 20.0261771760289  C 16.9263473934241 20.1518844288793  16.4483296625315 20.2869520821746  15.8031767389219 20.4176807998471  C 14.1859950161638 20.7455141998054  12.0775721555666 20.9260919250556  9.86630057427459 20.9260919250556  C 7.65500490663112 20.9260919250556  5.54653387333104 20.7455629518909  3.92935215057292 20.4176807998471  C 3.28422331331478 20.286903330089  2.80620558242219 20.1518844288793  2.45266611582741 20.0261771760289  Z " fill-rule="nonzero" fill="#0079fe" stroke="none" transform="matrix(1 0 0 1 1071 541 )" />
  </g>
</svg>