<?xml version="1.0" encoding="utf-8"?>
<svg version="1.1" xmlns:xlink="http://www.w3.org/1999/xlink" width="24px" height="22px" xmlns="http://www.w3.org/2000/svg">
  <g transform="matrix(1 0 0 1 -975 -541 )">
    <path d="M 23.2045270383929 0  C 23.5403476174603 0.427170777730908  23.8135501694444 0.694032847456697  23.8135501694444 1.022034600577  L 23.8135501694444 18.2217805085163  C 23.8135501694444 18.5174938847833  23.5914848157738 18.7635077583052  23.3017159593254 18.8090928187172  L 19.345608420635 21.770240725882  L 16.5335253176587 18.8571428571428  L 6.96080271944447 18.8571428571428  C 6.62498214037691 18.8166694119511  6.35177958839284 18.5498073422251  6.28571428571428 18.2217804839285  L 6.28571428571428 20.7590901303257  L 6.14656051264882 20.8341035469453  C 5.17771159201391 21.3975821392877  4.18512440401781 21.6832853697449  3.19643724528765 21.6832853697449  C 1.50032979861112 21.6832853697449  0.43001724627976 20.8449164922345  0.385273745039683 20.8092161256569  L 0.292746497519829 20.7354069450309  L 0.292746527529744 0.169164803514548  L 1.51101666145826 0.169164803514548  L 1.51101666145826 3.43711501677456  L 2.47541271006946 3.43711501677456  L 2.47541271006946 0.169164803514548  L 4.04026843774807 0.169164803514548  L 4.04026843774807 3.43711501677456  L 5.05146552777779 3.43711501677456  L 5.05146552777779 0.169164803514548  L 6.28571428571428 0.169164803514548  L 6.28571428571428 1.022034600577  C 6.35177958839284 0.694007742351801  6.62498214037691 0.427170777730908  6.96080271944447 0  L 23.2045270383929 0  Z M 23.2045527148809 18.3149075281531  C 23.2571282232142 18.3149075281531  23.2998923764881 18.2731358449465  23.5714285714286 18.2217805085163  L 23.5714285714286 1.022034600577  C 23.2998923764881 0.970704369252132  23.2571282232142 0.928932686045471  23.2045527148809 1  L 6.96080271944447 1  C 6.90822721111113 0.928932686045471  6.8654630578373 0.970704369252132  7 1.022034600577  L 7 18.2217805085163  C 6.8654630578373 18.2731358449465  6.90822721111113 18.3149075281531  6.96080271944447 18.3149075281531  L 16.7573115231151 18.3149075281531  L 19.4037830599207 21.0945681543263  L 23.1174576907738 18.3149075281531  L 23.2045527148809 18.3149075281531  Z M 21.8727922816685 2  C 22.192104169573 1.8476372465588  22.451881634347 2.11410181129088  22 2.44160120907736  L 22 16.6173019763764  C 22.451881634347 16.9448275390625  22.192078658796 17.2112659644717  21.8727667708914 17  L 9.45517536516456 17  C 9.13583794154579 17.2112659644717  8.87606050170899 16.9448013997396  9 16.6173020019532  L 9 2.44160120907736  C 8.87606050170899 2.11407564639143  9.13583794154579 1.8476372465588  9.45517536516456 2  L 21.8727922816685 2  Z M 6.28571428571428 1.022034600577  L 6.28571428571428 18.2217804839285  L 6.28571428571428 1.022034600577  Z M 3.42608168080358 0.670926711829054  L 3.0895994670139 0.670926711829054  L 3.0895994670139 3.93887692508918  L 1 3.93887692508918  L 1 20.5154345430979  C 1.17659198784719 20.694688989771  2.01762862648809 21.1815234859469  3.19643724528765 21.1815234859469  C 4.01213866865078 21.1815234859469  4.84070732564481 20.9518419788148  6 20.4984749903809  L 6 3.93887692508918  L 3.42608168080358 3.93887692508918  L 3.42608168080358 0.670926711829054  Z M 22 16.6173019763764  L 22 2.44160120907736  C 21.9415133775111 2.40270853097104  21.9106871320452 2.37109186895458  21.8727922816685 2.35714285714283  L 9.45517536516456 2.35714285714283  C 9.41728051478793 2.37109186895458  9.38642875854487 2.40270853097104  9.42857142857144 2.44160120907736  L 9.42857142857144 16.6173019763764  C 9.38642875854487 16.6561684895832  9.41725500401094 16.6878113164992  9.45517536516456 16.6878113164992  L 21.8727922816685 16.6878113164992  C 21.9106871320452 16.6878113164992  21.9415133775111 16.6561684895832  22 16.6173019763764  Z " fill-rule="nonzero" fill="#0079fe" stroke="none" transform="matrix(1 0 0 1 975 541 )" />
  </g>
</svg>