<?xml version="1.0" encoding="utf-8"?>
<svg version="1.1" xmlns:xlink="http://www.w3.org/1999/xlink" width="25px" height="22px" xmlns="http://www.w3.org/2000/svg">
  <g transform="matrix(1 0 0 1 -241 -492 )">
    <path d="M 1.50067622306574 10.9994997759856  C 1.50067622306574 4.93657034050176  6.46054710144927 0.00393279569885863  12.5569263157222 0.00393279569885863  C 18.6533055299951 0.00393279569885863  23.6132003600823 4.93657034050176  23.6132003600823 10.9995235961769  C 23.6132003600823 17.0624768518518  18.6533294816987 21.9950429360812  12.5569263157222 21.9950429360812  C 6.46052314974577 21.9950429360812  1.50067622306574 17.0624292114695  1.50067622306574 10.9994997759856  Z M 23.7894536769701 3.43872919982528  C 22.9645083220109 2.25681508273487  21.4187332286006 1.56037947763002  20.2336350203805 2.39285707765191  L 23.2209743121604 6.67300635493501  C 24.4060963400135 5.84050485855005  24.6143752122962 4.62064331691579  23.7894536769701 3.43872919982528  Z M 0.537180366847792 3.43872919982528  C -0.287764988111348 4.62064331691579  0.157543053668519 6.00701471637228  1.10561209239131 6.67300635493501  L 4.09297520380437 2.39285707765191  C 3.14488234544842 1.72686543908918  1.36207808254085 2.2567911863718  0.537180366847792 3.43872919982528  Z M 2.66451345276437 10.9994997759856  C 2.66451345276437 16.424357750896  7.10228509604326 20.8375960274791  12.5569263157222 20.8375960274791  C 18.0115675354012 20.8375960274791  22.4493631303837 16.4243339307048  22.4493631303837 10.9995235961769  C 22.4493631303837 5.57471326164881  18.0116154388083 1.16137970430105  12.5569263157222 1.16137970430105  C 7.10226114433965 1.16137970430105  2.66451345276437 5.57464180107536  2.66451345276437 10.9994997759856  Z M 16.8269510869565 8.68844951202209  L 11.7054441236413 13.8963033961326  C 11.5972315302309 14.0065851116678  11.4495974439538 14.0673296665736  11.295436778193 14.0673296665736  C 11.1420145210599 14.0673296665736  10.9928083389946 14.0079949970885  10.8843099099864 13.8991470633371  L 7.43951456351897 10.4442108917047  C 7.21346624490491 10.2174344062378  7.21346624490491 9.8505296477702  7.43951456351897 9.6237531623035  C 7.66532468580158 9.39697667683663  8.03207557744565 9.39721564046727  8.25783806046195 9.62399212593414  L 11.2906490319294 12.6666921383685  L 16.0029823369566 7.87312950067928  C 16.2272203634511 7.64491923342877  16.5937092391304 7.6418604989567  16.8213058338995 7.86748995899649  C 17.0489262483017 8.0925936990489  17.0514511294158 8.46026314113453  16.8269510869565 8.68844951202209  Z " fill-rule="nonzero" fill="#0079fe" stroke="none" transform="matrix(1 0 0 1 241 492 )" />
  </g>
</svg>