<?xml version="1.0" encoding="utf-8"?>
<svg version="1.1" xmlns:xlink="http://www.w3.org/1999/xlink" width="22px" height="22px" xmlns="http://www.w3.org/2000/svg">
  <g transform="matrix(1 0 0 1 -198 -492 )">
    <path d="M 17.3013671875001 20.01484375  C 22.279296875 16.534375  23.4953125 9.67656250000005  20.01484375 4.69863281249991  C 16.534375 -0.279296875  9.67656250000005 -1.49531249999995  4.69863281249991 1.98515625000005  C -0.279296875 5.46562500000005  -1.49531249999995 12.3234375  1.98515625000005 17.3013671875001  C 5.46562500000005 22.279296875  12.3234375 23.4953125  17.3013671875001 20.01484375  Z M 5.21425781249991 2.72207031249991  C 9.7861328125 -0.47265625  16.0810546875 0.642382812500045  19.2779296875001 5.21425781249991  C 22.47265625 9.7861328125  21.3576171875 16.0810546875  16.7857421875001 19.2779296875001  C 12.2138671875 22.47265625  5.9189453125 21.3576171875  2.72207031249991 16.7857421875001  C -0.47265625 12.2138671875  0.642382812500045 5.91679687500005  5.21425781249991 2.72207031249991  Z M 16.6189254687499 18.944385625  C 20.8861984375001 15.96308140625  21.92568984375 10.08620421875  18.944385625 5.82107453124991  C 15.960938125 1.55594484375001  10.08620421875 0.514310156250076  5.82107453124991 3.49561437500006  C 1.55594484375001 6.47906187500007  0.514310156250076 12.35379578125  3.49561437500006 16.6189254687501  C 6.47691859375004 20.88405515625  12.3516525 21.92568984375  16.6189254687499 18.944385625  Z M 18.57788453125 6.07612500000005  C 21.4177321875 10.13978625  20.42539296875 15.73589359375  16.363875 18.57788453125  C 14.1158707389502 20.1488790702222  11.3988971155061 20.547122252606  8.93863898159475 19.9017859820447  C 8.93247231022087 19.9001263606162  8.92630675008513 19.8984600266404  8.9201423160664 19.8967869830644  C 6.96127565888378 19.3651454297428  5.11612117533946 18.155987227743  3.86211546875006 16.363875  C 1.0222678125001 12.30021375  2.01460703125008 6.70410640625005  6.07612500000005 3.86211546875006  C 10.13978625 1.02226781249988  15.73589359375 2.01460703125008  18.57788453125 6.07612500000005  Z M 15.0225625 10.3610546875  C 15.3427352941176 10.4809912109374  15.6074935661763 10.6009277343751  15.8147849264706 10.723044921875  L 15.9215091911765 10.4112099609376  L 16.3340395220587 10.4722685546874  C 16.3504586397059 9.94672851562495  16.2150009191175 9.41028515624998  15.9297187499999 8.86075781249997  L 16.5556976102941 8.394095703125  L 17.0195376838235 9.09845019531258  C 17.0934237132353 9.2118447265625  17.0893189338235 9.29689062500006  17.0092757352941 9.35794921875004  C 16.9415468750001 9.40810449218748  16.8142987132353 9.49315039062503  16.6316360294118 9.61526757812499  L 16.9661755514705 9.90747656249982  L 17.3499724264707 9.62180957031251  C 17.5901020220588 9.44299511718759  17.6270450367647 9.22492871093755  17.4587490808824 8.96979101562488  L 15.4371452205883 5.90377734374988  L 14.133877757353 6.87417285156243  L 15.3653115808825 8.74300195312503  C 15.6936939338236 9.2489160156249  15.8681470588235 9.75264941406249  15.8886709558824 10.2542021484376  C 15.6916415441176 10.16043359375  15.4515119485293 10.0688457031249  15.1703345588235 9.97943847656256  L 15.0225625 10.3610546875  Z M 15.6532809103262 11.5056049262153  C 15.6119184782608 12.9526226399739  14.8978722826087 14.3611672092013  13.5982211277174 15.2524617241754  C 12.298569972826 16.1458936360677  10.7050278532608 16.3190227864584  9.30741304347816 15.8594824490017  L 8.83936447010865 16.1800919867621  C 10.445968410326 16.821311062283  12.3399324048912 16.6781054687499  13.8659884510869 15.6307809787327  C 15.3920444972825 14.5834564887152  16.1844616168478 12.8863633355036  16.1213294836957 11.1849953884548  L 15.6532809103262 11.5056049262153  Z M 12.0942612847223 12.446104329427  L 12.6024367766204 12.0806094563802  C 12.8565245225695 11.9010681152342  12.9006223958334 11.6894658203125  12.7326304976852 11.4458025716146  L 11.6070847800927 9.80855653211802  L 12.111060474537 9.44947384982652  L 11.8674722222222 9.09680335828989  L 11.3634965277777 9.45588604058162  L 10.9582160734954 8.86596449110243  L 10.5970334924768 9.12458951822919  L 11.0023139467592 9.71451106770837  L 9.65837876157411 10.6720648871528  L 9.90196701388891 11.0247353786892  L 11.2459021990742 10.0671815592448  L 12.310550853588 11.6167943250869  C 12.3672481192129 11.6980154079861  12.3462491319444 11.7728243001302  12.251753689236 11.841221001519  C 12.1068606770834 11.9459534505208  11.9472683738427 12.0485485026043  11.772976779514 12.149006157769  L 12.0942612847223 12.446104329427  Z M 15.0225625 10.3610546875  C 15.3427352941176 10.4809912109374  15.6074935661763 10.6009277343751  15.8147849264706 10.723044921875  L 15.9215091911765 10.4112099609376  L 16.3340395220587 10.4722685546874  C 16.3504586397059 9.94672851562495  16.2150009191175 9.41028515624998  15.9297187499999 8.86075781249997  L 16.5556976102941 8.394095703125  L 17.0195376838235 9.09845019531258  C 17.0934237132353 9.2118447265625  17.0893189338235 9.29689062500006  17.0092757352941 9.35794921875004  C 16.9415468750001 9.40810449218748  16.8142987132353 9.49315039062503  16.6316360294118 9.61526757812499  L 16.9661755514705 9.90747656249982  L 17.3499724264707 9.62180957031251  C 17.5901020220588 9.44299511718759  17.6270450367647 9.22492871093755  17.4587490808824 8.96979101562488  L 15.4371452205883 5.90377734374988  L 14.133877757353 6.87417285156243  L 15.3653115808825 8.74300195312503  C 15.6936939338236 9.2489160156249  15.8681470588235 9.75264941406249  15.8886709558824 10.2542021484376  C 15.6916415441176 10.16043359375  15.4515119485293 10.0688457031249  15.1703345588235 9.97943847656256  L 15.0225625 10.3610546875  Z M 12.0942612847223 12.446104329427  L 12.6024367766204 12.0806094563802  C 12.8565245225695 11.9010681152342  12.9006223958334 11.6894658203125  12.7326304976852 11.4458025716146  L 11.6070847800927 9.80855653211802  L 12.111060474537 9.44947384982652  L 11.8674722222222 9.09680335828989  L 11.3634965277777 9.45588604058162  L 10.9582160734954 8.86596449110243  L 10.5970334924768 9.12458951822919  L 11.0023139467592 9.71451106770837  L 9.65837876157411 10.6720648871528  L 9.90196701388891 11.0247353786892  L 11.2459021990742 10.0671815592448  L 12.310550853588 11.6167943250869  C 12.3672481192129 11.6980154079861  12.3462491319444 11.7728243001302  12.251753689236 11.841221001519  C 12.1068606770834 11.9459534505208  11.9472683738427 12.0485485026043  11.772976779514 12.149006157769  L 12.0942612847223 12.446104329427  Z M 15.6532809103262 11.5056049262153  C 15.6119184782608 12.9526226399739  14.8978722826087 14.3611672092013  13.5982211277174 15.2524617241754  C 12.298569972826 16.1458936360677  10.7050278532608 16.3190227864584  9.30741304347816 15.8594824490017  L 8.83936447010865 16.1800919867621  C 10.445968410326 16.821311062283  12.3399324048912 16.6781054687499  13.8659884510869 15.6307809787327  C 15.3920444972825 14.5834564887152  16.1844616168478 12.8863633355036  16.1213294836957 11.1849953884548  L 15.6532809103262 11.5056049262153  Z M 15.0225625 10.3610546875  C 15.3427352941176 10.4809912109374  15.6074935661763 10.6009277343751  15.8147849264706 10.723044921875  L 15.9215091911765 10.4112099609376  L 16.3340395220587 10.4722685546874  C 16.3504586397059 9.94672851562495  16.2150009191175 9.41028515624998  15.9297187499999 8.86075781249997  L 16.5556976102941 8.394095703125  L 17.0195376838235 9.09845019531258  C 17.0934237132353 9.2118447265625  17.0893189338235 9.29689062500006  17.0092757352941 9.35794921875004  C 16.9415468750001 9.40810449218748  16.8142987132353 9.49315039062503  16.6316360294118 9.61526757812499  L 16.9661755514705 9.90747656249982  L 17.3499724264707 9.62180957031251  C 17.5901020220588 9.44299511718759  17.6270450367647 9.22492871093755  17.4587490808824 8.96979101562488  L 15.4371452205883 5.90377734374988  L 14.133877757353 6.87417285156243  L 15.3653115808825 8.74300195312503  C 15.6936939338236 9.2489160156249  15.8681470588235 9.75264941406249  15.8886709558824 10.2542021484376  C 15.6916415441176 10.16043359375  15.4515119485293 10.0688457031249  15.1703345588235 9.97943847656256  L 15.0225625 10.3610546875  Z M 15.6532809103262 11.5056049262153  C 15.6119184782608 12.9526226399739  14.8978722826087 14.3611672092013  13.5982211277174 15.2524617241754  C 12.298569972826 16.1458936360677  10.7050278532608 16.3190227864584  9.30741304347816 15.8594824490017  L 8.83936447010865 16.1800919867621  C 10.445968410326 16.821311062283  12.3399324048912 16.6781054687499  13.8659884510869 15.6307809787327  C 15.3920444972825 14.5834564887152  16.1844616168478 12.8863633355036  16.1213294836957 11.1849953884548  L 15.6532809103262 11.5056049262153  Z M 12.0942612847223 12.446104329427  L 12.6024367766204 12.0806094563802  C 12.8565245225695 11.9010681152342  12.9006223958334 11.6894658203125  12.7326304976852 11.4458025716146  L 11.6070847800927 9.80855653211802  L 12.111060474537 9.44947384982652  L 11.8674722222222 9.09680335828989  L 11.3634965277777 9.45588604058162  L 10.9582160734954 8.86596449110243  L 10.5970334924768 9.12458951822919  L 11.0023139467592 9.71451106770837  L 9.65837876157411 10.6720648871528  L 9.90196701388891 11.0247353786892  L 11.2459021990742 10.0671815592448  L 12.310550853588 11.6167943250869  C 12.3672481192129 11.6980154079861  12.3462491319444 11.7728243001302  12.251753689236 11.841221001519  C 12.1068606770834 11.9459534505208  11.9472683738427 12.0485485026043  11.772976779514 12.149006157769  L 12.0942612847223 12.446104329427  Z M 12.6582095588235 8.41590234375008  L 12.4591277573529 8.56418750000012  L 12.686943014706 8.90873242187513  L 12.8860248161764 8.76044726562509  L 13.9204292279412 10.3261640625001  L 13.6802996323529 10.504978515625  L 13.908114889706 10.8495234375  L 15.6711176470587 9.53676367187495  L 15.4433023897059 9.19221874999994  L 15.2339586397059 9.34922656250001  L 14.1995542279412 7.78132910156251  L 14.3904264705882 7.63958593749999  L 14.1626112132353 7.29504101562497  L 13.9717389705881 7.43678417968749  L 13.7110854779412 7.04208398437504  L 13.3724411764706 7.29504101562497  L 13.6330946691176 7.68974121093743  L 12.9968538602941 8.16294531249991  L 12.7320955882353 7.75952246093743  L 12.3934512867647 8.01247949218759  L 12.6582095588235 8.41590234375008  Z M 7.15932183159725 4.90612413194435  L 6.34520724826393 4.29069227430546  L 6.640808376736 5.26714518229164  L 5.80488715277784 5.85107855902766  L 6.82495334201394 5.87046223958328  L 7.12297743055547 6.84691514756946  L 7.45734592013878 5.88257703993054  L 8.47498914930566 5.89953776041671  L 7.66087456597234 5.28652886284726  L 7.99524305555565 4.32219075520834  L 7.15932183159725 4.90612413194435  Z M 4.52420654296884 10.6599829101563  L 5.16906005859369 9.91933593749991  L 4.21112548828114 10.1389599609374  L 3.70645751953134 9.29551025390629  L 3.6200097656249 10.2744726562501  L 2.65973876953126 10.4964331054687  L 3.5662719726563 10.8819433593749  L 3.47982421875008 11.8609057617186  L 4.12467773437493 11.1179223632812  L 5.03121093749996 11.5034326171874  L 4.52420654296884 10.6599829101563  Z M 16.0947927517361 18.5893077256944  L 15.7991916232638 17.6128548177082  L 16.6351128472222 17.0289214409722  L 15.6150466579861 17.0095377604166  L 15.3170225694444 16.0330848524304  L 14.982654079861 16.9974229600696  L 13.9650108506944 16.9804622395834  L 14.7791254340277 17.5934711371528  L 14.4447569444444 18.5578092447915  L 15.2806781684028 17.9738758680555  L 16.0947927517361 18.5893077256944  Z M 5.91530699327268 14.8469656479779  L 8.28140538194452 13.2279600183824  L 7.15285980902786 11.6570022977942  L 4.24386260308165 13.6478569623162  L 4.48752585177954 13.9883704044116  L 7.02889078776047 12.2482004825367  L 7.66797246636293 13.1402203584557  L 5.67164374457457 14.5064522058824  L 5.30614887152774 13.9946375229779  L 4.93851660156247 14.2474113051469  L 6.33637418619787 16.200663258272  C 6.56935045030377 16.5244643841911  6.84507465277784 16.5787794117646  7.1614093967014 16.3615193014707  L 9.28811933051225 14.9054587545957  C 9.43559971788181 14.7926506204044  9.52750778537325 14.6652192095589  9.55956873914943 14.5189864430147  C 9.57453051757807 14.3748427159926  9.43773711480026 14.0531306295957  9.14705113389755 13.5517611443015  L 8.71102216254349 13.6833706341911  C 8.97178458658868 14.0928223805147  9.09361621093763 14.3435071231618  9.07437963867187 14.4396029411764  C 9.0530056694879 14.5210754825366  9.00812033420129 14.5837466681985  8.94186102973094 14.6297055376838  L 7.01820380316849 15.9458004365808  C 6.87713560655379 16.0418962545955  6.75744137912329 16.021005859375  6.65698372395832 15.881040211397  L 5.91530699327268 14.8469656479779  Z M 12.0323510742187 3.98000434027767  L 12.6515039062499 4.7747352430556  L 12.1141259765625 5.63004014756939  L 13.0323413085937 5.26417317708342  L 13.6514941406251 6.05648111979167  L 13.6000927734376 5.03883789062502  L 14.5183081054688 4.67297092013882  L 13.5697192382813 4.40886827256941  L 13.5183178710938 3.39122504340276  L 12.9809399414062 4.24652994791654  L 12.0323510742187 3.98000434027767  Z M 5.87867051630428 11.255004611545  L 6.3467190896738 10.9343950737848  C 6.3880815217392 9.48737736002613  7.10212771739134 8.07883279079874  8.40177887228265 7.18753827582464  C 9.70143002717396 6.29624376085076  11.2949721467392 6.12097721354166  12.6925869565216 6.58051755099837  L 13.1606355298914 6.25990801323792  C 11.554031589674 5.61868893771703  9.66006759510856 5.76189453124994  8.13401154891312 6.80921902126738  C 6.60795550271746 7.85654351128483  5.81553838315222 9.55363666449648  5.87867051630428 11.255004611545  Z M 14.3801645220587 10.57912109375  C 14.4150551470589 10.9323886718751  14.4047931985294 11.2660302734375  14.3493786764707 11.5822265625  L 14.7639613970587 11.5887685546875  C 14.8070615808824 11.246404296875  14.8050091911764 10.8887753906249  14.7536994485295 10.5180625  L 14.3801645220587 10.57912109375  Z M 8.45303689236107 10.6870266655815  L 8.37324074074081 11.0974068739149  C 8.77642129629635 11.125193033854  9.1292042824075 11.1850401475695  9.43158969907404 11.2748108181422  L 9.50928595196751 10.8259574652777  C 9.1964010416666 10.7511485731336  8.84361805555568 10.7062632378472  8.45303689236107 10.6870266655815  Z M 18.2935424804687 13.1444897460938  L 18.3799902343749 12.16552734375  L 19.3402612304687 11.9435668945314  L 18.4337280273437 11.558056640625  L 18.5201757812499 10.5790942382812  L 17.8753222656251 11.3220776367189  L 16.9687890625 10.9365673828124  L 17.4757934570312 11.7800170898438  L 16.8309399414063 12.5206640624999  L 17.7888745117189 12.3010400390624  L 18.2935424804687 13.1444897460938  Z M 12.7956274594908 12.2024410807292  L 13.3122025462962 11.8283966200088  C 13.4843942418981 11.6937406141492  13.6166878616898 11.5890081651476  13.7069835069444 11.512061876085  L 13.8728755063657 11.941678656684  L 13.0770138888888 12.5102262369792  C 12.9468201678242 12.6042717013888  12.7116315104167 12.7667138671875  12.3714479166667 13.0018275282118  C 12.1152602719908 13.1792314724394  11.8926710069445 13.3074752875434  11.7015802228009 13.3822841796875  C 11.5146892361111 13.4464060872397  11.3151988570603 13.4570930718317  11.1031090856482 13.4100703396266  C 11.006513744213 13.384421576606  10.9351171875001 13.3886963704429  10.8868195167825 13.4207573242188  C 10.807023365162 13.4784670410156  10.7902241753472 13.7541912434897  10.8385218460649 14.2479299316406  L 10.4038428096064 14.1859454210069  C 10.3765441261573 13.7328172743055  10.4122424045138 13.4100703396268  10.508837745949 13.2198420138889  L 9.76547359664346 12.138319173177  L 9.25309830729179 12.5038140462241  L 9.01370985243057 12.1618305392794  L 9.86836863425924 11.5526724175347  L 10.8679204282407 13.0061023220485  C 10.8973190104166 13.0039649251303  10.9309173900463 13.0103771158854  10.9687155671297 13.0210641004774  C 11.1283078703702 13.055262451172  11.2753007812501 13.0638120388455  11.4096942997685 13.0424380696616  C 11.5650868055554 13.0125145128038  11.7603773871529 12.9184690483942  11.9955660445603 12.7603016764322  C 12.2958515625 12.5551115722656  12.5625387008101 12.3670206434463  12.7956274594908 12.2024410807292  Z M 11.4117941984953 11.7728243001302  C 11.1430071614584 11.6317561035157  10.809123263889 11.4971000976561  10.4059427083332 11.3645814887152  L 10.5634351128472 10.9713004557291  C 10.9708154658565 11.0952694769965  11.3046993634259 11.2192384982638  11.5650868055554 11.3432075195312  L 11.4117941984953 11.7728243001302  Z M 5.87867051630428 11.255004611545  L 6.3467190896738 10.9343950737848  C 6.3880815217392 9.48737736002613  7.10212771739134 8.07883279079874  8.40177887228265 7.18753827582464  C 9.70143002717396 6.29624376085076  11.2949721467392 6.12097721354166  12.6925869565216 6.58051755099837  L 13.1606355298914 6.25990801323792  C 11.554031589674 5.61868893771703  9.66006759510856 5.76189453124994  8.13401154891312 6.80921902126738  C 6.60795550271746 7.85654351128483  5.81553838315222 9.55363666449648  5.87867051630428 11.255004611545  Z M 18.2935424804687 13.1444897460938  L 18.3799902343749 12.16552734375  L 19.3402612304687 11.9435668945314  L 18.4337280273437 11.558056640625  L 18.5201757812499 10.5790942382812  L 17.8753222656251 11.3220776367189  L 16.9687890625 10.9365673828124  L 17.4757934570312 11.7800170898438  L 16.8309399414063 12.5206640624999  L 17.7888745117189 12.3010400390624  L 18.2935424804687 13.1444897460938  Z M 12.0323510742187 3.98000434027767  L 12.6515039062499 4.7747352430556  L 12.1141259765625 5.63004014756939  L 13.0323413085937 5.26417317708342  L 13.6514941406251 6.05648111979167  L 13.6000927734376 5.03883789062502  L 14.5183081054688 4.67297092013882  L 13.5697192382813 4.40886827256941  L 13.5183178710938 3.39122504340276  L 12.9809399414062 4.24652994791654  L 12.0323510742187 3.98000434027767  Z M 9.43158969907404 11.2748108181422  C 9.1292042824075 11.1850401475695  8.77642129629635 11.125193033854  8.37324074074081 11.0974068739149  L 8.45303689236107 10.6870266655815  C 8.84361805555568 10.7062632378472  9.1964010416666 10.7511485731336  9.50928595196751 10.8259574652777  L 9.43158969907404 11.2748108181422  Z M 4.52420654296884 10.6599829101563  L 5.03121093749996 11.5034326171874  L 4.12467773437493 11.1179223632812  L 3.47982421875008 11.8609057617186  L 3.5662719726563 10.8819433593749  L 2.65973876953126 10.4964331054687  L 3.6200097656249 10.2744726562501  L 3.70645751953134 9.29551025390629  L 4.21112548828114 10.1389599609374  L 5.16906005859369 9.91933593749991  L 4.52420654296884 10.6599829101563  Z M 9.56629991319437 4.21745442708334  L 8.56319444444443 4.39433051215269  L 9.47907335069431 4.84257812500005  L 9.33611870659729 5.85295247395834  L 10.0460460069444 5.11879557291672  L 10.9619249131945 5.56704318576385  L 10.4846017795139 4.66570203993047  L 11.1921061197916 3.93154513888885  L 10.1890006510416 4.10842122395843  L 9.70925455729162 3.20708007812505  L 9.56629991319437 4.21745442708334  Z M 7.15285980902786 11.6570022977942  L 8.28140538194452 13.2279600183824  L 5.91530699327268 14.8469656479779  L 6.65698372395832 15.881040211397  C 6.75744137912329 16.021005859375  6.87713560655379 16.0418962545955  7.01820380316849 15.9458004365808  L 8.94186102973094 14.6297055376838  C 9.00812033420129 14.5837466681985  9.0530056694879 14.5210754825366  9.07437963867187 14.4396029411764  C 9.09361621093763 14.3435071231618  8.97178458658868 14.0928223805147  8.71102216254349 13.6833706341911  L 9.14705113389755 13.5517611443015  C 9.43773711480026 14.0531306295957  9.57453051757807 14.3748427159926  9.55956873914943 14.5189864430147  C 9.52750778537325 14.6652192095589  9.43559971788181 14.7926506204044  9.28811933051225 14.9054587545957  L 7.1614093967014 16.3615193014707  C 6.84507465277784 16.5787794117646  6.56935045030377 16.5244643841911  6.33637418619787 16.200663258272  L 4.93851660156247 14.2474113051469  L 5.30614887152774 13.9946375229779  L 5.67164374457457 14.5064522058824  L 7.66797246636293 13.1402203584557  L 7.02889078776047 12.2482004825367  L 4.48752585177954 13.9883704044116  L 4.24386260308165 13.6478569623162  L 7.15285980902786 11.6570022977942  Z M 6.640808376736 5.26714518229164  L 6.34520724826393 4.29069227430546  L 7.15932183159725 4.90612413194435  L 7.99524305555565 4.32219075520834  L 7.66087456597234 5.28652886284726  L 8.47498914930566 5.89953776041671  L 7.45734592013878 5.88257703993054  L 7.12297743055547 6.84691514756946  L 6.82495334201394 5.87046223958328  L 5.80488715277784 5.85107855902766  L 6.640808376736 5.26714518229164  Z M 16.0947927517361 18.5893077256944  L 15.2806781684028 17.9738758680555  L 14.4447569444444 18.5578092447915  L 14.7791254340277 17.5934711371528  L 13.9650108506944 16.9804622395834  L 14.982654079861 16.9974229600696  L 15.3170225694444 16.0330848524304  L 15.6150466579861 17.0095377604166  L 16.6351128472222 17.0289214409722  L 15.7991916232638 17.6128548177082  L 16.0947927517361 18.5893077256944  Z M 16.7975317382814 14.9508213975696  L 15.8980078125001 15.3651475694444  L 16.860615234375 15.5759450954861  L 16.96341796875 16.5911653645833  L 17.4564038085937 15.7092078993055  L 18.4166748046875 15.9224283854167  L 17.7601391601563 15.1640418836805  L 18.253125 14.2796614583333  L 17.3536010742187 14.6939876302083  L 16.6970654296874 13.9356011284722  L 16.7975317382814 14.9508213975696  Z M 12.3939539930557 18.2012044270834  L 11.4780750868056 17.7529568142361  L 11.9553982204861 18.6542979600695  L 11.2478938802083 19.3884548611111  L 12.2509993489584 19.2115787760417  L 12.710259504943 20.0744311929652  L 12.8737000868055 19.1025455729166  L 13.8768055555556 18.9256694878472  L 12.9609266493055 18.4774218749999  L 13.1038812934028 17.4670475260416  L 12.3939539930557 18.2012044270834  Z M 14.3801645220587 10.57912109375  C 14.4150551470589 10.9323886718751  14.4047931985294 11.2660302734375  14.3493786764707 11.5822265625  L 14.7639613970587 11.5887685546875  C 14.8070615808824 11.246404296875  14.8050091911764 10.8887753906249  14.7536994485295 10.5180625  L 14.3801645220587 10.57912109375  Z M 8.83990722656245 18.2811621093749  L 7.92169189453125 18.6470290798611  L 8.87028076171873 18.9111317274305  L 8.92011888228126 19.8968227834175  L 9.45906005859365 19.0734700520834  L 10.4076489257811 19.3399956597223  L 9.78849609374993 18.5452647569446  L 10.3258740234376 17.6899598524305  L 9.40765869140614 18.0558268229167  L 8.78850585937494 17.2635188802085  L 8.83990722656245 18.2811621093749  Z M 4.02332519531251 6.95757161458346  L 4.67986083984374 7.7159581163196  L 4.1868750000001 8.60033854166659  L 5.08639892578117 8.18601236979157  L 5.7429345703124 8.94439887152771  L 5.6424682617187 7.92917860243051  L 6.5419921875 7.51485243055549  L 5.57938476562504 7.30405490451381  L 5.47658203125002 6.28883463541661  L 4.98359619140638 7.17079210069437  L 4.02332519531251 6.95757161458346  Z M 12.7956274594908 12.2024410807292  L 13.3122025462962 11.8283966200088  C 13.4843942418981 11.6937406141492  13.6166878616898 11.5890081651476  13.7069835069444 11.512061876085  L 13.8728755063657 11.941678656684  L 13.0770138888888 12.5102262369792  C 12.9468201678242 12.6042717013888  12.7116315104167 12.7667138671875  12.3714479166667 13.0018275282118  C 12.1152602719908 13.1792314724394  11.8926710069445 13.3074752875434  11.7015802228009 13.3822841796875  C 11.5146892361111 13.4464060872397  11.3151988570603 13.4570930718317  11.1031090856482 13.4100703396266  C 11.006513744213 13.384421576606  10.9351171875001 13.3886963704429  10.8868195167825 13.4207573242188  C 10.807023365162 13.4784670410156  10.7902241753472 13.7541912434897  10.8385218460649 14.2479299316406  L 10.4038428096064 14.1859454210069  C 10.3765441261573 13.7328172743055  10.4122424045138 13.4100703396268  10.508837745949 13.2198420138889  L 9.76547359664346 12.138319173177  L 9.25309830729179 12.5038140462241  L 9.01370985243057 12.1618305392794  L 9.86836863425924 11.5526724175347  L 10.8679204282407 13.0061023220485  C 10.8973190104166 13.0039649251303  10.9309173900463 13.0103771158854  10.9687155671297 13.0210641004774  C 11.1283078703702 13.055262451172  11.2753007812501 13.0638120388455  11.4096942997685 13.0424380696616  C 11.5650868055554 13.0125145128038  11.7603773871529 12.9184690483942  11.9955660445603 12.7603016764322  C 12.2958515625 12.5551115722656  12.5625387008101 12.3670206434463  12.7956274594908 12.2024410807292  Z M 11.4117941984953 11.7728243001302  C 11.1430071614584 11.6317561035157  10.809123263889 11.4971000976561  10.4059427083332 11.3645814887152  L 10.5634351128472 10.9713004557291  C 10.9708154658565 11.0952694769965  11.3046993634259 11.2192384982638  11.5650868055554 11.3432075195312  L 11.4117941984953 11.7728243001302  Z M 14.0640965073528 8.34394042968756  L 13.4278556985294 8.81714453125005  L 13.224669117647 8.50749023437493  L 13.8609099264706 8.03428613281244  L 14.0640965073528 8.34394042968756  Z M 15.1108152573529 7.56544335937497  L 14.7167564338235 6.96794140625002  L 15.3201590073529 6.51872460937511  L 15.7142178308823 7.11622656250006  L 15.1108152573529 7.56544335937497  Z M 15.9358759191177 7.45204882812504  L 16.3319871323529 8.05391210937501  L 15.7285845588235 8.50312890625014  L 15.3324733455881 7.90126562499995  L 15.9358759191177 7.45204882812504  Z M 14.0579393382352 9.77009472656255  L 14.6941801470589 9.29689062500006  L 14.8953143382353 9.60218359374994  L 14.2590735294118 10.0753876953124  L 14.0579393382352 9.77009472656255  Z M 13.6413042279412 9.1420634765625  L 14.2775450367646 8.66885937500001  L 14.4786792279413 8.97415234375012  L 13.8424384191176 9.44735644531238  L 13.6413042279412 9.1420634765625  Z M 4.12467773437493 11.1179223632812  L 5.03121093749996 11.5034326171874  L 4.52420654296884 10.6599829101563  L 5.16906005859369 9.91933593749991  L 4.21112548828114 10.1389599609374  L 3.70645751953134 9.29551025390629  L 3.6200097656249 10.2744726562501  L 2.65973876953126 10.4964331054687  L 3.5662719726563 10.8819433593749  L 3.47982421875008 11.8609057617186  L 4.12467773437493 11.1179223632812  Z M 7.15932183159725 4.90612413194435  L 6.34520724826393 4.29069227430546  L 6.640808376736 5.26714518229164  L 5.80488715277784 5.85107855902766  L 6.82495334201394 5.87046223958328  L 7.12297743055547 6.84691514756946  L 7.45734592013878 5.88257703993054  L 8.47498914930566 5.89953776041671  L 7.66087456597234 5.28652886284726  L 7.99524305555565 4.32219075520834  L 7.15932183159725 4.90612413194435  Z M 12.0323510742187 3.98000434027767  L 12.6515039062499 4.7747352430556  L 12.1141259765625 5.63004014756939  L 13.0323413085937 5.26417317708342  L 13.6514941406251 6.05648111979167  L 13.6000927734376 5.03883789062502  L 14.5183081054688 4.67297092013882  L 13.5697192382813 4.40886827256941  L 13.5183178710938 3.39122504340276  L 12.9809399414062 4.24652994791654  L 12.0323510742187 3.98000434027767  Z M 18.2935424804687 13.1444897460938  L 18.3799902343749 12.16552734375  L 19.3402612304687 11.9435668945314  L 18.4337280273437 11.558056640625  L 18.5201757812499 10.5790942382812  L 17.8753222656251 11.3220776367189  L 16.9687890625 10.9365673828124  L 17.4757934570312 11.7800170898438  L 16.8309399414063 12.5206640624999  L 17.7888745117189 12.3010400390624  L 18.2935424804687 13.1444897460938  Z M 14.3801645220587 10.57912109375  C 14.4150551470589 10.9323886718751  14.4047931985294 11.2660302734375  14.3493786764707 11.5822265625  L 14.7639613970587 11.5887685546875  C 14.8070615808824 11.246404296875  14.8050091911764 10.8887753906249  14.7536994485295 10.5180625  L 14.3801645220587 10.57912109375  Z M 5.91530699327268 14.8469656479779  L 8.28140538194452 13.2279600183824  L 7.15285980902786 11.6570022977942  L 4.24386260308165 13.6478569623162  L 4.48752585177954 13.9883704044116  L 7.02889078776047 12.2482004825367  L 7.66797246636293 13.1402203584557  L 5.67164374457457 14.5064522058824  L 5.30614887152774 13.9946375229779  L 4.93851660156247 14.2474113051469  L 6.33637418619787 16.200663258272  C 6.56935045030377 16.5244643841911  6.84507465277784 16.5787794117646  7.1614093967014 16.3615193014707  L 9.28811933051225 14.9054587545957  C 9.43559971788181 14.7926506204044  9.52750778537325 14.6652192095589  9.55956873914943 14.5189864430147  C 9.57453051757807 14.3748427159926  9.43773711480026 14.0531306295957  9.14705113389755 13.5517611443015  L 8.71102216254349 13.6833706341911  C 8.97178458658868 14.0928223805147  9.09361621093763 14.3435071231618  9.07437963867187 14.4396029411764  C 9.0530056694879 14.5210754825366  9.00812033420129 14.5837466681985  8.94186102973094 14.6297055376838  L 7.01820380316849 15.9458004365808  C 6.87713560655379 16.0418962545955  6.75744137912329 16.021005859375  6.65698372395832 15.881040211397  L 5.91530699327268 14.8469656479779  Z M 5.87867051630428 11.255004611545  L 6.3467190896738 10.9343950737848  C 6.3880815217392 9.48737736002613  7.10212771739134 8.07883279079874  8.40177887228265 7.18753827582464  C 9.70143002717396 6.29624376085076  11.2949721467392 6.12097721354166  12.6925869565216 6.58051755099837  L 13.1606355298914 6.25990801323792  C 11.554031589674 5.61868893771703  9.66006759510856 5.76189453124994  8.13401154891312 6.80921902126738  C 6.60795550271746 7.85654351128483  5.81553838315222 9.55363666449648  5.87867051630428 11.255004611545  Z M 8.45303689236107 10.6870266655815  L 8.37324074074081 11.0974068739149  C 8.77642129629635 11.125193033854  9.1292042824075 11.1850401475695  9.43158969907404 11.2748108181422  L 9.50928595196751 10.8259574652777  C 9.1964010416666 10.7511485731336  8.84361805555568 10.7062632378472  8.45303689236107 10.6870266655815  Z M 14.4447569444444 18.5578092447915  L 15.2806781684028 17.9738758680555  L 16.0947927517361 18.5893077256944  L 15.7991916232638 17.6128548177082  L 16.6351128472222 17.0289214409722  L 15.6150466579861 17.0095377604166  L 15.3170225694444 16.0330848524304  L 14.982654079861 16.9974229600696  L 13.9650108506944 16.9804622395834  L 14.7791254340277 17.5934711371528  L 14.4447569444444 18.5578092447915  Z M 11.4117941984953 11.7728243001302  C 11.1430071614584 11.6317561035157  10.809123263889 11.4971000976561  10.4059427083332 11.3645814887152  L 10.5634351128472 10.9713004557291  C 10.9708154658565 11.0952694769965  11.3046993634259 11.2192384982638  11.5650868055554 11.3432075195312  L 11.4117941984953 11.7728243001302  Z M 15.9358759191177 7.45204882812504  L 16.3319871323529 8.05391210937501  L 15.7285845588235 8.50312890625014  L 15.3324733455881 7.90126562499995  L 15.9358759191177 7.45204882812504  Z M 15.1108152573529 7.56544335937497  L 14.7167564338235 6.96794140625002  L 15.3201590073529 6.51872460937511  L 15.7142178308823 7.11622656250006  L 15.1108152573529 7.56544335937497  Z M 12.7956274594908 12.2024410807292  L 13.3122025462962 11.8283966200088  C 13.4843942418981 11.6937406141492  13.6166878616898 11.5890081651476  13.7069835069444 11.512061876085  L 13.8728755063657 11.941678656684  L 13.0770138888888 12.5102262369792  C 12.9468201678242 12.6042717013888  12.7116315104167 12.7667138671875  12.3714479166667 13.0018275282118  C 12.1152602719908 13.1792314724394  11.8926710069445 13.3074752875434  11.7015802228009 13.3822841796875  C 11.5146892361111 13.4464060872397  11.3151988570603 13.4570930718317  11.1031090856482 13.4100703396266  C 11.006513744213 13.384421576606  10.9351171875001 13.3886963704429  10.8868195167825 13.4207573242188  C 10.807023365162 13.4784670410156  10.7902241753472 13.7541912434897  10.8385218460649 14.2479299316406  L 10.4038428096064 14.1859454210069  C 10.3765441261573 13.7328172743055  10.4122424045138 13.4100703396268  10.508837745949 13.2198420138889  L 9.76547359664346 12.138319173177  L 9.25309830729179 12.5038140462241  L 9.01370985243057 12.1618305392794  L 9.86836863425924 11.5526724175347  L 10.8679204282407 13.0061023220485  C 10.8973190104166 13.0039649251303  10.9309173900463 13.0103771158854  10.9687155671297 13.0210641004774  C 11.1283078703702 13.055262451172  11.2753007812501 13.0638120388455  11.4096942997685 13.0424380696616  C 11.5650868055554 13.0125145128038  11.7603773871529 12.9184690483942  11.9955660445603 12.7603016764322  C 12.2958515625 12.5551115722656  12.5625387008101 12.3670206434463  12.7956274594908 12.2024410807292  Z M 15.9358759191177 7.45204882812504  L 16.3319871323529 8.05391210937501  L 15.7285845588235 8.50312890625014  L 15.3324733455881 7.90126562499995  L 15.9358759191177 7.45204882812504  Z M 15.1108152573529 7.56544335937497  L 14.7167564338235 6.96794140625002  L 15.3201590073529 6.51872460937511  L 15.7142178308823 7.11622656250006  L 15.1108152573529 7.56544335937497  Z M 10.5634351128472 10.9713004557291  L 10.4059427083332 11.3645814887152  C 10.809123263889 11.4971000976561  11.1430071614584 11.6317561035157  11.4117941984953 11.7728243001302  L 11.5650868055554 11.3432075195312  C 11.3046993634259 11.2192384982638  10.9708154658565 11.0952694769965  10.5634351128472 10.9713004557291  Z M 13.7069835069444 11.512061876085  C 13.6166878616898 11.5890081651476  13.4843942418981 11.6937406141492  13.3122025462962 11.8283966200088  L 12.7956274594908 12.2024410807292  C 12.5625387008101 12.3670206434463  12.2958515625 12.5551115722656  11.9955660445603 12.7603016764322  C 11.7603773871529 12.9184690483942  11.5650868055554 13.0125145128038  11.4096942997685 13.0424380696616  C 11.2753007812501 13.0638120388455  11.1283078703702 13.055262451172  10.9687155671297 13.0210641004774  C 10.9309173900463 13.0103771158854  10.8973190104166 13.0039649251303  10.8679204282407 13.0061023220485  L 9.86836863425924 11.5526724175347  L 9.01370985243057 12.1618305392794  L 9.25309830729179 12.5038140462241  L 9.76547359664346 12.138319173177  L 10.508837745949 13.2198420138889  C 10.4122424045138 13.4100703396268  10.3765441261573 13.7328172743055  10.4038428096064 14.1859454210069  L 10.8385218460649 14.2479299316406  C 10.7902241753472 13.7541912434897  10.807023365162 13.4784670410156  10.8868195167825 13.4207573242188  C 10.9351171875001 13.3886963704429  11.006513744213 13.384421576606  11.1031090856482 13.4100703396266  C 11.3151988570603 13.4570930718317  11.5146892361111 13.4464060872397  11.7015802228009 13.3822841796875  C 11.8926710069445 13.3074752875434  12.1152602719908 13.1792314724394  12.3714479166667 13.0018275282118  C 12.7116315104167 12.7667138671875  12.9468201678242 12.6042717013888  13.0770138888888 12.5102262369792  L 13.8728755063657 11.941678656684  L 13.7069835069444 11.512061876085  Z M 12.7956274594908 12.2024410807292  L 13.3122025462962 11.8283966200088  C 13.4843942418981 11.6937406141492  13.6166878616898 11.5890081651476  13.7069835069444 11.512061876085  L 13.8728755063657 11.941678656684  L 13.0770138888888 12.5102262369792  C 12.9468201678242 12.6042717013888  12.7116315104167 12.7667138671875  12.3714479166667 13.0018275282118  C 12.1152602719908 13.1792314724394  11.8926710069445 13.3074752875434  11.7015802228009 13.3822841796875  C 11.5146892361111 13.4464060872397  11.3151988570603 13.4570930718317  11.1031090856482 13.4100703396266  C 11.006513744213 13.384421576606  10.9351171875001 13.3886963704429  10.8868195167825 13.4207573242188  C 10.807023365162 13.4784670410156  10.7902241753472 13.7541912434897  10.8385218460649 14.2479299316406  L 10.4038428096064 14.1859454210069  C 10.3765441261573 13.7328172743055  10.4122424045138 13.4100703396268  10.508837745949 13.2198420138889  L 9.76547359664346 12.138319173177  L 9.25309830729179 12.5038140462241  L 9.01370985243057 12.1618305392794  L 9.86836863425924 11.5526724175347  L 10.8679204282407 13.0061023220485  C 10.8973190104166 13.0039649251303  10.9309173900463 13.0103771158854  10.9687155671297 13.0210641004774  C 11.1283078703702 13.055262451172  11.2753007812501 13.0638120388455  11.4096942997685 13.0424380696616  C 11.5650868055554 13.0125145128038  11.7603773871529 12.9184690483942  11.9955660445603 12.7603016764322  C 12.2958515625 12.5551115722656  12.5625387008101 12.3670206434463  12.7956274594908 12.2024410807292  Z M 11.4117941984953 11.7728243001302  C 11.1430071614584 11.6317561035157  10.809123263889 11.4971000976561  10.4059427083332 11.3645814887152  L 10.5634351128472 10.9713004557291  C 10.9708154658565 11.0952694769965  11.3046993634259 11.2192384982638  11.5650868055554 11.3432075195312  L 11.4117941984953 11.7728243001302  Z " fill-rule="nonzero" fill="#0079fe" stroke="none" transform="matrix(1 0 0 1 198 492 )" />
  </g>
</svg>