<?xml version="1.0" encoding="utf-8"?>
<svg version="1.1" xmlns:xlink="http://www.w3.org/1999/xlink" width="22px" height="19px" xmlns="http://www.w3.org/2000/svg">
  <g transform="matrix(1 0 0 1 -636 -543 )">
    <path d="M 15.68359375 2.44303385416663  C 14.2308407738096 1.86990017361109  12.6696428571428 1.58333333333337  11 1.58333333333337  C 9.33035714285717 1.58333333333337  7.76915922619045 1.86990017361109  6.31640625 2.44303385416663  C 4.86365327380955 3.01616753472229  3.70963541666671 3.78927951388891  2.8543526785715 4.76236979166663  C 1.9990699404762 5.73546006944434  1.5714285714285 6.78689236111109  1.5714285714285 7.91666666666663  C 1.5714285714285 8.84027777777771  1.86402529761909 9.72059461805566  2.44921875 10.5576171875  C 3.03441220238091 11.3946397569443  3.85900297619045 12.1182725694443  4.9229910714285 12.728515625  L 5.9910714285715 13.3470052083334  L 5.65959821428567 14.5345052083334  C 5.46316964285717 15.2849392361111  5.1767113095238 15.994140625  4.80022321428567 16.662109375  C 6.04427083333329 16.142578125  7.16964285714283 15.4375  8.17633928571433 14.546875  L 8.7042410714285 14.0768229166666  L 9.40401785714283 14.1510416666666  C 9.96875 14.2170138888889  10.5007440476191 14.25  11 14.25  C 12.6696428571428 14.25  14.2308407738096 13.9634331597223  15.68359375 13.3902994791666  C 17.1363467261904 12.8171657986111  18.2903645833333 12.0440538194443  19.1456473214285 11.0709635416666  C 20.0009300595238 10.0978732638889  20.4285714285715 9.04644097222229  20.4285714285715 7.91666666666663  C 20.4285714285715 6.78689236111109  20.0009300595238 5.73546006944434  19.1456473214285 4.76236979166663  C 18.2903645833333 3.78927951388891  17.1363467261904 3.01616753472229  15.68359375 2.44303385416663  Z M 20.5267857142857 3.93977864583337  C 21.5089285714285 5.15614149305566  22 6.48177083333337  22 7.91666666666663  C 22 9.3515625  21.5089285714285 10.6771918402777  20.5267857142857 11.8935546875  C 19.5446428571428 13.1099175347223  18.2105654761904 14.0706380208334  16.5245535714285 14.7757161458334  C 14.8385416666667 15.4807942708334  12.9970238095238 15.8333333333334  11 15.8333333333334  C 10.4270833333333 15.8333333333334  9.83370535714283 15.8003472222223  9.2198660714285 15.734375  C 7.59933035714283 17.1775173611111  5.71688988095238 18.1753472222223  3.57254464285717 18.7278645833334  C 3.17150297619045 18.8433159722223  2.70498511904762 18.9340277777777  2.1729910714285 19  L 2.11160714285717 19  C 1.98883928571433 19  1.87834821428567 18.9567057291666  1.7801339285715 18.8701171875  C 1.68191964285717 18.7835286458334  1.61644345238091 18.6701388888889  1.58370535714283 18.5299479166666  L 1.58370535714283 18.517578125  C 1.55915178571433 18.4845920138889  1.55710565476193 18.4351128472223  1.57756696428567 18.369140625  C 1.59802827380955 18.3031684027777  1.60621279761909 18.2619357638889  1.60212053571433 18.2454427083334  C 1.59802827380955 18.2289496527777  1.61644345238091 18.1897786458334  1.6573660714285 18.1279296875  L 1.73102678571433 18.0166015625  C 1.73102678571433 18.0166015625  1.75967261904762 17.9815538194443  1.81696428571433 17.9114583333334  C 1.87425595238091 17.8413628472223  1.90699404761909 17.8042534722223  1.9151785714285 17.8001302083334  C 1.97247023809521 17.7341579861111  2.09933035714283 17.5919053819443  2.2957589285715 17.3733723958334  C 2.4921875 17.1548394097223  2.63337053571433 16.9981553819443  2.71930803571433 16.9033203125  C 2.80524553571433 16.8084852430557  2.93210565476193 16.6456163194443  3.09988839285717 16.4147135416666  C 3.26767113095238 16.1838107638889  3.40066964285717 15.9735243055557  3.4988839285715 15.7838541666666  C 3.59709821428567 15.5941840277777  3.70758928571433 15.3509114583334  3.83035714285717 15.0540364583334  C 3.953125 14.7571614583334  4.0595238095238 14.4437934027777  4.1495535714285 14.1139322916666  C 2.86458333333329 13.3799913194443  1.85174851190479 12.4728732638889  1.11104910714283 11.392578125  C 0.370349702380906 10.3122829861111  0 9.15364583333337  0 7.91666666666663  C 0 6.48177083333337  0.491071428571502 5.15614149305566  1.47321428571433 3.93977864583337  C 2.45535714285717 2.72341579861109  3.78943452380955 1.7626953125  5.4754464285715 1.0576171875  C 7.16145833333329 0.3525390625  9.0029761904762 0  11 0  C 12.9970238095238 0  14.8385416666667 0.3525390625  16.5245535714285 1.0576171875  C 18.2105654761904 1.7626953125  19.5446428571428 2.72341579861109  20.5267857142857 3.93977864583337  Z " fill-rule="nonzero" fill="#0079fe" stroke="none" transform="matrix(1 0 0 1 636 543 )" />
  </g>
</svg>