<?xml version="1.0" encoding="utf-8"?>
<svg version="1.1" xmlns:xlink="http://www.w3.org/1999/xlink" width="22px" height="22px" xmlns="http://www.w3.org/2000/svg">
  <g transform="matrix(1 0 0 1 -248 -197 )">
    <path d="M 16.3639322916667 9.302734375  C 16.4546440972222 9.39344618055554  16.5 9.50086805555554  16.5 9.625  L 16.5 12.375  C 16.5 12.4991319444445  16.4546440972222 12.6065538194445  16.3639322916667 12.697265625  C 16.2732204861111 12.7879774305555  16.1657986111111 12.8333333333334  16.0416666666667 12.8333333333334  L 11 12.8333333333334  L 11 15.5833333333334  C 11 15.7170138888889  10.95703125 15.8268229166666  10.87109375 15.9127604166666  C 10.78515625 15.9986979166666  10.6753472222222 16.0416666666666  10.5416666666667 16.0416666666666  C 10.4270833333333 16.0416666666666  10.3125 15.9939236111111  10.1979166666667 15.8984375  L 5.62890625 11.3294270833334  C 5.54296875 11.2434895833334  5.5 11.1336805555555  5.5 11  C 5.5 10.8663194444445  5.54296875 10.7565104166666  5.62890625 10.6705729166666  L 10.2122395833333 6.08723958333337  C 10.2981770833333 6.00130208333337  10.4079861111111 5.95833333333337  10.5416666666667 5.95833333333337  C 10.6657986111111 5.95833333333337  10.7732204861111 6.00368923611109  10.8639322916667 6.09440104166663  C 10.9546440972222 6.18511284722217  11 6.29253472222217  11 6.41666666666663  L 11 9.16666666666663  L 16.0416666666667 9.16666666666663  C 16.1657986111111 9.16666666666663  16.2732204861111 9.21202256944446  16.3639322916667 9.302734375  Z M 17.74609375 14.91015625  C 18.4431423611111 13.7165798611111  18.7916666666667 12.4131944444445  18.7916666666667 11  C 18.7916666666667 9.58680555555554  18.4431423611111 8.28342013888891  17.74609375 7.08984375  C 17.0490451388889 5.89626736111109  16.1037326388889 4.95095486111109  14.91015625 4.25390625  C 13.7165798611111 3.55685763888891  12.4131944444444 3.20833333333337  11 3.20833333333337  C 9.5868055555556 3.20833333333337  8.28342013888889 3.55685763888891  7.08984375 4.25390625  C 5.89626736111111 4.95095486111109  4.95095486111111 5.89626736111109  4.25390625 7.08984375  C 3.55685763888889 8.28342013888891  3.20833333333329 9.58680555555554  3.20833333333329 11  C 3.20833333333329 12.4131944444445  3.55685763888889 13.7165798611111  4.25390625 14.91015625  C 4.95095486111111 16.1037326388889  5.89626736111111 17.0490451388889  7.08984375 17.74609375  C 8.28342013888889 18.4431423611111  9.5868055555556 18.7916666666666  11 18.7916666666666  C 12.4131944444444 18.7916666666666  13.7165798611111 18.4431423611111  14.91015625 17.74609375  C 16.1037326388889 17.0490451388889  17.0490451388889 16.1037326388889  17.74609375 14.91015625  Z M 20.5247395833333 5.478515625  C 21.5082465277778 7.16384548611109  22 9.00434027777783  22 11  C 22 12.9956597222222  21.5082465277778 14.8361545138889  20.5247395833333 16.521484375  C 19.5412326388889 18.2068142361111  18.2068142361111 19.5412326388889  16.521484375 20.5247395833334  C 14.8361545138889 21.5082465277778  12.9956597222222 22  11 22  C 9.00434027777777 22  7.16384548611111 21.5082465277778  5.478515625 20.5247395833334  C 3.79318576388889 19.5412326388889  2.45876736111111 18.2068142361111  1.47526041666671 16.521484375  C 0.491753472222229 14.8361545138889  0 12.9956597222222  0 11  C 0 9.00434027777783  0.491753472222229 7.16384548611109  1.47526041666671 5.478515625  C 2.45876736111111 3.79318576388891  3.79318576388889 2.45876736111109  5.478515625 1.47526041666663  C 7.16384548611111 0.491753472222172  9.00434027777777 0  11 0  C 12.9956597222222 0  14.8361545138889 0.491753472222172  16.521484375 1.47526041666663  C 18.2068142361111 2.45876736111109  19.5412326388889 3.79318576388891  20.5247395833333 5.478515625  Z " fill-rule="nonzero" fill="#0079fe" stroke="none" transform="matrix(1 0 0 1 248 197 )" />
  </g>
</svg>