<?xml version="1.0" encoding="utf-8"?>
<svg version="1.1" xmlns:xlink="http://www.w3.org/1999/xlink" width="22px" height="18px" xmlns="http://www.w3.org/2000/svg">
  <g transform="matrix(1 0 0 1 -1150 -641 )">
    <path d="M 18.8463128876637 10.2837100545596  C 18.8554100620262 10.3024162120032  18.8599586492074 10.3304754481683  18.8599586492074 10.3678877630553  L 18.8599586492074 17.1021044427123  C 18.8599586492074 17.3452844894778  18.7735354927636 17.5557287607171  18.600689179876 17.7334372564301  C 18.4278428669883 17.9111457521435  18.2231564438319 18  17.9866299104066 18  L 12.7466574776017 18  L 12.7466574776017 12.6126266562744  L 9.25334252239834 12.6126266562744  L 9.25334252239834 18  L 4.01337008959339 18  C 3.77684355616814 18  3.57215713301172 17.9111457521435  3.39931082012402 17.7334372564301  C 3.22646450723636 17.5557287607171  3.14004135079258 17.3452844894778  3.14004135079258 17.1021044427123  L 3.14004135079258 10.3678877630553  C 3.14004135079258 10.3585346843336  3.14231564438319 10.344505066251  3.14686423156445 10.3257989088074  C 3.15141281874566 10.3070927513641  3.15368711233628 10.2930631332813  3.15368711233628 10.2837100545596  L 11 3.63367108339821  L 18.8463128876637 10.2837100545596  Z M 21.9984838042729 9.07014809041311  C 22.0075809786354 9.19641465315658  21.9757408683667 9.30631332813732  21.9029634734666 9.39984411535465  L 21.0569262577533 10.4380358534684  C 20.9841488628532 10.5222135619642  20.8886285320469 10.5736554949337  20.7703652653343 10.5923616523773  L 20.729427980703 10.5923616523773  C 20.6111647139904 10.5923616523773  20.515644383184 10.5596258768512  20.442866988284 10.4941543257989  L 11 2.39906469212792  L 1.55713301171603 10.4941543257989  C 1.44796691936591 10.5689789555729  1.33880082701585 10.601714731099  1.22963473466572 10.5923616523773  C 1.11137146795311 10.5736554949337  1.01585113714677 10.5222135619642  0.943073742246712 10.4380358534684  L 0.0970365265334295 9.39984411535465  C 0.0242591316333432 9.30631332813732  -0.00758097863541708 9.19641465315658  0.00151619572709194 9.07014809041311  C 0.0106133700895583 8.94388152766965  0.0606478290833935 8.84333593141082  0.151619572708469 8.76851130163686  L 9.96292212267404 0.364770070148097  C 10.2540317022743 0.121590023382851  10.5997243280496 0  11 0  C 11.4002756719504 0  11.7459682977257 0.121590023382851  12.037077877326 0.364770070148097  L 15.3666436940042 3.22681215900229  L 15.3666436940042 0.491036632891564  C 15.3666436940042 0.360093530787253  15.4075809786354 0.252533125487162  15.489455547898 0.16835541699129  C 15.5713301171606 0.0841777084956448  15.6759476223294 0.0420888542478224  15.8033080634046 0.0420888542478224  L 18.423294279807 0.0420888542478224  C 18.5506547208822 0.0420888542478224  18.655272226051 0.0841777084956448  18.7371467953136 0.16835541699129  C 18.8190213645762 0.252533125487162  18.8599586492074 0.360093530787253  18.8599586492074 0.491036632891564  L 18.8599586492074 6.21512081060018  L 21.8483804272915 8.76851130163686  C 21.9393521709166 8.84333593141082  21.9893866299104 8.94388152766965  21.9984838042729 9.07014809041311  Z " fill-rule="nonzero" fill="#0079fe" stroke="none" transform="matrix(1 0 0 1 1150 641 )" />
  </g>
</svg>