<?xml version="1.0" encoding="utf-8"?>
<svg version="1.1" xmlns:xlink="http://www.w3.org/1999/xlink" width="12px" height="22px" xmlns="http://www.w3.org/2000/svg">
  <g transform="matrix(1 0 0 1 -1117 -197 )">
    <path d="M 11.6041666666666 0.408203125  C 11.8680555555555 0.680338541666742  12 1.00260416666674  12 1.375  L 12 20.625  C 12 20.9973958333333  11.8680555555555 21.3196614583333  11.6041666666666 21.591796875  C 11.3402777777778 21.8639322916667  11.0277777777778 22  10.6666666666666 22  C 10.3055555555555 22  9.99305555555554 21.8639322916667  9.7291666666666 21.591796875  L 0.3958333333334 11.966796875  C 0.131944444444457 11.6946614583333  0 11.3723958333333  0 11  C 0 10.6276041666667  0.131944444444457 10.3053385416667  0.3958333333334 10.033203125  L 9.7291666666666 0.408203125  C 9.99305555555554 0.136067708333258  10.3055555555555 0  10.6666666666666 0  C 11.0277777777778 0  11.3402777777778 0.136067708333258  11.6041666666666 0.408203125  Z " fill-rule="nonzero" fill="#0079fe" stroke="none" transform="matrix(1 0 0 1 1117 197 )" />
  </g>
</svg>