<?xml version="1.0" encoding="utf-8"?>
<svg version="1.1" xmlns:xlink="http://www.w3.org/1999/xlink" width="22px" height="22px" xmlns="http://www.w3.org/2000/svg">
  <g transform="matrix(1 0 0 1 -158 -344 )">
    <path d="M 18.0611979166666 12.5611979166666  C 18.2426215277778 12.3797743055555  18.3333333333334 12.1649305555555  18.3333333333334 11.9166666666666  L 18.3333333333334 10.0833333333334  C 18.3333333333334 9.83506944444446  18.2426215277778 9.62022569444446  18.0611979166666 9.43880208333337  C 17.8797743055555 9.25737847222217  17.6649305555555 9.16666666666663  17.4166666666666 9.16666666666663  L 12.8333333333334 9.16666666666663  L 12.8333333333334 4.58333333333337  C 12.8333333333334 4.33506944444446  12.7426215277778 4.12022569444446  12.5611979166666 3.93880208333337  C 12.3797743055556 3.75737847222217  12.1649305555556 3.66666666666663  11.9166666666666 3.66666666666663  L 10.0833333333334 3.66666666666663  C 9.83506944444443 3.66666666666663  9.62022569444443 3.75737847222217  9.43880208333337 3.93880208333337  C 9.2573784722222 4.12022569444446  9.16666666666663 4.33506944444446  9.16666666666663 4.58333333333337  L 9.16666666666663 9.16666666666663  L 4.58333333333337 9.16666666666663  C 4.33506944444443 9.16666666666663  4.12022569444443 9.25737847222217  3.93880208333337 9.43880208333337  C 3.7573784722222 9.62022569444446  3.66666666666663 9.83506944444446  3.66666666666663 10.0833333333334  L 3.66666666666663 11.9166666666666  C 3.66666666666663 12.1649305555555  3.7573784722222 12.3797743055555  3.93880208333337 12.5611979166666  C 4.12022569444443 12.7426215277778  4.33506944444443 12.8333333333334  4.58333333333337 12.8333333333334  L 9.16666666666663 12.8333333333334  L 9.16666666666663 17.4166666666666  C 9.16666666666663 17.6649305555555  9.2573784722222 17.8797743055555  9.43880208333337 18.0611979166666  C 9.62022569444443 18.2426215277778  9.83506944444443 18.3333333333334  10.0833333333334 18.3333333333334  L 11.9166666666666 18.3333333333334  C 12.1649305555556 18.3333333333334  12.3797743055556 18.2426215277778  12.5611979166666 18.0611979166666  C 12.7426215277778 17.8797743055555  12.8333333333334 17.6649305555555  12.8333333333334 17.4166666666666  L 12.8333333333334 12.8333333333334  L 17.4166666666666 12.8333333333334  C 17.6649305555555 12.8333333333334  17.8797743055555 12.7426215277778  18.0611979166666 12.5611979166666  Z M 20.7897135416666 1.21028645833337  C 21.5965711805555 2.01714409722217  22 2.98871527777771  22 4.125  L 22 17.875  C 22 19.0112847222222  21.5965711805555 19.9828559027778  20.7897135416666 20.7897135416666  C 19.9828559027778 21.5965711805555  19.0112847222222 22  17.875 22  L 4.125 22  C 2.9887152777778 22  2.0171440972222 21.5965711805555  1.21028645833337 20.7897135416666  C 0.403428819444429 19.9828559027778  0 19.0112847222222  0 17.875  L 0 4.125  C 0 2.98871527777771  0.403428819444429 2.01714409722217  1.21028645833337 1.21028645833337  C 2.0171440972222 0.403428819444457  2.9887152777778 0  4.125 0  L 17.875 0  C 19.0112847222222 0  19.9828559027778 0.403428819444457  20.7897135416666 1.21028645833337  Z " fill-rule="nonzero" fill="#0079fe" stroke="none" transform="matrix(1 0 0 1 158 344 )" />
  </g>
</svg>