<?xml version="1.0" encoding="utf-8"?>
<svg version="1.1" xmlns:xlink="http://www.w3.org/1999/xlink" width="15px" height="22px" xmlns="http://www.w3.org/2000/svg">
  <g transform="matrix(1 0 0 1 -777 -346 )">
    <path d="M 11.0595703125 11.6433250155958  L 0.6591796875 21.7935641505512  C 0.473632812500057 21.9746482290151  0.317382812499943 22.0365980453317  0.1904296875 21.979413599501  C 0.0634765625000568 21.9222291536703  0 21.7697372981216  0 21.5219380328551  L 0 0.478061967144873  C 0 0.230262701878362  0.0634765625000568 0.0777708463297139  0.1904296875 0.0205864004990419  C 0.317382812499943 -0.0365980453317438  0.473632812500057 0.0253517709849123  0.6591796875 0.206435849448783  L 11.0595703125 10.3566749844042  C 11.1376953125001 10.4329209121786  11.2011718749999 10.5234629514106  11.25 10.6283011021002  L 11.25 0.935537533790703  C 11.25 0.687738268524193  11.3427734375001 0.473296596659002  11.5283203125 0.292212518195018  C 11.7138671874999 0.11112843973092  11.9335937499999 0.0205864004990419  12.1875 0.0205864004990419  L 14.0625 0.0205864004990419  C 14.3164062500001 0.0205864004990419  14.5361328125001 0.11112843973092  14.7216796875 0.292212518195018  C 14.9072265624999 0.473296596659002  15 0.687738268524193  15 0.935537533790703  L 15 21.0644624662093  C 15 21.3122617314758  14.9072265624999 21.526703403341  14.7216796875 21.707787481805  C 14.5361328125001 21.8888715602691  14.3164062500001 21.979413599501  14.0625 21.979413599501  L 12.1875 21.979413599501  C 11.9335937499999 21.979413599501  11.7138671874999 21.8888715602691  11.5283203125 21.707787481805  C 11.3427734375001 21.526703403341  11.25 21.3122617314758  11.25 21.0644624662093  L 11.25 11.3716988978998  C 11.2011718749999 11.4670063076177  11.1376953125001 11.5575483468496  11.0595703125 11.6433250155958  Z " fill-rule="nonzero" fill="#0079fe" stroke="none" transform="matrix(1 0 0 1 777 346 )" />
  </g>
</svg>