<?xml version="1.0" encoding="utf-8"?>
<svg version="1.1" xmlns:xlink="http://www.w3.org/1999/xlink" width="22px" height="22px" xmlns="http://www.w3.org/2000/svg">
  <g transform="matrix(1 0 0 1 -597 -346 )">
    <path d="M 21.7278645833334 0.272135416666742  C 21.9092881944445 0.453559027777715  22 0.668402777777715  22 0.916666666666742  L 22 21.0833333333333  C 22 21.3315972222223  21.9092881944445 21.5464409722223  21.7278645833334 21.7278645833333  C 21.5464409722222 21.9092881944445  21.3315972222222 22  21.0833333333334 22  L 13.75 22  C 13.5017361111111 22  13.2868923611111 21.9092881944445  13.10546875 21.7278645833333  C 12.9240451388889 21.5464409722223  12.8333333333334 21.3315972222223  12.8333333333334 21.0833333333333  L 12.8333333333334 0.916666666666742  C 12.8333333333334 0.668402777777715  12.9240451388889 0.453559027777715  13.10546875 0.272135416666742  C 13.2868923611111 0.0907118055555429  13.5017361111111 0  13.75 0  L 21.0833333333334 0  C 21.3315972222222 0  21.5464409722222 0.0907118055555429  21.7278645833334 0.272135416666742  Z M 8.89453125 0.272135416666742  C 9.07595486111111 0.453559027777715  9.16666666666663 0.668402777777715  9.16666666666663 0.916666666666742  L 9.16666666666663 21.0833333333333  C 9.16666666666663 21.3315972222223  9.07595486111111 21.5464409722223  8.89453125 21.7278645833333  C 8.71310763888889 21.9092881944445  8.49826388888889 22  8.25 22  L 0.916666666666629 22  C 0.6684027777778 22  0.4535590277778 21.9092881944445  0.272135416666629 21.7278645833333  C 0.0907118055555713 21.5464409722223  0 21.3315972222223  0 21.0833333333333  L 0 0.916666666666742  C 0 0.668402777777715  0.0907118055555713 0.453559027777715  0.272135416666629 0.272135416666742  C 0.4535590277778 0.0907118055555429  0.6684027777778 0  0.916666666666629 0  L 8.25 0  C 8.49826388888889 0  8.71310763888889 0.0907118055555429  8.89453125 0.272135416666742  Z " fill-rule="nonzero" fill="#0079fe" stroke="none" transform="matrix(1 0 0 1 597 346 )" />
  </g>
</svg>