<?xml version="1.0" encoding="utf-8"?>
<svg version="1.1" xmlns:xlink="http://www.w3.org/1999/xlink" width="22px" height="22px" xmlns="http://www.w3.org/2000/svg">
  <g transform="matrix(1 0 0 1 -69 -295 )">
    <path d="M 17.0442708333334 9.16666666666663  C 17.0442708333334 9.41493055555554  16.9535590277778 9.62977430555554  16.7721354166666 9.81119791666663  L 10.7278645833334 15.85546875  C 10.5464409722222 16.0368923611111  10.3315972222222 16.1276041666666  10.0833333333334 16.1276041666666  C 9.83506944444444 16.1276041666666  9.62022569444444 16.0368923611111  9.43880208333336 15.85546875  L 5.22786458333336 11.64453125  C 5.0464409722222 11.4631076388889  4.95572916666664 11.2482638888889  4.95572916666664 11  C 4.95572916666664 10.7517361111111  5.0464409722222 10.5368923611111  5.22786458333336 10.35546875  L 6.68880208333336 8.89453125  C 6.87022569444444 8.71310763888891  7.08506944444444 8.62239583333337  7.33333333333336 8.62239583333337  C 7.5815972222222 8.62239583333337  7.7964409722222 8.71310763888891  7.97786458333336 8.89453125  L 10.0833333333334 11  L 14.0221354166666 7.06119791666663  C 14.2035590277778 6.87977430555554  14.4184027777778 6.7890625  14.6666666666666 6.7890625  C 14.9149305555556 6.7890625  15.1297743055556 6.87977430555554  15.3111979166666 7.06119791666663  L 16.7721354166666 8.52213541666663  C 16.9535590277778 8.70355902777783  17.0442708333334 8.91840277777783  17.0442708333334 9.16666666666663  Z M 17.74609375 14.91015625  C 18.4431423611111 13.7165798611111  18.7916666666666 12.4131944444445  18.7916666666666 11  C 18.7916666666666 9.58680555555554  18.4431423611111 8.28342013888891  17.74609375 7.08984375  C 17.0490451388889 5.89626736111109  16.1037326388889 4.95095486111109  14.91015625 4.25390625  C 13.7165798611111 3.55685763888891  12.4131944444444 3.20833333333337  11 3.20833333333337  C 9.58680555555556 3.20833333333337  8.28342013888889 3.55685763888891  7.08984375 4.25390625  C 5.89626736111111 4.95095486111109  4.95095486111111 5.89626736111109  4.25390625 7.08984375  C 3.55685763888889 8.28342013888891  3.20833333333336 9.58680555555554  3.20833333333336 11  C 3.20833333333336 12.4131944444445  3.55685763888889 13.7165798611111  4.25390625 14.91015625  C 4.95095486111111 16.1037326388889  5.89626736111111 17.0490451388889  7.08984375 17.74609375  C 8.28342013888889 18.4431423611111  9.58680555555556 18.7916666666666  11 18.7916666666666  C 12.4131944444444 18.7916666666666  13.7165798611111 18.4431423611111  14.91015625 17.74609375  C 16.1037326388889 17.0490451388889  17.0490451388889 16.1037326388889  17.74609375 14.91015625  Z M 20.5247395833334 5.478515625  C 21.5082465277778 7.16384548611109  22 9.00434027777771  22 11  C 22 12.9956597222222  21.5082465277778 14.8361545138889  20.5247395833334 16.521484375  C 19.5412326388889 18.2068142361111  18.2068142361111 19.5412326388889  16.521484375 20.5247395833334  C 14.8361545138889 21.5082465277778  12.9956597222222 22  11 22  C 9.0043402777778 22  7.16384548611111 21.5082465277778  5.478515625 20.5247395833334  C 3.79318576388889 19.5412326388889  2.45876736111111 18.2068142361111  1.47526041666664 16.521484375  C 0.4917534722222 14.8361545138889  0 12.9956597222222  0 11  C 0 9.00434027777771  0.4917534722222 7.16384548611109  1.47526041666664 5.478515625  C 2.45876736111111 3.79318576388891  3.79318576388889 2.45876736111109  5.478515625 1.47526041666663  C 7.16384548611111 0.491753472222172  9.0043402777778 0  11 0  C 12.9956597222222 0  14.8361545138889 0.491753472222172  16.521484375 1.47526041666663  C 18.2068142361111 2.45876736111109  19.5412326388889 3.79318576388891  20.5247395833334 5.478515625  Z " fill-rule="nonzero" fill="#0079fe" stroke="none" transform="matrix(1 0 0 1 69 295 )" />
  </g>
</svg>