<?xml version="1.0" encoding="utf-8"?>
<svg version="1.1" xmlns:xlink="http://www.w3.org/1999/xlink" width="21px" height="22px" xmlns="http://www.w3.org/2000/svg">
  <g transform="matrix(1 0 0 1 -731 -246 )">
    <path d="M 20.2012485532408 1.14802187500001  C 19.7588415075231 0.698396874999844  19.0416294126157 0.698396874999844  18.5992900028936 1.14798750000006  L 10.3888888888889 9.49327500000007  L 2.17848777488427 1.14798750000006  C 1.73611454716433 0.698328125000188  1.01886863425921 0.698328125000188  0.576563042534758 1.14798750000006  C 0.134189814814818 1.59764687500018  0.134189814814818 2.3266375  0.576563042534758 2.77622812499993  L 8.7869641565394 11.12148125  L 0.576563042534758 19.466803125  C 0.134189814814818 19.9164625000001  0.134189814814818 20.6454531249999  0.576563042534758 21.0950437499999  C 1.0189362702547 21.544703125  1.73618218315971 21.544703125  2.17848777488427 21.0950437499999  L 10.3888888888889 12.7497906250001  L 18.5992900028936 21.0950437499999  C 19.0416632306135 21.544703125  19.7588753255209 21.544703125  20.2012485532408 21.0950437499999  C 20.6436217809608 20.645384375  20.6436217809608 19.9163937499999  20.2012485532408 19.466803125  L 11.9908474392362 11.1215156249999  L 20.2012485532408 2.77626250000017  C 20.6436217809608 2.32660312500005  20.6436217809608 1.59761249999994  20.2012485532408 1.14802187500001  Z " fill-rule="nonzero" fill="#0079fe" stroke="none" transform="matrix(1 0 0 1 731 246 )" />
  </g>
</svg>