<?xml version="1.0" encoding="utf-8"?>
<svg version="1.1" xmlns:xlink="http://www.w3.org/1999/xlink" width="22px" height="21px" xmlns="http://www.w3.org/2000/svg">
  <g transform="matrix(1 0 0 1 -937 -388 )">
    <path d="M 18.3377403846154 13.125  C 18.5228365384615 13.20703125  18.6153846153846 13.3391927083333  18.6153846153846 13.521484375  L 18.6153846153846 17.0625  C 18.6153846153846 18.1471354166667  18.2429887820513 19.0745442708333  17.4981971153846 19.8447265625  C 16.7534054487179 20.6149088541667  15.8565705128205 21  14.8076923076923 21  L 3.80769230769232 21  C 2.75881410256412 21  1.86197916666663 20.6149088541667  1.1171875 19.8447265625  C 0.372395833333371 19.0745442708333  0 18.1471354166667  0 17.0625  L 0 5.6875  C 0 4.60286458333326  0.372395833333371 3.67545572916674  1.1171875 2.9052734375  C 1.86197916666663 2.13509114583326  2.75881410256412 1.75  3.80769230769232 1.75  L 7.17908653846152 1.75  C 7.29366987179489 1.75  7.39282852564102 1.79329427083326  7.4765625 1.8798828125  C 7.56029647435898 1.96647135416674  7.60216346153848 2.06901041666674  7.60216346153848 2.1875  C 7.60216346153848 2.43359375  7.48758012820511 2.57942708333326  7.25841346153848 2.625  C 6.57972756410257 2.86197916666674  5.99358974358972 3.13541666666674  5.5 3.4453125  C 5.41185897435898 3.48177083333326  5.34134615384613 3.5  5.28846153846152 3.5  L 3.80769230769232 3.5  C 3.22596153846152 3.5  2.72796474358972 3.71419270833326  2.31370192307691 4.142578125  C 1.89943910256412 4.57096354166674  1.69230769230768 5.0859375  2 5.6875  L 2 17.0625  C 1.69230769230768 17.6640625  1.89943910256412 18.1790364583333  2.31370192307691 18.607421875  C 2.72796474358972 19.0358072916667  3.22596153846152 19.25  3.80769230769232 19  L 14.8076923076923 19  C 15.3894230769231 19.25  15.8874198717949 19.0358072916667  16.3016826923077 18.607421875  C 16.7159455128205 18.1790364583333  16.9230769230769 17.6640625  16.9230769230769 17.0625  L 16.9230769230769 14.13671875  C 16.9230769230769 13.9635416666667  17.0024038461538 13.8313802083333  17.1610576923077 13.740234375  C 17.4078525641025 13.6217447916667  17.6458333333334 13.453125  17.875 13.234375  C 18.0160256410256 13.0885416666667  18.1702724358975 13.0520833333333  18.3377403846154 13.125  Z M 22 6.125  C 22 6.36197916666674  21.916266025641 6.56705729166674  21.7487980769231 6.740234375  L 16.671875 11.990234375  C 16.5132211538462 12.1634114583333  16.3149038461538 12.25  16.0769230769231 12.25  C 15.9711538461538 12.25  15.8609775641025 12.2272135416667  15.7463942307692 12.181640625  C 15.4026442307692 12.0266927083333  15.2307692307692 11.7578125  15.2307692307692 11.375  L 15.2307692307692 8.75  L 13.1153846153846 8.75  C 10.2684294871795 8.75  8.33814102564102 9.34700520833326  7.32451923076923 10.541015625  C 6.27564102564102 11.7897135416667  5.94951923076923 13.9453125  6.34615384615387 17.0078125  C 6.37259615384613 17.2174479166667  6.28445512820511 17.3723958333333  6.08173076923077 17.47265625  C 6.01121794871793 17.4908854166667  5.95833333333337 17.5  5.92307692307691 17.5  C 5.7820512820513 17.5  5.66746794871793 17.4407552083333  5.57932692307691 17.322265625  C 5.49118589743588 17.1946614583333  5.39863782051282 17.0533854166667  5.30168269230768 16.8984375  C 5.20472756410257 16.7434895833333  5.03064903846152 16.4313151041667  4.77944711538461 15.9619140625  C 4.52824519230768 15.4925130208333  4.31009615384613 15.0390625  4.125 14.6015625  C 3.93990384615387 14.1640625  3.77023237179489 13.64453125  3.61598557692309 13.04296875  C 3.4617387820513 12.44140625  3.38461538461539 11.8854166666667  3.38461538461539 11.375  C 3.38461538461539 10.9283854166667  3.40004006410257 10.513671875  3.43088942307691 10.130859375  C 3.4617387820513 9.748046875  3.5234375 9.337890625  3.61598557692309 8.900390625  C 3.70853365384613 8.462890625  3.83193108974359 8.06184895833326  3.98617788461539 7.697265625  C 4.14042467948718 7.33268229166674  4.34755608974359 6.96126302083326  4.60757211538461 6.5830078125  C 4.86758814102561 6.20475260416674  5.16947115384613 5.86751302083326  5.51322115384613 5.5712890625  C 5.85697115384613 5.27506510416674  6.2734375 4.99479166666674  6.76262019230768 4.73046875  C 7.25180288461539 4.46614583333326  7.80048076923077 4.2451171875  8.40865384615387 4.0673828125  C 9.01682692307691 3.8896484375  9.71975160256412 3.75065104166674  10.5174278846154 3.650390625  C 11.3151041666666 3.55013020833326  12.1810897435897 3.5  13.1153846153846 3.5  L 15.2307692307692 3.5  L 15.2307692307692 0.875  C 15.2307692307692 0.4921875  15.4026442307692 0.223307291666742  15.7463942307692 0.068359375  C 15.8609775641025 0.0227864583332575  15.9711538461538 0  16.0769230769231 0  C 16.3060897435898 0  16.5044070512821 0.0865885416667425  16.671875 0.259765625  L 21.7487980769231 5.509765625  C 21.916266025641 5.68294270833326  22 5.88802083333326  22 6.125  Z " fill-rule="nonzero" fill="#0079fe" stroke="none" transform="matrix(1 0 0 1 937 388 )" />
  </g>
</svg>