<?xml version="1.0" encoding="utf-8"?>
<svg version="1.1" xmlns:xlink="http://www.w3.org/1999/xlink" width="22px" height="22px" xmlns="http://www.w3.org/2000/svg">
  <g transform="matrix(1 0 0 1 -1114 -387 )">
    <path d="M 21.2152450540855 0  C 21.3789324074251 0  21.5262510254307 0.0450148809522943  21.6572009081024 0.13504464285711  C 21.9272850411127 0.331473214285779  22.0377740046168 0.593377976190368  21.988667798615 0.920758928571559  L 18.8458706144953 19.7779017857142  C 18.8049487761605 20.0152529761904  18.6739988934888 20.1994047619048  18.4530209664803 20.3303571428571  C 18.3384398191427 20.3958333333333  18.2115821203045 20.4285714285716  18.0724478699659 20.4285714285716  C 17.9824198256291 20.4285714285716  17.8842074136254 20.4081101190477  17.7778106339546 20.3671875  L 12.2165328042429 18.0959821428571  L 9.24560734112981 21.7176339285716  C 9.0982887231242 21.9058779761904  8.89777171528323 22  8.6440563176069 22  C 8.53765953793618 22  8.44763149359937 21.983630952381  8.3739721845966 21.9508928571429  C 8.21846919892403 21.8936011904761  8.09365759200261 21.7974330357142  7.99953736383242 21.6623883928571  C 7.90541713566205 21.52734375  7.85835702157698 21.3779761904761  7.85835702157698 21.2142857142858  L 7.85835702157698 16.9296875  L 18.4652975179808 3.92857142857156  L 5.34166396398115 15.2845982142858  L 0.492426121296489 13.2957589285716  C 0.189604517618307 13.1811755952381  0.0259171642787237 12.9561011904761  0.00136406127779765 12.6205357142858  C -0.0150046740561152 12.2931547619048  0.115945208615472 12.0517113095239  0.394213709292728 11.8962053571429  L 20.8223954060706 0.110491071428442  C 20.9451609210753 0.0368303571428896  21.0761108037469 0  21.2152450540855 0  Z " fill-rule="nonzero" fill="#0079fe" stroke="none" transform="matrix(1 0 0 1 1114 387 )" />
  </g>
</svg>