<?xml version="1.0" encoding="utf-8"?>
<svg version="1.1" xmlns:xlink="http://www.w3.org/1999/xlink" width="22px" height="22px" xmlns="http://www.w3.org/2000/svg">
  <g transform="matrix(1 0 0 1 -772 -588 )">
    <path d="M 10.9995721471429 0  C 5.00395612754789 0  0.127942533641431 5.43959645218769  0 12.2023367575911  L 0 12.4815244825994  L 0 20.2198707793523  L 2.47784879571429 17.4104678846155  C 4.49447031 20.2101698481782  7.56190277857149 22  11.0007130985714 22  C 16.9964162086253 22  21.8722064140471 16.5614304751513  22 9.79736300253035  L 22 9.53036436473718  L 22 1.78313170293529  L 19.5215807285714 4.59184704200402  C 17.5052444285714 1.79153813562749  14.4372415 0  10.9995721471429 0  Z M 14.9284186228571 9.79736300253035  L 18.8540699014648 9.79736428240943  C 18.7290709081143 14.5862533349571  15.2529956731763 18.43747798583  11.0007130985714 18.43747798583  C 8.43244434999997 18.43747798583  6.15369057285716 17.0337466649797  4.71952184000008 14.87010538917  L 7.07186660714285 12.2023367575911  L 3.14622235327647 12.2023368841924  C 3.27131431198711 7.41420037275554  6.74571301440062 3.56303017408896  10.9998573771428 3.56303017408896  C 13.5655589928572 3.56303017408896  15.8468798714287 4.96560956781383  17.281619142857 7.12897026012143  L 14.9284186228571 9.79736300253035  Z " fill-rule="nonzero" fill="#0079fe" stroke="none" transform="matrix(1 0 0 1 772 588 )" />
  </g>
</svg>