<?xml version="1.0" encoding="utf-8"?>
<svg version="1.1" xmlns:xlink="http://www.w3.org/1999/xlink" width="27px" height="22px" xmlns="http://www.w3.org/2000/svg">
  <g transform="matrix(1 0 0 1 -640 -588 )">
    <path d="M 26.9247880343751 10.9999696  C 26.9247880343751 5.35702594687501  22.4464551609375 0.75530589531246  16.7975303289063 0.412535089062544  C 20.5771153628907 2.48003573437501  23.1378775632812 6.44342374062501  23.1378775632812 10.9999696  C 23.1378775632812 15.5565762296874  20.5771153628907 19.518900978125  16.7975303289063 21.5869180375  C 22.4475016390625 21.2457269624999  26.9247880343751 16.6429740234374  26.9247880343751 10.9999696  Z M 10.8229007304687 21.62009239375  C 16.787003857422 21.6200923640625  21.6216359734375 16.8648955968749  21.6216359734375 10.9999696296875  C 21.6216359734375 5.13510440312507  16.7870346273437 0.379877265624941  10.8229007304687 0.379877265624941  C 4.85978251171878 0.379877265624941  0.0251811957031123 5.13510443281251  0.0251811957031123 10.9999696296875  C 0.0251811957031123 16.8648955968749  4.8597825417969 21.62009239375  10.8229007304687 21.62009239375  Z M 15.2749482402344 12.861558665625  C 15.5450043546875 12.8818217203125  15.7562107527344 12.9834408156249  15.9117069289063 13.166476721875  C 16.0662181667969 13.3495126281251  16.1544619414063 13.56836585  16.17440680625 13.8229756171875  C 16.1544619414063 14.0874587046875  16.066187366797 14.3083777015624  15.9117069289063 14.486218740625  C 15.7562107527344 14.66405975  15.5450351246094 14.762610553125  15.2749482402344 14.7833596812501  L 12.297098034375 14.7683522640624  L 12.297098034375 16.385721296875  C 12.2560694566406 17.2501672062501  11.7748685140625 17.6821319390625  10.8543878050781 17.6821319390625  C 10.3994106863282 17.6821319390625  10.0452660000001 17.5758344203124  9.7920460859375 17.362176065625  C 9.53771812382809 17.148487340625  9.40112033437504 16.8233973703125  9.38117546953129 16.385721296875  L 9.38117546953129 14.7989139421874  L 6.38648906328126 14.7989139421874  C 6.10803026367194 14.778711628125  5.8926071230469 14.66409015  5.74342067578129 14.4556570625  C 5.59315695039061 14.247649278125  5.50278941953127 14.0158848140625  5.47127160507819 13.7617914906249  C 5.5027894496094 13.5076981671875  5.59315698046873 13.2992347093751  5.74342067578129 13.1364011171875  C 5.8926071230469 12.9735978953125  6.10803026367194 12.88179135  6.38648906328126 12.8615282953124  L 9.38117546953129 12.8615282953124  L 9.38117546953129 11.9001417140625  L 6.38648906328126 11.885103896875  C 6.10803026367194 11.8643243984374  5.8926071230469 11.7679305406249  5.74342067578129 11.5952236281251  C 5.59315695039061 11.4220002718749  5.50278941953127 11.2032078203125  5.47127160507819 10.9387247328125  C 5.5027894496094 10.6846010390626  5.59315698046873 10.4761679515626  5.74342067578129 10.313334359375  C 5.8926071230469 10.1505311375  6.10803026367194 10.0593018062499  6.38648906328126 10.0385526484375  L 8.6204384492188 10.0385526484375  L 6.54198523945308 6.43819850312502  C 6.43798254257808 6.31631635312493  6.34025880468744 6.16074340312497  6.24675180937504 5.97299870312503  C 6.15426052226564 5.78476792968752  6.1122162363281 5.578917090625  6.12274267773444 5.35486900156252  C 6.17426695703125 5.06963678593752  6.27830042382811 4.8383887656251  6.43271932187508 4.66051738593757  C 6.58821549804691 4.48267637656255  6.87827804726555 4.36808526875006  7.30170655156246 4.31726050625002  C 7.54972478476566 4.33746282031245  7.77244259257816 4.42197829374993  7.96890577656245 4.56928802499993  C 8.16543053046871 4.71653698593752  8.32618992734376 4.87678832968754  8.4501682890625 5.04946487187505  L 10.8080960066407 9.29128012500013  L 13.3982522953125 5.01938926718748  C 13.5221998570313 4.84671275468753  13.6830208238282 4.69372208281254  13.8795148078125 4.56148053906259  C 14.0759779917969 4.428752921875  14.2987573695312 4.34782221406243  14.5467140328125 4.31723013593751  C 14.7022717789063 4.32707305624996  14.8441327890625 4.34779181406248  14.9733435714844 4.37786741874993  C 15.1015078757813 4.408975940625  15.2160678140625 4.45983104375  15.3148688300781 4.53140493437502  C 15.4125925679688 4.60240161093753  15.4955731218751 4.70408144687497  15.5628562933593 4.83632299062504  C 15.6301086949219 4.96801769062506  15.6784319398438 5.14118030625002  15.7099497542969 5.35535507499998  C 15.7099497542969 5.65046058124994  15.606993565625 5.92995108593749  15.3999731101562 6.194403803125  L 12.9958151339845 10.0390083515625  L 15.2760255183593 10.0390083515625  C 15.5450351246094 10.05927140625  15.7572880308594 10.1510172109375  15.9117069289063 10.313850803125  C 16.0662181667969 10.476654025  16.1544619414063 10.6851174828126  16.1754533144531 10.9392411765625  C 16.1544311714844 11.2042103375  16.064063640625 11.4277115828125  15.9043507218751 11.6107474890625  C 15.743591325 11.7932365515625  15.5292454324219 11.8949164171875  15.2602358261719 11.9156655453125  L 12.297098034375 11.9306425921875  L 12.297098034375 12.8614674953125  L 15.2749482402344 12.861467525  Z " fill-rule="nonzero" fill="#0079fe" stroke="none" transform="matrix(1 0 0 1 640 588 )" />
  </g>
</svg>