<?xml version="1.0" encoding="utf-8"?>
<svg version="1.1" xmlns:xlink="http://www.w3.org/1999/xlink" width="22px" height="22px" xmlns="http://www.w3.org/2000/svg">
  <g transform="matrix(1 0 0 1 -292 -443 )">
    <path d="M 21.8882229420382 10.9832686985869  C 21.8881938243911 4.97021289177394  17.0135068175551 0.0957877731502776  11.0003928323185 0.0957877731502776  C 4.98759891371782 0.0957877731502776  0.112882789234845 4.97021292020906  0.112882789234845 10.9832686985869  C 0.112882789234845 16.9965281867533  4.98759891371782 21.8709533053768  11.0003928323185 21.8709533053768  C 17.0135068175551 21.8709533053768  21.8882229420382 16.996528158318  21.8882229420382 10.9832686985869  Z M 20.2548694686351 10.9832977877987  C 20.2548403794232 16.0940853211167  16.1114131362017 20.2376289496208  11.0003928323185 20.2376289496208  C 5.88934341078811 20.2376289496208  1.74591619600182 16.0940853211167  1.74591619600182 10.9832977877987  C 1.74591619600182 5.87210289177392  5.88934341078811 1.72885024069399  11.0003928323185 1.72885024069399  C 16.1114131362017 1.72885024069399  20.2548694686351 5.87213198098573  20.2548694686351 10.9832977877987  Z M 15.8019276654412 7.09633960449219  C 16.2541384300322 7.09633963292743  16.6216160454963 7.46381724839159  16.6216160454963 7.91547511891076  C 16.6216160454963 8.13504802533316  16.5359517856733 8.34103217514939  16.381005354722 8.49548391888777  L 10.2456219051585 14.6306055086742  C 10.0913156359146 14.7851736661305  9.88547696059283 14.8706051553883  9.66680610409009 14.8706051553883  C 9.44845531422334 14.8706051553883  9.24322771139708 14.7851736661305  9.08831036965762 14.6311874919577  L 5.61946021484374 11.1623081910616  C 5.4651539455997 11.0086420835248  5.37975157398898 10.8026288160617  5.37975157398898 10.583201412569  C 5.37975157398898 10.1315726028263  5.74722918945315 9.76409501579724  6.19856699333639 9.76409501579724  C 6.41752882726331 9.76409501579724  6.62368759765627 9.84952650505522  6.77828481588926 10.0045893212891  L 9.66683519330195 12.8926450399242  L 15.2231118643727 7.33633925120637  C 15.3786402501723 7.18142193790209  15.5841879480699 7.09633960449219  15.8019276654412 7.09633960449219  Z " fill-rule="nonzero" fill="#0079fe" stroke="none" transform="matrix(1 0 0 1 292 443 )" />
  </g>
</svg>