<?xml version="1.0" encoding="utf-8"?>
<svg version="1.1" xmlns:xlink="http://www.w3.org/1999/xlink" width="25px" height="22px" xmlns="http://www.w3.org/2000/svg">
  <g transform="matrix(1 0 0 1 -769 -296 )">
    <path d="M 13.1623932698412 7.49535804159996  L 13.1623906507937 10.62660456  C 13.9704697698413 10.6257739280001  20.3711671428572 10.6191601119999  20.3947980238096 10.618045416  C 20.5895538968255 10.6101832320001  20.8119226507937 10.62848204  21.0417329047619 10.6991852  C 21.565369047619 10.860286536  21.9370850634921 11.258345736  21.9350443015874 11.815173744  C 21.9433149047619 11.911589008  21.9420873571429 15.615329224  21.9420873571429 15.615329224  L 23.8204357460318 15.615329224  C 24.1650662698413 15.615329224  24.4444444444445 15.899943224  24.4444444444445 16.237067704  L 24.4444444444445 21.239722504  C 24.4444444444445 21.583099208  24.1656292777778 21.861460984  23.8204357460318 21.861460984  L 18.1738662460318 21.861460984  C 17.8292357222223 21.861460984  17.549857547619 21.576846984  17.549857547619 21.239722504  L 17.549857547619 16.237067704  C 17.549857547619 15.893691  17.8286727142857 15.615329224  18.1738662460318 15.615329224  L 20.0786815079365 15.615329224  C 20.0796220079365 15.393189768  20.0912233412698 12.481600296  20.0531671825397 12.4828088  C 20.0531671825397 12.4828088  13.9506432301587 12.4880599359999  13.1623931825397 12.483826256  L 13.1623931825397 15.615329224  L 11.2820512619047 15.615329224  L 11.2820513492064 12.4828088  L 4.40670697936514 12.4828088  C 4.36865079444442 12.481600296  4.3802521015873 15.393189768  4.38119259285713 15.615329224  L 6.27057820714288 15.615329224  C 6.61520868730156 15.615329224  6.89458689682544 15.899943224  6.89458689682544 16.237067704  L 6.89458689682544 21.239722504  C 6.89458689682544 21.583099208  6.6157716952381 21.861460984  6.27057820714288 21.861460984  L 0.624008688809568 21.861460984  C 0.279378206031765 21.861460984  0 21.576846984  0 21.239722504  L 0 16.237067704  C 0 15.893691  0.278815197222229 15.615329224  0.624008688809568 15.615329224  L 2.5177867611111 15.615329224  C 2.5177867611111 15.615329224  2.51655922222221 11.911589008  2.52482984285712 11.815173744  C 2.52278906349204 11.258345736  2.89450503571425 10.860286536  3.41814123095241 10.6991852  C 3.64795145873018 10.62848204  3.8703202126984 10.6101832320001  4.0650761206349 10.618045416  C 4.09029937380956 10.6192351760001  4.09029937380956 10.6192351760001  4.10325836904758 10.620146856  L 11.2820513492064 10.625664192  L 11.2820513492064 7.49535804159996  L 8.77399006349208 7.49535804159996  C 8.42834712063495 7.49535804159996  8.14814814523811 7.21068374399999  8.14814814523811 6.86920001680005  L 8.14814814523811 0.62615802303992  C 8.14814814523811 0.280340495599944  8.4192516222223 0  8.77399006349208 0  L 15.6704543809524 0  C 16.0160973412699 0  16.2962963253968 0.284674295839977  16.2962963253968 0.62615802303992  L 16.2962963253968 6.86920001680005  C 16.2962963253968 7.21501755039992  16.0251928571429 7.49535804159996  15.6704543809524 7.49535804159996  L 13.1623932698412 7.49535804159996  Z M 8.77492881746036 21.239722504  L 8.77492881746036 16.237067704  C 8.77492881746036 15.893691  9.05374398412698 15.615329224  9.39893742857146 15.615329224  L 15.045507015873 15.615329224  C 15.3901374523809 15.615329224  15.6695156269841 15.899943224  15.6695156269841 16.237067704  L 15.6695156269841 21.239722504  C 15.6695156269841 21.583099208  15.3907004603175 21.861460984  15.045507015873 21.861460984  L 9.39893742857146 21.861460984  C 9.05430699206352 21.861460984  8.77492881746036 21.576846984  8.77492881746036 21.239722504  Z " fill-rule="nonzero" fill="#0079fe" stroke="none" transform="matrix(1 0 0 1 769 296 )" />
  </g>
</svg>