<?xml version="1.0" encoding="utf-8"?>
<svg version="1.1" xmlns:xlink="http://www.w3.org/1999/xlink" width="26px" height="19px" xmlns="http://www.w3.org/2000/svg">
  <g transform="matrix(1 0 0 1 -594 -590 )">
    <path d="M 24.2524620877239 18.2506860408976  L 23.9632976486554 18  L 8.39445697798737 18  L 7.58112603818063 18.2506860667538  L 1.6264311776755 18.2506860667538  C 0.728229829400107 18.2506860667538  0 17.7978439649451  0 16.8697492060414  L 0 15.1877378462304  L 0 13.5058852174777  L 0 11.823953236124  C 1.34772497596623 11.823953236124  2.29506455950377 10.6938721064082  2.29506455950377 9.30108171496045  C 2.29506455950377 7.90733880788116  1.34772500101531 6.7782630955312  0 6.7782630955312  L 0 5.09622525899681  L 0 3.41434617937716  L 0 1.84520798657468  C 0 0.915525684380555  0.728229804351031 0.200926836472036  1.6264311776755 0.200926836472036  L 7.5811260632297 0.200926836472036  L 8.39445700303645 0.200926836472036  L 23.9632976737045 0.200926836472036  C 24.8614477715821 0.200926836472036  25.5897288513802 0.915525684380555  25.5897288513802 1.84520798657468  L 25.5897288513802 4.25512696227247  L 25.5897288513802 5.09625170986396  L 25.5897288513802 6.77818369121769  C 24.242132026458 6.77818369121769  23.439259298961 7.90733875616888  23.439259298961 9.30110813997135  C 23.439259298961 10.6938985314189  24.242132026458 11.8239796611349  25.5897288513802 11.8239796611349  L 25.5897288513802 13.5059116424886  L 25.5897288513802 16.0287302619181  L 25.5897288513802 16.8697491801852  C 25.5897288513802 17.7978704158122  25.1506121856016 18.2506860408976  24.2524620877239 18.2506860408976  Z M 24.2524620626749 13.1510993757227  C 22.8173546322205 12.5007424700104  21.8128537715335 11.0239454176144  21.8128537715335 9.30108168910442  C 21.8128537715335 7.5772389940953  22.8173290070216 6.09972756143952  24.2524620626749 5.45093172229463  L 24.2524620626749 2.4039116812728  C 24.2524620626749 1.93918959786174  23.8886547505587 1.56302506905331  23.439259298961 1.56302506905331  L 8.80091739620093 1.56302504319729  L 8.80091739620093 2.99388963490583  C 8.80091739620093 3.22537753943698  8.61910345338845 3.41437263024432  8.39430320174472 3.41437263024432  L 7.58115168842869 3.41437263024432  C 7.35650521302784 3.41437263024432  7.17448621852543 3.22537753943698  7.17448621852543 2.99388963490583  L 7.17448621852543 1.56302504319729  L 2.11430155043718 1.56302504319729  C 1.66477792274668 1.56302504319729  1.3010987867234 1.93921604872889  1.3010987867234 2.40391165541678  L 1.3010987867234 5.4509316964386  C 2.73620621717782 6.09970108471612  3.9214957121302 7.57723896823927  3.9214957121302 9.30108166324817  C 3.9214957121302 11.0241305995401  2.73623184237681 12.5007424441544  1.3010987867234 13.1510993498664  L 1.3010987867234 16.0664869483498  C 1.3010987867234 16.530547553235  1.66493172403864 16.9073735605693  2.11430155043718 16.9073735605693  L 7.17446059332644 16.9073735864256  L 7.17446059332644 15.6081943648458  C 7.17446059332644 15.3757803955498  7.35647958782897 15.1877113695073  7.5811260632297 15.1877113695073  L 8.39445700303645 15.1877113695073  C 8.61910347843741 15.1877113695073  8.801071197493 15.3757803955498  8.801071197493 15.6081943648458  L 8.801071197493 17  L 23.439259298961 17  C 23.8886547505587 16.9073735864256  24.2524620626749 16.5305211282243  24.2524620626749 16.0664869742061  L 24.2524620626749 13.1510993757227  Z M 8.39445697798737 13.5058852174777  L 7.58112603818063 13.5058852174777  C 7.3564795627799 13.5058852174777  7.17446056827737 13.3169430284045  7.17446056827737 13.0853757712723  L 7.17446056827737 10.5624248716515  C 7.17446056827737 10.3299844514886  7.3564795627799 10.1419154254461  7.58112603818063 10.1419154254461  L 8.39445697798737 10.1419154254461  C 8.61910345338845 10.1419154254461  8.80107117244393 10.3299844514886  8.80107117244393 10.5624248716515  L 8.80107117244393 13.0853757712723  C 8.80091739620093 13.3169430284045  8.61907782818923 13.5058852174777  8.39445697798737 13.5058852174777  Z M 8.39445697798737 8.46000986910303  L 7.58112603818063 8.46000986910303  C 7.3564795627799 8.46000986910303  7.17446056827737 8.27106768002977  7.17446056827737 8.03957980135488  L 7.17446056827737 5.51670828019155  C 7.17446056827737 5.28429431089558  7.3564795627799 5.09622528485306  7.58112603818063 5.09622528485306  L 8.39445697798737 5.09622528485306  C 8.61910345338845 5.09622528485306  8.80107117244393 5.28429431089558  8.80107117244393 5.51670828019155  L 8.80107117244393 8.03957980135488  C 8.80091739620093 8.27106768002977  8.61907782818923 8.46000986910303  8.39445697798737 8.46000986910303  Z " fill-rule="nonzero" fill="#0079fe" stroke="none" transform="matrix(1 0 0 1 594 590 )" />
  </g>
</svg>