<?xml version="1.0" encoding="utf-8"?>
<svg version="1.1" xmlns:xlink="http://www.w3.org/1999/xlink" width="21px" height="29px" xmlns="http://www.w3.org/2000/svg">
  <g transform="matrix(1 0 0 1 -1205 -488 )">
    <path d="M 20.9150924782758 23.0476190542389  C 20.9150924508788 23.5221288669647  20.5811110812893 23.7254901914446  20.2471297116998 23.7254901914446  C 19.9131483421103 23.7254901914446  17.5752787001897 23.7254901914446  17.5752787001897 23.7254901914446  L 17.5752787001897 26.7759103644767  L 17.5752787001897 27.1148459330796  L 17.5752787001897 27.4537815016824  C 17.5752787001897 27.9960784225683  17.1077047663263 28.4705882352941  16.5733345640242 28  L 4.55000506702282 28  C 4.0156348921177 28.4705882352941  3.54806095825427 27.9960784225683  3.54806095825427 27.4537815016824  L 3.54806095825427 27.1148459330796  L 3.54806095825427 26.7759103644767  L 3.54806095825427 23.7254901914446  C 3.54806095825427 23.7254901914446  1.07659877945667 23.7254901914446  0.876209946744211 23.7254901914446  C 0.675821114031749 23.7254901914446  0.208247207565194 23.5221288391614  0.208247207565194 23.0476190542389  C 0.208247207565194 22.5731092415131  0.876209946744211 6.57535015879017  0.876209946744211 6.10084034606433  C 0.876209946744211 5.62633053333826  1.94495035134827 4.06722690664395  2.88009819167826 3.38935574163492  C 3.81524603200836 2.71148457662608  5.55194920318837 2.03361343942035  5.55194920318837 2.03361343942035  L 8.22380021469837 0  L 12.8995394711425 0  L 15.5713904826526 2.03361343942035  C 15.5713904826526 2.03361343942035  17.5084824591481 2.77927171258912  18.2432414941626 3.38935574163492  C 18.9780005291771 3.99943977068068  20.2471297390967 6.10084034606433  20.2471297390967 6.10084034606433  C 20.2471297390967 6.10084034606433  20.9150924782758 22.5731092415131  20.9150924782758 23.0476190542389  Z M 5.55194920318837 5.42296920885855  L 5.55194920318837 3.52492998575815  C 5.15117156516033 3.59271712172119  4.68359763129678 3.79607844620108  4.21602369743329 4.06722690664395  C 3.21407958866473 4.67731093568977  2.21213545249924 5.82969188562117  2.21213545249924 6.10084034606433  C 2.21213545249924 6.37198880650726  1.54417271332022 21.3529411834214  1.54417271332022 21.6918767520243  C 1.54417271332022 22.0308123206272  1.81135781447119 22.3697478892298  2.21213545249924 22.3697478892298  C 2.61291309052729 22.3697478892298  3.54806095825427 22.3697478892298  3.54806095825427 22.3697478892298  C 3.54806095825427 22.3697478892298  3.54806095825427 13.0151260456538  3.54806095825427 12.2016806643251  C 3.54806095825427 11.3882352829963  4.88398646400924 11.5238095271193  4.88398646400924 12.2016806643251  C 4.88398646400924 12.8795518015309  4.88398646400924 25.9624649553447  4.88398646400924 26.4369747680705  C 4.88398646400924 26.9114845807966  5.0843752967217 27.1148459052763  5.55194920318837 27.1148459052763  C 5.68554174006533 27.1148459052763  6.82107844050483 27.1148459052763  8.22380021469837 27.1148459052763  L 8.22380021469837 14.9131652687545  L 9.5597257204534 12.2016806643251  L 5.55194923058531 8.13445378548465  L 6.88787473634034 6.10084034606433  L 5.55194920318837 5.42296920885855  Z M 9.5597257204534 8.13445378548465  L 7.55583744812242 2.03361346722363  L 6.88787470894334 2.71148460442916  L 6.88787470894334 4.74509804384951  L 8.22380021469837 6.10084034606433  L 6.88787470894334 8.13445378548465  L 10.2276884596325 10.8459383899138  L 9.5597257204534 8.13445378548465  Z M 12.6323543425946 1.35574230221459  L 8.4909853158494 1.3557423300179  L 10.2276884596325 6.10084034606433  L 10.8956511988115 6.10084034606433  L 12.6323543425946 1.35574230221459  Z M 14.2354649495007 4.74509807165282  L 14.2354649495007 2.44033617178957  C 13.9682798483496 2.2369748195066  13.7010947471986 2.03361349502694  13.4339096460477 1.83025214274397  L 13.5675022103216 2.03361346722363  L 10.8956511988115 8.13445378548465  L 10.8956511988115 11.5238095271193  L 14.2354649495007 8.13445378548465  L 12.8995394437457 6.10084034606433  L 12.8995394437457 5.42296920885855  L 14.2354649495007 4.74509807165282  Z M 19.5791669451238 21.6918767798276  C 19.5791669451238 21.0140056148186  19.1783893070958 7.59215689240187  18.9112042059448 6.10084034606433  C 18.6440191047938 4.60952382752981  15.7717792879681 3.38935574163492  15.5713904552557 3.38935574163492  L 15.5713904552557 4.74509804384951  L 14.2354649495007 6.10084034606433  L 15.5713904552557 7.45658264827887  L 15.5713904552557 8.13445378548465  L 9.5597257204534 14.9131652687545  L 9.5597257204534 27.1148459330796  C 12.2315767319634 27.1148459330796  15.3042053541046 27.1148459330796  15.5713904552557 27.1148459330796  C 15.9721680932837 27.1148459330796  16.2393531944347 26.9792717167597  16.2393531944347 26.4369747958738  C 16.2393531944347 25.894677874988  16.2393531944347 12.9473389652972  16.2393531944347 12.2016806921284  C 16.2393531944347 11.4560224189597  17.5752787001897 11.5238095549227  17.5752787001897 12.2016806921284  C 17.5752787001897 12.8795518293341  17.5752787001897 22.3697479170331  17.5752787001897 22.3697479170331  C 17.5752787001897 22.3697479170331  18.7108153732323 22.3697479170331  18.9112042059448 22.3697479170331  C 19.1115930386572 22.3697479170331  19.5791669451238 22.3697479170331  19.5791669451238 21.6918767798276  Z M 11.5636139379906 23.725490219248  C 11.5636139653876 24.1322128960105  11.2964288642365 24.4033613564534  10.8956511988115 24.4033613564534  C 10.4948735607834 24.4033613564534  10.2276884596325 24.1322128960105  10.2276884596325 23.725490219248  C 10.2276884596325 23.3187675424851  10.4948735607834 23.0476190820422  10.8956511988115 23.0476190820422  C 11.2964288368395 23.0476190820422  11.5636139379906 23.3187675424851  11.5636139379906 23.725490219248  Z M 11.5636139379906 20.336134477613  C 11.5636139653876 20.7428571543757  11.2964288642365 21.0140056148186  10.8956511988115 21.0140056148186  C 10.4948735607834 21.0140056148186  10.2276884596325 20.7428571543757  10.2276884596325 20.336134477613  C 10.2276884596325 19.9294118008502  10.4948735607834 19.6582633404073  10.8956511988115 19.6582633404073  C 11.2964288368395 19.6582633404073  11.5636139379906 19.9294118008502  11.5636139379906 20.336134477613  Z M 11.5636139379906 16.9467787359779  C 11.5636139653876 17.3535014127407  11.2964288642365 17.6246498731837  10.8956511988115 17.6246498731837  C 10.4948735607834 17.6246498731837  10.2276884596325 17.3535014127407  10.2276884596325 16.9467787359779  C 10.2276884596325 16.5400560592153  10.4948735607834 16.2689075987724  10.8956511988115 16.2689075987724  C 11.2964288368395 16.2689075987724  11.5636139379906 16.5400560592153  11.5636139379906 16.9467787359779  Z " fill-rule="nonzero" fill="#0079fe" stroke="none" transform="matrix(1 0 0 1 1205 488 )" />
  </g>
</svg>