<?xml version="1.0" encoding="utf-8"?>
<svg version="1.1" xmlns:xlink="http://www.w3.org/1999/xlink" width="22px" height="17px" xmlns="http://www.w3.org/2000/svg">
  <g transform="matrix(1 0 0 1 -337 -641 )">
    <path d="M 19.0603448275862 6.27840909090901  C 19.5028735632184 5.82765151515173  19.7241379310345 5.280303030303  19.7241379310345 4.63636363636374  C 19.7241379310345 3.99242424242425  19.5028735632184 3.44507575757575  19.0603448275862 2.99431818181824  C 18.617816091954 2.54356060606051  18.080459770115 2.31818181818176  17.448275862069 2.31818181818176  L 16.6896551724138 2.31818181818176  L 16.6896551724138 6.95454545454527  L 17.448275862069 6.95454545454527  C 18.080459770115 6.95454545454527  18.617816091954 6.72916666666674  19.0603448275862 6.27840909090901  Z M 0.889008620689637 16.0944602272727  C 0.296336206896555 15.4907670454547  0 14.7623106060605  0 14  L 21.2413793103448 14  C 21.2413793103448 14.7623106060605  20.9450431034483 15.4907670454547  20.3523706896552 16.0944602272727  C 19.7596982758621 16.698153409091  19.044540229885 17  18.2068965517241 17  L 3.03448275862068 17  C 2.19683908045977 17  1.48168103448276 16.698153409091  0.889008620689637 16.0944602272727  Z M 20.6664870689655 1.35830965909099  C 21.5554956896552 2.26384943181824  22 3.35653409090901  22 4.63636363636374  C 22 5.91619318181824  21.5554956896552 7.00887784090901  20.6664870689655 7.91441761363626  C 19.7774784482759 8.81995738636374  18.7047413793103 9.27272727272725  17.448275862069 9.27272727272725  L 16.6896551724138 9.27272727272725  L 16.6896551724138 9.65909090909099  C 16.6896551724138 10.3996212121212  16.4288793103448 11.0355113636363  15.9073275862069 11.5667613636363  C 15.385775862069 12.0980113636363  14.7614942528736 12.3636363636363  14.0344827586207 12.3636363636363  L 5.68965517241379 12.3636363636363  C 4.96264367816092 12.3636363636363  4.33836206896552 12.0980113636363  3.81681034482756 11.5667613636363  C 3.29525862068964 11.0355113636363  3.03448275862068 10.3996212121212  3.03448275862068 9.65909090909099  L 3.03448275862068 0.772727272727252  C 3.03448275862068 0.563446969696997  3.10955459770116 0.382339015151501  3.25969827586208 0.229403409090992  C 3.40984195402299 0.0764678030302548  3.58764367816092 0  3.79310344827587 0  L 17.448275862069 0  C 18.7047413793103 0  19.7774784482759 0.45276988636374  20.6664870689655 1.35830965909099  Z " fill-rule="nonzero" fill="#0079fe" stroke="none" transform="matrix(1 0 0 1 337 641 )" />
  </g>
</svg>