<?xml version="1.0" encoding="utf-8"?>
<svg version="1.1" xmlns:xlink="http://www.w3.org/1999/xlink" width="22px" height="22px" xmlns="http://www.w3.org/2000/svg">
  <g transform="matrix(1 0 0 1 -24 -443 )">
    <path d="M 10.99998752 0.0749521325000444  C 4.96640628124999 0.0749521325000444  0.0744670700000825 4.96616708937509  0.0744670700000825 11.000024935625  C 0.0744670700000825 17.033882781875  4.96640625687496 21.92509773875  10.99998752 21.92509773875  C 17.034092601875 21.92509773875  21.92550797 17.03385784625  21.92550797 11.000024935625  C 21.92550797 4.96614215374998  17.034092601875 0.0749521325000444  10.99998752 0.0749521325000444  Z M 10.99998752 19.4258750956249  C 6.34651402812494 19.4258750956249  2.57431595562502 15.6533077662499  2.57431595562502 11.000024935625  C 2.57431595562502 6.34619335062496  6.34651402812494 2.57417477562498  10.99998752 2.57417477562498  C 15.654009790625 2.57417477562498  19.426731681875 6.34621828625006  19.426731681875 11.000024935625  C 19.426731681875 15.6533077662499  15.654009790625 19.4258750956249  10.99998752 19.4258750956249  Z M 13.3812872567831 12.5676602014358  L 13.3772941113282 9.67674735853046  L 13.3772941113282 5.22941607211894  C 13.3772941113282 5.12589468811007  13.3132480078125 5.02185567492489  13.1858109450221 4.94268767257893  C 13.0583738822318 4.8635455681306  12.8915981986381 4.82423331784904  12.7247913597973 4.82423331784904  L 10.4616837562024 4.82423331784904  C 10.2948769173618 4.82423331784904  10.12741493428 4.8635455681306  9.9999778714897 4.94268767257893  C 9.87257199443093 5.02239915141703  9.80918103515626 5.12589466281906  9.80918103515626 5.22941607211894  L 9.80918106564081 9.7093824529374  L 9.82384335897905 12.5626393982263  C 9.82452965846699 12.6661608075263  9.88792064822633 12.7690869445383  10.0146713810442 12.8482549468844  C 10.1414532995935 12.9268535748404  10.3075738389464 12.9667093269051  10.4736943782992 12.9672528033971  L 12.7254776897699 12.9739040613739  C 12.8929396728515 12.9744734357638  13.0610567696896 12.9346176836993  13.1891489462363 12.8554755792511  C 13.3172723085146 12.7763076021959  13.3812872262986 12.671699214621  13.3812872567831 12.5676602014358  Z M 13.3812872262986 16.4569861722973  L 13.3812872262986 15.158239918919  C 13.3812872262986 14.9589575130913  13.3172411227829 14.759009616554  13.1898040599925 14.6074431807431  C 13.0623669667177 14.4551447246621  12.8949050141206 14.3790121127533  12.7274430310389 14.3790121127533  L 10.462370086175 14.3790121127533  C 10.2949081030933 14.3790121127533  10.1281012337679 14.4551447246621  10.0000090572213 14.6074431807431  C 9.87260318016251 14.759009616554  9.80921222088796 14.9589907778717  9.80921222088796 15.158239918919  L 9.80921222088796 16.4569861722973  C 9.80921222088796 16.6562685781251  9.87260318016251 16.8562164746622  10.0000090572213 17.0077829104731  C 10.1281012642525 17.160081366554  10.2949081030933 17.2362139784628  10.462370086175 17.2362139784628  L 12.7274430310389 17.2362139784628  C 12.8942186841481 17.2362139784628  13.0623669972023 17.160081366554  13.1898040599925 17.0077829104731  C 13.3172411227829 16.8562164746622  13.3812872262986 16.6562353133445  13.3812872262986 16.4569861722973  Z " fill-rule="nonzero" fill="#0079fe" stroke="none" transform="matrix(1 0 0 1 24 443 )" />
  </g>
</svg>