<?xml version="1.0" encoding="utf-8"?>
<svg version="1.1" xmlns:xlink="http://www.w3.org/1999/xlink" width="26px" height="23px" xmlns="http://www.w3.org/2000/svg">
  <g transform="matrix(1 0 0 1 -986 -491 )">
    <path d="M 19.153789279107 19.8655029052735  C 19.0920600088161 19.1044906031799  19.1413448099772 18.3343389956665  19.1413448099772 17.3305373995972  C 19.7841935514322 18.1136533151245  20.3694031612142 17.8549505882263  20.9488981823731 17.5861742407226  C 22.1054805349393 17.0497602780152  24.23490791097 16.2255614303589  24.4066069047038 15.9509452705384  C 24.5783058984375 15.6763291107177  24.4096237242296 15.1712748562623  24.30357005778 14.7373200071716  C 24.1975164196778 14.303365158081  23.2569284292263 11.520383740387  22.6980001555718 9.73048791366575  C 21.9330272725423 7.28078334823608  21.2071573291015 4.81831883483889  20.4979960750326 2.35156207565305  C 20.3072387293837 1.68801587646489  19.9278416768392 1.38609870391842  19.2728965444607 1.22871632980348  C 17.7914813675944 0.87269350814816  14.0984298235406 -0.043277666778522  13.8107273822699 0.124645514068661  C 13.5230249409993 0.292539504699718  13.381146291097 1.10570114074707  13.2942379748535 1.64596938186648  C 13.0177906858995 3.36456135757443  12.7249248152669 5.08049625320437  12.2760532916938 6.79756988113404  C 11.9893371428765 5.08078824096674  11.6959200846354 3.36511614288335  11.4198209022352 1.64661176635745  C 11.333028640408 1.1062851448059  11.1080127341037 0.279341589355525  10.9053910780165 0.124645542602522  C 10.7027694219292 -0.0300505041503669  10.296597872857 0.124645542602522  9.7614562472873 0.224418357391315  C 9.22631462171762 0.324161981964068  7.09590098158088 0.866795315399187  5.68926873060434 1.15776290405276  C 4.78235917046442 1.34533697830196  4.35782548258464 1.80253417312626  4.10673126451286 2.67365576522828  C 3.49788003214519 4.78611243911743  2.30109242146813 8.45767639129645  1.38147731228298 11.3989161463928  C 0.0737047146267287 15.5816953433227  0.102016634521476 15.791489820404  0.309627695041286 15.9509160803223  C 0.767578733317123 16.3025882757569  2.96970042426216 17.2197857821655  4.32208752577043 17.8044948289489  C 4.75639694146054 17.9922732917785  5.34917769870333 17.6763406210327  5.62733646430121 17.085645810852  C 5.62733646430121 18.0441014477539  5.61297743747286 19.2141327070618  5.56467895711268 20.0338933007813  C 5.51939729627816 20.8024681515503  5.87776349704319 21.2321307263184  6.55913499104815 21.4110911187744  C 7.37423388549803 21.6251778416443  8.66231000203453 21.7997583891297  9.85764721598309 21.9129919168091  C 10.8992704406738 22.0116551895142  11.7404766179742 21.8564043574524  12.1859251599121 21.3274360969544  C 12.2399092578125 21.2457666375733  12.2965040698243 21.1601553005981  12.3569279688856 21.0687625602722  C 12.4835193550618 21.2594901194764  12.5931700280762 21.4246978112794  12.6955396329753 21.5789558621216  C 13.0709626013183 21.8916766389465  13.7970645968967 21.9895515475464  15.5301251510959 21.8269717741395  C 16.6241660225423 21.7243374621582  17.1325911787923 21.6662315264893  17.9206835245768 21.5035933726501  C 18.8046476752387 21.3211583172608  19.2313279729546 20.8213014335632  19.153789279107 19.8655029052735  Z M 14.8181211024306 1.05726004852292  C 16.2583157576498 1.3971650486755  17.7021364472114 1.72214939712518  19.1482487437608 2.03562937637325  C 19.5193785207791 2.11607250427251  19.6521196287705 2.37258530868527  19.7454677178277 2.68489730834956  C 20.9670282406955 6.77240035339351  22.1808436195204 10.8622685192872  23.4176914344618 14.9450705413818  C 23.5566692342122 15.4035525051879  23.4529652586534 15.6341366365051  23.0271261995442 15.8063812818908  C 22.261312077908 16.1161237721252  21.4957590361871 16.4317936453247  20.7534705110677 16.7935394898986  C 20.2015621972656 17.0624910357666  19.9366021127659 16.9515934101867  19.7892119269477 16.3391161930847  C 19.528109928928 15.254112295227  19.2130528324381 14.1821311428833  18.9136311345758 13.1066460803222  C 18.8015148012967 12.7039049313355  18.6699920095486 12.306653169403  18.3994333624946 11.9261323947143  C 18.3994333624946 13.6018603215027  18.3995784163412 15.2776174385071  18.3993753352864 16.9533453367615  C 18.3992593092177 17.8994206126404  18.3771261105686 18.8461674632264  18.4062212418619 19.7913083953858  C 18.4238291687011 20.3632283039856  18.1577667656792 20.6407351512146  17.6395368821886 20.7389896182251  C 16.406837233073 20.9727272344971  15.1657542540148 21.1094367437744  13.9088908508301 21.1245617840576  C 13.4719126654731 21.1298175923157  13.0730801833768 21.1387232904053  12.3890109202745 19.2734941644287  C 11.4920801406521 21.1710173423767  11.2256116605631 21.2772723254394  9.34310133734806 21.0677406459046  C 8.60867401068799 20.9859835873413  7.87917803290475 20.8592017190552  7.14733242092558 20.7537351000977  C 6.53813311035157 20.6659338406372  6.29455198418503 20.3359856716919  6.3020070772298 19.6970249961853  C 6.32907165310331 17.3751826509095  6.31172480617948 15.0528147105407  6.31114461914064 12.7306511587524  C 6.31108659193256 12.4594804716491  6.31114461914064 12.1882805943298  6.14681366346571 11.8997073452759  C 5.74194745727539 13.3509829122925  5.30375095567496 14.7939951657104  4.94674815334741 16.2570963084411  C 4.77609345092776 16.9565280404664  4.49021851236978 17.0775576956177  3.8765229294163 16.7740053858947  C 3.16176308444551 16.4204644744873  2.42545022786459 16.1086488511658  1.68733886800135 15.8063228729248  C 1.26350136488179 15.632735106659  1.15709962022567 15.4063848121643  1.29662863593205 14.9459173144531  C 2.53367950358069 10.8631152923584  3.74752388183595 6.77321793624878  4.9666187160916 2.68492652709956  C 5.07191817057287 2.33179439285277  5.24924472629118 2.10135624114992  5.64952766181096 2.0178180372619  C 7.04220704806858 1.72725925430296  8.43186955810552 1.41848032653805  9.81282965942381 1.07635618515016  C 10.3322488880751 0.947676410675015  10.5065586242676 1.07702775985717  10.5917264360894 1.61417170623784  C 11.0759588104926 4.66791500534055  11.5974666217719 7.71567254104613  12.1099819166395 10.7648316351318  C 12.1661996226671 11.0993932278443  12.2458558985731 11.4299545910644  12.4251550391981 11.7645161837768  C 12.8847595269096 9.03058899551385  13.3444510696071 6.29669102600097  13.80393953125 3.562763837738  C 13.9177963689507 2.88540652893069  14.0561070400661 2.2109399075318  14.1359663686795 1.52955312194821  C 14.190327572564 1.06581534988406  14.3855521628147 0.955151303100564  14.8181211024306 1.05726004852292  Z M 13.75 15.125  L 11.9166666666667 15.125  L 13.75 15.125  Z M 13.75 17.4166666666667  L 11.9166666666667 17.4166666666667  L 13.75 17.4166666666667  Z " fill-rule="nonzero" fill="#0079fe" stroke="none" transform="matrix(1 0 0 1 986 491 )" />
  </g>
</svg>