<?xml version="1.0" encoding="utf-8"?>
<svg version="1.1" xmlns:xlink="http://www.w3.org/1999/xlink" width="22px" height="22px" xmlns="http://www.w3.org/2000/svg">
  <g transform="matrix(1 0 0 1 -337 -587 )">
    <path d="M 21.6401721664276 15.0313886178862  L 21.6401721664276 4.22428617886177  C 21.6401721664276 1.89380162601631  19.8059340028694 0.00322601626018582  17.5432608321377 0  L 4.43146284074606 0  C 2.16952195121956 0.00322601626018582  0.334551506456251 1.89304715447147  0.334551506456251 4.22428617886177  L 0.334551506456251 17.7334113821139  C 0.334551506456251 20.0638959349593  2.16878967001435 21.9544715447155  4.43146284074606 22  L 17.5432608321377 22  C 19.5591299856528 21.9544715447155  21.2358266857963 20.4534894308944  21.5768424677188 18.4767739837399  C 20.490793687231 17.9953951219511  15.7807104734577 15.9003837398374  13.3283512195122 14.6918504065042  C 11.4620694404591 17.0213203252033  9.50680286944049 18.419043902439  6.55959827833573 18.419043902439  C 3.61239368723096 18.419043902439  1.64568837876612 16.5511284552846  1.88279598278336 14.2608390243902  C 2.03841836441893 12.757619512195  3.03879024390244 10.3034536585366  7.38184906743192 10.7255674796748  C 9.6708843615495 10.9480585365854  10.7190817790531 11.387993495935  12.5876866571018 12.0217495934959  C 13.0678611190818 11.1100097560976  13.470944045911 10.1058341463414  13.7735276901005 9.03700813008126  L 5.4972097560975 9.03700813008126  L 5.4972097560975 8.19272845528448  L 9.5914949784792 8.19272845528448  L 9.5914949784792 6.67304065040656  L 4.59635236728838 6.67304065040656  L 4.59635236728838 5.74433821138214  L 9.5914949784792 5.74433821138214  L 9.5914949784792 3.55504390243897  C 9.5914949784792 3.55504390243897  9.63856298421814 3.2114991869918  10.0040723098996 3.2114991869918  L 12.0526921090387 3.2114991869918  L 12.0526921090387 5.74433821138214  L 17.3790783357246 5.74433821138214  L 17.3790783357246 6.67304065040656  L 12.0526668579627 6.67304065040656  L 12.0526668579627 8.19272845528448  L 16.3957256814921 8.19272845528448  C 15.9975414634146 9.86913821138219  15.3928034433285 11.4069593495934  14.6333773314204 12.7528065040652  C 15.8966886657102 13.2223479674796  21.6401721664276 15.0313886178862  21.6401721664276 15.0313886178862  Z M 6.23459167862268 16.9731902439025  C 3.12067948350074 16.9731902439025  2.6290410329986 14.9469138211382  2.79292051649929 14.1026341463414  C 2.95679999999999 13.2583544715447  3.85821291248203 12.1607804878048  5.58930043041602 12.1607804878048  C 7.57991850789097 12.1607804878048  9.35969010043038 12.6840715447155  11.4988855093257 13.757580487805  C 9.99836556671443 15.7722796747968  8.15122410329985 16.9731902439025  6.23461692969875 16.9731902439025  Z " fill-rule="nonzero" fill="#0079fe" stroke="none" transform="matrix(1 0 0 1 337 587 )" />
  </g>
</svg>