<?xml version="1.0" encoding="utf-8"?>
<svg version="1.1" xmlns:xlink="http://www.w3.org/1999/xlink" width="23px" height="22px" xmlns="http://www.w3.org/2000/svg">
  <g transform="matrix(1 0 0 1 -611 -493 )">
    <path d="M 20.8067956754566 2.99369747874492  C 21.200187399727 2.59503701452325  21.837500721113 2.59503701452325  22.2308924219151 2.99369747874492  C 22.6242841227172 3.39235794296653  22.6242841461853 4.03820687390071  22.2308924219151 4.43686733812238  L 11.8727618770268 14.9337011699413  L 6.89630017921149 9.89058915656055  C 6.50290845494112 9.49192869233889  6.50290845494112 8.84607976140467  6.89630017921149 8.447419297183  C 7.28969190348175 8.04875883296138  7.92700522486769 8.04875883296138  8.32039692566991 8.447419297183  L 11.8727618770268 12.0473614749688  L 20.8067956754566 2.99369747874492  Z M 20.8180497908986 8.36550864115295  C 21.3642797563364 8.28178363042241  21.8764164151305 8.63907694343607  21.9679262895546 9.18231492009131  C 22.0701586737712 9.78493538150682  22.1222496384408 10.4050758223173  22.1222496152075 11.0252162631279  C 22.1222496152075 17.0737665943493  17.200901905338 21.9940022317922  11.1520737327189 21.9940022317922  C 5.10324556009994 21.9940022317922  0.181897850230371 17.0737665943493  0.181897850230371 11.0251924982306  C 0.181897850230371 4.97661840211188  5.10324556009994 0.0564065295662317  11.1520737327189 0.0564065295662317  C 12.5760518473503 0.0564065295662317  13.9600880199692 0.325101564383537  15.2667366770354 0.854694401426947  C 15.7769237907066 1.06205764914387  16.0227807586406 1.64325952648403  15.8158671806837 2.1533831050228  C 15.6089536027266 2.66350668356163  15.0277031054147 2.91078313430364  14.5170167273425 2.70244522380134  C 13.4499009295316 2.26922410941781  12.3180220889017 2.05018881255709  11.1520737327189 2.05018881255709  C 6.20250511943175 2.05018881255709  2.17595222369437 6.07671570690641  2.17595222369437 11.0251924982306  C 2.17595222369437 15.9736692895549  6.20250511943175 20.0001961839041  11.1520737327189 20.0001961606735  C 16.1016423460061 20.0001961374429  20.1281952417436 15.9736692663241  20.1281952417436 11.0251924982306  C 20.1281952417436 10.517018222032  20.0858520259218 10.0088201809361  20.0021165641322 9.51524191900683  C 19.9101074253073 8.97297858190639  20.2752196513057 8.45798175913239  20.8180497908986 8.36550864115295  Z " fill-rule="nonzero" fill="#0079fe" stroke="none" transform="matrix(1 0 0 1 611 493 )" />
  </g>
</svg>