<?xml version="1.0" encoding="utf-8"?>
<svg version="1.1" xmlns:xlink="http://www.w3.org/1999/xlink" width="20px" height="22px" xmlns="http://www.w3.org/2000/svg">
  <g transform="matrix(1 0 0 1 -1072 -246 )">
    <path d="M 19.2261897621528 19.959428264606  C 19.2261897621528 20.9181760897709  18.446296311632 21.6953969561821  17.4842774487847 21.6953969561821  L 10.5165508871527 21.6953969561821  L 10.5165508871527 14.7515478291441  L 19.2261897621528 14.7515478291441  L 19.2261897621528 19.959428264606  Z M 10.5165508871527 13.0156048019217  L 10.5165508871527 6.07172998544252  L 9.64559471788192 6.07172998544252  L 8.77463854861111 6.07172998544252  L 8.77463854861111 13.0155791124805  L 0.0649481935764129 13.0155791124805  L 0.0649481935764129 7.80769867701861  C 0.0649481935764129 6.84892516241257  0.844867396701375 6.07172998544252  1.80688625954861 6.07172998544252  L 4.85525856684029 6.07172998544252  C 4.85525856684029 6.07172998544252  0.027363891493053 0.425037445894759  4.85525856684029 0.429838110005676  C 7.54244554079861 0.429838110005676  9.64556896527779 3.03377832773685  9.64556896527779 3.03377832773685  C 9.64556896527779 3.03377832773685  11.7569614427083 0.429863799446821  14.454658625868 0.429863799446821  C 19.3014871545138 0.425037445894759  14.454658625868 6.07175567488366  14.454658625868 6.07175567488366  L 17.4842774487847 6.07175564979616  C 18.446296311632 6.07175564979616  19.2262155147569 6.84895085185349  19.2262155147569 7.80772434137248  L 19.2262155147569 13.0156047768342  L 10.5165508871527 13.0156048019217  Z M 8.33910897135416 5.20375845928766  C 8.33910897135416 5.20375845928766  9.24409450086807 4.33496544803006  7.03267473003473 2.5998182415567  C 4.97375601562499 1.02730338489914  4.41978049479167 1.73184671540184  4.41978049479167 1.73184671540184  C 4.41978049479167 1.73184671540184  3.61046875954861 2.60829001208253  5.29073666406248 4.33578693313279  C 7.57814934895833 5.93500069536117  8.33910897135416 5.20375845928766  8.33910897135416 5.20375845928766  Z M 12.2687157829861 2.5998182415567  C 10.0486148168403 4.33496544803006  10.9571552630208 5.20375845928766  10.9571552630208 5.20375845928766  C 10.9571552630208 5.20375845928766  11.7210773159722 5.93500072044822  14.0174803532986 4.33578693313279  C 15.704317110243 2.60829001208253  14.8918368732639 1.73184671540184  14.8918368732639 1.73184671540184  C 14.8918368732639 1.73184671540184  14.3357232569444 1.02730338489914  12.2687157829861 2.5998182415567  Z M 8.77461282118054 14.7515478291441  L 8.77461282118054 21.6953969561821  L 1.80688625954861 21.6953969561821  C 0.844867396701375 21.6953969561821  0.0649481935764129 20.9181504254173  0.0649481935764129 19.959428264606  L 0.0649481935764129 14.7515478291441  L 8.77461282118054 14.7515478291441  Z " fill-rule="nonzero" fill="#0079fe" stroke="none" transform="matrix(1 0 0 1 1072 246 )" />
  </g>
</svg>