<?xml version="1.0" encoding="utf-8"?>
<svg version="1.1" xmlns:xlink="http://www.w3.org/1999/xlink" width="19px" height="22px" xmlns="http://www.w3.org/2000/svg">
  <g transform="matrix(1 0 0 1 -658 -493 )">
    <path d="M 13.3833333333334 4.76666666666669  C 13.3833333333334 4.76666666666669  12.2833333333333 3.48333333333331  13.2 1.65000000000001  C 13.5666666666667 0.916666666666686  14.1166666666667 0.183333333333309  13.9333333333333 0  L 13.0166666666668 0  C 11.55 0  8.98333333333335 0.366666666666617  6.60000000000002 2.01666666666669  C 2.38333333333333 4.76666666666669  -1.2833333333333 11  0.549999999999955 16.3166666666666  C 1.83333333333337 19.9833333333333  5.5 22  9.16666666666674 22  C 12.6500000000001 22  16.1333333333333 20.1666666666667  17.6000000000001 16.5  C 19.25 12.2833333333333  17.2333333333333 9.34999999999999  15.7666666666667 7.14999999999999  C 14.4833333333333 5.13333333333338  15.4000000000001 3.11666666666662  15.0333333333334 3.11666666666662  C 14.3000000000001 3.11666666666662  13.3833333333334 4.76666666666669  13.3833333333334 4.76666666666669  Z M 9.16666666666674 20.3500000000001  C 6.60000000000002 20.3500000000001  3.29999999999995 19.0666666666666  2.01666666666665 15.7666666666667  C 0.549999999999955 11.3666666666666  3.66666666666663 6.05  7.51666666666665 3.48333333333331  C 8.80000000000007 2.56666666666669  10.0833333333334 2.01666666666669  11.1833333333333 1.83333333333331  C 10.6333333333334 3.66666666666669  11.55 5.13333333333338  12.1 5.86666666666662  L 13.0166666666668 6.78333333333332  C 13.75 7.51666666666669  14.3000000000001 7.7  15.0333333333334 8.98333333333332  C 16.3166666666667 10.8166666666667  17.2333333333333 12.65  16.1333333333333 15.95  C 14.85 19.25  11.7333333333333 20.3500000000001  9.16666666666674 20.3500000000001  Z M 12.3660130718955 11.8555555555556  L 9.1882352941177 11.8555555555556  C 9.74901960784314 10.3888888888889  10.1228758169935 8.92222222222225  10.8705882352941 7.27222222222224  C 10.8705882352941 7.27222222222224  10.8705882352941 7.08888888888889  10.683660130719 7.08888888888889  C 10.683660130719 6.90555555555551  10.4967320261438 7.08888888888889  10.4967320261438 7.08888888888889  L 4.88888888888891 13.6888888888889  C 4.88888888888891 13.8722222222222  4.88888888888891 14.0555555555556  5.07581699346406 14.0555555555556  L 7.69281045751643 14.0555555555556  C 7.13202614379088 15.7055555555555  6.38431372549019 17.3555555555556  5.82352941176475 19.0055555555555  C 5.82352941176475 19.1888888888889  6.01045751633978 19.3722222222222  6.19738562091504 19.1888888888889  C 8.25359477124186 16.8055555555555  10.4967320261438 14.6055555555556  12.5529411764705 12.2222222222222  C 12.7398692810458 12.0388888888889  12.5529411764705 11.8555555555556  12.3660130718955 11.8555555555556  Z " fill-rule="nonzero" fill="#0079fe" stroke="none" transform="matrix(1 0 0 1 658 493 )" />
  </g>
</svg>