<?xml version="1.0" encoding="utf-8"?>
<svg version="1.1" xmlns:xlink="http://www.w3.org/1999/xlink" width="22px" height="22px" xmlns="http://www.w3.org/2000/svg">
  <g transform="matrix(1 0 0 1 -337 -492 )">
    <path d="M 10.6705729166667 12.9622395833333  C 10.7660590277778 13.0577256944443  10.8138020833333 13.1675347222222  10.8138020833333 13.2916666666667  C 10.8138020833333 13.4157986111111  10.7660590277778 13.5256076388889  10.6705729166667 13.62109375  L 5.91536458333329 18.3763020833333  L 7.97786458333329 20.4388020833333  C 8.1592881944444 20.6202256944443  8.25 20.8350694444443  8.25 21.0833333333333  C 8.25 21.3315972222222  8.1592881944444 21.5464409722222  7.97786458333329 21.7278645833333  C 7.79644097222223 21.9092881944443  7.58159722222223 22  7.33333333333329 22  L 0.916666666666714 22  C 0.668402777777771 22  0.453559027777771 21.9092881944443  0.272135416666714 21.7278645833333  C 0.0907118055555998 21.5464409722222  0 21.3315972222222  0 21.0833333333333  L 0 14.6666666666667  C 0 14.4184027777778  0.0907118055555998 14.2035590277778  0.272135416666714 14.0221354166667  C 0.453559027777771 13.8407118055557  0.668402777777771 13.75  0.916666666666714 13.75  C 1.1649305555556 13.75  1.3797743055556 13.8407118055557  1.56119791666671 14.0221354166667  L 3.62369791666671 16.0846354166667  L 8.37890625 11.3294270833333  C 8.47439236111111 11.2339409722222  8.58420138888889 11.1861979166667  8.70833333333329 11.1861979166667  C 8.83246527777777 11.1861979166667  8.9422743055556 11.2339409722222  9.03776041666671 11.3294270833333  L 10.6705729166667 12.9622395833333  Z M 21.7278645833333 0.272135416666742  C 21.9092881944444 0.453559027777828  22 0.668402777777828  22 0.916666666666742  L 22 7.33333333333326  C 22 7.58159722222217  21.9092881944444 7.79644097222217  21.7278645833333 7.97786458333326  C 21.5464409722222 8.15928819444434  21.3315972222222 8.25  21.0833333333333 8.25  C 20.8350694444444 8.25  20.6202256944444 8.15928819444434  20.4388020833333 7.97786458333326  L 18.3763020833333 5.91536458333326  L 13.62109375 10.6705729166667  C 13.5256076388889 10.7660590277778  13.4157986111111 10.8138020833333  13.2916666666667 10.8138020833333  C 13.1675347222222 10.8138020833333  13.0577256944444 10.7660590277778  12.9622395833333 10.6705729166667  L 11.3294270833333 9.03776041666674  C 11.2339409722222 8.94227430555566  11.1861979166667 8.83246527777783  11.1861979166667 8.70833333333326  C 11.1861979166667 8.58420138888891  11.2339409722222 8.47439236111109  11.3294270833333 8.37890625  L 16.0846354166667 3.62369791666674  L 14.0221354166667 1.56119791666674  C 13.8407118055556 1.37977430555566  13.75 1.16493055555566  13.75 0.916666666666742  C 13.75 0.668402777777828  13.8407118055556 0.453559027777828  14.0221354166667 0.272135416666742  C 14.2035590277778 0.0907118055556566  14.4184027777778 0  14.6666666666667 0  L 21.0833333333333 0  C 21.3315972222222 0  21.5464409722222 0.0907118055556566  21.7278645833333 0.272135416666742  Z " fill-rule="nonzero" fill="#0079fe" stroke="none" transform="matrix(1 0 0 1 337 492 )" />
  </g>
</svg>