<?xml version="1.0" encoding="utf-8"?>
<svg version="1.1" xmlns:xlink="http://www.w3.org/1999/xlink" width="22px" height="19px" xmlns="http://www.w3.org/2000/svg">
  <g transform="matrix(1 0 0 1 -938 -247 )">
    <path d="M 9.90264423076924 1.63009845288332  C 10.0701121794872 1.79934364744486  10.1538461538461 1.99976558837318  10.1538461538461 2.23136427566806  L 10.1538461538461 16.7686357243319  C 10.1538461538461 17.0002344116268  10.0701121794872 17.2006563525551  9.90264423076924 17.3699015471167  C 9.7351762820513 17.5391467416783  9.53685897435896 17.6237693389592  9.30769230769232 17.6237693389592  C 9.07852564102561 17.6237693389592  8.88020833333336 17.5391467416783  8.71274038461539 17.3699015471167  L 4.31009615384615 12.9205344585091  L 0.846153846153854 12.9205344585091  C 0.616987179487182 12.9205344585091  0.41866987179489 12.8359118612283  0.251201923076906 12.6666666666666  C 0.0837339743589638 12.497421472105  0 12.2969995311768  0 12.0654008438819  L 0 6.93459915611811  C 0 6.70300046882323  0.0837339743589638 6.50257852789503  0.251201923076906 6.33333333333337  C 0.41866987179489 6.16408813877172  0.616987179487182 6.07946554149089  0.846153846153854 6.07946554149089  L 4.31009615384615 6.07946554149089  L 8.71274038461539 1.63009845288332  C 8.88020833333336 1.46085325832155  9.07852564102561 1.37623066104072  9.30769230769232 1.37623066104072  C 9.53685897435896 1.37623066104072  9.7351762820513 1.46085325832155  9.90264423076924 1.63009845288332  Z M 14.6688701923077 7.60267229254566  C 15.0434695512821 8.19057665260198  15.2307692307692 8.82301922175338  15.2307692307692 9.5  C 15.2307692307692 10.1769807782466  15.0434695512821 10.8071964369433  14.6688701923077 11.39064697609  C 14.2942708333334 11.9740975152367  13.7984775641026 12.3905297702767  13.1814903846154 12.6399437412095  C 13.0933493589744 12.6844819503048  12.9831730769231 12.7067510548524  12.8509615384615 12.7067510548524  C 12.6217948717949 12.7067510548524  12.4234775641026 12.6243553680263  12.2560096153846 12.4595639943742  C 12.0885416666666 12.2947726207219  12.0048076923077 12.092123769339  12.0048076923077 11.851617440225  C 12.0048076923077 11.6645569620254  12.0576923076923 11.5064463197375  12.1634615384615 11.3772855133616  C 12.2692307692308 11.2481247069854  12.3970352564103 11.1367791842475  12.546875 11.0432489451476  C 12.6967147435897 10.9497187060479  12.8465544871795 10.8472808251289  12.9963942307692 10.735935302391  C 13.146233974359 10.6245897796531  13.2740384615385 10.4664791373652  13.3798076923077 10.2616033755274  C 13.4855769230769 10.0567276136896  13.5384615384615 9.80285982184717  13.5384615384615 9.5  C 13.5384615384615 9.19714017815284  13.4855769230769 8.94327238631035  13.3798076923077 8.73839662447256  C 13.2740384615385 8.53352086263476  13.146233974359 8.37541022034691  12.9963942307692 8.264064697609  C 12.8465544871795 8.15271917487109  12.6967147435897 8.05028129395214  12.546875 7.95675105485236  C 12.3970352564103 7.86322081575247  12.2692307692308 7.75187529301456  12.1634615384615 7.62271448663842  C 12.0576923076923 7.49355368026249  12.0048076923077 7.33544303797464  12.0048076923077 7.14838255977497  C 12.0048076923077 6.90787623066103  12.0885416666666 6.70522737927809  12.2560096153846 6.54043600562579  C 12.4234775641026 6.37564463197373  12.6217948717949 6.29324894514764  12.8509615384615 6.29324894514764  C 12.9831730769231 6.29324894514764  13.0933493589744 6.31551804969524  13.1814903846154 6.36005625879045  C 13.7984775641026 6.60056258790439  14.2942708333334 7.01476793248946  14.6688701923077 7.60267229254566  Z M 17.4915865384615 5.72538677918419  C 18.2407852564103 6.87892639474921  18.6153846153846 8.1371308016877  18.6153846153846 9.5  C 18.6153846153846 10.8628691983123  18.2407852564103 12.1210736052508  17.4915865384615 13.2746132208158  C 16.7423878205128 14.4281528363807  15.7508012820513 15.2676980778245  14.5168269230769 15.7932489451476  C 14.4022435897436 15.8377871542428  14.2920673076923 15.8600562587905  14.1862980769231 15.8600562587905  C 13.9483173076923 15.8600562587905  13.7455929487179 15.7754336615096  13.578125 15.606188466948  C 13.4106570512821 15.4369432723863  13.3269230769231 15.2365213314581  13.3269230769231 15.0049226441631  C 13.3269230769231 14.6575246132209  13.4987980769231 14.3947491795593  13.8425480769231 14.2165963431787  C 14.3361378205128 13.9582747304266  14.6710737179487 13.7623066104079  14.8473557692308 13.6286919831224  C 15.4995993589744 13.1476793248945  16.0086137820513 12.544186591655  16.3743990384615 11.8182137834036  C 16.7401842948718 11.0922409751523  16.9230769230769 10.3195030473511  16.9230769230769 9.5  C 16.9230769230769 8.68049695264892  16.7401842948718 7.90775902484768  16.3743990384615 7.18178621659638  C 16.0086137820513 6.45581340834497  15.4995993589744 5.85232067510549  14.8473557692308 5.37130801687761  C 14.6710737179487 5.2376933895921  14.3361378205128 5.04172526957336  13.8425480769231 4.78340365682129  C 13.4987980769231 4.60525082044069  13.3269230769231 4.34247538677914  13.3269230769231 3.99507735583688  C 13.3269230769231 3.76347866854189  13.4106570512821 3.56305672761368  13.578125 3.39381153305203  C 13.7455929487179 3.22456633849038  13.9439102564103 3.13994374120955  14.1730769230769 3.13994374120955  C 14.2876602564103 3.13994374120955  14.4022435897436 3.16221284575715  14.5168269230769 3.20675105485236  C 15.7508012820513 3.73230192217534  16.7423878205128 4.57184716361928  17.4915865384615 5.72538677918419  Z M 20.3209134615385 3.85478199718705  C 21.4403044871795 5.56950304735108  22 7.45124238162214  22 9.5  C 22 11.5487576183779  21.4403044871795 13.4304969526489  20.3209134615385 15.145218002813  C 19.2015224358974 16.8599390529771  17.7119391025641 18.1225972808251  15.8521634615385 18.9331926863572  C 15.7375801282051 18.9777308954524  15.6229967948718 19  15.5084134615385 19  C 15.2792467948718 19  15.0809294871795 18.9153774027192  14.9134615384615 18.7461322081575  C 14.7459935897436 18.5768870135959  14.6622596153846 18.3764650726677  14.6622596153846 18.1448663853728  C 14.6622596153846 17.8241912798875  14.8341346153846 17.5614158462261  15.1778846153846 17.3565400843881  C 15.2395833333334 17.320909517112  15.3387419871795 17.2741443975622  15.4753605769231 17.2162447257384  C 15.6119791666666 17.1583450539147  15.7111378205128 17.1115799343648  15.7728365384615 17.0759493670887  C 16.1782852564103 16.8532583216128  16.5396634615385 16.6261134552274  16.8569711538461 16.3945147679326  C 17.9411057692308 15.5839193624004  18.7872596153846 14.57290201594  19.3954326923077 13.3614627285514  C 20.0036057692308 12.1500234411626  20.3076923076923 10.8628691983123  20.3076923076923 9.5  C 20.3076923076923 8.1371308016877  20.0036057692308 6.8499765588374  19.3954326923077 5.63853727144863  C 18.7872596153846 4.42709798405997  17.9411057692308 3.41608063759963  16.8569711538461 2.60548523206751  C 16.5396634615385 2.37388654477263  16.1782852564103 2.14674167838723  15.7728365384615 1.92405063291142  C 15.7111378205128 1.88842006563516  15.6119791666666 1.84165494608533  15.4753605769231 1.78375527426158  C 15.3387419871795 1.72585560243783  15.2395833333334 1.679090482888  15.1778846153846 1.64345991561174  C 14.8341346153846 1.43858415377395  14.6622596153846 1.17580872011251  14.6622596153846 0.85513361462722  C 14.6622596153846 0.623534927332344  14.7459935897436 0.423112986404135  14.9134615384615 0.253867791842481  C 15.0809294871795 0.084622597280827  15.2792467948718 0  15.5084134615385 0  C 15.6229967948718 0  15.7375801282051 0.022269104547604  15.8521634615385 0.066807313642812  C 17.7119391025641 0.877402719174825  19.2015224358974 2.1400609470229  20.3209134615385 3.85478199718705  Z " fill-rule="nonzero" fill="#0079fe" stroke="none" transform="matrix(1 0 0 1 938 247 )" />
  </g>
</svg>