<?xml version="1.0" encoding="utf-8"?>
<svg version="1.1" xmlns:xlink="http://www.w3.org/1999/xlink" width="22px" height="14px" xmlns="http://www.w3.org/2000/svg">
  <g transform="matrix(1 0 0 1 -639 -201 )">
    <path d="M 22 3.10434782608695  C 22 3.34331723027378  21.913564929694 3.54847020933983  21.7406947890818 3.71980676328508  L 11.6141439205956 13.7429951690821  C 11.4412737799835 13.9143317230274  11.236559139785 14  11 14  C 10.763440860215 14  10.5587262200165 13.9143317230274  10.3858560794044 13.7429951690821  L 0.259305210918171 3.71980676328508  C 0.0864350703060097 3.54847020933983  0 3.34331723027378  0 3.10434782608695  C 0 2.86537842190023  0.0864350703060097 2.66022544283419  0.259305210918171 2.48888888888882  L 2.52481389578168 0.257004830917936  C 2.6976840363937 0.0856682769725694  2.90239867659221 0  3.13895781637717 0  C 3.37551695616213 0  3.58023159636065 0.0856682769725694  3.75310173697272 0.257004830917936  L 11 7.43961352657004  L 18.2468982630273 0.257004830917936  C 18.4197684036394 0.0856682769725694  18.6244830438379 0  18.8610421836228 0  C 19.0976013234078 0  19.3023159636063 0.0856682769725694  19.4751861042183 0.257004830917936  L 21.7406947890818 2.48888888888882  C 21.913564929694 2.66022544283419  22 2.86537842190023  22 3.10434782608695  Z " fill-rule="nonzero" fill="#0079fe" stroke="none" transform="matrix(1 0 0 1 639 201 )" />
  </g>
</svg>