<?xml version="1.0" encoding="utf-8"?>
<svg version="1.1" xmlns:xlink="http://www.w3.org/1999/xlink" width="21px" height="22px" xmlns="http://www.w3.org/2000/svg">
  <g transform="matrix(1 0 0 1 -1068 -341 )">
    <path d="M 7.50213068181819 18.2044270833335  C 7.59161931818181 18.1184895833335  7.63636363636363 18.0086805555554  8 17.875  L 8 7.79166666666652  C 7.63636363636363 7.65798611111109  7.59161931818181 7.54817708333348  7.50213068181819 7.46223958333348  C 7.41264204545456 7.37630208333348  7.29829545454547 7.33333333333348  7.15909090909093 7.33333333333348  L 6.20454545454544 7.33333333333348  C 6.06534090909091 7.33333333333348  5.95099431818181 7.37630208333348  5.86150568181819 7.46223958333348  C 5.77201704545456 7.54817708333348  5.72727272727275 7.65798611111109  6 7.79166666666652  L 6 17.875  C 5.72727272727275 18.0086805555554  5.77201704545456 18.1184895833335  5.86150568181819 18.2044270833335  C 5.95099431818181 18.2903645833335  6.06534090909091 18.3333333333335  6.20454545454544 18.3333333333335  L 7.15909090909093 18.3333333333335  C 7.29829545454547 18.3333333333335  7.41264204545456 18.2903645833335  7.50213068181819 18.2044270833335  Z M 11.3203125 18.2044270833335  C 11.4098011363636 18.1184895833335  11.4545454545454 18.0086805555554  11.4545454545454 17.875  L 11.4545454545454 7.79166666666652  C 11.4545454545454 7.65798611111109  11.4098011363636 7.54817708333348  11.3203125 7.46223958333348  C 11.2308238636364 7.37630208333348  11.1164772727273 7.33333333333348  10.9772727272727 7.33333333333348  L 10.0227272727273 7.33333333333348  C 9.88352272727272 7.33333333333348  9.76917613636363 7.37630208333348  9.6796875 7.46223958333348  C 9.59019886363637 7.54817708333348  9.54545454545456 7.65798611111109  9.54545454545456 7.79166666666652  L 9.54545454545456 17.875  C 9.54545454545456 18.0086805555554  9.59019886363637 18.1184895833335  9.6796875 18.2044270833335  C 9.76917613636363 18.2903645833335  9.88352272727272 18.3333333333335  10.0227272727273 18.3333333333335  L 10.9772727272727 18.3333333333335  C 11.1164772727273 18.3333333333335  11.2308238636364 18.2903645833335  11.3203125 18.2044270833335  Z M 15.1384943181818 18.2044270833335  C 15.2279829545454 18.1184895833335  15.2727272727273 18.0086805555554  15 17.875  L 15 7.79166666666652  C 15.2727272727273 7.65798611111109  15.2279829545454 7.54817708333348  15.1384943181818 7.46223958333348  C 15.0490056818182 7.37630208333348  14.9346590909091 7.33333333333348  14.7954545454546 7.33333333333348  L 13.8409090909091 7.33333333333348  C 13.7017045454545 7.33333333333348  13.5873579545454 7.37630208333348  13.4978693181818 7.46223958333348  C 13.4083806818182 7.54817708333348  13.3636363636364 7.65798611111109  13 7.79166666666652  L 13 17.875  C 13.3636363636364 18.0086805555554  13.4083806818182 18.1184895833335  13.4978693181818 18.2044270833335  C 13.5873579545454 18.2903645833335  13.7017045454545 18.3333333333335  13.8409090909091 18.3333333333335  L 14.7954545454546 18.3333333333335  C 14.9346590909091 18.3333333333335  15.0490056818182 18.2903645833335  15.1384943181818 18.2044270833335  Z M 7.88991477272725 1.99088541666652  L 7.15909090909093 3.66666666666652  L 13.8409090909091 3.66666666666652  L 13.125 1.99088541666652  C 13.0553977272727 1.90494791666652  12.9708806818182 1.85243055555543  12.8714488636364 1.83333333333348  L 8.14346590909093 1.83333333333348  C 8.04403409090909 1.85243055555543  7.95951704545453 1.90494791666652  7.88991477272725 1.99088541666652  Z M 20.8657670454546 3.79557291666652  C 20.9552556818182 3.88151041666652  21 3.99131944444457  21 4.125  L 21 5.04166666666652  C 21 5.17534722222217  20.9552556818182 5.28515625  20.8657670454546 5.37109375  C 20.7762784090909 5.45703125  20.6619318181818 5.5  20.5227272727273 5.5  L 19 5.5  L 19 19.078125  C 19.0909090909091 19.8706597222222  18.8572443181818 20.5557725694446  18.3899147727273 21.1334635416665  C 17.9225852272727 21.7111545138889  17.3607954545454 22  16.7045454545454 22  L 4.29545454545456 22  C 3.63920454545456 22  3.07741477272728 21.720703125  2.61008522727275 21.162109375  C 2.14275568181822 20.603515625  1.90909090909093 19.9279513888889  2 19.1354166666665  L 2 5.5  L 0.477272727272748 5.5  C 0.338068181818215 5.5  0.223721590909065 5.45703125  0.134232954545439 5.37109375  C 0.044744318181813 5.28515625  0 5.17534722222217  0 5.04166666666652  L 0 4.125  C 0 3.99131944444457  0.044744318181813 3.88151041666652  0.134232954545439 3.79557291666652  C 0.223721590909065 3.70963541666652  0.338068181818215 3.66666666666652  0.477272727272748 3.66666666666652  L 5.0859375 3.66666666666652  L 6.12997159090907 1.27473958333348  C 6.27911931818181 0.921440972222172  6.54758522727275 0.620659722222172  6.93536931818181 0.372395833333485  C 7.32315340909093 0.124131944444571  7.71590909090909 0  8.11363636363637 0  L 12.8863636363636 0  C 13.2840909090909 0  13.6768465909091 0.124131944444571  14.0646306818182 0.372395833333485  C 14.4524147727273 0.620659722222172  14.7208806818182 0.921440972222172  14.8700284090909 1.27473958333348  L 15.9140625 3.66666666666652  L 20.5227272727273 3.66666666666652  C 20.6619318181818 3.66666666666652  20.7762784090909 3.70963541666652  20.8657670454546 3.79557291666652  Z " fill-rule="nonzero" fill="#0079fe" stroke="none" transform="matrix(1 0 0 1 1068 341 )" />
  </g>
</svg>