<?xml version="1.0" encoding="utf-8"?>
<svg version="1.1" xmlns:xlink="http://www.w3.org/1999/xlink" width="21px" height="22px" xmlns="http://www.w3.org/2000/svg">
  <g transform="matrix(1 0 0 1 -249 -246 )">
    <path d="M 20.5363451086956 8.81835686777924  C 20.8454483695652 9.17137355584077  21 9.59734702610183  21 10.0962772785623  L 21 11.9037227214377  C 21 12.4026529738982  20.8454483695652 12.8286264441592  20.5363451086956 13.1816431322208  C 20.2272418478261 13.5346598202824  19.8254076086957 13.7111681643132  19.3308423913044 13.7111681643132  L 9.28736413043472 13.7111681643132  L 13.4673913043478 17.8626444159179  C 13.8288043478261 18.201540436457  14.0095108695652 18.6251604621309  14.0095108695652 19.1335044929397  C 14.0095108695652 19.6418485237484  13.8288043478261 20.0654685494223  13.4673913043478 20.4043645699614  L 12.3974184782608 21.4775353016688  C 12.0455163043478 21.8258451005563  11.617527173913 22  11.1134510869565 22  C 10.6188858695653 22  10.1861413043478 21.8258451005563  9.81521739130434 21.4775353016688  L 0.52785326086962 12.2708600770218  C 0.175951086956502 11.9225502781344  0 11.4989302524605  0 11  C 0 10.5104835258879  0.175951086956502 10.0821566110397  0.52785326086962 9.71501925545567  L 9.81521739130434 0.536585365853625  C 10.1766304347826 0.178861788617837  10.609375 0  11.1134510869565 0  C 11.6080163043478 0  12.0360054347826 0.178861788617837  12.3974184782608 0.536585365853625  L 13.4673913043478 1.58151476251601  C 13.8288043478261 1.9392383397518  14.0095108695652 2.36756525459987  14.0095108695652 2.86649550706034  C 14.0095108695652 3.3654257595208  13.8288043478261 3.79375267436887  13.4673913043478 4.15147625160466  L 9.28736413043472 8.28883183568678  L 19.3308423913044 8.28883183568678  C 19.8254076086957 8.28883183568678  20.2272418478261 8.4653401797176  20.5363451086956 8.81835686777924  Z " fill-rule="nonzero" fill="#0079fe" stroke="none" transform="matrix(1 0 0 1 249 246 )" />
  </g>
</svg>