<?xml version="1.0" encoding="utf-8"?>
<svg version="1.1" xmlns:xlink="http://www.w3.org/1999/xlink" width="22px" height="17px" xmlns="http://www.w3.org/2000/svg">
  <g transform="matrix(1 0 0 1 -1061 -642 )">
    <path d="M 4.25390625 11.9108664772727  C 4.56082589285712 11.6090198863637  4.71428571428571 11.2447916666667  4.71428571428571 10.8181818181818  C 4.71428571428571 10.391571969697  4.56082589285712 10.02734375  4.25390625 9.72549715909076  C 3.94698660714287 9.42365056818176  3.5766369047619 9.27272727272725  3.14285714285713 9.27272727272725  C 2.70907738095239 9.27272727272725  2.33872767857142 9.42365056818176  2.03180803571429 9.72549715909076  C 1.72488839285713 10.02734375  1.57142857142858 10.391571969697  1.57142857142858 10.8181818181818  C 1.57142857142858 11.2447916666667  1.72488839285713 11.6090198863637  2.03180803571429 11.9108664772727  C 2.33872767857142 12.2127130681818  2.70907738095239 12.3636363636363  3.14285714285713 12.3636363636363  C 3.5766369047619 12.3636363636363  3.94698660714287 12.2127130681818  4.25390625 11.9108664772727  Z M 6.61104910714288 6.50177556818176  C 6.91796875 6.19992897727275  7.07142857142858 5.83570075757575  7.07142857142858 5.40909090909076  C 7.07142857142858 4.98248106060623  6.91796875 4.61825284090924  6.61104910714288 4.31640625  C 6.30412946428571 4.01455965909076  5.93377976190477 3.86363636363626  5.5 3.86363636363626  C 5.06622023809523 3.86363636363626  4.69587053571429 4.01455965909076  4.38895089285712 4.31640625  C 4.08203125 4.61825284090924  3.92857142857142 4.98248106060623  3.92857142857142 5.40909090909076  C 3.92857142857142 5.83570075757575  4.08203125 6.19992897727275  4.38895089285712 6.50177556818176  C 4.69587053571429 6.80362215909076  5.06622023809523 6.9545454545455  5.5 6.9545454545455  C 5.93377976190477 6.9545454545455  6.30412946428571 6.80362215909076  6.61104910714288 6.50177556818176  Z M 13.2098214285714 12.3153409090908  C 13.0297619047619 11.8565340909092  12.735119047619 11.4902935606062  12.3258928571428 11.2166193181818  L 13.5658482142857 6.60440340909076  C 13.6149553571428 6.39512310606051  13.5842633928572 6.19992897727275  13.4737723214286 6.01882102272725  C 13.36328125 5.83771306818176  13.2057291666667 5.71898674242425  13.0011160714286 5.6626420454545  C 12.7965029761905 5.60629734848499  12.6000744047619 5.63245738636374  12.4118303571428 5.74112215909076  C 12.2235863095238 5.84978693181824  12.100818452381 6.008759469697  12.0435267857143 6.21803977272725  L 10.8035714285714 10.8302556818182  C 10.3125 10.8705018939395  9.87462797619049 11.0455729166667  9.48995535714288 11.35546875  C 9.10528273809523 11.6653645833333  8.84747023809523 12.0617897727273  8.71651785714288 12.5447443181818  C 8.55282738095239 13.1645359848483  8.63467261904761 13.7521306818182  8.96205357142858 14.3075284090908  C 9.28943452380951 14.8629261363637  9.76822916666668 15.2211174242425  10.3984375 15.3821022727273  C 11.0286458333333 15.543087121212  11.6261160714286 15.4625946969695  12.1908482142857 15.140625  C 12.7555803571428 14.8186553030305  13.1197916666667 14.347774621212  13.2834821428572 13.7279829545455  C 13.4144345238095 13.2450284090908  13.389880952381 12.7741477272727  13.2098214285714 12.3153409090908  Z M 19.9681919642858 11.9108664772727  C 20.2751116071428 11.6090198863637  20.4285714285714 11.2447916666667  20.4285714285714 10.8181818181818  C 20.4285714285714 10.391571969697  20.2751116071428 10.02734375  19.9681919642858 9.72549715909076  C 19.6612723214286 9.42365056818176  19.2909226190476 9.27272727272725  18.8571428571428 9.27272727272725  C 18.4233630952381 9.27272727272725  18.0530133928572 9.42365056818176  17.74609375 9.72549715909076  C 17.4391741071428 10.02734375  17.2857142857142 10.391571969697  17.2857142857142 10.8181818181818  C 17.2857142857142 11.2447916666667  17.4391741071428 11.6090198863637  17.74609375 11.9108664772727  C 18.0530133928572 12.2127130681818  18.4233630952381 12.3636363636363  18.8571428571428 12.3636363636363  C 19.2909226190476 12.3636363636363  19.6612723214286 12.2127130681818  19.9681919642858 11.9108664772727  Z M 12.1110491071428 4.18359375  C 12.41796875 3.88174715909076  12.5714285714286 3.51751893939377  12.5714285714286 3.09090909090924  C 12.5714285714286 2.66429924242425  12.41796875 2.30007102272725  12.1110491071428 1.99822443181824  C 11.8041294642857 1.69637784090924  11.4337797619048 1.5454545454545  11 1.5454545454545  C 10.5662202380952 1.5454545454545  10.1958705357143 1.69637784090924  9.88895089285712 1.99822443181824  C 9.58203125 2.30007102272725  9.42857142857142 2.66429924242425  9.42857142857142 3.09090909090924  C 9.42857142857142 3.51751893939377  9.58203125 3.88174715909076  9.88895089285712 4.18359375  C 10.1958705357143 4.48544034090924  10.5662202380952 4.63636363636374  11 4.63636363636374  C 11.4337797619048 4.63636363636374  11.8041294642857 4.48544034090924  12.1110491071428 4.18359375  Z M 17.6110491071428 6.50177556818176  C 17.91796875 6.19992897727275  18.0714285714286 5.83570075757575  18.0714285714286 5.40909090909076  C 18.0714285714286 4.98248106060623  17.91796875 4.61825284090924  17.6110491071428 4.31640625  C 17.3041294642858 4.01455965909076  16.9337797619048 3.86363636363626  16.5 3.86363636363626  C 16.0662202380952 3.86363636363626  15.6958705357143 4.01455965909076  15.3889508928572 4.31640625  C 15.08203125 4.61825284090924  14.9285714285714 4.98248106060623  14.9285714285714 5.40909090909076  C 14.9285714285714 5.83570075757575  15.08203125 6.19992897727275  15.3889508928572 6.50177556818176  C 15.6958705357143 6.80362215909076  16.0662202380952 6.9545454545455  16.5 6.9545454545455  C 16.9337797619048 6.9545454545455  17.3041294642858 6.80362215909076  17.6110491071428 6.50177556818176  Z M 21.1283482142858 6.61647727272725  C 21.7094494047619 7.95265151515173  22 9.35321969696952  22 10.8181818181818  C 22 12.9190340909092  21.4229910714286 14.8629261363637  20.2689732142858 16.6498579545455  C 20.1134672619048 16.8832859848483  19.8924851190476 17  19.6060267857142 17  L 2.39397321428571 17  C 2.10751488095239 17  1.88653273809522 16.8832859848483  1.73102678571429 16.6498579545455  C 0.577008928571416 14.870975378788  0 12.9270833333333  0 10.8181818181818  C 0 9.35321969696952  0.290550595238098 7.95265151515173  0.871651785714292 6.61647727272725  C 1.45275297619049 5.280303030303  2.234375 4.12926136363626  3.21651785714287 3.16335227272725  C 4.19866071428571 2.19744318181824  5.36904761904761 1.428740530303  6.72767857142858 0.857244318181756  C 8.08630952380951 0.28574810606051  9.51041666666668 0  11 0  C 12.4895833333333 0  13.9136904761905 0.28574810606051  15.2723214285714 0.857244318181756  C 16.6309523809524 1.428740530303  17.8013392857142 2.19744318181824  18.7834821428572 3.16335227272725  C 19.765625 4.12926136363626  20.5472470238095 5.280303030303  21.1283482142858 6.61647727272725  Z " fill-rule="nonzero" fill="#0079fe" stroke="none" transform="matrix(1 0 0 1 1061 642 )" />
  </g>
</svg>