<?xml version="1.0" encoding="utf-8"?>
<svg version="1.1" xmlns:xlink="http://www.w3.org/1999/xlink" width="22px" height="12px" xmlns="http://www.w3.org/2000/svg">
  <g transform="matrix(1 0 0 1 -1070 -202 )">
    <path d="M 21.591796875 0.395833333333371  C 21.8639322916667 0.659722222222285  22 0.972222222222172  22 1.33333333333337  C 22 1.69444444444446  21.8639322916667 2.00694444444446  21.591796875 2.27083333333337  L 11.966796875 11.6041666666666  C 11.6946614583333 11.8680555555555  11.3723958333333 12  11 12  C 10.6276041666667 12  10.3053385416667 11.8680555555555  10.033203125 11.6041666666666  L 0.408203125 2.27083333333337  C 0.136067708333286 2.00694444444446  0 1.69444444444446  0 1.33333333333337  C 0 0.972222222222172  0.136067708333286 0.659722222222285  0.408203125 0.395833333333371  C 0.680338541666714 0.131944444444457  1.00260416666671 0  1.375 0  L 20.625 0  C 20.9973958333333 0  21.3196614583333 0.131944444444457  21.591796875 0.395833333333371  Z " fill-rule="nonzero" fill="#0079fe" stroke="none" transform="matrix(1 0 0 1 1070 202 )" />
  </g>
</svg>