<?xml version="1.0" encoding="utf-8"?>
<svg version="1.1" xmlns:xlink="http://www.w3.org/1999/xlink" width="22px" height="21px" xmlns="http://www.w3.org/2000/svg">
  <g transform="matrix(1 0 0 1 -204 -247 )">
    <path d="M 21.4775353016689 8.6803776129467  C 21.8258451005563 9.04855023600805  22 9.47808496291304  22 9.96898179366156  C 22 10.4693189480782  21.8258451005563 10.894133513149  21.4775353016689 11.2434254888739  L 12.2849807445443 20.4760620364127  C 11.9178433889602 20.8253540121375  11.4895164741122 21  11 21  C 10.5010697475396 21  10.0774497218656 20.8253540121375  9.72913992297816 20.4760620364127  L 0.536585365853625 11.2434254888739  C 0.178861788617866 10.9035738368173  0 10.4787592717464  0 9.96898179366156  C 0 9.46864463924476  0.178861788617866 9.03910991233988  0.536585365853625 8.6803776129467  L 1.58151476251604 7.6183412002697  C 1.94865211810011 7.2690492245448  2.37697903294821 7.09440323668241  2.86649550706036 7.09440323668241  C 3.36542575952078 7.09440323668241  3.78904578519465 7.2690492245448  4.13735558408212 7.6183412002697  L 8.28883183568678 11.7815239379636  L 8.28883183568678 1.81254214430203  C 8.28883183568678 1.32164531355363  8.46769362430464 0.896830748482785  8.82541720154046 0.538098449089716  C 9.18314077877622 0.179366149696534  9.60676080445015 0  10.0962772785623 0  L 11.9037227214377 0  C 12.3932391955499 0  12.8168592212238 0.179366149696534  13.1745827984595 0.538098449089716  C 13.5323063756954 0.896830748482785  13.7111681643132 1.32164531355363  13.7111681643132 1.81254214430203  L 13.7111681643132 11.7815239379636  L 17.8626444159179 7.6183412002697  C 18.2109542148054 7.2690492245448  18.6345742404793 7.09440323668241  19.1335044929396 7.09440323668241  C 19.6230209670518 7.09440323668241  20.0513478818999 7.2690492245448  20.418485237484 7.6183412002697  L 21.4775353016689 8.6803776129467  Z " fill-rule="nonzero" fill="#0079fe" stroke="none" transform="matrix(1 0 0 1 204 247 )" />
  </g>
</svg>