<?xml version="1.0" encoding="utf-8"?>
<svg version="1.1" xmlns:xlink="http://www.w3.org/1999/xlink" width="21px" height="22px" xmlns="http://www.w3.org/2000/svg">
  <g transform="matrix(1 0 0 1 -293 -246 )">
    <path d="M 20.4721467391304 9.72913992297822  C 20.8240489130435 10.058622165169  21 10.482242190843  21 11  C 21 11.5083440308088  20.8240489130435 11.9366709456568  20.4721467391304 12.2849807445443  L 11.1847826086957 21.4775353016688  C 10.8138586956522 21.8258451005563  10.3811141304348 22  9.8865489130435 22  C 9.40149456521743 22  8.97350543478257 21.8258451005563  8.60258152173913 21.4775353016688  L 7.53260869565219 20.418485237484  C 7.17119565217394 20.0607616602482  6.99048913043475 19.6324347454001  6.99048913043475 19.1335044929397  C 6.99048913043475 18.6345742404792  7.17119565217394 18.2062473256311  7.53260869565219 17.8485237483953  L 11.7126358695652 13.7111681643132  L 1.66915760869568 13.7111681643132  C 1.17459239130432 13.7111681643132  0.772758152173935 13.5346598202824  0.463654891304316 13.1816431322208  C 0.154551630434753 12.8286264441592  0 12.4026529738982  0 11.9037227214377  L 0 10.0962772785623  C 0 9.59734702610183  0.154551630434753 9.17137355584077  0.463654891304316 8.81835686777924  C 0.772758152173935 8.4653401797176  1.17459239130432 8.28883183568678  1.66915760869568 8.28883183568678  L 11.7126358695652 8.28883183568678  L 7.53260869565219 4.13735558408212  C 7.17119565217394 3.79845956354302  6.99048913043475 3.37483953786909  6.99048913043475 2.86649550706034  C 6.99048913043475 2.35815147625158  7.17119565217394 1.93453145057765  7.53260869565219 1.59563543003856  L 8.60258152173913 0.536585365853625  C 8.96399456521743 0.178861788617837  9.39198369565219 0  9.8865489130435 0  C 10.390625 0  10.8233695652174 0.178861788617837  11.1847826086957 0.536585365853625  L 20.4721467391304 9.72913992297822  Z " fill-rule="nonzero" fill="#0079fe" stroke="none" transform="matrix(1 0 0 1 293 246 )" />
  </g>
</svg>