<?xml version="1.0" encoding="utf-8"?>
<svg version="1.1" xmlns:xlink="http://www.w3.org/1999/xlink" width="22px" height="17px" xmlns="http://www.w3.org/2000/svg">
  <g transform="matrix(1 0 0 1 -1025 -296 )">
    <path d="M 4.59765625 12.4783380681819  C 4.67540922619045 12.5548058712121  4.71428571428575 12.6453598484848  4.71428571428575 12.75  L 4.71428571428575 13.5227272727273  C 4.71428571428575 13.6273674242425  4.67540922619045 13.7179214015152  4.59765625 13.7943892045454  C 4.51990327380955 13.8708570075759  4.42782738095238 13.9090909090909  4.32142857142858 13.9090909090909  L 3.53571428571425 13.9090909090909  C 3.42931547619045 13.9090909090909  3.33723958333337 13.8708570075759  3.25948660714283 13.7943892045454  C 3.18173363095238 13.7179214015152  3.14285714285717 13.6273674242425  3.14285714285717 13.5227272727273  L 3.14285714285717 12.75  C 3.14285714285717 12.6453598484848  3.18173363095238 12.5548058712121  3.25948660714283 12.4783380681819  C 3.33723958333337 12.4018702651515  3.42931547619045 12.3636363636364  3.53571428571425 12.3636363636364  L 4.32142857142858 12.3636363636364  C 4.42782738095238 12.3636363636364  4.51990327380955 12.4018702651515  4.59765625 12.4783380681819  Z M 4.59765625 9.38742897727275  C 4.67540922619045 9.46389678030312  4.71428571428575 9.55445075757586  4.71428571428575 9.65909090909088  L 4.71428571428575 10.4318181818181  C 4.71428571428575 10.5364583333334  4.67540922619045 10.627012310606  4.59765625 10.7034801136364  C 4.51990327380955 10.7799479166666  4.42782738095238 10.8181818181819  4.32142857142858 10.8181818181819  L 3.53571428571425 10.8181818181819  C 3.42931547619045 10.8181818181819  3.33723958333337 10.7799479166666  3.25948660714283 10.7034801136364  C 3.18173363095238 10.627012310606  3.14285714285717 10.5364583333334  3.14285714285717 10.4318181818181  L 3.14285714285717 9.65909090909088  C 3.14285714285717 9.55445075757586  3.18173363095238 9.46389678030312  3.25948660714283 9.38742897727275  C 3.33723958333337 9.31096117424249  3.42931547619045 9.27272727272725  3.53571428571425 9.27272727272725  L 4.32142857142858 9.27272727272725  C 4.42782738095238 9.27272727272725  4.51990327380955 9.31096117424249  4.59765625 9.38742897727275  Z M 4.59765625 6.29651988636363  C 4.67540922619045 6.37298768939399  4.71428571428575 6.46354166666663  4.71428571428575 6.56818181818187  L 4.71428571428575 7.34090909090912  C 4.71428571428575 7.44554924242414  4.67540922619045 7.53610321969688  4.59765625 7.61257102272725  C 4.51990327380955 7.68903882575751  4.42782738095238 7.72727272727275  4.32142857142858 7.72727272727275  L 3.53571428571425 7.72727272727275  C 3.42931547619045 7.72727272727275  3.33723958333337 7.68903882575751  3.25948660714283 7.61257102272725  C 3.18173363095238 7.53610321969688  3.14285714285717 7.44554924242414  3.14285714285717 7.34090909090912  L 3.14285714285717 6.56818181818187  C 3.14285714285717 6.46354166666663  3.18173363095238 6.37298768939399  3.25948660714283 6.29651988636363  C 3.33723958333337 6.22005208333337  3.42931547619045 6.18181818181813  3.53571428571425 6.18181818181813  L 4.32142857142858 6.18181818181813  C 4.42782738095238 6.18181818181813  4.51990327380955 6.22005208333337  4.59765625 6.29651988636363  Z M 18.7405133928572 12.4783380681819  C 18.8182663690476 12.5548058712121  18.8571428571428 12.6453598484848  18.8571428571428 12.75  L 18.8571428571428 13.5227272727273  C 18.8571428571428 13.6273674242425  18.8182663690476 13.7179214015152  18.7405133928572 13.7943892045454  C 18.6627604166666 13.8708570075759  18.5706845238095 13.9090909090909  18.4642857142858 14  L 6.67857142857142 14  C 6.57217261904762 13.9090909090909  6.48009672619045 13.8708570075759  6.40234375 13.7943892045454  C 6.32459077380955 13.7179214015152  6.28571428571425 13.6273674242425  6.28571428571425 13.5227272727273  L 6.28571428571425 12.75  C 6.28571428571425 12.6453598484848  6.32459077380955 12.5548058712121  6.40234375 12.4783380681819  C 6.48009672619045 12.4018702651515  6.57217261904762 12.3636363636364  6.67857142857142 12.3636363636364  L 18.4642857142858 12.3636363636364  C 18.5706845238095 12.3636363636364  18.6627604166666 12.4018702651515  18.7405133928572 12.4783380681819  Z M 18.7405133928572 9.38742897727275  C 18.8182663690476 9.46389678030312  18.8571428571428 9.55445075757586  18.8571428571428 9.65909090909088  L 18.8571428571428 10.4318181818181  C 18.8571428571428 10.5364583333334  18.8182663690476 10.627012310606  18.7405133928572 10.7034801136364  C 18.6627604166666 10.7799479166666  18.5706845238095 10.8181818181819  18.4642857142858 10.8181818181819  L 6.67857142857142 10.8181818181819  C 6.57217261904762 10.8181818181819  6.48009672619045 10.7799479166666  6.40234375 10.7034801136364  C 6.32459077380955 10.627012310606  6.28571428571425 10.5364583333334  6.28571428571425 10.4318181818181  L 6.28571428571425 9.65909090909088  C 6.28571428571425 9.55445075757586  6.32459077380955 9.46389678030312  6.40234375 9.38742897727275  C 6.48009672619045 9.31096117424249  6.57217261904762 9.27272727272725  6.67857142857142 9  L 18.4642857142858 9  C 18.5706845238095 9.27272727272725  18.6627604166666 9.31096117424249  18.7405133928572 9.38742897727275  Z M 18.7405133928572 6.29651988636363  C 18.8182663690476 6.37298768939399  18.8571428571428 6.46354166666663  18.8571428571428 6.56818181818187  L 18.8571428571428 7.34090909090912  C 18.8571428571428 7.44554924242414  18.8182663690476 7.53610321969688  18.7405133928572 7.61257102272725  C 18.6627604166666 7.68903882575751  18.5706845238095 7.72727272727275  18.4642857142858 8  L 6.67857142857142 8  C 6.57217261904762 7.72727272727275  6.48009672619045 7.68903882575751  6.40234375 7.61257102272725  C 6.32459077380955 7.53610321969688  6.28571428571425 7.44554924242414  6.28571428571425 7.34090909090912  L 6.28571428571425 6.56818181818187  C 6.28571428571425 6.46354166666663  6.32459077380955 6.37298768939399  6.40234375 6.29651988636363  C 6.48009672619045 6.22005208333337  6.57217261904762 6.18181818181813  6.67857142857142 6.18181818181813  L 18.4642857142858 6.18181818181813  C 18.5706845238095 6.18181818181813  18.6627604166666 6.22005208333337  18.7405133928572 6.29651988636363  Z M 20.3119419642858 15.33984375  C 20.3896949404762 15.2633759469697  20.4285714285714 15.1728219696969  20 15.0681818181819  L 20 5.02272727272725  C 20.4285714285714 4.91808712121212  20.3896949404762 4.82753314393938  20.3119419642858 4.75106534090912  C 20.2341889880952 4.67459753787875  20.1421130952381 4.63636363636363  20.0357142857142 4.63636363636363  L 1.96428571428575 4.63636363636363  C 1.8578869047619 4.63636363636363  1.76581101190479 4.67459753787875  1.68805803571425 4.75106534090912  C 1.6103050595238 4.82753314393938  1.57142857142858 4.91808712121212  2 5.02272727272725  L 2 15.0681818181819  C 1.57142857142858 15.1728219696969  1.6103050595238 15.2633759469697  1.68805803571425 15.33984375  C 1.76581101190479 15.4163115530303  1.8578869047619 15.4545454545454  1.96428571428575 15.4545454545454  L 20.0357142857142 15.4545454545454  C 20.1421130952381 15.4545454545454  20.2341889880952 15.4163115530303  20.3119419642858 15.33984375  Z M 21.4229910714286 0.567471590909122  C 21.8076636904762 0.945785984848499  22 1.40056818181813  22 1.93181818181813  L 22 15.0681818181819  C 22 15.5994318181819  21.8076636904762 16.0542140151515  21.4229910714286 16.4325284090909  C 21.038318452381 16.8108428030303  20.5758928571428 17  20.0357142857142 17  L 1.96428571428575 17  C 1.42410714285717 17  0.961681547619037 16.8108428030303  0.577008928571416 16.4325284090909  C 0.192336309523796 16.0542140151515  0 15.5994318181819  0 15.0681818181819  L 0 1.93181818181813  C 0 1.40056818181813  0.192336309523796 0.945785984848499  0.577008928571416 0.567471590909122  C 0.961681547619037 0.189157196969745  1.42410714285717 0  1.96428571428575 0  L 20.0357142857142 0  C 20.5758928571428 0  21.038318452381 0.189157196969745  21.4229910714286 0.567471590909122  Z " fill-rule="nonzero" fill="#0079fe" stroke="none" transform="matrix(1 0 0 1 1025 296 )" />
  </g>
</svg>