<?xml version="1.0" encoding="utf-8"?>
<svg version="1.1" xmlns:xlink="http://www.w3.org/1999/xlink" width="22px" height="23px" xmlns="http://www.w3.org/2000/svg">
  <g transform="matrix(1 0 0 1 -505 -639 )">
    <path d="M 21.8477460317461 3.77859649122809  C 21.8477460317461 2.14596491228077  20.8336507936507 0.906374269005895  18.9591111111112 0.906374269005895  L 17.5147936507936 0.906374269005895  C 17.1153015873015 0.906374269005895  16.6543492063491 1.14824561403509  16.6543492063491 1.54128654970752  C 16.6543492063491 1.93432748538007  17.1153015873015 2.32736842105264  17.5147936507936 2.32736842105264  L 18.9591111111112 2.32736842105264  C 19.8195555555556 2.32736842105264  20.4034285714287 2.90181286549709  20 3.74836257309948  L 20 20.1049122807018  C 20.4034285714287 20.9514619883041  19.8195555555556 21.5259064327484  18.9591111111112 21.5259064327484  L 3.40965079365071 21.5259064327484  C 2.54920634920643 21.5259064327484  1.59657142857134 20.9514619883041  2 20.1049122807018  L 2 3.74836257309948  C 1.59657142857134 2.90181286549709  2.18044444444445 2.32736842105264  3.04088888888884 2.32736842105264  L 4.85396825396833 2.32736842105264  C 5.25346031746028 2.32736842105264  5.40711111111114 1.93432748538007  5.40711111111114 1.54128654970752  C 5.40711111111114 1.14824561403509  5.25346031746028 0.906374269005895  4.85396825396833 0.906374269005895  L 3.04088888888884 0.906374269005895  C 1.01269841269846 0.906374269005895  0.152253968253945 2.14596491228077  0.152253968253945 3.77859649122809  L 0.152253968253945 19.9537426900585  C 0.152253968253945 21.7073099415205  1.22780952380947 22.9469005847953  3.1945396825397 23  L 18.8054603174603 23  C 20.7721904761905 22.9469005847953  21.8477460317461 21.9189473684211  21.8477460317461 19.9537426900585  L 21.8477460317461 3.77859649122809  Z M 5.59149206349207 7  C 5.19200000000001 6.59035087719299  4.85396825396833 6.9229239766082  4.85396825396833 7.31596491228069  C 4.85396825396833 7.70900584795321  5.19200000000001 8.04157894736841  5.59149206349207 8  L 16.439238095238 8  C 16.8387301587301 8.04157894736841  17.176761904762 7.70900584795321  17.176761904762 7.31596491228069  C 17.176761904762 6.9229239766082  16.8387301587301 6.59035087719299  16.439238095238 7  L 5.59149206349207 7  Z M 17.176761904762 11.2463742690059  C 17.1460317460318 10.8230994152047  16.808 10.5207602339181  16.4085079365079 10.5207602339181  L 5.59149206349207 10.5207602339181  C 5.19200000000001 10.5207602339181  4.85396825396833 10.8533333333333  4.85396825396833 11.2463742690059  C 4.85396825396833 11.6394152046784  5.19200000000001 11.9719883040935  5.59149206349207 12  L 16.439238095238 12  C 16.8387301587301 11.9719883040935  17.176761904762 11.6394152046784  17.176761904762 11.2463742690059  Z M 17.176761904762 15.5093567251463  C 17.1460317460318 15.086081871345  16.808 14.7837426900584  16.4085079365079 14.7837426900584  L 5.59149206349207 14.7837426900584  C 5.19200000000001 14.7837426900584  4.85396825396833 15.1163157894736  4.85396825396833 15.5093567251463  C 4.85396825396833 15.9023976608186  5.19200000000001 16.2349707602339  5.59149206349207 16  L 16.439238095238 16  C 16.8387301587301 16.2349707602339  17.176761904762 15.9023976608186  17.176761904762 15.5093567251463  Z M 7.40457142857133 1.45058479532156  C 7.40457142857133 2.11573099415205  7.89625396825397 2.69017543859647  8.51085714285716 2.69017543859647  L 13.5506031746031 2.69017543859647  C 14.1344761904762 2.69017543859647  14.6261587301588 2.11573099415205  14.6261587301588 1.45058479532156  C 14.6261587301588 0.785438596491204  14.1344761904762 0.210994152046851  13.519873015873 0.210994152046851  L 8.51085714285716 0.210994152046851  C 7.89625396825397 0.210994152046851  7.40457142857133 0.785438596491204  7.40457142857133 1.45058479532156  Z " fill-rule="nonzero" fill="#0079fe" stroke="none" transform="matrix(1 0 0 1 505 639 )" />
  </g>
</svg>