<?xml version="1.0" encoding="utf-8"?>
<svg version="1.1" xmlns:xlink="http://www.w3.org/1999/xlink" width="22px" height="24px" xmlns="http://www.w3.org/2000/svg">
  <g transform="matrix(1 0 0 1 -552 -587 )">
    <path d="M 6.04646198830415 2.63202899273101  L 7.6472245668341 3.53562597765423  L 11.9709398976983 0.326249999999984  C 12.6848145859724 -0.163124999999946  13.6536445012788 0  14.112563938619 0.761250008496081  L 18.6262938440625 7.7  L 20.625 7.7  C 21.4041666738282 7.7  22 8.32562499217501  22 9.14374999929502  L 22 14.4375000042297  L 21.5416666738281 14.4375000042297  C 20.7625 14.4375000042297  20.1666666738281 15.0631249964047  20.1666666738281 15.8812500035248  C 20.1666666738281 16.6993750106448  20.7625 17.3250000028198  21.5416666738281 17.3250000028198  L 22 17.3250000028198  L 22 21.656250000705  C 22 22.474375007825  21.4041666738282 23.1  20.625 23  L 1.375 23  C 0.595833326171828 23.1  0 22.474375007825  0 21.656250000705  L 0 16.8437500105744  L 0.458333326171896 16.8437500105744  C 1.23749999999995 16.8437500105744  1.8333333261719 16.2181250183994  1.8333333261719 15.4000000112793  C 1.8333333261719 14.5818750041592  1.23749999999995 13.9562500119842  0.458333326171896 13.9562500119842  L 0 13.9562500119842  L 0 9.14374999929502  C 0 8.32562499217501  0.595833326171828 7.7  1.40406397743584 7.69996111316407  L 4.11308153909079 3.1405797029212  C 4.30170401385396 2.8169565217391  4.58463773705068 2.58579711589677  4.9618827086814 2.49333334055708  C 5.33912768031189 2.40086956521738  5.71637265194249 2.44710146372284  6.04646198830415 2.63202899273101  Z M 19.7725703324809 9.46125000000002  L 18.5487851662405 9.46125000000002  L 18.0309913790525 9  L 1.375 9  C 1.10000000000002 8.66250000704955  0.916666673828104 8.85499999943603  0.916666673828104 9.14374999929502  L 0.916666673828104 13.0418749973917  C 1.97083334765625 13.2825000047938  2.75 14.2449999892847  2.75 15.4000000112793  C 2.75 16.555000033274  1.97083332617183 17.5175000177648  0.916666673828104 17.7581250026083  L 0.916666673828104 21.656250000705  C 0.916666673828104 21.945000000564  1.10000000000002 22.1374999929505  1.375 22  L 20.625 22  C 20.9 22.1374999929505  21.0833333261719 21.945000000564  21.0833333261719 21.656250000705  L 21.0833333261719 18.2393749948538  C 20.0291666523437 17.9987499874518  19.25 17.0362500029608  19.25 15.8812500035248  C 19.25 14.7262500040888  20.0291666738282 13.7637499970392  21.0833333261719 13.5231250121958  L 21.0833333261719 9.14374999929502  C 21.0833333261719 8.85499999943603  20.9 8.66250000704955  20.625 8.66250000704955  L 19.2529263793648 8.6625048974153  L 19.7725703324809 9.46125000000002  Z M 8.64582645422024 4.09931564516747  L 15.0245894898466 7.70003672981432  L 17.4070746629833 7.70004314086705  L 13.2967071690928 1.35937499150396  C 13.1437340233126 1.08749998300781  12.8377877317525 1.03312499150388  12.5828324808184 1.19624999150392  L 8.64582645422024 4.09931564516747  Z M 13.1393866419678 8  L 7.81494102210024 4.68598904388226  L 6.80949892501951 4.11683785563557  L 5.57490579034402 3.41797100726899  C 5.43343892874555 3.37173913043475  5.33912768031189 3.32550725360052  5.19766081871353 3.37173913043475  C 5.05619395711494 3.41797102894022  4.9618827086814 3.51043478260869  4.91472709551658 3.60289855794839  L 2.48822556638356 8  L 13.1393866419678 8  Z M 13.921450624652 14.0050724709918  L 11.2807358674464 14.0050724709918  L 11.2807358674464 15.2995652173913  L 14.0157618509814 15.2995652173913  C 14.2515399610136 15.2995652173913  14.5344736842105 15.4844927463995  14.5344736842105 15.8081159492527  C 14.5344736842105 16.0392753767663  14.3458512094473 16.3166666811141  14.0157618509814 16.3166666594429  L 11.3750471158802 16.3166666594429  L 11.3750471158802 18.9981159492527  C 11.3750471158802 19.2292753767663  11.1864246411169 19.5066666811142  10.856335282651 19.5066666594429  C 10.6205571726189 19.5066666594429  10.337623449422 19.3217391304348  10.337623449422 18.9981159492527  L 10.337623449422 16.3166666594429  L 7.69690871432044 16.3166666594429  C 7.46113060428843 16.3166666594429  7.17819688109159 16.1317391304348  7.17819688109159 15.8081159492527  C 7.17819688109159 15.5769565217391  7.36681935585466 15.2995652173913  7.69690871432044 15.2995652173913  L 10.337623449422 15.2995652173913  L 10.337623449422 14.0050724709918  L 7.69690871432044 14.0050724709918  C 7.46113060428843 14.0050724709918  7.17819688109159 13.8201449419837  7.17819688109159 13.4965217391304  C 7.17819688109159 13.2653623116169  7.36681935585466 12.9879710072691  7.69690871432044 12.9879710072691  L 9.6302891414299 12.9879710072691  L 7.31966374269007 10.7226086956522  C 7.13104126792689 10.537681166644  7.13104126792689 10.2140579637907  7.31966374269007 10.0291304347826  C 7.50828621745325 9.84420290577445  7.83837557591914 9.84420290577445  8.02699805068221 10.0291304347826  L 10.8091796694864 12.7568116014267  L 13.5913612661863 10.0291304347826  C 13.7799837409493 9.84420290577445  14.1100730994152 9.84420290577445  14.2986955741785 10.0291304347826  C 14.4873180489416 10.2140579637907  14.4873180489416 10.537681166644  14.2986955741785 10.7226086956522  L 11.9880701754387 12.9879710072691  L 13.921450624652 12.9879710072691  C 14.1572287346842 12.9879710072691  14.4401624578811 13.1728985362772  14.4401624357769 13.4965217391304  C 14.4401624357769 13.727681166644  14.2515399610136 14.0050724709918  13.921450624652 14.0050724709918  Z " fill-rule="nonzero" fill="#0079fe" stroke="none" transform="matrix(1 0 0 1 552 587 )" />
  </g>
</svg>