<?xml version="1.0" encoding="utf-8"?>
<svg version="1.1" xmlns:xlink="http://www.w3.org/1999/xlink" width="6px" height="11px" xmlns="http://www.w3.org/2000/svg">
  <g transform="matrix(1 0 0 1 -78 -447 )">
    <path d="M 4.30295572916668 10.7266499999999  C 3.94880859374996 10.7266499999999  3.59458723958335 10.5977614285715  3.32500000000005 10.3400078571429  L 0.56111848958335 7.7065842857143  C 0.310283854166642 7.46848928571431  0.155290364583379 7.14089357142856  0.154325520833368 6.77744571428568  L 0.154325520833368 1.50355071428572  C 0.154325520833368 0.774934285714266  0.772493489583326 0.185954999999964  1.53721874999997 0.185954999999964  C 2.30194401041672 0.185954999999964  2.92003776041668 0.774934285714266  2.92003776041668 1.50355071428572  L 2.92003776041668 6.22790142857141  L 5.28093619791662 8.47638000000001  C 5.82013541666663 8.99198142857148  5.82013541666663 9.82619785714284  5.28093619791662 10.3400078571429  C 5.01129947916672 10.5977378571429  4.65717708333329 10.7266264285714  4.30293098958327 10.7266264285714  Z " fill-rule="nonzero" fill="#0079fe" stroke="none" transform="matrix(1 0 0 1 78 447 )" />
  </g>
</svg>