<?xml version="1.0" encoding="utf-8"?>
<svg version="1.1" xmlns:xlink="http://www.w3.org/1999/xlink" width="23px" height="19px" xmlns="http://www.w3.org/2000/svg">
  <g transform="matrix(1 0 0 1 -249 -590 )">
    <path d="M 16.9689072779606 9.24721557617193  L 16.9689782072369 9.24951171875  C 16.7079899945175 9.19820800781253  16.5385399533992 9.12150756835945  16.4606280838816 9.01941040039063  C 16.3827162143641 8.91731323242198  16.3696415844298 8.82341878255212  16.4214041940789 8.73772705078127  L 16.4998519736842 8.6099780273438  C 16.5170956688597 8.5930623372395  16.5346230811404 8.56741048177085  16.5524342105263 8.53302246093747  C 16.5702453399123 8.49863444010413  16.6050322094299 8.4260314941406  16.656794819079 8.3152136230469  C 16.7085574287281 8.2043957519532  16.7477891995614 8.0935778808593  16.7744901315789 7.9827600097656  C 16.8011910635965 7.8719421386719  16.8228875411185 7.73547241210937  16.8395795641447 7.5733508300782  C 16.8562715871711 7.41122924804685  16.8518266858553 7.25755777994797  16.8262448601973 7.11233642578125  C 16.8006630345395 6.9671150716145  16.7483487527412 6.8093461100261  16.6693020148027 6.63902954101567  C 16.590255276864 6.46871297200525  16.4814576480263 6.3150415039062  16.3429091282895 6.17801513671873  C 16.099180372807 5.93892252604175  15.7817009320175 5.78525105794267  15.390470805921 5.71700073242192  C 14.9992406798246 5.648750406901  14.6080184347588 5.64439005533848  14.2168040707237 5.70391967773438  C 13.8255897066886 5.76344930013028  13.4560875822368 5.84014973958332  13.1082976973684 5.93402099609375  C 12.7605078125 6.02789225260418  12.4736382949562 6.1174263509115  12.2476891447368 6.2026232910157  L 11.9087890625 6.3565808105468  C 11.7346182839913 6.40788452148445  11.5910416666667 6.44200968424482  11.4780592105263 6.4589562988281  C 11.365076754386 6.47590291341137  11.2779913651316 6.47154256184905  11.2168030427632 6.44587524414055  C 11.1556147203947 6.42020792643223  11.107753220943 6.39455607096358  11.0732185444079 6.36891967773443  C 11.0386838678728 6.34328328450528  11.0256092379386 6.28350626627605  11.0339946546052 6.1895886230468  C 11.0423800712719 6.09567097981773  11.0510019188596 6.01461018880212  11.0598601973684 5.94640625000002  C 11.0687184758772 5.87820231119792  11.0904149533991 5.77147420247402  11.1249496299342 5.62622192382813  C 11.1594843064693 5.4809696451822  11.1856335663377 5.36578369140625  11.2033974095394 5.28066406250002  C 11.2033974095394 5.07595947265625  11.1903227796053 4.88408081054695  11.1641735197368 4.7050280761718  C 11.1380242598684 4.52597534179685  11.081540912829 4.32563110351558  10.9947234786184 4.10399536132817  C 10.9079060444079 3.8823596191406  10.7818568393641 3.7032991536459  10.6165758634868 3.56681396484368  C 10.4512948876097 3.43032877604168  10.2426051946272 3.31951090494798  9.99050678453943 3.2343603515624  C 9.73840837445175 3.14920979817703  9.41229920504389 3.12355794270837  9.01217927631581 3.15740478515627  C 8.61205934758772 3.19125162760417  8.1599088541667 3.29360392252607  7.65572779605264 3.46446166992178  C 7.04693393640349 3.66916625976558  6.42951822916666 3.9718705240885  5.8034806743421 4.37257446289053  C 5.17744311951753 4.77327840169275  4.63403817160088 5.19116088867187  4.17326583059213 5.62622192382813  C 3.71249348958332 6.06128295898435  3.29067708333332 6.48354125976567  2.90781661184212 6.89299682617192  C 2.52495614035087 7.30245239257818  2.22918105811402 7.63518432617192  2.02049136513159 7.8911926269532  L 1.73334601151316 8.3006018066406  C 1.15960697642544 9.03430053710937  0.733621504934206 9.76799153645842  0.455389597039471 10.5016748046875  C 0.177157689144735 11.2353580729166  0.0466635827850723 11.7897334798177  0.0639072779605385 12.1648010253906  L 0.0639072779605385 12.7019824218751  C 0.168535841557059 13.5208317057293  0.425071271929824 14.2545227050781  0.833513569078946 14.9030554199218  C 1.24195586622807 15.5515881347656  1.72888534813598 16.0761987304688  2.29430201480261 16.4768872070313  C 2.8597186814693 16.8775756835937  3.52499588815789 17.2187654622397  4.29013363486843 17.5004565429687  C 5.05527138157896 17.7821476236978  5.79011444627196 17.9868676757813  6.49466282894741 18.1146166992188  C 7.19921121162281 18.2423657226563  7.94268400493422 18.3318998209636  8.72508120888159 18.3832189941406  C 10.0122426672149 18.4858573404949  11.3469740268641 18.3878653971355  12.729275287829 18.0892431640625  C 14.1115765487939 17.7906209309896  15.3984621710526 17.2744681803386  16.5899321546053 16.5407849121093  C 17.7814021381579 15.8071016438802  18.6205821683114 14.9284676106771  19.1074722450658 13.9048828124999  C 19.4029636101974 13.3076692708334  19.5551699561403 12.7445654296875  19.5640912828948 12.2155712890625  C 19.5730126096491 11.6865771484375  19.4817423930921 11.2558610026041  19.2902806332237 10.9234228515625  C 19.0988188733552 10.5909847005207  18.8509052905702 10.2967382812499  18.5465398848684 10.04068359375  C 18.2421744791667 9.78462890625005  17.9553049616228 9.59684000651038  17.6859313322369 9.4773168945313  C 17.4165577028509 9.35779378255205  17.1775496847587 9.28109334309897  16.9689072779606 9.24721557617193  Z M 9.01395250822372 17.2071069335938  L 9.013125 17.2079650878907  C 7.13498081140352 17.2931311035156  5.53952131304823 16.9347473144531  4.22674650493423 16.1328137207031  C 2.91397169682017 15.3308801269531  2.25760005482459 14.3157763671874  2.25763157894738 13.0875024414062  C 2.25763157894738 11.8761596679688  2.90983415570179 10.831298828125  4.21423930921054 9.95291992187495  C 5.51864446271929 9.07454101562507  7.11854886239036 8.59250569661455  9.01395250822372 8.5068139648437  C 10.909356154057 8.42112223307285  12.509260553728 8.7281868489583  13.8136657072368 9.4280078125  C 15.1180708607456 10.1278287760417  15.7702734375 11.0831555175781  15.7702734375 12.2939880371093  C 15.7702734375 13.5222774251302  15.1049962308114 14.6269152832032  13.7744418174342 15.6079016113282  C 12.443887404057 16.5888879394532  10.8570576343201 17.1219563802083  9.01395250822372 17.2071069335938  Z M 8.25604954769739 10.1183349609376  L 8.25687705592105 10.1191235351562  C 7.75271175986842 10.1704272460938  7.3005612664474 10.2856131998698  6.90042557565789 10.4646813964844  C 6.50028988486844 10.6437495930989  6.18727110745613 10.8484696451823  5.96136924342102 11.0788415527345  C 5.73546737938597 11.3092134602864  5.54403714364037 11.5565010579426  5.38707853618422 11.8207043457031  C 5.23011992872807 12.0849076334635  5.12132229989032 12.345028889974  5.06068564967103 12.6010681152344  C 5.00004899945174 12.8571073404948  4.9608172286184 13.0915690104167  4.94299033717107 13.304453125  C 4.92516344572368 13.5173372395833  4.91654159813595 13.6835640462239  4.91712479440787 13.8031335449218  L 4.94299033717107 14.0078613281251  L 4.94299033717107 14.1102368164062  C 4.94299033717107 14.1615405273437  4.96051774945175 14.2638928222656  4.99557257401318 14.4172937011719  C 5.03062739857455 14.5706945800782  5.07848889802631 14.7115401204427  5.13915707236845 14.8398303222657  C 5.19982524671053 14.9681205240885  5.29971731085527 15.1089660644532  5.43883326480261 15.2623669433593  C 5.57794921875001 15.4157678222657  5.74323019462719 15.5437797037761  5.93467619243421 15.6464025878906  C 7.08272169682016 16.1923124186198  8.15228789747806 16.3585392252605  9.14337479440792 16.1450830078125  C 10.1344616913377 15.9316267903645  10.9344099506579 15.4411413574218  11.5432195723684 14.6736267089843  C 11.7869483278509 14.3837561035157  11.9477765213816 14.0253723144531  12.0257041529605 13.5984753417969  C 12.1036317845395 13.1715783691406  12.0861043722588 12.7408622233074  11.9731219161184 12.3063269042969  C 11.8601394599781 11.8717915852865  11.6645401589912 11.4751928710937  11.3863240131579 11.1165307617187  C 11.1081078673246 10.7578686523438  10.6951891447368 10.4805456542968  10.1475678453947 10.284561767578  C 9.59994654605259 10.0885778808595  8.96944044682016 10.0331689453125  8.25604954769739 10.1183349609376  Z M 7.31862458881579 14.9545446777343  L 7.31777343750002 14.9561218261718  C 7.2131448739035 14.973037516276  7.11325280975876 14.9773978678385  7.0180972450658 14.9692028808594  C 6.92294168037279 14.9610078938802  6.83585629111843 14.9438138834635  6.75684107730262 14.9176208496094  C 6.67782586348682 14.8914278157552  6.59963815789473 14.8616861979167  6.52227796052631 14.8283959960938  C 6.44491776315789 14.7951057942708  6.37981256853072 14.7481547037761  6.32696237664476 14.6875427246093  C 6.27411218475879 14.6269307454426  6.22625068530704 14.5671537272135  6.18337787828949 14.5082116699218  C 6.14050507127195 14.4492696126303  6.10571820175437 14.3810270182291  6.07901726973682 14.3034838867188  C 6.05231633771928 14.2259407552084  6.0392417077851 14.1448799641926  6.03979337993422 14.0603015136719  C 6.03979337993422 13.8725126139322  6.09210766173248 13.689091796875  6.19673622532895 13.5100390625  C 6.30136478892547 13.330986328125  6.44494140624999 13.177314860026  6.62746607730264 13.0490246582031  C 6.80999074835529 12.9207344563803  7.01421977796053 12.8481315104167  7.24015316611843 12.8312158203125  C 7.39652857730266 12.8143001302083  7.54873492324566 12.8186604817708  7.69677220394738 12.844296875  C 7.84480948464915 12.8699332682292  7.97085868969299 12.9125162760416  8.07491981907896 12.9720458984375  C 8.17898094846493 13.0315755208334  8.27025116502193 13.0998181152344  8.34873046874998 13.1767736816407  C 8.42720977247802 13.2537292480468  8.48369311951757 13.3432633463541  8.51818050986844 13.4453759765625  C 8.55266790021932 13.5474886067708  8.5701953125 13.6583064778645  8.5707627467105 13.7778295898438  C 8.5707627467105 13.9656184895832  8.51427939967107 14.1446789550781  8.40131270559215 14.3150109863281  C 8.28834601151311 14.4853430175782  8.13613966557017 14.6302783203125  7.9446936677632 14.7498168945313  C 7.75324766995618 14.86935546875  7.54455797697364 14.937598063151  7.31862458881579 14.9545446777343  Z M 9.53483347039474 13.1136877441406  C 9.41296121162281 13.1988537597656  9.28691200657892 13.2373392740885  9.15668585526316 13.2291442871094  C 9.02645970394735 13.2209493001302  8.93518948739035 13.1655403645833  8.88287520559214 13.0629174804688  L 8.83029296874997 12.9605419921875  C 8.81304927357462 12.9261539713541  8.80442742598689 12.8920288085938  8.80442742598689 12.8581665039062  L 8.80442742598689 12.755791015625  C 8.80442742598689 12.7044873046876  8.81304927357462 12.661904296875  8.83029296874997 12.6280419921875  L 8.88287520559214 12.5256665039063  C 8.90011890076755 12.4912784830729  8.92626816063597 12.4656266276042  8.96132298519734 12.4487109374999  L 9.0397707648026 12.3463354492188  C 9.17890248081142 12.2436971028645  9.31357353344299 12.2011140950521  9.44378392269738 12.2185864257813  C 9.57399431195176 12.2360587565104  9.66526452850877 12.3043013509114  9.7175945723684 12.4233142089844  C 9.76989309210524 12.4915645345053  9.79158956962715 12.5682649739583  9.7826840049342 12.6534155273437  C 9.77377844024124 12.7385660807291  9.74762918037283 12.8196268717449  9.70423622532894 12.8965979003907  C 9.66084327028511 12.9735689290365  9.60435992324557 13.046171875  9.53478618421047 13.1144067382813  Z M 18.7945795641448 7.76416259765622  L 18.7953597861842 7.7649279785156  C 18.8999883497807 7.7649279785156  18.9957034676535 7.73927612304695  19.0825051398027 7.68797241210947  C 19.1693068119517 7.6366687011718  19.2388726699562 7.572801920573  19.2912027138158 7.49637207031248  C 19.3435327576754 7.41994222005215  19.378319627193 7.33888142903638  19.3955633223684 7.25318969726553  C 19.4128070175439 7.23627400716143  19.4214288651316 7.21062215169277  19.4214288651316 7.1762341308594  C 19.6301027960526 5.2311771647135  18.9344836211623 4.1221789550782  17.3345713404605 3.84923950195315  C 16.8648934347588 3.7640734863281  16.4300023985746 3.75561564127605  16.0298982319079 3.8238659667968  C 15.9080259731359 3.8238659667968  15.8036890076755 3.85360758463543  15.7168873355263 3.91309082031248  C 15.6300856633772 3.97257405598953  15.556074904057 4.04927449544277  15.4948550575658 4.14319213867185  C 15.4336352110745 4.23710978190113  15.403316885965 4.3351017252605  15.4039000822368 4.43716796874998  C 15.4039000822368 4.60802571614587  15.4648362116228 4.7529610188802  15.5867084703947 4.87197387695315  C 15.7085807291667 4.9909867350261  15.8563264117325 5.05076375325513  16.0299455180921 5.0513049316406  C 17.3866649533991 4.74396199544267  18.1170552357456 5.17058064778655  18.2211163651315 6.33116088867197  C 18.256171189693 6.62103149414062  18.2386437774122 6.89398640950517  18.1685341282895 7.15002563476563  C 18.1685341282895 7.32088338216153  18.2294702576755 7.46581868489585  18.3513425164474 7.5848315429688  C 18.4732147752193 7.70384440104175  18.6209604577851 7.76362141927078  18.7945795641448 7.76416259765622  Z M 18.3521227384869 0.549172363281201  C 17.5869534676535 0.3783146158855  16.5607881030702 0.412439778645876  15.2736266447368 0.651547851562526  C 15.2563829495614 0.651547851562526  15.2388555372807 0.660005696614576  15.2210444078947 0.676921386718675  L 15.1951788651315 0.728503417968824  L 15.1693133223684 0.753876953125001  C 14.9778830866229 0.805180664062476  14.821231839364 0.911908772786376  14.6993595805921 1.0740612792969  C 14.5774873218202 1.23621378580725  14.5165511924342 1.41116902669268  14.5165511924342 1.5989270019532  C 14.5165511924342 1.85495076497395  14.6036365816886 2.0681286621093  14.7778073601974 2.2384606933594  C 14.9519781387061 2.40879272460933  15.1606678316886 2.49422159830735  15.4038764391448 2.49474731445315  L 15.48232421875 2.49474731445315  C 15.4995679139254 2.49474731445315  15.5387996847588 2.4862894694011  15.60001953125 2.4693737792968  C 15.6612393777412 2.45245808919267  15.7263445723684 2.43963216145835  15.7953351151315 2.43089599609382  C 15.8643256578948 2.4221598307291  15.9383364172149 2.40496582031253  16.0173673930921 2.37931396484368  C 16.0963983689693 2.35366210937505  16.1659642269737 2.3280102539062  16.2260649671052 2.30235839843755  C 16.2861657072368 2.27670654296873  16.4035851836622 2.2638806152344  16.5783233963816 2.2638806152344  C 16.7530616091008 2.2638806152344  16.9661962033991 2.27670654296873  17.2177271792763 2.30235839843755  C 17.4692581551535 2.3280102539062  17.7475058251097 2.3918770345052  18.0524701891447 2.49395874023438  C 18.3574345531798 2.59604044596352  18.6618314830044 2.724052327474  18.9656609786184 2.8779943847656  C 19.2694904742325 3.0319364420572  19.573887404057 3.24511433919273  19.8788517680921 3.5175280761718  C 20.1838161321272 3.78994181315107  20.4489812911184 4.1054720052083  20.6743472450658 4.4641186523437  C 21.1267814555921 5.47077229817702  21.2138668448465 6.44330078124997  20.935603412829 7.38170410156255  C 20.935603412829 7.39861979166668  20.9311585115132 7.41581380208325  20.9222687088816 7.43328613281253  C 20.91337890625 7.45075846354158  20.9003042763158 7.4933414713542  20.8830448190789 7.56103515625  C 20.8657853618421 7.6287288411458  20.8482579495615 7.6925956217448  20.8304625822369 7.7526354980468  C 20.8126672149123 7.812675374349  20.7951398026316 7.88937581380208  20.7778803453947 7.9827368164062  C 20.7606208881579 8.0760978190105  20.7519990405702 8.15715861002607  20.7520148026316 8.22591918945315  C 20.7520148026316 8.37932006835945  20.7954235197369 8.50733194986975  20.8822409539474 8.60995483398438  C 20.9690583881579 8.712577718099  21.0778560169956 8.78518066406252  21.2086338404605 8.82776367187498  C 21.3394116639254 8.8703466796876  21.4916180098684 8.89163045247398  21.6652528782894 8.8916149902343  C 22.1521902412281 8.8916149902343  22.4390597587719 8.60146606445315  22.5258614309211 8.0211682128907  C 22.7345353618421 7.35570434570317  22.8519548382675 6.7202681477865  22.8781198601974 6.11485961914067  C 22.9042848821272 5.50945109049485  22.860876165022 4.97638264973955  22.7478937088816 4.515654296875  C 22.6349112527412 4.05492594401045  22.4654612116228 3.62420979817708  22.2395435855263 3.22350585937502  C 22.0136259594298 2.822801920573  21.7526377467105 2.481612141927  21.4565789473684 2.1999365234374  C 21.1605201480264 1.918260904948  20.8299660773026 1.66223714192705  20.4649167351973 1.43186523437492  C 20.0998673930921 1.201493326823  19.7476089638158 1.01807250976557  19.4081414473684 0.88160278320305  C 19.0686739309211 0.745133056640526  18.7164155016447 0.634315185546825  18.3513661595395 0.549149169921776  Z " fill-rule="nonzero" fill="#0079fe" stroke="none" transform="matrix(1 0 0 1 249 590 )" />
  </g>
</svg>