<?xml version="1.0" encoding="utf-8"?>
<svg version="1.1" xmlns:xlink="http://www.w3.org/1999/xlink" width="23px" height="21px" xmlns="http://www.w3.org/2000/svg">
  <g transform="matrix(1 0 0 1 -1204 -438 )">
    <path d="M 20.0373458765048 12.5823135508006  C 19.2303819805825 11.3994273247811  18.1404598431068 10.5117185662391  16.8757729180583 9.99993253220441  C 17.4349769320388 9.60219733971667  17.903767114563 9.06894118585387  18.2446594982524 8.44635661771758  C 18.6387945133981 7.7263495468535  18.8469051153398 6.90630345524119  18.8469051153398 6.07261234442149  C 18.8469051153398 3.46839440440567  16.8621314485436 1.35182695369735  14.4256013918447 1.35182695369735  C 14.0797287891262 1.35182695369735  13.7974682594174 1.63873915864406  13.7974682594174 1.99064860562157  C 13.7974682594174 2.342875947312  14.0797769071844 2.62932353690917  14.4256013918447 2.62932353690917  C 16.170049416699 2.62932353690917  17.5894840170873 4.17492763013843  17.5894840170873 6.07266125130013  C 17.5894840170873 7.97271794920903  16.1700494166989 9.51854212339322  14.4256013918447 9.51854212339322  C 14.0797287891262 9.51854212339322  13.7974682594174 9.80528315426386  13.7974682594174 10.1570214271653  L 13.7974682594174 10.1597113055036  C 13.7974682594174 10.5117430196783  14.0797769071844 10.7985329574278  14.4256013918447 10.7985329574278  C 17.5628747308738 10.7985329574278  20.1168850267961 13.5649261078083  20.1168850267961 16.9646388862388  C 20.1168850267961 17.316572786656  20.3988809071844 17.6034360847239  20.7454271627186 17.6034360847239  C 21.0916365918446 17.6034360847239  21.3738971215533 17.3165238797772  21.3738971215533 16.9646388862388  C 21.3709138019417 15.3756543914435  20.9101593351455 13.8625000123507  20.0373458765048 12.58233800424  Z M 13.5469897071845 11.4968498275091  C 12.8891917918447 11.023137798682  12.1701395883496 10.646897179462  11.4137477716505 10.3817729890561  C 13.014298743301 9.39360950129549  13.9970619650485 7.63173918966095  13.9970619650485 5.7178418450294  C 13.9970619650485 2.71063122304622  11.5894749203883 0.263966793340842  8.63067145941761 0.263966793340842  C 5.66914932815519 0.263966793340842  3.26158634252431 2.71063122304622  3.26158634252431 5.72053172336769  C 3.26158634252431 6.7437369898455  3.54389499029116 7.74270889783861  4.07685060349513 8.60892308311304  C 4.52956935456314 9.34230618535094  5.14213629514563 9.95420460045193  5.86655366213597 10.3952957410663  C 5.09387388271853 10.6630853563711  4.36683408155341 11.042040307369  3.69871484271846 11.5240420521661  C 2.96898043029114 12.0490329434983  2.3297801444661 12.6824259318669  1.79150748582515 13.4078616662869  C 0.678608975533962 14.9183017136015  0.0900288869902397 16.7128173668884  0.0900288869902397 18.6022368186407  C 0.0900288869902397 18.9541707190576  0.372337534757321 19.2410584705649  0.718546963883568 19.2410584705649  C 1.0647563930097 19.2410584705649  1.34706504077667 18.9541218121788  1.34706504077667 18.6022368186407  C 1.34706504077667 16.6343462797263  2.10340873941755 14.7775966230652  3.47532675728155 13.3781018304885  C 4.84390057009716 11.9813702765684  6.65455904310681 11.2126030474612  8.57509510213595 11.2098887156835  C 8.63865905708724 11.2152684723601  8.7029447829126 11.2098887156835  8.76653279689322 11.1963170567944  L 8.81746576155342 11.185508636562  C 10.6867560885437 11.2234359211332  12.4418141452428 11.9894154581441  13.778702216699 13.3537217513672  C 15.1499706407767 14.7532165439438  15.9039324955339 16.6072518688268  15.9039324955339 18.5778567395193  C 15.9039324955339 18.9297906399363  16.1859043168931 19.2166783914436  16.5324746314564 19.2166783914436  C 16.878395352233 19.2166783914436  17.1603431145631 18.9297417330574  17.1603431145631 18.5778567395193  C 17.1603431145631 16.6884372877671  16.5724607378642 14.8939460879196  15.4565307899029 13.3833593199681  C 14.9185227805826 12.6553804278465  14.2763151161165 12.0219629860385  13.5469175300969 11.4968498275091  Z M 4.51871873242715 5.72055617680712  C 4.51871873242715 3.41445011700125  6.36462368310686 1.54131665591603  8.63074363650492 1.54131665591603  C 10.8971282392233 1.54131665591603  12.7427685405826 3.41718890221864  12.7427685405826 5.72055617680712  C 12.7427685405826 8.02392345139583  10.8971522982524 9.89982015113787  8.63074363650492 9.89982015113787  C 6.36467180116506 9.89982015113787  4.51871873242715 8.02394790483527  4.51871873242715 5.72055617680712  Z " fill-rule="nonzero" fill="#0079fe" stroke="none" transform="matrix(1 0 0 1 1204 438 )" />
  </g>
</svg>