<?xml version="1.0" encoding="utf-8"?>
<svg version="1.1" xmlns:xlink="http://www.w3.org/1999/xlink" width="22px" height="20px" xmlns="http://www.w3.org/2000/svg">
  <g transform="matrix(1 0 0 1 -1018 -640 )">
    <path d="M 11 19.1071428571429  C 11.1162257701123 19.1071428571429  11.1743386551684 19.047619047619  11.1743386551684 18.9285714285714  C 11.1743386551684 18.8095238095239  11.1162257701123 18.75  11 18.75  C 10.5714174727111 18.75  10.2027638581362 18.5918898809523  9.89403915627548 18.2756696428571  C 9.5853144544148 17.9594494047618  9.4309521034844 17.5818452380952  9.4309521034844 17.1428571428571  C 9.4309521034844 17.0238095238095  9.37283921842834 16.9642857142857  9.25661344831599 16.9642857142857  C 9.14038767820381 16.9642857142857  9.08227479314763 17.0238095238095  9.08227479314763 17.1428571428571  C 9.08227479314763 17.6860119047618  9.26932564192208 18.149181547619  9.64342733947092 18.5323660714286  C 10.0175290370198 18.9155505952382  10.4697199238628 19.1071428571429  11 19.1071428571429  Z M 6.81587227595855 6.42857142857144  C 6.81587227595855 9.28571428571433  6.31828069766539 11.6852678571429  5.32309754107911 13.6272321428571  L 14.8790350774968 5.14508928571433  C 14.5739424309521 4.49032738095241  14.092695101581 3.9453125  13.4352930893835 3.51004464285711  C 12.7778910771861 3.07477678571422  11.9661267140582 2.85714285714289  11 2.85714285714289  C 10.3244377112225 2.85714285714289  9.70880433515902 2.97433035714289  9.15309987180979 3.20870535714289  C 8.59739540846056 3.44308035714289  8.15610068756558 3.74255952380952  7.82921570912481 4.10714285714289  C 7.50233073068404 4.47172619047615  7.25171891387947 4.85491071428567  7.07738025871112 5.25669642857144  C 6.9030416035427 5.65848214285711  6.81587227595855 6.04910714285711  6.81587227595855 6.42857142857144  Z M 16.8185526162452 9.50892857142856  C 17.2616633647982 12.1577380952382  18.3440158489687 14.2261904761905  20.0656100687566 15.7142857142857  C 20.0656100687566 16.1011904761905  19.9275919667482 16.4360119047618  19.6515557627317 16.71875  C 19.3755195587149 17.0014880952382  19.0486345802743 17.1428571428571  18.6709008274094 17.1428571428571  L 13.7894184826944 17.1428571428571  C 13.7894184826944 17.9315476190477  13.5170143339937 18.6049107142857  12.9722060365925 19.1629464285714  C 12.4273977391913 19.7209821428571  11.7699957269938 20  11 20  C 10.2300042730062 20  9.5744182884668 19.7228422619048  9.03324204638153 19.1685267857143  C 8.49206580429626 18.6142113095239  8.21784562793766 17.9427083333333  8.21058151730563 17.1540178571429  L 9.83411024356133 15.7142857142857  L 18.0825078662161 15.7142857142857  C 16.8766655013013 14.3229166666667  16.0521889445675 12.6153273809524  15.6090781960144 10.5915178571429  L 16.8185526162452 9.50892857142856  Z M 20.7684127724041 0.0558035714285552  C 20.8664782659363 0.0632440476190368  20.9445674552305 0.104166666666742  21.0026803402868 0.178571428571445  L 21.9179582799208 1.25  C 21.9760711649769 1.32440476190482  22.0033115798469 1.41183035714289  21.999679524531 1.51227678571422  C 21.9960474692149 1.61272321428578  21.9579108883969 1.69642857142856  21.8852697820767 1.76339285714289  L 1.48764712737437 19.8660714285714  C 1.41500602105424 19.9255952380952  1.32965272112807 19.9516369047618  1.23158722759587 19.9441964285714  C 1.13352173406366 19.936755952381  1.05543254476947 19.8958333333333  0.997319659713241 19.8214285714286  L 0.0820417200792463 18.75  C 0.0239288350230709 18.6755952380952  -0.00331157984692254 18.5881696428571  0.000320475469038684 18.4877232142857  C 0.00395253078505675 18.3872767857143  0.0420891116031044 18.3072916666667  0.114730217923295 18.2477678571429  L 2.14141708425592 16.4508928571429  C 2.00339898224763 16.2127976190477  1.9343899312434 15.9672619047618  1.9343899312434 15.7142857142857  C 2.2975954628443 15.4017857142857  2.62811249660103 15.0744047619048  2.92594103251361 14.7321428571429  C 3.22376956842635 14.389880952381  3.53249427028709 13.9453125  3.85211513809583 13.3984375  C 4.17173600590451 12.8515625  4.44232412694714 12.2619047619048  4.66387950122362 11.6294642857143  C 4.8854348755001 10.9970238095239  5.0670376413006 10.2306547619048  5.20868779862479 9.33035714285711  C 5.35033795594921 8.43005952380952  5.42116303461131 7.46279761904759  5.42116303461131 6.42857142857144  C 5.42116303461131 5.29761904761904  5.84611350658429 4.24665178571433  6.69601445053024 3.27566964285711  C 7.5459153944762 2.3046875  8.66095637649067 1.71502976190482  10.0411373965738 1.50669642857144  C 9.98302451151767 1.36532738095241  9.95396806898964 1.22023809523807  9.95396806898964 1.07142857142856  C 9.95396806898964 0.773809523809518  10.0556656178379 0.520833333333258  10.2590607155344 0.3125  C 10.4624558132307 0.104166666666742  10.7094355747194 0  11 0  C 11.2905644252806 0  11.5375441867693 0.104166666666742  11.7409392844656 0.3125  C 11.9443343821621 0.520833333333258  12.0460319310104 0.773809523809518  12.0460319310104 1.07142857142856  C 12.0460319310104 1.22023809523807  12.0169754884823 1.36532738095241  11.9588626034262 1.50669642857144  C 12.8596123217962 1.640625  13.655032436002 1.94754464285711  14.3451229460436 2.42745535714289  C 15.0352134560852 2.90736607142856  15.5727576428544 3.49330357142856  15.9577555063512 4.18526785714289  L 20.5123528726256 0.133928571428555  C 20.5849939789458 0.074404761904816  20.6703472788719 0.0483630952380736  20.7684127724041 0.0558035714285552  Z " fill-rule="nonzero" fill="#0079fe" stroke="none" transform="matrix(1 0 0 1 1018 640 )" />
  </g>
</svg>