<?xml version="1.0" encoding="utf-8"?>
<svg version="1.1" xmlns:xlink="http://www.w3.org/1999/xlink" width="22px" height="19px" xmlns="http://www.w3.org/2000/svg">
  <g transform="matrix(1 0 0 1 -938 -198 )">
    <path d="M 9.26897321428575 10.0555988771055  L 0.552455357142833 18.8217144936577  C 0.396949404761898 18.9781052886949  0.265997023809547 19.0316074027865  0.159598214285751 18.9822208359326  C 0.053199404761898 18.9328342690789  0 18.8011367574687  0 18.5871283011022  L 0 0.412871698897902  C 0 0.198863242531388  0.053199404761898 0.0671657309212605  0.159598214285751 0.0177791640674059  C 0.265997023809547 -0.0316074027864488  0.396949404761898 0.0218947113052081  0.552455357142833 0.178285506342263  L 9.26897321428575 8.94440112289465  C 9.3344494047619 9.01024987869971  9.38764880952381 9.08844527621829  9.42857142857142 9.17898731545029  L 9.42857142857142 0.412871698897902  C 9.42857142857142 0.198863242531388  9.48177083333336 0.0671657309212605  9.58816964285717 0.0177791640674059  C 9.69456845238096 -0.0316074027864488  9.82552083333336 0.0218947113052081  9.98102678571425 0.178285506342263  L 18.6975446428572 8.94440112289465  C 18.7630208333334 9.01024987869971  18.8162202380952 9.08844527621829  18.8571428571428 9.17898731545029  L 18.8571428571428 0.807964233728398  C 18.8571428571428 0.593955777361884  18.9348958333334 0.4087561516601  19.0904017857142 0.252365356623045  C 19.2459077380952 0.0959745615859902  19.4300595238095 0.0177791640674059  19.6428571428572 0.0177791640674059  L 21.2142857142858 0.0177791640674059  C 21.4270833333334 0.0177791640674059  21.6112351190476 0.0959745615859902  21.7667410714286 0.252365356623045  C 21.9222470238095 0.4087561516601  22 0.593955777361884  22 0.807964233728398  L 22 18.1920357662716  C 22 18.4060442226381  21.9222470238095 18.5912438483399  21.7667410714286 18.7476346433771  C 21.6112351190476 18.9040254384141  21.4270833333334 18.9822208359326  21.2142857142858 18.9822208359326  L 19.6428571428572 18.9822208359326  C 19.4300595238095 18.9822208359326  19.2459077380952 18.9040254384141  19.0904017857142 18.7476346433771  C 18.9348958333334 18.5912438483399  18.8571428571428 18.4060442226381  18.8571428571428 18.1920357662716  L 18.8571428571428 9.82101268454983  C 18.8162202380952 9.90332362930621  18.7630208333334 9.98151902682469  18.6975446428572 10.0555988771055  L 9.98102678571425 18.8217144936577  C 9.82552083333336 18.9781052886949  9.69456845238096 19.0316074027865  9.58816964285717 18.9822208359326  C 9.48177083333336 18.9328342690789  9.42857142857142 18.8011367574687  9.42857142857142 18.5871283011022  L 9.42857142857142 9.82101268454983  C 9.38764880952381 9.90332362930621  9.3344494047619 9.98151902682469  9.26897321428575 10.0555988771055  Z " fill-rule="nonzero" fill="#0079fe" stroke="none" transform="matrix(1 0 0 1 938 198 )" />
  </g>
</svg>