<?xml version="1.0" encoding="utf-8"?>
<svg version="1.1" xmlns:xlink="http://www.w3.org/1999/xlink" width="22px" height="22px" xmlns="http://www.w3.org/2000/svg">
  <g transform="matrix(1 0 0 1 -644 -346 )">
    <path d="M 9.95442708333329 15.4544270833333  C 10.0403645833333 15.3684895833333  10.0833333333333 15.2586805555555  10.0833333333333 15.125  L 10.0833333333333 6.875  C 10.0833333333333 6.74131944444446  10.0403645833333 6.63151041666674  9.95442708333329 6.54557291666674  C 9.86848958333329 6.45963541666674  9.7586805555556 6.41666666666674  9.625 6.41666666666674  L 5.95833333333329 6.41666666666674  C 5.82465277777777 6.41666666666674  5.71484375 6.45963541666674  5.62890625 6.54557291666674  C 5.54296875 6.63151041666674  5.5 6.74131944444446  5.5 6.875  L 5.5 15.125  C 5.5 15.2586805555555  5.54296875 15.3684895833333  5.62890625 15.4544270833333  C 5.71484375 15.5403645833333  5.82465277777777 15.5833333333333  5.95833333333329 15.5833333333333  L 9.625 15.5833333333333  C 9.7586805555556 15.5833333333333  9.86848958333329 15.5403645833333  9.95442708333329 15.4544270833333  Z M 16.37109375 15.4544270833333  C 16.45703125 15.3684895833333  16.5 15.2586805555555  16.5 15.125  L 16.5 6.875  C 16.5 6.74131944444446  16.45703125 6.63151041666674  16.37109375 6.54557291666674  C 16.28515625 6.45963541666674  16.1753472222222 6.41666666666674  16.0416666666667 6.41666666666674  L 12.375 6.41666666666674  C 12.2413194444444 6.41666666666674  12.1315104166667 6.45963541666674  12.0455729166667 6.54557291666674  C 11.9596354166667 6.63151041666674  11.9166666666667 6.74131944444446  11.9166666666667 6.875  L 11.9166666666667 15.125  C 11.9166666666667 15.2586805555555  11.9596354166667 15.3684895833333  12.0455729166667 15.4544270833333  C 12.1315104166667 15.5403645833333  12.2413194444444 15.5833333333333  12.375 15.5833333333333  L 16.0416666666667 15.5833333333333  C 16.1753472222222 15.5833333333333  16.28515625 15.5403645833333  16.37109375 15.4544270833333  Z M 20.5247395833333 5.478515625  C 21.5082465277778 7.16384548611109  22 9.00434027777771  22 11  C 22 12.9956597222223  21.5082465277778 14.8361545138889  20.5247395833333 16.521484375  C 19.5412326388889 18.2068142361111  18.2068142361111 19.5412326388889  16.521484375 20.5247395833333  C 14.8361545138889 21.5082465277777  12.9956597222222 22  11 22  C 9.00434027777777 22  7.16384548611111 21.5082465277777  5.478515625 20.5247395833333  C 3.79318576388889 19.5412326388889  2.45876736111111 18.2068142361111  1.47526041666671 16.521484375  C 0.491753472222229 14.8361545138889  0 12.9956597222223  0 11  C 0 9.00434027777771  0.491753472222229 7.16384548611109  1.47526041666671 5.478515625  C 2.45876736111111 3.79318576388891  3.79318576388889 2.45876736111109  5.478515625 1.47526041666674  C 7.16384548611111 0.491753472222285  9.00434027777777 0  11 0  C 12.9956597222222 0  14.8361545138889 0.491753472222285  16.521484375 1.47526041666674  C 18.2068142361111 2.45876736111109  19.5412326388889 3.79318576388891  20.5247395833333 5.478515625  Z " fill-rule="nonzero" fill="#0079fe" stroke="none" transform="matrix(1 0 0 1 644 346 )" />
  </g>
</svg>