<?xml version="1.0" encoding="utf-8"?>
<svg version="1.1" xmlns:xlink="http://www.w3.org/1999/xlink" width="25px" height="22px" xmlns="http://www.w3.org/2000/svg">
  <g transform="matrix(1 0 0 1 -593 -392 )">
    <path d="M 24.1612727219828 6.56556091799766  C 24.1424474073275 6.5233821042246  24.1212204181035 6.48117919548608  24.0999934525862 6.44367621817133  L 20.7526309612068 0.863467835821695  L 18.1342638599136 6.56787471770829  L 24.1612727219828 6.56556091799766  Z M 7.60397995689641 6.56556091799766  L 16.544350387931 6.56556091799766  L 12.0717634741378 0.279930007754587  L 7.60397995689641 6.56556091799766  Z M 11.1541996594827 0.00101962042822379  L 4.84405916594824 0.00101962042822379  C 4.59872370043104 0.00101962042822379  4.33213701724139 0.0900771558448525  4.1056753706896 0.233027167592581  L 6.80667003879307 6.11323534415507  L 11.1541996594827 0.00101962042822379  Z M 20.070917150862 0.160383226157393  C 19.877496849138 0.0596120281828689  19.6628252823275 0.00101962042822379  19.4599680711208 0.00101962042822379  L 12.9917532392241 0.00101962042822379  L 17.3392828599139 6.11323536770831  L 20.070917150862 0.160383226157393  Z M 7.34920758189662 7.47254996035883  L 12.0599976702587 21.9585851349538  C 12.0717634978448 21.9609230531829  12.0812246594827 21.9609230531829  12.0930389913793 21.9632609478589  L 16.7967210646552 7.47254993680556  L 7.34920758189662 7.47254996035883  Z M 3.46168496982762 1.01347976863426  L 0.206386954741447 6.44133829994217  C 0.180429372844742 6.48351711371524  0.156849237068968 6.5233821042246  0.13324482543112 6.5632229997685  L 6.01168903879307 6.5632229997685  L 3.46168496982762 1.01347976863426  Z M 0.0247567327586466 7.47254996035883  L 0.05069003879305 7.51706669236114  L 0.0978746099137879 7.51706669236114  C 0.152118668103412 7.58269692621525  0.227613967672369 7.67409237986115  0.317252493534511 7.78657724039351  L 10.6564207370689 20.5898948215278  L 6.3914944310344 7.47252588894673  L 0.0247567327586466 7.47252584184031  Z M 24.1801708168102 7.47254996035883  L 17.7568358900863 7.47254996035883  L 13.383372963362 20.9414973637732  L 24.0056243103447 7.78660133535874  C 24.0810953577586 7.6928438449653  24.1377168383619 7.58503482089114  24.1801708168102 7.47254996035883  Z " fill-rule="nonzero" fill="#0079fe" stroke="none" transform="matrix(1 0 0 1 593 392 )" />
  </g>
</svg>