<?xml version="1.0" encoding="utf-8"?>
<svg version="1.1" xmlns:xlink="http://www.w3.org/1999/xlink" width="24px" height="22px" xmlns="http://www.w3.org/2000/svg">
  <g transform="matrix(1 0 0 1 -548 -392 )">
    <path d="M 12.126199579009 21.6217816203125  C 12.0155039972865 21.6769730117188  11.8979319092086 21.7045686945313  11.7753188198704 21.7045686945313  C 11.6490606903011 21.7045686945313  11.5326260510154 21.6762606757812  11.4292205497549 21.6204625226563  C 9.91779375248598 20.8535345046875  7.17746988237047 18.7613537890624  4.72859447202381 15.9772758148438  C 3.44403938352593 14.5169203437501  2.42270305679267 13.0730009093749  1.69294443331592 11.6855919640625  C 0.84093463258057 10.0657566195313  0.408906369292708 8.55669974843758  0.408906369292708 7.20034256562494  C 0.408906369292708 4.40626574609377  1.68617137732849 2.79426589062496  2.75768522491239 1.93394519140625  C 3.94793447827374 0.978279525781289  5.57592515831584 0.407739947656239  7.11253119403011 0.407739947656239  C 8.06711927202377 0.407739947656239  9.05428006876753 0.706807578125023  10.0466370044293 1.29665885937504  C 10.7748703981267 1.72951019140629  11.3688833943978 2.23821008984376  11.7752929509629 2.63175205390624  C 12.181702507528 2.2382100640626  12.7756896601541 1.72951016562499  13.5039488974965 1.29665885937504  C 14.4962799895134 0.706833952343771  15.4833632300595 0.407739947656239  16.4378737518558 0.407739947656239  C 17.9745056564776 0.407739947656239  19.6025480238096 0.978279525781289  20.7928231208158 1.93394519140625  C 21.8643628373075 2.79423951640621  23.141679532633 4.40626574609377  23.141679532633 7.20034256562494  C 23.141679532633 8.55659422578117  22.7097029566352 10.065651096875  21.8577448684524 11.6855919640625  C 21.128193069923 13.0727370898438  20.1071410990721 14.5167092726562  18.8228962353642 15.9772494148438  C 16.3747446744397 18.7615384601563  13.6353772970764 20.8549854992187  12.126199579009 21.6217816203125  Z M 11.1703964960259 4.26076841093746  C 11.07482396861 4.1474572132812  9.20181390957634 1.97839905312492  7.11258290658259 1.97839905312492  C 5.04062063725496 1.97839905312492  1.95805033693978 3.36910575546872  1.95805033693978 7.20036896562502  C 1.95805033693978 12.0182704296875  8.75256862517506 18.2989017664062  11.775344688778 20.0333146320312  C 14.7975520153536 18.2992183601563  21.5908294296919 12.0189563656251  21.5908294296919 7.20036896562502  C 21.5908294296919 3.36910575546872  18.5092414910364 1.97839905312492  16.4379254896709 1.97839905312492  C 15.3453427557948 1.97839905312492  14.3193014709734 2.57751044374996  13.6509398701855 3.08011609296869  C 12.9189838800595 3.63055250937498  12.4392081311624 4.1901962609376  12.3836276464461 4.25638897578128  L 12.3815853921918 4.2597922554688  L 12.3693318414041 4.27395943906245  C 12.2193679906162 4.44779119296877  11.9973304834209 4.55155203593756  11.7753188198704 4.55155203593756  C 11.5534881376226 4.55155203593756  11.3314506304272 4.44784394140618  11.1813316419818 4.27409136171877  L 11.1723095067927 4.26364405156244  L 11.1703964960259 4.26076841093746  Z " fill-rule="nonzero" fill="#0079fe" stroke="none" transform="matrix(1 0 0 1 548 392 )" />
  </g>
</svg>