<?xml version="1.0" encoding="utf-8"?>
<svg version="1.1" xmlns:xlink="http://www.w3.org/1999/xlink" width="22px" height="16px" xmlns="http://www.w3.org/2000/svg">
  <g transform="matrix(1 0 0 1 -1204 -390 )">
    <path d="M 21.0375 8.91477272727275  C 21.6791666666666 9.70643939393949  22 10.6136363636364  22 11.6363636363636  C 22 12.840909090909  21.5703125 13.8693181818182  20.7109375 14.721590909091  C 19.8515625 15.5738636363636  18.8145833333334 16  17.6 16  L 5.13333333333338 16  C 3.72013888888881 16  2.51128472222223 15.5018939393939  1.50677083333335 14.5056818181818  C 0.502256944444412 13.5094696969696  0 12.3106060606061  0 10.909090909091  C 0 9.90909090909099  0.271180555555588 8.99431818181824  0.813541666666652 8.16477272727275  C 1.35590277777777 7.33522727272725  2.07013888888895 6.71590909090901  2.95625000000001 6.30681818181824  C 2.94097222222223 6.094696969697  2.93333333333339 5.93181818181824  2.93333333333339 5.81818181818176  C 2.93333333333339 4.21212121212125  3.50624999999997 2.84090909090901  4.65208333333339 1.7045454545455  C 5.79791666666665 0.56818181818187  7.1805555555556 0  8.80000000000001 0  C 10.0069444444444 0  11.1012152777778 0.333333333333371  12.0828125 1  C 13.0644097222222 1.66666666666663  13.7805555555556 2.53787878787875  14.23125 3.61363636363637  C 14.7659722222222 3.14393939393949  15.4 2.90909090909099  16.1333333333334 2.90909090909099  C 16.9430555555556 2.90909090909099  17.634375 3.19318181818176  18.2072916666666 3.76136363636363  C 18.7802083333333 4.3295454545455  19.0666666666667 5.0151515151515  19.0666666666667 5.81818181818176  C 19.0666666666667 6.38636363636363  18.9100694444444 6.90909090909099  18.596875 7.38636363636363  C 19.5822916666667 7.61363636363637  20.3958333333333 8.12310606060612  21.0375 8.91477272727275  Z " fill-rule="nonzero" fill="#0079fe" stroke="none" transform="matrix(1 0 0 1 1204 390 )" />
  </g>
</svg>