<?xml version="1.0" encoding="utf-8"?>
<svg version="1.1" xmlns:xlink="http://www.w3.org/1999/xlink" width="24px" height="22px" xmlns="http://www.w3.org/2000/svg">
  <g transform="matrix(1 0 0 1 -684 -392 )">
    <path d="M 12.0654523623132 21.7540678600178  L 23.7708547703579 7.05449152346361  L 19.5143569536782 0.229697660276827  L 4.61660128794585 0.229697660276827  L 0.360103471266029 7.05449152346361  L 12.0654523623132 21.7540678600178  Z M 21.6425924762326 6.52952363381163  L 16.8540491908439 6.52952363381163  L 18.9822847133983 2.3296220497615  L 21.6425924762326 6.52952363381163  Z M 12.06547910774 1.80465416010963  L 15.2578591631425 6.52952363381163  L 8.87312582390837 6.52952363381163  L 12.06547910774 1.80465416010963  Z M 8.10308179542028 5.61793734695169  L 6.212791289503 1.804627744671  L 10.4692891061828 1.804627744671  L 8.10308179542028 5.61793734695169  Z M 13.6616691354412 1.804627744671  L 17.91814018055 1.804627744671  L 16.0278764462038 5.61793734695169  L 13.6616691354412 1.804627744671  Z M 8.87312582390837 8.10445371820595  L 15.2578591631425 8.10445371820595  L 12.06547910774 19.1291227758005  L 8.87312582390837 8.10445371820595  Z M 5.1486735282258 2.3296220497615  L 7.2769090507802 6.52952363381163  L 2.48836573924734 6.52952363381163  L 5.1486735282258 2.3296220497615  Z M 3.02041126024449 8.10445371820595  L 7.2769090507802 8.10445371820595  L 9.93721683975866 16.5042040812253  L 3.02041126024449 8.10445371820595  Z M 14.1937414018654 16.5042040812253  L 16.8540491908439 8.10445371820595  L 21.1105469813795 8.10445371820595  L 14.1937414018654 16.5042040812253  Z " fill-rule="nonzero" fill="#0079fe" stroke="none" transform="matrix(1 0 0 1 684 392 )" />
  </g>
</svg>