<?xml version="1.0" encoding="utf-8"?>
<svg version="1.1" xmlns:xlink="http://www.w3.org/1999/xlink" width="22px" height="7px" xmlns="http://www.w3.org/2000/svg">
  <g transform="matrix(1 0 0 1 -1025 -395 )">
    <path d="M 5.16342148437502 3.24362720050294  C 5.16342148437502 1.56167825502964  4.02267851562499 0.199136716963778  2.61560234374997 0.199136716963778  C 1.20852617187506 0.199136716963778  0.0677832031250318 1.56165258249501  0.0677832031250318 3.24362720050294  C 0.0677832031250318 4.92499851394602  1.20852617187506 6.28751437947712  2.61560234374997 6.28751437947712  C 4.02267851562499 6.28751437947712  5.16342148437502 4.92499851394602  5.16342148437502 3.24362720050294  Z M 13.2894501953125 3.24362720050294  C 13.28945234375 1.56167825502964  12.1487072265625 0.199136716963778  10.7416310546876 0.199136716963778  C 9.33455488281254 0.199136716963778  8.19381191406251 1.56165258249501  8.19381191406251 3.24362720050294  C 8.19381191406251 4.92499851394602  9.33455488281254 6.28751437947712  10.7416310546876 6.28751437947712  C 12.1487072265625 6.28751437947712  13.2894501953125 4.92499851394602  13.2894501953125 3.24362720050294  Z M 21.9233953125 3.24362720050294  C 21.923373828125 1.56167825502964  20.78265234375 0.199136716963778  19.375576171875 0.199136716963778  C 17.9684999999999 0.199136716963778  16.8277333984374 1.56165258249501  16.8277333984374 3.24362720050294  C 16.8277333984374 4.92499851394602  17.9684999999999 6.28751437947712  19.375576171875 6.28751437947712  C 20.78265234375 6.28751437947712  21.9233953125 4.92499851394602  21.9233953125 3.24362720050294  Z " fill-rule="nonzero" fill="#0079fe" stroke="none" transform="matrix(1 0 0 1 1025 395 )" />
  </g>
</svg>