<?xml version="1.0" encoding="utf-8"?>
<svg version="1.1" xmlns:xlink="http://www.w3.org/1999/xlink" width="22px" height="22px" xmlns="http://www.w3.org/2000/svg">
  <g transform="matrix(1 0 0 1 -24 -392 )">
    <path d="M 14.72592 2.88463999999999  C 15.95088 3.39504  17.30344 2.85911999999996  18.22216 3.77783999999997  C 19.14088 4.69655999999998  18.7836 6.48296000000005  19.31952 7.70791999999995  C 19.85544 8.93288000000007  21.208 9.59640000000002  21.208 11  C 21.208 12.4036  19.75336 13.24576  19.21744 14.47072  C 18.68152 15.69568  19.14088 17.27792  18.19664 18.22216  C 17.2524 19.1664000000001  15.67016 18.70704  14.4452 19.2429599999999  C 13.22024 19.77888  12.4036 21.208  11 21.208  C 9.59639999999996 21.208  8.75423999999998 19.75336  7.52927999999997 19.21744  C 6.30432000000002 18.68152  4.72208000000001 19.14088  3.77783999999997 18.19664  C 2.83359999999999 17.2524  3.29295999999994 15.67016  2.75704000000002 14.4452  C 2.22111999999998 13.22024  0.79200000000003 12.4036  0.79200000000003 11  C 0.79200000000003 9.59640000000002  2.24664000000001 8.75423999999998  2.78256000000005 7.52927999999997  C 3.31847999999997 6.30431999999996  2.85912000000002 4.72208000000001  3.80336 3.77783999999997  C 4.74760000000003 2.83359999999993  6.12567999999993 3.36951999999997  7.35064000000006 2.85911999999996  C 8.57560000000001 2.34871999999996  9.59639999999996 0.79200000000003  11 0.79200000000003  C 12.4036 0.79200000000003  13.50096 2.37423999999999  14.72592 2.88463999999999  Z M 17.3025101214575 8.52032388663974  C 16.9150607287449 7.59044534412953  17.1733603238866 6.2214574898785  16.4759514170041 5.52404858299599  C 15.7785425101215 4.80080971659913  14.7453441295547 5.21408906882596  13.8154655870445 4.82663967611336  C 12.8855870445344 4.43919028340076  12.059028340081 3.25101214574897  11 3.25101214574897  C 9.940971659919 3.25101214574897  9.14024291497969 4.41336032388665  8.2103643724696 4.82663967611336  C 7.30631578947362 5.21408906882596  6.2214574898785 4.82663967611336  5.52404858299593 5.52404858299599  C 4.82663967611336 6.2214574898785  5.13659919028339 7.43546558704452  4.74914979757085 8.36534412955461  C 4.36170040485831 9.29522267206482  3.25101214574903 9.940971659919  3.25101214574903 11  C 3.25101214574903 12.059028340081  4.36170040485831 12.7047773279352  4.74914979757085 13.6346558704454  C 5.13659919028339 14.5645344129555  4.82663967611336 15.7785425101215  5.52404858299593 16.475951417004  C 6.2214574898785 17.1733603238866  7.43546558704452 16.8634008097166  8.36534412955461 17.2508502024292  C 9.29522267206471 17.6382995951417  9.940971659919 18.748987854251  11 18.748987854251  C 12.059028340081 18.748987854251  12.7047773279352 17.6382995951417  13.6346558704454 17.2508502024292  C 14.5645344129555 16.8634008097166  15.7785425101215 17.1733603238866  16.4759514170041 16.475951417004  C 17.1733603238866 15.7785425101215  16.8634008097166 14.5645344129555  17.2508502024291 13.6346558704454  C 17.6382995951417 12.7047773279352  18.748987854251 12.059028340081  18.748987854251 11  C 18.748987854251 9.940971659919  17.68995951417 9.45020242914984  17.3025101214575 8.52032388663974  Z " fill-rule="nonzero" fill="#0079fe" stroke="none" transform="matrix(1 0 0 1 24 392 )" />
  </g>
</svg>