<?xml version="1.0" encoding="utf-8"?>
<svg version="1.1" xmlns:xlink="http://www.w3.org/1999/xlink" width="22px" height="22px" xmlns="http://www.w3.org/2000/svg">
  <g transform="matrix(1 0 0 1 -338 -392 )">
    <path d="M 18.9159863733683 18.5862068965517  C 20.5918099013548 18.5709734538173  21.9250249703322 17.225986617138  22 15.5501630891515  L 22 3.0860924601958  C 21.9250249948081 1.41026893220931  20.5918099258307 0.0366792019382274  18.9159863733683 0  L 3.11216567469342 0  C 1.43634214670686 0.0366792019382274  0.0595965711530653 1.41026893220931  0 3.0860924601958  L 0 15.5501630891515  C 0.0595965711530653 17.225986617138  1.43636716104629 18.5709734538173  3.11216567469342 18.5862068965517  L 7.34777217316059 18.5862068965517  L 10.4793373192741 21.704542317049  C 10.6276615580499 21.8524908756923  10.821820559731 21.9310360972112  11.0159795614122 21.9310360972112  C 11.2106895638845 21.9310360972112  11.4054496684632 21.8589277603343  11.5538741114518 21.7102027781349  C 11.8502470886076 21.4131034550534  11.8496960878165 20.9331911157535  11.5526218035502 20.6367930753066  L 8.19862034018985 17.2777824048161  C 8.05618198526503 17.1356696523932  7.86320015056367 17.0431485865803  7.66197809805181 17.0689655172414  L 3.11216567469342 17.0689655172414  C 2.27426641786985 17.0431485621044  1.58742148734177 16.3880623214992  1.51724137931035 15.5501630891515  L 1.51724137931035 3.0860924601958  C 1.5874214628659 2.24819320337224  2.27426641786985 1.53945778876584  3.11216565021755 1.51724137931035  L 18.9159863488924 1.51724137931035  C 19.753885605716 1.53945778876584  20.3972000541436 2.248168164557  20.4827586206897 3.0860924601958  L 20.4827586206897 15.5501630891515  C 20.3972000541436 16.3880623459751  19.7538855812401 17.0431485621044  18.9159863488924 17.0689655172414  L 12.6856416806764 17.0689655172414  C 12.2660158084454 17.0431485621044  11.9258368243176 17.3874351357298  11.9258368243176 17.8070610079609  C 11.9258368243176 18.2266868801919  12.2660158084454 18.5709734538173  12.6856416806764 18.5862068965517  L 18.9159863733683 18.5862068965517  Z M 5.20418407900712 4.96752749742484  C 4.43762717235307 4.96752749742484  3.81621201210169 5.60529568820914  3.81621201210169 6.39202514503836  C 3.81621201210169 6.78263761944572  3.9695132338943 7.13641411905348  4.21760140722722 7.3937701680361  C 4.04749834609004 8.67494150852167  4.03166238323507 10.7095020940036  5.19449950540644 12.3293190060654  C 6.31308237459854 13.8875687517432  8.2236155808929 14.6776896006196  10.872973706606 14.6776896006196  C 13.5076397241722 14.6776896006196  15.4211723788772 13.8867078318727  16.5603445334554 12.3267362974416  C 17.7402377069864 10.7110412463949  17.7687576918526 8.67697633355249  17.6225991719093 7.37266513933343  C 17.8590200967715 7.11723959544952  18.0044160303494 6.77215033054563  18.0044160303494 6.3919990650553  C 18.0044160303494 5.60524352824302  17.383000870098 4.96750141744189  16.6164439634439 4.96750141744189  C 15.8498870567898 4.96750141744189  15.2284718965385 5.60526960822608  15.2284718965385 6.3919990650553  C 15.2284718965385 6.99337476821995  15.5917584030991 7.50733031723428  16.1052450379796 7.71631959727199  C 16.2016333960473 8.75276137362528  16.1507194043035 10.2534875229977  15.3219879370431 11.3834018451089  C 14.4889861103364 12.5190815770395  12.9921195918906 13.0948912487322  10.8729991178716 13.0948912487322  C 8.74442282132145 13.0948912487322  7.25304680050658 12.5234121289062  6.44032922463976 11.3963413917303  C 5.61500388539815 10.2518178942104  5.61220780163171 8.7236995791867  5.73470135398179 7.70851933692791  C 6.23796957996586 7.49465164692413  6.59215614591255 6.98586148966387  6.59215614591255 6.39202514503836  C 6.59215614591255 5.60526960822608  5.97074098566122 4.96752749742484  5.20418407900712 4.96752749742484  Z " fill-rule="nonzero" fill="#0079fe" stroke="none" transform="matrix(1 0 0 1 338 392 )" />
  </g>
</svg>