<?xml version="1.0" encoding="utf-8"?>
<svg version="1.1" xmlns:xlink="http://www.w3.org/1999/xlink" width="22px" height="22px" xmlns="http://www.w3.org/2000/svg">
  <g transform="matrix(1 0 0 1 -337 -443 )">
    <path d="M 11 21.9070497390339  C 14.0940646926784 21.8368908751254  16.6675388781716 20.7750748557375  18.7216016371129 18.721601637113  C 20.7756644179329 16.668128440367  21.8368908751254 14.0940646926784  21.9070497390338 11  C 21.8368908751254 7.90593530732156  20.7750748557374 5.33246112182843  18.7216016371129 3.278398362887  C 16.6675388781716 1.22492516614108  14.0940646926784 0.163109124874552  11 0.0929502609661199  C 7.90593530732156 0.163109124874552  5.33246112182837 1.22492516614108  3.27839836288706 3.278398362887  C 1.22433558206706 5.33187155963299  0.163109124874609 7.90593530732156  0.0929502609661768 11  C 0.163109124874609 14.0940646926784  1.22492514426256 16.6675388781716  3.27839836288706 18.721601637113  C 5.33187155963299 20.7756644179329  7.90593530732156 21.8368908751254  11 21.9070497390339  Z M 11 0.931908729375721  C 13.8493930560493 1.0020675932841  16.2218237543364 1.98488120643987  18.1184712630088 3.88152873699113  C 20.0151187716815 5.77817626754222  20.9979324067159 8.15060694395066  21.0680912706242 11  C 20.9979324067159 13.8493930560493  20.0151187935601 16.2218237543362  18.1184712630088 18.1184712630089  C 16.2218237543364 20.0151187716814  13.8493930341707 20.9979323848373  11 21.0680912706243  C 8.15060694395072 20.9979324067159  5.77817624566364 20.0151187935601  3.88152873699119 18.1184712630089  C 1.9848812283185 16.2218237324578  1.0020675932841 13.8493930560493  0.931908729375777 11  C 1.0020675932841 8.15060694395066  1.98488120643992 5.77817624566376  3.88152873699119 3.88152873699113  C 5.77817626754222 1.98488122831856  8.15060694395072 1.0020675932841  11 0.931908729375721  Z M 16.5391303667623 11.451248130793  C 16.6626863938728 11.3270952006449  16.724762870022 11.1766791791974  16.724762870022 11  C 16.724762870022 10.8233208208026  16.6632832969104 10.6729047993551  16.5397272476497 10.5481549883197  C 16.4212351767466 10.4268616944792  16.2580213970575 10.3597195208176  16.0884791390069 10.3625225072102  L 11.6368806119024 10.3625225072102  L 11.6368806119024 5.91152086099299  C 11.6368806119024 5.73484170394585  11.5754010387908 5.58442566034807  11.4512481307929 5.46027275235031  C 11.3327560583386 5.33897944473119  11.1695422689867 5.27183726237882  11 5.27464024909062  C 10.8233208429529 5.27464024909062  10.6729047993551 5.33611982220214  10.5481549883197 5.45967584931259  C 10.4245989612092 5.58382877946076  10.36252248506 5.73424480090824  10.3625225072102 5.91092398010562  L 10.3625225072102 10.3625225072102  L 5.91152086099305 10.3625225072102  C 5.73484170394579 10.3625225072102  5.58442566034819 10.4240020803217  5.46027275235031 10.5481549883197  C 5.33671672523974 10.6723079184677  5.27464024909057 10.8227239399152  5.27464024909057 10.9994031191126  C 5.27464024909057 11.17608229831  5.33611982220214 11.3264983197574  5.4596758493127 11.451248130793  C 5.58382877946064 11.5748041579035  5.73424480090819 11.6368806340525  5.91092398010551 11.6368806119024  L 10.3625225072102 11.6368806119024  L 10.3625225072102 16.0878822359693  C 10.3625225072102 16.2645613930166  10.4240020803217 16.4149774366142  10.5481549883197 16.5391303667624  C 10.6723079184677 16.6626863938728  10.8227239399152 16.7247628700219  10.9994031191126 16.7247628700219  C 11.1760822983099 16.7247628700219  11.3264983197574 16.6632832969104  11.4512481307929 16.5397272476497  C 11.5748041579035 16.4155743175016  11.6368806340525 16.2651582960542  11.6368806119024 16.088479139007  L 11.6368806119024 11.6368806119024  L 16.0878822359695 11.6368806119024  C 16.2645613930166 11.6368806119024  16.4149774366142 11.5754010387909  16.5391303667623 11.451248130793  Z " fill-rule="nonzero" fill="#0079fe" stroke="none" transform="matrix(1 0 0 1 337 443 )" />
  </g>
</svg>