<?xml version="1.0" encoding="utf-8"?>
<svg version="1.1" xmlns:xlink="http://www.w3.org/1999/xlink" width="22px" height="21px" xmlns="http://www.w3.org/2000/svg">
  <g transform="matrix(1 0 0 1 -677 -297 )">
    <path d="M 12.4531547572966 17.6493389423076  C 12.5308198498103 17.5694110576923  12.5696523960671 17.4705528846155  12.5696523960671 17.3527644230769  L 12.5696523960671 14.9549278846154  C 12.5696523960671 14.8371394230769  12.5308198498103 14.73828125  12.4531547572966 14.6583533653846  C 12.3754896647828 14.5784254807692  12.2835178447008 14.5384615384615  12.1772392970504 14.5384615384615  L 9.82276070294957 14.5384615384615  C 9.71648215529921 14.5384615384615  9.62451033521713 14.5784254807692  9.54684524270342 14.6583533653846  C 9.46918015018965 14.73828125  9.43034760393282 14.8371394230769  9.43034760393282 14.9549278846154  L 9.43034760393282 17.3527644230769  C 9.43034760393282 17.4705528846155  9.46918015018965 17.5694110576923  9.54684524270342 17.6493389423076  C 9.62451033521713 17.7292668269231  9.71648215529921 17.7692307692308  9.82276070294957 17.7692307692308  L 12.1772392970504 17.7692307692308  C 12.2835178447008 17.7692307692308  12.3754896647828 17.7292668269231  12.4531547572966 17.6493389423076  Z M 12.4163660292637 12.8410456730769  C 12.4940311217775 12.7863581730769  12.5369513044824 12.7169471153846  12.5451265773786 12.6328125  L 12.7658589455756 6.84014423076917  C 12.7658589455756 6.73918269230774  12.7249825810947 6.65925480769226  12.6432298521328 6.60036057692309  C 12.5369513044824 6.5078125  12.4388480297283 6.46153846153845  12.3489200278702 6.46153846153845  L 9.65107997212973 6.46153846153845  C 9.5611519702717 6.46153846153845  9.46304869551755 6.5078125  9.35677014786713 6.60036057692309  C 9.27501741890526 6.65925480769226  9.23414105442438 6.74759615384619  9.23414105442438 6.86538461538464  L 9.44261051327705 12.6328125  C 9.44261051327705 12.7169471153846  9.48348687775799 12.7863581730769  9.56523960671981 12.8410456730769  C 9.64699233568162 12.8957331730769  9.74509561043586 12.9230769230769  9.8595494309824 12.9230769230769  L 12.1281876596733 12.9230769230769  C 12.2426414802198 12.9230769230769  12.33870093675 12.8957331730769  12.4163660292637 12.8410456730769  Z M 11.7970891073779 0.227163461538453  C 12.0423472942634 0.37860576923083  12.2344662073237 0.584735576923094  12.3734458465588 0.845552884615358  L 21.791360222962 18.6147836538462  C 22.0774947743284 19.1448317307692  22.0693195014322 19.6748798076924  21.7668344042734 20.2049278846154  C 21.6278547650383 20.4489182692308  21.4377796702021 20.6424278846154  21.1966091197647 20.7854567307692  C 20.9554385693272 20.9284855769231  20.6958736548734 21  20.4179143764031 21  L 1.58208562359678 21  C 1.30412634512651 21  1.04456143067273 20.9284855769231  0.803390880235324 20.7854567307692  C 0.562220329797893 20.6424278846154  0.372145234961691 20.4489182692308  0.233165595726518 20.2049278846154  C -0.0693195014322041 19.6748798076924  -0.0774947743284141 19.1448317307692  0.208639777037973 18.6147836538462  L 9.62655415344118 0.845552884615358  C 9.76553379267627 0.584735576923094  9.95765270573661 0.37860576923083  10.2029108926221 0.227163461538453  C 10.4481690795077 0.0757211538461888  10.7138654486336 0  11 0  C 11.2861345513664 0  11.5518309204923 0.0757211538461888  11.7970891073779 0.227163461538453  Z " fill-rule="nonzero" fill="#0079fe" stroke="none" transform="matrix(1 0 0 1 677 297 )" />
  </g>
</svg>