<?xml version="1.0" encoding="utf-8"?>
<svg version="1.1" xmlns:xlink="http://www.w3.org/1999/xlink" width="22px" height="22px" xmlns="http://www.w3.org/2000/svg">
  <g transform="matrix(1 0 0 1 -115 -587 )">
    <path d="M 10.0801992404514 0.314285714285745  L 2.11115599826388 5  L 13.127733891059 5  L 10.0801992404514 0.314285714285745  Z M 18.9172558485243 3.86620680580353  L 10.46013546875 0.363096569196401  L 17.3862234743924 9.17492097991068  L 18.9172558485243 3.86620680580353  Z M 21.6944444444445 13.2291005  L 19.171529561632 4.21766007142857  L 16.6847264040799 15.25653078125  L 21.6944444444445 13.2291005  Z M 16.3608897699652 21.2930716919643  L 21.5818390581597 13.6052961049107  L 11.6763297243924 18.564456109375  L 16.3608897699652 21.2930716919643  Z M 6.87369355902774 21.9895531919643  L 15.9778015451389 21.4881976964286  L 6.08004160156247 16.5126950558036  L 6.87369355902774 21.9895531919643  Z M 0.424131759982629 14.8479461428572  L 6.53233601128471 21.8098028058035  L 4.06275752170137 10.7668418883929  L 0.424131759982629 14.8479461428572  Z M 1.87859804687503 5.18587430133925  L 0.305555555555543 14.4228756473214  L 7.24538176866321 5.62249408482147  L 1.87859804687503 5.18587430133925  Z " fill-rule="nonzero" fill="#0079fe" stroke="none" transform="matrix(1 0 0 1 115 587 )" />
  </g>
</svg>