<?xml version="1.0" encoding="utf-8"?>
<svg version="1.1" xmlns:xlink="http://www.w3.org/1999/xlink" width="22px" height="22px" xmlns="http://www.w3.org/2000/svg">
  <g transform="matrix(1 0 0 1 -24 -587 )">
    <path d="M 13.9021986990741 6.82532901785719  C 14.1334237209001 6.78746303244077  14.3787555493041 6.75687421595788  14.6390836328875 6.73435720251251  C 15.6414737420217 7.74083184915059  16.2664979211182 9.1260162029491  16.2664979211182 10.6616437566964  C 16.2664979211182 10.7848356540179  16.255449002849 10.9052637276786  16.2480830573362 11.0266214486607  C 17.1369823873753 12.3411793214285  17.8602731770833 14.6164229799107  18.1078341168091 18.4586385401786  C 18.1142730635684 18.5509256919643  18.1197849870904 18.6376600290179  18.1243949586005 18.7267059375  C 20.294217258725 16.7232734084822  21.6533595864494 13.8518693549107  21.6533595864494 10.6616437566964  C 21.6533595864494 9.51522262580571  21.4750096404914 8.41149263162486  21.1498086309488 7.37304357867458  C 21.2485508109292 7.39377154241872  21.3456918672008 7.41430206847549  21.4414900231481 7.43455026785716  C 20.0921068333333 4.19114355189731  17.2469294861111 1.70895505301343  13.7519053425926 0.824597500000024  C 13.2973512986111 1.34511315290184  12.9748250856481 1.70944329799104  12.9748250856481 1.70944329799104  C 12.9748250856481 1.70944329799104  10.7746741157408 3.84099809988838  9.53152289120374 6.17126674944197  C 9.97654029166665 6.06272320870541  10.437816863426 5.99902068638397  10.9182188703704 5.99902068638397  C 12.0120929398148 5.99902068638397  13.0313153819444 6.30481336495538  13.9021986990741 6.82532901785719  Z M 9.61160431485621 20.9788781563895  C 9.42269071407907 21.1513315829032  9.24316904307204 21.3153639592634  9.06833054522156 21.4742160768346  C 9.65953648520167 21.5707267129952  10.265764391121 21.6227587482561  10.8833035863095 21.6227587482561  C 13.5254326424024 21.6227587482561  15.9513423710317 20.7061373515974  17.864073478836 19.1769975094169  C 17.8161413084904 18.786157492327  17.7879654941717 18.5391903029088  17.7879654941717 18.5391903029088  C 17.7879654941717 18.5391903029088  17.6385133885169 14.5638554139927  16.3329570746528 12.0229870307268  C 15.9851738299852 13.2484322438267  15.2332301035466 14.3019088848005  14.2303398945933 15.0362267274693  C 13.6889854594494 16.5433441856167  12.3345245287698 18.4871837534877  9.61160431485621 20.9788781563895  Z M 5.73030801922584 10.5141049826389  C 5.90522974408435 8.53263731336808  7.18548963766722 6.85981594184025  8.97561912712195 6.06534791232637  C 9.60645199974283 4.74602242621528  10.7853054134516 3.12208123046873  12.7866582757845 1.12177964192708  C 13.0043667894805 0.905544038628499  13.2081423977623 0.70235291232639  13.4044701919367 0.507198541666618  C 12.7280639345421 0.3820544921875  12.0302009577546 0.314315976562504  11.3165810786394 0.314315976562504  C 7.93077524691358 0.314315976562504  4.9022100289352 1.7834821115451  2.8739032304527 4.09555673828122  C 3.13254926054526 4.78728109157983  3.3177053706919 5.29286496310763  3.3177053706919 5.29286496310763  C 3.3177053706919 5.29286496310763  4.18114238522378 8.38638758680559  5.73030801922584 10.5141049826389  Z M 11.2441447962963 15.2830003415179  C 10.4153686388889 15.2830003415179  9.62869961574074 15.1113407254464  8.91478011111104 14.8072680200892  C 8.56189439287158 14.8739282909762  8.17427909041294 14.9238201819569  7.74860528086714 14.9540428758553  C 6.71050019372268 14.1031597705724  5.99272583465716 12.8869013798815  5.79460937054841 11.50176149627  C 4.7787101095085 10.3442710856732  3.737957062411 8.39221788798164  2.78554524350068 5.22574445782424  C 2.6852531205484 4.89014117936445  2.59137489761395 4.57643207016567  2.5021316929309 4.27636032145794  C 1.14759936120009 6.07815450613835  0.346089213853247 8.31069120286063  0.346089213853247 10.7281258634868  C 0.346089213853247 11.9692200833227  0.559221383340457 13.1613730382414  0.8940706041667 14.2613844017858  C 2.33819488425922 17.3187446584822  5.19486310648148 19.6216769866072  8.66213717824076 20.3982407455357  C 9.11382500925924 19.9506493459822  9.4286906388889 19.6419534977679  9.4286906388889 19.6419534977679  C 9.4286906388889 19.6419534977679  12.2394214097222 17.2869354084822  13.5199114467593 14.8317405892857  C 12.8203490046296 15.1214915647321  12.0518673611111 15.2830003415179  11.2441447962963 15.2830003415179  Z " fill-rule="nonzero" fill="#0079fe" stroke="none" transform="matrix(1 0 0 1 24 587 )" />
  </g>
</svg>