<?xml version="1.0" encoding="utf-8"?>
<svg version="1.1" xmlns:xlink="http://www.w3.org/1999/xlink" width="26px" height="22px" xmlns="http://www.w3.org/2000/svg">
  <g transform="matrix(1 0 0 1 -72 -638 )">
    <path d="M 22.8150484375 21.6455555555556  C 22.875634375 21.6789629629629  22.9426828125 21.6960740740741  23.0089234375 21.6960740740741  C 23.0993984375 21.6960740740741  23.1898734375 21.6651111111111  23.2625765625 21.6056296296297  C 23.3902109375001 21.5013333333333  23.44271875 21.3294074074075  23.3950578125 21.1721481481482  L 22.80939375 19.2076296296295  C 24.7731859375001 17.6423703703703  25.85 15.769925925926  25.85 13.9056296296296  C 25.85 10.3693333333334  22.597746875 7.35614814814824  18.6055375000001 7.04244444444441  C 18.6111921875 6.99844444444449  18.6136156250001 6.95281481481482  18.603921875 6.90718518518514  C 17.8033796875 3.14274074074069  13.7901671875001 0.304740740740669  9.2680328125 0.304740740740669  C 4.15781093750002 0.304740740740669  0 3.89888888888885  0 8.31681481481473  C 0 10.6871111111111  1.19960156249999 12.8227407407407  3.47278593750002 14.506962962963  L 2.680321875 16.909851851852  C 2.62942968749996 17.0662962962963  2.67547500000001 17.2382222222222  2.79907031250002 17.3465925925926  C 2.87419687499994 17.4117777777778  2.96871093749996 17.4460000000001  3.06403281250005 17.4460000000001  C 3.12542656250002 17.4460000000001  3.18762812499995 17.4313333333334  3.24498281249998 17.4028148148147  L 6.22015625000006 15.901111111111  L 6.58690312500005 15.976074074074  C 7.50296249999997 16.165925925926  8.29381093749998 16.3305185185185  9.2680328125 16.3305185185185  C 9.55480625000007 16.3305185185185  9.84561874999997 16.3174814814814  10.1307765625 16.293037037037  C 10.2462937500001 16.2832592592592  10.3440390625 16.2245925925926  10.4102796875 16.1398518518518  C 11.4830546875 18.8474814814815  14.4396484375001 20.8022222222222  17.918896875 20.8022222222222  C 18.8099140625001 20.8022222222222  19.712240625 20.5854814814816  20.52166875 20.3809629629629  L 22.8150484375 21.6455555555556  Z M 0.807812499999955 8.31681481481473  C 0.807812499999955 4.3486666666667  4.60291562500004 1.11955555555556  9.2680328125 1.11955555555556  C 13.391915625 1.11955555555556  17.043228125 3.65037037037041  17.7969171875 7.01637037037034  C 13.472696875 7.07340740740739  9.97406093749998 10.1395555555554  9.97406093749998 13.9056296296296  C 9.97406093749998 14.4531851851852  10.0564578125 14.9836296296296  10.1954015625 15.4953333333333  C 10.1533953125 15.4847407407408  10.108965625 15.4765925925926  10.0621125 15.4806666666667  C 9.79957343750004 15.5034814814816  9.53299531250002 15.5148888888889  9.26884062499994 15.5148888888889  C 8.37701562500001 15.5148888888889  7.62251875000004 15.3592592592593  6.75008124999999 15.1775555555555  L 6.24277500000005 15.074074074074  C 6.15553124999997 15.0553333333332  6.063440625 15.0675555555555  5.98346718749997 15.1091111111111  L 3.75471249999998 16.2343703703703  L 4.33391406249996 14.4792592592592  C 4.39046093750005 14.3073333333334  4.32825937500002 14.1199259259259  4.18204531250001 14.0164444444445  C 1.94278906249997 12.4422222222222  0.807812499999955 10.5241481481482  0.807812499999955 8.31681481481473  Z M 20.478046875 19.5506666666668  C 19.6371140625 19.7649629629629  18.7671 19.9857777777777  17.9197046875 19.9857777777777  C 13.9840421875 19.9857777777777  10.78268125 17.2577777777777  10.78268125 13.9048148148147  C 10.78268125 10.5518518518518  13.9840421875 7.82466666666659  17.9197046875 7.82466666666659  C 21.780240625 7.82466666666659  25.0421875000001 10.6088888888889  25.0421875000001 13.9048148148147  C 25.0421875000001 15.5768148148148  23.9976859375 17.2903703703703  22.100134375 18.7293333333333  C 21.9652296875 18.832  21.907875 19.0088148148147  21.95634375 19.1717777777777  L 22.3384390625 20.4534814814814  L 20.770475 19.5881481481481  C 20.7106968750001 19.5547407407407  20.6436484375 19.5376296296296  20.5766 19.5376296296296  C 20.5434796875001 19.5376296296296  20.510359375 19.5417037037037  20.478046875 19.5506666666668  Z M 18.7898333333334 11.9166666666667  C 18.7898333333334 12.4226666666667  19.2930833333334 12.92225  19.789 12.92225  C 20.5425 12.92225  21.05125 12.4226666666667  21.05125 11.9166666666667  C 21.05125 11.4134166666668  20.5434166666666 10.9074166666667  19.789 10.9074166666667  C 19.2930833333334 10.9074166666667  18.7898333333334 11.4143333333333  18.7898333333334 11.9166666666667  Z M 6.19991428571427 6.95108333333332  C 6.9730571428571 6.95108333333332  7.49068571428575 6.44599999999991  7.49068571428575 5.69341666666679  C 7.48974285714291 4.93258333333335  6.9730571428571 4.44033333333329  6.19991428571427 4.44033333333329  C 5.42394285714283 4.44033333333329  4.63948571428568 4.93258333333335  4.63948571428568 5.69341666666679  C 4.63948571428568 6.44599999999991  5.42394285714283 6.95108333333332  6.19991428571427 6.95108333333332  Z M 12.4186857142857 4.44033333333329  C 11.6417714285715 4.44033333333329  10.8620285714286 4.93258333333335  10.8620285714286 5.69341666666679  C 10.8629714285714 6.44599999999991  11.6427142857143 6.95108333333332  12.4186857142857 6.95108333333332  C 13.1946571428572 6.95108333333332  13.7132285714285 6.44599999999991  13.7132285714285 5.69341666666662  C 13.7132285714285 4.93258333333335  13.1956 4.44033333333329  12.4186857142857 4.44033333333329  Z M 14.8096666666668 10.9074166666667  C 14.3064166666667 10.9074166666667  13.8031666666667 11.4143333333333  13.8031666666667 11.9166666666667  C 13.8031666666667 12.4226666666667  14.3064166666667 12.92225  14.8096666666668 12.92225  C 15.5659166666667 12.92225  16.0655 12.4226666666667  16.0655 11.9166666666667  C 16.0655 11.4134166666668  15.5659166666667 10.9074166666667  14.8096666666668 10.9074166666667  Z " fill-rule="nonzero" fill="#0079fe" stroke="none" transform="matrix(1 0 0 1 72 638 )" />
  </g>
</svg>