<?xml version="1.0" encoding="utf-8"?>
<svg version="1.1" xmlns:xlink="http://www.w3.org/1999/xlink" width="22px" height="22px" xmlns="http://www.w3.org/2000/svg">
  <g transform="matrix(1 0 0 1 -552 -296 )">
    <path d="M 13.4128605769231 8.58713942307691  C 13.4965945512821 8.67087339743591  13.5384615384615 8.7700320512821  13.5384615384615 8.88461538461536  L 13.5384615384615 9.73076923076928  C 13.5384615384615 9.84535256410254  13.4965945512821 9.94451121794873  13.4128605769231 10.0282451923076  C 13.3291266025641 10.1119791666666  13.2299679487179 10.1538461538462  13.1153846153846 10.1538461538462  L 10.1538461538461 10.1538461538462  L 10.1538461538461 13.1153846153846  C 10.1538461538461 13.2299679487179  10.1119791666666 13.3291266025641  10.0282451923077 13.4128605769231  C 9.9445112179487 13.4965945512821  9.84535256410256 13.5384615384615  9.73076923076924 13.5384615384615  L 8.88461538461539 13.5384615384615  C 8.77003205128206 13.5384615384615  8.67087339743588 13.4965945512821  8.58713942307691 13.4128605769231  C 8.50340544871794 13.3291266025641  8.46153846153847 13.2299679487179  8.46153846153847 13.1153846153846  L 8.46153846153847 10.1538461538462  L 5.5 10.1538461538462  C 5.38541666666664 10.1538461538462  5.28625801282054 10.1119791666666  5.20252403846153 10.0282451923076  C 5.11879006410256 9.94451121794873  5.07692307692309 9.84535256410254  5.07692307692309 9.73076923076928  L 5.07692307692309 8.88461538461536  C 5.07692307692309 8.7700320512821  5.11879006410256 8.67087339743591  5.20252403846153 8.58713942307691  C 5.28625801282054 8.5034054487179  5.38541666666664 8.46153846153845  5.5 8.46153846153845  L 8.46153846153847 8.46153846153845  L 8.46153846153847 5.5  C 8.46153846153847 5.38541666666663  8.50340544871794 5.28625801282055  8.58713942307691 5.20252403846155  C 8.67087339743588 5.11879006410254  8.77003205128206 5.07692307692309  8.88461538461539 5.07692307692309  L 9.73076923076924 5.07692307692309  C 9.84535256410256 5.07692307692309  9.9445112179487 5.11879006410254  10.0282451923077 5.20252403846155  C 10.1119791666666 5.28625801282055  10.1538461538461 5.38541666666663  10.1538461538461 5.5  L 10.1538461538461 8.46153846153845  L 13.1153846153846 8.46153846153845  C 13.2299679487179 8.46153846153845  13.3291266025641 8.5034054487179  13.4128605769231 8.58713942307691  Z M 13.4921875 13.4921875  C 14.6512419871795 12.3331330128206  15.2307692307692 10.9383012820513  15.2307692307692 9.30769230769238  C 15.2307692307692 7.67708333333337  14.6512419871795 6.28225160256409  13.4921875 5.12319711538464  C 12.3331330128205 3.96414262820508  10.9383012820513 3.38461538461536  9.30769230769232 3.38461538461536  C 7.67708333333336 3.38461538461536  6.28225160256412 3.96414262820508  5.12319711538461 5.12319711538464  C 3.96414262820511 6.28225160256409  3.38461538461539 7.67708333333337  3.38461538461539 9.30769230769238  C 3.38461538461539 10.9383012820513  3.96414262820511 12.3331330128206  5.12319711538461 13.4921875  C 6.28225160256412 14.6512419871794  7.67708333333336 15.2307692307693  9.30769230769232 15.2307692307693  C 10.9383012820513 15.2307692307693  12.3331330128205 14.6512419871794  13.4921875 13.4921875  Z M 21.5108173076923 19.1177884615385  C 21.8369391025641 19.4439102564103  22 19.8405448717949  22 20.3076923076923  C 22 20.7748397435897  21.8347355769231 21.1736778846155  21.5042067307692 21.5042067307693  C 21.1736778846154 21.8347355769231  20.7748397435897 22  20.3076923076923 22  C 19.8317307692308 22  19.4350961538461 21.8325320512821  19.1177884615385 21.4975961538462  L 14.5829326923077 16.9759615384615  C 13.0052083333334 18.0689102564103  11.2467948717949 18.6153846153845  9.30769230769232 18.6153846153845  C 8.04727564102561 18.6153846153845  6.84194711538461 18.3707932692307  5.69170673076924 17.8816105769231  C 4.54146634615385 17.3924278846155  3.54987980769232 16.7313701923077  2.71694711538461 15.8984375  C 1.88401442307691 15.0655048076923  1.22295673076924 14.0739182692307  0.733774038461533 12.9236778846154  C 0.244591346153854 11.7734375  0 10.568108974359  0 9.30769230769238  C 0 8.04727564102564  0.244591346153854 6.84194711538464  0.733774038461533 5.69170673076928  C 1.22295673076924 4.54146634615381  1.88401442307691 3.54987980769238  2.71694711538461 2.71694711538464  C 3.54987980769232 1.88401442307691  4.54146634615385 1.22295673076928  5.69170673076924 0.733774038461547  C 6.84194711538461 0.244591346153811  8.04727564102561 0  9.30769230769232 0  C 10.568108974359 0  11.7734375 0.244591346153811  12.9236778846154 0.733774038461547  C 14.0739182692308 1.22295673076928  15.0655048076923 1.88401442307691  15.8984375 2.71694711538464  C 16.7313701923077 3.54987980769238  17.3924278846154 4.54146634615381  17.8816105769231 5.69170673076928  C 18.3707932692308 6.84194711538464  18.6153846153846 8.04727564102564  18.6153846153846 9.30769230769238  C 18.6153846153846 11.2467948717949  18.0689102564103 13.0052083333334  16.9759615384615 14.5829326923076  L 21.5108173076923 19.1177884615385  Z " fill-rule="nonzero" fill="#0079fe" stroke="none" transform="matrix(1 0 0 1 552 296 )" />
  </g>
</svg>