<?xml version="1.0" encoding="utf-8"?>
<svg version="1.1" xmlns:xlink="http://www.w3.org/1999/xlink" width="22px" height="22px" xmlns="http://www.w3.org/2000/svg">
  <g transform="matrix(1 0 0 1 -944 -491 )">
    <path d="M 15.6502828629545 0.201023391812889  C 15.6369214663069 0.232282094713945  15.6233370875818 0.263381869761162  15.6095328131935 0.294319912182075  L 15.1158905014474 0.158674463937651  L 15.1158933068265 1.19491216776267  C 14.2041135715458 2.57097808148129  12.7976627637835 3.45492202729046  11.2213005339436 3.45492202729046  C 9.29200038138828 3.45492202729046  7.61721332316301 2.13084795321636  6.75972877931264 0.158674463937651  L 2.79108624273863 1.18148148148148  C 2.62866468496827 1.21578947368419  2.47265450447827 1.26725146198834  2.32732995278894 1.33586744639376  C 1.59857006858226 1.68966861598442  1.06215150278803 2.45302144249509  1.06215150278803 3.31929824561406  L 0 8.28323586744639  C 0 9.48830409356722  0.974529346622376 10.4660818713451  2.1755940238192 10.4660818713451  L 2.75 10.4660818713451  L 2.75 19.7335282651072  C 3.16722037652266 20.9385964912281  4.05412756697945 21.9163742690059  5.25519224417633 22  L 16.6375240426648 22  C 17.8385887198617 21.9163742690059  18.813118066484 20.938596491228  19.25 19.7335282651072  L 19.25 10.5561403508772  L 19.7684132812652 10.5561403508772  C 20.9694779584621 10.5561403508772  21.9440073050844 9.57836257309945  21.9440073050844 8.37329434697854  L 20.8818558022965 3.40506822612085  C 20.8818558022965 2.54951267056531  20.3881797517049 1.81189083820664  19.6743797478192 1.45380116959063  L 19.5760719628529 1.40662768031191  C 19.4521186687649 1.35302144249513  19.3238911231567 1.31013645224169  19.1892522002681 1.2779727095517  L 17.1273677854055 0.667397660818736  L 15.6502828629545 0.201023391812889  Z M 11.2213005339436 5.22928849902535  C 13.3674177312486 5.22928849902535  15.2719621932583 3.97487113464793  16.4516767530437 2.04922249807715  L 18.9969108818559 2.74249512670568  C 19.2512288473121 2.85614035087718  19.4307474111636 3.11130604288498  19.4307474111636 3.40721247563356  L 20.4928989139515 8.37329434697854  C 20.4928989139515 8.77212475633527  20.1659186726506 9.10019493177386  19.7684132812652 9.10019493177386  L 18.813118066484 9.10019493177386  L 18.813118066484 7.69571150097465  L 17 7.69571150097465  L 17 19.7356725146199  C 17.3620096753512 20.1345029239766  17.0350294340503 20.4625730994152  16.6375240426648 20.625  L 5.25519224417633 20.625  C 4.85768685279089 20.4625730994152  4.61832876765556 20.1345029239766  5 19.7356725146199  L 5 7.60779727095515  L 3.16722037652266 7.60779727095515  L 3.16722037652266 9.01228070175443  L 2.1755940238192 9.01228070175443  C 1.77808863243382 9.01228070175443  1.45110839113289 8.68421052631577  1.45110839113289 8.28538011695903  L 2.51325989392086 3.31929824561406  C 2.51325989392086 3.03196881091619  2.68422995473185 2.78323586744639  2.92572516562723 2.66530214424954  L 5.90623188076495 1.90518972890501  C 7.07753028389732 3.91217172211184  9.02208790180379 5.22928849902535  11.2213005339436 5.22928849902535  Z " fill-rule="nonzero" fill="#0079fe" stroke="none" transform="matrix(1 0 0 1 944 491 )" />
  </g>
</svg>