<?xml version="1.0" encoding="utf-8"?>
<svg version="1.1" xmlns:xlink="http://www.w3.org/1999/xlink" width="26px" height="22px" xmlns="http://www.w3.org/2000/svg">
  <g transform="matrix(1 0 0 1 -1117 -491 )">
    <path d="M 22.4779761904762 21.037093596059  C 27.5515625 17.6680049261083  25.0238541666667 11.4898522167488  24.6110267857143 10.5717044334976  C 24.5180505952381 9.36923645320206  23.9847470238095 2.62829556650254  23.6745535714286 1.45069950738909  C 23.4049553571429 0.423635467980375  22.6915922619048 0.344142857142941  22.4792857142857 0.344142857142941  C 22.1404464285715 0.344142857142941  21.8052083333334 0.50524137931032  21.5595089285715 0.785985221674906  C 21.2576636904762 1.13077832512317  21.1229464285714 1.60220689655179  21.1897321428571 2.07851231527104  C 21.2851636904762 2.76679802955667  21.5942113095238 7.00802955665023  21.767068452381 9.48871921182268  C 16.0816071428571 12.1768374384236  14.5713988095238 16.3979113300493  14.4150744047619 16.8812068965517  C 14.3640029761905 17.0388916256157  14.3296279761905 17.1723546798029  14.3067113095238 17.288748768473  L 11.9217410714286 17.288748768473  C 11.8988244047619 17.1723546798029  11.8642857142858 17.0388916256157  11.8132142857143 16.8812068965517  C 11.6568898809524 16.3979113300493  10.146681547619 12.1768374384236  4.46122023809522 9.48871921182268  C 4.63424107142862 7.00802955665023  4.94312499999995 2.76679802955667  5.03855654761901 2.07965024630533  C 5.10534226190481 1.60220689655179  4.97062499999998 1.13077832512317  4.66877976190477 0.785985221674906  C 4.42308035714285 0.50524137931032  4.08784226190477 0.344142857142941  3.74900297619047 0.344142857142941  C 3.53669642857142 0.344142857142941  2.82333333333338 0.423472906404044  2.55373511904764 1.45069950738909  C 2.2435416666666 2.62829556650254  1.71040178571423 9.36923645320206  1.61726190476196 10.5728423645319  C 1.20443452380954 11.4898522167488  -1.32098214285713 17.6691428571428  3.77404761904762 21.0513990147782  C 4.46956845238094 21.4683694581281  5.26281249999994 21.6792118226602  6.13364583333339 21.6792118226602  C 7.07584821428566 21.6792118226602  8.09203869047622 21.4213891625615  9.0388244047619 20.955975369458  C 9.66624999999999 20.7761822660098  11.5066220238095 20.3070295566503  13.4438988095238 20.3678275862069  C 15.7856547619048 20.4318768472905  17.8064136904762 21.2385073891625  17.8267113095238 21.2467980295565  C 17.8676339285715 21.2635418719212  17.9092113095238 21.274433497537  17.9511160714286 21.2817487684728  C 18.6366517857143 21.5301428571429  19.366875 21.6792118226602  20.0944791666667 21.6792118226602  C 20.9653125 21.6792118226602  21.758556547619 21.4683694581281  22.4779761904762 21.037093596059  Z M 3.6799255952381 19.4490295566503  C 0.190372023809516 16.3192315270936  2.65194940476187 11.2240640394088  2.76505952380955 10.995827586207  L 2.82709821428574 10.7731182266009  C 2.99537202380952 8.585039408867  3.48791666666671 2.70063546798025  3.73492559523805 1.75647783251236  C 3.74916666666672 1.7031576354679  3.76471726190471 1.66056650246296  3.77912202380958 1.62610344827593  C 3.81497023809527 1.68771428571415  3.8470535714286 1.78492610837444  3.82921130952383 1.91286206896544  C 3.69678571428568 2.86417241379306  3.23386904761907 9.5387881773398  3.21373511904767 9.82310837438413  L 3.1850892857143 10.2447931034483  L 3.57270833333331 10.4177586206897  C 3.91023809523807 10.5681280788176  4.23287202380948 10.7248374384236  4.54159226190478 10.8862610837439  C 3.78828869047618 12.1210788177339  2.57861607142854 14.9735467980296  3.6799255952381 19.4490295566503  Z M 6.13380952380953 20.4663399014778  C 5.80593750000003 20.4663399014778  5.4949255952381 20.4265123152709  5.20552083333337 20.3502709359606  C 3.63540178571429 15.510975369458  4.9143154761905 12.5902315270935  5.59657738095234 11.4916403940887  C 9.35360119047624 13.8365911330049  10.591755952381 16.8392660098523  10.7241815476191 17.5164975369458  L 10.7217261904762 17.6836108374384  C 10.7217261904762 18.0449852216749  10.2470238095238 18.7415615763546  9.33919642857143 19.3740886699506  C 9.0988988095238 19.5415270935961  8.84845238095238 19.691408866995  8.59227678571426 19.822921182266  C 8.50372023809518 19.8487684729063  8.44921130952378 19.866  8.43611607142861 19.8703891625616  C 8.34886904761908 19.8983497536947  8.27373511904756 19.9450049261084  8.21071428571429 20.0030394088669  C 7.51863095238093 20.3024778325123  6.80035714285714 20.4663399014778  6.13380952380953 20.4663399014778  Z M 13.4774553571428 19.1549556650245  C 12.6961607142858 19.1369113300492  11.9338541666667 19.1929950738915  11.2476636904762 19.2804532019703  C 11.4619345238095 19.0214926108373  11.6293898809524 18.7597684729065  11.7465922619048 18.5021083743844  L 14.4888988095238 18.5021083743844  C 14.6103571428571 18.762369458128  14.782068452381 19.0262068965516  14.9971577380953 19.2854926108375  C 14.5178720238095 19.2180295566502  14.0069940476191 19.1695862068966  13.4774553571428 19.1549556650245  Z M 20.0946428571428 20.4663399014778  C 17.8101785714286 20.4663399014778  15.5067261904762 18.557866995074  15.5067261904762 17.683448275862  L 15.5067261904762 17.5199113300492  L 15.5042708333334 17.5163349753695  C 15.6383333333333 16.8313004926109  16.9023511904762 13.7662019704434  20.7621726190476 11.4100344827587  C 23.3848214285715 15.3601182266009  21.6174553571428 19.2786650246304  21.0411011904762 20.3442561576354  C 20.7441666666667 20.4248866995074  20.4282440476191 20.4663399014778  20.0946428571428 20.4663399014778  Z M 23.463556547619 10.9959901477833  C 23.4907291666667 11.0501231527094  25.9064732142858 16.0176798029556  22.8304017857143 19.1812906403941  C 23.4737053571429 17.1736551724138  23.8930803571428 13.9845221674876  21.8292708333333 10.8144088669952  C 22.0951041666667 10.6785073891626  22.3691220238096 10.5455320197044  22.6559077380953 10.4177586206897  L 23.0435267857143 10.2447931034483  L 23.014880952381 9.82310837438413  C 22.9945833333333 9.5387881773398  22.5316666666666 2.86417241379306  22.3994047619047 1.91172413793115  C 22.3815625 1.78378817733989  22.4136458333333 1.68787684729074  22.449494047619 1.62626600985226  C 22.4637351190476 1.66056650246296  22.4792857142857 1.70332019704423  22.4936904761905 1.75664039408869  C 22.7406994047619 2.70079802955655  23.2332440476191 8.58520197044334  23.4015178571428 10.7732807881774  L 23.463556547619 10.9959901477833  Z " fill-rule="nonzero" fill="#0079fe" stroke="none" transform="matrix(1 0 0 1 1117 491 )" />
  </g>
</svg>