<?xml version="1.0" encoding="utf-8"?>
<svg version="1.1" xmlns:xlink="http://www.w3.org/1999/xlink" width="23px" height="22px" xmlns="http://www.w3.org/2000/svg">
  <g transform="matrix(1 0 0 1 -197 -541 )">
    <path d="M 22.3707983881516 10.9626746026401  C 22.3707983881516 4.96276552173134  17.3861694444981 0.0815692326687554  11.2594673138271 0.0815692326687554  C 5.13279098033308 0.0815692326687554  0.148136239502946 4.96274025906968  0.148136239502946 10.9626746026401  C 0.148136239502946 16.9626089462105  5.13279098033308 21.8437799726114  11.2594673138271 21.8437799726114  C 17.3861952416746 21.8437799726114  22.3707983881516 16.9626342088721  22.3707983881516 10.9626746026401  Z M 21.1384854668195 10.9626746026401  C 21.1384596696428 16.2971681640625  16.7066490658783 20.6370004557291  11.2594673138271 20.6370004557291  C 5.81233718134649 20.6370004557291  1.38044916083481 16.2971681393678  1.38044916083481 10.9626746026401  C 1.38044916083481 5.62820630387932  5.81233718134649 1.28834874955101  11.2594673138271 1.28834874955101  C 16.7066490658783 1.28834874955101  21.1384854668195 5.62820632857398  21.1384854668195 10.9626746026401  Z M 17.0265956186656 8.59244822322324  C 17.0265956186656 7.79250829156956  16.41378254559 7.14402884916166  15.6578393101772 7.14402884916166  C 14.9018960747646 7.14402884916166  14.2890830016893 7.79250829156956  14.2890830016893 8.59244822322324  C 14.2890830016893 9.39238815487687  14.9018960747646 10.0408675972848  15.6578393101772 10.0408675972848  C 16.41378254559 10.0408675972848  17.0265956186656 9.39238815487687  17.0265956186656 8.59244822322324  Z M 6.24473229391901 10.0408323792543  C 7.00065714872153 10.0408323792543  7.61345532136829 9.39236870449577  7.61345532136829 8.59244822322324  C 7.61345532136829 7.79252774195066  7.00065714872153 7.14406406719218  6.24473229391901 7.14406406719218  C 5.4888074391165 7.14406406719218  4.87600926646951 7.79252774195066  4.87600926646951 8.59244822322324  C 4.87600926646951 9.39236870449577  5.4888074391165 10.0408323792543  6.24473229391901 10.0408323792543  Z M 5.42442078378372 11.5103116143393  L 5.42442078378372 11.937510218994  C 5.42442078378372 15.0999640338588  8.06680509799594 17.6727438803303  11.3144297740394 17.6727438803303  C 14.5620544500828 17.6727438803303  17.2044925831954 15.0999640338588  17.2044925831954 11.937510218994  L 17.2044925831954 11.5103116143393  C 17.2045194794998 11.164769862988  16.9167773982349 10.884773610961  16.5621241735614 10.884773610961  C 16.2074440525832 10.884773610961  15.9197019976098 11.164769862988  15.9197019976098 11.5103116143393  L 15.9197019976098 11.937510218994  C 15.9197019976098 14.4100855770271  13.8536358679905 16.421694062988  11.3144566703438 16.421694062988  C 8.77533126530602 16.421694062988  6.70926513568679 14.4101117664414  6.70926513568679 11.937510218994  L 6.70926513568679 11.5103116143393  C 6.70926513568679 11.1647960524024  6.42149615811718 10.884773610961  6.06684295973537 10.884773610961  C 5.71218976135333 10.884773610961  5.42442078378372 11.164769862988  5.42442078378372 11.5103116143393  Z " fill-rule="nonzero" fill="#0079fe" stroke="none" transform="matrix(1 0 0 1 197 541 )" />
  </g>
</svg>