<?xml version="1.0" encoding="utf-8"?>
<svg version="1.1" xmlns:xlink="http://www.w3.org/1999/xlink" width="25px" height="22px" xmlns="http://www.w3.org/2000/svg">
  <g transform="matrix(1 0 0 1 -292 -541 )">
    <path d="M 18.7232250345145 12.2222209154695  L 18.7232250345145 12.1598161042432  C 18.7232250345145 8.72755148680244  15.9240717901519 5.91933498162382  12.5028844914864 5.91933498162382  C 10.6989857340083 5.91933498162382  9.08169719282103 6.66819271633813  7.96203589507593 7.91628894086205  L 9.45491762540269 8.85236110925496  C 10.2635618959963 8.10350337454054  11.3210197883111 7.66666969595724  12.5028844914864 7.66666969595724  C 14.9910207086976 7.66666969595724  17.043733087897 9.72602846642167  17.043733087897 12.2222209154695  L 15.4264445467096 12.2222209154695  C 15.0532241141279 12.2222209154695  14.9910207086976 12.409435349148  15.1776309249884 12.721459405279  L 17.1681398987574 15.1552470431006  C 17.4169535204786 15.4048662880053  17.72797054763 15.4048662880053  17.976784169351 15.1552470431006  L 20.0294965485504 12.721459405279  C 20.2783101702715 12.4718401603743  20.1539033594109 12.2222209154695  19.7806829268292 12.2222209154695  L 18.7232250345145 12.2222209154695  Z M 5.22508605614348 12.1598161042432  L 6.28254394845828 12.1598161042432  C 6.28254394845828 15.5920807216838  9.08169719282103 18.4002972268627  12.5028844914864 18.4002972268627  C 13.9335628163828 18.4002972268627  15.2398343304188 17.9010587370532  16.2972922227335 17.1522010023389  L 14.7422070869765 16.1537240227198  C 14.1201730326737 16.5281528900769  13.3737321675103 16.7153673237555  12.5650878969167 16.7153673237555  C 10.0769516797054 16.7153673237555  8.02423930050622 14.6560085532909  8.02423930050622 12.1598161042432  L 9.64152784169346 12.1598161042432  C 10.0147482742752 12.1598161042432  10.0769516797054 11.9726016705647  9.89034146341464 11.6605776144337  L 7.83762908421534 9.22678997661205  C 7.58881546249427 8.97717073170736  7.27779843534279 8.97717073170736  7.02898481362172 9.22678997661205  L 4.97627243442241 11.6605776144337  C 4.72745881270134 11.9101968593384  4.85186562356193 12.1598161042432  5.22508605614348 12.1598161042432  Z M 0 18.0258683595055  L 0 7.35464563982623  C 0 5.2952868693618  1.67949194661753 3.61035696625459  3.73220432581684 3.61035696625459  L 4.41644178554998 3.61035696625459  C 5.100679245283 3.61035696625459  5.90932351587662 3.11111847644497  6.2203405430281 2.48707036418307  L 6.78017119190054 1.30137895088535  C 7.09118821905202 0.677330838623448  7.89983248964563 0.178092348813948  8.58406994937877 0.178092348813948  L 16.2972922227335 0.178092348813948  C 16.9815296824667 0.178092348813948  17.7901739530603 0.677330838623448  18.1011909802116 1.30137895088535  L 18.6610216290842 2.48707036418307  C 18.9720386562356 3.11111847644497  19.7806829268292 3.61035696625459  20.4649203865623 3.61035696625459  L 21.1491578462955 3.61035696625459  C 23.2018702254946 3.61035696625459  24.8813621721123 5.2952868693618  24.8813621721123 7.35464563982623  L 24.8813621721123 18.0258683595055  C 24.8813621721123 20.08522712997  23.2018702254946 21.7701570330771  21.1491578462955 21.7701570330771  L 3.73220432581684 21.7701570330771  C 1.67949194661753 21.7701570330771  0 20.08522712997  0 18.0258683595055  Z " fill-rule="nonzero" fill="#0079fe" stroke="none" transform="matrix(1 0 0 1 292 541 )" />
  </g>
</svg>