<?xml version="1.0" encoding="utf-8"?>
<svg version="1.1" xmlns:xlink="http://www.w3.org/1999/xlink" width="22px" height="19px" xmlns="http://www.w3.org/2000/svg">
  <g transform="matrix(1 0 0 1 -337 -543 )">
    <path d="M 8.66822916666661 8.63792067307691  C 9.31371527777776 7.99469150641016  10.0909722222222 7.67307692307691  11 7.67307692307691  C 11.9090277777778 7.67307692307691  12.6862847222222 7.99469150641016  13.3317708333334 8.63792067307691  C 13.9772569444444 9.28114983974365  14.3 10.055689102564  14.3 10.9615384615383  C 14.3 11.8673878205127  13.9772569444444 12.6419270833333  13.3317708333334 13.28515625  C 12.6862847222222 13.9283854166667  11.9090277777778 14.25  11 14.25  C 10.0909722222222 14.25  9.31371527777776 13.9283854166667  8.66822916666661 13.28515625  C 8.02274305555557 12.6419270833333  7.69999999999999 11.8673878205127  7.69999999999999 10.9615384615383  C 7.69999999999999 10.055689102564  8.02274305555557 9.28114983974365  8.66822916666661 8.63792067307691  Z M 16.5 2.92307692307691  L 19.0666666666667 2.92307692307691  C 19.8763888888888 2.92307692307691  20.5677083333333 3.20853365384619  21.140625 3.77944711538453  C 21.7135416666667 4.35036057692309  22 5.0392628205127  22 5.84615384615381  L 22 16.0769230769231  C 22 16.883814102564  21.7135416666667 17.5727163461538  21.140625 18.1436298076922  C 20.5677083333333 18.7145432692307  19.8763888888888 19  19.0666666666667 19  L 2.93333333333339 19  C 2.12361111111119 19  1.43229166666671 18.7145432692307  0.859375 18.1436298076922  C 0.286458333333286 17.5727163461538  0 16.883814102564  0 16.0769230769231  L 0 5.84615384615381  C 0 5.0392628205127  0.286458333333286 4.35036057692309  0.859375 3.77944711538453  C 1.43229166666671 3.20853365384619  2.12361111111119 2.92307692307691  2.93333333333339 2.92307692307691  L 5.5 2.92307692307691  L 6.08437499999997 1.37019230769215  C 6.22951388888887 0.997195512820554  6.49496527777779 0.675580929487296  6.88072916666667 0.40534855769215  C 7.2664930555556 0.135116185897459  7.66180555555559 0  8.06666666666661 0  L 13.9333333333334 0  C 14.3381944444444 0  14.7335069444444 0.135116185897459  15.1192708333333 0.40534855769215  C 15.5050347222222 0.675580929487296  15.7704861111111 0.997195512820554  15.915625 1.37019230769215  L 16.5 2.92307692307691  Z M 7.37343749999997 14.5754206730769  C 8.37795138888887 15.5764222756411  9.5868055555556 16.0769230769231  11 16.0769230769231  C 12.4131944444444 16.0769230769231  13.6220486111111 15.5764222756411  14.6265625 14.5754206730769  C 15.6310763888889 13.5744190705127  16.1333333333334 12.3697916666667  16.1333333333334 10.9615384615383  C 16.1333333333334 9.55328525641016  15.6310763888889 8.34865785256397  14.6265625 7.34765625  C 13.6220486111111 6.34665464743603  12.4131944444444 5.84615384615381  11 5.84615384615381  C 9.5868055555556 5.84615384615381  8.37795138888887 6.34665464743603  7.37343749999997 7.34765625  C 6.36892361111111 8.34865785256397  5.86666666666662 9.55328525641016  5.86666666666662 10.9615384615383  C 5.86666666666662 12.3697916666667  6.36892361111111 13.5744190705127  7.37343749999997 14.5754206730769  Z " fill-rule="nonzero" fill="#0079fe" stroke="none" transform="matrix(1 0 0 1 337 543 )" />
  </g>
</svg>