<?xml version="1.0" encoding="utf-8"?>
<svg version="1.1" xmlns:xlink="http://www.w3.org/1999/xlink" width="22px" height="22px" xmlns="http://www.w3.org/2000/svg">
  <g transform="matrix(1 0 0 1 -112 -541 )">
    <path d="M 15.3516 12.8468999999999  C 15.0623000000001 14.8973  13.31836 16.4797600000001  11.1883200000001 16.4797600000001  C 9.05827999999997 16.4797600000001  7.31456000000003 14.8973  7.02503999999999 12.8468999999999  L 5.96749999999997 12.8468999999999  C 6.26362000000006 15.4814  8.47285999999997 17.53686  11.1863400000001 17.53686  C 13.89982 17.53686  16.10928 15.4814  16.4054 12.8468999999999  L 15.3516 12.8468999999999  Z M 22 11  C 22 4.92469999999997  17.07508 0  11 0  C 4.92492000000004 0  0 4.92469999999997  0 11  C 0 17.0748600000001  4.92492000000004 22  11 22  C 17.07508 22  22 17.0748600000001  22 11  Z M 20.89912 11  C 20.89912 16.46744  16.46656 20.89978  10.9991200000001 20.89978  C 5.53146000000004 20.89978  1.09889999999996 16.46744  1.09889999999996 11  C 1.09889999999996 5.53233999999998  5.53124000000003 1.09978000000001  10.9991200000001 1.09978000000001  C 16.46656 1.09978000000001  20.89912 5.53211999999996  20.89912 11  Z M 12.87594 8.60838000000001  C 12.87594 9.27563999999995  13.41692 9.81684000000001  14.0846200000001 9.81684000000001  C 14.7520999999999 9.81684000000001  15.29308 9.27563999999995  15.29308 8.60838000000001  C 15.29308 7.94089999999994  14.7520999999999 7.39991999999995  14.0846200000001 7.39991999999995  C 13.41714 7.39991999999995  12.87594 7.94089999999994  12.87594 8.60838000000001  Z M 6.58438000000001 8.60838000000001  C 6.58438000000001 9.27563999999995  7.12536 9.81684000000001  7.79305999999997 9.81684000000001  C 8.46053999999992 9.81684000000001  9.00152000000003 9.27563999999995  9.00152000000003 8.60838000000001  C 9.00152000000003 7.94089999999994  8.46032000000002 7.39991999999995  7.79305999999997 7.39991999999995  C 7.12536 7.39991999999995  6.58438000000001 7.94089999999994  6.58438000000001 8.60838000000001  Z " fill-rule="nonzero" fill="#0079fe" stroke="none" transform="matrix(1 0 0 1 112 541 )" />
  </g>
</svg>