<?xml version="1.0" encoding="utf-8"?>
<svg version="1.1" xmlns:xlink="http://www.w3.org/1999/xlink" width="21px" height="22px" xmlns="http://www.w3.org/2000/svg">
  <g transform="matrix(1 0 0 1 -982 -246 )">
    <path d="M 13.6536458333333 0.34375  C 13.8845486111111 0.572916666666629  14 0.844298245614027  14 1.15789473684208  L 14 20.8421052631579  C 14 21.155701754386  13.8845486111111 21.4270833333333  13.6536458333333 21.65625  C 13.4227430555556 21.8854166666667  13.1493055555556 22  12.8333333333333 22  C 12.5173611111111 22  12.2439236111111 21.8854166666667  12.0130208333333 21.65625  L 5.94270833333334 15.6315789473684  L 1.16666666666666 15.6315789473684  C 0.850694444444443 15.6315789473684  0.577256944444443 15.5169956140351  0.346354166666657 15.2878289473684  C 0.115451388888914 15.0586622807018  0 14.7872807017544  0 14.4736842105264  L 0 7.52631578947364  C 0 7.21271929824559  0.115451388888914 6.94133771929819  0.346354166666657 6.71217105263156  C 0.577256944444443 6.48300438596493  0.850694444444443 6.36842105263156  1.16666666666666 6.36842105263156  L 5.94270833333334 6.36842105263156  L 12.0130208333333 0.34375  C 12.2439236111111 0.114583333333371  12.5173611111111 0  12.8333333333333 0  C 13.1493055555556 0  13.4227430555556 0.114583333333371  13.6536458333333 0.34375  Z M 20.2252604166667 8.43092105263156  C 20.7417534722222 9.22697368421052  21 10.0833333333333  21 11  C 21 11.9166666666667  20.7417534722222 12.7700109649122  20.2252604166667 13.5600328947368  C 19.7087673611111 14.3500548245614  19.0251736111111 14.9139254385965  18.1744791666667 15.2516447368421  C 18.0529513888889 15.311951754386  17.9010416666667 15.3421052631579  17.71875 15.3421052631579  C 17.4027777777778 15.3421052631579  17.1293402777778 15.2305372807018  16.8984375 15.0074013157895  C 16.6675347222222 14.7842653508773  16.5520833333333 14.5098684210526  16.5520833333333 14.1842105263158  C 16.5520833333333 13.9309210526316  16.625 13.7168311403509  16.7708333333333 13.5419407894736  C 16.9166666666667 13.3670504385965  17.0928819444444 13.2162828947368  17.2994791666667 13.0896381578947  C 17.5060763888889 12.9629934210526  17.7126736111111 12.8242872807018  17.9192708333333 12.6735197368421  C 18.1258680555556 12.5227521929825  18.3020833333333 12.3086622807018  18.4479166666667 12.03125  C 18.59375 11.7538377192982  18.6666666666667 11.4100877192982  18.6666666666667 11  C 18.6666666666667 10.5899122807018  18.59375 10.2461622807018  18.4479166666667 9.96875  C 18.3020833333333 9.69133771929819  18.1258680555556 9.47724780701753  17.9192708333333 9.32648026315792  C 17.7126736111111 9.17571271929819  17.5060763888889 9.0370065789474  17.2994791666667 8.91036184210532  C 17.0928819444444 8.78371710526324  16.9166666666667 8.63294956140351  16.7708333333333 8.45805921052636  C 16.625 8.28316885964909  16.5520833333333 8.06907894736844  16.5520833333333 7.81578947368416  C 16.5520833333333 7.4901315789474  16.6675347222222 7.21573464912274  16.8984375 6.99259868421052  C 17.1293402777778 6.76946271929819  17.4027777777778 6.65789473684208  17.71875 6.65789473684208  C 17.9010416666667 6.65789473684208  18.0529513888889 6.68804824561403  18.1744791666667 6.74835526315792  C 19.0251736111111 7.07401315789468  19.7087673611111 7.6348684210526  20.2252604166667 8.43092105263156  Z " fill-rule="nonzero" fill="#0079fe" stroke="none" transform="matrix(1 0 0 1 982 246 )" />
  </g>
</svg>