<?xml version="1.0" encoding="utf-8"?>
<svg version="1.1" xmlns:xlink="http://www.w3.org/1999/xlink" width="22px" height="22px" xmlns="http://www.w3.org/2000/svg">
  <g transform="matrix(1 0 0 1 -69 -541 )">
    <path d="M 18.516093272551 3.53327587972842  C 16.4805286983511 1.5327757206596  13.7763230746848 0.4304033055286  10.8981675480115 0.4304033055286  C 8.02129698351132 0.4304033055286  5.3160241784675 1.53279750727454  3.28278998254132 3.53327590106692  C 1.24792234529582 5.53547481862272  0.127495014548913 8.19734181571293  0.127495014548913 11.0284544287099  C 0.127146556741081 13.8602421920465  1.24631066925303 16.5214122521823  3.28048139088253 18.5235023006789  C 5.31465209117368 20.5243073870029  8.01959820368575 21.6263531096022  10.8960985237633 21.6263531096022  C 13.774602529583 21.6263531096022  16.4805286983511 20.5233055441318  18.516093272551 18.5222608903977  C 22.7150441066925 14.3907600077595  22.7154143511154 7.66680223472363  18.516093272551 3.53327587972842  Z M 17.5305005276431 17.5439641648884  C 15.7597919689622 19.2854669233754  13.4047493482057 20.246253227934  10.9007810455868 20.246253227934  C 8.39753144519887 20.246253227934  6.04390448496599 19.2864034277401  4.27439376333655 17.5460331891368  C 2.50492659359838 15.8046611076624  1.53007097963143 13.4883200077595  1.53076789524732 11.0244470785645  C 1.53076789524732 8.5602256915616  2.5056235092145 6.24355789912711  4.27576582929191 4.50275205625606  C 6.04614771677984 2.76135818816678  8.39890353249268 1.80285870999037  10.9025015906886 1.80285870999037  C 13.4060996488846 1.80285870999037  15.7597701823473 2.7613582095053  17.5305005276431 4.50275205625606  C 21.1836663996121 8.09846457613973  21.1836663996121 13.9489703685742  17.5305005276431 17.5439641648884  Z M 14.537852114452 7.5863065606208  C 13.8417475751698 7.5863065606208  13.2765138234723 8.14058540058193  13.2765138234723 8.82390559262846  C 13.2765138234723 9.50665952473329  13.8417475751698 10.0616135363725  14.537852114452 10.0616135363725  C 15.235524756547 10.0616135363725  15.7998437691563 9.5066595460718  15.7998437691563 8.82390559262846  C 15.7998437904946 8.14047651018431  15.235524756547 7.5863065606208  14.537852114452 7.5863065606208  Z M 7.82332470223082 10.0615917497576  C 8.52099734432591 10.0615917497576  9.08533814354985 9.50663775945687  9.08533814354985 8.82388380601364  C 9.08533814354985 8.14047648884578  8.52099734432591 7.58628477400573  7.82332470223082 7.58628477400573  C 7.1282002192047 7.58628477400573  6.56091922987389 8.14056361396713  6.56091922987389 8.82388380601364  C 6.56091922987389 9.50663775945687  7.12789531328815 10.0615917497576  7.82332470223082 10.0615917497576  Z M 10.9091442250243 12.8168694451988  C 9.14734331910756 12.8168694451988  7.59351131522794 13.7256036217264  6.67114339088266 15.1172246750728  C 6.38703464403488 15.5455548166828  6.69851975557708 16.121046543162  7.21032929194951 16.121046543162  L 7.26013816682837 16.121046543162  C 7.46547180601362 16.121046543162  7.66446771677977 16.0255886285159  7.78059402327835 15.8532939321048  C 8.4697510223084 14.8364263627546  9.61380870029097 14.1713788671193  10.9091659903007 14.1713788671193  C 12.2112530397673 14.1713788671193  13.3616919980601 14.8267346479146  14.0491502172648 15.8513555848691  C 14.1645796081475 16.0236502812804  14.3646426789525 16.1207198506305  14.5713266188167 16.1207198506305  L 14.6022747720659 16.1207198506305  C 15.1138447410281 16.1217434801164  15.4253516391852 15.5448796663433  15.1408073094084 15.1172246750728  C 14.2166317361784 13.7283477963143  12.6662843957323 12.8168694451988  10.9091442250243 12.8168694451988  Z " fill-rule="nonzero" fill="#0079fe" stroke="none" transform="matrix(1 0 0 1 69 541 )" />
  </g>
</svg>