<?xml version="1.0" encoding="utf-8"?>
<svg version="1.1" xmlns:xlink="http://www.w3.org/1999/xlink" width="22px" height="22px" xmlns="http://www.w3.org/2000/svg">
  <g transform="matrix(1 0 0 1 -891 -590 )">
    <path d="M 9.16666666666671 10.0833333333335  L 9.16666666666671 13.75  L 12.8333333333333 11.9166666666665  L 9.16666666666671 10.0833333333335  Z M 7.33333333333329 8.95182291666652  L 14.6666666666667 5.28515625  L 14.6666666666667 13.0481770833335  L 7.33333333333329 16.71484375  L 7.33333333333329 8.95182291666652  Z M 17.74609375 14.91015625  C 18.4431423611111 13.7165798611111  18.7916666666667 12.4131944444446  18.7916666666667 11  C 18.7916666666667 9.58680555555543  18.4431423611111 8.28342013888891  17.74609375 7.08984375  C 17.0490451388889 5.89626736111109  16.1037326388889 4.95095486111109  14.91015625 4.25390625  C 13.7165798611111 3.55685763888891  12.4131944444444 3.20833333333348  11 3.20833333333348  C 9.5868055555556 3.20833333333348  8.28342013888889 3.55685763888891  7.08984375 4.25390625  C 5.89626736111111 4.95095486111109  4.95095486111111 5.89626736111109  4.25390625 7.08984375  C 3.55685763888889 8.28342013888891  3.20833333333329 9.58680555555543  3.20833333333329 11  C 3.20833333333329 12.4131944444446  3.55685763888889 13.7165798611111  4.25390625 14.91015625  C 4.95095486111111 16.1037326388889  5.89626736111111 17.0490451388889  7.08984375 17.74609375  C 8.28342013888889 18.4431423611111  9.5868055555556 18.7916666666665  11 18.7916666666665  C 12.4131944444444 18.7916666666665  13.7165798611111 18.4431423611111  14.91015625 17.74609375  C 16.1037326388889 17.0490451388889  17.0490451388889 16.1037326388889  17.74609375 14.91015625  Z M 20.5247395833333 5.478515625  C 21.5082465277778 7.16384548611109  22 9.00434027777783  22 11  C 22 12.9956597222222  21.5082465277778 14.8361545138889  20.5247395833333 16.521484375  C 19.5412326388889 18.2068142361111  18.2068142361111 19.5412326388889  16.521484375 20.5247395833335  C 14.8361545138889 21.5082465277778  12.9956597222222 22  11 22  C 9.00434027777777 22  7.16384548611111 21.5082465277778  5.478515625 20.5247395833335  C 3.79318576388889 19.5412326388889  2.45876736111111 18.2068142361111  1.47526041666671 16.521484375  C 0.491753472222229 14.8361545138889  0 12.9956597222222  0 11  C 0 9.00434027777783  0.491753472222229 7.16384548611109  1.47526041666671 5.478515625  C 2.45876736111111 3.79318576388891  3.79318576388889 2.45876736111109  5.478515625 1.47526041666652  C 7.16384548611111 0.491753472222172  9.00434027777777 0  11 0  C 12.9956597222222 0  14.8361545138889 0.491753472222172  16.521484375 1.47526041666652  C 18.2068142361111 2.45876736111109  19.5412326388889 3.79318576388891  20.5247395833333 5.478515625  Z " fill-rule="nonzero" fill="#0079fe" stroke="none" transform="matrix(1 0 0 1 891 590 )" />
  </g>
</svg>