<?xml version="1.0" encoding="utf-8"?>
<svg version="1.1" xmlns:xlink="http://www.w3.org/1999/xlink" width="22px" height="22px" xmlns="http://www.w3.org/2000/svg">
  <g transform="matrix(1 0 0 1 -937 -437 )">
    <path d="M 21.7729617431698 11.2853495415923  C 21.7729617431698 11.8369297662993  21.3244399956227 12.2869031075077  20.7714083263169 12.2869031075077  C 20.2198281837021 12.2869031075077  19.7698549094637 11.8383812932065  19.7698549094637 11.2853495415923  C 19.7698549094637 6.17307177470238  15.61558551956 2.01444718579273  10.5091146203001 2.01444718579273  C 9.95753447768539 2.01444718579273  9.50756120344704 1.56592537149154  9.50756120344704 1.01289361987732  C 9.50756120344704 0.459861868263104  9.95753447768539 0.0113400539619164  10.5091146203001 0.0113400539619164  C 16.7201973314806 0.0113400539619164  21.7729617431698 5.06845979838113  21.7729617431698 11.2853495415923  Z M 16.9626022888928 11.8369297662993  C 16.4124736729692 11.8369297662993  15.9625003987308 11.3869564250909  15.9625003987308 10.8353762003839  C 15.9625003987308 8.07312049612734  13.7169886076124 5.82615684389978  10.9590878945385 5.82615684389978  C 10.4075077519237 5.82615684389978  9.95753447768539 5.37763502959849  9.95753447768539 4.82460327798437  C 9.95753447768539 4.27157152637015  10.4075077519237 3.82304971206896  10.9590878945385 3.82304971206896  C 14.8216004195328 3.82304971206896  17.964155705746 6.96850851980618  17.964155705746 10.8353762003839  C 17.964155705746 11.3884079519981  17.5156339581987 11.8369297662993  16.9626022888928 11.8369297662993  Z M 8.61487228842577 8.02667163509943  L 7.66847688583414 8.97161565163699  C 8.16635054087851 9.8541440111682  8.79921617819446 10.8702128461549  9.87189440291104 11.9443427574265  C 10.9460241543186 13.0213757225123  11.9606413113916 13.6527899271111  12.8431695395752 14.1492121293475  L 13.7895649421669 13.2028165859028  C 14.7838607255645 12.2070691276159  16.3877977192207 12.1881992778233  17.361772128943 13.1607223055962  L 20.3011136784031 16.1029673463361  C 21.2736365614345 17.0798449548304  21.2547667144503 18.6837821872021  20.2633739844348 19.6809811723962  L 19.4156823968374 20.511254563271  C 19.3213331619165 20.6027007584198  19.2139201867757 20.6738255768689  19.0948949981062 20.7217259648039  C 18.7610438591552 20.9742916466435  18.3270373785188 21.2094390055975  17.8640003640605 21.390879868988  C 17.3806419759271 21.578126840007  16.9001866411759 21.7000551002054  16.3965068793672 21.7595677033975  C 16.2847393241531 21.7726314455616  16.1308774948974 21.7842436608185  15.9131484912338 21.7842436608185  C 15.2860889606822 21.7842436608185  14.2540534833162 21.6927974656697  12.8910699203813 21.2573393935326  C 10.3436405775158 20.4430327986362  7.82959634854535 18.8071619743077  5.42151356802469 16.3947242546679  C 1.6606079114066 12.630914984496  0.0392525974574482 9.71044284736294  6.13767980439661E-05 6.63175427735351  C -0.00284167658423939 6.36467332644263  0.0973136651010691 6.1121076446031  0.284560608251923 5.92050609286287  C 0.470356024711691 5.72890454112245  0.721470142270391 5.62149154999534  0.990002580122223 5.6171369692739  C 1.54303424942816 5.6171369692739  1.99445905035759 6.05985267594669  2.00171668381313 6.60562679302521  C 2.03365027101711 9.11531681544224  3.4793708553442 11.6192007302308  6.83675209183878 14.9794855202223  C 11.9867687918313 20.1353090943259  15.997337039317 19.7898456904305  16.1671656621747 19.772427367545  C 16.4923076409792 19.7332361410527  16.8116435130194 19.6519506342537  17.1367854918238 19.527119320241  C 17.4778942642303 19.3935788447857  17.8044877697259 19.2077834006739  18.0802778410332 18.9929574184195  C 18.1107599015461 18.9697329879056  18.139790435368 18.9494116112058  18.1702724958809 18.9290902345062  L 18.8510385140028 18.2628393841363  C 19.0629614109022 18.049464928789  19.0789282045042 17.7141622132435  18.8844236278978 17.5196576076889  L 15.949436658511 14.5803156207633  C 15.7549320819047 14.3872625421158  15.4225324696447 14.4046808650013  15.2062549926721 14.6209583741627  L 13.7256977677589 16.101515819429  C 13.4150710558653 16.4135941044606  12.9259065609674 16.4832673960026  12.5354458810639 16.2713444675624  L 12.2378829093901 16.1058704001503  C 11.252296286139 15.5586447561646  9.90673104349719 14.8125599259031  8.45955893247901 13.3624845456864  C 7.01093529476975 11.9124091654698  6.26194752216657 10.5624891418446  5.71617348631605 9.57690237190755  L 5.56231165706038 9.30111225955406  C 5.33442196655903 8.9048454139093  5.39974066765819 8.40987473858002  5.71907653969834 8.09053881901279  L 7.19963376461158 6.60852984683946  C 7.41591124158413 6.392252337678  7.43478108856846 6.05694962213243  7.24027651196218 5.86244501657784  L 4.30238648919305 2.92310302965222  C 4.21529488772762 2.83601141522483  4.09046359229376 2.78085339275405  3.95692313671327 2.78956255419682  C 3.81177046760422 2.79246560801109  3.67242390525939 2.85342973811028  3.56210787673638 2.96084272923746  L 2.792798730458 3.77805237794813  C 2.68828880869933 3.91885048793912  2.57071514672089 4.10464593205094  2.47055980503569 4.2947959568842  C 2.3471800362928 4.53284636965245  2.13816019277567 4.70702959850732  1.8826914951436 4.78686357839914  C 1.62722279751154 4.86814908519811  1.35869035965959 4.84347312777699  1.12063998232054 4.72009334067144  C 0.884041131672689 4.59671355356589  0.709857928741712 4.38769367894011  0.628572434040507 4.13222494328633  C 0.5487384660305 3.87675620763255  0.573414419779056 3.60677220290751  0.696794188521835 3.36872179013918  C 0.860816704615218 3.05374045129329  1.05096670114813 2.75908048914719  1.25853501797428 2.49345106514356  L 1.31224150554453 2.42958388123012  L 2.12219339917363 1.5688284253057  C 2.61280942076257 1.0753092768836  3.25002963815177 0.799519164530111  3.92063496943604 0.787906949273179  C 4.59704640748464 0.76613404566622  5.2371696782559 1.02595736204142  5.71762501300725 1.50786429520652  L 8.65406350908518 4.4486578090393  C 9.62803791880765 5.42408389062649  9.61061959851452 7.02947264990537  8.61487228842577 8.02667163509943  Z " fill-rule="nonzero" fill="#0079fe" stroke="none" transform="matrix(1 0 0 1 937 437 )" />
  </g>
</svg>