<?xml version="1.0" encoding="utf-8"?>
<svg version="1.1" xmlns:xlink="http://www.w3.org/1999/xlink" width="24px" height="18px" xmlns="http://www.w3.org/2000/svg">
  <g transform="matrix(1 0 0 1 -934 -592 )">
    <path d="M 7.49000000000001 7.92323400323403  C 7.63000000000011 8.12547932547932  8.21333333333325 8.979404019404  11.1533333333333 13.0243104643105  L 11.1766666666666 13.0467821667821  C 11.34 13.2490274890274  11.62 13.3838577038578  11.8766666666666 13.3838577038578  C 12.1566666666668 13.3838577038578  12.4366666666666 13.2490274890274  12.5766666666667 13.0243104643105  C 13.8366666666667 11.2715176715178  16.2166666666666 7.96817740817755  16.3099999999999 7.85581889581886  L 16.3333333333333 7.83334719334721  C 16.8233333333333 7.0468376068377  17.1033333333334 6.12549780549784  17.1033333333334 5.20415800415799  C 17.1033333333334 2.44013860013865  14.77 0.170496650496716  11.8766666666666 0.170496650496716  C 8.98333333333335 0.170496650496716  6.65000000000009 2.417666897667  6.65000000000009 5.20415800415799  C 6.65000000000009 6.17044121044114  6.92999999999995 7.09178101178122  7.49000000000001 7.92323400323403  Z M 7.93333333333328 5.22662970662986  C 7.95666666666659 3.15923307923299  9.70666666666659 1.45138369138385  11.8533333333332 1.45138369138385  C 14 1.45138369138385  15.7500000000001 3.13676137676134  15.7500000000001 5.20415800415799  C 15.7500000000001 5.87830907830903  15.5633333333333 6.52998844998842  15.1900000000001 7.15919611919639  C 15.05 7.36144144144146  13.1366666666668 10.0131023331026  11.8766666666666 11.765895125895  C 10.8966666666668 10.4175929775931  8.77333333333331 7.47379995380015  8.56333333333339 7.20413952413969  C 8.16666666666663 6.61987525987502  7.93333333333328 5.92325248325255  7.93333333333328 5.22662970662986  Z M 8.95999999999992 5.22662970662986  C 8.95999999999992 6.75470547470559  10.2433333333333 8.01312081312085  11.8533333333332 8.01312081312085  C 13.4400000000001 8.01312081312085  14.7466666666667 6.75470547470559  14.7466666666667 5.22662970662986  C 14.7466666666667 3.69855393855391  13.4400000000001 2.44013860013865  11.8533333333332 2.44013860013865  C 10.2666666666668 2.44013860013865  8.95999999999992 3.69855393855391  8.95999999999992 5.22662970662986  Z M 10.29 5.20415800415799  C 10.29 4.37270501270496  10.99 3.69855393855391  11.8533333333332 3.69855393855391  C 12.7166666666667 3.69855393855391  13.4166666666665 4.37270501270496  13.4166666666665 5.20415800415799  C 13.4166666666665 6.05808269808267  12.7166666666667 6.70976206976206  11.8533333333332 6.70976206976206  C 10.99 6.70976206976206  10.29 6.03561099561102  10.29 5.20415800415799  Z M 23.1466666666668 16.5523677523677  C 23.45 15.9006883806883  23.38 15.1366504966506  22.9366666666667 14.5523862323862  L 19.6933333333332 8.50749826749825  L 17.0099999999999 8.50749826749825  L 15.9600000000002 9.81085701085703  L 18.8766666666668 9.81085701085703  L 21.84 15.2714807114808  L 21.8866666666668 15.3164241164243  C 22.0499999999998 15.5186694386696  22.0499999999998 15.7883298683298  21.9333333333334 16.013046893047  C 21.8166666666666 16.2377639177641  21.5833333333335 16.372594132594  21.3033333333334 16.372594132594  L 2.05333333333328 16.372594132594  C 1.77333333333331 16.372594132594  1.53999999999996 16.2377639177641  1.4233333333334 16.013046893047  C 1.30666666666662 15.7658581658582  1.33000000000004 15.5186694386696  1.49333333333334 15.2939524139524  L 1.51666666666677 15.2714807114808  L 4.43333333333339 9.78838530838539  L 7.74666666666667 9.78838530838539  L 6.65000000000009 8.4850265650266  L 3.61666666666667 8.4850265650266  L 0.373333333333335 14.5523862323862  C -0.07000000000005 15.1591221991223  -0.116666666666674 15.9231600831602  0.233333333333348 16.5523677523677  C 0.606666666666683 17.2265188265187  1.28333333333342 17.6310094710095  2.0766666666666 17.6310094710095  L 21.3266666666667 17.6310094710095  C 22.0966666666667 17.6310094710095  22.7966666666666 17.2265188265187  23.1466666666668 16.5523677523677  Z " fill-rule="nonzero" fill="#0079fe" stroke="none" transform="matrix(1 0 0 1 934 592 )" />
  </g>
</svg>