<?xml version="1.0" encoding="utf-8"?>
<svg version="1.1" xmlns:xlink="http://www.w3.org/1999/xlink" width="22px" height="22px" xmlns="http://www.w3.org/2000/svg">
  <g transform="matrix(1 0 0 1 -1113 -341 )">
    <path d="M 7.5221210978184 17.8533978888106  C 7.5221210978184 18.3971549049966  7.96296579873331 18.8379104292751  8.50667327234339 18.8379104292751  C 9.05042781140037 18.8379104292751  9.49122544686838 18.3971573821252  9.49122544686838 17.8533978888106  L 9.49122544686838 6.03931072519975  C 9.49122544686838 5.49562802287733  9.05045258268819 5.05479818473526  8.50667327234339 5.05479818473526  C 7.96296827586207 5.05479818473526  7.5221210978184 5.4956007744608  7.5221210978184 6.03931072519975  L 7.5221210978184 17.8533978888106  Z M 21.7980945333934 3.08580049524949  C 21.7980718930331 2.54204441942301  21.3572990288529 2.10129137227301  20.813544489796 2.10129137227301  L 12.4448588319223 2.10129137227301  L 12.4448588319223 1.11677886755905  C 12.4448588319223 0.573046622661138  12.0040859677421 0.132266327094612  11.4603066573973 0.132266327094612  L 10.4757539448154 0.132266327094612  C 9.93204894833411 0.132266327094612  9.49120177029056 0.573019374244439  9.49120177029056 1.11677886755905  L 9.49120177029056 2.10129025694397  L 1.12256452609017 2.10129025694397  C 0.578809987033196 2.10129025694397  0.13801235156518 2.54204330409397  0.13801235156518 3.08580279740841  C 0.13801235156518 3.62953504230649  0.57878521574537 4.0703153378729  1.12256452609017 4.0703153378729  L 3 4.0703153378729  L 3 19.8224210023607  C 2.59938121719119 20.9099102634443  3.48100125941494 21.7914436061606  4.56848556624118 21.7914436061606  L 17.3676213187175 21.7914436061606  C 18.4551576452481 21.7914436061606  19.3367256677675 20.9099102634443  19 19.8224210023607  L 19 4.07031303571398  L 20.8135423588685 4.07031303571398  C 21.3572968979255 4.07031303571398  21.7980945333934 3.62955998856404  21.7980945333934 3.08580049524949  Z M 17 18.8379096129756  L 17.367623026038 18.8379104292751  C 17.367623026038 19.3816426741731  16.9268501618578 19.8224229697396  16.383070851513 19.8224229697396  L 5.55303935493646 19.8224229697396  C 5.00933435845513 19.8224229697396  4.56848718041147 19.3816699225897  5 18.8379104292751  L 5 4  L 17 4  L 17 18.8379096129756  Z M 12.4448596762843 17.8533978888106  C 12.4448596762843 18.3971549049966  12.8856548346236 18.8379104292751  13.4294118508093 18.8379104292751  C 13.9731663898663 18.8379104292751  14.4139640253343 18.3971573821252  14 17.8533978888106  L 14 6.03931072519975  C 14.4139640253343 5.49562802287733  13.9731911611541 5.05479818473526  13.4294118508093 5.05479818473526  C 12.8856573117523 5.05479818473526  12.4448596762843 5.4956007744608  12.4448596762843 6.03931072519975  L 12.4448596762843 17.8533978888106  Z " fill-rule="nonzero" fill="#0079fe" stroke="none" transform="matrix(1 0 0 1 1113 341 )" />
  </g>
</svg>