<?xml version="1.0" encoding="utf-8"?>
<svg version="1.1" xmlns:xlink="http://www.w3.org/1999/xlink" width="22px" height="17px" xmlns="http://www.w3.org/2000/svg">
  <g transform="matrix(1 0 0 1 -1158 -344 )">
    <path d="M 20.7723214285715 6.53196022727275  C 21.2388392857143 6.21803977272725  21.6480654761904 5.86789772727275  22 5.48153409090924  L 22 15.0681818181818  C 22 15.5994318181818  21.8076636904761 16.0542140151517  21.4229910714285 16.4325284090908  C 21.0383184523809 16.8108428030305  20.5758928571428 17  20.0357142857143 17  L 1.96428571428567 17  C 1.42410714285717 17  0.961681547619094 16.8108428030305  0.577008928571502 16.4325284090908  C 0.192336309523796 16.0542140151517  0 15.5994318181818  0 15.0681818181818  L 0 5.48153409090924  C 0.360119047619094 5.875946969697  0.7734375 6.22608901515173  1.23995535714283 6.53196022727275  C 4.20275297619042 8.51207386363626  6.23660714285717 9.90056818181824  7.34151785714283 10.6974431818182  C 7.80803571428567 11.0355113636363  8.1865699404762 11.2991240530305  8.47712053571433 11.48828125  C 8.76767113095241 11.6774384469695  9.15438988095241 11.8706202651517  9.63727678571433 12.0678267045455  C 10.1201636904762 12.2650331439395  10.5703125 12.3636363636363  10.9877232142857 12.3636363636363  L 11 12.3636363636363  L 11.0122767857143 12.3636363636363  C 11.4296875 12.3636363636363  11.8798363095238 12.2650331439395  12.3627232142857 12.0678267045455  C 12.8456101190476 11.8706202651517  13.2323288690476 11.6774384469695  13.5228794642857 11.48828125  C 13.8134300595238 11.2991240530305  14.1919642857143 11.0355113636363  14.6584821428572 10.6974431818182  C 16.0498511904762 9.70738636363626  18.0877976190476 8.3188920454545  20.7723214285715 6.53196022727275  Z M 21.4168526785715 0.567471590909236  C 21.8056175595239 0.945785984848271  22 1.40056818181824  22 1.93181818181824  C 22 2.56770833333326  21.7994791666667 3.17542613636374  21.3984375 3.75497159090924  C 20.9973958333333 4.3345170454545  20.4981398809524 4.8295454545455  19.9006696428572 5.24005681818176  C 16.8232886904762 7.34090909090924  14.9081101190476 8.64891098484827  14.1551339285715 9.1640625  C 14.0732886904762 9.22040719696952  13.8993675595238 9.34315814393949  13.6333705357143 9.53231534090924  C 13.3673735119048 9.72147253787875  13.1463913690476 9.87440814393949  12.9704241071428 9.99112215909076  C 12.7944568452381 10.1078361742425  12.5816592261904 10.2386363636363  12.33203125 10.3835227272727  C 12.0824032738096 10.5284090909092  11.8470982142857 10.6370738636363  11.6261160714285 10.7095170454545  C 11.4051339285715 10.7819602272727  11.2005208333333 10.8181818181818  11.0122767857143 10.8181818181818  L 11 10.8181818181818  L 10.9877232142857 10.8181818181818  C 10.7994791666667 10.8181818181818  10.5948660714285 10.7819602272727  10.3738839285715 10.7095170454545  C 10.1529017857143 10.6370738636363  9.91759672619042 10.5284090909092  9.66796875 10.3835227272727  C 9.41834077380958 10.2386363636363  9.20554315476193 10.1078361742425  9.02957589285717 9.99112215909076  C 8.85360863095241 9.87440814393949  8.63262648809524 9.72147253787875  8.36662946428567 9.53231534090924  C 8.1006324404762 9.34315814393949  7.9267113095238 9.22040719696952  7.8448660714285 9.1640625  C 7.10007440476193 8.64891098484827  6.02790178571433 7.91441761363626  4.62834821428567 6.96058238636374  C 3.22879464285717 6.00674715909076  2.38988095238091 5.43323863636374  2.11160714285717 5.24005681818176  C 1.60416666666674 4.90198863636374  1.12537202380958 4.43714488636374  0.675223214285666 3.84552556818176  C 0.225074404761926 3.25390625  0 2.7045454545455  0 2.19744318181824  C 0 1.56960227272725  0.169828869047592 1.04640151515173  0.509486607142833 0.627840909090764  C 0.849144345238074 0.209280303030482  1.33407738095241 0  1.96428571428567 0  L 20.0357142857143 0  C 20.5677083333333 0  21.0280877976191 0.189157196969518  21.4168526785715 0.567471590909236  Z " fill-rule="nonzero" fill="#0079fe" stroke="none" transform="matrix(1 0 0 1 1158 344 )" />
  </g>
</svg>