<?xml version="1.0" encoding="utf-8"?>
<svg version="1.1" xmlns:xlink="http://www.w3.org/1999/xlink" width="16px" height="24px" xmlns="http://www.w3.org/2000/svg">
  <g transform="matrix(1 0 0 1 -1031 -436 )">
    <path d="M 15.6112848246952 1.23381032812495  C 15.6112848246952 0.575878129464286  15.0569328696646 0.042455789062501  14.3731857012195 0  L 1.37306319359752 0  C 0.689316051829252 0.042455789062501  0.134964096798768 0.575904389508878  0.134964096798768 1.23381032812495  L 0.134964096798768 22.7661896718749  C 0.134964096798768 23.4241218705357  0.689343342225584 23.9575442109375  1.37306319359752 24  L 14.3731857012195 24  C 15.0569328429877 23.9575442109375  15.6112847980182 23.424095610491  15.6112847980182 22.7661896718749  L 15.6112848246952 1.23381032812495  Z M 9.267808128811 21.3764599017857  C 9.267808128811 22.1175563013393  8.64329886051829 22.7184871584822  7.87312444740846 22.7184871584822  C 7.10292274390247 22.7184871584822  6.47844076600606 22.117582561384  6.47844076600606 21.3764599017857  C 6.47844076600606 20.6353372421875  7.10292274390247 20.0344326450893  7.87312444740846 20.0344326450893  C 8.64332615091462 20.0344326450893  9.267808128811 20.6353372421875  9.267808128811 21.3764599017857  Z M 14.3731857278963 2.21517925669639  L 14.3731857012195 18  L 1.37306319359752 18  L 1.37306322027442 2.21517925669639  L 14.3731857278963 2.21517925669639  Z " fill-rule="nonzero" fill="#0079fe" stroke="none" transform="matrix(1 0 0 1 1031 436 )" />
  </g>
</svg>