<?xml version="1.0" encoding="utf-8"?>
<svg version="1.1" xmlns:xlink="http://www.w3.org/1999/xlink" width="14px" height="22px" xmlns="http://www.w3.org/2000/svg">
  <g transform="matrix(1 0 0 1 -730 -197 )">
    <path d="M 14 11  C 14 11.236559139785  13.9144144144144 11.4412737799835  13.7432432432433 11.6141439205956  L 3.7162162162162 21.7406947890819  C 3.54504504504502 21.913564929694  3.34234234234231 22  3.10810810810807 22  C 2.87387387387389 22  2.67117117117112 21.913564929694  2.5 21.7406947890819  L 0.256756756756715 19.4751861042183  C 0.0855855855855907 19.3023159636062  0 19.0976013234077  0 18.8610421836229  C 0 18.6244830438379  0.0855855855855907 18.4197684036394  0.256756756756715 18.2468982630273  L 7.43243243243245 11  L 0.256756756756715 3.75310173697267  C 0.0855855855855907 3.58023159636059  0 3.37551695616207  0 3.13895781637711  C 0 2.90239867659227  0.0855855855855907 2.69768403639375  0.256756756756715 2.52481389578168  L 2.5 0.259305210918114  C 2.67117117117112 0.0864350703060381  2.87387387387389 0  3.10810810810807 0  C 3.34234234234231 0  3.54504504504502 0.0864350703060381  3.7162162162162 0.259305210918114  L 13.7432432432433 10.3858560794044  C 13.9144144144144 10.5587262200165  14 10.763440860215  14 11  Z " fill-rule="nonzero" fill="#0079fe" stroke="none" transform="matrix(1 0 0 1 730 197 )" />
  </g>
</svg>