<?xml version="1.0" encoding="utf-8"?>
<svg version="1.1" xmlns:xlink="http://www.w3.org/1999/xlink" width="24px" height="22px" xmlns="http://www.w3.org/2000/svg">
  <g transform="matrix(1 0 0 1 -770 -542 )">
    <path d="M 23.5160182812499 2.17526834072578  C 23.5160182812499 1.05139033467742  22.7113010351561 0.139828739919437  21.720401422991 0.139828739919437  L 1.85096432198668 0.139828739919437  C 0.859153925781129 0.139828739919437  0.0553474637277986 1.05139030141117  0 2.17526834072578  L 0 17.1026763276211  C 0.0553474637277986 18.2263500796372  0.859153925781129 19.1378776098791  1.85096432198668 19.1378776098791  L 9.38393696428579 19.1378776098791  L 11.7856828571428 21.8601712600806  L 14.1865493638393 19.1378776098791  L 21.7204642187501 19.1378776098791  C 22.7113010044643 19.1378776098791  23.5161124748885 18.2263500796372  23.5161124748885 17.1026763276211  L 23.5161124748885 14.6701093377014  L 23.5084805189731 14.6701093377014  C 23.4880029631695 14.3161805120967  23.23495453125 14.0347940030243  22.9175526004462 14.0347940030243  C 22.6001506696427 14.0347940030243  22.3471964313616 14.3162145433468  22.3266246819196 14.6701093377014  L 22.3190241238839 14.6701093377014  L 22.3190241238839 16.4239241108871  C 22.3190241238839 17.1739590554434  21.7834044140625 17.7813944465726  21.121904344308 17.7813944465726  L 13.5879580915179 17.7813944798386  L 11.7856828878348 19.8238806451614  L 9.98334485770101 17.7813944798386  L 2.44895888113831 17.7813944798386  C 1.78792990234376 17.7813944798386  1.25237301897334 17.1739590887097  1.25237301897334 16.4239241441531  L 1.25237301897334 2.85405455544361  C 1.25237301897334 2.10599398891128  1.78792990234376 1.4968225050402  2.44895888113831 1.4968225050402  L 21.1218415178571 1.4968225050402  C 21.7833729854912 1.4968225050402  22.3189926953125 2.10595995766118  22.3189926953125 2.85402052419352  L 22.3189926953125 9.30010686088724  L 22.3313671735491 9.30010686088724  C 22.3294827483259 9.32288058669337  22.3189926953125 9.34459901108869  22.3189926953125 9.37047051209663  C 22.3189926953125 9.74499439818544  22.5862058063615 10.0481674274194  22.9174583761161 10.0481674274194  C 23.247768702567 10.0481674274194  23.5160496791294 9.74496036693535  23.5160496791294 9.37047051209663  C 23.5160496791294 9.34456497983882  23.5051199330356 9.32284655544356  23.5036438030133 9.30010686088724  L 23.5160496791294 9.30010686088724  L 23.5160496791294 2.17526834072578  Z M 17.6938628404018 11.2991221129033  L 17.6938628404018 11  L 6.39591142020083 11  C 6.09531235770112 11.2991221129033  5.85190595982147 11.5868062993953  5.85190595982147 11.9416882661291  C 5.85190595982147 12.2955489959676  6.09531235770112 12.5831991179435  6.39591142020083 12.5831991179435  L 17.6938628404018 12.5831991179435  C 17.9936453125 12.5831991179435  18.2370517103794 12.2955489959676  18.2370517103794 11.9416882661291  C 18.2370203124999 11.5868062661289  17.9936139146205 11.2991221129033  17.6938628404018 11.2991221129033  Z M 17.6938628404018 6.96067724798377  L 17.6938628404018 7  L 6.39591142020083 7  C 6.09531235770112 6.96067724798377  5.85190595982147 7.24734016431449  5.85190595982147 7.6032434012098  C 5.85190595982147 7.95703603528227  6.09531235770112 8.24472022177417  6.39591142020083 8.24472022177417  L 17.6938628404018 8.24472022177417  C 17.9936453125 8.24472022177417  18.2370517103794 7.95707009979822  18.2370517103794 7.6032434012098  C 18.2370203124999 7.24734016431449  17.9936139146205 6.96067724798377  17.6938628404018 6.96067724798377  Z " fill-rule="nonzero" fill="#0079fe" stroke="none" transform="matrix(1 0 0 1 770 542 )" />
  </g>
</svg>