<?xml version="1.0" encoding="utf-8"?>
<svg version="1.1" xmlns:xlink="http://www.w3.org/1999/xlink" width="21px" height="22px" xmlns="http://www.w3.org/2000/svg">
  <g transform="matrix(1 0 0 1 -891 -639 )">
    <path d="M 10.5 21.0178571428571  C 10.6346153846154 21.0178571428571  10.7019230769231 20.9523809523809  10.7019230769231 20.8214285714286  C 10.7019230769231 20.6904761904761  10.6346153846154 20.625  10.5 20.625  C 10.0036057692307 20.625  9.57662259615387 20.4510788690476  9.21905048076923 20.1032366071429  C 8.86147836538461 19.7553943452381  8.68269230769229 19.3400297619048  8.68269230769229 18.8571428571429  C 8.68269230769229 18.7261904761905  8.61538461538461 18.6607142857143  8.48076923076923 18.6607142857143  C 8.34615384615387 18.6607142857143  8.27884615384613 18.7261904761905  8.27884615384613 18.8571428571429  C 8.27884615384613 19.4546130952381  8.49549278846155 19.9640997023809  8.92878605769229 20.3856026785714  C 9.36207932692312 20.8071056547619  9.88581730769229 21.0178571428571  10.5 21.0178571428571  Z M 19.8515625 16.2053571428571  C 20.1965144230769 16.5818452380952  20.5793269230769 16.9419642857143  21 17.2857142857143  C 21 17.7113095238095  20.8401442307693 18.0796130952381  20.5204326923077 18.390625  C 20.2007211538461 18.7016369047619  19.8221153846154 18.8571428571429  19.3846153846154 18.8571428571429  L 13.7307692307692 18.8571428571429  C 13.7307692307692 19.7247023809524  13.415264423077 20.4654017857143  12.7842548076923 21.0792410714286  C 12.1532451923077 21.6930803571429  11.3918269230769 22  10.5 22  C 9.60817307692312 22  8.84675480769229 21.6930803571429  8.21574519230771 21.0792410714286  C 7.58473557692309 20.4654017857143  7.26923076923077 19.7247023809524  7.26923076923077 18.8571428571429  L 1.61538461538461 18.8571428571429  C 1.17788461538464 18.8571428571429  0.799278846153868 18.7016369047619  0.479567307692292 18.390625  C 0.159855769230745 18.0796130952381  0 17.7113095238095  0 17.2857142857143  C 0.420673076923066 16.9419642857143  0.803485576923094 16.5818452380952  1.1484375 16.2053571428571  C 1.49338942307691 15.8288690476192  1.85096153846155 15.33984375  2.22115384615387 14.73828125  C 2.59134615384616 14.13671875  2.90474759615384 13.4880952380952  3.16135817307691 12.7924107142857  C 3.41796875 12.0967261904761  3.62830528846152 11.2537202380952  3.79236778846152 10.2633928571429  C 3.95643028846152 9.27306547619048  4.03846153846152 8.20907738095241  4.03846153846152 7.07142857142856  C 4.03846153846152 5.82738095238096  4.53064903846152 4.67131696428578  5.51502403846152 3.60323660714289  C 6.49939903846152 2.53515625  7.79086538461539 1.88653273809518  9.38942307692309 1.65736607142856  C 9.32211538461536 1.50186011904759  9.28846153846152 1.34226190476193  9.28846153846152 1.17857142857144  C 9.28846153846152 0.851190476190482  9.40625 0.572916666666629  9.64182692307691 0.34375  C 9.87740384615384 0.114583333333371  10.1634615384615 0  10.5 0  C 10.8365384615385 0  11.1225961538462 0.114583333333371  11.3581730769231 0.34375  C 11.59375 0.572916666666629  11.7115384615385 0.851190476190482  11.7115384615385 1.17857142857144  C 11.7115384615385 1.34226190476193  11.6778846153846 1.50186011904759  11.6105769230769 1.65736607142856  C 13.2091346153846 1.88653273809518  14.5006009615385 2.53515625  15.4849759615385 3.60323660714289  C 16.4693509615385 4.67131696428578  16.9615384615385 5.82738095238096  16.9615384615385 7.07142857142856  C 16.9615384615385 8.20907738095241  17.0435697115385 9.27306547619048  17.2076322115385 10.2633928571429  C 17.3716947115385 11.2537202380952  17.5820312500001 12.0967261904761  17.838641826923 12.7924107142857  C 18.0952524038462 13.4880952380952  18.4086538461538 14.13671875  18.7788461538462 14.73828125  C 19.1490384615385 15.33984375  19.5066105769231 15.8288690476192  19.8515625 16.2053571428571  Z " fill-rule="nonzero" fill="#0079fe" stroke="none" transform="matrix(1 0 0 1 891 639 )" />
  </g>
</svg>