<?xml version="1.0" encoding="utf-8"?>
<svg version="1.1" xmlns:xlink="http://www.w3.org/1999/xlink" width="22px" height="13px" xmlns="http://www.w3.org/2000/svg">
  <g transform="matrix(1 0 0 1 -590 -201 )">
    <path d="M 21.7795591182364 10.6323024054983  C 21.9265197060788 10.7812142038946  22 10.9524627720505  22 11.1460481099656  C 22 11.3396334478808  21.9265197060788 11.5108820160367  21.7795591182364 11.659793814433  L 20.6773547094188 12.7766323024055  C 20.5303941215765 12.9255441008019  20.3613894455578 13  20.1703406813627 13  C 19.9792919171677 13  19.8102872411489 12.9255441008019  19.6633266533066 12.7766323024055  L 11 3.99828178694156  L 2.3366733466934 12.7766323024055  C 2.18971275885104 12.9255441008019  2.02070808283233 13  1.82965931863728 13  C 1.63861055444224 13  1.46960587842349 12.9255441008019  1.32264529058116 12.7766323024055  L 0.220440881763523 11.659793814433  C 0.0734802939211647 11.5108820160367  0 11.3396334478808  0 11.1460481099656  C 0 10.9524627720505  0.0734802939211647 10.7812142038946  0.220440881763523 10.6323024054983  L 10.4929859719439 0.22336769759454  C 10.6399465597862 0.0744558991981421  10.808951235805 0  11 0  C 11.191048764195 0  11.3600534402138 0.0744558991981421  11.5070140280561 0.22336769759454  L 21.7795591182364 10.6323024054983  Z " fill-rule="nonzero" fill="#0079fe" stroke="none" transform="matrix(1 0 0 1 590 201 )" />
  </g>
</svg>