<?xml version="1.0" encoding="utf-8"?>
<svg version="1.1" xmlns:xlink="http://www.w3.org/1999/xlink" width="22px" height="19px" xmlns="http://www.w3.org/2000/svg">
  <g transform="matrix(1 0 0 1 -891 -198 )">
    <path d="M 12.7310267857143 8.94440112289465  L 21.4475446428572 0.178285506342263  C 21.6030505952381 0.0218947113052081  21.7340029761905 -0.0316074027864488  21.8404017857142 0.0177791640674059  C 21.9468005952381 0.0671657309212605  22 0.198863242531388  22 0.412871698897902  L 22 18.5871283011022  C 22 18.8011367574687  21.9468005952381 18.9328342690789  21.8404017857142 18.9822208359326  C 21.7340029761905 19.0316074027865  21.6030505952381 18.9781052886949  21.4475446428572 18.8217144936577  L 12.7310267857143 10.0555988771055  C 12.6573660714286 9.98151902682469  12.6041666666667 9.90332362930621  12.5714285714286 9.82101268454983  L 12.5714285714286 18.5871283011022  C 12.5714285714286 18.8011367574687  12.5182291666667 18.9328342690789  12.4118303571428 18.9822208359326  C 12.305431547619 19.0316074027865  12.1744791666667 18.9781052886949  12.0189732142857 18.8217144936577  L 3.30245535714287 10.0555988771055  C 3.22879464285713 9.98151902682469  3.17559523809522 9.90332362930621  3.14285714285713 9.82101268454983  L 3.14285714285713 18.1920357662716  C 3.14285714285713 18.4060442226381  3.06510416666668 18.5912438483399  2.90959821428571 18.7476346433771  C 2.75409226190478 18.9040254384141  2.56994047619049 18.9822208359326  2.35714285714287 18.9822208359326  L 0.785714285714292 18.9822208359326  C 0.572916666666679 18.9822208359326  0.388764880952387 18.9040254384141  0.233258928571416 18.7476346433771  C 0.0777529761904852 18.5912438483399  0 18.4060442226381  0 18.1920357662716  L 0 0.807964233728398  C 0 0.593955777361884  0.0777529761904852 0.4087561516601  0.233258928571416 0.252365356623045  C 0.388764880952387 0.0959745615859902  0.572916666666679 0.0177791640674059  0.785714285714292 0.0177791640674059  L 2.35714285714287 0.0177791640674059  C 2.56994047619049 0.0177791640674059  2.75409226190478 0.0959745615859902  2.90959821428571 0.252365356623045  C 3.06510416666668 0.4087561516601  3.14285714285713 0.593955777361884  3.14285714285713 0.807964233728398  L 3.14285714285713 9.17898731545029  C 3.17559523809522 9.08844527621829  3.22879464285713 9.01024987869971  3.30245535714287 8.94440112289465  L 12.0189732142857 0.178285506342263  C 12.1744791666667 0.0218947113052081  12.305431547619 -0.0316074027864488  12.4118303571428 0.0177791640674059  C 12.5182291666667 0.0671657309212605  12.5714285714286 0.198863242531388  12.5714285714286 0.412871698897902  L 12.5714285714286 9.17898731545029  C 12.6041666666667 9.08844527621829  12.6573660714286 9.01024987869971  12.7310267857143 8.94440112289465  Z " fill-rule="nonzero" fill="#0079fe" stroke="none" transform="matrix(1 0 0 1 891 198 )" />
  </g>
</svg>