<?xml version="1.0" encoding="utf-8"?>
<svg version="1.1" xmlns:xlink="http://www.w3.org/1999/xlink" width="22px" height="22px" xmlns="http://www.w3.org/2000/svg">
  <g transform="matrix(1 0 0 1 -203 -197 )">
    <path d="M 15.9127604166667 11.12890625  C 15.9986979166667 11.21484375  16.0416666666667 11.3246527777778  16.0416666666667 11.4583333333334  C 16.0416666666667 11.5729166666666  15.9939236111111 11.6875  15.8984375 11.8020833333334  L 11.3294270833333 16.37109375  C 11.2243923611111 16.45703125  11.1145833333333 16.5  11 16.5  C 10.8854166666667 16.5  10.7756076388889 16.45703125  10.6705729166667 16.37109375  L 6.08723958333329 11.7877604166666  C 5.94401041666671 11.6349826388889  5.91059027777777 11.4678819444445  5.98697916666671 11.2864583333334  C 6.0633680555556 11.0954861111111  6.20659722222223 11  6.41666666666671 11  L 9.16666666666671 11  L 9.16666666666671 5.95833333333337  C 9.16666666666671 5.82465277777783  9.20963541666671 5.71484375  9.29557291666671 5.62890625  C 9.38151041666671 5.54296875  9.4913194444444 5.5  9.625 5.5  L 12.375 5.5  C 12.5086805555556 5.5  12.6184895833333 5.54296875  12.7044270833333 5.62890625  C 12.7903645833333 5.71484375  12.8333333333333 5.82465277777783  12.8333333333333 5.95833333333337  L 12.8333333333333 11  L 15.5833333333333 11  C 15.7170138888889 11  15.8268229166667 11.04296875  15.9127604166667 11.12890625  Z M 14.91015625 4.25390625  C 13.7165798611111 3.55685763888891  12.4131944444444 3.20833333333337  11 3.20833333333337  C 9.5868055555556 3.20833333333337  8.28342013888889 3.55685763888891  7.08984375 4.25390625  C 5.89626736111111 4.95095486111109  4.95095486111111 5.89626736111109  4.25390625 7.08984375  C 3.55685763888889 8.28342013888891  3.20833333333329 9.58680555555554  3.20833333333329 11  C 3.20833333333329 12.4131944444445  3.55685763888889 13.7165798611111  4.25390625 14.91015625  C 4.95095486111111 16.1037326388889  5.89626736111111 17.0490451388889  7.08984375 17.74609375  C 8.28342013888889 18.4431423611111  9.5868055555556 18.7916666666666  11 18.7916666666666  C 12.4131944444444 18.7916666666666  13.7165798611111 18.4431423611111  14.91015625 17.74609375  C 16.1037326388889 17.0490451388889  17.0490451388889 16.1037326388889  17.74609375 14.91015625  C 18.4431423611111 13.7165798611111  18.7916666666667 12.4131944444445  18.7916666666667 11  C 18.7916666666667 9.58680555555554  18.4431423611111 8.28342013888891  17.74609375 7.08984375  C 17.0490451388889 5.89626736111109  16.1037326388889 4.95095486111109  14.91015625 4.25390625  Z M 20.5247395833333 5.478515625  C 21.5082465277778 7.16384548611109  22 9.00434027777783  22 11  C 22 12.9956597222222  21.5082465277778 14.8361545138889  20.5247395833333 16.521484375  C 19.5412326388889 18.2068142361111  18.2068142361111 19.5412326388889  16.521484375 20.5247395833334  C 14.8361545138889 21.5082465277778  12.9956597222222 22  11 22  C 9.00434027777777 22  7.16384548611111 21.5082465277778  5.478515625 20.5247395833334  C 3.79318576388889 19.5412326388889  2.45876736111111 18.2068142361111  1.47526041666671 16.521484375  C 0.491753472222229 14.8361545138889  0 12.9956597222222  0 11  C 0 9.00434027777783  0.491753472222229 7.16384548611109  1.47526041666671 5.478515625  C 2.45876736111111 3.79318576388891  3.79318576388889 2.45876736111109  5.478515625 1.47526041666663  C 7.16384548611111 0.491753472222172  9.00434027777777 0  11 0  C 12.9956597222222 0  14.8361545138889 0.491753472222172  16.521484375 1.47526041666663  C 18.2068142361111 2.45876736111109  19.5412326388889 3.79318576388891  20.5247395833333 5.478515625  Z " fill-rule="nonzero" fill="#0079fe" stroke="none" transform="matrix(1 0 0 1 203 197 )" />
  </g>
</svg>