<?xml version="1.0" encoding="utf-8"?>
<svg version="1.1" xmlns:xlink="http://www.w3.org/1999/xlink" width="22px" height="22px" xmlns="http://www.w3.org/2000/svg">
  <g transform="matrix(1 0 0 1 -69 -246 )">
    <path d="M 12.375 18.4192708333334  C 12.6232638888889 18.4192708333334  12.8381076388889 18.3285590277777  13.01953125 18.1471354166666  L 14.48046875 16.6861979166666  C 14.6618923611111 16.5047743055555  14.7526041666666 16.2899305555555  14.7526041666666 16.0416666666666  C 14.7526041666666 15.7934027777777  14.6618923611111 15.5785590277777  14.48046875 15.3971354166666  L 10.0833333333334 11  L 14.48046875 6.60286458333337  C 14.6618923611111 6.42144097222217  14.7526041666666 6.20659722222217  14.7526041666666 5.95833333333337  C 14.7526041666666 5.71006944444446  14.6618923611111 5.49522569444446  14.48046875 5.31380208333337  L 13.01953125 3.85286458333337  C 12.8381076388889 3.67144097222217  12.6232638888889 3.58072916666663  12.375 3.58072916666663  C 12.1267361111111 3.58072916666663  11.9118923611111 3.67144097222217  11.73046875 3.85286458333337  L 5.22786458333336 10.35546875  C 5.0464409722222 10.5368923611111  4.95572916666664 10.7517361111111  4.95572916666664 11  C 4.95572916666664 11.2482638888889  5.0464409722222 11.4631076388889  5.22786458333336 11.64453125  L 11.73046875 18.1471354166666  C 11.9118923611111 18.3285590277777  12.1267361111111 18.4192708333334  12.375 18.4192708333334  Z M 20.5247395833334 5.478515625  C 21.5082465277778 7.16384548611109  22 9.00434027777783  22 11  C 22 12.9956597222222  21.5082465277778 14.8361545138889  20.5247395833334 16.521484375  C 19.5412326388889 18.2068142361111  18.2068142361111 19.5412326388889  16.521484375 20.5247395833334  C 14.8361545138889 21.5082465277777  12.9956597222222 22  11 22  C 9.0043402777778 22  7.16384548611111 21.5082465277777  5.478515625 20.5247395833334  C 3.79318576388889 19.5412326388889  2.45876736111111 18.2068142361111  1.47526041666664 16.521484375  C 0.4917534722222 14.8361545138889  0 12.9956597222222  0 11  C 0 9.00434027777783  0.4917534722222 7.16384548611109  1.47526041666664 5.478515625  C 2.45876736111111 3.79318576388891  3.79318576388889 2.45876736111109  5.478515625 1.47526041666663  C 7.16384548611111 0.491753472222172  9.0043402777778 0  11 0  C 12.9956597222222 0  14.8361545138889 0.491753472222172  16.521484375 1.47526041666663  C 18.2068142361111 2.45876736111109  19.5412326388889 3.79318576388891  20.5247395833334 5.478515625  Z " fill-rule="nonzero" fill="#0079fe" stroke="none" transform="matrix(1 0 0 1 69 246 )" />
  </g>
</svg>