<?xml version="1.0" encoding="utf-8"?>
<svg version="1.1" xmlns:xlink="http://www.w3.org/1999/xlink" width="22px" height="22px" xmlns="http://www.w3.org/2000/svg">
  <g transform="matrix(1 0 0 1 -113 -344 )">
    <path d="M 17.14453125 12.5611979166666  C 17.3259548611111 12.3797743055555  17.4166666666666 12.1649305555555  17.4166666666666 11.9166666666666  L 17.4166666666666 10.0833333333334  C 17.4166666666666 9.83506944444446  17.3259548611111 9.62022569444446  17.14453125 9.43880208333337  C 16.9631076388889 9.25737847222217  16.7482638888889 9.16666666666663  16.5 9.16666666666663  L 12.8333333333334 9.16666666666663  L 12.8333333333334 5.5  C 12.8333333333334 5.25173611111109  12.7426215277778 5.03689236111109  12.5611979166666 4.85546875  C 12.3797743055556 4.67404513888891  12.1649305555556 4.58333333333337  11.9166666666666 4.58333333333337  L 10.0833333333334 4.58333333333337  C 9.83506944444444 4.58333333333337  9.62022569444444 4.67404513888891  9.43880208333336 4.85546875  C 9.2573784722222 5.03689236111109  9.16666666666664 5.25173611111109  9.16666666666664 5.5  L 9.16666666666664 9.16666666666663  L 5.5 9.16666666666663  C 5.25173611111111 9.16666666666663  5.03689236111111 9.25737847222217  4.85546875 9.43880208333337  C 4.67404513888889 9.62022569444446  4.58333333333336 9.83506944444446  4.58333333333336 10.0833333333334  L 4.58333333333336 11.9166666666666  C 4.58333333333336 12.1649305555555  4.67404513888889 12.3797743055555  4.85546875 12.5611979166666  C 5.03689236111111 12.7426215277778  5.25173611111111 12.8333333333334  5.5 12.8333333333334  L 9.16666666666664 12.8333333333334  L 9.16666666666664 16.5  C 9.16666666666664 16.7482638888889  9.2573784722222 16.9631076388889  9.43880208333336 17.14453125  C 9.62022569444444 17.3259548611111  9.83506944444444 17.4166666666666  10.0833333333334 17.4166666666666  L 11.9166666666666 17.4166666666666  C 12.1649305555556 17.4166666666666  12.3797743055556 17.3259548611111  12.5611979166666 17.14453125  C 12.7426215277778 16.9631076388889  12.8333333333334 16.7482638888889  12.8333333333334 16.5  L 12.8333333333334 12.8333333333334  L 16.5 12.8333333333334  C 16.7482638888889 12.8333333333334  16.9631076388889 12.7426215277778  17.14453125 12.5611979166666  Z M 20.5247395833334 5.478515625  C 21.5082465277778 7.16384548611109  22 9.00434027777771  22 11  C 22 12.9956597222222  21.5082465277778 14.8361545138889  20.5247395833334 16.521484375  C 19.5412326388889 18.2068142361111  18.2068142361111 19.5412326388889  16.521484375 20.5247395833334  C 14.8361545138889 21.5082465277778  12.9956597222222 22  11 22  C 9.0043402777778 22  7.16384548611111 21.5082465277778  5.478515625 20.5247395833334  C 3.79318576388889 19.5412326388889  2.45876736111111 18.2068142361111  1.47526041666664 16.521484375  C 0.4917534722222 14.8361545138889  0 12.9956597222222  0 11  C 0 9.00434027777771  0.4917534722222 7.16384548611109  1.47526041666664 5.478515625  C 2.45876736111111 3.79318576388891  3.79318576388889 2.45876736111109  5.478515625 1.47526041666663  C 7.16384548611111 0.491753472222172  9.0043402777778 0  11 0  C 12.9956597222222 0  14.8361545138889 0.491753472222172  16.521484375 1.47526041666663  C 18.2068142361111 2.45876736111109  19.5412326388889 3.79318576388891  20.5247395833334 5.478515625  Z " fill-rule="nonzero" fill="#0079fe" stroke="none" transform="matrix(1 0 0 1 113 344 )" />
  </g>
</svg>