<?xml version="1.0" encoding="utf-8"?>
<svg version="1.1" xmlns:xlink="http://www.w3.org/1999/xlink" width="22px" height="19px" xmlns="http://www.w3.org/2000/svg">
  <g transform="matrix(1 0 0 1 -1070 -295 )">
    <path d="M 9.65144230769229 10.8764204545455  C 9.98637820512823 11.2182765151515  10.1538461538462 11.6231060606061  10.1538461538462 12.0909090909091  L 10.1538461538462 17.2727272727273  C 10.1538461538462 17.7405303030303  9.98637820512823 18.1453598484849  9.65144230769229 18.4872159090909  C 9.31650641025641 18.829071969697  8.91987179487177 19  8.46153846153848 19  L 1.69230769230771 19  C 1.23397435897436 19  0.83733974358978 18.829071969697  0.502403846153811 18.4872159090909  C 0.167467948717928 18.1453598484849  0 17.7405303030303  0 17.2727272727273  L 0 12.0909090909091  C 0 11.6231060606061  0.167467948717928 11.2182765151515  0.502403846153811 10.8764204545455  C 0.83733974358978 10.5345643939394  1.23397435897436 10.3636363636364  1.69230769230771 10.3636363636364  L 8.46153846153848 10.3636363636364  C 8.91987179487177 10.3636363636364  9.31650641025641 10.5345643939394  9.65144230769229 10.8764204545455  Z M 9.65144230769229 0.512784090909122  C 9.98637820512823 0.854640151515127  10.1538461538462 1.25946969696975  10.1538461538462 1.72727272727275  L 10.1538461538462 6.90909090909088  C 10.1538461538462 7.37689393939388  9.98637820512823 7.7817234848485  9.65144230769229 8.1235795454545  C 9.31650641025641 8.46543560606062  8.91987179487177 8.63636363636363  8.46153846153848 8.63636363636363  L 1.69230769230771 8.63636363636363  C 1.23397435897436 8.63636363636363  0.83733974358978 8.46543560606062  0.502403846153811 8.1235795454545  C 0.167467948717928 7.7817234848485  0 7.37689393939388  0 6.90909090909088  L 0 1.72727272727275  C 0 1.25946969696975  0.167467948717928 0.854640151515127  0.502403846153811 0.512784090909122  C 0.83733974358978 0.170928030303003  1.23397435897436 0  1.69230769230771 0  L 8.46153846153848 0  C 8.91987179487177 0  9.31650641025641 0.170928030303003  9.65144230769229 0.512784090909122  Z M 21.4975961538462 10.8764204545455  C 21.8325320512821 11.2182765151515  22 11.6231060606061  22 12.0909090909091  L 22 17.2727272727273  C 22 17.7405303030303  21.8325320512821 18.1453598484849  21.4975961538462 18.4872159090909  C 21.1626602564102 18.829071969697  20.7660256410256 19  20.3076923076923 19  L 13.5384615384615 19  C 13.0801282051282 19  12.6834935897436 18.829071969697  12.3485576923077 18.4872159090909  C 12.0136217948718 18.1453598484849  11.8461538461538 17.7405303030303  11.8461538461538 17.2727272727273  L 11.8461538461538 12.0909090909091  C 11.8461538461538 11.6231060606061  12.0136217948718 11.2182765151515  12.3485576923077 10.8764204545455  C 12.6834935897436 10.5345643939394  13.0801282051282 10.3636363636364  13.5384615384615 10.3636363636364  L 20.3076923076923 10.3636363636364  C 20.7660256410256 10.3636363636364  21.1626602564102 10.5345643939394  21.4975961538462 10.8764204545455  Z M 21.4975961538462 0.512784090909122  C 21.8325320512821 0.854640151515127  22 1.25946969696975  22 1.72727272727275  L 22 6.90909090909088  C 22 7.37689393939388  21.8325320512821 7.7817234848485  21.4975961538462 8.1235795454545  C 21.1626602564102 8.46543560606062  20.7660256410256 8.63636363636363  20.3076923076923 8.63636363636363  L 13.5384615384615 8.63636363636363  C 13.0801282051282 8.63636363636363  12.6834935897436 8.46543560606062  12.3485576923077 8.1235795454545  C 12.0136217948718 7.7817234848485  11.8461538461538 7.37689393939388  11.8461538461538 6.90909090909088  L 11.8461538461538 1.72727272727275  C 11.8461538461538 1.25946969696975  12.0136217948718 0.854640151515127  12.3485576923077 0.512784090909122  C 12.6834935897436 0.170928030303003  13.0801282051282 0  13.5384615384615 0  L 20.3076923076923 0  C 20.7660256410256 0  21.1626602564102 0.170928030303003  21.4975961538462 0.512784090909122  Z " fill-rule="nonzero" fill="#0079fe" stroke="none" transform="matrix(1 0 0 1 1070 295 )" />
  </g>
</svg>