<svg xmlns="http://www.w3.org/2000/svg" xmlns:xlink="http://www.w3.org/1999/xlink" width="28" height="20" version="1.1"><g><path fill="#0079fe" fill-rule="nonzero" stroke="none" d="M 27.2775217613928 0.0815721171672976 L 27.2775217613928 3.96984303547151 C 27.2775217613928 5.12997981296098 27.041588439438 6.21307625757004 26.5697217955284 7.21913236929913 C 26.0978551516187 8.22518848102845 25.4535756955112 9.08169571128406 24.636883427206 9.78865406006662 C 25.4535756955112 10.5137395459976 26.0978551516187 11.3747785605403 26.5697217955284 12.3717711036954 C 27.041588439438 13.3687636468503 27.2775217613928 14.4563918757467 27.2775217613928 15.6346557903842 L 27.2775217613928 19.5229267086886 C 26.7330602491894 19.5229267086886 26.2248961711327 19.4232274543731 25.7530295272231 19.2238289457421 C 25.2811628833134 19.0244304371113 24.8682795698925 18.7479915956001 24.5143795869602 18.3945124212087 C 24.1604796040281 18.0410332468173 23.8837116686578 17.6286408766941 23.68407578085 17.1573353108392 C 23.4844398930421 16.6860297449841 23.3846219491381 16.1784699048326 23.3846219491381 15.6346557903842 C 23.3846219491381 15.0908416759362 23.2848040052342 14.5832818357844 23.0851681174262 14.1119762699295 C 22.8855322296183 13.6406707040744 22.6087642942482 13.2282783339513 22.2548643113159 12.8747991595599 C 21.9009643283837 12.5213199851687 21.4880810149627 12.2448811436577 21.0162143710531 12.0454826350265 C 20.5443477271435 11.8460841263957 20.0361836490869 11.7463848720799 19.4917221368835 11.7463848720799 C 18.9472606246801 11.7463848720799 18.4390965466234 11.8460841263957 17.9672299027138 12.0454826350265 C 17.4953632588041 12.2448811436577 17.0824799453832 12.5213199851687 16.7285799624509 12.8747991595599 C 16.3746799795188 13.2282783339513 16.0979120441486 13.6406707040744 15.8982761563407 14.1119762699295 C 15.6986402685328 14.5832818357844 15.5988223246288 15.0908416759362 15.5988223246288 15.6346557903842 C 15.5988223246288 16.1784699048326 15.4990043807248 16.6860297449841 15.2993684929169 17.1573353108392 C 15.099732605109 17.6286408766941 14.8229646697389 18.0410332468173 14.4690646868067 18.3945124212087 C 14.1151647038745 18.7479915956001 13.7022813904533 19.0244304371113 13.2304147465438 19.2238289457421 C 12.7585481026341 19.4232274543731 12.2503840245776 19.5229267086886 11.7059225123742 19.5229267086886 L 11.7059225123742 15.6346557903842 C 11.7059225123742 14.4563918757467 11.941855834329 13.3687636468503 12.4137224782386 12.3717711036954 C 12.8855891221482 11.3747785605403 13.5298685782557 10.5137395459976 14.3465608465609 9.78865406006662 C 13.5298685782557 9.08169571128406 12.8855891221482 8.22518848102845 12.4137224782386 7.21913236929913 C 11.941855834329 6.21307625757004 11.7059225123742 5.12997981296098 11.7059225123742 3.96984303547151 L 11.7059225123742 0.0815721171672976 C 12.2503840245776 0.0815721171672976 12.7585481026341 0.18127137148258 13.2304147465438 0.380669880113828 C 13.7022813904533 0.580068388744621 14.1151647038745 0.856507230255829 14.4690646868067 1.20998640464722 C 14.8229646697389 1.56346557903839 15.099732605109 1.97585794916154 15.2993684929169 2.44716351501688 C 15.4990043807248 2.91846908087177 15.5988223246288 3.42602892102332 15.5988223246288 3.96984303547151 C 15.5988223246288 4.51365714991971 15.6986402685328 5.02121699007125 15.8982761563407 5.49252255592637 C 16.0979120441486 5.96382812178126 16.3746799795188 6.37622049190463 16.7285799624509 6.7296996662958 C 17.0824799453832 7.0831788406872 17.4953632588041 7.35961768219818 17.9672299027138 7.55901619082942 C 18.4390965466234 7.75841469946045 18.9472606246801 7.85811395377596 19.4917221368835 7.85811395377596 C 20.0361836490869 7.85811395377596 20.5443477271435 7.75841469946045 21.0162143710531 7.55901619082942 C 21.4880810149627 7.35961768219818 21.9009643283837 7.0831788406872 22.2548643113159 6.7296996662958 C 22.6087642942482 6.37622049190463 22.8855322296183 5.96382812178126 23.0851681174262 5.49252255592637 C 23.2848040052342 5.02121699007125 23.3846219491381 4.51365714991971 23.3846219491381 3.96984303547151 C 23.3846219491381 3.42602892102332 23.4844398930421 2.91846908087177 23.68407578085 2.44716351501688 C 23.8837116686578 1.97585794916154 24.1604796040281 1.56346557903839 24.5143795869602 1.20998640464722 C 24.8682795698925 0.856507230255829 25.2811628833134 0.580068388744621 25.7530295272231 0.380669880113828 C 26.2248961711327 0.18127137148258 26.7330602491894 0.0815721171672976 27.2775217613928 0.0815721171672976 Z M 6.26130739033977 15.3355580274379 C 6.73317403424937 15.5349565360689 7.24133811230581 15.6346557903842 7.78579962450931 15.6346557903842 C 8.60249189281444 15.6346557903842 9.33297775502069 15.412598360318 9.97725721112806 14.9684835001854 C 10.6215366672357 14.5243686400527 11.0888661318769 13.9578956041692 11.3792456050521 13.269064392535 C 11.1614610001707 14.012277015614 11.05256869773 14.8008074815639 11.05256869773 15.6346557903842 L 11.05256869773 18.815968359906 C 10.0180918245435 19.2872739257612 8.92916880013649 19.5229267086886 7.78579962450931 19.5229267086886 C 6.7150253171759 19.5229267086886 5.70777151959953 19.3189964157705 4.76403823178021 18.9111358299344 C 3.82030494396088 18.5032752440984 2.99453831711901 17.9458657767891 2.28673835125437 17.2389074280063 C 1.57893838538996 16.531949079224 1.02086533538147 15.7071643389775 0.612519201228906 14.7645532072675 C 0.20417306707634 13.8219420755572 0 12.8158859638279 0 11.7463848720799 L 0 0.0815721171672976 C 0.544461512203384 0.0815721171672976 1.05262559025994 0.18127137148258 1.52449223416966 0.380669880113828 C 1.99635887807938 0.580068388744621 2.4092421915002 0.856507230255829 2.76314217443257 1.20998640464722 C 3.11704215736472 1.56346557903839 3.39381009273484 1.97585794916154 3.59344598054281 2.44716351501688 C 3.79308186835078 2.91846908087177 3.89289981225454 3.42602892102332 3.89289981225454 3.96984303547151 L 3.89289981225454 11.7463848720799 C 3.89289981225454 12.2901989865281 3.99271775615864 12.7977588266799 4.1923536439665 13.269064392535 C 4.39198953177447 13.7403699583899 4.66875746714459 14.1527623285131 5.02265745007674 14.5062415029042 C 5.37655743300911 14.8597206772956 5.78944074642993 15.1361595188068 6.26130739033977 15.3355580274379 Z M 11.7059225123742 11.7463848720799 L 11.7059225123742 7.42306266221726 C 12.0870455709165 8.34754665677906 12.6133583660467 9.17233139702557 13.2848608977641 9.89741688295635 C 12.5226147806793 10.7493923289253 11.9509301928657 11.6829398920611 11.5698071343232 12.6980595723644 C 11.6605507196905 12.3717711036954 11.7059225123742 12.0545462036007 11.7059225123742 11.7463848720799 Z" transform="matrix(1 0 0 1 -158 -685 ) matrix(1 0 0 1 158 685 )"/></g></svg>