<svg xmlns="http://www.w3.org/2000/svg" xmlns:xlink="http://www.w3.org/1999/xlink" width="20" height="22" version="1.1"><g><path fill="#0079fe" fill-rule="nonzero" stroke="none" d="M 2.76407763605766 5.95843685937507 C 4.57947004254811 4.36894384895834 6.96291669879793 3.39529732552091 9.58313947091347 3.39529732552091 C 12.2033324584136 3.39529732552091 14.5870172461539 4.36894384895834 16.4019929588944 5.95864204947918 L 19.0041189302885 0.864783677083324 L 18.1474984995193 0.0213475338542821 L 17.2910864156252 0 L 1.87498417932693 0 L 1.01857209543277 0.0213475338542821 L 0.162160011538163 0.864783677083324 L 2.76407763605766 5.95843685937507 Z M 15.6039191343752 7.52113733593762 L 15.6052585403845 7.51876294010401 C 14.057746026923 6.01164076562509 11.9315236139423 5.07961935937487 9.58313944182714 5.07961935937487 C 7.23475526971174 5.07961935937487 5.10877095913452 6.01164079427076 3.56102034326932 7.51876294010401 L 3.5623299646636 7.52113733593762 C 1.9926131949519 9.05012733854164 1.01857203725967 11.1707215755208 1.01857203725967 13.5167949583334 C 1.01857203725967 18.175201888021 4.85303492860589 21.9515961614584 9.58313941274037 21.9515961614584 C 14.3130057944711 21.9515961614584 18.1474686858173 18.1752311927083 18.1474686858173 13.5167949583334 C 18.1474686858173 11.1707509088542 17.1736656596154 9.0501566718749 15.6039191343752 7.52113733593762 Z" transform="matrix(1 0 0 1 -252 -684 ) matrix(1 0 0 1 252 684 )"/></g></svg>