<svg xmlns="http://www.w3.org/2000/svg" xmlns:xlink="http://www.w3.org/1999/xlink" width="22" height="14" version="1.1"><g><path fill="#0079fe" fill-rule="nonzero" stroke="none" d="M 16.3342633928572 10.9678819444445 C 17.9752604166667 9.98350694444446 19.3400297619048 8.66087962962968 20.4285714285715 7 C 19.1845238095238 5.08796296296293 17.6253720238096 3.65798611111109 15.7511160714285 2.71006944444446 C 16.2503720238096 3.55266203703707 16.5 4.46412037037032 16.5 5.44444444444446 C 16.5 6.94328703703707 15.9618675595238 8.22540509259261 14.8856026785715 9.29079861111109 C 13.8093377976191 10.3561921296297 12.5141369047619 10.8888888888889 11 10.8888888888889 C 9.48586309523807 10.8888888888889 8.19066220238091 10.3561921296297 7.1143973214285 9.29079861111109 C 6.0381324404762 8.22540509259261 5.5 6.94328703703707 5.5 5.44444444444446 C 5.5 4.46412037037032 5.74962797619042 3.55266203703707 6.2488839285715 2.71006944444446 C 4.37462797619042 3.65798611111109 2.8154761904762 5.08796296296293 1.5714285714285 7 C 2.65997023809524 8.66087962962968 4.02473958333326 9.98350694444446 5.66573660714283 10.9678819444445 C 7.30673363095241 11.9522569444445 9.0848214285715 12.4444444444445 11 12.4444444444445 C 12.9151785714285 12.4444444444445 14.6932663690476 11.9522569444445 16.3342633928572 10.9678819444445 Z M 11.4174107142857 2.74652777777783 C 11.5319940476191 2.63310185185185 11.5892857142857 2.49537037037032 11.5892857142857 2.33333333333326 C 11.5892857142857 2.17129629629619 11.5319940476191 2.03356481481478 11.4174107142857 1.92013888888891 C 11.3028273809524 1.80671296296293 11.1636904761904 1.75 11 1.75 C 9.97693452380958 1.75 9.09914434523807 2.11255787037032 8.36662946428567 2.83767361111109 C 7.63411458333326 3.56278935185185 7.26785714285717 4.43171296296293 7.26785714285717 5.44444444444446 C 7.26785714285717 5.60648148148152 7.3251488095238 5.74421296296293 7.43973214285717 5.85763888888891 C 7.55431547619042 5.97106481481478 7.69345238095241 6.02777777777783 7.85714285714283 6.02777777777783 C 8.02083333333326 6.02777777777783 8.15997023809524 5.97106481481478 8.2745535714285 5.85763888888891 C 8.38913690476193 5.74421296296293 8.4464285714285 5.60648148148152 8.4464285714285 5.44444444444446 C 8.4464285714285 4.74768518518522 8.69605654761909 4.15219907407402 9.1953125 3.65798611111109 C 9.69456845238091 3.16377314814815 10.2961309523809 2.91666666666674 11 2.91666666666674 C 11.1636904761904 2.91666666666674 11.3028273809524 2.85995370370381 11.4174107142857 2.74652777777783 Z M 21.7544642857143 6.16145833333326 C 21.9181547619048 6.44502314814815 22 6.72453703703707 22 7 C 22 7.27546296296293 21.9181547619048 7.55497685185185 21.7544642857143 7.83854166666674 C 20.6086309523809 9.70196759259261 19.0678943452381 11.1947337962962 17.1322544642857 12.3168402777778 C 15.1966145833333 13.4389467592592 13.1525297619048 14 11 14 C 8.84747023809524 14 6.80338541666674 13.4369212962962 4.86774553571433 12.3107638888889 C 2.93210565476193 11.1846064814815 1.39136904761909 9.69386574074076 0.245535714285666 7.83854166666674 C 0.0818452380952408 7.55497685185185 0 7.27546296296293 0 7 C 0 6.72453703703707 0.0818452380952408 6.44502314814815 0.245535714285666 6.16145833333326 C 1.39136904761909 4.30613425925924 2.93210565476193 2.81539351851848 4.86774553571433 1.68923611111109 C 6.80338541666674 0.563078703703809 8.84747023809524 0 11 0 C 13.1525297619048 0 15.1966145833333 0.563078703703809 17.1322544642857 1.68923611111109 C 19.0678943452381 2.81539351851848 20.6086309523809 4.30613425925924 21.7544642857143 6.16145833333326 Z" transform="matrix(1 0 0 1 -24 -688 ) matrix(1 0 0 1 24 688 )"/></g></svg>