<svg xmlns="http://www.w3.org/2000/svg" xmlns:xlink="http://www.w3.org/1999/xlink" width="22" height="15" version="1.1"><g><path fill="#0079fe" fill-rule="nonzero" stroke="none" d="M 7.78359696197503 13.43723046875 C 8.12121661376955 13.0648203125 8.38828031921389 12.6215332031249 8.58640175628659 12.10803515625 C 8.7846718215942 11.593419921875 8.88306371307374 11.0841328125 8.88306371307374 10.578046875 C 8.88306371307374 9.50586914062504 8.58994760131839 8.590205078125 8.00420372772214 7.83043164062502 C 7.41852355194089 7.07085156249998 6.6492662734986 6.62466406249995 5.69672914886473 6.49075195312503 L 5.34520214080817 6.46896679687498 L 5.08125962829592 6.42344140624999 C 4.64223305511473 6.36405859375003 4.4219660110474 6.19231249999999 4.4219660110474 5.90964257812496 C 4.4219660110474 5.61174023437501 4.70816029357911 5.14243554687502 5.27969955444337 4.50265234375004 C 5.88083706665043 3.84737890625001 6.85549856567377 3.15463671874996 8.20372651672369 2.42554296875001 C 8.76144335174558 2.12804882812499 9.03952677917482 1.755123046875 9.03952677917482 1.30861328124999 C 9.03952677917482 1.02549218750002 8.94491429138179 0.790861328125033 8.75401194000244 0.604505859374953 C 8.56321575164793 0.418623046875027 8.32099419403073 0.325574218749949 8.02758082580567 0.325574218749949 C 7.29507718658442 0.325574218749949 6.28323739624022 0.757904296874969 4.99246487426751 1.62116796874999 C 3.46764534759529 2.63415624999999 2.25449922943108 3.86564062499998 1.35260186767573 5.317833984375 C 0.45144764709471 6.77009179687498 8.4930419916418E-05 8.20258398437505 8.4930419916418E-05 9.61773828125001 C 8.4930419916418E-05 10.2876640625 0.124677856445373 10.953658203125 0.37426712799072 11.616966796875 C 0.623813934326108 12.27896484375 0.960520584106462 12.840802734375 1.38561856842034 13.303275390625 C 2.27946877288821 14.3006230468751 3.3496345291137 14.7993613281251 4.5956274871827 14.7993613281251 C 5.90043476104734 14.7993613281251 6.96314787292488 14.345224609375 7.78359696197503 13.43723046875 Z M 20.4842618179321 13.437294921875 C 20.8218814697266 13.0648203125 21.0902828292847 12.62503515625 21.2883193359376 12.119400390625 C 21.4865257034302 11.61251953125 21.585660736084 11.098720703125 21.585660736084 10.578068359375 C 21.585660736084 9.50589062499998 21.287830986023 8.59390039062505 20.6922988815307 7.84158203125001 C 20.0966818466186 7.08945703124999 19.3214157409668 6.63976757812497 18.3650567474366 6.49079492187497 L 18.0337007141113 6.46900976562496 L 17.7467845230102 6.42348437499999 C 17.3060805740357 6.36410156250001 17.0853888778686 6.19235546874998 17.0853888778686 5.90968554687501 C 17.0853888778686 5.61178320312504 17.3800549697876 5.14247851562502 17.9682830581664 4.50271679687498 C 18.5863004913331 3.81719335937495 19.5648050918579 3.12524609375002 20.9030961837768 2.42558593750005 C 21.4624903945922 2.12809179687498 21.7421025695801 1.75516601562499 21.7421025695801 1.30865624999998 C 21.7421025695801 1.02553515625002 21.646619544983 0.790882812500016 21.4558445892334 0.60454882812499 C 21.2651120986939 0.418687500000004 21.0223809585572 0.325617187500001 20.7283093795777 0.325617187500001 C 19.9938735733032 0.325617187500001 18.9801865463257 0.757947265624964 17.6875243225097 1.62121093749998 C 16.1601356506347 2.634263671875 14.9411081008911 3.86568359375002 14.0300594863892 5.31789843750002 C 13.1190108718872 6.77019921875001 12.6634865646363 8.20264843749997 12.6634865646363 9.61780273437503 C 12.6634865646363 10.287728515625 12.7887589340211 10.9537226562501 13.0383057403565 11.61703125 C 13.2875977554321 12.2790292968749 13.6257694549561 12.8408671875 14.0514407196044 13.30333984375 C 14.9476052780152 14.3006875 16.0270072174072 14.7994257812501 17.2895403747559 14.7994257812501 C 18.581969039917 14.7994257812501 19.647336227417 14.3452890625 20.4842618179321 13.437294921875 Z" transform="matrix(1 0 0 1 -114 -688 ) matrix(1 0 0 1 114 688 )"/></g></svg>