<svg xmlns="http://www.w3.org/2000/svg" xmlns:xlink="http://www.w3.org/1999/xlink" width="22" height="22" version="1.1"><g><path fill="#0079fe" fill-rule="nonzero" stroke="none" d="M 19.5010397332974 22 C 20.7583074137931 21.9187551454741 21.7814589089439 20.9798168830821 22 19.8258200565733 L 22 8.42622587284495 C 21.7814588846983 7.29662726562492 20.8003015786638 6.37579090786653 19.5796031384698 6.33733840786613 L 19.5796031384698 2.36160780441787 C 19.5796031384698 1.10439634967679 18.5653339547414 0.0812167537715141 17.319056724138 0 L 4.61890769665951 0 C 3.3726023653017 0.0812167537715141 2.3583331815733 1.10439634967679 2.3583331815733 2.36160780441787 L 2.3583331815733 6.34037413793089 C 1.16793576778019 6.40881848329718 0.22126766433189 7.31666867995682 0 8.42622587284495 L 0 19.8258200565733 C 0.22126766433189 20.9798168830821 1.24444726023705 21.9187551454741 2.50165871497848 22 L 19.5010397332974 22 Z M 11.5358615517241 16.634852260237 C 11.2503910317888 16.9203227801722 10.7535441648706 16.9211098195042 10.4672866298491 16.634852260237 L 3.58139534883719 9.76970249730607 L 3.58139534883719 2.36160780441787 C 3.60219304418109 1.78990785021551 4.05811384159483 1.32504851562499 4.6189076724138 1 L 17.3190848248922 1 C 17.8798786557112 1.32504851562499 18.3357713523707 1.78987972521577 18.4186046511628 2.36160780441787 L 18.4186046511628 9.82395200969836 C 18.3357713523707 9.82735314655179 18.3367551454742 9.83050130387937 18.3368113712285 9.83387433997859 L 11.5358615517241 16.634852260237 Z M 2.35833315732754 8.52584258620686 L 1.98864940463363 8.15618693426723 C 1.88532234913788 8.05283177801721 1.75343699892244 8.00299529633594 1.61874079741381 7.98756369073271 C 1.77693575161641 7.77489436961196 2.04441679418102 7.62544117456878 2.35833315732754 7.58940599407333 L 2.35833315732754 8.52584258620686 Z M 1 9.30082366379315 L 11.0711708701509 18.8577332381467 L 20.5967393992457 9.55115846982744 C 20.5967393992457 9.55115844558168 20.5718633459052 19.1388188038795 20.5718633459052 19.8696413038792 C 20.5718633459052 20.6004638038792 19.5037381573276 20.6566809267242 19.5037381573276 20.6566809267242 C 19.5037381573276 20.6566809267242 2.97590629579742 20.6285723653016 2.35751801724138 20.6847894881464 C 1.73912973868534 20.7410066109915 1.28939282866378 19.8134242052799 1 19.8134242052799 L 1 9.30082366379315 Z M 20.3840419531249 7.98761994073288 C 20.2494862796336 8.00310774784475 20.1176571551724 8.05291612877159 20.014470627694 8.15615885775856 L 19.5796031384698 8.59102634698297 L 19.5796031384698 7.58406537176711 C 19.9210659024785 7.60551221174569 20.2150533028017 7.76044658135766 20.3840419531249 7.98761994073288 Z M 7.73827313718164 5.91806690068688 C 7.25787361579455 6.40789101693986 6.99307569324469 7.06000893225973 6.99307569324469 7.75365145575938 C 6.99307569324469 8.43659331090544 7.24986354644244 9.07970479938058 7.71686442829457 9.567388756323 L 10.4252831537929 12.3320904832372 C 10.5511430022149 12.4605582172894 10.7160336668744 12.5247623556074 10.8809243315338 12.5247623556074 C 11.0457858767995 12.5247623556074 11.2107056608527 12.4605582172894 11.336623748062 12.3320904832372 L 14.0231677287514 9.59051412734516 C 14.041605430371 9.57208514865965 14.0584411130952 9.55240776934966 14.0739078074474 9.53228454915552 C 15.0028705341916 8.51664040207606 14.9819278612265 6.91442007756314 14.0134974017165 5.92659771948161 C 13.1676062501384 5.06468683678622 11.8644428076551 4.93880510292752 10.8846817634275 5.55067652658113 C 10.4844119293328 5.29463279152264 10.020789826758 5.15763421303654 9.53698240669985 5.15763421303654 C 8.85726352484778 5.15763421303654 8.2182648865587 5.42779691791134 7.73827313718164 5.91806690068688 Z M 10.5430455244324 11.4166167244396 L 8.56100791375968 9.39400787979525 C 8.21645895653381 9.03422687554939 8.01093545674138 8.54270849214913 8.01093545674138 8.03888432091253 C 8.01093550699062 7.52712377684657 8.20629349930789 7.04603856752487 8.56071666957359 6.68468218532462 C 8.91481945113509 6.32299885143311 9.38624771193241 6.12366877402565 9.88770638385932 6.12366877402565 C 10.2446345254706 6.12366877402565 10.5866785113511 6.22473084407511 10.8819437866833 6.41362777304312 C 11.6047713304956 5.96220725058811 12.5661529370155 6.05506547917298 13.19023830018 6.69095400689457 C 13.9046480026301 7.41973047908914 13.920143816376 8.60177037160793 13.2347742144241 9.35105649874254 C 13.2233271270072 9.36588885499532 13.2109479426218 9.38042394980675 13.1973453919574 9.39400787979525 L 11.215366020072 11.4166167244396 C 11.1225076151717 11.5113772826701 11.0008421402962 11.5587278458968 10.8791766402962 11.5587278458968 C 10.7575111402962 11.5587278458968 10.6358748099391 11.5113475667813 10.5430455244324 11.4166167244396 Z" transform="matrix(1 0 0 1 -208 -684 ) matrix(1 0 0 1 208 684 )"/></g></svg>