<svg xmlns="http://www.w3.org/2000/svg" xmlns:xlink="http://www.w3.org/1999/xlink" width="22" height="22" version="1.1"><g><path fill="#0079fe" fill-rule="nonzero" stroke="none" d="M 16.1848958333333 14.8958333333334 C 16.3663194444444 14.7144097222222 16.45703125 14.4947916666666 16.45703125 14.2369791666666 C 16.45703125 13.9887152777778 16.3663194444444 13.7738715277778 16.1848958333333 13.5924479166666 L 13.5924479166667 11 L 16.1848958333333 8.40755208333337 C 16.3663194444444 8.22612847222217 16.45703125 8.01128472222217 16.45703125 7.76302083333337 C 16.45703125 7.50520833333337 16.3663194444444 7.28559027777771 16.1848958333333 7.10416666666663 L 14.8958333333333 5.81510416666663 C 14.7144097222222 5.63368055555554 14.4947916666667 5.54296875 14.2369791666667 5.54296875 C 13.9887152777778 5.54296875 13.7738715277778 5.63368055555554 13.5924479166667 5.81510416666663 L 11 8.40755208333337 L 8.40755208333329 5.81510416666663 C 8.22612847222223 5.63368055555554 8.01128472222223 5.54296875 7.76302083333329 5.54296875 C 7.50520833333329 5.54296875 7.28559027777777 5.63368055555554 7.10416666666671 5.81510416666663 L 5.81510416666671 7.10416666666663 C 5.6336805555556 7.28559027777771 5.54296875 7.50520833333337 5.54296875 7.76302083333337 C 5.54296875 8.01128472222217 5.6336805555556 8.22612847222217 5.81510416666671 8.40755208333337 L 8.40755208333329 11 L 5.81510416666671 13.5924479166666 C 5.6336805555556 13.7738715277778 5.54296875 13.9887152777778 5.54296875 14.2369791666666 C 5.54296875 14.4947916666666 5.6336805555556 14.7144097222222 5.81510416666671 14.8958333333334 L 7.10416666666671 16.1848958333334 C 7.28559027777777 16.3663194444445 7.50520833333329 16.45703125 7.76302083333329 16.45703125 C 8.01128472222223 16.45703125 8.22612847222223 16.3663194444445 8.40755208333329 16.1848958333334 L 11 13.5924479166666 L 13.5924479166667 16.1848958333334 C 13.7738715277778 16.3663194444445 13.9887152777778 16.45703125 14.2369791666667 16.45703125 C 14.4947916666667 16.45703125 14.7144097222222 16.3663194444445 14.8958333333333 16.1848958333334 L 16.1848958333333 14.8958333333334 Z M 20.5247395833333 5.478515625 C 21.5082465277778 7.16384548611109 22 9.00434027777771 22 11 C 22 12.9956597222222 21.5082465277778 14.8361545138889 20.5247395833333 16.521484375 C 19.5412326388889 18.2068142361111 18.2068142361111 19.5412326388889 16.521484375 20.5247395833334 C 14.8361545138889 21.5082465277778 12.9956597222222 22 11 22 C 9.00434027777777 22 7.16384548611111 21.5082465277778 5.478515625 20.5247395833334 C 3.79318576388889 19.5412326388889 2.45876736111111 18.2068142361111 1.47526041666671 16.521484375 C 0.491753472222229 14.8361545138889 0 12.9956597222222 0 11 C 0 9.00434027777771 0.491753472222229 7.16384548611109 1.47526041666671 5.478515625 C 2.45876736111111 3.79318576388891 3.79318576388889 2.45876736111109 5.478515625 1.47526041666663 C 7.16384548611111 0.491753472222172 9.00434027777777 0 11 0 C 12.9956597222222 0 14.8361545138889 0.491753472222172 16.521484375 1.47526041666663 C 18.2068142361111 2.45876736111109 19.5412326388889 3.79318576388891 20.5247395833333 5.478515625 Z" transform="matrix(1 0 0 1 -248 -295 ) matrix(1 0 0 1 248 295 )"/></g></svg>