<svg xmlns="http://www.w3.org/2000/svg" xmlns:xlink="http://www.w3.org/1999/xlink" width="22" height="19" version="1.1"><g><path fill="#0079fe" fill-rule="nonzero" stroke="none" d="M 2.90959821428567 15.5983072916666 C 3.06510416666674 15.4416232638889 3.14285714285717 15.2560763888889 3.14285714285717 15.0416666666666 C 3.14285714285717 14.8272569444443 3.06510416666674 14.6417100694443 2.90959821428567 14.4850260416666 C 2.75409226190476 14.3283420138889 2.56994047619042 14.25 2.35714285714283 14.25 C 2.14434523809524 14.25 1.96019345238091 14.3283420138889 1.8046875 14.4850260416666 C 1.64918154761909 14.6417100694443 1.5714285714285 14.8272569444443 1.5714285714285 15.0416666666666 C 1.5714285714285 15.2560763888889 1.64918154761909 15.4416232638889 1.8046875 15.5983072916666 C 1.96019345238091 15.7549913194443 2.14434523809524 15.8333333333334 2.35714285714283 15.8333333333334 C 2.56994047619042 15.8333333333334 2.75409226190476 15.7549913194443 2.90959821428567 15.5983072916666 Z M 19.9620535714285 9.02994791666663 C 20.2730654761904 8.71657986111109 20.4285714285715 8.34548611111109 20.4285714285715 7.91666666666663 C 20.4285714285715 7.49609375 20.2689732142857 7.12706163194434 19.9497767857143 6.8095703125 C 19.6305803571428 6.49207899305566 19.2663690476191 6.33333333333337 18.8571428571428 6.33333333333337 L 11.7857142857143 6.33333333333337 C 11.7857142857143 6.16840277777771 11.8470982142857 5.96842447916663 11.9698660714285 5.7333984375 C 12.0926339285715 5.49837239583337 12.2276785714285 5.27159288194434 12.375 5.05305989583337 C 12.5223214285715 4.83452690972229 12.6573660714285 4.55414496527771 12.7801339285715 4.2119140625 C 12.9029017857143 3.86968315972229 12.9642857142857 3.52126736111109 12.9642857142857 3.16666666666663 C 12.9642857142857 2.61414930555566 12.7821800595238 2.21213107638891 12.41796875 1.96061197916663 C 12.0537574404762 1.70909288194434 11.5811011904762 1.58333333333337 11 1.58333333333337 C 10.8035714285715 1.58333333333337 10.4352678571428 2.15646701388891 9.89508928571433 3.302734375 C 9.69866071428567 3.66558159722229 9.54724702380958 3.93359375 9.44084821428567 4.10677083333337 C 9.11346726190476 4.63454861111109 8.6551339285715 5.232421875 8.06584821428567 5.900390625 C 7.48474702380958 6.568359375 7.0714285714285 7.00542534722229 6.82589285714283 7.21158854166663 C 6.26116071428567 7.681640625 5.68824404761909 7.91666666666663 5.10714285714283 7.91666666666663 L 4.71428571428567 7.91666666666663 L 4.71428571428567 15.8333333333334 L 5.10714285714283 15.8333333333334 C 5.6964285714285 15.8333333333334 6.3798363095238 15.9652777777777 7.1573660714285 16.2291666666666 C 7.93489583333326 16.4930555555557 8.72674851190476 16.7569444444443 9.53292410714283 17.0208333333334 C 10.3390997023809 17.2847222222223 11.0736607142857 17.4166666666666 11.7366071428572 17.4166666666666 C 13.2834821428572 17.4166666666666 14.0569196428572 16.7280815972223 14.0569196428572 15.3509114583334 C 14.0569196428572 15.1365017361111 14.0364583333333 14.9055989583334 13.9955357142857 14.658203125 C 14.2410714285715 14.5262586805557 14.4354538690476 14.3097873263889 14.5786830357143 14.0087890625 C 14.7219122023809 13.7077907986111 14.7935267857143 13.4047309027777 14.7935267857143 13.099609375 C 14.7935267857143 12.7944878472223 14.7198660714285 12.5099826388889 14.5725446428572 12.24609375 C 15.0063244047619 11.8337673611111 15.2232142857143 11.3430989583334 15.2232142857143 10.7740885416666 C 15.2232142857143 10.5679253472223 15.1822916666667 10.3390842013889 15.1004464285715 10.0875651041666 C 15.0186011904762 9.83604600694434 14.9162946428572 9.64019097222229 14.7935267857143 9.5 L 18.8571428571428 9.5 C 19.2827380952381 9.5 19.6510416666667 9.34331597222229 19.9620535714285 9.02994791666663 Z M 21.0669642857143 5.69010416666663 C 21.6889880952381 6.31684027777771 22 7.05490451388891 22 7.904296875 C 22 8.77018229166663 21.6910342261904 9.51649305555566 21.0731026785715 10.1432291666666 C 20.4551711309524 10.7699652777777 19.7165178571428 11.0833333333334 18.8571428571428 11.0833333333334 L 16.7823660714285 11.0833333333334 C 16.7496279761904 11.5946180555557 16.5982142857143 12.0852864583334 16.328125 12.5553385416666 C 16.3526785714285 12.728515625 16.3649553571428 12.9058159722223 16.3649553571428 13.0872395833334 C 16.3649553571428 13.9201388888889 16.1194196428572 14.6540798611111 15.6283482142857 15.2890625 C 15.6365327380952 16.4353298611111 15.2886904761904 17.3403862847223 14.5848214285715 18.0042317708334 C 13.8809523809524 18.6680772569443 12.9520089285715 19 11.7979910714285 19 C 10.7094494047619 19 9.3917410714285 18.7154947916666 7.8448660714285 18.146484375 C 6.50260416666674 17.6599392361111 5.59002976190476 17.4166666666666 5.10714285714283 17.4166666666666 L 1.5714285714285 17.4166666666666 C 1.1376488095238 17.4166666666666 0.767299107142833 17.2620442708334 0.460379464285666 16.9527994791666 C 0.153459821428498 16.6435546875 0 16.2703993055557 0 15.8333333333334 L 0 7.91666666666663 C 0 7.47960069444434 0.153459821428498 7.1064453125 0.460379464285666 6.79720052083337 C 0.767299107142833 6.48795572916663 1.1376488095238 6.33333333333337 1.5714285714285 6.33333333333337 L 5.10714285714283 6.33333333333337 C 5.18898809523807 6.33333333333337 5.27697172619042 6.31477864583337 5.37109375 6.27766927083337 C 5.46521577380958 6.24055989583337 5.5613839285715 6.18283420138891 5.65959821428567 6.1044921875 C 5.7578125 6.02615017361109 5.84988839285717 5.95193142361109 5.93582589285717 5.8818359375 C 6.02176339285717 5.81174045138891 6.1199776785715 5.71896701388891 6.23046875 5.603515625 C 6.3409598214285 5.48806423611109 6.4248511904762 5.3994140625 6.48214285714283 5.33756510416663 C 6.53943452380958 5.27571614583337 6.6171875 5.18706597222229 6.71540178571433 5.07161458333337 C 6.8136160714285 4.95616319444434 6.87090773809524 4.88606770833337 6.88727678571433 4.861328125 C 7.41927083333326 4.25108506944434 7.82849702380958 3.71918402777771 8.11495535714283 3.265625 C 8.22135416666674 3.09244791666663 8.3563988095238 2.83680555555566 8.52008928571433 2.49869791666663 C 8.68377976190476 2.16059027777771 8.83519345238091 1.86371527777771 8.97433035714283 1.60807291666663 C 9.11346726190476 1.35243055555566 9.27920386904759 1.09266493055566 9.4715401785715 0.828776041666629 C 9.66387648809524 0.564887152777715 9.88895089285717 0.360785590277715 10.1467633928572 0.216471354166629 C 10.4045758928572 0.0721571180556566 10.6889880952381 0 11 0 C 12.0230654761904 0 12.8681175595238 0.276258680555657 13.53515625 0.828776041666629 C 14.2021949404762 1.38129340277771 14.5357142857143 2.16059027777771 14.5357142857143 3.16666666666663 C 14.5357142857143 3.72743055555566 14.4456845238096 4.25520833333337 14.265625 4.75 L 18.8571428571428 4.75 C 19.7083333333333 4.75 20.4449404761904 5.06336805555566 21.0669642857143 5.69010416666663 Z" transform="matrix(1 0 0 1 -683 -444 ) matrix(1 0 0 1 683 444 )"/></g></svg>