<svg xmlns="http://www.w3.org/2000/svg" xmlns:xlink="http://www.w3.org/1999/xlink" width="19" height="22" version="1.1"><g><path fill="#0079fe" fill-rule="nonzero" stroke="none" d="M 16.9095052083333 13.44921875 C 17.2476128472223 13.0522693452381 17.4166666666667 12.4977678571429 17.4166666666667 11.7857142857143 C 17.4166666666667 11.0982142857143 17.2847222222223 10.3493303571429 17.0208333333333 9.5390625 C 16.7569444444444 8.72879464285711 16.4930555555556 7.93489583333326 16.2291666666667 7.15736607142856 C 15.9652777777777 6.37983630952385 15.8333333333333 5.69642857142856 15.8333333333333 5.10714285714289 L 15.8333333333333 4.71428571428567 L 7.91666666666666 4.71428571428567 L 7.91666666666666 5.10714285714289 C 7.91666666666666 5.39360119047615 7.8671875 5.66982886904759 7.76822916666666 5.93582589285711 C 7.66927083333334 6.20182291666674 7.5167100694444 6.45758928571433 7.310546875 6.703125 C 7.1043836805556 6.94866071428567 6.91471354166666 7.15327380952385 6.74153645833334 7.31696428571433 C 6.568359375 7.48065476190482 6.345703125 7.68117559523807 6.07356770833334 7.91852678571433 C 5.99934895833334 7.98400297619048 5.94162326388894 8.03311011904759 5.900390625 8.06584821428567 C 5.232421875 8.65513392857144 4.63454861111106 9.11346726190482 4.10677083333334 9.44084821428567 C 3.92534722222226 9.55543154761915 3.64496527777774 9.7109375 3.265625 9.90736607142856 C 3.24088541666666 9.91555059523807 3.14811197916666 9.95851934523807 2.9873046875 10.0362723214286 C 2.82649739583334 10.1140252976192 2.67805989583334 10.1897321428571 2.5419921875 10.2633928571429 C 2.40592447916666 10.3370535714286 2.25954861111106 10.4188988095239 2.10286458333334 10.5089285714286 C 1.9461805555556 10.5989583333333 1.8204210069444 10.6869419642857 1.7255859375 10.7728794642857 C 1.6307508680556 10.8588169642857 1.58333333333334 10.9345238095239 1.58333333333334 11 C 1.58333333333334 11.5811011904761 1.7090928819444 12.0537574404761 1.96061197916666 12.41796875 C 2.21213107638894 12.7821800595239 2.6141493055556 12.9642857142857 3.16666666666666 12.9642857142857 C 3.52126736111106 12.9642857142857 3.86968315972226 12.9029017857143 4.2119140625 12.7801339285714 C 4.55414496527774 12.6573660714286 4.83452690972226 12.5223214285714 5.05305989583334 12.375 C 5.2715928819444 12.2276785714286 5.49837239583334 12.0926339285714 5.7333984375 11.9698660714286 C 5.96842447916666 11.8470982142857 6.16840277777774 11.7857142857143 6.33333333333334 11.7857142857143 L 6.33333333333334 18.8571428571429 C 6.33333333333334 19.2663690476192 6.4920789930556 19.6305803571429 6.8095703125 19.9497767857143 C 7.1270616319444 20.2689732142857 7.49609375 20.4285714285714 7.91666666666666 20.4285714285714 C 8.34548611111106 20.4285714285714 8.71657986111106 20.2730654761905 9.02994791666666 19.9620535714286 C 9.34331597222229 19.6510416666667 9.5 19.2827380952381 9.5 18.8571428571429 L 9.5 14.7935267857143 C 9.87934027777771 15.0799851190476 10.3040364583333 15.2232142857143 10.7740885416667 15.2232142857143 C 11.3430989583333 15.2232142857143 11.8337673611111 15.0063244047619 12.24609375 14.5725446428571 C 12.5099826388889 14.7198660714286 12.7944878472223 14.7935267857143 13.099609375 14.7935267857143 C 13.4047309027777 14.7935267857143 13.7077907986111 14.7219122023808 14.0087890625 14.5786830357143 C 14.3097873263889 14.4354538690476 14.5262586805556 14.2410714285714 14.658203125 13.9955357142857 C 14.8561197916667 14.0282738095239 15.0870225694444 14.0446428571429 15.3509114583333 14.0446428571429 C 16.0518663194444 14.0446428571429 16.5713975694444 13.8461681547619 16.9095052083333 13.44921875 Z M 15.5983072916667 2.90959821428567 C 15.7549913194444 2.75409226190482 15.8333333333333 2.56994047619048 15.8333333333333 2.35714285714289 C 15.8333333333333 2.14434523809518 15.7549913194444 1.96019345238085 15.5983072916667 1.8046875 C 15.4416232638889 1.64918154761915 15.2560763888889 1.57142857142856 15.0416666666667 1.57142857142856 C 14.8272569444444 1.57142857142856 14.6417100694444 1.64918154761915 14.4850260416667 1.8046875 C 14.3283420138889 1.96019345238085 14.25 2.14434523809518 14.25 2.35714285714289 C 14.25 2.56994047619048 14.3283420138889 2.75409226190482 14.4850260416667 2.90959821428567 C 14.6417100694444 3.06510416666674 14.8272569444444 3.14285714285711 15.0416666666667 3.14285714285711 C 15.2560763888889 3.14285714285711 15.4416232638889 3.06510416666674 15.5983072916667 2.90959821428567 Z M 18.146484375 7.84486607142856 C 18.7154947916667 9.39992559523807 19 10.6971726190476 19 11.7366071428571 C 19 12.8988095238095 18.6804470486111 13.8400297619048 18.0413411458333 14.5602678571429 C 17.4022352430556 15.2805059523808 16.5054253472223 15.6365327380952 15.3509114583333 15.6283482142857 L 15.2890625 15.6160714285714 C 14.6623263888889 16.1153273809524 13.9283854166667 16.3649553571429 13.0872395833333 16.3649553571429 C 12.9058159722223 16.3649553571429 12.728515625 16.3526785714286 12.5553385416667 16.328125 C 12.1100260416667 16.5736607142857 11.6193576388889 16.7250744047619 11.0833333333333 16.7823660714286 L 11.0833333333333 18.8571428571429 C 11.0833333333333 19.7165178571429 10.7699652777777 20.4551711309524 10.1432291666667 21.0731026785714 C 9.5164930555556 21.6910342261905 8.77018229166666 22 7.904296875 22 C 7.05490451388894 22 6.31684027777774 21.6889880952381 5.69010416666666 21.0669642857143 C 5.0633680555556 20.4449404761905 4.75 19.7083333333333 4.75 18.8571428571429 L 4.75 14.265625 C 4.3046875 14.4456845238095 3.77690972222226 14.5357142857143 3.16666666666666 14.5357142857143 C 2.1688368055556 14.5357142857143 1.3916015625 14.2021949404761 0.8349609375 13.53515625 C 0.2783203125 12.8681175595239 0 12.0230654761905 0 11 C 0 10.6889880952381 0.0721571180555998 10.4045758928571 0.216471354166657 10.1467633928571 C 0.360785590277743 9.88895089285711 0.564887152777743 9.66387648809518 0.828776041666657 9.47154017857144 C 1.0926649305556 9.27920386904759 1.3524305555556 9.11346726190482 1.60807291666666 8.97433035714289 C 1.86371527777774 8.83519345238085 2.16059027777774 8.68377976190482 2.49869791666666 8.52008928571433 C 2.8368055555556 8.35639880952385 3.09244791666666 8.22135416666674 3.265625 8.11495535714289 C 3.71918402777774 7.82849702380952 4.2510850694444 7.41927083333326 4.861328125 6.88727678571433 C 4.88606770833334 6.87090773809518 4.9561631944444 6.81361607142856 5.07161458333334 6.71540178571433 C 5.18706597222226 6.6171875 5.27571614583334 6.53943452380952 5.33756510416666 6.48214285714289 C 5.3994140625 6.42485119047615 5.48806423611106 6.34095982142856 5.603515625 6.23046875 C 5.71896701388894 6.11997767857144 5.81174045138894 6.02176339285711 5.8818359375 5.93582589285711 C 5.95193142361106 5.84988839285711 6.02615017361106 5.7578125 6.1044921875 5.65959821428567 C 6.18283420138894 5.56138392857144 6.24055989583334 5.46521577380952 6.27766927083334 5.37109375 C 6.31477864583334 5.27697172619048 6.33333333333334 5.18898809523807 6.33333333333334 5.10714285714289 L 6.33333333333334 1.57142857142856 C 6.33333333333334 1.13764880952385 6.48795572916666 0.76729910714289 6.79720052083334 0.460379464285666 C 7.1064453125 0.153459821428555 7.4796006944444 0 7.91666666666666 0 L 15.8333333333333 0 C 16.2703993055556 0 16.6435546875 0.153459821428555 16.9527994791667 0.460379464285666 C 17.2620442708333 0.76729910714289 17.4166666666667 1.13764880952385 17.4166666666667 1.57142857142856 L 17.4166666666667 5.10714285714289 C 17.4166666666667 5.59002976190482 17.6599392361111 6.50260416666674 18.146484375 7.84486607142856 Z" transform="matrix(1 0 0 1 -595 -443 ) matrix(1 0 0 1 595 443 )"/></g></svg>