<svg xmlns="http://www.w3.org/2000/svg" xmlns:xlink="http://www.w3.org/1999/xlink" width="24" height="22" version="1.1"><g><path fill="#0079fe" fill-rule="nonzero" stroke="none" d="M 23.333597740113 8.26399999999998 C 23.69222259887 7.8731428571428 23.69222259887 7.25428571428571 23.333597740113 6.83085714285721 L 18.0194293785311 0.707428571428636 C 17.791213559322 0.446857142857141 17.465190960452 0.283999999999992 17.1391683615819 0.283999999999992 L 6.54343389830501 0.283999999999992 C 6.21741129943507 0.283999999999992 5.85878644067793 0.414285714285683 5.66317288135588 0.674857142857178 L 0.349004519773985 6.73314285714284 C -0.00962033898304071 7.15657142857148 -0.042222598870012 7.80800000000002 0.316402259887013 8.23142857142852 L 10.9121367231638 21.2274285714286 C 11.1403525423729 21.4879999999999 11.4663751412429 21.6508571428571 11.825 21.6508571428571 C 12.1836248587571 21.6508571428571 12.5096474576271 21.4879999999999 12.7378632768362 21.2274285714286 L 23.333597740113 8.26399999999998 Z M 16.0632937853107 6.89599999999999 L 7.52150169491529 6.89599999999999 L 11.825 1.97771428571428 L 16.0632937853107 6.89599999999999 Z M 7.74971751412431 8.0685714285714 L 15.9002824858757 8.0685714285714 L 11.825 18.8822857142858 L 7.74971751412431 8.0685714285714 Z M 1.6530949152542 8.0685714285714 L 6.47822937853107 8.0685714285714 L 10.6187163841809 19.1102857142857 L 1.6530949152542 8.0685714285714 Z M 12.9986813559321 19.1102857142857 L 17.1391683615819 8.0685714285714 L 22.0295073446327 8.0685714285714 L 12.9986813559321 19.1102857142857 Z M 17.106566101695 1.48914285714287 L 21.8012915254237 6.89599999999999 L 17.628202259887 6.89599999999999 C 17.5956 6.86342857142853 17.5956 6.83085714285721 17.562997740113 6.83085714285721 L 12.9334768361581 1.48914285714287 L 17.106566101695 1.48914285714287 Z M 1.78350395480231 6.89599999999999 L 6.54343389830501 1.48914285714287 L 10.7165231638418 1.48914285714287 L 6.08700225988696 6.7657142857143 C 6.05439999999999 6.79828571428575 6.02179774011302 6.83085714285721 6.02179774011302 6.89599999999999 L 1.78350395480231 6.89599999999999 Z" transform="matrix(1 0 0 1 -639 -392 ) matrix(1 0 0 1 639 392 )"/></g></svg>