<svg xmlns="http://www.w3.org/2000/svg" xmlns:xlink="http://www.w3.org/1999/xlink" width="22" height="22" version="1.1"><g><path fill="#0079fe" fill-rule="nonzero" stroke="none" d="M 21.8534469041221 11.0334512699977 C 21.8534469041221 5.0487938189425 16.9846574510553 0.180004365875675 11 0.180004365875675 C 5.01534254894466 0.180004365875675 0.146553095877948 5.04879384106812 0.146553095877948 11.0334512699977 C 0.146553095877948 17.0181086989272 5.01534254894466 21.8868981962454 11 21.8868981962454 C 16.9846574510553 21.8868981962454 21.8534469041221 17.018108721053 21.8534469041221 11.0334512699977 Z M 20.1576042476388 11.0334512699977 C 20.1576042476388 16.0830337309643 16.0495824830924 20.1910555176364 11 20.1910555176364 C 5.95041753903342 20.1910555176364 1.8423957523612 16.08303375309 1.8423957523612 11.0334512699977 C 1.8423957523612 5.9838687869053 5.95041753903342 1.87584704448466 11 1.87584704448466 C 16.0495824609666 1.87584704448466 20.1576042476388 5.98386880903104 20.1576042476388 11.0334512699977 Z M 19.4792671806204 11.0334512699977 C 19.4792671806204 6.35051419793615 15.6829370720616 2.55418408937737 11 2.55418411150299 C 6.31706295006416 2.55418411150299 2.52073281937965 6.35051422006177 2.52073281937965 11.0334512699977 C 2.52073281937965 15.7163883199335 6.31706292793842 19.5127184506181 11 19.5127184506181 C 15.6829370720616 19.5127184506181 19.4792671806204 15.7163883420593 19.4792671806204 11.0334512699977 Z" transform="matrix(1 0 0 1 -729 -392 ) matrix(1 0 0 1 729 392 )"/></g></svg>