<svg xmlns="http://www.w3.org/2000/svg" xmlns:xlink="http://www.w3.org/1999/xlink" width="24" height="22" version="1.1"><g><path fill="#0079fe" fill-rule="nonzero" stroke="none" d="M 9.71158571428577 21.0784 L 12.9288195480099 17.8983364011698 L 17.5199956561087 21.6654786206898 C 17.6709576575397 21.7896188571978 17.8650446994083 21.8580830966221 18.0660038101281 21.8580830966221 C 18.4519397662471 21.8580830966221 18.7865908801761 21.6083198286764 18.8724674854557 21.2561875862068 L 23.4363695221041 1.21659780626123 L 23.5032089986761 0.915231578299995 C 23.5239315136899 0.743816830873868 23.4224726278815 0.566506716102424 23.265101028899 0.505472606568219 C 23.222267554625 0.482945540128298 23.1753373046421 0.469910086254799 23.1257121452456 0.469910086254799 C 23.0184674784276 0.469910086254799 22.9198712632955 0.510868089497023 22.8487377437687 0.578294419997064 L 0.559023041474575 9.99051428571454 C -0.126403686635967 10.2884571428574 -0.0862562211982549 11.2999542857142 0.615959447004684 11.5383085714284 L 6.8307870967742 13.6389942857143 C 6.94346969158971 13.677117548984 7.06705172260092 13.6563027781219 7.0903896939609 13.6262151256215 L 7.32804285714292 20.4250514285712 C 7.36575714285721 21.5194514285716 8.96389999999997 21.9563885714285 9.71158571428577 21.0784 Z M 6.87814381910414 12.8616959951432 L 0.842975115207423 10.8217371428571 L 20.5454186517893 2.38207613798926 L 6.87814381910414 12.8616959951432 Z M 8.02481428571434 13.3863314285713 C 8.02481428571434 13.2544635209809 7.9537295670242 13.1366508480311 7.84317792523746 13.0609915421215 L 22.503491140948 1.81943911195026 L 18.112188442146 21.0988800000001 L 13.4819854569811 17.3515599610902 L 13.8856142857144 16.9525942857143 C 13.961673610622 16.8773914376869 14.0036467673931 16.7805363291426 14.0036467673931 16.6802285714285 C 14.0036467673931 16.4529183335302 13.7925025047346 16.2686469770284 13.5320428571429 16.2686469770284 C 13.3967615843662 16.2686469770284 13.2679943348204 16.3193480363532 13.1784714285715 16.4078628571428 L 12.7902673986805 16.7917381813435 L 10.5965538461538 15.0163200000001 C 10.4987686149456 14.9361156613998 10.4426932817948 14.820340392563 10.4426932817948 14.698653617988 C 10.4426932817948 14.5943670638932 10.4839152753628 14.4937668749953 10.5584231674209 14.4162206896551 L 18.7814207627666 5.91942620689656 C 18.8534940846216 5.85125201228118 18.8939201701187 5.7592206097986 18.8939201701187 5.66331735762947 C 18.8939201701187 5.46220953148423 18.7197192888118 5.29917942659506 18.5048316116183 5.29917942659506 C 18.3887364094463 5.29917942659506 18.2787059412699 5.34769709526483 18.2047915190692 5.43148137931041 L 9.98179392372333 13.9268193103449 C 9.77752280851564 14.1383316374223 9.66442794268914 14.4132835951762 9.66442794268914 14.6983874728087 C 9.66442794268914 15.0296148155795 9.81694239669343 15.3447777386342 10.0829569489334 15.5632551724138 L 12.2415405829988 17.3344135324297 L 8.97898571428561 20.5608228571429 C 8.73950000000002 20.8397714285713 8.28127142857124 20.7138742857142 8.26995714285692 20.4003657142856 L 8.02481428571434 13.3863314285713 Z" transform="matrix(1 0 0 1 -1158 -387 ) matrix(1 0 0 1 1158 387 )"/></g></svg>