<svg xmlns="http://www.w3.org/2000/svg" xmlns:xlink="http://www.w3.org/1999/xlink" width="22" height="22" version="1.1"><g><path fill="#0079fe" fill-rule="nonzero" stroke="none" d="M 14.2942708333333 14.0651041666667 C 15.1727430555556 13.2439236111111 16.2135416666667 12.8333333333333 17.4166666666667 12.8333333333333 C 18.6866319444444 12.8333333333333 19.7680121527778 13.2797309027778 20.6608072916667 14.1725260416667 C 21.5536024305556 15.0653211805557 22 16.1467013888889 22 17.4166666666667 C 22 18.6866319444443 21.5536024305556 19.7680121527778 20.6608072916667 20.6608072916667 C 19.7680121527778 21.5536024305557 18.6866319444444 22 17.4166666666667 22 C 16.1467013888889 22 15.0653211805556 21.5536024305557 14.1725260416667 20.6608072916667 C 13.2797309027778 19.7680121527778 12.8333333333333 18.6866319444443 12.8333333333333 17.4166666666667 C 12.8333333333333 17.3020833333333 12.8428819444444 17.1397569444443 12.8619791666667 16.9296875 L 7.70572916666671 14.3515625 C 6.8272569444444 15.1727430555557 5.78645833333329 15.5833333333333 4.58333333333329 15.5833333333333 C 3.3133680555556 15.5833333333333 2.23198784722223 15.1369357638889 1.33919270833329 14.244140625 C 0.4463975694444 13.3513454861111 0 12.2699652777778 0 11 C 0 9.73003472222217 0.4463975694444 8.64865451388891 1.33919270833329 7.755859375 C 2.23198784722223 6.86306423611109 3.3133680555556 6.41666666666674 4.58333333333329 6.41666666666674 C 5.78645833333329 6.41666666666674 6.8272569444444 6.82725694444434 7.70572916666671 7.6484375 L 12.8619791666667 5.0703125 C 12.8428819444444 4.86024305555566 12.8333333333333 4.69791666666674 12.8333333333333 4.58333333333326 C 12.8333333333333 3.31336805555566 13.2797309027778 2.23198784722217 14.1725260416667 1.33919270833326 C 15.0653211805556 0.446397569444343 16.1467013888889 0 17.4166666666667 0 C 18.6866319444444 0 19.7680121527778 0.446397569444343 20.6608072916667 1.33919270833326 C 21.5536024305556 2.23198784722217 22 3.31336805555566 22 4.58333333333326 C 22 5.85329861111109 21.5536024305556 6.93467881944434 20.6608072916667 7.82747395833326 C 19.7680121527778 8.72026909722217 18.6866319444444 9.16666666666674 17.4166666666667 9.16666666666674 C 16.2135416666667 9.16666666666674 15.1727430555556 8.75607638888891 14.2942708333333 7.93489583333326 L 9.13802083333329 10.5130208333333 C 9.1571180555556 10.7230902777778 9.16666666666671 10.8854166666667 9.16666666666671 11 C 9.16666666666671 11.1145833333333 9.1571180555556 11.2769097222222 9.13802083333329 11.4869791666667 L 14.2942708333333 14.0651041666667 Z" transform="matrix(1 0 0 1 -981 -387 ) matrix(1 0 0 1 981 387 )"/></g></svg>