<svg xmlns="http://www.w3.org/2000/svg" xmlns:xlink="http://www.w3.org/1999/xlink" width="22" height="23" version="1.1"><g><path fill="#0079fe" fill-rule="nonzero" stroke="none" d="M 9.28253125000003 22.1891942708335 C 9.92378125000005 22.1891942708335 10.59315625 21.9661005208333 11.271875 21.5369286458333 C 12.89 20.49522578125 13.0756249999999 18.7860692708334 12.9143750000001 17.7140848958334 L 20.75375 13.73056953125 C 20.87375 14.9065382812499 20.8512499999999 16.12599140625 20.5962499999999 16.47197578125 C 20.095625 17.16205390625 16.0925 19.2587885416667 13.405625 20.51791328125 C 13.13 20.6502570312501 13.00625 20.98300703125 13.135625 21.26092890625 C 13.26878125 21.5388507812499 13.596875 21.66363203125 13.8725000000001 21.52561640625 C 14.9918750000001 21.00380390625 20.63 18.30210078125 21.48875 17.13936640625 C 22.233125 16.1165382812499 21.83375 13.33542890625 21.749375 12.7908973958334 C 21.7212499999999 12.6093973958334 21.60690625 12.4638192708333 21.445625 12.3806317708333 C 21.29371875 12.2993348958334 21.108125 12.2993348958334 20.94871875 12.3806317708333 L 12.03121875 16.9106007812501 C 11.79309375 17.0334914062499 11.67309375 17.31141328125 11.75371875 17.5742101562499 C 11.77434375 17.65361640625 12.30684375 19.55180390625 10.67934375 20.6067726562499 C 9.97434375 21.04917890625 9.34434375000001 21.18152265625 8.75371874999996 21.0019132812501 C 7.54621874999998 20.6313507812499 6.74184375000004 19.0167570312501 6.45124999999996 18.34180390625 C 5.10500000000002 15.2298666666667 2.12562500000001 6.34389765625002 1.33812499999999 3.99385078124993 L 12.389375 1.36210078124992 L 16.574375 12.56027265625 C 16.67375 12.85142890625 17 12.98944453125 17.2887500000001 12.88735078125 C 17.568125 12.77580390625 17.7125 12.45439765625 17.6018750000001 12.1708039062501 L 13.25 0.511319531249967 C 13.14875 0.250413281249962 12.87875 0.104835156250005 12.603125 0.167257291666772 L 0.498125000000073 3.03722604166666 C 0.346218750000048 3.08260104166669 0.216874999999959 3.18280416666678 0.141875000000027 3.31325729166676 C 0.0649999999999409 3.45313203124996 0.0481250000000273 3.61575729166665 0.0968749999999545 3.76511666666676 C 0.252500000000055 4.22453854166673 3.87874999999997 15.1599135416667 5.43875000000003 18.7880229166666 C 5.87378124999998 19.8013979166667 6.84878125 21.5710229166666 8.43499999999995 22.0625854166667 C 8.71062500000005 22.1495541666666 8.99749999999995 22.1892888020832 9.28250000000003 22.1892572916665 Z M 10.3568749999999 4.28494401041672 C 10.3568749999999 4.73299062500001 10.7206249999999 5.0884596354166 11.165 5.0884596354166 C 11.6018437500001 5.0884596354166 11.96375 4.73305364583328 11.96375 4.28494401041672 C 11.96375 3.83689739583329 11.60378125 3.47953776041663 11.165 3.47953776041663 C 10.7225 3.47953776041663 10.3568749999999 3.83686588541659 10.3568749999999 4.28494401041672 Z M 4.21812499999999 6.94505338541654 C 4.26690625000003 6.94505338541654 4.32875000000001 6.93560026041666 4.37750000000005 6.92236588541678 L 9.53187500000001 5.42306874999991 C 9.82624999999996 5.34177187500009 9.989375 5.02981875 9.90875000000005 4.73677187500002 C 9.82624999999996 4.43805312499995 9.520625 4.26978750000006 9.22812499999998 4.35675624999999 L 4.06812500000001 5.85602187499995 C 3.77187500000002 5.94299062500002 3.60312499999998 6.24927187500003 3.68937500000004 6.54420937500009 C 3.760625 6.79188125000007 3.98187500000006 6.94502187500001 4.21812499999999 6.94502187500001 Z M 11.650625 7.68053802083335 C 11.650625 8.12858463541664 12.005 8.48972552083328 12.453125 8.48972552083328 C 12.89375 8.48972552083328 13.255625 8.12861614583335 13.255625 7.68053802083335 C 13.255625 7.2381002604167 12.895625 6.87324114583333 12.453125 6.87324114583333 C 12.005 6.87324114583333 11.650625 7.23813177083326 11.650625 7.68053802083335 Z M 5.50437499999998 10.3481783854166 C 5.55315625000003 10.3481783854166 5.609375 10.3443971354166 5.65999999999997 10.3254908854167 L 10.8200000000001 8.82811588541674 C 11.1125000000001 8.74114713541667 11.28125 8.43675651041656 11.1950000000001 8.13803776041669 C 11.114375 7.84310026041663 10.806875 7.66727213541674 10.514375 7.75424088541664 L 5.35249999999996 9.2591783854167 C 5.06187499999999 9.33858463541679 4.88937499999997 9.65053776041671 4.97187499999995 9.94736588541667 C 5.046875 10.1855846354166 5.26437499999997 10.3481783854166 5.50434374999998 10.3481783854166 Z M 12.936875 11.0836630208334 C 12.936875 11.5279598958334 13.29125 11.8909598958334 13.735625 11.8909598958334 C 14.181875 11.8909598958334 14.545625 11.5279598958334 14.545625 11.0836630208334 C 14.545625 10.6393661458334 14.18375 10.2744755208333 13.735625 10.2744755208333 C 13.293125 10.2725848958333 12.936875 10.6393661458334 12.936875 11.0836945312499 Z M 6.265625 13.3429598958333 C 6.33500000000004 13.5887726562501 6.55812500000002 13.7475536458333 6.79250000000002 13.7475536458333 C 6.84684374999995 13.7475536458333 6.89940624999997 13.7399911458334 6.95000000000005 13.7229755208333 L 12.108125 12.2198971354166 C 12.396875 12.1367096354167 12.569375 11.8285377604166 12.483125 11.5354908854167 C 12.396875 11.2386627604167 12.095 11.0666158854168 11.8025 11.1573973958334 L 6.640625 12.6547723958333 C 6.34625000000005 12.7455223958333 6.17378125000005 13.0480223958334 6.265625 13.3429598958333 Z" transform="matrix(1 0 0 1 -640 -639 ) matrix(1 0 0 1 640 639 )"/></g></svg>