<svg xmlns="http://www.w3.org/2000/svg" xmlns:xlink="http://www.w3.org/1999/xlink" width="22" height="24" version="1.1"><g><path fill="#0079fe" fill-rule="nonzero" stroke="none" d="M 12.0000000078125 4.00000001269531 L 12.0000000078125 1.99999999755859 L 19.2581671015625 1.99999999755859 C 20.7724396015625 1.99999999755859 21.9999999921875 3.22995640350831 22 4.7418328875142 L 22 21.2581671100444 C 21.9999999921875 22.7724396096747 20.770043609375 24 19.2581671015625 24 L 2.741832875 24 C 1.2275603984375 24 0 22.7700435940503 0 21.2581671100444 L 0 9.00000000366211 L 2 9.00000000366211 L 2 21.1073771960187 C 2 21.5902249927758 2.3996408515625 22.0000000083008 2.8926227890625 22 L 19.1073772109375 22 C 19.5902250078125 22.0000000083008 20 21.6003592037108 20 21.1073771960187 L 20 4.89262280153989 C 20 4.40977502822027 19.6003591953125 4.00000001269531 19.1073772109375 4.00000001269531 L 12.0000000078125 4.00000001269531 Z M 0.308743296875 3.71772019245173 L 3.290676125 6.69202242610058 C 3.70245875 7.10265919162533 4.369909859375 7.10265919162533 4.7816925078125 6.69202242610058 L 9.691256703125 1.79511703667111 C 10.10291440625 1.3843635055214 10.10291440625 0.718614357246432 9.691256703125 0.307977591721685 C 9.279474078125 -0.102659197240562 8.61202296875 -0.102659197240562 8.2002403203125 0.307977591721685 L 4.0362467421875 4.46131327039519 L 1.7997596796875 2.2305807475023 C 1.38797703125 1.81994398197755 0.720525921875 1.81994398197755 0.308743296875 2.2305807475023 C -0.1029144296875 2.64133427865202 -0.1029144296875 3.30708342692698 0.308743296875 3.71772019245173 Z M 5.00936890625 19.0000000090332 C 4.45190984375 19.0000000090332 3.9999999921875 18.5561351966416 3.9999999921875 18.0000000014648 C 3.9999999921875 17.4477153062872 4.4433531875 16.9999999938965 5.00936890625 16.9999999938965 L 6.990631109375 16.9999999938965 C 7.5480901484375 16.9999999938965 8 17.4438648062881 8 18.0000000014648 C 8 18.5522846966425 7.556646828125 19.0000000090332 6.990631109375 19.0000000090332 L 5.00936890625 19.0000000090332 Z M 5.00936890625 13.9999999946289 C 4.45190984375 13.9999999946289 3.9999999921875 13.5561352056748 3.9999999921875 13.000000010498 C 3.9999999921875 12.4477152918829 4.4433531875 12.0000000029297 5.00936890625 12.0000000029297 L 6.990631109375 12.0000000029297 C 7.5480901484375 12.0000000029297 8 12.4438647918838 8 13.000000010498 C 8 13.5522847056757 7.556646828125 13.9999999946289 6.990631109375 13.9999999946289 L 5.00936890625 13.9999999946289 Z M 10.99703009375 19.0000000090332 C 10.4463856015625 19.0000000090332 9.9999999921875 18.5561351966416 9.9999999921875 18.0000000014648 C 9.9999999921875 17.4477153062872 10.453036296875 16.9999999938965 10.99703009375 16.9999999938965 L 17.00296990625 16.9999999938965 C 17.5536143984375 16.9999999938965 18.0000000078125 17.4438648062881 18.0000000078125 18.0000000014648 C 18.0000000078125 18.5522846966425 17.546963703125 19.0000000090332 17.00296990625 19.0000000090332 L 10.99703009375 19.0000000090332 Z M 10.99703009375 13.9999999946289 C 10.4463856015625 13.9999999946289 9.9999999921875 13.5561352056748 9.9999999921875 13.000000010498 C 9.9999999921875 12.4477152918829 10.453036296875 12.0000000029297 10.99703009375 12.0000000029297 L 17.00296990625 12.0000000029297 C 17.5536143984375 12.0000000029297 18.0000000078125 12.4438647918838 18.0000000078125 13.000000010498 C 18.0000000078125 13.5522847056757 17.546963703125 13.9999999946289 17.00296990625 13.9999999946289 L 10.99703009375 13.9999999946289 Z M 10.99703009375 9.00000000366211 C 10.4463856015625 9.00000000366211 9.9999999921875 8.55613519127047 9.9999999921875 7.99999999609375 C 9.9999999921875 7.44771525404109 10.453036296875 7.00000001196289 10.99703009375 7.00000001196289 L 17.00296990625 7.00000001196289 C 17.5536143984375 7.00000001196289 18.0000000078125 7.44386482435453 18.0000000078125 7.99999999609375 C 18.0000000078125 8.55228476158392 17.546963703125 9.00000000366211 17.00296990625 9.00000000366211 L 10.99703009375 9.00000000366211 Z" transform="matrix(1 0 0 1 -459 -638 ) matrix(1 0 0 1 459 638 )"/></g></svg>