<svg xmlns="http://www.w3.org/2000/svg" xmlns:xlink="http://www.w3.org/1999/xlink" width="30" height="22" version="1.1"><g><path fill="#0079fe" fill-rule="nonzero" stroke="none" d="M 28.5186726190476 20.2560112847223 L 28.5186726190476 17.691015625 L 29.8127767857142 17.691015625 L 29.8127767857142 7.39706597222221 L 28.4783720238095 7.39706597222221 L 28.4783720238095 5.04079427083332 C 28.4783720238095 4.02351562500007 27.5962767857143 3.07480902777786 26.5136934523809 3.07480902777786 L 24.5579851190477 3.07480902777786 L 24.5579851190477 0 L 3.63938988095242 0 C 2.78459821428589 0.0210590277778238 1.53835714285708 0.0293229166666151 0.865163690476038 0.918420138888905 C 0.438815476190371 1.48072916666672 0.238785714285768 1.99855902777767 0.25797023809514 3.87950520833328 C 0.25797023809514 3.89095920138891 0.349571428571494 4.90504774305555 0.187517857142893 4.91580295138874 C 0.181363095237998 4.97802517361094 0.249425595238108 4.97735677083324 0.249425595238108 5.04085503472243 L 0.29074107142867 20.2560416666668 C 0.29074107142867 21.2733506944444 1.17254166666669 21.9789713541666 2.25509226190468 22 L 26.554125 22 C 27.637330357143 21.9789713541666 28.5186726190476 21.2733506944444 28.5186726190476 20.2560416666668 Z M 28.5186726190476 8.53365451388891 L 28.4916964285715 16.4934505208333 L 18.828 16.4934505208333 C 16.4623125000001 16.4934505208333 14.5404553571428 14.7311458333334 14.5404553571428 12.5113498263889 C 14.5404553571428 10.292131076389 16.4633601190477 8.52408420138886 18.828 8.52408420138886 L 28.5186726190476 8.53365451388891 Z M 1.92577976190466 1.76568142361123 C 2.34600595238089 1.29479166666681 2.76966964285714 1.25350260416667 3.22918154761908 1.23384548611114 L 23.2574315476191 1.23384548611114 L 23.2574315476191 3 L 2.56348511904764 3 C 2.18365773809523 3.07483940972224 1.83015178571441 3.2106163194444 1.52991071428562 3.38771267361108 C 1.47622023809527 2.51383680555568 1.60645238095231 2.12291232638893 1.92577976190466 1.76568142361123 Z M 1.54392261904763 20.0661545138888 L 2 20.0661848958333 L 2 5.23113715277782 C 1.54392261904763 4.77741319444453 1.93674702380952 4.28814236111111 2.41983035714281 4.28814236111111 L 26.3072797619049 4.28814236111111 C 26.7897083333334 4.28814236111111 27.1831875 4.77805121527774 27.1831875 5.23113715277782 L 27.1831875 7.39642795138889 L 18.7753898809525 7.39642795138889 C 15.7727172619047 7.39642795138889 13.3297678571428 9.68986979166652 13.3297678571428 12.5087977430557 C 13.3297678571428 15.3264192708334 15.7727500000001 17.6902560763889 18.7753898809525 17.6902560763889 L 27.1839077380952 17.6902560763889 L 27.1839077380952 20.0656380208334 C 27.1839077380952 20.5187239583333 26.790330357143 20.7662152777777 26.3079345238094 20.7662152777777 L 2.41983035714281 20.7662152777777 C 1.93740178571431 20.7668532986112 1.54392261904763 20.518693576389 1.54392261904763 20.0661545138888 Z M 17.4730029761904 12.4891710069444 C 17.4730029761904 13.6155512152777 18.2029642857144 14.5338454861112 19.4040922619048 14.5338454861112 C 20.6059404761905 14.5338454861112 21.8290029761904 13.6156119791667 21.8290029761904 12.4891710069444 C 21.8290029761904 11.3602083333334 20.8525238095236 10.4431901041667 19.6510357142857 10.4431901041667 C 18.4495476190475 10.4431901041667 17.4730029761904 11.3601779513889 17.4730029761904 12.4891710069444 Z M 19.6510357142857 11.4661501736111 C 20.2506994047619 11.4661501736111 20.7403630952381 11.9243402777777 20.7403630952381 12.4891710069444 C 20.7403630952381 13.0513888888889 20.2507321428571 13.5108246527777 19.6510357142857 13.5108246527777 C 19.0505535714286 13.5108246527777 18.5623303571429 13.0514192708333 18.5623303571429 12.4891710069444 C 18.5623303571429 11.9243706597222 19.0505863095239 11.4661501736111 19.6510357142857 11.4661501736111 Z" transform="matrix(1 0 0 1 -459 -588 ) matrix(1 0 0 1 459 588 )"/></g></svg>