<svg xmlns="http://www.w3.org/2000/svg" xmlns:xlink="http://www.w3.org/1999/xlink" width="22" height="22" version="1.1"><g><path fill="#0079fe" fill-rule="nonzero" stroke="none" d="M 21.44140625 0.98828125 C 21.8138020833334 1.15060763888891 22 1.43229166666674 22 1.83333333333326 L 22 8.25 C 22 8.49826388888891 21.9092881944445 8.71310763888891 21.7278645833334 8.89453125 C 21.5464409722222 9.07595486111109 21.3315972222222 9.16666666666674 21.0833333333334 9.16666666666674 L 14.6666666666666 9.16666666666674 C 14.265625 9.16666666666674 13.9839409722222 8.97569444444446 13.8216145833334 8.59375 C 13.6592881944445 8.22135416666674 13.7261284722222 7.89192708333326 14.0221354166666 7.60546875 L 15.9986979166666 5.62890625 C 14.5855034722222 4.32074652777771 12.9192708333334 3.66666666666674 11 3.66666666666674 C 10.0069444444444 3.66666666666674 9.05924479166663 3.86002604166674 8.15690104166663 4.24674479166674 C 7.25455729166663 4.63346354166674 6.47395833333337 5.15625 5.81510416666663 5.81510416666674 C 5.15625 6.47395833333326 4.63346354166663 7.25455729166674 4.24674479166663 8.15690104166674 C 3.86002604166663 9.05924479166674 3.66666666666663 10.0069444444445 3.66666666666663 11 C 3.66666666666663 11.9930555555555 3.86002604166663 12.9407552083333 4.24674479166663 13.8430989583333 C 4.63346354166663 14.7454427083333 5.15625 15.5260416666667 5.81510416666663 16.1848958333333 C 6.47395833333337 16.84375 7.25455729166663 17.3665364583333 8.15690104166663 17.7532552083333 C 9.05924479166663 18.1399739583333 10.0069444444444 18.3333333333333 11 18.3333333333333 C 12.1362847222222 18.3333333333333 13.2105034722222 18.0850694444445 14.22265625 17.5885416666667 C 15.2348090277778 17.0920138888889 16.0894097222222 16.3901909722223 16.7864583333334 15.4830729166667 C 16.8532986111111 15.3875868055555 16.9631076388889 15.3302951388889 17.1158854166666 15.3111979166667 C 17.2495659722222 15.3111979166667 17.3689236111111 15.3541666666667 17.4739583333334 15.4401041666667 L 19.4361979166666 17.4166666666667 C 19.5221354166666 17.4930555555555 19.5674913194445 17.5909288194445 19.572265625 17.7102864583333 C 19.5770399305555 17.8296440972223 19.5412326388889 17.9370659722223 19.46484375 18.0325520833333 C 18.4240451388889 19.29296875 17.1636284722222 20.2693142361111 15.68359375 20.9615885416667 C 14.2035590277778 21.6538628472223 12.6423611111111 22 11 22 C 9.51041666666663 22 8.08767361111111 21.7087673611111 6.73177083333337 21.1263020833333 C 5.37586805555557 20.5438368055555 4.20616319444443 19.7608506944445 3.22265625 18.77734375 C 2.23914930555557 17.7938368055555 1.45616319444443 16.6241319444445 0.873697916666629 15.2682291666667 C 0.291232638888886 13.9123263888889 0 12.4895833333333 0 11 C 0 9.51041666666674 0.291232638888886 8.08767361111109 0.873697916666629 6.73177083333326 C 1.45616319444443 5.37586805555554 2.23914930555557 4.20616319444446 3.22265625 3.22265625 C 4.20616319444443 2.23914930555554 5.37586805555557 1.45616319444446 6.73177083333337 0.873697916666742 C 8.08767361111111 0.291232638888914 9.51041666666663 0 11 0 C 12.4036458333334 0 13.7619357638889 0.264973958333258 15.0748697916666 0.794921875 C 16.3878038194445 1.32486979166674 17.5551215277778 2.07204861111109 18.5768229166666 3.03645833333326 L 20.4388020833334 1.18880208333326 C 20.7157118055555 0.892795138888914 21.0499131944445 0.825954861111086 21.44140625 0.98828125 Z" transform="matrix(1 0 0 1 -687 -588 ) matrix(1 0 0 1 687 588 )"/></g></svg>