<svg xmlns="http://www.w3.org/2000/svg" xmlns:xlink="http://www.w3.org/1999/xlink" width="19" height="22" version="1.1"><g><path fill="#0079fe" fill-rule="nonzero" stroke="none" d="M 17.8404049729729 11.1366709828432 L 18.9451054864865 5.74561552205881 L 13.5594449729729 4.030950620098 L 9.46591594594588 0.365016370097976 L 5.50364670270267 4.03213694852946 L 0.0411552432432245 5.75027809313724 L 1.2937926486486 11.1366709828432 L 0.0422891621622057 16.5392862843138 L 5.37683970270268 18.2423913455882 L 9.46464372972969 21.9292381593137 L 13.5594449729729 18.3710946617647 L 18.9405144324325 16.5289127720588 L 17.8404049729729 11.1366709828432 Z M 16.4411028648649 15.1009541887255 L 12.5053566216216 16.4485180318627 L 9.4913049999999 19.0422832254901 L 6.52297029729732 16.3649229387255 L 2.60116310810804 15.0895598602941 L 3.50385745945948 11.1951047892158 L 2.60116310810804 7.20944000980387 L 6.56359832432429 5.96321105147047 L 9.48748835135132 3.28838898774507 L 12.415195027027 5.91001920343132 L 16.4347694324324 7.21324730392161 L 15.6412646216216 11.0849137720588 L 16.4411028648649 15.1009541887255 Z" transform="matrix(1 0 0 1 -69 -392 ) matrix(1 0 0 1 69 392 )"/></g></svg>