<svg xmlns="http://www.w3.org/2000/svg" xmlns:xlink="http://www.w3.org/1999/xlink" width="22" height="26" version="1.1"><g><path fill="#0079fe" fill-rule="nonzero" stroke="none" d="M 22 3.7426829268293 L 22 14.6487804878049 C 21.9928571428571 20.2024390243902 14.99 25.7560975609756 11.1221428571429 25.7560975609756 C 7.21357142857141 25.7560975609756 0.00714285714286689 20.2024390243902 0 14.6890243902439 L 0 3.78292682926832 L 1.10642857142852 3.78292682926832 C 1.14714285714285 3.78292682926832 3.58999999999992 3.7426829268293 6.15500000000009 2.7365853658537 C 8.76071428571424 1.69024390243899 10.4300000000001 0.523170731707353 10.4707142857143 0.523170731707353 L 11.1221428571429 0 L 11.7735714285715 0.482926829268251 C 11.7735714285715 0.482926829268251 13.4835714285714 1.69024390243899 16.0892857142858 2.6963414634146 C 18.6135714285715 3.7024390243902 20.8528571428571 3.7426829268293 20.8935714285715 3.7426829268293 L 22 3.7426829268293 Z M 11.1628571428571 2.6963414634146 C 10.3892857142857 3.17926829268293 8.92357142857145 4.02439024390245 7.05071428571432 4.74878048780491 C 5.13714285714286 5.47317073170728 2.85714285714289 5.75487804878054 1.75785714285712 5.87560975609753 L 1.60975609756099 5.87560975609753 L 1.60975609756099 14.6890243902439 C 1.75785714285712 18.9146341463415 8.51642857142861 23.7841463414634 11.1221428571429 23.7841463414634 C 13.6871428571428 23.7841463414634 20.2421428571429 18.9146341463415 20.390243902439 14.6890243902439 L 20.390243902439 5.87560975609753 C 19.1428571428571 5.75487804878054 17.1071428571429 5.47317073170728 15.275 4.74878048780491 C 13.3614285714285 3.98414634146343 11.9364285714286 3.17926829268293 11.1628571428571 2.6963414634146 Z M 11.2682926829268 11.1341463414633 C 11.6397748592871 10.8524390243902 12.1763602251407 10.289024390244 12.6303939962476 9.7256097560975 L 9.32833020637895 9.7256097560975 C 8.58536585365857 10.3292682926829 7.47091932457784 10.7719512195121 5.90243902439022 11.0536585365853 L 5.90243902439022 10.2085365853658 C 7.42964352720446 9.76585365853657 8.46153846153845 8.96097560975602 8.9568480300187 7.87439024390241 L 10.5666041275798 7.87439024390241 C 10.4427767354597 8.19634146341465 10.2776735459662 8.47804878048785 10.1538461538462 8.71951219512192 L 14.5703564727954 8.71951219512192 L 14.5703564727954 9.68536585365857 C 14.0750469043152 10.2085365853658 13.5797373358349 10.7317073170732 13.2082551594747 11.0939024390244 L 15.8086303939963 11.0939024390244 L 15.8086303939963 13.1463414634146 C 15.8086303939963 13.870731707317 15.2720450281427 14.7560975609756 14.1575984990619 14.7560975609756 L 11.5984990619137 14.7560975609756 C 11.5572232645403 14.8365853658537 11.3921200750468 15.1182926829268 11.3921200750468 15.1585365853659 L 12.5065666041277 15.1585365853659 L 12.5065666041277 16.6073170731707 C 12.4652908067542 17.090243902439 12.7129455909943 17.3719512195122 13.1669793621013 17.3719512195122 L 14.7767354596623 17.3719512195122 C 15.2307692307692 17.3719512195122 15.437148217636 17.009756097561 15.3958724202627 16.6073170731707 L 15.3958724202627 16.3658536585366 L 16.6341463414634 16.3658536585366 L 16.6341463414634 17.1707317073171 C 16.6341463414634 17.9756097560976 16.015009380863 18.3780487804878 15.0656660412758 18.3780487804878 L 12.6716697936211 18.3780487804878 C 11.5984990619137 18.4182926829268 11.0206378986867 17.8548780487805 11.0619136960601 16.8487804878049 L 11.0619136960601 15.6817073170732 C 10.3189493433396 16.929268292683 8.62664165103195 17.9353658536585 5.90243902439022 18.780487804878 L 5.90243902439022 17.8548780487805 C 8.09005628517821 16.929268292683 9.49343339587244 15.9634146341463 10.0300187617261 14.7560975609756 L 6.72795497185746 14.7560975609756 L 6.72795497185746 11.1341463414633 L 11.2682926829268 11.1341463414633 Z M 11.9699812382739 13.709756097561 L 13.3733583489681 13.709756097561 C 13.8686679174484 13.7500000000001 14.4465290806754 13.2268292682927 14.405253283302 12.7036585365854 L 14.405253283302 11.9390243902439 L 12.0938086303941 11.9390243902439 L 12.0938086303941 12.260975609756 C 12.0938086303941 12.9048780487805 12.0525328330207 13.1060975609757 11.9699812382739 13.709756097561 Z M 10.2776735459662 13.709756097561 C 10.4015009380863 13.2268292682927 10.4427767354597 11.9390243902439 10.4427767354597 11.9390243902439 L 8.17260787992495 11.9390243902439 L 8.17260787992495 13.709756097561 L 10.2776735459662 13.709756097561 Z" transform="matrix(1 0 0 1 -293 -390 ) matrix(1 0 0 1 293 390 )"/></g></svg>