<svg xmlns="http://www.w3.org/2000/svg" xmlns:xlink="http://www.w3.org/1999/xlink" width="22" height="22" version="1.1"><g><path fill="#0079fe" fill-rule="nonzero" stroke="none" d="M 2.828535994596 10.9847522321429 C 2.828535994596 6.4439620535714 6.50268389732378 2.74985267857147 11.0168149125064 2.74985267857147 C 15.531824852033 2.74985267857147 19.2050938304169 6.44401116071424 19.2050938304169 10.9847522321429 C 19.2050938304169 15.5254933035714 15.531824852033 19.2197008928572 11.0168149125064 19.2197008928572 C 6.50265948275865 19.2197008928572 2.828535994596 15.5255424107143 2.828535994596 10.9847522321429 Z M 21.9345201363871 10.9847276785715 C 21.9345201363871 4.92046205357136 17.0458208633556 0.00483705357147812 11.0168149125064 0.00483705357147812 C 4.98780896165727 0.00483705357147812 0.0990852740607124 4.92041294642851 0.0990852740607124 10.9847276785715 C 0.0990852740607124 17.0471517857143 4.98778454709213 21.9646183035714 11.0168149125064 21.9646183035714 C 17.0458208633556 21.9646183035714 21.9345201363871 17.0471026785715 21.9345201363871 10.9847276785715 Z" transform="matrix(1 0 0 1 -69 -443 ) matrix(1 0 0 1 69 443 )"/></g></svg>