<svg xmlns="http://www.w3.org/2000/svg" xmlns:xlink="http://www.w3.org/1999/xlink" width="22" height="22" version="1.1"><g><path fill="#0079fe" fill-rule="nonzero" stroke="none" d="M 21.93128362625 11.0112742662501 C 21.93128362625 17.037973443125 17.0449076431249 21.9242746193751 11.018283273125 21.9242746193751 C 4.99163399187501 21.9242746193751 0.105282920000036 17.037973443125 0.105282920000036 11.0112742662501 C 0.105282920000036 4.9846249850001 4.9916589275 0.098273913125098 11.018283273125 0.098273913125098 C 17.04490761875 0.098273913125098 21.93128362625 4.98464992062503 21.93128362625 11.0112742662501 Z M 19.885102289375 11.0112742662501 C 19.885102289375 6.12225430250004 15.907303236875 2.14453008125003 11.018283273125 2.14453008125003 C 6.12926330937501 2.14453008125003 2.15146425687499 6.12225430250004 2.15146425687499 11.0112742662501 C 2.15146425687499 15.90029423 6.12923837375001 19.8780932825 11.018283273125 19.8780932825 C 15.9073281725 19.8780932825 19.885102289375 15.90029423 19.885102289375 11.0112742662501 Z M 16.1750174206251 9.34744554125007 L 10.71851725625 14.803895834375 C 10.518748068125 15.0037398537501 10.2569703425 15.1036618756249 9.99519264125001 15.1036618756249 C 9.73341493999999 15.1036618756249 9.47163721437494 15.0037398537501 9.27186802624999 14.803895834375 L 5.86154914999997 11.3935770068749 C 5.65105442562503 11.18315711375 5.55844073562491 10.90474235375 5.56976489750002 10.629595135625 C 5.57979201687499 10.3818104881249 5.67235581124999 10.1361210668751 5.86154914999997 9.94697762375 C 6.05069259312506 9.75770947812489 6.29643191000002 9.66514565937501 6.544216533125 9.65511853999999 C 6.81936375124997 9.643869209375 7.09777848687509 9.73640806812492 7.30819840437493 9.94697762375 L 9.99519261687499 12.6338221737501 L 14.72836816625 7.90072148000004 C 14.9387880593749 7.69022675562496 15.217277650625 7.59761306562507 15.4923500375 7.60893722750004 C 15.740134685 7.61903917812506 15.9858989375 7.71152814124994 16.1750174206251 7.90072148000004 C 16.3642107593749 8.08986492312499 16.4567745537501 8.33567904687501 16.466801673125 8.58338886312492 C 16.4781258349999 8.85853608124995 16.385512145 9.13695081687499 16.1750174206251 9.34744554125007 Z" transform="matrix(1 0 0 1 -203 -443 ) matrix(1 0 0 1 203 443 )"/></g></svg>