<svg xmlns="http://www.w3.org/2000/svg" xmlns:xlink="http://www.w3.org/1999/xlink" width="22" height="22" version="1.1"><g><path fill="#0079fe" fill-rule="nonzero" stroke="none" d="M 11.0023093474206 0.227157926005788 C 5.07017427103176 0.227157926005788 0.244386105158696 5.10589363521139 0.244386105158696 11.1031148088567 C 0.244386105158696 17.1005098624281 5.07017429503969 21.9792455473624 11.0023093474206 21.9792455473624 C 16.9346163926588 21.9792455473624 21.7604045585317 17.1005098381569 21.7604045585317 11.1031148088567 C 21.7604045585317 5.10589363521139 16.9346163926588 0.227157926005788 11.0023093474206 0.227157926005788 Z M 11.0023093474206 20.1205175586001 C 6.08407377242065 20.1205175586001 2.08291731607142 16.0746664770114 2.08291731607142 11.1031148331281 C 2.08291731607142 6.13091742580049 6.08407379642858 2.08586113372331 11.0023093474206 2.08586113372331 C 15.919906167262 2.08586113372331 19.9218487875 6.13091745007183 19.9218487875 11.1031148331281 C 19.9218487875 16.0746664527402 15.919906167262 20.1205175586001 11.0023093474206 20.1205175586001 Z M 7.16607430654756 11.1031396627155 C 6.73963215793651 11.1031396627155 6.39455746765873 11.4489454773707 6.39455746765873 11.8800664583333 C 6.39455746765873 12.3111874392959 6.73963215793651 12.6569932539512 7.16607430654756 12.6569932539512 L 11.7758652763889 12.6569932539512 C 12.2016195255952 12.6569932539512 12.5443603083332 12.3112122688834 12.5443603083332 11.8800664583333 L 12.5443603083332 5.66668870207307 C 12.5443603083332 5.23638734020939 12.202331985119 4.88670694488918 11.7758652763889 4.88670694488918 C 11.3494231277778 4.88670694488918 11.0075176531747 5.23556772111041 11.0075176531747 5.66668870207307 L 11.0075176531747 11.1031148331281 L 7.16607430654756 11.1031148088567 Z" transform="matrix(1 0 0 1 -113 -443 ) matrix(1 0 0 1 113 443 )"/></g></svg>