<svg xmlns="http://www.w3.org/2000/svg" xmlns:xlink="http://www.w3.org/1999/xlink" width="22" height="22" version="1.1"><g><path fill="#0079fe" fill-rule="nonzero" stroke="none" d="M 11 21.7608695652173 C 5.08152173913038 21.7608695652173 0.239130434782624 16.9184782608695 0.239130434782624 11 C 0.239130434782624 5.08152173913049 5.08152173913038 0.239130434782652 11 0.239130434782652 C 16.9184782608696 0.239130434782652 21.7608695652174 5.08152173913049 21.7608695652174 11 C 21.7608695652174 16.9184782608695 16.9184782608696 21.7608695652173 11 21.7608695652173 Z M 11 1.96535326086951 C 5.99619565217392 1.96535326086951 1.96535326086962 5.99619565217381 1.96535326086962 11 C 1.96535326086962 16.0038043478262 5.99619565217392 20.0346467391305 11 20.0346467391305 C 16.0038043478261 20.0346467391305 20.0346467391304 16.0038043478262 20.0346467391304 11 C 20.0346467391304 5.99619565217381 16.0038043478261 1.96535326086951 11 1.96535326086951 Z M 11.9947165563859 16.797678173913 C 11.9947165563859 17.5046212567934 11.4163086304349 18.0830291827445 10.7093655475543 18.0830291827445 C 10.0024225543478 18.0830291827445 9.42401462839678 17.5046212567934 9.42401462839678 16.797678173913 C 9.42401462839678 16.0907351807065 10.0024225543478 15.5123271650816 10.7093655475543 15.5123271650816 C 11.4163086304349 15.5123271650816 11.9947165563859 16.0907351807065 11.9947165563859 16.797678173913 Z M 8.27558857812494 8.73769748709236 C 8.27558857812494 8.73769748709236 8.20834872418482 9.38692872622278 7.34180172418485 9.38692872622278 C 6.47525467934781 9.38692872622278 6.43443096671194 8.67666894157611 6.43558708763578 8.64652810461956 C 6.46945073709242 7.78285504144014 6.5869539626359 7.12978990624998 6.78849637364135 6.67709314877703 C 6.99794701494568 6.2066331773097 7.33306302377719 5.78636192391301 7.79385451086955 5.41626674456529 C 8.25464593070649 5.04617156521741 8.76779241100542 4.77330889062492 9.33330917391299 4.59767049320649 C 9.89882593682069 4.42203211820652 10.4957513240489 4.33421423097829 11.1241033152174 4.33421423097829 C 12.3947706915761 4.33421423097829 13.45248059375 4.66980398709242 14.2972649456522 5.34099352038038 C 15.142049230299 6.01218307608696 15.5644351066577 6.90604360665765 15.5644351066577 8.02260190217402 C 15.5644351066577 8.52442586277175 15.4562205067934 8.97919700203812 15.2397882133153 9.38692892798917 C 15.023355830163 9.79466094361413 14.5625713152174 10.3027501066576 13.8574207241847 10.9112116392664 C 13.1522701779892 11.519673171875 12.684504078125 11.9524898281249 12.4541083457881 12.2096746107338 C 12.2237125910326 12.4668593933425 12.1060264307065 12.6027726283967 11.9455686610055 12.9003308260869 C 11.7851108913043 13.1978890910326 11.7465784368206 13.2379018152174 11.6030204782609 13.6296478192935 C 11.4594625869565 14.0213938457881 11.1241033824728 14.2520786195652 10.6842590040761 14.2520786195652 C 10.244414558424 14.2520786195652 9.87466491508155 13.817610169837 9.87466491508155 13.4858832520381 C 9.87466491508155 13.1541563566577 9.80492802377717 13.0869238111413 10.0928808002717 12.5953555869566 C 10.3188064001359 12.2096748349184 10.4329183152173 12.0999027785326 10.6842591610055 11.7862627975543 C 10.9355999171196 11.4726227717391 11.3894028695653 11.0115789870923 12.0456816263587 10.4031173872283 C 12.7019603607337 9.79465585461958 13.2449522024457 9.42323574320653 13.433457730299 9.14723257608694 C 13.6219633478262 8.87122940896734 13.8574205672554 8.42573306317928 13.8574205672554 7.87999950883142 C 13.8574205672554 7.33426595448356 13.5947778043478 6.83439751290763 12.9641374694294 6.44539586684778 C 12.3334971345108 6.0563942656251 11.8633869585598 5.97753951019013 10.8580289110054 5.97753948777185 C 9.85267093070649 5.97753946535326 8.28864575 6.74165368070652 8.27572539809785 8.69617931725543 C 8.27563419972819 8.70997002173908 8.27558857812494 8.72380944157612 8.27558857812494 8.73769748709236 Z" transform="matrix(1 0 0 1 -248 -443 ) matrix(1 0 0 1 248 443 )"/></g></svg>