<svg xmlns="http://www.w3.org/2000/svg" xmlns:xlink="http://www.w3.org/1999/xlink" width="22" height="22" version="1.1"><g><path fill="#0079fe" fill-rule="nonzero" stroke="none" d="M 5.478515625 1.47526041666663 C 7.16384548611111 0.491753472222172 9.00434027777777 0 11 0 C 12.9956597222222 0 14.8361545138889 0.491753472222172 16.521484375 1.47526041666663 C 18.2068142361111 2.45876736111109 19.5412326388889 3.79318576388891 20.5247395833333 5.478515625 C 21.5082465277778 7.16384548611109 22 9.00434027777771 22 11 C 22 12.9956597222222 21.5082465277778 14.8361545138889 20.5247395833333 16.521484375 C 19.5412326388889 18.2068142361111 18.2068142361111 19.5412326388889 16.521484375 20.5247395833334 C 14.8361545138889 21.5082465277777 12.9956597222222 22 11 22 C 9.00434027777777 22 7.16384548611111 21.5082465277777 5.478515625 20.5247395833334 C 3.79318576388889 19.5412326388889 2.45876736111111 18.2068142361111 1.47526041666671 16.521484375 C 0.491753472222229 14.8361545138889 0 12.9956597222222 0 11 C 0 9.00434027777771 0.491753472222229 7.16384548611109 1.47526041666671 5.478515625 C 2.45876736111111 3.79318576388891 3.79318576388889 2.45876736111109 5.478515625 1.47526041666663 Z M 12.7044270833333 18.197265625 C 12.7903645833333 18.1065538194445 12.8333333333333 17.9943576388889 12.8333333333333 17.8606770833334 L 12.8333333333333 15.1393229166666 C 12.8333333333333 15.0056423611111 12.7903645833333 14.8934461805555 12.7044270833333 14.802734375 C 12.6184895833333 14.7120225694445 12.5134548611111 14.6666666666666 12.3893229166667 14.6666666666666 L 9.63932291666671 14.6666666666666 C 9.51519097222223 14.6666666666666 9.4053819444444 14.7144097222222 9.30989583333329 14.8098958333334 C 9.21440972222223 14.9053819444445 9.16666666666671 15.0151909722223 9.16666666666671 15.1393229166666 L 9.16666666666671 17.8606770833334 C 9.16666666666671 17.9848090277777 9.21440972222223 18.0946180555555 9.30989583333329 18.1901041666666 C 9.4053819444444 18.2855902777777 9.51519097222223 18.3333333333334 9.63932291666671 18.3333333333334 L 12.3893229166667 18.3333333333334 C 12.5134548611111 18.3333333333334 12.6184895833333 18.2879774305555 12.7044270833333 18.197265625 Z M 12.654296875 13.1842447916666 C 12.7450086805556 13.1126302083334 12.7951388888889 13.0290798611111 12.8046875 12.93359375 L 13.0625 4.0390625 C 13.0625 3.92447916666663 13.0147569444444 3.83854166666663 12.9192708333333 3.78125 C 12.8237847222222 3.70486111111109 12.7092013888889 3.66666666666663 12.5755208333333 3.66666666666663 L 9.42447916666671 3.66666666666663 C 9.29079861111111 3.66666666666663 9.17621527777777 3.70486111111109 9.08072916666671 3.78125 C 8.9852430555556 3.83854166666663 8.9375 3.92447916666663 8.9375 4.0390625 L 9.18098958333329 12.93359375 C 9.18098958333329 13.0290798611111 9.22873263888889 13.1126302083334 9.32421875 13.1842447916666 C 9.41970486111111 13.255859375 9.5342881944444 13.2916666666666 9.66796875 13.2916666666666 L 12.3177083333333 13.2916666666666 C 12.4513888888889 13.2916666666666 12.5635850694444 13.255859375 12.654296875 13.1842447916666 Z" transform="matrix(1 0 0 1 -630 -296 ) matrix(1 0 0 1 630 296 )"/></g></svg>