<svg xmlns="http://www.w3.org/2000/svg" xmlns:xlink="http://www.w3.org/1999/xlink" width="7" height="22" version="1.1"><g><path fill="#0079fe" fill-rule="nonzero" stroke="none" d="M 6.22684757505775 16.796875 C 6.42650115473441 16.9947916666666 6.5263279445727 17.2291666666666 6.5263279445727 17.5 L 6.5263279445727 21 C 6.5263279445727 21.2708333333334 6.42650115473441 21.5052083333334 6.22684757505775 21.703125 C 6.02719399538106 21.9010416666666 5.79076212471134 22 5.51755196304848 22 L 1.48244803695149 22 C 1.20923787528866 22 0.972806004618913 21.9010416666666 0.77315242494225 21.703125 C 0.573498845265616 21.5052083333334 0.473672055427242 21.2708333333334 0.473672055427242 21 L 0.473672055427242 17.5 C 0.473672055427242 17.2291666666666 0.573498845265616 16.9947916666666 0.77315242494225 16.796875 C 0.972806004618913 16.5989583333334 1.20923787528866 16.5 1.48244803695149 16.5 L 5.51755196304848 16.5 C 5.79076212471134 16.5 6.02719399538106 16.5989583333334 6.22684757505775 16.796875 Z M 6.72335450346421 0.296875 C 6.91775404157048 0.494791666666629 7.00969976905313 0.729166666666629 6.99919168591222 1 L 6.55785219399533 13 C 6.54734411085451 13.2708333333334 6.43963625866047 13.5052083333333 6.23472863741339 13.703125 C 6.0298210161663 13.9010416666666 5.79076212471134 14 5.51755196304848 14 L 1.48244803695149 14 C 1.20923787528866 14 0.970178983833701 13.9010416666666 0.765271362586585 13.703125 C 0.560363741339498 13.5052083333333 0.452655889145488 13.2708333333334 0.442147806004611 13 L 0.000808314087748837 1 C -0.00969976905312816 0.729166666666629 0.0822459584295526 0.494791666666629 0.27664549653582 0.296875 C 0.47104503464203 0.0989583333332575 0.704849884526536 0 0.978060046189366 0 L 6.02193995381066 0 C 6.29515011547341 0 6.52895496535794 0.0989583333332575 6.72335450346421 0.296875 Z" transform="matrix(1 0 0 1 -599 -296 ) matrix(1 0 0 1 599 296 )"/></g></svg>