<svg xmlns="http://www.w3.org/2000/svg" xmlns:xlink="http://www.w3.org/1999/xlink" width="26" height="22" version="1.1"><g><path fill="#0079fe" fill-rule="nonzero" stroke="none" d="M 16.1158363606771 11.9226411276042 C 16.1158363606771 12.707157203125 15.4977154470486 13.3392140234375 14.738596781684 13.3392140234375 C 13.9793049240452 13.3392140234375 13.3611262608507 12.7071572317708 13.3611262608507 11.9226411276042 C 13.3611262608507 11.1425220442709 13.9793049240452 10.5104652526041 14.738596781684 10.5104652526041 C 15.4977154188368 10.5104652526041 16.1158363606771 11.1425220442709 16.1158363606771 11.9226411276042 Z M 22.9514262543403 19.529483703125 C 24.5828024045139 18.2684773046875 25.6105500455729 16.4160425859375 25.6105500455729 14.3500886432291 C 25.6105500455729 10.7132850572916 22.4217898068577 7.73553598697913 18.3802299913195 7.47880870572919 C 18.1911359635417 7.46831447656245 18.0016089127604 7.46107407031252 17.8121973328993 7.46107407031252 C 13.5040582421875 7.46107407031252 10.0134404578993 10.5458759140625 10.0134404578993 14.3501179765625 C 10.0134404578993 14.9238116901041 10.0942456705729 15.4793603593751 10.2449434874132 16.01010984375 C 11.0832795486111 19.0132443645833 14.1528961132812 21.2395135963542 17.8121973328993 21.2395135963542 C 19.0573886501736 21.2395135963542 20.2325141427951 20.9828156484375 21.2743211371528 20.5232978671875 L 23.0248986827257 21.7380182994791 C 23.0248986827257 21.7380182994791 23.4916577864583 22.069231078125 23.4461019835069 21.4315460963542 L 22.9514262543403 19.529483703125 Z M 9.4555987217882 14.3502058619791 C 9.45559866536457 10.2360033359375 13.2056649934896 6.88735105208332 17.8121973328993 6.88735105208332 C 17.9803611067708 6.88735105208332 18.1451182769097 6.89476734375 18.3103084982639 6.90200777864584 C 17.6682260568576 3.05112800781251 13.9144932942709 0.0943380338541147 9.37854646918404 0.0943380338541147 C 4.39347968967012 0.0943380338541147 0.351919845920141 3.66756073177078 0.351919845920141 8.07009047395832 C 0.351919845920141 10.5245650182292 1.60787941189237 12.7187067161458 3.57950931857637 14.1827674140625 L 2.9128013563368 16.7367904401042 C 2.9128013563368 16.7367904401042 2.68499359375 17.5845356614583 3.54798403645833 17.2037245130208 L 6.03521992621527 15.4793016640625 C 7.07009827039929 15.8462768463542 8.19626141276043 16.0494777552083 9.37854649739582 16.0494777552083 C 9.48022421440971 16.0494777552083 9.57826441406251 16.042208015625 9.67653558376737 16.042208015625 C 9.53270866753471 15.4970362994792 9.4555987217882 14.93075890625 9.4555987217882 14.3502058619791 Z M 22.7567027582465 11.9216151484375 C 22.7567027300347 12.7061605572917 22.1385818164063 13.3381880442709 21.3794631792535 13.3381880442709 C 20.6201713216146 13.3381880442709 20.0019926584201 12.7061312526041 20.0019926584201 11.9216151484375 C 20.0019926584201 11.1414960651042 20.6201713216146 10.5094392734375 21.3794631792535 10.5094392734375 C 22.1385818164063 10.5094392734375 22.7567027582465 11.1414960651042 22.7567027582465 11.9216151484375 Z M 6.52412177083332 5.56255857552082 C 6.52412174262151 6.34707467968747 5.90600082899306 6.97913147135421 5.14688219184028 6.97913147135421 C 4.38759033420138 6.97913147135421 3.76941167100695 6.34707467968747 3.76941167100695 5.56255857552082 C 3.76941167100695 4.78243949218745 4.38759033420138 4.15038270052082 5.14688219184028 4.15038270052082 C 5.90600082899306 4.15038270052082 6.52412177083332 4.78243949218745 6.52412177083332 5.56255857552082 Z M 14.675719437934 5.56153262500004 C 14.6757194097222 6.34607803385416 14.0575984960938 6.97810552083331 13.298479858941 6.97810552083331 C 12.5391880013021 6.97810552083331 11.9210093381076 6.34604872916668 11.9210093381076 5.56153262500004 C 11.9210093381076 4.78141354166667 12.5391880013021 4.14935675000004 13.298479858941 4.14935675000004 C 14.0575984960938 4.14935675000004 14.675719437934 4.78141354166667 14.675719437934 5.56153262500004 Z" transform="matrix(1 0 0 1 -68 -587 ) matrix(1 0 0 1 68 587 )"/></g></svg>