<svg xmlns="http://www.w3.org/2000/svg" xmlns:xlink="http://www.w3.org/1999/xlink" width="22" height="22" version="1.1"><g><path fill="#0079fe" fill-rule="nonzero" stroke="none" d="M 3.12208696340463 10.0004102564103 L 3.19599083881582 9.94625641025647 L 3.15491074629932 9.82303679887826 L 3.12208696340463 9.66155629206739 L 3.09913043379936 9.57306576522436 L 3.09913043379936 9.46220735977573 L 3.09913043379936 9.32937345753211 L 3.09913043379936 9.2092932091347 L 3.13859953741775 9.06684503806082 L 3.17967962993419 8.91497882211533 L 3.23223798725326 8.75683388020838 L 3.303725390625 8.5800490504808 L 3.39816934621712 8.39639688902244 L 3.53107551192431 8.21215607772427 L 3.53107551192431 8.08305016626608 L 3.5443661307566 7.96257746995184 L 3.56389931743422 7.798350048077 L 3.62149198396384 7.61509029046476 L 3.67405034128291 7.41574135817311 L 3.71593591694079 7.3237190645032 L 3.76426544819083 7.23836790064109 L 3.82669108141448 7.14359866987169 L 3.89415102384868 7.0735518289263 L 3.89415102384868 6.9444459395032 L 3.89415102384868 6.79826977764432 L 3.89415102384868 6.61834560697113 L 3.93341876233552 6.38387514222754 L 3.97288786595396 6.111732431891 L 4.04356978618421 5.7862207271634 L 4.14063157894736 5.44775918870195 L 4.21272312294406 5.26077146233965 L 4.2842105263158 5.05828316706726 L 4.36214188527958 4.86874470552885 L 4.4557803125 4.66645261217943 L 4.55123111636516 4.44473577924683 L 4.66097940995064 4.23616500400638 L 4.78442105263156 4.01444817107378 L 4.94048513569078 3.79292754006417 L 5.01177117393092 3.66656856570506 L 5.08889702713816 3.56198884214746 L 5.25563386924341 3.32791080328531 L 5.42639817228621 3.09402898838147 L 5.62193135896382 2.85347602163466 L 5.83055377672696 2.61900557892619 L 6.05729978001642 2.38845930689095 L 6.29371167146383 2.15104570312508 L 6.57945996504935 1.89479598758012 L 6.76190389802633 1.73959420673074 L 6.98281006373355 1.57203121995198 L 7.20693820723682 1.42350054687492 L 7.44999541940786 1.28105239783653 L 7.68338672080591 1.1546934234776 L 7.94597711965457 1.05030992387813 L 8.22528145764801 0.920222958734001 L 8.50297482935855 0.83173243189097 L 8.78046681332239 0.740102564102529 L 9.07950572574015 0.648668898237219 L 9.37834325041115 0.579014483173097 L 9.69369337171048 0.52172129607365 L 10.0122654481908 0.471295418669882 L 10.3260045805921 0.430091406250057 L 10.6413547018914 0.388494989983911 L 10.9764393523849 0.370247483974339 L 11.2952128166119 0.370247483974339 L 11.6252631578948 0.370247483974339 L 11.9667917639803 0.370247483974339 L 12.2968421052632 0.411059092548015 L 12.6285034354441 0.449516167868552 L 12.9674141817434 0.484245252403895 L 13.2807505612665 0.557039008413454 L 13.6128146443257 0.626104795673143 L 13.9241373046875 0.704981053685884 L 14.2648604050165 0.793863984375065 L 14.5769885485197 0.901386846955091 L 14.8758260958059 1.0246064583333 L 15.1943981722862 1.1546934234776 L 15.4857848930921 1.29714157251598 L 15.7683112088816 1.45489408854166 L 16.0454004625823 1.62912820512824 L 16.2850343318257 1.79041248798083 L 16.3949839905428 1.8820423557693 L 16.5115789473684 1.94855740785249 L 16.7332906188323 2.13201336738788 L 16.9203661307566 2.30938684695522 L 17.1060320415296 2.4930390084134 L 17.2884759745066 2.69552730368582 L 17.4382974897204 2.89154069310908 L 17.6155057257402 3.09402898838147 L 17.7401556044408 3.31201783052887 L 17.8660137191612 3.50528428285264 L 17.9999267783717 3.730140478766 L 18.1098764370888 3.92615384615391 L 18.2967505612664 4.34074470552883 L 18.3889794099506 4.55539798277249 L 18.4604668133223 4.75474693709927 L 18.5317528515625 4.96998884214739 L 18.5957894736842 5.1724771374198 L 18.6417025102796 5.34651505208339 L 18.6992951994243 5.55214268830125 L 18.801391301398 5.91905462940699 L 18.8660320415296 6.23868003405457 L 18.9079176171875 6.54869119190701 L 18.944164765625 6.79826977764432 L 19.0017574321546 7.17793535056089 L 19.0146452981086 7.23836790064109 L 19.0605583573191 7.30802229366989 L 19.184 7.50423188501594 L 19.2627368421053 7.63647713741994 L 19.3334187623356 7.7761783713942 L 19.423835234375 7.92451282051278 L 19.502773464227 8.10227870392626 L 19.5533180797697 8.28553846153847 L 19.6090983922697 8.48469119190696 L 19.6521922265625 8.690122626202 L 19.6715240254935 8.79117056089737 L 19.6880366221217 8.91497882211533 L 19.6880366221217 9.02250166266023 L 19.6715240254935 9.13002452524046 L 19.6715240254935 9.26325083133023 L 19.6387002199835 9.39255294471158 L 19.5796979296875 9.64252397836532 L 19.5124393523848 9.76907915464741 L 19.4631029728619 9.91152730368597 L 19.4631029728619 9.94625641025647 L 19.4864622327302 9.99059978565703 L 19.5533180797697 10.0951794871795 L 19.8459130365954 10.5160490504807 L 20.0772906188322 10.8321426883013 L 20.1876430304276 11.0442452524038 L 20.3370617927632 11.2749877263622 L 20.4665446155427 11.528490526843 L 20.6163661307566 11.7998483854168 L 20.7657848930921 12.1039732431892 L 20.9337299712171 12.4489097095353 L 21.0281739041941 12.660423623798 L 21.1153684210526 12.8662474839743 L 21.1906819202302 13.0844325500802 L 21.2649885485197 13.2806421414263 L 21.3207688836349 13.4862697776443 L 21.3783615501645 13.6795362299679 L 21.4504530941612 14.0558662159456 L 21.5078443955592 14.4418104707532 L 21.5473134991776 14.7836075741185 L 21.5473134991776 14.9698104707532 L 21.5473134991776 15.121872910657 L 21.5473134991776 15.2645172836539 L 21.5211350143915 15.4358082391827 L 21.4834782648026 15.7297302223557 L 21.4307185423519 15.9952017808493 L 21.3503707113487 16.2351661197916 L 21.3207688836349 16.3332708934294 L 21.2649885485197 16.4506042267629 L 21.2174645230263 16.5330122736379 L 21.1550389124178 16.6340602083333 L 21.099057212171 16.6978283233174 L 21.0281739041941 16.7798439222757 L 20.9661510238487 16.8459665484776 L 20.8986910814145 16.903063555689 L 20.8181418852796 16.9379888421474 L 20.7456475884046 16.972914150641 L 20.6868466858552 16.9917502844551 L 20.6350938116776 16.9917502844551 L 20.5962288260691 16.9917502844551 L 20.5382334066612 16.972914150641 L 20.4268741467928 16.9189565284455 L 20.3763295086349 16.8840312199519 L 20.3237711739309 16.8459665484776 L 20.265775754523 16.795540693109 L 20.2071761944901 16.7388361117789 L 20.1099130365954 16.6340602083333 L 19.9953317989309 16.4857257592147 L 19.9049153268914 16.3332708934294 L 19.8147002199835 16.2106399098557 L 19.726498854852 16.0681917608173 L 19.6028558244244 15.8148851622597 L 19.4631029728619 15.5519643169071 L 19.4467917639803 15.5427424739583 L 19.423835234375 15.5427424739583 L 19.3662425678454 15.5841426883013 L 19.3334187623356 15.6530122736378 L 19.2792494387335 15.7389520653045 L 19.184 15.9952017808493 L 19.041226535773 16.3589743589745 L 18.8573730016448 16.795540693109 L 18.718828386102 17.0139219611378 L 18.5734370620888 17.2415250941507 L 18.4020686410362 17.4975785857371 L 18.219826095806 17.7481382471955 L 18.1261876459704 17.8615473878206 L 18.0126132791941 17.9845707972756 L 17.7524393523848 18.2349342347757 L 17.7753958819901 18.2571059114583 L 17.8108375246711 18.292031219952 L 17.9405217351974 18.367768114984 L 18.4826178597862 18.620682265625 L 18.718828386102 18.7501806029647 L 18.944164765625 18.8767357792468 L 19.1676887911184 19.0350769230769 L 19.3662425678454 19.1998929727564 L 19.4631029728619 19.2730791546474 L 19.5355972471217 19.3584303185095 L 19.6090983922697 19.4561426883014 L 19.6715240254935 19.5638617528045 L 19.7045491961348 19.6527447055289 L 19.7456292886513 19.7600713441506 L 19.7621418852796 19.8513088080929 L 19.7814736842105 19.9594202984776 L 19.7621418852796 20.0322140544872 L 19.7621418852796 20.1042229587339 L 19.7456292886513 20.1811371314102 L 19.7045491961348 20.2498104707532 L 19.6880366221217 20.3041605408654 L 19.6521922265625 20.3696945392628 L 19.5533180797697 20.5003701322116 L 19.4631029728619 20.6051460356571 L 19.3924210526316 20.6832374639424 L 19.3334187623356 20.7411192788461 L 19.184 20.8484459395031 L 19.0146452981086 20.9404682331731 L 18.8340137191612 21.0293511638622 L 18.6417025102796 21.1139174979967 L 18.4250251706414 21.1955406931089 L 18.3102425678454 21.230858427484 L 18.206334089227 21.2597012339743 L 17.956832944079 21.3164057932693 L 17.6974645230263 21.3699710116187 L 17.4382974897204 21.4243210596955 L 17.155167055921 21.4684682331731 L 16.8631761944902 21.4804370132211 L 16.5639359169408 21.5155585236378 L 16.2687231229441 21.5155585236378 L 15.9565949568257 21.5155585236378 L 15.6360091611842 21.5155585236378 L 15.3007231229441 21.4965261879006 L 14.9887963445724 21.4684682331731 L 14.6541144243421 21.4243210596955 L 14.3206407401316 21.3891995492789 L 13.9690434703948 21.3413244070512 L 13.6291258532073 21.2597012339743 L 13.2970617927631 21.1955406931089 L 12.9674141817434 21.1044994531249 L 12.6285034354441 20.9875585236378 L 12.2968421052632 20.8894537279647 L 12.1226544592927 20.8323567427884 L 11.9667917639803 20.7778104707533 L 11.8683203700658 20.7411192788461 L 11.7712585773026 20.7218907411859 L 11.6449977097039 20.7218907411859 L 11.4955789473684 20.7218907411859 L 11.1768054831414 20.6993266386218 L 11.0151029728618 20.6832374639424 L 10.8072860382401 20.6610657652244 L 10.6741784847862 20.7778104707533 L 10.4919359169408 20.8894537279647 L 10.2456567495888 21.006590859375 L 9.97279634457237 21.1523745733173 L 9.80706635074017 21.230858427484 L 9.63469108141447 21.2940379146635 L 9.25188101768094 21.445904130609 L 9.0440640830592 21.4965261879006 L 8.82637987253293 21.5540155989584 L 8.52432037006577 21.610327754407 L 8.33543250411179 21.6260245252405 L 8.13486498560854 21.6421137219552 L 7.92644393297701 21.6646778245193 L 7.68338672080591 21.6742920933494 L 7.44999541940786 21.6742920933494 L 7.20693820723682 21.6742920933494 L 6.69041647203949 21.6742920933494 L 6.12939130139802 21.6646778245193 L 5.58588557565787 21.610327754407 L 5.31000458059208 21.5730479346955 L 5.04378947368423 21.534787061298 L 4.78442105263156 21.4965261879006 L 4.5248512664474 21.445904130609 L 4.2842105263158 21.3699710116187 L 4.04356978618421 21.3164057932693 L 3.82669108141448 21.230858427484 L 3.62149198396384 21.1523745733173 L 3.43099312911187 21.0627067908653 L 3.26506179276316 20.9649944210737 L 3.09913043379936 20.8484459395031 L 3.04335012129934 20.7909565284456 L 2.96944622327305 20.7218907411859 L 2.91346452302633 20.6610657652244 L 2.86271854235201 20.5923924258814 L 2.81660411800988 20.5219531810898 L 2.78055835731908 20.4528873938301 L 2.72880548314146 20.3041605408654 L 2.71007780222038 20.2280312199519 L 2.68691990748357 20.1424838321313 L 2.68691990748357 20.0643924258814 L 2.71007780222038 19.9751170472755 L 2.71007780222038 19.886626542468 L 2.72880548314146 19.7975473878205 L 2.72880548314146 19.7439821694712 L 2.72880548314146 19.620958760016 L 2.73786727590459 19.5256009014423 L 2.78055835731908 19.4174894110577 L 2.81660411800988 19.310555176282 L 2.88225170641448 19.1806644350962 L 2.92997711965461 19.1304347816506 L 2.96944622327305 19.0737302223558 L 3.07295194901315 18.9503143870193 L 3.15491074629932 18.8863500480769 L 3.23223798725326 18.8422028966346 L 3.303725390625 18.7854983373398 L 3.41790389802634 18.7501806029647 L 3.50811898231905 18.6974002143429 L 3.62149198396384 18.6399108032852 L 3.75117619449014 18.6024347816506 L 3.88086040501645 18.5635852804487 L 4.03048055509868 18.5325841646634 L 4.17345538445721 18.5133556270033 L 4.34240733347042 18.4915763762019 L 4.5248512664474 18.4786265424679 L 4.57338214021382 18.4625373457532 L 4.5830480509868 18.4625373457532 L 4.60620594572367 18.443308808093 L 4.60620594572367 18.4219219611378 L 4.57338214021382 18.3773823838141 L 4.47551486430922 18.3330390084135 L 4.23245767475328 18.1272151702725 L 4.06974829358552 18.0010523978365 L 3.88086040501645 17.8397681149839 L 3.69056293791118 17.6596477203526 L 3.49180777343747 17.4285128205128 L 3.26506179276316 17.1691237419872 L 3.17967962993419 17.0296187319711 L 3.06630662828951 16.8840312199519 L 2.96944622327305 16.7160758072916 L 2.88225170641448 16.5330122736379 L 2.76424714843751 16.3589743589745 L 2.68691990748357 16.1596254266826 L 2.5958993174342 15.9604726963141 L 2.50447597450659 15.7389520653045 L 2.43741876233554 15.527045703125 L 2.37479176398023 15.2645172836539 L 2.35505721217106 15.2545105889423 L 2.33632950863483 15.2545105889423 L 2.32626086759871 15.2356744771634 L 2.30330433799344 15.2356744771634 L 2.26484210526314 15.2545105889423 L 2.24510755345392 15.2645172836539 L 2.21892906866776 15.3084682331732 L 2.20906179276318 15.3622296534455 L 2.18932724095396 15.4097123697917 L 2.15489244654606 15.4885886278044 L 2.04313043379932 15.6822474839744 L 1.9855377672697 15.7989921895032 L 1.8945171546053 15.9002363481571 L 1.79664987870063 16.0232597576121 L 1.68992219777959 16.1596254266826 L 1.57654919613486 16.2800981009615 L 1.44364303042767 16.3968428064904 L 1.31959724712175 16.507308808093 L 1.1840732216283 16.5934448237179 L 1.03445309416117 16.6850746915063 L 0.891679629934231 16.7388361117789 L 0.72252631578948 16.7798439222757 L 0.55659495682562 16.795540693109 L 0.540283747944045 16.795540693109 L 0.517125853207233 16.795540693109 L 0.47926773848684 16.7798439222757 L 0.44986727590458 16.7160758072916 L 0.400530896381611 16.6850746915063 L 0.336494274259849 16.5330122736379 L 0.297025170641405 16.4506042267629 L 0.254334089226973 16.3332708934294 L 0.219093811677624 16.2106399098557 L 0.200164765625004 16.0899710116187 L 0.147606408305933 15.8148851622597 L 0.127871856496711 15.6530122736378 L 0.127871856496711 15.4885886278044 L 0.127871856496711 15.121872910657 L 0.147606408305933 14.7265105889423 L 0.180430213815782 14.5240222936699 L 0.219093811677624 14.3152552944711 L 0.254334089226973 14.0905953225161 L 0.316759722450684 13.8818283233173 L 0.387441642680926 13.6410791546475 L 0.45973455180922 13.4073935416667 L 0.55659495682562 13.1666443729969 L 0.647615569490142 12.9357056750802 L 0.773473684210558 12.7014314342948 L 0.891679629934231 12.4489097095353 L 1.03445309416117 12.2116923076924 L 1.20300229029607 11.955050166266 L 1.37457207648026 11.7243076923077 L 1.5535926665296 11.468254178686 L 1.70301145148028 11.2908807211538 L 1.8945171546053 11.0852530629006 L 2.09568879111845 10.8796254266828 L 2.18932724095396 10.7817168329326 L 2.30330433799344 10.670858427484 L 2.46843021381579 10.5311571935096 L 2.63778489309215 10.3892976502404 L 2.91346452302633 10.1487447055289 L 3.12208696340463 10.0004102564103 Z" transform="matrix(1 0 0 1 -203 -587 ) matrix(1 0 0 1 203 587 )"/></g></svg>