<svg xmlns="http://www.w3.org/2000/svg" xmlns:xlink="http://www.w3.org/1999/xlink" width="22" height="22" version="1.1"><g><path fill="#0079fe" fill-rule="nonzero" stroke="none" d="M 21.6626504101562 10.9999631662327 C 21.6626504101562 5.11113071180552 16.8888219509549 0.337278404947881 10.9999656488715 0.337278404947881 C 5.11113319444445 0.337278404947881 0.337280887586815 5.11110686414929 0.337280887586815 10.9999631662327 C 0.337280887586815 16.8888194683159 5.11113319444445 21.6626479275173 10.9999656488715 21.6626479275173 C 16.8887981032986 21.6626479275173 21.6626504101562 16.8887956206597 21.6626504101562 10.9999631662327 Z M 12.163224266493 13.7312580338541 L 9.59270970052086 16.3017010568576 C 8.51918059895831 17.3752110611978 6.77246297960073 17.3752110611978 5.69820868489586 16.3009329188368 C 4.62467958333332 15.227427688802 4.62467958333332 13.4806861979167 5.69820868489586 12.4072000412327 L 8.45680840277777 9.64860509765634 C 9.53033750434031 8.57509509331595 11.2770551236979 8.57509509331595 12.3513094184028 9.64937323567716 C 12.380350922309 9.67841473958327 12.4083093988715 9.70811941840276 12.435752608507 9.73812468749992 C 12.451831108941 9.75140735460064 12.467442061632 9.7655058550348 12.4824947786458 9.78053949869798 C 12.5258876779514 9.82393239800342 12.5617565820313 9.87189118055551 12.5905261414931 9.92281759982649 C 12.5940042469618 9.9273596592883 12.5976922786458 9.93179675564244 12.6011226888021 9.93633404079861 C 12.6004595138889 9.93695427083333 12.5997820160591 9.93759359809025 12.5991188411459 9.93818998046879 C 12.7312202473959 10.1874307161459 12.6923694075521 10.5034950672744 12.4824947786458 10.7133506228299 C 12.2710647764757 10.9247806249999 11.9518419835069 10.9625484136284 11.7017472200521 10.8268591644966 C 11.6844091384548 10.8451562131076 11.5114912391493 10.6728967144097 11.4196051692709 10.581034516059 L 11.41883703125 10.5802902256944 C 10.8581789670138 10.0196321614583 9.95364595920137 10.0151521202257 9.3929401996528 10.5758149587674 L 6.62992723307292 13.3389090407986 C 6.0692691688368 13.8995671050346 6.0692691688368 14.8085992274306 6.62992723307292 15.3692620659721 L 6.63069537109374 15.3700302039932 C 7.19135343532986 15.9306882682292 8.10038555772564 15.9306882682292 8.66104839626735 15.3700302039932 L 10.3244297482639 13.7066488519965 C 10.9018295117187 13.9901124782987 11.5806860850695 13.9991298046875 12.163224266493 13.7312580338541 Z M 16.3017560329861 5.69897438802093 C 17.3752278667534 6.77246527126744 17.3752278667534 8.51922583550356 16.3017178385417 9.5927119921875 L 13.5431658159722 12.3512878624131 C 12.4696367144097 13.4247930924479 10.7229190950521 13.4247930924479 9.64866480034721 12.3505197243923 C 9.61964236979162 12.3214734461806 9.59166481987842 12.2917687673611 9.56424070746527 12.2617682725696 C 9.54816220703128 12.2484856054688 9.53255125434032 12.2344109526911 9.51749853732639 12.2193534613715 C 9.47410563802089 12.1759605620661 9.43823673394093 12.128001779514 9.40946717447918 12.077075360243 C 9.40598906901039 12.0725333007812 9.40230103732637 12.0681009787327 9.39884677951386 12.0635350716146 C 9.39950518012154 12.0629148415799 9.40018745225689 12.062275514323 9.40085062717009 12.0616791319445 C 9.26874444661456 11.8124383962673 9.30760006076389 11.4963692708334 9.51747468967011 11.2865184895834 C 9.72890469184023 11.0750884874132 10.0481322591146 11.0373206987848 10.2982222482639 11.1730099479167 C 10.3155603298611 11.1547128993055 10.4884782291667 11.3269723980035 10.5803642990452 11.4188345963543 L 10.581132437066 11.4196027343751 C 11.1417905013021 11.9802607986111 12.0463235091146 11.9847408398438 12.6070245182291 11.4240827756078 L 15.3700756553819 8.66103163845492 C 15.9307337196181 8.10037357421879 15.9307337196181 7.19134145182284 15.3700756553819 6.6306786132813 L 15.3693075173611 6.62991047526032 C 14.808649453125 6.06925241102425 13.8996173307291 6.06925241102425 13.3389544921875 6.62991047526032 L 11.675573140191 8.29329182725701 C 11.1000293402778 8.01168414062499 10.4193168033854 8.00080610026032 9.8367786219618 8.26868264539934 L 12.4072550173611 5.69820624999994 C 13.4807841189236 4.62469624565972 15.2275017382813 4.62469624565972 16.3017560329861 5.69897438802093 Z" transform="matrix(1 0 0 1 -296 -638 ) matrix(1 0 0 1 296 638 )"/></g></svg>