<svg xmlns="http://www.w3.org/2000/svg" xmlns:xlink="http://www.w3.org/1999/xlink" width="22" height="22" version="1.1"><g><path fill="#0079fe" fill-rule="nonzero" stroke="none" d="M 16.7349094878472 19.8129936783854 C 19.6316166644966 17.9149960763889 21.5450770963542 14.6402185894097 21.5450770963542 10.9184353103299 C 21.5450770963542 5.04978315321188 16.7876004427084 0.292306499565967 10.9189482855903 0.292306499565967 C 5.05029612847221 0.292306499565967 0.292819474826388 5.04978315321188 0.292819474826388 10.9184353103299 C 0.292819474826388 15.9541943945313 3.79577780598959 20.1716682769097 8.49785200954864 21.2674053710938 C 8.96176192274305 21.411285609809 9.46070141710072 21.5328143164062 9.95192169487848 21.5928091948785 C 14.0558059201389 22.0940204947917 17.1151294769965 21.5445641210938 18.9716485329861 20.791525796441 C 18.9716485329861 20.791525796441 17.9870827430556 20.5120708203125 16.7349094878472 19.8129936783854 Z M 16.0422080729167 10.5886344704861 C 16.0422080490451 11.2553446614583 15.915744906684 11.8929368164063 15.6855853993055 12.479963250868 C 15.4903821875 13.060394173177 15.1478788541667 13.8447246093751 14.5664464019097 14.6031126388888 C 12.2858104578993 17.5778668684896 8.49013281684029 19.4470884179688 2.65636366970489 17.5200949305556 C 2.65636366970489 17.5200949305556 5.51645342664932 18.3370854600695 7.88874278862846 15.0807998849827 C 6.35103202039932 14.1555449826388 5.32496326388889 12.4898809635416 5.32496326388889 10.5886344704861 C 5.32496326388889 7.68127677300356 7.72409888020832 5.32442582031243 10.6835856684028 5.32442582031243 C 13.6430724565972 5.32442582031243 16.0422080729167 7.68130119357645 16.0422080729167 10.5886344704861 Z" transform="matrix(1 0 0 1 -293 -587 ) matrix(1 0 0 1 293 587 )"/></g></svg>