<svg xmlns="http://www.w3.org/2000/svg" xmlns:xlink="http://www.w3.org/1999/xlink" width="31" height="20" version="1.1"><g><path fill="#0079fe" fill-rule="nonzero" stroke="none" d="M 29.6591585520057 0.0763193956584018 C 29.5045106008254 0.0158205495931725 6.350277009926 -0.0101075326474529 5.98084028010464 0.0331059315055882 C 5.09591039210443 0.145460942052068 4.2195720455602 0.880089795162348 3.92745926337898 1.74435905947598 C 3.7470366691964 2.27156331089486 0.29323262492494 17.3530617941581 0.284641064835114 17.638270661316 C 0.25886640319959 18.4247556789078 0.697035576471535 19.0124587763919 1.43590907338114 19.1593845507625 C 1.71083875401655 19.2198833968278 24.8650723449159 19.2198833968278 25.1571851270973 19.1680272323467 C 25.9819741503701 19.0124587576474 26.772396970551 18.3383287506019 27.0645097527323 17.5432010326822 C 27.1761999407312 17.2320641020276 30.724511052822 1.85671407002246 30.741694154368 1.60607598543334 C 30.7846519175496 0.880089813906807 30.3636658458234 0.292386716422698 29.6591585520057 0.0763193956584018 Z M 4.42576930137852 4.9162272308281 C 4.43436086146824 4.87301376667506 5.70591059946923 4.89894184891568 5.70591059946923 4.93351261274029 C 5.70591059946923 4.95079799465248 5.6801359378336 5.04586762328677 5.65436127619796 5.13229455159239 C 5.28492452774321 6.39412765612201 4.92407932074457 8.07945270185178 4.96703710255963 8.29552002261607 C 5.10450193356053 8.92643658425277 6.00661494174039 8.87458041977175 6.33309392701358 8.2177357758942 C 6.43619255492263 8.04488191928249 7.12351674719446 5.10636645060754 7.12351672856096 4.89894184891568 C 7.12351672856096 4.89029914858725 8.20605233092328 4.90758454924412 8.21464389101288 4.9162272308281 C 8.21464389101288 4.9162272308281 8.20605233092328 4.95944069498091 8.19746078946696 5.01129684071748 C 8.18886922937736 5.05451030487075 8.00844663519467 5.74592571257267 7.81084092083279 6.53241073016443 C 7.38126330765044 8.24366385813482 7.32112244292296 8.4165176960023 7.09774208555882 8.74494002731308 C 6.3588685886491 9.84256197555874 3.90168460174334 9.80799121173436 3.70407890601484 8.69308386283183 C 3.66112114283317 8.4424457782427 4.18520584246846 5.66814146585079 4.42576930137852 4.9162272308281 Z M 20.758310330098 4.89029914858725 C 21.6776064398235 4.89894184891568 21.9439445603693 4.90758453049943 22.0814093913702 4.93351261274029 C 22.82028288828 5.09772376902356 23.0436632642775 5.69406954809119 22.7000011588249 6.57562419431724 C 22.3563390720057 7.45717884054307 21.6432402180982 7.85474269950328 20.3802820215534 7.85474269950328 C 20.0022537130089 7.85474269950328 20.0280283746446 7.79424385343782 19.7788733556448 8.99557811190198 C 19.7359155924632 9.22028811425048 19.6843662878254 9.43635543501478 19.6843662691919 9.4622835172554 C 19.6671831676459 9.54006774523327 18.5330982606459 9.54006774523327 18.5416898207357 9.4622835172554 C 19.5039436936429 5.31379108978808 19.5812676599163 4.95944069498091 19.5898592013725 4.93351261274029 L 19.5984507614622 4.8816564670035 L 20.758310330098 4.89029914858725 Z M 11.3591520515571 7.18925537404198 C 11.0584477279195 6.86947574305941 11.6770394953742 6.39412765612201 12.2011241763759 6.53241073016443 C 12.3557721275562 6.57562419431724 12.4760538570113 6.6966218864477 12.4760538570113 6.80897689699395 C 12.4760538570113 7.20654075595394 11.6598563751947 7.48310692278392 11.3591520515571 7.18925537404198 Z M 9.17689774528662 6.77440613316935 C 9.33154569646706 6.73983536934497 9.36591189955891 6.74847805092895 9.36591189955891 6.83490497923458 C 9.36591189955891 6.87811844338739 9.35732033946931 6.93861728945262 9.34872879801299 6.97318805327745 L 9.33154569646706 7.04232959967089 L 9.52055985073935 6.94725997103683 C 10.0274614488286 6.68797918611949 10.5257714681946 6.73119265027231 10.6890109608313 7.05961498158308 C 10.7921095887403 7.24975422010721 10.7749264871944 7.37075191223744 10.5171799081049 8.56344348911739 C 10.4742221449234 8.77951080988191 10.4140812801959 9.06471965829564 10.3883066371938 9.20300273233829 C 10.3281657724662 9.53142504490484 10.3711235356478 9.50549696266421 9.80408107283097 9.51413966299265 C 9.31436259492114 9.52278236332086 9.31436259492114 9.52278236332086 9.32295413637735 9.47092619883961 C 9.32295413637735 9.44499811659898 9.38309500110483 9.17707465009767 9.45182742592215 8.88322310135572 C 9.70957400501152 7.73374498862859 9.71816554646784 7.56953383234531 9.49478518910371 7.56953383234531 C 9.36591189955891 7.56953383234531 9.19408086546605 7.64731806032273 9.17689774528662 7.69917422480398 C 9.1511230836511 7.81152923535046 8.85901030146965 9.21164541392227 8.83323565846752 9.34992850670915 L 8.80746099683188 9.49685428108023 L 8.30915095883233 9.51413966299265 C 7.69915073283391 9.53142504490484 7.74210849601559 9.58328120938609 7.87957334564999 9.02150619414283 C 8.05140439837635 8.31280540452849 8.1545030262854 7.81152923535046 8.22323543246921 7.37075191223744 C 8.30055939874262 6.8867611249716 8.24901009410485 6.93861728945262 8.70436236892283 6.86083304273097 C 8.91055962474104 6.82626227890614 9.12534844064885 6.79169149633731 9.17689774528662 6.77440613316935 Z M 16.7202807214637 6.78304881475333 C 16.9264779772819 6.73983535060052 16.9694357404635 6.74847805092895 16.9694357404635 6.82626227890614 C 16.9694357404635 6.86083304273097 16.9608441803738 6.9213318887962 16.9522526202841 6.96454537169325 L 16.9350695187381 7.04232959967089 L 17.1240836730104 6.94725997103683 C 18.1207037490095 6.42869841994639 18.5073235990102 6.852190361147 18.215210816829 8.16587963015741 C 18.1464783920117 8.45973117889935 18.0605628656484 8.87458041977175 18.0261966811901 9.07336233987962 C 17.9918304780982 9.2721442599875 17.9488727149167 9.45364081692742 17.9316895947372 9.47092619883961 C 17.8715487300097 9.53142504490484 16.9264779772819 9.52278236332086 16.9350695187381 9.4622835172554 C 16.9350695187381 9.43635543501478 16.9952103834656 9.17707466884212 17.0639428082828 8.88322310135572 C 17.3302809288286 7.70781690638773 17.3388724889184 7.56089115076111 17.0983090113748 7.55224845043267 C 16.9092948571024 7.55224845043267 16.8061962291933 7.61274729649813 16.7718300261016 7.75967307086921 C 16.7288722629199 7.93252692748069 16.4883088040099 9.09929042212025 16.4453510408283 9.31535774288454 L 16.4109848377364 9.48821158075202 L 15.9126747997368 9.50549696266421 C 15.3026745737385 9.5227823445764 15.3542238970098 9.5832811906414 15.4916887280108 8.98693541157377 C 15.6463366791911 8.34737616835287 15.7666184086462 7.7423876889568 15.83535081483 7.301610365844 C 15.8954916795574 6.8867611249716 15.8525339163759 6.92997458912464 16.2477453450998 6.86947574305941 C 16.4281679392824 6.84354766081879 16.6429567551902 6.80033419666574 16.7202807214637 6.78304881475333 Z M 26.3600024589146 6.80897689699395 C 26.6435236810062 6.77440613316935 26.6778899027315 6.76576343284091 26.6950730042776 6.79169151508154 C 26.755213869005 7.77695847152563 26.772396970551 8.07081002026757 26.7809885306406 8.07945270185178 C 26.7895800907304 8.08809540217999 26.9270449217313 7.83745731759086 27.0902844143679 7.51767768660829 C 27.4167633996411 6.86947574305941 27.3480309934574 6.93861728945262 27.7002846217329 6.8867611249716 C 27.7947916895522 6.86947574305941 27.9838058438245 6.83490496049035 28.1298622349152 6.80897689699395 C 28.482115881824 6.73983535060052 28.482115881824 6.71390728710435 28.0783129302773 7.41396537639025 C 27.52845358764 8.36466155026505 26.772396970551 9.70427890151632 26.5060588500052 10.1882696887822 C 25.6898613681886 11.6920981963167 25.6984529282784 11.683455495988 24.9939456344606 11.692098177572 L 24.5815511228242 11.7007408779004 L 24.6159173259161 11.57974318577 C 24.6331004274621 11.519244339705 24.6760581906436 11.3809612656623 24.7018328522793 11.2858916370283 L 24.7533821755505 11.1130377804168 L 24.8822554464618 11.1130377804168 C 25.0283118375525 11.1130377804168 25.0540864991882 11.0871096981759 25.1915513301892 10.8537570142437 C 25.2431006534605 10.775972786266 25.3118330596442 10.6463323938074 25.3547908228257 10.5685481470855 C 25.3977485860073 10.4907639191081 25.5523965185542 10.222840452607 25.6984529282784 9.97220236801786 L 25.9561994887343 9.51413966299265 L 25.8874670825506 8.91779388392479 C 25.8101431162772 8.21773579463888 25.7070444883681 7.41396537639025 25.6640867251865 7.15468459147269 C 25.6297205220947 6.92997458912464 25.6297205220947 6.93861727070816 25.9132417255529 6.89540382529981 C 26.0421150150976 6.87811844338739 26.239720710826 6.83490497923458 26.3600024589146 6.80897689699395 Z M 12.5533778232848 8.64987041742302 C 12.544786263195 7.41396537639025 13.4640823729206 6.61019497688631 14.6239419415564 6.82626227890614 C 15.8611254764655 7.05097228125487 15.4229563031936 9.22028811425048 14.0826741403753 9.51413966299265 C 13.1719695907393 9.72156428342851 12.5533778232848 9.36721388862134 12.5533778232848 8.64987041742302 Z M 22.2618319855528 9.2462161964911 C 21.6518317595545 8.35601886868153 22.923381516189 6.44598382060303 23.8426776259146 6.87811844338739 C 23.9114100507319 6.90404652562825 23.997325577095 6.97318805327745 24.0402833216432 7.02504421775848 C 24.1176072879166 7.11147114606433 24.1176072879166 7.11147114606433 24.1261988480063 7.05961498158308 C 24.134790408096 6.99911613551785 24.1261988480063 6.99911613551785 24.7705652770965 6.89540382529981 C 25.2860584166419 6.80897689699395 25.2688753150961 6.80897689699395 25.2259175519144 6.96454537169325 C 25.0111287360065 7.87202808141546 24.8392977019138 8.65851311775145 24.7705652770965 9.03879157605502 C 24.6674666491875 9.61785197321069 24.7447906154609 9.54871044556148 24.1176072879166 9.54871042681702 L 23.5935226069149 9.54006774523327 L 23.6021141483711 9.47092619883961 C 23.6107057084608 9.40178465244617 23.5763394867355 9.37585658894977 23.5419732836436 9.42771273468679 C 23.361550689461 9.72156428342851 22.5023954444629 9.60056659129827 22.2618319855528 9.2462161964911 Z M 12.1238002101024 7.37939461256587 C 12.2440819395574 7.33618114841283 12.3214059058308 7.33618114841283 12.3385890073769 7.35346653032502 C 12.3471805674666 7.36210923065346 12.3385890073769 7.43125075830244 12.3214059058308 7.50903498627986 C 12.2011241763759 8.02759653737053 11.9605606988323 9.06471963955119 11.9261944957404 9.26350157840352 L 11.8832367325589 9.49685428108023 L 11.3591520515571 9.51413966299265 C 10.7319687240129 9.53142504490484 10.7663349457382 9.55735312714546 10.8952082166494 9.1857173504261 C 11.0154899461045 8.8227242552905 11.1185885740136 8.35601886868153 11.1873209988308 7.88067076299944 C 11.2474618635583 7.46582152212704 11.1873209988308 7.5263203681925 11.6426732736488 7.45717884054307 C 11.8574620895566 7.42260807671869 12.0722508868312 7.38803729414963 12.1238002101024 7.37939461256587 Z M 14.1599981066488 10.6463323938074 C 14.9761955884653 10.6636177757196 15.1480266225582 10.672260476048 15.1480266411916 10.680903157632 C 15.1480266411916 10.6981885395442 15.1136604380997 10.7673300859378 15.0707026562848 10.8364716323313 C 15.0277448931031 10.9142558603085 14.9933786900112 10.9747547063739 14.9933786900112 10.9833973879579 C 15.9384494427391 11.0006827698703 15.9728156644644 11.0006827698703 15.9642241043747 11.0438962527674 L 15.7923930702818 11.6143139495948 L 14.4177446857383 11.6143139495948 L 14.3404207194648 11.683455495988 C 14.1685896667384 11.8476666522715 13.2321104741003 12.0550912727078 13.2321104554668 11.9254508802489 L 13.4039415081933 11.3377477827648 L 13.532814797738 11.3377477827648 C 13.7476036136459 11.3377477827648 13.8077444783734 11.294534318612 13.9967586140122 10.9488266241333 L 14.1599981066488 10.6463323938074 Z M 16.4109848377364 10.6549750753913 C 16.4281679392823 10.6463323750629 17.2529569625551 10.6549750753913 17.2529569625551 10.6895458579604 C 17.2529569625551 10.7068312398726 17.2271823009195 10.7932581681785 17.2014076392838 10.8796850777399 C 17.1756329776482 10.9661120060457 17.1498583160126 11.0438962340234 17.149858334646 11.0525389343516 C 17.149858334646 11.0611816346798 17.2271823009195 11.0093254701985 17.3302809288286 10.9488266241333 C 17.6825345757375 10.7154739214566 17.983238899375 10.6549750753913 18.8853519075548 10.6549750753913 C 19.2461971145534 10.6549750753913 19.546901438191 10.6636177757196 19.5554929982807 10.6636177757196 C 19.5812676599163 10.6895458579604 19.0399998587351 12.4353697497552 18.9626758738282 12.5909382057105 C 18.8595772459191 12.7983628261466 18.7478870579203 12.9193605182768 18.5674644637378 12.9971447649987 L 18.4128165311909 13.0662862926479 L 17.4935204214652 13.0749289929761 L 16.574224330373 13.0835716933045 L 16.4109848377364 13.6280613078911 C 16.0930973939194 14.665184410072 16.0845058524632 14.5960428824228 16.5570412288271 14.55282941827 C 16.9350695373716 14.5182586544454 16.9092948757359 14.4836878718766 16.7890131276475 14.8726090492526 L 16.6945060598281 15.2010313618191 L 16.2219706834642 15.2096740434029 C 15.2081675059191 15.226959425315 15.0792942163744 15.1664605792503 15.1909844043732 14.7343259564655 C 15.2425337276444 14.5269013360291 16.3938017361904 10.6895458392157 16.4109848377364 10.6549750753913 Z M 21.0074653490977 10.6636177757196 C 21.2566203680975 10.6636177757196 21.454226063826 10.672260476048 21.454226063826 10.680903157632 C 21.454226063826 10.6895458579604 21.43704296228 10.7500447040254 21.4198598607341 10.8105435500906 C 21.3683105374628 10.9661120247902 21.3683105374628 10.9661120247902 21.574507793281 10.8623996958274 C 21.8494374739164 10.724116621785 22.485212342917 10.6636177757196 23.7997198627331 10.6636177757196 L 24.2207059158256 10.6636177757196 L 24.2207059158256 10.8537570142437 C 24.2207059158256 11.0784670165922 24.2292974759154 11.0957523985044 24.4354947317336 11.121680480745 L 24.5815511228242 11.1389658626572 L 24.4956355964611 11.4241747110709 L 24.4097200700979 11.7180262598129 L 24.1261988480063 11.7266689601413 C 23.3959168925529 11.7439543420535 23.2670436216416 11.6661701140761 23.2670436030082 11.234035472547 L 23.2670436030082 11.0266108521109 L 23.2154942983703 11.1821793268102 L 23.1639449750991 11.3377477827648 L 23.0092970425521 11.3377477827648 C 22.923381516189 11.3377477827648 22.8460575499155 11.3463904830933 22.8460575499155 11.3463904830933 C 22.8460575499155 11.3550331834217 22.0642262898243 13.9651263207859 21.9525361018256 14.3367620975055 C 21.9439445417358 14.3713328613298 21.9525361018256 14.3799755616583 22.0470431696449 14.3799755616583 C 22.1845080006459 14.3799755616583 22.1930995607356 14.3886182619867 22.1501417975541 14.5096159541172 C 22.0985924742828 14.6565417284878 22.0985924742828 14.6565417284878 22.2704235456425 14.6565417284878 C 22.3821137336413 14.6565417284878 22.4508461398251 14.6392563465758 22.5281701060985 14.5960428824228 C 22.6398602940973 14.5355440363578 22.6312687340077 14.55282941827 23.1467618735531 13.818200546415 L 23.361550689461 13.5157063160891 L 22.9319730762787 13.5157063160891 C 22.4078883766435 13.5157063160891 22.4508461398251 13.5416343983297 22.5453532076446 13.2218547673472 L 22.622677173918 12.9625739824298 L 23.1467618735531 12.9539313008459 L 23.6708465731883 12.9452886005174 C 23.7739452010974 12.6082235876227 23.7997198627331 12.5045112774044 23.7997198627331 12.4958685958204 C 23.7997198627331 12.4872258954922 23.5677479452792 12.4785832139085 23.2928182646438 12.4699405135798 L 22.785916685188 12.4612978132516 L 22.8718321929177 12.1674462832541 L 22.9577477192809 11.8822374160959 L 24.392536968552 11.8822374160959 C 25.1829597887329 11.8822374160959 25.8273262178232 11.8908801164243 25.8273262178232 11.8995227980083 C 25.8273262178232 11.9081654795923 25.7929600147313 12.037805872051 25.7500022329161 12.1933743467503 L 25.6726782666427 12.4612978132516 L 25.1829597887329 12.4699405135798 L 24.7018328522793 12.4785832139085 C 24.6159173259161 12.7292212984971 24.5901426642805 12.824290908387 24.5729595627346 12.8675043725402 L 24.5557764611887 12.9366459189334 L 25.0197202960964 12.9366459189334 C 25.5609880972775 12.9366459189334 25.5266218941856 12.910717836693 25.4321148077327 13.2304974676754 L 25.3547908228257 13.4897782338485 L 24.8307061418241 13.4984209341767 L 24.2980299007327 13.5070636157609 L 24.2207059158256 13.6021332443947 L 24.1433819495522 13.6972028542848 L 24.3495792053704 13.705845554613 L 24.5557764611887 13.714488236197 L 24.6159173259161 14.103409413573 C 24.6846497507333 14.544186736686 24.6846497507333 14.5355440363578 24.8908470065516 14.5355440363578 C 25.0540864991882 14.5355440363578 25.0540864991882 14.500973272533 24.9423963111893 14.8812517308363 L 24.84788924337 15.1923886614907 L 24.5471849010988 15.1923886614907 C 24.0145086600074 15.1923886614907 23.9200015735546 15.1059617331848 23.834086065825 14.5701148001822 L 23.7825367425537 14.2071217237913 L 23.5935226069149 14.4750451902923 C 23.0694379072796 15.2010313618191 23.0350717041878 15.2183167437315 22.3563390533723 15.2183167437315 C 21.9267614401899 15.2183167437315 21.9267614401899 15.2183167437315 21.9783107634612 15.0886763512726 C 22.0040854250968 15.0281775052074 22.0040854250968 15.0281775052074 21.8752121355521 15.0281775052074 C 21.7463388460073 15.0281775052074 21.7463388460073 15.0281775052074 21.7205641843717 15.1232471338412 L 21.6947895227361 15.2183167437315 L 21.2480288080078 15.2269594440595 L 20.801268074646 15.2356021256435 L 20.8184511948255 15.1837459799069 C 20.861408958007 15.0281775052074 20.9473244843703 15.0368202055356 19.9592959498273 15.0368202055356 C 19.1173238250086 15.0368202055356 19.0657745017373 15.0368202055356 19.0743660618271 14.9936067413828 L 19.1602815881902 14.7083978929693 C 19.2547886560095 14.4145463442273 19.2461971145534 14.4231890445556 19.3407041823727 14.4231890258111 C 19.4180281486462 14.4231890258111 19.4266197087359 14.4145463254827 19.4609859118277 14.3021913336809 C 20.2256340703731 11.7698824242941 20.4576059878268 10.9747547063739 20.4919721909188 10.8623996958274 L 20.5521130742796 10.6636177757196 L 21.0074653490977 10.6636177757196 Z M 13.3609837450116 12.0464485723794 C 13.3781668465575 12.0205204901388 15.7923930702818 12.029163190467 15.7752099501024 12.0637339730363 L 15.6033789160097 12.6255089882793 L 14.6325335016461 12.6255089882793 C 14.5380264338268 12.9366459189334 14.5036602121013 13.0490009294799 14.4950686520117 13.0749289929761 C 14.4864770919219 13.1181424571289 14.5208433136473 13.1181424571289 14.9676040283755 13.1181424571289 C 15.242533709011 13.1181424571289 15.4573225062854 13.1267851574573 15.4573225249189 13.1440705393697 C 15.4573225249189 13.1527132396982 15.4487309648291 13.195926703851 15.4315478632833 13.2391401492594 C 15.4229563031936 13.2823536134122 15.3799985400119 13.4033513055426 15.3456323369201 13.5243489976731 L 15.2854914721926 13.7404163184376 L 14.2974629562832 13.7404163184376 L 14.1857727682844 14.1206947954854 C 14.0225332756477 14.6651844288162 14.0397163771937 14.6824698107287 14.649716603192 14.5960428824228 C 14.9074631822815 14.5614721185982 14.8902800621021 14.5355440363578 14.7785898927368 14.9071798130769 L 14.684082806284 15.2269594440595 L 14.0139417155581 15.2269594440595 C 12.9657723349212 15.2269594440595 12.9485892147418 15.2010313618191 13.2235189140106 14.2849059517685 C 13.3094344403738 13.9996971033549 13.378166865191 13.75770170035 13.3781668465575 13.749059018766 C 13.3781668465575 13.7404163184376 13.2578851171025 13.7404163184376 13.1118287260118 13.7404163184376 C 12.9657723349212 13.7404163184376 12.8454906054661 13.7317736181092 12.8454906054661 13.7231309365254 C 12.9657723349212 13.3169243959812 13.0001385566464 13.1872840035226 13.0087300981027 13.1613559212817 C 13.0173216581925 13.1267851574573 13.0516878612843 13.1181424571289 13.300842880284 13.1181424571289 L 13.5757725609195 13.1181424571289 L 13.7132373919205 12.6255089882793 L 13.4554908128309 12.6255089882793 C 13.2578851171025 12.6255089882793 13.1977442337414 12.6168662879509 13.1977442523749 12.5909382057105 C 13.1977442523749 12.5563674418859 13.3438006434657 12.0810193362038 13.3609837450116 12.0464485723794 Z M 18.5674644637378 13.1872840035226 C 18.8681687873753 13.195926703851 18.893943449011 13.195926703851 18.8767603474651 13.2391401492594 C 18.8681687873753 13.2650682314998 18.8509856858294 13.3601378413898 18.8252110428273 13.4552074700239 C 18.7307039750079 13.9046274747209 18.6018306854631 14.0083397849389 18.0777459858278 14.0342678671793 C 17.8973233916454 14.042910567508 17.742675440465 14.0601959494202 17.7340838990087 14.0688386310042 C 17.6911261358272 14.112052095157 17.6997176959169 14.5009732537887 17.742675440465 14.5614721185982 L 17.7856332036466 14.6219709646634 L 18.1035206474636 14.6046855640068 C 18.2753517001898 14.5960428636783 18.4214080912806 14.5874001820946 18.4214080912806 14.5960428824228 C 18.4214080912806 14.6219709646634 18.2495770385542 15.1923886614907 18.2323939370083 15.2096740434029 C 18.2066192753726 15.2528875075559 17.2185907594633 15.2183167437315 17.0897174699185 15.1751032795785 C 16.8921117741901 15.1059617331848 16.8921117741901 15.1318898154254 16.9178864171922 14.1206947954854 L 16.9436610788279 13.2304974676754 L 17.3560555904643 13.2218547673472 L 17.7684501021007 13.2132120670187 L 17.7684501021007 13.5589197802417 L 17.9316895947372 13.5589197802417 C 18.1121121889198 13.5589197802417 18.1292952904657 13.5416343983297 18.1980277152829 13.3169243772365 L 18.2409854784645 13.1872840035226 L 18.5674644637378 13.1872840035226 Z M 20.6036623789175 5.59035725661761 C 20.5692961758257 5.57307187470542 20.5521130556463 5.62492802044244 20.3888735630096 6.34227149164053 L 20.2170425289168 7.11147112731987 L 20.4576059878268 7.12011382764831 C 21.6861979812799 7.15468459147269 22.2016911208253 5.71999763033205 20.998873789008 5.62492802044244 C 20.8098596347357 5.60764263853002 20.6380285820095 5.59035725661761 20.6036623789175 5.59035725661761 Z M 14.2029558698304 8.41651771474653 C 14.4349277872841 7.6559607793954 14.3576038210107 7.29296768426002 14.0053501741019 7.43989345863088 C 13.6960542903745 7.56953385108955 13.4125330682829 8.72765464540089 13.6530965271929 8.90915118359635 C 13.8249275799193 9.04743425763877 14.0826741403753 8.81408157370652 14.2029558698304 8.41651771474653 Z M 23.9801424569156 7.85474269950328 C 23.9715508968259 7.53496306852048 23.7997198627331 7.39667999447784 23.5591563851896 7.51767768660829 C 23.2412689413725 7.68188884289157 22.9921139223727 8.8227242552905 23.2498605014622 8.95236464774916 C 23.5763394867355 9.12521850436087 23.9801424569156 8.51158732463637 23.9801424569156 7.85474269950328 Z M 18.4729573959185 11.3377477827648 C 18.4729573959185 11.3118197005244 17.1069005714645 11.3118197005244 17.0897174699185 11.3550331834217 L 17.0038019435553 11.6402420318352 C 16.9608441803738 11.7785251058781 16.9178864171922 11.9081654983368 16.9092948757359 11.9254508802489 C 16.9007033156463 11.9427362621614 16.9866188420094 11.9081654983368 17.0983090113748 11.8476666522715 C 17.4076048951021 11.683455495988 17.5192950831008 11.6575274137476 17.9832389180085 11.6402420318352 L 18.3956334296449 11.6229566499228 C 18.4557742943724 11.4241747298151 18.4729573959185 11.3550331834217 18.4729573959185 11.3377477827648 Z M 18.1980277152829 12.2625158931439 C 17.1240836730104 12.2625158931439 16.8061962291933 12.2625158931439 16.8061962478268 12.2798012750561 L 16.7374638230096 12.530439359645 L 18.1121121889198 12.5217966780613 L 18.1980277152829 12.2625158931439 Z M 21.2738034696434 11.3291051011811 L 21.1621132816446 11.692098177572 C 21.1019724169171 11.8908800976801 21.0590146537355 12.0637339542916 21.0676062138252 12.0637339730363 C 21.0761977739149 12.0637339730363 21.1621132816446 12.0291632092112 21.2652119095537 11.9945924266426 C 21.3683105374628 11.9513789624898 21.5315500300994 11.9081654983368 21.6346486580086 11.8995227980083 C 21.7377472859176 11.8822374160959 21.815071252191 11.8649520341839 21.8236628122809 11.8649520341839 C 21.8322543723705 11.8563093338555 21.9783107634612 11.3636758650057 21.9783107634612 11.3463904830933 C 21.9783107634612 11.3377477827648 21.8236628122809 11.3291051011811 21.6260571165523 11.3291051011811 L 21.2738034696434 11.3291051011811 Z M 21.2823950110997 12.5045112774044 C 21.0761977552814 12.5045112774044 20.9129582626449 12.5131539777328 20.9129582626449 12.5217966780613 C 20.9043667025551 12.5304393783895 20.8528173979173 12.7032932162567 20.801268074646 12.9020751363646 C 20.7411272099185 13.1008570564723 20.6895778866472 13.2650682314998 20.6895779052808 13.273710913084 C 20.6809863451911 13.2823536134122 20.7669018715542 13.2477828308433 20.8785920595531 13.2045693854348 C 20.9902822475517 13.1613559212817 21.1535217401885 13.1008570752167 21.256620349464 13.0835716933045 C 21.4714091653719 13.0490009294799 21.4800007068282 13.0403582291517 21.4971838270076 12.9539313008459 C 21.5057753870973 12.910717836693 21.5401415901891 12.7983628261466 21.574507793281 12.6946505159285 L 21.6346486580086 12.5045112774044 L 21.2823950110997 12.5045112774044 Z M 20.5521130742798 13.705845554613 L 20.3545073599178 14.3799755616583 L 21.0504230936458 14.3972609435707 C 21.1964794847365 13.9132701563046 21.2394372479181 13.75770170035 21.2480288080078 13.7404163184376 L 20.5521130742798 13.705845554613 Z" transform="matrix(1 0 0 1 -203 -639 ) matrix(1 0 0 1 203 639 )"/></g></svg>