<svg xmlns="http://www.w3.org/2000/svg" xmlns:xlink="http://www.w3.org/1999/xlink" width="29" height="22" version="1.1"><g><path fill="#0079fe" fill-rule="nonzero" stroke="none" d="M 23.2916666666666 22 C 26.2601971970072 21.8749999999999 28.6666666666666 19.440548327205 28.6666666666666 16.4375000000001 L 28.6666666666666 5.56249999999994 C 28.6666666666666 2.55945167279503 26.2601971970072 0.125000000000057 23.2916666666666 0 L 5.375 0 C 2.40646946965956 0.125000000000057 0 2.55945167279503 0 5.56249999999994 L 0 16.4375000000001 C 0 19.440548327205 2.40646946965956 21.8749999999999 5.375 22 L 23.2916666666666 22 Z M 1.33333333333337 16.4375000000001 L 1.33333333333337 5.56249999999994 C 1.79166666666663 3.5633125 3.39879166666663 1.93749999999994 5.375 2 L 23.2916666666666 2 C 25.2696666666666 1.93749999999994 26.875 3.5633125 27 5.56249999999994 L 27 16.4375000000001 C 26.875 18.4395322181366 25.270687020227 20.0625000000001 23.2916666666666 20 L 5.375 20 C 3.39879166666663 20.0625000000001 1.79166666666663 18.4385 1.33333333333337 16.4375000000001 Z M 11.7650208333333 14.4266666666666 L 4.21233333333339 14.4266666666666 C 3.79545833333339 14.4266666666666 3.45652083333334 14.8636 3.45652083333334 15.3933333333333 C 3.45652083333334 15.925 3.79545833333339 16.36 4.21233333333339 16.36 L 11.7650208333333 16.36 C 12.1818958333333 16.36 12.5208333333334 15.7316666666667 12.5208333333334 15.2 C 12.5208333333334 14.6683333333332 12.1818958333333 14.4266666666666 11.7650208333333 14.4266666666666 Z M 13.4270833333334 10.3666666666667 L 4.36458333333337 10.3666666666667 C 3.86407527879919 10.3666666666667 3.45833333333337 10.7994580751636 3.45833333333337 11.3333333333333 C 3.45833333333337 11.8672085915031 3.86407527879919 12.3 4.36458333333337 12.3 L 13.4270833333334 12.3 C 13.9275913878674 12.3 14.3333333333333 11.8672085915031 14.3333333333333 11.3333333333333 C 14.3333333333333 10.7994580751636 13.9275913878674 10.3666666666667 13.4270833333334 10.3666666666667 Z M 1.64583333333337 8.25353333333334 L 27.0208333333333 8.25353333333334 L 27.0208333333333 6 L 1.64583333333337 6 L 1.64583333333337 8.25353333333334 Z M 22.4895833333333 10.3666666666667 L 18.8645833333333 10.3666666666667 C 18.3640752787992 10.3666666666667 17.9583333333333 10.7994580751636 17.9583333333333 11.3333333333333 C 17.9583333333333 11.8672085915031 18.3640752787992 12.3 18.8645833333333 12.3 L 22.4895833333333 12.3 C 22.9900913878674 12.3 23.3958333333333 11.8672085915031 23.3958333333333 11.3333333333333 C 23.3958333333333 10.7994580751636 22.9900913878674 10.3666666666667 22.4895833333333 10.3666666666667 Z" transform="matrix(1 0 0 1 -24 -638 ) matrix(1 0 0 1 24 638 )"/></g></svg>