<svg xmlns="http://www.w3.org/2000/svg" xmlns:xlink="http://www.w3.org/1999/xlink" width="22" height="23" version="1.1"><g><path fill="#0079fe" fill-rule="nonzero" stroke="none" d="M 17.583134765625 2.71562499999993 C 19.992392578125 3.06367187500007 20.953388671875 4.83613281250007 21 6.96953124999993 L 21 18.5560546875 C 20.953388671875 19.0201171875 20.664638671875 19.340234375 20.1751171875 19.3251953125 L 18.04107421875 19.340234375 C 17.84255859375 19.340234375 17.675625 19.486328125 17.675625 19.6732421875 C 17.675625 21.1986328125 16.486787109375 21.995703125 15.128759765625 21.995703125 L 10.96572265625 21.995703125 L 10.3129998628365 21.995703125 L 6.18378906250001 21.995703125 C 4.83164062499998 21.995703125 3.64794921875 21.1986328125 3.64794921875 19.6732421875 C 3.64794921875 19.486328125 3.48173828124999 19.340234375 3.28408203125002 19.340234375 L 1.15927734374998 19.3251953125 C 0.671875 19.340234375 0.384374999999977 19.0201171875 0.384374999999977 18.5560546875 L 0.384374999999977 6.96953124999993 C 0.384374999999977 4.833984375 1.33896484374998 3.06367187500007 3.73779296875 2.71562499999993 C 5.43808593750003 2.470703125 5.86259765625005 2.32460937499997 5.86259765625005 2.32460937499997 C 5.89404296875 2.32460937499997 5.92324218750002 2.32460937499997 5.93896484375 2.3095703125 C 6.18154296874997 2.20644531249997 6.74531250000001 1.63925781249995 7.16982421874997 1.1171875 C 7.69990234375001 0.479101562500034 8.74882812499999 0 9.59785156250001 0 L 10.32603515625 0 L 10.9634765624995 0 L 11.69759765625 0 C 12.5503125 0 13.603798828125 0.479101562500034 14.136181640625 1.1171875 C 14.5625390625 1.63925781249995 15.128759765625 2.20644531249997 15.372392578125 2.3095703125 C 15.38818359375 2.32460937499997 15.417509765625 2.32460937499997 15.449091796875 2.32460937499997 C 15.449091796875 2.32460937499997 15.87544921875 2.470703125 17.583134765625 2.71562499999993 Z M 3.66367187500003 16.203515625 L 3.66367187500003 8.90097656250003 C 3.66367187500003 8.44980468750003 4.05673828124998 8.33378906249993 4.22519531249998 8.33378906249993 C 4.39365234374998 8.33378906249993 4.80244140625001 8.41972656249993 5 8.87089843749993 L 5 19.615234375 C 4.86308593749999 20.3113281249999 5.39316406250003 20.8205078125001 6.09169921875002 20.8205078125001 L 10.3416080882288 20.8205078125001 L 10.9657226562576 20.8205078125001 L 15.218994140625 20.8205078125001 C 15.92056640625 20.8205078125001 16.45294921875 20.3113281249999 16.5 19.615234375 L 16.5 8.87089843749993 C 16.513857421875 8.41972656249993 16.924423828125 8.33378906249993 17.09361328125 8.33378906249993 C 17.260546875 8.33378906249993 17.657578125 8.44980468750003 17.875 8.90097656250003 L 17.875 16.203515625 L 18.9840234375 16.203515625 C 19.029140625 16.203515625 19.076513671875 16.246484375 19.076513671875 16.2916015625 L 19.076513671875 16.5537109375 C 19.076513671875 16.5966796875 19.031396484375 16.6417968750001 18.9840234375 16.6417968750001 L 17.657578125 16.6417968750001 L 17.657578125 17.978125 C 17.657578125 18.1671875000001 17.795185546875 18.2982421875 17.993701171875 18.2982421875 L 19.487080078125 18.2982421875 C 19.685595703125 18.2982421875 19.83673828125 18.1822265625 20 17.9931640625 L 20 7.07480468750003 C 19.820947265625 5.91249999999997 19.606640625 4.31621093749993 17.35078125 3.82207031249993 L 15.675005245184 3.52293082699015 C 15.815140710027 3.69524531505394 15.8345778321645 3.92396482884166 15.7373046875 4.11364746093759 L 13.83056640625 7.70086669921878 C 13.6318359375 8.06744384765622 13.070556640625 8.19598388671875 12.67041015625 7.95556640625006 L 10.61865234375 6.65350341796872 C 10.519525017286 6.59167399969451 10.4446901724154 6.51311726407968 10.3942027015915 6.42571528217695 C 10.348242521247 6.51243533329657 10.2810312403067 6.59016969991211 10.1934765625 6.65112304687506 L 8.38792968750005 7.95318603515622 C 8.03816406249996 8.19598388671875 7.55841796875001 8.06744384765622 7.36699218749999 7.68182373046875 L 5.68906249999998 4.09460449218756 C 5.60077306333636 3.9037348674712 5.62040241442639 3.67333826376931 5.74616265068141 3.50065958839764 L 3.95341796874999 3.82207031249993 C 1.70732421874999 4.31621093749993 1.49394531250005 5.91249999999997 1.375 7.07480468750003 L 1.375 17.9931640625 C 1.47822265624995 18.1822265625 1.62871093749999 18.2982421875 1.82636718750001 18.2982421875 L 3.32900390625002 18.2982421875 C 3.52666015624999 18.2982421875 3.66367187500003 18.1671875000001 3.66367187500003 17.978125 L 3.66367187500003 16.6417968750001 L 2.34296874999995 16.6417968750001 C 2.29580078125002 16.6417968750001 2.25087890625002 16.5966796875 2.25087890625002 16.5537109375 L 2.25087890625002 16.2916015625 C 2.25087890625002 16.246484375 2.29804687499995 16.203515625 2.34296874999995 16.203515625 L 3.66367187500003 16.203515625 Z M 10.3959198532373 5.836002021165 C 10.425349655933 5.78414417243809 10.4628878535446 5.73479313035594 10.508544921875 5.68945312500006 C 11.14501953125 5.12530517578122 12.286376953125 4.04937744140622 13.086669921875 3.14721679687491 C 13.231689453125 2.98535156249996 13.3955078125 2.80920410156243 13.54052734375 2.61639404296869 L 13.6403528821641 2.4836714592564 C 13.4211951032779 2.24942876963554 13.2292903829862 2.00749018145322 13.0826953125 1.80253906249993 C 12.7962011718749 1.46738281249986 12.04951171875 1.1171875 11.57578125 1.1171875 L 10.9634765625 1.1171875 L 10.3258870752913 1.1171875 L 9.70341796874999 1.1171875 C 9.23398437499998 1.1171875 8.48828124999994 1.46738281249986 8.20302734374997 1.80253906249993 C 8.04399225404563 2.02584898927263 7.8313994502505 2.29306958846757 7.58850438668475 2.54640202243172 L 7.62222656249998 2.59735107421866 C 7.74984375000003 2.80682373046878 7.89400390624996 2.96630859374993 8.02162109375001 3.12817382812506 C 8.723515625 4.04461669921875 9.71373046874999 5.10626220703119 10.29037109375 5.68707275390622 C 10.3335454733779 5.73320635484703 10.3686683883599 5.78336476392971 10.3959198532373 5.836002021165 Z M 14.816162109375 3.90179443359382 C 14.8671875 3.83752441406246 14.848388671875 3.73992919921868 14.794677734375 3.6756591796875 L 14.413330078125 3.29003906250003 C 14.322021484375 3.19244384765625 14.14208984375 3.19244384765625 14.05078125 3.29003906250003 C 13.56201171875 3.83752441406246 12.200439453125 5.36572265624994 11.674072265625 5.92749023437494 C 11.582763671875 6.02508544921872 11.6015625 6.15362548828125 11.711669921875 6.21789550781244 L 12.764404296875 6.92486572265619 C 12.855712890625 6.98913574218756 13.000732421875 6.95819091796878 13.054443359375 6.860595703125 L 14.816162109375 3.90179443359382 Z M 7.17792968750001 3.30432128906241 C 7.09757812500004 3.20672607421881 6.93923828124997 3.19244384765625 6.85888671875 3.30432128906241 L 6.52330078124999 3.68994140625006 C 6.47367187500004 3.73992919921868 6.47367187500004 3.83752441406246 6.50439453125 3.91607666015621 L 8.05470703125002 6.87487792968759 C 8.10197265625004 6.97247314453116 8.22958984374998 7.00341796874994 8.30994140625 6.93914794921875 L 9.23634765625002 6.232177734375 C 9.33324218750005 6.16790771484384 9.34742187499995 6.02270507812506 9.26943359375002 5.9417724609375 C 8.78968750000001 5.36334228515631 7.59150390625001 3.84942626953121 7.17792968750001 3.30432128906241 Z M 10.347412109375 9.18994140625 C 9.83571273788868 9.18994140625 9.4208984375 8.77512710586132 9.4208984375 8.263427734375 C 9.4208984375 7.75172836288868 9.83571273788868 7.3369140625 10.347412109375 7.3369140625 C 10.8591114808613 7.3369140625 11.27392578125 7.75172836288868 11.27392578125 8.263427734375 C 11.27392578125 8.77512710586132 10.8591114808613 9.18994140625 10.347412109375 9.18994140625 Z M 10.347412109375 13.2236328125 C 10.8591114808613 13.2236328125 11.27392578125 13.6384471128886 11.27392578125 14.150146484375 C 11.27392578125 14.6618458558614 10.8591114808613 15.07666015625 10.347412109375 15.07666015625 C 9.83571273788868 15.07666015625 9.4208984375 14.6618458558614 9.4208984375 14.150146484375 C 9.4208984375 13.6384471128886 9.83571273788868 13.2236328125 10.347412109375 13.2236328125 Z M 11.27392578125 17.0908203125 C 11.27392578125 17.6025196839863 10.8591114808613 18.017333984375 10.347412109375 18.017333984375 C 9.83571273788868 18.017333984375 9.4208984375 17.6025196839863 9.4208984375 17.0908203125 C 9.4208984375 16.5791209410137 9.83571273788868 16.164306640625 10.347412109375 16.164306640625 C 10.8591114808613 16.164306640625 11.27392578125 16.5791209410137 11.27392578125 17.0908203125 Z M 9.4208984375 11.206787109375 C 9.4208984375 10.6950877378887 9.83571273788868 10.2802734375 10.347412109375 10.2802734375 C 10.8591114808613 10.2802734375 11.27392578125 10.6950877378887 11.27392578125 11.206787109375 C 11.27392578125 11.7184864808613 10.8591114808613 12.13330078125 10.347412109375 12.13330078125 C 9.83571273788868 12.13330078125 9.4208984375 11.7184864808613 9.4208984375 11.206787109375 Z M 2.75 17.1875 L 1.375 17.1875 L 2.75 17.1875 Z M 19.25 17.1875 L 17.875 17.1875 L 19.25 17.1875 Z" transform="matrix(1 0 0 1 -1032 -491 ) matrix(1 0 0 1 1032 491 )"/></g></svg>