<svg xmlns="http://www.w3.org/2000/svg" xmlns:xlink="http://www.w3.org/1999/xlink" width="22" height="14" version="1.1"><g><path fill="#0079fe" fill-rule="nonzero" stroke="none" d="M 19.5052000000001 6.56396990740734 C 19.6450222222222 6.60178240740748 19.7915666666667 6.62278935185188 19.9354222222222 6.62278935185188 C 20.3898444444445 6.62278935185188 20.7958666666667 6.43932870370367 21.0808888888889 6.10321759259261 C 21.6549666666667 5.41979166666664 21.5272444444445 4.31762731481484 20.7931777777778 3.64400462962968 L 17.6606222222222 0.775856481481554 C 17.3211859960571 0.457483913219221 16.8818172473983 0.279194545224215 16.4250777777778 0.274490740740674 C 15.972 0.274490740740674 15.5659777777777 0.459351851851807 15.2809555555555 0.794062500000081 C 14.8588 1.29822916666666 14.8171222222222 2.03067129629633 15.1196222222222 2.64967592592595 L 11.9359777777778 6.24046296296297 C 11.8889718444631 6.23762347501645 11.8418960017858 6.23622240827015 11.7948111111111 6.05000000000001 L 2.95643333333334 6.05000000000001 C 1.36461111111112 6.23626157407404 0.0712555555555809 7.58350694444439 0.0712555555555809 9.24165509259265 C 0.0712555555555809 10.8998032407407 1.36461111111112 12.2470486111111 2.95643333333334 12.2470486111111 L 10.6278333333334 12.2470486111111 C 11.1848488899535 12.7729033237727 11.9063115355675 13.070028875257 12.6579444444444 13.0831250000001 C 13.3503333333333 13.0831250000001 13.9634 12.8142361111111 14.4016888888889 12.3184722222223 L 19.5052000000001 6.56396990740734 Z M 19.9354222222222 6.18024305555554 C 19.8622036724535 6.18024305555554 19.7890474184238 6.1738188074732 19.7165568925178 6.16122174143015 L 20.7434333333333 4.96328555555564 C 20.7617186606977 4.94221740664787 20.7718071917698 4.91509999755195 20.7718071917698 4.88701820589372 C 20.7718071917698 4.85317873210806 20.7571736015451 4.82104597941225 20.7317814814815 4.79912888888882 C 20.7109425176041 4.78016539599318 20.6839437476242 4.76967854866777 20.6559605090968 4.76967854866777 C 20.6230140738508 4.76967854866777 20.5916903348547 4.78420140559732 20.5701120370371 4.80948111111118 L 19.5025111111111 6.05322666666675 C 19.4842257837468 6.07429481557432 19.4741372526746 6.10141222467027 19.4787618490076 6.09691629746723 C 19.3004729604751 6.03101936209197 19.1307749188496 5.92718321227545 18.9795222222222 5.78951388888891 L 16.8910398148148 3.85559777777775 C 16.9241213848185 3.85599591873827 16.9556441407733 3.84134831740548 16.9769722222222 3.81566777777769 L 18.0445731481481 2.57192222222216 C 18.0853172427553 2.5233612987235 18.0808071888627 2.45074447494764 18.0343777777778 2.40776555555553 C 17.9864328344173 2.36595832188803 17.9142534700654 2.37124047079678 17.8727083333333 2.41959666666662 L 16.8021944444445 3.66334222222218 C 16.7756749002436 3.69549160180216 16.7687984046474 3.73786528611976 16.7804831995229 3.77522309952644 L 15.9923907407407 3.06143444444444 C 16.0229768518519 3.06143444444444 16.0579324074074 3.0466455555555 16.0812361111111 3.02150444444456 L 17.1473805555556 1.7777588888888 C 17.1852490740741 1.72747666666672 17.1823361111111 1.65353222222225 17.1342722222223 1.61212333333324 C 17.0868095529094 1.57047893279469 17.0150882842715 1.57577527263257 16.9740592592593 1.62395444444439 L 15.9050018518519 2.86769999999993 C 15.8877015673334 2.88891838126844 15.8782352335741 2.91560134794591 15.8483111111111 2.92136574074078 C 15.2903666666667 2.40879629629634 15.1787777777778 1.58532407407415 15.5995888888889 1.08535879629633 C 15.8090584906854 0.843151919545562 16.1095140463687 0.708143295668322 16.4223888888889 0.715636574074097 C 16.7652222222222 0.715636574074097 17.1040222222222 0.855682870370288 17.3782888888888 1.10636574074073 L 20.5108444444444 3.97451388888885 C 21.0714777777778 4.48708333333332 21.1817222222222 5.31195601851857 20.7595666666667 5.81192129629636 C 20.5494346447557 6.05382957800612 20.2485150206668 6.18831479608554 19.9354222222222 6.18024305555554 Z M 15.5659777777777 3.25187499999996 L 18.6971888888889 6.12142361111114 C 18.8155 6.22925925925924 18.9432222222222 6.31888888888892 19.0749777777778 6.39171296296288 L 14.0897777777778 12.0187731481481 C 13.7160222222222 12.4403124999999 13.1782444444445 12.6629861111112 12.5745888888889 12.6349768518519 C 11.9375734900604 12.6037809783457 11.3323402913869 12.3360006607687 10.8684888888889 11.8801273148148 L 10.7918555555555 11.8059027777778 L 2.95643333333334 11.8059027777778 C 1.59988888888887 11.8059027777778 0.494755555555571 10.6561226851852 0.494755555555571 9.24165509259265 C 0.494755555555571 7.82718750000004 1.59988888888887 6.67740740740746 2.95643333333334 6.72222222222223 L 11.7948111111111 6.72222222222223 C 11.8660666666667 6.67740740740746 11.9346333333333 6.68160879629625 12.0018555555556 6.68861111111119 L 12.1040333333333 6.69701388888893 L 15.3575888888889 3.02640046296301 C 15.4234666666667 3.10482638888897 15.4920333333333 3.18045138888891 15.5659777777777 3.25187499999996 Z M 18.7786398148148 5.4069522222222 L 19.8462407407408 4.16320666666664 C 19.8633143370546 4.14245868065075 19.872667799055 4.11628027689392 19.872667799055 4.08924280145476 C 19.872667799055 4.05495518814297 19.8576457053931 4.02244462929437 19.8316759259259 4.00052888888891 C 19.7842132566131 3.95888448835035 19.7124919879752 3.96418082818823 19.6714629629629 4.01236000000003 L 18.6038620370371 5.25462666666667 C 18.5634861999145 5.30357389229334 18.568642691232 5.37622092189429 18.6155138888889 5.41878333333329 C 18.636902332559 5.43758148062238 18.6644283063247 5.44760109487558 18.6927074074074 5.44688222222226 C 18.7257889774111 5.44728036318276 18.7573117333659 5.43263276184996 18.7786398148148 5.4069522222222 Z M 17.7926018518519 4.6527188888889 C 17.8259438224822 4.65237902580148 17.8576277770321 4.63790189579962 17.8799907407408 4.61278888888884 L 18.9475916666667 3.36904333333331 C 18.9864740181063 3.31908989020181 18.9800760112204 3.24697943105483 18.9330268518519 3.20488666666665 C 18.8850819084914 3.16307943299901 18.8129025441394 3.16836158190796 18.7713574074073 3.21671777777777 L 17.7052129629629 4.46046333333331 C 17.6640391722298 4.50914589120694 17.6692412885794 4.58243570731818 17.7168648148148 4.62461999999996 C 17.7380124183715 4.64284025330392 17.7648672507685 4.65280355502742 17.7926018518519 4.6527188888889 Z" transform="matrix(1 0 0 1 -1074 -495 ) matrix(1 0 0 1 1074 495 )"/></g></svg>