<svg xmlns="http://www.w3.org/2000/svg" xmlns:xlink="http://www.w3.org/1999/xlink" width="22" height="28" version="1.1"><g><path fill="#0079fe" fill-rule="nonzero" stroke="none" d="M 7.1493749926758 16.5645400121095 L 0.831249992675737 16.5645400121095 C 0.674334916271789 16.5644069402913 0.524788289009507 16.4984797482352 0.419531245117128 16.3830350096875 C 0.314474503731446 16.2671305948963 0.263583202371137 16.1126388993765 0.279374997558534 15.9575600121092 C 1.17140624755859 7.38420000484376 6.49000000000001 0.707265009687433 6.71593750244136 0.427489987890738 C 6.8631408333618 0.245091547663606 7.11041344997255 0.174803233620196 7.33265626220702 0.252185004843625 C 7.55520609752944 0.329350410695554 7.70432703915878 0.537568367392453 8 0.771435002421867 L 8 16.0141350024218 C 7.70453124267578 16.3180900145312 7.45609374511719 16.5643849903125 7.1493749926758 16.5643849903125 Z M 7 2.49488001210938 C 5.06250000244137 4.78578000484384 2.21093750732416 9.69555999757802 1.45484375244143 15.4640400096874 L 7 15.4640400096874 L 7 2.49488001210938 Z M 7.03093748779298 25.2030000096874 C 7.03093748779298 26.1852350048437 6.22421873046881 26.984415019375 5.23312498779296 26.9844149927343 C 4.24203124511718 26.9844149927343 3.43515624267576 26.1852350048437 3.43515624267576 25.2030000096874 L 3.43515624267576 16.0142899975781 C 3.43515624267576 15.7103951241824 3.68349829003876 15.4640398131984 3.98984373046869 15.4640398131984 C 4.29712669531284 15.4640398131984 4.54546874267584 15.7103951241824 4.54546874267584 16.0142898010889 L 4.54546874267578 25.2030000096874 C 4.55344303656568 25.5740781583553 4.85896930004532 25.8707680850441 5.23312500122069 25.8707680850441 C 5.60728070239611 25.8707680850441 5.91280696587569 25.5740781583553 5.92078125976565 25.2030000096874 L 5.92078125976565 16.0142899975781 C 5.92078125976565 15.7103951241824 6.16912330712859 15.4640398131984 6.47546874755852 15.4640398131984 C 6.78259544043004 15.4640399223691 7.03093748779298 15.710395233353 7.03093748779298 16.0142899102595 L 7.03093748779298 25.2030000096874 Z M 21.7234374951171 14.6333949927345 C 21.7234374951171 15.7765199951561 20.7854687573242 16.7066749927344 19.632812487793 16.7066749927344 L 11.8535937426758 16.7066749927344 C 10.7000000024414 16.7066749927344 9.76140623046871 15.7766749903125 10 14.6333949927345 L 10 2.15233000726556 C 9.76140625732421 1.00874001937501 10.7000000024414 0.0781200096874954 11.8535937426758 0.0781200096874954 L 19.632812487793 0.0781200096874954 C 20.7854687304688 0.0781200096874954 21.7234374951171 1.00874001937501 21.7234374951171 2.15233000726556 L 21.7234374951171 14.6333949927345 Z M 19.632812487793 1.1787750072657 L 11.8535937426758 1.1787750072657 C 11.3117414151158 1.17920180594854 10.872494006022 1.61465788387926 11 2.15217501210941 L 11 14.6335499878905 C 10.8717187573242 15.1698499854688 11.3118750024414 15.6063299854687 11.8535937426758 15.6063300121094 L 19.632812487793 15.6063300121094 C 20.1740707990056 15.6057316375471 20.6126243461596 15.1704784573438 20.61296875 14.6335499878905 L 20.61296875 2.15233000726556 C 20.61296875 1.61572001937498 20.1737500024414 1.1787750072657 19.632812487793 1.1787750072657 Z M 15.7435937548829 27.2017249951562 C 14.7518750048828 27.2017249951562 13.9450000024414 26.4014599878905 13.9450000024414 25.4179850048437 L 13.9450000024414 16.2291199975781 C 13.9450000024414 15.9253200072656 14.1934375 15.6788700096876 14.5001562524414 15.6788700096876 C 14.8065522872454 15.678869961501 15.0549837276012 15.9251751792392 15.0551562573242 16.2291199975781 L 15.0551562573242 25.4179850048437 C 15.0554145716166 25.7951008307086 15.3634368287283 26.1007976063281 15.7435937548829 26.1012249927343 C 16.1221875170898 26.1012249927343 16.42953125 25.7944799878906 16.42953125 25.4179850048437 L 16.42953125 16.2291199975781 C 16.42953125 15.9253200072656 16.6779687475586 15.6788700096876 16.9846875 15.6788700096876 C 17.2913707674197 15.6788699223812 17.5397575091482 15.9252002204577 17.53984375 16.2291199975781 L 17.53984375 25.4179850048437 C 17.53984375 26.4014600145312 16.7339062451172 27.2018800169531 15.7435937548829 27.2018799903125 Z M 13.773593737793 12.0145151892236 C 13.4672482973629 12.0145151892236 13.2189062499999 11.7681598782394 13.2189062499999 11.4642652013329 L 13.21890625 4.40416999515634 C 13.2189062499999 4.1002751217606 13.4672482973629 3.8539198107764 13.773593737793 3.8539198107764 C 14.0808767026371 3.8539198107764 14.32921875 4.1002751217606 14.32921875 4.40416979866711 L 14.32921875 11.4641100096875 C 14.32921875 11.7680048830833 14.0808767026371 12.0143601940673 13.7745312622071 12.0143601940673 Z M 17.6145312255859 12.0145150800679 C 17.3081857851559 12.0145150800679 17.059843737793 11.7681597690838 17.059843737793 11.4642650921772 L 17.059843737793 4.40416999515634 C 17.059843737793 4.10027523091622 17.3081857851559 3.85391991993208 17.6145312255859 3.85391991993208 C 17.9216579453129 3.8539198107764 18.1699999926758 4.1002751217606 18.1699999926758 4.40416979866711 L 18.1699999926758 11.4641100096875 C 18.1699999926758 11.7680048830833 17.9216579453129 12.0143601940673 17.6153125048828 12.0143601940673 Z" transform="matrix(1 0 0 1 -933 -538 ) matrix(1 0 0 1 933 538 )"/></g></svg>