<svg xmlns="http://www.w3.org/2000/svg" xmlns:xlink="http://www.w3.org/1999/xlink" width="21" height="30" version="1.1"><g><path fill="#0079fe" fill-rule="nonzero" stroke="none" d="M 18.1259777832031 4.02196451822925 C 18.1283731991615 4.09597672925076 18.1118060719467 4.1661214114558 18.0807616645823 4.22748457320901 C 18.1272672570343 4.21637025294461 18.1525120591219 4.20997800801052 18.1551383463541 4.209303218483 C 18.3563829985119 4.15764890491448 18.5661868722098 4.25765031067255 18.6435728236607 4.44195783428921 C 19.7508890206473 7.07952293845591 20.3749474516369 14.3753093546165 20.4022434305907 14.7231962765342 C 20.5660084375814 14.8035158227205 20.6687541561484 14.9850686483154 20.6442971928914 15.1799454752605 C 20.6230608113607 15.3494596354166 20.1083181254069 19.3614005533854 18.757443148295 21.9964396158854 C 18.6658825047811 22.1750309244791 18.4685418065388 22.2674845377604 18.2771361668904 22.2217814127604 C 18.227862815857 22.2100065104166 13.3012077713012 21.0580338541666 9.92857981363932 22.415321451823 C 9.87680260976157 22.4361417643229 9.82351072947176 22.4460123697916 9.77102255503343 22.4460123697916 C 9.59847309112547 22.4460441080729 9.43562992095951 22.339276529948 9.36889142354335 22.1643668619791 C 9.33748866368052 22.0820828677997 9.33167405713891 21.9959836817943 9.34750311699969 21.9153387026017 C 8.12152191779398 23.5576337512669 6.55167017077184 24.6318933860198 6.47888950892855 24.6812557987518 C 5.05532331194206 25.4050608166049 3.99921537853419 28.3388744798695 3.72961460658479 29.3981102219693 C 3.68452427455361 29.5750745930332 3.51825183686753 29.6973857294479 3.33053722563244 29.6973857294479 C 3.12673363095246 29.6783551928699 2.92834205264137 29.5172823008042 2.91966517857139 29.3223244032558 C 2.87351903835514 28.2875176577088 2.70687310535823 26.9503550874969 2.46365608049803 25.5599494791666 C 2.38564279770708 25.5599494791666 2.30670996671597 25.5376615885417 2.23664632642993 25.4909803385416 C 2.04529131225348 25.3635994791666 1.99204650517754 25.1030928385417 2.11760932877223 24.9090889322917 C 2.12132271308224 24.9033528457045 2.19505103794296 24.7901315715678 2.33306894975641 24.5888880366085 C 1.78747075920302 21.3430885985595 1.06213071099273 18.1147294064959 1.03116559709827 17.9774059547909 C 0.772300618489624 16.9391346329566 0.687473144531225 13.6584270798191 0.683972981770864 13.5190753451135 C 0.599174920944961 9.52042047978529 2.35746256510419 4.17236323732004 2.39926534016928 3.89311794704861 C 2.17649698893229 3.86456163194444 2.01849060058601 3.65622287326403 2.04633300781245 3.42774251302089 C 2.09067138671873 3.064000108507 2.33974019368486 1.21607530381957 2.89204976399742 0.555699327256889 C 2.99341125488274 0.434521484375097 3.15330871582029 0.383346896701369 3.30386718749998 0.423928493923569 C 3.32111958821611 0.428583441840402 5.06800516764326 0.893600802951369 7.62851745605468 1.16003689236115 C 9.98301920572914 1.40498860677093 13.528198445638 1.52759874131945 17.0464371744791 0.720024956597371 C 17.2486364746093 0.673624674479157 17.4525231933594 0.790625000000063 17.5197580973307 0.99165310329866 C 17.5427128092447 1.0604031032986 18.0829195149739 2.69047037760407 18.1259777832031 4.02196451822925 Z M 19.3197531714132 12.2061104198896 C 14.7420395464633 12.9872649054088 10.5429545047484 16.4559786310859 7.80629044933437 19.2562963541667 C 5.55940269653524 21.5554556583806 3.91457871520896 23.7808066789985 3.20203358223642 24.7966545335018 C 3.34454803008231 25.6667471150074 3.47228830471556 26.5328903573484 3.56890125092997 27.3384680400923 C 4.07963088262647 26.1059955578048 4.89658063616065 24.6181943741565 6.02116234188992 24.0300134601328 C 6.21761265345987 23.8926236364147 7.91286795479914 22.6788453631074 9.01238967168899 20.981399976805 C 9.07645147414428 20.8847898743251 10.6249352446056 18.5863831252812 14.3305781482514 16.3543450222109 C 14.461290108817 16.2849494278564 17.3978090122768 14.735656348403 19.548467843192 14.3793733130904 C 19.5078559308063 13.9446558869417 19.4306194731531 13.1590314667325 19.3197531714132 12.2061104198896 Z M 1.50568766276041 13.5018946103239 C 1.50651123046873 13.5338177048189 1.59201520647315 16.8468687619489 1.83161458333336 17.7996007647324 C 1.87386642319677 17.9860991576344 2.48376851012875 20.6909157911935 3.00541740846541 23.6432479289082 C 3.87536067581078 22.4570145628279 5.3423674356705 20.5835162489383 7.21760162413705 18.6646897135418 C 9.04088772805721 16.7990338541666 10.89030679857 15.2525670572916 12.7145421135355 14.0682709635416 C 14.9302440506442 12.6298946118006 17.1171327688055 11.723204536149 19.2188783621144 11.3711118130632 C 18.9480277034218 9.21148068066552 18.5336151565741 6.54430716536277 18.0030724516369 5.05149555077591 C 17.0638228934151 5.25990655223791 14.424494280134 5.770339736561 11.1073694428943 5.770339736561 C 8.16814453124999 5.77031170926119 5.47416631789434 5.3679798203442 3.09246733165924 4.57402247104133 C 2.68841913132434 5.88774609550725 1.43650797526038 10.2395169112686 1.50568766276041 13.5018946103239 Z M 2.85303548177086 3.53113606770825 C 2.84679419565003 3.58235999838161 2.83174910853063 3.63025370534226 2.80965024637749 3.67341222740615 C 2.863314343056 3.67160852401861 2.9173777375932 3.67982197943269 2.96869687034979 3.69819737896424 C 5.35771972656249 4.55347846027334 8.09599411737349 4.98717289768894 11.1074282691592 4.98717289768894 C 13.9723025687048 4.98717289768894 16.3555899021014 4.5864406616582 17.4726617643121 4.36020598179218 C 17.3801009264816 4.28678944393425 17.3175386803436 4.17568798048205 17.3134857177733 4.04959581163206 C 17.2856433105468 3.18887803819436 17.0144635009765 2.14754231770826 16.858871866862 1.61422254774308 C 13.3504085286459 2.35838758680558 9.86722737630203 2.23210720486122 7.52968709309891 1.98784179687499 C 5.49381652832028 1.77505696614588 3.98907552083341 1.44730088975692 3.38547424316414 1.30260959201394 C 3.14507527669269 1.80561252170145 2.93659179687495 2.84536675347221 2.85303548177086 3.53113606770825 Z M 9.61334164937335 21.5896818033854 C 11.1425156784057 20.9743400065103 13.1001576614379 20.7489029947916 15.4319556299845 20.919432779948 C 16.654392229716 21.0089029947916 17.646690750122 21.1859391276041 18.1389296722413 21.285692545573 C 19.3098981857299 18.7866837565103 19.7827554321289 15.1050748697918 19.7782512558681 15.1367316847224 C 17.8263519114055 15.4266328040219 14.9479549795407 16.9235661327646 14.7595392717634 17.0224597953216 C 11.2464935593378 19.1410153614204 9.74945335751488 21.3366740293241 9.71021623883928 21.3951670040486 C 9.66255749018518 21.4686928176474 9.61396376124242 21.5413018996015 9.61334164937335 21.5896818033854 Z" transform="matrix(1 0 0 1 -1163 -487 ) matrix(1 0 0 1 1163 487 )"/></g></svg>