<svg xmlns="http://www.w3.org/2000/svg" xmlns:xlink="http://www.w3.org/1999/xlink" width="22" height="21" version="1.1"><g><path fill="#0079fe" fill-rule="nonzero" stroke="none" d="M 21.9171100282013 9.03335826822922 C 21.8685739011052 8.57762191521994 21.6259855583079 8.36175760648143 21.4804463739996 8.2658179013311 C 21.0923418975324 8.02594585706009 20.5344186591559 8.16987821846061 20.0734984779916 8.3377498709491 L 20.0734984779916 7.69015694473381 C 20.0734984779916 7.3063753761574 20.1705245858422 6.94662431336803 20.3645998972465 6.61081258622693 L 20.7527043737138 5.89119647569447 C 20.8497304815644 5.69931708767365 20.9225000849847 5.48345277893515 20.9468027357565 5.24358073466436 C 20.9225000849847 3.46862800115736 17.7448024672732 2.36527592939814 16.3620880475896 2.36527592939814 L 13.3541630679783 2.3652759516782 C 13.6209848870998 1.7656300743634 13.8635963030678 0.998066914930462 13.5482383568502 0.47039861458336 C 13.4511891758289 0.302504147280047 13.1843673567073 0.0146622615740739 12.6264441183308 0.0146622615740739 L 9.32741774199695 0.0146622615740739 C 8.76949450362042 0.0146622615740739 8.50267268449886 0.302504147280047 8.40564655411583 0.47039861458336 C 8.0902655572599 0.998066937210695 8.35713350019057 1.78961499508108 8.59969879234944 2.3652759516782 L 5.61600728906251 2.3652759516782 C 4.23333899318789 2.3652759516782 1.05561830230567 3.44462031018509 1.03133872470465 5.24358075694437 C 1.05561830230567 5.45944506568287 1.12838790572596 5.69931710995371 1.2254140135766 5.89119649797453 L 1.61354154068215 6.61081260850699 C 1.80757072827743 6.9466243356481 1.90464295993712 7.30639819097223 1.90464295993712 7.69015696701388 L 1.90464295993712 8.33774989322916 C 1.44374582941123 8.16990103327549 0.861543013433732 8.02594587934033 0.473438536966455 8.26581792361117 C 0.303642825695533 8.36175760648143 0.0367979559355831 8.5776219375 0.0367979559355831 9.03335826822922 L 0.0367979559355831 11.3599870153356 C 0.0367979559355831 11.8157233683449 0.303619775057143 12.031610469618 0.449182010003767 12.1275501524884 C 0.594721194312115 12.223467042824 0.788796483184058 12.2474747783565 0.982825670779391 12.2474747783565 C 1.29820666763527 12.2474747783565 1.6135415632146 12.1515578880209 1.90464298246951 12.0555725978009 L 1.92887645879381 17.3085216212384 C 1.92887645879381 18.8196629971064 3.09328211328125 20.0189547517361 4.62146654282583 20 L 17.3324184132051 20 C 18.8606489665587 20.0189547517361 20.0978011512958 18.7956780541087 20.0978011512958 17.3085216212384 L 20.1220346276201 12.0555725978009 C 20.3889025705507 12.1515578880209 20.7284709199218 12.2474747783565 21.0195723391768 12.2474747783565 C 21.2136476280488 12.2474747783565 21.3834433393197 12.223467065104 21.5289825236281 12.1275501524884 C 21.6745447585747 12.031610469618 21.9171100507336 11.8157233460649 21.9171100507336 11.3599870153356 L 21.9171100282013 9.03335826822922 Z M 9.71554526910251 2.3652759516782 C 9.42448997365659 1.83758483651621 9.20613508465129 1.18996911776617 9.25469426238567 0.974081994212952 C 9.27892773870997 0.974081994212952 9.27892773870997 0.974081994212952 9.32744079263529 0.974081994212952 L 12.6507467691025 0.974081994212952 C 12.6749802454268 0.974081994212952 12.6992598230278 0.974081994212952 12.7234702487138 0.974081994212952 C 12.7720063758098 1.18996909548611 12.5536745374428 1.7656300743634 12.262619241997 2.3652759516782 L 9.71554526910251 2.3652759516782 Z M 3.28728820517341 3.99627353124998 C 4.11205633584223 3.56454493605327 5.08236365081933 3.34868062731482 5.61600728906251 3.34868062731482 L 16.3620880250572 3.34868062731482 C 16.8957777871094 3.34868062731482 17.8660851020865 3.56454493605327 18.7150636359089 3.99627355353005 C 19.0789346360518 4.18817573408569 19.3700360553068 4.38007793692123 19.5883678711414 4.59596503819449 L 17.4051649209222 4.88376131655099 C 13.1358312296113 5.48343000868061 8.81800755754568 5.45944508796293 4.5729303931974 4.88376131655099 L 2.41403007121761 4.57195730266199 C 2.63233883641385 4.38007791464116 2.92344025566882 4.16421360590283 3.28728820517341 3.99627353124998 Z M 1.8803633823361 10.9282812126735 C 1.58926196308119 11.0961300726274 1.22543708674732 11.21607749103 1.03133872470465 11.2400624117477 L 1.03133872470465 9.12929795109955 C 1.2254140135766 9.15330566435182 1.56502848675689 9.27323029021983 1.8803633823361 9.41713983680552 L 1.8803633823361 10.9282812126735 Z M 19.467062140625 6.13106851996531 C 19.2244738203601 6.61078979369211 19.1032142361852 7.13848090885421 19.1032142361852 7.69015694473381 L 19.0789346585843 17.2845367005207 C 19.0789346585843 18.244024833044 18.278423054878 19.0115651776621 17.3323953400343 19 L 4.59723304396914 19 C 3.65120532912539 19.0115651776621 2.89918372870619 18.244024833044 2.89918372870619 17.2845367005207 L 2.87490415110517 7.69015694473381 C 2.87490415110517 7.13848090885421 2.72936496679688 6.61081258622693 2.4625661983136 6.15505344068276 L 2.14718520145772 5.55538474855319 L 4.40313468192647 5.86721155497679 C 6.58631458150722 6.17901556886579 8.76949448108803 6.32292509317125 10.9769309076315 6.32292509317125 C 13.1601108072123 6.32292509317125 15.3432907067931 6.17906115393509 17.5264706063739 5.86721155497679 L 19.7823970362043 5.55538474855319 L 19.467062140625 6.13106851996531 Z M 20.8740100816978 9.12929795109955 L 20.8740100816978 11.2400624117477 C 20.7527043737138 11.2160546984954 20.3645998972465 11.0961300726274 20.0734984779916 10.9522205260417 L 20.0734984779916 9.41709422945598 C 20.3645998972465 9.27323029021983 20.7527043737138 9.15330566435182 20.8740100816978 9.12929795109955 Z" transform="matrix(1 0 0 1 -1204 -542 ) matrix(1 0 0 1 1204 542 )"/></g></svg>