<svg xmlns="http://www.w3.org/2000/svg" xmlns:xlink="http://www.w3.org/1999/xlink" width="31" height="22" version="1.1"><g><path fill="#0079fe" fill-rule="nonzero" stroke="none" d="M 30.6438563592274 14.3719029146635 C 30.8968019112685 11.7493179507212 28.8133246950911 9.40320400540872 26.2210987175271 9.40320400540872 C 25.477581236083 9.40320400540872 24.7605146769569 9.59958163762019 24.1127323359481 9.95905482872604 C 22.6506861981276 7.45843639723557 20.2498973140182 5.72648451322118 17.4754057249494 5.14716035757203 C 18.8600595888158 3.44121851562505 17.6710297583502 0.802060174278893 15.514413647942 0.730828464543151 C 13.2788434741902 0.656992385817375 11.9516107561572 3.38771015925494 13.3880034762989 5.15084707632207 C 9.00375918100536 6.07087256610578 5.66409460610663 9.92218754206715 5.34668327850881 14.5065870072115 L 4.53072474780697 14.5065870072115 C 3.38595702555665 14.5065870072115 2.45445839068827 13.5584544681491 2.45445839068827 12.3935488822116 L 2.45445839068827 8.71557790865393 C 2.45445839068827 8.06525883413474 1.9343783025472 7.53589156850956 1.29513600581987 7.53589156850956 L 0.270460908822542 7.53589160156247 L 0.270460908822542 8.52390171874987 L 1.29516922570849 8.52390171874987 C 1.39911214659242 8.52390171874987 1.48381497174427 8.61008328124996 1.48381497174427 8.71557790865393 L 1.48381497174427 12.3935826953125 C 1.48381497174427 14.1033127283654 2.8507240894906 15.4945971243991 4.53075793522271 15.4945971243991 L 5.32405371499658 15.4945971243991 C 5.38187362938595 17.760279453125 6.14054392628202 19.8922247536058 7.54167975835026 21.6728482662261 L 7.68735932903178 21.8580980498798 L 23.1596674987348 21.85167164363 L 23.3053470694163 21.6670645072116 C 24.1082795070007 20.6504399459134 24.6891701762821 19.510698843149 25.0621085964912 18.2863996694713 C 27.6707833223684 19.0040607902646 30.3795130731276 17.1119559465143 30.6438563592274 14.3719029146635 Z M 14.6321284109312 5.95611037259624 C 14.8886959375 5.93101354867787 12.3442544804319 6.15499090144237 14.6321284109312 5.95611037259624 C 17.3828606680162 5.68714810997591 20.1733357970648 6.79539979567301 22.0630830980095 9 L 8.81022865005059 9 C 10.303510835442 7.23148259915877 12.3442544804319 6.15499090144237 14.6321284109312 5.95611037259624 Z M 14.6716054263664 4.96035474158657 C 13.122663301282 4.16943249699523 13.7025903340081 1.71589601562499 15.4271188921221 1.71589601562499 C 17.1505841215418 1.71589601562499 17.7454313330803 4.16618548076923 16.1879823511303 4.96099738882219 C 15.6841516270243 4.9212550961538 15.1754361504724 4.91953013221161 14.6716054263664 4.96035474158657 Z M 24.2739967429993 17.5449946454328 C 23.9711400455466 18.7519763221153 23.4389975008435 19.8672294020434 22.6907281465081 20.8636615264423 L 8.15716275556684 20.8700879326924 C 5.74381298667339 17.6454496334136 5.6858933801451 13.1132731971155 8.01061920799594 10 L 22.8671785889002 10 C 24.4146918690958 12.0360374459136 24.9544440089406 14.9034348798076 24.2758576088057 17.5377903064904 L 24.2739967429993 17.5449946454328 Z M 29.6251626606782 13.2107855198317 C 30.0611048566127 15.3690791586537 28.3841614022436 17.4584071935095 26.2210987175271 17.4584071935095 C 25.9155504297403 17.4584071935095 25.6137903133435 17.4178869681491 25.3199389009784 17.3374891646635 C 25.7711667919197 15.1646515955529 25.5043312348178 12.827906655649 24.5682468589744 10.8209043329326 C 26.580379639423 9.700543921274 29.1650624291498 10.9328592127403 29.6251626606782 13.2107855198317 Z" transform="matrix(1 0 0 1 -1019 -541 ) matrix(1 0 0 1 1019 541 )"/></g></svg>