<svg xmlns="http://www.w3.org/2000/svg" xmlns:xlink="http://www.w3.org/1999/xlink" width="28" height="22" version="1.1"><g><path fill="#0079fe" fill-rule="nonzero" stroke="none" d="M 27.6635807291667 17.9042187499999 C 27.6635807291667 19.8104352678572 26.1336371527778 21.355990513393 24.2466753472222 21 L 3.74503038194442 21 C 1.85785590277777 21.355990513393 0.328125 19.8104352678572 0.328125 17.9042187499999 L 0.328125 4.09700892857131 C 0.328125 2.19057756696429 1.85785590277777 0.645237165178514 3.74503038194442 1 L 24.2466753472222 1 C 26.1336675347222 0.645237165178514 27.6635807291667 2.19060825892848 27.6635807291667 4.09700892857131 L 27.6635807291667 17.9042187499999 Z M 26 4.09697823660713 L 25.9551128472222 4.09697823660713 C 25.9551128472222 3.14374720982141 25.1902170138889 2.37107700892852 24.2466449652778 2.37107700892852 L 3.74503038194442 2.37107700892852 C 2.80142795138892 2.37107700892852 2.03656249999999 3.14377790178582 2 4.09697823660713 L 2 17.9041880580357 C 2.03656249999999 18.8574190848215 2.80145833333334 19.6300892857143 3.74503038194442 19.6300892857143 L 24.2466753472222 19.6300892857143 C 25.1902777777778 19.6300892857143 25.9551432291667 18.857388392857 26 17.9041880580357 L 26 4.09697823660713 Z M 24.2466449652778 17.0411914062499 C 24.2466449652778 17.5177148437499 23.8641362847222 17.9041573660716 23.3923958333334 17.9041573660716 L 21.6839279513889 17.9041573660716 C 21.2120355902778 17.9041573660716 20.8296788194444 17.5177148437499 20.8296788194444 17.0411914062499 C 20.8296788194444 16.56466796875 21.2120355902778 16.1782254464285 21.6839279513889 16.1782254464285 L 23.3923958333334 16.1782254464285 C 23.8641059027778 16.1782254464285 24.2466449652778 16.56466796875 24.2466449652778 17.0411914062499 Z M 24.2466449652778 11.8635184151785 C 24.2466753472222 12.3400418526785 23.8641362847222 12.7264843749999 23.3923958333334 12.7264843749999 L 21.6839279513889 12.7264843749999 C 21.2120355902778 12.7264843749999 20.8296788194444 12.3400418526785 20.8296788194444 11.8635184151785 C 20.8296788194444 11.3868108258928 21.2120355902778 11.0005524553571 21.6839279513889 11.0005524553571 L 23.3923958333334 11.0005524553571 C 23.8641059027778 11.0005524553571 24.2466449652778 11.3868108258928 24.2466449652778 11.8635184151785 Z M 24.2466449652778 6.68578404017853 C 24.2466753472222 7.1623074776785 23.8641362847222 7.54874999999993 23.3923958333334 7.54874999999993 L 21.6839279513889 7.54874999999993 C 21.2120355902778 7.54874999999993 20.8296788194444 7.1623074776785 20.8296788194444 6.68578404017853 C 20.8296788194444 6.20907645089278 21.2120355902778 5.82281808035714 21.6839279513889 5.82281808035714 L 23.3923958333334 5.82281808035714 C 23.8641059027778 5.82281808035714 24.2466449652778 6.20907645089278 24.2466449652778 6.68578404017853 Z M 16.5585850694444 9.27468191964294 L 4.59930989583334 9.27468191964294 C 4.1274175347222 9.27468191964294 3.74506076388893 8.88823939732151 3.74506076388893 8.41171595982132 C 3.74506076388893 7.93500837053557 4.1274175347222 7.54874999999993 4.59930989583334 7.54874999999993 L 5.45355902777777 7.54874999999993 L 5.45355902777777 6.68578404017853 C 5.45355902777777 6.20907645089278 5.83591579861113 5.82281808035714 6.30780815972219 5.82281808035714 C 6.7795182291667 5.82281808035714 7.1620572916667 6.20907645089278 7.1620572916667 6.68578404017853 L 7.1620572916667 7.54874999999993 L 13.9959592013889 7.54874999999993 L 13.9959592013889 6.68578404017853 C 13.9959592013889 6.20907645089278 14.3783159722222 5.82281808035714 14.8502083333333 5.82281808035714 C 15.3219184027778 5.82281808035714 15.7044574652778 6.20907645089278 15.7044574652778 6.68578404017853 L 15.7044574652778 7.54874999999993 L 16.5587065972222 7.54874999999993 C 17.0304166666667 7.54874999999993 17.4129557291667 7.93500837053557 17.4129557291667 8.41171595982132 C 17.4129861111111 8.8882087053571 17.0304470486111 9.27468191964294 16.5587369791667 9.27468191964294 Z" transform="matrix(1 0 0 1 -1156 -541 ) matrix(1 0 0 1 1156 541 )"/></g></svg>