<svg xmlns="http://www.w3.org/2000/svg" xmlns:xlink="http://www.w3.org/1999/xlink" width="24" height="19" version="1.1"><g><path fill="#0079fe" fill-rule="nonzero" stroke="none" d="M 3.54111003059734 0.212975442811967 C 3.71386782459695 0.162549478327719 3.8951703139146 0.179704655273554 4.07244254713646 0.178131294566811 C 9.39841563353866 0.178665107428742 14.7243589440684 0.178131294566811 20.050304998754 0.178665107428742 C 20.298699264202 0.169820612524745 20.5190872279204 0.354984619219294 20.5926653152287 0.5968932977637 C 21.6142945988133 3.76929023817956 22.6298704528886 6.94432818353494 23.6495279001558 10.1177927311662 C 23.7011045044837 10.3050357965326 23.6780995158006 10.501120561971 23.6801011458092 10.6930527812201 C 23.6805880196339 13.1902930198032 23.6790732990883 15.6875640755704 23.6810748756395 18.1842985421529 C 23.6781022599564 18.3539088289958 23.6455273842942 18.5421914607159 23.5173189105483 18.6602519645749 C 23.4006495050387 18.7939532167541 23.2153221053836 18.8157947527511 23.05156619375 18.822029189462 C 15.6733325865357 18.8204558102464 8.29466353168937 18.8209896045994 0.916457009649321 18.8214672802119 C 0.693096376790436 18.822029189462 0.42515939196096 18.844938332674 0.255888172643381 18.6628901191561 C 0.0705878759815732 18.4901921540336 0.0875907366134925 18.2072076853651 0.0886158926361986 17.9720953897991 C 0.0886158926361986 15.4758637893324 0.0931303318584469 12.9796350392239 0.0866142804466108 10.4834034942839 C 0.063582242227767 10.2316416827193 0.156732806970467 9.9955179171875 0.234368182091202 9.76298752790012 C 1.21390961753877 6.70865109134297 2.19493874181535 3.65428653988943 3.17402306149143 0.599416271961445 C 3.22859936667669 0.422624766766148 3.36429763948354 0.25980799403419 3.54111003059734 0.212975442811967 Z M 4.04887224453864 1.24549126885495 C 3.13745043194263 4.0855482707093 2.22597181175774 6.92610819420565 1.31454998134245 9.76669897190413 C 3.60317613484358 9.76720468837812 5.89231624734362 9.76771038634342 8.18094236520619 9.76669897190413 C 8.33867187904707 9.77032050006324 8.51548427016064 9.79008573520264 8.6311529675811 9.9154482644783 C 8.79093539506948 10.0506639267744 8.81042674171567 10.2821576000663 8.8184548229749 10.4813581216633 C 8.85748892464062 11.4243922826711 9.34027160506412 12.3294693155981 10.0754490489785 12.8803030915267 C 10.6368408343528 13.3089209855577 11.3429841654545 13.5268781597044 12.0385351442528 13.487347670917 C 12.8573744145381 13.4503991809524 13.6535901159777 13.0508967149299 14.1914901101211 12.4090669749023 C 14.6562177243543 11.8649705388177 14.9346415362229 11.1512947071096 14.9542112873205 10.4236048487148 C 14.9627262424044 10.2509349244538 14.9872973421875 10.0563926470111 15.1189950813136 9.93467968675577 C 15.2351506525586 9.79578635905136 15.4234777174327 9.77082621653722 15.5896950655447 9.76667087551641 C 17.8784023854723 9.76768230846437 20.1670015250761 9.76667087551641 22.4551137730359 9.76667087551641 C 21.5436919426206 6.92661391067963 20.6322403719714 4.08602589079533 19.7212783658451 1.245463172467 C 14.4969707814503 1.24445455285968 9.27266319705564 1.24445455285968 4.04887224453864 1.24549126885495 Z M 1.11673150521779 10.8324856039944 C 1.1162446313931 13.1404345542321 1.1162446313931 15.4482992338151 1.11673150521779 17.7562481840528 C 8.2956345886405 17.7568381711817 15.4740264394011 17.7568381711817 22.6529565723597 17.7562481840528 C 22.6534434461844 15.4483273302028 22.6534434461844 13.1404626506201 22.6529565723597 10.8324856039944 C 20.4193665126943 10.8319518096412 18.1858035560222 10.8319518096412 15.9522676310669 10.8324856039944 C 15.8075404619963 12.1047467237283 15.0678485610406 13.2828960861871 14.0102119618218 13.9403638537385 C 13.1853434783111 14.4668274372643 12.1767976168273 14.6654689184788 11.2227713063971 14.5016716410362 C 10.3053202983949 14.3513208543495 9.44593220589832 13.857650419767 8.82896597321337 13.1377682662453 C 8.27660306628331 12.5000938672388 7.91751714672 11.6844704029591 7.81736365674101 10.8324856039944 C 5.58383042248374 10.8319798875202 3.35026744799256 10.8319798875202 1.11673150521779 10.8324856039944 Z" transform="matrix(1 0 0 1 -459 -494 ) matrix(1 0 0 1 459 494 )"/></g></svg>