<svg xmlns="http://www.w3.org/2000/svg" xmlns:xlink="http://www.w3.org/1999/xlink" width="21" height="22" version="1.1"><g><path fill="#0079fe" fill-rule="nonzero" stroke="none" d="M 17.1876224180912 10.8286554783949 L 18.0796830484331 8.76244212962956 C 19.1774060719373 8.6843291859567 20.1363069800569 8.01658950617286 20.5707687856125 7.00868055555554 C 21.043792289886 5.92517843364203 20.7969974180912 4.68293065200623 19.9434984864672 3.84888599537044 L 19.539886039886 3.45328173225312 L 18.6426838497151 5.53209394290116 C 18.5886974715099 5.65808256172841 18.4395922364672 5.71855709876536 18.3110532407407 5.66312210648152 L 17.7223446403134 5.4187041859567 C 17.5938056445869 5.36578896604931 17.5321069266382 5.21964216820982 17.5886640847579 5.09365354938268 L 18.4858662749288 3.01484133873464 L 17.9125823539886 3.00728202160508 C 16.7068865740741 2.98712384259261 15.6271590099715 3.68006124614203 15.1567062856125 4.76608314043222 C 14.7248152599715 5.76895254629619 14.8996282941595 6.9003303433642 15.5963096509971 7.72429591049377 L 15.1001491274928 8.69944782021605 C 14.8225048967236 8.44999035493822 14.5242944266382 8.22321084104931 14.2055177172365 8.02162905092598 L 14.3571937321937 8.02162905092598 L 14.3571937321937 5.51697530864203 C 14.3571937321937 4.61993634259261 13.6142383368945 3.89172212577159 12.6990406873219 3.89172212577159 L 11.4676371082621 3.89172212577159 L 11.4676371082621 1.56345244984573 L 13.4394253027065 1.56345244984573 C 13.7222110933048 1.56345244984573 13.9535812856125 1.3366729359567 13.9535812856125 1.05949797453707 C 13.9535812856125 0.78232301311732 13.7222110933048 0.555543499228406 13.4394253027065 0.555543499228406 L 7.84283742877494 0.555543499228406 L 5.77335959757835 2.08252555941351 C 5.72965633903135 2.11528260030866 5.71937321937321 2.17323736496905 5.74765179843308 2.21859326774688 C 5.77335959757835 2.25890962577159 5.82220441595439 2.27402826003095 5.86847845441594 2.26142939814804 L 7.97137642450139 1.56345244984573 L 9.84547498219371 1.56345244984573 L 9.84547498219371 3.89424189814804 L 8.51124020655271 3.89424189814804 C 7.59604255698008 3.89424189814804 6.85308716168095 4.62245611496905 6.85308716168095 5.51949508101848 L 6.85308716168095 8.02414882330243 L 7.08959891381767 8.02414882330243 C 5.27976985398862 9.17064525462956 4.07407407407408 11.166304976852 4.07407407407408 13.4240210262346 L 4.07407407407408 18.2771026234567 C 4.07407407407408 20.0535421489196 5.5548433048433 21.5049310378087 7.36724314458695 21.5049310378087 L 13.9150195868945 21.5049310378087 C 15.7428441061253 21.5049310378087 17.2390380163817 20.0384235146605 17.2390380163817 18.2468653549382 L 17.2390380163817 14.7191840277778 C 17.2390380163817 14.442009066358 17.0076678240741 14.2152295524691 16.7248820334758 14.2152295524691 C 16.4420962428775 14.2152295524691 16.2107260505698 14.442009066358 16.2107260505698 14.7191840277778 L 16.2107260505698 18.2468653549382 C 16.2107260505698 18.844051408179 15.9716435185185 19.4084804205247 15.5346109330484 19.8368417245371 C 15.1001491274928 20.2626832561728 14.5242944266382 20.4995418595679 13.9124488069801 20.4995418595679 L 7.36724314458695 20.4995418595679 C 6.76568064458695 20.4995418595679 6.19753828347581 20.2677228009259 5.76821803774931 19.8469208140433 C 5.33889779202275 19.4261188271605 5.10238603988603 18.8692491319445 5.10238603988603 18.2796223958335 L 5.10238603988603 13.4240210262346 C 5.10238603988603 12.6958068094135 5.24892049501426 11.9902705439815 5.53684784544157 11.3225308641976 C 5.81706285612535 10.6774691358024 6.21553374287754 10.0979214891976 6.72711894586894 9.59648678626536 C 7.23870414886039 9.09505208333337 7.82998352920231 8.70448736496905 8.48810318732194 8.42983217592598 C 9.02796696937321 8.20557243441351 9.5935385505698 8.06950472608025 10.1745348112536 8.02162905092598 L 11.1102987001425 8.02162905092598 C 11.6938657407407 8.06950472608025 12.2645788817664 8.20557243441351 12.8070134437322 8.43235194830243 C 13.4677038817664 8.70700713734573 14.0641248219373 9.10261140046293 14.5757100249288 9.60404610339492 C 15.0872952279203 10.1054808063271 15.4909076745014 10.6900679976851 15.7711226851852 11.3376494984567 C 15.9330818198005 11.7130955825618 16.0513376958689 12.1011405285493 16.1233195334758 12.4992645640433 C 16.1670227920227 12.7386429398149 16.3803975249288 12.9099874614197 16.6271923967236 12.9099874614197 C 16.9459691061253 12.9099874614197 17.1901931980057 12.6277729552469 17.133636039886 12.3203607253087 C 17.0693665420227 11.9650728202161 16.9742476851852 11.6198640046296 16.8508502492877 11.287254050926 C 16.9742476851852 11.1965422453704 17.089932781339 11.0503954475309 17.1876224180912 10.8286554783949 Z M 2.86698363846801 8.73061342592598 L 2.31415719696969 7.44791666666663 L 2.86698363846801 6.1652199074075 L 1.59162589436022 6.72122757523152 L 0.313696864478061 6.1652199074075 L 0.869094591750866 7.44791666666663 L 0.313696864478061 8.73061342592598 L 1.59162589436022 8.17460575810185 L 2.86698363846801 8.73061342592598 Z M 2.69985006313129 5.41784215856489 L 3.60751394149833 5.01958550347217 L 4.51774910563972 5.41784215856489 L 4.12177109638048 4.50236906828695 L 4.51774910563972 3.58689597800924 L 3.60751394149833 3.98515263310185 L 2.69985006313129 3.58689597800924 L 3.09325678661617 4.50236906828695 L 2.69985006313129 5.41784215856489 Z M 18.0102719907407 6.35857928240739 C 18.5295695334758 6.57527970679018 19.1337028133903 6.33590133101848 19.3522191061253 5.82438753858025 L 19.7686854522792 4.86183449074065 C 20.0848913817664 5.42374373070982 20.1285946403134 6.10408227237645 19.8638043091168 6.71890673225312 C 19.5218905804844 7.51011525848776 18.7403734864672 8.01910927854931 17.8637375356125 8.01658950617286 L 17.5706686253561 8.01154996141975 L 16.5012241809117 10.4910059799382 C 16.2852786680912 10.0828028549382 16.0256298967236 9.70231722608025 15.7299902065527 9.35206886574065 C 15.7197070868945 9.24371865354931 15.7325609864672 9.16560570987645 15.7428441061253 9.13284866898152 L 16.5295027599715 7.58822820216051 L 16.3341234864672 7.3967255015433 C 15.7042824074074 6.78190104166663 15.5217570334758 5.86470389660508 15.8688123219373 5.06089650848776 C 16.1336026531339 4.44607204861109 16.6631833155271 4.00511188271605 17.2955951745014 3.83628713348776 L 16.8765580484331 4.79884018132714 C 16.6554709757834 5.30783420138891 16.8996950676638 5.89998070987645 17.4215633903134 6.11416136188268 L 18.0102719907407 6.35857928240739 Z M 11.1488603988604 7.0162398726851 C 10.9843304843305 7.00364101080243 10.817229789886 6.99860146604931 10.6501290954416 6.99860146604931 C 10.4804576210826 6.99860146604931 10.2953614672365 7.0061607831791 10.1308315527065 7.0162398726851 L 7.88139912749284 7.0162398726851 L 7.88139912749284 5.51949508101848 C 7.88139912749284 5.17932581018511 8.16418491809117 4.90215084876536 8.51124020655271 4.90215084876536 L 12.6964699074074 4.90215084876536 C 13.0435251958689 4.90215084876536 13.3263109864672 5.17932581018511 13.3263109864672 5.51949508101848 L 13.3263109864672 7.0162398726851 L 11.1488603988604 7.0162398726851 Z M 12.1673242845118 12.780418113426 L 12.1673242845118 13.8148509837963 L 7.23045559764307 13.8148509837963 L 7.23045559764307 12.780418113426 L 12.1673242845118 12.780418113426 Z M 12.9078545875421 14.6915328414352 L 12.9078545875421 15.7259657118055 L 7.24331202651513 15.7259657118055 L 7.24331202651513 14.6915328414352 L 12.9078545875421 14.6915328414352 Z M 13.7306660353535 16.6129918981483 L 13.7306660353535 17.6474247685185 L 7.23045559764307 17.6474247685185 L 7.23045559764307 16.6129918981483 L 13.7306660353535 16.6129918981483 Z" transform="matrix(1 0 0 1 -1115 -541 ) matrix(1 0 0 1 1115 541 )"/></g></svg>