<svg xmlns="http://www.w3.org/2000/svg" xmlns:xlink="http://www.w3.org/1999/xlink" width="22" height="22" version="1.1"><g><path fill="#0079fe" fill-rule="nonzero" stroke="none" d="M 0.0219999999999345 4.87666666666655 C 0.0219999999999345 2.18826666666664 2.21026666666671 0 4.8986666666666 0 C 6.19900326230834 0 7.38233346327252 0.511945867621563 8.25763136203329 1.34481154275852 L 11.0405079365079 0.0258024691357832 L 11.2807619047619 0.0271604938271537 L 21.808634920635 5.08580246913581 L 21.5669841269842 5.76209876543214 L 21 5.6765240217602 L 21 16.5792 L 21.2015114379085 16.8201244444444 L 11.6111111111111 21.4518088599093 L 11.6111111111111 21.6297198067633 L 11.0044934640523 21.9115748792271 L 10.8358129054672 21.8262388597418 L 10.6517565359477 21.9151288888889 L 10.5793637925966 21.6963417601599 L 0.844321895424855 16.7677198067632 L 0.611111111111086 16.5273140096618 L 0.611137431866496 7.19884401048131 C 0.235531691591973 6.50808996757294 0.0219999999999345 5.71692301223234 0.0219999999999345 4.87666666666655 Z M 7.56795161892705 8.25352697203866 C 8.56447207610643 7.46416344273828 9.20479999999998 6.24383154407823 9.20479999999998 4.87666666666655 C 9.20479999999998 4.70743087737074 9.19498828153496 4.54044500377455 9.17590381491073 4.37624798025635 L 8.5984795821463 4.08920634920636 L 8.83883950617292 3.60171428571425 L 8.83883950617292 3.46342857142861 L 8.99175892756273 3.5376944158991 C 8.82372095761855 3.02522781039045 8.56193746974191 2.55485927339802 8.20076190476198 2.15925925925913 L 7.62806349206346 1.6432098765431 L 7.70030169486472 1.60897090028703 C 6.94670379673926 0.961942573569445 5.96756206942177 0.570533333333373 4.8986666666666 0.570533333333373 C 2.52413333333334 0.570533333333373 0.592533333333336 2.50213333333321 0.592533333333336 4.87666666666655 C 0.592533333333336 5.6128624760253 0.778346708889785 6.30648192770721 1.10547709194213 6.91315982044569 L 1.44959150326792 7.14734299516911 L 1.44965366086547 7.45169026022396 C 2.23590711496524 8.50191153644002 3.48973695191387 9.18280000000001 4.8986666666666 9.18280000000001 C 5.65054056983888 9.18280000000001 6.35800538587887 8.98913520611507 6.97380068293933 8.64906605021784 L 6.63549836601317 8.48339130434775 L 7.06956699346404 8.0011980676328 L 7.56795161892705 8.25352697203866 Z M 20.7777777777778 16.2068622222222 L 20.7777777777778 6.09214222222229 L 11.6111111111111 10.651927914667 L 11.6113519764419 20.655114333406 L 20.7777777777778 16.2068622222222 Z M 9.77109734498208 4.67212289637817 C 9.77391202251965 4.73996067992238 9.77533333333326 4.80815125138179 9.77533333333326 4.87666666666655 C 9.77612678206697 6.33185164409511 9.1356266122134 7.63980522180782 8.12181109750577 8.53394243488486 L 11.1676807828522 10.0760465075229 L 15.9159117150456 7.72675312217299 L 9.77109734498208 4.67212289637817 Z M 11 20.9517216918078 L 11.0000479920706 10.955886445736 L 10.9011437908497 11.0050844444445 L 10.729068150146 10.4881104556964 L 7.58233411916797 8.94707889582344 C 6.81188708741445 9.45651644568304 5.88911917811402 9.75333333333339 4.8986666666666 9.75333333333339 C 3.5531590701338 9.75333333333339 2.33292818243456 9.20556919001703 1.44959150326792 8.3211379323175 L 1.44959150326792 16.2924347826087 L 10.9160379604468 20.9925339674727 L 11 20.9517216918078 Z M 11.159238095238 0.760493827160417 L 8.75611674894037 1.89668807637284 C 9.19769186369285 2.46690848483979 9.51587624673232 3.13722856483002 9.67020796068948 3.86718552569138 L 16.7587288590476 7.30975012217115 L 20.7146225046939 5.35248307282816 L 11.159238095238 0.760493827160417 Z M 4.81799999999998 2.20146666666662 L 4.81799999999998 4.77106666666674 L 6.63116666666667 4.77106666666674 L 6.63116666666667 5.34013333333328 L 4.10666666666668 5.34013333333328 L 4.10666666666668 2.20146666666662 L 4.81799999999998 2.20146666666662 Z" transform="matrix(1 0 0 1 -508 -493 ) matrix(1 0 0 1 508 493 )"/></g></svg>