<svg xmlns="http://www.w3.org/2000/svg" xmlns:xlink="http://www.w3.org/1999/xlink" width="14" height="22" version="1.1"><g><path fill="#0079fe" fill-rule="nonzero" stroke="none" d="M 8.20884153437794 22 L 7.10833769308783 22 L 9.84831006663023 15.0285797558593 L 11.1054240668124 15.0285797558593 L 13.8185892960399 22 L 12.7223181617469 22 L 11.9759508058794 20.0679498470053 L 8.96508518452379 20.0679498470053 L 8.20884153437794 22 Z M 0.058755266851108 11.4553805830077 L 0.058755266851108 10.8188976328124 L 9.40510154947913 0 L 9.95535345910025 0 L 7.75566852088275 8.27296587304693 L 12.6880949761031 9.83070865136722 L 12.6656087201811 10.5 L 3.9078732543353 21 L 3.35762132404409 21 L 5.55730628293179 13.3635170566407 L 0.058755266851108 11.4553805830077 Z M 10.4620526032556 16.1717701953125 L 9.34602883630942 19.0836978710937 L 11.5752545655369 19.0836978710937 L 10.4620526032556 16.1717701953125 Z" transform="matrix(1 0 0 1 -740 -493 ) matrix(1 0 0 1 740 493 )"/></g></svg>