<svg xmlns="http://www.w3.org/2000/svg" xmlns:xlink="http://www.w3.org/1999/xlink" width="31" height="22" version="1.1"><g><path fill="#0079fe" fill-rule="nonzero" stroke="none" d="M 6.76067338204143 13.3356292449777 L 7.3180637464701 13.82075234375 C 7.51737576072003 13.9942178627232 7.81965641674719 13.9731090345982 7.99301919822017 13.7734215934709 C 8.16603691252965 13.5741487056362 8.14529825124475 13.2711972513952 7.94591724379461 13.0976280518973 L 7.49001176268951 12.7008442036831 L 7.94591724379461 12.3040603554687 C 8.14529825124475 12.1305257273996 8.16603691252965 11.8275742731586 7.99301919822017 11.628266813895 C 7.81965641674719 11.4285793390068 7.51737572699915 11.4074359732143 7.3180637464701 11.580936063616 L 6.76067338204143 12.0660591623883 L 6.2032830176131 11.580936063616 C 6.00397100336272 11.4074705446429 5.70169034733578 11.4286139104352 5.52832756586281 11.628266813895 C 5.35530985155322 11.82753970173 5.37604851283811 12.1305257273996 5.57542952028825 12.3040603554687 L 6.03130050479342 12.7008442036831 L 5.57542952028825 13.0976280518973 C 5.37604851283811 13.2711626799665 5.35530985155322 13.5741141342077 5.52832756586281 13.7734215934709 C 5.70169034733578 13.9731090683593 6.00397103708383 13.9942524341517 6.2032830176131 13.82075234375 L 6.76067338204143 13.3356292449777 Z M 18.7635967910227 12.3040949606585 C 18.9630123287938 12.1305602988281 18.9837509900788 11.8275743069195 18.8106987454481 11.6283014190848 C 18.6373359639753 11.4286139441963 18.3350552742271 11.407470578404 18.1357432936979 11.5809706688058 L 17.5783529292695 12.0660937675781 L 17.0209625648409 11.5809706688058 C 16.8216505505907 11.4075051498325 16.5193698945639 11.428648515625 16.3460071130909 11.6283014190848 C 16.1729893987812 11.8275743069195 16.1937280600662 12.1305603325892 16.3931090675163 12.3040949606585 L 16.8490145486214 12.7008788088727 L 16.3931090675163 13.097662657087 C 16.1937280600662 13.2711972851563 16.1729893987812 13.5741487393972 16.3460071130909 13.7734561986608 C 16.5193698945639 13.973143673549 16.8216505843119 13.9942870393415 17.0209625648409 13.8207869489397 L 17.5783529292695 13.3356638501673 L 18.1357432936979 13.8207869489397 C 18.3350553079481 13.9942524679129 18.6373359639753 13.973143639788 18.8106987454481 13.7734561986608 C 18.9837164597577 13.5741833108258 18.9629777984728 13.2712318565848 18.7635967910227 13.097662657087 L 18.3077258065176 12.7008788088727 L 18.7635967910227 12.3040949606585 Z M 18.1064469128083 19.0739493490514 C 17.739396748941 18.6342567873884 17.1972239374628 18.3745939946986 16.613746320136 18.3745939946986 C 16.1715055728857 18.3745939946986 15.7523154335427 18.5248432801339 15.4133194020326 18.7920029748884 C 15.3783983892872 18.8137336835938 15.3459273770065 18.8399210680804 15.3169070363592 18.8715670245535 C 15.3148711299792 18.873398061105 15.312628176557 18.8749527287947 15.3105922701768 18.876783765346 C 15.307728209349 18.8794094045759 15.305761296169 18.8825878152902 15.3029662285412 18.8852480259487 C 15.3025176378567 18.885800797433 15.301896530451 18.8862153844865 15.3014134094457 18.8867681222098 C 15.1088647520622 19.1175142444197 14.8263565827511 19.2527696919644 14.5209702885329 19.2527696919644 C 14.2655500432892 19.2527696919644 14.0259339280805 19.1585227446987 13.8401141309639 18.9904121509487 C 13.8364218819672 18.987060984375 13.8321085255648 18.9849190075334 13.8283127530469 18.9817060591517 C 13.8281402026047 18.9814987656251 13.8280367128046 18.9812223967634 13.8278641623624 18.9810151032366 C 13.4608139984952 18.5412189960937 12.9186411870169 18.2815907410713 12.3351635696902 18.2815907410713 C 11.8474771769098 18.2815907410713 11.386775218397 18.4627950270647 11.0320095197309 18.7837805454799 C 11.0201046182929 18.7945595387835 11.0109257912826 18.8070658881139 11.000401192219 18.8187431308593 C 10.9750731005685 18.8386082315848 10.9512633314135 18.8610298962054 10.9298000392018 18.8867336183036 C 10.7372513818185 19.1174797405134 10.4547432125074 19.2527351880581 10.1493569182892 19.2527351880581 C 9.89393667304546 19.2527351880581 9.65432055783663 19.1584882407924 9.46850076072008 18.9903776470424 C 9.46477401512334 18.9870264804688 9.4604606587211 18.9848845036273 9.45666488620316 18.9816715552455 C 9.45649233576114 18.9814642617188 9.45638884596087 18.9811878928571 9.45621629551886 18.9809805993304 C 9.08916613165127 18.5411844921875 8.5469933201731 18.2815562371652 7.96355023316733 18.2815562371652 C 7.47586384038721 18.2815562371652 7.01512738527413 18.4627605231585 6.66036168660821 18.7837460415736 C 6.47019403648926 18.9557951110492 6.4553560473023 19.2496258864397 6.62720054000079 19.4399853889508 C 6.79904503269915 19.6303794291294 7.09252642547938 19.6452350825892 7.28265957899828 19.4731860131138 C 7.46847937611471 19.3050754193639 7.70809545760255 19.2108284720981 7.96351573656739 19.2108284720981 C 8.26890203078563 19.2108284720981 8.55137570349655 19.3461184573102 8.74392436087987 19.5768300418526 C 8.76538765309158 19.6025337639509 8.78919745596761 19.6249899662389 8.81452551389725 19.6448205292969 C 8.82505011296064 19.6564977382813 8.83422897369201 19.6690386928013 8.84613384140903 19.6798176523437 C 9.20089954007506 20.0008031707589 9.66163599518802 20.1819729190849 10.1492878913681 20.1819729190849 C 10.732765508695 20.1819729190849 11.2749382864521 19.9223446640625 11.6419884840406 19.4825485569195 C 11.6421610344827 19.4823412633929 11.6422645242828 19.4820648945312 11.642471571325 19.4818576010044 C 11.6462328135218 19.4786446526228 11.6505807002453 19.4765026757813 11.6542729492419 19.4731515092075 C 11.8400927463586 19.3050409154576 12.0796743312462 19.2107939681919 12.335129106811 19.2107939681919 C 12.6405154010292 19.2107939681919 12.9229890737404 19.346083953404 13.1155722277238 19.5767955379465 C 13.1370355199355 19.6024992600447 13.1608453228115 19.6249209246652 13.1861733807409 19.6447860253906 C 13.1967325101255 19.656463234375 13.2058768405359 19.669004188895 13.2178162385738 19.6797831484375 C 13.5725819372399 20.0007686668526 14.0333183923527 20.1819384151786 14.5209702885329 20.1819384151786 C 15.0701824971203 20.1819384151786 15.5808850012077 19.9497412720423 15.9452781512894 19.5559285747768 C 16.1293380822682 19.394520280413 16.3638126529058 19.3037972218192 16.613746320136 19.3037972218192 C 16.9191326143542 19.3037972218192 17.2016062870651 19.4390526693638 17.3941894410485 19.6697987915736 C 17.5585459122325 19.8667224090403 17.8511991505648 19.8929789026228 18.0478886476293 19.7284267689732 C 18.2445436143727 19.5638746353236 18.2707688873923 19.270873000279 18.1064469128083 19.0739493490514 Z M 30.5981608755388 5.54657433454236 C 30.983810338232 5.15918746651789 30.5616180842188 5.12937254659596 30.5616180842188 5.12937254659596 C 30.2471909831116 5.08829497098213 29.8915625996767 4.99280429631693 29.8915625996767 4.99280429631693 C 28.9962804321492 4.75722144893967 28.0144548602854 3.90074185518972 27.5439874639565 2.95101721037946 C 27.0735545642277 2.00139621233262 26.0997691280842 0.858340914062467 26.0997691280842 0.858340914062467 C 25.3606653096202 0.144855501116126 25.0307445815994 0.00597251813621824 24.349646880388 0.0435607765067516 C 23.6684111590554 0.0811835387834776 23.4900793834535 0.717281416573599 23.4900793834535 0.717281416573599 L 21.7074170965554 5.06459507505576 L 21.0220060389416 6.67404845200895 C 18.8487253626635 4.5234351342076 15.8612193114595 3.19447704296874 12.5627367970608 3.19447704296874 C 5.91870437787964 3.19447704296874 0.532518383248998 8.58241116071429 0.532518383248998 15.2289291079799 C 0.532518383248998 17.2887847957589 1.05081239865115 19.2744659642857 2.02483937843715 21.0387980245536 C 2.13332916226966 21.2353070887277 2.38039873495097 21.306545062221 2.57667413793104 21.1979606953125 C 2.77294954091121 21.0893417569754 2.84410280813381 20.8419780538504 2.73561302430142 20.6454689896763 C 1.82763229748809 19.0008111961496 1.34463885859475 17.1503509712611 1.34463885859475 15.2289636794085 C 1.34463885859475 9.03167345842638 6.36708734087017 4.00763347126122 12.5627367633398 4.00763347126122 C 18.7583861858093 4.00763347126122 23.7808346680848 9.03167345842638 23.7808346680848 15.2289636794085 C 23.7808346680848 16.8803928814174 23.42420557976 18.4805873613281 22.7448677446864 19.9454573183593 C 22.5847211063838 20.2907991847098 22.4070449347875 20.6276076813616 22.2126674517874 20.9546736523437 C 22.0980009556145 21.1476242564174 22.1612521409594 21.3971299363839 22.3540078116639 21.5119329740513 C 22.5467289857684 21.6267705493862 22.7959379883509 21.5634094935825 22.9106045182447 21.3704588895089 C 23.1190953595052 21.0196239135045 23.3096771037084 20.6583208507254 23.4814870998067 20.2878626051897 C 24.2103423931703 18.7162393178014 24.5929896737515 16.9992725454799 24.5929896737515 15.2289291417411 C 24.5929896737515 12.3602010131139 23.5879754738593 9.72729752929695 21.9131473330669 7.65953035239954 L 21.9502077757135 7.6963585119978 L 23.0773764932929 4.96582237667405 C 23.309332036545 4.57701912667414 23.6508815920407 4.47251141992189 23.6508815920407 4.47251141992189 C 24.4206620937686 4.27717700781255 24.9072097278166 4.77784668219863 24.9072097278166 4.77784668219863 C 25.6186045148074 5.25574924776788 26.083757849844 6.19258749386159 27.6041329773893 6.49059857617186 C 29.1245771318557 6.78847147405139 30.2850450161638 5.86106481333707 30.5981608755388 5.54657433454236 Z" transform="matrix(1 0 0 1 -240 -541 ) matrix(1 0 0 1 240 541 )"/></g></svg>