<svg xmlns="http://www.w3.org/2000/svg" xmlns:xlink="http://www.w3.org/1999/xlink" width="31" height="22" version="1.1"><g><path fill="#0079fe" fill-rule="nonzero" stroke="none" d="M 30.3507692307692 13.367578125 C 30.3507692307692 13.2587239583334 30.3237692307692 13.1498697916665 30.2697692307693 13.0682291666667 L 26.1927692307693 6.89075520833332 C 26.0847692307692 6.72747395833343 25.9227692307692 6.6458333333334 25.7337692307692 6.6458333333334 L 21.7107692307692 6.6458333333334 L 21.7107692307692 1.203125 C 21.7107692307692 0.604427083333434 21.2247692307692 0.1145833333334 20.6307692307693 0.1145833333334 L 1.19076923076932 0.1145833333334 C 0.596769230769155 0.1145833333334 0.110769230769279 0.604427083333434 0.110769230769279 1.203125 L 0.110769230769279 16.4427083333334 C 0.110769230769279 17.04140625 0.596769230769155 17.53125 1.19076923076932 17.53125 L 2.27076923076925 17.53125 C 2.27076923076925 19.9260416666666 4.21476923076921 21.8854166666666 6.5907692307693 21.8854166666666 C 8.96676923076927 21.8854166666666 10.9107692307692 19.9260416666666 10.9107692307692 17.53125 L 19.5507692307692 17.53125 C 19.5507692307692 19.9260416666666 21.4947692307692 21.8854166666666 23.8707692307692 21.8854166666666 C 26.2467692307692 21.8854166666666 28.1907692307692 19.9260416666666 28.1907692307692 17.53125 L 29.2707692307691 17.53125 C 29.8647692307693 17.53125 30.3507692307692 17.04140625 30.3507692307692 16.4427083333334 L 30.3507692307692 13.367578125 Z M 8.75076923076927 17.53125 C 8.75076923076927 18.7286458333333 7.77876923076917 19.7083333333334 6.5907692307693 19.7083333333334 C 5.4027692307692 19.7083333333334 4.43076923076922 18.7286458333333 4.43076923076922 17.53125 C 4.43076923076922 16.3338541666667 5.4027692307692 15.3541666666666 6.5907692307693 15.3541666666666 C 7.77876923076917 15.3541666666666 8.75076923076927 16.3338541666667 8.75076923076927 17.53125 Z M 19 2.2916666666666 L 19 15.3541666666666 L 10.3167692307692 15.3541666666666 C 9.56076923076932 14.0479166666666 8.18376923076926 13.1770833333334 6.5907692307693 13.1770833333334 C 4.99776923076922 13.1770833333334 3.59376923076923 14.0479166666666 2.8647692307693 15.3541666666666 L 2.27076923076925 15.3541666666666 L 2.27076923076925 2.2916666666666 L 19 2.2916666666666 Z M 26.0307692307692 17.53125 C 26.0307692307692 18.7286458333333 25.0587692307693 19.7083333333334 23.8707692307692 19.7083333333334 C 22.6827692307693 19.7083333333334 21.7107692307692 18.7286458333333 21.7107692307692 17.53125 C 21.7107692307692 16.3338541666667 22.6827692307693 15.3541666666666 23.8707692307692 15.3541666666666 C 25.0587692307693 15.3541666666666 26.0307692307692 16.3338541666667 26.0307692307692 17.53125 Z M 28.1907692307692 13.3403645833335 L 28.1907692307692 15.3541666666666 L 27.5967692307692 15.3541666666666 C 26.8407692307692 14.0479166666666 25.4637692307692 13.1770833333334 23.8707692307692 13.1770833333334 C 23.0877692307693 13.1770833333334 22.3587692307692 13.3947916666666 21.7107692307692 13.77578125 L 21.7107692307692 8.8229166666666 L 24.9237692307693 8.8229166666666 C 25.1127692307692 8.8229166666666 25.2747692307692 8.90455729166663 25.3557692307692 9.06783854166653 L 28.0827692307693 13.041015625 C 28.1367692307691 13.12265625 28.1907692307692 13.2315104166666 28.1907692307692 13.3403645833335 Z" transform="matrix(1 0 0 1 -555 -493 ) matrix(1 0 0 1 555 493 )"/></g></svg>