<svg xmlns="http://www.w3.org/2000/svg" xmlns:xlink="http://www.w3.org/1999/xlink" width="22" height="22" version="1.1"><g><path fill="#0079fe" fill-rule="nonzero" stroke="none" d="M 20.40121875 12.15426953125 L 20.226271484375 12.15426953125 L 20.226271484375 19.6369765625 L 19.4303613281251 19.6369765625 C 19.39862890625 19.6369765625 19.350826171875 19.6369765625 19.31879296875 19.653111328125 L 19.31879296875 12.1543554687501 L 13.093845703125 12.1543554687501 L 13.093845703125 20.8470624999999 L 18.52292578125 20.8470624999999 C 18.968876953125 20.8470624999999 19.33494921875 20.4812050781251 19.33494921875 20.0350390624999 L 19.33494921875 19.636955078125 L 20.2584550781249 19.636955078125 L 20.2584550781249 20.0350390624999 C 20.2584550781249 20.990556640625 19.478357421875 21.75460546875 18.5388886718749 21.75460546875 L 3.98745703124996 21.75460546875 C 3.03193945312501 21.75460546875 2.26789062500006 20.990599609375 2.26789062500006 20.0350390624999 L 2.26789062500006 12.13828515625 L 1.98128906249997 12.13828515625 C 1.07381054687505 12.13828515625 0.325767578124896 11.40596875 0.325767578124896 10.4827636718751 L 0.325767578124896 6.50263281250005 C 0.325767578124896 5.59515429687491 1.07417578125001 4.84711132812492 1.98128906249997 4.84711132812492 L 6.26400585937506 4.84711132812492 L 5.850044921875 4.52860546875002 C 5.65902734374993 4.38517578124998 5.49984960937502 4.22625585937493 5.37249023437494 4.05105078125007 C 4.75157031250001 3.19126757812506 5.0066328124999 2.22017382812498 5.03823632812498 2.1087128906251 C 5.06996875000004 1.98131054687497 5.18166601562507 1.55145117187493 5.48418749999996 1.10575781250003 C 5.81844140625003 0.62820312499997 6.45536718749997 0.0548496093749691 7.56976171874999 0.0548496093749691 L 7.68133007812503 0.0548496093749691 C 8.74783593749999 0.0865820312500318 9.57582226562499 0.46881054687509 10.164859375 1.15341015625 C 10.86555078125 1.98141796874995 11.040455078125 3.95544531249999 11.072337890625 4.73554296875005 L 11.422533203125 4.73554296875005 C 11.4542656249999 3.93963281250001 11.6291914062499 1.98126757812497 12.33001171875 1.15341015625 C 12.9189199218749 0.452718750000031 13.7470351562499 0.0869042968749909 14.813541015625 0.0548496093749691 L 14.925109375 0.0548496093749691 C 16.0395253906249 0.0548496093749691 16.6764296875001 0.628095703124984 17.0106835937501 1.10575781250003 C 17.313033203125 1.53553125000002 17.4246445312499 1.98135351562496 17.4566347656249 2.1087128906251 C 17.4883671875 2.22028124999997 17.758984375 3.19124609375007 17.122380859375 4.05105078125007 C 16.994978515625 4.22599804687502 16.835779296875 4.38530468750002 16.644826171875 4.52860546875002 L 16.230865234375 4.84711132812492 L 20.3384199218749 4.84711132812492 C 21.2458984375 4.84711132812492 21.99394140625 5.57942773437503 21.99394140625 6.50263281250005 L 21.99394140625 10.4827636718751 C 21.977806640625 11.3902421875001 21.2776953125 12.1227089843749 20.401798828125 12.1544843749999 Z M 3.15925585937498 20.0511523437499 L 3.14309960937499 20.05106640625 C 3.14309960937499 20.4970175781251 3.50895703125002 20.8630898437499 3.95512304687497 20.8630898437499 L 9.384203125 20.8630898437499 L 9.384203125 12.1703828125 L 3.15925585937498 12.1703828125 L 3.15925585937498 20.0511523437499 Z M 1.9489335937501 5.80202734375007 C 1.53497265625003 5.80202734375007 1.21661718749999 6.13628125000002 1.21661718749999 6.53434374999995 L 1.21661718749999 10.5144746093751 C 1.21661718749999 10.9125585937499 1.55087109375006 11.246791015625 1.9489335937501 11.246791015625 L 9.38398828125003 11.246791015625 L 9.38398828125003 5.80189843749997 L 1.9489335937501 5.80189843749997 Z M 9.44747460937492 1.7738359375 C 9.03351367187497 1.28031835937503 8.42840624999997 1.025427734375 7.63243164062499 0.99373828125016 L 7.55289648437497 0.99373828125016 C 6.97965039062501 0.99373828125016 6.53382812500001 1.21663867187516 6.21536523437499 1.66243945312516 C 5.97671679687494 1.99669335937494 5.91301562500007 2.33114062500016 5.91301562500007 2.34697460937502 L 5.91301562500007 2.37870703125003 L 5.89688085937507 2.39484179687497 C 5.88074609374996 2.45854296875001 5.72193359375001 3.06354296874997 6.08789843750014 3.55693164062501 C 6.50185937499998 4.09833789062498 7.42542968750001 4.81469140625012 8.76233789062496 4.81469140625012 C 9.1281953125 4.81469140625012 9.54243554687503 4.79855664062495 9.97231640625 4.75099023437502 L 10.13134375 4.73485546875003 L 10.13134375 4.57582812499999 C 10.147478515625 4.00258203124997 10.05180859375 2.50613085937505 9.44680859375001 1.77379296874994 Z M 12 5.80202734375007 L 10 5.80202734375007 L 10 20.863240234375 L 12 20.863240234375 L 12 5.80202734375007 Z M 16.3723398437501 3.55731835937496 L 16.373392578125 3.55686718750007 C 16.7555351562499 3.03170312500004 16.56441015625 2.41052539062491 16.56441015625 2.39477734375004 L 16.548275390625 2.36304492187497 L 16.548275390625 2.33131250000002 C 16.532140625 2.2995800781249 16.468740234375 1.94916992187495 16.22976953125 1.61506640624998 C 15.9274199218751 1.20110546875003 15.4813613281251 0.97803320312488 14.9241640624999 0.97803320312488 L 14.84462890625 0.97803320312488 C 14.04871875 1.009765625 13.4435898437499 1.26463476562498 13.0295859375 1.75813085937511 C 12.4245 2.47437695312499 12.3288945312499 3.98715625000011 12.3288945312499 4.57621484374999 L 12.3288945312499 4.73524218750003 L 12.487921875 4.75137695312503 C 12.9176953125 4.79937304687508 13.3315703124999 4.8150781249999 13.697900390625 4.8150781249999 C 15.035431640625 4.83121289062484 15.974578125 4.11438671874993 16.3723398437501 3.55731835937496 Z M 21.0541289062501 6.53430078125001 C 21.0541289062501 6.13621679687498 20.719875 5.80198437500007 20.3218125000001 5.80198437500007 L 13.077904296875 5.80198437500007 L 13.077904296875 11.246876953125 L 20.3218125000001 11.246876953125 C 20.7357734375 11.246876953125 21.0541289062501 10.9126230468751 21.0541289062501 10.514560546875 L 21.0541289062501 6.53442968749988 Z" transform="matrix(1 0 0 1 -1204 -246 ) matrix(1 0 0 1 1204 246 )"/></g></svg>