<svg xmlns="http://www.w3.org/2000/svg" xmlns:xlink="http://www.w3.org/1999/xlink" width="22" height="22" version="1.1"><g><path fill="#0079fe" fill-rule="nonzero" stroke="none" d="M 1.8040400000001 15.6716719999999 C 2.63076799999999 17.458928 3.957224 19.0565839999999 5.75367199999982 20.1714319999999 C 10.6889120000001 23.2387760000001 17.17808 21.6905360000003 20.248616 16.717136 C 23.318672 11.745056 21.8072719999999 5.22982400000024 16.8716479999998 2.16387200000008 C 11.935472 -0.900640000000067 5.44808 0.646615999999767 2.37617599999999 5.61951199999999 C 2.12623999999994 6.0229760000002 1.911608 6.43784000000028 1.72644799999989 6.85875200000009 L 1.24104800000009 5.41719200000011 C 1.14267200000006 5.12508800000001 0.829040000000077 4.96995199999992 0.538231999999994 5.06892799999991 C 0.24960800000008 5.17008800000008 0.0921680000000151 5.485952 0.191984000000048 5.77860799999985 L 1.05948799999999 8.36633599999982 C 1.11005599999987 8.51513600000021 1.21606399999996 8.62803199999985 1.34731999999997 8.69247199999995 C 1.47531200000003 8.75731999999994 1.62591200000008 8.77267999999981 1.774856 8.7221840000002 L 4.35406399999999 7.83641599999987 C 4.64535199999989 7.73612000000003 4.80591200000003 7.41999199999987 4.70695999999998 7.12915999999996 C 4.60858399999984 6.83705599999985 4.29497600000002 6.68194399999993 4.00419199999999 6.78080000000023 L 2.60283200000003 7.25967199999991 C 2.76869600000009 6.8999839999999 2.959112 6.54761599999983 3.17189600000006 6.20038399999998 C 5.95411999999999 1.69831999999997 11.828816 0.296624000000065 16.2985759999999 3.07162399999993 C 20.7665359999999 5.84746399999995 22.1365040000001 11.7469519999997 19.3560800000001 16.2482000000002 C 16.5766160000001 20.7511760000002 10.6987280000001 22.1533280000001 6.23079200000006 19.3774639999999 C 4.60150400000009 18.3657920000001 3.39888800000006 16.9362800000001 2.64595999999995 15.316904 C 2.60095999999987 15.19892 2.50630399999989 15.1007119999997 2.37764000000016 15.0538880000001 C 2.14335199999994 14.9686160000001 1.88158399999998 15.0916880000002 1.79482399999984 15.33008 C 1.76506399999994 15.411824 1.76463200000001 15.496592 1.77960799999994 15.5763440000001 C 1.79446400000006 15.6105680000001 1.79184799999996 15.6384560000001 1.8040400000001 15.6716719999999 Z M 6.89928644122381 11.5774636521739 L 10.2239328180356 11.5805972173914 L 10.2239328180356 13.2363784347826 L 6.89928644122381 13.2363784347826 C 6.59565668276969 13.2363784347826 6.34629784218987 13.4812518260871 6.34629784218987 13.7754855652174 C 6.34629784218987 14.0697728695654 6.59568431562002 14.3114591304347 6.89928644122381 14.3114591304347 L 10.2239328180356 14.314619478261 L 10.2239328180356 17.4955631304347 C 10.2239328180356 17.7898504347825 10.4733192914654 18.029956521739 10.7785241223833 18.029956521739 C 11.0837842190015 18.029956521739 11.3298823832527 17.7898236521739 11.3298823832527 17.4955631304347 L 11.3347733977455 14.3146462608695 L 14.6576512721419 14.3146462608695 C 14.9628837359099 14.3146462608695 15.2090371658614 14.068192695652 15.2090371658614 13.772352 C 15.2090371658614 13.4749311304347 14.9628837359099 13.2363784347826 14.6576512721419 13.2363784347826 L 11.3348010305956 13.2363784347826 L 11.3348010305956 11.5823113043477 L 14.6576789049921 11.5823113043477 C 14.9629113687602 11.5823113043477 15.2090647987117 11.3357238260871 15.2090647987117 11.0399099130434 C 15.2090647987117 10.7440424347824 14.9629113687602 10.5039363478261 14.6576789049921 10.5039363478261 L 11.3348010305956 10.5039363478261 L 11.3348010305956 9.51788104347838 L 14.629880257649 6.38458365217366 C 14.8579894363933 6.18896347826035 14.8760336876006 5.84705669565187 14.6708321417069 5.62438608695652 C 14.4690018035428 5.40171547826071 14.1194738808373 5.38267304347801 13.8913370692431 5.57984660869556 L 10.7933076972627 8.54125321739161 L 7.53265900161034 5.43674713043492 C 7.3029194847021 5.24101982608681 6.95510479871189 5.26174956521731 6.75167175523347 5.48442017391312 C 6.54973088566828 5.70393043478248 6.57114634460561 6.0426233043479 6.79922789049931 6.23824347826076 L 10.2239051851855 9.49235721739137 L 10.2239051851855 10.5039095652173 L 6.89928644122381 10.5039095652173 C 6.59565668276969 10.5039095652173 6.3479281803543 10.7456226086956 6.3479281803543 11.0414633043479 C 6.3479281803543 11.3388841739134 6.59568431562002 11.5774636521739 6.89928644122381 11.5774636521739 Z" transform="matrix(1 0 0 1 -112 -492 ) matrix(1 0 0 1 112 492 )"/></g></svg>