<svg xmlns="http://www.w3.org/2000/svg" xmlns:xlink="http://www.w3.org/1999/xlink" width="23" height="22" version="1.1"><g><path fill="#0079fe" fill-rule="nonzero" stroke="none" d="M 22.4336444747024 10.7592596193693 C 22.4336444747024 16.9077280878378 17.4233068065475 21.9101588783784 11.2648133194444 21.9101588783784 C 5.10631981101199 21.9101588783784 0.0959821428571104 16.9077280878378 0.0959821428571104 10.7592596193693 C 0.0959821428571104 5.83824406418921 3.39624764930557 1.43684194256758 8.12190422271829 0.056019659909964 C 8.15535406710796 0.0461540477410267 8.19004001823942 0.0411449623564977 8.22490566765873 0.0411449623564977 C 8.42657636314698 0.0411449623564977 8.59006276379432 0.205145148046768 8.59006276379432 0.40744962950447 C 8.59006276379432 0.569958516354802 8.48332848908012 0.713040012963745 8.32790711259918 0.758879599099032 C 3.91299223611111 2.04907453490989 0.829402065972204 6.16116626689188 0.829402065972204 10.7592596193693 C 0.829402065972204 16.5041375979729 5.51063149156744 21.1779197398648 11.2648133194444 21.1779197398648 C 17.0189951473214 21.1779197398648 21.7002245729167 16.5041375979729 21.7002245729167 10.7592596193693 C 21.7002245729167 6.18257821846851 18.7645593511904 2.18725633558557 14.394816187996 0.817389029279241 C 14.2421413207085 0.769871293834058 14.138081467396 0.628188581821348 14.138081467396 0.467831824223083 C 14.138081467396 0.430673334510857 14.1437224526064 0.393731522314908 14.1548104295634 0.358276816441389 C 14.2162949338261 0.16521671633592 14.4216606254857 0.0582066322123751 14.6144698715277 0.118761661036046 C 19.2914799861111 1.58473383445948 22.4336444747024 5.8609009009009 22.4336444747024 10.7592596193693 Z M 9.04668344543654 16.4346732128378 C 9.04668344543654 14.6303423423423 10.0357454925595 13.8229123513514 11.0156242881944 13.8229123727477 C 11.9957512723215 13.8229123727477 12.9848133194445 14.6303423423423 12.9848133194445 16.4346732128378 C 12.9848133194445 18.0500311103604 11.3343082728175 19.7448124527027 11.2640687326389 19.8160196599099 C 11.1984595860409 19.882649672603 11.1089856586765 19.920151273689 11.0156242881944 19.920151273689 C 10.9222629177124 19.920151273689 10.832788990348 19.882649672603 10.76717984375 19.8160196599099 C 10.6966921150794 19.7448124527027 9.04668344543654 18.0500311317567 9.04668344543654 16.4346732128378 Z M 9.74188112499996 16.4346732128378 C 9.74188112499996 17.4335659256756 10.5837627891865 18.549726445946 11.015376078373 19.0563931126127 C 11.4469893462301 18.5489795191442 12.2896156185516 17.4308271869369 12.2896156185516 16.4346732128378 C 12.2896156185516 15.2677215416667 11.789251984127 14.5138214617118 11.0156242881944 14.5138214617118 C 10.2417483824405 14.5138214617118 9.74188114632943 15.2677215416667 9.74188112499996 16.4346732128378 Z M 8.74512499999992 8.93351679729733 C 8.74512499999992 7.68963147297302 9.76372239484124 6.67779197184677 11.0156242881944 6.67779197184677 C 12.2675261602183 6.67779197184677 13.2858753665674 7.68963145157653 13.2858753665674 8.93351679729733 C 13.2858753665674 10.177402143018 12.2675261602183 11.1892416227477 11.0156242881944 11.1892416013513 C 9.76372241617059 11.1892416013513 8.74512499999992 10.1774021216216 8.74512499999992 8.93351679729733 Z M 9.44057088938496 8.93351679729733 C 9.44057088938496 9.79646848986488 10.1469374136905 10.4985815022523 11.0156242881944 10.4985814808559 C 11.8843111626984 10.4985814808559 12.5906776870039 9.7964684684685 12.5906776656745 8.93351679729733 C 12.5906776656745 8.0705651261261 11.884311141369 7.36870108220717 11.0156242881944 7.36870106081079 C 10.1469374350198 7.36870103941436 9.44057088938496 8.07056510472972 9.44057088938496 8.93351679729733 Z M 15.0393818581349 9.25444716666664 C 15.0393818581349 10.5172546936937 14.8373501121032 11.732507766892 14.4531423179563 12.795138418919 C 15.7432664122024 13.214165445946 16.4739561765873 13.8570221227478 16.4739561765873 14.5872694493243 C 16.4739561765873 14.7779852657657 16.3183371289682 14.9325994988739 16.1264814310516 14.9325994988739 C 16.125900861099 14.9326024307392 16.12532028471 14.9326038966789 16.1247397074007 14.9326038966789 C 15.9343335830574 14.9326038966789 15.7797121966788 14.778271562665 15.7787584756944 14.5872694493243 C 15.7787584756944 14.1460835439188 15.0421120168651 13.6613267871622 13.9023948412698 13.3523472466217 C 13.8065365842432 13.3264932305632 13.7263064635242 13.2606935471394 13.6819965709326 13.1715904898649 C 13.6379289429248 13.0827504651432 13.6344875361431 12.9790930065079 13.6725651096231 12.8875086092343 C 14.1118724766865 11.8273677488738 14.344184157242 10.5710335945946 14.344184157242 9.25444716666664 C 14.344184157242 6.40516298310814 11.7840398551588 3.95374282207212 11.0156242881944 3.2825028626126 C 10.2472086999007 3.95374284346843 7.68706439781749 6.40516298310814 7.68706439781749 9.25444716666664 C 7.68706439781749 10.5710335731982 7.919127889881 11.8273677274775 8.35868344543644 12.8875086092343 C 8.39665747916672 12.9791318727478 8.393430922123 13.082457018018 8.34925198412691 13.1715904898649 C 8.30494209153528 13.2606935471394 8.22471197081632 13.3264932305632 8.12885371378968 13.3523472466217 C 6.98913653819443 13.6613267657658 6.25273826785713 14.1460835225225 6.25273826785713 14.5872694493243 C 6.25273826785713 14.7779852657657 6.09687103174599 14.9325994988739 5.9050153338294 14.9325994988739 C 5.71315963591269 14.9325994988739 5.5575405882937 14.7779852443694 5.5575405882937 14.5872694493243 C 5.5575405882937 13.8570221013513 6.28823035267862 13.214165445946 7.57785804861112 12.795138418919 C 7.19365025446427 11.7325077882882 6.9918666969246 10.5170057466216 6.9918666969246 9.25444716666664 C 6.9918666969246 5.58080262274774 10.6448190778771 2.67998034009003 10.8006863353174 2.55847994031529 C 10.9271228761767 2.45988073512416 11.1041256788828 2.45988073512416 11.2305622197421 2.55847994031529 C 11.3861812673611 2.67998034009003 15.0393818368055 5.58080262274774 15.0393818581349 9.25444716666664 Z" transform="matrix(1 0 0 1 -24 -492 ) matrix(1 0 0 1 24 492 )"/></g></svg>