<svg xmlns="http://www.w3.org/2000/svg" xmlns:xlink="http://www.w3.org/1999/xlink" width="22" height="22" version="1.1"><g><path fill="#0079fe" fill-rule="nonzero" stroke="none" d="M 16.238755671875 11.9773048398438 C 15.7552444414063 14.5120323476562 13.5433360175781 16.3317753886718 10.9870872460938 16.3317753886718 C 9.74315776757817 16.3317753886718 8.54561857617193 15.8932196972656 7.60107388476558 15.1103236796875 L 7.37103541796876 15.3867524550781 C 8.39281891432381 16.2189038949177 9.66979701398031 16.6741714139612 10.9875654882812 16.6761157363281 C 13.7284189453125 16.6761157363281 16.0775852617188 14.7181582968749 16.6074868007812 12.0461729179688 L 16.238755671875 11.9773048398438 Z M 14.37262234375 6.86480729687499 L 14.6036173164063 6.56542248828121 C 13.5818014734606 5.73327121085171 12.3048801713309 5.27785508389371 10.9870872460938 5.27558096484377 C 8.24623378906244 5.27558096484377 5.89611096679687 7.233060140625 5.36668769140624 9.90600204687496 L 5.73541879882816 9.97487010351563 C 6.19549575390624 7.46405511328122 8.40692593554684 5.64431207226568 10.9870872460938 5.64431207226568 C 12.2305384824219 5.64431207226568 13.4290341582031 6.08191125781248 14.37262234375 6.86480729687499 Z M 18.4028390605469 14.9725875449219 L 17.8275037402344 14.9491532695313 L 17.4587726328125 14.6272907128906 L 17.3210364980469 15.1337579550781 L 16.8600030371093 15.4106649941406 L 17.2980804863281 15.6866155058594 L 17.3899045761718 16.1935610117188 L 17.8040694863281 15.8707419492188 L 18.311493234375 15.9166539941406 C 16.7222669238281 18.2667768164063 14.0502815234375 19.8330471152344 11.009565015625 19.8330471152344 C 6.14958370898444 19.8330471152344 2.21071281835941 15.8936979609375 2.21071281835941 11.0337166542969 C 2.21071281835941 6.17373534765623 6.14958370898444 2.23534269921872 11.009565015625 2.23534269921872 C 15.8695463222656 2.23534269921872 19.8088954550782 6.17373534765623 19.8088954550782 11.0337166542969 C 19.8088954550782 12.8305036835937 19.2560379042968 14.5120323476562 18.3344492460938 15.9161757304687 L 18.17280059375 15.4560987753906 L 18.4028390605469 14.9725875449219 Z M 20.2001043535156 10.987804609375 C 20.1771483203125 5.89730657226564 16.0541510078125 1.77430925976562 10.9870872460938 1.77430925976562 C 5.89611096679687 1.77430925976562 1.77359189648439 5.89730659374997 1.77359187499997 10.987804609375 C 1.77359185351565 16.0783026249999 5.89658920898432 20.2017782226562 10.9870872460938 20.2017782226562 C 16.0771070195312 20.2017782226562 20.2001043535156 16.0783026464844 20.2001043535156 10.987804609375 Z M 21.2374296191407 10.9873263671874 C 21.2374296191407 16.6306819550781 16.6299645703125 21.2376687617188 10.9870872460938 21.2376687402343 C 5.34373165820318 21.2376687402343 0.736744851562548 16.6306819335938 0.736744851562548 10.9873263671874 C 0.736744851562548 5.34444904296878 5.34373165820318 0.737462236328142 10.9870872460938 0.737462236328142 C 16.6299645703125 0.737462236328142 21.237429640625 5.32101476757815 21.2374296191407 10.9873263671874 Z M 21.9744135917969 10.9873263671874 C 21.9744135703125 4.92980586914062 17.0446077226562 0.000478242187554656 10.9870872460938 0.000478242187554656 C 4.92908850585934 0.000478242187554656 0.00023912109372759 4.92980586914062 0.00023912109372759 10.987804609375 C 0.00023912109372759 17.0453251074218 4.92908850585934 21.974652734375 10.9870872460938 21.974652734375 C 17.0446077441406 21.974652734375 21.9744136132812 17.0448468652344 21.9744135917969 10.9873263671874 Z M 7.78520032812503 17.4370122480468 L 7.4164691992188 17.0682811191406 L 7.2557770527344 17.5522706132812 L 6.79474359179687 17.7823090800781 L 7.2093867441406 18.1051281425782 L 7.30168909765621 18.61159540625 L 7.71633225000005 18.3126888613281 L 8.22279951367193 18.4040346875 L 8.06210734570311 17.8975674453125 L 8.29214581250005 17.436533984375 L 7.78520032812503 17.436533984375 Z M 11.6092910957032 18.5202495585938 L 11.6781591738281 18.0128258105468 L 11.1712136679688 18.1510401875 L 10.7106584707032 17.8980456875 L 10.7106584707032 18.4045129511718 L 10.3419273417969 18.750288046875 L 10.8493511113281 18.9348927109375 L 11.079389578125 19.3954479296875 L 11.3787743652343 19.0037607890625 L 11.8852416289062 18.9348927109375 L 11.6092910957032 18.5202495585938 Z M 15.0177822265625 17.5981826582031 L 14.9025238613282 17.1146714277343 L 14.5113149628907 17.4370122480468 L 13.9814134453126 17.3906219394531 L 14.18945240625 17.8511771582031 L 13.9814134453126 18.3126888613281 L 14.5113149628907 18.2662985527344 L 14.9025238613282 18.5886393730469 L 15.0177822265625 18.1051281425782 L 15.4783374238281 17.8511771582031 L 15.0177822265625 17.5981826582031 Z M 4.44557727539063 7.18810460156251 L 4.95252278124997 7.16419208398433 L 5.32077562500001 7.53292319140623 L 5.50538031054691 7.04941196093749 L 5.98889154101562 6.81937349414062 L 5.57424838867189 6.51998868554693 L 5.50490206835934 6.01352144335937 L 5.06730288281244 6.31290623046881 L 4.56083564062499 6.24355993164059 L 4.69905001757809 6.72754940429687 L 4.44557727539063 7.18810460156251 Z M 10.5040542578125 3.59453054296871 L 10.4112736621094 4.10051956445307 L 10.9177409257812 3.9623051660156 L 11.4017303984375 4.21577790820312 L 11.4017303984375 3.70931066601564 L 11.7704615058593 3.36353557031249 L 11.2639942636719 3.17940914843753 L 11.0105215 2.71933219335943 L 10.7111367128906 3.11054107031254 L 10.1817134375 3.17940914843753 L 10.5040542578125 3.59453054296871 Z M 14.5572270078125 4.69976740234374 L 14.9259581367187 5.06849850976555 L 15.0876067890625 4.58498727929691 L 15.5486402499999 4.35447054882815 L 15.1105628222656 4.03212972851561 L 15.0187387324219 3.52518424414069 L 14.6045738222656 3.82456903125004 L 14.0971500527344 3.73274494140628 L 14.2587987265625 4.23921218359375 L 14.0287602382813 4.70024564453129 L 14.5572270078125 4.70024564453129 Z M 7.04821633398433 4.74520118359378 L 7.16395296289056 5.25214668945314 L 7.57859611523441 4.92932762695307 L 8.10801939062503 4.97571791406254 L 7.90045869335938 4.51516271679689 L 8.10801939062503 4.05460749804691 L 7.57859611523441 4.10099780664062 L 7.16395296289056 3.7786569863281 L 7.04821633398433 4.2387339414062 L 6.58813937890625 4.49220668359381 L 7.04821633398433 4.74520118359378 Z M 7.41742570507813 10.3436012324219 L 8.0845851152344 12.2546901210937 L 5.27486358007809 13.2681028691406 L 5.73541879882816 14.5345101171875 C 5.80428687695314 14.6956805273437 5.91954522070307 14.7650268476562 6.08071563085934 14.6956805273437 L 8.36101389062503 13.8668724648438 C 8.43036021093747 13.8439164316406 8.49922826757813 13.7745701328126 8.54561857617193 13.7057020546875 C 8.59153062109374 13.6138779648437 8.54561857617193 13.3140149140626 8.38444816601566 12.8305036835937 L 8.86795939648437 12.8070694082031 C 9.02912980664064 13.4063172460938 9.07504185156256 13.7740918691407 9.00665203710935 13.9127845097657 C 8.93730571679691 14.0514771503906 8.79861307617182 14.1657790097656 8.63792090820311 14.2356035722655 L 6.10462816992185 15.1337579550781 C 5.73589706249993 15.2719723320312 5.45946828710942 15.1337579550781 5.32077562500001 14.7420708144531 L 4.46901155078126 12.3699484863281 L 4.90661073632805 12.2087780761719 L 5.13712744531244 12.8309819257812 L 7.50924979492186 11.9787395878907 L 7.11804091796876 10.9194147949219 L 4.10075868554679 12.0016956210937 L 3.96206604492193 11.5870524472657 L 7.41742570507813 10.3436012324219 Z M 10.2032347226562 13.8668724648438 L 9.35147062695319 11.448359828125 C 9.28212430664064 11.6559205253906 9.21325624999997 11.8395687050782 9.12143213867193 12.0471294023438 L 8.82204735156245 11.6329644921875 C 9.07504185156256 10.9423708066406 9.19030021679691 10.2049085703125 9.14438817187499 9.42153431054687 L 9.6278994023437 9.46744635546879 C 9.65085543554687 9.8361774628906 9.6278994023437 10.2273863613281 9.55855308203127 10.6190735019531 L 10.6408338867187 13.7057020546875 L 10.2032347226562 13.8668724648438 Z M 9.88185038671872 10.1350840292969 L 9.74315776757817 9.74339688867184 L 10.8947848925782 9.32923197851568 L 10.7336144824219 8.89115455078121 L 11.1716919101563 8.73046238281256 L 11.3328623203125 9.16806156835936 L 12.5533575449218 8.73046238281256 L 12.691571921875 9.14510553515628 L 11.4705984550781 9.58270472070309 L 11.6088128535156 9.95143582812499 L 12.6686159101563 9.58270472070309 L 13.1521271191407 10.9418925644531 L 12.0698463144531 11.3335797050781 C 12.1611921621094 11.725266845703 12.2075824492188 12.0471294023438 12.1846264160156 12.3010804082032 C 12.691571921875 12.3699484863281 13.2444294726563 12.3240364414063 13.8202430351563 12.1394317558593 L 13.8661550800781 12.599986953125 C 13.2214734394531 12.7845916386719 12.621747359375 12.8305036835937 12.0698463144531 12.7382013515625 C 11.9081976621094 13.0610204140625 11.585378578125 13.3369709472656 11.0789113359375 13.6138779648437 L 10.756570515625 13.2910588808594 C 11.1712136679688 13.1069324589844 11.4476424433594 12.8768939707031 11.6088128535156 12.6463772617188 C 11.2914077357224 12.5508982282569 10.9890477584455 12.4111493116836 10.7106584707032 12.2312558457032 L 10.9641312128906 11.8859589921875 C 11.2171257128906 12.0466511601562 11.4710767187501 12.1619095253907 11.7475054941406 12.2312558457032 C 11.7442284082915 11.9918938369558 11.7210328884511 11.7532199378383 11.6781591738281 11.5177061269531 L 10.6413121503906 11.816612671875 L 10.1578009199219 10.4579030917969 L 11.1716919101563 10.089171984375 L 11.0329992910157 9.72044085546877 L 9.88185038671872 10.1350840292969 Z M 10.8947848925782 11.310623671875 L 11.5165105 11.0796286992188 L 11.3094280664062 10.5038151367187 L 10.6877024375 10.7348101093749 L 10.8947848925782 11.310623671875 Z M 11.9545879492188 10.9189365527343 L 12.5992695898437 10.6879415585938 L 12.3917088710938 10.1121279960937 L 11.7470272304688 10.34312296875 L 11.9545879492188 10.9189365527343 Z M 15.6634203515625 10.2742549121094 L 14.6036173164063 10.6420295136718 C 14.7647877265625 11.2407991093751 14.7647877265625 11.7707006269532 14.6036173164063 12.2546901210937 L 14.165061625 12.0705636777344 C 14.303754265625 11.5860959414063 14.2578422207031 11.0337166542969 14.050759765625 10.4349470585938 L 13.2444294726563 8.20056086523435 L 16.7452229355468 6.93367535351565 L 17.9891524140625 10.3660790019532 C 18.1044107792969 10.7118540976562 17.9891524140625 10.9418925644531 17.6433773183594 11.0796286992188 L 17.1144322851563 11.2642333847656 L 16.8375252675781 10.8725462441406 C 17.0446077226562 10.8266341992188 17.206256375 10.7577661210937 17.3444707734375 10.7118540976562 C 17.4831634140626 10.664985546875 17.5290754589844 10.5506836875 17.4831634140626 10.3660790019532 L 17.2292124082031 9.69796308593747 L 16.1005412949219 10.1126062382813 L 16.5620529980469 11.4024477832032 L 16.1244538125001 11.563618171875 L 15.6634203515625 10.2742549121094 Z M 15.132562328125 8.75341839453129 L 14.879567828125 8.06234646679688 L 13.8202430351563 8.43107759570312 L 14.0732375351563 9.12214952343754 L 15.132562328125 8.75341839453129 Z M 15.27125496875 9.14558379882807 L 14.2119301757813 9.51431490624998 L 14.4649246757813 10.2049085917969 L 15.52424946875 9.83617748437494 L 15.27125496875 9.14558379882807 Z M 15.5711180195312 8.59224798437499 L 16.6997891328125 8.17760483203126 L 16.4458381269532 7.48653290429685 L 15.3171670136719 7.90117605664057 L 15.5711180195312 8.59224798437499 Z M 15.9628051601562 9.67452881054693 L 17.09099803125 9.28331993359375 L 16.8375252675781 8.59224798437499 L 15.7088541542969 8.98345688281252 L 15.9628051601562 9.67452881054693 Z" transform="matrix(1 0 0 1 -155 -492 ) matrix(1 0 0 1 155 492 )"/></g></svg>