<svg xmlns="http://www.w3.org/2000/svg" xmlns:xlink="http://www.w3.org/1999/xlink" width="22" height="22" version="1.1"><g><path fill="#0079fe" fill-rule="nonzero" stroke="none" d="M 21.8142977421875 11.0645168476563 C 21.8142977421875 5.06043256640626 16.9569943769532 0.193179765625018 10.9652284628907 0.193179765625018 C 4.97344194531252 0.193179765625018 0.116159183593709 5.06043258789066 0.116159183593709 11.0645168476563 C 0.116159183593709 17.0686011074218 4.97344194531252 21.9358745332031 10.9652284628907 21.9358745332031 C 16.9570149804688 21.9358745332031 21.8142977421875 17.0686011289062 21.8142977421875 11.0645168476563 Z M 21.2745355625 11.0645168691406 C 21.2745355625 16.7606629394531 16.6663595527344 21.3782940078125 10.9818932480468 21.3782940078125 C 5.29742696484368 21.3782940078125 0.689250933593712 16.7606629179687 0.689250933593712 11.0645168476563 C 0.689250933593712 5.36837077734378 5.29742696484368 0.750739708984355 10.9818932480468 0.750739708984355 C 16.66635953125 0.750739708984355 21.2745355625 5.36837079882818 21.2745355625 11.0645168691406 Z M 8.49756726308146 10.5433856159788 C 8.49756726308146 9.83538004950083 7.86453206365991 9.26142813535867 7.08364357122093 9.26142813535867 C 6.30275507878196 9.26142813535867 5.6697198793604 9.83538004950083 5.6697198793604 10.5433856159788 C 5.6697198793604 10.6666853325737 5.68933913415856 10.7893401664522 5.72797141460751 10.9075601196705 C 5.68933913415856 11.0257800728888 5.6697198793604 11.1484349067673 5.6697198793604 11.2717346233622 C 5.6697198793604 11.9797401898402 6.30275507878196 12.5536921039823 7.08364357122093 12.5536921039823 C 7.86453206365991 12.5536921039823 8.49756726308146 11.9797401898402 8.49756726308146 11.2717346233622 C 8.49756726308146 11.1484349067673 8.47794800828342 11.0257800728888 8.43931572783424 10.9075601196705 C 8.47794800828342 10.7893401664522 8.49756726308146 10.6666853325737 8.49756726308146 10.5433856159788 Z M 11.7123470270349 11.1586179320106 C 11.7123470270349 9.65599597574609 11.2171240673588 8.26732371763055 10.3787296729652 7.14221645865606 C 10.0916031167359 6.75691298015568 9.52364916295676 6.71257843846803 9.17469232254984 7.04468046694336 C 8.88530967499992 7.32008267409125 8.83069439132055 7.77962175225801 9.06921451436881 8.09883045240846 C 9.7133617501662 8.96092276773632 10.0940602175249 10.0257658595488 10.0940602175249 11.178243921228 C 10.0940602175249 12.2455072572156 9.76753026071435 13.2375448936472 9.20766248824748 14.0630474807747 C 8.98207581482563 14.3956555511256 9.04823956773259 14.8426093504025 9.35745794518277 15.1019059234968 C 9.72176067500004 15.4074072269595 10.2766918338455 15.3350198091649 10.543558275789 14.9438857424244 C 11.2816348272426 13.8621449091092 11.7123470270349 12.5599415123915 11.7123470270349 11.1586179320106 Z M 11.5876179132891 16.0067725585799 C 11.2731712353821 16.2876976887973 11.2511516948505 16.7282132387474 11.5415684333057 17.0279994382831 C 11.8729968755814 17.3701460541717 12.4728935096346 17.3922908720497 12.833862672093 17.0734383903159 C 14.676929374917 15.4453327881204 15.8137386621263 13.2132627774363 15.8137386621263 10.750755377664 C 15.8137386621263 8.27991544023561 14.6691953370432 6.04107269814736 12.815130704485 4.41157148997098 C 12.4552021520764 4.0952433599748 11.8596337503322 4.11572577586341 11.5274957642026 4.45411659149383 L 11.4690292667774 4.51367567517573 C 11.1728415519103 4.81543210672294 11.1965876639534 5.26233046862203 11.5185318651163 5.54348136083388 C 13.0640863416113 6.89316569965072 14.0191811863787 8.75257070489849 14.0191811863787 10.8056350854 C 14.0191811863787 12.8279347866496 13.0925154578904 14.6623422217394 11.5876179132891 16.0067725585799 Z" transform="matrix(1 0 0 1 -68 -492 ) matrix(1 0 0 1 68 492 )"/></g></svg>