<svg xmlns="http://www.w3.org/2000/svg" xmlns:xlink="http://www.w3.org/1999/xlink" width="26" height="22" version="1.1"><g><path fill="#0079fe" fill-rule="nonzero" stroke="none" d="M 25.0490079365079 21.2821714285714 C 25.0490079365079 20.8782857142857 24.7357698412698 20.5656 24.3311706349206 20.5656 L 22.5822579365079 20.5656 L 22.5822579365079 10.416342857143 C 22.5822579365079 9.68674285714289 21.9949365079365 9.10045714285711 21.2640476190476 9.10045714285711 L 4.20562301587302 9.10045714285711 C 3.47473412698412 9.10045714285711 2.88741269841273 9.68674285714289 3 10.416342857143 L 3 20.5656 L 0.799158730158752 20.5656 C 0.407611111111123 20.5656 0.0813214285714139 20.8782857142857 0.0813214285714139 21.2821714285714 C 0.0813214285714139 21.6730285714285 0.407611111111123 21.9987428571428 0.799158730158752 22 L 24.3311706349206 22 C 24.7227182539682 21.9987428571428 25.0490079365079 21.6730285714285 25.0490079365079 21.2821714285714 Z M 21.1074285714285 13.8949714285715 L 21.1074285714285 20.5656 L 4.36224206349209 20.5656 L 4.36224206349209 13.8689142857143 C 4.44055158730157 14.0252571428571 4.53191269841273 14.1816 4.61022222222221 14.3770285714286 C 5.02787301587296 15.2369142857143 5.53688492063498 16.2922285714286 6.69847619047619 16.2922285714286 C 7.86006746031751 16.2922285714286 8.38213095238098 15.2238857142857 8.78673015873017 14.3770285714286 C 9.12607142857144 13.6734857142857 9.38710317460323 13.1914285714286 9.71339285714282 13.1914285714286 C 10.026630952381 13.1914285714286 10.3007142857142 13.6865142857143 10.6270039682539 14.3770285714286 C 11.0446547619048 15.2369142857143 11.5536666666667 16.2922285714286 12.7152579365079 16.2922285714286 C 13.8768492063491 16.2922285714286 14.3989126984127 15.2238857142857 14.8165634920634 14.3770285714286 C 15.1559047619047 13.6865142857143 15.4169365079365 13.1914285714286 15.7432261904761 13.1914285714286 C 16.0564642857142 13.1914285714286 16.3305476190476 13.6865142857143 16.6698888888889 14.3770285714286 C 17.0875396825396 15.2369142857143 17.5965515873015 16.2922285714286 18.7711944444444 16.2922285714286 C 19.9327857142856 16.2922285714286 20.4548492063492 15.2238857142857 20.8724999999999 14.3770285714286 C 20.9508095238095 14.2076571428572 21.0421706349206 14.0382857142857 21.1074285714285 13.8949714285715 Z M 21.1204801587301 11 L 21.1074285714285 12.0318857142857 C 20.4026428571428 12.3445714285715 20.0110952380952 13.1393142857143 19.6848055555555 13.8037714285714 C 19.3454642857142 14.5073142857142 19.0844325396826 14.9893714285714 18.7581428571428 14.9893714285714 C 18.4318531746031 14.9893714285714 18.1708214285715 14.4942857142858 17.8314801587301 13.8037714285714 C 17.4138293650793 12.9438857142858 16.9048174603174 11.8885714285714 15.7301746031745 11.8885714285714 C 14.5685833333333 11.8885714285714 14.0465198412697 12.9569142857142 13.6419206349206 13.8037714285714 C 13.3025793650794 14.5073142857142 13.0415476190476 14.9893714285714 12.7152579365079 14.9893714285714 C 12.4020198412699 14.9893714285714 12.1409880952381 14.4942857142858 11.8016468253968 13.8037714285714 C 11.3839960317461 12.9438857142858 10.8749841269841 11.8885714285714 9.71339285714282 11.8885714285714 C 8.5518015873015 11.8885714285714 8.02973809523803 12.9569142857142 7.62513888888884 13.8037714285714 C 7.28579761904769 14.5073142857142 7.0247658730159 14.9893714285714 6.71152777777775 14.9893714285714 C 6.39828968253971 14.9893714285714 6.12420634920636 14.4942857142858 5.79791666666665 13.8037714285714 C 5.47162698412694 13.1393142857143 5.08007936507931 12.3315428571428 4.37529365079365 12.0188571428572 L 4.37529365079365 11 L 21.1204801587301 11 Z M 7.27274603174601 1.41360000000006 C 7.28579761904769 1.76537142857143 7.55988095238092 2.0389714285714 7.91227380952375 2.0389714285714 C 8.26466666666659 2.0389714285714 8.53875000000005 1.75234285714282 8.53875000000005 1.41360000000006 L 8.53875000000005 0.801257142857082 C 8.53875000000005 0.449485714285714 8.25161507936502 0.175885714285741 7.91227380952375 0.175885714285741 C 7.55988095238092 0.175885714285741 7.27274603174601 0.46251428571432 7.27274603174601 0.801257142857082 L 7.27274603174601 1.41360000000006 Z M 8.46044047619046 3.64148571428569 C 8.47349206349202 3.3287999999999 8.21246031746034 3.08125714285714 7.91227380952375 3.08125714285714 C 7.59903571428572 3.08125714285714 7.3510555555556 3.3287999999999 7.3510555555556 3.64148571428569 L 7.3510555555556 8.30571428571427 C 7.3510555555556 8.61840000000007 7.59903571428572 8.86594285714283 7.91227380952375 8.86594285714283 C 8.21246031746034 8.86594285714283 8.46044047619046 8.61840000000007 8.46044047619046 8.30571428571427 L 8.46044047619046 3.64148571428569 Z M 11.9713174603174 1.41360000000006 C 11.9713174603174 1.76537142857143 12.2584523809523 2.0389714285714 12.5977936507936 2.0389714285714 C 12.9501865079365 2.0389714285714 13.2242698412698 1.75234285714282 13.2242698412698 1.41360000000006 L 13.2242698412698 0.801257142857082 C 13.2242698412698 0.449485714285714 12.9371349206349 0.175885714285741 12.5977936507936 0.175885714285741 C 12.2454007936508 0.175885714285741 11.9713174603174 0.46251428571432 11.9713174603174 0.801257142857082 L 11.9713174603174 1.41360000000006 Z M 13.1459603174603 3.64148571428569 C 13.1590119047619 3.3287999999999 12.9110317460318 3.08125714285714 12.5977936507936 3.08125714285714 C 12.2845555555556 3.08125714285714 12.0365753968254 3.3287999999999 12.0365753968254 3.64148571428569 L 12.0365753968254 8.30571428571427 C 12.0365753968254 8.61840000000007 12.2845555555556 8.86594285714283 12.5977936507936 8.86594285714283 C 12.8979801587302 8.86594285714283 13.1459603174603 8.61840000000007 13.1459603174603 8.30571428571427 L 13.1459603174603 3.64148571428569 Z M 16.6568373015873 1.41360000000006 C 16.6568373015873 1.76537142857143 16.9439722222222 2.0389714285714 17.296365079365 2.0389714285714 C 17.6487579365079 2.0389714285714 17.9228412698412 1.75234285714282 17.9228412698412 1.41360000000006 L 17.9228412698412 0.801257142857082 C 17.9228412698412 0.449485714285714 17.6357063492063 0.175885714285741 17.296365079365 0.175885714285741 C 16.9439722222222 0.175885714285741 16.6568373015873 0.46251428571432 16.6568373015873 0.801257142857082 L 16.6568373015873 1.41360000000006 Z M 17.8445317460317 3.64148571428569 C 17.8445317460317 3.3287999999999 17.5965515873015 3.08125714285714 17.296365079365 3.08125714285714 C 16.983126984127 3.08125714285714 16.7351468253968 3.3287999999999 16.7351468253968 3.64148571428569 L 16.7351468253968 8.30571428571427 C 16.7351468253968 8.61840000000007 16.983126984127 8.86594285714283 17.296365079365 8.86594285714283 C 17.5965515873015 8.86594285714283 17.8445317460317 8.61840000000007 17.8445317460317 8.30571428571427 L 17.8445317460317 3.64148571428569 Z" transform="matrix(1 0 0 1 -1110 -590 ) matrix(1 0 0 1 1110 590 )"/></g></svg>