<svg xmlns="http://www.w3.org/2000/svg" xmlns:xlink="http://www.w3.org/1999/xlink" width="22" height="22" version="1.1"><g><path fill="#0079fe" fill-rule="nonzero" stroke="none" d="M 19.93436522 18.3271513445699 C 20.1279094559141 18.2716326803764 20.1279094559141 18.2716326803764 20.1708336171774 18.2592951918548 L 21.8757192748387 17.7696514135752 L 20.979966797285 16.2390326816667 L 18.9843792413709 12.8315746326344 L 18.4818839229839 11.9736056411022 C 19.0149659141129 10.8807104526882 19.3146638858871 9.65313108478495 19.3146638858871 8.35538229787636 C 19.3146638858871 3.79025728553762 15.6139336351345 0.0892700203763752 11.0485516083871 0.0892700203763752 C 6.4831695816398 0.0892700203763752 2.78243933088709 3.79000027112909 2.78243933088709 8.35538229787636 C 2.78243933088709 9.65313108478495 3.08213730266129 10.8804534155108 3.61521929379035 11.9733486039248 L 3.11246693822579 12.8315746326344 L 1.11687938231182 16.2390326816667 L 0.22035577045699 17.7696514135752 L 1.92549846529573 18.2592951918548 C 1.96867964096771 18.2716326803764 1.96867964096771 18.2716326803764 2.16222387688174 18.3271513445699 C 2.42028285051083 18.4011762301613 2.42028285051083 18.4011762301613 2.78629479747315 18.5060448256721 C 3.34328065411285 18.6654039594355 3.89641106693546 18.8234779300807 4.42846493212369 18.975126130672 C 4.82069401088711 19.3550177436828 5.2347707260484 19.7534155553226 5.65090367032258 20.1510423009678 C 5.80589328591407 20.2990920721505 5.9498305533333 20.4363465551075 6.07911706594086 20.5594643348387 C 6.21225904513437 20.685923506801 6.21225904513437 20.685923506801 6.24233166629028 20.7147109648387 L 7.50178284728497 21.9091333565322 L 8.37902914897859 20.4111575264785 L 10.2039482085485 17.2949154500538 L 10.6054303980108 16.6091571323925 C 10.7521950060753 16.6168680655645 10.8999877628495 16.6212375837366 11.0485515856183 16.6212375837366 C 11.1973724455645 16.6212375837366 11.3449081651613 16.6168680655645 11.4916727732258 16.6091571323925 L 11.8931549626882 17.2949154500538 L 13.7180740222581 20.4111575264785 L 14.5953203239517 21.9091333565322 L 15.8547715049463 20.7147109648387 C 15.8848441261022 20.6861805439785 15.8848441261022 20.6861805439785 16.0179861052958 20.5594643348387 C 16.1472726179032 20.4366035922849 16.2912099080913 20.2990920721505 16.446199500914 20.1510423009678 C 16.8623324451881 19.7534155780913 17.2764091603494 19.3550177436828 17.6686382391129 18.975126130672 C 18.2006921043011 18.8234779300807 18.7538225171236 18.6654039594355 19.3105513365861 18.5060448256721 C 19.6765632835484 18.4011762301613 19.6765632835484 18.4011762301613 19.93436522 18.3271513445699 Z M 17.9369785176881 8.35538232064516 C 17.9369785176881 12.1596960037903 14.8528652915323 15.2438092299462 11.0485516083871 15.2438092299462 C 7.24423792524192 15.2438092299462 4.16012469908605 12.1596960037903 4.16012469908605 8.35538232064516 C 4.16012469908605 4.55106863750007 7.24423792524192 1.46695541134403 11.0485516083871 1.46695541134403 C 14.8528652915323 1.46695541134403 17.9369785176881 4.55106863750007 17.9369785176881 8.35538232064516 Z M 13.0819226958603 16.5988758957527 C 14.9929470923655 16.1331359829839 16.644370337715 15.0302165951075 17.7953545165592 13.5278712468817 L 19.7909420724731 16.935329295914 C 19.7911990868818 16.9353292731452 18.3685333055375 17.3440083214247 16.9584620498924 17.7452334964785 C 15.9647807756988 18.7119265501075 14.9070987926075 19.7151179721773 14.9070987926075 19.7151179721773 L 13.0819226958603 16.5988758957527 Z M 2.30564709271505 16.9353292503764 L 4.30123464862902 13.5278712013441 C 5.45247584188166 15.0302165495699 7.10364205005385 16.1331359374462 9.01492348373654 16.5988758502151 L 7.19000442416666 19.7151179494086 C 7.19000442416666 19.7151179494086 6.13232246384416 18.7119265273387 5.13864116688171 17.7452334737097 C 3.72856988846786 17.3440082986559 2.30564709271505 16.9353292503764 2.30564709271505 16.9353292503764 Z M 16.3363105793724 8.42270764384921 C 16.3363105793724 5.73941726438483 14.1109956179425 3.56424539806545 11.36584880646 3.56424539806545 C 8.62070199497771 3.56424539806545 6.39538703354776 5.73941728732643 6.39538703354776 8.42270764384921 C 6.39538701007746 11.105998000372 8.62070197150729 13.281169889633 11.36584880646 13.281169889633 C 14.1109956414128 13.281169889633 16.3363105793724 11.105998000372 16.3363105793724 8.42270764384921 Z M 14.9161786543133 8.42270764384921 C 14.9161786543133 10.3394176252481 13.3267436761423 11.8930378292411 11.36584880646 11.8930378292411 C 9.40495393677782 11.8930378292411 7.81551895860685 10.3394176252481 7.81551895860685 8.42270764384921 C 7.81551895860685 6.50625664868556 9.40521889328386 4.95237745845736 11.36584880646 4.95237745845736 C 13.3267436761423 4.95237745845736 14.9161786543133 6.5059976624504 14.9161786543133 8.42270764384921 Z" transform="matrix(1 0 0 1 -1157 -590 ) matrix(1 0 0 1 1157 590 )"/></g></svg>