<svg xmlns="http://www.w3.org/2000/svg" xmlns:xlink="http://www.w3.org/1999/xlink" width="26" height="22" version="1.1"><g><path fill="#0079fe" fill-rule="nonzero" stroke="none" d="M 7.40592072398204 10.9933120000001 L 4.15778815724855 8.88713663549106 C 4.16841685944428 8.78526063577129 4.1738917647059 8.68144372206945 4.1738917647059 8.57613176470574 C 4.1738917647059 7.91102117647063 3.95813647058822 7.30910117647045 3.59964862745107 6.87218823529395 C 3.23231019090565 6.41825946402531 2.73239846937804 6.16330895886188 2.21111215686267 6.16404705882348 C 1.66654745098037 6.16404705882348 1.17581803921576 6.43205647058812 0.817192156862802 6.87540705882367 C 0.449138996427109 7.32744731744731 0.242563053951358 7.94047812978152 0.242949019607863 8.57952000000012 C 0.242949019607863 9.24463058823528 0.464087843137236 9.84672000000006 0.819952941176439 10.2802447058824 C 1.05802502766358 10.5730777176896 1.35109060182742 10.7830597801426 1.669403800905 10.8950493793332 L 1.669403800905 14.7555501176471 C 1.669403800905 15.7859369411764 2.80457990950219 15.7859369411764 2.80457990950219 14.7555501176471 L 2.80457983611143 10.8768788284154 C 3.108798949223 10.7590643018761 3.38105141385029 10.5526117552488 3.59964862745107 10.2802447058824 C 3.64988097408559 10.2190502717542 3.69737390487603 10.1544296925362 3.74189990935429 10.0866988792304 L 7.43602389140278 12.4824376470586 C 7.72859800904985 12.7004291764707 7.95566190045258 12.6185374117647 8.16767420814483 12.3212630588234 L 12.5470581483412 5.98189339707955 C 12.6870657755858 6.01491947920175 12.8302499143443 6.03194321632793 12.9748580392156 6.03207529411753 C 13.1194092422536 6.03207529411753 13.260423499858 6.01574393616016 13.396896057007 5.98451411681441 L 17.7790421719455 12.3212630588234 C 17.9706990045249 12.5985355294118 18.1699533031674 12.6692668235294 18.5106924886878 12.4824376470586 L 22.1601780945982 10.1130813666098 C 22.1996604103913 10.1711998493476 22.241378199407 10.2270395140527 22.2851890196076 10.280414117647 C 22.5173187135587 10.567415778046 22.8099524489789 10.7830156247057 23.1371192760181 10.8971188422262 L 23.1371192760181 16.8418334117647 C 23.0992752941175 17.0259087058823 22.9934841628959 17.1164969411765 22.8293502262443 17 L 1.99982190045262 17 C 1.58110117647061 17.113598117647 1.43488579185532 17.3175303529412 1.43230552036198 17.7506145882354 L 1.43230552036198 20.9665694117648 C 1.42714497737563 21.4282070588234 1.61636488687793 21.6348931764706 1.99982190045262 21.6037308235295 L 23.8917053393665 21.6037308235295 C 24.3760796380091 21.6037308235295 24.3760796380091 20.3267990588236 23.8917053393665 20 L 2.64804343891399 20 C 2.57995294117654 20.3266541176472 2.56733828054303 20.2841863529412 2.56733828054303 20.1879454117649 L 2.56733828054303 18.461116235294 C 2.56733828054303 18.409952 2.58253321266966 18.3874861176471 2.63299185520361 18 L 23.7075026244344 18 C 24.0253060633484 18.3645854117647 24.2145259728507 18.1522465882352 24.2750190045249 17.7503247058824 L 24.2750187580389 10.8739953226195 C 24.5760814153855 10.7556851983505 24.8455408060873 10.550443641207 25.0622619607843 10.280414117647 C 25.4181270588236 9.84688941176466 25.6392658823529 9.24141176470596 25.6392658823529 8.57630117647062 C 25.6392658823529 7.91119058823523 25.4207498039216 7.30910117647045 25.0622619607843 6.87218823529395 C 24.7090196078432 6.43544470588227 24.2156674509803 6.16404705882348 23.673725490196 6.16404705882348 C 23.1317835294117 6.16404705882348 22.6411921568626 6.43205647058812 22.2851890196076 6.87218823529395 C 21.9293239215687 7.3057129411763 21.7081850980392 7.91119058823523 21.7081850980392 8.57630117647062 C 21.7081850980392 8.69507710150668 21.7151494078353 8.81184321365947 21.7286330657136 8.92601772518066 L 18.4503428054298 11.049694117647 C 18.399884162896 11.0837552941177 18.3520057918552 11.0781025882355 18.3090012669683 11.0101251764706 L 14.4268954153083 5.39059537726354 C 14.4805967361887 5.33598084067046 14.532270522542 5.27839774464024 14.5817725490197 5.21805176470576 C 15.0068794031513 4.69436523815529 15.2454091124981 3.98514607860909 15.2450509803921 3.24592941176468 C 15.2465639430383 2.50643288257209 15.0078588555976 1.79669227224042 14.5817725490197 1.27380705882359 C 14.169311372549 0.77421176470574 13.6030745098039 0.459783529411823 12.9748580392156 0.459783529411823 C 12.3732494743394 0.458753374947207 11.7960487342181 0.751652351015935 11.3707043137254 1.27380705882359 C 10.9455974595937 1.79749358537407 10.707067750247 2.50671274492004 10.7074258823529 3.24592941176468 C 10.7074258823529 4.01370352941183 10.9581050980393 4.71168000000006 11.3707043137254 5.21805176470576 C 11.4201025782087 5.27843436984824 11.4715259197195 5.33575015366768 11.5247778910365 5.3898995053022 L 7.69104072398181 10.9366400000001 C 7.61277248868794 11.0499840000002 7.51687239819 11.066942117647 7.40592072398204 10.9933120000001 Z M 23.1371192760181 9.47882164705874 L 23.1371192477249 9.61966493508896 C 23.1053413318801 9.59483816157842 23.0746219403918 9.56777066845558 23.0451257582758 9.53854661721141 L 23.1371192760181 9.47882164705874 Z M 13.9023435294117 4.38725647058828 C 13.87173527457 4.42447933625823 13.8397987768856 4.45968117275828 13.8066716544489 4.49279247228458 L 13.636989683258 4.24716988235292 C 12.7062284162896 4.86998211764706 12.9785904072399 4.853024 12.330225520362 4.2245590588235 L 12.1438211959036 4.49425319262429 C 12.1104375768324 4.46071485558031 12.0782857858569 4.42502476701031 12.0475105882352 4.38725647058828 C 11.8016503433312 4.08408815860872 11.6639638406226 3.67349322218007 11.6647278431373 3.24576000000008 C 11.6647278431373 2.8024094117647 11.8103592156863 2.39870117647052 12.0475105882352 2.10426352941181 C 12.2928397723717 1.80345096805235 12.6254448381467 1.63448087835366 12.9722352941177 1.63448470588241 C 13.3208512603306 1.63296794668145 13.6555838637966 1.80203460224493 13.9023435294117 2.10426352941181 C 14.1396329411764 2.39870117647052 14.2878870588236 2.8024094117647 14.2851262745098 3.24576000000008 C 14.2851262745098 3.6924988235296 14.1396329411764 4.09281882352934 13.9023435294117 4.38725647058828 Z M 2.92284235294119 7.70281411764699 C 3.04781905332561 7.85720761323733 3.13639443668103 8.04772657519322 3.18181134810493 8.2542873691321 L 2.78694805429859 7.99824752941163 C 2.6860307692308 8.39466164705891 2.36306678733035 8.79093082352949 1.669403800905 8.68338447058818 L 1.66940379726441 9.61846707636306 C 1.60836338573131 9.57038643694523 1.5512924909558 9.51395729714062 1.49938196078438 9.44978823529419 C 1.31330509803934 9.22802823529418 1.20287372549012 8.91681882352958 1.20287372549012 8.57630117647062 C 1.20287372549012 8.235614117647 1.31344313725481 7.92779294117656 1.49938196078438 7.70281411764699 C 1.68802351341901 7.47067400587548 1.94397308672524 7.33981100907135 2.21111215686267 7.33891764705891 C 2.48870901960788 7.33891764705891 2.7395262745099 7.47783529411771 2.92284235294119 7.70281411764699 Z M 24.3882164705882 9.44978823529419 C 24.3527395260091 9.4934337767661 24.3148827436683 9.53349735961302 24.2750190045249 9.56978846543001 L 24.2750190045249 8.66323764705891 C 23.6546070588234 8.81890447058828 23.2357429864253 8.44524611764712 23.1044358371041 8.0347727058824 L 22.6937047173427 8.30084433744253 C 22.736734394926 8.07085744532657 22.8325049066282 7.865244686126 22.9647560784314 7.70281411764699 C 23.1534233541756 7.47072108422361 23.4093563246278 7.33986657619812 23.6764862745097 7.33891764705891 C 23.9542211764706 7.33891764705891 24.2049003921569 7.47783529411771 24.3882164705882 7.70281411764699 C 24.5689098039217 7.92779294117656 24.6847247058822 8.235614117647 24.6847247058822 8.57630117647062 C 24.6847247058822 8.91698823529418 24.5715325490196 9.22480941176491 24.3882164705882 9.44978823529419 Z" transform="matrix(1 0 0 1 -1200 -590 ) matrix(1 0 0 1 1200 590 )"/></g></svg>