<svg xmlns="http://www.w3.org/2000/svg" xmlns:xlink="http://www.w3.org/1999/xlink" width="22" height="22" version="1.1"><g><path fill="#0079fe" fill-rule="nonzero" stroke="none" d="M 22 19.4003369140626 L 22 5.39448486328126 C 21.9738159179688 3.961181640625 20.8075903320313 2.79506347656252 19.374287109375 2.79506347656252 L 17.8377514648438 2.79506347656252 L 17.8377514648438 0.819628906250045 C 17.8377514648438 0.367678222656309 17.4700732421875 0 17.0181494140625 0 C 16.5663061523437 0 16.1439770507812 0.367570800781209 16.1439770507812 0.819628906250045 L 16.1439770507812 3 L 5.93272216796879 3 L 5.93272216796879 0.819628906250045 C 5.93272216796879 0.367678222656309 5.56512451171875 0 5.11320068359373 0 C 4.66127685546877 0 4.23881347656254 0.367570800781209 4.23881347656254 0.819628906250045 L 4.23881347656254 2.79506347656252 L 2.62560546875 2.79506347656252 C 1.19230224609373 2.79506347656252 0.02618408203125 3.961181640625 0 5.39448486328126 L 0 19.4003369140626 C 0.02618408203125 20.8337475585938 1.19230224609373 21.9999731445314 2.62560546875 22 L 19.374287109375 22 C 20.8076977539063 21.9999731445314 21.9738159179688 20.8337475585938 22 19.4003369140626 Z M 2 9 L 20 9 L 20 20.3024121093752 L 20.3346923828125 20 L 2 20 L 2 9 Z M 20.3346923828125 6.6000000003545 L 20.3346923828125 6.96783935546875 L 20.3346923828125 7 L 1.69447265625001 7 L 1.69447265625001 4.39999999999998 L 20.3346923828125 4.39999999999998 L 20.3346923828125 6.6000000003545 Z M 4.41103759765622 12.9064559151784 C 4.11917236328122 13.2067706473213 4.11917236328122 13.6935114397321 4.41103759765622 13.9936880580357 L 8.50679199218746 18.2064916294644 C 8.65272460937501 18.3565661272321 8.84396240234378 18.4316724330356 9.03520019531248 18.4316724330356 C 9.16475097656246 18.4316724330356 9.29389892578126 18.3963981584819 9.40940429687504 18.3275345982144 C 9.47568359374998 18.2920393415179 9.53801513671874 18.2459645647322 9.59360595703123 18.1886749441962 L 17.157314453125 10.4089709821429 C 17.4491528320312 10.1086838727678 17.4491528320312 9.62194308035714 17.157314453125 9.32176646205369 C 16.86544921875 9.02158984375012 16.3922290039062 9.02158984375012 16.100283203125 9.32176646205369 L 9.04159179687497 16.5822452566964 L 5.46804199218752 12.9064559151784 C 5.17609619140626 12.6062792968751 4.7028759765625 12.6062792968751 4.41103759765622 12.9064559151784 Z" transform="matrix(1 0 0 1 -1067 -590 ) matrix(1 0 0 1 1067 590 )"/></g></svg>