<svg xmlns="http://www.w3.org/2000/svg" xmlns:xlink="http://www.w3.org/1999/xlink" width="21" height="22" version="1.1"><g><path fill="#0079fe" fill-rule="nonzero" stroke="none" d="M 1.61538461538458 16.8928571428571 L 1.61538461538458 20.4285714285714 L 5.25 20.4285714285714 L 5.25 16.8928571428571 L 1.61538461538458 16.8928571428571 Z M 6.05769230769226 16.8928571428571 L 6.05769230769226 20.4285714285714 L 10.0961538461538 20.4285714285714 L 10.0961538461538 16.8928571428571 L 6.05769230769226 16.8928571428571 Z M 1.61538461538458 12.1785714285714 L 1.61538461538458 16.1071428571429 L 5.25 16.1071428571429 L 5.25 12.1785714285714 L 1.61538461538458 12.1785714285714 Z M 6.05769230769226 12.1785714285714 L 6.05769230769226 16.1071428571429 L 10.0961538461538 16.1071428571429 L 10.0961538461538 12.1785714285714 L 6.05769230769226 12.1785714285714 Z M 1.61538461538458 7.85714285714289 L 1.61538461538458 11.3928571428571 L 5.25 11.3928571428571 L 5.25 7.85714285714289 L 1.61538461538458 7.85714285714289 Z M 10.9038461538462 16.8928571428571 L 10.9038461538462 20.4285714285714 L 14.9423076923077 20.4285714285714 L 14.9423076923077 16.8928571428571 L 10.9038461538462 16.8928571428571 Z M 6.05769230769226 7.85714285714289 L 6.05769230769226 11.3928571428571 L 10.0961538461538 11.3928571428571 L 10.0961538461538 7.85714285714289 L 6.05769230769226 7.85714285714289 Z M 15.75 16.8928571428571 L 15.75 20.4285714285714 L 19.3846153846154 20.4285714285714 L 19.3846153846154 16.8928571428571 L 15.75 16.8928571428571 Z M 10.9038461538462 12.1785714285714 L 10.9038461538462 16.1071428571429 L 14.9423076923077 16.1071428571429 L 14.9423076923077 12.1785714285714 L 10.9038461538462 12.1785714285714 Z M 6.34164663461542 5.77622767857144 C 6.42157451923072 5.69847470238096 6.46153846153845 5.60639880952385 6.46153846153845 5.5 L 6.46153846153845 1.96428571428578 C 6.46153846153845 1.85788690476193 6.42157451923072 1.76581101190482 6.34164663461542 1.68805803571422 C 6.26171875 1.61030505952385 6.16706730769232 1.57142857142856 6.05769230769226 1.57142857142856 L 5.25 1.57142857142856 C 5.140625 1.57142857142856 5.04597355769226 1.61030505952385 4.96604567307696 1.68805803571422 C 4.88611778846155 1.76581101190482 4.84615384615381 1.85788690476193 4.84615384615381 1.96428571428578 L 4.84615384615381 5.5 C 4.84615384615381 5.60639880952385 4.88611778846155 5.69847470238096 4.96604567307696 5.77622767857144 C 5.04597355769226 5.85398065476193 5.140625 5.89285714285711 5.25 5.89285714285711 L 6.05769230769226 5.89285714285711 C 6.16706730769232 5.89285714285711 6.26171875 5.85398065476193 6.34164663461542 5.77622767857144 Z M 15.75 12.1785714285714 L 15.75 16.1071428571429 L 19.3846153846154 16.1071428571429 L 19.3846153846154 12.1785714285714 L 15.75 12.1785714285714 Z M 10.9038461538462 7.85714285714289 L 10.9038461538462 11.3928571428571 L 14.9423076923077 11.3928571428571 L 14.9423076923077 7.85714285714289 L 10.9038461538462 7.85714285714289 Z M 15.75 7.85714285714289 L 15.75 11.3928571428571 L 19.3846153846154 11.3928571428571 L 19.3846153846154 7.85714285714289 L 15.75 7.85714285714289 Z M 16.033954326923 5.77622767857144 C 16.1138822115385 5.69847470238096 16.1538461538462 5.60639880952385 16.1538461538462 5.5 L 16.1538461538462 1.96428571428578 C 16.1538461538462 1.85788690476193 16.1138822115385 1.76581101190482 16.033954326923 1.68805803571422 C 15.9540264423077 1.61030505952385 15.859375 1.57142857142856 15.75 1.57142857142856 L 14.9423076923077 1.57142857142856 C 14.8329326923077 1.57142857142856 14.73828125 1.61030505952385 14.6583533653846 1.68805803571422 C 14.5784254807693 1.76581101190482 14.5384615384615 1.85788690476193 14.5384615384615 1.96428571428578 L 14.5384615384615 5.5 C 14.5384615384615 5.60639880952385 14.5784254807693 5.69847470238096 14.6583533653846 5.77622767857144 C 14.73828125 5.85398065476193 14.8329326923077 5.89285714285711 14.9423076923077 5.89285714285711 L 15.75 5.89285714285711 C 15.859375 5.89285714285711 15.9540264423077 5.85398065476193 16.033954326923 5.77622767857144 Z M 20.5204326923077 3.609375 C 20.8401442307692 3.92038690476193 21 4.28869047619048 21 4.71428571428578 L 21 20.4285714285714 C 21 20.8541666666666 20.8401442307692 21.2224702380952 20.5204326923077 21.5334821428571 C 20.2007211538462 21.844494047619 19.8221153846154 22 19.3846153846154 22 L 1.61538461538458 22 C 1.17788461538458 22 0.799278846153868 21.844494047619 0.479567307692264 21.5334821428571 C 0.159855769230774 21.2224702380952 0 20.8541666666666 0 20.4285714285714 L 0 4.71428571428578 C 0 4.28869047619048 0.159855769230774 3.92038690476193 0.479567307692264 3.609375 C 0.799278846153868 3.29836309523807 1.17788461538458 3.14285714285711 1.61538461538458 3.14285714285711 L 3.23076923076923 3.14285714285711 L 3.23076923076923 1.96428571428578 C 3.23076923076923 1.42410714285711 3.42848557692304 0.961681547619037 3.82391826923077 0.577008928571445 C 4.21935096153845 0.192336309523853 4.69471153846155 0 5.25 0 L 6.05769230769226 0 C 6.61298076923077 0 7.08834134615381 0.192336309523853 7.48377403846155 0.577008928571445 C 7.87920673076923 0.961681547619037 8.07692307692304 1.42410714285711 8.07692307692304 1.96428571428578 L 8.07692307692304 3.14285714285711 L 12.923076923077 3.14285714285711 L 12.923076923077 1.96428571428578 C 12.923076923077 1.42410714285711 13.1207932692308 0.961681547619037 13.5162259615385 0.577008928571445 C 13.9116586538462 0.192336309523853 14.3870192307692 0 14.9423076923077 0 L 15.75 0 C 16.3052884615385 0 16.7806490384615 0.192336309523853 17.1760817307692 0.577008928571445 C 17.571514423077 0.961681547619037 17.7692307692308 1.42410714285711 17.7692307692308 1.96428571428578 L 17.7692307692308 3.14285714285711 L 19.3846153846154 3.14285714285711 C 19.8221153846154 3.14285714285711 20.2007211538462 3.29836309523807 20.5204326923077 3.609375 Z" transform="matrix(1 0 0 1 -1024 -590 ) matrix(1 0 0 1 1024 590 )"/></g></svg>