<svg xmlns="http://www.w3.org/2000/svg" xmlns:xlink="http://www.w3.org/1999/xlink" width="22" height="19" version="1.1"><g><path fill="#0079fe" fill-rule="nonzero" stroke="none" d="M 20.4244791666667 11.5838341346155 C 20.4970486111112 11.5115184294873 20.5333333333334 11.4258814102564 20.5333333333334 11.3269230769231 L 20.5333333333334 1.82692307692309 C 20.5333333333334 1.72796474358984 20.4970486111112 1.64232772435889 20.4244791666667 1.57001201923072 C 20.3519097222222 1.49769631410254 20.2659722222222 1.46153846153834 20.1666666666667 1.46153846153834 L 1.83333333333326 1.46153846153834 C 1.73402777777778 1.46153846153834 1.64809027777778 1.49769631410254 1.57552083333326 1.57001201923072 C 1.50295138888885 1.64232772435889 1.46666666666664 1.72796474358984 1.46666666666664 1.82692307692309 L 1.46666666666664 11.3269230769231 C 1.46666666666664 11.4258814102564 1.50295138888885 11.5115184294873 1.57552083333326 11.5838341346155 C 1.64809027777778 11.6561498397436 1.73402777777778 11.6923076923076 1.83333333333326 11.6923076923076 L 20.1666666666667 11.6923076923076 C 20.2659722222222 11.6923076923076 20.3519097222222 11.6561498397436 20.4244791666667 11.5838341346155 Z M 21.4614583333334 0.536658653846189 C 21.8204861111111 0.894431089743648 22 1.32451923076928 22 1.82692307692309 L 22 14.25 C 22 14.7524038461538 21.8204861111111 15.1824919871794 21.4614583333334 15.5402644230769 C 21.1024305555556 15.8980368589744 20.6708333333333 16.0769230769231 20.1666666666667 16.0769230769231 L 13.9333333333334 16.0769230769231 C 13.9333333333334 16.3585737179487 13.9944444444444 16.6535456730769 14.1166666666666 16.9618389423076 C 14.2388888888889 17.2701322115383 14.3611111111111 17.5403645833333 14.4833333333333 17.7725360576924 C 14.6055555555556 18.0047075320513 14.6666666666667 18.1702724358975 14.6666666666667 18.2692307692307 C 14.6666666666667 18.4671474358975 14.5940972222222 18.6384214743589 14.4489583333334 18.7830528846155 C 14.3038194444444 18.9276842948718 14.1319444444444 19 13.9333333333334 19 L 8.06666666666661 19 C 7.8680555555556 19 7.6961805555556 18.9276842948718 7.55104166666661 18.7830528846155 C 7.40590277777778 18.6384214743589 7.33333333333326 18.4671474358975 7.33333333333326 18.2692307692307 C 7.33333333333326 18.1626602564102 7.39444444444445 17.9951923076924 7.51666666666665 17.7668269230769 C 7.63888888888886 17.5384615384617 7.76111111111106 17.2720352564102 7.88333333333338 16.9675480769231 C 8.00555555555559 16.6630608974358 8.06666666666661 16.3661858974358 8.06666666666661 16.0769230769231 L 1.83333333333326 16.0769230769231 C 1.32916666666665 16.0769230769231 0.8975694444444 15.8980368589744 0.538541666666617 15.5402644230769 C 0.179513888888948 15.1824919871794 0 14.7524038461538 0 14.25 L 0 1.82692307692309 C 0 1.32451923076928 0.179513888888948 0.894431089743648 0.538541666666617 0.536658653846189 C 0.8975694444444 0.17888621794873 1.32916666666665 0 1.83333333333326 0 L 20.1666666666667 0 C 20.6708333333333 0 21.1024305555556 0.17888621794873 21.4614583333334 0.536658653846189 Z" transform="matrix(1 0 0 1 -984 -439 ) matrix(1 0 0 1 984 439 )"/></g></svg>