<svg xmlns="http://www.w3.org/2000/svg" xmlns:xlink="http://www.w3.org/1999/xlink" width="26" height="19" version="1.1"><g><path fill="#0079fe" fill-rule="nonzero" stroke="none" d="M 0 1.92904043882982 L 0 16.9996001518157 C 0.0569714718338901 18.0405387911201 0.884559852796087 18.8838036482741 1.90536247162822 19 L 23.6247586116365 19 C 24.6455103328536 18.8838036482741 25.4731496114309 18.0405387911201 25 16.9996001518157 L 25 1.92904041384327 C 25.4731496363077 0.888562028332672 24.645484884046 0.0453738801447798 23.6247586365132 0 L 1.90536247162822 0 C 0.884559827919475 0.0453738801447798 0.0569714718338901 0.88856205331922 0 1.92904043882982 Z M 3.75395713651312 16.482972136223 C 2.98817696854439 16.528875259572 2.3675747847451 15.8964521655398 2 15.1159335681441 L 2 3.81288595178626 C 2.3675747847451 3.03262304261375 2.988202417352 2.39999540799749 3.75395713651312 2.39999540799749 L 21.7761130740131 2.39999540799749 C 22.5418932419819 2.39999540799749 23.1627754372944 3.03259748128721 23 3.81288595178626 L 23 15.1159335681441 L 23.1627499636103 15.1159335681441 C 23.1627499636103 15.8961964773166 22.5418677682977 16.528875259572 21.776087600329 16.482972136223 L 3.75395713651312 16.482972136223 Z M 21.2992581275552 6.65938256972004 C 21.8382777689504 6.65938256972004 22.2750301616953 6.17901316968619 22.2750301616953 5.58671872087439 C 22.2750301354304 4.99419132179628 21.8382777689504 4.51405487202896 21.2992581275552 4.51405487202896 L 13.4925444213528 4.49535603715162 C 12.9537935490283 4.51405487202896 12.5170411825485 4.99419132179628 12.5170411825485 5.58671872087439 C 12.5170411825485 6.179042306253 12.9537935752932 6.65938256972004 13.4925444213528 6.65938256972004 L 21.2992581275552 6.65938256972004 Z M 7.27174013628644 4.22986876363984 C 5.61285311816005 4.22986876363984 4.26807717860413 5.55186993265488 4.26807717860413 7.18287597872268 C 4.26807717860413 8.81332093766355 5.6128255486185 10.1355892947552 7.27174013628644 10.1355892947552 C 8.93093050021866 10.1355892947552 10.2758994804648 8.81332093766355 10.2758994804648 7.18287597872268 C 10.2758994804648 5.55186993265488 8.93093050021866 4.22986876363984 7.27174013628644 4.22986876363984 Z M 13.4925444213528 12.2626594576736 C 12.9537935490283 12.2626594576736 12.5170411825485 12.7427959074405 12.5170411825485 13.3353233065191 C 12.5170411825485 13.9275595391043 12.9537935752932 14.4076959888712 13.4925444213528 14.4076959888712 L 21.2992581275552 14.4076959888712 C 21.8382777689504 14.4076959888712 22.2750301616953 13.9275595391043 22.2750301616953 13.3353233065191 C 22.2750301354304 12.7427959074405 21.8382777689504 12.2626594576736 21.2992581275552 12.2626594576736 L 13.4925444213528 12.2626594576736 Z M 3.73444603827488 11.5996303693091 L 3.73444603827488 14.7255226666693 L 11.3087198956073 14.7255226666693 L 11.3087199210912 11.5996303948239 C 11.3087199210912 10.8028834624688 10.6732297610273 10.1570996449923 9.88875707995487 10.1570996449923 L 5.1547478914373 10.1570996449923 C 4.37027521036487 10.1570996449923 3.73444603827488 10.8028834624688 3.73444603827488 11.5996303693091 Z M 13.4925444213528 10.5636785249774 L 21.2992581275552 10.5636785249774 C 21.8382777689504 10.5636785249774 22.2750301616953 10.0691949508191 22.2750301616953 9.46003768301739 C 22.2750301354304 8.85058095894601 21.8382777689504 8.35672629563351 21.2992581275552 8.35672629563351 L 13.4925444213528 8.35672629563351 C 12.9537935490283 8.35672629563351 12.5170411825485 8.85058092967961 12.5170411825485 9.46003768301739 C 12.5170411825485 10.0691949508191 12.9537935752932 10.5636785249774 13.4925444213528 10.5636785249774 Z" transform="matrix(1 0 0 1 -1153 -439 ) matrix(1 0 0 1 1153 439 )"/></g></svg>