<svg xmlns="http://www.w3.org/2000/svg" xmlns:xlink="http://www.w3.org/1999/xlink" width="23" height="22" version="1.1"><g><path fill="#0079fe" fill-rule="nonzero" stroke="none" d="M 18.9340419146824 18.3180673076923 C 19.1827218501984 18.8894062500001 18.9905942460317 19.5916874999999 18.4864439484127 19.9500600961537 L 15.5957178819444 21.5842740384616 C 15.4319441964286 21.656355769231 15.2229701140874 21.7060144230771 15.0337193700398 21.7060144230771 C 14.6241166914684 21.7060144230771 14.2259696180555 21.5331610576924 13.9688146081348 21.24375 C 13.6184596974205 20.851875 12.5084582093253 19.8328677884616 11.5998628472222 19.8328677884616 C 10.6975654761906 19.8328677884616 9.57040649801581 20.8577716346155 9.24666902281751 21.2168052884616 C 8.9901360367063 21.5013245192309 8.59483990575393 21.6711634615385 8.18917671130953 21.6711634615385 C 7.99598648313474 21.6711634615385 7.81362983630947 21.6333509615383 7.64723846726179 21.558704326923 L 4.8563472222221 19.9700769230769 C 4.35354464285695 19.6109903846154 4.13479960317454 18.8891153846154 4.38389422123021 18.3168509615385 C 4.38578621031741 18.3124086538461 4.63861297123015 17.717298076923 4.63861297123015 17.1746225961538 C 4.63861297123015 15.5277427884615 3.32533928571422 14.1878581730768 1.71110974702378 14.1878581730768 C 1.24868687996025 14.1878581730768 0.756562375992075 13.7690120192308 0.636304439484093 13.1204615384617 C 0.626663070436393 13.0685817307692 0.400609250992147 11.8383269230769 0.400609250992147 10.8690576923077 C 0.400609250992147 9.89981490384616 0.626611235119071 8.66956009615376 0.636252604166543 8.61765384615387 C 0.758039682539675 7.96082692307698 1.14273549107156 7.53891346153841 1.61321874999999 7.55025721153834 C 3.22747420634926 7.55025721153834 4.63861297123015 6.21039903846167 4.63861297123015 4.56346634615375 C 4.63861297123015 4.02092307692317 4.38591579861111 3.42591826923081 4.38332403273807 3.41996874999995 C 4.13451450892853 2.84825961538468 4.32710863095235 2.14603125000008 4.83195870535712 1.78808173076925 L 7.77529761904771 0.134459134615327 C 7.93940823412686 0.0630649038462252 8.14947085813492 0.0136971153846162 8.33988789682542 0.0136971153846162 C 8.74456622023808 0.0136971153846162 9.14074355158732 0.179860576923033 9.39963504464299 0.458218749999901 C 9.74459908234132 0.826771634615284 10.8350068204364 1.78514663461544 11.7175549355159 1.78514663461544 C 12.5918093998016 1.78514663461544 13.6755303819444 0.845651442307599 14.019328125 0.483656249999967 C 14.2767423115079 0.210930288461554 14.6700687003969 0.0476490384614863 15.0708075396825 0.0476490384614863 C 15.2650863095238 0.0476490384614863 15.4481686507937 0.0851706730769592 15.6149487847222 0.159103365384567 L 18.459515500992 1.76785336538455 C 18.9631215277778 2.12646394230762 19.1827996031747 2.84860336538463 18.9334976438491 3.42129086538455 C 18.9316315724205 3.42568028846154 18.6788048115078 4.02084375000004 18.6788048115078 4.56346634615375 C 18.6788048115078 6.21039903846167 19.992052579365 7.55025721153834 21.6062821180557 7.55025721153834 C 22.0761692708334 7.53957451923077 22.559326264881 7.96077403846152 22.6811392609127 8.61760096153841 C 22.6907287946428 8.6695336538462 22.916808531746 9.89978846153849 22.916808531746 10.8690312499999 C 22.916808531746 11.8383004807694 22.6907287946428 13.0685552884614 22.681113343254 13.1204350961539 C 22.5592744295634 13.7772884615385 22.1741121031746 14.197641826923 21.7041212797619 14.1878317307693 C 20.08991765873 14.1878317307693 18.6788048115078 15.527716346154 18.6788048115078 17.1745961538462 C 18.6788048115078 17.7171658653845 18.9314760664681 18.3121442307693 18.9340419146824 18.3180673076923 Z M 9.2636969246031 19.4119855769231 C 10.0908330853174 18.7935528846155 10.8768120039682 18.4799471153844 11.5998628472222 18.4799471153844 C 12.3298077876984 18.4799471153844 13.1217477678572 18.7995288461537 13.9537564484127 19.4298076923078 C 14.5118154761906 19.8526201923077 14.8986106150793 20.2764639423077 14.946765625 20.3300624999999 L 17.7125167410715 18.8449038461539 C 17.6479817708332 18.6918822115384 17.3527018849206 17.9493028846152 17.3527018849206 17.1746754807692 C 17.3527018849206 14.8581442307691 19.1411240079365 12.9597187500001 21.383208829365 12.8408870192306 C 21.4155022321429 12.6591225961539 21.5907315228175 11.6364927884616 21.5907315228175 10.869110576923 C 21.5907315228175 10.1018870192307 21.4155799851189 9.07962740384619 21.3832347470238 8.89736057692312 C 19.1411499255952 8.77852884615379 17.3527018849206 6.8800769230769 17.3527018849206 4.56354567307699 C 17.3527018849206 3.78786057692298 17.6488370535715 3.04425000000015 17.7128795882936 2.89247115384603 L 15.0817966269841 1.40104567307685 C 15.0369590773807 1.40104567307685 14.984035218254 1.41733413461532 14.9701433531747 1.42685336538466 C 14.9260055803571 1.47315384615388 14.5445753968255 1.86775240384611 13.9967538442461 2.26094951923073 C 13.1858421378968 2.84299759615385 12.4190163690475 3.13812019230772 11.7175549355159 3.13812019230772 C 11.0092253224205 3.13812019230772 10.2362570684525 2.83720673076914 9.42010999503952 2.24365624999996 C 8.86891914682542 1.84284374999993 8.4857783978174 1.4407091346153 8.44153695436512 1.39358894230782 C 8.42748958333334 1.38380528846142 8.38514012896826 1.3666706730769 8.33993973214274 1.3666706730769 L 5.60526388888889 2.89411057692291 C 5.67055047123017 3.04906249999999 5.96474181547615 3.79031971153847 5.96474181547615 4.56349278846142 C 5.96474181547615 6.88002403846144 4.17626785714288 8.77847596153845 1.93415711805562 8.89730769230755 C 1.90186371527773 9.07923076923078 1.72671217757943 10.1017548076924 1.72671217757943 10.8690576923077 C 1.72671217757943 11.6362812500001 1.90186371527773 12.6585673076924 1.93420895337294 12.8408341346153 C 4.17631969246031 12.9596658653846 5.96471589781743 14.8581177884615 5.96471589781743 17.1746225961539 C 5.96471589781743 17.9518149038462 5.66746626984127 18.6967475961538 5.60414942956356 18.8465961538461 L 8.18347482638899 20.3181105769231 C 8.23168167162714 20.2652524038463 8.70885168650796 19.8269182692308 9.2636969246031 19.4119855769231 Z M 7.6238249999999 10.8313333333334 C 7.6238249999999 8.29690277777769 9.68574444444437 6.23498333333328 12.2201749999998 6.23498333333328 C 14.754636111111 6.23498333333328 16.816525 8.29690277777769 16.816525 10.8313333333334 C 16.816525 13.3657333333334 14.754636111111 15.4276833333333 12.2201749999998 15.4276833333333 C 9.68574444444437 15.4276833333333 7.6238249999999 13.3657944444445 7.6238249999999 10.8313333333334 Z M 12.2201749999998 13.8643083333334 C 13.8925722222223 13.8643083333334 15.2531499999999 12.5037305555555 15.2531499999999 10.8313638888889 C 15.2531499999999 9.15896666666674 13.8926027777777 7.79838888888878 12.2202055555555 7.79838888888878 C 10.547838888889 7.79838888888878 9.18723055555563 9.15896666666674 9.18723055555563 10.8313333333334 C 9.18723055555563 12.5037305555555 10.5478083333334 13.8643083333334 12.2201749999998 13.8643083333334 Z" transform="matrix(1 0 0 1 -937 -341 ) matrix(1 0 0 1 937 341 )"/></g></svg>