<svg xmlns="http://www.w3.org/2000/svg" xmlns:xlink="http://www.w3.org/1999/xlink" width="15" height="22" version="1.1"><g><path fill="#0079fe" fill-rule="nonzero" stroke="none" d="M 14.7526041666666 8.71274038461536 C 14.9175347222222 8.88020833333337 15 9.07852564102564 15 9.30769230769238 L 15 11 C 15 12.9479166666666 14.3598090277778 14.6424278846154 13.0794270833334 16.0835336538462 C 11.7990451388889 17.5246394230769 10.2170138888889 18.3509615384615 8.33333333333337 18.5625 L 8.33333333333337 20.3076923076923 L 11.6666666666666 20.3076923076923 C 11.8923611111111 20.3076923076923 12.0876736111111 20.3914262820513 12.2526041666666 20.5588942307693 C 12.4175347222222 20.7263621794872 12.5 20.9246794871794 12.5 21.1538461538462 C 12.5 21.3830128205128 12.4175347222222 21.5813301282051 12.2526041666666 21.7487980769231 C 12.0876736111111 21.916266025641 11.8923611111111 22 11.6666666666666 22 L 3.33333333333337 22 C 3.10763888888886 22 2.91232638888886 21.916266025641 2.74739583333337 21.7487980769231 C 2.58246527777777 21.5813301282051 2.5 21.3830128205128 2.5 21.1538461538462 C 2.5 20.9246794871794 2.58246527777777 20.7263621794872 2.74739583333337 20.5588942307693 C 2.91232638888886 20.3914262820513 3.10763888888886 20.3076923076923 3.33333333333337 20.3076923076923 L 6.66666666666663 20.3076923076923 L 6.66666666666663 18.5625 C 4.78298611111114 18.3509615384615 3.20095486111114 17.5246394230769 1.92057291666663 16.0835336538462 C 0.640190972222229 14.6424278846154 0 12.9479166666666 0 11 L 0 9.30769230769238 C 0 9.07852564102564 0.0824652777777715 8.88020833333337 0.247395833333371 8.71274038461536 C 0.412326388888857 8.54527243589746 0.607638888888857 8.46153846153845 0.833333333333371 8.46153846153845 C 1.05902777777777 8.46153846153845 1.25434027777777 8.54527243589746 1.41927083333337 8.71274038461536 C 1.58420138888886 8.88020833333337 1.66666666666663 9.07852564102564 1.66666666666663 9.30769230769238 L 1.66666666666663 11 C 1.66666666666663 12.630608974359 2.23741319444446 14.0254407051282 3.37890625 15.1844951923076 C 4.52039930555554 16.3435496794872 5.89409722222223 16.9230769230769 7.5 16.9230769230769 C 9.10590277777777 16.9230769230769 10.4796006944445 16.3435496794872 11.62109375 15.1844951923076 C 12.7625868055555 14.0254407051282 13.3333333333334 12.630608974359 13.3333333333334 11 L 13.3333333333334 9.30769230769238 C 13.3333333333334 9.07852564102564 13.4157986111111 8.88020833333337 13.5807291666666 8.71274038461536 C 13.7456597222222 8.54527243589746 13.9409722222222 8.46153846153845 14.1666666666666 8.46153846153845 C 14.3923611111111 8.46153846153845 14.5876736111111 8.54527243589746 14.7526041666666 8.71274038461536 Z M 10.4427083333334 1.24278846153845 C 11.2586805555555 2.07131410256409 11.6666666666666 3.06730769230762 11.6666666666666 4.23076923076928 L 11.6666666666666 11 C 11.6666666666666 12.1634615384615 11.2586805555555 13.1594551282051 10.4427083333334 13.9879807692307 C 9.62673611111114 14.8165064102565 8.64583333333337 15.2307692307693 7.5 15.2307692307693 C 6.35416666666663 15.2307692307693 5.37326388888886 14.8165064102565 4.55729166666663 13.9879807692307 C 3.74131944444446 13.1594551282051 3.33333333333337 12.1634615384615 3.33333333333337 11 L 3.33333333333337 4.23076923076928 C 3.33333333333337 3.06730769230762 3.74131944444446 2.07131410256409 4.55729166666663 1.24278846153845 C 5.37326388888886 0.414262820512818 6.35416666666663 0 7.5 0 C 8.64583333333337 0 9.62673611111114 0.414262820512818 10.4427083333334 1.24278846153845 Z" transform="matrix(1 0 0 1 -1073 -437 ) matrix(1 0 0 1 1073 437 )"/></g></svg>