<svg xmlns="http://www.w3.org/2000/svg" xmlns:xlink="http://www.w3.org/1999/xlink" width="19" height="22" version="1.1"><g><path fill="#0079fe" fill-rule="nonzero" stroke="none" d="M 1.72187499999998 0 L 17.278125 0 C 17.5057291666667 0 17.7234375 0.0436219431593372 17.93125 0.130865829477898 C 18.2578125 0.256884776382435 18.517578125 0.455606961885906 18.710546875 0.727032385988082 C 18.903515625 0.998457810090372 19 1.29896452963203 19 1.62855254461329 L 19 20.3714474553867 C 19 20.701035470368 18.903515625 21.0015421899096 18.710546875 21.2729676140119 C 18.517578125 21.5443930381141 18.2578125 21.7431152236176 17.93125 21.8691341705221 C 17.7432291666666 21.9466842916942 17.5255208333333 21.9854593522803 17.278125 21.9854593522803 C 16.803125 21.9854593522803 16.3924479166667 21.8303591099361 16.04609375 21.5201586252479 L 9.5 15.3549239920687 L 2.95390625000002 21.5201586252479 C 2.59765625 21.8400528750825 2.18697916666667 22 1.72187499999998 22 C 1.49427083333333 22 1.27656249999998 21.9563780568407 1.06875000000002 21.8691341705221 C 0.7421875 21.7431152236176 0.482421875 21.5443930381141 0.289453125000023 21.2729676140119 C 0.0964843750000171 21.0015421899096 0 20.701035470368 0 20.3714474553867 L 0 1.62855254461329 C 0 1.29896452963203 0.0964843750000171 0.998457810090372 0.289453125000023 0.727032385988082 C 0.482421875 0.455606961885906 0.7421875 0.256884776382435 1.06875000000002 0.130865829477898 C 1.27656249999998 0.0436219431593372 1.49427083333333 0 1.72187499999998 0 Z" transform="matrix(1 0 0 1 -983 -341 ) matrix(1 0 0 1 983 341 )"/></g></svg>