<svg xmlns="http://www.w3.org/2000/svg" xmlns:xlink="http://www.w3.org/1999/xlink" width="22" height="17" version="1.1"><g><path fill="#0079fe" fill-rule="nonzero" stroke="none" d="M 20.3119419642857 15.33984375 C 20.3896949404762 15.2633759469695 20.4285714285715 15.172821969697 20.4285714285715 15.0681818181818 L 20.4285714285715 5.7954545454545 C 20.1666666666667 6.08522727272725 19.8843005952381 6.35085227272725 19.5814732142857 6.5923295454545 C 17.3880208333333 8.25047348484827 15.6447172619048 9.6107954545455 14.3515625 10.6732954545455 C 13.9341517857143 11.019412878788 13.5944940476191 11.2890625 13.3325892857143 11.4822443181818 C 13.0706845238096 11.6754261363637 12.7167038690476 11.8706202651517 12.2706473214285 12.0678267045455 C 11.8245907738096 12.2650331439395 11.4051339285715 12.3636363636363 11.0122767857143 12.3636363636363 L 11 12.3636363636363 L 10.9877232142857 12.3636363636363 C 10.5948660714285 12.3636363636363 10.1754092261904 12.2650331439395 9.7293526785715 12.0678267045455 C 9.28329613095241 11.8706202651517 8.92931547619042 11.6754261363637 8.66741071428567 11.4822443181818 C 8.40550595238091 11.2890625 8.06584821428567 11.019412878788 7.6484375 10.6732954545455 C 6.35528273809524 9.6107954545455 4.61197916666674 8.25047348484827 2.41852678571433 6.5923295454545 C 2.11569940476193 6.35085227272725 1.83333333333326 6.08522727272725 1.5714285714285 5.7954545454545 L 1.5714285714285 15.0681818181818 C 1.5714285714285 15.172821969697 1.6103050595238 15.2633759469695 1.68805803571433 15.33984375 C 1.76581101190476 15.4163115530305 1.85788690476193 15.4545454545455 1.96428571428567 15.4545454545455 L 20.0357142857143 15.4545454545455 C 20.1421130952381 15.4545454545455 20.2341889880952 15.4163115530305 20.3119419642857 15.33984375 Z M 19.8577008928572 3.9662642045455 C 20.23828125 3.38269412878799 20.4285714285715 2.85345643939377 20.4285714285715 2.37855113636374 L 20.4285714285715 2.24573863636374 L 20.4285714285715 2.08274147727275 C 20.4285714285715 2.08274147727275 20.4265252976191 2.03042140151501 20.4224330357143 1.92578125 C 20.4183407738096 1.82114109848499 20.4060639880952 1.77083333333326 20.3856026785715 1.7748579545455 C 20.3651413690476 1.77888257575751 20.3426339285715 1.74266098484827 20.3180803571428 1.66619318181824 C 20.2935267857143 1.58972537878799 20.2566964285715 1.559540719697 20.2075892857143 1.5756392045455 C 20.1584821428572 1.59173768939377 20.1011904761904 1.58167613636374 20.0357142857143 1.5454545454545 L 1.96428571428567 1.5454545454545 C 1.85788690476193 1.5454545454545 1.76581101190476 1.58368844696952 1.68805803571433 1.66015625 C 1.6103050595238 1.73662405303048 1.5714285714285 1.827178030303 1.5714285714285 1.93181818181824 C 1.5714285714285 3.28409090909076 2.1729910714285 4.42708333333326 3.3761160714285 5.3607954545455 C 4.95572916666674 6.58428030303048 6.5967261904762 7.86008522727275 8.29910714285717 9.18821022727275 C 8.34821428571433 9.22845643939377 8.49144345238091 9.34718276515173 8.72879464285717 9.5443892045455 C 8.96614583333326 9.74159564393949 9.15438988095241 9.89251893939377 9.29352678571433 9.99715909090924 C 9.4326636904762 10.1017992424242 9.61476934523807 10.2285748106062 9.83984375 10.3774857954545 C 10.0649181547619 10.526396780303 10.2715773809524 10.6370738636363 10.4598214285715 10.7095170454545 C 10.6480654761904 10.7819602272727 10.8240327380952 10.8181818181818 10.9877232142857 10.8181818181818 L 11 10.8181818181818 L 11.0122767857143 10.8181818181818 C 11.1759672619048 10.8181818181818 11.3519345238096 10.7819602272727 11.5401785714285 10.7095170454545 C 11.7284226190476 10.6370738636363 11.9350818452381 10.526396780303 12.16015625 10.3774857954545 C 12.3852306547619 10.2285748106062 12.5673363095238 10.1017992424242 12.7064732142857 9.99715909090924 C 12.8456101190476 9.89251893939377 13.0338541666667 9.74159564393949 13.2712053571428 9.5443892045455 C 13.5085565476191 9.34718276515173 13.6517857142857 9.22845643939377 13.7008928571428 9.18821022727275 C 15.4032738095238 7.86008522727275 17.0442708333333 6.58428030303048 18.6238839285715 5.3607954545455 C 19.0658482142857 5.014678030303 19.4771205357143 4.549834280303 19.8577008928572 3.9662642045455 Z M 21.4229910714285 0.567471590909236 C 21.8076636904761 0.945785984848271 22 1.40056818181824 22 1.93181818181824 L 22 15.0681818181818 C 22 15.5994318181818 21.8076636904761 16.0542140151517 21.4229910714285 16.4325284090908 C 21.0383184523809 16.8108428030305 20.5758928571428 17 20.0357142857143 17 L 1.96428571428567 17 C 1.42410714285717 17 0.961681547619094 16.8108428030305 0.577008928571502 16.4325284090908 C 0.192336309523796 16.0542140151517 0 15.5994318181818 0 15.0681818181818 L 0 1.93181818181824 C 0 1.40056818181824 0.192336309523796 0.945785984848271 0.577008928571502 0.567471590909236 C 0.961681547619094 0.189157196969518 1.42410714285717 0 1.96428571428567 0 L 20.0357142857143 0 C 20.5758928571428 0 21.0383184523809 0.189157196969518 21.4229910714285 0.567471590909236 Z" transform="matrix(1 0 0 1 -1204 -344 ) matrix(1 0 0 1 1204 344 )"/></g></svg>