<svg xmlns="http://www.w3.org/2000/svg" xmlns:xlink="http://www.w3.org/1999/xlink" width="22" height="19" version="1.1"><g><path fill="#0079fe" fill-rule="nonzero" stroke="none" d="M 7.39676339285717 6.79720052083337 C 7.70368303571433 7.1064453125 7.85714285714283 7.47960069444434 7.85714285714283 7.91666666666663 C 7.85714285714283 8.35373263888891 7.70368303571433 8.72688802083337 7.39676339285717 9.0361328125 C 7.08984375 9.34537760416663 6.71949404761909 9.5 6.28571428571433 9.5 C 5.85193452380955 9.5 5.4815848214285 9.34537760416663 5.1746651785715 9.0361328125 C 4.86774553571433 8.72688802083337 4.71428571428567 8.35373263888891 4.71428571428567 7.91666666666663 C 4.71428571428567 7.47960069444434 4.86774553571433 7.1064453125 5.1746651785715 6.79720052083337 C 5.4815848214285 6.48795572916663 5.85193452380955 6.33333333333337 6.28571428571433 6.33333333333337 C 6.71949404761909 6.33333333333337 7.08984375 6.48795572916663 7.39676339285717 6.79720052083337 Z M 12.1110491071428 6.79720052083337 C 12.41796875 7.1064453125 12.5714285714285 7.47960069444434 12.5714285714285 7.91666666666663 C 12.5714285714285 8.35373263888891 12.41796875 8.72688802083337 12.1110491071428 9.0361328125 C 11.8041294642857 9.34537760416663 11.4337797619048 9.5 11 9.5 C 10.5662202380952 9.5 10.1958705357143 9.34537760416663 9.88895089285717 9.0361328125 C 9.58203125 8.72688802083337 9.4285714285715 8.35373263888891 9.4285714285715 7.91666666666663 C 9.4285714285715 7.47960069444434 9.58203125 7.1064453125 9.88895089285717 6.79720052083337 C 10.1958705357143 6.48795572916663 10.5662202380952 6.33333333333337 11 6.33333333333337 C 11.4337797619048 6.33333333333337 11.8041294642857 6.48795572916663 12.1110491071428 6.79720052083337 Z M 16.8253348214285 6.79720052083337 C 17.1322544642857 7.1064453125 17.2857142857143 7.47960069444434 17.2857142857143 7.91666666666663 C 17.2857142857143 8.35373263888891 17.1322544642857 8.72688802083337 16.8253348214285 9.0361328125 C 16.5184151785715 9.34537760416663 16.1480654761905 9.5 15.7142857142857 9.5 C 15.2805059523809 9.5 14.91015625 9.34537760416663 14.6032366071428 9.0361328125 C 14.2963169642857 8.72688802083337 14.1428571428572 8.35373263888891 14.1428571428572 7.91666666666663 C 14.1428571428572 7.47960069444434 14.2963169642857 7.1064453125 14.6032366071428 6.79720052083337 C 14.91015625 6.48795572916663 15.2805059523809 6.33333333333337 15.7142857142857 6.33333333333337 C 16.1480654761905 6.33333333333337 16.5184151785715 6.48795572916663 16.8253348214285 6.79720052083337 Z M 15.68359375 2.44303385416663 C 14.2308407738095 1.86990017361109 12.6696428571428 1.58333333333337 11 1.58333333333337 C 9.33035714285717 1.58333333333337 7.76915922619045 1.86990017361109 6.31640625 2.44303385416663 C 4.86365327380955 3.01616753472229 3.70963541666671 3.78927951388891 2.8543526785715 4.76236979166663 C 1.9990699404762 5.73546006944434 1.5714285714285 6.78689236111109 1.5714285714285 7.91666666666663 C 1.5714285714285 8.84027777777771 1.86402529761909 9.72059461805566 2.44921875 10.5576171875 C 3.03441220238091 11.3946397569443 3.85900297619045 12.1182725694443 4.9229910714285 12.728515625 L 5.9910714285715 13.3470052083334 L 5.65959821428567 14.5345052083334 C 5.46316964285717 15.2849392361111 5.1767113095238 15.994140625 4.80022321428567 16.662109375 C 6.04427083333329 16.142578125 7.16964285714283 15.4375 8.17633928571433 14.546875 L 8.7042410714285 14.0768229166666 L 9.40401785714283 14.1510416666666 C 9.96875 14.2170138888889 10.5007440476191 14.25 11 14.25 C 12.6696428571428 14.25 14.2308407738095 13.9634331597223 15.68359375 13.3902994791666 C 17.1363467261905 12.8171657986111 18.2903645833333 12.0440538194443 19.1456473214285 11.0709635416666 C 20.0009300595238 10.0978732638889 20.4285714285715 9.04644097222229 20.4285714285715 7.91666666666663 C 20.4285714285715 6.78689236111109 20.0009300595238 5.73546006944434 19.1456473214285 4.76236979166663 C 18.2903645833333 3.78927951388891 17.1363467261905 3.01616753472229 15.68359375 2.44303385416663 Z M 21.1283482142857 4.8427734375 C 21.7094494047619 5.81998697916663 22 6.84461805555566 22 7.91666666666663 C 22 9.3515625 21.5089285714285 10.6771918402777 20.5267857142857 11.8935546875 C 19.5446428571428 13.1099175347223 18.2105654761905 14.0706380208334 16.5245535714285 14.7757161458334 C 14.8385416666667 15.4807942708334 12.9970238095238 15.8333333333334 11 15.8333333333334 C 10.4270833333333 15.8333333333334 9.83370535714283 15.8003472222223 9.2198660714285 15.734375 C 7.59933035714283 17.1775173611111 5.71688988095238 18.1753472222223 3.57254464285717 18.7278645833334 C 3.17150297619045 18.8433159722223 2.70498511904762 18.9340277777777 2.1729910714285 19 L 2.11160714285717 19 C 1.98883928571433 19 1.87834821428567 18.9567057291666 1.7801339285715 18.8701171875 C 1.68191964285717 18.7835286458334 1.61644345238091 18.6701388888889 1.58370535714283 18.5299479166666 L 1.58370535714283 18.517578125 C 1.55915178571433 18.4845920138889 1.55710565476193 18.4351128472223 1.57756696428567 18.369140625 C 1.59802827380955 18.3031684027777 1.60621279761909 18.2619357638889 1.60212053571433 18.2454427083334 C 1.59802827380955 18.2289496527777 1.61644345238091 18.1897786458334 1.6573660714285 18.1279296875 L 1.73102678571433 18.0166015625 C 1.73102678571433 18.0166015625 1.75967261904762 17.9815538194443 1.81696428571433 17.9114583333334 C 1.87425595238091 17.8413628472223 1.90699404761909 17.8042534722223 1.9151785714285 17.8001302083334 C 1.97247023809521 17.7341579861111 2.09933035714283 17.5919053819443 2.2957589285715 17.3733723958334 C 2.4921875 17.1548394097223 2.63337053571433 16.9981553819443 2.71930803571433 16.9033203125 C 2.80524553571433 16.8084852430557 2.93210565476193 16.6456163194443 3.09988839285717 16.4147135416666 C 3.26767113095238 16.1838107638889 3.40066964285717 15.9735243055557 3.4988839285715 15.7838541666666 C 3.59709821428567 15.5941840277777 3.70758928571433 15.3509114583334 3.83035714285717 15.0540364583334 C 3.953125 14.7571614583334 4.0595238095238 14.4437934027777 4.1495535714285 14.1139322916666 C 2.86458333333329 13.3799913194443 1.85174851190479 12.4728732638889 1.11104910714283 11.392578125 C 0.370349702380906 10.3122829861111 0 9.15364583333337 0 7.91666666666663 C 0 6.84461805555566 0.290550595238074 5.81998697916663 0.871651785714334 4.8427734375 C 1.45275297619045 3.86555989583337 2.234375 3.02235243055566 3.21651785714283 2.31315104166663 C 4.19866071428567 1.60394965277771 5.36904761904762 1.04112413194434 6.7276785714285 0.624674479166629 C 8.08630952380955 0.208224826388914 9.51041666666671 0 11 0 C 12.4895833333333 0 13.9136904761905 0.208224826388914 15.2723214285715 0.624674479166629 C 16.6309523809524 1.04112413194434 17.8013392857143 1.60394965277771 18.7834821428572 2.31315104166663 C 19.765625 3.02235243055566 20.5472470238095 3.86555989583337 21.1283482142857 4.8427734375 Z" transform="matrix(1 0 0 1 -592 -543 ) matrix(1 0 0 1 592 543 )"/></g></svg>