<svg xmlns="http://www.w3.org/2000/svg" xmlns:xlink="http://www.w3.org/1999/xlink" width="23" height="22" version="1.1"><g><path fill="#0079fe" fill-rule="nonzero" stroke="none" d="M 7.75155758928577 18.4797196691177 C 7.70811307397958 18.5155045955881 7.6698119897959 18.5399485294118 7.6435205676022 18.5564016544118 L 6.47406412627549 19.3224770220589 C 6.25631721938771 19.4735827205882 5.96022037627552 19.5616553308823 5.65386163903065 19.5616553308823 C 5.39836294642851 19.5616553308823 5.14286425382659 19.496612132353 4.91595404974476 19.373325367647 C 4.43182235331631 19.1230790441177 4.11287968750003 18.598713235294 4.11287968750003 18.0431286764705 L 4.11287968750003 16.1428299632353 C 1.66423195153061 14.4677876838236 0.212436096938859 11.8687398897059 0.212436096938859 9.13077113970587 C 0.212436096938859 4.23290165441182 4.75590845025511 0.248242647058873 10.3402264987245 0.248242647058873 C 15.9251188137756 0.248242647058873 20.4685911670919 4.23290165441182 20.4685911670919 9.13077113970587 C 20.4685911670919 14.028640625 15.9251188137756 18.013299632353 10.3402264987245 18.013299632353 C 9.78693313137762 18.013299632353 9.22050653698989 17.9704172794118 8.65407994260192 17.8857693014706 L 7.75155758928577 18.4797196691177 Z M 8.61924942602047 16.7018391544117 C 9.19825994897951 16.8001112132353 9.77727047193889 16.8498180147059 10.3402764349489 16.8498180147059 C 15.2798429209184 16.8498180147059 19.2980361288265 13.38696875 19.2980361288265 9.13077113970587 C 19.2980361288265 4.8745735294118 15.2798179528063 1.41172426470592 10.3402264987245 1.41172426470592 C 5.40120931122453 1.41172426470592 1.38304107142858 4.8745735294118 1.38304107142858 9.13077113970587 C 1.38304107142858 11.5693327205882 2.74053236607142 13.8911590073529 5.01427847576542 15.341515625 C 5.18209519959521 15.4485010168365 5.28355193474317 15.6330551738079 5.28348466198975 15.8312132352941 L 5.28348466198975 18.0431038602941 C 5.28348466198975 18.1660928308823 5.35893829719384 18.2907941176471 5.46640105229585 18.3467545955882 C 5.61730832270416 18.4285735294118 5.77790322066335 18.3859641544117 5.81677857142858 18.3598327205882 L 6.98109158163265 17.5963134191176 C 7.00129016924211 17.5781014372228 7.04860358137569 17.5469895119282 7.07140124362252 17.5321139705883 L 8.19741316964303 16.7904577205882 C 8.32166359079633 16.7088965633452 8.47242012978563 16.6772259135967 8.61924942602047 16.7018391544117 Z M 19.7615191964286 20.306984375 C 19.7615191964286 20.8580523897058 19.4568582908163 21.3710275735294 18.9664595982143 21.6459908088236 C 18.9386736670498 21.6617318804921 18.9096088687037 21.675129904798 18.8795705676022 21.6860441176471 C 18.6452448341837 21.7709898897059 18.4297700255104 21.8124577205882 18.2205622130101 21.8124577205882 C 17.9159013073981 21.8124577205882 17.6227007653063 21.7246829044118 17.3723455038265 21.5585137867646 L 16.564701977041 21.0315919117647 C 16.5235545280611 21.0094310661765 16.4641054528062 20.9733731617648 16.4046563775511 20.9171148897059 L 15.9353807079082 20.6029669117648 C 14.1257668367348 20.8469595588235 12.3607210459184 20.5421920955883 10.8151948979591 19.717575367647 C 10.5305584183673 19.5656011029411 10.4236699298471 19.2128143382353 10.5768492984695 18.9299099264705 C 10.6784995637211 18.7409825100288 10.8765480659409 18.6230255274835 11.0921048964211 18.6230255274835 C 11.1889983164555 18.6230255274835 11.2843708565994 18.6469746457506 11.3696367984694 18.6927169117647 C 12.7517216836734 19.4304025735293 14.3464100446428 19.6823363970588 15.9805480229593 19.4201783088235 C 16.1268611607143 19.3966029411764 16.2777684311225 19.4298318014705 16.4006614795919 19.5119237132353 L 17.1208417091837 19.9933823529412 C 17.144836065051 20.0095625 17.168281122449 20.027752757353 17.1900033801021 20.0473575367647 L 18.0182206313776 20.5882012867647 C 18.1273812181123 20.6612104779411 18.2457051020408 20.6685808823529 18.4268986926022 20.6106351102941 C 18.5303415816327 20.5384944852941 18.590939190051 20.4277150735294 18.590939190051 20.306984375 L 18.590939190051 18.823671875 C 18.5909646957105 18.6299044416679 18.6880395091302 18.4488641803109 18.8498585140305 18.3407987132353 C 20.4748581632653 17.2563069852941 21.444819387755 15.5545625 21.444819387755 13.7886185661765 C 21.444819387755 13.3733446691177 21.3973799744899 12.9685680147059 21.3041989795919 12.5853814338236 C 21.2201812818878 12.2436626838235 21.0927190688776 11.897700367647 20.9269557716838 11.5579669117648 C 20.7857860650511 11.2690818014706 20.9069563137757 10.9208363970588 21.1978847576532 10.7805257352941 C 21.4893874681122 10.6404880514706 21.8386164540816 10.7606479779412 21.9798111288267 11.0495330882353 C 22.1821527104593 11.4631194852942 22.3370548788265 11.8872031249999 22.4416463010205 12.3101452205883 C 22.5570988520409 12.7842334558824 22.6153993941327 13.2813014705882 22.6153993941327 13.7886185661765 C 22.6153993941327 15.8457058823529 21.5545542410715 17.8195597426471 19.7615191964286 19.1259080882352 L 19.7615191964286 20.306984375 Z M 14.1287378713084 10.72526640625 C 13.6165091260302 10.72526640625 13.1986376309238 10.236406640625 13.1986376309238 9.63716015624999 C 13.1986376309238 9.037913671875 13.6165091260302 8.54908398437499 14.1287378713084 8.54908398437499 C 14.6409151957417 8.54908398437499 15.0588124012708 9.037913671875 15.0588124012708 9.63716015624999 C 15.0588124012708 10.236406640625 14.6409409061641 10.72526640625 14.1287378713084 10.72526640625 Z M 6.81882770861944 10.6104281250001 C 6.25222141998643 10.6104281250001 5.78997373583445 10.0696535156251 5.78997373583445 9.40679179687493 C 5.78997373583445 8.74393007812506 6.25222141998643 8.20318554687498 6.81882770861944 8.20318554687498 C 7.38543399725279 8.20318554687498 7.84765597098215 8.74393007812506 7.84765597098215 9.40679179687493 C 7.84765597098215 10.0696535156251 7.38543399725279 10.6104281250001 6.81882770861944 10.6104281250001 Z M 10.7049066320399 10.72526640625 C 10.1926778867618 10.72526640625 9.77483210207765 10.236406640625 9.77483210207765 9.63716015624999 C 9.77483210207765 9.037913671875 10.1926778867618 8.54908398437499 10.7049066320399 8.54908398437499 C 11.217135377318 8.54908398437499 11.6350068724245 9.037913671875 11.6350068724245 9.63716015624999 C 11.6350068724245 10.236406640625 11.217135377318 10.72526640625 10.7049066320399 10.72526640625 Z" transform="matrix(1 0 0 1 -725 -542 ) matrix(1 0 0 1 725 542 )"/></g></svg>