<svg xmlns="http://www.w3.org/2000/svg" xmlns:xlink="http://www.w3.org/1999/xlink" width="22" height="17" version="1.1"><g><path fill="#0079fe" fill-rule="nonzero" stroke="none" d="M 16.1316964285715 3.07859228280597 C 16.9010416666667 4.02832794129256 17.2857142857143 5.0625739761698 17.2857142857143 6.18133038743792 C 17.2857142857143 7.30008679870582 16.9010416666667 8.33433283358318 16.1316964285715 9.28406849206976 C 15.3623511904762 10.2338041505562 14.3126860119048 10.9843367789789 12.9827008928572 11.5356663773376 C 11.6527157738096 12.0869959756964 10.2061011904762 12.3626607748757 8.64285714285717 12.3626607748757 C 7.93898809523807 12.3626607748757 7.21875 12.2982719166732 6.48214285714283 12.1694942002682 C 5.46726190476193 12.8777716404956 4.32961309523807 13.3928825061154 3.0691964285715 13.7148267971278 C 2.7745535714285 13.7872642626055 2.42261904761909 13.851653120808 2.01339285714283 13.9079933717352 L 1.9765625 13.9079933717352 C 1.88653273809524 13.9079933717352 1.80264136904759 13.8757989426339 1.72488839285717 13.8114100844315 C 1.64713541666674 13.747021226229 1.60007440476193 13.6625108498382 1.58370535714283 13.5578789552592 C 1.57552083333326 13.5337331334332 1.5714285714285 13.5075751597885 1.5714285714285 13.4794050343249 C 1.5714285714285 13.4512349088614 1.57347470238091 13.4250769352166 1.57756696428567 13.4009311133907 C 1.58165922619042 13.3767852915647 1.58984375 13.3526394697388 1.60212053571433 13.3284936479129 L 1.6328125 13.2681290933481 C 1.6328125 13.2681290933481 1.64713541666674 13.2459954233409 1.67578125 13.2017280833268 C 1.70442708333326 13.1574607433125 1.72079613095241 13.1373392251243 1.72488839285717 13.1413635287619 C 1.72898065476193 13.1453878323996 1.74739583333326 13.1252663142113 1.7801339285715 13.0809989741971 C 1.81287202380958 13.0367316341828 1.8292410714285 13.0186222678134 1.8292410714285 13.0266708750887 C 1.8701636904762 12.9783792314369 1.96428571428567 12.8777716404956 2.11160714285717 12.7248481022647 C 2.2589285714285 12.5719245640337 2.36532738095241 12.4532076067229 2.4308035714285 12.3686972303321 C 2.49627976190476 12.2841868539415 2.58835565476193 12.1674820484494 2.70703125 12.0185828138561 C 2.82570684523807 11.869683579263 2.92801339285717 11.7147478892133 3.01395089285717 11.5537757437071 C 3.09988839285717 11.3928035982009 3.18377976190476 11.215734238144 3.265625 11.0225676635366 C 2.25074404761909 10.4430679397143 1.45275297619042 9.73076619584936 0.871651785714334 8.88566243194191 C 0.290550595238074 8.04055866803435 0 7.13911465319973 0 6.18133038743792 C 0 5.0625739761698 0.384672619047592 4.02832794129256 1.15401785714283 3.07859228280597 C 1.92336309523807 2.12885662431938 2.97302827380958 1.37832399589684 4.30301339285717 0.826994397538101 C 5.63299851190476 0.275664799179367 7.07961309523807 0 8.64285714285717 0 C 10.2061011904762 0 11.6527157738096 0.275664799179367 12.9827008928572 0.826994397538101 C 14.3126860119048 1.37832399589684 15.3623511904762 2.12885662431938 16.1316964285715 3.07859228280597 Z M 21.0792410714285 6.4952260711749 C 21.6930803571428 7.35642704963311 22 8.28201688629372 22 9.27199558115683 C 22 10.237828454194 21.7094494047619 11.1412846208474 21.1283482142857 11.9823640811173 C 20.5472470238096 12.8234435413872 19.7492559523809 13.5337331334332 18.734375 14.1132328572556 C 18.8162202380952 14.306399431863 18.9001116071428 14.4834687919198 18.9860491071428 14.644440937426 C 19.0719866071428 14.8054130829322 19.1742931547619 14.9603487729819 19.29296875 15.1092480075752 C 19.4116443452381 15.2581472421683 19.5037202380952 15.3748520476603 19.5691964285715 15.4593624240511 C 19.6346726190476 15.5438728004418 19.7410714285715 15.6625897577527 19.8883928571428 15.8155132959836 C 20.0357142857143 15.9684368342145 20.1298363095238 16.0690444251559 20.1707589285715 16.1173360688076 C 20.1789434523809 16.1253846760831 20.1953125 16.1434940424525 20.2198660714285 16.171664167916 C 20.2444196428572 16.1998342933796 20.2628348214285 16.2199558115678 20.2751116071428 16.2320287224808 C 20.2873883928572 16.2441016333938 20.3037574404762 16.2642231515821 20.32421875 16.2923932770457 C 20.3446800595238 16.3205634025093 20.3590029761904 16.3426970725163 20.3671875 16.358794287067 L 20.3978794642857 16.4191588416319 C 20.3978794642857 16.4191588416319 20.4060639880952 16.4433046634578 20.4224330357143 16.4915963071096 C 20.4388020833333 16.5398879507615 20.4408482142857 16.5660459244062 20.4285714285715 16.5700702280438 C 20.4162946428572 16.5740945316816 20.4122023809524 16.6002525053262 20.4162946428572 16.6485441489781 C 20.3917410714285 16.7612246508324 20.3385416666667 16.8497593308609 20.2566964285715 16.9141481890633 C 20.1748511904762 16.9785370472658 20.0848214285715 17.0067071727294 19.9866071428572 16.9986585654541 C 19.5773809523809 16.9423183145269 19.2254464285715 16.8779294563244 18.9308035714285 16.8054919908467 C 17.6703869047619 16.4835476998343 16.5327380952381 15.9684368342145 15.5178571428572 15.2601593939871 C 14.78125 15.3889371103921 14.0610119047619 15.4533259685946 13.3571428571428 15.4533259685946 C 11.1391369047619 15.4533259685946 9.20758928571433 14.9221178884242 7.5625 13.8597017280833 C 8.03720238095241 13.8918961571845 8.3973214285715 13.9079933717352 8.64285714285717 13.9079933717352 C 9.96056547619042 13.9079933717352 11.2250744047619 13.7268997080407 12.4363839285715 13.3647123806518 C 13.6476934523809 13.0025250532628 14.7280505952381 12.4833898840054 15.6774553571428 11.8073068728794 C 16.7005208333333 11.0668350035509 17.4862351190476 10.213682632368 18.0345982142857 9.24784975933085 C 18.5829613095238 8.28201688629372 18.8571428571428 7.25984376232941 18.8571428571428 6.18133038743792 C 18.8571428571428 5.56158762723896 18.7630208333333 4.94989347431545 18.5747767857143 4.34624792866725 C 19.6305803571428 4.91769904521425 20.4654017857143 5.6340250927168 21.0792410714285 6.4952260711749 Z" transform="matrix(1 0 0 1 -680 -544 ) matrix(1 0 0 1 680 544 )"/></g></svg>