<svg xmlns="http://www.w3.org/2000/svg" xmlns:xlink="http://www.w3.org/1999/xlink" width="22" height="19" version="1.1"><g><path fill="#0079fe" fill-rule="nonzero" stroke="none" d="M 7.39676339285717 9.22762403390675 C 7.70368303571425 8.91182581234932 7.85714285714283 8.53076262500349 7.85714285714283 8.08443447186903 C 7.85714285714283 7.63810631873457 7.70368303571425 7.25704313138874 7.39676339285717 6.94124490983131 C 7.08984375 6.62544668827388 6.71949404761904 6.46754757749522 6.28571428571425 6.46754757749522 C 5.85193452380955 6.46754757749522 5.48158482142858 6.62544668827388 5.17466517857142 6.94124490983131 C 4.86774553571425 7.25704313138874 4.71428571428575 7.63810631873457 4.71428571428575 8.08443447186903 C 4.71428571428575 8.53076262500349 4.86774553571425 8.91182581234932 5.17466517857142 9.22762403390675 C 5.48158482142858 9.54342225546418 5.85193452380955 9.70132136624284 6.28571428571425 9.70132136624284 C 6.71949404761904 9.70132136624284 7.08984375 9.54342225546418 7.39676339285717 9.22762403390675 Z M 12.1110491071428 9.22762403390675 C 12.41796875 8.91182581234932 12.5714285714286 8.53076262500349 12.5714285714286 8.08443447186903 C 12.5714285714286 7.63810631873457 12.41796875 7.25704313138874 12.1110491071428 6.94124490983131 C 11.8041294642858 6.62544668827388 11.4337797619048 6.46754757749522 11 6.46754757749522 C 10.5662202380952 6.46754757749522 10.1958705357142 6.62544668827388 9.88895089285717 6.94124490983131 C 9.58203125 7.25704313138874 9.42857142857142 7.63810631873457 9.42857142857142 8.08443447186903 C 9.42857142857142 8.53076262500349 9.58203125 8.91182581234932 9.88895089285717 9.22762403390675 C 10.1958705357142 9.54342225546418 10.5662202380952 9.70132136624284 11 9.70132136624284 C 11.4337797619048 9.70132136624284 11.8041294642858 9.54342225546418 12.1110491071428 9.22762403390675 Z M 16.8253348214286 9.22762403390675 C 17.1322544642858 8.91182581234932 17.2857142857142 8.53076262500349 17.2857142857142 8.08443447186903 C 17.2857142857142 7.63810631873457 17.1322544642858 7.25704313138874 16.8253348214286 6.94124490983131 C 16.5184151785714 6.62544668827388 16.1480654761905 6.46754757749522 15.7142857142858 6.46754757749522 C 15.280505952381 6.46754757749522 14.91015625 6.62544668827388 14.6032366071428 6.94124490983131 C 14.2963169642858 7.25704313138874 14.1428571428572 7.63810631873457 14.1428571428572 8.08443447186903 C 14.1428571428572 8.53076262500349 14.2963169642858 8.91182581234932 14.6032366071428 9.22762403390675 C 14.91015625 9.54342225546418 15.280505952381 9.70132136624284 15.7142857142858 9.70132136624284 C 16.1480654761905 9.70132136624284 16.5184151785714 9.54342225546418 16.8253348214286 9.22762403390675 Z M 20.5267857142858 4.02326934264113 C 21.5089285714286 5.2654090141001 22 6.61913072384277 22 8.08443447186903 C 22 9.54973821989529 21.5089285714286 10.9034599296378 20.5267857142858 12.1455996010969 C 19.5446428571428 13.3877392725561 18.2105654761905 14.368819080861 16.5245535714286 15.0888390260119 C 14.8385416666666 15.8088589711627 12.9970238095238 16.1688689437381 11 16.1688689437381 C 10.0997023809524 16.1688689437381 9.23623511904762 16.0930773705644 8.40959821428575 15.9414942242167 C 6.9936755952381 17.3983766863348 5.21354166666663 18.3626139228234 3.06919642857142 18.8342059336825 C 2.6436011904762 18.9184187927643 2.29166666666663 18.9731571511677 2.01339285714283 18.9984210088923 C 1.91517857142858 19.0068422948004 1.8251488095238 18.9815784370759 1.74330357142858 18.9226294357185 C 1.66145833333337 18.8636804343612 1.60825892857142 18.7878888611873 1.58370535714283 18.6952547161972 C 1.55096726190479 18.5689354275742 1.6328125 18.4131416382726 1.82924107142858 18.2278733482922 C 1.8701636904762 18.1857669187513 1.9663318452381 18.0952380952382 2.11774553571425 17.9562868777529 C 2.26915922619045 17.8173356602676 2.3735119047619 17.7183855508463 2.43080357142858 17.659436549489 C 2.48809523809521 17.6004875481316 2.58426339285717 17.493116152802 2.71930803571425 17.3373223635003 C 2.85435267857142 17.1815285741988 2.95256696428575 17.0488933211448 3.01395089285717 16.939416604338 C 3.07533482142858 16.8299398875315 3.1592261904762 16.6741460982298 3.265625 16.4720352364332 C 3.3720238095238 16.2699243746365 3.45386904761904 16.0678135128397 3.51116071428575 15.865702651043 C 3.56845238095238 15.6635917892462 3.62779017857142 15.4214798193856 3.68917410714283 15.139366741461 C 3.75055803571425 14.8572536635364 3.8017113095238 14.5519820493643 3.84263392857142 14.2235518989445 C 2.64769345238096 13.4656361672069 1.7085193452381 12.5540319676445 1.02511160714283 11.4887393002575 C 0.34170386904762 10.4234466328708 0 9.28867835674123 0 8.08443447186903 C 0 6.61913072384277 0.491071428571416 5.2654090141001 1.47321428571425 4.02326934264113 C 2.45535714285717 2.78112967118204 3.78943452380955 1.80004986287702 5.47544642857142 1.08002991772628 C 7.16145833333337 0.360009972575426 9.0029761904762 0 11 0 C 12.9970238095238 0 14.8385416666666 0.360009972575426 16.5245535714286 1.08002991772628 C 18.2105654761905 1.80004986287702 19.5446428571428 2.78112967118204 20.5267857142858 4.02326934264113 Z" transform="matrix(1 0 0 1 -548 -543 ) matrix(1 0 0 1 548 543 )"/></g></svg>