<svg xmlns="http://www.w3.org/2000/svg" xmlns:xlink="http://www.w3.org/1999/xlink" width="22" height="13" version="1.1"><g><path fill="#0079fe" fill-rule="nonzero" stroke="none" d="M 21.7795591182365 1.34020618556701 C 21.9265197060788 1.4891179839633 22 1.66036655211917 22 1.85395189003441 C 22 2.04753722794953 21.9265197060788 2.21878579610541 21.7795591182365 2.36769759450169 L 11.5070140280561 12.7766323024055 C 11.3600534402138 12.9255441008019 11.1910487641951 13 11 13 C 10.8089512358049 13 10.6399465597862 12.9255441008019 10.4929859719439 12.7766323024055 L 0.220440881763516 2.36769759450169 C 0.0734802939211612 2.21878579610541 0 2.04753722794953 0 1.85395189003441 C 0 1.66036655211917 0.0734802939211612 1.4891179839633 0.220440881763516 1.34020618556701 L 1.32264529058117 0.22336769759454 C 1.46960587842353 0.0744558991981421 1.63861055444223 0 1.82965931863728 0 C 2.02070808283233 0 2.18971275885104 0.0744558991981421 2.3366733466934 0.22336769759454 L 11 9.00171821305844 L 19.6633266533066 0.22336769759454 C 19.810287241149 0.0744558991981421 19.9792919171677 0 20.1703406813627 0 C 20.3613894455578 0 20.5303941215765 0.0744558991981421 20.6773547094188 0.22336769759454 L 21.7795591182365 1.34020618556701 Z" transform="matrix(1 0 0 1 -459 -201 ) matrix(1 0 0 1 459 201 )"/></g></svg>