<svg xmlns="http://www.w3.org/2000/svg" xmlns:xlink="http://www.w3.org/1999/xlink" width="22" height="22" version="1.1"><g><path fill="#0079fe" fill-rule="nonzero" stroke="none" d="M 18.1328125 11.6588541666666 C 18.3046875 11.4869791666666 18.390625 11.2721354166666 18.390625 11.0143229166666 C 18.390625 10.7565104166666 18.3046875 10.5416666666666 18.1328125 10.3697916666666 L 16.8294270833334 9.06640625 C 16.6575520833334 8.89453125 16.4427083333334 8.80859375 16.1848958333333 8.80859375 C 15.9270833333333 8.80859375 15.7122395833333 8.89453125 15.5403645833333 9.06640625 L 12.8333333333333 11.7734375 L 12.8333333333333 4.58333333333337 C 12.8333333333333 4.33506944444446 12.7426215277778 4.12022569444446 12.5611979166667 3.93880208333337 C 12.3797743055556 3.75737847222217 12.1649305555556 3.66666666666663 11.9166666666667 3.66666666666663 L 10.0833333333333 3.66666666666663 C 9.83506944444444 3.66666666666663 9.62022569444444 3.75737847222217 9.43880208333332 3.93880208333337 C 9.25737847222224 4.12022569444446 9.16666666666668 4.33506944444446 9.16666666666668 4.58333333333337 L 9.16666666666668 11.7734375 L 6.45963541666668 9.06640625 C 6.27821180555556 8.88498263888891 6.06336805555556 8.79427083333337 5.81510416666668 8.79427083333337 C 5.56684027777776 8.79427083333337 5.35199652777776 8.88498263888891 5.17057291666668 9.06640625 L 3.8671875 10.3697916666666 C 3.6953125 10.5416666666666 3.609375 10.7565104166666 3.609375 11.0143229166666 C 3.609375 11.2721354166666 3.6953125 11.4869791666666 3.8671875 11.6588541666666 L 9.05208333333332 16.84375 L 10.35546875 18.1471354166666 C 10.52734375 18.3190104166666 10.7421875 18.4049479166666 11 18.4049479166666 C 11.2578125 18.4049479166666 11.47265625 18.3190104166666 11.64453125 18.1471354166666 L 12.9479166666667 16.84375 L 18.1328125 11.6588541666666 Z M 20.5247395833334 5.478515625 C 21.5082465277778 7.16384548611109 22 9.00434027777783 22 11 C 22 12.9956597222222 21.5082465277778 14.8361545138889 20.5247395833334 16.521484375 C 19.5412326388889 18.2068142361111 18.2068142361111 19.5412326388889 16.521484375 20.5247395833334 C 14.8361545138889 21.5082465277778 12.9956597222222 22 11 22 C 9.00434027777776 22 7.16384548611112 21.5082465277778 5.478515625 20.5247395833334 C 3.79318576388888 19.5412326388889 2.45876736111112 18.2068142361111 1.47526041666668 16.521484375 C 0.491753472222239 14.8361545138889 0 12.9956597222222 0 11 C 0 9.00434027777783 0.491753472222239 7.16384548611109 1.47526041666668 5.478515625 C 2.45876736111112 3.79318576388891 3.79318576388888 2.45876736111109 5.478515625 1.47526041666663 C 7.16384548611112 0.491753472222172 9.00434027777776 0 11 0 C 12.9956597222222 0 14.8361545138889 0.491753472222172 16.521484375 1.47526041666663 C 18.2068142361111 2.45876736111109 19.5412326388889 3.79318576388891 20.5247395833334 5.478515625 Z" transform="matrix(1 0 0 1 -24 -197 ) matrix(1 0 0 1 24 197 )"/></g></svg>