<svg xmlns="http://www.w3.org/2000/svg" xmlns:xlink="http://www.w3.org/1999/xlink" width="14" height="22" version="1.1"><g><path fill="#0079fe" fill-rule="nonzero" stroke="none" d="M 14 3.13895781637711 C 14 3.37551695616207 13.9144144144144 3.58023159636059 13.7432432432433 3.75310173697267 L 6.56756756756758 11 L 13.7432432432433 18.2468982630273 C 13.9144144144144 18.4197684036394 14 18.6244830438379 14 18.8610421836229 C 14 19.0976013234077 13.9144144144144 19.3023159636062 13.7432432432433 19.4751861042183 L 11.5 21.7406947890819 C 11.3288288288289 21.913564929694 11.1261261261261 22 10.8918918918919 22 C 10.6576576576577 22 10.454954954955 21.913564929694 10.2837837837838 21.7406947890819 L 0.256756756756715 11.6141439205956 C 0.0855855855855623 11.4412737799835 0 11.236559139785 0 11 C 0 10.763440860215 0.0855855855855623 10.5587262200165 0.256756756756715 10.3858560794044 L 10.2837837837838 0.259305210918114 C 10.454954954955 0.0864350703060381 10.6576576576577 0 10.8918918918919 0 C 11.1261261261261 0 11.3288288288289 0.0864350703060381 11.5 0.259305210918114 L 13.7432432432433 2.52481389578168 C 13.9144144144144 2.69768403639375 14 2.90239867659227 14 3.13895781637711 Z" transform="matrix(1 0 0 1 -689 -197 ) matrix(1 0 0 1 689 197 )"/></g></svg>