<svg xmlns="http://www.w3.org/2000/svg" xmlns:xlink="http://www.w3.org/1999/xlink" width="22" height="22" version="1.1"><g><path fill="#0079fe" fill-rule="nonzero" stroke="none" d="M 18.0611979166666 12.5611979166666 C 18.2426215277778 12.3797743055555 18.3333333333334 12.1649305555555 18.3333333333334 11.9166666666666 L 18.3333333333334 10.0833333333334 C 18.3333333333334 9.83506944444446 18.2426215277778 9.62022569444446 18.0611979166666 9.43880208333337 C 17.8797743055556 9.25737847222217 17.6649305555556 9.16666666666663 17.4166666666666 9.16666666666663 L 10.2265625 9.16666666666663 L 12.93359375 6.45963541666663 C 13.1150173611111 6.27821180555554 13.2057291666666 6.06336805555554 13.2057291666666 5.81510416666663 C 13.2057291666666 5.56684027777783 13.1150173611111 5.35199652777783 12.93359375 5.17057291666663 L 11.6302083333334 3.8671875 C 11.4583333333334 3.6953125 11.2434895833334 3.609375 10.9856770833334 3.609375 C 10.7278645833334 3.609375 10.5130208333334 3.6953125 10.3411458333334 3.8671875 L 5.15625 9.05208333333337 L 3.85286458333336 10.35546875 C 3.68098958333336 10.52734375 3.59505208333336 10.7421875 3.59505208333336 11 C 3.59505208333336 11.2578125 3.68098958333336 11.47265625 3.85286458333336 11.64453125 L 5.15625 12.9479166666666 L 10.3411458333334 18.1328125 C 10.5130208333334 18.3046875 10.7278645833334 18.390625 10.9856770833334 18.390625 C 11.2434895833334 18.390625 11.4583333333334 18.3046875 11.6302083333334 18.1328125 L 12.93359375 16.8294270833334 C 13.10546875 16.6575520833334 13.19140625 16.4427083333334 13.19140625 16.1848958333334 C 13.19140625 15.9270833333334 13.10546875 15.7122395833334 12.93359375 15.5403645833334 L 10.2265625 12.8333333333334 L 17.4166666666666 12.8333333333334 C 17.6649305555556 12.8333333333334 17.8797743055556 12.7426215277778 18.0611979166666 12.5611979166666 Z M 20.5247395833334 5.478515625 C 21.5082465277778 7.16384548611109 22 9.00434027777783 22 11 C 22 12.9956597222222 21.5082465277778 14.8361545138889 20.5247395833334 16.521484375 C 19.5412326388889 18.2068142361111 18.2068142361111 19.5412326388889 16.521484375 20.5247395833334 C 14.8361545138889 21.5082465277778 12.9956597222222 22 11 22 C 9.0043402777778 22 7.16384548611111 21.5082465277778 5.478515625 20.5247395833334 C 3.79318576388889 19.5412326388889 2.45876736111111 18.2068142361111 1.47526041666664 16.521484375 C 0.4917534722222 14.8361545138889 0 12.9956597222222 0 11 C 0 9.00434027777783 0.4917534722222 7.16384548611109 1.47526041666664 5.478515625 C 2.45876736111111 3.79318576388891 3.79318576388889 2.45876736111109 5.478515625 1.47526041666663 C 7.16384548611111 0.491753472222172 9.0043402777778 0 11 0 C 12.9956597222222 0 14.8361545138889 0.491753472222172 16.521484375 1.47526041666663 C 18.2068142361111 2.45876736111109 19.5412326388889 3.79318576388891 20.5247395833334 5.478515625 Z" transform="matrix(1 0 0 1 -69 -197 ) matrix(1 0 0 1 69 197 )"/></g></svg>