<svg xmlns="http://www.w3.org/2000/svg" xmlns:xlink="http://www.w3.org/1999/xlink" width="22" height="22" version="1.1"><g><path fill="#0079fe" fill-rule="nonzero" stroke="none" d="M 16.37109375 10.6705729166666 C 16.45703125 10.7565104166666 16.5 10.8663194444445 16.5 11 C 16.5 11.1336805555555 16.45703125 11.2434895833334 16.37109375 11.3294270833334 L 11.7877604166667 15.9127604166666 C 11.7018229166667 15.9986979166666 11.5920138888889 16.0416666666666 11.4583333333333 16.0416666666666 C 11.3342013888889 16.0416666666666 11.2267795138889 15.9963107638889 11.1360677083333 15.9055989583334 C 11.0453559027778 15.8148871527778 11 15.7074652777778 11 15.5833333333334 L 11 12.8333333333334 L 5.95833333333326 12.8333333333334 C 5.83420138888886 12.8333333333334 5.72677951388886 12.7879774305555 5.63606770833326 12.697265625 C 5.54535590277777 12.6065538194445 5.5 12.4991319444445 5.5 12.375 L 5.5 9.625 C 5.5 9.50086805555554 5.54535590277777 9.39344618055554 5.63606770833326 9.302734375 C 5.72677951388886 9.21202256944446 5.83420138888886 9.16666666666663 5.95833333333326 9.16666666666663 L 11 9.16666666666663 L 11 6.41666666666663 C 11 6.28298611111109 11.04296875 6.17317708333337 11.12890625 6.08723958333337 C 11.21484375 6.00130208333337 11.3246527777778 5.95833333333337 11.4583333333333 5.95833333333337 C 11.5729166666667 5.95833333333337 11.6875 6.00607638888891 11.8020833333333 6.1015625 L 16.37109375 10.6705729166666 Z M 17.74609375 14.91015625 C 18.4431423611111 13.7165798611111 18.7916666666667 12.4131944444445 18.7916666666667 11 C 18.7916666666667 9.58680555555554 18.4431423611111 8.28342013888891 17.74609375 7.08984375 C 17.0490451388889 5.89626736111109 16.1037326388889 4.95095486111109 14.91015625 4.25390625 C 13.7165798611111 3.55685763888891 12.4131944444444 3.20833333333337 11 3.20833333333337 C 9.5868055555556 3.20833333333337 8.28342013888886 3.55685763888891 7.08984375 4.25390625 C 5.89626736111114 4.95095486111109 4.95095486111114 5.89626736111109 4.25390625 7.08984375 C 3.55685763888886 8.28342013888891 3.20833333333326 9.58680555555554 3.20833333333326 11 C 3.20833333333326 12.4131944444445 3.55685763888886 13.7165798611111 4.25390625 14.91015625 C 4.95095486111114 16.1037326388889 5.89626736111114 17.0490451388889 7.08984375 17.74609375 C 8.28342013888886 18.4431423611111 9.5868055555556 18.7916666666666 11 18.7916666666666 C 12.4131944444444 18.7916666666666 13.7165798611111 18.4431423611111 14.91015625 17.74609375 C 16.1037326388889 17.0490451388889 17.0490451388889 16.1037326388889 17.74609375 14.91015625 Z M 20.5247395833333 5.478515625 C 21.5082465277778 7.16384548611109 22 9.00434027777783 22 11 C 22 12.9956597222222 21.5082465277778 14.8361545138889 20.5247395833333 16.521484375 C 19.5412326388889 18.2068142361111 18.2068142361111 19.5412326388889 16.521484375 20.5247395833334 C 14.8361545138889 21.5082465277778 12.9956597222222 22 11 22 C 9.00434027777777 22 7.16384548611114 21.5082465277778 5.478515625 20.5247395833334 C 3.79318576388886 19.5412326388889 2.45876736111114 18.2068142361111 1.47526041666674 16.521484375 C 0.491753472222229 14.8361545138889 0 12.9956597222222 0 11 C 0 9.00434027777783 0.491753472222229 7.16384548611109 1.47526041666674 5.478515625 C 2.45876736111114 3.79318576388891 3.79318576388886 2.45876736111109 5.478515625 1.47526041666663 C 7.16384548611114 0.491753472222172 9.00434027777777 0 11 0 C 12.9956597222222 0 14.8361545138889 0.491753472222172 16.521484375 1.47526041666663 C 18.2068142361111 2.45876736111109 19.5412326388889 3.79318576388891 20.5247395833333 5.478515625 Z" transform="matrix(1 0 0 1 -292 -197 ) matrix(1 0 0 1 292 197 )"/></g></svg>