<svg xmlns="http://www.w3.org/2000/svg" xmlns:xlink="http://www.w3.org/1999/xlink" width="22" height="22" version="1.1"><g><path fill="#0079fe" fill-rule="nonzero" stroke="none" d="M 18.1471354166666 11.64453125 C 18.3190104166666 11.47265625 18.4049479166666 11.2578125 18.4049479166666 11 C 18.4049479166666 10.7421875 18.3190104166666 10.52734375 18.1471354166666 10.35546875 L 16.84375 9.05208333333337 L 11.6588541666666 3.8671875 C 11.4869791666666 3.6953125 11.2721354166666 3.609375 11.0143229166666 3.609375 C 10.7565104166666 3.609375 10.5416666666666 3.6953125 10.3697916666666 3.8671875 L 9.06640625 5.17057291666663 C 8.89453125 5.34244791666663 8.80859375 5.55729166666663 8.80859375 5.81510416666663 C 8.80859375 6.07291666666663 8.89453125 6.28776041666663 9.06640625 6.45963541666663 L 11.7734375 9.16666666666663 L 4.58333333333336 9.16666666666663 C 4.33506944444444 9.16666666666663 4.12022569444444 9.25737847222217 3.93880208333336 9.43880208333337 C 3.7573784722222 9.62022569444446 3.66666666666664 9.83506944444446 3.66666666666664 10.0833333333334 L 3.66666666666664 11.9166666666666 C 3.66666666666664 12.1649305555555 3.7573784722222 12.3797743055555 3.93880208333336 12.5611979166666 C 4.12022569444444 12.7426215277778 4.33506944444444 12.8333333333334 4.58333333333336 12.8333333333334 L 11.7734375 12.8333333333334 L 9.06640625 15.5403645833334 C 8.88498263888889 15.7217881944445 8.79427083333336 15.9366319444445 8.79427083333336 16.1848958333334 C 8.79427083333336 16.4331597222222 8.88498263888889 16.6480034722222 9.06640625 16.8294270833334 L 10.3697916666666 18.1328125 C 10.5416666666666 18.3046875 10.7565104166666 18.390625 11.0143229166666 18.390625 C 11.2721354166666 18.390625 11.4869791666666 18.3046875 11.6588541666666 18.1328125 L 16.84375 12.9479166666666 L 18.1471354166666 11.64453125 Z M 20.5247395833334 5.478515625 C 21.5082465277778 7.16384548611109 22 9.00434027777783 22 11 C 22 12.9956597222222 21.5082465277778 14.8361545138889 20.5247395833334 16.521484375 C 19.5412326388889 18.2068142361111 18.2068142361111 19.5412326388889 16.521484375 20.5247395833334 C 14.8361545138889 21.5082465277778 12.9956597222222 22 11 22 C 9.0043402777778 22 7.16384548611111 21.5082465277778 5.478515625 20.5247395833334 C 3.79318576388889 19.5412326388889 2.45876736111111 18.2068142361111 1.47526041666664 16.521484375 C 0.4917534722222 14.8361545138889 0 12.9956597222222 0 11 C 0 9.00434027777783 0.4917534722222 7.16384548611109 1.47526041666664 5.478515625 C 2.45876736111111 3.79318576388891 3.79318576388889 2.45876736111109 5.478515625 1.47526041666663 C 7.16384548611111 0.491753472222172 9.0043402777778 0 11 0 C 12.9956597222222 0 14.8361545138889 0.491753472222172 16.521484375 1.47526041666663 C 18.2068142361111 2.45876736111109 19.5412326388889 3.79318576388891 20.5247395833334 5.478515625 Z" transform="matrix(1 0 0 1 -113 -197 ) matrix(1 0 0 1 113 197 )"/></g></svg>