<svg xmlns="http://www.w3.org/2000/svg" xmlns:xlink="http://www.w3.org/1999/xlink" width="22" height="21" version="1.1"><g><path fill="#0079fe" fill-rule="nonzero" stroke="none" d="M 21.4775353016689 9.81521739130437 C 21.8258451005563 10.1861413043479 22 10.6188858695652 22 11.1134510869565 C 22 11.5985054347826 21.8258451005563 12.0264945652174 21.4775353016689 12.3974184782609 L 20.4184852374839 13.4673913043479 C 20.0607616602481 13.8288043478261 19.6324347454001 14.0095108695652 19.1335044929397 14.0095108695652 C 18.6251604621309 14.0095108695652 18.201540436457 13.8288043478261 17.8626444159179 13.4673913043479 L 13.7111681643132 9.28736413043475 L 13.7111681643132 19.3308423913044 C 13.7111681643132 19.8254076086956 13.5346598202825 20.2272418478261 13.1816431322208 20.5363451086956 C 12.8286264441592 20.8454483695652 12.4026529738981 21 11.9037227214377 21 L 10.0962772785623 21 C 9.59734702610189 21 9.17137355584083 20.8454483695652 8.81835686777924 20.5363451086956 C 8.46534017971754 20.2272418478261 8.28883183568678 19.8254076086956 8.28883183568678 19.3308423913044 L 8.28883183568678 9.28736413043475 L 4.13735558408212 13.4673913043479 C 3.79845956354296 13.8288043478261 3.37483953786909 14.0095108695652 2.86649550706034 14.0095108695652 C 2.35815147625158 14.0095108695652 1.93453145057765 13.8288043478261 1.5956354300385 13.4673913043479 L 0.536585365853625 12.3974184782609 C 0.178861788617894 12.0360054347826 0 11.6080163043479 0 11.1134510869565 C 0 10.609375 0.178861788617894 10.1766304347826 0.536585365853625 9.81521739130437 L 9.72913992297816 0.527853260869506 C 10.058622165169 0.175951086956502 10.482242190843 0 11 0 C 11.5083440308088 0 11.9366709456568 0.175951086956502 12.2849807445443 0.527853260869506 L 21.4775353016689 9.81521739130437 Z" transform="matrix(1 0 0 1 -337 -247 ) matrix(1 0 0 1 337 247 )"/></g></svg>