<svg xmlns="http://www.w3.org/2000/svg" xmlns:xlink="http://www.w3.org/1999/xlink" width="22" height="22" version="1.1"><g><path fill="#0079fe" fill-rule="nonzero" stroke="none" d="M 11 17.0442708333334 C 11.2482638888889 17.0442708333334 11.4631076388889 16.9535590277777 11.64453125 16.7721354166666 L 18.1471354166666 10.26953125 C 18.3285590277778 10.0881076388889 18.4192708333334 9.87326388888891 18.4192708333334 9.625 C 18.4192708333334 9.37673611111109 18.3285590277778 9.16189236111109 18.1471354166666 8.98046875 L 16.6861979166666 7.51953125 C 16.5047743055556 7.33810763888891 16.2899305555556 7.24739583333337 16.0416666666667 7.24739583333337 C 15.7934027777778 7.24739583333337 15.5785590277778 7.33810763888891 15.3971354166667 7.51953125 L 11 11.9166666666666 L 6.60286458333332 7.51953125 C 6.42144097222224 7.33810763888891 6.20659722222224 7.24739583333337 5.95833333333332 7.24739583333337 C 5.71006944444444 7.24739583333337 5.49522569444444 7.33810763888891 5.31380208333332 7.51953125 L 3.85286458333332 8.98046875 C 3.67144097222224 9.16189236111109 3.58072916666668 9.37673611111109 3.58072916666668 9.625 C 3.58072916666668 9.87326388888891 3.67144097222224 10.0881076388889 3.85286458333332 10.26953125 L 10.35546875 16.7721354166666 C 10.5368923611111 16.9535590277777 10.7517361111111 17.0442708333334 11 17.0442708333334 Z M 20.5247395833334 5.478515625 C 21.5082465277778 7.16384548611109 22 9.00434027777783 22 11 C 22 12.9956597222222 21.5082465277778 14.8361545138889 20.5247395833334 16.521484375 C 19.5412326388889 18.2068142361111 18.2068142361111 19.5412326388889 16.521484375 20.5247395833334 C 14.8361545138889 21.5082465277777 12.9956597222222 22 11 22 C 9.00434027777776 22 7.16384548611112 21.5082465277777 5.478515625 20.5247395833334 C 3.79318576388888 19.5412326388889 2.45876736111112 18.2068142361111 1.47526041666668 16.521484375 C 0.491753472222239 14.8361545138889 0 12.9956597222222 0 11 C 0 9.00434027777783 0.491753472222239 7.16384548611109 1.47526041666668 5.478515625 C 2.45876736111112 3.79318576388891 3.79318576388888 2.45876736111109 5.478515625 1.47526041666663 C 7.16384548611112 0.491753472222172 9.00434027777776 0 11 0 C 12.9956597222222 0 14.8361545138889 0.491753472222172 16.521484375 1.47526041666663 C 18.2068142361111 2.45876736111109 19.5412326388889 3.79318576388891 20.5247395833334 5.478515625 Z" transform="matrix(1 0 0 1 -24 -246 ) matrix(1 0 0 1 24 246 )"/></g></svg>