<svg xmlns="http://www.w3.org/2000/svg" xmlns:xlink="http://www.w3.org/1999/xlink" width="22" height="22" version="1.1"><g><path fill="#0079fe" fill-rule="nonzero" stroke="none" d="M 18.1328125 11.6302083333334 C 18.3046875 11.4583333333334 18.390625 11.2434895833334 18.390625 10.9856770833334 C 18.390625 10.7278645833334 18.3046875 10.5130208333334 18.1328125 10.3411458333334 L 12.9479166666666 5.15625 L 11.64453125 3.85286458333337 C 11.47265625 3.68098958333337 11.2578125 3.59505208333337 11 3.59505208333337 C 10.7421875 3.59505208333337 10.52734375 3.68098958333337 10.35546875 3.85286458333337 L 9.05208333333337 5.15625 L 3.8671875 10.3411458333334 C 3.6953125 10.5130208333334 3.609375 10.7278645833334 3.609375 10.9856770833334 C 3.609375 11.2434895833334 3.6953125 11.4583333333334 3.8671875 11.6302083333334 L 5.17057291666663 12.93359375 C 5.34244791666663 13.10546875 5.55729166666663 13.19140625 5.81510416666663 13.19140625 C 6.07291666666663 13.19140625 6.28776041666663 13.10546875 6.45963541666663 12.93359375 L 9.16666666666663 10.2265625 L 9.16666666666663 17.4166666666666 C 9.16666666666663 17.6649305555555 9.2573784722222 17.8797743055555 9.43880208333337 18.0611979166666 C 9.62022569444443 18.2426215277778 9.83506944444443 18.3333333333334 10.0833333333334 18.3333333333334 L 11.9166666666666 18.3333333333334 C 12.1649305555556 18.3333333333334 12.3797743055556 18.2426215277778 12.5611979166666 18.0611979166666 C 12.7426215277778 17.8797743055555 12.8333333333334 17.6649305555555 12.8333333333334 17.4166666666666 L 12.8333333333334 10.2265625 L 15.5403645833334 12.93359375 C 15.7217881944445 13.1150173611111 15.9366319444445 13.2057291666666 16.1848958333334 13.2057291666666 C 16.4331597222222 13.2057291666666 16.6480034722222 13.1150173611111 16.8294270833334 12.93359375 L 18.1328125 11.6302083333334 Z M 20.5247395833334 5.478515625 C 21.5082465277778 7.16384548611109 22 9.00434027777783 22 11 C 22 12.9956597222222 21.5082465277778 14.8361545138889 20.5247395833334 16.521484375 C 19.5412326388889 18.2068142361111 18.2068142361111 19.5412326388889 16.521484375 20.5247395833334 C 14.8361545138889 21.5082465277778 12.9956597222222 22 11 22 C 9.0043402777778 22 7.16384548611111 21.5082465277778 5.478515625 20.5247395833334 C 3.79318576388889 19.5412326388889 2.45876736111111 18.2068142361111 1.47526041666663 16.521484375 C 0.4917534722222 14.8361545138889 0 12.9956597222222 0 11 C 0 9.00434027777783 0.4917534722222 7.16384548611109 1.47526041666663 5.478515625 C 2.45876736111111 3.79318576388891 3.79318576388889 2.45876736111109 5.478515625 1.47526041666663 C 7.16384548611111 0.491753472222172 9.0043402777778 0 11 0 C 12.9956597222222 0 14.8361545138889 0.491753472222172 16.521484375 1.47526041666663 C 18.2068142361111 2.45876736111109 19.5412326388889 3.79318576388891 20.5247395833334 5.478515625 Z" transform="matrix(1 0 0 1 -158 -197 ) matrix(1 0 0 1 158 197 )"/></g></svg>