<svg xmlns="http://www.w3.org/2000/svg" xmlns:xlink="http://www.w3.org/1999/xlink" width="22" height="18" version="1.1"><g><path fill="#0079fe" fill-rule="nonzero" stroke="none" d="M 6.69166666666669 3.65625 C 7.11944444444445 4.09375 7.33333333333336 4.625 7.33333333333336 5.25 C 7.33333333333336 5.875 7.11944444444445 6.40625 6.69166666666669 6.84375 C 6.26388888888889 7.28125 5.74444444444445 7.5 5.13333333333334 7.5 C 4.52222222222221 7.5 4.00277777777779 7.28125 3.57500000000002 6.84375 C 3.14722222222221 6.40625 2.93333333333331 5.875 2.93333333333331 5.25 C 2.93333333333331 4.625 3.14722222222221 4.09375 3.57500000000002 3.65625 C 4.00277777777779 3.21875 4.52222222222221 3 5.13333333333334 3 C 5.74444444444445 3 6.26388888888889 3.21875 6.69166666666669 3.65625 Z M 14.3 4.875 L 19.0666666666667 9.75 L 19.0666666666667 15 L 2.93333333333331 15 L 2.93333333333331 12.75 L 6.6 9 L 8.43333333333331 10.875 L 14.3 4.875 Z M 20.4244791666666 1.611328125 C 20.3519097222222 1.537109375 20.2659722222222 1.5 20.1666666666666 1.5 L 1.83333333333336 1.5 C 1.73402777777778 1.5 1.64809027777778 1.537109375 1.57552083333336 1.611328125 C 1.5029513888889 1.685546875 1.4666666666667 1.7734375 1.4666666666667 1.875 L 1.4666666666667 16.125 C 1.4666666666667 16.2265625 1.5029513888889 16.314453125 1.57552083333336 16.388671875 C 1.64809027777778 16.462890625 1.73402777777778 16.5 1.83333333333336 16.5 L 20.1666666666666 16.5 C 20.2659722222222 16.5 20.3519097222222 16.462890625 20.4244791666666 16.388671875 C 20.4970486111111 16.314453125 20.5333333333333 16.2265625 20.5333333333333 16.125 L 20.5333333333333 1.875 C 20.5333333333333 1.7734375 20.4970486111111 1.685546875 20.4244791666666 1.611328125 Z M 21.4614583333333 0.55078125 C 21.8204861111111 0.91796875 22 1.359375 22 1.875 L 22 16.125 C 22 16.640625 21.8204861111111 17.08203125 21.4614583333333 17.44921875 C 21.1024305555556 17.81640625 20.6708333333333 18 20.1666666666666 18 L 1.83333333333336 18 C 1.32916666666667 18 0.897569444444443 17.81640625 0.53854166666666 17.44921875 C 0.179513888888891 17.08203125 0 16.640625 0 16.125 L 0 1.875 C 0 1.359375 0.179513888888891 0.91796875 0.53854166666666 0.55078125 C 0.897569444444443 0.18359375 1.32916666666667 0 1.83333333333336 0 L 20.1666666666666 0 C 20.6708333333333 0 21.1024305555556 0.18359375 21.4614583333333 0.55078125 Z" transform="matrix(1 0 0 1 -1204 -641 ) matrix(1 0 0 1 1204 641 )"/></g></svg>