<svg xmlns="http://www.w3.org/2000/svg" xmlns:xlink="http://www.w3.org/1999/xlink" width="22" height="16" version="1.1"><g><path fill="#0079fe" fill-rule="nonzero" stroke="none" d="M 12.0417515274949 15.1569892473117 C 11.4966055668703 15.7189964157706 11.1493550577054 16 11 16 C 10.8506449422946 16 10.5033944331297 15.7189964157706 9.95824847250509 15.1569892473117 C 9.41310251188051 14.594982078853 9.14052953156824 14.237514934289 9.14052953156824 14.0845878136201 C 9.14052953156824 13.8399044205496 9.37389680923285 13.6334528076463 9.84063136456212 13.4652329749104 C 10.3073659198914 13.2970131421744 10.693822131704 13.2129032258065 11 13.2129032258065 C 11.306177868296 13.2129032258065 11.6926340801086 13.2970131421744 12.1593686354379 13.4652329749104 C 12.6261031907671 13.6334528076463 12.8594704684318 13.8399044205496 12.8594704684318 14.0845878136201 C 12.8594704684318 14.237514934289 12.5868974881195 14.594982078853 12.0417515274949 15.1569892473117 Z M 15.0717922606924 12.031541218638 C 14.5079769178547 12.605017921147 14.1588594704684 12.8917562724014 14.0244399185336 12.8917562724014 C 14.0095044127631 12.8917562724014 13.8601493550577 12.7961768219832 13.5763747454175 12.605017921147 C 13.2926001357773 12.4138590203106 12.91361167685 12.2227001194742 12.4394093686354 12.031541218638 C 11.9652070604209 11.8403823178016 11.4854039375424 11.7448028673834 11 11.7448028673834 C 10.5145960624576 11.7448028673834 10.0347929395791 11.8403823178016 9.56059063136455 12.031541218638 C 9.08638832315003 12.2227001194742 8.70926680244401 12.4138590203106 8.42922606924644 12.605017921147 C 8.14918533604887 12.7961768219832 7.9979633401222 12.8917562724014 7.9755600814664 12.8917562724014 C 7.84114052953158 12.8917562724014 7.49202308214528 12.605017921147 6.92820773930752 12.031541218638 C 6.3643923964698 11.4580645161291 6.0824847250509 11.1025089605735 6.0824847250509 10.9648745519714 C 6.0824847250509 10.8654719235365 6.11982348947727 10.7775388291518 6.19450101832995 10.7010752688172 C 6.77698574338086 10.1123058542414 7.50882552613713 9.64970131421751 8.39002036659878 9.31326164874554 C 9.27121520706043 8.97682198327357 10.1412084181942 8.80860215053758 11 8.80860215053758 C 11.8587915818058 8.80860215053758 12.7287847929396 8.97682198327357 13.6099796334012 9.31326164874554 C 14.4911744738629 9.64970131421751 15.2230142566191 10.1123058542414 15.80549898167 10.7010752688172 C 15.8801765105227 10.7775388291518 15.9175152749491 10.8654719235365 15.9175152749491 10.9648745519714 C 15.9175152749491 11.1025089605735 15.6356076035302 11.4580645161291 15.0717922606924 12.031541218638 Z M 18.1130346232179 8.91182795698933 C 17.5529531568228 9.4853046594983 17.2094365241005 9.77204301075267 17.0824847250509 9.77204301075267 C 17.000339443313 9.77204301075267 16.9144602851324 9.74145758661894 16.8248472505092 9.68028673835124 C 15.8092328581127 8.87741935483882 14.8682959945689 8.2867383512546 14.0020366598778 7.90824372759857 C 13.1357773251867 7.52974910394278 12.1350984385608 7.34050179211476 11 7.34050179211476 C 10.3652410047522 7.34050179211476 9.72861507128311 7.42461170848264 9.09012219959266 7.59283154121863 C 8.45162932790225 7.76105137395462 7.89528173794975 7.96367980884111 7.42107942973523 8.20071684587811 C 6.94687712152071 8.4377538829151 6.52308214528173 8.6747909199521 6.14969450101833 8.91182795698933 C 5.7763068567549 9.14886499402633 5.48133061778682 9.35149342891282 5.26476578411405 9.5197132616488 C 5.04820095044129 9.68793309438479 4.93245078071961 9.77204301075267 4.9175152749491 9.77204301075267 C 4.79056347589953 9.77204301075267 4.44704684317717 9.4853046594983 3.88696537678207 8.91182795698933 C 3.32688391038698 8.33835125448036 3.04684317718941 7.98279569892475 3.04684317718941 7.84516129032249 C 3.04684317718941 7.75340501792107 3.08418194161574 7.66929510155319 3.15885947046842 7.59283154121863 C 4.14460285132383 6.58351254480294 5.33944331296674 5.79976105137393 6.74338085539716 5.24157706093183 C 8.14731839782754 4.68339307048973 9.56619144602851 4.4043010752689 11 4.4043010752689 C 12.4338085539715 4.4043010752689 13.8526816021725 4.68339307048973 15.2566191446028 5.24157706093183 C 16.6605566870333 5.79976105137393 17.8553971486762 6.58351254480294 18.8411405295315 7.59283154121863 C 18.9158180583843 7.66929510155319 18.9531568228106 7.75340501792107 18.9531568228106 7.84516129032249 C 18.9531568228106 7.98279569892475 18.673116089613 8.33835125448036 18.1130346232179 8.91182795698933 Z M 21.1542769857434 5.80358422939071 C 20.5904616429056 6.37706093189968 20.245078071962 6.66379928315405 20.1181262729124 6.66379928315405 C 20.0359809911745 6.66379928315405 19.9538357094365 6.62939068100354 19.8716904276986 6.56057347670253 C 18.5349626612356 5.36009557945044 17.147827562797 4.45591397849466 15.7102851323829 3.84802867383519 C 14.2727427019688 3.24014336917571 12.7026476578411 2.93620071684586 11 2.93620071684586 C 9.29735234215887 2.93620071684586 7.72725729803123 3.24014336917571 6.28971486761711 3.84802867383519 C 4.852172437203 4.45591397849466 3.46503733876443 5.36009557945044 2.12830957230144 6.56057347670253 C 2.04616429056346 6.62939068100354 1.96401900882555 6.66379928315405 1.88187372708757 6.66379928315405 C 1.75492192803801 6.66379928315405 1.40953835709438 6.37706093189968 0.84572301425662 5.80358422939071 C 0.28190767141886 5.23010752688174 0 4.87455197132613 0 4.7369175627241 C 0 4.63751493428913 0.0373387644263623 4.54958183990448 0.112016293279012 4.47311827956992 C 1.50848608282417 3.0508960573477 3.17006109979635 1.94982078853059 5.09674134419554 1.16989247311813 C 7.02342158859472 0.389964157706117 8.99117447386287 0 11 0 C 13.0088255261371 0 14.9765784114053 0.389964157706117 16.9032586558045 1.16989247311813 C 18.8299389002037 1.94982078853059 20.4915139171758 3.0508960573477 21.887983706721 4.47311827956992 C 21.9626612355737 4.54958183990448 22 4.63751493428913 22 4.7369175627241 C 22 4.87455197132613 21.7180923285811 5.23010752688174 21.1542769857434 5.80358422939071 Z" transform="matrix(1 0 0 1 -1106 -642 ) matrix(1 0 0 1 1106 642 )"/></g></svg>