<svg xmlns="http://www.w3.org/2000/svg" xmlns:xlink="http://www.w3.org/1999/xlink" width="22" height="22" version="1.1"><g><path fill="#0079fe" fill-rule="nonzero" stroke="none" d="M 16.0416666666666 14.7526041666666 C 16.2899305555555 14.7526041666666 16.5047743055555 14.6618923611111 16.6861979166666 14.48046875 L 18.1471354166666 13.01953125 C 18.3285590277778 12.8381076388889 18.4192708333334 12.6232638888889 18.4192708333334 12.375 C 18.4192708333334 12.1267361111111 18.3285590277778 11.9118923611111 18.1471354166666 11.73046875 L 11.64453125 5.22786458333337 C 11.4631076388889 5.04644097222217 11.2482638888889 4.95572916666663 11 4.95572916666663 C 10.7517361111111 4.95572916666663 10.5368923611111 5.04644097222217 10.35546875 5.22786458333337 L 3.85286458333337 11.73046875 C 3.6714409722222 11.9118923611111 3.58072916666663 12.1267361111111 3.58072916666663 12.375 C 3.58072916666663 12.6232638888889 3.6714409722222 12.8381076388889 3.85286458333337 13.01953125 L 5.31380208333337 14.48046875 C 5.49522569444443 14.6618923611111 5.71006944444443 14.7526041666666 5.95833333333337 14.7526041666666 C 6.2065972222222 14.7526041666666 6.4214409722222 14.6618923611111 6.60286458333337 14.48046875 L 11 10.0833333333334 L 15.3971354166666 14.48046875 C 15.5785590277778 14.6618923611111 15.7934027777778 14.7526041666666 16.0416666666666 14.7526041666666 Z M 20.5247395833334 5.478515625 C 21.5082465277778 7.16384548611109 22 9.00434027777783 22 11 C 22 12.9956597222222 21.5082465277778 14.8361545138889 20.5247395833334 16.521484375 C 19.5412326388889 18.2068142361111 18.2068142361111 19.5412326388889 16.521484375 20.5247395833334 C 14.8361545138889 21.5082465277777 12.9956597222222 22 11 22 C 9.0043402777778 22 7.16384548611111 21.5082465277777 5.478515625 20.5247395833334 C 3.79318576388889 19.5412326388889 2.45876736111111 18.2068142361111 1.47526041666663 16.521484375 C 0.4917534722222 14.8361545138889 0 12.9956597222222 0 11 C 0 9.00434027777783 0.4917534722222 7.16384548611109 1.47526041666663 5.478515625 C 2.45876736111111 3.79318576388891 3.79318576388889 2.45876736111109 5.478515625 1.47526041666663 C 7.16384548611111 0.491753472222172 9.0043402777778 0 11 0 C 12.9956597222222 0 14.8361545138889 0.491753472222172 16.521484375 1.47526041666663 C 18.2068142361111 2.45876736111109 19.5412326388889 3.79318576388891 20.5247395833334 5.478515625 Z" transform="matrix(1 0 0 1 -159 -246 ) matrix(1 0 0 1 159 246 )"/></g></svg>