<svg xmlns="http://www.w3.org/2000/svg" xmlns:xlink="http://www.w3.org/1999/xlink" width="22" height="12" version="1.1"><g><path fill="#0079fe" fill-rule="nonzero" stroke="none" d="M 21.591796875 9.72916666666663 C 21.8639322916666 9.99305555555554 22 10.3055555555555 22 10.6666666666666 C 22 11.0277777777778 21.8639322916666 11.3402777777777 21.591796875 11.6041666666666 C 21.3196614583334 11.8680555555555 20.9973958333334 12 20.625 12 L 1.375 12 C 1.00260416666664 12 0.680338541666643 11.8680555555555 0.408203125 11.6041666666666 C 0.136067708333357 11.3402777777777 0 11.0277777777778 0 10.6666666666666 C 0 10.3055555555555 0.136067708333357 9.99305555555554 0.408203125 9.72916666666663 L 10.033203125 0.395833333333371 C 10.3053385416666 0.131944444444457 10.6276041666666 0 11 0 C 11.3723958333334 0 11.6946614583334 0.131944444444457 11.966796875 0.395833333333371 L 21.591796875 9.72916666666663 Z" transform="matrix(1 0 0 1 -985 -202 ) matrix(1 0 0 1 985 202 )"/></g></svg>