<svg xmlns="http://www.w3.org/2000/svg" xmlns:xlink="http://www.w3.org/1999/xlink" width="12" height="22" version="1.1"><g><path fill="#0079fe" fill-rule="nonzero" stroke="none" d="M 11.6041666666667 10.033203125 C 11.8680555555555 10.3053385416667 12 10.6276041666667 12 11 C 12 11.3723958333333 11.8680555555555 11.6946614583333 11.6041666666667 11.966796875 L 2.27083333333331 21.591796875 C 2.00694444444443 21.8639322916667 1.69444444444446 22 1.33333333333331 22 C 0.972222222222229 22 0.659722222222257 21.8639322916667 0.395833333333314 21.591796875 C 0.131944444444429 21.3196614583333 0 20.9973958333333 0 20.625 L 0 1.375 C 0 1.00260416666674 0.131944444444429 0.680338541666742 0.395833333333314 0.408203125 C 0.659722222222257 0.136067708333258 0.972222222222229 0 1.33333333333331 0 C 1.69444444444446 0 2.00694444444443 0.136067708333258 2.27083333333331 0.408203125 L 11.6041666666667 10.033203125 Z" transform="matrix(1 0 0 1 -1032 -197 ) matrix(1 0 0 1 1032 197 )"/></g></svg>