<svg xmlns="http://www.w3.org/2000/svg" xmlns:xlink="http://www.w3.org/1999/xlink" width="22" height="17" version="1.1"><g><path fill="#0079fe" fill-rule="nonzero" stroke="none" d="M 4.02678571428567 13.0397727272727 C 4.48511904761909 13.4905303030303 4.71428571428567 14.0378787878788 4.71428571428567 14.6818181818181 C 4.71428571428567 15.3257575757575 4.48511904761909 15.873106060606 4.02678571428567 16.3238636363636 C 3.56845238095241 16.7746212121212 3.01190476190476 17 2.35714285714283 17 C 1.70238095238091 17 1.14583333333326 16.7746212121212 0.6875 16.3238636363636 C 0.229166666666742 15.873106060606 0 15.3257575757575 0 14.6818181818181 C 0 14.0378787878788 0.229166666666742 13.4905303030303 0.6875 13.0397727272727 C 1.14583333333326 12.5890151515152 1.70238095238091 12.3636363636364 2.35714285714283 12.3636363636364 C 3.01190476190476 12.3636363636364 3.56845238095241 12.5890151515152 4.02678571428567 13.0397727272727 Z M 4.02678571428567 6.85795454545462 C 4.48511904761909 7.30871212121212 4.71428571428567 7.85606060606062 4.71428571428567 8.5 C 4.71428571428567 9.14393939393938 4.48511904761909 9.69128787878788 4.02678571428567 10.1420454545454 C 3.56845238095241 10.5928030303031 3.01190476190476 10.8181818181819 2.35714285714283 10.8181818181819 C 1.70238095238091 10.8181818181819 1.14583333333326 10.5928030303031 0.6875 10.1420454545454 C 0.229166666666742 9.69128787878788 0 9.14393939393938 0 8.5 C 0 7.85606060606062 0.229166666666742 7.30871212121212 0.6875 6.85795454545462 C 1.14583333333326 6.40719696969688 1.70238095238091 6.18181818181813 2.35714285714283 6.18181818181813 C 3.01190476190476 6.18181818181813 3.56845238095241 6.40719696969688 4.02678571428567 6.85795454545462 Z M 21.8833705357143 13.2510653409091 C 21.9611235119048 13.3275331439394 22 13.4180871212121 22 13.5227272727273 L 22 15.8409090909091 C 22 15.9455492424241 21.9611235119048 16.0361032196969 21.8833705357143 16.1125710227273 C 21.8056175595239 16.1890388257575 21.7135416666667 16.2272727272727 21.6071428571428 16 L 6.6785714285715 16 C 6.57217261904759 16.2272727272727 6.48009672619042 16.1890388257575 6.40234375 16.1125710227273 C 6.32459077380958 16.0361032196969 6.28571428571433 15.9455492424241 6.28571428571433 15.8409090909091 L 6.28571428571433 13.5227272727273 C 6.28571428571433 13.4180871212121 6.32459077380958 13.3275331439394 6.40234375 13.2510653409091 C 6.48009672619042 13.1745975378788 6.57217261904759 13.1363636363636 6.6785714285715 13 L 21.6071428571428 13 C 21.7135416666667 13.1363636363636 21.8056175595239 13.1745975378788 21.8833705357143 13.2510653409091 Z M 4.02678571428567 0.676136363636374 C 4.48511904761909 1.12689393939399 4.71428571428567 1.67424242424249 4.71428571428567 2.31818181818187 C 4.71428571428567 2.96212121212125 4.48511904761909 3.50946969696975 4.02678571428567 3.96022727272725 C 3.56845238095241 4.41098484848476 3.01190476190476 4.63636363636363 2.35714285714283 4.63636363636363 C 1.70238095238091 4.63636363636363 1.14583333333326 4.41098484848476 0.6875 3.96022727272725 C 0.229166666666742 3.50946969696975 0 2.96212121212125 0 2.31818181818187 C 0 1.67424242424249 0.229166666666742 1.12689393939399 0.6875 0.676136363636374 C 1.14583333333326 0.225378787878753 1.70238095238091 0 2.35714285714283 0 C 3.01190476190476 0 3.56845238095241 0.225378787878753 4.02678571428567 0.676136363636374 Z M 21.8833705357143 7.06924715909088 C 21.9611235119048 7.14571496212125 22 7.23626893939399 22 7.34090909090912 L 22 9.65909090909088 C 22 9.76373106060601 21.9611235119048 9.85428503787875 21.8833705357143 9.93075284090912 C 21.8056175595239 10.0072206439394 21.7135416666667 10.0454545454546 21.6071428571428 10 L 6.6785714285715 10 C 6.57217261904759 10.0454545454546 6.48009672619042 10.0072206439394 6.40234375 9.93075284090912 C 6.32459077380958 9.85428503787875 6.28571428571433 9.76373106060601 6.28571428571433 9.65909090909088 L 6.28571428571433 7.34090909090912 C 6.28571428571433 7.23626893939399 6.32459077380958 7.14571496212125 6.40234375 7.06924715909088 C 6.48009672619042 6.99277935606062 6.57217261904759 6.95454545454538 6.6785714285715 7 L 21.6071428571428 7 C 21.7135416666667 6.95454545454538 21.8056175595239 6.99277935606062 21.8833705357143 7.06924715909088 Z M 21.8833705357143 0.887428977272748 C 21.9611235119048 0.963896780303116 22 1.05445075757586 22 1.15909090909088 L 22 3.47727272727275 C 22 3.58191287878788 21.9611235119048 3.67246685606062 21.8833705357143 3.74893465909088 C 21.8056175595239 3.82540246212125 21.7135416666667 3.86363636363637 21.6071428571428 4 L 6.6785714285715 4 C 6.57217261904759 3.86363636363637 6.48009672619042 3.82540246212125 6.40234375 3.74893465909088 C 6.32459077380958 3.67246685606062 6.28571428571433 3.58191287878788 6.28571428571433 3.47727272727275 L 6.28571428571433 1.15909090909088 C 6.28571428571433 1.05445075757586 6.32459077380958 0.963896780303116 6.40234375 0.887428977272748 C 6.48009672619042 0.810961174242493 6.57217261904759 0.772727272727252 6.6785714285715 1 L 21.6071428571428 1 C 21.7135416666667 0.772727272727252 21.8056175595239 0.810961174242493 21.8833705357143 0.887428977272748 Z" transform="matrix(1 0 0 1 -1159 -296 ) matrix(1 0 0 1 1159 296 )"/></g></svg>