<svg xmlns="http://www.w3.org/2000/svg" xmlns:xlink="http://www.w3.org/1999/xlink" width="22" height="17" version="1.1"><g><path fill="#0079fe" fill-rule="nonzero" stroke="none" d="M 5.94196428571433 12.7017045454546 C 6.17113095238091 12.9270833333334 6.28571428571433 13.2007575757575 6.28571428571433 13.5227272727273 L 6.28571428571433 15.8409090909091 C 6.28571428571433 16.1628787878788 6.17113095238091 16.4365530303031 5.94196428571433 16.6619318181819 C 5.71279761904759 16.8873106060606 5.4345238095238 17 5.10714285714283 17 L 1.1785714285715 17 C 0.851190476190425 17 0.572916666666742 16.8873106060606 0.34375 16.6619318181819 C 0.114583333333258 16.4365530303031 0 16.1628787878788 0 15.8409090909091 L 0 13.5227272727273 C 0 13.2007575757575 0.114583333333258 12.9270833333334 0.34375 12.7017045454546 C 0.572916666666742 12.4763257575759 0.851190476190425 12.3636363636364 1.1785714285715 12.3636363636364 L 5.10714285714283 12.3636363636364 C 5.4345238095238 12.3636363636364 5.71279761904759 12.4763257575759 5.94196428571433 12.7017045454546 Z M 5.94196428571433 6.51988636363637 C 6.17113095238091 6.74526515151524 6.28571428571433 7.01893939393938 6.28571428571433 7.34090909090912 L 6.28571428571433 9.65909090909088 C 6.28571428571433 9.98106060606062 6.17113095238091 10.2547348484848 5.94196428571433 10.4801136363636 C 5.71279761904759 10.7054924242425 5.4345238095238 10.8181818181819 5.10714285714283 10.8181818181819 L 1.1785714285715 10.8181818181819 C 0.851190476190425 10.8181818181819 0.572916666666742 10.7054924242425 0.34375 10.4801136363636 C 0.114583333333258 10.2547348484848 0 9.98106060606062 0 9.65909090909088 L 0 7.34090909090912 C 0 7.01893939393938 0.114583333333258 6.74526515151524 0.34375 6.51988636363637 C 0.572916666666742 6.29450757575751 0.851190476190425 6.18181818181813 1.1785714285715 6.18181818181813 L 5.10714285714283 6.18181818181813 C 5.4345238095238 6.18181818181813 5.71279761904759 6.29450757575751 5.94196428571433 6.51988636363637 Z M 21.65625 12.7017045454546 C 21.8854166666667 12.9270833333334 22 13.2007575757575 22 13.5227272727273 L 22 15.8409090909091 C 22 16.1628787878788 21.8854166666667 16.4365530303031 21.65625 16.6619318181819 C 21.4270833333333 16.8873106060606 21.1488095238096 17 20.8214285714285 17 L 9.03571428571433 17 C 8.70833333333326 17 8.43005952380958 16.8873106060606 8.20089285714283 16.6619318181819 C 7.9717261904762 16.4365530303031 7.85714285714283 16.1628787878788 7.85714285714283 15.8409090909091 L 7.85714285714283 13.5227272727273 C 7.85714285714283 13.2007575757575 7.9717261904762 12.9270833333334 8.20089285714283 12.7017045454546 C 8.43005952380958 12.4763257575759 8.70833333333326 12.3636363636364 9.03571428571433 12.3636363636364 L 20.8214285714285 12.3636363636364 C 21.1488095238096 12.3636363636364 21.4270833333333 12.4763257575759 21.65625 12.7017045454546 Z M 5.94196428571433 0.33806818181813 C 6.17113095238091 0.563446969696884 6.28571428571433 0.837121212121247 6.28571428571433 1.15909090909088 L 6.28571428571433 3.47727272727275 C 6.28571428571433 3.79924242424249 6.17113095238091 4.07291666666663 5.94196428571433 4.29829545454538 C 5.71279761904759 4.52367424242414 5.4345238095238 4.63636363636363 5.10714285714283 4.63636363636363 L 1.1785714285715 4.63636363636363 C 0.851190476190425 4.63636363636363 0.572916666666742 4.52367424242414 0.34375 4.29829545454538 C 0.114583333333258 4.07291666666663 0 3.79924242424249 0 3.47727272727275 L 0 1.15909090909088 C 0 0.837121212121247 0.114583333333258 0.563446969696884 0.34375 0.33806818181813 C 0.572916666666742 0.112689393939377 0.851190476190425 0 1.1785714285715 0 L 5.10714285714283 0 C 5.4345238095238 0 5.71279761904759 0.112689393939377 5.94196428571433 0.33806818181813 Z M 21.65625 6.51988636363637 C 21.8854166666667 6.74526515151524 22 7.01893939393938 22 7.34090909090912 L 22 9.65909090909088 C 22 9.98106060606062 21.8854166666667 10.2547348484848 21.65625 10.4801136363636 C 21.4270833333333 10.7054924242425 21.1488095238096 10.8181818181819 20.8214285714285 10.8181818181819 L 9.03571428571433 10.8181818181819 C 8.70833333333326 10.8181818181819 8.43005952380958 10.7054924242425 8.20089285714283 10.4801136363636 C 7.9717261904762 10.2547348484848 7.85714285714283 9.98106060606062 7.85714285714283 9.65909090909088 L 7.85714285714283 7.34090909090912 C 7.85714285714283 7.01893939393938 7.9717261904762 6.74526515151524 8.20089285714283 6.51988636363637 C 8.43005952380958 6.29450757575751 8.70833333333326 6.18181818181813 9.03571428571433 6.18181818181813 L 20.8214285714285 6.18181818181813 C 21.1488095238096 6.18181818181813 21.4270833333333 6.29450757575751 21.65625 6.51988636363637 Z M 21.65625 0.33806818181813 C 21.8854166666667 0.563446969696884 22 0.837121212121247 22 1.15909090909088 L 22 3.47727272727275 C 22 3.79924242424249 21.8854166666667 4.07291666666663 21.65625 4.29829545454538 C 21.4270833333333 4.52367424242414 21.1488095238096 4.63636363636363 20.8214285714285 4.63636363636363 L 9.03571428571433 4.63636363636363 C 8.70833333333326 4.63636363636363 8.43005952380958 4.52367424242414 8.20089285714283 4.29829545454538 C 7.9717261904762 4.07291666666663 7.85714285714283 3.79924242424249 7.85714285714283 3.47727272727275 L 7.85714285714283 1.15909090909088 C 7.85714285714283 0.837121212121247 7.9717261904762 0.563446969696884 8.20089285714283 0.33806818181813 C 8.43005952380958 0.112689393939377 8.70833333333326 0 9.03571428571433 0 L 20.8214285714285 0 C 21.1488095238096 0 21.4270833333333 0.112689393939377 21.65625 0.33806818181813 Z" transform="matrix(1 0 0 1 -1204 -296 ) matrix(1 0 0 1 1204 296 )"/></g></svg>