<svg xmlns="http://www.w3.org/2000/svg" xmlns:xlink="http://www.w3.org/1999/xlink" width="22" height="17" version="1.1"><g><path fill="#0079fe" fill-rule="nonzero" stroke="none" d="M 3.0262276785715 14.0237926136364 C 3.10398065476193 14.1002604166666 3.14285714285717 14.1908143939394 3.14285714285717 14.2954545454546 L 3.14285714285717 16.6136363636364 C 3.14285714285717 16.7182765151515 3.10398065476193 16.8088304924241 3.0262276785715 16.8852982954546 C 2.94847470238091 16.9617660984848 2.8563988095238 17 2.75 17 L 0.392857142857167 17 C 0.286458333333286 17 0.194382440476204 16.9617660984848 0.116629464285666 16.8852982954546 C 0.0388764880952124 16.8088304924241 0 16.7182765151515 0 16.6136363636364 L 0 14.2954545454546 C 0 14.1908143939394 0.0388764880952124 14.1002604166666 0.116629464285666 14.0237926136364 C 0.194382440476204 13.947324810606 0.286458333333286 13.9090909090909 0.392857142857167 13.9090909090909 L 2.75 13.9090909090909 C 2.8563988095238 13.9090909090909 2.94847470238091 13.947324810606 3.0262276785715 14.0237926136364 Z M 3.0262276785715 9.38742897727275 C 3.10398065476193 9.46389678030312 3.14285714285717 9.55445075757586 3.14285714285717 9.65909090909088 L 3.14285714285717 11.9772727272727 C 3.14285714285717 12.0819128787879 3.10398065476193 12.1724668560606 3.0262276785715 12.2489346590909 C 2.94847470238091 12.3254024621212 2.8563988095238 12.3636363636364 2.75 12.3636363636364 L 0.392857142857167 12.3636363636364 C 0.286458333333286 12.3636363636364 0.194382440476204 12.3254024621212 0.116629464285666 12.2489346590909 C 0.0388764880952124 12.1724668560606 0 12.0819128787879 0 11.9772727272727 L 0 9.65909090909088 C 0 9.55445075757586 0.0388764880952124 9.46389678030312 0.116629464285666 9.38742897727275 C 0.194382440476204 9.31096117424249 0.286458333333286 9.27272727272725 0.392857142857167 9.27272727272725 L 2.75 9.27272727272725 C 2.8563988095238 9.27272727272725 2.94847470238091 9.31096117424249 3.0262276785715 9.38742897727275 Z M 3.0262276785715 4.75106534090912 C 3.10398065476193 4.82753314393938 3.14285714285717 4.91808712121212 3.14285714285717 5.02272727272725 L 3.14285714285717 7.34090909090912 C 3.14285714285717 7.44554924242414 3.10398065476193 7.53610321969688 3.0262276785715 7.61257102272725 C 2.94847470238091 7.68903882575751 2.8563988095238 7.72727272727275 2.75 7.72727272727275 L 0.392857142857167 7.72727272727275 C 0.286458333333286 7.72727272727275 0.194382440476204 7.68903882575751 0.116629464285666 7.61257102272725 C 0.0388764880952124 7.53610321969688 0 7.44554924242414 0 7.34090909090912 L 0 5.02272727272725 C 0 4.91808712121212 0.0388764880952124 4.82753314393938 0.116629464285666 4.75106534090912 C 0.194382440476204 4.67459753787875 0.286458333333286 4.63636363636363 0.392857142857167 4.63636363636363 L 2.75 4.63636363636363 C 2.8563988095238 4.63636363636363 2.94847470238091 4.67459753787875 3.0262276785715 4.75106534090912 Z M 21.8833705357143 14.0237926136364 C 21.9611235119048 14.1002604166666 22 14.1908143939394 22 14.2954545454546 L 22 16.6136363636364 C 22 16.7182765151515 21.9611235119048 16.8088304924241 21.8833705357143 16.8852982954546 C 21.8056175595239 16.9617660984848 21.7135416666667 17 21.6071428571428 17 L 5.10714285714283 17 C 5.00074404761909 17 4.90866815476193 16.9617660984848 4.8309151785715 16.8852982954546 C 4.75316220238091 16.8088304924241 4.71428571428567 16.7182765151515 4.71428571428567 16.6136363636364 L 4.71428571428567 14.2954545454546 C 4.71428571428567 14.1908143939394 4.75316220238091 14.1002604166666 4.8309151785715 14.0237926136364 C 4.90866815476193 13.947324810606 5.00074404761909 13.9090909090909 5.10714285714283 14 L 21.6071428571428 14 C 21.7135416666667 13.9090909090909 21.8056175595239 13.947324810606 21.8833705357143 14.0237926136364 Z M 3.0262276785715 0.114701704545382 C 3.10398065476193 0.191169507575864 3.14285714285717 0.281723484848499 3.14285714285717 0.386363636363626 L 3.14285714285717 2.70454545454538 C 3.14285714285717 2.80918560606062 3.10398065476193 2.89973958333337 3.0262276785715 2.97620738636363 C 2.94847470238091 3.05267518939399 2.8563988095238 3.09090909090912 2.75 3.09090909090912 L 0.392857142857167 3.09090909090912 C 0.286458333333286 3.09090909090912 0.194382440476204 3.05267518939399 0.116629464285666 2.97620738636363 C 0.0388764880952124 2.89973958333337 0 2.80918560606062 0 2.70454545454538 L 0 0.386363636363626 C 0 0.281723484848499 0.0388764880952124 0.191169507575864 0.116629464285666 0.114701704545382 C 0.194382440476204 0.0382339015152411 0.286458333333286 0 0.392857142857167 0 L 2.75 0 C 2.8563988095238 0 2.94847470238091 0.0382339015152411 3.0262276785715 0.114701704545382 Z M 21.8833705357143 9.38742897727275 C 21.9611235119048 9.46389678030312 22 9.55445075757586 22 9.65909090909088 L 22 11.9772727272727 C 22 12.0819128787879 21.9611235119048 12.1724668560606 21.8833705357143 12.2489346590909 C 21.8056175595239 12.3254024621212 21.7135416666667 12.3636363636364 21.6071428571428 12.3636363636364 L 5.10714285714283 12.3636363636364 C 5.00074404761909 12.3636363636364 4.90866815476193 12.3254024621212 4.8309151785715 12.2489346590909 C 4.75316220238091 12.1724668560606 4.71428571428567 12.0819128787879 4.71428571428567 11.9772727272727 L 4.71428571428567 9.65909090909088 C 4.71428571428567 9.55445075757586 4.75316220238091 9.46389678030312 4.8309151785715 9.38742897727275 C 4.90866815476193 9.31096117424249 5.00074404761909 9.27272727272725 5.10714285714283 9 L 21.6071428571428 9 C 21.7135416666667 9.27272727272725 21.8056175595239 9.31096117424249 21.8833705357143 9.38742897727275 Z M 21.8833705357143 4.75106534090912 C 21.9611235119048 4.82753314393938 22 4.91808712121212 22 5.02272727272725 L 22 7.34090909090912 C 22 7.44554924242414 21.9611235119048 7.53610321969688 21.8833705357143 7.61257102272725 C 21.8056175595239 7.68903882575751 21.7135416666667 7.72727272727275 21.6071428571428 8 L 5.10714285714283 8 C 5.00074404761909 7.72727272727275 4.90866815476193 7.68903882575751 4.8309151785715 7.61257102272725 C 4.75316220238091 7.53610321969688 4.71428571428567 7.44554924242414 4.71428571428567 7.34090909090912 L 4.71428571428567 5.02272727272725 C 4.71428571428567 4.91808712121212 4.75316220238091 4.82753314393938 4.8309151785715 4.75106534090912 C 4.90866815476193 4.67459753787875 5.00074404761909 4.63636363636363 5.10714285714283 4.63636363636363 L 21.6071428571428 4.63636363636363 C 21.7135416666667 4.63636363636363 21.8056175595239 4.67459753787875 21.8833705357143 4.75106534090912 Z M 21.8833705357143 0.114701704545382 C 21.9611235119048 0.191169507575864 22 0.281723484848499 22 0.386363636363626 L 22 2.70454545454538 C 22 2.80918560606062 21.9611235119048 2.89973958333337 21.8833705357143 2.97620738636363 C 21.8056175595239 3.05267518939399 21.7135416666667 3.09090909090912 21.6071428571428 3 L 5.10714285714283 3 C 5.00074404761909 3.09090909090912 4.90866815476193 3.05267518939399 4.8309151785715 2.97620738636363 C 4.75316220238091 2.89973958333337 4.71428571428567 2.80918560606062 4.71428571428567 2.70454545454538 L 4.71428571428567 0.386363636363626 C 4.71428571428567 0.281723484848499 4.75316220238091 0.191169507575864 4.8309151785715 0.114701704545382 C 4.90866815476193 0.0382339015152411 5.00074404761909 0 5.10714285714283 0 L 21.6071428571428 0 C 21.7135416666667 0 21.8056175595239 0.0382339015152411 21.8833705357143 0.114701704545382 Z" transform="matrix(1 0 0 1 -1115 -296 ) matrix(1 0 0 1 1115 296 )"/></g></svg>