<svg xmlns="http://www.w3.org/2000/svg" xmlns:xlink="http://www.w3.org/1999/xlink" width="22" height="22" version="1.1"><g><path fill="#0079fe" fill-rule="nonzero" stroke="none" d="M 21.5625 8.4375 C 21.8541666666667 8.72916666666663 22 9.08333333333337 22 9.5 L 22 12.5 C 22 12.9166666666666 21.8541666666667 13.2708333333334 21.5625 13.5625 C 21.2708333333333 13.8541666666666 20.9166666666667 14 20.5 14 L 14 14 L 14 20.5 C 14 20.9166666666666 13.8541666666667 21.2708333333334 13.5625 21.5625 C 13.2708333333333 21.8541666666666 12.9166666666667 22 12.5 22 L 9.5 22 C 9.08333333333335 22 8.72916666666667 21.8541666666666 8.43749999999998 21.5625 C 8.14583333333332 21.2708333333334 8.00000000000001 20.9166666666666 8.00000000000001 20.5 L 8.00000000000001 14 L 1.5 14 C 1.08333333333334 14 0.729166666666664 13.8541666666666 0.437500000000007 13.5625 C 0.145833333333346 13.2708333333334 0 12.9166666666666 0 12.5 L 0 9.5 C 0 9.08333333333337 0.145833333333346 8.72916666666663 0.437500000000007 8.4375 C 0.729166666666664 8.14583333333337 1.08333333333334 8 1.5 8 L 8.00000000000001 8 L 8.00000000000001 1.5 C 8.00000000000001 1.08333333333337 8.14583333333332 0.729166666666629 8.43749999999998 0.4375 C 8.72916666666667 0.145833333333371 9.08333333333335 0 9.5 0 L 12.5 0 C 12.9166666666667 0 13.2708333333333 0.145833333333371 13.5625 0.4375 C 13.8541666666667 0.729166666666629 14 1.08333333333337 14 1.5 L 14 8 L 20.5 8 C 20.9166666666667 8 21.2708333333333 8.14583333333337 21.5625 8.4375 Z" transform="matrix(1 0 0 1 -24 -344 ) matrix(1 0 0 1 24 344 )"/></g></svg>