<svg xmlns="http://www.w3.org/2000/svg" xmlns:xlink="http://www.w3.org/1999/xlink" width="22" height="22" version="1.1"><g><path fill="#0079fe" fill-rule="nonzero" stroke="none" d="M 18.0611979166667 12.5611979166666 C 18.2426215277778 12.3797743055555 18.3333333333333 12.1649305555555 18.3333333333333 11.9166666666666 L 18.3333333333333 10.0833333333334 C 18.3333333333333 9.83506944444446 18.2426215277778 9.62022569444446 18.0611979166667 9.43880208333337 C 17.8797743055556 9.25737847222217 17.6649305555556 9.16666666666663 17.4166666666667 9.16666666666663 L 4.58333333333326 9.16666666666663 C 4.3350694444444 9.16666666666663 4.1202256944444 9.25737847222217 3.93880208333326 9.43880208333337 C 3.75737847222223 9.62022569444446 3.66666666666674 9.83506944444446 3.66666666666674 10.0833333333334 L 3.66666666666674 11.9166666666666 C 3.66666666666674 12.1649305555555 3.75737847222223 12.3797743055555 3.93880208333326 12.5611979166666 C 4.1202256944444 12.7426215277778 4.3350694444444 12.8333333333334 4.58333333333326 12.8333333333334 L 17.4166666666667 12.8333333333334 C 17.6649305555556 12.8333333333334 17.8797743055556 12.7426215277778 18.0611979166667 12.5611979166666 Z M 20.7897135416667 1.21028645833337 C 21.5965711805556 2.01714409722217 22 2.98871527777771 22 4.125 L 22 17.875 C 22 19.0112847222222 21.5965711805556 19.9828559027778 20.7897135416667 20.7897135416666 C 19.9828559027778 21.5965711805555 19.0112847222222 22 17.875 22 L 4.125 22 C 2.98871527777777 22 2.01714409722223 21.5965711805555 1.21028645833326 20.7897135416666 C 0.4034288194444 19.9828559027778 0 19.0112847222222 0 17.875 L 0 4.125 C 0 2.98871527777771 0.4034288194444 2.01714409722217 1.21028645833326 1.21028645833337 C 2.01714409722223 0.403428819444457 2.98871527777777 0 4.125 0 L 17.875 0 C 19.0112847222222 0 19.9828559027778 0.403428819444457 20.7897135416667 1.21028645833337 Z" transform="matrix(1 0 0 1 -337 -344 ) matrix(1 0 0 1 337 344 )"/></g></svg>