<svg xmlns="http://www.w3.org/2000/svg" xmlns:xlink="http://www.w3.org/1999/xlink" width="22" height="22" version="1.1"><g><path fill="#0079fe" fill-rule="nonzero" stroke="none" d="M 17.859375 10.140625 C 17.953125 10.234375 18 10.3541666666666 18 10.5 L 18 11.5 C 18 11.6458333333334 17.953125 11.765625 17.859375 11.859375 C 17.765625 11.953125 17.6458333333334 12 17.5 12 L 12 12 L 12 17.5 C 12 17.6458333333334 11.953125 17.765625 11.859375 17.859375 C 11.765625 17.953125 11.6458333333333 18 11.5 18 L 10.5 18 C 10.3541666666667 18 10.234375 17.953125 10.140625 17.859375 C 10.046875 17.765625 9.99999999999999 17.6458333333334 9.99999999999999 17.5 L 9.99999999999999 12 L 4.49999999999999 12 C 4.35416666666664 12 4.23437499999999 11.953125 4.14062499999997 11.859375 C 4.046875 11.765625 4 11.6458333333334 4 11.5 L 4 10.5 C 4 10.3541666666666 4.046875 10.234375 4.14062499999997 10.140625 C 4.23437499999999 10.046875 4.35416666666664 10 4.49999999999999 10 L 9.99999999999999 10 L 9.99999999999999 4.5 C 9.99999999999999 4.35416666666663 10.046875 4.234375 10.140625 4.140625 C 10.234375 4.046875 10.3541666666667 4 10.5 4 L 11.5 4 C 11.6458333333333 4 11.765625 4.046875 11.859375 4.140625 C 11.953125 4.234375 12 4.35416666666663 12 4.5 L 12 10 L 17.5 10 C 17.6458333333334 10 17.765625 10.046875 17.859375 10.140625 Z M 19.265625 19.265625 C 19.7552083333333 18.7760416666666 20 18.1875 20 17.5 L 20 4.5 C 20 3.8125 19.7552083333333 3.22395833333337 19.265625 2.734375 C 18.7760416666667 2.24479166666663 18.1875 2 17.5 2 L 4.49999999999999 2 C 3.81249999999999 2 3.22395833333333 2.24479166666663 2.73437500000003 2.734375 C 2.24479166666667 3.22395833333337 1.99999999999999 3.8125 2 4.5 L 2 17.5 C 1.99999999999999 18.1875 2.24479166666667 18.7760416666666 2.73437500000003 19.265625 C 3.22395833333333 19.7552083333334 3.81249999999999 20 4.49999999999999 20 L 17.5 20 C 18.1875 20 18.7760416666667 19.7552083333334 19.265625 19.265625 Z M 20.6796875 1.3203125 C 21.5598958333333 2.20052083333337 22 3.26041666666663 22 4.5 L 22 17.5 C 22 18.7395833333334 21.5598958333333 19.7994791666666 20.6796875 20.6796875 C 19.7994791666667 21.5598958333334 18.7395833333333 22 17.5 22 L 4.49999999999999 22 C 3.26041666666666 22 2.20052083333334 21.5598958333334 1.32031249999999 20.6796875 C 0.440104166666671 19.7994791666666 0 18.7395833333334 0 17.5 L 0 4.5 C 0 3.26041666666663 0.440104166666671 2.20052083333337 1.32031249999999 1.3203125 C 2.20052083333334 0.440104166666629 3.26041666666666 0 4.49999999999999 0 L 17.5 0 C 18.7395833333333 0 19.7994791666667 0.440104166666629 20.6796875 1.3203125 Z" transform="matrix(1 0 0 1 -69 -344 ) matrix(1 0 0 1 69 344 )"/></g></svg>