<svg xmlns="http://www.w3.org/2000/svg" xmlns:xlink="http://www.w3.org/1999/xlink" width="22" height="22" version="1.1"><g><path fill="#0079fe" fill-rule="nonzero" stroke="none" d="M 17.859375 10.140625 C 17.953125 10.234375 18.0000000000001 10.3541666666666 18.0000000000001 10.5 L 18.0000000000001 11.5 C 18.0000000000001 11.6458333333334 17.953125 11.765625 17.859375 11.859375 C 17.765625 11.953125 17.6458333333333 12 17.5000000000001 12 L 4.49999999999994 12 C 4.35416666666671 12 4.23437500000003 11.953125 4.140625 11.859375 C 4.046875 11.765625 3.99999999999997 11.6458333333334 3.99999999999997 11.5 L 3.99999999999997 10.5 C 3.99999999999997 10.3541666666666 4.046875 10.234375 4.140625 10.140625 C 4.23437500000003 10.046875 4.35416666666671 10 4.49999999999994 10 L 17.5000000000001 10 C 17.6458333333333 10 17.765625 10.046875 17.859375 10.140625 Z M 19.265625 19.265625 C 19.7552083333333 18.7760416666666 20 18.1875 20 17.5 L 20 4.5 C 20 3.8125 19.7552083333333 3.22395833333337 19.265625 2.734375 C 18.7760416666667 2.24479166666663 18.1875000000001 2 17.5000000000001 2 L 4.49999999999994 2 C 3.81249999999994 2 3.22395833333329 2.24479166666663 2.734375 2.734375 C 2.24479166666669 3.22395833333337 2.00000000000003 3.8125 2 4.5 L 2 17.5 C 2.00000000000003 18.1875 2.24479166666669 18.7760416666666 2.734375 19.265625 C 3.22395833333329 19.7552083333334 3.81249999999994 20 4.49999999999994 20 L 17.5000000000001 20 C 18.1875000000001 20 18.7760416666667 19.7552083333334 19.265625 19.265625 Z M 20.6796875000001 1.3203125 C 21.5598958333333 2.20052083333337 22 3.26041666666663 22 4.5 L 22 17.5 C 22 18.7395833333334 21.5598958333333 19.7994791666666 20.6796875000001 20.6796875 C 19.7994791666667 21.5598958333334 18.7395833333333 22 17.5000000000001 22 L 4.49999999999994 22 C 3.26041666666666 22 2.20052083333331 21.5598958333334 1.32031249999994 20.6796875 C 0.440104166666686 19.7994791666666 0 18.7395833333334 0 17.5 L 0 4.5 C 0 3.26041666666663 0.440104166666686 2.20052083333337 1.32031249999994 1.3203125 C 2.20052083333331 0.440104166666629 3.26041666666666 0 4.49999999999994 0 L 17.5000000000001 0 C 18.7395833333333 0 19.7994791666667 0.440104166666629 20.6796875000001 1.3203125 Z" transform="matrix(1 0 0 1 -248 -344 ) matrix(1 0 0 1 248 344 )"/></g></svg>