<svg xmlns="http://www.w3.org/2000/svg" xmlns:xlink="http://www.w3.org/1999/xlink" width="22" height="22" version="1.1"><g><path fill="#0079fe" fill-rule="nonzero" stroke="none" d="M 5.478515625 1.47526041666674 C 7.16384548611111 0.491753472222285 9.0043402777778 0 11 0 C 12.9956597222222 0 14.8361545138889 0.491753472222285 16.521484375 1.47526041666674 C 18.2068142361111 2.45876736111109 19.5412326388889 3.79318576388891 20.5247395833334 5.478515625 C 21.5082465277778 7.16384548611109 22 9.00434027777771 22 11 C 22 12.9956597222223 21.5082465277778 14.8361545138889 20.5247395833334 16.521484375 C 19.5412326388889 18.2068142361111 18.2068142361111 19.5412326388889 16.521484375 20.5247395833333 C 14.8361545138889 21.5082465277777 12.9956597222222 22 11 22 C 9.0043402777778 22 7.16384548611111 21.5082465277777 5.478515625 20.5247395833333 C 3.79318576388889 19.5412326388889 2.45876736111111 18.2068142361111 1.47526041666664 16.521484375 C 0.4917534722222 14.8361545138889 0 12.9956597222223 0 11 C 0 9.00434027777771 0.4917534722222 7.16384548611109 1.47526041666664 5.478515625 C 2.45876736111111 3.79318576388891 3.79318576388889 2.45876736111109 5.478515625 1.47526041666674 Z M 8.70833333333336 16.37109375 L 16.5 11.7877604166667 C 16.8055555555556 11.6158854166667 16.9583333333334 11.3532986111111 16.9583333333334 11 C 16.9583333333334 10.6467013888889 16.8055555555556 10.3841145833333 16.5 10.2122395833333 L 8.70833333333336 5.62890625 C 8.41232638888889 5.44748263888891 8.10677083333336 5.44270833333326 7.79166666666664 5.61458333333326 C 7.48611111111111 5.79600694444446 7.33333333333336 6.06336805555554 7.33333333333336 6.41666666666674 L 7.33333333333336 15.5833333333333 C 7.33333333333336 15.9366319444445 7.48611111111111 16.2039930555555 7.79166666666664 16.3854166666667 C 7.94444444444444 16.4618055555555 8.0972222222222 16.5 8.25 16.5 C 8.41232638888889 16.5 8.56510416666664 16.45703125 8.70833333333336 16.37109375 Z" transform="matrix(1 0 0 1 -504 -346 ) matrix(1 0 0 1 504 346 )"/></g></svg>