<svg xmlns="http://www.w3.org/2000/svg" xmlns:xlink="http://www.w3.org/1999/xlink" width="22" height="22" version="1.1"><g><path fill="#0079fe" fill-rule="nonzero" stroke="none" d="M 17.14453125 12.5611979166666 C 17.3259548611111 12.3797743055555 17.4166666666667 12.1649305555555 17.4166666666667 11.9166666666666 L 17.4166666666667 10.0833333333334 C 17.4166666666667 9.83506944444446 17.3259548611111 9.62022569444446 17.14453125 9.43880208333337 C 16.9631076388889 9.25737847222217 16.7482638888889 9.16666666666663 16.5 9.16666666666663 L 5.5 9.16666666666663 C 5.25173611111114 9.16666666666663 5.03689236111114 9.25737847222217 4.85546875 9.43880208333337 C 4.67404513888886 9.62022569444446 4.58333333333326 9.83506944444446 4.58333333333326 10.0833333333334 L 4.58333333333326 11.9166666666666 C 4.58333333333326 12.1649305555555 4.67404513888886 12.3797743055555 4.85546875 12.5611979166666 C 5.03689236111114 12.7426215277778 5.25173611111114 12.8333333333334 5.5 12.8333333333334 L 16.5 12.8333333333334 C 16.7482638888889 12.8333333333334 16.9631076388889 12.7426215277778 17.14453125 12.5611979166666 Z M 20.5247395833333 5.478515625 C 21.5082465277778 7.16384548611109 22 9.00434027777771 22 11 C 22 12.9956597222222 21.5082465277778 14.8361545138889 20.5247395833333 16.521484375 C 19.5412326388889 18.2068142361111 18.2068142361111 19.5412326388889 16.521484375 20.5247395833334 C 14.8361545138889 21.5082465277778 12.9956597222222 22 11 22 C 9.00434027777777 22 7.16384548611114 21.5082465277778 5.478515625 20.5247395833334 C 3.79318576388886 19.5412326388889 2.45876736111114 18.2068142361111 1.47526041666674 16.521484375 C 0.491753472222229 14.8361545138889 0 12.9956597222222 0 11 C 0 9.00434027777771 0.491753472222229 7.16384548611109 1.47526041666674 5.478515625 C 2.45876736111114 3.79318576388891 3.79318576388886 2.45876736111109 5.478515625 1.47526041666663 C 7.16384548611114 0.491753472222172 9.00434027777777 0 11 0 C 12.9956597222222 0 14.8361545138889 0.491753472222172 16.521484375 1.47526041666663 C 18.2068142361111 2.45876736111109 19.5412326388889 3.79318576388891 20.5247395833333 5.478515625 Z" transform="matrix(1 0 0 1 -292 -344 ) matrix(1 0 0 1 292 344 )"/></g></svg>