<svg xmlns="http://www.w3.org/2000/svg" xmlns:xlink="http://www.w3.org/1999/xlink" width="22" height="22" version="1.1"><g><path fill="#0079fe" fill-rule="nonzero" stroke="none" d="M 5.478515625 1.47526041666674 C 7.16384548611111 0.491753472222285 9.00434027777777 0 11 0 C 12.9956597222222 0 14.8361545138889 0.491753472222285 16.521484375 1.47526041666674 C 18.2068142361111 2.45876736111109 19.5412326388889 3.79318576388891 20.5247395833333 5.478515625 C 21.5082465277778 7.16384548611109 22 9.00434027777771 22 11 C 22 12.9956597222223 21.5082465277778 14.8361545138889 20.5247395833333 16.521484375 C 19.5412326388889 18.2068142361111 18.2068142361111 19.5412326388889 16.521484375 20.5247395833333 C 14.8361545138889 21.5082465277777 12.9956597222222 22 11 22 C 9.00434027777777 22 7.16384548611111 21.5082465277777 5.478515625 20.5247395833333 C 3.79318576388889 19.5412326388889 2.45876736111111 18.2068142361111 1.47526041666671 16.521484375 C 0.491753472222229 14.8361545138889 0 12.9956597222223 0 11 C 0 9.00434027777771 0.491753472222229 7.16384548611109 1.47526041666671 5.478515625 C 2.45876736111111 3.79318576388891 3.79318576388889 2.45876736111109 5.478515625 1.47526041666674 Z M 7.08984375 17.74609375 C 8.28342013888889 18.4431423611111 9.5868055555556 18.7916666666667 11 18.7916666666667 C 12.4131944444444 18.7916666666667 13.7165798611111 18.4431423611111 14.91015625 17.74609375 C 16.1037326388889 17.0490451388889 17.0490451388889 16.1037326388889 17.74609375 14.91015625 C 18.4431423611111 13.7165798611111 18.7916666666667 12.4131944444445 18.7916666666667 11 C 18.7916666666667 9.58680555555554 18.4431423611111 8.28342013888891 17.74609375 7.08984375 C 17.0490451388889 5.89626736111109 16.1037326388889 4.95095486111109 14.91015625 4.25390625 C 13.7165798611111 3.55685763888891 12.4131944444444 3.20833333333326 11 3.20833333333326 C 9.5868055555556 3.20833333333326 8.28342013888889 3.55685763888891 7.08984375 4.25390625 C 5.89626736111111 4.95095486111109 4.95095486111111 5.89626736111109 4.25390625 7.08984375 C 3.55685763888889 8.28342013888891 3.20833333333329 9.58680555555554 3.20833333333329 11 C 3.20833333333329 12.4131944444445 3.55685763888889 13.7165798611111 4.25390625 14.91015625 C 4.95095486111111 16.1037326388889 5.89626736111111 17.0490451388889 7.08984375 17.74609375 Z M 15.125 15.5833333333333 L 12.375 15.5833333333333 C 12.2413194444444 15.5833333333333 12.1315104166667 15.5403645833333 12.0455729166667 15.4544270833333 C 11.9596354166667 15.3684895833333 11.9166666666667 15.2586805555555 11.9166666666667 15.125 L 11.9166666666667 6.875 C 11.9166666666667 6.74131944444446 11.9596354166667 6.63151041666674 12.0455729166667 6.54557291666674 C 12.1315104166667 6.45963541666674 12.2413194444444 6.41666666666674 12.375 6.41666666666674 L 15.125 6.41666666666674 C 15.2586805555556 6.41666666666674 15.3684895833333 6.45963541666674 15.4544270833333 6.54557291666674 C 15.5403645833333 6.63151041666674 15.5833333333333 6.74131944444446 15.5833333333333 6.875 L 15.5833333333333 15.125 C 15.5833333333333 15.2586805555555 15.5403645833333 15.3684895833333 15.4544270833333 15.4544270833333 C 15.3684895833333 15.5403645833333 15.2586805555556 15.5833333333333 15.125 15.5833333333333 Z M 9.625 15.5833333333333 L 6.875 15.5833333333333 C 6.7413194444444 15.5833333333333 6.63151041666671 15.5403645833333 6.54557291666671 15.4544270833333 C 6.45963541666671 15.3684895833333 6.41666666666671 15.2586805555555 6.41666666666671 15.125 L 6.41666666666671 6.875 C 6.41666666666671 6.74131944444446 6.45963541666671 6.63151041666674 6.54557291666671 6.54557291666674 C 6.63151041666671 6.45963541666674 6.7413194444444 6.41666666666674 6.875 6.41666666666674 L 9.625 6.41666666666674 C 9.7586805555556 6.41666666666674 9.86848958333329 6.45963541666674 9.95442708333329 6.54557291666674 C 10.0403645833333 6.63151041666674 10.0833333333333 6.74131944444446 10.0833333333333 6.875 L 10.0833333333333 15.125 C 10.0833333333333 15.2586805555555 10.0403645833333 15.3684895833333 9.95442708333329 15.4544270833333 C 9.86848958333329 15.5403645833333 9.7586805555556 15.5833333333333 9.625 15.5833333333333 Z" transform="matrix(1 0 0 1 -691 -346 ) matrix(1 0 0 1 691 346 )"/></g></svg>