<svg xmlns="http://www.w3.org/2000/svg" xmlns:xlink="http://www.w3.org/1999/xlink" width="25" height="25" version="1.1"><g><path fill="#f9b01c" fill-rule="nonzero" stroke="none" d="M 0.0243664747806972 12.5 C 0.0243664747806972 19.3615984375 5.63840156250003 24.9756335252193 12.5 24.9756335252193 C 19.3615984375 24.9756335252193 24.9756335252193 19.3615984375 24.9756335252193 12.5 C 24.9756335252193 5.6384015625 19.3615984375 0.0243664747806972 12.5 0.0243664747806972 C 5.63840156250003 0.0243664747806972 0.0243664747806972 5.6384015625 0.0243664747806972 12.5 Z M 1.58382066885964 12.5 C 1.58382066885964 6.41812867324562 6.41812867324562 1.58382066885965 12.5 1.58382066885965 C 18.5818713267544 1.58382066885965 23.4161793311404 6.41812867324562 23.4161793311404 12.5 C 23.4161793311404 18.5818713267544 18.5818713267544 23.4161793311403 12.5 23.4161793311403 C 6.41812864583333 23.4161793311403 1.58382066885964 18.5818713267544 1.58382066885964 12.5 Z M 11.5643274945175 15.9307992324561 L 13.2797270833334 15.9307992324561 L 13.9035087719298 4.82456140350877 L 11.0964912280702 4.82456140350877 L 11.5643274945175 15.9307992324561 Z M 13.5916179276316 19.8294347039474 C 13.9035087719298 19.5175438596491 14.0594541940789 19.2056530153509 14.0594541940789 18.7378167763158 C 14.0594541940789 18.2699805098684 13.9035087719298 17.9580896929825 13.5916179276316 17.6461988212719 C 13.2797270833334 17.3343079769737 12.9678362390351 17.1783625548246 12.5 17.1783625822368 C 12.0321637335527 17.1783625822368 11.7202729166666 17.334308004386 11.4083820723684 17.6461988212719 C 11.0964912280702 17.9580896655702 10.9405458059211 18.2699805098684 10.9405458059211 18.7378167763158 C 10.9405458059211 19.2056530427632 11.0964912280702 19.5175438596491 11.4083820723684 19.8294347039474 C 11.7202729166666 20.1413255482456 12.0321637609649 20.2972709703947 12.5 20.2972709429825 C 12.9678362664473 20.2972709429825 13.2797270833334 20.1413255208333 13.5916179276316 19.8294347039474 Z" transform="matrix(1 0 0 1 -73 -1159 ) matrix(1 0 0 1 73 1159 )"/></g></svg>