<svg xmlns="http://www.w3.org/2000/svg" xmlns:xlink="http://www.w3.org/1999/xlink" width="10" height="10" version="1.1"><g><path fill="#fff" fill-opacity="0" fill-rule="nonzero" stroke="none" d="M 115 1 C 117.8 1 120 3.2 120 6 C 120 8.8 117.8 11 115 11 C 112.2 11 110 8.8 110 6 C 110 3.2 112.2 1 115 1 Z" transform="matrix(1 0 0 1 -110 -1 )"/><path fill="none" stroke="#e4e4e4" stroke-width="1" d="M 115 1.5 C 117.52 1.5 119.5 3.48 119.5 6 C 119.5 8.52 117.52 10.5 115 10.5 C 112.48 10.5 110.5 8.52 110.5 6 C 110.5 3.48 112.48 1.5 115 1.5 Z" transform="matrix(1 0 0 1 -110 -1 )"/></g></svg>