<?xml version="1.0" encoding="utf-8"?>
<svg version="1.1" xmlns:xlink="http://www.w3.org/1999/xlink" width="10px" height="10px" xmlns="http://www.w3.org/2000/svg">
  <defs>
    <mask fill="white" id="clip2692">
      <path d="M 9 0  L 9 9  L 0 9  L 0 0  L 9 0  Z " fill-rule="evenodd" />
    </mask>
  </defs>
  <g transform="matrix(1 0 0 1 0 -6 )">
    <path d="M 9 0  L 9 9  L 0 9  L 0 0  L 9 0  Z " fill-rule="nonzero" fill="#ffffff" stroke="none" transform="matrix(1 0 0 1 0 6 )" />
    <path d="M 9 0  L 9 9  L 0 9  L 0 0  L 9 0  Z " stroke-width="2" stroke="#6b6b6b" fill="none" transform="matrix(1 0 0 1 0 6 )" mask="url(#clip2692)" />
    <path d="M 2 4.5  L 7 4.5  " stroke-width="1" stroke="#6b6b6b" fill="none" transform="matrix(1 0 0 1 0 6 )" mask="url(#clip2692)" />
  </g>
</svg>