<svg xmlns="http://www.w3.org/2000/svg" xmlns:xlink="http://www.w3.org/1999/xlink" width="10" height="10" version="1.1"><defs><mask id="clip2692" fill="#fff"><path fill-rule="evenodd" d="M 9 0 L 9 9 L 0 9 L 0 0 L 9 0 Z"/></mask></defs><g><path fill="#fff" fill-rule="nonzero" stroke="none" d="M 9 0 L 9 9 L 0 9 L 0 0 L 9 0 Z" transform="matrix(1 0 0 1 0 -6 ) matrix(1 0 0 1 0 6 )"/><path fill="none" stroke="#6b6b6b" stroke-width="2" d="M 9 0 L 9 9 L 0 9 L 0 0 L 9 0 Z" mask="url(#clip2692)" transform="matrix(1 0 0 1 0 -6 ) matrix(1 0 0 1 0 6 )"/><path fill="none" stroke="#6b6b6b" stroke-width="1" d="M 2 4.5 L 7 4.5" mask="url(#clip2692)" transform="matrix(1 0 0 1 0 -6 ) matrix(1 0 0 1 0 6 )"/></g></svg>