<?xml version="1.0" encoding="utf-8"?>
<svg version="1.1" xmlns:xlink="http://www.w3.org/1999/xlink" width="10px" height="8px" xmlns="http://www.w3.org/2000/svg">
  <g transform="matrix(1 0 0 1 -16 -7 )">
    <path d="M 9.81935483870967 1.04915824915825  C 9.93978494623656 1.1685746352413  10 1.31358024691358  10 1.48417508417509  C 10 1.65476992143659  9.93978494623656 1.79977553310887  9.81935483870967 1.91919191919192  L 5.1483870967742 6.55084175084176  L 4.27096774193546 7.42087542087543  C 4.15053763440861 7.54029180695848  4.00430107526881 7.6  3.83225806451614 7.6  C 3.66021505376344 7.6  3.51397849462364 7.54029180695848  3.39354838709679 7.42087542087543  L 2.51612903225808 6.55084175084176  L 0.180645161290329 4.23501683501684  C 0.0602150537634429 4.11560044893378  0 3.97059483726151  0 3.8  C 0 3.6294051627385  0.0602150537634429 3.48439955106622  0.180645161290329 3.36498316498317  L 1.05806451612904 2.49494949494949  C 1.17849462365592 2.37553310886644  1.32473118279569 2.31582491582491  1.49677419354839 2.31582491582492  C 1.66881720430109 2.31582491582491  1.81505376344086 2.37553310886644  1.93548387096774 2.49494949494949  L 3.83225806451614 4.38215488215489  L 8.06451612903226 0.179124579124583  C 8.18494623655914 0.0597081930415229  8.33118279569891 0  8.50322580645161 0  C 8.67526881720431 0  8.82150537634408 0.0597081930415229  8.94193548387096 0.179124579124583  L 9.81935483870967 1.04915824915825  Z " fill-rule="nonzero" fill="#434343" stroke="none" transform="matrix(1 0 0 1 16 7 )" />
  </g>
</svg>