<?xml version="1.0" encoding="utf-8"?>
<svg version="1.1" xmlns:xlink="http://www.w3.org/1999/xlink" width="135px" height="50px" xmlns="http://www.w3.org/2000/svg">
  <g transform="matrix(1 0 0 1 -867 -1017 )">
    <path d="M 867.5 1054.83333333333  C 867.5 1054.83333333333  867.5 1020  867.5 1020  C 867.5 1018.61928812542  868.619288125423 1017.5  870 1017.5  C 870 1017.5  999 1017.5  999 1017.5  C 1000.38071187458 1017.5  1001.5 1018.61928812542  1001.5 1020  C 1001.5 1020  1001.5 1054.83333333333  1001.5 1054.83333333333  C 1001.5 1056.21404520791  1000.38071187458 1057.33333333333  999 1057.33333333333  C 999 1057.33333333333  946.6952491852 1057.33333333333  946.6952491852 1057.33333333333  C 946.6952491852 1057.33333333333  935.732099804971 1066.38583115739  935.732099804971 1066.38583115739  C 935.732099804971 1066.38583115739  921.142516690938 1057.33333333333  921.142516690938 1057.33333333333  C 921.142516690938 1057.33333333333  870 1057.33333333333  870 1057.33333333333  C 868.619288125423 1057.33333333333  867.5 1056.21404520791  867.5 1054.83333333333  Z " fill-rule="nonzero" fill="#000000" stroke="none" fill-opacity="0.8" />
    <path d="M 867 1054.83333333333  C 867 1054.83333333333  867 1020  867 1020  C 867 1018.34314575051  868.343145750508 1017  870 1017  C 870 1017  999 1017  999 1017  C 1000.65685424949 1017  1002 1018.34314575051  1002 1020  C 1002 1020  1002 1054.83333333333  1002 1054.83333333333  C 1002 1056.49018758283  1000.65685424949 1057.83333333333  999 1057.83333333333  C 999 1057.83333333333  946.875 1057.83333333333  946.875 1057.83333333333  C 946.875 1057.83333333333  935.77358490566 1067  935.77358490566 1067  C 935.77358490566 1067  921 1057.83333333333  921 1057.83333333333  C 921 1057.83333333333  870 1057.83333333333  870 1057.83333333333  C 868.343145750508 1057.83333333333  867 1056.49018758283  867 1054.83333333333  Z M 868 1054.83333333333  C 868 1055.93790283299  868.895430500338 1056.83333333333  870 1056.83333333333  C 870 1056.83333333333  921.285033381875 1056.83333333333  921.285033381875 1056.83333333333  C 921.285033381875 1056.83333333333  935.690614704282 1065.77166231478  935.690614704282 1065.77166231478  C 935.690614704282 1065.77166231478  946.5154983704 1056.83333333333  946.5154983704 1056.83333333333  C 946.5154983704 1056.83333333333  999 1056.83333333333  999 1056.83333333333  C 1000.10456949966 1056.83333333333  1001 1055.93790283299  1001 1054.83333333333  C 1001 1054.83333333333  1001 1020  1001 1020  C 1001 1018.89543050034  1000.10456949966 1018  999 1018  C 999 1018  870 1018  870 1018  C 868.895430500338 1018  868 1018.89543050034  868 1020  C 868 1020  868 1054.83333333333  868 1054.83333333333  Z " fill-rule="nonzero" fill="#d0d0d0" stroke="none" />
  </g>
</svg>