<?xml version="1.0" encoding="utf-8"?>
<svg version="1.1" xmlns:xlink="http://www.w3.org/1999/xlink" width="20px" height="20px" xmlns="http://www.w3.org/2000/svg">
  <g transform="matrix(1 0 0 1 -1132 -727 )">
    <path d="M 19.375 10  C 19.375 4.83036794084821  15.1696320591518 0.625  10 0.625  C 4.83101590401786 0.625  0.625 4.83036794084821  0.625 10  C 0.625 15.1696320591518  4.83036794084821 19.375  10 19.375  C 15.1689840959821 19.375  19.375 15.1696320591518  19.375 10  Z M 10.9488931989397 10.0026638183594  L 13.8243347726004 12.8875007114955  C 14.0854963867188 13.1499942243304  14.0848124302455 13.5732164411272  13.8230028738839 13.8343780552455  C 13.6924400739397 13.9642929129464  13.5216680873326 14.029916280692  13.3502481584821 14.029916280692  C 13.1781442731585 14.029916280692  13.006724344308 13.9642928920201  12.8761255301339 13.8330461356027  L 9.99665224609375 10.9448614676339  L 7.10781961495536 13.8029162667411  C 6.97725681501116 13.9314992047991  6.80713279157366 13.9964386369978  6.63704476143973 13.9964386369978  C 6.46429291294643 13.9964386369978  6.29218904854911 13.930131312779  6.16094227120536 13.7975526367187  C 5.90111255580357 13.5343751674107  5.90312841099331 13.1111529506138  6.16630590122768 12.8506752929687  L 9.05179075753348 9.99665222516741  L 6.17699714704241 7.11249926757812  C 5.91583553292411 6.85065369698661  5.91651948939732 6.42678353794643  6.17832904575893 6.16562192382812  C 6.44017461635045 5.90377635323661  6.86336081891741 5.90514426618303  7.12520638950893 6.16695382254464  L 10.0039957170759 9.05445453404018  L 12.8928283482143 6.19643572823661  C 13.1553218610491 5.93595807059152  13.5798759765625 5.93862186802455  13.8397056919643 6.20179935825893  C 14.1001833496094 6.46497682756696  14.0975195521763 6.88884698660714  13.834342061942 7.14867670200893  L 10.9488931989397 10.0026638183594  Z " fill-rule="nonzero" fill="#cccccc" stroke="none" transform="matrix(1 0 0 1 1132 727 )" />
  </g>
</svg>