<?xml version="1.0" encoding="utf-8"?>
<svg version="1.1" xmlns:xlink="http://www.w3.org/1999/xlink" width="18px" height="15px" xmlns="http://www.w3.org/2000/svg">
  <g transform="matrix(1 0 0 1 -192 -1092 )">
    <path d="M 13.2163231819355 4.83046893962264  C 12.6950806451613 2.20389878490566  9.96425664967742 0.2765625  6.7517010116129 0.2765625  C 3.18050664967742 0.2765625  0.191340725806452 2.66906701698113  0.191340725806452 5.73117648679245  C 0.191340725806452 7.38444889245283  1.07578144451613 8.80958136792453  2.44347297677419 9.80361890377358  L 1.41770423032258 12.8064712981132  L 4.61962217032258 10.8746906377358  C 5.28067278580645 11.0761646943396  6.01162821870968 11.1872714264151  6.7517010116129 11.1872714264151  C 7.04043608516129 11.1872714264151  7.32005302064516 11.1665316396226  7.59966995612903 11.1354217698113  C 8.44155988258065 12.7323997641509  10.3517693477419 13.8212486207547  12.5415953593548 13.8212486207547  C 13.205685483871 13.8212486207547  13.821146576129 13.6982900943396  14.3925377051613 13.5323702830189  L 17.0352217741935 14.9737985490566  L 16.2981881012903 12.5101859207547  C 17.2935637025806 11.7042896943396  17.9439770090323 10.5828492566038  17.9439770090323 9.30585946981132  C 17.9439770090323 6.96964936415094  15.8590072509677 5.1060141509434  13.2163231819355 4.83046893962264  Z M 0.963326612903226 5.73117648679245  C 0.963326612903226 3.15053066037736  3.53154757354839 1.02912735849057  6.7517010116129 1.02912735849057  C 9.5737048316129 1.02912735849057  11.8957411219355 2.66610397358491  12.4276209677419 4.79491469433962  C 9.52507579935484 4.8467643509434  7.13769414967742 6.80669221698113  7.13769414967742 9.30585946981132  C 7.13769414967742 9.68954912830189  7.2 10.0599056603774  7.30637620258064 10.4124854490566  C 7.1240173316129 10.4272995283019  6.9386189516129 10.4347065679245  6.7517010116129 10.4347065679245  C 6.01922640774194 10.4347065679245  5.28523185483871 10.3265625  4.68040846064516 10.1176814037736  L 4.50716733870968 10.0584243283019  L 2.82338709677419 11.0746829830189  L 3.35070826258065 9.5295550245283  L 3.11060222129032 9.37104225283019  C 1.76722520516129 8.48514878490566  0.963326612903226 7.21556603773585  0.963326612903226 5.73117648679245  Z M 5.20924918645161 4.03790546037736  C 5.20924918645161 3.62458726415094  4.86124738258065 3.28682193396226  4.43726329935484 3.28682193396226  C 4.01175926709677 3.28682193396226  3.66527741225807 3.62458726415094  3.66527741225807 4.03790546037736  C 3.66527741225807 4.45270498867924  4.01175926709677 4.79047031886793  4.43726329935484 4.79047031886793  C 4.86124738258065 4.79047031886793  5.20924918645161 4.45270498867924  5.20924918645161 4.03790546037736  Z M 9.83964456 4.03790546037736  C 9.83964456 3.62458726415094  9.49316270516129 3.28682193396226  9.06765867290323 3.28682193396226  C 8.64215464064516 3.28682193396226  8.29567278580645 3.62458726415094  8.29567278580645 4.03790546037736  C 8.29567278580645 4.45270498867924  8.64215464064516 4.79047031886793  9.06765867290323 4.79047031886793  C 9.49316270516129 4.79047031886793  9.83964456 4.45270498867924  9.83964456 4.03790546037736  Z M 7.90968003677419 9.30585946981132  C 7.90968003677419 7.2496389509434  9.93842257354839 5.54303517735849  12.5415953593548 5.54303517735849  C 15.1447681451613 5.54303517735849  17.1735106819355 7.2496389509434  17.1735106819355 9.30585946981132  C 17.1735106819355 10.4184111566038  16.5914818548387 11.394671190566  15.6310584677419 12.0879789735849  L 15.4152673316129 12.2450104132075  L 15.7663078664516 13.4197818396226  L 14.5125907258065 12.7338810962264  L 14.3484677419355 12.7857311320755  C 13.8089893180645 12.9620210264151  13.1920086658065 13.0686837622642  12.5415953593548 13.0686837622642  C 9.93842257354839 13.0686837622642  7.90968003677419 11.3620799886792  7.90968003677419 9.30585946981132  Z M 11.3836163341935 8.36515330188679  C 11.3836163341935 8.0644235490566  11.1131175367742 7.80072975283019  10.804627016129 7.80072975283019  C 10.4961364954839 7.80072975283019  10.2256376980645 8.0644235490566  10.2256376980645 8.36515330188679  C 10.2256376980645 8.66588305471698  10.4961364954839 8.9295768509434  10.804627016129 8.9295768509434  C 11.1131175367742 8.9295768509434  11.3836163341935 8.66588305471698  11.3836163341935 8.36515330188679  Z M 14.8575530206452 8.36515330188679  C 14.8575530206452 8.0644235490566  14.5870538341935 7.80072975283019  14.2785637025806 7.80072975283019  C 13.9685536219355 7.80072975283019  13.6995739954839 8.0644235490566  13.6995739954839 8.36515330188679  C 13.6995739954839 8.66588305471698  13.9685536219355 8.9295768509434  14.2785637025806 8.9295768509434  C 14.5870538341935 8.9295768509434  14.8575530206452 8.66588305471698  14.8575530206452 8.36515330188679  Z " fill-rule="nonzero" fill="#cccccc" stroke="none" transform="matrix(1 0 0 1 192 1092 )" />
  </g>
</svg>