<?xml version="1.0" encoding="utf-8"?>
<svg version="1.1" xmlns:xlink="http://www.w3.org/1999/xlink" width="18px" height="18px" xmlns="http://www.w3.org/2000/svg">
  <g transform="matrix(1 0 0 1 -192 -879 )">
    <path d="M 17.9439770090323 9.07069818193548  C 17.9439770090323 4.17284274193548  13.9655141129032 0.19438023483871  9.06765867290323 0.19438023483871  C 4.16980362193548 0.19438023483871  0.191340725806452 4.17284274193548  0.191340725806452 9.07069818193548  C 0.191340725806452 13.9685536219355  4.16980362193548 17.9470161290323  9.06765867290323 17.9470161290323  C 13.9655141129032 17.9470161290323  17.9439770090323 13.9685536219355  17.9439770090323 9.07069818193548  Z M 0.963326612903226 9.07069818193548  C 0.963326612903226 4.59074858516129  4.58770907612903 0.966366121935484  9.06765867290323 0.966366121935484  C 13.5491282187097 0.966366121935484  17.1735106819355 4.59074858516129  17.1735106819355 9.07069818193548  C 17.1735106819355 11.2848387096774  16.2860308432258 13.2847076612903  14.8529939516129 14.7466181380645  C 14.146353423871 14.2284147212903  13.2862272212903 13.9670336729032  12.5567917374194 13.7086921335484  C 12.1464844722581 13.5628050367742  11.7772076612903 13.41691794  11.506708863871 13.255834076129  C 11.2498864954839 13.1008292303226  11.1055193477419 12.9427848754839  11.0295362903226 12.7604260045161  C 10.994584076129 12.3166860851613  11.0021826541936 11.9610860922581  11.0037022141935 11.5401411290323  C 11.0523312464516 11.4930316567742  11.1100780277419 11.4611189516129  11.15870706 11.4048917303226  C 11.2726814516129 11.2726814516129  11.3866558432258 11.1100780277419  11.4960711658065 10.9277191567742  C 11.6829891058065 10.616189516129  11.8212776245161 10.2347554470968  11.8957411219355 9.84876269806452  C 12.0142741935484 9.78797640774193  12.1388862832258 9.77581914967742  12.2346243987097 9.65424656903226  C 12.4093850806452 9.43085685483871  12.5279185412903 9.11628770516129  12.5811062535484 8.67710685483871  C 12.6266961658065 8.28959415677419  12.502084076129 8.0236544283871  12.3425201612903 7.82002016129032  C 12.5142413341936 7.25470766129032  12.7285132993548 6.35355100451613  12.6555697509677 5.42352076258064  C 12.6160584677419 4.91139636387097  12.4868876980645 4.39775201612903  12.1783971774194 3.96768891483871  C 11.8805443548387 3.55890120967742  11.4018522212903 3.26560745612903  10.7863911290323 3.15771169354839  C 10.3958393109677 2.71549133419355  9.77581914967742 2.50729838709677  9.03422640774194 2.50729838709677  L 9.02662821870968 2.50729838709677  C 7.36716249290323 2.53769153225806  6.29580383419355 3.22457661290323  5.83686753677419 4.27314031548387  C 5.40224536645161 5.27003547677419  5.49494475096774 6.51159535935484  5.8064743916129 7.80330383419355  C 5.63931189870968 8.00845766129032  5.50710200903226 8.27895684774194  5.55573104129032 8.67710685483871  C 5.60739919354839 9.11628770516129  5.72745221419355 9.43085685483871  5.90221289612903 9.65424656903226  C 5.9964314516129 9.77581914967742  6.12256310129032 9.78797640774193  6.23957661290323 9.84876269806452  C 6.31555967032258 10.2347554470968  6.45232862903226 10.616189516129  6.63924656903226 10.9261995967742  C 6.7486618916129 11.1085584677419  6.86415584322581 11.2711618916129  6.97661028580645 11.4033721703226  C 7.02523931806452 11.4611189516129  7.0845060483871 11.4930316567742  7.13161552064516 11.5401411290323  C 7.13313508064516 11.9610860922581  7.14073326967742 12.3166860851613  7.10730100451613 12.7604260045161  C 7.02979838709677 12.9427848754839  6.88695079935484 13.1008292303226  6.63012843096774 13.255834076129  C 6.35962963354839 13.41691794  5.99035282258065 13.5643245967742  5.58308467741935 13.7117312535484  C 4.85212963354839 13.9715927419355  3.99352338 14.2329737903226  3.28536290322581 14.7481376980645  C 1.8492868916129 13.2862272212903  0.963326612903226 11.2848387096774  0.963326612903226 9.07069818193548  Z M 6.54350806451613 4.58163044709677  C 6.88543085032258 3.80204637096774  7.56927681096774 3.30815785935484  9.03726552774194 3.27928427419355  C 9.74998507354839 3.28080383419355  10.1967641129032 3.49203629032258  10.3213762025806 3.70630786645161  L 10.4140751980645 3.87195079935484  L 10.6009931380645 3.89626531548387  C 11.0872834606452 3.96464979483871  11.3577822580645 4.15156773483871  11.5522983870968 4.42054697225807  C 11.745294956129 4.68952620967742  11.8547102787097 5.06336208967742  11.885103423871 5.48430705290323  C 11.9519683432258 6.32619697935484  11.7103427419355 7.31853346064516  11.558377016129 7.77898931806452  L 11.4626385116129 8.0707635116129  L 11.72401956 8.23032781548387  C 11.696665923871 8.2151310483871  11.8486316496774 8.30327136387097  11.8136794354839 8.58592741935484  C 11.7726485922581 8.92937015419355  11.6845086658065 9.10413044709678  11.6267614954839 9.17859394451613  C 11.5674951541935 9.25305705290323  11.5416606890323 9.24393891483871  11.5477393180645 9.24241935483871  L 11.2316506083871 9.26977338  L 11.1966987832258 9.58586208967742  C 11.1678251980645 9.85940039612903  11.0143399122581 10.2317163270968  10.8350201612903 10.5295691496774  C 10.7453602858065 10.6784953664516  10.6496221703226 10.8107056451613  10.569080043871 10.9064441496774  C 10.4900578664516 11.0006627051613  10.4034375 11.0599294354839  10.4368701541935 11.0416935483871  L 10.2301967670968 11.1495893109677  L 10.2301967670968 11.3836163341935  C 10.2301967670968 11.8942211729032  10.2089213709677 12.312127016129  10.2621094722581 12.9078326612903  L 10.2681881012903 12.9595012025806  L 10.2864239883871 13.0066102858065  C 10.4368701541935 13.41539838  10.754478423871 13.7041330645161  11.1100780277419 13.9184046406452  C 11.4671975806452 14.1326766058065  11.8759852858065 14.2861618916129  12.2984501980645 14.4350881083871  C 12.9944530277419 14.6843118987097  13.7178098825806 14.9259375  14.2709651245161 15.2845766129032  C 12.8622431380645 16.4638306451613  11.0508116864516 17.1765498019355  9.06765867290323 17.1765498019355  C 7.08754555741935 17.1765498019355  5.27459415677419 16.4653502051613  3.86891129032258 15.2860961729032  C 4.42358609225806 14.9289770090323  5.14846289612903 14.6858318477419  5.84142660580645 14.4366080574194  C 6.26389112903226 14.2861618916129  6.67267883419355 14.1326766058065  7.02827882709677 13.9168850806452  C 7.38235887096774 13.7026135045161  7.69844758064516 13.4138784309677  7.85041330645161 13.0066102858065  L 7.86864919354839 12.9595012025806  L 7.87320826258065 12.9078326612903  C 7.92639636387097 12.313646576129  7.90512096774194 11.8942211729032  7.90512096774194 11.3836163341935  L 7.90512096774194 11.1495893109677  L 7.69844758064516 11.0416935483871  C 7.73188023483871 11.0584098754839  7.6467794283871 10.9991431451613  7.56623730193548 10.9064441496774  C 7.48721512451613 10.8107056451613  7.38995706 10.6784953664516  7.30181713354839 10.5295691496774  C 7.12097782258065 10.2317163270968  6.96749253677419 9.85940039612903  6.9386189516129 9.58586208967742  L 6.90518668645161 9.26977338  L 6.58757802774194 9.24241935483871  C 6.59213709677419 9.24393891483871  6.56782258064516 9.25305705290323  6.51007579935484 9.17859394451613  C 6.45080906903226 9.10413044709678  6.36266875354839 8.92937015419355  6.32315785935484 8.58592741935484  C 6.28820564516129 8.30327136387097  6.44017137096774 8.2136114883871  6.41129778580645 8.23032781548387  L 6.65596289612903 8.08140120967742  L 6.58453890774194 7.80330383419355  C 6.25325343096774 6.52679173741936  6.20158527870968 5.36273447225807  6.54350806451613 4.58163044709677  Z " fill-rule="nonzero" fill="#cccccc" stroke="none" transform="matrix(1 0 0 1 192 879 )" />
  </g>
</svg>