<?xml version="1.0" encoding="utf-8"?>
<svg version="1.1" xmlns:xlink="http://www.w3.org/1999/xlink" width="18px" height="15px" xmlns="http://www.w3.org/2000/svg">
  <g transform="matrix(1 0 0 1 -192 -1022 )">
    <path d="M 17.9439770090323 5.26611318461539  C 17.9439770090323 2.51806630961539  15.6933643180645 0.281881009615385  12.9275881083871 0.281881009615385  C 12.6266961658065 0.281881009615385  12.3379610922581 0.312079326923077  12.0583441567742 0.360396634615385  C 11.8501512096774 0.396634615384615  11.7088231819355 0.595943509615385  11.745294956129 0.804312092307692  C 11.7817667303226 1.01419010769231  11.9823614883871 1.15310236730769  12.1920739954839 1.11686438653846  C 12.4352191567742 1.07458674230769  12.6798842670968 1.04891826923077  12.9275881083871 1.04891826923077  C 15.276978423871 1.04891826923077  17.1735106819355 2.93329326923077  17.1735106819355 5.26611318461539  C 17.1735106819355 5.77193509615385  17.0792917374194 6.25359835384615  16.9136491935484 6.70657311346154  C 16.8619810412903 6.83642568461539  16.8847756083871 6.98288781346154  16.974435483871 7.09160175576923  C 17.0640953593548 7.19880549230769  17.2039038270968 7.250142825  17.3437122948387 7.22447435192308  C 17.4820012025806 7.19880549230769  17.5944556451613 7.10066105769231  17.6385256083871 6.96778846153846  C 17.8330417374194 6.43780789615385  17.9439770090323 5.86705989230769  17.9439770090323 5.26611318461539  Z M 15.6295389077419 5.26611318461539  C 15.6295389077419 3.78790584230769  14.4153326612903 2.58299278846154  12.9275881083871 2.58299278846154  C 12.7634651245161 2.58299278846154  12.6084602787097 2.59960195961538  12.4595336729032 2.62376061346154  C 12.2498211658065 2.66150841346154  12.1084931380645 2.85930748846154  12.1464844722581 3.06918589038462  C 12.1829562464516 3.27755408653846  12.3835510045161 3.41646634615385  12.5932635116129 3.38022836538462  C 12.7057183432258 3.36059955576923  12.8166532258065 3.35003004807692  12.9275881083871 3.35003004807692  C 13.9974268180645 3.35003004807692  14.8575530206452 4.20313241538462  14.8575530206452 5.26611318461539  C 14.8575530206452 5.49562039615385  14.8150026174194 5.71455848653846  14.7375 5.92141686346154  C 14.6660760116129 6.12072575769231  14.7694127051613 6.34117328076923  14.9700074632258 6.41213942307692  C 15.1706022212903 6.48461538461538  15.3924723754839 6.38194110576923  15.465415923871 6.18414203076923  C 15.5687526174194 5.89876802884615  15.6295389077419 5.59074519230769  15.6295389077419 5.26611318461539  Z M 8.5920060483871 3.10391366538462  C 8.34126269806452 2.85477764423077  7.98262358516129 2.73851421923077  7.54952136387097 2.73851421923077  C 6.31100060129032 2.73851421923077  4.46309737548387 3.70486037307692  2.81730846774194 5.30990103461539  C 1.16088225096774 6.95570913461538  0.191340725806452 8.68154306538462  0.191340725806452 10.1673002769231  C 0.191340725806452 13.0557692307692  3.90690262451613 14.7816031615385  7.58295362903226 14.7816031615385  C 12.3485987903226 14.7816031615385  15.5383594722581 12.0531850961538  15.5383594722581 9.88645573269231  C 15.5383594722581 8.56225961538462  14.4077344722581 7.840520025  13.3971624929032 7.51890765576923  C 13.1570564516129 7.43888221153846  12.9944530277419 7.39811438653846  13.1145060483871 7.07801222307692  C 13.1950477858065 6.88474299230769  13.3135812464516 6.51934354615385  13.3135812464516 6.03315044423077  C 13.3135812464516 5.48203125  12.9275881083871 5.00489783653846  12.1556022212903 4.91883272884615  C 12.0659427348387 4.90977304038462  11.9154965690323 4.90222355769231  11.7255395090323 4.90222355769231  C 11.0872834606452 4.90222355769231  9.98857116580645 4.98224900192308  9.1998689516129 5.31141085384615  C 9.1998689516129 5.31141085384615  9.04334415677419 5.37633733269231  8.91873245612903 5.37633733269231  C 8.80627762451613 5.37633733269231  8.71661813806452 5.32198036153846  8.79412036645161 5.11059214038462  C 9.07677681096774 4.228801275  9.03574596774194 3.50706129807692  8.5920060483871 3.10391366538462  Z M 3.3567868916129 5.85800020384615  C 5.02385080645161 4.23182091346154  6.66508064516129 3.50555147884615  7.54952136387097 3.50555147884615  C 7.71060483870968 3.50555147884615  7.92791592387097 3.52971013269231  8.04796894451613 3.64597355769231  L 8.06012620258065 3.65956270384615  L 8.07228346064516 3.67164203076923  C 8.24704375354839 3.82867328076923  8.24400463354839 4.29825721153846  8.06164576258065 4.86749539615385  C 7.90664052774194 5.31141085384615  8.05252762451613 5.62094350961539  8.15434475806452 5.76438561346154  C 8.32454637096774 6.00446233269231  8.60416330645161 6.14337459230769  8.91873245612903 6.14337459230769  C 9.17555443548387 6.14337459230769  9.41110140774194 6.05428945961538  9.49620221419355 6.01805147884615  C 10.1147028154839 5.76136558846154  11.0538508064516 5.66926081730769  11.7255395090323 5.66926081730769  C 11.8972606819355 5.66926081730769  12.0188332625806 5.67530048076923  12.0705014148387 5.68134014423077  C 12.3835510045161 5.71606830576923  12.5415953593548 5.83384155  12.5415953593548 6.03315044423077  C 12.5415953593548 6.39402043269231  12.453455043871 6.659765625  12.4033064516129 6.78357891923077  L 12.3972278225806 6.79565824615385  L 12.3926687535484 6.80622736730769  C 12.2710961729032 7.12934955576923  12.2726161219355 7.42076322115385  12.3972278225806 7.67744911153846  C 12.5795866935484 8.05643770384616  12.9382258064516 8.17421133461539  13.1312223754839 8.23913781346154  L 13.1631350806452 8.24970693461539  C 13.7618802348387 8.43995652692308  14.7663735851613 8.90501061346154  14.7663735851613 9.88645573269231  C 14.7663735851613 10.7667367788462  14.0019858870968 11.8538762019231  12.6449320529032 12.6918796038462  C 13.1813709677419 12.0728139057692  13.4837828593548 11.3480542903846  13.4837828593548 10.5674278846154  C 13.4837828593548 8.22554828076923  10.7483997948387 6.38949058846154  7.25926673032258 6.38949058846154  C 3.76861410580645 6.38949058846154  1.03475060129032 8.22554828076923  1.03475060129032 10.5674278846154  C 1.03475060129032 10.6399038461538  1.03627016129032 10.7108699884615  1.04082923032258 10.780325925  C 0.990680638064516 10.5840370557692  0.963326612903226 10.3786884980769  0.963326612903226 10.1673002769231  C 0.963326612903226 8.92312960384615  1.81433467741935 7.39056490384615  3.3567868916129 5.85800020384615  Z M 1.8067364883871 10.5689377038462  C 1.8067364883871 8.68456270384615  4.24882579935484 7.15803805384615  7.25926673032258 7.15803805384615  C 10.2712272212903 7.15803805384615  12.7117969722581 8.68456270384615  12.7117969722581 10.5689377038462  C 12.7117969722581 12.4518028846154  10.2712272212903 13.9783279211538  7.25926673032258 13.9783279211538  C 4.24882579935484 13.9783279211538  1.8067364883871 12.4518028846154  1.8067364883871 10.5689377038462  Z M 7.65893668645161 8.05794790961538  C 7.39299656903226 7.98849158653846  7.12249738258065 7.95829326923077  6.85503770516129 7.95980308846154  C 5.68946088 7.96886277692308  4.55731593096774 8.60302744038462  4.0664669283871 9.57994310192308  C 3.46012358516129 10.82109375  4.02543608516129 12.1860576923077  5.47822842387097 12.6254433057692  C 6.93102076258065 13.1071065634615  8.66646915677419 12.3853665865385  9.2728125 11.0626802884615  C 9.87763628322581 9.77925199615385  9.11172902516129 8.41730769230769  7.65893668645161 8.05794790961538  Z M 7.05259334322581 9.98007070961538  C 7.05259334322581 9.7596228  7.23343265419355 9.58145292115385  7.45682197935484 9.58145292115385  C 7.68021169354839 9.58145292115385  7.86105100451613 9.7596228  7.86105100451613 9.98007070961538  C 7.86105100451613 10.2020284384615  7.68021169354839 10.3817081365385  7.45682197935484 10.3817081365385  C 7.23343265419355 10.3817081365385  7.05259334322581 10.2020284384615  7.05259334322581 9.98007070961538  Z M 4.77918608516129 10.4496546403846  C 4.98737903225807 10.1446514423077  5.37489173032258 9.97554086538462  5.75632579935484 9.98007070961538  C 5.88245706 9.98158052884616  6.00858870967742 10.0012093384615  6.12864173032258 10.0419771634615  C 6.64532519806452 10.2050480769231  6.80336955290323 10.6927509980769  6.48576128322581 11.09740845  C 6.20766390774194 11.5035757211538  5.5739669283871 11.7059046403846  5.09527479483871 11.5035757211538  C 4.62114173032258 11.3012471884615  4.50108870967742 10.8135442673077  4.77918608516129 10.4496546403846  Z " fill-rule="nonzero" fill="#cccccc" stroke="none" transform="matrix(1 0 0 1 192 1022 )" />
  </g>
</svg>