<?xml version="1.0" encoding="utf-8"?>
<svg version="1.1" xmlns:xlink="http://www.w3.org/1999/xlink" width="28px" height="22px" xmlns="http://www.w3.org/2000/svg">
  <g transform="matrix(1 0 0 1 -1132 -1006 )">
    <path d="M 27.357130859375 19.9123131054688  L 23.0383000097656 14.2731395703125  C 24.5703006933594 12.8116915625  25.5328405859375 10.7656643457031  25.5328405859375 8.48782124023437  C 25.5328405859375 4.0732403515625  21.9296153222656 0.480094033203125  17.5049554882813 0.480094033203125  C 13.0752561816406 0.480094033203125  9.477070390625 4.0732403515625  9.477070390625 8.48782124023437  C 9.477070390625 12.9024021289062  13.0802956542969 16.4955484472656  17.5049554882813 16.4955484472656  C 18.9311271582031 16.4955484472656  20.2665882910156 16.1175877636719  21.4307072070313 15.4674953515625  L 25.7646564746094 21.1268267773437  C 25.9611960253906 21.3838400585937  26.2585251171875 21.5199059082031  26.5659331542969 21.5199059082031  C 26.7775911523438 21.5199059082031  26.99428859375 21.454392734375  27.1706702539063 21.3132873828125  C 27.6091046386719 20.9756425390625  27.6947757324219 20.3507475195313  27.357130859375 19.9123131054688  Z M 11.3366370019531 8.48782126953125  C 11.3366370019531 5.09625400390625  14.1033092773438 2.33966067382813  17.5049554882813 2.33966067382813  C 20.9066016992187 2.33966067382813  23.6732739746094 5.09625397460938  23.6732739746094 8.48782126953125  C 23.6732739746094 11.8793885644531  20.9066016992187 14.6359818652344  17.5049554882813 14.6359818652344  C 14.1033092773438 14.6359818652344  11.3366370019531 11.8793885351563  11.3366370019531 8.48782126953125  Z M 7.45120106445312 4.4612800390625  L 1.43910631835938 4.4612800390625  C 0.884763974609375 4.4612800390625  0.436250615234375 4.0127666796875  0.436250615234375 3.46346380859375  C 0.436250615234375 2.9141609375  0.884763974609375 2.465647578125  1.43910631835938 2.465647578125  L 7.45120106445312 2.465647578125  C 8.00554340820313 2.465647578125  8.45405676757813 2.9141609375  8.45405676757813 3.46346380859375  C 8.45405676757813 4.0127666796875  8.0055434375 4.4612800390625  7.45120106445312 4.4612800390625  Z M 7.20930623046875 14.3436922460937  L 1.43910631835938 14.3436922460937  C 0.884763974609375 14.3436922460937  0.436250615234375 13.8951788867187  0.436250615234375 13.345876015625  C 0.436250615234375 12.7965731445312  0.884763974609375 12.3480597851562  1.43910631835938 12.3480597851562  L 7.20930623046875 12.3480597851562  C 7.76364857421875 12.3480597851562  8.21216193359375 12.7965731445312  8.21216193359375 13.345876015625  C 8.21216193359375 13.8951789160156  7.76364857421875 14.3436922460937  7.20930623046875 14.3436922460937  Z M 6.02502939453125 9.3898874609375  L 1.43910631835938 9.3898874609375  C 0.884763974609375 9.3898874609375  0.436250615234375 8.9413741015625  0.436250615234375 8.3870317578125  C 0.436250615234375 7.8326894140625  0.884763974609375 7.3841760546875  1.43910631835938 7.3841760546875  L 6.02502939453125 7.3841760546875  C 6.57937173828125 7.3841760546875  7.02788509765625 7.8326894140625  7.02788509765625 8.3870317578125  C 7.022845625 8.9413741015625  6.574332265625 9.3898874609375  6.02502939453125 9.3898874609375  Z M 12.4805980273437 19.4738787207031  L 1.43910631835938 19.4738787207031  C 0.884763974609375 19.4738787207031  0.436250615234375 19.0253653613281  0.436250615234375 18.4710230175781  C 0.436250615234375 17.9166806738281  0.884763974609375 17.4681673144531  1.43910631835938 17.4681673144531  L 12.4805979980469 17.4681673144531  C 13.0349403417969 17.4681673144531  13.4834537011719 17.9166806738281  13.4834537011719 18.4710230175781  C 13.4834537304688 19.0253653613281  13.0349403710938 19.4738787207031  12.4805980273437 19.4738787207031  Z " fill-rule="nonzero" fill="#999999" stroke="none" transform="matrix(1 0 0 1 1132 1006 )" />
  </g>
</svg>