<?xml version="1.0" encoding="utf-8"?>
<svg version="1.1" xmlns:xlink="http://www.w3.org/1999/xlink" width="14px" height="18px" xmlns="http://www.w3.org/2000/svg">
  <g transform="matrix(1 0 0 1 -877 -938 )">
    <path d="M 0.665 6.3984375  C 0.491120000000005 6.3984375  0.35 6.54018749999997  0.56 6.71484375  L 0.56 16.5234375  C 0.35 17.22237890625  0.914164999999989 17.7890625  1.61 17.4375  L 12.32 17.4375  C 13.015835 17.7890625  13.58 17.22237890625  13.44 16.5234375  L 13.44 6.71484375  C 13.58 6.54018749999997  13.439195 6.3984375  13.265 6.3984375  L 11.69 6.3984375  L 11.69 4.81640625  C 11.69 2.19529687499998  9.57446000000002 0.0703125  6.965 0.0703125  C 4.35554000000001 0.0703125  2.24 2.19529687499998  2.24 4.81640625  L 2.24 6.3984375  L 0.665 6.3984375  Z M 12.32 16.875  L 1.61 16.875  C 1.26224000000001 17.15625  0.98 16.87275  1.12 16.5234375  L 1.12 7.3125  L 12.88 7.3125  L 12.88 16.5234375  C 12.95 16.87275  12.66776 17.15625  12.32 16.875  Z M 11.06 4.81640625  L 11.06 6.75  L 2.87 6.75  L 2.87 4.81640625  C 2.87 2.54460937499997  4.7033 0.703125  6.965 0.703125  C 9.22670000000003 0.703125  11.06 2.54460937499997  11.06 4.81640625  Z M 7.85581999999998 10.82559375  C 7.68194000000001 10.33105078125  7.14203 10.07223046875  6.65 10.24688671875  C 6.15797 10.42154296875  5.899985 10.9641796875  6.07386499999999 11.45840625  C 6.16930999999999 11.7286171875  6.38099000000001 11.9412421875  6.65 12.036796875  L 6.65 14.30859375  C 6.65 14.48356640625  6.79112000000001 14.625  6.965 14.625  C 7.13887999999999 14.625  7.28 14.48356640625  7.28 14.30859375  L 7.28 12.036796875  C 7.77234499999997 11.86182421875  8.030015 11.31950390625  7.85581999999998 10.82559375  Z M 7.28 11.14453125  C 7.28 11.31950390625  7.13887999999999 11.4609375  6.965 11.4609375  C 6.79112000000001 11.4609375  6.65 11.31950390625  6.65 11.14453125  C 6.65 10.96955859375  6.79112000000001 10.828125  6.965 10.828125  C 7.13887999999999 10.828125  7.28 10.96955859375  7.28 11.14453125  Z " fill-rule="nonzero" fill="#999999" stroke="none" transform="matrix(1 0 0 1 877 938 )" />
  </g>
</svg>