<svg xmlns="http://www.w3.org/2000/svg" xmlns:xlink="http://www.w3.org/1999/xlink" width="18" height="18" version="1.1"><g><path fill="#ccc" fill-rule="nonzero" stroke="none" d="M 17.9439770090323 9.06765867290323 C 17.9439770090323 4.16980362193548 13.9655141129032 0.191340725806452 9.06765867290323 0.191340725806452 C 4.16980362193548 0.191340725806452 0.191340725806452 4.16980362193548 0.191340725806452 9.06765867290323 C 0.191340725806452 13.9655141129032 4.16980362193548 17.9439770090323 9.06765867290323 17.9439770090323 C 13.9655141129032 17.9439770090323 17.9439770090323 13.9655141129032 17.9439770090323 9.06765867290323 Z M 0.963326612903226 9.06765867290323 C 0.963326612903226 4.58770907612903 4.58770907612903 0.963326612903226 9.06765867290323 0.963326612903226 C 13.5491282187097 0.963326612903226 17.1735106819355 4.58770907612903 17.1735106819355 9.06765867290323 C 17.1735106819355 13.5491282187097 13.5491282187097 17.1735106819355 9.06765867290323 17.1735106819355 C 4.58770907612903 17.1735106819355 0.963326612903226 13.5491282187097 0.963326612903226 9.06765867290323 Z M 11.3836163341935 5.97971512451613 C 11.3836163341935 4.69712439870968 10.3502493987097 3.66527741225807 9.06765867290323 3.66527741225807 C 7.78506794709678 3.66527741225807 6.7517010116129 4.69712439870968 6.7517010116129 5.97971512451613 L 6.7517010116129 7.13769414967742 L 6.36570826258064 7.13769414967742 C 5.73201128322581 7.13769414967742 5.20924918645161 7.66197580645161 5.20924918645161 8.29567278580645 L 5.20924918645161 12.1556022212903 C 5.20924918645161 12.7908191496774 5.73201128322581 13.3135812464516 6.36570826258064 13.3135812464516 L 11.7696094722581 13.3135812464516 C 12.4048260116129 13.3135812464516 12.9275881083871 12.7908191496774 12.9275881083871 12.1556022212903 L 12.9275881083871 8.29567278580645 C 12.9275881083871 7.66197580645161 12.4048260116129 7.13769414967742 11.7696094722581 7.13769414967742 L 11.3836163341935 7.13769414967742 L 11.3836163341935 5.97971512451613 Z M 7.52368689870968 5.97971512451613 C 7.52368689870968 5.10135342387097 8.18929697225806 4.43726329935484 9.06765867290323 4.43726329935484 C 9.94754032258064 4.43726329935484 10.6116304470968 5.10135342387097 10.6116304470968 5.97971512451613 L 10.6116304470968 7.13769414967742 L 7.52368689870968 7.13769414967742 L 7.52368689870968 5.97971512451613 Z M 5.97971512451613 8.29567278580645 C 5.97971512451613 8.08140120967742 6.15295624645161 7.90968003677419 6.36570826258064 7.90968003677419 L 7.07386835032258 7.90968003677419 C 7.11489919354839 7.91727822580645 7.15744959677419 7.91727822580645 7.19848044 7.90968003677419 L 10.9322782258065 7.90968003677419 C 10.9748286290323 7.91727822580645 11.0173790322581 7.91727822580645 11.0584098754839 7.90968003677419 L 11.7696094722581 7.90968003677419 C 11.9838810483871 7.90968003677419 12.1556022212903 8.08140120967742 12.1556022212903 8.29567278580645 L 12.1556022212903 12.1556022212903 C 12.1556022212903 12.3698741864516 11.9838810483871 12.5415953593548 11.7696094722581 12.5415953593548 L 6.36570826258064 12.5415953593548 C 6.15295624645161 12.5415953593548 5.97971512451613 12.3698741864516 5.97971512451613 12.1556022212903 L 5.97971512451613 8.29567278580645 Z M 9.83964456 9.83964456 C 9.83964456 9.41262096774194 9.49468265419355 9.06765867290323 9.06765867290323 9.06765867290323 C 8.64063508064516 9.06765867290323 8.29567278580645 9.41262096774194 8.29567278580645 9.83964456 C 8.29567278580645 10.1162223754839 8.4430798316129 10.3700052348387 8.68166592387097 10.5082937535484 L 8.68166592387097 10.9976235851613 C 8.68166592387097 11.2301310483871 8.83515120967742 11.3836163341935 9.06765867290323 11.3836163341935 C 9.30016652516129 11.3836163341935 9.45365181096774 11.2301310483871 9.45365181096774 10.9976235851613 L 9.45365181096774 10.5082937535484 C 9.69223790322581 10.3684852858065 9.83964456 10.1162223754839 9.83964456 9.83964456 Z" transform="matrix(1 0 0 1 -192 -949 ) matrix(1 0 0 1 192 949 )"/></g></svg>