<svg xmlns="http://www.w3.org/2000/svg" xmlns:xlink="http://www.w3.org/1999/xlink" width="20" height="20" version="1.1"><g><path fill="#1980ff" fill-rule="nonzero" stroke="none" d="M 19.9377522322581 10.0751763032258 C 19.9377522322581 4.63649193548387 15.5138611032258 0.212600806451613 10.0751763032258 0.212600806451613 C 4.63649193548387 0.212600806451613 0.212600806451613 4.63649193548387 0.212600806451613 10.0751763032258 C 0.212600806451613 15.5138611032258 4.63649193548387 19.9377522322581 10.0751763032258 19.9377522322581 C 15.5138611032258 19.9377522322581 19.9377522322581 15.5138611032258 19.9377522322581 10.0751763032258 Z M 11.3618196645161 10.0751763032258 C 11.3618196645161 10.7860385225806 10.7860385225806 11.3618196645161 10.0751763032258 11.3618196645161 C 9.87762096774194 11.3618196645161 9.69188529677419 11.3128530387097 9.52472289032258 11.2334930516129 L 6.94805936774194 13.8101561419355 C 6.86363418064516 13.8928933612903 6.75556966451613 13.9351059548387 6.64412791612903 13.9351059548387 C 6.534375 13.9351059548387 6.42462208387097 13.8928933612903 6.34188529677419 13.8101561419355 C 6.17472289032258 13.6413053354839 6.17472289032258 13.3711440451613 6.34188529677419 13.2022932387097 L 8.91854838709677 10.6273185483871 C 8.8375 10.4584677419355 8.78853337419355 10.2727320709677 8.78853337419355 10.0751763032258 C 8.78853337419355 9.51628045806452 9.14818548387097 9.0451866 9.64629547096774 8.86789336129032 L 9.64629547096774 2.78588709677419 C 9.64629547096774 2.54780756774194 9.83709677419355 2.35700626451613 10.0751763032258 2.35700626451613 C 10.3132562645161 2.35700626451613 10.5040575677419 2.54780756774194 10.5040575677419 2.78588709677419 L 10.5040575677419 8.86789336129032 C 11.0038559548387 9.0451866 11.3618196645161 9.51628045806452 11.3618196645161 10.0751763032258 Z" transform="matrix(1 0 0 1 -449 -1298 ) matrix(1 0 0 1 449 1298 )"/></g></svg>