<svg xmlns="http://www.w3.org/2000/svg" xmlns:xlink="http://www.w3.org/1999/xlink" width="19" height="20" version="1.1"><g><path fill="#1980ff" fill-rule="nonzero" stroke="none" d="M 5.09121471774194 0 L 4.27634072580645 0 C 3.83040595129032 0 3.46146673387097 0.3762209125 3.46146673387097 0.83095703125 L 3.46146673387097 1.6619140625 L 1.01684475806452 1.6619140625 C 0.543640270322581 1.6619140625 0.201970766129032 2.01032704375 0.201970766129032 2.49287109375 L 0.201970766129032 5.4012209125 L 18.9408646206452 5.4012209125 L 18.9408646206452 2.49287109375 C 18.9408646206452 2.01032704375 18.5991947058065 1.6619140625 18.1275946087097 1.6619140625 L 15.6829726329032 1.6619140625 L 15.6829726329032 0.83095703125 C 15.6829726329032 0.3762209125 15.3140334154839 0 14.8680986409677 0 L 14.0532246490323 0 C 13.607289463871 0 13.2383506570968 0.3762209125 13.2383506570968 0.83095703125 L 13.2383506570968 1.6619140625 L 5.90448472967742 1.6619140625 L 5.90448472967742 0.83095703125 C 5.90448472967742 0.3762209125 5.53554551225807 0 5.09121471774194 0 Z M 4.27634072580645 3.323828125 L 4.27634072580645 0.83095703125 L 5.09121471774194 0.83095703125 L 5.09121471774194 3.323828125 L 4.27634072580645 3.323828125 Z M 14.0532246490323 3.323828125 L 14.0532246490323 0.83095703125 L 14.8680986409677 0.83095703125 L 14.8680986409677 3.323828125 L 14.0532246490323 3.323828125 Z M 19 6.23217794375 L 0.201970766129032 6.23217794375 L 0.201970766129032 19.11037608125 C 0.201970766129032 19.591284075 0.543640270322581 19.939697475 1.01684475806452 20 L 18.1275946087097 20 C 18.5991947058065 19.939697475 18.9408646206452 19.591284075 19 19.11037608125 L 19 6.23217794375 Z M 4.27634072580645 10.80080576875 L 4.27634072580645 8.72341298125 L 6.31192152032258 8.72341298125 L 6.31192152032258 10.80080576875 L 4.27634072580645 10.80080576875 Z M 7.12679551225806 10.80080576875 L 7.12679551225806 8.72341298125 L 9.16398069741935 8.72341298125 L 9.16398069741935 10.80080576875 L 7.12679551225806 10.80080576875 Z M 9.97885468935484 10.80080576875 L 9.97885468935484 8.72341298125 L 12.016039463871 8.72341298125 L 12.016039463871 10.80080576875 L 9.97885468935484 10.80080576875 Z M 12.8309134558065 10.80080576875 L 12.8309134558065 8.72341298125 L 14.8680986409677 8.72341298125 L 14.8680986409677 10.80080576875 L 12.8309134558065 10.80080576875 Z M 4.27634072580645 13.70915516875 L 4.27634072580645 11.6317628 L 6.31192152032258 11.6317628 L 6.31192152032258 13.70915516875 L 4.27634072580645 13.70915516875 Z M 7.12679551225806 13.70915516875 L 7.12679551225806 11.6317628 L 9.16398069741935 11.6317628 L 9.16398069741935 13.70915516875 L 7.12679551225806 13.70915516875 Z M 9.97885468935484 13.70915516875 L 9.97885468935484 11.6317628 L 12.016039463871 11.6317628 L 12.016039463871 13.70915516875 L 9.97885468935484 13.70915516875 Z M 12.8309134558065 13.70915516875 L 12.8309134558065 11.6317628 L 14.8680986409677 11.6317628 L 14.8680986409677 13.70915516875 L 12.8309134558065 13.70915516875 Z M 4.27634072580645 16.6175049875 L 4.27634072580645 14.5401122 L 6.31192152032258 14.5401122 L 6.31192152032258 16.6175049875 L 4.27634072580645 16.6175049875 Z M 7.12679551225806 16.6175049875 L 7.12679551225806 14.5401122 L 9.16398069741935 14.5401122 L 9.16398069741935 16.6175049875 L 7.12679551225806 16.6175049875 Z M 9.97885468935484 16.6175049875 L 9.97885468935484 14.5401122 L 12.016039463871 14.5401122 L 12.016039463871 16.6175049875 L 9.97885468935484 16.6175049875 Z M 12.8309134558065 16.6175049875 L 12.8309134558065 14.5401122 L 14.8680986409677 14.5401122 L 14.8680986409677 16.6175049875 L 12.8309134558065 16.6175049875 Z" transform="matrix(1 0 0 1 -450 -1368 ) matrix(1 0 0 1 450 1368 )"/></g></svg>