<svg xmlns="http://www.w3.org/2000/svg" xmlns:xlink="http://www.w3.org/1999/xlink" width="18" height="18" version="1.1"><g><path fill="#ccc" fill-rule="nonzero" stroke="none" d="M 4.285172076 0.296578326 L 1.094297076 0.296578326 C 0.65775 0.296578326 0.296578326 0.65775 0.296578326 1.094297076 L 0.296578326 2.689734576 C 0.296578326 3.124711038 0.65775 3.487453326 1.094297076 3.487453326 L 4.285172076 3.487453326 C 4.720148538 3.487453326 5.082890826 3.124711038 5.082890826 2.689734576 L 5.082890826 1.094297076 C 5.082890826 0.65775 4.720148538 0.296578326 4.285172076 0.296578326 Z M 10.665351462 0.296578326 L 7.474476462 0.296578326 C 7.0395 0.296578326 6.676757712 0.65775 6.676757712 1.094297076 L 6.676757712 2.689734576 C 6.676757712 3.124711038 7.0395 3.487453326 7.474476462 3.487453326 L 10.665351462 3.487453326 C 11.101898538 3.487453326 11.463070212 3.124711038 11.463070212 2.689734576 L 11.463070212 1.094297076 C 11.463070212 0.65775 11.101898538 0.296578326 10.665351462 0.296578326 Z M 17.047101462 0.296578326 L 13.856226462 0.296578326 C 13.419679788 0.296578326 13.058507712 0.65775 13.058507712 1.094297076 L 13.058507712 2.689734576 C 13.058507712 3.124711038 13.419679788 3.487453326 13.856226462 3.487453326 L 17.047101462 3.487453326 C 17.482078326 3.487453326 17.844820212 3.124711038 17.844820212 2.689734576 L 17.844820212 1.094297076 C 17.844820212 0.65775 17.482078326 0.296578326 17.047101462 0.296578326 Z M 1.094297076 2.689734576 L 1.094297076 1.094297076 L 4.285172076 1.094297076 L 4.285172076 2.689734576 L 1.094297076 2.689734576 Z M 7.474476462 2.689734576 L 7.474476462 1.094297076 L 10.665351462 1.094297076 L 10.665351462 2.689734576 L 7.474476462 2.689734576 Z M 13.856226462 2.689734576 L 13.856226462 1.094297076 L 17.047101462 1.094297076 L 17.047101462 2.689734576 L 13.856226462 2.689734576 Z M 4.285172076 5.082890826 L 1.094297076 5.082890826 C 0.65775 5.082890826 0.296578326 5.4440625 0.296578326 5.879038962 L 0.296578326 7.474476462 C 0.296578326 7.911023538 0.65775 8.272195212 1.094297076 8.272195212 L 4.285172076 8.272195212 C 4.720148538 8.272195212 5.082890826 7.911023538 5.082890826 7.474476462 L 5.082890826 5.879038962 C 5.082890826 5.4440625 4.720148538 5.082890826 4.285172076 5.082890826 Z M 10.665351462 5.082890826 L 7.474476462 5.082890826 C 7.0395 5.082890826 6.676757712 5.4440625 6.676757712 5.879038962 L 6.676757712 7.474476462 C 6.676757712 7.911023538 7.0395 8.272195212 7.474476462 8.272195212 L 10.665351462 8.272195212 C 11.101898538 8.272195212 11.463070212 7.911023538 11.463070212 7.474476462 L 11.463070212 5.879038962 C 11.463070212 5.4440625 11.101898538 5.082890826 10.665351462 5.082890826 Z M 17.047101462 5.082890826 L 13.856226462 5.082890826 C 13.419679788 5.082890826 13.058507712 5.4440625 13.058507712 5.879038962 L 13.058507712 7.474476462 C 13.058507712 7.911023538 13.419679788 8.272195212 13.856226462 8.272195212 L 17.047101462 8.272195212 C 17.482078326 8.272195212 17.844820212 7.911023538 17.844820212 7.474476462 L 17.844820212 5.879038962 C 17.844820212 5.4440625 17.482078326 5.082890826 17.047101462 5.082890826 Z M 1.094297076 7.474476462 L 1.094297076 5.879038962 L 4.285172076 5.879038962 L 4.285172076 7.474476462 L 1.094297076 7.474476462 Z M 7.474476462 7.474476462 L 7.474476462 5.879038962 L 10.665351462 5.879038962 L 10.665351462 7.474476462 L 7.474476462 7.474476462 Z M 13.856226462 7.474476462 L 13.856226462 5.879038962 L 17.047101462 5.879038962 L 17.047101462 7.474476462 L 13.856226462 7.474476462 Z M 4.285172076 9.867632712 L 1.094297076 9.867632712 C 0.65775 9.867632712 0.296578326 10.228804788 0.296578326 10.665351462 L 0.296578326 12.260788962 C 0.296578326 12.697336038 0.65775 13.058507712 1.094297076 13.058507712 L 4.285172076 13.058507712 C 4.720148538 13.058507712 5.082890826 12.697336038 5.082890826 12.260788962 L 5.082890826 10.665351462 C 5.082890826 10.228804788 4.720148538 9.867632712 4.285172076 9.867632712 Z M 10.665351462 9.867632712 L 7.474476462 9.867632712 C 7.0395 9.867632712 6.676757712 10.228804788 6.676757712 10.665351462 L 6.676757712 12.260788962 C 6.676757712 12.697336038 7.0395 13.058507712 7.474476462 13.058507712 L 10.665351462 13.058507712 C 11.101898538 13.058507712 11.463070212 12.697336038 11.463070212 12.260788962 L 11.463070212 10.665351462 C 11.463070212 10.228804788 11.101898538 9.867632712 10.665351462 9.867632712 Z M 17.047101462 9.867632712 L 13.856226462 9.867632712 C 13.419679788 9.867632712 13.058507712 10.228804788 13.058507712 10.665351462 L 13.058507712 12.260788962 C 13.058507712 12.697336038 13.419679788 13.058507712 13.856226462 13.058507712 L 17.047101462 13.058507712 C 17.482078326 13.058507712 17.844820212 12.697336038 17.844820212 12.260788962 L 17.844820212 10.665351462 C 17.844820212 10.228804788 17.482078326 9.867632712 17.047101462 9.867632712 Z M 1.094297076 12.260788962 L 1.094297076 10.665351462 L 4.285172076 10.665351462 L 4.285172076 12.260788962 L 1.094297076 12.260788962 Z M 7.474476462 12.260788962 L 7.474476462 10.665351462 L 10.665351462 10.665351462 L 10.665351462 12.260788962 L 7.474476462 12.260788962 Z M 13.856226462 12.260788962 L 13.856226462 10.665351462 L 17.047101462 10.665351462 L 17.047101462 12.260788962 L 13.856226462 12.260788962 Z M 10.665351462 14.653945212 L 7.474476462 14.653945212 C 7.0395 14.653945212 6.676757712 15.015117288 6.676757712 15.451663962 L 6.676757712 17.047101462 C 6.676757712 17.482078326 7.0395 17.844820212 7.474476462 17.844820212 L 10.665351462 17.844820212 C 11.101898538 17.844820212 11.463070212 17.482078326 11.463070212 17.047101462 L 11.463070212 15.451663962 C 11.463070212 15.015117288 11.101898538 14.653945212 10.665351462 14.653945212 Z M 7.474476462 17.047101462 L 7.474476462 15.451663962 L 10.665351462 15.451663962 L 10.665351462 17.047101462 L 7.474476462 17.047101462 Z" transform="matrix(1 0 0 1 -192 -1229 ) matrix(1 0 0 1 192 1229 )"/></g></svg>