<svg xmlns="http://www.w3.org/2000/svg" xmlns:xlink="http://www.w3.org/1999/xlink" width="215" height="40" version="1.1"><g><path fill="#fff" fill-rule="nonzero" stroke="none" d="M 944.5 40 A 19.5 19.5 0 0 1 964 20.5 L 1139 20.5 A 19.5 19.5 0 0 1 1158.5 40 A 19.5 19.5 0 0 1 1139 59.5 L 964 59.5 A 19.5 19.5 0 0 1 944.5 40 Z" transform="matrix(1 0 0 1 -944 -20 )"/><path fill="none" stroke="#ef553b" stroke-width="1" d="M 944.5 40 A 19.5 19.5 0 0 1 964 20.5 L 1139 20.5 A 19.5 19.5 0 0 1 1158.5 40 A 19.5 19.5 0 0 1 1139 59.5 L 964 59.5 A 19.5 19.5 0 0 1 944.5 40 Z" transform="matrix(1 0 0 1 -944 -20 )"/></g></svg>