<?xml version="1.0" encoding="utf-8"?>
<svg version="1.1" xmlns:xlink="http://www.w3.org/1999/xlink" width="215px" height="40px" xmlns="http://www.w3.org/2000/svg">
  <g transform="matrix(1 0 0 1 -944 -20 )">
    <path d="M 944.5 40  A 19.5 19.5 0 0 1 964 20.5 L 1139 20.5  A 19.5 19.5 0 0 1 1158.5 40 A 19.5 19.5 0 0 1 1139 59.5 L 964 59.5  A 19.5 19.5 0 0 1 944.5 40 Z " fill-rule="nonzero" fill="#ffffff" stroke="none" />
    <path d="M 944.5 40  A 19.5 19.5 0 0 1 964 20.5 L 1139 20.5  A 19.5 19.5 0 0 1 1158.5 40 A 19.5 19.5 0 0 1 1139 59.5 L 964 59.5  A 19.5 19.5 0 0 1 944.5 40 Z " stroke-width="1" stroke="#ef553b" fill="none" />
  </g>
</svg>