<svg xmlns="http://www.w3.org/2000/svg" xmlns:xlink="http://www.w3.org/1999/xlink" width="215" height="40" version="1.1"><g><path fill="#fff" fill-rule="nonzero" stroke="none" d="M 945.5 40 A 18.5 18.5 0 0 1 964 21.5 L 1139 21.5 A 18.5 18.5 0 0 1 1157.5 40 A 18.5 18.5 0 0 1 1139 58.5 L 964 58.5 A 18.5 18.5 0 0 1 945.5 40 Z" transform="matrix(1 0 0 1 -944 -20 )"/><path fill="none" stroke="#1980ff" stroke-width="2" d="M 945 40 A 19 19 0 0 1 964 21 L 1139 21 A 19 19 0 0 1 1158 40 A 19 19 0 0 1 1139 59 L 964 59 A 19 19 0 0 1 945 40 Z" transform="matrix(1 0 0 1 -944 -20 )"/></g></svg>