<?xml version="1.0" encoding="utf-8"?>
<svg version="1.1" xmlns:xlink="http://www.w3.org/1999/xlink" width="1024px" height="880px" xmlns="http://www.w3.org/2000/svg">
  <g transform="matrix(1 0 0 1 -88 -212 )">
    <path d="M 89 215  A 2 2 0 0 1 91 213 L 1109 213  A 2 2 0 0 1 1111 215 L 1111 1089  A 2 2 0 0 1 1109 1091 L 91 1091  A 2 2 0 0 1 89 1089 L 89 215  Z " fill-rule="nonzero" fill="#ffffff" stroke="none" fill-opacity="0" />
    <path d="M 88.5 215  A 2.5 2.5 0 0 1 91 212.5 L 1109 212.5  A 2.5 2.5 0 0 1 1111.5 215 L 1111.5 1089  A 2.5 2.5 0 0 1 1109 1091.5 L 91 1091.5  A 2.5 2.5 0 0 1 88.5 1089 L 88.5 215  Z " stroke-width="1" stroke-dasharray="9,4" stroke="#cccccc" fill="none" stroke-dashoffset="0.5" />
  </g>
</svg>