<svg xmlns="http://www.w3.org/2000/svg" xmlns:xlink="http://www.w3.org/1999/xlink" width="1024" height="880" version="1.1"><g><path fill="#fff" fill-opacity="0" fill-rule="nonzero" stroke="none" d="M 89 215 A 2 2 0 0 1 91 213 L 1109 213 A 2 2 0 0 1 1111 215 L 1111 1089 A 2 2 0 0 1 1109 1091 L 91 1091 A 2 2 0 0 1 89 1089 L 89 215 Z" transform="matrix(1 0 0 1 -88 -212 )"/><path fill="none" stroke="#ccc" stroke-dasharray="9 4" stroke-dashoffset=".5" stroke-width="1" d="M 88.5 215 A 2.5 2.5 0 0 1 91 212.5 L 1109 212.5 A 2.5 2.5 0 0 1 1111.5 215 L 1111.5 1089 A 2.5 2.5 0 0 1 1109 1091.5 L 91 1091.5 A 2.5 2.5 0 0 1 88.5 1089 L 88.5 215 Z" transform="matrix(1 0 0 1 -88 -212 )"/></g></svg>