<?xml version="1.0" encoding="utf-8"?>
<svg version="1.1" xmlns:xlink="http://www.w3.org/1999/xlink" width="18px" height="18px" xmlns="http://www.w3.org/2000/svg">
  <g transform="matrix(1 0 0 1 -540 -543 )">
    <path d="M 549 545  C 552.92 545  556 548.08  556 552  C 556 555.92  552.92 559  549 559  C 545.08 559  542 555.92  542 552  C 542 548.08  545.08 545  549 545  Z " fill-rule="nonzero" fill="#ffffff" stroke="none" />
    <path d="M 549 544.5  C 553.2 544.5  556.5 547.8  556.5 552  C 556.5 556.2  553.2 559.5  549 559.5  C 544.8 559.5  541.5 556.2  541.5 552  C 541.5 547.8  544.8 544.5  549 544.5  Z " stroke-width="3" stroke="#1980ff" fill="none" />
  </g>
</svg>