<svg xmlns="http://www.w3.org/2000/svg" xmlns:xlink="http://www.w3.org/1999/xlink" width="14" height="14" version="1.1"><g><path fill="#fff" fill-rule="nonzero" stroke="none" d="M 356 770 C 359.36 770 362 772.64 362 776 C 362 779.36 359.36 782 356 782 C 352.64 782 350 779.36 350 776 C 350 772.64 352.64 770 356 770 Z" transform="matrix(1 0 0 1 -349 -769 )"/><path fill="none" stroke="#e2e2e2" stroke-width="2" d="M 356 770 C 359.36 770 362 772.64 362 776 C 362 779.36 359.36 782 356 782 C 352.64 782 350 779.36 350 776 C 350 772.64 352.64 770 356 770 Z" transform="matrix(1 0 0 1 -349 -769 )"/></g></svg>