<svg xmlns="http://www.w3.org/2000/svg" xmlns:xlink="http://www.w3.org/1999/xlink" width="52" height="30" version="1.1"><g><path fill="#333" fill-rule="nonzero" stroke="none" d="M 687 588.322580645161 C 687 588.322580645161 687 574 687 574 C 687 572.343145750508 688.343145750508 571 690 571 C 690 571 736 571 736 571 C 737.656854249492 571 739 572.343145750508 739 574 C 739 574 739 588.322580645161 739 588.322580645161 C 739 589.979434894654 737.656854249492 591.322580645161 736 591.322580645161 C 736 591.322580645161 723.4 591.322580645161 723.4 591.322580645161 C 723.4 591.322580645161 712.970819304153 600.325513196481 712.970819304153 600.325513196481 C 712.970819304153 600.325513196481 702.132275132275 591.322580645161 702.132275132275 591.322580645161 C 702.132275132275 591.322580645161 690 591.322580645161 690 591.322580645161 C 688.343145750508 591.322580645161 687 589.979434894654 687 588.322580645161 Z" transform="matrix(1 0 0 1 -687 -571 )"/></g></svg>