<?xml version="1.0" encoding="utf-8"?>
<svg version="1.1" xmlns:xlink="http://www.w3.org/1999/xlink" width="14px" height="14px" xmlns="http://www.w3.org/2000/svg">
  <g transform="matrix(1 0 0 1 -349 -769 )">
    <path d="M 356 770  C 359.36 770  362 772.64  362 776  C 362 779.36  359.36 782  356 782  C 352.64 782  350 779.36  350 776  C 350 772.64  352.64 770  356 770  Z " fill-rule="nonzero" fill="#ffffff" stroke="none" />
    <path d="M 356 770  C 359.36 770  362 772.64  362 776  C 362 779.36  359.36 782  356 782  C 352.64 782  350 779.36  350 776  C 350 772.64  352.64 770  356 770  Z " stroke-width="2" stroke="#e2e2e2" fill="none" />
  </g>
</svg>