<svg xmlns="http://www.w3.org/2000/svg" xmlns:xlink="http://www.w3.org/1999/xlink" width="50" height="32" version="1.1"><g><path fill="#000" fill-opacity=".8" fill-rule="nonzero" stroke="none" d="M 9 28.8384581105169 C 9 28.8384581105169 9 10 9 10 C 9 8.89543050033841 9.89543050033841 8 11 8 C 11 8 55 8 55 8 C 56.1045694996616 8 57 8.89543050033841 57 10 C 57 10 57 28.8384581105169 57 28.8384581105169 C 57 29.9430276101785 56.1045694996616 30.8384581105169 55 30.8384581105169 C 55 30.8384581105169 41.5282510181187 30.8384581105169 41.5282510181187 30.8384581105169 C 41.5282510181187 30.8384581105169 33.6515848027797 37.1985480429966 33.6515848027797 37.1985480429966 C 33.6515848027797 37.1985480429966 26.2522922974611 30.8384581105169 26.2522922974611 30.8384581105169 C 26.2522922974611 30.8384581105169 11 30.8384581105169 11 30.8384581105169 C 9.89543050033841 30.8384581105169 9 29.9430276101785 9 28.8384581105169 Z" transform="matrix(1 0 0 1 -8 -7 )"/></g></svg>