<svg xmlns="http://www.w3.org/2000/svg" xmlns:xlink="http://www.w3.org/1999/xlink" width="42" height="40" version="1.1"><g><path fill="#000" fill-opacity=".8" fill-rule="nonzero" stroke="none" d="M 570 28.2254901960784 C 570 28.2254901960784 570 3 570 3 C 570 1.89543050033841 570.895430500338 1 572 1 C 572 1 608 1 608 1 C 609.104569499662 1 610 1.89543050033841 610 3 C 610 3 610 28.2254901960784 610 28.2254901960784 C 610 29.33005969574 609.104569499662 30.2254901960784 608 30.2254901960784 C 608 30.2254901960784 599.73399988346 30.2254901960784 599.73399988346 30.2254901960784 C 599.73399988346 30.2254901960784 590.110526315789 38.6696165128087 590.110526315789 38.6696165128087 C 590.110526315789 38.6696165128087 580.487052748119 30.2254901960784 580.487052748119 30.2254901960784 C 580.487052748119 30.2254901960784 572 30.2254901960784 572 30.2254901960784 C 570.895430500338 30.2254901960784 570 29.33005969574 570 28.2254901960784 Z" transform="matrix(1 0 0 1 -569 0 )"/></g></svg>