<svg xmlns="http://www.w3.org/2000/svg" xmlns:xlink="http://www.w3.org/1999/xlink" width="60" height="35" version="1.1"><g><path fill="#000" fill-opacity=".8" fill-rule="nonzero" stroke="none" d="M 1 24.1670635583779 C 1 24.1670635583779 1 3 1 3 C 1 1.89543050033841 1.89543050033841 1 3 1 C 3 1 57 1 57 1 C 58.1045694996616 1 59 1.89543050033841 59 3 C 59 3 59 24.1670635583779 59 24.1670635583779 C 59 25.2716330580395 58.1045694996616 26.1670635583779 57 26.1670635583779 C 57 26.1670635583779 39.7128169485195 26.1670635583779 39.7128169485195 26.1670635583779 C 39.7128169485195 26.1670635583779 30.7788799091221 33.1663339008115 30.7788799091221 33.1663339008115 C 30.7788799091221 33.1663339008115 22.4213259045246 26.1670635583779 22.4213259045246 26.1670635583779 C 22.4213259045246 26.1670635583779 3 26.1670635583779 3 26.1670635583779 C 1.89543050033841 26.1670635583779 1 25.2716330580395 1 24.1670635583779 Z"/></g></svg>