<svg xmlns="http://www.w3.org/2000/svg" xmlns:xlink="http://www.w3.org/1999/xlink" width="50" height="32" version="1.1"><g><path fill="#000" fill-opacity=".8" fill-rule="nonzero" stroke="none" d="M 9 26.7172413793103 C 9 26.7172413793103 9 8 9 8 C 9 6.89543050033841 9.89543050033841 6 11 6 C 11 6 55 6 55 6 C 56.1045694996616 6 57 6.89543050033841 57 8 C 57 8 57 26.7172413793103 57 26.7172413793103 C 57 27.8218108789719 56.1045694996616 28.7172413793103 55 28.7172413793103 C 55 28.7172413793103 40.6520055669155 28.7172413793103 40.6520055669155 28.7172413793103 C 40.6520055669155 28.7172413793103 32.5403111923599 35.1407819144555 32.5403111923599 35.1407819144555 C 32.5403111923599 35.1407819144555 25.382933803046 28.7172413793103 25.382933803046 28.7172413793103 C 25.382933803046 28.7172413793103 11 28.7172413793103 11 28.7172413793103 C 9.89543050033841 28.7172413793103 9 27.8218108789719 9 26.7172413793103 Z" transform="matrix(1 0 0 1 -8 -5 )"/></g></svg>