<svg xmlns="http://www.w3.org/2000/svg" xmlns:xlink="http://www.w3.org/1999/xlink" width="65" height="39" version="1.1"><g><path fill="#000" fill-opacity=".8" fill-rule="nonzero" stroke="none" d="M 0.5 27.2718708221925 C 0.5 27.2718708221925 0.5 3 0.5 3 C 0.5 1.61928812542302 1.61928812542302 0.5 3 0.5 C 3 0.5 62 0.5 62 0.5 C 63.380711874577 0.5 64.5 1.61928812542302 64.5 3 C 64.5 3 64.5 27.2718708221925 64.5 27.2718708221925 C 64.5 28.6525826967695 63.380711874577 29.7718708221925 62 29.7718708221925 C 62 29.7718708221925 43.2196659557957 29.7718708221925 43.2196659557957 29.7718708221925 C 43.2196659557957 29.7718708221925 33.3317230953743 37.7398884309238 33.3317230953743 37.7398884309238 C 33.3317230953743 37.7398884309238 24.0817120323994 29.7718708221925 24.0817120323994 29.7718708221925 C 24.0817120323994 29.7718708221925 3 29.7718708221925 3 29.7718708221925 C 1.61928812542302 29.7718708221925 0.5 28.6525826967695 0.5 27.2718708221925 Z"/><path fill="#333" fill-rule="nonzero" stroke="none" d="M 0 27.2718708221925 C 0 27.2718708221925 0 3 0 3 C 0 1.34314575050762 1.34314575050762 0 3 0 C 3 0 62 0 62 0 C 63.6568542494924 0 65 1.34314575050762 65 3 C 65 3 65 27.2718708221925 65 27.2718708221925 C 65 28.9287250716849 63.6568542494924 30.2718708221925 62 30.2718708221925 C 62 30.2718708221925 43.396052631579 30.2718708221925 43.396052631579 30.2718708221925 C 43.396052631579 30.2718708221925 33.321052631579 38.390625 33.321052631579 38.390625 C 33.321052631579 38.390625 23.896052631579 30.2718708221925 23.896052631579 30.2718708221925 C 23.896052631579 30.2718708221925 3 30.2718708221925 3 30.2718708221925 C 1.34314575050762 30.2718708221925 0 28.9287250716849 0 27.2718708221925 Z M 1 27.2718708221925 C 1 28.3764403218541 1.89543050033841 29.2718708221925 3 29.2718708221925 C 3 29.2718708221925 24.2673714332201 29.2718708221925 24.2673714332201 29.2718708221925 C 24.2673714332201 29.2718708221925 33.3423935591697 37.0891518618475 33.3423935591697 37.0891518618475 C 33.3423935591697 37.0891518618475 43.0432792800123 29.2718708221925 43.0432792800123 29.2718708221925 C 43.0432792800123 29.2718708221925 62 29.2718708221925 62 29.2718708221925 C 63.1045694996616 29.2718708221925 64 28.3764403218541 64 27.2718708221925 C 64 27.2718708221925 64 3 64 3 C 64 1.89543050033841 63.1045694996616 1 62 1 C 62 1 3 1 3 1 C 1.89543050033841 1 1 1.89543050033841 1 3 C 1 3 1 27.2718708221925 1 27.2718708221925 Z"/></g></svg>