<svg xmlns="http://www.w3.org/2000/svg" xmlns:xlink="http://www.w3.org/1999/xlink" width="65" height="39" version="1.1"><g><path fill="#000" fill-opacity=".8" fill-rule="nonzero" stroke="none" d="M 0.5 27.3532894736842 C 0.5 27.3532894736842 0.5 3 0.5 3 C 0.5 1.61928812542302 1.61928812542302 0.5 3 0.5 C 3 0.5 62 0.5 62 0.5 C 63.380711874577 0.5 64.5 1.61928812542302 64.5 3 C 64.5 3 64.5 27.3532894736842 64.5 27.3532894736842 C 64.5 28.7340013482612 63.380711874577 29.8532894736842 62 29.8532894736842 C 62 29.8532894736842 43.2858084153737 29.8532894736842 43.2858084153737 29.8532894736842 C 43.2858084153737 29.8532894736842 33.2292524956326 38.3497660958237 33.2292524956326 38.3497660958237 C 33.2292524956326 38.3497660958237 22.8451548054774 29.8532894736842 22.8451548054774 29.8532894736842 C 22.8451548054774 29.8532894736842 3 29.8532894736842 3 29.8532894736842 C 1.61928812542302 29.8532894736842 0.5 28.7340013482612 0.5 27.3532894736842 Z"/><path fill="#333" fill-rule="nonzero" stroke="none" d="M 0 27.3532894736842 C 0 27.3532894736842 0 3 0 3 C 0 1.34314575050762 1.34314575050762 0 3 0 C 3 0 62 0 62 0 C 63.6568542494924 0 65 1.34314575050762 65 3 C 65 3 65 27.3532894736842 65 27.3532894736842 C 65 29.0101437231766 63.6568542494924 30.3532894736842 62 30.3532894736842 C 62 30.3532894736842 43.46875 30.3532894736842 43.46875 30.3532894736842 C 43.46875 30.3532894736842 33.234375 39 33.234375 39 C 33.234375 39 22.6666666666667 30.3532894736842 22.6666666666667 30.3532894736842 C 22.6666666666667 30.3532894736842 3 30.3532894736842 3 30.3532894736842 C 1.34314575050762 30.3532894736842 0 29.0101437231766 0 27.3532894736842 Z M 1 27.3532894736842 C 1 28.4578589733458 1.89543050033841 29.3532894736842 3 29.3532894736842 C 3 29.3532894736842 23.0236429442882 29.3532894736842 23.0236429442882 29.3532894736842 C 23.0236429442882 29.3532894736842 33.2241299912651 37.6995321916475 33.2241299912651 37.6995321916475 C 33.2241299912651 37.6995321916475 43.1028668307474 29.3532894736842 43.1028668307474 29.3532894736842 C 43.1028668307474 29.3532894736842 62 29.3532894736842 62 29.3532894736842 C 63.1045694996616 29.3532894736842 64 28.4578589733458 64 27.3532894736842 C 64 27.3532894736842 64 3 64 3 C 64 1.89543050033841 63.1045694996616 1 62 1 C 62 1 3 1 3 1 C 1.89543050033841 1 1 1.89543050033841 1 3 C 1 3 1 27.3532894736842 1 27.3532894736842 Z"/></g></svg>