<svg xmlns="http://www.w3.org/2000/svg" xmlns:xlink="http://www.w3.org/1999/xlink" width="12" height="12" version="1.1"><g><path fill="#fff" fill-rule="nonzero" stroke="none" d="M 21 49 C 23.24 49 25 50.76 25 53 C 25 55.24 23.24 57 21 57 C 18.76 57 17 55.24 17 53 C 17 50.76 18.76 49 21 49 Z" transform="matrix(1 0 0 1 -15 -47 )"/><path fill="none" stroke="#e6e6e6" stroke-width="3" d="M 21 48.5 C 23.52 48.5 25.5 50.48 25.5 53 C 25.5 55.52 23.52 57.5 21 57.5 C 18.48 57.5 16.5 55.52 16.5 53 C 16.5 50.48 18.48 48.5 21 48.5 Z" transform="matrix(1 0 0 1 -15 -47 )"/></g></svg>