<svg xmlns="http://www.w3.org/2000/svg" xmlns:xlink="http://www.w3.org/1999/xlink" width="16" height="16" version="1.1"><g><path fill="#1980ff" fill-rule="nonzero" stroke="none" d="M 8 13.5 C 10.52 13.5 12.5 15.48 12.5 18 C 12.5 20.52 10.52 22.5 8 22.5 C 5.48 22.5 3.5 20.52 3.5 18 C 3.5 15.48 5.48 13.5 8 13.5 Z" transform="matrix(1 0 0 1 0 -10 )"/><path fill="none" stroke="#1980ff" stroke-opacity=".498" stroke-width="4" d="M 8 12 C 11.36 12 14 14.64 14 18 C 14 21.36 11.36 24 8 24 C 4.64 24 2 21.36 2 18 C 2 14.64 4.64 12 8 12 Z" transform="matrix(1 0 0 1 0 -10 )"/></g></svg>