<?xml version="1.0" encoding="utf-8"?>
<svg version="1.1" xmlns:xlink="http://www.w3.org/1999/xlink" width="215px" height="40px" xmlns="http://www.w3.org/2000/svg">
  <g transform="matrix(1 0 0 1 -1005 -817 )">
    <path d="M 1006.5 822  A 3.5 3.5 0 0 1 1010 818.5 L 1215 818.5  A 3.5 3.5 0 0 1 1218.5 822 L 1218.5 852  A 3.5 3.5 0 0 1 1215 855.5 L 1010 855.5  A 3.5 3.5 0 0 1 1006.5 852 L 1006.5 822  Z " fill-rule="nonzero" fill="#1980ff" stroke="none" />
    <path d="M 1006 822  A 4 4 0 0 1 1010 818 L 1215 818  A 4 4 0 0 1 1219 822 L 1219 852  A 4 4 0 0 1 1215 856 L 1010 856  A 4 4 0 0 1 1006 852 L 1006 822  Z " stroke-width="2" stroke="#1980ff" fill="none" />
  </g>
</svg>