<svg xmlns="http://www.w3.org/2000/svg" xmlns:xlink="http://www.w3.org/1999/xlink" width="215" height="40" version="1.1"><g><path fill="#d4d9dc" fill-rule="nonzero" stroke="none" d="M 1005.5 822 A 4.5 4.5 0 0 1 1010 817.5 L 1215 817.5 A 4.5 4.5 0 0 1 1219.5 822 L 1219.5 852 A 4.5 4.5 0 0 1 1215 856.5 L 1010 856.5 A 4.5 4.5 0 0 1 1005.5 852 L 1005.5 822 Z" transform="matrix(1 0 0 1 -1005 -817 )"/><path fill="none" stroke="#ef553b" stroke-width="1" d="M 1005.5 822 A 4.5 4.5 0 0 1 1010 817.5 L 1215 817.5 A 4.5 4.5 0 0 1 1219.5 822 L 1219.5 852 A 4.5 4.5 0 0 1 1215 856.5 L 1010 856.5 A 4.5 4.5 0 0 1 1005.5 852 L 1005.5 822 Z" transform="matrix(1 0 0 1 -1005 -817 )"/></g></svg>