<?xml version="1.0" encoding="utf-8"?>
<svg version="1.1" xmlns:xlink="http://www.w3.org/1999/xlink" width="215px" height="40px" xmlns="http://www.w3.org/2000/svg">
  <g transform="matrix(1 0 0 1 -1005 -817 )">
    <path d="M 1005.5 822  A 4.5 4.5 0 0 1 1010 817.5 L 1215 817.5  A 4.5 4.5 0 0 1 1219.5 822 L 1219.5 852  A 4.5 4.5 0 0 1 1215 856.5 L 1010 856.5  A 4.5 4.5 0 0 1 1005.5 852 L 1005.5 822  Z " fill-rule="nonzero" fill="#d4d9dc" stroke="none" />
    <path d="M 1005.5 822  A 4.5 4.5 0 0 1 1010 817.5 L 1215 817.5  A 4.5 4.5 0 0 1 1219.5 822 L 1219.5 852  A 4.5 4.5 0 0 1 1215 856.5 L 1010 856.5  A 4.5 4.5 0 0 1 1005.5 852 L 1005.5 822  Z " stroke-width="1" stroke="#ef553b" fill="none" />
  </g>
</svg>