<?xml version="1.0" encoding="utf-8"?>
<svg version="1.1" xmlns:xlink="http://www.w3.org/1999/xlink" width="1252px" height="1323px" xmlns="http://www.w3.org/2000/svg">
  <defs>
    <mask fill="white" id="clip1262">
      <path d="M 1248.99760191847 1322.173125  L 2.00159872102318 1322.173125  C 0.600479616306956 1322.173125  -0.500399680255795 1320.354  0.500399680255795 1318.03875  L 0.500399680255795 0  L 1251.49960031974 0  L 1251.49960031974 1318.03875  C 1251.49960031974 1320.354  1250.39872102318 1322.173125  1248.99760191847 1322.173125  Z " fill-rule="evenodd" />
    </mask>
  </defs>
  <g transform="matrix(1 0 0 1 -24 -497 )">
    <path d="M 1248.99760191847 1322.173125  L 2.00159872102318 1322.173125  C 0.600479616306956 1322.173125  -0.500399680255795 1320.354  0.500399680255795 1318.03875  L 0.500399680255795 0  L 1251.49960031974 0  L 1251.49960031974 1318.03875  C 1251.49960031974 1320.354  1250.39872102318 1322.173125  1248.99760191847 1322.173125  Z " fill-rule="nonzero" fill="#ffffff" stroke="none" transform="matrix(1 0 0 1 24 497 )" />
    <path d="M 1248.99760191847 1322.173125  L 2.00159872102318 1322.173125  C 0.600479616306956 1322.173125  -0.500399680255795 1320.354  0.500399680255795 1318.03875  L 0.500399680255795 0  L 1251.49960031974 0  L 1251.49960031974 1318.03875  C 1251.49960031974 1320.354  1250.39872102318 1322.173125  1248.99760191847 1322.173125  Z " stroke-width="2" stroke="#e4e4e4" fill="none" transform="matrix(1 0 0 1 24 497 )" mask="url(#clip1262)" />
  </g>
</svg>