<svg xmlns="http://www.w3.org/2000/svg" xmlns:xlink="http://www.w3.org/1999/xlink" width="1252" height="1323" version="1.1"><defs><mask id="clip2822" fill="#fff"><path fill-rule="evenodd" d="M 1248.99760191847 1322.173125 L 2.00159872102318 1322.173125 C 0.600479616306956 1322.173125 -0.500399680255795 1320.354 0.500399680255795 1318.03875 L 0.500399680255795 0 L 1251.49960031974 0 L 1251.49960031974 1318.03875 C 1251.49960031974 1320.354 1250.39872102318 1322.173125 1248.99760191847 1322.173125 Z"/></mask></defs><g><path fill="#fff" fill-rule="nonzero" stroke="none" d="M 1248.99760191847 1322.173125 L 2.00159872102318 1322.173125 C 0.600479616306956 1322.173125 -0.500399680255795 1320.354 0.500399680255795 1318.03875 L 0.500399680255795 0 L 1251.49960031974 0 L 1251.49960031974 1318.03875 C 1251.49960031974 1320.354 1250.39872102318 1322.173125 1248.99760191847 1322.173125 Z" transform="matrix(1 0 0 1 -24 -497 ) matrix(1 0 0 1 24 497 )"/><path fill="none" stroke="#e4e4e4" stroke-width="2" d="M 1248.99760191847 1322.173125 L 2.00159872102318 1322.173125 C 0.600479616306956 1322.173125 -0.500399680255795 1320.354 0.500399680255795 1318.03875 L 0.500399680255795 0 L 1251.49960031974 0 L 1251.49960031974 1318.03875 C 1251.49960031974 1320.354 1250.39872102318 1322.173125 1248.99760191847 1322.173125 Z" mask="url(#clip2822)" transform="matrix(1 0 0 1 -24 -497 ) matrix(1 0 0 1 24 497 )"/></g></svg>