<svg xmlns="http://www.w3.org/2000/svg" xmlns:xlink="http://www.w3.org/1999/xlink" width="24" height="24" version="1.1"><g><path fill="#ccc" fill-rule="nonzero" stroke="none" d="M 13.859375 19.859375 C 13.953125 19.765625 14 19.6458333333334 14 19.5 L 14 16.5 C 14 16.3541666666667 13.953125 16.234375 13.859375 16.140625 C 13.765625 16.046875 13.6458333333334 16 13.5 16 L 10.5 16 C 10.3541666666666 16 10.234375 16.046875 10.140625 16.140625 C 10.046875 16.234375 10 16.3541666666667 10 16.5 L 10 19.5 C 10 19.6458333333334 10.046875 19.765625 10.140625 19.859375 C 10.234375 19.953125 10.3541666666666 20 10.5 20 L 13.5 20 C 13.6458333333334 20 13.765625 19.953125 13.859375 19.859375 Z M 17.8046875 10.265625 C 17.9348958333334 9.88020833333335 18 9.45833333333335 18 9 C 18 8.08333333333335 17.7109375 7.234375 17.1328125 6.453125 C 16.5546875 5.671875 15.8333333333334 5.06770833333335 14.96875 4.640625 C 14.1041666666666 4.21354166666665 13.21875 4 12.3125 4 C 9.78125 4 7.84895833333337 5.109375 6.515625 7.328125 C 6.359375 7.578125 6.40104166666663 7.796875 6.640625 7.984375 L 8.703125 9.546875 C 8.77604166666663 9.609375 8.875 9.640625 9 9.640625 C 9.16666666666663 9.640625 9.296875 9.578125 9.390625 9.453125 C 9.94270833333337 8.74479166666665 10.390625 8.265625 10.734375 8.015625 C 11.0885416666666 7.765625 11.5364583333334 7.640625 12.078125 7.640625 C 12.578125 7.640625 13.0234375 7.77604166666665 13.4140625 8.046875 C 13.8046875 8.31770833333335 14 8.625 14 8.96875 C 14 9.36458333333335 13.8958333333334 9.68229166666665 13.6875 9.921875 C 13.4791666666666 10.1614583333333 13.125 10.3958333333333 12.625 10.625 C 11.96875 10.9166666666667 11.3671875 11.3671875 10.8203125 11.9765625 C 10.2734375 12.5859375 10 13.2395833333333 10 13.9375 L 10 14.5 C 10 14.6458333333333 10.046875 14.765625 10.140625 14.859375 C 10.234375 14.953125 10.3541666666666 15 10.5 15 L 13.5 15 C 13.6458333333334 15 13.765625 14.953125 13.859375 14.859375 C 13.953125 14.765625 14 14.6458333333333 14 14.5 C 14 14.3020833333333 14.1119791666666 14.0442708333333 14.3359375 13.7265625 C 14.5598958333334 13.4088541666667 14.84375 13.1510416666667 15.1875 12.953125 C 15.5208333333334 12.765625 15.7760416666666 12.6171875 15.953125 12.5078125 C 16.1302083333334 12.3984375 16.3697916666666 12.2161458333333 16.671875 11.9609375 C 16.9739583333334 11.7057291666667 17.2057291666666 11.4557291666667 17.3671875 11.2109375 C 17.5286458333334 10.9661458333333 17.6744791666666 10.6510416666667 17.8046875 10.265625 Z M 22.390625 5.9765625 C 23.4635416666666 7.81510416666665 24 9.82291666666665 24 12 C 24 14.1770833333333 23.4635416666666 16.1848958333334 22.390625 18.0234375 C 21.3177083333334 19.8619791666667 19.8619791666666 21.3177083333334 18.0234375 22.390625 C 16.1848958333334 23.4635416666667 14.1770833333334 24 12 24 C 9.82291666666663 24 7.81510416666663 23.4635416666667 5.9765625 22.390625 C 4.13802083333337 21.3177083333334 2.68229166666663 19.8619791666667 1.609375 18.0234375 C 0.536458333333371 16.1848958333334 0 14.1770833333333 0 12 C 0 9.82291666666665 0.536458333333371 7.81510416666665 1.609375 5.9765625 C 2.68229166666663 4.13802083333335 4.13802083333337 2.68229166666665 5.9765625 1.609375 C 7.81510416666663 0.53645833333335 9.82291666666663 0 12 0 C 14.1770833333334 0 16.1848958333334 0.53645833333335 18.0234375 1.609375 C 19.8619791666666 2.68229166666665 21.3177083333334 4.13802083333335 22.390625 5.9765625 Z" transform="matrix(1 0 0 1 -782 -934 ) matrix(1 0 0 1 782 934 )"/></g></svg>