<?xml version="1.0" encoding="utf-8"?>
<svg version="1.1" xmlns:xlink="http://www.w3.org/1999/xlink" width="94px" height="38px" xmlns="http://www.w3.org/2000/svg">
  <g transform="matrix(1 0 0 1 -1010 -628 )">
    <path d="M 1010.5 630  A 1.5 1.5 0 0 1 1012 628.5 L 1102 628.5  A 1.5 1.5 0 0 1 1103.5 630 L 1103.5 664  A 1.5 1.5 0 0 1 1102 665.5 L 1012 665.5  A 1.5 1.5 0 0 1 1010.5 664 L 1010.5 630  Z " fill-rule="nonzero" fill="#1980ff" stroke="none" />
    <path d="M 1010.5 630  A 1.5 1.5 0 0 1 1012 628.5 L 1102 628.5  A 1.5 1.5 0 0 1 1103.5 630 L 1103.5 664  A 1.5 1.5 0 0 1 1102 665.5 L 1012 665.5  A 1.5 1.5 0 0 1 1010.5 664 L 1010.5 630  Z " stroke-width="1" stroke="#1980ff" fill="none" />
  </g>
</svg>