<?xml version="1.0" encoding="utf-8"?>
<svg version="1.1" xmlns:xlink="http://www.w3.org/1999/xlink" width="126px" height="38px" xmlns="http://www.w3.org/2000/svg">
  <g transform="matrix(1 0 0 1 -1094 -718 )">
    <path d="M 1094.5 720  A 1.5 1.5 0 0 1 1096 718.5 L 1218 718.5  A 1.5 1.5 0 0 1 1219.5 720 L 1219.5 754  A 1.5 1.5 0 0 1 1218 755.5 L 1096 755.5  A 1.5 1.5 0 0 1 1094.5 754 L 1094.5 720  Z " fill-rule="nonzero" fill="#1980ff" stroke="none" />
    <path d="M 1094.5 720  A 1.5 1.5 0 0 1 1096 718.5 L 1218 718.5  A 1.5 1.5 0 0 1 1219.5 720 L 1219.5 754  A 1.5 1.5 0 0 1 1218 755.5 L 1096 755.5  A 1.5 1.5 0 0 1 1094.5 754 L 1094.5 720  Z " stroke-width="1" stroke="#1980ff" fill="none" />
  </g>
</svg>