<svg xmlns="http://www.w3.org/2000/svg" xmlns:xlink="http://www.w3.org/1999/xlink" width="94" height="38" version="1.1"><g><path fill="#1980ff" fill-rule="nonzero" stroke="none" d="M 1010.5 630 A 1.5 1.5 0 0 1 1012 628.5 L 1102 628.5 A 1.5 1.5 0 0 1 1103.5 630 L 1103.5 664 A 1.5 1.5 0 0 1 1102 665.5 L 1012 665.5 A 1.5 1.5 0 0 1 1010.5 664 L 1010.5 630 Z" transform="matrix(1 0 0 1 -1010 -628 )"/><path fill="none" stroke="#1980ff" stroke-width="1" d="M 1010.5 630 A 1.5 1.5 0 0 1 1012 628.5 L 1102 628.5 A 1.5 1.5 0 0 1 1103.5 630 L 1103.5 664 A 1.5 1.5 0 0 1 1102 665.5 L 1012 665.5 A 1.5 1.5 0 0 1 1010.5 664 L 1010.5 630 Z" transform="matrix(1 0 0 1 -1010 -628 )"/></g></svg>