<?xml version="1.0" encoding="utf-8"?>
<svg version="1.1" xmlns:xlink="http://www.w3.org/1999/xlink" width="11px" height="9px" xmlns="http://www.w3.org/2000/svg">
  <g transform="matrix(1 0 0 1 -3 -4 )">
    <path d="M 10.8012903225806 1.24242424242424  C 10.9337634408602 1.38383838383838  11 1.55555555555555  11 1.75757575757576  C 11 1.95959595959595  10.9337634408602 2.13131313131314  10.8012903225806 2.27272727272727  L 5.66322580645161 7.75757575757576  L 4.69806451612903 8.78787878787879  C 4.56559139784946 8.92929292929293  4.4047311827957 9  4.21548387096774 9  C 4.02623655913978 9  3.86537634408602 8.92929292929293  3.73290322580645 8.78787878787879  L 2.76774193548387 7.75757575757576  L 0.198709677419356 5.01515151515151  C 0.0662365591397851 4.87373737373737  0 4.7020202020202  0 4.5  C 0 4.2979797979798  0.0662365591397851 4.12626262626263  0.198709677419356 3.98484848484849  L 1.16387096774194 2.95454545454546  C 1.29634408602151 2.81313131313132  1.45720430107527 2.74242424242424  1.64645161290323 2.74242424242425  C 1.83569892473119 2.74242424242424  1.99655913978495 2.81313131313132  2.12903225806452 2.95454545454546  L 4.21548387096774 5.18939393939394  L 8.87096774193548 0.212121212121209  C 9.00344086021505 0.0707070707070692  9.16430107526882 0  9.35354838709677 0  C 9.54279569892473 0  9.70365591397849 0.0707070707070692  9.83612903225806 0.212121212121209  L 10.8012903225806 1.24242424242424  Z " fill-rule="nonzero" fill="#cccccc" stroke="none" transform="matrix(1 0 0 1 3 4 )" />
  </g>
</svg>