<?xml version="1.0" encoding="utf-8"?>
<svg version="1.1" xmlns:xlink="http://www.w3.org/1999/xlink" width="156px" height="470px" xmlns="http://www.w3.org/2000/svg">
  <defs>
    <mask fill="white" id="clip2017">
      <path d="M 0.170000000000016 469.5  C 0.170000000000016 469.5  0.170000000000016 0.5  0.170000000000016 0.5  C 0.170000000000016 0.5  155.47 0.5  155.47 0.5  C 155.47 0.5  155.47 469.5  155.47 469.5  C 155.47 469.5  0.170000000000016 469.5  0.170000000000016 469.5  Z " fill-rule="evenodd" />
    </mask>
  </defs>
  <g transform="matrix(1 0 0 1 -510 -11629 )">
    <path d="M 0.170000000000016 469.5  C 0.170000000000016 469.5  0.170000000000016 0.5  0.170000000000016 0.5  C 0.170000000000016 0.5  155.47 0.5  155.47 0.5  C 155.47 0.5  155.47 469.5  155.47 469.5  C 155.47 469.5  0.170000000000016 469.5  0.170000000000016 469.5  Z " fill-rule="nonzero" fill="#fef4e8" stroke="none" transform="matrix(1 0 0 1 510 11629 )" />
    <path d="M 0.170000000000016 469.5  C 0.170000000000016 469.5  0.170000000000016 0.5  0.170000000000016 0.5  C 0.170000000000016 0.5  155.47 0.5  155.47 0.5  C 155.47 0.5  155.47 469.5  155.47 469.5  C 155.47 469.5  0.170000000000016 469.5  0.170000000000016 469.5  Z " stroke-width="2" stroke="#d2d2d2" fill="none" transform="matrix(1 0 0 1 510 11629 )" mask="url(#clip2017)" />
  </g>
</svg>