<svg xmlns="http://www.w3.org/2000/svg" xmlns:xlink="http://www.w3.org/1999/xlink" width="4" height="5" version="1.1"><defs><mask id="clip1851" fill="#fff"><path fill-rule="evenodd" d="M 1.72000000000003 4.48999999999998 C 1.22000000000003 4.48999999999998 0.720000000000027 3.88999999999999 0.720000000000027 3.19 C 0.720000000000027 2.48999999999998 1.22000000000003 0.889999999999986 1.72000000000003 0.889999999999986 C 2.32000000000005 0.889999999999986 3.82000000000005 2.48999999999998 3.82000000000005 3.19 C 3.82000000000005 3.88999999999999 2.32000000000005 4.48999999999998 1.72000000000003 4.48999999999998 Z"/></mask></defs><g><path fill="#3e3938" fill-rule="nonzero" stroke="none" d="M 1.72000000000003 4.48999999999998 C 1.22000000000003 4.48999999999998 0.720000000000027 3.88999999999999 0.720000000000027 3.19 C 0.720000000000027 2.48999999999998 1.22000000000003 0.889999999999986 1.72000000000003 0.889999999999986 C 2.32000000000005 0.889999999999986 3.82000000000005 2.48999999999998 3.82000000000005 3.19 C 3.82000000000005 3.88999999999999 2.32000000000005 4.48999999999998 1.72000000000003 4.48999999999998 Z" transform="matrix(1 0 0 1 -341 -6896 ) matrix(1 0 0 1 341 6896 )"/><path fill="none" stroke="#3e3938" stroke-width="2" d="M 1.72000000000003 4.48999999999998 C 1.22000000000003 4.48999999999998 0.720000000000027 3.88999999999999 0.720000000000027 3.19 C 0.720000000000027 2.48999999999998 1.22000000000003 0.889999999999986 1.72000000000003 0.889999999999986 C 2.32000000000005 0.889999999999986 3.82000000000005 2.48999999999998 3.82000000000005 3.19 C 3.82000000000005 3.88999999999999 2.32000000000005 4.48999999999998 1.72000000000003 4.48999999999998 Z" mask="url(#clip1851)" transform="matrix(1 0 0 1 -341 -6896 ) matrix(1 0 0 1 341 6896 )"/></g></svg>