<?xml version="1.0" encoding="utf-8"?>
<svg version="1.1" xmlns:xlink="http://www.w3.org/1999/xlink" width="666px" height="258px" xmlns="http://www.w3.org/2000/svg">
  <defs>
    <mask fill="white" id="clip1153">
      <path d="M 12.07 257.34  C 12.07 257.34  654.07 257.34  654.07 257.34  C 660.27 257.34  665.37 252.24  665.37 246.04  C 665.37 246.04  665.37 11.84  665.37 11.84  C 665.37 5.64  660.27 0.540000000000006  654.07 0.540000000000006  C 654.07 0.540000000000006  12.07 0.540000000000006  12.07 0.540000000000006  C 5.87 0.540000000000006  0.769999999999996 5.64  0.769999999999996 11.84  C 0.769999999999996 11.84  0.769999999999996 246.04  0.769999999999996 246.04  C 0.769999999999996 252.24  5.87 257.34  12.07 257.34  Z " fill-rule="evenodd" />
    </mask>
  </defs>
  <g transform="matrix(1 0 0 1 -119 -17066 )">
    <path d="M 12.07 257.34  C 12.07 257.34  654.07 257.34  654.07 257.34  C 660.27 257.34  665.37 252.24  665.37 246.04  C 665.37 246.04  665.37 11.84  665.37 11.84  C 665.37 5.64  660.27 0.540000000000006  654.07 0.540000000000006  C 654.07 0.540000000000006  12.07 0.540000000000006  12.07 0.540000000000006  C 5.87 0.540000000000006  0.769999999999996 5.64  0.769999999999996 11.84  C 0.769999999999996 11.84  0.769999999999996 246.04  0.769999999999996 246.04  C 0.769999999999996 252.24  5.87 257.34  12.07 257.34  Z " fill-rule="nonzero" fill="#ffffff" stroke="none" fill-opacity="0" transform="matrix(1 0 0 1 119 17066 )" />
    <path d="M 12.07 257.34  C 12.07 257.34  654.07 257.34  654.07 257.34  C 660.27 257.34  665.37 252.24  665.37 246.04  C 665.37 246.04  665.37 11.84  665.37 11.84  C 665.37 5.64  660.27 0.540000000000006  654.07 0.540000000000006  C 654.07 0.540000000000006  12.07 0.540000000000006  12.07 0.540000000000006  C 5.87 0.540000000000006  0.769999999999996 5.64  0.769999999999996 11.84  C 0.769999999999996 11.84  0.769999999999996 246.04  0.769999999999996 246.04  C 0.769999999999996 252.24  5.87 257.34  12.07 257.34  Z " stroke-width="2" stroke="#cad4cc" fill="none" transform="matrix(1 0 0 1 119 17066 )" mask="url(#clip1153)" />
  </g>
</svg>