<?xml version="1.0" encoding="utf-8"?>
<svg version="1.1" xmlns:xlink="http://www.w3.org/1999/xlink" width="40px" height="31px" xmlns="http://www.w3.org/2000/svg">
  <defs>
    <mask fill="white" id="clip466">
      <path d="M 37.82 18.74  C 37.82 18.74  39.42 6.44  39.42 6.44  C 39.42 6.44  6.32000000000002 3.54000000000002  6.32000000000002 3.54000000000002  C 6.12 2.94  5.82000000000002 2.24000000000001  5.12 1.74000000000001  C 4.22000000000003 1.04000000000002  2.72000000000003 0.740000000000009  0.420000000000016 0.740000000000009  C 0.420000000000016 0.740000000000009  0.420000000000016 2.13999999999999  0.420000000000016 2.13999999999999  C 2.22000000000003 2.13999999999999  3.52000000000001 2.34000000000003  4.12 2.84000000000003  C 4.52000000000001 3.13999999999999  4.72000000000003 3.54000000000002  4.82000000000002 4.24000000000001  C 4.82000000000002 4.24000000000001  9.02000000000001 25.94  9.02000000000001 25.94  C 9.22000000000003 27.24  9.72000000000003 28.14  10.32 28.84  C 11.02 29.64  11.92 30.04  13.12 30.04  C 13.12 30.04  37.82 30.04  37.82 30.04  C 37.82 30.04  37.82 28.64  37.82 28.64  C 37.82 28.64  13.12 28.64  13.12 28.64  C 12.62 28.64  11.22 28.64  10.52 25.64  C 10.52 25.64  10.02 23.04  10.02 23.04  C 10.02 23.04  37.82 18.74  37.82 18.74  Z M 37.62 7.74000000000001  C 37.62 7.74000000000001  36.52 17.54  36.52 17.54  C 36.52 17.54  9.72000000000003 21.64  9.72000000000003 21.64  C 9.72000000000003 21.64  6.62 5.04000000000002  6.62 5.04000000000002  C 6.62 5.04000000000002  37.62 7.74000000000001  37.62 7.74000000000001  Z " fill-rule="evenodd" />
    </mask>
  </defs>
  <g transform="matrix(1 0 0 1 -241 -7220 )">
    <path d="M 37.82 18.74  C 37.82 18.74  39.42 6.44  39.42 6.44  C 39.42 6.44  6.32000000000002 3.54000000000002  6.32000000000002 3.54000000000002  C 6.12 2.94  5.82000000000002 2.24000000000001  5.12 1.74000000000001  C 4.22000000000003 1.04000000000002  2.72000000000003 0.740000000000009  0.420000000000016 0.740000000000009  C 0.420000000000016 0.740000000000009  0.420000000000016 2.13999999999999  0.420000000000016 2.13999999999999  C 2.22000000000003 2.13999999999999  3.52000000000001 2.34000000000003  4.12 2.84000000000003  C 4.52000000000001 3.13999999999999  4.72000000000003 3.54000000000002  4.82000000000002 4.24000000000001  C 4.82000000000002 4.24000000000001  9.02000000000001 25.94  9.02000000000001 25.94  C 9.22000000000003 27.24  9.72000000000003 28.14  10.32 28.84  C 11.02 29.64  11.92 30.04  13.12 30.04  C 13.12 30.04  37.82 30.04  37.82 30.04  C 37.82 30.04  37.82 28.64  37.82 28.64  C 37.82 28.64  13.12 28.64  13.12 28.64  C 12.62 28.64  11.22 28.64  10.52 25.64  C 10.52 25.64  10.02 23.04  10.02 23.04  C 10.02 23.04  37.82 18.74  37.82 18.74  Z M 37.62 7.74000000000001  C 37.62 7.74000000000001  36.52 17.54  36.52 17.54  C 36.52 17.54  9.72000000000003 21.64  9.72000000000003 21.64  C 9.72000000000003 21.64  6.62 5.04000000000002  6.62 5.04000000000002  C 6.62 5.04000000000002  37.62 7.74000000000001  37.62 7.74000000000001  Z " fill-rule="nonzero" fill="#ffffff" stroke="none" transform="matrix(1 0 0 1 241 7220 )" />
    <path d="M 37.82 18.74  C 37.82 18.74  39.42 6.44  39.42 6.44  C 39.42 6.44  6.32000000000002 3.54000000000002  6.32000000000002 3.54000000000002  C 6.12 2.94  5.82000000000002 2.24000000000001  5.12 1.74000000000001  C 4.22000000000003 1.04000000000002  2.72000000000003 0.740000000000009  0.420000000000016 0.740000000000009  C 0.420000000000016 0.740000000000009  0.420000000000016 2.13999999999999  0.420000000000016 2.13999999999999  C 2.22000000000003 2.13999999999999  3.52000000000001 2.34000000000003  4.12 2.84000000000003  C 4.52000000000001 3.13999999999999  4.72000000000003 3.54000000000002  4.82000000000002 4.24000000000001  C 4.82000000000002 4.24000000000001  9.02000000000001 25.94  9.02000000000001 25.94  C 9.22000000000003 27.24  9.72000000000003 28.14  10.32 28.84  C 11.02 29.64  11.92 30.04  13.12 30.04  C 13.12 30.04  37.82 30.04  37.82 30.04  C 37.82 30.04  37.82 28.64  37.82 28.64  C 37.82 28.64  13.12 28.64  13.12 28.64  C 12.62 28.64  11.22 28.64  10.52 25.64  C 10.52 25.64  10.02 23.04  10.02 23.04  C 10.02 23.04  37.82 18.74  37.82 18.74  Z " stroke-width="2" stroke="#ffffff" fill="none" transform="matrix(1 0 0 1 241 7220 )" mask="url(#clip466)" />
    <path d="M 37.62 7.74000000000001  C 37.62 7.74000000000001  36.52 17.54  36.52 17.54  C 36.52 17.54  9.72000000000003 21.64  9.72000000000003 21.64  C 9.72000000000003 21.64  6.62 5.04000000000002  6.62 5.04000000000002  C 6.62 5.04000000000002  37.62 7.74000000000001  37.62 7.74000000000001  Z " stroke-width="2" stroke="#ffffff" fill="none" transform="matrix(1 0 0 1 241 7220 )" mask="url(#clip466)" />
  </g>
</svg>