<svg xmlns="http://www.w3.org/2000/svg" xmlns:xlink="http://www.w3.org/1999/xlink" width="437" height="34" version="1.1"><defs><mask id="clip1684" fill="#fff"><path fill-rule="evenodd" d="M 0.759999999999991 33.73 C 0.759999999999991 33.73 0.759999999999991 0.430000000000007 0.759999999999991 0.430000000000007 C 0.759999999999991 0.430000000000007 436.46 0.430000000000007 436.46 0.430000000000007 C 436.46 0.430000000000007 436.46 33.73 436.46 33.73 C 436.46 33.73 0.759999999999991 33.73 0.759999999999991 33.73 Z"/></mask></defs><g><path fill="#fafafa" fill-rule="nonzero" stroke="none" d="M 0.759999999999991 33.73 C 0.759999999999991 33.73 0.759999999999991 0.430000000000007 0.759999999999991 0.430000000000007 C 0.759999999999991 0.430000000000007 436.46 0.430000000000007 436.46 0.430000000000007 C 436.46 0.430000000000007 436.46 33.73 436.46 33.73 C 436.46 33.73 0.759999999999991 33.73 0.759999999999991 33.73 Z" transform="matrix(1 0 0 1 -219 -1610 ) matrix(1 0 0 1 219 1610 )"/><path fill="none" stroke="silver" stroke-width="2" d="M 0.759999999999991 33.73 C 0.759999999999991 33.73 0.759999999999991 0.430000000000007 0.759999999999991 0.430000000000007 C 0.759999999999991 0.430000000000007 436.46 0.430000000000007 436.46 0.430000000000007 C 436.46 0.430000000000007 436.46 33.73 436.46 33.73 C 436.46 33.73 0.759999999999991 33.73 0.759999999999991 33.73 Z" mask="url(#clip1684)" transform="matrix(1 0 0 1 -219 -1610 ) matrix(1 0 0 1 219 1610 )"/></g></svg>