<svg xmlns="http://www.w3.org/2000/svg" xmlns:xlink="http://www.w3.org/1999/xlink" width="322" height="24" version="1.1"><defs><mask id="clip2277" fill="#fff"><path fill-rule="evenodd" d="M 0.780000000000001 23.38 C 0.780000000000001 23.38 0.780000000000001 0.379999999999995 0.780000000000001 0.379999999999995 C 0.780000000000001 0.379999999999995 321.28 0.379999999999995 321.28 0.379999999999995 C 321.28 0.379999999999995 321.28 23.38 321.28 23.38 C 321.28 23.38 0.780000000000001 23.38 0.780000000000001 23.38 Z"/></mask></defs><g><path fill="#fafafa" fill-rule="nonzero" stroke="none" d="M 0.780000000000001 23.38 C 0.780000000000001 23.38 0.780000000000001 0.379999999999995 0.780000000000001 0.379999999999995 C 0.780000000000001 0.379999999999995 321.28 0.379999999999995 321.28 0.379999999999995 C 321.28 0.379999999999995 321.28 23.38 321.28 23.38 C 321.28 23.38 0.780000000000001 23.38 0.780000000000001 23.38 Z" transform="matrix(1 0 0 1 -158 -14558 ) matrix(1 0 0 1 158 14558 )"/><path fill="none" stroke="silver" stroke-width="2" d="M 0.780000000000001 23.38 C 0.780000000000001 23.38 0.780000000000001 0.379999999999995 0.780000000000001 0.379999999999995 C 0.780000000000001 0.379999999999995 321.28 0.379999999999995 321.28 0.379999999999995 C 321.28 0.379999999999995 321.28 23.38 321.28 23.38 C 321.28 23.38 0.780000000000001 23.38 0.780000000000001 23.38 Z" mask="url(#clip2277)" transform="matrix(1 0 0 1 -158 -14558 ) matrix(1 0 0 1 158 14558 )"/></g></svg>