<svg xmlns="http://www.w3.org/2000/svg" xmlns:xlink="http://www.w3.org/1999/xlink" width="56" height="60" version="1.1"><defs><mask id="clip2099" fill="#fff"><path fill-rule="evenodd" d="M 36.21 59.7099999999999 C 36.21 59.7099999999999 20.31 59.7099999999999 20.31 59.7099999999999 C 9.50999999999999 59.7099999999999 0.709999999999994 50.91 0.709999999999994 40.11 C 0.709999999999994 40.11 0.709999999999994 20.61 0.709999999999994 20.61 C 0.709999999999994 9.70999999999992 9.50999999999999 0.909999999999968 20.31 0.909999999999968 C 20.31 0.909999999999968 36.21 0.909999999999968 36.21 0.909999999999968 C 47.11 0.909999999999968 55.91 9.70999999999992 55.91 20.61 C 55.91 20.61 55.91 40.11 55.91 40.11 C 55.91 50.91 47.11 59.7099999999999 36.21 59.7099999999999 Z"/></mask></defs><g><path fill="#9e9f9f" fill-opacity=".078" fill-rule="nonzero" stroke="none" d="M 36.21 59.7099999999999 C 36.21 59.7099999999999 20.31 59.7099999999999 20.31 59.7099999999999 C 9.50999999999999 59.7099999999999 0.709999999999994 50.91 0.709999999999994 40.11 C 0.709999999999994 40.11 0.709999999999994 20.61 0.709999999999994 20.61 C 0.709999999999994 9.70999999999992 9.50999999999999 0.909999999999968 20.31 0.909999999999968 C 20.31 0.909999999999968 36.21 0.909999999999968 36.21 0.909999999999968 C 47.11 0.909999999999968 55.91 9.70999999999992 55.91 20.61 C 55.91 20.61 55.91 40.11 55.91 40.11 C 55.91 50.91 47.11 59.7099999999999 36.21 59.7099999999999 Z" transform="matrix(1 0 0 1 -162 -13176 ) matrix(1 0 0 1 162 13176 )"/><path fill="none" stroke="#9e9f9f" stroke-opacity=".059" stroke-width="2" d="M 36.21 59.7099999999999 C 36.21 59.7099999999999 20.31 59.7099999999999 20.31 59.7099999999999 C 9.50999999999999 59.7099999999999 0.709999999999994 50.91 0.709999999999994 40.11 C 0.709999999999994 40.11 0.709999999999994 20.61 0.709999999999994 20.61 C 0.709999999999994 9.70999999999992 9.50999999999999 0.909999999999968 20.31 0.909999999999968 C 20.31 0.909999999999968 36.21 0.909999999999968 36.21 0.909999999999968 C 47.11 0.909999999999968 55.91 9.70999999999992 55.91 20.61 C 55.91 20.61 55.91 40.11 55.91 40.11 C 55.91 50.91 47.11 59.7099999999999 36.21 59.7099999999999 Z" mask="url(#clip2099)" transform="matrix(1 0 0 1 -162 -13176 ) matrix(1 0 0 1 162 13176 )"/></g></svg>