<?xml version="1.0" encoding="utf-8"?>
<svg version="1.1" xmlns:xlink="http://www.w3.org/1999/xlink" width="1124px" height="199px" xmlns="http://www.w3.org/2000/svg">
  <defs>
    <mask fill="white" id="clip1937">
      <path d="M 0.875 198.805  C 0.875 198.805  0.875 0.154999999999973  0.875 0.154999999999973  C 0.875 0.154999999999973  1123.625 0.154999999999973  1123.625 0.154999999999973  C 1123.625 0.154999999999973  1123.625 198.805  1123.625 198.805  C 1123.625 198.805  0.875 198.805  0.875 198.805  Z " fill-rule="evenodd" />
    </mask>
  </defs>
  <g transform="matrix(1 0 0 1 -89 -8347 )">
    <path d="M 0.875 198.805  C 0.875 198.805  0.875 0.154999999999973  0.875 0.154999999999973  C 0.875 0.154999999999973  1123.625 0.154999999999973  1123.625 0.154999999999973  C 1123.625 0.154999999999973  1123.625 198.805  1123.625 198.805  C 1123.625 198.805  0.875 198.805  0.875 198.805  Z " fill-rule="nonzero" fill="#8bc0d3" stroke="none" transform="matrix(1 0 0 1 89 8347 )" />
    <path d="M 0.875 198.805  C 0.875 198.805  0.875 0.154999999999973  0.875 0.154999999999973  C 0.875 0.154999999999973  1123.625 0.154999999999973  1123.625 0.154999999999973  C 1123.625 0.154999999999973  1123.625 198.805  1123.625 198.805  C 1123.625 198.805  0.875 198.805  0.875 198.805  Z " stroke-width="0.5" stroke="#8bc0d3" fill="none" transform="matrix(1 0 0 1 89 8347 )" mask="url(#clip1937)" />
  </g>
</svg>