<?xml version="1.0" encoding="utf-8"?>
<svg version="1.1" xmlns:xlink="http://www.w3.org/1999/xlink" width="5px" height="4px" xmlns="http://www.w3.org/2000/svg">
  <defs>
    <mask fill="white" id="clip301">
      <path d="M 1.45999999999998 3.71999999999997  C 1.45999999999998 3.71999999999997  0.759999999999991 0.519999999999982  0.759999999999991 0.519999999999982  C 0.759999999999991 0.519999999999982  4.56 0.519999999999982  4.56 0.519999999999982  C 4.56 0.519999999999982  3.95999999999998 3.71999999999997  3.95999999999998 3.71999999999997  C 3.95999999999998 3.71999999999997  1.45999999999998 3.71999999999997  1.45999999999998 3.71999999999997  Z " fill-rule="evenodd" />
    </mask>
  </defs>
  <g transform="matrix(1 0 0 1 -370 -7111 )">
    <path d="M 1.45999999999998 3.71999999999997  C 1.45999999999998 3.71999999999997  0.759999999999991 0.519999999999982  0.759999999999991 0.519999999999982  C 0.759999999999991 0.519999999999982  4.56 0.519999999999982  4.56 0.519999999999982  C 4.56 0.519999999999982  3.95999999999998 3.71999999999997  3.95999999999998 3.71999999999997  C 3.95999999999998 3.71999999999997  1.45999999999998 3.71999999999997  1.45999999999998 3.71999999999997  Z " fill-rule="nonzero" fill="#ffffff" stroke="none" transform="matrix(1 0 0 1 370 7111 )" />
    <path d="M 1.45999999999998 3.71999999999997  C 1.45999999999998 3.71999999999997  0.759999999999991 0.519999999999982  0.759999999999991 0.519999999999982  C 0.759999999999991 0.519999999999982  4.56 0.519999999999982  4.56 0.519999999999982  C 4.56 0.519999999999982  3.95999999999998 3.71999999999997  3.95999999999998 3.71999999999997  C 3.95999999999998 3.71999999999997  1.45999999999998 3.71999999999997  1.45999999999998 3.71999999999997  Z " stroke-width="2" stroke="#ffffff" fill="none" transform="matrix(1 0 0 1 370 7111 )" mask="url(#clip301)" />
  </g>
</svg>