<svg xmlns="http://www.w3.org/2000/svg" xmlns:xlink="http://www.w3.org/1999/xlink" width="178" height="178" version="1.1"><g><path fill="#eee" fill-rule="nonzero" stroke="none" d="M 88.9 172.17 L 88.9 177.17 C 40.1 177.17 0.600000000000023 137.67 0.600000000000023 88.87 C 0.600000000000023 40.07 40.1 0.569999999999993 88.9 0.569999999999993 C 137.7 0.569999999999993 177.2 40.07 177.2 88.87 C 177.2 137.67 137.7 177.17 88.9 177.17 L 88.9 172.17 C 134.9 172.17 172.2 134.87 172.2 88.87 C 172.2 42.87 134.9 5.56999999999999 88.9 5.56999999999999 C 42.9 5.56999999999999 5.60000000000002 42.87 5.60000000000002 88.87 C 5.60000000000002 134.87 42.9 172.17 88.9 172.17 Z" transform="matrix(1 0 0 1 -960 -7138 ) matrix(1 0 0 1 960 7138 )"/></g></svg>