<?xml version="1.0" encoding="utf-8"?>
<svg version="1.1" xmlns:xlink="http://www.w3.org/1999/xlink" width="76px" height="76px" xmlns="http://www.w3.org/2000/svg">
  <defs>
    <mask fill="white" id="clip224">
      <path d="M 38.4699999999999 75.68  C 17.87 75.68  0.169999999999959 58.98  0.169999999999959 38.38  C 0.169999999999959 17.78  17.87 0.0799999999999983  38.4699999999999 0.0799999999999983  C 59.0699999999999 0.0799999999999983  75.77 17.78  75.77 38.38  C 75.77 58.98  59.0699999999999 75.68  38.4699999999999 75.68  Z " fill-rule="evenodd" />
    </mask>
  </defs>
  <g transform="matrix(1 0 0 1 -838 -4950 )">
    <path d="M 38.4699999999999 75.68  C 17.87 75.68  0.169999999999959 58.98  0.169999999999959 38.38  C 0.169999999999959 17.78  17.87 0.0799999999999983  38.4699999999999 0.0799999999999983  C 59.0699999999999 0.0799999999999983  75.77 17.78  75.77 38.38  C 75.77 58.98  59.0699999999999 75.68  38.4699999999999 75.68  Z " fill-rule="nonzero" fill="#8bc0d3" stroke="none" transform="matrix(1 0 0 1 838 4950 )" />
    <path d="M 38.4699999999999 75.68  C 17.87 75.68  0.169999999999959 58.98  0.169999999999959 38.38  C 0.169999999999959 17.78  17.87 0.0799999999999983  38.4699999999999 0.0799999999999983  C 59.0699999999999 0.0799999999999983  75.77 17.78  75.77 38.38  C 75.77 58.98  59.0699999999999 75.68  38.4699999999999 75.68  Z " stroke-width="2" stroke="#8bc0d3" fill="none" transform="matrix(1 0 0 1 838 4950 )" mask="url(#clip224)" />
  </g>
</svg>