<svg xmlns="http://www.w3.org/2000/svg" xmlns:xlink="http://www.w3.org/1999/xlink" width="320" height="32" version="1.1"><defs><mask id="clip1798" fill="#fff"><path fill-rule="evenodd" d="M 0.899999999999977 31.41 C 0.899999999999977 31.41 0.899999999999977 0.00999999999999091 0.899999999999977 0.00999999999999091 C 0.899999999999977 0.00999999999999091 319.8 0.00999999999999091 319.8 0.00999999999999091 C 319.8 0.00999999999999091 319.8 31.41 319.8 31.41 C 319.8 31.41 0.899999999999977 31.41 0.899999999999977 31.41 Z"/></mask></defs><g><path fill="#a0d8ef" fill-rule="nonzero" stroke="none" d="M 0.899999999999977 31.41 C 0.899999999999977 31.41 0.899999999999977 0.00999999999999091 0.899999999999977 0.00999999999999091 C 0.899999999999977 0.00999999999999091 319.8 0.00999999999999091 319.8 0.00999999999999091 C 319.8 0.00999999999999091 319.8 31.41 319.8 31.41 C 319.8 31.41 0.899999999999977 31.41 0.899999999999977 31.41 Z" transform="matrix(1 0 0 1 -516 -6238 ) matrix(1 0 0 1 516 6238 )"/><path fill="none" stroke="#a0d8ef" stroke-width="2" d="M 0.899999999999977 31.41 C 0.899999999999977 31.41 0.899999999999977 0.00999999999999091 0.899999999999977 0.00999999999999091 C 0.899999999999977 0.00999999999999091 319.8 0.00999999999999091 319.8 0.00999999999999091 C 319.8 0.00999999999999091 319.8 31.41 319.8 31.41 C 319.8 31.41 0.899999999999977 31.41 0.899999999999977 31.41 Z" mask="url(#clip1798)" transform="matrix(1 0 0 1 -516 -6238 ) matrix(1 0 0 1 516 6238 )"/></g></svg>