<svg xmlns="http://www.w3.org/2000/svg" xmlns:xlink="http://www.w3.org/1999/xlink" width="1124" height="295" version="1.1"><defs><mask id="clip2008" fill="#fff"><path fill-rule="evenodd" d="M 0.5 294.21 C 0.5 294.21 0.5 0.20999999999998 0.5 0.20999999999998 C 0.5 0.20999999999998 513.7 134.01 513.7 134.01 C 513.7 134.01 610.8 134.01 610.8 134.01 C 610.8 134.01 1124 0.20999999999998 1124 0.20999999999998 C 1124 0.20999999999998 1124 294.21 1124 294.21 C 1124 294.21 0.5 294.21 0.5 294.21 Z"/></mask></defs><g><path fill="#d0e3ea" fill-rule="nonzero" stroke="none" d="M 0.5 294.21 C 0.5 294.21 0.5 0.20999999999998 0.5 0.20999999999998 C 0.5 0.20999999999998 513.7 134.01 513.7 134.01 C 513.7 134.01 610.8 134.01 610.8 134.01 C 610.8 134.01 1124 0.20999999999998 1124 0.20999999999998 C 1124 0.20999999999998 1124 294.21 1124 294.21 C 1124 294.21 0.5 294.21 0.5 294.21 Z" transform="matrix(1 0 0 1 -88 -10082 ) matrix(1 0 0 1 88 10082 )"/><path fill="none" stroke="#d0e3ea" stroke-width="2" d="M 0.5 294.21 C 0.5 294.21 0.5 0.20999999999998 0.5 0.20999999999998 C 0.5 0.20999999999998 513.7 134.01 513.7 134.01 C 513.7 134.01 610.8 134.01 610.8 134.01 C 610.8 134.01 1124 0.20999999999998 1124 0.20999999999998 C 1124 0.20999999999998 1124 294.21 1124 294.21 C 1124 294.21 0.5 294.21 0.5 294.21 Z" mask="url(#clip2008)" transform="matrix(1 0 0 1 -88 -10082 ) matrix(1 0 0 1 88 10082 )"/></g></svg>