<svg xmlns="http://www.w3.org/2000/svg" xmlns:xlink="http://www.w3.org/1999/xlink" width="7" height="34" version="1.1"><defs><mask id="clip1926" fill="#fff"><path fill-rule="evenodd" d="M 0.909999999999968 32.34 C 0.909999999999968 32.34 0.909999999999968 0.139999999999986 0.909999999999968 0.139999999999986 C 0.909999999999968 0.139999999999986 6.30999999999995 0.139999999999986 6.30999999999995 0.139999999999986 C 6.30999999999995 0.139999999999986 6.30999999999995 32.34 6.30999999999995 32.34 C 6.30999999999995 32.34 6.30999999999995 33.44 4.11000000000001 33.44 C 1.90999999999997 33.44 0.909999999999968 32.34 0.909999999999968 32.34 Z"/></mask></defs><g><path fill="#00ae9d" fill-rule="nonzero" stroke="none" d="M 0.909999999999968 32.34 C 0.909999999999968 32.34 0.909999999999968 0.139999999999986 0.909999999999968 0.139999999999986 C 0.909999999999968 0.139999999999986 6.30999999999995 0.139999999999986 6.30999999999995 0.139999999999986 C 6.30999999999995 0.139999999999986 6.30999999999995 32.34 6.30999999999995 32.34 C 6.30999999999995 32.34 6.30999999999995 33.44 4.11000000000001 33.44 C 1.90999999999997 33.44 0.909999999999968 32.34 0.909999999999968 32.34 Z" transform="matrix(1 0 0 1 -921 -7006 ) matrix(1 0 0 1 921 7006 )"/><path fill="none" stroke="#00ae9d" stroke-width="2" d="M 0.909999999999968 32.34 C 0.909999999999968 32.34 0.909999999999968 0.139999999999986 0.909999999999968 0.139999999999986 C 0.909999999999968 0.139999999999986 6.30999999999995 0.139999999999986 6.30999999999995 0.139999999999986 C 6.30999999999995 0.139999999999986 6.30999999999995 32.34 6.30999999999995 32.34 C 6.30999999999995 32.34 6.30999999999995 33.44 4.11000000000001 33.44 C 1.90999999999997 33.44 0.909999999999968 32.34 0.909999999999968 32.34 Z" mask="url(#clip1926)" transform="matrix(1 0 0 1 -921 -7006 ) matrix(1 0 0 1 921 7006 )"/></g></svg>