<?xml version="1.0" encoding="utf-8"?>
<svg version="1.1" xmlns:xlink="http://www.w3.org/1999/xlink" width="320px" height="32px" xmlns="http://www.w3.org/2000/svg">
  <defs>
    <mask fill="white" id="clip435">
      <path d="M 0.899999999999977 31.41  C 0.899999999999977 31.41  0.899999999999977 0.00999999999999091  0.899999999999977 0.00999999999999091  C 0.899999999999977 0.00999999999999091  319.8 0.00999999999999091  319.8 0.00999999999999091  C 319.8 0.00999999999999091  319.8 31.41  319.8 31.41  C 319.8 31.41  0.899999999999977 31.41  0.899999999999977 31.41  Z " fill-rule="evenodd" />
    </mask>
  </defs>
  <g transform="matrix(1 0 0 1 -516 -6238 )">
    <path d="M 0.899999999999977 31.41  C 0.899999999999977 31.41  0.899999999999977 0.00999999999999091  0.899999999999977 0.00999999999999091  C 0.899999999999977 0.00999999999999091  319.8 0.00999999999999091  319.8 0.00999999999999091  C 319.8 0.00999999999999091  319.8 31.41  319.8 31.41  C 319.8 31.41  0.899999999999977 31.41  0.899999999999977 31.41  Z " fill-rule="nonzero" fill="#a0d8ef" stroke="none" transform="matrix(1 0 0 1 516 6238 )" />
    <path d="M 0.899999999999977 31.41  C 0.899999999999977 31.41  0.899999999999977 0.00999999999999091  0.899999999999977 0.00999999999999091  C 0.899999999999977 0.00999999999999091  319.8 0.00999999999999091  319.8 0.00999999999999091  C 319.8 0.00999999999999091  319.8 31.41  319.8 31.41  C 319.8 31.41  0.899999999999977 31.41  0.899999999999977 31.41  Z " stroke-width="2" stroke="#a0d8ef" fill="none" transform="matrix(1 0 0 1 516 6238 )" mask="url(#clip435)" />
  </g>
</svg>