<svg xmlns="http://www.w3.org/2000/svg" xmlns:xlink="http://www.w3.org/1999/xlink" width="1124" height="256" version="1.1"><defs><mask id="clip1791" fill="#fff"><path fill-rule="evenodd" d="M 0.5 256 C 0.5 256 0.5 0.399999999999977 0.5 0.399999999999977 C 0.5 0.399999999999977 1124 0.399999999999977 1124 0.399999999999977 C 1124 0.399999999999977 1124 256 1124 256 C 1124 256 0.5 256 0.5 256 Z"/></mask></defs><g><path fill="#fff" fill-rule="nonzero" stroke="none" d="M 0.5 256 C 0.5 256 0.5 0.399999999999977 0.5 0.399999999999977 C 0.5 0.399999999999977 1124 0.399999999999977 1124 0.399999999999977 C 1124 0.399999999999977 1124 256 1124 256 C 1124 256 0.5 256 0.5 256 Z" transform="matrix(1 0 0 1 -89 -6426 ) matrix(1 0 0 1 89 6426 )"/><path fill="none" stroke="#fff" stroke-width="2" d="M 0.5 256 C 0.5 256 0.5 0.399999999999977 0.5 0.399999999999977 C 0.5 0.399999999999977 1124 0.399999999999977 1124 0.399999999999977 C 1124 0.399999999999977 1124 256 1124 256 C 1124 256 0.5 256 0.5 256 Z" mask="url(#clip1791)" transform="matrix(1 0 0 1 -89 -6426 ) matrix(1 0 0 1 89 6426 )"/></g></svg>