<svg xmlns="http://www.w3.org/2000/svg" xmlns:xlink="http://www.w3.org/1999/xlink" width="122" height="154" version="1.1"><defs><mask id="clip1819" fill="#fff"><path fill-rule="evenodd" d="M 19.2 25.82 C 19.2 25.82 28.7 0.219999999999999 28.7 0.219999999999999 C 83 26.12 121.4 82.42 121.4 146.52 C 121.4 148.92 121.4 151.22 121.3 153.52 C 121.3 153.52 40.3 150.12 40.3 150.12 C 40.4 148.92 40.4 147.72 40.4 146.52 C 40.4 116.82 24.4 89.82 0.399999999999977 75.72 C 0.399999999999977 75.72 10.1 49.92 10.1 49.92 C 10.1 49.92 26.1 44.62 26.1 44.62 C 26.1 44.62 19.2 25.82 19.2 25.82 Z"/></mask></defs><g><path fill="#50ad76" fill-rule="nonzero" stroke="none" d="M 19.2 25.82 C 19.2 25.82 28.7 0.219999999999999 28.7 0.219999999999999 C 83 26.12 121.4 82.42 121.4 146.52 C 121.4 148.92 121.4 151.22 121.3 153.52 C 121.3 153.52 40.3 150.12 40.3 150.12 C 40.4 148.92 40.4 147.72 40.4 146.52 C 40.4 116.82 24.4 89.82 0.399999999999977 75.72 C 0.399999999999977 75.72 10.1 49.92 10.1 49.92 C 10.1 49.92 26.1 44.62 26.1 44.62 C 26.1 44.62 19.2 25.82 19.2 25.82 Z" transform="matrix(1 0 0 1 -369 -6991 ) matrix(1 0 0 1 369 6991 )"/><path fill="none" stroke="#50ad76" stroke-width="2" d="M 19.2 25.82 C 19.2 25.82 28.7 0.219999999999999 28.7 0.219999999999999 C 83 26.12 121.4 82.42 121.4 146.52 C 121.4 148.92 121.4 151.22 121.3 153.52 C 121.3 153.52 40.3 150.12 40.3 150.12 C 40.4 148.92 40.4 147.72 40.4 146.52 C 40.4 116.82 24.4 89.82 0.399999999999977 75.72 C 0.399999999999977 75.72 10.1 49.92 10.1 49.92 C 10.1 49.92 26.1 44.62 26.1 44.62 C 26.1 44.62 19.2 25.82 19.2 25.82 Z" mask="url(#clip1819)" transform="matrix(1 0 0 1 -369 -6991 ) matrix(1 0 0 1 369 6991 )"/></g></svg>