<?xml version="1.0" encoding="utf-8"?>
<svg version="1.1" xmlns:xlink="http://www.w3.org/1999/xlink" width="314px" height="139px" xmlns="http://www.w3.org/2000/svg">
  <defs>
    <mask fill="white" id="clip445">
      <path d="M 0.710000000000036 1.73000000000002  C 0.710000000000036 0.829999999999927  1.50999999999999 0.0299999999999727  2.41000000000008 0.0299999999999727  C 2.41000000000008 0.0299999999999727  311.61 0.0299999999999727  311.61 0.0299999999999727  C 312.51 0.0299999999999727  313.31 0.829999999999927  313.31 1.73000000000002  C 313.31 1.73000000000002  313.31 136.73  313.31 136.73  C 313.31 137.73  312.51 138.43  311.61 138.43  C 311.61 138.43  2.41000000000008 138.43  2.41000000000008 138.43  C 1.50999999999999 138.43  0.710000000000036 137.73  0.710000000000036 136.73  C 0.710000000000036 136.73  0.710000000000036 1.73000000000002  0.710000000000036 1.73000000000002  Z " fill-rule="evenodd" />
    </mask>
  </defs>
  <g transform="matrix(1 0 0 1 -849 -9165 )">
    <path d="M 0.710000000000036 1.73000000000002  C 0.710000000000036 0.829999999999927  1.50999999999999 0.0299999999999727  2.41000000000008 0.0299999999999727  C 2.41000000000008 0.0299999999999727  311.61 0.0299999999999727  311.61 0.0299999999999727  C 312.51 0.0299999999999727  313.31 0.829999999999927  313.31 1.73000000000002  C 313.31 1.73000000000002  313.31 136.73  313.31 136.73  C 313.31 137.73  312.51 138.43  311.61 138.43  C 311.61 138.43  2.41000000000008 138.43  2.41000000000008 138.43  C 1.50999999999999 138.43  0.710000000000036 137.73  0.710000000000036 136.73  C 0.710000000000036 136.73  0.710000000000036 1.73000000000002  0.710000000000036 1.73000000000002  Z " fill-rule="nonzero" fill="#ffffff" stroke="none" fill-opacity="0.0980392156862745" transform="matrix(1 0 0 1 849 9165 )" />
    <path d="M 0.710000000000036 1.73000000000002  C 0.710000000000036 0.829999999999927  1.50999999999999 0.0299999999999727  2.41000000000008 0.0299999999999727  C 2.41000000000008 0.0299999999999727  311.61 0.0299999999999727  311.61 0.0299999999999727  C 312.51 0.0299999999999727  313.31 0.829999999999927  313.31 1.73000000000002  C 313.31 1.73000000000002  313.31 136.73  313.31 136.73  C 313.31 137.73  312.51 138.43  311.61 138.43  C 311.61 138.43  2.41000000000008 138.43  2.41000000000008 138.43  C 1.50999999999999 138.43  0.710000000000036 137.73  0.710000000000036 136.73  C 0.710000000000036 136.73  0.710000000000036 1.73000000000002  0.710000000000036 1.73000000000002  Z " stroke-width="2" stroke="#ffffff" fill="none" stroke-opacity="0.498039215686275" transform="matrix(1 0 0 1 849 9165 )" mask="url(#clip445)" />
  </g>
</svg>