<?xml version="1.0" encoding="utf-8"?>
<svg version="1.1" xmlns:xlink="http://www.w3.org/1999/xlink" width="3px" height="3px" xmlns="http://www.w3.org/2000/svg">
  <defs>
    <mask fill="white" id="clip363">
      <path d="M 1.97999999999996 0.490000000000009  C 2.38 0.490000000000009  2.67999999999995 1.79000000000002  2.67999999999995 2.19  C 2.67999999999995 2.59000000000003  2.38 2.88999999999999  1.97999999999996 2.88999999999999  C 1.57999999999998 2.88999999999999  0.279999999999973 2.59000000000003  0.279999999999973 2.19  C 0.279999999999973 1.79000000000002  1.57999999999998 0.490000000000009  1.97999999999996 0.490000000000009  Z " fill-rule="evenodd" />
    </mask>
  </defs>
  <g transform="matrix(1 0 0 1 -404 -7204 )">
    <path d="M 1.97999999999996 0.490000000000009  C 2.38 0.490000000000009  2.67999999999995 1.79000000000002  2.67999999999995 2.19  C 2.67999999999995 2.59000000000003  2.38 2.88999999999999  1.97999999999996 2.88999999999999  C 1.57999999999998 2.88999999999999  0.279999999999973 2.59000000000003  0.279999999999973 2.19  C 0.279999999999973 1.79000000000002  1.57999999999998 0.490000000000009  1.97999999999996 0.490000000000009  Z " fill-rule="nonzero" fill="#ffffff" stroke="none" transform="matrix(1 0 0 1 404 7204 )" />
    <path d="M 1.97999999999996 0.490000000000009  C 2.38 0.490000000000009  2.67999999999995 1.79000000000002  2.67999999999995 2.19  C 2.67999999999995 2.59000000000003  2.38 2.88999999999999  1.97999999999996 2.88999999999999  C 1.57999999999998 2.88999999999999  0.279999999999973 2.59000000000003  0.279999999999973 2.19  C 0.279999999999973 1.79000000000002  1.57999999999998 0.490000000000009  1.97999999999996 0.490000000000009  Z " stroke-width="2" stroke="#ffffff" fill="none" transform="matrix(1 0 0 1 404 7204 )" mask="url(#clip363)" />
  </g>
</svg>