<?xml version="1.0" encoding="utf-8"?>
<svg version="1.1" xmlns:xlink="http://www.w3.org/1999/xlink" width="620px" height="55px" xmlns="http://www.w3.org/2000/svg">
  <defs>
    <mask fill="white" id="clip814">
      <path d="M 27.44 28  C 27.44 28  0.439999999999998 0  0.439999999999998 0  C 0.439999999999998 0  619.84 0  619.84 0  C 619.84 0  592.84 28  592.84 28  C 592.84 28  619.84 55  619.84 55  C 619.84 55  0.439999999999998 55  0.439999999999998 55  C 0.439999999999998 55  27.44 28  27.44 28  Z " fill-rule="evenodd" />
    </mask>
  </defs>
  <g transform="matrix(1 0 0 1 -330 -14309 )">
    <path d="M 27.44 28  C 27.44 28  0.439999999999998 0  0.439999999999998 0  C 0.439999999999998 0  619.84 0  619.84 0  C 619.84 0  592.84 28  592.84 28  C 592.84 28  619.84 55  619.84 55  C 619.84 55  0.439999999999998 55  0.439999999999998 55  C 0.439999999999998 55  27.44 28  27.44 28  Z " fill-rule="nonzero" fill="#85c2d8" stroke="none" transform="matrix(1 0 0 1 330 14309 )" />
    <path d="M 27.44 28  C 27.44 28  0.439999999999998 0  0.439999999999998 0  C 0.439999999999998 0  619.84 0  619.84 0  C 619.84 0  592.84 28  592.84 28  C 592.84 28  619.84 55  619.84 55  C 619.84 55  0.439999999999998 55  0.439999999999998 55  C 0.439999999999998 55  27.44 28  27.44 28  Z " stroke-width="2" stroke="#85c2d8" fill="none" transform="matrix(1 0 0 1 330 14309 )" mask="url(#clip814)" />
  </g>
</svg>