<svg xmlns="http://www.w3.org/2000/svg" xmlns:xlink="http://www.w3.org/1999/xlink" width="322" height="24" version="1.1"><defs><mask id="clip2273" fill="#fff"><path fill-rule="evenodd" d="M 0.780000000000001 23.55 C 0.780000000000001 23.55 0.780000000000001 0.549999999999955 0.780000000000001 0.549999999999955 C 0.780000000000001 0.549999999999955 321.28 0.549999999999955 321.28 0.549999999999955 C 321.28 0.549999999999955 321.28 23.55 321.28 23.55 C 321.28 23.55 0.780000000000001 23.55 0.780000000000001 23.55 Z"/></mask></defs><g><path fill="#fafafa" fill-rule="nonzero" stroke="none" d="M 0.780000000000001 23.55 C 0.780000000000001 23.55 0.780000000000001 0.549999999999955 0.780000000000001 0.549999999999955 C 0.780000000000001 0.549999999999955 321.28 0.549999999999955 321.28 0.549999999999955 C 321.28 0.549999999999955 321.28 23.55 321.28 23.55 C 321.28 23.55 0.780000000000001 23.55 0.780000000000001 23.55 Z" transform="matrix(1 0 0 1 -158 -14637 ) matrix(1 0 0 1 158 14637 )"/><path fill="none" stroke="silver" stroke-width="2" d="M 0.780000000000001 23.55 C 0.780000000000001 23.55 0.780000000000001 0.549999999999955 0.780000000000001 0.549999999999955 C 0.780000000000001 0.549999999999955 321.28 0.549999999999955 321.28 0.549999999999955 C 321.28 0.549999999999955 321.28 23.55 321.28 23.55 C 321.28 23.55 0.780000000000001 23.55 0.780000000000001 23.55 Z" mask="url(#clip2273)" transform="matrix(1 0 0 1 -158 -14637 ) matrix(1 0 0 1 158 14637 )"/></g></svg>