<?xml version="1.0" encoding="utf-8"?>
<svg version="1.1" xmlns:xlink="http://www.w3.org/1999/xlink" width="81px" height="80px" xmlns="http://www.w3.org/2000/svg">
  <defs>
    <mask fill="white" id="clip275">
      <path d="M 40.9100000000001 80  C 19.3100000000001 80  0.710000000000036 62.5  0.710000000000036 40.8  C 0.710000000000036 19.2  19.3100000000001 0.600000000000023  40.9100000000001 0.600000000000023  C 62.61 0.600000000000023  80.11 19.2  80.11 40.8  C 80.11 62.5  62.61 80  40.9100000000001 80  Z " fill-rule="evenodd" />
    </mask>
  </defs>
  <g transform="matrix(1 0 0 1 -806 -7159 )">
    <path d="M 40.9100000000001 80  C 19.3100000000001 80  0.710000000000036 62.5  0.710000000000036 40.8  C 0.710000000000036 19.2  19.3100000000001 0.600000000000023  40.9100000000001 0.600000000000023  C 62.61 0.600000000000023  80.11 19.2  80.11 40.8  C 80.11 62.5  62.61 80  40.9100000000001 80  Z " fill-rule="nonzero" fill="#ffffff" stroke="none" fill-opacity="0" transform="matrix(1 0 0 1 806 7159 )" />
    <path d="M 40.9100000000001 80  C 19.3100000000001 80  0.710000000000036 62.5  0.710000000000036 40.8  C 0.710000000000036 19.2  19.3100000000001 0.600000000000023  40.9100000000001 0.600000000000023  C 62.61 0.600000000000023  80.11 19.2  80.11 40.8  C 80.11 62.5  62.61 80  40.9100000000001 80  Z " stroke-width="2" stroke="#34c2c2" fill="none" transform="matrix(1 0 0 1 806 7159 )" mask="url(#clip275)" />
  </g>
</svg>