<svg xmlns="http://www.w3.org/2000/svg" xmlns:xlink="http://www.w3.org/1999/xlink" width="437" height="34" version="1.1"><defs><mask id="clip1674" fill="#fff"><path fill-rule="evenodd" d="M 0.759999999999991 33.5 C 0.759999999999991 33.5 0.759999999999991 0.200000000000045 0.759999999999991 0.200000000000045 C 0.759999999999991 0.200000000000045 436.46 0.200000000000045 436.46 0.200000000000045 C 436.46 0.200000000000045 436.46 33.5 436.46 33.5 C 436.46 33.5 0.759999999999991 33.5 0.759999999999991 33.5 Z"/></mask></defs><g><path fill="#fafafa" fill-rule="nonzero" stroke="none" d="M 0.759999999999991 33.5 C 0.759999999999991 33.5 0.759999999999991 0.200000000000045 0.759999999999991 0.200000000000045 C 0.759999999999991 0.200000000000045 436.46 0.200000000000045 436.46 0.200000000000045 C 436.46 0.200000000000045 436.46 33.5 436.46 33.5 C 436.46 33.5 0.759999999999991 33.5 0.759999999999991 33.5 Z" transform="matrix(1 0 0 1 -219 -1901 ) matrix(1 0 0 1 219 1901 )"/><path fill="none" stroke="silver" stroke-width="2" d="M 0.759999999999991 33.5 C 0.759999999999991 33.5 0.759999999999991 0.200000000000045 0.759999999999991 0.200000000000045 C 0.759999999999991 0.200000000000045 436.46 0.200000000000045 436.46 0.200000000000045 C 436.46 0.200000000000045 436.46 33.5 436.46 33.5 C 436.46 33.5 0.759999999999991 33.5 0.759999999999991 33.5 Z" mask="url(#clip1674)" transform="matrix(1 0 0 1 -219 -1901 ) matrix(1 0 0 1 219 1901 )"/></g></svg>