<svg xmlns="http://www.w3.org/2000/svg" xmlns:xlink="http://www.w3.org/1999/xlink" width="188" height="30" version="1.1"><defs><linearGradient id="LinearGradient2430" x1="1.13" x2="1.13" y1=".74" y2="29.14" gradientUnits="userSpaceOnUse"><stop id="Stop2431" offset="0" stop-color="#d6d6d6"/><stop id="Stop2432" offset=".1" stop-color="#e4e4e4"/><stop id="Stop2433" offset=".4" stop-color="#e9e9e9"/><stop id="Stop2434" offset=".85" stop-color="#d6d6d6"/><stop id="Stop2435" offset="1" stop-color="#bdbdbd"/></linearGradient><mask id="clip2436" fill="#fff"><path fill-rule="evenodd" d="M 0.629999999999995 29.64 C 0.629999999999995 29.64 0.629999999999995 0.240000000000009 0.629999999999995 0.240000000000009 C 0.629999999999995 0.240000000000009 187.93 0.240000000000009 187.93 0.240000000000009 C 187.93 0.240000000000009 187.93 29.64 187.93 29.64 C 187.93 29.64 0.629999999999995 29.64 0.629999999999995 29.64 Z"/></mask></defs><g><path fill="url(#LinearGradient2430)" fill-rule="nonzero" stroke="none" d="M 0.629999999999995 29.64 C 0.629999999999995 29.64 0.629999999999995 0.240000000000009 0.629999999999995 0.240000000000009 C 0.629999999999995 0.240000000000009 187.93 0.240000000000009 187.93 0.240000000000009 C 187.93 0.240000000000009 187.93 29.64 187.93 29.64 C 187.93 29.64 0.629999999999995 29.64 0.629999999999995 29.64 Z" transform="matrix(1 0 0 1 -556 -16503 ) matrix(1 0 0 1 556 16503 )"/><path fill="none" stroke="#acacac" stroke-width="2" d="M 0.629999999999995 29.64 C 0.629999999999995 29.64 0.629999999999995 0.240000000000009 0.629999999999995 0.240000000000009 C 0.629999999999995 0.240000000000009 187.93 0.240000000000009 187.93 0.240000000000009 C 187.93 0.240000000000009 187.93 29.64 187.93 29.64 C 187.93 29.64 0.629999999999995 29.64 0.629999999999995 29.64 Z" mask="url(#clip2436)" transform="matrix(1 0 0 1 -556 -16503 ) matrix(1 0 0 1 556 16503 )"/></g></svg>