<?xml version="1.0" encoding="utf-8"?>
<svg version="1.1" xmlns:xlink="http://www.w3.org/1999/xlink" width="11px" height="15px" xmlns="http://www.w3.org/2000/svg">
  <defs>
    <mask fill="white" id="clip793">
      <path d="M 10.4599999999999 0.919999999999959  C 10.4599999999999 0.919999999999959  0.0599999999999454 0.919999999999959  0.0599999999999454 0.919999999999959  C 0.0599999999999454 0.919999999999959  5.75999999999999 14.02  5.75999999999999 14.02  C 5.75999999999999 14.02  10.4599999999999 0.919999999999959  10.4599999999999 0.919999999999959  Z " fill-rule="evenodd" />
    </mask>
  </defs>
  <g transform="matrix(1 0 0 1 -770 -14790 )">
    <path d="M 10.4599999999999 0.919999999999959  C 10.4599999999999 0.919999999999959  0.0599999999999454 0.919999999999959  0.0599999999999454 0.919999999999959  C 0.0599999999999454 0.919999999999959  5.75999999999999 14.02  5.75999999999999 14.02  C 5.75999999999999 14.02  10.4599999999999 0.919999999999959  10.4599999999999 0.919999999999959  Z " fill-rule="nonzero" fill="#cd5c5c" stroke="none" transform="matrix(1 0 0 1 770 14790 )" />
    <path d="M 10.4599999999999 0.919999999999959  C 10.4599999999999 0.919999999999959  0.0599999999999454 0.919999999999959  0.0599999999999454 0.919999999999959  C 0.0599999999999454 0.919999999999959  5.75999999999999 14.02  5.75999999999999 14.02  C 5.75999999999999 14.02  10.4599999999999 0.919999999999959  10.4599999999999 0.919999999999959  Z " stroke-width="2" stroke="#ffdead" fill="none" transform="matrix(1 0 0 1 770 14790 )" mask="url(#clip793)" />
  </g>
</svg>