<?xml version="1.0" encoding="utf-8"?>
<svg version="1.1" xmlns:xlink="http://www.w3.org/1999/xlink" width="26px" height="26px" xmlns="http://www.w3.org/2000/svg">
  <defs>
    <mask fill="white" id="clip254">
      <path d="M 0.670000000000002 2.51999999999998  C 0.670000000000002 1.41999999999996  1.47 0.620000000000005  2.57000000000001 0.620000000000005  C 2.57000000000001 0.620000000000005  23.27 0.620000000000005  23.27 0.620000000000005  C 24.27 0.620000000000005  25.17 1.41999999999996  25.17 2.51999999999998  C 25.17 2.51999999999998  25.17 23.22  25.17 23.22  C 25.17 24.22  24.27 25.12  23.27 25.12  C 23.27 25.12  2.57000000000001 25.12  2.57000000000001 25.12  C 1.47 25.12  0.670000000000002 24.22  0.670000000000002 23.22  C 0.670000000000002 23.22  0.670000000000002 2.51999999999998  0.670000000000002 2.51999999999998  Z " fill-rule="evenodd" />
    </mask>
  </defs>
  <g transform="matrix(1 0 0 1 -189 -6557 )">
    <path d="M 0.670000000000002 2.51999999999998  C 0.670000000000002 1.41999999999996  1.47 0.620000000000005  2.57000000000001 0.620000000000005  C 2.57000000000001 0.620000000000005  23.27 0.620000000000005  23.27 0.620000000000005  C 24.27 0.620000000000005  25.17 1.41999999999996  25.17 2.51999999999998  C 25.17 2.51999999999998  25.17 23.22  25.17 23.22  C 25.17 24.22  24.27 25.12  23.27 25.12  C 23.27 25.12  2.57000000000001 25.12  2.57000000000001 25.12  C 1.47 25.12  0.670000000000002 24.22  0.670000000000002 23.22  C 0.670000000000002 23.22  0.670000000000002 2.51999999999998  0.670000000000002 2.51999999999998  Z " fill-rule="nonzero" fill="#a0d8ef" stroke="none" transform="matrix(1 0 0 1 189 6557 )" />
    <path d="M 0.670000000000002 2.51999999999998  C 0.670000000000002 1.41999999999996  1.47 0.620000000000005  2.57000000000001 0.620000000000005  C 2.57000000000001 0.620000000000005  23.27 0.620000000000005  23.27 0.620000000000005  C 24.27 0.620000000000005  25.17 1.41999999999996  25.17 2.51999999999998  C 25.17 2.51999999999998  25.17 23.22  25.17 23.22  C 25.17 24.22  24.27 25.12  23.27 25.12  C 23.27 25.12  2.57000000000001 25.12  2.57000000000001 25.12  C 1.47 25.12  0.670000000000002 24.22  0.670000000000002 23.22  C 0.670000000000002 23.22  0.670000000000002 2.51999999999998  0.670000000000002 2.51999999999998  Z " stroke-width="2" stroke="#a0d8ef" fill="none" transform="matrix(1 0 0 1 189 6557 )" mask="url(#clip254)" />
  </g>
</svg>