<svg xmlns="http://www.w3.org/2000/svg" xmlns:xlink="http://www.w3.org/1999/xlink" width="4" height="5" version="1.1"><defs><mask id="clip1861" fill="#fff"><path fill-rule="evenodd" d="M 1.58000000000004 4.48999999999998 C 1.08000000000004 4.48999999999998 0.580000000000041 3.88999999999999 0.580000000000041 3.19 C 0.580000000000041 2.48999999999998 1.08000000000004 0.889999999999986 1.58000000000004 0.889999999999986 C 2.18000000000006 0.889999999999986 3.68000000000006 2.48999999999998 3.68000000000006 3.19 C 3.68000000000006 3.88999999999999 2.18000000000006 4.48999999999998 1.58000000000004 4.48999999999998 Z"/></mask></defs><g><path fill="#3e3938" fill-rule="nonzero" stroke="none" d="M 1.58000000000004 4.48999999999998 C 1.08000000000004 4.48999999999998 0.580000000000041 3.88999999999999 0.580000000000041 3.19 C 0.580000000000041 2.48999999999998 1.08000000000004 0.889999999999986 1.58000000000004 0.889999999999986 C 2.18000000000006 0.889999999999986 3.68000000000006 2.48999999999998 3.68000000000006 3.19 C 3.68000000000006 3.88999999999999 2.18000000000006 4.48999999999998 1.58000000000004 4.48999999999998 Z" transform="matrix(1 0 0 1 -397 -6896 ) matrix(1 0 0 1 397 6896 )"/><path fill="none" stroke="#3e3938" stroke-width="2" d="M 1.58000000000004 4.48999999999998 C 1.08000000000004 4.48999999999998 0.580000000000041 3.88999999999999 0.580000000000041 3.19 C 0.580000000000041 2.48999999999998 1.08000000000004 0.889999999999986 1.58000000000004 0.889999999999986 C 2.18000000000006 0.889999999999986 3.68000000000006 2.48999999999998 3.68000000000006 3.19 C 3.68000000000006 3.88999999999999 2.18000000000006 4.48999999999998 1.58000000000004 4.48999999999998 Z" mask="url(#clip1861)" transform="matrix(1 0 0 1 -397 -6896 ) matrix(1 0 0 1 397 6896 )"/></g></svg>