<svg xmlns="http://www.w3.org/2000/svg" xmlns:xlink="http://www.w3.org/1999/xlink" width="5" height="4" version="1.1"><defs><mask id="clip1849" fill="#fff"><path fill-rule="evenodd" d="M 1.45999999999998 3.71999999999997 C 1.45999999999998 3.71999999999997 0.759999999999991 0.519999999999982 0.759999999999991 0.519999999999982 C 0.759999999999991 0.519999999999982 4.56 0.519999999999982 4.56 0.519999999999982 C 4.56 0.519999999999982 3.95999999999998 3.71999999999997 3.95999999999998 3.71999999999997 C 3.95999999999998 3.71999999999997 1.45999999999998 3.71999999999997 1.45999999999998 3.71999999999997 Z"/></mask></defs><g><path fill="#fff" fill-rule="nonzero" stroke="none" d="M 1.45999999999998 3.71999999999997 C 1.45999999999998 3.71999999999997 0.759999999999991 0.519999999999982 0.759999999999991 0.519999999999982 C 0.759999999999991 0.519999999999982 4.56 0.519999999999982 4.56 0.519999999999982 C 4.56 0.519999999999982 3.95999999999998 3.71999999999997 3.95999999999998 3.71999999999997 C 3.95999999999998 3.71999999999997 1.45999999999998 3.71999999999997 1.45999999999998 3.71999999999997 Z" transform="matrix(1 0 0 1 -370 -7111 ) matrix(1 0 0 1 370 7111 )"/><path fill="none" stroke="#fff" stroke-width="2" d="M 1.45999999999998 3.71999999999997 C 1.45999999999998 3.71999999999997 0.759999999999991 0.519999999999982 0.759999999999991 0.519999999999982 C 0.759999999999991 0.519999999999982 4.56 0.519999999999982 4.56 0.519999999999982 C 4.56 0.519999999999982 3.95999999999998 3.71999999999997 3.95999999999998 3.71999999999997 C 3.95999999999998 3.71999999999997 1.45999999999998 3.71999999999997 1.45999999999998 3.71999999999997 Z" mask="url(#clip1849)" transform="matrix(1 0 0 1 -370 -7111 ) matrix(1 0 0 1 370 7111 )"/></g></svg>