<svg xmlns="http://www.w3.org/2000/svg" xmlns:xlink="http://www.w3.org/1999/xlink" width="56" height="60" version="1.1"><defs><mask id="clip2080" fill="#fff"><path fill-rule="evenodd" d="M 36.15 0.379999999999995 C 36.15 0.379999999999995 20.35 0.379999999999995 20.35 0.379999999999995 C 9.45 0.379999999999995 0.650000000000006 9.78 0.650000000000006 21.48 C 0.650000000000006 21.48 0.650000000000006 38.18 0.650000000000006 38.18 C 0.650000000000006 49.78 9.45 59.18 20.35 59.18 C 20.35 59.18 36.15 59.18 36.15 59.18 C 47.05 59.18 55.85 49.78 55.85 38.18 C 55.85 38.18 55.85 21.48 55.85 21.48 C 55.85 9.78 47.05 0.379999999999995 36.15 0.379999999999995 Z"/></mask></defs><g><path fill="#cdcece" fill-opacity=".078" fill-rule="nonzero" stroke="none" d="M 36.15 0.379999999999995 C 36.15 0.379999999999995 20.35 0.379999999999995 20.35 0.379999999999995 C 9.45 0.379999999999995 0.650000000000006 9.78 0.650000000000006 21.48 C 0.650000000000006 21.48 0.650000000000006 38.18 0.650000000000006 38.18 C 0.650000000000006 49.78 9.45 59.18 20.35 59.18 C 20.35 59.18 36.15 59.18 36.15 59.18 C 47.05 59.18 55.85 49.78 55.85 38.18 C 55.85 38.18 55.85 21.48 55.85 21.48 C 55.85 9.78 47.05 0.379999999999995 36.15 0.379999999999995 Z" transform="matrix(1 0 0 1 -162 -12473 ) matrix(1 0 0 1 162 12473 )"/><path fill="none" stroke="#cdcece" stroke-opacity=".059" stroke-width="2" d="M 36.15 0.379999999999995 C 36.15 0.379999999999995 20.35 0.379999999999995 20.35 0.379999999999995 C 9.45 0.379999999999995 0.650000000000006 9.78 0.650000000000006 21.48 C 0.650000000000006 21.48 0.650000000000006 38.18 0.650000000000006 38.18 C 0.650000000000006 49.78 9.45 59.18 20.35 59.18 C 20.35 59.18 36.15 59.18 36.15 59.18 C 47.05 59.18 55.85 49.78 55.85 38.18 C 55.85 38.18 55.85 21.48 55.85 21.48 C 55.85 9.78 47.05 0.379999999999995 36.15 0.379999999999995 Z" mask="url(#clip2080)" transform="matrix(1 0 0 1 -162 -12473 ) matrix(1 0 0 1 162 12473 )"/></g></svg>