<svg xmlns="http://www.w3.org/2000/svg" xmlns:xlink="http://www.w3.org/1999/xlink" width="62" height="62" version="1.1"><defs><mask id="clip2390" fill="#fff"><path fill-rule="evenodd" d="M 0.5 61.3099999999999 C 0.5 61.3099999999999 0.5 0.309999999999945 0.5 0.309999999999945 C 0.5 0.309999999999945 61.5 0.309999999999945 61.5 0.309999999999945 C 61.5 0.309999999999945 61.5 61.3099999999999 61.5 61.3099999999999 C 61.5 61.3099999999999 0.5 61.3099999999999 0.5 61.3099999999999 Z"/></mask></defs><g><path fill="#fff" fill-opacity="0" fill-rule="nonzero" stroke="none" d="M 0.5 61.3099999999999 C 0.5 61.3099999999999 0.5 0.309999999999945 0.5 0.309999999999945 C 0.5 0.309999999999945 61.5 0.309999999999945 61.5 0.309999999999945 C 61.5 0.309999999999945 61.5 61.3099999999999 61.5 61.3099999999999 C 61.5 61.3099999999999 0.5 61.3099999999999 0.5 61.3099999999999 Z" transform="matrix(1 0 0 1 -208 -16670 ) matrix(1 0 0 1 208 16670 )"/><path fill="none" stroke="#5a5a5a" stroke-width="2" d="M 0.5 61.3099999999999 C 0.5 61.3099999999999 0.5 0.309999999999945 0.5 0.309999999999945 C 0.5 0.309999999999945 61.5 0.309999999999945 61.5 0.309999999999945 C 61.5 0.309999999999945 61.5 61.3099999999999 61.5 61.3099999999999 C 61.5 61.3099999999999 0.5 61.3099999999999 0.5 61.3099999999999 Z" mask="url(#clip2390)" transform="matrix(1 0 0 1 -208 -16670 ) matrix(1 0 0 1 208 16670 )"/></g></svg>