<svg xmlns="http://www.w3.org/2000/svg" xmlns:xlink="http://www.w3.org/1999/xlink" width="76" height="76" version="1.1"><defs><mask id="clip1754" fill="#fff"><path fill-rule="evenodd" d="M 38.59 75.68 C 17.99 75.68 0.289999999999992 58.98 0.289999999999992 38.38 C 0.289999999999992 17.78 17.99 0.0799999999999983 38.59 0.0799999999999983 C 59.19 0.0799999999999983 75.89 17.78 75.89 38.38 C 75.89 58.98 59.19 75.68 38.59 75.68 Z"/></mask></defs><g><path fill="#8bc0d3" fill-rule="nonzero" stroke="none" d="M 38.59 75.68 C 17.99 75.68 0.289999999999992 58.98 0.289999999999992 38.38 C 0.289999999999992 17.78 17.99 0.0799999999999983 38.59 0.0799999999999983 C 59.19 0.0799999999999983 75.89 17.78 75.89 38.38 C 75.89 58.98 59.19 75.68 38.59 75.68 Z" transform="matrix(1 0 0 1 -239 -4950 ) matrix(1 0 0 1 239 4950 )"/><path fill="none" stroke="#8bc0d3" stroke-width="2" d="M 38.59 75.68 C 17.99 75.68 0.289999999999992 58.98 0.289999999999992 38.38 C 0.289999999999992 17.78 17.99 0.0799999999999983 38.59 0.0799999999999983 C 59.19 0.0799999999999983 75.89 17.78 75.89 38.38 C 75.89 58.98 59.19 75.68 38.59 75.68 Z" mask="url(#clip1754)" transform="matrix(1 0 0 1 -239 -4950 ) matrix(1 0 0 1 239 4950 )"/></g></svg>