<?xml version="1.0" encoding="utf-8"?>
<svg version="1.1" xmlns:xlink="http://www.w3.org/1999/xlink" width="316px" height="34px" xmlns="http://www.w3.org/2000/svg">
  <defs>
    <mask fill="white" id="clip147">
      <path d="M 0.759999999999991 33.73  C 0.759999999999991 33.73  0.759999999999991 0.430000000000007  0.759999999999991 0.430000000000007  C 0.759999999999991 0.430000000000007  315.86 0.430000000000007  315.86 0.430000000000007  C 315.86 0.430000000000007  315.86 33.73  315.86 33.73  C 315.86 33.73  0.759999999999991 33.73  0.759999999999991 33.73  Z " fill-rule="evenodd" />
    </mask>
  </defs>
  <g transform="matrix(1 0 0 1 -219 -1610 )">
    <path d="M 0.759999999999991 33.73  C 0.759999999999991 33.73  0.759999999999991 0.430000000000007  0.759999999999991 0.430000000000007  C 0.759999999999991 0.430000000000007  315.86 0.430000000000007  315.86 0.430000000000007  C 315.86 0.430000000000007  315.86 33.73  315.86 33.73  C 315.86 33.73  0.759999999999991 33.73  0.759999999999991 33.73  Z " fill-rule="nonzero" fill="#595757" stroke="none" transform="matrix(1 0 0 1 219 1610 )" />
    <path d="M 0.759999999999991 33.73  C 0.759999999999991 33.73  0.759999999999991 0.430000000000007  0.759999999999991 0.430000000000007  C 0.759999999999991 0.430000000000007  315.86 0.430000000000007  315.86 0.430000000000007  C 315.86 0.430000000000007  315.86 33.73  315.86 33.73  C 315.86 33.73  0.759999999999991 33.73  0.759999999999991 33.73  Z " stroke-width="2" stroke="#595757" fill="none" transform="matrix(1 0 0 1 219 1610 )" mask="url(#clip147)" />
  </g>
</svg>