<?xml version="1.0" encoding="utf-8"?>
<svg version="1.1" xmlns:xlink="http://www.w3.org/1999/xlink" width="780px" height="56px" xmlns="http://www.w3.org/2000/svg">
  <defs>
    <mask fill="white" id="clip232">
      <path d="M 0.0200000000000102 4.24000000000001  C 0.0200000000000102 2.24000000000001  1.72 0.539999999999964  3.92000000000002 0.539999999999964  C 3.92000000000002 0.539999999999964  775.42 0.539999999999964  775.42 0.539999999999964  C 777.52 0.539999999999964  779.42 2.24000000000001  779.42 4.24000000000001  C 779.42 4.24000000000001  779.42 51.4399999999999  779.42 51.4399999999999  C 779.42 53.4399999999999  777.52 55.24  775.42 55.24  C 775.42 55.24  3.92000000000002 55.24  3.92000000000002 55.24  C 1.72 55.24  0.0200000000000102 53.4399999999999  0.0200000000000102 51.4399999999999  C 0.0200000000000102 51.4399999999999  0.0200000000000102 4.24000000000001  0.0200000000000102 4.24000000000001  Z " fill-rule="evenodd" />
    </mask>
  </defs>
  <g transform="matrix(1 0 0 1 -261 -2884 )">
    <path d="M 0.0200000000000102 4.24000000000001  C 0.0200000000000102 2.24000000000001  1.72 0.539999999999964  3.92000000000002 0.539999999999964  C 3.92000000000002 0.539999999999964  775.42 0.539999999999964  775.42 0.539999999999964  C 777.52 0.539999999999964  779.42 2.24000000000001  779.42 4.24000000000001  C 779.42 4.24000000000001  779.42 51.4399999999999  779.42 51.4399999999999  C 779.42 53.4399999999999  777.52 55.24  775.42 55.24  C 775.42 55.24  3.92000000000002 55.24  3.92000000000002 55.24  C 1.72 55.24  0.0200000000000102 53.4399999999999  0.0200000000000102 51.4399999999999  C 0.0200000000000102 51.4399999999999  0.0200000000000102 4.24000000000001  0.0200000000000102 4.24000000000001  Z " fill-rule="nonzero" fill="#55bfca" stroke="none" transform="matrix(1 0 0 1 261 2884 )" />
    <path d="M 0.0200000000000102 4.24000000000001  C 0.0200000000000102 2.24000000000001  1.72 0.539999999999964  3.92000000000002 0.539999999999964  C 3.92000000000002 0.539999999999964  775.42 0.539999999999964  775.42 0.539999999999964  C 777.52 0.539999999999964  779.42 2.24000000000001  779.42 4.24000000000001  C 779.42 4.24000000000001  779.42 51.4399999999999  779.42 51.4399999999999  C 779.42 53.4399999999999  777.52 55.24  775.42 55.24  C 775.42 55.24  3.92000000000002 55.24  3.92000000000002 55.24  C 1.72 55.24  0.0200000000000102 53.4399999999999  0.0200000000000102 51.4399999999999  C 0.0200000000000102 51.4399999999999  0.0200000000000102 4.24000000000001  0.0200000000000102 4.24000000000001  Z " stroke-width="2" stroke="#55bfca" fill="none" transform="matrix(1 0 0 1 261 2884 )" mask="url(#clip232)" />
  </g>
</svg>