<?xml version="1.0" encoding="utf-8"?>
<svg version="1.1" xmlns:xlink="http://www.w3.org/1999/xlink" width="25px" height="24px" xmlns="http://www.w3.org/2000/svg">
  <defs>
    <mask fill="white" id="clip1954">
      <path d="M 24.5700000000001 23.95  C 24.5700000000001 23.95  24.5700000000001 0.350000000000001  24.5700000000001 0.350000000000001  C 24.5700000000001 0.350000000000001  0.970000000000027 0.350000000000001  0.970000000000027 0.350000000000001  C 0.970000000000027 0.350000000000001  0.970000000000027 23.95  0.970000000000027 23.95  C 0.970000000000027 23.95  24.5700000000001 23.95  24.5700000000001 23.95  Z " fill-rule="evenodd" />
    </mask>
  </defs>
  <g transform="matrix(1 0 0 1 -897 -7792 )">
    <path d="M 24.5700000000001 23.95  C 24.5700000000001 23.95  24.5700000000001 0.350000000000001  24.5700000000001 0.350000000000001  C 24.5700000000001 0.350000000000001  0.970000000000027 0.350000000000001  0.970000000000027 0.350000000000001  C 0.970000000000027 0.350000000000001  0.970000000000027 23.95  0.970000000000027 23.95  C 0.970000000000027 23.95  24.5700000000001 23.95  24.5700000000001 23.95  Z " fill-rule="nonzero" fill="#ffffff" stroke="none" transform="matrix(1 0 0 1 897 7792 )" />
    <path d="M 24.5700000000001 23.95  C 24.5700000000001 23.95  24.5700000000001 0.350000000000001  24.5700000000001 0.350000000000001  C 24.5700000000001 0.350000000000001  0.970000000000027 0.350000000000001  0.970000000000027 0.350000000000001  C 0.970000000000027 0.350000000000001  0.970000000000027 23.95  0.970000000000027 23.95  C 0.970000000000027 23.95  24.5700000000001 23.95  24.5700000000001 23.95  Z " stroke-width="2" stroke="#ffffff" fill="none" transform="matrix(1 0 0 1 897 7792 )" mask="url(#clip1954)" />
  </g>
</svg>