<?xml version="1.0" encoding="utf-8"?>
<svg version="1.1" xmlns:xlink="http://www.w3.org/1999/xlink" width="268px" height="34px" xmlns="http://www.w3.org/2000/svg">
  <defs>
    <mask fill="white" id="clip193">
      <path d="M 0.759999999999991 33.57  C 0.759999999999991 33.57  0.759999999999991 0.269999999999982  0.759999999999991 0.269999999999982  C 0.759999999999991 0.269999999999982  267.56 0.269999999999982  267.56 0.269999999999982  C 267.56 0.269999999999982  267.56 33.57  267.56 33.57  C 267.56 33.57  0.759999999999991 33.57  0.759999999999991 33.57  Z " fill-rule="evenodd" />
    </mask>
  </defs>
  <g transform="matrix(1 0 0 1 -219 -1552 )">
    <path d="M 0.759999999999991 33.57  C 0.759999999999991 33.57  0.759999999999991 0.269999999999982  0.759999999999991 0.269999999999982  C 0.759999999999991 0.269999999999982  267.56 0.269999999999982  267.56 0.269999999999982  C 267.56 0.269999999999982  267.56 33.57  267.56 33.57  C 267.56 33.57  0.759999999999991 33.57  0.759999999999991 33.57  Z " fill-rule="nonzero" fill="#595757" stroke="none" transform="matrix(1 0 0 1 219 1552 )" />
    <path d="M 0.759999999999991 33.57  C 0.759999999999991 33.57  0.759999999999991 0.269999999999982  0.759999999999991 0.269999999999982  C 0.759999999999991 0.269999999999982  267.56 0.269999999999982  267.56 0.269999999999982  C 267.56 0.269999999999982  267.56 33.57  267.56 33.57  C 267.56 33.57  0.759999999999991 33.57  0.759999999999991 33.57  Z " stroke-width="2" stroke="#595757" fill="none" transform="matrix(1 0 0 1 219 1552 )" mask="url(#clip193)" />
  </g>
</svg>