<?xml version="1.0" encoding="utf-8"?>
<svg version="1.1" xmlns:xlink="http://www.w3.org/1999/xlink" width="53px" height="78px" xmlns="http://www.w3.org/2000/svg">
  <defs>
    <mask fill="white" id="clip443">
      <path d="M 13.22 10.68  C 13.22 10.68  13.22 0.67999999999995  13.22 0.67999999999995  C 34.3199999999999 0.67999999999995  52.3199999999999 18.78  52.3199999999999 39.88  C 52.3199999999999 60.9799999999999  34.3199999999999 77.9799999999999  13.22 77.9799999999999  C 8.81999999999994 77.9799999999999  4.61999999999989 77.28  0.720000000000027 75.88  C 0.720000000000027 75.88  3.92000000000007 66.4799999999999  3.92000000000007 66.4799999999999  C 6.81999999999994 67.4799999999999  9.92000000000007 67.9799999999999  13.22 67.9799999999999  C 28.72 67.9799999999999  42.3199999999999 55.38  42.3199999999999 39.88  C 42.3199999999999 24.28  28.72 10.68  13.22 10.68  Z " fill-rule="evenodd" />
    </mask>
  </defs>
  <g transform="matrix(1 0 0 1 -1118 -7400 )">
    <path d="M 13.22 10.68  C 13.22 10.68  13.22 0.67999999999995  13.22 0.67999999999995  C 34.3199999999999 0.67999999999995  52.3199999999999 18.78  52.3199999999999 39.88  C 52.3199999999999 60.9799999999999  34.3199999999999 77.9799999999999  13.22 77.9799999999999  C 8.81999999999994 77.9799999999999  4.61999999999989 77.28  0.720000000000027 75.88  C 0.720000000000027 75.88  3.92000000000007 66.4799999999999  3.92000000000007 66.4799999999999  C 6.81999999999994 67.4799999999999  9.92000000000007 67.9799999999999  13.22 67.9799999999999  C 28.72 67.9799999999999  42.3199999999999 55.38  42.3199999999999 39.88  C 42.3199999999999 24.28  28.72 10.68  13.22 10.68  Z " fill-rule="nonzero" fill="#f9ca31" stroke="none" transform="matrix(1 0 0 1 1118 7400 )" />
    <path d="M 13.22 10.68  C 13.22 10.68  13.22 0.67999999999995  13.22 0.67999999999995  C 34.3199999999999 0.67999999999995  52.3199999999999 18.78  52.3199999999999 39.88  C 52.3199999999999 60.9799999999999  34.3199999999999 77.9799999999999  13.22 77.9799999999999  C 8.81999999999994 77.9799999999999  4.61999999999989 77.28  0.720000000000027 75.88  C 0.720000000000027 75.88  3.92000000000007 66.4799999999999  3.92000000000007 66.4799999999999  C 6.81999999999994 67.4799999999999  9.92000000000007 67.9799999999999  13.22 67.9799999999999  C 28.72 67.9799999999999  42.3199999999999 55.38  42.3199999999999 39.88  C 42.3199999999999 24.28  28.72 10.68  13.22 10.68  Z " stroke-width="2" stroke="#f9ca31" fill="none" transform="matrix(1 0 0 1 1118 7400 )" mask="url(#clip443)" />
  </g>
</svg>