<?xml version="1.0" encoding="utf-8"?>
<svg version="1.1" xmlns:xlink="http://www.w3.org/1999/xlink" width="24px" height="24px" xmlns="http://www.w3.org/2000/svg">
  <defs>
    <mask fill="white" id="clip910">
      <path d="M 12.43 23.75  C 6.13 23.75  0.129999999999995 18.75  0.129999999999995 12.55  C 0.129999999999995 6.25  6.13 0.25  12.43 0.25  C 18.63 0.25  23.63 6.25  23.63 12.55  C 23.63 18.75  18.63 23.75  12.43 23.75  Z " fill-rule="evenodd" />
    </mask>
  </defs>
  <g transform="matrix(1 0 0 1 -873 -15796 )">
    <path d="M 12.43 23.75  C 6.13 23.75  0.129999999999995 18.75  0.129999999999995 12.55  C 0.129999999999995 6.25  6.13 0.25  12.43 0.25  C 18.63 0.25  23.63 6.25  23.63 12.55  C 23.63 18.75  18.63 23.75  12.43 23.75  Z " fill-rule="nonzero" fill="#8ae0ae" stroke="none" transform="matrix(1 0 0 1 873 15796 )" />
    <path d="M 12.43 23.75  C 6.13 23.75  0.129999999999995 18.75  0.129999999999995 12.55  C 0.129999999999995 6.25  6.13 0.25  12.43 0.25  C 18.63 0.25  23.63 6.25  23.63 12.55  C 23.63 18.75  18.63 23.75  12.43 23.75  Z " stroke-width="2" stroke="#8ae0ae" fill="none" transform="matrix(1 0 0 1 873 15796 )" mask="url(#clip910)" />
  </g>
</svg>