<?xml version="1.0" encoding="utf-8"?>
<svg version="1.1" xmlns:xlink="http://www.w3.org/1999/xlink" width="86px" height="90px" xmlns="http://www.w3.org/2000/svg">
  <defs>
    <mask fill="white" id="clip280">
      <path d="M 76.49 60  C 76.49 60  85.59 64.2  85.59 64.2  C 78.6900000000001 79.4  63.2900000000001 90  45.3900000000001 90  C 20.99 90  0.190000000000055 70.2  0.190000000000055 45.8  C 0.190000000000055 21.7  20.59 1  44.59 0.600000000000023  C 44.59 0.600000000000023  44.7900000000001 10.6  44.7900000000001 10.6  C 26.1900000000001 10.9  10.1900000000001 27.1  10.1900000000001 45.8  C 10.1900000000001 64.7  26.49 80  45.3900000000001 80  C 59.1900000000001 80  71.09 71.8  76.49 60  Z " fill-rule="evenodd" />
    </mask>
  </defs>
  <g transform="matrix(1 0 0 1 -691 -7154 )">
    <path d="M 76.49 60  C 76.49 60  85.59 64.2  85.59 64.2  C 78.6900000000001 79.4  63.2900000000001 90  45.3900000000001 90  C 20.99 90  0.190000000000055 70.2  0.190000000000055 45.8  C 0.190000000000055 21.7  20.59 1  44.59 0.600000000000023  C 44.59 0.600000000000023  44.7900000000001 10.6  44.7900000000001 10.6  C 26.1900000000001 10.9  10.1900000000001 27.1  10.1900000000001 45.8  C 10.1900000000001 64.7  26.49 80  45.3900000000001 80  C 59.1900000000001 80  71.09 71.8  76.49 60  Z " fill-rule="nonzero" fill="#34c2c2" stroke="none" transform="matrix(1 0 0 1 691 7154 )" />
    <path d="M 76.49 60  C 76.49 60  85.59 64.2  85.59 64.2  C 78.6900000000001 79.4  63.2900000000001 90  45.3900000000001 90  C 20.99 90  0.190000000000055 70.2  0.190000000000055 45.8  C 0.190000000000055 21.7  20.59 1  44.59 0.600000000000023  C 44.59 0.600000000000023  44.7900000000001 10.6  44.7900000000001 10.6  C 26.1900000000001 10.9  10.1900000000001 27.1  10.1900000000001 45.8  C 10.1900000000001 64.7  26.49 80  45.3900000000001 80  C 59.1900000000001 80  71.09 71.8  76.49 60  Z " stroke-width="2" stroke="#34c2c2" fill="none" transform="matrix(1 0 0 1 691 7154 )" mask="url(#clip280)" />
  </g>
</svg>