<?xml version="1.0" encoding="utf-8"?>
<svg version="1.1" xmlns:xlink="http://www.w3.org/1999/xlink" width="17px" height="61px" xmlns="http://www.w3.org/2000/svg">
  <defs>
    <mask fill="white" id="clip1156">
      <path d="M 12.004 0.404000000000025  C 12.004 0.404000000000025  0.175000000000011 54.775  0.175000000000011 54.775  C 0.175000000000011 54.775  9.38200000000001 56.077  9.38200000000001 56.077  C 9.38200000000001 56.077  12.004 0.404000000000025  12.004 0.404000000000025  Z " fill-rule="evenodd" />
    </mask>
    <filter x="206px" y="17183px" width="17px" height="61px" filterUnits="userSpaceOnUse" id="filter1157">
      <feOffset dx="0" dy="0" in="SourceAlpha" result="shadowOffsetInner" />
      <feGaussianBlur stdDeviation="1" in="shadowOffsetInner" result="shadowGaussian" />
      <feComposite in2="shadowGaussian" operator="atop" in="SourceAlpha" result="shadowComposite" />
      <feColorMatrix type="matrix" values="0 0 0 0 0.501960784313725  0 0 0 0 0.501960784313725  0 0 0 0 0.501960784313725  0 0 0 1 0  " in="shadowComposite" />
    </filter>
    <g id="widget1158">
      <path d="M 12.004 0.404000000000025  C 12.004 0.404000000000025  0.175000000000011 54.775  0.175000000000011 54.775  C 0.175000000000011 54.775  9.38200000000001 56.077  9.38200000000001 56.077  C 9.38200000000001 56.077  12.004 0.404000000000025  12.004 0.404000000000025  Z " fill-rule="nonzero" fill="#ffffff" stroke="none" fill-opacity="0" transform="matrix(1 0 0 1 208 17185 )" />
      <path d="M 12.004 0.404000000000025  C 12.004 0.404000000000025  0.175000000000011 54.775  0.175000000000011 54.775  C 0.175000000000011 54.775  9.38200000000001 56.077  9.38200000000001 56.077  C 9.38200000000001 56.077  12.004 0.404000000000025  12.004 0.404000000000025  Z " stroke-width="1.99969997749662" stroke="#952323" fill="none" transform="matrix(1 0 0 1 208 17185 )" mask="url(#clip1156)" />
    </g>
  </defs>
  <g transform="matrix(1 0 0 1 -206 -17183 )">
    <use xlink:href="#widget1158" filter="url(#filter1157)" />
    <use xlink:href="#widget1158" />
  </g>
</svg>