<?xml version="1.0" encoding="utf-8"?>
<svg version="1.1" xmlns:xlink="http://www.w3.org/1999/xlink" width="12px" height="15px" xmlns="http://www.w3.org/2000/svg">
  <defs>
    <mask fill="white" id="clip1652">
      <path d="M 11.89 0.0500000000000114  C 11.89 0.0500000000000114  10.39 0.0500000000000114  10.39 0.0500000000000114  C 10.39 0.0500000000000114  10.39 13.35  10.39 13.35  C 10.39 13.35  0.389999999999986 13.35  0.389999999999986 13.35  C 0.389999999999986 13.35  0.389999999999986 14.85  0.389999999999986 14.85  C 0.389999999999986 14.85  11.89 14.85  11.89 14.85  C 11.89 14.85  11.89 0.0500000000000114  11.89 0.0500000000000114  Z " fill-rule="evenodd" />
    </mask>
  </defs>
  <g transform="matrix(1 0 0 1 -288 -7004 )">
    <path d="M 11.89 0.0500000000000114  C 11.89 0.0500000000000114  10.39 0.0500000000000114  10.39 0.0500000000000114  C 10.39 0.0500000000000114  10.39 13.35  10.39 13.35  C 10.39 13.35  0.389999999999986 13.35  0.389999999999986 13.35  C 0.389999999999986 13.35  0.389999999999986 14.85  0.389999999999986 14.85  C 0.389999999999986 14.85  11.89 14.85  11.89 14.85  C 11.89 14.85  11.89 0.0500000000000114  11.89 0.0500000000000114  Z " fill-rule="nonzero" fill="#ffffff" stroke="none" transform="matrix(1 0 0 1 288 7004 )" />
    <path d="M 11.89 0.0500000000000114  C 11.89 0.0500000000000114  10.39 0.0500000000000114  10.39 0.0500000000000114  C 10.39 0.0500000000000114  10.39 13.35  10.39 13.35  C 10.39 13.35  0.389999999999986 13.35  0.389999999999986 13.35  C 0.389999999999986 13.35  0.389999999999986 14.85  0.389999999999986 14.85  C 0.389999999999986 14.85  11.89 14.85  11.89 14.85  C 11.89 14.85  11.89 0.0500000000000114  11.89 0.0500000000000114  Z " stroke-width="2" stroke="#ffffff" fill="none" transform="matrix(1 0 0 1 288 7004 )" mask="url(#clip1652)" />
  </g>
</svg>