<svg xmlns="http://www.w3.org/2000/svg" xmlns:xlink="http://www.w3.org/1999/xlink" width="88" height="491" version="1.1"><defs><mask id="clip2359" fill="#fff"><path fill-rule="evenodd" d="M 0.660000000000082 490.15 C 0.660000000000082 490.15 0.660000000000082 0.150000000000006 0.660000000000082 0.150000000000006 C 0.660000000000082 0.150000000000006 87.46 0.150000000000006 87.46 0.150000000000006 C 87.46 0.150000000000006 87.46 490.15 87.46 490.15 C 87.46 490.15 0.660000000000082 490.15 0.660000000000082 490.15 Z"/></mask></defs><g><path fill="#fff" fill-rule="nonzero" stroke="none" d="M 0.660000000000082 490.15 C 0.660000000000082 490.15 0.660000000000082 0.150000000000006 0.660000000000082 0.150000000000006 C 0.660000000000082 0.150000000000006 87.46 0.150000000000006 87.46 0.150000000000006 C 87.46 0.150000000000006 87.46 490.15 87.46 490.15 C 87.46 490.15 0.660000000000082 490.15 0.660000000000082 490.15 Z" transform="matrix(1 0 0 1 -821 -15248 ) matrix(1 0 0 1 821 15248 )"/><path fill="none" stroke="#d2d2d2" stroke-width="2" d="M 0.660000000000082 490.15 C 0.660000000000082 490.15 0.660000000000082 0.150000000000006 0.660000000000082 0.150000000000006 C 0.660000000000082 0.150000000000006 87.46 0.150000000000006 87.46 0.150000000000006 C 87.46 0.150000000000006 87.46 490.15 87.46 490.15 C 87.46 490.15 0.660000000000082 490.15 0.660000000000082 490.15 Z" mask="url(#clip2359)" transform="matrix(1 0 0 1 -821 -15248 ) matrix(1 0 0 1 821 15248 )"/></g></svg>