<svg xmlns="http://www.w3.org/2000/svg" xmlns:xlink="http://www.w3.org/1999/xlink" width="89" height="89" version="1.1"><g><path fill="#eee" fill-rule="nonzero" stroke="none" d="M 44 78.5 L 44 88.5 C 19.96 88.5 0.160000000000025 68.7 0.160000000000025 44.3 C 0.160000000000025 19.9 19.96 0.100000000000023 44.36 0.100000000000023 C 68.76 0.100000000000023 88.5600000000001 19.9 88.5600000000001 44.3 C 88.5600000000001 68.7 68.76 88.5 44 88.5 L 44 78.5 C 63.26 78.5 78.5600000000001 63.2 78.5600000000001 44.3 C 78.5600000000001 25.4 63.26 10.1 44.36 10.1 C 25.46 10.1 10.16 25.4 10.16 44.3 C 10.16 63.2 25.46 78.5 44 78.5 Z" transform="matrix(1 0 0 1 -581 -7155 ) matrix(1 0 0 1 581 7155 )"/></g></svg>