<svg xmlns="http://www.w3.org/2000/svg" xmlns:xlink="http://www.w3.org/1999/xlink" width="345" height="21" version="1.1"><defs><mask id="clip2332" fill="#fff"><path fill-rule="evenodd" d="M 0.0599999999999454 20.0799999999999 C 0.0599999999999454 20.0799999999999 0.0599999999999454 0.979999999999905 0.0599999999999454 0.979999999999905 C 0.0599999999999454 0.979999999999905 344.16 0.979999999999905 344.16 0.979999999999905 C 344.16 0.979999999999905 344.16 20.0799999999999 344.16 20.0799999999999 C 344.16 20.0799999999999 0.0599999999999454 20.0799999999999 0.0599999999999454 20.0799999999999 Z"/></mask></defs><g><path fill="#fff" fill-opacity="0" fill-rule="nonzero" stroke="none" d="M 0.0599999999999454 20.0799999999999 C 0.0599999999999454 20.0799999999999 0.0599999999999454 0.979999999999905 0.0599999999999454 0.979999999999905 C 0.0599999999999454 0.979999999999905 344.16 0.979999999999905 344.16 0.979999999999905 C 344.16 0.979999999999905 344.16 20.0799999999999 344.16 20.0799999999999 C 344.16 20.0799999999999 0.0599999999999454 20.0799999999999 0.0599999999999454 20.0799999999999 Z" transform="matrix(1 0 0 1 -749 -14876 ) matrix(1 0 0 1 749 14876 )"/><path fill="none" stroke="#787878" stroke-width="2" d="M 0.0599999999999454 20.0799999999999 C 0.0599999999999454 20.0799999999999 0.0599999999999454 0.979999999999905 0.0599999999999454 0.979999999999905 C 0.0599999999999454 0.979999999999905 344.16 0.979999999999905 344.16 0.979999999999905 C 344.16 0.979999999999905 344.16 20.0799999999999 344.16 20.0799999999999 C 344.16 20.0799999999999 0.0599999999999454 20.0799999999999 0.0599999999999454 20.0799999999999 Z" mask="url(#clip2332)" transform="matrix(1 0 0 1 -749 -14876 ) matrix(1 0 0 1 749 14876 )"/></g></svg>