<?xml version="1.0" encoding="utf-8"?>
<svg version="1.1" xmlns:xlink="http://www.w3.org/1999/xlink" width="19px" height="21px" xmlns="http://www.w3.org/2000/svg">
  <defs>
    <linearGradient gradientUnits="userSpaceOnUse" x1="11441.184" y1="9439.725" x2="11441.184" y2="9658.735" id="LinearGradient781">
      <stop id="Stop782" stop-color="#a1d979" offset="0" />
      <stop id="Stop783" stop-color="#8acf57" offset="0.2" />
      <stop id="Stop784" stop-color="#6cb734" offset="1" />
    </linearGradient>
    <mask fill="white" id="clip785">
      <path d="M 0.619999999999891 20.0799999999999  C 0.619999999999891 20.0799999999999  0.619999999999891 0.979999999999905  0.619999999999891 0.979999999999905  C 0.619999999999891 0.979999999999905  18.8199999999999 0.979999999999905  18.8199999999999 0.979999999999905  C 18.8199999999999 0.979999999999905  18.8199999999999 20.0799999999999  18.8199999999999 20.0799999999999  C 18.8199999999999 20.0799999999999  0.619999999999891 20.0799999999999  0.619999999999891 20.0799999999999  Z " fill-rule="evenodd" />
    </mask>
  </defs>
  <g transform="matrix(1 0 0 1 -748 -14876 )">
    <path d="M 0.619999999999891 20.0799999999999  C 0.619999999999891 20.0799999999999  0.619999999999891 0.979999999999905  0.619999999999891 0.979999999999905  C 0.619999999999891 0.979999999999905  18.8199999999999 0.979999999999905  18.8199999999999 0.979999999999905  C 18.8199999999999 0.979999999999905  18.8199999999999 20.0799999999999  18.8199999999999 20.0799999999999  C 18.8199999999999 20.0799999999999  0.619999999999891 20.0799999999999  0.619999999999891 20.0799999999999  Z " fill-rule="nonzero" fill="url(#LinearGradient781)" stroke="none" transform="matrix(1 0 0 1 748 14876 )" />
    <path d="M 0.619999999999891 20.0799999999999  C 0.619999999999891 20.0799999999999  0.619999999999891 0.979999999999905  0.619999999999891 0.979999999999905  C 0.619999999999891 0.979999999999905  18.8199999999999 0.979999999999905  18.8199999999999 0.979999999999905  C 18.8199999999999 0.979999999999905  18.8199999999999 20.0799999999999  18.8199999999999 20.0799999999999  C 18.8199999999999 20.0799999999999  0.619999999999891 20.0799999999999  0.619999999999891 20.0799999999999  Z " stroke-width="2" stroke="#787878" fill="none" transform="matrix(1 0 0 1 748 14876 )" mask="url(#clip785)" />
  </g>
</svg>