<svg xmlns="http://www.w3.org/2000/svg" xmlns:xlink="http://www.w3.org/1999/xlink" width="363" height="32" version="1.1"><defs><mask id="clip1796" fill="#fff"><path fill-rule="evenodd" d="M 0.899999999999977 31.53 C 0.899999999999977 31.53 0.899999999999977 0.129999999999995 0.899999999999977 0.129999999999995 C 0.899999999999977 0.129999999999995 362.9 0.129999999999995 362.9 0.129999999999995 C 362.9 0.129999999999995 362.9 31.53 362.9 31.53 C 362.9 31.53 0.899999999999977 31.53 0.899999999999977 31.53 Z"/></mask></defs><g><path fill="#ffaf00" fill-rule="nonzero" stroke="none" d="M 0.899999999999977 31.53 C 0.899999999999977 31.53 0.899999999999977 0.129999999999995 0.899999999999977 0.129999999999995 C 0.899999999999977 0.129999999999995 362.9 0.129999999999995 362.9 0.129999999999995 C 362.9 0.129999999999995 362.9 31.53 362.9 31.53 C 362.9 31.53 0.899999999999977 31.53 0.899999999999977 31.53 Z" transform="matrix(1 0 0 1 -516 -6156 ) matrix(1 0 0 1 516 6156 )"/><path fill="none" stroke="#ffaf00" stroke-width="2" d="M 0.899999999999977 31.53 C 0.899999999999977 31.53 0.899999999999977 0.129999999999995 0.899999999999977 0.129999999999995 C 0.899999999999977 0.129999999999995 362.9 0.129999999999995 362.9 0.129999999999995 C 362.9 0.129999999999995 362.9 31.53 362.9 31.53 C 362.9 31.53 0.899999999999977 31.53 0.899999999999977 31.53 Z" mask="url(#clip1796)" transform="matrix(1 0 0 1 -516 -6156 ) matrix(1 0 0 1 516 6156 )"/></g></svg>