<svg xmlns="http://www.w3.org/2000/svg" xmlns:xlink="http://www.w3.org/1999/xlink" width="18" height="18" version="1.1"><defs><mask id="clip1747" fill="#fff"><path fill-rule="evenodd" d="M 9.20799999999997 17.378 C 9.20799999999997 17.378 0.829999999999984 9 0.829999999999984 9 C 0.829999999999984 9 9.20799999999997 0.622 9.20799999999997 0.622 C 9.20799999999997 0.622 17.586 9 17.586 9 C 17.586 9 9.20799999999997 17.378 9.20799999999997 17.378 Z"/></mask></defs><g><path fill="#33b2c3" fill-rule="nonzero" stroke="none" d="M 9.20799999999997 17.378 C 9.20799999999997 17.378 0.829999999999984 9 0.829999999999984 9 C 0.829999999999984 9 9.20799999999997 0.622 9.20799999999997 0.622 C 9.20799999999997 0.622 17.586 9 17.586 9 C 17.586 9 9.20799999999997 17.378 9.20799999999997 17.378 Z" transform="matrix(1 0 0 1 -399 -4120 ) matrix(1 0 0 1 399 4120 )"/><path fill="none" stroke="#fff" stroke-width="2.008" d="M 9.20799999999997 17.378 C 9.20799999999997 17.378 0.829999999999984 9 0.829999999999984 9 C 0.829999999999984 9 9.20799999999997 0.622 9.20799999999997 0.622 C 9.20799999999997 0.622 17.586 9 17.586 9 C 17.586 9 9.20799999999997 17.378 9.20799999999997 17.378 Z" mask="url(#clip1747)" transform="matrix(1 0 0 1 -399 -4120 ) matrix(1 0 0 1 399 4120 )"/></g></svg>