<svg xmlns="http://www.w3.org/2000/svg" xmlns:xlink="http://www.w3.org/1999/xlink" width="151" height="119" version="1.1"><defs><radialGradient id="RadialGradient2609" cx="332.34" cy="424.38" r="188.9" gradientTransform="matrix(0.999999999999998 0 0 1 5.11590769747272E-13 0 )" gradientUnits="userSpaceOnUse"><stop id="Stop2610" offset="0" stop-color="#fffbf3"/><stop id="Stop2611" offset="1" stop-color="#fffaf0"/></radialGradient><mask id="clip2612" fill="#fff"><path fill-rule="evenodd" d="M 13.21 118.16 C 5.21000000000004 106.26 0.710000000000036 91.36 0.710000000000036 76.46 C 0.710000000000036 35.26 35.01 0.960000000000008 76.21 0.960000000000008 C 117.31 0.960000000000008 150.71 35.26 150.71 76.46 C 150.71 91.36 146.21 106.26 138.11 118.16 C 138.11 118.16 13.21 118.16 13.21 118.16 Z"/></mask></defs><g><path fill="url(#RadialGradient2609)" fill-rule="nonzero" stroke="none" d="M 13.21 118.16 C 5.21000000000004 106.26 0.710000000000036 91.36 0.710000000000036 76.46 C 0.710000000000036 35.26 35.01 0.960000000000008 76.21 0.960000000000008 C 117.31 0.960000000000008 150.71 35.26 150.71 76.46 C 150.71 91.36 146.21 106.26 138.11 118.16 C 138.11 118.16 13.21 118.16 13.21 118.16 Z" transform="matrix(1 0 0 1 -594 -17164 ) matrix(1 0 0 1 594 17164 )"/><path fill="none" stroke="#969696" stroke-width="2" d="M 13.21 118.16 C 5.21000000000004 106.26 0.710000000000036 91.36 0.710000000000036 76.46 C 0.710000000000036 35.26 35.01 0.960000000000008 76.21 0.960000000000008 C 117.31 0.960000000000008 150.71 35.26 150.71 76.46 C 150.71 91.36 146.21 106.26 138.11 118.16 C 138.11 118.16 13.21 118.16 13.21 118.16 Z" mask="url(#clip2612)" transform="matrix(1 0 0 1 -594 -17164 ) matrix(1 0 0 1 594 17164 )"/></g></svg>