<svg xmlns="http://www.w3.org/2000/svg" xmlns:xlink="http://www.w3.org/1999/xlink" width="268" height="16" version="1.1"><defs><mask id="clip2519" fill="#fff"><path fill-rule="evenodd" d="M 0.350000000000023 15.15 C 0.350000000000023 15.15 0.350000000000023 0.0499999999999829 0.350000000000023 0.0499999999999829 C 0.350000000000023 0.0499999999999829 267.55 0.0499999999999829 267.55 0.0499999999999829 C 267.55 0.0499999999999829 267.55 15.15 267.55 15.15 C 267.55 15.15 0.350000000000023 15.15 0.350000000000023 15.15 Z"/></mask></defs><g><path fill="#fff" fill-opacity="0" fill-rule="nonzero" stroke="none" d="M 0.350000000000023 15.15 C 0.350000000000023 15.15 0.350000000000023 0.0499999999999829 0.350000000000023 0.0499999999999829 C 0.350000000000023 0.0499999999999829 267.55 0.0499999999999829 267.55 0.0499999999999829 C 267.55 0.0499999999999829 267.55 15.15 267.55 15.15 C 267.55 15.15 0.350000000000023 15.15 0.350000000000023 15.15 Z" transform="matrix(1 0 0 1 -891 -17167 ) matrix(1 0 0 1 891 17167 )"/><path fill="none" stroke="#787878" stroke-width="2" d="M 0.350000000000023 15.15 C 0.350000000000023 15.15 0.350000000000023 0.0499999999999829 0.350000000000023 0.0499999999999829 C 0.350000000000023 0.0499999999999829 267.55 0.0499999999999829 267.55 0.0499999999999829 C 267.55 0.0499999999999829 267.55 15.15 267.55 15.15 C 267.55 15.15 0.350000000000023 15.15 0.350000000000023 15.15 Z" mask="url(#clip2519)" transform="matrix(1 0 0 1 -891 -17167 ) matrix(1 0 0 1 891 17167 )"/></g></svg>