<svg xmlns="http://www.w3.org/2000/svg" xmlns:xlink="http://www.w3.org/1999/xlink" width="61" height="14" version="1.1"><defs><mask id="clip2595" fill="#fff"><path fill-rule="evenodd" d="M 56.1780000000001 2.80000000000001 C 56.1780000000001 2.80000000000001 0.555000000000064 0.365000000000009 0.555000000000064 0.365000000000009 C 0.555000000000064 0.365000000000009 0.83400000000006 9.66500000000002 0.83400000000006 9.66500000000002 C 0.83400000000006 9.66500000000002 56.1780000000001 2.80000000000001 56.1780000000001 2.80000000000001 Z"/></mask><filter id="filter2596" width="61" height="14" x="432" y="17233" filterUnits="userSpaceOnUse"><feOffset dx="0" dy="0" in="SourceAlpha" result="shadowOffsetInner"/><feGaussianBlur in="shadowOffsetInner" result="shadowGaussian" stdDeviation="1"/><feComposite in="SourceAlpha" in2="shadowGaussian" operator="atop" result="shadowComposite"/><feColorMatrix in="shadowComposite" type="matrix" values="0 0 0 0 0.501960784313725 0 0 0 0 0.501960784313725 0 0 0 0 0.501960784313725 0 0 0 1 0"/></filter><g id="widget2597"><path fill="#fff" fill-opacity="0" fill-rule="nonzero" stroke="none" d="M 56.1780000000001 2.80000000000001 C 56.1780000000001 2.80000000000001 0.555000000000064 0.365000000000009 0.555000000000064 0.365000000000009 C 0.555000000000064 0.365000000000009 0.83400000000006 9.66500000000002 0.83400000000006 9.66500000000002 C 0.83400000000006 9.66500000000002 56.1780000000001 2.80000000000001 56.1780000000001 2.80000000000001 Z" transform="matrix(1 0 0 1 434 17235 )"/><path fill="none" stroke="#952323" stroke-width="2.001" d="M 56.1780000000001 2.80000000000001 C 56.1780000000001 2.80000000000001 0.555000000000064 0.365000000000009 0.555000000000064 0.365000000000009 C 0.555000000000064 0.365000000000009 0.83400000000006 9.66500000000002 0.83400000000006 9.66500000000002 C 0.83400000000006 9.66500000000002 56.1780000000001 2.80000000000001 56.1780000000001 2.80000000000001 Z" mask="url(#clip2595)" transform="matrix(1 0 0 1 434 17235 )"/></g></defs><g transform="matrix(1 0 0 1 -432 -17233 )"><use filter="url(#filter2596)" xlink:href="#widget2597"/><use xlink:href="#widget2597"/></g></svg>