<?xml version="1.0" encoding="utf-8"?>
<svg version="1.1" xmlns:xlink="http://www.w3.org/1999/xlink" width="4px" height="4px" xmlns="http://www.w3.org/2000/svg">
  <defs>
    <mask fill="white" id="clip368">
      <path d="M 2.36999999999995 0.889999999999986  C 2.76999999999998 0.889999999999986  3.06999999999994 2.19  3.06999999999994 2.58999999999998  C 3.06999999999994 2.99000000000001  2.76999999999998 3.28999999999996  2.36999999999995 3.28999999999996  C 1.96999999999997 3.28999999999996  0.669999999999959 2.99000000000001  0.669999999999959 2.58999999999998  C 0.669999999999959 2.19  1.96999999999997 0.889999999999986  2.36999999999995 0.889999999999986  Z " fill-rule="evenodd" />
    </mask>
  </defs>
  <g transform="matrix(1 0 0 1 -424 -7224 )">
    <path d="M 2.36999999999995 0.889999999999986  C 2.76999999999998 0.889999999999986  3.06999999999994 2.19  3.06999999999994 2.58999999999998  C 3.06999999999994 2.99000000000001  2.76999999999998 3.28999999999996  2.36999999999995 3.28999999999996  C 1.96999999999997 3.28999999999996  0.669999999999959 2.99000000000001  0.669999999999959 2.58999999999998  C 0.669999999999959 2.19  1.96999999999997 0.889999999999986  2.36999999999995 0.889999999999986  Z " fill-rule="nonzero" fill="#ffffff" stroke="none" transform="matrix(1 0 0 1 424 7224 )" />
    <path d="M 2.36999999999995 0.889999999999986  C 2.76999999999998 0.889999999999986  3.06999999999994 2.19  3.06999999999994 2.58999999999998  C 3.06999999999994 2.99000000000001  2.76999999999998 3.28999999999996  2.36999999999995 3.28999999999996  C 1.96999999999997 3.28999999999996  0.669999999999959 2.99000000000001  0.669999999999959 2.58999999999998  C 0.669999999999959 2.19  1.96999999999997 0.889999999999986  2.36999999999995 0.889999999999986  Z " stroke-width="2" stroke="#ffffff" fill="none" transform="matrix(1 0 0 1 424 7224 )" mask="url(#clip368)" />
  </g>
</svg>