<?xml version="1.0" encoding="utf-8"?>
<svg version="1.1" xmlns:xlink="http://www.w3.org/1999/xlink" width="527px" height="331px" xmlns="http://www.w3.org/2000/svg">
  <defs>
    <mask fill="white" id="clip773">
      <path d="M 11.3299999999999 330.44  C 11.3299999999999 330.44  514.83 330.44  514.83 330.44  C 521.03 330.44  526.13 325.34  526.13 319.14  C 526.13 319.14  526.13 11.94  526.13 11.94  C 526.13 5.74000000000001  521.03 0.639999999999986  514.83 0.639999999999986  C 514.83 0.639999999999986  11.3299999999999 0.639999999999986  11.3299999999999 0.639999999999986  C 5.13 0.639999999999986  0.0299999999999727 5.74000000000001  0.0299999999999727 11.94  C 0.0299999999999727 11.94  0.0299999999999727 319.14  0.0299999999999727 319.14  C 0.0299999999999727 325.34  5.13 330.44  11.3299999999999 330.44  Z " fill-rule="evenodd" />
    </mask>
  </defs>
  <g transform="matrix(1 0 0 1 -658 -14721 )">
    <path d="M 11.3299999999999 330.44  C 11.3299999999999 330.44  514.83 330.44  514.83 330.44  C 521.03 330.44  526.13 325.34  526.13 319.14  C 526.13 319.14  526.13 11.94  526.13 11.94  C 526.13 5.74000000000001  521.03 0.639999999999986  514.83 0.639999999999986  C 514.83 0.639999999999986  11.3299999999999 0.639999999999986  11.3299999999999 0.639999999999986  C 5.13 0.639999999999986  0.0299999999999727 5.74000000000001  0.0299999999999727 11.94  C 0.0299999999999727 11.94  0.0299999999999727 319.14  0.0299999999999727 319.14  C 0.0299999999999727 325.34  5.13 330.44  11.3299999999999 330.44  Z " fill-rule="nonzero" fill="#85c2d8" stroke="none" transform="matrix(1 0 0 1 658 14721 )" />
    <path d="M 11.3299999999999 330.44  C 11.3299999999999 330.44  514.83 330.44  514.83 330.44  C 521.03 330.44  526.13 325.34  526.13 319.14  C 526.13 319.14  526.13 11.94  526.13 11.94  C 526.13 5.74000000000001  521.03 0.639999999999986  514.83 0.639999999999986  C 514.83 0.639999999999986  11.3299999999999 0.639999999999986  11.3299999999999 0.639999999999986  C 5.13 0.639999999999986  0.0299999999999727 5.74000000000001  0.0299999999999727 11.94  C 0.0299999999999727 11.94  0.0299999999999727 319.14  0.0299999999999727 319.14  C 0.0299999999999727 325.34  5.13 330.44  11.3299999999999 330.44  Z " stroke-width="2" stroke="#85c2d8" fill="none" transform="matrix(1 0 0 1 658 14721 )" mask="url(#clip773)" />
  </g>
</svg>