<?xml version="1.0" encoding="utf-8"?>
<svg version="1.1" xmlns:xlink="http://www.w3.org/1999/xlink" width="24px" height="24px" xmlns="http://www.w3.org/2000/svg">
  <defs>
    <mask fill="white" id="clip937">
      <path d="M 0.75 23.99  C 0.75 23.99  0.75 0.29000000000002  0.75 0.29000000000002  C 0.75 0.29000000000002  23.05 0.29000000000002  23.05 0.29000000000002  C 23.05 0.29000000000002  23.05 23.99  23.05 23.99  C 23.05 23.99  0.75 23.99  0.75 23.99  Z " fill-rule="evenodd" />
    </mask>
  </defs>
  <g transform="matrix(1 0 0 1 -782 -14613 )">
    <path d="M 0.75 23.99  C 0.75 23.99  0.75 0.29000000000002  0.75 0.29000000000002  C 0.75 0.29000000000002  23.05 0.29000000000002  23.05 0.29000000000002  C 23.05 0.29000000000002  23.05 23.99  23.05 23.99  C 23.05 23.99  0.75 23.99  0.75 23.99  Z " fill-rule="nonzero" fill="#e6ac83" stroke="none" transform="matrix(1 0 0 1 782 14613 )" />
    <path d="M 0.75 23.99  C 0.75 23.99  0.75 0.29000000000002  0.75 0.29000000000002  C 0.75 0.29000000000002  23.05 0.29000000000002  23.05 0.29000000000002  C 23.05 0.29000000000002  23.05 23.99  23.05 23.99  C 23.05 23.99  0.75 23.99  0.75 23.99  Z " stroke-width="2" stroke="#e6ac83" fill="none" transform="matrix(1 0 0 1 782 14613 )" mask="url(#clip937)" />
  </g>
</svg>