<?xml version="1.0" encoding="utf-8"?>
<svg version="1.1" xmlns:xlink="http://www.w3.org/1999/xlink" width="57px" height="60px" xmlns="http://www.w3.org/2000/svg">
  <defs>
    <mask fill="white" id="clip552">
      <path d="M 20.6900000000001 0.379999999999995  C 20.6900000000001 0.379999999999995  36.49 0.379999999999995  36.49 0.379999999999995  C 47.3900000000001 0.379999999999995  56.1900000000001 9.78  56.1900000000001 21.48  C 56.1900000000001 21.48  56.1900000000001 38.18  56.1900000000001 38.18  C 56.1900000000001 49.78  47.3900000000001 59.18  36.49 59.18  C 36.49 59.18  20.6900000000001 59.18  20.6900000000001 59.18  C 9.78999999999996 59.18  0.990000000000009 49.78  0.990000000000009 38.18  C 0.990000000000009 38.18  0.990000000000009 21.48  0.990000000000009 21.48  C 0.990000000000009 9.78  9.78999999999996 0.379999999999995  20.6900000000001 0.379999999999995  Z " fill-rule="evenodd" />
    </mask>
  </defs>
  <g transform="matrix(1 0 0 1 -1083 -12473 )">
    <path d="M 20.6900000000001 0.379999999999995  C 20.6900000000001 0.379999999999995  36.49 0.379999999999995  36.49 0.379999999999995  C 47.3900000000001 0.379999999999995  56.1900000000001 9.78  56.1900000000001 21.48  C 56.1900000000001 21.48  56.1900000000001 38.18  56.1900000000001 38.18  C 56.1900000000001 49.78  47.3900000000001 59.18  36.49 59.18  C 36.49 59.18  20.6900000000001 59.18  20.6900000000001 59.18  C 9.78999999999996 59.18  0.990000000000009 49.78  0.990000000000009 38.18  C 0.990000000000009 38.18  0.990000000000009 21.48  0.990000000000009 21.48  C 0.990000000000009 9.78  9.78999999999996 0.379999999999995  20.6900000000001 0.379999999999995  Z " fill-rule="nonzero" fill="#cdcece" stroke="none" fill-opacity="0.0784313725490196" transform="matrix(1 0 0 1 1083 12473 )" />
    <path d="M 20.6900000000001 0.379999999999995  C 20.6900000000001 0.379999999999995  36.49 0.379999999999995  36.49 0.379999999999995  C 47.3900000000001 0.379999999999995  56.1900000000001 9.78  56.1900000000001 21.48  C 56.1900000000001 21.48  56.1900000000001 38.18  56.1900000000001 38.18  C 56.1900000000001 49.78  47.3900000000001 59.18  36.49 59.18  C 36.49 59.18  20.6900000000001 59.18  20.6900000000001 59.18  C 9.78999999999996 59.18  0.990000000000009 49.78  0.990000000000009 38.18  C 0.990000000000009 38.18  0.990000000000009 21.48  0.990000000000009 21.48  C 0.990000000000009 9.78  9.78999999999996 0.379999999999995  20.6900000000001 0.379999999999995  Z " stroke-width="2" stroke="#cdcece" fill="none" stroke-opacity="0.0588235294117647" transform="matrix(1 0 0 1 1083 12473 )" mask="url(#clip552)" />
  </g>
</svg>