<svg xmlns="http://www.w3.org/2000/svg" xmlns:xlink="http://www.w3.org/1999/xlink" width="4" height="5" version="1.1"><defs><mask id="clip1856" fill="#fff"><path fill-rule="evenodd" d="M 1.64999999999998 4.48999999999998 C 1.14999999999998 4.48999999999998 0.649999999999977 3.88999999999999 0.649999999999977 3.19 C 0.649999999999977 2.48999999999998 1.14999999999998 0.889999999999986 1.64999999999998 0.889999999999986 C 2.25 0.889999999999986 3.75 2.48999999999998 3.75 3.19 C 3.75 3.88999999999999 2.25 4.48999999999998 1.64999999999998 4.48999999999998 Z"/></mask></defs><g><path fill="#3e3938" fill-rule="nonzero" stroke="none" d="M 1.64999999999998 4.48999999999998 C 1.14999999999998 4.48999999999998 0.649999999999977 3.88999999999999 0.649999999999977 3.19 C 0.649999999999977 2.48999999999998 1.14999999999998 0.889999999999986 1.64999999999998 0.889999999999986 C 2.25 0.889999999999986 3.75 2.48999999999998 3.75 3.19 C 3.75 3.88999999999999 2.25 4.48999999999998 1.64999999999998 4.48999999999998 Z" transform="matrix(1 0 0 1 -369 -6896 ) matrix(1 0 0 1 369 6896 )"/><path fill="none" stroke="#3e3938" stroke-width="2" d="M 1.64999999999998 4.48999999999998 C 1.14999999999998 4.48999999999998 0.649999999999977 3.88999999999999 0.649999999999977 3.19 C 0.649999999999977 2.48999999999998 1.14999999999998 0.889999999999986 1.64999999999998 0.889999999999986 C 2.25 0.889999999999986 3.75 2.48999999999998 3.75 3.19 C 3.75 3.88999999999999 2.25 4.48999999999998 1.64999999999998 4.48999999999998 Z" mask="url(#clip1856)" transform="matrix(1 0 0 1 -369 -6896 ) matrix(1 0 0 1 369 6896 )"/></g></svg>