<?xml version="1.0" encoding="utf-8"?>
<svg version="1.1" xmlns:xlink="http://www.w3.org/1999/xlink" width="121px" height="121px" xmlns="http://www.w3.org/2000/svg">
  <defs>
    <mask fill="white" id="clip1123">
      <path d="M 60.3150000000001 120.945  C 27.215 120.945  0.315000000000055 93.795  0.315000000000055 60.595  C 0.315000000000055 27.495  27.215 0.594999999999999  60.3150000000001 0.594999999999999  C 93.5150000000001 0.594999999999999  120.665 27.495  120.665 60.595  C 120.665 93.795  93.5150000000001 120.945  60.3150000000001 120.945  Z " fill-rule="evenodd" />
    </mask>
  </defs>
  <g transform="matrix(1 0 0 1 -968 -18990 )">
    <path d="M 60.3150000000001 120.945  C 27.215 120.945  0.315000000000055 93.795  0.315000000000055 60.595  C 0.315000000000055 27.495  27.215 0.594999999999999  60.3150000000001 0.594999999999999  C 93.5150000000001 0.594999999999999  120.665 27.495  120.665 60.595  C 120.665 93.795  93.5150000000001 120.945  60.3150000000001 120.945  Z " fill-rule="nonzero" fill="#ffffff" stroke="none" fill-opacity="0" transform="matrix(1 0 0 1 968 18990 )" />
    <path d="M 60.3150000000001 120.945  C 27.215 120.945  0.315000000000055 93.795  0.315000000000055 60.595  C 0.315000000000055 27.495  27.215 0.594999999999999  60.3150000000001 0.594999999999999  C 93.5150000000001 0.594999999999999  120.665 27.495  120.665 60.595  C 120.665 93.795  93.5150000000001 120.945  60.3150000000001 120.945  Z " stroke-width="0.5" stroke="#2f7a8e" fill="none" transform="matrix(1 0 0 1 968 18990 )" mask="url(#clip1123)" />
  </g>
</svg>