<svg xmlns="http://www.w3.org/2000/svg" xmlns:xlink="http://www.w3.org/1999/xlink" width="144" height="83" version="1.1"><defs><mask id="clip2493" fill="#fff"><path fill-rule="evenodd" d="M 60.15 82.1999999999999 C 60.15 82.1999999999999 0.950000000000003 62.9 0.950000000000003 62.9 C 12.45 27.1999999999999 47.05 0.399999999999977 86.55 0.399999999999977 C 108.35 0.399999999999977 128.35 8.19999999999993 143.85 21.1999999999999 C 143.85 21.1999999999999 103.75 70 103.75 70 C 99.15 66.1 93.15 63.6999999999999 86.55 63.6999999999999 C 74.75 63.6999999999999 63.65 71.5 60.15 82.1999999999999 Z"/></mask></defs><g><path fill="#eea300" fill-rule="nonzero" stroke="none" d="M 60.15 82.1999999999999 C 60.15 82.1999999999999 0.950000000000003 62.9 0.950000000000003 62.9 C 12.45 27.1999999999999 47.05 0.399999999999977 86.55 0.399999999999977 C 108.35 0.399999999999977 128.35 8.19999999999993 143.85 21.1999999999999 C 143.85 21.1999999999999 103.75 70 103.75 70 C 99.15 66.1 93.15 63.6999999999999 86.55 63.6999999999999 C 74.75 63.6999999999999 63.65 71.5 60.15 82.1999999999999 Z" transform="matrix(1 0 0 1 -156 -17478 ) matrix(1 0 0 1 156 17478 )"/><path fill="none" stroke="#eea300" stroke-width="2" d="M 60.15 82.1999999999999 C 60.15 82.1999999999999 0.950000000000003 62.9 0.950000000000003 62.9 C 12.45 27.1999999999999 47.05 0.399999999999977 86.55 0.399999999999977 C 108.35 0.399999999999977 128.35 8.19999999999993 143.85 21.1999999999999 C 143.85 21.1999999999999 103.75 70 103.75 70 C 99.15 66.1 93.15 63.6999999999999 86.55 63.6999999999999 C 74.75 63.6999999999999 63.65 71.5 60.15 82.1999999999999 Z" mask="url(#clip2493)" transform="matrix(1 0 0 1 -156 -17478 ) matrix(1 0 0 1 156 17478 )"/></g></svg>