<svg xmlns="http://www.w3.org/2000/svg" xmlns:xlink="http://www.w3.org/1999/xlink" width="56" height="60" version="1.1"><defs><mask id="clip2102" fill="#fff"><path fill-rule="evenodd" d="M 35.91 59.2099999999999 C 35.91 59.2099999999999 20.01 59.2099999999999 20.01 59.2099999999999 C 9.21 59.2099999999999 0.409999999999997 50.41 0.409999999999997 39.61 C 0.409999999999997 39.61 0.409999999999997 20.11 0.409999999999997 20.11 C 0.409999999999997 9.20999999999992 9.21 0.409999999999968 20.01 0.409999999999968 C 20.01 0.409999999999968 35.91 0.409999999999968 35.91 0.409999999999968 C 46.81 0.409999999999968 55.61 9.20999999999992 55.61 20.11 C 55.61 20.11 55.61 39.61 55.61 39.61 C 55.61 50.41 46.81 59.2099999999999 35.91 59.2099999999999 Z"/></mask></defs><g><path fill="#cdcece" fill-opacity=".078" fill-rule="nonzero" stroke="none" d="M 35.91 59.2099999999999 C 35.91 59.2099999999999 20.01 59.2099999999999 20.01 59.2099999999999 C 9.21 59.2099999999999 0.409999999999997 50.41 0.409999999999997 39.61 C 0.409999999999997 39.61 0.409999999999997 20.11 0.409999999999997 20.11 C 0.409999999999997 9.20999999999992 9.21 0.409999999999968 20.01 0.409999999999968 C 20.01 0.409999999999968 35.91 0.409999999999968 35.91 0.409999999999968 C 46.81 0.409999999999968 55.61 9.20999999999992 55.61 20.11 C 55.61 20.11 55.61 39.61 55.61 39.61 C 55.61 50.41 46.81 59.2099999999999 35.91 59.2099999999999 Z" transform="matrix(1 0 0 1 -101 -13048 ) matrix(1 0 0 1 101 13048 )"/><path fill="none" stroke="#cdcece" stroke-opacity=".059" stroke-width="2" d="M 35.91 59.2099999999999 C 35.91 59.2099999999999 20.01 59.2099999999999 20.01 59.2099999999999 C 9.21 59.2099999999999 0.409999999999997 50.41 0.409999999999997 39.61 C 0.409999999999997 39.61 0.409999999999997 20.11 0.409999999999997 20.11 C 0.409999999999997 9.20999999999992 9.21 0.409999999999968 20.01 0.409999999999968 C 20.01 0.409999999999968 35.91 0.409999999999968 35.91 0.409999999999968 C 46.81 0.409999999999968 55.61 9.20999999999992 55.61 20.11 C 55.61 20.11 55.61 39.61 55.61 39.61 C 55.61 50.41 46.81 59.2099999999999 35.91 59.2099999999999 Z" mask="url(#clip2102)" transform="matrix(1 0 0 1 -101 -13048 ) matrix(1 0 0 1 101 13048 )"/></g></svg>