<?xml version="1.0" encoding="utf-8"?>
<svg version="1.1" xmlns:xlink="http://www.w3.org/1999/xlink" width="61px" height="79px" xmlns="http://www.w3.org/2000/svg">
  <defs>
    <mask fill="white" id="clip1844">
      <path d="M 0.340000000000003 19.49  C 0.340000000000003 19.49  2.44 11.89  2.44 11.89  C 2.44 11.89  16.14 15.09  16.14 15.09  C 16.14 15.09  20.84 0.889999999999986  20.84 0.889999999999986  C 20.84 0.889999999999986  47.94 0.889999999999986  47.94 0.889999999999986  C 47.94 0.889999999999986  60.44 32.89  60.44 32.89  C 60.44 32.89  53.14 35.69  53.14 35.69  C 53.14 35.69  46.54 18.19  46.54 18.19  C 46.54 18.19  46.54 78.29  46.54 78.29  C 46.54 78.29  37.74 78.29  37.74 78.29  C 37.74 78.29  37.74 37.19  37.74 37.19  C 37.74 37.19  33.24 37.19  33.24 37.19  C 33.24 37.19  33.24 78.29  33.24 78.29  C 33.24 78.29  23.34 78.29  23.34 78.29  C 23.34 78.29  23.34 19.89  23.34 19.89  C 23.34 19.89  20.84 24.59  20.84 24.59  C 20.84 24.59  0.340000000000003 19.49  0.340000000000003 19.49  Z " fill-rule="evenodd" />
    </mask>
  </defs>
  <g transform="matrix(1 0 0 1 -338 -7108 )">
    <path d="M 0.340000000000003 19.49  C 0.340000000000003 19.49  2.44 11.89  2.44 11.89  C 2.44 11.89  16.14 15.09  16.14 15.09  C 16.14 15.09  20.84 0.889999999999986  20.84 0.889999999999986  C 20.84 0.889999999999986  47.94 0.889999999999986  47.94 0.889999999999986  C 47.94 0.889999999999986  60.44 32.89  60.44 32.89  C 60.44 32.89  53.14 35.69  53.14 35.69  C 53.14 35.69  46.54 18.19  46.54 18.19  C 46.54 18.19  46.54 78.29  46.54 78.29  C 46.54 78.29  37.74 78.29  37.74 78.29  C 37.74 78.29  37.74 37.19  37.74 37.19  C 37.74 37.19  33.24 37.19  33.24 37.19  C 33.24 37.19  33.24 78.29  33.24 78.29  C 33.24 78.29  23.34 78.29  23.34 78.29  C 23.34 78.29  23.34 19.89  23.34 19.89  C 23.34 19.89  20.84 24.59  20.84 24.59  C 20.84 24.59  0.340000000000003 19.49  0.340000000000003 19.49  Z " fill-rule="nonzero" fill="#595757" stroke="none" transform="matrix(1 0 0 1 338 7108 )" />
    <path d="M 0.340000000000003 19.49  C 0.340000000000003 19.49  2.44 11.89  2.44 11.89  C 2.44 11.89  16.14 15.09  16.14 15.09  C 16.14 15.09  20.84 0.889999999999986  20.84 0.889999999999986  C 20.84 0.889999999999986  47.94 0.889999999999986  47.94 0.889999999999986  C 47.94 0.889999999999986  60.44 32.89  60.44 32.89  C 60.44 32.89  53.14 35.69  53.14 35.69  C 53.14 35.69  46.54 18.19  46.54 18.19  C 46.54 18.19  46.54 78.29  46.54 78.29  C 46.54 78.29  37.74 78.29  37.74 78.29  C 37.74 78.29  37.74 37.19  37.74 37.19  C 37.74 37.19  33.24 37.19  33.24 37.19  C 33.24 37.19  33.24 78.29  33.24 78.29  C 33.24 78.29  23.34 78.29  23.34 78.29  C 23.34 78.29  23.34 19.89  23.34 19.89  C 23.34 19.89  20.84 24.59  20.84 24.59  C 20.84 24.59  0.340000000000003 19.49  0.340000000000003 19.49  Z " stroke-width="2" stroke="#595757" fill="none" transform="matrix(1 0 0 1 338 7108 )" mask="url(#clip1844)" />
  </g>
</svg>