<svg xmlns="http://www.w3.org/2000/svg" xmlns:xlink="http://www.w3.org/1999/xlink" width="4" height="4" version="1.1"><defs><mask id="clip1838" fill="#fff"><path fill-rule="evenodd" d="M 2.50999999999999 0.889999999999986 C 2.91000000000003 0.889999999999986 3.20999999999998 2.19 3.20999999999998 2.58999999999998 C 3.20999999999998 2.99000000000001 2.91000000000003 3.28999999999996 2.50999999999999 3.28999999999996 C 2.11000000000001 3.28999999999996 0.810000000000002 2.99000000000001 0.810000000000002 2.58999999999998 C 0.810000000000002 2.19 2.11000000000001 0.889999999999986 2.50999999999999 0.889999999999986 Z"/></mask></defs><g><path fill="#fff" fill-rule="nonzero" stroke="none" d="M 2.50999999999999 0.889999999999986 C 2.91000000000003 0.889999999999986 3.20999999999998 2.19 3.20999999999998 2.58999999999998 C 3.20999999999998 2.99000000000001 2.91000000000003 3.28999999999996 2.50999999999999 3.28999999999996 C 2.11000000000001 3.28999999999996 0.810000000000002 2.99000000000001 0.810000000000002 2.58999999999998 C 0.810000000000002 2.19 2.11000000000001 0.889999999999986 2.50999999999999 0.889999999999986 Z" transform="matrix(1 0 0 1 -398 -7224 ) matrix(1 0 0 1 398 7224 )"/><path fill="none" stroke="#fff" stroke-width="2" d="M 2.50999999999999 0.889999999999986 C 2.91000000000003 0.889999999999986 3.20999999999998 2.19 3.20999999999998 2.58999999999998 C 3.20999999999998 2.99000000000001 2.91000000000003 3.28999999999996 2.50999999999999 3.28999999999996 C 2.11000000000001 3.28999999999996 0.810000000000002 2.99000000000001 0.810000000000002 2.58999999999998 C 0.810000000000002 2.19 2.11000000000001 0.889999999999986 2.50999999999999 0.889999999999986 Z" mask="url(#clip1838)" transform="matrix(1 0 0 1 -398 -7224 ) matrix(1 0 0 1 398 7224 )"/></g></svg>