<?xml version="1.0" encoding="utf-8"?>
<svg version="1.1" xmlns:xlink="http://www.w3.org/1999/xlink" width="76px" height="76px" xmlns="http://www.w3.org/2000/svg">
  <defs>
    <mask fill="white" id="clip398">
      <path d="M 38.52 75.68  C 17.9200000000001 75.68  0.220000000000027 58.98  0.220000000000027 38.38  C 0.220000000000027 17.78  17.9200000000001 0.0799999999999983  38.52 0.0799999999999983  C 59.12 0.0799999999999983  75.8200000000001 17.78  75.8200000000001 38.38  C 75.8200000000001 58.98  59.12 75.68  38.52 75.68  Z " fill-rule="evenodd" />
    </mask>
  </defs>
  <g transform="matrix(1 0 0 1 -763 -4950 )">
    <path d="M 38.52 75.68  C 17.9200000000001 75.68  0.220000000000027 58.98  0.220000000000027 38.38  C 0.220000000000027 17.78  17.9200000000001 0.0799999999999983  38.52 0.0799999999999983  C 59.12 0.0799999999999983  75.8200000000001 17.78  75.8200000000001 38.38  C 75.8200000000001 58.98  59.12 75.68  38.52 75.68  Z " fill-rule="nonzero" fill="#8bc0d3" stroke="none" transform="matrix(1 0 0 1 763 4950 )" />
    <path d="M 38.52 75.68  C 17.9200000000001 75.68  0.220000000000027 58.98  0.220000000000027 38.38  C 0.220000000000027 17.78  17.9200000000001 0.0799999999999983  38.52 0.0799999999999983  C 59.12 0.0799999999999983  75.8200000000001 17.78  75.8200000000001 38.38  C 75.8200000000001 58.98  59.12 75.68  38.52 75.68  Z " stroke-width="2" stroke="#8bc0d3" fill="none" transform="matrix(1 0 0 1 763 4950 )" mask="url(#clip398)" />
  </g>
</svg>