<svg xmlns="http://www.w3.org/2000/svg" xmlns:xlink="http://www.w3.org/1999/xlink" width="182" height="181" version="1.1"><defs><mask id="clip2671" fill="#fff"><path fill-rule="evenodd" d="M 18.4 93.83 C 18.4 93.83 0.400000000000006 94.43 0.400000000000006 94.43 C 0.400000000000006 93.53 0.400000000000006 92.63 0.400000000000006 91.73 C 0.400000000000006 42.23 40.5 0.129999999999995 90 0.129999999999995 C 139.5 0.129999999999995 181.7 42.23 181.7 91.73 C 181.7 136.63 148.7 173.73 105.7 180.33 C 105.7 180.33 102.9 162.63 102.9 162.63 C 137.4 157.33 163.7 127.63 163.7 91.73 C 163.7 52.13 129.6 18.03 90 18.03 C 50.4 18.03 18.3 52.13 18.3 91.73 C 18.3 92.43 18.3 93.13 18.4 93.83 Z"/></mask></defs><g><path fill="#fc5c57" fill-rule="nonzero" stroke="none" d="M 18.4 93.83 C 18.4 93.83 0.400000000000006 94.43 0.400000000000006 94.43 C 0.400000000000006 93.53 0.400000000000006 92.63 0.400000000000006 91.73 C 0.400000000000006 42.23 40.5 0.129999999999995 90 0.129999999999995 C 139.5 0.129999999999995 181.7 42.23 181.7 91.73 C 181.7 136.63 148.7 173.73 105.7 180.33 C 105.7 180.33 102.9 162.63 102.9 162.63 C 137.4 157.33 163.7 127.63 163.7 91.73 C 163.7 52.13 129.6 18.03 90 18.03 C 50.4 18.03 18.3 52.13 18.3 91.73 C 18.3 92.43 18.3 93.13 18.4 93.83 Z" transform="matrix(1 0 0 1 -181 -18960 ) matrix(1 0 0 1 181 18960 )"/><path fill="none" stroke="#fff" stroke-width="4" d="M 18.4 93.83 C 18.4 93.83 0.400000000000006 94.43 0.400000000000006 94.43 C 0.400000000000006 93.53 0.400000000000006 92.63 0.400000000000006 91.73 C 0.400000000000006 42.23 40.5 0.129999999999995 90 0.129999999999995 C 139.5 0.129999999999995 181.7 42.23 181.7 91.73 C 181.7 136.63 148.7 173.73 105.7 180.33 C 105.7 180.33 102.9 162.63 102.9 162.63 C 137.4 157.33 163.7 127.63 163.7 91.73 C 163.7 52.13 129.6 18.03 90 18.03 C 50.4 18.03 18.3 52.13 18.3 91.73 C 18.3 92.43 18.3 93.13 18.4 93.83 Z" mask="url(#clip2671)" transform="matrix(1 0 0 1 -181 -18960 ) matrix(1 0 0 1 181 18960 )"/></g></svg>