<svg xmlns="http://www.w3.org/2000/svg" xmlns:xlink="http://www.w3.org/1999/xlink" width="318" height="272" version="1.1"><defs><mask id="clip2283" fill="#fff"><path fill-rule="evenodd" d="M 11.7 271.08 C 11.7 271.08 306.6 271.08 306.6 271.08 C 312.9 271.08 317.9 265.98 317.9 259.78 C 317.9 259.78 317.9 12.28 317.9 12.28 C 317.9 6.07999999999998 312.9 0.97999999999999 306.6 0.97999999999999 C 306.6 0.97999999999999 11.7 0.97999999999999 11.7 0.97999999999999 C 5.5 0.97999999999999 0.399999999999977 6.07999999999998 0.399999999999977 12.28 C 0.399999999999977 12.28 0.399999999999977 259.78 0.399999999999977 259.78 C 0.399999999999977 265.98 5.5 271.08 11.7 271.08 Z"/></mask></defs><g><path fill="#f0f0f0" fill-rule="nonzero" stroke="none" d="M 11.7 271.08 C 11.7 271.08 306.6 271.08 306.6 271.08 C 312.9 271.08 317.9 265.98 317.9 259.78 C 317.9 259.78 317.9 12.28 317.9 12.28 C 317.9 6.07999999999998 312.9 0.97999999999999 306.6 0.97999999999999 C 306.6 0.97999999999999 11.7 0.97999999999999 11.7 0.97999999999999 C 5.5 0.97999999999999 0.399999999999977 6.07999999999998 0.399999999999977 12.28 C 0.399999999999977 12.28 0.399999999999977 259.78 0.399999999999977 259.78 C 0.399999999999977 265.98 5.5 271.08 11.7 271.08 Z" transform="matrix(1 0 0 1 -527 -14415 ) matrix(1 0 0 1 527 14415 )"/><path fill="none" stroke="#eee" stroke-width="2" d="M 11.7 271.08 C 11.7 271.08 306.6 271.08 306.6 271.08 C 312.9 271.08 317.9 265.98 317.9 259.78 C 317.9 259.78 317.9 12.28 317.9 12.28 C 317.9 6.07999999999998 312.9 0.97999999999999 306.6 0.97999999999999 C 306.6 0.97999999999999 11.7 0.97999999999999 11.7 0.97999999999999 C 5.5 0.97999999999999 0.399999999999977 6.07999999999998 0.399999999999977 12.28 C 0.399999999999977 12.28 0.399999999999977 259.78 0.399999999999977 259.78 C 0.399999999999977 265.98 5.5 271.08 11.7 271.08 Z" mask="url(#clip2283)" transform="matrix(1 0 0 1 -527 -14415 ) matrix(1 0 0 1 527 14415 )"/></g></svg>