<?xml version="1.0" encoding="utf-8"?>
<svg version="1.1" xmlns:xlink="http://www.w3.org/1999/xlink" width="4px" height="3px" xmlns="http://www.w3.org/2000/svg">
  <defs>
    <mask fill="white" id="clip298">
      <path d="M 2.50999999999999 0.420000000000016  C 2.91000000000003 0.420000000000016  3.20999999999998 1.72000000000003  3.20999999999998 2.12  C 3.20999999999998 2.52000000000004  2.91000000000003 2.81999999999999  2.50999999999999 2.81999999999999  C 2.11000000000001 2.81999999999999  0.810000000000002 2.52000000000004  0.810000000000002 2.12  C 0.810000000000002 1.72000000000003  2.11000000000001 0.420000000000016  2.50999999999999 0.420000000000016  Z " fill-rule="evenodd" />
    </mask>
  </defs>
  <g transform="matrix(1 0 0 1 -396 -7217 )">
    <path d="M 2.50999999999999 0.420000000000016  C 2.91000000000003 0.420000000000016  3.20999999999998 1.72000000000003  3.20999999999998 2.12  C 3.20999999999998 2.52000000000004  2.91000000000003 2.81999999999999  2.50999999999999 2.81999999999999  C 2.11000000000001 2.81999999999999  0.810000000000002 2.52000000000004  0.810000000000002 2.12  C 0.810000000000002 1.72000000000003  2.11000000000001 0.420000000000016  2.50999999999999 0.420000000000016  Z " fill-rule="nonzero" fill="#ffffff" stroke="none" transform="matrix(1 0 0 1 396 7217 )" />
    <path d="M 2.50999999999999 0.420000000000016  C 2.91000000000003 0.420000000000016  3.20999999999998 1.72000000000003  3.20999999999998 2.12  C 3.20999999999998 2.52000000000004  2.91000000000003 2.81999999999999  2.50999999999999 2.81999999999999  C 2.11000000000001 2.81999999999999  0.810000000000002 2.52000000000004  0.810000000000002 2.12  C 0.810000000000002 1.72000000000003  2.11000000000001 0.420000000000016  2.50999999999999 0.420000000000016  Z " stroke-width="2" stroke="#ffffff" fill="none" transform="matrix(1 0 0 1 396 7217 )" mask="url(#clip298)" />
  </g>
</svg>