<svg xmlns="http://www.w3.org/2000/svg" xmlns:xlink="http://www.w3.org/1999/xlink" width="77" height="76" version="1.1"><defs><mask id="clip1758" fill="#fff"><path fill-rule="evenodd" d="M 38.84 75.68 C 18.24 75.68 0.54000000000002 58.98 0.54000000000002 38.38 C 0.54000000000002 17.78 18.24 0.0799999999999983 38.84 0.0799999999999983 C 59.44 0.0799999999999983 76.14 17.78 76.14 38.38 C 76.14 58.98 59.44 75.68 38.84 75.68 Z"/></mask></defs><g><path fill="#8bc0d3" fill-rule="nonzero" stroke="none" d="M 38.84 75.68 C 18.24 75.68 0.54000000000002 58.98 0.54000000000002 38.38 C 0.54000000000002 17.78 18.24 0.0799999999999983 38.84 0.0799999999999983 C 59.44 0.0799999999999983 76.14 17.78 76.14 38.38 C 76.14 58.98 59.44 75.68 38.84 75.68 Z" transform="matrix(1 0 0 1 -538 -4950 ) matrix(1 0 0 1 538 4950 )"/><path fill="none" stroke="#8bc0d3" stroke-width="2" d="M 38.84 75.68 C 18.24 75.68 0.54000000000002 58.98 0.54000000000002 38.38 C 0.54000000000002 17.78 18.24 0.0799999999999983 38.84 0.0799999999999983 C 59.44 0.0799999999999983 76.14 17.78 76.14 38.38 C 76.14 58.98 59.44 75.68 38.84 75.68 Z" mask="url(#clip1758)" transform="matrix(1 0 0 1 -538 -4950 ) matrix(1 0 0 1 538 4950 )"/></g></svg>