<svg xmlns="http://www.w3.org/2000/svg" xmlns:xlink="http://www.w3.org/1999/xlink" width="12" height="32" version="1.1"><defs><mask id="clip2673" fill="#fff"><path fill-rule="evenodd" d="M 0.379999999999995 31.39 C 0.379999999999995 31.39 0.379999999999995 0.889999999999986 0.379999999999995 0.889999999999986 C 0.379999999999995 0.889999999999986 11.98 0.889999999999986 11.98 0.889999999999986 C 11.98 0.889999999999986 11.98 31.39 11.98 31.39 C 11.98 31.39 0.379999999999995 31.39 0.379999999999995 31.39 Z"/></mask></defs><g><path fill="#fc5c57" fill-rule="nonzero" stroke="none" d="M 0.379999999999995 31.39 C 0.379999999999995 31.39 0.379999999999995 0.889999999999986 0.379999999999995 0.889999999999986 C 0.379999999999995 0.889999999999986 11.98 0.889999999999986 11.98 0.889999999999986 C 11.98 0.889999999999986 11.98 31.39 11.98 31.39 C 11.98 31.39 0.379999999999995 31.39 0.379999999999995 31.39 Z" transform="matrix(1 0 0 1 -198 -19256 ) matrix(1 0 0 1 198 19256 )"/><path fill="none" stroke="#fc5c57" stroke-width="2" d="M 0.379999999999995 31.39 C 0.379999999999995 31.39 0.379999999999995 0.889999999999986 0.379999999999995 0.889999999999986 C 0.379999999999995 0.889999999999986 11.98 0.889999999999986 11.98 0.889999999999986 C 11.98 0.889999999999986 11.98 31.39 11.98 31.39 C 11.98 31.39 0.379999999999995 31.39 0.379999999999995 31.39 Z" mask="url(#clip2673)" transform="matrix(1 0 0 1 -198 -19256 ) matrix(1 0 0 1 198 19256 )"/></g></svg>