<svg xmlns="http://www.w3.org/2000/svg" xmlns:xlink="http://www.w3.org/1999/xlink" width="57" height="60" version="1.1"><defs><mask id="clip2103" fill="#fff"><path fill-rule="evenodd" d="M 36.41 59.6099999999999 C 36.41 59.6099999999999 20.51 59.6099999999999 20.51 59.6099999999999 C 9.70999999999998 59.6099999999999 0.909999999999968 50.8099999999999 0.909999999999968 40.01 C 0.909999999999968 40.01 0.909999999999968 20.51 0.909999999999968 20.51 C 0.909999999999968 9.6099999999999 9.70999999999998 0.809999999999945 20.51 0.809999999999945 C 20.51 0.809999999999945 36.41 0.809999999999945 36.41 0.809999999999945 C 47.31 0.809999999999945 56.11 9.6099999999999 56.11 20.51 C 56.11 20.51 56.11 40.01 56.11 40.01 C 56.11 50.8099999999999 47.31 59.6099999999999 36.41 59.6099999999999 Z"/></mask></defs><g><path fill="#dcdcdd" fill-opacity=".078" fill-rule="nonzero" stroke="none" d="M 36.41 59.6099999999999 C 36.41 59.6099999999999 20.51 59.6099999999999 20.51 59.6099999999999 C 9.70999999999998 59.6099999999999 0.909999999999968 50.8099999999999 0.909999999999968 40.01 C 0.909999999999968 40.01 0.909999999999968 20.51 0.909999999999968 20.51 C 0.909999999999968 9.6099999999999 9.70999999999998 0.809999999999945 20.51 0.809999999999945 C 20.51 0.809999999999945 36.41 0.809999999999945 36.41 0.809999999999945 C 47.31 0.809999999999945 56.11 9.6099999999999 56.11 20.51 C 56.11 20.51 56.11 40.01 56.11 40.01 C 56.11 50.8099999999999 47.31 59.6099999999999 36.41 59.6099999999999 Z" transform="matrix(1 0 0 1 -223 -13114 ) matrix(1 0 0 1 223 13114 )"/><path fill="none" stroke="#dcdcdd" stroke-opacity=".059" stroke-width="2" d="M 36.41 59.6099999999999 C 36.41 59.6099999999999 20.51 59.6099999999999 20.51 59.6099999999999 C 9.70999999999998 59.6099999999999 0.909999999999968 50.8099999999999 0.909999999999968 40.01 C 0.909999999999968 40.01 0.909999999999968 20.51 0.909999999999968 20.51 C 0.909999999999968 9.6099999999999 9.70999999999998 0.809999999999945 20.51 0.809999999999945 C 20.51 0.809999999999945 36.41 0.809999999999945 36.41 0.809999999999945 C 47.31 0.809999999999945 56.11 9.6099999999999 56.11 20.51 C 56.11 20.51 56.11 40.01 56.11 40.01 C 56.11 50.8099999999999 47.31 59.6099999999999 36.41 59.6099999999999 Z" mask="url(#clip2103)" transform="matrix(1 0 0 1 -223 -13114 ) matrix(1 0 0 1 223 13114 )"/></g></svg>