<svg xmlns="http://www.w3.org/2000/svg" xmlns:xlink="http://www.w3.org/1999/xlink" width="26" height="25" version="1.1"><defs><mask id="clip1800" fill="#fff"><path fill-rule="evenodd" d="M 0.670000000000002 2.30999999999995 C 0.670000000000002 1.20999999999992 1.47 0.409999999999968 2.57000000000001 0.409999999999968 C 2.57000000000001 0.409999999999968 23.27 0.409999999999968 23.27 0.409999999999968 C 24.27 0.409999999999968 25.17 1.20999999999992 25.17 2.30999999999995 C 25.17 2.30999999999995 25.17 23.01 25.17 23.01 C 25.17 24.01 24.27 24.91 23.27 24.91 C 23.27 24.91 2.57000000000001 24.91 2.57000000000001 24.91 C 1.47 24.91 0.670000000000002 24.01 0.670000000000002 23.01 C 0.670000000000002 23.01 0.670000000000002 2.30999999999995 0.670000000000002 2.30999999999995 Z"/></mask></defs><g><path fill="#595757" fill-rule="nonzero" stroke="none" d="M 0.670000000000002 2.30999999999995 C 0.670000000000002 1.20999999999992 1.47 0.409999999999968 2.57000000000001 0.409999999999968 C 2.57000000000001 0.409999999999968 23.27 0.409999999999968 23.27 0.409999999999968 C 24.27 0.409999999999968 25.17 1.20999999999992 25.17 2.30999999999995 C 25.17 2.30999999999995 25.17 23.01 25.17 23.01 C 25.17 24.01 24.27 24.91 23.27 24.91 C 23.27 24.91 2.57000000000001 24.91 2.57000000000001 24.91 C 1.47 24.91 0.670000000000002 24.01 0.670000000000002 23.01 C 0.670000000000002 23.01 0.670000000000002 2.30999999999995 0.670000000000002 2.30999999999995 Z" transform="matrix(1 0 0 1 -189 -6462 ) matrix(1 0 0 1 189 6462 )"/><path fill="none" stroke="#595757" stroke-width="2" d="M 0.670000000000002 2.30999999999995 C 0.670000000000002 1.20999999999992 1.47 0.409999999999968 2.57000000000001 0.409999999999968 C 2.57000000000001 0.409999999999968 23.27 0.409999999999968 23.27 0.409999999999968 C 24.27 0.409999999999968 25.17 1.20999999999992 25.17 2.30999999999995 C 25.17 2.30999999999995 25.17 23.01 25.17 23.01 C 25.17 24.01 24.27 24.91 23.27 24.91 C 23.27 24.91 2.57000000000001 24.91 2.57000000000001 24.91 C 1.47 24.91 0.670000000000002 24.01 0.670000000000002 23.01 C 0.670000000000002 23.01 0.670000000000002 2.30999999999995 0.670000000000002 2.30999999999995 Z" mask="url(#clip1800)" transform="matrix(1 0 0 1 -189 -6462 ) matrix(1 0 0 1 189 6462 )"/></g></svg>