<svg xmlns="http://www.w3.org/2000/svg" xmlns:xlink="http://www.w3.org/1999/xlink" width="7" height="35" version="1.1"><defs><mask id="clip1925" fill="#fff"><path fill-rule="evenodd" d="M 0.740000000000009 32.92 C 0.740000000000009 32.92 0.740000000000009 0.719999999999999 0.740000000000009 0.719999999999999 C 0.740000000000009 0.719999999999999 6.34000000000003 0.719999999999999 6.34000000000003 0.719999999999999 C 6.34000000000003 0.719999999999999 6.34000000000003 32.92 6.34000000000003 32.92 C 6.34000000000003 32.92 6.34000000000003 34.02 4.03999999999996 34.02 C 1.74000000000001 34.02 0.740000000000009 32.92 0.740000000000009 32.92 Z"/></mask></defs><g><path fill="#00ae9d" fill-rule="nonzero" stroke="none" d="M 0.740000000000009 32.92 C 0.740000000000009 32.92 0.740000000000009 0.719999999999999 0.740000000000009 0.719999999999999 C 0.740000000000009 0.719999999999999 6.34000000000003 0.719999999999999 6.34000000000003 0.719999999999999 C 6.34000000000003 0.719999999999999 6.34000000000003 32.92 6.34000000000003 32.92 C 6.34000000000003 32.92 6.34000000000003 34.02 4.03999999999996 34.02 C 1.74000000000001 34.02 0.740000000000009 32.92 0.740000000000009 32.92 Z" transform="matrix(1 0 0 1 -914 -7005 ) matrix(1 0 0 1 914 7005 )"/><path fill="none" stroke="#00ae9d" stroke-width="2" d="M 0.740000000000009 32.92 C 0.740000000000009 32.92 0.740000000000009 0.719999999999999 0.740000000000009 0.719999999999999 C 0.740000000000009 0.719999999999999 6.34000000000003 0.719999999999999 6.34000000000003 0.719999999999999 C 6.34000000000003 0.719999999999999 6.34000000000003 32.92 6.34000000000003 32.92 C 6.34000000000003 32.92 6.34000000000003 34.02 4.03999999999996 34.02 C 1.74000000000001 34.02 0.740000000000009 32.92 0.740000000000009 32.92 Z" mask="url(#clip1925)" transform="matrix(1 0 0 1 -914 -7005 ) matrix(1 0 0 1 914 7005 )"/></g></svg>