<svg xmlns="http://www.w3.org/2000/svg" xmlns:xlink="http://www.w3.org/1999/xlink" width="56" height="60" version="1.1"><defs><mask id="clip2111" fill="#fff"><path fill-rule="evenodd" d="M 20.4400000000001 59.6999999999999 C 20.4400000000001 59.6999999999999 36.34 59.6999999999999 36.34 59.6999999999999 C 47.14 59.6999999999999 55.9400000000001 50.9 55.9400000000001 40.1 C 55.9400000000001 40.1 55.9400000000001 20.6 55.9400000000001 20.6 C 55.9400000000001 9.69999999999993 47.14 0.899999999999977 36.34 0.899999999999977 C 36.34 0.899999999999977 20.4400000000001 0.899999999999977 20.4400000000001 0.899999999999977 C 9.53999999999996 0.899999999999977 0.740000000000009 9.69999999999993 0.740000000000009 20.6 C 0.740000000000009 20.6 0.740000000000009 40.1 0.740000000000009 40.1 C 0.740000000000009 50.9 9.53999999999996 59.6999999999999 20.4400000000001 59.6999999999999 Z"/></mask></defs><g><path fill="#cdcece" fill-opacity=".078" fill-rule="nonzero" stroke="none" d="M 20.4400000000001 59.6999999999999 C 20.4400000000001 59.6999999999999 36.34 59.6999999999999 36.34 59.6999999999999 C 47.14 59.6999999999999 55.9400000000001 50.9 55.9400000000001 40.1 C 55.9400000000001 40.1 55.9400000000001 20.6 55.9400000000001 20.6 C 55.9400000000001 9.69999999999993 47.14 0.899999999999977 36.34 0.899999999999977 C 36.34 0.899999999999977 20.4400000000001 0.899999999999977 20.4400000000001 0.899999999999977 C 9.53999999999996 0.899999999999977 0.740000000000009 9.69999999999993 0.740000000000009 20.6 C 0.740000000000009 20.6 0.740000000000009 40.1 0.740000000000009 40.1 C 0.740000000000009 50.9 9.53999999999996 59.6999999999999 20.4400000000001 59.6999999999999 Z" transform="matrix(1 0 0 1 -1022 -13176 ) matrix(1 0 0 1 1022 13176 )"/><path fill="none" stroke="#cdcece" stroke-opacity=".059" stroke-width="2" d="M 20.4400000000001 59.6999999999999 C 20.4400000000001 59.6999999999999 36.34 59.6999999999999 36.34 59.6999999999999 C 47.14 59.6999999999999 55.9400000000001 50.9 55.9400000000001 40.1 C 55.9400000000001 40.1 55.9400000000001 20.6 55.9400000000001 20.6 C 55.9400000000001 9.69999999999993 47.14 0.899999999999977 36.34 0.899999999999977 C 36.34 0.899999999999977 20.4400000000001 0.899999999999977 20.4400000000001 0.899999999999977 C 9.53999999999996 0.899999999999977 0.740000000000009 9.69999999999993 0.740000000000009 20.6 C 0.740000000000009 20.6 0.740000000000009 40.1 0.740000000000009 40.1 C 0.740000000000009 50.9 9.53999999999996 59.6999999999999 20.4400000000001 59.6999999999999 Z" mask="url(#clip2111)" transform="matrix(1 0 0 1 -1022 -13176 ) matrix(1 0 0 1 1022 13176 )"/></g></svg>