<?xml version="1.0" encoding="utf-8"?>
<svg version="1.1" xmlns:xlink="http://www.w3.org/1999/xlink" width="9px" height="10px" xmlns="http://www.w3.org/2000/svg">
  <defs>
    <mask fill="white" id="clip329">
      <path d="M 0.420000000000016 0.460000000000036  C 0.420000000000016 0.460000000000036  0.420000000000016 9.06000000000006  0.420000000000016 9.06000000000006  C 0.420000000000016 9.06000000000006  8.31999999999999 9.06000000000006  8.31999999999999 9.06000000000006  C 8.31999999999999 9.06000000000006  8.31999999999999 0.460000000000036  8.31999999999999 0.460000000000036  C 8.31999999999999 0.460000000000036  0.420000000000016 0.460000000000036  0.420000000000016 0.460000000000036  Z " fill-rule="evenodd" />
    </mask>
  </defs>
  <g transform="matrix(1 0 0 1 -411 -7080 )">
    <path d="M 0.420000000000016 0.460000000000036  C 0.420000000000016 0.460000000000036  0.420000000000016 9.06000000000006  0.420000000000016 9.06000000000006  C 0.420000000000016 9.06000000000006  8.31999999999999 9.06000000000006  8.31999999999999 9.06000000000006  C 8.31999999999999 9.06000000000006  8.31999999999999 0.460000000000036  8.31999999999999 0.460000000000036  C 8.31999999999999 0.460000000000036  0.420000000000016 0.460000000000036  0.420000000000016 0.460000000000036  Z " fill-rule="nonzero" fill="#ffffff" stroke="none" transform="matrix(1 0 0 1 411 7080 )" />
    <path d="M 0.420000000000016 0.460000000000036  C 0.420000000000016 0.460000000000036  0.420000000000016 9.06000000000006  0.420000000000016 9.06000000000006  C 0.420000000000016 9.06000000000006  8.31999999999999 9.06000000000006  8.31999999999999 9.06000000000006  C 8.31999999999999 9.06000000000006  8.31999999999999 0.460000000000036  8.31999999999999 0.460000000000036  C 8.31999999999999 0.460000000000036  0.420000000000016 0.460000000000036  0.420000000000016 0.460000000000036  Z " stroke-width="2" stroke="#ffffff" fill="none" transform="matrix(1 0 0 1 411 7080 )" mask="url(#clip329)" />
  </g>
</svg>