<?xml version="1.0" encoding="utf-8"?>
<svg version="1.1" xmlns:xlink="http://www.w3.org/1999/xlink" width="1124px" height="295px" xmlns="http://www.w3.org/2000/svg">
  <defs>
    <mask fill="white" id="clip456">
      <path d="M 0.5 294.21  C 0.5 294.21  0.5 0.20999999999998  0.5 0.20999999999998  C 0.5 0.20999999999998  513.7 134.01  513.7 134.01  C 513.7 134.01  610.8 134.01  610.8 134.01  C 610.8 134.01  1124 0.20999999999998  1124 0.20999999999998  C 1124 0.20999999999998  1124 294.21  1124 294.21  C 1124 294.21  0.5 294.21  0.5 294.21  Z " fill-rule="evenodd" />
    </mask>
  </defs>
  <g transform="matrix(1 0 0 1 -88 -10082 )">
    <path d="M 0.5 294.21  C 0.5 294.21  0.5 0.20999999999998  0.5 0.20999999999998  C 0.5 0.20999999999998  513.7 134.01  513.7 134.01  C 513.7 134.01  610.8 134.01  610.8 134.01  C 610.8 134.01  1124 0.20999999999998  1124 0.20999999999998  C 1124 0.20999999999998  1124 294.21  1124 294.21  C 1124 294.21  0.5 294.21  0.5 294.21  Z " fill-rule="nonzero" fill="#d0e3ea" stroke="none" transform="matrix(1 0 0 1 88 10082 )" />
    <path d="M 0.5 294.21  C 0.5 294.21  0.5 0.20999999999998  0.5 0.20999999999998  C 0.5 0.20999999999998  513.7 134.01  513.7 134.01  C 513.7 134.01  610.8 134.01  610.8 134.01  C 610.8 134.01  1124 0.20999999999998  1124 0.20999999999998  C 1124 0.20999999999998  1124 294.21  1124 294.21  C 1124 294.21  0.5 294.21  0.5 294.21  Z " stroke-width="2" stroke="#d0e3ea" fill="none" transform="matrix(1 0 0 1 88 10082 )" mask="url(#clip456)" />
  </g>
</svg>