<svg xmlns="http://www.w3.org/2000/svg" xmlns:xlink="http://www.w3.org/1999/xlink" width="162" height="127" version="1.1"><defs><linearGradient id="LinearGradient2553" x1="-9.26" x2="170.74" y1="21.85" y2="104.85" gradientUnits="userSpaceOnUse"><stop id="Stop2554" offset="0" stop-color="#fff"/><stop id="Stop2555" offset=".2" stop-color="#e0e0e0"/><stop id="Stop2556" offset=".85" stop-color="#7d7d7d"/><stop id="Stop2557" offset="1" stop-color="#7d7d7d"/></linearGradient><mask id="clip2558" fill="#fff"><path fill-rule="evenodd" d="M 13.74 126.25 C 5.04 113.45 0.240000000000002 97.45 0.240000000000002 81.45 C 0.240000000000002 37.25 37.14 0.349999999999994 81.34 0.349999999999994 C 125.54 0.349999999999994 161.44 37.25 161.44 81.45 C 161.44 97.45 156.64 113.45 147.94 126.25 C 147.94 126.25 13.74 126.25 13.74 126.25 Z"/></mask></defs><g><path fill="url(#LinearGradient2553)" fill-rule="nonzero" stroke="none" d="M 13.74 126.25 C 5.04 113.45 0.240000000000002 97.45 0.240000000000002 81.45 C 0.240000000000002 37.25 37.14 0.349999999999994 81.34 0.349999999999994 C 125.54 0.349999999999994 161.44 37.25 161.44 81.45 C 161.44 97.45 156.64 113.45 147.94 126.25 C 147.94 126.25 13.74 126.25 13.74 126.25 Z" transform="matrix(1 0 0 1 -132 -17159 ) matrix(1 0 0 1 132 17159 )"/><path fill="none" stroke="#909090" stroke-width="2" d="M 13.74 126.25 C 5.04 113.45 0.240000000000002 97.45 0.240000000000002 81.45 C 0.240000000000002 37.25 37.14 0.349999999999994 81.34 0.349999999999994 C 125.54 0.349999999999994 161.44 37.25 161.44 81.45 C 161.44 97.45 156.64 113.45 147.94 126.25 C 147.94 126.25 13.74 126.25 13.74 126.25 Z" mask="url(#clip2558)" transform="matrix(1 0 0 1 -132 -17159 ) matrix(1 0 0 1 132 17159 )"/></g></svg>