<?xml version="1.0" encoding="utf-8"?>
<svg version="1.1" xmlns:xlink="http://www.w3.org/1999/xlink" width="57px" height="60px" xmlns="http://www.w3.org/2000/svg">
  <defs>
    <mask fill="white" id="clip1934">
      <path d="M 36.41 59.6099999999999  C 36.41 59.6099999999999  20.51 59.6099999999999  20.51 59.6099999999999  C 9.70999999999998 59.6099999999999  0.909999999999968 50.8099999999999  0.909999999999968 40.01  C 0.909999999999968 40.01  0.909999999999968 20.51  0.909999999999968 20.51  C 0.909999999999968 9.6099999999999  9.70999999999998 0.809999999999945  20.51 0.809999999999945  C 20.51 0.809999999999945  36.41 0.809999999999945  36.41 0.809999999999945  C 47.31 0.809999999999945  56.11 9.6099999999999  56.11 20.51  C 56.11 20.51  56.11 40.01  56.11 40.01  C 56.11 50.8099999999999  47.31 59.6099999999999  36.41 59.6099999999999  Z " fill-rule="evenodd" />
    </mask>
  </defs>
  <g transform="matrix(1 0 0 1 -223 -13114 )">
    <path d="M 36.41 59.6099999999999  C 36.41 59.6099999999999  20.51 59.6099999999999  20.51 59.6099999999999  C 9.70999999999998 59.6099999999999  0.909999999999968 50.8099999999999  0.909999999999968 40.01  C 0.909999999999968 40.01  0.909999999999968 20.51  0.909999999999968 20.51  C 0.909999999999968 9.6099999999999  9.70999999999998 0.809999999999945  20.51 0.809999999999945  C 20.51 0.809999999999945  36.41 0.809999999999945  36.41 0.809999999999945  C 47.31 0.809999999999945  56.11 9.6099999999999  56.11 20.51  C 56.11 20.51  56.11 40.01  56.11 40.01  C 56.11 50.8099999999999  47.31 59.6099999999999  36.41 59.6099999999999  Z " fill-rule="nonzero" fill="#dcdcdd" stroke="none" fill-opacity="0.0784313725490196" transform="matrix(1 0 0 1 223 13114 )" />
    <path d="M 36.41 59.6099999999999  C 36.41 59.6099999999999  20.51 59.6099999999999  20.51 59.6099999999999  C 9.70999999999998 59.6099999999999  0.909999999999968 50.8099999999999  0.909999999999968 40.01  C 0.909999999999968 40.01  0.909999999999968 20.51  0.909999999999968 20.51  C 0.909999999999968 9.6099999999999  9.70999999999998 0.809999999999945  20.51 0.809999999999945  C 20.51 0.809999999999945  36.41 0.809999999999945  36.41 0.809999999999945  C 47.31 0.809999999999945  56.11 9.6099999999999  56.11 20.51  C 56.11 20.51  56.11 40.01  56.11 40.01  C 56.11 50.8099999999999  47.31 59.6099999999999  36.41 59.6099999999999  Z " stroke-width="2" stroke="#dcdcdd" fill="none" stroke-opacity="0.0588235294117647" transform="matrix(1 0 0 1 223 13114 )" mask="url(#clip1934)" />
  </g>
</svg>