<?xml version="1.0" encoding="utf-8"?>
<svg version="1.1" xmlns:xlink="http://www.w3.org/1999/xlink" width="88px" height="491px" xmlns="http://www.w3.org/2000/svg">
  <defs>
    <mask fill="white" id="clip2186">
      <path d="M 0.480000000000018 490.15  C 0.480000000000018 490.15  0.480000000000018 0.150000000000006  0.480000000000018 0.150000000000006  C 0.480000000000018 0.150000000000006  87.28 0.150000000000006  87.28 0.150000000000006  C 87.28 0.150000000000006  87.28 490.15  87.28 490.15  C 87.28 490.15  0.480000000000018 490.15  0.480000000000018 490.15  Z " fill-rule="evenodd" />
    </mask>
  </defs>
  <g transform="matrix(1 0 0 1 -907 -15248 )">
    <path d="M 0.480000000000018 490.15  C 0.480000000000018 490.15  0.480000000000018 0.150000000000006  0.480000000000018 0.150000000000006  C 0.480000000000018 0.150000000000006  87.28 0.150000000000006  87.28 0.150000000000006  C 87.28 0.150000000000006  87.28 490.15  87.28 490.15  C 87.28 490.15  0.480000000000018 490.15  0.480000000000018 490.15  Z " fill-rule="nonzero" fill="#f5f5f5" stroke="none" transform="matrix(1 0 0 1 907 15248 )" />
    <path d="M 0.480000000000018 490.15  C 0.480000000000018 490.15  0.480000000000018 0.150000000000006  0.480000000000018 0.150000000000006  C 0.480000000000018 0.150000000000006  87.28 0.150000000000006  87.28 0.150000000000006  C 87.28 0.150000000000006  87.28 490.15  87.28 490.15  C 87.28 490.15  0.480000000000018 490.15  0.480000000000018 490.15  Z " stroke-width="2" stroke="#d2d2d2" fill="none" transform="matrix(1 0 0 1 907 15248 )" mask="url(#clip2186)" />
  </g>
</svg>