<?xml version="1.0" encoding="utf-8"?>
<svg version="1.1" xmlns:xlink="http://www.w3.org/1999/xlink" width="26px" height="25px" xmlns="http://www.w3.org/2000/svg">
  <defs>
    <mask fill="white" id="clip331">
      <path d="M 0.670000000000002 2.12  C 0.670000000000002 1.01999999999998  1.47 0.220000000000027  2.57000000000001 0.220000000000027  C 2.57000000000001 0.220000000000027  23.27 0.220000000000027  23.27 0.220000000000027  C 24.27 0.220000000000027  25.17 1.01999999999998  25.17 2.12  C 25.17 2.12  25.17 22.8200000000001  25.17 22.8200000000001  C 25.17 23.8200000000001  24.27 24.72  23.27 24.72  C 23.27 24.72  2.57000000000001 24.72  2.57000000000001 24.72  C 1.47 24.72  0.670000000000002 23.8200000000001  0.670000000000002 22.8200000000001  C 0.670000000000002 22.8200000000001  0.670000000000002 2.12  0.670000000000002 2.12  Z " fill-rule="evenodd" />
    </mask>
  </defs>
  <g transform="matrix(1 0 0 1 -189 -6605 )">
    <path d="M 0.670000000000002 2.12  C 0.670000000000002 1.01999999999998  1.47 0.220000000000027  2.57000000000001 0.220000000000027  C 2.57000000000001 0.220000000000027  23.27 0.220000000000027  23.27 0.220000000000027  C 24.27 0.220000000000027  25.17 1.01999999999998  25.17 2.12  C 25.17 2.12  25.17 22.8200000000001  25.17 22.8200000000001  C 25.17 23.8200000000001  24.27 24.72  23.27 24.72  C 23.27 24.72  2.57000000000001 24.72  2.57000000000001 24.72  C 1.47 24.72  0.670000000000002 23.8200000000001  0.670000000000002 22.8200000000001  C 0.670000000000002 22.8200000000001  0.670000000000002 2.12  0.670000000000002 2.12  Z " fill-rule="nonzero" fill="#eb6d71" stroke="none" transform="matrix(1 0 0 1 189 6605 )" />
    <path d="M 0.670000000000002 2.12  C 0.670000000000002 1.01999999999998  1.47 0.220000000000027  2.57000000000001 0.220000000000027  C 2.57000000000001 0.220000000000027  23.27 0.220000000000027  23.27 0.220000000000027  C 24.27 0.220000000000027  25.17 1.01999999999998  25.17 2.12  C 25.17 2.12  25.17 22.8200000000001  25.17 22.8200000000001  C 25.17 23.8200000000001  24.27 24.72  23.27 24.72  C 23.27 24.72  2.57000000000001 24.72  2.57000000000001 24.72  C 1.47 24.72  0.670000000000002 23.8200000000001  0.670000000000002 22.8200000000001  C 0.670000000000002 22.8200000000001  0.670000000000002 2.12  0.670000000000002 2.12  Z " stroke-width="2" stroke="#eb6d71" fill="none" transform="matrix(1 0 0 1 189 6605 )" mask="url(#clip331)" />
  </g>
</svg>