<svg xmlns="http://www.w3.org/2000/svg" xmlns:xlink="http://www.w3.org/1999/xlink" width="21" height="21" version="1.1"><defs><mask id="clip1737" fill="#fff"><path fill-rule="evenodd" d="M 10.715 20.705 C 10.715 20.705 0.564999999999998 10.805 0.564999999999998 10.805 C 0.564999999999998 10.805 10.715 0.655000000000001 10.715 0.655000000000001 C 10.715 0.655000000000001 20.615 10.805 20.615 10.805 C 20.615 10.805 10.715 20.705 10.715 20.705 Z"/></mask></defs><g><path fill="#33b2c3" fill-rule="nonzero" stroke="none" d="M 10.715 20.705 C 10.715 20.705 0.564999999999998 10.805 0.564999999999998 10.805 C 0.564999999999998 10.805 10.715 0.655000000000001 10.715 0.655000000000001 C 10.715 0.655000000000001 20.615 10.805 20.615 10.805 C 20.615 10.805 10.715 20.705 10.715 20.705 Z" transform="matrix(1 0 0 1 -207 -4273 ) matrix(1 0 0 1 207 4273 )"/><path fill="none" stroke="#33b2c3" stroke-width=".5" d="M 10.715 20.705 C 10.715 20.705 0.564999999999998 10.805 0.564999999999998 10.805 C 0.564999999999998 10.805 10.715 0.655000000000001 10.715 0.655000000000001 C 10.715 0.655000000000001 20.615 10.805 20.615 10.805 C 20.615 10.805 10.715 20.705 10.715 20.705 Z" mask="url(#clip1737)" transform="matrix(1 0 0 1 -207 -4273 ) matrix(1 0 0 1 207 4273 )"/></g></svg>