<?xml version="1.0" encoding="utf-8"?>
<svg version="1.1" xmlns:xlink="http://www.w3.org/1999/xlink" width="23px" height="24px" xmlns="http://www.w3.org/2000/svg">
  <defs>
    <mask fill="white" id="clip740">
      <path d="M 0.220000000000027 23.96  C 0.220000000000027 23.96  0.220000000000027 0.260000000000048  0.220000000000027 0.260000000000048  C 0.220000000000027 0.260000000000048  22.52 0.260000000000048  22.52 0.260000000000048  C 22.52 0.260000000000048  22.52 23.96  22.52 23.96  C 22.52 23.96  0.220000000000027 23.96  0.220000000000027 23.96  Z " fill-rule="evenodd" />
    </mask>
  </defs>
  <g transform="matrix(1 0 0 1 -571 -14545 )">
    <path d="M 0.220000000000027 23.96  C 0.220000000000027 23.96  0.220000000000027 0.260000000000048  0.220000000000027 0.260000000000048  C 0.220000000000027 0.260000000000048  22.52 0.260000000000048  22.52 0.260000000000048  C 22.52 0.260000000000048  22.52 23.96  22.52 23.96  C 22.52 23.96  0.220000000000027 23.96  0.220000000000027 23.96  Z " fill-rule="nonzero" fill="#d2691e" stroke="none" transform="matrix(1 0 0 1 571 14545 )" />
    <path d="M 0.220000000000027 23.96  C 0.220000000000027 23.96  0.220000000000027 0.260000000000048  0.220000000000027 0.260000000000048  C 0.220000000000027 0.260000000000048  22.52 0.260000000000048  22.52 0.260000000000048  C 22.52 0.260000000000048  22.52 23.96  22.52 23.96  C 22.52 23.96  0.220000000000027 23.96  0.220000000000027 23.96  Z " stroke-width="2" stroke="#d2691e" fill="none" transform="matrix(1 0 0 1 571 14545 )" mask="url(#clip740)" />
  </g>
</svg>