<?xml version="1.0" encoding="utf-8"?>
<svg version="1.1" xmlns:xlink="http://www.w3.org/1999/xlink" width="23px" height="24px" xmlns="http://www.w3.org/2000/svg">
  <defs>
    <mask fill="white" id="clip879">
      <path d="M 0.220000000000027 23.93  C 0.220000000000027 23.93  0.220000000000027 0.230000000000018  0.220000000000027 0.230000000000018  C 0.220000000000027 0.230000000000018  22.52 0.230000000000018  22.52 0.230000000000018  C 22.52 0.230000000000018  22.52 23.93  22.52 23.93  C 22.52 23.93  0.220000000000027 23.93  0.220000000000027 23.93  Z " fill-rule="evenodd" />
    </mask>
  </defs>
  <g transform="matrix(1 0 0 1 -571 -14477 )">
    <path d="M 0.220000000000027 23.93  C 0.220000000000027 23.93  0.220000000000027 0.230000000000018  0.220000000000027 0.230000000000018  C 0.220000000000027 0.230000000000018  22.52 0.230000000000018  22.52 0.230000000000018  C 22.52 0.230000000000018  22.52 23.93  22.52 23.93  C 22.52 23.93  0.220000000000027 23.93  0.220000000000027 23.93  Z " fill-rule="nonzero" fill="#733a11" stroke="none" transform="matrix(1 0 0 1 571 14477 )" />
    <path d="M 0.220000000000027 23.93  C 0.220000000000027 23.93  0.220000000000027 0.230000000000018  0.220000000000027 0.230000000000018  C 0.220000000000027 0.230000000000018  22.52 0.230000000000018  22.52 0.230000000000018  C 22.52 0.230000000000018  22.52 23.93  22.52 23.93  C 22.52 23.93  0.220000000000027 23.93  0.220000000000027 23.93  Z " stroke-width="2" stroke="#733a11" fill="none" transform="matrix(1 0 0 1 571 14477 )" mask="url(#clip879)" />
  </g>
</svg>