<?xml version="1.0" encoding="utf-8"?>
<svg version="1.1" xmlns:xlink="http://www.w3.org/1999/xlink" width="162px" height="16px" xmlns="http://www.w3.org/2000/svg">
  <defs>
    <linearGradient gradientUnits="userSpaceOnUse" x1="1.40999999999988" y1="0.549999999999983" x2="1.40999999999988" y2="14.65" id="LinearGradient968">
      <stop id="Stop969" stop-color="#a1d979" offset="0" />
      <stop id="Stop970" stop-color="#8acf57" offset="0.2" />
      <stop id="Stop971" stop-color="#6cb734" offset="1" />
    </linearGradient>
    <mask fill="white" id="clip972">
      <path d="M 0.909999999999968 15.15  C 0.909999999999968 15.15  0.909999999999968 0.0499999999999829  0.909999999999968 0.0499999999999829  C 0.909999999999968 0.0499999999999829  161.61 0.0499999999999829  161.61 0.0499999999999829  C 161.61 0.0499999999999829  161.61 15.15  161.61 15.15  C 161.61 15.15  0.909999999999968 15.15  0.909999999999968 15.15  Z " fill-rule="evenodd" />
    </mask>
  </defs>
  <g transform="matrix(1 0 0 1 -890 -17167 )">
    <path d="M 0.909999999999968 15.15  C 0.909999999999968 15.15  0.909999999999968 0.0499999999999829  0.909999999999968 0.0499999999999829  C 0.909999999999968 0.0499999999999829  161.61 0.0499999999999829  161.61 0.0499999999999829  C 161.61 0.0499999999999829  161.61 15.15  161.61 15.15  C 161.61 15.15  0.909999999999968 15.15  0.909999999999968 15.15  Z " fill-rule="nonzero" fill="url(#LinearGradient968)" stroke="none" transform="matrix(1 0 0 1 890 17167 )" />
    <path d="M 0.909999999999968 15.15  C 0.909999999999968 15.15  0.909999999999968 0.0499999999999829  0.909999999999968 0.0499999999999829  C 0.909999999999968 0.0499999999999829  161.61 0.0499999999999829  161.61 0.0499999999999829  C 161.61 0.0499999999999829  161.61 15.15  161.61 15.15  C 161.61 15.15  0.909999999999968 15.15  0.909999999999968 15.15  Z " stroke-width="2" stroke="#787878" fill="none" transform="matrix(1 0 0 1 890 17167 )" mask="url(#clip972)" />
  </g>
</svg>