<svg xmlns="http://www.w3.org/2000/svg" xmlns:xlink="http://www.w3.org/1999/xlink" width="8" height="6" version="1.1"><defs><mask id="clip2628" fill="#fff"><path fill-rule="evenodd" d="M 0.410000000000082 0.860000000000014 C 0.410000000000082 0.860000000000014 7.61000000000001 5.45999999999998 7.61000000000001 5.45999999999998 C 7.61000000000001 5.45999999999998 0.410000000000082 0.860000000000014 0.410000000000082 0.860000000000014 Z"/></mask></defs><g><path fill="#f14100" fill-rule="nonzero" stroke="none" d="M 0.410000000000082 0.860000000000014 C 0.410000000000082 0.860000000000014 7.61000000000001 5.45999999999998 7.61000000000001 5.45999999999998 C 7.61000000000001 5.45999999999998 0.410000000000082 0.860000000000014 0.410000000000082 0.860000000000014 Z" transform="matrix(1 0 0 1 -725 -17271 ) matrix(1 0 0 1 725 17271 )"/><path fill="none" stroke="#f14100" stroke-width="2" d="M 0.410000000000082 0.860000000000014 C 0.410000000000082 0.860000000000014 7.61000000000001 5.45999999999998 7.61000000000001 5.45999999999998 C 7.61000000000001 5.45999999999998 0.410000000000082 0.860000000000014 0.410000000000082 0.860000000000014 Z" mask="url(#clip2628)" transform="matrix(1 0 0 1 -725 -17271 ) matrix(1 0 0 1 725 17271 )"/></g></svg>