<?xml version="1.0" encoding="utf-8"?>
<svg version="1.1" xmlns:xlink="http://www.w3.org/1999/xlink" width="77px" height="76px" xmlns="http://www.w3.org/2000/svg">
  <defs>
    <mask fill="white" id="clip264">
      <path d="M 38.84 75.68  C 18.24 75.68  0.54000000000002 58.98  0.54000000000002 38.38  C 0.54000000000002 17.78  18.24 0.0799999999999983  38.84 0.0799999999999983  C 59.44 0.0799999999999983  76.14 17.78  76.14 38.38  C 76.14 58.98  59.44 75.68  38.84 75.68  Z " fill-rule="evenodd" />
    </mask>
  </defs>
  <g transform="matrix(1 0 0 1 -538 -4950 )">
    <path d="M 38.84 75.68  C 18.24 75.68  0.54000000000002 58.98  0.54000000000002 38.38  C 0.54000000000002 17.78  18.24 0.0799999999999983  38.84 0.0799999999999983  C 59.44 0.0799999999999983  76.14 17.78  76.14 38.38  C 76.14 58.98  59.44 75.68  38.84 75.68  Z " fill-rule="nonzero" fill="#8bc0d3" stroke="none" transform="matrix(1 0 0 1 538 4950 )" />
    <path d="M 38.84 75.68  C 18.24 75.68  0.54000000000002 58.98  0.54000000000002 38.38  C 0.54000000000002 17.78  18.24 0.0799999999999983  38.84 0.0799999999999983  C 59.44 0.0799999999999983  76.14 17.78  76.14 38.38  C 76.14 58.98  59.44 75.68  38.84 75.68  Z " stroke-width="2" stroke="#8bc0d3" fill="none" transform="matrix(1 0 0 1 538 4950 )" mask="url(#clip264)" />
  </g>
</svg>