<svg xmlns="http://www.w3.org/2000/svg" xmlns:xlink="http://www.w3.org/1999/xlink" width="56" height="60" version="1.1"><defs><mask id="clip2077" fill="#fff"><path fill-rule="evenodd" d="M 35.91 0.27 C 35.91 0.27 20.11 0.27 20.11 0.27 C 9.21 0.27 0.41 9.67 0.41 21.37 C 0.41 21.37 0.41 38.07 0.41 38.07 C 0.41 49.67 9.21 59.07 20.11 59.07 C 20.11 59.07 35.91 59.07 35.91 59.07 C 46.81 59.07 55.61 49.67 55.61 38.07 C 55.61 38.07 55.61 21.37 55.61 21.37 C 55.61 9.67 46.81 0.27 35.91 0.27 Z"/></mask></defs><g><path fill="#595757" fill-opacity=".078" fill-rule="nonzero" stroke="none" d="M 35.91 0.27 C 35.91 0.27 20.11 0.27 20.11 0.27 C 9.21 0.27 0.41 9.67 0.41 21.37 C 0.41 21.37 0.41 38.07 0.41 38.07 C 0.41 49.67 9.21 59.07 20.11 59.07 C 20.11 59.07 35.91 59.07 35.91 59.07 C 46.81 59.07 55.61 49.67 55.61 38.07 C 55.61 38.07 55.61 21.37 55.61 21.37 C 55.61 9.67 46.81 0.27 35.91 0.27 Z" transform="matrix(1 0 0 1 -101 -12411 ) matrix(1 0 0 1 101 12411 )"/><path fill="none" stroke="#595757" stroke-opacity=".059" stroke-width="2" d="M 35.91 0.27 C 35.91 0.27 20.11 0.27 20.11 0.27 C 9.21 0.27 0.41 9.67 0.41 21.37 C 0.41 21.37 0.41 38.07 0.41 38.07 C 0.41 49.67 9.21 59.07 20.11 59.07 C 20.11 59.07 35.91 59.07 35.91 59.07 C 46.81 59.07 55.61 49.67 55.61 38.07 C 55.61 38.07 55.61 21.37 55.61 21.37 C 55.61 9.67 46.81 0.27 35.91 0.27 Z" mask="url(#clip2077)" transform="matrix(1 0 0 1 -101 -12411 ) matrix(1 0 0 1 101 12411 )"/></g></svg>