<?xml version="1.0" encoding="utf-8"?>
<svg version="1.1" xmlns:xlink="http://www.w3.org/1999/xlink" width="117px" height="54px" xmlns="http://www.w3.org/2000/svg">
  <defs>
    <mask fill="white" id="clip2572">
      <path d="M 7.65000000000001 53.36  C 7.65000000000001 53.36  0.75 51.16  0.75 51.16  C 10.15 22.26  38.35 0.359999999999985  70.35 0.359999999999985  C 87.95 0.359999999999985  104.15 6.66  116.65 17.26  C 116.65 17.26  112.05 22.76  112.05 22.76  C 100.75 13.26  86.25 7.55999999999997  70.35 7.55999999999997  C 41.55 7.55999999999997  16.05 27.36  7.65000000000001 53.36  Z " fill-rule="evenodd" />
    </mask>
  </defs>
  <g transform="matrix(1 0 0 1 -143 -17167 )">
    <path d="M 7.65000000000001 53.36  C 7.65000000000001 53.36  0.75 51.16  0.75 51.16  C 10.15 22.26  38.35 0.359999999999985  70.35 0.359999999999985  C 87.95 0.359999999999985  104.15 6.66  116.65 17.26  C 116.65 17.26  112.05 22.76  112.05 22.76  C 100.75 13.26  86.25 7.55999999999997  70.35 7.55999999999997  C 41.55 7.55999999999997  16.05 27.36  7.65000000000001 53.36  Z " fill-rule="nonzero" fill="#eea300" stroke="none" transform="matrix(1 0 0 1 143 17167 )" />
    <path d="M 7.65000000000001 53.36  C 7.65000000000001 53.36  0.75 51.16  0.75 51.16  C 10.15 22.26  38.35 0.359999999999985  70.35 0.359999999999985  C 87.95 0.359999999999985  104.15 6.66  116.65 17.26  C 116.65 17.26  112.05 22.76  112.05 22.76  C 100.75 13.26  86.25 7.55999999999997  70.35 7.55999999999997  C 41.55 7.55999999999997  16.05 27.36  7.65000000000001 53.36  Z " stroke-width="2" stroke="#eea300" fill="none" transform="matrix(1 0 0 1 143 17167 )" mask="url(#clip2572)" />
  </g>
</svg>