<?xml version="1.0" encoding="utf-8"?>
<svg version="1.1" xmlns:xlink="http://www.w3.org/1999/xlink" width="6px" height="21px" xmlns="http://www.w3.org/2000/svg">
  <defs>
    <mask fill="white" id="clip559">
      <path d="M 0.439999999999941 19.71  C 0.439999999999941 19.71  0.439999999999941 0.409999999999968  0.439999999999941 0.409999999999968  C 0.439999999999941 0.409999999999968  5.2399999999999 0.409999999999968  5.2399999999999 0.409999999999968  C 5.2399999999999 0.409999999999968  5.2399999999999 19.71  5.2399999999999 19.71  C 5.2399999999999 19.71  5.2399999999999 20.8099999999999  3.33999999999992 20.8099999999999  C 1.43999999999994 20.8099999999999  0.439999999999941 19.71  0.439999999999941 19.71  Z " fill-rule="evenodd" />
    </mask>
  </defs>
  <g transform="matrix(1 0 0 1 -956 -7018 )">
    <path d="M 0.439999999999941 19.71  C 0.439999999999941 19.71  0.439999999999941 0.409999999999968  0.439999999999941 0.409999999999968  C 0.439999999999941 0.409999999999968  5.2399999999999 0.409999999999968  5.2399999999999 0.409999999999968  C 5.2399999999999 0.409999999999968  5.2399999999999 19.71  5.2399999999999 19.71  C 5.2399999999999 19.71  5.2399999999999 20.8099999999999  3.33999999999992 20.8099999999999  C 1.43999999999994 20.8099999999999  0.439999999999941 19.71  0.439999999999941 19.71  Z " fill-rule="nonzero" fill="#f06b6c" stroke="none" transform="matrix(1 0 0 1 956 7018 )" />
    <path d="M 0.439999999999941 19.71  C 0.439999999999941 19.71  0.439999999999941 0.409999999999968  0.439999999999941 0.409999999999968  C 0.439999999999941 0.409999999999968  5.2399999999999 0.409999999999968  5.2399999999999 0.409999999999968  C 5.2399999999999 0.409999999999968  5.2399999999999 19.71  5.2399999999999 19.71  C 5.2399999999999 19.71  5.2399999999999 20.8099999999999  3.33999999999992 20.8099999999999  C 1.43999999999994 20.8099999999999  0.439999999999941 19.71  0.439999999999941 19.71  Z " stroke-width="2" stroke="#f06b6c" fill="none" transform="matrix(1 0 0 1 956 7018 )" mask="url(#clip559)" />
  </g>
</svg>