<?xml version="1.0" encoding="utf-8"?>
<svg version="1.1" xmlns:xlink="http://www.w3.org/1999/xlink" width="56px" height="59px" xmlns="http://www.w3.org/2000/svg">
  <defs>
    <mask fill="white" id="clip574">
      <path d="M 35.91 58.8099999999999  C 35.91 58.8099999999999  20.01 58.8099999999999  20.01 58.8099999999999  C 9.21 58.8099999999999  0.409999999999997 50.01  0.409999999999997 39.21  C 0.409999999999997 39.21  0.409999999999997 19.71  0.409999999999997 19.71  C 0.409999999999997 8.80999999999995  9.21 0.00999999999999091  20.01 0.00999999999999091  C 20.01 0.00999999999999091  35.91 0.00999999999999091  35.91 0.00999999999999091  C 46.81 0.00999999999999091  55.61 8.80999999999995  55.61 19.71  C 55.61 19.71  55.61 39.21  55.61 39.21  C 55.61 50.01  46.81 58.8099999999999  35.91 58.8099999999999  Z " fill-rule="evenodd" />
    </mask>
  </defs>
  <g transform="matrix(1 0 0 1 -101 -12982 )">
    <path d="M 35.91 58.8099999999999  C 35.91 58.8099999999999  20.01 58.8099999999999  20.01 58.8099999999999  C 9.21 58.8099999999999  0.409999999999997 50.01  0.409999999999997 39.21  C 0.409999999999997 39.21  0.409999999999997 19.71  0.409999999999997 19.71  C 0.409999999999997 8.80999999999995  9.21 0.00999999999999091  20.01 0.00999999999999091  C 20.01 0.00999999999999091  35.91 0.00999999999999091  35.91 0.00999999999999091  C 46.81 0.00999999999999091  55.61 8.80999999999995  55.61 19.71  C 55.61 19.71  55.61 39.21  55.61 39.21  C 55.61 50.01  46.81 58.8099999999999  35.91 58.8099999999999  Z " fill-rule="nonzero" fill="#dcdcdd" stroke="none" fill-opacity="0.0784313725490196" transform="matrix(1 0 0 1 101 12982 )" />
    <path d="M 35.91 58.8099999999999  C 35.91 58.8099999999999  20.01 58.8099999999999  20.01 58.8099999999999  C 9.21 58.8099999999999  0.409999999999997 50.01  0.409999999999997 39.21  C 0.409999999999997 39.21  0.409999999999997 19.71  0.409999999999997 19.71  C 0.409999999999997 8.80999999999995  9.21 0.00999999999999091  20.01 0.00999999999999091  C 20.01 0.00999999999999091  35.91 0.00999999999999091  35.91 0.00999999999999091  C 46.81 0.00999999999999091  55.61 8.80999999999995  55.61 19.71  C 55.61 19.71  55.61 39.21  55.61 39.21  C 55.61 50.01  46.81 58.8099999999999  35.91 58.8099999999999  Z " stroke-width="2" stroke="#dcdcdd" fill="none" stroke-opacity="0.0588235294117647" transform="matrix(1 0 0 1 101 12982 )" mask="url(#clip574)" />
  </g>
</svg>