<?xml version="1.0" encoding="utf-8"?>
<svg version="1.1" xmlns:xlink="http://www.w3.org/1999/xlink" width="268px" height="16px" xmlns="http://www.w3.org/2000/svg">
  <defs>
    <mask fill="white" id="clip1047">
      <path d="M 0.350000000000023 15.15  C 0.350000000000023 15.15  0.350000000000023 0.0499999999999829  0.350000000000023 0.0499999999999829  C 0.350000000000023 0.0499999999999829  267.55 0.0499999999999829  267.55 0.0499999999999829  C 267.55 0.0499999999999829  267.55 15.15  267.55 15.15  C 267.55 15.15  0.350000000000023 15.15  0.350000000000023 15.15  Z " fill-rule="evenodd" />
    </mask>
  </defs>
  <g transform="matrix(1 0 0 1 -891 -17167 )">
    <path d="M 0.350000000000023 15.15  C 0.350000000000023 15.15  0.350000000000023 0.0499999999999829  0.350000000000023 0.0499999999999829  C 0.350000000000023 0.0499999999999829  267.55 0.0499999999999829  267.55 0.0499999999999829  C 267.55 0.0499999999999829  267.55 15.15  267.55 15.15  C 267.55 15.15  0.350000000000023 15.15  0.350000000000023 15.15  Z " fill-rule="nonzero" fill="#ffffff" stroke="none" fill-opacity="0" transform="matrix(1 0 0 1 891 17167 )" />
    <path d="M 0.350000000000023 15.15  C 0.350000000000023 15.15  0.350000000000023 0.0499999999999829  0.350000000000023 0.0499999999999829  C 0.350000000000023 0.0499999999999829  267.55 0.0499999999999829  267.55 0.0499999999999829  C 267.55 0.0499999999999829  267.55 15.15  267.55 15.15  C 267.55 15.15  0.350000000000023 15.15  0.350000000000023 15.15  Z " stroke-width="2" stroke="#787878" fill="none" transform="matrix(1 0 0 1 891 17167 )" mask="url(#clip1047)" />
  </g>
</svg>