<svg xmlns="http://www.w3.org/2000/svg" xmlns:xlink="http://www.w3.org/1999/xlink" width="449" height="796" version="1.1"><defs><mask id="clip1973" fill="#fff"><path fill-rule="evenodd" d="M 0.0399999999999636 795.2 C 0.0399999999999636 795.2 0.0399999999999636 0.5 0.0399999999999636 0.5 C 0.0399999999999636 0.5 448.24 0.5 448.24 0.5 C 448.24 0.5 448.24 795.2 448.24 795.2 C 448.24 795.2 0.0399999999999636 795.2 0.0399999999999636 795.2 Z"/></mask></defs><g><path fill="#00ae9d" fill-rule="nonzero" stroke="none" d="M 0.0399999999999636 795.2 C 0.0399999999999636 795.2 0.0399999999999636 0.5 0.0399999999999636 0.5 C 0.0399999999999636 0.5 448.24 0.5 448.24 0.5 C 448.24 0.5 448.24 795.2 448.24 795.2 C 448.24 795.2 0.0399999999999636 795.2 0.0399999999999636 795.2 Z" transform="matrix(1 0 0 1 -762 -8592 ) matrix(1 0 0 1 762 8592 )"/><path fill="none" stroke="#00ae9d" stroke-width="2" d="M 0.0399999999999636 795.2 C 0.0399999999999636 795.2 0.0399999999999636 0.5 0.0399999999999636 0.5 C 0.0399999999999636 0.5 448.24 0.5 448.24 0.5 C 448.24 0.5 448.24 795.2 448.24 795.2 C 448.24 795.2 0.0399999999999636 795.2 0.0399999999999636 795.2 Z" mask="url(#clip1973)" transform="matrix(1 0 0 1 -762 -8592 ) matrix(1 0 0 1 762 8592 )"/></g></svg>