<svg xmlns="http://www.w3.org/2000/svg" xmlns:xlink="http://www.w3.org/1999/xlink" width="11" height="44" version="1.1"><defs><mask id="clip2009" fill="#fff"><path fill-rule="evenodd" d="M 0.810000000000002 43.13 C 0.810000000000002 43.13 0.810000000000002 0.829999999999998 0.810000000000002 0.829999999999998 C 0.810000000000002 0.829999999999998 10.81 0.829999999999998 10.81 0.829999999999998 C 10.81 0.829999999999998 10.81 43.13 10.81 43.13 C 10.81 43.13 0.810000000000002 43.13 0.810000000000002 43.13 Z"/></mask></defs><g><path fill="#ee5b5d" fill-rule="nonzero" stroke="none" d="M 0.810000000000002 43.13 C 0.810000000000002 43.13 0.810000000000002 0.829999999999998 0.810000000000002 0.829999999999998 C 0.810000000000002 0.829999999999998 10.81 0.829999999999998 10.81 0.829999999999998 C 10.81 0.829999999999998 10.81 43.13 10.81 43.13 C 10.81 43.13 0.810000000000002 43.13 0.810000000000002 43.13 Z" transform="matrix(1 0 0 1 -102 -10452 ) matrix(1 0 0 1 102 10452 )"/><path fill="none" stroke="#ee5b5d" stroke-width="2" d="M 0.810000000000002 43.13 C 0.810000000000002 43.13 0.810000000000002 0.829999999999998 0.810000000000002 0.829999999999998 C 0.810000000000002 0.829999999999998 10.81 0.829999999999998 10.81 0.829999999999998 C 10.81 0.829999999999998 10.81 43.13 10.81 43.13 C 10.81 43.13 0.810000000000002 43.13 0.810000000000002 43.13 Z" mask="url(#clip2009)" transform="matrix(1 0 0 1 -102 -10452 ) matrix(1 0 0 1 102 10452 )"/></g></svg>