<svg xmlns="http://www.w3.org/2000/svg" xmlns:xlink="http://www.w3.org/1999/xlink" width="56" height="60" version="1.1"><defs><mask id="clip2114" fill="#fff"><path fill-rule="evenodd" d="M 20.2 59.6999999999999 C 20.2 59.6999999999999 36.1 59.6999999999999 36.1 59.6999999999999 C 46.9 59.6999999999999 55.7 50.9 55.7 40.1 C 55.7 40.1 55.7 20.6 55.7 20.6 C 55.7 9.69999999999993 46.9 0.899999999999977 36.1 0.899999999999977 C 36.1 0.899999999999977 20.2 0.899999999999977 20.2 0.899999999999977 C 9.29999999999995 0.899999999999977 0.5 9.69999999999993 0.5 20.6 C 0.5 20.6 0.5 40.1 0.5 40.1 C 0.5 50.9 9.29999999999995 59.6999999999999 20.2 59.6999999999999 Z"/></mask></defs><g><path fill="#dcdcdd" fill-opacity=".078" fill-rule="nonzero" stroke="none" d="M 20.2 59.6999999999999 C 20.2 59.6999999999999 36.1 59.6999999999999 36.1 59.6999999999999 C 46.9 59.6999999999999 55.7 50.9 55.7 40.1 C 55.7 40.1 55.7 20.6 55.7 20.6 C 55.7 9.69999999999993 46.9 0.899999999999977 36.1 0.899999999999977 C 36.1 0.899999999999977 20.2 0.899999999999977 20.2 0.899999999999977 C 9.29999999999995 0.899999999999977 0.5 9.69999999999993 0.5 20.6 C 0.5 20.6 0.5 40.1 0.5 40.1 C 0.5 50.9 9.29999999999995 59.6999999999999 20.2 59.6999999999999 Z" transform="matrix(1 0 0 1 -961 -13176 ) matrix(1 0 0 1 961 13176 )"/><path fill="none" stroke="#dcdcdd" stroke-opacity=".059" stroke-width="2" d="M 20.2 59.6999999999999 C 20.2 59.6999999999999 36.1 59.6999999999999 36.1 59.6999999999999 C 46.9 59.6999999999999 55.7 50.9 55.7 40.1 C 55.7 40.1 55.7 20.6 55.7 20.6 C 55.7 9.69999999999993 46.9 0.899999999999977 36.1 0.899999999999977 C 36.1 0.899999999999977 20.2 0.899999999999977 20.2 0.899999999999977 C 9.29999999999995 0.899999999999977 0.5 9.69999999999993 0.5 20.6 C 0.5 20.6 0.5 40.1 0.5 40.1 C 0.5 50.9 9.29999999999995 59.6999999999999 20.2 59.6999999999999 Z" mask="url(#clip2114)" transform="matrix(1 0 0 1 -961 -13176 ) matrix(1 0 0 1 961 13176 )"/></g></svg>