<?xml version="1.0" encoding="utf-8"?>
<svg version="1.1" xmlns:xlink="http://www.w3.org/1999/xlink" width="23px" height="24px" xmlns="http://www.w3.org/2000/svg">
  <defs>
    <mask fill="white" id="clip873">
      <path d="M 0.220000000000027 23.99  C 0.220000000000027 23.99  0.220000000000027 0.29000000000002  0.220000000000027 0.29000000000002  C 0.220000000000027 0.29000000000002  22.52 0.29000000000002  22.52 0.29000000000002  C 22.52 0.29000000000002  22.52 23.99  22.52 23.99  C 22.52 23.99  0.220000000000027 23.99  0.220000000000027 23.99  Z " fill-rule="evenodd" />
    </mask>
  </defs>
  <g transform="matrix(1 0 0 1 -571 -14613 )">
    <path d="M 0.220000000000027 23.99  C 0.220000000000027 23.99  0.220000000000027 0.29000000000002  0.220000000000027 0.29000000000002  C 0.220000000000027 0.29000000000002  22.52 0.29000000000002  22.52 0.29000000000002  C 22.52 0.29000000000002  22.52 23.99  22.52 23.99  C 22.52 23.99  0.220000000000027 23.99  0.220000000000027 23.99  Z " fill-rule="nonzero" fill="#e6ac83" stroke="none" transform="matrix(1 0 0 1 571 14613 )" />
    <path d="M 0.220000000000027 23.99  C 0.220000000000027 23.99  0.220000000000027 0.29000000000002  0.220000000000027 0.29000000000002  C 0.220000000000027 0.29000000000002  22.52 0.29000000000002  22.52 0.29000000000002  C 22.52 0.29000000000002  22.52 23.99  22.52 23.99  C 22.52 23.99  0.220000000000027 23.99  0.220000000000027 23.99  Z " stroke-width="2" stroke="#e6ac83" fill="none" transform="matrix(1 0 0 1 571 14613 )" mask="url(#clip873)" />
  </g>
</svg>