<?xml version="1.0" encoding="utf-8"?>
<svg version="1.1" xmlns:xlink="http://www.w3.org/1999/xlink" width="259px" height="305px" xmlns="http://www.w3.org/2000/svg">
  <defs>
    <mask fill="white" id="clip973">
      <path d="M 12.07 304.34  C 12.07 304.34  247.47 304.34  247.47 304.34  C 253.67 304.34  258.77 299.24  258.77 293.04  C 258.77 293.04  258.77 11.84  258.77 11.84  C 258.77 5.64000000000004  253.67 0.54000000000002  247.47 0.54000000000002  C 247.47 0.54000000000002  12.07 0.54000000000002  12.07 0.54000000000002  C 5.87 0.54000000000002  0.769999999999996 5.64000000000004  0.769999999999996 11.84  C 0.769999999999996 11.84  0.769999999999996 293.04  0.769999999999996 293.04  C 0.769999999999996 299.24  5.87 304.34  12.07 304.34  Z " fill-rule="evenodd" />
    </mask>
  </defs>
  <g transform="matrix(1 0 0 1 -119 -17400 )">
    <path d="M 12.07 304.34  C 12.07 304.34  247.47 304.34  247.47 304.34  C 253.67 304.34  258.77 299.24  258.77 293.04  C 258.77 293.04  258.77 11.84  258.77 11.84  C 258.77 5.64000000000004  253.67 0.54000000000002  247.47 0.54000000000002  C 247.47 0.54000000000002  12.07 0.54000000000002  12.07 0.54000000000002  C 5.87 0.54000000000002  0.769999999999996 5.64000000000004  0.769999999999996 11.84  C 0.769999999999996 11.84  0.769999999999996 293.04  0.769999999999996 293.04  C 0.769999999999996 299.24  5.87 304.34  12.07 304.34  Z " fill-rule="nonzero" fill="#ffffff" stroke="none" fill-opacity="0" transform="matrix(1 0 0 1 119 17400 )" />
    <path d="M 12.07 304.34  C 12.07 304.34  247.47 304.34  247.47 304.34  C 253.67 304.34  258.77 299.24  258.77 293.04  C 258.77 293.04  258.77 11.84  258.77 11.84  C 258.77 5.64000000000004  253.67 0.54000000000002  247.47 0.54000000000002  C 247.47 0.54000000000002  12.07 0.54000000000002  12.07 0.54000000000002  C 5.87 0.54000000000002  0.769999999999996 5.64000000000004  0.769999999999996 11.84  C 0.769999999999996 11.84  0.769999999999996 293.04  0.769999999999996 293.04  C 0.769999999999996 299.24  5.87 304.34  12.07 304.34  Z " stroke-width="2" stroke="#cad4cc" fill="none" transform="matrix(1 0 0 1 119 17400 )" mask="url(#clip973)" />
  </g>
</svg>