<svg xmlns="http://www.w3.org/2000/svg" xmlns:xlink="http://www.w3.org/1999/xlink" width="56" height="60" version="1.1"><defs><mask id="clip2092" fill="#fff"><path fill-rule="evenodd" d="M 19.9300000000001 0.77000000000001 C 19.9300000000001 0.77000000000001 35.73 0.77000000000001 35.73 0.77000000000001 C 46.6300000000001 0.77000000000001 55.4300000000001 10.17 55.4300000000001 21.87 C 55.4300000000001 21.87 55.4300000000001 38.57 55.4300000000001 38.57 C 55.4300000000001 50.17 46.6300000000001 59.57 35.73 59.57 C 35.73 59.57 19.9300000000001 59.57 19.9300000000001 59.57 C 9.02999999999997 59.57 0.230000000000018 50.17 0.230000000000018 38.57 C 0.230000000000018 38.57 0.230000000000018 21.87 0.230000000000018 21.87 C 0.230000000000018 10.17 9.02999999999997 0.77000000000001 19.9300000000001 0.77000000000001 Z"/></mask></defs><g><path fill="#cdcece" fill-opacity=".078" fill-rule="nonzero" stroke="none" d="M 19.9300000000001 0.77000000000001 C 19.9300000000001 0.77000000000001 35.73 0.77000000000001 35.73 0.77000000000001 C 46.6300000000001 0.77000000000001 55.4300000000001 10.17 55.4300000000001 21.87 C 55.4300000000001 21.87 55.4300000000001 38.57 55.4300000000001 38.57 C 55.4300000000001 50.17 46.6300000000001 59.57 35.73 59.57 C 35.73 59.57 19.9300000000001 59.57 19.9300000000001 59.57 C 9.02999999999997 59.57 0.230000000000018 50.17 0.230000000000018 38.57 C 0.230000000000018 38.57 0.230000000000018 21.87 0.230000000000018 21.87 C 0.230000000000018 10.17 9.02999999999997 0.77000000000001 19.9300000000001 0.77000000000001 Z" transform="matrix(1 0 0 1 -1145 -12539 ) matrix(1 0 0 1 1145 12539 )"/><path fill="none" stroke="#cdcece" stroke-opacity=".059" stroke-width="2" d="M 19.9300000000001 0.77000000000001 C 19.9300000000001 0.77000000000001 35.73 0.77000000000001 35.73 0.77000000000001 C 46.6300000000001 0.77000000000001 55.4300000000001 10.17 55.4300000000001 21.87 C 55.4300000000001 21.87 55.4300000000001 38.57 55.4300000000001 38.57 C 55.4300000000001 50.17 46.6300000000001 59.57 35.73 59.57 C 35.73 59.57 19.9300000000001 59.57 19.9300000000001 59.57 C 9.02999999999997 59.57 0.230000000000018 50.17 0.230000000000018 38.57 C 0.230000000000018 38.57 0.230000000000018 21.87 0.230000000000018 21.87 C 0.230000000000018 10.17 9.02999999999997 0.77000000000001 19.9300000000001 0.77000000000001 Z" mask="url(#clip2092)" transform="matrix(1 0 0 1 -1145 -12539 ) matrix(1 0 0 1 1145 12539 )"/></g></svg>