<?xml version="1.0" encoding="utf-8"?>
<svg version="1.1" xmlns:xlink="http://www.w3.org/1999/xlink" width="13px" height="13px" xmlns="http://www.w3.org/2000/svg">
  <defs>
    <mask fill="white" id="clip556">
      <path d="M 7.44999999999993 12.14  C 4.44999999999993 12.14  0.949999999999932 8.63999999999999  0.949999999999932 5.53999999999999  C 0.949999999999932 2.53999999999999  4.44999999999993 0.039999999999992  7.44999999999993 0.039999999999992  C 10.4499999999999 0.039999999999992  12.9499999999999 2.53999999999999  12.9499999999999 5.53999999999999  C 12.9499999999999 8.63999999999999  10.4499999999999 12.14  7.44999999999993 12.14  Z " fill-rule="evenodd" />
    </mask>
  </defs>
  <g transform="matrix(1 0 0 1 -948 -6971 )">
    <path d="M 7.44999999999993 12.14  C 4.44999999999993 12.14  0.949999999999932 8.63999999999999  0.949999999999932 5.53999999999999  C 0.949999999999932 2.53999999999999  4.44999999999993 0.039999999999992  7.44999999999993 0.039999999999992  C 10.4499999999999 0.039999999999992  12.9499999999999 2.53999999999999  12.9499999999999 5.53999999999999  C 12.9499999999999 8.63999999999999  10.4499999999999 12.14  7.44999999999993 12.14  Z " fill-rule="nonzero" fill="#f06b6c" stroke="none" transform="matrix(1 0 0 1 948 6971 )" />
    <path d="M 7.44999999999993 12.14  C 4.44999999999993 12.14  0.949999999999932 8.63999999999999  0.949999999999932 5.53999999999999  C 0.949999999999932 2.53999999999999  4.44999999999993 0.039999999999992  7.44999999999993 0.039999999999992  C 10.4499999999999 0.039999999999992  12.9499999999999 2.53999999999999  12.9499999999999 5.53999999999999  C 12.9499999999999 8.63999999999999  10.4499999999999 12.14  7.44999999999993 12.14  Z " stroke-width="2" stroke="#f06b6c" fill="none" transform="matrix(1 0 0 1 948 6971 )" mask="url(#clip556)" />
  </g>
</svg>