<svg xmlns="http://www.w3.org/2000/svg" xmlns:xlink="http://www.w3.org/1999/xlink" width="24" height="24" version="1.1"><defs><mask id="clip2382" fill="#fff"><path fill-rule="evenodd" d="M 12.43 23.75 C 6.13 23.75 0.129999999999995 18.75 0.129999999999995 12.55 C 0.129999999999995 6.25 6.13 0.25 12.43 0.25 C 18.63 0.25 23.63 6.25 23.63 12.55 C 23.63 18.75 18.63 23.75 12.43 23.75 Z"/></mask></defs><g><path fill="#8ae0ae" fill-rule="nonzero" stroke="none" d="M 12.43 23.75 C 6.13 23.75 0.129999999999995 18.75 0.129999999999995 12.55 C 0.129999999999995 6.25 6.13 0.25 12.43 0.25 C 18.63 0.25 23.63 6.25 23.63 12.55 C 23.63 18.75 18.63 23.75 12.43 23.75 Z" transform="matrix(1 0 0 1 -873 -15796 ) matrix(1 0 0 1 873 15796 )"/><path fill="none" stroke="#8ae0ae" stroke-width="2" d="M 12.43 23.75 C 6.13 23.75 0.129999999999995 18.75 0.129999999999995 12.55 C 0.129999999999995 6.25 6.13 0.25 12.43 0.25 C 18.63 0.25 23.63 6.25 23.63 12.55 C 23.63 18.75 18.63 23.75 12.43 23.75 Z" mask="url(#clip2382)" transform="matrix(1 0 0 1 -873 -15796 ) matrix(1 0 0 1 873 15796 )"/></g></svg>