<?xml version="1.0" encoding="utf-8"?>
<svg version="1.1" xmlns:xlink="http://www.w3.org/1999/xlink" width="150px" height="24px" xmlns="http://www.w3.org/2000/svg">
  <defs>
    <mask fill="white" id="clip915">
      <path d="M 0.780000000000001 23.38  C 0.780000000000001 23.38  0.780000000000001 0.379999999999995  0.780000000000001 0.379999999999995  C 0.780000000000001 0.379999999999995  149.68 0.379999999999995  149.68 0.379999999999995  C 149.68 0.379999999999995  149.68 23.38  149.68 23.38  C 149.68 23.38  0.780000000000001 23.38  0.780000000000001 23.38  Z " fill-rule="evenodd" />
    </mask>
  </defs>
  <g transform="matrix(1 0 0 1 -158 -14558 )">
    <path d="M 0.780000000000001 23.38  C 0.780000000000001 23.38  0.780000000000001 0.379999999999995  0.780000000000001 0.379999999999995  C 0.780000000000001 0.379999999999995  149.68 0.379999999999995  149.68 0.379999999999995  C 149.68 0.379999999999995  149.68 23.38  149.68 23.38  C 149.68 23.38  0.780000000000001 23.38  0.780000000000001 23.38  Z " fill-rule="nonzero" fill="#add8e6" stroke="none" transform="matrix(1 0 0 1 158 14558 )" />
    <path d="M 0.780000000000001 23.38  C 0.780000000000001 23.38  0.780000000000001 0.379999999999995  0.780000000000001 0.379999999999995  C 0.780000000000001 0.379999999999995  149.68 0.379999999999995  149.68 0.379999999999995  C 149.68 0.379999999999995  149.68 23.38  149.68 23.38  C 149.68 23.38  0.780000000000001 23.38  0.780000000000001 23.38  Z " stroke-width="2" stroke="#6fbbd3" fill="none" transform="matrix(1 0 0 1 158 14558 )" mask="url(#clip915)" />
  </g>
</svg>