<svg xmlns="http://www.w3.org/2000/svg" xmlns:xlink="http://www.w3.org/1999/xlink" width="23" height="24" version="1.1"><defs><mask id="clip2291" fill="#fff"><path fill-rule="evenodd" d="M 0.220000000000027 23.93 C 0.220000000000027 23.93 0.220000000000027 0.230000000000018 0.220000000000027 0.230000000000018 C 0.220000000000027 0.230000000000018 22.52 0.230000000000018 22.52 0.230000000000018 C 22.52 0.230000000000018 22.52 23.93 22.52 23.93 C 22.52 23.93 0.220000000000027 23.93 0.220000000000027 23.93 Z"/></mask></defs><g><path fill="#733a11" fill-rule="nonzero" stroke="none" d="M 0.220000000000027 23.93 C 0.220000000000027 23.93 0.220000000000027 0.230000000000018 0.220000000000027 0.230000000000018 C 0.220000000000027 0.230000000000018 22.52 0.230000000000018 22.52 0.230000000000018 C 22.52 0.230000000000018 22.52 23.93 22.52 23.93 C 22.52 23.93 0.220000000000027 23.93 0.220000000000027 23.93 Z" transform="matrix(1 0 0 1 -571 -14477 ) matrix(1 0 0 1 571 14477 )"/><path fill="none" stroke="#733a11" stroke-width="2" d="M 0.220000000000027 23.93 C 0.220000000000027 23.93 0.220000000000027 0.230000000000018 0.220000000000027 0.230000000000018 C 0.220000000000027 0.230000000000018 22.52 0.230000000000018 22.52 0.230000000000018 C 22.52 0.230000000000018 22.52 23.93 22.52 23.93 C 22.52 23.93 0.220000000000027 23.93 0.220000000000027 23.93 Z" mask="url(#clip2291)" transform="matrix(1 0 0 1 -571 -14477 ) matrix(1 0 0 1 571 14477 )"/></g></svg>