<svg xmlns="http://www.w3.org/2000/svg" xmlns:xlink="http://www.w3.org/1999/xlink" width="62" height="62" version="1.1"><defs><mask id="clip2393" fill="#fff"><path fill-rule="evenodd" d="M 0.539999999999992 61.3099999999999 C 0.539999999999992 61.3099999999999 0.539999999999992 0.309999999999945 0.539999999999992 0.309999999999945 C 0.539999999999992 0.309999999999945 61.54 0.309999999999945 61.54 0.309999999999945 C 61.54 0.309999999999945 61.54 61.3099999999999 61.54 61.3099999999999 C 61.54 61.3099999999999 0.539999999999992 61.3099999999999 0.539999999999992 61.3099999999999 Z"/></mask></defs><g><path fill="#fff" fill-opacity="0" fill-rule="nonzero" stroke="none" d="M 0.539999999999992 61.3099999999999 C 0.539999999999992 61.3099999999999 0.539999999999992 0.309999999999945 0.539999999999992 0.309999999999945 C 0.539999999999992 0.309999999999945 61.54 0.309999999999945 61.54 0.309999999999945 C 61.54 0.309999999999945 61.54 61.3099999999999 61.54 61.3099999999999 C 61.54 61.3099999999999 0.539999999999992 61.3099999999999 0.539999999999992 61.3099999999999 Z" transform="matrix(1 0 0 1 -323 -16670 ) matrix(1 0 0 1 323 16670 )"/><path fill="none" stroke="#5a5a5a" stroke-width="2" d="M 0.539999999999992 61.3099999999999 C 0.539999999999992 61.3099999999999 0.539999999999992 0.309999999999945 0.539999999999992 0.309999999999945 C 0.539999999999992 0.309999999999945 61.54 0.309999999999945 61.54 0.309999999999945 C 61.54 0.309999999999945 61.54 61.3099999999999 61.54 61.3099999999999 C 61.54 61.3099999999999 0.539999999999992 61.3099999999999 0.539999999999992 61.3099999999999 Z" mask="url(#clip2393)" transform="matrix(1 0 0 1 -323 -16670 ) matrix(1 0 0 1 323 16670 )"/></g></svg>