<?xml version="1.0" encoding="utf-8"?>
<svg version="1.1" xmlns:xlink="http://www.w3.org/1999/xlink" width="23px" height="25px" xmlns="http://www.w3.org/2000/svg">
  <defs>
    <mask fill="white" id="clip790">
      <path d="M 0.220000000000027 24.67  C 0.220000000000027 24.67  0.220000000000027 0.970000000000027  0.220000000000027 0.970000000000027  C 0.220000000000027 0.970000000000027  22.52 0.970000000000027  22.52 0.970000000000027  C 22.52 0.970000000000027  22.52 24.67  22.52 24.67  C 22.52 24.67  0.220000000000027 24.67  0.220000000000027 24.67  Z " fill-rule="evenodd" />
    </mask>
  </defs>
  <g transform="matrix(1 0 0 1 -571 -14635 )">
    <path d="M 0.220000000000027 24.67  C 0.220000000000027 24.67  0.220000000000027 0.970000000000027  0.220000000000027 0.970000000000027  C 0.220000000000027 0.970000000000027  22.52 0.970000000000027  22.52 0.970000000000027  C 22.52 0.970000000000027  22.52 24.67  22.52 24.67  C 22.52 24.67  0.220000000000027 24.67  0.220000000000027 24.67  Z " fill-rule="nonzero" fill="#edc3a5" stroke="none" transform="matrix(1 0 0 1 571 14635 )" />
    <path d="M 0.220000000000027 24.67  C 0.220000000000027 24.67  0.220000000000027 0.970000000000027  0.220000000000027 0.970000000000027  C 0.220000000000027 0.970000000000027  22.52 0.970000000000027  22.52 0.970000000000027  C 22.52 0.970000000000027  22.52 24.67  22.52 24.67  C 22.52 24.67  0.220000000000027 24.67  0.220000000000027 24.67  Z " stroke-width="2" stroke="#edc3a5" fill="none" transform="matrix(1 0 0 1 571 14635 )" mask="url(#clip790)" />
  </g>
</svg>