<?xml version="1.0" encoding="utf-8"?>
<svg version="1.1" xmlns:xlink="http://www.w3.org/1999/xlink" width="4px" height="5px" xmlns="http://www.w3.org/2000/svg">
  <defs>
    <mask fill="white" id="clip335">
      <path d="M 1.42999999999995 4.48999999999998  C 0.92999999999995 4.48999999999998  0.42999999999995 3.88999999999999  0.42999999999995 3.19  C 0.42999999999995 2.48999999999998  0.92999999999995 0.889999999999986  1.42999999999995 0.889999999999986  C 2.02999999999997 0.889999999999986  3.52999999999997 2.48999999999998  3.52999999999997 3.19  C 3.52999999999997 3.88999999999999  2.02999999999997 4.48999999999998  1.42999999999995 4.48999999999998  Z " fill-rule="evenodd" />
    </mask>
  </defs>
  <g transform="matrix(1 0 0 1 -453 -6896 )">
    <path d="M 1.42999999999995 4.48999999999998  C 0.92999999999995 4.48999999999998  0.42999999999995 3.88999999999999  0.42999999999995 3.19  C 0.42999999999995 2.48999999999998  0.92999999999995 0.889999999999986  1.42999999999995 0.889999999999986  C 2.02999999999997 0.889999999999986  3.52999999999997 2.48999999999998  3.52999999999997 3.19  C 3.52999999999997 3.88999999999999  2.02999999999997 4.48999999999998  1.42999999999995 4.48999999999998  Z " fill-rule="nonzero" fill="#3e3938" stroke="none" transform="matrix(1 0 0 1 453 6896 )" />
    <path d="M 1.42999999999995 4.48999999999998  C 0.92999999999995 4.48999999999998  0.42999999999995 3.88999999999999  0.42999999999995 3.19  C 0.42999999999995 2.48999999999998  0.92999999999995 0.889999999999986  1.42999999999995 0.889999999999986  C 2.02999999999997 0.889999999999986  3.52999999999997 2.48999999999998  3.52999999999997 3.19  C 3.52999999999997 3.88999999999999  2.02999999999997 4.48999999999998  1.42999999999995 4.48999999999998  Z " stroke-width="2" stroke="#3e3938" fill="none" transform="matrix(1 0 0 1 453 6896 )" mask="url(#clip335)" />
  </g>
</svg>