<?xml version="1.0" encoding="utf-8"?>
<svg version="1.1" xmlns:xlink="http://www.w3.org/1999/xlink" width="527px" height="331px" xmlns="http://www.w3.org/2000/svg">
  <defs>
    <mask fill="white" id="clip685">
      <path d="M 11.32 330.44  C 11.32 330.44  514.82 330.44  514.82 330.44  C 521.02 330.44  526.12 325.34  526.12 319.14  C 526.12 319.14  526.12 11.94  526.12 11.94  C 526.12 5.74000000000001  521.02 0.639999999999986  514.82 0.639999999999986  C 514.82 0.639999999999986  11.32 0.639999999999986  11.32 0.639999999999986  C 5.12 0.639999999999986  0.019999999999996 5.74000000000001  0.019999999999996 11.94  C 0.019999999999996 11.94  0.019999999999996 319.14  0.019999999999996 319.14  C 0.019999999999996 325.34  5.12 330.44  11.32 330.44  Z " fill-rule="evenodd" />
    </mask>
  </defs>
  <g transform="matrix(1 0 0 1 -117 -14721 )">
    <path d="M 11.32 330.44  C 11.32 330.44  514.82 330.44  514.82 330.44  C 521.02 330.44  526.12 325.34  526.12 319.14  C 526.12 319.14  526.12 11.94  526.12 11.94  C 526.12 5.74000000000001  521.02 0.639999999999986  514.82 0.639999999999986  C 514.82 0.639999999999986  11.32 0.639999999999986  11.32 0.639999999999986  C 5.12 0.639999999999986  0.019999999999996 5.74000000000001  0.019999999999996 11.94  C 0.019999999999996 11.94  0.019999999999996 319.14  0.019999999999996 319.14  C 0.019999999999996 325.34  5.12 330.44  11.32 330.44  Z " fill-rule="nonzero" fill="#85c2d8" stroke="none" transform="matrix(1 0 0 1 117 14721 )" />
    <path d="M 11.32 330.44  C 11.32 330.44  514.82 330.44  514.82 330.44  C 521.02 330.44  526.12 325.34  526.12 319.14  C 526.12 319.14  526.12 11.94  526.12 11.94  C 526.12 5.74000000000001  521.02 0.639999999999986  514.82 0.639999999999986  C 514.82 0.639999999999986  11.32 0.639999999999986  11.32 0.639999999999986  C 5.12 0.639999999999986  0.019999999999996 5.74000000000001  0.019999999999996 11.94  C 0.019999999999996 11.94  0.019999999999996 319.14  0.019999999999996 319.14  C 0.019999999999996 325.34  5.12 330.44  11.32 330.44  Z " stroke-width="2" stroke="#85c2d8" fill="none" transform="matrix(1 0 0 1 117 14721 )" mask="url(#clip685)" />
  </g>
</svg>