<svg xmlns="http://www.w3.org/2000/svg" xmlns:xlink="http://www.w3.org/1999/xlink" width="345" height="15" version="1.1"><defs><mask id="clip2312" fill="#fff"><path fill-rule="evenodd" d="M 0.619999999999891 14.05 C 0.619999999999891 14.05 0.619999999999891 0.949999999999932 0.619999999999891 0.949999999999932 C 0.619999999999891 0.949999999999932 344.72 0.949999999999932 344.72 0.949999999999932 C 344.72 0.949999999999932 344.72 14.05 344.72 14.05 C 344.72 14.05 0.619999999999891 14.05 0.619999999999891 14.05 Z"/></mask></defs><g><path fill="#fff" fill-opacity="0" fill-rule="nonzero" stroke="none" d="M 0.619999999999891 14.05 C 0.619999999999891 14.05 0.619999999999891 0.949999999999932 0.619999999999891 0.949999999999932 C 0.619999999999891 0.949999999999932 344.72 0.949999999999932 344.72 0.949999999999932 C 344.72 0.949999999999932 344.72 14.05 344.72 14.05 C 344.72 14.05 0.619999999999891 14.05 0.619999999999891 14.05 Z" transform="matrix(1 0 0 1 -748 -14793 ) matrix(1 0 0 1 748 14793 )"/><path fill="none" stroke="#787878" stroke-width="2" d="M 0.619999999999891 14.05 C 0.619999999999891 14.05 0.619999999999891 0.949999999999932 0.619999999999891 0.949999999999932 C 0.619999999999891 0.949999999999932 344.72 0.949999999999932 344.72 0.949999999999932 C 344.72 0.949999999999932 344.72 14.05 344.72 14.05 C 344.72 14.05 0.619999999999891 14.05 0.619999999999891 14.05 Z" mask="url(#clip2312)" transform="matrix(1 0 0 1 -748 -14793 ) matrix(1 0 0 1 748 14793 )"/></g></svg>