<?xml version="1.0" encoding="utf-8"?>
<svg version="1.1" xmlns:xlink="http://www.w3.org/1999/xlink" width="21px" height="21px" xmlns="http://www.w3.org/2000/svg">
  <defs>
    <mask fill="white" id="clip377">
      <path d="M 10.615 20.655  C 10.615 20.655  0.465000000000032 10.755  0.465000000000032 10.755  C 0.465000000000032 10.755  10.615 0.605000000000018  10.615 0.605000000000018  C 10.615 0.605000000000018  20.515 10.755  20.515 10.755  C 20.515 10.755  10.615 20.655  10.615 20.655  Z " fill-rule="evenodd" />
    </mask>
  </defs>
  <g transform="matrix(1 0 0 1 -907 -4531 )">
    <path d="M 10.615 20.655  C 10.615 20.655  0.465000000000032 10.755  0.465000000000032 10.755  C 0.465000000000032 10.755  10.615 0.605000000000018  10.615 0.605000000000018  C 10.615 0.605000000000018  20.515 10.755  20.515 10.755  C 20.515 10.755  10.615 20.655  10.615 20.655  Z " fill-rule="nonzero" fill="#2f7a8e" stroke="none" transform="matrix(1 0 0 1 907 4531 )" />
    <path d="M 10.615 20.655  C 10.615 20.655  0.465000000000032 10.755  0.465000000000032 10.755  C 0.465000000000032 10.755  10.615 0.605000000000018  10.615 0.605000000000018  C 10.615 0.605000000000018  20.515 10.755  20.515 10.755  C 20.515 10.755  10.615 20.655  10.615 20.655  Z " stroke-width="0.5" stroke="#2f7a8e" fill="none" transform="matrix(1 0 0 1 907 4531 )" mask="url(#clip377)" />
  </g>
</svg>