<?xml version="1.0" encoding="utf-8"?>
<svg version="1.1" xmlns:xlink="http://www.w3.org/1999/xlink" width="1108px" height="174px" xmlns="http://www.w3.org/2000/svg">
  <defs>
    <mask fill="white" id="clip519">
      <path d="M 0.5 173.08  C 0.5 173.08  0.5 0.879999999999995  0.5 0.879999999999995  C 0.5 0.879999999999995  1107.5 0.879999999999995  1107.5 0.879999999999995  C 1107.5 0.879999999999995  1107.5 173.08  1107.5 173.08  C 1107.5 173.08  0.5 173.08  0.5 173.08  Z " fill-rule="evenodd" />
    </mask>
  </defs>
  <g transform="matrix(1 0 0 1 -98 -11037 )">
    <path d="M 0.5 173.08  C 0.5 173.08  0.5 0.879999999999995  0.5 0.879999999999995  C 0.5 0.879999999999995  1107.5 0.879999999999995  1107.5 0.879999999999995  C 1107.5 0.879999999999995  1107.5 173.08  1107.5 173.08  C 1107.5 173.08  0.5 173.08  0.5 173.08  Z " fill-rule="nonzero" fill="#ffffff" stroke="none" fill-opacity="0" transform="matrix(1 0 0 1 98 11037 )" />
    <path d="M 0.5 173.08  C 0.5 173.08  0.5 0.879999999999995  0.5 0.879999999999995  C 0.5 0.879999999999995  1107.5 0.879999999999995  1107.5 0.879999999999995  C 1107.5 0.879999999999995  1107.5 173.08  1107.5 173.08  C 1107.5 173.08  0.5 173.08  0.5 173.08  Z " stroke-width="2" stroke="#ffffff" fill="none" transform="matrix(1 0 0 1 98 11037 )" mask="url(#clip519)" />
  </g>
</svg>