<svg xmlns="http://www.w3.org/2000/svg" xmlns:xlink="http://www.w3.org/1999/xlink" width="56" height="60" version="1.1"><defs><mask id="clip2100" fill="#fff"><path fill-rule="evenodd" d="M 36.21 59.6099999999999 C 36.21 59.6099999999999 20.31 59.6099999999999 20.31 59.6099999999999 C 9.50999999999999 59.6099999999999 0.709999999999994 50.8099999999999 0.709999999999994 40.01 C 0.709999999999994 40.01 0.709999999999994 20.51 0.709999999999994 20.51 C 0.709999999999994 9.6099999999999 9.50999999999999 0.809999999999945 20.31 0.809999999999945 C 20.31 0.809999999999945 36.21 0.809999999999945 36.21 0.809999999999945 C 47.11 0.809999999999945 55.91 9.6099999999999 55.91 20.51 C 55.91 20.51 55.91 40.01 55.91 40.01 C 55.91 50.8099999999999 47.11 59.6099999999999 36.21 59.6099999999999 Z"/></mask></defs><g><path fill="#cdcece" fill-opacity=".078" fill-rule="nonzero" stroke="none" d="M 36.21 59.6099999999999 C 36.21 59.6099999999999 20.31 59.6099999999999 20.31 59.6099999999999 C 9.50999999999999 59.6099999999999 0.709999999999994 50.8099999999999 0.709999999999994 40.01 C 0.709999999999994 40.01 0.709999999999994 20.51 0.709999999999994 20.51 C 0.709999999999994 9.6099999999999 9.50999999999999 0.809999999999945 20.31 0.809999999999945 C 20.31 0.809999999999945 36.21 0.809999999999945 36.21 0.809999999999945 C 47.11 0.809999999999945 55.91 9.6099999999999 55.91 20.51 C 55.91 20.51 55.91 40.01 55.91 40.01 C 55.91 50.8099999999999 47.11 59.6099999999999 36.21 59.6099999999999 Z" transform="matrix(1 0 0 1 -162 -13114 ) matrix(1 0 0 1 162 13114 )"/><path fill="none" stroke="#cdcece" stroke-opacity=".059" stroke-width="2" d="M 36.21 59.6099999999999 C 36.21 59.6099999999999 20.31 59.6099999999999 20.31 59.6099999999999 C 9.50999999999999 59.6099999999999 0.709999999999994 50.8099999999999 0.709999999999994 40.01 C 0.709999999999994 40.01 0.709999999999994 20.51 0.709999999999994 20.51 C 0.709999999999994 9.6099999999999 9.50999999999999 0.809999999999945 20.31 0.809999999999945 C 20.31 0.809999999999945 36.21 0.809999999999945 36.21 0.809999999999945 C 47.11 0.809999999999945 55.91 9.6099999999999 55.91 20.51 C 55.91 20.51 55.91 40.01 55.91 40.01 C 55.91 50.8099999999999 47.11 59.6099999999999 36.21 59.6099999999999 Z" mask="url(#clip2100)" transform="matrix(1 0 0 1 -162 -13114 ) matrix(1 0 0 1 162 13114 )"/></g></svg>