<svg xmlns="http://www.w3.org/2000/svg" xmlns:xlink="http://www.w3.org/1999/xlink" width="29" height="29" version="1.1"><defs><mask id="clip1995" fill="#fff"><path fill-rule="evenodd" d="M 0.900000000000006 3.03 C 0.900000000000006 1.83000000000001 1.80000000000001 0.930000000000007 3 0.930000000000007 C 3 0.930000000000007 26.2 0.930000000000007 26.2 0.930000000000007 C 27.4 0.930000000000007 28.4 1.83000000000001 28.4 3.03 C 28.4 3.03 28.4 26.23 28.4 26.23 C 28.4 27.43 27.4 28.43 26.2 28.43 C 26.2 28.43 3 28.43 3 28.43 C 1.80000000000001 28.43 0.900000000000006 27.43 0.900000000000006 26.23 C 0.900000000000006 26.23 0.900000000000006 3.03 0.900000000000006 3.03 Z"/></mask></defs><g><path fill="#00ae9d" fill-rule="nonzero" stroke="none" d="M 0.900000000000006 3.03 C 0.900000000000006 1.83000000000001 1.80000000000001 0.930000000000007 3 0.930000000000007 C 3 0.930000000000007 26.2 0.930000000000007 26.2 0.930000000000007 C 27.4 0.930000000000007 28.4 1.83000000000001 28.4 3.03 C 28.4 3.03 28.4 26.23 28.4 26.23 C 28.4 27.43 27.4 28.43 26.2 28.43 C 26.2 28.43 3 28.43 3 28.43 C 1.80000000000001 28.43 0.900000000000006 27.43 0.900000000000006 26.23 C 0.900000000000006 26.23 0.900000000000006 3.03 0.900000000000006 3.03 Z" transform="matrix(1 0 0 1 -176 -8659 ) matrix(1 0 0 1 176 8659 )"/><path fill="none" stroke="#00ae9d" stroke-width="2" d="M 0.900000000000006 3.03 C 0.900000000000006 1.83000000000001 1.80000000000001 0.930000000000007 3 0.930000000000007 C 3 0.930000000000007 26.2 0.930000000000007 26.2 0.930000000000007 C 27.4 0.930000000000007 28.4 1.83000000000001 28.4 3.03 C 28.4 3.03 28.4 26.23 28.4 26.23 C 28.4 27.43 27.4 28.43 26.2 28.43 C 26.2 28.43 3 28.43 3 28.43 C 1.80000000000001 28.43 0.900000000000006 27.43 0.900000000000006 26.23 C 0.900000000000006 26.23 0.900000000000006 3.03 0.900000000000006 3.03 Z" mask="url(#clip1995)" transform="matrix(1 0 0 1 -176 -8659 ) matrix(1 0 0 1 176 8659 )"/></g></svg>