<svg xmlns="http://www.w3.org/2000/svg" xmlns:xlink="http://www.w3.org/1999/xlink" width="1122" height="18" version="1.1"><defs><mask id="clip1689" fill="#fff"><path fill-rule="evenodd" d="M 0.76 17.55 C 0.76 17.55 0.76 0.35 0.76 0.35 C 0.76 0.35 1121.76 0.35 1121.76 0.35 C 1121.76 0.35 1121.76 17.55 1121.76 17.55 C 1121.76 17.55 0.76 17.55 0.76 17.55 Z"/></mask></defs><g><path fill="#9cbde8" fill-rule="nonzero" stroke="none" d="M 0.76 17.55 C 0.76 17.55 0.76 0.35 0.76 0.35 C 0.76 0.35 1121.76 0.35 1121.76 0.35 C 1121.76 0.35 1121.76 17.55 1121.76 17.55 C 1121.76 17.55 0.76 17.55 0.76 17.55 Z" transform="matrix(1 0 0 1 -89 -2280 ) matrix(1 0 0 1 89 2280 )"/><path fill="none" stroke="#9cbde8" stroke-width="2" d="M 0.76 17.55 C 0.76 17.55 0.76 0.35 0.76 0.35 C 0.76 0.35 1121.76 0.35 1121.76 0.35 C 1121.76 0.35 1121.76 17.55 1121.76 17.55 C 1121.76 17.55 0.76 17.55 0.76 17.55 Z" mask="url(#clip1689)" transform="matrix(1 0 0 1 -89 -2280 ) matrix(1 0 0 1 89 2280 )"/></g></svg>