<?xml version="1.0" encoding="utf-8"?>
<svg version="1.1" xmlns:xlink="http://www.w3.org/1999/xlink" width="284px" height="25px" xmlns="http://www.w3.org/2000/svg">
  <defs>
    <linearGradient gradientUnits="userSpaceOnUse" x1="0.850000000000007" y1="0.849999999999973" x2="0.850000000000007" y2="24.35" id="LinearGradient977">
      <stop id="Stop978" stop-color="#e4e4e4" offset="0" />
      <stop id="Stop979" stop-color="#ededed" offset="0.2" />
      <stop id="Stop980" stop-color="#bdbdbd" offset="0.8" />
      <stop id="Stop981" stop-color="#a8a8a8" offset="1" />
    </linearGradient>
    <mask fill="white" id="clip982">
      <path d="M 0.350000000000023 24.85  C 0.350000000000023 24.85  0.350000000000023 0.349999999999994  0.350000000000023 0.349999999999994  C 0.350000000000023 0.349999999999994  283.55 0.349999999999994  283.55 0.349999999999994  C 283.55 0.349999999999994  283.55 24.85  283.55 24.85  C 283.55 24.85  0.350000000000023 24.85  0.350000000000023 24.85  Z " fill-rule="evenodd" />
    </mask>
  </defs>
  <g transform="matrix(1 0 0 1 -883 -17162 )">
    <path d="M 0.350000000000023 24.85  C 0.350000000000023 24.85  0.350000000000023 0.349999999999994  0.350000000000023 0.349999999999994  C 0.350000000000023 0.349999999999994  283.55 0.349999999999994  283.55 0.349999999999994  C 283.55 0.349999999999994  283.55 24.85  283.55 24.85  C 283.55 24.85  0.350000000000023 24.85  0.350000000000023 24.85  Z " fill-rule="nonzero" fill="url(#LinearGradient977)" stroke="none" transform="matrix(1 0 0 1 883 17162 )" />
    <path d="M 0.350000000000023 24.85  C 0.350000000000023 24.85  0.350000000000023 0.349999999999994  0.350000000000023 0.349999999999994  C 0.350000000000023 0.349999999999994  283.55 0.349999999999994  283.55 0.349999999999994  C 283.55 0.349999999999994  283.55 24.85  283.55 24.85  C 283.55 24.85  0.350000000000023 24.85  0.350000000000023 24.85  Z " stroke-width="2" stroke="#787878" fill="none" transform="matrix(1 0 0 1 883 17162 )" mask="url(#clip982)" />
  </g>
</svg>