<svg xmlns="http://www.w3.org/2000/svg" xmlns:xlink="http://www.w3.org/1999/xlink" width="3" height="3" version="1.1"><defs><mask id="clip1836" fill="#fff"><path fill-rule="evenodd" d="M 1.91000000000003 0.350000000000023 C 2.31000000000006 0.350000000000023 2.61000000000001 1.65000000000003 2.61000000000001 2.05000000000001 C 2.61000000000001 2.45000000000005 2.31000000000006 2.75 1.91000000000003 2.75 C 1.51000000000005 2.75 0.210000000000036 2.45000000000005 0.210000000000036 2.05000000000001 C 0.210000000000036 1.65000000000003 1.51000000000005 0.350000000000023 1.91000000000003 0.350000000000023 Z"/></mask></defs><g><path fill="#fff" fill-rule="nonzero" stroke="none" d="M 1.91000000000003 0.350000000000023 C 2.31000000000006 0.350000000000023 2.61000000000001 1.65000000000003 2.61000000000001 2.05000000000001 C 2.61000000000001 2.45000000000005 2.31000000000006 2.75 1.91000000000003 2.75 C 1.51000000000005 2.75 0.210000000000036 2.45000000000005 0.210000000000036 2.05000000000001 C 0.210000000000036 1.65000000000003 1.51000000000005 0.350000000000023 1.91000000000003 0.350000000000023 Z" transform="matrix(1 0 0 1 -419 -7230 ) matrix(1 0 0 1 419 7230 )"/><path fill="none" stroke="#fff" stroke-width="2" d="M 1.91000000000003 0.350000000000023 C 2.31000000000006 0.350000000000023 2.61000000000001 1.65000000000003 2.61000000000001 2.05000000000001 C 2.61000000000001 2.45000000000005 2.31000000000006 2.75 1.91000000000003 2.75 C 1.51000000000005 2.75 0.210000000000036 2.45000000000005 0.210000000000036 2.05000000000001 C 0.210000000000036 1.65000000000003 1.51000000000005 0.350000000000023 1.91000000000003 0.350000000000023 Z" mask="url(#clip1836)" transform="matrix(1 0 0 1 -419 -7230 ) matrix(1 0 0 1 419 7230 )"/></g></svg>