<?xml version="1.0" encoding="utf-8"?>
<svg version="1.1" xmlns:xlink="http://www.w3.org/1999/xlink" width="21px" height="21px" xmlns="http://www.w3.org/2000/svg">
  <defs>
    <mask fill="white" id="clip202">
      <path d="M 10.715 20.655  C 10.715 20.655  0.564999999999998 10.755  0.564999999999998 10.755  C 0.564999999999998 10.755  10.715 0.605000000000018  10.715 0.605000000000018  C 10.715 0.605000000000018  20.615 10.755  20.615 10.755  C 20.615 10.755  10.715 20.655  10.715 20.655  Z " fill-rule="evenodd" />
    </mask>
  </defs>
  <g transform="matrix(1 0 0 1 -207 -4531 )">
    <path d="M 10.715 20.655  C 10.715 20.655  0.564999999999998 10.755  0.564999999999998 10.755  C 0.564999999999998 10.755  10.715 0.605000000000018  10.715 0.605000000000018  C 10.715 0.605000000000018  20.615 10.755  20.615 10.755  C 20.615 10.755  10.715 20.655  10.715 20.655  Z " fill-rule="nonzero" fill="#fb9d53" stroke="none" transform="matrix(1 0 0 1 207 4531 )" />
    <path d="M 10.715 20.655  C 10.715 20.655  0.564999999999998 10.755  0.564999999999998 10.755  C 0.564999999999998 10.755  10.715 0.605000000000018  10.715 0.605000000000018  C 10.715 0.605000000000018  20.615 10.755  20.615 10.755  C 20.615 10.755  10.715 20.655  10.715 20.655  Z " stroke-width="0.5" stroke="#fb9d53" fill="none" transform="matrix(1 0 0 1 207 4531 )" mask="url(#clip202)" />
  </g>
</svg>