<?xml version="1.0" encoding="utf-8"?>
<svg version="1.1" xmlns:xlink="http://www.w3.org/1999/xlink" width="98px" height="232px" xmlns="http://www.w3.org/2000/svg">
  <defs>
    <mask fill="white" id="clip747">
      <path d="M 0.969999999999999 231.3  C 0.969999999999999 231.3  0.969999999999999 0.899999999999977  0.969999999999999 0.899999999999977  C 0.969999999999999 0.899999999999977  97.17 0.899999999999977  97.17 0.899999999999977  C 97.17 0.899999999999977  97.17 231.3  97.17 231.3  C 97.17 231.3  0.969999999999999 231.3  0.969999999999999 231.3  Z " fill-rule="evenodd" />
    </mask>
  </defs>
  <g transform="matrix(1 0 0 1 -331 -14787 )">
    <path d="M 0.969999999999999 231.3  C 0.969999999999999 231.3  0.969999999999999 0.899999999999977  0.969999999999999 0.899999999999977  C 0.969999999999999 0.899999999999977  97.17 0.899999999999977  97.17 0.899999999999977  C 97.17 0.899999999999977  97.17 231.3  97.17 231.3  C 97.17 231.3  0.969999999999999 231.3  0.969999999999999 231.3  Z " fill-rule="nonzero" fill="#f5f5f5" stroke="none" transform="matrix(1 0 0 1 331 14787 )" />
    <path d="M 0.969999999999999 231.3  C 0.969999999999999 231.3  0.969999999999999 0.899999999999977  0.969999999999999 0.899999999999977  C 0.969999999999999 0.899999999999977  97.17 0.899999999999977  97.17 0.899999999999977  C 97.17 0.899999999999977  97.17 231.3  97.17 231.3  C 97.17 231.3  0.969999999999999 231.3  0.969999999999999 231.3  Z " stroke-width="2" stroke="#d2d2d2" fill="none" transform="matrix(1 0 0 1 331 14787 )" mask="url(#clip747)" />
  </g>
</svg>