<?xml version="1.0" encoding="utf-8"?>
<svg version="1.1" xmlns:xlink="http://www.w3.org/1999/xlink" width="284px" height="26px" xmlns="http://www.w3.org/2000/svg">
  <defs>
    <linearGradient gradientUnits="userSpaceOnUse" x1="225718.52" y1="4909.305" x2="225718.52" y2="5461.555" id="LinearGradient980">
      <stop id="Stop981" stop-color="#e4e4e4" offset="0" />
      <stop id="Stop982" stop-color="#ededed" offset="0.2" />
      <stop id="Stop983" stop-color="#bdbdbd" offset="0.8" />
      <stop id="Stop984" stop-color="#a8a8a8" offset="1" />
    </linearGradient>
    <mask fill="white" id="clip985">
      <path d="M 0.350000000000023 25.33  C 0.350000000000023 25.33  0.350000000000023 0.829999999999984  0.350000000000023 0.829999999999984  C 0.350000000000023 0.829999999999984  283.55 0.829999999999984  283.55 0.829999999999984  C 283.55 0.829999999999984  283.55 25.33  283.55 25.33  C 283.55 25.33  0.350000000000023 25.33  0.350000000000023 25.33  Z " fill-rule="evenodd" />
    </mask>
  </defs>
  <g transform="matrix(1 0 0 1 -883 -17265 )">
    <path d="M 0.350000000000023 25.33  C 0.350000000000023 25.33  0.350000000000023 0.829999999999984  0.350000000000023 0.829999999999984  C 0.350000000000023 0.829999999999984  283.55 0.829999999999984  283.55 0.829999999999984  C 283.55 0.829999999999984  283.55 25.33  283.55 25.33  C 283.55 25.33  0.350000000000023 25.33  0.350000000000023 25.33  Z " fill-rule="nonzero" fill="url(#LinearGradient980)" stroke="none" transform="matrix(1 0 0 1 883 17265 )" />
    <path d="M 0.350000000000023 25.33  C 0.350000000000023 25.33  0.350000000000023 0.829999999999984  0.350000000000023 0.829999999999984  C 0.350000000000023 0.829999999999984  283.55 0.829999999999984  283.55 0.829999999999984  C 283.55 0.829999999999984  283.55 25.33  283.55 25.33  C 283.55 25.33  0.350000000000023 25.33  0.350000000000023 25.33  Z " stroke-width="2" stroke="#787878" fill="none" transform="matrix(1 0 0 1 883 17265 )" mask="url(#clip985)" />
  </g>
</svg>