<svg xmlns="http://www.w3.org/2000/svg" xmlns:xlink="http://www.w3.org/1999/xlink" width="666" height="258" version="1.1"><defs><mask id="clip2625" fill="#fff"><path fill-rule="evenodd" d="M 12.07 257.34 C 12.07 257.34 654.07 257.34 654.07 257.34 C 660.27 257.34 665.37 252.24 665.37 246.04 C 665.37 246.04 665.37 11.84 665.37 11.84 C 665.37 5.64 660.27 0.540000000000006 654.07 0.540000000000006 C 654.07 0.540000000000006 12.07 0.540000000000006 12.07 0.540000000000006 C 5.87 0.540000000000006 0.769999999999996 5.64 0.769999999999996 11.84 C 0.769999999999996 11.84 0.769999999999996 246.04 0.769999999999996 246.04 C 0.769999999999996 252.24 5.87 257.34 12.07 257.34 Z"/></mask></defs><g><path fill="#fff" fill-opacity="0" fill-rule="nonzero" stroke="none" d="M 12.07 257.34 C 12.07 257.34 654.07 257.34 654.07 257.34 C 660.27 257.34 665.37 252.24 665.37 246.04 C 665.37 246.04 665.37 11.84 665.37 11.84 C 665.37 5.64 660.27 0.540000000000006 654.07 0.540000000000006 C 654.07 0.540000000000006 12.07 0.540000000000006 12.07 0.540000000000006 C 5.87 0.540000000000006 0.769999999999996 5.64 0.769999999999996 11.84 C 0.769999999999996 11.84 0.769999999999996 246.04 0.769999999999996 246.04 C 0.769999999999996 252.24 5.87 257.34 12.07 257.34 Z" transform="matrix(1 0 0 1 -119 -17066 ) matrix(1 0 0 1 119 17066 )"/><path fill="none" stroke="#cad4cc" stroke-width="2" d="M 12.07 257.34 C 12.07 257.34 654.07 257.34 654.07 257.34 C 660.27 257.34 665.37 252.24 665.37 246.04 C 665.37 246.04 665.37 11.84 665.37 11.84 C 665.37 5.64 660.27 0.540000000000006 654.07 0.540000000000006 C 654.07 0.540000000000006 12.07 0.540000000000006 12.07 0.540000000000006 C 5.87 0.540000000000006 0.769999999999996 5.64 0.769999999999996 11.84 C 0.769999999999996 11.84 0.769999999999996 246.04 0.769999999999996 246.04 C 0.769999999999996 252.24 5.87 257.34 12.07 257.34 Z" mask="url(#clip2625)" transform="matrix(1 0 0 1 -119 -17066 ) matrix(1 0 0 1 119 17066 )"/></g></svg>