<svg xmlns="http://www.w3.org/2000/svg" xmlns:xlink="http://www.w3.org/1999/xlink" width="780" height="55" version="1.1"><defs><mask id="clip1703" fill="#fff"><path fill-rule="evenodd" d="M 0.0200000000000102 3.81000000000006 C 0.0200000000000102 1.81000000000006 1.72 0.110000000000014 3.92000000000002 0.110000000000014 C 3.92000000000002 0.110000000000014 775.42 0.110000000000014 775.42 0.110000000000014 C 777.52 0.110000000000014 779.42 1.81000000000006 779.42 3.81000000000006 C 779.42 3.81000000000006 779.42 51.01 779.42 51.01 C 779.42 53.01 777.52 54.8100000000001 775.42 54.8100000000001 C 775.42 54.8100000000001 3.92000000000002 54.8100000000001 3.92000000000002 54.8100000000001 C 1.72 54.8100000000001 0.0200000000000102 53.01 0.0200000000000102 51.01 C 0.0200000000000102 51.01 0.0200000000000102 3.81000000000006 0.0200000000000102 3.81000000000006 Z"/></mask></defs><g><path fill="#bdecf8" fill-rule="nonzero" stroke="none" d="M 0.0200000000000102 3.81000000000006 C 0.0200000000000102 1.81000000000006 1.72 0.110000000000014 3.92000000000002 0.110000000000014 C 3.92000000000002 0.110000000000014 775.42 0.110000000000014 775.42 0.110000000000014 C 777.52 0.110000000000014 779.42 1.81000000000006 779.42 3.81000000000006 C 779.42 3.81000000000006 779.42 51.01 779.42 51.01 C 779.42 53.01 777.52 54.8100000000001 775.42 54.8100000000001 C 775.42 54.8100000000001 3.92000000000002 54.8100000000001 3.92000000000002 54.8100000000001 C 1.72 54.8100000000001 0.0200000000000102 53.01 0.0200000000000102 51.01 C 0.0200000000000102 51.01 0.0200000000000102 3.81000000000006 0.0200000000000102 3.81000000000006 Z" transform="matrix(1 0 0 1 -261 -2809 ) matrix(1 0 0 1 261 2809 )"/><path fill="none" stroke="#bdecf8" stroke-width="2" d="M 0.0200000000000102 3.81000000000006 C 0.0200000000000102 1.81000000000006 1.72 0.110000000000014 3.92000000000002 0.110000000000014 C 3.92000000000002 0.110000000000014 775.42 0.110000000000014 775.42 0.110000000000014 C 777.52 0.110000000000014 779.42 1.81000000000006 779.42 3.81000000000006 C 779.42 3.81000000000006 779.42 51.01 779.42 51.01 C 779.42 53.01 777.52 54.8100000000001 775.42 54.8100000000001 C 775.42 54.8100000000001 3.92000000000002 54.8100000000001 3.92000000000002 54.8100000000001 C 1.72 54.8100000000001 0.0200000000000102 53.01 0.0200000000000102 51.01 C 0.0200000000000102 51.01 0.0200000000000102 3.81000000000006 0.0200000000000102 3.81000000000006 Z" mask="url(#clip1703)" transform="matrix(1 0 0 1 -261 -2809 ) matrix(1 0 0 1 261 2809 )"/></g></svg>