<svg xmlns="http://www.w3.org/2000/svg" xmlns:xlink="http://www.w3.org/1999/xlink" width="24" height="25" version="1.1"><defs><mask id="clip2299" fill="#fff"><path fill-rule="evenodd" d="M 0.75 24.67 C 0.75 24.67 0.75 0.970000000000027 0.75 0.970000000000027 C 0.75 0.970000000000027 23.05 0.970000000000027 23.05 0.970000000000027 C 23.05 0.970000000000027 23.05 24.67 23.05 24.67 C 23.05 24.67 0.75 24.67 0.75 24.67 Z"/></mask></defs><g><path fill="#edc3a5" fill-rule="nonzero" stroke="none" d="M 0.75 24.67 C 0.75 24.67 0.75 0.970000000000027 0.75 0.970000000000027 C 0.75 0.970000000000027 23.05 0.970000000000027 23.05 0.970000000000027 C 23.05 0.970000000000027 23.05 24.67 23.05 24.67 C 23.05 24.67 0.75 24.67 0.75 24.67 Z" transform="matrix(1 0 0 1 -782 -14635 ) matrix(1 0 0 1 782 14635 )"/><path fill="none" stroke="#edc3a5" stroke-width="2" d="M 0.75 24.67 C 0.75 24.67 0.75 0.970000000000027 0.75 0.970000000000027 C 0.75 0.970000000000027 23.05 0.970000000000027 23.05 0.970000000000027 C 23.05 0.970000000000027 23.05 24.67 23.05 24.67 C 23.05 24.67 0.75 24.67 0.75 24.67 Z" mask="url(#clip2299)" transform="matrix(1 0 0 1 -782 -14635 ) matrix(1 0 0 1 782 14635 )"/></g></svg>