<?xml version="1.0" encoding="utf-8"?>
<svg version="1.1" xmlns:xlink="http://www.w3.org/1999/xlink" width="65px" height="109px" xmlns="http://www.w3.org/2000/svg">
  <defs>
    <mask fill="white" id="clip1067">
      <path d="M 0.779999999999973 7.16  C 0.779999999999973 7.16  1.77999999999997 0.0599999999999739  1.77999999999997 0.0599999999999739  C 36.88 4.95999999999998  64.78 36.06  64.78 72.46  C 64.78 85.56  61.28 97.86  55.18 108.46  C 55.18 108.46  48.98 104.86  48.98 104.86  C 54.48 95.36  57.58 84.26  57.58 72.46  C 57.58 39.66  32.38 11.56  0.779999999999973 7.16  Z " fill-rule="evenodd" />
    </mask>
  </defs>
  <g transform="matrix(1 0 0 1 -443 -17168 )">
    <path d="M 0.779999999999973 7.16  C 0.779999999999973 7.16  1.77999999999997 0.0599999999999739  1.77999999999997 0.0599999999999739  C 36.88 4.95999999999998  64.78 36.06  64.78 72.46  C 64.78 85.56  61.28 97.86  55.18 108.46  C 55.18 108.46  48.98 104.86  48.98 104.86  C 54.48 95.36  57.58 84.26  57.58 72.46  C 57.58 39.66  32.38 11.56  0.779999999999973 7.16  Z " fill-rule="nonzero" fill="#f14100" stroke="none" transform="matrix(1 0 0 1 443 17168 )" />
    <path d="M 0.779999999999973 7.16  C 0.779999999999973 7.16  1.77999999999997 0.0599999999999739  1.77999999999997 0.0599999999999739  C 36.88 4.95999999999998  64.78 36.06  64.78 72.46  C 64.78 85.56  61.28 97.86  55.18 108.46  C 55.18 108.46  48.98 104.86  48.98 104.86  C 54.48 95.36  57.58 84.26  57.58 72.46  C 57.58 39.66  32.38 11.56  0.779999999999973 7.16  Z " stroke-width="2" stroke="#f14100" fill="none" transform="matrix(1 0 0 1 443 17168 )" mask="url(#clip1067)" />
  </g>
</svg>