<?xml version="1.0" encoding="utf-8"?>
<svg version="1.1" xmlns:xlink="http://www.w3.org/1999/xlink" width="322px" height="24px" xmlns="http://www.w3.org/2000/svg">
  <defs>
    <mask fill="white" id="clip803">
      <path d="M 0.780000000000001 23.96  C 0.780000000000001 23.96  0.780000000000001 0.95999999999998  0.780000000000001 0.95999999999998  C 0.780000000000001 0.95999999999998  321.28 0.95999999999998  321.28 0.95999999999998  C 321.28 0.95999999999998  321.28 23.96  321.28 23.96  C 321.28 23.96  0.780000000000001 23.96  0.780000000000001 23.96  Z " fill-rule="evenodd" />
    </mask>
  </defs>
  <g transform="matrix(1 0 0 1 -158 -14597 )">
    <path d="M 0.780000000000001 23.96  C 0.780000000000001 23.96  0.780000000000001 0.95999999999998  0.780000000000001 0.95999999999998  C 0.780000000000001 0.95999999999998  321.28 0.95999999999998  321.28 0.95999999999998  C 321.28 0.95999999999998  321.28 23.96  321.28 23.96  C 321.28 23.96  0.780000000000001 23.96  0.780000000000001 23.96  Z " fill-rule="nonzero" fill="#fafafa" stroke="none" transform="matrix(1 0 0 1 158 14597 )" />
    <path d="M 0.780000000000001 23.96  C 0.780000000000001 23.96  0.780000000000001 0.95999999999998  0.780000000000001 0.95999999999998  C 0.780000000000001 0.95999999999998  321.28 0.95999999999998  321.28 0.95999999999998  C 321.28 0.95999999999998  321.28 23.96  321.28 23.96  C 321.28 23.96  0.780000000000001 23.96  0.780000000000001 23.96  Z " stroke-width="2" stroke="#c0c0c0" fill="none" transform="matrix(1 0 0 1 158 14597 )" mask="url(#clip803)" />
  </g>
</svg>