<?xml version="1.0" encoding="utf-8"?>
<svg version="1.1" xmlns:xlink="http://www.w3.org/1999/xlink" width="157px" height="470px" xmlns="http://www.w3.org/2000/svg">
  <defs>
    <mask fill="white" id="clip471">
      <path d="M 0.830000000000041 469.5  C 0.830000000000041 469.5  0.830000000000041 0.5  0.830000000000041 0.5  C 0.830000000000041 0.5  156.13 0.5  156.13 0.5  C 156.13 0.5  156.13 469.5  156.13 469.5  C 156.13 469.5  0.830000000000041 469.5  0.830000000000041 469.5  Z " fill-rule="evenodd" />
    </mask>
  </defs>
  <g transform="matrix(1 0 0 1 -355 -11629 )">
    <path d="M 0.830000000000041 469.5  C 0.830000000000041 469.5  0.830000000000041 0.5  0.830000000000041 0.5  C 0.830000000000041 0.5  156.13 0.5  156.13 0.5  C 156.13 0.5  156.13 469.5  156.13 469.5  C 156.13 469.5  0.830000000000041 469.5  0.830000000000041 469.5  Z " fill-rule="nonzero" fill="#fdebd4" stroke="none" transform="matrix(1 0 0 1 355 11629 )" />
    <path d="M 0.830000000000041 469.5  C 0.830000000000041 469.5  0.830000000000041 0.5  0.830000000000041 0.5  C 0.830000000000041 0.5  156.13 0.5  156.13 0.5  C 156.13 0.5  156.13 469.5  156.13 469.5  C 156.13 469.5  0.830000000000041 469.5  0.830000000000041 469.5  Z " stroke-width="2" stroke="#d2d2d2" fill="none" transform="matrix(1 0 0 1 355 11629 )" mask="url(#clip471)" />
  </g>
</svg>