<?xml version="1.0" encoding="utf-8"?>
<svg version="1.1" xmlns:xlink="http://www.w3.org/1999/xlink" width="72px" height="45px" xmlns="http://www.w3.org/2000/svg">
  <defs>
    <mask fill="white" id="clip891">
      <path d="M 0.75 0.544999999999959  C 0.75 0.544999999999959  61.9350000000001 40.575  61.9350000000001 40.575  C 61.9350000000001 40.575  67.528 30.103  67.528 30.103  C 67.528 30.103  0.75 0.544999999999959  0.75 0.544999999999959  Z " fill-rule="evenodd" />
    </mask>
    <filter x="584px" y="16401px" width="72px" height="45px" filterUnits="userSpaceOnUse" id="filter892">
      <feOffset dx="0" dy="0" in="SourceAlpha" result="shadowOffsetInner" />
      <feGaussianBlur stdDeviation="1" in="shadowOffsetInner" result="shadowGaussian" />
      <feComposite in2="shadowGaussian" operator="atop" in="SourceAlpha" result="shadowComposite" />
      <feColorMatrix type="matrix" values="0 0 0 0 0.501960784313725  0 0 0 0 0.501960784313725  0 0 0 0 0.501960784313725  0 0 0 1 0  " in="shadowComposite" />
    </filter>
    <g id="widget893">
      <path d="M 0.75 0.544999999999959  C 0.75 0.544999999999959  61.9350000000001 40.575  61.9350000000001 40.575  C 61.9350000000001 40.575  67.528 30.103  67.528 30.103  C 67.528 30.103  0.75 0.544999999999959  0.75 0.544999999999959  Z " fill-rule="nonzero" fill="#ffffff" stroke="none" fill-opacity="0" transform="matrix(1 0 0 1 586 16403 )" />
      <path d="M 0.75 0.544999999999959  C 0.75 0.544999999999959  61.9350000000001 40.575  61.9350000000001 40.575  C 61.9350000000001 40.575  67.528 30.103  67.528 30.103  C 67.528 30.103  0.75 0.544999999999959  0.75 0.544999999999959  Z " stroke-width="1.99529446448388" stroke="#952323" fill="none" transform="matrix(1 0 0 1 586 16403 )" mask="url(#clip891)" />
    </g>
  </defs>
  <g transform="matrix(1 0 0 1 -584 -16401 )">
    <use xlink:href="#widget893" filter="url(#filter892)" />
    <use xlink:href="#widget893" />
  </g>
</svg>