<svg xmlns="http://www.w3.org/2000/svg" xmlns:xlink="http://www.w3.org/1999/xlink" width="3" height="3" version="1.1"><defs><mask id="clip1842" fill="#fff"><path fill-rule="evenodd" d="M 1.97999999999996 0.350000000000023 C 2.38 0.350000000000023 2.67999999999995 1.65000000000003 2.67999999999995 2.05000000000001 C 2.67999999999995 2.45000000000005 2.38 2.75 1.97999999999996 2.75 C 1.57999999999998 2.75 0.279999999999973 2.45000000000005 0.279999999999973 2.05000000000001 C 0.279999999999973 1.65000000000003 1.57999999999998 0.350000000000023 1.97999999999996 0.350000000000023 Z"/></mask></defs><g><path fill="#fff" fill-rule="nonzero" stroke="none" d="M 1.97999999999996 0.350000000000023 C 2.38 0.350000000000023 2.67999999999995 1.65000000000003 2.67999999999995 2.05000000000001 C 2.67999999999995 2.45000000000005 2.38 2.75 1.97999999999996 2.75 C 1.57999999999998 2.75 0.279999999999973 2.45000000000005 0.279999999999973 2.05000000000001 C 0.279999999999973 1.65000000000003 1.57999999999998 0.350000000000023 1.97999999999996 0.350000000000023 Z" transform="matrix(1 0 0 1 -404 -7230 ) matrix(1 0 0 1 404 7230 )"/><path fill="none" stroke="#fff" stroke-width="2" d="M 1.97999999999996 0.350000000000023 C 2.38 0.350000000000023 2.67999999999995 1.65000000000003 2.67999999999995 2.05000000000001 C 2.67999999999995 2.45000000000005 2.38 2.75 1.97999999999996 2.75 C 1.57999999999998 2.75 0.279999999999973 2.45000000000005 0.279999999999973 2.05000000000001 C 0.279999999999973 1.65000000000003 1.57999999999998 0.350000000000023 1.97999999999996 0.350000000000023 Z" mask="url(#clip1842)" transform="matrix(1 0 0 1 -404 -7230 ) matrix(1 0 0 1 404 7230 )"/></g></svg>