<svg xmlns="http://www.w3.org/2000/svg" xmlns:xlink="http://www.w3.org/1999/xlink" width="68" height="24" version="1.1"><defs><mask id="clip2280" fill="#fff"><path fill-rule="evenodd" d="M 0.780000000000001 23.79 C 0.780000000000001 23.79 0.780000000000001 0.789999999999992 0.780000000000001 0.789999999999992 C 0.780000000000001 0.789999999999992 67.48 0.789999999999992 67.48 0.789999999999992 C 67.48 0.789999999999992 67.48 23.79 67.48 23.79 C 67.48 23.79 0.780000000000001 23.79 0.780000000000001 23.79 Z"/></mask></defs><g><path fill="#add8e6" fill-rule="nonzero" stroke="none" d="M 0.780000000000001 23.79 C 0.780000000000001 23.79 0.780000000000001 0.789999999999992 0.780000000000001 0.789999999999992 C 0.780000000000001 0.789999999999992 67.48 0.789999999999992 67.48 0.789999999999992 C 67.48 0.789999999999992 67.48 23.79 67.48 23.79 C 67.48 23.79 0.780000000000001 23.79 0.780000000000001 23.79 Z" transform="matrix(1 0 0 1 -158 -14518 ) matrix(1 0 0 1 158 14518 )"/><path fill="none" stroke="#6fbbd3" stroke-width="2" d="M 0.780000000000001 23.79 C 0.780000000000001 23.79 0.780000000000001 0.789999999999992 0.780000000000001 0.789999999999992 C 0.780000000000001 0.789999999999992 67.48 0.789999999999992 67.48 0.789999999999992 C 67.48 0.789999999999992 67.48 23.79 67.48 23.79 C 67.48 23.79 0.780000000000001 23.79 0.780000000000001 23.79 Z" mask="url(#clip2280)" transform="matrix(1 0 0 1 -158 -14518 ) matrix(1 0 0 1 158 14518 )"/></g></svg>