<svg xmlns="http://www.w3.org/2000/svg" xmlns:xlink="http://www.w3.org/1999/xlink" width="76" height="76" version="1.1"><defs><mask id="clip1763" fill="#fff"><path fill-rule="evenodd" d="M 38.3099999999999 75.68 C 17.71 75.68 0.00999999999999091 58.98 0.00999999999999091 38.38 C 0.00999999999999091 17.78 17.71 0.0799999999999983 38.3099999999999 0.0799999999999983 C 58.91 0.0799999999999983 75.61 17.78 75.61 38.38 C 75.61 58.98 58.91 75.68 38.3099999999999 75.68 Z"/></mask></defs><g><path fill="#8bc0d3" fill-rule="nonzero" stroke="none" d="M 38.3099999999999 75.68 C 17.71 75.68 0.00999999999999091 58.98 0.00999999999999091 38.38 C 0.00999999999999091 17.78 17.71 0.0799999999999983 38.3099999999999 0.0799999999999983 C 58.91 0.0799999999999983 75.61 17.78 75.61 38.38 C 75.61 58.98 58.91 75.68 38.3099999999999 75.68 Z" transform="matrix(1 0 0 1 -913 -4950 ) matrix(1 0 0 1 913 4950 )"/><path fill="none" stroke="#8bc0d3" stroke-width="2" d="M 38.3099999999999 75.68 C 17.71 75.68 0.00999999999999091 58.98 0.00999999999999091 38.38 C 0.00999999999999091 17.78 17.71 0.0799999999999983 38.3099999999999 0.0799999999999983 C 58.91 0.0799999999999983 75.61 17.78 75.61 38.38 C 75.61 58.98 58.91 75.68 38.3099999999999 75.68 Z" mask="url(#clip1763)" transform="matrix(1 0 0 1 -913 -4950 ) matrix(1 0 0 1 913 4950 )"/></g></svg>