<svg xmlns="http://www.w3.org/2000/svg" xmlns:xlink="http://www.w3.org/1999/xlink" width="63" height="62" version="1.1"><defs><mask id="clip2394" fill="#fff"><path fill-rule="evenodd" d="M 61.81 55.47 C 61.81 55.47 0.810000000000002 55.47 0.810000000000002 55.47 C 0.810000000000002 55.47 61.81 55.47 61.81 55.47 Z"/></mask></defs><g><path fill="#fff" fill-opacity="0" fill-rule="nonzero" stroke="none" d="M 61.81 55.47 C 61.81 55.47 0.810000000000002 55.47 0.810000000000002 55.47 C 0.810000000000002 55.47 61.81 55.47 61.81 55.47 Z" transform="matrix(1 0 0 1 -151 -16770 ) matrix(1 0 0 1 151 16770 )"/><path fill="none" stroke="#fff" stroke-width="2" d="M 61.81 55.47 C 61.81 55.47 0.810000000000002 55.47 0.810000000000002 55.47 C 0.810000000000002 55.47 61.81 55.47 61.81 55.47 Z" mask="url(#clip2394)" transform="matrix(1 0 0 1 -151 -16770 ) matrix(1 0 0 1 151 16770 )"/><path fill="none" stroke="#fff" stroke-width="1" d="M 1.31 7.5 L 61.31 7.5 M 1.31 13.5 L 61.31 13.5 M 1.31 19.5 L 61.31 19.5 M 1.31 25.5 L 61.31 25.5 M 1.31 31.5 L 61.31 31.5 M 1.31 37.5 L 61.31 37.5 M 1.31 43.5 L 61.31 43.5 M 1.31 49.5 L 61.31 49.5 M 8.5 0.970000000000027 L 8.5 60.97 M 14.5 0.970000000000027 L 14.5 60.97 M 20.5 0.970000000000027 L 20.5 60.97 M 26.5 0.970000000000027 L 26.5 60.97 M 31.5 0.970000000000027 L 31.5 60.97 M 37.5 0.970000000000027 L 37.5 60.97 M 43.5 0.970000000000027 L 43.5 60.97 M 49.5 0.970000000000027 L 49.5 60.97 M 55.5 0.970000000000027 L 55.5 60.97" mask="url(#clip2394)" transform="matrix(1 0 0 1 -151 -16770 ) matrix(1 0 0 1 151 16770 )"/></g></svg>