<?xml version="1.0" encoding="utf-8"?>
<svg version="1.1" xmlns:xlink="http://www.w3.org/1999/xlink" width="56px" height="60px" xmlns="http://www.w3.org/2000/svg">
  <defs>
    <mask fill="white" id="clip1939">
      <path d="M 19.9300000000001 59.5899999999999  C 19.9300000000001 59.5899999999999  35.8299999999999 59.5899999999999  35.8299999999999 59.5899999999999  C 46.6300000000001 59.5899999999999  55.4300000000001 50.79  55.4300000000001 39.99  C 55.4300000000001 39.99  55.4300000000001 20.49  55.4300000000001 20.49  C 55.4300000000001 9.58999999999992  46.6300000000001 0.789999999999964  35.8299999999999 0.789999999999964  C 35.8299999999999 0.789999999999964  19.9300000000001 0.789999999999964  19.9300000000001 0.789999999999964  C 9.02999999999997 0.789999999999964  0.230000000000018 9.58999999999992  0.230000000000018 20.49  C 0.230000000000018 20.49  0.230000000000018 39.99  0.230000000000018 39.99  C 0.230000000000018 50.79  9.02999999999997 59.5899999999999  19.9300000000001 59.5899999999999  Z " fill-rule="evenodd" />
    </mask>
  </defs>
  <g transform="matrix(1 0 0 1 -1145 -13114 )">
    <path d="M 19.9300000000001 59.5899999999999  C 19.9300000000001 59.5899999999999  35.8299999999999 59.5899999999999  35.8299999999999 59.5899999999999  C 46.6300000000001 59.5899999999999  55.4300000000001 50.79  55.4300000000001 39.99  C 55.4300000000001 39.99  55.4300000000001 20.49  55.4300000000001 20.49  C 55.4300000000001 9.58999999999992  46.6300000000001 0.789999999999964  35.8299999999999 0.789999999999964  C 35.8299999999999 0.789999999999964  19.9300000000001 0.789999999999964  19.9300000000001 0.789999999999964  C 9.02999999999997 0.789999999999964  0.230000000000018 9.58999999999992  0.230000000000018 20.49  C 0.230000000000018 20.49  0.230000000000018 39.99  0.230000000000018 39.99  C 0.230000000000018 50.79  9.02999999999997 59.5899999999999  19.9300000000001 59.5899999999999  Z " fill-rule="nonzero" fill="#888889" stroke="none" fill-opacity="0.0784313725490196" transform="matrix(1 0 0 1 1145 13114 )" />
    <path d="M 19.9300000000001 59.5899999999999  C 19.9300000000001 59.5899999999999  35.8299999999999 59.5899999999999  35.8299999999999 59.5899999999999  C 46.6300000000001 59.5899999999999  55.4300000000001 50.79  55.4300000000001 39.99  C 55.4300000000001 39.99  55.4300000000001 20.49  55.4300000000001 20.49  C 55.4300000000001 9.58999999999992  46.6300000000001 0.789999999999964  35.8299999999999 0.789999999999964  C 35.8299999999999 0.789999999999964  19.9300000000001 0.789999999999964  19.9300000000001 0.789999999999964  C 9.02999999999997 0.789999999999964  0.230000000000018 9.58999999999992  0.230000000000018 20.49  C 0.230000000000018 20.49  0.230000000000018 39.99  0.230000000000018 39.99  C 0.230000000000018 50.79  9.02999999999997 59.5899999999999  19.9300000000001 59.5899999999999  Z " stroke-width="2" stroke="#888889" fill="none" stroke-opacity="0.0588235294117647" transform="matrix(1 0 0 1 1145 13114 )" mask="url(#clip1939)" />
  </g>
</svg>