<?xml version="1.0" encoding="utf-8"?>
<svg version="1.1" xmlns:xlink="http://www.w3.org/1999/xlink" width="62px" height="62px" xmlns="http://www.w3.org/2000/svg">
  <defs>
    <mask fill="white" id="clip918">
      <path d="M 0.5 61.3099999999999  C 0.5 61.3099999999999  0.5 0.309999999999945  0.5 0.309999999999945  C 0.5 0.309999999999945  61.5 0.309999999999945  61.5 0.309999999999945  C 61.5 0.309999999999945  61.5 61.3099999999999  61.5 61.3099999999999  C 61.5 61.3099999999999  0.5 61.3099999999999  0.5 61.3099999999999  Z " fill-rule="evenodd" />
    </mask>
  </defs>
  <g transform="matrix(1 0 0 1 -208 -16670 )">
    <path d="M 0.5 61.3099999999999  C 0.5 61.3099999999999  0.5 0.309999999999945  0.5 0.309999999999945  C 0.5 0.309999999999945  61.5 0.309999999999945  61.5 0.309999999999945  C 61.5 0.309999999999945  61.5 61.3099999999999  61.5 61.3099999999999  C 61.5 61.3099999999999  0.5 61.3099999999999  0.5 61.3099999999999  Z " fill-rule="nonzero" fill="#ffffff" stroke="none" fill-opacity="0" transform="matrix(1 0 0 1 208 16670 )" />
    <path d="M 0.5 61.3099999999999  C 0.5 61.3099999999999  0.5 0.309999999999945  0.5 0.309999999999945  C 0.5 0.309999999999945  61.5 0.309999999999945  61.5 0.309999999999945  C 61.5 0.309999999999945  61.5 61.3099999999999  61.5 61.3099999999999  C 61.5 61.3099999999999  0.5 61.3099999999999  0.5 61.3099999999999  Z " stroke-width="2" stroke="#5a5a5a" fill="none" transform="matrix(1 0 0 1 208 16670 )" mask="url(#clip918)" />
  </g>
</svg>