<?xml version="1.0" encoding="utf-8"?>
<svg version="1.1" xmlns:xlink="http://www.w3.org/1999/xlink" width="371px" height="258px" xmlns="http://www.w3.org/2000/svg">
  <defs>
    <mask fill="white" id="clip2552">
      <path d="M 12.0699999999999 257.51  C 12.0699999999999 257.51  358.77 257.51  358.77 257.51  C 365.07 257.51  370.07 252.41  370.07 246.21  C 370.07 246.21  370.07 12.01  370.07 12.01  C 370.07 5.80999999999999  365.07 0.709999999999994  358.77 0.709999999999994  C 358.77 0.709999999999994  12.0699999999999 0.709999999999994  12.0699999999999 0.709999999999994  C 5.87 0.709999999999994  0.769999999999982 5.80999999999999  0.769999999999982 12.01  C 0.769999999999982 12.01  0.769999999999982 246.21  0.769999999999982 246.21  C 0.769999999999982 252.41  5.87 257.51  12.0699999999999 257.51  Z " fill-rule="evenodd" />
    </mask>
  </defs>
  <g transform="matrix(1 0 0 1 -812 -17063 )">
    <path d="M 12.0699999999999 257.51  C 12.0699999999999 257.51  358.77 257.51  358.77 257.51  C 365.07 257.51  370.07 252.41  370.07 246.21  C 370.07 246.21  370.07 12.01  370.07 12.01  C 370.07 5.80999999999999  365.07 0.709999999999994  358.77 0.709999999999994  C 358.77 0.709999999999994  12.0699999999999 0.709999999999994  12.0699999999999 0.709999999999994  C 5.87 0.709999999999994  0.769999999999982 5.80999999999999  0.769999999999982 12.01  C 0.769999999999982 12.01  0.769999999999982 246.21  0.769999999999982 246.21  C 0.769999999999982 252.41  5.87 257.51  12.0699999999999 257.51  Z " fill-rule="nonzero" fill="#ffffff" stroke="none" fill-opacity="0" transform="matrix(1 0 0 1 812 17063 )" />
    <path d="M 12.0699999999999 257.51  C 12.0699999999999 257.51  358.77 257.51  358.77 257.51  C 365.07 257.51  370.07 252.41  370.07 246.21  C 370.07 246.21  370.07 12.01  370.07 12.01  C 370.07 5.80999999999999  365.07 0.709999999999994  358.77 0.709999999999994  C 358.77 0.709999999999994  12.0699999999999 0.709999999999994  12.0699999999999 0.709999999999994  C 5.87 0.709999999999994  0.769999999999982 5.80999999999999  0.769999999999982 12.01  C 0.769999999999982 12.01  0.769999999999982 246.21  0.769999999999982 246.21  C 0.769999999999982 252.41  5.87 257.51  12.0699999999999 257.51  Z " stroke-width="2" stroke="#cad4cc" fill="none" transform="matrix(1 0 0 1 812 17063 )" mask="url(#clip2552)" />
  </g>
</svg>