<?xml version="1.0" encoding="utf-8"?>
<svg version="1.1" xmlns:xlink="http://www.w3.org/1999/xlink" width="1045px" height="4px" xmlns="http://www.w3.org/2000/svg">
  <defs>
    <mask fill="white" id="clip759">
      <path d="M 0.280000000000001 3.22  C 0.280000000000001 3.22  0.280000000000001 0.32  0.280000000000001 0.32  C 0.280000000000001 0.32  1044.78 0.32  1044.78 0.32  C 1044.78 0.32  1044.78 3.22  1044.78 3.22  C 1044.78 3.22  0.280000000000001 3.22  0.280000000000001 3.22  Z " fill-rule="evenodd" />
    </mask>
  </defs>
  <g transform="matrix(1 0 0 1 -128 -13322 )">
    <path d="M 0.280000000000001 3.22  C 0.280000000000001 3.22  0.280000000000001 0.32  0.280000000000001 0.32  C 0.280000000000001 0.32  1044.78 0.32  1044.78 0.32  C 1044.78 0.32  1044.78 3.22  1044.78 3.22  C 1044.78 3.22  0.280000000000001 3.22  0.280000000000001 3.22  Z " fill-rule="nonzero" fill="#549fb3" stroke="none" transform="matrix(1 0 0 1 128 13322 )" />
    <path d="M 0.280000000000001 3.22  C 0.280000000000001 3.22  0.280000000000001 0.32  0.280000000000001 0.32  C 0.280000000000001 0.32  1044.78 0.32  1044.78 0.32  C 1044.78 0.32  1044.78 3.22  1044.78 3.22  C 1044.78 3.22  0.280000000000001 3.22  0.280000000000001 3.22  Z " stroke-width="2" stroke="#549fb3" fill="none" transform="matrix(1 0 0 1 128 13322 )" mask="url(#clip759)" />
  </g>
</svg>