<svg xmlns="http://www.w3.org/2000/svg" xmlns:xlink="http://www.w3.org/1999/xlink" width="132" height="133" version="1.1"><g><path fill="#eee" fill-rule="nonzero" stroke="none" d="M 65.91 127.77 L 65.91 132.77 C 29.51 132.77 0.00999999999999091 103.27 0.00999999999999091 66.87 C 0.00999999999999091 30.47 29.51 0.970000000000027 65.91 0.970000000000027 C 102.31 0.970000000000027 131.81 30.47 131.81 66.87 C 131.81 103.27 102.31 132.77 65.91 132.77 L 65.91 127.77 C 99.51 127.77 126.81 100.47 126.81 66.87 C 126.81 33.27 99.51 5.97000000000003 65.91 5.97000000000003 C 32.3099999999999 5.97000000000003 5.00999999999999 33.27 5.00999999999999 66.87 C 5.00999999999999 100.47 32.3099999999999 127.77 65.91 127.77 Z" transform="matrix(1 0 0 1 -983 -7160 ) matrix(1 0 0 1 983 7160 )"/></g></svg>