<?xml version="1.0" encoding="utf-8"?>
<svg version="1.1" xmlns:xlink="http://www.w3.org/1999/xlink" width="2px" height="226px" xmlns="http://www.w3.org/2000/svg">
  <defs>
    <mask fill="white" id="clip1115">
      <path d="M 0.735000000000014 225.715  C 0.735000000000014 225.715  0.735000000000014 0.264999999999986  0.735000000000014 0.264999999999986  C 0.735000000000014 0.264999999999986  1.98500000000001 0.264999999999986  1.98500000000001 0.264999999999986  C 1.98500000000001 0.264999999999986  1.98500000000001 225.715  1.98500000000001 225.715  C 1.98500000000001 225.715  0.735000000000014 225.715  0.735000000000014 225.715  Z " fill-rule="evenodd" />
    </mask>
  </defs>
  <g transform="matrix(1 0 0 1 -394 -19257 )">
    <path d="M 0.735000000000014 225.715  C 0.735000000000014 225.715  0.735000000000014 0.264999999999986  0.735000000000014 0.264999999999986  C 0.735000000000014 0.264999999999986  1.98500000000001 0.264999999999986  1.98500000000001 0.264999999999986  C 1.98500000000001 0.264999999999986  1.98500000000001 225.715  1.98500000000001 225.715  C 1.98500000000001 225.715  0.735000000000014 225.715  0.735000000000014 225.715  Z " fill-rule="nonzero" fill="#33b2c3" stroke="none" transform="matrix(1 0 0 1 394 19257 )" />
    <path d="M 0.735000000000014 225.715  C 0.735000000000014 225.715  0.735000000000014 0.264999999999986  0.735000000000014 0.264999999999986  C 0.735000000000014 0.264999999999986  1.98500000000001 0.264999999999986  1.98500000000001 0.264999999999986  C 1.98500000000001 0.264999999999986  1.98500000000001 225.715  1.98500000000001 225.715  C 1.98500000000001 225.715  0.735000000000014 225.715  0.735000000000014 225.715  Z " stroke-width="0.5" stroke="#33b2c3" fill="none" transform="matrix(1 0 0 1 394 19257 )" mask="url(#clip1115)" />
  </g>
</svg>