<?xml version="1.0" encoding="utf-8"?>
<svg version="1.1" xmlns:xlink="http://www.w3.org/1999/xlink" width="63px" height="20px" xmlns="http://www.w3.org/2000/svg">
  <defs>
    <mask fill="white" id="clip543">
      <path d="M 0.5 19.5  C 0.5 19.5  0.5 0.5  0.5 0.5  C 0.5 0.5  62.4 0.5  62.4 0.5  C 62.4 0.5  62.4 19.5  62.4 19.5  C 62.4 19.5  0.5 19.5  0.5 19.5  Z " fill-rule="evenodd" />
    </mask>
  </defs>
  <g transform="matrix(1 0 0 1 -220 -11503 )">
    <path d="M 0.5 19.5  C 0.5 19.5  0.5 0.5  0.5 0.5  C 0.5 0.5  62.4 0.5  62.4 0.5  C 62.4 0.5  62.4 19.5  62.4 19.5  C 62.4 19.5  0.5 19.5  0.5 19.5  Z " fill-rule="nonzero" fill="#ee7c31" stroke="none" transform="matrix(1 0 0 1 220 11503 )" />
    <path d="M 0.5 19.5  C 0.5 19.5  0.5 0.5  0.5 0.5  C 0.5 0.5  62.4 0.5  62.4 0.5  C 62.4 0.5  62.4 19.5  62.4 19.5  C 62.4 19.5  0.5 19.5  0.5 19.5  Z " stroke-width="2" stroke="#ee7c31" fill="none" transform="matrix(1 0 0 1 220 11503 )" mask="url(#clip543)" />
  </g>
</svg>