<?xml version="1.0" encoding="utf-8"?>
<svg version="1.1" xmlns:xlink="http://www.w3.org/1999/xlink" width="346px" height="271px" xmlns="http://www.w3.org/2000/svg">
  <defs>
    <mask fill="white" id="clip914">
      <path d="M 12.26 270.57  C 12.26 270.57  334.56 270.57  334.56 270.57  C 340.86 270.57  345.86 265.47  345.86 259.27  C 345.86 259.27  345.86 11.77  345.86 11.77  C 345.86 5.56999999999999  340.86 0.469999999999999  334.56 0.469999999999999  C 334.56 0.469999999999999  12.26 0.469999999999999  12.26 0.469999999999999  C 6.06000000000006 0.469999999999999  0.960000000000036 5.56999999999999  0.960000000000036 11.77  C 0.960000000000036 11.77  0.960000000000036 259.27  0.960000000000036 259.27  C 0.960000000000036 265.47  6.06000000000006 270.57  12.26 270.57  Z " fill-rule="evenodd" />
    </mask>
  </defs>
  <g transform="matrix(1 0 0 1 -834 -16276 )">
    <path d="M 12.26 270.57  C 12.26 270.57  334.56 270.57  334.56 270.57  C 340.86 270.57  345.86 265.47  345.86 259.27  C 345.86 259.27  345.86 11.77  345.86 11.77  C 345.86 5.56999999999999  340.86 0.469999999999999  334.56 0.469999999999999  C 334.56 0.469999999999999  12.26 0.469999999999999  12.26 0.469999999999999  C 6.06000000000006 0.469999999999999  0.960000000000036 5.56999999999999  0.960000000000036 11.77  C 0.960000000000036 11.77  0.960000000000036 259.27  0.960000000000036 259.27  C 0.960000000000036 265.47  6.06000000000006 270.57  12.26 270.57  Z " fill-rule="nonzero" fill="#ffffff" stroke="none" fill-opacity="0" transform="matrix(1 0 0 1 834 16276 )" />
    <path d="M 12.26 270.57  C 12.26 270.57  334.56 270.57  334.56 270.57  C 340.86 270.57  345.86 265.47  345.86 259.27  C 345.86 259.27  345.86 11.77  345.86 11.77  C 345.86 5.56999999999999  340.86 0.469999999999999  334.56 0.469999999999999  C 334.56 0.469999999999999  12.26 0.469999999999999  12.26 0.469999999999999  C 6.06000000000006 0.469999999999999  0.960000000000036 5.56999999999999  0.960000000000036 11.77  C 0.960000000000036 11.77  0.960000000000036 259.27  0.960000000000036 259.27  C 0.960000000000036 265.47  6.06000000000006 270.57  12.26 270.57  Z " stroke-width="2" stroke="#cad4cc" fill="none" transform="matrix(1 0 0 1 834 16276 )" mask="url(#clip914)" />
  </g>
</svg>