<?xml version="1.0" encoding="utf-8"?>
<svg version="1.1" xmlns:xlink="http://www.w3.org/1999/xlink" width="4px" height="5px" xmlns="http://www.w3.org/2000/svg">
  <defs>
    <mask fill="white" id="clip345">
      <path d="M 1.46000000000004 4.48999999999998  C 0.960000000000036 4.48999999999998  0.460000000000036 3.88999999999999  0.460000000000036 3.19  C 0.460000000000036 2.48999999999998  0.960000000000036 0.889999999999986  1.46000000000004 0.889999999999986  C 2.06000000000006 0.889999999999986  3.56000000000006 2.48999999999998  3.56000000000006 3.19  C 3.56000000000006 3.88999999999999  2.06000000000006 4.48999999999998  1.46000000000004 4.48999999999998  Z " fill-rule="evenodd" />
    </mask>
  </defs>
  <g transform="matrix(1 0 0 1 -520 -6896 )">
    <path d="M 1.46000000000004 4.48999999999998  C 0.960000000000036 4.48999999999998  0.460000000000036 3.88999999999999  0.460000000000036 3.19  C 0.460000000000036 2.48999999999998  0.960000000000036 0.889999999999986  1.46000000000004 0.889999999999986  C 2.06000000000006 0.889999999999986  3.56000000000006 2.48999999999998  3.56000000000006 3.19  C 3.56000000000006 3.88999999999999  2.06000000000006 4.48999999999998  1.46000000000004 4.48999999999998  Z " fill-rule="nonzero" fill="#3e3938" stroke="none" transform="matrix(1 0 0 1 520 6896 )" />
    <path d="M 1.46000000000004 4.48999999999998  C 0.960000000000036 4.48999999999998  0.460000000000036 3.88999999999999  0.460000000000036 3.19  C 0.460000000000036 2.48999999999998  0.960000000000036 0.889999999999986  1.46000000000004 0.889999999999986  C 2.06000000000006 0.889999999999986  3.56000000000006 2.48999999999998  3.56000000000006 3.19  C 3.56000000000006 3.88999999999999  2.06000000000006 4.48999999999998  1.46000000000004 4.48999999999998  Z " stroke-width="2" stroke="#3e3938" fill="none" transform="matrix(1 0 0 1 520 6896 )" mask="url(#clip345)" />
  </g>
</svg>