<?xml version="1.0" encoding="utf-8"?>
<svg version="1.1" xmlns:xlink="http://www.w3.org/1999/xlink" width="345px" height="21px" xmlns="http://www.w3.org/2000/svg">
  <defs>
    <mask fill="white" id="clip920">
      <path d="M 0.0599999999999454 20.0799999999999  C 0.0599999999999454 20.0799999999999  0.0599999999999454 0.979999999999905  0.0599999999999454 0.979999999999905  C 0.0599999999999454 0.979999999999905  344.16 0.979999999999905  344.16 0.979999999999905  C 344.16 0.979999999999905  344.16 20.0799999999999  344.16 20.0799999999999  C 344.16 20.0799999999999  0.0599999999999454 20.0799999999999  0.0599999999999454 20.0799999999999  Z " fill-rule="evenodd" />
    </mask>
  </defs>
  <g transform="matrix(1 0 0 1 -749 -14876 )">
    <path d="M 0.0599999999999454 20.0799999999999  C 0.0599999999999454 20.0799999999999  0.0599999999999454 0.979999999999905  0.0599999999999454 0.979999999999905  C 0.0599999999999454 0.979999999999905  344.16 0.979999999999905  344.16 0.979999999999905  C 344.16 0.979999999999905  344.16 20.0799999999999  344.16 20.0799999999999  C 344.16 20.0799999999999  0.0599999999999454 20.0799999999999  0.0599999999999454 20.0799999999999  Z " fill-rule="nonzero" fill="#ffffff" stroke="none" fill-opacity="0" transform="matrix(1 0 0 1 749 14876 )" />
    <path d="M 0.0599999999999454 20.0799999999999  C 0.0599999999999454 20.0799999999999  0.0599999999999454 0.979999999999905  0.0599999999999454 0.979999999999905  C 0.0599999999999454 0.979999999999905  344.16 0.979999999999905  344.16 0.979999999999905  C 344.16 0.979999999999905  344.16 20.0799999999999  344.16 20.0799999999999  C 344.16 20.0799999999999  0.0599999999999454 20.0799999999999  0.0599999999999454 20.0799999999999  Z " stroke-width="2" stroke="#787878" fill="none" transform="matrix(1 0 0 1 749 14876 )" mask="url(#clip920)" />
  </g>
</svg>