<?xml version="1.0" encoding="utf-8"?>
<svg version="1.1" xmlns:xlink="http://www.w3.org/1999/xlink" width="151px" height="119px" xmlns="http://www.w3.org/2000/svg">
  <defs>
    <radialGradient cx="1.35" cy="1.46000000000002" r="188.9" gradientTransform="matrix(1 0 0 1 0 2.22044604925031E-16 )" gradientUnits="userSpaceOnUse" id="RadialGradient1028">
      <stop id="Stop1029" stop-color="#fffbf3" offset="0" />
      <stop id="Stop1030" stop-color="#fffaf0" offset="1" />
    </radialGradient>
    <mask fill="white" id="clip1031">
      <path d="M 13.35 118.16  C 5.35 106.26  0.850000000000001 91.36  0.850000000000001 76.46  C 0.850000000000001 35.26  35.15 0.960000000000008  76.35 0.960000000000008  C 117.45 0.960000000000008  150.85 35.26  150.85 76.46  C 150.85 91.36  146.35 106.26  138.25 118.16  C 138.25 118.16  13.35 118.16  13.35 118.16  Z " fill-rule="evenodd" />
    </mask>
  </defs>
  <g transform="matrix(1 0 0 1 -137 -17164 )">
    <path d="M 13.35 118.16  C 5.35 106.26  0.850000000000001 91.36  0.850000000000001 76.46  C 0.850000000000001 35.26  35.15 0.960000000000008  76.35 0.960000000000008  C 117.45 0.960000000000008  150.85 35.26  150.85 76.46  C 150.85 91.36  146.35 106.26  138.25 118.16  C 138.25 118.16  13.35 118.16  13.35 118.16  Z " fill-rule="nonzero" fill="url(#RadialGradient1028)" stroke="none" transform="matrix(1 0 0 1 137 17164 )" />
    <path d="M 13.35 118.16  C 5.35 106.26  0.850000000000001 91.36  0.850000000000001 76.46  C 0.850000000000001 35.26  35.15 0.960000000000008  76.35 0.960000000000008  C 117.45 0.960000000000008  150.85 35.26  150.85 76.46  C 150.85 91.36  146.35 106.26  138.25 118.16  C 138.25 118.16  13.35 118.16  13.35 118.16  Z " stroke-width="2" stroke="#969696" fill="none" transform="matrix(1 0 0 1 137 17164 )" mask="url(#clip1031)" />
  </g>
</svg>