<?xml version="1.0" encoding="utf-8"?>
<svg version="1.1" xmlns:xlink="http://www.w3.org/1999/xlink" width="68px" height="74px" xmlns="http://www.w3.org/2000/svg">
  <defs>
    <mask fill="white" id="clip954">
      <path d="M 67.45 42.8  C 67.45 42.8  12.45 73.9  12.45 73.9  C 4.84999999999999 60.9  0.549999999999997 44.6  0.549999999999997 28.4  C 0.549999999999997 18.8  2.05 9.60000000000002  4.95 0.899999999999977  C 4.95 0.899999999999977  65.15 20.1999999999999  65.15 20.1999999999999  C 64.35 22.8  63.85 25.5  63.85 28.4  C 63.85 33.3  65.15 38.9  67.45 42.8  Z " fill-rule="evenodd" />
    </mask>
  </defs>
  <g transform="matrix(1 0 0 1 -152 -17539 )">
    <path d="M 67.45 42.8  C 67.45 42.8  12.45 73.9  12.45 73.9  C 4.84999999999999 60.9  0.549999999999997 44.6  0.549999999999997 28.4  C 0.549999999999997 18.8  2.05 9.60000000000002  4.95 0.899999999999977  C 4.95 0.899999999999977  65.15 20.1999999999999  65.15 20.1999999999999  C 64.35 22.8  63.85 25.5  63.85 28.4  C 63.85 33.3  65.15 38.9  67.45 42.8  Z " fill-rule="nonzero" fill="#79c243" stroke="none" transform="matrix(1 0 0 1 152 17539 )" />
    <path d="M 67.45 42.8  C 67.45 42.8  12.45 73.9  12.45 73.9  C 4.84999999999999 60.9  0.549999999999997 44.6  0.549999999999997 28.4  C 0.549999999999997 18.8  2.05 9.60000000000002  4.95 0.899999999999977  C 4.95 0.899999999999977  65.15 20.1999999999999  65.15 20.1999999999999  C 64.35 22.8  63.85 25.5  63.85 28.4  C 63.85 33.3  65.15 38.9  67.45 42.8  Z " stroke-width="2" stroke="#79c243" fill="none" transform="matrix(1 0 0 1 152 17539 )" mask="url(#clip954)" />
  </g>
</svg>