<svg xmlns="http://www.w3.org/2000/svg" xmlns:xlink="http://www.w3.org/1999/xlink" width="87" height="491" version="1.1"><defs><mask id="clip2353" fill="#fff"><path fill-rule="evenodd" d="M 0.170000000000016 490.15 C 0.170000000000016 490.15 0.170000000000016 0.150000000000006 0.170000000000016 0.150000000000006 C 0.170000000000016 0.150000000000006 86.97 0.150000000000006 86.97 0.150000000000006 C 86.97 0.150000000000006 86.97 490.15 86.97 490.15 C 86.97 490.15 0.170000000000016 490.15 0.170000000000016 490.15 Z"/></mask></defs><g><path fill="#f5f5f5" fill-rule="nonzero" stroke="none" d="M 0.170000000000016 490.15 C 0.170000000000016 490.15 0.170000000000016 0.150000000000006 0.170000000000016 0.150000000000006 C 0.170000000000016 0.150000000000006 86.97 0.150000000000006 86.97 0.150000000000006 C 86.97 0.150000000000006 86.97 490.15 86.97 490.15 C 86.97 490.15 0.170000000000016 490.15 0.170000000000016 490.15 Z" transform="matrix(1 0 0 1 -564 -15248 ) matrix(1 0 0 1 564 15248 )"/><path fill="none" stroke="#d2d2d2" stroke-width="2" d="M 0.170000000000016 490.15 C 0.170000000000016 490.15 0.170000000000016 0.150000000000006 0.170000000000016 0.150000000000006 C 0.170000000000016 0.150000000000006 86.97 0.150000000000006 86.97 0.150000000000006 C 86.97 0.150000000000006 86.97 490.15 86.97 490.15 C 86.97 490.15 0.170000000000016 490.15 0.170000000000016 490.15 Z" mask="url(#clip2353)" transform="matrix(1 0 0 1 -564 -15248 ) matrix(1 0 0 1 564 15248 )"/></g></svg>