<svg xmlns="http://www.w3.org/2000/svg" xmlns:xlink="http://www.w3.org/1999/xlink" width="56" height="60" version="1.1"><defs><mask id="clip2078" fill="#fff"><path fill-rule="evenodd" d="M 35.92 0.390000000000001 C 35.92 0.390000000000001 20.12 0.390000000000001 20.12 0.390000000000001 C 9.22 0.390000000000001 0.420000000000002 9.79000000000001 0.420000000000002 21.39 C 0.420000000000002 21.39 0.420000000000002 38.09 0.420000000000002 38.09 C 0.420000000000002 49.79 9.22 59.19 20.12 59.19 C 20.12 59.19 35.92 59.19 35.92 59.19 C 46.82 59.19 55.62 49.79 55.62 38.09 C 55.62 38.09 55.62 21.39 55.62 21.39 C 55.62 9.79000000000001 46.82 0.390000000000001 35.92 0.390000000000001 Z"/></mask></defs><g><path fill="#888889" fill-opacity=".078" fill-rule="nonzero" stroke="none" d="M 35.92 0.390000000000001 C 35.92 0.390000000000001 20.12 0.390000000000001 20.12 0.390000000000001 C 9.22 0.390000000000001 0.420000000000002 9.79000000000001 0.420000000000002 21.39 C 0.420000000000002 21.39 0.420000000000002 38.09 0.420000000000002 38.09 C 0.420000000000002 49.79 9.22 59.19 20.12 59.19 C 20.12 59.19 35.92 59.19 35.92 59.19 C 46.82 59.19 55.62 49.79 55.62 38.09 C 55.62 38.09 55.62 21.39 55.62 21.39 C 55.62 9.79000000000001 46.82 0.390000000000001 35.92 0.390000000000001 Z" transform="matrix(1 0 0 1 -101 -12473 ) matrix(1 0 0 1 101 12473 )"/><path fill="none" stroke="#888889" stroke-opacity=".059" stroke-width="2" d="M 35.92 0.390000000000001 C 35.92 0.390000000000001 20.12 0.390000000000001 20.12 0.390000000000001 C 9.22 0.390000000000001 0.420000000000002 9.79000000000001 0.420000000000002 21.39 C 0.420000000000002 21.39 0.420000000000002 38.09 0.420000000000002 38.09 C 0.420000000000002 49.79 9.22 59.19 20.12 59.19 C 20.12 59.19 35.92 59.19 35.92 59.19 C 46.82 59.19 55.62 49.79 55.62 38.09 C 55.62 38.09 55.62 21.39 55.62 21.39 C 55.62 9.79000000000001 46.82 0.390000000000001 35.92 0.390000000000001 Z" mask="url(#clip2078)" transform="matrix(1 0 0 1 -101 -12473 ) matrix(1 0 0 1 101 12473 )"/></g></svg>