<svg xmlns="http://www.w3.org/2000/svg" xmlns:xlink="http://www.w3.org/1999/xlink" width="56" height="60" version="1.1"><defs><mask id="clip2098" fill="#fff"><path fill-rule="evenodd" d="M 35.91 59.6099999999999 C 35.91 59.6099999999999 20.01 59.6099999999999 20.01 59.6099999999999 C 9.21 59.6099999999999 0.409999999999997 50.8099999999999 0.409999999999997 40.01 C 0.409999999999997 40.01 0.409999999999997 20.51 0.409999999999997 20.51 C 0.409999999999997 9.6099999999999 9.21 0.809999999999945 20.01 0.809999999999945 C 20.01 0.809999999999945 35.91 0.809999999999945 35.91 0.809999999999945 C 46.81 0.809999999999945 55.61 9.6099999999999 55.61 20.51 C 55.61 20.51 55.61 40.01 55.61 40.01 C 55.61 50.8099999999999 46.81 59.6099999999999 35.91 59.6099999999999 Z"/></mask></defs><g><path fill="#888889" fill-opacity=".078" fill-rule="nonzero" stroke="none" d="M 35.91 59.6099999999999 C 35.91 59.6099999999999 20.01 59.6099999999999 20.01 59.6099999999999 C 9.21 59.6099999999999 0.409999999999997 50.8099999999999 0.409999999999997 40.01 C 0.409999999999997 40.01 0.409999999999997 20.51 0.409999999999997 20.51 C 0.409999999999997 9.6099999999999 9.21 0.809999999999945 20.01 0.809999999999945 C 20.01 0.809999999999945 35.91 0.809999999999945 35.91 0.809999999999945 C 46.81 0.809999999999945 55.61 9.6099999999999 55.61 20.51 C 55.61 20.51 55.61 40.01 55.61 40.01 C 55.61 50.8099999999999 46.81 59.6099999999999 35.91 59.6099999999999 Z" transform="matrix(1 0 0 1 -101 -13114 ) matrix(1 0 0 1 101 13114 )"/><path fill="none" stroke="#888889" stroke-opacity=".059" stroke-width="2" d="M 35.91 59.6099999999999 C 35.91 59.6099999999999 20.01 59.6099999999999 20.01 59.6099999999999 C 9.21 59.6099999999999 0.409999999999997 50.8099999999999 0.409999999999997 40.01 C 0.409999999999997 40.01 0.409999999999997 20.51 0.409999999999997 20.51 C 0.409999999999997 9.6099999999999 9.21 0.809999999999945 20.01 0.809999999999945 C 20.01 0.809999999999945 35.91 0.809999999999945 35.91 0.809999999999945 C 46.81 0.809999999999945 55.61 9.6099999999999 55.61 20.51 C 55.61 20.51 55.61 40.01 55.61 40.01 C 55.61 50.8099999999999 46.81 59.6099999999999 35.91 59.6099999999999 Z" mask="url(#clip2098)" transform="matrix(1 0 0 1 -101 -13114 ) matrix(1 0 0 1 101 13114 )"/></g></svg>