<svg xmlns="http://www.w3.org/2000/svg" xmlns:xlink="http://www.w3.org/1999/xlink" width="314" height="139" version="1.1"><defs><mask id="clip1990" fill="#fff"><path fill-rule="evenodd" d="M 0.710000000000036 2.01999999999998 C 0.710000000000036 1.12 1.50999999999999 0.319999999999993 2.41000000000008 0.319999999999993 C 2.41000000000008 0.319999999999993 311.61 0.319999999999993 311.61 0.319999999999993 C 312.51 0.319999999999993 313.31 1.12 313.31 2.01999999999998 C 313.31 2.01999999999998 313.31 137.02 313.31 137.02 C 313.31 138.02 312.51 138.72 311.61 138.72 C 311.61 138.72 2.41000000000008 138.72 2.41000000000008 138.72 C 1.50999999999999 138.72 0.710000000000036 138.02 0.710000000000036 137.02 C 0.710000000000036 137.02 0.710000000000036 2.01999999999998 0.710000000000036 2.01999999999998 Z"/></mask></defs><g><path fill="#fff" fill-opacity=".098" fill-rule="nonzero" stroke="none" d="M 0.710000000000036 2.01999999999998 C 0.710000000000036 1.12 1.50999999999999 0.319999999999993 2.41000000000008 0.319999999999993 C 2.41000000000008 0.319999999999993 311.61 0.319999999999993 311.61 0.319999999999993 C 312.51 0.319999999999993 313.31 1.12 313.31 2.01999999999998 C 313.31 2.01999999999998 313.31 137.02 313.31 137.02 C 313.31 138.02 312.51 138.72 311.61 138.72 C 311.61 138.72 2.41000000000008 138.72 2.41000000000008 138.72 C 1.50999999999999 138.72 0.710000000000036 138.02 0.710000000000036 137.02 C 0.710000000000036 137.02 0.710000000000036 2.01999999999998 0.710000000000036 2.01999999999998 Z" transform="matrix(1 0 0 1 -849 -8756 ) matrix(1 0 0 1 849 8756 )"/><path fill="none" stroke="#fff" stroke-opacity=".498" stroke-width="2" d="M 0.710000000000036 2.01999999999998 C 0.710000000000036 1.12 1.50999999999999 0.319999999999993 2.41000000000008 0.319999999999993 C 2.41000000000008 0.319999999999993 311.61 0.319999999999993 311.61 0.319999999999993 C 312.51 0.319999999999993 313.31 1.12 313.31 2.01999999999998 C 313.31 2.01999999999998 313.31 137.02 313.31 137.02 C 313.31 138.02 312.51 138.72 311.61 138.72 C 311.61 138.72 2.41000000000008 138.72 2.41000000000008 138.72 C 1.50999999999999 138.72 0.710000000000036 138.02 0.710000000000036 137.02 C 0.710000000000036 137.02 0.710000000000036 2.01999999999998 0.710000000000036 2.01999999999998 Z" mask="url(#clip1990)" transform="matrix(1 0 0 1 -849 -8756 ) matrix(1 0 0 1 849 8756 )"/></g></svg>