<?xml version="1.0" encoding="utf-8"?>
<svg version="1.1" xmlns:xlink="http://www.w3.org/1999/xlink" width="4px" height="3px" xmlns="http://www.w3.org/2000/svg">
  <defs>
    <mask fill="white" id="clip421">
      <path d="M 2.36999999999995 0.420000000000016  C 2.76999999999998 0.420000000000016  3.06999999999994 1.72000000000003  3.06999999999994 2.12  C 3.06999999999994 2.52000000000004  2.76999999999998 2.81999999999999  2.36999999999995 2.81999999999999  C 1.96999999999997 2.81999999999999  0.669999999999959 2.52000000000004  0.669999999999959 2.12  C 0.669999999999959 1.72000000000003  1.96999999999997 0.420000000000016  2.36999999999995 0.420000000000016  Z " fill-rule="evenodd" />
    </mask>
  </defs>
  <g transform="matrix(1 0 0 1 -426 -7217 )">
    <path d="M 2.36999999999995 0.420000000000016  C 2.76999999999998 0.420000000000016  3.06999999999994 1.72000000000003  3.06999999999994 2.12  C 3.06999999999994 2.52000000000004  2.76999999999998 2.81999999999999  2.36999999999995 2.81999999999999  C 1.96999999999997 2.81999999999999  0.669999999999959 2.52000000000004  0.669999999999959 2.12  C 0.669999999999959 1.72000000000003  1.96999999999997 0.420000000000016  2.36999999999995 0.420000000000016  Z " fill-rule="nonzero" fill="#ffffff" stroke="none" transform="matrix(1 0 0 1 426 7217 )" />
    <path d="M 2.36999999999995 0.420000000000016  C 2.76999999999998 0.420000000000016  3.06999999999994 1.72000000000003  3.06999999999994 2.12  C 3.06999999999994 2.52000000000004  2.76999999999998 2.81999999999999  2.36999999999995 2.81999999999999  C 1.96999999999997 2.81999999999999  0.669999999999959 2.52000000000004  0.669999999999959 2.12  C 0.669999999999959 1.72000000000003  1.96999999999997 0.420000000000016  2.36999999999995 0.420000000000016  Z " stroke-width="2" stroke="#ffffff" fill="none" transform="matrix(1 0 0 1 426 7217 )" mask="url(#clip421)" />
  </g>
</svg>