<?xml version="1.0" encoding="utf-8"?>
<svg version="1.1" xmlns:xlink="http://www.w3.org/1999/xlink" width="363px" height="32px" xmlns="http://www.w3.org/2000/svg">
  <defs>
    <mask fill="white" id="clip1627">
      <path d="M 0.899999999999977 31.53  C 0.899999999999977 31.53  0.899999999999977 0.129999999999995  0.899999999999977 0.129999999999995  C 0.899999999999977 0.129999999999995  362.9 0.129999999999995  362.9 0.129999999999995  C 362.9 0.129999999999995  362.9 31.53  362.9 31.53  C 362.9 31.53  0.899999999999977 31.53  0.899999999999977 31.53  Z " fill-rule="evenodd" />
    </mask>
  </defs>
  <g transform="matrix(1 0 0 1 -516 -6156 )">
    <path d="M 0.899999999999977 31.53  C 0.899999999999977 31.53  0.899999999999977 0.129999999999995  0.899999999999977 0.129999999999995  C 0.899999999999977 0.129999999999995  362.9 0.129999999999995  362.9 0.129999999999995  C 362.9 0.129999999999995  362.9 31.53  362.9 31.53  C 362.9 31.53  0.899999999999977 31.53  0.899999999999977 31.53  Z " fill-rule="nonzero" fill="#ffaf00" stroke="none" transform="matrix(1 0 0 1 516 6156 )" />
    <path d="M 0.899999999999977 31.53  C 0.899999999999977 31.53  0.899999999999977 0.129999999999995  0.899999999999977 0.129999999999995  C 0.899999999999977 0.129999999999995  362.9 0.129999999999995  362.9 0.129999999999995  C 362.9 0.129999999999995  362.9 31.53  362.9 31.53  C 362.9 31.53  0.899999999999977 31.53  0.899999999999977 31.53  Z " stroke-width="2" stroke="#ffaf00" fill="none" transform="matrix(1 0 0 1 516 6156 )" mask="url(#clip1627)" />
  </g>
</svg>