<svg xmlns="http://www.w3.org/2000/svg" xmlns:xlink="http://www.w3.org/1999/xlink" width="346" height="271" version="1.1"><defs><mask id="clip2450" fill="#fff"><path fill-rule="evenodd" d="M 11.76 270.57 C 11.76 270.57 334.06 270.57 334.06 270.57 C 340.36 270.57 345.36 265.47 345.36 259.27 C 345.36 259.27 345.36 11.77 345.36 11.77 C 345.36 5.56999999999999 340.36 0.469999999999999 334.06 0.469999999999999 C 334.06 0.469999999999999 11.76 0.469999999999999 11.76 0.469999999999999 C 5.56 0.469999999999999 0.460000000000001 5.56999999999999 0.460000000000001 11.77 C 0.460000000000001 11.77 0.460000000000001 259.27 0.460000000000001 259.27 C 0.460000000000001 265.47 5.56 270.57 11.76 270.57 Z"/></mask></defs><g><path fill="#fff" fill-opacity="0" fill-rule="nonzero" stroke="none" d="M 11.76 270.57 C 11.76 270.57 334.06 270.57 334.06 270.57 C 340.36 270.57 345.36 265.47 345.36 259.27 C 345.36 259.27 345.36 11.77 345.36 11.77 C 345.36 5.56999999999999 340.36 0.469999999999999 334.06 0.469999999999999 C 334.06 0.469999999999999 11.76 0.469999999999999 11.76 0.469999999999999 C 5.56 0.469999999999999 0.460000000000001 5.56999999999999 0.460000000000001 11.77 C 0.460000000000001 11.77 0.460000000000001 259.27 0.460000000000001 259.27 C 0.460000000000001 265.47 5.56 270.57 11.76 270.57 Z" transform="matrix(1 0 0 1 -123 -16276 ) matrix(1 0 0 1 123 16276 )"/><path fill="none" stroke="#cad4cc" stroke-width="2" d="M 11.76 270.57 C 11.76 270.57 334.06 270.57 334.06 270.57 C 340.36 270.57 345.36 265.47 345.36 259.27 C 345.36 259.27 345.36 11.77 345.36 11.77 C 345.36 5.56999999999999 340.36 0.469999999999999 334.06 0.469999999999999 C 334.06 0.469999999999999 11.76 0.469999999999999 11.76 0.469999999999999 C 5.56 0.469999999999999 0.460000000000001 5.56999999999999 0.460000000000001 11.77 C 0.460000000000001 11.77 0.460000000000001 259.27 0.460000000000001 259.27 C 0.460000000000001 265.47 5.56 270.57 11.76 270.57 Z" mask="url(#clip2450)" transform="matrix(1 0 0 1 -123 -16276 ) matrix(1 0 0 1 123 16276 )"/></g></svg>