<svg xmlns="http://www.w3.org/2000/svg" xmlns:xlink="http://www.w3.org/1999/xlink" width="72" height="45" version="1.1"><defs><mask id="clip2427" fill="#fff"><path fill-rule="evenodd" d="M 0.75 0.544999999999959 C 0.75 0.544999999999959 61.9350000000001 40.575 61.9350000000001 40.575 C 61.9350000000001 40.575 67.528 30.103 67.528 30.103 C 67.528 30.103 0.75 0.544999999999959 0.75 0.544999999999959 Z"/></mask><filter id="filter2428" width="72" height="45" x="584" y="16401" filterUnits="userSpaceOnUse"><feOffset dx="0" dy="0" in="SourceAlpha" result="shadowOffsetInner"/><feGaussianBlur in="shadowOffsetInner" result="shadowGaussian" stdDeviation="1"/><feComposite in="SourceAlpha" in2="shadowGaussian" operator="atop" result="shadowComposite"/><feColorMatrix in="shadowComposite" type="matrix" values="0 0 0 0 0.501960784313725 0 0 0 0 0.501960784313725 0 0 0 0 0.501960784313725 0 0 0 1 0"/></filter><g id="widget2429"><path fill="#fff" fill-opacity="0" fill-rule="nonzero" stroke="none" d="M 0.75 0.544999999999959 C 0.75 0.544999999999959 61.9350000000001 40.575 61.9350000000001 40.575 C 61.9350000000001 40.575 67.528 30.103 67.528 30.103 C 67.528 30.103 0.75 0.544999999999959 0.75 0.544999999999959 Z" transform="matrix(1 0 0 1 586 16403 )"/><path fill="none" stroke="#952323" stroke-width="1.995" d="M 0.75 0.544999999999959 C 0.75 0.544999999999959 61.9350000000001 40.575 61.9350000000001 40.575 C 61.9350000000001 40.575 67.528 30.103 67.528 30.103 C 67.528 30.103 0.75 0.544999999999959 0.75 0.544999999999959 Z" mask="url(#clip2427)" transform="matrix(1 0 0 1 586 16403 )"/></g></defs><g transform="matrix(1 0 0 1 -584 -16401 )"><use filter="url(#filter2428)" xlink:href="#widget2429"/><use xlink:href="#widget2429"/></g></svg>