<svg xmlns="http://www.w3.org/2000/svg" xmlns:xlink="http://www.w3.org/1999/xlink" width="259" height="305" version="1.1"><defs><mask id="clip2505" fill="#fff"><path fill-rule="evenodd" d="M 12.07 304.34 C 12.07 304.34 247.47 304.34 247.47 304.34 C 253.67 304.34 258.77 299.24 258.77 293.04 C 258.77 293.04 258.77 11.84 258.77 11.84 C 258.77 5.64000000000004 253.67 0.54000000000002 247.47 0.54000000000002 C 247.47 0.54000000000002 12.07 0.54000000000002 12.07 0.54000000000002 C 5.87 0.54000000000002 0.769999999999996 5.64000000000004 0.769999999999996 11.84 C 0.769999999999996 11.84 0.769999999999996 293.04 0.769999999999996 293.04 C 0.769999999999996 299.24 5.87 304.34 12.07 304.34 Z"/></mask></defs><g><path fill="#fff" fill-opacity="0" fill-rule="nonzero" stroke="none" d="M 12.07 304.34 C 12.07 304.34 247.47 304.34 247.47 304.34 C 253.67 304.34 258.77 299.24 258.77 293.04 C 258.77 293.04 258.77 11.84 258.77 11.84 C 258.77 5.64000000000004 253.67 0.54000000000002 247.47 0.54000000000002 C 247.47 0.54000000000002 12.07 0.54000000000002 12.07 0.54000000000002 C 5.87 0.54000000000002 0.769999999999996 5.64000000000004 0.769999999999996 11.84 C 0.769999999999996 11.84 0.769999999999996 293.04 0.769999999999996 293.04 C 0.769999999999996 299.24 5.87 304.34 12.07 304.34 Z" transform="matrix(1 0 0 1 -119 -17400 ) matrix(1 0 0 1 119 17400 )"/><path fill="none" stroke="#cad4cc" stroke-width="2" d="M 12.07 304.34 C 12.07 304.34 247.47 304.34 247.47 304.34 C 253.67 304.34 258.77 299.24 258.77 293.04 C 258.77 293.04 258.77 11.84 258.77 11.84 C 258.77 5.64000000000004 253.67 0.54000000000002 247.47 0.54000000000002 C 247.47 0.54000000000002 12.07 0.54000000000002 12.07 0.54000000000002 C 5.87 0.54000000000002 0.769999999999996 5.64000000000004 0.769999999999996 11.84 C 0.769999999999996 11.84 0.769999999999996 293.04 0.769999999999996 293.04 C 0.769999999999996 299.24 5.87 304.34 12.07 304.34 Z" mask="url(#clip2505)" transform="matrix(1 0 0 1 -119 -17400 ) matrix(1 0 0 1 119 17400 )"/></g></svg>