<svg xmlns="http://www.w3.org/2000/svg" xmlns:xlink="http://www.w3.org/1999/xlink" width="202" height="16" version="1.1"><defs><linearGradient id="LinearGradient2547" x1="20767684.688" x2="20767684.688" y1="46927.289" y2="49730.51" gradientUnits="userSpaceOnUse"><stop id="Stop2548" offset="0" stop-color="#a1d979"/><stop id="Stop2549" offset=".2" stop-color="#8acf57"/><stop id="Stop2550" offset="1" stop-color="#6cb734"/></linearGradient><mask id="clip2551" fill="#fff"><path fill-rule="evenodd" d="M 0.909999999999968 15.89 C 0.909999999999968 15.89 0.909999999999968 0.79000000000002 0.909999999999968 0.79000000000002 C 0.909999999999968 0.79000000000002 201.61 0.79000000000002 201.61 0.79000000000002 C 201.61 0.79000000000002 201.61 15.89 201.61 15.89 C 201.61 15.89 0.909999999999968 15.89 0.909999999999968 15.89 Z"/></mask></defs><g><path fill="url(#LinearGradient2547)" fill-rule="nonzero" stroke="none" d="M 0.909999999999968 15.89 C 0.909999999999968 15.89 0.909999999999968 0.79000000000002 0.909999999999968 0.79000000000002 C 0.909999999999968 0.79000000000002 201.61 0.79000000000002 201.61 0.79000000000002 C 201.61 0.79000000000002 201.61 15.89 201.61 15.89 C 201.61 15.89 0.909999999999968 15.89 0.909999999999968 15.89 Z" transform="matrix(1 0 0 1 -890 -17218 ) matrix(1 0 0 1 890 17218 )"/><path fill="none" stroke="#787878" stroke-width="2" d="M 0.909999999999968 15.89 C 0.909999999999968 15.89 0.909999999999968 0.79000000000002 0.909999999999968 0.79000000000002 C 0.909999999999968 0.79000000000002 201.61 0.79000000000002 201.61 0.79000000000002 C 201.61 0.79000000000002 201.61 15.89 201.61 15.89 C 201.61 15.89 0.909999999999968 15.89 0.909999999999968 15.89 Z" mask="url(#clip2551)" transform="matrix(1 0 0 1 -890 -17218 ) matrix(1 0 0 1 890 17218 )"/></g></svg>