<svg xmlns="http://www.w3.org/2000/svg" xmlns:xlink="http://www.w3.org/1999/xlink" width="76" height="76" version="1.1"><defs><mask id="clip1761" fill="#fff"><path fill-rule="evenodd" d="M 38.52 75.68 C 17.9200000000001 75.68 0.220000000000027 58.98 0.220000000000027 38.38 C 0.220000000000027 17.78 17.9200000000001 0.0799999999999983 38.52 0.0799999999999983 C 59.12 0.0799999999999983 75.8200000000001 17.78 75.8200000000001 38.38 C 75.8200000000001 58.98 59.12 75.68 38.52 75.68 Z"/></mask></defs><g><path fill="#8bc0d3" fill-rule="nonzero" stroke="none" d="M 38.52 75.68 C 17.9200000000001 75.68 0.220000000000027 58.98 0.220000000000027 38.38 C 0.220000000000027 17.78 17.9200000000001 0.0799999999999983 38.52 0.0799999999999983 C 59.12 0.0799999999999983 75.8200000000001 17.78 75.8200000000001 38.38 C 75.8200000000001 58.98 59.12 75.68 38.52 75.68 Z" transform="matrix(1 0 0 1 -763 -4950 ) matrix(1 0 0 1 763 4950 )"/><path fill="none" stroke="#8bc0d3" stroke-width="2" d="M 38.52 75.68 C 17.9200000000001 75.68 0.220000000000027 58.98 0.220000000000027 38.38 C 0.220000000000027 17.78 17.9200000000001 0.0799999999999983 38.52 0.0799999999999983 C 59.12 0.0799999999999983 75.8200000000001 17.78 75.8200000000001 38.38 C 75.8200000000001 58.98 59.12 75.68 38.52 75.68 Z" mask="url(#clip1761)" transform="matrix(1 0 0 1 -763 -4950 ) matrix(1 0 0 1 763 4950 )"/></g></svg>