<?xml version="1.0" encoding="utf-8"?>
<svg version="1.1" xmlns:xlink="http://www.w3.org/1999/xlink" width="88px" height="491px" xmlns="http://www.w3.org/2000/svg">
  <defs>
    <mask fill="white" id="clip866">
      <path d="M 0.310000000000059 490.15  C 0.310000000000059 490.15  0.310000000000059 0.150000000000006  0.310000000000059 0.150000000000006  C 0.310000000000059 0.150000000000006  87.11 0.150000000000006  87.11 0.150000000000006  C 87.11 0.150000000000006  87.11 490.15  87.11 490.15  C 87.11 490.15  0.310000000000059 490.15  0.310000000000059 490.15  Z " fill-rule="evenodd" />
    </mask>
  </defs>
  <g transform="matrix(1 0 0 1 -993 -15248 )">
    <path d="M 0.310000000000059 490.15  C 0.310000000000059 490.15  0.310000000000059 0.150000000000006  0.310000000000059 0.150000000000006  C 0.310000000000059 0.150000000000006  87.11 0.150000000000006  87.11 0.150000000000006  C 87.11 0.150000000000006  87.11 490.15  87.11 490.15  C 87.11 490.15  0.310000000000059 490.15  0.310000000000059 490.15  Z " fill-rule="nonzero" fill="#ffffff" stroke="none" transform="matrix(1 0 0 1 993 15248 )" />
    <path d="M 0.310000000000059 490.15  C 0.310000000000059 490.15  0.310000000000059 0.150000000000006  0.310000000000059 0.150000000000006  C 0.310000000000059 0.150000000000006  87.11 0.150000000000006  87.11 0.150000000000006  C 87.11 0.150000000000006  87.11 490.15  87.11 490.15  C 87.11 490.15  0.310000000000059 490.15  0.310000000000059 490.15  Z " stroke-width="2" stroke="#d2d2d2" fill="none" transform="matrix(1 0 0 1 993 15248 )" mask="url(#clip866)" />
  </g>
</svg>