<?xml version="1.0" encoding="utf-8"?>
<svg version="1.1" xmlns:xlink="http://www.w3.org/1999/xlink" width="56px" height="60px" xmlns="http://www.w3.org/2000/svg">
  <defs>
    <mask fill="white" id="clip555">
      <path d="M 20.4400000000001 0.27  C 20.4400000000001 0.27  36.24 0.27  36.24 0.27  C 47.14 0.27  55.9400000000001 9.67  55.9400000000001 21.37  C 55.9400000000001 21.37  55.9400000000001 38.07  55.9400000000001 38.07  C 55.9400000000001 49.67  47.14 59.07  36.24 59.07  C 36.24 59.07  20.4400000000001 59.07  20.4400000000001 59.07  C 9.53999999999996 59.07  0.740000000000009 49.67  0.740000000000009 38.07  C 0.740000000000009 38.07  0.740000000000009 21.37  0.740000000000009 21.37  C 0.740000000000009 9.67  9.53999999999996 0.27  20.4400000000001 0.27  Z " fill-rule="evenodd" />
    </mask>
  </defs>
  <g transform="matrix(1 0 0 1 -1022 -12411 )">
    <path d="M 20.4400000000001 0.27  C 20.4400000000001 0.27  36.24 0.27  36.24 0.27  C 47.14 0.27  55.9400000000001 9.67  55.9400000000001 21.37  C 55.9400000000001 21.37  55.9400000000001 38.07  55.9400000000001 38.07  C 55.9400000000001 49.67  47.14 59.07  36.24 59.07  C 36.24 59.07  20.4400000000001 59.07  20.4400000000001 59.07  C 9.53999999999996 59.07  0.740000000000009 49.67  0.740000000000009 38.07  C 0.740000000000009 38.07  0.740000000000009 21.37  0.740000000000009 21.37  C 0.740000000000009 9.67  9.53999999999996 0.27  20.4400000000001 0.27  Z " fill-rule="nonzero" fill="#cdcece" stroke="none" fill-opacity="0.0784313725490196" transform="matrix(1 0 0 1 1022 12411 )" />
    <path d="M 20.4400000000001 0.27  C 20.4400000000001 0.27  36.24 0.27  36.24 0.27  C 47.14 0.27  55.9400000000001 9.67  55.9400000000001 21.37  C 55.9400000000001 21.37  55.9400000000001 38.07  55.9400000000001 38.07  C 55.9400000000001 49.67  47.14 59.07  36.24 59.07  C 36.24 59.07  20.4400000000001 59.07  20.4400000000001 59.07  C 9.53999999999996 59.07  0.740000000000009 49.67  0.740000000000009 38.07  C 0.740000000000009 38.07  0.740000000000009 21.37  0.740000000000009 21.37  C 0.740000000000009 9.67  9.53999999999996 0.27  20.4400000000001 0.27  Z " stroke-width="2" stroke="#cdcece" fill="none" stroke-opacity="0.0588235294117647" transform="matrix(1 0 0 1 1022 12411 )" mask="url(#clip555)" />
  </g>
</svg>