<?xml version="1.0" encoding="utf-8"?>
<svg version="1.1" xmlns:xlink="http://www.w3.org/1999/xlink" width="202px" height="16px" xmlns="http://www.w3.org/2000/svg">
  <defs>
    <linearGradient gradientUnits="userSpaceOnUse" x1="20767684.6876" y1="46927.2885" x2="20767684.6876" y2="49730.5095" id="LinearGradient1011">
      <stop id="Stop1012" stop-color="#a1d979" offset="0" />
      <stop id="Stop1013" stop-color="#8acf57" offset="0.2" />
      <stop id="Stop1014" stop-color="#6cb734" offset="1" />
    </linearGradient>
    <mask fill="white" id="clip1015">
      <path d="M 0.909999999999968 15.89  C 0.909999999999968 15.89  0.909999999999968 0.79000000000002  0.909999999999968 0.79000000000002  C 0.909999999999968 0.79000000000002  201.61 0.79000000000002  201.61 0.79000000000002  C 201.61 0.79000000000002  201.61 15.89  201.61 15.89  C 201.61 15.89  0.909999999999968 15.89  0.909999999999968 15.89  Z " fill-rule="evenodd" />
    </mask>
  </defs>
  <g transform="matrix(1 0 0 1 -890 -17218 )">
    <path d="M 0.909999999999968 15.89  C 0.909999999999968 15.89  0.909999999999968 0.79000000000002  0.909999999999968 0.79000000000002  C 0.909999999999968 0.79000000000002  201.61 0.79000000000002  201.61 0.79000000000002  C 201.61 0.79000000000002  201.61 15.89  201.61 15.89  C 201.61 15.89  0.909999999999968 15.89  0.909999999999968 15.89  Z " fill-rule="nonzero" fill="url(#LinearGradient1011)" stroke="none" transform="matrix(1 0 0 1 890 17218 )" />
    <path d="M 0.909999999999968 15.89  C 0.909999999999968 15.89  0.909999999999968 0.79000000000002  0.909999999999968 0.79000000000002  C 0.909999999999968 0.79000000000002  201.61 0.79000000000002  201.61 0.79000000000002  C 201.61 0.79000000000002  201.61 15.89  201.61 15.89  C 201.61 15.89  0.909999999999968 15.89  0.909999999999968 15.89  Z " stroke-width="2" stroke="#787878" fill="none" transform="matrix(1 0 0 1 890 17218 )" mask="url(#clip1015)" />
  </g>
</svg>