<svg xmlns="http://www.w3.org/2000/svg" xmlns:xlink="http://www.w3.org/1999/xlink" width="58" height="24" version="1.1"><defs><mask id="clip2614" fill="#fff"><path fill-rule="evenodd" d="M 5.07999999999998 23.76 C 5.07999999999998 23.76 0.379999999999995 18.26 0.379999999999995 18.26 C 12.98 7.66 30.08 0.359999999999985 47.78 0.359999999999985 C 51.18 0.359999999999985 54.48 0.559999999999974 57.78 1.05999999999997 C 57.78 1.05999999999997 56.78 8.16 56.78 8.16 C 53.88 7.75999999999999 50.78 7.55999999999997 47.78 7.55999999999997 C 31.88 7.55999999999997 16.38 14.26 5.07999999999998 23.76 Z"/></mask></defs><g><path fill="#eea300" fill-rule="nonzero" stroke="none" d="M 5.07999999999998 23.76 C 5.07999999999998 23.76 0.379999999999995 18.26 0.379999999999995 18.26 C 12.98 7.66 30.08 0.359999999999985 47.78 0.359999999999985 C 51.18 0.359999999999985 54.48 0.559999999999974 57.78 1.05999999999997 C 57.78 1.05999999999997 56.78 8.16 56.78 8.16 C 53.88 7.75999999999999 50.78 7.55999999999997 47.78 7.55999999999997 C 31.88 7.55999999999997 16.38 14.26 5.07999999999998 23.76 Z" transform="matrix(1 0 0 1 -388 -17167 ) matrix(1 0 0 1 388 17167 )"/><path fill="none" stroke="#eea300" stroke-width="2" d="M 5.07999999999998 23.76 C 5.07999999999998 23.76 0.379999999999995 18.26 0.379999999999995 18.26 C 12.98 7.66 30.08 0.359999999999985 47.78 0.359999999999985 C 51.18 0.359999999999985 54.48 0.559999999999974 57.78 1.05999999999997 C 57.78 1.05999999999997 56.78 8.16 56.78 8.16 C 53.88 7.75999999999999 50.78 7.55999999999997 47.78 7.55999999999997 C 31.88 7.55999999999997 16.38 14.26 5.07999999999998 23.76 Z" mask="url(#clip2614)" transform="matrix(1 0 0 1 -388 -17167 ) matrix(1 0 0 1 388 17167 )"/></g></svg>