<svg xmlns="http://www.w3.org/2000/svg" xmlns:xlink="http://www.w3.org/1999/xlink" width="24" height="25" version="1.1"><defs><linearGradient id="LinearGradient2443" x1=".76" x2=".76" y1="1.11" y2="23.81" gradientUnits="userSpaceOnUse"><stop id="Stop2444" offset="0" stop-color="#7fdfdb"/><stop id="Stop2445" offset="1" stop-color="#48d1cc"/></linearGradient><mask id="clip2446" fill="#fff"><path fill-rule="evenodd" d="M 11.56 0.610000000000014 C 17.86 0.610000000000014 23.96 5.71000000000004 23.96 11.91 C 23.96 18.21 17.86 24.31 11.56 24.31 C 5.36000000000001 24.31 0.259999999999991 18.21 0.259999999999991 11.91 C 0.259999999999991 5.71000000000004 5.36000000000001 0.610000000000014 11.56 0.610000000000014 Z"/></mask></defs><g><path fill="url(#LinearGradient2443)" fill-rule="nonzero" stroke="none" d="M 11.56 0.610000000000014 C 17.86 0.610000000000014 23.96 5.71000000000004 23.96 11.91 C 23.96 18.21 17.86 24.31 11.56 24.31 C 5.36000000000001 24.31 0.259999999999991 18.21 0.259999999999991 11.91 C 0.259999999999991 5.71000000000004 5.36000000000001 0.610000000000014 11.56 0.610000000000014 Z" transform="matrix(1 0 0 1 -519 -16597 ) matrix(1 0 0 1 519 16597 )"/><path fill="none" stroke="#2db4af" stroke-width="2" d="M 11.56 0.610000000000014 C 17.86 0.610000000000014 23.96 5.71000000000004 23.96 11.91 C 23.96 18.21 17.86 24.31 11.56 24.31 C 5.36000000000001 24.31 0.259999999999991 18.21 0.259999999999991 11.91 C 0.259999999999991 5.71000000000004 5.36000000000001 0.610000000000014 11.56 0.610000000000014 Z" mask="url(#clip2446)" transform="matrix(1 0 0 1 -519 -16597 ) matrix(1 0 0 1 519 16597 )"/></g></svg>