<?xml version="1.0" encoding="utf-8"?>
<svg version="1.1" xmlns:xlink="http://www.w3.org/1999/xlink" width="322px" height="24px" xmlns="http://www.w3.org/2000/svg">
  <defs>
    <mask fill="white" id="clip801">
      <path d="M 0.780000000000001 23.55  C 0.780000000000001 23.55  0.780000000000001 0.549999999999955  0.780000000000001 0.549999999999955  C 0.780000000000001 0.549999999999955  321.28 0.549999999999955  321.28 0.549999999999955  C 321.28 0.549999999999955  321.28 23.55  321.28 23.55  C 321.28 23.55  0.780000000000001 23.55  0.780000000000001 23.55  Z " fill-rule="evenodd" />
    </mask>
  </defs>
  <g transform="matrix(1 0 0 1 -158 -14637 )">
    <path d="M 0.780000000000001 23.55  C 0.780000000000001 23.55  0.780000000000001 0.549999999999955  0.780000000000001 0.549999999999955  C 0.780000000000001 0.549999999999955  321.28 0.549999999999955  321.28 0.549999999999955  C 321.28 0.549999999999955  321.28 23.55  321.28 23.55  C 321.28 23.55  0.780000000000001 23.55  0.780000000000001 23.55  Z " fill-rule="nonzero" fill="#fafafa" stroke="none" transform="matrix(1 0 0 1 158 14637 )" />
    <path d="M 0.780000000000001 23.55  C 0.780000000000001 23.55  0.780000000000001 0.549999999999955  0.780000000000001 0.549999999999955  C 0.780000000000001 0.549999999999955  321.28 0.549999999999955  321.28 0.549999999999955  C 321.28 0.549999999999955  321.28 23.55  321.28 23.55  C 321.28 23.55  0.780000000000001 23.55  0.780000000000001 23.55  Z " stroke-width="2" stroke="#c0c0c0" fill="none" transform="matrix(1 0 0 1 158 14637 )" mask="url(#clip801)" />
  </g>
</svg>