<svg xmlns="http://www.w3.org/2000/svg" xmlns:xlink="http://www.w3.org/1999/xlink" width="77" height="76" version="1.1"><defs><mask id="clip1764" fill="#fff"><path fill-rule="evenodd" d="M 38.79 75.68 C 18.1900000000001 75.68 0.490000000000009 58.98 0.490000000000009 38.38 C 0.490000000000009 17.78 18.1900000000001 0.0799999999999983 38.79 0.0799999999999983 C 59.3900000000001 0.0799999999999983 76.0899999999999 17.78 76.0899999999999 38.38 C 76.0899999999999 58.98 59.3900000000001 75.68 38.79 75.68 Z"/></mask></defs><g><path fill="#8bc0d3" fill-rule="nonzero" stroke="none" d="M 38.79 75.68 C 18.1900000000001 75.68 0.490000000000009 58.98 0.490000000000009 38.38 C 0.490000000000009 17.78 18.1900000000001 0.0799999999999983 38.79 0.0799999999999983 C 59.3900000000001 0.0799999999999983 76.0899999999999 17.78 76.0899999999999 38.38 C 76.0899999999999 58.98 59.3900000000001 75.68 38.79 75.68 Z" transform="matrix(1 0 0 1 -1062 -4950 ) matrix(1 0 0 1 1062 4950 )"/><path fill="none" stroke="#8bc0d3" stroke-width="2" d="M 38.79 75.68 C 18.1900000000001 75.68 0.490000000000009 58.98 0.490000000000009 38.38 C 0.490000000000009 17.78 18.1900000000001 0.0799999999999983 38.79 0.0799999999999983 C 59.3900000000001 0.0799999999999983 76.0899999999999 17.78 76.0899999999999 38.38 C 76.0899999999999 58.98 59.3900000000001 75.68 38.79 75.68 Z" mask="url(#clip1764)" transform="matrix(1 0 0 1 -1062 -4950 ) matrix(1 0 0 1 1062 4950 )"/></g></svg>