<svg xmlns="http://www.w3.org/2000/svg" xmlns:xlink="http://www.w3.org/1999/xlink" width="24" height="24" version="1.1"><defs><mask id="clip2300" fill="#fff"><path fill-rule="evenodd" d="M 0.75 23.99 C 0.75 23.99 0.75 0.29000000000002 0.75 0.29000000000002 C 0.75 0.29000000000002 23.05 0.29000000000002 23.05 0.29000000000002 C 23.05 0.29000000000002 23.05 23.99 23.05 23.99 C 23.05 23.99 0.75 23.99 0.75 23.99 Z"/></mask></defs><g><path fill="#e6ac83" fill-rule="nonzero" stroke="none" d="M 0.75 23.99 C 0.75 23.99 0.75 0.29000000000002 0.75 0.29000000000002 C 0.75 0.29000000000002 23.05 0.29000000000002 23.05 0.29000000000002 C 23.05 0.29000000000002 23.05 23.99 23.05 23.99 C 23.05 23.99 0.75 23.99 0.75 23.99 Z" transform="matrix(1 0 0 1 -782 -14613 ) matrix(1 0 0 1 782 14613 )"/><path fill="none" stroke="#e6ac83" stroke-width="2" d="M 0.75 23.99 C 0.75 23.99 0.75 0.29000000000002 0.75 0.29000000000002 C 0.75 0.29000000000002 23.05 0.29000000000002 23.05 0.29000000000002 C 23.05 0.29000000000002 23.05 23.99 23.05 23.99 C 23.05 23.99 0.75 23.99 0.75 23.99 Z" mask="url(#clip2300)" transform="matrix(1 0 0 1 -782 -14613 ) matrix(1 0 0 1 782 14613 )"/></g></svg>