<svg xmlns="http://www.w3.org/2000/svg" xmlns:xlink="http://www.w3.org/1999/xlink" width="81" height="80" version="1.1"><defs><mask id="clip1813" fill="#fff"><path fill-rule="evenodd" d="M 40.9100000000001 80 C 19.3100000000001 80 0.710000000000036 62.5 0.710000000000036 40.8 C 0.710000000000036 19.2 19.3100000000001 0.600000000000023 40.9100000000001 0.600000000000023 C 62.61 0.600000000000023 80.11 19.2 80.11 40.8 C 80.11 62.5 62.61 80 40.9100000000001 80 Z"/></mask></defs><g><path fill="#fff" fill-opacity="0" fill-rule="nonzero" stroke="none" d="M 40.9100000000001 80 C 19.3100000000001 80 0.710000000000036 62.5 0.710000000000036 40.8 C 0.710000000000036 19.2 19.3100000000001 0.600000000000023 40.9100000000001 0.600000000000023 C 62.61 0.600000000000023 80.11 19.2 80.11 40.8 C 80.11 62.5 62.61 80 40.9100000000001 80 Z" transform="matrix(1 0 0 1 -806 -7159 ) matrix(1 0 0 1 806 7159 )"/><path fill="none" stroke="#34c2c2" stroke-width="2" d="M 40.9100000000001 80 C 19.3100000000001 80 0.710000000000036 62.5 0.710000000000036 40.8 C 0.710000000000036 19.2 19.3100000000001 0.600000000000023 40.9100000000001 0.600000000000023 C 62.61 0.600000000000023 80.11 19.2 80.11 40.8 C 80.11 62.5 62.61 80 40.9100000000001 80 Z" mask="url(#clip1813)" transform="matrix(1 0 0 1 -806 -7159 ) matrix(1 0 0 1 806 7159 )"/></g></svg>