<svg xmlns="http://www.w3.org/2000/svg" xmlns:xlink="http://www.w3.org/1999/xlink" width="57" height="60" version="1.1"><defs><mask id="clip2109" fill="#fff"><path fill-rule="evenodd" d="M 20.6900000000001 59.6999999999999 C 20.6900000000001 59.6999999999999 36.5899999999999 59.6999999999999 36.5899999999999 59.6999999999999 C 47.3900000000001 59.6999999999999 56.1900000000001 50.9 56.1900000000001 40.1 C 56.1900000000001 40.1 56.1900000000001 20.6 56.1900000000001 20.6 C 56.1900000000001 9.69999999999993 47.3900000000001 0.899999999999977 36.5899999999999 0.899999999999977 C 36.5899999999999 0.899999999999977 20.6900000000001 0.899999999999977 20.6900000000001 0.899999999999977 C 9.78999999999996 0.899999999999977 0.990000000000009 9.69999999999993 0.990000000000009 20.6 C 0.990000000000009 20.6 0.990000000000009 40.1 0.990000000000009 40.1 C 0.990000000000009 50.9 9.78999999999996 59.6999999999999 20.6900000000001 59.6999999999999 Z"/></mask></defs><g><path fill="#9e9f9f" fill-opacity=".078" fill-rule="nonzero" stroke="none" d="M 20.6900000000001 59.6999999999999 C 20.6900000000001 59.6999999999999 36.5899999999999 59.6999999999999 36.5899999999999 59.6999999999999 C 47.3900000000001 59.6999999999999 56.1900000000001 50.9 56.1900000000001 40.1 C 56.1900000000001 40.1 56.1900000000001 20.6 56.1900000000001 20.6 C 56.1900000000001 9.69999999999993 47.3900000000001 0.899999999999977 36.5899999999999 0.899999999999977 C 36.5899999999999 0.899999999999977 20.6900000000001 0.899999999999977 20.6900000000001 0.899999999999977 C 9.78999999999996 0.899999999999977 0.990000000000009 9.69999999999993 0.990000000000009 20.6 C 0.990000000000009 20.6 0.990000000000009 40.1 0.990000000000009 40.1 C 0.990000000000009 50.9 9.78999999999996 59.6999999999999 20.6900000000001 59.6999999999999 Z" transform="matrix(1 0 0 1 -1083 -13176 ) matrix(1 0 0 1 1083 13176 )"/><path fill="none" stroke="#9e9f9f" stroke-opacity=".059" stroke-width="2" d="M 20.6900000000001 59.6999999999999 C 20.6900000000001 59.6999999999999 36.5899999999999 59.6999999999999 36.5899999999999 59.6999999999999 C 47.3900000000001 59.6999999999999 56.1900000000001 50.9 56.1900000000001 40.1 C 56.1900000000001 40.1 56.1900000000001 20.6 56.1900000000001 20.6 C 56.1900000000001 9.69999999999993 47.3900000000001 0.899999999999977 36.5899999999999 0.899999999999977 C 36.5899999999999 0.899999999999977 20.6900000000001 0.899999999999977 20.6900000000001 0.899999999999977 C 9.78999999999996 0.899999999999977 0.990000000000009 9.69999999999993 0.990000000000009 20.6 C 0.990000000000009 20.6 0.990000000000009 40.1 0.990000000000009 40.1 C 0.990000000000009 50.9 9.78999999999996 59.6999999999999 20.6900000000001 59.6999999999999 Z" mask="url(#clip2109)" transform="matrix(1 0 0 1 -1083 -13176 ) matrix(1 0 0 1 1083 13176 )"/></g></svg>