<?xml version="1.0" encoding="utf-8"?>
<svg version="1.1" xmlns:xlink="http://www.w3.org/1999/xlink" width="57px" height="60px" xmlns="http://www.w3.org/2000/svg">
  <defs>
    <mask fill="white" id="clip720">
      <path d="M 36.4 0.379999999999995  C 36.4 0.379999999999995  20.6 0.379999999999995  20.6 0.379999999999995  C 9.70000000000002 0.379999999999995  0.900000000000006 9.78  0.900000000000006 21.48  C 0.900000000000006 21.48  0.900000000000006 38.18  0.900000000000006 38.18  C 0.900000000000006 49.78  9.70000000000002 59.18  20.6 59.18  C 20.6 59.18  36.4 59.18  36.4 59.18  C 47.3 59.18  56.1 49.78  56.1 38.18  C 56.1 38.18  56.1 21.48  56.1 21.48  C 56.1 9.78  47.3 0.379999999999995  36.4 0.379999999999995  Z " fill-rule="evenodd" />
    </mask>
  </defs>
  <g transform="matrix(1 0 0 1 -223 -12473 )">
    <path d="M 36.4 0.379999999999995  C 36.4 0.379999999999995  20.6 0.379999999999995  20.6 0.379999999999995  C 9.70000000000002 0.379999999999995  0.900000000000006 9.78  0.900000000000006 21.48  C 0.900000000000006 21.48  0.900000000000006 38.18  0.900000000000006 38.18  C 0.900000000000006 49.78  9.70000000000002 59.18  20.6 59.18  C 20.6 59.18  36.4 59.18  36.4 59.18  C 47.3 59.18  56.1 49.78  56.1 38.18  C 56.1 38.18  56.1 21.48  56.1 21.48  C 56.1 9.78  47.3 0.379999999999995  36.4 0.379999999999995  Z " fill-rule="nonzero" fill="#dcdcdd" stroke="none" fill-opacity="0.0784313725490196" transform="matrix(1 0 0 1 223 12473 )" />
    <path d="M 36.4 0.379999999999995  C 36.4 0.379999999999995  20.6 0.379999999999995  20.6 0.379999999999995  C 9.70000000000002 0.379999999999995  0.900000000000006 9.78  0.900000000000006 21.48  C 0.900000000000006 21.48  0.900000000000006 38.18  0.900000000000006 38.18  C 0.900000000000006 49.78  9.70000000000002 59.18  20.6 59.18  C 20.6 59.18  36.4 59.18  36.4 59.18  C 47.3 59.18  56.1 49.78  56.1 38.18  C 56.1 38.18  56.1 21.48  56.1 21.48  C 56.1 9.78  47.3 0.379999999999995  36.4 0.379999999999995  Z " stroke-width="2" stroke="#dcdcdd" fill="none" stroke-opacity="0.0588235294117647" transform="matrix(1 0 0 1 223 12473 )" mask="url(#clip720)" />
  </g>
</svg>