<svg xmlns="http://www.w3.org/2000/svg" xmlns:xlink="http://www.w3.org/1999/xlink" width="18" height="18" version="1.1"><defs><mask id="clip1750" fill="#fff"><path fill-rule="evenodd" d="M 9.26800000000003 17.278 C 9.26800000000003 17.278 0.889999999999986 8.90000000000001 0.889999999999986 8.90000000000001 C 0.889999999999986 8.90000000000001 9.26800000000003 0.522000000000006 9.26800000000003 0.522000000000006 C 9.26800000000003 0.522000000000006 17.6460000000001 8.90000000000001 17.6460000000001 8.90000000000001 C 17.6460000000001 8.90000000000001 9.26800000000003 17.278 9.26800000000003 17.278 Z"/></mask></defs><g><path fill="#33b2c3" fill-rule="nonzero" stroke="none" d="M 9.26800000000003 17.278 C 9.26800000000003 17.278 0.889999999999986 8.90000000000001 0.889999999999986 8.90000000000001 C 0.889999999999986 8.90000000000001 9.26800000000003 0.522000000000006 9.26800000000003 0.522000000000006 C 9.26800000000003 0.522000000000006 17.6460000000001 8.90000000000001 17.6460000000001 8.90000000000001 C 17.6460000000001 8.90000000000001 9.26800000000003 17.278 9.26800000000003 17.278 Z" transform="matrix(1 0 0 1 -885 -4171 ) matrix(1 0 0 1 885 4171 )"/><path fill="none" stroke="#fff" stroke-width="2.008" d="M 9.26800000000003 17.278 C 9.26800000000003 17.278 0.889999999999986 8.90000000000001 0.889999999999986 8.90000000000001 C 0.889999999999986 8.90000000000001 9.26800000000003 0.522000000000006 9.26800000000003 0.522000000000006 C 9.26800000000003 0.522000000000006 17.6460000000001 8.90000000000001 17.6460000000001 8.90000000000001 C 17.6460000000001 8.90000000000001 9.26800000000003 17.278 9.26800000000003 17.278 Z" mask="url(#clip1750)" transform="matrix(1 0 0 1 -885 -4171 ) matrix(1 0 0 1 885 4171 )"/></g></svg>