<svg xmlns="http://www.w3.org/2000/svg" xmlns:xlink="http://www.w3.org/1999/xlink" width="4" height="3" version="1.1"><defs><mask id="clip1833" fill="#fff"><path fill-rule="evenodd" d="M 2.36999999999995 0.420000000000016 C 2.76999999999998 0.420000000000016 3.06999999999994 1.72000000000003 3.06999999999994 2.12 C 3.06999999999994 2.52000000000004 2.76999999999998 2.81999999999999 2.36999999999995 2.81999999999999 C 1.96999999999997 2.81999999999999 0.669999999999959 2.52000000000004 0.669999999999959 2.12 C 0.669999999999959 1.72000000000003 1.96999999999997 0.420000000000016 2.36999999999995 0.420000000000016 Z"/></mask></defs><g><path fill="#fff" fill-rule="nonzero" stroke="none" d="M 2.36999999999995 0.420000000000016 C 2.76999999999998 0.420000000000016 3.06999999999994 1.72000000000003 3.06999999999994 2.12 C 3.06999999999994 2.52000000000004 2.76999999999998 2.81999999999999 2.36999999999995 2.81999999999999 C 1.96999999999997 2.81999999999999 0.669999999999959 2.52000000000004 0.669999999999959 2.12 C 0.669999999999959 1.72000000000003 1.96999999999997 0.420000000000016 2.36999999999995 0.420000000000016 Z" transform="matrix(1 0 0 1 -426 -7217 ) matrix(1 0 0 1 426 7217 )"/><path fill="none" stroke="#fff" stroke-width="2" d="M 2.36999999999995 0.420000000000016 C 2.76999999999998 0.420000000000016 3.06999999999994 1.72000000000003 3.06999999999994 2.12 C 3.06999999999994 2.52000000000004 2.76999999999998 2.81999999999999 2.36999999999995 2.81999999999999 C 1.96999999999997 2.81999999999999 0.669999999999959 2.52000000000004 0.669999999999959 2.12 C 0.669999999999959 1.72000000000003 1.96999999999997 0.420000000000016 2.36999999999995 0.420000000000016 Z" mask="url(#clip1833)" transform="matrix(1 0 0 1 -426 -7217 ) matrix(1 0 0 1 426 7217 )"/></g></svg>