<?xml version="1.0" encoding="utf-8"?>
<svg version="1.1" xmlns:xlink="http://www.w3.org/1999/xlink" width="1126px" height="188px" xmlns="http://www.w3.org/2000/svg">
  <defs>
    <mask fill="white" id="clip649">
      <path d="M 0.5 187.52  C 0.5 187.52  0.5 0.519999999999982  0.5 0.519999999999982  C 0.5 0.519999999999982  1125.5 0.519999999999982  1125.5 0.519999999999982  C 1125.5 0.519999999999982  1125.5 187.52  1125.5 187.52  C 1125.5 187.52  0.5 187.52  0.5 187.52  Z " fill-rule="evenodd" />
    </mask>
  </defs>
  <g transform="matrix(1 0 0 1 -89 -11030 )">
    <path d="M 0.5 187.52  C 0.5 187.52  0.5 0.519999999999982  0.5 0.519999999999982  C 0.5 0.519999999999982  1125.5 0.519999999999982  1125.5 0.519999999999982  C 1125.5 0.519999999999982  1125.5 187.52  1125.5 187.52  C 1125.5 187.52  0.5 187.52  0.5 187.52  Z " fill-rule="nonzero" fill="#fbc0a6" stroke="none" transform="matrix(1 0 0 1 89 11030 )" />
    <path d="M 0.5 187.52  C 0.5 187.52  0.5 0.519999999999982  0.5 0.519999999999982  C 0.5 0.519999999999982  1125.5 0.519999999999982  1125.5 0.519999999999982  C 1125.5 0.519999999999982  1125.5 187.52  1125.5 187.52  C 1125.5 187.52  0.5 187.52  0.5 187.52  Z " stroke-width="2" stroke="#fbc0a6" fill="none" transform="matrix(1 0 0 1 89 11030 )" mask="url(#clip649)" />
  </g>
</svg>