<svg xmlns="http://www.w3.org/2000/svg" xmlns:xlink="http://www.w3.org/1999/xlink" width="199" height="155" version="1.1"><defs><radialGradient id="RadialGradient2417" cx=".84" cy=".71" r="249.6" gradientTransform="matrix(1 0 0 1 2.22044604925031E-16 0 )" gradientUnits="userSpaceOnUse"><stop id="Stop2418" offset="0" stop-color="#fffbf3"/><stop id="Stop2419" offset="1" stop-color="#fffaf0"/></radialGradient><mask id="clip2420" fill="#fff"><path fill-rule="evenodd" d="M 16.84 154.71 C 6.24000000000001 139.01 0.340000000000032 119.31 0.340000000000032 99.61 C 0.340000000000032 45.31 45.4400000000001 0.210000000000008 99.74 0.210000000000008 C 154.14 0.210000000000008 198.14 45.31 198.14 99.61 C 198.14 119.31 192.24 139.01 181.64 154.71 C 181.64 154.71 16.84 154.71 16.84 154.71 Z"/></mask></defs><g><path fill="url(#RadialGradient2417)" fill-rule="nonzero" stroke="none" d="M 16.84 154.71 C 6.24000000000001 139.01 0.340000000000032 119.31 0.340000000000032 99.61 C 0.340000000000032 45.31 45.4400000000001 0.210000000000008 99.74 0.210000000000008 C 154.14 0.210000000000008 198.14 45.31 198.14 99.61 C 198.14 119.31 192.24 139.01 181.64 154.71 C 181.64 154.71 16.84 154.71 16.84 154.71 Z" transform="matrix(1 0 0 1 -551 -16339 ) matrix(1 0 0 1 551 16339 )"/><path fill="none" stroke="#969696" stroke-width="2" d="M 16.84 154.71 C 6.24000000000001 139.01 0.340000000000032 119.31 0.340000000000032 99.61 C 0.340000000000032 45.31 45.4400000000001 0.210000000000008 99.74 0.210000000000008 C 154.14 0.210000000000008 198.14 45.31 198.14 99.61 C 198.14 119.31 192.24 139.01 181.64 154.71 C 181.64 154.71 16.84 154.71 16.84 154.71 Z" mask="url(#clip2420)" transform="matrix(1 0 0 1 -551 -16339 ) matrix(1 0 0 1 551 16339 )"/></g></svg>