<svg xmlns="http://www.w3.org/2000/svg" xmlns:xlink="http://www.w3.org/1999/xlink" width="57" height="60" version="1.1"><defs><mask id="clip2081" fill="#fff"><path fill-rule="evenodd" d="M 36.4 0.27 C 36.4 0.27 20.6 0.27 20.6 0.27 C 9.70000000000002 0.27 0.900000000000006 9.67 0.900000000000006 21.37 C 0.900000000000006 21.37 0.900000000000006 38.07 0.900000000000006 38.07 C 0.900000000000006 49.67 9.70000000000002 59.07 20.6 59.07 C 20.6 59.07 36.4 59.07 36.4 59.07 C 47.3 59.07 56.1 49.67 56.1 38.07 C 56.1 38.07 56.1 21.37 56.1 21.37 C 56.1 9.67 47.3 0.27 36.4 0.27 Z"/></mask></defs><g><path fill="#cdcece" fill-opacity=".078" fill-rule="nonzero" stroke="none" d="M 36.4 0.27 C 36.4 0.27 20.6 0.27 20.6 0.27 C 9.70000000000002 0.27 0.900000000000006 9.67 0.900000000000006 21.37 C 0.900000000000006 21.37 0.900000000000006 38.07 0.900000000000006 38.07 C 0.900000000000006 49.67 9.70000000000002 59.07 20.6 59.07 C 20.6 59.07 36.4 59.07 36.4 59.07 C 47.3 59.07 56.1 49.67 56.1 38.07 C 56.1 38.07 56.1 21.37 56.1 21.37 C 56.1 9.67 47.3 0.27 36.4 0.27 Z" transform="matrix(1 0 0 1 -223 -12411 ) matrix(1 0 0 1 223 12411 )"/><path fill="none" stroke="#cdcece" stroke-opacity=".059" stroke-width="2" d="M 36.4 0.27 C 36.4 0.27 20.6 0.27 20.6 0.27 C 9.70000000000002 0.27 0.900000000000006 9.67 0.900000000000006 21.37 C 0.900000000000006 21.37 0.900000000000006 38.07 0.900000000000006 38.07 C 0.900000000000006 49.67 9.70000000000002 59.07 20.6 59.07 C 20.6 59.07 36.4 59.07 36.4 59.07 C 47.3 59.07 56.1 49.67 56.1 38.07 C 56.1 38.07 56.1 21.37 56.1 21.37 C 56.1 9.67 47.3 0.27 36.4 0.27 Z" mask="url(#clip2081)" transform="matrix(1 0 0 1 -223 -12411 ) matrix(1 0 0 1 223 12411 )"/></g></svg>