<?xml version="1.0" encoding="utf-8"?>
<svg version="1.1" xmlns:xlink="http://www.w3.org/1999/xlink" width="56px" height="60px" xmlns="http://www.w3.org/2000/svg">
  <defs>
    <mask fill="white" id="clip561">
      <path d="M 20.4400000000001 59.5899999999999  C 20.4400000000001 59.5899999999999  36.34 59.5899999999999  36.34 59.5899999999999  C 47.14 59.5899999999999  55.9400000000001 50.79  55.9400000000001 39.99  C 55.9400000000001 39.99  55.9400000000001 20.49  55.9400000000001 20.49  C 55.9400000000001 9.58999999999992  47.14 0.789999999999964  36.34 0.789999999999964  C 36.34 0.789999999999964  20.4400000000001 0.789999999999964  20.4400000000001 0.789999999999964  C 9.53999999999996 0.789999999999964  0.740000000000009 9.58999999999992  0.740000000000009 20.49  C 0.740000000000009 20.49  0.740000000000009 39.99  0.740000000000009 39.99  C 0.740000000000009 50.79  9.53999999999996 59.5899999999999  20.4400000000001 59.5899999999999  Z " fill-rule="evenodd" />
    </mask>
  </defs>
  <g transform="matrix(1 0 0 1 -1022 -13114 )">
    <path d="M 20.4400000000001 59.5899999999999  C 20.4400000000001 59.5899999999999  36.34 59.5899999999999  36.34 59.5899999999999  C 47.14 59.5899999999999  55.9400000000001 50.79  55.9400000000001 39.99  C 55.9400000000001 39.99  55.9400000000001 20.49  55.9400000000001 20.49  C 55.9400000000001 9.58999999999992  47.14 0.789999999999964  36.34 0.789999999999964  C 36.34 0.789999999999964  20.4400000000001 0.789999999999964  20.4400000000001 0.789999999999964  C 9.53999999999996 0.789999999999964  0.740000000000009 9.58999999999992  0.740000000000009 20.49  C 0.740000000000009 20.49  0.740000000000009 39.99  0.740000000000009 39.99  C 0.740000000000009 50.79  9.53999999999996 59.5899999999999  20.4400000000001 59.5899999999999  Z " fill-rule="nonzero" fill="#dcdcdd" stroke="none" fill-opacity="0.0784313725490196" transform="matrix(1 0 0 1 1022 13114 )" />
    <path d="M 20.4400000000001 59.5899999999999  C 20.4400000000001 59.5899999999999  36.34 59.5899999999999  36.34 59.5899999999999  C 47.14 59.5899999999999  55.9400000000001 50.79  55.9400000000001 39.99  C 55.9400000000001 39.99  55.9400000000001 20.49  55.9400000000001 20.49  C 55.9400000000001 9.58999999999992  47.14 0.789999999999964  36.34 0.789999999999964  C 36.34 0.789999999999964  20.4400000000001 0.789999999999964  20.4400000000001 0.789999999999964  C 9.53999999999996 0.789999999999964  0.740000000000009 9.58999999999992  0.740000000000009 20.49  C 0.740000000000009 20.49  0.740000000000009 39.99  0.740000000000009 39.99  C 0.740000000000009 50.79  9.53999999999996 59.5899999999999  20.4400000000001 59.5899999999999  Z " stroke-width="2" stroke="#dcdcdd" fill="none" stroke-opacity="0.0588235294117647" transform="matrix(1 0 0 1 1022 13114 )" mask="url(#clip561)" />
  </g>
</svg>