<svg xmlns="http://www.w3.org/2000/svg" xmlns:xlink="http://www.w3.org/1999/xlink" width="4" height="5" version="1.1"><defs><mask id="clip1874" fill="#fff"><path fill-rule="evenodd" d="M 1.19000000000005 4.48999999999998 C 0.690000000000055 4.48999999999998 0.190000000000055 3.88999999999999 0.190000000000055 3.19 C 0.190000000000055 2.48999999999998 0.690000000000055 0.889999999999986 1.19000000000005 0.889999999999986 C 1.79000000000008 0.889999999999986 3.29000000000008 2.48999999999998 3.29000000000008 3.19 C 3.29000000000008 3.88999999999999 1.79000000000008 4.48999999999998 1.19000000000005 4.48999999999998 Z"/></mask></defs><g><path fill="#3e3938" fill-rule="nonzero" stroke="none" d="M 1.19000000000005 4.48999999999998 C 0.690000000000055 4.48999999999998 0.190000000000055 3.88999999999999 0.190000000000055 3.19 C 0.190000000000055 2.48999999999998 0.690000000000055 0.889999999999986 1.19000000000005 0.889999999999986 C 1.79000000000008 0.889999999999986 3.29000000000008 2.48999999999998 3.29000000000008 3.19 C 3.29000000000008 3.88999999999999 1.79000000000008 4.48999999999998 1.19000000000005 4.48999999999998 Z" transform="matrix(1 0 0 1 -470 -6896 ) matrix(1 0 0 1 470 6896 )"/><path fill="none" stroke="#3e3938" stroke-width="2" d="M 1.19000000000005 4.48999999999998 C 0.690000000000055 4.48999999999998 0.190000000000055 3.88999999999999 0.190000000000055 3.19 C 0.190000000000055 2.48999999999998 0.690000000000055 0.889999999999986 1.19000000000005 0.889999999999986 C 1.79000000000008 0.889999999999986 3.29000000000008 2.48999999999998 3.29000000000008 3.19 C 3.29000000000008 3.88999999999999 1.79000000000008 4.48999999999998 1.19000000000005 4.48999999999998 Z" mask="url(#clip1874)" transform="matrix(1 0 0 1 -470 -6896 ) matrix(1 0 0 1 470 6896 )"/></g></svg>