<?xml version="1.0" encoding="utf-8"?>
<svg version="1.1" xmlns:xlink="http://www.w3.org/1999/xlink" width="437px" height="35px" xmlns="http://www.w3.org/2000/svg">
  <defs>
    <mask fill="white" id="clip208">
      <path d="M 0.759999999999991 34.04  C 0.759999999999991 34.04  0.759999999999991 0.740000000000009  0.759999999999991 0.740000000000009  C 0.759999999999991 0.740000000000009  436.46 0.740000000000009  436.46 0.740000000000009  C 436.46 0.740000000000009  436.46 34.04  436.46 34.04  C 436.46 34.04  0.759999999999991 34.04  0.759999999999991 34.04  Z " fill-rule="evenodd" />
    </mask>
  </defs>
  <g transform="matrix(1 0 0 1 -219 -1726 )">
    <path d="M 0.759999999999991 34.04  C 0.759999999999991 34.04  0.759999999999991 0.740000000000009  0.759999999999991 0.740000000000009  C 0.759999999999991 0.740000000000009  436.46 0.740000000000009  436.46 0.740000000000009  C 436.46 0.740000000000009  436.46 34.04  436.46 34.04  C 436.46 34.04  0.759999999999991 34.04  0.759999999999991 34.04  Z " fill-rule="nonzero" fill="#fafafa" stroke="none" transform="matrix(1 0 0 1 219 1726 )" />
    <path d="M 0.759999999999991 34.04  C 0.759999999999991 34.04  0.759999999999991 0.740000000000009  0.759999999999991 0.740000000000009  C 0.759999999999991 0.740000000000009  436.46 0.740000000000009  436.46 0.740000000000009  C 436.46 0.740000000000009  436.46 34.04  436.46 34.04  C 436.46 34.04  0.759999999999991 34.04  0.759999999999991 34.04  Z " stroke-width="2" stroke="#c0c0c0" fill="none" transform="matrix(1 0 0 1 219 1726 )" mask="url(#clip208)" />
  </g>
</svg>