<?xml version="1.0" encoding="utf-8"?>
<svg version="1.1" xmlns:xlink="http://www.w3.org/1999/xlink" width="23px" height="25px" xmlns="http://www.w3.org/2000/svg">
  <defs>
    <mask fill="white" id="clip2121">
      <path d="M 0.220000000000027 24.61  C 0.220000000000027 24.61  0.220000000000027 0.910000000000025  0.220000000000027 0.910000000000025  C 0.220000000000027 0.910000000000025  22.52 0.910000000000025  22.52 0.910000000000025  C 22.52 0.910000000000025  22.52 24.61  22.52 24.61  C 22.52 24.61  0.220000000000027 24.61  0.220000000000027 24.61  Z " fill-rule="evenodd" />
    </mask>
  </defs>
  <g transform="matrix(1 0 0 1 -571 -14499 )">
    <path d="M 0.220000000000027 24.61  C 0.220000000000027 24.61  0.220000000000027 0.910000000000025  0.220000000000027 0.910000000000025  C 0.220000000000027 0.910000000000025  22.52 0.910000000000025  22.52 0.910000000000025  C 22.52 0.910000000000025  22.52 24.61  22.52 24.61  C 22.52 24.61  0.220000000000027 24.61  0.220000000000027 24.61  Z " fill-rule="nonzero" fill="#924916" stroke="none" transform="matrix(1 0 0 1 571 14499 )" />
    <path d="M 0.220000000000027 24.61  C 0.220000000000027 24.61  0.220000000000027 0.910000000000025  0.220000000000027 0.910000000000025  C 0.220000000000027 0.910000000000025  22.52 0.910000000000025  22.52 0.910000000000025  C 22.52 0.910000000000025  22.52 24.61  22.52 24.61  C 22.52 24.61  0.220000000000027 24.61  0.220000000000027 24.61  Z " stroke-width="2" stroke="#924916" fill="none" transform="matrix(1 0 0 1 571 14499 )" mask="url(#clip2121)" />
  </g>
</svg>