<svg xmlns="http://www.w3.org/2000/svg" xmlns:xlink="http://www.w3.org/1999/xlink" width="182" height="149" version="1.1"><defs><mask id="clip2666" fill="#fff"><path fill-rule="evenodd" d="M 18.55 93.83 C 18.55 93.83 0.550000000000011 94.43 0.550000000000011 94.43 C 0.550000000000011 93.53 0.550000000000011 92.63 0.550000000000011 91.73 C 0.550000000000011 42.23 40.65 0.129999999999995 90.15 0.129999999999995 C 139.65 0.129999999999995 181.85 42.23 181.85 91.73 C 181.85 113.03 174.35 132.63 161.95 148.03 C 161.95 148.03 148.05 136.73 148.05 136.73 C 157.95 124.43 163.85 108.83 163.85 91.73 C 163.85 52.13 129.75 18.03 90.15 18.03 C 50.55 18.03 18.45 52.13 18.45 91.73 C 18.45 92.43 18.45 93.13 18.55 93.83 Z"/></mask></defs><g><path fill="#33b2c3" fill-rule="nonzero" stroke="none" d="M 18.55 93.83 C 18.55 93.83 0.550000000000011 94.43 0.550000000000011 94.43 C 0.550000000000011 93.53 0.550000000000011 92.63 0.550000000000011 91.73 C 0.550000000000011 42.23 40.65 0.129999999999995 90.15 0.129999999999995 C 139.65 0.129999999999995 181.85 42.23 181.85 91.73 C 181.85 113.03 174.35 132.63 161.95 148.03 C 161.95 148.03 148.05 136.73 148.05 136.73 C 157.95 124.43 163.85 108.83 163.85 91.73 C 163.85 52.13 129.75 18.03 90.15 18.03 C 50.55 18.03 18.45 52.13 18.45 91.73 C 18.45 92.43 18.45 93.13 18.55 93.83 Z" transform="matrix(1 0 0 1 -433 -18960 ) matrix(1 0 0 1 433 18960 )"/><path fill="none" stroke="#fff" stroke-width="4" d="M 18.55 93.83 C 18.55 93.83 0.550000000000011 94.43 0.550000000000011 94.43 C 0.550000000000011 93.53 0.550000000000011 92.63 0.550000000000011 91.73 C 0.550000000000011 42.23 40.65 0.129999999999995 90.15 0.129999999999995 C 139.65 0.129999999999995 181.85 42.23 181.85 91.73 C 181.85 113.03 174.35 132.63 161.95 148.03 C 161.95 148.03 148.05 136.73 148.05 136.73 C 157.95 124.43 163.85 108.83 163.85 91.73 C 163.85 52.13 129.75 18.03 90.15 18.03 C 50.55 18.03 18.45 52.13 18.45 91.73 C 18.45 92.43 18.45 93.13 18.55 93.83 Z" mask="url(#clip2666)" transform="matrix(1 0 0 1 -433 -18960 ) matrix(1 0 0 1 433 18960 )"/></g></svg>