<?xml version="1.0" encoding="utf-8"?>
<svg version="1.1" xmlns:xlink="http://www.w3.org/1999/xlink" width="188px" height="30px" xmlns="http://www.w3.org/2000/svg">
  <defs>
    <linearGradient gradientUnits="userSpaceOnUse" x1="1.13000000000005" y1="0.739999999999998" x2="1.13000000000005" y2="29.14" id="LinearGradient898">
      <stop id="Stop899" stop-color="#d6d6d6" offset="0" />
      <stop id="Stop900" stop-color="#e4e4e4" offset="0.1" />
      <stop id="Stop901" stop-color="#e9e9e9" offset="0.4" />
      <stop id="Stop902" stop-color="#d6d6d6" offset="0.85" />
      <stop id="Stop903" stop-color="#bdbdbd" offset="1" />
    </linearGradient>
    <mask fill="white" id="clip904">
      <path d="M 0.629999999999995 29.64  C 0.629999999999995 29.64  0.629999999999995 0.240000000000009  0.629999999999995 0.240000000000009  C 0.629999999999995 0.240000000000009  187.93 0.240000000000009  187.93 0.240000000000009  C 187.93 0.240000000000009  187.93 29.64  187.93 29.64  C 187.93 29.64  0.629999999999995 29.64  0.629999999999995 29.64  Z " fill-rule="evenodd" />
    </mask>
  </defs>
  <g transform="matrix(1 0 0 1 -556 -16503 )">
    <path d="M 0.629999999999995 29.64  C 0.629999999999995 29.64  0.629999999999995 0.240000000000009  0.629999999999995 0.240000000000009  C 0.629999999999995 0.240000000000009  187.93 0.240000000000009  187.93 0.240000000000009  C 187.93 0.240000000000009  187.93 29.64  187.93 29.64  C 187.93 29.64  0.629999999999995 29.64  0.629999999999995 29.64  Z " fill-rule="nonzero" fill="url(#LinearGradient898)" stroke="none" transform="matrix(1 0 0 1 556 16503 )" />
    <path d="M 0.629999999999995 29.64  C 0.629999999999995 29.64  0.629999999999995 0.240000000000009  0.629999999999995 0.240000000000009  C 0.629999999999995 0.240000000000009  187.93 0.240000000000009  187.93 0.240000000000009  C 187.93 0.240000000000009  187.93 29.64  187.93 29.64  C 187.93 29.64  0.629999999999995 29.64  0.629999999999995 29.64  Z " stroke-width="2" stroke="#acacac" fill="none" transform="matrix(1 0 0 1 556 16503 )" mask="url(#clip904)" />
  </g>
</svg>