<svg xmlns="http://www.w3.org/2000/svg" xmlns:xlink="http://www.w3.org/1999/xlink" width="346" height="271" version="1.1"><defs><mask id="clip2454" fill="#fff"><path fill-rule="evenodd" d="M 12.26 270.7 C 12.26 270.7 334.56 270.7 334.56 270.7 C 340.86 270.7 345.86 265.6 345.86 259.4 C 345.86 259.4 345.86 11.9 345.86 11.9 C 345.86 5.70000000000004 340.86 0.600000000000023 334.56 0.600000000000023 C 334.56 0.600000000000023 12.26 0.600000000000023 12.26 0.600000000000023 C 6.06000000000006 0.600000000000023 0.960000000000036 5.70000000000004 0.960000000000036 11.9 C 0.960000000000036 11.9 0.960000000000036 259.4 0.960000000000036 259.4 C 0.960000000000036 265.6 6.06000000000006 270.7 12.26 270.7 Z"/></mask></defs><g><path fill="#fff" fill-opacity="0" fill-rule="nonzero" stroke="none" d="M 12.26 270.7 C 12.26 270.7 334.56 270.7 334.56 270.7 C 340.86 270.7 345.86 265.6 345.86 259.4 C 345.86 259.4 345.86 11.9 345.86 11.9 C 345.86 5.70000000000004 340.86 0.600000000000023 334.56 0.600000000000023 C 334.56 0.600000000000023 12.26 0.600000000000023 12.26 0.600000000000023 C 6.06000000000006 0.600000000000023 0.960000000000036 5.70000000000004 0.960000000000036 11.9 C 0.960000000000036 11.9 0.960000000000036 259.4 0.960000000000036 259.4 C 0.960000000000036 265.6 6.06000000000006 270.7 12.26 270.7 Z" transform="matrix(1 0 0 1 -834 -16579 ) matrix(1 0 0 1 834 16579 )"/><path fill="none" stroke="#cad4cc" stroke-width="2" d="M 12.26 270.7 C 12.26 270.7 334.56 270.7 334.56 270.7 C 340.86 270.7 345.86 265.6 345.86 259.4 C 345.86 259.4 345.86 11.9 345.86 11.9 C 345.86 5.70000000000004 340.86 0.600000000000023 334.56 0.600000000000023 C 334.56 0.600000000000023 12.26 0.600000000000023 12.26 0.600000000000023 C 6.06000000000006 0.600000000000023 0.960000000000036 5.70000000000004 0.960000000000036 11.9 C 0.960000000000036 11.9 0.960000000000036 259.4 0.960000000000036 259.4 C 0.960000000000036 265.6 6.06000000000006 270.7 12.26 270.7 Z" mask="url(#clip2454)" transform="matrix(1 0 0 1 -834 -16579 ) matrix(1 0 0 1 834 16579 )"/></g></svg>