<?xml version="1.0" encoding="utf-8"?>
<svg version="1.1" xmlns:xlink="http://www.w3.org/1999/xlink" width="3px" height="3px" xmlns="http://www.w3.org/2000/svg">
  <defs>
    <mask fill="white" id="clip1673">
      <path d="M 1.97999999999996 0.350000000000023  C 2.38 0.350000000000023  2.67999999999995 1.65000000000003  2.67999999999995 2.05000000000001  C 2.67999999999995 2.45000000000005  2.38 2.75  1.97999999999996 2.75  C 1.57999999999998 2.75  0.279999999999973 2.45000000000005  0.279999999999973 2.05000000000001  C 0.279999999999973 1.65000000000003  1.57999999999998 0.350000000000023  1.97999999999996 0.350000000000023  Z " fill-rule="evenodd" />
    </mask>
  </defs>
  <g transform="matrix(1 0 0 1 -404 -7230 )">
    <path d="M 1.97999999999996 0.350000000000023  C 2.38 0.350000000000023  2.67999999999995 1.65000000000003  2.67999999999995 2.05000000000001  C 2.67999999999995 2.45000000000005  2.38 2.75  1.97999999999996 2.75  C 1.57999999999998 2.75  0.279999999999973 2.45000000000005  0.279999999999973 2.05000000000001  C 0.279999999999973 1.65000000000003  1.57999999999998 0.350000000000023  1.97999999999996 0.350000000000023  Z " fill-rule="nonzero" fill="#ffffff" stroke="none" transform="matrix(1 0 0 1 404 7230 )" />
    <path d="M 1.97999999999996 0.350000000000023  C 2.38 0.350000000000023  2.67999999999995 1.65000000000003  2.67999999999995 2.05000000000001  C 2.67999999999995 2.45000000000005  2.38 2.75  1.97999999999996 2.75  C 1.57999999999998 2.75  0.279999999999973 2.45000000000005  0.279999999999973 2.05000000000001  C 0.279999999999973 1.65000000000003  1.57999999999998 0.350000000000023  1.97999999999996 0.350000000000023  Z " stroke-width="2" stroke="#ffffff" fill="none" transform="matrix(1 0 0 1 404 7230 )" mask="url(#clip1673)" />
  </g>
</svg>