<?xml version="1.0" encoding="utf-8"?>
<svg version="1.1" xmlns:xlink="http://www.w3.org/1999/xlink" width="200px" height="200px" xmlns="http://www.w3.org/2000/svg">
  <defs>
    <linearGradient gradientUnits="userSpaceOnUse" x1="-18.84" y1="44.01" x2="219.16" y2="155.01" id="LinearGradient1005">
      <stop id="Stop1006" stop-color="#ffffff" offset="0" />
      <stop id="Stop1007" stop-color="#e0e0e0" offset="0.2" />
      <stop id="Stop1008" stop-color="#7d7d7d" offset="0.85" />
      <stop id="Stop1009" stop-color="#7d7d7d" offset="1" />
    </linearGradient>
    <mask fill="white" id="clip1010">
      <path d="M 0.659999999999997 199.31  C 0.659999999999997 199.31  0.659999999999997 0.509999999999991  0.659999999999997 0.509999999999991  C 0.659999999999997 0.509999999999991  199.46 0.509999999999991  199.46 0.509999999999991  C 199.46 0.509999999999991  199.46 199.31  199.46 199.31  C 199.46 199.31  0.659999999999997 199.31  0.659999999999997 199.31  Z " fill-rule="evenodd" />
    </mask>
  </defs>
  <g transform="matrix(1 0 0 1 -142 -17468 )">
    <path d="M 0.659999999999997 199.31  C 0.659999999999997 199.31  0.659999999999997 0.509999999999991  0.659999999999997 0.509999999999991  C 0.659999999999997 0.509999999999991  199.46 0.509999999999991  199.46 0.509999999999991  C 199.46 0.509999999999991  199.46 199.31  199.46 199.31  C 199.46 199.31  0.659999999999997 199.31  0.659999999999997 199.31  Z " fill-rule="nonzero" fill="url(#LinearGradient1005)" stroke="none" transform="matrix(1 0 0 1 142 17468 )" />
    <path d="M 0.659999999999997 199.31  C 0.659999999999997 199.31  0.659999999999997 0.509999999999991  0.659999999999997 0.509999999999991  C 0.659999999999997 0.509999999999991  199.46 0.509999999999991  199.46 0.509999999999991  C 199.46 0.509999999999991  199.46 199.31  199.46 199.31  C 199.46 199.31  0.659999999999997 199.31  0.659999999999997 199.31  Z " stroke-width="2" stroke="#909090" fill="none" transform="matrix(1 0 0 1 142 17468 )" mask="url(#clip1010)" />
  </g>
</svg>