<svg xmlns="http://www.w3.org/2000/svg" xmlns:xlink="http://www.w3.org/1999/xlink" width="5" height="5" version="1.1"><defs><mask id="clip1877" fill="#fff"><path fill-rule="evenodd" d="M 1.95000000000005 4.48999999999998 C 1.45000000000005 4.48999999999998 0.950000000000045 3.88999999999999 0.950000000000045 3.19 C 0.950000000000045 2.48999999999998 1.45000000000005 0.889999999999986 1.95000000000005 0.889999999999986 C 2.55000000000007 0.889999999999986 4.05000000000007 2.48999999999998 4.05000000000007 3.19 C 4.05000000000007 3.88999999999999 2.55000000000007 4.48999999999998 1.95000000000005 4.48999999999998 Z"/></mask></defs><g><path fill="#3e3938" fill-rule="nonzero" stroke="none" d="M 1.95000000000005 4.48999999999998 C 1.45000000000005 4.48999999999998 0.950000000000045 3.88999999999999 0.950000000000045 3.19 C 0.950000000000045 2.48999999999998 1.45000000000005 0.889999999999986 1.95000000000005 0.889999999999986 C 2.55000000000007 0.889999999999986 4.05000000000007 2.48999999999998 4.05000000000007 3.19 C 4.05000000000007 3.88999999999999 2.55000000000007 4.48999999999998 1.95000000000005 4.48999999999998 Z" transform="matrix(1 0 0 1 -486 -6896 ) matrix(1 0 0 1 486 6896 )"/><path fill="none" stroke="#3e3938" stroke-width="2" d="M 1.95000000000005 4.48999999999998 C 1.45000000000005 4.48999999999998 0.950000000000045 3.88999999999999 0.950000000000045 3.19 C 0.950000000000045 2.48999999999998 1.45000000000005 0.889999999999986 1.95000000000005 0.889999999999986 C 2.55000000000007 0.889999999999986 4.05000000000007 2.48999999999998 4.05000000000007 3.19 C 4.05000000000007 3.88999999999999 2.55000000000007 4.48999999999998 1.95000000000005 4.48999999999998 Z" mask="url(#clip1877)" transform="matrix(1 0 0 1 -486 -6896 ) matrix(1 0 0 1 486 6896 )"/></g></svg>