<svg xmlns="http://www.w3.org/2000/svg" xmlns:xlink="http://www.w3.org/1999/xlink" width="6" height="21" version="1.1"><defs><mask id="clip1921" fill="#fff"><path fill-rule="evenodd" d="M 0.589999999999918 19.71 C 0.589999999999918 19.71 0.589999999999918 0.409999999999968 0.589999999999918 0.409999999999968 C 0.589999999999918 0.409999999999968 5.38999999999987 0.409999999999968 5.38999999999987 0.409999999999968 C 5.38999999999987 0.409999999999968 5.38999999999987 19.71 5.38999999999987 19.71 C 5.38999999999987 19.71 5.38999999999987 20.8099999999999 3.4899999999999 20.8099999999999 C 1.58999999999992 20.8099999999999 0.589999999999918 19.71 0.589999999999918 19.71 Z"/></mask></defs><g><path fill="#f06b6c" fill-rule="nonzero" stroke="none" d="M 0.589999999999918 19.71 C 0.589999999999918 19.71 0.589999999999918 0.409999999999968 0.589999999999918 0.409999999999968 C 0.589999999999918 0.409999999999968 5.38999999999987 0.409999999999968 5.38999999999987 0.409999999999968 C 5.38999999999987 0.409999999999968 5.38999999999987 19.71 5.38999999999987 19.71 C 5.38999999999987 19.71 5.38999999999987 20.8099999999999 3.4899999999999 20.8099999999999 C 1.58999999999992 20.8099999999999 0.589999999999918 19.71 0.589999999999918 19.71 Z" transform="matrix(1 0 0 1 -948 -7018 ) matrix(1 0 0 1 948 7018 )"/><path fill="none" stroke="#f06b6c" stroke-width="2" d="M 0.589999999999918 19.71 C 0.589999999999918 19.71 0.589999999999918 0.409999999999968 0.589999999999918 0.409999999999968 C 0.589999999999918 0.409999999999968 5.38999999999987 0.409999999999968 5.38999999999987 0.409999999999968 C 5.38999999999987 0.409999999999968 5.38999999999987 19.71 5.38999999999987 19.71 C 5.38999999999987 19.71 5.38999999999987 20.8099999999999 3.4899999999999 20.8099999999999 C 1.58999999999992 20.8099999999999 0.589999999999918 19.71 0.589999999999918 19.71 Z" mask="url(#clip1921)" transform="matrix(1 0 0 1 -948 -7018 ) matrix(1 0 0 1 948 7018 )"/></g></svg>