<?xml version="1.0" encoding="utf-8"?>
<svg version="1.1" xmlns:xlink="http://www.w3.org/1999/xlink" width="56px" height="60px" xmlns="http://www.w3.org/2000/svg">
  <defs>
    <mask fill="white" id="clip570">
      <path d="M 35.91 59.2099999999999  C 35.91 59.2099999999999  20.01 59.2099999999999  20.01 59.2099999999999  C 9.21 59.2099999999999  0.409999999999997 50.41  0.409999999999997 39.61  C 0.409999999999997 39.61  0.409999999999997 20.11  0.409999999999997 20.11  C 0.409999999999997 9.20999999999992  9.21 0.409999999999968  20.01 0.409999999999968  C 20.01 0.409999999999968  35.91 0.409999999999968  35.91 0.409999999999968  C 46.81 0.409999999999968  55.61 9.20999999999992  55.61 20.11  C 55.61 20.11  55.61 39.61  55.61 39.61  C 55.61 50.41  46.81 59.2099999999999  35.91 59.2099999999999  Z " fill-rule="evenodd" />
    </mask>
  </defs>
  <g transform="matrix(1 0 0 1 -101 -13048 )">
    <path d="M 35.91 59.2099999999999  C 35.91 59.2099999999999  20.01 59.2099999999999  20.01 59.2099999999999  C 9.21 59.2099999999999  0.409999999999997 50.41  0.409999999999997 39.61  C 0.409999999999997 39.61  0.409999999999997 20.11  0.409999999999997 20.11  C 0.409999999999997 9.20999999999992  9.21 0.409999999999968  20.01 0.409999999999968  C 20.01 0.409999999999968  35.91 0.409999999999968  35.91 0.409999999999968  C 46.81 0.409999999999968  55.61 9.20999999999992  55.61 20.11  C 55.61 20.11  55.61 39.61  55.61 39.61  C 55.61 50.41  46.81 59.2099999999999  35.91 59.2099999999999  Z " fill-rule="nonzero" fill="#cdcece" stroke="none" fill-opacity="0.0784313725490196" transform="matrix(1 0 0 1 101 13048 )" />
    <path d="M 35.91 59.2099999999999  C 35.91 59.2099999999999  20.01 59.2099999999999  20.01 59.2099999999999  C 9.21 59.2099999999999  0.409999999999997 50.41  0.409999999999997 39.61  C 0.409999999999997 39.61  0.409999999999997 20.11  0.409999999999997 20.11  C 0.409999999999997 9.20999999999992  9.21 0.409999999999968  20.01 0.409999999999968  C 20.01 0.409999999999968  35.91 0.409999999999968  35.91 0.409999999999968  C 46.81 0.409999999999968  55.61 9.20999999999992  55.61 20.11  C 55.61 20.11  55.61 39.61  55.61 39.61  C 55.61 50.41  46.81 59.2099999999999  35.91 59.2099999999999  Z " stroke-width="2" stroke="#cdcece" fill="none" stroke-opacity="0.0588235294117647" transform="matrix(1 0 0 1 101 13048 )" mask="url(#clip570)" />
  </g>
</svg>