<?xml version="1.0" encoding="utf-8"?>
<svg version="1.1" xmlns:xlink="http://www.w3.org/1999/xlink" width="292px" height="34px" xmlns="http://www.w3.org/2000/svg">
  <defs>
    <mask fill="white" id="clip203">
      <path d="M 0.759999999999991 33.5  C 0.759999999999991 33.5  0.759999999999991 0.200000000000045  0.759999999999991 0.200000000000045  C 0.759999999999991 0.200000000000045  291.66 0.200000000000045  291.66 0.200000000000045  C 291.66 0.200000000000045  291.66 33.5  291.66 33.5  C 291.66 33.5  0.759999999999991 33.5  0.759999999999991 33.5  Z " fill-rule="evenodd" />
    </mask>
  </defs>
  <g transform="matrix(1 0 0 1 -219 -1901 )">
    <path d="M 0.759999999999991 33.5  C 0.759999999999991 33.5  0.759999999999991 0.200000000000045  0.759999999999991 0.200000000000045  C 0.759999999999991 0.200000000000045  291.66 0.200000000000045  291.66 0.200000000000045  C 291.66 0.200000000000045  291.66 33.5  291.66 33.5  C 291.66 33.5  0.759999999999991 33.5  0.759999999999991 33.5  Z " fill-rule="nonzero" fill="#595757" stroke="none" transform="matrix(1 0 0 1 219 1901 )" />
    <path d="M 0.759999999999991 33.5  C 0.759999999999991 33.5  0.759999999999991 0.200000000000045  0.759999999999991 0.200000000000045  C 0.759999999999991 0.200000000000045  291.66 0.200000000000045  291.66 0.200000000000045  C 291.66 0.200000000000045  291.66 33.5  291.66 33.5  C 291.66 33.5  0.759999999999991 33.5  0.759999999999991 33.5  Z " stroke-width="2" stroke="#595757" fill="none" transform="matrix(1 0 0 1 219 1901 )" mask="url(#clip203)" />
  </g>
</svg>