<svg xmlns="http://www.w3.org/2000/svg" xmlns:xlink="http://www.w3.org/1999/xlink" width="12" height="15" version="1.1"><defs><mask id="clip1821" fill="#fff"><path fill-rule="evenodd" d="M 11.89 0.0500000000000114 C 11.89 0.0500000000000114 10.39 0.0500000000000114 10.39 0.0500000000000114 C 10.39 0.0500000000000114 10.39 13.35 10.39 13.35 C 10.39 13.35 0.389999999999986 13.35 0.389999999999986 13.35 C 0.389999999999986 13.35 0.389999999999986 14.85 0.389999999999986 14.85 C 0.389999999999986 14.85 11.89 14.85 11.89 14.85 C 11.89 14.85 11.89 0.0500000000000114 11.89 0.0500000000000114 Z"/></mask></defs><g><path fill="#fff" fill-rule="nonzero" stroke="none" d="M 11.89 0.0500000000000114 C 11.89 0.0500000000000114 10.39 0.0500000000000114 10.39 0.0500000000000114 C 10.39 0.0500000000000114 10.39 13.35 10.39 13.35 C 10.39 13.35 0.389999999999986 13.35 0.389999999999986 13.35 C 0.389999999999986 13.35 0.389999999999986 14.85 0.389999999999986 14.85 C 0.389999999999986 14.85 11.89 14.85 11.89 14.85 C 11.89 14.85 11.89 0.0500000000000114 11.89 0.0500000000000114 Z" transform="matrix(1 0 0 1 -288 -7004 ) matrix(1 0 0 1 288 7004 )"/><path fill="none" stroke="#fff" stroke-width="2" d="M 11.89 0.0500000000000114 C 11.89 0.0500000000000114 10.39 0.0500000000000114 10.39 0.0500000000000114 C 10.39 0.0500000000000114 10.39 13.35 10.39 13.35 C 10.39 13.35 0.389999999999986 13.35 0.389999999999986 13.35 C 0.389999999999986 13.35 0.389999999999986 14.85 0.389999999999986 14.85 C 0.389999999999986 14.85 11.89 14.85 11.89 14.85 C 11.89 14.85 11.89 0.0500000000000114 11.89 0.0500000000000114 Z" mask="url(#clip1821)" transform="matrix(1 0 0 1 -288 -7004 ) matrix(1 0 0 1 288 7004 )"/></g></svg>