<?xml version="1.0" encoding="utf-8"?>
<svg version="1.1" xmlns:xlink="http://www.w3.org/1999/xlink" width="80px" height="80px" xmlns="http://www.w3.org/2000/svg">
  <defs>
    <mask fill="white" id="clip339">
      <path d="M 40.3900000000001 80  C 18.7900000000001 80  0.190000000000055 62.5  0.190000000000055 40.8  C 0.190000000000055 19.2  18.7900000000001 0.600000000000023  40.3900000000001 0.600000000000023  C 62.09 0.600000000000023  79.59 19.2  79.59 40.8  C 79.59 62.5  62.09 80  40.3900000000001 80  Z " fill-rule="evenodd" />
    </mask>
  </defs>
  <g transform="matrix(1 0 0 1 -696 -7159 )">
    <path d="M 40.3900000000001 80  C 18.7900000000001 80  0.190000000000055 62.5  0.190000000000055 40.8  C 0.190000000000055 19.2  18.7900000000001 0.600000000000023  40.3900000000001 0.600000000000023  C 62.09 0.600000000000023  79.59 19.2  79.59 40.8  C 79.59 62.5  62.09 80  40.3900000000001 80  Z " fill-rule="nonzero" fill="#ffffff" stroke="none" fill-opacity="0" transform="matrix(1 0 0 1 696 7159 )" />
    <path d="M 40.3900000000001 80  C 18.7900000000001 80  0.190000000000055 62.5  0.190000000000055 40.8  C 0.190000000000055 19.2  18.7900000000001 0.600000000000023  40.3900000000001 0.600000000000023  C 62.09 0.600000000000023  79.59 19.2  79.59 40.8  C 79.59 62.5  62.09 80  40.3900000000001 80  Z " stroke-width="2" stroke="#34c2c2" fill="none" transform="matrix(1 0 0 1 696 7159 )" mask="url(#clip339)" />
  </g>
</svg>