<svg xmlns="http://www.w3.org/2000/svg" xmlns:xlink="http://www.w3.org/1999/xlink" width="40" height="40" version="1.1"><defs><mask id="clip1820" fill="#fff"><path fill-rule="evenodd" d="M 31.62 9.06000000000003 C 31.62 9.06000000000003 37.52 13.16 37.52 13.16 C 38.72 11.76 39.42 10.06 39.42 8.16000000000003 C 39.42 3.96000000000001 36.12 0.560000000000031 31.82 0.260000000000019 C 31.72 0.260000000000019 31.52 0.260000000000019 31.42 0.260000000000019 C 29.52 0.260000000000019 27.72 0.960000000000008 26.32 1.96000000000001 C 26.32 1.96000000000001 31.42 7.06000000000003 31.42 7.06000000000003 C 28.02 6.16000000000003 25.02 4.96000000000001 21.82 4.66000000000003 C 21.82 3.86000000000001 21.22 3.16000000000003 20.42 3.16000000000003 C 19.62 3.16000000000003 17.92 3.86000000000001 17.92 4.66000000000003 C 14.72 4.96000000000001 11.82 6.16000000000003 9.42000000000002 8.06000000000003 C 9.42000000000002 8.06000000000003 13.52 1.96000000000001 13.52 1.96000000000001 C 12.12 0.960000000000008 10.32 0.260000000000019 8.42000000000002 0.260000000000019 C 8.32000000000002 0.260000000000019 8.12 0.260000000000019 8.02000000000001 0.260000000000019 C 3.72000000000003 0.560000000000031 0.420000000000016 3.96000000000001 0.420000000000016 8.16000000000003 C 0.420000000000016 10.06 1.12 11.76 2.32000000000002 13.16 C 2.32000000000002 13.16 7.32000000000002 8.16000000000003 7.32000000000002 8.16000000000003 C 4.92000000000002 12.06 2.92000000000002 17.56 2.92000000000002 22.46 C 2.92000000000002 26.66 4.42000000000002 30.46 6.92000000000002 33.46 C 6.92000000000002 33.46 3.52000000000001 37.66 3.52000000000001 37.66 C 3.52000000000001 37.66 4.62 38.66 4.62 38.66 C 4.62 38.66 7.92000000000002 34.56 7.92000000000002 34.56 C 10.92 37.46 15.92 39.26 20.42 39.26 C 24.92 39.26 28.92 37.46 31.92 34.56 C 31.92 34.56 35.22 38.66 35.22 38.66 C 35.22 38.66 36.32 37.76 36.32 37.76 C 36.32 37.76 32.92 33.46 32.92 33.46 C 35.42 30.46 36.92 26.66 36.92 22.46 C 36.92 17.56 34.92 12.06 31.62 9.06000000000003 Z M 12.12 2.26000000000002 C 12.12 2.26000000000002 2.52000000000001 11.76 2.52000000000001 11.76 C 2.12 10.96 1.92000000000002 10.06 1.92000000000002 9.16000000000003 C 1.92000000000002 5.76000000000002 5.62 1.96000000000001 9.02000000000001 1.66000000000003 C 10.22 1.66000000000003 11.22 1.86000000000001 12.12 2.26000000000002 Z M 20.42 5.96000000000001 C 28.72 5.96000000000001 35.42 13.76 35.42 22.26 C 35.42 30.66 28.72 37.26 20.42 37.26 C 12.12 37.26 4.42000000000002 30.66 4.42000000000002 22.26 C 4.42000000000002 13.86 12.12 5.96000000000001 20.42 5.96000000000001 Z M 37.32 11.86 C 37.32 11.86 27.72 2.26000000000002 27.72 2.26000000000002 C 28.62 1.86000000000001 29.62 1.66000000000003 30.82 1.76000000000002 C 34.32 1.96000000000001 37.92 5.76000000000002 37.92 9.16000000000003 C 37.92 10.06 37.72 10.96 37.32 11.86 Z"/></mask></defs><g><path fill="#fff" fill-rule="nonzero" stroke="none" d="M 31.62 9.06000000000003 C 31.62 9.06000000000003 37.52 13.16 37.52 13.16 C 38.72 11.76 39.42 10.06 39.42 8.16000000000003 C 39.42 3.96000000000001 36.12 0.560000000000031 31.82 0.260000000000019 C 31.72 0.260000000000019 31.52 0.260000000000019 31.42 0.260000000000019 C 29.52 0.260000000000019 27.72 0.960000000000008 26.32 1.96000000000001 C 26.32 1.96000000000001 31.42 7.06000000000003 31.42 7.06000000000003 C 28.02 6.16000000000003 25.02 4.96000000000001 21.82 4.66000000000003 C 21.82 3.86000000000001 21.22 3.16000000000003 20.42 3.16000000000003 C 19.62 3.16000000000003 17.92 3.86000000000001 17.92 4.66000000000003 C 14.72 4.96000000000001 11.82 6.16000000000003 9.42000000000002 8.06000000000003 C 9.42000000000002 8.06000000000003 13.52 1.96000000000001 13.52 1.96000000000001 C 12.12 0.960000000000008 10.32 0.260000000000019 8.42000000000002 0.260000000000019 C 8.32000000000002 0.260000000000019 8.12 0.260000000000019 8.02000000000001 0.260000000000019 C 3.72000000000003 0.560000000000031 0.420000000000016 3.96000000000001 0.420000000000016 8.16000000000003 C 0.420000000000016 10.06 1.12 11.76 2.32000000000002 13.16 C 2.32000000000002 13.16 7.32000000000002 8.16000000000003 7.32000000000002 8.16000000000003 C 4.92000000000002 12.06 2.92000000000002 17.56 2.92000000000002 22.46 C 2.92000000000002 26.66 4.42000000000002 30.46 6.92000000000002 33.46 C 6.92000000000002 33.46 3.52000000000001 37.66 3.52000000000001 37.66 C 3.52000000000001 37.66 4.62 38.66 4.62 38.66 C 4.62 38.66 7.92000000000002 34.56 7.92000000000002 34.56 C 10.92 37.46 15.92 39.26 20.42 39.26 C 24.92 39.26 28.92 37.46 31.92 34.56 C 31.92 34.56 35.22 38.66 35.22 38.66 C 35.22 38.66 36.32 37.76 36.32 37.76 C 36.32 37.76 32.92 33.46 32.92 33.46 C 35.42 30.46 36.92 26.66 36.92 22.46 C 36.92 17.56 34.92 12.06 31.62 9.06000000000003 Z M 12.12 2.26000000000002 C 12.12 2.26000000000002 2.52000000000001 11.76 2.52000000000001 11.76 C 2.12 10.96 1.92000000000002 10.06 1.92000000000002 9.16000000000003 C 1.92000000000002 5.76000000000002 5.62 1.96000000000001 9.02000000000001 1.66000000000003 C 10.22 1.66000000000003 11.22 1.86000000000001 12.12 2.26000000000002 Z M 20.42 5.96000000000001 C 28.72 5.96000000000001 35.42 13.76 35.42 22.26 C 35.42 30.66 28.72 37.26 20.42 37.26 C 12.12 37.26 4.42000000000002 30.66 4.42000000000002 22.26 C 4.42000000000002 13.86 12.12 5.96000000000001 20.42 5.96000000000001 Z M 37.32 11.86 C 37.32 11.86 27.72 2.26000000000002 27.72 2.26000000000002 C 28.62 1.86000000000001 29.62 1.66000000000003 30.82 1.76000000000002 C 34.32 1.96000000000001 37.92 5.76000000000002 37.92 9.16000000000003 C 37.92 10.06 37.72 10.96 37.32 11.86 Z" transform="matrix(1 0 0 1 -278 -6994 ) matrix(1 0 0 1 278 6994 )"/><path fill="none" stroke="#fff" stroke-width="2" d="M 31.62 9.06000000000003 C 31.62 9.06000000000003 37.52 13.16 37.52 13.16 C 38.72 11.76 39.42 10.06 39.42 8.16000000000003 C 39.42 3.96000000000001 36.12 0.560000000000031 31.82 0.260000000000019 C 31.72 0.260000000000019 31.52 0.260000000000019 31.42 0.260000000000019 C 29.52 0.260000000000019 27.72 0.960000000000008 26.32 1.96000000000001 C 26.32 1.96000000000001 31.42 7.06000000000003 31.42 7.06000000000003 C 28.02 6.16000000000003 25.02 4.96000000000001 21.82 4.66000000000003 C 21.82 3.86000000000001 21.22 3.16000000000003 20.42 3.16000000000003 C 19.62 3.16000000000003 17.92 3.86000000000001 17.92 4.66000000000003 C 14.72 4.96000000000001 11.82 6.16000000000003 9.42000000000002 8.06000000000003 C 9.42000000000002 8.06000000000003 13.52 1.96000000000001 13.52 1.96000000000001 C 12.12 0.960000000000008 10.32 0.260000000000019 8.42000000000002 0.260000000000019 C 8.32000000000002 0.260000000000019 8.12 0.260000000000019 8.02000000000001 0.260000000000019 C 3.72000000000003 0.560000000000031 0.420000000000016 3.96000000000001 0.420000000000016 8.16000000000003 C 0.420000000000016 10.06 1.12 11.76 2.32000000000002 13.16 C 2.32000000000002 13.16 7.32000000000002 8.16000000000003 7.32000000000002 8.16000000000003 C 4.92000000000002 12.06 2.92000000000002 17.56 2.92000000000002 22.46 C 2.92000000000002 26.66 4.42000000000002 30.46 6.92000000000002 33.46 C 6.92000000000002 33.46 3.52000000000001 37.66 3.52000000000001 37.66 C 3.52000000000001 37.66 4.62 38.66 4.62 38.66 C 4.62 38.66 7.92000000000002 34.56 7.92000000000002 34.56 C 10.92 37.46 15.92 39.26 20.42 39.26 C 24.92 39.26 28.92 37.46 31.92 34.56 C 31.92 34.56 35.22 38.66 35.22 38.66 C 35.22 38.66 36.32 37.76 36.32 37.76 C 36.32 37.76 32.92 33.46 32.92 33.46 C 35.42 30.46 36.92 26.66 36.92 22.46 C 36.92 17.56 34.92 12.06 31.62 9.06000000000003 Z" mask="url(#clip1820)" transform="matrix(1 0 0 1 -278 -6994 ) matrix(1 0 0 1 278 6994 )"/><path fill="none" stroke="#fff" stroke-width="2" d="M 12.12 2.26000000000002 C 12.12 2.26000000000002 2.52000000000001 11.76 2.52000000000001 11.76 C 2.12 10.96 1.92000000000002 10.06 1.92000000000002 9.16000000000003 C 1.92000000000002 5.76000000000002 5.62 1.96000000000001 9.02000000000001 1.66000000000003 C 10.22 1.66000000000003 11.22 1.86000000000001 12.12 2.26000000000002 Z" mask="url(#clip1820)" transform="matrix(1 0 0 1 -278 -6994 ) matrix(1 0 0 1 278 6994 )"/><path fill="none" stroke="#fff" stroke-width="2" d="M 20.42 5.96000000000001 C 28.72 5.96000000000001 35.42 13.76 35.42 22.26 C 35.42 30.66 28.72 37.26 20.42 37.26 C 12.12 37.26 4.42000000000002 30.66 4.42000000000002 22.26 C 4.42000000000002 13.86 12.12 5.96000000000001 20.42 5.96000000000001 Z" mask="url(#clip1820)" transform="matrix(1 0 0 1 -278 -6994 ) matrix(1 0 0 1 278 6994 )"/><path fill="none" stroke="#fff" stroke-width="2" d="M 37.32 11.86 C 37.32 11.86 27.72 2.26000000000002 27.72 2.26000000000002 C 28.62 1.86000000000001 29.62 1.66000000000003 30.82 1.76000000000002 C 34.32 1.96000000000001 37.92 5.76000000000002 37.92 9.16000000000003 C 37.92 10.06 37.72 10.96 37.32 11.86 Z" mask="url(#clip1820)" transform="matrix(1 0 0 1 -278 -6994 ) matrix(1 0 0 1 278 6994 )"/></g></svg>