<?xml version="1.0" encoding="utf-8"?>
<svg version="1.1" xmlns:xlink="http://www.w3.org/1999/xlink" width="1124px" height="7px" xmlns="http://www.w3.org/2000/svg">
  <defs>
    <mask fill="white" id="clip214">
      <path d="M 0.5 6.19000000000005  C 0.5 6.19000000000005  0.5 0.190000000000055  0.5 0.190000000000055  C 0.5 0.190000000000055  1124 0.190000000000055  1124 0.190000000000055  C 1124 0.190000000000055  1124 6.19000000000005  1124 6.19000000000005  C 1124 6.19000000000005  0.5 6.19000000000005  0.5 6.19000000000005  Z " fill-rule="evenodd" />
    </mask>
  </defs>
  <g transform="matrix(1 0 0 1 -89 -5722 )">
    <path d="M 0.5 6.19000000000005  C 0.5 6.19000000000005  0.5 0.190000000000055  0.5 0.190000000000055  C 0.5 0.190000000000055  1124 0.190000000000055  1124 0.190000000000055  C 1124 0.190000000000055  1124 6.19000000000005  1124 6.19000000000005  C 1124 6.19000000000005  0.5 6.19000000000005  0.5 6.19000000000005  Z " fill-rule="nonzero" fill="#8bc0d3" stroke="none" transform="matrix(1 0 0 1 89 5722 )" />
    <path d="M 0.5 6.19000000000005  C 0.5 6.19000000000005  0.5 0.190000000000055  0.5 0.190000000000055  C 0.5 0.190000000000055  1124 0.190000000000055  1124 0.190000000000055  C 1124 0.190000000000055  1124 6.19000000000005  1124 6.19000000000005  C 1124 6.19000000000005  0.5 6.19000000000005  0.5 6.19000000000005  Z " stroke-width="2" stroke="#8bc0d3" fill="none" transform="matrix(1 0 0 1 89 5722 )" mask="url(#clip214)" />
  </g>
</svg>