<?xml version="1.0" encoding="utf-8"?>
<svg version="1.1" xmlns:xlink="http://www.w3.org/1999/xlink" width="97px" height="232px" xmlns="http://www.w3.org/2000/svg">
  <defs>
    <mask fill="white" id="clip881">
      <path d="M 0.189999999999941 231.3  C 0.189999999999941 231.3  0.189999999999941 0.899999999999977  0.189999999999941 0.899999999999977  C 0.189999999999941 0.899999999999977  96.3899999999999 0.899999999999977  96.3899999999999 0.899999999999977  C 96.3899999999999 0.899999999999977  96.3899999999999 231.3  96.3899999999999 231.3  C 96.3899999999999 231.3  0.189999999999941 231.3  0.189999999999941 231.3  Z " fill-rule="evenodd" />
    </mask>
  </defs>
  <g transform="matrix(1 0 0 1 -427 -14787 )">
    <path d="M 0.189999999999941 231.3  C 0.189999999999941 231.3  0.189999999999941 0.899999999999977  0.189999999999941 0.899999999999977  C 0.189999999999941 0.899999999999977  96.3899999999999 0.899999999999977  96.3899999999999 0.899999999999977  C 96.3899999999999 0.899999999999977  96.3899999999999 231.3  96.3899999999999 231.3  C 96.3899999999999 231.3  0.189999999999941 231.3  0.189999999999941 231.3  Z " fill-rule="nonzero" fill="#ffffff" stroke="none" transform="matrix(1 0 0 1 427 14787 )" />
    <path d="M 0.189999999999941 231.3  C 0.189999999999941 231.3  0.189999999999941 0.899999999999977  0.189999999999941 0.899999999999977  C 0.189999999999941 0.899999999999977  96.3899999999999 0.899999999999977  96.3899999999999 0.899999999999977  C 96.3899999999999 0.899999999999977  96.3899999999999 231.3  96.3899999999999 231.3  C 96.3899999999999 231.3  0.189999999999941 231.3  0.189999999999941 231.3  Z " stroke-width="2" stroke="#d2d2d2" fill="none" transform="matrix(1 0 0 1 427 14787 )" mask="url(#clip881)" />
  </g>
</svg>