<?xml version="1.0" encoding="utf-8"?>
<svg version="1.1" xmlns:xlink="http://www.w3.org/1999/xlink" width="8px" height="14px" xmlns="http://www.w3.org/2000/svg">
  <defs>
    <mask fill="white" id="clip937">
      <path d="M 0.659999999999968 8.49000000000001  C 0.659999999999968 8.49000000000001  0.659999999999968 0.190000000000055  0.659999999999968 0.190000000000055  C 0.659999999999968 0.190000000000055  7.36000000000001 0.190000000000055  7.36000000000001 0.190000000000055  C 7.36000000000001 0.190000000000055  7.36000000000001 8.49000000000001  7.36000000000001 8.49000000000001  C 7.36000000000001 8.49000000000001  3.45999999999992 13.2900000000001  3.45999999999992 13.2900000000001  C 3.45999999999992 13.2900000000001  0.659999999999968 8.49000000000001  0.659999999999968 8.49000000000001  Z " fill-rule="evenodd" />
    </mask>
  </defs>
  <g transform="matrix(1 0 0 1 -761 -14958 )">
    <path d="M 0.659999999999968 8.49000000000001  C 0.659999999999968 8.49000000000001  0.659999999999968 0.190000000000055  0.659999999999968 0.190000000000055  C 0.659999999999968 0.190000000000055  7.36000000000001 0.190000000000055  7.36000000000001 0.190000000000055  C 7.36000000000001 0.190000000000055  7.36000000000001 8.49000000000001  7.36000000000001 8.49000000000001  C 7.36000000000001 8.49000000000001  3.45999999999992 13.2900000000001  3.45999999999992 13.2900000000001  C 3.45999999999992 13.2900000000001  0.659999999999968 8.49000000000001  0.659999999999968 8.49000000000001  Z " fill-rule="nonzero" fill="#d2691e" stroke="none" transform="matrix(1 0 0 1 761 14958 )" />
    <path d="M 0.659999999999968 8.49000000000001  C 0.659999999999968 8.49000000000001  0.659999999999968 0.190000000000055  0.659999999999968 0.190000000000055  C 0.659999999999968 0.190000000000055  7.36000000000001 0.190000000000055  7.36000000000001 0.190000000000055  C 7.36000000000001 0.190000000000055  7.36000000000001 8.49000000000001  7.36000000000001 8.49000000000001  C 7.36000000000001 8.49000000000001  3.45999999999992 13.2900000000001  3.45999999999992 13.2900000000001  C 3.45999999999992 13.2900000000001  0.659999999999968 8.49000000000001  0.659999999999968 8.49000000000001  Z " stroke-width="2" stroke="#a52a2a" fill="none" transform="matrix(1 0 0 1 761 14958 )" mask="url(#clip937)" />
  </g>
</svg>