<?xml version="1.0" encoding="utf-8"?>
<svg version="1.1" xmlns:xlink="http://www.w3.org/1999/xlink" width="992px" height="49px" xmlns="http://www.w3.org/2000/svg">
  <defs>
    <mask fill="white" id="clip1143">
      <path d="M 0.760000000000005 48.85  C 0.760000000000005 48.85  0.760000000000005 0.850000000000023  0.760000000000005 0.850000000000023  C 0.760000000000005 0.850000000000023  991.76 0.850000000000023  991.76 0.850000000000023  C 991.76 0.850000000000023  991.76 48.85  991.76 48.85  C 991.76 48.85  0.760000000000005 48.85  0.760000000000005 48.85  Z " fill-rule="evenodd" />
    </mask>
  </defs>
  <g transform="matrix(1 0 0 1 -154 -18254 )">
    <path d="M 0.760000000000005 48.85  C 0.760000000000005 48.85  0.760000000000005 0.850000000000023  0.760000000000005 0.850000000000023  C 0.760000000000005 0.850000000000023  991.76 0.850000000000023  991.76 0.850000000000023  C 991.76 0.850000000000023  991.76 48.85  991.76 48.85  C 991.76 48.85  0.760000000000005 48.85  0.760000000000005 48.85  Z " fill-rule="nonzero" fill="#f0f0f0" stroke="none" transform="matrix(1 0 0 1 154 18254 )" />
    <path d="M 0.760000000000005 48.85  C 0.760000000000005 48.85  0.760000000000005 0.850000000000023  0.760000000000005 0.850000000000023  C 0.760000000000005 0.850000000000023  991.76 0.850000000000023  991.76 0.850000000000023  C 991.76 0.850000000000023  991.76 48.85  991.76 48.85  C 991.76 48.85  0.760000000000005 48.85  0.760000000000005 48.85  Z " stroke-width="2" stroke="#ffffff" fill="none" transform="matrix(1 0 0 1 154 18254 )" mask="url(#clip1143)" />
  </g>
</svg>