<?xml version="1.0" encoding="utf-8"?>
<svg version="1.1" xmlns:xlink="http://www.w3.org/1999/xlink" width="1122px" height="18px" xmlns="http://www.w3.org/2000/svg">
  <defs>
    <mask fill="white" id="clip151">
      <path d="M 0.76 17.55  C 0.76 17.55  0.76 0.35  0.76 0.35  C 0.76 0.35  1121.76 0.35  1121.76 0.35  C 1121.76 0.35  1121.76 17.55  1121.76 17.55  C 1121.76 17.55  0.76 17.55  0.76 17.55  Z " fill-rule="evenodd" />
    </mask>
  </defs>
  <g transform="matrix(1 0 0 1 -89 -2280 )">
    <path d="M 0.76 17.55  C 0.76 17.55  0.76 0.35  0.76 0.35  C 0.76 0.35  1121.76 0.35  1121.76 0.35  C 1121.76 0.35  1121.76 17.55  1121.76 17.55  C 1121.76 17.55  0.76 17.55  0.76 17.55  Z " fill-rule="nonzero" fill="#9cbde8" stroke="none" transform="matrix(1 0 0 1 89 2280 )" />
    <path d="M 0.76 17.55  C 0.76 17.55  0.76 0.35  0.76 0.35  C 0.76 0.35  1121.76 0.35  1121.76 0.35  C 1121.76 0.35  1121.76 17.55  1121.76 17.55  C 1121.76 17.55  0.76 17.55  0.76 17.55  Z " stroke-width="2" stroke="#9cbde8" fill="none" transform="matrix(1 0 0 1 89 2280 )" mask="url(#clip151)" />
  </g>
</svg>