<?xml version="1.0" encoding="utf-8"?>
<svg version="1.1" xmlns:xlink="http://www.w3.org/1999/xlink" width="182px" height="149px" xmlns="http://www.w3.org/2000/svg">
  <defs>
    <mask fill="white" id="clip1303">
      <path d="M 18.55 93.83  C 18.55 93.83  0.550000000000011 94.43  0.550000000000011 94.43  C 0.550000000000011 93.53  0.550000000000011 92.63  0.550000000000011 91.73  C 0.550000000000011 42.23  40.65 0.129999999999995  90.15 0.129999999999995  C 139.65 0.129999999999995  181.85 42.23  181.85 91.73  C 181.85 113.03  174.35 132.63  161.95 148.03  C 161.95 148.03  148.05 136.73  148.05 136.73  C 157.95 124.43  163.85 108.83  163.85 91.73  C 163.85 52.13  129.75 18.03  90.15 18.03  C 50.55 18.03  18.45 52.13  18.45 91.73  C 18.45 92.43  18.45 93.13  18.55 93.83  Z " fill-rule="evenodd" />
    </mask>
  </defs>
  <g transform="matrix(1 0 0 1 -433 -18960 )">
    <path d="M 18.55 93.83  C 18.55 93.83  0.550000000000011 94.43  0.550000000000011 94.43  C 0.550000000000011 93.53  0.550000000000011 92.63  0.550000000000011 91.73  C 0.550000000000011 42.23  40.65 0.129999999999995  90.15 0.129999999999995  C 139.65 0.129999999999995  181.85 42.23  181.85 91.73  C 181.85 113.03  174.35 132.63  161.95 148.03  C 161.95 148.03  148.05 136.73  148.05 136.73  C 157.95 124.43  163.85 108.83  163.85 91.73  C 163.85 52.13  129.75 18.03  90.15 18.03  C 50.55 18.03  18.45 52.13  18.45 91.73  C 18.45 92.43  18.45 93.13  18.55 93.83  Z " fill-rule="nonzero" fill="#33b2c3" stroke="none" transform="matrix(1 0 0 1 433 18960 )" />
    <path d="M 18.55 93.83  C 18.55 93.83  0.550000000000011 94.43  0.550000000000011 94.43  C 0.550000000000011 93.53  0.550000000000011 92.63  0.550000000000011 91.73  C 0.550000000000011 42.23  40.65 0.129999999999995  90.15 0.129999999999995  C 139.65 0.129999999999995  181.85 42.23  181.85 91.73  C 181.85 113.03  174.35 132.63  161.95 148.03  C 161.95 148.03  148.05 136.73  148.05 136.73  C 157.95 124.43  163.85 108.83  163.85 91.73  C 163.85 52.13  129.75 18.03  90.15 18.03  C 50.55 18.03  18.45 52.13  18.45 91.73  C 18.45 92.43  18.45 93.13  18.55 93.83  Z " stroke-width="4" stroke="#ffffff" fill="none" transform="matrix(1 0 0 1 433 18960 )" mask="url(#clip1303)" />
  </g>
</svg>