<svg xmlns="http://www.w3.org/2000/svg" xmlns:xlink="http://www.w3.org/1999/xlink" width="19" height="21" version="1.1"><defs><linearGradient id="LinearGradient2333" x1="11441.184" x2="11441.184" y1="9439.725" y2="9658.735" gradientUnits="userSpaceOnUse"><stop id="Stop2334" offset="0" stop-color="#a1d979"/><stop id="Stop2335" offset=".2" stop-color="#8acf57"/><stop id="Stop2336" offset="1" stop-color="#6cb734"/></linearGradient><mask id="clip2337" fill="#fff"><path fill-rule="evenodd" d="M 0.619999999999891 20.0799999999999 C 0.619999999999891 20.0799999999999 0.619999999999891 0.979999999999905 0.619999999999891 0.979999999999905 C 0.619999999999891 0.979999999999905 18.8199999999999 0.979999999999905 18.8199999999999 0.979999999999905 C 18.8199999999999 0.979999999999905 18.8199999999999 20.0799999999999 18.8199999999999 20.0799999999999 C 18.8199999999999 20.0799999999999 0.619999999999891 20.0799999999999 0.619999999999891 20.0799999999999 Z"/></mask></defs><g><path fill="url(#LinearGradient2333)" fill-rule="nonzero" stroke="none" d="M 0.619999999999891 20.0799999999999 C 0.619999999999891 20.0799999999999 0.619999999999891 0.979999999999905 0.619999999999891 0.979999999999905 C 0.619999999999891 0.979999999999905 18.8199999999999 0.979999999999905 18.8199999999999 0.979999999999905 C 18.8199999999999 0.979999999999905 18.8199999999999 20.0799999999999 18.8199999999999 20.0799999999999 C 18.8199999999999 20.0799999999999 0.619999999999891 20.0799999999999 0.619999999999891 20.0799999999999 Z" transform="matrix(1 0 0 1 -748 -14876 ) matrix(1 0 0 1 748 14876 )"/><path fill="none" stroke="#787878" stroke-width="2" d="M 0.619999999999891 20.0799999999999 C 0.619999999999891 20.0799999999999 0.619999999999891 0.979999999999905 0.619999999999891 0.979999999999905 C 0.619999999999891 0.979999999999905 18.8199999999999 0.979999999999905 18.8199999999999 0.979999999999905 C 18.8199999999999 0.979999999999905 18.8199999999999 20.0799999999999 18.8199999999999 20.0799999999999 C 18.8199999999999 20.0799999999999 0.619999999999891 20.0799999999999 0.619999999999891 20.0799999999999 Z" mask="url(#clip2337)" transform="matrix(1 0 0 1 -748 -14876 ) matrix(1 0 0 1 748 14876 )"/></g></svg>