<?xml version="1.0" encoding="utf-8"?>
<svg version="1.1" xmlns:xlink="http://www.w3.org/1999/xlink" width="56px" height="60px" xmlns="http://www.w3.org/2000/svg">
  <defs>
    <mask fill="white" id="clip575">
      <path d="M 19.9300000000001 59.6999999999999  C 19.9300000000001 59.6999999999999  35.8299999999999 59.6999999999999  35.8299999999999 59.6999999999999  C 46.6300000000001 59.6999999999999  55.4300000000001 50.9  55.4300000000001 40.1  C 55.4300000000001 40.1  55.4300000000001 20.6  55.4300000000001 20.6  C 55.4300000000001 9.69999999999993  46.6300000000001 0.899999999999977  35.8299999999999 0.899999999999977  C 35.8299999999999 0.899999999999977  19.9300000000001 0.899999999999977  19.9300000000001 0.899999999999977  C 9.02999999999997 0.899999999999977  0.230000000000018 9.69999999999993  0.230000000000018 20.6  C 0.230000000000018 20.6  0.230000000000018 40.1  0.230000000000018 40.1  C 0.230000000000018 50.9  9.02999999999997 59.6999999999999  19.9300000000001 59.6999999999999  Z " fill-rule="evenodd" />
    </mask>
  </defs>
  <g transform="matrix(1 0 0 1 -1145 -13176 )">
    <path d="M 19.9300000000001 59.6999999999999  C 19.9300000000001 59.6999999999999  35.8299999999999 59.6999999999999  35.8299999999999 59.6999999999999  C 46.6300000000001 59.6999999999999  55.4300000000001 50.9  55.4300000000001 40.1  C 55.4300000000001 40.1  55.4300000000001 20.6  55.4300000000001 20.6  C 55.4300000000001 9.69999999999993  46.6300000000001 0.899999999999977  35.8299999999999 0.899999999999977  C 35.8299999999999 0.899999999999977  19.9300000000001 0.899999999999977  19.9300000000001 0.899999999999977  C 9.02999999999997 0.899999999999977  0.230000000000018 9.69999999999993  0.230000000000018 20.6  C 0.230000000000018 20.6  0.230000000000018 40.1  0.230000000000018 40.1  C 0.230000000000018 50.9  9.02999999999997 59.6999999999999  19.9300000000001 59.6999999999999  Z " fill-rule="nonzero" fill="#595757" stroke="none" fill-opacity="0.0784313725490196" transform="matrix(1 0 0 1 1145 13176 )" />
    <path d="M 19.9300000000001 59.6999999999999  C 19.9300000000001 59.6999999999999  35.8299999999999 59.6999999999999  35.8299999999999 59.6999999999999  C 46.6300000000001 59.6999999999999  55.4300000000001 50.9  55.4300000000001 40.1  C 55.4300000000001 40.1  55.4300000000001 20.6  55.4300000000001 20.6  C 55.4300000000001 9.69999999999993  46.6300000000001 0.899999999999977  35.8299999999999 0.899999999999977  C 35.8299999999999 0.899999999999977  19.9300000000001 0.899999999999977  19.9300000000001 0.899999999999977  C 9.02999999999997 0.899999999999977  0.230000000000018 9.69999999999993  0.230000000000018 20.6  C 0.230000000000018 20.6  0.230000000000018 40.1  0.230000000000018 40.1  C 0.230000000000018 50.9  9.02999999999997 59.6999999999999  19.9300000000001 59.6999999999999  Z " stroke-width="2" stroke="#595757" fill="none" stroke-opacity="0.0588235294117647" transform="matrix(1 0 0 1 1145 13176 )" mask="url(#clip575)" />
  </g>
</svg>