<svg xmlns="http://www.w3.org/2000/svg" xmlns:xlink="http://www.w3.org/1999/xlink" width="4" height="5" version="1.1"><defs><mask id="clip1910" fill="#fff"><path fill-rule="evenodd" d="M 1.18000000000001 4.48999999999998 C 0.680000000000007 4.48999999999998 0.180000000000007 3.88999999999999 0.180000000000007 3.19 C 0.180000000000007 2.48999999999998 0.680000000000007 0.889999999999986 1.18000000000001 0.889999999999986 C 1.78 0.889999999999986 3.28 2.48999999999998 3.28 3.19 C 3.28 3.88999999999999 1.78 4.48999999999998 1.18000000000001 4.48999999999998 Z"/></mask></defs><g><path fill="#3e3938" fill-rule="nonzero" stroke="none" d="M 1.18000000000001 4.48999999999998 C 0.680000000000007 4.48999999999998 0.180000000000007 3.88999999999999 0.180000000000007 3.19 C 0.180000000000007 2.48999999999998 0.680000000000007 0.889999999999986 1.18000000000001 0.889999999999986 C 1.78 0.889999999999986 3.28 2.48999999999998 3.28 3.19 C 3.28 3.88999999999999 1.78 4.48999999999998 1.18000000000001 4.48999999999998 Z" transform="matrix(1 0 0 1 -241 -6896 ) matrix(1 0 0 1 241 6896 )"/><path fill="none" stroke="#3e3938" stroke-width="2" d="M 1.18000000000001 4.48999999999998 C 0.680000000000007 4.48999999999998 0.180000000000007 3.88999999999999 0.180000000000007 3.19 C 0.180000000000007 2.48999999999998 0.680000000000007 0.889999999999986 1.18000000000001 0.889999999999986 C 1.78 0.889999999999986 3.28 2.48999999999998 3.28 3.19 C 3.28 3.88999999999999 1.78 4.48999999999998 1.18000000000001 4.48999999999998 Z" mask="url(#clip1910)" transform="matrix(1 0 0 1 -241 -6896 ) matrix(1 0 0 1 241 6896 )"/></g></svg>