<?xml version="1.0" encoding="utf-8"?>
<svg version="1.1" xmlns:xlink="http://www.w3.org/1999/xlink" width="155px" height="4px" xmlns="http://www.w3.org/2000/svg">
  <defs>
    <mask fill="white" id="clip114">
      <path d="M 0.29000000000002 3.02  C 0.29000000000002 3.02  0.29000000000002 0.519999999999996  0.29000000000002 0.519999999999996  C 0.29000000000002 0.519999999999996  154.09 0.519999999999996  154.09 0.519999999999996  C 154.09 0.519999999999996  154.09 3.02  154.09 3.02  C 154.09 3.02  0.29000000000002 3.02  0.29000000000002 3.02  Z " fill-rule="evenodd" />
    </mask>
  </defs>
  <g transform="matrix(1 0 0 1 -497 -561 )">
    <path d="M 0.29000000000002 3.02  C 0.29000000000002 3.02  0.29000000000002 0.519999999999996  0.29000000000002 0.519999999999996  C 0.29000000000002 0.519999999999996  154.09 0.519999999999996  154.09 0.519999999999996  C 154.09 0.519999999999996  154.09 3.02  154.09 3.02  C 154.09 3.02  0.29000000000002 3.02  0.29000000000002 3.02  Z " fill-rule="nonzero" fill="#c33736" stroke="none" transform="matrix(1 0 0 1 497 561 )" />
    <path d="M 0.29000000000002 3.02  C 0.29000000000002 3.02  0.29000000000002 0.519999999999996  0.29000000000002 0.519999999999996  C 0.29000000000002 0.519999999999996  154.09 0.519999999999996  154.09 0.519999999999996  C 154.09 0.519999999999996  154.09 3.02  154.09 3.02  C 154.09 3.02  0.29000000000002 3.02  0.29000000000002 3.02  Z " stroke-width="2" stroke="#c33736" fill="none" transform="matrix(1 0 0 1 497 561 )" mask="url(#clip114)" />
  </g>
</svg>