<svg xmlns="http://www.w3.org/2000/svg" xmlns:xlink="http://www.w3.org/1999/xlink" width="62" height="62" version="1.1"><defs><mask id="clip2397" fill="#fff"><path fill-rule="evenodd" d="M 0.849999999999994 61.47 C 0.849999999999994 61.47 0.849999999999994 0.470000000000027 0.849999999999994 0.470000000000027 C 0.849999999999994 0.470000000000027 61.85 0.470000000000027 61.85 0.470000000000027 C 61.85 0.470000000000027 61.85 61.47 61.85 61.47 C 61.85 61.47 0.849999999999994 61.47 0.849999999999994 61.47 Z"/></mask></defs><g><path fill="#fff" fill-opacity="0" fill-rule="nonzero" stroke="none" d="M 0.849999999999994 61.47 C 0.849999999999994 61.47 0.849999999999994 0.470000000000027 0.849999999999994 0.470000000000027 C 0.849999999999994 0.470000000000027 61.85 0.470000000000027 61.85 0.470000000000027 C 61.85 0.470000000000027 61.85 61.47 61.85 61.47 C 61.85 61.47 0.849999999999994 61.47 0.849999999999994 61.47 Z" transform="matrix(1 0 0 1 -266 -16770 ) matrix(1 0 0 1 266 16770 )"/><path fill="none" stroke="#5a5a5a" stroke-width="2" d="M 0.849999999999994 61.47 C 0.849999999999994 61.47 0.849999999999994 0.470000000000027 0.849999999999994 0.470000000000027 C 0.849999999999994 0.470000000000027 61.85 0.470000000000027 61.85 0.470000000000027 C 61.85 0.470000000000027 61.85 61.47 61.85 61.47 C 61.85 61.47 0.849999999999994 61.47 0.849999999999994 61.47 Z" mask="url(#clip2397)" transform="matrix(1 0 0 1 -266 -16770 ) matrix(1 0 0 1 266 16770 )"/></g></svg>