<svg xmlns="http://www.w3.org/2000/svg" xmlns:xlink="http://www.w3.org/1999/xlink" width="361" height="33" version="1.1"><defs><linearGradient id="LinearGradient2326" x1="236130.356" x2="236130.356" y1="15566.51" y2="16478.55" gradientUnits="userSpaceOnUse"><stop id="Stop2327" offset="0" stop-color="#e4e4e4"/><stop id="Stop2328" offset=".2" stop-color="#ededed"/><stop id="Stop2329" offset=".8" stop-color="#bdbdbd"/><stop id="Stop2330" offset="1" stop-color="#a8a8a8"/></linearGradient><mask id="clip2331" fill="#fff"><path fill-rule="evenodd" d="M 0.0599999999999454 32.13 C 0.0599999999999454 32.13 0.0599999999999454 0.92999999999995 0.0599999999999454 0.92999999999995 C 0.0599999999999454 0.92999999999995 360.16 0.92999999999995 360.16 0.92999999999995 C 360.16 0.92999999999995 360.16 32.13 360.16 32.13 C 360.16 32.13 0.0599999999999454 32.13 0.0599999999999454 32.13 Z"/></mask></defs><g><path fill="url(#LinearGradient2326)" fill-rule="nonzero" stroke="none" d="M 0.0599999999999454 32.13 C 0.0599999999999454 32.13 0.0599999999999454 0.92999999999995 0.0599999999999454 0.92999999999995 C 0.0599999999999454 0.92999999999995 360.16 0.92999999999995 360.16 0.92999999999995 C 360.16 0.92999999999995 360.16 32.13 360.16 32.13 C 360.16 32.13 0.0599999999999454 32.13 0.0599999999999454 32.13 Z" transform="matrix(1 0 0 1 -741 -14870 ) matrix(1 0 0 1 741 14870 )"/><path fill="none" stroke="#787878" stroke-width="2" d="M 0.0599999999999454 32.13 C 0.0599999999999454 32.13 0.0599999999999454 0.92999999999995 0.0599999999999454 0.92999999999995 C 0.0599999999999454 0.92999999999995 360.16 0.92999999999995 360.16 0.92999999999995 C 360.16 0.92999999999995 360.16 32.13 360.16 32.13 C 360.16 32.13 0.0599999999999454 32.13 0.0599999999999454 32.13 Z" mask="url(#clip2331)" transform="matrix(1 0 0 1 -741 -14870 ) matrix(1 0 0 1 741 14870 )"/></g></svg>