<?xml version="1.0" encoding="utf-8"?>
<svg version="1.1" xmlns:xlink="http://www.w3.org/1999/xlink" width="9px" height="29px" xmlns="http://www.w3.org/2000/svg">
  <defs>
    <mask fill="white" id="clip353">
      <path d="M 0.149999999999977 0.460000000000036  C 0.149999999999977 0.460000000000036  0.149999999999977 28.0600000000001  0.149999999999977 28.0600000000001  C 0.149999999999977 28.0600000000001  8.04999999999995 28.0600000000001  8.04999999999995 28.0600000000001  C 8.04999999999995 28.0600000000001  8.04999999999995 0.460000000000036  8.04999999999995 0.460000000000036  C 8.04999999999995 0.460000000000036  0.149999999999977 0.460000000000036  0.149999999999977 0.460000000000036  Z " fill-rule="evenodd" />
    </mask>
  </defs>
  <g transform="matrix(1 0 0 1 -432 -7061 )">
    <path d="M 0.149999999999977 0.460000000000036  C 0.149999999999977 0.460000000000036  0.149999999999977 28.0600000000001  0.149999999999977 28.0600000000001  C 0.149999999999977 28.0600000000001  8.04999999999995 28.0600000000001  8.04999999999995 28.0600000000001  C 8.04999999999995 28.0600000000001  8.04999999999995 0.460000000000036  8.04999999999995 0.460000000000036  C 8.04999999999995 0.460000000000036  0.149999999999977 0.460000000000036  0.149999999999977 0.460000000000036  Z " fill-rule="nonzero" fill="#ffffff" stroke="none" transform="matrix(1 0 0 1 432 7061 )" />
    <path d="M 0.149999999999977 0.460000000000036  C 0.149999999999977 0.460000000000036  0.149999999999977 28.0600000000001  0.149999999999977 28.0600000000001  C 0.149999999999977 28.0600000000001  8.04999999999995 28.0600000000001  8.04999999999995 28.0600000000001  C 8.04999999999995 28.0600000000001  8.04999999999995 0.460000000000036  8.04999999999995 0.460000000000036  C 8.04999999999995 0.460000000000036  0.149999999999977 0.460000000000036  0.149999999999977 0.460000000000036  Z " stroke-width="2" stroke="#ffffff" fill="none" transform="matrix(1 0 0 1 432 7061 )" mask="url(#clip353)" />
  </g>
</svg>