<?xml version="1.0" encoding="utf-8"?>
<svg version="1.1" xmlns:xlink="http://www.w3.org/1999/xlink" width="437px" height="35px" xmlns="http://www.w3.org/2000/svg">
  <defs>
    <mask fill="white" id="clip315">
      <path d="M 0.759999999999991 34.1899999999999  C 0.759999999999991 34.1899999999999  0.759999999999991 0.889999999999986  0.759999999999991 0.889999999999986  C 0.759999999999991 0.889999999999986  436.46 0.889999999999986  436.46 0.889999999999986  C 436.46 0.889999999999986  436.46 34.1899999999999  436.46 34.1899999999999  C 436.46 34.1899999999999  0.759999999999991 34.1899999999999  0.759999999999991 34.1899999999999  Z " fill-rule="evenodd" />
    </mask>
  </defs>
  <g transform="matrix(1 0 0 1 -219 -1784 )">
    <path d="M 0.759999999999991 34.1899999999999  C 0.759999999999991 34.1899999999999  0.759999999999991 0.889999999999986  0.759999999999991 0.889999999999986  C 0.759999999999991 0.889999999999986  436.46 0.889999999999986  436.46 0.889999999999986  C 436.46 0.889999999999986  436.46 34.1899999999999  436.46 34.1899999999999  C 436.46 34.1899999999999  0.759999999999991 34.1899999999999  0.759999999999991 34.1899999999999  Z " fill-rule="nonzero" fill="#fafafa" stroke="none" transform="matrix(1 0 0 1 219 1784 )" />
    <path d="M 0.759999999999991 34.1899999999999  C 0.759999999999991 34.1899999999999  0.759999999999991 0.889999999999986  0.759999999999991 0.889999999999986  C 0.759999999999991 0.889999999999986  436.46 0.889999999999986  436.46 0.889999999999986  C 436.46 0.889999999999986  436.46 34.1899999999999  436.46 34.1899999999999  C 436.46 34.1899999999999  0.759999999999991 34.1899999999999  0.759999999999991 34.1899999999999  Z " stroke-width="2" stroke="#c0c0c0" fill="none" transform="matrix(1 0 0 1 219 1784 )" mask="url(#clip315)" />
  </g>
</svg>