<?xml version="1.0" encoding="utf-8"?>
<svg version="1.1" xmlns:xlink="http://www.w3.org/1999/xlink" width="21px" height="21px" xmlns="http://www.w3.org/2000/svg">
  <defs>
    <mask fill="white" id="clip263">
      <path d="M 10.665 20.615  C 10.665 20.615  0.514999999999986 10.715  0.514999999999986 10.715  C 0.514999999999986 10.715  10.665 0.565000000000055  10.665 0.565000000000055  C 10.665 0.565000000000055  20.565 10.715  20.565 10.715  C 20.565 10.715  10.665 20.615  10.665 20.615  Z " fill-rule="evenodd" />
    </mask>
  </defs>
  <g transform="matrix(1 0 0 1 -557 -4629 )">
    <path d="M 10.665 20.615  C 10.665 20.615  0.514999999999986 10.715  0.514999999999986 10.715  C 0.514999999999986 10.715  10.665 0.565000000000055  10.665 0.565000000000055  C 10.665 0.565000000000055  20.565 10.715  20.565 10.715  C 20.565 10.715  10.665 20.615  10.665 20.615  Z " fill-rule="nonzero" fill="#cdcece" stroke="none" transform="matrix(1 0 0 1 557 4629 )" />
    <path d="M 10.665 20.615  C 10.665 20.615  0.514999999999986 10.715  0.514999999999986 10.715  C 0.514999999999986 10.715  10.665 0.565000000000055  10.665 0.565000000000055  C 10.665 0.565000000000055  20.565 10.715  20.565 10.715  C 20.565 10.715  10.665 20.615  10.665 20.615  Z " stroke-width="0.5" stroke="#cdcece" fill="none" transform="matrix(1 0 0 1 557 4629 )" mask="url(#clip263)" />
  </g>
</svg>