<svg xmlns="http://www.w3.org/2000/svg" xmlns:xlink="http://www.w3.org/1999/xlink" width="268" height="34" version="1.1"><defs><mask id="clip1687" fill="#fff"><path fill-rule="evenodd" d="M 0.759999999999991 33.57 C 0.759999999999991 33.57 0.759999999999991 0.269999999999982 0.759999999999991 0.269999999999982 C 0.759999999999991 0.269999999999982 267.56 0.269999999999982 267.56 0.269999999999982 C 267.56 0.269999999999982 267.56 33.57 267.56 33.57 C 267.56 33.57 0.759999999999991 33.57 0.759999999999991 33.57 Z"/></mask></defs><g><path fill="#595757" fill-rule="nonzero" stroke="none" d="M 0.759999999999991 33.57 C 0.759999999999991 33.57 0.759999999999991 0.269999999999982 0.759999999999991 0.269999999999982 C 0.759999999999991 0.269999999999982 267.56 0.269999999999982 267.56 0.269999999999982 C 267.56 0.269999999999982 267.56 33.57 267.56 33.57 C 267.56 33.57 0.759999999999991 33.57 0.759999999999991 33.57 Z" transform="matrix(1 0 0 1 -219 -1552 ) matrix(1 0 0 1 219 1552 )"/><path fill="none" stroke="#595757" stroke-width="2" d="M 0.759999999999991 33.57 C 0.759999999999991 33.57 0.759999999999991 0.269999999999982 0.759999999999991 0.269999999999982 C 0.759999999999991 0.269999999999982 267.56 0.269999999999982 267.56 0.269999999999982 C 267.56 0.269999999999982 267.56 33.57 267.56 33.57 C 267.56 33.57 0.759999999999991 33.57 0.759999999999991 33.57 Z" mask="url(#clip1687)" transform="matrix(1 0 0 1 -219 -1552 ) matrix(1 0 0 1 219 1552 )"/></g></svg>