<?xml version="1.0" encoding="utf-8"?>
<svg version="1.1" xmlns:xlink="http://www.w3.org/1999/xlink" width="44px" height="51px" xmlns="http://www.w3.org/2000/svg">
  <defs>
    <mask fill="white" id="clip2616">
      <path d="M 39.472 0.204000000000008  C 39.472 0.204000000000008  0.794999999999959 40.315  0.794999999999959 40.315  C 0.794999999999959 40.315  7.95600000000002 46.267  7.95600000000002 46.267  C 7.95600000000002 46.267  39.472 0.204000000000008  39.472 0.204000000000008  Z " fill-rule="evenodd" />
    </mask>
    <filter x="663px" y="17195px" width="44px" height="51px" filterUnits="userSpaceOnUse" id="filter2617">
      <feOffset dx="0" dy="0" in="SourceAlpha" result="shadowOffsetInner" />
      <feGaussianBlur stdDeviation="1" in="shadowOffsetInner" result="shadowGaussian" />
      <feComposite in2="shadowGaussian" operator="atop" in="SourceAlpha" result="shadowComposite" />
      <feColorMatrix type="matrix" values="0 0 0 0 0.501960784313725  0 0 0 0 0.501960784313725  0 0 0 0 0.501960784313725  0 0 0 1 0  " in="shadowComposite" />
    </filter>
    <g id="widget2618">
      <path d="M 39.472 0.204000000000008  C 39.472 0.204000000000008  0.794999999999959 40.315  0.794999999999959 40.315  C 0.794999999999959 40.315  7.95600000000002 46.267  7.95600000000002 46.267  C 7.95600000000002 46.267  39.472 0.204000000000008  39.472 0.204000000000008  Z " fill-rule="nonzero" fill="#ffffff" stroke="none" fill-opacity="0" transform="matrix(1 0 0 1 665 17197 )" />
      <path d="M 39.472 0.204000000000008  C 39.472 0.204000000000008  0.794999999999959 40.315  0.794999999999959 40.315  C 0.794999999999959 40.315  7.95600000000002 46.267  7.95600000000002 46.267  C 7.95600000000002 46.267  39.472 0.204000000000008  39.472 0.204000000000008  Z " stroke-width="2.00249843945008" stroke="#952323" fill="none" transform="matrix(1 0 0 1 665 17197 )" mask="url(#clip2616)" />
    </g>
  </defs>
  <g transform="matrix(1 0 0 1 -663 -17195 )">
    <use xlink:href="#widget2618" filter="url(#filter2617)" />
    <use xlink:href="#widget2618" />
  </g>
</svg>