<?xml version="1.0" encoding="utf-8"?>
<svg version="1.1" xmlns:xlink="http://www.w3.org/1999/xlink" width="56px" height="60px" xmlns="http://www.w3.org/2000/svg">
  <defs>
    <mask fill="white" id="clip543">
      <path d="M 36.15 0.27  C 36.15 0.27  20.35 0.27  20.35 0.27  C 9.45 0.27  0.650000000000006 9.67  0.650000000000006 21.37  C 0.650000000000006 21.37  0.650000000000006 38.07  0.650000000000006 38.07  C 0.650000000000006 49.67  9.45 59.07  20.35 59.07  C 20.35 59.07  36.15 59.07  36.15 59.07  C 47.05 59.07  55.85 49.67  55.85 38.07  C 55.85 38.07  55.85 21.37  55.85 21.37  C 55.85 9.67  47.05 0.27  36.15 0.27  Z " fill-rule="evenodd" />
    </mask>
  </defs>
  <g transform="matrix(1 0 0 1 -162 -12411 )">
    <path d="M 36.15 0.27  C 36.15 0.27  20.35 0.27  20.35 0.27  C 9.45 0.27  0.650000000000006 9.67  0.650000000000006 21.37  C 0.650000000000006 21.37  0.650000000000006 38.07  0.650000000000006 38.07  C 0.650000000000006 49.67  9.45 59.07  20.35 59.07  C 20.35 59.07  36.15 59.07  36.15 59.07  C 47.05 59.07  55.85 49.67  55.85 38.07  C 55.85 38.07  55.85 21.37  55.85 21.37  C 55.85 9.67  47.05 0.27  36.15 0.27  Z " fill-rule="nonzero" fill="#9e9f9f" stroke="none" fill-opacity="0.0784313725490196" transform="matrix(1 0 0 1 162 12411 )" />
    <path d="M 36.15 0.27  C 36.15 0.27  20.35 0.27  20.35 0.27  C 9.45 0.27  0.650000000000006 9.67  0.650000000000006 21.37  C 0.650000000000006 21.37  0.650000000000006 38.07  0.650000000000006 38.07  C 0.650000000000006 49.67  9.45 59.07  20.35 59.07  C 20.35 59.07  36.15 59.07  36.15 59.07  C 47.05 59.07  55.85 49.67  55.85 38.07  C 55.85 38.07  55.85 21.37  55.85 21.37  C 55.85 9.67  47.05 0.27  36.15 0.27  Z " stroke-width="2" stroke="#9e9f9f" fill="none" stroke-opacity="0.0588235294117647" transform="matrix(1 0 0 1 162 12411 )" mask="url(#clip543)" />
  </g>
</svg>