<?xml version="1.0" encoding="utf-8"?>
<svg version="1.1" xmlns:xlink="http://www.w3.org/1999/xlink" width="8px" height="21px" xmlns="http://www.w3.org/2000/svg">
  <defs>
    <mask fill="white" id="clip307">
      <path d="M 7.07999999999998 8.24000000000007  C 7.77999999999997 7.94000000000005  7.98000000000002 7.04000000000008  7.57999999999998 6.44000000000005  C 7.38 6.04000000000008  6.88 5.74000000000007  6.48000000000002 5.74000000000007  C 6.48000000000002 5.74000000000007  2.27999999999997 0.340000000000032  2.27999999999997 0.340000000000032  C 2.07999999999998 0.0400000000000773  1.57999999999998 -0.0599999999999454  1.27999999999997 0.140000000000043  C 0.980000000000018 0.340000000000032  0.879999999999995 0.740000000000066  1.07999999999998 1.04000000000008  C 1.07999999999998 1.04000000000008  5.27999999999997 6.44000000000005  5.27999999999997 6.44000000000005  C 4.98000000000002 6.84000000000003  4.98000000000002 7.34000000000003  5.27999999999997 7.74000000000007  C 5.38 8.04000000000008  5.57999999999998 8.14000000000004  5.77999999999997 8.24000000000007  C 5.77999999999997 8.24000000000007  5.77999999999997 19.64  5.77999999999997 19.64  C 5.77999999999997 20.0400000000001  6.07999999999998 20.34  6.38 20.34  C 6.77999999999997 20.34  7.07999999999998 20.0400000000001  7.07999999999998 19.64  C 7.07999999999998 19.64  7.07999999999998 8.24000000000007  7.07999999999998 8.24000000000007  Z " fill-rule="evenodd" />
    </mask>
  </defs>
  <g transform="matrix(1 0 0 1 -407 -7211 )">
    <path d="M 7.07999999999998 8.24000000000007  C 7.77999999999997 7.94000000000005  7.98000000000002 7.04000000000008  7.57999999999998 6.44000000000005  C 7.38 6.04000000000008  6.88 5.74000000000007  6.48000000000002 5.74000000000007  C 6.48000000000002 5.74000000000007  2.27999999999997 0.340000000000032  2.27999999999997 0.340000000000032  C 2.07999999999998 0.0400000000000773  1.57999999999998 -0.0599999999999454  1.27999999999997 0.140000000000043  C 0.980000000000018 0.340000000000032  0.879999999999995 0.740000000000066  1.07999999999998 1.04000000000008  C 1.07999999999998 1.04000000000008  5.27999999999997 6.44000000000005  5.27999999999997 6.44000000000005  C 4.98000000000002 6.84000000000003  4.98000000000002 7.34000000000003  5.27999999999997 7.74000000000007  C 5.38 8.04000000000008  5.57999999999998 8.14000000000004  5.77999999999997 8.24000000000007  C 5.77999999999997 8.24000000000007  5.77999999999997 19.64  5.77999999999997 19.64  C 5.77999999999997 20.0400000000001  6.07999999999998 20.34  6.38 20.34  C 6.77999999999997 20.34  7.07999999999998 20.0400000000001  7.07999999999998 19.64  C 7.07999999999998 19.64  7.07999999999998 8.24000000000007  7.07999999999998 8.24000000000007  Z " fill-rule="nonzero" fill="#ffffff" stroke="none" transform="matrix(1 0 0 1 407 7211 )" />
    <path d="M 7.07999999999998 8.24000000000007  C 7.77999999999997 7.94000000000005  7.98000000000002 7.04000000000008  7.57999999999998 6.44000000000005  C 7.38 6.04000000000008  6.88 5.74000000000007  6.48000000000002 5.74000000000007  C 6.48000000000002 5.74000000000007  2.27999999999997 0.340000000000032  2.27999999999997 0.340000000000032  C 2.07999999999998 0.0400000000000773  1.57999999999998 -0.0599999999999454  1.27999999999997 0.140000000000043  C 0.980000000000018 0.340000000000032  0.879999999999995 0.740000000000066  1.07999999999998 1.04000000000008  C 1.07999999999998 1.04000000000008  5.27999999999997 6.44000000000005  5.27999999999997 6.44000000000005  C 4.98000000000002 6.84000000000003  4.98000000000002 7.34000000000003  5.27999999999997 7.74000000000007  C 5.38 8.04000000000008  5.57999999999998 8.14000000000004  5.77999999999997 8.24000000000007  C 5.77999999999997 8.24000000000007  5.77999999999997 19.64  5.77999999999997 19.64  C 5.77999999999997 20.0400000000001  6.07999999999998 20.34  6.38 20.34  C 6.77999999999997 20.34  7.07999999999998 20.0400000000001  7.07999999999998 19.64  C 7.07999999999998 19.64  7.07999999999998 8.24000000000007  7.07999999999998 8.24000000000007  Z " stroke-width="2" stroke="#ffffff" fill="none" transform="matrix(1 0 0 1 407 7211 )" mask="url(#clip307)" />
  </g>
</svg>