<svg xmlns="http://www.w3.org/2000/svg" xmlns:xlink="http://www.w3.org/1999/xlink" width="56" height="60" version="1.1"><defs><mask id="clip2112" fill="#fff"><path fill-rule="evenodd" d="M 19.9300000000001 59.1999999999999 C 19.9300000000001 59.1999999999999 35.8299999999999 59.1999999999999 35.8299999999999 59.1999999999999 C 46.6300000000001 59.1999999999999 55.4300000000001 50.4 55.4300000000001 39.6 C 55.4300000000001 39.6 55.4300000000001 20.1 55.4300000000001 20.1 C 55.4300000000001 9.19999999999993 46.6300000000001 0.399999999999977 35.8299999999999 0.399999999999977 C 35.8299999999999 0.399999999999977 19.9300000000001 0.399999999999977 19.9300000000001 0.399999999999977 C 9.02999999999997 0.399999999999977 0.230000000000018 9.19999999999993 0.230000000000018 20.1 C 0.230000000000018 20.1 0.230000000000018 39.6 0.230000000000018 39.6 C 0.230000000000018 50.4 9.02999999999997 59.1999999999999 19.9300000000001 59.1999999999999 Z"/></mask></defs><g><path fill="#cdcece" fill-opacity=".078" fill-rule="nonzero" stroke="none" d="M 19.9300000000001 59.1999999999999 C 19.9300000000001 59.1999999999999 35.8299999999999 59.1999999999999 35.8299999999999 59.1999999999999 C 46.6300000000001 59.1999999999999 55.4300000000001 50.4 55.4300000000001 39.6 C 55.4300000000001 39.6 55.4300000000001 20.1 55.4300000000001 20.1 C 55.4300000000001 9.19999999999993 46.6300000000001 0.399999999999977 35.8299999999999 0.399999999999977 C 35.8299999999999 0.399999999999977 19.9300000000001 0.399999999999977 19.9300000000001 0.399999999999977 C 9.02999999999997 0.399999999999977 0.230000000000018 9.19999999999993 0.230000000000018 20.1 C 0.230000000000018 20.1 0.230000000000018 39.6 0.230000000000018 39.6 C 0.230000000000018 50.4 9.02999999999997 59.1999999999999 19.9300000000001 59.1999999999999 Z" transform="matrix(1 0 0 1 -1145 -13048 ) matrix(1 0 0 1 1145 13048 )"/><path fill="none" stroke="#cdcece" stroke-opacity=".059" stroke-width="2" d="M 19.9300000000001 59.1999999999999 C 19.9300000000001 59.1999999999999 35.8299999999999 59.1999999999999 35.8299999999999 59.1999999999999 C 46.6300000000001 59.1999999999999 55.4300000000001 50.4 55.4300000000001 39.6 C 55.4300000000001 39.6 55.4300000000001 20.1 55.4300000000001 20.1 C 55.4300000000001 9.19999999999993 46.6300000000001 0.399999999999977 35.8299999999999 0.399999999999977 C 35.8299999999999 0.399999999999977 19.9300000000001 0.399999999999977 19.9300000000001 0.399999999999977 C 9.02999999999997 0.399999999999977 0.230000000000018 9.19999999999993 0.230000000000018 20.1 C 0.230000000000018 20.1 0.230000000000018 39.6 0.230000000000018 39.6 C 0.230000000000018 50.4 9.02999999999997 59.1999999999999 19.9300000000001 59.1999999999999 Z" mask="url(#clip2112)" transform="matrix(1 0 0 1 -1145 -13048 ) matrix(1 0 0 1 1145 13048 )"/></g></svg>