<svg xmlns="http://www.w3.org/2000/svg" xmlns:xlink="http://www.w3.org/1999/xlink" width="200" height="200" version="1.1"><defs><mask id="clip1931" fill="#fff"><path fill-rule="evenodd" d="M 99.3599999999999 194.23 C 99.3599999999999 194.23 99.3599999999999 199.23 99.3599999999999 199.23 C 44.8599999999999 199.23 0.559999999999945 153.93 0.559999999999945 99.33 C 0.559999999999945 44.83 44.8599999999999 0.529999999999973 99.3599999999999 0.529999999999973 C 153.96 0.529999999999973 199.26 44.83 199.26 99.33 C 199.26 105.13 198.76 111.83 197.76 117.23 C 197.76 117.23 192.86 116.43 192.86 116.43 C 193.76 111.23 194.26 104.83 194.26 99.33 C 194.26 47.53 151.26 5.52999999999997 99.3599999999999 5.52999999999997 C 47.5599999999999 5.52999999999997 5.55999999999995 47.53 5.55999999999995 99.33 C 5.55999999999995 151.23 47.5599999999999 194.23 99.3599999999999 194.23 Z"/></mask></defs><g><path fill="#50ad76" fill-rule="nonzero" stroke="none" d="M 99.3599999999999 194.23 C 99.3599999999999 194.23 99.3599999999999 199.23 99.3599999999999 199.23 C 44.8599999999999 199.23 0.559999999999945 153.93 0.559999999999945 99.33 C 0.559999999999945 44.83 44.8599999999999 0.529999999999973 99.3599999999999 0.529999999999973 C 153.96 0.529999999999973 199.26 44.83 199.26 99.33 C 199.26 105.13 198.76 111.83 197.76 117.23 C 197.76 117.23 192.86 116.43 192.86 116.43 C 193.76 111.23 194.26 104.83 194.26 99.33 C 194.26 47.53 151.26 5.52999999999997 99.3599999999999 5.52999999999997 C 47.5599999999999 5.52999999999997 5.55999999999995 47.53 5.55999999999995 99.33 C 5.55999999999995 151.23 47.5599999999999 194.23 99.3599999999999 194.23 Z" transform="matrix(1 0 0 1 -949 -7127 ) matrix(1 0 0 1 949 7127 )"/><path fill="none" stroke="#50ad76" stroke-width="2" d="M 99.3599999999999 194.23 C 99.3599999999999 194.23 99.3599999999999 199.23 99.3599999999999 199.23 C 44.8599999999999 199.23 0.559999999999945 153.93 0.559999999999945 99.33 C 0.559999999999945 44.83 44.8599999999999 0.529999999999973 99.3599999999999 0.529999999999973 C 153.96 0.529999999999973 199.26 44.83 199.26 99.33 C 199.26 105.13 198.76 111.83 197.76 117.23 C 197.76 117.23 192.86 116.43 192.86 116.43 C 193.76 111.23 194.26 104.83 194.26 99.33 C 194.26 47.53 151.26 5.52999999999997 99.3599999999999 5.52999999999997 C 47.5599999999999 5.52999999999997 5.55999999999995 47.53 5.55999999999995 99.33 C 5.55999999999995 151.23 47.5599999999999 194.23 99.3599999999999 194.23 Z" mask="url(#clip1931)" transform="matrix(1 0 0 1 -949 -7127 ) matrix(1 0 0 1 949 7127 )"/></g></svg>