<svg xmlns="http://www.w3.org/2000/svg" xmlns:xlink="http://www.w3.org/1999/xlink" width="4" height="4" version="1.1"><defs><mask id="clip1839" fill="#fff"><path fill-rule="evenodd" d="M 2.50999999999999 0.960000000000036 C 2.91000000000003 0.960000000000036 3.20999999999998 2.26000000000005 3.20999999999998 2.66000000000003 C 3.20999999999998 3.06000000000006 2.91000000000003 3.36000000000001 2.50999999999999 3.36000000000001 C 2.11000000000001 3.36000000000001 0.810000000000002 3.06000000000006 0.810000000000002 2.66000000000003 C 0.810000000000002 2.26000000000005 2.11000000000001 0.960000000000036 2.50999999999999 0.960000000000036 Z"/></mask></defs><g><path fill="#fff" fill-rule="nonzero" stroke="none" d="M 2.50999999999999 0.960000000000036 C 2.91000000000003 0.960000000000036 3.20999999999998 2.26000000000005 3.20999999999998 2.66000000000003 C 3.20999999999998 3.06000000000006 2.91000000000003 3.36000000000001 2.50999999999999 3.36000000000001 C 2.11000000000001 3.36000000000001 0.810000000000002 3.06000000000006 0.810000000000002 2.66000000000003 C 0.810000000000002 2.26000000000005 2.11000000000001 0.960000000000036 2.50999999999999 0.960000000000036 Z" transform="matrix(1 0 0 1 -398 -7209 ) matrix(1 0 0 1 398 7209 )"/><path fill="none" stroke="#fff" stroke-width="2" d="M 2.50999999999999 0.960000000000036 C 2.91000000000003 0.960000000000036 3.20999999999998 2.26000000000005 3.20999999999998 2.66000000000003 C 3.20999999999998 3.06000000000006 2.91000000000003 3.36000000000001 2.50999999999999 3.36000000000001 C 2.11000000000001 3.36000000000001 0.810000000000002 3.06000000000006 0.810000000000002 2.66000000000003 C 0.810000000000002 2.26000000000005 2.11000000000001 0.960000000000036 2.50999999999999 0.960000000000036 Z" mask="url(#clip1839)" transform="matrix(1 0 0 1 -398 -7209 ) matrix(1 0 0 1 398 7209 )"/></g></svg>