<?xml version="1.0" encoding="utf-8"?>
<svg version="1.1" xmlns:xlink="http://www.w3.org/1999/xlink" width="357px" height="34px" xmlns="http://www.w3.org/2000/svg">
  <defs>
    <mask fill="white" id="clip151">
      <path d="M 0.759999999999991 33.8800000000001  C 0.759999999999991 33.8800000000001  0.759999999999991 0.580000000000041  0.759999999999991 0.580000000000041  C 0.759999999999991 0.580000000000041  356.06 0.580000000000041  356.06 0.580000000000041  C 356.06 0.580000000000041  356.06 33.8800000000001  356.06 33.8800000000001  C 356.06 33.8800000000001  0.759999999999991 33.8800000000001  0.759999999999991 33.8800000000001  Z " fill-rule="evenodd" />
    </mask>
  </defs>
  <g transform="matrix(1 0 0 1 -219 -1668 )">
    <path d="M 0.759999999999991 33.8800000000001  C 0.759999999999991 33.8800000000001  0.759999999999991 0.580000000000041  0.759999999999991 0.580000000000041  C 0.759999999999991 0.580000000000041  356.06 0.580000000000041  356.06 0.580000000000041  C 356.06 0.580000000000041  356.06 33.8800000000001  356.06 33.8800000000001  C 356.06 33.8800000000001  0.759999999999991 33.8800000000001  0.759999999999991 33.8800000000001  Z " fill-rule="nonzero" fill="#595757" stroke="none" transform="matrix(1 0 0 1 219 1668 )" />
    <path d="M 0.759999999999991 33.8800000000001  C 0.759999999999991 33.8800000000001  0.759999999999991 0.580000000000041  0.759999999999991 0.580000000000041  C 0.759999999999991 0.580000000000041  356.06 0.580000000000041  356.06 0.580000000000041  C 356.06 0.580000000000041  356.06 33.8800000000001  356.06 33.8800000000001  C 356.06 33.8800000000001  0.759999999999991 33.8800000000001  0.759999999999991 33.8800000000001  Z " stroke-width="2" stroke="#595757" fill="none" transform="matrix(1 0 0 1 219 1668 )" mask="url(#clip151)" />
  </g>
</svg>