<?xml version="1.0" encoding="utf-8"?>
<svg version="1.1" xmlns:xlink="http://www.w3.org/1999/xlink" width="4px" height="4px" xmlns="http://www.w3.org/2000/svg">
  <defs>
    <mask fill="white" id="clip300">
      <path d="M 2.50999999999999 0.889999999999986  C 2.91000000000003 0.889999999999986  3.20999999999998 2.19  3.20999999999998 2.58999999999998  C 3.20999999999998 2.99000000000001  2.91000000000003 3.28999999999996  2.50999999999999 3.28999999999996  C 2.11000000000001 3.28999999999996  0.810000000000002 2.99000000000001  0.810000000000002 2.58999999999998  C 0.810000000000002 2.19  2.11000000000001 0.889999999999986  2.50999999999999 0.889999999999986  Z " fill-rule="evenodd" />
    </mask>
  </defs>
  <g transform="matrix(1 0 0 1 -398 -7224 )">
    <path d="M 2.50999999999999 0.889999999999986  C 2.91000000000003 0.889999999999986  3.20999999999998 2.19  3.20999999999998 2.58999999999998  C 3.20999999999998 2.99000000000001  2.91000000000003 3.28999999999996  2.50999999999999 3.28999999999996  C 2.11000000000001 3.28999999999996  0.810000000000002 2.99000000000001  0.810000000000002 2.58999999999998  C 0.810000000000002 2.19  2.11000000000001 0.889999999999986  2.50999999999999 0.889999999999986  Z " fill-rule="nonzero" fill="#ffffff" stroke="none" transform="matrix(1 0 0 1 398 7224 )" />
    <path d="M 2.50999999999999 0.889999999999986  C 2.91000000000003 0.889999999999986  3.20999999999998 2.19  3.20999999999998 2.58999999999998  C 3.20999999999998 2.99000000000001  2.91000000000003 3.28999999999996  2.50999999999999 3.28999999999996  C 2.11000000000001 3.28999999999996  0.810000000000002 2.99000000000001  0.810000000000002 2.58999999999998  C 0.810000000000002 2.19  2.11000000000001 0.889999999999986  2.50999999999999 0.889999999999986  Z " stroke-width="2" stroke="#ffffff" fill="none" transform="matrix(1 0 0 1 398 7224 )" mask="url(#clip300)" />
  </g>
</svg>