<svg xmlns="http://www.w3.org/2000/svg" xmlns:xlink="http://www.w3.org/1999/xlink" width="780" height="56" version="1.1"><defs><mask id="clip1704" fill="#fff"><path fill-rule="evenodd" d="M 0.0200000000000102 4.24000000000001 C 0.0200000000000102 2.24000000000001 1.72 0.539999999999964 3.92000000000002 0.539999999999964 C 3.92000000000002 0.539999999999964 775.42 0.539999999999964 775.42 0.539999999999964 C 777.52 0.539999999999964 779.42 2.24000000000001 779.42 4.24000000000001 C 779.42 4.24000000000001 779.42 51.4399999999999 779.42 51.4399999999999 C 779.42 53.4399999999999 777.52 55.24 775.42 55.24 C 775.42 55.24 3.92000000000002 55.24 3.92000000000002 55.24 C 1.72 55.24 0.0200000000000102 53.4399999999999 0.0200000000000102 51.4399999999999 C 0.0200000000000102 51.4399999999999 0.0200000000000102 4.24000000000001 0.0200000000000102 4.24000000000001 Z"/></mask></defs><g><path fill="#55bfca" fill-rule="nonzero" stroke="none" d="M 0.0200000000000102 4.24000000000001 C 0.0200000000000102 2.24000000000001 1.72 0.539999999999964 3.92000000000002 0.539999999999964 C 3.92000000000002 0.539999999999964 775.42 0.539999999999964 775.42 0.539999999999964 C 777.52 0.539999999999964 779.42 2.24000000000001 779.42 4.24000000000001 C 779.42 4.24000000000001 779.42 51.4399999999999 779.42 51.4399999999999 C 779.42 53.4399999999999 777.52 55.24 775.42 55.24 C 775.42 55.24 3.92000000000002 55.24 3.92000000000002 55.24 C 1.72 55.24 0.0200000000000102 53.4399999999999 0.0200000000000102 51.4399999999999 C 0.0200000000000102 51.4399999999999 0.0200000000000102 4.24000000000001 0.0200000000000102 4.24000000000001 Z" transform="matrix(1 0 0 1 -261 -2884 ) matrix(1 0 0 1 261 2884 )"/><path fill="none" stroke="#55bfca" stroke-width="2" d="M 0.0200000000000102 4.24000000000001 C 0.0200000000000102 2.24000000000001 1.72 0.539999999999964 3.92000000000002 0.539999999999964 C 3.92000000000002 0.539999999999964 775.42 0.539999999999964 775.42 0.539999999999964 C 777.52 0.539999999999964 779.42 2.24000000000001 779.42 4.24000000000001 C 779.42 4.24000000000001 779.42 51.4399999999999 779.42 51.4399999999999 C 779.42 53.4399999999999 777.52 55.24 775.42 55.24 C 775.42 55.24 3.92000000000002 55.24 3.92000000000002 55.24 C 1.72 55.24 0.0200000000000102 53.4399999999999 0.0200000000000102 51.4399999999999 C 0.0200000000000102 51.4399999999999 0.0200000000000102 4.24000000000001 0.0200000000000102 4.24000000000001 Z" mask="url(#clip1704)" transform="matrix(1 0 0 1 -261 -2884 ) matrix(1 0 0 1 261 2884 )"/></g></svg>