<?xml version="1.0" encoding="utf-8"?>
<svg version="1.1" xmlns:xlink="http://www.w3.org/1999/xlink" width="44px" height="67px" xmlns="http://www.w3.org/2000/svg">
  <defs>
    <mask fill="white" id="clip1103">
      <path d="M 43.46 53.03  C 43.46 53.03  31.16 66.13  31.16 66.13  C 14.36 50.33  1.56000000000006 26.13  0.860000000000014 1.43000000000001  C 0.860000000000014 1.43000000000001  18.86 0.829999999999984  18.86 0.829999999999984  C 19.36 20.63  29.96 40.43  43.46 53.03  Z " fill-rule="evenodd" />
    </mask>
  </defs>
  <g transform="matrix(1 0 0 1 -937 -19051 )">
    <path d="M 43.46 53.03  C 43.46 53.03  31.16 66.13  31.16 66.13  C 14.36 50.33  1.56000000000006 26.13  0.860000000000014 1.43000000000001  C 0.860000000000014 1.43000000000001  18.86 0.829999999999984  18.86 0.829999999999984  C 19.36 20.63  29.96 40.43  43.46 53.03  Z " fill-rule="nonzero" fill="#ebebeb" stroke="none" transform="matrix(1 0 0 1 937 19051 )" />
    <path d="M 43.46 53.03  C 43.46 53.03  31.16 66.13  31.16 66.13  C 14.36 50.33  1.56000000000006 26.13  0.860000000000014 1.43000000000001  C 0.860000000000014 1.43000000000001  18.86 0.829999999999984  18.86 0.829999999999984  C 19.36 20.63  29.96 40.43  43.46 53.03  Z " stroke-width="4" stroke="#ffffff" fill="none" transform="matrix(1 0 0 1 937 19051 )" mask="url(#clip1103)" />
  </g>
</svg>