<?xml version="1.0" encoding="utf-8"?>
<svg version="1.1" xmlns:xlink="http://www.w3.org/1999/xlink" width="595px" height="56px" xmlns="http://www.w3.org/2000/svg">
  <defs>
    <mask fill="white" id="clip2215">
      <path d="M 0.0900000000000034 11.2  C 0.0900000000000034 11.2  7.89000000000001 11.1  12.19 8.2  C 16.49 5.3  17.29 0.100000000000001  17.29 0.100000000000001  C 17.29 0.100000000000001  578.19 0.100000000000001  578.19 0.100000000000001  C 578.19 0.100000000000001  577.19 4.6  582.59 8.2  C 587.99 11.8  594.79 11.3  594.79 11.3  C 594.79 11.3  594.79 44.9  594.79 44.9  C 594.79 44.9  587.79 44.2  582.59 47.7  C 577.39 51.2  578.19 55.9  578.19 55.9  C 578.19 55.9  16.19 55.9  16.19 55.9  C 16.19 55.9  17.49 51.3  12.19 47.7  C 6.89000000000001 44.2  0.0900000000000034 44.9  0.0900000000000034 44.9  C 0.0900000000000034 44.9  0.0900000000000034 11.2  0.0900000000000034 11.2  Z " fill-rule="evenodd" />
    </mask>
  </defs>
  <g transform="matrix(1 0 0 1 -331 -15151 )">
    <path d="M 0.0900000000000034 11.2  C 0.0900000000000034 11.2  7.89000000000001 11.1  12.19 8.2  C 16.49 5.3  17.29 0.100000000000001  17.29 0.100000000000001  C 17.29 0.100000000000001  578.19 0.100000000000001  578.19 0.100000000000001  C 578.19 0.100000000000001  577.19 4.6  582.59 8.2  C 587.99 11.8  594.79 11.3  594.79 11.3  C 594.79 11.3  594.79 44.9  594.79 44.9  C 594.79 44.9  587.79 44.2  582.59 47.7  C 577.39 51.2  578.19 55.9  578.19 55.9  C 578.19 55.9  16.19 55.9  16.19 55.9  C 16.19 55.9  17.49 51.3  12.19 47.7  C 6.89000000000001 44.2  0.0900000000000034 44.9  0.0900000000000034 44.9  C 0.0900000000000034 44.9  0.0900000000000034 11.2  0.0900000000000034 11.2  Z " fill-rule="nonzero" fill="#4b526c" stroke="none" transform="matrix(1 0 0 1 331 15151 )" />
    <path d="M 0.0900000000000034 11.2  C 0.0900000000000034 11.2  7.89000000000001 11.1  12.19 8.2  C 16.49 5.3  17.29 0.100000000000001  17.29 0.100000000000001  C 17.29 0.100000000000001  578.19 0.100000000000001  578.19 0.100000000000001  C 578.19 0.100000000000001  577.19 4.6  582.59 8.2  C 587.99 11.8  594.79 11.3  594.79 11.3  C 594.79 11.3  594.79 44.9  594.79 44.9  C 594.79 44.9  587.79 44.2  582.59 47.7  C 577.39 51.2  578.19 55.9  578.19 55.9  C 578.19 55.9  16.19 55.9  16.19 55.9  C 16.19 55.9  17.49 51.3  12.19 47.7  C 6.89000000000001 44.2  0.0900000000000034 44.9  0.0900000000000034 44.9  C 0.0900000000000034 44.9  0.0900000000000034 11.2  0.0900000000000034 11.2  Z " stroke-width="2" stroke="#ffffff" fill="none" transform="matrix(1 0 0 1 331 15151 )" mask="url(#clip2215)" />
  </g>
</svg>