<?xml version="1.0" encoding="utf-8"?>
<svg version="1.1" xmlns:xlink="http://www.w3.org/1999/xlink" width="76px" height="76px" xmlns="http://www.w3.org/2000/svg">
  <defs>
    <mask fill="white" id="clip202">
      <path d="M 38.59 75.68  C 17.99 75.68  0.289999999999992 58.98  0.289999999999992 38.38  C 0.289999999999992 17.78  17.99 0.0799999999999983  38.59 0.0799999999999983  C 59.19 0.0799999999999983  75.89 17.78  75.89 38.38  C 75.89 58.98  59.19 75.68  38.59 75.68  Z " fill-rule="evenodd" />
    </mask>
  </defs>
  <g transform="matrix(1 0 0 1 -239 -4950 )">
    <path d="M 38.59 75.68  C 17.99 75.68  0.289999999999992 58.98  0.289999999999992 38.38  C 0.289999999999992 17.78  17.99 0.0799999999999983  38.59 0.0799999999999983  C 59.19 0.0799999999999983  75.89 17.78  75.89 38.38  C 75.89 58.98  59.19 75.68  38.59 75.68  Z " fill-rule="nonzero" fill="#8bc0d3" stroke="none" transform="matrix(1 0 0 1 239 4950 )" />
    <path d="M 38.59 75.68  C 17.99 75.68  0.289999999999992 58.98  0.289999999999992 38.38  C 0.289999999999992 17.78  17.99 0.0799999999999983  38.59 0.0799999999999983  C 59.19 0.0799999999999983  75.89 17.78  75.89 38.38  C 75.89 58.98  59.19 75.68  38.59 75.68  Z " stroke-width="2" stroke="#8bc0d3" fill="none" transform="matrix(1 0 0 1 239 4950 )" mask="url(#clip202)" />
  </g>
</svg>