<?xml version="1.0" encoding="utf-8"?>
<svg version="1.1" xmlns:xlink="http://www.w3.org/1999/xlink" width="607px" height="64px" xmlns="http://www.w3.org/2000/svg">
  <defs>
    <mask fill="white" id="clip911">
      <path d="M 0.469999999999999 12.06  C 0.469999999999999 12.06  8.47 11.96  12.87 8.96  C 17.27 6.06  18.07 0.660000000000004  18.07 0.660000000000004  C 18.07 0.660000000000004  589.47 0.560000000000002  589.47 0.560000000000002  C 589.47 0.560000000000002  588.47 5.16  593.97 8.86  C 599.47 12.56  606.47 12.06  606.47 12.06  C 606.47 12.06  606.47 52.06  606.47 52.06  C 606.47 52.06  599.27 51.36  593.97 54.96  C 588.57 58.56  589.47 63.36  589.47 63.36  C 589.47 63.36  16.97 63.46  16.97 63.46  C 16.97 63.46  18.27 58.76  12.87 55.16  C 7.47 51.56  0.469999999999999 52.16  0.469999999999999 52.16  C 0.469999999999999 52.16  0.469999999999999 12.06  0.469999999999999 12.06  Z " fill-rule="evenodd" />
    </mask>
  </defs>
  <g transform="matrix(1 0 0 1 -325 -15147 )">
    <path d="M 0.469999999999999 12.06  C 0.469999999999999 12.06  8.47 11.96  12.87 8.96  C 17.27 6.06  18.07 0.660000000000004  18.07 0.660000000000004  C 18.07 0.660000000000004  589.47 0.560000000000002  589.47 0.560000000000002  C 589.47 0.560000000000002  588.47 5.16  593.97 8.86  C 599.47 12.56  606.47 12.06  606.47 12.06  C 606.47 12.06  606.47 52.06  606.47 52.06  C 606.47 52.06  599.27 51.36  593.97 54.96  C 588.57 58.56  589.47 63.36  589.47 63.36  C 589.47 63.36  16.97 63.46  16.97 63.46  C 16.97 63.46  18.27 58.76  12.87 55.16  C 7.47 51.56  0.469999999999999 52.16  0.469999999999999 52.16  C 0.469999999999999 52.16  0.469999999999999 12.06  0.469999999999999 12.06  Z " fill-rule="nonzero" fill="#f8ebf2" stroke="none" transform="matrix(1 0 0 1 325 15147 )" />
    <path d="M 0.469999999999999 12.06  C 0.469999999999999 12.06  8.47 11.96  12.87 8.96  C 17.27 6.06  18.07 0.660000000000004  18.07 0.660000000000004  C 18.07 0.660000000000004  589.47 0.560000000000002  589.47 0.560000000000002  C 589.47 0.560000000000002  588.47 5.16  593.97 8.86  C 599.47 12.56  606.47 12.06  606.47 12.06  C 606.47 12.06  606.47 52.06  606.47 52.06  C 606.47 52.06  599.27 51.36  593.97 54.96  C 588.57 58.56  589.47 63.36  589.47 63.36  C 589.47 63.36  16.97 63.46  16.97 63.46  C 16.97 63.46  18.27 58.76  12.87 55.16  C 7.47 51.56  0.469999999999999 52.16  0.469999999999999 52.16  C 0.469999999999999 52.16  0.469999999999999 12.06  0.469999999999999 12.06  Z " stroke-width="2" stroke="#f8ebf2" fill="none" transform="matrix(1 0 0 1 325 15147 )" mask="url(#clip911)" />
  </g>
</svg>