<?xml version="1.0" encoding="utf-8"?>
<svg version="1.1" xmlns:xlink="http://www.w3.org/1999/xlink" width="71px" height="72px" xmlns="http://www.w3.org/2000/svg">
  <defs>
    <mask fill="white" id="clip278">
      <path d="M 36.6999999999999 71.62  C 17.6999999999999 71.62  0.299999999999955 56.2199999999999  0.299999999999955 37.3199999999999  C 0.299999999999955 18.3199999999999  17.6999999999999 0.919999999999959  36.6999999999999 0.919999999999959  C 55.5999999999999 0.919999999999959  71 18.3199999999999  71 37.3199999999999  C 71 56.2199999999999  55.5999999999999 71.62  36.6999999999999 71.62  Z " fill-rule="evenodd" />
    </mask>
  </defs>
  <g transform="matrix(1 0 0 1 -855 -7384 )">
    <path d="M 36.6999999999999 71.62  C 17.6999999999999 71.62  0.299999999999955 56.2199999999999  0.299999999999955 37.3199999999999  C 0.299999999999955 18.3199999999999  17.6999999999999 0.919999999999959  36.6999999999999 0.919999999999959  C 55.5999999999999 0.919999999999959  71 18.3199999999999  71 37.3199999999999  C 71 56.2199999999999  55.5999999999999 71.62  36.6999999999999 71.62  Z " fill-rule="nonzero" fill="#ffffff" stroke="none" transform="matrix(1 0 0 1 855 7384 )" />
    <path d="M 36.6999999999999 71.62  C 17.6999999999999 71.62  0.299999999999955 56.2199999999999  0.299999999999955 37.3199999999999  C 0.299999999999955 18.3199999999999  17.6999999999999 0.919999999999959  36.6999999999999 0.919999999999959  C 55.5999999999999 0.919999999999959  71 18.3199999999999  71 37.3199999999999  C 71 56.2199999999999  55.5999999999999 71.62  36.6999999999999 71.62  Z " stroke-width="4" stroke="#ffcd55" fill="none" transform="matrix(1 0 0 1 855 7384 )" mask="url(#clip278)" />
  </g>
</svg>