<svg xmlns="http://www.w3.org/2000/svg" xmlns:xlink="http://www.w3.org/1999/xlink" width="62" height="62" version="1.1"><defs><mask id="clip2395" fill="#fff"><path fill-rule="evenodd" d="M 0.810000000000002 61.47 C 0.810000000000002 61.47 0.810000000000002 0.470000000000027 0.810000000000002 0.470000000000027 C 0.810000000000002 0.470000000000027 61.81 0.470000000000027 61.81 0.470000000000027 C 61.81 0.470000000000027 61.81 61.47 61.81 61.47 C 61.81 61.47 0.810000000000002 61.47 0.810000000000002 61.47 Z"/></mask></defs><g><path fill="#fff" fill-opacity="0" fill-rule="nonzero" stroke="none" d="M 0.810000000000002 61.47 C 0.810000000000002 61.47 0.810000000000002 0.470000000000027 0.810000000000002 0.470000000000027 C 0.810000000000002 0.470000000000027 61.81 0.470000000000027 61.81 0.470000000000027 C 61.81 0.470000000000027 61.81 61.47 61.81 61.47 C 61.81 61.47 0.810000000000002 61.47 0.810000000000002 61.47 Z" transform="matrix(1 0 0 1 -151 -16770 ) matrix(1 0 0 1 151 16770 )"/><path fill="none" stroke="#5a5a5a" stroke-width="2" d="M 0.810000000000002 61.47 C 0.810000000000002 61.47 0.810000000000002 0.470000000000027 0.810000000000002 0.470000000000027 C 0.810000000000002 0.470000000000027 61.81 0.470000000000027 61.81 0.470000000000027 C 61.81 0.470000000000027 61.81 61.47 61.81 61.47 C 61.81 61.47 0.810000000000002 61.47 0.810000000000002 61.47 Z" mask="url(#clip2395)" transform="matrix(1 0 0 1 -151 -16770 ) matrix(1 0 0 1 151 16770 )"/></g></svg>