<svg xmlns="http://www.w3.org/2000/svg" xmlns:xlink="http://www.w3.org/1999/xlink" width="62" height="62" version="1.1"><defs><mask id="clip2399" fill="#fff"><path fill-rule="evenodd" d="M 0.889999999999986 61.47 C 0.889999999999986 61.47 0.889999999999986 0.470000000000027 0.889999999999986 0.470000000000027 C 0.889999999999986 0.470000000000027 61.89 0.470000000000027 61.89 0.470000000000027 C 61.89 0.470000000000027 61.89 61.47 61.89 61.47 C 61.89 61.47 0.889999999999986 61.47 0.889999999999986 61.47 Z"/></mask></defs><g><path fill="#fff" fill-opacity="0" fill-rule="nonzero" stroke="none" d="M 0.889999999999986 61.47 C 0.889999999999986 61.47 0.889999999999986 0.470000000000027 0.889999999999986 0.470000000000027 C 0.889999999999986 0.470000000000027 61.89 0.470000000000027 61.89 0.470000000000027 C 61.89 0.470000000000027 61.89 61.47 61.89 61.47 C 61.89 61.47 0.889999999999986 61.47 0.889999999999986 61.47 Z" transform="matrix(1 0 0 1 -381 -16770 ) matrix(1 0 0 1 381 16770 )"/><path fill="none" stroke="#5a5a5a" stroke-width="2" d="M 0.889999999999986 61.47 C 0.889999999999986 61.47 0.889999999999986 0.470000000000027 0.889999999999986 0.470000000000027 C 0.889999999999986 0.470000000000027 61.89 0.470000000000027 61.89 0.470000000000027 C 61.89 0.470000000000027 61.89 61.47 61.89 61.47 C 61.89 61.47 0.889999999999986 61.47 0.889999999999986 61.47 Z" mask="url(#clip2399)" transform="matrix(1 0 0 1 -381 -16770 ) matrix(1 0 0 1 381 16770 )"/></g></svg>