<svg xmlns="http://www.w3.org/2000/svg" xmlns:xlink="http://www.w3.org/1999/xlink" width="56" height="59" version="1.1"><defs><mask id="clip2106" fill="#fff"><path fill-rule="evenodd" d="M 35.91 58.8099999999999 C 35.91 58.8099999999999 20.01 58.8099999999999 20.01 58.8099999999999 C 9.21 58.8099999999999 0.409999999999997 50.01 0.409999999999997 39.21 C 0.409999999999997 39.21 0.409999999999997 19.71 0.409999999999997 19.71 C 0.409999999999997 8.80999999999995 9.21 0.00999999999999091 20.01 0.00999999999999091 C 20.01 0.00999999999999091 35.91 0.00999999999999091 35.91 0.00999999999999091 C 46.81 0.00999999999999091 55.61 8.80999999999995 55.61 19.71 C 55.61 19.71 55.61 39.21 55.61 39.21 C 55.61 50.01 46.81 58.8099999999999 35.91 58.8099999999999 Z"/></mask></defs><g><path fill="#dcdcdd" fill-opacity=".078" fill-rule="nonzero" stroke="none" d="M 35.91 58.8099999999999 C 35.91 58.8099999999999 20.01 58.8099999999999 20.01 58.8099999999999 C 9.21 58.8099999999999 0.409999999999997 50.01 0.409999999999997 39.21 C 0.409999999999997 39.21 0.409999999999997 19.71 0.409999999999997 19.71 C 0.409999999999997 8.80999999999995 9.21 0.00999999999999091 20.01 0.00999999999999091 C 20.01 0.00999999999999091 35.91 0.00999999999999091 35.91 0.00999999999999091 C 46.81 0.00999999999999091 55.61 8.80999999999995 55.61 19.71 C 55.61 19.71 55.61 39.21 55.61 39.21 C 55.61 50.01 46.81 58.8099999999999 35.91 58.8099999999999 Z" transform="matrix(1 0 0 1 -101 -12982 ) matrix(1 0 0 1 101 12982 )"/><path fill="none" stroke="#dcdcdd" stroke-opacity=".059" stroke-width="2" d="M 35.91 58.8099999999999 C 35.91 58.8099999999999 20.01 58.8099999999999 20.01 58.8099999999999 C 9.21 58.8099999999999 0.409999999999997 50.01 0.409999999999997 39.21 C 0.409999999999997 39.21 0.409999999999997 19.71 0.409999999999997 19.71 C 0.409999999999997 8.80999999999995 9.21 0.00999999999999091 20.01 0.00999999999999091 C 20.01 0.00999999999999091 35.91 0.00999999999999091 35.91 0.00999999999999091 C 46.81 0.00999999999999091 55.61 8.80999999999995 55.61 19.71 C 55.61 19.71 55.61 39.21 55.61 39.21 C 55.61 50.01 46.81 58.8099999999999 35.91 58.8099999999999 Z" mask="url(#clip2106)" transform="matrix(1 0 0 1 -101 -12982 ) matrix(1 0 0 1 101 12982 )"/></g></svg>