<svg xmlns="http://www.w3.org/2000/svg" xmlns:xlink="http://www.w3.org/1999/xlink" width="151" height="119" version="1.1"><defs><radialGradient id="RadialGradient2564" cx="1.35" cy="1.46" r="188.9" gradientTransform="matrix(1 0 0 1 0 2.22044604925031E-16 )" gradientUnits="userSpaceOnUse"><stop id="Stop2565" offset="0" stop-color="#fffbf3"/><stop id="Stop2566" offset="1" stop-color="#fffaf0"/></radialGradient><mask id="clip2567" fill="#fff"><path fill-rule="evenodd" d="M 13.35 118.16 C 5.35 106.26 0.850000000000001 91.36 0.850000000000001 76.46 C 0.850000000000001 35.26 35.15 0.960000000000008 76.35 0.960000000000008 C 117.45 0.960000000000008 150.85 35.26 150.85 76.46 C 150.85 91.36 146.35 106.26 138.25 118.16 C 138.25 118.16 13.35 118.16 13.35 118.16 Z"/></mask></defs><g><path fill="url(#RadialGradient2564)" fill-rule="nonzero" stroke="none" d="M 13.35 118.16 C 5.35 106.26 0.850000000000001 91.36 0.850000000000001 76.46 C 0.850000000000001 35.26 35.15 0.960000000000008 76.35 0.960000000000008 C 117.45 0.960000000000008 150.85 35.26 150.85 76.46 C 150.85 91.36 146.35 106.26 138.25 118.16 C 138.25 118.16 13.35 118.16 13.35 118.16 Z" transform="matrix(1 0 0 1 -137 -17164 ) matrix(1 0 0 1 137 17164 )"/><path fill="none" stroke="#969696" stroke-width="2" d="M 13.35 118.16 C 5.35 106.26 0.850000000000001 91.36 0.850000000000001 76.46 C 0.850000000000001 35.26 35.15 0.960000000000008 76.35 0.960000000000008 C 117.45 0.960000000000008 150.85 35.26 150.85 76.46 C 150.85 91.36 146.35 106.26 138.25 118.16 C 138.25 118.16 13.35 118.16 13.35 118.16 Z" mask="url(#clip2567)" transform="matrix(1 0 0 1 -137 -17164 ) matrix(1 0 0 1 137 17164 )"/></g></svg>