<svg xmlns="http://www.w3.org/2000/svg" xmlns:xlink="http://www.w3.org/1999/xlink" width="154" height="4" version="1.1"><defs><mask id="clip1647" fill="#fff"><path fill-rule="evenodd" d="M 0.0900000000000318 3.02 C 0.0900000000000318 3.02 0.0900000000000318 0.519999999999996 0.0900000000000318 0.519999999999996 C 0.0900000000000318 0.519999999999996 153.89 0.519999999999996 153.89 0.519999999999996 C 153.89 0.519999999999996 153.89 3.02 153.89 3.02 C 153.89 3.02 0.0900000000000318 3.02 0.0900000000000318 3.02 Z"/></mask></defs><g><path fill="#302f34" fill-rule="nonzero" stroke="none" d="M 0.0900000000000318 3.02 C 0.0900000000000318 3.02 0.0900000000000318 0.519999999999996 0.0900000000000318 0.519999999999996 C 0.0900000000000318 0.519999999999996 153.89 0.519999999999996 153.89 0.519999999999996 C 153.89 0.519999999999996 153.89 3.02 153.89 3.02 C 153.89 3.02 0.0900000000000318 3.02 0.0900000000000318 3.02 Z" transform="matrix(1 0 0 1 -650 -561 ) matrix(1 0 0 1 650 561 )"/><path fill="none" stroke="#302f34" stroke-width="2" d="M 0.0900000000000318 3.02 C 0.0900000000000318 3.02 0.0900000000000318 0.519999999999996 0.0900000000000318 0.519999999999996 C 0.0900000000000318 0.519999999999996 153.89 0.519999999999996 153.89 0.519999999999996 C 153.89 0.519999999999996 153.89 3.02 153.89 3.02 C 153.89 3.02 0.0900000000000318 3.02 0.0900000000000318 3.02 Z" mask="url(#clip1647)" transform="matrix(1 0 0 1 -650 -561 ) matrix(1 0 0 1 650 561 )"/></g></svg>