<?xml version="1.0" encoding="utf-8"?>
<svg version="1.1" xmlns:xlink="http://www.w3.org/1999/xlink" width="62px" height="62px" xmlns="http://www.w3.org/2000/svg">
  <defs>
    <mask fill="white" id="clip867">
      <path d="M 0.889999999999986 61.47  C 0.889999999999986 61.47  0.889999999999986 0.470000000000027  0.889999999999986 0.470000000000027  C 0.889999999999986 0.470000000000027  61.89 0.470000000000027  61.89 0.470000000000027  C 61.89 0.470000000000027  61.89 61.47  61.89 61.47  C 61.89 61.47  0.889999999999986 61.47  0.889999999999986 61.47  Z " fill-rule="evenodd" />
    </mask>
  </defs>
  <g transform="matrix(1 0 0 1 -381 -16770 )">
    <path d="M 0.889999999999986 61.47  C 0.889999999999986 61.47  0.889999999999986 0.470000000000027  0.889999999999986 0.470000000000027  C 0.889999999999986 0.470000000000027  61.89 0.470000000000027  61.89 0.470000000000027  C 61.89 0.470000000000027  61.89 61.47  61.89 61.47  C 61.89 61.47  0.889999999999986 61.47  0.889999999999986 61.47  Z " fill-rule="nonzero" fill="#ffffff" stroke="none" fill-opacity="0" transform="matrix(1 0 0 1 381 16770 )" />
    <path d="M 0.889999999999986 61.47  C 0.889999999999986 61.47  0.889999999999986 0.470000000000027  0.889999999999986 0.470000000000027  C 0.889999999999986 0.470000000000027  61.89 0.470000000000027  61.89 0.470000000000027  C 61.89 0.470000000000027  61.89 61.47  61.89 61.47  C 61.89 61.47  0.889999999999986 61.47  0.889999999999986 61.47  Z " stroke-width="2" stroke="#5a5a5a" fill="none" transform="matrix(1 0 0 1 381 16770 )" mask="url(#clip867)" />
  </g>
</svg>