<?xml version="1.0" encoding="utf-8"?>
<svg version="1.1" xmlns:xlink="http://www.w3.org/1999/xlink" width="579px" height="66px" xmlns="http://www.w3.org/2000/svg">
  <defs>
    <mask fill="white" id="clip194">
      <path d="M 63.17 65.84  C 63.17 65.84  0.0699999999999932 0.939999999999998  0.0699999999999932 0.939999999999998  C 0.0699999999999932 0.939999999999998  578.47 0.939999999999998  578.47 0.939999999999998  C 578.47 0.939999999999998  514.57 65.84  514.57 65.84  C 514.57 65.84  63.17 65.84  63.17 65.84  Z " fill-rule="evenodd" />
    </mask>
  </defs>
  <g transform="matrix(1 0 0 1 -361 -2291 )">
    <path d="M 63.17 65.84  C 63.17 65.84  0.0699999999999932 0.939999999999998  0.0699999999999932 0.939999999999998  C 0.0699999999999932 0.939999999999998  578.47 0.939999999999998  578.47 0.939999999999998  C 578.47 0.939999999999998  514.57 65.84  514.57 65.84  C 514.57 65.84  63.17 65.84  63.17 65.84  Z " fill-rule="nonzero" fill="#9cbde8" stroke="none" transform="matrix(1 0 0 1 361 2291 )" />
    <path d="M 63.17 65.84  C 63.17 65.84  0.0699999999999932 0.939999999999998  0.0699999999999932 0.939999999999998  C 0.0699999999999932 0.939999999999998  578.47 0.939999999999998  578.47 0.939999999999998  C 578.47 0.939999999999998  514.57 65.84  514.57 65.84  C 514.57 65.84  63.17 65.84  63.17 65.84  Z " stroke-width="2" stroke="#9cbde8" fill="none" transform="matrix(1 0 0 1 361 2291 )" mask="url(#clip194)" />
  </g>
</svg>