<svg xmlns="http://www.w3.org/2000/svg" xmlns:xlink="http://www.w3.org/1999/xlink" width="284" height="26" version="1.1"><defs><linearGradient id="LinearGradient2528" x1="225718.52" x2="225718.52" y1="4909.305" y2="5461.555" gradientUnits="userSpaceOnUse"><stop id="Stop2529" offset="0" stop-color="#e4e4e4"/><stop id="Stop2530" offset=".2" stop-color="#ededed"/><stop id="Stop2531" offset=".8" stop-color="#bdbdbd"/><stop id="Stop2532" offset="1" stop-color="#a8a8a8"/></linearGradient><mask id="clip2533" fill="#fff"><path fill-rule="evenodd" d="M 0.350000000000023 25.33 C 0.350000000000023 25.33 0.350000000000023 0.829999999999984 0.350000000000023 0.829999999999984 C 0.350000000000023 0.829999999999984 283.55 0.829999999999984 283.55 0.829999999999984 C 283.55 0.829999999999984 283.55 25.33 283.55 25.33 C 283.55 25.33 0.350000000000023 25.33 0.350000000000023 25.33 Z"/></mask></defs><g><path fill="url(#LinearGradient2528)" fill-rule="nonzero" stroke="none" d="M 0.350000000000023 25.33 C 0.350000000000023 25.33 0.350000000000023 0.829999999999984 0.350000000000023 0.829999999999984 C 0.350000000000023 0.829999999999984 283.55 0.829999999999984 283.55 0.829999999999984 C 283.55 0.829999999999984 283.55 25.33 283.55 25.33 C 283.55 25.33 0.350000000000023 25.33 0.350000000000023 25.33 Z" transform="matrix(1 0 0 1 -883 -17265 ) matrix(1 0 0 1 883 17265 )"/><path fill="none" stroke="#787878" stroke-width="2" d="M 0.350000000000023 25.33 C 0.350000000000023 25.33 0.350000000000023 0.829999999999984 0.350000000000023 0.829999999999984 C 0.350000000000023 0.829999999999984 283.55 0.829999999999984 283.55 0.829999999999984 C 283.55 0.829999999999984 283.55 25.33 283.55 25.33 C 283.55 25.33 0.350000000000023 25.33 0.350000000000023 25.33 Z" mask="url(#clip2533)" transform="matrix(1 0 0 1 -883 -17265 ) matrix(1 0 0 1 883 17265 )"/></g></svg>