<svg xmlns="http://www.w3.org/2000/svg" xmlns:xlink="http://www.w3.org/1999/xlink" width="23" height="24" version="1.1"><defs><mask id="clip2288" fill="#fff"><path fill-rule="evenodd" d="M 0.220000000000027 23.96 C 0.220000000000027 23.96 0.220000000000027 0.260000000000048 0.220000000000027 0.260000000000048 C 0.220000000000027 0.260000000000048 22.52 0.260000000000048 22.52 0.260000000000048 C 22.52 0.260000000000048 22.52 23.96 22.52 23.96 C 22.52 23.96 0.220000000000027 23.96 0.220000000000027 23.96 Z"/></mask></defs><g><path fill="#d2691e" fill-rule="nonzero" stroke="none" d="M 0.220000000000027 23.96 C 0.220000000000027 23.96 0.220000000000027 0.260000000000048 0.220000000000027 0.260000000000048 C 0.220000000000027 0.260000000000048 22.52 0.260000000000048 22.52 0.260000000000048 C 22.52 0.260000000000048 22.52 23.96 22.52 23.96 C 22.52 23.96 0.220000000000027 23.96 0.220000000000027 23.96 Z" transform="matrix(1 0 0 1 -571 -14545 ) matrix(1 0 0 1 571 14545 )"/><path fill="none" stroke="#d2691e" stroke-width="2" d="M 0.220000000000027 23.96 C 0.220000000000027 23.96 0.220000000000027 0.260000000000048 0.220000000000027 0.260000000000048 C 0.220000000000027 0.260000000000048 22.52 0.260000000000048 22.52 0.260000000000048 C 22.52 0.260000000000048 22.52 23.96 22.52 23.96 C 22.52 23.96 0.220000000000027 23.96 0.220000000000027 23.96 Z" mask="url(#clip2288)" transform="matrix(1 0 0 1 -571 -14545 ) matrix(1 0 0 1 571 14545 )"/></g></svg>