<svg xmlns="http://www.w3.org/2000/svg" xmlns:xlink="http://www.w3.org/1999/xlink" width="76" height="76" version="1.1"><defs><mask id="clip1760" fill="#fff"><path fill-rule="evenodd" d="M 38.6899999999999 75.68 C 18.09 75.68 0.389999999999986 58.98 0.389999999999986 38.38 C 0.389999999999986 17.78 18.09 0.0799999999999983 38.6899999999999 0.0799999999999983 C 59.29 0.0799999999999983 75.99 17.78 75.99 38.38 C 75.99 58.98 59.29 75.68 38.6899999999999 75.68 Z"/></mask></defs><g><path fill="#8bc0d3" fill-rule="nonzero" stroke="none" d="M 38.6899999999999 75.68 C 18.09 75.68 0.389999999999986 58.98 0.389999999999986 38.38 C 0.389999999999986 17.78 18.09 0.0799999999999983 38.6899999999999 0.0799999999999983 C 59.29 0.0799999999999983 75.99 17.78 75.99 38.38 C 75.99 58.98 59.29 75.68 38.6899999999999 75.68 Z" transform="matrix(1 0 0 1 -688 -4950 ) matrix(1 0 0 1 688 4950 )"/><path fill="none" stroke="#8bc0d3" stroke-width="2" d="M 38.6899999999999 75.68 C 18.09 75.68 0.389999999999986 58.98 0.389999999999986 38.38 C 0.389999999999986 17.78 18.09 0.0799999999999983 38.6899999999999 0.0799999999999983 C 59.29 0.0799999999999983 75.99 17.78 75.99 38.38 C 75.99 58.98 59.29 75.68 38.6899999999999 75.68 Z" mask="url(#clip1760)" transform="matrix(1 0 0 1 -688 -4950 ) matrix(1 0 0 1 688 4950 )"/></g></svg>