<svg xmlns="http://www.w3.org/2000/svg" xmlns:xlink="http://www.w3.org/1999/xlink" width="13" height="13" version="1.1"><defs><mask id="clip1919" fill="#fff"><path fill-rule="evenodd" d="M 7.44999999999993 12.14 C 4.44999999999993 12.14 0.949999999999932 8.63999999999999 0.949999999999932 5.53999999999999 C 0.949999999999932 2.53999999999999 4.44999999999993 0.039999999999992 7.44999999999993 0.039999999999992 C 10.4499999999999 0.039999999999992 12.9499999999999 2.53999999999999 12.9499999999999 5.53999999999999 C 12.9499999999999 8.63999999999999 10.4499999999999 12.14 7.44999999999993 12.14 Z"/></mask></defs><g><path fill="#f06b6c" fill-rule="nonzero" stroke="none" d="M 7.44999999999993 12.14 C 4.44999999999993 12.14 0.949999999999932 8.63999999999999 0.949999999999932 5.53999999999999 C 0.949999999999932 2.53999999999999 4.44999999999993 0.039999999999992 7.44999999999993 0.039999999999992 C 10.4499999999999 0.039999999999992 12.9499999999999 2.53999999999999 12.9499999999999 5.53999999999999 C 12.9499999999999 8.63999999999999 10.4499999999999 12.14 7.44999999999993 12.14 Z" transform="matrix(1 0 0 1 -948 -6971 ) matrix(1 0 0 1 948 6971 )"/><path fill="none" stroke="#f06b6c" stroke-width="2" d="M 7.44999999999993 12.14 C 4.44999999999993 12.14 0.949999999999932 8.63999999999999 0.949999999999932 5.53999999999999 C 0.949999999999932 2.53999999999999 4.44999999999993 0.039999999999992 7.44999999999993 0.039999999999992 C 10.4499999999999 0.039999999999992 12.9499999999999 2.53999999999999 12.9499999999999 5.53999999999999 C 12.9499999999999 8.63999999999999 10.4499999999999 12.14 7.44999999999993 12.14 Z" mask="url(#clip1919)" transform="matrix(1 0 0 1 -948 -6971 ) matrix(1 0 0 1 948 6971 )"/></g></svg>