<?xml version="1.0" encoding="utf-8"?>
<svg version="1.1" xmlns:xlink="http://www.w3.org/1999/xlink" width="57px" height="60px" xmlns="http://www.w3.org/2000/svg">
  <defs>
    <mask fill="white" id="clip533">
      <path d="M 36.4 0.27  C 36.4 0.27  20.6 0.27  20.6 0.27  C 9.70000000000002 0.27  0.900000000000006 9.67  0.900000000000006 21.37  C 0.900000000000006 21.37  0.900000000000006 38.07  0.900000000000006 38.07  C 0.900000000000006 49.67  9.70000000000002 59.07  20.6 59.07  C 20.6 59.07  36.4 59.07  36.4 59.07  C 47.3 59.07  56.1 49.67  56.1 38.07  C 56.1 38.07  56.1 21.37  56.1 21.37  C 56.1 9.67  47.3 0.27  36.4 0.27  Z " fill-rule="evenodd" />
    </mask>
  </defs>
  <g transform="matrix(1 0 0 1 -223 -12411 )">
    <path d="M 36.4 0.27  C 36.4 0.27  20.6 0.27  20.6 0.27  C 9.70000000000002 0.27  0.900000000000006 9.67  0.900000000000006 21.37  C 0.900000000000006 21.37  0.900000000000006 38.07  0.900000000000006 38.07  C 0.900000000000006 49.67  9.70000000000002 59.07  20.6 59.07  C 20.6 59.07  36.4 59.07  36.4 59.07  C 47.3 59.07  56.1 49.67  56.1 38.07  C 56.1 38.07  56.1 21.37  56.1 21.37  C 56.1 9.67  47.3 0.27  36.4 0.27  Z " fill-rule="nonzero" fill="#cdcece" stroke="none" fill-opacity="0.0784313725490196" transform="matrix(1 0 0 1 223 12411 )" />
    <path d="M 36.4 0.27  C 36.4 0.27  20.6 0.27  20.6 0.27  C 9.70000000000002 0.27  0.900000000000006 9.67  0.900000000000006 21.37  C 0.900000000000006 21.37  0.900000000000006 38.07  0.900000000000006 38.07  C 0.900000000000006 49.67  9.70000000000002 59.07  20.6 59.07  C 20.6 59.07  36.4 59.07  36.4 59.07  C 47.3 59.07  56.1 49.67  56.1 38.07  C 56.1 38.07  56.1 21.37  56.1 21.37  C 56.1 9.67  47.3 0.27  36.4 0.27  Z " stroke-width="2" stroke="#cdcece" fill="none" stroke-opacity="0.0588235294117647" transform="matrix(1 0 0 1 223 12411 )" mask="url(#clip533)" />
  </g>
</svg>