<?xml version="1.0" encoding="utf-8"?>
<svg version="1.1" xmlns:xlink="http://www.w3.org/1999/xlink" width="437px" height="34px" xmlns="http://www.w3.org/2000/svg">
  <defs>
    <mask fill="white" id="clip1676">
      <path d="M 0.759999999999991 33.3399999999999  C 0.759999999999991 33.3399999999999  0.759999999999991 0.0399999999999636  0.759999999999991 0.0399999999999636  C 0.759999999999991 0.0399999999999636  436.46 0.0399999999999636  436.46 0.0399999999999636  C 436.46 0.0399999999999636  436.46 33.3399999999999  436.46 33.3399999999999  C 436.46 33.3399999999999  0.759999999999991 33.3399999999999  0.759999999999991 33.3399999999999  Z " fill-rule="evenodd" />
    </mask>
  </defs>
  <g transform="matrix(1 0 0 1 -219 -1843 )">
    <path d="M 0.759999999999991 33.3399999999999  C 0.759999999999991 33.3399999999999  0.759999999999991 0.0399999999999636  0.759999999999991 0.0399999999999636  C 0.759999999999991 0.0399999999999636  436.46 0.0399999999999636  436.46 0.0399999999999636  C 436.46 0.0399999999999636  436.46 33.3399999999999  436.46 33.3399999999999  C 436.46 33.3399999999999  0.759999999999991 33.3399999999999  0.759999999999991 33.3399999999999  Z " fill-rule="nonzero" fill="#fafafa" stroke="none" transform="matrix(1 0 0 1 219 1843 )" />
    <path d="M 0.759999999999991 33.3399999999999  C 0.759999999999991 33.3399999999999  0.759999999999991 0.0399999999999636  0.759999999999991 0.0399999999999636  C 0.759999999999991 0.0399999999999636  436.46 0.0399999999999636  436.46 0.0399999999999636  C 436.46 0.0399999999999636  436.46 33.3399999999999  436.46 33.3399999999999  C 436.46 33.3399999999999  0.759999999999991 33.3399999999999  0.759999999999991 33.3399999999999  Z " stroke-width="2" stroke="#c0c0c0" fill="none" transform="matrix(1 0 0 1 219 1843 )" mask="url(#clip1676)" />
  </g>
</svg>