<svg xmlns="http://www.w3.org/2000/svg" xmlns:xlink="http://www.w3.org/1999/xlink" width="220" height="24" version="1.1"><defs><mask id="clip2276" fill="#fff"><path fill-rule="evenodd" d="M 0.780000000000001 23.96 C 0.780000000000001 23.96 0.780000000000001 0.95999999999998 0.780000000000001 0.95999999999998 C 0.780000000000001 0.95999999999998 219.48 0.95999999999998 219.48 0.95999999999998 C 219.48 0.95999999999998 219.48 23.96 219.48 23.96 C 219.48 23.96 0.780000000000001 23.96 0.780000000000001 23.96 Z"/></mask></defs><g><path fill="#add8e6" fill-rule="nonzero" stroke="none" d="M 0.780000000000001 23.96 C 0.780000000000001 23.96 0.780000000000001 0.95999999999998 0.780000000000001 0.95999999999998 C 0.780000000000001 0.95999999999998 219.48 0.95999999999998 219.48 0.95999999999998 C 219.48 0.95999999999998 219.48 23.96 219.48 23.96 C 219.48 23.96 0.780000000000001 23.96 0.780000000000001 23.96 Z" transform="matrix(1 0 0 1 -158 -14597 ) matrix(1 0 0 1 158 14597 )"/><path fill="none" stroke="#6fbbd3" stroke-width="2" d="M 0.780000000000001 23.96 C 0.780000000000001 23.96 0.780000000000001 0.95999999999998 0.780000000000001 0.95999999999998 C 0.780000000000001 0.95999999999998 219.48 0.95999999999998 219.48 0.95999999999998 C 219.48 0.95999999999998 219.48 23.96 219.48 23.96 C 219.48 23.96 0.780000000000001 23.96 0.780000000000001 23.96 Z" mask="url(#clip2276)" transform="matrix(1 0 0 1 -158 -14597 ) matrix(1 0 0 1 158 14597 )"/></g></svg>