<svg xmlns="http://www.w3.org/2000/svg" xmlns:xlink="http://www.w3.org/1999/xlink" width="390" height="271" version="1.1"><defs><mask id="clip2239" fill="#fff"><path fill-rule="evenodd" d="M 11.67 270.11 C 11.67 270.11 378.37 270.11 378.37 270.11 C 384.67 270.11 389.67 265.01 389.67 258.81 C 389.67 258.81 389.67 11.31 389.67 11.31 C 389.67 5.10999999999999 384.67 0.00999999999999091 378.37 0.00999999999999091 C 378.37 0.00999999999999091 11.67 0.00999999999999091 11.67 0.00999999999999091 C 5.47000000000001 0.00999999999999091 0.370000000000005 5.10999999999999 0.370000000000005 11.31 C 0.370000000000005 11.31 0.370000000000005 258.81 0.370000000000005 258.81 C 0.370000000000005 265.01 5.47000000000001 270.11 11.67 270.11 Z"/></mask></defs><g><path fill="#f0f0f0" fill-rule="nonzero" stroke="none" d="M 11.67 270.11 C 11.67 270.11 378.37 270.11 378.37 270.11 C 384.67 270.11 389.67 265.01 389.67 258.81 C 389.67 258.81 389.67 11.31 389.67 11.31 C 389.67 5.10999999999999 384.67 0.00999999999999091 378.37 0.00999999999999091 C 378.37 0.00999999999999091 11.67 0.00999999999999091 11.67 0.00999999999999091 C 5.47000000000001 0.00999999999999091 0.370000000000005 5.10999999999999 0.370000000000005 11.31 C 0.370000000000005 11.31 0.370000000000005 258.81 0.370000000000005 258.81 C 0.370000000000005 265.01 5.47000000000001 270.11 11.67 270.11 Z" transform="matrix(1 0 0 1 -116 -14416 ) matrix(1 0 0 1 116 14416 )"/><path fill="none" stroke="#eee" stroke-width="2" d="M 11.67 270.11 C 11.67 270.11 378.37 270.11 378.37 270.11 C 384.67 270.11 389.67 265.01 389.67 258.81 C 389.67 258.81 389.67 11.31 389.67 11.31 C 389.67 5.10999999999999 384.67 0.00999999999999091 378.37 0.00999999999999091 C 378.37 0.00999999999999091 11.67 0.00999999999999091 11.67 0.00999999999999091 C 5.47000000000001 0.00999999999999091 0.370000000000005 5.10999999999999 0.370000000000005 11.31 C 0.370000000000005 11.31 0.370000000000005 258.81 0.370000000000005 258.81 C 0.370000000000005 265.01 5.47000000000001 270.11 11.67 270.11 Z" mask="url(#clip2239)" transform="matrix(1 0 0 1 -116 -14416 ) matrix(1 0 0 1 116 14416 )"/></g></svg>