<?xml version="1.0" encoding="utf-8"?>
<svg version="1.1" xmlns:xlink="http://www.w3.org/1999/xlink" width="63px" height="62px" xmlns="http://www.w3.org/2000/svg">
  <defs>
    <mask fill="white" id="clip902">
      <path d="M 61.85 55.47  C 61.85 55.47  0.849999999999994 55.47  0.849999999999994 55.47  C 0.849999999999994 55.47  61.85 55.47  61.85 55.47  Z " fill-rule="evenodd" />
    </mask>
  </defs>
  <g transform="matrix(1 0 0 1 -266 -16770 )">
    <path d="M 61.85 55.47  C 61.85 55.47  0.849999999999994 55.47  0.849999999999994 55.47  C 0.849999999999994 55.47  61.85 55.47  61.85 55.47  Z " fill-rule="nonzero" fill="#ffffff" stroke="none" fill-opacity="0" transform="matrix(1 0 0 1 266 16770 )" />
    <path d="M 61.85 55.47  C 61.85 55.47  0.849999999999994 55.47  0.849999999999994 55.47  C 0.849999999999994 55.47  61.85 55.47  61.85 55.47  Z " stroke-width="2" stroke="#ffffff" fill="none" transform="matrix(1 0 0 1 266 16770 )" mask="url(#clip902)" />
    <path d="M 1.34999999999999 7.5  L 61.35 7.5  M 1.34999999999999 13.5  L 61.35 13.5  M 1.34999999999999 19.5  L 61.35 19.5  M 1.34999999999999 25.5  L 61.35 25.5  M 1.34999999999999 31.5  L 61.35 31.5  M 1.34999999999999 37.5  L 61.35 37.5  M 1.34999999999999 43.5  L 61.35 43.5  M 1.34999999999999 49.5  L 61.35 49.5  M 8.5 0.970000000000027  L 8.5 60.97  M 14.5 0.970000000000027  L 14.5 60.97  M 20.5 0.970000000000027  L 20.5 60.97  M 26.5 0.970000000000027  L 26.5 60.97  M 31.5 0.970000000000027  L 31.5 60.97  M 37.5 0.970000000000027  L 37.5 60.97  M 43.5 0.970000000000027  L 43.5 60.97  M 49.5 0.970000000000027  L 49.5 60.97  M 55.5 0.970000000000027  L 55.5 60.97  " stroke-width="1" stroke="#ffffff" fill="none" transform="matrix(1 0 0 1 266 16770 )" mask="url(#clip902)" />
  </g>
</svg>