<svg xmlns="http://www.w3.org/2000/svg" xmlns:xlink="http://www.w3.org/1999/xlink" width="3" height="3" version="1.1"><defs><mask id="clip1841" fill="#fff"><path fill-rule="evenodd" d="M 1.91000000000003 0.490000000000009 C 2.31000000000006 0.490000000000009 2.61000000000001 1.79000000000002 2.61000000000001 2.19 C 2.61000000000001 2.59000000000003 2.31000000000006 2.88999999999999 1.91000000000003 2.88999999999999 C 1.51000000000005 2.88999999999999 0.210000000000036 2.59000000000003 0.210000000000036 2.19 C 0.210000000000036 1.79000000000002 1.51000000000005 0.490000000000009 1.91000000000003 0.490000000000009 Z"/></mask></defs><g><path fill="#fff" fill-rule="nonzero" stroke="none" d="M 1.91000000000003 0.490000000000009 C 2.31000000000006 0.490000000000009 2.61000000000001 1.79000000000002 2.61000000000001 2.19 C 2.61000000000001 2.59000000000003 2.31000000000006 2.88999999999999 1.91000000000003 2.88999999999999 C 1.51000000000005 2.88999999999999 0.210000000000036 2.59000000000003 0.210000000000036 2.19 C 0.210000000000036 1.79000000000002 1.51000000000005 0.490000000000009 1.91000000000003 0.490000000000009 Z" transform="matrix(1 0 0 1 -419 -7204 ) matrix(1 0 0 1 419 7204 )"/><path fill="none" stroke="#fff" stroke-width="2" d="M 1.91000000000003 0.490000000000009 C 2.31000000000006 0.490000000000009 2.61000000000001 1.79000000000002 2.61000000000001 2.19 C 2.61000000000001 2.59000000000003 2.31000000000006 2.88999999999999 1.91000000000003 2.88999999999999 C 1.51000000000005 2.88999999999999 0.210000000000036 2.59000000000003 0.210000000000036 2.19 C 0.210000000000036 1.79000000000002 1.51000000000005 0.490000000000009 1.91000000000003 0.490000000000009 Z" mask="url(#clip1841)" transform="matrix(1 0 0 1 -419 -7204 ) matrix(1 0 0 1 419 7204 )"/></g></svg>