<svg xmlns="http://www.w3.org/2000/svg" xmlns:xlink="http://www.w3.org/1999/xlink" width="165" height="118" version="1.1"><defs><mask id="clip1816" fill="#fff"><path fill-rule="evenodd" d="M 157.5 88.52 C 157.5 88.52 164.8 114.82 164.8 114.82 C 155.3 116.62 145.5 117.52 135.4 117.52 C 79.3 117.52 29 87.92 0.100000000000009 44.42 C 0.100000000000009 44.42 66.9 0.220000000000027 66.9 0.220000000000027 C 81.4 22.12 107.2 36.52 135.4 36.52 C 138.1 36.52 140.7 36.42 143.3 36.12 C 143.3 36.12 150.6 63.62 150.6 63.62 C 150.6 63.62 140.8 77.42 140.8 77.42 C 140.8 77.42 157.5 88.52 157.5 88.52 Z"/></mask></defs><g><path fill="#02b5b2" fill-rule="nonzero" stroke="none" d="M 157.5 88.52 C 157.5 88.52 164.8 114.82 164.8 114.82 C 155.3 116.62 145.5 117.52 135.4 117.52 C 79.3 117.52 29 87.92 0.100000000000009 44.42 C 0.100000000000009 44.42 66.9 0.220000000000027 66.9 0.220000000000027 C 81.4 22.12 107.2 36.52 135.4 36.52 C 138.1 36.52 140.7 36.42 143.3 36.12 C 143.3 36.12 150.6 63.62 150.6 63.62 C 150.6 63.62 140.8 77.42 140.8 77.42 C 140.8 77.42 157.5 88.52 157.5 88.52 Z" transform="matrix(1 0 0 1 -194 -7181 ) matrix(1 0 0 1 194 7181 )"/><path fill="none" stroke="#02b5b2" stroke-width="2" d="M 157.5 88.52 C 157.5 88.52 164.8 114.82 164.8 114.82 C 155.3 116.62 145.5 117.52 135.4 117.52 C 79.3 117.52 29 87.92 0.100000000000009 44.42 C 0.100000000000009 44.42 66.9 0.220000000000027 66.9 0.220000000000027 C 81.4 22.12 107.2 36.52 135.4 36.52 C 138.1 36.52 140.7 36.42 143.3 36.12 C 143.3 36.12 150.6 63.62 150.6 63.62 C 150.6 63.62 140.8 77.42 140.8 77.42 C 140.8 77.42 157.5 88.52 157.5 88.52 Z" mask="url(#clip1816)" transform="matrix(1 0 0 1 -194 -7181 ) matrix(1 0 0 1 194 7181 )"/></g></svg>