<svg xmlns="http://www.w3.org/2000/svg" xmlns:xlink="http://www.w3.org/1999/xlink" width="1124" height="199" version="1.1"><defs><mask id="clip1937" fill="#fff"><path fill-rule="evenodd" d="M 0.875 198.805 C 0.875 198.805 0.875 0.154999999999973 0.875 0.154999999999973 C 0.875 0.154999999999973 1123.625 0.154999999999973 1123.625 0.154999999999973 C 1123.625 0.154999999999973 1123.625 198.805 1123.625 198.805 C 1123.625 198.805 0.875 198.805 0.875 198.805 Z"/></mask></defs><g><path fill="#8bc0d3" fill-rule="nonzero" stroke="none" d="M 0.875 198.805 C 0.875 198.805 0.875 0.154999999999973 0.875 0.154999999999973 C 0.875 0.154999999999973 1123.625 0.154999999999973 1123.625 0.154999999999973 C 1123.625 0.154999999999973 1123.625 198.805 1123.625 198.805 C 1123.625 198.805 0.875 198.805 0.875 198.805 Z" transform="matrix(1 0 0 1 -89 -8347 ) matrix(1 0 0 1 89 8347 )"/><path fill="none" stroke="#8bc0d3" stroke-width=".5" d="M 0.875 198.805 C 0.875 198.805 0.875 0.154999999999973 0.875 0.154999999999973 C 0.875 0.154999999999973 1123.625 0.154999999999973 1123.625 0.154999999999973 C 1123.625 0.154999999999973 1123.625 198.805 1123.625 198.805 C 1123.625 198.805 0.875 198.805 0.875 198.805 Z" mask="url(#clip1937)" transform="matrix(1 0 0 1 -89 -8347 ) matrix(1 0 0 1 89 8347 )"/></g></svg>