<svg xmlns="http://www.w3.org/2000/svg" xmlns:xlink="http://www.w3.org/1999/xlink" width="121" height="121" version="1.1"><defs><mask id="clip2669" fill="#fff"><path fill-rule="evenodd" d="M 60.015 120.945 C 26.915 120.945 0.0149999999999864 93.795 0.0149999999999864 60.595 C 0.0149999999999864 27.495 26.915 0.594999999999999 60.015 0.594999999999999 C 93.215 0.594999999999999 120.365 27.495 120.365 60.595 C 120.365 93.795 93.215 120.945 60.015 120.945 Z"/></mask></defs><g><path fill="#fff" fill-opacity="0" fill-rule="nonzero" stroke="none" d="M 60.015 120.945 C 26.915 120.945 0.0149999999999864 93.795 0.0149999999999864 60.595 C 0.0149999999999864 27.495 26.915 0.594999999999999 60.015 0.594999999999999 C 93.215 0.594999999999999 120.365 27.495 120.365 60.595 C 120.365 93.795 93.215 120.945 60.015 120.945 Z" transform="matrix(1 0 0 1 -464 -18990 ) matrix(1 0 0 1 464 18990 )"/><path fill="none" stroke="#33b2c3" stroke-width=".5" d="M 60.015 120.945 C 26.915 120.945 0.0149999999999864 93.795 0.0149999999999864 60.595 C 0.0149999999999864 27.495 26.915 0.594999999999999 60.015 0.594999999999999 C 93.215 0.594999999999999 120.365 27.495 120.365 60.595 C 120.365 93.795 93.215 120.945 60.015 120.945 Z" mask="url(#clip2669)" transform="matrix(1 0 0 1 -464 -18990 ) matrix(1 0 0 1 464 18990 )"/></g></svg>