<svg xmlns="http://www.w3.org/2000/svg" xmlns:xlink="http://www.w3.org/1999/xlink" width="25" height="24" version="1.1"><defs><mask id="clip1961" fill="#fff"><path fill-rule="evenodd" d="M 0.54000000000002 23.95 C 0.54000000000002 23.95 0.54000000000002 0.350000000000001 0.54000000000002 0.350000000000001 C 0.54000000000002 0.350000000000001 24.14 0.350000000000001 24.14 0.350000000000001 C 24.14 0.350000000000001 24.14 23.95 24.14 23.95 C 24.14 23.95 0.54000000000002 23.95 0.54000000000002 23.95 Z"/></mask></defs><g><path fill="#fff" fill-rule="nonzero" stroke="none" d="M 0.54000000000002 23.95 C 0.54000000000002 23.95 0.54000000000002 0.350000000000001 0.54000000000002 0.350000000000001 C 0.54000000000002 0.350000000000001 24.14 0.350000000000001 24.14 0.350000000000001 C 24.14 0.350000000000001 24.14 23.95 24.14 23.95 C 24.14 23.95 0.54000000000002 23.95 0.54000000000002 23.95 Z" transform="matrix(1 0 0 1 -403 -7792 ) matrix(1 0 0 1 403 7792 )"/><path fill="none" stroke="#fff" stroke-width="2" d="M 0.54000000000002 23.95 C 0.54000000000002 23.95 0.54000000000002 0.350000000000001 0.54000000000002 0.350000000000001 C 0.54000000000002 0.350000000000001 24.14 0.350000000000001 24.14 0.350000000000001 C 24.14 0.350000000000001 24.14 23.95 24.14 23.95 C 24.14 23.95 0.54000000000002 23.95 0.54000000000002 23.95 Z" mask="url(#clip1961)" transform="matrix(1 0 0 1 -403 -7792 ) matrix(1 0 0 1 403 7792 )"/></g></svg>