<svg xmlns="http://www.w3.org/2000/svg" xmlns:xlink="http://www.w3.org/1999/xlink" width="1108" height="174" version="1.1"><defs><mask id="clip2013" fill="#fff"><path fill-rule="evenodd" d="M 0.5 173.08 C 0.5 173.08 0.5 0.879999999999995 0.5 0.879999999999995 C 0.5 0.879999999999995 1107.5 0.879999999999995 1107.5 0.879999999999995 C 1107.5 0.879999999999995 1107.5 173.08 1107.5 173.08 C 1107.5 173.08 0.5 173.08 0.5 173.08 Z"/></mask></defs><g><path fill="#fff" fill-opacity="0" fill-rule="nonzero" stroke="none" d="M 0.5 173.08 C 0.5 173.08 0.5 0.879999999999995 0.5 0.879999999999995 C 0.5 0.879999999999995 1107.5 0.879999999999995 1107.5 0.879999999999995 C 1107.5 0.879999999999995 1107.5 173.08 1107.5 173.08 C 1107.5 173.08 0.5 173.08 0.5 173.08 Z" transform="matrix(1 0 0 1 -98 -11037 ) matrix(1 0 0 1 98 11037 )"/><path fill="none" stroke="#fff" stroke-width="2" d="M 0.5 173.08 C 0.5 173.08 0.5 0.879999999999995 0.5 0.879999999999995 C 0.5 0.879999999999995 1107.5 0.879999999999995 1107.5 0.879999999999995 C 1107.5 0.879999999999995 1107.5 173.08 1107.5 173.08 C 1107.5 173.08 0.5 173.08 0.5 173.08 Z" mask="url(#clip2013)" transform="matrix(1 0 0 1 -98 -11037 ) matrix(1 0 0 1 98 11037 )"/></g></svg>