<svg xmlns="http://www.w3.org/2000/svg" xmlns:xlink="http://www.w3.org/1999/xlink" width="89" height="89" version="1.1"><g><path fill="#eee" fill-rule="nonzero" stroke="none" d="M 44 78.5 L 44 88.5 C 20.01 88.5 0.210000000000036 68.7 0.210000000000036 44.3 C 0.210000000000036 19.9 20.01 0.100000000000023 44.4100000000001 0.100000000000023 C 68.8100000000001 0.100000000000023 88.61 19.9 88.61 44.3 C 88.61 68.7 68.8100000000001 88.5 44 88.5 L 44 78.5 C 63.3100000000001 78.5 78.61 63.2 78.61 44.3 C 78.61 25.4 63.3100000000001 10.1 44.4100000000001 10.1 C 25.51 10.1 10.21 25.4 10.21 44.3 C 10.21 63.2 25.51 78.5 44 78.5 Z" transform="matrix(1 0 0 1 -802 -7155 ) matrix(1 0 0 1 802 7155 )"/></g></svg>