<svg xmlns="http://www.w3.org/2000/svg" xmlns:xlink="http://www.w3.org/1999/xlink" width="12" height="31" version="1.1"><defs><mask id="clip2658" fill="#fff"><path fill-rule="evenodd" d="M 0.205000000000041 30.015 C 0.205000000000041 30.015 0.205000000000041 0.264999999999986 0.205000000000041 0.264999999999986 C 0.205000000000041 0.264999999999986 11.0550000000001 0.264999999999986 11.0550000000001 0.264999999999986 C 11.0550000000001 0.264999999999986 11.0550000000001 30.015 11.0550000000001 30.015 C 11.0550000000001 30.015 0.205000000000041 30.015 0.205000000000041 30.015 Z"/></mask></defs><g><path fill="#2f7a8e" fill-rule="nonzero" stroke="none" d="M 0.205000000000041 30.015 C 0.205000000000041 30.015 0.205000000000041 0.264999999999986 0.205000000000041 0.264999999999986 C 0.205000000000041 0.264999999999986 11.0550000000001 0.264999999999986 11.0550000000001 0.264999999999986 C 11.0550000000001 0.264999999999986 11.0550000000001 30.015 11.0550000000001 30.015 C 11.0550000000001 30.015 0.205000000000041 30.015 0.205000000000041 30.015 Z" transform="matrix(1 0 0 1 -955 -19257 ) matrix(1 0 0 1 955 19257 )"/><path fill="none" stroke="#2f7a8e" stroke-width=".5" d="M 0.205000000000041 30.015 C 0.205000000000041 30.015 0.205000000000041 0.264999999999986 0.205000000000041 0.264999999999986 C 0.205000000000041 0.264999999999986 11.0550000000001 0.264999999999986 11.0550000000001 0.264999999999986 C 11.0550000000001 0.264999999999986 11.0550000000001 30.015 11.0550000000001 30.015 C 11.0550000000001 30.015 0.205000000000041 30.015 0.205000000000041 30.015 Z" mask="url(#clip2658)" transform="matrix(1 0 0 1 -955 -19257 ) matrix(1 0 0 1 955 19257 )"/></g></svg>