<svg xmlns="http://www.w3.org/2000/svg" xmlns:xlink="http://www.w3.org/1999/xlink" width="74" height="114" version="1.1"><defs><mask id="clip2494" fill="#fff"><path fill-rule="evenodd" d="M 0.75 48 C 0.75 48 41.85 0.199999999999932 41.85 0.199999999999932 C 61.25 16.6 73.65 42.1 73.65 69.4 C 73.65 85.6999999999999 69.25 100.9 61.65 113.9 C 61.65 113.9 6.75 82.8 6.75 82.8 C 8.94999999999999 78.9 10.25 74.3 10.25 69.4 C 10.25 61.1999999999999 6.55000000000001 52.9 0.75 48 Z"/></mask></defs><g><path fill="#f14100" fill-rule="nonzero" stroke="none" d="M 0.75 48 C 0.75 48 41.85 0.199999999999932 41.85 0.199999999999932 C 61.25 16.6 73.65 42.1 73.65 69.4 C 73.65 85.6999999999999 69.25 100.9 61.65 113.9 C 61.65 113.9 6.75 82.8 6.75 82.8 C 8.94999999999999 78.9 10.25 74.3 10.25 69.4 C 10.25 61.1999999999999 6.55000000000001 52.9 0.75 48 Z" transform="matrix(1 0 0 1 -258 -17499 ) matrix(1 0 0 1 258 17499 )"/><path fill="none" stroke="#f14100" stroke-width="2" d="M 0.75 48 C 0.75 48 41.85 0.199999999999932 41.85 0.199999999999932 C 61.25 16.6 73.65 42.1 73.65 69.4 C 73.65 85.6999999999999 69.25 100.9 61.65 113.9 C 61.65 113.9 6.75 82.8 6.75 82.8 C 8.94999999999999 78.9 10.25 74.3 10.25 69.4 C 10.25 61.1999999999999 6.55000000000001 52.9 0.75 48 Z" mask="url(#clip2494)" transform="matrix(1 0 0 1 -258 -17499 ) matrix(1 0 0 1 258 17499 )"/></g></svg>