<svg xmlns="http://www.w3.org/2000/svg" xmlns:xlink="http://www.w3.org/1999/xlink" width="284" height="25" version="1.1"><defs><linearGradient id="LinearGradient2513" x1=".85" x2=".85" y1=".85" y2="24.35" gradientUnits="userSpaceOnUse"><stop id="Stop2514" offset="0" stop-color="#e4e4e4"/><stop id="Stop2515" offset=".2" stop-color="#ededed"/><stop id="Stop2516" offset=".8" stop-color="#bdbdbd"/><stop id="Stop2517" offset="1" stop-color="#a8a8a8"/></linearGradient><mask id="clip2518" fill="#fff"><path fill-rule="evenodd" d="M 0.350000000000023 24.85 C 0.350000000000023 24.85 0.350000000000023 0.349999999999994 0.350000000000023 0.349999999999994 C 0.350000000000023 0.349999999999994 283.55 0.349999999999994 283.55 0.349999999999994 C 283.55 0.349999999999994 283.55 24.85 283.55 24.85 C 283.55 24.85 0.350000000000023 24.85 0.350000000000023 24.85 Z"/></mask></defs><g><path fill="url(#LinearGradient2513)" fill-rule="nonzero" stroke="none" d="M 0.350000000000023 24.85 C 0.350000000000023 24.85 0.350000000000023 0.349999999999994 0.350000000000023 0.349999999999994 C 0.350000000000023 0.349999999999994 283.55 0.349999999999994 283.55 0.349999999999994 C 283.55 0.349999999999994 283.55 24.85 283.55 24.85 C 283.55 24.85 0.350000000000023 24.85 0.350000000000023 24.85 Z" transform="matrix(1 0 0 1 -883 -17162 ) matrix(1 0 0 1 883 17162 )"/><path fill="none" stroke="#787878" stroke-width="2" d="M 0.350000000000023 24.85 C 0.350000000000023 24.85 0.350000000000023 0.349999999999994 0.350000000000023 0.349999999999994 C 0.350000000000023 0.349999999999994 283.55 0.349999999999994 283.55 0.349999999999994 C 283.55 0.349999999999994 283.55 24.85 283.55 24.85 C 283.55 24.85 0.350000000000023 24.85 0.350000000000023 24.85 Z" mask="url(#clip2518)" transform="matrix(1 0 0 1 -883 -17162 ) matrix(1 0 0 1 883 17162 )"/></g></svg>