<?xml version="1.0" encoding="utf-8"?>
<svg version="1.1" xmlns:xlink="http://www.w3.org/1999/xlink" width="56px" height="59px" xmlns="http://www.w3.org/2000/svg">
  <defs>
    <mask fill="white" id="clip733">
      <path d="M 19.9300000000001 0.159999999999997  C 19.9300000000001 0.159999999999997  35.73 0.159999999999997  35.73 0.159999999999997  C 46.6300000000001 0.159999999999997  55.4300000000001 9.56  55.4300000000001 21.26  C 55.4300000000001 21.26  55.4300000000001 37.96  55.4300000000001 37.96  C 55.4300000000001 49.56  46.6300000000001 58.96  35.73 58.96  C 35.73 58.96  19.9300000000001 58.96  19.9300000000001 58.96  C 9.02999999999997 58.96  0.230000000000018 49.56  0.230000000000018 37.96  C 0.230000000000018 37.96  0.230000000000018 21.26  0.230000000000018 21.26  C 0.230000000000018 9.56  9.02999999999997 0.159999999999997  19.9300000000001 0.159999999999997  Z " fill-rule="evenodd" />
    </mask>
  </defs>
  <g transform="matrix(1 0 0 1 -1145 -12606 )">
    <path d="M 19.9300000000001 0.159999999999997  C 19.9300000000001 0.159999999999997  35.73 0.159999999999997  35.73 0.159999999999997  C 46.6300000000001 0.159999999999997  55.4300000000001 9.56  55.4300000000001 21.26  C 55.4300000000001 21.26  55.4300000000001 37.96  55.4300000000001 37.96  C 55.4300000000001 49.56  46.6300000000001 58.96  35.73 58.96  C 35.73 58.96  19.9300000000001 58.96  19.9300000000001 58.96  C 9.02999999999997 58.96  0.230000000000018 49.56  0.230000000000018 37.96  C 0.230000000000018 37.96  0.230000000000018 21.26  0.230000000000018 21.26  C 0.230000000000018 9.56  9.02999999999997 0.159999999999997  19.9300000000001 0.159999999999997  Z " fill-rule="nonzero" fill="#dcdcdd" stroke="none" fill-opacity="0.0784313725490196" transform="matrix(1 0 0 1 1145 12606 )" />
    <path d="M 19.9300000000001 0.159999999999997  C 19.9300000000001 0.159999999999997  35.73 0.159999999999997  35.73 0.159999999999997  C 46.6300000000001 0.159999999999997  55.4300000000001 9.56  55.4300000000001 21.26  C 55.4300000000001 21.26  55.4300000000001 37.96  55.4300000000001 37.96  C 55.4300000000001 49.56  46.6300000000001 58.96  35.73 58.96  C 35.73 58.96  19.9300000000001 58.96  19.9300000000001 58.96  C 9.02999999999997 58.96  0.230000000000018 49.56  0.230000000000018 37.96  C 0.230000000000018 37.96  0.230000000000018 21.26  0.230000000000018 21.26  C 0.230000000000018 9.56  9.02999999999997 0.159999999999997  19.9300000000001 0.159999999999997  Z " stroke-width="2" stroke="#dcdcdd" fill="none" stroke-opacity="0.0588235294117647" transform="matrix(1 0 0 1 1145 12606 )" mask="url(#clip733)" />
  </g>
</svg>