<?xml version="1.0" encoding="utf-8"?>
<svg version="1.1" xmlns:xlink="http://www.w3.org/1999/xlink" width="162px" height="127px" xmlns="http://www.w3.org/2000/svg">
  <defs>
    <linearGradient gradientUnits="userSpaceOnUse" x1="39.91" y1="227.7" x2="219.91" y2="310.7" id="LinearGradient1080">
      <stop id="Stop1081" stop-color="#ffffff" offset="0" />
      <stop id="Stop1082" stop-color="#e0e0e0" offset="0.2" />
      <stop id="Stop1083" stop-color="#7d7d7d" offset="0.85" />
      <stop id="Stop1084" stop-color="#7d7d7d" offset="1" />
    </linearGradient>
    <mask fill="white" id="clip1085">
      <path d="M 14.17 126.25  C 5.47000000000003 113.45  0.670000000000016 97.45  0.670000000000016 81.45  C 0.670000000000016 37.25  37.57 0.349999999999994  81.77 0.349999999999994  C 125.97 0.349999999999994  161.87 37.25  161.87 81.45  C 161.87 97.45  157.07 113.45  148.37 126.25  C 148.37 126.25  14.17 126.25  14.17 126.25  Z " fill-rule="evenodd" />
    </mask>
  </defs>
  <g transform="matrix(1 0 0 1 -354 -17159 )">
    <path d="M 14.17 126.25  C 5.47000000000003 113.45  0.670000000000016 97.45  0.670000000000016 81.45  C 0.670000000000016 37.25  37.57 0.349999999999994  81.77 0.349999999999994  C 125.97 0.349999999999994  161.87 37.25  161.87 81.45  C 161.87 97.45  157.07 113.45  148.37 126.25  C 148.37 126.25  14.17 126.25  14.17 126.25  Z " fill-rule="nonzero" fill="url(#LinearGradient1080)" stroke="none" transform="matrix(1 0 0 1 354 17159 )" />
    <path d="M 14.17 126.25  C 5.47000000000003 113.45  0.670000000000016 97.45  0.670000000000016 81.45  C 0.670000000000016 37.25  37.57 0.349999999999994  81.77 0.349999999999994  C 125.97 0.349999999999994  161.87 37.25  161.87 81.45  C 161.87 97.45  157.07 113.45  148.37 126.25  C 148.37 126.25  14.17 126.25  14.17 126.25  Z " stroke-width="2" stroke="#909090" fill="none" transform="matrix(1 0 0 1 354 17159 )" mask="url(#clip1085)" />
  </g>
</svg>