<svg xmlns="http://www.w3.org/2000/svg" xmlns:xlink="http://www.w3.org/1999/xlink" width="371" height="258" version="1.1"><defs><mask id="clip2552" fill="#fff"><path fill-rule="evenodd" d="M 12.0699999999999 257.51 C 12.0699999999999 257.51 358.77 257.51 358.77 257.51 C 365.07 257.51 370.07 252.41 370.07 246.21 C 370.07 246.21 370.07 12.01 370.07 12.01 C 370.07 5.80999999999999 365.07 0.709999999999994 358.77 0.709999999999994 C 358.77 0.709999999999994 12.0699999999999 0.709999999999994 12.0699999999999 0.709999999999994 C 5.87 0.709999999999994 0.769999999999982 5.80999999999999 0.769999999999982 12.01 C 0.769999999999982 12.01 0.769999999999982 246.21 0.769999999999982 246.21 C 0.769999999999982 252.41 5.87 257.51 12.0699999999999 257.51 Z"/></mask></defs><g><path fill="#fff" fill-opacity="0" fill-rule="nonzero" stroke="none" d="M 12.0699999999999 257.51 C 12.0699999999999 257.51 358.77 257.51 358.77 257.51 C 365.07 257.51 370.07 252.41 370.07 246.21 C 370.07 246.21 370.07 12.01 370.07 12.01 C 370.07 5.80999999999999 365.07 0.709999999999994 358.77 0.709999999999994 C 358.77 0.709999999999994 12.0699999999999 0.709999999999994 12.0699999999999 0.709999999999994 C 5.87 0.709999999999994 0.769999999999982 5.80999999999999 0.769999999999982 12.01 C 0.769999999999982 12.01 0.769999999999982 246.21 0.769999999999982 246.21 C 0.769999999999982 252.41 5.87 257.51 12.0699999999999 257.51 Z" transform="matrix(1 0 0 1 -812 -17063 ) matrix(1 0 0 1 812 17063 )"/><path fill="none" stroke="#cad4cc" stroke-width="2" d="M 12.0699999999999 257.51 C 12.0699999999999 257.51 358.77 257.51 358.77 257.51 C 365.07 257.51 370.07 252.41 370.07 246.21 C 370.07 246.21 370.07 12.01 370.07 12.01 C 370.07 5.80999999999999 365.07 0.709999999999994 358.77 0.709999999999994 C 358.77 0.709999999999994 12.0699999999999 0.709999999999994 12.0699999999999 0.709999999999994 C 5.87 0.709999999999994 0.769999999999982 5.80999999999999 0.769999999999982 12.01 C 0.769999999999982 12.01 0.769999999999982 246.21 0.769999999999982 246.21 C 0.769999999999982 252.41 5.87 257.51 12.0699999999999 257.51 Z" mask="url(#clip2552)" transform="matrix(1 0 0 1 -812 -17063 ) matrix(1 0 0 1 812 17063 )"/></g></svg>