<?xml version="1.0" encoding="utf-8"?>
<svg version="1.1" xmlns:xlink="http://www.w3.org/1999/xlink" width="140px" height="139px" xmlns="http://www.w3.org/2000/svg">
  <defs>
    <mask fill="white" id="clip403">
      <path d="M 111.8 2.32000000000005  C 111.8 2.32000000000005  139.1 3.51999999999998  139.1 3.51999999999998  C 130.6 68.22  82.9 121.72  21.5 138.72  C 21.5 138.72  0.100000000000023 60.62  0.100000000000023 60.62  C 28.8 52.62  51.1 29.3200000000001  57.5 0.0199999999999818  C 57.5 0.0199999999999818  86 1.22000000000003  86 1.22000000000003  C 86 1.22000000000003  96 14.8200000000001  96 14.8200000000001  C 96 14.8200000000001  111.8 2.32000000000005  111.8 2.32000000000005  Z " fill-rule="evenodd" />
    </mask>
  </defs>
  <g transform="matrix(1 0 0 1 -350 -7154 )">
    <path d="M 111.8 2.32000000000005  C 111.8 2.32000000000005  139.1 3.51999999999998  139.1 3.51999999999998  C 130.6 68.22  82.9 121.72  21.5 138.72  C 21.5 138.72  0.100000000000023 60.62  0.100000000000023 60.62  C 28.8 52.62  51.1 29.3200000000001  57.5 0.0199999999999818  C 57.5 0.0199999999999818  86 1.22000000000003  86 1.22000000000003  C 86 1.22000000000003  96 14.8200000000001  96 14.8200000000001  C 96 14.8200000000001  111.8 2.32000000000005  111.8 2.32000000000005  Z " fill-rule="nonzero" fill="#445771" stroke="none" transform="matrix(1 0 0 1 350 7154 )" />
    <path d="M 111.8 2.32000000000005  C 111.8 2.32000000000005  139.1 3.51999999999998  139.1 3.51999999999998  C 130.6 68.22  82.9 121.72  21.5 138.72  C 21.5 138.72  0.100000000000023 60.62  0.100000000000023 60.62  C 28.8 52.62  51.1 29.3200000000001  57.5 0.0199999999999818  C 57.5 0.0199999999999818  86 1.22000000000003  86 1.22000000000003  C 86 1.22000000000003  96 14.8200000000001  96 14.8200000000001  C 96 14.8200000000001  111.8 2.32000000000005  111.8 2.32000000000005  Z " stroke-width="2" stroke="#445771" fill="none" transform="matrix(1 0 0 1 350 7154 )" mask="url(#clip403)" />
  </g>
</svg>