<?xml version="1.0" encoding="utf-8"?>
<svg version="1.1" xmlns:xlink="http://www.w3.org/1999/xlink" width="437px" height="34px" xmlns="http://www.w3.org/2000/svg">
  <defs>
    <mask fill="white" id="clip1513">
      <path d="M 0.759999999999991 33.8800000000001  C 0.759999999999991 33.8800000000001  0.759999999999991 0.580000000000041  0.759999999999991 0.580000000000041  C 0.759999999999991 0.580000000000041  436.46 0.580000000000041  436.46 0.580000000000041  C 436.46 0.580000000000041  436.46 33.8800000000001  436.46 33.8800000000001  C 436.46 33.8800000000001  0.759999999999991 33.8800000000001  0.759999999999991 33.8800000000001  Z " fill-rule="evenodd" />
    </mask>
  </defs>
  <g transform="matrix(1 0 0 1 -219 -1668 )">
    <path d="M 0.759999999999991 33.8800000000001  C 0.759999999999991 33.8800000000001  0.759999999999991 0.580000000000041  0.759999999999991 0.580000000000041  C 0.759999999999991 0.580000000000041  436.46 0.580000000000041  436.46 0.580000000000041  C 436.46 0.580000000000041  436.46 33.8800000000001  436.46 33.8800000000001  C 436.46 33.8800000000001  0.759999999999991 33.8800000000001  0.759999999999991 33.8800000000001  Z " fill-rule="nonzero" fill="#fafafa" stroke="none" transform="matrix(1 0 0 1 219 1668 )" />
    <path d="M 0.759999999999991 33.8800000000001  C 0.759999999999991 33.8800000000001  0.759999999999991 0.580000000000041  0.759999999999991 0.580000000000041  C 0.759999999999991 0.580000000000041  436.46 0.580000000000041  436.46 0.580000000000041  C 436.46 0.580000000000041  436.46 33.8800000000001  436.46 33.8800000000001  C 436.46 33.8800000000001  0.759999999999991 33.8800000000001  0.759999999999991 33.8800000000001  Z " stroke-width="2" stroke="#c0c0c0" fill="none" transform="matrix(1 0 0 1 219 1668 )" mask="url(#clip1513)" />
  </g>
</svg>