<svg xmlns="http://www.w3.org/2000/svg" xmlns:xlink="http://www.w3.org/1999/xlink" width="23" height="25" version="1.1"><defs><mask id="clip2289" fill="#fff"><path fill-rule="evenodd" d="M 0.220000000000027 24.28 C 0.220000000000027 24.28 0.220000000000027 0.580000000000041 0.220000000000027 0.580000000000041 C 0.220000000000027 0.580000000000041 22.52 0.580000000000041 22.52 0.580000000000041 C 22.52 0.580000000000041 22.52 24.28 22.52 24.28 C 22.52 24.28 0.220000000000027 24.28 0.220000000000027 24.28 Z"/></mask></defs><g><path fill="#b2591a" fill-rule="nonzero" stroke="none" d="M 0.220000000000027 24.28 C 0.220000000000027 24.28 0.220000000000027 0.580000000000041 0.220000000000027 0.580000000000041 C 0.220000000000027 0.580000000000041 22.52 0.580000000000041 22.52 0.580000000000041 C 22.52 0.580000000000041 22.52 24.28 22.52 24.28 C 22.52 24.28 0.220000000000027 24.28 0.220000000000027 24.28 Z" transform="matrix(1 0 0 1 -571 -14522 ) matrix(1 0 0 1 571 14522 )"/><path fill="none" stroke="#b2591a" stroke-width="2" d="M 0.220000000000027 24.28 C 0.220000000000027 24.28 0.220000000000027 0.580000000000041 0.220000000000027 0.580000000000041 C 0.220000000000027 0.580000000000041 22.52 0.580000000000041 22.52 0.580000000000041 C 22.52 0.580000000000041 22.52 24.28 22.52 24.28 C 22.52 24.28 0.220000000000027 24.28 0.220000000000027 24.28 Z" mask="url(#clip2289)" transform="matrix(1 0 0 1 -571 -14522 ) matrix(1 0 0 1 571 14522 )"/></g></svg>