<svg xmlns="http://www.w3.org/2000/svg" xmlns:xlink="http://www.w3.org/1999/xlink" width="71" height="72" version="1.1"><defs><mask id="clip1810" fill="#fff"><path fill-rule="evenodd" d="M 36.6999999999999 71.62 C 17.6999999999999 71.62 0.299999999999955 56.2199999999999 0.299999999999955 37.3199999999999 C 0.299999999999955 18.3199999999999 17.6999999999999 0.919999999999959 36.6999999999999 0.919999999999959 C 55.5999999999999 0.919999999999959 71 18.3199999999999 71 37.3199999999999 C 71 56.2199999999999 55.5999999999999 71.62 36.6999999999999 71.62 Z"/></mask></defs><g><path fill="#fff" fill-rule="nonzero" stroke="none" d="M 36.6999999999999 71.62 C 17.6999999999999 71.62 0.299999999999955 56.2199999999999 0.299999999999955 37.3199999999999 C 0.299999999999955 18.3199999999999 17.6999999999999 0.919999999999959 36.6999999999999 0.919999999999959 C 55.5999999999999 0.919999999999959 71 18.3199999999999 71 37.3199999999999 C 71 56.2199999999999 55.5999999999999 71.62 36.6999999999999 71.62 Z" transform="matrix(1 0 0 1 -855 -7384 ) matrix(1 0 0 1 855 7384 )"/><path fill="none" stroke="#ffcd55" stroke-width="4" d="M 36.6999999999999 71.62 C 17.6999999999999 71.62 0.299999999999955 56.2199999999999 0.299999999999955 37.3199999999999 C 0.299999999999955 18.3199999999999 17.6999999999999 0.919999999999959 36.6999999999999 0.919999999999959 C 55.5999999999999 0.919999999999959 71 18.3199999999999 71 37.3199999999999 C 71 56.2199999999999 55.5999999999999 71.62 36.6999999999999 71.62 Z" mask="url(#clip1810)" transform="matrix(1 0 0 1 -855 -7384 ) matrix(1 0 0 1 855 7384 )"/></g></svg>