<?xml version="1.0" encoding="utf-8"?>
<svg version="1.1" xmlns:xlink="http://www.w3.org/1999/xlink" width="7px" height="34px" xmlns="http://www.w3.org/2000/svg">
  <defs>
    <mask fill="white" id="clip1757">
      <path d="M 0.909999999999968 32.34  C 0.909999999999968 32.34  0.909999999999968 0.139999999999986  0.909999999999968 0.139999999999986  C 0.909999999999968 0.139999999999986  6.30999999999995 0.139999999999986  6.30999999999995 0.139999999999986  C 6.30999999999995 0.139999999999986  6.30999999999995 32.34  6.30999999999995 32.34  C 6.30999999999995 32.34  6.30999999999995 33.44  4.11000000000001 33.44  C 1.90999999999997 33.44  0.909999999999968 32.34  0.909999999999968 32.34  Z " fill-rule="evenodd" />
    </mask>
  </defs>
  <g transform="matrix(1 0 0 1 -921 -7006 )">
    <path d="M 0.909999999999968 32.34  C 0.909999999999968 32.34  0.909999999999968 0.139999999999986  0.909999999999968 0.139999999999986  C 0.909999999999968 0.139999999999986  6.30999999999995 0.139999999999986  6.30999999999995 0.139999999999986  C 6.30999999999995 0.139999999999986  6.30999999999995 32.34  6.30999999999995 32.34  C 6.30999999999995 32.34  6.30999999999995 33.44  4.11000000000001 33.44  C 1.90999999999997 33.44  0.909999999999968 32.34  0.909999999999968 32.34  Z " fill-rule="nonzero" fill="#00ae9d" stroke="none" transform="matrix(1 0 0 1 921 7006 )" />
    <path d="M 0.909999999999968 32.34  C 0.909999999999968 32.34  0.909999999999968 0.139999999999986  0.909999999999968 0.139999999999986  C 0.909999999999968 0.139999999999986  6.30999999999995 0.139999999999986  6.30999999999995 0.139999999999986  C 6.30999999999995 0.139999999999986  6.30999999999995 32.34  6.30999999999995 32.34  C 6.30999999999995 32.34  6.30999999999995 33.44  4.11000000000001 33.44  C 1.90999999999997 33.44  0.909999999999968 32.34  0.909999999999968 32.34  Z " stroke-width="2" stroke="#00ae9d" fill="none" transform="matrix(1 0 0 1 921 7006 )" mask="url(#clip1757)" />
  </g>
</svg>