<?xml version="1.0" encoding="utf-8"?>
<svg version="1.1" xmlns:xlink="http://www.w3.org/1999/xlink" width="1124px" height="75px" xmlns="http://www.w3.org/2000/svg">
  <defs>
    <mask fill="white" id="clip213">
      <path d="M 0.5 74.3  C 0.5 74.3  0.5 0.5  0.5 0.5  C 0.5 0.5  1124 0.5  1124 0.5  C 1124 0.5  1124 74.3  1124 74.3  C 1124 74.3  0.5 74.3  0.5 74.3  Z " fill-rule="evenodd" />
    </mask>
  </defs>
  <g transform="matrix(1 0 0 1 -89 -4933 )">
    <path d="M 0.5 74.3  C 0.5 74.3  0.5 0.5  0.5 0.5  C 0.5 0.5  1124 0.5  1124 0.5  C 1124 0.5  1124 74.3  1124 74.3  C 1124 74.3  0.5 74.3  0.5 74.3  Z " fill-rule="nonzero" fill="#8bc0d3" stroke="none" transform="matrix(1 0 0 1 89 4933 )" />
    <path d="M 0.5 74.3  C 0.5 74.3  0.5 0.5  0.5 0.5  C 0.5 0.5  1124 0.5  1124 0.5  C 1124 0.5  1124 74.3  1124 74.3  C 1124 74.3  0.5 74.3  0.5 74.3  Z " stroke-width="2" stroke="#8bc0d3" fill="none" transform="matrix(1 0 0 1 89 4933 )" mask="url(#clip213)" />
  </g>
</svg>