<svg xmlns="http://www.w3.org/2000/svg" xmlns:xlink="http://www.w3.org/1999/xlink" width="577" height="32" version="1.1"><defs><mask id="clip1795" fill="#fff"><path fill-rule="evenodd" d="M 0.899999999999977 31.65 C 0.899999999999977 31.65 0.899999999999977 0.25 0.899999999999977 0.25 C 0.899999999999977 0.25 577 0.25 577 0.25 C 577 0.25 577 31.65 577 31.65 C 577 31.65 0.899999999999977 31.65 0.899999999999977 31.65 Z"/></mask></defs><g><path fill="#595757" fill-rule="nonzero" stroke="none" d="M 0.899999999999977 31.65 C 0.899999999999977 31.65 0.899999999999977 0.25 0.899999999999977 0.25 C 0.899999999999977 0.25 577 0.25 577 0.25 C 577 0.25 577 31.65 577 31.65 C 577 31.65 0.899999999999977 31.65 0.899999999999977 31.65 Z" transform="matrix(1 0 0 1 -516 -6074 ) matrix(1 0 0 1 516 6074 )"/><path fill="none" stroke="#595757" stroke-width="2" d="M 0.899999999999977 31.65 C 0.899999999999977 31.65 0.899999999999977 0.25 0.899999999999977 0.25 C 0.899999999999977 0.25 577 0.25 577 0.25 C 577 0.25 577 31.65 577 31.65 C 577 31.65 0.899999999999977 31.65 0.899999999999977 31.65 Z" mask="url(#clip1795)" transform="matrix(1 0 0 1 -516 -6074 ) matrix(1 0 0 1 516 6074 )"/></g></svg>