<?xml version="1.0" encoding="utf-8"?>
<svg version="1.1" xmlns:xlink="http://www.w3.org/1999/xlink" width="319px" height="272px" xmlns="http://www.w3.org/2000/svg">
  <defs>
    <mask fill="white" id="clip706">
      <path d="M 11.91 271.09  C 11.91 271.09  306.81 271.09  306.81 271.09  C 313.11 271.09  318.11 265.99  318.11 259.79  C 318.11 259.79  318.11 12.29  318.11 12.29  C 318.11 6.09  313.11 0.990000000000009  306.81 0.990000000000009  C 306.81 0.990000000000009  11.91 0.990000000000009  11.91 0.990000000000009  C 5.71000000000004 0.990000000000009  0.610000000000014 6.09  0.610000000000014 12.29  C 0.610000000000014 12.29  0.610000000000014 259.79  0.610000000000014 259.79  C 0.610000000000014 265.99  5.71000000000004 271.09  11.91 271.09  Z " fill-rule="evenodd" />
    </mask>
  </defs>
  <g transform="matrix(1 0 0 1 -866 -14415 )">
    <path d="M 11.91 271.09  C 11.91 271.09  306.81 271.09  306.81 271.09  C 313.11 271.09  318.11 265.99  318.11 259.79  C 318.11 259.79  318.11 12.29  318.11 12.29  C 318.11 6.09  313.11 0.990000000000009  306.81 0.990000000000009  C 306.81 0.990000000000009  11.91 0.990000000000009  11.91 0.990000000000009  C 5.71000000000004 0.990000000000009  0.610000000000014 6.09  0.610000000000014 12.29  C 0.610000000000014 12.29  0.610000000000014 259.79  0.610000000000014 259.79  C 0.610000000000014 265.99  5.71000000000004 271.09  11.91 271.09  Z " fill-rule="nonzero" fill="#f0f0f0" stroke="none" transform="matrix(1 0 0 1 866 14415 )" />
    <path d="M 11.91 271.09  C 11.91 271.09  306.81 271.09  306.81 271.09  C 313.11 271.09  318.11 265.99  318.11 259.79  C 318.11 259.79  318.11 12.29  318.11 12.29  C 318.11 6.09  313.11 0.990000000000009  306.81 0.990000000000009  C 306.81 0.990000000000009  11.91 0.990000000000009  11.91 0.990000000000009  C 5.71000000000004 0.990000000000009  0.610000000000014 6.09  0.610000000000014 12.29  C 0.610000000000014 12.29  0.610000000000014 259.79  0.610000000000014 259.79  C 0.610000000000014 265.99  5.71000000000004 271.09  11.91 271.09  Z " stroke-width="2" stroke="#eeeeee" fill="none" transform="matrix(1 0 0 1 866 14415 )" mask="url(#clip706)" />
  </g>
</svg>