<?xml version="1.0" encoding="utf-8"?>
<svg version="1.1" xmlns:xlink="http://www.w3.org/1999/xlink" width="18px" height="18px" xmlns="http://www.w3.org/2000/svg">
  <defs>
    <mask fill="white" id="clip254">
      <path d="M 9.20799999999997 17.278  C 9.20799999999997 17.278  0.829999999999984 8.90000000000001  0.829999999999984 8.90000000000001  C 0.829999999999984 8.90000000000001  9.20799999999997 0.522000000000006  9.20799999999997 0.522000000000006  C 9.20799999999997 0.522000000000006  17.586 8.90000000000001  17.586 8.90000000000001  C 17.586 8.90000000000001  9.20799999999997 17.278  9.20799999999997 17.278  Z " fill-rule="evenodd" />
    </mask>
  </defs>
  <g transform="matrix(1 0 0 1 -399 -4171 )">
    <path d="M 9.20799999999997 17.278  C 9.20799999999997 17.278  0.829999999999984 8.90000000000001  0.829999999999984 8.90000000000001  C 0.829999999999984 8.90000000000001  9.20799999999997 0.522000000000006  9.20799999999997 0.522000000000006  C 9.20799999999997 0.522000000000006  17.586 8.90000000000001  17.586 8.90000000000001  C 17.586 8.90000000000001  9.20799999999997 17.278  9.20799999999997 17.278  Z " fill-rule="nonzero" fill="#33b2c3" stroke="none" transform="matrix(1 0 0 1 399 4171 )" />
    <path d="M 9.20799999999997 17.278  C 9.20799999999997 17.278  0.829999999999984 8.90000000000001  0.829999999999984 8.90000000000001  C 0.829999999999984 8.90000000000001  9.20799999999997 0.522000000000006  9.20799999999997 0.522000000000006  C 9.20799999999997 0.522000000000006  17.586 8.90000000000001  17.586 8.90000000000001  C 17.586 8.90000000000001  9.20799999999997 17.278  9.20799999999997 17.278  Z " stroke-width="2.00818325856979" stroke="#ffffff" fill="none" transform="matrix(1 0 0 1 399 4171 )" mask="url(#clip254)" />
  </g>
</svg>