<?xml version="1.0" encoding="utf-8"?>
<svg version="1.1" xmlns:xlink="http://www.w3.org/1999/xlink" width="11px" height="31px" xmlns="http://www.w3.org/2000/svg">
  <defs>
    <mask fill="white" id="clip1191">
      <path d="M 0.05499999999995 30.015  C 0.05499999999995 30.015  0.05499999999995 0.264999999999986  0.05499999999995 0.264999999999986  C 0.05499999999995 0.264999999999986  10.905 0.264999999999986  10.905 0.264999999999986  C 10.905 0.264999999999986  10.905 30.015  10.905 30.015  C 10.905 30.015  0.05499999999995 30.015  0.05499999999995 30.015  Z " fill-rule="evenodd" />
    </mask>
  </defs>
  <g transform="matrix(1 0 0 1 -703 -19257 )">
    <path d="M 0.05499999999995 30.015  C 0.05499999999995 30.015  0.05499999999995 0.264999999999986  0.05499999999995 0.264999999999986  C 0.05499999999995 0.264999999999986  10.905 0.264999999999986  10.905 0.264999999999986  C 10.905 0.264999999999986  10.905 30.015  10.905 30.015  C 10.905 30.015  0.05499999999995 30.015  0.05499999999995 30.015  Z " fill-rule="nonzero" fill="#fb9d53" stroke="none" transform="matrix(1 0 0 1 703 19257 )" />
    <path d="M 0.05499999999995 30.015  C 0.05499999999995 30.015  0.05499999999995 0.264999999999986  0.05499999999995 0.264999999999986  C 0.05499999999995 0.264999999999986  10.905 0.264999999999986  10.905 0.264999999999986  C 10.905 0.264999999999986  10.905 30.015  10.905 30.015  C 10.905 30.015  0.05499999999995 30.015  0.05499999999995 30.015  Z " stroke-width="0.5" stroke="#fb9d53" fill="none" transform="matrix(1 0 0 1 703 19257 )" mask="url(#clip1191)" />
  </g>
</svg>