<?xml version="1.0" encoding="utf-8"?>
<svg version="1.1" xmlns:xlink="http://www.w3.org/1999/xlink" width="4px" height="5px" xmlns="http://www.w3.org/2000/svg">
  <defs>
    <mask fill="white" id="clip322">
      <path d="M 1.19000000000005 4.48999999999998  C 0.690000000000055 4.48999999999998  0.190000000000055 3.88999999999999  0.190000000000055 3.19  C 0.190000000000055 2.48999999999998  0.690000000000055 0.889999999999986  1.19000000000005 0.889999999999986  C 1.79000000000008 0.889999999999986  3.29000000000008 2.48999999999998  3.29000000000008 3.19  C 3.29000000000008 3.88999999999999  1.79000000000008 4.48999999999998  1.19000000000005 4.48999999999998  Z " fill-rule="evenodd" />
    </mask>
  </defs>
  <g transform="matrix(1 0 0 1 -470 -6896 )">
    <path d="M 1.19000000000005 4.48999999999998  C 0.690000000000055 4.48999999999998  0.190000000000055 3.88999999999999  0.190000000000055 3.19  C 0.190000000000055 2.48999999999998  0.690000000000055 0.889999999999986  1.19000000000005 0.889999999999986  C 1.79000000000008 0.889999999999986  3.29000000000008 2.48999999999998  3.29000000000008 3.19  C 3.29000000000008 3.88999999999999  1.79000000000008 4.48999999999998  1.19000000000005 4.48999999999998  Z " fill-rule="nonzero" fill="#3e3938" stroke="none" transform="matrix(1 0 0 1 470 6896 )" />
    <path d="M 1.19000000000005 4.48999999999998  C 0.690000000000055 4.48999999999998  0.190000000000055 3.88999999999999  0.190000000000055 3.19  C 0.190000000000055 2.48999999999998  0.690000000000055 0.889999999999986  1.19000000000005 0.889999999999986  C 1.79000000000008 0.889999999999986  3.29000000000008 2.48999999999998  3.29000000000008 3.19  C 3.29000000000008 3.88999999999999  1.79000000000008 4.48999999999998  1.19000000000005 4.48999999999998  Z " stroke-width="2" stroke="#3e3938" fill="none" transform="matrix(1 0 0 1 470 6896 )" mask="url(#clip322)" />
  </g>
</svg>