<svg xmlns="http://www.w3.org/2000/svg" xmlns:xlink="http://www.w3.org/1999/xlink" width="198" height="198" version="1.1"><g><path fill="#eee" fill-rule="nonzero" stroke="none" d="M 98.8599999999999 192.73 L 98.8599999999999 197.73 C 44.3599999999999 197.73 0.0599999999999454 153.43 0.0599999999999454 98.83 C 0.0599999999999454 44.33 44.3599999999999 0.0299999999999727 98.8599999999999 0.0299999999999727 C 153.46 0.0299999999999727 197.76 44.33 197.76 98.83 C 197.76 153.43 153.46 197.73 98.8599999999999 197.73 L 98.8599999999999 192.73 C 150.76 192.73 192.76 150.73 192.76 98.83 C 192.76 47.03 150.76 5.02999999999997 98.8599999999999 5.02999999999997 C 47.0599999999999 5.02999999999997 5.05999999999995 47.03 5.05999999999995 98.83 C 5.05999999999995 150.73 47.0599999999999 192.73 98.8599999999999 192.73 Z" transform="matrix(1 0 0 1 -950 -7128 ) matrix(1 0 0 1 950 7128 )"/></g></svg>