<?xml version="1.0" encoding="utf-8"?>
<svg version="1.1" xmlns:xlink="http://www.w3.org/1999/xlink" width="4px" height="5px" xmlns="http://www.w3.org/2000/svg">
  <defs>
    <mask fill="white" id="clip538">
      <path d="M 1.40000000000001 4.48999999999998  C 0.900000000000006 4.48999999999998  0.400000000000006 3.88999999999999  0.400000000000006 3.19  C 0.400000000000006 2.48999999999998  0.900000000000006 0.889999999999986  1.40000000000001 0.889999999999986  C 2 0.889999999999986  3.5 2.48999999999998  3.5 3.19  C 3.5 3.88999999999999  2 4.48999999999998  1.40000000000001 4.48999999999998  Z " fill-rule="evenodd" />
    </mask>
  </defs>
  <g transform="matrix(1 0 0 1 -157 -6896 )">
    <path d="M 1.40000000000001 4.48999999999998  C 0.900000000000006 4.48999999999998  0.400000000000006 3.88999999999999  0.400000000000006 3.19  C 0.400000000000006 2.48999999999998  0.900000000000006 0.889999999999986  1.40000000000001 0.889999999999986  C 2 0.889999999999986  3.5 2.48999999999998  3.5 3.19  C 3.5 3.88999999999999  2 4.48999999999998  1.40000000000001 4.48999999999998  Z " fill-rule="nonzero" fill="#3e3938" stroke="none" transform="matrix(1 0 0 1 157 6896 )" />
    <path d="M 1.40000000000001 4.48999999999998  C 0.900000000000006 4.48999999999998  0.400000000000006 3.88999999999999  0.400000000000006 3.19  C 0.400000000000006 2.48999999999998  0.900000000000006 0.889999999999986  1.40000000000001 0.889999999999986  C 2 0.889999999999986  3.5 2.48999999999998  3.5 3.19  C 3.5 3.88999999999999  2 4.48999999999998  1.40000000000001 4.48999999999998  Z " stroke-width="2" stroke="#3e3938" fill="none" transform="matrix(1 0 0 1 157 6896 )" mask="url(#clip538)" />
  </g>
</svg>