<svg xmlns="http://www.w3.org/2000/svg" xmlns:xlink="http://www.w3.org/1999/xlink" width="2" height="226" version="1.1"><defs><mask id="clip2653" fill="#fff"><path fill-rule="evenodd" d="M 0.735000000000014 225.715 C 0.735000000000014 225.715 0.735000000000014 0.264999999999986 0.735000000000014 0.264999999999986 C 0.735000000000014 0.264999999999986 1.98500000000001 0.264999999999986 1.98500000000001 0.264999999999986 C 1.98500000000001 0.264999999999986 1.98500000000001 225.715 1.98500000000001 225.715 C 1.98500000000001 225.715 0.735000000000014 225.715 0.735000000000014 225.715 Z"/></mask></defs><g><path fill="#33b2c3" fill-rule="nonzero" stroke="none" d="M 0.735000000000014 225.715 C 0.735000000000014 225.715 0.735000000000014 0.264999999999986 0.735000000000014 0.264999999999986 C 0.735000000000014 0.264999999999986 1.98500000000001 0.264999999999986 1.98500000000001 0.264999999999986 C 1.98500000000001 0.264999999999986 1.98500000000001 225.715 1.98500000000001 225.715 C 1.98500000000001 225.715 0.735000000000014 225.715 0.735000000000014 225.715 Z" transform="matrix(1 0 0 1 -394 -19257 ) matrix(1 0 0 1 394 19257 )"/><path fill="none" stroke="#33b2c3" stroke-width=".5" d="M 0.735000000000014 225.715 C 0.735000000000014 225.715 0.735000000000014 0.264999999999986 0.735000000000014 0.264999999999986 C 0.735000000000014 0.264999999999986 1.98500000000001 0.264999999999986 1.98500000000001 0.264999999999986 C 1.98500000000001 0.264999999999986 1.98500000000001 225.715 1.98500000000001 225.715 C 1.98500000000001 225.715 0.735000000000014 225.715 0.735000000000014 225.715 Z" mask="url(#clip2653)" transform="matrix(1 0 0 1 -394 -19257 ) matrix(1 0 0 1 394 19257 )"/></g></svg>