<?xml version="1.0" encoding="utf-8"?>
<svg version="1.1" xmlns:xlink="http://www.w3.org/1999/xlink" width="154px" height="4px" xmlns="http://www.w3.org/2000/svg">
  <defs>
    <mask fill="white" id="clip284">
      <path d="M 0.0900000000000318 3.02  C 0.0900000000000318 3.02  0.0900000000000318 0.519999999999996  0.0900000000000318 0.519999999999996  C 0.0900000000000318 0.519999999999996  153.89 0.519999999999996  153.89 0.519999999999996  C 153.89 0.519999999999996  153.89 3.02  153.89 3.02  C 153.89 3.02  0.0900000000000318 3.02  0.0900000000000318 3.02  Z " fill-rule="evenodd" />
    </mask>
  </defs>
  <g transform="matrix(1 0 0 1 -650 -561 )">
    <path d="M 0.0900000000000318 3.02  C 0.0900000000000318 3.02  0.0900000000000318 0.519999999999996  0.0900000000000318 0.519999999999996  C 0.0900000000000318 0.519999999999996  153.89 0.519999999999996  153.89 0.519999999999996  C 153.89 0.519999999999996  153.89 3.02  153.89 3.02  C 153.89 3.02  0.0900000000000318 3.02  0.0900000000000318 3.02  Z " fill-rule="nonzero" fill="#302f34" stroke="none" transform="matrix(1 0 0 1 650 561 )" />
    <path d="M 0.0900000000000318 3.02  C 0.0900000000000318 3.02  0.0900000000000318 0.519999999999996  0.0900000000000318 0.519999999999996  C 0.0900000000000318 0.519999999999996  153.89 0.519999999999996  153.89 0.519999999999996  C 153.89 0.519999999999996  153.89 3.02  153.89 3.02  C 153.89 3.02  0.0900000000000318 3.02  0.0900000000000318 3.02  Z " stroke-width="2" stroke="#302f34" fill="none" transform="matrix(1 0 0 1 650 561 )" mask="url(#clip284)" />
  </g>
</svg>