<?xml version="1.0" encoding="utf-8"?>
<svg version="1.1" xmlns:xlink="http://www.w3.org/1999/xlink" width="56px" height="60px" xmlns="http://www.w3.org/2000/svg">
  <defs>
    <mask fill="white" id="clip1911">
      <path d="M 36.15 0.379999999999995  C 36.15 0.379999999999995  20.35 0.379999999999995  20.35 0.379999999999995  C 9.45 0.379999999999995  0.650000000000006 9.78  0.650000000000006 21.48  C 0.650000000000006 21.48  0.650000000000006 38.18  0.650000000000006 38.18  C 0.650000000000006 49.78  9.45 59.18  20.35 59.18  C 20.35 59.18  36.15 59.18  36.15 59.18  C 47.05 59.18  55.85 49.78  55.85 38.18  C 55.85 38.18  55.85 21.48  55.85 21.48  C 55.85 9.78  47.05 0.379999999999995  36.15 0.379999999999995  Z " fill-rule="evenodd" />
    </mask>
  </defs>
  <g transform="matrix(1 0 0 1 -162 -12473 )">
    <path d="M 36.15 0.379999999999995  C 36.15 0.379999999999995  20.35 0.379999999999995  20.35 0.379999999999995  C 9.45 0.379999999999995  0.650000000000006 9.78  0.650000000000006 21.48  C 0.650000000000006 21.48  0.650000000000006 38.18  0.650000000000006 38.18  C 0.650000000000006 49.78  9.45 59.18  20.35 59.18  C 20.35 59.18  36.15 59.18  36.15 59.18  C 47.05 59.18  55.85 49.78  55.85 38.18  C 55.85 38.18  55.85 21.48  55.85 21.48  C 55.85 9.78  47.05 0.379999999999995  36.15 0.379999999999995  Z " fill-rule="nonzero" fill="#cdcece" stroke="none" fill-opacity="0.0784313725490196" transform="matrix(1 0 0 1 162 12473 )" />
    <path d="M 36.15 0.379999999999995  C 36.15 0.379999999999995  20.35 0.379999999999995  20.35 0.379999999999995  C 9.45 0.379999999999995  0.650000000000006 9.78  0.650000000000006 21.48  C 0.650000000000006 21.48  0.650000000000006 38.18  0.650000000000006 38.18  C 0.650000000000006 49.78  9.45 59.18  20.35 59.18  C 20.35 59.18  36.15 59.18  36.15 59.18  C 47.05 59.18  55.85 49.78  55.85 38.18  C 55.85 38.18  55.85 21.48  55.85 21.48  C 55.85 9.78  47.05 0.379999999999995  36.15 0.379999999999995  Z " stroke-width="2" stroke="#cdcece" fill="none" stroke-opacity="0.0588235294117647" transform="matrix(1 0 0 1 162 12473 )" mask="url(#clip1911)" />
  </g>
</svg>