<svg xmlns="http://www.w3.org/2000/svg" xmlns:xlink="http://www.w3.org/1999/xlink" width="22" height="24" version="1.1"><defs><mask id="clip2282" fill="#fff"><path fill-rule="evenodd" d="M 0.780000000000001 23.21 C 0.780000000000001 23.21 0.780000000000001 0.20999999999998 0.780000000000001 0.20999999999998 C 0.780000000000001 0.20999999999998 21.48 0.20999999999998 21.48 0.20999999999998 C 21.48 0.20999999999998 21.48 23.21 21.48 23.21 C 21.48 23.21 0.780000000000001 23.21 0.780000000000001 23.21 Z"/></mask></defs><g><path fill="#add8e6" fill-rule="nonzero" stroke="none" d="M 0.780000000000001 23.21 C 0.780000000000001 23.21 0.780000000000001 0.20999999999998 0.780000000000001 0.20999999999998 C 0.780000000000001 0.20999999999998 21.48 0.20999999999998 21.48 0.20999999999998 C 21.48 0.20999999999998 21.48 23.21 21.48 23.21 C 21.48 23.21 0.780000000000001 23.21 0.780000000000001 23.21 Z" transform="matrix(1 0 0 1 -158 -14479 ) matrix(1 0 0 1 158 14479 )"/><path fill="none" stroke="#6fbbd3" stroke-width="2" d="M 0.780000000000001 23.21 C 0.780000000000001 23.21 0.780000000000001 0.20999999999998 0.780000000000001 0.20999999999998 C 0.780000000000001 0.20999999999998 21.48 0.20999999999998 21.48 0.20999999999998 C 21.48 0.20999999999998 21.48 23.21 21.48 23.21 C 21.48 23.21 0.780000000000001 23.21 0.780000000000001 23.21 Z" mask="url(#clip2282)" transform="matrix(1 0 0 1 -158 -14479 ) matrix(1 0 0 1 158 14479 )"/></g></svg>