<svg xmlns="http://www.w3.org/2000/svg" xmlns:xlink="http://www.w3.org/1999/xlink" width="235" height="33" version="1.1"><defs><mask id="clip1799" fill="#fff"><path fill-rule="evenodd" d="M 0.899999999999977 32.28 C 0.899999999999977 32.28 0.899999999999977 0.879999999999995 0.899999999999977 0.879999999999995 C 0.899999999999977 0.879999999999995 234.8 0.879999999999995 234.8 0.879999999999995 C 234.8 0.879999999999995 234.8 32.28 234.8 32.28 C 234.8 32.28 0.899999999999977 32.28 0.899999999999977 32.28 Z"/></mask></defs><g><path fill="#eb6d71" fill-rule="nonzero" stroke="none" d="M 0.899999999999977 32.28 C 0.899999999999977 32.28 0.899999999999977 0.879999999999995 0.899999999999977 0.879999999999995 C 0.899999999999977 0.879999999999995 234.8 0.879999999999995 234.8 0.879999999999995 C 234.8 0.879999999999995 234.8 32.28 234.8 32.28 C 234.8 32.28 0.899999999999977 32.28 0.899999999999977 32.28 Z" transform="matrix(1 0 0 1 -516 -6319 ) matrix(1 0 0 1 516 6319 )"/><path fill="none" stroke="#eb6d71" stroke-width="2" d="M 0.899999999999977 32.28 C 0.899999999999977 32.28 0.899999999999977 0.879999999999995 0.899999999999977 0.879999999999995 C 0.899999999999977 0.879999999999995 234.8 0.879999999999995 234.8 0.879999999999995 C 234.8 0.879999999999995 234.8 32.28 234.8 32.28 C 234.8 32.28 0.899999999999977 32.28 0.899999999999977 32.28 Z" mask="url(#clip1799)" transform="matrix(1 0 0 1 -516 -6319 ) matrix(1 0 0 1 516 6319 )"/></g></svg>