<?xml version="1.0" encoding="utf-8"?>
<svg version="1.1" xmlns:xlink="http://www.w3.org/1999/xlink" width="122px" height="122px" xmlns="http://www.w3.org/2000/svg">
  <defs>
    <mask fill="white" id="clip1142">
      <path d="M 60.49 121.32  C 27.39 121.32  0.489999999999995 93.42  0.489999999999995 60.22  C 0.489999999999995 27.12  27.39 0.219999999999999  60.49 0.219999999999999  C 93.69 0.219999999999999  121.59 27.12  121.59 60.22  C 121.59 93.42  93.69 121.32  60.49 121.32  Z " fill-rule="evenodd" />
    </mask>
  </defs>
  <g transform="matrix(1 0 0 1 -211 -18990 )">
    <path d="M 60.49 121.32  C 27.39 121.32  0.489999999999995 93.42  0.489999999999995 60.22  C 0.489999999999995 27.12  27.39 0.219999999999999  60.49 0.219999999999999  C 93.69 0.219999999999999  121.59 27.12  121.59 60.22  C 121.59 93.42  93.69 121.32  60.49 121.32  Z " fill-rule="nonzero" fill="#ffffff" stroke="none" fill-opacity="0" transform="matrix(1 0 0 1 211 18990 )" />
    <path d="M 60.49 121.32  C 27.39 121.32  0.489999999999995 93.42  0.489999999999995 60.22  C 0.489999999999995 27.12  27.39 0.219999999999999  60.49 0.219999999999999  C 93.69 0.219999999999999  121.59 27.12  121.59 60.22  C 121.59 93.42  93.69 121.32  60.49 121.32  Z " stroke-width="2" stroke="#fc5c57" fill="none" transform="matrix(1 0 0 1 211 18990 )" mask="url(#clip1142)" />
  </g>
</svg>