<?xml version="1.0" encoding="utf-8"?>
<svg version="1.1" xmlns:xlink="http://www.w3.org/1999/xlink" width="361px" height="33px" xmlns="http://www.w3.org/2000/svg">
  <defs>
    <linearGradient gradientUnits="userSpaceOnUse" x1="85030340.0996" y1="488139.462" x2="85030340.0996" y2="515683.07" id="LinearGradient806">
      <stop id="Stop807" stop-color="#e4e4e4" offset="0" />
      <stop id="Stop808" stop-color="#ededed" offset="0.2" />
      <stop id="Stop809" stop-color="#bdbdbd" offset="0.8" />
      <stop id="Stop810" stop-color="#a8a8a8" offset="1" />
    </linearGradient>
    <mask fill="white" id="clip811">
      <path d="M 0.0599999999999454 32.1600000000001  C 0.0599999999999454 32.1600000000001  0.0599999999999454 0.960000000000036  0.0599999999999454 0.960000000000036  C 0.0599999999999454 0.960000000000036  360.16 0.960000000000036  360.16 0.960000000000036  C 360.16 0.960000000000036  360.16 32.1600000000001  360.16 32.1600000000001  C 360.16 32.1600000000001  0.0599999999999454 32.1600000000001  0.0599999999999454 32.1600000000001  Z " fill-rule="evenodd" />
    </mask>
  </defs>
  <g transform="matrix(1 0 0 1 -741 -14953 )">
    <path d="M 0.0599999999999454 32.1600000000001  C 0.0599999999999454 32.1600000000001  0.0599999999999454 0.960000000000036  0.0599999999999454 0.960000000000036  C 0.0599999999999454 0.960000000000036  360.16 0.960000000000036  360.16 0.960000000000036  C 360.16 0.960000000000036  360.16 32.1600000000001  360.16 32.1600000000001  C 360.16 32.1600000000001  0.0599999999999454 32.1600000000001  0.0599999999999454 32.1600000000001  Z " fill-rule="nonzero" fill="url(#LinearGradient806)" stroke="none" transform="matrix(1 0 0 1 741 14953 )" />
    <path d="M 0.0599999999999454 32.1600000000001  C 0.0599999999999454 32.1600000000001  0.0599999999999454 0.960000000000036  0.0599999999999454 0.960000000000036  C 0.0599999999999454 0.960000000000036  360.16 0.960000000000036  360.16 0.960000000000036  C 360.16 0.960000000000036  360.16 32.1600000000001  360.16 32.1600000000001  C 360.16 32.1600000000001  0.0599999999999454 32.1600000000001  0.0599999999999454 32.1600000000001  Z " stroke-width="2" stroke="#787878" fill="none" transform="matrix(1 0 0 1 741 14953 )" mask="url(#clip811)" />
  </g>
</svg>