<?xml version="1.0" encoding="utf-8"?>
<svg version="1.1" xmlns:xlink="http://www.w3.org/1999/xlink" width="314px" height="139px" xmlns="http://www.w3.org/2000/svg">
  <defs>
    <mask fill="white" id="clip1991">
      <path d="M 0.710000000000036 1.81999999999999  C 0.710000000000036 0.920000000000016  1.50999999999999 0.120000000000005  2.41000000000008 0.120000000000005  C 2.41000000000008 0.120000000000005  311.61 0.120000000000005  311.61 0.120000000000005  C 312.51 0.120000000000005  313.31 0.920000000000016  313.31 1.81999999999999  C 313.31 1.81999999999999  313.31 136.82  313.31 136.82  C 313.31 137.82  312.51 138.52  311.61 138.52  C 311.61 138.52  2.41000000000008 138.52  2.41000000000008 138.52  C 1.50999999999999 138.52  0.710000000000036 137.82  0.710000000000036 136.82  C 0.710000000000036 136.82  0.710000000000036 1.81999999999999  0.710000000000036 1.81999999999999  Z " fill-rule="evenodd" />
    </mask>
  </defs>
  <g transform="matrix(1 0 0 1 -849 -8953 )">
    <path d="M 0.710000000000036 1.81999999999999  C 0.710000000000036 0.920000000000016  1.50999999999999 0.120000000000005  2.41000000000008 0.120000000000005  C 2.41000000000008 0.120000000000005  311.61 0.120000000000005  311.61 0.120000000000005  C 312.51 0.120000000000005  313.31 0.920000000000016  313.31 1.81999999999999  C 313.31 1.81999999999999  313.31 136.82  313.31 136.82  C 313.31 137.82  312.51 138.52  311.61 138.52  C 311.61 138.52  2.41000000000008 138.52  2.41000000000008 138.52  C 1.50999999999999 138.52  0.710000000000036 137.82  0.710000000000036 136.82  C 0.710000000000036 136.82  0.710000000000036 1.81999999999999  0.710000000000036 1.81999999999999  Z " fill-rule="nonzero" fill="#ffffff" stroke="none" fill-opacity="0.0980392156862745" transform="matrix(1 0 0 1 849 8953 )" />
    <path d="M 0.710000000000036 1.81999999999999  C 0.710000000000036 0.920000000000016  1.50999999999999 0.120000000000005  2.41000000000008 0.120000000000005  C 2.41000000000008 0.120000000000005  311.61 0.120000000000005  311.61 0.120000000000005  C 312.51 0.120000000000005  313.31 0.920000000000016  313.31 1.81999999999999  C 313.31 1.81999999999999  313.31 136.82  313.31 136.82  C 313.31 137.82  312.51 138.52  311.61 138.52  C 311.61 138.52  2.41000000000008 138.52  2.41000000000008 138.52  C 1.50999999999999 138.52  0.710000000000036 137.82  0.710000000000036 136.82  C 0.710000000000036 136.82  0.710000000000036 1.81999999999999  0.710000000000036 1.81999999999999  Z " stroke-width="2" stroke="#ffffff" fill="none" stroke-opacity="0.498039215686275" transform="matrix(1 0 0 1 849 8953 )" mask="url(#clip1991)" />
  </g>
</svg>