<svg xmlns="http://www.w3.org/2000/svg" xmlns:xlink="http://www.w3.org/1999/xlink" width="316" height="34" version="1.1"><defs><mask id="clip1685" fill="#fff"><path fill-rule="evenodd" d="M 0.759999999999991 33.73 C 0.759999999999991 33.73 0.759999999999991 0.430000000000007 0.759999999999991 0.430000000000007 C 0.759999999999991 0.430000000000007 315.86 0.430000000000007 315.86 0.430000000000007 C 315.86 0.430000000000007 315.86 33.73 315.86 33.73 C 315.86 33.73 0.759999999999991 33.73 0.759999999999991 33.73 Z"/></mask></defs><g><path fill="#595757" fill-rule="nonzero" stroke="none" d="M 0.759999999999991 33.73 C 0.759999999999991 33.73 0.759999999999991 0.430000000000007 0.759999999999991 0.430000000000007 C 0.759999999999991 0.430000000000007 315.86 0.430000000000007 315.86 0.430000000000007 C 315.86 0.430000000000007 315.86 33.73 315.86 33.73 C 315.86 33.73 0.759999999999991 33.73 0.759999999999991 33.73 Z" transform="matrix(1 0 0 1 -219 -1610 ) matrix(1 0 0 1 219 1610 )"/><path fill="none" stroke="#595757" stroke-width="2" d="M 0.759999999999991 33.73 C 0.759999999999991 33.73 0.759999999999991 0.430000000000007 0.759999999999991 0.430000000000007 C 0.759999999999991 0.430000000000007 315.86 0.430000000000007 315.86 0.430000000000007 C 315.86 0.430000000000007 315.86 33.73 315.86 33.73 C 315.86 33.73 0.759999999999991 33.73 0.759999999999991 33.73 Z" mask="url(#clip1685)" transform="matrix(1 0 0 1 -219 -1610 ) matrix(1 0 0 1 219 1610 )"/></g></svg>