<?xml version="1.0" encoding="utf-8"?>
<svg version="1.1" xmlns:xlink="http://www.w3.org/1999/xlink" width="57px" height="60px" xmlns="http://www.w3.org/2000/svg">
  <defs>
    <mask fill="white" id="clip643">
      <path d="M 20.6900000000001 59.1999999999999  C 20.6900000000001 59.1999999999999  36.5899999999999 59.1999999999999  36.5899999999999 59.1999999999999  C 47.3900000000001 59.1999999999999  56.1900000000001 50.4  56.1900000000001 39.6  C 56.1900000000001 39.6  56.1900000000001 20.1  56.1900000000001 20.1  C 56.1900000000001 9.19999999999993  47.3900000000001 0.399999999999977  36.5899999999999 0.399999999999977  C 36.5899999999999 0.399999999999977  20.6900000000001 0.399999999999977  20.6900000000001 0.399999999999977  C 9.78999999999996 0.399999999999977  0.990000000000009 9.19999999999993  0.990000000000009 20.1  C 0.990000000000009 20.1  0.990000000000009 39.6  0.990000000000009 39.6  C 0.990000000000009 50.4  9.78999999999996 59.1999999999999  20.6900000000001 59.1999999999999  Z " fill-rule="evenodd" />
    </mask>
  </defs>
  <g transform="matrix(1 0 0 1 -1083 -13048 )">
    <path d="M 20.6900000000001 59.1999999999999  C 20.6900000000001 59.1999999999999  36.5899999999999 59.1999999999999  36.5899999999999 59.1999999999999  C 47.3900000000001 59.1999999999999  56.1900000000001 50.4  56.1900000000001 39.6  C 56.1900000000001 39.6  56.1900000000001 20.1  56.1900000000001 20.1  C 56.1900000000001 9.19999999999993  47.3900000000001 0.399999999999977  36.5899999999999 0.399999999999977  C 36.5899999999999 0.399999999999977  20.6900000000001 0.399999999999977  20.6900000000001 0.399999999999977  C 9.78999999999996 0.399999999999977  0.990000000000009 9.19999999999993  0.990000000000009 20.1  C 0.990000000000009 20.1  0.990000000000009 39.6  0.990000000000009 39.6  C 0.990000000000009 50.4  9.78999999999996 59.1999999999999  20.6900000000001 59.1999999999999  Z " fill-rule="nonzero" fill="#dcdcdd" stroke="none" fill-opacity="0.0784313725490196" transform="matrix(1 0 0 1 1083 13048 )" />
    <path d="M 20.6900000000001 59.1999999999999  C 20.6900000000001 59.1999999999999  36.5899999999999 59.1999999999999  36.5899999999999 59.1999999999999  C 47.3900000000001 59.1999999999999  56.1900000000001 50.4  56.1900000000001 39.6  C 56.1900000000001 39.6  56.1900000000001 20.1  56.1900000000001 20.1  C 56.1900000000001 9.19999999999993  47.3900000000001 0.399999999999977  36.5899999999999 0.399999999999977  C 36.5899999999999 0.399999999999977  20.6900000000001 0.399999999999977  20.6900000000001 0.399999999999977  C 9.78999999999996 0.399999999999977  0.990000000000009 9.19999999999993  0.990000000000009 20.1  C 0.990000000000009 20.1  0.990000000000009 39.6  0.990000000000009 39.6  C 0.990000000000009 50.4  9.78999999999996 59.1999999999999  20.6900000000001 59.1999999999999  Z " stroke-width="2" stroke="#dcdcdd" fill="none" stroke-opacity="0.0588235294117647" transform="matrix(1 0 0 1 1083 13048 )" mask="url(#clip643)" />
  </g>
</svg>