<?xml version="1.0" encoding="utf-8"?>
<svg version="1.1" xmlns:xlink="http://www.w3.org/1999/xlink" width="1124px" height="14px" xmlns="http://www.w3.org/2000/svg">
  <defs>
    <mask fill="white" id="clip196">
      <path d="M 0.875 13.7950000000001  C 0.875 13.7950000000001  0.875 0.345000000000027  0.875 0.345000000000027  C 0.875 0.345000000000027  1123.625 0.345000000000027  1123.625 0.345000000000027  C 1123.625 0.345000000000027  1123.625 13.7950000000001  1123.625 13.7950000000001  C 1123.625 13.7950000000001  0.875 13.7950000000001  0.875 13.7950000000001  Z " fill-rule="evenodd" />
    </mask>
  </defs>
  <g transform="matrix(1 0 0 1 -89 -4874 )">
    <path d="M 0.875 13.7950000000001  C 0.875 13.7950000000001  0.875 0.345000000000027  0.875 0.345000000000027  C 0.875 0.345000000000027  1123.625 0.345000000000027  1123.625 0.345000000000027  C 1123.625 0.345000000000027  1123.625 13.7950000000001  1123.625 13.7950000000001  C 1123.625 13.7950000000001  0.875 13.7950000000001  0.875 13.7950000000001  Z " fill-rule="nonzero" fill="#33b2c3" stroke="none" transform="matrix(1 0 0 1 89 4874 )" />
    <path d="M 0.875 13.7950000000001  C 0.875 13.7950000000001  0.875 0.345000000000027  0.875 0.345000000000027  C 0.875 0.345000000000027  1123.625 0.345000000000027  1123.625 0.345000000000027  C 1123.625 0.345000000000027  1123.625 13.7950000000001  1123.625 13.7950000000001  C 1123.625 13.7950000000001  0.875 13.7950000000001  0.875 13.7950000000001  Z " stroke-width="0.5" stroke="#33b2c3" fill="none" transform="matrix(1 0 0 1 89 4874 )" mask="url(#clip196)" />
  </g>
</svg>