<?xml version="1.0" encoding="utf-8"?>
<svg version="1.1" xmlns:xlink="http://www.w3.org/1999/xlink" width="77px" height="76px" xmlns="http://www.w3.org/2000/svg">
  <defs>
    <mask fill="white" id="clip265">
      <path d="M 38.77 75.68  C 18.1700000000001 75.68  0.470000000000027 58.98  0.470000000000027 38.38  C 0.470000000000027 17.78  18.1700000000001 0.0799999999999983  38.77 0.0799999999999983  C 59.37 0.0799999999999983  76.0700000000001 17.78  76.0700000000001 38.38  C 76.0700000000001 58.98  59.37 75.68  38.77 75.68  Z " fill-rule="evenodd" />
    </mask>
  </defs>
  <g transform="matrix(1 0 0 1 -613 -4950 )">
    <path d="M 38.77 75.68  C 18.1700000000001 75.68  0.470000000000027 58.98  0.470000000000027 38.38  C 0.470000000000027 17.78  18.1700000000001 0.0799999999999983  38.77 0.0799999999999983  C 59.37 0.0799999999999983  76.0700000000001 17.78  76.0700000000001 38.38  C 76.0700000000001 58.98  59.37 75.68  38.77 75.68  Z " fill-rule="nonzero" fill="#8bc0d3" stroke="none" transform="matrix(1 0 0 1 613 4950 )" />
    <path d="M 38.77 75.68  C 18.1700000000001 75.68  0.470000000000027 58.98  0.470000000000027 38.38  C 0.470000000000027 17.78  18.1700000000001 0.0799999999999983  38.77 0.0799999999999983  C 59.37 0.0799999999999983  76.0700000000001 17.78  76.0700000000001 38.38  C 76.0700000000001 58.98  59.37 75.68  38.77 75.68  Z " stroke-width="2" stroke="#8bc0d3" fill="none" transform="matrix(1 0 0 1 613 4950 )" mask="url(#clip265)" />
  </g>
</svg>