<?xml version="1.0" encoding="utf-8"?>
<svg version="1.1" xmlns:xlink="http://www.w3.org/1999/xlink" width="7px" height="6px" xmlns="http://www.w3.org/2000/svg">
  <defs>
    <mask fill="white" id="clip1827">
      <path d="M 6.35000000000002 2.59000000000003  C 6.35000000000002 1.49000000000001  5.25 0.490000000000009  3.95000000000002 0.490000000000009  C 2.65000000000001 0.490000000000009  0.550000000000011 1.49000000000001  0.550000000000011 2.59000000000003  C 0.550000000000011 3.79000000000002  2.65000000000001 5.79000000000002  3.95000000000002 5.79000000000002  C 5.25 5.79000000000002  6.35000000000002 3.79000000000002  6.35000000000002 2.59000000000003  Z M 4.75 3.59000000000003  C 4.75 3.99000000000001  3.35000000000002 4.29000000000002  2.95000000000002 4.29000000000002  C 2.45000000000002 4.29000000000002  2.15000000000001 3.99000000000001  2.15000000000001 3.59000000000003  C 2.15000000000001 3.19  2.45000000000002 1.88999999999999  2.95000000000002 1.88999999999999  C 3.35000000000002 1.88999999999999  4.75 3.19  4.75 3.59000000000003  Z " fill-rule="evenodd" />
    </mask>
  </defs>
  <g transform="matrix(1 0 0 1 -248 -7250 )">
    <path d="M 6.35000000000002 2.59000000000003  C 6.35000000000002 1.49000000000001  5.25 0.490000000000009  3.95000000000002 0.490000000000009  C 2.65000000000001 0.490000000000009  0.550000000000011 1.49000000000001  0.550000000000011 2.59000000000003  C 0.550000000000011 3.79000000000002  2.65000000000001 5.79000000000002  3.95000000000002 5.79000000000002  C 5.25 5.79000000000002  6.35000000000002 3.79000000000002  6.35000000000002 2.59000000000003  Z M 4.75 3.59000000000003  C 4.75 3.99000000000001  3.35000000000002 4.29000000000002  2.95000000000002 4.29000000000002  C 2.45000000000002 4.29000000000002  2.15000000000001 3.99000000000001  2.15000000000001 3.59000000000003  C 2.15000000000001 3.19  2.45000000000002 1.88999999999999  2.95000000000002 1.88999999999999  C 3.35000000000002 1.88999999999999  4.75 3.19  4.75 3.59000000000003  Z " fill-rule="nonzero" fill="#ffffff" stroke="none" transform="matrix(1 0 0 1 248 7250 )" />
    <path d="M 6.35000000000002 2.59000000000003  C 6.35000000000002 1.49000000000001  5.25 0.490000000000009  3.95000000000002 0.490000000000009  C 2.65000000000001 0.490000000000009  0.550000000000011 1.49000000000001  0.550000000000011 2.59000000000003  C 0.550000000000011 3.79000000000002  2.65000000000001 5.79000000000002  3.95000000000002 5.79000000000002  C 5.25 5.79000000000002  6.35000000000002 3.79000000000002  6.35000000000002 2.59000000000003  Z " stroke-width="2" stroke="#ffffff" fill="none" transform="matrix(1 0 0 1 248 7250 )" mask="url(#clip1827)" />
    <path d="M 4.75 3.59000000000003  C 4.75 3.99000000000001  3.35000000000002 4.29000000000002  2.95000000000002 4.29000000000002  C 2.45000000000002 4.29000000000002  2.15000000000001 3.99000000000001  2.15000000000001 3.59000000000003  C 2.15000000000001 3.19  2.45000000000002 1.88999999999999  2.95000000000002 1.88999999999999  C 3.35000000000002 1.88999999999999  4.75 3.19  4.75 3.59000000000003  Z " stroke-width="2" stroke="#ffffff" fill="none" transform="matrix(1 0 0 1 248 7250 )" mask="url(#clip1827)" />
  </g>
</svg>