<svg xmlns="http://www.w3.org/2000/svg" xmlns:xlink="http://www.w3.org/1999/xlink" width="3" height="3" version="1.1"><defs><mask id="clip1835" fill="#fff"><path fill-rule="evenodd" d="M 1.97999999999996 0.490000000000009 C 2.38 0.490000000000009 2.67999999999995 1.79000000000002 2.67999999999995 2.19 C 2.67999999999995 2.59000000000003 2.38 2.88999999999999 1.97999999999996 2.88999999999999 C 1.57999999999998 2.88999999999999 0.279999999999973 2.59000000000003 0.279999999999973 2.19 C 0.279999999999973 1.79000000000002 1.57999999999998 0.490000000000009 1.97999999999996 0.490000000000009 Z"/></mask></defs><g><path fill="#fff" fill-rule="nonzero" stroke="none" d="M 1.97999999999996 0.490000000000009 C 2.38 0.490000000000009 2.67999999999995 1.79000000000002 2.67999999999995 2.19 C 2.67999999999995 2.59000000000003 2.38 2.88999999999999 1.97999999999996 2.88999999999999 C 1.57999999999998 2.88999999999999 0.279999999999973 2.59000000000003 0.279999999999973 2.19 C 0.279999999999973 1.79000000000002 1.57999999999998 0.490000000000009 1.97999999999996 0.490000000000009 Z" transform="matrix(1 0 0 1 -404 -7204 ) matrix(1 0 0 1 404 7204 )"/><path fill="none" stroke="#fff" stroke-width="2" d="M 1.97999999999996 0.490000000000009 C 2.38 0.490000000000009 2.67999999999995 1.79000000000002 2.67999999999995 2.19 C 2.67999999999995 2.59000000000003 2.38 2.88999999999999 1.97999999999996 2.88999999999999 C 1.57999999999998 2.88999999999999 0.279999999999973 2.59000000000003 0.279999999999973 2.19 C 0.279999999999973 1.79000000000002 1.57999999999998 0.490000000000009 1.97999999999996 0.490000000000009 Z" mask="url(#clip1835)" transform="matrix(1 0 0 1 -404 -7204 ) matrix(1 0 0 1 404 7204 )"/></g></svg>