<svg xmlns="http://www.w3.org/2000/svg" xmlns:xlink="http://www.w3.org/1999/xlink" width="98" height="155" version="1.1"><defs><mask id="clip1935" fill="#fff"><path fill-rule="evenodd" d="M 78.37 149.83 C 78.37 149.83 78.37 154.83 78.37 154.83 C 36.1700000000001 154.83 0.970000000000027 119.53 0.970000000000027 77.33 C 0.970000000000027 35.13 36.1700000000001 0.930000000000007 78.37 0.930000000000007 C 85.0700000000001 0.930000000000007 91.5700000000001 1.82999999999998 97.77 3.43000000000001 C 97.77 3.43000000000001 96.47 8.23000000000002 96.47 8.23000000000002 C 90.77 6.73000000000002 84.6700000000001 5.93000000000001 78.37 5.93000000000001 C 38.97 5.93000000000001 5.97000000000003 37.93 5.97000000000003 77.33 C 5.97000000000003 116.83 38.97 149.83 78.37 149.83 Z"/></mask></defs><g><path fill="#f56582" fill-rule="nonzero" stroke="none" d="M 78.37 149.83 C 78.37 149.83 78.37 154.83 78.37 154.83 C 36.1700000000001 154.83 0.970000000000027 119.53 0.970000000000027 77.33 C 0.970000000000027 35.13 36.1700000000001 0.930000000000007 78.37 0.930000000000007 C 85.0700000000001 0.930000000000007 91.5700000000001 1.82999999999998 97.77 3.43000000000001 C 97.77 3.43000000000001 96.47 8.23000000000002 96.47 8.23000000000002 C 90.77 6.73000000000002 84.6700000000001 5.93000000000001 78.37 5.93000000000001 C 38.97 5.93000000000001 5.97000000000003 37.93 5.97000000000003 77.33 C 5.97000000000003 116.83 38.97 149.83 78.37 149.83 Z" transform="matrix(1 0 0 1 -971 -7149 ) matrix(1 0 0 1 971 7149 )"/><path fill="none" stroke="#f56582" stroke-width="2" d="M 78.37 149.83 C 78.37 149.83 78.37 154.83 78.37 154.83 C 36.1700000000001 154.83 0.970000000000027 119.53 0.970000000000027 77.33 C 0.970000000000027 35.13 36.1700000000001 0.930000000000007 78.37 0.930000000000007 C 85.0700000000001 0.930000000000007 91.5700000000001 1.82999999999998 97.77 3.43000000000001 C 97.77 3.43000000000001 96.47 8.23000000000002 96.47 8.23000000000002 C 90.77 6.73000000000002 84.6700000000001 5.93000000000001 78.37 5.93000000000001 C 38.97 5.93000000000001 5.97000000000003 37.93 5.97000000000003 77.33 C 5.97000000000003 116.83 38.97 149.83 78.37 149.83 Z" mask="url(#clip1935)" transform="matrix(1 0 0 1 -971 -7149 ) matrix(1 0 0 1 971 7149 )"/></g></svg>