<svg xmlns="http://www.w3.org/2000/svg" xmlns:xlink="http://www.w3.org/1999/xlink" width="35" height="35" version="1.1"><defs><mask id="clip2651" fill="#fff"><path fill-rule="evenodd" d="M 33.2266665 33.8166665 C 34.4266665 32.5166665 34.4266665 30.6166665 33.2266665 29.4166665 C 33.2266665 29.4166665 21.8266665 17.6833335 21.8266665 17.6833335 C 21.8266665 17.6833335 33.2266665 6.28333350000003 33.2266665 6.28333350000003 C 34.4266665 5.08333350000004 34.4266665 3.1833335 33.2266665 1.88333350000005 C 31.9266665 0.683333500000003 30.0266665 0.683333500000003 28.8266665 1.88333350000005 C 28.8266665 1.88333350000005 17.0933335 13.2833335 17.0933335 13.2833335 C 17.0933335 13.2833335 5.69333349999999 1.88333350000005 5.69333349999999 1.88333350000005 C 4.49333349999995 0.683333500000003 2.59333349999997 0.683333500000003 1.29333350000002 1.88333350000005 C 0.0933334999999715 3.1833335 0.0933334999999715 5.08333350000004 1.29333350000002 6.28333350000003 C 1.29333350000002 6.28333350000003 12.6933335 17.6833335 12.6933335 17.6833335 C 12.6933335 17.6833335 1.29333350000002 29.4166665 1.29333350000002 29.4166665 C 0.0933334999999715 30.6166665 0.0933334999999715 32.5166665 1.29333350000002 33.8166665 C 2.59333349999997 35.0166665 4.49333349999995 35.0166665 5.69333349999999 33.8166665 C 5.69333349999999 33.8166665 17.0933335 22.4166665 17.0933335 22.4166665 C 17.0933335 22.4166665 28.8266665 33.8166665 28.8266665 33.8166665 C 30.0266665 35.0166665 31.9266665 35.0166665 33.2266665 33.8166665 Z"/></mask></defs><g><path fill="#b60717" fill-rule="nonzero" stroke="none" d="M 33.2266665 33.8166665 C 34.4266665 32.5166665 34.4266665 30.6166665 33.2266665 29.4166665 C 33.2266665 29.4166665 21.8266665 17.6833335 21.8266665 17.6833335 C 21.8266665 17.6833335 33.2266665 6.28333350000003 33.2266665 6.28333350000003 C 34.4266665 5.08333350000004 34.4266665 3.1833335 33.2266665 1.88333350000005 C 31.9266665 0.683333500000003 30.0266665 0.683333500000003 28.8266665 1.88333350000005 C 28.8266665 1.88333350000005 17.0933335 13.2833335 17.0933335 13.2833335 C 17.0933335 13.2833335 5.69333349999999 1.88333350000005 5.69333349999999 1.88333350000005 C 4.49333349999995 0.683333500000003 2.59333349999997 0.683333500000003 1.29333350000002 1.88333350000005 C 0.0933334999999715 3.1833335 0.0933334999999715 5.08333350000004 1.29333350000002 6.28333350000003 C 1.29333350000002 6.28333350000003 12.6933335 17.6833335 12.6933335 17.6833335 C 12.6933335 17.6833335 1.29333350000002 29.4166665 1.29333350000002 29.4166665 C 0.0933334999999715 30.6166665 0.0933334999999715 32.5166665 1.29333350000002 33.8166665 C 2.59333349999997 35.0166665 4.49333349999995 35.0166665 5.69333349999999 33.8166665 C 5.69333349999999 33.8166665 17.0933335 22.4166665 17.0933335 22.4166665 C 17.0933335 22.4166665 28.8266665 33.8166665 28.8266665 33.8166665 C 30.0266665 35.0166665 31.9266665 35.0166665 33.2266665 33.8166665 Z" transform="matrix(1 0 0 1 -1045 -18355 ) matrix(1 0 0 1 1045 18355 )"/><path fill="none" stroke="#b60717" stroke-width=".667" d="M 33.2266665 33.8166665 C 34.4266665 32.5166665 34.4266665 30.6166665 33.2266665 29.4166665 C 33.2266665 29.4166665 21.8266665 17.6833335 21.8266665 17.6833335 C 21.8266665 17.6833335 33.2266665 6.28333350000003 33.2266665 6.28333350000003 C 34.4266665 5.08333350000004 34.4266665 3.1833335 33.2266665 1.88333350000005 C 31.9266665 0.683333500000003 30.0266665 0.683333500000003 28.8266665 1.88333350000005 C 28.8266665 1.88333350000005 17.0933335 13.2833335 17.0933335 13.2833335 C 17.0933335 13.2833335 5.69333349999999 1.88333350000005 5.69333349999999 1.88333350000005 C 4.49333349999995 0.683333500000003 2.59333349999997 0.683333500000003 1.29333350000002 1.88333350000005 C 0.0933334999999715 3.1833335 0.0933334999999715 5.08333350000004 1.29333350000002 6.28333350000003 C 1.29333350000002 6.28333350000003 12.6933335 17.6833335 12.6933335 17.6833335 C 12.6933335 17.6833335 1.29333350000002 29.4166665 1.29333350000002 29.4166665 C 0.0933334999999715 30.6166665 0.0933334999999715 32.5166665 1.29333350000002 33.8166665 C 2.59333349999997 35.0166665 4.49333349999995 35.0166665 5.69333349999999 33.8166665 C 5.69333349999999 33.8166665 17.0933335 22.4166665 17.0933335 22.4166665 C 17.0933335 22.4166665 28.8266665 33.8166665 28.8266665 33.8166665 C 30.0266665 35.0166665 31.9266665 35.0166665 33.2266665 33.8166665 Z" mask="url(#clip2651)" transform="matrix(1 0 0 1 -1045 -18355 ) matrix(1 0 0 1 1045 18355 )"/></g></svg>