<svg xmlns="http://www.w3.org/2000/svg" xmlns:xlink="http://www.w3.org/1999/xlink" width="5" height="5" version="1.1"><defs><mask id="clip1904" fill="#fff"><path fill-rule="evenodd" d="M 1.91 4.48999999999998 C 1.41 4.48999999999998 0.909999999999997 3.88999999999999 0.909999999999997 3.19 C 0.909999999999997 2.48999999999998 1.41 0.889999999999986 1.91 0.889999999999986 C 2.50999999999999 0.889999999999986 4.00999999999999 2.48999999999998 4.00999999999999 3.19 C 4.00999999999999 3.88999999999999 2.50999999999999 4.48999999999998 1.91 4.48999999999998 Z"/></mask></defs><g><path fill="#3e3938" fill-rule="nonzero" stroke="none" d="M 1.91 4.48999999999998 C 1.41 4.48999999999998 0.909999999999997 3.88999999999999 0.909999999999997 3.19 C 0.909999999999997 2.48999999999998 1.41 0.889999999999986 1.91 0.889999999999986 C 2.50999999999999 0.889999999999986 4.00999999999999 2.48999999999998 4.00999999999999 3.19 C 4.00999999999999 3.88999999999999 2.50999999999999 4.48999999999998 1.91 4.48999999999998 Z" transform="matrix(1 0 0 1 -190 -6896 ) matrix(1 0 0 1 190 6896 )"/><path fill="none" stroke="#3e3938" stroke-width="2" d="M 1.91 4.48999999999998 C 1.41 4.48999999999998 0.909999999999997 3.88999999999999 0.909999999999997 3.19 C 0.909999999999997 2.48999999999998 1.41 0.889999999999986 1.91 0.889999999999986 C 2.50999999999999 0.889999999999986 4.00999999999999 2.48999999999998 4.00999999999999 3.19 C 4.00999999999999 3.88999999999999 2.50999999999999 4.48999999999998 1.91 4.48999999999998 Z" mask="url(#clip1904)" transform="matrix(1 0 0 1 -190 -6896 ) matrix(1 0 0 1 190 6896 )"/></g></svg>