<svg xmlns="http://www.w3.org/2000/svg" xmlns:xlink="http://www.w3.org/1999/xlink" width="162" height="127" version="1.1"><defs><linearGradient id="LinearGradient2574" x1="39.91" x2="219.91" y1="227.7" y2="310.7" gradientUnits="userSpaceOnUse"><stop id="Stop2575" offset="0" stop-color="#fff"/><stop id="Stop2576" offset=".2" stop-color="#e0e0e0"/><stop id="Stop2577" offset=".85" stop-color="#7d7d7d"/><stop id="Stop2578" offset="1" stop-color="#7d7d7d"/></linearGradient><mask id="clip2579" fill="#fff"><path fill-rule="evenodd" d="M 14.17 126.25 C 5.47000000000003 113.45 0.670000000000016 97.45 0.670000000000016 81.45 C 0.670000000000016 37.25 37.57 0.349999999999994 81.77 0.349999999999994 C 125.97 0.349999999999994 161.87 37.25 161.87 81.45 C 161.87 97.45 157.07 113.45 148.37 126.25 C 148.37 126.25 14.17 126.25 14.17 126.25 Z"/></mask></defs><g><path fill="url(#LinearGradient2574)" fill-rule="nonzero" stroke="none" d="M 14.17 126.25 C 5.47000000000003 113.45 0.670000000000016 97.45 0.670000000000016 81.45 C 0.670000000000016 37.25 37.57 0.349999999999994 81.77 0.349999999999994 C 125.97 0.349999999999994 161.87 37.25 161.87 81.45 C 161.87 97.45 157.07 113.45 148.37 126.25 C 148.37 126.25 14.17 126.25 14.17 126.25 Z" transform="matrix(1 0 0 1 -354 -17159 ) matrix(1 0 0 1 354 17159 )"/><path fill="none" stroke="#909090" stroke-width="2" d="M 14.17 126.25 C 5.47000000000003 113.45 0.670000000000016 97.45 0.670000000000016 81.45 C 0.670000000000016 37.25 37.57 0.349999999999994 81.77 0.349999999999994 C 125.97 0.349999999999994 161.87 37.25 161.87 81.45 C 161.87 97.45 157.07 113.45 148.37 126.25 C 148.37 126.25 14.17 126.25 14.17 126.25 Z" mask="url(#clip2579)" transform="matrix(1 0 0 1 -354 -17159 ) matrix(1 0 0 1 354 17159 )"/></g></svg>