<?xml version="1.0" encoding="utf-8"?>
<svg version="1.1" xmlns:xlink="http://www.w3.org/1999/xlink" width="1124px" height="256px" xmlns="http://www.w3.org/2000/svg">
  <defs>
    <mask fill="white" id="clip1791">
      <path d="M 0.5 256  C 0.5 256  0.5 0.399999999999977  0.5 0.399999999999977  C 0.5 0.399999999999977  1124 0.399999999999977  1124 0.399999999999977  C 1124 0.399999999999977  1124 256  1124 256  C 1124 256  0.5 256  0.5 256  Z " fill-rule="evenodd" />
    </mask>
  </defs>
  <g transform="matrix(1 0 0 1 -89 -6426 )">
    <path d="M 0.5 256  C 0.5 256  0.5 0.399999999999977  0.5 0.399999999999977  C 0.5 0.399999999999977  1124 0.399999999999977  1124 0.399999999999977  C 1124 0.399999999999977  1124 256  1124 256  C 1124 256  0.5 256  0.5 256  Z " fill-rule="nonzero" fill="#ffffff" stroke="none" transform="matrix(1 0 0 1 89 6426 )" />
    <path d="M 0.5 256  C 0.5 256  0.5 0.399999999999977  0.5 0.399999999999977  C 0.5 0.399999999999977  1124 0.399999999999977  1124 0.399999999999977  C 1124 0.399999999999977  1124 256  1124 256  C 1124 256  0.5 256  0.5 256  Z " stroke-width="2" stroke="#ffffff" fill="none" transform="matrix(1 0 0 1 89 6426 )" mask="url(#clip1791)" />
  </g>
</svg>