<svg xmlns="http://www.w3.org/2000/svg" xmlns:xlink="http://www.w3.org/1999/xlink" width="361" height="33" version="1.1"><defs><linearGradient id="LinearGradient2338" x1="85030340.1" x2="85030340.1" y1="488139.462" y2="515683.07" gradientUnits="userSpaceOnUse"><stop id="Stop2339" offset="0" stop-color="#e4e4e4"/><stop id="Stop2340" offset=".2" stop-color="#ededed"/><stop id="Stop2341" offset=".8" stop-color="#bdbdbd"/><stop id="Stop2342" offset="1" stop-color="#a8a8a8"/></linearGradient><mask id="clip2343" fill="#fff"><path fill-rule="evenodd" d="M 0.0599999999999454 32.1600000000001 C 0.0599999999999454 32.1600000000001 0.0599999999999454 0.960000000000036 0.0599999999999454 0.960000000000036 C 0.0599999999999454 0.960000000000036 360.16 0.960000000000036 360.16 0.960000000000036 C 360.16 0.960000000000036 360.16 32.1600000000001 360.16 32.1600000000001 C 360.16 32.1600000000001 0.0599999999999454 32.1600000000001 0.0599999999999454 32.1600000000001 Z"/></mask></defs><g><path fill="url(#LinearGradient2338)" fill-rule="nonzero" stroke="none" d="M 0.0599999999999454 32.1600000000001 C 0.0599999999999454 32.1600000000001 0.0599999999999454 0.960000000000036 0.0599999999999454 0.960000000000036 C 0.0599999999999454 0.960000000000036 360.16 0.960000000000036 360.16 0.960000000000036 C 360.16 0.960000000000036 360.16 32.1600000000001 360.16 32.1600000000001 C 360.16 32.1600000000001 0.0599999999999454 32.1600000000001 0.0599999999999454 32.1600000000001 Z" transform="matrix(1 0 0 1 -741 -14953 ) matrix(1 0 0 1 741 14953 )"/><path fill="none" stroke="#787878" stroke-width="2" d="M 0.0599999999999454 32.1600000000001 C 0.0599999999999454 32.1600000000001 0.0599999999999454 0.960000000000036 0.0599999999999454 0.960000000000036 C 0.0599999999999454 0.960000000000036 360.16 0.960000000000036 360.16 0.960000000000036 C 360.16 0.960000000000036 360.16 32.1600000000001 360.16 32.1600000000001 C 360.16 32.1600000000001 0.0599999999999454 32.1600000000001 0.0599999999999454 32.1600000000001 Z" mask="url(#clip2343)" transform="matrix(1 0 0 1 -741 -14953 ) matrix(1 0 0 1 741 14953 )"/></g></svg>