<?xml version="1.0" encoding="utf-8"?>
<svg version="1.1" xmlns:xlink="http://www.w3.org/1999/xlink" width="76px" height="76px" xmlns="http://www.w3.org/2000/svg">
  <defs>
    <mask fill="white" id="clip261">
      <path d="M 38.42 75.68  C 17.82 75.68  0.120000000000005 58.98  0.120000000000005 38.38  C 0.120000000000005 17.78  17.82 0.0799999999999983  38.42 0.0799999999999983  C 59.02 0.0799999999999983  75.72 17.78  75.72 38.38  C 75.72 58.98  59.02 75.68  38.42 75.68  Z " fill-rule="evenodd" />
    </mask>
  </defs>
  <g transform="matrix(1 0 0 1 -314 -4950 )">
    <path d="M 38.42 75.68  C 17.82 75.68  0.120000000000005 58.98  0.120000000000005 38.38  C 0.120000000000005 17.78  17.82 0.0799999999999983  38.42 0.0799999999999983  C 59.02 0.0799999999999983  75.72 17.78  75.72 38.38  C 75.72 58.98  59.02 75.68  38.42 75.68  Z " fill-rule="nonzero" fill="#8bc0d3" stroke="none" transform="matrix(1 0 0 1 314 4950 )" />
    <path d="M 38.42 75.68  C 17.82 75.68  0.120000000000005 58.98  0.120000000000005 38.38  C 0.120000000000005 17.78  17.82 0.0799999999999983  38.42 0.0799999999999983  C 59.02 0.0799999999999983  75.72 17.78  75.72 38.38  C 75.72 58.98  59.02 75.68  38.42 75.68  Z " stroke-width="2" stroke="#8bc0d3" fill="none" transform="matrix(1 0 0 1 314 4950 )" mask="url(#clip261)" />
  </g>
</svg>