<?xml version="1.0" encoding="utf-8"?>
<svg version="1.1" xmlns:xlink="http://www.w3.org/1999/xlink" width="56px" height="60px" xmlns="http://www.w3.org/2000/svg">
  <defs>
    <mask fill="white" id="clip546">
      <path d="M 20.2 0.27  C 20.2 0.27  36 0.27  36 0.27  C 46.9 0.27  55.7 9.67  55.7 21.37  C 55.7 21.37  55.7 38.07  55.7 38.07  C 55.7 49.67  46.9 59.07  36 59.07  C 36 59.07  20.2 59.07  20.2 59.07  C 9.29999999999995 59.07  0.5 49.67  0.5 38.07  C 0.5 38.07  0.5 21.37  0.5 21.37  C 0.5 9.67  9.29999999999995 0.27  20.2 0.27  Z " fill-rule="evenodd" />
    </mask>
  </defs>
  <g transform="matrix(1 0 0 1 -961 -12411 )">
    <path d="M 20.2 0.27  C 20.2 0.27  36 0.27  36 0.27  C 46.9 0.27  55.7 9.67  55.7 21.37  C 55.7 21.37  55.7 38.07  55.7 38.07  C 55.7 49.67  46.9 59.07  36 59.07  C 36 59.07  20.2 59.07  20.2 59.07  C 9.29999999999995 59.07  0.5 49.67  0.5 38.07  C 0.5 38.07  0.5 21.37  0.5 21.37  C 0.5 9.67  9.29999999999995 0.27  20.2 0.27  Z " fill-rule="nonzero" fill="#dcdcdd" stroke="none" fill-opacity="0.0784313725490196" transform="matrix(1 0 0 1 961 12411 )" />
    <path d="M 20.2 0.27  C 20.2 0.27  36 0.27  36 0.27  C 46.9 0.27  55.7 9.67  55.7 21.37  C 55.7 21.37  55.7 38.07  55.7 38.07  C 55.7 49.67  46.9 59.07  36 59.07  C 36 59.07  20.2 59.07  20.2 59.07  C 9.29999999999995 59.07  0.5 49.67  0.5 38.07  C 0.5 38.07  0.5 21.37  0.5 21.37  C 0.5 9.67  9.29999999999995 0.27  20.2 0.27  Z " stroke-width="2" stroke="#dcdcdd" fill="none" stroke-opacity="0.0588235294117647" transform="matrix(1 0 0 1 961 12411 )" mask="url(#clip546)" />
  </g>
</svg>