<svg xmlns="http://www.w3.org/2000/svg" xmlns:xlink="http://www.w3.org/1999/xlink" width="1126" height="188" version="1.1"><defs><mask id="clip2012" fill="#fff"><path fill-rule="evenodd" d="M 0.5 187.52 C 0.5 187.52 0.5 0.519999999999982 0.5 0.519999999999982 C 0.5 0.519999999999982 1125.5 0.519999999999982 1125.5 0.519999999999982 C 1125.5 0.519999999999982 1125.5 187.52 1125.5 187.52 C 1125.5 187.52 0.5 187.52 0.5 187.52 Z"/></mask></defs><g><path fill="#fbc0a6" fill-rule="nonzero" stroke="none" d="M 0.5 187.52 C 0.5 187.52 0.5 0.519999999999982 0.5 0.519999999999982 C 0.5 0.519999999999982 1125.5 0.519999999999982 1125.5 0.519999999999982 C 1125.5 0.519999999999982 1125.5 187.52 1125.5 187.52 C 1125.5 187.52 0.5 187.52 0.5 187.52 Z" transform="matrix(1 0 0 1 -89 -11030 ) matrix(1 0 0 1 89 11030 )"/><path fill="none" stroke="#fbc0a6" stroke-width="2" d="M 0.5 187.52 C 0.5 187.52 0.5 0.519999999999982 0.5 0.519999999999982 C 0.5 0.519999999999982 1125.5 0.519999999999982 1125.5 0.519999999999982 C 1125.5 0.519999999999982 1125.5 187.52 1125.5 187.52 C 1125.5 187.52 0.5 187.52 0.5 187.52 Z" mask="url(#clip2012)" transform="matrix(1 0 0 1 -89 -11030 ) matrix(1 0 0 1 89 11030 )"/></g></svg>