<?xml version="1.0" encoding="utf-8"?>
<svg version="1.1" xmlns:xlink="http://www.w3.org/1999/xlink" width="154px" height="154px" xmlns="http://www.w3.org/2000/svg">
  <g transform="matrix(1 0 0 1 -972 -7150 )">
    <path d="M 76.87 148.33  L 76.87 153.33  C 34.6700000000001 153.33  0.470000000000027 119.03  0.470000000000027 76.83  C 0.470000000000027 34.63  34.6700000000001 0.430000000000007  76.87 0.430000000000007  C 119.07 0.430000000000007  153.37 34.63  153.37 76.83  C 153.37 119.03  119.07 153.33  76.87 153.33  L 76.87 148.33  C 116.37 148.33  148.37 116.33  148.37 76.83  C 148.37 37.43  116.37 5.43000000000001  76.87 5.43000000000001  C 37.47 5.43000000000001  5.47000000000003 37.43  5.47000000000003 76.83  C 5.47000000000003 116.33  37.47 148.33  76.87 148.33  Z " fill-rule="nonzero" fill="#eeeeee" stroke="none" transform="matrix(1 0 0 1 972 7150 )" />
  </g>
</svg>