<?xml version="1.0" encoding="utf-8"?>
<svg version="1.1" xmlns:xlink="http://www.w3.org/1999/xlink" width="18px" height="60px" xmlns="http://www.w3.org/2000/svg">
  <defs>
    <mask fill="white" id="clip1159">
      <path d="M 17.15 55.86  C 17.15 55.86  10.95 59.46  10.95 59.46  C 4.75 48.86  0.25 35.56  0.25 22.46  C 0.25 14.66  1.45 7.15999999999997  3.75 0.159999999999968  C 3.75 0.159999999999968  11.65 2.36000000000001  11.65 2.36000000000001  C 9.55 8.65999999999997  7.45 15.46  7.45 22.46  C 7.45 34.26  11.65 46.36  17.15 55.86  Z " fill-rule="evenodd" />
    </mask>
  </defs>
  <g transform="matrix(1 0 0 1 -140 -17217 )">
    <path d="M 17.15 55.86  C 17.15 55.86  10.95 59.46  10.95 59.46  C 4.75 48.86  0.25 35.56  0.25 22.46  C 0.25 14.66  1.45 7.15999999999997  3.75 0.159999999999968  C 3.75 0.159999999999968  11.65 2.36000000000001  11.65 2.36000000000001  C 9.55 8.65999999999997  7.45 15.46  7.45 22.46  C 7.45 34.26  11.65 46.36  17.15 55.86  Z " fill-rule="nonzero" fill="#79c243" stroke="none" transform="matrix(1 0 0 1 140 17217 )" />
    <path d="M 17.15 55.86  C 17.15 55.86  10.95 59.46  10.95 59.46  C 4.75 48.86  0.25 35.56  0.25 22.46  C 0.25 14.66  1.45 7.15999999999997  3.75 0.159999999999968  C 3.75 0.159999999999968  11.65 2.36000000000001  11.65 2.36000000000001  C 9.55 8.65999999999997  7.45 15.46  7.45 22.46  C 7.45 34.26  11.65 46.36  17.15 55.86  Z " stroke-width="2" stroke="#79c243" fill="none" transform="matrix(1 0 0 1 140 17217 )" mask="url(#clip1159)" />
  </g>
</svg>