<?xml version="1.0" encoding="utf-8"?>
<svg version="1.1" xmlns:xlink="http://www.w3.org/1999/xlink" width="163px" height="178px" xmlns="http://www.w3.org/2000/svg">
  <defs>
    <mask fill="white" id="clip461">
      <path d="M 89.4 172.67  C 89.4 172.67  89.4 177.67  89.4 177.67  C 40.6 177.67  0.100000000000023 138.17  0.100000000000023 89.37  C 0.100000000000023 40.57  40.6 0.0699999999999932  89.4 0.0699999999999932  C 119.7 0.0699999999999932  146.5 15.37  162.4 38.67  C 162.4 38.67  158.2 41.47  158.2 41.47  C 143.2 19.47  118 5.06999999999999  89.4 5.06999999999999  C 43.4 5.06999999999999  5.10000000000002 43.37  5.10000000000002 89.37  C 5.10000000000002 135.37  43.4 172.67  89.4 172.67  Z " fill-rule="evenodd" />
    </mask>
  </defs>
  <g transform="matrix(1 0 0 1 -960 -7138 )">
    <path d="M 89.4 172.67  C 89.4 172.67  89.4 177.67  89.4 177.67  C 40.6 177.67  0.100000000000023 138.17  0.100000000000023 89.37  C 0.100000000000023 40.57  40.6 0.0699999999999932  89.4 0.0699999999999932  C 119.7 0.0699999999999932  146.5 15.37  162.4 38.67  C 162.4 38.67  158.2 41.47  158.2 41.47  C 143.2 19.47  118 5.06999999999999  89.4 5.06999999999999  C 43.4 5.06999999999999  5.10000000000002 43.37  5.10000000000002 89.37  C 5.10000000000002 135.37  43.4 172.67  89.4 172.67  Z " fill-rule="nonzero" fill="#ffcd55" stroke="none" transform="matrix(1 0 0 1 960 7138 )" />
    <path d="M 89.4 172.67  C 89.4 172.67  89.4 177.67  89.4 177.67  C 40.6 177.67  0.100000000000023 138.17  0.100000000000023 89.37  C 0.100000000000023 40.57  40.6 0.0699999999999932  89.4 0.0699999999999932  C 119.7 0.0699999999999932  146.5 15.37  162.4 38.67  C 162.4 38.67  158.2 41.47  158.2 41.47  C 143.2 19.47  118 5.06999999999999  89.4 5.06999999999999  C 43.4 5.06999999999999  5.10000000000002 43.37  5.10000000000002 89.37  C 5.10000000000002 135.37  43.4 172.67  89.4 172.67  Z " stroke-width="2" stroke="#ffcd55" fill="none" transform="matrix(1 0 0 1 960 7138 )" mask="url(#clip461)" />
  </g>
</svg>