<svg xmlns="http://www.w3.org/2000/svg" xmlns:xlink="http://www.w3.org/1999/xlink" width="21" height="21" version="1.1"><defs><mask id="clip1740" fill="#fff"><path fill-rule="evenodd" d="M 10.615 20.655 C 10.615 20.655 0.465000000000032 10.755 0.465000000000032 10.755 C 0.465000000000032 10.755 10.615 0.605000000000018 10.615 0.605000000000018 C 10.615 0.605000000000018 20.515 10.755 20.515 10.755 C 20.515 10.755 10.615 20.655 10.615 20.655 Z"/></mask></defs><g><path fill="#2f7a8e" fill-rule="nonzero" stroke="none" d="M 10.615 20.655 C 10.615 20.655 0.465000000000032 10.755 0.465000000000032 10.755 C 0.465000000000032 10.755 10.615 0.605000000000018 10.615 0.605000000000018 C 10.615 0.605000000000018 20.515 10.755 20.515 10.755 C 20.515 10.755 10.615 20.655 10.615 20.655 Z" transform="matrix(1 0 0 1 -907 -4531 ) matrix(1 0 0 1 907 4531 )"/><path fill="none" stroke="#2f7a8e" stroke-width=".5" d="M 10.615 20.655 C 10.615 20.655 0.465000000000032 10.755 0.465000000000032 10.755 C 0.465000000000032 10.755 10.615 0.605000000000018 10.615 0.605000000000018 C 10.615 0.605000000000018 20.515 10.755 20.515 10.755 C 20.515 10.755 10.615 20.655 10.615 20.655 Z" mask="url(#clip1740)" transform="matrix(1 0 0 1 -907 -4531 ) matrix(1 0 0 1 907 4531 )"/></g></svg>