<?xml version="1.0" encoding="utf-8"?>
<svg version="1.1" xmlns:xlink="http://www.w3.org/1999/xlink" width="76px" height="76px" xmlns="http://www.w3.org/2000/svg">
  <defs>
    <mask fill="white" id="clip291">
      <path d="M 38.3099999999999 75.68  C 17.71 75.68  0.00999999999999091 58.98  0.00999999999999091 38.38  C 0.00999999999999091 17.78  17.71 0.0799999999999983  38.3099999999999 0.0799999999999983  C 58.91 0.0799999999999983  75.61 17.78  75.61 38.38  C 75.61 58.98  58.91 75.68  38.3099999999999 75.68  Z " fill-rule="evenodd" />
    </mask>
  </defs>
  <g transform="matrix(1 0 0 1 -913 -4950 )">
    <path d="M 38.3099999999999 75.68  C 17.71 75.68  0.00999999999999091 58.98  0.00999999999999091 38.38  C 0.00999999999999091 17.78  17.71 0.0799999999999983  38.3099999999999 0.0799999999999983  C 58.91 0.0799999999999983  75.61 17.78  75.61 38.38  C 75.61 58.98  58.91 75.68  38.3099999999999 75.68  Z " fill-rule="nonzero" fill="#8bc0d3" stroke="none" transform="matrix(1 0 0 1 913 4950 )" />
    <path d="M 38.3099999999999 75.68  C 17.71 75.68  0.00999999999999091 58.98  0.00999999999999091 38.38  C 0.00999999999999091 17.78  17.71 0.0799999999999983  38.3099999999999 0.0799999999999983  C 58.91 0.0799999999999983  75.61 17.78  75.61 38.38  C 75.61 58.98  58.91 75.68  38.3099999999999 75.68  Z " stroke-width="2" stroke="#8bc0d3" fill="none" transform="matrix(1 0 0 1 913 4950 )" mask="url(#clip291)" />
  </g>
</svg>