<?xml version="1.0" encoding="utf-8"?>
<svg version="1.1" xmlns:xlink="http://www.w3.org/1999/xlink" width="377px" height="305px" xmlns="http://www.w3.org/2000/svg">
  <defs>
    <mask fill="white" id="clip2338">
      <path d="M 12.07 304.34  C 12.07 304.34  365.37 304.34  365.37 304.34  C 371.57 304.34  376.67 299.24  376.67 293.04  C 376.67 293.04  376.67 11.84  376.67 11.84  C 376.67 5.64000000000004  371.57 0.54000000000002  365.37 0.54000000000002  C 365.37 0.54000000000002  12.07 0.54000000000002  12.07 0.54000000000002  C 5.87 0.54000000000002  0.769999999999982 5.64000000000004  0.769999999999982 11.84  C 0.769999999999982 11.84  0.769999999999982 293.04  0.769999999999982 293.04  C 0.769999999999982 299.24  5.87 304.34  12.07 304.34  Z " fill-rule="evenodd" />
    </mask>
  </defs>
  <g transform="matrix(1 0 0 1 -411 -17400 )">
    <path d="M 12.07 304.34  C 12.07 304.34  365.37 304.34  365.37 304.34  C 371.57 304.34  376.67 299.24  376.67 293.04  C 376.67 293.04  376.67 11.84  376.67 11.84  C 376.67 5.64000000000004  371.57 0.54000000000002  365.37 0.54000000000002  C 365.37 0.54000000000002  12.07 0.54000000000002  12.07 0.54000000000002  C 5.87 0.54000000000002  0.769999999999982 5.64000000000004  0.769999999999982 11.84  C 0.769999999999982 11.84  0.769999999999982 293.04  0.769999999999982 293.04  C 0.769999999999982 299.24  5.87 304.34  12.07 304.34  Z " fill-rule="nonzero" fill="#ffffff" stroke="none" fill-opacity="0" transform="matrix(1 0 0 1 411 17400 )" />
    <path d="M 12.07 304.34  C 12.07 304.34  365.37 304.34  365.37 304.34  C 371.57 304.34  376.67 299.24  376.67 293.04  C 376.67 293.04  376.67 11.84  376.67 11.84  C 376.67 5.64000000000004  371.57 0.54000000000002  365.37 0.54000000000002  C 365.37 0.54000000000002  12.07 0.54000000000002  12.07 0.54000000000002  C 5.87 0.54000000000002  0.769999999999982 5.64000000000004  0.769999999999982 11.84  C 0.769999999999982 11.84  0.769999999999982 293.04  0.769999999999982 293.04  C 0.769999999999982 299.24  5.87 304.34  12.07 304.34  Z " stroke-width="2" stroke="#cad4cc" fill="none" transform="matrix(1 0 0 1 411 17400 )" mask="url(#clip2338)" />
  </g>
</svg>