<?xml version="1.0" encoding="utf-8"?>
<svg version="1.1" xmlns:xlink="http://www.w3.org/1999/xlink" width="97px" height="232px" xmlns="http://www.w3.org/2000/svg">
  <defs>
    <mask fill="white" id="clip880">
      <path d="M 0.75 231.3  C 0.75 231.3  0.75 0.899999999999977  0.75 0.899999999999977  C 0.75 0.899999999999977  96.95 0.899999999999977  96.95 0.899999999999977  C 96.95 0.899999999999977  96.95 231.3  96.95 231.3  C 96.95 231.3  0.75 231.3  0.75 231.3  Z " fill-rule="evenodd" />
    </mask>
  </defs>
  <g transform="matrix(1 0 0 1 -236 -14787 )">
    <path d="M 0.75 231.3  C 0.75 231.3  0.75 0.899999999999977  0.75 0.899999999999977  C 0.75 0.899999999999977  96.95 0.899999999999977  96.95 0.899999999999977  C 96.95 0.899999999999977  96.95 231.3  96.95 231.3  C 96.95 231.3  0.75 231.3  0.75 231.3  Z " fill-rule="nonzero" fill="#ffffff" stroke="none" transform="matrix(1 0 0 1 236 14787 )" />
    <path d="M 0.75 231.3  C 0.75 231.3  0.75 0.899999999999977  0.75 0.899999999999977  C 0.75 0.899999999999977  96.95 0.899999999999977  96.95 0.899999999999977  C 96.95 0.899999999999977  96.95 231.3  96.95 231.3  C 96.95 231.3  0.75 231.3  0.75 231.3  Z " stroke-width="2" stroke="#d2d2d2" fill="none" transform="matrix(1 0 0 1 236 14787 )" mask="url(#clip880)" />
  </g>
</svg>