<?xml version="1.0" encoding="utf-8"?>
<svg version="1.1" xmlns:xlink="http://www.w3.org/1999/xlink" width="68px" height="105px" xmlns="http://www.w3.org/2000/svg">
  <defs>
    <mask fill="white" id="clip1936">
      <path d="M 67.41 99.27  C 67.41 99.27  67.41 104.27  67.41 104.27  C 31.01 104.27  0.509999999999991 73.77  0.509999999999991 37.37  C 0.509999999999991 23.67  4.71000000000004 10.87  11.91 0.370000000000005  C 11.91 0.370000000000005  16.01 3.17000000000002  16.01 3.17000000000002  C 9.40999999999997 12.87  5.50999999999999 24.67  5.50999999999999 37.37  C 5.50999999999999 70.97  33.8099999999999 99.27  67.41 99.27  Z " fill-rule="evenodd" />
    </mask>
  </defs>
  <g transform="matrix(1 0 0 1 -982 -7189 )">
    <path d="M 67.41 99.27  C 67.41 99.27  67.41 104.27  67.41 104.27  C 31.01 104.27  0.509999999999991 73.77  0.509999999999991 37.37  C 0.509999999999991 23.67  4.71000000000004 10.87  11.91 0.370000000000005  C 11.91 0.370000000000005  16.01 3.17000000000002  16.01 3.17000000000002  C 9.40999999999997 12.87  5.50999999999999 24.67  5.50999999999999 37.37  C 5.50999999999999 70.97  33.8099999999999 99.27  67.41 99.27  Z " fill-rule="nonzero" fill="#2da2bf" stroke="none" transform="matrix(1 0 0 1 982 7189 )" />
    <path d="M 67.41 99.27  C 67.41 99.27  67.41 104.27  67.41 104.27  C 31.01 104.27  0.509999999999991 73.77  0.509999999999991 37.37  C 0.509999999999991 23.67  4.71000000000004 10.87  11.91 0.370000000000005  C 11.91 0.370000000000005  16.01 3.17000000000002  16.01 3.17000000000002  C 9.40999999999997 12.87  5.50999999999999 24.67  5.50999999999999 37.37  C 5.50999999999999 70.97  33.8099999999999 99.27  67.41 99.27  Z " stroke-width="2" stroke="#2da2bf" fill="none" transform="matrix(1 0 0 1 982 7189 )" mask="url(#clip1936)" />
  </g>
</svg>