<svg xmlns="http://www.w3.org/2000/svg" xmlns:xlink="http://www.w3.org/1999/xlink" width="46" height="64" version="1.1"><defs><mask id="clip1814" fill="#fff"><path fill-rule="evenodd" d="M 13.61 59.5 C 13.61 59.5 4.41000000000008 63.5 4.41000000000008 63.5 C 2.00999999999999 58.1 0.710000000000036 52.1 0.710000000000036 45.8 C 0.710000000000036 21.7 21.11 1 45.11 0.600000000000023 C 45.11 0.600000000000023 45.3100000000001 10.6 45.3100000000001 10.6 C 26.71 10.9 10.71 27.1 10.71 45.8 C 10.71 50.7 11.71 55.3 13.61 59.5 Z"/></mask></defs><g><path fill="#34c2c2" fill-rule="nonzero" stroke="none" d="M 13.61 59.5 C 13.61 59.5 4.41000000000008 63.5 4.41000000000008 63.5 C 2.00999999999999 58.1 0.710000000000036 52.1 0.710000000000036 45.8 C 0.710000000000036 21.7 21.11 1 45.11 0.600000000000023 C 45.11 0.600000000000023 45.3100000000001 10.6 45.3100000000001 10.6 C 26.71 10.9 10.71 27.1 10.71 45.8 C 10.71 50.7 11.71 55.3 13.61 59.5 Z" transform="matrix(1 0 0 1 -801 -7154 ) matrix(1 0 0 1 801 7154 )"/><path fill="none" stroke="#34c2c2" stroke-width="2" d="M 13.61 59.5 C 13.61 59.5 4.41000000000008 63.5 4.41000000000008 63.5 C 2.00999999999999 58.1 0.710000000000036 52.1 0.710000000000036 45.8 C 0.710000000000036 21.7 21.11 1 45.11 0.600000000000023 C 45.11 0.600000000000023 45.3100000000001 10.6 45.3100000000001 10.6 C 26.71 10.9 10.71 27.1 10.71 45.8 C 10.71 50.7 11.71 55.3 13.61 59.5 Z" mask="url(#clip1814)" transform="matrix(1 0 0 1 -801 -7154 ) matrix(1 0 0 1 801 7154 )"/></g></svg>