<svg xmlns="http://www.w3.org/2000/svg" xmlns:xlink="http://www.w3.org/1999/xlink" width="77" height="76" version="1.1"><defs><mask id="clip1756" fill="#fff"><path fill-rule="evenodd" d="M 39.06 75.68 C 18.46 75.68 0.759999999999991 58.98 0.759999999999991 38.38 C 0.759999999999991 17.78 18.46 0.0799999999999983 39.06 0.0799999999999983 C 59.66 0.0799999999999983 76.36 17.78 76.36 38.38 C 76.36 58.98 59.66 75.68 39.06 75.68 Z"/></mask></defs><g><path fill="#8bc0d3" fill-rule="nonzero" stroke="none" d="M 39.06 75.68 C 18.46 75.68 0.759999999999991 58.98 0.759999999999991 38.38 C 0.759999999999991 17.78 18.46 0.0799999999999983 39.06 0.0799999999999983 C 59.66 0.0799999999999983 76.36 17.78 76.36 38.38 C 76.36 58.98 59.66 75.68 39.06 75.68 Z" transform="matrix(1 0 0 1 -388 -4950 ) matrix(1 0 0 1 388 4950 )"/><path fill="none" stroke="#8bc0d3" stroke-width="2" d="M 39.06 75.68 C 18.46 75.68 0.759999999999991 58.98 0.759999999999991 38.38 C 0.759999999999991 17.78 18.46 0.0799999999999983 39.06 0.0799999999999983 C 59.66 0.0799999999999983 76.36 17.78 76.36 38.38 C 76.36 58.98 59.66 75.68 39.06 75.68 Z" mask="url(#clip1756)" transform="matrix(1 0 0 1 -388 -4950 ) matrix(1 0 0 1 388 4950 )"/></g></svg>