<svg xmlns="http://www.w3.org/2000/svg" xmlns:xlink="http://www.w3.org/1999/xlink" width="1124" height="14" version="1.1"><defs><mask id="clip1744" fill="#fff"><path fill-rule="evenodd" d="M 0.875 13.7950000000001 C 0.875 13.7950000000001 0.875 0.345000000000027 0.875 0.345000000000027 C 0.875 0.345000000000027 1123.625 0.345000000000027 1123.625 0.345000000000027 C 1123.625 0.345000000000027 1123.625 13.7950000000001 1123.625 13.7950000000001 C 1123.625 13.7950000000001 0.875 13.7950000000001 0.875 13.7950000000001 Z"/></mask></defs><g><path fill="#33b2c3" fill-rule="nonzero" stroke="none" d="M 0.875 13.7950000000001 C 0.875 13.7950000000001 0.875 0.345000000000027 0.875 0.345000000000027 C 0.875 0.345000000000027 1123.625 0.345000000000027 1123.625 0.345000000000027 C 1123.625 0.345000000000027 1123.625 13.7950000000001 1123.625 13.7950000000001 C 1123.625 13.7950000000001 0.875 13.7950000000001 0.875 13.7950000000001 Z" transform="matrix(1 0 0 1 -89 -4874 ) matrix(1 0 0 1 89 4874 )"/><path fill="none" stroke="#33b2c3" stroke-width=".5" d="M 0.875 13.7950000000001 C 0.875 13.7950000000001 0.875 0.345000000000027 0.875 0.345000000000027 C 0.875 0.345000000000027 1123.625 0.345000000000027 1123.625 0.345000000000027 C 1123.625 0.345000000000027 1123.625 13.7950000000001 1123.625 13.7950000000001 C 1123.625 13.7950000000001 0.875 13.7950000000001 0.875 13.7950000000001 Z" mask="url(#clip1744)" transform="matrix(1 0 0 1 -89 -4874 ) matrix(1 0 0 1 89 4874 )"/></g></svg>