<svg xmlns="http://www.w3.org/2000/svg" xmlns:xlink="http://www.w3.org/1999/xlink" width="155" height="4" version="1.1"><defs><mask id="clip1646" fill="#fff"><path fill-rule="evenodd" d="M 0.29000000000002 3.02 C 0.29000000000002 3.02 0.29000000000002 0.519999999999996 0.29000000000002 0.519999999999996 C 0.29000000000002 0.519999999999996 154.09 0.519999999999996 154.09 0.519999999999996 C 154.09 0.519999999999996 154.09 3.02 154.09 3.02 C 154.09 3.02 0.29000000000002 3.02 0.29000000000002 3.02 Z"/></mask></defs><g><path fill="#c33736" fill-rule="nonzero" stroke="none" d="M 0.29000000000002 3.02 C 0.29000000000002 3.02 0.29000000000002 0.519999999999996 0.29000000000002 0.519999999999996 C 0.29000000000002 0.519999999999996 154.09 0.519999999999996 154.09 0.519999999999996 C 154.09 0.519999999999996 154.09 3.02 154.09 3.02 C 154.09 3.02 0.29000000000002 3.02 0.29000000000002 3.02 Z" transform="matrix(1 0 0 1 -497 -561 ) matrix(1 0 0 1 497 561 )"/><path fill="none" stroke="#c33736" stroke-width="2" d="M 0.29000000000002 3.02 C 0.29000000000002 3.02 0.29000000000002 0.519999999999996 0.29000000000002 0.519999999999996 C 0.29000000000002 0.519999999999996 154.09 0.519999999999996 154.09 0.519999999999996 C 154.09 0.519999999999996 154.09 3.02 154.09 3.02 C 154.09 3.02 0.29000000000002 3.02 0.29000000000002 3.02 Z" mask="url(#clip1646)" transform="matrix(1 0 0 1 -497 -561 ) matrix(1 0 0 1 497 561 )"/></g></svg>