<svg xmlns="http://www.w3.org/2000/svg" xmlns:xlink="http://www.w3.org/1999/xlink" width="4" height="5" version="1.1"><defs><mask id="clip1898" fill="#fff"><path fill-rule="evenodd" d="M 1.78999999999999 4.48999999999998 C 1.28999999999999 4.48999999999998 0.789999999999992 3.88999999999999 0.789999999999992 3.19 C 0.789999999999992 2.48999999999998 1.28999999999999 0.889999999999986 1.78999999999999 0.889999999999986 C 2.38999999999999 0.889999999999986 3.88999999999999 2.48999999999998 3.88999999999999 3.19 C 3.88999999999999 3.88999999999999 2.38999999999999 4.48999999999998 1.78999999999999 4.48999999999998 Z"/></mask></defs><g><path fill="#3e3938" fill-rule="nonzero" stroke="none" d="M 1.78999999999999 4.48999999999998 C 1.28999999999999 4.48999999999998 0.789999999999992 3.88999999999999 0.789999999999992 3.19 C 0.789999999999992 2.48999999999998 1.28999999999999 0.889999999999986 1.78999999999999 0.889999999999986 C 2.38999999999999 0.889999999999986 3.88999999999999 2.48999999999998 3.88999999999999 3.19 C 3.88999999999999 3.88999999999999 2.38999999999999 4.48999999999998 1.78999999999999 4.48999999999998 Z" transform="matrix(1 0 0 1 -313 -6896 ) matrix(1 0 0 1 313 6896 )"/><path fill="none" stroke="#3e3938" stroke-width="2" d="M 1.78999999999999 4.48999999999998 C 1.28999999999999 4.48999999999998 0.789999999999992 3.88999999999999 0.789999999999992 3.19 C 0.789999999999992 2.48999999999998 1.28999999999999 0.889999999999986 1.78999999999999 0.889999999999986 C 2.38999999999999 0.889999999999986 3.88999999999999 2.48999999999998 3.88999999999999 3.19 C 3.88999999999999 3.88999999999999 2.38999999999999 4.48999999999998 1.78999999999999 4.48999999999998 Z" mask="url(#clip1898)" transform="matrix(1 0 0 1 -313 -6896 ) matrix(1 0 0 1 313 6896 )"/></g></svg>