<svg xmlns="http://www.w3.org/2000/svg" xmlns:xlink="http://www.w3.org/1999/xlink" width="151" height="119" version="1.1"><defs><radialGradient id="RadialGradient2585" cx="55.13" cy="212.92" r="188.9" gradientTransform="matrix(1 0 0 1 7.105427357601E-15 0 )" gradientUnits="userSpaceOnUse"><stop id="Stop2586" offset="0" stop-color="#fffbf3"/><stop id="Stop2587" offset="1" stop-color="#fffaf0"/></radialGradient><mask id="clip2588" fill="#fff"><path fill-rule="evenodd" d="M 12.78 118.16 C 4.78000000000003 106.26 0.28000000000003 91.36 0.28000000000003 76.46 C 0.28000000000003 35.26 34.58 0.960000000000008 75.78 0.960000000000008 C 116.88 0.960000000000008 150.28 35.26 150.28 76.46 C 150.28 91.36 145.78 106.26 137.68 118.16 C 137.68 118.16 12.78 118.16 12.78 118.16 Z"/></mask></defs><g><path fill="url(#RadialGradient2585)" fill-rule="nonzero" stroke="none" d="M 12.78 118.16 C 4.78000000000003 106.26 0.28000000000003 91.36 0.28000000000003 76.46 C 0.28000000000003 35.26 34.58 0.960000000000008 75.78 0.960000000000008 C 116.88 0.960000000000008 150.28 35.26 150.28 76.46 C 150.28 91.36 145.78 106.26 137.68 118.16 C 137.68 118.16 12.78 118.16 12.78 118.16 Z" transform="matrix(1 0 0 1 -360 -17164 ) matrix(1 0 0 1 360 17164 )"/><path fill="none" stroke="#969696" stroke-width="2" d="M 12.78 118.16 C 4.78000000000003 106.26 0.28000000000003 91.36 0.28000000000003 76.46 C 0.28000000000003 35.26 34.58 0.960000000000008 75.78 0.960000000000008 C 116.88 0.960000000000008 150.28 35.26 150.28 76.46 C 150.28 91.36 145.78 106.26 137.68 118.16 C 137.68 118.16 12.78 118.16 12.78 118.16 Z" mask="url(#clip2588)" transform="matrix(1 0 0 1 -360 -17164 ) matrix(1 0 0 1 360 17164 )"/></g></svg>