<svg xmlns="http://www.w3.org/2000/svg" xmlns:xlink="http://www.w3.org/1999/xlink" width="121" height="121" version="1.1"><defs><mask id="clip2659" fill="#fff"><path fill-rule="evenodd" d="M 60.3150000000001 120.945 C 27.215 120.945 0.315000000000055 93.795 0.315000000000055 60.595 C 0.315000000000055 27.495 27.215 0.594999999999999 60.3150000000001 0.594999999999999 C 93.5150000000001 0.594999999999999 120.665 27.495 120.665 60.595 C 120.665 93.795 93.5150000000001 120.945 60.3150000000001 120.945 Z"/></mask></defs><g><path fill="#fff" fill-opacity="0" fill-rule="nonzero" stroke="none" d="M 60.3150000000001 120.945 C 27.215 120.945 0.315000000000055 93.795 0.315000000000055 60.595 C 0.315000000000055 27.495 27.215 0.594999999999999 60.3150000000001 0.594999999999999 C 93.5150000000001 0.594999999999999 120.665 27.495 120.665 60.595 C 120.665 93.795 93.5150000000001 120.945 60.3150000000001 120.945 Z" transform="matrix(1 0 0 1 -968 -18990 ) matrix(1 0 0 1 968 18990 )"/><path fill="none" stroke="#2f7a8e" stroke-width=".5" d="M 60.3150000000001 120.945 C 27.215 120.945 0.315000000000055 93.795 0.315000000000055 60.595 C 0.315000000000055 27.495 27.215 0.594999999999999 60.3150000000001 0.594999999999999 C 93.5150000000001 0.594999999999999 120.665 27.495 120.665 60.595 C 120.665 93.795 93.5150000000001 120.945 60.3150000000001 120.945 Z" mask="url(#clip2659)" transform="matrix(1 0 0 1 -968 -18990 ) matrix(1 0 0 1 968 18990 )"/></g></svg>