<?xml version="1.0" encoding="utf-8"?>
<svg version="1.1" xmlns:xlink="http://www.w3.org/1999/xlink" width="10px" height="44px" xmlns="http://www.w3.org/2000/svg">
  <defs>
    <mask fill="white" id="clip458">
      <path d="M 0 43.13  C 0 43.13  0 0.829999999999998  0 0.829999999999998  C 0 0.829999999999998  10 0.829999999999998  10 0.829999999999998  C 10 0.829999999999998  10 43.13  10 43.13  C 10 43.13  0 43.13  0 43.13  Z " fill-rule="evenodd" />
    </mask>
  </defs>
  <g transform="matrix(1 0 0 1 -122 -10452 )">
    <path d="M 0 43.13  C 0 43.13  0 0.829999999999998  0 0.829999999999998  C 0 0.829999999999998  10 0.829999999999998  10 0.829999999999998  C 10 0.829999999999998  10 43.13  10 43.13  C 10 43.13  0 43.13  0 43.13  Z " fill-rule="nonzero" fill="#f99a6e" stroke="none" transform="matrix(1 0 0 1 122 10452 )" />
    <path d="M 0 43.13  C 0 43.13  0 0.829999999999998  0 0.829999999999998  C 0 0.829999999999998  10 0.829999999999998  10 0.829999999999998  C 10 0.829999999999998  10 43.13  10 43.13  C 10 43.13  0 43.13  0 43.13  Z " stroke-width="2" stroke="#f99a6e" fill="none" transform="matrix(1 0 0 1 122 10452 )" mask="url(#clip458)" />
  </g>
</svg>