<svg xmlns="http://www.w3.org/2000/svg" xmlns:xlink="http://www.w3.org/1999/xlink" width="24" height="25" version="1.1"><defs><mask id="clip2297" fill="#fff"><path fill-rule="evenodd" d="M 0.919999999999959 24.67 C 0.919999999999959 24.67 0.919999999999959 0.970000000000027 0.919999999999959 0.970000000000027 C 0.919999999999959 0.970000000000027 23.2199999999999 0.970000000000027 23.2199999999999 0.970000000000027 C 23.2199999999999 0.970000000000027 23.2199999999999 24.67 23.2199999999999 24.67 C 23.2199999999999 24.67 0.919999999999959 24.67 0.919999999999959 24.67 Z"/></mask></defs><g><path fill="#edc3a5" fill-rule="nonzero" stroke="none" d="M 0.919999999999959 24.67 C 0.919999999999959 24.67 0.919999999999959 0.970000000000027 0.919999999999959 0.970000000000027 C 0.919999999999959 0.970000000000027 23.2199999999999 0.970000000000027 23.2199999999999 0.970000000000027 C 23.2199999999999 0.970000000000027 23.2199999999999 24.67 23.2199999999999 24.67 C 23.2199999999999 24.67 0.919999999999959 24.67 0.919999999999959 24.67 Z" transform="matrix(1 0 0 1 -734 -14635 ) matrix(1 0 0 1 734 14635 )"/><path fill="none" stroke="#edc3a5" stroke-width="2" d="M 0.919999999999959 24.67 C 0.919999999999959 24.67 0.919999999999959 0.970000000000027 0.919999999999959 0.970000000000027 C 0.919999999999959 0.970000000000027 23.2199999999999 0.970000000000027 23.2199999999999 0.970000000000027 C 23.2199999999999 0.970000000000027 23.2199999999999 24.67 23.2199999999999 24.67 C 23.2199999999999 24.67 0.919999999999959 24.67 0.919999999999959 24.67 Z" mask="url(#clip2297)" transform="matrix(1 0 0 1 -734 -14635 ) matrix(1 0 0 1 734 14635 )"/></g></svg>