<?xml version="1.0" encoding="utf-8"?>
<svg version="1.1" xmlns:xlink="http://www.w3.org/1999/xlink" width="24px" height="24px" xmlns="http://www.w3.org/2000/svg">
  <defs>
    <mask fill="white" id="clip804">
      <path d="M 0.919999999999959 23.99  C 0.919999999999959 23.99  0.919999999999959 0.29000000000002  0.919999999999959 0.29000000000002  C 0.919999999999959 0.29000000000002  23.2199999999999 0.29000000000002  23.2199999999999 0.29000000000002  C 23.2199999999999 0.29000000000002  23.2199999999999 23.99  23.2199999999999 23.99  C 23.2199999999999 23.99  0.919999999999959 23.99  0.919999999999959 23.99  Z " fill-rule="evenodd" />
    </mask>
  </defs>
  <g transform="matrix(1 0 0 1 -734 -14613 )">
    <path d="M 0.919999999999959 23.99  C 0.919999999999959 23.99  0.919999999999959 0.29000000000002  0.919999999999959 0.29000000000002  C 0.919999999999959 0.29000000000002  23.2199999999999 0.29000000000002  23.2199999999999 0.29000000000002  C 23.2199999999999 0.29000000000002  23.2199999999999 23.99  23.2199999999999 23.99  C 23.2199999999999 23.99  0.919999999999959 23.99  0.919999999999959 23.99  Z " fill-rule="nonzero" fill="#e6ac83" stroke="none" transform="matrix(1 0 0 1 734 14613 )" />
    <path d="M 0.919999999999959 23.99  C 0.919999999999959 23.99  0.919999999999959 0.29000000000002  0.919999999999959 0.29000000000002  C 0.919999999999959 0.29000000000002  23.2199999999999 0.29000000000002  23.2199999999999 0.29000000000002  C 23.2199999999999 0.29000000000002  23.2199999999999 23.99  23.2199999999999 23.99  C 23.2199999999999 23.99  0.919999999999959 23.99  0.919999999999959 23.99  Z " stroke-width="2" stroke="#e6ac83" fill="none" transform="matrix(1 0 0 1 734 14613 )" mask="url(#clip804)" />
  </g>
</svg>