<svg xmlns="http://www.w3.org/2000/svg" xmlns:xlink="http://www.w3.org/1999/xlink" width="10" height="44" version="1.1"><defs><mask id="clip2010" fill="#fff"><path fill-rule="evenodd" d="M 0 43.13 C 0 43.13 0 0.829999999999998 0 0.829999999999998 C 0 0.829999999999998 10 0.829999999999998 10 0.829999999999998 C 10 0.829999999999998 10 43.13 10 43.13 C 10 43.13 0 43.13 0 43.13 Z"/></mask></defs><g><path fill="#f99a6e" fill-rule="nonzero" stroke="none" d="M 0 43.13 C 0 43.13 0 0.829999999999998 0 0.829999999999998 C 0 0.829999999999998 10 0.829999999999998 10 0.829999999999998 C 10 0.829999999999998 10 43.13 10 43.13 C 10 43.13 0 43.13 0 43.13 Z" transform="matrix(1 0 0 1 -122 -10452 ) matrix(1 0 0 1 122 10452 )"/><path fill="none" stroke="#f99a6e" stroke-width="2" d="M 0 43.13 C 0 43.13 0 0.829999999999998 0 0.829999999999998 C 0 0.829999999999998 10 0.829999999999998 10 0.829999999999998 C 10 0.829999999999998 10 43.13 10 43.13 C 10 43.13 0 43.13 0 43.13 Z" mask="url(#clip2010)" transform="matrix(1 0 0 1 -122 -10452 ) matrix(1 0 0 1 122 10452 )"/></g></svg>