<svg xmlns="http://www.w3.org/2000/svg" xmlns:xlink="http://www.w3.org/1999/xlink" width="214" height="167" version="1.1"><defs><linearGradient id="LinearGradient2405" x1="-11.57" x2="225.43" y1="28.3" y2="139.3" gradientUnits="userSpaceOnUse"><stop id="Stop2406" offset="0" stop-color="#fff"/><stop id="Stop2407" offset=".2" stop-color="#e0e0e0"/><stop id="Stop2408" offset=".85" stop-color="#7d7d7d"/><stop id="Stop2409" offset="1" stop-color="#7d7d7d"/></linearGradient><mask id="clip2410" fill="#fff"><path fill-rule="evenodd" d="M 18.73 166.9 C 7.23000000000002 150 0.930000000000007 128.8 0.930000000000007 107.6 C 0.930000000000007 49.2 48.33 0.800000000000011 106.73 0.800000000000011 C 165.23 0.800000000000011 213.63 49.2 213.63 107.6 C 213.63 128.8 207.23 150 195.83 166.9 C 195.83 166.9 18.73 166.9 18.73 166.9 Z"/></mask></defs><g><path fill="url(#LinearGradient2405)" fill-rule="nonzero" stroke="none" d="M 18.73 166.9 C 7.23000000000002 150 0.930000000000007 128.8 0.930000000000007 107.6 C 0.930000000000007 49.2 48.33 0.800000000000011 106.73 0.800000000000011 C 165.23 0.800000000000011 213.63 49.2 213.63 107.6 C 213.63 128.8 207.23 150 195.83 166.9 C 195.83 166.9 18.73 166.9 18.73 166.9 Z" transform="matrix(1 0 0 1 -543 -16331 ) matrix(1 0 0 1 543 16331 )"/><path fill="none" stroke="#909090" stroke-width="2" d="M 18.73 166.9 C 7.23000000000002 150 0.930000000000007 128.8 0.930000000000007 107.6 C 0.930000000000007 49.2 48.33 0.800000000000011 106.73 0.800000000000011 C 165.23 0.800000000000011 213.63 49.2 213.63 107.6 C 213.63 128.8 207.23 150 195.83 166.9 C 195.83 166.9 18.73 166.9 18.73 166.9 Z" mask="url(#clip2410)" transform="matrix(1 0 0 1 -543 -16331 ) matrix(1 0 0 1 543 16331 )"/></g></svg>