<svg xmlns="http://www.w3.org/2000/svg" xmlns:xlink="http://www.w3.org/1999/xlink" width="19" height="19" version="1.1"><defs><mask id="clip1845" fill="#fff"><path fill-rule="evenodd" d="M 10.23 18.72 C 5.63000000000005 18.72 0.830000000000041 15.02 0.830000000000041 10.32 C 0.830000000000041 5.72000000000003 5.63000000000005 0.920000000000016 10.23 0.920000000000016 C 14.83 0.920000000000016 18.6300000000001 5.72000000000003 18.6300000000001 10.32 C 18.6300000000001 15.02 14.83 18.72 10.23 18.72 Z"/></mask></defs><g><path fill="#595757" fill-rule="nonzero" stroke="none" d="M 10.23 18.72 C 5.63000000000005 18.72 0.830000000000041 15.02 0.830000000000041 10.32 C 0.830000000000041 5.72000000000003 5.63000000000005 0.920000000000016 10.23 0.920000000000016 C 14.83 0.920000000000016 18.6300000000001 5.72000000000003 18.6300000000001 10.32 C 18.6300000000001 15.02 14.83 18.72 10.23 18.72 Z" transform="matrix(1 0 0 1 -363 -7088 ) matrix(1 0 0 1 363 7088 )"/><path fill="none" stroke="#595757" stroke-width="2" d="M 10.23 18.72 C 5.63000000000005 18.72 0.830000000000041 15.02 0.830000000000041 10.32 C 0.830000000000041 5.72000000000003 5.63000000000005 0.920000000000016 10.23 0.920000000000016 C 14.83 0.920000000000016 18.6300000000001 5.72000000000003 18.6300000000001 10.32 C 18.6300000000001 15.02 14.83 18.72 10.23 18.72 Z" mask="url(#clip1845)" transform="matrix(1 0 0 1 -363 -7088 ) matrix(1 0 0 1 363 7088 )"/></g></svg>