<svg xmlns="http://www.w3.org/2000/svg" xmlns:xlink="http://www.w3.org/1999/xlink" width="17" height="61" version="1.1"><defs><mask id="clip2568" fill="#fff"><path fill-rule="evenodd" d="M 12.004 0.404000000000025 C 12.004 0.404000000000025 0.175000000000011 54.775 0.175000000000011 54.775 C 0.175000000000011 54.775 9.38200000000001 56.077 9.38200000000001 56.077 C 9.38200000000001 56.077 12.004 0.404000000000025 12.004 0.404000000000025 Z"/></mask><filter id="filter2569" width="17" height="61" x="206" y="17183" filterUnits="userSpaceOnUse"><feOffset dx="0" dy="0" in="SourceAlpha" result="shadowOffsetInner"/><feGaussianBlur in="shadowOffsetInner" result="shadowGaussian" stdDeviation="1"/><feComposite in="SourceAlpha" in2="shadowGaussian" operator="atop" result="shadowComposite"/><feColorMatrix in="shadowComposite" type="matrix" values="0 0 0 0 0.501960784313725 0 0 0 0 0.501960784313725 0 0 0 0 0.501960784313725 0 0 0 1 0"/></filter><g id="widget2570"><path fill="#fff" fill-opacity="0" fill-rule="nonzero" stroke="none" d="M 12.004 0.404000000000025 C 12.004 0.404000000000025 0.175000000000011 54.775 0.175000000000011 54.775 C 0.175000000000011 54.775 9.38200000000001 56.077 9.38200000000001 56.077 C 9.38200000000001 56.077 12.004 0.404000000000025 12.004 0.404000000000025 Z" transform="matrix(1 0 0 1 208 17185 )"/><path fill="none" stroke="#952323" stroke-width="2" d="M 12.004 0.404000000000025 C 12.004 0.404000000000025 0.175000000000011 54.775 0.175000000000011 54.775 C 0.175000000000011 54.775 9.38200000000001 56.077 9.38200000000001 56.077 C 9.38200000000001 56.077 12.004 0.404000000000025 12.004 0.404000000000025 Z" mask="url(#clip2568)" transform="matrix(1 0 0 1 208 17185 )"/></g></defs><g transform="matrix(1 0 0 1 -206 -17183 )"><use filter="url(#filter2569)" xlink:href="#widget2570"/><use xlink:href="#widget2570"/></g></svg>