<?xml version="1.0" encoding="utf-8"?>
<svg version="1.1" xmlns:xlink="http://www.w3.org/1999/xlink" width="106px" height="91px" xmlns="http://www.w3.org/2000/svg">
  <defs>
    <mask fill="white" id="clip1134">
      <path d="M 102.9 71.63  C 102.9 71.63  105.7 89.33  105.7 89.33  C 101.2 90.03  96.7 90.43  92 90.43  C 43.4 90.43  1.80000000000001 49.63  0.400000000000006 1.43000000000001  C 0.400000000000006 1.43000000000001  18.4 0.829999999999984  18.4 0.829999999999984  C 19.5 39.53  53.1 72.43  92 72.43  C 95.8 72.43  99.4 72.23  102.9 71.63  Z " fill-rule="evenodd" />
    </mask>
  </defs>
  <g transform="matrix(1 0 0 1 -181 -19051 )">
    <path d="M 102.9 71.63  C 102.9 71.63  105.7 89.33  105.7 89.33  C 101.2 90.03  96.7 90.43  92 90.43  C 43.4 90.43  1.80000000000001 49.63  0.400000000000006 1.43000000000001  C 0.400000000000006 1.43000000000001  18.4 0.829999999999984  18.4 0.829999999999984  C 19.5 39.53  53.1 72.43  92 72.43  C 95.8 72.43  99.4 72.23  102.9 71.63  Z " fill-rule="nonzero" fill="#ebebeb" stroke="none" transform="matrix(1 0 0 1 181 19051 )" />
    <path d="M 102.9 71.63  C 102.9 71.63  105.7 89.33  105.7 89.33  C 101.2 90.03  96.7 90.43  92 90.43  C 43.4 90.43  1.80000000000001 49.63  0.400000000000006 1.43000000000001  C 0.400000000000006 1.43000000000001  18.4 0.829999999999984  18.4 0.829999999999984  C 19.5 39.53  53.1 72.43  92 72.43  C 95.8 72.43  99.4 72.23  102.9 71.63  Z " stroke-width="4" stroke="#ffffff" fill="none" transform="matrix(1 0 0 1 181 19051 )" mask="url(#clip1134)" />
  </g>
</svg>