<?xml version="1.0" encoding="utf-8"?>
<svg version="1.1" xmlns:xlink="http://www.w3.org/1999/xlink" width="23px" height="25px" xmlns="http://www.w3.org/2000/svg">
  <defs>
    <mask fill="white" id="clip817">
      <path d="M 0.220000000000027 24.28  C 0.220000000000027 24.28  0.220000000000027 0.580000000000041  0.220000000000027 0.580000000000041  C 0.220000000000027 0.580000000000041  22.52 0.580000000000041  22.52 0.580000000000041  C 22.52 0.580000000000041  22.52 24.28  22.52 24.28  C 22.52 24.28  0.220000000000027 24.28  0.220000000000027 24.28  Z " fill-rule="evenodd" />
    </mask>
  </defs>
  <g transform="matrix(1 0 0 1 -571 -14522 )">
    <path d="M 0.220000000000027 24.28  C 0.220000000000027 24.28  0.220000000000027 0.580000000000041  0.220000000000027 0.580000000000041  C 0.220000000000027 0.580000000000041  22.52 0.580000000000041  22.52 0.580000000000041  C 22.52 0.580000000000041  22.52 24.28  22.52 24.28  C 22.52 24.28  0.220000000000027 24.28  0.220000000000027 24.28  Z " fill-rule="nonzero" fill="#b2591a" stroke="none" transform="matrix(1 0 0 1 571 14522 )" />
    <path d="M 0.220000000000027 24.28  C 0.220000000000027 24.28  0.220000000000027 0.580000000000041  0.220000000000027 0.580000000000041  C 0.220000000000027 0.580000000000041  22.52 0.580000000000041  22.52 0.580000000000041  C 22.52 0.580000000000041  22.52 24.28  22.52 24.28  C 22.52 24.28  0.220000000000027 24.28  0.220000000000027 24.28  Z " stroke-width="2" stroke="#b2591a" fill="none" transform="matrix(1 0 0 1 571 14522 )" mask="url(#clip817)" />
  </g>
</svg>