<?xml version="1.0" encoding="utf-8"?>
<svg version="1.1" xmlns:xlink="http://www.w3.org/1999/xlink" width="23px" height="25px" xmlns="http://www.w3.org/2000/svg">
  <defs>
    <mask fill="white" id="clip824">
      <path d="M 0.0599999999999454 24.64  C 0.0599999999999454 24.64  0.0599999999999454 0.940000000000054  0.0599999999999454 0.940000000000054  C 0.0599999999999454 0.940000000000054  22.3599999999999 0.940000000000054  22.3599999999999 0.940000000000054  C 22.3599999999999 0.940000000000054  22.3599999999999 24.64  22.3599999999999 24.64  C 22.3599999999999 24.64  0.0599999999999454 24.64  0.0599999999999454 24.64  Z " fill-rule="evenodd" />
    </mask>
  </defs>
  <g transform="matrix(1 0 0 1 -681 -14567 )">
    <path d="M 0.0599999999999454 24.64  C 0.0599999999999454 24.64  0.0599999999999454 0.940000000000054  0.0599999999999454 0.940000000000054  C 0.0599999999999454 0.940000000000054  22.3599999999999 0.940000000000054  22.3599999999999 0.940000000000054  C 22.3599999999999 0.940000000000054  22.3599999999999 24.64  22.3599999999999 24.64  C 22.3599999999999 24.64  0.0599999999999454 24.64  0.0599999999999454 24.64  Z " fill-rule="nonzero" fill="#d97f40" stroke="none" transform="matrix(1 0 0 1 681 14567 )" />
    <path d="M 0.0599999999999454 24.64  C 0.0599999999999454 24.64  0.0599999999999454 0.940000000000054  0.0599999999999454 0.940000000000054  C 0.0599999999999454 0.940000000000054  22.3599999999999 0.940000000000054  22.3599999999999 0.940000000000054  C 22.3599999999999 0.940000000000054  22.3599999999999 24.64  22.3599999999999 24.64  C 22.3599999999999 24.64  0.0599999999999454 24.64  0.0599999999999454 24.64  Z " stroke-width="2" stroke="#d97f40" fill="none" transform="matrix(1 0 0 1 681 14567 )" mask="url(#clip824)" />
  </g>
</svg>