<svg xmlns="http://www.w3.org/2000/svg" xmlns:xlink="http://www.w3.org/1999/xlink" width="23" height="25" version="1.1"><defs><mask id="clip2295" fill="#fff"><path fill-rule="evenodd" d="M 0.0599999999999454 24.32 C 0.0599999999999454 24.32 0.0599999999999454 0.620000000000005 0.0599999999999454 0.620000000000005 C 0.0599999999999454 0.620000000000005 22.3599999999999 0.620000000000005 22.3599999999999 0.620000000000005 C 22.3599999999999 0.620000000000005 22.3599999999999 24.32 22.3599999999999 24.32 C 22.3599999999999 24.32 0.0599999999999454 24.32 0.0599999999999454 24.32 Z"/></mask></defs><g><path fill="#df9661" fill-rule="nonzero" stroke="none" d="M 0.0599999999999454 24.32 C 0.0599999999999454 24.32 0.0599999999999454 0.620000000000005 0.0599999999999454 0.620000000000005 C 0.0599999999999454 0.620000000000005 22.3599999999999 0.620000000000005 22.3599999999999 0.620000000000005 C 22.3599999999999 0.620000000000005 22.3599999999999 24.32 22.3599999999999 24.32 C 22.3599999999999 24.32 0.0599999999999454 24.32 0.0599999999999454 24.32 Z" transform="matrix(1 0 0 1 -681 -14590 ) matrix(1 0 0 1 681 14590 )"/><path fill="none" stroke="#df9661" stroke-width="2" d="M 0.0599999999999454 24.32 C 0.0599999999999454 24.32 0.0599999999999454 0.620000000000005 0.0599999999999454 0.620000000000005 C 0.0599999999999454 0.620000000000005 22.3599999999999 0.620000000000005 22.3599999999999 0.620000000000005 C 22.3599999999999 0.620000000000005 22.3599999999999 24.32 22.3599999999999 24.32 C 22.3599999999999 24.32 0.0599999999999454 24.32 0.0599999999999454 24.32 Z" mask="url(#clip2295)" transform="matrix(1 0 0 1 -681 -14590 ) matrix(1 0 0 1 681 14590 )"/></g></svg>