<svg xmlns="http://www.w3.org/2000/svg" xmlns:xlink="http://www.w3.org/1999/xlink" width="77" height="77" version="1.1"><g><path fill="#fdfff9" fill-rule="nonzero" stroke="none" d="M 76.8199999999999 38.38 C 76.8199999999999 59.4799999999999 59.8199999999999 76.4799999999999 38.72 76.4799999999999 C 17.6199999999999 76.4799999999999 0.519999999999982 59.4799999999999 0.519999999999982 38.38 C 0.519999999999982 17.28 17.6199999999999 0.17999999999995 38.72 0.17999999999995 C 59.8199999999999 0.17999999999995 76.8199999999999 17.28 76.8199999999999 38.38 Z M 10.52 38.38 C 10.52 53.88 23.1199999999999 66.4799999999999 38.72 66.4799999999999 C 54.22 66.4799999999999 66.8199999999999 53.88 66.8199999999999 38.38 C 66.8199999999999 22.78 54.22 10.18 38.72 10.18 C 23.1199999999999 10.18 10.52 22.78 10.52 38.38 Z" transform="matrix(1 0 0 1 -1093 -7401 ) matrix(1 0 0 1 1093 7401 )"/></g></svg>