<?xml version="1.0" encoding="utf-8"?>
<svg version="1.1" xmlns:xlink="http://www.w3.org/1999/xlink" width="77px" height="76px" xmlns="http://www.w3.org/2000/svg">
  <defs>
    <mask fill="white" id="clip284">
      <path d="M 39.06 75.68  C 18.46 75.68  0.759999999999991 58.98  0.759999999999991 38.38  C 0.759999999999991 17.78  18.46 0.0799999999999983  39.06 0.0799999999999983  C 59.66 0.0799999999999983  76.36 17.78  76.36 38.38  C 76.36 58.98  59.66 75.68  39.06 75.68  Z " fill-rule="evenodd" />
    </mask>
  </defs>
  <g transform="matrix(1 0 0 1 -388 -4950 )">
    <path d="M 39.06 75.68  C 18.46 75.68  0.759999999999991 58.98  0.759999999999991 38.38  C 0.759999999999991 17.78  18.46 0.0799999999999983  39.06 0.0799999999999983  C 59.66 0.0799999999999983  76.36 17.78  76.36 38.38  C 76.36 58.98  59.66 75.68  39.06 75.68  Z " fill-rule="nonzero" fill="#8bc0d3" stroke="none" transform="matrix(1 0 0 1 388 4950 )" />
    <path d="M 39.06 75.68  C 18.46 75.68  0.759999999999991 58.98  0.759999999999991 38.38  C 0.759999999999991 17.78  18.46 0.0799999999999983  39.06 0.0799999999999983  C 59.66 0.0799999999999983  76.36 17.78  76.36 38.38  C 76.36 58.98  59.66 75.68  39.06 75.68  Z " stroke-width="2" stroke="#8bc0d3" fill="none" transform="matrix(1 0 0 1 388 4950 )" mask="url(#clip284)" />
  </g>
</svg>