<?xml version="1.0" encoding="utf-8"?>
<svg version="1.1" xmlns:xlink="http://www.w3.org/1999/xlink" width="87px" height="491px" xmlns="http://www.w3.org/2000/svg">
  <defs>
    <mask fill="white" id="clip886">
      <path d="M 0 490.15  C 0 490.15  0 0.150000000000006  0 0.150000000000006  C 0 0.150000000000006  86.8 0.150000000000006  86.8 0.150000000000006  C 86.8 0.150000000000006  86.8 490.15  86.8 490.15  C 86.8 490.15  0 490.15  0 490.15  Z " fill-rule="evenodd" />
    </mask>
  </defs>
  <g transform="matrix(1 0 0 1 -650 -15248 )">
    <path d="M 0 490.15  C 0 490.15  0 0.150000000000006  0 0.150000000000006  C 0 0.150000000000006  86.8 0.150000000000006  86.8 0.150000000000006  C 86.8 0.150000000000006  86.8 490.15  86.8 490.15  C 86.8 490.15  0 490.15  0 490.15  Z " fill-rule="nonzero" fill="#ffffff" stroke="none" transform="matrix(1 0 0 1 650 15248 )" />
    <path d="M 0 490.15  C 0 490.15  0 0.150000000000006  0 0.150000000000006  C 0 0.150000000000006  86.8 0.150000000000006  86.8 0.150000000000006  C 86.8 0.150000000000006  86.8 490.15  86.8 490.15  C 86.8 490.15  0 490.15  0 490.15  Z " stroke-width="2" stroke="#d2d2d2" fill="none" transform="matrix(1 0 0 1 650 15248 )" mask="url(#clip886)" />
  </g>
</svg>