<?xml version="1.0" encoding="utf-8"?>
<svg version="1.1" xmlns:xlink="http://www.w3.org/1999/xlink" width="57px" height="60px" xmlns="http://www.w3.org/2000/svg">
  <defs>
    <mask fill="white" id="clip574">
      <path d="M 20.6900000000001 59.5899999999999  C 20.6900000000001 59.5899999999999  36.5899999999999 59.5899999999999  36.5899999999999 59.5899999999999  C 47.3900000000001 59.5899999999999  56.1900000000001 50.79  56.1900000000001 39.99  C 56.1900000000001 39.99  56.1900000000001 20.49  56.1900000000001 20.49  C 56.1900000000001 9.58999999999992  47.3900000000001 0.789999999999964  36.5899999999999 0.789999999999964  C 36.5899999999999 0.789999999999964  20.6900000000001 0.789999999999964  20.6900000000001 0.789999999999964  C 9.78999999999996 0.789999999999964  0.990000000000009 9.58999999999992  0.990000000000009 20.49  C 0.990000000000009 20.49  0.990000000000009 39.99  0.990000000000009 39.99  C 0.990000000000009 50.79  9.78999999999996 59.5899999999999  20.6900000000001 59.5899999999999  Z " fill-rule="evenodd" />
    </mask>
  </defs>
  <g transform="matrix(1 0 0 1 -1083 -13114 )">
    <path d="M 20.6900000000001 59.5899999999999  C 20.6900000000001 59.5899999999999  36.5899999999999 59.5899999999999  36.5899999999999 59.5899999999999  C 47.3900000000001 59.5899999999999  56.1900000000001 50.79  56.1900000000001 39.99  C 56.1900000000001 39.99  56.1900000000001 20.49  56.1900000000001 20.49  C 56.1900000000001 9.58999999999992  47.3900000000001 0.789999999999964  36.5899999999999 0.789999999999964  C 36.5899999999999 0.789999999999964  20.6900000000001 0.789999999999964  20.6900000000001 0.789999999999964  C 9.78999999999996 0.789999999999964  0.990000000000009 9.58999999999992  0.990000000000009 20.49  C 0.990000000000009 20.49  0.990000000000009 39.99  0.990000000000009 39.99  C 0.990000000000009 50.79  9.78999999999996 59.5899999999999  20.6900000000001 59.5899999999999  Z " fill-rule="nonzero" fill="#cdcece" stroke="none" fill-opacity="0.0784313725490196" transform="matrix(1 0 0 1 1083 13114 )" />
    <path d="M 20.6900000000001 59.5899999999999  C 20.6900000000001 59.5899999999999  36.5899999999999 59.5899999999999  36.5899999999999 59.5899999999999  C 47.3900000000001 59.5899999999999  56.1900000000001 50.79  56.1900000000001 39.99  C 56.1900000000001 39.99  56.1900000000001 20.49  56.1900000000001 20.49  C 56.1900000000001 9.58999999999992  47.3900000000001 0.789999999999964  36.5899999999999 0.789999999999964  C 36.5899999999999 0.789999999999964  20.6900000000001 0.789999999999964  20.6900000000001 0.789999999999964  C 9.78999999999996 0.789999999999964  0.990000000000009 9.58999999999992  0.990000000000009 20.49  C 0.990000000000009 20.49  0.990000000000009 39.99  0.990000000000009 39.99  C 0.990000000000009 50.79  9.78999999999996 59.5899999999999  20.6900000000001 59.5899999999999  Z " stroke-width="2" stroke="#cdcece" fill="none" stroke-opacity="0.0588235294117647" transform="matrix(1 0 0 1 1083 13114 )" mask="url(#clip574)" />
  </g>
</svg>