<?xml version="1.0" encoding="utf-8"?>
<svg version="1.1" xmlns:xlink="http://www.w3.org/1999/xlink" width="56px" height="60px" xmlns="http://www.w3.org/2000/svg">
  <defs>
    <mask fill="white" id="clip534">
      <path d="M 35.91 0.77000000000001  C 35.91 0.77000000000001  20.11 0.77000000000001  20.11 0.77000000000001  C 9.21 0.77000000000001  0.41 10.17  0.41 21.87  C 0.41 21.87  0.41 38.57  0.41 38.57  C 0.41 50.17  9.21 59.57  20.11 59.57  C 20.11 59.57  35.91 59.57  35.91 59.57  C 46.81 59.57  55.61 50.17  55.61 38.57  C 55.61 38.57  55.61 21.87  55.61 21.87  C 55.61 10.17  46.81 0.77000000000001  35.91 0.77000000000001  Z " fill-rule="evenodd" />
    </mask>
  </defs>
  <g transform="matrix(1 0 0 1 -101 -12539 )">
    <path d="M 35.91 0.77000000000001  C 35.91 0.77000000000001  20.11 0.77000000000001  20.11 0.77000000000001  C 9.21 0.77000000000001  0.41 10.17  0.41 21.87  C 0.41 21.87  0.41 38.57  0.41 38.57  C 0.41 50.17  9.21 59.57  20.11 59.57  C 20.11 59.57  35.91 59.57  35.91 59.57  C 46.81 59.57  55.61 50.17  55.61 38.57  C 55.61 38.57  55.61 21.87  55.61 21.87  C 55.61 10.17  46.81 0.77000000000001  35.91 0.77000000000001  Z " fill-rule="nonzero" fill="#cdcece" stroke="none" fill-opacity="0.0784313725490196" transform="matrix(1 0 0 1 101 12539 )" />
    <path d="M 35.91 0.77000000000001  C 35.91 0.77000000000001  20.11 0.77000000000001  20.11 0.77000000000001  C 9.21 0.77000000000001  0.41 10.17  0.41 21.87  C 0.41 21.87  0.41 38.57  0.41 38.57  C 0.41 50.17  9.21 59.57  20.11 59.57  C 20.11 59.57  35.91 59.57  35.91 59.57  C 46.81 59.57  55.61 50.17  55.61 38.57  C 55.61 38.57  55.61 21.87  55.61 21.87  C 55.61 10.17  46.81 0.77000000000001  35.91 0.77000000000001  Z " stroke-width="2" stroke="#cdcece" fill="none" stroke-opacity="0.0588235294117647" transform="matrix(1 0 0 1 101 12539 )" mask="url(#clip534)" />
  </g>
</svg>