<svg xmlns="http://www.w3.org/2000/svg" xmlns:xlink="http://www.w3.org/1999/xlink" width="57" height="60" version="1.1"><defs><mask id="clip2090" fill="#fff"><path fill-rule="evenodd" d="M 20.6900000000001 0.379999999999995 C 20.6900000000001 0.379999999999995 36.49 0.379999999999995 36.49 0.379999999999995 C 47.3900000000001 0.379999999999995 56.1900000000001 9.78 56.1900000000001 21.48 C 56.1900000000001 21.48 56.1900000000001 38.18 56.1900000000001 38.18 C 56.1900000000001 49.78 47.3900000000001 59.18 36.49 59.18 C 36.49 59.18 20.6900000000001 59.18 20.6900000000001 59.18 C 9.78999999999996 59.18 0.990000000000009 49.78 0.990000000000009 38.18 C 0.990000000000009 38.18 0.990000000000009 21.48 0.990000000000009 21.48 C 0.990000000000009 9.78 9.78999999999996 0.379999999999995 20.6900000000001 0.379999999999995 Z"/></mask></defs><g><path fill="#cdcece" fill-opacity=".078" fill-rule="nonzero" stroke="none" d="M 20.6900000000001 0.379999999999995 C 20.6900000000001 0.379999999999995 36.49 0.379999999999995 36.49 0.379999999999995 C 47.3900000000001 0.379999999999995 56.1900000000001 9.78 56.1900000000001 21.48 C 56.1900000000001 21.48 56.1900000000001 38.18 56.1900000000001 38.18 C 56.1900000000001 49.78 47.3900000000001 59.18 36.49 59.18 C 36.49 59.18 20.6900000000001 59.18 20.6900000000001 59.18 C 9.78999999999996 59.18 0.990000000000009 49.78 0.990000000000009 38.18 C 0.990000000000009 38.18 0.990000000000009 21.48 0.990000000000009 21.48 C 0.990000000000009 9.78 9.78999999999996 0.379999999999995 20.6900000000001 0.379999999999995 Z" transform="matrix(1 0 0 1 -1083 -12473 ) matrix(1 0 0 1 1083 12473 )"/><path fill="none" stroke="#cdcece" stroke-opacity=".059" stroke-width="2" d="M 20.6900000000001 0.379999999999995 C 20.6900000000001 0.379999999999995 36.49 0.379999999999995 36.49 0.379999999999995 C 47.3900000000001 0.379999999999995 56.1900000000001 9.78 56.1900000000001 21.48 C 56.1900000000001 21.48 56.1900000000001 38.18 56.1900000000001 38.18 C 56.1900000000001 49.78 47.3900000000001 59.18 36.49 59.18 C 36.49 59.18 20.6900000000001 59.18 20.6900000000001 59.18 C 9.78999999999996 59.18 0.990000000000009 49.78 0.990000000000009 38.18 C 0.990000000000009 38.18 0.990000000000009 21.48 0.990000000000009 21.48 C 0.990000000000009 9.78 9.78999999999996 0.379999999999995 20.6900000000001 0.379999999999995 Z" mask="url(#clip2090)" transform="matrix(1 0 0 1 -1083 -12473 ) matrix(1 0 0 1 1083 12473 )"/></g></svg>