<svg xmlns="http://www.w3.org/2000/svg" xmlns:xlink="http://www.w3.org/1999/xlink" width="24" height="25" version="1.1"><defs><mask id="clip1959" fill="#fff"><path fill-rule="evenodd" d="M 0.100000000000023 24.52 C 0.100000000000023 24.52 0.100000000000023 0.920000000000002 0.100000000000023 0.920000000000002 C 0.100000000000023 0.920000000000002 23.7 0.920000000000002 23.7 0.920000000000002 C 23.7 0.920000000000002 23.7 24.52 23.7 24.52 C 23.7 24.52 0.100000000000023 24.52 0.100000000000023 24.52 Z"/></mask></defs><g><path fill="#fff" fill-rule="nonzero" stroke="none" d="M 0.100000000000023 24.52 C 0.100000000000023 24.52 0.100000000000023 0.920000000000002 0.100000000000023 0.920000000000002 C 0.100000000000023 0.920000000000002 23.7 0.920000000000002 23.7 0.920000000000002 C 23.7 0.920000000000002 23.7 24.52 23.7 24.52 C 23.7 24.52 0.100000000000023 24.52 0.100000000000023 24.52 Z" transform="matrix(1 0 0 1 -426 -7814 ) matrix(1 0 0 1 426 7814 )"/><path fill="none" stroke="#fff" stroke-width="2" d="M 0.100000000000023 24.52 C 0.100000000000023 24.52 0.100000000000023 0.920000000000002 0.100000000000023 0.920000000000002 C 0.100000000000023 0.920000000000002 23.7 0.920000000000002 23.7 0.920000000000002 C 23.7 0.920000000000002 23.7 24.52 23.7 24.52 C 23.7 24.52 0.100000000000023 24.52 0.100000000000023 24.52 Z" mask="url(#clip1959)" transform="matrix(1 0 0 1 -426 -7814 ) matrix(1 0 0 1 426 7814 )"/></g></svg>