<?xml version="1.0" encoding="utf-8"?>
<svg version="1.1" xmlns:xlink="http://www.w3.org/1999/xlink" width="61px" height="14px" xmlns="http://www.w3.org/2000/svg">
  <defs>
    <mask fill="white" id="clip1047">
      <path d="M 56.1780000000001 2.80000000000001  C 56.1780000000001 2.80000000000001  0.555000000000064 0.365000000000009  0.555000000000064 0.365000000000009  C 0.555000000000064 0.365000000000009  0.83400000000006 9.66500000000002  0.83400000000006 9.66500000000002  C 0.83400000000006 9.66500000000002  56.1780000000001 2.80000000000001  56.1780000000001 2.80000000000001  Z " fill-rule="evenodd" />
    </mask>
    <filter x="432px" y="17233px" width="61px" height="14px" filterUnits="userSpaceOnUse" id="filter1048">
      <feOffset dx="0" dy="0" in="SourceAlpha" result="shadowOffsetInner" />
      <feGaussianBlur stdDeviation="1" in="shadowOffsetInner" result="shadowGaussian" />
      <feComposite in2="shadowGaussian" operator="atop" in="SourceAlpha" result="shadowComposite" />
      <feColorMatrix type="matrix" values="0 0 0 0 0.501960784313725  0 0 0 0 0.501960784313725  0 0 0 0 0.501960784313725  0 0 0 1 0  " in="shadowComposite" />
    </filter>
    <g id="widget1049">
      <path d="M 56.1780000000001 2.80000000000001  C 56.1780000000001 2.80000000000001  0.555000000000064 0.365000000000009  0.555000000000064 0.365000000000009  C 0.555000000000064 0.365000000000009  0.83400000000006 9.66500000000002  0.83400000000006 9.66500000000002  C 0.83400000000006 9.66500000000002  56.1780000000001 2.80000000000001  56.1780000000001 2.80000000000001  Z " fill-rule="nonzero" fill="#ffffff" stroke="none" fill-opacity="0" transform="matrix(1 0 0 1 434 17235 )" />
      <path d="M 56.1780000000001 2.80000000000001  C 56.1780000000001 2.80000000000001  0.555000000000064 0.365000000000009  0.555000000000064 0.365000000000009  C 0.555000000000064 0.365000000000009  0.83400000000006 9.66500000000002  0.83400000000006 9.66500000000002  C 0.83400000000006 9.66500000000002  56.1780000000001 2.80000000000001  56.1780000000001 2.80000000000001  Z " stroke-width="2.00089979759107" stroke="#952323" fill="none" transform="matrix(1 0 0 1 434 17235 )" mask="url(#clip1047)" />
    </g>
  </defs>
  <g transform="matrix(1 0 0 1 -432 -17233 )">
    <use xlink:href="#widget1049" filter="url(#filter1048)" />
    <use xlink:href="#widget1049" />
  </g>
</svg>