<svg xmlns="http://www.w3.org/2000/svg" xmlns:xlink="http://www.w3.org/1999/xlink" width="319" height="272" version="1.1"><defs><mask id="clip2238" fill="#fff"><path fill-rule="evenodd" d="M 11.91 271.09 C 11.91 271.09 306.81 271.09 306.81 271.09 C 313.11 271.09 318.11 265.99 318.11 259.79 C 318.11 259.79 318.11 12.29 318.11 12.29 C 318.11 6.09 313.11 0.990000000000009 306.81 0.990000000000009 C 306.81 0.990000000000009 11.91 0.990000000000009 11.91 0.990000000000009 C 5.71000000000004 0.990000000000009 0.610000000000014 6.09 0.610000000000014 12.29 C 0.610000000000014 12.29 0.610000000000014 259.79 0.610000000000014 259.79 C 0.610000000000014 265.99 5.71000000000004 271.09 11.91 271.09 Z"/></mask></defs><g><path fill="#f0f0f0" fill-rule="nonzero" stroke="none" d="M 11.91 271.09 C 11.91 271.09 306.81 271.09 306.81 271.09 C 313.11 271.09 318.11 265.99 318.11 259.79 C 318.11 259.79 318.11 12.29 318.11 12.29 C 318.11 6.09 313.11 0.990000000000009 306.81 0.990000000000009 C 306.81 0.990000000000009 11.91 0.990000000000009 11.91 0.990000000000009 C 5.71000000000004 0.990000000000009 0.610000000000014 6.09 0.610000000000014 12.29 C 0.610000000000014 12.29 0.610000000000014 259.79 0.610000000000014 259.79 C 0.610000000000014 265.99 5.71000000000004 271.09 11.91 271.09 Z" transform="matrix(1 0 0 1 -866 -14415 ) matrix(1 0 0 1 866 14415 )"/><path fill="none" stroke="#eee" stroke-width="2" d="M 11.91 271.09 C 11.91 271.09 306.81 271.09 306.81 271.09 C 313.11 271.09 318.11 265.99 318.11 259.79 C 318.11 259.79 318.11 12.29 318.11 12.29 C 318.11 6.09 313.11 0.990000000000009 306.81 0.990000000000009 C 306.81 0.990000000000009 11.91 0.990000000000009 11.91 0.990000000000009 C 5.71000000000004 0.990000000000009 0.610000000000014 6.09 0.610000000000014 12.29 C 0.610000000000014 12.29 0.610000000000014 259.79 0.610000000000014 259.79 C 0.610000000000014 265.99 5.71000000000004 271.09 11.91 271.09 Z" mask="url(#clip2238)" transform="matrix(1 0 0 1 -866 -14415 ) matrix(1 0 0 1 866 14415 )"/></g></svg>