<svg xmlns="http://www.w3.org/2000/svg" xmlns:xlink="http://www.w3.org/1999/xlink" width="4" height="3" version="1.1"><defs><mask id="clip1834" fill="#fff"><path fill-rule="evenodd" d="M 2.50999999999999 0.420000000000016 C 2.91000000000003 0.420000000000016 3.20999999999998 1.72000000000003 3.20999999999998 2.12 C 3.20999999999998 2.52000000000004 2.91000000000003 2.81999999999999 2.50999999999999 2.81999999999999 C 2.11000000000001 2.81999999999999 0.810000000000002 2.52000000000004 0.810000000000002 2.12 C 0.810000000000002 1.72000000000003 2.11000000000001 0.420000000000016 2.50999999999999 0.420000000000016 Z"/></mask></defs><g><path fill="#fff" fill-rule="nonzero" stroke="none" d="M 2.50999999999999 0.420000000000016 C 2.91000000000003 0.420000000000016 3.20999999999998 1.72000000000003 3.20999999999998 2.12 C 3.20999999999998 2.52000000000004 2.91000000000003 2.81999999999999 2.50999999999999 2.81999999999999 C 2.11000000000001 2.81999999999999 0.810000000000002 2.52000000000004 0.810000000000002 2.12 C 0.810000000000002 1.72000000000003 2.11000000000001 0.420000000000016 2.50999999999999 0.420000000000016 Z" transform="matrix(1 0 0 1 -396 -7217 ) matrix(1 0 0 1 396 7217 )"/><path fill="none" stroke="#fff" stroke-width="2" d="M 2.50999999999999 0.420000000000016 C 2.91000000000003 0.420000000000016 3.20999999999998 1.72000000000003 3.20999999999998 2.12 C 3.20999999999998 2.52000000000004 2.91000000000003 2.81999999999999 2.50999999999999 2.81999999999999 C 2.11000000000001 2.81999999999999 0.810000000000002 2.52000000000004 0.810000000000002 2.12 C 0.810000000000002 1.72000000000003 2.11000000000001 0.420000000000016 2.50999999999999 0.420000000000016 Z" mask="url(#clip1834)" transform="matrix(1 0 0 1 -396 -7217 ) matrix(1 0 0 1 396 7217 )"/></g></svg>