<svg xmlns="http://www.w3.org/2000/svg" xmlns:xlink="http://www.w3.org/1999/xlink" width="21" height="74" version="1.1"><defs><mask id="clip2495" fill="#fff"><path fill-rule="evenodd" d="M 16.096 0.872000000000071 C 16.096 0.872000000000071 0.495000000000005 67.635 0.495000000000005 67.635 C 0.495000000000005 67.635 11.583 69.2030000000001 11.583 69.2030000000001 C 11.583 69.2030000000001 16.096 0.872000000000071 16.096 0.872000000000071 Z"/></mask><filter id="filter2496" width="21" height="74" x="234" y="17498" filterUnits="userSpaceOnUse"><feOffset dx="0" dy="0" in="SourceAlpha" result="shadowOffsetInner"/><feGaussianBlur in="shadowOffsetInner" result="shadowGaussian" stdDeviation="1"/><feComposite in="SourceAlpha" in2="shadowGaussian" operator="atop" result="shadowComposite"/><feColorMatrix in="shadowComposite" type="matrix" values="0 0 0 0 0.501960784313725 0 0 0 0 0.501960784313725 0 0 0 0 0.501960784313725 0 0 0 1 0"/></filter><g id="widget2497"><path fill="#fff" fill-opacity="0" fill-rule="nonzero" stroke="none" d="M 16.096 0.872000000000071 C 16.096 0.872000000000071 0.495000000000005 67.635 0.495000000000005 67.635 C 0.495000000000005 67.635 11.583 69.2030000000001 11.583 69.2030000000001 C 11.583 69.2030000000001 16.096 0.872000000000071 16.096 0.872000000000071 Z" transform="matrix(1 0 0 1 236 17500 )"/><path fill="none" stroke="#952323" stroke-width="2" d="M 16.096 0.872000000000071 C 16.096 0.872000000000071 0.495000000000005 67.635 0.495000000000005 67.635 C 0.495000000000005 67.635 11.583 69.2030000000001 11.583 69.2030000000001 C 11.583 69.2030000000001 16.096 0.872000000000071 16.096 0.872000000000071 Z" mask="url(#clip2495)" transform="matrix(1 0 0 1 236 17500 )"/></g></defs><g transform="matrix(1 0 0 1 -234 -17498 )"><use filter="url(#filter2496)" xlink:href="#widget2497"/><use xlink:href="#widget2497"/></g></svg>