<?xml version="1.0" encoding="utf-8"?>
<svg version="1.1" xmlns:xlink="http://www.w3.org/1999/xlink" width="121px" height="121px" xmlns="http://www.w3.org/2000/svg">
  <defs>
    <mask fill="white" id="clip1132">
      <path d="M 60.165 120.945  C 27.0649999999999 120.945  0.164999999999964 93.795  0.164999999999964 60.595  C 0.164999999999964 27.495  27.0649999999999 0.594999999999999  60.165 0.594999999999999  C 93.365 0.594999999999999  120.515 27.495  120.515 60.595  C 120.515 93.795  93.365 120.945  60.165 120.945  Z " fill-rule="evenodd" />
    </mask>
  </defs>
  <g transform="matrix(1 0 0 1 -716 -18990 )">
    <path d="M 60.165 120.945  C 27.0649999999999 120.945  0.164999999999964 93.795  0.164999999999964 60.595  C 0.164999999999964 27.495  27.0649999999999 0.594999999999999  60.165 0.594999999999999  C 93.365 0.594999999999999  120.515 27.495  120.515 60.595  C 120.515 93.795  93.365 120.945  60.165 120.945  Z " fill-rule="nonzero" fill="#ffffff" stroke="none" fill-opacity="0" transform="matrix(1 0 0 1 716 18990 )" />
    <path d="M 60.165 120.945  C 27.0649999999999 120.945  0.164999999999964 93.795  0.164999999999964 60.595  C 0.164999999999964 27.495  27.0649999999999 0.594999999999999  60.165 0.594999999999999  C 93.365 0.594999999999999  120.515 27.495  120.515 60.595  C 120.515 93.795  93.365 120.945  60.165 120.945  Z " stroke-width="0.5" stroke="#fb9d53" fill="none" transform="matrix(1 0 0 1 716 18990 )" mask="url(#clip1132)" />
  </g>
</svg>