<?xml version="1.0" encoding="utf-8"?>
<svg version="1.1" xmlns:xlink="http://www.w3.org/1999/xlink" width="3px" height="3px" xmlns="http://www.w3.org/2000/svg">
  <defs>
    <mask fill="white" id="clip364">
      <path d="M 1.91000000000003 0.350000000000023  C 2.31000000000006 0.350000000000023  2.61000000000001 1.65000000000003  2.61000000000001 2.05000000000001  C 2.61000000000001 2.45000000000005  2.31000000000006 2.75  1.91000000000003 2.75  C 1.51000000000005 2.75  0.210000000000036 2.45000000000005  0.210000000000036 2.05000000000001  C 0.210000000000036 1.65000000000003  1.51000000000005 0.350000000000023  1.91000000000003 0.350000000000023  Z " fill-rule="evenodd" />
    </mask>
  </defs>
  <g transform="matrix(1 0 0 1 -419 -7230 )">
    <path d="M 1.91000000000003 0.350000000000023  C 2.31000000000006 0.350000000000023  2.61000000000001 1.65000000000003  2.61000000000001 2.05000000000001  C 2.61000000000001 2.45000000000005  2.31000000000006 2.75  1.91000000000003 2.75  C 1.51000000000005 2.75  0.210000000000036 2.45000000000005  0.210000000000036 2.05000000000001  C 0.210000000000036 1.65000000000003  1.51000000000005 0.350000000000023  1.91000000000003 0.350000000000023  Z " fill-rule="nonzero" fill="#ffffff" stroke="none" transform="matrix(1 0 0 1 419 7230 )" />
    <path d="M 1.91000000000003 0.350000000000023  C 2.31000000000006 0.350000000000023  2.61000000000001 1.65000000000003  2.61000000000001 2.05000000000001  C 2.61000000000001 2.45000000000005  2.31000000000006 2.75  1.91000000000003 2.75  C 1.51000000000005 2.75  0.210000000000036 2.45000000000005  0.210000000000036 2.05000000000001  C 0.210000000000036 1.65000000000003  1.51000000000005 0.350000000000023  1.91000000000003 0.350000000000023  Z " stroke-width="2" stroke="#ffffff" fill="none" transform="matrix(1 0 0 1 419 7230 )" mask="url(#clip364)" />
  </g>
</svg>