<?xml version="1.0" encoding="utf-8"?>
<svg version="1.1" xmlns:xlink="http://www.w3.org/1999/xlink" width="56px" height="60px" xmlns="http://www.w3.org/2000/svg">
  <defs>
    <mask fill="white" id="clip553">
      <path d="M 36.21 59.2099999999999  C 36.21 59.2099999999999  20.31 59.2099999999999  20.31 59.2099999999999  C 9.50999999999999 59.2099999999999  0.709999999999994 50.41  0.709999999999994 39.61  C 0.709999999999994 39.61  0.709999999999994 20.11  0.709999999999994 20.11  C 0.709999999999994 9.20999999999992  9.50999999999999 0.409999999999968  20.31 0.409999999999968  C 20.31 0.409999999999968  36.21 0.409999999999968  36.21 0.409999999999968  C 47.11 0.409999999999968  55.91 9.20999999999992  55.91 20.11  C 55.91 20.11  55.91 39.61  55.91 39.61  C 55.91 50.41  47.11 59.2099999999999  36.21 59.2099999999999  Z " fill-rule="evenodd" />
    </mask>
  </defs>
  <g transform="matrix(1 0 0 1 -162 -13048 )">
    <path d="M 36.21 59.2099999999999  C 36.21 59.2099999999999  20.31 59.2099999999999  20.31 59.2099999999999  C 9.50999999999999 59.2099999999999  0.709999999999994 50.41  0.709999999999994 39.61  C 0.709999999999994 39.61  0.709999999999994 20.11  0.709999999999994 20.11  C 0.709999999999994 9.20999999999992  9.50999999999999 0.409999999999968  20.31 0.409999999999968  C 20.31 0.409999999999968  36.21 0.409999999999968  36.21 0.409999999999968  C 47.11 0.409999999999968  55.91 9.20999999999992  55.91 20.11  C 55.91 20.11  55.91 39.61  55.91 39.61  C 55.91 50.41  47.11 59.2099999999999  36.21 59.2099999999999  Z " fill-rule="nonzero" fill="#dcdcdd" stroke="none" fill-opacity="0.0784313725490196" transform="matrix(1 0 0 1 162 13048 )" />
    <path d="M 36.21 59.2099999999999  C 36.21 59.2099999999999  20.31 59.2099999999999  20.31 59.2099999999999  C 9.50999999999999 59.2099999999999  0.709999999999994 50.41  0.709999999999994 39.61  C 0.709999999999994 39.61  0.709999999999994 20.11  0.709999999999994 20.11  C 0.709999999999994 9.20999999999992  9.50999999999999 0.409999999999968  20.31 0.409999999999968  C 20.31 0.409999999999968  36.21 0.409999999999968  36.21 0.409999999999968  C 47.11 0.409999999999968  55.91 9.20999999999992  55.91 20.11  C 55.91 20.11  55.91 39.61  55.91 39.61  C 55.91 50.41  47.11 59.2099999999999  36.21 59.2099999999999  Z " stroke-width="2" stroke="#dcdcdd" fill="none" stroke-opacity="0.0588235294117647" transform="matrix(1 0 0 1 162 13048 )" mask="url(#clip553)" />
  </g>
</svg>