<svg xmlns="http://www.w3.org/2000/svg" xmlns:xlink="http://www.w3.org/1999/xlink" width="56" height="60" version="1.1"><defs><mask id="clip2082" fill="#fff"><path fill-rule="evenodd" d="M 35.91 0.77000000000001 C 35.91 0.77000000000001 20.11 0.77000000000001 20.11 0.77000000000001 C 9.21 0.77000000000001 0.41 10.17 0.41 21.87 C 0.41 21.87 0.41 38.57 0.41 38.57 C 0.41 50.17 9.21 59.57 20.11 59.57 C 20.11 59.57 35.91 59.57 35.91 59.57 C 46.81 59.57 55.61 50.17 55.61 38.57 C 55.61 38.57 55.61 21.87 55.61 21.87 C 55.61 10.17 46.81 0.77000000000001 35.91 0.77000000000001 Z"/></mask></defs><g><path fill="#cdcece" fill-opacity=".078" fill-rule="nonzero" stroke="none" d="M 35.91 0.77000000000001 C 35.91 0.77000000000001 20.11 0.77000000000001 20.11 0.77000000000001 C 9.21 0.77000000000001 0.41 10.17 0.41 21.87 C 0.41 21.87 0.41 38.57 0.41 38.57 C 0.41 50.17 9.21 59.57 20.11 59.57 C 20.11 59.57 35.91 59.57 35.91 59.57 C 46.81 59.57 55.61 50.17 55.61 38.57 C 55.61 38.57 55.61 21.87 55.61 21.87 C 55.61 10.17 46.81 0.77000000000001 35.91 0.77000000000001 Z" transform="matrix(1 0 0 1 -101 -12539 ) matrix(1 0 0 1 101 12539 )"/><path fill="none" stroke="#cdcece" stroke-opacity=".059" stroke-width="2" d="M 35.91 0.77000000000001 C 35.91 0.77000000000001 20.11 0.77000000000001 20.11 0.77000000000001 C 9.21 0.77000000000001 0.41 10.17 0.41 21.87 C 0.41 21.87 0.41 38.57 0.41 38.57 C 0.41 50.17 9.21 59.57 20.11 59.57 C 20.11 59.57 35.91 59.57 35.91 59.57 C 46.81 59.57 55.61 50.17 55.61 38.57 C 55.61 38.57 55.61 21.87 55.61 21.87 C 55.61 10.17 46.81 0.77000000000001 35.91 0.77000000000001 Z" mask="url(#clip2082)" transform="matrix(1 0 0 1 -101 -12539 ) matrix(1 0 0 1 101 12539 )"/></g></svg>