<svg xmlns="http://www.w3.org/2000/svg" xmlns:xlink="http://www.w3.org/1999/xlink" width="322" height="24" version="1.1"><defs><mask id="clip2275" fill="#fff"><path fill-rule="evenodd" d="M 0.780000000000001 23.96 C 0.780000000000001 23.96 0.780000000000001 0.95999999999998 0.780000000000001 0.95999999999998 C 0.780000000000001 0.95999999999998 321.28 0.95999999999998 321.28 0.95999999999998 C 321.28 0.95999999999998 321.28 23.96 321.28 23.96 C 321.28 23.96 0.780000000000001 23.96 0.780000000000001 23.96 Z"/></mask></defs><g><path fill="#fafafa" fill-rule="nonzero" stroke="none" d="M 0.780000000000001 23.96 C 0.780000000000001 23.96 0.780000000000001 0.95999999999998 0.780000000000001 0.95999999999998 C 0.780000000000001 0.95999999999998 321.28 0.95999999999998 321.28 0.95999999999998 C 321.28 0.95999999999998 321.28 23.96 321.28 23.96 C 321.28 23.96 0.780000000000001 23.96 0.780000000000001 23.96 Z" transform="matrix(1 0 0 1 -158 -14597 ) matrix(1 0 0 1 158 14597 )"/><path fill="none" stroke="silver" stroke-width="2" d="M 0.780000000000001 23.96 C 0.780000000000001 23.96 0.780000000000001 0.95999999999998 0.780000000000001 0.95999999999998 C 0.780000000000001 0.95999999999998 321.28 0.95999999999998 321.28 0.95999999999998 C 321.28 0.95999999999998 321.28 23.96 321.28 23.96 C 321.28 23.96 0.780000000000001 23.96 0.780000000000001 23.96 Z" mask="url(#clip2275)" transform="matrix(1 0 0 1 -158 -14597 ) matrix(1 0 0 1 158 14597 )"/></g></svg>