<?xml version="1.0" encoding="utf-8"?>
<svg version="1.1" xmlns:xlink="http://www.w3.org/1999/xlink" width="14px" height="14px" xmlns="http://www.w3.org/2000/svg">
  <defs>
    <mask fill="white" id="clip1923">
      <path d="M 6.51999999999998 13.06  C 3.41999999999996 13.06  0.819999999999936 9.46000000000001  0.819999999999936 6.26000000000002  C 0.819999999999936 3.06  3.41999999999996 0.460000000000008  6.51999999999998 0.460000000000008  C 9.71999999999991 0.460000000000008  13.3199999999999 3.06  13.3199999999999 6.26000000000002  C 13.3199999999999 9.46000000000001  9.71999999999991 13.06  6.51999999999998 13.06  Z " fill-rule="evenodd" />
    </mask>
  </defs>
  <g transform="matrix(1 0 0 1 -914 -6970 )">
    <path d="M 6.51999999999998 13.06  C 3.41999999999996 13.06  0.819999999999936 9.46000000000001  0.819999999999936 6.26000000000002  C 0.819999999999936 3.06  3.41999999999996 0.460000000000008  6.51999999999998 0.460000000000008  C 9.71999999999991 0.460000000000008  13.3199999999999 3.06  13.3199999999999 6.26000000000002  C 13.3199999999999 9.46000000000001  9.71999999999991 13.06  6.51999999999998 13.06  Z " fill-rule="nonzero" fill="#00ae9d" stroke="none" transform="matrix(1 0 0 1 914 6970 )" />
    <path d="M 6.51999999999998 13.06  C 3.41999999999996 13.06  0.819999999999936 9.46000000000001  0.819999999999936 6.26000000000002  C 0.819999999999936 3.06  3.41999999999996 0.460000000000008  6.51999999999998 0.460000000000008  C 9.71999999999991 0.460000000000008  13.3199999999999 3.06  13.3199999999999 6.26000000000002  C 13.3199999999999 9.46000000000001  9.71999999999991 13.06  6.51999999999998 13.06  Z " stroke-width="2" stroke="#00ae9d" fill="none" transform="matrix(1 0 0 1 914 6970 )" mask="url(#clip1923)" />
  </g>
</svg>