<?xml version="1.0" encoding="utf-8"?>
<svg version="1.1" xmlns:xlink="http://www.w3.org/1999/xlink" width="3px" height="226px" xmlns="http://www.w3.org/2000/svg">
  <defs>
    <mask fill="white" id="clip1100">
      <path d="M 0.904999999999973 225.715  C 0.904999999999973 225.715  0.904999999999973 0.264999999999986  0.904999999999973 0.264999999999986  C 0.904999999999973 0.264999999999986  2.15499999999997 0.264999999999986  2.15499999999997 0.264999999999986  C 2.15499999999997 0.264999999999986  2.15499999999997 225.715  2.15499999999997 225.715  C 2.15499999999997 225.715  0.904999999999973 225.715  0.904999999999973 225.715  Z " fill-rule="evenodd" />
    </mask>
  </defs>
  <g transform="matrix(1 0 0 1 -647 -19257 )">
    <path d="M 0.904999999999973 225.715  C 0.904999999999973 225.715  0.904999999999973 0.264999999999986  0.904999999999973 0.264999999999986  C 0.904999999999973 0.264999999999986  2.15499999999997 0.264999999999986  2.15499999999997 0.264999999999986  C 2.15499999999997 0.264999999999986  2.15499999999997 225.715  2.15499999999997 225.715  C 2.15499999999997 225.715  0.904999999999973 225.715  0.904999999999973 225.715  Z " fill-rule="nonzero" fill="#33b2c3" stroke="none" transform="matrix(1 0 0 1 647 19257 )" />
    <path d="M 0.904999999999973 225.715  C 0.904999999999973 225.715  0.904999999999973 0.264999999999986  0.904999999999973 0.264999999999986  C 0.904999999999973 0.264999999999986  2.15499999999997 0.264999999999986  2.15499999999997 0.264999999999986  C 2.15499999999997 0.264999999999986  2.15499999999997 225.715  2.15499999999997 225.715  C 2.15499999999997 225.715  0.904999999999973 225.715  0.904999999999973 225.715  Z " stroke-width="0.5" stroke="#33b2c3" fill="none" transform="matrix(1 0 0 1 647 19257 )" mask="url(#clip1100)" />
  </g>
</svg>