<?xml version="1.0" encoding="utf-8"?>
<svg version="1.1" xmlns:xlink="http://www.w3.org/1999/xlink" width="346px" height="271px" xmlns="http://www.w3.org/2000/svg">
  <defs>
    <mask fill="white" id="clip1088">
      <path d="M 12.18 270.7  C 12.18 270.7  334.48 270.7  334.48 270.7  C 340.78 270.7  345.78 265.6  345.78 259.4  C 345.78 259.4  345.78 11.9  345.78 11.9  C 345.78 5.70000000000004  340.78 0.600000000000023  334.48 0.600000000000023  C 334.48 0.600000000000023  12.18 0.600000000000023  12.18 0.600000000000023  C 5.98 0.600000000000023  0.880000000000003 5.70000000000004  0.880000000000003 11.9  C 0.880000000000003 11.9  0.880000000000003 259.4  0.880000000000003 259.4  C 0.880000000000003 265.6  5.98 270.7  12.18 270.7  Z " fill-rule="evenodd" />
    </mask>
  </defs>
  <g transform="matrix(1 0 0 1 -124 -16579 )">
    <path d="M 12.18 270.7  C 12.18 270.7  334.48 270.7  334.48 270.7  C 340.78 270.7  345.78 265.6  345.78 259.4  C 345.78 259.4  345.78 11.9  345.78 11.9  C 345.78 5.70000000000004  340.78 0.600000000000023  334.48 0.600000000000023  C 334.48 0.600000000000023  12.18 0.600000000000023  12.18 0.600000000000023  C 5.98 0.600000000000023  0.880000000000003 5.70000000000004  0.880000000000003 11.9  C 0.880000000000003 11.9  0.880000000000003 259.4  0.880000000000003 259.4  C 0.880000000000003 265.6  5.98 270.7  12.18 270.7  Z " fill-rule="nonzero" fill="#ffffff" stroke="none" fill-opacity="0" transform="matrix(1 0 0 1 124 16579 )" />
    <path d="M 12.18 270.7  C 12.18 270.7  334.48 270.7  334.48 270.7  C 340.78 270.7  345.78 265.6  345.78 259.4  C 345.78 259.4  345.78 11.9  345.78 11.9  C 345.78 5.70000000000004  340.78 0.600000000000023  334.48 0.600000000000023  C 334.48 0.600000000000023  12.18 0.600000000000023  12.18 0.600000000000023  C 5.98 0.600000000000023  0.880000000000003 5.70000000000004  0.880000000000003 11.9  C 0.880000000000003 11.9  0.880000000000003 259.4  0.880000000000003 259.4  C 0.880000000000003 265.6  5.98 270.7  12.18 270.7  Z " stroke-width="2" stroke="#cad4cc" fill="none" transform="matrix(1 0 0 1 124 16579 )" mask="url(#clip1088)" />
  </g>
</svg>