<svg xmlns="http://www.w3.org/2000/svg" xmlns:xlink="http://www.w3.org/1999/xlink" width="620" height="55" version="1.1"><defs><mask id="clip2350" fill="#fff"><path fill-rule="evenodd" d="M 27.44 28 C 27.44 28 0.439999999999998 0 0.439999999999998 0 C 0.439999999999998 0 619.84 0 619.84 0 C 619.84 0 592.84 28 592.84 28 C 592.84 28 619.84 55 619.84 55 C 619.84 55 0.439999999999998 55 0.439999999999998 55 C 0.439999999999998 55 27.44 28 27.44 28 Z"/></mask></defs><g><path fill="#85c2d8" fill-rule="nonzero" stroke="none" d="M 27.44 28 C 27.44 28 0.439999999999998 0 0.439999999999998 0 C 0.439999999999998 0 619.84 0 619.84 0 C 619.84 0 592.84 28 592.84 28 C 592.84 28 619.84 55 619.84 55 C 619.84 55 0.439999999999998 55 0.439999999999998 55 C 0.439999999999998 55 27.44 28 27.44 28 Z" transform="matrix(1 0 0 1 -330 -14309 ) matrix(1 0 0 1 330 14309 )"/><path fill="none" stroke="#85c2d8" stroke-width="2" d="M 27.44 28 C 27.44 28 0.439999999999998 0 0.439999999999998 0 C 0.439999999999998 0 619.84 0 619.84 0 C 619.84 0 592.84 28 592.84 28 C 592.84 28 619.84 55 619.84 55 C 619.84 55 0.439999999999998 55 0.439999999999998 55 C 0.439999999999998 55 27.44 28 27.44 28 Z" mask="url(#clip2350)" transform="matrix(1 0 0 1 -330 -14309 ) matrix(1 0 0 1 330 14309 )"/></g></svg>