<?xml version="1.0" encoding="utf-8"?>
<svg version="1.1" xmlns:xlink="http://www.w3.org/1999/xlink" width="77px" height="76px" xmlns="http://www.w3.org/2000/svg">
  <defs>
    <mask fill="white" id="clip213">
      <path d="M 38.74 75.68  C 18.1400000000001 75.68  0.440000000000055 58.98  0.440000000000055 38.38  C 0.440000000000055 17.78  18.1400000000001 0.0799999999999983  38.74 0.0799999999999983  C 59.3400000000001 0.0799999999999983  76.04 17.78  76.04 38.38  C 76.04 58.98  59.3400000000001 75.68  38.74 75.68  Z " fill-rule="evenodd" />
    </mask>
  </defs>
  <g transform="matrix(1 0 0 1 -1137 -4950 )">
    <path d="M 38.74 75.68  C 18.1400000000001 75.68  0.440000000000055 58.98  0.440000000000055 38.38  C 0.440000000000055 17.78  18.1400000000001 0.0799999999999983  38.74 0.0799999999999983  C 59.3400000000001 0.0799999999999983  76.04 17.78  76.04 38.38  C 76.04 58.98  59.3400000000001 75.68  38.74 75.68  Z " fill-rule="nonzero" fill="#8bc0d3" stroke="none" transform="matrix(1 0 0 1 1137 4950 )" />
    <path d="M 38.74 75.68  C 18.1400000000001 75.68  0.440000000000055 58.98  0.440000000000055 38.38  C 0.440000000000055 17.78  18.1400000000001 0.0799999999999983  38.74 0.0799999999999983  C 59.3400000000001 0.0799999999999983  76.04 17.78  76.04 38.38  C 76.04 58.98  59.3400000000001 75.68  38.74 75.68  Z " stroke-width="2" stroke="#8bc0d3" fill="none" transform="matrix(1 0 0 1 1137 4950 )" mask="url(#clip213)" />
  </g>
</svg>