<svg xmlns="http://www.w3.org/2000/svg" xmlns:xlink="http://www.w3.org/1999/xlink" width="7" height="6" version="1.1"><defs><mask id="clip1828" fill="#fff"><path fill-rule="evenodd" d="M 6.56 2.59000000000003 C 6.56 1.49000000000001 5.45999999999998 0.490000000000009 4.16 0.490000000000009 C 2.85999999999999 0.490000000000009 0.759999999999991 1.49000000000001 0.759999999999991 2.59000000000003 C 0.759999999999991 3.79000000000002 2.85999999999999 5.79000000000002 4.16 5.79000000000002 C 5.45999999999998 5.79000000000002 6.56 3.79000000000002 6.56 2.59000000000003 Z M 4.95999999999998 3.59000000000003 C 4.95999999999998 3.99000000000001 3.56 4.29000000000002 3.16 4.29000000000002 C 2.66 4.29000000000002 2.35999999999999 3.99000000000001 2.35999999999999 3.59000000000003 C 2.35999999999999 3.19 2.66 1.88999999999999 3.16 1.88999999999999 C 3.56 1.88999999999999 4.95999999999998 3.19 4.95999999999998 3.59000000000003 Z"/></mask></defs><g><path fill="#fff" fill-rule="nonzero" stroke="none" d="M 6.56 2.59000000000003 C 6.56 1.49000000000001 5.45999999999998 0.490000000000009 4.16 0.490000000000009 C 2.85999999999999 0.490000000000009 0.759999999999991 1.49000000000001 0.759999999999991 2.59000000000003 C 0.759999999999991 3.79000000000002 2.85999999999999 5.79000000000002 4.16 5.79000000000002 C 5.45999999999998 5.79000000000002 6.56 3.79000000000002 6.56 2.59000000000003 Z M 4.95999999999998 3.59000000000003 C 4.95999999999998 3.99000000000001 3.56 4.29000000000002 3.16 4.29000000000002 C 2.66 4.29000000000002 2.35999999999999 3.99000000000001 2.35999999999999 3.59000000000003 C 2.35999999999999 3.19 2.66 1.88999999999999 3.16 1.88999999999999 C 3.56 1.88999999999999 4.95999999999998 3.19 4.95999999999998 3.59000000000003 Z" transform="matrix(1 0 0 1 -270 -7250 ) matrix(1 0 0 1 270 7250 )"/><path fill="none" stroke="#fff" stroke-width="2" d="M 6.56 2.59000000000003 C 6.56 1.49000000000001 5.45999999999998 0.490000000000009 4.16 0.490000000000009 C 2.85999999999999 0.490000000000009 0.759999999999991 1.49000000000001 0.759999999999991 2.59000000000003 C 0.759999999999991 3.79000000000002 2.85999999999999 5.79000000000002 4.16 5.79000000000002 C 5.45999999999998 5.79000000000002 6.56 3.79000000000002 6.56 2.59000000000003 Z" mask="url(#clip1828)" transform="matrix(1 0 0 1 -270 -7250 ) matrix(1 0 0 1 270 7250 )"/><path fill="none" stroke="#fff" stroke-width="2" d="M 4.95999999999998 3.59000000000003 C 4.95999999999998 3.99000000000001 3.56 4.29000000000002 3.16 4.29000000000002 C 2.66 4.29000000000002 2.35999999999999 3.99000000000001 2.35999999999999 3.59000000000003 C 2.35999999999999 3.19 2.66 1.88999999999999 3.16 1.88999999999999 C 3.56 1.88999999999999 4.95999999999998 3.19 4.95999999999998 3.59000000000003 Z" mask="url(#clip1828)" transform="matrix(1 0 0 1 -270 -7250 ) matrix(1 0 0 1 270 7250 )"/></g></svg>