<svg xmlns="http://www.w3.org/2000/svg" xmlns:xlink="http://www.w3.org/1999/xlink" width="14" height="14" version="1.1"><defs><mask id="clip1923" fill="#fff"><path fill-rule="evenodd" d="M 6.51999999999998 13.06 C 3.41999999999996 13.06 0.819999999999936 9.46000000000001 0.819999999999936 6.26000000000002 C 0.819999999999936 3.06 3.41999999999996 0.460000000000008 6.51999999999998 0.460000000000008 C 9.71999999999991 0.460000000000008 13.3199999999999 3.06 13.3199999999999 6.26000000000002 C 13.3199999999999 9.46000000000001 9.71999999999991 13.06 6.51999999999998 13.06 Z"/></mask></defs><g><path fill="#00ae9d" fill-rule="nonzero" stroke="none" d="M 6.51999999999998 13.06 C 3.41999999999996 13.06 0.819999999999936 9.46000000000001 0.819999999999936 6.26000000000002 C 0.819999999999936 3.06 3.41999999999996 0.460000000000008 6.51999999999998 0.460000000000008 C 9.71999999999991 0.460000000000008 13.3199999999999 3.06 13.3199999999999 6.26000000000002 C 13.3199999999999 9.46000000000001 9.71999999999991 13.06 6.51999999999998 13.06 Z" transform="matrix(1 0 0 1 -914 -6970 ) matrix(1 0 0 1 914 6970 )"/><path fill="none" stroke="#00ae9d" stroke-width="2" d="M 6.51999999999998 13.06 C 3.41999999999996 13.06 0.819999999999936 9.46000000000001 0.819999999999936 6.26000000000002 C 0.819999999999936 3.06 3.41999999999996 0.460000000000008 6.51999999999998 0.460000000000008 C 9.71999999999991 0.460000000000008 13.3199999999999 3.06 13.3199999999999 6.26000000000002 C 13.3199999999999 9.46000000000001 9.71999999999991 13.06 6.51999999999998 13.06 Z" mask="url(#clip1923)" transform="matrix(1 0 0 1 -914 -6970 ) matrix(1 0 0 1 914 6970 )"/></g></svg>