<svg xmlns="http://www.w3.org/2000/svg" xmlns:xlink="http://www.w3.org/1999/xlink" width="372" height="304" version="1.1"><defs><mask id="clip2509" fill="#fff"><path fill-rule="evenodd" d="M 12.0599999999999 303.87 C 12.0599999999999 303.87 360.46 303.87 360.46 303.87 C 366.76 303.87 371.76 298.77 371.76 292.57 C 371.76 292.57 371.76 11.37 371.76 11.37 C 371.76 5.17000000000002 366.76 0.0699999999999932 360.46 0.0699999999999932 C 360.46 0.0699999999999932 12.0599999999999 0.0699999999999932 12.0599999999999 0.0699999999999932 C 5.86000000000001 0.0699999999999932 0.759999999999991 5.17000000000002 0.759999999999991 11.37 C 0.759999999999991 11.37 0.759999999999991 292.57 0.759999999999991 292.57 C 0.759999999999991 298.77 5.86000000000001 303.87 12.0599999999999 303.87 Z"/></mask></defs><g><path fill="#fff" fill-opacity="0" fill-rule="nonzero" stroke="none" d="M 12.0599999999999 303.87 C 12.0599999999999 303.87 360.46 303.87 360.46 303.87 C 366.76 303.87 371.76 298.77 371.76 292.57 C 371.76 292.57 371.76 11.37 371.76 11.37 C 371.76 5.17000000000002 366.76 0.0699999999999932 360.46 0.0699999999999932 C 360.46 0.0699999999999932 12.0599999999999 0.0699999999999932 12.0599999999999 0.0699999999999932 C 5.86000000000001 0.0699999999999932 0.759999999999991 5.17000000000002 0.759999999999991 11.37 C 0.759999999999991 11.37 0.759999999999991 292.57 0.759999999999991 292.57 C 0.759999999999991 298.77 5.86000000000001 303.87 12.0599999999999 303.87 Z" transform="matrix(1 0 0 1 -814 -17399 ) matrix(1 0 0 1 814 17399 )"/><path fill="none" stroke="#cad4cc" stroke-width="2" d="M 12.0599999999999 303.87 C 12.0599999999999 303.87 360.46 303.87 360.46 303.87 C 366.76 303.87 371.76 298.77 371.76 292.57 C 371.76 292.57 371.76 11.37 371.76 11.37 C 371.76 5.17000000000002 366.76 0.0699999999999932 360.46 0.0699999999999932 C 360.46 0.0699999999999932 12.0599999999999 0.0699999999999932 12.0599999999999 0.0699999999999932 C 5.86000000000001 0.0699999999999932 0.759999999999991 5.17000000000002 0.759999999999991 11.37 C 0.759999999999991 11.37 0.759999999999991 292.57 0.759999999999991 292.57 C 0.759999999999991 298.77 5.86000000000001 303.87 12.0599999999999 303.87 Z" mask="url(#clip2509)" transform="matrix(1 0 0 1 -814 -17399 ) matrix(1 0 0 1 814 17399 )"/></g></svg>