<?xml version="1.0" encoding="utf-8"?>
<svg version="1.1" xmlns:xlink="http://www.w3.org/1999/xlink" width="56px" height="59px" xmlns="http://www.w3.org/2000/svg">
  <defs>
    <mask fill="white" id="clip1917">
      <path d="M 35.91 0.159999999999997  C 35.91 0.159999999999997  20.11 0.159999999999997  20.11 0.159999999999997  C 9.21 0.159999999999997  0.41 9.56  0.41 21.26  C 0.41 21.26  0.41 37.96  0.41 37.96  C 0.41 49.56  9.21 58.96  20.11 58.96  C 20.11 58.96  35.91 58.96  35.91 58.96  C 46.81 58.96  55.61 49.56  55.61 37.96  C 55.61 37.96  55.61 21.26  55.61 21.26  C 55.61 9.56  46.81 0.159999999999997  35.91 0.159999999999997  Z " fill-rule="evenodd" />
    </mask>
  </defs>
  <g transform="matrix(1 0 0 1 -101 -12606 )">
    <path d="M 35.91 0.159999999999997  C 35.91 0.159999999999997  20.11 0.159999999999997  20.11 0.159999999999997  C 9.21 0.159999999999997  0.41 9.56  0.41 21.26  C 0.41 21.26  0.41 37.96  0.41 37.96  C 0.41 49.56  9.21 58.96  20.11 58.96  C 20.11 58.96  35.91 58.96  35.91 58.96  C 46.81 58.96  55.61 49.56  55.61 37.96  C 55.61 37.96  55.61 21.26  55.61 21.26  C 55.61 9.56  46.81 0.159999999999997  35.91 0.159999999999997  Z " fill-rule="nonzero" fill="#dcdcdd" stroke="none" fill-opacity="0.0784313725490196" transform="matrix(1 0 0 1 101 12606 )" />
    <path d="M 35.91 0.159999999999997  C 35.91 0.159999999999997  20.11 0.159999999999997  20.11 0.159999999999997  C 9.21 0.159999999999997  0.41 9.56  0.41 21.26  C 0.41 21.26  0.41 37.96  0.41 37.96  C 0.41 49.56  9.21 58.96  20.11 58.96  C 20.11 58.96  35.91 58.96  35.91 58.96  C 46.81 58.96  55.61 49.56  55.61 37.96  C 55.61 37.96  55.61 21.26  55.61 21.26  C 55.61 9.56  46.81 0.159999999999997  35.91 0.159999999999997  Z " stroke-width="2" stroke="#dcdcdd" fill="none" stroke-opacity="0.0588235294117647" transform="matrix(1 0 0 1 101 12606 )" mask="url(#clip1917)" />
  </g>
</svg>