<?xml version="1.0" encoding="utf-8"?>
<svg version="1.1" xmlns:xlink="http://www.w3.org/1999/xlink" width="63px" height="62px" xmlns="http://www.w3.org/2000/svg">
  <defs>
    <mask fill="white" id="clip841">
      <path d="M 61.5 55.3099999999999  C 61.5 55.3099999999999  0.5 55.3099999999999  0.5 55.3099999999999  C 0.5 55.3099999999999  61.5 55.3099999999999  61.5 55.3099999999999  Z " fill-rule="evenodd" />
    </mask>
  </defs>
  <g transform="matrix(1 0 0 1 -208 -16670 )">
    <path d="M 61.5 55.3099999999999  C 61.5 55.3099999999999  0.5 55.3099999999999  0.5 55.3099999999999  C 0.5 55.3099999999999  61.5 55.3099999999999  61.5 55.3099999999999  Z " fill-rule="nonzero" fill="#ffffff" stroke="none" fill-opacity="0" transform="matrix(1 0 0 1 208 16670 )" />
    <path d="M 61.5 55.3099999999999  C 61.5 55.3099999999999  0.5 55.3099999999999  0.5 55.3099999999999  C 0.5 55.3099999999999  61.5 55.3099999999999  61.5 55.3099999999999  Z " stroke-width="2" stroke="#ffffff" fill="none" transform="matrix(1 0 0 1 208 16670 )" mask="url(#clip841)" />
    <path d="M 1 7.5  L 61 7.5  M 1 13.5  L 61 13.5  M 1 19.5  L 61 19.5  M 1 25.5  L 61 25.5  M 1 30.5  L 61 30.5  M 1 36.5  L 61 36.5  M 1 42.5  L 61 42.5  M 1 48.5  L 61 48.5  M 7.5 0.809999999999945  L 7.5 60.8099999999999  M 13.5 0.809999999999945  L 13.5 60.8099999999999  M 19.5 0.809999999999945  L 19.5 60.8099999999999  M 25.5 0.809999999999945  L 25.5 60.8099999999999  M 31.5 0.809999999999945  L 31.5 60.8099999999999  M 37.5 0.809999999999945  L 37.5 60.8099999999999  M 43.5 0.809999999999945  L 43.5 60.8099999999999  M 49.5 0.809999999999945  L 49.5 60.8099999999999  M 55.5 0.809999999999945  L 55.5 60.8099999999999  " stroke-width="1" stroke="#ffffff" fill="none" transform="matrix(1 0 0 1 208 16670 )" mask="url(#clip841)" />
  </g>
</svg>