<svg xmlns="http://www.w3.org/2000/svg" xmlns:xlink="http://www.w3.org/1999/xlink" width="9" height="40" version="1.1"><defs><mask id="clip1826" fill="#fff"><path fill-rule="evenodd" d="M 0.509999999999991 0.0600000000000023 C 0.509999999999991 0.0600000000000023 0.509999999999991 39.06 0.509999999999991 39.06 C 0.509999999999991 39.06 8.40999999999997 39.06 8.40999999999997 39.06 C 8.40999999999997 39.06 8.40999999999997 0.0600000000000023 8.40999999999997 0.0600000000000023 C 8.40999999999997 0.0600000000000023 0.509999999999991 0.0600000000000023 0.509999999999991 0.0600000000000023 Z"/></mask></defs><g><path fill="#fff" fill-rule="nonzero" stroke="none" d="M 0.509999999999991 0.0600000000000023 C 0.509999999999991 0.0600000000000023 0.509999999999991 39.06 0.509999999999991 39.06 C 0.509999999999991 39.06 8.40999999999997 39.06 8.40999999999997 39.06 C 8.40999999999997 39.06 8.40999999999997 0.0600000000000023 8.40999999999997 0.0600000000000023 C 8.40999999999997 0.0600000000000023 0.509999999999991 0.0600000000000023 0.509999999999991 0.0600000000000023 Z" transform="matrix(1 0 0 1 -442 -7050 ) matrix(1 0 0 1 442 7050 )"/><path fill="none" stroke="#fff" stroke-width="2" d="M 0.509999999999991 0.0600000000000023 C 0.509999999999991 0.0600000000000023 0.509999999999991 39.06 0.509999999999991 39.06 C 0.509999999999991 39.06 8.40999999999997 39.06 8.40999999999997 39.06 C 8.40999999999997 39.06 8.40999999999997 0.0600000000000023 8.40999999999997 0.0600000000000023 C 8.40999999999997 0.0600000000000023 0.509999999999991 0.0600000000000023 0.509999999999991 0.0600000000000023 Z" mask="url(#clip1826)" transform="matrix(1 0 0 1 -442 -7050 ) matrix(1 0 0 1 442 7050 )"/></g></svg>