<?xml version="1.0" encoding="utf-8"?>
<svg version="1.1" xmlns:xlink="http://www.w3.org/1999/xlink" width="57px" height="60px" xmlns="http://www.w3.org/2000/svg">
  <defs>
    <mask fill="white" id="clip559">
      <path d="M 20.6900000000001 0.77000000000001  C 20.6900000000001 0.77000000000001  36.49 0.77000000000001  36.49 0.77000000000001  C 47.3900000000001 0.77000000000001  56.1900000000001 10.17  56.1900000000001 21.87  C 56.1900000000001 21.87  56.1900000000001 38.57  56.1900000000001 38.57  C 56.1900000000001 50.17  47.3900000000001 59.57  36.49 59.57  C 36.49 59.57  20.6900000000001 59.57  20.6900000000001 59.57  C 9.78999999999996 59.57  0.990000000000009 50.17  0.990000000000009 38.57  C 0.990000000000009 38.57  0.990000000000009 21.87  0.990000000000009 21.87  C 0.990000000000009 10.17  9.78999999999996 0.77000000000001  20.6900000000001 0.77000000000001  Z " fill-rule="evenodd" />
    </mask>
  </defs>
  <g transform="matrix(1 0 0 1 -1083 -12539 )">
    <path d="M 20.6900000000001 0.77000000000001  C 20.6900000000001 0.77000000000001  36.49 0.77000000000001  36.49 0.77000000000001  C 47.3900000000001 0.77000000000001  56.1900000000001 10.17  56.1900000000001 21.87  C 56.1900000000001 21.87  56.1900000000001 38.57  56.1900000000001 38.57  C 56.1900000000001 50.17  47.3900000000001 59.57  36.49 59.57  C 36.49 59.57  20.6900000000001 59.57  20.6900000000001 59.57  C 9.78999999999996 59.57  0.990000000000009 50.17  0.990000000000009 38.57  C 0.990000000000009 38.57  0.990000000000009 21.87  0.990000000000009 21.87  C 0.990000000000009 10.17  9.78999999999996 0.77000000000001  20.6900000000001 0.77000000000001  Z " fill-rule="nonzero" fill="#dcdcdd" stroke="none" fill-opacity="0.0784313725490196" transform="matrix(1 0 0 1 1083 12539 )" />
    <path d="M 20.6900000000001 0.77000000000001  C 20.6900000000001 0.77000000000001  36.49 0.77000000000001  36.49 0.77000000000001  C 47.3900000000001 0.77000000000001  56.1900000000001 10.17  56.1900000000001 21.87  C 56.1900000000001 21.87  56.1900000000001 38.57  56.1900000000001 38.57  C 56.1900000000001 50.17  47.3900000000001 59.57  36.49 59.57  C 36.49 59.57  20.6900000000001 59.57  20.6900000000001 59.57  C 9.78999999999996 59.57  0.990000000000009 50.17  0.990000000000009 38.57  C 0.990000000000009 38.57  0.990000000000009 21.87  0.990000000000009 21.87  C 0.990000000000009 10.17  9.78999999999996 0.77000000000001  20.6900000000001 0.77000000000001  Z " stroke-width="2" stroke="#dcdcdd" fill="none" stroke-opacity="0.0588235294117647" transform="matrix(1 0 0 1 1083 12539 )" mask="url(#clip559)" />
  </g>
</svg>