<?xml version="1.0" encoding="utf-8"?>
<svg version="1.1" xmlns:xlink="http://www.w3.org/1999/xlink" width="87px" height="491px" xmlns="http://www.w3.org/2000/svg">
  <defs>
    <mask fill="white" id="clip2184">
      <path d="M 0.170000000000016 490.15  C 0.170000000000016 490.15  0.170000000000016 0.150000000000006  0.170000000000016 0.150000000000006  C 0.170000000000016 0.150000000000006  86.97 0.150000000000006  86.97 0.150000000000006  C 86.97 0.150000000000006  86.97 490.15  86.97 490.15  C 86.97 490.15  0.170000000000016 490.15  0.170000000000016 490.15  Z " fill-rule="evenodd" />
    </mask>
  </defs>
  <g transform="matrix(1 0 0 1 -564 -15248 )">
    <path d="M 0.170000000000016 490.15  C 0.170000000000016 490.15  0.170000000000016 0.150000000000006  0.170000000000016 0.150000000000006  C 0.170000000000016 0.150000000000006  86.97 0.150000000000006  86.97 0.150000000000006  C 86.97 0.150000000000006  86.97 490.15  86.97 490.15  C 86.97 490.15  0.170000000000016 490.15  0.170000000000016 490.15  Z " fill-rule="nonzero" fill="#f5f5f5" stroke="none" transform="matrix(1 0 0 1 564 15248 )" />
    <path d="M 0.170000000000016 490.15  C 0.170000000000016 490.15  0.170000000000016 0.150000000000006  0.170000000000016 0.150000000000006  C 0.170000000000016 0.150000000000006  86.97 0.150000000000006  86.97 0.150000000000006  C 86.97 0.150000000000006  86.97 490.15  86.97 490.15  C 86.97 490.15  0.170000000000016 490.15  0.170000000000016 490.15  Z " stroke-width="2" stroke="#d2d2d2" fill="none" transform="matrix(1 0 0 1 564 15248 )" mask="url(#clip2184)" />
  </g>
</svg>