<svg xmlns="http://www.w3.org/2000/svg" xmlns:xlink="http://www.w3.org/1999/xlink" width="527" height="331" version="1.1"><defs><mask id="clip2237" fill="#fff"><path fill-rule="evenodd" d="M 11.32 330.44 C 11.32 330.44 514.82 330.44 514.82 330.44 C 521.02 330.44 526.12 325.34 526.12 319.14 C 526.12 319.14 526.12 11.94 526.12 11.94 C 526.12 5.74000000000001 521.02 0.639999999999986 514.82 0.639999999999986 C 514.82 0.639999999999986 11.32 0.639999999999986 11.32 0.639999999999986 C 5.12 0.639999999999986 0.019999999999996 5.74000000000001 0.019999999999996 11.94 C 0.019999999999996 11.94 0.019999999999996 319.14 0.019999999999996 319.14 C 0.019999999999996 325.34 5.12 330.44 11.32 330.44 Z"/></mask></defs><g><path fill="#85c2d8" fill-rule="nonzero" stroke="none" d="M 11.32 330.44 C 11.32 330.44 514.82 330.44 514.82 330.44 C 521.02 330.44 526.12 325.34 526.12 319.14 C 526.12 319.14 526.12 11.94 526.12 11.94 C 526.12 5.74000000000001 521.02 0.639999999999986 514.82 0.639999999999986 C 514.82 0.639999999999986 11.32 0.639999999999986 11.32 0.639999999999986 C 5.12 0.639999999999986 0.019999999999996 5.74000000000001 0.019999999999996 11.94 C 0.019999999999996 11.94 0.019999999999996 319.14 0.019999999999996 319.14 C 0.019999999999996 325.34 5.12 330.44 11.32 330.44 Z" transform="matrix(1 0 0 1 -117 -14721 ) matrix(1 0 0 1 117 14721 )"/><path fill="none" stroke="#85c2d8" stroke-width="2" d="M 11.32 330.44 C 11.32 330.44 514.82 330.44 514.82 330.44 C 521.02 330.44 526.12 325.34 526.12 319.14 C 526.12 319.14 526.12 11.94 526.12 11.94 C 526.12 5.74000000000001 521.02 0.639999999999986 514.82 0.639999999999986 C 514.82 0.639999999999986 11.32 0.639999999999986 11.32 0.639999999999986 C 5.12 0.639999999999986 0.019999999999996 5.74000000000001 0.019999999999996 11.94 C 0.019999999999996 11.94 0.019999999999996 319.14 0.019999999999996 319.14 C 0.019999999999996 325.34 5.12 330.44 11.32 330.44 Z" mask="url(#clip2237)" transform="matrix(1 0 0 1 -117 -14721 ) matrix(1 0 0 1 117 14721 )"/></g></svg>