<?xml version="1.0" encoding="utf-8"?>
<svg version="1.1" xmlns:xlink="http://www.w3.org/1999/xlink" width="56px" height="60px" xmlns="http://www.w3.org/2000/svg">
  <defs>
    <mask fill="white" id="clip686">
      <path d="M 35.91 59.6099999999999  C 35.91 59.6099999999999  20.01 59.6099999999999  20.01 59.6099999999999  C 9.21 59.6099999999999  0.409999999999997 50.8099999999999  0.409999999999997 40.01  C 0.409999999999997 40.01  0.409999999999997 20.51  0.409999999999997 20.51  C 0.409999999999997 9.6099999999999  9.21 0.809999999999945  20.01 0.809999999999945  C 20.01 0.809999999999945  35.91 0.809999999999945  35.91 0.809999999999945  C 46.81 0.809999999999945  55.61 9.6099999999999  55.61 20.51  C 55.61 20.51  55.61 40.01  55.61 40.01  C 55.61 50.8099999999999  46.81 59.6099999999999  35.91 59.6099999999999  Z " fill-rule="evenodd" />
    </mask>
  </defs>
  <g transform="matrix(1 0 0 1 -101 -13114 )">
    <path d="M 35.91 59.6099999999999  C 35.91 59.6099999999999  20.01 59.6099999999999  20.01 59.6099999999999  C 9.21 59.6099999999999  0.409999999999997 50.8099999999999  0.409999999999997 40.01  C 0.409999999999997 40.01  0.409999999999997 20.51  0.409999999999997 20.51  C 0.409999999999997 9.6099999999999  9.21 0.809999999999945  20.01 0.809999999999945  C 20.01 0.809999999999945  35.91 0.809999999999945  35.91 0.809999999999945  C 46.81 0.809999999999945  55.61 9.6099999999999  55.61 20.51  C 55.61 20.51  55.61 40.01  55.61 40.01  C 55.61 50.8099999999999  46.81 59.6099999999999  35.91 59.6099999999999  Z " fill-rule="nonzero" fill="#888889" stroke="none" fill-opacity="0.0784313725490196" transform="matrix(1 0 0 1 101 13114 )" />
    <path d="M 35.91 59.6099999999999  C 35.91 59.6099999999999  20.01 59.6099999999999  20.01 59.6099999999999  C 9.21 59.6099999999999  0.409999999999997 50.8099999999999  0.409999999999997 40.01  C 0.409999999999997 40.01  0.409999999999997 20.51  0.409999999999997 20.51  C 0.409999999999997 9.6099999999999  9.21 0.809999999999945  20.01 0.809999999999945  C 20.01 0.809999999999945  35.91 0.809999999999945  35.91 0.809999999999945  C 46.81 0.809999999999945  55.61 9.6099999999999  55.61 20.51  C 55.61 20.51  55.61 40.01  55.61 40.01  C 55.61 50.8099999999999  46.81 59.6099999999999  35.91 59.6099999999999  Z " stroke-width="2" stroke="#888889" fill="none" stroke-opacity="0.0588235294117647" transform="matrix(1 0 0 1 101 13114 )" mask="url(#clip686)" />
  </g>
</svg>