<svg xmlns="http://www.w3.org/2000/svg" xmlns:xlink="http://www.w3.org/1999/xlink" width="162" height="127" version="1.1"><defs><linearGradient id="LinearGradient2598" x1="310.51" x2="490.51" y1="433.55" y2="516.55" gradientUnits="userSpaceOnUse"><stop id="Stop2599" offset="0" stop-color="#fff"/><stop id="Stop2600" offset=".2" stop-color="#e0e0e0"/><stop id="Stop2601" offset=".85" stop-color="#7d7d7d"/><stop id="Stop2602" offset="1" stop-color="#7d7d7d"/></linearGradient><mask id="clip2603" fill="#fff"><path fill-rule="evenodd" d="M 13.6 126.25 C 4.90000000000003 113.45 0.100000000000023 97.45 0.100000000000023 81.45 C 0.100000000000023 37.25 37 0.349999999999994 81.2 0.349999999999994 C 125.4 0.349999999999994 161.3 37.25 161.3 81.45 C 161.3 97.45 156.5 113.45 147.8 126.25 C 147.8 126.25 13.6 126.25 13.6 126.25 Z"/></mask></defs><g><path fill="url(#LinearGradient2598)" fill-rule="nonzero" stroke="none" d="M 13.6 126.25 C 4.90000000000003 113.45 0.100000000000023 97.45 0.100000000000023 81.45 C 0.100000000000023 37.25 37 0.349999999999994 81.2 0.349999999999994 C 125.4 0.349999999999994 161.3 37.25 161.3 81.45 C 161.3 97.45 156.5 113.45 147.8 126.25 C 147.8 126.25 13.6 126.25 13.6 126.25 Z" transform="matrix(1 0 0 1 -589 -17159 ) matrix(1 0 0 1 589 17159 )"/><path fill="none" stroke="#909090" stroke-width="2" d="M 13.6 126.25 C 4.90000000000003 113.45 0.100000000000023 97.45 0.100000000000023 81.45 C 0.100000000000023 37.25 37 0.349999999999994 81.2 0.349999999999994 C 125.4 0.349999999999994 161.3 37.25 161.3 81.45 C 161.3 97.45 156.5 113.45 147.8 126.25 C 147.8 126.25 13.6 126.25 13.6 126.25 Z" mask="url(#clip2603)" transform="matrix(1 0 0 1 -589 -17159 ) matrix(1 0 0 1 589 17159 )"/></g></svg>