<svg xmlns="http://www.w3.org/2000/svg" xmlns:xlink="http://www.w3.org/1999/xlink" width="4" height="5" version="1.1"><defs><mask id="clip1867" fill="#fff"><path fill-rule="evenodd" d="M 1.09000000000003 4.48999999999998 C 0.590000000000032 4.48999999999998 0.0900000000000318 3.88999999999999 0.0900000000000318 3.19 C 0.0900000000000318 2.48999999999998 0.590000000000032 0.889999999999986 1.09000000000003 0.889999999999986 C 1.69000000000005 0.889999999999986 3.19000000000005 2.48999999999998 3.19000000000005 3.19 C 3.19000000000005 3.88999999999999 1.69000000000005 4.48999999999998 1.09000000000003 4.48999999999998 Z"/></mask></defs><g><path fill="#3e3938" fill-rule="nonzero" stroke="none" d="M 1.09000000000003 4.48999999999998 C 0.590000000000032 4.48999999999998 0.0900000000000318 3.88999999999999 0.0900000000000318 3.19 C 0.0900000000000318 2.48999999999998 0.590000000000032 0.889999999999986 1.09000000000003 0.889999999999986 C 1.69000000000005 0.889999999999986 3.19000000000005 2.48999999999998 3.19000000000005 3.19 C 3.19000000000005 3.88999999999999 1.69000000000005 4.48999999999998 1.09000000000003 4.48999999999998 Z" transform="matrix(1 0 0 1 -431 -6896 ) matrix(1 0 0 1 431 6896 )"/><path fill="none" stroke="#3e3938" stroke-width="2" d="M 1.09000000000003 4.48999999999998 C 0.590000000000032 4.48999999999998 0.0900000000000318 3.88999999999999 0.0900000000000318 3.19 C 0.0900000000000318 2.48999999999998 0.590000000000032 0.889999999999986 1.09000000000003 0.889999999999986 C 1.69000000000005 0.889999999999986 3.19000000000005 2.48999999999998 3.19000000000005 3.19 C 3.19000000000005 3.88999999999999 1.69000000000005 4.48999999999998 1.09000000000003 4.48999999999998 Z" mask="url(#clip1867)" transform="matrix(1 0 0 1 -431 -6896 ) matrix(1 0 0 1 431 6896 )"/></g></svg>