<svg xmlns="http://www.w3.org/2000/svg" xmlns:xlink="http://www.w3.org/1999/xlink" width="4" height="3" version="1.1"><defs><mask id="clip1832" fill="#fff"><path fill-rule="evenodd" d="M 2.44 0.350000000000023 C 2.84000000000003 0.350000000000023 3.13999999999999 1.65000000000003 3.13999999999999 2.05000000000001 C 3.13999999999999 2.45000000000005 2.84000000000003 2.75 2.44 2.75 C 2.04000000000002 2.75 0.740000000000009 2.45000000000005 0.740000000000009 2.05000000000001 C 0.740000000000009 1.65000000000003 2.04000000000002 0.350000000000023 2.44 0.350000000000023 Z"/></mask></defs><g><path fill="#fff" fill-rule="nonzero" stroke="none" d="M 2.44 0.350000000000023 C 2.84000000000003 0.350000000000023 3.13999999999999 1.65000000000003 3.13999999999999 2.05000000000001 C 3.13999999999999 2.45000000000005 2.84000000000003 2.75 2.44 2.75 C 2.04000000000002 2.75 0.740000000000009 2.45000000000005 0.740000000000009 2.05000000000001 C 0.740000000000009 1.65000000000003 2.04000000000002 0.350000000000023 2.44 0.350000000000023 Z" transform="matrix(1 0 0 1 -411 -7232 ) matrix(1 0 0 1 411 7232 )"/><path fill="none" stroke="#fff" stroke-width="2" d="M 2.44 0.350000000000023 C 2.84000000000003 0.350000000000023 3.13999999999999 1.65000000000003 3.13999999999999 2.05000000000001 C 3.13999999999999 2.45000000000005 2.84000000000003 2.75 2.44 2.75 C 2.04000000000002 2.75 0.740000000000009 2.45000000000005 0.740000000000009 2.05000000000001 C 0.740000000000009 1.65000000000003 2.04000000000002 0.350000000000023 2.44 0.350000000000023 Z" mask="url(#clip1832)" transform="matrix(1 0 0 1 -411 -7232 ) matrix(1 0 0 1 411 7232 )"/></g></svg>