<?xml version="1.0" encoding="utf-8"?>
<svg version="1.1" xmlns:xlink="http://www.w3.org/1999/xlink" width="5px" height="5px" xmlns="http://www.w3.org/2000/svg">
  <defs>
    <mask fill="white" id="clip329">
      <path d="M 1.95000000000005 4.48999999999998  C 1.45000000000005 4.48999999999998  0.950000000000045 3.88999999999999  0.950000000000045 3.19  C 0.950000000000045 2.48999999999998  1.45000000000005 0.889999999999986  1.95000000000005 0.889999999999986  C 2.55000000000007 0.889999999999986  4.05000000000007 2.48999999999998  4.05000000000007 3.19  C 4.05000000000007 3.88999999999999  2.55000000000007 4.48999999999998  1.95000000000005 4.48999999999998  Z " fill-rule="evenodd" />
    </mask>
  </defs>
  <g transform="matrix(1 0 0 1 -486 -6896 )">
    <path d="M 1.95000000000005 4.48999999999998  C 1.45000000000005 4.48999999999998  0.950000000000045 3.88999999999999  0.950000000000045 3.19  C 0.950000000000045 2.48999999999998  1.45000000000005 0.889999999999986  1.95000000000005 0.889999999999986  C 2.55000000000007 0.889999999999986  4.05000000000007 2.48999999999998  4.05000000000007 3.19  C 4.05000000000007 3.88999999999999  2.55000000000007 4.48999999999998  1.95000000000005 4.48999999999998  Z " fill-rule="nonzero" fill="#3e3938" stroke="none" transform="matrix(1 0 0 1 486 6896 )" />
    <path d="M 1.95000000000005 4.48999999999998  C 1.45000000000005 4.48999999999998  0.950000000000045 3.88999999999999  0.950000000000045 3.19  C 0.950000000000045 2.48999999999998  1.45000000000005 0.889999999999986  1.95000000000005 0.889999999999986  C 2.55000000000007 0.889999999999986  4.05000000000007 2.48999999999998  4.05000000000007 3.19  C 4.05000000000007 3.88999999999999  2.55000000000007 4.48999999999998  1.95000000000005 4.48999999999998  Z " stroke-width="2" stroke="#3e3938" fill="none" transform="matrix(1 0 0 1 486 6896 )" mask="url(#clip329)" />
  </g>
</svg>