<?xml version="1.0" encoding="utf-8"?>
<svg version="1.1" xmlns:xlink="http://www.w3.org/1999/xlink" width="361px" height="33px" xmlns="http://www.w3.org/2000/svg">
  <defs>
    <linearGradient gradientUnits="userSpaceOnUse" x1="0.560000000000004" y1="1.39999999999996" x2="0.560000000000004" y2="31.6" id="LinearGradient2137">
      <stop id="Stop2138" stop-color="#e4e4e4" offset="0" />
      <stop id="Stop2139" stop-color="#ededed" offset="0.2" />
      <stop id="Stop2140" stop-color="#bdbdbd" offset="0.8" />
      <stop id="Stop2141" stop-color="#a8a8a8" offset="1" />
    </linearGradient>
    <mask fill="white" id="clip2142">
      <path d="M 0.0599999999999454 32.1  C 0.0599999999999454 32.1  0.0599999999999454 0.899999999999977  0.0599999999999454 0.899999999999977  C 0.0599999999999454 0.899999999999977  360.16 0.899999999999977  360.16 0.899999999999977  C 360.16 0.899999999999977  360.16 32.1  360.16 32.1  C 360.16 32.1  0.0599999999999454 32.1  0.0599999999999454 32.1  Z " fill-rule="evenodd" />
    </mask>
  </defs>
  <g transform="matrix(1 0 0 1 -741 -14787 )">
    <path d="M 0.0599999999999454 32.1  C 0.0599999999999454 32.1  0.0599999999999454 0.899999999999977  0.0599999999999454 0.899999999999977  C 0.0599999999999454 0.899999999999977  360.16 0.899999999999977  360.16 0.899999999999977  C 360.16 0.899999999999977  360.16 32.1  360.16 32.1  C 360.16 32.1  0.0599999999999454 32.1  0.0599999999999454 32.1  Z " fill-rule="nonzero" fill="url(#LinearGradient2137)" stroke="none" transform="matrix(1 0 0 1 741 14787 )" />
    <path d="M 0.0599999999999454 32.1  C 0.0599999999999454 32.1  0.0599999999999454 0.899999999999977  0.0599999999999454 0.899999999999977  C 0.0599999999999454 0.899999999999977  360.16 0.899999999999977  360.16 0.899999999999977  C 360.16 0.899999999999977  360.16 32.1  360.16 32.1  C 360.16 32.1  0.0599999999999454 32.1  0.0599999999999454 32.1  Z " stroke-width="2" stroke="#787878" fill="none" transform="matrix(1 0 0 1 741 14787 )" mask="url(#clip2142)" />
  </g>
</svg>