<svg xmlns="http://www.w3.org/2000/svg" xmlns:xlink="http://www.w3.org/1999/xlink" width="63" height="62" version="1.1"><defs><mask id="clip2389" fill="#fff"><path fill-rule="evenodd" d="M 61.5 55.3099999999999 C 61.5 55.3099999999999 0.5 55.3099999999999 0.5 55.3099999999999 C 0.5 55.3099999999999 61.5 55.3099999999999 61.5 55.3099999999999 Z"/></mask></defs><g><path fill="#fff" fill-opacity="0" fill-rule="nonzero" stroke="none" d="M 61.5 55.3099999999999 C 61.5 55.3099999999999 0.5 55.3099999999999 0.5 55.3099999999999 C 0.5 55.3099999999999 61.5 55.3099999999999 61.5 55.3099999999999 Z" transform="matrix(1 0 0 1 -208 -16670 ) matrix(1 0 0 1 208 16670 )"/><path fill="none" stroke="#fff" stroke-width="2" d="M 61.5 55.3099999999999 C 61.5 55.3099999999999 0.5 55.3099999999999 0.5 55.3099999999999 C 0.5 55.3099999999999 61.5 55.3099999999999 61.5 55.3099999999999 Z" mask="url(#clip2389)" transform="matrix(1 0 0 1 -208 -16670 ) matrix(1 0 0 1 208 16670 )"/><path fill="none" stroke="#fff" stroke-width="1" d="M 1 7.5 L 61 7.5 M 1 13.5 L 61 13.5 M 1 19.5 L 61 19.5 M 1 25.5 L 61 25.5 M 1 30.5 L 61 30.5 M 1 36.5 L 61 36.5 M 1 42.5 L 61 42.5 M 1 48.5 L 61 48.5 M 7.5 0.809999999999945 L 7.5 60.8099999999999 M 13.5 0.809999999999945 L 13.5 60.8099999999999 M 19.5 0.809999999999945 L 19.5 60.8099999999999 M 25.5 0.809999999999945 L 25.5 60.8099999999999 M 31.5 0.809999999999945 L 31.5 60.8099999999999 M 37.5 0.809999999999945 L 37.5 60.8099999999999 M 43.5 0.809999999999945 L 43.5 60.8099999999999 M 49.5 0.809999999999945 L 49.5 60.8099999999999 M 55.5 0.809999999999945 L 55.5 60.8099999999999" mask="url(#clip2389)" transform="matrix(1 0 0 1 -208 -16670 ) matrix(1 0 0 1 208 16670 )"/></g></svg>