<svg xmlns="http://www.w3.org/2000/svg" xmlns:xlink="http://www.w3.org/1999/xlink" width="21" height="21" version="1.1"><defs><mask id="clip1735" fill="#fff"><path fill-rule="evenodd" d="M 10.665 20.615 C 10.665 20.615 0.514999999999986 10.715 0.514999999999986 10.715 C 0.514999999999986 10.715 10.665 0.565000000000055 10.665 0.565000000000055 C 10.665 0.565000000000055 20.565 10.715 20.565 10.715 C 20.565 10.715 10.665 20.615 10.665 20.615 Z"/></mask></defs><g><path fill="#cdcece" fill-rule="nonzero" stroke="none" d="M 10.665 20.615 C 10.665 20.615 0.514999999999986 10.715 0.514999999999986 10.715 C 0.514999999999986 10.715 10.665 0.565000000000055 10.665 0.565000000000055 C 10.665 0.565000000000055 20.565 10.715 20.565 10.715 C 20.565 10.715 10.665 20.615 10.665 20.615 Z" transform="matrix(1 0 0 1 -557 -4629 ) matrix(1 0 0 1 557 4629 )"/><path fill="none" stroke="#cdcece" stroke-width=".5" d="M 10.665 20.615 C 10.665 20.615 0.514999999999986 10.715 0.514999999999986 10.715 C 0.514999999999986 10.715 10.665 0.565000000000055 10.665 0.565000000000055 C 10.665 0.565000000000055 20.565 10.715 20.565 10.715 C 20.565 10.715 10.665 20.615 10.665 20.615 Z" mask="url(#clip1735)" transform="matrix(1 0 0 1 -557 -4629 ) matrix(1 0 0 1 557 4629 )"/></g></svg>