<svg xmlns="http://www.w3.org/2000/svg" xmlns:xlink="http://www.w3.org/1999/xlink" width="77" height="76" version="1.1"><defs><mask id="clip1757" fill="#fff"><path fill-rule="evenodd" d="M 38.9 75.68 C 18.3 75.68 0.600000000000023 58.98 0.600000000000023 38.38 C 0.600000000000023 17.78 18.3 0.0799999999999983 38.9 0.0799999999999983 C 59.5 0.0799999999999983 76.2 17.78 76.2 38.38 C 76.2 58.98 59.5 75.68 38.9 75.68 Z"/></mask></defs><g><path fill="#8bc0d3" fill-rule="nonzero" stroke="none" d="M 38.9 75.68 C 18.3 75.68 0.600000000000023 58.98 0.600000000000023 38.38 C 0.600000000000023 17.78 18.3 0.0799999999999983 38.9 0.0799999999999983 C 59.5 0.0799999999999983 76.2 17.78 76.2 38.38 C 76.2 58.98 59.5 75.68 38.9 75.68 Z" transform="matrix(1 0 0 1 -463 -4950 ) matrix(1 0 0 1 463 4950 )"/><path fill="none" stroke="#8bc0d3" stroke-width="2" d="M 38.9 75.68 C 18.3 75.68 0.600000000000023 58.98 0.600000000000023 38.38 C 0.600000000000023 17.78 18.3 0.0799999999999983 38.9 0.0799999999999983 C 59.5 0.0799999999999983 76.2 17.78 76.2 38.38 C 76.2 58.98 59.5 75.68 38.9 75.68 Z" mask="url(#clip1757)" transform="matrix(1 0 0 1 -463 -4950 ) matrix(1 0 0 1 463 4950 )"/></g></svg>