<svg xmlns="http://www.w3.org/2000/svg" xmlns:xlink="http://www.w3.org/1999/xlink" width="97" height="232" version="1.1"><defs><mask id="clip2242" fill="#fff"><path fill-rule="evenodd" d="M 0.409999999999968 231.3 C 0.409999999999968 231.3 0.409999999999968 0.899999999999977 0.409999999999968 0.899999999999977 C 0.409999999999968 0.899999999999977 96.61 0.899999999999977 96.61 0.899999999999977 C 96.61 0.899999999999977 96.61 231.3 96.61 231.3 C 96.61 231.3 0.409999999999968 231.3 0.409999999999968 231.3 Z"/></mask></defs><g><path fill="#f5f5f5" fill-rule="nonzero" stroke="none" d="M 0.409999999999968 231.3 C 0.409999999999968 231.3 0.409999999999968 0.899999999999977 0.409999999999968 0.899999999999977 C 0.409999999999968 0.899999999999977 96.61 0.899999999999977 96.61 0.899999999999977 C 96.61 0.899999999999977 96.61 231.3 96.61 231.3 C 96.61 231.3 0.409999999999968 231.3 0.409999999999968 231.3 Z" transform="matrix(1 0 0 1 -522 -14787 ) matrix(1 0 0 1 522 14787 )"/><path fill="none" stroke="#d2d2d2" stroke-width="2" d="M 0.409999999999968 231.3 C 0.409999999999968 231.3 0.409999999999968 0.899999999999977 0.409999999999968 0.899999999999977 C 0.409999999999968 0.899999999999977 96.61 0.899999999999977 96.61 0.899999999999977 C 96.61 0.899999999999977 96.61 231.3 96.61 231.3 C 96.61 231.3 0.409999999999968 231.3 0.409999999999968 231.3 Z" mask="url(#clip2242)" transform="matrix(1 0 0 1 -522 -14787 ) matrix(1 0 0 1 522 14787 )"/></g></svg>