<svg xmlns="http://www.w3.org/2000/svg" xmlns:xlink="http://www.w3.org/1999/xlink" width="24" height="24" version="1.1"><defs><mask id="clip2298" fill="#fff"><path fill-rule="evenodd" d="M 0.919999999999959 23.99 C 0.919999999999959 23.99 0.919999999999959 0.29000000000002 0.919999999999959 0.29000000000002 C 0.919999999999959 0.29000000000002 23.2199999999999 0.29000000000002 23.2199999999999 0.29000000000002 C 23.2199999999999 0.29000000000002 23.2199999999999 23.99 23.2199999999999 23.99 C 23.2199999999999 23.99 0.919999999999959 23.99 0.919999999999959 23.99 Z"/></mask></defs><g><path fill="#e6ac83" fill-rule="nonzero" stroke="none" d="M 0.919999999999959 23.99 C 0.919999999999959 23.99 0.919999999999959 0.29000000000002 0.919999999999959 0.29000000000002 C 0.919999999999959 0.29000000000002 23.2199999999999 0.29000000000002 23.2199999999999 0.29000000000002 C 23.2199999999999 0.29000000000002 23.2199999999999 23.99 23.2199999999999 23.99 C 23.2199999999999 23.99 0.919999999999959 23.99 0.919999999999959 23.99 Z" transform="matrix(1 0 0 1 -734 -14613 ) matrix(1 0 0 1 734 14613 )"/><path fill="none" stroke="#e6ac83" stroke-width="2" d="M 0.919999999999959 23.99 C 0.919999999999959 23.99 0.919999999999959 0.29000000000002 0.919999999999959 0.29000000000002 C 0.919999999999959 0.29000000000002 23.2199999999999 0.29000000000002 23.2199999999999 0.29000000000002 C 23.2199999999999 0.29000000000002 23.2199999999999 23.99 23.2199999999999 23.99 C 23.2199999999999 23.99 0.919999999999959 23.99 0.919999999999959 23.99 Z" mask="url(#clip2298)" transform="matrix(1 0 0 1 -734 -14613 ) matrix(1 0 0 1 734 14613 )"/></g></svg>