<svg xmlns="http://www.w3.org/2000/svg" xmlns:xlink="http://www.w3.org/1999/xlink" width="23" height="24" version="1.1"><defs><mask id="clip2285" fill="#fff"><path fill-rule="evenodd" d="M 0.220000000000027 23.99 C 0.220000000000027 23.99 0.220000000000027 0.29000000000002 0.220000000000027 0.29000000000002 C 0.220000000000027 0.29000000000002 22.52 0.29000000000002 22.52 0.29000000000002 C 22.52 0.29000000000002 22.52 23.99 22.52 23.99 C 22.52 23.99 0.220000000000027 23.99 0.220000000000027 23.99 Z"/></mask></defs><g><path fill="#e6ac83" fill-rule="nonzero" stroke="none" d="M 0.220000000000027 23.99 C 0.220000000000027 23.99 0.220000000000027 0.29000000000002 0.220000000000027 0.29000000000002 C 0.220000000000027 0.29000000000002 22.52 0.29000000000002 22.52 0.29000000000002 C 22.52 0.29000000000002 22.52 23.99 22.52 23.99 C 22.52 23.99 0.220000000000027 23.99 0.220000000000027 23.99 Z" transform="matrix(1 0 0 1 -571 -14613 ) matrix(1 0 0 1 571 14613 )"/><path fill="none" stroke="#e6ac83" stroke-width="2" d="M 0.220000000000027 23.99 C 0.220000000000027 23.99 0.220000000000027 0.29000000000002 0.220000000000027 0.29000000000002 C 0.220000000000027 0.29000000000002 22.52 0.29000000000002 22.52 0.29000000000002 C 22.52 0.29000000000002 22.52 23.99 22.52 23.99 C 22.52 23.99 0.220000000000027 23.99 0.220000000000027 23.99 Z" mask="url(#clip2285)" transform="matrix(1 0 0 1 -571 -14613 ) matrix(1 0 0 1 571 14613 )"/></g></svg>