<?xml version="1.0" encoding="utf-8"?>
<svg version="1.1" xmlns:xlink="http://www.w3.org/1999/xlink" width="188px" height="188px" xmlns="http://www.w3.org/2000/svg">
  <defs>
    <radialGradient cx="1.1" cy="0.949999999999953" r="263" gradientTransform="matrix(1 0 0 1 4.44089209850063E-16 0 )" gradientUnits="userSpaceOnUse" id="RadialGradient1125">
      <stop id="Stop1126" stop-color="#fffbf3" offset="0" />
      <stop id="Stop1127" stop-color="#fffaf0" offset="1" />
    </radialGradient>
    <mask fill="white" id="clip1128">
      <path d="M 0.599999999999994 187.45  C 0.599999999999994 187.45  0.599999999999994 0.450000000000045  0.599999999999994 0.450000000000045  C 0.599999999999994 0.450000000000045  187.6 0.450000000000045  187.6 0.450000000000045  C 187.6 0.450000000000045  187.6 187.45  187.6 187.45  C 187.6 187.45  0.599999999999994 187.45  0.599999999999994 187.45  Z " fill-rule="evenodd" />
    </mask>
  </defs>
  <g transform="matrix(1 0 0 1 -148 -17474 )">
    <path d="M 0.599999999999994 187.45  C 0.599999999999994 187.45  0.599999999999994 0.450000000000045  0.599999999999994 0.450000000000045  C 0.599999999999994 0.450000000000045  187.6 0.450000000000045  187.6 0.450000000000045  C 187.6 0.450000000000045  187.6 187.45  187.6 187.45  C 187.6 187.45  0.599999999999994 187.45  0.599999999999994 187.45  Z " fill-rule="nonzero" fill="url(#RadialGradient1125)" stroke="none" transform="matrix(1 0 0 1 148 17474 )" />
    <path d="M 0.599999999999994 187.45  C 0.599999999999994 187.45  0.599999999999994 0.450000000000045  0.599999999999994 0.450000000000045  C 0.599999999999994 0.450000000000045  187.6 0.450000000000045  187.6 0.450000000000045  C 187.6 0.450000000000045  187.6 187.45  187.6 187.45  C 187.6 187.45  0.599999999999994 187.45  0.599999999999994 187.45  Z " stroke-width="2" stroke="#969696" fill="none" transform="matrix(1 0 0 1 148 17474 )" mask="url(#clip1128)" />
  </g>
</svg>