<svg xmlns="http://www.w3.org/2000/svg" xmlns:xlink="http://www.w3.org/1999/xlink" width="4" height="5" version="1.1"><defs><mask id="clip1855" fill="#fff"><path fill-rule="evenodd" d="M 1.06 4.48999999999998 C 0.560000000000002 4.48999999999998 0.0600000000000023 3.88999999999999 0.0600000000000023 3.19 C 0.0600000000000023 2.48999999999998 0.560000000000002 0.889999999999986 1.06 0.889999999999986 C 1.66000000000003 0.889999999999986 3.16000000000003 2.48999999999998 3.16000000000003 3.19 C 3.16000000000003 3.88999999999999 1.66000000000003 4.48999999999998 1.06 4.48999999999998 Z"/></mask></defs><g><path fill="#3e3938" fill-rule="nonzero" stroke="none" d="M 1.06 4.48999999999998 C 0.560000000000002 4.48999999999998 0.0600000000000023 3.88999999999999 0.0600000000000023 3.19 C 0.0600000000000023 2.48999999999998 0.560000000000002 0.889999999999986 1.06 0.889999999999986 C 1.66000000000003 0.889999999999986 3.16000000000003 2.48999999999998 3.16000000000003 3.19 C 3.16000000000003 3.88999999999999 1.66000000000003 4.48999999999998 1.06 4.48999999999998 Z" transform="matrix(1 0 0 1 -364 -6896 ) matrix(1 0 0 1 364 6896 )"/><path fill="none" stroke="#3e3938" stroke-width="2" d="M 1.06 4.48999999999998 C 0.560000000000002 4.48999999999998 0.0600000000000023 3.88999999999999 0.0600000000000023 3.19 C 0.0600000000000023 2.48999999999998 0.560000000000002 0.889999999999986 1.06 0.889999999999986 C 1.66000000000003 0.889999999999986 3.16000000000003 2.48999999999998 3.16000000000003 3.19 C 3.16000000000003 3.88999999999999 1.66000000000003 4.48999999999998 1.06 4.48999999999998 Z" mask="url(#clip1855)" transform="matrix(1 0 0 1 -364 -6896 ) matrix(1 0 0 1 364 6896 )"/></g></svg>