<svg xmlns="http://www.w3.org/2000/svg" xmlns:xlink="http://www.w3.org/1999/xlink" width="56" height="60" version="1.1"><defs><mask id="clip2091" fill="#fff"><path fill-rule="evenodd" d="M 20.4400000000001 0.27 C 20.4400000000001 0.27 36.24 0.27 36.24 0.27 C 47.14 0.27 55.9400000000001 9.67 55.9400000000001 21.37 C 55.9400000000001 21.37 55.9400000000001 38.07 55.9400000000001 38.07 C 55.9400000000001 49.67 47.14 59.07 36.24 59.07 C 36.24 59.07 20.4400000000001 59.07 20.4400000000001 59.07 C 9.53999999999996 59.07 0.740000000000009 49.67 0.740000000000009 38.07 C 0.740000000000009 38.07 0.740000000000009 21.37 0.740000000000009 21.37 C 0.740000000000009 9.67 9.53999999999996 0.27 20.4400000000001 0.27 Z"/></mask></defs><g><path fill="#cdcece" fill-opacity=".078" fill-rule="nonzero" stroke="none" d="M 20.4400000000001 0.27 C 20.4400000000001 0.27 36.24 0.27 36.24 0.27 C 47.14 0.27 55.9400000000001 9.67 55.9400000000001 21.37 C 55.9400000000001 21.37 55.9400000000001 38.07 55.9400000000001 38.07 C 55.9400000000001 49.67 47.14 59.07 36.24 59.07 C 36.24 59.07 20.4400000000001 59.07 20.4400000000001 59.07 C 9.53999999999996 59.07 0.740000000000009 49.67 0.740000000000009 38.07 C 0.740000000000009 38.07 0.740000000000009 21.37 0.740000000000009 21.37 C 0.740000000000009 9.67 9.53999999999996 0.27 20.4400000000001 0.27 Z" transform="matrix(1 0 0 1 -1022 -12411 ) matrix(1 0 0 1 1022 12411 )"/><path fill="none" stroke="#cdcece" stroke-opacity=".059" stroke-width="2" d="M 20.4400000000001 0.27 C 20.4400000000001 0.27 36.24 0.27 36.24 0.27 C 47.14 0.27 55.9400000000001 9.67 55.9400000000001 21.37 C 55.9400000000001 21.37 55.9400000000001 38.07 55.9400000000001 38.07 C 55.9400000000001 49.67 47.14 59.07 36.24 59.07 C 36.24 59.07 20.4400000000001 59.07 20.4400000000001 59.07 C 9.53999999999996 59.07 0.740000000000009 49.67 0.740000000000009 38.07 C 0.740000000000009 38.07 0.740000000000009 21.37 0.740000000000009 21.37 C 0.740000000000009 9.67 9.53999999999996 0.27 20.4400000000001 0.27 Z" mask="url(#clip2091)" transform="matrix(1 0 0 1 -1022 -12411 ) matrix(1 0 0 1 1022 12411 )"/></g></svg>