<?xml version="1.0" encoding="utf-8"?>
<svg version="1.1" xmlns:xlink="http://www.w3.org/1999/xlink" width="24px" height="25px" xmlns="http://www.w3.org/2000/svg">
  <defs>
    <linearGradient gradientUnits="userSpaceOnUse" x1="0.759999999999991" y1="1.10999999999999" x2="0.759999999999991" y2="23.81" id="LinearGradient905">
      <stop id="Stop906" stop-color="#7fdfdb" offset="0" />
      <stop id="Stop907" stop-color="#48d1cc" offset="1" />
    </linearGradient>
    <mask fill="white" id="clip908">
      <path d="M 11.56 0.610000000000014  C 17.86 0.610000000000014  23.96 5.71000000000004  23.96 11.91  C 23.96 18.21  17.86 24.31  11.56 24.31  C 5.36000000000001 24.31  0.259999999999991 18.21  0.259999999999991 11.91  C 0.259999999999991 5.71000000000004  5.36000000000001 0.610000000000014  11.56 0.610000000000014  Z " fill-rule="evenodd" />
    </mask>
  </defs>
  <g transform="matrix(1 0 0 1 -519 -16597 )">
    <path d="M 11.56 0.610000000000014  C 17.86 0.610000000000014  23.96 5.71000000000004  23.96 11.91  C 23.96 18.21  17.86 24.31  11.56 24.31  C 5.36000000000001 24.31  0.259999999999991 18.21  0.259999999999991 11.91  C 0.259999999999991 5.71000000000004  5.36000000000001 0.610000000000014  11.56 0.610000000000014  Z " fill-rule="nonzero" fill="url(#LinearGradient905)" stroke="none" transform="matrix(1 0 0 1 519 16597 )" />
    <path d="M 11.56 0.610000000000014  C 17.86 0.610000000000014  23.96 5.71000000000004  23.96 11.91  C 23.96 18.21  17.86 24.31  11.56 24.31  C 5.36000000000001 24.31  0.259999999999991 18.21  0.259999999999991 11.91  C 0.259999999999991 5.71000000000004  5.36000000000001 0.610000000000014  11.56 0.610000000000014  Z " stroke-width="2" stroke="#2db4af" fill="none" transform="matrix(1 0 0 1 519 16597 )" mask="url(#clip908)" />
  </g>
</svg>