<?xml version="1.0" encoding="utf-8"?>
<svg version="1.1" xmlns:xlink="http://www.w3.org/1999/xlink" width="23px" height="25px" xmlns="http://www.w3.org/2000/svg">
  <defs>
    <mask fill="white" id="clip738">
      <path d="M 0.220000000000027 24.32  C 0.220000000000027 24.32  0.220000000000027 0.620000000000005  0.220000000000027 0.620000000000005  C 0.220000000000027 0.620000000000005  22.52 0.620000000000005  22.52 0.620000000000005  C 22.52 0.620000000000005  22.52 24.32  22.52 24.32  C 22.52 24.32  0.220000000000027 24.32  0.220000000000027 24.32  Z " fill-rule="evenodd" />
    </mask>
  </defs>
  <g transform="matrix(1 0 0 1 -571 -14590 )">
    <path d="M 0.220000000000027 24.32  C 0.220000000000027 24.32  0.220000000000027 0.620000000000005  0.220000000000027 0.620000000000005  C 0.220000000000027 0.620000000000005  22.52 0.620000000000005  22.52 0.620000000000005  C 22.52 0.620000000000005  22.52 24.32  22.52 24.32  C 22.52 24.32  0.220000000000027 24.32  0.220000000000027 24.32  Z " fill-rule="nonzero" fill="#df9661" stroke="none" transform="matrix(1 0 0 1 571 14590 )" />
    <path d="M 0.220000000000027 24.32  C 0.220000000000027 24.32  0.220000000000027 0.620000000000005  0.220000000000027 0.620000000000005  C 0.220000000000027 0.620000000000005  22.52 0.620000000000005  22.52 0.620000000000005  C 22.52 0.620000000000005  22.52 24.32  22.52 24.32  C 22.52 24.32  0.220000000000027 24.32  0.220000000000027 24.32  Z " stroke-width="2" stroke="#df9661" fill="none" transform="matrix(1 0 0 1 571 14590 )" mask="url(#clip738)" />
  </g>
</svg>