<?xml version="1.0" encoding="utf-8"?>
<svg version="1.1" xmlns:xlink="http://www.w3.org/1999/xlink" width="182px" height="116px" xmlns="http://www.w3.org/2000/svg">
  <defs>
    <mask fill="white" id="clip1124">
      <path d="M 161.5 4.93000000000001  C 161.5 4.93000000000001  178.8 0.129999999999995  178.8 0.129999999999995  C 180.9 7.63  182 15.63  182 23.73  C 182 73.23  139.8 115.43  90.3000000000001 115.43  C 41.7 115.43  2.10000000000002 74.63  0.700000000000045 26.43  C 0.700000000000045 26.43  18.7 25.83  18.7 25.83  C 19.8000000000001 64.53  51.4000000000001 97.43  90.3000000000001 97.43  C 129.9 97.43  164 63.33  164 23.73  C 164 17.23  163.2 10.83  161.5 4.93000000000001  Z " fill-rule="evenodd" />
    </mask>
  </defs>
  <g transform="matrix(1 0 0 1 -685 -19026 )">
    <path d="M 161.5 4.93000000000001  C 161.5 4.93000000000001  178.8 0.129999999999995  178.8 0.129999999999995  C 180.9 7.63  182 15.63  182 23.73  C 182 73.23  139.8 115.43  90.3000000000001 115.43  C 41.7 115.43  2.10000000000002 74.63  0.700000000000045 26.43  C 0.700000000000045 26.43  18.7 25.83  18.7 25.83  C 19.8000000000001 64.53  51.4000000000001 97.43  90.3000000000001 97.43  C 129.9 97.43  164 63.33  164 23.73  C 164 17.23  163.2 10.83  161.5 4.93000000000001  Z " fill-rule="nonzero" fill="#ebebeb" stroke="none" transform="matrix(1 0 0 1 685 19026 )" />
    <path d="M 161.5 4.93000000000001  C 161.5 4.93000000000001  178.8 0.129999999999995  178.8 0.129999999999995  C 180.9 7.63  182 15.63  182 23.73  C 182 73.23  139.8 115.43  90.3000000000001 115.43  C 41.7 115.43  2.10000000000002 74.63  0.700000000000045 26.43  C 0.700000000000045 26.43  18.7 25.83  18.7 25.83  C 19.8000000000001 64.53  51.4000000000001 97.43  90.3000000000001 97.43  C 129.9 97.43  164 63.33  164 23.73  C 164 17.23  163.2 10.83  161.5 4.93000000000001  Z " stroke-width="4" stroke="#ffffff" fill="none" transform="matrix(1 0 0 1 685 19026 )" mask="url(#clip1124)" />
  </g>
</svg>