<svg xmlns="http://www.w3.org/2000/svg" xmlns:xlink="http://www.w3.org/1999/xlink" width="7" height="9" version="1.1"><defs><mask id="clip1847" fill="#fff"><path fill-rule="evenodd" d="M 2.63999999999999 0.159999999999968 C 2.63999999999999 0.159999999999968 5.54000000000002 0.159999999999968 5.54000000000002 0.159999999999968 C 5.54000000000002 0.159999999999968 6.84000000000003 2.55999999999995 6.84000000000003 2.55999999999995 C 6.84000000000003 2.55999999999995 0.740000000000009 8.75999999999999 0.740000000000009 8.75999999999999 C 0.740000000000009 8.75999999999999 2.63999999999999 0.159999999999968 2.63999999999999 0.159999999999968 Z"/></mask></defs><g><path fill="#fff" fill-rule="nonzero" stroke="none" d="M 2.63999999999999 0.159999999999968 C 2.63999999999999 0.159999999999968 5.54000000000002 0.159999999999968 5.54000000000002 0.159999999999968 C 5.54000000000002 0.159999999999968 6.84000000000003 2.55999999999995 6.84000000000003 2.55999999999995 C 6.84000000000003 2.55999999999995 0.740000000000009 8.75999999999999 0.740000000000009 8.75999999999999 C 0.740000000000009 8.75999999999999 2.63999999999999 0.159999999999968 2.63999999999999 0.159999999999968 Z" transform="matrix(1 0 0 1 -365 -7109 ) matrix(1 0 0 1 365 7109 )"/><path fill="none" stroke="#fff" stroke-width="2" d="M 2.63999999999999 0.159999999999968 C 2.63999999999999 0.159999999999968 5.54000000000002 0.159999999999968 5.54000000000002 0.159999999999968 C 5.54000000000002 0.159999999999968 6.84000000000003 2.55999999999995 6.84000000000003 2.55999999999995 C 6.84000000000003 2.55999999999995 0.740000000000009 8.75999999999999 0.740000000000009 8.75999999999999 C 0.740000000000009 8.75999999999999 2.63999999999999 0.159999999999968 2.63999999999999 0.159999999999968 Z" mask="url(#clip1847)" transform="matrix(1 0 0 1 -365 -7109 ) matrix(1 0 0 1 365 7109 )"/></g></svg>