<svg xmlns="http://www.w3.org/2000/svg" xmlns:xlink="http://www.w3.org/1999/xlink" width="12" height="31" version="1.1"><defs><mask id="clip2668" fill="#fff"><path fill-rule="evenodd" d="M 0.904999999999973 30.015 C 0.904999999999973 30.015 0.904999999999973 0.264999999999986 0.904999999999973 0.264999999999986 C 0.904999999999973 0.264999999999986 11.755 0.264999999999986 11.755 0.264999999999986 C 11.755 0.264999999999986 11.755 30.015 11.755 30.015 C 11.755 30.015 0.904999999999973 30.015 0.904999999999973 30.015 Z"/></mask></defs><g><path fill="#33b2c3" fill-rule="nonzero" stroke="none" d="M 0.904999999999973 30.015 C 0.904999999999973 30.015 0.904999999999973 0.264999999999986 0.904999999999973 0.264999999999986 C 0.904999999999973 0.264999999999986 11.755 0.264999999999986 11.755 0.264999999999986 C 11.755 0.264999999999986 11.755 30.015 11.755 30.015 C 11.755 30.015 0.904999999999973 30.015 0.904999999999973 30.015 Z" transform="matrix(1 0 0 1 -450 -19257 ) matrix(1 0 0 1 450 19257 )"/><path fill="none" stroke="#33b2c3" stroke-width=".5" d="M 0.904999999999973 30.015 C 0.904999999999973 30.015 0.904999999999973 0.264999999999986 0.904999999999973 0.264999999999986 C 0.904999999999973 0.264999999999986 11.755 0.264999999999986 11.755 0.264999999999986 C 11.755 0.264999999999986 11.755 30.015 11.755 30.015 C 11.755 30.015 0.904999999999973 30.015 0.904999999999973 30.015 Z" mask="url(#clip2668)" transform="matrix(1 0 0 1 -450 -19257 ) matrix(1 0 0 1 450 19257 )"/></g></svg>