<?xml version="1.0" encoding="utf-8"?>
<svg version="1.1" xmlns:xlink="http://www.w3.org/1999/xlink" width="162px" height="127px" xmlns="http://www.w3.org/2000/svg">
  <defs>
    <linearGradient gradientUnits="userSpaceOnUse" x1="-9.26" y1="21.85" x2="170.74" y2="104.85" id="LinearGradient1081">
      <stop id="Stop1082" stop-color="#ffffff" offset="0" />
      <stop id="Stop1083" stop-color="#e0e0e0" offset="0.2" />
      <stop id="Stop1084" stop-color="#7d7d7d" offset="0.85" />
      <stop id="Stop1085" stop-color="#7d7d7d" offset="1" />
    </linearGradient>
    <mask fill="white" id="clip1086">
      <path d="M 13.74 126.25  C 5.04 113.45  0.240000000000002 97.45  0.240000000000002 81.45  C 0.240000000000002 37.25  37.14 0.349999999999994  81.34 0.349999999999994  C 125.54 0.349999999999994  161.44 37.25  161.44 81.45  C 161.44 97.45  156.64 113.45  147.94 126.25  C 147.94 126.25  13.74 126.25  13.74 126.25  Z " fill-rule="evenodd" />
    </mask>
  </defs>
  <g transform="matrix(1 0 0 1 -132 -17159 )">
    <path d="M 13.74 126.25  C 5.04 113.45  0.240000000000002 97.45  0.240000000000002 81.45  C 0.240000000000002 37.25  37.14 0.349999999999994  81.34 0.349999999999994  C 125.54 0.349999999999994  161.44 37.25  161.44 81.45  C 161.44 97.45  156.64 113.45  147.94 126.25  C 147.94 126.25  13.74 126.25  13.74 126.25  Z " fill-rule="nonzero" fill="url(#LinearGradient1081)" stroke="none" transform="matrix(1 0 0 1 132 17159 )" />
    <path d="M 13.74 126.25  C 5.04 113.45  0.240000000000002 97.45  0.240000000000002 81.45  C 0.240000000000002 37.25  37.14 0.349999999999994  81.34 0.349999999999994  C 125.54 0.349999999999994  161.44 37.25  161.44 81.45  C 161.44 97.45  156.64 113.45  147.94 126.25  C 147.94 126.25  13.74 126.25  13.74 126.25  Z " stroke-width="2" stroke="#909090" fill="none" transform="matrix(1 0 0 1 132 17159 )" mask="url(#clip1086)" />
  </g>
</svg>