<?xml version="1.0" encoding="utf-8"?>
<svg version="1.1" xmlns:xlink="http://www.w3.org/1999/xlink" width="144px" height="25px" xmlns="http://www.w3.org/2000/svg">
  <defs>
    <mask fill="white" id="clip178">
      <path d="M 0.530000000000001 24.01  C 0.530000000000001 24.01  0.530000000000001 0.309999999999945  0.530000000000001 0.309999999999945  C 0.530000000000001 0.309999999999945  143.93 0.309999999999945  143.93 0.309999999999945  C 143.93 0.309999999999945  143.93 24.01  143.93 24.01  C 143.93 24.01  0.530000000000001 24.01  0.530000000000001 24.01  Z " fill-rule="evenodd" />
    </mask>
  </defs>
  <g transform="matrix(1 0 0 1 -254 -3740 )">
    <path d="M 0.530000000000001 24.01  C 0.530000000000001 24.01  0.530000000000001 0.309999999999945  0.530000000000001 0.309999999999945  C 0.530000000000001 0.309999999999945  143.93 0.309999999999945  143.93 0.309999999999945  C 143.93 0.309999999999945  143.93 24.01  143.93 24.01  C 143.93 24.01  0.530000000000001 24.01  0.530000000000001 24.01  Z " fill-rule="nonzero" fill="#8ebbff" stroke="none" transform="matrix(1 0 0 1 254 3740 )" />
    <path d="M 0.530000000000001 24.01  C 0.530000000000001 24.01  0.530000000000001 0.309999999999945  0.530000000000001 0.309999999999945  C 0.530000000000001 0.309999999999945  143.93 0.309999999999945  143.93 0.309999999999945  C 143.93 0.309999999999945  143.93 24.01  143.93 24.01  C 143.93 24.01  0.530000000000001 24.01  0.530000000000001 24.01  Z " stroke-width="2" stroke="#8ebbff" fill="none" transform="matrix(1 0 0 1 254 3740 )" mask="url(#clip178)" />
  </g>
</svg>