<svg xmlns="http://www.w3.org/2000/svg" xmlns:xlink="http://www.w3.org/1999/xlink" width="224" height="35" version="1.1"><defs><mask id="clip1679" fill="#fff"><path fill-rule="evenodd" d="M 0.759999999999991 34.1899999999999 C 0.759999999999991 34.1899999999999 0.759999999999991 0.889999999999986 0.759999999999991 0.889999999999986 C 0.759999999999991 0.889999999999986 223.26 0.889999999999986 223.26 0.889999999999986 C 223.26 0.889999999999986 223.26 34.1899999999999 223.26 34.1899999999999 C 223.26 34.1899999999999 0.759999999999991 34.1899999999999 0.759999999999991 34.1899999999999 Z"/></mask></defs><g><path fill="#595757" fill-rule="nonzero" stroke="none" d="M 0.759999999999991 34.1899999999999 C 0.759999999999991 34.1899999999999 0.759999999999991 0.889999999999986 0.759999999999991 0.889999999999986 C 0.759999999999991 0.889999999999986 223.26 0.889999999999986 223.26 0.889999999999986 C 223.26 0.889999999999986 223.26 34.1899999999999 223.26 34.1899999999999 C 223.26 34.1899999999999 0.759999999999991 34.1899999999999 0.759999999999991 34.1899999999999 Z" transform="matrix(1 0 0 1 -219 -1784 ) matrix(1 0 0 1 219 1784 )"/><path fill="none" stroke="#595757" stroke-width="2" d="M 0.759999999999991 34.1899999999999 C 0.759999999999991 34.1899999999999 0.759999999999991 0.889999999999986 0.759999999999991 0.889999999999986 C 0.759999999999991 0.889999999999986 223.26 0.889999999999986 223.26 0.889999999999986 C 223.26 0.889999999999986 223.26 34.1899999999999 223.26 34.1899999999999 C 223.26 34.1899999999999 0.759999999999991 34.1899999999999 0.759999999999991 34.1899999999999 Z" mask="url(#clip1679)" transform="matrix(1 0 0 1 -219 -1784 ) matrix(1 0 0 1 219 1784 )"/></g></svg>