<svg xmlns="http://www.w3.org/2000/svg" xmlns:xlink="http://www.w3.org/1999/xlink" width="144" height="25" version="1.1"><defs><mask id="clip1714" fill="#fff"><path fill-rule="evenodd" d="M 0.530000000000001 24.01 C 0.530000000000001 24.01 0.530000000000001 0.309999999999945 0.530000000000001 0.309999999999945 C 0.530000000000001 0.309999999999945 143.93 0.309999999999945 143.93 0.309999999999945 C 143.93 0.309999999999945 143.93 24.01 143.93 24.01 C 143.93 24.01 0.530000000000001 24.01 0.530000000000001 24.01 Z"/></mask></defs><g><path fill="#8ebbff" fill-rule="nonzero" stroke="none" d="M 0.530000000000001 24.01 C 0.530000000000001 24.01 0.530000000000001 0.309999999999945 0.530000000000001 0.309999999999945 C 0.530000000000001 0.309999999999945 143.93 0.309999999999945 143.93 0.309999999999945 C 143.93 0.309999999999945 143.93 24.01 143.93 24.01 C 143.93 24.01 0.530000000000001 24.01 0.530000000000001 24.01 Z" transform="matrix(1 0 0 1 -254 -3740 ) matrix(1 0 0 1 254 3740 )"/><path fill="none" stroke="#8ebbff" stroke-width="2" d="M 0.530000000000001 24.01 C 0.530000000000001 24.01 0.530000000000001 0.309999999999945 0.530000000000001 0.309999999999945 C 0.530000000000001 0.309999999999945 143.93 0.309999999999945 143.93 0.309999999999945 C 143.93 0.309999999999945 143.93 24.01 143.93 24.01 C 143.93 24.01 0.530000000000001 24.01 0.530000000000001 24.01 Z" mask="url(#clip1714)" transform="matrix(1 0 0 1 -254 -3740 ) matrix(1 0 0 1 254 3740 )"/></g></svg>