<?xml version="1.0" encoding="utf-8"?>
<svg version="1.1" xmlns:xlink="http://www.w3.org/1999/xlink" width="6px" height="21px" xmlns="http://www.w3.org/2000/svg">
  <defs>
    <mask fill="white" id="clip389">
      <path d="M 0.589999999999918 19.71  C 0.589999999999918 19.71  0.589999999999918 0.409999999999968  0.589999999999918 0.409999999999968  C 0.589999999999918 0.409999999999968  5.38999999999987 0.409999999999968  5.38999999999987 0.409999999999968  C 5.38999999999987 0.409999999999968  5.38999999999987 19.71  5.38999999999987 19.71  C 5.38999999999987 19.71  5.38999999999987 20.8099999999999  3.4899999999999 20.8099999999999  C 1.58999999999992 20.8099999999999  0.589999999999918 19.71  0.589999999999918 19.71  Z " fill-rule="evenodd" />
    </mask>
  </defs>
  <g transform="matrix(1 0 0 1 -948 -7018 )">
    <path d="M 0.589999999999918 19.71  C 0.589999999999918 19.71  0.589999999999918 0.409999999999968  0.589999999999918 0.409999999999968  C 0.589999999999918 0.409999999999968  5.38999999999987 0.409999999999968  5.38999999999987 0.409999999999968  C 5.38999999999987 0.409999999999968  5.38999999999987 19.71  5.38999999999987 19.71  C 5.38999999999987 19.71  5.38999999999987 20.8099999999999  3.4899999999999 20.8099999999999  C 1.58999999999992 20.8099999999999  0.589999999999918 19.71  0.589999999999918 19.71  Z " fill-rule="nonzero" fill="#f06b6c" stroke="none" transform="matrix(1 0 0 1 948 7018 )" />
    <path d="M 0.589999999999918 19.71  C 0.589999999999918 19.71  0.589999999999918 0.409999999999968  0.589999999999918 0.409999999999968  C 0.589999999999918 0.409999999999968  5.38999999999987 0.409999999999968  5.38999999999987 0.409999999999968  C 5.38999999999987 0.409999999999968  5.38999999999987 19.71  5.38999999999987 19.71  C 5.38999999999987 19.71  5.38999999999987 20.8099999999999  3.4899999999999 20.8099999999999  C 1.58999999999992 20.8099999999999  0.589999999999918 19.71  0.589999999999918 19.71  Z " stroke-width="2" stroke="#f06b6c" fill="none" transform="matrix(1 0 0 1 948 7018 )" mask="url(#clip389)" />
  </g>
</svg>