<?xml version="1.0" encoding="utf-8"?>
<svg version="1.1" xmlns:xlink="http://www.w3.org/1999/xlink" width="117px" height="117px" xmlns="http://www.w3.org/2000/svg">
  <defs>
    <mask fill="white" id="clip271">
      <path d="M 59.1999999999999 116.02  C 27.5 116.02  0.899999999999977 90.42  0.899999999999977 58.8199999999999  C 0.899999999999977 27.12  27.5 0.519999999999982  59.1999999999999 0.519999999999982  C 90.8 0.519999999999982  116.4 27.12  116.4 58.8199999999999  C 116.4 90.42  90.8 116.02  59.1999999999999 116.02  Z " fill-rule="evenodd" />
    </mask>
  </defs>
  <g transform="matrix(1 0 0 1 -832 -7362 )">
    <path d="M 59.1999999999999 116.02  C 27.5 116.02  0.899999999999977 90.42  0.899999999999977 58.8199999999999  C 0.899999999999977 27.12  27.5 0.519999999999982  59.1999999999999 0.519999999999982  C 90.8 0.519999999999982  116.4 27.12  116.4 58.8199999999999  C 116.4 90.42  90.8 116.02  59.1999999999999 116.02  Z " fill-rule="nonzero" fill="#ffffff" stroke="none" transform="matrix(1 0 0 1 832 7362 )" />
    <path d="M 59.1999999999999 116.02  C 27.5 116.02  0.899999999999977 90.42  0.899999999999977 58.8199999999999  C 0.899999999999977 27.12  27.5 0.519999999999982  59.1999999999999 0.519999999999982  C 90.8 0.519999999999982  116.4 27.12  116.4 58.8199999999999  C 116.4 90.42  90.8 116.02  59.1999999999999 116.02  Z " stroke-width="2" stroke="#ffede7" fill="none" transform="matrix(1 0 0 1 832 7362 )" mask="url(#clip271)" />
  </g>
</svg>