<?xml version="1.0" encoding="utf-8"?>
<svg version="1.1" xmlns:xlink="http://www.w3.org/1999/xlink" width="4px" height="5px" xmlns="http://www.w3.org/2000/svg">
  <defs>
    <mask fill="white" id="clip328">
      <path d="M 1.36000000000001 4.48999999999998  C 0.860000000000014 4.48999999999998  0.360000000000014 3.88999999999999  0.360000000000014 3.19  C 0.360000000000014 2.48999999999998  0.860000000000014 0.889999999999986  1.36000000000001 0.889999999999986  C 1.96000000000004 0.889999999999986  3.46000000000004 2.48999999999998  3.46000000000004 3.19  C 3.46000000000004 3.88999999999999  1.96000000000004 4.48999999999998  1.36000000000001 4.48999999999998  Z " fill-rule="evenodd" />
    </mask>
  </defs>
  <g transform="matrix(1 0 0 1 -481 -6896 )">
    <path d="M 1.36000000000001 4.48999999999998  C 0.860000000000014 4.48999999999998  0.360000000000014 3.88999999999999  0.360000000000014 3.19  C 0.360000000000014 2.48999999999998  0.860000000000014 0.889999999999986  1.36000000000001 0.889999999999986  C 1.96000000000004 0.889999999999986  3.46000000000004 2.48999999999998  3.46000000000004 3.19  C 3.46000000000004 3.88999999999999  1.96000000000004 4.48999999999998  1.36000000000001 4.48999999999998  Z " fill-rule="nonzero" fill="#3e3938" stroke="none" transform="matrix(1 0 0 1 481 6896 )" />
    <path d="M 1.36000000000001 4.48999999999998  C 0.860000000000014 4.48999999999998  0.360000000000014 3.88999999999999  0.360000000000014 3.19  C 0.360000000000014 2.48999999999998  0.860000000000014 0.889999999999986  1.36000000000001 0.889999999999986  C 1.96000000000004 0.889999999999986  3.46000000000004 2.48999999999998  3.46000000000004 3.19  C 3.46000000000004 3.88999999999999  1.96000000000004 4.48999999999998  1.36000000000001 4.48999999999998  Z " stroke-width="2" stroke="#3e3938" fill="none" transform="matrix(1 0 0 1 481 6896 )" mask="url(#clip328)" />
  </g>
</svg>