<?xml version="1.0" encoding="utf-8"?>
<svg version="1.1" xmlns:xlink="http://www.w3.org/1999/xlink" width="11px" height="44px" xmlns="http://www.w3.org/2000/svg">
  <defs>
    <mask fill="white" id="clip517">
      <path d="M 0.690000000000001 43.13  C 0.690000000000001 43.13  0.690000000000001 0.829999999999998  0.690000000000001 0.829999999999998  C 0.690000000000001 0.829999999999998  10.69 0.829999999999998  10.69 0.829999999999998  C 10.69 0.829999999999998  10.69 43.13  10.69 43.13  C 10.69 43.13  0.690000000000001 43.13  0.690000000000001 43.13  Z " fill-rule="evenodd" />
    </mask>
  </defs>
  <g transform="matrix(1 0 0 1 -112 -10452 )">
    <path d="M 0.690000000000001 43.13  C 0.690000000000001 43.13  0.690000000000001 0.829999999999998  0.690000000000001 0.829999999999998  C 0.690000000000001 0.829999999999998  10.69 0.829999999999998  10.69 0.829999999999998  C 10.69 0.829999999999998  10.69 43.13  10.69 43.13  C 10.69 43.13  0.690000000000001 43.13  0.690000000000001 43.13  Z " fill-rule="nonzero" fill="#000000" stroke="none" transform="matrix(1 0 0 1 112 10452 )" />
    <path d="M 0.690000000000001 43.13  C 0.690000000000001 43.13  0.690000000000001 0.829999999999998  0.690000000000001 0.829999999999998  C 0.690000000000001 0.829999999999998  10.69 0.829999999999998  10.69 0.829999999999998  C 10.69 0.829999999999998  10.69 43.13  10.69 43.13  C 10.69 43.13  0.690000000000001 43.13  0.690000000000001 43.13  Z " stroke-width="2" stroke="#000000" fill="none" transform="matrix(1 0 0 1 112 10452 )" mask="url(#clip517)" />
  </g>
</svg>