<svg xmlns="http://www.w3.org/2000/svg" xmlns:xlink="http://www.w3.org/1999/xlink" width="76" height="76" version="1.1"><defs><mask id="clip1753" fill="#fff"><path fill-rule="evenodd" d="M 38.64 75.68 C 18.04 75.68 0.340000000000003 58.98 0.340000000000003 38.38 C 0.340000000000003 17.78 18.04 0.0799999999999983 38.64 0.0799999999999983 C 59.24 0.0799999999999983 75.94 17.78 75.94 38.38 C 75.94 58.98 59.24 75.68 38.64 75.68 Z"/></mask></defs><g><path fill="#8bc0d3" fill-rule="nonzero" stroke="none" d="M 38.64 75.68 C 18.04 75.68 0.340000000000003 58.98 0.340000000000003 38.38 C 0.340000000000003 17.78 18.04 0.0799999999999983 38.64 0.0799999999999983 C 59.24 0.0799999999999983 75.94 17.78 75.94 38.38 C 75.94 58.98 59.24 75.68 38.64 75.68 Z" transform="matrix(1 0 0 1 -164 -4950 ) matrix(1 0 0 1 164 4950 )"/><path fill="none" stroke="#8bc0d3" stroke-width="2" d="M 38.64 75.68 C 18.04 75.68 0.340000000000003 58.98 0.340000000000003 38.38 C 0.340000000000003 17.78 18.04 0.0799999999999983 38.64 0.0799999999999983 C 59.24 0.0799999999999983 75.94 17.78 75.94 38.38 C 75.94 58.98 59.24 75.68 38.64 75.68 Z" mask="url(#clip1753)" transform="matrix(1 0 0 1 -164 -4950 ) matrix(1 0 0 1 164 4950 )"/></g></svg>