<svg xmlns="http://www.w3.org/2000/svg" xmlns:xlink="http://www.w3.org/1999/xlink" width="6" height="21" version="1.1"><defs><mask id="clip1922" fill="#fff"><path fill-rule="evenodd" d="M 0.439999999999941 19.71 C 0.439999999999941 19.71 0.439999999999941 0.409999999999968 0.439999999999941 0.409999999999968 C 0.439999999999941 0.409999999999968 5.2399999999999 0.409999999999968 5.2399999999999 0.409999999999968 C 5.2399999999999 0.409999999999968 5.2399999999999 19.71 5.2399999999999 19.71 C 5.2399999999999 19.71 5.2399999999999 20.8099999999999 3.33999999999992 20.8099999999999 C 1.43999999999994 20.8099999999999 0.439999999999941 19.71 0.439999999999941 19.71 Z"/></mask></defs><g><path fill="#f06b6c" fill-rule="nonzero" stroke="none" d="M 0.439999999999941 19.71 C 0.439999999999941 19.71 0.439999999999941 0.409999999999968 0.439999999999941 0.409999999999968 C 0.439999999999941 0.409999999999968 5.2399999999999 0.409999999999968 5.2399999999999 0.409999999999968 C 5.2399999999999 0.409999999999968 5.2399999999999 19.71 5.2399999999999 19.71 C 5.2399999999999 19.71 5.2399999999999 20.8099999999999 3.33999999999992 20.8099999999999 C 1.43999999999994 20.8099999999999 0.439999999999941 19.71 0.439999999999941 19.71 Z" transform="matrix(1 0 0 1 -956 -7018 ) matrix(1 0 0 1 956 7018 )"/><path fill="none" stroke="#f06b6c" stroke-width="2" d="M 0.439999999999941 19.71 C 0.439999999999941 19.71 0.439999999999941 0.409999999999968 0.439999999999941 0.409999999999968 C 0.439999999999941 0.409999999999968 5.2399999999999 0.409999999999968 5.2399999999999 0.409999999999968 C 5.2399999999999 0.409999999999968 5.2399999999999 19.71 5.2399999999999 19.71 C 5.2399999999999 19.71 5.2399999999999 20.8099999999999 3.33999999999992 20.8099999999999 C 1.43999999999994 20.8099999999999 0.439999999999941 19.71 0.439999999999941 19.71 Z" mask="url(#clip1922)" transform="matrix(1 0 0 1 -956 -7018 ) matrix(1 0 0 1 956 7018 )"/></g></svg>