<?xml version="1.0" encoding="utf-8"?>
<svg version="1.1" xmlns:xlink="http://www.w3.org/1999/xlink" width="268px" height="16px" xmlns="http://www.w3.org/2000/svg">
  <defs>
    <mask fill="white" id="clip982">
      <path d="M 0.350000000000023 15.63  C 0.350000000000023 15.63  0.350000000000023 0.529999999999973  0.350000000000023 0.529999999999973  C 0.350000000000023 0.529999999999973  267.55 0.529999999999973  267.55 0.529999999999973  C 267.55 0.529999999999973  267.55 15.63  267.55 15.63  C 267.55 15.63  0.350000000000023 15.63  0.350000000000023 15.63  Z " fill-rule="evenodd" />
    </mask>
  </defs>
  <g transform="matrix(1 0 0 1 -891 -17270 )">
    <path d="M 0.350000000000023 15.63  C 0.350000000000023 15.63  0.350000000000023 0.529999999999973  0.350000000000023 0.529999999999973  C 0.350000000000023 0.529999999999973  267.55 0.529999999999973  267.55 0.529999999999973  C 267.55 0.529999999999973  267.55 15.63  267.55 15.63  C 267.55 15.63  0.350000000000023 15.63  0.350000000000023 15.63  Z " fill-rule="nonzero" fill="#ffffff" stroke="none" fill-opacity="0" transform="matrix(1 0 0 1 891 17270 )" />
    <path d="M 0.350000000000023 15.63  C 0.350000000000023 15.63  0.350000000000023 0.529999999999973  0.350000000000023 0.529999999999973  C 0.350000000000023 0.529999999999973  267.55 0.529999999999973  267.55 0.529999999999973  C 267.55 0.529999999999973  267.55 15.63  267.55 15.63  C 267.55 15.63  0.350000000000023 15.63  0.350000000000023 15.63  Z " stroke-width="2" stroke="#787878" fill="none" transform="matrix(1 0 0 1 891 17270 )" mask="url(#clip982)" />
  </g>
</svg>