<?xml version="1.0" encoding="utf-8"?>
<svg version="1.1" xmlns:xlink="http://www.w3.org/1999/xlink" width="449px" height="796px" xmlns="http://www.w3.org/2000/svg">
  <defs>
    <mask fill="white" id="clip1973">
      <path d="M 0.0399999999999636 795.2  C 0.0399999999999636 795.2  0.0399999999999636 0.5  0.0399999999999636 0.5  C 0.0399999999999636 0.5  448.24 0.5  448.24 0.5  C 448.24 0.5  448.24 795.2  448.24 795.2  C 448.24 795.2  0.0399999999999636 795.2  0.0399999999999636 795.2  Z " fill-rule="evenodd" />
    </mask>
  </defs>
  <g transform="matrix(1 0 0 1 -762 -8592 )">
    <path d="M 0.0399999999999636 795.2  C 0.0399999999999636 795.2  0.0399999999999636 0.5  0.0399999999999636 0.5  C 0.0399999999999636 0.5  448.24 0.5  448.24 0.5  C 448.24 0.5  448.24 795.2  448.24 795.2  C 448.24 795.2  0.0399999999999636 795.2  0.0399999999999636 795.2  Z " fill-rule="nonzero" fill="#00ae9d" stroke="none" transform="matrix(1 0 0 1 762 8592 )" />
    <path d="M 0.0399999999999636 795.2  C 0.0399999999999636 795.2  0.0399999999999636 0.5  0.0399999999999636 0.5  C 0.0399999999999636 0.5  448.24 0.5  448.24 0.5  C 448.24 0.5  448.24 795.2  448.24 795.2  C 448.24 795.2  0.0399999999999636 795.2  0.0399999999999636 795.2  Z " stroke-width="2" stroke="#00ae9d" fill="none" transform="matrix(1 0 0 1 762 8592 )" mask="url(#clip1973)" />
  </g>
</svg>