<svg xmlns="http://www.w3.org/2000/svg" xmlns:xlink="http://www.w3.org/1999/xlink" width="156" height="470" version="1.1"><defs><mask id="clip2021" fill="#fff"><path fill-rule="evenodd" d="M 0.160000000000082 469.5 C 0.160000000000082 469.5 0.160000000000082 0.5 0.160000000000082 0.5 C 0.160000000000082 0.5 155.46 0.5 155.46 0.5 C 155.46 0.5 155.46 469.5 155.46 469.5 C 155.46 469.5 0.160000000000082 469.5 0.160000000000082 469.5 Z"/></mask></defs><g><path fill="#fdebd4" fill-rule="nonzero" stroke="none" d="M 0.160000000000082 469.5 C 0.160000000000082 469.5 0.160000000000082 0.5 0.160000000000082 0.5 C 0.160000000000082 0.5 155.46 0.5 155.46 0.5 C 155.46 0.5 155.46 469.5 155.46 469.5 C 155.46 469.5 0.160000000000082 469.5 0.160000000000082 469.5 Z" transform="matrix(1 0 0 1 -973 -11629 ) matrix(1 0 0 1 973 11629 )"/><path fill="none" stroke="#d2d2d2" stroke-width="2" d="M 0.160000000000082 469.5 C 0.160000000000082 469.5 0.160000000000082 0.5 0.160000000000082 0.5 C 0.160000000000082 0.5 155.46 0.5 155.46 0.5 C 155.46 0.5 155.46 469.5 155.46 469.5 C 155.46 469.5 0.160000000000082 469.5 0.160000000000082 469.5 Z" mask="url(#clip2021)" transform="matrix(1 0 0 1 -973 -11629 ) matrix(1 0 0 1 973 11629 )"/></g></svg>