<svg xmlns="http://www.w3.org/2000/svg" xmlns:xlink="http://www.w3.org/1999/xlink" width="4" height="5" version="1.1"><defs><mask id="clip1894" fill="#fff"><path fill-rule="evenodd" d="M 1.28 4.48999999999998 C 0.780000000000001 4.48999999999998 0.280000000000001 3.88999999999999 0.280000000000001 3.19 C 0.280000000000001 2.48999999999998 0.780000000000001 0.889999999999986 1.28 0.889999999999986 C 1.88 0.889999999999986 3.38 2.48999999999998 3.38 3.19 C 3.38 3.88999999999999 1.88 4.48999999999998 1.28 4.48999999999998 Z"/></mask></defs><g><path fill="#3e3938" fill-rule="nonzero" stroke="none" d="M 1.28 4.48999999999998 C 0.780000000000001 4.48999999999998 0.280000000000001 3.88999999999999 0.280000000000001 3.19 C 0.280000000000001 2.48999999999998 0.780000000000001 0.889999999999986 1.28 0.889999999999986 C 1.88 0.889999999999986 3.38 2.48999999999998 3.38 3.19 C 3.38 3.88999999999999 1.88 4.48999999999998 1.28 4.48999999999998 Z" transform="matrix(1 0 0 1 -280 -6896 ) matrix(1 0 0 1 280 6896 )"/><path fill="none" stroke="#3e3938" stroke-width="2" d="M 1.28 4.48999999999998 C 0.780000000000001 4.48999999999998 0.280000000000001 3.88999999999999 0.280000000000001 3.19 C 0.280000000000001 2.48999999999998 0.780000000000001 0.889999999999986 1.28 0.889999999999986 C 1.88 0.889999999999986 3.38 2.48999999999998 3.38 3.19 C 3.38 3.88999999999999 1.88 4.48999999999998 1.28 4.48999999999998 Z" mask="url(#clip1894)" transform="matrix(1 0 0 1 -280 -6896 ) matrix(1 0 0 1 280 6896 )"/></g></svg>