<svg xmlns="http://www.w3.org/2000/svg" xmlns:xlink="http://www.w3.org/1999/xlink" width="437" height="35" version="1.1"><defs><mask id="clip1680" fill="#fff"><path fill-rule="evenodd" d="M 0.759999999999991 34.04 C 0.759999999999991 34.04 0.759999999999991 0.740000000000009 0.759999999999991 0.740000000000009 C 0.759999999999991 0.740000000000009 436.46 0.740000000000009 436.46 0.740000000000009 C 436.46 0.740000000000009 436.46 34.04 436.46 34.04 C 436.46 34.04 0.759999999999991 34.04 0.759999999999991 34.04 Z"/></mask></defs><g><path fill="#fafafa" fill-rule="nonzero" stroke="none" d="M 0.759999999999991 34.04 C 0.759999999999991 34.04 0.759999999999991 0.740000000000009 0.759999999999991 0.740000000000009 C 0.759999999999991 0.740000000000009 436.46 0.740000000000009 436.46 0.740000000000009 C 436.46 0.740000000000009 436.46 34.04 436.46 34.04 C 436.46 34.04 0.759999999999991 34.04 0.759999999999991 34.04 Z" transform="matrix(1 0 0 1 -219 -1726 ) matrix(1 0 0 1 219 1726 )"/><path fill="none" stroke="silver" stroke-width="2" d="M 0.759999999999991 34.04 C 0.759999999999991 34.04 0.759999999999991 0.740000000000009 0.759999999999991 0.740000000000009 C 0.759999999999991 0.740000000000009 436.46 0.740000000000009 436.46 0.740000000000009 C 436.46 0.740000000000009 436.46 34.04 436.46 34.04 C 436.46 34.04 0.759999999999991 34.04 0.759999999999991 34.04 Z" mask="url(#clip1680)" transform="matrix(1 0 0 1 -219 -1726 ) matrix(1 0 0 1 219 1726 )"/></g></svg>