<svg xmlns="http://www.w3.org/2000/svg" xmlns:xlink="http://www.w3.org/1999/xlink" width="56" height="59" version="1.1"><defs><mask id="clip2086" fill="#fff"><path fill-rule="evenodd" d="M 35.91 0.159999999999997 C 35.91 0.159999999999997 20.11 0.159999999999997 20.11 0.159999999999997 C 9.21 0.159999999999997 0.41 9.56 0.41 21.26 C 0.41 21.26 0.41 37.96 0.41 37.96 C 0.41 49.56 9.21 58.96 20.11 58.96 C 20.11 58.96 35.91 58.96 35.91 58.96 C 46.81 58.96 55.61 49.56 55.61 37.96 C 55.61 37.96 55.61 21.26 55.61 21.26 C 55.61 9.56 46.81 0.159999999999997 35.91 0.159999999999997 Z"/></mask></defs><g><path fill="#dcdcdd" fill-opacity=".078" fill-rule="nonzero" stroke="none" d="M 35.91 0.159999999999997 C 35.91 0.159999999999997 20.11 0.159999999999997 20.11 0.159999999999997 C 9.21 0.159999999999997 0.41 9.56 0.41 21.26 C 0.41 21.26 0.41 37.96 0.41 37.96 C 0.41 49.56 9.21 58.96 20.11 58.96 C 20.11 58.96 35.91 58.96 35.91 58.96 C 46.81 58.96 55.61 49.56 55.61 37.96 C 55.61 37.96 55.61 21.26 55.61 21.26 C 55.61 9.56 46.81 0.159999999999997 35.91 0.159999999999997 Z" transform="matrix(1 0 0 1 -101 -12606 ) matrix(1 0 0 1 101 12606 )"/><path fill="none" stroke="#dcdcdd" stroke-opacity=".059" stroke-width="2" d="M 35.91 0.159999999999997 C 35.91 0.159999999999997 20.11 0.159999999999997 20.11 0.159999999999997 C 9.21 0.159999999999997 0.41 9.56 0.41 21.26 C 0.41 21.26 0.41 37.96 0.41 37.96 C 0.41 49.56 9.21 58.96 20.11 58.96 C 20.11 58.96 35.91 58.96 35.91 58.96 C 46.81 58.96 55.61 49.56 55.61 37.96 C 55.61 37.96 55.61 21.26 55.61 21.26 C 55.61 9.56 46.81 0.159999999999997 35.91 0.159999999999997 Z" mask="url(#clip2086)" transform="matrix(1 0 0 1 -101 -12606 ) matrix(1 0 0 1 101 12606 )"/></g></svg>