<svg xmlns="http://www.w3.org/2000/svg" xmlns:xlink="http://www.w3.org/1999/xlink" width="25" height="24" version="1.1"><defs><mask id="clip1958" fill="#fff"><path fill-rule="evenodd" d="M 0.670000000000016 23.95 C 0.670000000000016 23.95 0.670000000000016 0.350000000000001 0.670000000000016 0.350000000000001 C 0.670000000000016 0.350000000000001 24.27 0.350000000000001 24.27 0.350000000000001 C 24.27 0.350000000000001 24.27 23.95 24.27 23.95 C 24.27 23.95 0.670000000000016 23.95 0.670000000000016 23.95 Z"/></mask></defs><g><path fill="#fff" fill-rule="nonzero" stroke="none" d="M 0.670000000000016 23.95 C 0.670000000000016 23.95 0.670000000000016 0.350000000000001 0.670000000000016 0.350000000000001 C 0.670000000000016 0.350000000000001 24.27 0.350000000000001 24.27 0.350000000000001 C 24.27 0.350000000000001 24.27 23.95 24.27 23.95 C 24.27 23.95 0.670000000000016 23.95 0.670000000000016 23.95 Z" transform="matrix(1 0 0 1 -448 -7792 ) matrix(1 0 0 1 448 7792 )"/><path fill="none" stroke="#fff" stroke-width="2" d="M 0.670000000000016 23.95 C 0.670000000000016 23.95 0.670000000000016 0.350000000000001 0.670000000000016 0.350000000000001 C 0.670000000000016 0.350000000000001 24.27 0.350000000000001 24.27 0.350000000000001 C 24.27 0.350000000000001 24.27 23.95 24.27 23.95 C 24.27 23.95 0.670000000000016 23.95 0.670000000000016 23.95 Z" mask="url(#clip1958)" transform="matrix(1 0 0 1 -448 -7792 ) matrix(1 0 0 1 448 7792 )"/></g></svg>