<?xml version="1.0" encoding="utf-8"?>
<svg version="1.1" xmlns:xlink="http://www.w3.org/1999/xlink" width="121px" height="121px" xmlns="http://www.w3.org/2000/svg">
  <defs>
    <mask fill="white" id="clip1131">
      <path d="M 60.015 120.945  C 26.915 120.945  0.0149999999999864 93.795  0.0149999999999864 60.595  C 0.0149999999999864 27.495  26.915 0.594999999999999  60.015 0.594999999999999  C 93.215 0.594999999999999  120.365 27.495  120.365 60.595  C 120.365 93.795  93.215 120.945  60.015 120.945  Z " fill-rule="evenodd" />
    </mask>
  </defs>
  <g transform="matrix(1 0 0 1 -464 -18990 )">
    <path d="M 60.015 120.945  C 26.915 120.945  0.0149999999999864 93.795  0.0149999999999864 60.595  C 0.0149999999999864 27.495  26.915 0.594999999999999  60.015 0.594999999999999  C 93.215 0.594999999999999  120.365 27.495  120.365 60.595  C 120.365 93.795  93.215 120.945  60.015 120.945  Z " fill-rule="nonzero" fill="#ffffff" stroke="none" fill-opacity="0" transform="matrix(1 0 0 1 464 18990 )" />
    <path d="M 60.015 120.945  C 26.915 120.945  0.0149999999999864 93.795  0.0149999999999864 60.595  C 0.0149999999999864 27.495  26.915 0.594999999999999  60.015 0.594999999999999  C 93.215 0.594999999999999  120.365 27.495  120.365 60.595  C 120.365 93.795  93.215 120.945  60.015 120.945  Z " stroke-width="0.5" stroke="#33b2c3" fill="none" transform="matrix(1 0 0 1 464 18990 )" mask="url(#clip1131)" />
  </g>
</svg>