<?xml version="1.0" encoding="utf-8"?>
<svg version="1.1" xmlns:xlink="http://www.w3.org/1999/xlink" width="113px" height="113px" xmlns="http://www.w3.org/2000/svg">
  <defs>
    <mask fill="white" id="clip1639">
      <path d="M 112.9 56.8199999999999  C 112.9 87.52  87.9 112.52  57.1999999999999 112.52  C 26.4 112.52  0.399999999999977 87.52  0.399999999999977 56.8199999999999  C 0.399999999999977 26.02  26.4 0.0199999999999818  57.1999999999999 0.0199999999999818  C 87.9 0.0199999999999818  112.9 26.02  112.9 56.8199999999999  Z M 13.9 56.8199999999999  C 13.9 80.12  33.8 99.02  57.1999999999999 99.02  C 80.5 99.02  99.4 80.12  99.4 56.8199999999999  C 99.4 33.42  80.5 13.52  57.1999999999999 13.52  C 33.8 13.52  13.9 33.42  13.9 56.8199999999999  Z " fill-rule="evenodd" />
    </mask>
  </defs>
  <g transform="matrix(1 0 0 1 -834 -7364 )">
    <path d="M 112.9 56.8199999999999  C 112.9 87.52  87.9 112.52  57.1999999999999 112.52  C 26.4 112.52  0.399999999999977 87.52  0.399999999999977 56.8199999999999  C 0.399999999999977 26.02  26.4 0.0199999999999818  57.1999999999999 0.0199999999999818  C 87.9 0.0199999999999818  112.9 26.02  112.9 56.8199999999999  Z M 13.9 56.8199999999999  C 13.9 80.12  33.8 99.02  57.1999999999999 99.02  C 80.5 99.02  99.4 80.12  99.4 56.8199999999999  C 99.4 33.42  80.5 13.52  57.1999999999999 13.52  C 33.8 13.52  13.9 33.42  13.9 56.8199999999999  Z " fill-rule="nonzero" fill="#ffcd55" stroke="none" transform="matrix(1 0 0 1 834 7364 )" />
    <path d="M 112.9 56.8199999999999  C 112.9 87.52  87.9 112.52  57.1999999999999 112.52  C 26.4 112.52  0.399999999999977 87.52  0.399999999999977 56.8199999999999  C 0.399999999999977 26.02  26.4 0.0199999999999818  57.1999999999999 0.0199999999999818  C 87.9 0.0199999999999818  112.9 26.02  112.9 56.8199999999999  Z " stroke-width="2" stroke="#ffffff" fill="none" transform="matrix(1 0 0 1 834 7364 )" mask="url(#clip1639)" />
    <path d="M 13.9 56.8199999999999  C 13.9 80.12  33.8 99.02  57.1999999999999 99.02  C 80.5 99.02  99.4 80.12  99.4 56.8199999999999  C 99.4 33.42  80.5 13.52  57.1999999999999 13.52  C 33.8 13.52  13.9 33.42  13.9 56.8199999999999  Z " stroke-width="2" stroke="#ffffff" fill="none" transform="matrix(1 0 0 1 834 7364 )" mask="url(#clip1639)" />
  </g>
</svg>