<svg xmlns="http://www.w3.org/2000/svg" xmlns:xlink="http://www.w3.org/1999/xlink" width="56" height="60" version="1.1"><defs><mask id="clip2108" fill="#fff"><path fill-rule="evenodd" d="M 19.9300000000001 59.5899999999999 C 19.9300000000001 59.5899999999999 35.8299999999999 59.5899999999999 35.8299999999999 59.5899999999999 C 46.6300000000001 59.5899999999999 55.4300000000001 50.79 55.4300000000001 39.99 C 55.4300000000001 39.99 55.4300000000001 20.49 55.4300000000001 20.49 C 55.4300000000001 9.58999999999992 46.6300000000001 0.789999999999964 35.8299999999999 0.789999999999964 C 35.8299999999999 0.789999999999964 19.9300000000001 0.789999999999964 19.9300000000001 0.789999999999964 C 9.02999999999997 0.789999999999964 0.230000000000018 9.58999999999992 0.230000000000018 20.49 C 0.230000000000018 20.49 0.230000000000018 39.99 0.230000000000018 39.99 C 0.230000000000018 50.79 9.02999999999997 59.5899999999999 19.9300000000001 59.5899999999999 Z"/></mask></defs><g><path fill="#888889" fill-opacity=".078" fill-rule="nonzero" stroke="none" d="M 19.9300000000001 59.5899999999999 C 19.9300000000001 59.5899999999999 35.8299999999999 59.5899999999999 35.8299999999999 59.5899999999999 C 46.6300000000001 59.5899999999999 55.4300000000001 50.79 55.4300000000001 39.99 C 55.4300000000001 39.99 55.4300000000001 20.49 55.4300000000001 20.49 C 55.4300000000001 9.58999999999992 46.6300000000001 0.789999999999964 35.8299999999999 0.789999999999964 C 35.8299999999999 0.789999999999964 19.9300000000001 0.789999999999964 19.9300000000001 0.789999999999964 C 9.02999999999997 0.789999999999964 0.230000000000018 9.58999999999992 0.230000000000018 20.49 C 0.230000000000018 20.49 0.230000000000018 39.99 0.230000000000018 39.99 C 0.230000000000018 50.79 9.02999999999997 59.5899999999999 19.9300000000001 59.5899999999999 Z" transform="matrix(1 0 0 1 -1145 -13114 ) matrix(1 0 0 1 1145 13114 )"/><path fill="none" stroke="#888889" stroke-opacity=".059" stroke-width="2" d="M 19.9300000000001 59.5899999999999 C 19.9300000000001 59.5899999999999 35.8299999999999 59.5899999999999 35.8299999999999 59.5899999999999 C 46.6300000000001 59.5899999999999 55.4300000000001 50.79 55.4300000000001 39.99 C 55.4300000000001 39.99 55.4300000000001 20.49 55.4300000000001 20.49 C 55.4300000000001 9.58999999999992 46.6300000000001 0.789999999999964 35.8299999999999 0.789999999999964 C 35.8299999999999 0.789999999999964 19.9300000000001 0.789999999999964 19.9300000000001 0.789999999999964 C 9.02999999999997 0.789999999999964 0.230000000000018 9.58999999999992 0.230000000000018 20.49 C 0.230000000000018 20.49 0.230000000000018 39.99 0.230000000000018 39.99 C 0.230000000000018 50.79 9.02999999999997 59.5899999999999 19.9300000000001 59.5899999999999 Z" mask="url(#clip2108)" transform="matrix(1 0 0 1 -1145 -13114 ) matrix(1 0 0 1 1145 13114 )"/></g></svg>