<svg xmlns="http://www.w3.org/2000/svg" xmlns:xlink="http://www.w3.org/1999/xlink" width="76" height="76" version="1.1"><defs><mask id="clip1755" fill="#fff"><path fill-rule="evenodd" d="M 38.42 75.68 C 17.82 75.68 0.120000000000005 58.98 0.120000000000005 38.38 C 0.120000000000005 17.78 17.82 0.0799999999999983 38.42 0.0799999999999983 C 59.02 0.0799999999999983 75.72 17.78 75.72 38.38 C 75.72 58.98 59.02 75.68 38.42 75.68 Z"/></mask></defs><g><path fill="#8bc0d3" fill-rule="nonzero" stroke="none" d="M 38.42 75.68 C 17.82 75.68 0.120000000000005 58.98 0.120000000000005 38.38 C 0.120000000000005 17.78 17.82 0.0799999999999983 38.42 0.0799999999999983 C 59.02 0.0799999999999983 75.72 17.78 75.72 38.38 C 75.72 58.98 59.02 75.68 38.42 75.68 Z" transform="matrix(1 0 0 1 -314 -4950 ) matrix(1 0 0 1 314 4950 )"/><path fill="none" stroke="#8bc0d3" stroke-width="2" d="M 38.42 75.68 C 17.82 75.68 0.120000000000005 58.98 0.120000000000005 38.38 C 0.120000000000005 17.78 17.82 0.0799999999999983 38.42 0.0799999999999983 C 59.02 0.0799999999999983 75.72 17.78 75.72 38.38 C 75.72 58.98 59.02 75.68 38.42 75.68 Z" mask="url(#clip1755)" transform="matrix(1 0 0 1 -314 -4950 ) matrix(1 0 0 1 314 4950 )"/></g></svg>