<?xml version="1.0" encoding="utf-8"?>
<svg version="1.1" xmlns:xlink="http://www.w3.org/1999/xlink" width="577px" height="32px" xmlns="http://www.w3.org/2000/svg">
  <defs>
    <mask fill="white" id="clip1795">
      <path d="M 0.899999999999977 31.65  C 0.899999999999977 31.65  0.899999999999977 0.25  0.899999999999977 0.25  C 0.899999999999977 0.25  577 0.25  577 0.25  C 577 0.25  577 31.65  577 31.65  C 577 31.65  0.899999999999977 31.65  0.899999999999977 31.65  Z " fill-rule="evenodd" />
    </mask>
  </defs>
  <g transform="matrix(1 0 0 1 -516 -6074 )">
    <path d="M 0.899999999999977 31.65  C 0.899999999999977 31.65  0.899999999999977 0.25  0.899999999999977 0.25  C 0.899999999999977 0.25  577 0.25  577 0.25  C 577 0.25  577 31.65  577 31.65  C 577 31.65  0.899999999999977 31.65  0.899999999999977 31.65  Z " fill-rule="nonzero" fill="#595757" stroke="none" transform="matrix(1 0 0 1 516 6074 )" />
    <path d="M 0.899999999999977 31.65  C 0.899999999999977 31.65  0.899999999999977 0.25  0.899999999999977 0.25  C 0.899999999999977 0.25  577 0.25  577 0.25  C 577 0.25  577 31.65  577 31.65  C 577 31.65  0.899999999999977 31.65  0.899999999999977 31.65  Z " stroke-width="2" stroke="#595757" fill="none" transform="matrix(1 0 0 1 516 6074 )" mask="url(#clip1795)" />
  </g>
</svg>