<?xml version="1.0" encoding="utf-8"?>
<svg version="1.1" xmlns:xlink="http://www.w3.org/1999/xlink" width="780px" height="56px" xmlns="http://www.w3.org/2000/svg">
  <defs>
    <mask fill="white" id="clip1537">
      <path d="M 0.0200000000000102 4.67000000000007  C 0.0200000000000102 2.67000000000007  1.72 0.970000000000027  3.92000000000002 0.970000000000027  C 3.92000000000002 0.970000000000027  775.42 0.970000000000027  775.42 0.970000000000027  C 777.52 0.970000000000027  779.42 2.67000000000007  779.42 4.67000000000007  C 779.42 4.67000000000007  779.42 51.87  779.42 51.87  C 779.42 53.87  777.52 55.6700000000001  775.42 55.6700000000001  C 775.42 55.6700000000001  3.92000000000002 55.6700000000001  3.92000000000002 55.6700000000001  C 1.72 55.6700000000001  0.0200000000000102 53.87  0.0200000000000102 51.87  C 0.0200000000000102 51.87  0.0200000000000102 4.67000000000007  0.0200000000000102 4.67000000000007  Z " fill-rule="evenodd" />
    </mask>
  </defs>
  <g transform="matrix(1 0 0 1 -261 -2959 )">
    <path d="M 0.0200000000000102 4.67000000000007  C 0.0200000000000102 2.67000000000007  1.72 0.970000000000027  3.92000000000002 0.970000000000027  C 3.92000000000002 0.970000000000027  775.42 0.970000000000027  775.42 0.970000000000027  C 777.52 0.970000000000027  779.42 2.67000000000007  779.42 4.67000000000007  C 779.42 4.67000000000007  779.42 51.87  779.42 51.87  C 779.42 53.87  777.52 55.6700000000001  775.42 55.6700000000001  C 775.42 55.6700000000001  3.92000000000002 55.6700000000001  3.92000000000002 55.6700000000001  C 1.72 55.6700000000001  0.0200000000000102 53.87  0.0200000000000102 51.87  C 0.0200000000000102 51.87  0.0200000000000102 4.67000000000007  0.0200000000000102 4.67000000000007  Z " fill-rule="nonzero" fill="#b3e58c" stroke="none" transform="matrix(1 0 0 1 261 2959 )" />
    <path d="M 0.0200000000000102 4.67000000000007  C 0.0200000000000102 2.67000000000007  1.72 0.970000000000027  3.92000000000002 0.970000000000027  C 3.92000000000002 0.970000000000027  775.42 0.970000000000027  775.42 0.970000000000027  C 777.52 0.970000000000027  779.42 2.67000000000007  779.42 4.67000000000007  C 779.42 4.67000000000007  779.42 51.87  779.42 51.87  C 779.42 53.87  777.52 55.6700000000001  775.42 55.6700000000001  C 775.42 55.6700000000001  3.92000000000002 55.6700000000001  3.92000000000002 55.6700000000001  C 1.72 55.6700000000001  0.0200000000000102 53.87  0.0200000000000102 51.87  C 0.0200000000000102 51.87  0.0200000000000102 4.67000000000007  0.0200000000000102 4.67000000000007  Z " stroke-width="2" stroke="#b3e58c" fill="none" transform="matrix(1 0 0 1 261 2959 )" mask="url(#clip1537)" />
  </g>
</svg>