<?xml version="1.0" encoding="utf-8"?>
<svg version="1.1" xmlns:xlink="http://www.w3.org/1999/xlink" width="21px" height="21px" xmlns="http://www.w3.org/2000/svg">
  <defs>
    <mask fill="white" id="clip1568">
      <path d="M 10.715 20.705  C 10.715 20.705  0.564999999999998 10.805  0.564999999999998 10.805  C 0.564999999999998 10.805  10.715 0.655000000000001  10.715 0.655000000000001  C 10.715 0.655000000000001  20.615 10.805  20.615 10.805  C 20.615 10.805  10.715 20.705  10.715 20.705  Z " fill-rule="evenodd" />
    </mask>
  </defs>
  <g transform="matrix(1 0 0 1 -207 -4273 )">
    <path d="M 10.715 20.705  C 10.715 20.705  0.564999999999998 10.805  0.564999999999998 10.805  C 0.564999999999998 10.805  10.715 0.655000000000001  10.715 0.655000000000001  C 10.715 0.655000000000001  20.615 10.805  20.615 10.805  C 20.615 10.805  10.715 20.705  10.715 20.705  Z " fill-rule="nonzero" fill="#33b2c3" stroke="none" transform="matrix(1 0 0 1 207 4273 )" />
    <path d="M 10.715 20.705  C 10.715 20.705  0.564999999999998 10.805  0.564999999999998 10.805  C 0.564999999999998 10.805  10.715 0.655000000000001  10.715 0.655000000000001  C 10.715 0.655000000000001  20.615 10.805  20.615 10.805  C 20.615 10.805  10.715 20.705  10.715 20.705  Z " stroke-width="0.5" stroke="#33b2c3" fill="none" transform="matrix(1 0 0 1 207 4273 )" mask="url(#clip1568)" />
  </g>
</svg>