<?xml version="1.0" encoding="utf-8"?>
<svg version="1.1" xmlns:xlink="http://www.w3.org/1999/xlink" width="26px" height="25px" xmlns="http://www.w3.org/2000/svg">
  <defs>
    <mask fill="white" id="clip329">
      <path d="M 0.670000000000002 1.91999999999996  C 0.670000000000002 0.819999999999936  1.47 0.0199999999999818  2.57000000000001 0.0199999999999818  C 2.57000000000001 0.0199999999999818  23.27 0.0199999999999818  23.27 0.0199999999999818  C 24.27 0.0199999999999818  25.17 0.819999999999936  25.17 1.91999999999996  C 25.17 1.91999999999996  25.17 22.62  25.17 22.62  C 25.17 23.62  24.27 24.52  23.27 24.52  C 23.27 24.52  2.57000000000001 24.52  2.57000000000001 24.52  C 1.47 24.52  0.670000000000002 23.62  0.670000000000002 22.62  C 0.670000000000002 22.62  0.670000000000002 1.91999999999996  0.670000000000002 1.91999999999996  Z " fill-rule="evenodd" />
    </mask>
  </defs>
  <g transform="matrix(1 0 0 1 -189 -6510 )">
    <path d="M 0.670000000000002 1.91999999999996  C 0.670000000000002 0.819999999999936  1.47 0.0199999999999818  2.57000000000001 0.0199999999999818  C 2.57000000000001 0.0199999999999818  23.27 0.0199999999999818  23.27 0.0199999999999818  C 24.27 0.0199999999999818  25.17 0.819999999999936  25.17 1.91999999999996  C 25.17 1.91999999999996  25.17 22.62  25.17 22.62  C 25.17 23.62  24.27 24.52  23.27 24.52  C 23.27 24.52  2.57000000000001 24.52  2.57000000000001 24.52  C 1.47 24.52  0.670000000000002 23.62  0.670000000000002 22.62  C 0.670000000000002 22.62  0.670000000000002 1.91999999999996  0.670000000000002 1.91999999999996  Z " fill-rule="nonzero" fill="#ffaf00" stroke="none" transform="matrix(1 0 0 1 189 6510 )" />
    <path d="M 0.670000000000002 1.91999999999996  C 0.670000000000002 0.819999999999936  1.47 0.0199999999999818  2.57000000000001 0.0199999999999818  C 2.57000000000001 0.0199999999999818  23.27 0.0199999999999818  23.27 0.0199999999999818  C 24.27 0.0199999999999818  25.17 0.819999999999936  25.17 1.91999999999996  C 25.17 1.91999999999996  25.17 22.62  25.17 22.62  C 25.17 23.62  24.27 24.52  23.27 24.52  C 23.27 24.52  2.57000000000001 24.52  2.57000000000001 24.52  C 1.47 24.52  0.670000000000002 23.62  0.670000000000002 22.62  C 0.670000000000002 22.62  0.670000000000002 1.91999999999996  0.670000000000002 1.91999999999996  Z " stroke-width="2" stroke="#ffaf00" fill="none" transform="matrix(1 0 0 1 189 6510 )" mask="url(#clip329)" />
  </g>
</svg>