<?xml version="1.0" encoding="utf-8"?>
<svg version="1.1" xmlns:xlink="http://www.w3.org/1999/xlink" width="4px" height="5px" xmlns="http://www.w3.org/2000/svg">
  <defs>
    <mask fill="white" id="clip403">
      <path d="M 1.76999999999998 4.48999999999998  C 1.26999999999998 4.48999999999998  0.769999999999982 3.88999999999999  0.769999999999982 3.19  C 0.769999999999982 2.48999999999998  1.26999999999998 0.889999999999986  1.76999999999998 0.889999999999986  C 2.37 0.889999999999986  3.87 2.48999999999998  3.87 3.19  C 3.87 3.88999999999999  2.37 4.48999999999998  1.76999999999998 4.48999999999998  Z " fill-rule="evenodd" />
    </mask>
  </defs>
  <g transform="matrix(1 0 0 1 -475 -6896 )">
    <path d="M 1.76999999999998 4.48999999999998  C 1.26999999999998 4.48999999999998  0.769999999999982 3.88999999999999  0.769999999999982 3.19  C 0.769999999999982 2.48999999999998  1.26999999999998 0.889999999999986  1.76999999999998 0.889999999999986  C 2.37 0.889999999999986  3.87 2.48999999999998  3.87 3.19  C 3.87 3.88999999999999  2.37 4.48999999999998  1.76999999999998 4.48999999999998  Z " fill-rule="nonzero" fill="#3e3938" stroke="none" transform="matrix(1 0 0 1 475 6896 )" />
    <path d="M 1.76999999999998 4.48999999999998  C 1.26999999999998 4.48999999999998  0.769999999999982 3.88999999999999  0.769999999999982 3.19  C 0.769999999999982 2.48999999999998  1.26999999999998 0.889999999999986  1.76999999999998 0.889999999999986  C 2.37 0.889999999999986  3.87 2.48999999999998  3.87 3.19  C 3.87 3.88999999999999  2.37 4.48999999999998  1.76999999999998 4.48999999999998  Z " stroke-width="2" stroke="#3e3938" fill="none" transform="matrix(1 0 0 1 475 6896 )" mask="url(#clip403)" />
  </g>
</svg>