<?xml version="1.0" encoding="utf-8"?>
<svg version="1.1" xmlns:xlink="http://www.w3.org/1999/xlink" width="56px" height="60px" xmlns="http://www.w3.org/2000/svg">
  <defs>
    <mask fill="white" id="clip632">
      <path d="M 35.61 59.7099999999999  C 35.61 59.7099999999999  19.71 59.7099999999999  19.71 59.7099999999999  C 8.91 59.7099999999999  0.110000000000014 50.91  0.110000000000014 40.11  C 0.110000000000014 40.11  0.110000000000014 20.61  0.110000000000014 20.61  C 0.110000000000014 9.70999999999992  8.91 0.909999999999968  19.71 0.909999999999968  C 19.71 0.909999999999968  35.61 0.909999999999968  35.61 0.909999999999968  C 46.51 0.909999999999968  55.31 9.70999999999992  55.31 20.61  C 55.31 20.61  55.31 40.11  55.31 40.11  C 55.31 50.91  46.51 59.7099999999999  35.61 59.7099999999999  Z " fill-rule="evenodd" />
    </mask>
  </defs>
  <g transform="matrix(1 0 0 1 -285 -13176 )">
    <path d="M 35.61 59.7099999999999  C 35.61 59.7099999999999  19.71 59.7099999999999  19.71 59.7099999999999  C 8.91 59.7099999999999  0.110000000000014 50.91  0.110000000000014 40.11  C 0.110000000000014 40.11  0.110000000000014 20.61  0.110000000000014 20.61  C 0.110000000000014 9.70999999999992  8.91 0.909999999999968  19.71 0.909999999999968  C 19.71 0.909999999999968  35.61 0.909999999999968  35.61 0.909999999999968  C 46.51 0.909999999999968  55.31 9.70999999999992  55.31 20.61  C 55.31 20.61  55.31 40.11  55.31 40.11  C 55.31 50.91  46.51 59.7099999999999  35.61 59.7099999999999  Z " fill-rule="nonzero" fill="#dcdcdd" stroke="none" fill-opacity="0.0784313725490196" transform="matrix(1 0 0 1 285 13176 )" />
    <path d="M 35.61 59.7099999999999  C 35.61 59.7099999999999  19.71 59.7099999999999  19.71 59.7099999999999  C 8.91 59.7099999999999  0.110000000000014 50.91  0.110000000000014 40.11  C 0.110000000000014 40.11  0.110000000000014 20.61  0.110000000000014 20.61  C 0.110000000000014 9.70999999999992  8.91 0.909999999999968  19.71 0.909999999999968  C 19.71 0.909999999999968  35.61 0.909999999999968  35.61 0.909999999999968  C 46.51 0.909999999999968  55.31 9.70999999999992  55.31 20.61  C 55.31 20.61  55.31 40.11  55.31 40.11  C 55.31 50.91  46.51 59.7099999999999  35.61 59.7099999999999  Z " stroke-width="2" stroke="#dcdcdd" fill="none" stroke-opacity="0.0588235294117647" transform="matrix(1 0 0 1 285 13176 )" mask="url(#clip632)" />
  </g>
</svg>