<svg xmlns="http://www.w3.org/2000/svg" xmlns:xlink="http://www.w3.org/1999/xlink" width="32" height="93" version="1.1"><defs><mask id="clip2573" fill="#fff"><path fill-rule="evenodd" d="M 0.0500000000000114 5.75999999999999 C 0.0500000000000114 5.75999999999999 4.65000000000001 0.259999999999991 4.65000000000001 0.259999999999991 C 20.35 13.46 31.35 34.26 31.35 56.46 C 31.35 69.56 27.85 81.86 21.75 92.46 C 21.75 92.46 14.55 88.86 14.55 88.86 C 20.05 79.36 24.15 68.26 24.15 56.46 C 24.15 36.46 14.15 17.66 0.0500000000000114 5.75999999999999 Z"/></mask></defs><g><path fill="#f14100" fill-rule="nonzero" stroke="none" d="M 0.0500000000000114 5.75999999999999 C 0.0500000000000114 5.75999999999999 4.65000000000001 0.259999999999991 4.65000000000001 0.259999999999991 C 20.35 13.46 31.35 34.26 31.35 56.46 C 31.35 69.56 27.85 81.86 21.75 92.46 C 21.75 92.46 14.55 88.86 14.55 88.86 C 20.05 79.36 24.15 68.26 24.15 56.46 C 24.15 36.46 14.15 17.66 0.0500000000000114 5.75999999999999 Z" transform="matrix(1 0 0 1 -254 -17184 ) matrix(1 0 0 1 254 17184 )"/><path fill="none" stroke="#f14100" stroke-width="2" d="M 0.0500000000000114 5.75999999999999 C 0.0500000000000114 5.75999999999999 4.65000000000001 0.259999999999991 4.65000000000001 0.259999999999991 C 20.35 13.46 31.35 34.26 31.35 56.46 C 31.35 69.56 27.85 81.86 21.75 92.46 C 21.75 92.46 14.55 88.86 14.55 88.86 C 20.05 79.36 24.15 68.26 24.15 56.46 C 24.15 36.46 14.15 17.66 0.0500000000000114 5.75999999999999 Z" mask="url(#clip2573)" transform="matrix(1 0 0 1 -254 -17184 ) matrix(1 0 0 1 254 17184 )"/></g></svg>