<svg xmlns="http://www.w3.org/2000/svg" xmlns:xlink="http://www.w3.org/1999/xlink" width="88" height="491" version="1.1"><defs><mask id="clip2360" fill="#fff"><path fill-rule="evenodd" d="M 0.310000000000059 490.15 C 0.310000000000059 490.15 0.310000000000059 0.150000000000006 0.310000000000059 0.150000000000006 C 0.310000000000059 0.150000000000006 87.11 0.150000000000006 87.11 0.150000000000006 C 87.11 0.150000000000006 87.11 490.15 87.11 490.15 C 87.11 490.15 0.310000000000059 490.15 0.310000000000059 490.15 Z"/></mask></defs><g><path fill="#fff" fill-rule="nonzero" stroke="none" d="M 0.310000000000059 490.15 C 0.310000000000059 490.15 0.310000000000059 0.150000000000006 0.310000000000059 0.150000000000006 C 0.310000000000059 0.150000000000006 87.11 0.150000000000006 87.11 0.150000000000006 C 87.11 0.150000000000006 87.11 490.15 87.11 490.15 C 87.11 490.15 0.310000000000059 490.15 0.310000000000059 490.15 Z" transform="matrix(1 0 0 1 -993 -15248 ) matrix(1 0 0 1 993 15248 )"/><path fill="none" stroke="#d2d2d2" stroke-width="2" d="M 0.310000000000059 490.15 C 0.310000000000059 490.15 0.310000000000059 0.150000000000006 0.310000000000059 0.150000000000006 C 0.310000000000059 0.150000000000006 87.11 0.150000000000006 87.11 0.150000000000006 C 87.11 0.150000000000006 87.11 490.15 87.11 490.15 C 87.11 490.15 0.310000000000059 490.15 0.310000000000059 490.15 Z" mask="url(#clip2360)" transform="matrix(1 0 0 1 -993 -15248 ) matrix(1 0 0 1 993 15248 )"/></g></svg>