<svg xmlns="http://www.w3.org/2000/svg" xmlns:xlink="http://www.w3.org/1999/xlink" width="77" height="76" version="1.1"><defs><mask id="clip1765" fill="#fff"><path fill-rule="evenodd" d="M 38.74 75.68 C 18.1400000000001 75.68 0.440000000000055 58.98 0.440000000000055 38.38 C 0.440000000000055 17.78 18.1400000000001 0.0799999999999983 38.74 0.0799999999999983 C 59.3400000000001 0.0799999999999983 76.04 17.78 76.04 38.38 C 76.04 58.98 59.3400000000001 75.68 38.74 75.68 Z"/></mask></defs><g><path fill="#8bc0d3" fill-rule="nonzero" stroke="none" d="M 38.74 75.68 C 18.1400000000001 75.68 0.440000000000055 58.98 0.440000000000055 38.38 C 0.440000000000055 17.78 18.1400000000001 0.0799999999999983 38.74 0.0799999999999983 C 59.3400000000001 0.0799999999999983 76.04 17.78 76.04 38.38 C 76.04 58.98 59.3400000000001 75.68 38.74 75.68 Z" transform="matrix(1 0 0 1 -1137 -4950 ) matrix(1 0 0 1 1137 4950 )"/><path fill="none" stroke="#8bc0d3" stroke-width="2" d="M 38.74 75.68 C 18.1400000000001 75.68 0.440000000000055 58.98 0.440000000000055 38.38 C 0.440000000000055 17.78 18.1400000000001 0.0799999999999983 38.74 0.0799999999999983 C 59.3400000000001 0.0799999999999983 76.04 17.78 76.04 38.38 C 76.04 58.98 59.3400000000001 75.68 38.74 75.68 Z" mask="url(#clip1765)" transform="matrix(1 0 0 1 -1137 -4950 ) matrix(1 0 0 1 1137 4950 )"/></g></svg>