<svg xmlns="http://www.w3.org/2000/svg" xmlns:xlink="http://www.w3.org/1999/xlink" width="78" height="78" version="1.1"><defs><mask id="clip1850" fill="#fff"><path fill-rule="evenodd" d="M 39.33 10.68 C 39.33 10.68 39.33 0.67999999999995 39.33 0.67999999999995 C 60.43 0.67999999999995 77.43 18.78 77.43 39.88 C 77.43 60.9799999999999 60.43 77.9799999999999 39.33 77.9799999999999 C 18.23 77.9799999999999 0.129999999999995 60.9799999999999 0.129999999999995 39.88 C 0.129999999999995 39.28 0.129999999999995 37.68 0.129999999999995 37.0799999999999 C 0.129999999999995 37.0799999999999 10.13 37.5799999999999 10.13 37.5799999999999 C 10.13 37.9799999999999 10.13 39.38 10.13 39.88 C 10.13 55.38 23.73 67.9799999999999 39.33 67.9799999999999 C 54.83 67.9799999999999 67.43 55.38 67.43 39.88 C 67.43 24.28 54.83 10.68 39.33 10.68 Z"/></mask></defs><g><path fill="#f9ca31" fill-rule="nonzero" stroke="none" d="M 39.33 10.68 C 39.33 10.68 39.33 0.67999999999995 39.33 0.67999999999995 C 60.43 0.67999999999995 77.43 18.78 77.43 39.88 C 77.43 60.9799999999999 60.43 77.9799999999999 39.33 77.9799999999999 C 18.23 77.9799999999999 0.129999999999995 60.9799999999999 0.129999999999995 39.88 C 0.129999999999995 39.28 0.129999999999995 37.68 0.129999999999995 37.0799999999999 C 0.129999999999995 37.0799999999999 10.13 37.5799999999999 10.13 37.5799999999999 C 10.13 37.9799999999999 10.13 39.38 10.13 39.88 C 10.13 55.38 23.73 67.9799999999999 39.33 67.9799999999999 C 54.83 67.9799999999999 67.43 55.38 67.43 39.88 C 67.43 24.28 54.83 10.68 39.33 10.68 Z" transform="matrix(1 0 0 1 -1007 -7400 ) matrix(1 0 0 1 1007 7400 )"/><path fill="none" stroke="#f9ca31" stroke-width="2" d="M 39.33 10.68 C 39.33 10.68 39.33 0.67999999999995 39.33 0.67999999999995 C 60.43 0.67999999999995 77.43 18.78 77.43 39.88 C 77.43 60.9799999999999 60.43 77.9799999999999 39.33 77.9799999999999 C 18.23 77.9799999999999 0.129999999999995 60.9799999999999 0.129999999999995 39.88 C 0.129999999999995 39.28 0.129999999999995 37.68 0.129999999999995 37.0799999999999 C 0.129999999999995 37.0799999999999 10.13 37.5799999999999 10.13 37.5799999999999 C 10.13 37.9799999999999 10.13 39.38 10.13 39.88 C 10.13 55.38 23.73 67.9799999999999 39.33 67.9799999999999 C 54.83 67.9799999999999 67.43 55.38 67.43 39.88 C 67.43 24.28 54.83 10.68 39.33 10.68 Z" mask="url(#clip1850)" transform="matrix(1 0 0 1 -1007 -7400 ) matrix(1 0 0 1 1007 7400 )"/></g></svg>