<svg xmlns="http://www.w3.org/2000/svg" xmlns:xlink="http://www.w3.org/1999/xlink" width="63" height="20" version="1.1"><defs><mask id="clip2075" fill="#fff"><path fill-rule="evenodd" d="M 0.5 19.5 C 0.5 19.5 0.5 0.5 0.5 0.5 C 0.5 0.5 62.4 0.5 62.4 0.5 C 62.4 0.5 62.4 19.5 62.4 19.5 C 62.4 19.5 0.5 19.5 0.5 19.5 Z"/></mask></defs><g><path fill="#ee7c31" fill-rule="nonzero" stroke="none" d="M 0.5 19.5 C 0.5 19.5 0.5 0.5 0.5 0.5 C 0.5 0.5 62.4 0.5 62.4 0.5 C 62.4 0.5 62.4 19.5 62.4 19.5 C 62.4 19.5 0.5 19.5 0.5 19.5 Z" transform="matrix(1 0 0 1 -220 -11503 ) matrix(1 0 0 1 220 11503 )"/><path fill="none" stroke="#ee7c31" stroke-width="2" d="M 0.5 19.5 C 0.5 19.5 0.5 0.5 0.5 0.5 C 0.5 0.5 62.4 0.5 62.4 0.5 C 62.4 0.5 62.4 19.5 62.4 19.5 C 62.4 19.5 0.5 19.5 0.5 19.5 Z" mask="url(#clip2075)" transform="matrix(1 0 0 1 -220 -11503 ) matrix(1 0 0 1 220 11503 )"/></g></svg>