<svg xmlns="http://www.w3.org/2000/svg" xmlns:xlink="http://www.w3.org/1999/xlink" width="1124" height="7" version="1.1"><defs><mask id="clip1766" fill="#fff"><path fill-rule="evenodd" d="M 0.5 6.19000000000005 C 0.5 6.19000000000005 0.5 0.190000000000055 0.5 0.190000000000055 C 0.5 0.190000000000055 1124 0.190000000000055 1124 0.190000000000055 C 1124 0.190000000000055 1124 6.19000000000005 1124 6.19000000000005 C 1124 6.19000000000005 0.5 6.19000000000005 0.5 6.19000000000005 Z"/></mask></defs><g><path fill="#8bc0d3" fill-rule="nonzero" stroke="none" d="M 0.5 6.19000000000005 C 0.5 6.19000000000005 0.5 0.190000000000055 0.5 0.190000000000055 C 0.5 0.190000000000055 1124 0.190000000000055 1124 0.190000000000055 C 1124 0.190000000000055 1124 6.19000000000005 1124 6.19000000000005 C 1124 6.19000000000005 0.5 6.19000000000005 0.5 6.19000000000005 Z" transform="matrix(1 0 0 1 -89 -5722 ) matrix(1 0 0 1 89 5722 )"/><path fill="none" stroke="#8bc0d3" stroke-width="2" d="M 0.5 6.19000000000005 C 0.5 6.19000000000005 0.5 0.190000000000055 0.5 0.190000000000055 C 0.5 0.190000000000055 1124 0.190000000000055 1124 0.190000000000055 C 1124 0.190000000000055 1124 6.19000000000005 1124 6.19000000000005 C 1124 6.19000000000005 0.5 6.19000000000005 0.5 6.19000000000005 Z" mask="url(#clip1766)" transform="matrix(1 0 0 1 -89 -5722 ) matrix(1 0 0 1 89 5722 )"/></g></svg>