<?xml version="1.0" encoding="utf-8"?>
<svg version="1.1" xmlns:xlink="http://www.w3.org/1999/xlink" width="56px" height="60px" xmlns="http://www.w3.org/2000/svg">
  <defs>
    <mask fill="white" id="clip2092">
      <path d="M 19.9300000000001 0.77000000000001  C 19.9300000000001 0.77000000000001  35.73 0.77000000000001  35.73 0.77000000000001  C 46.6300000000001 0.77000000000001  55.4300000000001 10.17  55.4300000000001 21.87  C 55.4300000000001 21.87  55.4300000000001 38.57  55.4300000000001 38.57  C 55.4300000000001 50.17  46.6300000000001 59.57  35.73 59.57  C 35.73 59.57  19.9300000000001 59.57  19.9300000000001 59.57  C 9.02999999999997 59.57  0.230000000000018 50.17  0.230000000000018 38.57  C 0.230000000000018 38.57  0.230000000000018 21.87  0.230000000000018 21.87  C 0.230000000000018 10.17  9.02999999999997 0.77000000000001  19.9300000000001 0.77000000000001  Z " fill-rule="evenodd" />
    </mask>
  </defs>
  <g transform="matrix(1 0 0 1 -1145 -12539 )">
    <path d="M 19.9300000000001 0.77000000000001  C 19.9300000000001 0.77000000000001  35.73 0.77000000000001  35.73 0.77000000000001  C 46.6300000000001 0.77000000000001  55.4300000000001 10.17  55.4300000000001 21.87  C 55.4300000000001 21.87  55.4300000000001 38.57  55.4300000000001 38.57  C 55.4300000000001 50.17  46.6300000000001 59.57  35.73 59.57  C 35.73 59.57  19.9300000000001 59.57  19.9300000000001 59.57  C 9.02999999999997 59.57  0.230000000000018 50.17  0.230000000000018 38.57  C 0.230000000000018 38.57  0.230000000000018 21.87  0.230000000000018 21.87  C 0.230000000000018 10.17  9.02999999999997 0.77000000000001  19.9300000000001 0.77000000000001  Z " fill-rule="nonzero" fill="#cdcece" stroke="none" fill-opacity="0.0784313725490196" transform="matrix(1 0 0 1 1145 12539 )" />
    <path d="M 19.9300000000001 0.77000000000001  C 19.9300000000001 0.77000000000001  35.73 0.77000000000001  35.73 0.77000000000001  C 46.6300000000001 0.77000000000001  55.4300000000001 10.17  55.4300000000001 21.87  C 55.4300000000001 21.87  55.4300000000001 38.57  55.4300000000001 38.57  C 55.4300000000001 50.17  46.6300000000001 59.57  35.73 59.57  C 35.73 59.57  19.9300000000001 59.57  19.9300000000001 59.57  C 9.02999999999997 59.57  0.230000000000018 50.17  0.230000000000018 38.57  C 0.230000000000018 38.57  0.230000000000018 21.87  0.230000000000018 21.87  C 0.230000000000018 10.17  9.02999999999997 0.77000000000001  19.9300000000001 0.77000000000001  Z " stroke-width="2" stroke="#cdcece" fill="none" stroke-opacity="0.0588235294117647" transform="matrix(1 0 0 1 1145 12539 )" mask="url(#clip2092)" />
  </g>
</svg>