<?xml version="1.0" encoding="utf-8"?>
<svg version="1.1" xmlns:xlink="http://www.w3.org/1999/xlink" width="7px" height="9px" xmlns="http://www.w3.org/2000/svg">
  <defs>
    <mask fill="white" id="clip296">
      <path d="M 4.84000000000003 0.159999999999968  C 4.84000000000003 0.159999999999968  1.94 0.159999999999968  1.94 0.159999999999968  C 1.94 0.159999999999968  0.639999999999986 2.55999999999995  0.639999999999986 2.55999999999995  C 0.639999999999986 2.55999999999995  6.74000000000001 8.75999999999999  6.74000000000001 8.75999999999999  C 6.74000000000001 8.75999999999999  4.84000000000003 0.159999999999968  4.84000000000003 0.159999999999968  Z " fill-rule="evenodd" />
    </mask>
  </defs>
  <g transform="matrix(1 0 0 1 -373 -7109 )">
    <path d="M 4.84000000000003 0.159999999999968  C 4.84000000000003 0.159999999999968  1.94 0.159999999999968  1.94 0.159999999999968  C 1.94 0.159999999999968  0.639999999999986 2.55999999999995  0.639999999999986 2.55999999999995  C 0.639999999999986 2.55999999999995  6.74000000000001 8.75999999999999  6.74000000000001 8.75999999999999  C 6.74000000000001 8.75999999999999  4.84000000000003 0.159999999999968  4.84000000000003 0.159999999999968  Z " fill-rule="nonzero" fill="#ffffff" stroke="none" transform="matrix(1 0 0 1 373 7109 )" />
    <path d="M 4.84000000000003 0.159999999999968  C 4.84000000000003 0.159999999999968  1.94 0.159999999999968  1.94 0.159999999999968  C 1.94 0.159999999999968  0.639999999999986 2.55999999999995  0.639999999999986 2.55999999999995  C 0.639999999999986 2.55999999999995  6.74000000000001 8.75999999999999  6.74000000000001 8.75999999999999  C 6.74000000000001 8.75999999999999  4.84000000000003 0.159999999999968  4.84000000000003 0.159999999999968  Z " stroke-width="2" stroke="#ffffff" fill="none" transform="matrix(1 0 0 1 373 7109 )" mask="url(#clip296)" />
  </g>
</svg>