<?xml version="1.0" encoding="utf-8"?>
<svg version="1.1" xmlns:xlink="http://www.w3.org/1999/xlink" width="151px" height="119px" xmlns="http://www.w3.org/2000/svg">
  <defs>
    <radialGradient cx="332.34" cy="424.38" r="188.9" gradientTransform="matrix(0.999999999999998 0 0 1 5.11590769747272E-13 0 )" gradientUnits="userSpaceOnUse" id="RadialGradient1246">
      <stop id="Stop1247" stop-color="#fffbf3" offset="0" />
      <stop id="Stop1248" stop-color="#fffaf0" offset="1" />
    </radialGradient>
    <mask fill="white" id="clip1249">
      <path d="M 13.21 118.16  C 5.21000000000004 106.26  0.710000000000036 91.36  0.710000000000036 76.46  C 0.710000000000036 35.26  35.01 0.960000000000008  76.21 0.960000000000008  C 117.31 0.960000000000008  150.71 35.26  150.71 76.46  C 150.71 91.36  146.21 106.26  138.11 118.16  C 138.11 118.16  13.21 118.16  13.21 118.16  Z " fill-rule="evenodd" />
    </mask>
  </defs>
  <g transform="matrix(1 0 0 1 -594 -17164 )">
    <path d="M 13.21 118.16  C 5.21000000000004 106.26  0.710000000000036 91.36  0.710000000000036 76.46  C 0.710000000000036 35.26  35.01 0.960000000000008  76.21 0.960000000000008  C 117.31 0.960000000000008  150.71 35.26  150.71 76.46  C 150.71 91.36  146.21 106.26  138.11 118.16  C 138.11 118.16  13.21 118.16  13.21 118.16  Z " fill-rule="nonzero" fill="url(#RadialGradient1246)" stroke="none" transform="matrix(1 0 0 1 594 17164 )" />
    <path d="M 13.21 118.16  C 5.21000000000004 106.26  0.710000000000036 91.36  0.710000000000036 76.46  C 0.710000000000036 35.26  35.01 0.960000000000008  76.21 0.960000000000008  C 117.31 0.960000000000008  150.71 35.26  150.71 76.46  C 150.71 91.36  146.21 106.26  138.11 118.16  C 138.11 118.16  13.21 118.16  13.21 118.16  Z " stroke-width="2" stroke="#969696" fill="none" transform="matrix(1 0 0 1 594 17164 )" mask="url(#clip1249)" />
  </g>
</svg>