<?xml version="1.0" encoding="utf-8"?>
<svg version="1.1" xmlns:xlink="http://www.w3.org/1999/xlink" width="6px" height="21px" xmlns="http://www.w3.org/2000/svg">
  <defs>
    <mask fill="white" id="clip483">
      <path d="M 3.96000000000004 0.519999999999982  C 3.96000000000004 0.519999999999982  1.46000000000004 0.519999999999982  1.46000000000004 0.519999999999982  C 1.46000000000004 0.519999999999982  0.360000000000014 18.82  0.360000000000014 18.82  C 0.360000000000014 18.82  3.25999999999999 20.72  3.25999999999999 20.72  C 3.25999999999999 20.72  5.06 18.82  5.06 18.82  C 5.06 18.82  3.96000000000004 0.519999999999982  3.96000000000004 0.519999999999982  Z " fill-rule="evenodd" />
    </mask>
  </defs>
  <g transform="matrix(1 0 0 1 -370 -7113 )">
    <path d="M 3.96000000000004 0.519999999999982  C 3.96000000000004 0.519999999999982  1.46000000000004 0.519999999999982  1.46000000000004 0.519999999999982  C 1.46000000000004 0.519999999999982  0.360000000000014 18.82  0.360000000000014 18.82  C 0.360000000000014 18.82  3.25999999999999 20.72  3.25999999999999 20.72  C 3.25999999999999 20.72  5.06 18.82  5.06 18.82  C 5.06 18.82  3.96000000000004 0.519999999999982  3.96000000000004 0.519999999999982  Z " fill-rule="nonzero" fill="#ffffff" stroke="none" transform="matrix(1 0 0 1 370 7113 )" />
    <path d="M 3.96000000000004 0.519999999999982  C 3.96000000000004 0.519999999999982  1.46000000000004 0.519999999999982  1.46000000000004 0.519999999999982  C 1.46000000000004 0.519999999999982  0.360000000000014 18.82  0.360000000000014 18.82  C 0.360000000000014 18.82  3.25999999999999 20.72  3.25999999999999 20.72  C 3.25999999999999 20.72  5.06 18.82  5.06 18.82  C 5.06 18.82  3.96000000000004 0.519999999999982  3.96000000000004 0.519999999999982  Z " stroke-width="2" stroke="#ffffff" fill="none" transform="matrix(1 0 0 1 370 7113 )" mask="url(#clip483)" />
  </g>
</svg>