<?xml version="1.0" encoding="utf-8"?>
<svg version="1.1" xmlns:xlink="http://www.w3.org/1999/xlink" width="56px" height="60px" xmlns="http://www.w3.org/2000/svg">
  <defs>
    <mask fill="white" id="clip593">
      <path d="M 19.9300000000001 0.27  C 19.9300000000001 0.27  35.73 0.27  35.73 0.27  C 46.6300000000001 0.27  55.4300000000001 9.67  55.4300000000001 21.37  C 55.4300000000001 21.37  55.4300000000001 38.07  55.4300000000001 38.07  C 55.4300000000001 49.67  46.6300000000001 59.07  35.73 59.07  C 35.73 59.07  19.9300000000001 59.07  19.9300000000001 59.07  C 9.02999999999997 59.07  0.230000000000018 49.67  0.230000000000018 38.07  C 0.230000000000018 38.07  0.230000000000018 21.37  0.230000000000018 21.37  C 0.230000000000018 9.67  9.02999999999997 0.27  19.9300000000001 0.27  Z " fill-rule="evenodd" />
    </mask>
  </defs>
  <g transform="matrix(1 0 0 1 -1145 -12411 )">
    <path d="M 19.9300000000001 0.27  C 19.9300000000001 0.27  35.73 0.27  35.73 0.27  C 46.6300000000001 0.27  55.4300000000001 9.67  55.4300000000001 21.37  C 55.4300000000001 21.37  55.4300000000001 38.07  55.4300000000001 38.07  C 55.4300000000001 49.67  46.6300000000001 59.07  35.73 59.07  C 35.73 59.07  19.9300000000001 59.07  19.9300000000001 59.07  C 9.02999999999997 59.07  0.230000000000018 49.67  0.230000000000018 38.07  C 0.230000000000018 38.07  0.230000000000018 21.37  0.230000000000018 21.37  C 0.230000000000018 9.67  9.02999999999997 0.27  19.9300000000001 0.27  Z " fill-rule="nonzero" fill="#595757" stroke="none" fill-opacity="0.0784313725490196" transform="matrix(1 0 0 1 1145 12411 )" />
    <path d="M 19.9300000000001 0.27  C 19.9300000000001 0.27  35.73 0.27  35.73 0.27  C 46.6300000000001 0.27  55.4300000000001 9.67  55.4300000000001 21.37  C 55.4300000000001 21.37  55.4300000000001 38.07  55.4300000000001 38.07  C 55.4300000000001 49.67  46.6300000000001 59.07  35.73 59.07  C 35.73 59.07  19.9300000000001 59.07  19.9300000000001 59.07  C 9.02999999999997 59.07  0.230000000000018 49.67  0.230000000000018 38.07  C 0.230000000000018 38.07  0.230000000000018 21.37  0.230000000000018 21.37  C 0.230000000000018 9.67  9.02999999999997 0.27  19.9300000000001 0.27  Z " stroke-width="2" stroke="#595757" fill="none" stroke-opacity="0.0588235294117647" transform="matrix(1 0 0 1 1145 12411 )" mask="url(#clip593)" />
  </g>
</svg>