<svg xmlns="http://www.w3.org/2000/svg" xmlns:xlink="http://www.w3.org/1999/xlink" width="4" height="5" version="1.1"><defs><mask id="clip1883" fill="#fff"><path fill-rule="evenodd" d="M 1.46000000000004 4.48999999999998 C 0.960000000000036 4.48999999999998 0.460000000000036 3.88999999999999 0.460000000000036 3.19 C 0.460000000000036 2.48999999999998 0.960000000000036 0.889999999999986 1.46000000000004 0.889999999999986 C 2.06000000000006 0.889999999999986 3.56000000000006 2.48999999999998 3.56000000000006 3.19 C 3.56000000000006 3.88999999999999 2.06000000000006 4.48999999999998 1.46000000000004 4.48999999999998 Z"/></mask></defs><g><path fill="#3e3938" fill-rule="nonzero" stroke="none" d="M 1.46000000000004 4.48999999999998 C 0.960000000000036 4.48999999999998 0.460000000000036 3.88999999999999 0.460000000000036 3.19 C 0.460000000000036 2.48999999999998 0.960000000000036 0.889999999999986 1.46000000000004 0.889999999999986 C 2.06000000000006 0.889999999999986 3.56000000000006 2.48999999999998 3.56000000000006 3.19 C 3.56000000000006 3.88999999999999 2.06000000000006 4.48999999999998 1.46000000000004 4.48999999999998 Z" transform="matrix(1 0 0 1 -520 -6896 ) matrix(1 0 0 1 520 6896 )"/><path fill="none" stroke="#3e3938" stroke-width="2" d="M 1.46000000000004 4.48999999999998 C 0.960000000000036 4.48999999999998 0.460000000000036 3.88999999999999 0.460000000000036 3.19 C 0.460000000000036 2.48999999999998 0.960000000000036 0.889999999999986 1.46000000000004 0.889999999999986 C 2.06000000000006 0.889999999999986 3.56000000000006 2.48999999999998 3.56000000000006 3.19 C 3.56000000000006 3.88999999999999 2.06000000000006 4.48999999999998 1.46000000000004 4.48999999999998 Z" mask="url(#clip1883)" transform="matrix(1 0 0 1 -520 -6896 ) matrix(1 0 0 1 520 6896 )"/></g></svg>