<?xml version="1.0" encoding="utf-8"?>
<svg version="1.1" xmlns:xlink="http://www.w3.org/1999/xlink" width="12px" height="31px" xmlns="http://www.w3.org/2000/svg">
  <defs>
    <mask fill="white" id="clip1120">
      <path d="M 0.205000000000041 30.015  C 0.205000000000041 30.015  0.205000000000041 0.264999999999986  0.205000000000041 0.264999999999986  C 0.205000000000041 0.264999999999986  11.0550000000001 0.264999999999986  11.0550000000001 0.264999999999986  C 11.0550000000001 0.264999999999986  11.0550000000001 30.015  11.0550000000001 30.015  C 11.0550000000001 30.015  0.205000000000041 30.015  0.205000000000041 30.015  Z " fill-rule="evenodd" />
    </mask>
  </defs>
  <g transform="matrix(1 0 0 1 -955 -19257 )">
    <path d="M 0.205000000000041 30.015  C 0.205000000000041 30.015  0.205000000000041 0.264999999999986  0.205000000000041 0.264999999999986  C 0.205000000000041 0.264999999999986  11.0550000000001 0.264999999999986  11.0550000000001 0.264999999999986  C 11.0550000000001 0.264999999999986  11.0550000000001 30.015  11.0550000000001 30.015  C 11.0550000000001 30.015  0.205000000000041 30.015  0.205000000000041 30.015  Z " fill-rule="nonzero" fill="#2f7a8e" stroke="none" transform="matrix(1 0 0 1 955 19257 )" />
    <path d="M 0.205000000000041 30.015  C 0.205000000000041 30.015  0.205000000000041 0.264999999999986  0.205000000000041 0.264999999999986  C 0.205000000000041 0.264999999999986  11.0550000000001 0.264999999999986  11.0550000000001 0.264999999999986  C 11.0550000000001 0.264999999999986  11.0550000000001 30.015  11.0550000000001 30.015  C 11.0550000000001 30.015  0.205000000000041 30.015  0.205000000000041 30.015  Z " stroke-width="0.5" stroke="#2f7a8e" fill="none" transform="matrix(1 0 0 1 955 19257 )" mask="url(#clip1120)" />
  </g>
</svg>