<svg xmlns="http://www.w3.org/2000/svg" xmlns:xlink="http://www.w3.org/1999/xlink" width="18" height="18" version="1.1"><defs><mask id="clip1748" fill="#fff"><path fill-rule="evenodd" d="M 9.20799999999997 17.278 C 9.20799999999997 17.278 0.829999999999984 8.90000000000001 0.829999999999984 8.90000000000001 C 0.829999999999984 8.90000000000001 9.20799999999997 0.522000000000006 9.20799999999997 0.522000000000006 C 9.20799999999997 0.522000000000006 17.586 8.90000000000001 17.586 8.90000000000001 C 17.586 8.90000000000001 9.20799999999997 17.278 9.20799999999997 17.278 Z"/></mask></defs><g><path fill="#33b2c3" fill-rule="nonzero" stroke="none" d="M 9.20799999999997 17.278 C 9.20799999999997 17.278 0.829999999999984 8.90000000000001 0.829999999999984 8.90000000000001 C 0.829999999999984 8.90000000000001 9.20799999999997 0.522000000000006 9.20799999999997 0.522000000000006 C 9.20799999999997 0.522000000000006 17.586 8.90000000000001 17.586 8.90000000000001 C 17.586 8.90000000000001 9.20799999999997 17.278 9.20799999999997 17.278 Z" transform="matrix(1 0 0 1 -399 -4171 ) matrix(1 0 0 1 399 4171 )"/><path fill="none" stroke="#fff" stroke-width="2.008" d="M 9.20799999999997 17.278 C 9.20799999999997 17.278 0.829999999999984 8.90000000000001 0.829999999999984 8.90000000000001 C 0.829999999999984 8.90000000000001 9.20799999999997 0.522000000000006 9.20799999999997 0.522000000000006 C 9.20799999999997 0.522000000000006 17.586 8.90000000000001 17.586 8.90000000000001 C 17.586 8.90000000000001 9.20799999999997 17.278 9.20799999999997 17.278 Z" mask="url(#clip1748)" transform="matrix(1 0 0 1 -399 -4171 ) matrix(1 0 0 1 399 4171 )"/></g></svg>