<svg xmlns="http://www.w3.org/2000/svg" xmlns:xlink="http://www.w3.org/1999/xlink" width="346" height="271" version="1.1"><defs><mask id="clip2451" fill="#fff"><path fill-rule="evenodd" d="M 12.18 270.7 C 12.18 270.7 334.48 270.7 334.48 270.7 C 340.78 270.7 345.78 265.6 345.78 259.4 C 345.78 259.4 345.78 11.9 345.78 11.9 C 345.78 5.70000000000004 340.78 0.600000000000023 334.48 0.600000000000023 C 334.48 0.600000000000023 12.18 0.600000000000023 12.18 0.600000000000023 C 5.98 0.600000000000023 0.880000000000003 5.70000000000004 0.880000000000003 11.9 C 0.880000000000003 11.9 0.880000000000003 259.4 0.880000000000003 259.4 C 0.880000000000003 265.6 5.98 270.7 12.18 270.7 Z"/></mask></defs><g><path fill="#fff" fill-opacity="0" fill-rule="nonzero" stroke="none" d="M 12.18 270.7 C 12.18 270.7 334.48 270.7 334.48 270.7 C 340.78 270.7 345.78 265.6 345.78 259.4 C 345.78 259.4 345.78 11.9 345.78 11.9 C 345.78 5.70000000000004 340.78 0.600000000000023 334.48 0.600000000000023 C 334.48 0.600000000000023 12.18 0.600000000000023 12.18 0.600000000000023 C 5.98 0.600000000000023 0.880000000000003 5.70000000000004 0.880000000000003 11.9 C 0.880000000000003 11.9 0.880000000000003 259.4 0.880000000000003 259.4 C 0.880000000000003 265.6 5.98 270.7 12.18 270.7 Z" transform="matrix(1 0 0 1 -124 -16579 ) matrix(1 0 0 1 124 16579 )"/><path fill="none" stroke="#cad4cc" stroke-width="2" d="M 12.18 270.7 C 12.18 270.7 334.48 270.7 334.48 270.7 C 340.78 270.7 345.78 265.6 345.78 259.4 C 345.78 259.4 345.78 11.9 345.78 11.9 C 345.78 5.70000000000004 340.78 0.600000000000023 334.48 0.600000000000023 C 334.48 0.600000000000023 12.18 0.600000000000023 12.18 0.600000000000023 C 5.98 0.600000000000023 0.880000000000003 5.70000000000004 0.880000000000003 11.9 C 0.880000000000003 11.9 0.880000000000003 259.4 0.880000000000003 259.4 C 0.880000000000003 265.6 5.98 270.7 12.18 270.7 Z" mask="url(#clip2451)" transform="matrix(1 0 0 1 -124 -16579 ) matrix(1 0 0 1 124 16579 )"/></g></svg>