<svg xmlns="http://www.w3.org/2000/svg" xmlns:xlink="http://www.w3.org/1999/xlink" width="99" height="179" version="1.1"><defs><mask id="clip1817" fill="#fff"><path fill-rule="evenodd" d="M 42.7 163.32 C 42.7 163.32 19.9 178.42 19.9 178.42 C 7.5 155.52 0.400000000000006 129.42 0.400000000000006 101.52 C 0.400000000000006 63.62 13.5 27.82 35.4 0.319999999999993 C 35.4 0.319999999999993 99 50.12 99 50.12 C 88 63.92 81.4 82.52 81.4 101.52 C 81.4 113.02 83.8 124.02 88.2 133.92 C 88.2 133.92 65.2 149.02 65.2 149.02 C 65.2 149.02 48.1 144.02 48.1 144.02 C 48.1 144.02 42.7 163.32 42.7 163.32 Z"/></mask></defs><g><path fill="#f56582" fill-rule="nonzero" stroke="none" d="M 42.7 163.32 C 42.7 163.32 19.9 178.42 19.9 178.42 C 7.5 155.52 0.400000000000006 129.42 0.400000000000006 101.52 C 0.400000000000006 63.62 13.5 27.82 35.4 0.319999999999993 C 35.4 0.319999999999993 99 50.12 99 50.12 C 88 63.92 81.4 82.52 81.4 101.52 C 81.4 113.02 83.8 124.02 88.2 133.92 C 88.2 133.92 65.2 149.02 65.2 149.02 C 65.2 149.02 48.1 144.02 48.1 144.02 C 48.1 144.02 42.7 163.32 42.7 163.32 Z" transform="matrix(1 0 0 1 -167 -7036 ) matrix(1 0 0 1 167 7036 )"/><path fill="none" stroke="#f56582" stroke-width="2" d="M 42.7 163.32 C 42.7 163.32 19.9 178.42 19.9 178.42 C 7.5 155.52 0.400000000000006 129.42 0.400000000000006 101.52 C 0.400000000000006 63.62 13.5 27.82 35.4 0.319999999999993 C 35.4 0.319999999999993 99 50.12 99 50.12 C 88 63.92 81.4 82.52 81.4 101.52 C 81.4 113.02 83.8 124.02 88.2 133.92 C 88.2 133.92 65.2 149.02 65.2 149.02 C 65.2 149.02 48.1 144.02 48.1 144.02 C 48.1 144.02 42.7 163.32 42.7 163.32 Z" mask="url(#clip1817)" transform="matrix(1 0 0 1 -167 -7036 ) matrix(1 0 0 1 167 7036 )"/></g></svg>