<svg xmlns="http://www.w3.org/2000/svg" xmlns:xlink="http://www.w3.org/1999/xlink" width="4" height="5" version="1.1"><defs><mask id="clip1878" fill="#fff"><path fill-rule="evenodd" d="M 1.52999999999997 4.48999999999998 C 1.02999999999997 4.48999999999998 0.529999999999973 3.88999999999999 0.529999999999973 3.19 C 0.529999999999973 2.48999999999998 1.02999999999997 0.889999999999986 1.52999999999997 0.889999999999986 C 2.13 0.889999999999986 3.63 2.48999999999998 3.63 3.19 C 3.63 3.88999999999999 2.13 4.48999999999998 1.52999999999997 4.48999999999998 Z"/></mask></defs><g><path fill="#3e3938" fill-rule="nonzero" stroke="none" d="M 1.52999999999997 4.48999999999998 C 1.02999999999997 4.48999999999998 0.529999999999973 3.88999999999999 0.529999999999973 3.19 C 0.529999999999973 2.48999999999998 1.02999999999997 0.889999999999986 1.52999999999997 0.889999999999986 C 2.13 0.889999999999986 3.63 2.48999999999998 3.63 3.19 C 3.63 3.88999999999999 2.13 4.48999999999998 1.52999999999997 4.48999999999998 Z" transform="matrix(1 0 0 1 -492 -6896 ) matrix(1 0 0 1 492 6896 )"/><path fill="none" stroke="#3e3938" stroke-width="2" d="M 1.52999999999997 4.48999999999998 C 1.02999999999997 4.48999999999998 0.529999999999973 3.88999999999999 0.529999999999973 3.19 C 0.529999999999973 2.48999999999998 1.02999999999997 0.889999999999986 1.52999999999997 0.889999999999986 C 2.13 0.889999999999986 3.63 2.48999999999998 3.63 3.19 C 3.63 3.88999999999999 2.13 4.48999999999998 1.52999999999997 4.48999999999998 Z" mask="url(#clip1878)" transform="matrix(1 0 0 1 -492 -6896 ) matrix(1 0 0 1 492 6896 )"/></g></svg>