<?xml version="1.0" encoding="utf-8"?>
<svg version="1.1" xmlns:xlink="http://www.w3.org/1999/xlink" width="32px" height="93px" xmlns="http://www.w3.org/2000/svg">
  <defs>
    <mask fill="white" id="clip1037">
      <path d="M 0.0500000000000114 5.75999999999999  C 0.0500000000000114 5.75999999999999  4.65000000000001 0.259999999999991  4.65000000000001 0.259999999999991  C 20.35 13.46  31.35 34.26  31.35 56.46  C 31.35 69.56  27.85 81.86  21.75 92.46  C 21.75 92.46  14.55 88.86  14.55 88.86  C 20.05 79.36  24.15 68.26  24.15 56.46  C 24.15 36.46  14.15 17.66  0.0500000000000114 5.75999999999999  Z " fill-rule="evenodd" />
    </mask>
  </defs>
  <g transform="matrix(1 0 0 1 -254 -17184 )">
    <path d="M 0.0500000000000114 5.75999999999999  C 0.0500000000000114 5.75999999999999  4.65000000000001 0.259999999999991  4.65000000000001 0.259999999999991  C 20.35 13.46  31.35 34.26  31.35 56.46  C 31.35 69.56  27.85 81.86  21.75 92.46  C 21.75 92.46  14.55 88.86  14.55 88.86  C 20.05 79.36  24.15 68.26  24.15 56.46  C 24.15 36.46  14.15 17.66  0.0500000000000114 5.75999999999999  Z " fill-rule="nonzero" fill="#f14100" stroke="none" transform="matrix(1 0 0 1 254 17184 )" />
    <path d="M 0.0500000000000114 5.75999999999999  C 0.0500000000000114 5.75999999999999  4.65000000000001 0.259999999999991  4.65000000000001 0.259999999999991  C 20.35 13.46  31.35 34.26  31.35 56.46  C 31.35 69.56  27.85 81.86  21.75 92.46  C 21.75 92.46  14.55 88.86  14.55 88.86  C 20.05 79.36  24.15 68.26  24.15 56.46  C 24.15 36.46  14.15 17.66  0.0500000000000114 5.75999999999999  Z " stroke-width="2" stroke="#f14100" fill="none" transform="matrix(1 0 0 1 254 17184 )" mask="url(#clip1037)" />
  </g>
</svg>