<?xml version="1.0" encoding="utf-8"?>
<svg version="1.1" xmlns:xlink="http://www.w3.org/1999/xlink" width="33px" height="93px" xmlns="http://www.w3.org/2000/svg">
  <defs>
    <mask fill="white" id="clip1141">
      <path d="M 17.58 88.86  C 17.58 88.86  10.38 92.46  10.38 92.46  C 4.18000000000001 81.86  0.680000000000007 69.56  0.680000000000007 56.46  C 0.680000000000007 34.26  11.68 13.46  27.38 0.259999999999991  C 27.38 0.259999999999991  32.08 5.75999999999999  32.08 5.75999999999999  C 17.88 17.66  7.88 36.46  7.88 56.46  C 7.88 68.26  12.08 79.36  17.58 88.86  Z " fill-rule="evenodd" />
    </mask>
  </defs>
  <g transform="matrix(1 0 0 1 -362 -17184 )">
    <path d="M 17.58 88.86  C 17.58 88.86  10.38 92.46  10.38 92.46  C 4.18000000000001 81.86  0.680000000000007 69.56  0.680000000000007 56.46  C 0.680000000000007 34.26  11.68 13.46  27.38 0.259999999999991  C 27.38 0.259999999999991  32.08 5.75999999999999  32.08 5.75999999999999  C 17.88 17.66  7.88 36.46  7.88 56.46  C 7.88 68.26  12.08 79.36  17.58 88.86  Z " fill-rule="nonzero" fill="#79c243" stroke="none" transform="matrix(1 0 0 1 362 17184 )" />
    <path d="M 17.58 88.86  C 17.58 88.86  10.38 92.46  10.38 92.46  C 4.18000000000001 81.86  0.680000000000007 69.56  0.680000000000007 56.46  C 0.680000000000007 34.26  11.68 13.46  27.38 0.259999999999991  C 27.38 0.259999999999991  32.08 5.75999999999999  32.08 5.75999999999999  C 17.88 17.66  7.88 36.46  7.88 56.46  C 7.88 68.26  12.08 79.36  17.58 88.86  Z " stroke-width="2" stroke="#79c243" fill="none" transform="matrix(1 0 0 1 362 17184 )" mask="url(#clip1141)" />
  </g>
</svg>