<?xml version="1.0" encoding="utf-8"?>
<svg version="1.1" xmlns:xlink="http://www.w3.org/1999/xlink" width="77px" height="77px" xmlns="http://www.w3.org/2000/svg">
  <g transform="matrix(1 0 0 1 -1007 -7401 )">
    <path d="M 76.93 38.38  C 76.93 59.4799999999999  59.93 76.4799999999999  38.83 76.4799999999999  C 17.73 76.4799999999999  0.629999999999995 59.4799999999999  0.629999999999995 38.38  C 0.629999999999995 17.28  17.73 0.17999999999995  38.83 0.17999999999995  C 59.93 0.17999999999995  76.93 17.28  76.93 38.38  Z M 10.63 38.38  C 10.63 53.88  23.23 66.4799999999999  38.83 66.4799999999999  C 54.33 66.4799999999999  66.93 53.88  66.93 38.38  C 66.93 22.78  54.33 10.18  38.83 10.18  C 23.23 10.18  10.63 22.78  10.63 38.38  Z " fill-rule="nonzero" fill="#fdfff9" stroke="none" transform="matrix(1 0 0 1 1007 7401 )" />
  </g>
</svg>