<?xml version="1.0" encoding="utf-8"?>
<svg version="1.1" xmlns:xlink="http://www.w3.org/1999/xlink" width="144px" height="83px" xmlns="http://www.w3.org/2000/svg">
  <defs>
    <mask fill="white" id="clip2493">
      <path d="M 60.15 82.1999999999999  C 60.15 82.1999999999999  0.950000000000003 62.9  0.950000000000003 62.9  C 12.45 27.1999999999999  47.05 0.399999999999977  86.55 0.399999999999977  C 108.35 0.399999999999977  128.35 8.19999999999993  143.85 21.1999999999999  C 143.85 21.1999999999999  103.75 70  103.75 70  C 99.15 66.1  93.15 63.6999999999999  86.55 63.6999999999999  C 74.75 63.6999999999999  63.65 71.5  60.15 82.1999999999999  Z " fill-rule="evenodd" />
    </mask>
  </defs>
  <g transform="matrix(1 0 0 1 -156 -17478 )">
    <path d="M 60.15 82.1999999999999  C 60.15 82.1999999999999  0.950000000000003 62.9  0.950000000000003 62.9  C 12.45 27.1999999999999  47.05 0.399999999999977  86.55 0.399999999999977  C 108.35 0.399999999999977  128.35 8.19999999999993  143.85 21.1999999999999  C 143.85 21.1999999999999  103.75 70  103.75 70  C 99.15 66.1  93.15 63.6999999999999  86.55 63.6999999999999  C 74.75 63.6999999999999  63.65 71.5  60.15 82.1999999999999  Z " fill-rule="nonzero" fill="#eea300" stroke="none" transform="matrix(1 0 0 1 156 17478 )" />
    <path d="M 60.15 82.1999999999999  C 60.15 82.1999999999999  0.950000000000003 62.9  0.950000000000003 62.9  C 12.45 27.1999999999999  47.05 0.399999999999977  86.55 0.399999999999977  C 108.35 0.399999999999977  128.35 8.19999999999993  143.85 21.1999999999999  C 143.85 21.1999999999999  103.75 70  103.75 70  C 99.15 66.1  93.15 63.6999999999999  86.55 63.6999999999999  C 74.75 63.6999999999999  63.65 71.5  60.15 82.1999999999999  Z " stroke-width="2" stroke="#eea300" fill="none" transform="matrix(1 0 0 1 156 17478 )" mask="url(#clip2493)" />
  </g>
</svg>