<?xml version="1.0" encoding="utf-8"?>
<svg version="1.1" xmlns:xlink="http://www.w3.org/1999/xlink" width="496px" height="47px" xmlns="http://www.w3.org/2000/svg">
  <defs>
    <mask fill="white" id="clip1952">
      <path d="M 0.91500000000002 46.075  C 0.91500000000002 46.075  0.91500000000002 0.725000000000001  0.91500000000002 0.725000000000001  C 0.91500000000002 0.725000000000001  495.565 0.725000000000001  495.565 0.725000000000001  C 495.565 0.725000000000001  495.565 46.075  495.565 46.075  C 495.565 46.075  0.91500000000002 46.075  0.91500000000002 46.075  Z " fill-rule="evenodd" />
    </mask>
  </defs>
  <g transform="matrix(1 0 0 1 -403 -7792 )">
    <path d="M 0.91500000000002 46.075  C 0.91500000000002 46.075  0.91500000000002 0.725000000000001  0.91500000000002 0.725000000000001  C 0.91500000000002 0.725000000000001  495.565 0.725000000000001  495.565 0.725000000000001  C 495.565 0.725000000000001  495.565 46.075  495.565 46.075  C 495.565 46.075  0.91500000000002 46.075  0.91500000000002 46.075  Z " fill-rule="nonzero" fill="#8bc0d3" stroke="none" transform="matrix(1 0 0 1 403 7792 )" />
    <path d="M 0.91500000000002 46.075  C 0.91500000000002 46.075  0.91500000000002 0.725000000000001  0.91500000000002 0.725000000000001  C 0.91500000000002 0.725000000000001  495.565 0.725000000000001  495.565 0.725000000000001  C 495.565 0.725000000000001  495.565 46.075  495.565 46.075  C 495.565 46.075  0.91500000000002 46.075  0.91500000000002 46.075  Z " stroke-width="0.5" stroke="#8bc0d3" fill="none" transform="matrix(1 0 0 1 403 7792 )" mask="url(#clip1952)" />
  </g>
</svg>