<svg xmlns="http://www.w3.org/2000/svg" xmlns:xlink="http://www.w3.org/1999/xlink" width="56" height="60" version="1.1"><defs><mask id="clip2088" fill="#fff"><path fill-rule="evenodd" d="M 19.9300000000001 0.390000000000001 C 19.9300000000001 0.390000000000001 35.73 0.390000000000001 35.73 0.390000000000001 C 46.6300000000001 0.390000000000001 55.4300000000001 9.79000000000001 55.4300000000001 21.39 C 55.4300000000001 21.39 55.4300000000001 38.09 55.4300000000001 38.09 C 55.4300000000001 49.79 46.6300000000001 59.19 35.73 59.19 C 35.73 59.19 19.9300000000001 59.19 19.9300000000001 59.19 C 9.02999999999997 59.19 0.230000000000018 49.79 0.230000000000018 38.09 C 0.230000000000018 38.09 0.230000000000018 21.39 0.230000000000018 21.39 C 0.230000000000018 9.79000000000001 9.02999999999997 0.390000000000001 19.9300000000001 0.390000000000001 Z"/></mask></defs><g><path fill="#888889" fill-opacity=".078" fill-rule="nonzero" stroke="none" d="M 19.9300000000001 0.390000000000001 C 19.9300000000001 0.390000000000001 35.73 0.390000000000001 35.73 0.390000000000001 C 46.6300000000001 0.390000000000001 55.4300000000001 9.79000000000001 55.4300000000001 21.39 C 55.4300000000001 21.39 55.4300000000001 38.09 55.4300000000001 38.09 C 55.4300000000001 49.79 46.6300000000001 59.19 35.73 59.19 C 35.73 59.19 19.9300000000001 59.19 19.9300000000001 59.19 C 9.02999999999997 59.19 0.230000000000018 49.79 0.230000000000018 38.09 C 0.230000000000018 38.09 0.230000000000018 21.39 0.230000000000018 21.39 C 0.230000000000018 9.79000000000001 9.02999999999997 0.390000000000001 19.9300000000001 0.390000000000001 Z" transform="matrix(1 0 0 1 -1145 -12473 ) matrix(1 0 0 1 1145 12473 )"/><path fill="none" stroke="#888889" stroke-opacity=".059" stroke-width="2" d="M 19.9300000000001 0.390000000000001 C 19.9300000000001 0.390000000000001 35.73 0.390000000000001 35.73 0.390000000000001 C 46.6300000000001 0.390000000000001 55.4300000000001 9.79000000000001 55.4300000000001 21.39 C 55.4300000000001 21.39 55.4300000000001 38.09 55.4300000000001 38.09 C 55.4300000000001 49.79 46.6300000000001 59.19 35.73 59.19 C 35.73 59.19 19.9300000000001 59.19 19.9300000000001 59.19 C 9.02999999999997 59.19 0.230000000000018 49.79 0.230000000000018 38.09 C 0.230000000000018 38.09 0.230000000000018 21.39 0.230000000000018 21.39 C 0.230000000000018 9.79000000000001 9.02999999999997 0.390000000000001 19.9300000000001 0.390000000000001 Z" mask="url(#clip2088)" transform="matrix(1 0 0 1 -1145 -12473 ) matrix(1 0 0 1 1145 12473 )"/></g></svg>