<?xml version="1.0" encoding="utf-8"?>
<svg version="1.1" xmlns:xlink="http://www.w3.org/1999/xlink" width="4px" height="3px" xmlns="http://www.w3.org/2000/svg">
  <defs>
    <mask fill="white" id="clip295">
      <path d="M 2.44 0.490000000000009  C 2.84000000000003 0.490000000000009  3.13999999999999 1.79000000000002  3.13999999999999 2.19  C 3.13999999999999 2.59000000000003  2.84000000000003 2.88999999999999  2.44 2.88999999999999  C 2.04000000000002 2.88999999999999  0.740000000000009 2.59000000000003  0.740000000000009 2.19  C 0.740000000000009 1.79000000000002  2.04000000000002 0.490000000000009  2.44 0.490000000000009  Z " fill-rule="evenodd" />
    </mask>
  </defs>
  <g transform="matrix(1 0 0 1 -411 -7202 )">
    <path d="M 2.44 0.490000000000009  C 2.84000000000003 0.490000000000009  3.13999999999999 1.79000000000002  3.13999999999999 2.19  C 3.13999999999999 2.59000000000003  2.84000000000003 2.88999999999999  2.44 2.88999999999999  C 2.04000000000002 2.88999999999999  0.740000000000009 2.59000000000003  0.740000000000009 2.19  C 0.740000000000009 1.79000000000002  2.04000000000002 0.490000000000009  2.44 0.490000000000009  Z " fill-rule="nonzero" fill="#ffffff" stroke="none" transform="matrix(1 0 0 1 411 7202 )" />
    <path d="M 2.44 0.490000000000009  C 2.84000000000003 0.490000000000009  3.13999999999999 1.79000000000002  3.13999999999999 2.19  C 3.13999999999999 2.59000000000003  2.84000000000003 2.88999999999999  2.44 2.88999999999999  C 2.04000000000002 2.88999999999999  0.740000000000009 2.59000000000003  0.740000000000009 2.19  C 0.740000000000009 1.79000000000002  2.04000000000002 0.490000000000009  2.44 0.490000000000009  Z " stroke-width="2" stroke="#ffffff" fill="none" transform="matrix(1 0 0 1 411 7202 )" mask="url(#clip295)" />
  </g>
</svg>