<?xml version="1.0" encoding="utf-8"?>
<svg version="1.1" xmlns:xlink="http://www.w3.org/1999/xlink" width="68px" height="24px" xmlns="http://www.w3.org/2000/svg">
  <defs>
    <mask fill="white" id="clip786">
      <path d="M 0.780000000000001 23.79  C 0.780000000000001 23.79  0.780000000000001 0.789999999999992  0.780000000000001 0.789999999999992  C 0.780000000000001 0.789999999999992  67.48 0.789999999999992  67.48 0.789999999999992  C 67.48 0.789999999999992  67.48 23.79  67.48 23.79  C 67.48 23.79  0.780000000000001 23.79  0.780000000000001 23.79  Z " fill-rule="evenodd" />
    </mask>
  </defs>
  <g transform="matrix(1 0 0 1 -158 -14518 )">
    <path d="M 0.780000000000001 23.79  C 0.780000000000001 23.79  0.780000000000001 0.789999999999992  0.780000000000001 0.789999999999992  C 0.780000000000001 0.789999999999992  67.48 0.789999999999992  67.48 0.789999999999992  C 67.48 0.789999999999992  67.48 23.79  67.48 23.79  C 67.48 23.79  0.780000000000001 23.79  0.780000000000001 23.79  Z " fill-rule="nonzero" fill="#add8e6" stroke="none" transform="matrix(1 0 0 1 158 14518 )" />
    <path d="M 0.780000000000001 23.79  C 0.780000000000001 23.79  0.780000000000001 0.789999999999992  0.780000000000001 0.789999999999992  C 0.780000000000001 0.789999999999992  67.48 0.789999999999992  67.48 0.789999999999992  C 67.48 0.789999999999992  67.48 23.79  67.48 23.79  C 67.48 23.79  0.780000000000001 23.79  0.780000000000001 23.79  Z " stroke-width="2" stroke="#6fbbd3" fill="none" transform="matrix(1 0 0 1 158 14518 )" mask="url(#clip786)" />
  </g>
</svg>