<?xml version="1.0" encoding="utf-8"?>
<svg version="1.1" xmlns:xlink="http://www.w3.org/1999/xlink" width="268px" height="16px" xmlns="http://www.w3.org/2000/svg">
  <defs>
    <mask fill="white" id="clip1008">
      <path d="M 0.350000000000023 15.89  C 0.350000000000023 15.89  0.350000000000023 0.79000000000002  0.350000000000023 0.79000000000002  C 0.350000000000023 0.79000000000002  267.55 0.79000000000002  267.55 0.79000000000002  C 267.55 0.79000000000002  267.55 15.89  267.55 15.89  C 267.55 15.89  0.350000000000023 15.89  0.350000000000023 15.89  Z " fill-rule="evenodd" />
    </mask>
  </defs>
  <g transform="matrix(1 0 0 1 -891 -17218 )">
    <path d="M 0.350000000000023 15.89  C 0.350000000000023 15.89  0.350000000000023 0.79000000000002  0.350000000000023 0.79000000000002  C 0.350000000000023 0.79000000000002  267.55 0.79000000000002  267.55 0.79000000000002  C 267.55 0.79000000000002  267.55 15.89  267.55 15.89  C 267.55 15.89  0.350000000000023 15.89  0.350000000000023 15.89  Z " fill-rule="nonzero" fill="#ffffff" stroke="none" fill-opacity="0" transform="matrix(1 0 0 1 891 17218 )" />
    <path d="M 0.350000000000023 15.89  C 0.350000000000023 15.89  0.350000000000023 0.79000000000002  0.350000000000023 0.79000000000002  C 0.350000000000023 0.79000000000002  267.55 0.79000000000002  267.55 0.79000000000002  C 267.55 0.79000000000002  267.55 15.89  267.55 15.89  C 267.55 15.89  0.350000000000023 15.89  0.350000000000023 15.89  Z " stroke-width="2" stroke="#787878" fill="none" transform="matrix(1 0 0 1 891 17218 )" mask="url(#clip1008)" />
  </g>
</svg>