<svg xmlns="http://www.w3.org/2000/svg" xmlns:xlink="http://www.w3.org/1999/xlink" width="9" height="18" version="1.1"><defs><mask id="clip1824" fill="#fff"><path fill-rule="evenodd" d="M 0.779999999999973 0.860000000000014 C 0.779999999999973 0.860000000000014 0.779999999999973 17.06 0.779999999999973 17.06 C 0.779999999999973 17.06 8.67999999999995 17.06 8.67999999999995 17.06 C 8.67999999999995 17.06 8.67999999999995 0.860000000000014 8.67999999999995 0.860000000000014 C 8.67999999999995 0.860000000000014 0.779999999999973 0.860000000000014 0.779999999999973 0.860000000000014 Z"/></mask></defs><g><path fill="#fff" fill-rule="nonzero" stroke="none" d="M 0.779999999999973 0.860000000000014 C 0.779999999999973 0.860000000000014 0.779999999999973 17.06 0.779999999999973 17.06 C 0.779999999999973 17.06 8.67999999999995 17.06 8.67999999999995 17.06 C 8.67999999999995 17.06 8.67999999999995 0.860000000000014 8.67999999999995 0.860000000000014 C 8.67999999999995 0.860000000000014 0.779999999999973 0.860000000000014 0.779999999999973 0.860000000000014 Z" transform="matrix(1 0 0 1 -421 -7072 ) matrix(1 0 0 1 421 7072 )"/><path fill="none" stroke="#fff" stroke-width="2" d="M 0.779999999999973 0.860000000000014 C 0.779999999999973 0.860000000000014 0.779999999999973 17.06 0.779999999999973 17.06 C 0.779999999999973 17.06 8.67999999999995 17.06 8.67999999999995 17.06 C 8.67999999999995 17.06 8.67999999999995 0.860000000000014 8.67999999999995 0.860000000000014 C 8.67999999999995 0.860000000000014 0.779999999999973 0.860000000000014 0.779999999999973 0.860000000000014 Z" mask="url(#clip1824)" transform="matrix(1 0 0 1 -421 -7072 ) matrix(1 0 0 1 421 7072 )"/></g></svg>