<svg xmlns="http://www.w3.org/2000/svg" xmlns:xlink="http://www.w3.org/1999/xlink" width="1124" height="75" version="1.1"><defs><mask id="clip1751" fill="#fff"><path fill-rule="evenodd" d="M 0.5 74.3 C 0.5 74.3 0.5 0.5 0.5 0.5 C 0.5 0.5 1124 0.5 1124 0.5 C 1124 0.5 1124 74.3 1124 74.3 C 1124 74.3 0.5 74.3 0.5 74.3 Z"/></mask></defs><g><path fill="#8bc0d3" fill-rule="nonzero" stroke="none" d="M 0.5 74.3 C 0.5 74.3 0.5 0.5 0.5 0.5 C 0.5 0.5 1124 0.5 1124 0.5 C 1124 0.5 1124 74.3 1124 74.3 C 1124 74.3 0.5 74.3 0.5 74.3 Z" transform="matrix(1 0 0 1 -89 -4933 ) matrix(1 0 0 1 89 4933 )"/><path fill="none" stroke="#8bc0d3" stroke-width="2" d="M 0.5 74.3 C 0.5 74.3 0.5 0.5 0.5 0.5 C 0.5 0.5 1124 0.5 1124 0.5 C 1124 0.5 1124 74.3 1124 74.3 C 1124 74.3 0.5 74.3 0.5 74.3 Z" mask="url(#clip1751)" transform="matrix(1 0 0 1 -89 -4933 ) matrix(1 0 0 1 89 4933 )"/></g></svg>