<svg xmlns="http://www.w3.org/2000/svg" xmlns:xlink="http://www.w3.org/1999/xlink" width="183" height="182" version="1.1"><defs><mask id="clip2656" fill="#fff"><path fill-rule="evenodd" d="M 18.86 93.83 C 18.86 93.83 0.860000000000014 94.43 0.860000000000014 94.43 C 0.860000000000014 93.53 0.860000000000014 90.63 0.860000000000014 89.73 C 0.860000000000014 40.23 40.96 0.129999999999995 90.46 0.129999999999995 C 139.96 0.129999999999995 182.16 40.23 182.16 89.73 C 182.16 139.23 139.96 181.43 90.46 181.43 C 66.76 181.43 45.26 172.23 29.16 157.13 C 29.16 157.13 41.46 144.03 41.46 144.03 C 54.26 156.13 71.5600000000001 163.43 90.46 163.43 C 130.06 163.43 164.16 129.33 164.16 89.73 C 164.16 50.13 130.06 18.03 90.46 18.03 C 50.86 18.03 18.76 50.13 18.76 89.73 C 18.76 90.43 18.76 93.13 18.86 93.83 Z"/></mask></defs><g><path fill="#2f7a8e" fill-rule="nonzero" stroke="none" d="M 18.86 93.83 C 18.86 93.83 0.860000000000014 94.43 0.860000000000014 94.43 C 0.860000000000014 93.53 0.860000000000014 90.63 0.860000000000014 89.73 C 0.860000000000014 40.23 40.96 0.129999999999995 90.46 0.129999999999995 C 139.96 0.129999999999995 182.16 40.23 182.16 89.73 C 182.16 139.23 139.96 181.43 90.46 181.43 C 66.76 181.43 45.26 172.23 29.16 157.13 C 29.16 157.13 41.46 144.03 41.46 144.03 C 54.26 156.13 71.5600000000001 163.43 90.46 163.43 C 130.06 163.43 164.16 129.33 164.16 89.73 C 164.16 50.13 130.06 18.03 90.46 18.03 C 50.86 18.03 18.76 50.13 18.76 89.73 C 18.76 90.43 18.76 93.13 18.86 93.83 Z" transform="matrix(1 0 0 1 -937 -18960 ) matrix(1 0 0 1 937 18960 )"/><path fill="none" stroke="#fff" stroke-width="4" d="M 18.86 93.83 C 18.86 93.83 0.860000000000014 94.43 0.860000000000014 94.43 C 0.860000000000014 93.53 0.860000000000014 90.63 0.860000000000014 89.73 C 0.860000000000014 40.23 40.96 0.129999999999995 90.46 0.129999999999995 C 139.96 0.129999999999995 182.16 40.23 182.16 89.73 C 182.16 139.23 139.96 181.43 90.46 181.43 C 66.76 181.43 45.26 172.23 29.16 157.13 C 29.16 157.13 41.46 144.03 41.46 144.03 C 54.26 156.13 71.5600000000001 163.43 90.46 163.43 C 130.06 163.43 164.16 129.33 164.16 89.73 C 164.16 50.13 130.06 18.03 90.46 18.03 C 50.86 18.03 18.76 50.13 18.76 89.73 C 18.76 90.43 18.76 93.13 18.86 93.83 Z" mask="url(#clip2656)" transform="matrix(1 0 0 1 -937 -18960 ) matrix(1 0 0 1 937 18960 )"/></g></svg>