<?xml version="1.0" encoding="utf-8"?>
<svg version="1.1" xmlns:xlink="http://www.w3.org/1999/xlink" width="130px" height="16px" xmlns="http://www.w3.org/2000/svg">
  <defs>
    <linearGradient gradientUnits="userSpaceOnUse" x1="103188.408" y1="3012.085" x2="103188.408" y2="3210.895" id="LinearGradient1003">
      <stop id="Stop1004" stop-color="#a1d979" offset="0" />
      <stop id="Stop1005" stop-color="#8acf57" offset="0.2" />
      <stop id="Stop1006" stop-color="#6cb734" offset="1" />
    </linearGradient>
    <mask fill="white" id="clip1007">
      <path d="M 0.909999999999968 15.63  C 0.909999999999968 15.63  0.909999999999968 0.529999999999973  0.909999999999968 0.529999999999973  C 0.909999999999968 0.529999999999973  129.71 0.529999999999973  129.71 0.529999999999973  C 129.71 0.529999999999973  129.71 15.63  129.71 15.63  C 129.71 15.63  0.909999999999968 15.63  0.909999999999968 15.63  Z " fill-rule="evenodd" />
    </mask>
  </defs>
  <g transform="matrix(1 0 0 1 -890 -17270 )">
    <path d="M 0.909999999999968 15.63  C 0.909999999999968 15.63  0.909999999999968 0.529999999999973  0.909999999999968 0.529999999999973  C 0.909999999999968 0.529999999999973  129.71 0.529999999999973  129.71 0.529999999999973  C 129.71 0.529999999999973  129.71 15.63  129.71 15.63  C 129.71 15.63  0.909999999999968 15.63  0.909999999999968 15.63  Z " fill-rule="nonzero" fill="url(#LinearGradient1003)" stroke="none" transform="matrix(1 0 0 1 890 17270 )" />
    <path d="M 0.909999999999968 15.63  C 0.909999999999968 15.63  0.909999999999968 0.529999999999973  0.909999999999968 0.529999999999973  C 0.909999999999968 0.529999999999973  129.71 0.529999999999973  129.71 0.529999999999973  C 129.71 0.529999999999973  129.71 15.63  129.71 15.63  C 129.71 15.63  0.909999999999968 15.63  0.909999999999968 15.63  Z " stroke-width="2" stroke="#787878" fill="none" transform="matrix(1 0 0 1 890 17270 )" mask="url(#clip1007)" />
  </g>
</svg>