<?xml version="1.0" encoding="utf-8"?>
<svg version="1.1" xmlns:xlink="http://www.w3.org/1999/xlink" width="361px" height="33px" xmlns="http://www.w3.org/2000/svg">
  <defs>
    <linearGradient gradientUnits="userSpaceOnUse" x1="236130.356" y1="15566.51" x2="236130.356" y2="16478.55" id="LinearGradient2326">
      <stop id="Stop2327" stop-color="#e4e4e4" offset="0" />
      <stop id="Stop2328" stop-color="#ededed" offset="0.2" />
      <stop id="Stop2329" stop-color="#bdbdbd" offset="0.8" />
      <stop id="Stop2330" stop-color="#a8a8a8" offset="1" />
    </linearGradient>
    <mask fill="white" id="clip2331">
      <path d="M 0.0599999999999454 32.13  C 0.0599999999999454 32.13  0.0599999999999454 0.92999999999995  0.0599999999999454 0.92999999999995  C 0.0599999999999454 0.92999999999995  360.16 0.92999999999995  360.16 0.92999999999995  C 360.16 0.92999999999995  360.16 32.13  360.16 32.13  C 360.16 32.13  0.0599999999999454 32.13  0.0599999999999454 32.13  Z " fill-rule="evenodd" />
    </mask>
  </defs>
  <g transform="matrix(1 0 0 1 -741 -14870 )">
    <path d="M 0.0599999999999454 32.13  C 0.0599999999999454 32.13  0.0599999999999454 0.92999999999995  0.0599999999999454 0.92999999999995  C 0.0599999999999454 0.92999999999995  360.16 0.92999999999995  360.16 0.92999999999995  C 360.16 0.92999999999995  360.16 32.13  360.16 32.13  C 360.16 32.13  0.0599999999999454 32.13  0.0599999999999454 32.13  Z " fill-rule="nonzero" fill="url(#LinearGradient2326)" stroke="none" transform="matrix(1 0 0 1 741 14870 )" />
    <path d="M 0.0599999999999454 32.13  C 0.0599999999999454 32.13  0.0599999999999454 0.92999999999995  0.0599999999999454 0.92999999999995  C 0.0599999999999454 0.92999999999995  360.16 0.92999999999995  360.16 0.92999999999995  C 360.16 0.92999999999995  360.16 32.13  360.16 32.13  C 360.16 32.13  0.0599999999999454 32.13  0.0599999999999454 32.13  Z " stroke-width="2" stroke="#787878" fill="none" transform="matrix(1 0 0 1 741 14870 )" mask="url(#clip2331)" />
  </g>
</svg>