<?xml version="1.0" encoding="utf-8"?>
<svg version="1.1" xmlns:xlink="http://www.w3.org/1999/xlink" width="314px" height="139px" xmlns="http://www.w3.org/2000/svg">
  <defs>
    <mask fill="white" id="clip1821">
      <path d="M 0.710000000000036 2.01999999999998  C 0.710000000000036 1.12  1.50999999999999 0.319999999999993  2.41000000000008 0.319999999999993  C 2.41000000000008 0.319999999999993  311.61 0.319999999999993  311.61 0.319999999999993  C 312.51 0.319999999999993  313.31 1.12  313.31 2.01999999999998  C 313.31 2.01999999999998  313.31 137.02  313.31 137.02  C 313.31 138.02  312.51 138.72  311.61 138.72  C 311.61 138.72  2.41000000000008 138.72  2.41000000000008 138.72  C 1.50999999999999 138.72  0.710000000000036 138.02  0.710000000000036 137.02  C 0.710000000000036 137.02  0.710000000000036 2.01999999999998  0.710000000000036 2.01999999999998  Z " fill-rule="evenodd" />
    </mask>
  </defs>
  <g transform="matrix(1 0 0 1 -849 -8756 )">
    <path d="M 0.710000000000036 2.01999999999998  C 0.710000000000036 1.12  1.50999999999999 0.319999999999993  2.41000000000008 0.319999999999993  C 2.41000000000008 0.319999999999993  311.61 0.319999999999993  311.61 0.319999999999993  C 312.51 0.319999999999993  313.31 1.12  313.31 2.01999999999998  C 313.31 2.01999999999998  313.31 137.02  313.31 137.02  C 313.31 138.02  312.51 138.72  311.61 138.72  C 311.61 138.72  2.41000000000008 138.72  2.41000000000008 138.72  C 1.50999999999999 138.72  0.710000000000036 138.02  0.710000000000036 137.02  C 0.710000000000036 137.02  0.710000000000036 2.01999999999998  0.710000000000036 2.01999999999998  Z " fill-rule="nonzero" fill="#ffffff" stroke="none" fill-opacity="0.0980392156862745" transform="matrix(1 0 0 1 849 8756 )" />
    <path d="M 0.710000000000036 2.01999999999998  C 0.710000000000036 1.12  1.50999999999999 0.319999999999993  2.41000000000008 0.319999999999993  C 2.41000000000008 0.319999999999993  311.61 0.319999999999993  311.61 0.319999999999993  C 312.51 0.319999999999993  313.31 1.12  313.31 2.01999999999998  C 313.31 2.01999999999998  313.31 137.02  313.31 137.02  C 313.31 138.02  312.51 138.72  311.61 138.72  C 311.61 138.72  2.41000000000008 138.72  2.41000000000008 138.72  C 1.50999999999999 138.72  0.710000000000036 138.02  0.710000000000036 137.02  C 0.710000000000036 137.02  0.710000000000036 2.01999999999998  0.710000000000036 2.01999999999998  Z " stroke-width="2" stroke="#ffffff" fill="none" stroke-opacity="0.498039215686275" transform="matrix(1 0 0 1 849 8756 )" mask="url(#clip1821)" />
  </g>
</svg>