<svg xmlns="http://www.w3.org/2000/svg" xmlns:xlink="http://www.w3.org/1999/xlink" width="80" height="80" version="1.1"><defs><mask id="clip1811" fill="#fff"><path fill-rule="evenodd" d="M 40.3900000000001 80 C 18.7900000000001 80 0.190000000000055 62.5 0.190000000000055 40.8 C 0.190000000000055 19.2 18.7900000000001 0.600000000000023 40.3900000000001 0.600000000000023 C 62.09 0.600000000000023 79.59 19.2 79.59 40.8 C 79.59 62.5 62.09 80 40.3900000000001 80 Z"/></mask></defs><g><path fill="#fff" fill-opacity="0" fill-rule="nonzero" stroke="none" d="M 40.3900000000001 80 C 18.7900000000001 80 0.190000000000055 62.5 0.190000000000055 40.8 C 0.190000000000055 19.2 18.7900000000001 0.600000000000023 40.3900000000001 0.600000000000023 C 62.09 0.600000000000023 79.59 19.2 79.59 40.8 C 79.59 62.5 62.09 80 40.3900000000001 80 Z" transform="matrix(1 0 0 1 -696 -7159 ) matrix(1 0 0 1 696 7159 )"/><path fill="none" stroke="#34c2c2" stroke-width="2" d="M 40.3900000000001 80 C 18.7900000000001 80 0.190000000000055 62.5 0.190000000000055 40.8 C 0.190000000000055 19.2 18.7900000000001 0.600000000000023 40.3900000000001 0.600000000000023 C 62.09 0.600000000000023 79.59 19.2 79.59 40.8 C 79.59 62.5 62.09 80 40.3900000000001 80 Z" mask="url(#clip1811)" transform="matrix(1 0 0 1 -696 -7159 ) matrix(1 0 0 1 696 7159 )"/></g></svg>