<?xml version="1.0" encoding="utf-8"?>
<svg version="1.1" xmlns:xlink="http://www.w3.org/1999/xlink" width="56px" height="60px" xmlns="http://www.w3.org/2000/svg">
  <defs>
    <mask fill="white" id="clip666">
      <path d="M 35.92 0.390000000000001  C 35.92 0.390000000000001  20.12 0.390000000000001  20.12 0.390000000000001  C 9.22 0.390000000000001  0.420000000000002 9.79000000000001  0.420000000000002 21.39  C 0.420000000000002 21.39  0.420000000000002 38.09  0.420000000000002 38.09  C 0.420000000000002 49.79  9.22 59.19  20.12 59.19  C 20.12 59.19  35.92 59.19  35.92 59.19  C 46.82 59.19  55.62 49.79  55.62 38.09  C 55.62 38.09  55.62 21.39  55.62 21.39  C 55.62 9.79000000000001  46.82 0.390000000000001  35.92 0.390000000000001  Z " fill-rule="evenodd" />
    </mask>
  </defs>
  <g transform="matrix(1 0 0 1 -101 -12473 )">
    <path d="M 35.92 0.390000000000001  C 35.92 0.390000000000001  20.12 0.390000000000001  20.12 0.390000000000001  C 9.22 0.390000000000001  0.420000000000002 9.79000000000001  0.420000000000002 21.39  C 0.420000000000002 21.39  0.420000000000002 38.09  0.420000000000002 38.09  C 0.420000000000002 49.79  9.22 59.19  20.12 59.19  C 20.12 59.19  35.92 59.19  35.92 59.19  C 46.82 59.19  55.62 49.79  55.62 38.09  C 55.62 38.09  55.62 21.39  55.62 21.39  C 55.62 9.79000000000001  46.82 0.390000000000001  35.92 0.390000000000001  Z " fill-rule="nonzero" fill="#888889" stroke="none" fill-opacity="0.0784313725490196" transform="matrix(1 0 0 1 101 12473 )" />
    <path d="M 35.92 0.390000000000001  C 35.92 0.390000000000001  20.12 0.390000000000001  20.12 0.390000000000001  C 9.22 0.390000000000001  0.420000000000002 9.79000000000001  0.420000000000002 21.39  C 0.420000000000002 21.39  0.420000000000002 38.09  0.420000000000002 38.09  C 0.420000000000002 49.79  9.22 59.19  20.12 59.19  C 20.12 59.19  35.92 59.19  35.92 59.19  C 46.82 59.19  55.62 49.79  55.62 38.09  C 55.62 38.09  55.62 21.39  55.62 21.39  C 55.62 9.79000000000001  46.82 0.390000000000001  35.92 0.390000000000001  Z " stroke-width="2" stroke="#888889" fill="none" stroke-opacity="0.0588235294117647" transform="matrix(1 0 0 1 101 12473 )" mask="url(#clip666)" />
  </g>
</svg>