<?xml version="1.0" encoding="utf-8"?>
<svg version="1.1" xmlns:xlink="http://www.w3.org/1999/xlink" width="21px" height="74px" xmlns="http://www.w3.org/2000/svg">
  <defs>
    <mask fill="white" id="clip1083">
      <path d="M 16.096 0.872000000000071  C 16.096 0.872000000000071  0.495000000000005 67.635  0.495000000000005 67.635  C 0.495000000000005 67.635  11.583 69.2030000000001  11.583 69.2030000000001  C 11.583 69.2030000000001  16.096 0.872000000000071  16.096 0.872000000000071  Z " fill-rule="evenodd" />
    </mask>
    <filter x="234px" y="17498px" width="21px" height="74px" filterUnits="userSpaceOnUse" id="filter1084">
      <feOffset dx="0" dy="0" in="SourceAlpha" result="shadowOffsetInner" />
      <feGaussianBlur stdDeviation="1" in="shadowOffsetInner" result="shadowGaussian" />
      <feComposite in2="shadowGaussian" operator="atop" in="SourceAlpha" result="shadowComposite" />
      <feColorMatrix type="matrix" values="0 0 0 0 0.501960784313725  0 0 0 0 0.501960784313725  0 0 0 0 0.501960784313725  0 0 0 1 0  " in="shadowComposite" />
    </filter>
    <g id="widget1085">
      <path d="M 16.096 0.872000000000071  C 16.096 0.872000000000071  0.495000000000005 67.635  0.495000000000005 67.635  C 0.495000000000005 67.635  11.583 69.2030000000001  11.583 69.2030000000001  C 11.583 69.2030000000001  16.096 0.872000000000071  16.096 0.872000000000071  Z " fill-rule="nonzero" fill="#ffffff" stroke="none" fill-opacity="0" transform="matrix(1 0 0 1 236 17500 )" />
      <path d="M 16.096 0.872000000000071  C 16.096 0.872000000000071  0.495000000000005 67.635  0.495000000000005 67.635  C 0.495000000000005 67.635  11.583 69.2030000000001  11.583 69.2030000000001  C 11.583 69.2030000000001  16.096 0.872000000000071  16.096 0.872000000000071  Z " stroke-width="1.99969997749662" stroke="#952323" fill="none" transform="matrix(1 0 0 1 236 17500 )" mask="url(#clip1083)" />
    </g>
  </defs>
  <g transform="matrix(1 0 0 1 -234 -17498 )">
    <use xlink:href="#widget1085" filter="url(#filter1084)" />
    <use xlink:href="#widget1085" />
  </g>
</svg>