<?xml version="1.0" encoding="utf-8"?>
<svg version="1.1" xmlns:xlink="http://www.w3.org/1999/xlink" width="284px" height="25px" xmlns="http://www.w3.org/2000/svg">
  <defs>
    <linearGradient gradientUnits="userSpaceOnUse" x1="63923244.994" y1="122677.7575" x2="63923244.994" y2="135655.6325" id="LinearGradient992">
      <stop id="Stop993" stop-color="#e4e4e4" offset="0" />
      <stop id="Stop994" stop-color="#ededed" offset="0.2" />
      <stop id="Stop995" stop-color="#bdbdbd" offset="0.8" />
      <stop id="Stop996" stop-color="#a8a8a8" offset="1" />
    </linearGradient>
    <mask fill="white" id="clip997">
      <path d="M 0.350000000000023 24.59  C 0.350000000000023 24.59  0.350000000000023 0.0900000000000318  0.350000000000023 0.0900000000000318  C 0.350000000000023 0.0900000000000318  283.55 0.0900000000000318  283.55 0.0900000000000318  C 283.55 0.0900000000000318  283.55 24.59  283.55 24.59  C 283.55 24.59  0.350000000000023 24.59  0.350000000000023 24.59  Z " fill-rule="evenodd" />
    </mask>
  </defs>
  <g transform="matrix(1 0 0 1 -883 -17214 )">
    <path d="M 0.350000000000023 24.59  C 0.350000000000023 24.59  0.350000000000023 0.0900000000000318  0.350000000000023 0.0900000000000318  C 0.350000000000023 0.0900000000000318  283.55 0.0900000000000318  283.55 0.0900000000000318  C 283.55 0.0900000000000318  283.55 24.59  283.55 24.59  C 283.55 24.59  0.350000000000023 24.59  0.350000000000023 24.59  Z " fill-rule="nonzero" fill="url(#LinearGradient992)" stroke="none" transform="matrix(1 0 0 1 883 17214 )" />
    <path d="M 0.350000000000023 24.59  C 0.350000000000023 24.59  0.350000000000023 0.0900000000000318  0.350000000000023 0.0900000000000318  C 0.350000000000023 0.0900000000000318  283.55 0.0900000000000318  283.55 0.0900000000000318  C 283.55 0.0900000000000318  283.55 24.59  283.55 24.59  C 283.55 24.59  0.350000000000023 24.59  0.350000000000023 24.59  Z " stroke-width="2" stroke="#787878" fill="none" transform="matrix(1 0 0 1 883 17214 )" mask="url(#clip997)" />
  </g>
</svg>