<svg xmlns="http://www.w3.org/2000/svg" xmlns:xlink="http://www.w3.org/1999/xlink" width="322" height="24" version="1.1"><defs><mask id="clip2281" fill="#fff"><path fill-rule="evenodd" d="M 0.780000000000001 23.21 C 0.780000000000001 23.21 0.780000000000001 0.20999999999998 0.780000000000001 0.20999999999998 C 0.780000000000001 0.20999999999998 321.28 0.20999999999998 321.28 0.20999999999998 C 321.28 0.20999999999998 321.28 23.21 321.28 23.21 C 321.28 23.21 0.780000000000001 23.21 0.780000000000001 23.21 Z"/></mask></defs><g><path fill="#fafafa" fill-rule="nonzero" stroke="none" d="M 0.780000000000001 23.21 C 0.780000000000001 23.21 0.780000000000001 0.20999999999998 0.780000000000001 0.20999999999998 C 0.780000000000001 0.20999999999998 321.28 0.20999999999998 321.28 0.20999999999998 C 321.28 0.20999999999998 321.28 23.21 321.28 23.21 C 321.28 23.21 0.780000000000001 23.21 0.780000000000001 23.21 Z" transform="matrix(1 0 0 1 -158 -14479 ) matrix(1 0 0 1 158 14479 )"/><path fill="none" stroke="silver" stroke-width="2" d="M 0.780000000000001 23.21 C 0.780000000000001 23.21 0.780000000000001 0.20999999999998 0.780000000000001 0.20999999999998 C 0.780000000000001 0.20999999999998 321.28 0.20999999999998 321.28 0.20999999999998 C 321.28 0.20999999999998 321.28 23.21 321.28 23.21 C 321.28 23.21 0.780000000000001 23.21 0.780000000000001 23.21 Z" mask="url(#clip2281)" transform="matrix(1 0 0 1 -158 -14479 ) matrix(1 0 0 1 158 14479 )"/></g></svg>