<?xml version="1.0" encoding="utf-8"?>
<svg version="1.1" xmlns:xlink="http://www.w3.org/1999/xlink" width="23px" height="25px" xmlns="http://www.w3.org/2000/svg">
  <defs>
    <mask fill="white" id="clip744">
      <path d="M 0.139999999999986 24.67  C 0.139999999999986 24.67  0.139999999999986 0.970000000000027  0.139999999999986 0.970000000000027  C 0.139999999999986 0.970000000000027  22.4399999999999 0.970000000000027  22.4399999999999 0.970000000000027  C 22.4399999999999 0.970000000000027  22.4399999999999 24.67  22.4399999999999 24.67  C 22.4399999999999 24.67  0.139999999999986 24.67  0.139999999999986 24.67  Z " fill-rule="evenodd" />
    </mask>
  </defs>
  <g transform="matrix(1 0 0 1 -626 -14635 )">
    <path d="M 0.139999999999986 24.67  C 0.139999999999986 24.67  0.139999999999986 0.970000000000027  0.139999999999986 0.970000000000027  C 0.139999999999986 0.970000000000027  22.4399999999999 0.970000000000027  22.4399999999999 0.970000000000027  C 22.4399999999999 0.970000000000027  22.4399999999999 24.67  22.4399999999999 24.67  C 22.4399999999999 24.67  0.139999999999986 24.67  0.139999999999986 24.67  Z " fill-rule="nonzero" fill="#edc3a5" stroke="none" transform="matrix(1 0 0 1 626 14635 )" />
    <path d="M 0.139999999999986 24.67  C 0.139999999999986 24.67  0.139999999999986 0.970000000000027  0.139999999999986 0.970000000000027  C 0.139999999999986 0.970000000000027  22.4399999999999 0.970000000000027  22.4399999999999 0.970000000000027  C 22.4399999999999 0.970000000000027  22.4399999999999 24.67  22.4399999999999 24.67  C 22.4399999999999 24.67  0.139999999999986 24.67  0.139999999999986 24.67  Z " stroke-width="2" stroke="#edc3a5" fill="none" transform="matrix(1 0 0 1 626 14635 )" mask="url(#clip744)" />
  </g>
</svg>