<?xml version="1.0" encoding="utf-8"?>
<svg version="1.1" xmlns:xlink="http://www.w3.org/1999/xlink" width="38px" height="30px" xmlns="http://www.w3.org/2000/svg">
  <defs>
    <mask fill="white" id="clip2481">
      <path d="M 37.2866665 5.08333350000004  C 38.3866665 3.6833335  38.0866665 1.6833335  36.4866665000001 0.683333500000003  C 34.9866665000001 -0.316666499999997  32.7866665 -0.0166664999999853  31.6866665 1.38333350000005  C 31.6866665 1.38333350000005  15.2533335000001 21.7166665  15.2533335000001 21.7166665  C 15.2533335000001 21.7166665  6.45333349999999 13.1833335  6.45333349999999 13.1833335  C 5.05333350000001 11.9833335  2.95333349999999 11.8833335  1.55333350000001 13.0833335  C 0.153333500000031 14.2833335  0.0533335000000079 16.6166665  1.35333350000008 17.8166665  C 1.35333350000008 17.8166665  12.1533335 28.0166665  13.6533335 29.0166665  C 15.2533335000001 30.0166665  17.3533335000001 29.7166665  18.4533335 28.3166665  C 18.4533335 28.3166665  37.2866665 5.08333350000004  37.2866665 5.08333350000004  Z " fill-rule="evenodd" />
    </mask>
  </defs>
  <g transform="matrix(1 0 0 1 -884 -18356 )">
    <path d="M 37.2866665 5.08333350000004  C 38.3866665 3.6833335  38.0866665 1.6833335  36.4866665000001 0.683333500000003  C 34.9866665000001 -0.316666499999997  32.7866665 -0.0166664999999853  31.6866665 1.38333350000005  C 31.6866665 1.38333350000005  15.2533335000001 21.7166665  15.2533335000001 21.7166665  C 15.2533335000001 21.7166665  6.45333349999999 13.1833335  6.45333349999999 13.1833335  C 5.05333350000001 11.9833335  2.95333349999999 11.8833335  1.55333350000001 13.0833335  C 0.153333500000031 14.2833335  0.0533335000000079 16.6166665  1.35333350000008 17.8166665  C 1.35333350000008 17.8166665  12.1533335 28.0166665  13.6533335 29.0166665  C 15.2533335000001 30.0166665  17.3533335000001 29.7166665  18.4533335 28.3166665  C 18.4533335 28.3166665  37.2866665 5.08333350000004  37.2866665 5.08333350000004  Z " fill-rule="nonzero" fill="#1d953f" stroke="none" transform="matrix(1 0 0 1 884 18356 )" />
    <path d="M 37.2866665 5.08333350000004  C 38.3866665 3.6833335  38.0866665 1.6833335  36.4866665000001 0.683333500000003  C 34.9866665000001 -0.316666499999997  32.7866665 -0.0166664999999853  31.6866665 1.38333350000005  C 31.6866665 1.38333350000005  15.2533335000001 21.7166665  15.2533335000001 21.7166665  C 15.2533335000001 21.7166665  6.45333349999999 13.1833335  6.45333349999999 13.1833335  C 5.05333350000001 11.9833335  2.95333349999999 11.8833335  1.55333350000001 13.0833335  C 0.153333500000031 14.2833335  0.0533335000000079 16.6166665  1.35333350000008 17.8166665  C 1.35333350000008 17.8166665  12.1533335 28.0166665  13.6533335 29.0166665  C 15.2533335000001 30.0166665  17.3533335000001 29.7166665  18.4533335 28.3166665  C 18.4533335 28.3166665  37.2866665 5.08333350000004  37.2866665 5.08333350000004  Z " stroke-width="0.666666" stroke="#1d953f" fill="none" transform="matrix(1 0 0 1 884 18356 )" mask="url(#clip2481)" />
  </g>
</svg>