<?xml version="1.0" encoding="utf-8"?>
<svg version="1.1" xmlns:xlink="http://www.w3.org/1999/xlink" width="39px" height="30px" xmlns="http://www.w3.org/2000/svg">
  <defs>
    <mask fill="white" id="clip1113">
      <path d="M 37.8266665 5.08333350000004  C 38.9266665 3.6833335  38.6266664999999 1.6833335  37.0266665 0.683333500000003  C 35.5266665 -0.316666499999997  33.3266665 -0.0166664999999853  32.2266665 1.38333350000005  C 32.2266665 1.38333350000005  15.7933335 21.7166665  15.7933335 21.7166665  C 15.7933335 21.7166665  6.99333349999995 13.1833335  6.99333349999995 13.1833335  C 5.59333349999997 11.9833335  3.49333349999995 11.8833335  2.09333349999997 13.0833335  C 0.693333499999994 14.2833335  0.593333499999972 16.6166665  1.89333350000004 17.8166665  C 1.89333350000004 17.8166665  12.6933335 28.0166665  14.1933335 29.0166665  C 15.7933335 30.0166665  17.8933335 29.7166665  18.9933334999999 28.3166665  C 18.9933334999999 28.3166665  37.8266665 5.08333350000004  37.8266665 5.08333350000004  Z " fill-rule="evenodd" />
    </mask>
  </defs>
  <g transform="matrix(1 0 0 1 -714 -18356 )">
    <path d="M 37.8266665 5.08333350000004  C 38.9266665 3.6833335  38.6266664999999 1.6833335  37.0266665 0.683333500000003  C 35.5266665 -0.316666499999997  33.3266665 -0.0166664999999853  32.2266665 1.38333350000005  C 32.2266665 1.38333350000005  15.7933335 21.7166665  15.7933335 21.7166665  C 15.7933335 21.7166665  6.99333349999995 13.1833335  6.99333349999995 13.1833335  C 5.59333349999997 11.9833335  3.49333349999995 11.8833335  2.09333349999997 13.0833335  C 0.693333499999994 14.2833335  0.593333499999972 16.6166665  1.89333350000004 17.8166665  C 1.89333350000004 17.8166665  12.6933335 28.0166665  14.1933335 29.0166665  C 15.7933335 30.0166665  17.8933335 29.7166665  18.9933334999999 28.3166665  C 18.9933334999999 28.3166665  37.8266665 5.08333350000004  37.8266665 5.08333350000004  Z " fill-rule="nonzero" fill="#1d953f" stroke="none" transform="matrix(1 0 0 1 714 18356 )" />
    <path d="M 37.8266665 5.08333350000004  C 38.9266665 3.6833335  38.6266664999999 1.6833335  37.0266665 0.683333500000003  C 35.5266665 -0.316666499999997  33.3266665 -0.0166664999999853  32.2266665 1.38333350000005  C 32.2266665 1.38333350000005  15.7933335 21.7166665  15.7933335 21.7166665  C 15.7933335 21.7166665  6.99333349999995 13.1833335  6.99333349999995 13.1833335  C 5.59333349999997 11.9833335  3.49333349999995 11.8833335  2.09333349999997 13.0833335  C 0.693333499999994 14.2833335  0.593333499999972 16.6166665  1.89333350000004 17.8166665  C 1.89333350000004 17.8166665  12.6933335 28.0166665  14.1933335 29.0166665  C 15.7933335 30.0166665  17.8933335 29.7166665  18.9933334999999 28.3166665  C 18.9933334999999 28.3166665  37.8266665 5.08333350000004  37.8266665 5.08333350000004  Z " stroke-width="0.666666" stroke="#1d953f" fill="none" transform="matrix(1 0 0 1 714 18356 )" mask="url(#clip1113)" />
  </g>
</svg>