<?xml version="1.0" encoding="utf-8"?>
<svg version="1.1" xmlns:xlink="http://www.w3.org/1999/xlink" width="40px" height="40px" xmlns="http://www.w3.org/2000/svg">
  <defs>
    <mask fill="white" id="clip292">
      <path d="M 39.42 20.1  C 39.42 9.60000000000002  30.92 0.100000000000023  20.42 0.100000000000023  C 9.92000000000002 0.100000000000023  0.420000000000016 9.60000000000002  0.420000000000016 20.1  C 0.420000000000016 30.6  9.92000000000002 39.1  20.42 39.1  C 30.92 39.1  39.42 30.6  39.42 20.1  Z M 36.72 27  C 35.82 29.1  34.52 31  32.92 32.6  C 31.32 34.2  29.42 35.5  27.32 36.4  C 25.12 37.3  22.82 37.7  20.42 37.7  C 18.02 37.7  14.72 37.3  12.52 36.4  C 10.42 35.5  8.52000000000004 34.2  6.92000000000002 32.6  C 5.31999999999999 31  4.02000000000004 29.1  3.12 27  C 2.22000000000003 24.8  1.81999999999999 22.5  1.81999999999999 20.1  C 1.81999999999999 17.7  2.22000000000003 14.4  3.12 12.2  C 4.02000000000004 10.1  5.31999999999999 8.20000000000005  6.92000000000002 6.60000000000002  C 8.52000000000004 5  10.42 3.70000000000005  12.52 2.80000000000001  C 14.72 1.90000000000003  18.02 1.5  20.42 1.5  C 22.82 1.5  25.12 1.90000000000003  27.32 2.80000000000001  C 29.42 3.70000000000005  31.32 5  32.92 6.60000000000002  C 34.52 8.20000000000005  35.82 10.1  36.72 12.2  C 37.62 14.4  38.02 17.7  38.02 20.1  C 38.02 22.5  37.62 24.8  36.72 27  Z " fill-rule="evenodd" />
    </mask>
  </defs>
  <g transform="matrix(1 0 0 1 -393 -7199 )">
    <path d="M 39.42 20.1  C 39.42 9.60000000000002  30.92 0.100000000000023  20.42 0.100000000000023  C 9.92000000000002 0.100000000000023  0.420000000000016 9.60000000000002  0.420000000000016 20.1  C 0.420000000000016 30.6  9.92000000000002 39.1  20.42 39.1  C 30.92 39.1  39.42 30.6  39.42 20.1  Z M 36.72 27  C 35.82 29.1  34.52 31  32.92 32.6  C 31.32 34.2  29.42 35.5  27.32 36.4  C 25.12 37.3  22.82 37.7  20.42 37.7  C 18.02 37.7  14.72 37.3  12.52 36.4  C 10.42 35.5  8.52000000000004 34.2  6.92000000000002 32.6  C 5.31999999999999 31  4.02000000000004 29.1  3.12 27  C 2.22000000000003 24.8  1.81999999999999 22.5  1.81999999999999 20.1  C 1.81999999999999 17.7  2.22000000000003 14.4  3.12 12.2  C 4.02000000000004 10.1  5.31999999999999 8.20000000000005  6.92000000000002 6.60000000000002  C 8.52000000000004 5  10.42 3.70000000000005  12.52 2.80000000000001  C 14.72 1.90000000000003  18.02 1.5  20.42 1.5  C 22.82 1.5  25.12 1.90000000000003  27.32 2.80000000000001  C 29.42 3.70000000000005  31.32 5  32.92 6.60000000000002  C 34.52 8.20000000000005  35.82 10.1  36.72 12.2  C 37.62 14.4  38.02 17.7  38.02 20.1  C 38.02 22.5  37.62 24.8  36.72 27  Z " fill-rule="nonzero" fill="#ffffff" stroke="none" transform="matrix(1 0 0 1 393 7199 )" />
    <path d="M 39.42 20.1  C 39.42 9.60000000000002  30.92 0.100000000000023  20.42 0.100000000000023  C 9.92000000000002 0.100000000000023  0.420000000000016 9.60000000000002  0.420000000000016 20.1  C 0.420000000000016 30.6  9.92000000000002 39.1  20.42 39.1  C 30.92 39.1  39.42 30.6  39.42 20.1  Z " stroke-width="2" stroke="#ffffff" fill="none" transform="matrix(1 0 0 1 393 7199 )" mask="url(#clip292)" />
    <path d="M 36.72 27  C 35.82 29.1  34.52 31  32.92 32.6  C 31.32 34.2  29.42 35.5  27.32 36.4  C 25.12 37.3  22.82 37.7  20.42 37.7  C 18.02 37.7  14.72 37.3  12.52 36.4  C 10.42 35.5  8.52000000000004 34.2  6.92000000000002 32.6  C 5.31999999999999 31  4.02000000000004 29.1  3.12 27  C 2.22000000000003 24.8  1.81999999999999 22.5  1.81999999999999 20.1  C 1.81999999999999 17.7  2.22000000000003 14.4  3.12 12.2  C 4.02000000000004 10.1  5.31999999999999 8.20000000000005  6.92000000000002 6.60000000000002  C 8.52000000000004 5  10.42 3.70000000000005  12.52 2.80000000000001  C 14.72 1.90000000000003  18.02 1.5  20.42 1.5  C 22.82 1.5  25.12 1.90000000000003  27.32 2.80000000000001  C 29.42 3.70000000000005  31.32 5  32.92 6.60000000000002  C 34.52 8.20000000000005  35.82 10.1  36.72 12.2  C 37.62 14.4  38.02 17.7  38.02 20.1  C 38.02 22.5  37.62 24.8  36.72 27  Z " stroke-width="2" stroke="#ffffff" fill="none" transform="matrix(1 0 0 1 393 7199 )" mask="url(#clip292)" />
  </g>
</svg>