<?xml version="1.0" encoding="utf-8"?>
<svg version="1.1" xmlns:xlink="http://www.w3.org/1999/xlink" width="346px" height="271px" xmlns="http://www.w3.org/2000/svg">
  <defs>
    <mask fill="white" id="clip961">
      <path d="M 11.51 270.7  C 11.51 270.7  333.81 270.7  333.81 270.7  C 340.11 270.7  345.11 265.6  345.11 259.4  C 345.11 259.4  345.11 11.9  345.11 11.9  C 345.11 5.70000000000004  340.11 0.600000000000023  333.81 0.600000000000023  C 333.81 0.600000000000023  11.51 0.600000000000023  11.51 0.600000000000023  C 5.31 0.600000000000023  0.20999999999998 5.70000000000004  0.20999999999998 11.9  C 0.20999999999998 11.9  0.20999999999998 259.4  0.20999999999998 259.4  C 0.20999999999998 265.6  5.31 270.7  11.51 270.7  Z " fill-rule="evenodd" />
    </mask>
  </defs>
  <g transform="matrix(1 0 0 1 -479 -16579 )">
    <path d="M 11.51 270.7  C 11.51 270.7  333.81 270.7  333.81 270.7  C 340.11 270.7  345.11 265.6  345.11 259.4  C 345.11 259.4  345.11 11.9  345.11 11.9  C 345.11 5.70000000000004  340.11 0.600000000000023  333.81 0.600000000000023  C 333.81 0.600000000000023  11.51 0.600000000000023  11.51 0.600000000000023  C 5.31 0.600000000000023  0.20999999999998 5.70000000000004  0.20999999999998 11.9  C 0.20999999999998 11.9  0.20999999999998 259.4  0.20999999999998 259.4  C 0.20999999999998 265.6  5.31 270.7  11.51 270.7  Z " fill-rule="nonzero" fill="#ffffff" stroke="none" fill-opacity="0" transform="matrix(1 0 0 1 479 16579 )" />
    <path d="M 11.51 270.7  C 11.51 270.7  333.81 270.7  333.81 270.7  C 340.11 270.7  345.11 265.6  345.11 259.4  C 345.11 259.4  345.11 11.9  345.11 11.9  C 345.11 5.70000000000004  340.11 0.600000000000023  333.81 0.600000000000023  C 333.81 0.600000000000023  11.51 0.600000000000023  11.51 0.600000000000023  C 5.31 0.600000000000023  0.20999999999998 5.70000000000004  0.20999999999998 11.9  C 0.20999999999998 11.9  0.20999999999998 259.4  0.20999999999998 259.4  C 0.20999999999998 265.6  5.31 270.7  11.51 270.7  Z " stroke-width="2" stroke="#cad4cc" fill="none" transform="matrix(1 0 0 1 479 16579 )" mask="url(#clip961)" />
  </g>
</svg>