<?xml version="1.0" encoding="utf-8"?>
<svg version="1.1" xmlns:xlink="http://www.w3.org/1999/xlink" width="162px" height="91px" xmlns="http://www.w3.org/2000/svg">
  <defs>
    <mask fill="white" id="clip1302">
      <path d="M 148.05 43.73  C 148.05 43.73  161.95 57.03  161.95 57.03  C 145.55 77.33  120.35 90.43  92.15 90.43  C 43.55 90.43  1.94999999999999 49.63  0.550000000000011 1.43000000000001  C 0.550000000000011 1.43000000000001  18.55 0.829999999999984  18.55 0.829999999999984  C 19.65 39.53  53.25 72.43  92.15 72.43  C 114.75 72.43  134.85 60.03  148.05 43.73  Z " fill-rule="evenodd" />
    </mask>
  </defs>
  <g transform="matrix(1 0 0 1 -433 -19051 )">
    <path d="M 148.05 43.73  C 148.05 43.73  161.95 57.03  161.95 57.03  C 145.55 77.33  120.35 90.43  92.15 90.43  C 43.55 90.43  1.94999999999999 49.63  0.550000000000011 1.43000000000001  C 0.550000000000011 1.43000000000001  18.55 0.829999999999984  18.55 0.829999999999984  C 19.65 39.53  53.25 72.43  92.15 72.43  C 114.75 72.43  134.85 60.03  148.05 43.73  Z " fill-rule="nonzero" fill="#ebebeb" stroke="none" transform="matrix(1 0 0 1 433 19051 )" />
    <path d="M 148.05 43.73  C 148.05 43.73  161.95 57.03  161.95 57.03  C 145.55 77.33  120.35 90.43  92.15 90.43  C 43.55 90.43  1.94999999999999 49.63  0.550000000000011 1.43000000000001  C 0.550000000000011 1.43000000000001  18.55 0.829999999999984  18.55 0.829999999999984  C 19.65 39.53  53.25 72.43  92.15 72.43  C 114.75 72.43  134.85 60.03  148.05 43.73  Z " stroke-width="4" stroke="#ffffff" fill="none" transform="matrix(1 0 0 1 433 19051 )" mask="url(#clip1302)" />
  </g>
</svg>