<svg xmlns="http://www.w3.org/2000/svg" xmlns:xlink="http://www.w3.org/1999/xlink" width="39" height="30" version="1.1"><defs><mask id="clip2648" fill="#fff"><path fill-rule="evenodd" d="M 37.3566665 5.08333350000004 C 38.4566665 3.6833335 38.1566665 1.6833335 36.5566665 0.683333500000003 C 35.0566665 -0.316666499999997 32.8566665 -0.0166664999999853 31.7566665000001 1.38333350000005 C 31.7566665000001 1.38333350000005 15.3233335 21.7166665 15.3233335 21.7166665 C 15.3233335 21.7166665 6.52333350000004 13.1833335 6.52333350000004 13.1833335 C 5.1233335 11.9833335 3.02333350000004 11.8833335 1.6233335 13.0833335 C 0.223333500000024 14.2833335 0.123333500000001 16.6166665 1.42333350000001 17.8166665 C 1.42333350000001 17.8166665 12.2233335 28.0166665 13.7233335 29.0166665 C 15.3233335 30.0166665 17.4233335 29.7166665 18.5233335 28.3166665 C 18.5233335 28.3166665 37.3566665 5.08333350000004 37.3566665 5.08333350000004 Z"/></mask></defs><g><path fill="#1d953f" fill-rule="nonzero" stroke="none" d="M 37.3566665 5.08333350000004 C 38.4566665 3.6833335 38.1566665 1.6833335 36.5566665 0.683333500000003 C 35.0566665 -0.316666499999997 32.8566665 -0.0166664999999853 31.7566665000001 1.38333350000005 C 31.7566665000001 1.38333350000005 15.3233335 21.7166665 15.3233335 21.7166665 C 15.3233335 21.7166665 6.52333350000004 13.1833335 6.52333350000004 13.1833335 C 5.1233335 11.9833335 3.02333350000004 11.8833335 1.6233335 13.0833335 C 0.223333500000024 14.2833335 0.123333500000001 16.6166665 1.42333350000001 17.8166665 C 1.42333350000001 17.8166665 12.2233335 28.0166665 13.7233335 29.0166665 C 15.3233335 30.0166665 17.4233335 29.7166665 18.5233335 28.3166665 C 18.5233335 28.3166665 37.3566665 5.08333350000004 37.3566665 5.08333350000004 Z" transform="matrix(1 0 0 1 -545 -18356 ) matrix(1 0 0 1 545 18356 )"/><path fill="none" stroke="#1d953f" stroke-width=".667" d="M 37.3566665 5.08333350000004 C 38.4566665 3.6833335 38.1566665 1.6833335 36.5566665 0.683333500000003 C 35.0566665 -0.316666499999997 32.8566665 -0.0166664999999853 31.7566665000001 1.38333350000005 C 31.7566665000001 1.38333350000005 15.3233335 21.7166665 15.3233335 21.7166665 C 15.3233335 21.7166665 6.52333350000004 13.1833335 6.52333350000004 13.1833335 C 5.1233335 11.9833335 3.02333350000004 11.8833335 1.6233335 13.0833335 C 0.223333500000024 14.2833335 0.123333500000001 16.6166665 1.42333350000001 17.8166665 C 1.42333350000001 17.8166665 12.2233335 28.0166665 13.7233335 29.0166665 C 15.3233335 30.0166665 17.4233335 29.7166665 18.5233335 28.3166665 C 18.5233335 28.3166665 37.3566665 5.08333350000004 37.3566665 5.08333350000004 Z" mask="url(#clip2648)" transform="matrix(1 0 0 1 -545 -18356 ) matrix(1 0 0 1 545 18356 )"/></g></svg>