<?xml version="1.0" encoding="utf-8"?>
<svg version="1.1" xmlns:xlink="http://www.w3.org/1999/xlink" width="345px" height="15px" xmlns="http://www.w3.org/2000/svg">
  <defs>
    <mask fill="white" id="clip840">
      <path d="M 0.619999999999891 14.05  C 0.619999999999891 14.05  0.619999999999891 0.949999999999932  0.619999999999891 0.949999999999932  C 0.619999999999891 0.949999999999932  344.72 0.949999999999932  344.72 0.949999999999932  C 344.72 0.949999999999932  344.72 14.05  344.72 14.05  C 344.72 14.05  0.619999999999891 14.05  0.619999999999891 14.05  Z " fill-rule="evenodd" />
    </mask>
  </defs>
  <g transform="matrix(1 0 0 1 -748 -14793 )">
    <path d="M 0.619999999999891 14.05  C 0.619999999999891 14.05  0.619999999999891 0.949999999999932  0.619999999999891 0.949999999999932  C 0.619999999999891 0.949999999999932  344.72 0.949999999999932  344.72 0.949999999999932  C 344.72 0.949999999999932  344.72 14.05  344.72 14.05  C 344.72 14.05  0.619999999999891 14.05  0.619999999999891 14.05  Z " fill-rule="nonzero" fill="#ffffff" stroke="none" fill-opacity="0" transform="matrix(1 0 0 1 748 14793 )" />
    <path d="M 0.619999999999891 14.05  C 0.619999999999891 14.05  0.619999999999891 0.949999999999932  0.619999999999891 0.949999999999932  C 0.619999999999891 0.949999999999932  344.72 0.949999999999932  344.72 0.949999999999932  C 344.72 0.949999999999932  344.72 14.05  344.72 14.05  C 344.72 14.05  0.619999999999891 14.05  0.619999999999891 14.05  Z " stroke-width="2" stroke="#787878" fill="none" transform="matrix(1 0 0 1 748 14793 )" mask="url(#clip840)" />
  </g>
</svg>