<svg xmlns="http://www.w3.org/2000/svg" xmlns:xlink="http://www.w3.org/1999/xlink" width="8" height="14" version="1.1"><defs><mask id="clip2349" fill="#fff"><path fill-rule="evenodd" d="M 0.659999999999968 8.49000000000001 C 0.659999999999968 8.49000000000001 0.659999999999968 0.190000000000055 0.659999999999968 0.190000000000055 C 0.659999999999968 0.190000000000055 7.36000000000001 0.190000000000055 7.36000000000001 0.190000000000055 C 7.36000000000001 0.190000000000055 7.36000000000001 8.49000000000001 7.36000000000001 8.49000000000001 C 7.36000000000001 8.49000000000001 3.45999999999992 13.2900000000001 3.45999999999992 13.2900000000001 C 3.45999999999992 13.2900000000001 0.659999999999968 8.49000000000001 0.659999999999968 8.49000000000001 Z"/></mask></defs><g><path fill="#d2691e" fill-rule="nonzero" stroke="none" d="M 0.659999999999968 8.49000000000001 C 0.659999999999968 8.49000000000001 0.659999999999968 0.190000000000055 0.659999999999968 0.190000000000055 C 0.659999999999968 0.190000000000055 7.36000000000001 0.190000000000055 7.36000000000001 0.190000000000055 C 7.36000000000001 0.190000000000055 7.36000000000001 8.49000000000001 7.36000000000001 8.49000000000001 C 7.36000000000001 8.49000000000001 3.45999999999992 13.2900000000001 3.45999999999992 13.2900000000001 C 3.45999999999992 13.2900000000001 0.659999999999968 8.49000000000001 0.659999999999968 8.49000000000001 Z" transform="matrix(1 0 0 1 -761 -14958 ) matrix(1 0 0 1 761 14958 )"/><path fill="none" stroke="brown" stroke-width="2" d="M 0.659999999999968 8.49000000000001 C 0.659999999999968 8.49000000000001 0.659999999999968 0.190000000000055 0.659999999999968 0.190000000000055 C 0.659999999999968 0.190000000000055 7.36000000000001 0.190000000000055 7.36000000000001 0.190000000000055 C 7.36000000000001 0.190000000000055 7.36000000000001 8.49000000000001 7.36000000000001 8.49000000000001 C 7.36000000000001 8.49000000000001 3.45999999999992 13.2900000000001 3.45999999999992 13.2900000000001 C 3.45999999999992 13.2900000000001 0.659999999999968 8.49000000000001 0.659999999999968 8.49000000000001 Z" mask="url(#clip2349)" transform="matrix(1 0 0 1 -761 -14958 ) matrix(1 0 0 1 761 14958 )"/></g></svg>