<svg xmlns="http://www.w3.org/2000/svg" xmlns:xlink="http://www.w3.org/1999/xlink" width="188" height="188" version="1.1"><defs><radialGradient id="RadialGradient2488" cx="1.1" cy=".95" r="263" gradientTransform="matrix(1 0 0 1 4.44089209850063E-16 0 )" gradientUnits="userSpaceOnUse"><stop id="Stop2489" offset="0" stop-color="#fffbf3"/><stop id="Stop2490" offset="1" stop-color="#fffaf0"/></radialGradient><mask id="clip2491" fill="#fff"><path fill-rule="evenodd" d="M 0.599999999999994 187.45 C 0.599999999999994 187.45 0.599999999999994 0.450000000000045 0.599999999999994 0.450000000000045 C 0.599999999999994 0.450000000000045 187.6 0.450000000000045 187.6 0.450000000000045 C 187.6 0.450000000000045 187.6 187.45 187.6 187.45 C 187.6 187.45 0.599999999999994 187.45 0.599999999999994 187.45 Z"/></mask></defs><g><path fill="url(#RadialGradient2488)" fill-rule="nonzero" stroke="none" d="M 0.599999999999994 187.45 C 0.599999999999994 187.45 0.599999999999994 0.450000000000045 0.599999999999994 0.450000000000045 C 0.599999999999994 0.450000000000045 187.6 0.450000000000045 187.6 0.450000000000045 C 187.6 0.450000000000045 187.6 187.45 187.6 187.45 C 187.6 187.45 0.599999999999994 187.45 0.599999999999994 187.45 Z" transform="matrix(1 0 0 1 -148 -17474 ) matrix(1 0 0 1 148 17474 )"/><path fill="none" stroke="#969696" stroke-width="2" d="M 0.599999999999994 187.45 C 0.599999999999994 187.45 0.599999999999994 0.450000000000045 0.599999999999994 0.450000000000045 C 0.599999999999994 0.450000000000045 187.6 0.450000000000045 187.6 0.450000000000045 C 187.6 0.450000000000045 187.6 187.45 187.6 187.45 C 187.6 187.45 0.599999999999994 187.45 0.599999999999994 187.45 Z" mask="url(#clip2491)" transform="matrix(1 0 0 1 -148 -17474 ) matrix(1 0 0 1 148 17474 )"/></g></svg>