<svg xmlns="http://www.w3.org/2000/svg" xmlns:xlink="http://www.w3.org/1999/xlink" width="23" height="25" version="1.1"><defs><mask id="clip2290" fill="#fff"><path fill-rule="evenodd" d="M 0.220000000000027 24.61 C 0.220000000000027 24.61 0.220000000000027 0.910000000000025 0.220000000000027 0.910000000000025 C 0.220000000000027 0.910000000000025 22.52 0.910000000000025 22.52 0.910000000000025 C 22.52 0.910000000000025 22.52 24.61 22.52 24.61 C 22.52 24.61 0.220000000000027 24.61 0.220000000000027 24.61 Z"/></mask></defs><g><path fill="#924916" fill-rule="nonzero" stroke="none" d="M 0.220000000000027 24.61 C 0.220000000000027 24.61 0.220000000000027 0.910000000000025 0.220000000000027 0.910000000000025 C 0.220000000000027 0.910000000000025 22.52 0.910000000000025 22.52 0.910000000000025 C 22.52 0.910000000000025 22.52 24.61 22.52 24.61 C 22.52 24.61 0.220000000000027 24.61 0.220000000000027 24.61 Z" transform="matrix(1 0 0 1 -571 -14499 ) matrix(1 0 0 1 571 14499 )"/><path fill="none" stroke="#924916" stroke-width="2" d="M 0.220000000000027 24.61 C 0.220000000000027 24.61 0.220000000000027 0.910000000000025 0.220000000000027 0.910000000000025 C 0.220000000000027 0.910000000000025 22.52 0.910000000000025 22.52 0.910000000000025 C 22.52 0.910000000000025 22.52 24.61 22.52 24.61 C 22.52 24.61 0.220000000000027 24.61 0.220000000000027 24.61 Z" mask="url(#clip2290)" transform="matrix(1 0 0 1 -571 -14499 ) matrix(1 0 0 1 571 14499 )"/></g></svg>