<svg xmlns="http://www.w3.org/2000/svg" xmlns:xlink="http://www.w3.org/1999/xlink" width="4" height="3" version="1.1"><defs><mask id="clip1831" fill="#fff"><path fill-rule="evenodd" d="M 2.44 0.490000000000009 C 2.84000000000003 0.490000000000009 3.13999999999999 1.79000000000002 3.13999999999999 2.19 C 3.13999999999999 2.59000000000003 2.84000000000003 2.88999999999999 2.44 2.88999999999999 C 2.04000000000002 2.88999999999999 0.740000000000009 2.59000000000003 0.740000000000009 2.19 C 0.740000000000009 1.79000000000002 2.04000000000002 0.490000000000009 2.44 0.490000000000009 Z"/></mask></defs><g><path fill="#fff" fill-rule="nonzero" stroke="none" d="M 2.44 0.490000000000009 C 2.84000000000003 0.490000000000009 3.13999999999999 1.79000000000002 3.13999999999999 2.19 C 3.13999999999999 2.59000000000003 2.84000000000003 2.88999999999999 2.44 2.88999999999999 C 2.04000000000002 2.88999999999999 0.740000000000009 2.59000000000003 0.740000000000009 2.19 C 0.740000000000009 1.79000000000002 2.04000000000002 0.490000000000009 2.44 0.490000000000009 Z" transform="matrix(1 0 0 1 -411 -7202 ) matrix(1 0 0 1 411 7202 )"/><path fill="none" stroke="#fff" stroke-width="2" d="M 2.44 0.490000000000009 C 2.84000000000003 0.490000000000009 3.13999999999999 1.79000000000002 3.13999999999999 2.19 C 3.13999999999999 2.59000000000003 2.84000000000003 2.88999999999999 2.44 2.88999999999999 C 2.04000000000002 2.88999999999999 0.740000000000009 2.59000000000003 0.740000000000009 2.19 C 0.740000000000009 1.79000000000002 2.04000000000002 0.490000000000009 2.44 0.490000000000009 Z" mask="url(#clip1831)" transform="matrix(1 0 0 1 -411 -7202 ) matrix(1 0 0 1 411 7202 )"/></g></svg>