<?xml version="1.0" encoding="utf-8"?>
<svg version="1.1" xmlns:xlink="http://www.w3.org/1999/xlink" width="56px" height="60px" xmlns="http://www.w3.org/2000/svg">
  <defs>
    <mask fill="white" id="clip2111">
      <path d="M 20.4400000000001 59.6999999999999  C 20.4400000000001 59.6999999999999  36.34 59.6999999999999  36.34 59.6999999999999  C 47.14 59.6999999999999  55.9400000000001 50.9  55.9400000000001 40.1  C 55.9400000000001 40.1  55.9400000000001 20.6  55.9400000000001 20.6  C 55.9400000000001 9.69999999999993  47.14 0.899999999999977  36.34 0.899999999999977  C 36.34 0.899999999999977  20.4400000000001 0.899999999999977  20.4400000000001 0.899999999999977  C 9.53999999999996 0.899999999999977  0.740000000000009 9.69999999999993  0.740000000000009 20.6  C 0.740000000000009 20.6  0.740000000000009 40.1  0.740000000000009 40.1  C 0.740000000000009 50.9  9.53999999999996 59.6999999999999  20.4400000000001 59.6999999999999  Z " fill-rule="evenodd" />
    </mask>
  </defs>
  <g transform="matrix(1 0 0 1 -1022 -13176 )">
    <path d="M 20.4400000000001 59.6999999999999  C 20.4400000000001 59.6999999999999  36.34 59.6999999999999  36.34 59.6999999999999  C 47.14 59.6999999999999  55.9400000000001 50.9  55.9400000000001 40.1  C 55.9400000000001 40.1  55.9400000000001 20.6  55.9400000000001 20.6  C 55.9400000000001 9.69999999999993  47.14 0.899999999999977  36.34 0.899999999999977  C 36.34 0.899999999999977  20.4400000000001 0.899999999999977  20.4400000000001 0.899999999999977  C 9.53999999999996 0.899999999999977  0.740000000000009 9.69999999999993  0.740000000000009 20.6  C 0.740000000000009 20.6  0.740000000000009 40.1  0.740000000000009 40.1  C 0.740000000000009 50.9  9.53999999999996 59.6999999999999  20.4400000000001 59.6999999999999  Z " fill-rule="nonzero" fill="#cdcece" stroke="none" fill-opacity="0.0784313725490196" transform="matrix(1 0 0 1 1022 13176 )" />
    <path d="M 20.4400000000001 59.6999999999999  C 20.4400000000001 59.6999999999999  36.34 59.6999999999999  36.34 59.6999999999999  C 47.14 59.6999999999999  55.9400000000001 50.9  55.9400000000001 40.1  C 55.9400000000001 40.1  55.9400000000001 20.6  55.9400000000001 20.6  C 55.9400000000001 9.69999999999993  47.14 0.899999999999977  36.34 0.899999999999977  C 36.34 0.899999999999977  20.4400000000001 0.899999999999977  20.4400000000001 0.899999999999977  C 9.53999999999996 0.899999999999977  0.740000000000009 9.69999999999993  0.740000000000009 20.6  C 0.740000000000009 20.6  0.740000000000009 40.1  0.740000000000009 40.1  C 0.740000000000009 50.9  9.53999999999996 59.6999999999999  20.4400000000001 59.6999999999999  Z " stroke-width="2" stroke="#cdcece" fill="none" stroke-opacity="0.0588235294117647" transform="matrix(1 0 0 1 1022 13176 )" mask="url(#clip2111)" />
  </g>
</svg>