<svg xmlns="http://www.w3.org/2000/svg" xmlns:xlink="http://www.w3.org/1999/xlink" width="76" height="76" version="1.1"><defs><mask id="clip1762" fill="#fff"><path fill-rule="evenodd" d="M 38.4699999999999 75.68 C 17.87 75.68 0.169999999999959 58.98 0.169999999999959 38.38 C 0.169999999999959 17.78 17.87 0.0799999999999983 38.4699999999999 0.0799999999999983 C 59.0699999999999 0.0799999999999983 75.77 17.78 75.77 38.38 C 75.77 58.98 59.0699999999999 75.68 38.4699999999999 75.68 Z"/></mask></defs><g><path fill="#8bc0d3" fill-rule="nonzero" stroke="none" d="M 38.4699999999999 75.68 C 17.87 75.68 0.169999999999959 58.98 0.169999999999959 38.38 C 0.169999999999959 17.78 17.87 0.0799999999999983 38.4699999999999 0.0799999999999983 C 59.0699999999999 0.0799999999999983 75.77 17.78 75.77 38.38 C 75.77 58.98 59.0699999999999 75.68 38.4699999999999 75.68 Z" transform="matrix(1 0 0 1 -838 -4950 ) matrix(1 0 0 1 838 4950 )"/><path fill="none" stroke="#8bc0d3" stroke-width="2" d="M 38.4699999999999 75.68 C 17.87 75.68 0.169999999999959 58.98 0.169999999999959 38.38 C 0.169999999999959 17.78 17.87 0.0799999999999983 38.4699999999999 0.0799999999999983 C 59.0699999999999 0.0799999999999983 75.77 17.78 75.77 38.38 C 75.77 58.98 59.0699999999999 75.68 38.4699999999999 75.68 Z" mask="url(#clip1762)" transform="matrix(1 0 0 1 -838 -4950 ) matrix(1 0 0 1 838 4950 )"/></g></svg>