<svg xmlns="http://www.w3.org/2000/svg" xmlns:xlink="http://www.w3.org/1999/xlink" width="4" height="4" version="1.1"><defs><mask id="clip1837" fill="#fff"><path fill-rule="evenodd" d="M 2.36999999999995 0.960000000000036 C 2.76999999999998 0.960000000000036 3.06999999999994 2.26000000000005 3.06999999999994 2.66000000000003 C 3.06999999999994 3.06000000000006 2.76999999999998 3.36000000000001 2.36999999999995 3.36000000000001 C 1.96999999999997 3.36000000000001 0.669999999999959 3.06000000000006 0.669999999999959 2.66000000000003 C 0.669999999999959 2.26000000000005 1.96999999999997 0.960000000000036 2.36999999999995 0.960000000000036 Z"/></mask></defs><g><path fill="#fff" fill-rule="nonzero" stroke="none" d="M 2.36999999999995 0.960000000000036 C 2.76999999999998 0.960000000000036 3.06999999999994 2.26000000000005 3.06999999999994 2.66000000000003 C 3.06999999999994 3.06000000000006 2.76999999999998 3.36000000000001 2.36999999999995 3.36000000000001 C 1.96999999999997 3.36000000000001 0.669999999999959 3.06000000000006 0.669999999999959 2.66000000000003 C 0.669999999999959 2.26000000000005 1.96999999999997 0.960000000000036 2.36999999999995 0.960000000000036 Z" transform="matrix(1 0 0 1 -424 -7209 ) matrix(1 0 0 1 424 7209 )"/><path fill="none" stroke="#fff" stroke-width="2" d="M 2.36999999999995 0.960000000000036 C 2.76999999999998 0.960000000000036 3.06999999999994 2.26000000000005 3.06999999999994 2.66000000000003 C 3.06999999999994 3.06000000000006 2.76999999999998 3.36000000000001 2.36999999999995 3.36000000000001 C 1.96999999999997 3.36000000000001 0.669999999999959 3.06000000000006 0.669999999999959 2.66000000000003 C 0.669999999999959 2.26000000000005 1.96999999999997 0.960000000000036 2.36999999999995 0.960000000000036 Z" mask="url(#clip1837)" transform="matrix(1 0 0 1 -424 -7209 ) matrix(1 0 0 1 424 7209 )"/></g></svg>