<?xml version="1.0" encoding="utf-8"?>
<svg version="1.1" xmlns:xlink="http://www.w3.org/1999/xlink" width="19px" height="19px" xmlns="http://www.w3.org/2000/svg">
  <defs>
    <mask fill="white" id="clip351">
      <path d="M 10.23 18.72  C 5.63000000000005 18.72  0.830000000000041 15.02  0.830000000000041 10.32  C 0.830000000000041 5.72000000000003  5.63000000000005 0.920000000000016  10.23 0.920000000000016  C 14.83 0.920000000000016  18.6300000000001 5.72000000000003  18.6300000000001 10.32  C 18.6300000000001 15.02  14.83 18.72  10.23 18.72  Z " fill-rule="evenodd" />
    </mask>
  </defs>
  <g transform="matrix(1 0 0 1 -363 -7088 )">
    <path d="M 10.23 18.72  C 5.63000000000005 18.72  0.830000000000041 15.02  0.830000000000041 10.32  C 0.830000000000041 5.72000000000003  5.63000000000005 0.920000000000016  10.23 0.920000000000016  C 14.83 0.920000000000016  18.6300000000001 5.72000000000003  18.6300000000001 10.32  C 18.6300000000001 15.02  14.83 18.72  10.23 18.72  Z " fill-rule="nonzero" fill="#595757" stroke="none" transform="matrix(1 0 0 1 363 7088 )" />
    <path d="M 10.23 18.72  C 5.63000000000005 18.72  0.830000000000041 15.02  0.830000000000041 10.32  C 0.830000000000041 5.72000000000003  5.63000000000005 0.920000000000016  10.23 0.920000000000016  C 14.83 0.920000000000016  18.6300000000001 5.72000000000003  18.6300000000001 10.32  C 18.6300000000001 15.02  14.83 18.72  10.23 18.72  Z " stroke-width="2" stroke="#595757" fill="none" transform="matrix(1 0 0 1 363 7088 )" mask="url(#clip351)" />
  </g>
</svg>