<?xml version="1.0" encoding="utf-8"?>
<svg version="1.1" xmlns:xlink="http://www.w3.org/1999/xlink" width="40px" height="40px" xmlns="http://www.w3.org/2000/svg">
  <defs>
    <mask fill="white" id="clip286">
      <path d="M 13.72 14.16  C 15.22 12.66  18.22 11.76  20.42 11.76  C 22.62 11.76  24.62 12.66  26.12 14.16  C 27.72 15.76  28.52 17.76  28.52 19.96  C 28.52 21.46  28.22 23.76  27.42 25.06  C 26.72 26.26  25.72 27.26  24.52 27.96  C 24.52 27.96  23.12 28.76  23.12 28.76  C 23.12 28.76  23.12 30.36  23.12 30.36  C 23.12 30.36  23.12 36.36  23.12 36.36  C 23.12 36.36  16.72 36.36  16.72 36.36  C 16.72 36.36  16.72 30.36  16.72 30.36  C 16.72 30.36  16.72 28.76  16.72 28.76  C 16.72 28.76  15.32 27.96  15.32 27.96  C 12.82 26.56  11.32 22.76  11.32 19.96  C 11.32 17.76  12.12 15.76  13.72 14.16  Z M 22.22 6.45999999999998  C 22.22 6.45999999999998  22.22 0.0600000000000023  22.22 0.0600000000000023  C 21.72 0.0600000000000023  17.62 0.0600000000000023  17.62 0.0600000000000023  C 17.62 0.0600000000000023  17.62 6.45999999999998  17.62 6.45999999999998  C 17.62 6.45999999999998  22.22 6.45999999999998  22.22 6.45999999999998  Z M 35.72 7.16000000000003  C 35.72 7.16000000000003  33.22 4.66000000000003  33.22 4.66000000000003  C 33.22 4.66000000000003  28.92 8.86000000000001  28.92 8.86000000000001  C 28.92 8.86000000000001  31.42 11.46  31.42 11.46  C 31.42 11.46  35.72 7.16000000000003  35.72 7.16000000000003  Z M 10.92 8.86000000000001  C 10.92 8.86000000000001  6.62 4.66000000000003  6.62 4.66000000000003  C 6.62 4.66000000000003  4.12 7.16000000000003  4.12 7.16000000000003  C 4.12 7.16000000000003  8.42 11.46  8.42 11.46  C 8.42 11.46  10.92 8.86000000000001  10.92 8.86000000000001  Z M 31.32 19.96  C 31.32 13.96  26.42 9.06  20.42 9.06  C 14.42 9.06  8.52 13.96  8.52 19.96  C 8.52 23.86  10.72 28.46  14.02 30.36  C 14.02 30.36  14.02 39.06  14.02 39.06  C 14.02 39.06  25.82 39.06  25.82 39.06  C 25.82 39.06  25.82 30.36  25.82 30.36  C 29.12 28.46  31.32 23.96  31.32 19.96  Z M 39.42 22.76  C 39.42 22.76  39.42 18.16  39.42 18.16  C 39.42 18.16  33.02 18.16  33.02 18.16  C 33.02 18.16  33.02 22.76  33.02 22.76  C 33.02 22.76  39.42 22.76  39.42 22.76  Z M 6.82000000000001 22.76  C 6.82000000000001 22.76  6.82000000000001 18.16  6.82000000000001 18.16  C 6.82000000000001 18.16  0.420000000000002 18.16  0.420000000000002 18.16  C 0.420000000000002 18.16  0.420000000000002 22.76  0.420000000000002 22.76  C 0.420000000000002 22.76  6.82000000000001 22.76  6.82000000000001 22.76  Z " fill-rule="evenodd" />
    </mask>
  </defs>
  <g transform="matrix(1 0 0 1 -189 -7077 )">
    <path d="M 13.72 14.16  C 15.22 12.66  18.22 11.76  20.42 11.76  C 22.62 11.76  24.62 12.66  26.12 14.16  C 27.72 15.76  28.52 17.76  28.52 19.96  C 28.52 21.46  28.22 23.76  27.42 25.06  C 26.72 26.26  25.72 27.26  24.52 27.96  C 24.52 27.96  23.12 28.76  23.12 28.76  C 23.12 28.76  23.12 30.36  23.12 30.36  C 23.12 30.36  23.12 36.36  23.12 36.36  C 23.12 36.36  16.72 36.36  16.72 36.36  C 16.72 36.36  16.72 30.36  16.72 30.36  C 16.72 30.36  16.72 28.76  16.72 28.76  C 16.72 28.76  15.32 27.96  15.32 27.96  C 12.82 26.56  11.32 22.76  11.32 19.96  C 11.32 17.76  12.12 15.76  13.72 14.16  Z M 22.22 6.45999999999998  C 22.22 6.45999999999998  22.22 0.0600000000000023  22.22 0.0600000000000023  C 21.72 0.0600000000000023  17.62 0.0600000000000023  17.62 0.0600000000000023  C 17.62 0.0600000000000023  17.62 6.45999999999998  17.62 6.45999999999998  C 17.62 6.45999999999998  22.22 6.45999999999998  22.22 6.45999999999998  Z M 35.72 7.16000000000003  C 35.72 7.16000000000003  33.22 4.66000000000003  33.22 4.66000000000003  C 33.22 4.66000000000003  28.92 8.86000000000001  28.92 8.86000000000001  C 28.92 8.86000000000001  31.42 11.46  31.42 11.46  C 31.42 11.46  35.72 7.16000000000003  35.72 7.16000000000003  Z M 10.92 8.86000000000001  C 10.92 8.86000000000001  6.62 4.66000000000003  6.62 4.66000000000003  C 6.62 4.66000000000003  4.12 7.16000000000003  4.12 7.16000000000003  C 4.12 7.16000000000003  8.42 11.46  8.42 11.46  C 8.42 11.46  10.92 8.86000000000001  10.92 8.86000000000001  Z M 31.32 19.96  C 31.32 13.96  26.42 9.06  20.42 9.06  C 14.42 9.06  8.52 13.96  8.52 19.96  C 8.52 23.86  10.72 28.46  14.02 30.36  C 14.02 30.36  14.02 39.06  14.02 39.06  C 14.02 39.06  25.82 39.06  25.82 39.06  C 25.82 39.06  25.82 30.36  25.82 30.36  C 29.12 28.46  31.32 23.96  31.32 19.96  Z M 39.42 22.76  C 39.42 22.76  39.42 18.16  39.42 18.16  C 39.42 18.16  33.02 18.16  33.02 18.16  C 33.02 18.16  33.02 22.76  33.02 22.76  C 33.02 22.76  39.42 22.76  39.42 22.76  Z M 6.82000000000001 22.76  C 6.82000000000001 22.76  6.82000000000001 18.16  6.82000000000001 18.16  C 6.82000000000001 18.16  0.420000000000002 18.16  0.420000000000002 18.16  C 0.420000000000002 18.16  0.420000000000002 22.76  0.420000000000002 22.76  C 0.420000000000002 22.76  6.82000000000001 22.76  6.82000000000001 22.76  Z " fill-rule="nonzero" fill="#ffffff" stroke="none" transform="matrix(1 0 0 1 189 7077 )" />
    <path d="M 13.72 14.16  C 15.22 12.66  18.22 11.76  20.42 11.76  C 22.62 11.76  24.62 12.66  26.12 14.16  C 27.72 15.76  28.52 17.76  28.52 19.96  C 28.52 21.46  28.22 23.76  27.42 25.06  C 26.72 26.26  25.72 27.26  24.52 27.96  C 24.52 27.96  23.12 28.76  23.12 28.76  C 23.12 28.76  23.12 30.36  23.12 30.36  C 23.12 30.36  23.12 36.36  23.12 36.36  C 23.12 36.36  16.72 36.36  16.72 36.36  C 16.72 36.36  16.72 30.36  16.72 30.36  C 16.72 30.36  16.72 28.76  16.72 28.76  C 16.72 28.76  15.32 27.96  15.32 27.96  C 12.82 26.56  11.32 22.76  11.32 19.96  C 11.32 17.76  12.12 15.76  13.72 14.16  Z " stroke-width="2" stroke="#ffffff" fill="none" transform="matrix(1 0 0 1 189 7077 )" mask="url(#clip286)" />
    <path d="M 22.22 6.45999999999998  C 22.22 6.45999999999998  22.22 0.0600000000000023  22.22 0.0600000000000023  C 21.72 0.0600000000000023  17.62 0.0600000000000023  17.62 0.0600000000000023  C 17.62 0.0600000000000023  17.62 6.45999999999998  17.62 6.45999999999998  C 17.62 6.45999999999998  22.22 6.45999999999998  22.22 6.45999999999998  Z " stroke-width="2" stroke="#ffffff" fill="none" transform="matrix(1 0 0 1 189 7077 )" mask="url(#clip286)" />
    <path d="M 35.72 7.16000000000003  C 35.72 7.16000000000003  33.22 4.66000000000003  33.22 4.66000000000003  C 33.22 4.66000000000003  28.92 8.86000000000001  28.92 8.86000000000001  C 28.92 8.86000000000001  31.42 11.46  31.42 11.46  C 31.42 11.46  35.72 7.16000000000003  35.72 7.16000000000003  Z " stroke-width="2" stroke="#ffffff" fill="none" transform="matrix(1 0 0 1 189 7077 )" mask="url(#clip286)" />
    <path d="M 10.92 8.86000000000001  C 10.92 8.86000000000001  6.62 4.66000000000003  6.62 4.66000000000003  C 6.62 4.66000000000003  4.12 7.16000000000003  4.12 7.16000000000003  C 4.12 7.16000000000003  8.42 11.46  8.42 11.46  C 8.42 11.46  10.92 8.86000000000001  10.92 8.86000000000001  Z " stroke-width="2" stroke="#ffffff" fill="none" transform="matrix(1 0 0 1 189 7077 )" mask="url(#clip286)" />
    <path d="M 31.32 19.96  C 31.32 13.96  26.42 9.06  20.42 9.06  C 14.42 9.06  8.52 13.96  8.52 19.96  C 8.52 23.86  10.72 28.46  14.02 30.36  C 14.02 30.36  14.02 39.06  14.02 39.06  C 14.02 39.06  25.82 39.06  25.82 39.06  C 25.82 39.06  25.82 30.36  25.82 30.36  C 29.12 28.46  31.32 23.96  31.32 19.96  Z " stroke-width="2" stroke="#ffffff" fill="none" transform="matrix(1 0 0 1 189 7077 )" mask="url(#clip286)" />
    <path d="M 39.42 22.76  C 39.42 22.76  39.42 18.16  39.42 18.16  C 39.42 18.16  33.02 18.16  33.02 18.16  C 33.02 18.16  33.02 22.76  33.02 22.76  C 33.02 22.76  39.42 22.76  39.42 22.76  Z " stroke-width="2" stroke="#ffffff" fill="none" transform="matrix(1 0 0 1 189 7077 )" mask="url(#clip286)" />
    <path d="M 6.82000000000001 22.76  C 6.82000000000001 22.76  6.82000000000001 18.16  6.82000000000001 18.16  C 6.82000000000001 18.16  0.420000000000002 18.16  0.420000000000002 18.16  C 0.420000000000002 18.16  0.420000000000002 22.76  0.420000000000002 22.76  C 0.420000000000002 22.76  6.82000000000001 22.76  6.82000000000001 22.76  Z " stroke-width="2" stroke="#ffffff" fill="none" transform="matrix(1 0 0 1 189 7077 )" mask="url(#clip286)" />
  </g>
</svg>