<svg xmlns="http://www.w3.org/2000/svg" xmlns:xlink="http://www.w3.org/1999/xlink" width="65" height="109" version="1.1"><defs><mask id="clip2615" fill="#fff"><path fill-rule="evenodd" d="M 0.779999999999973 7.16 C 0.779999999999973 7.16 1.77999999999997 0.0599999999999739 1.77999999999997 0.0599999999999739 C 36.88 4.95999999999998 64.78 36.06 64.78 72.46 C 64.78 85.56 61.28 97.86 55.18 108.46 C 55.18 108.46 48.98 104.86 48.98 104.86 C 54.48 95.36 57.58 84.26 57.58 72.46 C 57.58 39.66 32.38 11.56 0.779999999999973 7.16 Z"/></mask></defs><g><path fill="#f14100" fill-rule="nonzero" stroke="none" d="M 0.779999999999973 7.16 C 0.779999999999973 7.16 1.77999999999997 0.0599999999999739 1.77999999999997 0.0599999999999739 C 36.88 4.95999999999998 64.78 36.06 64.78 72.46 C 64.78 85.56 61.28 97.86 55.18 108.46 C 55.18 108.46 48.98 104.86 48.98 104.86 C 54.48 95.36 57.58 84.26 57.58 72.46 C 57.58 39.66 32.38 11.56 0.779999999999973 7.16 Z" transform="matrix(1 0 0 1 -443 -17168 ) matrix(1 0 0 1 443 17168 )"/><path fill="none" stroke="#f14100" stroke-width="2" d="M 0.779999999999973 7.16 C 0.779999999999973 7.16 1.77999999999997 0.0599999999999739 1.77999999999997 0.0599999999999739 C 36.88 4.95999999999998 64.78 36.06 64.78 72.46 C 64.78 85.56 61.28 97.86 55.18 108.46 C 55.18 108.46 48.98 104.86 48.98 104.86 C 54.48 95.36 57.58 84.26 57.58 72.46 C 57.58 39.66 32.38 11.56 0.779999999999973 7.16 Z" mask="url(#clip2615)" transform="matrix(1 0 0 1 -443 -17168 ) matrix(1 0 0 1 443 17168 )"/></g></svg>