<?xml version="1.0" encoding="utf-8"?>
<svg version="1.1" xmlns:xlink="http://www.w3.org/1999/xlink" width="175px" height="102px" xmlns="http://www.w3.org/2000/svg">
  <defs>
    <mask fill="white" id="clip455">
      <path d="M 22 68.72  C 22 68.72  0.600000000000009 51.72  0.600000000000009 51.72  C 30 20.82  72.4 0.52000000000001  118.4 0.52000000000001  C 138.3 0.52000000000001  157.3 4.12  174.8 10.72  C 174.8 10.72  146.8 86.72  146.8 86.72  C 138 83.32  128.4 81.52  118.4 81.52  C 97.8 81.52  78 89.22  63.7 101.92  C 63.7 101.92  42.2 84.82  42.2 84.82  C 42.2 84.82  42 67.92  42 67.92  C 42 67.92  22 68.72  22 68.72  Z " fill-rule="evenodd" />
    </mask>
  </defs>
  <g transform="matrix(1 0 0 1 -211 -6975 )">
    <path d="M 22 68.72  C 22 68.72  0.600000000000009 51.72  0.600000000000009 51.72  C 30 20.82  72.4 0.52000000000001  118.4 0.52000000000001  C 138.3 0.52000000000001  157.3 4.12  174.8 10.72  C 174.8 10.72  146.8 86.72  146.8 86.72  C 138 83.32  128.4 81.52  118.4 81.52  C 97.8 81.52  78 89.22  63.7 101.92  C 63.7 101.92  42.2 84.82  42.2 84.82  C 42.2 84.82  42 67.92  42 67.92  C 42 67.92  22 68.72  22 68.72  Z " fill-rule="nonzero" fill="#ffcd55" stroke="none" transform="matrix(1 0 0 1 211 6975 )" />
    <path d="M 22 68.72  C 22 68.72  0.600000000000009 51.72  0.600000000000009 51.72  C 30 20.82  72.4 0.52000000000001  118.4 0.52000000000001  C 138.3 0.52000000000001  157.3 4.12  174.8 10.72  C 174.8 10.72  146.8 86.72  146.8 86.72  C 138 83.32  128.4 81.52  118.4 81.52  C 97.8 81.52  78 89.22  63.7 101.92  C 63.7 101.92  42.2 84.82  42.2 84.82  C 42.2 84.82  42 67.92  42 67.92  C 42 67.92  22 68.72  22 68.72  Z " stroke-width="2" stroke="#ffcd55" fill="none" transform="matrix(1 0 0 1 211 6975 )" mask="url(#clip455)" />
  </g>
</svg>