<svg xmlns="http://www.w3.org/2000/svg" xmlns:xlink="http://www.w3.org/1999/xlink" width="26" height="25" version="1.1"><defs><mask id="clip1801" fill="#fff"><path fill-rule="evenodd" d="M 0.670000000000002 1.91999999999996 C 0.670000000000002 0.819999999999936 1.47 0.0199999999999818 2.57000000000001 0.0199999999999818 C 2.57000000000001 0.0199999999999818 23.27 0.0199999999999818 23.27 0.0199999999999818 C 24.27 0.0199999999999818 25.17 0.819999999999936 25.17 1.91999999999996 C 25.17 1.91999999999996 25.17 22.62 25.17 22.62 C 25.17 23.62 24.27 24.52 23.27 24.52 C 23.27 24.52 2.57000000000001 24.52 2.57000000000001 24.52 C 1.47 24.52 0.670000000000002 23.62 0.670000000000002 22.62 C 0.670000000000002 22.62 0.670000000000002 1.91999999999996 0.670000000000002 1.91999999999996 Z"/></mask></defs><g><path fill="#ffaf00" fill-rule="nonzero" stroke="none" d="M 0.670000000000002 1.91999999999996 C 0.670000000000002 0.819999999999936 1.47 0.0199999999999818 2.57000000000001 0.0199999999999818 C 2.57000000000001 0.0199999999999818 23.27 0.0199999999999818 23.27 0.0199999999999818 C 24.27 0.0199999999999818 25.17 0.819999999999936 25.17 1.91999999999996 C 25.17 1.91999999999996 25.17 22.62 25.17 22.62 C 25.17 23.62 24.27 24.52 23.27 24.52 C 23.27 24.52 2.57000000000001 24.52 2.57000000000001 24.52 C 1.47 24.52 0.670000000000002 23.62 0.670000000000002 22.62 C 0.670000000000002 22.62 0.670000000000002 1.91999999999996 0.670000000000002 1.91999999999996 Z" transform="matrix(1 0 0 1 -189 -6510 ) matrix(1 0 0 1 189 6510 )"/><path fill="none" stroke="#ffaf00" stroke-width="2" d="M 0.670000000000002 1.91999999999996 C 0.670000000000002 0.819999999999936 1.47 0.0199999999999818 2.57000000000001 0.0199999999999818 C 2.57000000000001 0.0199999999999818 23.27 0.0199999999999818 23.27 0.0199999999999818 C 24.27 0.0199999999999818 25.17 0.819999999999936 25.17 1.91999999999996 C 25.17 1.91999999999996 25.17 22.62 25.17 22.62 C 25.17 23.62 24.27 24.52 23.27 24.52 C 23.27 24.52 2.57000000000001 24.52 2.57000000000001 24.52 C 1.47 24.52 0.670000000000002 23.62 0.670000000000002 22.62 C 0.670000000000002 22.62 0.670000000000002 1.91999999999996 0.670000000000002 1.91999999999996 Z" mask="url(#clip1801)" transform="matrix(1 0 0 1 -189 -6510 ) matrix(1 0 0 1 189 6510 )"/></g></svg>