<?xml version="1.0" encoding="utf-8"?>
<svg version="1.1" xmlns:xlink="http://www.w3.org/1999/xlink" width="220px" height="24px" xmlns="http://www.w3.org/2000/svg">
  <defs>
    <mask fill="white" id="clip913">
      <path d="M 0.780000000000001 23.96  C 0.780000000000001 23.96  0.780000000000001 0.95999999999998  0.780000000000001 0.95999999999998  C 0.780000000000001 0.95999999999998  219.48 0.95999999999998  219.48 0.95999999999998  C 219.48 0.95999999999998  219.48 23.96  219.48 23.96  C 219.48 23.96  0.780000000000001 23.96  0.780000000000001 23.96  Z " fill-rule="evenodd" />
    </mask>
  </defs>
  <g transform="matrix(1 0 0 1 -158 -14597 )">
    <path d="M 0.780000000000001 23.96  C 0.780000000000001 23.96  0.780000000000001 0.95999999999998  0.780000000000001 0.95999999999998  C 0.780000000000001 0.95999999999998  219.48 0.95999999999998  219.48 0.95999999999998  C 219.48 0.95999999999998  219.48 23.96  219.48 23.96  C 219.48 23.96  0.780000000000001 23.96  0.780000000000001 23.96  Z " fill-rule="nonzero" fill="#add8e6" stroke="none" transform="matrix(1 0 0 1 158 14597 )" />
    <path d="M 0.780000000000001 23.96  C 0.780000000000001 23.96  0.780000000000001 0.95999999999998  0.780000000000001 0.95999999999998  C 0.780000000000001 0.95999999999998  219.48 0.95999999999998  219.48 0.95999999999998  C 219.48 0.95999999999998  219.48 23.96  219.48 23.96  C 219.48 23.96  0.780000000000001 23.96  0.780000000000001 23.96  Z " stroke-width="2" stroke="#6fbbd3" fill="none" transform="matrix(1 0 0 1 158 14597 )" mask="url(#clip913)" />
  </g>
</svg>