<svg xmlns="http://www.w3.org/2000/svg" xmlns:xlink="http://www.w3.org/1999/xlink" width="56" height="60" version="1.1"><defs><mask id="clip2094" fill="#fff"><path fill-rule="evenodd" d="M 20.2 0.27 C 20.2 0.27 36 0.27 36 0.27 C 46.9 0.27 55.7 9.67 55.7 21.37 C 55.7 21.37 55.7 38.07 55.7 38.07 C 55.7 49.67 46.9 59.07 36 59.07 C 36 59.07 20.2 59.07 20.2 59.07 C 9.29999999999995 59.07 0.5 49.67 0.5 38.07 C 0.5 38.07 0.5 21.37 0.5 21.37 C 0.5 9.67 9.29999999999995 0.27 20.2 0.27 Z"/></mask></defs><g><path fill="#dcdcdd" fill-opacity=".078" fill-rule="nonzero" stroke="none" d="M 20.2 0.27 C 20.2 0.27 36 0.27 36 0.27 C 46.9 0.27 55.7 9.67 55.7 21.37 C 55.7 21.37 55.7 38.07 55.7 38.07 C 55.7 49.67 46.9 59.07 36 59.07 C 36 59.07 20.2 59.07 20.2 59.07 C 9.29999999999995 59.07 0.5 49.67 0.5 38.07 C 0.5 38.07 0.5 21.37 0.5 21.37 C 0.5 9.67 9.29999999999995 0.27 20.2 0.27 Z" transform="matrix(1 0 0 1 -961 -12411 ) matrix(1 0 0 1 961 12411 )"/><path fill="none" stroke="#dcdcdd" stroke-opacity=".059" stroke-width="2" d="M 20.2 0.27 C 20.2 0.27 36 0.27 36 0.27 C 46.9 0.27 55.7 9.67 55.7 21.37 C 55.7 21.37 55.7 38.07 55.7 38.07 C 55.7 49.67 46.9 59.07 36 59.07 C 36 59.07 20.2 59.07 20.2 59.07 C 9.29999999999995 59.07 0.5 49.67 0.5 38.07 C 0.5 38.07 0.5 21.37 0.5 21.37 C 0.5 9.67 9.29999999999995 0.27 20.2 0.27 Z" mask="url(#clip2094)" transform="matrix(1 0 0 1 -961 -12411 ) matrix(1 0 0 1 961 12411 )"/></g></svg>