<svg xmlns="http://www.w3.org/2000/svg" xmlns:xlink="http://www.w3.org/1999/xlink" width="11" height="44" version="1.1"><defs><mask id="clip2011" fill="#fff"><path fill-rule="evenodd" d="M 0.690000000000001 43.13 C 0.690000000000001 43.13 0.690000000000001 0.829999999999998 0.690000000000001 0.829999999999998 C 0.690000000000001 0.829999999999998 10.69 0.829999999999998 10.69 0.829999999999998 C 10.69 0.829999999999998 10.69 43.13 10.69 43.13 C 10.69 43.13 0.690000000000001 43.13 0.690000000000001 43.13 Z"/></mask></defs><g><path fill="#000" fill-rule="nonzero" stroke="none" d="M 0.690000000000001 43.13 C 0.690000000000001 43.13 0.690000000000001 0.829999999999998 0.690000000000001 0.829999999999998 C 0.690000000000001 0.829999999999998 10.69 0.829999999999998 10.69 0.829999999999998 C 10.69 0.829999999999998 10.69 43.13 10.69 43.13 C 10.69 43.13 0.690000000000001 43.13 0.690000000000001 43.13 Z" transform="matrix(1 0 0 1 -112 -10452 ) matrix(1 0 0 1 112 10452 )"/><path fill="none" stroke="#000" stroke-width="2" d="M 0.690000000000001 43.13 C 0.690000000000001 43.13 0.690000000000001 0.829999999999998 0.690000000000001 0.829999999999998 C 0.690000000000001 0.829999999999998 10.69 0.829999999999998 10.69 0.829999999999998 C 10.69 0.829999999999998 10.69 43.13 10.69 43.13 C 10.69 43.13 0.690000000000001 43.13 0.690000000000001 43.13 Z" mask="url(#clip2011)" transform="matrix(1 0 0 1 -112 -10452 ) matrix(1 0 0 1 112 10452 )"/></g></svg>