<?xml version="1.0" encoding="utf-8"?>
<svg version="1.1" xmlns:xlink="http://www.w3.org/1999/xlink" width="4px" height="4px" xmlns="http://www.w3.org/2000/svg">
  <defs>
    <mask fill="white" id="clip1837">
      <path d="M 2.36999999999995 0.960000000000036  C 2.76999999999998 0.960000000000036  3.06999999999994 2.26000000000005  3.06999999999994 2.66000000000003  C 3.06999999999994 3.06000000000006  2.76999999999998 3.36000000000001  2.36999999999995 3.36000000000001  C 1.96999999999997 3.36000000000001  0.669999999999959 3.06000000000006  0.669999999999959 2.66000000000003  C 0.669999999999959 2.26000000000005  1.96999999999997 0.960000000000036  2.36999999999995 0.960000000000036  Z " fill-rule="evenodd" />
    </mask>
  </defs>
  <g transform="matrix(1 0 0 1 -424 -7209 )">
    <path d="M 2.36999999999995 0.960000000000036  C 2.76999999999998 0.960000000000036  3.06999999999994 2.26000000000005  3.06999999999994 2.66000000000003  C 3.06999999999994 3.06000000000006  2.76999999999998 3.36000000000001  2.36999999999995 3.36000000000001  C 1.96999999999997 3.36000000000001  0.669999999999959 3.06000000000006  0.669999999999959 2.66000000000003  C 0.669999999999959 2.26000000000005  1.96999999999997 0.960000000000036  2.36999999999995 0.960000000000036  Z " fill-rule="nonzero" fill="#ffffff" stroke="none" transform="matrix(1 0 0 1 424 7209 )" />
    <path d="M 2.36999999999995 0.960000000000036  C 2.76999999999998 0.960000000000036  3.06999999999994 2.26000000000005  3.06999999999994 2.66000000000003  C 3.06999999999994 3.06000000000006  2.76999999999998 3.36000000000001  2.36999999999995 3.36000000000001  C 1.96999999999997 3.36000000000001  0.669999999999959 3.06000000000006  0.669999999999959 2.66000000000003  C 0.669999999999959 2.26000000000005  1.96999999999997 0.960000000000036  2.36999999999995 0.960000000000036  Z " stroke-width="2" stroke="#ffffff" fill="none" transform="matrix(1 0 0 1 424 7209 )" mask="url(#clip1837)" />
  </g>
</svg>