<?xml version="1.0" encoding="utf-8"?>
<svg version="1.1" xmlns:xlink="http://www.w3.org/1999/xlink" width="62px" height="62px" xmlns="http://www.w3.org/2000/svg">
  <defs>
    <mask fill="white" id="clip923">
      <path d="M 0.810000000000002 61.47  C 0.810000000000002 61.47  0.810000000000002 0.470000000000027  0.810000000000002 0.470000000000027  C 0.810000000000002 0.470000000000027  61.81 0.470000000000027  61.81 0.470000000000027  C 61.81 0.470000000000027  61.81 61.47  61.81 61.47  C 61.81 61.47  0.810000000000002 61.47  0.810000000000002 61.47  Z " fill-rule="evenodd" />
    </mask>
  </defs>
  <g transform="matrix(1 0 0 1 -151 -16770 )">
    <path d="M 0.810000000000002 61.47  C 0.810000000000002 61.47  0.810000000000002 0.470000000000027  0.810000000000002 0.470000000000027  C 0.810000000000002 0.470000000000027  61.81 0.470000000000027  61.81 0.470000000000027  C 61.81 0.470000000000027  61.81 61.47  61.81 61.47  C 61.81 61.47  0.810000000000002 61.47  0.810000000000002 61.47  Z " fill-rule="nonzero" fill="#ffffff" stroke="none" fill-opacity="0" transform="matrix(1 0 0 1 151 16770 )" />
    <path d="M 0.810000000000002 61.47  C 0.810000000000002 61.47  0.810000000000002 0.470000000000027  0.810000000000002 0.470000000000027  C 0.810000000000002 0.470000000000027  61.81 0.470000000000027  61.81 0.470000000000027  C 61.81 0.470000000000027  61.81 61.47  61.81 61.47  C 61.81 61.47  0.810000000000002 61.47  0.810000000000002 61.47  Z " stroke-width="2" stroke="#5a5a5a" fill="none" transform="matrix(1 0 0 1 151 16770 )" mask="url(#clip923)" />
  </g>
</svg>