<svg xmlns="http://www.w3.org/2000/svg" xmlns:xlink="http://www.w3.org/1999/xlink" width="77" height="76" version="1.1"><defs><mask id="clip1759" fill="#fff"><path fill-rule="evenodd" d="M 38.77 75.68 C 18.1700000000001 75.68 0.470000000000027 58.98 0.470000000000027 38.38 C 0.470000000000027 17.78 18.1700000000001 0.0799999999999983 38.77 0.0799999999999983 C 59.37 0.0799999999999983 76.0700000000001 17.78 76.0700000000001 38.38 C 76.0700000000001 58.98 59.37 75.68 38.77 75.68 Z"/></mask></defs><g><path fill="#8bc0d3" fill-rule="nonzero" stroke="none" d="M 38.77 75.68 C 18.1700000000001 75.68 0.470000000000027 58.98 0.470000000000027 38.38 C 0.470000000000027 17.78 18.1700000000001 0.0799999999999983 38.77 0.0799999999999983 C 59.37 0.0799999999999983 76.0700000000001 17.78 76.0700000000001 38.38 C 76.0700000000001 58.98 59.37 75.68 38.77 75.68 Z" transform="matrix(1 0 0 1 -613 -4950 ) matrix(1 0 0 1 613 4950 )"/><path fill="none" stroke="#8bc0d3" stroke-width="2" d="M 38.77 75.68 C 18.1700000000001 75.68 0.470000000000027 58.98 0.470000000000027 38.38 C 0.470000000000027 17.78 18.1700000000001 0.0799999999999983 38.77 0.0799999999999983 C 59.37 0.0799999999999983 76.0700000000001 17.78 76.0700000000001 38.38 C 76.0700000000001 58.98 59.37 75.68 38.77 75.68 Z" mask="url(#clip1759)" transform="matrix(1 0 0 1 -613 -4950 ) matrix(1 0 0 1 613 4950 )"/></g></svg>