<?xml version="1.0" encoding="utf-8"?>
<svg version="1.1" xmlns:xlink="http://www.w3.org/1999/xlink" width="165px" height="118px" xmlns="http://www.w3.org/2000/svg">
  <defs>
    <mask fill="white" id="clip1647">
      <path d="M 157.5 88.52  C 157.5 88.52  164.8 114.82  164.8 114.82  C 155.3 116.62  145.5 117.52  135.4 117.52  C 79.3 117.52  29 87.92  0.100000000000009 44.42  C 0.100000000000009 44.42  66.9 0.220000000000027  66.9 0.220000000000027  C 81.4 22.12  107.2 36.52  135.4 36.52  C 138.1 36.52  140.7 36.42  143.3 36.12  C 143.3 36.12  150.6 63.62  150.6 63.62  C 150.6 63.62  140.8 77.42  140.8 77.42  C 140.8 77.42  157.5 88.52  157.5 88.52  Z " fill-rule="evenodd" />
    </mask>
  </defs>
  <g transform="matrix(1 0 0 1 -194 -7181 )">
    <path d="M 157.5 88.52  C 157.5 88.52  164.8 114.82  164.8 114.82  C 155.3 116.62  145.5 117.52  135.4 117.52  C 79.3 117.52  29 87.92  0.100000000000009 44.42  C 0.100000000000009 44.42  66.9 0.220000000000027  66.9 0.220000000000027  C 81.4 22.12  107.2 36.52  135.4 36.52  C 138.1 36.52  140.7 36.42  143.3 36.12  C 143.3 36.12  150.6 63.62  150.6 63.62  C 150.6 63.62  140.8 77.42  140.8 77.42  C 140.8 77.42  157.5 88.52  157.5 88.52  Z " fill-rule="nonzero" fill="#02b5b2" stroke="none" transform="matrix(1 0 0 1 194 7181 )" />
    <path d="M 157.5 88.52  C 157.5 88.52  164.8 114.82  164.8 114.82  C 155.3 116.62  145.5 117.52  135.4 117.52  C 79.3 117.52  29 87.92  0.100000000000009 44.42  C 0.100000000000009 44.42  66.9 0.220000000000027  66.9 0.220000000000027  C 81.4 22.12  107.2 36.52  135.4 36.52  C 138.1 36.52  140.7 36.42  143.3 36.12  C 143.3 36.12  150.6 63.62  150.6 63.62  C 150.6 63.62  140.8 77.42  140.8 77.42  C 140.8 77.42  157.5 88.52  157.5 88.52  Z " stroke-width="2" stroke="#02b5b2" fill="none" transform="matrix(1 0 0 1 194 7181 )" mask="url(#clip1647)" />
  </g>
</svg>