<?xml version="1.0" encoding="utf-8"?>
<svg version="1.1" xmlns:xlink="http://www.w3.org/1999/xlink" width="470px" height="796px" xmlns="http://www.w3.org/2000/svg">
  <defs>
    <mask fill="white" id="clip1503">
      <path d="M 0.879999999999995 400.2  C 0.879999999999995 400.2  101.68 0.5  101.68 0.5  C 101.68 0.5  469.28 0.5  469.28 0.5  C 469.28 0.5  469.28 795.2  469.28 795.2  C 469.28 795.2  101.68 795.2  101.68 795.2  C 101.68 795.2  0.879999999999995 400.2  0.879999999999995 400.2  Z " fill-rule="evenodd" />
    </mask>
  </defs>
  <g transform="matrix(1 0 0 1 -748 -1291 )">
    <path d="M 0.879999999999995 400.2  C 0.879999999999995 400.2  101.68 0.5  101.68 0.5  C 101.68 0.5  469.28 0.5  469.28 0.5  C 469.28 0.5  469.28 795.2  469.28 795.2  C 469.28 795.2  101.68 795.2  101.68 795.2  C 101.68 795.2  0.879999999999995 400.2  0.879999999999995 400.2  Z " fill-rule="nonzero" fill="#8bc0d3" stroke="none" transform="matrix(1 0 0 1 748 1291 )" />
    <path d="M 0.879999999999995 400.2  C 0.879999999999995 400.2  101.68 0.5  101.68 0.5  C 101.68 0.5  469.28 0.5  469.28 0.5  C 469.28 0.5  469.28 795.2  469.28 795.2  C 469.28 795.2  101.68 795.2  101.68 795.2  C 101.68 795.2  0.879999999999995 400.2  0.879999999999995 400.2  Z " stroke-width="2" stroke="#8bc0d3" fill="none" transform="matrix(1 0 0 1 748 1291 )" mask="url(#clip1503)" />
  </g>
</svg>