<?xml version="1.0" encoding="utf-8"?>
<svg version="1.1" xmlns:xlink="http://www.w3.org/1999/xlink" width="4px" height="5px" xmlns="http://www.w3.org/2000/svg">
  <defs>
    <mask fill="white" id="clip1884">
      <path d="M 1.03999999999996 4.48999999999998  C 0.539999999999964 4.48999999999998  0.0399999999999636 3.88999999999999  0.0399999999999636 3.19  C 0.0399999999999636 2.48999999999998  0.539999999999964 0.889999999999986  1.03999999999996 0.889999999999986  C 1.63999999999999 0.889999999999986  3.13999999999999 2.48999999999998  3.13999999999999 3.19  C 3.13999999999999 3.88999999999999  1.63999999999999 4.48999999999998  1.03999999999996 4.48999999999998  Z " fill-rule="evenodd" />
    </mask>
  </defs>
  <g transform="matrix(1 0 0 1 -526 -6896 )">
    <path d="M 1.03999999999996 4.48999999999998  C 0.539999999999964 4.48999999999998  0.0399999999999636 3.88999999999999  0.0399999999999636 3.19  C 0.0399999999999636 2.48999999999998  0.539999999999964 0.889999999999986  1.03999999999996 0.889999999999986  C 1.63999999999999 0.889999999999986  3.13999999999999 2.48999999999998  3.13999999999999 3.19  C 3.13999999999999 3.88999999999999  1.63999999999999 4.48999999999998  1.03999999999996 4.48999999999998  Z " fill-rule="nonzero" fill="#3e3938" stroke="none" transform="matrix(1 0 0 1 526 6896 )" />
    <path d="M 1.03999999999996 4.48999999999998  C 0.539999999999964 4.48999999999998  0.0399999999999636 3.88999999999999  0.0399999999999636 3.19  C 0.0399999999999636 2.48999999999998  0.539999999999964 0.889999999999986  1.03999999999996 0.889999999999986  C 1.63999999999999 0.889999999999986  3.13999999999999 2.48999999999998  3.13999999999999 3.19  C 3.13999999999999 3.88999999999999  1.63999999999999 4.48999999999998  1.03999999999996 4.48999999999998  Z " stroke-width="2" stroke="#3e3938" fill="none" transform="matrix(1 0 0 1 526 6896 )" mask="url(#clip1884)" />
  </g>
</svg>