<svg xmlns="http://www.w3.org/2000/svg" xmlns:xlink="http://www.w3.org/1999/xlink" width="284" height="25" version="1.1"><defs><linearGradient id="LinearGradient2540" x1="63923244.994" x2="63923244.994" y1="122677.758" y2="135655.633" gradientUnits="userSpaceOnUse"><stop id="Stop2541" offset="0" stop-color="#e4e4e4"/><stop id="Stop2542" offset=".2" stop-color="#ededed"/><stop id="Stop2543" offset=".8" stop-color="#bdbdbd"/><stop id="Stop2544" offset="1" stop-color="#a8a8a8"/></linearGradient><mask id="clip2545" fill="#fff"><path fill-rule="evenodd" d="M 0.350000000000023 24.59 C 0.350000000000023 24.59 0.350000000000023 0.0900000000000318 0.350000000000023 0.0900000000000318 C 0.350000000000023 0.0900000000000318 283.55 0.0900000000000318 283.55 0.0900000000000318 C 283.55 0.0900000000000318 283.55 24.59 283.55 24.59 C 283.55 24.59 0.350000000000023 24.59 0.350000000000023 24.59 Z"/></mask></defs><g><path fill="url(#LinearGradient2540)" fill-rule="nonzero" stroke="none" d="M 0.350000000000023 24.59 C 0.350000000000023 24.59 0.350000000000023 0.0900000000000318 0.350000000000023 0.0900000000000318 C 0.350000000000023 0.0900000000000318 283.55 0.0900000000000318 283.55 0.0900000000000318 C 283.55 0.0900000000000318 283.55 24.59 283.55 24.59 C 283.55 24.59 0.350000000000023 24.59 0.350000000000023 24.59 Z" transform="matrix(1 0 0 1 -883 -17214 ) matrix(1 0 0 1 883 17214 )"/><path fill="none" stroke="#787878" stroke-width="2" d="M 0.350000000000023 24.59 C 0.350000000000023 24.59 0.350000000000023 0.0900000000000318 0.350000000000023 0.0900000000000318 C 0.350000000000023 0.0900000000000318 283.55 0.0900000000000318 283.55 0.0900000000000318 C 283.55 0.0900000000000318 283.55 24.59 283.55 24.59 C 283.55 24.59 0.350000000000023 24.59 0.350000000000023 24.59 Z" mask="url(#clip2545)" transform="matrix(1 0 0 1 -883 -17214 ) matrix(1 0 0 1 883 17214 )"/></g></svg>