<svg xmlns="http://www.w3.org/2000/svg" xmlns:xlink="http://www.w3.org/1999/xlink" width="579" height="66" version="1.1"><defs><mask id="clip1688" fill="#fff"><path fill-rule="evenodd" d="M 63.17 65.84 C 63.17 65.84 0.0699999999999932 0.939999999999998 0.0699999999999932 0.939999999999998 C 0.0699999999999932 0.939999999999998 578.47 0.939999999999998 578.47 0.939999999999998 C 578.47 0.939999999999998 514.57 65.84 514.57 65.84 C 514.57 65.84 63.17 65.84 63.17 65.84 Z"/></mask></defs><g><path fill="#9cbde8" fill-rule="nonzero" stroke="none" d="M 63.17 65.84 C 63.17 65.84 0.0699999999999932 0.939999999999998 0.0699999999999932 0.939999999999998 C 0.0699999999999932 0.939999999999998 578.47 0.939999999999998 578.47 0.939999999999998 C 578.47 0.939999999999998 514.57 65.84 514.57 65.84 C 514.57 65.84 63.17 65.84 63.17 65.84 Z" transform="matrix(1 0 0 1 -361 -2291 ) matrix(1 0 0 1 361 2291 )"/><path fill="none" stroke="#9cbde8" stroke-width="2" d="M 63.17 65.84 C 63.17 65.84 0.0699999999999932 0.939999999999998 0.0699999999999932 0.939999999999998 C 0.0699999999999932 0.939999999999998 578.47 0.939999999999998 578.47 0.939999999999998 C 578.47 0.939999999999998 514.57 65.84 514.57 65.84 C 514.57 65.84 63.17 65.84 63.17 65.84 Z" mask="url(#clip1688)" transform="matrix(1 0 0 1 -361 -2291 ) matrix(1 0 0 1 361 2291 )"/></g></svg>