<?xml version="1.0" encoding="utf-8"?>
<svg version="1.1" xmlns:xlink="http://www.w3.org/1999/xlink" width="199px" height="155px" xmlns="http://www.w3.org/2000/svg">
  <defs>
    <radialGradient cx="0.840000000000049" cy="0.710000000000015" r="249.6" gradientTransform="matrix(1 0 0 1 2.22044604925031E-16 0 )" gradientUnits="userSpaceOnUse" id="RadialGradient2417">
      <stop id="Stop2418" stop-color="#fffbf3" offset="0" />
      <stop id="Stop2419" stop-color="#fffaf0" offset="1" />
    </radialGradient>
    <mask fill="white" id="clip2420">
      <path d="M 16.84 154.71  C 6.24000000000001 139.01  0.340000000000032 119.31  0.340000000000032 99.61  C 0.340000000000032 45.31  45.4400000000001 0.210000000000008  99.74 0.210000000000008  C 154.14 0.210000000000008  198.14 45.31  198.14 99.61  C 198.14 119.31  192.24 139.01  181.64 154.71  C 181.64 154.71  16.84 154.71  16.84 154.71  Z " fill-rule="evenodd" />
    </mask>
  </defs>
  <g transform="matrix(1 0 0 1 -551 -16339 )">
    <path d="M 16.84 154.71  C 6.24000000000001 139.01  0.340000000000032 119.31  0.340000000000032 99.61  C 0.340000000000032 45.31  45.4400000000001 0.210000000000008  99.74 0.210000000000008  C 154.14 0.210000000000008  198.14 45.31  198.14 99.61  C 198.14 119.31  192.24 139.01  181.64 154.71  C 181.64 154.71  16.84 154.71  16.84 154.71  Z " fill-rule="nonzero" fill="url(#RadialGradient2417)" stroke="none" transform="matrix(1 0 0 1 551 16339 )" />
    <path d="M 16.84 154.71  C 6.24000000000001 139.01  0.340000000000032 119.31  0.340000000000032 99.61  C 0.340000000000032 45.31  45.4400000000001 0.210000000000008  99.74 0.210000000000008  C 154.14 0.210000000000008  198.14 45.31  198.14 99.61  C 198.14 119.31  192.24 139.01  181.64 154.71  C 181.64 154.71  16.84 154.71  16.84 154.71  Z " stroke-width="2" stroke="#969696" fill="none" transform="matrix(1 0 0 1 551 16339 )" mask="url(#clip2420)" />
  </g>
</svg>