<?xml version="1.0" encoding="utf-8"?>
<svg version="1.1" xmlns:xlink="http://www.w3.org/1999/xlink" width="57px" height="60px" xmlns="http://www.w3.org/2000/svg">
  <defs>
    <mask fill="white" id="clip689">
      <path d="M 36.41 59.7099999999999  C 36.41 59.7099999999999  20.51 59.7099999999999  20.51 59.7099999999999  C 9.70999999999998 59.7099999999999  0.909999999999968 50.91  0.909999999999968 40.11  C 0.909999999999968 40.11  0.909999999999968 20.61  0.909999999999968 20.61  C 0.909999999999968 9.70999999999992  9.70999999999998 0.909999999999968  20.51 0.909999999999968  C 20.51 0.909999999999968  36.41 0.909999999999968  36.41 0.909999999999968  C 47.31 0.909999999999968  56.11 9.70999999999992  56.11 20.61  C 56.11 20.61  56.11 40.11  56.11 40.11  C 56.11 50.91  47.31 59.7099999999999  36.41 59.7099999999999  Z " fill-rule="evenodd" />
    </mask>
  </defs>
  <g transform="matrix(1 0 0 1 -223 -13176 )">
    <path d="M 36.41 59.7099999999999  C 36.41 59.7099999999999  20.51 59.7099999999999  20.51 59.7099999999999  C 9.70999999999998 59.7099999999999  0.909999999999968 50.91  0.909999999999968 40.11  C 0.909999999999968 40.11  0.909999999999968 20.61  0.909999999999968 20.61  C 0.909999999999968 9.70999999999992  9.70999999999998 0.909999999999968  20.51 0.909999999999968  C 20.51 0.909999999999968  36.41 0.909999999999968  36.41 0.909999999999968  C 47.31 0.909999999999968  56.11 9.70999999999992  56.11 20.61  C 56.11 20.61  56.11 40.11  56.11 40.11  C 56.11 50.91  47.31 59.7099999999999  36.41 59.7099999999999  Z " fill-rule="nonzero" fill="#cdcece" stroke="none" fill-opacity="0.0784313725490196" transform="matrix(1 0 0 1 223 13176 )" />
    <path d="M 36.41 59.7099999999999  C 36.41 59.7099999999999  20.51 59.7099999999999  20.51 59.7099999999999  C 9.70999999999998 59.7099999999999  0.909999999999968 50.91  0.909999999999968 40.11  C 0.909999999999968 40.11  0.909999999999968 20.61  0.909999999999968 20.61  C 0.909999999999968 9.70999999999992  9.70999999999998 0.909999999999968  20.51 0.909999999999968  C 20.51 0.909999999999968  36.41 0.909999999999968  36.41 0.909999999999968  C 47.31 0.909999999999968  56.11 9.70999999999992  56.11 20.61  C 56.11 20.61  56.11 40.11  56.11 40.11  C 56.11 50.91  47.31 59.7099999999999  36.41 59.7099999999999  Z " stroke-width="2" stroke="#cdcece" fill="none" stroke-opacity="0.0588235294117647" transform="matrix(1 0 0 1 223 13176 )" mask="url(#clip689)" />
  </g>
</svg>