<svg xmlns="http://www.w3.org/2000/svg" xmlns:xlink="http://www.w3.org/1999/xlink" width="6" height="21" version="1.1"><defs><mask id="clip1846" fill="#fff"><path fill-rule="evenodd" d="M 3.96000000000004 0.519999999999982 C 3.96000000000004 0.519999999999982 1.46000000000004 0.519999999999982 1.46000000000004 0.519999999999982 C 1.46000000000004 0.519999999999982 0.360000000000014 18.82 0.360000000000014 18.82 C 0.360000000000014 18.82 3.25999999999999 20.72 3.25999999999999 20.72 C 3.25999999999999 20.72 5.06 18.82 5.06 18.82 C 5.06 18.82 3.96000000000004 0.519999999999982 3.96000000000004 0.519999999999982 Z"/></mask></defs><g><path fill="#fff" fill-rule="nonzero" stroke="none" d="M 3.96000000000004 0.519999999999982 C 3.96000000000004 0.519999999999982 1.46000000000004 0.519999999999982 1.46000000000004 0.519999999999982 C 1.46000000000004 0.519999999999982 0.360000000000014 18.82 0.360000000000014 18.82 C 0.360000000000014 18.82 3.25999999999999 20.72 3.25999999999999 20.72 C 3.25999999999999 20.72 5.06 18.82 5.06 18.82 C 5.06 18.82 3.96000000000004 0.519999999999982 3.96000000000004 0.519999999999982 Z" transform="matrix(1 0 0 1 -370 -7113 ) matrix(1 0 0 1 370 7113 )"/><path fill="none" stroke="#fff" stroke-width="2" d="M 3.96000000000004 0.519999999999982 C 3.96000000000004 0.519999999999982 1.46000000000004 0.519999999999982 1.46000000000004 0.519999999999982 C 1.46000000000004 0.519999999999982 0.360000000000014 18.82 0.360000000000014 18.82 C 0.360000000000014 18.82 3.25999999999999 20.72 3.25999999999999 20.72 C 3.25999999999999 20.72 5.06 18.82 5.06 18.82 C 5.06 18.82 3.96000000000004 0.519999999999982 3.96000000000004 0.519999999999982 Z" mask="url(#clip1846)" transform="matrix(1 0 0 1 -370 -7113 ) matrix(1 0 0 1 370 7113 )"/></g></svg>