<svg xmlns="http://www.w3.org/2000/svg" xmlns:xlink="http://www.w3.org/1999/xlink" width="81" height="80" version="1.1"><defs><mask id="clip1805" fill="#fff"><path fill-rule="evenodd" d="M 40.86 80 C 19.26 80 0.660000000000025 62.5 0.660000000000025 40.8 C 0.660000000000025 19.2 19.26 0.600000000000023 40.86 0.600000000000023 C 62.5600000000001 0.600000000000023 80.0600000000001 19.2 80.0600000000001 40.8 C 80.0600000000001 62.5 62.5600000000001 80 40.86 80 Z"/></mask></defs><g><path fill="#fff" fill-opacity="0" fill-rule="nonzero" stroke="none" d="M 40.86 80 C 19.26 80 0.660000000000025 62.5 0.660000000000025 40.8 C 0.660000000000025 19.2 19.26 0.600000000000023 40.86 0.600000000000023 C 62.5600000000001 0.600000000000023 80.0600000000001 19.2 80.0600000000001 40.8 C 80.0600000000001 62.5 62.5600000000001 80 40.86 80 Z" transform="matrix(1 0 0 1 -585 -7159 ) matrix(1 0 0 1 585 7159 )"/><path fill="none" stroke="#34c2c2" stroke-width="2" d="M 40.86 80 C 19.26 80 0.660000000000025 62.5 0.660000000000025 40.8 C 0.660000000000025 19.2 19.26 0.600000000000023 40.86 0.600000000000023 C 62.5600000000001 0.600000000000023 80.0600000000001 19.2 80.0600000000001 40.8 C 80.0600000000001 62.5 62.5600000000001 80 40.86 80 Z" mask="url(#clip1805)" transform="matrix(1 0 0 1 -585 -7159 ) matrix(1 0 0 1 585 7159 )"/></g></svg>