<svg xmlns="http://www.w3.org/2000/svg" xmlns:xlink="http://www.w3.org/1999/xlink" width="130" height="16" version="1.1"><defs><linearGradient id="LinearGradient2535" x1="103188.408" x2="103188.408" y1="3012.085" y2="3210.895" gradientUnits="userSpaceOnUse"><stop id="Stop2536" offset="0" stop-color="#a1d979"/><stop id="Stop2537" offset=".2" stop-color="#8acf57"/><stop id="Stop2538" offset="1" stop-color="#6cb734"/></linearGradient><mask id="clip2539" fill="#fff"><path fill-rule="evenodd" d="M 0.909999999999968 15.63 C 0.909999999999968 15.63 0.909999999999968 0.529999999999973 0.909999999999968 0.529999999999973 C 0.909999999999968 0.529999999999973 129.71 0.529999999999973 129.71 0.529999999999973 C 129.71 0.529999999999973 129.71 15.63 129.71 15.63 C 129.71 15.63 0.909999999999968 15.63 0.909999999999968 15.63 Z"/></mask></defs><g><path fill="url(#LinearGradient2535)" fill-rule="nonzero" stroke="none" d="M 0.909999999999968 15.63 C 0.909999999999968 15.63 0.909999999999968 0.529999999999973 0.909999999999968 0.529999999999973 C 0.909999999999968 0.529999999999973 129.71 0.529999999999973 129.71 0.529999999999973 C 129.71 0.529999999999973 129.71 15.63 129.71 15.63 C 129.71 15.63 0.909999999999968 15.63 0.909999999999968 15.63 Z" transform="matrix(1 0 0 1 -890 -17270 ) matrix(1 0 0 1 890 17270 )"/><path fill="none" stroke="#787878" stroke-width="2" d="M 0.909999999999968 15.63 C 0.909999999999968 15.63 0.909999999999968 0.529999999999973 0.909999999999968 0.529999999999973 C 0.909999999999968 0.529999999999973 129.71 0.529999999999973 129.71 0.529999999999973 C 129.71 0.529999999999973 129.71 15.63 129.71 15.63 C 129.71 15.63 0.909999999999968 15.63 0.909999999999968 15.63 Z" mask="url(#clip2539)" transform="matrix(1 0 0 1 -890 -17270 ) matrix(1 0 0 1 890 17270 )"/></g></svg>