<svg xmlns="http://www.w3.org/2000/svg" xmlns:xlink="http://www.w3.org/1999/xlink" width="56" height="60" version="1.1"><defs><mask id="clip2093" fill="#fff"><path fill-rule="evenodd" d="M 20.4400000000001 0.379999999999995 C 20.4400000000001 0.379999999999995 36.24 0.379999999999995 36.24 0.379999999999995 C 47.14 0.379999999999995 55.9400000000001 9.78 55.9400000000001 21.48 C 55.9400000000001 21.48 55.9400000000001 38.18 55.9400000000001 38.18 C 55.9400000000001 49.78 47.14 59.18 36.24 59.18 C 36.24 59.18 20.4400000000001 59.18 20.4400000000001 59.18 C 9.53999999999996 59.18 0.740000000000009 49.78 0.740000000000009 38.18 C 0.740000000000009 38.18 0.740000000000009 21.48 0.740000000000009 21.48 C 0.740000000000009 9.78 9.53999999999996 0.379999999999995 20.4400000000001 0.379999999999995 Z"/></mask></defs><g><path fill="#dcdcdd" fill-opacity=".078" fill-rule="nonzero" stroke="none" d="M 20.4400000000001 0.379999999999995 C 20.4400000000001 0.379999999999995 36.24 0.379999999999995 36.24 0.379999999999995 C 47.14 0.379999999999995 55.9400000000001 9.78 55.9400000000001 21.48 C 55.9400000000001 21.48 55.9400000000001 38.18 55.9400000000001 38.18 C 55.9400000000001 49.78 47.14 59.18 36.24 59.18 C 36.24 59.18 20.4400000000001 59.18 20.4400000000001 59.18 C 9.53999999999996 59.18 0.740000000000009 49.78 0.740000000000009 38.18 C 0.740000000000009 38.18 0.740000000000009 21.48 0.740000000000009 21.48 C 0.740000000000009 9.78 9.53999999999996 0.379999999999995 20.4400000000001 0.379999999999995 Z" transform="matrix(1 0 0 1 -1022 -12473 ) matrix(1 0 0 1 1022 12473 )"/><path fill="none" stroke="#dcdcdd" stroke-opacity=".059" stroke-width="2" d="M 20.4400000000001 0.379999999999995 C 20.4400000000001 0.379999999999995 36.24 0.379999999999995 36.24 0.379999999999995 C 47.14 0.379999999999995 55.9400000000001 9.78 55.9400000000001 21.48 C 55.9400000000001 21.48 55.9400000000001 38.18 55.9400000000001 38.18 C 55.9400000000001 49.78 47.14 59.18 36.24 59.18 C 36.24 59.18 20.4400000000001 59.18 20.4400000000001 59.18 C 9.53999999999996 59.18 0.740000000000009 49.78 0.740000000000009 38.18 C 0.740000000000009 38.18 0.740000000000009 21.48 0.740000000000009 21.48 C 0.740000000000009 9.78 9.53999999999996 0.379999999999995 20.4400000000001 0.379999999999995 Z" mask="url(#clip2093)" transform="matrix(1 0 0 1 -1022 -12473 ) matrix(1 0 0 1 1022 12473 )"/></g></svg>