<?xml version="1.0" encoding="utf-8"?>
<svg version="1.1" xmlns:xlink="http://www.w3.org/1999/xlink" width="4px" height="5px" xmlns="http://www.w3.org/2000/svg">
  <defs>
    <mask fill="white" id="clip343">
      <path d="M 1.13999999999999 4.48999999999998  C 0.639999999999986 4.48999999999998  0.139999999999986 3.88999999999999  0.139999999999986 3.19  C 0.139999999999986 2.48999999999998  0.639999999999986 0.889999999999986  1.13999999999999 0.889999999999986  C 1.74000000000001 0.889999999999986  3.24000000000001 2.48999999999998  3.24000000000001 3.19  C 3.24000000000001 3.88999999999999  1.74000000000001 4.48999999999998  1.13999999999999 4.48999999999998  Z " fill-rule="evenodd" />
    </mask>
  </defs>
  <g transform="matrix(1 0 0 1 -565 -6896 )">
    <path d="M 1.13999999999999 4.48999999999998  C 0.639999999999986 4.48999999999998  0.139999999999986 3.88999999999999  0.139999999999986 3.19  C 0.139999999999986 2.48999999999998  0.639999999999986 0.889999999999986  1.13999999999999 0.889999999999986  C 1.74000000000001 0.889999999999986  3.24000000000001 2.48999999999998  3.24000000000001 3.19  C 3.24000000000001 3.88999999999999  1.74000000000001 4.48999999999998  1.13999999999999 4.48999999999998  Z " fill-rule="nonzero" fill="#3e3938" stroke="none" transform="matrix(1 0 0 1 565 6896 )" />
    <path d="M 1.13999999999999 4.48999999999998  C 0.639999999999986 4.48999999999998  0.139999999999986 3.88999999999999  0.139999999999986 3.19  C 0.139999999999986 2.48999999999998  0.639999999999986 0.889999999999986  1.13999999999999 0.889999999999986  C 1.74000000000001 0.889999999999986  3.24000000000001 2.48999999999998  3.24000000000001 3.19  C 3.24000000000001 3.88999999999999  1.74000000000001 4.48999999999998  1.13999999999999 4.48999999999998  Z " stroke-width="2" stroke="#3e3938" fill="none" transform="matrix(1 0 0 1 565 6896 )" mask="url(#clip343)" />
  </g>
</svg>