<?xml version="1.0" encoding="utf-8"?>
<svg version="1.1" xmlns:xlink="http://www.w3.org/1999/xlink" width="24px" height="25px" xmlns="http://www.w3.org/2000/svg">
  <defs>
    <mask fill="white" id="clip423">
      <path d="M 0.100000000000023 24.52  C 0.100000000000023 24.52  0.100000000000023 0.920000000000002  0.100000000000023 0.920000000000002  C 0.100000000000023 0.920000000000002  23.7 0.920000000000002  23.7 0.920000000000002  C 23.7 0.920000000000002  23.7 24.52  23.7 24.52  C 23.7 24.52  0.100000000000023 24.52  0.100000000000023 24.52  Z " fill-rule="evenodd" />
    </mask>
  </defs>
  <g transform="matrix(1 0 0 1 -426 -7814 )">
    <path d="M 0.100000000000023 24.52  C 0.100000000000023 24.52  0.100000000000023 0.920000000000002  0.100000000000023 0.920000000000002  C 0.100000000000023 0.920000000000002  23.7 0.920000000000002  23.7 0.920000000000002  C 23.7 0.920000000000002  23.7 24.52  23.7 24.52  C 23.7 24.52  0.100000000000023 24.52  0.100000000000023 24.52  Z " fill-rule="nonzero" fill="#ffffff" stroke="none" transform="matrix(1 0 0 1 426 7814 )" />
    <path d="M 0.100000000000023 24.52  C 0.100000000000023 24.52  0.100000000000023 0.920000000000002  0.100000000000023 0.920000000000002  C 0.100000000000023 0.920000000000002  23.7 0.920000000000002  23.7 0.920000000000002  C 23.7 0.920000000000002  23.7 24.52  23.7 24.52  C 23.7 24.52  0.100000000000023 24.52  0.100000000000023 24.52  Z " stroke-width="2" stroke="#ffffff" fill="none" transform="matrix(1 0 0 1 426 7814 )" mask="url(#clip423)" />
  </g>
</svg>