<svg xmlns="http://www.w3.org/2000/svg" xmlns:xlink="http://www.w3.org/1999/xlink" width="4" height="5" version="1.1"><defs><mask id="clip1862" fill="#fff"><path fill-rule="evenodd" d="M 1.15999999999997 4.48999999999998 C 0.659999999999968 4.48999999999998 0.159999999999968 3.88999999999999 0.159999999999968 3.19 C 0.159999999999968 2.48999999999998 0.659999999999968 0.889999999999986 1.15999999999997 0.889999999999986 C 1.75999999999999 0.889999999999986 3.25999999999999 2.48999999999998 3.25999999999999 3.19 C 3.25999999999999 3.88999999999999 1.75999999999999 4.48999999999998 1.15999999999997 4.48999999999998 Z"/></mask></defs><g><path fill="#3e3938" fill-rule="nonzero" stroke="none" d="M 1.15999999999997 4.48999999999998 C 0.659999999999968 4.48999999999998 0.159999999999968 3.88999999999999 0.159999999999968 3.19 C 0.159999999999968 2.48999999999998 0.659999999999968 0.889999999999986 1.15999999999997 0.889999999999986 C 1.75999999999999 0.889999999999986 3.25999999999999 2.48999999999998 3.25999999999999 3.19 C 3.25999999999999 3.88999999999999 1.75999999999999 4.48999999999998 1.15999999999997 4.48999999999998 Z" transform="matrix(1 0 0 1 -403 -6896 ) matrix(1 0 0 1 403 6896 )"/><path fill="none" stroke="#3e3938" stroke-width="2" d="M 1.15999999999997 4.48999999999998 C 0.659999999999968 4.48999999999998 0.159999999999968 3.88999999999999 0.159999999999968 3.19 C 0.159999999999968 2.48999999999998 0.659999999999968 0.889999999999986 1.15999999999997 0.889999999999986 C 1.75999999999999 0.889999999999986 3.25999999999999 2.48999999999998 3.25999999999999 3.19 C 3.25999999999999 3.88999999999999 1.75999999999999 4.48999999999998 1.15999999999997 4.48999999999998 Z" mask="url(#clip1862)" transform="matrix(1 0 0 1 -403 -6896 ) matrix(1 0 0 1 403 6896 )"/></g></svg>