<svg xmlns="http://www.w3.org/2000/svg" xmlns:xlink="http://www.w3.org/1999/xlink" width="437" height="34" version="1.1"><defs><mask id="clip1676" fill="#fff"><path fill-rule="evenodd" d="M 0.759999999999991 33.3399999999999 C 0.759999999999991 33.3399999999999 0.759999999999991 0.0399999999999636 0.759999999999991 0.0399999999999636 C 0.759999999999991 0.0399999999999636 436.46 0.0399999999999636 436.46 0.0399999999999636 C 436.46 0.0399999999999636 436.46 33.3399999999999 436.46 33.3399999999999 C 436.46 33.3399999999999 0.759999999999991 33.3399999999999 0.759999999999991 33.3399999999999 Z"/></mask></defs><g><path fill="#fafafa" fill-rule="nonzero" stroke="none" d="M 0.759999999999991 33.3399999999999 C 0.759999999999991 33.3399999999999 0.759999999999991 0.0399999999999636 0.759999999999991 0.0399999999999636 C 0.759999999999991 0.0399999999999636 436.46 0.0399999999999636 436.46 0.0399999999999636 C 436.46 0.0399999999999636 436.46 33.3399999999999 436.46 33.3399999999999 C 436.46 33.3399999999999 0.759999999999991 33.3399999999999 0.759999999999991 33.3399999999999 Z" transform="matrix(1 0 0 1 -219 -1843 ) matrix(1 0 0 1 219 1843 )"/><path fill="none" stroke="silver" stroke-width="2" d="M 0.759999999999991 33.3399999999999 C 0.759999999999991 33.3399999999999 0.759999999999991 0.0399999999999636 0.759999999999991 0.0399999999999636 C 0.759999999999991 0.0399999999999636 436.46 0.0399999999999636 436.46 0.0399999999999636 C 436.46 0.0399999999999636 436.46 33.3399999999999 436.46 33.3399999999999 C 436.46 33.3399999999999 0.759999999999991 33.3399999999999 0.759999999999991 33.3399999999999 Z" mask="url(#clip1676)" transform="matrix(1 0 0 1 -219 -1843 ) matrix(1 0 0 1 219 1843 )"/></g></svg>