<svg xmlns="http://www.w3.org/2000/svg" xmlns:xlink="http://www.w3.org/1999/xlink" width="357" height="34" version="1.1"><defs><mask id="clip1683" fill="#fff"><path fill-rule="evenodd" d="M 0.759999999999991 33.8800000000001 C 0.759999999999991 33.8800000000001 0.759999999999991 0.580000000000041 0.759999999999991 0.580000000000041 C 0.759999999999991 0.580000000000041 356.06 0.580000000000041 356.06 0.580000000000041 C 356.06 0.580000000000041 356.06 33.8800000000001 356.06 33.8800000000001 C 356.06 33.8800000000001 0.759999999999991 33.8800000000001 0.759999999999991 33.8800000000001 Z"/></mask></defs><g><path fill="#595757" fill-rule="nonzero" stroke="none" d="M 0.759999999999991 33.8800000000001 C 0.759999999999991 33.8800000000001 0.759999999999991 0.580000000000041 0.759999999999991 0.580000000000041 C 0.759999999999991 0.580000000000041 356.06 0.580000000000041 356.06 0.580000000000041 C 356.06 0.580000000000041 356.06 33.8800000000001 356.06 33.8800000000001 C 356.06 33.8800000000001 0.759999999999991 33.8800000000001 0.759999999999991 33.8800000000001 Z" transform="matrix(1 0 0 1 -219 -1668 ) matrix(1 0 0 1 219 1668 )"/><path fill="none" stroke="#595757" stroke-width="2" d="M 0.759999999999991 33.8800000000001 C 0.759999999999991 33.8800000000001 0.759999999999991 0.580000000000041 0.759999999999991 0.580000000000041 C 0.759999999999991 0.580000000000041 356.06 0.580000000000041 356.06 0.580000000000041 C 356.06 0.580000000000041 356.06 33.8800000000001 356.06 33.8800000000001 C 356.06 33.8800000000001 0.759999999999991 33.8800000000001 0.759999999999991 33.8800000000001 Z" mask="url(#clip1683)" transform="matrix(1 0 0 1 -219 -1668 ) matrix(1 0 0 1 219 1668 )"/></g></svg>