<svg xmlns="http://www.w3.org/2000/svg" xmlns:xlink="http://www.w3.org/1999/xlink" width="25" height="25" version="1.1"><defs><mask id="clip1963" fill="#fff"><path fill-rule="evenodd" d="M 0.970000000000027 24.52 C 0.970000000000027 24.52 0.970000000000027 0.920000000000002 0.970000000000027 0.920000000000002 C 0.970000000000027 0.920000000000002 24.5700000000001 0.920000000000002 24.5700000000001 0.920000000000002 C 24.5700000000001 0.920000000000002 24.5700000000001 24.52 24.5700000000001 24.52 C 24.5700000000001 24.52 0.970000000000027 24.52 0.970000000000027 24.52 Z"/></mask></defs><g><path fill="#fff" fill-rule="nonzero" stroke="none" d="M 0.970000000000027 24.52 C 0.970000000000027 24.52 0.970000000000027 0.920000000000002 0.970000000000027 0.920000000000002 C 0.970000000000027 0.920000000000002 24.5700000000001 0.920000000000002 24.5700000000001 0.920000000000002 C 24.5700000000001 0.920000000000002 24.5700000000001 24.52 24.5700000000001 24.52 C 24.5700000000001 24.52 0.970000000000027 24.52 0.970000000000027 24.52 Z" transform="matrix(1 0 0 1 -380 -7814 ) matrix(1 0 0 1 380 7814 )"/><path fill="none" stroke="#fff" stroke-width="2" d="M 0.970000000000027 24.52 C 0.970000000000027 24.52 0.970000000000027 0.920000000000002 0.970000000000027 0.920000000000002 C 0.970000000000027 0.920000000000002 24.5700000000001 0.920000000000002 24.5700000000001 0.920000000000002 C 24.5700000000001 0.920000000000002 24.5700000000001 24.52 24.5700000000001 24.52 C 24.5700000000001 24.52 0.970000000000027 24.52 0.970000000000027 24.52 Z" mask="url(#clip1963)" transform="matrix(1 0 0 1 -380 -7814 ) matrix(1 0 0 1 380 7814 )"/></g></svg>