<svg xmlns="http://www.w3.org/2000/svg" xmlns:xlink="http://www.w3.org/1999/xlink" width="365" height="55" version="1.1"><defs><mask id="clip1673" fill="#fff"><path fill-rule="evenodd" d="M 0.329999999999998 27.32 C 0.329999999999998 12.72 12.13 0.920000000000002 26.73 0.920000000000002 C 26.73 0.920000000000002 337.73 0.920000000000002 337.73 0.920000000000002 C 352.33 0.920000000000002 364.23 12.72 364.23 27.32 C 364.23 41.92 352.33 54.82 337.73 54.82 C 337.73 54.82 26.73 54.82 26.73 54.82 C 12.13 54.82 0.329999999999998 41.92 0.329999999999998 27.32 Z"/></mask></defs><g><path fill="#8bc0d3" fill-rule="nonzero" stroke="none" d="M 0.329999999999998 27.32 C 0.329999999999998 12.72 12.13 0.920000000000002 26.73 0.920000000000002 C 26.73 0.920000000000002 337.73 0.920000000000002 337.73 0.920000000000002 C 352.33 0.920000000000002 364.23 12.72 364.23 27.32 C 364.23 41.92 352.33 54.82 337.73 54.82 C 337.73 54.82 26.73 54.82 26.73 54.82 C 12.13 54.82 0.329999999999998 41.92 0.329999999999998 27.32 Z" transform="matrix(1 0 0 1 -193 -1334 ) matrix(1 0 0 1 193 1334 )"/><path fill="none" stroke="#8bc0d3" stroke-width="2" d="M 0.329999999999998 27.32 C 0.329999999999998 12.72 12.13 0.920000000000002 26.73 0.920000000000002 C 26.73 0.920000000000002 337.73 0.920000000000002 337.73 0.920000000000002 C 352.33 0.920000000000002 364.23 12.72 364.23 27.32 C 364.23 41.92 352.33 54.82 337.73 54.82 C 337.73 54.82 26.73 54.82 26.73 54.82 C 12.13 54.82 0.329999999999998 41.92 0.329999999999998 27.32 Z" mask="url(#clip1673)" transform="matrix(1 0 0 1 -193 -1334 ) matrix(1 0 0 1 193 1334 )"/></g></svg>