<svg xmlns="http://www.w3.org/2000/svg" xmlns:xlink="http://www.w3.org/1999/xlink" width="113" height="113" version="1.1"><defs><mask id="clip1808" fill="#fff"><path fill-rule="evenodd" d="M 112.9 56.8199999999999 C 112.9 87.52 87.9 112.52 57.1999999999999 112.52 C 26.4 112.52 0.399999999999977 87.52 0.399999999999977 56.8199999999999 C 0.399999999999977 26.02 26.4 0.0199999999999818 57.1999999999999 0.0199999999999818 C 87.9 0.0199999999999818 112.9 26.02 112.9 56.8199999999999 Z M 13.9 56.8199999999999 C 13.9 80.12 33.8 99.02 57.1999999999999 99.02 C 80.5 99.02 99.4 80.12 99.4 56.8199999999999 C 99.4 33.42 80.5 13.52 57.1999999999999 13.52 C 33.8 13.52 13.9 33.42 13.9 56.8199999999999 Z"/></mask></defs><g><path fill="#ffcd55" fill-rule="nonzero" stroke="none" d="M 112.9 56.8199999999999 C 112.9 87.52 87.9 112.52 57.1999999999999 112.52 C 26.4 112.52 0.399999999999977 87.52 0.399999999999977 56.8199999999999 C 0.399999999999977 26.02 26.4 0.0199999999999818 57.1999999999999 0.0199999999999818 C 87.9 0.0199999999999818 112.9 26.02 112.9 56.8199999999999 Z M 13.9 56.8199999999999 C 13.9 80.12 33.8 99.02 57.1999999999999 99.02 C 80.5 99.02 99.4 80.12 99.4 56.8199999999999 C 99.4 33.42 80.5 13.52 57.1999999999999 13.52 C 33.8 13.52 13.9 33.42 13.9 56.8199999999999 Z" transform="matrix(1 0 0 1 -834 -7364 ) matrix(1 0 0 1 834 7364 )"/><path fill="none" stroke="#fff" stroke-width="2" d="M 112.9 56.8199999999999 C 112.9 87.52 87.9 112.52 57.1999999999999 112.52 C 26.4 112.52 0.399999999999977 87.52 0.399999999999977 56.8199999999999 C 0.399999999999977 26.02 26.4 0.0199999999999818 57.1999999999999 0.0199999999999818 C 87.9 0.0199999999999818 112.9 26.02 112.9 56.8199999999999 Z" mask="url(#clip1808)" transform="matrix(1 0 0 1 -834 -7364 ) matrix(1 0 0 1 834 7364 )"/><path fill="none" stroke="#fff" stroke-width="2" d="M 13.9 56.8199999999999 C 13.9 80.12 33.8 99.02 57.1999999999999 99.02 C 80.5 99.02 99.4 80.12 99.4 56.8199999999999 C 99.4 33.42 80.5 13.52 57.1999999999999 13.52 C 33.8 13.52 13.9 33.42 13.9 56.8199999999999 Z" mask="url(#clip1808)" transform="matrix(1 0 0 1 -834 -7364 ) matrix(1 0 0 1 834 7364 )"/></g></svg>