<svg xmlns="http://www.w3.org/2000/svg" xmlns:xlink="http://www.w3.org/1999/xlink" width="437" height="34" version="1.1"><defs><mask id="clip1686" fill="#fff"><path fill-rule="evenodd" d="M 0.759999999999991 33.57 C 0.759999999999991 33.57 0.759999999999991 0.269999999999982 0.759999999999991 0.269999999999982 C 0.759999999999991 0.269999999999982 436.46 0.269999999999982 436.46 0.269999999999982 C 436.46 0.269999999999982 436.46 33.57 436.46 33.57 C 436.46 33.57 0.759999999999991 33.57 0.759999999999991 33.57 Z"/></mask></defs><g><path fill="#fafafa" fill-rule="nonzero" stroke="none" d="M 0.759999999999991 33.57 C 0.759999999999991 33.57 0.759999999999991 0.269999999999982 0.759999999999991 0.269999999999982 C 0.759999999999991 0.269999999999982 436.46 0.269999999999982 436.46 0.269999999999982 C 436.46 0.269999999999982 436.46 33.57 436.46 33.57 C 436.46 33.57 0.759999999999991 33.57 0.759999999999991 33.57 Z" transform="matrix(1 0 0 1 -219 -1552 ) matrix(1 0 0 1 219 1552 )"/><path fill="none" stroke="silver" stroke-width="2" d="M 0.759999999999991 33.57 C 0.759999999999991 33.57 0.759999999999991 0.269999999999982 0.759999999999991 0.269999999999982 C 0.759999999999991 0.269999999999982 436.46 0.269999999999982 436.46 0.269999999999982 C 436.46 0.269999999999982 436.46 33.57 436.46 33.57 C 436.46 33.57 0.759999999999991 33.57 0.759999999999991 33.57 Z" mask="url(#clip1686)" transform="matrix(1 0 0 1 -219 -1552 ) matrix(1 0 0 1 219 1552 )"/></g></svg>