<svg xmlns="http://www.w3.org/2000/svg" xmlns:xlink="http://www.w3.org/1999/xlink" width="97" height="232" version="1.1"><defs><mask id="clip2243" fill="#fff"><path fill-rule="evenodd" d="M 0.75 231.3 C 0.75 231.3 0.75 0.899999999999977 0.75 0.899999999999977 C 0.75 0.899999999999977 96.95 0.899999999999977 96.95 0.899999999999977 C 96.95 0.899999999999977 96.95 231.3 96.95 231.3 C 96.95 231.3 0.75 231.3 0.75 231.3 Z"/></mask></defs><g><path fill="#fff" fill-rule="nonzero" stroke="none" d="M 0.75 231.3 C 0.75 231.3 0.75 0.899999999999977 0.75 0.899999999999977 C 0.75 0.899999999999977 96.95 0.899999999999977 96.95 0.899999999999977 C 96.95 0.899999999999977 96.95 231.3 96.95 231.3 C 96.95 231.3 0.75 231.3 0.75 231.3 Z" transform="matrix(1 0 0 1 -236 -14787 ) matrix(1 0 0 1 236 14787 )"/><path fill="none" stroke="#d2d2d2" stroke-width="2" d="M 0.75 231.3 C 0.75 231.3 0.75 0.899999999999977 0.75 0.899999999999977 C 0.75 0.899999999999977 96.95 0.899999999999977 96.95 0.899999999999977 C 96.95 0.899999999999977 96.95 231.3 96.95 231.3 C 96.95 231.3 0.75 231.3 0.75 231.3 Z" mask="url(#clip2243)" transform="matrix(1 0 0 1 -236 -14787 ) matrix(1 0 0 1 236 14787 )"/></g></svg>