<svg xmlns="http://www.w3.org/2000/svg" xmlns:xlink="http://www.w3.org/1999/xlink" width="56" height="60" version="1.1"><defs><mask id="clip2105" fill="#fff"><path fill-rule="evenodd" d="M 36.21 59.2099999999999 C 36.21 59.2099999999999 20.31 59.2099999999999 20.31 59.2099999999999 C 9.50999999999999 59.2099999999999 0.709999999999994 50.41 0.709999999999994 39.61 C 0.709999999999994 39.61 0.709999999999994 20.11 0.709999999999994 20.11 C 0.709999999999994 9.20999999999992 9.50999999999999 0.409999999999968 20.31 0.409999999999968 C 20.31 0.409999999999968 36.21 0.409999999999968 36.21 0.409999999999968 C 47.11 0.409999999999968 55.91 9.20999999999992 55.91 20.11 C 55.91 20.11 55.91 39.61 55.91 39.61 C 55.91 50.41 47.11 59.2099999999999 36.21 59.2099999999999 Z"/></mask></defs><g><path fill="#dcdcdd" fill-opacity=".078" fill-rule="nonzero" stroke="none" d="M 36.21 59.2099999999999 C 36.21 59.2099999999999 20.31 59.2099999999999 20.31 59.2099999999999 C 9.50999999999999 59.2099999999999 0.709999999999994 50.41 0.709999999999994 39.61 C 0.709999999999994 39.61 0.709999999999994 20.11 0.709999999999994 20.11 C 0.709999999999994 9.20999999999992 9.50999999999999 0.409999999999968 20.31 0.409999999999968 C 20.31 0.409999999999968 36.21 0.409999999999968 36.21 0.409999999999968 C 47.11 0.409999999999968 55.91 9.20999999999992 55.91 20.11 C 55.91 20.11 55.91 39.61 55.91 39.61 C 55.91 50.41 47.11 59.2099999999999 36.21 59.2099999999999 Z" transform="matrix(1 0 0 1 -162 -13048 ) matrix(1 0 0 1 162 13048 )"/><path fill="none" stroke="#dcdcdd" stroke-opacity=".059" stroke-width="2" d="M 36.21 59.2099999999999 C 36.21 59.2099999999999 20.31 59.2099999999999 20.31 59.2099999999999 C 9.50999999999999 59.2099999999999 0.709999999999994 50.41 0.709999999999994 39.61 C 0.709999999999994 39.61 0.709999999999994 20.11 0.709999999999994 20.11 C 0.709999999999994 9.20999999999992 9.50999999999999 0.409999999999968 20.31 0.409999999999968 C 20.31 0.409999999999968 36.21 0.409999999999968 36.21 0.409999999999968 C 47.11 0.409999999999968 55.91 9.20999999999992 55.91 20.11 C 55.91 20.11 55.91 39.61 55.91 39.61 C 55.91 50.41 47.11 59.2099999999999 36.21 59.2099999999999 Z" mask="url(#clip2105)" transform="matrix(1 0 0 1 -162 -13048 ) matrix(1 0 0 1 162 13048 )"/></g></svg>