<?xml version="1.0" encoding="utf-8"?>
<svg version="1.1" xmlns:xlink="http://www.w3.org/1999/xlink" width="56px" height="60px" xmlns="http://www.w3.org/2000/svg">
  <defs>
    <mask fill="white" id="clip2084">
      <path d="M 35.64 0.27  C 35.64 0.27  19.84 0.27  19.84 0.27  C 8.94 0.27  0.139999999999986 9.67  0.139999999999986 21.37  C 0.139999999999986 21.37  0.139999999999986 38.07  0.139999999999986 38.07  C 0.139999999999986 49.67  8.94 59.07  19.84 59.07  C 19.84 59.07  35.64 59.07  35.64 59.07  C 46.54 59.07  55.34 49.67  55.34 38.07  C 55.34 38.07  55.34 21.37  55.34 21.37  C 55.34 9.67  46.54 0.27  35.64 0.27  Z " fill-rule="evenodd" />
    </mask>
  </defs>
  <g transform="matrix(1 0 0 1 -285 -12411 )">
    <path d="M 35.64 0.27  C 35.64 0.27  19.84 0.27  19.84 0.27  C 8.94 0.27  0.139999999999986 9.67  0.139999999999986 21.37  C 0.139999999999986 21.37  0.139999999999986 38.07  0.139999999999986 38.07  C 0.139999999999986 49.67  8.94 59.07  19.84 59.07  C 19.84 59.07  35.64 59.07  35.64 59.07  C 46.54 59.07  55.34 49.67  55.34 38.07  C 55.34 38.07  55.34 21.37  55.34 21.37  C 55.34 9.67  46.54 0.27  35.64 0.27  Z " fill-rule="nonzero" fill="#dcdcdd" stroke="none" fill-opacity="0.0784313725490196" transform="matrix(1 0 0 1 285 12411 )" />
    <path d="M 35.64 0.27  C 35.64 0.27  19.84 0.27  19.84 0.27  C 8.94 0.27  0.139999999999986 9.67  0.139999999999986 21.37  C 0.139999999999986 21.37  0.139999999999986 38.07  0.139999999999986 38.07  C 0.139999999999986 49.67  8.94 59.07  19.84 59.07  C 19.84 59.07  35.64 59.07  35.64 59.07  C 46.54 59.07  55.34 49.67  55.34 38.07  C 55.34 38.07  55.34 21.37  55.34 21.37  C 55.34 9.67  46.54 0.27  35.64 0.27  Z " stroke-width="2" stroke="#dcdcdd" fill="none" stroke-opacity="0.0588235294117647" transform="matrix(1 0 0 1 285 12411 )" mask="url(#clip2084)" />
  </g>
</svg>