<?xml version="1.0" encoding="utf-8"?>
<svg version="1.1" xmlns:xlink="http://www.w3.org/1999/xlink" width="151px" height="119px" xmlns="http://www.w3.org/2000/svg">
  <defs>
    <radialGradient cx="55.13" cy="212.92" r="188.9" gradientTransform="matrix(1 0 0 1 7.105427357601E-15 0 )" gradientUnits="userSpaceOnUse" id="RadialGradient1222">
      <stop id="Stop1223" stop-color="#fffbf3" offset="0" />
      <stop id="Stop1224" stop-color="#fffaf0" offset="1" />
    </radialGradient>
    <mask fill="white" id="clip1225">
      <path d="M 12.78 118.16  C 4.78000000000003 106.26  0.28000000000003 91.36  0.28000000000003 76.46  C 0.28000000000003 35.26  34.58 0.960000000000008  75.78 0.960000000000008  C 116.88 0.960000000000008  150.28 35.26  150.28 76.46  C 150.28 91.36  145.78 106.26  137.68 118.16  C 137.68 118.16  12.78 118.16  12.78 118.16  Z " fill-rule="evenodd" />
    </mask>
  </defs>
  <g transform="matrix(1 0 0 1 -360 -17164 )">
    <path d="M 12.78 118.16  C 4.78000000000003 106.26  0.28000000000003 91.36  0.28000000000003 76.46  C 0.28000000000003 35.26  34.58 0.960000000000008  75.78 0.960000000000008  C 116.88 0.960000000000008  150.28 35.26  150.28 76.46  C 150.28 91.36  145.78 106.26  137.68 118.16  C 137.68 118.16  12.78 118.16  12.78 118.16  Z " fill-rule="nonzero" fill="url(#RadialGradient1222)" stroke="none" transform="matrix(1 0 0 1 360 17164 )" />
    <path d="M 12.78 118.16  C 4.78000000000003 106.26  0.28000000000003 91.36  0.28000000000003 76.46  C 0.28000000000003 35.26  34.58 0.960000000000008  75.78 0.960000000000008  C 116.88 0.960000000000008  150.28 35.26  150.28 76.46  C 150.28 91.36  145.78 106.26  137.68 118.16  C 137.68 118.16  12.78 118.16  12.78 118.16  Z " stroke-width="2" stroke="#969696" fill="none" transform="matrix(1 0 0 1 360 17164 )" mask="url(#clip1225)" />
  </g>
</svg>