<svg xmlns="http://www.w3.org/2000/svg" xmlns:xlink="http://www.w3.org/1999/xlink" width="157" height="470" version="1.1"><defs><mask id="clip2018" fill="#fff"><path fill-rule="evenodd" d="M 0.830000000000041 469.5 C 0.830000000000041 469.5 0.830000000000041 0.5 0.830000000000041 0.5 C 0.830000000000041 0.5 156.13 0.5 156.13 0.5 C 156.13 0.5 156.13 469.5 156.13 469.5 C 156.13 469.5 0.830000000000041 469.5 0.830000000000041 469.5 Z"/></mask></defs><g><path fill="#fef4e8" fill-rule="nonzero" stroke="none" d="M 0.830000000000041 469.5 C 0.830000000000041 469.5 0.830000000000041 0.5 0.830000000000041 0.5 C 0.830000000000041 0.5 156.13 0.5 156.13 0.5 C 156.13 0.5 156.13 469.5 156.13 469.5 C 156.13 469.5 0.830000000000041 469.5 0.830000000000041 469.5 Z" transform="matrix(1 0 0 1 -818 -11629 ) matrix(1 0 0 1 818 11629 )"/><path fill="none" stroke="#d2d2d2" stroke-width="2" d="M 0.830000000000041 469.5 C 0.830000000000041 469.5 0.830000000000041 0.5 0.830000000000041 0.5 C 0.830000000000041 0.5 156.13 0.5 156.13 0.5 C 156.13 0.5 156.13 469.5 156.13 469.5 C 156.13 469.5 0.830000000000041 469.5 0.830000000000041 469.5 Z" mask="url(#clip2018)" transform="matrix(1 0 0 1 -818 -11629 ) matrix(1 0 0 1 818 11629 )"/></g></svg>