<svg xmlns="http://www.w3.org/2000/svg" xmlns:xlink="http://www.w3.org/1999/xlink" width="98" height="232" version="1.1"><defs><mask id="clip2241" fill="#fff"><path fill-rule="evenodd" d="M 0.969999999999999 231.3 C 0.969999999999999 231.3 0.969999999999999 0.899999999999977 0.969999999999999 0.899999999999977 C 0.969999999999999 0.899999999999977 97.17 0.899999999999977 97.17 0.899999999999977 C 97.17 0.899999999999977 97.17 231.3 97.17 231.3 C 97.17 231.3 0.969999999999999 231.3 0.969999999999999 231.3 Z"/></mask></defs><g><path fill="#f5f5f5" fill-rule="nonzero" stroke="none" d="M 0.969999999999999 231.3 C 0.969999999999999 231.3 0.969999999999999 0.899999999999977 0.969999999999999 0.899999999999977 C 0.969999999999999 0.899999999999977 97.17 0.899999999999977 97.17 0.899999999999977 C 97.17 0.899999999999977 97.17 231.3 97.17 231.3 C 97.17 231.3 0.969999999999999 231.3 0.969999999999999 231.3 Z" transform="matrix(1 0 0 1 -331 -14787 ) matrix(1 0 0 1 331 14787 )"/><path fill="none" stroke="#d2d2d2" stroke-width="2" d="M 0.969999999999999 231.3 C 0.969999999999999 231.3 0.969999999999999 0.899999999999977 0.969999999999999 0.899999999999977 C 0.969999999999999 0.899999999999977 97.17 0.899999999999977 97.17 0.899999999999977 C 97.17 0.899999999999977 97.17 231.3 97.17 231.3 C 97.17 231.3 0.969999999999999 231.3 0.969999999999999 231.3 Z" mask="url(#clip2241)" transform="matrix(1 0 0 1 -331 -14787 ) matrix(1 0 0 1 331 14787 )"/></g></svg>