<?xml version="1.0" encoding="utf-8"?>
<svg version="1.1" xmlns:xlink="http://www.w3.org/1999/xlink" width="4px" height="3px" xmlns="http://www.w3.org/2000/svg">
  <defs>
    <mask fill="white" id="clip469">
      <path d="M 2.44 0.350000000000023  C 2.84000000000003 0.350000000000023  3.13999999999999 1.65000000000003  3.13999999999999 2.05000000000001  C 3.13999999999999 2.45000000000005  2.84000000000003 2.75  2.44 2.75  C 2.04000000000002 2.75  0.740000000000009 2.45000000000005  0.740000000000009 2.05000000000001  C 0.740000000000009 1.65000000000003  2.04000000000002 0.350000000000023  2.44 0.350000000000023  Z " fill-rule="evenodd" />
    </mask>
  </defs>
  <g transform="matrix(1 0 0 1 -411 -7232 )">
    <path d="M 2.44 0.350000000000023  C 2.84000000000003 0.350000000000023  3.13999999999999 1.65000000000003  3.13999999999999 2.05000000000001  C 3.13999999999999 2.45000000000005  2.84000000000003 2.75  2.44 2.75  C 2.04000000000002 2.75  0.740000000000009 2.45000000000005  0.740000000000009 2.05000000000001  C 0.740000000000009 1.65000000000003  2.04000000000002 0.350000000000023  2.44 0.350000000000023  Z " fill-rule="nonzero" fill="#ffffff" stroke="none" transform="matrix(1 0 0 1 411 7232 )" />
    <path d="M 2.44 0.350000000000023  C 2.84000000000003 0.350000000000023  3.13999999999999 1.65000000000003  3.13999999999999 2.05000000000001  C 3.13999999999999 2.45000000000005  2.84000000000003 2.75  2.44 2.75  C 2.04000000000002 2.75  0.740000000000009 2.45000000000005  0.740000000000009 2.05000000000001  C 0.740000000000009 1.65000000000003  2.04000000000002 0.350000000000023  2.44 0.350000000000023  Z " stroke-width="2" stroke="#ffffff" fill="none" transform="matrix(1 0 0 1 411 7232 )" mask="url(#clip469)" />
  </g>
</svg>