<?xml version="1.0" encoding="utf-8"?>
<svg version="1.1" xmlns:xlink="http://www.w3.org/1999/xlink" width="365px" height="55px" xmlns="http://www.w3.org/2000/svg">
  <defs>
    <mask fill="white" id="clip141">
      <path d="M 0.329999999999998 27.32  C 0.329999999999998 12.72  12.13 0.920000000000002  26.73 0.920000000000002  C 26.73 0.920000000000002  337.73 0.920000000000002  337.73 0.920000000000002  C 352.33 0.920000000000002  364.23 12.72  364.23 27.32  C 364.23 41.92  352.33 54.82  337.73 54.82  C 337.73 54.82  26.73 54.82  26.73 54.82  C 12.13 54.82  0.329999999999998 41.92  0.329999999999998 27.32  Z " fill-rule="evenodd" />
    </mask>
  </defs>
  <g transform="matrix(1 0 0 1 -193 -1334 )">
    <path d="M 0.329999999999998 27.32  C 0.329999999999998 12.72  12.13 0.920000000000002  26.73 0.920000000000002  C 26.73 0.920000000000002  337.73 0.920000000000002  337.73 0.920000000000002  C 352.33 0.920000000000002  364.23 12.72  364.23 27.32  C 364.23 41.92  352.33 54.82  337.73 54.82  C 337.73 54.82  26.73 54.82  26.73 54.82  C 12.13 54.82  0.329999999999998 41.92  0.329999999999998 27.32  Z " fill-rule="nonzero" fill="#8bc0d3" stroke="none" transform="matrix(1 0 0 1 193 1334 )" />
    <path d="M 0.329999999999998 27.32  C 0.329999999999998 12.72  12.13 0.920000000000002  26.73 0.920000000000002  C 26.73 0.920000000000002  337.73 0.920000000000002  337.73 0.920000000000002  C 352.33 0.920000000000002  364.23 12.72  364.23 27.32  C 364.23 41.92  352.33 54.82  337.73 54.82  C 337.73 54.82  26.73 54.82  26.73 54.82  C 12.13 54.82  0.329999999999998 41.92  0.329999999999998 27.32  Z " stroke-width="2" stroke="#8bc0d3" fill="none" transform="matrix(1 0 0 1 193 1334 )" mask="url(#clip141)" />
  </g>
</svg>