<?xml version="1.0" encoding="utf-8"?>
<svg version="1.1" xmlns:xlink="http://www.w3.org/1999/xlink" width="3px" height="3px" xmlns="http://www.w3.org/2000/svg">
  <defs>
    <mask fill="white" id="clip1841">
      <path d="M 1.91000000000003 0.490000000000009  C 2.31000000000006 0.490000000000009  2.61000000000001 1.79000000000002  2.61000000000001 2.19  C 2.61000000000001 2.59000000000003  2.31000000000006 2.88999999999999  1.91000000000003 2.88999999999999  C 1.51000000000005 2.88999999999999  0.210000000000036 2.59000000000003  0.210000000000036 2.19  C 0.210000000000036 1.79000000000002  1.51000000000005 0.490000000000009  1.91000000000003 0.490000000000009  Z " fill-rule="evenodd" />
    </mask>
  </defs>
  <g transform="matrix(1 0 0 1 -419 -7204 )">
    <path d="M 1.91000000000003 0.490000000000009  C 2.31000000000006 0.490000000000009  2.61000000000001 1.79000000000002  2.61000000000001 2.19  C 2.61000000000001 2.59000000000003  2.31000000000006 2.88999999999999  1.91000000000003 2.88999999999999  C 1.51000000000005 2.88999999999999  0.210000000000036 2.59000000000003  0.210000000000036 2.19  C 0.210000000000036 1.79000000000002  1.51000000000005 0.490000000000009  1.91000000000003 0.490000000000009  Z " fill-rule="nonzero" fill="#ffffff" stroke="none" transform="matrix(1 0 0 1 419 7204 )" />
    <path d="M 1.91000000000003 0.490000000000009  C 2.31000000000006 0.490000000000009  2.61000000000001 1.79000000000002  2.61000000000001 2.19  C 2.61000000000001 2.59000000000003  2.31000000000006 2.88999999999999  1.91000000000003 2.88999999999999  C 1.51000000000005 2.88999999999999  0.210000000000036 2.59000000000003  0.210000000000036 2.19  C 0.210000000000036 1.79000000000002  1.51000000000005 0.490000000000009  1.91000000000003 0.490000000000009  Z " stroke-width="2" stroke="#ffffff" fill="none" transform="matrix(1 0 0 1 419 7204 )" mask="url(#clip1841)" />
  </g>
</svg>