<?xml version="1.0" encoding="utf-8"?>
<svg version="1.1" xmlns:xlink="http://www.w3.org/1999/xlink" width="8px" height="6px" xmlns="http://www.w3.org/2000/svg">
  <defs>
    <mask fill="white" id="clip1096">
      <path d="M 0.410000000000082 0.860000000000014  C 0.410000000000082 0.860000000000014  7.61000000000001 5.45999999999998  7.61000000000001 5.45999999999998  C 7.61000000000001 5.45999999999998  0.410000000000082 0.860000000000014  0.410000000000082 0.860000000000014  Z " fill-rule="evenodd" />
    </mask>
  </defs>
  <g transform="matrix(1 0 0 1 -725 -17271 )">
    <path d="M 0.410000000000082 0.860000000000014  C 0.410000000000082 0.860000000000014  7.61000000000001 5.45999999999998  7.61000000000001 5.45999999999998  C 7.61000000000001 5.45999999999998  0.410000000000082 0.860000000000014  0.410000000000082 0.860000000000014  Z " fill-rule="nonzero" fill="#f14100" stroke="none" transform="matrix(1 0 0 1 725 17271 )" />
    <path d="M 0.410000000000082 0.860000000000014  C 0.410000000000082 0.860000000000014  7.61000000000001 5.45999999999998  7.61000000000001 5.45999999999998  C 7.61000000000001 5.45999999999998  0.410000000000082 0.860000000000014  0.410000000000082 0.860000000000014  Z " stroke-width="2" stroke="#f14100" fill="none" transform="matrix(1 0 0 1 725 17271 )" mask="url(#clip1096)" />
  </g>
</svg>