<svg xmlns="http://www.w3.org/2000/svg" xmlns:xlink="http://www.w3.org/1999/xlink" width="56" height="60" version="1.1"><defs><mask id="clip2097" fill="#fff"><path fill-rule="evenodd" d="M 35.91 59.7099999999999 C 35.91 59.7099999999999 20.01 59.7099999999999 20.01 59.7099999999999 C 9.21 59.7099999999999 0.409999999999997 50.91 0.409999999999997 40.11 C 0.409999999999997 40.11 0.409999999999997 20.61 0.409999999999997 20.61 C 0.409999999999997 9.70999999999992 9.21 0.909999999999968 20.01 0.909999999999968 C 20.01 0.909999999999968 35.91 0.909999999999968 35.91 0.909999999999968 C 46.81 0.909999999999968 55.61 9.70999999999992 55.61 20.61 C 55.61 20.61 55.61 40.11 55.61 40.11 C 55.61 50.91 46.81 59.7099999999999 35.91 59.7099999999999 Z"/></mask></defs><g><path fill="#595757" fill-opacity=".078" fill-rule="nonzero" stroke="none" d="M 35.91 59.7099999999999 C 35.91 59.7099999999999 20.01 59.7099999999999 20.01 59.7099999999999 C 9.21 59.7099999999999 0.409999999999997 50.91 0.409999999999997 40.11 C 0.409999999999997 40.11 0.409999999999997 20.61 0.409999999999997 20.61 C 0.409999999999997 9.70999999999992 9.21 0.909999999999968 20.01 0.909999999999968 C 20.01 0.909999999999968 35.91 0.909999999999968 35.91 0.909999999999968 C 46.81 0.909999999999968 55.61 9.70999999999992 55.61 20.61 C 55.61 20.61 55.61 40.11 55.61 40.11 C 55.61 50.91 46.81 59.7099999999999 35.91 59.7099999999999 Z" transform="matrix(1 0 0 1 -101 -13176 ) matrix(1 0 0 1 101 13176 )"/><path fill="none" stroke="#595757" stroke-opacity=".059" stroke-width="2" d="M 35.91 59.7099999999999 C 35.91 59.7099999999999 20.01 59.7099999999999 20.01 59.7099999999999 C 9.21 59.7099999999999 0.409999999999997 50.91 0.409999999999997 40.11 C 0.409999999999997 40.11 0.409999999999997 20.61 0.409999999999997 20.61 C 0.409999999999997 9.70999999999992 9.21 0.909999999999968 20.01 0.909999999999968 C 20.01 0.909999999999968 35.91 0.909999999999968 35.91 0.909999999999968 C 46.81 0.909999999999968 55.61 9.70999999999992 55.61 20.61 C 55.61 20.61 55.61 40.11 55.61 40.11 C 55.61 50.91 46.81 59.7099999999999 35.91 59.7099999999999 Z" mask="url(#clip2097)" transform="matrix(1 0 0 1 -101 -13176 ) matrix(1 0 0 1 101 13176 )"/></g></svg>