<svg xmlns="http://www.w3.org/2000/svg" xmlns:xlink="http://www.w3.org/1999/xlink" width="57" height="60" version="1.1"><defs><mask id="clip2095" fill="#fff"><path fill-rule="evenodd" d="M 20.6900000000001 0.77000000000001 C 20.6900000000001 0.77000000000001 36.49 0.77000000000001 36.49 0.77000000000001 C 47.3900000000001 0.77000000000001 56.1900000000001 10.17 56.1900000000001 21.87 C 56.1900000000001 21.87 56.1900000000001 38.57 56.1900000000001 38.57 C 56.1900000000001 50.17 47.3900000000001 59.57 36.49 59.57 C 36.49 59.57 20.6900000000001 59.57 20.6900000000001 59.57 C 9.78999999999996 59.57 0.990000000000009 50.17 0.990000000000009 38.57 C 0.990000000000009 38.57 0.990000000000009 21.87 0.990000000000009 21.87 C 0.990000000000009 10.17 9.78999999999996 0.77000000000001 20.6900000000001 0.77000000000001 Z"/></mask></defs><g><path fill="#dcdcdd" fill-opacity=".078" fill-rule="nonzero" stroke="none" d="M 20.6900000000001 0.77000000000001 C 20.6900000000001 0.77000000000001 36.49 0.77000000000001 36.49 0.77000000000001 C 47.3900000000001 0.77000000000001 56.1900000000001 10.17 56.1900000000001 21.87 C 56.1900000000001 21.87 56.1900000000001 38.57 56.1900000000001 38.57 C 56.1900000000001 50.17 47.3900000000001 59.57 36.49 59.57 C 36.49 59.57 20.6900000000001 59.57 20.6900000000001 59.57 C 9.78999999999996 59.57 0.990000000000009 50.17 0.990000000000009 38.57 C 0.990000000000009 38.57 0.990000000000009 21.87 0.990000000000009 21.87 C 0.990000000000009 10.17 9.78999999999996 0.77000000000001 20.6900000000001 0.77000000000001 Z" transform="matrix(1 0 0 1 -1083 -12539 ) matrix(1 0 0 1 1083 12539 )"/><path fill="none" stroke="#dcdcdd" stroke-opacity=".059" stroke-width="2" d="M 20.6900000000001 0.77000000000001 C 20.6900000000001 0.77000000000001 36.49 0.77000000000001 36.49 0.77000000000001 C 47.3900000000001 0.77000000000001 56.1900000000001 10.17 56.1900000000001 21.87 C 56.1900000000001 21.87 56.1900000000001 38.57 56.1900000000001 38.57 C 56.1900000000001 50.17 47.3900000000001 59.57 36.49 59.57 C 36.49 59.57 20.6900000000001 59.57 20.6900000000001 59.57 C 9.78999999999996 59.57 0.990000000000009 50.17 0.990000000000009 38.57 C 0.990000000000009 38.57 0.990000000000009 21.87 0.990000000000009 21.87 C 0.990000000000009 10.17 9.78999999999996 0.77000000000001 20.6900000000001 0.77000000000001 Z" mask="url(#clip2095)" transform="matrix(1 0 0 1 -1083 -12539 ) matrix(1 0 0 1 1083 12539 )"/></g></svg>