<?xml version="1.0" encoding="utf-8"?>
<svg version="1.1" xmlns:xlink="http://www.w3.org/1999/xlink" width="18px" height="18px" xmlns="http://www.w3.org/2000/svg">
  <defs>
    <mask fill="white" id="clip335">
      <path d="M 9.20799999999997 17.378  C 9.20799999999997 17.378  0.829999999999984 9  0.829999999999984 9  C 0.829999999999984 9  9.20799999999997 0.622  9.20799999999997 0.622  C 9.20799999999997 0.622  17.586 9  17.586 9  C 17.586 9  9.20799999999997 17.378  9.20799999999997 17.378  Z " fill-rule="evenodd" />
    </mask>
  </defs>
  <g transform="matrix(1 0 0 1 -399 -4120 )">
    <path d="M 9.20799999999997 17.378  C 9.20799999999997 17.378  0.829999999999984 9  0.829999999999984 9  C 0.829999999999984 9  9.20799999999997 0.622  9.20799999999997 0.622  C 9.20799999999997 0.622  17.586 9  17.586 9  C 17.586 9  9.20799999999997 17.378  9.20799999999997 17.378  Z " fill-rule="nonzero" fill="#33b2c3" stroke="none" transform="matrix(1 0 0 1 399 4120 )" />
    <path d="M 9.20799999999997 17.378  C 9.20799999999997 17.378  0.829999999999984 9  0.829999999999984 9  C 0.829999999999984 9  9.20799999999997 0.622  9.20799999999997 0.622  C 9.20799999999997 0.622  17.586 9  17.586 9  C 17.586 9  9.20799999999997 17.378  9.20799999999997 17.378  Z " stroke-width="2.00818325856979" stroke="#ffffff" fill="none" transform="matrix(1 0 0 1 399 4120 )" mask="url(#clip335)" />
  </g>
</svg>