<?xml version="1.0" encoding="utf-8"?>
<svg version="1.1" xmlns:xlink="http://www.w3.org/1999/xlink" width="65px" height="109px" xmlns="http://www.w3.org/2000/svg">
  <defs>
    <mask fill="white" id="clip2457">
      <path d="M 16.01 104.86  C 16.01 104.86  9.81000000000006 108.46  9.81000000000006 108.46  C 3.61000000000001 97.86  0.110000000000014 85.56  0.110000000000014 72.46  C 0.110000000000014 36.06  28.11 4.95999999999998  63.11 0.0599999999999739  C 63.11 0.0599999999999739  64.11 7.16  64.11 7.16  C 32.61 11.56  7.31000000000006 39.66  7.31000000000006 72.46  C 7.31000000000006 84.26  10.51 95.36  16.01 104.86  Z " fill-rule="evenodd" />
    </mask>
  </defs>
  <g transform="matrix(1 0 0 1 -597 -17168 )">
    <path d="M 16.01 104.86  C 16.01 104.86  9.81000000000006 108.46  9.81000000000006 108.46  C 3.61000000000001 97.86  0.110000000000014 85.56  0.110000000000014 72.46  C 0.110000000000014 36.06  28.11 4.95999999999998  63.11 0.0599999999999739  C 63.11 0.0599999999999739  64.11 7.16  64.11 7.16  C 32.61 11.56  7.31000000000006 39.66  7.31000000000006 72.46  C 7.31000000000006 84.26  10.51 95.36  16.01 104.86  Z " fill-rule="nonzero" fill="#79c243" stroke="none" transform="matrix(1 0 0 1 597 17168 )" />
    <path d="M 16.01 104.86  C 16.01 104.86  9.81000000000006 108.46  9.81000000000006 108.46  C 3.61000000000001 97.86  0.110000000000014 85.56  0.110000000000014 72.46  C 0.110000000000014 36.06  28.11 4.95999999999998  63.11 0.0599999999999739  C 63.11 0.0599999999999739  64.11 7.16  64.11 7.16  C 32.61 11.56  7.31000000000006 39.66  7.31000000000006 72.46  C 7.31000000000006 84.26  10.51 95.36  16.01 104.86  Z " stroke-width="2" stroke="#79c243" fill="none" transform="matrix(1 0 0 1 597 17168 )" mask="url(#clip2457)" />
  </g>
</svg>