<?xml version="1.0" encoding="utf-8"?>
<svg version="1.1" xmlns:xlink="http://www.w3.org/1999/xlink" width="56px" height="60px" xmlns="http://www.w3.org/2000/svg">
  <defs>
    <mask fill="white" id="clip540">
      <path d="M 19.9300000000001 0.390000000000001  C 19.9300000000001 0.390000000000001  35.73 0.390000000000001  35.73 0.390000000000001  C 46.6300000000001 0.390000000000001  55.4300000000001 9.79000000000001  55.4300000000001 21.39  C 55.4300000000001 21.39  55.4300000000001 38.09  55.4300000000001 38.09  C 55.4300000000001 49.79  46.6300000000001 59.19  35.73 59.19  C 35.73 59.19  19.9300000000001 59.19  19.9300000000001 59.19  C 9.02999999999997 59.19  0.230000000000018 49.79  0.230000000000018 38.09  C 0.230000000000018 38.09  0.230000000000018 21.39  0.230000000000018 21.39  C 0.230000000000018 9.79000000000001  9.02999999999997 0.390000000000001  19.9300000000001 0.390000000000001  Z " fill-rule="evenodd" />
    </mask>
  </defs>
  <g transform="matrix(1 0 0 1 -1145 -12473 )">
    <path d="M 19.9300000000001 0.390000000000001  C 19.9300000000001 0.390000000000001  35.73 0.390000000000001  35.73 0.390000000000001  C 46.6300000000001 0.390000000000001  55.4300000000001 9.79000000000001  55.4300000000001 21.39  C 55.4300000000001 21.39  55.4300000000001 38.09  55.4300000000001 38.09  C 55.4300000000001 49.79  46.6300000000001 59.19  35.73 59.19  C 35.73 59.19  19.9300000000001 59.19  19.9300000000001 59.19  C 9.02999999999997 59.19  0.230000000000018 49.79  0.230000000000018 38.09  C 0.230000000000018 38.09  0.230000000000018 21.39  0.230000000000018 21.39  C 0.230000000000018 9.79000000000001  9.02999999999997 0.390000000000001  19.9300000000001 0.390000000000001  Z " fill-rule="nonzero" fill="#888889" stroke="none" fill-opacity="0.0784313725490196" transform="matrix(1 0 0 1 1145 12473 )" />
    <path d="M 19.9300000000001 0.390000000000001  C 19.9300000000001 0.390000000000001  35.73 0.390000000000001  35.73 0.390000000000001  C 46.6300000000001 0.390000000000001  55.4300000000001 9.79000000000001  55.4300000000001 21.39  C 55.4300000000001 21.39  55.4300000000001 38.09  55.4300000000001 38.09  C 55.4300000000001 49.79  46.6300000000001 59.19  35.73 59.19  C 35.73 59.19  19.9300000000001 59.19  19.9300000000001 59.19  C 9.02999999999997 59.19  0.230000000000018 49.79  0.230000000000018 38.09  C 0.230000000000018 38.09  0.230000000000018 21.39  0.230000000000018 21.39  C 0.230000000000018 9.79000000000001  9.02999999999997 0.390000000000001  19.9300000000001 0.390000000000001  Z " stroke-width="2" stroke="#888889" fill="none" stroke-opacity="0.0588235294117647" transform="matrix(1 0 0 1 1145 12473 )" mask="url(#clip540)" />
  </g>
</svg>