<svg xmlns="http://www.w3.org/2000/svg" xmlns:xlink="http://www.w3.org/1999/xlink" width="56" height="60" version="1.1"><defs><mask id="clip2087" fill="#fff"><path fill-rule="evenodd" d="M 19.9300000000001 0.27 C 19.9300000000001 0.27 35.73 0.27 35.73 0.27 C 46.6300000000001 0.27 55.4300000000001 9.67 55.4300000000001 21.37 C 55.4300000000001 21.37 55.4300000000001 38.07 55.4300000000001 38.07 C 55.4300000000001 49.67 46.6300000000001 59.07 35.73 59.07 C 35.73 59.07 19.9300000000001 59.07 19.9300000000001 59.07 C 9.02999999999997 59.07 0.230000000000018 49.67 0.230000000000018 38.07 C 0.230000000000018 38.07 0.230000000000018 21.37 0.230000000000018 21.37 C 0.230000000000018 9.67 9.02999999999997 0.27 19.9300000000001 0.27 Z"/></mask></defs><g><path fill="#595757" fill-opacity=".078" fill-rule="nonzero" stroke="none" d="M 19.9300000000001 0.27 C 19.9300000000001 0.27 35.73 0.27 35.73 0.27 C 46.6300000000001 0.27 55.4300000000001 9.67 55.4300000000001 21.37 C 55.4300000000001 21.37 55.4300000000001 38.07 55.4300000000001 38.07 C 55.4300000000001 49.67 46.6300000000001 59.07 35.73 59.07 C 35.73 59.07 19.9300000000001 59.07 19.9300000000001 59.07 C 9.02999999999997 59.07 0.230000000000018 49.67 0.230000000000018 38.07 C 0.230000000000018 38.07 0.230000000000018 21.37 0.230000000000018 21.37 C 0.230000000000018 9.67 9.02999999999997 0.27 19.9300000000001 0.27 Z" transform="matrix(1 0 0 1 -1145 -12411 ) matrix(1 0 0 1 1145 12411 )"/><path fill="none" stroke="#595757" stroke-opacity=".059" stroke-width="2" d="M 19.9300000000001 0.27 C 19.9300000000001 0.27 35.73 0.27 35.73 0.27 C 46.6300000000001 0.27 55.4300000000001 9.67 55.4300000000001 21.37 C 55.4300000000001 21.37 55.4300000000001 38.07 55.4300000000001 38.07 C 55.4300000000001 49.67 46.6300000000001 59.07 35.73 59.07 C 35.73 59.07 19.9300000000001 59.07 19.9300000000001 59.07 C 9.02999999999997 59.07 0.230000000000018 49.67 0.230000000000018 38.07 C 0.230000000000018 38.07 0.230000000000018 21.37 0.230000000000018 21.37 C 0.230000000000018 9.67 9.02999999999997 0.27 19.9300000000001 0.27 Z" mask="url(#clip2087)" transform="matrix(1 0 0 1 -1145 -12411 ) matrix(1 0 0 1 1145 12411 )"/></g></svg>