<svg xmlns="http://www.w3.org/2000/svg" xmlns:xlink="http://www.w3.org/1999/xlink" width="9" height="29" version="1.1"><defs><mask id="clip1825" fill="#fff"><path fill-rule="evenodd" d="M 0.149999999999977 0.460000000000036 C 0.149999999999977 0.460000000000036 0.149999999999977 28.0600000000001 0.149999999999977 28.0600000000001 C 0.149999999999977 28.0600000000001 8.04999999999995 28.0600000000001 8.04999999999995 28.0600000000001 C 8.04999999999995 28.0600000000001 8.04999999999995 0.460000000000036 8.04999999999995 0.460000000000036 C 8.04999999999995 0.460000000000036 0.149999999999977 0.460000000000036 0.149999999999977 0.460000000000036 Z"/></mask></defs><g><path fill="#fff" fill-rule="nonzero" stroke="none" d="M 0.149999999999977 0.460000000000036 C 0.149999999999977 0.460000000000036 0.149999999999977 28.0600000000001 0.149999999999977 28.0600000000001 C 0.149999999999977 28.0600000000001 8.04999999999995 28.0600000000001 8.04999999999995 28.0600000000001 C 8.04999999999995 28.0600000000001 8.04999999999995 0.460000000000036 8.04999999999995 0.460000000000036 C 8.04999999999995 0.460000000000036 0.149999999999977 0.460000000000036 0.149999999999977 0.460000000000036 Z" transform="matrix(1 0 0 1 -432 -7061 ) matrix(1 0 0 1 432 7061 )"/><path fill="none" stroke="#fff" stroke-width="2" d="M 0.149999999999977 0.460000000000036 C 0.149999999999977 0.460000000000036 0.149999999999977 28.0600000000001 0.149999999999977 28.0600000000001 C 0.149999999999977 28.0600000000001 8.04999999999995 28.0600000000001 8.04999999999995 28.0600000000001 C 8.04999999999995 28.0600000000001 8.04999999999995 0.460000000000036 8.04999999999995 0.460000000000036 C 8.04999999999995 0.460000000000036 0.149999999999977 0.460000000000036 0.149999999999977 0.460000000000036 Z" mask="url(#clip1825)" transform="matrix(1 0 0 1 -432 -7061 ) matrix(1 0 0 1 432 7061 )"/></g></svg>