<?xml version="1.0" encoding="utf-8"?>
<svg version="1.1" xmlns:xlink="http://www.w3.org/1999/xlink" width="84px" height="110px" xmlns="http://www.w3.org/2000/svg">
  <defs>
    <mask fill="white" id="clip1133">
      <path d="M 1.11000000000001 8.16  C 1.11000000000001 8.16  0.110000000000014 1.05999999999997  0.110000000000014 1.05999999999997  C 3.40999999999997 0.559999999999974  6.81000000000006 0.359999999999985  10.21 0.359999999999985  C 50.01 0.359999999999985  83.21 33.66  83.21 73.46  C 83.21 86.56  79.71 98.86  73.61 109.46  C 73.61 109.46  67.4100000000001 105.86  67.4100000000001 105.86  C 72.9100000000001 96.36  76.01 85.26  76.01 73.46  C 76.01 37.56  46.01 7.55999999999997  10.21 7.55999999999997  C 7.11000000000001 7.55999999999997  4.11000000000001 7.75999999999999  1.11000000000001 8.16  Z " fill-rule="evenodd" />
    </mask>
  </defs>
  <g transform="matrix(1 0 0 1 -659 -17167 )">
    <path d="M 1.11000000000001 8.16  C 1.11000000000001 8.16  0.110000000000014 1.05999999999997  0.110000000000014 1.05999999999997  C 3.40999999999997 0.559999999999974  6.81000000000006 0.359999999999985  10.21 0.359999999999985  C 50.01 0.359999999999985  83.21 33.66  83.21 73.46  C 83.21 86.56  79.71 98.86  73.61 109.46  C 73.61 109.46  67.4100000000001 105.86  67.4100000000001 105.86  C 72.9100000000001 96.36  76.01 85.26  76.01 73.46  C 76.01 37.56  46.01 7.55999999999997  10.21 7.55999999999997  C 7.11000000000001 7.55999999999997  4.11000000000001 7.75999999999999  1.11000000000001 8.16  Z " fill-rule="nonzero" fill="#eea300" stroke="none" transform="matrix(1 0 0 1 659 17167 )" />
    <path d="M 1.11000000000001 8.16  C 1.11000000000001 8.16  0.110000000000014 1.05999999999997  0.110000000000014 1.05999999999997  C 3.40999999999997 0.559999999999974  6.81000000000006 0.359999999999985  10.21 0.359999999999985  C 50.01 0.359999999999985  83.21 33.66  83.21 73.46  C 83.21 86.56  79.71 98.86  73.61 109.46  C 73.61 109.46  67.4100000000001 105.86  67.4100000000001 105.86  C 72.9100000000001 96.36  76.01 85.26  76.01 73.46  C 76.01 37.56  46.01 7.55999999999997  10.21 7.55999999999997  C 7.11000000000001 7.55999999999997  4.11000000000001 7.75999999999999  1.11000000000001 8.16  Z " stroke-width="2" stroke="#eea300" fill="none" transform="matrix(1 0 0 1 659 17167 )" mask="url(#clip1133)" />
  </g>
</svg>