<svg xmlns="http://www.w3.org/2000/svg" xmlns:xlink="http://www.w3.org/1999/xlink" width="46" height="90" version="1.1"><defs><mask id="clip1804" fill="#fff"><path fill-rule="evenodd" d="M 45.86 80 C 45.86 80 45.86 90 45.86 90 C 21.46 90 0.660000000000025 70.2 0.660000000000025 45.8 C 0.660000000000025 21.7 21.0600000000001 1 45.0600000000001 0.600000000000023 C 45.0600000000001 0.600000000000023 45.26 10.6 45.26 10.6 C 26.6600000000001 10.9 10.66 27.1 10.66 45.8 C 10.66 64.7 26.96 80 45.86 80 Z"/></mask></defs><g><path fill="#34c2c2" fill-rule="nonzero" stroke="none" d="M 45.86 80 C 45.86 80 45.86 90 45.86 90 C 21.46 90 0.660000000000025 70.2 0.660000000000025 45.8 C 0.660000000000025 21.7 21.0600000000001 1 45.0600000000001 0.600000000000023 C 45.0600000000001 0.600000000000023 45.26 10.6 45.26 10.6 C 26.6600000000001 10.9 10.66 27.1 10.66 45.8 C 10.66 64.7 26.96 80 45.86 80 Z" transform="matrix(1 0 0 1 -580 -7154 ) matrix(1 0 0 1 580 7154 )"/><path fill="none" stroke="#34c2c2" stroke-width="2" d="M 45.86 80 C 45.86 80 45.86 90 45.86 90 C 21.46 90 0.660000000000025 70.2 0.660000000000025 45.8 C 0.660000000000025 21.7 21.0600000000001 1 45.0600000000001 0.600000000000023 C 45.0600000000001 0.600000000000023 45.26 10.6 45.26 10.6 C 26.6600000000001 10.9 10.66 27.1 10.66 45.8 C 10.66 64.7 26.96 80 45.86 80 Z" mask="url(#clip1804)" transform="matrix(1 0 0 1 -580 -7154 ) matrix(1 0 0 1 580 7154 )"/></g></svg>