<svg xmlns="http://www.w3.org/2000/svg" xmlns:xlink="http://www.w3.org/1999/xlink" width="21" height="21" version="1.1"><defs><mask id="clip1738" fill="#fff"><path fill-rule="evenodd" d="M 10.715 20.655 C 10.715 20.655 0.564999999999998 10.755 0.564999999999998 10.755 C 0.564999999999998 10.755 10.715 0.605000000000018 10.715 0.605000000000018 C 10.715 0.605000000000018 20.615 10.755 20.615 10.755 C 20.615 10.755 10.715 20.655 10.715 20.655 Z"/></mask></defs><g><path fill="#fb9d53" fill-rule="nonzero" stroke="none" d="M 10.715 20.655 C 10.715 20.655 0.564999999999998 10.755 0.564999999999998 10.755 C 0.564999999999998 10.755 10.715 0.605000000000018 10.715 0.605000000000018 C 10.715 0.605000000000018 20.615 10.755 20.615 10.755 C 20.615 10.755 10.715 20.655 10.715 20.655 Z" transform="matrix(1 0 0 1 -207 -4531 ) matrix(1 0 0 1 207 4531 )"/><path fill="none" stroke="#fb9d53" stroke-width=".5" d="M 10.715 20.655 C 10.715 20.655 0.564999999999998 10.755 0.564999999999998 10.755 C 0.564999999999998 10.755 10.715 0.605000000000018 10.715 0.605000000000018 C 10.715 0.605000000000018 20.615 10.755 20.615 10.755 C 20.615 10.755 10.715 20.655 10.715 20.655 Z" mask="url(#clip1738)" transform="matrix(1 0 0 1 -207 -4531 ) matrix(1 0 0 1 207 4531 )"/></g></svg>