<svg xmlns="http://www.w3.org/2000/svg" xmlns:xlink="http://www.w3.org/1999/xlink" width="122" height="122" version="1.1"><defs><mask id="clip2674" fill="#fff"><path fill-rule="evenodd" d="M 60.49 121.32 C 27.39 121.32 0.489999999999995 93.42 0.489999999999995 60.22 C 0.489999999999995 27.12 27.39 0.219999999999999 60.49 0.219999999999999 C 93.69 0.219999999999999 121.59 27.12 121.59 60.22 C 121.59 93.42 93.69 121.32 60.49 121.32 Z"/></mask></defs><g><path fill="#fff" fill-opacity="0" fill-rule="nonzero" stroke="none" d="M 60.49 121.32 C 27.39 121.32 0.489999999999995 93.42 0.489999999999995 60.22 C 0.489999999999995 27.12 27.39 0.219999999999999 60.49 0.219999999999999 C 93.69 0.219999999999999 121.59 27.12 121.59 60.22 C 121.59 93.42 93.69 121.32 60.49 121.32 Z" transform="matrix(1 0 0 1 -211 -18990 ) matrix(1 0 0 1 211 18990 )"/><path fill="none" stroke="#fc5c57" stroke-width="2" d="M 60.49 121.32 C 27.39 121.32 0.489999999999995 93.42 0.489999999999995 60.22 C 0.489999999999995 27.12 27.39 0.219999999999999 60.49 0.219999999999999 C 93.69 0.219999999999999 121.59 27.12 121.59 60.22 C 121.59 93.42 93.69 121.32 60.49 121.32 Z" mask="url(#clip2674)" transform="matrix(1 0 0 1 -211 -18990 ) matrix(1 0 0 1 211 18990 )"/></g></svg>