<svg xmlns="http://www.w3.org/2000/svg" xmlns:xlink="http://www.w3.org/1999/xlink" width="162" height="16" version="1.1"><defs><linearGradient id="LinearGradient2520" x1="1.41" x2="1.41" y1=".55" y2="14.65" gradientUnits="userSpaceOnUse"><stop id="Stop2521" offset="0" stop-color="#a1d979"/><stop id="Stop2522" offset=".2" stop-color="#8acf57"/><stop id="Stop2523" offset="1" stop-color="#6cb734"/></linearGradient><mask id="clip2524" fill="#fff"><path fill-rule="evenodd" d="M 0.909999999999968 15.15 C 0.909999999999968 15.15 0.909999999999968 0.0499999999999829 0.909999999999968 0.0499999999999829 C 0.909999999999968 0.0499999999999829 161.61 0.0499999999999829 161.61 0.0499999999999829 C 161.61 0.0499999999999829 161.61 15.15 161.61 15.15 C 161.61 15.15 0.909999999999968 15.15 0.909999999999968 15.15 Z"/></mask></defs><g><path fill="url(#LinearGradient2520)" fill-rule="nonzero" stroke="none" d="M 0.909999999999968 15.15 C 0.909999999999968 15.15 0.909999999999968 0.0499999999999829 0.909999999999968 0.0499999999999829 C 0.909999999999968 0.0499999999999829 161.61 0.0499999999999829 161.61 0.0499999999999829 C 161.61 0.0499999999999829 161.61 15.15 161.61 15.15 C 161.61 15.15 0.909999999999968 15.15 0.909999999999968 15.15 Z" transform="matrix(1 0 0 1 -890 -17167 ) matrix(1 0 0 1 890 17167 )"/><path fill="none" stroke="#787878" stroke-width="2" d="M 0.909999999999968 15.15 C 0.909999999999968 15.15 0.909999999999968 0.0499999999999829 0.909999999999968 0.0499999999999829 C 0.909999999999968 0.0499999999999829 161.61 0.0499999999999829 161.61 0.0499999999999829 C 161.61 0.0499999999999829 161.61 15.15 161.61 15.15 C 161.61 15.15 0.909999999999968 15.15 0.909999999999968 15.15 Z" mask="url(#clip2524)" transform="matrix(1 0 0 1 -890 -17167 ) matrix(1 0 0 1 890 17167 )"/></g></svg>