<?xml version="1.0" encoding="utf-8"?>
<svg version="1.1" xmlns:xlink="http://www.w3.org/1999/xlink" width="25px" height="25px" xmlns="http://www.w3.org/2000/svg">
  <defs>
    <mask fill="white" id="clip1794">
      <path d="M 0.970000000000027 24.52  C 0.970000000000027 24.52  0.970000000000027 0.920000000000002  0.970000000000027 0.920000000000002  C 0.970000000000027 0.920000000000002  24.5700000000001 0.920000000000002  24.5700000000001 0.920000000000002  C 24.5700000000001 0.920000000000002  24.5700000000001 24.52  24.5700000000001 24.52  C 24.5700000000001 24.52  0.970000000000027 24.52  0.970000000000027 24.52  Z " fill-rule="evenodd" />
    </mask>
  </defs>
  <g transform="matrix(1 0 0 1 -380 -7814 )">
    <path d="M 0.970000000000027 24.52  C 0.970000000000027 24.52  0.970000000000027 0.920000000000002  0.970000000000027 0.920000000000002  C 0.970000000000027 0.920000000000002  24.5700000000001 0.920000000000002  24.5700000000001 0.920000000000002  C 24.5700000000001 0.920000000000002  24.5700000000001 24.52  24.5700000000001 24.52  C 24.5700000000001 24.52  0.970000000000027 24.52  0.970000000000027 24.52  Z " fill-rule="nonzero" fill="#ffffff" stroke="none" transform="matrix(1 0 0 1 380 7814 )" />
    <path d="M 0.970000000000027 24.52  C 0.970000000000027 24.52  0.970000000000027 0.920000000000002  0.970000000000027 0.920000000000002  C 0.970000000000027 0.920000000000002  24.5700000000001 0.920000000000002  24.5700000000001 0.920000000000002  C 24.5700000000001 0.920000000000002  24.5700000000001 24.52  24.5700000000001 24.52  C 24.5700000000001 24.52  0.970000000000027 24.52  0.970000000000027 24.52  Z " stroke-width="2" stroke="#ffffff" fill="none" transform="matrix(1 0 0 1 380 7814 )" mask="url(#clip1794)" />
  </g>
</svg>