<?xml version="1.0" encoding="utf-8"?>
<svg version="1.1" xmlns:xlink="http://www.w3.org/1999/xlink" width="390px" height="271px" xmlns="http://www.w3.org/2000/svg">
  <defs>
    <mask fill="white" id="clip827">
      <path d="M 11.67 270.11  C 11.67 270.11  378.37 270.11  378.37 270.11  C 384.67 270.11  389.67 265.01  389.67 258.81  C 389.67 258.81  389.67 11.31  389.67 11.31  C 389.67 5.10999999999999  384.67 0.00999999999999091  378.37 0.00999999999999091  C 378.37 0.00999999999999091  11.67 0.00999999999999091  11.67 0.00999999999999091  C 5.47000000000001 0.00999999999999091  0.370000000000005 5.10999999999999  0.370000000000005 11.31  C 0.370000000000005 11.31  0.370000000000005 258.81  0.370000000000005 258.81  C 0.370000000000005 265.01  5.47000000000001 270.11  11.67 270.11  Z " fill-rule="evenodd" />
    </mask>
  </defs>
  <g transform="matrix(1 0 0 1 -116 -14416 )">
    <path d="M 11.67 270.11  C 11.67 270.11  378.37 270.11  378.37 270.11  C 384.67 270.11  389.67 265.01  389.67 258.81  C 389.67 258.81  389.67 11.31  389.67 11.31  C 389.67 5.10999999999999  384.67 0.00999999999999091  378.37 0.00999999999999091  C 378.37 0.00999999999999091  11.67 0.00999999999999091  11.67 0.00999999999999091  C 5.47000000000001 0.00999999999999091  0.370000000000005 5.10999999999999  0.370000000000005 11.31  C 0.370000000000005 11.31  0.370000000000005 258.81  0.370000000000005 258.81  C 0.370000000000005 265.01  5.47000000000001 270.11  11.67 270.11  Z " fill-rule="nonzero" fill="#f0f0f0" stroke="none" transform="matrix(1 0 0 1 116 14416 )" />
    <path d="M 11.67 270.11  C 11.67 270.11  378.37 270.11  378.37 270.11  C 384.67 270.11  389.67 265.01  389.67 258.81  C 389.67 258.81  389.67 11.31  389.67 11.31  C 389.67 5.10999999999999  384.67 0.00999999999999091  378.37 0.00999999999999091  C 378.37 0.00999999999999091  11.67 0.00999999999999091  11.67 0.00999999999999091  C 5.47000000000001 0.00999999999999091  0.370000000000005 5.10999999999999  0.370000000000005 11.31  C 0.370000000000005 11.31  0.370000000000005 258.81  0.370000000000005 258.81  C 0.370000000000005 265.01  5.47000000000001 270.11  11.67 270.11  Z " stroke-width="2" stroke="#eeeeee" fill="none" transform="matrix(1 0 0 1 116 14416 )" mask="url(#clip827)" />
  </g>
</svg>