<?xml version="1.0" encoding="utf-8"?>
<svg version="1.1" xmlns:xlink="http://www.w3.org/1999/xlink" width="214px" height="167px" xmlns="http://www.w3.org/2000/svg">
  <defs>
    <linearGradient gradientUnits="userSpaceOnUse" x1="-11.5700000000001" y1="28.3" x2="225.43" y2="139.3" id="LinearGradient867">
      <stop id="Stop868" stop-color="#ffffff" offset="0" />
      <stop id="Stop869" stop-color="#e0e0e0" offset="0.2" />
      <stop id="Stop870" stop-color="#7d7d7d" offset="0.85" />
      <stop id="Stop871" stop-color="#7d7d7d" offset="1" />
    </linearGradient>
    <mask fill="white" id="clip872">
      <path d="M 18.73 166.9  C 7.23000000000002 150  0.930000000000007 128.8  0.930000000000007 107.6  C 0.930000000000007 49.2  48.33 0.800000000000011  106.73 0.800000000000011  C 165.23 0.800000000000011  213.63 49.2  213.63 107.6  C 213.63 128.8  207.23 150  195.83 166.9  C 195.83 166.9  18.73 166.9  18.73 166.9  Z " fill-rule="evenodd" />
    </mask>
  </defs>
  <g transform="matrix(1 0 0 1 -543 -16331 )">
    <path d="M 18.73 166.9  C 7.23000000000002 150  0.930000000000007 128.8  0.930000000000007 107.6  C 0.930000000000007 49.2  48.33 0.800000000000011  106.73 0.800000000000011  C 165.23 0.800000000000011  213.63 49.2  213.63 107.6  C 213.63 128.8  207.23 150  195.83 166.9  C 195.83 166.9  18.73 166.9  18.73 166.9  Z " fill-rule="nonzero" fill="url(#LinearGradient867)" stroke="none" transform="matrix(1 0 0 1 543 16331 )" />
    <path d="M 18.73 166.9  C 7.23000000000002 150  0.930000000000007 128.8  0.930000000000007 107.6  C 0.930000000000007 49.2  48.33 0.800000000000011  106.73 0.800000000000011  C 165.23 0.800000000000011  213.63 49.2  213.63 107.6  C 213.63 128.8  207.23 150  195.83 166.9  C 195.83 166.9  18.73 166.9  18.73 166.9  Z " stroke-width="2" stroke="#909090" fill="none" transform="matrix(1 0 0 1 543 16331 )" mask="url(#clip872)" />
  </g>
</svg>