<svg xmlns="http://www.w3.org/2000/svg" xmlns:xlink="http://www.w3.org/1999/xlink" width="57" height="60" version="1.1"><defs><mask id="clip2083" fill="#fff"><path fill-rule="evenodd" d="M 36.4 0.379999999999995 C 36.4 0.379999999999995 20.6 0.379999999999995 20.6 0.379999999999995 C 9.70000000000002 0.379999999999995 0.900000000000006 9.78 0.900000000000006 21.48 C 0.900000000000006 21.48 0.900000000000006 38.18 0.900000000000006 38.18 C 0.900000000000006 49.78 9.70000000000002 59.18 20.6 59.18 C 20.6 59.18 36.4 59.18 36.4 59.18 C 47.3 59.18 56.1 49.78 56.1 38.18 C 56.1 38.18 56.1 21.48 56.1 21.48 C 56.1 9.78 47.3 0.379999999999995 36.4 0.379999999999995 Z"/></mask></defs><g><path fill="#dcdcdd" fill-opacity=".078" fill-rule="nonzero" stroke="none" d="M 36.4 0.379999999999995 C 36.4 0.379999999999995 20.6 0.379999999999995 20.6 0.379999999999995 C 9.70000000000002 0.379999999999995 0.900000000000006 9.78 0.900000000000006 21.48 C 0.900000000000006 21.48 0.900000000000006 38.18 0.900000000000006 38.18 C 0.900000000000006 49.78 9.70000000000002 59.18 20.6 59.18 C 20.6 59.18 36.4 59.18 36.4 59.18 C 47.3 59.18 56.1 49.78 56.1 38.18 C 56.1 38.18 56.1 21.48 56.1 21.48 C 56.1 9.78 47.3 0.379999999999995 36.4 0.379999999999995 Z" transform="matrix(1 0 0 1 -223 -12473 ) matrix(1 0 0 1 223 12473 )"/><path fill="none" stroke="#dcdcdd" stroke-opacity=".059" stroke-width="2" d="M 36.4 0.379999999999995 C 36.4 0.379999999999995 20.6 0.379999999999995 20.6 0.379999999999995 C 9.70000000000002 0.379999999999995 0.900000000000006 9.78 0.900000000000006 21.48 C 0.900000000000006 21.48 0.900000000000006 38.18 0.900000000000006 38.18 C 0.900000000000006 49.78 9.70000000000002 59.18 20.6 59.18 C 20.6 59.18 36.4 59.18 36.4 59.18 C 47.3 59.18 56.1 49.78 56.1 38.18 C 56.1 38.18 56.1 21.48 56.1 21.48 C 56.1 9.78 47.3 0.379999999999995 36.4 0.379999999999995 Z" mask="url(#clip2083)" transform="matrix(1 0 0 1 -223 -12473 ) matrix(1 0 0 1 223 12473 )"/></g></svg>