<svg xmlns="http://www.w3.org/2000/svg" xmlns:xlink="http://www.w3.org/1999/xlink" width="56" height="60" version="1.1"><defs><mask id="clip2084" fill="#fff"><path fill-rule="evenodd" d="M 35.64 0.27 C 35.64 0.27 19.84 0.27 19.84 0.27 C 8.94 0.27 0.139999999999986 9.67 0.139999999999986 21.37 C 0.139999999999986 21.37 0.139999999999986 38.07 0.139999999999986 38.07 C 0.139999999999986 49.67 8.94 59.07 19.84 59.07 C 19.84 59.07 35.64 59.07 35.64 59.07 C 46.54 59.07 55.34 49.67 55.34 38.07 C 55.34 38.07 55.34 21.37 55.34 21.37 C 55.34 9.67 46.54 0.27 35.64 0.27 Z"/></mask></defs><g><path fill="#dcdcdd" fill-opacity=".078" fill-rule="nonzero" stroke="none" d="M 35.64 0.27 C 35.64 0.27 19.84 0.27 19.84 0.27 C 8.94 0.27 0.139999999999986 9.67 0.139999999999986 21.37 C 0.139999999999986 21.37 0.139999999999986 38.07 0.139999999999986 38.07 C 0.139999999999986 49.67 8.94 59.07 19.84 59.07 C 19.84 59.07 35.64 59.07 35.64 59.07 C 46.54 59.07 55.34 49.67 55.34 38.07 C 55.34 38.07 55.34 21.37 55.34 21.37 C 55.34 9.67 46.54 0.27 35.64 0.27 Z" transform="matrix(1 0 0 1 -285 -12411 ) matrix(1 0 0 1 285 12411 )"/><path fill="none" stroke="#dcdcdd" stroke-opacity=".059" stroke-width="2" d="M 35.64 0.27 C 35.64 0.27 19.84 0.27 19.84 0.27 C 8.94 0.27 0.139999999999986 9.67 0.139999999999986 21.37 C 0.139999999999986 21.37 0.139999999999986 38.07 0.139999999999986 38.07 C 0.139999999999986 49.67 8.94 59.07 19.84 59.07 C 19.84 59.07 35.64 59.07 35.64 59.07 C 46.54 59.07 55.34 49.67 55.34 38.07 C 55.34 38.07 55.34 21.37 55.34 21.37 C 55.34 9.67 46.54 0.27 35.64 0.27 Z" mask="url(#clip2084)" transform="matrix(1 0 0 1 -285 -12411 ) matrix(1 0 0 1 285 12411 )"/></g></svg>