<svg xmlns="http://www.w3.org/2000/svg" xmlns:xlink="http://www.w3.org/1999/xlink" width="56" height="60" version="1.1"><defs><mask id="clip2085" fill="#fff"><path fill-rule="evenodd" d="M 36.15 0.77000000000001 C 36.15 0.77000000000001 20.35 0.77000000000001 20.35 0.77000000000001 C 9.45 0.77000000000001 0.650000000000006 10.17 0.650000000000006 21.87 C 0.650000000000006 21.87 0.650000000000006 38.57 0.650000000000006 38.57 C 0.650000000000006 50.17 9.45 59.57 20.35 59.57 C 20.35 59.57 36.15 59.57 36.15 59.57 C 47.05 59.57 55.85 50.17 55.85 38.57 C 55.85 38.57 55.85 21.87 55.85 21.87 C 55.85 10.17 47.05 0.77000000000001 36.15 0.77000000000001 Z"/></mask></defs><g><path fill="#dcdcdd" fill-opacity=".078" fill-rule="nonzero" stroke="none" d="M 36.15 0.77000000000001 C 36.15 0.77000000000001 20.35 0.77000000000001 20.35 0.77000000000001 C 9.45 0.77000000000001 0.650000000000006 10.17 0.650000000000006 21.87 C 0.650000000000006 21.87 0.650000000000006 38.57 0.650000000000006 38.57 C 0.650000000000006 50.17 9.45 59.57 20.35 59.57 C 20.35 59.57 36.15 59.57 36.15 59.57 C 47.05 59.57 55.85 50.17 55.85 38.57 C 55.85 38.57 55.85 21.87 55.85 21.87 C 55.85 10.17 47.05 0.77000000000001 36.15 0.77000000000001 Z" transform="matrix(1 0 0 1 -162 -12539 ) matrix(1 0 0 1 162 12539 )"/><path fill="none" stroke="#dcdcdd" stroke-opacity=".059" stroke-width="2" d="M 36.15 0.77000000000001 C 36.15 0.77000000000001 20.35 0.77000000000001 20.35 0.77000000000001 C 9.45 0.77000000000001 0.650000000000006 10.17 0.650000000000006 21.87 C 0.650000000000006 21.87 0.650000000000006 38.57 0.650000000000006 38.57 C 0.650000000000006 50.17 9.45 59.57 20.35 59.57 C 20.35 59.57 36.15 59.57 36.15 59.57 C 47.05 59.57 55.85 50.17 55.85 38.57 C 55.85 38.57 55.85 21.87 55.85 21.87 C 55.85 10.17 47.05 0.77000000000001 36.15 0.77000000000001 Z" mask="url(#clip2085)" transform="matrix(1 0 0 1 -162 -12539 ) matrix(1 0 0 1 162 12539 )"/></g></svg>