<?xml version="1.0" encoding="utf-8"?>
<svg version="1.1" xmlns:xlink="http://www.w3.org/1999/xlink" width="34px" height="28px" xmlns="http://www.w3.org/2000/svg">
  <defs>
    <mask fill="white" id="clip386">
      <path d="M 10.8199999999999 27.66  C 10.8199999999999 27.66  23.3199999999999 27.46  23.3199999999999 27.46  C 23.3199999999999 27.46  23.2199999999999 7.56  23.2199999999999 7.56  C 23.2199999999999 7.56  29.52 20.06  29.52 20.06  C 29.52 20.06  29.2199999999999 21.26  31.52 21.26  C 33.92 21.26  33.7199999999999 19.16  33.7199999999999 19.16  C 33.7199999999999 19.16  28.2199999999999 5.46000000000001  25.8199999999999 2.96000000000001  C 23.3199999999999 0.360000000000014  20.62 0.0600000000000023  20.62 0.0600000000000023  C 20.62 0.0600000000000023  13.2199999999999 0.0600000000000023  13.2199999999999 0.0600000000000023  C 13.2199999999999 0.0600000000000023  11.3199999999999 0.460000000000008  8.31999999999994 3.25999999999999  C 5.41999999999996 6.06  0.419999999999959 20.36  0.419999999999959 20.36  C 0.419999999999959 20.36  0.120000000000005 21.36  1.91999999999996 21.86  C 3.91999999999996 22.46  4.51999999999998 20.86  4.51999999999998 20.86  C 4.51999999999998 20.86  10.02 7.36000000000001  10.02 7.36000000000001  C 10.02 7.36000000000001  10.8199999999999 27.66  10.8199999999999 27.66  Z " fill-rule="evenodd" />
    </mask>
  </defs>
  <g transform="matrix(1 0 0 1 -904 -6983 )">
    <path d="M 10.8199999999999 27.66  C 10.8199999999999 27.66  23.3199999999999 27.46  23.3199999999999 27.46  C 23.3199999999999 27.46  23.2199999999999 7.56  23.2199999999999 7.56  C 23.2199999999999 7.56  29.52 20.06  29.52 20.06  C 29.52 20.06  29.2199999999999 21.26  31.52 21.26  C 33.92 21.26  33.7199999999999 19.16  33.7199999999999 19.16  C 33.7199999999999 19.16  28.2199999999999 5.46000000000001  25.8199999999999 2.96000000000001  C 23.3199999999999 0.360000000000014  20.62 0.0600000000000023  20.62 0.0600000000000023  C 20.62 0.0600000000000023  13.2199999999999 0.0600000000000023  13.2199999999999 0.0600000000000023  C 13.2199999999999 0.0600000000000023  11.3199999999999 0.460000000000008  8.31999999999994 3.25999999999999  C 5.41999999999996 6.06  0.419999999999959 20.36  0.419999999999959 20.36  C 0.419999999999959 20.36  0.120000000000005 21.36  1.91999999999996 21.86  C 3.91999999999996 22.46  4.51999999999998 20.86  4.51999999999998 20.86  C 4.51999999999998 20.86  10.02 7.36000000000001  10.02 7.36000000000001  C 10.02 7.36000000000001  10.8199999999999 27.66  10.8199999999999 27.66  Z " fill-rule="nonzero" fill="#00ae9d" stroke="none" transform="matrix(1 0 0 1 904 6983 )" />
    <path d="M 10.8199999999999 27.66  C 10.8199999999999 27.66  23.3199999999999 27.46  23.3199999999999 27.46  C 23.3199999999999 27.46  23.2199999999999 7.56  23.2199999999999 7.56  C 23.2199999999999 7.56  29.52 20.06  29.52 20.06  C 29.52 20.06  29.2199999999999 21.26  31.52 21.26  C 33.92 21.26  33.7199999999999 19.16  33.7199999999999 19.16  C 33.7199999999999 19.16  28.2199999999999 5.46000000000001  25.8199999999999 2.96000000000001  C 23.3199999999999 0.360000000000014  20.62 0.0600000000000023  20.62 0.0600000000000023  C 20.62 0.0600000000000023  13.2199999999999 0.0600000000000023  13.2199999999999 0.0600000000000023  C 13.2199999999999 0.0600000000000023  11.3199999999999 0.460000000000008  8.31999999999994 3.25999999999999  C 5.41999999999996 6.06  0.419999999999959 20.36  0.419999999999959 20.36  C 0.419999999999959 20.36  0.120000000000005 21.36  1.91999999999996 21.86  C 3.91999999999996 22.46  4.51999999999998 20.86  4.51999999999998 20.86  C 4.51999999999998 20.86  10.02 7.36000000000001  10.02 7.36000000000001  C 10.02 7.36000000000001  10.8199999999999 27.66  10.8199999999999 27.66  Z " stroke-width="2" stroke="#00ae9d" fill="none" transform="matrix(1 0 0 1 904 6983 )" mask="url(#clip386)" />
  </g>
</svg>