<?xml version="1.0" encoding="utf-8"?>
<svg version="1.1" xmlns:xlink="http://www.w3.org/1999/xlink" width="162px" height="127px" xmlns="http://www.w3.org/2000/svg">
  <defs>
    <linearGradient gradientUnits="userSpaceOnUse" x1="310.51" y1="433.55" x2="490.51" y2="516.55" id="LinearGradient1060">
      <stop id="Stop1061" stop-color="#ffffff" offset="0" />
      <stop id="Stop1062" stop-color="#e0e0e0" offset="0.2" />
      <stop id="Stop1063" stop-color="#7d7d7d" offset="0.85" />
      <stop id="Stop1064" stop-color="#7d7d7d" offset="1" />
    </linearGradient>
    <mask fill="white" id="clip1065">
      <path d="M 13.6 126.25  C 4.90000000000003 113.45  0.100000000000023 97.45  0.100000000000023 81.45  C 0.100000000000023 37.25  37 0.349999999999994  81.2 0.349999999999994  C 125.4 0.349999999999994  161.3 37.25  161.3 81.45  C 161.3 97.45  156.5 113.45  147.8 126.25  C 147.8 126.25  13.6 126.25  13.6 126.25  Z " fill-rule="evenodd" />
    </mask>
  </defs>
  <g transform="matrix(1 0 0 1 -589 -17159 )">
    <path d="M 13.6 126.25  C 4.90000000000003 113.45  0.100000000000023 97.45  0.100000000000023 81.45  C 0.100000000000023 37.25  37 0.349999999999994  81.2 0.349999999999994  C 125.4 0.349999999999994  161.3 37.25  161.3 81.45  C 161.3 97.45  156.5 113.45  147.8 126.25  C 147.8 126.25  13.6 126.25  13.6 126.25  Z " fill-rule="nonzero" fill="url(#LinearGradient1060)" stroke="none" transform="matrix(1 0 0 1 589 17159 )" />
    <path d="M 13.6 126.25  C 4.90000000000003 113.45  0.100000000000023 97.45  0.100000000000023 81.45  C 0.100000000000023 37.25  37 0.349999999999994  81.2 0.349999999999994  C 125.4 0.349999999999994  161.3 37.25  161.3 81.45  C 161.3 97.45  156.5 113.45  147.8 126.25  C 147.8 126.25  13.6 126.25  13.6 126.25  Z " stroke-width="2" stroke="#909090" fill="none" transform="matrix(1 0 0 1 589 17159 )" mask="url(#clip1065)" />
  </g>
</svg>