<svg xmlns="http://www.w3.org/2000/svg" xmlns:xlink="http://www.w3.org/1999/xlink" width="4" height="4" version="1.1"><defs><mask id="clip1840" fill="#fff"><path fill-rule="evenodd" d="M 2.36999999999995 0.889999999999986 C 2.76999999999998 0.889999999999986 3.06999999999994 2.19 3.06999999999994 2.58999999999998 C 3.06999999999994 2.99000000000001 2.76999999999998 3.28999999999996 2.36999999999995 3.28999999999996 C 1.96999999999997 3.28999999999996 0.669999999999959 2.99000000000001 0.669999999999959 2.58999999999998 C 0.669999999999959 2.19 1.96999999999997 0.889999999999986 2.36999999999995 0.889999999999986 Z"/></mask></defs><g><path fill="#fff" fill-rule="nonzero" stroke="none" d="M 2.36999999999995 0.889999999999986 C 2.76999999999998 0.889999999999986 3.06999999999994 2.19 3.06999999999994 2.58999999999998 C 3.06999999999994 2.99000000000001 2.76999999999998 3.28999999999996 2.36999999999995 3.28999999999996 C 1.96999999999997 3.28999999999996 0.669999999999959 2.99000000000001 0.669999999999959 2.58999999999998 C 0.669999999999959 2.19 1.96999999999997 0.889999999999986 2.36999999999995 0.889999999999986 Z" transform="matrix(1 0 0 1 -424 -7224 ) matrix(1 0 0 1 424 7224 )"/><path fill="none" stroke="#fff" stroke-width="2" d="M 2.36999999999995 0.889999999999986 C 2.76999999999998 0.889999999999986 3.06999999999994 2.19 3.06999999999994 2.58999999999998 C 3.06999999999994 2.99000000000001 2.76999999999998 3.28999999999996 2.36999999999995 3.28999999999996 C 1.96999999999997 3.28999999999996 0.669999999999959 2.99000000000001 0.669999999999959 2.58999999999998 C 0.669999999999959 2.19 1.96999999999997 0.889999999999986 2.36999999999995 0.889999999999986 Z" mask="url(#clip1840)" transform="matrix(1 0 0 1 -424 -7224 ) matrix(1 0 0 1 424 7224 )"/></g></svg>