<svg xmlns="http://www.w3.org/2000/svg" xmlns:xlink="http://www.w3.org/1999/xlink" width="182" height="116" version="1.1"><defs><mask id="clip2660" fill="#fff"><path fill-rule="evenodd" d="M 161.5 4.93000000000001 C 161.5 4.93000000000001 178.8 0.129999999999995 178.8 0.129999999999995 C 180.9 7.63 182 15.63 182 23.73 C 182 73.23 139.8 115.43 90.3000000000001 115.43 C 41.7 115.43 2.10000000000002 74.63 0.700000000000045 26.43 C 0.700000000000045 26.43 18.7 25.83 18.7 25.83 C 19.8000000000001 64.53 51.4000000000001 97.43 90.3000000000001 97.43 C 129.9 97.43 164 63.33 164 23.73 C 164 17.23 163.2 10.83 161.5 4.93000000000001 Z"/></mask></defs><g><path fill="#ebebeb" fill-rule="nonzero" stroke="none" d="M 161.5 4.93000000000001 C 161.5 4.93000000000001 178.8 0.129999999999995 178.8 0.129999999999995 C 180.9 7.63 182 15.63 182 23.73 C 182 73.23 139.8 115.43 90.3000000000001 115.43 C 41.7 115.43 2.10000000000002 74.63 0.700000000000045 26.43 C 0.700000000000045 26.43 18.7 25.83 18.7 25.83 C 19.8000000000001 64.53 51.4000000000001 97.43 90.3000000000001 97.43 C 129.9 97.43 164 63.33 164 23.73 C 164 17.23 163.2 10.83 161.5 4.93000000000001 Z" transform="matrix(1 0 0 1 -685 -19026 ) matrix(1 0 0 1 685 19026 )"/><path fill="none" stroke="#fff" stroke-width="4" d="M 161.5 4.93000000000001 C 161.5 4.93000000000001 178.8 0.129999999999995 178.8 0.129999999999995 C 180.9 7.63 182 15.63 182 23.73 C 182 73.23 139.8 115.43 90.3000000000001 115.43 C 41.7 115.43 2.10000000000002 74.63 0.700000000000045 26.43 C 0.700000000000045 26.43 18.7 25.83 18.7 25.83 C 19.8000000000001 64.53 51.4000000000001 97.43 90.3000000000001 97.43 C 129.9 97.43 164 63.33 164 23.73 C 164 17.23 163.2 10.83 161.5 4.93000000000001 Z" mask="url(#clip2660)" transform="matrix(1 0 0 1 -685 -19026 ) matrix(1 0 0 1 685 19026 )"/></g></svg>