<svg xmlns="http://www.w3.org/2000/svg" xmlns:xlink="http://www.w3.org/1999/xlink" width="496" height="47" version="1.1"><defs><mask id="clip1952" fill="#fff"><path fill-rule="evenodd" d="M 0.91500000000002 46.075 C 0.91500000000002 46.075 0.91500000000002 0.725000000000001 0.91500000000002 0.725000000000001 C 0.91500000000002 0.725000000000001 495.565 0.725000000000001 495.565 0.725000000000001 C 495.565 0.725000000000001 495.565 46.075 495.565 46.075 C 495.565 46.075 0.91500000000002 46.075 0.91500000000002 46.075 Z"/></mask></defs><g><path fill="#8bc0d3" fill-rule="nonzero" stroke="none" d="M 0.91500000000002 46.075 C 0.91500000000002 46.075 0.91500000000002 0.725000000000001 0.91500000000002 0.725000000000001 C 0.91500000000002 0.725000000000001 495.565 0.725000000000001 495.565 0.725000000000001 C 495.565 0.725000000000001 495.565 46.075 495.565 46.075 C 495.565 46.075 0.91500000000002 46.075 0.91500000000002 46.075 Z" transform="matrix(1 0 0 1 -403 -7792 ) matrix(1 0 0 1 403 7792 )"/><path fill="none" stroke="#8bc0d3" stroke-width=".5" d="M 0.91500000000002 46.075 C 0.91500000000002 46.075 0.91500000000002 0.725000000000001 0.91500000000002 0.725000000000001 C 0.91500000000002 0.725000000000001 495.565 0.725000000000001 495.565 0.725000000000001 C 495.565 0.725000000000001 495.565 46.075 495.565 46.075 C 495.565 46.075 0.91500000000002 46.075 0.91500000000002 46.075 Z" mask="url(#clip1952)" transform="matrix(1 0 0 1 -403 -7792 ) matrix(1 0 0 1 403 7792 )"/></g></svg>