<svg xmlns="http://www.w3.org/2000/svg" xmlns:xlink="http://www.w3.org/1999/xlink" width="117" height="117" version="1.1"><defs><mask id="clip1807" fill="#fff"><path fill-rule="evenodd" d="M 59.1999999999999 116.02 C 27.5 116.02 0.899999999999977 90.42 0.899999999999977 58.8199999999999 C 0.899999999999977 27.12 27.5 0.519999999999982 59.1999999999999 0.519999999999982 C 90.8 0.519999999999982 116.4 27.12 116.4 58.8199999999999 C 116.4 90.42 90.8 116.02 59.1999999999999 116.02 Z"/></mask></defs><g><path fill="#fff" fill-rule="nonzero" stroke="none" d="M 59.1999999999999 116.02 C 27.5 116.02 0.899999999999977 90.42 0.899999999999977 58.8199999999999 C 0.899999999999977 27.12 27.5 0.519999999999982 59.1999999999999 0.519999999999982 C 90.8 0.519999999999982 116.4 27.12 116.4 58.8199999999999 C 116.4 90.42 90.8 116.02 59.1999999999999 116.02 Z" transform="matrix(1 0 0 1 -832 -7362 ) matrix(1 0 0 1 832 7362 )"/><path fill="none" stroke="#ffede7" stroke-width="2" d="M 59.1999999999999 116.02 C 27.5 116.02 0.899999999999977 90.42 0.899999999999977 58.8199999999999 C 0.899999999999977 27.12 27.5 0.519999999999982 59.1999999999999 0.519999999999982 C 90.8 0.519999999999982 116.4 27.12 116.4 58.8199999999999 C 116.4 90.42 90.8 116.02 59.1999999999999 116.02 Z" mask="url(#clip1807)" transform="matrix(1 0 0 1 -832 -7362 ) matrix(1 0 0 1 832 7362 )"/></g></svg>