<?xml version="1.0" encoding="utf-8"?>
<svg version="1.1" xmlns:xlink="http://www.w3.org/1999/xlink" width="179px" height="95px" xmlns="http://www.w3.org/2000/svg">
  <defs>
    <mask fill="white" id="clip1249">
      <path d="M 18.7 93.83  C 18.7 93.83  0.700000000000045 94.43  0.700000000000045 94.43  C 0.700000000000045 93.53  0.700000000000045 92.63  0.700000000000045 91.73  C 0.700000000000045 42.23  42.8000000000001 0.129999999999995  92.3000000000001 0.129999999999995  C 133.7 0.129999999999995  168.5 30.13  178.8 68.13  C 178.8 68.13  161.5 72.93  161.5 72.93  C 153.2 42.43  125.4 18.03  92.3000000000001 18.03  C 52.7 18.03  18.6 52.13  18.6 91.73  C 18.6 92.43  18.6 93.13  18.7 93.83  Z " fill-rule="evenodd" />
    </mask>
  </defs>
  <g transform="matrix(1 0 0 1 -685 -18960 )">
    <path d="M 18.7 93.83  C 18.7 93.83  0.700000000000045 94.43  0.700000000000045 94.43  C 0.700000000000045 93.53  0.700000000000045 92.63  0.700000000000045 91.73  C 0.700000000000045 42.23  42.8000000000001 0.129999999999995  92.3000000000001 0.129999999999995  C 133.7 0.129999999999995  168.5 30.13  178.8 68.13  C 178.8 68.13  161.5 72.93  161.5 72.93  C 153.2 42.43  125.4 18.03  92.3000000000001 18.03  C 52.7 18.03  18.6 52.13  18.6 91.73  C 18.6 92.43  18.6 93.13  18.7 93.83  Z " fill-rule="nonzero" fill="#fb9d53" stroke="none" transform="matrix(1 0 0 1 685 18960 )" />
    <path d="M 18.7 93.83  C 18.7 93.83  0.700000000000045 94.43  0.700000000000045 94.43  C 0.700000000000045 93.53  0.700000000000045 92.63  0.700000000000045 91.73  C 0.700000000000045 42.23  42.8000000000001 0.129999999999995  92.3000000000001 0.129999999999995  C 133.7 0.129999999999995  168.5 30.13  178.8 68.13  C 178.8 68.13  161.5 72.93  161.5 72.93  C 153.2 42.43  125.4 18.03  92.3000000000001 18.03  C 52.7 18.03  18.6 52.13  18.6 91.73  C 18.6 92.43  18.6 93.13  18.7 93.83  Z " stroke-width="4" stroke="#ffffff" fill="none" transform="matrix(1 0 0 1 685 18960 )" mask="url(#clip1249)" />
  </g>
</svg>