<svg xmlns="http://www.w3.org/2000/svg" xmlns:xlink="http://www.w3.org/1999/xlink" width="56" height="59" version="1.1"><defs><mask id="clip2116" fill="#fff"><path fill-rule="evenodd" d="M 19.9300000000001 58.8099999999999 C 19.9300000000001 58.8099999999999 35.8299999999999 58.8099999999999 35.8299999999999 58.8099999999999 C 46.6300000000001 58.8099999999999 55.4300000000001 50.01 55.4300000000001 39.21 C 55.4300000000001 39.21 55.4300000000001 19.71 55.4300000000001 19.71 C 55.4300000000001 8.80999999999995 46.6300000000001 0.00999999999999091 35.8299999999999 0.00999999999999091 C 35.8299999999999 0.00999999999999091 19.9300000000001 0.00999999999999091 19.9300000000001 0.00999999999999091 C 9.02999999999997 0.00999999999999091 0.230000000000018 8.80999999999995 0.230000000000018 19.71 C 0.230000000000018 19.71 0.230000000000018 39.21 0.230000000000018 39.21 C 0.230000000000018 50.01 9.02999999999997 58.8099999999999 19.9300000000001 58.8099999999999 Z"/></mask></defs><g><path fill="#dcdcdd" fill-opacity=".078" fill-rule="nonzero" stroke="none" d="M 19.9300000000001 58.8099999999999 C 19.9300000000001 58.8099999999999 35.8299999999999 58.8099999999999 35.8299999999999 58.8099999999999 C 46.6300000000001 58.8099999999999 55.4300000000001 50.01 55.4300000000001 39.21 C 55.4300000000001 39.21 55.4300000000001 19.71 55.4300000000001 19.71 C 55.4300000000001 8.80999999999995 46.6300000000001 0.00999999999999091 35.8299999999999 0.00999999999999091 C 35.8299999999999 0.00999999999999091 19.9300000000001 0.00999999999999091 19.9300000000001 0.00999999999999091 C 9.02999999999997 0.00999999999999091 0.230000000000018 8.80999999999995 0.230000000000018 19.71 C 0.230000000000018 19.71 0.230000000000018 39.21 0.230000000000018 39.21 C 0.230000000000018 50.01 9.02999999999997 58.8099999999999 19.9300000000001 58.8099999999999 Z" transform="matrix(1 0 0 1 -1145 -12982 ) matrix(1 0 0 1 1145 12982 )"/><path fill="none" stroke="#dcdcdd" stroke-opacity=".059" stroke-width="2" d="M 19.9300000000001 58.8099999999999 C 19.9300000000001 58.8099999999999 35.8299999999999 58.8099999999999 35.8299999999999 58.8099999999999 C 46.6300000000001 58.8099999999999 55.4300000000001 50.01 55.4300000000001 39.21 C 55.4300000000001 39.21 55.4300000000001 19.71 55.4300000000001 19.71 C 55.4300000000001 8.80999999999995 46.6300000000001 0.00999999999999091 35.8299999999999 0.00999999999999091 C 35.8299999999999 0.00999999999999091 19.9300000000001 0.00999999999999091 19.9300000000001 0.00999999999999091 C 9.02999999999997 0.00999999999999091 0.230000000000018 8.80999999999995 0.230000000000018 19.71 C 0.230000000000018 19.71 0.230000000000018 39.21 0.230000000000018 39.21 C 0.230000000000018 50.01 9.02999999999997 58.8099999999999 19.9300000000001 58.8099999999999 Z" mask="url(#clip2116)" transform="matrix(1 0 0 1 -1145 -12982 ) matrix(1 0 0 1 1145 12982 )"/></g></svg>