<?xml version="1.0" encoding="utf-8"?>
<svg version="1.1" xmlns:xlink="http://www.w3.org/1999/xlink" width="56px" height="60px" xmlns="http://www.w3.org/2000/svg">
  <defs>
    <mask fill="white" id="clip562">
      <path d="M 36.21 59.6099999999999  C 36.21 59.6099999999999  20.31 59.6099999999999  20.31 59.6099999999999  C 9.50999999999999 59.6099999999999  0.709999999999994 50.8099999999999  0.709999999999994 40.01  C 0.709999999999994 40.01  0.709999999999994 20.51  0.709999999999994 20.51  C 0.709999999999994 9.6099999999999  9.50999999999999 0.809999999999945  20.31 0.809999999999945  C 20.31 0.809999999999945  36.21 0.809999999999945  36.21 0.809999999999945  C 47.11 0.809999999999945  55.91 9.6099999999999  55.91 20.51  C 55.91 20.51  55.91 40.01  55.91 40.01  C 55.91 50.8099999999999  47.11 59.6099999999999  36.21 59.6099999999999  Z " fill-rule="evenodd" />
    </mask>
  </defs>
  <g transform="matrix(1 0 0 1 -162 -13114 )">
    <path d="M 36.21 59.6099999999999  C 36.21 59.6099999999999  20.31 59.6099999999999  20.31 59.6099999999999  C 9.50999999999999 59.6099999999999  0.709999999999994 50.8099999999999  0.709999999999994 40.01  C 0.709999999999994 40.01  0.709999999999994 20.51  0.709999999999994 20.51  C 0.709999999999994 9.6099999999999  9.50999999999999 0.809999999999945  20.31 0.809999999999945  C 20.31 0.809999999999945  36.21 0.809999999999945  36.21 0.809999999999945  C 47.11 0.809999999999945  55.91 9.6099999999999  55.91 20.51  C 55.91 20.51  55.91 40.01  55.91 40.01  C 55.91 50.8099999999999  47.11 59.6099999999999  36.21 59.6099999999999  Z " fill-rule="nonzero" fill="#cdcece" stroke="none" fill-opacity="0.0784313725490196" transform="matrix(1 0 0 1 162 13114 )" />
    <path d="M 36.21 59.6099999999999  C 36.21 59.6099999999999  20.31 59.6099999999999  20.31 59.6099999999999  C 9.50999999999999 59.6099999999999  0.709999999999994 50.8099999999999  0.709999999999994 40.01  C 0.709999999999994 40.01  0.709999999999994 20.51  0.709999999999994 20.51  C 0.709999999999994 9.6099999999999  9.50999999999999 0.809999999999945  20.31 0.809999999999945  C 20.31 0.809999999999945  36.21 0.809999999999945  36.21 0.809999999999945  C 47.11 0.809999999999945  55.91 9.6099999999999  55.91 20.51  C 55.91 20.51  55.91 40.01  55.91 40.01  C 55.91 50.8099999999999  47.11 59.6099999999999  36.21 59.6099999999999  Z " stroke-width="2" stroke="#cdcece" fill="none" stroke-opacity="0.0588235294117647" transform="matrix(1 0 0 1 162 13114 )" mask="url(#clip562)" />
  </g>
</svg>