<svg xmlns="http://www.w3.org/2000/svg" xmlns:xlink="http://www.w3.org/1999/xlink" width="44" height="67" version="1.1"><defs><mask id="clip2655" fill="#fff"><path fill-rule="evenodd" d="M 43.46 53.03 C 43.46 53.03 31.16 66.13 31.16 66.13 C 14.36 50.33 1.56000000000006 26.13 0.860000000000014 1.43000000000001 C 0.860000000000014 1.43000000000001 18.86 0.829999999999984 18.86 0.829999999999984 C 19.36 20.63 29.96 40.43 43.46 53.03 Z"/></mask></defs><g><path fill="#ebebeb" fill-rule="nonzero" stroke="none" d="M 43.46 53.03 C 43.46 53.03 31.16 66.13 31.16 66.13 C 14.36 50.33 1.56000000000006 26.13 0.860000000000014 1.43000000000001 C 0.860000000000014 1.43000000000001 18.86 0.829999999999984 18.86 0.829999999999984 C 19.36 20.63 29.96 40.43 43.46 53.03 Z" transform="matrix(1 0 0 1 -937 -19051 ) matrix(1 0 0 1 937 19051 )"/><path fill="none" stroke="#fff" stroke-width="4" d="M 43.46 53.03 C 43.46 53.03 31.16 66.13 31.16 66.13 C 14.36 50.33 1.56000000000006 26.13 0.860000000000014 1.43000000000001 C 0.860000000000014 1.43000000000001 18.86 0.829999999999984 18.86 0.829999999999984 C 19.36 20.63 29.96 40.43 43.46 53.03 Z" mask="url(#clip2655)" transform="matrix(1 0 0 1 -937 -19051 ) matrix(1 0 0 1 937 19051 )"/></g></svg>