<svg xmlns="http://www.w3.org/2000/svg" xmlns:xlink="http://www.w3.org/1999/xlink" width="106" height="91" version="1.1"><defs><mask id="clip2670" fill="#fff"><path fill-rule="evenodd" d="M 102.9 71.63 C 102.9 71.63 105.7 89.33 105.7 89.33 C 101.2 90.03 96.7 90.43 92 90.43 C 43.4 90.43 1.80000000000001 49.63 0.400000000000006 1.43000000000001 C 0.400000000000006 1.43000000000001 18.4 0.829999999999984 18.4 0.829999999999984 C 19.5 39.53 53.1 72.43 92 72.43 C 95.8 72.43 99.4 72.23 102.9 71.63 Z"/></mask></defs><g><path fill="#ebebeb" fill-rule="nonzero" stroke="none" d="M 102.9 71.63 C 102.9 71.63 105.7 89.33 105.7 89.33 C 101.2 90.03 96.7 90.43 92 90.43 C 43.4 90.43 1.80000000000001 49.63 0.400000000000006 1.43000000000001 C 0.400000000000006 1.43000000000001 18.4 0.829999999999984 18.4 0.829999999999984 C 19.5 39.53 53.1 72.43 92 72.43 C 95.8 72.43 99.4 72.23 102.9 71.63 Z" transform="matrix(1 0 0 1 -181 -19051 ) matrix(1 0 0 1 181 19051 )"/><path fill="none" stroke="#fff" stroke-width="4" d="M 102.9 71.63 C 102.9 71.63 105.7 89.33 105.7 89.33 C 101.2 90.03 96.7 90.43 92 90.43 C 43.4 90.43 1.80000000000001 49.63 0.400000000000006 1.43000000000001 C 0.400000000000006 1.43000000000001 18.4 0.829999999999984 18.4 0.829999999999984 C 19.5 39.53 53.1 72.43 92 72.43 C 95.8 72.43 99.4 72.23 102.9 71.63 Z" mask="url(#clip2670)" transform="matrix(1 0 0 1 -181 -19051 ) matrix(1 0 0 1 181 19051 )"/></g></svg>