<svg xmlns="http://www.w3.org/2000/svg" xmlns:xlink="http://www.w3.org/1999/xlink" width="7" height="9" version="1.1"><defs><mask id="clip1848" fill="#fff"><path fill-rule="evenodd" d="M 4.84000000000003 0.159999999999968 C 4.84000000000003 0.159999999999968 1.94 0.159999999999968 1.94 0.159999999999968 C 1.94 0.159999999999968 0.639999999999986 2.55999999999995 0.639999999999986 2.55999999999995 C 0.639999999999986 2.55999999999995 6.74000000000001 8.75999999999999 6.74000000000001 8.75999999999999 C 6.74000000000001 8.75999999999999 4.84000000000003 0.159999999999968 4.84000000000003 0.159999999999968 Z"/></mask></defs><g><path fill="#fff" fill-rule="nonzero" stroke="none" d="M 4.84000000000003 0.159999999999968 C 4.84000000000003 0.159999999999968 1.94 0.159999999999968 1.94 0.159999999999968 C 1.94 0.159999999999968 0.639999999999986 2.55999999999995 0.639999999999986 2.55999999999995 C 0.639999999999986 2.55999999999995 6.74000000000001 8.75999999999999 6.74000000000001 8.75999999999999 C 6.74000000000001 8.75999999999999 4.84000000000003 0.159999999999968 4.84000000000003 0.159999999999968 Z" transform="matrix(1 0 0 1 -373 -7109 ) matrix(1 0 0 1 373 7109 )"/><path fill="none" stroke="#fff" stroke-width="2" d="M 4.84000000000003 0.159999999999968 C 4.84000000000003 0.159999999999968 1.94 0.159999999999968 1.94 0.159999999999968 C 1.94 0.159999999999968 0.639999999999986 2.55999999999995 0.639999999999986 2.55999999999995 C 0.639999999999986 2.55999999999995 6.74000000000001 8.75999999999999 6.74000000000001 8.75999999999999 C 6.74000000000001 8.75999999999999 4.84000000000003 0.159999999999968 4.84000000000003 0.159999999999968 Z" mask="url(#clip1848)" transform="matrix(1 0 0 1 -373 -7109 ) matrix(1 0 0 1 373 7109 )"/></g></svg>