<?xml version="1.0" encoding="utf-8"?>
<svg version="1.1" xmlns:xlink="http://www.w3.org/1999/xlink" width="4px" height="5px" xmlns="http://www.w3.org/2000/svg">
  <defs>
    <mask fill="white" id="clip308">
      <path d="M 1.64999999999998 4.48999999999998  C 1.14999999999998 4.48999999999998  0.649999999999977 3.88999999999999  0.649999999999977 3.19  C 0.649999999999977 2.48999999999998  1.14999999999998 0.889999999999986  1.64999999999998 0.889999999999986  C 2.25 0.889999999999986  3.75 2.48999999999998  3.75 3.19  C 3.75 3.88999999999999  2.25 4.48999999999998  1.64999999999998 4.48999999999998  Z " fill-rule="evenodd" />
    </mask>
  </defs>
  <g transform="matrix(1 0 0 1 -369 -6896 )">
    <path d="M 1.64999999999998 4.48999999999998  C 1.14999999999998 4.48999999999998  0.649999999999977 3.88999999999999  0.649999999999977 3.19  C 0.649999999999977 2.48999999999998  1.14999999999998 0.889999999999986  1.64999999999998 0.889999999999986  C 2.25 0.889999999999986  3.75 2.48999999999998  3.75 3.19  C 3.75 3.88999999999999  2.25 4.48999999999998  1.64999999999998 4.48999999999998  Z " fill-rule="nonzero" fill="#3e3938" stroke="none" transform="matrix(1 0 0 1 369 6896 )" />
    <path d="M 1.64999999999998 4.48999999999998  C 1.14999999999998 4.48999999999998  0.649999999999977 3.88999999999999  0.649999999999977 3.19  C 0.649999999999977 2.48999999999998  1.14999999999998 0.889999999999986  1.64999999999998 0.889999999999986  C 2.25 0.889999999999986  3.75 2.48999999999998  3.75 3.19  C 3.75 3.88999999999999  2.25 4.48999999999998  1.64999999999998 4.48999999999998  Z " stroke-width="2" stroke="#3e3938" fill="none" transform="matrix(1 0 0 1 369 6896 )" mask="url(#clip308)" />
  </g>
</svg>