<svg xmlns="http://www.w3.org/2000/svg" xmlns:xlink="http://www.w3.org/1999/xlink" width="268" height="16" version="1.1"><defs><mask id="clip2534" fill="#fff"><path fill-rule="evenodd" d="M 0.350000000000023 15.63 C 0.350000000000023 15.63 0.350000000000023 0.529999999999973 0.350000000000023 0.529999999999973 C 0.350000000000023 0.529999999999973 267.55 0.529999999999973 267.55 0.529999999999973 C 267.55 0.529999999999973 267.55 15.63 267.55 15.63 C 267.55 15.63 0.350000000000023 15.63 0.350000000000023 15.63 Z"/></mask></defs><g><path fill="#fff" fill-opacity="0" fill-rule="nonzero" stroke="none" d="M 0.350000000000023 15.63 C 0.350000000000023 15.63 0.350000000000023 0.529999999999973 0.350000000000023 0.529999999999973 C 0.350000000000023 0.529999999999973 267.55 0.529999999999973 267.55 0.529999999999973 C 267.55 0.529999999999973 267.55 15.63 267.55 15.63 C 267.55 15.63 0.350000000000023 15.63 0.350000000000023 15.63 Z" transform="matrix(1 0 0 1 -891 -17270 ) matrix(1 0 0 1 891 17270 )"/><path fill="none" stroke="#787878" stroke-width="2" d="M 0.350000000000023 15.63 C 0.350000000000023 15.63 0.350000000000023 0.529999999999973 0.350000000000023 0.529999999999973 C 0.350000000000023 0.529999999999973 267.55 0.529999999999973 267.55 0.529999999999973 C 267.55 0.529999999999973 267.55 15.63 267.55 15.63 C 267.55 15.63 0.350000000000023 15.63 0.350000000000023 15.63 Z" mask="url(#clip2534)" transform="matrix(1 0 0 1 -891 -17270 ) matrix(1 0 0 1 891 17270 )"/></g></svg>