<svg xmlns="http://www.w3.org/2000/svg" xmlns:xlink="http://www.w3.org/1999/xlink" width="90" height="89" version="1.1"><g><path fill="#eee" fill-rule="nonzero" stroke="none" d="M 45 78.5 L 45 88.5 C 20.49 88.5 0.690000000000055 68.7 0.690000000000055 44.3 C 0.690000000000055 19.9 20.49 0.100000000000023 44.8900000000001 0.100000000000023 C 69.2900000000001 0.100000000000023 89.09 19.9 89.09 44.3 C 89.09 68.7 69.2900000000001 88.5 45 88.5 L 45 78.5 C 63.7900000000001 78.5 79.09 63.2 79.09 44.3 C 79.09 25.4 63.7900000000001 10.1 44.8900000000001 10.1 C 25.99 10.1 10.6900000000001 25.4 10.6900000000001 44.3 C 10.6900000000001 63.2 25.99 78.5 45 78.5 Z" transform="matrix(1 0 0 1 -691 -7155 ) matrix(1 0 0 1 691 7155 )"/></g></svg>