<?xml version="1.0" encoding="utf-8"?>
<svg version="1.1" xmlns:xlink="http://www.w3.org/1999/xlink" width="9px" height="18px" xmlns="http://www.w3.org/2000/svg">
  <defs>
    <mask fill="white" id="clip288">
      <path d="M 0.779999999999973 0.860000000000014  C 0.779999999999973 0.860000000000014  0.779999999999973 17.06  0.779999999999973 17.06  C 0.779999999999973 17.06  8.67999999999995 17.06  8.67999999999995 17.06  C 8.67999999999995 17.06  8.67999999999995 0.860000000000014  8.67999999999995 0.860000000000014  C 8.67999999999995 0.860000000000014  0.779999999999973 0.860000000000014  0.779999999999973 0.860000000000014  Z " fill-rule="evenodd" />
    </mask>
  </defs>
  <g transform="matrix(1 0 0 1 -421 -7072 )">
    <path d="M 0.779999999999973 0.860000000000014  C 0.779999999999973 0.860000000000014  0.779999999999973 17.06  0.779999999999973 17.06  C 0.779999999999973 17.06  8.67999999999995 17.06  8.67999999999995 17.06  C 8.67999999999995 17.06  8.67999999999995 0.860000000000014  8.67999999999995 0.860000000000014  C 8.67999999999995 0.860000000000014  0.779999999999973 0.860000000000014  0.779999999999973 0.860000000000014  Z " fill-rule="nonzero" fill="#ffffff" stroke="none" transform="matrix(1 0 0 1 421 7072 )" />
    <path d="M 0.779999999999973 0.860000000000014  C 0.779999999999973 0.860000000000014  0.779999999999973 17.06  0.779999999999973 17.06  C 0.779999999999973 17.06  8.67999999999995 17.06  8.67999999999995 17.06  C 8.67999999999995 17.06  8.67999999999995 0.860000000000014  8.67999999999995 0.860000000000014  C 8.67999999999995 0.860000000000014  0.779999999999973 0.860000000000014  0.779999999999973 0.860000000000014  Z " stroke-width="2" stroke="#ffffff" fill="none" transform="matrix(1 0 0 1 421 7072 )" mask="url(#clip288)" />
  </g>
</svg>