<?xml version="1.0" encoding="utf-8"?>
<svg version="1.1" xmlns:xlink="http://www.w3.org/1999/xlink" width="21px" height="22px" xmlns="http://www.w3.org/2000/svg">
  <defs>
    <mask fill="white" id="clip327">
      <path d="M 10.99 21.08  C 10.99 21.08  0.0900000000000318 11.18  0.0900000000000318 11.18  C 0.0900000000000318 11.18  10.99 0.280000000000001  10.99 0.280000000000001  C 10.99 0.280000000000001  20.89 11.18  20.89 11.18  C 20.89 11.18  10.99 21.08  10.99 21.08  Z " fill-rule="evenodd" />
    </mask>
  </defs>
  <g transform="matrix(1 0 0 1 -907 -4273 )">
    <path d="M 10.99 21.08  C 10.99 21.08  0.0900000000000318 11.18  0.0900000000000318 11.18  C 0.0900000000000318 11.18  10.99 0.280000000000001  10.99 0.280000000000001  C 10.99 0.280000000000001  20.89 11.18  20.89 11.18  C 20.89 11.18  10.99 21.08  10.99 21.08  Z " fill-rule="nonzero" fill="#fc5c57" stroke="none" transform="matrix(1 0 0 1 907 4273 )" />
    <path d="M 10.99 21.08  C 10.99 21.08  0.0900000000000318 11.18  0.0900000000000318 11.18  C 0.0900000000000318 11.18  10.99 0.280000000000001  10.99 0.280000000000001  C 10.99 0.280000000000001  20.89 11.18  20.89 11.18  C 20.89 11.18  10.99 21.08  10.99 21.08  Z " stroke-width="2" stroke="#fc5c57" fill="none" transform="matrix(1 0 0 1 907 4273 )" mask="url(#clip327)" />
  </g>
</svg>