<svg xmlns="http://www.w3.org/2000/svg" xmlns:xlink="http://www.w3.org/1999/xlink" width="4" height="5" version="1.1"><defs><mask id="clip1881" fill="#fff"><path fill-rule="evenodd" d="M 1.28999999999996 4.48999999999998 C 0.789999999999964 4.48999999999998 0.289999999999964 3.88999999999999 0.289999999999964 3.19 C 0.289999999999964 2.48999999999998 0.789999999999964 0.889999999999986 1.28999999999996 0.889999999999986 C 1.88999999999999 0.889999999999986 3.38999999999999 2.48999999999998 3.38999999999999 3.19 C 3.38999999999999 3.88999999999999 1.88999999999999 4.48999999999998 1.28999999999996 4.48999999999998 Z"/></mask></defs><g><path fill="#3e3938" fill-rule="nonzero" stroke="none" d="M 1.28999999999996 4.48999999999998 C 0.789999999999964 4.48999999999998 0.289999999999964 3.88999999999999 0.289999999999964 3.19 C 0.289999999999964 2.48999999999998 0.789999999999964 0.889999999999986 1.28999999999996 0.889999999999986 C 1.88999999999999 0.889999999999986 3.38999999999999 2.48999999999998 3.38999999999999 3.19 C 3.38999999999999 3.88999999999999 1.88999999999999 4.48999999999998 1.28999999999996 4.48999999999998 Z" transform="matrix(1 0 0 1 -509 -6896 ) matrix(1 0 0 1 509 6896 )"/><path fill="none" stroke="#3e3938" stroke-width="2" d="M 1.28999999999996 4.48999999999998 C 0.789999999999964 4.48999999999998 0.289999999999964 3.88999999999999 0.289999999999964 3.19 C 0.289999999999964 2.48999999999998 0.789999999999964 0.889999999999986 1.28999999999996 0.889999999999986 C 1.88999999999999 0.889999999999986 3.38999999999999 2.48999999999998 3.38999999999999 3.19 C 3.38999999999999 3.88999999999999 1.88999999999999 4.48999999999998 1.28999999999996 4.48999999999998 Z" mask="url(#clip1881)" transform="matrix(1 0 0 1 -509 -6896 ) matrix(1 0 0 1 509 6896 )"/></g></svg>