<?xml version="1.0" encoding="utf-8"?>
<svg version="1.1" xmlns:xlink="http://www.w3.org/1999/xlink" width="30px" height="36px" xmlns="http://www.w3.org/2000/svg">
  <defs>
    <mask fill="white" id="clip382">
      <path d="M 10.53 18.93  C 10.53 18.93  1.63 35.23  1.63 35.23  C 1.63 35.23  28.3299999999999 35.23  28.3299999999999 35.23  C 28.3299999999999 35.23  19.43 18.93  19.43 18.93  C 19.43 18.93  19.43 7.32999999999998  19.43 7.32999999999998  C 19.43 7.32999999999998  25.43 19.33  25.43 19.33  C 25.43 19.33  25.2299999999999 20.53  27.43 20.53  C 29.63 20.53  29.43 18.53  29.43 18.53  C 29.43 18.53  24.2299999999999 5.32999999999998  21.93 2.82999999999998  C 19.53 0.430000000000007  16.93 0.129999999999995  16.93 0.129999999999995  C 16.93 0.129999999999995  12.7299999999999 0.129999999999995  12.7299999999999 0.129999999999995  C 12.7299999999999 0.129999999999995  10.8299999999999 0.530000000000001  8.02999999999997 3.22999999999999  C 5.2299999999999 5.82999999999998  0.42999999999995 19.63  0.42999999999995 19.63  C 0.42999999999995 19.63  0.129999999999995 20.63  1.92999999999995 21.13  C 3.82999999999993 21.63  4.32999999999993 20.13  4.32999999999993 20.13  C 4.32999999999993 20.13  9.63 7.13  9.63 7.13  C 9.63 7.13  10.53 18.93  10.53 18.93  Z " fill-rule="evenodd" />
    </mask>
  </defs>
  <g transform="matrix(1 0 0 1 -940 -6983 )">
    <path d="M 10.53 18.93  C 10.53 18.93  1.63 35.23  1.63 35.23  C 1.63 35.23  28.3299999999999 35.23  28.3299999999999 35.23  C 28.3299999999999 35.23  19.43 18.93  19.43 18.93  C 19.43 18.93  19.43 7.32999999999998  19.43 7.32999999999998  C 19.43 7.32999999999998  25.43 19.33  25.43 19.33  C 25.43 19.33  25.2299999999999 20.53  27.43 20.53  C 29.63 20.53  29.43 18.53  29.43 18.53  C 29.43 18.53  24.2299999999999 5.32999999999998  21.93 2.82999999999998  C 19.53 0.430000000000007  16.93 0.129999999999995  16.93 0.129999999999995  C 16.93 0.129999999999995  12.7299999999999 0.129999999999995  12.7299999999999 0.129999999999995  C 12.7299999999999 0.129999999999995  10.8299999999999 0.530000000000001  8.02999999999997 3.22999999999999  C 5.2299999999999 5.82999999999998  0.42999999999995 19.63  0.42999999999995 19.63  C 0.42999999999995 19.63  0.129999999999995 20.63  1.92999999999995 21.13  C 3.82999999999993 21.63  4.32999999999993 20.13  4.32999999999993 20.13  C 4.32999999999993 20.13  9.63 7.13  9.63 7.13  C 9.63 7.13  10.53 18.93  10.53 18.93  Z " fill-rule="nonzero" fill="#f06b6c" stroke="none" transform="matrix(1 0 0 1 940 6983 )" />
    <path d="M 10.53 18.93  C 10.53 18.93  1.63 35.23  1.63 35.23  C 1.63 35.23  28.3299999999999 35.23  28.3299999999999 35.23  C 28.3299999999999 35.23  19.43 18.93  19.43 18.93  C 19.43 18.93  19.43 7.32999999999998  19.43 7.32999999999998  C 19.43 7.32999999999998  25.43 19.33  25.43 19.33  C 25.43 19.33  25.2299999999999 20.53  27.43 20.53  C 29.63 20.53  29.43 18.53  29.43 18.53  C 29.43 18.53  24.2299999999999 5.32999999999998  21.93 2.82999999999998  C 19.53 0.430000000000007  16.93 0.129999999999995  16.93 0.129999999999995  C 16.93 0.129999999999995  12.7299999999999 0.129999999999995  12.7299999999999 0.129999999999995  C 12.7299999999999 0.129999999999995  10.8299999999999 0.530000000000001  8.02999999999997 3.22999999999999  C 5.2299999999999 5.82999999999998  0.42999999999995 19.63  0.42999999999995 19.63  C 0.42999999999995 19.63  0.129999999999995 20.63  1.92999999999995 21.13  C 3.82999999999993 21.63  4.32999999999993 20.13  4.32999999999993 20.13  C 4.32999999999993 20.13  9.63 7.13  9.63 7.13  C 9.63 7.13  10.53 18.93  10.53 18.93  Z " stroke-width="2" stroke="#f06b6c" fill="none" transform="matrix(1 0 0 1 940 6983 )" mask="url(#clip382)" />
  </g>
</svg>