<svg xmlns="http://www.w3.org/2000/svg" xmlns:xlink="http://www.w3.org/1999/xlink" width="200" height="200" version="1.1"><defs><linearGradient id="LinearGradient2477" x1="-18.84" x2="219.16" y1="44.01" y2="155.01" gradientUnits="userSpaceOnUse"><stop id="Stop2478" offset="0" stop-color="#fff"/><stop id="Stop2479" offset=".2" stop-color="#e0e0e0"/><stop id="Stop2480" offset=".85" stop-color="#7d7d7d"/><stop id="Stop2481" offset="1" stop-color="#7d7d7d"/></linearGradient><mask id="clip2482" fill="#fff"><path fill-rule="evenodd" d="M 0.659999999999997 199.31 C 0.659999999999997 199.31 0.659999999999997 0.509999999999991 0.659999999999997 0.509999999999991 C 0.659999999999997 0.509999999999991 199.46 0.509999999999991 199.46 0.509999999999991 C 199.46 0.509999999999991 199.46 199.31 199.46 199.31 C 199.46 199.31 0.659999999999997 199.31 0.659999999999997 199.31 Z"/></mask></defs><g><path fill="url(#LinearGradient2477)" fill-rule="nonzero" stroke="none" d="M 0.659999999999997 199.31 C 0.659999999999997 199.31 0.659999999999997 0.509999999999991 0.659999999999997 0.509999999999991 C 0.659999999999997 0.509999999999991 199.46 0.509999999999991 199.46 0.509999999999991 C 199.46 0.509999999999991 199.46 199.31 199.46 199.31 C 199.46 199.31 0.659999999999997 199.31 0.659999999999997 199.31 Z" transform="matrix(1 0 0 1 -142 -17468 ) matrix(1 0 0 1 142 17468 )"/><path fill="none" stroke="#909090" stroke-width="2" d="M 0.659999999999997 199.31 C 0.659999999999997 199.31 0.659999999999997 0.509999999999991 0.659999999999997 0.509999999999991 C 0.659999999999997 0.509999999999991 199.46 0.509999999999991 199.46 0.509999999999991 C 199.46 0.509999999999991 199.46 199.31 199.46 199.31 C 199.46 199.31 0.659999999999997 199.31 0.659999999999997 199.31 Z" mask="url(#clip2482)" transform="matrix(1 0 0 1 -142 -17468 ) matrix(1 0 0 1 142 17468 )"/></g></svg>