<?xml version="1.0" encoding="utf-8"?>
<svg version="1.1" xmlns:xlink="http://www.w3.org/1999/xlink" width="143px" height="34px" xmlns="http://www.w3.org/2000/svg">
  <defs>
    <mask fill="white" id="clip145">
      <path d="M 0.759999999999991 33.3399999999999  C 0.759999999999991 33.3399999999999  0.759999999999991 0.0399999999999636  0.759999999999991 0.0399999999999636  C 0.759999999999991 0.0399999999999636  142.66 0.0399999999999636  142.66 0.0399999999999636  C 142.66 0.0399999999999636  142.66 33.3399999999999  142.66 33.3399999999999  C 142.66 33.3399999999999  0.759999999999991 33.3399999999999  0.759999999999991 33.3399999999999  Z " fill-rule="evenodd" />
    </mask>
  </defs>
  <g transform="matrix(1 0 0 1 -219 -1843 )">
    <path d="M 0.759999999999991 33.3399999999999  C 0.759999999999991 33.3399999999999  0.759999999999991 0.0399999999999636  0.759999999999991 0.0399999999999636  C 0.759999999999991 0.0399999999999636  142.66 0.0399999999999636  142.66 0.0399999999999636  C 142.66 0.0399999999999636  142.66 33.3399999999999  142.66 33.3399999999999  C 142.66 33.3399999999999  0.759999999999991 33.3399999999999  0.759999999999991 33.3399999999999  Z " fill-rule="nonzero" fill="#595757" stroke="none" transform="matrix(1 0 0 1 219 1843 )" />
    <path d="M 0.759999999999991 33.3399999999999  C 0.759999999999991 33.3399999999999  0.759999999999991 0.0399999999999636  0.759999999999991 0.0399999999999636  C 0.759999999999991 0.0399999999999636  142.66 0.0399999999999636  142.66 0.0399999999999636  C 142.66 0.0399999999999636  142.66 33.3399999999999  142.66 33.3399999999999  C 142.66 33.3399999999999  0.759999999999991 33.3399999999999  0.759999999999991 33.3399999999999  Z " stroke-width="2" stroke="#595757" fill="none" transform="matrix(1 0 0 1 219 1843 )" mask="url(#clip145)" />
  </g>
</svg>