<svg xmlns="http://www.w3.org/2000/svg" xmlns:xlink="http://www.w3.org/1999/xlink" width="23" height="25" version="1.1"><defs><mask id="clip2296" fill="#fff"><path fill-rule="evenodd" d="M 0.0599999999999454 24.64 C 0.0599999999999454 24.64 0.0599999999999454 0.940000000000054 0.0599999999999454 0.940000000000054 C 0.0599999999999454 0.940000000000054 22.3599999999999 0.940000000000054 22.3599999999999 0.940000000000054 C 22.3599999999999 0.940000000000054 22.3599999999999 24.64 22.3599999999999 24.64 C 22.3599999999999 24.64 0.0599999999999454 24.64 0.0599999999999454 24.64 Z"/></mask></defs><g><path fill="#d97f40" fill-rule="nonzero" stroke="none" d="M 0.0599999999999454 24.64 C 0.0599999999999454 24.64 0.0599999999999454 0.940000000000054 0.0599999999999454 0.940000000000054 C 0.0599999999999454 0.940000000000054 22.3599999999999 0.940000000000054 22.3599999999999 0.940000000000054 C 22.3599999999999 0.940000000000054 22.3599999999999 24.64 22.3599999999999 24.64 C 22.3599999999999 24.64 0.0599999999999454 24.64 0.0599999999999454 24.64 Z" transform="matrix(1 0 0 1 -681 -14567 ) matrix(1 0 0 1 681 14567 )"/><path fill="none" stroke="#d97f40" stroke-width="2" d="M 0.0599999999999454 24.64 C 0.0599999999999454 24.64 0.0599999999999454 0.940000000000054 0.0599999999999454 0.940000000000054 C 0.0599999999999454 0.940000000000054 22.3599999999999 0.940000000000054 22.3599999999999 0.940000000000054 C 22.3599999999999 0.940000000000054 22.3599999999999 24.64 22.3599999999999 24.64 C 22.3599999999999 24.64 0.0599999999999454 24.64 0.0599999999999454 24.64 Z" mask="url(#clip2296)" transform="matrix(1 0 0 1 -681 -14567 ) matrix(1 0 0 1 681 14567 )"/></g></svg>