<svg xmlns="http://www.w3.org/2000/svg" xmlns:xlink="http://www.w3.org/1999/xlink" width="56" height="60" version="1.1"><defs><mask id="clip2104" fill="#fff"><path fill-rule="evenodd" d="M 35.61 59.7099999999999 C 35.61 59.7099999999999 19.71 59.7099999999999 19.71 59.7099999999999 C 8.91 59.7099999999999 0.110000000000014 50.91 0.110000000000014 40.11 C 0.110000000000014 40.11 0.110000000000014 20.61 0.110000000000014 20.61 C 0.110000000000014 9.70999999999992 8.91 0.909999999999968 19.71 0.909999999999968 C 19.71 0.909999999999968 35.61 0.909999999999968 35.61 0.909999999999968 C 46.51 0.909999999999968 55.31 9.70999999999992 55.31 20.61 C 55.31 20.61 55.31 40.11 55.31 40.11 C 55.31 50.91 46.51 59.7099999999999 35.61 59.7099999999999 Z"/></mask></defs><g><path fill="#dcdcdd" fill-opacity=".078" fill-rule="nonzero" stroke="none" d="M 35.61 59.7099999999999 C 35.61 59.7099999999999 19.71 59.7099999999999 19.71 59.7099999999999 C 8.91 59.7099999999999 0.110000000000014 50.91 0.110000000000014 40.11 C 0.110000000000014 40.11 0.110000000000014 20.61 0.110000000000014 20.61 C 0.110000000000014 9.70999999999992 8.91 0.909999999999968 19.71 0.909999999999968 C 19.71 0.909999999999968 35.61 0.909999999999968 35.61 0.909999999999968 C 46.51 0.909999999999968 55.31 9.70999999999992 55.31 20.61 C 55.31 20.61 55.31 40.11 55.31 40.11 C 55.31 50.91 46.51 59.7099999999999 35.61 59.7099999999999 Z" transform="matrix(1 0 0 1 -285 -13176 ) matrix(1 0 0 1 285 13176 )"/><path fill="none" stroke="#dcdcdd" stroke-opacity=".059" stroke-width="2" d="M 35.61 59.7099999999999 C 35.61 59.7099999999999 19.71 59.7099999999999 19.71 59.7099999999999 C 8.91 59.7099999999999 0.110000000000014 50.91 0.110000000000014 40.11 C 0.110000000000014 40.11 0.110000000000014 20.61 0.110000000000014 20.61 C 0.110000000000014 9.70999999999992 8.91 0.909999999999968 19.71 0.909999999999968 C 19.71 0.909999999999968 35.61 0.909999999999968 35.61 0.909999999999968 C 46.51 0.909999999999968 55.31 9.70999999999992 55.31 20.61 C 55.31 20.61 55.31 40.11 55.31 40.11 C 55.31 50.91 46.51 59.7099999999999 35.61 59.7099999999999 Z" mask="url(#clip2104)" transform="matrix(1 0 0 1 -285 -13176 ) matrix(1 0 0 1 285 13176 )"/></g></svg>