<svg xmlns="http://www.w3.org/2000/svg" xmlns:xlink="http://www.w3.org/1999/xlink" width="121" height="121" version="1.1"><defs><mask id="clip2664" fill="#fff"><path fill-rule="evenodd" d="M 60.165 120.945 C 27.0649999999999 120.945 0.164999999999964 93.795 0.164999999999964 60.595 C 0.164999999999964 27.495 27.0649999999999 0.594999999999999 60.165 0.594999999999999 C 93.365 0.594999999999999 120.515 27.495 120.515 60.595 C 120.515 93.795 93.365 120.945 60.165 120.945 Z"/></mask></defs><g><path fill="#fff" fill-opacity="0" fill-rule="nonzero" stroke="none" d="M 60.165 120.945 C 27.0649999999999 120.945 0.164999999999964 93.795 0.164999999999964 60.595 C 0.164999999999964 27.495 27.0649999999999 0.594999999999999 60.165 0.594999999999999 C 93.365 0.594999999999999 120.515 27.495 120.515 60.595 C 120.515 93.795 93.365 120.945 60.165 120.945 Z" transform="matrix(1 0 0 1 -716 -18990 ) matrix(1 0 0 1 716 18990 )"/><path fill="none" stroke="#fb9d53" stroke-width=".5" d="M 60.165 120.945 C 27.0649999999999 120.945 0.164999999999964 93.795 0.164999999999964 60.595 C 0.164999999999964 27.495 27.0649999999999 0.594999999999999 60.165 0.594999999999999 C 93.365 0.594999999999999 120.515 27.495 120.515 60.595 C 120.515 93.795 93.365 120.945 60.165 120.945 Z" mask="url(#clip2664)" transform="matrix(1 0 0 1 -716 -18990 ) matrix(1 0 0 1 716 18990 )"/></g></svg>