<svg xmlns="http://www.w3.org/2000/svg" xmlns:xlink="http://www.w3.org/1999/xlink" width="4" height="5" version="1.1"><defs><mask id="clip1854" fill="#fff"><path fill-rule="evenodd" d="M 1.48000000000002 4.48999999999998 C 0.980000000000018 4.48999999999998 0.480000000000018 3.88999999999999 0.480000000000018 3.19 C 0.480000000000018 2.48999999999998 0.980000000000018 0.889999999999986 1.48000000000002 0.889999999999986 C 2.08000000000004 0.889999999999986 3.58000000000004 2.48999999999998 3.58000000000004 3.19 C 3.58000000000004 3.88999999999999 2.08000000000004 4.48999999999998 1.48000000000002 4.48999999999998 Z"/></mask></defs><g><path fill="#3e3938" fill-rule="nonzero" stroke="none" d="M 1.48000000000002 4.48999999999998 C 0.980000000000018 4.48999999999998 0.480000000000018 3.88999999999999 0.480000000000018 3.19 C 0.480000000000018 2.48999999999998 0.980000000000018 0.889999999999986 1.48000000000002 0.889999999999986 C 2.08000000000004 0.889999999999986 3.58000000000004 2.48999999999998 3.58000000000004 3.19 C 3.58000000000004 3.88999999999999 2.08000000000004 4.48999999999998 1.48000000000002 4.48999999999998 Z" transform="matrix(1 0 0 1 -358 -6896 ) matrix(1 0 0 1 358 6896 )"/><path fill="none" stroke="#3e3938" stroke-width="2" d="M 1.48000000000002 4.48999999999998 C 0.980000000000018 4.48999999999998 0.480000000000018 3.88999999999999 0.480000000000018 3.19 C 0.480000000000018 2.48999999999998 0.980000000000018 0.889999999999986 1.48000000000002 0.889999999999986 C 2.08000000000004 0.889999999999986 3.58000000000004 2.48999999999998 3.58000000000004 3.19 C 3.58000000000004 3.88999999999999 2.08000000000004 4.48999999999998 1.48000000000002 4.48999999999998 Z" mask="url(#clip1854)" transform="matrix(1 0 0 1 -358 -6896 ) matrix(1 0 0 1 358 6896 )"/></g></svg>