<?xml version="1.0" encoding="utf-8"?>
<svg version="1.1" xmlns:xlink="http://www.w3.org/1999/xlink" width="76px" height="76px" xmlns="http://www.w3.org/2000/svg">
  <defs>
    <mask fill="white" id="clip224">
      <path d="M 38.6899999999999 75.68  C 18.09 75.68  0.389999999999986 58.98  0.389999999999986 38.38  C 0.389999999999986 17.78  18.09 0.0799999999999983  38.6899999999999 0.0799999999999983  C 59.29 0.0799999999999983  75.99 17.78  75.99 38.38  C 75.99 58.98  59.29 75.68  38.6899999999999 75.68  Z " fill-rule="evenodd" />
    </mask>
  </defs>
  <g transform="matrix(1 0 0 1 -688 -4950 )">
    <path d="M 38.6899999999999 75.68  C 18.09 75.68  0.389999999999986 58.98  0.389999999999986 38.38  C 0.389999999999986 17.78  18.09 0.0799999999999983  38.6899999999999 0.0799999999999983  C 59.29 0.0799999999999983  75.99 17.78  75.99 38.38  C 75.99 58.98  59.29 75.68  38.6899999999999 75.68  Z " fill-rule="nonzero" fill="#8bc0d3" stroke="none" transform="matrix(1 0 0 1 688 4950 )" />
    <path d="M 38.6899999999999 75.68  C 18.09 75.68  0.389999999999986 58.98  0.389999999999986 38.38  C 0.389999999999986 17.78  18.09 0.0799999999999983  38.6899999999999 0.0799999999999983  C 59.29 0.0799999999999983  75.99 17.78  75.99 38.38  C 75.99 58.98  59.29 75.68  38.6899999999999 75.68  Z " stroke-width="2" stroke="#8bc0d3" fill="none" transform="matrix(1 0 0 1 688 4950 )" mask="url(#clip224)" />
  </g>
</svg>