<?xml version="1.0" encoding="utf-8"?>
<svg version="1.1" xmlns:xlink="http://www.w3.org/1999/xlink" width="173px" height="39px" xmlns="http://www.w3.org/2000/svg">
  <defs>
    <mask fill="white" id="clip98">
      <path d="M 0.259999999999991 38.0599999999999  C 0.259999999999991 38.0599999999999  0.259999999999991 0.159999999999968  0.259999999999991 0.159999999999968  C 0.259999999999991 0.159999999999968  172.36 0.159999999999968  172.36 0.159999999999968  C 172.36 0.159999999999968  172.36 38.0599999999999  172.36 38.0599999999999  C 172.36 38.0599999999999  0.259999999999991 38.0599999999999  0.259999999999991 38.0599999999999  Z " fill-rule="evenodd" />
    </mask>
  </defs>
  <g transform="matrix(1 0 0 1 -454 -1016 )">
    <path d="M 0.259999999999991 38.0599999999999  C 0.259999999999991 38.0599999999999  0.259999999999991 0.159999999999968  0.259999999999991 0.159999999999968  C 0.259999999999991 0.159999999999968  172.36 0.159999999999968  172.36 0.159999999999968  C 172.36 0.159999999999968  172.36 38.0599999999999  172.36 38.0599999999999  C 172.36 38.0599999999999  0.259999999999991 38.0599999999999  0.259999999999991 38.0599999999999  Z " fill-rule="nonzero" fill="#cdcece" stroke="none" transform="matrix(1 0 0 1 454 1016 )" />
    <path d="M 0.259999999999991 38.0599999999999  C 0.259999999999991 38.0599999999999  0.259999999999991 0.159999999999968  0.259999999999991 0.159999999999968  C 0.259999999999991 0.159999999999968  172.36 0.159999999999968  172.36 0.159999999999968  C 172.36 0.159999999999968  172.36 38.0599999999999  172.36 38.0599999999999  C 172.36 38.0599999999999  0.259999999999991 38.0599999999999  0.259999999999991 38.0599999999999  Z " stroke-width="2" stroke="#cdcece" fill="none" transform="matrix(1 0 0 1 454 1016 )" mask="url(#clip98)" />
  </g>
</svg>