<?xml version="1.0" encoding="utf-8"?>
<svg version="1.1" xmlns:xlink="http://www.w3.org/1999/xlink" width="73px" height="39px" xmlns="http://www.w3.org/2000/svg">
  <defs>
    <mask fill="white" id="clip99">
      <path d="M 0.689999999999998 38.6  C 0.689999999999998 38.6  0.689999999999998 0.700000000000045  0.689999999999998 0.700000000000045  C 0.689999999999998 0.700000000000045  72.99 0.700000000000045  72.99 0.700000000000045  C 72.99 0.700000000000045  72.99 38.6  72.99 38.6  C 72.99 38.6  0.689999999999998 38.6  0.689999999999998 38.6  Z " fill-rule="evenodd" />
    </mask>
  </defs>
  <g transform="matrix(1 0 0 1 -216 -949 )">
    <path d="M 0.689999999999998 38.6  C 0.689999999999998 38.6  0.689999999999998 0.700000000000045  0.689999999999998 0.700000000000045  C 0.689999999999998 0.700000000000045  72.99 0.700000000000045  72.99 0.700000000000045  C 72.99 0.700000000000045  72.99 38.6  72.99 38.6  C 72.99 38.6  0.689999999999998 38.6  0.689999999999998 38.6  Z " fill-rule="nonzero" fill="#c33736" stroke="none" transform="matrix(1 0 0 1 216 949 )" />
    <path d="M 0.689999999999998 38.6  C 0.689999999999998 38.6  0.689999999999998 0.700000000000045  0.689999999999998 0.700000000000045  C 0.689999999999998 0.700000000000045  72.99 0.700000000000045  72.99 0.700000000000045  C 72.99 0.700000000000045  72.99 38.6  72.99 38.6  C 72.99 38.6  0.689999999999998 38.6  0.689999999999998 38.6  Z " stroke-width="2" stroke="#c33736" fill="none" transform="matrix(1 0 0 1 216 949 )" mask="url(#clip99)" />
  </g>
</svg>