<?xml version="1.0" encoding="utf-8"?>
<svg version="1.1" xmlns:xlink="http://www.w3.org/1999/xlink" width="154px" height="39px" xmlns="http://www.w3.org/2000/svg">
  <defs>
    <mask fill="white" id="clip100">
      <path d="M 0.95999999999998 38.6  C 0.95999999999998 38.6  0.95999999999998 0.700000000000045  0.95999999999998 0.700000000000045  C 0.95999999999998 0.700000000000045  153.96 0.700000000000045  153.96 0.700000000000045  C 153.96 0.700000000000045  153.96 38.6  153.96 38.6  C 153.96 38.6  0.95999999999998 38.6  0.95999999999998 38.6  Z " fill-rule="evenodd" />
    </mask>
  </defs>
  <g transform="matrix(1 0 0 1 -287 -949 )">
    <path d="M 0.95999999999998 38.6  C 0.95999999999998 38.6  0.95999999999998 0.700000000000045  0.95999999999998 0.700000000000045  C 0.95999999999998 0.700000000000045  153.96 0.700000000000045  153.96 0.700000000000045  C 153.96 0.700000000000045  153.96 38.6  153.96 38.6  C 153.96 38.6  0.95999999999998 38.6  0.95999999999998 38.6  Z " fill-rule="nonzero" fill="#302f34" stroke="none" transform="matrix(1 0 0 1 287 949 )" />
    <path d="M 0.95999999999998 38.6  C 0.95999999999998 38.6  0.95999999999998 0.700000000000045  0.95999999999998 0.700000000000045  C 0.95999999999998 0.700000000000045  153.96 0.700000000000045  153.96 0.700000000000045  C 153.96 0.700000000000045  153.96 38.6  153.96 38.6  C 153.96 38.6  0.95999999999998 38.6  0.95999999999998 38.6  Z " stroke-width="2" stroke="#302f34" fill="none" transform="matrix(1 0 0 1 287 949 )" mask="url(#clip100)" />
  </g>
</svg>