<?xml version="1.0" encoding="utf-8"?>
<svg version="1.1" xmlns:xlink="http://www.w3.org/1999/xlink" width="30px" height="21px" xmlns="http://www.w3.org/2000/svg">
  <defs>
    <mask fill="white" id="clip136">
      <path d="M 0.45999999999998 20.52  C 0.45999999999998 20.52  0.45999999999998 0.620000000000005  0.45999999999998 0.620000000000005  C 0.45999999999998 0.620000000000005  29.76 0.620000000000005  29.76 0.620000000000005  C 29.76 0.620000000000005  29.76 20.52  29.76 20.52  C 29.76 20.52  0.45999999999998 20.52  0.45999999999998 20.52  Z " fill-rule="evenodd" />
    </mask>
  </defs>
  <g transform="matrix(1 0 0 1 -530 -1122 )">
    <path d="M 0.45999999999998 20.52  C 0.45999999999998 20.52  0.45999999999998 0.620000000000005  0.45999999999998 0.620000000000005  C 0.45999999999998 0.620000000000005  29.76 0.620000000000005  29.76 0.620000000000005  C 29.76 0.620000000000005  29.76 20.52  29.76 20.52  C 29.76 20.52  0.45999999999998 20.52  0.45999999999998 20.52  Z " fill-rule="nonzero" fill="#cdcece" stroke="none" transform="matrix(1 0 0 1 530 1122 )" />
    <path d="M 0.45999999999998 20.52  C 0.45999999999998 20.52  0.45999999999998 0.620000000000005  0.45999999999998 0.620000000000005  C 0.45999999999998 0.620000000000005  29.76 0.620000000000005  29.76 0.620000000000005  C 29.76 0.620000000000005  29.76 20.52  29.76 20.52  C 29.76 20.52  0.45999999999998 20.52  0.45999999999998 20.52  Z " stroke-width="2" stroke="#cdcece" fill="none" transform="matrix(1 0 0 1 530 1122 )" mask="url(#clip136)" />
  </g>
</svg>