<?xml version="1.0" encoding="utf-8"?>
<svg version="1.1" xmlns:xlink="http://www.w3.org/1999/xlink" width="97px" height="39px" xmlns="http://www.w3.org/2000/svg">
  <defs>
    <mask fill="white" id="clip104">
      <path d="M 0.0400000000000205 38.14  C 0.0400000000000205 38.14  0.0400000000000205 0.240000000000009  0.0400000000000205 0.240000000000009  C 0.0400000000000205 0.240000000000009  96.04 0.240000000000009  96.04 0.240000000000009  C 96.04 0.240000000000009  96.04 38.14  96.04 38.14  C 96.04 38.14  0.0400000000000205 38.14  0.0400000000000205 38.14  Z " fill-rule="evenodd" />
    </mask>
  </defs>
  <g transform="matrix(1 0 0 1 -535 -883 )">
    <path d="M 0.0400000000000205 38.14  C 0.0400000000000205 38.14  0.0400000000000205 0.240000000000009  0.0400000000000205 0.240000000000009  C 0.0400000000000205 0.240000000000009  96.04 0.240000000000009  96.04 0.240000000000009  C 96.04 0.240000000000009  96.04 38.14  96.04 38.14  C 96.04 38.14  0.0400000000000205 38.14  0.0400000000000205 38.14  Z " fill-rule="nonzero" fill="#cdcece" stroke="none" transform="matrix(1 0 0 1 535 883 )" />
    <path d="M 0.0400000000000205 38.14  C 0.0400000000000205 38.14  0.0400000000000205 0.240000000000009  0.0400000000000205 0.240000000000009  C 0.0400000000000205 0.240000000000009  96.04 0.240000000000009  96.04 0.240000000000009  C 96.04 0.240000000000009  96.04 38.14  96.04 38.14  C 96.04 38.14  0.0400000000000205 38.14  0.0400000000000205 38.14  Z " stroke-width="2" stroke="#cdcece" fill="none" transform="matrix(1 0 0 1 535 883 )" mask="url(#clip104)" />
  </g>
</svg>