<?xml version="1.0" encoding="utf-8"?>
<svg version="1.1" xmlns:xlink="http://www.w3.org/1999/xlink" width="107px" height="39px" xmlns="http://www.w3.org/2000/svg">
  <defs>
    <mask fill="white" id="clip116">
      <path d="M 0.689999999999998 38.0599999999999  C 0.689999999999998 38.0599999999999  0.689999999999998 0.159999999999968  0.689999999999998 0.159999999999968  C 0.689999999999998 0.159999999999968  106.19 0.159999999999968  106.19 0.159999999999968  C 106.19 0.159999999999968  106.19 38.0599999999999  106.19 38.0599999999999  C 106.19 38.0599999999999  0.689999999999998 38.0599999999999  0.689999999999998 38.0599999999999  Z " fill-rule="evenodd" />
    </mask>
  </defs>
  <g transform="matrix(1 0 0 1 -216 -1016 )">
    <path d="M 0.689999999999998 38.0599999999999  C 0.689999999999998 38.0599999999999  0.689999999999998 0.159999999999968  0.689999999999998 0.159999999999968  C 0.689999999999998 0.159999999999968  106.19 0.159999999999968  106.19 0.159999999999968  C 106.19 0.159999999999968  106.19 38.0599999999999  106.19 38.0599999999999  C 106.19 38.0599999999999  0.689999999999998 38.0599999999999  0.689999999999998 38.0599999999999  Z " fill-rule="nonzero" fill="#c33736" stroke="none" transform="matrix(1 0 0 1 216 1016 )" />
    <path d="M 0.689999999999998 38.0599999999999  C 0.689999999999998 38.0599999999999  0.689999999999998 0.159999999999968  0.689999999999998 0.159999999999968  C 0.689999999999998 0.159999999999968  106.19 0.159999999999968  106.19 0.159999999999968  C 106.19 0.159999999999968  106.19 38.0599999999999  106.19 38.0599999999999  C 106.19 38.0599999999999  0.689999999999998 38.0599999999999  0.689999999999998 38.0599999999999  Z " stroke-width="2" stroke="#c33736" fill="none" transform="matrix(1 0 0 1 216 1016 )" mask="url(#clip116)" />
  </g>
</svg>