<?xml version="1.0" encoding="utf-8"?>
<svg version="1.1" xmlns:xlink="http://www.w3.org/1999/xlink" width="111px" height="39px" xmlns="http://www.w3.org/2000/svg">
  <defs>
    <mask fill="white" id="clip127">
      <path d="M 0.0400000000000205 38.68  C 0.0400000000000205 38.68  0.0400000000000205 0.779999999999973  0.0400000000000205 0.779999999999973  C 0.0400000000000205 0.779999999999973  110.34 0.779999999999973  110.34 0.779999999999973  C 110.34 0.779999999999973  110.34 38.68  110.34 38.68  C 110.34 38.68  0.0400000000000205 38.68  0.0400000000000205 38.68  Z " fill-rule="evenodd" />
    </mask>
  </defs>
  <g transform="matrix(1 0 0 1 -535 -816 )">
    <path d="M 0.0400000000000205 38.68  C 0.0400000000000205 38.68  0.0400000000000205 0.779999999999973  0.0400000000000205 0.779999999999973  C 0.0400000000000205 0.779999999999973  110.34 0.779999999999973  110.34 0.779999999999973  C 110.34 0.779999999999973  110.34 38.68  110.34 38.68  C 110.34 38.68  0.0400000000000205 38.68  0.0400000000000205 38.68  Z " fill-rule="nonzero" fill="#cdcece" stroke="none" transform="matrix(1 0 0 1 535 816 )" />
    <path d="M 0.0400000000000205 38.68  C 0.0400000000000205 38.68  0.0400000000000205 0.779999999999973  0.0400000000000205 0.779999999999973  C 0.0400000000000205 0.779999999999973  110.34 0.779999999999973  110.34 0.779999999999973  C 110.34 0.779999999999973  110.34 38.68  110.34 38.68  C 110.34 38.68  0.0400000000000205 38.68  0.0400000000000205 38.68  Z " stroke-width="2" stroke="#cdcece" fill="none" transform="matrix(1 0 0 1 535 816 )" mask="url(#clip127)" />
  </g>
</svg>