<?xml version="1.0" encoding="utf-8"?>
<svg version="1.1" xmlns:xlink="http://www.w3.org/1999/xlink" width="121px" height="39px" xmlns="http://www.w3.org/2000/svg">
  <defs>
    <mask fill="white" id="clip114">
      <path d="M 0.519999999999982 38.21  C 0.519999999999982 38.21  0.519999999999982 0.310000000000002  0.519999999999982 0.310000000000002  C 0.519999999999982 0.310000000000002  120.32 0.310000000000002  120.32 0.310000000000002  C 120.32 0.310000000000002  120.32 38.21  120.32 38.21  C 120.32 38.21  0.519999999999982 38.21  0.519999999999982 38.21  Z " fill-rule="evenodd" />
    </mask>
  </defs>
  <g transform="matrix(1 0 0 1 -468 -750 )">
    <path d="M 0.519999999999982 38.21  C 0.519999999999982 38.21  0.519999999999982 0.310000000000002  0.519999999999982 0.310000000000002  C 0.519999999999982 0.310000000000002  120.32 0.310000000000002  120.32 0.310000000000002  C 120.32 0.310000000000002  120.32 38.21  120.32 38.21  C 120.32 38.21  0.519999999999982 38.21  0.519999999999982 38.21  Z " fill-rule="nonzero" fill="#cdcece" stroke="none" transform="matrix(1 0 0 1 468 750 )" />
    <path d="M 0.519999999999982 38.21  C 0.519999999999982 38.21  0.519999999999982 0.310000000000002  0.519999999999982 0.310000000000002  C 0.519999999999982 0.310000000000002  120.32 0.310000000000002  120.32 0.310000000000002  C 120.32 0.310000000000002  120.32 38.21  120.32 38.21  C 120.32 38.21  0.519999999999982 38.21  0.519999999999982 38.21  Z " stroke-width="2" stroke="#cdcece" fill="none" transform="matrix(1 0 0 1 468 750 )" mask="url(#clip114)" />
  </g>
</svg>