<?xml version="1.0" encoding="utf-8"?>
<svg version="1.1" xmlns:xlink="http://www.w3.org/1999/xlink" width="109px" height="24px" xmlns="http://www.w3.org/2000/svg">
  <defs>
    <mask fill="white" id="clip138">
      <path d="M 0.269999999999982 4.69  C 0.269999999999982 2.58999999999998  1.97000000000003 0.889999999999986  3.97000000000003 0.889999999999986  C 3.97000000000003 0.889999999999986  104.57 0.889999999999986  104.57 0.889999999999986  C 106.67 0.889999999999986  108.37 2.58999999999998  108.37 4.69  C 108.37 4.69  108.37 23.89  108.37 23.89  C 108.37 23.89  0.269999999999982 23.89  0.269999999999982 23.89  C 0.269999999999982 23.89  0.269999999999982 4.69  0.269999999999982 4.69  Z " fill-rule="evenodd" />
    </mask>
  </defs>
  <g transform="matrix(1 0 0 1 -790 -869 )">
    <path d="M 0.269999999999982 4.69  C 0.269999999999982 2.58999999999998  1.97000000000003 0.889999999999986  3.97000000000003 0.889999999999986  C 3.97000000000003 0.889999999999986  104.57 0.889999999999986  104.57 0.889999999999986  C 106.67 0.889999999999986  108.37 2.58999999999998  108.37 4.69  C 108.37 4.69  108.37 23.89  108.37 23.89  C 108.37 23.89  0.269999999999982 23.89  0.269999999999982 23.89  C 0.269999999999982 23.89  0.269999999999982 4.69  0.269999999999982 4.69  Z " fill-rule="nonzero" fill="#302f34" stroke="none" transform="matrix(1 0 0 1 790 869 )" />
    <path d="M 0.269999999999982 4.69  C 0.269999999999982 2.58999999999998  1.97000000000003 0.889999999999986  3.97000000000003 0.889999999999986  C 3.97000000000003 0.889999999999986  104.57 0.889999999999986  104.57 0.889999999999986  C 106.67 0.889999999999986  108.37 2.58999999999998  108.37 4.69  C 108.37 4.69  108.37 23.89  108.37 23.89  C 108.37 23.89  0.269999999999982 23.89  0.269999999999982 23.89  C 0.269999999999982 23.89  0.269999999999982 4.69  0.269999999999982 4.69  Z " stroke-width="2" stroke="#302f34" fill="none" transform="matrix(1 0 0 1 790 869 )" mask="url(#clip138)" />
  </g>
</svg>