<?xml version="1.0" encoding="utf-8"?>
<svg version="1.1" xmlns:xlink="http://www.w3.org/1999/xlink" width="31px" height="21px" xmlns="http://www.w3.org/2000/svg">
  <defs>
    <mask fill="white" id="clip118">
      <path d="M 0.769999999999982 20.52  C 0.769999999999982 20.52  0.769999999999982 0.620000000000005  0.769999999999982 0.620000000000005  C 0.769999999999982 0.620000000000005  30.07 0.620000000000005  30.07 0.620000000000005  C 30.07 0.620000000000005  30.07 20.52  30.07 20.52  C 30.07 20.52  0.769999999999982 20.52  0.769999999999982 20.52  Z " fill-rule="evenodd" />
    </mask>
  </defs>
  <g transform="matrix(1 0 0 1 -333 -1122 )">
    <path d="M 0.769999999999982 20.52  C 0.769999999999982 20.52  0.769999999999982 0.620000000000005  0.769999999999982 0.620000000000005  C 0.769999999999982 0.620000000000005  30.07 0.620000000000005  30.07 0.620000000000005  C 30.07 0.620000000000005  30.07 20.52  30.07 20.52  C 30.07 20.52  0.769999999999982 20.52  0.769999999999982 20.52  Z " fill-rule="nonzero" fill="#c33736" stroke="none" transform="matrix(1 0 0 1 333 1122 )" />
    <path d="M 0.769999999999982 20.52  C 0.769999999999982 20.52  0.769999999999982 0.620000000000005  0.769999999999982 0.620000000000005  C 0.769999999999982 0.620000000000005  30.07 0.620000000000005  30.07 0.620000000000005  C 30.07 0.620000000000005  30.07 20.52  30.07 20.52  C 30.07 20.52  0.769999999999982 20.52  0.769999999999982 20.52  Z " stroke-width="2" stroke="#c33736" fill="none" transform="matrix(1 0 0 1 333 1122 )" mask="url(#clip118)" />
  </g>
</svg>