<?xml version="1.0" encoding="utf-8"?>
<svg version="1.1" xmlns:xlink="http://www.w3.org/1999/xlink" width="29px" height="188px" xmlns="http://www.w3.org/2000/svg">
  <defs>
    <mask fill="white" id="clip159">
      <path d="M 0.0299999999999727 187.16  C 0.0299999999999727 187.16  0.0299999999999727 0.259999999999991  0.0299999999999727 0.259999999999991  C 0.0299999999999727 0.259999999999991  28.63 0.259999999999991  28.63 0.259999999999991  C 28.63 0.259999999999991  28.63 187.16  28.63 187.16  C 28.63 187.16  0.0299999999999727 187.16  0.0299999999999727 187.16  Z " fill-rule="evenodd" />
    </mask>
  </defs>
  <g transform="matrix(1 0 0 1 -809 -2531 )">
    <path d="M 0.0299999999999727 187.16  C 0.0299999999999727 187.16  0.0299999999999727 0.259999999999991  0.0299999999999727 0.259999999999991  C 0.0299999999999727 0.259999999999991  28.63 0.259999999999991  28.63 0.259999999999991  C 28.63 0.259999999999991  28.63 187.16  28.63 187.16  C 28.63 187.16  0.0299999999999727 187.16  0.0299999999999727 187.16  Z " fill-rule="nonzero" fill="#b3e58c" stroke="none" transform="matrix(1 0 0 1 809 2531 )" />
    <path d="M 0.0299999999999727 187.16  C 0.0299999999999727 187.16  0.0299999999999727 0.259999999999991  0.0299999999999727 0.259999999999991  C 0.0299999999999727 0.259999999999991  28.63 0.259999999999991  28.63 0.259999999999991  C 28.63 0.259999999999991  28.63 187.16  28.63 187.16  C 28.63 187.16  0.0299999999999727 187.16  0.0299999999999727 187.16  Z " stroke-width="2" stroke="#b3e58c" fill="none" transform="matrix(1 0 0 1 809 2531 )" mask="url(#clip159)" />
  </g>
</svg>