<?xml version="1.0" encoding="utf-8"?>
<svg version="1.1" xmlns:xlink="http://www.w3.org/1999/xlink" width="30px" height="202px" xmlns="http://www.w3.org/2000/svg">
  <defs>
    <mask fill="white" id="clip1532">
      <path d="M 0.549999999999955 201.19  C 0.549999999999955 201.19  0.549999999999955 0.589999999999975  0.549999999999955 0.589999999999975  C 0.549999999999955 0.589999999999975  29.15 0.589999999999975  29.15 0.589999999999975  C 29.15 0.589999999999975  29.15 201.19  29.15 201.19  C 29.15 201.19  0.549999999999955 201.19  0.549999999999955 201.19  Z " fill-rule="evenodd" />
    </mask>
  </defs>
  <g transform="matrix(1 0 0 1 -701 -2517 )">
    <path d="M 0.549999999999955 201.19  C 0.549999999999955 201.19  0.549999999999955 0.589999999999975  0.549999999999955 0.589999999999975  C 0.549999999999955 0.589999999999975  29.15 0.589999999999975  29.15 0.589999999999975  C 29.15 0.589999999999975  29.15 201.19  29.15 201.19  C 29.15 201.19  0.549999999999955 201.19  0.549999999999955 201.19  Z " fill-rule="nonzero" fill="#b3e58c" stroke="none" transform="matrix(1 0 0 1 701 2517 )" />
    <path d="M 0.549999999999955 201.19  C 0.549999999999955 201.19  0.549999999999955 0.589999999999975  0.549999999999955 0.589999999999975  C 0.549999999999955 0.589999999999975  29.15 0.589999999999975  29.15 0.589999999999975  C 29.15 0.589999999999975  29.15 201.19  29.15 201.19  C 29.15 201.19  0.549999999999955 201.19  0.549999999999955 201.19  Z " stroke-width="2" stroke="#b3e58c" fill="none" transform="matrix(1 0 0 1 701 2517 )" mask="url(#clip1532)" />
  </g>
</svg>