<?xml version="1.0" encoding="utf-8"?>
<svg version="1.1" xmlns:xlink="http://www.w3.org/1999/xlink" width="30px" height="21px" xmlns="http://www.w3.org/2000/svg">
  <defs>
    <mask fill="white" id="clip160">
      <path d="M 0.470000000000027 20.07  C 0.470000000000027 20.07  0.470000000000027 0.170000000000016  0.470000000000027 0.170000000000016  C 0.470000000000027 0.170000000000016  29.77 0.170000000000016  29.77 0.170000000000016  C 29.77 0.170000000000016  29.77 20.07  29.77 20.07  C 29.77 20.07  0.470000000000027 20.07  0.470000000000027 20.07  Z " fill-rule="evenodd" />
    </mask>
  </defs>
  <g transform="matrix(1 0 0 1 -619 -2757 )">
    <path d="M 0.470000000000027 20.07  C 0.470000000000027 20.07  0.470000000000027 0.170000000000016  0.470000000000027 0.170000000000016  C 0.470000000000027 0.170000000000016  29.77 0.170000000000016  29.77 0.170000000000016  C 29.77 0.170000000000016  29.77 20.07  29.77 20.07  C 29.77 20.07  0.470000000000027 20.07  0.470000000000027 20.07  Z " fill-rule="nonzero" fill="#55bfca" stroke="none" transform="matrix(1 0 0 1 619 2757 )" />
    <path d="M 0.470000000000027 20.07  C 0.470000000000027 20.07  0.470000000000027 0.170000000000016  0.470000000000027 0.170000000000016  C 0.470000000000027 0.170000000000016  29.77 0.170000000000016  29.77 0.170000000000016  C 29.77 0.170000000000016  29.77 20.07  29.77 20.07  C 29.77 20.07  0.470000000000027 20.07  0.470000000000027 20.07  Z " stroke-width="2" stroke="#55bfca" fill="none" transform="matrix(1 0 0 1 619 2757 )" mask="url(#clip160)" />
  </g>
</svg>