<?xml version="1.0" encoding="utf-8"?>
<svg version="1.1" xmlns:xlink="http://www.w3.org/1999/xlink" width="30px" height="109px" xmlns="http://www.w3.org/2000/svg">
  <defs>
    <mask fill="white" id="clip148">
      <path d="M 0.949999999999989 108.14  C 0.949999999999989 108.14  0.949999999999989 0.54000000000002  0.949999999999989 0.54000000000002  C 0.949999999999989 0.54000000000002  29.55 0.54000000000002  29.55 0.54000000000002  C 29.55 0.54000000000002  29.55 108.14  29.55 108.14  C 29.55 108.14  0.949999999999989 108.14  0.949999999999989 108.14  Z " fill-rule="evenodd" />
    </mask>
  </defs>
  <g transform="matrix(1 0 0 1 -538 -2610 )">
    <path d="M 0.949999999999989 108.14  C 0.949999999999989 108.14  0.949999999999989 0.54000000000002  0.949999999999989 0.54000000000002  C 0.949999999999989 0.54000000000002  29.55 0.54000000000002  29.55 0.54000000000002  C 29.55 0.54000000000002  29.55 108.14  29.55 108.14  C 29.55 108.14  0.949999999999989 108.14  0.949999999999989 108.14  Z " fill-rule="nonzero" fill="#bdecf8" stroke="none" transform="matrix(1 0 0 1 538 2610 )" />
    <path d="M 0.949999999999989 108.14  C 0.949999999999989 108.14  0.949999999999989 0.54000000000002  0.949999999999989 0.54000000000002  C 0.949999999999989 0.54000000000002  29.55 0.54000000000002  29.55 0.54000000000002  C 29.55 0.54000000000002  29.55 108.14  29.55 108.14  C 29.55 108.14  0.949999999999989 108.14  0.949999999999989 108.14  Z " stroke-width="2" stroke="#bdecf8" fill="none" transform="matrix(1 0 0 1 538 2610 )" mask="url(#clip148)" />
  </g>
</svg>