<?xml version="1.0" encoding="utf-8"?>
<svg version="1.1" xmlns:xlink="http://www.w3.org/1999/xlink" width="159px" height="161px" xmlns="http://www.w3.org/2000/svg">
  <defs>
    <mask fill="white" id="clip180">
      <path d="M 158.16 160.26  C 158.16 160.26  0.960000000000036 131.96  0.960000000000036 131.96  C 13.66 61.56  73.76 6.25999999999999  146.46 0.960000000000008  C 146.46 0.960000000000008  158.16 160.26  158.16 160.26  Z " fill-rule="evenodd" />
    </mask>
  </defs>
  <g transform="matrix(1 0 0 1 -484 -4255 )">
    <path d="M 158.16 160.26  C 158.16 160.26  0.960000000000036 131.96  0.960000000000036 131.96  C 13.66 61.56  73.76 6.25999999999999  146.46 0.960000000000008  C 146.46 0.960000000000008  158.16 160.26  158.16 160.26  Z " fill-rule="nonzero" fill="#33b2c3" stroke="none" transform="matrix(1 0 0 1 484 4255 )" />
    <path d="M 158.16 160.26  C 158.16 160.26  0.960000000000036 131.96  0.960000000000036 131.96  C 13.66 61.56  73.76 6.25999999999999  146.46 0.960000000000008  C 146.46 0.960000000000008  158.16 160.26  158.16 160.26  Z " stroke-width="2" stroke="#ffffff" fill="none" transform="matrix(1 0 0 1 484 4255 )" mask="url(#clip180)" />
  </g>
</svg>