<?xml version="1.0" encoding="utf-8"?>
<svg version="1.1" xmlns:xlink="http://www.w3.org/1999/xlink" width="160px" height="188px" xmlns="http://www.w3.org/2000/svg">
  <defs>
    <mask fill="white" id="clip199">
      <path d="M 159.8 28.78  C 159.8 28.78  144.8 187.68  144.8 187.68  C 64.1 180.08  0.100000000000023 111.28  0.100000000000023 28.78  C 0.100000000000023 19.08  1 9.58000000000004  2.60000000000002 0.480000000000018  C 2.60000000000002 0.480000000000018  159.8 28.78  159.8 28.78  Z " fill-rule="evenodd" />
    </mask>
  </defs>
  <g transform="matrix(1 0 0 1 -492 -4396 )">
    <path d="M 159.8 28.78  C 159.8 28.78  144.8 187.68  144.8 187.68  C 64.1 180.08  0.100000000000023 111.28  0.100000000000023 28.78  C 0.100000000000023 19.08  1 9.58000000000004  2.60000000000002 0.480000000000018  C 2.60000000000002 0.480000000000018  159.8 28.78  159.8 28.78  Z " fill-rule="nonzero" fill="#fb9d53" stroke="none" transform="matrix(1 0 0 1 492 4396 )" />
    <path d="M 159.8 28.78  C 159.8 28.78  144.8 187.68  144.8 187.68  C 64.1 180.08  0.100000000000023 111.28  0.100000000000023 28.78  C 0.100000000000023 19.08  1 9.58000000000004  2.60000000000002 0.480000000000018  C 2.60000000000002 0.480000000000018  159.8 28.78  159.8 28.78  Z " stroke-width="2" stroke="#ffffff" fill="none" transform="matrix(1 0 0 1 492 4396 )" mask="url(#clip199)" />
  </g>
</svg>