<?xml version="1.0" encoding="utf-8"?>
<svg version="1.1" xmlns:xlink="http://www.w3.org/1999/xlink" width="30px" height="153px" xmlns="http://www.w3.org/2000/svg">
  <defs>
    <mask fill="white" id="clip173">
      <path d="M 0.529999999999973 153  C 0.529999999999973 153  0.529999999999973 0.100000000000023  0.529999999999973 0.100000000000023  C 0.529999999999973 0.100000000000023  29.13 0.100000000000023  29.13 0.100000000000023  C 29.13 0.100000000000023  29.13 153  29.13 153  C 29.13 153  0.529999999999973 153  0.529999999999973 153  Z " fill-rule="evenodd" />
    </mask>
  </defs>
  <g transform="matrix(1 0 0 1 -834 -3485 )">
    <path d="M 0.529999999999973 153  C 0.529999999999973 153  0.529999999999973 0.100000000000023  0.529999999999973 0.100000000000023  C 0.529999999999973 0.100000000000023  29.13 0.100000000000023  29.13 0.100000000000023  C 29.13 0.100000000000023  29.13 153  29.13 153  C 29.13 153  0.529999999999973 153  0.529999999999973 153  Z " fill-rule="nonzero" fill="#8ebbff" stroke="none" transform="matrix(1 0 0 1 834 3485 )" />
    <path d="M 0.529999999999973 153  C 0.529999999999973 153  0.529999999999973 0.100000000000023  0.529999999999973 0.100000000000023  C 0.529999999999973 0.100000000000023  29.13 0.100000000000023  29.13 0.100000000000023  C 29.13 0.100000000000023  29.13 153  29.13 153  C 29.13 153  0.529999999999973 153  0.529999999999973 153  Z " stroke-width="2" stroke="#8ebbff" fill="none" stroke-opacity="0.498039215686275" transform="matrix(1 0 0 1 834 3485 )" mask="url(#clip173)" />
  </g>
</svg>