<?xml version="1.0" encoding="utf-8"?>
<svg version="1.1" xmlns:xlink="http://www.w3.org/1999/xlink" width="29px" height="87px" xmlns="http://www.w3.org/2000/svg">
  <defs>
    <mask fill="white" id="clip1550">
      <path d="M 0.0799999999999841 86.03  C 0.0799999999999841 86.03  0.0799999999999841 0.629999999999995  0.0799999999999841 0.629999999999995  C 0.0799999999999841 0.629999999999995  28.68 0.629999999999995  28.68 0.629999999999995  C 28.68 0.629999999999995  28.68 86.03  28.68 86.03  C 28.68 86.03  0.0799999999999841 86.03  0.0799999999999841 86.03  Z " fill-rule="evenodd" />
    </mask>
  </defs>
  <g transform="matrix(1 0 0 1 -512 -3552 )">
    <path d="M 0.0799999999999841 86.03  C 0.0799999999999841 86.03  0.0799999999999841 0.629999999999995  0.0799999999999841 0.629999999999995  C 0.0799999999999841 0.629999999999995  28.68 0.629999999999995  28.68 0.629999999999995  C 28.68 0.629999999999995  28.68 86.03  28.68 86.03  C 28.68 86.03  0.0799999999999841 86.03  0.0799999999999841 86.03  Z " fill-rule="nonzero" fill="#8ebbff" stroke="none" transform="matrix(1 0 0 1 512 3552 )" />
    <path d="M 0.0799999999999841 86.03  C 0.0799999999999841 86.03  0.0799999999999841 0.629999999999995  0.0799999999999841 0.629999999999995  C 0.0799999999999841 0.629999999999995  28.68 0.629999999999995  28.68 0.629999999999995  C 28.68 0.629999999999995  28.68 86.03  28.68 86.03  C 28.68 86.03  0.0799999999999841 86.03  0.0799999999999841 86.03  Z " stroke-width="2" stroke="#8ebbff" fill="none" stroke-opacity="0.498039215686275" transform="matrix(1 0 0 1 512 3552 )" mask="url(#clip1550)" />
  </g>
</svg>