<?xml version="1.0" encoding="utf-8"?>
<svg version="1.1" xmlns:xlink="http://www.w3.org/1999/xlink" width="147px" height="160px" xmlns="http://www.w3.org/2000/svg">
  <defs>
    <mask fill="white" id="clip185">
      <path d="M 11.8 159.78  C 11.8 159.78  0.100000000000023 0.480000000000018  0.100000000000023 0.480000000000018  C 3.90000000000009 0.180000000000007  7.79999999999995 0.0800000000000125  11.8 0.0800000000000125  C 67.9000000000001 0.0800000000000125  118.3 29.28  146.5 73.28  C 146.5 73.28  11.8 159.78  11.8 159.78  Z " fill-rule="evenodd" />
    </mask>
  </defs>
  <g transform="matrix(1 0 0 1 -660 -4224 )">
    <path d="M 11.8 159.78  C 11.8 159.78  0.100000000000023 0.480000000000018  0.100000000000023 0.480000000000018  C 3.90000000000009 0.180000000000007  7.79999999999995 0.0800000000000125  11.8 0.0800000000000125  C 67.9000000000001 0.0800000000000125  118.3 29.28  146.5 73.28  C 146.5 73.28  11.8 159.78  11.8 159.78  Z " fill-rule="nonzero" fill="#fc5c57" stroke="none" transform="matrix(1 0 0 1 660 4224 )" />
    <path d="M 11.8 159.78  C 11.8 159.78  0.100000000000023 0.480000000000018  0.100000000000023 0.480000000000018  C 3.90000000000009 0.180000000000007  7.79999999999995 0.0800000000000125  11.8 0.0800000000000125  C 67.9000000000001 0.0800000000000125  118.3 29.28  146.5 73.28  C 146.5 73.28  11.8 159.78  11.8 159.78  Z " stroke-width="2" stroke="#ffffff" fill="none" transform="matrix(1 0 0 1 660 4224 )" mask="url(#clip185)" />
  </g>
</svg>