<?xml version="1.0" encoding="utf-8"?>
<svg version="1.1" xmlns:xlink="http://www.w3.org/1999/xlink" width="68px" height="161px" xmlns="http://www.w3.org/2000/svg">
  <defs>
    <mask fill="white" id="clip204">
      <path d="M 15.8 0.779999999999973  C 15.8 0.779999999999973  67.1 152.18  67.1 152.18  C 51.3 157.58  33.4000000000001 160.38  15.8 160.38  C 10.7 160.38  5.70000000000005 160.18  0.799999999999955 159.68  C 0.799999999999955 159.68  15.8 0.779999999999973  15.8 0.779999999999973  Z " fill-rule="evenodd" />
    </mask>
  </defs>
  <g transform="matrix(1 0 0 1 -635 -4424 )">
    <path d="M 15.8 0.779999999999973  C 15.8 0.779999999999973  67.1 152.18  67.1 152.18  C 51.3 157.58  33.4000000000001 160.38  15.8 160.38  C 10.7 160.38  5.70000000000005 160.18  0.799999999999955 159.68  C 0.799999999999955 159.68  15.8 0.779999999999973  15.8 0.779999999999973  Z " fill-rule="nonzero" fill="#cdcece" stroke="none" transform="matrix(1 0 0 1 635 4424 )" />
    <path d="M 15.8 0.779999999999973  C 15.8 0.779999999999973  67.1 152.18  67.1 152.18  C 51.3 157.58  33.4000000000001 160.38  15.8 160.38  C 10.7 160.38  5.70000000000005 160.18  0.799999999999955 159.68  C 0.799999999999955 159.68  15.8 0.779999999999973  15.8 0.779999999999973  Z " stroke-width="2" stroke="#ffffff" fill="none" transform="matrix(1 0 0 1 635 4424 )" mask="url(#clip204)" />
  </g>
</svg>