<?xml version="1.0" encoding="utf-8"?>
<svg version="1.1" xmlns:xlink="http://www.w3.org/1999/xlink" width="144px" height="129px" xmlns="http://www.w3.org/2000/svg">
  <defs>
    <mask fill="white" id="clip240">
      <path d="M 143.16 128.92  C 143.16 128.92  0.759999999999991 126.82  0.759999999999991 126.82  C 1.56 71.52  35.16 22.92  82.06 0.419999999999959  C 82.06 0.419999999999959  143.16 128.92  143.16 128.92  Z " fill-rule="evenodd" />
    </mask>
  </defs>
  <g transform="matrix(1 0 0 1 -505 -5202 )">
    <path d="M 143.16 128.92  C 143.16 128.92  0.759999999999991 126.82  0.759999999999991 126.82  C 1.56 71.52  35.16 22.92  82.06 0.419999999999959  C 82.06 0.419999999999959  143.16 128.92  143.16 128.92  Z " fill-rule="nonzero" fill="#d4cdc7" stroke="none" transform="matrix(1 0 0 1 505 5202 )" />
    <path d="M 143.16 128.92  C 143.16 128.92  0.759999999999991 126.82  0.759999999999991 126.82  C 1.56 71.52  35.16 22.92  82.06 0.419999999999959  C 82.06 0.419999999999959  143.16 128.92  143.16 128.92  Z " stroke-width="2" stroke="#cfc8c2" fill="none" transform="matrix(1 0 0 1 505 5202 )" mask="url(#clip240)" />
  </g>
</svg>