<?xml version="1.0" encoding="utf-8"?>
<svg version="1.1" xmlns:xlink="http://www.w3.org/1999/xlink" width="10px" height="10px" xmlns="http://www.w3.org/2000/svg">
  <defs>
    <mask fill="white" id="clip189">
      <path d="M 7.60000000000002 1.23999999999998  C 9.60000000000002 2.13999999999999  10.5 5.53999999999999  9.5 7.53999999999999  C 8.60000000000002 9.53999999999999  5.30000000000001 10.44  3.20000000000005 9.53999999999999  C 1.20000000000005 8.63999999999999  0.300000000000011 5.23999999999998  1.30000000000001 3.23999999999998  C 2.20000000000005 1.23999999999998  5.5 0.339999999999975  7.60000000000002 1.23999999999998  Z " fill-rule="evenodd" />
    </mask>
  </defs>
  <g transform="matrix(1 0 0 1 -552 -4312 )">
    <path d="M 7.60000000000002 1.23999999999998  C 9.60000000000002 2.13999999999999  10.5 5.53999999999999  9.5 7.53999999999999  C 8.60000000000002 9.53999999999999  5.30000000000001 10.44  3.20000000000005 9.53999999999999  C 1.20000000000005 8.63999999999999  0.300000000000011 5.23999999999998  1.30000000000001 3.23999999999998  C 2.20000000000005 1.23999999999998  5.5 0.339999999999975  7.60000000000002 1.23999999999998  Z " fill-rule="nonzero" fill="#595757" stroke="none" transform="matrix(1 0 0 1 552 4312 )" />
    <path d="M 7.60000000000002 1.23999999999998  C 9.60000000000002 2.13999999999999  10.5 5.53999999999999  9.5 7.53999999999999  C 8.60000000000002 9.53999999999999  5.30000000000001 10.44  3.20000000000005 9.53999999999999  C 1.20000000000005 8.63999999999999  0.300000000000011 5.23999999999998  1.30000000000001 3.23999999999998  C 2.20000000000005 1.23999999999998  5.5 0.339999999999975  7.60000000000002 1.23999999999998  Z " stroke-width="2" stroke="#595757" fill="none" transform="matrix(1 0 0 1 552 4312 )" mask="url(#clip189)" />
  </g>
</svg>