<?xml version="1.0" encoding="utf-8"?>
<svg version="1.1" xmlns:xlink="http://www.w3.org/1999/xlink" width="10px" height="10px" xmlns="http://www.w3.org/2000/svg">
  <defs>
    <mask fill="white" id="clip210">
      <path d="M 8.32000000000005 7.84999999999999  C 6.92000000000007 9.54999999999998  3.32000000000005 9.75  1.62 8.34999999999999  C -0.0799999999999272 6.94999999999999  -0.279999999999973 3.34999999999999  1.12 1.64999999999998  C 2.51999999999998 -0.0500000000000114  6.12 -0.25  7.82000000000005 1.14999999999998  C 9.51999999999998 2.54999999999998  9.72000000000003 6.14999999999998  8.32000000000005 7.84999999999999  Z " fill-rule="evenodd" />
    </mask>
  </defs>
  <g transform="matrix(1 0 0 1 -721 -4318 )">
    <path d="M 8.32000000000005 7.84999999999999  C 6.92000000000007 9.54999999999998  3.32000000000005 9.75  1.62 8.34999999999999  C -0.0799999999999272 6.94999999999999  -0.279999999999973 3.34999999999999  1.12 1.64999999999998  C 2.51999999999998 -0.0500000000000114  6.12 -0.25  7.82000000000005 1.14999999999998  C 9.51999999999998 2.54999999999998  9.72000000000003 6.14999999999998  8.32000000000005 7.84999999999999  Z " fill-rule="nonzero" fill="#595757" stroke="none" transform="matrix(1 0 0 1 721 4318 )" />
    <path d="M 8.32000000000005 7.84999999999999  C 6.92000000000007 9.54999999999998  3.32000000000005 9.75  1.62 8.34999999999999  C -0.0799999999999272 6.94999999999999  -0.279999999999973 3.34999999999999  1.12 1.64999999999998  C 2.51999999999998 -0.0500000000000114  6.12 -0.25  7.82000000000005 1.14999999999998  C 9.51999999999998 2.54999999999998  9.72000000000003 6.14999999999998  8.32000000000005 7.84999999999999  Z " stroke-width="2" stroke="#595757" fill="none" transform="matrix(1 0 0 1 721 4318 )" mask="url(#clip210)" />
  </g>
</svg>