<?xml version="1.0" encoding="utf-8"?>
<svg version="1.1" xmlns:xlink="http://www.w3.org/1999/xlink" width="109px" height="24px" xmlns="http://www.w3.org/2000/svg">
  <defs>
    <mask fill="white" id="clip308">
      <path d="M 0.269999999999982 4.39999999999998  C 0.269999999999982 2.30000000000007  1.97000000000003 0.600000000000023  3.97000000000003 0.600000000000023  C 3.97000000000003 0.600000000000023  104.57 0.600000000000023  104.57 0.600000000000023  C 106.67 0.600000000000023  108.37 2.30000000000007  108.37 4.39999999999998  C 108.37 4.39999999999998  108.37 23.6  108.37 23.6  C 108.37 23.6  0.269999999999982 23.6  0.269999999999982 23.6  C 0.269999999999982 23.6  0.269999999999982 4.39999999999998  0.269999999999982 4.39999999999998  Z " fill-rule="evenodd" />
    </mask>
  </defs>
  <g transform="matrix(1 0 0 1 -790 -1034 )">
    <path d="M 0.269999999999982 4.39999999999998  C 0.269999999999982 2.30000000000007  1.97000000000003 0.600000000000023  3.97000000000003 0.600000000000023  C 3.97000000000003 0.600000000000023  104.57 0.600000000000023  104.57 0.600000000000023  C 106.67 0.600000000000023  108.37 2.30000000000007  108.37 4.39999999999998  C 108.37 4.39999999999998  108.37 23.6  108.37 23.6  C 108.37 23.6  0.269999999999982 23.6  0.269999999999982 23.6  C 0.269999999999982 23.6  0.269999999999982 4.39999999999998  0.269999999999982 4.39999999999998  Z " fill-rule="nonzero" fill="#cdcece" stroke="none" transform="matrix(1 0 0 1 790 1034 )" />
    <path d="M 0.269999999999982 4.39999999999998  C 0.269999999999982 2.30000000000007  1.97000000000003 0.600000000000023  3.97000000000003 0.600000000000023  C 3.97000000000003 0.600000000000023  104.57 0.600000000000023  104.57 0.600000000000023  C 106.67 0.600000000000023  108.37 2.30000000000007  108.37 4.39999999999998  C 108.37 4.39999999999998  108.37 23.6  108.37 23.6  C 108.37 23.6  0.269999999999982 23.6  0.269999999999982 23.6  C 0.269999999999982 23.6  0.269999999999982 4.39999999999998  0.269999999999982 4.39999999999998  Z " stroke-width="2" stroke="#cdcece" fill="none" transform="matrix(1 0 0 1 790 1034 )" mask="url(#clip308)" />
  </g>
</svg>