<?xml version="1.0" encoding="utf-8"?>
<svg version="1.1" xmlns:xlink="http://www.w3.org/1999/xlink" width="135px" height="39px" xmlns="http://www.w3.org/2000/svg">
  <defs>
    <mask fill="white" id="clip113">
      <path d="M 0.219999999999999 38.0599999999999  C 0.219999999999999 38.0599999999999  0.219999999999999 0.159999999999968  0.219999999999999 0.159999999999968  C 0.219999999999999 0.159999999999968  134.22 0.159999999999968  134.22 0.159999999999968  C 134.22 0.159999999999968  134.22 38.0599999999999  134.22 38.0599999999999  C 134.22 38.0599999999999  0.219999999999999 38.0599999999999  0.219999999999999 38.0599999999999  Z " fill-rule="evenodd" />
    </mask>
  </defs>
  <g transform="matrix(1 0 0 1 -321 -1016 )">
    <path d="M 0.219999999999999 38.0599999999999  C 0.219999999999999 38.0599999999999  0.219999999999999 0.159999999999968  0.219999999999999 0.159999999999968  C 0.219999999999999 0.159999999999968  134.22 0.159999999999968  134.22 0.159999999999968  C 134.22 0.159999999999968  134.22 38.0599999999999  134.22 38.0599999999999  C 134.22 38.0599999999999  0.219999999999999 38.0599999999999  0.219999999999999 38.0599999999999  Z " fill-rule="nonzero" fill="#302f34" stroke="none" transform="matrix(1 0 0 1 321 1016 )" />
    <path d="M 0.219999999999999 38.0599999999999  C 0.219999999999999 38.0599999999999  0.219999999999999 0.159999999999968  0.219999999999999 0.159999999999968  C 0.219999999999999 0.159999999999968  134.22 0.159999999999968  134.22 0.159999999999968  C 134.22 0.159999999999968  134.22 38.0599999999999  134.22 38.0599999999999  C 134.22 38.0599999999999  0.219999999999999 38.0599999999999  0.219999999999999 38.0599999999999  Z " stroke-width="2" stroke="#302f34" fill="none" transform="matrix(1 0 0 1 321 1016 )" mask="url(#clip113)" />
  </g>
</svg>