<?xml version="1.0" encoding="utf-8"?>
<svg version="1.1" xmlns:xlink="http://www.w3.org/1999/xlink" width="103px" height="144px" xmlns="http://www.w3.org/2000/svg">
  <defs>
    <mask fill="white" id="clip1600">
      <path d="M 66.16 0.919999999999959  C 66.16 0.919999999999959  102.86 138.52  102.86 138.52  C 91.16 141.72  78.86 143.32  66.16 143.32  C 42.76 143.32  19.66 137.62  0.259999999999991 127.52  C 0.259999999999991 127.52  66.16 0.919999999999959  66.16 0.919999999999959  Z " fill-rule="evenodd" />
    </mask>
  </defs>
  <g transform="matrix(1 0 0 1 -582 -5329 )">
    <path d="M 66.16 0.919999999999959  C 66.16 0.919999999999959  102.86 138.52  102.86 138.52  C 91.16 141.72  78.86 143.32  66.16 143.32  C 42.76 143.32  19.66 137.62  0.259999999999991 127.52  C 0.259999999999991 127.52  66.16 0.919999999999959  66.16 0.919999999999959  Z " fill-rule="nonzero" fill="#ffdead" stroke="none" transform="matrix(1 0 0 1 582 5329 )" />
    <path d="M 66.16 0.919999999999959  C 66.16 0.919999999999959  102.86 138.52  102.86 138.52  C 91.16 141.72  78.86 143.32  66.16 143.32  C 42.76 143.32  19.66 137.62  0.259999999999991 127.52  C 0.259999999999991 127.52  66.16 0.919999999999959  66.16 0.919999999999959  Z " stroke-width="2" stroke="#ffd598" fill="none" transform="matrix(1 0 0 1 582 5329 )" mask="url(#clip1600)" />
  </g>
</svg>