<?xml version="1.0" encoding="utf-8"?>
<svg version="1.1" xmlns:xlink="http://www.w3.org/1999/xlink" width="114px" height="114px" xmlns="http://www.w3.org/2000/svg">
  <defs>
    <mask fill="white" id="clip1640">
      <path d="M 57.1999999999999 99.02  C 57.1999999999999 99.02  57.1999999999999 112.52  57.1999999999999 112.52  C 26.4 112.52  0.399999999999977 86.52  0.399999999999977 55.8199999999999  C 0.399999999999977 35.3199999999999  11.4 17.42  27.8 7.72000000000003  C 27.8 7.72000000000003  35.6999999999999 19.42  35.6999999999999 19.42  C 23.1999999999999 26.72  13.9 40.3199999999999  13.9 55.8199999999999  C 13.9 79.12  33.8 99.02  57.1999999999999 99.02  Z " fill-rule="evenodd" />
    </mask>
  </defs>
  <g transform="matrix(1 0 0 1 -834 -7364 )">
    <path d="M 57.1999999999999 99.02  C 57.1999999999999 99.02  57.1999999999999 112.52  57.1999999999999 112.52  C 26.4 112.52  0.399999999999977 86.52  0.399999999999977 55.8199999999999  C 0.399999999999977 35.3199999999999  11.4 17.42  27.8 7.72000000000003  C 27.8 7.72000000000003  35.6999999999999 19.42  35.6999999999999 19.42  C 23.1999999999999 26.72  13.9 40.3199999999999  13.9 55.8199999999999  C 13.9 79.12  33.8 99.02  57.1999999999999 99.02  Z " fill-rule="nonzero" fill="#ffffff" stroke="none" fill-opacity="0" transform="matrix(1 0 0 1 834 7364 )" />
    <path d="M 57.1999999999999 99.02  C 57.1999999999999 99.02  57.1999999999999 112.52  57.1999999999999 112.52  C 26.4 112.52  0.399999999999977 86.52  0.399999999999977 55.8199999999999  C 0.399999999999977 35.3199999999999  11.4 17.42  27.8 7.72000000000003  C 27.8 7.72000000000003  35.6999999999999 19.42  35.6999999999999 19.42  C 23.1999999999999 26.72  13.9 40.3199999999999  13.9 55.8199999999999  C 13.9 79.12  33.8 99.02  57.1999999999999 99.02  Z " stroke-width="2" stroke="#ffffff" fill="none" transform="matrix(1 0 0 1 834 7364 )" mask="url(#clip1640)" />
    <path d="M 56.5 0.519999999999982  L 56.5 112.02  M 0.899999999999977 56.5  L 112.4 56.5  M 28.8 8.01999999999998  L 84.5 104.52  M 8.39999999999998 28.42  L 104.9 84.12  M 84.5 8.01999999999998  L 28.8 104.52  M 104.9 28.42  L 8.39999999999998 84.12  " stroke-width="1" stroke="#ffffff" fill="none" transform="matrix(1 0 0 1 834 7364 )" mask="url(#clip1640)" />
  </g>
</svg>