<?xml version="1.0" encoding="utf-8"?>
<svg version="1.1" xmlns:xlink="http://www.w3.org/1999/xlink" width="111px" height="39px" xmlns="http://www.w3.org/2000/svg">
  <defs>
    <mask fill="white" id="clip124">
      <path d="M 0.689999999999998 38.21  C 0.689999999999998 38.21  0.689999999999998 0.310000000000002  0.689999999999998 0.310000000000002  C 0.689999999999998 0.310000000000002  110.99 0.310000000000002  110.99 0.310000000000002  C 110.99 0.310000000000002  110.99 38.21  110.99 38.21  C 110.99 38.21  0.689999999999998 38.21  0.689999999999998 38.21  Z " fill-rule="evenodd" />
    </mask>
  </defs>
  <g transform="matrix(1 0 0 1 -216 -750 )">
    <path d="M 0.689999999999998 38.21  C 0.689999999999998 38.21  0.689999999999998 0.310000000000002  0.689999999999998 0.310000000000002  C 0.689999999999998 0.310000000000002  110.99 0.310000000000002  110.99 0.310000000000002  C 110.99 0.310000000000002  110.99 38.21  110.99 38.21  C 110.99 38.21  0.689999999999998 38.21  0.689999999999998 38.21  Z " fill-rule="nonzero" fill="#c33736" stroke="none" transform="matrix(1 0 0 1 216 750 )" />
    <path d="M 0.689999999999998 38.21  C 0.689999999999998 38.21  0.689999999999998 0.310000000000002  0.689999999999998 0.310000000000002  C 0.689999999999998 0.310000000000002  110.99 0.310000000000002  110.99 0.310000000000002  C 110.99 0.310000000000002  110.99 38.21  110.99 38.21  C 110.99 38.21  0.689999999999998 38.21  0.689999999999998 38.21  Z " stroke-width="2" stroke="#c33736" fill="none" transform="matrix(1 0 0 1 216 750 )" mask="url(#clip124)" />
  </g>
</svg>