<?xml version="1.0" encoding="utf-8"?>
<svg version="1.1" xmlns:xlink="http://www.w3.org/1999/xlink" width="121px" height="39px" xmlns="http://www.w3.org/2000/svg">
  <defs>
    <mask fill="white" id="clip294">
      <path d="M 0.689999999999998 38.68  C 0.689999999999998 38.68  0.689999999999998 0.779999999999973  0.689999999999998 0.779999999999973  C 0.689999999999998 0.779999999999973  120.49 0.779999999999973  120.49 0.779999999999973  C 120.49 0.779999999999973  120.49 38.68  120.49 38.68  C 120.49 38.68  0.689999999999998 38.68  0.689999999999998 38.68  Z " fill-rule="evenodd" />
    </mask>
  </defs>
  <g transform="matrix(1 0 0 1 -216 -816 )">
    <path d="M 0.689999999999998 38.68  C 0.689999999999998 38.68  0.689999999999998 0.779999999999973  0.689999999999998 0.779999999999973  C 0.689999999999998 0.779999999999973  120.49 0.779999999999973  120.49 0.779999999999973  C 120.49 0.779999999999973  120.49 38.68  120.49 38.68  C 120.49 38.68  0.689999999999998 38.68  0.689999999999998 38.68  Z " fill-rule="nonzero" fill="#c33736" stroke="none" transform="matrix(1 0 0 1 216 816 )" />
    <path d="M 0.689999999999998 38.68  C 0.689999999999998 38.68  0.689999999999998 0.779999999999973  0.689999999999998 0.779999999999973  C 0.689999999999998 0.779999999999973  120.49 0.779999999999973  120.49 0.779999999999973  C 120.49 0.779999999999973  120.49 38.68  120.49 38.68  C 120.49 38.68  0.689999999999998 38.68  0.689999999999998 38.68  Z " stroke-width="2" stroke="#c33736" fill="none" transform="matrix(1 0 0 1 216 816 )" mask="url(#clip294)" />
  </g>
</svg>