<?xml version="1.0" encoding="utf-8"?>
<svg version="1.1" xmlns:xlink="http://www.w3.org/1999/xlink" width="29px" height="125px" xmlns="http://www.w3.org/2000/svg">
  <defs>
    <mask fill="white" id="clip158">
      <path d="M 0.0299999999999727 124.14  C 0.0299999999999727 124.14  0.0299999999999727 0.139999999999986  0.0299999999999727 0.139999999999986  C 0.0299999999999727 0.139999999999986  28.63 0.139999999999986  28.63 0.139999999999986  C 28.63 0.139999999999986  28.63 124.14  28.63 124.14  C 28.63 124.14  0.0299999999999727 124.14  0.0299999999999727 124.14  Z " fill-rule="evenodd" />
    </mask>
  </defs>
  <g transform="matrix(1 0 0 1 -459 -2594 )">
    <path d="M 0.0299999999999727 124.14  C 0.0299999999999727 124.14  0.0299999999999727 0.139999999999986  0.0299999999999727 0.139999999999986  C 0.0299999999999727 0.139999999999986  28.63 0.139999999999986  28.63 0.139999999999986  C 28.63 0.139999999999986  28.63 124.14  28.63 124.14  C 28.63 124.14  0.0299999999999727 124.14  0.0299999999999727 124.14  Z " fill-rule="nonzero" fill="#55bfca" stroke="none" transform="matrix(1 0 0 1 459 2594 )" />
    <path d="M 0.0299999999999727 124.14  C 0.0299999999999727 124.14  0.0299999999999727 0.139999999999986  0.0299999999999727 0.139999999999986  C 0.0299999999999727 0.139999999999986  28.63 0.139999999999986  28.63 0.139999999999986  C 28.63 0.139999999999986  28.63 124.14  28.63 124.14  C 28.63 124.14  0.0299999999999727 124.14  0.0299999999999727 124.14  Z " stroke-width="2" stroke="#55bfca" fill="none" transform="matrix(1 0 0 1 459 2594 )" mask="url(#clip158)" />
  </g>
</svg>