<?xml version="1.0" encoding="utf-8"?>
<svg version="1.1" xmlns:xlink="http://www.w3.org/1999/xlink" width="29px" height="229px" xmlns="http://www.w3.org/2000/svg">
  <defs>
    <mask fill="white" id="clip335">
      <path d="M 0.0699999999999932 228.15  C 0.0699999999999932 228.15  0.0699999999999932 0.25  0.0699999999999932 0.25  C 0.0699999999999932 0.25  28.67 0.25  28.67 0.25  C 28.67 0.25  28.67 228.15  28.67 228.15  C 28.67 228.15  0.0699999999999932 228.15  0.0699999999999932 228.15  Z " fill-rule="evenodd" />
    </mask>
  </defs>
  <g transform="matrix(1 0 0 1 -594 -2490 )">
    <path d="M 0.0699999999999932 228.15  C 0.0699999999999932 228.15  0.0699999999999932 0.25  0.0699999999999932 0.25  C 0.0699999999999932 0.25  28.67 0.25  28.67 0.25  C 28.67 0.25  28.67 228.15  28.67 228.15  C 28.67 228.15  0.0699999999999932 228.15  0.0699999999999932 228.15  Z " fill-rule="nonzero" fill="#b3e58c" stroke="none" transform="matrix(1 0 0 1 594 2490 )" />
    <path d="M 0.0699999999999932 228.15  C 0.0699999999999932 228.15  0.0699999999999932 0.25  0.0699999999999932 0.25  C 0.0699999999999932 0.25  28.67 0.25  28.67 0.25  C 28.67 0.25  28.67 228.15  28.67 228.15  C 28.67 228.15  0.0699999999999932 228.15  0.0699999999999932 228.15  Z " stroke-width="2" stroke="#b3e58c" fill="none" transform="matrix(1 0 0 1 594 2490 )" mask="url(#clip335)" />
  </g>
</svg>