<?xml version="1.0" encoding="utf-8"?>
<svg version="1.1" xmlns:xlink="http://www.w3.org/1999/xlink" width="29px" height="257px" xmlns="http://www.w3.org/2000/svg">
  <defs>
    <mask fill="white" id="clip156">
      <path d="M 0.110000000000014 256.21  C 0.110000000000014 256.21  0.110000000000014 0.909999999999997  0.110000000000014 0.909999999999997  C 0.110000000000014 0.909999999999997  28.71 0.909999999999997  28.71 0.909999999999997  C 28.71 0.909999999999997  28.71 256.21  28.71 256.21  C 28.71 256.21  0.110000000000014 256.21  0.110000000000014 256.21  Z " fill-rule="evenodd" />
    </mask>
  </defs>
  <g transform="matrix(1 0 0 1 -379 -2462 )">
    <path d="M 0.110000000000014 256.21  C 0.110000000000014 256.21  0.110000000000014 0.909999999999997  0.110000000000014 0.909999999999997  C 0.110000000000014 0.909999999999997  28.71 0.909999999999997  28.71 0.909999999999997  C 28.71 0.909999999999997  28.71 256.21  28.71 256.21  C 28.71 256.21  0.110000000000014 256.21  0.110000000000014 256.21  Z " fill-rule="nonzero" fill="#b3e58c" stroke="none" transform="matrix(1 0 0 1 379 2462 )" />
    <path d="M 0.110000000000014 256.21  C 0.110000000000014 256.21  0.110000000000014 0.909999999999997  0.110000000000014 0.909999999999997  C 0.110000000000014 0.909999999999997  28.71 0.909999999999997  28.71 0.909999999999997  C 28.71 0.909999999999997  28.71 256.21  28.71 256.21  C 28.71 256.21  0.110000000000014 256.21  0.110000000000014 256.21  Z " stroke-width="2" stroke="#b3e58c" fill="none" transform="matrix(1 0 0 1 379 2462 )" mask="url(#clip156)" />
  </g>
</svg>