<?xml version="1.0" encoding="utf-8"?>
<svg version="1.1" xmlns:xlink="http://www.w3.org/1999/xlink" width="30px" height="153px" xmlns="http://www.w3.org/2000/svg">
  <defs>
    <mask fill="white" id="clip330">
      <path d="M 0.470000000000027 152.2  C 0.470000000000027 152.2  0.470000000000027 0.800000000000011  0.470000000000027 0.800000000000011  C 0.470000000000027 0.800000000000011  29.0700000000001 0.800000000000011  29.0700000000001 0.800000000000011  C 29.0700000000001 0.800000000000011  29.0700000000001 152.2  29.0700000000001 152.2  C 29.0700000000001 152.2  0.470000000000027 152.2  0.470000000000027 152.2  Z " fill-rule="evenodd" />
    </mask>
  </defs>
  <g transform="matrix(1 0 0 1 -431 -2566 )">
    <path d="M 0.470000000000027 152.2  C 0.470000000000027 152.2  0.470000000000027 0.800000000000011  0.470000000000027 0.800000000000011  C 0.470000000000027 0.800000000000011  29.0700000000001 0.800000000000011  29.0700000000001 0.800000000000011  C 29.0700000000001 0.800000000000011  29.0700000000001 152.2  29.0700000000001 152.2  C 29.0700000000001 152.2  0.470000000000027 152.2  0.470000000000027 152.2  Z " fill-rule="nonzero" fill="#bdecf8" stroke="none" transform="matrix(1 0 0 1 431 2566 )" />
    <path d="M 0.470000000000027 152.2  C 0.470000000000027 152.2  0.470000000000027 0.800000000000011  0.470000000000027 0.800000000000011  C 0.470000000000027 0.800000000000011  29.0700000000001 0.800000000000011  29.0700000000001 0.800000000000011  C 29.0700000000001 0.800000000000011  29.0700000000001 152.2  29.0700000000001 152.2  C 29.0700000000001 152.2  0.470000000000027 152.2  0.470000000000027 152.2  Z " stroke-width="2" stroke="#bdecf8" fill="none" transform="matrix(1 0 0 1 431 2566 )" mask="url(#clip330)" />
  </g>
</svg>