<?xml version="1.0" encoding="utf-8"?>
<svg version="1.1" xmlns:xlink="http://www.w3.org/1999/xlink" width="30px" height="161px" xmlns="http://www.w3.org/2000/svg">
  <defs>
    <mask fill="white" id="clip346">
      <path d="M 0.960000000000036 160.2  C 0.960000000000036 160.2  0.960000000000036 0.600000000000023  0.960000000000036 0.600000000000023  C 0.960000000000036 0.600000000000023  29.5600000000001 0.600000000000023  29.5600000000001 0.600000000000023  C 29.5600000000001 0.600000000000023  29.5600000000001 160.2  29.5600000000001 160.2  C 29.5600000000001 160.2  0.960000000000036 160.2  0.960000000000036 160.2  Z " fill-rule="evenodd" />
    </mask>
  </defs>
  <g transform="matrix(1 0 0 1 -888 -2558 )">
    <path d="M 0.960000000000036 160.2  C 0.960000000000036 160.2  0.960000000000036 0.600000000000023  0.960000000000036 0.600000000000023  C 0.960000000000036 0.600000000000023  29.5600000000001 0.600000000000023  29.5600000000001 0.600000000000023  C 29.5600000000001 0.600000000000023  29.5600000000001 160.2  29.5600000000001 160.2  C 29.5600000000001 160.2  0.960000000000036 160.2  0.960000000000036 160.2  Z " fill-rule="nonzero" fill="#55bfca" stroke="none" transform="matrix(1 0 0 1 888 2558 )" />
    <path d="M 0.960000000000036 160.2  C 0.960000000000036 160.2  0.960000000000036 0.600000000000023  0.960000000000036 0.600000000000023  C 0.960000000000036 0.600000000000023  29.5600000000001 0.600000000000023  29.5600000000001 0.600000000000023  C 29.5600000000001 0.600000000000023  29.5600000000001 160.2  29.5600000000001 160.2  C 29.5600000000001 160.2  0.960000000000036 160.2  0.960000000000036 160.2  Z " stroke-width="2" stroke="#55bfca" fill="none" transform="matrix(1 0 0 1 888 2558 )" mask="url(#clip346)" />
  </g>
</svg>