<?xml version="1.0" encoding="utf-8"?>
<svg version="1.1" xmlns:xlink="http://www.w3.org/1999/xlink" width="29px" height="216px" xmlns="http://www.w3.org/2000/svg">
  <defs>
    <mask fill="white" id="clip345">
      <path d="M 0.400000000000089 215.22  C 0.400000000000089 215.22  0.400000000000089 0.920000000000016  0.400000000000089 0.920000000000016  C 0.400000000000089 0.920000000000016  29 0.920000000000016  29 0.920000000000016  C 29 0.920000000000016  29 215.22  29 215.22  C 29 215.22  0.400000000000089 215.22  0.400000000000089 215.22  Z " fill-rule="evenodd" />
    </mask>
  </defs>
  <g transform="matrix(1 0 0 1 -861 -2503 )">
    <path d="M 0.400000000000089 215.22  C 0.400000000000089 215.22  0.400000000000089 0.920000000000016  0.400000000000089 0.920000000000016  C 0.400000000000089 0.920000000000016  29 0.920000000000016  29 0.920000000000016  C 29 0.920000000000016  29 215.22  29 215.22  C 29 215.22  0.400000000000089 215.22  0.400000000000089 215.22  Z " fill-rule="nonzero" fill="#bdecf8" stroke="none" transform="matrix(1 0 0 1 861 2503 )" />
    <path d="M 0.400000000000089 215.22  C 0.400000000000089 215.22  0.400000000000089 0.920000000000016  0.400000000000089 0.920000000000016  C 0.400000000000089 0.920000000000016  29 0.920000000000016  29 0.920000000000016  C 29 0.920000000000016  29 215.22  29 215.22  C 29 215.22  0.400000000000089 215.22  0.400000000000089 215.22  Z " stroke-width="2" stroke="#bdecf8" fill="none" transform="matrix(1 0 0 1 861 2503 )" mask="url(#clip345)" />
  </g>
</svg>