<?xml version="1.0" encoding="utf-8"?>
<svg version="1.1" xmlns:xlink="http://www.w3.org/1999/xlink" width="30px" height="232px" xmlns="http://www.w3.org/2000/svg">
  <defs>
    <mask fill="white" id="clip361">
      <path d="M 0.600000000000023 231.04  C 0.600000000000023 231.04  0.600000000000023 0.439999999999998  0.600000000000023 0.439999999999998  C 0.600000000000023 0.439999999999998  29.2 0.439999999999998  29.2 0.439999999999998  C 29.2 0.439999999999998  29.2 231.04  29.2 231.04  C 29.2 231.04  0.600000000000023 231.04  0.600000000000023 231.04  Z " fill-rule="evenodd" />
    </mask>
  </defs>
  <g transform="matrix(1 0 0 1 -754 -3407 )">
    <path d="M 0.600000000000023 231.04  C 0.600000000000023 231.04  0.600000000000023 0.439999999999998  0.600000000000023 0.439999999999998  C 0.600000000000023 0.439999999999998  29.2 0.439999999999998  29.2 0.439999999999998  C 29.2 0.439999999999998  29.2 231.04  29.2 231.04  C 29.2 231.04  0.600000000000023 231.04  0.600000000000023 231.04  Z " fill-rule="nonzero" fill="#595757" stroke="none" transform="matrix(1 0 0 1 754 3407 )" />
    <path d="M 0.600000000000023 231.04  C 0.600000000000023 231.04  0.600000000000023 0.439999999999998  0.600000000000023 0.439999999999998  C 0.600000000000023 0.439999999999998  29.2 0.439999999999998  29.2 0.439999999999998  C 29.2 0.439999999999998  29.2 231.04  29.2 231.04  C 29.2 231.04  0.600000000000023 231.04  0.600000000000023 231.04  Z " stroke-width="2" stroke="#595757" fill="none" stroke-opacity="0.498039215686275" transform="matrix(1 0 0 1 754 3407 )" mask="url(#clip361)" />
  </g>
</svg>