<?xml version="1.0" encoding="utf-8"?>
<svg version="1.1" xmlns:xlink="http://www.w3.org/1999/xlink" width="30px" height="20px" xmlns="http://www.w3.org/2000/svg">
  <defs>
    <mask fill="white" id="clip366">
      <path d="M 0.0399999999999636 19.9399999999999  C 0.0399999999999636 19.9399999999999  0.0399999999999636 0.0399999999999636  0.0399999999999636 0.0399999999999636  C 0.0399999999999636 0.0399999999999636  29.3399999999999 0.0399999999999636  29.3399999999999 0.0399999999999636  C 29.3399999999999 0.0399999999999636  29.3399999999999 19.9399999999999  29.3399999999999 19.9399999999999  C 29.3399999999999 19.9399999999999  0.0399999999999636 19.9399999999999  0.0399999999999636 19.9399999999999  Z " fill-rule="evenodd" />
    </mask>
  </defs>
  <g transform="matrix(1 0 0 1 -619 -3677 )">
    <path d="M 0.0399999999999636 19.9399999999999  C 0.0399999999999636 19.9399999999999  0.0399999999999636 0.0399999999999636  0.0399999999999636 0.0399999999999636  C 0.0399999999999636 0.0399999999999636  29.3399999999999 0.0399999999999636  29.3399999999999 0.0399999999999636  C 29.3399999999999 0.0399999999999636  29.3399999999999 19.9399999999999  29.3399999999999 19.9399999999999  C 29.3399999999999 19.9399999999999  0.0399999999999636 19.9399999999999  0.0399999999999636 19.9399999999999  Z " fill-rule="nonzero" fill="#8ebbff" stroke="none" transform="matrix(1 0 0 1 619 3677 )" />
    <path d="M 0.0399999999999636 19.9399999999999  C 0.0399999999999636 19.9399999999999  0.0399999999999636 0.0399999999999636  0.0399999999999636 0.0399999999999636  C 0.0399999999999636 0.0399999999999636  29.3399999999999 0.0399999999999636  29.3399999999999 0.0399999999999636  C 29.3399999999999 0.0399999999999636  29.3399999999999 19.9399999999999  29.3399999999999 19.9399999999999  C 29.3399999999999 19.9399999999999  0.0399999999999636 19.9399999999999  0.0399999999999636 19.9399999999999  Z " stroke-width="2" stroke="#8ebbff" fill="none" stroke-opacity="0.498039215686275" transform="matrix(1 0 0 1 619 3677 )" mask="url(#clip366)" />
  </g>
</svg>