<?xml version="1.0" encoding="utf-8"?>
<svg version="1.1" xmlns:xlink="http://www.w3.org/1999/xlink" width="30px" height="303px" xmlns="http://www.w3.org/2000/svg">
  <defs>
    <mask fill="white" id="clip192">
      <path d="M 0.559999999999945 302.04  C 0.559999999999945 302.04  0.559999999999945 0.539999999999992  0.559999999999945 0.539999999999992  C 0.559999999999945 0.539999999999992  29.16 0.539999999999992  29.16 0.539999999999992  C 29.16 0.539999999999992  29.16 302.04  29.16 302.04  C 29.16 302.04  0.559999999999945 302.04  0.559999999999945 302.04  Z " fill-rule="evenodd" />
    </mask>
  </defs>
  <g transform="matrix(1 0 0 1 -969 -3336 )">
    <path d="M 0.559999999999945 302.04  C 0.559999999999945 302.04  0.559999999999945 0.539999999999992  0.559999999999945 0.539999999999992  C 0.559999999999945 0.539999999999992  29.16 0.539999999999992  29.16 0.539999999999992  C 29.16 0.539999999999992  29.16 302.04  29.16 302.04  C 29.16 302.04  0.559999999999945 302.04  0.559999999999945 302.04  Z " fill-rule="nonzero" fill="#595757" stroke="none" transform="matrix(1 0 0 1 969 3336 )" />
    <path d="M 0.559999999999945 302.04  C 0.559999999999945 302.04  0.559999999999945 0.539999999999992  0.559999999999945 0.539999999999992  C 0.559999999999945 0.539999999999992  29.16 0.539999999999992  29.16 0.539999999999992  C 29.16 0.539999999999992  29.16 302.04  29.16 302.04  C 29.16 302.04  0.559999999999945 302.04  0.559999999999945 302.04  Z " stroke-width="2" stroke="#595757" fill="none" stroke-opacity="0.498039215686275" transform="matrix(1 0 0 1 969 3336 )" mask="url(#clip192)" />
  </g>
</svg>