<?xml version="1.0" encoding="utf-8"?>
<svg version="1.1" xmlns:xlink="http://www.w3.org/1999/xlink" width="68px" height="75px" xmlns="http://www.w3.org/2000/svg">
  <defs>
    <mask fill="white" id="clip365">
      <path d="M 68 37.91  C 68 37.91  30.6 74.31  30.6 74.31  C 11.9 55.71  0.399999999999977 28.91  0.399999999999977 0.509999999999991  C 0.399999999999977 0.509999999999991  52.9 0.509999999999991  52.9 0.509999999999991  C 52.9 14.71  58.6999999999999 28.61  68 37.91  Z " fill-rule="evenodd" />
    </mask>
  </defs>
  <g transform="matrix(1 0 0 1 -833 -7004 )">
    <path d="M 68 37.91  C 68 37.91  30.6 74.31  30.6 74.31  C 11.9 55.71  0.399999999999977 28.91  0.399999999999977 0.509999999999991  C 0.399999999999977 0.509999999999991  52.9 0.509999999999991  52.9 0.509999999999991  C 52.9 14.71  58.6999999999999 28.61  68 37.91  Z " fill-rule="nonzero" fill="#19cbb1" stroke="none" transform="matrix(1 0 0 1 833 7004 )" />
    <path d="M 68 37.91  C 68 37.91  30.6 74.31  30.6 74.31  C 11.9 55.71  0.399999999999977 28.91  0.399999999999977 0.509999999999991  C 0.399999999999977 0.509999999999991  52.9 0.509999999999991  52.9 0.509999999999991  C 52.9 14.71  58.6999999999999 28.61  68 37.91  Z " stroke-width="2" stroke="#19cbb1" fill="none" transform="matrix(1 0 0 1 833 7004 )" mask="url(#clip365)" />
  </g>
</svg>