<?xml version="1.0" encoding="utf-8"?>
<svg version="1.1" xmlns:xlink="http://www.w3.org/1999/xlink" width="29px" height="300px" xmlns="http://www.w3.org/2000/svg">
  <defs>
    <mask fill="white" id="clip186">
      <path d="M 0.120000000000005 299.01  C 0.120000000000005 299.01  0.120000000000005 0.909999999999997  0.120000000000005 0.909999999999997  C 0.120000000000005 0.909999999999997  28.72 0.909999999999997  28.72 0.909999999999997  C 28.72 0.909999999999997  28.72 299.01  28.72 299.01  C 28.72 299.01  0.120000000000005 299.01  0.120000000000005 299.01  Z " fill-rule="evenodd" />
    </mask>
  </defs>
  <g transform="matrix(1 0 0 1 -647 -3339 )">
    <path d="M 0.120000000000005 299.01  C 0.120000000000005 299.01  0.120000000000005 0.909999999999997  0.120000000000005 0.909999999999997  C 0.120000000000005 0.909999999999997  28.72 0.909999999999997  28.72 0.909999999999997  C 28.72 0.909999999999997  28.72 299.01  28.72 299.01  C 28.72 299.01  0.120000000000005 299.01  0.120000000000005 299.01  Z " fill-rule="nonzero" fill="#595757" stroke="none" transform="matrix(1 0 0 1 647 3339 )" />
    <path d="M 0.120000000000005 299.01  C 0.120000000000005 299.01  0.120000000000005 0.909999999999997  0.120000000000005 0.909999999999997  C 0.120000000000005 0.909999999999997  28.72 0.909999999999997  28.72 0.909999999999997  C 28.72 0.909999999999997  28.72 299.01  28.72 299.01  C 28.72 299.01  0.120000000000005 299.01  0.120000000000005 299.01  Z " stroke-width="2" stroke="#595757" fill="none" stroke-opacity="0.498039215686275" transform="matrix(1 0 0 1 647 3339 )" mask="url(#clip186)" />
  </g>
</svg>