<?xml version="1.0" encoding="utf-8"?>
<svg version="1.1" xmlns:xlink="http://www.w3.org/1999/xlink" width="83px" height="71px" xmlns="http://www.w3.org/2000/svg">
  <defs>
    <mask fill="white" id="clip379">
      <path d="M 0.0499999999999545 31.77  C 0.0499999999999545 31.77  1.64999999999998 0.970000000000027  1.64999999999998 0.970000000000027  C 37.95 2.87  69.65 27.27  82.05 59.67  C 82.05 59.67  53.25 70.77  53.25 70.77  C 45.05 49.47  23.95 33.0700000000001  0.0499999999999545 31.77  Z " fill-rule="evenodd" />
    </mask>
  </defs>
  <g transform="matrix(1 0 0 1 -715 -7314 )">
    <path d="M 0.0499999999999545 31.77  C 0.0499999999999545 31.77  1.64999999999998 0.970000000000027  1.64999999999998 0.970000000000027  C 37.95 2.87  69.65 27.27  82.05 59.67  C 82.05 59.67  53.25 70.77  53.25 70.77  C 45.05 49.47  23.95 33.0700000000001  0.0499999999999545 31.77  Z " fill-rule="nonzero" fill="#64c5c5" stroke="none" transform="matrix(1 0 0 1 715 7314 )" />
    <path d="M 0.0499999999999545 31.77  C 0.0499999999999545 31.77  1.64999999999998 0.970000000000027  1.64999999999998 0.970000000000027  C 37.95 2.87  69.65 27.27  82.05 59.67  C 82.05 59.67  53.25 70.77  53.25 70.77  C 45.05 49.47  23.95 33.0700000000001  0.0499999999999545 31.77  Z " stroke-width="2" stroke="#64c5c5" fill="none" transform="matrix(1 0 0 1 715 7314 )" mask="url(#clip379)" />
  </g>
</svg>