<?xml version="1.0" encoding="utf-8"?>
<svg version="1.1" xmlns:xlink="http://www.w3.org/1999/xlink" width="10px" height="10px" xmlns="http://www.w3.org/2000/svg">
  <defs>
    <mask fill="white" id="clip393">
      <path d="M 0.82000000000005 9.10000000000036  C 0.82000000000005 9.10000000000036  5.62 0.100000000000364  5.62 0.100000000000364  C 5.62 0.100000000000364  9.42000000000007 9.10000000000036  9.42000000000007 9.10000000000036  C 9.42000000000007 9.10000000000036  0.82000000000005 9.10000000000036  0.82000000000005 9.10000000000036  Z " fill-rule="evenodd" />
    </mask>
  </defs>
  <g transform="matrix(1 0 0 1 -812 -8043 )">
    <path d="M 0.82000000000005 9.10000000000036  C 0.82000000000005 9.10000000000036  5.62 0.100000000000364  5.62 0.100000000000364  C 5.62 0.100000000000364  9.42000000000007 9.10000000000036  9.42000000000007 9.10000000000036  C 9.42000000000007 9.10000000000036  0.82000000000005 9.10000000000036  0.82000000000005 9.10000000000036  Z " fill-rule="nonzero" fill="#ffffff" stroke="none" fill-opacity="0" transform="matrix(1 0 0 1 812 8043 )" />
    <path d="M 0.82000000000005 9.10000000000036  C 0.82000000000005 9.10000000000036  5.62 0.100000000000364  5.62 0.100000000000364  C 5.62 0.100000000000364  9.42000000000007 9.10000000000036  9.42000000000007 9.10000000000036  C 9.42000000000007 9.10000000000036  0.82000000000005 9.10000000000036  0.82000000000005 9.10000000000036  Z " stroke-width="2" stroke="#fb9d53" fill="none" transform="matrix(1 0 0 1 812 8043 )" mask="url(#clip393)" />
  </g>
</svg>