<?xml version="1.0" encoding="utf-8"?>
<svg version="1.1" xmlns:xlink="http://www.w3.org/1999/xlink" width="9px" height="10px" xmlns="http://www.w3.org/2000/svg">
  <defs>
    <mask fill="white" id="clip1773">
      <path d="M 0.420000000000073 9.30000000000018  C 0.420000000000073 9.30000000000018  5.22000000000003 0.300000000000182  5.22000000000003 0.300000000000182  C 5.22000000000003 0.300000000000182  8.92000000000007 9.30000000000018  8.92000000000007 9.30000000000018  C 8.92000000000007 9.30000000000018  0.420000000000073 9.30000000000018  0.420000000000073 9.30000000000018  Z " fill-rule="evenodd" />
    </mask>
  </defs>
  <g transform="matrix(1 0 0 1 -631 -8046 )">
    <path d="M 0.420000000000073 9.30000000000018  C 0.420000000000073 9.30000000000018  5.22000000000003 0.300000000000182  5.22000000000003 0.300000000000182  C 5.22000000000003 0.300000000000182  8.92000000000007 9.30000000000018  8.92000000000007 9.30000000000018  C 8.92000000000007 9.30000000000018  0.420000000000073 9.30000000000018  0.420000000000073 9.30000000000018  Z " fill-rule="nonzero" fill="#ffffff" stroke="none" fill-opacity="0" transform="matrix(1 0 0 1 631 8046 )" />
    <path d="M 0.420000000000073 9.30000000000018  C 0.420000000000073 9.30000000000018  5.22000000000003 0.300000000000182  5.22000000000003 0.300000000000182  C 5.22000000000003 0.300000000000182  8.92000000000007 9.30000000000018  8.92000000000007 9.30000000000018  C 8.92000000000007 9.30000000000018  0.420000000000073 9.30000000000018  0.420000000000073 9.30000000000018  Z " stroke-width="2" stroke="#fb9d53" fill="none" transform="matrix(1 0 0 1 631 8046 )" mask="url(#clip1773)" />
  </g>
</svg>