<?xml version="1.0" encoding="utf-8"?>
<svg version="1.1" xmlns:xlink="http://www.w3.org/1999/xlink" width="9px" height="10px" xmlns="http://www.w3.org/2000/svg">
  <defs>
    <mask fill="white" id="clip390">
      <path d="M 0.0200000000000102 9.39999999999998  C 0.0200000000000102 9.39999999999998  4.82000000000002 0.399999999999977  4.82000000000002 0.399999999999977  C 4.82000000000002 0.399999999999977  8.62000000000003 9.39999999999998  8.62000000000003 9.39999999999998  C 8.62000000000003 9.39999999999998  0.0200000000000102 9.39999999999998  0.0200000000000102 9.39999999999998  Z " fill-rule="evenodd" />
    </mask>
  </defs>
  <g transform="matrix(1 0 0 1 -329 -8084 )">
    <path d="M 0.0200000000000102 9.39999999999998  C 0.0200000000000102 9.39999999999998  4.82000000000002 0.399999999999977  4.82000000000002 0.399999999999977  C 4.82000000000002 0.399999999999977  8.62000000000003 9.39999999999998  8.62000000000003 9.39999999999998  C 8.62000000000003 9.39999999999998  0.0200000000000102 9.39999999999998  0.0200000000000102 9.39999999999998  Z " fill-rule="nonzero" fill="#fb9d53" stroke="none" transform="matrix(1 0 0 1 329 8084 )" />
    <path d="M 0.0200000000000102 9.39999999999998  C 0.0200000000000102 9.39999999999998  4.82000000000002 0.399999999999977  4.82000000000002 0.399999999999977  C 4.82000000000002 0.399999999999977  8.62000000000003 9.39999999999998  8.62000000000003 9.39999999999998  C 8.62000000000003 9.39999999999998  0.0200000000000102 9.39999999999998  0.0200000000000102 9.39999999999998  Z " stroke-width="2" stroke="#fb9d53" fill="none" transform="matrix(1 0 0 1 329 8084 )" mask="url(#clip390)" />
  </g>
</svg>