<?xml version="1.0" encoding="utf-8"?>
<svg version="1.1" xmlns:xlink="http://www.w3.org/1999/xlink" width="161px" height="238px" xmlns="http://www.w3.org/2000/svg">
  <defs>
    <mask fill="white" id="clip371">
      <path d="M 0.879999999999995 86.12  C 0.879999999999995 86.12  135.58 0.620000000000005  135.58 0.620000000000005  C 151.38 25.3200000000001  160.48 54.62  160.48 86.12  C 160.48 156.12  114.18 216.52  51.1800000000001 237.52  C 51.1800000000001 237.52  0.879999999999995 86.12  0.879999999999995 86.12  Z " fill-rule="evenodd" />
    </mask>
  </defs>
  <g transform="matrix(1 0 0 1 -668 -4345 )">
    <path d="M 0.879999999999995 86.12  C 0.879999999999995 86.12  135.58 0.620000000000005  135.58 0.620000000000005  C 151.38 25.3200000000001  160.48 54.62  160.48 86.12  C 160.48 156.12  114.18 216.52  51.1800000000001 237.52  C 51.1800000000001 237.52  0.879999999999995 86.12  0.879999999999995 86.12  Z " fill-rule="nonzero" fill="#2f7a8e" stroke="none" transform="matrix(1 0 0 1 668 4345 )" />
    <path d="M 0.879999999999995 86.12  C 0.879999999999995 86.12  135.58 0.620000000000005  135.58 0.620000000000005  C 151.38 25.3200000000001  160.48 54.62  160.48 86.12  C 160.48 156.12  114.18 216.52  51.1800000000001 237.52  C 51.1800000000001 237.52  0.879999999999995 86.12  0.879999999999995 86.12  Z " stroke-width="2" stroke="#ffffff" fill="none" transform="matrix(1 0 0 1 668 4345 )" mask="url(#clip371)" />
  </g>
</svg>