<?xml version="1.0" encoding="utf-8"?>
<svg version="1.1" xmlns:xlink="http://www.w3.org/1999/xlink" width="9px" height="9px" xmlns="http://www.w3.org/2000/svg">
  <defs>
    <mask fill="white" id="clip392">
      <path d="M 0.0200000000000387 9  C 0.0200000000000387 9  3.72000000000003 0  3.72000000000003 0  C 3.72000000000003 0  8.52000000000004 9  8.52000000000004 9  C 8.52000000000004 9  0.0200000000000387 9  0.0200000000000387 9  Z " fill-rule="evenodd" />
    </mask>
  </defs>
  <g transform="matrix(1 0 0 1 -450 -8078 )">
    <path d="M 0.0200000000000387 9  C 0.0200000000000387 9  3.72000000000003 0  3.72000000000003 0  C 3.72000000000003 0  8.52000000000004 9  8.52000000000004 9  C 8.52000000000004 9  0.0200000000000387 9  0.0200000000000387 9  Z " fill-rule="nonzero" fill="#ffffff" stroke="none" fill-opacity="0" transform="matrix(1 0 0 1 450 8078 )" />
    <path d="M 0.0200000000000387 9  C 0.0200000000000387 9  3.72000000000003 0  3.72000000000003 0  C 3.72000000000003 0  8.52000000000004 9  8.52000000000004 9  C 8.52000000000004 9  0.0200000000000387 9  0.0200000000000387 9  Z " stroke-width="2" stroke="#fb9d53" fill="none" transform="matrix(1 0 0 1 450 8078 )" mask="url(#clip392)" />
  </g>
</svg>