<?xml version="1.0" encoding="utf-8"?>
<svg version="1.1" xmlns:xlink="http://www.w3.org/1999/xlink" width="10px" height="10px" xmlns="http://www.w3.org/2000/svg">
  <defs>
    <mask fill="white" id="clip413">
      <path d="M 0.920000000000073 9.69999999999982  C 0.920000000000073 9.69999999999982  0.920000000000073 0.699999999999818  0.920000000000073 0.699999999999818  C 0.920000000000073 0.699999999999818  9.42000000000007 0.699999999999818  9.42000000000007 0.699999999999818  C 9.42000000000007 0.699999999999818  9.42000000000007 9.69999999999982  9.42000000000007 9.69999999999982  C 9.42000000000007 9.69999999999982  0.920000000000073 9.69999999999982  0.920000000000073 9.69999999999982  Z " fill-rule="evenodd" />
    </mask>
  </defs>
  <g transform="matrix(1 0 0 1 -691 -7963 )">
    <path d="M 0.920000000000073 9.69999999999982  C 0.920000000000073 9.69999999999982  0.920000000000073 0.699999999999818  0.920000000000073 0.699999999999818  C 0.920000000000073 0.699999999999818  9.42000000000007 0.699999999999818  9.42000000000007 0.699999999999818  C 9.42000000000007 0.699999999999818  9.42000000000007 9.69999999999982  9.42000000000007 9.69999999999982  C 9.42000000000007 9.69999999999982  0.920000000000073 9.69999999999982  0.920000000000073 9.69999999999982  Z " fill-rule="nonzero" fill="#ffffff" stroke="none" fill-opacity="0" transform="matrix(1 0 0 1 691 7963 )" />
    <path d="M 0.920000000000073 9.69999999999982  C 0.920000000000073 9.69999999999982  0.920000000000073 0.699999999999818  0.920000000000073 0.699999999999818  C 0.920000000000073 0.699999999999818  9.42000000000007 0.699999999999818  9.42000000000007 0.699999999999818  C 9.42000000000007 0.699999999999818  9.42000000000007 9.69999999999982  9.42000000000007 9.69999999999982  C 9.42000000000007 9.69999999999982  0.920000000000073 9.69999999999982  0.920000000000073 9.69999999999982  Z " stroke-width="2" stroke="#fc5c57" fill="none" transform="matrix(1 0 0 1 691 7963 )" mask="url(#clip413)" />
  </g>
</svg>