<?xml version="1.0" encoding="utf-8"?>
<svg version="1.1" xmlns:xlink="http://www.w3.org/1999/xlink" width="124px" height="123px" xmlns="http://www.w3.org/2000/svg">
  <defs>
    <mask fill="white" id="clip257">
      <path d="M 49.92 0.120000000000005  C 49.92 0.120000000000005  123.72 0.420000000000016  123.72 0.420000000000016  C 123.52 67.22  68.22 122.32  1.42000000000002 122.32  C 1.12 122.32  0.920000000000016 122.32  0.719999999999999 122.32  C 0.719999999999999 122.32  1.12 48.52  1.12 48.52  C 1.22 48.52  1.31999999999999 48.52  1.42000000000002 48.52  C 28.12 48.52  49.82 26.92  49.92 0.120000000000005  Z " fill-rule="evenodd" />
    </mask>
  </defs>
  <g transform="matrix(1 0 0 1 -300 -6227 )">
    <path d="M 49.92 0.120000000000005  C 49.92 0.120000000000005  123.72 0.420000000000016  123.72 0.420000000000016  C 123.52 67.22  68.22 122.32  1.42000000000002 122.32  C 1.12 122.32  0.920000000000016 122.32  0.719999999999999 122.32  C 0.719999999999999 122.32  1.12 48.52  1.12 48.52  C 1.22 48.52  1.31999999999999 48.52  1.42000000000002 48.52  C 28.12 48.52  49.82 26.92  49.92 0.120000000000005  Z " fill-rule="nonzero" fill="#ffaf00" stroke="none" transform="matrix(1 0 0 1 300 6227 )" />
    <path d="M 49.92 0.120000000000005  C 49.92 0.120000000000005  123.72 0.420000000000016  123.72 0.420000000000016  C 123.52 67.22  68.22 122.32  1.42000000000002 122.32  C 1.12 122.32  0.920000000000016 122.32  0.719999999999999 122.32  C 0.719999999999999 122.32  1.12 48.52  1.12 48.52  C 1.22 48.52  1.31999999999999 48.52  1.42000000000002 48.52  C 28.12 48.52  49.82 26.92  49.92 0.120000000000005  Z " stroke-width="2" stroke="#ffaf00" fill="none" transform="matrix(1 0 0 1 300 6227 )" mask="url(#clip257)" />
  </g>
</svg>