<?xml version="1.0" encoding="utf-8"?>
<svg version="1.1" xmlns:xlink="http://www.w3.org/1999/xlink" width="204px" height="220px" xmlns="http://www.w3.org/2000/svg">
  <defs>
    <mask fill="white" id="clip231">
      <path d="M 61.16 142.92  C 61.16 142.92  0.0600000000000023 14.42  0.0600000000000023 14.42  C 18.5599999999999 5.51999999999998  39.26 0.519999999999982  61.16 0.519999999999982  C 139.26 0.519999999999982  203.56 64.82  203.56 142.92  C 203.56 171.02  195.36 197.22  181.26 219.22  C 181.26 219.22  61.16 142.92  61.16 142.92  Z " fill-rule="evenodd" />
    </mask>
  </defs>
  <g transform="matrix(1 0 0 1 -586 -5188 )">
    <path d="M 61.16 142.92  C 61.16 142.92  0.0600000000000023 14.42  0.0600000000000023 14.42  C 18.5599999999999 5.51999999999998  39.26 0.519999999999982  61.16 0.519999999999982  C 139.26 0.519999999999982  203.56 64.82  203.56 142.92  C 203.56 171.02  195.36 197.22  181.26 219.22  C 181.26 219.22  61.16 142.92  61.16 142.92  Z " fill-rule="nonzero" fill="#8acf57" stroke="none" transform="matrix(1 0 0 1 586 5188 )" />
    <path d="M 61.16 142.92  C 61.16 142.92  0.0600000000000023 14.42  0.0600000000000023 14.42  C 18.5599999999999 5.51999999999998  39.26 0.519999999999982  61.16 0.519999999999982  C 139.26 0.519999999999982  203.56 64.82  203.56 142.92  C 203.56 171.02  195.36 197.22  181.26 219.22  C 181.26 219.22  61.16 142.92  61.16 142.92  Z " stroke-width="2" stroke="#82cc4c" fill="none" transform="matrix(1 0 0 1 586 5188 )" mask="url(#clip231)" />
  </g>
</svg>