<?xml version="1.0" encoding="utf-8"?>
<svg version="1.1" xmlns:xlink="http://www.w3.org/1999/xlink" width="13px" height="14px" xmlns="http://www.w3.org/2000/svg">
  <defs>
    <mask fill="white" id="clip1811">
      <path d="M 0.200000000000045 7.59000000000015  C 0.200000000000045 7.59000000000015  6.89999999999998 0.590000000000146  6.89999999999998 0.590000000000146  C 6.89999999999998 0.590000000000146  12.5 7.59000000000015  12.5 7.59000000000015  C 12.5 7.59000000000015  6.89999999999998 13.5900000000001  6.89999999999998 13.5900000000001  C 6.89999999999998 13.5900000000001  0.200000000000045 7.59000000000015  0.200000000000045 7.59000000000015  Z " fill-rule="evenodd" />
    </mask>
  </defs>
  <g transform="matrix(1 0 0 1 -568 -9047 )">
    <path d="M 0.200000000000045 7.59000000000015  C 0.200000000000045 7.59000000000015  6.89999999999998 0.590000000000146  6.89999999999998 0.590000000000146  C 6.89999999999998 0.590000000000146  12.5 7.59000000000015  12.5 7.59000000000015  C 12.5 7.59000000000015  6.89999999999998 13.5900000000001  6.89999999999998 13.5900000000001  C 6.89999999999998 13.5900000000001  0.200000000000045 7.59000000000015  0.200000000000045 7.59000000000015  Z " fill-rule="nonzero" fill="#ffffff" stroke="none" fill-opacity="0" transform="matrix(1 0 0 1 568 9047 )" />
    <path d="M 0.200000000000045 7.59000000000015  C 0.200000000000045 7.59000000000015  6.89999999999998 0.590000000000146  6.89999999999998 0.590000000000146  C 6.89999999999998 0.590000000000146  12.5 7.59000000000015  12.5 7.59000000000015  C 12.5 7.59000000000015  6.89999999999998 13.5900000000001  6.89999999999998 13.5900000000001  C 6.89999999999998 13.5900000000001  0.200000000000045 7.59000000000015  0.200000000000045 7.59000000000015  Z " stroke-width="2" stroke="#d4cdc7" fill="none" transform="matrix(1 0 0 1 568 9047 )" mask="url(#clip1811)" />
  </g>
</svg>