<?xml version="1.0" encoding="utf-8"?>
<svg version="1.1" xmlns:xlink="http://www.w3.org/1999/xlink" width="13px" height="14px" xmlns="http://www.w3.org/2000/svg">
  <defs>
    <mask fill="white" id="clip447">
      <path d="M 0 7.69000000000051  C 0 7.69000000000051  5.60000000000002 0.690000000000509  5.60000000000002 0.690000000000509  C 5.60000000000002 0.690000000000509  12.3 7.69000000000051  12.3 7.69000000000051  C 12.3 7.69000000000051  5.60000000000002 13.6900000000005  5.60000000000002 13.6900000000005  C 5.60000000000002 13.6900000000005  0 7.69000000000051  0 7.69000000000051  Z " fill-rule="evenodd" />
    </mask>
  </defs>
  <g transform="matrix(1 0 0 1 -635 -9085 )">
    <path d="M 0 7.69000000000051  C 0 7.69000000000051  5.60000000000002 0.690000000000509  5.60000000000002 0.690000000000509  C 5.60000000000002 0.690000000000509  12.3 7.69000000000051  12.3 7.69000000000051  C 12.3 7.69000000000051  5.60000000000002 13.6900000000005  5.60000000000002 13.6900000000005  C 5.60000000000002 13.6900000000005  0 7.69000000000051  0 7.69000000000051  Z " fill-rule="nonzero" fill="#ffffff" stroke="none" fill-opacity="0" transform="matrix(1 0 0 1 635 9085 )" />
    <path d="M 0 7.69000000000051  C 0 7.69000000000051  5.60000000000002 0.690000000000509  5.60000000000002 0.690000000000509  C 5.60000000000002 0.690000000000509  12.3 7.69000000000051  12.3 7.69000000000051  C 12.3 7.69000000000051  5.60000000000002 13.6900000000005  5.60000000000002 13.6900000000005  C 5.60000000000002 13.6900000000005  0 7.69000000000051  0 7.69000000000051  Z " stroke-width="2" stroke="#d4cdc7" fill="none" transform="matrix(1 0 0 1 635 9085 )" mask="url(#clip447)" />
  </g>
</svg>