<?xml version="1.0" encoding="utf-8"?>
<svg version="1.1" xmlns:xlink="http://www.w3.org/1999/xlink" width="121px" height="139px" xmlns="http://www.w3.org/2000/svg">
  <defs>
    <mask fill="white" id="clip405">
      <path d="M 0.159999999999968 0.919999999999959  C 0.159999999999968 0.919999999999959  120.26 78.22  120.26 78.22  C 101.56 107.42  71.26 129.32  36.86 138.52  C 36.86 138.52  0.159999999999968 0.919999999999959  0.159999999999968 0.919999999999959  Z " fill-rule="evenodd" />
    </mask>
  </defs>
  <g transform="matrix(1 0 0 1 -647 -5329 )">
    <path d="M 0.159999999999968 0.919999999999959  C 0.159999999999968 0.919999999999959  120.26 78.22  120.26 78.22  C 101.56 107.42  71.26 129.32  36.86 138.52  C 36.86 138.52  0.159999999999968 0.919999999999959  0.159999999999968 0.919999999999959  Z " fill-rule="nonzero" fill="#e0e0e0" stroke="none" transform="matrix(1 0 0 1 647 5329 )" />
    <path d="M 0.159999999999968 0.919999999999959  C 0.159999999999968 0.919999999999959  120.26 78.22  120.26 78.22  C 101.56 107.42  71.26 129.32  36.86 138.52  C 36.86 138.52  0.159999999999968 0.919999999999959  0.159999999999968 0.919999999999959  Z " stroke-width="2" stroke="#d4d4d4" fill="none" transform="matrix(1 0 0 1 647 5329 )" mask="url(#clip405)" />
  </g>
</svg>