<?xml version="1.0" encoding="utf-8"?>
<svg version="1.1" xmlns:xlink="http://www.w3.org/1999/xlink" width="14px" height="14px" xmlns="http://www.w3.org/2000/svg">
  <defs>
    <mask fill="white" id="clip433">
      <path d="M 0.700000000000045 7.29000000000087  C 0.700000000000045 7.29000000000087  7.39999999999998 0.290000000000873  7.39999999999998 0.290000000000873  C 7.39999999999998 0.290000000000873  13.1 7.29000000000087  13.1 7.29000000000087  C 13.1 7.29000000000087  7.39999999999998 13.2900000000009  7.39999999999998 13.2900000000009  C 7.39999999999998 13.2900000000009  0.700000000000045 7.29000000000087  0.700000000000045 7.29000000000087  Z " fill-rule="evenodd" />
    </mask>
  </defs>
  <g transform="matrix(1 0 0 1 -701 -9093 )">
    <path d="M 0.700000000000045 7.29000000000087  C 0.700000000000045 7.29000000000087  7.39999999999998 0.290000000000873  7.39999999999998 0.290000000000873  C 7.39999999999998 0.290000000000873  13.1 7.29000000000087  13.1 7.29000000000087  C 13.1 7.29000000000087  7.39999999999998 13.2900000000009  7.39999999999998 13.2900000000009  C 7.39999999999998 13.2900000000009  0.700000000000045 7.29000000000087  0.700000000000045 7.29000000000087  Z " fill-rule="nonzero" fill="#ffffff" stroke="none" fill-opacity="0" transform="matrix(1 0 0 1 701 9093 )" />
    <path d="M 0.700000000000045 7.29000000000087  C 0.700000000000045 7.29000000000087  7.39999999999998 0.290000000000873  7.39999999999998 0.290000000000873  C 7.39999999999998 0.290000000000873  13.1 7.29000000000087  13.1 7.29000000000087  C 13.1 7.29000000000087  7.39999999999998 13.2900000000009  7.39999999999998 13.2900000000009  C 7.39999999999998 13.2900000000009  0.700000000000045 7.29000000000087  0.700000000000045 7.29000000000087  Z " stroke-width="2" stroke="#d4cdc7" fill="none" transform="matrix(1 0 0 1 701 9093 )" mask="url(#clip433)" />
  </g>
</svg>