<?xml version="1.0" encoding="utf-8"?>
<svg version="1.1" xmlns:xlink="http://www.w3.org/1999/xlink" width="14px" height="13px" xmlns="http://www.w3.org/2000/svg">
  <defs>
    <mask fill="white" id="clip1838">
      <path d="M 7.49000000000001 0.210000000000036  C 10.59 0.210000000000036  13.19 3.81000000000006  13.19 6.91000000000008  C 13.19 10.0100000000001  10.59 12.6100000000001  7.49000000000001 12.6100000000001  C 4.38999999999999 12.6100000000001  0.79000000000002 10.0100000000001  0.79000000000002 6.91000000000008  C 0.79000000000002 3.81000000000006  4.38999999999999 0.210000000000036  7.49000000000001 0.210000000000036  Z " fill-rule="evenodd" />
    </mask>
  </defs>
  <g transform="matrix(1 0 0 1 -514 -9266 )">
    <path d="M 7.49000000000001 0.210000000000036  C 10.59 0.210000000000036  13.19 3.81000000000006  13.19 6.91000000000008  C 13.19 10.0100000000001  10.59 12.6100000000001  7.49000000000001 12.6100000000001  C 4.38999999999999 12.6100000000001  0.79000000000002 10.0100000000001  0.79000000000002 6.91000000000008  C 0.79000000000002 3.81000000000006  4.38999999999999 0.210000000000036  7.49000000000001 0.210000000000036  Z " fill-rule="nonzero" fill="#00ae9d" stroke="none" transform="matrix(1 0 0 1 514 9266 )" />
    <path d="M 7.49000000000001 0.210000000000036  C 10.59 0.210000000000036  13.19 3.81000000000006  13.19 6.91000000000008  C 13.19 10.0100000000001  10.59 12.6100000000001  7.49000000000001 12.6100000000001  C 4.38999999999999 12.6100000000001  0.79000000000002 10.0100000000001  0.79000000000002 6.91000000000008  C 0.79000000000002 3.81000000000006  4.38999999999999 0.210000000000036  7.49000000000001 0.210000000000036  Z " stroke-width="2" stroke="#00ae9d" fill="none" transform="matrix(1 0 0 1 514 9266 )" mask="url(#clip1838)" />
  </g>
</svg>