<?xml version="1.0" encoding="utf-8"?>
<svg version="1.1" xmlns:xlink="http://www.w3.org/1999/xlink" width="13px" height="14px" xmlns="http://www.w3.org/2000/svg">
  <defs>
    <mask fill="white" id="clip1830">
      <path d="M 7.30000000000001 0.690000000000509  C 10.4 0.690000000000509  13 4.38999999999942  13 7.69000000000051  C 13 11.0900000000001  10.4 13.6900000000005  7.30000000000001 13.6900000000005  C 4.19999999999999 13.6900000000005  0.600000000000023 11.0900000000001  0.600000000000023 7.69000000000051  C 0.600000000000023 4.38999999999942  4.19999999999999 0.690000000000509  7.30000000000001 0.690000000000509  Z " fill-rule="evenodd" />
    </mask>
  </defs>
  <g transform="matrix(1 0 0 1 -434 -9005 )">
    <path d="M 7.30000000000001 0.690000000000509  C 10.4 0.690000000000509  13 4.38999999999942  13 7.69000000000051  C 13 11.0900000000001  10.4 13.6900000000005  7.30000000000001 13.6900000000005  C 4.19999999999999 13.6900000000005  0.600000000000023 11.0900000000001  0.600000000000023 7.69000000000051  C 0.600000000000023 4.38999999999942  4.19999999999999 0.690000000000509  7.30000000000001 0.690000000000509  Z " fill-rule="nonzero" fill="#ffffff" stroke="none" fill-opacity="0" transform="matrix(1 0 0 1 434 9005 )" />
    <path d="M 7.30000000000001 0.690000000000509  C 10.4 0.690000000000509  13 4.38999999999942  13 7.69000000000051  C 13 11.0900000000001  10.4 13.6900000000005  7.30000000000001 13.6900000000005  C 4.19999999999999 13.6900000000005  0.600000000000023 11.0900000000001  0.600000000000023 7.69000000000051  C 0.600000000000023 4.38999999999942  4.19999999999999 0.690000000000509  7.30000000000001 0.690000000000509  Z " stroke-width="2" stroke="#00ae9d" fill="none" transform="matrix(1 0 0 1 434 9005 )" mask="url(#clip1830)" />
  </g>
</svg>