<?xml version="1.0" encoding="utf-8"?>
<svg version="1.1" xmlns:xlink="http://www.w3.org/1999/xlink" width="13px" height="14px" xmlns="http://www.w3.org/2000/svg">
  <defs>
    <mask fill="white" id="clip470">
      <path d="M 6.89999999999998 0.489999999999782  C 10 0.489999999999782  12.5 4.19000000000051  12.5 7.48999999999978  C 12.5 10.7900000000009  10 13.4899999999998  6.89999999999998 13.4899999999998  C 3.70000000000005 13.4899999999998  0.200000000000045 10.7900000000009  0.200000000000045 7.48999999999978  C 0.200000000000045 4.19000000000051  3.70000000000005 0.489999999999782  6.89999999999998 0.489999999999782  Z " fill-rule="evenodd" />
    </mask>
  </defs>
  <g transform="matrix(1 0 0 1 -568 -8952 )">
    <path d="M 6.89999999999998 0.489999999999782  C 10 0.489999999999782  12.5 4.19000000000051  12.5 7.48999999999978  C 12.5 10.7900000000009  10 13.4899999999998  6.89999999999998 13.4899999999998  C 3.70000000000005 13.4899999999998  0.200000000000045 10.7900000000009  0.200000000000045 7.48999999999978  C 0.200000000000045 4.19000000000051  3.70000000000005 0.489999999999782  6.89999999999998 0.489999999999782  Z " fill-rule="nonzero" fill="#ffffff" stroke="none" fill-opacity="0" transform="matrix(1 0 0 1 568 8952 )" />
    <path d="M 6.89999999999998 0.489999999999782  C 10 0.489999999999782  12.5 4.19000000000051  12.5 7.48999999999978  C 12.5 10.7900000000009  10 13.4899999999998  6.89999999999998 13.4899999999998  C 3.70000000000005 13.4899999999998  0.200000000000045 10.7900000000009  0.200000000000045 7.48999999999978  C 0.200000000000045 4.19000000000051  3.70000000000005 0.489999999999782  6.89999999999998 0.489999999999782  Z " stroke-width="2" stroke="#00ae9d" fill="none" transform="matrix(1 0 0 1 568 8952 )" mask="url(#clip470)" />
  </g>
</svg>