<?xml version="1.0" encoding="utf-8"?>
<svg version="1.1" xmlns:xlink="http://www.w3.org/1999/xlink" width="13px" height="14px" xmlns="http://www.w3.org/2000/svg">
  <defs>
    <mask fill="white" id="clip434">
      <path d="M 7 0.190000000000055  C 10.1 0.190000000000055  12.7 3.79000000000002  12.7 7.19000000000005  C 12.7 10.49  10.1 13.1900000000001  7 13.1900000000001  C 3.90000000000001 13.1900000000001  0.300000000000011 10.49  0.300000000000011 7.19000000000005  C 0.300000000000011 3.79000000000002  3.90000000000001 0.190000000000055  7 0.190000000000055  Z " fill-rule="evenodd" />
    </mask>
  </defs>
  <g transform="matrix(1 0 0 1 -234 -9017 )">
    <path d="M 7 0.190000000000055  C 10.1 0.190000000000055  12.7 3.79000000000002  12.7 7.19000000000005  C 12.7 10.49  10.1 13.1900000000001  7 13.1900000000001  C 3.90000000000001 13.1900000000001  0.300000000000011 10.49  0.300000000000011 7.19000000000005  C 0.300000000000011 3.79000000000002  3.90000000000001 0.190000000000055  7 0.190000000000055  Z " fill-rule="nonzero" fill="#595757" stroke="none" transform="matrix(1 0 0 1 234 9017 )" />
    <path d="M 7 0.190000000000055  C 10.1 0.190000000000055  12.7 3.79000000000002  12.7 7.19000000000005  C 12.7 10.49  10.1 13.1900000000001  7 13.1900000000001  C 3.90000000000001 13.1900000000001  0.300000000000011 10.49  0.300000000000011 7.19000000000005  C 0.300000000000011 3.79000000000002  3.90000000000001 0.190000000000055  7 0.190000000000055  Z " stroke-width="2" stroke="#595757" fill="none" transform="matrix(1 0 0 1 234 9017 )" mask="url(#clip434)" />
  </g>
</svg>