<?xml version="1.0" encoding="utf-8"?>
<svg version="1.1" xmlns:xlink="http://www.w3.org/1999/xlink" width="81px" height="39px" xmlns="http://www.w3.org/2000/svg">
  <defs>
    <mask fill="white" id="clip1823">
      <path d="M 0.700000000000045 2.19999999999999  C 0.700000000000045 1.39999999999998  1.5 0.699999999999989  2.40000000000009 0.699999999999989  C 2.40000000000009 0.699999999999989  78.9000000000001 0.699999999999989  78.9000000000001 0.699999999999989  C 79.8000000000001 0.699999999999989  80.6 1.39999999999998  80.6 2.19999999999999  C 80.6 2.19999999999999  80.6 36.6  80.6 36.6  C 80.6 37.4  79.8000000000001 38.1  78.9000000000001 38.1  C 78.9000000000001 38.1  2.40000000000009 38.1  2.40000000000009 38.1  C 1.5 38.1  0.700000000000045 37.4  0.700000000000045 36.6  C 0.700000000000045 36.6  0.700000000000045 2.19999999999999  0.700000000000045 2.19999999999999  Z " fill-rule="evenodd" />
    </mask>
  </defs>
  <g transform="matrix(1 0 0 1 -812 -8730 )">
    <path d="M 0.700000000000045 2.19999999999999  C 0.700000000000045 1.39999999999998  1.5 0.699999999999989  2.40000000000009 0.699999999999989  C 2.40000000000009 0.699999999999989  78.9000000000001 0.699999999999989  78.9000000000001 0.699999999999989  C 79.8000000000001 0.699999999999989  80.6 1.39999999999998  80.6 2.19999999999999  C 80.6 2.19999999999999  80.6 36.6  80.6 36.6  C 80.6 37.4  79.8000000000001 38.1  78.9000000000001 38.1  C 78.9000000000001 38.1  2.40000000000009 38.1  2.40000000000009 38.1  C 1.5 38.1  0.700000000000045 37.4  0.700000000000045 36.6  C 0.700000000000045 36.6  0.700000000000045 2.19999999999999  0.700000000000045 2.19999999999999  Z " fill-rule="nonzero" fill="#ffffff" stroke="none" fill-opacity="0.0980392156862745" transform="matrix(1 0 0 1 812 8730 )" />
    <path d="M 0.700000000000045 2.19999999999999  C 0.700000000000045 1.39999999999998  1.5 0.699999999999989  2.40000000000009 0.699999999999989  C 2.40000000000009 0.699999999999989  78.9000000000001 0.699999999999989  78.9000000000001 0.699999999999989  C 79.8000000000001 0.699999999999989  80.6 1.39999999999998  80.6 2.19999999999999  C 80.6 2.19999999999999  80.6 36.6  80.6 36.6  C 80.6 37.4  79.8000000000001 38.1  78.9000000000001 38.1  C 78.9000000000001 38.1  2.40000000000009 38.1  2.40000000000009 38.1  C 1.5 38.1  0.700000000000045 37.4  0.700000000000045 36.6  C 0.700000000000045 36.6  0.700000000000045 2.19999999999999  0.700000000000045 2.19999999999999  Z " stroke-width="2" stroke="#ffffff" fill="none" stroke-opacity="0.498039215686275" transform="matrix(1 0 0 1 812 8730 )" mask="url(#clip1823)" />
  </g>
</svg>