<?xml version="1.0" encoding="utf-8"?>
<svg version="1.1" xmlns:xlink="http://www.w3.org/1999/xlink" width="13px" height="14px" xmlns="http://www.w3.org/2000/svg">
  <defs>
    <mask fill="white" id="clip435">
      <path d="M 6.80000000000001 0.0900000000001455  C 9.89999999999998 0.0900000000001455  12.4 3.79000000000087  12.4 7.09000000000014  C 12.4 10.3899999999994  9.89999999999998 13.0900000000001  6.80000000000001 13.0900000000001  C 3.60000000000002 13.0900000000001  0.100000000000023 10.3899999999994  0.100000000000023 7.09000000000014  C 0.100000000000023 3.79000000000087  3.60000000000002 0.0900000000001455  6.80000000000001 0.0900000000001455  Z " fill-rule="evenodd" />
    </mask>
  </defs>
  <g transform="matrix(1 0 0 1 -301 -8979 )">
    <path d="M 6.80000000000001 0.0900000000001455  C 9.89999999999998 0.0900000000001455  12.4 3.79000000000087  12.4 7.09000000000014  C 12.4 10.3899999999994  9.89999999999998 13.0900000000001  6.80000000000001 13.0900000000001  C 3.60000000000002 13.0900000000001  0.100000000000023 10.3899999999994  0.100000000000023 7.09000000000014  C 0.100000000000023 3.79000000000087  3.60000000000002 0.0900000000001455  6.80000000000001 0.0900000000001455  Z " fill-rule="nonzero" fill="#ffffff" stroke="none" fill-opacity="0" transform="matrix(1 0 0 1 301 8979 )" />
    <path d="M 6.80000000000001 0.0900000000001455  C 9.89999999999998 0.0900000000001455  12.4 3.79000000000087  12.4 7.09000000000014  C 12.4 10.3899999999994  9.89999999999998 13.0900000000001  6.80000000000001 13.0900000000001  C 3.60000000000002 13.0900000000001  0.100000000000023 10.3899999999994  0.100000000000023 7.09000000000014  C 0.100000000000023 3.79000000000087  3.60000000000002 0.0900000000001455  6.80000000000001 0.0900000000001455  Z " stroke-width="2" stroke="#595757" fill="none" transform="matrix(1 0 0 1 301 8979 )" mask="url(#clip435)" />
  </g>
</svg>