<?xml version="1.0" encoding="utf-8"?>
<svg version="1.1" xmlns:xlink="http://www.w3.org/1999/xlink" width="101px" height="43px" xmlns="http://www.w3.org/2000/svg">
  <defs>
    <mask fill="white" id="clip566">
      <path d="M 83.15 0.769999999999982  C 83.15 0.769999999999982  100.05 27.6700000000001  100.05 27.6700000000001  C 85.85 36.87  68.05 42.1700000000001  49.95 42.1700000000001  C 31.75 42.1700000000001  14.95 36.87  0.850000000000023 27.6700000000001  C 0.850000000000023 27.6700000000001  17.65 0.769999999999982  17.65 0.769999999999982  C 26.85 6.76999999999998  37.95 10.27  49.95 10.27  C 61.85 10.27  73.95 6.76999999999998  83.15 0.769999999999982  Z " fill-rule="evenodd" />
    </mask>
  </defs>
  <g transform="matrix(1 0 0 1 -662 -7454 )">
    <path d="M 83.15 0.769999999999982  C 83.15 0.769999999999982  100.05 27.6700000000001  100.05 27.6700000000001  C 85.85 36.87  68.05 42.1700000000001  49.95 42.1700000000001  C 31.75 42.1700000000001  14.95 36.87  0.850000000000023 27.6700000000001  C 0.850000000000023 27.6700000000001  17.65 0.769999999999982  17.65 0.769999999999982  C 26.85 6.76999999999998  37.95 10.27  49.95 10.27  C 61.85 10.27  73.95 6.76999999999998  83.15 0.769999999999982  Z " fill-rule="nonzero" fill="#64c5c5" stroke="none" transform="matrix(1 0 0 1 662 7454 )" />
    <path d="M 83.15 0.769999999999982  C 83.15 0.769999999999982  100.05 27.6700000000001  100.05 27.6700000000001  C 85.85 36.87  68.05 42.1700000000001  49.95 42.1700000000001  C 31.75 42.1700000000001  14.95 36.87  0.850000000000023 27.6700000000001  C 0.850000000000023 27.6700000000001  17.65 0.769999999999982  17.65 0.769999999999982  C 26.85 6.76999999999998  37.95 10.27  49.95 10.27  C 61.85 10.27  73.95 6.76999999999998  83.15 0.769999999999982  Z " stroke-width="2" stroke="#64c5c5" fill="none" transform="matrix(1 0 0 1 662 7454 )" mask="url(#clip566)" />
  </g>
</svg>