<?xml version="1.0" encoding="utf-8"?>
<svg version="1.1" xmlns:xlink="http://www.w3.org/1999/xlink" width="27px" height="19px" xmlns="http://www.w3.org/2000/svg">
  <defs>
    <mask fill="white" id="clip1845">
      <path d="M 0.759999999999991 18.54  C 0.759999999999991 18.54  0.759999999999991 0.539999999999992  0.759999999999991 0.539999999999992  C 0.759999999999991 0.539999999999992  26.36 0.539999999999992  26.36 0.539999999999992  C 26.36 0.539999999999992  26.36 18.54  26.36 18.54  C 26.36 18.54  0.759999999999991 18.54  0.759999999999991 18.54  Z " fill-rule="evenodd" />
    </mask>
  </defs>
  <g transform="matrix(1 0 0 1 -976 -10592 )">
    <path d="M 0.759999999999991 18.54  C 0.759999999999991 18.54  0.759999999999991 0.539999999999992  0.759999999999991 0.539999999999992  C 0.759999999999991 0.539999999999992  26.36 0.539999999999992  26.36 0.539999999999992  C 26.36 0.539999999999992  26.36 18.54  26.36 18.54  C 26.36 18.54  0.759999999999991 18.54  0.759999999999991 18.54  Z " fill-rule="nonzero" fill="#f9986e" stroke="none" fill-opacity="0.6" transform="matrix(1 0 0 1 976 10592 )" />
    <path d="M 0.759999999999991 18.54  C 0.759999999999991 18.54  0.759999999999991 0.539999999999992  0.759999999999991 0.539999999999992  C 0.759999999999991 0.539999999999992  26.36 0.539999999999992  26.36 0.539999999999992  C 26.36 0.539999999999992  26.36 18.54  26.36 18.54  C 26.36 18.54  0.759999999999991 18.54  0.759999999999991 18.54  Z " stroke-width="2" stroke="#ffc37c" fill="none" transform="matrix(1 0 0 1 976 10592 )" mask="url(#clip1845)" />
  </g>
</svg>