<?xml version="1.0" encoding="utf-8"?>
<svg version="1.1" xmlns:xlink="http://www.w3.org/1999/xlink" width="27px" height="19px" xmlns="http://www.w3.org/2000/svg">
  <defs>
    <mask fill="white" id="clip483">
      <path d="M 0.759999999999991 18.55  C 0.759999999999991 18.55  0.759999999999991 0.550000000000011  0.759999999999991 0.550000000000011  C 0.759999999999991 0.550000000000011  26.36 0.550000000000011  26.36 0.550000000000011  C 26.36 0.550000000000011  26.36 18.55  26.36 18.55  C 26.36 18.55  0.759999999999991 18.55  0.759999999999991 18.55  Z " fill-rule="evenodd" />
    </mask>
  </defs>
  <g transform="matrix(1 0 0 1 -976 -10624 )">
    <path d="M 0.759999999999991 18.55  C 0.759999999999991 18.55  0.759999999999991 0.550000000000011  0.759999999999991 0.550000000000011  C 0.759999999999991 0.550000000000011  26.36 0.550000000000011  26.36 0.550000000000011  C 26.36 0.550000000000011  26.36 18.55  26.36 18.55  C 26.36 18.55  0.759999999999991 18.55  0.759999999999991 18.55  Z " fill-rule="nonzero" fill="#ee5a5d" stroke="none" fill-opacity="0.6" transform="matrix(1 0 0 1 976 10624 )" />
    <path d="M 0.759999999999991 18.55  C 0.759999999999991 18.55  0.759999999999991 0.550000000000011  0.759999999999991 0.550000000000011  C 0.759999999999991 0.550000000000011  26.36 0.550000000000011  26.36 0.550000000000011  C 26.36 0.550000000000011  26.36 18.55  26.36 18.55  C 26.36 18.55  0.759999999999991 18.55  0.759999999999991 18.55  Z " stroke-width="2" stroke="#ee7577" fill="none" stroke-opacity="0.6" transform="matrix(1 0 0 1 976 10624 )" mask="url(#clip483)" />
  </g>
</svg>