<?xml version="1.0" encoding="utf-8"?>
<svg version="1.1" xmlns:xlink="http://www.w3.org/1999/xlink" width="10px" height="9px" xmlns="http://www.w3.org/2000/svg">
  <defs>
    <mask fill="white" id="clip489">
      <path d="M 5.6099999999999 0.100000000000023  C 7.70999999999992 0.100000000000023  9.40999999999997 2.80000000000007  9.40999999999997 4.89999999999998  C 9.40999999999997 7  7.70999999999992 8.70000000000005  5.6099999999999 8.70000000000005  C 3.50999999999999 8.70000000000005  0.809999999999945 7  0.809999999999945 4.89999999999998  C 0.809999999999945 2.80000000000007  3.50999999999999 0.100000000000023  5.6099999999999 0.100000000000023  Z " fill-rule="evenodd" />
    </mask>
  </defs>
  <g transform="matrix(1 0 0 1 -661 -11968 )">
    <path d="M 5.6099999999999 0.100000000000023  C 7.70999999999992 0.100000000000023  9.40999999999997 2.80000000000007  9.40999999999997 4.89999999999998  C 9.40999999999997 7  7.70999999999992 8.70000000000005  5.6099999999999 8.70000000000005  C 3.50999999999999 8.70000000000005  0.809999999999945 7  0.809999999999945 4.89999999999998  C 0.809999999999945 2.80000000000007  3.50999999999999 0.100000000000023  5.6099999999999 0.100000000000023  Z " fill-rule="nonzero" fill="#ff6a6a" stroke="none" transform="matrix(1 0 0 1 661 11968 )" />
    <path d="M 5.6099999999999 0.100000000000023  C 7.70999999999992 0.100000000000023  9.40999999999997 2.80000000000007  9.40999999999997 4.89999999999998  C 9.40999999999997 7  7.70999999999992 8.70000000000005  5.6099999999999 8.70000000000005  C 3.50999999999999 8.70000000000005  0.809999999999945 7  0.809999999999945 4.89999999999998  C 0.809999999999945 2.80000000000007  3.50999999999999 0.100000000000023  5.6099999999999 0.100000000000023  Z " stroke-width="2" stroke="#ff6a6a" fill="none" transform="matrix(1 0 0 1 661 11968 )" mask="url(#clip489)" />
  </g>
</svg>