<?xml version="1.0" encoding="utf-8"?>
<svg version="1.1" xmlns:xlink="http://www.w3.org/1999/xlink" width="10px" height="10px" xmlns="http://www.w3.org/2000/svg">
  <defs>
    <mask fill="white" id="clip1877">
      <path d="M 5.33999999999992 0.850000000000023  C 7.43999999999994 0.850000000000023  9.13999999999999 3.55000000000001  9.13999999999999 5.65000000000003  C 9.13999999999999 7.75  7.43999999999994 9.45000000000005  5.33999999999992 9.45000000000005  C 3.24000000000001 9.45000000000005  0.539999999999964 7.75  0.539999999999964 5.65000000000003  C 0.539999999999964 3.55000000000001  3.24000000000001 0.850000000000023  5.33999999999992 0.850000000000023  Z " fill-rule="evenodd" />
    </mask>
  </defs>
  <g transform="matrix(1 0 0 1 -628 -11902 )">
    <path d="M 5.33999999999992 0.850000000000023  C 7.43999999999994 0.850000000000023  9.13999999999999 3.55000000000001  9.13999999999999 5.65000000000003  C 9.13999999999999 7.75  7.43999999999994 9.45000000000005  5.33999999999992 9.45000000000005  C 3.24000000000001 9.45000000000005  0.539999999999964 7.75  0.539999999999964 5.65000000000003  C 0.539999999999964 3.55000000000001  3.24000000000001 0.850000000000023  5.33999999999992 0.850000000000023  Z " fill-rule="nonzero" fill="#ff6a6a" stroke="none" transform="matrix(1 0 0 1 628 11902 )" />
    <path d="M 5.33999999999992 0.850000000000023  C 7.43999999999994 0.850000000000023  9.13999999999999 3.55000000000001  9.13999999999999 5.65000000000003  C 9.13999999999999 7.75  7.43999999999994 9.45000000000005  5.33999999999992 9.45000000000005  C 3.24000000000001 9.45000000000005  0.539999999999964 7.75  0.539999999999964 5.65000000000003  C 0.539999999999964 3.55000000000001  3.24000000000001 0.850000000000023  5.33999999999992 0.850000000000023  Z " stroke-width="2" stroke="#ff6a6a" fill="none" transform="matrix(1 0 0 1 628 11902 )" mask="url(#clip1877)" />
  </g>
</svg>