<?xml version="1.0" encoding="utf-8"?>
<svg version="1.1" xmlns:xlink="http://www.w3.org/1999/xlink" width="9px" height="10px" xmlns="http://www.w3.org/2000/svg">
  <defs>
    <mask fill="white" id="clip484">
      <path d="M 4.8599999999999 0.940000000000055  C 6.95999999999992 0.940000000000055  8.65999999999997 3.6400000000001  8.65999999999997 5.74000000000001  C 8.65999999999997 7.84000000000003  6.95999999999992 9.54000000000008  4.8599999999999 9.54000000000008  C 2.75999999999999 9.54000000000008  0.0599999999999454 7.84000000000003  0.0599999999999454 5.74000000000001  C 0.0599999999999454 3.6400000000001  2.75999999999999 0.940000000000055  4.8599999999999 0.940000000000055  Z " fill-rule="evenodd" />
    </mask>
  </defs>
  <g transform="matrix(1 0 0 1 -626 -12003 )">
    <path d="M 4.8599999999999 0.940000000000055  C 6.95999999999992 0.940000000000055  8.65999999999997 3.6400000000001  8.65999999999997 5.74000000000001  C 8.65999999999997 7.84000000000003  6.95999999999992 9.54000000000008  4.8599999999999 9.54000000000008  C 2.75999999999999 9.54000000000008  0.0599999999999454 7.84000000000003  0.0599999999999454 5.74000000000001  C 0.0599999999999454 3.6400000000001  2.75999999999999 0.940000000000055  4.8599999999999 0.940000000000055  Z " fill-rule="nonzero" fill="#ff6a6a" stroke="none" transform="matrix(1 0 0 1 626 12003 )" />
    <path d="M 4.8599999999999 0.940000000000055  C 6.95999999999992 0.940000000000055  8.65999999999997 3.6400000000001  8.65999999999997 5.74000000000001  C 8.65999999999997 7.84000000000003  6.95999999999992 9.54000000000008  4.8599999999999 9.54000000000008  C 2.75999999999999 9.54000000000008  0.0599999999999454 7.84000000000003  0.0599999999999454 5.74000000000001  C 0.0599999999999454 3.6400000000001  2.75999999999999 0.940000000000055  4.8599999999999 0.940000000000055  Z " stroke-width="2" stroke="#ff6a6a" fill="none" transform="matrix(1 0 0 1 626 12003 )" mask="url(#clip484)" />
  </g>
</svg>