<?xml version="1.0" encoding="utf-8"?>
<svg version="1.1" xmlns:xlink="http://www.w3.org/1999/xlink" width="10px" height="10px" xmlns="http://www.w3.org/2000/svg">
  <defs>
    <mask fill="white" id="clip526">
      <path d="M 5.36999999999989 0.870000000000005  C 7.46999999999991 0.870000000000005  9.16999999999996 3.56999999999999  9.16999999999996 5.67000000000002  C 9.16999999999996 7.76999999999998  7.46999999999991 9.47000000000003  5.36999999999989 9.47000000000003  C 3.26999999999998 9.47000000000003  0.569999999999936 7.76999999999998  0.569999999999936 5.67000000000002  C 0.569999999999936 3.56999999999999  3.26999999999998 0.870000000000005  5.36999999999989 0.870000000000005  Z " fill-rule="evenodd" />
    </mask>
  </defs>
  <g transform="matrix(1 0 0 1 -644 -11805 )">
    <path d="M 5.36999999999989 0.870000000000005  C 7.46999999999991 0.870000000000005  9.16999999999996 3.56999999999999  9.16999999999996 5.67000000000002  C 9.16999999999996 7.76999999999998  7.46999999999991 9.47000000000003  5.36999999999989 9.47000000000003  C 3.26999999999998 9.47000000000003  0.569999999999936 7.76999999999998  0.569999999999936 5.67000000000002  C 0.569999999999936 3.56999999999999  3.26999999999998 0.870000000000005  5.36999999999989 0.870000000000005  Z " fill-rule="nonzero" fill="#ff6a6a" stroke="none" transform="matrix(1 0 0 1 644 11805 )" />
    <path d="M 5.36999999999989 0.870000000000005  C 7.46999999999991 0.870000000000005  9.16999999999996 3.56999999999999  9.16999999999996 5.67000000000002  C 9.16999999999996 7.76999999999998  7.46999999999991 9.47000000000003  5.36999999999989 9.47000000000003  C 3.26999999999998 9.47000000000003  0.569999999999936 7.76999999999998  0.569999999999936 5.67000000000002  C 0.569999999999936 3.56999999999999  3.26999999999998 0.870000000000005  5.36999999999989 0.870000000000005  Z " stroke-width="2" stroke="#ff6a6a" fill="none" transform="matrix(1 0 0 1 644 11805 )" mask="url(#clip526)" />
  </g>
</svg>