<?xml version="1.0" encoding="utf-8"?>
<svg version="1.1" xmlns:xlink="http://www.w3.org/1999/xlink" width="9px" height="10px" xmlns="http://www.w3.org/2000/svg">
  <defs>
    <mask fill="white" id="clip514">
      <path d="M 4.80999999999995 0.509999999999991  C 6.90999999999997 0.509999999999991  8.61000000000001 3.20999999999998  8.61000000000001 5.31  C 8.61000000000001 7.40999999999997  6.90999999999997 9.11000000000001  4.80999999999995 9.11000000000001  C 2.71000000000004 9.11000000000001  0.00999999999999091 7.40999999999997  0.00999999999999091 5.31  C 0.00999999999999091 3.20999999999998  2.71000000000004 0.509999999999991  4.80999999999995 0.509999999999991  Z " fill-rule="evenodd" />
    </mask>
  </defs>
  <g transform="matrix(1 0 0 1 -762 -11745 )">
    <path d="M 4.80999999999995 0.509999999999991  C 6.90999999999997 0.509999999999991  8.61000000000001 3.20999999999998  8.61000000000001 5.31  C 8.61000000000001 7.40999999999997  6.90999999999997 9.11000000000001  4.80999999999995 9.11000000000001  C 2.71000000000004 9.11000000000001  0.00999999999999091 7.40999999999997  0.00999999999999091 5.31  C 0.00999999999999091 3.20999999999998  2.71000000000004 0.509999999999991  4.80999999999995 0.509999999999991  Z " fill-rule="nonzero" fill="#ff6a6a" stroke="none" transform="matrix(1 0 0 1 762 11745 )" />
    <path d="M 4.80999999999995 0.509999999999991  C 6.90999999999997 0.509999999999991  8.61000000000001 3.20999999999998  8.61000000000001 5.31  C 8.61000000000001 7.40999999999997  6.90999999999997 9.11000000000001  4.80999999999995 9.11000000000001  C 2.71000000000004 9.11000000000001  0.00999999999999091 7.40999999999997  0.00999999999999091 5.31  C 0.00999999999999091 3.20999999999998  2.71000000000004 0.509999999999991  4.80999999999995 0.509999999999991  Z " stroke-width="2" stroke="#ff6a6a" fill="none" transform="matrix(1 0 0 1 762 11745 )" mask="url(#clip514)" />
  </g>
</svg>