<?xml version="1.0" encoding="utf-8"?>
<svg version="1.1" xmlns:xlink="http://www.w3.org/1999/xlink" width="10px" height="10px" xmlns="http://www.w3.org/2000/svg">
  <defs>
    <mask fill="white" id="clip1871">
      <path d="M 5.4799999999999 0.509999999999991  C 7.57999999999993 0.509999999999991  9.27999999999997 3.21000000000004  9.27999999999997 5.30999999999995  C 9.27999999999997 7.40999999999997  7.57999999999993 9.11000000000001  5.4799999999999 9.11000000000001  C 3.38 9.11000000000001  0.67999999999995 7.40999999999997  0.67999999999995 5.30999999999995  C 0.67999999999995 3.21000000000004  3.38 0.509999999999991  5.4799999999999 0.509999999999991  Z " fill-rule="evenodd" />
    </mask>
  </defs>
  <g transform="matrix(1 0 0 1 -729 -11947 )">
    <path d="M 5.4799999999999 0.509999999999991  C 7.57999999999993 0.509999999999991  9.27999999999997 3.21000000000004  9.27999999999997 5.30999999999995  C 9.27999999999997 7.40999999999997  7.57999999999993 9.11000000000001  5.4799999999999 9.11000000000001  C 3.38 9.11000000000001  0.67999999999995 7.40999999999997  0.67999999999995 5.30999999999995  C 0.67999999999995 3.21000000000004  3.38 0.509999999999991  5.4799999999999 0.509999999999991  Z " fill-rule="nonzero" fill="#ff6a6a" stroke="none" transform="matrix(1 0 0 1 729 11947 )" />
    <path d="M 5.4799999999999 0.509999999999991  C 7.57999999999993 0.509999999999991  9.27999999999997 3.21000000000004  9.27999999999997 5.30999999999995  C 9.27999999999997 7.40999999999997  7.57999999999993 9.11000000000001  5.4799999999999 9.11000000000001  C 3.38 9.11000000000001  0.67999999999995 7.40999999999997  0.67999999999995 5.30999999999995  C 0.67999999999995 3.21000000000004  3.38 0.509999999999991  5.4799999999999 0.509999999999991  Z " stroke-width="2" stroke="#ff6a6a" fill="none" transform="matrix(1 0 0 1 729 11947 )" mask="url(#clip1871)" />
  </g>
</svg>