<?xml version="1.0" encoding="utf-8"?>
<svg version="1.1" xmlns:xlink="http://www.w3.org/1999/xlink" width="10px" height="10px" xmlns="http://www.w3.org/2000/svg">
  <defs>
    <mask fill="white" id="clip507">
      <path d="M 5.65999999999997 0.440000000000055  C 7.75999999999999 0.440000000000055  9.46000000000004 3.1400000000001  9.46000000000004 5.24000000000001  C 9.46000000000004 7.34000000000003  7.75999999999999 9.04000000000008  5.65999999999997 9.04000000000008  C 3.56000000000006 9.04000000000008  0.860000000000014 7.34000000000003  0.860000000000014 5.24000000000001  C 0.860000000000014 3.1400000000001  3.56000000000006 0.440000000000055  5.65999999999997 0.440000000000055  Z " fill-rule="evenodd" />
    </mask>
  </defs>
  <g transform="matrix(1 0 0 1 -737 -11954 )">
    <path d="M 5.65999999999997 0.440000000000055  C 7.75999999999999 0.440000000000055  9.46000000000004 3.1400000000001  9.46000000000004 5.24000000000001  C 9.46000000000004 7.34000000000003  7.75999999999999 9.04000000000008  5.65999999999997 9.04000000000008  C 3.56000000000006 9.04000000000008  0.860000000000014 7.34000000000003  0.860000000000014 5.24000000000001  C 0.860000000000014 3.1400000000001  3.56000000000006 0.440000000000055  5.65999999999997 0.440000000000055  Z " fill-rule="nonzero" fill="#ff6a6a" stroke="none" transform="matrix(1 0 0 1 737 11954 )" />
    <path d="M 5.65999999999997 0.440000000000055  C 7.75999999999999 0.440000000000055  9.46000000000004 3.1400000000001  9.46000000000004 5.24000000000001  C 9.46000000000004 7.34000000000003  7.75999999999999 9.04000000000008  5.65999999999997 9.04000000000008  C 3.56000000000006 9.04000000000008  0.860000000000014 7.34000000000003  0.860000000000014 5.24000000000001  C 0.860000000000014 3.1400000000001  3.56000000000006 0.440000000000055  5.65999999999997 0.440000000000055  Z " stroke-width="2" stroke="#ff6a6a" fill="none" transform="matrix(1 0 0 1 737 11954 )" mask="url(#clip507)" />
  </g>
</svg>