<?xml version="1.0" encoding="utf-8"?>
<svg version="1.1" xmlns:xlink="http://www.w3.org/1999/xlink" width="9px" height="10px" xmlns="http://www.w3.org/2000/svg">
  <defs>
    <mask fill="white" id="clip1880">
      <path d="M 4.92999999999995 0.740000000000009  C 7.02999999999997 0.740000000000009  8.73000000000002 3.44  8.73000000000002 5.54000000000002  C 8.73000000000002 7.63999999999999  7.02999999999997 9.34000000000003  4.92999999999995 9.34000000000003  C 2.83000000000004 9.34000000000003  0.129999999999995 7.63999999999999  0.129999999999995 5.54000000000002  C 0.129999999999995 3.44  2.83000000000004 0.740000000000009  4.92999999999995 0.740000000000009  Z " fill-rule="evenodd" />
    </mask>
  </defs>
  <g transform="matrix(1 0 0 1 -672 -11878 )">
    <path d="M 4.92999999999995 0.740000000000009  C 7.02999999999997 0.740000000000009  8.73000000000002 3.44  8.73000000000002 5.54000000000002  C 8.73000000000002 7.63999999999999  7.02999999999997 9.34000000000003  4.92999999999995 9.34000000000003  C 2.83000000000004 9.34000000000003  0.129999999999995 7.63999999999999  0.129999999999995 5.54000000000002  C 0.129999999999995 3.44  2.83000000000004 0.740000000000009  4.92999999999995 0.740000000000009  Z " fill-rule="nonzero" fill="#ff6a6a" stroke="none" transform="matrix(1 0 0 1 672 11878 )" />
    <path d="M 4.92999999999995 0.740000000000009  C 7.02999999999997 0.740000000000009  8.73000000000002 3.44  8.73000000000002 5.54000000000002  C 8.73000000000002 7.63999999999999  7.02999999999997 9.34000000000003  4.92999999999995 9.34000000000003  C 2.83000000000004 9.34000000000003  0.129999999999995 7.63999999999999  0.129999999999995 5.54000000000002  C 0.129999999999995 3.44  2.83000000000004 0.740000000000009  4.92999999999995 0.740000000000009  Z " stroke-width="2" stroke="#ff6a6a" fill="none" transform="matrix(1 0 0 1 672 11878 )" mask="url(#clip1880)" />
  </g>
</svg>