<?xml version="1.0" encoding="utf-8"?>
<svg version="1.1" xmlns:xlink="http://www.w3.org/1999/xlink" width="9px" height="10px" xmlns="http://www.w3.org/2000/svg">
  <defs>
    <mask fill="white" id="clip601">
      <path d="M 0.420000000000073 9.60000000000036  C 0.420000000000073 9.60000000000036  0.420000000000073 0.600000000000364  0.420000000000073 0.600000000000364  C 0.420000000000073 0.600000000000364  8.92000000000007 0.600000000000364  8.92000000000007 0.600000000000364  C 8.92000000000007 0.600000000000364  8.92000000000007 9.60000000000036  8.92000000000007 9.60000000000036  C 8.92000000000007 9.60000000000036  0.420000000000073 9.60000000000036  0.420000000000073 9.60000000000036  Z " fill-rule="evenodd" />
    </mask>
  </defs>
  <g transform="matrix(1 0 0 1 -631 -7998 )">
    <path d="M 0.420000000000073 9.60000000000036  C 0.420000000000073 9.60000000000036  0.420000000000073 0.600000000000364  0.420000000000073 0.600000000000364  C 0.420000000000073 0.600000000000364  8.92000000000007 0.600000000000364  8.92000000000007 0.600000000000364  C 8.92000000000007 0.600000000000364  8.92000000000007 9.60000000000036  8.92000000000007 9.60000000000036  C 8.92000000000007 9.60000000000036  0.420000000000073 9.60000000000036  0.420000000000073 9.60000000000036  Z " fill-rule="nonzero" fill="#ffffff" stroke="none" fill-opacity="0" transform="matrix(1 0 0 1 631 7998 )" />
    <path d="M 0.420000000000073 9.60000000000036  C 0.420000000000073 9.60000000000036  0.420000000000073 0.600000000000364  0.420000000000073 0.600000000000364  C 0.420000000000073 0.600000000000364  8.92000000000007 0.600000000000364  8.92000000000007 0.600000000000364  C 8.92000000000007 0.600000000000364  8.92000000000007 9.60000000000036  8.92000000000007 9.60000000000036  C 8.92000000000007 9.60000000000036  0.420000000000073 9.60000000000036  0.420000000000073 9.60000000000036  Z " stroke-width="2" stroke="#fc5c57" fill="none" transform="matrix(1 0 0 1 631 7998 )" mask="url(#clip601)" />
  </g>
</svg>