<?xml version="1.0" encoding="utf-8"?>
<svg version="1.1" xmlns:xlink="http://www.w3.org/1999/xlink" width="10px" height="10px" xmlns="http://www.w3.org/2000/svg">
  <defs>
    <mask fill="white" id="clip518">
      <path d="M 5.77999999999997 0.879999999999995  C 7.88 0.879999999999995  9.58000000000004 3.57999999999998  9.58000000000004 5.68000000000001  C 9.58000000000004 7.77999999999997  7.88 9.48000000000002  5.77999999999997 9.48000000000002  C 3.68000000000006 9.48000000000002  0.980000000000018 7.77999999999997  0.980000000000018 5.68000000000001  C 0.980000000000018 3.57999999999998  3.68000000000006 0.879999999999995  5.77999999999997 0.879999999999995  Z " fill-rule="evenodd" />
    </mask>
  </defs>
  <g transform="matrix(1 0 0 1 -880 -11714 )">
    <path d="M 5.77999999999997 0.879999999999995  C 7.88 0.879999999999995  9.58000000000004 3.57999999999998  9.58000000000004 5.68000000000001  C 9.58000000000004 7.77999999999997  7.88 9.48000000000002  5.77999999999997 9.48000000000002  C 3.68000000000006 9.48000000000002  0.980000000000018 7.77999999999997  0.980000000000018 5.68000000000001  C 0.980000000000018 3.57999999999998  3.68000000000006 0.879999999999995  5.77999999999997 0.879999999999995  Z " fill-rule="nonzero" fill="#ff6a6a" stroke="none" transform="matrix(1 0 0 1 880 11714 )" />
    <path d="M 5.77999999999997 0.879999999999995  C 7.88 0.879999999999995  9.58000000000004 3.57999999999998  9.58000000000004 5.68000000000001  C 9.58000000000004 7.77999999999997  7.88 9.48000000000002  5.77999999999997 9.48000000000002  C 3.68000000000006 9.48000000000002  0.980000000000018 7.77999999999997  0.980000000000018 5.68000000000001  C 0.980000000000018 3.57999999999998  3.68000000000006 0.879999999999995  5.77999999999997 0.879999999999995  Z " stroke-width="2" stroke="#ff6a6a" fill="none" transform="matrix(1 0 0 1 880 11714 )" mask="url(#clip518)" />
  </g>
</svg>