<?xml version="1.0" encoding="utf-8"?>
<svg version="1.1" xmlns:xlink="http://www.w3.org/1999/xlink" width="10px" height="9px" xmlns="http://www.w3.org/2000/svg">
  <defs>
    <mask fill="white" id="clip1862">
      <path d="M 5.5 0.0299999999999727  C 7.59999999999997 0.0299999999999727  9.30000000000001 2.73000000000002  9.30000000000001 4.82999999999993  C 9.30000000000001 6.92999999999995  7.59999999999997 8.63  5.5 8.63  C 3.39999999999998 8.63  0.699999999999989 6.92999999999995  0.699999999999989 4.82999999999993  C 0.699999999999989 2.73000000000002  3.39999999999998 0.0299999999999727  5.5 0.0299999999999727  Z " fill-rule="evenodd" />
    </mask>
  </defs>
  <g transform="matrix(1 0 0 1 -560 -12011 )">
    <path d="M 5.5 0.0299999999999727  C 7.59999999999997 0.0299999999999727  9.30000000000001 2.73000000000002  9.30000000000001 4.82999999999993  C 9.30000000000001 6.92999999999995  7.59999999999997 8.63  5.5 8.63  C 3.39999999999998 8.63  0.699999999999989 6.92999999999995  0.699999999999989 4.82999999999993  C 0.699999999999989 2.73000000000002  3.39999999999998 0.0299999999999727  5.5 0.0299999999999727  Z " fill-rule="nonzero" fill="#ff6a6a" stroke="none" transform="matrix(1 0 0 1 560 12011 )" />
    <path d="M 5.5 0.0299999999999727  C 7.59999999999997 0.0299999999999727  9.30000000000001 2.73000000000002  9.30000000000001 4.82999999999993  C 9.30000000000001 6.92999999999995  7.59999999999997 8.63  5.5 8.63  C 3.39999999999998 8.63  0.699999999999989 6.92999999999995  0.699999999999989 4.82999999999993  C 0.699999999999989 2.73000000000002  3.39999999999998 0.0299999999999727  5.5 0.0299999999999727  Z " stroke-width="2" stroke="#ff6a6a" fill="none" transform="matrix(1 0 0 1 560 12011 )" mask="url(#clip1862)" />
  </g>
</svg>