<?xml version="1.0" encoding="utf-8"?>
<svg version="1.1" xmlns:xlink="http://www.w3.org/1999/xlink" width="10px" height="9px" xmlns="http://www.w3.org/2000/svg">
  <defs>
    <mask fill="white" id="clip498">
      <path d="M 5.60000000000002 0.0499999999999545  C 7.69999999999999 0.0499999999999545  9.40000000000003 2.75  9.40000000000003 4.84999999999991  C 9.40000000000003 6.94999999999993  7.69999999999999 8.64999999999998  5.60000000000002 8.64999999999998  C 3.5 8.64999999999998  0.800000000000011 6.94999999999993  0.800000000000011 4.84999999999991  C 0.800000000000011 2.75  3.5 0.0499999999999545  5.60000000000002 0.0499999999999545  Z " fill-rule="evenodd" />
    </mask>
  </defs>
  <g transform="matrix(1 0 0 1 -512 -12018 )">
    <path d="M 5.60000000000002 0.0499999999999545  C 7.69999999999999 0.0499999999999545  9.40000000000003 2.75  9.40000000000003 4.84999999999991  C 9.40000000000003 6.94999999999993  7.69999999999999 8.64999999999998  5.60000000000002 8.64999999999998  C 3.5 8.64999999999998  0.800000000000011 6.94999999999993  0.800000000000011 4.84999999999991  C 0.800000000000011 2.75  3.5 0.0499999999999545  5.60000000000002 0.0499999999999545  Z " fill-rule="nonzero" fill="#ff6a6a" stroke="none" transform="matrix(1 0 0 1 512 12018 )" />
    <path d="M 5.60000000000002 0.0499999999999545  C 7.69999999999999 0.0499999999999545  9.40000000000003 2.75  9.40000000000003 4.84999999999991  C 9.40000000000003 6.94999999999993  7.69999999999999 8.64999999999998  5.60000000000002 8.64999999999998  C 3.5 8.64999999999998  0.800000000000011 6.94999999999993  0.800000000000011 4.84999999999991  C 0.800000000000011 2.75  3.5 0.0499999999999545  5.60000000000002 0.0499999999999545  Z " stroke-width="2" stroke="#ff6a6a" fill="none" transform="matrix(1 0 0 1 512 12018 )" mask="url(#clip498)" />
  </g>
</svg>