<?xml version="1.0" encoding="utf-8"?>
<svg version="1.1" xmlns:xlink="http://www.w3.org/1999/xlink" width="10px" height="9px" xmlns="http://www.w3.org/2000/svg">
  <defs>
    <mask fill="white" id="clip431">
      <path d="M 0.82000000000005 9  C 0.82000000000005 9  0.82000000000005 0  0.82000000000005 0  C 0.82000000000005 0  9.42000000000007 0  9.42000000000007 0  C 9.42000000000007 0  9.42000000000007 9  9.42000000000007 9  C 9.42000000000007 9  0.82000000000005 9  0.82000000000005 9  Z " fill-rule="evenodd" />
    </mask>
  </defs>
  <g transform="matrix(1 0 0 1 -812 -7951 )">
    <path d="M 0.82000000000005 9  C 0.82000000000005 9  0.82000000000005 0  0.82000000000005 0  C 0.82000000000005 0  9.42000000000007 0  9.42000000000007 0  C 9.42000000000007 0  9.42000000000007 9  9.42000000000007 9  C 9.42000000000007 9  0.82000000000005 9  0.82000000000005 9  Z " fill-rule="nonzero" fill="#ffffff" stroke="none" fill-opacity="0" transform="matrix(1 0 0 1 812 7951 )" />
    <path d="M 0.82000000000005 9  C 0.82000000000005 9  0.82000000000005 0  0.82000000000005 0  C 0.82000000000005 0  9.42000000000007 0  9.42000000000007 0  C 9.42000000000007 0  9.42000000000007 9  9.42000000000007 9  C 9.42000000000007 9  0.82000000000005 9  0.82000000000005 9  Z " stroke-width="2" stroke="#fc5c57" fill="none" transform="matrix(1 0 0 1 812 7951 )" mask="url(#clip431)" />
  </g>
</svg>