<?xml version="1.0" encoding="utf-8"?>
<svg version="1.1" xmlns:xlink="http://www.w3.org/1999/xlink" width="9px" height="9px" xmlns="http://www.w3.org/2000/svg">
  <defs>
    <mask fill="white" id="clip1884">
      <path d="M 5.1099999999999 0.389999999999986  C 7.20999999999992 0.389999999999986  8.90999999999997 3.08999999999998  8.90999999999997 5.19  C 8.90999999999997 7.28999999999996  7.20999999999992 8.99000000000001  5.1099999999999 8.99000000000001  C 3.00999999999999 8.99000000000001  0.309999999999945 7.28999999999996  0.309999999999945 5.19  C 0.309999999999945 3.08999999999998  3.00999999999999 0.389999999999986  5.1099999999999 0.389999999999986  Z " fill-rule="evenodd" />
    </mask>
  </defs>
  <g transform="matrix(1 0 0 1 -679 -11845 )">
    <path d="M 5.1099999999999 0.389999999999986  C 7.20999999999992 0.389999999999986  8.90999999999997 3.08999999999998  8.90999999999997 5.19  C 8.90999999999997 7.28999999999996  7.20999999999992 8.99000000000001  5.1099999999999 8.99000000000001  C 3.00999999999999 8.99000000000001  0.309999999999945 7.28999999999996  0.309999999999945 5.19  C 0.309999999999945 3.08999999999998  3.00999999999999 0.389999999999986  5.1099999999999 0.389999999999986  Z " fill-rule="nonzero" fill="#ff6a6a" stroke="none" transform="matrix(1 0 0 1 679 11845 )" />
    <path d="M 5.1099999999999 0.389999999999986  C 7.20999999999992 0.389999999999986  8.90999999999997 3.08999999999998  8.90999999999997 5.19  C 8.90999999999997 7.28999999999996  7.20999999999992 8.99000000000001  5.1099999999999 8.99000000000001  C 3.00999999999999 8.99000000000001  0.309999999999945 7.28999999999996  0.309999999999945 5.19  C 0.309999999999945 3.08999999999998  3.00999999999999 0.389999999999986  5.1099999999999 0.389999999999986  Z " stroke-width="2" stroke="#ff6a6a" fill="none" transform="matrix(1 0 0 1 679 11845 )" mask="url(#clip1884)" />
  </g>
</svg>