<?xml version="1.0" encoding="utf-8"?>
<svg version="1.1" xmlns:xlink="http://www.w3.org/1999/xlink" width="9px" height="10px" xmlns="http://www.w3.org/2000/svg">
  <defs>
    <mask fill="white" id="clip603">
      <path d="M 0.32000000000005 9.39999999999964  C 0.32000000000005 9.39999999999964  0.32000000000005 0.399999999999636  0.32000000000005 0.399999999999636  C 0.32000000000005 0.399999999999636  8.92000000000007 0.399999999999636  8.92000000000007 0.399999999999636  C 8.92000000000007 0.399999999999636  8.92000000000007 9.39999999999964  8.92000000000007 9.39999999999964  C 8.92000000000007 9.39999999999964  0.32000000000005 9.39999999999964  0.32000000000005 9.39999999999964  Z " fill-rule="evenodd" />
    </mask>
  </defs>
  <g transform="matrix(1 0 0 1 -752 -7957 )">
    <path d="M 0.32000000000005 9.39999999999964  C 0.32000000000005 9.39999999999964  0.32000000000005 0.399999999999636  0.32000000000005 0.399999999999636  C 0.32000000000005 0.399999999999636  8.92000000000007 0.399999999999636  8.92000000000007 0.399999999999636  C 8.92000000000007 0.399999999999636  8.92000000000007 9.39999999999964  8.92000000000007 9.39999999999964  C 8.92000000000007 9.39999999999964  0.32000000000005 9.39999999999964  0.32000000000005 9.39999999999964  Z " fill-rule="nonzero" fill="#ffffff" stroke="none" fill-opacity="0" transform="matrix(1 0 0 1 752 7957 )" />
    <path d="M 0.32000000000005 9.39999999999964  C 0.32000000000005 9.39999999999964  0.32000000000005 0.399999999999636  0.32000000000005 0.399999999999636  C 0.32000000000005 0.399999999999636  8.92000000000007 0.399999999999636  8.92000000000007 0.399999999999636  C 8.92000000000007 0.399999999999636  8.92000000000007 9.39999999999964  8.92000000000007 9.39999999999964  C 8.92000000000007 9.39999999999964  0.32000000000005 9.39999999999964  0.32000000000005 9.39999999999964  Z " stroke-width="2" stroke="#fc5c57" fill="none" transform="matrix(1 0 0 1 752 7957 )" mask="url(#clip603)" />
  </g>
</svg>