<?xml version="1.0" encoding="utf-8"?>
<svg version="1.1" xmlns:xlink="http://www.w3.org/1999/xlink" width="27px" height="11px" xmlns="http://www.w3.org/2000/svg">
  <defs>
    <mask fill="white" id="clip435">
      <path d="M 8.50999999999999 9.48000000000002  C 8.50999999999999 9.48000000000002  13.3099999999999 0.880000000000109  13.3099999999999 0.880000000000109  C 13.3099999999999 0.880000000000109  17.11 9.48000000000002  17.11 9.48000000000002  C 17.11 9.48000000000002  8.50999999999999 9.48000000000002  8.50999999999999 9.48000000000002  Z " fill-rule="evenodd" />
    </mask>
  </defs>
  <g transform="matrix(1 0 0 1 -585 -8291 )">
    <path d="M 8.50999999999999 9.48000000000002  C 8.50999999999999 9.48000000000002  13.3099999999999 0.880000000000109  13.3099999999999 0.880000000000109  C 13.3099999999999 0.880000000000109  17.11 9.48000000000002  17.11 9.48000000000002  C 17.11 9.48000000000002  8.50999999999999 9.48000000000002  8.50999999999999 9.48000000000002  Z " fill-rule="nonzero" fill="#ffffff" stroke="none" fill-opacity="0" transform="matrix(1 0 0 1 585 8291 )" />
    <path d="M 8.50999999999999 9.48000000000002  C 8.50999999999999 9.48000000000002  13.3099999999999 0.880000000000109  13.3099999999999 0.880000000000109  C 13.3099999999999 0.880000000000109  17.11 9.48000000000002  17.11 9.48000000000002  C 17.11 9.48000000000002  8.50999999999999 9.48000000000002  8.50999999999999 9.48000000000002  Z " stroke-width="2" stroke="#fb9d53" fill="none" transform="matrix(1 0 0 1 585 8291 )" mask="url(#clip435)" />
    <path d="M 0.509999999999991 5.18000000000006  L 25.11 5.18000000000006  " stroke-width="1" stroke="#fb9d53" fill="none" transform="matrix(1 0 0 1 585 8291 )" mask="url(#clip435)" />
  </g>
</svg>