<?xml version="1.0" encoding="utf-8"?>
<svg version="1.1" xmlns:xlink="http://www.w3.org/1999/xlink" width="9px" height="9px" xmlns="http://www.w3.org/2000/svg">
  <defs>
    <mask fill="white" id="clip493">
      <path d="M 5.17999999999995 0.399999999999977  C 7.27999999999997 0.399999999999977  8.98000000000002 3.10000000000002  8.98000000000002 5.19999999999993  C 8.98000000000002 7.29999999999995  7.27999999999997 9  5.17999999999995 9  C 3.08000000000004 9  0.379999999999995 7.29999999999995  0.379999999999995 5.19999999999993  C 0.379999999999995 3.10000000000002  3.08000000000004 0.399999999999977  5.17999999999995 0.399999999999977  Z " fill-rule="evenodd" />
    </mask>
  </defs>
  <g transform="matrix(1 0 0 1 -785 -11940 )">
    <path d="M 5.17999999999995 0.399999999999977  C 7.27999999999997 0.399999999999977  8.98000000000002 3.10000000000002  8.98000000000002 5.19999999999993  C 8.98000000000002 7.29999999999995  7.27999999999997 9  5.17999999999995 9  C 3.08000000000004 9  0.379999999999995 7.29999999999995  0.379999999999995 5.19999999999993  C 0.379999999999995 3.10000000000002  3.08000000000004 0.399999999999977  5.17999999999995 0.399999999999977  Z " fill-rule="nonzero" fill="#ff6a6a" stroke="none" transform="matrix(1 0 0 1 785 11940 )" />
    <path d="M 5.17999999999995 0.399999999999977  C 7.27999999999997 0.399999999999977  8.98000000000002 3.10000000000002  8.98000000000002 5.19999999999993  C 8.98000000000002 7.29999999999995  7.27999999999997 9  5.17999999999995 9  C 3.08000000000004 9  0.379999999999995 7.29999999999995  0.379999999999995 5.19999999999993  C 0.379999999999995 3.10000000000002  3.08000000000004 0.399999999999977  5.17999999999995 0.399999999999977  Z " stroke-width="2" stroke="#ff6a6a" fill="none" transform="matrix(1 0 0 1 785 11940 )" mask="url(#clip493)" />
  </g>
</svg>