<?xml version="1.0" encoding="utf-8"?>
<svg version="1.1" xmlns:xlink="http://www.w3.org/1999/xlink" width="10px" height="9px" xmlns="http://www.w3.org/2000/svg">
  <defs>
    <mask fill="white" id="clip520">
      <path d="M 5.42999999999995 0.25  C 7.52999999999997 0.25  9.23000000000002 2.94999999999999  9.23000000000002 5.05000000000001  C 9.23000000000002 7.14999999999998  7.52999999999997 8.85000000000002  5.42999999999995 8.85000000000002  C 3.33000000000004 8.85000000000002  0.629999999999995 7.14999999999998  0.629999999999995 5.05000000000001  C 0.629999999999995 2.94999999999999  3.33000000000004 0.25  5.42999999999995 0.25  Z " fill-rule="evenodd" />
    </mask>
  </defs>
  <g transform="matrix(1 0 0 1 -905 -11699 )">
    <path d="M 5.42999999999995 0.25  C 7.52999999999997 0.25  9.23000000000002 2.94999999999999  9.23000000000002 5.05000000000001  C 9.23000000000002 7.14999999999998  7.52999999999997 8.85000000000002  5.42999999999995 8.85000000000002  C 3.33000000000004 8.85000000000002  0.629999999999995 7.14999999999998  0.629999999999995 5.05000000000001  C 0.629999999999995 2.94999999999999  3.33000000000004 0.25  5.42999999999995 0.25  Z " fill-rule="nonzero" fill="#ff6a6a" stroke="none" transform="matrix(1 0 0 1 905 11699 )" />
    <path d="M 5.42999999999995 0.25  C 7.52999999999997 0.25  9.23000000000002 2.94999999999999  9.23000000000002 5.05000000000001  C 9.23000000000002 7.14999999999998  7.52999999999997 8.85000000000002  5.42999999999995 8.85000000000002  C 3.33000000000004 8.85000000000002  0.629999999999995 7.14999999999998  0.629999999999995 5.05000000000001  C 0.629999999999995 2.94999999999999  3.33000000000004 0.25  5.42999999999995 0.25  Z " stroke-width="2" stroke="#ff6a6a" fill="none" transform="matrix(1 0 0 1 905 11699 )" mask="url(#clip520)" />
  </g>
</svg>