<?xml version="1.0" encoding="utf-8"?>
<svg version="1.1" xmlns:xlink="http://www.w3.org/1999/xlink" width="10px" height="10px" xmlns="http://www.w3.org/2000/svg">
  <defs>
    <mask fill="white" id="clip1895">
      <path d="M 5.25 0.460000000000036  C 7.35000000000002 0.460000000000036  9.05000000000007 3.16000000000003  9.05000000000007 5.26000000000005  C 9.05000000000007 7.36000000000001  7.35000000000002 9.06000000000006  5.25 9.06000000000006  C 3.15000000000009 9.06000000000006  0.450000000000045 7.36000000000001  0.450000000000045 5.26000000000005  C 0.450000000000045 3.16000000000003  3.15000000000009 0.460000000000036  5.25 0.460000000000036  Z " fill-rule="evenodd" />
    </mask>
  </defs>
  <g transform="matrix(1 0 0 1 -650 -11760 )">
    <path d="M 5.25 0.460000000000036  C 7.35000000000002 0.460000000000036  9.05000000000007 3.16000000000003  9.05000000000007 5.26000000000005  C 9.05000000000007 7.36000000000001  7.35000000000002 9.06000000000006  5.25 9.06000000000006  C 3.15000000000009 9.06000000000006  0.450000000000045 7.36000000000001  0.450000000000045 5.26000000000005  C 0.450000000000045 3.16000000000003  3.15000000000009 0.460000000000036  5.25 0.460000000000036  Z " fill-rule="nonzero" fill="#ff6a6a" stroke="none" transform="matrix(1 0 0 1 650 11760 )" />
    <path d="M 5.25 0.460000000000036  C 7.35000000000002 0.460000000000036  9.05000000000007 3.16000000000003  9.05000000000007 5.26000000000005  C 9.05000000000007 7.36000000000001  7.35000000000002 9.06000000000006  5.25 9.06000000000006  C 3.15000000000009 9.06000000000006  0.450000000000045 7.36000000000001  0.450000000000045 5.26000000000005  C 0.450000000000045 3.16000000000003  3.15000000000009 0.460000000000036  5.25 0.460000000000036  Z " stroke-width="2" stroke="#ff6a6a" fill="none" transform="matrix(1 0 0 1 650 11760 )" mask="url(#clip1895)" />
  </g>
</svg>