<?xml version="1.0" encoding="utf-8"?>
<svg version="1.1" xmlns:xlink="http://www.w3.org/1999/xlink" width="13px" height="14px" xmlns="http://www.w3.org/2000/svg">
  <defs>
    <mask fill="white" id="clip452">
      <path d="M 5.60000000000002 0.690000000000509  C 8.79999999999995 0.690000000000509  12.3 4.38999999999942  12.3 7.69000000000051  C 12.3 10.9899999999998  8.79999999999995 13.6900000000005  5.60000000000002 13.6900000000005  C 2.5 13.6900000000005  0 10.9899999999998  0 7.69000000000051  C 0 4.38999999999942  2.5 0.690000000000509  5.60000000000002 0.690000000000509  Z " fill-rule="evenodd" />
    </mask>
  </defs>
  <g transform="matrix(1 0 0 1 -635 -8948 )">
    <path d="M 5.60000000000002 0.690000000000509  C 8.79999999999995 0.690000000000509  12.3 4.38999999999942  12.3 7.69000000000051  C 12.3 10.9899999999998  8.79999999999995 13.6900000000005  5.60000000000002 13.6900000000005  C 2.5 13.6900000000005  0 10.9899999999998  0 7.69000000000051  C 0 4.38999999999942  2.5 0.690000000000509  5.60000000000002 0.690000000000509  Z " fill-rule="nonzero" fill="#ffffff" stroke="none" fill-opacity="0" transform="matrix(1 0 0 1 635 8948 )" />
    <path d="M 5.60000000000002 0.690000000000509  C 8.79999999999995 0.690000000000509  12.3 4.38999999999942  12.3 7.69000000000051  C 12.3 10.9899999999998  8.79999999999995 13.6900000000005  5.60000000000002 13.6900000000005  C 2.5 13.6900000000005  0 10.9899999999998  0 7.69000000000051  C 0 4.38999999999942  2.5 0.690000000000509  5.60000000000002 0.690000000000509  Z " stroke-width="2" stroke="#595757" fill="none" transform="matrix(1 0 0 1 635 8948 )" mask="url(#clip452)" />
  </g>
</svg>