<?xml version="1.0" encoding="utf-8"?>
<svg version="1.1" xmlns:xlink="http://www.w3.org/1999/xlink" width="10px" height="9px" xmlns="http://www.w3.org/2000/svg">
  <defs>
    <mask fill="white" id="clip524">
      <path d="M 0.920000000000073 9  C 0.920000000000073 9  5.72000000000003 0  5.72000000000003 0  C 5.72000000000003 0  9.51999999999998 9  9.51999999999998 9  C 9.51999999999998 9  0.920000000000073 9  0.920000000000073 9  Z " fill-rule="evenodd" />
    </mask>
  </defs>
  <g transform="matrix(1 0 0 1 -570 -8059 )">
    <path d="M 0.920000000000073 9  C 0.920000000000073 9  5.72000000000003 0  5.72000000000003 0  C 5.72000000000003 0  9.51999999999998 9  9.51999999999998 9  C 9.51999999999998 9  0.920000000000073 9  0.920000000000073 9  Z " fill-rule="nonzero" fill="#ffffff" stroke="none" fill-opacity="0" transform="matrix(1 0 0 1 570 8059 )" />
    <path d="M 0.920000000000073 9  C 0.920000000000073 9  5.72000000000003 0  5.72000000000003 0  C 5.72000000000003 0  9.51999999999998 9  9.51999999999998 9  C 9.51999999999998 9  0.920000000000073 9  0.920000000000073 9  Z " stroke-width="2" stroke="#fb9d53" fill="none" transform="matrix(1 0 0 1 570 8059 )" mask="url(#clip524)" />
  </g>
</svg>