<?xml version="1.0" encoding="utf-8"?>
<svg version="1.1" xmlns:xlink="http://www.w3.org/1999/xlink" width="13px" height="14px" xmlns="http://www.w3.org/2000/svg">
  <defs>
    <mask fill="white" id="clip631">
      <path d="M 7 0.889999999999986  C 10.1 0.889999999999986  12.7 4.59000000000003  12.7 7.88999999999999  C 12.7 11.1900000000001  10.1 13.89  7 13.89  C 3.90000000000001 13.89  0.300000000000011 11.1900000000001  0.300000000000011 7.88999999999999  C 0.300000000000011 4.59000000000003  3.90000000000001 0.889999999999986  7 0.889999999999986  Z " fill-rule="evenodd" />
    </mask>
  </defs>
  <g transform="matrix(1 0 0 1 -234 -9119 )">
    <path d="M 7 0.889999999999986  C 10.1 0.889999999999986  12.7 4.59000000000003  12.7 7.88999999999999  C 12.7 11.1900000000001  10.1 13.89  7 13.89  C 3.90000000000001 13.89  0.300000000000011 11.1900000000001  0.300000000000011 7.88999999999999  C 0.300000000000011 4.59000000000003  3.90000000000001 0.889999999999986  7 0.889999999999986  Z " fill-rule="nonzero" fill="#00ae9d" stroke="none" transform="matrix(1 0 0 1 234 9119 )" />
    <path d="M 7 0.889999999999986  C 10.1 0.889999999999986  12.7 4.59000000000003  12.7 7.88999999999999  C 12.7 11.1900000000001  10.1 13.89  7 13.89  C 3.90000000000001 13.89  0.300000000000011 11.1900000000001  0.300000000000011 7.88999999999999  C 0.300000000000011 4.59000000000003  3.90000000000001 0.889999999999986  7 0.889999999999986  Z " stroke-width="2" stroke="#00ae9d" fill="none" transform="matrix(1 0 0 1 234 9119 )" mask="url(#clip631)" />
  </g>
</svg>