<?xml version="1.0" encoding="utf-8"?>
<svg version="1.1" xmlns:xlink="http://www.w3.org/1999/xlink" width="13px" height="14px" xmlns="http://www.w3.org/2000/svg">
  <defs>
    <mask fill="white" id="clip615">
      <path d="M 0.399999999999977 7.59000000000015  C 0.399999999999977 7.59000000000015  7.10000000000002 0.590000000000146  7.10000000000002 0.590000000000146  C 7.10000000000002 0.590000000000146  12.8 7.59000000000015  12.8 7.59000000000015  C 12.8 7.59000000000015  7.10000000000002 13.5900000000001  7.10000000000002 13.5900000000001  C 7.10000000000002 13.5900000000001  0.399999999999977 7.59000000000015  0.399999999999977 7.59000000000015  Z " fill-rule="evenodd" />
    </mask>
  </defs>
  <g transform="matrix(1 0 0 1 -501 -9009 )">
    <path d="M 0.399999999999977 7.59000000000015  C 0.399999999999977 7.59000000000015  7.10000000000002 0.590000000000146  7.10000000000002 0.590000000000146  C 7.10000000000002 0.590000000000146  12.8 7.59000000000015  12.8 7.59000000000015  C 12.8 7.59000000000015  7.10000000000002 13.5900000000001  7.10000000000002 13.5900000000001  C 7.10000000000002 13.5900000000001  0.399999999999977 7.59000000000015  0.399999999999977 7.59000000000015  Z " fill-rule="nonzero" fill="#ffffff" stroke="none" fill-opacity="0" transform="matrix(1 0 0 1 501 9009 )" />
    <path d="M 0.399999999999977 7.59000000000015  C 0.399999999999977 7.59000000000015  7.10000000000002 0.590000000000146  7.10000000000002 0.590000000000146  C 7.10000000000002 0.590000000000146  12.8 7.59000000000015  12.8 7.59000000000015  C 12.8 7.59000000000015  7.10000000000002 13.5900000000001  7.10000000000002 13.5900000000001  C 7.10000000000002 13.5900000000001  0.399999999999977 7.59000000000015  0.399999999999977 7.59000000000015  Z " stroke-width="2" stroke="#d4cdc7" fill="none" transform="matrix(1 0 0 1 501 9009 )" mask="url(#clip615)" />
  </g>
</svg>