<?xml version="1.0" encoding="utf-8"?>
<svg version="1.1" xmlns:xlink="http://www.w3.org/1999/xlink" width="10px" height="10px" xmlns="http://www.w3.org/2000/svg">
  <defs>
    <mask fill="white" id="clip541">
      <path d="M 5.25 0.54000000000002  C 7.35000000000002 0.54000000000002  9.05000000000007 3.24000000000001  9.05000000000007 5.34000000000003  C 9.05000000000007 7.44  7.35000000000002 9.14000000000004  5.25 9.14000000000004  C 3.15000000000009 9.14000000000004  0.450000000000045 7.44  0.450000000000045 5.34000000000003  C 0.450000000000045 3.24000000000001  3.15000000000009 0.54000000000002  5.25 0.54000000000002  Z " fill-rule="evenodd" />
    </mask>
  </defs>
  <g transform="matrix(1 0 0 1 -953 -11691 )">
    <path d="M 5.25 0.54000000000002  C 7.35000000000002 0.54000000000002  9.05000000000007 3.24000000000001  9.05000000000007 5.34000000000003  C 9.05000000000007 7.44  7.35000000000002 9.14000000000004  5.25 9.14000000000004  C 3.15000000000009 9.14000000000004  0.450000000000045 7.44  0.450000000000045 5.34000000000003  C 0.450000000000045 3.24000000000001  3.15000000000009 0.54000000000002  5.25 0.54000000000002  Z " fill-rule="nonzero" fill="#ff6a6a" stroke="none" transform="matrix(1 0 0 1 953 11691 )" />
    <path d="M 5.25 0.54000000000002  C 7.35000000000002 0.54000000000002  9.05000000000007 3.24000000000001  9.05000000000007 5.34000000000003  C 9.05000000000007 7.44  7.35000000000002 9.14000000000004  5.25 9.14000000000004  C 3.15000000000009 9.14000000000004  0.450000000000045 7.44  0.450000000000045 5.34000000000003  C 0.450000000000045 3.24000000000001  3.15000000000009 0.54000000000002  5.25 0.54000000000002  Z " stroke-width="2" stroke="#ff6a6a" fill="none" transform="matrix(1 0 0 1 953 11691 )" mask="url(#clip541)" />
  </g>
</svg>