<?xml version="1.0" encoding="utf-8"?>
<svg version="1.1" xmlns:xlink="http://www.w3.org/1999/xlink" width="14px" height="14px" xmlns="http://www.w3.org/2000/svg">
  <defs>
    <mask fill="white" id="clip453">
      <path d="M 7.39999999999998 0.790000000000873  C 10.5 0.790000000000873  13.1 4.48999999999978  13.1 7.79000000000087  C 13.1 11.0900000000001  10.5 13.7900000000009  7.39999999999998 13.7900000000009  C 4.29999999999995 13.7900000000009  0.700000000000045 11.0900000000001  0.700000000000045 7.79000000000087  C 0.700000000000045 4.48999999999978  4.29999999999995 0.790000000000873  7.39999999999998 0.790000000000873  Z " fill-rule="evenodd" />
    </mask>
  </defs>
  <g transform="matrix(1 0 0 1 -701 -8925 )">
    <path d="M 7.39999999999998 0.790000000000873  C 10.5 0.790000000000873  13.1 4.48999999999978  13.1 7.79000000000087  C 13.1 11.0900000000001  10.5 13.7900000000009  7.39999999999998 13.7900000000009  C 4.29999999999995 13.7900000000009  0.700000000000045 11.0900000000001  0.700000000000045 7.79000000000087  C 0.700000000000045 4.48999999999978  4.29999999999995 0.790000000000873  7.39999999999998 0.790000000000873  Z " fill-rule="nonzero" fill="#ffffff" stroke="none" fill-opacity="0" transform="matrix(1 0 0 1 701 8925 )" />
    <path d="M 7.39999999999998 0.790000000000873  C 10.5 0.790000000000873  13.1 4.48999999999978  13.1 7.79000000000087  C 13.1 11.0900000000001  10.5 13.7900000000009  7.39999999999998 13.7900000000009  C 4.29999999999995 13.7900000000009  0.700000000000045 11.0900000000001  0.700000000000045 7.79000000000087  C 0.700000000000045 4.48999999999978  4.29999999999995 0.790000000000873  7.39999999999998 0.790000000000873  Z " stroke-width="2" stroke="#595757" fill="none" transform="matrix(1 0 0 1 701 8925 )" mask="url(#clip453)" />
  </g>
</svg>