<?xml version="1.0" encoding="utf-8"?>
<svg version="1.1" xmlns:xlink="http://www.w3.org/1999/xlink" width="91px" height="38px" xmlns="http://www.w3.org/2000/svg">
  <defs>
    <mask fill="white" id="clip634">
      <path d="M 0.710000000000036 2  C 0.710000000000036 1.19999999999999  1.50999999999999 0.5  2.61000000000001 0.5  C 2.61000000000001 0.5  88.11 0.5  88.11 0.5  C 89.21 0.5  90.11 1.19999999999999  90.11 2  C 90.11 2  90.11 36.4  90.11 36.4  C 90.11 37.2  89.21 37.9  88.11 37.9  C 88.11 37.9  2.61000000000001 37.9  2.61000000000001 37.9  C 1.50999999999999 37.9  0.710000000000036 37.2  0.710000000000036 36.4  C 0.710000000000036 36.4  0.710000000000036 2  0.710000000000036 2  Z " fill-rule="evenodd" />
    </mask>
  </defs>
  <g transform="matrix(1 0 0 1 -812 -8927 )">
    <path d="M 0.710000000000036 2  C 0.710000000000036 1.19999999999999  1.50999999999999 0.5  2.61000000000001 0.5  C 2.61000000000001 0.5  88.11 0.5  88.11 0.5  C 89.21 0.5  90.11 1.19999999999999  90.11 2  C 90.11 2  90.11 36.4  90.11 36.4  C 90.11 37.2  89.21 37.9  88.11 37.9  C 88.11 37.9  2.61000000000001 37.9  2.61000000000001 37.9  C 1.50999999999999 37.9  0.710000000000036 37.2  0.710000000000036 36.4  C 0.710000000000036 36.4  0.710000000000036 2  0.710000000000036 2  Z " fill-rule="nonzero" fill="#ffffff" stroke="none" fill-opacity="0.0980392156862745" transform="matrix(1 0 0 1 812 8927 )" />
    <path d="M 0.710000000000036 2  C 0.710000000000036 1.19999999999999  1.50999999999999 0.5  2.61000000000001 0.5  C 2.61000000000001 0.5  88.11 0.5  88.11 0.5  C 89.21 0.5  90.11 1.19999999999999  90.11 2  C 90.11 2  90.11 36.4  90.11 36.4  C 90.11 37.2  89.21 37.9  88.11 37.9  C 88.11 37.9  2.61000000000001 37.9  2.61000000000001 37.9  C 1.50999999999999 37.9  0.710000000000036 37.2  0.710000000000036 36.4  C 0.710000000000036 36.4  0.710000000000036 2  0.710000000000036 2  Z " stroke-width="2" stroke="#ffffff" fill="none" stroke-opacity="0.498039215686275" transform="matrix(1 0 0 1 812 8927 )" mask="url(#clip634)" />
  </g>
</svg>