<?xml version="1.0" encoding="utf-8"?>
<svg version="1.1" xmlns:xlink="http://www.w3.org/1999/xlink" width="10px" height="10px" xmlns="http://www.w3.org/2000/svg">
  <defs>
    <mask fill="white" id="clip531">
      <path d="M 5.64999999999998 0.889999999999986  C 7.75 0.889999999999986  9.45000000000005 3.58999999999998  9.45000000000005 5.69  C 9.45000000000005 7.78999999999996  7.75 9.49000000000001  5.64999999999998 9.49000000000001  C 3.55000000000007 9.49000000000001  0.850000000000023 7.78999999999996  0.850000000000023 5.69  C 0.850000000000023 3.58999999999998  3.55000000000007 0.889999999999986  5.64999999999998 0.889999999999986  Z " fill-rule="evenodd" />
    </mask>
  </defs>
  <g transform="matrix(1 0 0 1 -647 -11767 )">
    <path d="M 5.64999999999998 0.889999999999986  C 7.75 0.889999999999986  9.45000000000005 3.58999999999998  9.45000000000005 5.69  C 9.45000000000005 7.78999999999996  7.75 9.49000000000001  5.64999999999998 9.49000000000001  C 3.55000000000007 9.49000000000001  0.850000000000023 7.78999999999996  0.850000000000023 5.69  C 0.850000000000023 3.58999999999998  3.55000000000007 0.889999999999986  5.64999999999998 0.889999999999986  Z " fill-rule="nonzero" fill="#ff6a6a" stroke="none" transform="matrix(1 0 0 1 647 11767 )" />
    <path d="M 5.64999999999998 0.889999999999986  C 7.75 0.889999999999986  9.45000000000005 3.58999999999998  9.45000000000005 5.69  C 9.45000000000005 7.78999999999996  7.75 9.49000000000001  5.64999999999998 9.49000000000001  C 3.55000000000007 9.49000000000001  0.850000000000023 7.78999999999996  0.850000000000023 5.69  C 0.850000000000023 3.58999999999998  3.55000000000007 0.889999999999986  5.64999999999998 0.889999999999986  Z " stroke-width="2" stroke="#ff6a6a" fill="none" transform="matrix(1 0 0 1 647 11767 )" mask="url(#clip531)" />
  </g>
</svg>