<?xml version="1.0" encoding="utf-8"?>
<svg version="1.1" xmlns:xlink="http://www.w3.org/1999/xlink" width="14px" height="14px" xmlns="http://www.w3.org/2000/svg">
  <defs>
    <mask fill="white" id="clip448">
      <path d="M 6.5 0.290000000000873  C 9.69999999999999 0.290000000000873  13.2 3.98999999999978  13.2 7.29000000000087  C 13.2 10.5900000000001  9.69999999999999 13.2900000000009  6.5 13.2900000000009  C 3.39999999999998 13.2900000000009  0.899999999999977 10.5900000000001  0.899999999999977 7.29000000000087  C 0.899999999999977 3.98999999999978  3.39999999999998 0.290000000000873  6.5 0.290000000000873  Z " fill-rule="evenodd" />
    </mask>
  </defs>
  <g transform="matrix(1 0 0 1 -367 -8994 )">
    <path d="M 6.5 0.290000000000873  C 9.69999999999999 0.290000000000873  13.2 3.98999999999978  13.2 7.29000000000087  C 13.2 10.5900000000001  9.69999999999999 13.2900000000009  6.5 13.2900000000009  C 3.39999999999998 13.2900000000009  0.899999999999977 10.5900000000001  0.899999999999977 7.29000000000087  C 0.899999999999977 3.98999999999978  3.39999999999998 0.290000000000873  6.5 0.290000000000873  Z " fill-rule="nonzero" fill="#ffffff" stroke="none" fill-opacity="0" transform="matrix(1 0 0 1 367 8994 )" />
    <path d="M 6.5 0.290000000000873  C 9.69999999999999 0.290000000000873  13.2 3.98999999999978  13.2 7.29000000000087  C 13.2 10.5900000000001  9.69999999999999 13.2900000000009  6.5 13.2900000000009  C 3.39999999999998 13.2900000000009  0.899999999999977 10.5900000000001  0.899999999999977 7.29000000000087  C 0.899999999999977 3.98999999999978  3.39999999999998 0.290000000000873  6.5 0.290000000000873  Z " stroke-width="2" stroke="#595757" fill="none" transform="matrix(1 0 0 1 367 8994 )" mask="url(#clip448)" />
  </g>
</svg>