<?xml version="1.0" encoding="utf-8"?>
<svg version="1.1" xmlns:xlink="http://www.w3.org/1999/xlink" width="15px" height="15px" xmlns="http://www.w3.org/2000/svg">
  <defs>
    <mask fill="white" id="clip469">
      <path d="M 0.759999999999991 7.91000000000008  C 0.759999999999991 7.91000000000008  8.36000000000001 0.310000000000059  8.36000000000001 0.310000000000059  C 8.36000000000001 0.310000000000059  14.96 7.91000000000008  14.96 7.91000000000008  C 14.96 7.91000000000008  8.36000000000001 14.5100000000001  8.36000000000001 14.5100000000001  C 8.36000000000001 14.5100000000001  0.759999999999991 7.91000000000008  0.759999999999991 7.91000000000008  Z " fill-rule="evenodd" />
    </mask>
  </defs>
  <g transform="matrix(1 0 0 1 -324 -9265 )">
    <path d="M 0.759999999999991 7.91000000000008  C 0.759999999999991 7.91000000000008  8.36000000000001 0.310000000000059  8.36000000000001 0.310000000000059  C 8.36000000000001 0.310000000000059  14.96 7.91000000000008  14.96 7.91000000000008  C 14.96 7.91000000000008  8.36000000000001 14.5100000000001  8.36000000000001 14.5100000000001  C 8.36000000000001 14.5100000000001  0.759999999999991 7.91000000000008  0.759999999999991 7.91000000000008  Z " fill-rule="nonzero" fill="#d4cdc7" stroke="none" transform="matrix(1 0 0 1 324 9265 )" />
    <path d="M 0.759999999999991 7.91000000000008  C 0.759999999999991 7.91000000000008  8.36000000000001 0.310000000000059  8.36000000000001 0.310000000000059  C 8.36000000000001 0.310000000000059  14.96 7.91000000000008  14.96 7.91000000000008  C 14.96 7.91000000000008  8.36000000000001 14.5100000000001  8.36000000000001 14.5100000000001  C 8.36000000000001 14.5100000000001  0.759999999999991 7.91000000000008  0.759999999999991 7.91000000000008  Z " stroke-width="2" stroke="#d4cdc7" fill="none" transform="matrix(1 0 0 1 324 9265 )" mask="url(#clip469)" />
  </g>
</svg>