<?xml version="1.0" encoding="utf-8"?>
<svg version="1.1" xmlns:xlink="http://www.w3.org/1999/xlink" width="46px" height="66px" xmlns="http://www.w3.org/2000/svg">
  <defs>
    <mask fill="white" id="clip1965">
      <path d="M 6.75 0.199999999999989  C 8.94999999999993 0.199999999999989  10.75 4  10.75 6.19999999999999  C 10.75 8.39999999999998  8.94999999999993 10.2  6.75 10.2  C 4.54999999999995 10.2  0.75 8.39999999999998  0.75 6.19999999999999  C 0.75 4  4.54999999999995 0.199999999999989  6.75 0.199999999999989  Z " fill-rule="evenodd" />
    </mask>
  </defs>
  <g transform="matrix(1 0 0 1 -587 -12601 )">
    <path d="M 6.75 0.199999999999989  C 8.94999999999993 0.199999999999989  10.75 4  10.75 6.19999999999999  C 10.75 8.39999999999998  8.94999999999993 10.2  6.75 10.2  C 4.54999999999995 10.2  0.75 8.39999999999998  0.75 6.19999999999999  C 0.75 4  4.54999999999995 0.199999999999989  6.75 0.199999999999989  Z " fill-rule="nonzero" fill="#ffffff" stroke="none" fill-opacity="0" transform="matrix(1 0 0 1 588 12602 )" />
    <path d="M 6.75 0.199999999999989  C 8.94999999999993 0.199999999999989  10.75 4  10.75 6.19999999999999  C 10.75 8.39999999999998  8.94999999999993 10.2  6.75 10.2  C 4.54999999999995 10.2  0.75 8.39999999999998  0.75 6.19999999999999  C 0.75 4  4.54999999999995 0.199999999999989  6.75 0.199999999999989  Z " stroke-width="4" stroke="#c26383" fill="none" transform="matrix(1 0 0 1 588 12602 )" mask="url(#clip1965)" />
    <path d="M 42.85 62.6  L 5.75 5.19999999999999  " stroke-width="2" stroke="#c26383" fill="none" transform="matrix(1 0 0 1 588 12602 )" mask="url(#clip1965)" />
  </g>
</svg>