<?xml version="1.0" encoding="utf-8"?>
<svg version="1.1" xmlns:xlink="http://www.w3.org/1999/xlink" width="67px" height="25px" xmlns="http://www.w3.org/2000/svg">
  <defs>
    <mask fill="white" id="clip591">
      <path d="M 6.97 12  C 9.17000000000002 12  10.97 15.8  10.97 18  C 10.97 20.2  9.17000000000002 22  6.97 22  C 4.77000000000001 22  0.969999999999999 20.2  0.969999999999999 18  C 0.969999999999999 15.8  4.77000000000001 12  6.97 12  Z " fill-rule="evenodd" />
    </mask>
  </defs>
  <g transform="matrix(1 0 0 1 -235 -12704 )">
    <path d="M 6.97 12  C 9.17000000000002 12  10.97 15.8  10.97 18  C 10.97 20.2  9.17000000000002 22  6.97 22  C 4.77000000000001 22  0.969999999999999 20.2  0.969999999999999 18  C 0.969999999999999 15.8  4.77000000000001 12  6.97 12  Z " fill-rule="nonzero" fill="#ffffff" stroke="none" fill-opacity="0" transform="matrix(1 0 0 1 236 12705 )" />
    <path d="M 6.97 12  C 9.17000000000002 12  10.97 15.8  10.97 18  C 10.97 20.2  9.17000000000002 22  6.97 22  C 4.77000000000001 22  0.969999999999999 20.2  0.969999999999999 18  C 0.969999999999999 15.8  4.77000000000001 12  6.97 12  Z " stroke-width="4" stroke="#16a58a" fill="none" transform="matrix(1 0 0 1 236 12705 )" mask="url(#clip591)" />
    <path d="M 63.37 0.199999999999989  L 5.97 17  " stroke-width="2" stroke="#16a58a" fill="none" transform="matrix(1 0 0 1 236 12705 )" mask="url(#clip591)" />
  </g>
</svg>