<?xml version="1.0" encoding="utf-8"?>
<svg version="1.1" xmlns:xlink="http://www.w3.org/1999/xlink" width="31px" height="52px" xmlns="http://www.w3.org/2000/svg">
  <defs>
    <mask fill="white" id="clip601">
      <path d="M 23.85 0.600000000000023  C 26.05 0.600000000000023  27.85 4.39999999999998  27.85 6.60000000000002  C 27.85 8.80000000000001  26.05 10.6  23.85 10.6  C 21.65 10.6  17.85 8.80000000000001  17.85 6.60000000000002  C 17.85 4.39999999999998  21.65 0.600000000000023  23.85 0.600000000000023  Z " fill-rule="evenodd" />
    </mask>
  </defs>
  <g transform="matrix(1 0 0 1 -607 -12658 )">
    <path d="M 23.85 0.600000000000023  C 26.05 0.600000000000023  27.85 4.39999999999998  27.85 6.60000000000002  C 27.85 8.80000000000001  26.05 10.6  23.85 10.6  C 21.65 10.6  17.85 8.80000000000001  17.85 6.60000000000002  C 17.85 4.39999999999998  21.65 0.600000000000023  23.85 0.600000000000023  Z " fill-rule="nonzero" fill="#ffffff" stroke="none" fill-opacity="0" transform="matrix(1 0 0 1 608 12659 )" />
    <path d="M 23.85 0.600000000000023  C 26.05 0.600000000000023  27.85 4.39999999999998  27.85 6.60000000000002  C 27.85 8.80000000000001  26.05 10.6  23.85 10.6  C 21.65 10.6  17.85 8.80000000000001  17.85 6.60000000000002  C 17.85 4.39999999999998  21.65 0.600000000000023  23.85 0.600000000000023  Z " stroke-width="4" stroke="#c26383" fill="none" transform="matrix(1 0 0 1 608 12659 )" mask="url(#clip601)" />
    <path d="M 0.0499999999999545 48.7  L 22.85 5.60000000000002  " stroke-width="2" stroke="#c26383" fill="none" transform="matrix(1 0 0 1 608 12659 )" mask="url(#clip601)" />
  </g>
</svg>