<?xml version="1.0" encoding="utf-8"?>
<svg version="1.1" xmlns:xlink="http://www.w3.org/1999/xlink" width="29px" height="14px" xmlns="http://www.w3.org/2000/svg">
  <defs>
    <mask fill="white" id="clip579">
      <path d="M 12.23 0.5  C 14.3299999999999 0.5  18.03 4.2  18.03 6.3  C 18.03 8.39999999999999  14.3299999999999 10.1  12.23 10.1  C 10.23 10.1  8.52999999999997 8.39999999999999  8.52999999999997 6.3  C 8.52999999999997 4.2  10.23 0.5  12.23 0.5  Z " fill-rule="evenodd" />
    </mask>
  </defs>
  <g transform="matrix(1 0 0 1 -493 -12509 )">
    <path d="M 12.23 0.5  C 14.3299999999999 0.5  18.03 4.2  18.03 6.3  C 18.03 8.39999999999999  14.3299999999999 10.1  12.23 10.1  C 10.23 10.1  8.52999999999997 8.39999999999999  8.52999999999997 6.3  C 8.52999999999997 4.2  10.23 0.5  12.23 0.5  Z " fill-rule="nonzero" fill="#ffffff" stroke="none" fill-opacity="0" transform="matrix(1 0 0 1 494 12510 )" />
    <path d="M 12.23 0.5  C 14.3299999999999 0.5  18.03 4.2  18.03 6.3  C 18.03 8.39999999999999  14.3299999999999 10.1  12.23 10.1  C 10.23 10.1  8.52999999999997 8.39999999999999  8.52999999999997 6.3  C 8.52999999999997 4.2  10.23 0.5  12.23 0.5  Z " stroke-width="4" stroke="#c26383" fill="none" transform="matrix(1 0 0 1 494 12510 )" mask="url(#clip579)" />
    <path d="M 0.92999999999995 5.3  L 25.6299999999999 5.3  " stroke-width="2" stroke="#c26383" fill="none" transform="matrix(1 0 0 1 494 12510 )" mask="url(#clip579)" />
  </g>
</svg>