<?xml version="1.0" encoding="utf-8"?>
<svg version="1.1" xmlns:xlink="http://www.w3.org/1999/xlink" width="10px" height="9px" xmlns="http://www.w3.org/2000/svg">
  <defs>
    <mask fill="white" id="clip659">
      <path d="M 5.78000000000003 0.269999999999982  C 7.88000000000002 0.269999999999982  9.58000000000001 2.97000000000003  9.58000000000001 5.06999999999994  C 9.58000000000001 7.16999999999996  7.88000000000002 8.87  5.78000000000003 8.87  C 3.68000000000001 8.87  0.980000000000018 7.16999999999996  0.980000000000018 5.06999999999994  C 0.980000000000018 2.97000000000003  3.68000000000001 0.269999999999982  5.78000000000003 0.269999999999982  Z " fill-rule="evenodd" />
    </mask>
  </defs>
  <g transform="matrix(1 0 0 1 -312 -12065 )">
    <path d="M 5.78000000000003 0.269999999999982  C 7.88000000000002 0.269999999999982  9.58000000000001 2.97000000000003  9.58000000000001 5.06999999999994  C 9.58000000000001 7.16999999999996  7.88000000000002 8.87  5.78000000000003 8.87  C 3.68000000000001 8.87  0.980000000000018 7.16999999999996  0.980000000000018 5.06999999999994  C 0.980000000000018 2.97000000000003  3.68000000000001 0.269999999999982  5.78000000000003 0.269999999999982  Z " fill-rule="nonzero" fill="#ff6a6a" stroke="none" transform="matrix(1 0 0 1 312 12065 )" />
    <path d="M 5.78000000000003 0.269999999999982  C 7.88000000000002 0.269999999999982  9.58000000000001 2.97000000000003  9.58000000000001 5.06999999999994  C 9.58000000000001 7.16999999999996  7.88000000000002 8.87  5.78000000000003 8.87  C 3.68000000000001 8.87  0.980000000000018 7.16999999999996  0.980000000000018 5.06999999999994  C 0.980000000000018 2.97000000000003  3.68000000000001 0.269999999999982  5.78000000000003 0.269999999999982  Z " stroke-width="2" stroke="#ff6a6a" fill="none" transform="matrix(1 0 0 1 312 12065 )" mask="url(#clip659)" />
  </g>
</svg>