<?xml version="1.0" encoding="utf-8"?>
<svg version="1.1" xmlns:xlink="http://www.w3.org/1999/xlink" width="27px" height="52px" xmlns="http://www.w3.org/2000/svg">
  <defs>
    <mask fill="white" id="clip1969">
      <path d="M 19.73 38.6  C 21.9300000000001 38.6  23.73 42.4  23.73 44.6  C 23.73 46.8  21.9300000000001 48.6  19.73 48.6  C 17.53 48.6  13.73 46.8  13.73 44.6  C 13.73 42.4  17.53 38.6  19.73 38.6  Z " fill-rule="evenodd" />
    </mask>
  </defs>
  <g transform="matrix(1 0 0 1 -1050 -12620 )">
    <path d="M 19.73 38.6  C 21.9300000000001 38.6  23.73 42.4  23.73 44.6  C 23.73 46.8  21.9300000000001 48.6  19.73 48.6  C 17.53 48.6  13.73 46.8  13.73 44.6  C 13.73 42.4  17.53 38.6  19.73 38.6  Z " fill-rule="nonzero" fill="#ffffff" stroke="none" fill-opacity="0" transform="matrix(1 0 0 1 1051 12621 )" />
    <path d="M 19.73 38.6  C 21.9300000000001 38.6  23.73 42.4  23.73 44.6  C 23.73 46.8  21.9300000000001 48.6  19.73 48.6  C 17.53 48.6  13.73 46.8  13.73 44.6  C 13.73 42.4  17.53 38.6  19.73 38.6  Z " stroke-width="4" stroke="#2d85c1" fill="none" transform="matrix(1 0 0 1 1051 12621 )" mask="url(#clip1969)" />
    <path d="M 0.930000000000064 0.5  L 18.73 43.6  " stroke-width="2" stroke="#2d85c1" fill="none" transform="matrix(1 0 0 1 1051 12621 )" mask="url(#clip1969)" />
  </g>
</svg>