<?xml version="1.0" encoding="utf-8"?>
<svg version="1.1" xmlns:xlink="http://www.w3.org/1999/xlink" width="9px" height="9px" xmlns="http://www.w3.org/2000/svg">
  <defs>
    <mask fill="white" id="clip499">
      <path d="M 4.88 0.309999999999945  C 6.98000000000002 0.309999999999945  8.68000000000006 3.00999999999999  8.68000000000006 5.1099999999999  C 8.68000000000006 7.20999999999992  6.98000000000002 8.90999999999997  4.88 8.90999999999997  C 2.78000000000009 8.90999999999997  0.0800000000000409 7.20999999999992  0.0800000000000409 5.1099999999999  C 0.0800000000000409 3.00999999999999  2.78000000000009 0.309999999999945  4.88 0.309999999999945  Z " fill-rule="evenodd" />
    </mask>
  </defs>
  <g transform="matrix(1 0 0 1 -723 -11982 )">
    <path d="M 4.88 0.309999999999945  C 6.98000000000002 0.309999999999945  8.68000000000006 3.00999999999999  8.68000000000006 5.1099999999999  C 8.68000000000006 7.20999999999992  6.98000000000002 8.90999999999997  4.88 8.90999999999997  C 2.78000000000009 8.90999999999997  0.0800000000000409 7.20999999999992  0.0800000000000409 5.1099999999999  C 0.0800000000000409 3.00999999999999  2.78000000000009 0.309999999999945  4.88 0.309999999999945  Z " fill-rule="nonzero" fill="#ff6a6a" stroke="none" transform="matrix(1 0 0 1 723 11982 )" />
    <path d="M 4.88 0.309999999999945  C 6.98000000000002 0.309999999999945  8.68000000000006 3.00999999999999  8.68000000000006 5.1099999999999  C 8.68000000000006 7.20999999999992  6.98000000000002 8.90999999999997  4.88 8.90999999999997  C 2.78000000000009 8.90999999999997  0.0800000000000409 7.20999999999992  0.0800000000000409 5.1099999999999  C 0.0800000000000409 3.00999999999999  2.78000000000009 0.309999999999945  4.88 0.309999999999945  Z " stroke-width="2" stroke="#ff6a6a" fill="none" transform="matrix(1 0 0 1 723 11982 )" mask="url(#clip499)" />
  </g>
</svg>