<?xml version="1.0" encoding="utf-8"?>
<svg version="1.1" xmlns:xlink="http://www.w3.org/1999/xlink" width="10px" height="9px" xmlns="http://www.w3.org/2000/svg">
  <defs>
    <mask fill="white" id="clip663">
      <path d="M 5.44 0.129999999999995  C 7.53999999999996 0.129999999999995  9.24000000000001 2.83000000000004  9.24000000000001 4.92999999999995  C 9.24000000000001 7.02999999999997  7.53999999999996 8.73000000000002  5.44 8.73000000000002  C 3.33999999999998 8.73000000000002  0.639999999999986 7.02999999999997  0.639999999999986 4.92999999999995  C 0.639999999999986 2.83000000000004  3.33999999999998 0.129999999999995  5.44 0.129999999999995  Z " fill-rule="evenodd" />
    </mask>
  </defs>
  <g transform="matrix(1 0 0 1 -402 -12044 )">
    <path d="M 5.44 0.129999999999995  C 7.53999999999996 0.129999999999995  9.24000000000001 2.83000000000004  9.24000000000001 4.92999999999995  C 9.24000000000001 7.02999999999997  7.53999999999996 8.73000000000002  5.44 8.73000000000002  C 3.33999999999998 8.73000000000002  0.639999999999986 7.02999999999997  0.639999999999986 4.92999999999995  C 0.639999999999986 2.83000000000004  3.33999999999998 0.129999999999995  5.44 0.129999999999995  Z " fill-rule="nonzero" fill="#ff6a6a" stroke="none" transform="matrix(1 0 0 1 402 12044 )" />
    <path d="M 5.44 0.129999999999995  C 7.53999999999996 0.129999999999995  9.24000000000001 2.83000000000004  9.24000000000001 4.92999999999995  C 9.24000000000001 7.02999999999997  7.53999999999996 8.73000000000002  5.44 8.73000000000002  C 3.33999999999998 8.73000000000002  0.639999999999986 7.02999999999997  0.639999999999986 4.92999999999995  C 0.639999999999986 2.83000000000004  3.33999999999998 0.129999999999995  5.44 0.129999999999995  Z " stroke-width="2" stroke="#ff6a6a" fill="none" transform="matrix(1 0 0 1 402 12044 )" mask="url(#clip663)" />
  </g>
</svg>