<?xml version="1.0" encoding="utf-8"?>
<svg version="1.1" xmlns:xlink="http://www.w3.org/1999/xlink" width="10px" height="10px" xmlns="http://www.w3.org/2000/svg">
  <defs>
    <mask fill="white" id="clip664">
      <path d="M 5.35000000000002 0.829999999999927  C 7.44999999999999 0.829999999999927  9.15000000000003 3.52999999999997  9.15000000000003 5.62999999999988  C 9.15000000000003 7.7299999999999  7.44999999999999 9.42999999999995  5.35000000000002 9.42999999999995  C 3.25 9.42999999999995  0.550000000000011 7.7299999999999  0.550000000000011 5.62999999999988  C 0.550000000000011 3.52999999999997  3.25 0.829999999999927  5.35000000000002 0.829999999999927  Z " fill-rule="evenodd" />
    </mask>
  </defs>
  <g transform="matrix(1 0 0 1 -429 -12037 )">
    <path d="M 5.35000000000002 0.829999999999927  C 7.44999999999999 0.829999999999927  9.15000000000003 3.52999999999997  9.15000000000003 5.62999999999988  C 9.15000000000003 7.7299999999999  7.44999999999999 9.42999999999995  5.35000000000002 9.42999999999995  C 3.25 9.42999999999995  0.550000000000011 7.7299999999999  0.550000000000011 5.62999999999988  C 0.550000000000011 3.52999999999997  3.25 0.829999999999927  5.35000000000002 0.829999999999927  Z " fill-rule="nonzero" fill="#ff6a6a" stroke="none" transform="matrix(1 0 0 1 429 12037 )" />
    <path d="M 5.35000000000002 0.829999999999927  C 7.44999999999999 0.829999999999927  9.15000000000003 3.52999999999997  9.15000000000003 5.62999999999988  C 9.15000000000003 7.7299999999999  7.44999999999999 9.42999999999995  5.35000000000002 9.42999999999995  C 3.25 9.42999999999995  0.550000000000011 7.7299999999999  0.550000000000011 5.62999999999988  C 0.550000000000011 3.52999999999997  3.25 0.829999999999927  5.35000000000002 0.829999999999927  Z " stroke-width="2" stroke="#ff6a6a" fill="none" transform="matrix(1 0 0 1 429 12037 )" mask="url(#clip664)" />
  </g>
</svg>