<?xml version="1.0" encoding="utf-8"?>
<svg version="1.1" xmlns:xlink="http://www.w3.org/1999/xlink" width="52px" height="27px" xmlns="http://www.w3.org/2000/svg">
  <defs>
    <mask fill="white" id="clip589">
      <path d="M 44.9300000000001 13.5  C 47.1300000000001 13.5  48.9300000000001 17.3  48.9300000000001 19.5  C 48.9300000000001 21.7  47.1300000000001 23.5  44.9300000000001 23.5  C 42.6300000000001 23.5  38.9300000000001 21.7  38.9300000000001 19.5  C 38.9300000000001 17.3  42.6300000000001 13.5  44.9300000000001 13.5  Z " fill-rule="evenodd" />
    </mask>
  </defs>
  <g transform="matrix(1 0 0 1 -1007 -12602 )">
    <path d="M 44.9300000000001 13.5  C 47.1300000000001 13.5  48.9300000000001 17.3  48.9300000000001 19.5  C 48.9300000000001 21.7  47.1300000000001 23.5  44.9300000000001 23.5  C 42.6300000000001 23.5  38.9300000000001 21.7  38.9300000000001 19.5  C 38.9300000000001 17.3  42.6300000000001 13.5  44.9300000000001 13.5  Z " fill-rule="nonzero" fill="#ffffff" stroke="none" fill-opacity="0" transform="matrix(1 0 0 1 1008 12603 )" />
    <path d="M 44.9300000000001 13.5  C 47.1300000000001 13.5  48.9300000000001 17.3  48.9300000000001 19.5  C 48.9300000000001 21.7  47.1300000000001 23.5  44.9300000000001 23.5  C 42.6300000000001 23.5  38.9300000000001 21.7  38.9300000000001 19.5  C 38.9300000000001 17.3  42.6300000000001 13.5  44.9300000000001 13.5  Z " stroke-width="4" stroke="#2d85c1" fill="none" transform="matrix(1 0 0 1 1008 12603 )" mask="url(#clip589)" />
    <path d="M 0.830000000000041 0.699999999999989  L 43.9300000000001 18.5  " stroke-width="2" stroke="#2d85c1" fill="none" transform="matrix(1 0 0 1 1008 12603 )" mask="url(#clip589)" />
  </g>
</svg>