<?xml version="1.0" encoding="utf-8"?>
<svg version="1.1" xmlns:xlink="http://www.w3.org/1999/xlink" width="10px" height="9px" xmlns="http://www.w3.org/2000/svg">
  <defs>
    <mask fill="white" id="clip660">
      <path d="M 5.74000000000001 0.399999999999977  C 7.84 0.399999999999977  9.53999999999999 3.10000000000002  9.53999999999999 5.19999999999993  C 9.53999999999999 7.29999999999995  7.84 9  5.74000000000001 9  C 3.63999999999999 9  0.939999999999998 7.29999999999995  0.939999999999998 5.19999999999993  C 0.939999999999998 3.10000000000002  3.63999999999999 0.399999999999977  5.74000000000001 0.399999999999977  Z " fill-rule="evenodd" />
    </mask>
  </defs>
  <g transform="matrix(1 0 0 1 -302 -12061 )">
    <path d="M 5.74000000000001 0.399999999999977  C 7.84 0.399999999999977  9.53999999999999 3.10000000000002  9.53999999999999 5.19999999999993  C 9.53999999999999 7.29999999999995  7.84 9  5.74000000000001 9  C 3.63999999999999 9  0.939999999999998 7.29999999999995  0.939999999999998 5.19999999999993  C 0.939999999999998 3.10000000000002  3.63999999999999 0.399999999999977  5.74000000000001 0.399999999999977  Z " fill-rule="nonzero" fill="#ff6a6a" stroke="none" transform="matrix(1 0 0 1 302 12061 )" />
    <path d="M 5.74000000000001 0.399999999999977  C 7.84 0.399999999999977  9.53999999999999 3.10000000000002  9.53999999999999 5.19999999999993  C 9.53999999999999 7.29999999999995  7.84 9  5.74000000000001 9  C 3.63999999999999 9  0.939999999999998 7.29999999999995  0.939999999999998 5.19999999999993  C 0.939999999999998 3.10000000000002  3.63999999999999 0.399999999999977  5.74000000000001 0.399999999999977  Z " stroke-width="2" stroke="#ff6a6a" fill="none" transform="matrix(1 0 0 1 302 12061 )" mask="url(#clip660)" />
  </g>
</svg>