<?xml version="1.0" encoding="utf-8"?>
<svg version="1.1" xmlns:xlink="http://www.w3.org/1999/xlink" width="21px" height="38px" xmlns="http://www.w3.org/2000/svg">
  <defs>
    <mask fill="white" id="clip611">
      <path d="M 13.13 0.899999999999977  C 15.33 0.899999999999977  17.13 4.69999999999999  17.13 6.89999999999998  C 17.13 9.09999999999999  15.33 10.9  13.13 10.9  C 10.9300000000001 10.9  7.13 9.09999999999999  7.13 6.89999999999998  C 7.13 4.69999999999999  10.9300000000001 0.899999999999977  13.13 0.899999999999977  Z " fill-rule="evenodd" />
    </mask>
  </defs>
  <g transform="matrix(1 0 0 1 -967 -12629 )">
    <path d="M 13.13 0.899999999999977  C 15.33 0.899999999999977  17.13 4.69999999999999  17.13 6.89999999999998  C 17.13 9.09999999999999  15.33 10.9  13.13 10.9  C 10.9300000000001 10.9  7.13 9.09999999999999  7.13 6.89999999999998  C 7.13 4.69999999999999  10.9300000000001 0.899999999999977  13.13 0.899999999999977  Z " fill-rule="nonzero" fill="#ffffff" stroke="none" fill-opacity="0" transform="matrix(1 0 0 1 968 12630 )" />
    <path d="M 13.13 0.899999999999977  C 15.33 0.899999999999977  17.13 4.69999999999999  17.13 6.89999999999998  C 17.13 9.09999999999999  15.33 10.9  13.13 10.9  C 10.9300000000001 10.9  7.13 9.09999999999999  7.13 6.89999999999998  C 7.13 4.69999999999999  10.9300000000001 0.899999999999977  13.13 0.899999999999977  Z " stroke-width="4" stroke="#2d85c1" fill="none" transform="matrix(1 0 0 1 968 12630 )" mask="url(#clip611)" />
    <path d="M 0.230000000000018 34.6  L 12.13 5.89999999999998  " stroke-width="2" stroke="#2d85c1" fill="none" transform="matrix(1 0 0 1 968 12630 )" mask="url(#clip611)" />
  </g>
</svg>