<?xml version="1.0" encoding="utf-8"?>
<svg version="1.1" xmlns:xlink="http://www.w3.org/1999/xlink" width="9px" height="9px" xmlns="http://www.w3.org/2000/svg">
  <defs>
    <mask fill="white" id="clip502">
      <path d="M 4.91999999999996 0.25  C 7.01999999999998 0.25  8.72000000000003 2.95000000000005  8.72000000000003 5.04999999999995  C 8.72000000000003 7.14999999999998  7.01999999999998 8.85000000000002  4.91999999999996 8.85000000000002  C 2.82000000000005 8.85000000000002  0.120000000000005 7.14999999999998  0.120000000000005 5.04999999999995  C 0.120000000000005 2.95000000000005  2.82000000000005 0.25  4.91999999999996 0.25  Z " fill-rule="evenodd" />
    </mask>
  </defs>
  <g transform="matrix(1 0 0 1 -718 -11961 )">
    <path d="M 4.91999999999996 0.25  C 7.01999999999998 0.25  8.72000000000003 2.95000000000005  8.72000000000003 5.04999999999995  C 8.72000000000003 7.14999999999998  7.01999999999998 8.85000000000002  4.91999999999996 8.85000000000002  C 2.82000000000005 8.85000000000002  0.120000000000005 7.14999999999998  0.120000000000005 5.04999999999995  C 0.120000000000005 2.95000000000005  2.82000000000005 0.25  4.91999999999996 0.25  Z " fill-rule="nonzero" fill="#ff6a6a" stroke="none" transform="matrix(1 0 0 1 718 11961 )" />
    <path d="M 4.91999999999996 0.25  C 7.01999999999998 0.25  8.72000000000003 2.95000000000005  8.72000000000003 5.04999999999995  C 8.72000000000003 7.14999999999998  7.01999999999998 8.85000000000002  4.91999999999996 8.85000000000002  C 2.82000000000005 8.85000000000002  0.120000000000005 7.14999999999998  0.120000000000005 5.04999999999995  C 0.120000000000005 2.95000000000005  2.82000000000005 0.25  4.91999999999996 0.25  Z " stroke-width="2" stroke="#ff6a6a" fill="none" transform="matrix(1 0 0 1 718 11961 )" mask="url(#clip502)" />
  </g>
</svg>