<?xml version="1.0" encoding="utf-8"?>
<svg version="1.1" xmlns:xlink="http://www.w3.org/1999/xlink" width="9px" height="10px" xmlns="http://www.w3.org/2000/svg">
  <defs>
    <mask fill="white" id="clip697">
      <path d="M 5.09999999999991 0.430000000000007  C 7.19999999999993 0.430000000000007  8.89999999999998 3.13  8.89999999999998 5.23000000000002  C 8.89999999999998 7.32999999999998  7.19999999999993 9.03000000000003  5.09999999999991 9.03000000000003  C 3 9.03000000000003  0.299999999999955 7.32999999999998  0.299999999999955 5.23000000000002  C 0.299999999999955 3.13  3 0.430000000000007  5.09999999999991 0.430000000000007  Z " fill-rule="evenodd" />
    </mask>
  </defs>
  <g transform="matrix(1 0 0 1 -637 -11790 )">
    <path d="M 5.09999999999991 0.430000000000007  C 7.19999999999993 0.430000000000007  8.89999999999998 3.13  8.89999999999998 5.23000000000002  C 8.89999999999998 7.32999999999998  7.19999999999993 9.03000000000003  5.09999999999991 9.03000000000003  C 3 9.03000000000003  0.299999999999955 7.32999999999998  0.299999999999955 5.23000000000002  C 0.299999999999955 3.13  3 0.430000000000007  5.09999999999991 0.430000000000007  Z " fill-rule="nonzero" fill="#ff6a6a" stroke="none" transform="matrix(1 0 0 1 637 11790 )" />
    <path d="M 5.09999999999991 0.430000000000007  C 7.19999999999993 0.430000000000007  8.89999999999998 3.13  8.89999999999998 5.23000000000002  C 8.89999999999998 7.32999999999998  7.19999999999993 9.03000000000003  5.09999999999991 9.03000000000003  C 3 9.03000000000003  0.299999999999955 7.32999999999998  0.299999999999955 5.23000000000002  C 0.299999999999955 3.13  3 0.430000000000007  5.09999999999991 0.430000000000007  Z " stroke-width="2" stroke="#ff6a6a" fill="none" transform="matrix(1 0 0 1 637 11790 )" mask="url(#clip697)" />
  </g>
</svg>