<?xml version="1.0" encoding="utf-8"?>
<svg version="1.1" xmlns:xlink="http://www.w3.org/1999/xlink" width="47px" height="53px" xmlns="http://www.w3.org/2000/svg">
  <defs>
    <mask fill="white" id="clip596">
      <path d="M 6.47000000000003 39.08  C 8.67000000000002 39.08  10.47 42.78  10.47 45.08  C 10.47 47.28  8.67000000000002 49.08  6.47000000000003 49.08  C 4.17000000000002 49.08  0.469999999999999 47.28  0.469999999999999 45.08  C 0.469999999999999 42.78  4.17000000000002 39.08  6.47000000000003 39.08  Z " fill-rule="evenodd" />
    </mask>
  </defs>
  <g transform="matrix(1 0 0 1 -336 -13033 )">
    <path d="M 6.47000000000003 39.08  C 8.67000000000002 39.08  10.47 42.78  10.47 45.08  C 10.47 47.28  8.67000000000002 49.08  6.47000000000003 49.08  C 4.17000000000002 49.08  0.469999999999999 47.28  0.469999999999999 45.08  C 0.469999999999999 42.78  4.17000000000002 39.08  6.47000000000003 39.08  Z " fill-rule="nonzero" fill="#ffffff" stroke="none" fill-opacity="0" transform="matrix(1 0 0 1 337 13034 )" />
    <path d="M 6.47000000000003 39.08  C 8.67000000000002 39.08  10.47 42.78  10.47 45.08  C 10.47 47.28  8.67000000000002 49.08  6.47000000000003 49.08  C 4.17000000000002 49.08  0.469999999999999 47.28  0.469999999999999 45.08  C 0.469999999999999 42.78  4.17000000000002 39.08  6.47000000000003 39.08  Z " stroke-width="4" stroke="#e19a00" fill="none" transform="matrix(1 0 0 1 337 13034 )" mask="url(#clip596)" />
    <path d="M 43.57 0.980000000000018  L 5.47000000000003 44.08  " stroke-width="2" stroke="#e19a00" fill="none" transform="matrix(1 0 0 1 337 13034 )" mask="url(#clip596)" />
  </g>
</svg>