<?xml version="1.0" encoding="utf-8"?>
<svg version="1.1" xmlns:xlink="http://www.w3.org/1999/xlink" width="10px" height="9px" xmlns="http://www.w3.org/2000/svg">
  <defs>
    <mask fill="white" id="clip535">
      <path d="M 5.46999999999991 0.0699999999999932  C 7.56999999999994 0.0699999999999932  9.26999999999998 2.76999999999998  9.26999999999998 4.87  C 9.26999999999998 6.96999999999997  7.56999999999994 8.67000000000002  5.46999999999991 8.67000000000002  C 3.37 8.67000000000002  0.669999999999959 6.96999999999997  0.669999999999959 4.87  C 0.669999999999959 2.76999999999998  3.37 0.0699999999999932  5.46999999999991 0.0699999999999932  Z " fill-rule="evenodd" />
    </mask>
  </defs>
  <g transform="matrix(1 0 0 1 -846 -11707 )">
    <path d="M 5.46999999999991 0.0699999999999932  C 7.56999999999994 0.0699999999999932  9.26999999999998 2.76999999999998  9.26999999999998 4.87  C 9.26999999999998 6.96999999999997  7.56999999999994 8.67000000000002  5.46999999999991 8.67000000000002  C 3.37 8.67000000000002  0.669999999999959 6.96999999999997  0.669999999999959 4.87  C 0.669999999999959 2.76999999999998  3.37 0.0699999999999932  5.46999999999991 0.0699999999999932  Z " fill-rule="nonzero" fill="#ff6a6a" stroke="none" transform="matrix(1 0 0 1 846 11707 )" />
    <path d="M 5.46999999999991 0.0699999999999932  C 7.56999999999994 0.0699999999999932  9.26999999999998 2.76999999999998  9.26999999999998 4.87  C 9.26999999999998 6.96999999999997  7.56999999999994 8.67000000000002  5.46999999999991 8.67000000000002  C 3.37 8.67000000000002  0.669999999999959 6.96999999999997  0.669999999999959 4.87  C 0.669999999999959 2.76999999999998  3.37 0.0699999999999932  5.46999999999991 0.0699999999999932  Z " stroke-width="2" stroke="#ff6a6a" fill="none" transform="matrix(1 0 0 1 846 11707 )" mask="url(#clip535)" />
  </g>
</svg>