<?xml version="1.0" encoding="utf-8"?>
<svg version="1.1" xmlns:xlink="http://www.w3.org/1999/xlink" width="28px" height="14px" xmlns="http://www.w3.org/2000/svg">
  <defs>
    <mask fill="white" id="clip1975">
      <path d="M 11.39 0.520000000000039  C 13.49 0.520000000000039  17.19 4.22000000000003  17.19 6.32000000000005  C 17.19 8.42000000000007  13.49 10.1200000000001  11.39 10.1200000000001  C 9.39 10.1200000000001  7.69 8.42000000000007  7.69 6.32000000000005  C 7.69 4.22000000000003  9.39 0.520000000000039  11.39 0.520000000000039  Z " fill-rule="evenodd" />
    </mask>
  </defs>
  <g transform="matrix(1 0 0 1 -143 -12877 )">
    <path d="M 11.39 0.520000000000039  C 13.49 0.520000000000039  17.19 4.22000000000003  17.19 6.32000000000005  C 17.19 8.42000000000007  13.49 10.1200000000001  11.39 10.1200000000001  C 9.39 10.1200000000001  7.69 8.42000000000007  7.69 6.32000000000005  C 7.69 4.22000000000003  9.39 0.520000000000039  11.39 0.520000000000039  Z " fill-rule="nonzero" fill="#ffffff" stroke="none" fill-opacity="0" transform="matrix(1 0 0 1 144 12878 )" />
    <path d="M 11.39 0.520000000000039  C 13.49 0.520000000000039  17.19 4.22000000000003  17.19 6.32000000000005  C 17.19 8.42000000000007  13.49 10.1200000000001  11.39 10.1200000000001  C 9.39 10.1200000000001  7.69 8.42000000000007  7.69 6.32000000000005  C 7.69 4.22000000000003  9.39 0.520000000000039  11.39 0.520000000000039  Z " stroke-width="4" stroke="#e19a00" fill="none" transform="matrix(1 0 0 1 144 12878 )" mask="url(#clip1975)" />
    <path d="M 0.0900000000000034 5.32000000000005  L 24.79 5.32000000000005  " stroke-width="2" stroke="#e19a00" fill="none" transform="matrix(1 0 0 1 144 12878 )" mask="url(#clip1975)" />
  </g>
</svg>