<?xml version="1.0" encoding="utf-8"?>
<svg version="1.1" xmlns:xlink="http://www.w3.org/1999/xlink" width="52px" height="47px" xmlns="http://www.w3.org/2000/svg">
  <defs>
    <mask fill="white" id="clip613">
      <path d="M 44.37 0.779999999999973  C 46.57 0.779999999999973  48.37 4.58000000000004  48.37 6.77999999999997  C 48.37 8.98000000000002  46.57 10.78  44.37 10.78  C 42.17 10.78  38.37 8.98000000000002  38.37 6.77999999999997  C 38.37 4.58000000000004  42.17 0.779999999999973  44.37 0.779999999999973  Z " fill-rule="evenodd" />
    </mask>
  </defs>
  <g transform="matrix(1 0 0 1 -255 -12947 )">
    <path d="M 44.37 0.779999999999973  C 46.57 0.779999999999973  48.37 4.58000000000004  48.37 6.77999999999997  C 48.37 8.98000000000002  46.57 10.78  44.37 10.78  C 42.17 10.78  38.37 8.98000000000002  38.37 6.77999999999997  C 38.37 4.58000000000004  42.17 0.779999999999973  44.37 0.779999999999973  Z " fill-rule="nonzero" fill="#ffffff" stroke="none" fill-opacity="0" transform="matrix(1 0 0 1 256 12948 )" />
    <path d="M 44.37 0.779999999999973  C 46.57 0.779999999999973  48.37 4.58000000000004  48.37 6.77999999999997  C 48.37 8.98000000000002  46.57 10.78  44.37 10.78  C 42.17 10.78  38.37 8.98000000000002  38.37 6.77999999999997  C 38.37 4.58000000000004  42.17 0.779999999999973  44.37 0.779999999999973  Z " stroke-width="4" stroke="#e19a00" fill="none" transform="matrix(1 0 0 1 256 12948 )" mask="url(#clip613)" />
    <path d="M 0.27000000000001 43.88  L 43.37 5.77999999999997  " stroke-width="2" stroke="#e19a00" fill="none" transform="matrix(1 0 0 1 256 12948 )" mask="url(#clip613)" />
  </g>
</svg>