<?xml version="1.0" encoding="utf-8"?>
<svg version="1.1" xmlns:xlink="http://www.w3.org/1999/xlink" width="14px" height="67px" xmlns="http://www.w3.org/2000/svg">
  <defs>
    <mask fill="white" id="clip619">
      <path d="M 6.47 0.980000000000018  C 8.67000000000002 0.980000000000018  10.47 4.77999999999997  10.47 6.98000000000002  C 10.47 9.18000000000006  8.67000000000002 10.98  6.47 10.98  C 4.27000000000001 10.98  0.469999999999999 9.18000000000006  0.469999999999999 6.98000000000002  C 0.469999999999999 4.77999999999997  4.27000000000001 0.980000000000018  6.47 0.980000000000018  Z " fill-rule="evenodd" />
    </mask>
  </defs>
  <g transform="matrix(1 0 0 1 -232 -13028 )">
    <path d="M 6.47 0.980000000000018  C 8.67000000000002 0.980000000000018  10.47 4.77999999999997  10.47 6.98000000000002  C 10.47 9.18000000000006  8.67000000000002 10.98  6.47 10.98  C 4.27000000000001 10.98  0.469999999999999 9.18000000000006  0.469999999999999 6.98000000000002  C 0.469999999999999 4.77999999999997  4.27000000000001 0.980000000000018  6.47 0.980000000000018  Z " fill-rule="nonzero" fill="#ffffff" stroke="none" fill-opacity="0" transform="matrix(1 0 0 1 233 13029 )" />
    <path d="M 6.47 0.980000000000018  C 8.67000000000002 0.980000000000018  10.47 4.77999999999997  10.47 6.98000000000002  C 10.47 9.18000000000006  8.67000000000002 10.98  6.47 10.98  C 4.27000000000001 10.98  0.469999999999999 9.18000000000006  0.469999999999999 6.98000000000002  C 0.469999999999999 4.77999999999997  4.27000000000001 0.980000000000018  6.47 0.980000000000018  Z " stroke-width="4" stroke="#e19a00" fill="none" transform="matrix(1 0 0 1 233 13029 )" mask="url(#clip619)" />
    <path d="M 8.97 63.38  L 5.47 5.98000000000002  " stroke-width="2" stroke="#e19a00" fill="none" transform="matrix(1 0 0 1 233 13029 )" mask="url(#clip619)" />
  </g>
</svg>