<?xml version="1.0" encoding="utf-8"?>
<svg version="1.1" xmlns:xlink="http://www.w3.org/1999/xlink" width="52px" height="26px" xmlns="http://www.w3.org/2000/svg">
  <defs>
    <mask fill="white" id="clip1980">
      <path d="M 6.37 12.88  C 8.56999999999999 12.88  10.37 16.6800000000001  10.37 18.88  C 10.37 21.08  8.56999999999999 22.88  6.37 22.88  C 4.17000000000002 22.88  0.370000000000005 21.08  0.370000000000005 18.88  C 0.370000000000005 16.6800000000001  4.17000000000002 12.88  6.37 12.88  Z " fill-rule="evenodd" />
    </mask>
  </defs>
  <g transform="matrix(1 0 0 1 -293 -13077 )">
    <path d="M 6.37 12.88  C 8.56999999999999 12.88  10.37 16.6800000000001  10.37 18.88  C 10.37 21.08  8.56999999999999 22.88  6.37 22.88  C 4.17000000000002 22.88  0.370000000000005 21.08  0.370000000000005 18.88  C 0.370000000000005 16.6800000000001  4.17000000000002 12.88  6.37 12.88  Z " fill-rule="nonzero" fill="#ffffff" stroke="none" fill-opacity="0" transform="matrix(1 0 0 1 294 13078 )" />
    <path d="M 6.37 12.88  C 8.56999999999999 12.88  10.37 16.6800000000001  10.37 18.88  C 10.37 21.08  8.56999999999999 22.88  6.37 22.88  C 4.17000000000002 22.88  0.370000000000005 21.08  0.370000000000005 18.88  C 0.370000000000005 16.6800000000001  4.17000000000002 12.88  6.37 12.88  Z " stroke-width="4" stroke="#e19a00" fill="none" transform="matrix(1 0 0 1 294 13078 )" mask="url(#clip1980)" />
    <path d="M 48.47 0.0800000000000409  L 5.37 17.88  " stroke-width="2" stroke="#e19a00" fill="none" transform="matrix(1 0 0 1 294 13078 )" mask="url(#clip1980)" />
  </g>
</svg>