<?xml version="1.0" encoding="utf-8"?>
<svg version="1.1" xmlns:xlink="http://www.w3.org/1999/xlink" width="312px" height="42px" xmlns="http://www.w3.org/2000/svg">
  <defs>
    <mask fill="white" id="clip623">
      <path d="M 11.68 41.6  C 11.68 41.6  300.58 41.6  300.58 41.6  C 306.88 41.6  311.98 36.5  311.98 30.2  C 311.98 30.2  311.98 11.8  311.98 11.8  C 311.98 5.60000000000002  306.88 0.5  300.58 0.5  C 300.58 0.5  11.68 0.5  11.68 0.5  C 5.48000000000002 0.5  0.379999999999996 5.60000000000002  0.379999999999996 11.8  C 0.379999999999996 11.8  0.379999999999996 30.2  0.379999999999996 30.2  C 0.379999999999996 36.5  5.48000000000002 41.6  11.68 41.6  Z " fill-rule="evenodd" />
    </mask>
  </defs>
  <g transform="matrix(1 0 0 1 -495 -12804 )">
    <path d="M 11.68 41.6  C 11.68 41.6  300.58 41.6  300.58 41.6  C 306.88 41.6  311.98 36.5  311.98 30.2  C 311.98 30.2  311.98 11.8  311.98 11.8  C 311.98 5.60000000000002  306.88 0.5  300.58 0.5  C 300.58 0.5  11.68 0.5  11.68 0.5  C 5.48000000000002 0.5  0.379999999999996 5.60000000000002  0.379999999999996 11.8  C 0.379999999999996 11.8  0.379999999999996 30.2  0.379999999999996 30.2  C 0.379999999999996 36.5  5.48000000000002 41.6  11.68 41.6  Z " fill-rule="nonzero" fill="#dd7195" stroke="none" transform="matrix(1 0 0 1 495 12804 )" />
    <path d="M 11.68 41.6  C 11.68 41.6  300.58 41.6  300.58 41.6  C 306.88 41.6  311.98 36.5  311.98 30.2  C 311.98 30.2  311.98 11.8  311.98 11.8  C 311.98 5.60000000000002  306.88 0.5  300.58 0.5  C 300.58 0.5  11.68 0.5  11.68 0.5  C 5.48000000000002 0.5  0.379999999999996 5.60000000000002  0.379999999999996 11.8  C 0.379999999999996 11.8  0.379999999999996 30.2  0.379999999999996 30.2  C 0.379999999999996 36.5  5.48000000000002 41.6  11.68 41.6  Z " stroke-width="2" stroke="#dd7195" fill="none" transform="matrix(1 0 0 1 495 12804 )" mask="url(#clip623)" />
  </g>
</svg>