<?xml version="1.0" encoding="utf-8"?>
<svg version="1.1" xmlns:xlink="http://www.w3.org/1999/xlink" width="67px" height="53px" xmlns="http://www.w3.org/2000/svg">
  <defs>
    <mask fill="white" id="clip614">
      <path d="M 6.01999999999998 0.980000000000018  C 8.21999999999997 0.980000000000018  10.02 4.77999999999997  10.02 6.98000000000002  C 10.02 9.18000000000006  8.21999999999997 10.98  6.01999999999998 10.98  C 3.81999999999999 10.98  0.0199999999999818 9.18000000000006  0.0199999999999818 6.98000000000002  C 0.0199999999999818 4.77999999999997  3.81999999999999 0.980000000000018  6.01999999999998 0.980000000000018  Z " fill-rule="evenodd" />
    </mask>
  </defs>
  <g transform="matrix(1 0 0 1 -546 -13028 )">
    <path d="M 6.01999999999998 0.980000000000018  C 8.21999999999997 0.980000000000018  10.02 4.77999999999997  10.02 6.98000000000002  C 10.02 9.18000000000006  8.21999999999997 10.98  6.01999999999998 10.98  C 3.81999999999999 10.98  0.0199999999999818 9.18000000000006  0.0199999999999818 6.98000000000002  C 0.0199999999999818 4.77999999999997  3.81999999999999 0.980000000000018  6.01999999999998 0.980000000000018  Z " fill-rule="nonzero" fill="#ffffff" stroke="none" fill-opacity="0" transform="matrix(1 0 0 1 547 13029 )" />
    <path d="M 6.01999999999998 0.980000000000018  C 8.21999999999997 0.980000000000018  10.02 4.77999999999997  10.02 6.98000000000002  C 10.02 9.18000000000006  8.21999999999997 10.98  6.01999999999998 10.98  C 3.81999999999999 10.98  0.0199999999999818 9.18000000000006  0.0199999999999818 6.98000000000002  C 0.0199999999999818 4.77999999999997  3.81999999999999 0.980000000000018  6.01999999999998 0.980000000000018  Z " stroke-width="4" stroke="#476482" fill="none" transform="matrix(1 0 0 1 547 13029 )" mask="url(#clip614)" />
    <path d="M 63.42 49.08  L 5.01999999999998 5.98000000000002  " stroke-width="2" stroke="#476482" fill="none" transform="matrix(1 0 0 1 547 13029 )" mask="url(#clip614)" />
  </g>
</svg>