<?xml version="1.0" encoding="utf-8"?>
<svg version="1.1" xmlns:xlink="http://www.w3.org/1999/xlink" width="312px" height="42px" xmlns="http://www.w3.org/2000/svg">
  <defs>
    <mask fill="white" id="clip613">
      <path d="M 11.41 41.23  C 11.41 41.23  300.31 41.23  300.31 41.23  C 306.61 41.23  311.71 36.13  311.71 29.83  C 311.71 29.83  311.71 11.43  311.71 11.43  C 311.71 5.23000000000002  306.61 0.129999999999995  300.31 0.129999999999995  C 300.31 0.129999999999995  11.41 0.129999999999995  11.41 0.129999999999995  C 5.21000000000004 0.129999999999995  0.110000000000014 5.23000000000002  0.110000000000014 11.43  C 0.110000000000014 11.43  0.110000000000014 29.83  0.110000000000014 29.83  C 0.110000000000014 36.13  5.21000000000004 41.23  11.41 41.23  Z " fill-rule="evenodd" />
    </mask>
  </defs>
  <g transform="matrix(1 0 0 1 -852 -13174 )">
    <path d="M 11.41 41.23  C 11.41 41.23  300.31 41.23  300.31 41.23  C 306.61 41.23  311.71 36.13  311.71 29.83  C 311.71 29.83  311.71 11.43  311.71 11.43  C 311.71 5.23000000000002  306.61 0.129999999999995  300.31 0.129999999999995  C 300.31 0.129999999999995  11.41 0.129999999999995  11.41 0.129999999999995  C 5.21000000000004 0.129999999999995  0.110000000000014 5.23000000000002  0.110000000000014 11.43  C 0.110000000000014 11.43  0.110000000000014 29.83  0.110000000000014 29.83  C 0.110000000000014 36.13  5.21000000000004 41.23  11.41 41.23  Z " fill-rule="nonzero" fill="#2da2bf" stroke="none" transform="matrix(1 0 0 1 852 13174 )" />
    <path d="M 11.41 41.23  C 11.41 41.23  300.31 41.23  300.31 41.23  C 306.61 41.23  311.71 36.13  311.71 29.83  C 311.71 29.83  311.71 11.43  311.71 11.43  C 311.71 5.23000000000002  306.61 0.129999999999995  300.31 0.129999999999995  C 300.31 0.129999999999995  11.41 0.129999999999995  11.41 0.129999999999995  C 5.21000000000004 0.129999999999995  0.110000000000014 5.23000000000002  0.110000000000014 11.43  C 0.110000000000014 11.43  0.110000000000014 29.83  0.110000000000014 29.83  C 0.110000000000014 36.13  5.21000000000004 41.23  11.41 41.23  Z " stroke-width="2" stroke="#2da2bf" fill="none" transform="matrix(1 0 0 1 852 13174 )" mask="url(#clip613)" />
  </g>
</svg>