<?xml version="1.0" encoding="utf-8"?>
<svg version="1.1" xmlns:xlink="http://www.w3.org/1999/xlink" width="606px" height="42px" xmlns="http://www.w3.org/2000/svg">
  <defs>
    <mask fill="white" id="clip615">
      <path d="M 11.95 41.54  C 11.95 41.54  594.35 41.54  594.35 41.54  C 600.55 41.54  605.65 36.44  605.65 30.14  C 605.65 30.14  605.65 11.74  605.65 11.74  C 605.65 5.54  600.55 0.440000000000001  594.35 0.440000000000001  C 594.35 0.440000000000001  11.95 0.440000000000001  11.95 0.440000000000001  C 5.75 0.440000000000001  0.649999999999977 5.54  0.649999999999977 11.74  C 0.649999999999977 11.74  0.649999999999977 30.14  0.649999999999977 30.14  C 0.649999999999977 36.44  5.75 41.54  11.95 41.54  Z " fill-rule="evenodd" />
    </mask>
  </defs>
  <g transform="matrix(1 0 0 1 -348 -12419 )">
    <path d="M 11.95 41.54  C 11.95 41.54  594.35 41.54  594.35 41.54  C 600.55 41.54  605.65 36.44  605.65 30.14  C 605.65 30.14  605.65 11.74  605.65 11.74  C 605.65 5.54  600.55 0.440000000000001  594.35 0.440000000000001  C 594.35 0.440000000000001  11.95 0.440000000000001  11.95 0.440000000000001  C 5.75 0.440000000000001  0.649999999999977 5.54  0.649999999999977 11.74  C 0.649999999999977 11.74  0.649999999999977 30.14  0.649999999999977 30.14  C 0.649999999999977 36.44  5.75 41.54  11.95 41.54  Z " fill-rule="nonzero" fill="#527294" stroke="none" transform="matrix(1 0 0 1 348 12419 )" />
    <path d="M 11.95 41.54  C 11.95 41.54  594.35 41.54  594.35 41.54  C 600.55 41.54  605.65 36.44  605.65 30.14  C 605.65 30.14  605.65 11.74  605.65 11.74  C 605.65 5.54  600.55 0.440000000000001  594.35 0.440000000000001  C 594.35 0.440000000000001  11.95 0.440000000000001  11.95 0.440000000000001  C 5.75 0.440000000000001  0.649999999999977 5.54  0.649999999999977 11.74  C 0.649999999999977 11.74  0.649999999999977 30.14  0.649999999999977 30.14  C 0.649999999999977 36.44  5.75 41.54  11.95 41.54  Z " stroke-width="2" stroke="#527294" fill="none" transform="matrix(1 0 0 1 348 12419 )" mask="url(#clip615)" />
  </g>
</svg>