<?xml version="1.0" encoding="utf-8"?>
<svg version="1.1" xmlns:xlink="http://www.w3.org/1999/xlink" width="116px" height="30px" xmlns="http://www.w3.org/2000/svg">
  <defs>
    <mask fill="white" id="clip659">
      <path d="M 0.0399999999999636 29.89  C 0.0399999999999636 29.89  0.0399999999999636 0.689999999999998  0.0399999999999636 0.689999999999998  C 0.0399999999999636 0.689999999999998  115.54 0.689999999999998  115.54 0.689999999999998  C 115.54 0.689999999999998  115.54 29.89  115.54 29.89  C 115.54 29.89  0.0399999999999636 29.89  0.0399999999999636 29.89  Z " fill-rule="evenodd" />
    </mask>
  </defs>
  <g transform="matrix(1 0 0 1 -747 -13570 )">
    <path d="M 0.0399999999999636 29.89  C 0.0399999999999636 29.89  0.0399999999999636 0.689999999999998  0.0399999999999636 0.689999999999998  C 0.0399999999999636 0.689999999999998  115.54 0.689999999999998  115.54 0.689999999999998  C 115.54 0.689999999999998  115.54 29.89  115.54 29.89  C 115.54 29.89  0.0399999999999636 29.89  0.0399999999999636 29.89  Z " fill-rule="nonzero" fill="#f6fafc" stroke="none" transform="matrix(1 0 0 1 747 13570 )" />
    <path d="M 0.0399999999999636 29.89  C 0.0399999999999636 29.89  0.0399999999999636 0.689999999999998  0.0399999999999636 0.689999999999998  C 0.0399999999999636 0.689999999999998  115.54 0.689999999999998  115.54 0.689999999999998  C 115.54 0.689999999999998  115.54 29.89  115.54 29.89  C 115.54 29.89  0.0399999999999636 29.89  0.0399999999999636 29.89  Z " stroke-width="2" stroke="#ffffff" fill="none" transform="matrix(1 0 0 1 747 13570 )" mask="url(#clip659)" />
  </g>
</svg>