<?xml version="1.0" encoding="utf-8"?>
<svg version="1.1" xmlns:xlink="http://www.w3.org/1999/xlink" width="151px" height="31px" xmlns="http://www.w3.org/2000/svg">
  <defs>
    <mask fill="white" id="clip2031">
      <path d="M 0.939999999999941 30.09  C 0.939999999999941 30.09  0.939999999999941 0.889999999999986  0.939999999999941 0.889999999999986  C 0.939999999999941 0.889999999999986  150.44 0.889999999999986  150.44 0.889999999999986  C 150.44 0.889999999999986  150.44 30.09  150.44 30.09  C 150.44 30.09  0.939999999999941 30.09  0.939999999999941 30.09  Z " fill-rule="evenodd" />
    </mask>
  </defs>
  <g transform="matrix(1 0 0 1 -1009 -13598 )">
    <path d="M 0.939999999999941 30.09  C 0.939999999999941 30.09  0.939999999999941 0.889999999999986  0.939999999999941 0.889999999999986  C 0.939999999999941 0.889999999999986  150.44 0.889999999999986  150.44 0.889999999999986  C 150.44 0.889999999999986  150.44 30.09  150.44 30.09  C 150.44 30.09  0.939999999999941 30.09  0.939999999999941 30.09  Z " fill-rule="nonzero" fill="#cfebf6" stroke="none" transform="matrix(1 0 0 1 1009 13598 )" />
    <path d="M 0.939999999999941 30.09  C 0.939999999999941 30.09  0.939999999999941 0.889999999999986  0.939999999999941 0.889999999999986  C 0.939999999999941 0.889999999999986  150.44 0.889999999999986  150.44 0.889999999999986  C 150.44 0.889999999999986  150.44 30.09  150.44 30.09  C 150.44 30.09  0.939999999999941 30.09  0.939999999999941 30.09  Z " stroke-width="2" stroke="#ffffff" fill="none" transform="matrix(1 0 0 1 1009 13598 )" mask="url(#clip2031)" />
  </g>
</svg>