<?xml version="1.0" encoding="utf-8"?>
<svg version="1.1" xmlns:xlink="http://www.w3.org/1999/xlink" width="55px" height="76px" xmlns="http://www.w3.org/2000/svg">
  <defs>
    <mask fill="white" id="clip662">
      <path d="M 6.07000000000005 62.63  C 8.26999999999998 62.63  10.0700000000001 66.43  10.0700000000001 68.63  C 10.0700000000001 70.93  8.26999999999998 72.63  6.07000000000005 72.63  C 3.87 72.63  0.07000000000005 70.93  0.07000000000005 68.63  C 0.07000000000005 66.43  3.87 62.63  6.07000000000005 62.63  Z " fill-rule="evenodd" />
    </mask>
  </defs>
  <g transform="matrix(1 0 0 1 -538 -13644 )">
    <path d="M 6.07000000000005 62.63  C 8.26999999999998 62.63  10.0700000000001 66.43  10.0700000000001 68.63  C 10.0700000000001 70.93  8.26999999999998 72.63  6.07000000000005 72.63  C 3.87 72.63  0.07000000000005 70.93  0.07000000000005 68.63  C 0.07000000000005 66.43  3.87 62.63  6.07000000000005 62.63  Z " fill-rule="nonzero" fill="#ffffff" stroke="none" fill-opacity="0" transform="matrix(1 0 0 1 539 13645 )" />
    <path d="M 6.07000000000005 62.63  C 8.26999999999998 62.63  10.0700000000001 66.43  10.0700000000001 68.63  C 10.0700000000001 70.93  8.26999999999998 72.63  6.07000000000005 72.63  C 3.87 72.63  0.07000000000005 70.93  0.07000000000005 68.63  C 0.07000000000005 66.43  3.87 62.63  6.07000000000005 62.63  Z " stroke-width="4" stroke="#008000" fill="none" transform="matrix(1 0 0 1 539 13645 )" mask="url(#clip662)" />
    <path d="M 51.37 0.0299999999999727  L 5.07000000000005 67.63  " stroke-width="2" stroke="#008000" fill="none" transform="matrix(1 0 0 1 539 13645 )" mask="url(#clip662)" />
  </g>
</svg>