<?xml version="1.0" encoding="utf-8"?>
<svg version="1.1" xmlns:xlink="http://www.w3.org/1999/xlink" width="150px" height="31px" xmlns="http://www.w3.org/2000/svg">
  <defs>
    <mask fill="white" id="clip690">
      <path d="M 0.539999999999964 30.09  C 0.539999999999964 30.09  0.539999999999964 0.789999999999964  0.539999999999964 0.789999999999964  C 0.539999999999964 0.789999999999964  149.94 0.789999999999964  149.94 0.789999999999964  C 149.94 0.789999999999964  149.94 30.09  149.94 30.09  C 149.94 30.09  0.539999999999964 30.09  0.539999999999964 30.09  Z " fill-rule="evenodd" />
    </mask>
  </defs>
  <g transform="matrix(1 0 0 1 -861 -13824 )">
    <path d="M 0.539999999999964 30.09  C 0.539999999999964 30.09  0.539999999999964 0.789999999999964  0.539999999999964 0.789999999999964  C 0.539999999999964 0.789999999999964  149.94 0.789999999999964  149.94 0.789999999999964  C 149.94 0.789999999999964  149.94 30.09  149.94 30.09  C 149.94 30.09  0.539999999999964 30.09  0.539999999999964 30.09  Z " fill-rule="nonzero" fill="#cfebf6" stroke="none" transform="matrix(1 0 0 1 861 13824 )" />
    <path d="M 0.539999999999964 30.09  C 0.539999999999964 30.09  0.539999999999964 0.789999999999964  0.539999999999964 0.789999999999964  C 0.539999999999964 0.789999999999964  149.94 0.789999999999964  149.94 0.789999999999964  C 149.94 0.789999999999964  149.94 30.09  149.94 30.09  C 149.94 30.09  0.539999999999964 30.09  0.539999999999964 30.09  Z " stroke-width="2" stroke="#ffffff" fill="none" transform="matrix(1 0 0 1 861 13824 )" mask="url(#clip690)" />
  </g>
</svg>