<?xml version="1.0" encoding="utf-8"?>
<svg version="1.1" xmlns:xlink="http://www.w3.org/1999/xlink" width="151px" height="30px" xmlns="http://www.w3.org/2000/svg">
  <defs>
    <mask fill="white" id="clip657">
      <path d="M 0.939999999999941 29.39  C 0.939999999999941 29.39  0.939999999999941 0.0900000000000318  0.939999999999941 0.0900000000000318  C 0.939999999999941 0.0900000000000318  150.44 0.0900000000000318  150.44 0.0900000000000318  C 150.44 0.0900000000000318  150.44 29.39  150.44 29.39  C 150.44 29.39  0.939999999999941 29.39  0.939999999999941 29.39  Z " fill-rule="evenodd" />
    </mask>
  </defs>
  <g transform="matrix(1 0 0 1 -1009 -13627 )">
    <path d="M 0.939999999999941 29.39  C 0.939999999999941 29.39  0.939999999999941 0.0900000000000318  0.939999999999941 0.0900000000000318  C 0.939999999999941 0.0900000000000318  150.44 0.0900000000000318  150.44 0.0900000000000318  C 150.44 0.0900000000000318  150.44 29.39  150.44 29.39  C 150.44 29.39  0.939999999999941 29.39  0.939999999999941 29.39  Z " fill-rule="nonzero" fill="#f6fafc" stroke="none" transform="matrix(1 0 0 1 1009 13627 )" />
    <path d="M 0.939999999999941 29.39  C 0.939999999999941 29.39  0.939999999999941 0.0900000000000318  0.939999999999941 0.0900000000000318  C 0.939999999999941 0.0900000000000318  150.44 0.0900000000000318  150.44 0.0900000000000318  C 150.44 0.0900000000000318  150.44 29.39  150.44 29.39  C 150.44 29.39  0.939999999999941 29.39  0.939999999999941 29.39  Z " stroke-width="2" stroke="#ffffff" fill="none" transform="matrix(1 0 0 1 1009 13627 )" mask="url(#clip657)" />
  </g>
</svg>