<?xml version="1.0" encoding="utf-8"?>
<svg version="1.1" xmlns:xlink="http://www.w3.org/1999/xlink" width="28px" height="29px" xmlns="http://www.w3.org/2000/svg">
  <defs>
    <mask fill="white" id="clip668">
      <path d="M 20.97 0.230000000000018  C 23.17 0.230000000000018  24.97 4.02999999999997  24.97 6.23000000000002  C 24.97 8.43000000000001  23.17 10.23  20.97 10.23  C 18.77 10.23  14.97 8.43000000000001  14.97 6.23000000000002  C 14.97 4.02999999999997  18.77 0.230000000000018  20.97 0.230000000000018  Z " fill-rule="evenodd" />
    </mask>
  </defs>
  <g transform="matrix(1 0 0 1 -379 -13592 )">
    <path d="M 20.97 0.230000000000018  C 23.17 0.230000000000018  24.97 4.02999999999997  24.97 6.23000000000002  C 24.97 8.43000000000001  23.17 10.23  20.97 10.23  C 18.77 10.23  14.97 8.43000000000001  14.97 6.23000000000002  C 14.97 4.02999999999997  18.77 0.230000000000018  20.97 0.230000000000018  Z " fill-rule="nonzero" fill="#ffffff" stroke="none" fill-opacity="0" transform="matrix(1 0 0 1 380 13593 )" />
    <path d="M 20.97 0.230000000000018  C 23.17 0.230000000000018  24.97 4.02999999999997  24.97 6.23000000000002  C 24.97 8.43000000000001  23.17 10.23  20.97 10.23  C 18.77 10.23  14.97 8.43000000000001  14.97 6.23000000000002  C 14.97 4.02999999999997  18.77 0.230000000000018  20.97 0.230000000000018  Z " stroke-width="4" stroke="#008000" fill="none" transform="matrix(1 0 0 1 380 13593 )" mask="url(#clip668)" />
    <path d="M 0.170000000000016 25.03  L 19.97 5.23000000000002  " stroke-width="2" stroke="#008000" fill="none" transform="matrix(1 0 0 1 380 13593 )" mask="url(#clip668)" />
  </g>
</svg>