<?xml version="1.0" encoding="utf-8"?>
<svg version="1.1" xmlns:xlink="http://www.w3.org/1999/xlink" width="49px" height="21px" xmlns="http://www.w3.org/2000/svg">
  <defs>
    <mask fill="white" id="clip2022">
      <path d="M 41.47 0.730000000000018  C 43.67 0.730000000000018  45.47 4.52999999999997  45.47 6.73000000000002  C 45.47 8.93000000000001  43.67 10.73  41.47 10.73  C 39.27 10.73  35.47 8.93000000000001  35.47 6.73000000000002  C 35.47 4.52999999999997  39.27 0.730000000000018  41.47 0.730000000000018  Z " fill-rule="evenodd" />
    </mask>
  </defs>
  <g transform="matrix(1 0 0 1 -425 -13570 )">
    <path d="M 41.47 0.730000000000018  C 43.67 0.730000000000018  45.47 4.52999999999997  45.47 6.73000000000002  C 45.47 8.93000000000001  43.67 10.73  41.47 10.73  C 39.27 10.73  35.47 8.93000000000001  35.47 6.73000000000002  C 35.47 4.52999999999997  39.27 0.730000000000018  41.47 0.730000000000018  Z " fill-rule="nonzero" fill="#ffffff" stroke="none" fill-opacity="0" transform="matrix(1 0 0 1 426 13571 )" />
    <path d="M 41.47 0.730000000000018  C 43.67 0.730000000000018  45.47 4.52999999999997  45.47 6.73000000000002  C 45.47 8.93000000000001  43.67 10.73  41.47 10.73  C 39.27 10.73  35.47 8.93000000000001  35.47 6.73000000000002  C 35.47 4.52999999999997  39.27 0.730000000000018  41.47 0.730000000000018  Z " stroke-width="4" stroke="#008000" fill="none" transform="matrix(1 0 0 1 426 13571 )" mask="url(#clip2022)" />
    <path d="M 0.970000000000027 17.73  L 40.47 5.73000000000002  " stroke-width="2" stroke="#008000" fill="none" transform="matrix(1 0 0 1 426 13571 )" mask="url(#clip2022)" />
  </g>
</svg>