<?xml version="1.0" encoding="utf-8"?>
<svg version="1.1" xmlns:xlink="http://www.w3.org/1999/xlink" width="36px" height="19px" xmlns="http://www.w3.org/2000/svg">
  <defs>
    <mask fill="white" id="clip638">
      <path d="M 28.97 0.730000000000018  C 31.17 0.730000000000018  32.97 4.52999999999997  32.97 6.73000000000002  C 32.97 8.93000000000001  31.17 10.73  28.97 10.73  C 26.77 10.73  22.97 8.93000000000001  22.97 6.73000000000002  C 22.97 4.52999999999997  26.77 0.730000000000018  28.97 0.730000000000018  Z " fill-rule="evenodd" />
    </mask>
  </defs>
  <g transform="matrix(1 0 0 1 -398 -13582 )">
    <path d="M 28.97 0.730000000000018  C 31.17 0.730000000000018  32.97 4.52999999999997  32.97 6.73000000000002  C 32.97 8.93000000000001  31.17 10.73  28.97 10.73  C 26.77 10.73  22.97 8.93000000000001  22.97 6.73000000000002  C 22.97 4.52999999999997  26.77 0.730000000000018  28.97 0.730000000000018  Z " fill-rule="nonzero" fill="#ffffff" stroke="none" fill-opacity="0" transform="matrix(1 0 0 1 399 13583 )" />
    <path d="M 28.97 0.730000000000018  C 31.17 0.730000000000018  32.97 4.52999999999997  32.97 6.73000000000002  C 32.97 8.93000000000001  31.17 10.73  28.97 10.73  C 26.77 10.73  22.97 8.93000000000001  22.97 6.73000000000002  C 22.97 4.52999999999997  26.77 0.730000000000018  28.97 0.730000000000018  Z " stroke-width="4" stroke="#008000" fill="none" transform="matrix(1 0 0 1 399 13583 )" mask="url(#clip638)" />
    <path d="M 0.970000000000027 15.23  L 27.97 5.73000000000002  " stroke-width="2" stroke="#008000" fill="none" transform="matrix(1 0 0 1 399 13583 )" mask="url(#clip638)" />
  </g>
</svg>