<?xml version="1.0" encoding="utf-8"?>
<svg version="1.1" xmlns:xlink="http://www.w3.org/1999/xlink" width="150px" height="30px" xmlns="http://www.w3.org/2000/svg">
  <defs>
    <mask fill="white" id="clip651">
      <path d="M 0.539999999999964 29.39  C 0.539999999999964 29.39  0.539999999999964 0.0900000000000318  0.539999999999964 0.0900000000000318  C 0.539999999999964 0.0900000000000318  149.94 0.0900000000000318  149.94 0.0900000000000318  C 149.94 0.0900000000000318  149.94 29.39  149.94 29.39  C 149.94 29.39  0.539999999999964 29.39  0.539999999999964 29.39  Z " fill-rule="evenodd" />
    </mask>
  </defs>
  <g transform="matrix(1 0 0 1 -861 -13627 )">
    <path d="M 0.539999999999964 29.39  C 0.539999999999964 29.39  0.539999999999964 0.0900000000000318  0.539999999999964 0.0900000000000318  C 0.539999999999964 0.0900000000000318  149.94 0.0900000000000318  149.94 0.0900000000000318  C 149.94 0.0900000000000318  149.94 29.39  149.94 29.39  C 149.94 29.39  0.539999999999964 29.39  0.539999999999964 29.39  Z " fill-rule="nonzero" fill="#f6fafc" stroke="none" transform="matrix(1 0 0 1 861 13627 )" />
    <path d="M 0.539999999999964 29.39  C 0.539999999999964 29.39  0.539999999999964 0.0900000000000318  0.539999999999964 0.0900000000000318  C 0.539999999999964 0.0900000000000318  149.94 0.0900000000000318  149.94 0.0900000000000318  C 149.94 0.0900000000000318  149.94 29.39  149.94 29.39  C 149.94 29.39  0.539999999999964 29.39  0.539999999999964 29.39  Z " stroke-width="2" stroke="#ffffff" fill="none" transform="matrix(1 0 0 1 861 13627 )" mask="url(#clip651)" />
  </g>
</svg>