<?xml version="1.0" encoding="utf-8"?>
<svg version="1.1" xmlns:xlink="http://www.w3.org/1999/xlink" width="42px" height="38px" xmlns="http://www.w3.org/2000/svg">
  <defs>
    <mask fill="white" id="clip767">
      <path d="M 6.84999999999991 24.3  C 9.04999999999995 24.3  10.8499999999999 28.1  10.8499999999999 30.3  C 10.8499999999999 32.5  9.04999999999995 34.3  6.84999999999991 34.3  C 4.64999999999998 34.3  0.850000000000023 32.5  0.850000000000023 30.3  C 0.850000000000023 28.1  4.64999999999998 24.3  6.84999999999991 24.3  Z " fill-rule="evenodd" />
    </mask>
  </defs>
  <g transform="matrix(1 0 0 1 -673 -12663 )">
    <path d="M 6.84999999999991 24.3  C 9.04999999999995 24.3  10.8499999999999 28.1  10.8499999999999 30.3  C 10.8499999999999 32.5  9.04999999999995 34.3  6.84999999999991 34.3  C 4.64999999999998 34.3  0.850000000000023 32.5  0.850000000000023 30.3  C 0.850000000000023 28.1  4.64999999999998 24.3  6.84999999999991 24.3  Z " fill-rule="nonzero" fill="#ffffff" stroke="none" fill-opacity="0" transform="matrix(1 0 0 1 674 12664 )" />
    <path d="M 6.84999999999991 24.3  C 9.04999999999995 24.3  10.8499999999999 28.1  10.8499999999999 30.3  C 10.8499999999999 32.5  9.04999999999995 34.3  6.84999999999991 34.3  C 4.64999999999998 34.3  0.850000000000023 32.5  0.850000000000023 30.3  C 0.850000000000023 28.1  4.64999999999998 24.3  6.84999999999991 24.3  Z " stroke-width="4" stroke="#c26383" fill="none" transform="matrix(1 0 0 1 674 12664 )" mask="url(#clip767)" />
    <path d="M 38.05 0.600000000000023  L 5.84999999999991 29.3  " stroke-width="2" stroke="#c26383" fill="none" transform="matrix(1 0 0 1 674 12664 )" mask="url(#clip767)" />
  </g>
</svg>