<?xml version="1.0" encoding="utf-8"?>
<svg version="1.1" xmlns:xlink="http://www.w3.org/1999/xlink" width="58px" height="61px" xmlns="http://www.w3.org/2000/svg">
  <defs>
    <mask fill="white" id="clip647">
      <path d="M 50.47 47.13  C 52.67 47.13  54.47 50.93  54.47 53.13  C 54.47 55.33  52.67 57.13  50.47 57.13  C 48.27 57.13  44.47 55.33  44.47 53.13  C 44.47 50.93  48.27 47.13  50.47 47.13  Z " fill-rule="evenodd" />
    </mask>
  </defs>
  <g transform="matrix(1 0 0 1 -425 -13508 )">
    <path d="M 50.47 47.13  C 52.67 47.13  54.47 50.93  54.47 53.13  C 54.47 55.33  52.67 57.13  50.47 57.13  C 48.27 57.13  44.47 55.33  44.47 53.13  C 44.47 50.93  48.27 47.13  50.47 47.13  Z " fill-rule="nonzero" fill="#ffffff" stroke="none" fill-opacity="0" transform="matrix(1 0 0 1 426 13509 )" />
    <path d="M 50.47 47.13  C 52.67 47.13  54.47 50.93  54.47 53.13  C 54.47 55.33  52.67 57.13  50.47 57.13  C 48.27 57.13  44.47 55.33  44.47 53.13  C 44.47 50.93  48.27 47.13  50.47 47.13  Z " stroke-width="4" stroke="#a52a2a" fill="none" transform="matrix(1 0 0 1 426 13509 )" mask="url(#clip647)" />
    <path d="M 0.970000000000027 0.829999999999984  L 49.47 52.13  " stroke-width="2" stroke="#a52a2a" fill="none" transform="matrix(1 0 0 1 426 13509 )" mask="url(#clip647)" />
  </g>
</svg>