<?xml version="1.0" encoding="utf-8"?>
<svg version="1.1" xmlns:xlink="http://www.w3.org/1999/xlink" width="150px" height="45px" xmlns="http://www.w3.org/2000/svg">
  <defs>
    <mask fill="white" id="clip654">
      <path d="M 0.539999999999964 44.69  C 0.539999999999964 44.69  0.539999999999964 0.990000000000009  0.539999999999964 0.990000000000009  C 0.539999999999964 0.990000000000009  149.94 0.990000000000009  149.94 0.990000000000009  C 149.94 0.990000000000009  149.94 44.69  149.94 44.69  C 149.94 44.69  0.539999999999964 44.69  0.539999999999964 44.69  Z " fill-rule="evenodd" />
    </mask>
  </defs>
  <g transform="matrix(1 0 0 1 -861 -13527 )">
    <path d="M 0.539999999999964 44.69  C 0.539999999999964 44.69  0.539999999999964 0.990000000000009  0.539999999999964 0.990000000000009  C 0.539999999999964 0.990000000000009  149.94 0.990000000000009  149.94 0.990000000000009  C 149.94 0.990000000000009  149.94 44.69  149.94 44.69  C 149.94 44.69  0.539999999999964 44.69  0.539999999999964 44.69  Z " fill-rule="nonzero" fill="#93c7d7" stroke="none" transform="matrix(1 0 0 1 861 13527 )" />
    <path d="M 0.539999999999964 44.69  C 0.539999999999964 44.69  0.539999999999964 0.990000000000009  0.539999999999964 0.990000000000009  C 0.539999999999964 0.990000000000009  149.94 0.990000000000009  149.94 0.990000000000009  C 149.94 0.990000000000009  149.94 44.69  149.94 44.69  C 149.94 44.69  0.539999999999964 44.69  0.539999999999964 44.69  Z " stroke-width="2" stroke="#ffffff" fill="none" transform="matrix(1 0 0 1 861 13527 )" mask="url(#clip654)" />
  </g>
</svg>