<?xml version="1.0" encoding="utf-8"?>
<svg version="1.1" xmlns:xlink="http://www.w3.org/1999/xlink" width="14px" height="60px" xmlns="http://www.w3.org/2000/svg">
  <defs>
    <mask fill="white" id="clip2018">
      <path d="M 6.87 0.0299999999999727  C 9.06999999999999 0.0299999999999727  10.87 3.83000000000004  10.87 6.02999999999997  C 10.87 8.23000000000002  9.06999999999999 10.03  6.87 10.03  C 4.67000000000002 10.03  0.870000000000005 8.23000000000002  0.870000000000005 6.02999999999997  C 0.870000000000005 3.83000000000004  4.67000000000002 0.0299999999999727  6.87 0.0299999999999727  Z " fill-rule="evenodd" />
    </mask>
  </defs>
  <g transform="matrix(1 0 0 1 -330 -13639 )">
    <path d="M 6.87 0.0299999999999727  C 9.06999999999999 0.0299999999999727  10.87 3.83000000000004  10.87 6.02999999999997  C 10.87 8.23000000000002  9.06999999999999 10.03  6.87 10.03  C 4.67000000000002 10.03  0.870000000000005 8.23000000000002  0.870000000000005 6.02999999999997  C 0.870000000000005 3.83000000000004  4.67000000000002 0.0299999999999727  6.87 0.0299999999999727  Z " fill-rule="nonzero" fill="#ffffff" stroke="none" fill-opacity="0" transform="matrix(1 0 0 1 331 13640 )" />
    <path d="M 6.87 0.0299999999999727  C 9.06999999999999 0.0299999999999727  10.87 3.83000000000004  10.87 6.02999999999997  C 10.87 8.23000000000002  9.06999999999999 10.03  6.87 10.03  C 4.67000000000002 10.03  0.870000000000005 8.23000000000002  0.870000000000005 6.02999999999997  C 0.870000000000005 3.83000000000004  4.67000000000002 0.0299999999999727  6.87 0.0299999999999727  Z " stroke-width="4" stroke="#a52a2a" fill="none" transform="matrix(1 0 0 1 331 13640 )" mask="url(#clip2018)" />
    <path d="M 6.17000000000002 56.93  L 5.87 5.02999999999997  " stroke-width="2" stroke="#a52a2a" fill="none" transform="matrix(1 0 0 1 331 13640 )" mask="url(#clip2018)" />
  </g>
</svg>