<?xml version="1.0" encoding="utf-8"?>
<svg version="1.1" xmlns:xlink="http://www.w3.org/1999/xlink" width="29px" height="14px" xmlns="http://www.w3.org/2000/svg">
  <defs>
    <mask fill="white" id="clip674">
      <path d="M 12.17 0.790000000000077  C 14.27 0.790000000000077  17.97 4.49000000000001  17.97 6.59000000000003  C 17.97 8.69000000000005  14.27 10.39  12.17 10.39  C 10.17 10.39  8.47000000000003 8.69000000000005  8.47000000000003 6.59000000000003  C 8.47000000000003 4.49000000000001  10.17 0.790000000000077  12.17 0.790000000000077  Z " fill-rule="evenodd" />
    </mask>
  </defs>
  <g transform="matrix(1 0 0 1 -338 -13885 )">
    <path d="M 12.17 0.790000000000077  C 14.27 0.790000000000077  17.97 4.49000000000001  17.97 6.59000000000003  C 17.97 8.69000000000005  14.27 10.39  12.17 10.39  C 10.17 10.39  8.47000000000003 8.69000000000005  8.47000000000003 6.59000000000003  C 8.47000000000003 4.49000000000001  10.17 0.790000000000077  12.17 0.790000000000077  Z " fill-rule="nonzero" fill="#ffffff" stroke="none" fill-opacity="0" transform="matrix(1 0 0 1 339 13886 )" />
    <path d="M 12.17 0.790000000000077  C 14.27 0.790000000000077  17.97 4.49000000000001  17.97 6.59000000000003  C 17.97 8.69000000000005  14.27 10.39  12.17 10.39  C 10.17 10.39  8.47000000000003 8.69000000000005  8.47000000000003 6.59000000000003  C 8.47000000000003 4.49000000000001  10.17 0.790000000000077  12.17 0.790000000000077  Z " stroke-width="4" stroke="#a52a2a" fill="none" transform="matrix(1 0 0 1 339 13886 )" mask="url(#clip674)" />
    <path d="M 0.870000000000005 5.59000000000003  L 25.57 5.59000000000003  " stroke-width="2" stroke="#a52a2a" fill="none" transform="matrix(1 0 0 1 339 13886 )" mask="url(#clip674)" />
  </g>
</svg>