<?xml version="1.0" encoding="utf-8"?>
<svg version="1.1" xmlns:xlink="http://www.w3.org/1999/xlink" width="29px" height="14px" xmlns="http://www.w3.org/2000/svg">
  <defs>
    <mask fill="white" id="clip2060">
      <path d="M 11.86 0.790000000000077  C 13.96 0.790000000000077  17.66 4.49000000000001  17.66 6.59000000000003  C 17.66 8.69000000000005  13.96 10.39  11.86 10.39  C 9.86000000000001 10.39  8.16000000000003 8.69000000000005  8.16000000000003 6.59000000000003  C 8.16000000000003 4.49000000000001  9.86000000000001 0.790000000000077  11.86 0.790000000000077  Z " fill-rule="evenodd" />
    </mask>
  </defs>
  <g transform="matrix(1 0 0 1 -435 -13885 )">
    <path d="M 11.86 0.790000000000077  C 13.96 0.790000000000077  17.66 4.49000000000001  17.66 6.59000000000003  C 17.66 8.69000000000005  13.96 10.39  11.86 10.39  C 9.86000000000001 10.39  8.16000000000003 8.69000000000005  8.16000000000003 6.59000000000003  C 8.16000000000003 4.49000000000001  9.86000000000001 0.790000000000077  11.86 0.790000000000077  Z " fill-rule="nonzero" fill="#ffffff" stroke="none" fill-opacity="0" transform="matrix(1 0 0 1 436 13886 )" />
    <path d="M 11.86 0.790000000000077  C 13.96 0.790000000000077  17.66 4.49000000000001  17.66 6.59000000000003  C 17.66 8.69000000000005  13.96 10.39  11.86 10.39  C 9.86000000000001 10.39  8.16000000000003 8.69000000000005  8.16000000000003 6.59000000000003  C 8.16000000000003 4.49000000000001  9.86000000000001 0.790000000000077  11.86 0.790000000000077  Z " stroke-width="4" stroke="#008000" fill="none" transform="matrix(1 0 0 1 436 13886 )" mask="url(#clip2060)" />
    <path d="M 0.560000000000002 5.59000000000003  L 25.26 5.59000000000003  " stroke-width="2" stroke="#008000" fill="none" transform="matrix(1 0 0 1 436 13886 )" mask="url(#clip2060)" />
  </g>
</svg>