<?xml version="1.0" encoding="utf-8"?>
<svg version="1.1" xmlns:xlink="http://www.w3.org/1999/xlink" width="27px" height="52px" xmlns="http://www.w3.org/2000/svg">
  <defs>
    <mask fill="white" id="clip789">
      <path d="M 19.27 0.879999999999995  C 21.47 0.879999999999995  23.27 4.68000000000006  23.27 6.88  C 23.27 9.08000000000004  21.47 10.88  19.27 10.88  C 17.07 10.88  13.27 9.08000000000004  13.27 6.88  C 13.27 4.68000000000006  17.07 0.879999999999995  19.27 0.879999999999995  Z " fill-rule="evenodd" />
    </mask>
  </defs>
  <g transform="matrix(1 0 0 1 -237 -12985 )">
    <path d="M 19.27 0.879999999999995  C 21.47 0.879999999999995  23.27 4.68000000000006  23.27 6.88  C 23.27 9.08000000000004  21.47 10.88  19.27 10.88  C 17.07 10.88  13.27 9.08000000000004  13.27 6.88  C 13.27 4.68000000000006  17.07 0.879999999999995  19.27 0.879999999999995  Z " fill-rule="nonzero" fill="#ffffff" stroke="none" fill-opacity="0" transform="matrix(1 0 0 1 238 12986 )" />
    <path d="M 19.27 0.879999999999995  C 21.47 0.879999999999995  23.27 4.68000000000006  23.27 6.88  C 23.27 9.08000000000004  21.47 10.88  19.27 10.88  C 17.07 10.88  13.27 9.08000000000004  13.27 6.88  C 13.27 4.68000000000006  17.07 0.879999999999995  19.27 0.879999999999995  Z " stroke-width="4" stroke="#e19a00" fill="none" transform="matrix(1 0 0 1 238 12986 )" mask="url(#clip789)" />
    <path d="M 0.469999999999999 48.98  L 18.27 5.88  " stroke-width="2" stroke="#e19a00" fill="none" transform="matrix(1 0 0 1 238 12986 )" mask="url(#clip789)" />
  </g>
</svg>