<?xml version="1.0" encoding="utf-8"?>
<svg version="1.1" xmlns:xlink="http://www.w3.org/1999/xlink" width="1045px" height="43px" xmlns="http://www.w3.org/2000/svg">
  <defs>
    <mask fill="white" id="clip688">
      <path d="M 0.280000000000001 42.99  C 0.280000000000001 42.99  0.280000000000001 0.189999999999998  0.280000000000001 0.189999999999998  C 0.280000000000001 0.189999999999998  1044.78 0.189999999999998  1044.78 0.189999999999998  C 1044.78 0.189999999999998  1044.78 42.99  1044.78 42.99  C 1044.78 42.99  0.280000000000001 42.99  0.280000000000001 42.99  Z " fill-rule="evenodd" />
    </mask>
  </defs>
  <g transform="matrix(1 0 0 1 -128 -13328 )">
    <path d="M 0.280000000000001 42.99  C 0.280000000000001 42.99  0.280000000000001 0.189999999999998  0.280000000000001 0.189999999999998  C 0.280000000000001 0.189999999999998  1044.78 0.189999999999998  1044.78 0.189999999999998  C 1044.78 0.189999999999998  1044.78 42.99  1044.78 42.99  C 1044.78 42.99  0.280000000000001 42.99  0.280000000000001 42.99  Z " fill-rule="nonzero" fill="#549fb3" stroke="none" transform="matrix(1 0 0 1 128 13328 )" />
    <path d="M 0.280000000000001 42.99  C 0.280000000000001 42.99  0.280000000000001 0.189999999999998  0.280000000000001 0.189999999999998  C 0.280000000000001 0.189999999999998  1044.78 0.189999999999998  1044.78 0.189999999999998  C 1044.78 0.189999999999998  1044.78 42.99  1044.78 42.99  C 1044.78 42.99  0.280000000000001 42.99  0.280000000000001 42.99  Z " stroke-width="2" stroke="#549fb3" fill="none" transform="matrix(1 0 0 1 128 13328 )" mask="url(#clip688)" />
  </g>
</svg>