<?xml version="1.0" encoding="utf-8"?>
<svg version="1.1" xmlns:xlink="http://www.w3.org/1999/xlink" width="33px" height="66px" xmlns="http://www.w3.org/2000/svg">
  <defs>
    <mask fill="white" id="clip611">
      <path d="M 25.57 52.98  C 27.77 52.98  29.57 56.78  29.57 58.98  C 29.57 61.1800000000001  27.77 62.98  25.57 62.98  C 23.37 62.98  19.57 61.1800000000001  19.57 58.98  C 19.57 56.78  23.37 52.98  25.57 52.98  Z " fill-rule="evenodd" />
    </mask>
  </defs>
  <g transform="matrix(1 0 0 1 -355 -12976 )">
    <path d="M 25.57 52.98  C 27.77 52.98  29.57 56.78  29.57 58.98  C 29.57 61.1800000000001  27.77 62.98  25.57 62.98  C 23.37 62.98  19.57 61.1800000000001  19.57 58.98  C 19.57 56.78  23.37 52.98  25.57 52.98  Z " fill-rule="nonzero" fill="#ffffff" stroke="none" fill-opacity="0" transform="matrix(1 0 0 1 356 12977 )" />
    <path d="M 25.57 52.98  C 27.77 52.98  29.57 56.78  29.57 58.98  C 29.57 61.1800000000001  27.77 62.98  25.57 62.98  C 23.37 62.98  19.57 61.1800000000001  19.57 58.98  C 19.57 56.78  23.37 52.98  25.57 52.98  Z " stroke-width="4" stroke="#e19a00" fill="none" transform="matrix(1 0 0 1 356 12977 )" mask="url(#clip611)" />
    <path d="M 0.769999999999982 0.580000000000041  L 24.57 57.98  " stroke-width="2" stroke="#e19a00" fill="none" transform="matrix(1 0 0 1 356 12977 )" mask="url(#clip611)" />
  </g>
</svg>