<?xml version="1.0" encoding="utf-8"?>
<svg version="1.1" xmlns:xlink="http://www.w3.org/1999/xlink" width="96px" height="35px" xmlns="http://www.w3.org/2000/svg">
  <defs>
    <mask fill="white" id="clip2134">
      <path d="M 0.42999999999995 34.48  C 0.42999999999995 34.48  0.42999999999995 0.379999999999995  0.42999999999995 0.379999999999995  C 0.42999999999995 0.379999999999995  95.93 0.379999999999995  95.93 0.379999999999995  C 95.93 0.379999999999995  95.93 34.48  95.93 34.48  C 95.93 34.48  0.42999999999995 34.48  0.42999999999995 34.48  Z " fill-rule="evenodd" />
    </mask>
  </defs>
  <g transform="matrix(1 0 0 1 -955 -14526 )">
    <path d="M 0.42999999999995 34.48  C 0.42999999999995 34.48  0.42999999999995 0.379999999999995  0.42999999999995 0.379999999999995  C 0.42999999999995 0.379999999999995  95.93 0.379999999999995  95.93 0.379999999999995  C 95.93 0.379999999999995  95.93 34.48  95.93 34.48  C 95.93 34.48  0.42999999999995 34.48  0.42999999999995 34.48  Z " fill-rule="nonzero" fill="#4ba5ff" stroke="none" transform="matrix(1 0 0 1 955 14526 )" />
    <path d="M 0.42999999999995 34.48  C 0.42999999999995 34.48  0.42999999999995 0.379999999999995  0.42999999999995 0.379999999999995  C 0.42999999999995 0.379999999999995  95.93 0.379999999999995  95.93 0.379999999999995  C 95.93 0.379999999999995  95.93 34.48  95.93 34.48  C 95.93 34.48  0.42999999999995 34.48  0.42999999999995 34.48  Z " stroke-width="2" stroke="#1e90ff" fill="none" transform="matrix(1 0 0 1 955 14526 )" mask="url(#clip2134)" />
  </g>
</svg>