<?xml version="1.0" encoding="utf-8"?>
<svg version="1.1" xmlns:xlink="http://www.w3.org/1999/xlink" width="66px" height="14px" xmlns="http://www.w3.org/2000/svg">
  <defs>
    <mask fill="white" id="clip627">
      <path d="M 6.51999999999998 0.879999999999995  C 8.72000000000003 0.879999999999995  10.52 4.68000000000006  10.52 6.88  C 10.52 9.08000000000004  8.72000000000003 10.88  6.51999999999998 10.88  C 4.31999999999994 10.88  0.519999999999982 9.08000000000004  0.519999999999982 6.88  C 0.519999999999982 4.68000000000006  4.31999999999994 0.879999999999995  6.51999999999998 0.879999999999995  Z " fill-rule="evenodd" />
    </mask>
  </defs>
  <g transform="matrix(1 0 0 1 -647 -13089 )">
    <path d="M 6.51999999999998 0.879999999999995  C 8.72000000000003 0.879999999999995  10.52 4.68000000000006  10.52 6.88  C 10.52 9.08000000000004  8.72000000000003 10.88  6.51999999999998 10.88  C 4.31999999999994 10.88  0.519999999999982 9.08000000000004  0.519999999999982 6.88  C 0.519999999999982 4.68000000000006  4.31999999999994 0.879999999999995  6.51999999999998 0.879999999999995  Z " fill-rule="nonzero" fill="#ffffff" stroke="none" fill-opacity="0" transform="matrix(1 0 0 1 648 13090 )" />
    <path d="M 6.51999999999998 0.879999999999995  C 8.72000000000003 0.879999999999995  10.52 4.68000000000006  10.52 6.88  C 10.52 9.08000000000004  8.72000000000003 10.88  6.51999999999998 10.88  C 4.31999999999994 10.88  0.519999999999982 9.08000000000004  0.519999999999982 6.88  C 0.519999999999982 4.68000000000006  4.31999999999994 0.879999999999995  6.51999999999998 0.879999999999995  Z " stroke-width="4" stroke="#476482" fill="none" transform="matrix(1 0 0 1 648 13090 )" mask="url(#clip627)" />
    <path d="M 62.92 2.38  L 5.51999999999998 5.88  " stroke-width="2" stroke="#476482" fill="none" transform="matrix(1 0 0 1 648 13090 )" mask="url(#clip627)" />
  </g>
</svg>