<?xml version="1.0" encoding="utf-8"?>
<svg version="1.1" xmlns:xlink="http://www.w3.org/1999/xlink" width="22px" height="23px" xmlns="http://www.w3.org/2000/svg">
  <defs>
    <radialGradient cx="0.60000000000008" cy="1.20000000000001" r="29.2000000000001" gradientTransform="matrix(0.999999999999996 0 0 1 2.44249065417534E-15 0 )" gradientUnits="userSpaceOnUse" id="RadialGradient721">
      <stop id="Stop722" stop-color="#ffc080" offset="0" />
      <stop id="Stop723" stop-color="#ff8000" offset="1" />
    </radialGradient>
    <mask fill="white" id="clip724">
      <path d="M 11.4 0.700000000000045  C 17.1 0.700000000000045  21.7 6.30000000000007  21.7 12  C 21.7 17.7  17.1 22.3000000000001  11.4 22.3000000000001  C 5.70000000000005 22.3000000000001  0.100000000000023 17.7  0.100000000000023 12  C 0.100000000000023 6.30000000000007  5.70000000000005 0.700000000000045  11.4 0.700000000000045  Z " fill-rule="evenodd" />
    </mask>
  </defs>
  <g transform="matrix(1 0 0 1 -512 -14926 )">
    <path d="M 11.4 0.700000000000045  C 17.1 0.700000000000045  21.7 6.30000000000007  21.7 12  C 21.7 17.7  17.1 22.3000000000001  11.4 22.3000000000001  C 5.70000000000005 22.3000000000001  0.100000000000023 17.7  0.100000000000023 12  C 0.100000000000023 6.30000000000007  5.70000000000005 0.700000000000045  11.4 0.700000000000045  Z " fill-rule="nonzero" fill="url(#RadialGradient721)" stroke="none" transform="matrix(1 0 0 1 512 14926 )" />
    <path d="M 11.4 0.700000000000045  C 17.1 0.700000000000045  21.7 6.30000000000007  21.7 12  C 21.7 17.7  17.1 22.3000000000001  11.4 22.3000000000001  C 5.70000000000005 22.3000000000001  0.100000000000023 17.7  0.100000000000023 12  C 0.100000000000023 6.30000000000007  5.70000000000005 0.700000000000045  11.4 0.700000000000045  Z " stroke-width="2" stroke="#ff8000" fill="none" transform="matrix(1 0 0 1 512 14926 )" mask="url(#clip724)" />
  </g>
</svg>