<?xml version="1.0" encoding="utf-8"?>
<svg version="1.1" xmlns:xlink="http://www.w3.org/1999/xlink" width="52px" height="14px" xmlns="http://www.w3.org/2000/svg">
  <defs>
    <mask fill="white" id="clip794">
      <path d="M 44.52 0.379999999999995  C 46.72 0.379999999999995  48.52 2.18000000000006  48.52 4.38  C 48.52 6.58000000000004  46.72 10.38  44.52 10.38  C 42.3199999999999 10.38  38.52 6.58000000000004  38.52 4.38  C 38.52 2.18000000000006  42.3199999999999 0.379999999999995  44.52 0.379999999999995  Z " fill-rule="evenodd" />
    </mask>
  </defs>
  <g transform="matrix(1 0 0 1 -609 -12988 )">
    <path d="M 44.52 0.379999999999995  C 46.72 0.379999999999995  48.52 2.18000000000006  48.52 4.38  C 48.52 6.58000000000004  46.72 10.38  44.52 10.38  C 42.3199999999999 10.38  38.52 6.58000000000004  38.52 4.38  C 38.52 2.18000000000006  42.3199999999999 0.379999999999995  44.52 0.379999999999995  Z " fill-rule="nonzero" fill="#ffffff" stroke="none" fill-opacity="0" transform="matrix(1 0 0 1 610 12989 )" />
    <path d="M 44.52 0.379999999999995  C 46.72 0.379999999999995  48.52 2.18000000000006  48.52 4.38  C 48.52 6.58000000000004  46.72 10.38  44.52 10.38  C 42.3199999999999 10.38  38.52 6.58000000000004  38.52 4.38  C 38.52 2.18000000000006  42.3199999999999 0.379999999999995  44.52 0.379999999999995  Z " stroke-width="4" stroke="#476482" fill="none" transform="matrix(1 0 0 1 610 12989 )" mask="url(#clip794)" />
    <path d="M 0.419999999999959 2.88  L 43.52 5.38  " stroke-width="2" stroke="#476482" fill="none" transform="matrix(1 0 0 1 610 12989 )" mask="url(#clip794)" />
  </g>
</svg>