<?xml version="1.0" encoding="utf-8"?>
<svg version="1.1" xmlns:xlink="http://www.w3.org/1999/xlink" width="61px" height="38px" xmlns="http://www.w3.org/2000/svg">
  <defs>
    <mask fill="white" id="clip637">
      <path d="M 6.42000000000007 24.6800000000001  C 8.62 24.6800000000001  10.4200000000001 28.48  10.4200000000001 30.6800000000001  C 10.4200000000001 32.88  8.62 34.6800000000001  6.42000000000007 34.6800000000001  C 4.22000000000003 34.6800000000001  0.420000000000073 32.88  0.420000000000073 30.6800000000001  C 0.420000000000073 28.48  4.22000000000003 24.6800000000001  6.42000000000007 24.6800000000001  Z " fill-rule="evenodd" />
    </mask>
  </defs>
  <g transform="matrix(1 0 0 1 -1033 -13033 )">
    <path d="M 6.42000000000007 24.6800000000001  C 8.62 24.6800000000001  10.4200000000001 28.48  10.4200000000001 30.6800000000001  C 10.4200000000001 32.88  8.62 34.6800000000001  6.42000000000007 34.6800000000001  C 4.22000000000003 34.6800000000001  0.420000000000073 32.88  0.420000000000073 30.6800000000001  C 0.420000000000073 28.48  4.22000000000003 24.6800000000001  6.42000000000007 24.6800000000001  Z " fill-rule="nonzero" fill="#ffffff" stroke="none" fill-opacity="0" transform="matrix(1 0 0 1 1034 13034 )" />
    <path d="M 6.42000000000007 24.6800000000001  C 8.62 24.6800000000001  10.4200000000001 28.48  10.4200000000001 30.6800000000001  C 10.4200000000001 32.88  8.62 34.6800000000001  6.42000000000007 34.6800000000001  C 4.22000000000003 34.6800000000001  0.420000000000073 32.88  0.420000000000073 30.6800000000001  C 0.420000000000073 28.48  4.22000000000003 24.6800000000001  6.42000000000007 24.6800000000001  Z " stroke-width="4" stroke="#268ea8" fill="none" transform="matrix(1 0 0 1 1034 13034 )" mask="url(#clip637)" />
    <path d="M 57.9200000000001 0.980000000000018  L 5.42000000000007 29.6800000000001  " stroke-width="2" stroke="#268ea8" fill="none" transform="matrix(1 0 0 1 1034 13034 )" mask="url(#clip637)" />
  </g>
</svg>