<?xml version="1.0" encoding="utf-8"?>
<svg version="1.1" xmlns:xlink="http://www.w3.org/1999/xlink" width="14px" height="60px" xmlns="http://www.w3.org/2000/svg">
  <defs>
    <mask fill="white" id="clip825">
      <path d="M 6.17000000000002 0.329999999999984  C 8.37 0.329999999999984  10.17 4.13  10.17 6.32999999999998  C 10.17 8.52999999999997  8.37 10.33  6.17000000000002 10.33  C 3.97 10.33  0.170000000000016 8.52999999999997  0.170000000000016 6.32999999999998  C 0.170000000000016 4.13  3.97 0.329999999999984  6.17000000000002 0.329999999999984  Z " fill-rule="evenodd" />
    </mask>
  </defs>
  <g transform="matrix(1 0 0 1 -333 -13588 )">
    <path d="M 6.17000000000002 0.329999999999984  C 8.37 0.329999999999984  10.17 4.13  10.17 6.32999999999998  C 10.17 8.52999999999997  8.37 10.33  6.17000000000002 10.33  C 3.97 10.33  0.170000000000016 8.52999999999997  0.170000000000016 6.32999999999998  C 0.170000000000016 4.13  3.97 0.329999999999984  6.17000000000002 0.329999999999984  Z " fill-rule="nonzero" fill="#ffffff" stroke="none" fill-opacity="0" transform="matrix(1 0 0 1 334 13589 )" />
    <path d="M 6.17000000000002 0.329999999999984  C 8.37 0.329999999999984  10.17 4.13  10.17 6.32999999999998  C 10.17 8.52999999999997  8.37 10.33  6.17000000000002 10.33  C 3.97 10.33  0.170000000000016 8.52999999999997  0.170000000000016 6.32999999999998  C 0.170000000000016 4.13  3.97 0.329999999999984  6.17000000000002 0.329999999999984  Z " stroke-width="4" stroke="#a52a2a" fill="none" transform="matrix(1 0 0 1 334 13589 )" mask="url(#clip825)" />
    <path d="M 2.87 56.03  L 5.17000000000002 5.32999999999998  " stroke-width="2" stroke="#a52a2a" fill="none" transform="matrix(1 0 0 1 334 13589 )" mask="url(#clip825)" />
  </g>
</svg>