<?xml version="1.0" encoding="utf-8"?>
<svg version="1.1" xmlns:xlink="http://www.w3.org/1999/xlink" width="32px" height="33px" xmlns="http://www.w3.org/2000/svg">
  <defs>
    <mask fill="white" id="clip811">
      <path d="M 15.48 0.990000000000009  C 23.88 0.990000000000009  31.68 7.78999999999996  31.68 16.09  C 31.68 24.49  23.88 32.29  15.48 32.29  C 7.18000000000001 32.29  0.379999999999995 24.49  0.379999999999995 16.09  C 0.379999999999995 7.78999999999996  7.18000000000001 0.990000000000009  15.48 0.990000000000009  Z " fill-rule="evenodd" />
    </mask>
  </defs>
  <g transform="matrix(1 0 0 1 -377 -15633 )">
    <path d="M 15.48 0.990000000000009  C 23.88 0.990000000000009  31.68 7.78999999999996  31.68 16.09  C 31.68 24.49  23.88 32.29  15.48 32.29  C 7.18000000000001 32.29  0.379999999999995 24.49  0.379999999999995 16.09  C 0.379999999999995 7.78999999999996  7.18000000000001 0.990000000000009  15.48 0.990000000000009  Z " fill-rule="nonzero" fill="#ffb539" stroke="none" transform="matrix(1 0 0 1 377 15633 )" />
    <path d="M 15.48 0.990000000000009  C 23.88 0.990000000000009  31.68 7.78999999999996  31.68 16.09  C 31.68 24.49  23.88 32.29  15.48 32.29  C 7.18000000000001 32.29  0.379999999999995 24.49  0.379999999999995 16.09  C 0.379999999999995 7.78999999999996  7.18000000000001 0.990000000000009  15.48 0.990000000000009  Z " stroke-width="2" stroke="#ffb539" fill="none" transform="matrix(1 0 0 1 377 15633 )" mask="url(#clip811)" />
  </g>
</svg>