<?xml version="1.0" encoding="utf-8"?>
<svg version="1.1" xmlns:xlink="http://www.w3.org/1999/xlink" width="62px" height="62px" xmlns="http://www.w3.org/2000/svg">
  <defs>
    <mask fill="white" id="clip809">
      <path d="M 31.61 0.909999999999968  C 48.21 0.909999999999968  61.61 15.3099999999999  61.61 31.91  C 61.61 48.51  48.21 61.91  31.61 61.91  C 15.01 61.91  0.610000000000014 48.51  0.610000000000014 31.91  C 0.610000000000014 15.3099999999999  15.01 0.909999999999968  31.61 0.909999999999968  Z " fill-rule="evenodd" />
    </mask>
  </defs>
  <g transform="matrix(1 0 0 1 -319 -15628 )">
    <path d="M 31.61 0.909999999999968  C 48.21 0.909999999999968  61.61 15.3099999999999  61.61 31.91  C 61.61 48.51  48.21 61.91  31.61 61.91  C 15.01 61.91  0.610000000000014 48.51  0.610000000000014 31.91  C 0.610000000000014 15.3099999999999  15.01 0.909999999999968  31.61 0.909999999999968  Z " fill-rule="nonzero" fill="#8ae0ae" stroke="none" transform="matrix(1 0 0 1 319 15628 )" />
    <path d="M 31.61 0.909999999999968  C 48.21 0.909999999999968  61.61 15.3099999999999  61.61 31.91  C 61.61 48.51  48.21 61.91  31.61 61.91  C 15.01 61.91  0.610000000000014 48.51  0.610000000000014 31.91  C 0.610000000000014 15.3099999999999  15.01 0.909999999999968  31.61 0.909999999999968  Z " stroke-width="2" stroke="#8ae0ae" fill="none" transform="matrix(1 0 0 1 319 15628 )" mask="url(#clip809)" />
  </g>
</svg>