<?xml version="1.0" encoding="utf-8"?>
<svg version="1.1" xmlns:xlink="http://www.w3.org/1999/xlink" width="30px" height="48px" xmlns="http://www.w3.org/2000/svg">
  <defs>
    <mask fill="white" id="clip645">
      <path d="M 6.06999999999999 34.03  C 8.26999999999998 34.03  10.07 37.83  10.07 40.03  C 10.07 42.23  8.26999999999998 44.03  6.06999999999999 44.03  C 3.87 44.03  0.0699999999999932 42.23  0.0699999999999932 40.03  C 0.0699999999999932 37.83  3.87 34.03  6.06999999999999 34.03  Z " fill-rule="evenodd" />
    </mask>
  </defs>
  <g transform="matrix(1 0 0 1 -466 -13605 )">
    <path d="M 6.06999999999999 34.03  C 8.26999999999998 34.03  10.07 37.83  10.07 40.03  C 10.07 42.23  8.26999999999998 44.03  6.06999999999999 44.03  C 3.87 44.03  0.0699999999999932 42.23  0.0699999999999932 40.03  C 0.0699999999999932 37.83  3.87 34.03  6.06999999999999 34.03  Z " fill-rule="nonzero" fill="#ffffff" stroke="none" fill-opacity="0" transform="matrix(1 0 0 1 467 13606 )" />
    <path d="M 6.06999999999999 34.03  C 8.26999999999998 34.03  10.07 37.83  10.07 40.03  C 10.07 42.23  8.26999999999998 44.03  6.06999999999999 44.03  C 3.87 44.03  0.0699999999999932 42.23  0.0699999999999932 40.03  C 0.0699999999999932 37.83  3.87 34.03  6.06999999999999 34.03  Z " stroke-width="4" stroke="#a52a2a" fill="none" transform="matrix(1 0 0 1 467 13606 )" mask="url(#clip645)" />
    <path d="M 26.37 0.730000000000018  L 5.06999999999999 39.03  " stroke-width="2" stroke="#a52a2a" fill="none" transform="matrix(1 0 0 1 467 13606 )" mask="url(#clip645)" />
  </g>
</svg>