<?xml version="1.0" encoding="utf-8"?>
<svg version="1.1" xmlns:xlink="http://www.w3.org/1999/xlink" width="71px" height="48px" xmlns="http://www.w3.org/2000/svg">
  <defs>
    <mask fill="white" id="clip648">
      <path d="M 6.97000000000003 34.53  C 9.16999999999996 34.53  10.97 38.33  10.97 40.53  C 10.97 42.73  9.16999999999996 44.53  6.97000000000003 44.53  C 4.76999999999998 44.53  0.970000000000027 42.73  0.970000000000027 40.53  C 0.970000000000027 38.33  4.76999999999998 34.53  6.97000000000003 34.53  Z " fill-rule="evenodd" />
    </mask>
  </defs>
  <g transform="matrix(1 0 0 1 -420 -13751 )">
    <path d="M 6.97000000000003 34.53  C 9.16999999999996 34.53  10.97 38.33  10.97 40.53  C 10.97 42.73  9.16999999999996 44.53  6.97000000000003 44.53  C 4.76999999999998 44.53  0.970000000000027 42.73  0.970000000000027 40.53  C 0.970000000000027 38.33  4.76999999999998 34.53  6.97000000000003 34.53  Z " fill-rule="nonzero" fill="#ffffff" stroke="none" fill-opacity="0" transform="matrix(1 0 0 1 421 13752 )" />
    <path d="M 6.97000000000003 34.53  C 9.16999999999996 34.53  10.97 38.33  10.97 40.53  C 10.97 42.73  9.16999999999996 44.53  6.97000000000003 44.53  C 4.76999999999998 44.53  0.970000000000027 42.73  0.970000000000027 40.53  C 0.970000000000027 38.33  4.76999999999998 34.53  6.97000000000003 34.53  Z " stroke-width="4" stroke="#a52a2a" fill="none" transform="matrix(1 0 0 1 421 13752 )" mask="url(#clip648)" />
    <path d="M 67.97 0.42999999999995  L 5.97000000000003 39.53  " stroke-width="2" stroke="#a52a2a" fill="none" transform="matrix(1 0 0 1 421 13752 )" mask="url(#clip648)" />
  </g>
</svg>