<?xml version="1.0" encoding="utf-8"?>
<svg version="1.1" xmlns:xlink="http://www.w3.org/1999/xlink" width="40px" height="39px" xmlns="http://www.w3.org/2000/svg">
  <defs>
    <mask fill="white" id="clip837">
      <path d="M 20.61 0.269999999999982  C 31.01 0.269999999999982  39.41 9.66999999999996  39.41 20.17  C 39.41 30.5699999999999  31.01 38.97  20.61 38.97  C 10.11 38.97  0.70999999999998 30.5699999999999  0.70999999999998 20.17  C 0.70999999999998 9.66999999999996  10.11 0.269999999999982  20.61 0.269999999999982  Z " fill-rule="evenodd" />
    </mask>
  </defs>
  <g transform="matrix(1 0 0 1 -516 -15630 )">
    <path d="M 20.61 0.269999999999982  C 31.01 0.269999999999982  39.41 9.66999999999996  39.41 20.17  C 39.41 30.5699999999999  31.01 38.97  20.61 38.97  C 10.11 38.97  0.70999999999998 30.5699999999999  0.70999999999998 20.17  C 0.70999999999998 9.66999999999996  10.11 0.269999999999982  20.61 0.269999999999982  Z " fill-rule="nonzero" fill="#ec574a" stroke="none" transform="matrix(1 0 0 1 516 15630 )" />
    <path d="M 20.61 0.269999999999982  C 31.01 0.269999999999982  39.41 9.66999999999996  39.41 20.17  C 39.41 30.5699999999999  31.01 38.97  20.61 38.97  C 10.11 38.97  0.70999999999998 30.5699999999999  0.70999999999998 20.17  C 0.70999999999998 9.66999999999996  10.11 0.269999999999982  20.61 0.269999999999982  Z " stroke-width="2" stroke="#ee5a5d" fill="none" transform="matrix(1 0 0 1 516 15630 )" mask="url(#clip837)" />
  </g>
</svg>