<?xml version="1.0" encoding="utf-8"?>
<svg version="1.1" xmlns:xlink="http://www.w3.org/1999/xlink" width="62px" height="62px" xmlns="http://www.w3.org/2000/svg">
  <defs>
    <mask fill="white" id="clip830">
      <path d="M 31.61 0.889999999999986  C 48.21 0.889999999999986  61.61 15.29  61.61 31.89  C 61.61 48.49  48.21 61.89  31.61 61.89  C 15.01 61.89  0.610000000000014 48.49  0.610000000000014 31.89  C 0.610000000000014 15.29  15.01 0.889999999999986  31.61 0.889999999999986  Z " fill-rule="evenodd" />
    </mask>
  </defs>
  <g transform="matrix(1 0 0 1 -319 -15540 )">
    <path d="M 31.61 0.889999999999986  C 48.21 0.889999999999986  61.61 15.29  61.61 31.89  C 61.61 48.49  48.21 61.89  31.61 61.89  C 15.01 61.89  0.610000000000014 48.49  0.610000000000014 31.89  C 0.610000000000014 15.29  15.01 0.889999999999986  31.61 0.889999999999986  Z " fill-rule="nonzero" fill="#1e6183" stroke="none" transform="matrix(1 0 0 1 319 15540 )" />
    <path d="M 31.61 0.889999999999986  C 48.21 0.889999999999986  61.61 15.29  61.61 31.89  C 61.61 48.49  48.21 61.89  31.61 61.89  C 15.01 61.89  0.610000000000014 48.49  0.610000000000014 31.89  C 0.610000000000014 15.29  15.01 0.889999999999986  31.61 0.889999999999986  Z " stroke-width="2" stroke="#1d6183" fill="none" transform="matrix(1 0 0 1 319 15540 )" mask="url(#clip830)" />
  </g>
</svg>