<?xml version="1.0" encoding="utf-8"?>
<svg version="1.1" xmlns:xlink="http://www.w3.org/1999/xlink" width="93px" height="18px" xmlns="http://www.w3.org/2000/svg">
  <defs>
    <mask fill="white" id="clip660">
      <path d="M 6.76999999999998 0.629999999999995  C 8.97000000000003 0.629999999999995  10.77 4.43000000000001  10.77 6.63  C 10.77 8.83000000000004  8.97000000000003 10.63  6.76999999999998 10.63  C 4.56999999999999 10.63  0.769999999999982 8.83000000000004  0.769999999999982 6.63  C 0.769999999999982 4.43000000000001  4.56999999999999 0.629999999999995  6.76999999999998 0.629999999999995  Z " fill-rule="evenodd" />
    </mask>
  </defs>
  <g transform="matrix(1 0 0 1 -454 -13697 )">
    <path d="M 6.76999999999998 0.629999999999995  C 8.97000000000003 0.629999999999995  10.77 4.43000000000001  10.77 6.63  C 10.77 8.83000000000004  8.97000000000003 10.63  6.76999999999998 10.63  C 4.56999999999999 10.63  0.769999999999982 8.83000000000004  0.769999999999982 6.63  C 0.769999999999982 4.43000000000001  4.56999999999999 0.629999999999995  6.76999999999998 0.629999999999995  Z " fill-rule="nonzero" fill="#ffffff" stroke="none" fill-opacity="0" transform="matrix(1 0 0 1 455 13698 )" />
    <path d="M 6.76999999999998 0.629999999999995  C 8.97000000000003 0.629999999999995  10.77 4.43000000000001  10.77 6.63  C 10.77 8.83000000000004  8.97000000000003 10.63  6.76999999999998 10.63  C 4.56999999999999 10.63  0.769999999999982 8.83000000000004  0.769999999999982 6.63  C 0.769999999999982 4.43000000000001  4.56999999999999 0.629999999999995  6.76999999999998 0.629999999999995  Z " stroke-width="4" stroke="#008000" fill="none" transform="matrix(1 0 0 1 455 13698 )" mask="url(#clip660)" />
    <path d="M 89.0700000000001 14.63  L 5.76999999999998 5.63  " stroke-width="2" stroke="#008000" fill="none" transform="matrix(1 0 0 1 455 13698 )" mask="url(#clip660)" />
  </g>
</svg>