<?xml version="1.0" encoding="utf-8"?>
<svg version="1.1" xmlns:xlink="http://www.w3.org/1999/xlink" width="150px" height="30px" xmlns="http://www.w3.org/2000/svg">
  <defs>
    <mask fill="white" id="clip845">
      <path d="M 0.539999999999964 29.59  C 0.539999999999964 29.59  0.539999999999964 0.389999999999986  0.539999999999964 0.389999999999986  C 0.539999999999964 0.389999999999986  149.94 0.389999999999986  149.94 0.389999999999986  C 149.94 0.389999999999986  149.94 29.59  149.94 29.59  C 149.94 29.59  0.539999999999964 29.59  0.539999999999964 29.59  Z " fill-rule="evenodd" />
    </mask>
  </defs>
  <g transform="matrix(1 0 0 1 -861 -13655 )">
    <path d="M 0.539999999999964 29.59  C 0.539999999999964 29.59  0.539999999999964 0.389999999999986  0.539999999999964 0.389999999999986  C 0.539999999999964 0.389999999999986  149.94 0.389999999999986  149.94 0.389999999999986  C 149.94 0.389999999999986  149.94 29.59  149.94 29.59  C 149.94 29.59  0.539999999999964 29.59  0.539999999999964 29.59  Z " fill-rule="nonzero" fill="#cfebf6" stroke="none" transform="matrix(1 0 0 1 861 13655 )" />
    <path d="M 0.539999999999964 29.59  C 0.539999999999964 29.59  0.539999999999964 0.389999999999986  0.539999999999964 0.389999999999986  C 0.539999999999964 0.389999999999986  149.94 0.389999999999986  149.94 0.389999999999986  C 149.94 0.389999999999986  149.94 29.59  149.94 29.59  C 149.94 29.59  0.539999999999964 29.59  0.539999999999964 29.59  Z " stroke-width="2" stroke="#ffffff" fill="none" transform="matrix(1 0 0 1 861 13655 )" mask="url(#clip845)" />
  </g>
</svg>