<?xml version="1.0" encoding="utf-8"?>
<svg version="1.1" xmlns:xlink="http://www.w3.org/1999/xlink" width="116px" height="30px" xmlns="http://www.w3.org/2000/svg">
  <defs>
    <mask fill="white" id="clip699">
      <path d="M 0.0399999999999636 29.59  C 0.0399999999999636 29.59  0.0399999999999636 0.289999999999964  0.0399999999999636 0.289999999999964  C 0.0399999999999636 0.289999999999964  115.54 0.289999999999964  115.54 0.289999999999964  C 115.54 0.289999999999964  115.54 29.59  115.54 29.59  C 115.54 29.59  0.0399999999999636 29.59  0.0399999999999636 29.59  Z " fill-rule="evenodd" />
    </mask>
  </defs>
  <g transform="matrix(1 0 0 1 -747 -13881 )">
    <path d="M 0.0399999999999636 29.59  C 0.0399999999999636 29.59  0.0399999999999636 0.289999999999964  0.0399999999999636 0.289999999999964  C 0.0399999999999636 0.289999999999964  115.54 0.289999999999964  115.54 0.289999999999964  C 115.54 0.289999999999964  115.54 29.59  115.54 29.59  C 115.54 29.59  0.0399999999999636 29.59  0.0399999999999636 29.59  Z " fill-rule="nonzero" fill="#cfebf6" stroke="none" transform="matrix(1 0 0 1 747 13881 )" />
    <path d="M 0.0399999999999636 29.59  C 0.0399999999999636 29.59  0.0399999999999636 0.289999999999964  0.0399999999999636 0.289999999999964  C 0.0399999999999636 0.289999999999964  115.54 0.289999999999964  115.54 0.289999999999964  C 115.54 0.289999999999964  115.54 29.59  115.54 29.59  C 115.54 29.59  0.0399999999999636 29.59  0.0399999999999636 29.59  Z " stroke-width="2" stroke="#ffffff" fill="none" transform="matrix(1 0 0 1 747 13881 )" mask="url(#clip699)" />
  </g>
</svg>