<?xml version="1.0" encoding="utf-8"?>
<svg version="1.1" xmlns:xlink="http://www.w3.org/1999/xlink" width="47px" height="48px" xmlns="http://www.w3.org/2000/svg">
  <defs>
    <mask fill="white" id="clip820">
      <path d="M 24.2 0.960000000000036  C 36.6 0.960000000000036  46.7 12.0600000000001  46.7 24.5600000000001  C 46.7 36.96  36.6 47.0600000000001  24.2 47.0600000000001  C 11.7 47.0600000000001  0.600000000000023 36.96  0.600000000000023 24.5600000000001  C 0.600000000000023 12.0600000000001  11.7 0.960000000000036  24.2 0.960000000000036  Z " fill-rule="evenodd" />
    </mask>
  </defs>
  <g transform="matrix(1 0 0 1 -541 -15430 )">
    <path d="M 24.2 0.960000000000036  C 36.6 0.960000000000036  46.7 12.0600000000001  46.7 24.5600000000001  C 46.7 36.96  36.6 47.0600000000001  24.2 47.0600000000001  C 11.7 47.0600000000001  0.600000000000023 36.96  0.600000000000023 24.5600000000001  C 0.600000000000023 12.0600000000001  11.7 0.960000000000036  24.2 0.960000000000036  Z " fill-rule="nonzero" fill="#ffb539" stroke="none" transform="matrix(1 0 0 1 541 15430 )" />
    <path d="M 24.2 0.960000000000036  C 36.6 0.960000000000036  46.7 12.0600000000001  46.7 24.5600000000001  C 46.7 36.96  36.6 47.0600000000001  24.2 47.0600000000001  C 11.7 47.0600000000001  0.600000000000023 36.96  0.600000000000023 24.5600000000001  C 0.600000000000023 12.0600000000001  11.7 0.960000000000036  24.2 0.960000000000036  Z " stroke-width="2" stroke="#ffb539" fill="none" transform="matrix(1 0 0 1 541 15430 )" mask="url(#clip820)" />
  </g>
</svg>