<?xml version="1.0" encoding="utf-8"?>
<svg version="1.1" xmlns:xlink="http://www.w3.org/1999/xlink" width="151px" height="30px" xmlns="http://www.w3.org/2000/svg">
  <defs>
    <mask fill="white" id="clip846">
      <path d="M 0.939999999999941 29.59  C 0.939999999999941 29.59  0.939999999999941 0.389999999999986  0.939999999999941 0.389999999999986  C 0.939999999999941 0.389999999999986  150.44 0.389999999999986  150.44 0.389999999999986  C 150.44 0.389999999999986  150.44 29.59  150.44 29.59  C 150.44 29.59  0.939999999999941 29.59  0.939999999999941 29.59  Z " fill-rule="evenodd" />
    </mask>
  </defs>
  <g transform="matrix(1 0 0 1 -1009 -13655 )">
    <path d="M 0.939999999999941 29.59  C 0.939999999999941 29.59  0.939999999999941 0.389999999999986  0.939999999999941 0.389999999999986  C 0.939999999999941 0.389999999999986  150.44 0.389999999999986  150.44 0.389999999999986  C 150.44 0.389999999999986  150.44 29.59  150.44 29.59  C 150.44 29.59  0.939999999999941 29.59  0.939999999999941 29.59  Z " fill-rule="nonzero" fill="#cfebf6" stroke="none" transform="matrix(1 0 0 1 1009 13655 )" />
    <path d="M 0.939999999999941 29.59  C 0.939999999999941 29.59  0.939999999999941 0.389999999999986  0.939999999999941 0.389999999999986  C 0.939999999999941 0.389999999999986  150.44 0.389999999999986  150.44 0.389999999999986  C 150.44 0.389999999999986  150.44 29.59  150.44 29.59  C 150.44 29.59  0.939999999999941 29.59  0.939999999999941 29.59  Z " stroke-width="2" stroke="#ffffff" fill="none" transform="matrix(1 0 0 1 1009 13655 )" mask="url(#clip846)" />
  </g>
</svg>