<?xml version="1.0" encoding="utf-8"?>
<svg version="1.1" xmlns:xlink="http://www.w3.org/1999/xlink" width="71px" height="71px" xmlns="http://www.w3.org/2000/svg">
  <defs>
    <radialGradient cx="1.15999999999999" cy="0.919999999999955" r="97.2000000000001" gradientTransform="matrix(0.999999999999999 0 0 1 6.66133814775094E-16 0 )" gradientUnits="userSpaceOnUse" id="RadialGradient709">
      <stop id="Stop710" stop-color="#ffb1a3" offset="0" />
      <stop id="Stop711" stop-color="#ff6347" offset="1" />
    </radialGradient>
    <mask fill="white" id="clip712">
      <path d="M 36.0599999999999 0.419999999999959  C 54.96 0.419999999999959  70.36 16.8199999999999  70.36 35.8199999999999  C 70.36 54.7199999999999  54.96 70.12  36.0599999999999 70.12  C 17.0599999999999 70.12  0.659999999999968 54.7199999999999  0.659999999999968 35.8199999999999  C 0.659999999999968 16.8199999999999  17.0599999999999 0.419999999999959  36.0599999999999 0.419999999999959  Z " fill-rule="evenodd" />
    </mask>
  </defs>
  <g transform="matrix(1 0 0 1 -535 -14799 )">
    <path d="M 36.0599999999999 0.419999999999959  C 54.96 0.419999999999959  70.36 16.8199999999999  70.36 35.8199999999999  C 70.36 54.7199999999999  54.96 70.12  36.0599999999999 70.12  C 17.0599999999999 70.12  0.659999999999968 54.7199999999999  0.659999999999968 35.8199999999999  C 0.659999999999968 16.8199999999999  17.0599999999999 0.419999999999959  36.0599999999999 0.419999999999959  Z " fill-rule="nonzero" fill="url(#RadialGradient709)" stroke="none" transform="matrix(1 0 0 1 535 14799 )" />
    <path d="M 36.0599999999999 0.419999999999959  C 54.96 0.419999999999959  70.36 16.8199999999999  70.36 35.8199999999999  C 70.36 54.7199999999999  54.96 70.12  36.0599999999999 70.12  C 17.0599999999999 70.12  0.659999999999968 54.7199999999999  0.659999999999968 35.8199999999999  C 0.659999999999968 16.8199999999999  17.0599999999999 0.419999999999959  36.0599999999999 0.419999999999959  Z " stroke-width="2" stroke="#ff6347" fill="none" transform="matrix(1 0 0 1 535 14799 )" mask="url(#clip712)" />
  </g>
</svg>