<?xml version="1.0" encoding="utf-8"?>
<svg version="1.1" xmlns:xlink="http://www.w3.org/1999/xlink" width="96px" height="36px" xmlns="http://www.w3.org/2000/svg">
  <defs>
    <mask fill="white" id="clip765">
      <path d="M 0.42999999999995 35.7  C 0.42999999999995 35.7  0.42999999999995 0.199999999999989  0.42999999999995 0.199999999999989  C 0.42999999999995 0.199999999999989  95.93 0.199999999999989  95.93 0.199999999999989  C 95.93 0.199999999999989  95.93 35.7  95.93 35.7  C 95.93 35.7  0.42999999999995 35.7  0.42999999999995 35.7  Z " fill-rule="evenodd" />
    </mask>
  </defs>
  <g transform="matrix(1 0 0 1 -955 -14470 )">
    <path d="M 0.42999999999995 35.7  C 0.42999999999995 35.7  0.42999999999995 0.199999999999989  0.42999999999995 0.199999999999989  C 0.42999999999995 0.199999999999989  95.93 0.199999999999989  95.93 0.199999999999989  C 95.93 0.199999999999989  95.93 35.7  95.93 35.7  C 95.93 35.7  0.42999999999995 35.7  0.42999999999995 35.7  Z " fill-rule="nonzero" fill="#a5d3ff" stroke="none" transform="matrix(1 0 0 1 955 14470 )" />
    <path d="M 0.42999999999995 35.7  C 0.42999999999995 35.7  0.42999999999995 0.199999999999989  0.42999999999995 0.199999999999989  C 0.42999999999995 0.199999999999989  95.93 0.199999999999989  95.93 0.199999999999989  C 95.93 0.199999999999989  95.93 35.7  95.93 35.7  C 95.93 35.7  0.42999999999995 35.7  0.42999999999995 35.7  Z " stroke-width="2" stroke="#78bcff" fill="none" transform="matrix(1 0 0 1 955 14470 )" mask="url(#clip765)" />
  </g>
</svg>