<?xml version="1.0" encoding="utf-8"?>
<svg version="1.1" xmlns:xlink="http://www.w3.org/1999/xlink" width="34px" height="158px" xmlns="http://www.w3.org/2000/svg">
  <defs>
    <mask fill="white" id="clip836">
      <path d="M 0.0799999999999841 157.27  C 0.0799999999999841 157.27  0.0799999999999841 0.77000000000001  0.0799999999999841 0.77000000000001  C 0.0799999999999841 0.77000000000001  33.08 0.77000000000001  33.08 0.77000000000001  C 33.08 0.77000000000001  33.08 157.27  33.08 157.27  C 33.08 157.27  0.0799999999999841 157.27  0.0799999999999841 157.27  Z " fill-rule="evenodd" />
    </mask>
  </defs>
  <g transform="matrix(1 0 0 1 -333 -16361 )">
    <path d="M 0.0799999999999841 157.27  C 0.0799999999999841 157.27  0.0799999999999841 0.77000000000001  0.0799999999999841 0.77000000000001  C 0.0799999999999841 0.77000000000001  33.08 0.77000000000001  33.08 0.77000000000001  C 33.08 0.77000000000001  33.08 157.27  33.08 157.27  C 33.08 157.27  0.0799999999999841 157.27  0.0799999999999841 157.27  Z " fill-rule="nonzero" fill="#ffaf00" stroke="none" transform="matrix(1 0 0 1 333 16361 )" />
    <path d="M 0.0799999999999841 157.27  C 0.0799999999999841 157.27  0.0799999999999841 0.77000000000001  0.0799999999999841 0.77000000000001  C 0.0799999999999841 0.77000000000001  33.08 0.77000000000001  33.08 0.77000000000001  C 33.08 0.77000000000001  33.08 157.27  33.08 157.27  C 33.08 157.27  0.0799999999999841 157.27  0.0799999999999841 157.27  Z " stroke-width="2" stroke="#ffaf00" fill="none" transform="matrix(1 0 0 1 333 16361 )" mask="url(#clip836)" />
  </g>
</svg>