<?xml version="1.0" encoding="utf-8"?>
<svg version="1.1" xmlns:xlink="http://www.w3.org/1999/xlink" width="64px" height="12px" xmlns="http://www.w3.org/2000/svg">
  <defs>
    <mask fill="white" id="clip2232">
      <path d="M 0.92999999999995 11.33  C 0.92999999999995 11.33  0.92999999999995 0.230000000000018  0.92999999999995 0.230000000000018  C 0.92999999999995 0.230000000000018  63.7299999999999 0.230000000000018  63.7299999999999 0.230000000000018  C 63.7299999999999 0.230000000000018  63.7299999999999 11.33  63.7299999999999 11.33  C 63.7299999999999 11.33  0.92999999999995 11.33  0.92999999999995 11.33  Z " fill-rule="evenodd" />
    </mask>
  </defs>
  <g transform="matrix(1 0 0 1 -903 -16499 )">
    <path d="M 0.92999999999995 11.33  C 0.92999999999995 11.33  0.92999999999995 0.230000000000018  0.92999999999995 0.230000000000018  C 0.92999999999995 0.230000000000018  63.7299999999999 0.230000000000018  63.7299999999999 0.230000000000018  C 63.7299999999999 0.230000000000018  63.7299999999999 11.33  63.7299999999999 11.33  C 63.7299999999999 11.33  0.92999999999995 11.33  0.92999999999995 11.33  Z " fill-rule="nonzero" fill="#3498db" stroke="none" transform="matrix(1 0 0 1 903 16499 )" />
    <path d="M 0.92999999999995 11.33  C 0.92999999999995 11.33  0.92999999999995 0.230000000000018  0.92999999999995 0.230000000000018  C 0.92999999999995 0.230000000000018  63.7299999999999 0.230000000000018  63.7299999999999 0.230000000000018  C 63.7299999999999 0.230000000000018  63.7299999999999 11.33  63.7299999999999 11.33  C 63.7299999999999 11.33  0.92999999999995 11.33  0.92999999999995 11.33  Z " stroke-width="2" stroke="#3498db" fill="none" transform="matrix(1 0 0 1 903 16499 )" mask="url(#clip2232)" />
  </g>
</svg>