<?xml version="1.0" encoding="utf-8"?>
<svg version="1.1" xmlns:xlink="http://www.w3.org/1999/xlink" width="218px" height="12px" xmlns="http://www.w3.org/2000/svg">
  <defs>
    <mask fill="white" id="clip931">
      <path d="M 0.92999999999995 11.97  C 0.92999999999995 11.97  0.92999999999995 0.370000000000005  0.92999999999995 0.370000000000005  C 0.92999999999995 0.370000000000005  217.03 0.370000000000005  217.03 0.370000000000005  C 217.03 0.370000000000005  217.03 11.97  217.03 11.97  C 217.03 11.97  0.92999999999995 11.97  0.92999999999995 11.97  Z " fill-rule="evenodd" />
    </mask>
  </defs>
  <g transform="matrix(1 0 0 1 -903 -16736 )">
    <path d="M 0.92999999999995 11.97  C 0.92999999999995 11.97  0.92999999999995 0.370000000000005  0.92999999999995 0.370000000000005  C 0.92999999999995 0.370000000000005  217.03 0.370000000000005  217.03 0.370000000000005  C 217.03 0.370000000000005  217.03 11.97  217.03 11.97  C 217.03 11.97  0.92999999999995 11.97  0.92999999999995 11.97  Z " fill-rule="nonzero" fill="#527294" stroke="none" transform="matrix(1 0 0 1 903 16736 )" />
    <path d="M 0.92999999999995 11.97  C 0.92999999999995 11.97  0.92999999999995 0.370000000000005  0.92999999999995 0.370000000000005  C 0.92999999999995 0.370000000000005  217.03 0.370000000000005  217.03 0.370000000000005  C 217.03 0.370000000000005  217.03 11.97  217.03 11.97  C 217.03 11.97  0.92999999999995 11.97  0.92999999999995 11.97  Z " stroke-width="2" stroke="#527294" fill="none" transform="matrix(1 0 0 1 903 16736 )" mask="url(#clip931)" />
  </g>
</svg>