<?xml version="1.0" encoding="utf-8"?>
<svg version="1.1" xmlns:xlink="http://www.w3.org/1999/xlink" width="34px" height="37px" xmlns="http://www.w3.org/2000/svg">
  <defs>
    <mask fill="white" id="clip2298">
      <path d="M 33.63 36.08  C 33.63 36.08  0.129999999999995 23.1800000000001  0.129999999999995 23.1800000000001  C 5.23000000000002 10.1800000000001  18.83 0.0800000000000409  33.63 0.0800000000000409  C 33.63 0.0800000000000409  33.63 36.08  33.63 36.08  Z " fill-rule="evenodd" />
    </mask>
  </defs>
  <g transform="matrix(1 0 0 1 -723 -16657 )">
    <path d="M 33.63 36.08  C 33.63 36.08  0.129999999999995 23.1800000000001  0.129999999999995 23.1800000000001  C 5.23000000000002 10.1800000000001  18.83 0.0800000000000409  33.63 0.0800000000000409  C 33.63 0.0800000000000409  33.63 36.08  33.63 36.08  Z " fill-rule="nonzero" fill="#ee7c31" stroke="none" transform="matrix(1 0 0 1 723 16657 )" />
    <path d="M 33.63 36.08  C 33.63 36.08  0.129999999999995 23.1800000000001  0.129999999999995 23.1800000000001  C 5.23000000000002 10.1800000000001  18.83 0.0800000000000409  33.63 0.0800000000000409  C 33.63 0.0800000000000409  33.63 36.08  33.63 36.08  Z " stroke-width="2" stroke="#ee7c31" fill="none" transform="matrix(1 0 0 1 723 16657 )" mask="url(#clip2298)" />
  </g>
</svg>