<?xml version="1.0" encoding="utf-8"?>
<svg version="1.1" xmlns:xlink="http://www.w3.org/1999/xlink" width="29px" height="13px" xmlns="http://www.w3.org/2000/svg">
  <defs>
    <mask fill="white" id="clip925">
      <path d="M 0.759999999999991 12.03  C 0.759999999999991 12.03  0.759999999999991 0.53000000000003  0.759999999999991 0.53000000000003  C 0.759999999999991 0.53000000000003  28.66 0.53000000000003  28.66 0.53000000000003  C 28.66 0.53000000000003  28.66 12.03  28.66 12.03  C 28.66 12.03  0.759999999999991 12.03  0.759999999999991 12.03  Z " fill-rule="evenodd" />
    </mask>
  </defs>
  <g transform="matrix(1 0 0 1 -902 -16618 )">
    <path d="M 0.759999999999991 12.03  C 0.759999999999991 12.03  0.759999999999991 0.53000000000003  0.759999999999991 0.53000000000003  C 0.759999999999991 0.53000000000003  28.66 0.53000000000003  28.66 0.53000000000003  C 28.66 0.53000000000003  28.66 12.03  28.66 12.03  C 28.66 12.03  0.759999999999991 12.03  0.759999999999991 12.03  Z " fill-rule="nonzero" fill="#527294" stroke="none" transform="matrix(1 0 0 1 902 16618 )" />
    <path d="M 0.759999999999991 12.03  C 0.759999999999991 12.03  0.759999999999991 0.53000000000003  0.759999999999991 0.53000000000003  C 0.759999999999991 0.53000000000003  28.66 0.53000000000003  28.66 0.53000000000003  C 28.66 0.53000000000003  28.66 12.03  28.66 12.03  C 28.66 12.03  0.759999999999991 12.03  0.759999999999991 12.03  Z " stroke-width="2" stroke="#527294" fill="none" transform="matrix(1 0 0 1 902 16618 )" mask="url(#clip925)" />
  </g>
</svg>