<?xml version="1.0" encoding="utf-8"?>
<svg version="1.1" xmlns:xlink="http://www.w3.org/1999/xlink" width="72px" height="71px" xmlns="http://www.w3.org/2000/svg">
  <defs>
    <mask fill="white" id="clip916">
      <path d="M 36.63 36.08  C 36.63 36.08  36.63 0.0800000000000409  36.63 0.0800000000000409  C 55.93 0.0800000000000409  71.53 16.7800000000001  71.53 36.08  C 71.53 55.38  55.93 70.98  36.63 70.98  C 17.33 70.98  0.629999999999995 55.38  0.629999999999995 36.08  C 0.629999999999995 31.48  1.52999999999997 26.1800000000001  3.13 22.1800000000001  C 3.13 22.1800000000001  36.63 36.08  36.63 36.08  Z " fill-rule="evenodd" />
    </mask>
  </defs>
  <g transform="matrix(1 0 0 1 -720 -16657 )">
    <path d="M 36.63 36.08  C 36.63 36.08  36.63 0.0800000000000409  36.63 0.0800000000000409  C 55.93 0.0800000000000409  71.53 16.7800000000001  71.53 36.08  C 71.53 55.38  55.93 70.98  36.63 70.98  C 17.33 70.98  0.629999999999995 55.38  0.629999999999995 36.08  C 0.629999999999995 31.48  1.52999999999997 26.1800000000001  3.13 22.1800000000001  C 3.13 22.1800000000001  36.63 36.08  36.63 36.08  Z " fill-rule="nonzero" fill="#2da2bf" stroke="none" transform="matrix(1 0 0 1 720 16657 )" />
    <path d="M 36.63 36.08  C 36.63 36.08  36.63 0.0800000000000409  36.63 0.0800000000000409  C 55.93 0.0800000000000409  71.53 16.7800000000001  71.53 36.08  C 71.53 55.38  55.93 70.98  36.63 70.98  C 17.33 70.98  0.629999999999995 55.38  0.629999999999995 36.08  C 0.629999999999995 31.48  1.52999999999997 26.1800000000001  3.13 22.1800000000001  C 3.13 22.1800000000001  36.63 36.08  36.63 36.08  Z " stroke-width="2" stroke="#2da2bf" fill="none" transform="matrix(1 0 0 1 720 16657 )" mask="url(#clip916)" />
  </g>
</svg>