<?xml version="1.0" encoding="utf-8"?>
<svg version="1.1" xmlns:xlink="http://www.w3.org/1999/xlink" width="56px" height="13px" xmlns="http://www.w3.org/2000/svg">
  <defs>
    <mask fill="white" id="clip916">
      <path d="M 0.92999999999995 12.4400000000001  C 0.92999999999995 12.4400000000001  0.92999999999995 0.840000000000032  0.92999999999995 0.840000000000032  C 0.92999999999995 0.840000000000032  55.7299999999999 0.840000000000032  55.7299999999999 0.840000000000032  C 55.7299999999999 0.840000000000032  55.7299999999999 12.4400000000001  55.7299999999999 12.4400000000001  C 55.7299999999999 12.4400000000001  0.92999999999995 12.4400000000001  0.92999999999995 12.4400000000001  Z " fill-rule="evenodd" />
    </mask>
  </defs>
  <g transform="matrix(1 0 0 1 -903 -16687 )">
    <path d="M 0.92999999999995 12.4400000000001  C 0.92999999999995 12.4400000000001  0.92999999999995 0.840000000000032  0.92999999999995 0.840000000000032  C 0.92999999999995 0.840000000000032  55.7299999999999 0.840000000000032  55.7299999999999 0.840000000000032  C 55.7299999999999 0.840000000000032  55.7299999999999 12.4400000000001  55.7299999999999 12.4400000000001  C 55.7299999999999 12.4400000000001  0.92999999999995 12.4400000000001  0.92999999999995 12.4400000000001  Z " fill-rule="nonzero" fill="#dd7195" stroke="none" transform="matrix(1 0 0 1 903 16687 )" />
    <path d="M 0.92999999999995 12.4400000000001  C 0.92999999999995 12.4400000000001  0.92999999999995 0.840000000000032  0.92999999999995 0.840000000000032  C 0.92999999999995 0.840000000000032  55.7299999999999 0.840000000000032  55.7299999999999 0.840000000000032  C 55.7299999999999 0.840000000000032  55.7299999999999 12.4400000000001  55.7299999999999 12.4400000000001  C 55.7299999999999 12.4400000000001  0.92999999999995 12.4400000000001  0.92999999999995 12.4400000000001  Z " stroke-width="2" stroke="#dd7195" fill="none" transform="matrix(1 0 0 1 903 16687 )" mask="url(#clip916)" />
  </g>
</svg>