<?xml version="1.0" encoding="utf-8"?>
<svg version="1.1" xmlns:xlink="http://www.w3.org/1999/xlink" width="28px" height="12px" xmlns="http://www.w3.org/2000/svg">
  <defs>
    <mask fill="white" id="clip894">
      <path d="M 0.0999999999999091 11.78  C 0.0999999999999091 11.78  0.0999999999999091 0.280000000000001  0.0999999999999091 0.280000000000001  C 0.0999999999999091 0.280000000000001  27.9999999999999 0.280000000000001  27.9999999999999 0.280000000000001  C 27.9999999999999 0.280000000000001  27.9999999999999 11.78  27.9999999999999 11.78  C 27.9999999999999 11.78  0.0999999999999091 11.78  0.0999999999999091 11.78  Z " fill-rule="evenodd" />
    </mask>
  </defs>
  <g transform="matrix(1 0 0 1 -927 -16294 )">
    <path d="M 0.0999999999999091 11.78  C 0.0999999999999091 11.78  0.0999999999999091 0.280000000000001  0.0999999999999091 0.280000000000001  C 0.0999999999999091 0.280000000000001  27.9999999999999 0.280000000000001  27.9999999999999 0.280000000000001  C 27.9999999999999 0.280000000000001  27.9999999999999 11.78  27.9999999999999 11.78  C 27.9999999999999 11.78  0.0999999999999091 11.78  0.0999999999999091 11.78  Z " fill-rule="nonzero" fill="#3498db" stroke="none" transform="matrix(1 0 0 1 927 16294 )" />
    <path d="M 0.0999999999999091 11.78  C 0.0999999999999091 11.78  0.0999999999999091 0.280000000000001  0.0999999999999091 0.280000000000001  C 0.0999999999999091 0.280000000000001  27.9999999999999 0.280000000000001  27.9999999999999 0.280000000000001  C 27.9999999999999 0.280000000000001  27.9999999999999 11.78  27.9999999999999 11.78  C 27.9999999999999 11.78  0.0999999999999091 11.78  0.0999999999999091 11.78  Z " stroke-width="2" stroke="#3498db" fill="none" transform="matrix(1 0 0 1 927 16294 )" mask="url(#clip894)" />
  </g>
</svg>