<?xml version="1.0" encoding="utf-8"?>
<svg version="1.1" xmlns:xlink="http://www.w3.org/1999/xlink" width="157px" height="13px" xmlns="http://www.w3.org/2000/svg">
  <defs>
    <mask fill="white" id="clip908">
      <path d="M 0.92999999999995 12.41  C 0.92999999999995 12.41  0.92999999999995 0.809999999999945  0.92999999999995 0.809999999999945  C 0.92999999999995 0.809999999999945  156.13 0.809999999999945  156.13 0.809999999999945  C 156.13 0.809999999999945  156.13 12.41  156.13 12.41  C 156.13 12.41  0.92999999999995 12.41  0.92999999999995 12.41  Z " fill-rule="evenodd" />
    </mask>
  </defs>
  <g transform="matrix(1 0 0 1 -903 -16763 )">
    <path d="M 0.92999999999995 12.41  C 0.92999999999995 12.41  0.92999999999995 0.809999999999945  0.92999999999995 0.809999999999945  C 0.92999999999995 0.809999999999945  156.13 0.809999999999945  156.13 0.809999999999945  C 156.13 0.809999999999945  156.13 12.41  156.13 12.41  C 156.13 12.41  0.92999999999995 12.41  0.92999999999995 12.41  Z " fill-rule="nonzero" fill="#dd7195" stroke="none" transform="matrix(1 0 0 1 903 16763 )" />
    <path d="M 0.92999999999995 12.41  C 0.92999999999995 12.41  0.92999999999995 0.809999999999945  0.92999999999995 0.809999999999945  C 0.92999999999995 0.809999999999945  156.13 0.809999999999945  156.13 0.809999999999945  C 156.13 0.809999999999945  156.13 12.41  156.13 12.41  C 156.13 12.41  0.92999999999995 12.41  0.92999999999995 12.41  Z " stroke-width="2" stroke="#dd7195" fill="none" transform="matrix(1 0 0 1 903 16763 )" mask="url(#clip908)" />
  </g>
</svg>