<?xml version="1.0" encoding="utf-8"?>
<svg version="1.1" xmlns:xlink="http://www.w3.org/1999/xlink" width="71px" height="72px" xmlns="http://www.w3.org/2000/svg">
  <defs>
    <mask fill="white" id="clip927">
      <path d="M 34.33 36.76  C 34.33 36.76  34.33 0.759999999999991  34.33 0.759999999999991  C 53.63 0.759999999999991  70.23 17.46  70.23 36.76  C 70.23 56.0599999999999  53.63 71.66  34.33 71.66  C 18.0300000000001 71.66  4.33000000000004 60.5599999999999  0.430000000000064 45.46  C 0.430000000000064 45.46  34.33 36.76  34.33 36.76  Z " fill-rule="evenodd" />
    </mask>
  </defs>
  <g transform="matrix(1 0 0 1 -675 -16740 )">
    <path d="M 34.33 36.76  C 34.33 36.76  34.33 0.759999999999991  34.33 0.759999999999991  C 53.63 0.759999999999991  70.23 17.46  70.23 36.76  C 70.23 56.0599999999999  53.63 71.66  34.33 71.66  C 18.0300000000001 71.66  4.33000000000004 60.5599999999999  0.430000000000064 45.46  C 0.430000000000064 45.46  34.33 36.76  34.33 36.76  Z " fill-rule="nonzero" fill="#2da2bf" stroke="none" transform="matrix(1 0 0 1 675 16740 )" />
    <path d="M 34.33 36.76  C 34.33 36.76  34.33 0.759999999999991  34.33 0.759999999999991  C 53.63 0.759999999999991  70.23 17.46  70.23 36.76  C 70.23 56.0599999999999  53.63 71.66  34.33 71.66  C 18.0300000000001 71.66  4.33000000000004 60.5599999999999  0.430000000000064 45.46  C 0.430000000000064 45.46  34.33 36.76  34.33 36.76  Z " stroke-width="2" stroke="#2da2bf" fill="none" transform="matrix(1 0 0 1 675 16740 )" mask="url(#clip927)" />
  </g>
</svg>