<?xml version="1.0" encoding="utf-8"?>
<svg version="1.1" xmlns:xlink="http://www.w3.org/1999/xlink" width="49px" height="12px" xmlns="http://www.w3.org/2000/svg">
  <defs>
    <mask fill="white" id="clip876">
      <path d="M 0.92999999999995 11.65  C 0.92999999999995 11.65  0.92999999999995 0.549999999999983  0.92999999999995 0.549999999999983  C 0.92999999999995 0.549999999999983  48.3299999999999 0.549999999999983  48.3299999999999 0.549999999999983  C 48.3299999999999 0.549999999999983  48.3299999999999 11.65  48.3299999999999 11.65  C 48.3299999999999 11.65  0.92999999999995 11.65  0.92999999999995 11.65  Z " fill-rule="evenodd" />
    </mask>
  </defs>
  <g transform="matrix(1 0 0 1 -903 -16353 )">
    <path d="M 0.92999999999995 11.65  C 0.92999999999995 11.65  0.92999999999995 0.549999999999983  0.92999999999995 0.549999999999983  C 0.92999999999995 0.549999999999983  48.3299999999999 0.549999999999983  48.3299999999999 0.549999999999983  C 48.3299999999999 0.549999999999983  48.3299999999999 11.65  48.3299999999999 11.65  C 48.3299999999999 11.65  0.92999999999995 11.65  0.92999999999995 11.65  Z " fill-rule="nonzero" fill="#3498db" stroke="none" transform="matrix(1 0 0 1 903 16353 )" />
    <path d="M 0.92999999999995 11.65  C 0.92999999999995 11.65  0.92999999999995 0.549999999999983  0.92999999999995 0.549999999999983  C 0.92999999999995 0.549999999999983  48.3299999999999 0.549999999999983  48.3299999999999 0.549999999999983  C 48.3299999999999 0.549999999999983  48.3299999999999 11.65  48.3299999999999 11.65  C 48.3299999999999 11.65  0.92999999999995 11.65  0.92999999999995 11.65  Z " stroke-width="2" stroke="#3498db" fill="none" transform="matrix(1 0 0 1 903 16353 )" mask="url(#clip876)" />
  </g>
</svg>