<?xml version="1.0" encoding="utf-8"?>
<svg version="1.1" xmlns:xlink="http://www.w3.org/1999/xlink" width="28px" height="13px" xmlns="http://www.w3.org/2000/svg">
  <defs>
    <mask fill="white" id="clip877">
      <path d="M 0.0999999999999091 12.28  C 0.0999999999999091 12.28  0.0999999999999091 0.780000000000001  0.0999999999999091 0.780000000000001  C 0.0999999999999091 0.780000000000001  27.9999999999999 0.780000000000001  27.9999999999999 0.780000000000001  C 27.9999999999999 0.780000000000001  27.9999999999999 12.28  27.9999999999999 12.28  C 27.9999999999999 12.28  0.0999999999999091 12.28  0.0999999999999091 12.28  Z " fill-rule="evenodd" />
    </mask>
  </defs>
  <g transform="matrix(1 0 0 1 -927 -16314 )">
    <path d="M 0.0999999999999091 12.28  C 0.0999999999999091 12.28  0.0999999999999091 0.780000000000001  0.0999999999999091 0.780000000000001  C 0.0999999999999091 0.780000000000001  27.9999999999999 0.780000000000001  27.9999999999999 0.780000000000001  C 27.9999999999999 0.780000000000001  27.9999999999999 12.28  27.9999999999999 12.28  C 27.9999999999999 12.28  0.0999999999999091 12.28  0.0999999999999091 12.28  Z " fill-rule="nonzero" fill="#ffaf00" stroke="none" transform="matrix(1 0 0 1 927 16314 )" />
    <path d="M 0.0999999999999091 12.28  C 0.0999999999999091 12.28  0.0999999999999091 0.780000000000001  0.0999999999999091 0.780000000000001  C 0.0999999999999091 0.780000000000001  27.9999999999999 0.780000000000001  27.9999999999999 0.780000000000001  C 27.9999999999999 0.780000000000001  27.9999999999999 12.28  27.9999999999999 12.28  C 27.9999999999999 12.28  0.0999999999999091 12.28  0.0999999999999091 12.28  Z " stroke-width="2" stroke="#ffaf00" fill="none" transform="matrix(1 0 0 1 927 16314 )" mask="url(#clip877)" />
  </g>
</svg>