<?xml version="1.0" encoding="utf-8"?>
<svg version="1.1" xmlns:xlink="http://www.w3.org/1999/xlink" width="32px" height="32px" xmlns="http://www.w3.org/2000/svg">
  <defs>
    <radialGradient cx="1.44999999999999" cy="1.29999999999995" r="41.4" gradientTransform="matrix(1 0 0 0.999999999999999 0 8.88178419700125E-16 )" gradientUnits="userSpaceOnUse" id="RadialGradient2331">
      <stop id="Stop2332" stop-color="#fbfbfb" offset="0" />
      <stop id="Stop2333" stop-color="#e1e1e1" offset="1" />
    </radialGradient>
    <mask fill="white" id="clip2334">
      <path d="M 16.55 31.0999999999999  C 8.44999999999999 31.0999999999999  0.949999999999989 23.5  0.949999999999989 15.4  C 0.949999999999989 7.29999999999995  8.44999999999999 0.799999999999955  16.55 0.799999999999955  C 24.65 0.799999999999955  31.15 7.29999999999995  31.15 15.4  C 31.15 23.5  24.65 31.0999999999999  16.55 31.0999999999999  Z " fill-rule="evenodd" />
    </mask>
  </defs>
  <g transform="matrix(1 0 0 1 -226 -17552 )">
    <path d="M 16.55 31.0999999999999  C 8.44999999999999 31.0999999999999  0.949999999999989 23.5  0.949999999999989 15.4  C 0.949999999999989 7.29999999999995  8.44999999999999 0.799999999999955  16.55 0.799999999999955  C 24.65 0.799999999999955  31.15 7.29999999999995  31.15 15.4  C 31.15 23.5  24.65 31.0999999999999  16.55 31.0999999999999  Z " fill-rule="nonzero" fill="url(#RadialGradient2331)" stroke="none" transform="matrix(1 0 0 1 226 17552 )" />
    <path d="M 16.55 31.0999999999999  C 8.44999999999999 31.0999999999999  0.949999999999989 23.5  0.949999999999989 15.4  C 0.949999999999989 7.29999999999995  8.44999999999999 0.799999999999955  16.55 0.799999999999955  C 24.65 0.799999999999955  31.15 7.29999999999995  31.15 15.4  C 31.15 23.5  24.65 31.0999999999999  16.55 31.0999999999999  Z " stroke-width="2" stroke="#909090" fill="none" transform="matrix(1 0 0 1 226 17552 )" mask="url(#clip2334)" />
  </g>
</svg>