<?xml version="1.0" encoding="utf-8"?>
<svg version="1.1" xmlns:xlink="http://www.w3.org/1999/xlink" width="213px" height="31px" xmlns="http://www.w3.org/2000/svg">
  <defs>
    <mask fill="white" id="clip979">
      <path d="M 0.240000000000009 15.15  C 0.240000000000009 7.15000000000003  5.34000000000003 0.550000000000011  11.54 0.550000000000011  C 11.54 0.550000000000011  201.14 0.550000000000011  201.14 0.550000000000011  C 207.44 0.550000000000011  212.54 7.15000000000003  212.54 15.15  C 212.54 23.25  207.44 30.85  201.14 30.85  C 201.14 30.85  11.54 30.85  11.54 30.85  C 5.34000000000003 30.85  0.240000000000009 23.25  0.240000000000009 15.15  Z " fill-rule="evenodd" />
    </mask>
  </defs>
  <g transform="matrix(1 0 0 1 -420 -17416 )">
    <path d="M 0.240000000000009 15.15  C 0.240000000000009 7.15000000000003  5.34000000000003 0.550000000000011  11.54 0.550000000000011  C 11.54 0.550000000000011  201.14 0.550000000000011  201.14 0.550000000000011  C 207.44 0.550000000000011  212.54 7.15000000000003  212.54 15.15  C 212.54 23.25  207.44 30.85  201.14 30.85  C 201.14 30.85  11.54 30.85  11.54 30.85  C 5.34000000000003 30.85  0.240000000000009 23.25  0.240000000000009 15.15  Z " fill-rule="nonzero" fill="#9b9b9b" stroke="none" transform="matrix(1 0 0 1 420 17416 )" />
    <path d="M 0.240000000000009 15.15  C 0.240000000000009 7.15000000000003  5.34000000000003 0.550000000000011  11.54 0.550000000000011  C 11.54 0.550000000000011  201.14 0.550000000000011  201.14 0.550000000000011  C 207.44 0.550000000000011  212.54 7.15000000000003  212.54 15.15  C 212.54 23.25  207.44 30.85  201.14 30.85  C 201.14 30.85  11.54 30.85  11.54 30.85  C 5.34000000000003 30.85  0.240000000000009 23.25  0.240000000000009 15.15  Z " stroke-width="2" stroke="#9b9b9b" fill="none" transform="matrix(1 0 0 1 420 17416 )" mask="url(#clip979)" />
  </g>
</svg>