<?xml version="1.0" encoding="utf-8"?>
<svg version="1.1" xmlns:xlink="http://www.w3.org/1999/xlink" width="15px" height="15px" xmlns="http://www.w3.org/2000/svg">
  <defs>
    <mask fill="white" id="clip995">
      <path d="M 8 0.850000000000023  C 11.6 0.850000000000023  14.5 4.75  14.5 8.35000000000002  C 14.5 11.95  11.6 14.85  8 14.85  C 4.39999999999998 14.85  0.5 11.95  0.5 8.35000000000002  C 0.5 4.75  4.39999999999998 0.850000000000023  8 0.850000000000023  Z " fill-rule="evenodd" />
    </mask>
  </defs>
  <g transform="matrix(1 0 0 1 -1039 -17549 )">
    <path d="M 8 0.850000000000023  C 11.6 0.850000000000023  14.5 4.75  14.5 8.35000000000002  C 14.5 11.95  11.6 14.85  8 14.85  C 4.39999999999998 14.85  0.5 11.95  0.5 8.35000000000002  C 0.5 4.75  4.39999999999998 0.850000000000023  8 0.850000000000023  Z " fill-rule="nonzero" fill="#64c5c5" stroke="none" transform="matrix(1 0 0 1 1039 17549 )" />
    <path d="M 8 0.850000000000023  C 11.6 0.850000000000023  14.5 4.75  14.5 8.35000000000002  C 14.5 11.95  11.6 14.85  8 14.85  C 4.39999999999998 14.85  0.5 11.95  0.5 8.35000000000002  C 0.5 4.75  4.39999999999998 0.850000000000023  8 0.850000000000023  Z " stroke-width="2" stroke="#64c5c5" fill="none" transform="matrix(1 0 0 1 1039 17549 )" mask="url(#clip995)" />
  </g>
</svg>