<?xml version="1.0" encoding="utf-8"?>
<svg version="1.1" xmlns:xlink="http://www.w3.org/1999/xlink" width="218px" height="31px" xmlns="http://www.w3.org/2000/svg">
  <defs>
    <mask fill="white" id="clip956">
      <path d="M 0.240000000000002 15.15  C 0.240000000000002 7.15000000000003  5.44 0.550000000000011  11.84 0.550000000000011  C 11.84 0.550000000000011  205.84 0.550000000000011  205.84 0.550000000000011  C 212.34 0.550000000000011  217.54 7.15000000000003  217.54 15.15  C 217.54 23.25  212.34 30.85  205.84 30.85  C 205.84 30.85  11.84 30.85  11.84 30.85  C 5.44 30.85  0.240000000000002 23.25  0.240000000000002 15.15  Z " fill-rule="evenodd" />
    </mask>
  </defs>
  <g transform="matrix(1 0 0 1 -132 -17416 )">
    <path d="M 0.240000000000002 15.15  C 0.240000000000002 7.15000000000003  5.44 0.550000000000011  11.84 0.550000000000011  C 11.84 0.550000000000011  205.84 0.550000000000011  205.84 0.550000000000011  C 212.34 0.550000000000011  217.54 7.15000000000003  217.54 15.15  C 217.54 23.25  212.34 30.85  205.84 30.85  C 205.84 30.85  11.84 30.85  11.84 30.85  C 5.44 30.85  0.240000000000002 23.25  0.240000000000002 15.15  Z " fill-rule="nonzero" fill="#9b9b9b" stroke="none" transform="matrix(1 0 0 1 132 17416 )" />
    <path d="M 0.240000000000002 15.15  C 0.240000000000002 7.15000000000003  5.44 0.550000000000011  11.84 0.550000000000011  C 11.84 0.550000000000011  205.84 0.550000000000011  205.84 0.550000000000011  C 212.34 0.550000000000011  217.54 7.15000000000003  217.54 15.15  C 217.54 23.25  212.34 30.85  205.84 30.85  C 205.84 30.85  11.84 30.85  11.84 30.85  C 5.44 30.85  0.240000000000002 23.25  0.240000000000002 15.15  Z " stroke-width="2" stroke="#9b9b9b" fill="none" transform="matrix(1 0 0 1 132 17416 )" mask="url(#clip956)" />
  </g>
</svg>