<?xml version="1.0" encoding="utf-8"?>
<svg version="1.1" xmlns:xlink="http://www.w3.org/1999/xlink" width="340px" height="31px" xmlns="http://www.w3.org/2000/svg">
  <defs>
    <mask fill="white" id="clip1077">
      <path d="M 0.240000000000009 15.15  C 0.240000000000009 7.14999999999999  8.34000000000003 0.549999999999997  18.4400000000001 0.549999999999997  C 18.4400000000001 0.549999999999997  321.34 0.549999999999997  321.34 0.549999999999997  C 331.34 0.549999999999997  339.54 7.14999999999999  339.54 15.15  C 339.54 23.25  331.34 30.85  321.34 30.85  C 321.34 30.85  18.4400000000001 30.85  18.4400000000001 30.85  C 8.34000000000003 30.85  0.240000000000009 23.25  0.240000000000009 15.15  Z " fill-rule="evenodd" />
    </mask>
  </defs>
  <g transform="matrix(1 0 0 1 -816 -17072 )">
    <path d="M 0.240000000000009 15.15  C 0.240000000000009 7.14999999999999  8.34000000000003 0.549999999999997  18.4400000000001 0.549999999999997  C 18.4400000000001 0.549999999999997  321.34 0.549999999999997  321.34 0.549999999999997  C 331.34 0.549999999999997  339.54 7.14999999999999  339.54 15.15  C 339.54 23.25  331.34 30.85  321.34 30.85  C 321.34 30.85  18.4400000000001 30.85  18.4400000000001 30.85  C 8.34000000000003 30.85  0.240000000000009 23.25  0.240000000000009 15.15  Z " fill-rule="nonzero" fill="#9b9b9b" stroke="none" transform="matrix(1 0 0 1 816 17072 )" />
    <path d="M 0.240000000000009 15.15  C 0.240000000000009 7.14999999999999  8.34000000000003 0.549999999999997  18.4400000000001 0.549999999999997  C 18.4400000000001 0.549999999999997  321.34 0.549999999999997  321.34 0.549999999999997  C 331.34 0.549999999999997  339.54 7.14999999999999  339.54 15.15  C 339.54 23.25  331.34 30.85  321.34 30.85  C 321.34 30.85  18.4400000000001 30.85  18.4400000000001 30.85  C 8.34000000000003 30.85  0.240000000000009 23.25  0.240000000000009 15.15  Z " stroke-width="2" stroke="#9b9b9b" fill="none" transform="matrix(1 0 0 1 816 17072 )" mask="url(#clip1077)" />
  </g>
</svg>