<?xml version="1.0" encoding="utf-8"?>
<svg version="1.1" xmlns:xlink="http://www.w3.org/1999/xlink" width="162px" height="12px" xmlns="http://www.w3.org/2000/svg">
  <defs>
    <mask fill="white" id="clip1090">
      <path d="M 0.92999999999995 11.95  C 0.92999999999995 11.95  0.92999999999995 0.350000000000023  0.92999999999995 0.350000000000023  C 0.92999999999995 0.350000000000023  161.43 0.350000000000023  161.43 0.350000000000023  C 161.43 0.350000000000023  161.43 11.95  161.43 11.95  C 161.43 11.95  0.92999999999995 11.95  0.92999999999995 11.95  Z " fill-rule="evenodd" />
    </mask>
  </defs>
  <g transform="matrix(1 0 0 1 -903 -16812 )">
    <path d="M 0.92999999999995 11.95  C 0.92999999999995 11.95  0.92999999999995 0.350000000000023  0.92999999999995 0.350000000000023  C 0.92999999999995 0.350000000000023  161.43 0.350000000000023  161.43 0.350000000000023  C 161.43 0.350000000000023  161.43 11.95  161.43 11.95  C 161.43 11.95  0.92999999999995 11.95  0.92999999999995 11.95  Z " fill-rule="nonzero" fill="#527294" stroke="none" transform="matrix(1 0 0 1 903 16812 )" />
    <path d="M 0.92999999999995 11.95  C 0.92999999999995 11.95  0.92999999999995 0.350000000000023  0.92999999999995 0.350000000000023  C 0.92999999999995 0.350000000000023  161.43 0.350000000000023  161.43 0.350000000000023  C 161.43 0.350000000000023  161.43 11.95  161.43 11.95  C 161.43 11.95  0.92999999999995 11.95  0.92999999999995 11.95  Z " stroke-width="2" stroke="#527294" fill="none" transform="matrix(1 0 0 1 903 16812 )" mask="url(#clip1090)" />
  </g>
</svg>