<?xml version="1.0" encoding="utf-8"?>
<svg version="1.1" xmlns:xlink="http://www.w3.org/1999/xlink" width="219px" height="13px" xmlns="http://www.w3.org/2000/svg">
  <defs>
    <mask fill="white" id="clip866">
      <path d="M 0.92999999999995 12.03  C 0.92999999999995 12.03  0.92999999999995 0.92999999999995  0.92999999999995 0.92999999999995  C 0.92999999999995 0.92999999999995  218.23 0.92999999999995  218.23 0.92999999999995  C 218.23 0.92999999999995  218.23 12.03  218.23 12.03  C 218.23 12.03  0.92999999999995 12.03  0.92999999999995 12.03  Z " fill-rule="evenodd" />
    </mask>
  </defs>
  <g transform="matrix(1 0 0 1 -903 -16472 )">
    <path d="M 0.92999999999995 12.03  C 0.92999999999995 12.03  0.92999999999995 0.92999999999995  0.92999999999995 0.92999999999995  C 0.92999999999995 0.92999999999995  218.23 0.92999999999995  218.23 0.92999999999995  C 218.23 0.92999999999995  218.23 12.03  218.23 12.03  C 218.23 12.03  0.92999999999995 12.03  0.92999999999995 12.03  Z " fill-rule="nonzero" fill="#ffaf00" stroke="none" transform="matrix(1 0 0 1 903 16472 )" />
    <path d="M 0.92999999999995 12.03  C 0.92999999999995 12.03  0.92999999999995 0.92999999999995  0.92999999999995 0.92999999999995  C 0.92999999999995 0.92999999999995  218.23 0.92999999999995  218.23 0.92999999999995  C 218.23 0.92999999999995  218.23 12.03  218.23 12.03  C 218.23 12.03  0.92999999999995 12.03  0.92999999999995 12.03  Z " stroke-width="2" stroke="#ffaf00" fill="none" transform="matrix(1 0 0 1 903 16472 )" mask="url(#clip866)" />
  </g>
</svg>