<?xml version="1.0" encoding="utf-8"?>
<svg version="1.1" xmlns:xlink="http://www.w3.org/1999/xlink" width="111px" height="12px" xmlns="http://www.w3.org/2000/svg">
  <defs>
    <mask fill="white" id="clip885">
      <path d="M 0.92999999999995 11.19  C 0.92999999999995 11.19  0.92999999999995 0.089999999999975  0.92999999999995 0.089999999999975  C 0.92999999999995 0.089999999999975  110.13 0.089999999999975  110.13 0.089999999999975  C 110.13 0.089999999999975  110.13 11.19  110.13 11.19  C 110.13 11.19  0.92999999999995 11.19  0.92999999999995 11.19  Z " fill-rule="evenodd" />
    </mask>
  </defs>
  <g transform="matrix(1 0 0 1 -903 -16400 )">
    <path d="M 0.92999999999995 11.19  C 0.92999999999995 11.19  0.92999999999995 0.089999999999975  0.92999999999995 0.089999999999975  C 0.92999999999995 0.089999999999975  110.13 0.089999999999975  110.13 0.089999999999975  C 110.13 0.089999999999975  110.13 11.19  110.13 11.19  C 110.13 11.19  0.92999999999995 11.19  0.92999999999995 11.19  Z " fill-rule="nonzero" fill="#ffaf00" stroke="none" transform="matrix(1 0 0 1 903 16400 )" />
    <path d="M 0.92999999999995 11.19  C 0.92999999999995 11.19  0.92999999999995 0.089999999999975  0.92999999999995 0.089999999999975  C 0.92999999999995 0.089999999999975  110.13 0.089999999999975  110.13 0.089999999999975  C 110.13 0.089999999999975  110.13 11.19  110.13 11.19  C 110.13 11.19  0.92999999999995 11.19  0.92999999999995 11.19  Z " stroke-width="2" stroke="#ffaf00" fill="none" transform="matrix(1 0 0 1 903 16400 )" mask="url(#clip885)" />
  </g>
</svg>