<?xml version="1.0" encoding="utf-8"?>
<svg version="1.1" xmlns:xlink="http://www.w3.org/1999/xlink" width="71px" height="71px" xmlns="http://www.w3.org/2000/svg">
  <defs>
    <mask fill="white" id="clip1093">
      <path d="M 34.97 36.08  C 34.97 36.08  34.97 0.0800000000000409  34.97 0.0800000000000409  C 54.27 0.0800000000000409  70.87 16.7800000000001  70.87 36.08  C 70.87 55.38  54.27 70.98  34.97 70.98  C 17.87 70.98  3.67000000000002 58.7800000000001  0.57000000000005 42.58  C 0.57000000000005 42.58  34.97 36.08  34.97 36.08  Z " fill-rule="evenodd" />
    </mask>
  </defs>
  <g transform="matrix(1 0 0 1 -509 -16657 )">
    <path d="M 34.97 36.08  C 34.97 36.08  34.97 0.0800000000000409  34.97 0.0800000000000409  C 54.27 0.0800000000000409  70.87 16.7800000000001  70.87 36.08  C 70.87 55.38  54.27 70.98  34.97 70.98  C 17.87 70.98  3.67000000000002 58.7800000000001  0.57000000000005 42.58  C 0.57000000000005 42.58  34.97 36.08  34.97 36.08  Z " fill-rule="nonzero" fill="#2da2bf" stroke="none" transform="matrix(1 0 0 1 509 16657 )" />
    <path d="M 34.97 36.08  C 34.97 36.08  34.97 0.0800000000000409  34.97 0.0800000000000409  C 54.27 0.0800000000000409  70.87 16.7800000000001  70.87 36.08  C 70.87 55.38  54.27 70.98  34.97 70.98  C 17.87 70.98  3.67000000000002 58.7800000000001  0.57000000000005 42.58  C 0.57000000000005 42.58  34.97 36.08  34.97 36.08  Z " stroke-width="2" stroke="#2da2bf" fill="none" transform="matrix(1 0 0 1 509 16657 )" mask="url(#clip1093)" />
  </g>
</svg>