<?xml version="1.0" encoding="utf-8"?>
<svg version="1.1" xmlns:xlink="http://www.w3.org/1999/xlink" width="105px" height="12px" xmlns="http://www.w3.org/2000/svg">
  <defs>
    <mask fill="white" id="clip1103">
      <path d="M 0.92999999999995 11.99  C 0.92999999999995 11.99  0.92999999999995 0.389999999999986  0.92999999999995 0.389999999999986  C 0.92999999999995 0.389999999999986  104.13 0.389999999999986  104.13 0.389999999999986  C 104.13 0.389999999999986  104.13 11.99  104.13 11.99  C 104.13 11.99  0.92999999999995 11.99  0.92999999999995 11.99  Z " fill-rule="evenodd" />
    </mask>
  </defs>
  <g transform="matrix(1 0 0 1 -903 -16698 )">
    <path d="M 0.92999999999995 11.99  C 0.92999999999995 11.99  0.92999999999995 0.389999999999986  0.92999999999995 0.389999999999986  C 0.92999999999995 0.389999999999986  104.13 0.389999999999986  104.13 0.389999999999986  C 104.13 0.389999999999986  104.13 11.99  104.13 11.99  C 104.13 11.99  0.92999999999995 11.99  0.92999999999995 11.99  Z " fill-rule="nonzero" fill="#527294" stroke="none" transform="matrix(1 0 0 1 903 16698 )" />
    <path d="M 0.92999999999995 11.99  C 0.92999999999995 11.99  0.92999999999995 0.389999999999986  0.92999999999995 0.389999999999986  C 0.92999999999995 0.389999999999986  104.13 0.389999999999986  104.13 0.389999999999986  C 104.13 0.389999999999986  104.13 11.99  104.13 11.99  C 104.13 11.99  0.92999999999995 11.99  0.92999999999995 11.99  Z " stroke-width="2" stroke="#527294" fill="none" transform="matrix(1 0 0 1 903 16698 )" mask="url(#clip1103)" />
  </g>
</svg>