<?xml version="1.0" encoding="utf-8"?>
<svg version="1.1" xmlns:xlink="http://www.w3.org/1999/xlink" width="149px" height="12px" xmlns="http://www.w3.org/2000/svg">
  <defs>
    <mask fill="white" id="clip1106">
      <path d="M 0.92999999999995 12  C 0.92999999999995 12  0.92999999999995 0.399999999999977  0.92999999999995 0.399999999999977  C 0.92999999999995 0.399999999999977  148.93 0.399999999999977  148.93 0.399999999999977  C 148.93 0.399999999999977  148.93 12  148.93 12  C 148.93 12  0.92999999999995 12  0.92999999999995 12  Z " fill-rule="evenodd" />
    </mask>
  </defs>
  <g transform="matrix(1 0 0 1 -903 -16660 )">
    <path d="M 0.92999999999995 12  C 0.92999999999995 12  0.92999999999995 0.399999999999977  0.92999999999995 0.399999999999977  C 0.92999999999995 0.399999999999977  148.93 0.399999999999977  148.93 0.399999999999977  C 148.93 0.399999999999977  148.93 12  148.93 12  C 148.93 12  0.92999999999995 12  0.92999999999995 12  Z " fill-rule="nonzero" fill="#527294" stroke="none" transform="matrix(1 0 0 1 903 16660 )" />
    <path d="M 0.92999999999995 12  C 0.92999999999995 12  0.92999999999995 0.399999999999977  0.92999999999995 0.399999999999977  C 0.92999999999995 0.399999999999977  148.93 0.399999999999977  148.93 0.399999999999977  C 148.93 0.399999999999977  148.93 12  148.93 12  C 148.93 12  0.92999999999995 12  0.92999999999995 12  Z " stroke-width="2" stroke="#527294" fill="none" transform="matrix(1 0 0 1 903 16660 )" mask="url(#clip1106)" />
  </g>
</svg>