<?xml version="1.0" encoding="utf-8"?>
<svg version="1.1" xmlns:xlink="http://www.w3.org/1999/xlink" width="29px" height="12px" xmlns="http://www.w3.org/2000/svg">
  <defs>
    <mask fill="white" id="clip938">
      <path d="M 0.759999999999991 11.53  C 0.759999999999991 11.53  0.759999999999991 0.0300000000000296  0.759999999999991 0.0300000000000296  C 0.759999999999991 0.0300000000000296  28.66 0.0300000000000296  28.66 0.0300000000000296  C 28.66 0.0300000000000296  28.66 11.53  28.66 11.53  C 28.66 11.53  0.759999999999991 11.53  0.759999999999991 11.53  Z " fill-rule="evenodd" />
    </mask>
  </defs>
  <g transform="matrix(1 0 0 1 -902 -16598 )">
    <path d="M 0.759999999999991 11.53  C 0.759999999999991 11.53  0.759999999999991 0.0300000000000296  0.759999999999991 0.0300000000000296  C 0.759999999999991 0.0300000000000296  28.66 0.0300000000000296  28.66 0.0300000000000296  C 28.66 0.0300000000000296  28.66 11.53  28.66 11.53  C 28.66 11.53  0.759999999999991 11.53  0.759999999999991 11.53  Z " fill-rule="nonzero" fill="#dd7195" stroke="none" transform="matrix(1 0 0 1 902 16598 )" />
    <path d="M 0.759999999999991 11.53  C 0.759999999999991 11.53  0.759999999999991 0.0300000000000296  0.759999999999991 0.0300000000000296  C 0.759999999999991 0.0300000000000296  28.66 0.0300000000000296  28.66 0.0300000000000296  C 28.66 0.0300000000000296  28.66 11.53  28.66 11.53  C 28.66 11.53  0.759999999999991 11.53  0.759999999999991 11.53  Z " stroke-width="2" stroke="#dd7195" fill="none" transform="matrix(1 0 0 1 902 16598 )" mask="url(#clip938)" />
  </g>
</svg>