<?xml version="1.0" encoding="utf-8"?>
<svg version="1.1" xmlns:xlink="http://www.w3.org/1999/xlink" width="131px" height="31px" xmlns="http://www.w3.org/2000/svg">
  <defs>
    <mask fill="white" id="clip1114">
      <path d="M 0.7349999999999 30.015  C 0.7349999999999 30.015  0.7349999999999 0.264999999999986  0.7349999999999 0.264999999999986  C 0.7349999999999 0.264999999999986  130.585 0.264999999999986  130.585 0.264999999999986  C 130.585 0.264999999999986  130.585 30.015  130.585 30.015  C 130.585 30.015  0.7349999999999 30.015  0.7349999999999 30.015  Z " fill-rule="evenodd" />
    </mask>
  </defs>
  <g transform="matrix(1 0 0 1 -719 -19257 )">
    <path d="M 0.7349999999999 30.015  C 0.7349999999999 30.015  0.7349999999999 0.264999999999986  0.7349999999999 0.264999999999986  C 0.7349999999999 0.264999999999986  130.585 0.264999999999986  130.585 0.264999999999986  C 130.585 0.264999999999986  130.585 30.015  130.585 30.015  C 130.585 30.015  0.7349999999999 30.015  0.7349999999999 30.015  Z " fill-rule="nonzero" fill="#fb9d53" stroke="none" transform="matrix(1 0 0 1 719 19257 )" />
    <path d="M 0.7349999999999 30.015  C 0.7349999999999 30.015  0.7349999999999 0.264999999999986  0.7349999999999 0.264999999999986  C 0.7349999999999 0.264999999999986  130.585 0.264999999999986  130.585 0.264999999999986  C 130.585 0.264999999999986  130.585 30.015  130.585 30.015  C 130.585 30.015  0.7349999999999 30.015  0.7349999999999 30.015  Z " stroke-width="0.5" stroke="#fb9d53" fill="none" transform="matrix(1 0 0 1 719 19257 )" mask="url(#clip1114)" />
  </g>
</svg>