<?xml version="1.0" encoding="utf-8"?>
<svg version="1.1" xmlns:xlink="http://www.w3.org/1999/xlink" width="131px" height="31px" xmlns="http://www.w3.org/2000/svg">
  <defs>
    <mask fill="white" id="clip2498">
      <path d="M 0.58499999999998 30.015  C 0.58499999999998 30.015  0.58499999999998 0.264999999999986  0.58499999999998 0.264999999999986  C 0.58499999999998 0.264999999999986  130.435 0.264999999999986  130.435 0.264999999999986  C 130.435 0.264999999999986  130.435 30.015  130.435 30.015  C 130.435 30.015  0.58499999999998 30.015  0.58499999999998 30.015  Z " fill-rule="evenodd" />
    </mask>
  </defs>
  <g transform="matrix(1 0 0 1 -467 -19257 )">
    <path d="M 0.58499999999998 30.015  C 0.58499999999998 30.015  0.58499999999998 0.264999999999986  0.58499999999998 0.264999999999986  C 0.58499999999998 0.264999999999986  130.435 0.264999999999986  130.435 0.264999999999986  C 130.435 0.264999999999986  130.435 30.015  130.435 30.015  C 130.435 30.015  0.58499999999998 30.015  0.58499999999998 30.015  Z " fill-rule="nonzero" fill="#33b2c3" stroke="none" transform="matrix(1 0 0 1 467 19257 )" />
    <path d="M 0.58499999999998 30.015  C 0.58499999999998 30.015  0.58499999999998 0.264999999999986  0.58499999999998 0.264999999999986  C 0.58499999999998 0.264999999999986  130.435 0.264999999999986  130.435 0.264999999999986  C 130.435 0.264999999999986  130.435 30.015  130.435 30.015  C 130.435 30.015  0.58499999999998 30.015  0.58499999999998 30.015  Z " stroke-width="0.5" stroke="#33b2c3" fill="none" transform="matrix(1 0 0 1 467 19257 )" mask="url(#clip2498)" />
  </g>
</svg>