<?xml version="1.0" encoding="utf-8"?>
<svg version="1.1" xmlns:xlink="http://www.w3.org/1999/xlink" width="202px" height="39px" xmlns="http://www.w3.org/2000/svg">
  <defs>
    <mask fill="white" id="clip120">
      <path d="M 0.480000000000018 38.68  C 0.480000000000018 38.68  0.480000000000018 0.779999999999973  0.480000000000018 0.779999999999973  C 0.480000000000018 0.779999999999973  201.08 0.779999999999973  201.08 0.779999999999973  C 201.08 0.779999999999973  201.08 38.68  201.08 38.68  C 201.08 38.68  0.480000000000018 38.68  0.480000000000018 38.68  Z " fill-rule="evenodd" />
    </mask>
  </defs>
  <g transform="matrix(1 0 0 1 -335 -816 )">
    <path d="M 0.480000000000018 38.68  C 0.480000000000018 38.68  0.480000000000018 0.779999999999973  0.480000000000018 0.779999999999973  C 0.480000000000018 0.779999999999973  201.08 0.779999999999973  201.08 0.779999999999973  C 201.08 0.779999999999973  201.08 38.68  201.08 38.68  C 201.08 38.68  0.480000000000018 38.68  0.480000000000018 38.68  Z " fill-rule="nonzero" fill="#302f34" stroke="none" transform="matrix(1 0 0 1 335 816 )" />
    <path d="M 0.480000000000018 38.68  C 0.480000000000018 38.68  0.480000000000018 0.779999999999973  0.480000000000018 0.779999999999973  C 0.480000000000018 0.779999999999973  201.08 0.779999999999973  201.08 0.779999999999973  C 201.08 0.779999999999973  201.08 38.68  201.08 38.68  C 201.08 38.68  0.480000000000018 38.68  0.480000000000018 38.68  Z " stroke-width="2" stroke="#302f34" fill="none" transform="matrix(1 0 0 1 335 816 )" mask="url(#clip120)" />
  </g>
</svg>