<?xml version="1.0" encoding="utf-8"?>
<svg version="1.1" xmlns:xlink="http://www.w3.org/1999/xlink" width="154px" height="39px" xmlns="http://www.w3.org/2000/svg">
  <defs>
    <mask fill="white" id="clip125">
      <path d="M 0.689999999999998 38.75  C 0.689999999999998 38.75  0.689999999999998 0.849999999999994  0.689999999999998 0.849999999999994  C 0.689999999999998 0.849999999999994  153.69 0.849999999999994  153.69 0.849999999999994  C 153.69 0.849999999999994  153.69 38.75  153.69 38.75  C 153.69 38.75  0.689999999999998 38.75  0.689999999999998 38.75  Z " fill-rule="evenodd" />
    </mask>
  </defs>
  <g transform="matrix(1 0 0 1 -216 -683 )">
    <path d="M 0.689999999999998 38.75  C 0.689999999999998 38.75  0.689999999999998 0.849999999999994  0.689999999999998 0.849999999999994  C 0.689999999999998 0.849999999999994  153.69 0.849999999999994  153.69 0.849999999999994  C 153.69 0.849999999999994  153.69 38.75  153.69 38.75  C 153.69 38.75  0.689999999999998 38.75  0.689999999999998 38.75  Z " fill-rule="nonzero" fill="#c33736" stroke="none" transform="matrix(1 0 0 1 216 683 )" />
    <path d="M 0.689999999999998 38.75  C 0.689999999999998 38.75  0.689999999999998 0.849999999999994  0.689999999999998 0.849999999999994  C 0.689999999999998 0.849999999999994  153.69 0.849999999999994  153.69 0.849999999999994  C 153.69 0.849999999999994  153.69 38.75  153.69 38.75  C 153.69 38.75  0.689999999999998 38.75  0.689999999999998 38.75  Z " stroke-width="2" stroke="#c33736" fill="none" transform="matrix(1 0 0 1 216 683 )" mask="url(#clip125)" />
  </g>
</svg>