<?xml version="1.0" encoding="utf-8"?>
<svg version="1.1" xmlns:xlink="http://www.w3.org/1999/xlink" width="216px" height="39px" xmlns="http://www.w3.org/2000/svg">
  <defs>
    <mask fill="white" id="clip243">
      <path d="M 0.219999999999999 38.14  C 0.219999999999999 38.14  0.219999999999999 0.240000000000009  0.219999999999999 0.240000000000009  C 0.219999999999999 0.240000000000009  215.02 0.240000000000009  215.02 0.240000000000009  C 215.02 0.240000000000009  215.02 38.14  215.02 38.14  C 215.02 38.14  0.219999999999999 38.14  0.219999999999999 38.14  Z " fill-rule="evenodd" />
    </mask>
  </defs>
  <g transform="matrix(1 0 0 1 -321 -883 )">
    <path d="M 0.219999999999999 38.14  C 0.219999999999999 38.14  0.219999999999999 0.240000000000009  0.219999999999999 0.240000000000009  C 0.219999999999999 0.240000000000009  215.02 0.240000000000009  215.02 0.240000000000009  C 215.02 0.240000000000009  215.02 38.14  215.02 38.14  C 215.02 38.14  0.219999999999999 38.14  0.219999999999999 38.14  Z " fill-rule="nonzero" fill="#302f34" stroke="none" transform="matrix(1 0 0 1 321 883 )" />
    <path d="M 0.219999999999999 38.14  C 0.219999999999999 38.14  0.219999999999999 0.240000000000009  0.219999999999999 0.240000000000009  C 0.219999999999999 0.240000000000009  215.02 0.240000000000009  215.02 0.240000000000009  C 215.02 0.240000000000009  215.02 38.14  215.02 38.14  C 215.02 38.14  0.219999999999999 38.14  0.219999999999999 38.14  Z " stroke-width="2" stroke="#302f34" fill="none" transform="matrix(1 0 0 1 321 883 )" mask="url(#clip243)" />
  </g>
</svg>