<?xml version="1.0" encoding="utf-8"?>
<svg version="1.1" xmlns:xlink="http://www.w3.org/1999/xlink" width="109px" height="24px" xmlns="http://www.w3.org/2000/svg">
  <defs>
    <mask fill="white" id="clip175">
      <path d="M 0.269999999999982 3.98000000000002  C 0.269999999999982 1.88  1.97000000000003 0.180000000000007  3.97000000000003 0.180000000000007  C 3.97000000000003 0.180000000000007  104.57 0.180000000000007  104.57 0.180000000000007  C 106.67 0.180000000000007  108.37 1.88  108.37 3.98000000000002  C 108.37 3.98000000000002  108.37 23.18  108.37 23.18  C 108.37 23.18  0.269999999999982 23.18  0.269999999999982 23.18  C 0.269999999999982 23.18  0.269999999999982 3.98000000000002  0.269999999999982 3.98000000000002  Z " fill-rule="evenodd" />
    </mask>
  </defs>
  <g transform="matrix(1 0 0 1 -790 -705 )">
    <path d="M 0.269999999999982 3.98000000000002  C 0.269999999999982 1.88  1.97000000000003 0.180000000000007  3.97000000000003 0.180000000000007  C 3.97000000000003 0.180000000000007  104.57 0.180000000000007  104.57 0.180000000000007  C 106.67 0.180000000000007  108.37 1.88  108.37 3.98000000000002  C 108.37 3.98000000000002  108.37 23.18  108.37 23.18  C 108.37 23.18  0.269999999999982 23.18  0.269999999999982 23.18  C 0.269999999999982 23.18  0.269999999999982 3.98000000000002  0.269999999999982 3.98000000000002  Z " fill-rule="nonzero" fill="#c33736" stroke="none" transform="matrix(1 0 0 1 790 705 )" />
    <path d="M 0.269999999999982 3.98000000000002  C 0.269999999999982 1.88  1.97000000000003 0.180000000000007  3.97000000000003 0.180000000000007  C 3.97000000000003 0.180000000000007  104.57 0.180000000000007  104.57 0.180000000000007  C 106.67 0.180000000000007  108.37 1.88  108.37 3.98000000000002  C 108.37 3.98000000000002  108.37 23.18  108.37 23.18  C 108.37 23.18  0.269999999999982 23.18  0.269999999999982 23.18  C 0.269999999999982 23.18  0.269999999999982 3.98000000000002  0.269999999999982 3.98000000000002  Z " stroke-width="2" stroke="#c33736" fill="none" transform="matrix(1 0 0 1 790 705 )" mask="url(#clip175)" />
  </g>
</svg>