<?xml version="1.0" encoding="utf-8"?>
<svg version="1.1" xmlns:xlink="http://www.w3.org/1999/xlink" width="30px" height="216px" xmlns="http://www.w3.org/2000/svg">
  <defs>
    <mask fill="white" id="clip197">
      <path d="M 0.550000000000011 215.22  C 0.550000000000011 215.22  0.550000000000011 0.920000000000016  0.550000000000011 0.920000000000016  C 0.550000000000011 0.920000000000016  29.15 0.920000000000016  29.15 0.920000000000016  C 29.15 0.920000000000016  29.15 215.22  29.15 215.22  C 29.15 215.22  0.550000000000011 215.22  0.550000000000011 215.22  Z " fill-rule="evenodd" />
    </mask>
  </defs>
  <g transform="matrix(1 0 0 1 -351 -2503 )">
    <path d="M 0.550000000000011 215.22  C 0.550000000000011 215.22  0.550000000000011 0.920000000000016  0.550000000000011 0.920000000000016  C 0.550000000000011 0.920000000000016  29.15 0.920000000000016  29.15 0.920000000000016  C 29.15 0.920000000000016  29.15 215.22  29.15 215.22  C 29.15 215.22  0.550000000000011 215.22  0.550000000000011 215.22  Z " fill-rule="nonzero" fill="#55bfca" stroke="none" transform="matrix(1 0 0 1 351 2503 )" />
    <path d="M 0.550000000000011 215.22  C 0.550000000000011 215.22  0.550000000000011 0.920000000000016  0.550000000000011 0.920000000000016  C 0.550000000000011 0.920000000000016  29.15 0.920000000000016  29.15 0.920000000000016  C 29.15 0.920000000000016  29.15 215.22  29.15 215.22  C 29.15 215.22  0.550000000000011 215.22  0.550000000000011 215.22  Z " stroke-width="2" stroke="#55bfca" fill="none" transform="matrix(1 0 0 1 351 2503 )" mask="url(#clip197)" />
  </g>
</svg>