<?xml version="1.0" encoding="utf-8"?>
<svg version="1.1" xmlns:xlink="http://www.w3.org/1999/xlink" width="30px" height="117px" xmlns="http://www.w3.org/2000/svg">
  <defs>
    <mask fill="white" id="clip205">
      <path d="M 0.430000000000064 116.14  C 0.430000000000064 116.14  0.430000000000064 0.339999999999975  0.430000000000064 0.339999999999975  C 0.430000000000064 0.339999999999975  29.0300000000001 0.339999999999975  29.0300000000001 0.339999999999975  C 29.0300000000001 0.339999999999975  29.0300000000001 116.14  29.0300000000001 116.14  C 29.0300000000001 116.14  0.430000000000064 116.14  0.430000000000064 116.14  Z " fill-rule="evenodd" />
    </mask>
  </defs>
  <g transform="matrix(1 0 0 1 -646 -2602 )">
    <path d="M 0.430000000000064 116.14  C 0.430000000000064 116.14  0.430000000000064 0.339999999999975  0.430000000000064 0.339999999999975  C 0.430000000000064 0.339999999999975  29.0300000000001 0.339999999999975  29.0300000000001 0.339999999999975  C 29.0300000000001 0.339999999999975  29.0300000000001 116.14  29.0300000000001 116.14  C 29.0300000000001 116.14  0.430000000000064 116.14  0.430000000000064 116.14  Z " fill-rule="nonzero" fill="#bdecf8" stroke="none" transform="matrix(1 0 0 1 646 2602 )" />
    <path d="M 0.430000000000064 116.14  C 0.430000000000064 116.14  0.430000000000064 0.339999999999975  0.430000000000064 0.339999999999975  C 0.430000000000064 0.339999999999975  29.0300000000001 0.339999999999975  29.0300000000001 0.339999999999975  C 29.0300000000001 0.339999999999975  29.0300000000001 116.14  29.0300000000001 116.14  C 29.0300000000001 116.14  0.430000000000064 116.14  0.430000000000064 116.14  Z " stroke-width="2" stroke="#bdecf8" fill="none" transform="matrix(1 0 0 1 646 2602 )" mask="url(#clip205)" />
  </g>
</svg>