<?xml version="1.0" encoding="utf-8"?>
<svg version="1.1" xmlns:xlink="http://www.w3.org/1999/xlink" width="30px" height="98px" xmlns="http://www.w3.org/2000/svg">
  <defs>
    <mask fill="white" id="clip162">
      <path d="M 0.990000000000009 97.18  C 0.990000000000009 97.18  0.990000000000009 0.480000000000018  0.990000000000009 0.480000000000018  C 0.990000000000009 0.480000000000018  29.59 0.480000000000018  29.59 0.480000000000018  C 29.59 0.480000000000018  29.59 97.18  29.59 97.18  C 29.59 97.18  0.990000000000009 97.18  0.990000000000009 97.18  Z " fill-rule="evenodd" />
    </mask>
  </defs>
  <g transform="matrix(1 0 0 1 -673 -2621 )">
    <path d="M 0.990000000000009 97.18  C 0.990000000000009 97.18  0.990000000000009 0.480000000000018  0.990000000000009 0.480000000000018  C 0.990000000000009 0.480000000000018  29.59 0.480000000000018  29.59 0.480000000000018  C 29.59 0.480000000000018  29.59 97.18  29.59 97.18  C 29.59 97.18  0.990000000000009 97.18  0.990000000000009 97.18  Z " fill-rule="nonzero" fill="#55bfca" stroke="none" transform="matrix(1 0 0 1 673 2621 )" />
    <path d="M 0.990000000000009 97.18  C 0.990000000000009 97.18  0.990000000000009 0.480000000000018  0.990000000000009 0.480000000000018  C 0.990000000000009 0.480000000000018  29.59 0.480000000000018  29.59 0.480000000000018  C 29.59 0.480000000000018  29.59 97.18  29.59 97.18  C 29.59 97.18  0.990000000000009 97.18  0.990000000000009 97.18  Z " stroke-width="2" stroke="#55bfca" fill="none" transform="matrix(1 0 0 1 673 2621 )" mask="url(#clip162)" />
  </g>
</svg>