<?xml version="1.0" encoding="utf-8"?>
<svg version="1.1" xmlns:xlink="http://www.w3.org/1999/xlink" width="30px" height="153px" xmlns="http://www.w3.org/2000/svg">
  <defs>
    <mask fill="white" id="clip305">
      <path d="M 0.600000000000023 153  C 0.600000000000023 153  0.600000000000023 0.100000000000023  0.600000000000023 0.100000000000023  C 0.600000000000023 0.100000000000023  29.2 0.100000000000023  29.2 0.100000000000023  C 29.2 0.100000000000023  29.2 153  29.2 153  C 29.2 153  0.600000000000023 153  0.600000000000023 153  Z " fill-rule="evenodd" />
    </mask>
  </defs>
  <g transform="matrix(1 0 0 1 -404 -3485 )">
    <path d="M 0.600000000000023 153  C 0.600000000000023 153  0.600000000000023 0.100000000000023  0.600000000000023 0.100000000000023  C 0.600000000000023 0.100000000000023  29.2 0.100000000000023  29.2 0.100000000000023  C 29.2 0.100000000000023  29.2 153  29.2 153  C 29.2 153  0.600000000000023 153  0.600000000000023 153  Z " fill-rule="nonzero" fill="#8ebbff" stroke="none" transform="matrix(1 0 0 1 404 3485 )" />
    <path d="M 0.600000000000023 153  C 0.600000000000023 153  0.600000000000023 0.100000000000023  0.600000000000023 0.100000000000023  C 0.600000000000023 0.100000000000023  29.2 0.100000000000023  29.2 0.100000000000023  C 29.2 0.100000000000023  29.2 153  29.2 153  C 29.2 153  0.600000000000023 153  0.600000000000023 153  Z " stroke-width="2" stroke="#8ebbff" fill="none" stroke-opacity="0.498039215686275" transform="matrix(1 0 0 1 404 3485 )" mask="url(#clip305)" />
  </g>
</svg>