<?xml version="1.0" encoding="utf-8"?>
<svg version="1.1" xmlns:xlink="http://www.w3.org/1999/xlink" width="30px" height="383px" xmlns="http://www.w3.org/2000/svg">
  <defs>
    <mask fill="white" id="clip304">
      <path d="M 0.680000000000007 383  C 0.680000000000007 383  0.680000000000007 0.5  0.680000000000007 0.5  C 0.680000000000007 0.5  29.28 0.5  29.28 0.5  C 29.28 0.5  29.28 383  29.28 383  C 29.28 383  0.680000000000007 383  0.680000000000007 383  Z " fill-rule="evenodd" />
    </mask>
  </defs>
  <g transform="matrix(1 0 0 1 -324 -3255 )">
    <path d="M 0.680000000000007 383  C 0.680000000000007 383  0.680000000000007 0.5  0.680000000000007 0.5  C 0.680000000000007 0.5  29.28 0.5  29.28 0.5  C 29.28 0.5  29.28 383  29.28 383  C 29.28 383  0.680000000000007 383  0.680000000000007 383  Z " fill-rule="nonzero" fill="#595757" stroke="none" transform="matrix(1 0 0 1 324 3255 )" />
    <path d="M 0.680000000000007 383  C 0.680000000000007 383  0.680000000000007 0.5  0.680000000000007 0.5  C 0.680000000000007 0.5  29.28 0.5  29.28 0.5  C 29.28 0.5  29.28 383  29.28 383  C 29.28 383  0.680000000000007 383  0.680000000000007 383  Z " stroke-width="2" stroke="#595757" fill="none" stroke-opacity="0.498039215686275" transform="matrix(1 0 0 1 324 3255 )" mask="url(#clip304)" />
  </g>
</svg>