<?xml version="1.0" encoding="utf-8"?>
<svg version="1.1" xmlns:xlink="http://www.w3.org/1999/xlink" width="159px" height="39px" xmlns="http://www.w3.org/2000/svg">
  <defs>
    <mask fill="white" id="clip126">
      <path d="M 0.740000000000009 38.75  C 0.740000000000009 38.75  0.740000000000009 0.849999999999994  0.740000000000009 0.849999999999994  C 0.740000000000009 0.849999999999994  158.54 0.849999999999994  158.54 0.849999999999994  C 158.54 0.849999999999994  158.54 38.75  158.54 38.75  C 158.54 38.75  0.740000000000009 38.75  0.740000000000009 38.75  Z " fill-rule="evenodd" />
    </mask>
  </defs>
  <g transform="matrix(1 0 0 1 -368 -683 )">
    <path d="M 0.740000000000009 38.75  C 0.740000000000009 38.75  0.740000000000009 0.849999999999994  0.740000000000009 0.849999999999994  C 0.740000000000009 0.849999999999994  158.54 0.849999999999994  158.54 0.849999999999994  C 158.54 0.849999999999994  158.54 38.75  158.54 38.75  C 158.54 38.75  0.740000000000009 38.75  0.740000000000009 38.75  Z " fill-rule="nonzero" fill="#302f34" stroke="none" transform="matrix(1 0 0 1 368 683 )" />
    <path d="M 0.740000000000009 38.75  C 0.740000000000009 38.75  0.740000000000009 0.849999999999994  0.740000000000009 0.849999999999994  C 0.740000000000009 0.849999999999994  158.54 0.849999999999994  158.54 0.849999999999994  C 158.54 0.849999999999994  158.54 38.75  158.54 38.75  C 158.54 38.75  0.740000000000009 38.75  0.740000000000009 38.75  Z " stroke-width="2" stroke="#302f34" fill="none" transform="matrix(1 0 0 1 368 683 )" mask="url(#clip126)" />
  </g>
</svg>