<?xml version="1.0" encoding="utf-8"?>
<svg version="1.1" xmlns:xlink="http://www.w3.org/1999/xlink" width="29px" height="134px" xmlns="http://www.w3.org/2000/svg">
  <defs>
    <mask fill="white" id="clip229">
      <path d="M 0.0399999999999636 133.06  C 0.0399999999999636 133.06  0.0399999999999636 0.360000000000014  0.0399999999999636 0.360000000000014  C 0.0399999999999636 0.360000000000014  28.64 0.360000000000014  28.64 0.360000000000014  C 28.64 0.360000000000014  28.64 133.06  28.64 133.06  C 28.64 133.06  0.0399999999999636 133.06  0.0399999999999636 133.06  Z " fill-rule="evenodd" />
    </mask>
  </defs>
  <g transform="matrix(1 0 0 1 -727 -3505 )">
    <path d="M 0.0399999999999636 133.06  C 0.0399999999999636 133.06  0.0399999999999636 0.360000000000014  0.0399999999999636 0.360000000000014  C 0.0399999999999636 0.360000000000014  28.64 0.360000000000014  28.64 0.360000000000014  C 28.64 0.360000000000014  28.64 133.06  28.64 133.06  C 28.64 133.06  0.0399999999999636 133.06  0.0399999999999636 133.06  Z " fill-rule="nonzero" fill="#8ebbff" stroke="none" transform="matrix(1 0 0 1 727 3505 )" />
    <path d="M 0.0399999999999636 133.06  C 0.0399999999999636 133.06  0.0399999999999636 0.360000000000014  0.0399999999999636 0.360000000000014  C 0.0399999999999636 0.360000000000014  28.64 0.360000000000014  28.64 0.360000000000014  C 28.64 0.360000000000014  28.64 133.06  28.64 133.06  C 28.64 133.06  0.0399999999999636 133.06  0.0399999999999636 133.06  Z " stroke-width="2" stroke="#8ebbff" fill="none" stroke-opacity="0.498039215686275" transform="matrix(1 0 0 1 727 3505 )" mask="url(#clip229)" />
  </g>
</svg>