<?xml version="1.0" encoding="utf-8"?>
<svg version="1.1" xmlns:xlink="http://www.w3.org/1999/xlink" width="29px" height="259px" xmlns="http://www.w3.org/2000/svg">
  <defs>
    <mask fill="white" id="clip232">
      <path d="M 0.0900000000000318 258.03  C 0.0900000000000318 258.03  0.0900000000000318 0.430000000000007  0.0900000000000318 0.430000000000007  C 0.0900000000000318 0.430000000000007  28.6900000000001 0.430000000000007  28.6900000000001 0.430000000000007  C 28.6900000000001 0.430000000000007  28.6900000000001 258.03  28.6900000000001 258.03  C 28.6900000000001 258.03  0.0900000000000318 258.03  0.0900000000000318 258.03  Z " fill-rule="evenodd" />
    </mask>
  </defs>
  <g transform="matrix(1 0 0 1 -862 -3380 )">
    <path d="M 0.0900000000000318 258.03  C 0.0900000000000318 258.03  0.0900000000000318 0.430000000000007  0.0900000000000318 0.430000000000007  C 0.0900000000000318 0.430000000000007  28.6900000000001 0.430000000000007  28.6900000000001 0.430000000000007  C 28.6900000000001 0.430000000000007  28.6900000000001 258.03  28.6900000000001 258.03  C 28.6900000000001 258.03  0.0900000000000318 258.03  0.0900000000000318 258.03  Z " fill-rule="nonzero" fill="#595757" stroke="none" transform="matrix(1 0 0 1 862 3380 )" />
    <path d="M 0.0900000000000318 258.03  C 0.0900000000000318 258.03  0.0900000000000318 0.430000000000007  0.0900000000000318 0.430000000000007  C 0.0900000000000318 0.430000000000007  28.6900000000001 0.430000000000007  28.6900000000001 0.430000000000007  C 28.6900000000001 0.430000000000007  28.6900000000001 258.03  28.6900000000001 258.03  C 28.6900000000001 258.03  0.0900000000000318 258.03  0.0900000000000318 258.03  Z " stroke-width="2" stroke="#595757" fill="none" stroke-opacity="0.498039215686275" transform="matrix(1 0 0 1 862 3380 )" mask="url(#clip232)" />
  </g>
</svg>