<?xml version="1.0" encoding="utf-8"?>
<svg version="1.1" xmlns:xlink="http://www.w3.org/1999/xlink" width="29px" height="192px" xmlns="http://www.w3.org/2000/svg">
  <defs>
    <mask fill="white" id="clip315">
      <path d="M 0 191.06  C 0 191.06  0 0.960000000000036  0 0.960000000000036  C 0 0.960000000000036  28.5999999999999 0.960000000000036  28.5999999999999 0.960000000000036  C 28.5999999999999 0.960000000000036  28.5999999999999 191.06  28.5999999999999 191.06  C 28.5999999999999 191.06  0 191.06  0 191.06  Z " fill-rule="evenodd" />
    </mask>
  </defs>
  <g transform="matrix(1 0 0 1 -942 -3447 )">
    <path d="M 0 191.06  C 0 191.06  0 0.960000000000036  0 0.960000000000036  C 0 0.960000000000036  28.5999999999999 0.960000000000036  28.5999999999999 0.960000000000036  C 28.5999999999999 0.960000000000036  28.5999999999999 191.06  28.5999999999999 191.06  C 28.5999999999999 191.06  0 191.06  0 191.06  Z " fill-rule="nonzero" fill="#8ebbff" stroke="none" transform="matrix(1 0 0 1 942 3447 )" />
    <path d="M 0 191.06  C 0 191.06  0 0.960000000000036  0 0.960000000000036  C 0 0.960000000000036  28.5999999999999 0.960000000000036  28.5999999999999 0.960000000000036  C 28.5999999999999 0.960000000000036  28.5999999999999 191.06  28.5999999999999 191.06  C 28.5999999999999 191.06  0 191.06  0 191.06  Z " stroke-width="2" stroke="#8ebbff" fill="none" stroke-opacity="0.498039215686275" transform="matrix(1 0 0 1 942 3447 )" mask="url(#clip315)" />
  </g>
</svg>