<?xml version="1.0" encoding="utf-8"?>
<svg version="1.1" xmlns:xlink="http://www.w3.org/1999/xlink" width="29px" height="323px" xmlns="http://www.w3.org/2000/svg">
  <defs>
    <mask fill="white" id="clip306">
      <path d="M 0.159999999999968 322.08  C 0.159999999999968 322.08  0.159999999999968 0.280000000000001  0.159999999999968 0.280000000000001  C 0.159999999999968 0.280000000000001  28.76 0.280000000000001  28.76 0.280000000000001  C 28.76 0.280000000000001  28.76 322.08  28.76 322.08  C 28.76 322.08  0.159999999999968 322.08  0.159999999999968 322.08  Z " fill-rule="evenodd" />
    </mask>
  </defs>
  <g transform="matrix(1 0 0 1 -432 -3316 )">
    <path d="M 0.159999999999968 322.08  C 0.159999999999968 322.08  0.159999999999968 0.280000000000001  0.159999999999968 0.280000000000001  C 0.159999999999968 0.280000000000001  28.76 0.280000000000001  28.76 0.280000000000001  C 28.76 0.280000000000001  28.76 322.08  28.76 322.08  C 28.76 322.08  0.159999999999968 322.08  0.159999999999968 322.08  Z " fill-rule="nonzero" fill="#595757" stroke="none" transform="matrix(1 0 0 1 432 3316 )" />
    <path d="M 0.159999999999968 322.08  C 0.159999999999968 322.08  0.159999999999968 0.280000000000001  0.159999999999968 0.280000000000001  C 0.159999999999968 0.280000000000001  28.76 0.280000000000001  28.76 0.280000000000001  C 28.76 0.280000000000001  28.76 322.08  28.76 322.08  C 28.76 322.08  0.159999999999968 322.08  0.159999999999968 322.08  Z " stroke-width="2" stroke="#595757" fill="none" stroke-opacity="0.498039215686275" transform="matrix(1 0 0 1 432 3316 )" mask="url(#clip306)" />
  </g>
</svg>