<?xml version="1.0" encoding="utf-8"?>
<svg version="1.1" xmlns:xlink="http://www.w3.org/1999/xlink" width="9px" height="10px" xmlns="http://www.w3.org/2000/svg">
  <defs>
    <mask fill="white" id="clip251">
      <path d="M 9 4.40000000000003  C 9 2.20000000000005  7.20000000000005 0.400000000000034  5 0.400000000000034  C 2.79999999999995 0.400000000000034  0 2.20000000000005  0 4.40000000000003  C 0 6.60000000000002  2.79999999999995 9.40000000000003  5 9.40000000000003  C 7.20000000000005 9.40000000000003  9 6.60000000000002  9 4.40000000000003  Z " fill-rule="evenodd" />
    </mask>
  </defs>
  <g transform="matrix(1 0 0 1 -657 -4553 )">
    <path d="M 9 4.40000000000003  C 9 2.20000000000005  7.20000000000005 0.400000000000034  5 0.400000000000034  C 2.79999999999995 0.400000000000034  0 2.20000000000005  0 4.40000000000003  C 0 6.60000000000002  2.79999999999995 9.40000000000003  5 9.40000000000003  C 7.20000000000005 9.40000000000003  9 6.60000000000002  9 4.40000000000003  Z " fill-rule="nonzero" fill="#595757" stroke="none" transform="matrix(1 0 0 1 657 4553 )" />
    <path d="M 9 4.40000000000003  C 9 2.20000000000005  7.20000000000005 0.400000000000034  5 0.400000000000034  C 2.79999999999995 0.400000000000034  0 2.20000000000005  0 4.40000000000003  C 0 6.60000000000002  2.79999999999995 9.40000000000003  5 9.40000000000003  C 7.20000000000005 9.40000000000003  9 6.60000000000002  9 4.40000000000003  Z " stroke-width="2" stroke="#595757" fill="none" transform="matrix(1 0 0 1 657 4553 )" mask="url(#clip251)" />
  </g>
</svg>