<?xml version="1.0" encoding="utf-8"?>
<svg version="1.1" xmlns:xlink="http://www.w3.org/1999/xlink" width="30px" height="172px" xmlns="http://www.w3.org/2000/svg">
  <defs>
    <mask fill="white" id="clip218">
      <path d="M 0.990000000000009 171.16  C 0.990000000000009 171.16  0.990000000000009 0.659999999999968  0.990000000000009 0.659999999999968  C 0.990000000000009 0.659999999999968  29.59 0.659999999999968  29.59 0.659999999999968  C 29.59 0.659999999999968  29.59 171.16  29.59 171.16  C 29.59 171.16  0.990000000000009 171.16  0.990000000000009 171.16  Z " fill-rule="evenodd" />
    </mask>
  </defs>
  <g transform="matrix(1 0 0 1 -323 -2547 )">
    <path d="M 0.990000000000009 171.16  C 0.990000000000009 171.16  0.990000000000009 0.659999999999968  0.990000000000009 0.659999999999968  C 0.990000000000009 0.659999999999968  29.59 0.659999999999968  29.59 0.659999999999968  C 29.59 0.659999999999968  29.59 171.16  29.59 171.16  C 29.59 171.16  0.990000000000009 171.16  0.990000000000009 171.16  Z " fill-rule="nonzero" fill="#bdecf8" stroke="none" transform="matrix(1 0 0 1 323 2547 )" />
    <path d="M 0.990000000000009 171.16  C 0.990000000000009 171.16  0.990000000000009 0.659999999999968  0.990000000000009 0.659999999999968  C 0.990000000000009 0.659999999999968  29.59 0.659999999999968  29.59 0.659999999999968  C 29.59 0.659999999999968  29.59 171.16  29.59 171.16  C 29.59 171.16  0.990000000000009 171.16  0.990000000000009 171.16  Z " stroke-width="2" stroke="#bdecf8" fill="none" transform="matrix(1 0 0 1 323 2547 )" mask="url(#clip218)" />
  </g>
</svg>