<?xml version="1.0" encoding="utf-8"?>
<svg version="1.1" xmlns:xlink="http://www.w3.org/1999/xlink" width="24px" height="24px" xmlns="http://www.w3.org/2000/svg">
  <defs>
    <mask fill="white" id="clip279">
      <path d="M 12.33 0.539999999999964  C 18.43 0.539999999999964  23.33 6.43999999999994  23.33 12.54  C 23.33 18.64  18.43 23.54  12.33 23.54  C 6.22999999999996 23.54  0.329999999999984 18.64  0.329999999999984 12.54  C 0.329999999999984 6.43999999999994  6.22999999999996 0.539999999999964  12.33 0.539999999999964  Z " fill-rule="evenodd" />
    </mask>
  </defs>
  <g transform="matrix(1 0 0 1 -340 -5639 )">
    <path d="M 12.33 0.539999999999964  C 18.43 0.539999999999964  23.33 6.43999999999994  23.33 12.54  C 23.33 18.64  18.43 23.54  12.33 23.54  C 6.22999999999996 23.54  0.329999999999984 18.64  0.329999999999984 12.54  C 0.329999999999984 6.43999999999994  6.22999999999996 0.539999999999964  12.33 0.539999999999964  Z " fill-rule="nonzero" fill="#8acf57" stroke="none" transform="matrix(1 0 0 1 340 5639 )" />
    <path d="M 12.33 0.539999999999964  C 18.43 0.539999999999964  23.33 6.43999999999994  23.33 12.54  C 23.33 18.64  18.43 23.54  12.33 23.54  C 6.22999999999996 23.54  0.329999999999984 18.64  0.329999999999984 12.54  C 0.329999999999984 6.43999999999994  6.22999999999996 0.539999999999964  12.33 0.539999999999964  Z " stroke-width="2" stroke="#82cc4c" fill="none" transform="matrix(1 0 0 1 340 5639 )" mask="url(#clip279)" />
  </g>
</svg>