<?xml version="1.0" encoding="utf-8"?>
<svg version="1.1" xmlns:xlink="http://www.w3.org/1999/xlink" width="144px" height="98px" xmlns="http://www.w3.org/2000/svg">
  <defs>
    <mask fill="white" id="clip277">
      <path d="M 143.16 2.91999999999996  C 143.16 2.91999999999996  36.26 97.62  36.26 97.62  C 14.16 72.72  0.759999999999991 38.92  0.759999999999991 2.91999999999996  C 0.759999999999991 2.21999999999997  0.759999999999991 1.51999999999998  0.759999999999991 0.819999999999993  C 0.759999999999991 0.819999999999993  143.16 2.91999999999996  143.16 2.91999999999996  Z " fill-rule="evenodd" />
    </mask>
  </defs>
  <g transform="matrix(1 0 0 1 -505 -5327 )">
    <path d="M 143.16 2.91999999999996  C 143.16 2.91999999999996  36.26 97.62  36.26 97.62  C 14.16 72.72  0.759999999999991 38.92  0.759999999999991 2.91999999999996  C 0.759999999999991 2.21999999999997  0.759999999999991 1.51999999999998  0.759999999999991 0.819999999999993  C 0.759999999999991 0.819999999999993  143.16 2.91999999999996  143.16 2.91999999999996  Z " fill-rule="nonzero" fill="#add8e6" stroke="none" transform="matrix(1 0 0 1 505 5327 )" />
    <path d="M 143.16 2.91999999999996  C 143.16 2.91999999999996  36.26 97.62  36.26 97.62  C 14.16 72.72  0.759999999999991 38.92  0.759999999999991 2.91999999999996  C 0.759999999999991 2.21999999999997  0.759999999999991 1.51999999999998  0.759999999999991 0.819999999999993  C 0.759999999999991 0.819999999999993  143.16 2.91999999999996  143.16 2.91999999999996  Z " stroke-width="2" stroke="#9ed1e1" fill="none" transform="matrix(1 0 0 1 505 5327 )" mask="url(#clip277)" />
  </g>
</svg>