<?xml version="1.0" encoding="utf-8"?>
<svg version="1.1" xmlns:xlink="http://www.w3.org/1999/xlink" width="108px" height="128px" xmlns="http://www.w3.org/2000/svg">
  <defs>
    <mask fill="white" id="clip358">
      <path d="M 107.16 0.919999999999959  C 107.16 0.919999999999959  41.26 127.52  41.26 127.52  C 25.66 119.52  11.76 108.62  0.259999999999991 95.62  C 0.259999999999991 95.62  107.16 0.919999999999959  107.16 0.919999999999959  Z " fill-rule="evenodd" />
    </mask>
  </defs>
  <g transform="matrix(1 0 0 1 -541 -5329 )">
    <path d="M 107.16 0.919999999999959  C 107.16 0.919999999999959  41.26 127.52  41.26 127.52  C 25.66 119.52  11.76 108.62  0.259999999999991 95.62  C 0.259999999999991 95.62  107.16 0.919999999999959  107.16 0.919999999999959  Z " fill-rule="nonzero" fill="#00bfff" stroke="none" transform="matrix(1 0 0 1 541 5329 )" />
    <path d="M 107.16 0.919999999999959  C 107.16 0.919999999999959  41.26 127.52  41.26 127.52  C 25.66 119.52  11.76 108.62  0.259999999999991 95.62  C 0.259999999999991 95.62  107.16 0.919999999999959  107.16 0.919999999999959  Z " stroke-width="2" stroke="#00b5f2" fill="none" transform="matrix(1 0 0 1 541 5329 )" mask="url(#clip358)" />
  </g>
</svg>