<?xml version="1.0" encoding="utf-8"?>
<svg version="1.1" xmlns:xlink="http://www.w3.org/1999/xlink" width="30px" height="144px" xmlns="http://www.w3.org/2000/svg">
  <defs>
    <mask fill="white" id="clip164">
      <path d="M 0.910000000000082 143.2  C 0.910000000000082 143.2  0.910000000000082 0  0.910000000000082 0  C 0.910000000000082 0  29.5100000000001 0  29.5100000000001 0  C 29.5100000000001 0  29.5100000000001 143.2  29.5100000000001 143.2  C 29.5100000000001 143.2  0.910000000000082 143.2  0.910000000000082 143.2  Z " fill-rule="evenodd" />
    </mask>
  </defs>
  <g transform="matrix(1 0 0 1 -753 -2575 )">
    <path d="M 0.910000000000082 143.2  C 0.910000000000082 143.2  0.910000000000082 0  0.910000000000082 0  C 0.910000000000082 0  29.5100000000001 0  29.5100000000001 0  C 29.5100000000001 0  29.5100000000001 143.2  29.5100000000001 143.2  C 29.5100000000001 143.2  0.910000000000082 143.2  0.910000000000082 143.2  Z " fill-rule="nonzero" fill="#bdecf8" stroke="none" transform="matrix(1 0 0 1 753 2575 )" />
    <path d="M 0.910000000000082 143.2  C 0.910000000000082 143.2  0.910000000000082 0  0.910000000000082 0  C 0.910000000000082 0  29.5100000000001 0  29.5100000000001 0  C 29.5100000000001 0  29.5100000000001 143.2  29.5100000000001 143.2  C 29.5100000000001 143.2  0.910000000000082 143.2  0.910000000000082 143.2  Z " stroke-width="2" stroke="#bdecf8" fill="none" transform="matrix(1 0 0 1 753 2575 )" mask="url(#clip164)" />
  </g>
</svg>