<?xml version="1.0" encoding="utf-8"?>
<svg version="1.1" xmlns:xlink="http://www.w3.org/1999/xlink" width="55px" height="96px" xmlns="http://www.w3.org/2000/svg">
  <defs>
    <mask fill="white" id="clip436">
      <path d="M 54.55 71.0699999999999  C 54.55 71.0699999999999  35.15 95.0699999999999  35.15 95.0699999999999  C 14.75 78.5699999999999  0.75 52.27  0.75 24.0700000000001  C 0.75 15.97  1.85000000000002 8.07000000000005  3.85000000000002 0.669999999999959  C 3.85000000000002 0.669999999999959  34.65 8.66999999999996  34.65 8.66999999999996  C 33.35 13.5700000000001  32.65 18.67  32.65 24.0700000000001  C 32.65 42.67  41.15 60.27  54.55 71.0699999999999  Z " fill-rule="evenodd" />
    </mask>
  </defs>
  <g transform="matrix(1 0 0 1 -621 -7381 )">
    <path d="M 54.55 71.0699999999999  C 54.55 71.0699999999999  35.15 95.0699999999999  35.15 95.0699999999999  C 14.75 78.5699999999999  0.75 52.27  0.75 24.0700000000001  C 0.75 15.97  1.85000000000002 8.07000000000005  3.85000000000002 0.669999999999959  C 3.85000000000002 0.669999999999959  34.65 8.66999999999996  34.65 8.66999999999996  C 33.35 13.5700000000001  32.65 18.67  32.65 24.0700000000001  C 32.65 42.67  41.15 60.27  54.55 71.0699999999999  Z " fill-rule="nonzero" fill="#64c5c5" stroke="none" transform="matrix(1 0 0 1 621 7381 )" />
    <path d="M 54.55 71.0699999999999  C 54.55 71.0699999999999  35.15 95.0699999999999  35.15 95.0699999999999  C 14.75 78.5699999999999  0.75 52.27  0.75 24.0700000000001  C 0.75 15.97  1.85000000000002 8.07000000000005  3.85000000000002 0.669999999999959  C 3.85000000000002 0.669999999999959  34.65 8.66999999999996  34.65 8.66999999999996  C 33.35 13.5700000000001  32.65 18.67  32.65 24.0700000000001  C 32.65 42.67  41.15 60.27  54.55 71.0699999999999  Z " stroke-width="2" stroke="#64c5c5" fill="none" transform="matrix(1 0 0 1 621 7381 )" mask="url(#clip436)" />
  </g>
</svg>