<?xml version="1.0" encoding="utf-8"?>
<svg version="1.1" xmlns:xlink="http://www.w3.org/1999/xlink" width="105px" height="105px" xmlns="http://www.w3.org/2000/svg">
  <defs>
    <mask fill="white" id="clip376">
      <path d="M 0.5 51.91  C 0.5 51.91  0.5 0.409999999999997  0.5 0.409999999999997  C 57.4 0.409999999999997  104.5 47.51  104.5 104.51  C 104.5 104.51  53 104.51  53 104.51  C 53 76.01  28.9 51.91  0.5 51.91  Z " fill-rule="evenodd" />
    </mask>
  </defs>
  <g transform="matrix(1 0 0 1 -936 -6901 )">
    <path d="M 0.5 51.91  C 0.5 51.91  0.5 0.409999999999997  0.5 0.409999999999997  C 57.4 0.409999999999997  104.5 47.51  104.5 104.51  C 104.5 104.51  53 104.51  53 104.51  C 53 76.01  28.9 51.91  0.5 51.91  Z " fill-rule="nonzero" fill="#f56582" stroke="none" transform="matrix(1 0 0 1 936 6901 )" />
    <path d="M 0.5 51.91  C 0.5 51.91  0.5 0.409999999999997  0.5 0.409999999999997  C 57.4 0.409999999999997  104.5 47.51  104.5 104.51  C 104.5 104.51  53 104.51  53 104.51  C 53 76.01  28.9 51.91  0.5 51.91  Z " stroke-width="2" stroke="#f56582" fill="none" transform="matrix(1 0 0 1 936 6901 )" mask="url(#clip376)" />
  </g>
</svg>