<?xml version="1.0" encoding="utf-8"?>
<svg version="1.1" xmlns:xlink="http://www.w3.org/1999/xlink" width="10px" height="10px" xmlns="http://www.w3.org/2000/svg">
  <defs>
    <mask fill="white" id="clip271">
      <path d="M 2.75999999999999 8.67000000000002  C 0.860000000000014 7.47000000000003  0.360000000000014 3.97000000000003  1.66000000000008 2.17000000000002  C 2.86000000000001 0.269999999999982  6.36000000000001 -0.230000000000018  8.16000000000008 1.06999999999999  C 10.0600000000001 2.26999999999998  10.5600000000001 5.76999999999998  9.25999999999999 7.56999999999999  C 8.06000000000006 9.47000000000003  4.56000000000006 9.97000000000003  2.75999999999999 8.67000000000002  Z " fill-rule="evenodd" />
    </mask>
  </defs>
  <g transform="matrix(1 0 0 1 -752 -4502 )">
    <path d="M 2.75999999999999 8.67000000000002  C 0.860000000000014 7.47000000000003  0.360000000000014 3.97000000000003  1.66000000000008 2.17000000000002  C 2.86000000000001 0.269999999999982  6.36000000000001 -0.230000000000018  8.16000000000008 1.06999999999999  C 10.0600000000001 2.26999999999998  10.5600000000001 5.76999999999998  9.25999999999999 7.56999999999999  C 8.06000000000006 9.47000000000003  4.56000000000006 9.97000000000003  2.75999999999999 8.67000000000002  Z " fill-rule="nonzero" fill="#595757" stroke="none" transform="matrix(1 0 0 1 752 4502 )" />
    <path d="M 2.75999999999999 8.67000000000002  C 0.860000000000014 7.47000000000003  0.360000000000014 3.97000000000003  1.66000000000008 2.17000000000002  C 2.86000000000001 0.269999999999982  6.36000000000001 -0.230000000000018  8.16000000000008 1.06999999999999  C 10.0600000000001 2.26999999999998  10.5600000000001 5.76999999999998  9.25999999999999 7.56999999999999  C 8.06000000000006 9.47000000000003  4.56000000000006 9.97000000000003  2.75999999999999 8.67000000000002  Z " stroke-width="2" stroke="#595757" fill="none" transform="matrix(1 0 0 1 752 4502 )" mask="url(#clip271)" />
  </g>
</svg>