<?xml version="1.0" encoding="utf-8"?>
<svg version="1.1" xmlns:xlink="http://www.w3.org/1999/xlink" width="55px" height="96px" xmlns="http://www.w3.org/2000/svg">
  <defs>
    <mask fill="white" id="clip434">
      <path d="M 20.15 8.66999999999996  C 20.15 8.66999999999996  50.95 0.669999999999959  50.95 0.669999999999959  C 52.95 8.07000000000005  54.05 15.97  54.05 24.0700000000001  C 54.05 52.27  40.05 78.5699999999999  19.65 95.0699999999999  C 19.65 95.0699999999999  0.25 71.0699999999999  0.25 71.0699999999999  C 13.65 60.27  22.15 42.67  22.15 24.0700000000001  C 22.15 18.67  21.45 13.5700000000001  20.15 8.66999999999996  Z " fill-rule="evenodd" />
    </mask>
  </defs>
  <g transform="matrix(1 0 0 1 -749 -7381 )">
    <path d="M 20.15 8.66999999999996  C 20.15 8.66999999999996  50.95 0.669999999999959  50.95 0.669999999999959  C 52.95 8.07000000000005  54.05 15.97  54.05 24.0700000000001  C 54.05 52.27  40.05 78.5699999999999  19.65 95.0699999999999  C 19.65 95.0699999999999  0.25 71.0699999999999  0.25 71.0699999999999  C 13.65 60.27  22.15 42.67  22.15 24.0700000000001  C 22.15 18.67  21.45 13.5700000000001  20.15 8.66999999999996  Z " fill-rule="nonzero" fill="#64c5c5" stroke="none" transform="matrix(1 0 0 1 749 7381 )" />
    <path d="M 20.15 8.66999999999996  C 20.15 8.66999999999996  50.95 0.669999999999959  50.95 0.669999999999959  C 52.95 8.07000000000005  54.05 15.97  54.05 24.0700000000001  C 54.05 52.27  40.05 78.5699999999999  19.65 95.0699999999999  C 19.65 95.0699999999999  0.25 71.0699999999999  0.25 71.0699999999999  C 13.65 60.27  22.15 42.67  22.15 24.0700000000001  C 22.15 18.67  21.45 13.5700000000001  20.15 8.66999999999996  Z " stroke-width="2" stroke="#64c5c5" fill="none" transform="matrix(1 0 0 1 749 7381 )" mask="url(#clip434)" />
  </g>
</svg>