<?xml version="1.0" encoding="utf-8"?>
<svg version="1.1" xmlns:xlink="http://www.w3.org/1999/xlink" width="105px" height="105px" xmlns="http://www.w3.org/2000/svg">
  <defs>
    <mask fill="white" id="clip421">
      <path d="M 53 0.509999999999991  C 53 0.509999999999991  104.5 0.509999999999991  104.5 0.509999999999991  C 104.5 57.41  57.4 104.51  0.5 104.51  C 0.5 104.51  0.5 53.01  0.5 53.01  C 28.9 53.01  53 28.91  53 0.509999999999991  Z " fill-rule="evenodd" />
    </mask>
  </defs>
  <g transform="matrix(1 0 0 1 -936 -7004 )">
    <path d="M 53 0.509999999999991  C 53 0.509999999999991  104.5 0.509999999999991  104.5 0.509999999999991  C 104.5 57.41  57.4 104.51  0.5 104.51  C 0.5 104.51  0.5 53.01  0.5 53.01  C 28.9 53.01  53 28.91  53 0.509999999999991  Z " fill-rule="nonzero" fill="#46ba7d" stroke="none" transform="matrix(1 0 0 1 936 7004 )" />
    <path d="M 53 0.509999999999991  C 53 0.509999999999991  104.5 0.509999999999991  104.5 0.509999999999991  C 104.5 57.41  57.4 104.51  0.5 104.51  C 0.5 104.51  0.5 53.01  0.5 53.01  C 28.9 53.01  53 28.91  53 0.509999999999991  Z " stroke-width="2" stroke="#46ba7d" fill="none" transform="matrix(1 0 0 1 936 7004 )" mask="url(#clip421)" />
  </g>
</svg>