<?xml version="1.0" encoding="utf-8"?>
<svg version="1.1" xmlns:xlink="http://www.w3.org/1999/xlink" width="10px" height="10px" xmlns="http://www.w3.org/2000/svg">
  <defs>
    <mask fill="white" id="clip447">
      <path d="M 0.420000000000016 9.39999999999964  C 0.420000000000016 9.39999999999964  5.22000000000003 0.399999999999636  5.22000000000003 0.399999999999636  C 5.22000000000003 0.399999999999636  9.01999999999998 9.39999999999964  9.01999999999998 9.39999999999964  C 9.01999999999998 9.39999999999964  0.420000000000016 9.39999999999964  0.420000000000016 9.39999999999964  Z " fill-rule="evenodd" />
    </mask>
  </defs>
  <g transform="matrix(1 0 0 1 -510 -8103 )">
    <path d="M 0.420000000000016 9.39999999999964  C 0.420000000000016 9.39999999999964  5.22000000000003 0.399999999999636  5.22000000000003 0.399999999999636  C 5.22000000000003 0.399999999999636  9.01999999999998 9.39999999999964  9.01999999999998 9.39999999999964  C 9.01999999999998 9.39999999999964  0.420000000000016 9.39999999999964  0.420000000000016 9.39999999999964  Z " fill-rule="nonzero" fill="#ffffff" stroke="none" fill-opacity="0" transform="matrix(1 0 0 1 510 8103 )" />
    <path d="M 0.420000000000016 9.39999999999964  C 0.420000000000016 9.39999999999964  5.22000000000003 0.399999999999636  5.22000000000003 0.399999999999636  C 5.22000000000003 0.399999999999636  9.01999999999998 9.39999999999964  9.01999999999998 9.39999999999964  C 9.01999999999998 9.39999999999964  0.420000000000016 9.39999999999964  0.420000000000016 9.39999999999964  Z " stroke-width="2" stroke="#fb9d53" fill="none" transform="matrix(1 0 0 1 510 8103 )" mask="url(#clip447)" />
  </g>
</svg>