<?xml version="1.0" encoding="utf-8"?>
<svg version="1.1" xmlns:xlink="http://www.w3.org/1999/xlink" width="88px" height="107px" xmlns="http://www.w3.org/2000/svg">
  <defs>
    <mask fill="white" id="clip325">
      <path d="M 74.42 94.72  C 74.42 94.72  1.61999999999999 106.32  1.61999999999999 106.32  C 0.519999999999996 100.02  0.019999999999996 93.62  0.019999999999996 87.02  C 0.019999999999996 53.72  13.42 22.62  35.12 0.620000000000005  C 35.12 0.620000000000005  87.82 51.82  87.82 51.82  C 79.22 60.62  73.82 73.72  73.82 87.02  C 73.82 89.62  74.02 92.22  74.42 94.72  Z " fill-rule="evenodd" />
    </mask>
  </defs>
  <g transform="matrix(1 0 0 1 -180 -6141 )">
    <path d="M 74.42 94.72  C 74.42 94.72  1.61999999999999 106.32  1.61999999999999 106.32  C 0.519999999999996 100.02  0.019999999999996 93.62  0.019999999999996 87.02  C 0.019999999999996 53.72  13.42 22.62  35.12 0.620000000000005  C 35.12 0.620000000000005  87.82 51.82  87.82 51.82  C 79.22 60.62  73.82 73.72  73.82 87.02  C 73.82 89.62  74.02 92.22  74.42 94.72  Z " fill-rule="nonzero" fill="#eb6d71" stroke="none" transform="matrix(1 0 0 1 180 6141 )" />
    <path d="M 74.42 94.72  C 74.42 94.72  1.61999999999999 106.32  1.61999999999999 106.32  C 0.519999999999996 100.02  0.019999999999996 93.62  0.019999999999996 87.02  C 0.019999999999996 53.72  13.42 22.62  35.12 0.620000000000005  C 35.12 0.620000000000005  87.82 51.82  87.82 51.82  C 79.22 60.62  73.82 73.72  73.82 87.02  C 73.82 89.62  74.02 92.22  74.42 94.72  Z " stroke-width="2" stroke="#eb6d71" fill="none" transform="matrix(1 0 0 1 180 6141 )" mask="url(#clip325)" />
  </g>
</svg>