<?xml version="1.0" encoding="utf-8"?>
<svg version="1.1" xmlns:xlink="http://www.w3.org/1999/xlink" width="24px" height="24px" xmlns="http://www.w3.org/2000/svg">
  <defs>
    <mask fill="white" id="clip306">
      <path d="M 12.3299999999999 0.539999999999964  C 18.43 0.539999999999964  23.3299999999999 6.43999999999994  23.3299999999999 12.54  C 23.3299999999999 18.64  18.43 23.54  12.3299999999999 23.54  C 6.2299999999999 23.54  0.329999999999927 18.64  0.329999999999927 12.54  C 0.329999999999927 6.43999999999994  6.2299999999999 0.539999999999964  12.3299999999999 0.539999999999964  Z " fill-rule="evenodd" />
    </mask>
  </defs>
  <g transform="matrix(1 0 0 1 -885 -5639 )">
    <path d="M 12.3299999999999 0.539999999999964  C 18.43 0.539999999999964  23.3299999999999 6.43999999999994  23.3299999999999 12.54  C 23.3299999999999 18.64  18.43 23.54  12.3299999999999 23.54  C 6.2299999999999 23.54  0.329999999999927 18.64  0.329999999999927 12.54  C 0.329999999999927 6.43999999999994  6.2299999999999 0.539999999999964  12.3299999999999 0.539999999999964  Z " fill-rule="nonzero" fill="#d4cdc7" stroke="none" transform="matrix(1 0 0 1 885 5639 )" />
    <path d="M 12.3299999999999 0.539999999999964  C 18.43 0.539999999999964  23.3299999999999 6.43999999999994  23.3299999999999 12.54  C 23.3299999999999 18.64  18.43 23.54  12.3299999999999 23.54  C 6.2299999999999 23.54  0.329999999999927 18.64  0.329999999999927 12.54  C 0.329999999999927 6.43999999999994  6.2299999999999 0.539999999999964  12.3299999999999 0.539999999999964  Z " stroke-width="2" stroke="#cfc8c2" fill="none" transform="matrix(1 0 0 1 885 5639 )" mask="url(#clip306)" />
  </g>
</svg>