<?xml version="1.0" encoding="utf-8"?>
<svg version="1.1" xmlns:xlink="http://www.w3.org/1999/xlink" width="103px" height="103px" xmlns="http://www.w3.org/2000/svg">
  <defs>
    <mask fill="white" id="clip440">
      <path d="M 51.9 102.52  C 24 102.52  0.399999999999977 79.92  0.399999999999977 52.02  C 0.399999999999977 24.12  24 0.519999999999982  51.9 0.519999999999982  C 79.8 0.519999999999982  102.4 24.12  102.4 52.02  C 102.4 79.92  79.8 102.52  51.9 102.52  Z " fill-rule="evenodd" />
    </mask>
  </defs>
  <g transform="matrix(1 0 0 1 -661 -7354 )">
    <path d="M 51.9 102.52  C 24 102.52  0.399999999999977 79.92  0.399999999999977 52.02  C 0.399999999999977 24.12  24 0.519999999999982  51.9 0.519999999999982  C 79.8 0.519999999999982  102.4 24.12  102.4 52.02  C 102.4 79.92  79.8 102.52  51.9 102.52  Z " fill-rule="nonzero" fill="#f56582" stroke="none" transform="matrix(1 0 0 1 661 7354 )" />
    <path d="M 51.9 102.52  C 24 102.52  0.399999999999977 79.92  0.399999999999977 52.02  C 0.399999999999977 24.12  24 0.519999999999982  51.9 0.519999999999982  C 79.8 0.519999999999982  102.4 24.12  102.4 52.02  C 102.4 79.92  79.8 102.52  51.9 102.52  Z " stroke-width="2" stroke="#f56582" fill="none" transform="matrix(1 0 0 1 661 7354 )" mask="url(#clip440)" />
  </g>
</svg>