<svg xmlns="http://www.w3.org/2000/svg" xmlns:xlink="http://www.w3.org/1999/xlink" width="154" height="39" version="1.1"><defs><mask id="clip1652" fill="#fff"><path fill-rule="evenodd" d="M 0.95999999999998 38.6 C 0.95999999999998 38.6 0.95999999999998 0.700000000000045 0.95999999999998 0.700000000000045 C 0.95999999999998 0.700000000000045 153.96 0.700000000000045 153.96 0.700000000000045 C 153.96 0.700000000000045 153.96 38.6 153.96 38.6 C 153.96 38.6 0.95999999999998 38.6 0.95999999999998 38.6 Z"/></mask></defs><g><path fill="#302f34" fill-rule="nonzero" stroke="none" d="M 0.95999999999998 38.6 C 0.95999999999998 38.6 0.95999999999998 0.700000000000045 0.95999999999998 0.700000000000045 C 0.95999999999998 0.700000000000045 153.96 0.700000000000045 153.96 0.700000000000045 C 153.96 0.700000000000045 153.96 38.6 153.96 38.6 C 153.96 38.6 0.95999999999998 38.6 0.95999999999998 38.6 Z" transform="matrix(1 0 0 1 -287 -949 ) matrix(1 0 0 1 287 949 )"/><path fill="none" stroke="#302f34" stroke-width="2" d="M 0.95999999999998 38.6 C 0.95999999999998 38.6 0.95999999999998 0.700000000000045 0.95999999999998 0.700000000000045 C 0.95999999999998 0.700000000000045 153.96 0.700000000000045 153.96 0.700000000000045 C 153.96 0.700000000000045 153.96 38.6 153.96 38.6 C 153.96 38.6 0.95999999999998 38.6 0.95999999999998 38.6 Z" mask="url(#clip1652)" transform="matrix(1 0 0 1 -287 -949 ) matrix(1 0 0 1 287 949 )"/></g></svg>