<svg xmlns="http://www.w3.org/2000/svg" xmlns:xlink="http://www.w3.org/1999/xlink" width="216" height="39" version="1.1"><defs><mask id="clip1655" fill="#fff"><path fill-rule="evenodd" d="M 0.219999999999999 38.14 C 0.219999999999999 38.14 0.219999999999999 0.240000000000009 0.219999999999999 0.240000000000009 C 0.219999999999999 0.240000000000009 215.02 0.240000000000009 215.02 0.240000000000009 C 215.02 0.240000000000009 215.02 38.14 215.02 38.14 C 215.02 38.14 0.219999999999999 38.14 0.219999999999999 38.14 Z"/></mask></defs><g><path fill="#302f34" fill-rule="nonzero" stroke="none" d="M 0.219999999999999 38.14 C 0.219999999999999 38.14 0.219999999999999 0.240000000000009 0.219999999999999 0.240000000000009 C 0.219999999999999 0.240000000000009 215.02 0.240000000000009 215.02 0.240000000000009 C 215.02 0.240000000000009 215.02 38.14 215.02 38.14 C 215.02 38.14 0.219999999999999 38.14 0.219999999999999 38.14 Z" transform="matrix(1 0 0 1 -321 -883 ) matrix(1 0 0 1 321 883 )"/><path fill="none" stroke="#302f34" stroke-width="2" d="M 0.219999999999999 38.14 C 0.219999999999999 38.14 0.219999999999999 0.240000000000009 0.219999999999999 0.240000000000009 C 0.219999999999999 0.240000000000009 215.02 0.240000000000009 215.02 0.240000000000009 C 215.02 0.240000000000009 215.02 38.14 215.02 38.14 C 215.02 38.14 0.219999999999999 38.14 0.219999999999999 38.14 Z" mask="url(#clip1655)" transform="matrix(1 0 0 1 -321 -883 ) matrix(1 0 0 1 321 883 )"/></g></svg>