<svg xmlns="http://www.w3.org/2000/svg" xmlns:xlink="http://www.w3.org/1999/xlink" width="135" height="39" version="1.1"><defs><mask id="clip1653" fill="#fff"><path fill-rule="evenodd" d="M 0.00999999999999091 38.6 C 0.00999999999999091 38.6 0.00999999999999091 0.700000000000045 0.00999999999999091 0.700000000000045 C 0.00999999999999091 0.700000000000045 134.01 0.700000000000045 134.01 0.700000000000045 C 134.01 0.700000000000045 134.01 38.6 134.01 38.6 C 134.01 38.6 0.00999999999999091 38.6 0.00999999999999091 38.6 Z"/></mask></defs><g><path fill="#cdcece" fill-rule="nonzero" stroke="none" d="M 0.00999999999999091 38.6 C 0.00999999999999091 38.6 0.00999999999999091 0.700000000000045 0.00999999999999091 0.700000000000045 C 0.00999999999999091 0.700000000000045 134.01 0.700000000000045 134.01 0.700000000000045 C 134.01 0.700000000000045 134.01 38.6 134.01 38.6 C 134.01 38.6 0.00999999999999091 38.6 0.00999999999999091 38.6 Z" transform="matrix(1 0 0 1 -440 -949 ) matrix(1 0 0 1 440 949 )"/><path fill="none" stroke="#cdcece" stroke-width="2" d="M 0.00999999999999091 38.6 C 0.00999999999999091 38.6 0.00999999999999091 0.700000000000045 0.00999999999999091 0.700000000000045 C 0.00999999999999091 0.700000000000045 134.01 0.700000000000045 134.01 0.700000000000045 C 134.01 0.700000000000045 134.01 38.6 134.01 38.6 C 134.01 38.6 0.00999999999999091 38.6 0.00999999999999091 38.6 Z" mask="url(#clip1653)" transform="matrix(1 0 0 1 -440 -949 ) matrix(1 0 0 1 440 949 )"/></g></svg>