<svg xmlns="http://www.w3.org/2000/svg" xmlns:xlink="http://www.w3.org/1999/xlink" width="111" height="39" version="1.1"><defs><mask id="clip1660" fill="#fff"><path fill-rule="evenodd" d="M 0.689999999999998 38.21 C 0.689999999999998 38.21 0.689999999999998 0.310000000000002 0.689999999999998 0.310000000000002 C 0.689999999999998 0.310000000000002 110.99 0.310000000000002 110.99 0.310000000000002 C 110.99 0.310000000000002 110.99 38.21 110.99 38.21 C 110.99 38.21 0.689999999999998 38.21 0.689999999999998 38.21 Z"/></mask></defs><g><path fill="#c33736" fill-rule="nonzero" stroke="none" d="M 0.689999999999998 38.21 C 0.689999999999998 38.21 0.689999999999998 0.310000000000002 0.689999999999998 0.310000000000002 C 0.689999999999998 0.310000000000002 110.99 0.310000000000002 110.99 0.310000000000002 C 110.99 0.310000000000002 110.99 38.21 110.99 38.21 C 110.99 38.21 0.689999999999998 38.21 0.689999999999998 38.21 Z" transform="matrix(1 0 0 1 -216 -750 ) matrix(1 0 0 1 216 750 )"/><path fill="none" stroke="#c33736" stroke-width="2" d="M 0.689999999999998 38.21 C 0.689999999999998 38.21 0.689999999999998 0.310000000000002 0.689999999999998 0.310000000000002 C 0.689999999999998 0.310000000000002 110.99 0.310000000000002 110.99 0.310000000000002 C 110.99 0.310000000000002 110.99 38.21 110.99 38.21 C 110.99 38.21 0.689999999999998 38.21 0.689999999999998 38.21 Z" mask="url(#clip1660)" transform="matrix(1 0 0 1 -216 -750 ) matrix(1 0 0 1 216 750 )"/></g></svg>