<svg xmlns="http://www.w3.org/2000/svg" xmlns:xlink="http://www.w3.org/1999/xlink" width="109" height="24" version="1.1"><defs><mask id="clip1671" fill="#fff"><path fill-rule="evenodd" d="M 0.269999999999982 4.39999999999998 C 0.269999999999982 2.30000000000007 1.97000000000003 0.600000000000023 3.97000000000003 0.600000000000023 C 3.97000000000003 0.600000000000023 104.57 0.600000000000023 104.57 0.600000000000023 C 106.67 0.600000000000023 108.37 2.30000000000007 108.37 4.39999999999998 C 108.37 4.39999999999998 108.37 23.6 108.37 23.6 C 108.37 23.6 0.269999999999982 23.6 0.269999999999982 23.6 C 0.269999999999982 23.6 0.269999999999982 4.39999999999998 0.269999999999982 4.39999999999998 Z"/></mask></defs><g><path fill="#cdcece" fill-rule="nonzero" stroke="none" d="M 0.269999999999982 4.39999999999998 C 0.269999999999982 2.30000000000007 1.97000000000003 0.600000000000023 3.97000000000003 0.600000000000023 C 3.97000000000003 0.600000000000023 104.57 0.600000000000023 104.57 0.600000000000023 C 106.67 0.600000000000023 108.37 2.30000000000007 108.37 4.39999999999998 C 108.37 4.39999999999998 108.37 23.6 108.37 23.6 C 108.37 23.6 0.269999999999982 23.6 0.269999999999982 23.6 C 0.269999999999982 23.6 0.269999999999982 4.39999999999998 0.269999999999982 4.39999999999998 Z" transform="matrix(1 0 0 1 -790 -1034 ) matrix(1 0 0 1 790 1034 )"/><path fill="none" stroke="#cdcece" stroke-width="2" d="M 0.269999999999982 4.39999999999998 C 0.269999999999982 2.30000000000007 1.97000000000003 0.600000000000023 3.97000000000003 0.600000000000023 C 3.97000000000003 0.600000000000023 104.57 0.600000000000023 104.57 0.600000000000023 C 106.67 0.600000000000023 108.37 2.30000000000007 108.37 4.39999999999998 C 108.37 4.39999999999998 108.37 23.6 108.37 23.6 C 108.37 23.6 0.269999999999982 23.6 0.269999999999982 23.6 C 0.269999999999982 23.6 0.269999999999982 4.39999999999998 0.269999999999982 4.39999999999998 Z" mask="url(#clip1671)" transform="matrix(1 0 0 1 -790 -1034 ) matrix(1 0 0 1 790 1034 )"/></g></svg>