<svg xmlns="http://www.w3.org/2000/svg" xmlns:xlink="http://www.w3.org/1999/xlink" width="109" height="24" version="1.1"><defs><mask id="clip1669" fill="#fff"><path fill-rule="evenodd" d="M 0.269999999999982 3.98000000000002 C 0.269999999999982 1.88 1.97000000000003 0.180000000000007 3.97000000000003 0.180000000000007 C 3.97000000000003 0.180000000000007 104.57 0.180000000000007 104.57 0.180000000000007 C 106.67 0.180000000000007 108.37 1.88 108.37 3.98000000000002 C 108.37 3.98000000000002 108.37 23.18 108.37 23.18 C 108.37 23.18 0.269999999999982 23.18 0.269999999999982 23.18 C 0.269999999999982 23.18 0.269999999999982 3.98000000000002 0.269999999999982 3.98000000000002 Z"/></mask></defs><g><path fill="#c33736" fill-rule="nonzero" stroke="none" d="M 0.269999999999982 3.98000000000002 C 0.269999999999982 1.88 1.97000000000003 0.180000000000007 3.97000000000003 0.180000000000007 C 3.97000000000003 0.180000000000007 104.57 0.180000000000007 104.57 0.180000000000007 C 106.67 0.180000000000007 108.37 1.88 108.37 3.98000000000002 C 108.37 3.98000000000002 108.37 23.18 108.37 23.18 C 108.37 23.18 0.269999999999982 23.18 0.269999999999982 23.18 C 0.269999999999982 23.18 0.269999999999982 3.98000000000002 0.269999999999982 3.98000000000002 Z" transform="matrix(1 0 0 1 -790 -705 ) matrix(1 0 0 1 790 705 )"/><path fill="none" stroke="#c33736" stroke-width="2" d="M 0.269999999999982 3.98000000000002 C 0.269999999999982 1.88 1.97000000000003 0.180000000000007 3.97000000000003 0.180000000000007 C 3.97000000000003 0.180000000000007 104.57 0.180000000000007 104.57 0.180000000000007 C 106.67 0.180000000000007 108.37 1.88 108.37 3.98000000000002 C 108.37 3.98000000000002 108.37 23.18 108.37 23.18 C 108.37 23.18 0.269999999999982 23.18 0.269999999999982 23.18 C 0.269999999999982 23.18 0.269999999999982 3.98000000000002 0.269999999999982 3.98000000000002 Z" mask="url(#clip1669)" transform="matrix(1 0 0 1 -790 -705 ) matrix(1 0 0 1 790 705 )"/></g></svg>