<svg xmlns="http://www.w3.org/2000/svg" xmlns:xlink="http://www.w3.org/1999/xlink" width="111" height="39" version="1.1"><defs><mask id="clip1659" fill="#fff"><path fill-rule="evenodd" d="M 0.0400000000000205 38.68 C 0.0400000000000205 38.68 0.0400000000000205 0.779999999999973 0.0400000000000205 0.779999999999973 C 0.0400000000000205 0.779999999999973 110.34 0.779999999999973 110.34 0.779999999999973 C 110.34 0.779999999999973 110.34 38.68 110.34 38.68 C 110.34 38.68 0.0400000000000205 38.68 0.0400000000000205 38.68 Z"/></mask></defs><g><path fill="#cdcece" fill-rule="nonzero" stroke="none" d="M 0.0400000000000205 38.68 C 0.0400000000000205 38.68 0.0400000000000205 0.779999999999973 0.0400000000000205 0.779999999999973 C 0.0400000000000205 0.779999999999973 110.34 0.779999999999973 110.34 0.779999999999973 C 110.34 0.779999999999973 110.34 38.68 110.34 38.68 C 110.34 38.68 0.0400000000000205 38.68 0.0400000000000205 38.68 Z" transform="matrix(1 0 0 1 -535 -816 ) matrix(1 0 0 1 535 816 )"/><path fill="none" stroke="#cdcece" stroke-width="2" d="M 0.0400000000000205 38.68 C 0.0400000000000205 38.68 0.0400000000000205 0.779999999999973 0.0400000000000205 0.779999999999973 C 0.0400000000000205 0.779999999999973 110.34 0.779999999999973 110.34 0.779999999999973 C 110.34 0.779999999999973 110.34 38.68 110.34 38.68 C 110.34 38.68 0.0400000000000205 38.68 0.0400000000000205 38.68 Z" mask="url(#clip1659)" transform="matrix(1 0 0 1 -535 -816 ) matrix(1 0 0 1 535 816 )"/></g></svg>