<svg xmlns="http://www.w3.org/2000/svg" xmlns:xlink="http://www.w3.org/1999/xlink" width="31" height="21" version="1.1"><defs><mask id="clip1666" fill="#fff"><path fill-rule="evenodd" d="M 0.769999999999982 20.52 C 0.769999999999982 20.52 0.769999999999982 0.620000000000005 0.769999999999982 0.620000000000005 C 0.769999999999982 0.620000000000005 30.07 0.620000000000005 30.07 0.620000000000005 C 30.07 0.620000000000005 30.07 20.52 30.07 20.52 C 30.07 20.52 0.769999999999982 20.52 0.769999999999982 20.52 Z"/></mask></defs><g><path fill="#c33736" fill-rule="nonzero" stroke="none" d="M 0.769999999999982 20.52 C 0.769999999999982 20.52 0.769999999999982 0.620000000000005 0.769999999999982 0.620000000000005 C 0.769999999999982 0.620000000000005 30.07 0.620000000000005 30.07 0.620000000000005 C 30.07 0.620000000000005 30.07 20.52 30.07 20.52 C 30.07 20.52 0.769999999999982 20.52 0.769999999999982 20.52 Z" transform="matrix(1 0 0 1 -333 -1122 ) matrix(1 0 0 1 333 1122 )"/><path fill="none" stroke="#c33736" stroke-width="2" d="M 0.769999999999982 20.52 C 0.769999999999982 20.52 0.769999999999982 0.620000000000005 0.769999999999982 0.620000000000005 C 0.769999999999982 0.620000000000005 30.07 0.620000000000005 30.07 0.620000000000005 C 30.07 0.620000000000005 30.07 20.52 30.07 20.52 C 30.07 20.52 0.769999999999982 20.52 0.769999999999982 20.52 Z" mask="url(#clip1666)" transform="matrix(1 0 0 1 -333 -1122 ) matrix(1 0 0 1 333 1122 )"/></g></svg>