<svg xmlns="http://www.w3.org/2000/svg" xmlns:xlink="http://www.w3.org/1999/xlink" width="107" height="39" version="1.1"><defs><mask id="clip1648" fill="#fff"><path fill-rule="evenodd" d="M 0.689999999999998 38.0599999999999 C 0.689999999999998 38.0599999999999 0.689999999999998 0.159999999999968 0.689999999999998 0.159999999999968 C 0.689999999999998 0.159999999999968 106.19 0.159999999999968 106.19 0.159999999999968 C 106.19 0.159999999999968 106.19 38.0599999999999 106.19 38.0599999999999 C 106.19 38.0599999999999 0.689999999999998 38.0599999999999 0.689999999999998 38.0599999999999 Z"/></mask></defs><g><path fill="#c33736" fill-rule="nonzero" stroke="none" d="M 0.689999999999998 38.0599999999999 C 0.689999999999998 38.0599999999999 0.689999999999998 0.159999999999968 0.689999999999998 0.159999999999968 C 0.689999999999998 0.159999999999968 106.19 0.159999999999968 106.19 0.159999999999968 C 106.19 0.159999999999968 106.19 38.0599999999999 106.19 38.0599999999999 C 106.19 38.0599999999999 0.689999999999998 38.0599999999999 0.689999999999998 38.0599999999999 Z" transform="matrix(1 0 0 1 -216 -1016 ) matrix(1 0 0 1 216 1016 )"/><path fill="none" stroke="#c33736" stroke-width="2" d="M 0.689999999999998 38.0599999999999 C 0.689999999999998 38.0599999999999 0.689999999999998 0.159999999999968 0.689999999999998 0.159999999999968 C 0.689999999999998 0.159999999999968 106.19 0.159999999999968 106.19 0.159999999999968 C 106.19 0.159999999999968 106.19 38.0599999999999 106.19 38.0599999999999 C 106.19 38.0599999999999 0.689999999999998 38.0599999999999 0.689999999999998 38.0599999999999 Z" mask="url(#clip1648)" transform="matrix(1 0 0 1 -216 -1016 ) matrix(1 0 0 1 216 1016 )"/></g></svg>