<?xml version="1.0" encoding="utf-8"?>
<svg version="1.1" xmlns:xlink="http://www.w3.org/1999/xlink" width="145px" height="39px" xmlns="http://www.w3.org/2000/svg">
  <defs>
    <mask fill="white" id="clip1661">
      <path d="M 0.969999999999999 38.21  C 0.969999999999999 38.21  0.969999999999999 0.310000000000002  0.969999999999999 0.310000000000002  C 0.969999999999999 0.310000000000002  144.47 0.310000000000002  144.47 0.310000000000002  C 144.47 0.310000000000002  144.47 38.21  144.47 38.21  C 144.47 38.21  0.969999999999999 38.21  0.969999999999999 38.21  Z " fill-rule="evenodd" />
    </mask>
  </defs>
  <g transform="matrix(1 0 0 1 -325 -750 )">
    <path d="M 0.969999999999999 38.21  C 0.969999999999999 38.21  0.969999999999999 0.310000000000002  0.969999999999999 0.310000000000002  C 0.969999999999999 0.310000000000002  144.47 0.310000000000002  144.47 0.310000000000002  C 144.47 0.310000000000002  144.47 38.21  144.47 38.21  C 144.47 38.21  0.969999999999999 38.21  0.969999999999999 38.21  Z " fill-rule="nonzero" fill="#302f34" stroke="none" transform="matrix(1 0 0 1 325 750 )" />
    <path d="M 0.969999999999999 38.21  C 0.969999999999999 38.21  0.969999999999999 0.310000000000002  0.969999999999999 0.310000000000002  C 0.969999999999999 0.310000000000002  144.47 0.310000000000002  144.47 0.310000000000002  C 144.47 0.310000000000002  144.47 38.21  144.47 38.21  C 144.47 38.21  0.969999999999999 38.21  0.969999999999999 38.21  Z " stroke-width="2" stroke="#302f34" fill="none" transform="matrix(1 0 0 1 325 750 )" mask="url(#clip1661)" />
  </g>
</svg>