<?xml version="1.0" encoding="utf-8"?>
<svg version="1.1" xmlns:xlink="http://www.w3.org/1999/xlink" width="13px" height="14px" xmlns="http://www.w3.org/2000/svg">
  <defs>
    <mask fill="white" id="clip575">
      <path d="M 6.89999999999998 0.889999999999418  C 10 0.889999999999418  12.5 4.59000000000015  12.5 7.88999999999942  C 12.5 11.2900000000009  10 13.8899999999994  6.89999999999998 13.8899999999994  C 3.70000000000005 13.8899999999994  0.200000000000045 11.2900000000009  0.200000000000045 7.88999999999942  C 0.200000000000045 4.59000000000015  3.70000000000005 0.889999999999418  6.89999999999998 0.889999999999418  Z " fill-rule="evenodd" />
    </mask>
  </defs>
  <g transform="matrix(1 0 0 1 -568 -9001 )">
    <path d="M 6.89999999999998 0.889999999999418  C 10 0.889999999999418  12.5 4.59000000000015  12.5 7.88999999999942  C 12.5 11.2900000000009  10 13.8899999999994  6.89999999999998 13.8899999999994  C 3.70000000000005 13.8899999999994  0.200000000000045 11.2900000000009  0.200000000000045 7.88999999999942  C 0.200000000000045 4.59000000000015  3.70000000000005 0.889999999999418  6.89999999999998 0.889999999999418  Z " fill-rule="nonzero" fill="#ffffff" stroke="none" fill-opacity="0" transform="matrix(1 0 0 1 568 9001 )" />
    <path d="M 6.89999999999998 0.889999999999418  C 10 0.889999999999418  12.5 4.59000000000015  12.5 7.88999999999942  C 12.5 11.2900000000009  10 13.8899999999994  6.89999999999998 13.8899999999994  C 3.70000000000005 13.8899999999994  0.200000000000045 11.2900000000009  0.200000000000045 7.88999999999942  C 0.200000000000045 4.59000000000015  3.70000000000005 0.889999999999418  6.89999999999998 0.889999999999418  Z " stroke-width="2" stroke="#595757" fill="none" transform="matrix(1 0 0 1 568 9001 )" mask="url(#clip575)" />
  </g>
</svg>