<svg xmlns="http://www.w3.org/2000/svg" xmlns:xlink="http://www.w3.org/1999/xlink" width="107" height="39" version="1.1"><defs><mask id="clip1654" fill="#fff"><path fill-rule="evenodd" d="M 0.689999999999998 38.14 C 0.689999999999998 38.14 0.689999999999998 0.240000000000009 0.689999999999998 0.240000000000009 C 0.689999999999998 0.240000000000009 106.19 0.240000000000009 106.19 0.240000000000009 C 106.19 0.240000000000009 106.19 38.14 106.19 38.14 C 106.19 38.14 0.689999999999998 38.14 0.689999999999998 38.14 Z"/></mask></defs><g><path fill="#c33736" fill-rule="nonzero" stroke="none" d="M 0.689999999999998 38.14 C 0.689999999999998 38.14 0.689999999999998 0.240000000000009 0.689999999999998 0.240000000000009 C 0.689999999999998 0.240000000000009 106.19 0.240000000000009 106.19 0.240000000000009 C 106.19 0.240000000000009 106.19 38.14 106.19 38.14 C 106.19 38.14 0.689999999999998 38.14 0.689999999999998 38.14 Z" transform="matrix(1 0 0 1 -216 -883 ) matrix(1 0 0 1 216 883 )"/><path fill="none" stroke="#c33736" stroke-width="2" d="M 0.689999999999998 38.14 C 0.689999999999998 38.14 0.689999999999998 0.240000000000009 0.689999999999998 0.240000000000009 C 0.689999999999998 0.240000000000009 106.19 0.240000000000009 106.19 0.240000000000009 C 106.19 0.240000000000009 106.19 38.14 106.19 38.14 C 106.19 38.14 0.689999999999998 38.14 0.689999999999998 38.14 Z" mask="url(#clip1654)" transform="matrix(1 0 0 1 -216 -883 ) matrix(1 0 0 1 216 883 )"/></g></svg>