<svg xmlns="http://www.w3.org/2000/svg" xmlns:xlink="http://www.w3.org/1999/xlink" width="173" height="39" version="1.1"><defs><mask id="clip1650" fill="#fff"><path fill-rule="evenodd" d="M 0.259999999999991 38.0599999999999 C 0.259999999999991 38.0599999999999 0.259999999999991 0.159999999999968 0.259999999999991 0.159999999999968 C 0.259999999999991 0.159999999999968 172.36 0.159999999999968 172.36 0.159999999999968 C 172.36 0.159999999999968 172.36 38.0599999999999 172.36 38.0599999999999 C 172.36 38.0599999999999 0.259999999999991 38.0599999999999 0.259999999999991 38.0599999999999 Z"/></mask></defs><g><path fill="#cdcece" fill-rule="nonzero" stroke="none" d="M 0.259999999999991 38.0599999999999 C 0.259999999999991 38.0599999999999 0.259999999999991 0.159999999999968 0.259999999999991 0.159999999999968 C 0.259999999999991 0.159999999999968 172.36 0.159999999999968 172.36 0.159999999999968 C 172.36 0.159999999999968 172.36 38.0599999999999 172.36 38.0599999999999 C 172.36 38.0599999999999 0.259999999999991 38.0599999999999 0.259999999999991 38.0599999999999 Z" transform="matrix(1 0 0 1 -454 -1016 ) matrix(1 0 0 1 454 1016 )"/><path fill="none" stroke="#cdcece" stroke-width="2" d="M 0.259999999999991 38.0599999999999 C 0.259999999999991 38.0599999999999 0.259999999999991 0.159999999999968 0.259999999999991 0.159999999999968 C 0.259999999999991 0.159999999999968 172.36 0.159999999999968 172.36 0.159999999999968 C 172.36 0.159999999999968 172.36 38.0599999999999 172.36 38.0599999999999 C 172.36 38.0599999999999 0.259999999999991 38.0599999999999 0.259999999999991 38.0599999999999 Z" mask="url(#clip1650)" transform="matrix(1 0 0 1 -454 -1016 ) matrix(1 0 0 1 454 1016 )"/></g></svg>