<?xml version="1.0" encoding="utf-8"?>
<svg version="1.1" xmlns:xlink="http://www.w3.org/1999/xlink" width="135px" height="39px" xmlns="http://www.w3.org/2000/svg">
  <defs>
    <mask fill="white" id="clip1653">
      <path d="M 0.00999999999999091 38.6  C 0.00999999999999091 38.6  0.00999999999999091 0.700000000000045  0.00999999999999091 0.700000000000045  C 0.00999999999999091 0.700000000000045  134.01 0.700000000000045  134.01 0.700000000000045  C 134.01 0.700000000000045  134.01 38.6  134.01 38.6  C 134.01 38.6  0.00999999999999091 38.6  0.00999999999999091 38.6  Z " fill-rule="evenodd" />
    </mask>
  </defs>
  <g transform="matrix(1 0 0 1 -440 -949 )">
    <path d="M 0.00999999999999091 38.6  C 0.00999999999999091 38.6  0.00999999999999091 0.700000000000045  0.00999999999999091 0.700000000000045  C 0.00999999999999091 0.700000000000045  134.01 0.700000000000045  134.01 0.700000000000045  C 134.01 0.700000000000045  134.01 38.6  134.01 38.6  C 134.01 38.6  0.00999999999999091 38.6  0.00999999999999091 38.6  Z " fill-rule="nonzero" fill="#cdcece" stroke="none" transform="matrix(1 0 0 1 440 949 )" />
    <path d="M 0.00999999999999091 38.6  C 0.00999999999999091 38.6  0.00999999999999091 0.700000000000045  0.00999999999999091 0.700000000000045  C 0.00999999999999091 0.700000000000045  134.01 0.700000000000045  134.01 0.700000000000045  C 134.01 0.700000000000045  134.01 38.6  134.01 38.6  C 134.01 38.6  0.00999999999999091 38.6  0.00999999999999091 38.6  Z " stroke-width="2" stroke="#cdcece" fill="none" transform="matrix(1 0 0 1 440 949 )" mask="url(#clip1653)" />
  </g>
</svg>