<svg xmlns="http://www.w3.org/2000/svg" xmlns:xlink="http://www.w3.org/1999/xlink" width="135" height="39" version="1.1"><defs><mask id="clip1649" fill="#fff"><path fill-rule="evenodd" d="M 0.219999999999999 38.0599999999999 C 0.219999999999999 38.0599999999999 0.219999999999999 0.159999999999968 0.219999999999999 0.159999999999968 C 0.219999999999999 0.159999999999968 134.22 0.159999999999968 134.22 0.159999999999968 C 134.22 0.159999999999968 134.22 38.0599999999999 134.22 38.0599999999999 C 134.22 38.0599999999999 0.219999999999999 38.0599999999999 0.219999999999999 38.0599999999999 Z"/></mask></defs><g><path fill="#302f34" fill-rule="nonzero" stroke="none" d="M 0.219999999999999 38.0599999999999 C 0.219999999999999 38.0599999999999 0.219999999999999 0.159999999999968 0.219999999999999 0.159999999999968 C 0.219999999999999 0.159999999999968 134.22 0.159999999999968 134.22 0.159999999999968 C 134.22 0.159999999999968 134.22 38.0599999999999 134.22 38.0599999999999 C 134.22 38.0599999999999 0.219999999999999 38.0599999999999 0.219999999999999 38.0599999999999 Z" transform="matrix(1 0 0 1 -321 -1016 ) matrix(1 0 0 1 321 1016 )"/><path fill="none" stroke="#302f34" stroke-width="2" d="M 0.219999999999999 38.0599999999999 C 0.219999999999999 38.0599999999999 0.219999999999999 0.159999999999968 0.219999999999999 0.159999999999968 C 0.219999999999999 0.159999999999968 134.22 0.159999999999968 134.22 0.159999999999968 C 134.22 0.159999999999968 134.22 38.0599999999999 134.22 38.0599999999999 C 134.22 38.0599999999999 0.219999999999999 38.0599999999999 0.219999999999999 38.0599999999999 Z" mask="url(#clip1649)" transform="matrix(1 0 0 1 -321 -1016 ) matrix(1 0 0 1 321 1016 )"/></g></svg>