<svg xmlns="http://www.w3.org/2000/svg" xmlns:xlink="http://www.w3.org/1999/xlink" width="154" height="39" version="1.1"><defs><mask id="clip1663" fill="#fff"><path fill-rule="evenodd" d="M 0.689999999999998 38.75 C 0.689999999999998 38.75 0.689999999999998 0.849999999999994 0.689999999999998 0.849999999999994 C 0.689999999999998 0.849999999999994 153.69 0.849999999999994 153.69 0.849999999999994 C 153.69 0.849999999999994 153.69 38.75 153.69 38.75 C 153.69 38.75 0.689999999999998 38.75 0.689999999999998 38.75 Z"/></mask></defs><g><path fill="#c33736" fill-rule="nonzero" stroke="none" d="M 0.689999999999998 38.75 C 0.689999999999998 38.75 0.689999999999998 0.849999999999994 0.689999999999998 0.849999999999994 C 0.689999999999998 0.849999999999994 153.69 0.849999999999994 153.69 0.849999999999994 C 153.69 0.849999999999994 153.69 38.75 153.69 38.75 C 153.69 38.75 0.689999999999998 38.75 0.689999999999998 38.75 Z" transform="matrix(1 0 0 1 -216 -683 ) matrix(1 0 0 1 216 683 )"/><path fill="none" stroke="#c33736" stroke-width="2" d="M 0.689999999999998 38.75 C 0.689999999999998 38.75 0.689999999999998 0.849999999999994 0.689999999999998 0.849999999999994 C 0.689999999999998 0.849999999999994 153.69 0.849999999999994 153.69 0.849999999999994 C 153.69 0.849999999999994 153.69 38.75 153.69 38.75 C 153.69 38.75 0.689999999999998 38.75 0.689999999999998 38.75 Z" mask="url(#clip1663)" transform="matrix(1 0 0 1 -216 -683 ) matrix(1 0 0 1 216 683 )"/></g></svg>