<svg xmlns="http://www.w3.org/2000/svg" xmlns:xlink="http://www.w3.org/1999/xlink" width="30" height="21" version="1.1"><defs><mask id="clip1668" fill="#fff"><path fill-rule="evenodd" d="M 0.45999999999998 20.52 C 0.45999999999998 20.52 0.45999999999998 0.620000000000005 0.45999999999998 0.620000000000005 C 0.45999999999998 0.620000000000005 29.76 0.620000000000005 29.76 0.620000000000005 C 29.76 0.620000000000005 29.76 20.52 29.76 20.52 C 29.76 20.52 0.45999999999998 20.52 0.45999999999998 20.52 Z"/></mask></defs><g><path fill="#cdcece" fill-rule="nonzero" stroke="none" d="M 0.45999999999998 20.52 C 0.45999999999998 20.52 0.45999999999998 0.620000000000005 0.45999999999998 0.620000000000005 C 0.45999999999998 0.620000000000005 29.76 0.620000000000005 29.76 0.620000000000005 C 29.76 0.620000000000005 29.76 20.52 29.76 20.52 C 29.76 20.52 0.45999999999998 20.52 0.45999999999998 20.52 Z" transform="matrix(1 0 0 1 -530 -1122 ) matrix(1 0 0 1 530 1122 )"/><path fill="none" stroke="#cdcece" stroke-width="2" d="M 0.45999999999998 20.52 C 0.45999999999998 20.52 0.45999999999998 0.620000000000005 0.45999999999998 0.620000000000005 C 0.45999999999998 0.620000000000005 29.76 0.620000000000005 29.76 0.620000000000005 C 29.76 0.620000000000005 29.76 20.52 29.76 20.52 C 29.76 20.52 0.45999999999998 20.52 0.45999999999998 20.52 Z" mask="url(#clip1668)" transform="matrix(1 0 0 1 -530 -1122 ) matrix(1 0 0 1 530 1122 )"/></g></svg>