<?xml version="1.0" encoding="utf-8"?>
<svg version="1.1" xmlns:xlink="http://www.w3.org/1999/xlink" width="14px" height="14px" xmlns="http://www.w3.org/2000/svg">
  <defs>
    <mask fill="white" id="clip586">
      <path d="M 6.5 0.190000000000509  C 9.69999999999999 0.190000000000509  13.2 3.88999999999942  13.2 7.19000000000051  C 13.2 10.4899999999998  9.69999999999999 13.1900000000005  6.5 13.1900000000005  C 3.39999999999998 13.1900000000005  0.899999999999977 10.4899999999998  0.899999999999977 7.19000000000051  C 0.899999999999977 3.88999999999942  3.39999999999998 0.190000000000509  6.5 0.190000000000509  Z " fill-rule="evenodd" />
    </mask>
  </defs>
  <g transform="matrix(1 0 0 1 -367 -9036 )">
    <path d="M 6.5 0.190000000000509  C 9.69999999999999 0.190000000000509  13.2 3.88999999999942  13.2 7.19000000000051  C 13.2 10.4899999999998  9.69999999999999 13.1900000000005  6.5 13.1900000000005  C 3.39999999999998 13.1900000000005  0.899999999999977 10.4899999999998  0.899999999999977 7.19000000000051  C 0.899999999999977 3.88999999999942  3.39999999999998 0.190000000000509  6.5 0.190000000000509  Z " fill-rule="nonzero" fill="#ffffff" stroke="none" fill-opacity="0" transform="matrix(1 0 0 1 367 9036 )" />
    <path d="M 6.5 0.190000000000509  C 9.69999999999999 0.190000000000509  13.2 3.88999999999942  13.2 7.19000000000051  C 13.2 10.4899999999998  9.69999999999999 13.1900000000005  6.5 13.1900000000005  C 3.39999999999998 13.1900000000005  0.899999999999977 10.4899999999998  0.899999999999977 7.19000000000051  C 0.899999999999977 3.88999999999942  3.39999999999998 0.190000000000509  6.5 0.190000000000509  Z " stroke-width="2" stroke="#00ae9d" fill="none" transform="matrix(1 0 0 1 367 9036 )" mask="url(#clip586)" />
  </g>
</svg>