<?xml version="1.0" encoding="utf-8"?>
<svg version="1.1" xmlns:xlink="http://www.w3.org/1999/xlink" width="13px" height="14px" xmlns="http://www.w3.org/2000/svg">
  <defs>
    <mask fill="white" id="clip506">
      <path d="M 7.10000000000002 0.0900000000001455  C 10.2 0.0900000000001455  12.8 3.79000000000087  12.8 7.09000000000014  C 12.8 10.3899999999994  10.2 13.0900000000001  7.10000000000002 13.0900000000001  C 4 13.0900000000001  0.399999999999977 10.3899999999994  0.399999999999977 7.09000000000014  C 0.399999999999977 3.79000000000087  4 0.0900000000001455  7.10000000000002 0.0900000000001455  Z " fill-rule="evenodd" />
    </mask>
  </defs>
  <g transform="matrix(1 0 0 1 -501 -8960 )">
    <path d="M 7.10000000000002 0.0900000000001455  C 10.2 0.0900000000001455  12.8 3.79000000000087  12.8 7.09000000000014  C 12.8 10.3899999999994  10.2 13.0900000000001  7.10000000000002 13.0900000000001  C 4 13.0900000000001  0.399999999999977 10.3899999999994  0.399999999999977 7.09000000000014  C 0.399999999999977 3.79000000000087  4 0.0900000000001455  7.10000000000002 0.0900000000001455  Z " fill-rule="nonzero" fill="#ffffff" stroke="none" fill-opacity="0" transform="matrix(1 0 0 1 501 8960 )" />
    <path d="M 7.10000000000002 0.0900000000001455  C 10.2 0.0900000000001455  12.8 3.79000000000087  12.8 7.09000000000014  C 12.8 10.3899999999994  10.2 13.0900000000001  7.10000000000002 13.0900000000001  C 4 13.0900000000001  0.399999999999977 10.3899999999994  0.399999999999977 7.09000000000014  C 0.399999999999977 3.79000000000087  4 0.0900000000001455  7.10000000000002 0.0900000000001455  Z " stroke-width="2" stroke="#00ae9d" fill="none" transform="matrix(1 0 0 1 501 8960 )" mask="url(#clip506)" />
  </g>
</svg>