<svg xmlns="http://www.w3.org/2000/svg" xmlns:xlink="http://www.w3.org/1999/xlink" width="202" height="39" version="1.1"><defs><mask id="clip1658" fill="#fff"><path fill-rule="evenodd" d="M 0.480000000000018 38.68 C 0.480000000000018 38.68 0.480000000000018 0.779999999999973 0.480000000000018 0.779999999999973 C 0.480000000000018 0.779999999999973 201.08 0.779999999999973 201.08 0.779999999999973 C 201.08 0.779999999999973 201.08 38.68 201.08 38.68 C 201.08 38.68 0.480000000000018 38.68 0.480000000000018 38.68 Z"/></mask></defs><g><path fill="#302f34" fill-rule="nonzero" stroke="none" d="M 0.480000000000018 38.68 C 0.480000000000018 38.68 0.480000000000018 0.779999999999973 0.480000000000018 0.779999999999973 C 0.480000000000018 0.779999999999973 201.08 0.779999999999973 201.08 0.779999999999973 C 201.08 0.779999999999973 201.08 38.68 201.08 38.68 C 201.08 38.68 0.480000000000018 38.68 0.480000000000018 38.68 Z" transform="matrix(1 0 0 1 -335 -816 ) matrix(1 0 0 1 335 816 )"/><path fill="none" stroke="#302f34" stroke-width="2" d="M 0.480000000000018 38.68 C 0.480000000000018 38.68 0.480000000000018 0.779999999999973 0.480000000000018 0.779999999999973 C 0.480000000000018 0.779999999999973 201.08 0.779999999999973 201.08 0.779999999999973 C 201.08 0.779999999999973 201.08 38.68 201.08 38.68 C 201.08 38.68 0.480000000000018 38.68 0.480000000000018 38.68 Z" mask="url(#clip1658)" transform="matrix(1 0 0 1 -335 -816 ) matrix(1 0 0 1 335 816 )"/></g></svg>