<svg xmlns="http://www.w3.org/2000/svg" xmlns:xlink="http://www.w3.org/1999/xlink" width="121" height="39" version="1.1"><defs><mask id="clip1657" fill="#fff"><path fill-rule="evenodd" d="M 0.689999999999998 38.68 C 0.689999999999998 38.68 0.689999999999998 0.779999999999973 0.689999999999998 0.779999999999973 C 0.689999999999998 0.779999999999973 120.49 0.779999999999973 120.49 0.779999999999973 C 120.49 0.779999999999973 120.49 38.68 120.49 38.68 C 120.49 38.68 0.689999999999998 38.68 0.689999999999998 38.68 Z"/></mask></defs><g><path fill="#c33736" fill-rule="nonzero" stroke="none" d="M 0.689999999999998 38.68 C 0.689999999999998 38.68 0.689999999999998 0.779999999999973 0.689999999999998 0.779999999999973 C 0.689999999999998 0.779999999999973 120.49 0.779999999999973 120.49 0.779999999999973 C 120.49 0.779999999999973 120.49 38.68 120.49 38.68 C 120.49 38.68 0.689999999999998 38.68 0.689999999999998 38.68 Z" transform="matrix(1 0 0 1 -216 -816 ) matrix(1 0 0 1 216 816 )"/><path fill="none" stroke="#c33736" stroke-width="2" d="M 0.689999999999998 38.68 C 0.689999999999998 38.68 0.689999999999998 0.779999999999973 0.689999999999998 0.779999999999973 C 0.689999999999998 0.779999999999973 120.49 0.779999999999973 120.49 0.779999999999973 C 120.49 0.779999999999973 120.49 38.68 120.49 38.68 C 120.49 38.68 0.689999999999998 38.68 0.689999999999998 38.68 Z" mask="url(#clip1657)" transform="matrix(1 0 0 1 -216 -816 ) matrix(1 0 0 1 216 816 )"/></g></svg>