<svg xmlns="http://www.w3.org/2000/svg" xmlns:xlink="http://www.w3.org/1999/xlink" width="145" height="39" version="1.1"><defs><mask id="clip1661" fill="#fff"><path fill-rule="evenodd" d="M 0.969999999999999 38.21 C 0.969999999999999 38.21 0.969999999999999 0.310000000000002 0.969999999999999 0.310000000000002 C 0.969999999999999 0.310000000000002 144.47 0.310000000000002 144.47 0.310000000000002 C 144.47 0.310000000000002 144.47 38.21 144.47 38.21 C 144.47 38.21 0.969999999999999 38.21 0.969999999999999 38.21 Z"/></mask></defs><g><path fill="#302f34" fill-rule="nonzero" stroke="none" d="M 0.969999999999999 38.21 C 0.969999999999999 38.21 0.969999999999999 0.310000000000002 0.969999999999999 0.310000000000002 C 0.969999999999999 0.310000000000002 144.47 0.310000000000002 144.47 0.310000000000002 C 144.47 0.310000000000002 144.47 38.21 144.47 38.21 C 144.47 38.21 0.969999999999999 38.21 0.969999999999999 38.21 Z" transform="matrix(1 0 0 1 -325 -750 ) matrix(1 0 0 1 325 750 )"/><path fill="none" stroke="#302f34" stroke-width="2" d="M 0.969999999999999 38.21 C 0.969999999999999 38.21 0.969999999999999 0.310000000000002 0.969999999999999 0.310000000000002 C 0.969999999999999 0.310000000000002 144.47 0.310000000000002 144.47 0.310000000000002 C 144.47 0.310000000000002 144.47 38.21 144.47 38.21 C 144.47 38.21 0.969999999999999 38.21 0.969999999999999 38.21 Z" mask="url(#clip1661)" transform="matrix(1 0 0 1 -325 -750 ) matrix(1 0 0 1 325 750 )"/></g></svg>