<svg xmlns="http://www.w3.org/2000/svg" xmlns:xlink="http://www.w3.org/1999/xlink" width="30" height="21" version="1.1"><defs><mask id="clip1667" fill="#fff"><path fill-rule="evenodd" d="M 0.120000000000005 20.52 C 0.120000000000005 20.52 0.120000000000005 0.620000000000005 0.120000000000005 0.620000000000005 C 0.120000000000005 0.620000000000005 29.42 0.620000000000005 29.42 0.620000000000005 C 29.42 0.620000000000005 29.42 20.52 29.42 20.52 C 29.42 20.52 0.120000000000005 20.52 0.120000000000005 20.52 Z"/></mask></defs><g><path fill="#302f34" fill-rule="nonzero" stroke="none" d="M 0.120000000000005 20.52 C 0.120000000000005 20.52 0.120000000000005 0.620000000000005 0.120000000000005 0.620000000000005 C 0.120000000000005 0.620000000000005 29.42 0.620000000000005 29.42 0.620000000000005 C 29.42 0.620000000000005 29.42 20.52 29.42 20.52 C 29.42 20.52 0.120000000000005 20.52 0.120000000000005 20.52 Z" transform="matrix(1 0 0 1 -432 -1122 ) matrix(1 0 0 1 432 1122 )"/><path fill="none" stroke="#302f34" stroke-width="2" d="M 0.120000000000005 20.52 C 0.120000000000005 20.52 0.120000000000005 0.620000000000005 0.120000000000005 0.620000000000005 C 0.120000000000005 0.620000000000005 29.42 0.620000000000005 29.42 0.620000000000005 C 29.42 0.620000000000005 29.42 20.52 29.42 20.52 C 29.42 20.52 0.120000000000005 20.52 0.120000000000005 20.52 Z" mask="url(#clip1667)" transform="matrix(1 0 0 1 -432 -1122 ) matrix(1 0 0 1 432 1122 )"/></g></svg>