<?xml version="1.0" encoding="utf-8"?>
<svg version="1.1" xmlns:xlink="http://www.w3.org/1999/xlink" width="91px" height="38px" xmlns="http://www.w3.org/2000/svg">
  <defs>
    <mask fill="white" id="clip507">
      <path d="M 0.710000000000036 1.90999999999997  C 0.710000000000036 1.11000000000001  1.50999999999999 0.409999999999968  2.61000000000001 0.409999999999968  C 2.61000000000001 0.409999999999968  88.11 0.409999999999968  88.11 0.409999999999968  C 89.21 0.409999999999968  90.11 1.11000000000001  90.11 1.90999999999997  C 90.11 1.90999999999997  90.11 36.3099999999999  90.11 36.3099999999999  C 90.11 37.11  89.21 37.8099999999999  88.11 37.8099999999999  C 88.11 37.8099999999999  2.61000000000001 37.8099999999999  2.61000000000001 37.8099999999999  C 1.50999999999999 37.8099999999999  0.710000000000036 37.11  0.710000000000036 36.3099999999999  C 0.710000000000036 36.3099999999999  0.710000000000036 1.90999999999997  0.710000000000036 1.90999999999997  Z " fill-rule="evenodd" />
    </mask>
  </defs>
  <g transform="matrix(1 0 0 1 -812 -9139 )">
    <path d="M 0.710000000000036 1.90999999999997  C 0.710000000000036 1.11000000000001  1.50999999999999 0.409999999999968  2.61000000000001 0.409999999999968  C 2.61000000000001 0.409999999999968  88.11 0.409999999999968  88.11 0.409999999999968  C 89.21 0.409999999999968  90.11 1.11000000000001  90.11 1.90999999999997  C 90.11 1.90999999999997  90.11 36.3099999999999  90.11 36.3099999999999  C 90.11 37.11  89.21 37.8099999999999  88.11 37.8099999999999  C 88.11 37.8099999999999  2.61000000000001 37.8099999999999  2.61000000000001 37.8099999999999  C 1.50999999999999 37.8099999999999  0.710000000000036 37.11  0.710000000000036 36.3099999999999  C 0.710000000000036 36.3099999999999  0.710000000000036 1.90999999999997  0.710000000000036 1.90999999999997  Z " fill-rule="nonzero" fill="#ffffff" stroke="none" fill-opacity="0.0980392156862745" transform="matrix(1 0 0 1 812 9139 )" />
    <path d="M 0.710000000000036 1.90999999999997  C 0.710000000000036 1.11000000000001  1.50999999999999 0.409999999999968  2.61000000000001 0.409999999999968  C 2.61000000000001 0.409999999999968  88.11 0.409999999999968  88.11 0.409999999999968  C 89.21 0.409999999999968  90.11 1.11000000000001  90.11 1.90999999999997  C 90.11 1.90999999999997  90.11 36.3099999999999  90.11 36.3099999999999  C 90.11 37.11  89.21 37.8099999999999  88.11 37.8099999999999  C 88.11 37.8099999999999  2.61000000000001 37.8099999999999  2.61000000000001 37.8099999999999  C 1.50999999999999 37.8099999999999  0.710000000000036 37.11  0.710000000000036 36.3099999999999  C 0.710000000000036 36.3099999999999  0.710000000000036 1.90999999999997  0.710000000000036 1.90999999999997  Z " stroke-width="2" stroke="#ffffff" fill="none" stroke-opacity="0.498039215686275" transform="matrix(1 0 0 1 812 9139 )" mask="url(#clip507)" />
  </g>
</svg>