<?xml version="1.0" encoding="utf-8"?>
<svg version="1.1" xmlns:xlink="http://www.w3.org/1999/xlink" width="75px" height="69px" xmlns="http://www.w3.org/2000/svg">
  <defs>
    <mask fill="white" id="clip444">
      <path d="M 74.5 16.01  C 74.5 16.01  74.5 68.51  74.5 68.51  C 46 68.51  19.1999999999999 57.01  0.600000000000023 38.31  C 0.600000000000023 38.31  37 0.909999999999968  37 0.909999999999968  C 46.3 10.21  60.1999999999999 16.01  74.5 16.01  Z " fill-rule="evenodd" />
    </mask>
  </defs>
  <g transform="matrix(1 0 0 1 -863 -7040 )">
    <path d="M 74.5 16.01  C 74.5 16.01  74.5 68.51  74.5 68.51  C 46 68.51  19.1999999999999 57.01  0.600000000000023 38.31  C 0.600000000000023 38.31  37 0.909999999999968  37 0.909999999999968  C 46.3 10.21  60.1999999999999 16.01  74.5 16.01  Z " fill-rule="nonzero" fill="#eacd98" stroke="none" transform="matrix(1 0 0 1 863 7040 )" />
    <path d="M 74.5 16.01  C 74.5 16.01  74.5 68.51  74.5 68.51  C 46 68.51  19.1999999999999 57.01  0.600000000000023 38.31  C 0.600000000000023 38.31  37 0.909999999999968  37 0.909999999999968  C 46.3 10.21  60.1999999999999 16.01  74.5 16.01  Z " stroke-width="2" stroke="#eacd98" fill="none" transform="matrix(1 0 0 1 863 7040 )" mask="url(#clip444)" />
  </g>
</svg>