<svg xmlns="http://www.w3.org/2000/svg" xmlns:xlink="http://www.w3.org/1999/xlink" width="97" height="39" version="1.1"><defs><mask id="clip1656" fill="#fff"><path fill-rule="evenodd" d="M 0.0400000000000205 38.14 C 0.0400000000000205 38.14 0.0400000000000205 0.240000000000009 0.0400000000000205 0.240000000000009 C 0.0400000000000205 0.240000000000009 96.04 0.240000000000009 96.04 0.240000000000009 C 96.04 0.240000000000009 96.04 38.14 96.04 38.14 C 96.04 38.14 0.0400000000000205 38.14 0.0400000000000205 38.14 Z"/></mask></defs><g><path fill="#cdcece" fill-rule="nonzero" stroke="none" d="M 0.0400000000000205 38.14 C 0.0400000000000205 38.14 0.0400000000000205 0.240000000000009 0.0400000000000205 0.240000000000009 C 0.0400000000000205 0.240000000000009 96.04 0.240000000000009 96.04 0.240000000000009 C 96.04 0.240000000000009 96.04 38.14 96.04 38.14 C 96.04 38.14 0.0400000000000205 38.14 0.0400000000000205 38.14 Z" transform="matrix(1 0 0 1 -535 -883 ) matrix(1 0 0 1 535 883 )"/><path fill="none" stroke="#cdcece" stroke-width="2" d="M 0.0400000000000205 38.14 C 0.0400000000000205 38.14 0.0400000000000205 0.240000000000009 0.0400000000000205 0.240000000000009 C 0.0400000000000205 0.240000000000009 96.04 0.240000000000009 96.04 0.240000000000009 C 96.04 0.240000000000009 96.04 38.14 96.04 38.14 C 96.04 38.14 0.0400000000000205 38.14 0.0400000000000205 38.14 Z" mask="url(#clip1656)" transform="matrix(1 0 0 1 -535 -883 ) matrix(1 0 0 1 535 883 )"/></g></svg>