<svg xmlns="http://www.w3.org/2000/svg" xmlns:xlink="http://www.w3.org/1999/xlink" width="159" height="39" version="1.1"><defs><mask id="clip1664" fill="#fff"><path fill-rule="evenodd" d="M 0.740000000000009 38.75 C 0.740000000000009 38.75 0.740000000000009 0.849999999999994 0.740000000000009 0.849999999999994 C 0.740000000000009 0.849999999999994 158.54 0.849999999999994 158.54 0.849999999999994 C 158.54 0.849999999999994 158.54 38.75 158.54 38.75 C 158.54 38.75 0.740000000000009 38.75 0.740000000000009 38.75 Z"/></mask></defs><g><path fill="#302f34" fill-rule="nonzero" stroke="none" d="M 0.740000000000009 38.75 C 0.740000000000009 38.75 0.740000000000009 0.849999999999994 0.740000000000009 0.849999999999994 C 0.740000000000009 0.849999999999994 158.54 0.849999999999994 158.54 0.849999999999994 C 158.54 0.849999999999994 158.54 38.75 158.54 38.75 C 158.54 38.75 0.740000000000009 38.75 0.740000000000009 38.75 Z" transform="matrix(1 0 0 1 -368 -683 ) matrix(1 0 0 1 368 683 )"/><path fill="none" stroke="#302f34" stroke-width="2" d="M 0.740000000000009 38.75 C 0.740000000000009 38.75 0.740000000000009 0.849999999999994 0.740000000000009 0.849999999999994 C 0.740000000000009 0.849999999999994 158.54 0.849999999999994 158.54 0.849999999999994 C 158.54 0.849999999999994 158.54 38.75 158.54 38.75 C 158.54 38.75 0.740000000000009 38.75 0.740000000000009 38.75 Z" mask="url(#clip1664)" transform="matrix(1 0 0 1 -368 -683 ) matrix(1 0 0 1 368 683 )"/></g></svg>