<?xml version="1.0" encoding="utf-8"?>
<svg version="1.1" xmlns:xlink="http://www.w3.org/1999/xlink" width="13px" height="14px" xmlns="http://www.w3.org/2000/svg">
  <defs>
    <mask fill="white" id="clip563">
      <path d="M 0.100000000000023 7.98999999999978  C 0.100000000000023 7.98999999999978  6.80000000000001 0.989999999999782  6.80000000000001 0.989999999999782  C 6.80000000000001 0.989999999999782  12.4 7.98999999999978  12.4 7.98999999999978  C 12.4 7.98999999999978  6.80000000000001 13.9899999999998  6.80000000000001 13.9899999999998  C 6.80000000000001 13.9899999999998  0.100000000000023 7.98999999999978  0.100000000000023 7.98999999999978  Z " fill-rule="evenodd" />
    </mask>
  </defs>
  <g transform="matrix(1 0 0 1 -301 -8921 )">
    <path d="M 0.100000000000023 7.98999999999978  C 0.100000000000023 7.98999999999978  6.80000000000001 0.989999999999782  6.80000000000001 0.989999999999782  C 6.80000000000001 0.989999999999782  12.4 7.98999999999978  12.4 7.98999999999978  C 12.4 7.98999999999978  6.80000000000001 13.9899999999998  6.80000000000001 13.9899999999998  C 6.80000000000001 13.9899999999998  0.100000000000023 7.98999999999978  0.100000000000023 7.98999999999978  Z " fill-rule="nonzero" fill="#ffffff" stroke="none" fill-opacity="0" transform="matrix(1 0 0 1 301 8921 )" />
    <path d="M 0.100000000000023 7.98999999999978  C 0.100000000000023 7.98999999999978  6.80000000000001 0.989999999999782  6.80000000000001 0.989999999999782  C 6.80000000000001 0.989999999999782  12.4 7.98999999999978  12.4 7.98999999999978  C 12.4 7.98999999999978  6.80000000000001 13.9899999999998  6.80000000000001 13.9899999999998  C 6.80000000000001 13.9899999999998  0.100000000000023 7.98999999999978  0.100000000000023 7.98999999999978  Z " stroke-width="2" stroke="#d4cdc7" fill="none" transform="matrix(1 0 0 1 301 8921 )" mask="url(#clip563)" />
  </g>
</svg>