<svg xmlns="http://www.w3.org/2000/svg" xmlns:xlink="http://www.w3.org/1999/xlink" width="154" height="39" version="1.1"><defs><mask id="clip1665" fill="#fff"><path fill-rule="evenodd" d="M 0.54000000000002 38.75 C 0.54000000000002 38.75 0.54000000000002 0.849999999999994 0.54000000000002 0.849999999999994 C 0.54000000000002 0.849999999999994 153.54 0.849999999999994 153.54 0.849999999999994 C 153.54 0.849999999999994 153.54 38.75 153.54 38.75 C 153.54 38.75 0.54000000000002 38.75 0.54000000000002 38.75 Z"/></mask></defs><g><path fill="#cdcece" fill-rule="nonzero" stroke="none" d="M 0.54000000000002 38.75 C 0.54000000000002 38.75 0.54000000000002 0.849999999999994 0.54000000000002 0.849999999999994 C 0.54000000000002 0.849999999999994 153.54 0.849999999999994 153.54 0.849999999999994 C 153.54 0.849999999999994 153.54 38.75 153.54 38.75 C 153.54 38.75 0.54000000000002 38.75 0.54000000000002 38.75 Z" transform="matrix(1 0 0 1 -525 -683 ) matrix(1 0 0 1 525 683 )"/><path fill="none" stroke="#cdcece" stroke-width="2" d="M 0.54000000000002 38.75 C 0.54000000000002 38.75 0.54000000000002 0.849999999999994 0.54000000000002 0.849999999999994 C 0.54000000000002 0.849999999999994 153.54 0.849999999999994 153.54 0.849999999999994 C 153.54 0.849999999999994 153.54 38.75 153.54 38.75 C 153.54 38.75 0.54000000000002 38.75 0.54000000000002 38.75 Z" mask="url(#clip1665)" transform="matrix(1 0 0 1 -525 -683 ) matrix(1 0 0 1 525 683 )"/></g></svg>