<?xml version="1.0" encoding="utf-8"?>
<svg version="1.1" xmlns:xlink="http://www.w3.org/1999/xlink" width="13px" height="14px" xmlns="http://www.w3.org/2000/svg">
  <defs>
    <mask fill="white" id="clip447">
      <path d="M 7.30000000000001 0.790000000000873  C 10.4 0.790000000000873  13 4.48999999999978  13 7.79000000000087  C 13 11.0900000000001  10.4 13.7900000000009  7.30000000000001 13.7900000000009  C 4.19999999999999 13.7900000000009  0.600000000000023 11.0900000000001  0.600000000000023 7.79000000000087  C 0.600000000000023 4.48999999999978  4.19999999999999 0.790000000000873  7.30000000000001 0.790000000000873  Z " fill-rule="evenodd" />
    </mask>
  </defs>
  <g transform="matrix(1 0 0 1 -434 -9043 )">
    <path d="M 7.30000000000001 0.790000000000873  C 10.4 0.790000000000873  13 4.48999999999978  13 7.79000000000087  C 13 11.0900000000001  10.4 13.7900000000009  7.30000000000001 13.7900000000009  C 4.19999999999999 13.7900000000009  0.600000000000023 11.0900000000001  0.600000000000023 7.79000000000087  C 0.600000000000023 4.48999999999978  4.19999999999999 0.790000000000873  7.30000000000001 0.790000000000873  Z " fill-rule="nonzero" fill="#ffffff" stroke="none" fill-opacity="0" transform="matrix(1 0 0 1 434 9043 )" />
    <path d="M 7.30000000000001 0.790000000000873  C 10.4 0.790000000000873  13 4.48999999999978  13 7.79000000000087  C 13 11.0900000000001  10.4 13.7900000000009  7.30000000000001 13.7900000000009  C 4.19999999999999 13.7900000000009  0.600000000000023 11.0900000000001  0.600000000000023 7.79000000000087  C 0.600000000000023 4.48999999999978  4.19999999999999 0.790000000000873  7.30000000000001 0.790000000000873  Z " stroke-width="2" stroke="#595757" fill="none" transform="matrix(1 0 0 1 434 9043 )" mask="url(#clip447)" />
  </g>
</svg>