<svg xmlns="http://www.w3.org/2000/svg" xmlns:xlink="http://www.w3.org/1999/xlink" width="73" height="39" version="1.1"><defs><mask id="clip1651" fill="#fff"><path fill-rule="evenodd" d="M 0.689999999999998 38.6 C 0.689999999999998 38.6 0.689999999999998 0.700000000000045 0.689999999999998 0.700000000000045 C 0.689999999999998 0.700000000000045 72.99 0.700000000000045 72.99 0.700000000000045 C 72.99 0.700000000000045 72.99 38.6 72.99 38.6 C 72.99 38.6 0.689999999999998 38.6 0.689999999999998 38.6 Z"/></mask></defs><g><path fill="#c33736" fill-rule="nonzero" stroke="none" d="M 0.689999999999998 38.6 C 0.689999999999998 38.6 0.689999999999998 0.700000000000045 0.689999999999998 0.700000000000045 C 0.689999999999998 0.700000000000045 72.99 0.700000000000045 72.99 0.700000000000045 C 72.99 0.700000000000045 72.99 38.6 72.99 38.6 C 72.99 38.6 0.689999999999998 38.6 0.689999999999998 38.6 Z" transform="matrix(1 0 0 1 -216 -949 ) matrix(1 0 0 1 216 949 )"/><path fill="none" stroke="#c33736" stroke-width="2" d="M 0.689999999999998 38.6 C 0.689999999999998 38.6 0.689999999999998 0.700000000000045 0.689999999999998 0.700000000000045 C 0.689999999999998 0.700000000000045 72.99 0.700000000000045 72.99 0.700000000000045 C 72.99 0.700000000000045 72.99 38.6 72.99 38.6 C 72.99 38.6 0.689999999999998 38.6 0.689999999999998 38.6 Z" mask="url(#clip1651)" transform="matrix(1 0 0 1 -216 -949 ) matrix(1 0 0 1 216 949 )"/></g></svg>