<svg xmlns="http://www.w3.org/2000/svg" xmlns:xlink="http://www.w3.org/1999/xlink" width="121" height="39" version="1.1"><defs><mask id="clip1662" fill="#fff"><path fill-rule="evenodd" d="M 0.519999999999982 38.21 C 0.519999999999982 38.21 0.519999999999982 0.310000000000002 0.519999999999982 0.310000000000002 C 0.519999999999982 0.310000000000002 120.32 0.310000000000002 120.32 0.310000000000002 C 120.32 0.310000000000002 120.32 38.21 120.32 38.21 C 120.32 38.21 0.519999999999982 38.21 0.519999999999982 38.21 Z"/></mask></defs><g><path fill="#cdcece" fill-rule="nonzero" stroke="none" d="M 0.519999999999982 38.21 C 0.519999999999982 38.21 0.519999999999982 0.310000000000002 0.519999999999982 0.310000000000002 C 0.519999999999982 0.310000000000002 120.32 0.310000000000002 120.32 0.310000000000002 C 120.32 0.310000000000002 120.32 38.21 120.32 38.21 C 120.32 38.21 0.519999999999982 38.21 0.519999999999982 38.21 Z" transform="matrix(1 0 0 1 -468 -750 ) matrix(1 0 0 1 468 750 )"/><path fill="none" stroke="#cdcece" stroke-width="2" d="M 0.519999999999982 38.21 C 0.519999999999982 38.21 0.519999999999982 0.310000000000002 0.519999999999982 0.310000000000002 C 0.519999999999982 0.310000000000002 120.32 0.310000000000002 120.32 0.310000000000002 C 120.32 0.310000000000002 120.32 38.21 120.32 38.21 C 120.32 38.21 0.519999999999982 38.21 0.519999999999982 38.21 Z" mask="url(#clip1662)" transform="matrix(1 0 0 1 -468 -750 ) matrix(1 0 0 1 468 750 )"/></g></svg>