<svg xmlns="http://www.w3.org/2000/svg" xmlns:xlink="http://www.w3.org/1999/xlink" width="30" height="71" version="1.1"><defs><mask id="clip1697" fill="#fff"><path fill-rule="evenodd" d="M 0.509999999999991 70.12 C 0.509999999999991 70.12 0.509999999999991 0.819999999999993 0.509999999999991 0.819999999999993 C 0.509999999999991 0.819999999999993 29.11 0.819999999999993 29.11 0.819999999999993 C 29.11 0.819999999999993 29.11 70.12 29.11 70.12 C 29.11 70.12 0.509999999999991 70.12 0.509999999999991 70.12 Z"/></mask></defs><g><path fill="#55bfca" fill-rule="nonzero" stroke="none" d="M 0.509999999999991 70.12 C 0.509999999999991 70.12 0.509999999999991 0.819999999999993 0.509999999999991 0.819999999999993 C 0.509999999999991 0.819999999999993 29.11 0.819999999999993 29.11 0.819999999999993 C 29.11 0.819999999999993 29.11 70.12 29.11 70.12 C 29.11 70.12 0.509999999999991 70.12 0.509999999999991 70.12 Z" transform="matrix(1 0 0 1 -566 -2648 ) matrix(1 0 0 1 566 2648 )"/><path fill="none" stroke="#55bfca" stroke-width="2" d="M 0.509999999999991 70.12 C 0.509999999999991 70.12 0.509999999999991 0.819999999999993 0.509999999999991 0.819999999999993 C 0.509999999999991 0.819999999999993 29.11 0.819999999999993 29.11 0.819999999999993 C 29.11 0.819999999999993 29.11 70.12 29.11 70.12 C 29.11 70.12 0.509999999999991 70.12 0.509999999999991 70.12 Z" mask="url(#clip1697)" transform="matrix(1 0 0 1 -566 -2648 ) matrix(1 0 0 1 566 2648 )"/></g></svg>