<svg xmlns="http://www.w3.org/2000/svg" xmlns:xlink="http://www.w3.org/1999/xlink" width="29" height="188" version="1.1"><defs><mask id="clip1707" fill="#fff"><path fill-rule="evenodd" d="M 0.0299999999999727 187.16 C 0.0299999999999727 187.16 0.0299999999999727 0.259999999999991 0.0299999999999727 0.259999999999991 C 0.0299999999999727 0.259999999999991 28.63 0.259999999999991 28.63 0.259999999999991 C 28.63 0.259999999999991 28.63 187.16 28.63 187.16 C 28.63 187.16 0.0299999999999727 187.16 0.0299999999999727 187.16 Z"/></mask></defs><g><path fill="#b3e58c" fill-rule="nonzero" stroke="none" d="M 0.0299999999999727 187.16 C 0.0299999999999727 187.16 0.0299999999999727 0.259999999999991 0.0299999999999727 0.259999999999991 C 0.0299999999999727 0.259999999999991 28.63 0.259999999999991 28.63 0.259999999999991 C 28.63 0.259999999999991 28.63 187.16 28.63 187.16 C 28.63 187.16 0.0299999999999727 187.16 0.0299999999999727 187.16 Z" transform="matrix(1 0 0 1 -809 -2531 ) matrix(1 0 0 1 809 2531 )"/><path fill="none" stroke="#b3e58c" stroke-width="2" d="M 0.0299999999999727 187.16 C 0.0299999999999727 187.16 0.0299999999999727 0.259999999999991 0.0299999999999727 0.259999999999991 C 0.0299999999999727 0.259999999999991 28.63 0.259999999999991 28.63 0.259999999999991 C 28.63 0.259999999999991 28.63 187.16 28.63 187.16 C 28.63 187.16 0.0299999999999727 187.16 0.0299999999999727 187.16 Z" mask="url(#clip1707)" transform="matrix(1 0 0 1 -809 -2531 ) matrix(1 0 0 1 809 2531 )"/></g></svg>