<svg xmlns="http://www.w3.org/2000/svg" xmlns:xlink="http://www.w3.org/1999/xlink" width="30" height="98" version="1.1"><defs><mask id="clip1700" fill="#fff"><path fill-rule="evenodd" d="M 0.990000000000009 97.18 C 0.990000000000009 97.18 0.990000000000009 0.480000000000018 0.990000000000009 0.480000000000018 C 0.990000000000009 0.480000000000018 29.59 0.480000000000018 29.59 0.480000000000018 C 29.59 0.480000000000018 29.59 97.18 29.59 97.18 C 29.59 97.18 0.990000000000009 97.18 0.990000000000009 97.18 Z"/></mask></defs><g><path fill="#55bfca" fill-rule="nonzero" stroke="none" d="M 0.990000000000009 97.18 C 0.990000000000009 97.18 0.990000000000009 0.480000000000018 0.990000000000009 0.480000000000018 C 0.990000000000009 0.480000000000018 29.59 0.480000000000018 29.59 0.480000000000018 C 29.59 0.480000000000018 29.59 97.18 29.59 97.18 C 29.59 97.18 0.990000000000009 97.18 0.990000000000009 97.18 Z" transform="matrix(1 0 0 1 -673 -2621 ) matrix(1 0 0 1 673 2621 )"/><path fill="none" stroke="#55bfca" stroke-width="2" d="M 0.990000000000009 97.18 C 0.990000000000009 97.18 0.990000000000009 0.480000000000018 0.990000000000009 0.480000000000018 C 0.990000000000009 0.480000000000018 29.59 0.480000000000018 29.59 0.480000000000018 C 29.59 0.480000000000018 29.59 97.18 29.59 97.18 C 29.59 97.18 0.990000000000009 97.18 0.990000000000009 97.18 Z" mask="url(#clip1700)" transform="matrix(1 0 0 1 -673 -2621 ) matrix(1 0 0 1 673 2621 )"/></g></svg>