<svg xmlns="http://www.w3.org/2000/svg" xmlns:xlink="http://www.w3.org/1999/xlink" width="30" height="262" version="1.1"><defs><mask id="clip1695" fill="#fff"><path fill-rule="evenodd" d="M 0.590000000000032 261.14 C 0.590000000000032 261.14 0.590000000000032 0.439999999999998 0.590000000000032 0.439999999999998 C 0.590000000000032 0.439999999999998 29.1900000000001 0.439999999999998 29.1900000000001 0.439999999999998 C 29.1900000000001 0.439999999999998 29.1900000000001 261.14 29.1900000000001 261.14 C 29.1900000000001 261.14 0.590000000000032 261.14 0.590000000000032 261.14 Z"/></mask></defs><g><path fill="#b3e58c" fill-rule="nonzero" stroke="none" d="M 0.590000000000032 261.14 C 0.590000000000032 261.14 0.590000000000032 0.439999999999998 0.590000000000032 0.439999999999998 C 0.590000000000032 0.439999999999998 29.1900000000001 0.439999999999998 29.1900000000001 0.439999999999998 C 29.1900000000001 0.439999999999998 29.1900000000001 261.14 29.1900000000001 261.14 C 29.1900000000001 261.14 0.590000000000032 261.14 0.590000000000032 261.14 Z" transform="matrix(1 0 0 1 -486 -2457 ) matrix(1 0 0 1 486 2457 )"/><path fill="none" stroke="#b3e58c" stroke-width="2" d="M 0.590000000000032 261.14 C 0.590000000000032 261.14 0.590000000000032 0.439999999999998 0.590000000000032 0.439999999999998 C 0.590000000000032 0.439999999999998 29.1900000000001 0.439999999999998 29.1900000000001 0.439999999999998 C 29.1900000000001 0.439999999999998 29.1900000000001 261.14 29.1900000000001 261.14 C 29.1900000000001 261.14 0.590000000000032 261.14 0.590000000000032 261.14 Z" mask="url(#clip1695)" transform="matrix(1 0 0 1 -486 -2457 ) matrix(1 0 0 1 486 2457 )"/></g></svg>