<svg xmlns="http://www.w3.org/2000/svg" xmlns:xlink="http://www.w3.org/1999/xlink" width="29" height="257" version="1.1"><defs><mask id="clip1692" fill="#fff"><path fill-rule="evenodd" d="M 0.110000000000014 256.21 C 0.110000000000014 256.21 0.110000000000014 0.909999999999997 0.110000000000014 0.909999999999997 C 0.110000000000014 0.909999999999997 28.71 0.909999999999997 28.71 0.909999999999997 C 28.71 0.909999999999997 28.71 256.21 28.71 256.21 C 28.71 256.21 0.110000000000014 256.21 0.110000000000014 256.21 Z"/></mask></defs><g><path fill="#b3e58c" fill-rule="nonzero" stroke="none" d="M 0.110000000000014 256.21 C 0.110000000000014 256.21 0.110000000000014 0.909999999999997 0.110000000000014 0.909999999999997 C 0.110000000000014 0.909999999999997 28.71 0.909999999999997 28.71 0.909999999999997 C 28.71 0.909999999999997 28.71 256.21 28.71 256.21 C 28.71 256.21 0.110000000000014 256.21 0.110000000000014 256.21 Z" transform="matrix(1 0 0 1 -379 -2462 ) matrix(1 0 0 1 379 2462 )"/><path fill="none" stroke="#b3e58c" stroke-width="2" d="M 0.110000000000014 256.21 C 0.110000000000014 256.21 0.110000000000014 0.909999999999997 0.110000000000014 0.909999999999997 C 0.110000000000014 0.909999999999997 28.71 0.909999999999997 28.71 0.909999999999997 C 28.71 0.909999999999997 28.71 256.21 28.71 256.21 C 28.71 256.21 0.110000000000014 256.21 0.110000000000014 256.21 Z" mask="url(#clip1692)" transform="matrix(1 0 0 1 -379 -2462 ) matrix(1 0 0 1 379 2462 )"/></g></svg>