<?xml version="1.0" encoding="utf-8"?>
<svg version="1.1" xmlns:xlink="http://www.w3.org/1999/xlink" width="13px" height="14px" xmlns="http://www.w3.org/2000/svg">
  <defs>
    <mask fill="white" id="clip509">
      <path d="M 5.60000000000002 0.590000000000146  C 8.79999999999995 0.590000000000146  12.3 4.29000000000087  12.3 7.59000000000015  C 12.3 10.8899999999994  8.79999999999995 13.5900000000001  5.60000000000002 13.5900000000001  C 2.5 13.5900000000001  0 10.8899999999994  0 7.59000000000015  C 0 4.29000000000087  2.5 0.590000000000146  5.60000000000002 0.590000000000146  Z " fill-rule="evenodd" />
    </mask>
  </defs>
  <g transform="matrix(1 0 0 1 -635 -8891 )">
    <path d="M 5.60000000000002 0.590000000000146  C 8.79999999999995 0.590000000000146  12.3 4.29000000000087  12.3 7.59000000000015  C 12.3 10.8899999999994  8.79999999999995 13.5900000000001  5.60000000000002 13.5900000000001  C 2.5 13.5900000000001  0 10.8899999999994  0 7.59000000000015  C 0 4.29000000000087  2.5 0.590000000000146  5.60000000000002 0.590000000000146  Z " fill-rule="nonzero" fill="#ffffff" stroke="none" fill-opacity="0" transform="matrix(1 0 0 1 635 8891 )" />
    <path d="M 5.60000000000002 0.590000000000146  C 8.79999999999995 0.590000000000146  12.3 4.29000000000087  12.3 7.59000000000015  C 12.3 10.8899999999994  8.79999999999995 13.5900000000001  5.60000000000002 13.5900000000001  C 2.5 13.5900000000001  0 10.8899999999994  0 7.59000000000015  C 0 4.29000000000087  2.5 0.590000000000146  5.60000000000002 0.590000000000146  Z " stroke-width="2" stroke="#00ae9d" fill="none" transform="matrix(1 0 0 1 635 8891 )" mask="url(#clip509)" />
  </g>
</svg>