<?xml version="1.0" encoding="utf-8"?>
<svg version="1.1" xmlns:xlink="http://www.w3.org/1999/xlink" width="10px" height="10px" xmlns="http://www.w3.org/2000/svg">
  <defs>
    <mask fill="white" id="clip467">
      <path d="M 0.520000000000039 9.60000000000036  C 0.520000000000039 9.60000000000036  5.32000000000005 0.600000000000364  5.32000000000005 0.600000000000364  C 5.32000000000005 0.600000000000364  9.12 9.60000000000036  9.12 9.60000000000036  C 9.12 9.60000000000036  0.520000000000039 9.60000000000036  0.520000000000039 9.60000000000036  Z " fill-rule="evenodd" />
    </mask>
  </defs>
  <g transform="matrix(1 0 0 1 -389 -8052 )">
    <path d="M 0.520000000000039 9.60000000000036  C 0.520000000000039 9.60000000000036  5.32000000000005 0.600000000000364  5.32000000000005 0.600000000000364  C 5.32000000000005 0.600000000000364  9.12 9.60000000000036  9.12 9.60000000000036  C 9.12 9.60000000000036  0.520000000000039 9.60000000000036  0.520000000000039 9.60000000000036  Z " fill-rule="nonzero" fill="#ffffff" stroke="none" fill-opacity="0" transform="matrix(1 0 0 1 389 8052 )" />
    <path d="M 0.520000000000039 9.60000000000036  C 0.520000000000039 9.60000000000036  5.32000000000005 0.600000000000364  5.32000000000005 0.600000000000364  C 5.32000000000005 0.600000000000364  9.12 9.60000000000036  9.12 9.60000000000036  C 9.12 9.60000000000036  0.520000000000039 9.60000000000036  0.520000000000039 9.60000000000036  Z " stroke-width="2" stroke="#fb9d53" fill="none" transform="matrix(1 0 0 1 389 8052 )" mask="url(#clip467)" />
  </g>
</svg>