<?xml version="1.0" encoding="utf-8"?>
<svg version="1.1" xmlns:xlink="http://www.w3.org/1999/xlink" width="30px" height="262px" xmlns="http://www.w3.org/2000/svg">
  <defs>
    <mask fill="white" id="clip1695">
      <path d="M 0.590000000000032 261.14  C 0.590000000000032 261.14  0.590000000000032 0.439999999999998  0.590000000000032 0.439999999999998  C 0.590000000000032 0.439999999999998  29.1900000000001 0.439999999999998  29.1900000000001 0.439999999999998  C 29.1900000000001 0.439999999999998  29.1900000000001 261.14  29.1900000000001 261.14  C 29.1900000000001 261.14  0.590000000000032 261.14  0.590000000000032 261.14  Z " fill-rule="evenodd" />
    </mask>
  </defs>
  <g transform="matrix(1 0 0 1 -486 -2457 )">
    <path d="M 0.590000000000032 261.14  C 0.590000000000032 261.14  0.590000000000032 0.439999999999998  0.590000000000032 0.439999999999998  C 0.590000000000032 0.439999999999998  29.1900000000001 0.439999999999998  29.1900000000001 0.439999999999998  C 29.1900000000001 0.439999999999998  29.1900000000001 261.14  29.1900000000001 261.14  C 29.1900000000001 261.14  0.590000000000032 261.14  0.590000000000032 261.14  Z " fill-rule="nonzero" fill="#b3e58c" stroke="none" transform="matrix(1 0 0 1 486 2457 )" />
    <path d="M 0.590000000000032 261.14  C 0.590000000000032 261.14  0.590000000000032 0.439999999999998  0.590000000000032 0.439999999999998  C 0.590000000000032 0.439999999999998  29.1900000000001 0.439999999999998  29.1900000000001 0.439999999999998  C 29.1900000000001 0.439999999999998  29.1900000000001 261.14  29.1900000000001 261.14  C 29.1900000000001 261.14  0.590000000000032 261.14  0.590000000000032 261.14  Z " stroke-width="2" stroke="#b3e58c" fill="none" transform="matrix(1 0 0 1 486 2457 )" mask="url(#clip1695)" />
  </g>
</svg>