<?xml version="1.0" encoding="utf-8"?>
<svg version="1.1" xmlns:xlink="http://www.w3.org/1999/xlink" width="30px" height="71px" xmlns="http://www.w3.org/2000/svg">
  <defs>
    <mask fill="white" id="clip1697">
      <path d="M 0.509999999999991 70.12  C 0.509999999999991 70.12  0.509999999999991 0.819999999999993  0.509999999999991 0.819999999999993  C 0.509999999999991 0.819999999999993  29.11 0.819999999999993  29.11 0.819999999999993  C 29.11 0.819999999999993  29.11 70.12  29.11 70.12  C 29.11 70.12  0.509999999999991 70.12  0.509999999999991 70.12  Z " fill-rule="evenodd" />
    </mask>
  </defs>
  <g transform="matrix(1 0 0 1 -566 -2648 )">
    <path d="M 0.509999999999991 70.12  C 0.509999999999991 70.12  0.509999999999991 0.819999999999993  0.509999999999991 0.819999999999993  C 0.509999999999991 0.819999999999993  29.11 0.819999999999993  29.11 0.819999999999993  C 29.11 0.819999999999993  29.11 70.12  29.11 70.12  C 29.11 70.12  0.509999999999991 70.12  0.509999999999991 70.12  Z " fill-rule="nonzero" fill="#55bfca" stroke="none" transform="matrix(1 0 0 1 566 2648 )" />
    <path d="M 0.509999999999991 70.12  C 0.509999999999991 70.12  0.509999999999991 0.819999999999993  0.509999999999991 0.819999999999993  C 0.509999999999991 0.819999999999993  29.11 0.819999999999993  29.11 0.819999999999993  C 29.11 0.819999999999993  29.11 70.12  29.11 70.12  C 29.11 70.12  0.509999999999991 70.12  0.509999999999991 70.12  Z " stroke-width="2" stroke="#55bfca" fill="none" transform="matrix(1 0 0 1 566 2648 )" mask="url(#clip1697)" />
  </g>
</svg>