<svg xmlns="http://www.w3.org/2000/svg" xmlns:xlink="http://www.w3.org/1999/xlink" width="30" height="117" version="1.1"><defs><mask id="clip1699" fill="#fff"><path fill-rule="evenodd" d="M 0.430000000000064 116.14 C 0.430000000000064 116.14 0.430000000000064 0.339999999999975 0.430000000000064 0.339999999999975 C 0.430000000000064 0.339999999999975 29.0300000000001 0.339999999999975 29.0300000000001 0.339999999999975 C 29.0300000000001 0.339999999999975 29.0300000000001 116.14 29.0300000000001 116.14 C 29.0300000000001 116.14 0.430000000000064 116.14 0.430000000000064 116.14 Z"/></mask></defs><g><path fill="#bdecf8" fill-rule="nonzero" stroke="none" d="M 0.430000000000064 116.14 C 0.430000000000064 116.14 0.430000000000064 0.339999999999975 0.430000000000064 0.339999999999975 C 0.430000000000064 0.339999999999975 29.0300000000001 0.339999999999975 29.0300000000001 0.339999999999975 C 29.0300000000001 0.339999999999975 29.0300000000001 116.14 29.0300000000001 116.14 C 29.0300000000001 116.14 0.430000000000064 116.14 0.430000000000064 116.14 Z" transform="matrix(1 0 0 1 -646 -2602 ) matrix(1 0 0 1 646 2602 )"/><path fill="none" stroke="#bdecf8" stroke-width="2" d="M 0.430000000000064 116.14 C 0.430000000000064 116.14 0.430000000000064 0.339999999999975 0.430000000000064 0.339999999999975 C 0.430000000000064 0.339999999999975 29.0300000000001 0.339999999999975 29.0300000000001 0.339999999999975 C 29.0300000000001 0.339999999999975 29.0300000000001 116.14 29.0300000000001 116.14 C 29.0300000000001 116.14 0.430000000000064 116.14 0.430000000000064 116.14 Z" mask="url(#clip1699)" transform="matrix(1 0 0 1 -646 -2602 ) matrix(1 0 0 1 646 2602 )"/></g></svg>