<svg xmlns="http://www.w3.org/2000/svg" xmlns:xlink="http://www.w3.org/1999/xlink" width="30" height="172" version="1.1"><defs><mask id="clip1690" fill="#fff"><path fill-rule="evenodd" d="M 0.990000000000009 171.16 C 0.990000000000009 171.16 0.990000000000009 0.659999999999968 0.990000000000009 0.659999999999968 C 0.990000000000009 0.659999999999968 29.59 0.659999999999968 29.59 0.659999999999968 C 29.59 0.659999999999968 29.59 171.16 29.59 171.16 C 29.59 171.16 0.990000000000009 171.16 0.990000000000009 171.16 Z"/></mask></defs><g><path fill="#bdecf8" fill-rule="nonzero" stroke="none" d="M 0.990000000000009 171.16 C 0.990000000000009 171.16 0.990000000000009 0.659999999999968 0.990000000000009 0.659999999999968 C 0.990000000000009 0.659999999999968 29.59 0.659999999999968 29.59 0.659999999999968 C 29.59 0.659999999999968 29.59 171.16 29.59 171.16 C 29.59 171.16 0.990000000000009 171.16 0.990000000000009 171.16 Z" transform="matrix(1 0 0 1 -323 -2547 ) matrix(1 0 0 1 323 2547 )"/><path fill="none" stroke="#bdecf8" stroke-width="2" d="M 0.990000000000009 171.16 C 0.990000000000009 171.16 0.990000000000009 0.659999999999968 0.990000000000009 0.659999999999968 C 0.990000000000009 0.659999999999968 29.59 0.659999999999968 29.59 0.659999999999968 C 29.59 0.659999999999968 29.59 171.16 29.59 171.16 C 29.59 171.16 0.990000000000009 171.16 0.990000000000009 171.16 Z" mask="url(#clip1690)" transform="matrix(1 0 0 1 -323 -2547 ) matrix(1 0 0 1 323 2547 )"/></g></svg>