<svg xmlns="http://www.w3.org/2000/svg" xmlns:xlink="http://www.w3.org/1999/xlink" width="29" height="216" version="1.1"><defs><mask id="clip1708" fill="#fff"><path fill-rule="evenodd" d="M 0.400000000000089 215.22 C 0.400000000000089 215.22 0.400000000000089 0.920000000000016 0.400000000000089 0.920000000000016 C 0.400000000000089 0.920000000000016 29 0.920000000000016 29 0.920000000000016 C 29 0.920000000000016 29 215.22 29 215.22 C 29 215.22 0.400000000000089 215.22 0.400000000000089 215.22 Z"/></mask></defs><g><path fill="#bdecf8" fill-rule="nonzero" stroke="none" d="M 0.400000000000089 215.22 C 0.400000000000089 215.22 0.400000000000089 0.920000000000016 0.400000000000089 0.920000000000016 C 0.400000000000089 0.920000000000016 29 0.920000000000016 29 0.920000000000016 C 29 0.920000000000016 29 215.22 29 215.22 C 29 215.22 0.400000000000089 215.22 0.400000000000089 215.22 Z" transform="matrix(1 0 0 1 -861 -2503 ) matrix(1 0 0 1 861 2503 )"/><path fill="none" stroke="#bdecf8" stroke-width="2" d="M 0.400000000000089 215.22 C 0.400000000000089 215.22 0.400000000000089 0.920000000000016 0.400000000000089 0.920000000000016 C 0.400000000000089 0.920000000000016 29 0.920000000000016 29 0.920000000000016 C 29 0.920000000000016 29 215.22 29 215.22 C 29 215.22 0.400000000000089 215.22 0.400000000000089 215.22 Z" mask="url(#clip1708)" transform="matrix(1 0 0 1 -861 -2503 ) matrix(1 0 0 1 861 2503 )"/></g></svg>