<svg xmlns="http://www.w3.org/2000/svg" xmlns:xlink="http://www.w3.org/1999/xlink" width="29" height="125" version="1.1"><defs><mask id="clip1694" fill="#fff"><path fill-rule="evenodd" d="M 0.0299999999999727 124.14 C 0.0299999999999727 124.14 0.0299999999999727 0.139999999999986 0.0299999999999727 0.139999999999986 C 0.0299999999999727 0.139999999999986 28.63 0.139999999999986 28.63 0.139999999999986 C 28.63 0.139999999999986 28.63 124.14 28.63 124.14 C 28.63 124.14 0.0299999999999727 124.14 0.0299999999999727 124.14 Z"/></mask></defs><g><path fill="#55bfca" fill-rule="nonzero" stroke="none" d="M 0.0299999999999727 124.14 C 0.0299999999999727 124.14 0.0299999999999727 0.139999999999986 0.0299999999999727 0.139999999999986 C 0.0299999999999727 0.139999999999986 28.63 0.139999999999986 28.63 0.139999999999986 C 28.63 0.139999999999986 28.63 124.14 28.63 124.14 C 28.63 124.14 0.0299999999999727 124.14 0.0299999999999727 124.14 Z" transform="matrix(1 0 0 1 -459 -2594 ) matrix(1 0 0 1 459 2594 )"/><path fill="none" stroke="#55bfca" stroke-width="2" d="M 0.0299999999999727 124.14 C 0.0299999999999727 124.14 0.0299999999999727 0.139999999999986 0.0299999999999727 0.139999999999986 C 0.0299999999999727 0.139999999999986 28.63 0.139999999999986 28.63 0.139999999999986 C 28.63 0.139999999999986 28.63 124.14 28.63 124.14 C 28.63 124.14 0.0299999999999727 124.14 0.0299999999999727 124.14 Z" mask="url(#clip1694)" transform="matrix(1 0 0 1 -459 -2594 ) matrix(1 0 0 1 459 2594 )"/></g></svg>