<svg xmlns="http://www.w3.org/2000/svg" xmlns:xlink="http://www.w3.org/1999/xlink" width="29" height="229" version="1.1"><defs><mask id="clip1698" fill="#fff"><path fill-rule="evenodd" d="M 0.0699999999999932 228.15 C 0.0699999999999932 228.15 0.0699999999999932 0.25 0.0699999999999932 0.25 C 0.0699999999999932 0.25 28.67 0.25 28.67 0.25 C 28.67 0.25 28.67 228.15 28.67 228.15 C 28.67 228.15 0.0699999999999932 228.15 0.0699999999999932 228.15 Z"/></mask></defs><g><path fill="#b3e58c" fill-rule="nonzero" stroke="none" d="M 0.0699999999999932 228.15 C 0.0699999999999932 228.15 0.0699999999999932 0.25 0.0699999999999932 0.25 C 0.0699999999999932 0.25 28.67 0.25 28.67 0.25 C 28.67 0.25 28.67 228.15 28.67 228.15 C 28.67 228.15 0.0699999999999932 228.15 0.0699999999999932 228.15 Z" transform="matrix(1 0 0 1 -594 -2490 ) matrix(1 0 0 1 594 2490 )"/><path fill="none" stroke="#b3e58c" stroke-width="2" d="M 0.0699999999999932 228.15 C 0.0699999999999932 228.15 0.0699999999999932 0.25 0.0699999999999932 0.25 C 0.0699999999999932 0.25 28.67 0.25 28.67 0.25 C 28.67 0.25 28.67 228.15 28.67 228.15 C 28.67 228.15 0.0699999999999932 228.15 0.0699999999999932 228.15 Z" mask="url(#clip1698)" transform="matrix(1 0 0 1 -594 -2490 ) matrix(1 0 0 1 594 2490 )"/></g></svg>