<svg xmlns="http://www.w3.org/2000/svg" xmlns:xlink="http://www.w3.org/1999/xlink" width="30" height="144" version="1.1"><defs><mask id="clip1702" fill="#fff"><path fill-rule="evenodd" d="M 0.910000000000082 143.2 C 0.910000000000082 143.2 0.910000000000082 0 0.910000000000082 0 C 0.910000000000082 0 29.5100000000001 0 29.5100000000001 0 C 29.5100000000001 0 29.5100000000001 143.2 29.5100000000001 143.2 C 29.5100000000001 143.2 0.910000000000082 143.2 0.910000000000082 143.2 Z"/></mask></defs><g><path fill="#bdecf8" fill-rule="nonzero" stroke="none" d="M 0.910000000000082 143.2 C 0.910000000000082 143.2 0.910000000000082 0 0.910000000000082 0 C 0.910000000000082 0 29.5100000000001 0 29.5100000000001 0 C 29.5100000000001 0 29.5100000000001 143.2 29.5100000000001 143.2 C 29.5100000000001 143.2 0.910000000000082 143.2 0.910000000000082 143.2 Z" transform="matrix(1 0 0 1 -753 -2575 ) matrix(1 0 0 1 753 2575 )"/><path fill="none" stroke="#bdecf8" stroke-width="2" d="M 0.910000000000082 143.2 C 0.910000000000082 143.2 0.910000000000082 0 0.910000000000082 0 C 0.910000000000082 0 29.5100000000001 0 29.5100000000001 0 C 29.5100000000001 0 29.5100000000001 143.2 29.5100000000001 143.2 C 29.5100000000001 143.2 0.910000000000082 143.2 0.910000000000082 143.2 Z" mask="url(#clip1702)" transform="matrix(1 0 0 1 -753 -2575 ) matrix(1 0 0 1 753 2575 )"/></g></svg>