<?xml version="1.0" encoding="utf-8"?>
<svg version="1.1" xmlns:xlink="http://www.w3.org/1999/xlink" width="14px" height="14px" xmlns="http://www.w3.org/2000/svg">
  <defs>
    <mask fill="white" id="clip592">
      <path d="M 7.39999999999998 0.889999999999418  C 10.5 0.889999999999418  13.1 4.59000000000015  13.1 7.88999999999942  C 13.1 11.1900000000005  10.5 13.8899999999994  7.39999999999998 13.8899999999994  C 4.29999999999995 13.8899999999994  0.700000000000045 11.1900000000005  0.700000000000045 7.88999999999942  C 0.700000000000045 4.59000000000015  4.29999999999995 0.889999999999418  7.39999999999998 0.889999999999418  Z " fill-rule="evenodd" />
    </mask>
  </defs>
  <g transform="matrix(1 0 0 1 -701 -8845 )">
    <path d="M 7.39999999999998 0.889999999999418  C 10.5 0.889999999999418  13.1 4.59000000000015  13.1 7.88999999999942  C 13.1 11.1900000000005  10.5 13.8899999999994  7.39999999999998 13.8899999999994  C 4.29999999999995 13.8899999999994  0.700000000000045 11.1900000000005  0.700000000000045 7.88999999999942  C 0.700000000000045 4.59000000000015  4.29999999999995 0.889999999999418  7.39999999999998 0.889999999999418  Z " fill-rule="nonzero" fill="#ffffff" stroke="none" fill-opacity="0" transform="matrix(1 0 0 1 701 8845 )" />
    <path d="M 7.39999999999998 0.889999999999418  C 10.5 0.889999999999418  13.1 4.59000000000015  13.1 7.88999999999942  C 13.1 11.1900000000005  10.5 13.8899999999994  7.39999999999998 13.8899999999994  C 4.29999999999995 13.8899999999994  0.700000000000045 11.1900000000005  0.700000000000045 7.88999999999942  C 0.700000000000045 4.59000000000015  4.29999999999995 0.889999999999418  7.39999999999998 0.889999999999418  Z " stroke-width="2" stroke="#00ae9d" fill="none" transform="matrix(1 0 0 1 701 8845 )" mask="url(#clip592)" />
  </g>
</svg>