<svg xmlns="http://www.w3.org/2000/svg" xmlns:xlink="http://www.w3.org/1999/xlink" width="30" height="153" version="1.1"><defs><mask id="clip1693" fill="#fff"><path fill-rule="evenodd" d="M 0.470000000000027 152.2 C 0.470000000000027 152.2 0.470000000000027 0.800000000000011 0.470000000000027 0.800000000000011 C 0.470000000000027 0.800000000000011 29.0700000000001 0.800000000000011 29.0700000000001 0.800000000000011 C 29.0700000000001 0.800000000000011 29.0700000000001 152.2 29.0700000000001 152.2 C 29.0700000000001 152.2 0.470000000000027 152.2 0.470000000000027 152.2 Z"/></mask></defs><g><path fill="#bdecf8" fill-rule="nonzero" stroke="none" d="M 0.470000000000027 152.2 C 0.470000000000027 152.2 0.470000000000027 0.800000000000011 0.470000000000027 0.800000000000011 C 0.470000000000027 0.800000000000011 29.0700000000001 0.800000000000011 29.0700000000001 0.800000000000011 C 29.0700000000001 0.800000000000011 29.0700000000001 152.2 29.0700000000001 152.2 C 29.0700000000001 152.2 0.470000000000027 152.2 0.470000000000027 152.2 Z" transform="matrix(1 0 0 1 -431 -2566 ) matrix(1 0 0 1 431 2566 )"/><path fill="none" stroke="#bdecf8" stroke-width="2" d="M 0.470000000000027 152.2 C 0.470000000000027 152.2 0.470000000000027 0.800000000000011 0.470000000000027 0.800000000000011 C 0.470000000000027 0.800000000000011 29.0700000000001 0.800000000000011 29.0700000000001 0.800000000000011 C 29.0700000000001 0.800000000000011 29.0700000000001 152.2 29.0700000000001 152.2 C 29.0700000000001 152.2 0.470000000000027 152.2 0.470000000000027 152.2 Z" mask="url(#clip1693)" transform="matrix(1 0 0 1 -431 -2566 ) matrix(1 0 0 1 431 2566 )"/></g></svg>