<svg xmlns="http://www.w3.org/2000/svg" xmlns:xlink="http://www.w3.org/1999/xlink" width="30" height="109" version="1.1"><defs><mask id="clip1696" fill="#fff"><path fill-rule="evenodd" d="M 0.949999999999989 108.14 C 0.949999999999989 108.14 0.949999999999989 0.54000000000002 0.949999999999989 0.54000000000002 C 0.949999999999989 0.54000000000002 29.55 0.54000000000002 29.55 0.54000000000002 C 29.55 0.54000000000002 29.55 108.14 29.55 108.14 C 29.55 108.14 0.949999999999989 108.14 0.949999999999989 108.14 Z"/></mask></defs><g><path fill="#bdecf8" fill-rule="nonzero" stroke="none" d="M 0.949999999999989 108.14 C 0.949999999999989 108.14 0.949999999999989 0.54000000000002 0.949999999999989 0.54000000000002 C 0.949999999999989 0.54000000000002 29.55 0.54000000000002 29.55 0.54000000000002 C 29.55 0.54000000000002 29.55 108.14 29.55 108.14 C 29.55 108.14 0.949999999999989 108.14 0.949999999999989 108.14 Z" transform="matrix(1 0 0 1 -538 -2610 ) matrix(1 0 0 1 538 2610 )"/><path fill="none" stroke="#bdecf8" stroke-width="2" d="M 0.949999999999989 108.14 C 0.949999999999989 108.14 0.949999999999989 0.54000000000002 0.949999999999989 0.54000000000002 C 0.949999999999989 0.54000000000002 29.55 0.54000000000002 29.55 0.54000000000002 C 29.55 0.54000000000002 29.55 108.14 29.55 108.14 C 29.55 108.14 0.949999999999989 108.14 0.949999999999989 108.14 Z" mask="url(#clip1696)" transform="matrix(1 0 0 1 -538 -2610 ) matrix(1 0 0 1 538 2610 )"/></g></svg>