<?xml version="1.0" encoding="utf-8"?>
<svg version="1.1" xmlns:xlink="http://www.w3.org/1999/xlink" width="13px" height="13px" xmlns="http://www.w3.org/2000/svg">
  <defs>
    <mask fill="white" id="clip468">
      <path d="M 6.93000000000001 0.210000000000036  C 10.03 0.210000000000036  12.63 3.81000000000006  12.63 6.91000000000008  C 12.63 10.0100000000001  10.03 12.6100000000001  6.93000000000001 12.6100000000001  C 3.82999999999998 12.6100000000001  0.230000000000018 10.0100000000001  0.230000000000018 6.91000000000008  C 0.230000000000018 3.81000000000006  3.82999999999998 0.210000000000036  6.93000000000001 0.210000000000036  Z " fill-rule="evenodd" />
    </mask>
  </defs>
  <g transform="matrix(1 0 0 1 -420 -9266 )">
    <path d="M 6.93000000000001 0.210000000000036  C 10.03 0.210000000000036  12.63 3.81000000000006  12.63 6.91000000000008  C 12.63 10.0100000000001  10.03 12.6100000000001  6.93000000000001 12.6100000000001  C 3.82999999999998 12.6100000000001  0.230000000000018 10.0100000000001  0.230000000000018 6.91000000000008  C 0.230000000000018 3.81000000000006  3.82999999999998 0.210000000000036  6.93000000000001 0.210000000000036  Z " fill-rule="nonzero" fill="#595757" stroke="none" transform="matrix(1 0 0 1 420 9266 )" />
    <path d="M 6.93000000000001 0.210000000000036  C 10.03 0.210000000000036  12.63 3.81000000000006  12.63 6.91000000000008  C 12.63 10.0100000000001  10.03 12.6100000000001  6.93000000000001 12.6100000000001  C 3.82999999999998 12.6100000000001  0.230000000000018 10.0100000000001  0.230000000000018 6.91000000000008  C 0.230000000000018 3.81000000000006  3.82999999999998 0.210000000000036  6.93000000000001 0.210000000000036  Z " stroke-width="2" stroke="#595757" fill="none" transform="matrix(1 0 0 1 420 9266 )" mask="url(#clip468)" />
  </g>
</svg>