<svg xmlns="http://www.w3.org/2000/svg" xmlns:xlink="http://www.w3.org/1999/xlink" width="29" height="323" version="1.1"><defs><mask id="clip1718" fill="#fff"><path fill-rule="evenodd" d="M 0.159999999999968 322.08 C 0.159999999999968 322.08 0.159999999999968 0.280000000000001 0.159999999999968 0.280000000000001 C 0.159999999999968 0.280000000000001 28.76 0.280000000000001 28.76 0.280000000000001 C 28.76 0.280000000000001 28.76 322.08 28.76 322.08 C 28.76 322.08 0.159999999999968 322.08 0.159999999999968 322.08 Z"/></mask></defs><g><path fill="#595757" fill-rule="nonzero" stroke="none" d="M 0.159999999999968 322.08 C 0.159999999999968 322.08 0.159999999999968 0.280000000000001 0.159999999999968 0.280000000000001 C 0.159999999999968 0.280000000000001 28.76 0.280000000000001 28.76 0.280000000000001 C 28.76 0.280000000000001 28.76 322.08 28.76 322.08 C 28.76 322.08 0.159999999999968 322.08 0.159999999999968 322.08 Z" transform="matrix(1 0 0 1 -432 -3316 ) matrix(1 0 0 1 432 3316 )"/><path fill="none" stroke="#595757" stroke-opacity=".498" stroke-width="2" d="M 0.159999999999968 322.08 C 0.159999999999968 322.08 0.159999999999968 0.280000000000001 0.159999999999968 0.280000000000001 C 0.159999999999968 0.280000000000001 28.76 0.280000000000001 28.76 0.280000000000001 C 28.76 0.280000000000001 28.76 322.08 28.76 322.08 C 28.76 322.08 0.159999999999968 322.08 0.159999999999968 322.08 Z" mask="url(#clip1718)" transform="matrix(1 0 0 1 -432 -3316 ) matrix(1 0 0 1 432 3316 )"/></g></svg>