<?xml version="1.0" encoding="utf-8"?>
<svg version="1.1" xmlns:xlink="http://www.w3.org/1999/xlink" width="31px" height="21px" xmlns="http://www.w3.org/2000/svg">
  <defs>
    <mask fill="white" id="clip1713">
      <path d="M 0.809999999999945 20.07  C 0.809999999999945 20.07  0.809999999999945 0.170000000000016  0.809999999999945 0.170000000000016  C 0.809999999999945 0.170000000000016  30.1099999999999 0.170000000000016  30.1099999999999 0.170000000000016  C 30.1099999999999 0.170000000000016  30.1099999999999 20.07  30.1099999999999 20.07  C 30.1099999999999 20.07  0.809999999999945 20.07  0.809999999999945 20.07  Z " fill-rule="evenodd" />
    </mask>
  </defs>
  <g transform="matrix(1 0 0 1 -717 -2757 )">
    <path d="M 0.809999999999945 20.07  C 0.809999999999945 20.07  0.809999999999945 0.170000000000016  0.809999999999945 0.170000000000016  C 0.809999999999945 0.170000000000016  30.1099999999999 0.170000000000016  30.1099999999999 0.170000000000016  C 30.1099999999999 0.170000000000016  30.1099999999999 20.07  30.1099999999999 20.07  C 30.1099999999999 20.07  0.809999999999945 20.07  0.809999999999945 20.07  Z " fill-rule="nonzero" fill="#b3e58c" stroke="none" transform="matrix(1 0 0 1 717 2757 )" />
    <path d="M 0.809999999999945 20.07  C 0.809999999999945 20.07  0.809999999999945 0.170000000000016  0.809999999999945 0.170000000000016  C 0.809999999999945 0.170000000000016  30.1099999999999 0.170000000000016  30.1099999999999 0.170000000000016  C 30.1099999999999 0.170000000000016  30.1099999999999 20.07  30.1099999999999 20.07  C 30.1099999999999 20.07  0.809999999999945 20.07  0.809999999999945 20.07  Z " stroke-width="2" stroke="#b3e58c" fill="none" transform="matrix(1 0 0 1 717 2757 )" mask="url(#clip1713)" />
  </g>
</svg>