<svg xmlns="http://www.w3.org/2000/svg" xmlns:xlink="http://www.w3.org/1999/xlink" width="29" height="259" version="1.1"><defs><mask id="clip1726" fill="#fff"><path fill-rule="evenodd" d="M 0.0900000000000318 258.03 C 0.0900000000000318 258.03 0.0900000000000318 0.430000000000007 0.0900000000000318 0.430000000000007 C 0.0900000000000318 0.430000000000007 28.6900000000001 0.430000000000007 28.6900000000001 0.430000000000007 C 28.6900000000001 0.430000000000007 28.6900000000001 258.03 28.6900000000001 258.03 C 28.6900000000001 258.03 0.0900000000000318 258.03 0.0900000000000318 258.03 Z"/></mask></defs><g><path fill="#595757" fill-rule="nonzero" stroke="none" d="M 0.0900000000000318 258.03 C 0.0900000000000318 258.03 0.0900000000000318 0.430000000000007 0.0900000000000318 0.430000000000007 C 0.0900000000000318 0.430000000000007 28.6900000000001 0.430000000000007 28.6900000000001 0.430000000000007 C 28.6900000000001 0.430000000000007 28.6900000000001 258.03 28.6900000000001 258.03 C 28.6900000000001 258.03 0.0900000000000318 258.03 0.0900000000000318 258.03 Z" transform="matrix(1 0 0 1 -862 -3380 ) matrix(1 0 0 1 862 3380 )"/><path fill="none" stroke="#595757" stroke-opacity=".498" stroke-width="2" d="M 0.0900000000000318 258.03 C 0.0900000000000318 258.03 0.0900000000000318 0.430000000000007 0.0900000000000318 0.430000000000007 C 0.0900000000000318 0.430000000000007 28.6900000000001 0.430000000000007 28.6900000000001 0.430000000000007 C 28.6900000000001 0.430000000000007 28.6900000000001 258.03 28.6900000000001 258.03 C 28.6900000000001 258.03 0.0900000000000318 258.03 0.0900000000000318 258.03 Z" mask="url(#clip1726)" transform="matrix(1 0 0 1 -862 -3380 ) matrix(1 0 0 1 862 3380 )"/></g></svg>