<svg xmlns="http://www.w3.org/2000/svg" xmlns:xlink="http://www.w3.org/1999/xlink" width="29" height="134" version="1.1"><defs><mask id="clip1723" fill="#fff"><path fill-rule="evenodd" d="M 0.0399999999999636 133.06 C 0.0399999999999636 133.06 0.0399999999999636 0.360000000000014 0.0399999999999636 0.360000000000014 C 0.0399999999999636 0.360000000000014 28.64 0.360000000000014 28.64 0.360000000000014 C 28.64 0.360000000000014 28.64 133.06 28.64 133.06 C 28.64 133.06 0.0399999999999636 133.06 0.0399999999999636 133.06 Z"/></mask></defs><g><path fill="#8ebbff" fill-rule="nonzero" stroke="none" d="M 0.0399999999999636 133.06 C 0.0399999999999636 133.06 0.0399999999999636 0.360000000000014 0.0399999999999636 0.360000000000014 C 0.0399999999999636 0.360000000000014 28.64 0.360000000000014 28.64 0.360000000000014 C 28.64 0.360000000000014 28.64 133.06 28.64 133.06 C 28.64 133.06 0.0399999999999636 133.06 0.0399999999999636 133.06 Z" transform="matrix(1 0 0 1 -727 -3505 ) matrix(1 0 0 1 727 3505 )"/><path fill="none" stroke="#8ebbff" stroke-opacity=".498" stroke-width="2" d="M 0.0399999999999636 133.06 C 0.0399999999999636 133.06 0.0399999999999636 0.360000000000014 0.0399999999999636 0.360000000000014 C 0.0399999999999636 0.360000000000014 28.64 0.360000000000014 28.64 0.360000000000014 C 28.64 0.360000000000014 28.64 133.06 28.64 133.06 C 28.64 133.06 0.0399999999999636 133.06 0.0399999999999636 133.06 Z" mask="url(#clip1723)" transform="matrix(1 0 0 1 -727 -3505 ) matrix(1 0 0 1 727 3505 )"/></g></svg>