<svg xmlns="http://www.w3.org/2000/svg" xmlns:xlink="http://www.w3.org/1999/xlink" width="30" height="235" version="1.1"><defs><mask id="clip1710" fill="#fff"><path fill-rule="evenodd" d="M 0.519999999999982 234.18 C 0.519999999999982 234.18 0.519999999999982 0.780000000000001 0.519999999999982 0.780000000000001 C 0.519999999999982 0.780000000000001 29.12 0.780000000000001 29.12 0.780000000000001 C 29.12 0.780000000000001 29.12 234.18 29.12 234.18 C 29.12 234.18 0.519999999999982 234.18 0.519999999999982 234.18 Z"/></mask></defs><g><path fill="#b3e58c" fill-rule="nonzero" stroke="none" d="M 0.519999999999982 234.18 C 0.519999999999982 234.18 0.519999999999982 0.780000000000001 0.519999999999982 0.780000000000001 C 0.519999999999982 0.780000000000001 29.12 0.780000000000001 29.12 0.780000000000001 C 29.12 0.780000000000001 29.12 234.18 29.12 234.18 C 29.12 234.18 0.519999999999982 234.18 0.519999999999982 234.18 Z" transform="matrix(1 0 0 1 -916 -2484 ) matrix(1 0 0 1 916 2484 )"/><path fill="none" stroke="#b3e58c" stroke-width="2" d="M 0.519999999999982 234.18 C 0.519999999999982 234.18 0.519999999999982 0.780000000000001 0.519999999999982 0.780000000000001 C 0.519999999999982 0.780000000000001 29.12 0.780000000000001 29.12 0.780000000000001 C 29.12 0.780000000000001 29.12 234.18 29.12 234.18 C 29.12 234.18 0.519999999999982 234.18 0.519999999999982 234.18 Z" mask="url(#clip1710)" transform="matrix(1 0 0 1 -916 -2484 ) matrix(1 0 0 1 916 2484 )"/></g></svg>