<svg xmlns="http://www.w3.org/2000/svg" xmlns:xlink="http://www.w3.org/1999/xlink" width="30" height="266" version="1.1"><defs><mask id="clip1720" fill="#fff"><path fill-rule="evenodd" d="M 0.639999999999986 265.08 C 0.639999999999986 265.08 0.639999999999986 0.680000000000007 0.639999999999986 0.680000000000007 C 0.639999999999986 0.680000000000007 29.24 0.680000000000007 29.24 0.680000000000007 C 29.24 0.680000000000007 29.24 265.08 29.24 265.08 C 29.24 265.08 0.639999999999986 265.08 0.639999999999986 265.08 Z"/></mask></defs><g><path fill="#595757" fill-rule="nonzero" stroke="none" d="M 0.639999999999986 265.08 C 0.639999999999986 265.08 0.639999999999986 0.680000000000007 0.639999999999986 0.680000000000007 C 0.639999999999986 0.680000000000007 29.24 0.680000000000007 29.24 0.680000000000007 C 29.24 0.680000000000007 29.24 265.08 29.24 265.08 C 29.24 265.08 0.639999999999986 265.08 0.639999999999986 265.08 Z" transform="matrix(1 0 0 1 -539 -3373 ) matrix(1 0 0 1 539 3373 )"/><path fill="none" stroke="#595757" stroke-opacity=".498" stroke-width="2" d="M 0.639999999999986 265.08 C 0.639999999999986 265.08 0.639999999999986 0.680000000000007 0.639999999999986 0.680000000000007 C 0.639999999999986 0.680000000000007 29.24 0.680000000000007 29.24 0.680000000000007 C 29.24 0.680000000000007 29.24 265.08 29.24 265.08 C 29.24 265.08 0.639999999999986 265.08 0.639999999999986 265.08 Z" mask="url(#clip1720)" transform="matrix(1 0 0 1 -539 -3373 ) matrix(1 0 0 1 539 3373 )"/></g></svg>