<svg xmlns="http://www.w3.org/2000/svg" xmlns:xlink="http://www.w3.org/1999/xlink" width="30" height="161" version="1.1"><defs><mask id="clip1709" fill="#fff"><path fill-rule="evenodd" d="M 0.960000000000036 160.2 C 0.960000000000036 160.2 0.960000000000036 0.600000000000023 0.960000000000036 0.600000000000023 C 0.960000000000036 0.600000000000023 29.5600000000001 0.600000000000023 29.5600000000001 0.600000000000023 C 29.5600000000001 0.600000000000023 29.5600000000001 160.2 29.5600000000001 160.2 C 29.5600000000001 160.2 0.960000000000036 160.2 0.960000000000036 160.2 Z"/></mask></defs><g><path fill="#55bfca" fill-rule="nonzero" stroke="none" d="M 0.960000000000036 160.2 C 0.960000000000036 160.2 0.960000000000036 0.600000000000023 0.960000000000036 0.600000000000023 C 0.960000000000036 0.600000000000023 29.5600000000001 0.600000000000023 29.5600000000001 0.600000000000023 C 29.5600000000001 0.600000000000023 29.5600000000001 160.2 29.5600000000001 160.2 C 29.5600000000001 160.2 0.960000000000036 160.2 0.960000000000036 160.2 Z" transform="matrix(1 0 0 1 -888 -2558 ) matrix(1 0 0 1 888 2558 )"/><path fill="none" stroke="#55bfca" stroke-width="2" d="M 0.960000000000036 160.2 C 0.960000000000036 160.2 0.960000000000036 0.600000000000023 0.960000000000036 0.600000000000023 C 0.960000000000036 0.600000000000023 29.5600000000001 0.600000000000023 29.5600000000001 0.600000000000023 C 29.5600000000001 0.600000000000023 29.5600000000001 160.2 29.5600000000001 160.2 C 29.5600000000001 160.2 0.960000000000036 160.2 0.960000000000036 160.2 Z" mask="url(#clip1709)" transform="matrix(1 0 0 1 -888 -2558 ) matrix(1 0 0 1 888 2558 )"/></g></svg>