<svg xmlns="http://www.w3.org/2000/svg" xmlns:xlink="http://www.w3.org/1999/xlink" width="30" height="153" version="1.1"><defs><mask id="clip1725" fill="#fff"><path fill-rule="evenodd" d="M 0.529999999999973 153 C 0.529999999999973 153 0.529999999999973 0.100000000000023 0.529999999999973 0.100000000000023 C 0.529999999999973 0.100000000000023 29.13 0.100000000000023 29.13 0.100000000000023 C 29.13 0.100000000000023 29.13 153 29.13 153 C 29.13 153 0.529999999999973 153 0.529999999999973 153 Z"/></mask></defs><g><path fill="#8ebbff" fill-rule="nonzero" stroke="none" d="M 0.529999999999973 153 C 0.529999999999973 153 0.529999999999973 0.100000000000023 0.529999999999973 0.100000000000023 C 0.529999999999973 0.100000000000023 29.13 0.100000000000023 29.13 0.100000000000023 C 29.13 0.100000000000023 29.13 153 29.13 153 C 29.13 153 0.529999999999973 153 0.529999999999973 153 Z" transform="matrix(1 0 0 1 -834 -3485 ) matrix(1 0 0 1 834 3485 )"/><path fill="none" stroke="#8ebbff" stroke-opacity=".498" stroke-width="2" d="M 0.529999999999973 153 C 0.529999999999973 153 0.529999999999973 0.100000000000023 0.529999999999973 0.100000000000023 C 0.529999999999973 0.100000000000023 29.13 0.100000000000023 29.13 0.100000000000023 C 29.13 0.100000000000023 29.13 153 29.13 153 C 29.13 153 0.529999999999973 153 0.529999999999973 153 Z" mask="url(#clip1725)" transform="matrix(1 0 0 1 -834 -3485 ) matrix(1 0 0 1 834 3485 )"/></g></svg>