<svg xmlns="http://www.w3.org/2000/svg" xmlns:xlink="http://www.w3.org/1999/xlink" width="29" height="87" version="1.1"><defs><mask id="clip1719" fill="#fff"><path fill-rule="evenodd" d="M 0.0799999999999841 86.03 C 0.0799999999999841 86.03 0.0799999999999841 0.629999999999995 0.0799999999999841 0.629999999999995 C 0.0799999999999841 0.629999999999995 28.68 0.629999999999995 28.68 0.629999999999995 C 28.68 0.629999999999995 28.68 86.03 28.68 86.03 C 28.68 86.03 0.0799999999999841 86.03 0.0799999999999841 86.03 Z"/></mask></defs><g><path fill="#8ebbff" fill-rule="nonzero" stroke="none" d="M 0.0799999999999841 86.03 C 0.0799999999999841 86.03 0.0799999999999841 0.629999999999995 0.0799999999999841 0.629999999999995 C 0.0799999999999841 0.629999999999995 28.68 0.629999999999995 28.68 0.629999999999995 C 28.68 0.629999999999995 28.68 86.03 28.68 86.03 C 28.68 86.03 0.0799999999999841 86.03 0.0799999999999841 86.03 Z" transform="matrix(1 0 0 1 -512 -3552 ) matrix(1 0 0 1 512 3552 )"/><path fill="none" stroke="#8ebbff" stroke-opacity=".498" stroke-width="2" d="M 0.0799999999999841 86.03 C 0.0799999999999841 86.03 0.0799999999999841 0.629999999999995 0.0799999999999841 0.629999999999995 C 0.0799999999999841 0.629999999999995 28.68 0.629999999999995 28.68 0.629999999999995 C 28.68 0.629999999999995 28.68 86.03 28.68 86.03 C 28.68 86.03 0.0799999999999841 86.03 0.0799999999999841 86.03 Z" mask="url(#clip1719)" transform="matrix(1 0 0 1 -512 -3552 ) matrix(1 0 0 1 512 3552 )"/></g></svg>