<?xml version="1.0" encoding="utf-8"?>
<svg version="1.1" xmlns:xlink="http://www.w3.org/1999/xlink" width="13px" height="14px" xmlns="http://www.w3.org/2000/svg">
  <defs>
    <mask fill="white" id="clip436">
      <path d="M 0.300000000000011 7.09000000000003  C 0.300000000000011 7.09000000000003  7 0.0900000000000318  7 0.0900000000000318  C 7 0.0900000000000318  12.7 7.09000000000003  12.7 7.09000000000003  C 12.7 7.09000000000003  7 13.09  7 13.09  C 7 13.09  0.300000000000011 7.09000000000003  0.300000000000011 7.09000000000003  Z " fill-rule="evenodd" />
    </mask>
  </defs>
  <g transform="matrix(1 0 0 1 -234 -8960 )">
    <path d="M 0.300000000000011 7.09000000000003  C 0.300000000000011 7.09000000000003  7 0.0900000000000318  7 0.0900000000000318  C 7 0.0900000000000318  12.7 7.09000000000003  12.7 7.09000000000003  C 12.7 7.09000000000003  7 13.09  7 13.09  C 7 13.09  0.300000000000011 7.09000000000003  0.300000000000011 7.09000000000003  Z " fill-rule="nonzero" fill="#d4cdc7" stroke="none" transform="matrix(1 0 0 1 234 8960 )" />
    <path d="M 0.300000000000011 7.09000000000003  C 0.300000000000011 7.09000000000003  7 0.0900000000000318  7 0.0900000000000318  C 7 0.0900000000000318  12.7 7.09000000000003  12.7 7.09000000000003  C 12.7 7.09000000000003  7 13.09  7 13.09  C 7 13.09  0.300000000000011 7.09000000000003  0.300000000000011 7.09000000000003  Z " stroke-width="2" stroke="#d4cdc7" fill="none" transform="matrix(1 0 0 1 234 8960 )" mask="url(#clip436)" />
  </g>
</svg>