<svg xmlns="http://www.w3.org/2000/svg" xmlns:xlink="http://www.w3.org/1999/xlink" width="31" height="21" version="1.1"><defs><mask id="clip1713" fill="#fff"><path fill-rule="evenodd" d="M 0.809999999999945 20.07 C 0.809999999999945 20.07 0.809999999999945 0.170000000000016 0.809999999999945 0.170000000000016 C 0.809999999999945 0.170000000000016 30.1099999999999 0.170000000000016 30.1099999999999 0.170000000000016 C 30.1099999999999 0.170000000000016 30.1099999999999 20.07 30.1099999999999 20.07 C 30.1099999999999 20.07 0.809999999999945 20.07 0.809999999999945 20.07 Z"/></mask></defs><g><path fill="#b3e58c" fill-rule="nonzero" stroke="none" d="M 0.809999999999945 20.07 C 0.809999999999945 20.07 0.809999999999945 0.170000000000016 0.809999999999945 0.170000000000016 C 0.809999999999945 0.170000000000016 30.1099999999999 0.170000000000016 30.1099999999999 0.170000000000016 C 30.1099999999999 0.170000000000016 30.1099999999999 20.07 30.1099999999999 20.07 C 30.1099999999999 20.07 0.809999999999945 20.07 0.809999999999945 20.07 Z" transform="matrix(1 0 0 1 -717 -2757 ) matrix(1 0 0 1 717 2757 )"/><path fill="none" stroke="#b3e58c" stroke-width="2" d="M 0.809999999999945 20.07 C 0.809999999999945 20.07 0.809999999999945 0.170000000000016 0.809999999999945 0.170000000000016 C 0.809999999999945 0.170000000000016 30.1099999999999 0.170000000000016 30.1099999999999 0.170000000000016 C 30.1099999999999 0.170000000000016 30.1099999999999 20.07 30.1099999999999 20.07 C 30.1099999999999 20.07 0.809999999999945 20.07 0.809999999999945 20.07 Z" mask="url(#clip1713)" transform="matrix(1 0 0 1 -717 -2757 ) matrix(1 0 0 1 717 2757 )"/></g></svg>