<?xml version="1.0" encoding="utf-8"?>
<svg version="1.1" xmlns:xlink="http://www.w3.org/1999/xlink" width="13px" height="14px" xmlns="http://www.w3.org/2000/svg">
  <defs>
    <mask fill="white" id="clip514">
      <path d="M 7.10000000000002 0.190000000000509  C 10.2 0.190000000000509  12.8 3.88999999999942  12.8 7.19000000000051  C 12.8 10.4899999999998  10.2 13.1900000000005  7.10000000000002 13.1900000000005  C 4 13.1900000000005  0.399999999999977 10.4899999999998  0.399999999999977 7.19000000000051  C 0.399999999999977 3.88999999999942  4 0.190000000000509  7.10000000000002 0.190000000000509  Z " fill-rule="evenodd" />
    </mask>
  </defs>
  <g transform="matrix(1 0 0 1 -501 -9055 )">
    <path d="M 7.10000000000002 0.190000000000509  C 10.2 0.190000000000509  12.8 3.88999999999942  12.8 7.19000000000051  C 12.8 10.4899999999998  10.2 13.1900000000005  7.10000000000002 13.1900000000005  C 4 13.1900000000005  0.399999999999977 10.4899999999998  0.399999999999977 7.19000000000051  C 0.399999999999977 3.88999999999942  4 0.190000000000509  7.10000000000002 0.190000000000509  Z " fill-rule="nonzero" fill="#ffffff" stroke="none" fill-opacity="0" transform="matrix(1 0 0 1 501 9055 )" />
    <path d="M 7.10000000000002 0.190000000000509  C 10.2 0.190000000000509  12.8 3.88999999999942  12.8 7.19000000000051  C 12.8 10.4899999999998  10.2 13.1900000000005  7.10000000000002 13.1900000000005  C 4 13.1900000000005  0.399999999999977 10.4899999999998  0.399999999999977 7.19000000000051  C 0.399999999999977 3.88999999999942  4 0.190000000000509  7.10000000000002 0.190000000000509  Z " stroke-width="2" stroke="#595757" fill="none" transform="matrix(1 0 0 1 501 9055 )" mask="url(#clip514)" />
  </g>
</svg>