<svg xmlns="http://www.w3.org/2000/svg" xmlns:xlink="http://www.w3.org/1999/xlink" width="30" height="232" version="1.1"><defs><mask id="clip1724" fill="#fff"><path fill-rule="evenodd" d="M 0.600000000000023 231.04 C 0.600000000000023 231.04 0.600000000000023 0.439999999999998 0.600000000000023 0.439999999999998 C 0.600000000000023 0.439999999999998 29.2 0.439999999999998 29.2 0.439999999999998 C 29.2 0.439999999999998 29.2 231.04 29.2 231.04 C 29.2 231.04 0.600000000000023 231.04 0.600000000000023 231.04 Z"/></mask></defs><g><path fill="#595757" fill-rule="nonzero" stroke="none" d="M 0.600000000000023 231.04 C 0.600000000000023 231.04 0.600000000000023 0.439999999999998 0.600000000000023 0.439999999999998 C 0.600000000000023 0.439999999999998 29.2 0.439999999999998 29.2 0.439999999999998 C 29.2 0.439999999999998 29.2 231.04 29.2 231.04 C 29.2 231.04 0.600000000000023 231.04 0.600000000000023 231.04 Z" transform="matrix(1 0 0 1 -754 -3407 ) matrix(1 0 0 1 754 3407 )"/><path fill="none" stroke="#595757" stroke-opacity=".498" stroke-width="2" d="M 0.600000000000023 231.04 C 0.600000000000023 231.04 0.600000000000023 0.439999999999998 0.600000000000023 0.439999999999998 C 0.600000000000023 0.439999999999998 29.2 0.439999999999998 29.2 0.439999999999998 C 29.2 0.439999999999998 29.2 231.04 29.2 231.04 C 29.2 231.04 0.600000000000023 231.04 0.600000000000023 231.04 Z" mask="url(#clip1724)" transform="matrix(1 0 0 1 -754 -3407 ) matrix(1 0 0 1 754 3407 )"/></g></svg>