<svg xmlns="http://www.w3.org/2000/svg" xmlns:xlink="http://www.w3.org/1999/xlink" width="30" height="383" version="1.1"><defs><mask id="clip1716" fill="#fff"><path fill-rule="evenodd" d="M 0.680000000000007 383 C 0.680000000000007 383 0.680000000000007 0.5 0.680000000000007 0.5 C 0.680000000000007 0.5 29.28 0.5 29.28 0.5 C 29.28 0.5 29.28 383 29.28 383 C 29.28 383 0.680000000000007 383 0.680000000000007 383 Z"/></mask></defs><g><path fill="#595757" fill-rule="nonzero" stroke="none" d="M 0.680000000000007 383 C 0.680000000000007 383 0.680000000000007 0.5 0.680000000000007 0.5 C 0.680000000000007 0.5 29.28 0.5 29.28 0.5 C 29.28 0.5 29.28 383 29.28 383 C 29.28 383 0.680000000000007 383 0.680000000000007 383 Z" transform="matrix(1 0 0 1 -324 -3255 ) matrix(1 0 0 1 324 3255 )"/><path fill="none" stroke="#595757" stroke-opacity=".498" stroke-width="2" d="M 0.680000000000007 383 C 0.680000000000007 383 0.680000000000007 0.5 0.680000000000007 0.5 C 0.680000000000007 0.5 29.28 0.5 29.28 0.5 C 29.28 0.5 29.28 383 29.28 383 C 29.28 383 0.680000000000007 383 0.680000000000007 383 Z" mask="url(#clip1716)" transform="matrix(1 0 0 1 -324 -3255 ) matrix(1 0 0 1 324 3255 )"/></g></svg>