<svg xmlns="http://www.w3.org/2000/svg" xmlns:xlink="http://www.w3.org/1999/xlink" width="30" height="153" version="1.1"><defs><mask id="clip1717" fill="#fff"><path fill-rule="evenodd" d="M 0.600000000000023 153 C 0.600000000000023 153 0.600000000000023 0.100000000000023 0.600000000000023 0.100000000000023 C 0.600000000000023 0.100000000000023 29.2 0.100000000000023 29.2 0.100000000000023 C 29.2 0.100000000000023 29.2 153 29.2 153 C 29.2 153 0.600000000000023 153 0.600000000000023 153 Z"/></mask></defs><g><path fill="#8ebbff" fill-rule="nonzero" stroke="none" d="M 0.600000000000023 153 C 0.600000000000023 153 0.600000000000023 0.100000000000023 0.600000000000023 0.100000000000023 C 0.600000000000023 0.100000000000023 29.2 0.100000000000023 29.2 0.100000000000023 C 29.2 0.100000000000023 29.2 153 29.2 153 C 29.2 153 0.600000000000023 153 0.600000000000023 153 Z" transform="matrix(1 0 0 1 -404 -3485 ) matrix(1 0 0 1 404 3485 )"/><path fill="none" stroke="#8ebbff" stroke-opacity=".498" stroke-width="2" d="M 0.600000000000023 153 C 0.600000000000023 153 0.600000000000023 0.100000000000023 0.600000000000023 0.100000000000023 C 0.600000000000023 0.100000000000023 29.2 0.100000000000023 29.2 0.100000000000023 C 29.2 0.100000000000023 29.2 153 29.2 153 C 29.2 153 0.600000000000023 153 0.600000000000023 153 Z" mask="url(#clip1717)" transform="matrix(1 0 0 1 -404 -3485 ) matrix(1 0 0 1 404 3485 )"/></g></svg>