<svg xmlns="http://www.w3.org/2000/svg" xmlns:xlink="http://www.w3.org/1999/xlink" width="29" height="300" version="1.1"><defs><mask id="clip1722" fill="#fff"><path fill-rule="evenodd" d="M 0.120000000000005 299.01 C 0.120000000000005 299.01 0.120000000000005 0.909999999999997 0.120000000000005 0.909999999999997 C 0.120000000000005 0.909999999999997 28.72 0.909999999999997 28.72 0.909999999999997 C 28.72 0.909999999999997 28.72 299.01 28.72 299.01 C 28.72 299.01 0.120000000000005 299.01 0.120000000000005 299.01 Z"/></mask></defs><g><path fill="#595757" fill-rule="nonzero" stroke="none" d="M 0.120000000000005 299.01 C 0.120000000000005 299.01 0.120000000000005 0.909999999999997 0.120000000000005 0.909999999999997 C 0.120000000000005 0.909999999999997 28.72 0.909999999999997 28.72 0.909999999999997 C 28.72 0.909999999999997 28.72 299.01 28.72 299.01 C 28.72 299.01 0.120000000000005 299.01 0.120000000000005 299.01 Z" transform="matrix(1 0 0 1 -647 -3339 ) matrix(1 0 0 1 647 3339 )"/><path fill="none" stroke="#595757" stroke-opacity=".498" stroke-width="2" d="M 0.120000000000005 299.01 C 0.120000000000005 299.01 0.120000000000005 0.909999999999997 0.120000000000005 0.909999999999997 C 0.120000000000005 0.909999999999997 28.72 0.909999999999997 28.72 0.909999999999997 C 28.72 0.909999999999997 28.72 299.01 28.72 299.01 C 28.72 299.01 0.120000000000005 299.01 0.120000000000005 299.01 Z" mask="url(#clip1722)" transform="matrix(1 0 0 1 -647 -3339 ) matrix(1 0 0 1 647 3339 )"/></g></svg>