<svg xmlns="http://www.w3.org/2000/svg" xmlns:xlink="http://www.w3.org/1999/xlink" width="30" height="121" version="1.1"><defs><mask id="clip1721" fill="#fff"><path fill-rule="evenodd" d="M 0.559999999999945 120.07 C 0.559999999999945 120.07 0.559999999999945 0.870000000000005 0.559999999999945 0.870000000000005 C 0.559999999999945 0.870000000000005 29.16 0.870000000000005 29.16 0.870000000000005 C 29.16 0.870000000000005 29.16 120.07 29.16 120.07 C 29.16 120.07 0.559999999999945 120.07 0.559999999999945 120.07 Z"/></mask></defs><g><path fill="#8ebbff" fill-rule="nonzero" stroke="none" d="M 0.559999999999945 120.07 C 0.559999999999945 120.07 0.559999999999945 0.870000000000005 0.559999999999945 0.870000000000005 C 0.559999999999945 0.870000000000005 29.16 0.870000000000005 29.16 0.870000000000005 C 29.16 0.870000000000005 29.16 120.07 29.16 120.07 C 29.16 120.07 0.559999999999945 120.07 0.559999999999945 120.07 Z" transform="matrix(1 0 0 1 -619 -3518 ) matrix(1 0 0 1 619 3518 )"/><path fill="none" stroke="#8ebbff" stroke-opacity=".498" stroke-width="2" d="M 0.559999999999945 120.07 C 0.559999999999945 120.07 0.559999999999945 0.870000000000005 0.559999999999945 0.870000000000005 C 0.559999999999945 0.870000000000005 29.16 0.870000000000005 29.16 0.870000000000005 C 29.16 0.870000000000005 29.16 120.07 29.16 120.07 C 29.16 120.07 0.559999999999945 120.07 0.559999999999945 120.07 Z" mask="url(#clip1721)" transform="matrix(1 0 0 1 -619 -3518 ) matrix(1 0 0 1 619 3518 )"/></g></svg>