<svg xmlns="http://www.w3.org/2000/svg" xmlns:xlink="http://www.w3.org/1999/xlink" width="29" height="266" version="1.1"><defs><mask id="clip1715" fill="#fff"><path fill-rule="evenodd" d="M 0.120000000000005 265.08 C 0.120000000000005 265.08 0.120000000000005 0.680000000000007 0.120000000000005 0.680000000000007 C 0.120000000000005 0.680000000000007 28.72 0.680000000000007 28.72 0.680000000000007 C 28.72 0.680000000000007 28.72 265.08 28.72 265.08 C 28.72 265.08 0.120000000000005 265.08 0.120000000000005 265.08 Z"/></mask></defs><g><path fill="#8ebbff" fill-rule="nonzero" stroke="none" d="M 0.120000000000005 265.08 C 0.120000000000005 265.08 0.120000000000005 0.680000000000007 0.120000000000005 0.680000000000007 C 0.120000000000005 0.680000000000007 28.72 0.680000000000007 28.72 0.680000000000007 C 28.72 0.680000000000007 28.72 265.08 28.72 265.08 C 28.72 265.08 0.120000000000005 265.08 0.120000000000005 265.08 Z" transform="matrix(1 0 0 1 -297 -3373 ) matrix(1 0 0 1 297 3373 )"/><path fill="none" stroke="#8ebbff" stroke-opacity=".498" stroke-width="2" d="M 0.120000000000005 265.08 C 0.120000000000005 265.08 0.120000000000005 0.680000000000007 0.120000000000005 0.680000000000007 C 0.120000000000005 0.680000000000007 28.72 0.680000000000007 28.72 0.680000000000007 C 28.72 0.680000000000007 28.72 265.08 28.72 265.08 C 28.72 265.08 0.120000000000005 265.08 0.120000000000005 265.08 Z" mask="url(#clip1715)" transform="matrix(1 0 0 1 -297 -3373 ) matrix(1 0 0 1 297 3373 )"/></g></svg>