<svg xmlns="http://www.w3.org/2000/svg" xmlns:xlink="http://www.w3.org/1999/xlink" width="30" height="21" version="1.1"><defs><mask id="clip1711" fill="#fff"><path fill-rule="evenodd" d="M 0.120000000000005 20.07 C 0.120000000000005 20.07 0.120000000000005 0.170000000000016 0.120000000000005 0.170000000000016 C 0.120000000000005 0.170000000000016 29.42 0.170000000000016 29.42 0.170000000000016 C 29.42 0.170000000000016 29.42 20.07 29.42 20.07 C 29.42 20.07 0.120000000000005 20.07 0.120000000000005 20.07 Z"/></mask></defs><g><path fill="#bdecf8" fill-rule="nonzero" stroke="none" d="M 0.120000000000005 20.07 C 0.120000000000005 20.07 0.120000000000005 0.170000000000016 0.120000000000005 0.170000000000016 C 0.120000000000005 0.170000000000016 29.42 0.170000000000016 29.42 0.170000000000016 C 29.42 0.170000000000016 29.42 20.07 29.42 20.07 C 29.42 20.07 0.120000000000005 20.07 0.120000000000005 20.07 Z" transform="matrix(1 0 0 1 -521 -2757 ) matrix(1 0 0 1 521 2757 )"/><path fill="none" stroke="#bdecf8" stroke-width="2" d="M 0.120000000000005 20.07 C 0.120000000000005 20.07 0.120000000000005 0.170000000000016 0.120000000000005 0.170000000000016 C 0.120000000000005 0.170000000000016 29.42 0.170000000000016 29.42 0.170000000000016 C 29.42 0.170000000000016 29.42 20.07 29.42 20.07 C 29.42 20.07 0.120000000000005 20.07 0.120000000000005 20.07 Z" mask="url(#clip1711)" transform="matrix(1 0 0 1 -521 -2757 ) matrix(1 0 0 1 521 2757 )"/></g></svg>