<svg xmlns="http://www.w3.org/2000/svg" xmlns:xlink="http://www.w3.org/1999/xlink" width="161" height="238" version="1.1"><defs><mask id="clip1734" fill="#fff"><path fill-rule="evenodd" d="M 0.879999999999995 86.12 C 0.879999999999995 86.12 135.58 0.620000000000005 135.58 0.620000000000005 C 151.38 25.3200000000001 160.48 54.62 160.48 86.12 C 160.48 156.12 114.18 216.52 51.1800000000001 237.52 C 51.1800000000001 237.52 0.879999999999995 86.12 0.879999999999995 86.12 Z"/></mask></defs><g><path fill="#2f7a8e" fill-rule="nonzero" stroke="none" d="M 0.879999999999995 86.12 C 0.879999999999995 86.12 135.58 0.620000000000005 135.58 0.620000000000005 C 151.38 25.3200000000001 160.48 54.62 160.48 86.12 C 160.48 156.12 114.18 216.52 51.1800000000001 237.52 C 51.1800000000001 237.52 0.879999999999995 86.12 0.879999999999995 86.12 Z" transform="matrix(1 0 0 1 -668 -4345 ) matrix(1 0 0 1 668 4345 )"/><path fill="none" stroke="#fff" stroke-width="2" d="M 0.879999999999995 86.12 C 0.879999999999995 86.12 135.58 0.620000000000005 135.58 0.620000000000005 C 151.38 25.3200000000001 160.48 54.62 160.48 86.12 C 160.48 156.12 114.18 216.52 51.1800000000001 237.52 C 51.1800000000001 237.52 0.879999999999995 86.12 0.879999999999995 86.12 Z" mask="url(#clip1734)" transform="matrix(1 0 0 1 -668 -4345 ) matrix(1 0 0 1 668 4345 )"/></g></svg>