<svg xmlns="http://www.w3.org/2000/svg" xmlns:xlink="http://www.w3.org/1999/xlink" width="30" height="20" version="1.1"><defs><mask id="clip1730" fill="#fff"><path fill-rule="evenodd" d="M 0.379999999999995 19.9399999999999 C 0.379999999999995 19.9399999999999 0.379999999999995 0.0399999999999636 0.379999999999995 0.0399999999999636 C 0.379999999999995 0.0399999999999636 29.68 0.0399999999999636 29.68 0.0399999999999636 C 29.68 0.0399999999999636 29.68 19.9399999999999 29.68 19.9399999999999 C 29.68 19.9399999999999 0.379999999999995 19.9399999999999 0.379999999999995 19.9399999999999 Z"/></mask></defs><g><path fill="#595757" fill-rule="nonzero" stroke="none" d="M 0.379999999999995 19.9399999999999 C 0.379999999999995 19.9399999999999 0.379999999999995 0.0399999999999636 0.379999999999995 0.0399999999999636 C 0.379999999999995 0.0399999999999636 29.68 0.0399999999999636 29.68 0.0399999999999636 C 29.68 0.0399999999999636 29.68 19.9399999999999 29.68 19.9399999999999 C 29.68 19.9399999999999 0.379999999999995 19.9399999999999 0.379999999999995 19.9399999999999 Z" transform="matrix(1 0 0 1 -719 -3677 ) matrix(1 0 0 1 719 3677 )"/><path fill="none" stroke="#595757" stroke-opacity=".498" stroke-width="2" d="M 0.379999999999995 19.9399999999999 C 0.379999999999995 19.9399999999999 0.379999999999995 0.0399999999999636 0.379999999999995 0.0399999999999636 C 0.379999999999995 0.0399999999999636 29.68 0.0399999999999636 29.68 0.0399999999999636 C 29.68 0.0399999999999636 29.68 19.9399999999999 29.68 19.9399999999999 C 29.68 19.9399999999999 0.379999999999995 19.9399999999999 0.379999999999995 19.9399999999999 Z" mask="url(#clip1730)" transform="matrix(1 0 0 1 -719 -3677 ) matrix(1 0 0 1 719 3677 )"/></g></svg>