<?xml version="1.0" encoding="utf-8"?>
<svg version="1.1" xmlns:xlink="http://www.w3.org/1999/xlink" width="9px" height="10px" xmlns="http://www.w3.org/2000/svg">
  <defs>
    <mask fill="white" id="clip486">
      <path d="M 5 0.420000000000073  C 7.09999999999999 0.420000000000073  8.79999999999998 3.12000000000012  8.79999999999998 5.22000000000003  C 8.79999999999998 7.32000000000005  7.09999999999999 9.0200000000001  5 9.0200000000001  C 2.89999999999998 9.0200000000001  0.199999999999989 7.32000000000005  0.199999999999989 5.22000000000003  C 0.199999999999989 3.12000000000012  2.89999999999998 0.420000000000073  5 0.420000000000073  Z " fill-rule="evenodd" />
    </mask>
  </defs>
  <g transform="matrix(1 0 0 1 -327 -12056 )">
    <path d="M 5 0.420000000000073  C 7.09999999999999 0.420000000000073  8.79999999999998 3.12000000000012  8.79999999999998 5.22000000000003  C 8.79999999999998 7.32000000000005  7.09999999999999 9.0200000000001  5 9.0200000000001  C 2.89999999999998 9.0200000000001  0.199999999999989 7.32000000000005  0.199999999999989 5.22000000000003  C 0.199999999999989 3.12000000000012  2.89999999999998 0.420000000000073  5 0.420000000000073  Z " fill-rule="nonzero" fill="#ff6a6a" stroke="none" transform="matrix(1 0 0 1 327 12056 )" />
    <path d="M 5 0.420000000000073  C 7.09999999999999 0.420000000000073  8.79999999999998 3.12000000000012  8.79999999999998 5.22000000000003  C 8.79999999999998 7.32000000000005  7.09999999999999 9.0200000000001  5 9.0200000000001  C 2.89999999999998 9.0200000000001  0.199999999999989 7.32000000000005  0.199999999999989 5.22000000000003  C 0.199999999999989 3.12000000000012  2.89999999999998 0.420000000000073  5 0.420000000000073  Z " stroke-width="2" stroke="#ff6a6a" fill="none" transform="matrix(1 0 0 1 327 12056 )" mask="url(#clip486)" />
  </g>
</svg>