<svg xmlns="http://www.w3.org/2000/svg" xmlns:xlink="http://www.w3.org/1999/xlink" width="29" height="192" version="1.1"><defs><mask id="clip1727" fill="#fff"><path fill-rule="evenodd" d="M 0 191.06 C 0 191.06 0 0.960000000000036 0 0.960000000000036 C 0 0.960000000000036 28.5999999999999 0.960000000000036 28.5999999999999 0.960000000000036 C 28.5999999999999 0.960000000000036 28.5999999999999 191.06 28.5999999999999 191.06 C 28.5999999999999 191.06 0 191.06 0 191.06 Z"/></mask></defs><g><path fill="#8ebbff" fill-rule="nonzero" stroke="none" d="M 0 191.06 C 0 191.06 0 0.960000000000036 0 0.960000000000036 C 0 0.960000000000036 28.5999999999999 0.960000000000036 28.5999999999999 0.960000000000036 C 28.5999999999999 0.960000000000036 28.5999999999999 191.06 28.5999999999999 191.06 C 28.5999999999999 191.06 0 191.06 0 191.06 Z" transform="matrix(1 0 0 1 -942 -3447 ) matrix(1 0 0 1 942 3447 )"/><path fill="none" stroke="#8ebbff" stroke-opacity=".498" stroke-width="2" d="M 0 191.06 C 0 191.06 0 0.960000000000036 0 0.960000000000036 C 0 0.960000000000036 28.5999999999999 0.960000000000036 28.5999999999999 0.960000000000036 C 28.5999999999999 0.960000000000036 28.5999999999999 191.06 28.5999999999999 191.06 C 28.5999999999999 191.06 0 191.06 0 191.06 Z" mask="url(#clip1727)" transform="matrix(1 0 0 1 -942 -3447 ) matrix(1 0 0 1 942 3447 )"/></g></svg>