<svg xmlns="http://www.w3.org/2000/svg" xmlns:xlink="http://www.w3.org/1999/xlink" width="10" height="10" version="1.1"><defs><mask id="clip1743" fill="#fff"><path fill-rule="evenodd" d="M 2.75999999999999 8.67000000000002 C 0.860000000000014 7.47000000000003 0.360000000000014 3.97000000000003 1.66000000000008 2.17000000000002 C 2.86000000000001 0.269999999999982 6.36000000000001 -0.230000000000018 8.16000000000008 1.06999999999999 C 10.0600000000001 2.26999999999998 10.5600000000001 5.76999999999998 9.25999999999999 7.56999999999999 C 8.06000000000006 9.47000000000003 4.56000000000006 9.97000000000003 2.75999999999999 8.67000000000002 Z"/></mask></defs><g><path fill="#595757" fill-rule="nonzero" stroke="none" d="M 2.75999999999999 8.67000000000002 C 0.860000000000014 7.47000000000003 0.360000000000014 3.97000000000003 1.66000000000008 2.17000000000002 C 2.86000000000001 0.269999999999982 6.36000000000001 -0.230000000000018 8.16000000000008 1.06999999999999 C 10.0600000000001 2.26999999999998 10.5600000000001 5.76999999999998 9.25999999999999 7.56999999999999 C 8.06000000000006 9.47000000000003 4.56000000000006 9.97000000000003 2.75999999999999 8.67000000000002 Z" transform="matrix(1 0 0 1 -752 -4502 ) matrix(1 0 0 1 752 4502 )"/><path fill="none" stroke="#595757" stroke-width="2" d="M 2.75999999999999 8.67000000000002 C 0.860000000000014 7.47000000000003 0.360000000000014 3.97000000000003 1.66000000000008 2.17000000000002 C 2.86000000000001 0.269999999999982 6.36000000000001 -0.230000000000018 8.16000000000008 1.06999999999999 C 10.0600000000001 2.26999999999998 10.5600000000001 5.76999999999998 9.25999999999999 7.56999999999999 C 8.06000000000006 9.47000000000003 4.56000000000006 9.97000000000003 2.75999999999999 8.67000000000002 Z" mask="url(#clip1743)" transform="matrix(1 0 0 1 -752 -4502 ) matrix(1 0 0 1 752 4502 )"/></g></svg>