<svg xmlns="http://www.w3.org/2000/svg" xmlns:xlink="http://www.w3.org/1999/xlink" width="9" height="10" version="1.1"><defs><mask id="clip1745" fill="#fff"><path fill-rule="evenodd" d="M 9 4.40000000000003 C 9 2.20000000000005 7.20000000000005 0.400000000000034 5 0.400000000000034 C 2.79999999999995 0.400000000000034 0 2.20000000000005 0 4.40000000000003 C 0 6.60000000000002 2.79999999999995 9.40000000000003 5 9.40000000000003 C 7.20000000000005 9.40000000000003 9 6.60000000000002 9 4.40000000000003 Z"/></mask></defs><g><path fill="#595757" fill-rule="nonzero" stroke="none" d="M 9 4.40000000000003 C 9 2.20000000000005 7.20000000000005 0.400000000000034 5 0.400000000000034 C 2.79999999999995 0.400000000000034 0 2.20000000000005 0 4.40000000000003 C 0 6.60000000000002 2.79999999999995 9.40000000000003 5 9.40000000000003 C 7.20000000000005 9.40000000000003 9 6.60000000000002 9 4.40000000000003 Z" transform="matrix(1 0 0 1 -657 -4553 ) matrix(1 0 0 1 657 4553 )"/><path fill="none" stroke="#595757" stroke-width="2" d="M 9 4.40000000000003 C 9 2.20000000000005 7.20000000000005 0.400000000000034 5 0.400000000000034 C 2.79999999999995 0.400000000000034 0 2.20000000000005 0 4.40000000000003 C 0 6.60000000000002 2.79999999999995 9.40000000000003 5 9.40000000000003 C 7.20000000000005 9.40000000000003 9 6.60000000000002 9 4.40000000000003 Z" mask="url(#clip1745)" transform="matrix(1 0 0 1 -657 -4553 ) matrix(1 0 0 1 657 4553 )"/></g></svg>