<svg xmlns="http://www.w3.org/2000/svg" xmlns:xlink="http://www.w3.org/1999/xlink" width="10" height="10" version="1.1"><defs><mask id="clip1741" fill="#fff"><path fill-rule="evenodd" d="M 7.60000000000002 1.23999999999998 C 9.60000000000002 2.13999999999999 10.5 5.53999999999999 9.5 7.53999999999999 C 8.60000000000002 9.53999999999999 5.30000000000001 10.44 3.20000000000005 9.53999999999999 C 1.20000000000005 8.63999999999999 0.300000000000011 5.23999999999998 1.30000000000001 3.23999999999998 C 2.20000000000005 1.23999999999998 5.5 0.339999999999975 7.60000000000002 1.23999999999998 Z"/></mask></defs><g><path fill="#595757" fill-rule="nonzero" stroke="none" d="M 7.60000000000002 1.23999999999998 C 9.60000000000002 2.13999999999999 10.5 5.53999999999999 9.5 7.53999999999999 C 8.60000000000002 9.53999999999999 5.30000000000001 10.44 3.20000000000005 9.53999999999999 C 1.20000000000005 8.63999999999999 0.300000000000011 5.23999999999998 1.30000000000001 3.23999999999998 C 2.20000000000005 1.23999999999998 5.5 0.339999999999975 7.60000000000002 1.23999999999998 Z" transform="matrix(1 0 0 1 -552 -4312 ) matrix(1 0 0 1 552 4312 )"/><path fill="none" stroke="#595757" stroke-width="2" d="M 7.60000000000002 1.23999999999998 C 9.60000000000002 2.13999999999999 10.5 5.53999999999999 9.5 7.53999999999999 C 8.60000000000002 9.53999999999999 5.30000000000001 10.44 3.20000000000005 9.53999999999999 C 1.20000000000005 8.63999999999999 0.300000000000011 5.23999999999998 1.30000000000001 3.23999999999998 C 2.20000000000005 1.23999999999998 5.5 0.339999999999975 7.60000000000002 1.23999999999998 Z" mask="url(#clip1741)" transform="matrix(1 0 0 1 -552 -4312 ) matrix(1 0 0 1 552 4312 )"/></g></svg>