<?xml version="1.0" encoding="utf-8"?>
<svg version="1.1" xmlns:xlink="http://www.w3.org/1999/xlink" width="9px" height="9px" xmlns="http://www.w3.org/2000/svg">
  <defs>
    <mask fill="white" id="clip534">
      <path d="M 5.11000000000001 0.240000000000009  C 7.20999999999998 0.240000000000009  8.91000000000003 2.94000000000005  8.91000000000003 5.03999999999996  C 8.91000000000003 7.13999999999999  7.20999999999998 8.84000000000003  5.11000000000001 8.84000000000003  C 3.00999999999999 8.84000000000003  0.310000000000002 7.13999999999999  0.310000000000002 5.03999999999996  C 0.310000000000002 2.94000000000005  3.00999999999999 0.240000000000009  5.11000000000001 0.240000000000009  Z " fill-rule="evenodd" />
    </mask>
  </defs>
  <g transform="matrix(1 0 0 1 -463 -12031 )">
    <path d="M 5.11000000000001 0.240000000000009  C 7.20999999999998 0.240000000000009  8.91000000000003 2.94000000000005  8.91000000000003 5.03999999999996  C 8.91000000000003 7.13999999999999  7.20999999999998 8.84000000000003  5.11000000000001 8.84000000000003  C 3.00999999999999 8.84000000000003  0.310000000000002 7.13999999999999  0.310000000000002 5.03999999999996  C 0.310000000000002 2.94000000000005  3.00999999999999 0.240000000000009  5.11000000000001 0.240000000000009  Z " fill-rule="nonzero" fill="#ff6a6a" stroke="none" transform="matrix(1 0 0 1 463 12031 )" />
    <path d="M 5.11000000000001 0.240000000000009  C 7.20999999999998 0.240000000000009  8.91000000000003 2.94000000000005  8.91000000000003 5.03999999999996  C 8.91000000000003 7.13999999999999  7.20999999999998 8.84000000000003  5.11000000000001 8.84000000000003  C 3.00999999999999 8.84000000000003  0.310000000000002 7.13999999999999  0.310000000000002 5.03999999999996  C 0.310000000000002 2.94000000000005  3.00999999999999 0.240000000000009  5.11000000000001 0.240000000000009  Z " stroke-width="2" stroke="#ff6a6a" fill="none" transform="matrix(1 0 0 1 463 12031 )" mask="url(#clip534)" />
  </g>
</svg>