<?xml version="1.0" encoding="utf-8"?>
<svg version="1.1" xmlns:xlink="http://www.w3.org/1999/xlink" width="30px" height="20px" xmlns="http://www.w3.org/2000/svg">
  <defs>
    <mask fill="white" id="clip1730">
      <path d="M 0.379999999999995 19.9399999999999  C 0.379999999999995 19.9399999999999  0.379999999999995 0.0399999999999636  0.379999999999995 0.0399999999999636  C 0.379999999999995 0.0399999999999636  29.68 0.0399999999999636  29.68 0.0399999999999636  C 29.68 0.0399999999999636  29.68 19.9399999999999  29.68 19.9399999999999  C 29.68 19.9399999999999  0.379999999999995 19.9399999999999  0.379999999999995 19.9399999999999  Z " fill-rule="evenodd" />
    </mask>
  </defs>
  <g transform="matrix(1 0 0 1 -719 -3677 )">
    <path d="M 0.379999999999995 19.9399999999999  C 0.379999999999995 19.9399999999999  0.379999999999995 0.0399999999999636  0.379999999999995 0.0399999999999636  C 0.379999999999995 0.0399999999999636  29.68 0.0399999999999636  29.68 0.0399999999999636  C 29.68 0.0399999999999636  29.68 19.9399999999999  29.68 19.9399999999999  C 29.68 19.9399999999999  0.379999999999995 19.9399999999999  0.379999999999995 19.9399999999999  Z " fill-rule="nonzero" fill="#595757" stroke="none" transform="matrix(1 0 0 1 719 3677 )" />
    <path d="M 0.379999999999995 19.9399999999999  C 0.379999999999995 19.9399999999999  0.379999999999995 0.0399999999999636  0.379999999999995 0.0399999999999636  C 0.379999999999995 0.0399999999999636  29.68 0.0399999999999636  29.68 0.0399999999999636  C 29.68 0.0399999999999636  29.68 19.9399999999999  29.68 19.9399999999999  C 29.68 19.9399999999999  0.379999999999995 19.9399999999999  0.379999999999995 19.9399999999999  Z " stroke-width="2" stroke="#595757" fill="none" stroke-opacity="0.498039215686275" transform="matrix(1 0 0 1 719 3677 )" mask="url(#clip1730)" />
  </g>
</svg>