<?xml version="1.0" encoding="utf-8"?>
<svg version="1.1" xmlns:xlink="http://www.w3.org/1999/xlink" width="10px" height="10px" xmlns="http://www.w3.org/2000/svg">
  <defs>
    <mask fill="white" id="clip535">
      <path d="M 5.27000000000004 0.680000000000064  C 7.37 0.680000000000064  9.07000000000005 3.38000000000011  9.07000000000005 5.48000000000002  C 9.07000000000005 7.58000000000004  7.37 9.28000000000009  5.27000000000004 9.28000000000009  C 3.17000000000002 9.28000000000009  0.470000000000027 7.58000000000004  0.470000000000027 5.48000000000002  C 0.470000000000027 3.38000000000011  3.17000000000002 0.680000000000064  5.27000000000004 0.680000000000064  Z " fill-rule="evenodd" />
    </mask>
  </defs>
  <g transform="matrix(1 0 0 1 -476 -12024 )">
    <path d="M 5.27000000000004 0.680000000000064  C 7.37 0.680000000000064  9.07000000000005 3.38000000000011  9.07000000000005 5.48000000000002  C 9.07000000000005 7.58000000000004  7.37 9.28000000000009  5.27000000000004 9.28000000000009  C 3.17000000000002 9.28000000000009  0.470000000000027 7.58000000000004  0.470000000000027 5.48000000000002  C 0.470000000000027 3.38000000000011  3.17000000000002 0.680000000000064  5.27000000000004 0.680000000000064  Z " fill-rule="nonzero" fill="#ff6a6a" stroke="none" transform="matrix(1 0 0 1 476 12024 )" />
    <path d="M 5.27000000000004 0.680000000000064  C 7.37 0.680000000000064  9.07000000000005 3.38000000000011  9.07000000000005 5.48000000000002  C 9.07000000000005 7.58000000000004  7.37 9.28000000000009  5.27000000000004 9.28000000000009  C 3.17000000000002 9.28000000000009  0.470000000000027 7.58000000000004  0.470000000000027 5.48000000000002  C 0.470000000000027 3.38000000000011  3.17000000000002 0.680000000000064  5.27000000000004 0.680000000000064  Z " stroke-width="2" stroke="#ff6a6a" fill="none" transform="matrix(1 0 0 1 476 12024 )" mask="url(#clip535)" />
  </g>
</svg>