<svg xmlns="http://www.w3.org/2000/svg" xmlns:xlink="http://www.w3.org/1999/xlink" width="68" height="161" version="1.1"><defs><mask id="clip1736" fill="#fff"><path fill-rule="evenodd" d="M 15.8 0.779999999999973 C 15.8 0.779999999999973 67.1 152.18 67.1 152.18 C 51.3 157.58 33.4000000000001 160.38 15.8 160.38 C 10.7 160.38 5.70000000000005 160.18 0.799999999999955 159.68 C 0.799999999999955 159.68 15.8 0.779999999999973 15.8 0.779999999999973 Z"/></mask></defs><g><path fill="#cdcece" fill-rule="nonzero" stroke="none" d="M 15.8 0.779999999999973 C 15.8 0.779999999999973 67.1 152.18 67.1 152.18 C 51.3 157.58 33.4000000000001 160.38 15.8 160.38 C 10.7 160.38 5.70000000000005 160.18 0.799999999999955 159.68 C 0.799999999999955 159.68 15.8 0.779999999999973 15.8 0.779999999999973 Z" transform="matrix(1 0 0 1 -635 -4424 ) matrix(1 0 0 1 635 4424 )"/><path fill="none" stroke="#fff" stroke-width="2" d="M 15.8 0.779999999999973 C 15.8 0.779999999999973 67.1 152.18 67.1 152.18 C 51.3 157.58 33.4000000000001 160.38 15.8 160.38 C 10.7 160.38 5.70000000000005 160.18 0.799999999999955 159.68 C 0.799999999999955 159.68 15.8 0.779999999999973 15.8 0.779999999999973 Z" mask="url(#clip1736)" transform="matrix(1 0 0 1 -635 -4424 ) matrix(1 0 0 1 635 4424 )"/></g></svg>