<svg xmlns="http://www.w3.org/2000/svg" xmlns:xlink="http://www.w3.org/1999/xlink" width="160" height="188" version="1.1"><defs><mask id="clip1731" fill="#fff"><path fill-rule="evenodd" d="M 159.8 28.78 C 159.8 28.78 144.8 187.68 144.8 187.68 C 64.1 180.08 0.100000000000023 111.28 0.100000000000023 28.78 C 0.100000000000023 19.08 1 9.58000000000004 2.60000000000002 0.480000000000018 C 2.60000000000002 0.480000000000018 159.8 28.78 159.8 28.78 Z"/></mask></defs><g><path fill="#fb9d53" fill-rule="nonzero" stroke="none" d="M 159.8 28.78 C 159.8 28.78 144.8 187.68 144.8 187.68 C 64.1 180.08 0.100000000000023 111.28 0.100000000000023 28.78 C 0.100000000000023 19.08 1 9.58000000000004 2.60000000000002 0.480000000000018 C 2.60000000000002 0.480000000000018 159.8 28.78 159.8 28.78 Z" transform="matrix(1 0 0 1 -492 -4396 ) matrix(1 0 0 1 492 4396 )"/><path fill="none" stroke="#fff" stroke-width="2" d="M 159.8 28.78 C 159.8 28.78 144.8 187.68 144.8 187.68 C 64.1 180.08 0.100000000000023 111.28 0.100000000000023 28.78 C 0.100000000000023 19.08 1 9.58000000000004 2.60000000000002 0.480000000000018 C 2.60000000000002 0.480000000000018 159.8 28.78 159.8 28.78 Z" mask="url(#clip1731)" transform="matrix(1 0 0 1 -492 -4396 ) matrix(1 0 0 1 492 4396 )"/></g></svg>