<svg xmlns="http://www.w3.org/2000/svg" xmlns:xlink="http://www.w3.org/1999/xlink" width="159" height="161" version="1.1"><defs><mask id="clip1732" fill="#fff"><path fill-rule="evenodd" d="M 158.16 160.26 C 158.16 160.26 0.960000000000036 131.96 0.960000000000036 131.96 C 13.66 61.56 73.76 6.25999999999999 146.46 0.960000000000008 C 146.46 0.960000000000008 158.16 160.26 158.16 160.26 Z"/></mask></defs><g><path fill="#33b2c3" fill-rule="nonzero" stroke="none" d="M 158.16 160.26 C 158.16 160.26 0.960000000000036 131.96 0.960000000000036 131.96 C 13.66 61.56 73.76 6.25999999999999 146.46 0.960000000000008 C 146.46 0.960000000000008 158.16 160.26 158.16 160.26 Z" transform="matrix(1 0 0 1 -484 -4255 ) matrix(1 0 0 1 484 4255 )"/><path fill="none" stroke="#fff" stroke-width="2" d="M 158.16 160.26 C 158.16 160.26 0.960000000000036 131.96 0.960000000000036 131.96 C 13.66 61.56 73.76 6.25999999999999 146.46 0.960000000000008 C 146.46 0.960000000000008 158.16 160.26 158.16 160.26 Z" mask="url(#clip1732)" transform="matrix(1 0 0 1 -484 -4255 ) matrix(1 0 0 1 484 4255 )"/></g></svg>