<?xml version="1.0" encoding="utf-8"?>
<svg version="1.1" xmlns:xlink="http://www.w3.org/1999/xlink" width="10px" height="10px" xmlns="http://www.w3.org/2000/svg">
  <defs>
    <mask fill="white" id="clip1746">
      <path d="M 1.90999999999997 1.31  C 3.70999999999998 0.00999999999999091  7.20999999999998 0.509999999999991  8.40999999999997 2.41000000000003  C 9.70999999999998 4.21000000000004  9.20999999999998 7.71000000000004  7.40999999999997 8.91000000000003  C 5.50999999999999 10.21  2.00999999999999 9.71000000000004  0.809999999999945 7.81  C -0.389999999999986 6.00999999999999  0.00999999999999091 2.50999999999999  1.90999999999997 1.31  Z " fill-rule="evenodd" />
    </mask>
  </defs>
  <g transform="matrix(1 0 0 1 -549 -4500 )">
    <path d="M 1.90999999999997 1.31  C 3.70999999999998 0.00999999999999091  7.20999999999998 0.509999999999991  8.40999999999997 2.41000000000003  C 9.70999999999998 4.21000000000004  9.20999999999998 7.71000000000004  7.40999999999997 8.91000000000003  C 5.50999999999999 10.21  2.00999999999999 9.71000000000004  0.809999999999945 7.81  C -0.389999999999986 6.00999999999999  0.00999999999999091 2.50999999999999  1.90999999999997 1.31  Z " fill-rule="nonzero" fill="#595757" stroke="none" transform="matrix(1 0 0 1 549 4500 )" />
    <path d="M 1.90999999999997 1.31  C 3.70999999999998 0.00999999999999091  7.20999999999998 0.509999999999991  8.40999999999997 2.41000000000003  C 9.70999999999998 4.21000000000004  9.20999999999998 7.71000000000004  7.40999999999997 8.91000000000003  C 5.50999999999999 10.21  2.00999999999999 9.71000000000004  0.809999999999945 7.81  C -0.389999999999986 6.00999999999999  0.00999999999999091 2.50999999999999  1.90999999999997 1.31  Z " stroke-width="2" stroke="#595757" fill="none" transform="matrix(1 0 0 1 549 4500 )" mask="url(#clip1746)" />
  </g>
</svg>