<svg xmlns="http://www.w3.org/2000/svg" xmlns:xlink="http://www.w3.org/1999/xlink" width="10" height="10" version="1.1"><defs><mask id="clip1746" fill="#fff"><path fill-rule="evenodd" d="M 1.90999999999997 1.31 C 3.70999999999998 0.00999999999999091 7.20999999999998 0.509999999999991 8.40999999999997 2.41000000000003 C 9.70999999999998 4.21000000000004 9.20999999999998 7.71000000000004 7.40999999999997 8.91000000000003 C 5.50999999999999 10.21 2.00999999999999 9.71000000000004 0.809999999999945 7.81 C -0.389999999999986 6.00999999999999 0.00999999999999091 2.50999999999999 1.90999999999997 1.31 Z"/></mask></defs><g><path fill="#595757" fill-rule="nonzero" stroke="none" d="M 1.90999999999997 1.31 C 3.70999999999998 0.00999999999999091 7.20999999999998 0.509999999999991 8.40999999999997 2.41000000000003 C 9.70999999999998 4.21000000000004 9.20999999999998 7.71000000000004 7.40999999999997 8.91000000000003 C 5.50999999999999 10.21 2.00999999999999 9.71000000000004 0.809999999999945 7.81 C -0.389999999999986 6.00999999999999 0.00999999999999091 2.50999999999999 1.90999999999997 1.31 Z" transform="matrix(1 0 0 1 -549 -4500 ) matrix(1 0 0 1 549 4500 )"/><path fill="none" stroke="#595757" stroke-width="2" d="M 1.90999999999997 1.31 C 3.70999999999998 0.00999999999999091 7.20999999999998 0.509999999999991 8.40999999999997 2.41000000000003 C 9.70999999999998 4.21000000000004 9.20999999999998 7.71000000000004 7.40999999999997 8.91000000000003 C 5.50999999999999 10.21 2.00999999999999 9.71000000000004 0.809999999999945 7.81 C -0.389999999999986 6.00999999999999 0.00999999999999091 2.50999999999999 1.90999999999997 1.31 Z" mask="url(#clip1746)" transform="matrix(1 0 0 1 -549 -4500 ) matrix(1 0 0 1 549 4500 )"/></g></svg>