<svg xmlns="http://www.w3.org/2000/svg" xmlns:xlink="http://www.w3.org/1999/xlink" width="30" height="303" version="1.1"><defs><mask id="clip1728" fill="#fff"><path fill-rule="evenodd" d="M 0.559999999999945 302.04 C 0.559999999999945 302.04 0.559999999999945 0.539999999999992 0.559999999999945 0.539999999999992 C 0.559999999999945 0.539999999999992 29.16 0.539999999999992 29.16 0.539999999999992 C 29.16 0.539999999999992 29.16 302.04 29.16 302.04 C 29.16 302.04 0.559999999999945 302.04 0.559999999999945 302.04 Z"/></mask></defs><g><path fill="#595757" fill-rule="nonzero" stroke="none" d="M 0.559999999999945 302.04 C 0.559999999999945 302.04 0.559999999999945 0.539999999999992 0.559999999999945 0.539999999999992 C 0.559999999999945 0.539999999999992 29.16 0.539999999999992 29.16 0.539999999999992 C 29.16 0.539999999999992 29.16 302.04 29.16 302.04 C 29.16 302.04 0.559999999999945 302.04 0.559999999999945 302.04 Z" transform="matrix(1 0 0 1 -969 -3336 ) matrix(1 0 0 1 969 3336 )"/><path fill="none" stroke="#595757" stroke-opacity=".498" stroke-width="2" d="M 0.559999999999945 302.04 C 0.559999999999945 302.04 0.559999999999945 0.539999999999992 0.559999999999945 0.539999999999992 C 0.559999999999945 0.539999999999992 29.16 0.539999999999992 29.16 0.539999999999992 C 29.16 0.539999999999992 29.16 302.04 29.16 302.04 C 29.16 302.04 0.559999999999945 302.04 0.559999999999945 302.04 Z" mask="url(#clip1728)" transform="matrix(1 0 0 1 -969 -3336 ) matrix(1 0 0 1 969 3336 )"/></g></svg>