<?xml version="1.0" encoding="utf-8"?>
<svg version="1.1" xmlns:xlink="http://www.w3.org/1999/xlink" width="9px" height="9px" xmlns="http://www.w3.org/2000/svg">
  <defs>
    <mask fill="white" id="clip568">
      <path d="M 4.98000000000002 0.370000000000005  C 7.08000000000004 0.370000000000005  8.78000000000009 3.06999999999999  8.78000000000009 5.17000000000002  C 8.78000000000009 7.26999999999998  7.08000000000004 8.97000000000003  4.98000000000002 8.97000000000003  C 2.88000000000011 8.97000000000003  0.180000000000064 7.26999999999998  0.180000000000064 5.17000000000002  C 0.180000000000064 3.06999999999999  2.88000000000011 0.370000000000005  4.98000000000002 0.370000000000005  Z " fill-rule="evenodd" />
    </mask>
  </defs>
  <g transform="matrix(1 0 0 1 -633 -11775 )">
    <path d="M 4.98000000000002 0.370000000000005  C 7.08000000000004 0.370000000000005  8.78000000000009 3.06999999999999  8.78000000000009 5.17000000000002  C 8.78000000000009 7.26999999999998  7.08000000000004 8.97000000000003  4.98000000000002 8.97000000000003  C 2.88000000000011 8.97000000000003  0.180000000000064 7.26999999999998  0.180000000000064 5.17000000000002  C 0.180000000000064 3.06999999999999  2.88000000000011 0.370000000000005  4.98000000000002 0.370000000000005  Z " fill-rule="nonzero" fill="#ff6a6a" stroke="none" transform="matrix(1 0 0 1 633 11775 )" />
    <path d="M 4.98000000000002 0.370000000000005  C 7.08000000000004 0.370000000000005  8.78000000000009 3.06999999999999  8.78000000000009 5.17000000000002  C 8.78000000000009 7.26999999999998  7.08000000000004 8.97000000000003  4.98000000000002 8.97000000000003  C 2.88000000000011 8.97000000000003  0.180000000000064 7.26999999999998  0.180000000000064 5.17000000000002  C 0.180000000000064 3.06999999999999  2.88000000000011 0.370000000000005  4.98000000000002 0.370000000000005  Z " stroke-width="2" stroke="#ff6a6a" fill="none" transform="matrix(1 0 0 1 633 11775 )" mask="url(#clip568)" />
  </g>
</svg>