<svg xmlns="http://www.w3.org/2000/svg" xmlns:xlink="http://www.w3.org/1999/xlink" width="121" height="139" version="1.1"><defs><mask id="clip1768" fill="#fff"><path fill-rule="evenodd" d="M 0.159999999999968 0.919999999999959 C 0.159999999999968 0.919999999999959 120.26 78.22 120.26 78.22 C 101.56 107.42 71.26 129.32 36.86 138.52 C 36.86 138.52 0.159999999999968 0.919999999999959 0.159999999999968 0.919999999999959 Z"/></mask></defs><g><path fill="#e0e0e0" fill-rule="nonzero" stroke="none" d="M 0.159999999999968 0.919999999999959 C 0.159999999999968 0.919999999999959 120.26 78.22 120.26 78.22 C 101.56 107.42 71.26 129.32 36.86 138.52 C 36.86 138.52 0.159999999999968 0.919999999999959 0.159999999999968 0.919999999999959 Z" transform="matrix(1 0 0 1 -647 -5329 ) matrix(1 0 0 1 647 5329 )"/><path fill="none" stroke="#d4d4d4" stroke-width="2" d="M 0.159999999999968 0.919999999999959 C 0.159999999999968 0.919999999999959 120.26 78.22 120.26 78.22 C 101.56 107.42 71.26 129.32 36.86 138.52 C 36.86 138.52 0.159999999999968 0.919999999999959 0.159999999999968 0.919999999999959 Z" mask="url(#clip1768)" transform="matrix(1 0 0 1 -647 -5329 ) matrix(1 0 0 1 647 5329 )"/></g></svg>