<svg xmlns="http://www.w3.org/2000/svg" xmlns:xlink="http://www.w3.org/1999/xlink" width="103" height="144" version="1.1"><defs><mask id="clip1769" fill="#fff"><path fill-rule="evenodd" d="M 66.16 0.919999999999959 C 66.16 0.919999999999959 102.86 138.52 102.86 138.52 C 91.16 141.72 78.86 143.32 66.16 143.32 C 42.76 143.32 19.66 137.62 0.259999999999991 127.52 C 0.259999999999991 127.52 66.16 0.919999999999959 66.16 0.919999999999959 Z"/></mask></defs><g><path fill="#ffdead" fill-rule="nonzero" stroke="none" d="M 66.16 0.919999999999959 C 66.16 0.919999999999959 102.86 138.52 102.86 138.52 C 91.16 141.72 78.86 143.32 66.16 143.32 C 42.76 143.32 19.66 137.62 0.259999999999991 127.52 C 0.259999999999991 127.52 66.16 0.919999999999959 66.16 0.919999999999959 Z" transform="matrix(1 0 0 1 -582 -5329 ) matrix(1 0 0 1 582 5329 )"/><path fill="none" stroke="#ffd598" stroke-width="2" d="M 66.16 0.919999999999959 C 66.16 0.919999999999959 102.86 138.52 102.86 138.52 C 91.16 141.72 78.86 143.32 66.16 143.32 C 42.76 143.32 19.66 137.62 0.259999999999991 127.52 C 0.259999999999991 127.52 66.16 0.919999999999959 66.16 0.919999999999959 Z" mask="url(#clip1769)" transform="matrix(1 0 0 1 -582 -5329 ) matrix(1 0 0 1 582 5329 )"/></g></svg>