<svg xmlns="http://www.w3.org/2000/svg" xmlns:xlink="http://www.w3.org/1999/xlink" width="24" height="24" version="1.1"><defs><mask id="clip1776" fill="#fff"><path fill-rule="evenodd" d="M 12.3299999999999 0.539999999999964 C 18.43 0.539999999999964 23.3299999999999 6.43999999999994 23.3299999999999 12.54 C 23.3299999999999 18.64 18.43 23.54 12.3299999999999 23.54 C 6.2299999999999 23.54 0.329999999999927 18.64 0.329999999999927 12.54 C 0.329999999999927 6.43999999999994 6.2299999999999 0.539999999999964 12.3299999999999 0.539999999999964 Z"/></mask></defs><g><path fill="#00bfff" fill-rule="nonzero" stroke="none" d="M 12.3299999999999 0.539999999999964 C 18.43 0.539999999999964 23.3299999999999 6.43999999999994 23.3299999999999 12.54 C 23.3299999999999 18.64 18.43 23.54 12.3299999999999 23.54 C 6.2299999999999 23.54 0.329999999999927 18.64 0.329999999999927 12.54 C 0.329999999999927 6.43999999999994 6.2299999999999 0.539999999999964 12.3299999999999 0.539999999999964 Z" transform="matrix(1 0 0 1 -667 -5639 ) matrix(1 0 0 1 667 5639 )"/><path fill="none" stroke="#00b5f2" stroke-width="2" d="M 12.3299999999999 0.539999999999964 C 18.43 0.539999999999964 23.3299999999999 6.43999999999994 23.3299999999999 12.54 C 23.3299999999999 18.64 18.43 23.54 12.3299999999999 23.54 C 6.2299999999999 23.54 0.329999999999927 18.64 0.329999999999927 12.54 C 0.329999999999927 6.43999999999994 6.2299999999999 0.539999999999964 12.3299999999999 0.539999999999964 Z" mask="url(#clip1776)" transform="matrix(1 0 0 1 -667 -5639 ) matrix(1 0 0 1 667 5639 )"/></g></svg>