<?xml version="1.0" encoding="utf-8"?>
<svg version="1.1" xmlns:xlink="http://www.w3.org/1999/xlink" width="10px" height="10px" xmlns="http://www.w3.org/2000/svg">
  <defs>
    <mask fill="white" id="clip575">
      <path d="M 5.69999999999993 0.680000000000007  C 7.79999999999995 0.680000000000007  9.5 3.38  9.5 5.48000000000002  C 9.5 7.57999999999998  7.79999999999995 9.28000000000003  5.69999999999993 9.28000000000003  C 3.60000000000002 9.28000000000003  0.899999999999977 7.57999999999998  0.899999999999977 5.48000000000002  C 0.899999999999977 3.38  3.60000000000002 0.680000000000007  5.69999999999993 0.680000000000007  Z " fill-rule="evenodd" />
    </mask>
  </defs>
  <g transform="matrix(1 0 0 1 -849 -11722 )">
    <path d="M 5.69999999999993 0.680000000000007  C 7.79999999999995 0.680000000000007  9.5 3.38  9.5 5.48000000000002  C 9.5 7.57999999999998  7.79999999999995 9.28000000000003  5.69999999999993 9.28000000000003  C 3.60000000000002 9.28000000000003  0.899999999999977 7.57999999999998  0.899999999999977 5.48000000000002  C 0.899999999999977 3.38  3.60000000000002 0.680000000000007  5.69999999999993 0.680000000000007  Z " fill-rule="nonzero" fill="#ff6a6a" stroke="none" transform="matrix(1 0 0 1 849 11722 )" />
    <path d="M 5.69999999999993 0.680000000000007  C 7.79999999999995 0.680000000000007  9.5 3.38  9.5 5.48000000000002  C 9.5 7.57999999999998  7.79999999999995 9.28000000000003  5.69999999999993 9.28000000000003  C 3.60000000000002 9.28000000000003  0.899999999999977 7.57999999999998  0.899999999999977 5.48000000000002  C 0.899999999999977 3.38  3.60000000000002 0.680000000000007  5.69999999999993 0.680000000000007  Z " stroke-width="2" stroke="#ff6a6a" fill="none" transform="matrix(1 0 0 1 849 11722 )" mask="url(#clip575)" />
  </g>
</svg>