<svg xmlns="http://www.w3.org/2000/svg" xmlns:xlink="http://www.w3.org/1999/xlink" width="209" height="124" version="1.1"><defs><mask id="clip1792" fill="#fff"><path fill-rule="evenodd" d="M 51.82 88.82 C 51.82 88.82 0.120000000000005 36.62 0.120000000000005 36.62 C 22.02 14.42 52.62 0.620000000000005 86.42 0.620000000000005 C 153.42 0.620000000000005 208.72 55.92 208.72 123.02 C 208.72 123.12 208.72 123.22 208.72 123.42 C 208.72 123.42 135.92 123.12 135.92 123.12 C 135.92 123.12 135.92 123.02 135.92 123.02 C 135.92 96.12 113.22 74.42 86.42 74.42 C 72.82 74.42 60.62 79.92 51.82 88.82 Z"/></mask></defs><g><path fill="#595757" fill-rule="nonzero" stroke="none" d="M 51.82 88.82 C 51.82 88.82 0.120000000000005 36.62 0.120000000000005 36.62 C 22.02 14.42 52.62 0.620000000000005 86.42 0.620000000000005 C 153.42 0.620000000000005 208.72 55.92 208.72 123.02 C 208.72 123.12 208.72 123.22 208.72 123.42 C 208.72 123.42 135.92 123.12 135.92 123.12 C 135.92 123.12 135.92 123.02 135.92 123.02 C 135.92 96.12 113.22 74.42 86.42 74.42 C 72.82 74.42 60.62 79.92 51.82 88.82 Z" transform="matrix(1 0 0 1 -215 -6105 ) matrix(1 0 0 1 215 6105 )"/><path fill="none" stroke="#ef8f8a" stroke-width="2" d="M 51.82 88.82 C 51.82 88.82 0.120000000000005 36.62 0.120000000000005 36.62 C 22.02 14.42 52.62 0.620000000000005 86.42 0.620000000000005 C 153.42 0.620000000000005 208.72 55.92 208.72 123.02 C 208.72 123.12 208.72 123.22 208.72 123.42 C 208.72 123.42 135.92 123.12 135.92 123.12 C 135.92 123.12 135.92 123.02 135.92 123.02 C 135.92 96.12 113.22 74.42 86.42 74.42 C 72.82 74.42 60.62 79.92 51.82 88.82 Z" mask="url(#clip1792)" transform="matrix(1 0 0 1 -215 -6105 ) matrix(1 0 0 1 215 6105 )"/></g></svg>