<?xml version="1.0" encoding="utf-8"?>
<svg version="1.1" xmlns:xlink="http://www.w3.org/1999/xlink" width="9px" height="9px" xmlns="http://www.w3.org/2000/svg">
  <defs>
    <mask fill="white" id="clip632">
      <path d="M 4.93999999999994 0.230000000000018  C 7.03999999999996 0.230000000000018  8.74000000000001 2.93000000000006  8.74000000000001 5.02999999999997  C 8.74000000000001 7.13  7.03999999999996 8.83000000000004  4.93999999999994 8.83000000000004  C 2.84000000000003 8.83000000000004  0.139999999999986 7.13  0.139999999999986 5.02999999999997  C 0.139999999999986 2.93000000000006  2.84000000000003 0.230000000000018  4.93999999999994 0.230000000000018  Z " fill-rule="evenodd" />
    </mask>
  </defs>
  <g transform="matrix(1 0 0 1 -634 -11918 )">
    <path d="M 4.93999999999994 0.230000000000018  C 7.03999999999996 0.230000000000018  8.74000000000001 2.93000000000006  8.74000000000001 5.02999999999997  C 8.74000000000001 7.13  7.03999999999996 8.83000000000004  4.93999999999994 8.83000000000004  C 2.84000000000003 8.83000000000004  0.139999999999986 7.13  0.139999999999986 5.02999999999997  C 0.139999999999986 2.93000000000006  2.84000000000003 0.230000000000018  4.93999999999994 0.230000000000018  Z " fill-rule="nonzero" fill="#ff6a6a" stroke="none" transform="matrix(1 0 0 1 634 11918 )" />
    <path d="M 4.93999999999994 0.230000000000018  C 7.03999999999996 0.230000000000018  8.74000000000001 2.93000000000006  8.74000000000001 5.02999999999997  C 8.74000000000001 7.13  7.03999999999996 8.83000000000004  4.93999999999994 8.83000000000004  C 2.84000000000003 8.83000000000004  0.139999999999986 7.13  0.139999999999986 5.02999999999997  C 0.139999999999986 2.93000000000006  2.84000000000003 0.230000000000018  4.93999999999994 0.230000000000018  Z " stroke-width="2" stroke="#ff6a6a" fill="none" transform="matrix(1 0 0 1 634 11918 )" mask="url(#clip632)" />
  </g>
</svg>