<svg xmlns="http://www.w3.org/2000/svg" xmlns:xlink="http://www.w3.org/1999/xlink" width="24" height="24" version="1.1"><defs><mask id="clip1775" fill="#fff"><path fill-rule="evenodd" d="M 12.33 0.539999999999964 C 18.43 0.539999999999964 23.33 6.43999999999994 23.33 12.54 C 23.33 18.64 18.43 23.54 12.33 23.54 C 6.22999999999996 23.54 0.329999999999984 18.64 0.329999999999984 12.54 C 0.329999999999984 6.43999999999994 6.22999999999996 0.539999999999964 12.33 0.539999999999964 Z"/></mask></defs><g><path fill="#ffdead" fill-rule="nonzero" stroke="none" d="M 12.33 0.539999999999964 C 18.43 0.539999999999964 23.33 6.43999999999994 23.33 12.54 C 23.33 18.64 18.43 23.54 12.33 23.54 C 6.22999999999996 23.54 0.329999999999984 18.64 0.329999999999984 12.54 C 0.329999999999984 6.43999999999994 6.22999999999996 0.539999999999964 12.33 0.539999999999964 Z" transform="matrix(1 0 0 1 -558 -5639 ) matrix(1 0 0 1 558 5639 )"/><path fill="none" stroke="#ffd598" stroke-width="2" d="M 12.33 0.539999999999964 C 18.43 0.539999999999964 23.33 6.43999999999994 23.33 12.54 C 23.33 18.64 18.43 23.54 12.33 23.54 C 6.22999999999996 23.54 0.329999999999984 18.64 0.329999999999984 12.54 C 0.329999999999984 6.43999999999994 6.22999999999996 0.539999999999964 12.33 0.539999999999964 Z" mask="url(#clip1775)" transform="matrix(1 0 0 1 -558 -5639 ) matrix(1 0 0 1 558 5639 )"/></g></svg>