<?xml version="1.0" encoding="utf-8"?>
<svg version="1.1" xmlns:xlink="http://www.w3.org/1999/xlink" width="10px" height="10px" xmlns="http://www.w3.org/2000/svg">
  <defs>
    <mask fill="white" id="clip556">
      <path d="M 5.42999999999995 0.409999999999968  C 7.52999999999997 0.409999999999968  9.23000000000002 3.10999999999996  9.23000000000002 5.20999999999998  C 9.23000000000002 7.30999999999995  7.52999999999997 9.00999999999999  5.42999999999995 9.00999999999999  C 3.33000000000004 9.00999999999999  0.629999999999995 7.30999999999995  0.629999999999995 5.20999999999998  C 0.629999999999995 3.10999999999996  3.33000000000004 0.409999999999968  5.42999999999995 0.409999999999968  Z " fill-rule="evenodd" />
    </mask>
  </defs>
  <g transform="matrix(1 0 0 1 -697 -11870 )">
    <path d="M 5.42999999999995 0.409999999999968  C 7.52999999999997 0.409999999999968  9.23000000000002 3.10999999999996  9.23000000000002 5.20999999999998  C 9.23000000000002 7.30999999999995  7.52999999999997 9.00999999999999  5.42999999999995 9.00999999999999  C 3.33000000000004 9.00999999999999  0.629999999999995 7.30999999999995  0.629999999999995 5.20999999999998  C 0.629999999999995 3.10999999999996  3.33000000000004 0.409999999999968  5.42999999999995 0.409999999999968  Z " fill-rule="nonzero" fill="#ff6a6a" stroke="none" transform="matrix(1 0 0 1 697 11870 )" />
    <path d="M 5.42999999999995 0.409999999999968  C 7.52999999999997 0.409999999999968  9.23000000000002 3.10999999999996  9.23000000000002 5.20999999999998  C 9.23000000000002 7.30999999999995  7.52999999999997 9.00999999999999  5.42999999999995 9.00999999999999  C 3.33000000000004 9.00999999999999  0.629999999999995 7.30999999999995  0.629999999999995 5.20999999999998  C 0.629999999999995 3.10999999999996  3.33000000000004 0.409999999999968  5.42999999999995 0.409999999999968  Z " stroke-width="2" stroke="#ff6a6a" fill="none" transform="matrix(1 0 0 1 697 11870 )" mask="url(#clip556)" />
  </g>
</svg>