<?xml version="1.0" encoding="utf-8"?>
<svg version="1.1" xmlns:xlink="http://www.w3.org/1999/xlink" width="10px" height="9px" xmlns="http://www.w3.org/2000/svg">
  <defs>
    <mask fill="white" id="clip639">
      <path d="M 5.25999999999999 0.0600000000000023  C 7.36000000000001 0.0600000000000023  9.06000000000006 2.75999999999999  9.06000000000006 4.86000000000001  C 9.06000000000006 6.95999999999998  7.36000000000001 8.66000000000003  5.25999999999999 8.66000000000003  C 3.16000000000008 8.66000000000003  0.460000000000036 6.95999999999998  0.460000000000036 4.86000000000001  C 0.460000000000036 2.75999999999999  3.16000000000008 0.0600000000000023  5.25999999999999 0.0600000000000023  Z " fill-rule="evenodd" />
    </mask>
  </defs>
  <g transform="matrix(1 0 0 1 -703 -11862 )">
    <path d="M 5.25999999999999 0.0600000000000023  C 7.36000000000001 0.0600000000000023  9.06000000000006 2.75999999999999  9.06000000000006 4.86000000000001  C 9.06000000000006 6.95999999999998  7.36000000000001 8.66000000000003  5.25999999999999 8.66000000000003  C 3.16000000000008 8.66000000000003  0.460000000000036 6.95999999999998  0.460000000000036 4.86000000000001  C 0.460000000000036 2.75999999999999  3.16000000000008 0.0600000000000023  5.25999999999999 0.0600000000000023  Z " fill-rule="nonzero" fill="#ff6a6a" stroke="none" transform="matrix(1 0 0 1 703 11862 )" />
    <path d="M 5.25999999999999 0.0600000000000023  C 7.36000000000001 0.0600000000000023  9.06000000000006 2.75999999999999  9.06000000000006 4.86000000000001  C 9.06000000000006 6.95999999999998  7.36000000000001 8.66000000000003  5.25999999999999 8.66000000000003  C 3.16000000000008 8.66000000000003  0.460000000000036 6.95999999999998  0.460000000000036 4.86000000000001  C 0.460000000000036 2.75999999999999  3.16000000000008 0.0600000000000023  5.25999999999999 0.0600000000000023  Z " stroke-width="2" stroke="#ff6a6a" fill="none" transform="matrix(1 0 0 1 703 11862 )" mask="url(#clip639)" />
  </g>
</svg>