<svg xmlns="http://www.w3.org/2000/svg" xmlns:xlink="http://www.w3.org/1999/xlink" width="204" height="220" version="1.1"><defs><mask id="clip1767" fill="#fff"><path fill-rule="evenodd" d="M 61.16 142.92 C 61.16 142.92 0.0600000000000023 14.42 0.0600000000000023 14.42 C 18.5599999999999 5.51999999999998 39.26 0.519999999999982 61.16 0.519999999999982 C 139.26 0.519999999999982 203.56 64.82 203.56 142.92 C 203.56 171.02 195.36 197.22 181.26 219.22 C 181.26 219.22 61.16 142.92 61.16 142.92 Z"/></mask></defs><g><path fill="#8acf57" fill-rule="nonzero" stroke="none" d="M 61.16 142.92 C 61.16 142.92 0.0600000000000023 14.42 0.0600000000000023 14.42 C 18.5599999999999 5.51999999999998 39.26 0.519999999999982 61.16 0.519999999999982 C 139.26 0.519999999999982 203.56 64.82 203.56 142.92 C 203.56 171.02 195.36 197.22 181.26 219.22 C 181.26 219.22 61.16 142.92 61.16 142.92 Z" transform="matrix(1 0 0 1 -586 -5188 ) matrix(1 0 0 1 586 5188 )"/><path fill="none" stroke="#82cc4c" stroke-width="2" d="M 61.16 142.92 C 61.16 142.92 0.0600000000000023 14.42 0.0600000000000023 14.42 C 18.5599999999999 5.51999999999998 39.26 0.519999999999982 61.16 0.519999999999982 C 139.26 0.519999999999982 203.56 64.82 203.56 142.92 C 203.56 171.02 195.36 197.22 181.26 219.22 C 181.26 219.22 61.16 142.92 61.16 142.92 Z" mask="url(#clip1767)" transform="matrix(1 0 0 1 -586 -5188 ) matrix(1 0 0 1 586 5188 )"/></g></svg>