<?xml version="1.0" encoding="utf-8"?>
<svg version="1.1" xmlns:xlink="http://www.w3.org/1999/xlink" width="10px" height="10px" xmlns="http://www.w3.org/2000/svg">
  <defs>
    <mask fill="white" id="clip645">
      <path d="M 5.53999999999996 0.639999999999986  C 7.63999999999999 0.639999999999986  9.34000000000003 3.33999999999998  9.34000000000003 5.44  C 9.34000000000003 7.53999999999996  7.63999999999999 9.24000000000001  5.53999999999996 9.24000000000001  C 3.44000000000005 9.24000000000001  0.740000000000009 7.53999999999996  0.740000000000009 5.44  C 0.740000000000009 3.33999999999998  3.44000000000005 0.639999999999986  5.53999999999996 0.639999999999986  Z " fill-rule="evenodd" />
    </mask>
  </defs>
  <g transform="matrix(1 0 0 1 -632 -11813 )">
    <path d="M 5.53999999999996 0.639999999999986  C 7.63999999999999 0.639999999999986  9.34000000000003 3.33999999999998  9.34000000000003 5.44  C 9.34000000000003 7.53999999999996  7.63999999999999 9.24000000000001  5.53999999999996 9.24000000000001  C 3.44000000000005 9.24000000000001  0.740000000000009 7.53999999999996  0.740000000000009 5.44  C 0.740000000000009 3.33999999999998  3.44000000000005 0.639999999999986  5.53999999999996 0.639999999999986  Z " fill-rule="nonzero" fill="#ff6a6a" stroke="none" transform="matrix(1 0 0 1 632 11813 )" />
    <path d="M 5.53999999999996 0.639999999999986  C 7.63999999999999 0.639999999999986  9.34000000000003 3.33999999999998  9.34000000000003 5.44  C 9.34000000000003 7.53999999999996  7.63999999999999 9.24000000000001  5.53999999999996 9.24000000000001  C 3.44000000000005 9.24000000000001  0.740000000000009 7.53999999999996  0.740000000000009 5.44  C 0.740000000000009 3.33999999999998  3.44000000000005 0.639999999999986  5.53999999999996 0.639999999999986  Z " stroke-width="2" stroke="#ff6a6a" fill="none" transform="matrix(1 0 0 1 632 11813 )" mask="url(#clip645)" />
  </g>
</svg>