<svg xmlns="http://www.w3.org/2000/svg" xmlns:xlink="http://www.w3.org/1999/xlink" width="122" height="116" version="1.1"><defs><mask id="clip1794" fill="#fff"><path fill-rule="evenodd" d="M 121.12 41.52 C 121.12 41.52 120.72 115.32 120.72 115.32 C 60.62 115.02 9.81999999999999 69.92 0.61999999999999 12.32 C 0.61999999999999 12.32 73.42 0.720000000000027 73.42 0.720000000000027 C 77.12 23.82 97.02 41.42 121.12 41.52 Z"/></mask></defs><g><path fill="#a0d8ef" fill-rule="nonzero" stroke="none" d="M 121.12 41.52 C 121.12 41.52 120.72 115.32 120.72 115.32 C 60.62 115.02 9.81999999999999 69.92 0.61999999999999 12.32 C 0.61999999999999 12.32 73.42 0.720000000000027 73.42 0.720000000000027 C 77.12 23.82 97.02 41.42 121.12 41.52 Z" transform="matrix(1 0 0 1 -181 -6234 ) matrix(1 0 0 1 181 6234 )"/><path fill="none" stroke="#a0d8ef" stroke-width="2" d="M 121.12 41.52 C 121.12 41.52 120.72 115.32 120.72 115.32 C 60.62 115.02 9.81999999999999 69.92 0.61999999999999 12.32 C 0.61999999999999 12.32 73.42 0.720000000000027 73.42 0.720000000000027 C 77.12 23.82 97.02 41.42 121.12 41.52 Z" mask="url(#clip1794)" transform="matrix(1 0 0 1 -181 -6234 ) matrix(1 0 0 1 181 6234 )"/></g></svg>