<svg xmlns="http://www.w3.org/2000/svg" xmlns:xlink="http://www.w3.org/1999/xlink" width="144" height="129" version="1.1"><defs><mask id="clip1772" fill="#fff"><path fill-rule="evenodd" d="M 143.16 128.92 C 143.16 128.92 0.759999999999991 126.82 0.759999999999991 126.82 C 1.56 71.52 35.16 22.92 82.06 0.419999999999959 C 82.06 0.419999999999959 143.16 128.92 143.16 128.92 Z"/></mask></defs><g><path fill="#d4cdc7" fill-rule="nonzero" stroke="none" d="M 143.16 128.92 C 143.16 128.92 0.759999999999991 126.82 0.759999999999991 126.82 C 1.56 71.52 35.16 22.92 82.06 0.419999999999959 C 82.06 0.419999999999959 143.16 128.92 143.16 128.92 Z" transform="matrix(1 0 0 1 -505 -5202 ) matrix(1 0 0 1 505 5202 )"/><path fill="none" stroke="#cfc8c2" stroke-width="2" d="M 143.16 128.92 C 143.16 128.92 0.759999999999991 126.82 0.759999999999991 126.82 C 1.56 71.52 35.16 22.92 82.06 0.419999999999959 C 82.06 0.419999999999959 143.16 128.92 143.16 128.92 Z" mask="url(#clip1772)" transform="matrix(1 0 0 1 -505 -5202 ) matrix(1 0 0 1 505 5202 )"/></g></svg>