<svg xmlns="http://www.w3.org/2000/svg" xmlns:xlink="http://www.w3.org/1999/xlink" width="108" height="128" version="1.1"><defs><mask id="clip1770" fill="#fff"><path fill-rule="evenodd" d="M 107.16 0.919999999999959 C 107.16 0.919999999999959 41.26 127.52 41.26 127.52 C 25.66 119.52 11.76 108.62 0.259999999999991 95.62 C 0.259999999999991 95.62 107.16 0.919999999999959 107.16 0.919999999999959 Z"/></mask></defs><g><path fill="#00bfff" fill-rule="nonzero" stroke="none" d="M 107.16 0.919999999999959 C 107.16 0.919999999999959 41.26 127.52 41.26 127.52 C 25.66 119.52 11.76 108.62 0.259999999999991 95.62 C 0.259999999999991 95.62 107.16 0.919999999999959 107.16 0.919999999999959 Z" transform="matrix(1 0 0 1 -541 -5329 ) matrix(1 0 0 1 541 5329 )"/><path fill="none" stroke="#00b5f2" stroke-width="2" d="M 107.16 0.919999999999959 C 107.16 0.919999999999959 41.26 127.52 41.26 127.52 C 25.66 119.52 11.76 108.62 0.259999999999991 95.62 C 0.259999999999991 95.62 107.16 0.919999999999959 107.16 0.919999999999959 Z" mask="url(#clip1770)" transform="matrix(1 0 0 1 -541 -5329 ) matrix(1 0 0 1 541 5329 )"/></g></svg>