<svg xmlns="http://www.w3.org/2000/svg" xmlns:xlink="http://www.w3.org/1999/xlink" width="144" height="98" version="1.1"><defs><mask id="clip1771" fill="#fff"><path fill-rule="evenodd" d="M 143.16 2.91999999999996 C 143.16 2.91999999999996 36.26 97.62 36.26 97.62 C 14.16 72.72 0.759999999999991 38.92 0.759999999999991 2.91999999999996 C 0.759999999999991 2.21999999999997 0.759999999999991 1.51999999999998 0.759999999999991 0.819999999999993 C 0.759999999999991 0.819999999999993 143.16 2.91999999999996 143.16 2.91999999999996 Z"/></mask></defs><g><path fill="#add8e6" fill-rule="nonzero" stroke="none" d="M 143.16 2.91999999999996 C 143.16 2.91999999999996 36.26 97.62 36.26 97.62 C 14.16 72.72 0.759999999999991 38.92 0.759999999999991 2.91999999999996 C 0.759999999999991 2.21999999999997 0.759999999999991 1.51999999999998 0.759999999999991 0.819999999999993 C 0.759999999999991 0.819999999999993 143.16 2.91999999999996 143.16 2.91999999999996 Z" transform="matrix(1 0 0 1 -505 -5327 ) matrix(1 0 0 1 505 5327 )"/><path fill="none" stroke="#9ed1e1" stroke-width="2" d="M 143.16 2.91999999999996 C 143.16 2.91999999999996 36.26 97.62 36.26 97.62 C 14.16 72.72 0.759999999999991 38.92 0.759999999999991 2.91999999999996 C 0.759999999999991 2.21999999999997 0.759999999999991 1.51999999999998 0.759999999999991 0.819999999999993 C 0.759999999999991 0.819999999999993 143.16 2.91999999999996 143.16 2.91999999999996 Z" mask="url(#clip1771)" transform="matrix(1 0 0 1 -505 -5327 ) matrix(1 0 0 1 505 5327 )"/></g></svg>