<?xml version="1.0" encoding="utf-8"?>
<svg version="1.1" xmlns:xlink="http://www.w3.org/1999/xlink" width="10px" height="9px" xmlns="http://www.w3.org/2000/svg">
  <defs>
    <mask fill="white" id="clip553">
      <path d="M 5.22000000000003 0.0400000000000205  C 7.32000000000005 0.0400000000000205  9.0200000000001 2.74000000000001  9.0200000000001 4.84000000000003  C 9.0200000000001 6.94  7.32000000000005 8.64000000000004  5.22000000000003 8.64000000000004  C 3.12000000000012 8.64000000000004  0.420000000000073 6.94  0.420000000000073 4.84000000000003  C 0.420000000000073 2.74000000000001  3.12000000000012 0.0400000000000205  5.22000000000003 0.0400000000000205  Z " fill-rule="evenodd" />
    </mask>
  </defs>
  <g transform="matrix(1 0 0 1 -645 -11895 )">
    <path d="M 5.22000000000003 0.0400000000000205  C 7.32000000000005 0.0400000000000205  9.0200000000001 2.74000000000001  9.0200000000001 4.84000000000003  C 9.0200000000001 6.94  7.32000000000005 8.64000000000004  5.22000000000003 8.64000000000004  C 3.12000000000012 8.64000000000004  0.420000000000073 6.94  0.420000000000073 4.84000000000003  C 0.420000000000073 2.74000000000001  3.12000000000012 0.0400000000000205  5.22000000000003 0.0400000000000205  Z " fill-rule="nonzero" fill="#ff6a6a" stroke="none" transform="matrix(1 0 0 1 645 11895 )" />
    <path d="M 5.22000000000003 0.0400000000000205  C 7.32000000000005 0.0400000000000205  9.0200000000001 2.74000000000001  9.0200000000001 4.84000000000003  C 9.0200000000001 6.94  7.32000000000005 8.64000000000004  5.22000000000003 8.64000000000004  C 3.12000000000012 8.64000000000004  0.420000000000073 6.94  0.420000000000073 4.84000000000003  C 0.420000000000073 2.74000000000001  3.12000000000012 0.0400000000000205  5.22000000000003 0.0400000000000205  Z " stroke-width="2" stroke="#ff6a6a" fill="none" transform="matrix(1 0 0 1 645 11895 )" mask="url(#clip553)" />
  </g>
</svg>