<svg xmlns="http://www.w3.org/2000/svg" xmlns:xlink="http://www.w3.org/1999/xlink" width="96" height="131" version="1.1"><g><path fill="#f9ca31" fill-rule="nonzero" stroke="none" d="M 12.25 30.62 L 0.150000000000006 7.51999999999998 C 9.14999999999998 2.72000000000003 19.45 0.0199999999999818 30.45 0.0199999999999818 C 66.45 0.0199999999999818 95.65 29.22 95.65 65.3199999999999 C 95.65 101.32 66.45 130.52 30.45 130.52 C 19.95 130.52 10.15 128.12 1.44999999999999 123.72 L 13.05 100.32 C 18.25 102.92 24.15 104.42 30.45 104.42 C 52.05 104.42 69.55 86.92 69.55 65.3199999999999 C 69.55 43.62 52.05 26.12 30.45 26.12 C 23.85 26.12 17.65 27.72 12.25 30.62 Z" transform="matrix(1 0 0 1 -338 -7349 ) matrix(1 0 0 1 338 7349 )"/></g></svg>