<?xml version="1.0" encoding="utf-8"?>
<svg version="1.1" xmlns:xlink="http://www.w3.org/1999/xlink" width="10px" height="10px" xmlns="http://www.w3.org/2000/svg">
  <defs>
    <mask fill="white" id="clip582">
      <path d="M 5.22000000000003 0.480000000000018  C 7.32000000000005 0.480000000000018  9.0200000000001 3.18000000000001  9.0200000000001 5.28000000000003  C 9.0200000000001 7.38  7.32000000000005 9.08000000000004  5.22000000000003 9.08000000000004  C 3.12000000000012 9.08000000000004  0.420000000000073 7.38  0.420000000000073 5.28000000000003  C 0.420000000000073 3.18000000000001  3.12000000000012 0.480000000000018  5.22000000000003 0.480000000000018  Z " fill-rule="evenodd" />
    </mask>
  </defs>
  <g transform="matrix(1 0 0 1 -643 -11837 )">
    <path d="M 5.22000000000003 0.480000000000018  C 7.32000000000005 0.480000000000018  9.0200000000001 3.18000000000001  9.0200000000001 5.28000000000003  C 9.0200000000001 7.38  7.32000000000005 9.08000000000004  5.22000000000003 9.08000000000004  C 3.12000000000012 9.08000000000004  0.420000000000073 7.38  0.420000000000073 5.28000000000003  C 0.420000000000073 3.18000000000001  3.12000000000012 0.480000000000018  5.22000000000003 0.480000000000018  Z " fill-rule="nonzero" fill="#ff6a6a" stroke="none" transform="matrix(1 0 0 1 643 11837 )" />
    <path d="M 5.22000000000003 0.480000000000018  C 7.32000000000005 0.480000000000018  9.0200000000001 3.18000000000001  9.0200000000001 5.28000000000003  C 9.0200000000001 7.38  7.32000000000005 9.08000000000004  5.22000000000003 9.08000000000004  C 3.12000000000012 9.08000000000004  0.420000000000073 7.38  0.420000000000073 5.28000000000003  C 0.420000000000073 3.18000000000001  3.12000000000012 0.480000000000018  5.22000000000003 0.480000000000018  Z " stroke-width="2" stroke="#ff6a6a" fill="none" transform="matrix(1 0 0 1 643 11837 )" mask="url(#clip582)" />
  </g>
</svg>