<svg xmlns="http://www.w3.org/2000/svg" xmlns:xlink="http://www.w3.org/1999/xlink" width="75" height="69" version="1.1"><defs><mask id="clip1916" fill="#fff"><path fill-rule="evenodd" d="M 74.5 16.01 C 74.5 16.01 74.5 68.51 74.5 68.51 C 46 68.51 19.1999999999999 57.01 0.600000000000023 38.31 C 0.600000000000023 38.31 37 0.909999999999968 37 0.909999999999968 C 46.3 10.21 60.1999999999999 16.01 74.5 16.01 Z"/></mask></defs><g><path fill="#eacd98" fill-rule="nonzero" stroke="none" d="M 74.5 16.01 C 74.5 16.01 74.5 68.51 74.5 68.51 C 46 68.51 19.1999999999999 57.01 0.600000000000023 38.31 C 0.600000000000023 38.31 37 0.909999999999968 37 0.909999999999968 C 46.3 10.21 60.1999999999999 16.01 74.5 16.01 Z" transform="matrix(1 0 0 1 -863 -7040 ) matrix(1 0 0 1 863 7040 )"/><path fill="none" stroke="#eacd98" stroke-width="2" d="M 74.5 16.01 C 74.5 16.01 74.5 68.51 74.5 68.51 C 46 68.51 19.1999999999999 57.01 0.600000000000023 38.31 C 0.600000000000023 38.31 37 0.909999999999968 37 0.909999999999968 C 46.3 10.21 60.1999999999999 16.01 74.5 16.01 Z" mask="url(#clip1916)" transform="matrix(1 0 0 1 -863 -7040 ) matrix(1 0 0 1 863 7040 )"/></g></svg>