<svg xmlns="http://www.w3.org/2000/svg" xmlns:xlink="http://www.w3.org/1999/xlink" width="83" height="71" version="1.1"><defs><mask id="clip1927" fill="#fff"><path fill-rule="evenodd" d="M 0.0499999999999545 31.77 C 0.0499999999999545 31.77 1.64999999999998 0.970000000000027 1.64999999999998 0.970000000000027 C 37.95 2.87 69.65 27.27 82.05 59.67 C 82.05 59.67 53.25 70.77 53.25 70.77 C 45.05 49.47 23.95 33.0700000000001 0.0499999999999545 31.77 Z"/></mask></defs><g><path fill="#64c5c5" fill-rule="nonzero" stroke="none" d="M 0.0499999999999545 31.77 C 0.0499999999999545 31.77 1.64999999999998 0.970000000000027 1.64999999999998 0.970000000000027 C 37.95 2.87 69.65 27.27 82.05 59.67 C 82.05 59.67 53.25 70.77 53.25 70.77 C 45.05 49.47 23.95 33.0700000000001 0.0499999999999545 31.77 Z" transform="matrix(1 0 0 1 -715 -7314 ) matrix(1 0 0 1 715 7314 )"/><path fill="none" stroke="#64c5c5" stroke-width="2" d="M 0.0499999999999545 31.77 C 0.0499999999999545 31.77 1.64999999999998 0.970000000000027 1.64999999999998 0.970000000000027 C 37.95 2.87 69.65 27.27 82.05 59.67 C 82.05 59.67 53.25 70.77 53.25 70.77 C 45.05 49.47 23.95 33.0700000000001 0.0499999999999545 31.77 Z" mask="url(#clip1927)" transform="matrix(1 0 0 1 -715 -7314 ) matrix(1 0 0 1 715 7314 )"/></g></svg>