<svg xmlns="http://www.w3.org/2000/svg" xmlns:xlink="http://www.w3.org/1999/xlink" width="105" height="105" version="1.1"><defs><mask id="clip1918" fill="#fff"><path fill-rule="evenodd" d="M 51.9 104.51 C 51.9 104.51 0.399999999999977 104.51 0.399999999999977 104.51 C 0.399999999999977 47.51 47.5 0.409999999999997 104.5 0.409999999999997 C 104.5 0.409999999999997 104.5 51.91 104.5 51.91 C 76 51.91 51.9 76.01 51.9 104.51 Z"/></mask></defs><g><path fill="#445771" fill-rule="nonzero" stroke="none" d="M 51.9 104.51 C 51.9 104.51 0.399999999999977 104.51 0.399999999999977 104.51 C 0.399999999999977 47.51 47.5 0.409999999999997 104.5 0.409999999999997 C 104.5 0.409999999999997 104.5 51.91 104.5 51.91 C 76 51.91 51.9 76.01 51.9 104.51 Z" transform="matrix(1 0 0 1 -833 -6901 ) matrix(1 0 0 1 833 6901 )"/><path fill="none" stroke="#445771" stroke-width="2" d="M 51.9 104.51 C 51.9 104.51 0.399999999999977 104.51 0.399999999999977 104.51 C 0.399999999999977 47.51 47.5 0.409999999999997 104.5 0.409999999999997 C 104.5 0.409999999999997 104.5 51.91 104.5 51.91 C 76 51.91 51.9 76.01 51.9 104.51 Z" mask="url(#clip1918)" transform="matrix(1 0 0 1 -833 -6901 ) matrix(1 0 0 1 833 6901 )"/></g></svg>