<?xml version="1.0" encoding="utf-8"?>
<svg version="1.1" xmlns:xlink="http://www.w3.org/1999/xlink" width="66px" height="33px" xmlns="http://www.w3.org/2000/svg">
  <defs>
    <mask fill="white" id="clip580">
      <path d="M 58.77 19.2  C 60.97 19.2  62.77 23  62.77 25.2  C 62.77 27.4  60.97 29.2  58.77 29.2  C 56.57 29.2  52.77 27.4  52.77 25.2  C 52.77 23  56.57 19.2  58.77 19.2  Z " fill-rule="evenodd" />
    </mask>
  </defs>
  <g transform="matrix(1 0 0 1 -298 -12582 )">
    <path d="M 58.77 19.2  C 60.97 19.2  62.77 23  62.77 25.2  C 62.77 27.4  60.97 29.2  58.77 29.2  C 56.57 29.2  52.77 27.4  52.77 25.2  C 52.77 23  56.57 19.2  58.77 19.2  Z " fill-rule="nonzero" fill="#ffffff" stroke="none" fill-opacity="0" transform="matrix(1 0 0 1 299 12583 )" />
    <path d="M 58.77 19.2  C 60.97 19.2  62.77 23  62.77 25.2  C 62.77 27.4  60.97 29.2  58.77 29.2  C 56.57 29.2  52.77 27.4  52.77 25.2  C 52.77 23  56.57 19.2  58.77 19.2  Z " stroke-width="4" stroke="#16a58a" fill="none" transform="matrix(1 0 0 1 299 12583 )" mask="url(#clip580)" />
    <path d="M 0.370000000000005 0.400000000000006  L 57.77 24.2  " stroke-width="2" stroke="#16a58a" fill="none" transform="matrix(1 0 0 1 299 12583 )" mask="url(#clip580)" />
  </g>
</svg>