<?xml version="1.0" encoding="utf-8"?>
<svg version="1.1" xmlns:xlink="http://www.w3.org/1999/xlink" width="10px" height="10px" xmlns="http://www.w3.org/2000/svg">
  <defs>
    <mask fill="white" id="clip583">
      <path d="M 5.52999999999997 0.490000000000009  C 7.63 0.490000000000009  9.33000000000004 3.19  9.33000000000004 5.29000000000002  C 9.33000000000004 7.38999999999999  7.63 9.09000000000003  5.52999999999997 9.09000000000003  C 3.43000000000006 9.09000000000003  0.730000000000018 7.38999999999999  0.730000000000018 5.29000000000002  C 0.730000000000018 3.19  3.43000000000006 0.490000000000009  5.52999999999997 0.490000000000009  Z " fill-rule="evenodd" />
    </mask>
  </defs>
  <g transform="matrix(1 0 0 1 -620 -11829 )">
    <path d="M 5.52999999999997 0.490000000000009  C 7.63 0.490000000000009  9.33000000000004 3.19  9.33000000000004 5.29000000000002  C 9.33000000000004 7.38999999999999  7.63 9.09000000000003  5.52999999999997 9.09000000000003  C 3.43000000000006 9.09000000000003  0.730000000000018 7.38999999999999  0.730000000000018 5.29000000000002  C 0.730000000000018 3.19  3.43000000000006 0.490000000000009  5.52999999999997 0.490000000000009  Z " fill-rule="nonzero" fill="#ff6a6a" stroke="none" transform="matrix(1 0 0 1 620 11829 )" />
    <path d="M 5.52999999999997 0.490000000000009  C 7.63 0.490000000000009  9.33000000000004 3.19  9.33000000000004 5.29000000000002  C 9.33000000000004 7.38999999999999  7.63 9.09000000000003  5.52999999999997 9.09000000000003  C 3.43000000000006 9.09000000000003  0.730000000000018 7.38999999999999  0.730000000000018 5.29000000000002  C 0.730000000000018 3.19  3.43000000000006 0.490000000000009  5.52999999999997 0.490000000000009  Z " stroke-width="2" stroke="#ff6a6a" fill="none" transform="matrix(1 0 0 1 620 11829 )" mask="url(#clip583)" />
  </g>
</svg>