<?xml version="1.0" encoding="utf-8"?>
<svg version="1.1" xmlns:xlink="http://www.w3.org/1999/xlink" width="14px" height="66px" xmlns="http://www.w3.org/2000/svg">
  <defs>
    <mask fill="white" id="clip586">
      <path d="M 6.47 0.600000000000023  C 8.67000000000002 0.600000000000023  10.47 4.39999999999998  10.47 6.60000000000002  C 10.47 8.80000000000001  8.67000000000002 10.6  6.47 10.6  C 4.27000000000001 10.6  0.469999999999999 8.80000000000001  0.469999999999999 6.60000000000002  C 0.469999999999999 4.39999999999998  4.27000000000001 0.600000000000023  6.47 0.600000000000023  Z " fill-rule="evenodd" />
    </mask>
  </defs>
  <g transform="matrix(1 0 0 1 -232 -12658 )">
    <path d="M 6.47 0.600000000000023  C 8.67000000000002 0.600000000000023  10.47 4.39999999999998  10.47 6.60000000000002  C 10.47 8.80000000000001  8.67000000000002 10.6  6.47 10.6  C 4.27000000000001 10.6  0.469999999999999 8.80000000000001  0.469999999999999 6.60000000000002  C 0.469999999999999 4.39999999999998  4.27000000000001 0.600000000000023  6.47 0.600000000000023  Z " fill-rule="nonzero" fill="#ffffff" stroke="none" fill-opacity="0" transform="matrix(1 0 0 1 233 12659 )" />
    <path d="M 6.47 0.600000000000023  C 8.67000000000002 0.600000000000023  10.47 4.39999999999998  10.47 6.60000000000002  C 10.47 8.80000000000001  8.67000000000002 10.6  6.47 10.6  C 4.27000000000001 10.6  0.469999999999999 8.80000000000001  0.469999999999999 6.60000000000002  C 0.469999999999999 4.39999999999998  4.27000000000001 0.600000000000023  6.47 0.600000000000023  Z " stroke-width="4" stroke="#16a58a" fill="none" transform="matrix(1 0 0 1 233 12659 )" mask="url(#clip586)" />
    <path d="M 8.97 63  L 5.47 5.60000000000002  " stroke-width="2" stroke="#16a58a" fill="none" transform="matrix(1 0 0 1 233 12659 )" mask="url(#clip586)" />
  </g>
</svg>