<svg xmlns="http://www.w3.org/2000/svg" xmlns:xlink="http://www.w3.org/1999/xlink" width="119" height="131" version="1.1"><g><path fill="#84ba82" fill-rule="nonzero" stroke="none" d="M 97.6 87.92 L 118.9 103.02 C 107.1 119.62 87.6 130.52 65.7 130.52 C 29.6 130.52 0.399999999999977 101.32 0.399999999999977 65.3199999999999 C 0.399999999999977 29.22 29.6 0.0199999999999818 65.7 0.0199999999999818 C 87.1 0.0199999999999818 106.1 10.3199999999999 118 26.3199999999999 L 97 41.92 C 89.9 32.3199999999999 78.5 26.12 65.7 26.12 C 44 26.12 26.5 43.62 26.5 65.3199999999999 C 26.5 86.92 44 104.42 65.7 104.42 C 78.8 104.42 90.5 97.92 97.6 87.92 Z" transform="matrix(1 0 0 1 -448 -7349 ) matrix(1 0 0 1 448 7349 )"/></g></svg>