<?xml version="1.0" encoding="utf-8"?>
<svg version="1.1" xmlns:xlink="http://www.w3.org/1999/xlink" width="10px" height="10px" xmlns="http://www.w3.org/2000/svg">
  <defs>
    <mask fill="white" id="clip571">
      <path d="M 5.29999999999995 0.870000000000005  C 7.39999999999998 0.870000000000005  9.10000000000002 3.57000000000005  9.10000000000002 5.66999999999996  C 9.10000000000002 7.76999999999998  7.39999999999998 9.47000000000003  5.29999999999995 9.47000000000003  C 3.20000000000005 9.47000000000003  0.5 7.76999999999998  0.5 5.66999999999996  C 0.5 3.57000000000005  3.20000000000005 0.870000000000005  5.29999999999995 0.870000000000005  Z " fill-rule="evenodd" />
    </mask>
  </defs>
  <g transform="matrix(1 0 0 1 -671 -11925 )">
    <path d="M 5.29999999999995 0.870000000000005  C 7.39999999999998 0.870000000000005  9.10000000000002 3.57000000000005  9.10000000000002 5.66999999999996  C 9.10000000000002 7.76999999999998  7.39999999999998 9.47000000000003  5.29999999999995 9.47000000000003  C 3.20000000000005 9.47000000000003  0.5 7.76999999999998  0.5 5.66999999999996  C 0.5 3.57000000000005  3.20000000000005 0.870000000000005  5.29999999999995 0.870000000000005  Z " fill-rule="nonzero" fill="#ff6a6a" stroke="none" transform="matrix(1 0 0 1 671 11925 )" />
    <path d="M 5.29999999999995 0.870000000000005  C 7.39999999999998 0.870000000000005  9.10000000000002 3.57000000000005  9.10000000000002 5.66999999999996  C 9.10000000000002 7.76999999999998  7.39999999999998 9.47000000000003  5.29999999999995 9.47000000000003  C 3.20000000000005 9.47000000000003  0.5 7.76999999999998  0.5 5.66999999999996  C 0.5 3.57000000000005  3.20000000000005 0.870000000000005  5.29999999999995 0.870000000000005  Z " stroke-width="2" stroke="#ff6a6a" fill="none" transform="matrix(1 0 0 1 671 11925 )" mask="url(#clip571)" />
  </g>
</svg>