<svg xmlns="http://www.w3.org/2000/svg" xmlns:xlink="http://www.w3.org/1999/xlink" width="68" height="75" version="1.1"><defs><mask id="clip1917" fill="#fff"><path fill-rule="evenodd" d="M 68 37.91 C 68 37.91 30.6 74.31 30.6 74.31 C 11.9 55.71 0.399999999999977 28.91 0.399999999999977 0.509999999999991 C 0.399999999999977 0.509999999999991 52.9 0.509999999999991 52.9 0.509999999999991 C 52.9 14.71 58.6999999999999 28.61 68 37.91 Z"/></mask></defs><g><path fill="#19cbb1" fill-rule="nonzero" stroke="none" d="M 68 37.91 C 68 37.91 30.6 74.31 30.6 74.31 C 11.9 55.71 0.399999999999977 28.91 0.399999999999977 0.509999999999991 C 0.399999999999977 0.509999999999991 52.9 0.509999999999991 52.9 0.509999999999991 C 52.9 14.71 58.6999999999999 28.61 68 37.91 Z" transform="matrix(1 0 0 1 -833 -7004 ) matrix(1 0 0 1 833 7004 )"/><path fill="none" stroke="#19cbb1" stroke-width="2" d="M 68 37.91 C 68 37.91 30.6 74.31 30.6 74.31 C 11.9 55.71 0.399999999999977 28.91 0.399999999999977 0.509999999999991 C 0.399999999999977 0.509999999999991 52.9 0.509999999999991 52.9 0.509999999999991 C 52.9 14.71 58.6999999999999 28.61 68 37.91 Z" mask="url(#clip1917)" transform="matrix(1 0 0 1 -833 -7004 ) matrix(1 0 0 1 833 7004 )"/></g></svg>