<svg xmlns="http://www.w3.org/2000/svg" xmlns:xlink="http://www.w3.org/1999/xlink" width="105" height="105" version="1.1"><defs><mask id="clip1915" fill="#fff"><path fill-rule="evenodd" d="M 53 0.509999999999991 C 53 0.509999999999991 104.5 0.509999999999991 104.5 0.509999999999991 C 104.5 57.41 57.4 104.51 0.5 104.51 C 0.5 104.51 0.5 53.01 0.5 53.01 C 28.9 53.01 53 28.91 53 0.509999999999991 Z"/></mask></defs><g><path fill="#46ba7d" fill-rule="nonzero" stroke="none" d="M 53 0.509999999999991 C 53 0.509999999999991 104.5 0.509999999999991 104.5 0.509999999999991 C 104.5 57.41 57.4 104.51 0.5 104.51 C 0.5 104.51 0.5 53.01 0.5 53.01 C 28.9 53.01 53 28.91 53 0.509999999999991 Z" transform="matrix(1 0 0 1 -936 -7004 ) matrix(1 0 0 1 936 7004 )"/><path fill="none" stroke="#46ba7d" stroke-width="2" d="M 53 0.509999999999991 C 53 0.509999999999991 104.5 0.509999999999991 104.5 0.509999999999991 C 104.5 57.41 57.4 104.51 0.5 104.51 C 0.5 104.51 0.5 53.01 0.5 53.01 C 28.9 53.01 53 28.91 53 0.509999999999991 Z" mask="url(#clip1915)" transform="matrix(1 0 0 1 -936 -7004 ) matrix(1 0 0 1 936 7004 )"/></g></svg>