<?xml version="1.0" encoding="utf-8"?>
<svg version="1.1" xmlns:xlink="http://www.w3.org/1999/xlink" width="105px" height="105px" xmlns="http://www.w3.org/2000/svg">
  <defs>
    <mask fill="white" id="clip1918">
      <path d="M 51.9 104.51  C 51.9 104.51  0.399999999999977 104.51  0.399999999999977 104.51  C 0.399999999999977 47.51  47.5 0.409999999999997  104.5 0.409999999999997  C 104.5 0.409999999999997  104.5 51.91  104.5 51.91  C 76 51.91  51.9 76.01  51.9 104.51  Z " fill-rule="evenodd" />
    </mask>
  </defs>
  <g transform="matrix(1 0 0 1 -833 -6901 )">
    <path d="M 51.9 104.51  C 51.9 104.51  0.399999999999977 104.51  0.399999999999977 104.51  C 0.399999999999977 47.51  47.5 0.409999999999997  104.5 0.409999999999997  C 104.5 0.409999999999997  104.5 51.91  104.5 51.91  C 76 51.91  51.9 76.01  51.9 104.51  Z " fill-rule="nonzero" fill="#445771" stroke="none" transform="matrix(1 0 0 1 833 6901 )" />
    <path d="M 51.9 104.51  C 51.9 104.51  0.399999999999977 104.51  0.399999999999977 104.51  C 0.399999999999977 47.51  47.5 0.409999999999997  104.5 0.409999999999997  C 104.5 0.409999999999997  104.5 51.91  104.5 51.91  C 76 51.91  51.9 76.01  51.9 104.51  Z " stroke-width="2" stroke="#445771" fill="none" transform="matrix(1 0 0 1 833 6901 )" mask="url(#clip1918)" />
  </g>
</svg>