<svg xmlns="http://www.w3.org/2000/svg" xmlns:xlink="http://www.w3.org/1999/xlink" width="10" height="9" version="1.1"><defs><mask id="clip1947" fill="#fff"><path fill-rule="evenodd" d="M 0.720000000000027 9 C 0.720000000000027 9 5.5200000000001 0 5.5200000000001 0 C 5.5200000000001 0 9.32000000000005 9 9.32000000000005 9 C 9.32000000000005 9 0.720000000000027 9 0.720000000000027 9 Z"/></mask></defs><g><path fill="#fff" fill-opacity="0" fill-rule="nonzero" stroke="none" d="M 0.720000000000027 9 C 0.720000000000027 9 5.5200000000001 0 5.5200000000001 0 C 5.5200000000001 0 9.32000000000005 9 9.32000000000005 9 C 9.32000000000005 9 0.720000000000027 9 0.720000000000027 9 Z" transform="matrix(1 0 0 1 -933 -8005 ) matrix(1 0 0 1 933 8005 )"/><path fill="none" stroke="#fb9d53" stroke-width="2" d="M 0.720000000000027 9 C 0.720000000000027 9 5.5200000000001 0 5.5200000000001 0 C 5.5200000000001 0 9.32000000000005 9 9.32000000000005 9 C 9.32000000000005 9 0.720000000000027 9 0.720000000000027 9 Z" mask="url(#clip1947)" transform="matrix(1 0 0 1 -933 -8005 ) matrix(1 0 0 1 933 8005 )"/></g></svg>