<?xml version="1.0" encoding="utf-8"?>
<svg version="1.1" xmlns:xlink="http://www.w3.org/1999/xlink" width="10px" height="9px" xmlns="http://www.w3.org/2000/svg">
  <defs>
    <mask fill="white" id="clip596">
      <path d="M 5.70999999999992 0.350000000000023  C 7.80999999999995 0.350000000000023  9.50999999999999 3.05000000000001  9.50999999999999 5.15000000000003  C 9.50999999999999 7.25  7.80999999999995 8.95000000000005  5.70999999999992 8.95000000000005  C 3.61000000000001 8.95000000000005  0.909999999999968 7.25  0.909999999999968 5.15000000000003  C 0.909999999999968 3.05000000000001  3.61000000000001 0.350000000000023  5.70999999999992 0.350000000000023  Z " fill-rule="evenodd" />
    </mask>
  </defs>
  <g transform="matrix(1 0 0 1 -837 -11730 )">
    <path d="M 5.70999999999992 0.350000000000023  C 7.80999999999995 0.350000000000023  9.50999999999999 3.05000000000001  9.50999999999999 5.15000000000003  C 9.50999999999999 7.25  7.80999999999995 8.95000000000005  5.70999999999992 8.95000000000005  C 3.61000000000001 8.95000000000005  0.909999999999968 7.25  0.909999999999968 5.15000000000003  C 0.909999999999968 3.05000000000001  3.61000000000001 0.350000000000023  5.70999999999992 0.350000000000023  Z " fill-rule="nonzero" fill="#ff6a6a" stroke="none" transform="matrix(1 0 0 1 837 11730 )" />
    <path d="M 5.70999999999992 0.350000000000023  C 7.80999999999995 0.350000000000023  9.50999999999999 3.05000000000001  9.50999999999999 5.15000000000003  C 9.50999999999999 7.25  7.80999999999995 8.95000000000005  5.70999999999992 8.95000000000005  C 3.61000000000001 8.95000000000005  0.909999999999968 7.25  0.909999999999968 5.15000000000003  C 0.909999999999968 3.05000000000001  3.61000000000001 0.350000000000023  5.70999999999992 0.350000000000023  Z " stroke-width="2" stroke="#ff6a6a" fill="none" transform="matrix(1 0 0 1 837 11730 )" mask="url(#clip596)" />
  </g>
</svg>