<svg xmlns="http://www.w3.org/2000/svg" xmlns:xlink="http://www.w3.org/1999/xlink" width="9" height="10" version="1.1"><defs><mask id="clip1938" fill="#fff"><path fill-rule="evenodd" d="M 0.0200000000000102 9.39999999999998 C 0.0200000000000102 9.39999999999998 4.82000000000002 0.399999999999977 4.82000000000002 0.399999999999977 C 4.82000000000002 0.399999999999977 8.62000000000003 9.39999999999998 8.62000000000003 9.39999999999998 C 8.62000000000003 9.39999999999998 0.0200000000000102 9.39999999999998 0.0200000000000102 9.39999999999998 Z"/></mask></defs><g><path fill="#fb9d53" fill-rule="nonzero" stroke="none" d="M 0.0200000000000102 9.39999999999998 C 0.0200000000000102 9.39999999999998 4.82000000000002 0.399999999999977 4.82000000000002 0.399999999999977 C 4.82000000000002 0.399999999999977 8.62000000000003 9.39999999999998 8.62000000000003 9.39999999999998 C 8.62000000000003 9.39999999999998 0.0200000000000102 9.39999999999998 0.0200000000000102 9.39999999999998 Z" transform="matrix(1 0 0 1 -329 -8084 ) matrix(1 0 0 1 329 8084 )"/><path fill="none" stroke="#fb9d53" stroke-width="2" d="M 0.0200000000000102 9.39999999999998 C 0.0200000000000102 9.39999999999998 4.82000000000002 0.399999999999977 4.82000000000002 0.399999999999977 C 4.82000000000002 0.399999999999977 8.62000000000003 9.39999999999998 8.62000000000003 9.39999999999998 C 8.62000000000003 9.39999999999998 0.0200000000000102 9.39999999999998 0.0200000000000102 9.39999999999998 Z" mask="url(#clip1938)" transform="matrix(1 0 0 1 -329 -8084 ) matrix(1 0 0 1 329 8084 )"/></g></svg>