<svg xmlns="http://www.w3.org/2000/svg" xmlns:xlink="http://www.w3.org/1999/xlink" width="103" height="103" version="1.1"><defs><mask id="clip1934" fill="#fff"><path fill-rule="evenodd" d="M 51.9 102.52 C 24 102.52 0.399999999999977 79.92 0.399999999999977 52.02 C 0.399999999999977 24.12 24 0.519999999999982 51.9 0.519999999999982 C 79.8 0.519999999999982 102.4 24.12 102.4 52.02 C 102.4 79.92 79.8 102.52 51.9 102.52 Z"/></mask></defs><g><path fill="#f56582" fill-rule="nonzero" stroke="none" d="M 51.9 102.52 C 24 102.52 0.399999999999977 79.92 0.399999999999977 52.02 C 0.399999999999977 24.12 24 0.519999999999982 51.9 0.519999999999982 C 79.8 0.519999999999982 102.4 24.12 102.4 52.02 C 102.4 79.92 79.8 102.52 51.9 102.52 Z" transform="matrix(1 0 0 1 -661 -7354 ) matrix(1 0 0 1 661 7354 )"/><path fill="none" stroke="#f56582" stroke-width="2" d="M 51.9 102.52 C 24 102.52 0.399999999999977 79.92 0.399999999999977 52.02 C 0.399999999999977 24.12 24 0.519999999999982 51.9 0.519999999999982 C 79.8 0.519999999999982 102.4 24.12 102.4 52.02 C 102.4 79.92 79.8 102.52 51.9 102.52 Z" mask="url(#clip1934)" transform="matrix(1 0 0 1 -661 -7354 ) matrix(1 0 0 1 661 7354 )"/></g></svg>