<?xml version="1.0" encoding="utf-8"?>
<svg version="1.1" xmlns:xlink="http://www.w3.org/1999/xlink" width="42px" height="38px" xmlns="http://www.w3.org/2000/svg">
  <defs>
    <mask fill="white" id="clip635">
      <path d="M 34.05 24.6  C 36.25 24.6  38.05 28.4  38.05 30.6  C 38.05 32.8  36.25 34.6  34.05 34.6  C 31.8499999999999 34.6  28.05 32.8  28.05 30.6  C 28.05 28.4  31.8499999999999 24.6  34.05 24.6  Z " fill-rule="evenodd" />
    </mask>
  </defs>
  <g transform="matrix(1 0 0 1 -678 -12634 )">
    <path d="M 34.05 24.6  C 36.25 24.6  38.05 28.4  38.05 30.6  C 38.05 32.8  36.25 34.6  34.05 34.6  C 31.8499999999999 34.6  28.05 32.8  28.05 30.6  C 28.05 28.4  31.8499999999999 24.6  34.05 24.6  Z " fill-rule="nonzero" fill="#ffffff" stroke="none" fill-opacity="0" transform="matrix(1 0 0 1 679 12635 )" />
    <path d="M 34.05 24.6  C 36.25 24.6  38.05 28.4  38.05 30.6  C 38.05 32.8  36.25 34.6  34.05 34.6  C 31.8499999999999 34.6  28.05 32.8  28.05 30.6  C 28.05 28.4  31.8499999999999 24.6  34.05 24.6  Z " stroke-width="4" stroke="#c26383" fill="none" transform="matrix(1 0 0 1 679 12635 )" mask="url(#clip635)" />
    <path d="M 0.849999999999909 0.899999999999977  L 33.05 29.6  " stroke-width="2" stroke="#c26383" fill="none" transform="matrix(1 0 0 1 679 12635 )" mask="url(#clip635)" />
  </g>
</svg>