<?xml version="1.0" encoding="utf-8"?>
<svg version="1.1" xmlns:xlink="http://www.w3.org/1999/xlink" width="37px" height="61px" xmlns="http://www.w3.org/2000/svg">
  <defs>
    <mask fill="white" id="clip634">
      <path d="M 29.8499999999999 47.9  C 32.05 47.9  33.8499999999999 51.7  33.8499999999999 53.9  C 33.8499999999999 56.1  32.05 57.9  29.8499999999999 57.9  C 27.65 57.9  23.85 56.1  23.85 53.9  C 23.85 51.7  27.65 47.9  29.8499999999999 47.9  Z " fill-rule="evenodd" />
    </mask>
  </defs>
  <g transform="matrix(1 0 0 1 -650 -12582 )">
    <path d="M 29.8499999999999 47.9  C 32.05 47.9  33.8499999999999 51.7  33.8499999999999 53.9  C 33.8499999999999 56.1  32.05 57.9  29.8499999999999 57.9  C 27.65 57.9  23.85 56.1  23.85 53.9  C 23.85 51.7  27.65 47.9  29.8499999999999 47.9  Z " fill-rule="nonzero" fill="#ffffff" stroke="none" fill-opacity="0" transform="matrix(1 0 0 1 651 12583 )" />
    <path d="M 29.8499999999999 47.9  C 32.05 47.9  33.8499999999999 51.7  33.8499999999999 53.9  C 33.8499999999999 56.1  32.05 57.9  29.8499999999999 57.9  C 27.65 57.9  23.85 56.1  23.85 53.9  C 23.85 51.7  27.65 47.9  29.8499999999999 47.9  Z " stroke-width="4" stroke="#c26383" fill="none" transform="matrix(1 0 0 1 651 12583 )" mask="url(#clip634)" />
    <path d="M 0.149999999999977 0.400000000000006  L 28.8499999999999 52.9  " stroke-width="2" stroke="#c26383" fill="none" transform="matrix(1 0 0 1 651 12583 )" mask="url(#clip634)" />
  </g>
</svg>