<svg xmlns="http://www.w3.org/2000/svg" xmlns:xlink="http://www.w3.org/1999/xlink" width="10" height="10" version="1.1"><defs><mask id="clip1941" fill="#fff"><path fill-rule="evenodd" d="M 0.420000000000016 9.39999999999964 C 0.420000000000016 9.39999999999964 5.22000000000003 0.399999999999636 5.22000000000003 0.399999999999636 C 5.22000000000003 0.399999999999636 9.01999999999998 9.39999999999964 9.01999999999998 9.39999999999964 C 9.01999999999998 9.39999999999964 0.420000000000016 9.39999999999964 0.420000000000016 9.39999999999964 Z"/></mask></defs><g><path fill="#fff" fill-opacity="0" fill-rule="nonzero" stroke="none" d="M 0.420000000000016 9.39999999999964 C 0.420000000000016 9.39999999999964 5.22000000000003 0.399999999999636 5.22000000000003 0.399999999999636 C 5.22000000000003 0.399999999999636 9.01999999999998 9.39999999999964 9.01999999999998 9.39999999999964 C 9.01999999999998 9.39999999999964 0.420000000000016 9.39999999999964 0.420000000000016 9.39999999999964 Z" transform="matrix(1 0 0 1 -510 -8103 ) matrix(1 0 0 1 510 8103 )"/><path fill="none" stroke="#fb9d53" stroke-width="2" d="M 0.420000000000016 9.39999999999964 C 0.420000000000016 9.39999999999964 5.22000000000003 0.399999999999636 5.22000000000003 0.399999999999636 C 5.22000000000003 0.399999999999636 9.01999999999998 9.39999999999964 9.01999999999998 9.39999999999964 C 9.01999999999998 9.39999999999964 0.420000000000016 9.39999999999964 0.420000000000016 9.39999999999964 Z" mask="url(#clip1941)" transform="matrix(1 0 0 1 -510 -8103 ) matrix(1 0 0 1 510 8103 )"/></g></svg>