<svg xmlns="http://www.w3.org/2000/svg" xmlns:xlink="http://www.w3.org/1999/xlink" width="9" height="9" version="1.1"><defs><mask id="clip1940" fill="#fff"><path fill-rule="evenodd" d="M 0.0200000000000387 9 C 0.0200000000000387 9 3.72000000000003 0 3.72000000000003 0 C 3.72000000000003 0 8.52000000000004 9 8.52000000000004 9 C 8.52000000000004 9 0.0200000000000387 9 0.0200000000000387 9 Z"/></mask></defs><g><path fill="#fff" fill-opacity="0" fill-rule="nonzero" stroke="none" d="M 0.0200000000000387 9 C 0.0200000000000387 9 3.72000000000003 0 3.72000000000003 0 C 3.72000000000003 0 8.52000000000004 9 8.52000000000004 9 C 8.52000000000004 9 0.0200000000000387 9 0.0200000000000387 9 Z" transform="matrix(1 0 0 1 -450 -8078 ) matrix(1 0 0 1 450 8078 )"/><path fill="none" stroke="#fb9d53" stroke-width="2" d="M 0.0200000000000387 9 C 0.0200000000000387 9 3.72000000000003 0 3.72000000000003 0 C 3.72000000000003 0 8.52000000000004 9 8.52000000000004 9 C 8.52000000000004 9 0.0200000000000387 9 0.0200000000000387 9 Z" mask="url(#clip1940)" transform="matrix(1 0 0 1 -450 -8078 ) matrix(1 0 0 1 450 8078 )"/></g></svg>