<svg xmlns="http://www.w3.org/2000/svg" xmlns:xlink="http://www.w3.org/1999/xlink" width="10" height="10" version="1.1"><defs><mask id="clip1943" fill="#fff"><path fill-rule="evenodd" d="M 0.920000000000073 9.10000000000036 C 0.920000000000073 9.10000000000036 4.62 0.100000000000364 4.62 0.100000000000364 C 4.62 0.100000000000364 9.42000000000007 9.10000000000036 9.42000000000007 9.10000000000036 C 9.42000000000007 9.10000000000036 0.920000000000073 9.10000000000036 0.920000000000073 9.10000000000036 Z"/></mask></defs><g><path fill="#fff" fill-opacity="0" fill-rule="nonzero" stroke="none" d="M 0.920000000000073 9.10000000000036 C 0.920000000000073 9.10000000000036 4.62 0.100000000000364 4.62 0.100000000000364 C 4.62 0.100000000000364 9.42000000000007 9.10000000000036 9.42000000000007 9.10000000000036 C 9.42000000000007 9.10000000000036 0.920000000000073 9.10000000000036 0.920000000000073 9.10000000000036 Z" transform="matrix(1 0 0 1 -691 -7989 ) matrix(1 0 0 1 691 7989 )"/><path fill="none" stroke="#fb9d53" stroke-width="2" d="M 0.920000000000073 9.10000000000036 C 0.920000000000073 9.10000000000036 4.62 0.100000000000364 4.62 0.100000000000364 C 4.62 0.100000000000364 9.42000000000007 9.10000000000036 9.42000000000007 9.10000000000036 C 9.42000000000007 9.10000000000036 0.920000000000073 9.10000000000036 0.920000000000073 9.10000000000036 Z" mask="url(#clip1943)" transform="matrix(1 0 0 1 -691 -7989 ) matrix(1 0 0 1 691 7989 )"/></g></svg>