<svg xmlns="http://www.w3.org/2000/svg" xmlns:xlink="http://www.w3.org/1999/xlink" width="9" height="10" version="1.1"><defs><mask id="clip1946" fill="#fff"><path fill-rule="evenodd" d="M 0.32000000000005 9.39999999999964 C 0.32000000000005 9.39999999999964 5.12 0.399999999999636 5.12 0.399999999999636 C 5.12 0.399999999999636 8.82000000000005 9.39999999999964 8.82000000000005 9.39999999999964 C 8.82000000000005 9.39999999999964 0.32000000000005 9.39999999999964 0.32000000000005 9.39999999999964 Z"/></mask></defs><g><path fill="#fff" fill-opacity="0" fill-rule="nonzero" stroke="none" d="M 0.32000000000005 9.39999999999964 C 0.32000000000005 9.39999999999964 5.12 0.399999999999636 5.12 0.399999999999636 C 5.12 0.399999999999636 8.82000000000005 9.39999999999964 8.82000000000005 9.39999999999964 C 8.82000000000005 9.39999999999964 0.32000000000005 9.39999999999964 0.32000000000005 9.39999999999964 Z" transform="matrix(1 0 0 1 -873 -8030 ) matrix(1 0 0 1 873 8030 )"/><path fill="none" stroke="#fb9d53" stroke-width="2" d="M 0.32000000000005 9.39999999999964 C 0.32000000000005 9.39999999999964 5.12 0.399999999999636 5.12 0.399999999999636 C 5.12 0.399999999999636 8.82000000000005 9.39999999999964 8.82000000000005 9.39999999999964 C 8.82000000000005 9.39999999999964 0.32000000000005 9.39999999999964 0.32000000000005 9.39999999999964 Z" mask="url(#clip1946)" transform="matrix(1 0 0 1 -873 -8030 ) matrix(1 0 0 1 873 8030 )"/></g></svg>