<svg xmlns="http://www.w3.org/2000/svg" xmlns:xlink="http://www.w3.org/1999/xlink" width="9" height="10" version="1.1"><defs><mask id="clip1942" fill="#fff"><path fill-rule="evenodd" d="M 0.420000000000073 9.30000000000018 C 0.420000000000073 9.30000000000018 5.22000000000003 0.300000000000182 5.22000000000003 0.300000000000182 C 5.22000000000003 0.300000000000182 8.92000000000007 9.30000000000018 8.92000000000007 9.30000000000018 C 8.92000000000007 9.30000000000018 0.420000000000073 9.30000000000018 0.420000000000073 9.30000000000018 Z"/></mask></defs><g><path fill="#fff" fill-opacity="0" fill-rule="nonzero" stroke="none" d="M 0.420000000000073 9.30000000000018 C 0.420000000000073 9.30000000000018 5.22000000000003 0.300000000000182 5.22000000000003 0.300000000000182 C 5.22000000000003 0.300000000000182 8.92000000000007 9.30000000000018 8.92000000000007 9.30000000000018 C 8.92000000000007 9.30000000000018 0.420000000000073 9.30000000000018 0.420000000000073 9.30000000000018 Z" transform="matrix(1 0 0 1 -631 -8046 ) matrix(1 0 0 1 631 8046 )"/><path fill="none" stroke="#fb9d53" stroke-width="2" d="M 0.420000000000073 9.30000000000018 C 0.420000000000073 9.30000000000018 5.22000000000003 0.300000000000182 5.22000000000003 0.300000000000182 C 5.22000000000003 0.300000000000182 8.92000000000007 9.30000000000018 8.92000000000007 9.30000000000018 C 8.92000000000007 9.30000000000018 0.420000000000073 9.30000000000018 0.420000000000073 9.30000000000018 Z" mask="url(#clip1942)" transform="matrix(1 0 0 1 -631 -8046 ) matrix(1 0 0 1 631 8046 )"/></g></svg>