<svg xmlns="http://www.w3.org/2000/svg" xmlns:xlink="http://www.w3.org/1999/xlink" width="83" height="71" version="1.1"><defs><mask id="clip1932" fill="#fff"><path fill-rule="evenodd" d="M 29.55 70.77 C 29.55 70.77 0.75 59.67 0.75 59.67 C 13.15 27.27 44.85 2.87 81.15 0.970000000000027 C 81.15 0.970000000000027 82.75 31.77 82.75 31.77 C 58.85 33.0700000000001 37.75 49.47 29.55 70.77 Z"/></mask></defs><g><path fill="#64c5c5" fill-rule="nonzero" stroke="none" d="M 29.55 70.77 C 29.55 70.77 0.75 59.67 0.75 59.67 C 13.15 27.27 44.85 2.87 81.15 0.970000000000027 C 81.15 0.970000000000027 82.75 31.77 82.75 31.77 C 58.85 33.0700000000001 37.75 49.47 29.55 70.77 Z" transform="matrix(1 0 0 1 -627 -7314 ) matrix(1 0 0 1 627 7314 )"/><path fill="none" stroke="#64c5c5" stroke-width="2" d="M 29.55 70.77 C 29.55 70.77 0.75 59.67 0.75 59.67 C 13.15 27.27 44.85 2.87 81.15 0.970000000000027 C 81.15 0.970000000000027 82.75 31.77 82.75 31.77 C 58.85 33.0700000000001 37.75 49.47 29.55 70.77 Z" mask="url(#clip1932)" transform="matrix(1 0 0 1 -627 -7314 ) matrix(1 0 0 1 627 7314 )"/></g></svg>