<svg xmlns="http://www.w3.org/2000/svg" xmlns:xlink="http://www.w3.org/1999/xlink" width="26" height="11" version="1.1"><defs><mask id="clip1972" fill="#fff"><path fill-rule="evenodd" d="M 8.08000000000004 9.48000000000002 C 8.08000000000004 9.48000000000002 8.08000000000004 0.880000000000109 8.08000000000004 0.880000000000109 C 8.08000000000004 0.880000000000109 16.6800000000001 0.880000000000109 16.6800000000001 0.880000000000109 C 16.6800000000001 0.880000000000109 16.6800000000001 9.48000000000002 16.6800000000001 9.48000000000002 C 16.6800000000001 9.48000000000002 8.08000000000004 9.48000000000002 8.08000000000004 9.48000000000002 Z"/></mask></defs><g><path fill="#fff" fill-opacity="0" fill-rule="nonzero" stroke="none" d="M 8.08000000000004 9.48000000000002 C 8.08000000000004 9.48000000000002 8.08000000000004 0.880000000000109 8.08000000000004 0.880000000000109 C 8.08000000000004 0.880000000000109 16.6800000000001 0.880000000000109 16.6800000000001 0.880000000000109 C 16.6800000000001 0.880000000000109 16.6800000000001 9.48000000000002 16.6800000000001 9.48000000000002 C 16.6800000000001 9.48000000000002 8.08000000000004 9.48000000000002 8.08000000000004 9.48000000000002 Z" transform="matrix(1 0 0 1 -680 -8291 ) matrix(1 0 0 1 680 8291 )"/><path fill="none" stroke="#fc5c57" stroke-width="2" d="M 8.08000000000004 9.48000000000002 C 8.08000000000004 9.48000000000002 8.08000000000004 0.880000000000109 8.08000000000004 0.880000000000109 C 8.08000000000004 0.880000000000109 16.6800000000001 0.880000000000109 16.6800000000001 0.880000000000109 C 16.6800000000001 0.880000000000109 16.6800000000001 9.48000000000002 16.6800000000001 9.48000000000002 C 16.6800000000001 9.48000000000002 8.08000000000004 9.48000000000002 8.08000000000004 9.48000000000002 Z" mask="url(#clip1972)" transform="matrix(1 0 0 1 -680 -8291 ) matrix(1 0 0 1 680 8291 )"/><path fill="none" stroke="#fc5c57" stroke-width="1" d="M 0.0800000000000409 5.18000000000006 L 24.6800000000001 5.18000000000006" mask="url(#clip1972)" transform="matrix(1 0 0 1 -680 -8291 ) matrix(1 0 0 1 680 8291 )"/></g></svg>