<svg xmlns="http://www.w3.org/2000/svg" xmlns:xlink="http://www.w3.org/1999/xlink" width="10" height="10" version="1.1"><defs><mask id="clip1957" fill="#fff"><path fill-rule="evenodd" d="M 0.420000000000016 9.80000000000018 C 0.420000000000016 9.80000000000018 0.420000000000016 0.800000000000182 0.420000000000016 0.800000000000182 C 0.420000000000016 0.800000000000182 9.01999999999998 0.800000000000182 9.01999999999998 0.800000000000182 C 9.01999999999998 0.800000000000182 9.01999999999998 9.80000000000018 9.01999999999998 9.80000000000018 C 9.01999999999998 9.80000000000018 0.420000000000016 9.80000000000018 0.420000000000016 9.80000000000018 Z"/></mask></defs><g><path fill="#fff" fill-opacity="0" fill-rule="nonzero" stroke="none" d="M 0.420000000000016 9.80000000000018 C 0.420000000000016 9.80000000000018 0.420000000000016 0.800000000000182 0.420000000000016 0.800000000000182 C 0.420000000000016 0.800000000000182 9.01999999999998 0.800000000000182 9.01999999999998 0.800000000000182 C 9.01999999999998 0.800000000000182 9.01999999999998 9.80000000000018 9.01999999999998 9.80000000000018 C 9.01999999999998 9.80000000000018 0.420000000000016 9.80000000000018 0.420000000000016 9.80000000000018 Z" transform="matrix(1 0 0 1 -510 -8055 ) matrix(1 0 0 1 510 8055 )"/><path fill="none" stroke="#fc5c57" stroke-width="2" d="M 0.420000000000016 9.80000000000018 C 0.420000000000016 9.80000000000018 0.420000000000016 0.800000000000182 0.420000000000016 0.800000000000182 C 0.420000000000016 0.800000000000182 9.01999999999998 0.800000000000182 9.01999999999998 0.800000000000182 C 9.01999999999998 0.800000000000182 9.01999999999998 9.80000000000018 9.01999999999998 9.80000000000018 C 9.01999999999998 9.80000000000018 0.420000000000016 9.80000000000018 0.420000000000016 9.80000000000018 Z" mask="url(#clip1957)" transform="matrix(1 0 0 1 -510 -8055 ) matrix(1 0 0 1 510 8055 )"/></g></svg>