<?xml version="1.0" encoding="utf-8"?>
<svg version="1.1" xmlns:xlink="http://www.w3.org/1999/xlink" width="10px" height="9px" xmlns="http://www.w3.org/2000/svg">
  <defs>
    <mask fill="white" id="clip1950">
      <path d="M 0.520000000000039 9  C 0.520000000000039 9  0.520000000000039 0  0.520000000000039 0  C 0.520000000000039 0  9.12 0  9.12 0  C 9.12 0  9.12 9  9.12 9  C 9.12 9  0.520000000000039 9  0.520000000000039 9  Z " fill-rule="evenodd" />
    </mask>
  </defs>
  <g transform="matrix(1 0 0 1 -389 -8167 )">
    <path d="M 0.520000000000039 9  C 0.520000000000039 9  0.520000000000039 0  0.520000000000039 0  C 0.520000000000039 0  9.12 0  9.12 0  C 9.12 0  9.12 9  9.12 9  C 9.12 9  0.520000000000039 9  0.520000000000039 9  Z " fill-rule="nonzero" fill="#ffffff" stroke="none" fill-opacity="0" transform="matrix(1 0 0 1 389 8167 )" />
    <path d="M 0.520000000000039 9  C 0.520000000000039 9  0.520000000000039 0  0.520000000000039 0  C 0.520000000000039 0  9.12 0  9.12 0  C 9.12 0  9.12 9  9.12 9  C 9.12 9  0.520000000000039 9  0.520000000000039 9  Z " stroke-width="2" stroke="#fc5c57" fill="none" transform="matrix(1 0 0 1 389 8167 )" mask="url(#clip1950)" />
  </g>
</svg>