<svg xmlns="http://www.w3.org/2000/svg" xmlns:xlink="http://www.w3.org/1999/xlink" width="10" height="10" version="1.1"><defs><mask id="clip1960" fill="#fff"><path fill-rule="evenodd" d="M 0.920000000000073 9.30000000000018 C 0.920000000000073 9.30000000000018 0.920000000000073 0.300000000000182 0.920000000000073 0.300000000000182 C 0.920000000000073 0.300000000000182 9.51999999999998 0.300000000000182 9.51999999999998 0.300000000000182 C 9.51999999999998 0.300000000000182 9.51999999999998 9.30000000000018 9.51999999999998 9.30000000000018 C 9.51999999999998 9.30000000000018 0.920000000000073 9.30000000000018 0.920000000000073 9.30000000000018 Z"/></mask></defs><g><path fill="#fff" fill-opacity="0" fill-rule="nonzero" stroke="none" d="M 0.920000000000073 9.30000000000018 C 0.920000000000073 9.30000000000018 0.920000000000073 0.300000000000182 0.920000000000073 0.300000000000182 C 0.920000000000073 0.300000000000182 9.51999999999998 0.300000000000182 9.51999999999998 0.300000000000182 C 9.51999999999998 0.300000000000182 9.51999999999998 9.30000000000018 9.51999999999998 9.30000000000018 C 9.51999999999998 9.30000000000018 0.920000000000073 9.30000000000018 0.920000000000073 9.30000000000018 Z" transform="matrix(1 0 0 1 -570 -8011 ) matrix(1 0 0 1 570 8011 )"/><path fill="none" stroke="#fc5c57" stroke-width="2" d="M 0.920000000000073 9.30000000000018 C 0.920000000000073 9.30000000000018 0.920000000000073 0.300000000000182 0.920000000000073 0.300000000000182 C 0.920000000000073 0.300000000000182 9.51999999999998 0.300000000000182 9.51999999999998 0.300000000000182 C 9.51999999999998 0.300000000000182 9.51999999999998 9.30000000000018 9.51999999999998 9.30000000000018 C 9.51999999999998 9.30000000000018 0.920000000000073 9.30000000000018 0.920000000000073 9.30000000000018 Z" mask="url(#clip1960)" transform="matrix(1 0 0 1 -570 -8011 ) matrix(1 0 0 1 570 8011 )"/></g></svg>