<?xml version="1.0" encoding="utf-8"?>
<svg version="1.1" xmlns:xlink="http://www.w3.org/1999/xlink" width="52px" height="14px" xmlns="http://www.w3.org/2000/svg">
  <defs>
    <mask fill="white" id="clip647">
      <path d="M 6.73000000000002 0.699999999999989  C 8.93000000000006 0.699999999999989  10.73 4.39999999999998  10.73 6.69999999999999  C 10.73 8.89999999999998  8.93000000000006 10.7  6.73000000000002 10.7  C 4.53000000000009 10.7  0.730000000000018 8.89999999999998  0.730000000000018 6.69999999999999  C 0.730000000000018 4.39999999999998  4.53000000000009 0.699999999999989  6.73000000000002 0.699999999999989  Z " fill-rule="evenodd" />
    </mask>
  </defs>
  <g transform="matrix(1 0 0 1 -959 -12701 )">
    <path d="M 6.73000000000002 0.699999999999989  C 8.93000000000006 0.699999999999989  10.73 4.39999999999998  10.73 6.69999999999999  C 10.73 8.89999999999998  8.93000000000006 10.7  6.73000000000002 10.7  C 4.53000000000009 10.7  0.730000000000018 8.89999999999998  0.730000000000018 6.69999999999999  C 0.730000000000018 4.39999999999998  4.53000000000009 0.699999999999989  6.73000000000002 0.699999999999989  Z " fill-rule="nonzero" fill="#ffffff" stroke="none" fill-opacity="0" transform="matrix(1 0 0 1 960 12702 )" />
    <path d="M 6.73000000000002 0.699999999999989  C 8.93000000000006 0.699999999999989  10.73 4.39999999999998  10.73 6.69999999999999  C 10.73 8.89999999999998  8.93000000000006 10.7  6.73000000000002 10.7  C 4.53000000000009 10.7  0.730000000000018 8.89999999999998  0.730000000000018 6.69999999999999  C 0.730000000000018 4.39999999999998  4.53000000000009 0.699999999999989  6.73000000000002 0.699999999999989  Z " stroke-width="4" stroke="#2d85c1" fill="none" transform="matrix(1 0 0 1 960 12702 )" mask="url(#clip647)" />
    <path d="M 48.83 3.19999999999999  L 5.73000000000002 5.69999999999999  " stroke-width="2" stroke="#2d85c1" fill="none" transform="matrix(1 0 0 1 960 12702 )" mask="url(#clip647)" />
  </g>
</svg>