<svg xmlns="http://www.w3.org/2000/svg" xmlns:xlink="http://www.w3.org/1999/xlink" width="9" height="10" version="1.1"><defs><mask id="clip1966" fill="#fff"><path fill-rule="evenodd" d="M 0.32000000000005 9.39999999999964 C 0.32000000000005 9.39999999999964 0.32000000000005 0.399999999999636 0.32000000000005 0.399999999999636 C 0.32000000000005 0.399999999999636 8.92000000000007 0.399999999999636 8.92000000000007 0.399999999999636 C 8.92000000000007 0.399999999999636 8.92000000000007 9.39999999999964 8.92000000000007 9.39999999999964 C 8.92000000000007 9.39999999999964 0.32000000000005 9.39999999999964 0.32000000000005 9.39999999999964 Z"/></mask></defs><g><path fill="#fff" fill-opacity="0" fill-rule="nonzero" stroke="none" d="M 0.32000000000005 9.39999999999964 C 0.32000000000005 9.39999999999964 0.32000000000005 0.399999999999636 0.32000000000005 0.399999999999636 C 0.32000000000005 0.399999999999636 8.92000000000007 0.399999999999636 8.92000000000007 0.399999999999636 C 8.92000000000007 0.399999999999636 8.92000000000007 9.39999999999964 8.92000000000007 9.39999999999964 C 8.92000000000007 9.39999999999964 0.32000000000005 9.39999999999964 0.32000000000005 9.39999999999964 Z" transform="matrix(1 0 0 1 -752 -7957 ) matrix(1 0 0 1 752 7957 )"/><path fill="none" stroke="#fc5c57" stroke-width="2" d="M 0.32000000000005 9.39999999999964 C 0.32000000000005 9.39999999999964 0.32000000000005 0.399999999999636 0.32000000000005 0.399999999999636 C 0.32000000000005 0.399999999999636 8.92000000000007 0.399999999999636 8.92000000000007 0.399999999999636 C 8.92000000000007 0.399999999999636 8.92000000000007 9.39999999999964 8.92000000000007 9.39999999999964 C 8.92000000000007 9.39999999999964 0.32000000000005 9.39999999999964 0.32000000000005 9.39999999999964 Z" mask="url(#clip1966)" transform="matrix(1 0 0 1 -752 -7957 ) matrix(1 0 0 1 752 7957 )"/></g></svg>