<svg xmlns="http://www.w3.org/2000/svg" xmlns:xlink="http://www.w3.org/1999/xlink" width="10" height="9" version="1.1"><defs><mask id="clip1969" fill="#fff"><path fill-rule="evenodd" d="M 0.720000000000027 9 C 0.720000000000027 9 0.720000000000027 0 0.720000000000027 0 C 0.720000000000027 0 9.32000000000005 0 9.32000000000005 0 C 9.32000000000005 0 9.32000000000005 9 9.32000000000005 9 C 9.32000000000005 9 0.720000000000027 9 0.720000000000027 9 Z"/></mask></defs><g><path fill="#fff" fill-opacity="0" fill-rule="nonzero" stroke="none" d="M 0.720000000000027 9 C 0.720000000000027 9 0.720000000000027 0 0.720000000000027 0 C 0.720000000000027 0 9.32000000000005 0 9.32000000000005 0 C 9.32000000000005 0 9.32000000000005 9 9.32000000000005 9 C 9.32000000000005 9 0.720000000000027 9 0.720000000000027 9 Z" transform="matrix(1 0 0 1 -933 -7932 ) matrix(1 0 0 1 933 7932 )"/><path fill="none" stroke="#fc5c57" stroke-width="2" d="M 0.720000000000027 9 C 0.720000000000027 9 0.720000000000027 0 0.720000000000027 0 C 0.720000000000027 0 9.32000000000005 0 9.32000000000005 0 C 9.32000000000005 0 9.32000000000005 9 9.32000000000005 9 C 9.32000000000005 9 0.720000000000027 9 0.720000000000027 9 Z" mask="url(#clip1969)" transform="matrix(1 0 0 1 -933 -7932 ) matrix(1 0 0 1 933 7932 )"/></g></svg>