<svg xmlns="http://www.w3.org/2000/svg" xmlns:xlink="http://www.w3.org/1999/xlink" width="10" height="9" version="1.1"><defs><mask id="clip1950" fill="#fff"><path fill-rule="evenodd" d="M 0.520000000000039 9 C 0.520000000000039 9 0.520000000000039 0 0.520000000000039 0 C 0.520000000000039 0 9.12 0 9.12 0 C 9.12 0 9.12 9 9.12 9 C 9.12 9 0.520000000000039 9 0.520000000000039 9 Z"/></mask></defs><g><path fill="#fff" fill-opacity="0" fill-rule="nonzero" stroke="none" d="M 0.520000000000039 9 C 0.520000000000039 9 0.520000000000039 0 0.520000000000039 0 C 0.520000000000039 0 9.12 0 9.12 0 C 9.12 0 9.12 9 9.12 9 C 9.12 9 0.520000000000039 9 0.520000000000039 9 Z" transform="matrix(1 0 0 1 -389 -8167 ) matrix(1 0 0 1 389 8167 )"/><path fill="none" stroke="#fc5c57" stroke-width="2" d="M 0.520000000000039 9 C 0.520000000000039 9 0.520000000000039 0 0.520000000000039 0 C 0.520000000000039 0 9.12 0 9.12 0 C 9.12 0 9.12 9 9.12 9 C 9.12 9 0.520000000000039 9 0.520000000000039 9 Z" mask="url(#clip1950)" transform="matrix(1 0 0 1 -389 -8167 ) matrix(1 0 0 1 389 8167 )"/></g></svg>