<svg xmlns="http://www.w3.org/2000/svg" xmlns:xlink="http://www.w3.org/1999/xlink" width="9" height="10" version="1.1"><defs><mask id="clip1964" fill="#fff"><path fill-rule="evenodd" d="M 0.420000000000073 9.60000000000036 C 0.420000000000073 9.60000000000036 0.420000000000073 0.600000000000364 0.420000000000073 0.600000000000364 C 0.420000000000073 0.600000000000364 8.92000000000007 0.600000000000364 8.92000000000007 0.600000000000364 C 8.92000000000007 0.600000000000364 8.92000000000007 9.60000000000036 8.92000000000007 9.60000000000036 C 8.92000000000007 9.60000000000036 0.420000000000073 9.60000000000036 0.420000000000073 9.60000000000036 Z"/></mask></defs><g><path fill="#fff" fill-opacity="0" fill-rule="nonzero" stroke="none" d="M 0.420000000000073 9.60000000000036 C 0.420000000000073 9.60000000000036 0.420000000000073 0.600000000000364 0.420000000000073 0.600000000000364 C 0.420000000000073 0.600000000000364 8.92000000000007 0.600000000000364 8.92000000000007 0.600000000000364 C 8.92000000000007 0.600000000000364 8.92000000000007 9.60000000000036 8.92000000000007 9.60000000000036 C 8.92000000000007 9.60000000000036 0.420000000000073 9.60000000000036 0.420000000000073 9.60000000000036 Z" transform="matrix(1 0 0 1 -631 -7998 ) matrix(1 0 0 1 631 7998 )"/><path fill="none" stroke="#fc5c57" stroke-width="2" d="M 0.420000000000073 9.60000000000036 C 0.420000000000073 9.60000000000036 0.420000000000073 0.600000000000364 0.420000000000073 0.600000000000364 C 0.420000000000073 0.600000000000364 8.92000000000007 0.600000000000364 8.92000000000007 0.600000000000364 C 8.92000000000007 0.600000000000364 8.92000000000007 9.60000000000036 8.92000000000007 9.60000000000036 C 8.92000000000007 9.60000000000036 0.420000000000073 9.60000000000036 0.420000000000073 9.60000000000036 Z" mask="url(#clip1964)" transform="matrix(1 0 0 1 -631 -7998 ) matrix(1 0 0 1 631 7998 )"/></g></svg>