<svg xmlns="http://www.w3.org/2000/svg" xmlns:xlink="http://www.w3.org/1999/xlink" width="9" height="10" version="1.1"><defs><mask id="clip1951" fill="#fff"><path fill-rule="evenodd" d="M 0.0200000000000387 9.89999999999964 C 0.0200000000000387 9.89999999999964 0.0200000000000387 0.899999999999636 0.0200000000000387 0.899999999999636 C 0.0200000000000387 0.899999999999636 8.52000000000004 0.899999999999636 8.52000000000004 0.899999999999636 C 8.52000000000004 0.899999999999636 8.52000000000004 9.89999999999964 8.52000000000004 9.89999999999964 C 8.52000000000004 9.89999999999964 0.0200000000000387 9.89999999999964 0.0200000000000387 9.89999999999964 Z"/></mask></defs><g><path fill="#fff" fill-opacity="0" fill-rule="nonzero" stroke="none" d="M 0.0200000000000387 9.89999999999964 C 0.0200000000000387 9.89999999999964 0.0200000000000387 0.899999999999636 0.0200000000000387 0.899999999999636 C 0.0200000000000387 0.899999999999636 8.52000000000004 0.899999999999636 8.52000000000004 0.899999999999636 C 8.52000000000004 0.899999999999636 8.52000000000004 9.89999999999964 8.52000000000004 9.89999999999964 C 8.52000000000004 9.89999999999964 0.0200000000000387 9.89999999999964 0.0200000000000387 9.89999999999964 Z" transform="matrix(1 0 0 1 -450 -8147 ) matrix(1 0 0 1 450 8147 )"/><path fill="none" stroke="#fc5c57" stroke-width="2" d="M 0.0200000000000387 9.89999999999964 C 0.0200000000000387 9.89999999999964 0.0200000000000387 0.899999999999636 0.0200000000000387 0.899999999999636 C 0.0200000000000387 0.899999999999636 8.52000000000004 0.899999999999636 8.52000000000004 0.899999999999636 C 8.52000000000004 0.899999999999636 8.52000000000004 9.89999999999964 8.52000000000004 9.89999999999964 C 8.52000000000004 9.89999999999964 0.0200000000000387 9.89999999999964 0.0200000000000387 9.89999999999964 Z" mask="url(#clip1951)" transform="matrix(1 0 0 1 -450 -8147 ) matrix(1 0 0 1 450 8147 )"/></g></svg>