<?xml version="1.0" encoding="utf-8"?>
<svg version="1.1" xmlns:xlink="http://www.w3.org/1999/xlink" width="10px" height="10px" xmlns="http://www.w3.org/2000/svg">
  <defs>
    <mask fill="white" id="clip1960">
      <path d="M 0.920000000000073 9.30000000000018  C 0.920000000000073 9.30000000000018  0.920000000000073 0.300000000000182  0.920000000000073 0.300000000000182  C 0.920000000000073 0.300000000000182  9.51999999999998 0.300000000000182  9.51999999999998 0.300000000000182  C 9.51999999999998 0.300000000000182  9.51999999999998 9.30000000000018  9.51999999999998 9.30000000000018  C 9.51999999999998 9.30000000000018  0.920000000000073 9.30000000000018  0.920000000000073 9.30000000000018  Z " fill-rule="evenodd" />
    </mask>
  </defs>
  <g transform="matrix(1 0 0 1 -570 -8011 )">
    <path d="M 0.920000000000073 9.30000000000018  C 0.920000000000073 9.30000000000018  0.920000000000073 0.300000000000182  0.920000000000073 0.300000000000182  C 0.920000000000073 0.300000000000182  9.51999999999998 0.300000000000182  9.51999999999998 0.300000000000182  C 9.51999999999998 0.300000000000182  9.51999999999998 9.30000000000018  9.51999999999998 9.30000000000018  C 9.51999999999998 9.30000000000018  0.920000000000073 9.30000000000018  0.920000000000073 9.30000000000018  Z " fill-rule="nonzero" fill="#ffffff" stroke="none" fill-opacity="0" transform="matrix(1 0 0 1 570 8011 )" />
    <path d="M 0.920000000000073 9.30000000000018  C 0.920000000000073 9.30000000000018  0.920000000000073 0.300000000000182  0.920000000000073 0.300000000000182  C 0.920000000000073 0.300000000000182  9.51999999999998 0.300000000000182  9.51999999999998 0.300000000000182  C 9.51999999999998 0.300000000000182  9.51999999999998 9.30000000000018  9.51999999999998 9.30000000000018  C 9.51999999999998 9.30000000000018  0.920000000000073 9.30000000000018  0.920000000000073 9.30000000000018  Z " stroke-width="2" stroke="#fc5c57" fill="none" transform="matrix(1 0 0 1 570 8011 )" mask="url(#clip1960)" />
  </g>
</svg>