<svg xmlns="http://www.w3.org/2000/svg" xmlns:xlink="http://www.w3.org/1999/xlink" width="10" height="10" version="1.1"><defs><mask id="clip1965" fill="#fff"><path fill-rule="evenodd" d="M 0.920000000000073 9.69999999999982 C 0.920000000000073 9.69999999999982 0.920000000000073 0.699999999999818 0.920000000000073 0.699999999999818 C 0.920000000000073 0.699999999999818 9.42000000000007 0.699999999999818 9.42000000000007 0.699999999999818 C 9.42000000000007 0.699999999999818 9.42000000000007 9.69999999999982 9.42000000000007 9.69999999999982 C 9.42000000000007 9.69999999999982 0.920000000000073 9.69999999999982 0.920000000000073 9.69999999999982 Z"/></mask></defs><g><path fill="#fff" fill-opacity="0" fill-rule="nonzero" stroke="none" d="M 0.920000000000073 9.69999999999982 C 0.920000000000073 9.69999999999982 0.920000000000073 0.699999999999818 0.920000000000073 0.699999999999818 C 0.920000000000073 0.699999999999818 9.42000000000007 0.699999999999818 9.42000000000007 0.699999999999818 C 9.42000000000007 0.699999999999818 9.42000000000007 9.69999999999982 9.42000000000007 9.69999999999982 C 9.42000000000007 9.69999999999982 0.920000000000073 9.69999999999982 0.920000000000073 9.69999999999982 Z" transform="matrix(1 0 0 1 -691 -7963 ) matrix(1 0 0 1 691 7963 )"/><path fill="none" stroke="#fc5c57" stroke-width="2" d="M 0.920000000000073 9.69999999999982 C 0.920000000000073 9.69999999999982 0.920000000000073 0.699999999999818 0.920000000000073 0.699999999999818 C 0.920000000000073 0.699999999999818 9.42000000000007 0.699999999999818 9.42000000000007 0.699999999999818 C 9.42000000000007 0.699999999999818 9.42000000000007 9.69999999999982 9.42000000000007 9.69999999999982 C 9.42000000000007 9.69999999999982 0.920000000000073 9.69999999999982 0.920000000000073 9.69999999999982 Z" mask="url(#clip1965)" transform="matrix(1 0 0 1 -691 -7963 ) matrix(1 0 0 1 691 7963 )"/></g></svg>