<?xml version="1.0" encoding="utf-8"?>
<svg version="1.1" xmlns:xlink="http://www.w3.org/1999/xlink" width="9px" height="10px" xmlns="http://www.w3.org/2000/svg">
  <defs>
    <mask fill="white" id="clip1949">
      <path d="M 0.0200000000000102 9.89999999999998  C 0.0200000000000102 9.89999999999998  0.0200000000000102 0.899999999999977  0.0200000000000102 0.899999999999977  C 0.0200000000000102 0.899999999999977  8.62000000000003 0.899999999999977  8.62000000000003 0.899999999999977  C 8.62000000000003 0.899999999999977  8.62000000000003 9.89999999999998  8.62000000000003 9.89999999999998  C 8.62000000000003 9.89999999999998  0.0200000000000102 9.89999999999998  0.0200000000000102 9.89999999999998  Z " fill-rule="evenodd" />
    </mask>
  </defs>
  <g transform="matrix(1 0 0 1 -329 -8128 )">
    <path d="M 0.0200000000000102 9.89999999999998  C 0.0200000000000102 9.89999999999998  0.0200000000000102 0.899999999999977  0.0200000000000102 0.899999999999977  C 0.0200000000000102 0.899999999999977  8.62000000000003 0.899999999999977  8.62000000000003 0.899999999999977  C 8.62000000000003 0.899999999999977  8.62000000000003 9.89999999999998  8.62000000000003 9.89999999999998  C 8.62000000000003 9.89999999999998  0.0200000000000102 9.89999999999998  0.0200000000000102 9.89999999999998  Z " fill-rule="nonzero" fill="#fc5c57" stroke="none" transform="matrix(1 0 0 1 329 8128 )" />
    <path d="M 0.0200000000000102 9.89999999999998  C 0.0200000000000102 9.89999999999998  0.0200000000000102 0.899999999999977  0.0200000000000102 0.899999999999977  C 0.0200000000000102 0.899999999999977  8.62000000000003 0.899999999999977  8.62000000000003 0.899999999999977  C 8.62000000000003 0.899999999999977  8.62000000000003 9.89999999999998  8.62000000000003 9.89999999999998  C 8.62000000000003 9.89999999999998  0.0200000000000102 9.89999999999998  0.0200000000000102 9.89999999999998  Z " stroke-width="2" stroke="#fc5c57" fill="none" transform="matrix(1 0 0 1 329 8128 )" mask="url(#clip1949)" />
  </g>
</svg>