<svg xmlns="http://www.w3.org/2000/svg" xmlns:xlink="http://www.w3.org/1999/xlink" width="9" height="10" version="1.1"><defs><mask id="clip1949" fill="#fff"><path fill-rule="evenodd" d="M 0.0200000000000102 9.89999999999998 C 0.0200000000000102 9.89999999999998 0.0200000000000102 0.899999999999977 0.0200000000000102 0.899999999999977 C 0.0200000000000102 0.899999999999977 8.62000000000003 0.899999999999977 8.62000000000003 0.899999999999977 C 8.62000000000003 0.899999999999977 8.62000000000003 9.89999999999998 8.62000000000003 9.89999999999998 C 8.62000000000003 9.89999999999998 0.0200000000000102 9.89999999999998 0.0200000000000102 9.89999999999998 Z"/></mask></defs><g><path fill="#fc5c57" fill-rule="nonzero" stroke="none" d="M 0.0200000000000102 9.89999999999998 C 0.0200000000000102 9.89999999999998 0.0200000000000102 0.899999999999977 0.0200000000000102 0.899999999999977 C 0.0200000000000102 0.899999999999977 8.62000000000003 0.899999999999977 8.62000000000003 0.899999999999977 C 8.62000000000003 0.899999999999977 8.62000000000003 9.89999999999998 8.62000000000003 9.89999999999998 C 8.62000000000003 9.89999999999998 0.0200000000000102 9.89999999999998 0.0200000000000102 9.89999999999998 Z" transform="matrix(1 0 0 1 -329 -8128 ) matrix(1 0 0 1 329 8128 )"/><path fill="none" stroke="#fc5c57" stroke-width="2" d="M 0.0200000000000102 9.89999999999998 C 0.0200000000000102 9.89999999999998 0.0200000000000102 0.899999999999977 0.0200000000000102 0.899999999999977 C 0.0200000000000102 0.899999999999977 8.62000000000003 0.899999999999977 8.62000000000003 0.899999999999977 C 8.62000000000003 0.899999999999977 8.62000000000003 9.89999999999998 8.62000000000003 9.89999999999998 C 8.62000000000003 9.89999999999998 0.0200000000000102 9.89999999999998 0.0200000000000102 9.89999999999998 Z" mask="url(#clip1949)" transform="matrix(1 0 0 1 -329 -8128 ) matrix(1 0 0 1 329 8128 )"/></g></svg>