<svg xmlns="http://www.w3.org/2000/svg" xmlns:xlink="http://www.w3.org/1999/xlink" width="27" height="11" version="1.1"><defs><mask id="clip1971" fill="#fff"><path fill-rule="evenodd" d="M 8.50999999999999 9.48000000000002 C 8.50999999999999 9.48000000000002 13.3099999999999 0.880000000000109 13.3099999999999 0.880000000000109 C 13.3099999999999 0.880000000000109 17.11 9.48000000000002 17.11 9.48000000000002 C 17.11 9.48000000000002 8.50999999999999 9.48000000000002 8.50999999999999 9.48000000000002 Z"/></mask></defs><g><path fill="#fff" fill-opacity="0" fill-rule="nonzero" stroke="none" d="M 8.50999999999999 9.48000000000002 C 8.50999999999999 9.48000000000002 13.3099999999999 0.880000000000109 13.3099999999999 0.880000000000109 C 13.3099999999999 0.880000000000109 17.11 9.48000000000002 17.11 9.48000000000002 C 17.11 9.48000000000002 8.50999999999999 9.48000000000002 8.50999999999999 9.48000000000002 Z" transform="matrix(1 0 0 1 -585 -8291 ) matrix(1 0 0 1 585 8291 )"/><path fill="none" stroke="#fb9d53" stroke-width="2" d="M 8.50999999999999 9.48000000000002 C 8.50999999999999 9.48000000000002 13.3099999999999 0.880000000000109 13.3099999999999 0.880000000000109 C 13.3099999999999 0.880000000000109 17.11 9.48000000000002 17.11 9.48000000000002 C 17.11 9.48000000000002 8.50999999999999 9.48000000000002 8.50999999999999 9.48000000000002 Z" mask="url(#clip1971)" transform="matrix(1 0 0 1 -585 -8291 ) matrix(1 0 0 1 585 8291 )"/><path fill="none" stroke="#fb9d53" stroke-width="1" d="M 0.509999999999991 5.18000000000006 L 25.11 5.18000000000006" mask="url(#clip1971)" transform="matrix(1 0 0 1 -585 -8291 ) matrix(1 0 0 1 585 8291 )"/></g></svg>