<svg xmlns="http://www.w3.org/2000/svg" xmlns:xlink="http://www.w3.org/1999/xlink" width="9" height="10" version="1.1"><defs><mask id="clip1970" fill="#fff"><path fill-rule="evenodd" d="M 0.220000000000027 9.80000000000018 C 0.220000000000027 9.80000000000018 0.220000000000027 0.800000000000182 0.220000000000027 0.800000000000182 C 0.220000000000027 0.800000000000182 8.82000000000005 0.800000000000182 8.82000000000005 0.800000000000182 C 8.82000000000005 0.800000000000182 8.82000000000005 9.80000000000018 8.82000000000005 9.80000000000018 C 8.82000000000005 9.80000000000018 0.220000000000027 9.80000000000018 0.220000000000027 9.80000000000018 Z"/></mask></defs><g><path fill="#fff" fill-opacity="0" fill-rule="nonzero" stroke="none" d="M 0.220000000000027 9.80000000000018 C 0.220000000000027 9.80000000000018 0.220000000000027 0.800000000000182 0.220000000000027 0.800000000000182 C 0.220000000000027 0.800000000000182 8.82000000000005 0.800000000000182 8.82000000000005 0.800000000000182 C 8.82000000000005 0.800000000000182 8.82000000000005 9.80000000000018 8.82000000000005 9.80000000000018 C 8.82000000000005 9.80000000000018 0.220000000000027 9.80000000000018 0.220000000000027 9.80000000000018 Z" transform="matrix(1 0 0 1 -994 -7928 ) matrix(1 0 0 1 994 7928 )"/><path fill="none" stroke="#fc5c57" stroke-width="2" d="M 0.220000000000027 9.80000000000018 C 0.220000000000027 9.80000000000018 0.220000000000027 0.800000000000182 0.220000000000027 0.800000000000182 C 0.220000000000027 0.800000000000182 8.82000000000005 0.800000000000182 8.82000000000005 0.800000000000182 C 8.82000000000005 0.800000000000182 8.82000000000005 9.80000000000018 8.82000000000005 9.80000000000018 C 8.82000000000005 9.80000000000018 0.220000000000027 9.80000000000018 0.220000000000027 9.80000000000018 Z" mask="url(#clip1970)" transform="matrix(1 0 0 1 -994 -7928 ) matrix(1 0 0 1 994 7928 )"/></g></svg>