<svg xmlns="http://www.w3.org/2000/svg" xmlns:xlink="http://www.w3.org/1999/xlink" width="13" height="14" version="1.1"><defs><mask id="clip1979" fill="#fff"><path fill-rule="evenodd" d="M 0 7.69000000000051 C 0 7.69000000000051 5.60000000000002 0.690000000000509 5.60000000000002 0.690000000000509 C 5.60000000000002 0.690000000000509 12.3 7.69000000000051 12.3 7.69000000000051 C 12.3 7.69000000000051 5.60000000000002 13.6900000000005 5.60000000000002 13.6900000000005 C 5.60000000000002 13.6900000000005 0 7.69000000000051 0 7.69000000000051 Z"/></mask></defs><g><path fill="#fff" fill-opacity="0" fill-rule="nonzero" stroke="none" d="M 0 7.69000000000051 C 0 7.69000000000051 5.60000000000002 0.690000000000509 5.60000000000002 0.690000000000509 C 5.60000000000002 0.690000000000509 12.3 7.69000000000051 12.3 7.69000000000051 C 12.3 7.69000000000051 5.60000000000002 13.6900000000005 5.60000000000002 13.6900000000005 C 5.60000000000002 13.6900000000005 0 7.69000000000051 0 7.69000000000051 Z" transform="matrix(1 0 0 1 -635 -9085 ) matrix(1 0 0 1 635 9085 )"/><path fill="none" stroke="#d4cdc7" stroke-width="2" d="M 0 7.69000000000051 C 0 7.69000000000051 5.60000000000002 0.690000000000509 5.60000000000002 0.690000000000509 C 5.60000000000002 0.690000000000509 12.3 7.69000000000051 12.3 7.69000000000051 C 12.3 7.69000000000051 5.60000000000002 13.6900000000005 5.60000000000002 13.6900000000005 C 5.60000000000002 13.6900000000005 0 7.69000000000051 0 7.69000000000051 Z" mask="url(#clip1979)" transform="matrix(1 0 0 1 -635 -9085 ) matrix(1 0 0 1 635 9085 )"/></g></svg>