<svg xmlns="http://www.w3.org/2000/svg" xmlns:xlink="http://www.w3.org/1999/xlink" width="91" height="38" version="1.1"><defs><mask id="clip1997" fill="#fff"><path fill-rule="evenodd" d="M 0.710000000000036 2 C 0.710000000000036 1.19999999999999 1.50999999999999 0.5 2.61000000000001 0.5 C 2.61000000000001 0.5 88.11 0.5 88.11 0.5 C 89.21 0.5 90.11 1.19999999999999 90.11 2 C 90.11 2 90.11 36.4 90.11 36.4 C 90.11 37.2 89.21 37.9 88.11 37.9 C 88.11 37.9 2.61000000000001 37.9 2.61000000000001 37.9 C 1.50999999999999 37.9 0.710000000000036 37.2 0.710000000000036 36.4 C 0.710000000000036 36.4 0.710000000000036 2 0.710000000000036 2 Z"/></mask></defs><g><path fill="#fff" fill-opacity=".098" fill-rule="nonzero" stroke="none" d="M 0.710000000000036 2 C 0.710000000000036 1.19999999999999 1.50999999999999 0.5 2.61000000000001 0.5 C 2.61000000000001 0.5 88.11 0.5 88.11 0.5 C 89.21 0.5 90.11 1.19999999999999 90.11 2 C 90.11 2 90.11 36.4 90.11 36.4 C 90.11 37.2 89.21 37.9 88.11 37.9 C 88.11 37.9 2.61000000000001 37.9 2.61000000000001 37.9 C 1.50999999999999 37.9 0.710000000000036 37.2 0.710000000000036 36.4 C 0.710000000000036 36.4 0.710000000000036 2 0.710000000000036 2 Z" transform="matrix(1 0 0 1 -812 -8927 ) matrix(1 0 0 1 812 8927 )"/><path fill="none" stroke="#fff" stroke-opacity=".498" stroke-width="2" d="M 0.710000000000036 2 C 0.710000000000036 1.19999999999999 1.50999999999999 0.5 2.61000000000001 0.5 C 2.61000000000001 0.5 88.11 0.5 88.11 0.5 C 89.21 0.5 90.11 1.19999999999999 90.11 2 C 90.11 2 90.11 36.4 90.11 36.4 C 90.11 37.2 89.21 37.9 88.11 37.9 C 88.11 37.9 2.61000000000001 37.9 2.61000000000001 37.9 C 1.50999999999999 37.9 0.710000000000036 37.2 0.710000000000036 36.4 C 0.710000000000036 36.4 0.710000000000036 2 0.710000000000036 2 Z" mask="url(#clip1997)" transform="matrix(1 0 0 1 -812 -8927 ) matrix(1 0 0 1 812 8927 )"/></g></svg>