<?xml version="1.0" encoding="utf-8"?>
<svg version="1.1" xmlns:xlink="http://www.w3.org/1999/xlink" width="55px" height="23px" xmlns="http://www.w3.org/2000/svg">
  <defs>
    <mask fill="white" id="clip587">
      <path d="M 47.97 0.199999999999989  C 50.27 0.199999999999989  51.97 4  51.97 6.19999999999999  C 51.97 8.5  50.27 10.2  47.97 10.2  C 45.77 10.2  41.97 8.5  41.97 6.19999999999999  C 41.97 4  45.77 0.199999999999989  47.97 0.199999999999989  Z " fill-rule="evenodd" />
    </mask>
  </defs>
  <g transform="matrix(1 0 0 1 -237 -12644 )">
    <path d="M 47.97 0.199999999999989  C 50.27 0.199999999999989  51.97 4  51.97 6.19999999999999  C 51.97 8.5  50.27 10.2  47.97 10.2  C 45.77 10.2  41.97 8.5  41.97 6.19999999999999  C 41.97 4  45.77 0.199999999999989  47.97 0.199999999999989  Z " fill-rule="nonzero" fill="#ffffff" stroke="none" fill-opacity="0" transform="matrix(1 0 0 1 238 12645 )" />
    <path d="M 47.97 0.199999999999989  C 50.27 0.199999999999989  51.97 4  51.97 6.19999999999999  C 51.97 8.5  50.27 10.2  47.97 10.2  C 45.77 10.2  41.97 8.5  41.97 6.19999999999999  C 41.97 4  45.77 0.199999999999989  47.97 0.199999999999989  Z " stroke-width="4" stroke="#16a58a" fill="none" transform="matrix(1 0 0 1 238 12645 )" mask="url(#clip587)" />
    <path d="M 0.469999999999999 19.6  L 46.97 5.19999999999999  " stroke-width="2" stroke="#16a58a" fill="none" transform="matrix(1 0 0 1 238 12645 )" mask="url(#clip587)" />
  </g>
</svg>