<svg xmlns="http://www.w3.org/2000/svg" xmlns:xlink="http://www.w3.org/1999/xlink" width="13" height="14" version="1.1"><defs><mask id="clip1987" fill="#fff"><path fill-rule="evenodd" d="M 6.89999999999998 0.889999999999418 C 10 0.889999999999418 12.5 4.59000000000015 12.5 7.88999999999942 C 12.5 11.2900000000009 10 13.8899999999994 6.89999999999998 13.8899999999994 C 3.70000000000005 13.8899999999994 0.200000000000045 11.2900000000009 0.200000000000045 7.88999999999942 C 0.200000000000045 4.59000000000015 3.70000000000005 0.889999999999418 6.89999999999998 0.889999999999418 Z"/></mask></defs><g><path fill="#fff" fill-opacity="0" fill-rule="nonzero" stroke="none" d="M 6.89999999999998 0.889999999999418 C 10 0.889999999999418 12.5 4.59000000000015 12.5 7.88999999999942 C 12.5 11.2900000000009 10 13.8899999999994 6.89999999999998 13.8899999999994 C 3.70000000000005 13.8899999999994 0.200000000000045 11.2900000000009 0.200000000000045 7.88999999999942 C 0.200000000000045 4.59000000000015 3.70000000000005 0.889999999999418 6.89999999999998 0.889999999999418 Z" transform="matrix(1 0 0 1 -568 -9001 ) matrix(1 0 0 1 568 9001 )"/><path fill="none" stroke="#595757" stroke-width="2" d="M 6.89999999999998 0.889999999999418 C 10 0.889999999999418 12.5 4.59000000000015 12.5 7.88999999999942 C 12.5 11.2900000000009 10 13.8899999999994 6.89999999999998 13.8899999999994 C 3.70000000000005 13.8899999999994 0.200000000000045 11.2900000000009 0.200000000000045 7.88999999999942 C 0.200000000000045 4.59000000000015 3.70000000000005 0.889999999999418 6.89999999999998 0.889999999999418 Z" mask="url(#clip1987)" transform="matrix(1 0 0 1 -568 -9001 ) matrix(1 0 0 1 568 9001 )"/></g></svg>