<svg xmlns="http://www.w3.org/2000/svg" xmlns:xlink="http://www.w3.org/1999/xlink" width="13" height="14" version="1.1"><defs><mask id="clip1977" fill="#fff"><path fill-rule="evenodd" d="M 0.600000000000023 7.09000000000014 C 0.600000000000023 7.09000000000014 7.30000000000001 0.0900000000001455 7.30000000000001 0.0900000000001455 C 7.30000000000001 0.0900000000001455 13 7.09000000000014 13 7.09000000000014 C 13 7.09000000000014 7.30000000000001 13.0900000000001 7.30000000000001 13.0900000000001 C 7.30000000000001 13.0900000000001 0.600000000000023 7.09000000000014 0.600000000000023 7.09000000000014 Z"/></mask></defs><g><path fill="#fff" fill-opacity="0" fill-rule="nonzero" stroke="none" d="M 0.600000000000023 7.09000000000014 C 0.600000000000023 7.09000000000014 7.30000000000001 0.0900000000001455 7.30000000000001 0.0900000000001455 C 7.30000000000001 0.0900000000001455 13 7.09000000000014 13 7.09000000000014 C 13 7.09000000000014 7.30000000000001 13.0900000000001 7.30000000000001 13.0900000000001 C 7.30000000000001 13.0900000000001 0.600000000000023 7.09000000000014 0.600000000000023 7.09000000000014 Z" transform="matrix(1 0 0 1 -434 -8960 ) matrix(1 0 0 1 434 8960 )"/><path fill="none" stroke="#d4cdc7" stroke-width="2" d="M 0.600000000000023 7.09000000000014 C 0.600000000000023 7.09000000000014 7.30000000000001 0.0900000000001455 7.30000000000001 0.0900000000001455 C 7.30000000000001 0.0900000000001455 13 7.09000000000014 13 7.09000000000014 C 13 7.09000000000014 7.30000000000001 13.0900000000001 7.30000000000001 13.0900000000001 C 7.30000000000001 13.0900000000001 0.600000000000023 7.09000000000014 0.600000000000023 7.09000000000014 Z" mask="url(#clip1977)" transform="matrix(1 0 0 1 -434 -8960 ) matrix(1 0 0 1 434 8960 )"/></g></svg>