<svg xmlns="http://www.w3.org/2000/svg" xmlns:xlink="http://www.w3.org/1999/xlink" width="81" height="39" version="1.1"><defs><mask id="clip1992" fill="#fff"><path fill-rule="evenodd" d="M 0.700000000000045 2.19999999999999 C 0.700000000000045 1.39999999999998 1.5 0.699999999999989 2.40000000000009 0.699999999999989 C 2.40000000000009 0.699999999999989 78.9000000000001 0.699999999999989 78.9000000000001 0.699999999999989 C 79.8000000000001 0.699999999999989 80.6 1.39999999999998 80.6 2.19999999999999 C 80.6 2.19999999999999 80.6 36.6 80.6 36.6 C 80.6 37.4 79.8000000000001 38.1 78.9000000000001 38.1 C 78.9000000000001 38.1 2.40000000000009 38.1 2.40000000000009 38.1 C 1.5 38.1 0.700000000000045 37.4 0.700000000000045 36.6 C 0.700000000000045 36.6 0.700000000000045 2.19999999999999 0.700000000000045 2.19999999999999 Z"/></mask></defs><g><path fill="#fff" fill-opacity=".098" fill-rule="nonzero" stroke="none" d="M 0.700000000000045 2.19999999999999 C 0.700000000000045 1.39999999999998 1.5 0.699999999999989 2.40000000000009 0.699999999999989 C 2.40000000000009 0.699999999999989 78.9000000000001 0.699999999999989 78.9000000000001 0.699999999999989 C 79.8000000000001 0.699999999999989 80.6 1.39999999999998 80.6 2.19999999999999 C 80.6 2.19999999999999 80.6 36.6 80.6 36.6 C 80.6 37.4 79.8000000000001 38.1 78.9000000000001 38.1 C 78.9000000000001 38.1 2.40000000000009 38.1 2.40000000000009 38.1 C 1.5 38.1 0.700000000000045 37.4 0.700000000000045 36.6 C 0.700000000000045 36.6 0.700000000000045 2.19999999999999 0.700000000000045 2.19999999999999 Z" transform="matrix(1 0 0 1 -812 -8730 ) matrix(1 0 0 1 812 8730 )"/><path fill="none" stroke="#fff" stroke-opacity=".498" stroke-width="2" d="M 0.700000000000045 2.19999999999999 C 0.700000000000045 1.39999999999998 1.5 0.699999999999989 2.40000000000009 0.699999999999989 C 2.40000000000009 0.699999999999989 78.9000000000001 0.699999999999989 78.9000000000001 0.699999999999989 C 79.8000000000001 0.699999999999989 80.6 1.39999999999998 80.6 2.19999999999999 C 80.6 2.19999999999999 80.6 36.6 80.6 36.6 C 80.6 37.4 79.8000000000001 38.1 78.9000000000001 38.1 C 78.9000000000001 38.1 2.40000000000009 38.1 2.40000000000009 38.1 C 1.5 38.1 0.700000000000045 37.4 0.700000000000045 36.6 C 0.700000000000045 36.6 0.700000000000045 2.19999999999999 0.700000000000045 2.19999999999999 Z" mask="url(#clip1992)" transform="matrix(1 0 0 1 -812 -8730 ) matrix(1 0 0 1 812 8730 )"/></g></svg>