<svg xmlns="http://www.w3.org/2000/svg" xmlns:xlink="http://www.w3.org/1999/xlink" width="13" height="14" version="1.1"><defs><mask id="clip1999" fill="#fff"><path fill-rule="evenodd" d="M 7.30000000000001 0.690000000000509 C 10.4 0.690000000000509 13 4.38999999999942 13 7.69000000000051 C 13 11.0900000000001 10.4 13.6900000000005 7.30000000000001 13.6900000000005 C 4.19999999999999 13.6900000000005 0.600000000000023 11.0900000000001 0.600000000000023 7.69000000000051 C 0.600000000000023 4.38999999999942 4.19999999999999 0.690000000000509 7.30000000000001 0.690000000000509 Z"/></mask></defs><g><path fill="#fff" fill-opacity="0" fill-rule="nonzero" stroke="none" d="M 7.30000000000001 0.690000000000509 C 10.4 0.690000000000509 13 4.38999999999942 13 7.69000000000051 C 13 11.0900000000001 10.4 13.6900000000005 7.30000000000001 13.6900000000005 C 4.19999999999999 13.6900000000005 0.600000000000023 11.0900000000001 0.600000000000023 7.69000000000051 C 0.600000000000023 4.38999999999942 4.19999999999999 0.690000000000509 7.30000000000001 0.690000000000509 Z" transform="matrix(1 0 0 1 -434 -9005 ) matrix(1 0 0 1 434 9005 )"/><path fill="none" stroke="#00ae9d" stroke-width="2" d="M 7.30000000000001 0.690000000000509 C 10.4 0.690000000000509 13 4.38999999999942 13 7.69000000000051 C 13 11.0900000000001 10.4 13.6900000000005 7.30000000000001 13.6900000000005 C 4.19999999999999 13.6900000000005 0.600000000000023 11.0900000000001 0.600000000000023 7.69000000000051 C 0.600000000000023 4.38999999999942 4.19999999999999 0.690000000000509 7.30000000000001 0.690000000000509 Z" mask="url(#clip1999)" transform="matrix(1 0 0 1 -434 -9005 ) matrix(1 0 0 1 434 9005 )"/></g></svg>