<?xml version="1.0" encoding="utf-8"?>
<svg version="1.1" xmlns:xlink="http://www.w3.org/1999/xlink" width="76px" height="23px" xmlns="http://www.w3.org/2000/svg">
  <defs>
    <mask fill="white" id="clip748">
      <path d="M 68.72 9.98000000000002  C 70.92 9.98000000000002  72.72 13.78  72.72 15.98  C 72.72 18.1800000000001  70.92 19.98  68.72 19.98  C 66.52 19.98  62.72 18.1800000000001  62.72 15.98  C 62.72 13.78  66.52 9.98000000000002  68.72 9.98000000000002  Z " fill-rule="evenodd" />
    </mask>
  </defs>
  <g transform="matrix(1 0 0 1 -666 -13019 )">
    <path d="M 68.72 9.98000000000002  C 70.92 9.98000000000002  72.72 13.78  72.72 15.98  C 72.72 18.1800000000001  70.92 19.98  68.72 19.98  C 66.52 19.98  62.72 18.1800000000001  62.72 15.98  C 62.72 13.78  66.52 9.98000000000002  68.72 9.98000000000002  Z " fill-rule="nonzero" fill="#ffffff" stroke="none" fill-opacity="0" transform="matrix(1 0 0 1 667 13020 )" />
    <path d="M 68.72 9.98000000000002  C 70.92 9.98000000000002  72.72 13.78  72.72 15.98  C 72.72 18.1800000000001  70.92 19.98  68.72 19.98  C 66.52 19.98  62.72 18.1800000000001  62.72 15.98  C 62.72 13.78  66.52 9.98000000000002  68.72 9.98000000000002  Z " stroke-width="4" stroke="#476482" fill="none" transform="matrix(1 0 0 1 667 13020 )" mask="url(#clip748)" />
    <path d="M 0.819999999999936 0.580000000000041  L 67.72 14.98  " stroke-width="2" stroke="#476482" fill="none" transform="matrix(1 0 0 1 667 13020 )" mask="url(#clip748)" />
  </g>
</svg>