<svg xmlns="http://www.w3.org/2000/svg" xmlns:xlink="http://www.w3.org/1999/xlink" width="14" height="14" version="1.1"><defs><mask id="clip1989" fill="#fff"><path fill-rule="evenodd" d="M 7.39999999999998 0.790000000000873 C 10.5 0.790000000000873 13.1 4.48999999999978 13.1 7.79000000000087 C 13.1 11.0900000000001 10.5 13.7900000000009 7.39999999999998 13.7900000000009 C 4.29999999999995 13.7900000000009 0.700000000000045 11.0900000000001 0.700000000000045 7.79000000000087 C 0.700000000000045 4.48999999999978 4.29999999999995 0.790000000000873 7.39999999999998 0.790000000000873 Z"/></mask></defs><g><path fill="#fff" fill-opacity="0" fill-rule="nonzero" stroke="none" d="M 7.39999999999998 0.790000000000873 C 10.5 0.790000000000873 13.1 4.48999999999978 13.1 7.79000000000087 C 13.1 11.0900000000001 10.5 13.7900000000009 7.39999999999998 13.7900000000009 C 4.29999999999995 13.7900000000009 0.700000000000045 11.0900000000001 0.700000000000045 7.79000000000087 C 0.700000000000045 4.48999999999978 4.29999999999995 0.790000000000873 7.39999999999998 0.790000000000873 Z" transform="matrix(1 0 0 1 -701 -8925 ) matrix(1 0 0 1 701 8925 )"/><path fill="none" stroke="#595757" stroke-width="2" d="M 7.39999999999998 0.790000000000873 C 10.5 0.790000000000873 13.1 4.48999999999978 13.1 7.79000000000087 C 13.1 11.0900000000001 10.5 13.7900000000009 7.39999999999998 13.7900000000009 C 4.29999999999995 13.7900000000009 0.700000000000045 11.0900000000001 0.700000000000045 7.79000000000087 C 0.700000000000045 4.48999999999978 4.29999999999995 0.790000000000873 7.39999999999998 0.790000000000873 Z" mask="url(#clip1989)" transform="matrix(1 0 0 1 -701 -8925 ) matrix(1 0 0 1 701 8925 )"/></g></svg>