<svg xmlns="http://www.w3.org/2000/svg" xmlns:xlink="http://www.w3.org/1999/xlink" width="13" height="14" version="1.1"><defs><mask id="clip1982" fill="#fff"><path fill-rule="evenodd" d="M 7 0.190000000000055 C 10.1 0.190000000000055 12.7 3.79000000000002 12.7 7.19000000000005 C 12.7 10.49 10.1 13.1900000000001 7 13.1900000000001 C 3.90000000000001 13.1900000000001 0.300000000000011 10.49 0.300000000000011 7.19000000000005 C 0.300000000000011 3.79000000000002 3.90000000000001 0.190000000000055 7 0.190000000000055 Z"/></mask></defs><g><path fill="#595757" fill-rule="nonzero" stroke="none" d="M 7 0.190000000000055 C 10.1 0.190000000000055 12.7 3.79000000000002 12.7 7.19000000000005 C 12.7 10.49 10.1 13.1900000000001 7 13.1900000000001 C 3.90000000000001 13.1900000000001 0.300000000000011 10.49 0.300000000000011 7.19000000000005 C 0.300000000000011 3.79000000000002 3.90000000000001 0.190000000000055 7 0.190000000000055 Z" transform="matrix(1 0 0 1 -234 -9017 ) matrix(1 0 0 1 234 9017 )"/><path fill="none" stroke="#595757" stroke-width="2" d="M 7 0.190000000000055 C 10.1 0.190000000000055 12.7 3.79000000000002 12.7 7.19000000000005 C 12.7 10.49 10.1 13.1900000000001 7 13.1900000000001 C 3.90000000000001 13.1900000000001 0.300000000000011 10.49 0.300000000000011 7.19000000000005 C 0.300000000000011 3.79000000000002 3.90000000000001 0.190000000000055 7 0.190000000000055 Z" mask="url(#clip1982)" transform="matrix(1 0 0 1 -234 -9017 ) matrix(1 0 0 1 234 9017 )"/></g></svg>