<svg xmlns="http://www.w3.org/2000/svg" xmlns:xlink="http://www.w3.org/1999/xlink" width="13" height="14" version="1.1"><defs><mask id="clip1980" fill="#fff"><path fill-rule="evenodd" d="M 0.200000000000045 7.59000000000015 C 0.200000000000045 7.59000000000015 6.89999999999998 0.590000000000146 6.89999999999998 0.590000000000146 C 6.89999999999998 0.590000000000146 12.5 7.59000000000015 12.5 7.59000000000015 C 12.5 7.59000000000015 6.89999999999998 13.5900000000001 6.89999999999998 13.5900000000001 C 6.89999999999998 13.5900000000001 0.200000000000045 7.59000000000015 0.200000000000045 7.59000000000015 Z"/></mask></defs><g><path fill="#fff" fill-opacity="0" fill-rule="nonzero" stroke="none" d="M 0.200000000000045 7.59000000000015 C 0.200000000000045 7.59000000000015 6.89999999999998 0.590000000000146 6.89999999999998 0.590000000000146 C 6.89999999999998 0.590000000000146 12.5 7.59000000000015 12.5 7.59000000000015 C 12.5 7.59000000000015 6.89999999999998 13.5900000000001 6.89999999999998 13.5900000000001 C 6.89999999999998 13.5900000000001 0.200000000000045 7.59000000000015 0.200000000000045 7.59000000000015 Z" transform="matrix(1 0 0 1 -568 -9047 ) matrix(1 0 0 1 568 9047 )"/><path fill="none" stroke="#d4cdc7" stroke-width="2" d="M 0.200000000000045 7.59000000000015 C 0.200000000000045 7.59000000000015 6.89999999999998 0.590000000000146 6.89999999999998 0.590000000000146 C 6.89999999999998 0.590000000000146 12.5 7.59000000000015 12.5 7.59000000000015 C 12.5 7.59000000000015 6.89999999999998 13.5900000000001 6.89999999999998 13.5900000000001 C 6.89999999999998 13.5900000000001 0.200000000000045 7.59000000000015 0.200000000000045 7.59000000000015 Z" mask="url(#clip1980)" transform="matrix(1 0 0 1 -568 -9047 ) matrix(1 0 0 1 568 9047 )"/></g></svg>