<svg xmlns="http://www.w3.org/2000/svg" xmlns:xlink="http://www.w3.org/1999/xlink" width="13" height="14" version="1.1"><defs><mask id="clip1985" fill="#fff"><path fill-rule="evenodd" d="M 7.30000000000001 0.790000000000873 C 10.4 0.790000000000873 13 4.48999999999978 13 7.79000000000087 C 13 11.0900000000001 10.4 13.7900000000009 7.30000000000001 13.7900000000009 C 4.19999999999999 13.7900000000009 0.600000000000023 11.0900000000001 0.600000000000023 7.79000000000087 C 0.600000000000023 4.48999999999978 4.19999999999999 0.790000000000873 7.30000000000001 0.790000000000873 Z"/></mask></defs><g><path fill="#fff" fill-opacity="0" fill-rule="nonzero" stroke="none" d="M 7.30000000000001 0.790000000000873 C 10.4 0.790000000000873 13 4.48999999999978 13 7.79000000000087 C 13 11.0900000000001 10.4 13.7900000000009 7.30000000000001 13.7900000000009 C 4.19999999999999 13.7900000000009 0.600000000000023 11.0900000000001 0.600000000000023 7.79000000000087 C 0.600000000000023 4.48999999999978 4.19999999999999 0.790000000000873 7.30000000000001 0.790000000000873 Z" transform="matrix(1 0 0 1 -434 -9043 ) matrix(1 0 0 1 434 9043 )"/><path fill="none" stroke="#595757" stroke-width="2" d="M 7.30000000000001 0.790000000000873 C 10.4 0.790000000000873 13 4.48999999999978 13 7.79000000000087 C 13 11.0900000000001 10.4 13.7900000000009 7.30000000000001 13.7900000000009 C 4.19999999999999 13.7900000000009 0.600000000000023 11.0900000000001 0.600000000000023 7.79000000000087 C 0.600000000000023 4.48999999999978 4.19999999999999 0.790000000000873 7.30000000000001 0.790000000000873 Z" mask="url(#clip1985)" transform="matrix(1 0 0 1 -434 -9043 ) matrix(1 0 0 1 434 9043 )"/></g></svg>