<?xml version="1.0" encoding="utf-8"?>
<svg version="1.1" xmlns:xlink="http://www.w3.org/1999/xlink" width="52px" height="47px" xmlns="http://www.w3.org/2000/svg">
  <defs>
    <mask fill="white" id="clip660">
      <path d="M 6.04999999999995 0.699999999999989  C 8.25 0.699999999999989  10.05 4.39999999999998  10.05 6.69999999999999  C 10.05 8.89999999999998  8.25 10.7  6.04999999999995 10.7  C 3.85000000000002 10.7  0.0499999999999545 8.89999999999998  0.0499999999999545 6.69999999999999  C 0.0499999999999545 4.39999999999998  3.85000000000002 0.699999999999989  6.04999999999995 0.699999999999989  Z " fill-rule="evenodd" />
    </mask>
  </defs>
  <g transform="matrix(1 0 0 1 -602 -12701 )">
    <path d="M 6.04999999999995 0.699999999999989  C 8.25 0.699999999999989  10.05 4.39999999999998  10.05 6.69999999999999  C 10.05 8.89999999999998  8.25 10.7  6.04999999999995 10.7  C 3.85000000000002 10.7  0.0499999999999545 8.89999999999998  0.0499999999999545 6.69999999999999  C 0.0499999999999545 4.39999999999998  3.85000000000002 0.699999999999989  6.04999999999995 0.699999999999989  Z " fill-rule="nonzero" fill="#ffffff" stroke="none" fill-opacity="0" transform="matrix(1 0 0 1 603 12702 )" />
    <path d="M 6.04999999999995 0.699999999999989  C 8.25 0.699999999999989  10.05 4.39999999999998  10.05 6.69999999999999  C 10.05 8.89999999999998  8.25 10.7  6.04999999999995 10.7  C 3.85000000000002 10.7  0.0499999999999545 8.89999999999998  0.0499999999999545 6.69999999999999  C 0.0499999999999545 4.39999999999998  3.85000000000002 0.699999999999989  6.04999999999995 0.699999999999989  Z " stroke-width="4" stroke="#c26383" fill="none" transform="matrix(1 0 0 1 603 12702 )" mask="url(#clip660)" />
    <path d="M 48.15 43.8  L 5.04999999999995 5.69999999999999  " stroke-width="2" stroke="#c26383" fill="none" transform="matrix(1 0 0 1 603 12702 )" mask="url(#clip660)" />
  </g>
</svg>