<svg xmlns="http://www.w3.org/2000/svg" xmlns:xlink="http://www.w3.org/1999/xlink" width="13" height="14" version="1.1"><defs><mask id="clip1986" fill="#fff"><path fill-rule="evenodd" d="M 7.10000000000002 0.190000000000509 C 10.2 0.190000000000509 12.8 3.88999999999942 12.8 7.19000000000051 C 12.8 10.4899999999998 10.2 13.1900000000005 7.10000000000002 13.1900000000005 C 4 13.1900000000005 0.399999999999977 10.4899999999998 0.399999999999977 7.19000000000051 C 0.399999999999977 3.88999999999942 4 0.190000000000509 7.10000000000002 0.190000000000509 Z"/></mask></defs><g><path fill="#fff" fill-opacity="0" fill-rule="nonzero" stroke="none" d="M 7.10000000000002 0.190000000000509 C 10.2 0.190000000000509 12.8 3.88999999999942 12.8 7.19000000000051 C 12.8 10.4899999999998 10.2 13.1900000000005 7.10000000000002 13.1900000000005 C 4 13.1900000000005 0.399999999999977 10.4899999999998 0.399999999999977 7.19000000000051 C 0.399999999999977 3.88999999999942 4 0.190000000000509 7.10000000000002 0.190000000000509 Z" transform="matrix(1 0 0 1 -501 -9055 ) matrix(1 0 0 1 501 9055 )"/><path fill="none" stroke="#595757" stroke-width="2" d="M 7.10000000000002 0.190000000000509 C 10.2 0.190000000000509 12.8 3.88999999999942 12.8 7.19000000000051 C 12.8 10.4899999999998 10.2 13.1900000000005 7.10000000000002 13.1900000000005 C 4 13.1900000000005 0.399999999999977 10.4899999999998 0.399999999999977 7.19000000000051 C 0.399999999999977 3.88999999999942 4 0.190000000000509 7.10000000000002 0.190000000000509 Z" mask="url(#clip1986)" transform="matrix(1 0 0 1 -501 -9055 ) matrix(1 0 0 1 501 9055 )"/></g></svg>