<?xml version="1.0" encoding="utf-8"?>
<svg version="1.1" xmlns:xlink="http://www.w3.org/1999/xlink" width="29px" height="14px" xmlns="http://www.w3.org/2000/svg">
  <defs>
    <mask fill="white" id="clip650">
      <path d="M 11.86 0.649999999999991  C 13.96 0.649999999999991  17.66 4.34999999999999  17.66 6.44999999999999  C 17.66 8.54999999999998  13.96 10.25  11.86 10.25  C 9.86 10.25  8.16 8.54999999999998  8.16 6.44999999999999  C 8.16 4.34999999999999  9.86 0.649999999999991  11.86 0.649999999999991  Z " fill-rule="evenodd" />
    </mask>
  </defs>
  <g transform="matrix(1 0 0 1 -146 -12512 )">
    <path d="M 11.86 0.649999999999991  C 13.96 0.649999999999991  17.66 4.34999999999999  17.66 6.44999999999999  C 17.66 8.54999999999998  13.96 10.25  11.86 10.25  C 9.86 10.25  8.16 8.54999999999998  8.16 6.44999999999999  C 8.16 4.34999999999999  9.86 0.649999999999991  11.86 0.649999999999991  Z " fill-rule="nonzero" fill="#ffffff" stroke="none" fill-opacity="0" transform="matrix(1 0 0 1 147 12513 )" />
    <path d="M 11.86 0.649999999999991  C 13.96 0.649999999999991  17.66 4.34999999999999  17.66 6.44999999999999  C 17.66 8.54999999999998  13.96 10.25  11.86 10.25  C 9.86 10.25  8.16 8.54999999999998  8.16 6.44999999999999  C 8.16 4.34999999999999  9.86 0.649999999999991  11.86 0.649999999999991  Z " stroke-width="4" stroke="#16a58a" fill="none" transform="matrix(1 0 0 1 147 12513 )" mask="url(#clip650)" />
    <path d="M 0.560000000000002 5.44999999999999  L 25.26 5.44999999999999  " stroke-width="2" stroke="#16a58a" fill="none" transform="matrix(1 0 0 1 147 12513 )" mask="url(#clip650)" />
  </g>
</svg>