<svg xmlns="http://www.w3.org/2000/svg" xmlns:xlink="http://www.w3.org/1999/xlink" width="13" height="14" version="1.1"><defs><mask id="clip1996" fill="#fff"><path fill-rule="evenodd" d="M 6.80000000000001 0.889999999999418 C 9.89999999999998 0.889999999999418 12.4 4.59000000000015 12.4 7.88999999999942 C 12.4 11.1900000000005 9.89999999999998 13.8899999999994 6.80000000000001 13.8899999999994 C 3.60000000000002 13.8899999999994 0.100000000000023 11.1900000000005 0.100000000000023 7.88999999999942 C 0.100000000000023 4.59000000000015 3.60000000000002 0.889999999999418 6.80000000000001 0.889999999999418 Z"/></mask></defs><g><path fill="#fff" fill-opacity="0" fill-rule="nonzero" stroke="none" d="M 6.80000000000001 0.889999999999418 C 9.89999999999998 0.889999999999418 12.4 4.59000000000015 12.4 7.88999999999942 C 12.4 11.1900000000005 9.89999999999998 13.8899999999994 6.80000000000001 13.8899999999994 C 3.60000000000002 13.8899999999994 0.100000000000023 11.1900000000005 0.100000000000023 7.88999999999942 C 0.100000000000023 4.59000000000015 3.60000000000002 0.889999999999418 6.80000000000001 0.889999999999418 Z" transform="matrix(1 0 0 1 -301 -9100 ) matrix(1 0 0 1 301 9100 )"/><path fill="none" stroke="#00ae9d" stroke-width="2" d="M 6.80000000000001 0.889999999999418 C 9.89999999999998 0.889999999999418 12.4 4.59000000000015 12.4 7.88999999999942 C 12.4 11.1900000000005 9.89999999999998 13.8899999999994 6.80000000000001 13.8899999999994 C 3.60000000000002 13.8899999999994 0.100000000000023 11.1900000000005 0.100000000000023 7.88999999999942 C 0.100000000000023 4.59000000000015 3.60000000000002 0.889999999999418 6.80000000000001 0.889999999999418 Z" mask="url(#clip1996)" transform="matrix(1 0 0 1 -301 -9100 ) matrix(1 0 0 1 301 9100 )"/></g></svg>