<?xml version="1.0" encoding="utf-8"?>
<svg version="1.1" xmlns:xlink="http://www.w3.org/1999/xlink" width="81px" height="40px" xmlns="http://www.w3.org/2000/svg">
  <defs>
    <mask fill="white" id="clip583">
      <path d="M 6.37 0.199999999999989  C 8.56999999999999 0.199999999999989  10.37 4  10.37 6.19999999999999  C 10.37 8.39999999999998  8.56999999999999 10.2  6.37 10.2  C 4.17000000000002 10.2  0.370000000000005 8.39999999999998  0.370000000000005 6.19999999999999  C 0.370000000000005 4  4.17000000000002 0.199999999999989  6.37 0.199999999999989  Z " fill-rule="evenodd" />
    </mask>
  </defs>
  <g transform="matrix(1 0 0 1 -293 -12699 )">
    <path d="M 6.37 0.199999999999989  C 8.56999999999999 0.199999999999989  10.37 4  10.37 6.19999999999999  C 10.37 8.39999999999998  8.56999999999999 10.2  6.37 10.2  C 4.17000000000002 10.2  0.370000000000005 8.39999999999998  0.370000000000005 6.19999999999999  C 0.370000000000005 4  4.17000000000002 0.199999999999989  6.37 0.199999999999989  Z " fill-rule="nonzero" fill="#ffffff" stroke="none" fill-opacity="0" transform="matrix(1 0 0 1 294 12700 )" />
    <path d="M 6.37 0.199999999999989  C 8.56999999999999 0.199999999999989  10.37 4  10.37 6.19999999999999  C 10.37 8.39999999999998  8.56999999999999 10.2  6.37 10.2  C 4.17000000000002 10.2  0.370000000000005 8.39999999999998  0.370000000000005 6.19999999999999  C 0.370000000000005 4  4.17000000000002 0.199999999999989  6.37 0.199999999999989  Z " stroke-width="4" stroke="#16a58a" fill="none" transform="matrix(1 0 0 1 294 12700 )" mask="url(#clip583)" />
    <path d="M 77.17 36.4  L 5.37 5.19999999999999  " stroke-width="2" stroke="#16a58a" fill="none" transform="matrix(1 0 0 1 294 12700 )" mask="url(#clip583)" />
  </g>
</svg>