<svg xmlns="http://www.w3.org/2000/svg" xmlns:xlink="http://www.w3.org/1999/xlink" width="13" height="14" version="1.1"><defs><mask id="clip1988" fill="#fff"><path fill-rule="evenodd" d="M 5.60000000000002 0.690000000000509 C 8.79999999999995 0.690000000000509 12.3 4.38999999999942 12.3 7.69000000000051 C 12.3 10.9899999999998 8.79999999999995 13.6900000000005 5.60000000000002 13.6900000000005 C 2.5 13.6900000000005 0 10.9899999999998 0 7.69000000000051 C 0 4.38999999999942 2.5 0.690000000000509 5.60000000000002 0.690000000000509 Z"/></mask></defs><g><path fill="#fff" fill-opacity="0" fill-rule="nonzero" stroke="none" d="M 5.60000000000002 0.690000000000509 C 8.79999999999995 0.690000000000509 12.3 4.38999999999942 12.3 7.69000000000051 C 12.3 10.9899999999998 8.79999999999995 13.6900000000005 5.60000000000002 13.6900000000005 C 2.5 13.6900000000005 0 10.9899999999998 0 7.69000000000051 C 0 4.38999999999942 2.5 0.690000000000509 5.60000000000002 0.690000000000509 Z" transform="matrix(1 0 0 1 -635 -8948 ) matrix(1 0 0 1 635 8948 )"/><path fill="none" stroke="#595757" stroke-width="2" d="M 5.60000000000002 0.690000000000509 C 8.79999999999995 0.690000000000509 12.3 4.38999999999942 12.3 7.69000000000051 C 12.3 10.9899999999998 8.79999999999995 13.6900000000005 5.60000000000002 13.6900000000005 C 2.5 13.6900000000005 0 10.9899999999998 0 7.69000000000051 C 0 4.38999999999942 2.5 0.690000000000509 5.60000000000002 0.690000000000509 Z" mask="url(#clip1988)" transform="matrix(1 0 0 1 -635 -8948 ) matrix(1 0 0 1 635 8948 )"/></g></svg>