<svg xmlns="http://www.w3.org/2000/svg" xmlns:xlink="http://www.w3.org/1999/xlink" width="14" height="14" version="1.1"><defs><mask id="clip1984" fill="#fff"><path fill-rule="evenodd" d="M 6.5 0.290000000000873 C 9.69999999999999 0.290000000000873 13.2 3.98999999999978 13.2 7.29000000000087 C 13.2 10.5900000000001 9.69999999999999 13.2900000000009 6.5 13.2900000000009 C 3.39999999999998 13.2900000000009 0.899999999999977 10.5900000000001 0.899999999999977 7.29000000000087 C 0.899999999999977 3.98999999999978 3.39999999999998 0.290000000000873 6.5 0.290000000000873 Z"/></mask></defs><g><path fill="#fff" fill-opacity="0" fill-rule="nonzero" stroke="none" d="M 6.5 0.290000000000873 C 9.69999999999999 0.290000000000873 13.2 3.98999999999978 13.2 7.29000000000087 C 13.2 10.5900000000001 9.69999999999999 13.2900000000009 6.5 13.2900000000009 C 3.39999999999998 13.2900000000009 0.899999999999977 10.5900000000001 0.899999999999977 7.29000000000087 C 0.899999999999977 3.98999999999978 3.39999999999998 0.290000000000873 6.5 0.290000000000873 Z" transform="matrix(1 0 0 1 -367 -8994 ) matrix(1 0 0 1 367 8994 )"/><path fill="none" stroke="#595757" stroke-width="2" d="M 6.5 0.290000000000873 C 9.69999999999999 0.290000000000873 13.2 3.98999999999978 13.2 7.29000000000087 C 13.2 10.5900000000001 9.69999999999999 13.2900000000009 6.5 13.2900000000009 C 3.39999999999998 13.2900000000009 0.899999999999977 10.5900000000001 0.899999999999977 7.29000000000087 C 0.899999999999977 3.98999999999978 3.39999999999998 0.290000000000873 6.5 0.290000000000873 Z" mask="url(#clip1984)" transform="matrix(1 0 0 1 -367 -8994 ) matrix(1 0 0 1 367 8994 )"/></g></svg>