<svg xmlns="http://www.w3.org/2000/svg" xmlns:xlink="http://www.w3.org/1999/xlink" width="13" height="14" version="1.1"><defs><mask id="clip1983" fill="#fff"><path fill-rule="evenodd" d="M 6.80000000000001 0.0900000000001455 C 9.89999999999998 0.0900000000001455 12.4 3.79000000000087 12.4 7.09000000000014 C 12.4 10.3899999999994 9.89999999999998 13.0900000000001 6.80000000000001 13.0900000000001 C 3.60000000000002 13.0900000000001 0.100000000000023 10.3899999999994 0.100000000000023 7.09000000000014 C 0.100000000000023 3.79000000000087 3.60000000000002 0.0900000000001455 6.80000000000001 0.0900000000001455 Z"/></mask></defs><g><path fill="#fff" fill-opacity="0" fill-rule="nonzero" stroke="none" d="M 6.80000000000001 0.0900000000001455 C 9.89999999999998 0.0900000000001455 12.4 3.79000000000087 12.4 7.09000000000014 C 12.4 10.3899999999994 9.89999999999998 13.0900000000001 6.80000000000001 13.0900000000001 C 3.60000000000002 13.0900000000001 0.100000000000023 10.3899999999994 0.100000000000023 7.09000000000014 C 0.100000000000023 3.79000000000087 3.60000000000002 0.0900000000001455 6.80000000000001 0.0900000000001455 Z" transform="matrix(1 0 0 1 -301 -8979 ) matrix(1 0 0 1 301 8979 )"/><path fill="none" stroke="#595757" stroke-width="2" d="M 6.80000000000001 0.0900000000001455 C 9.89999999999998 0.0900000000001455 12.4 3.79000000000087 12.4 7.09000000000014 C 12.4 10.3899999999994 9.89999999999998 13.0900000000001 6.80000000000001 13.0900000000001 C 3.60000000000002 13.0900000000001 0.100000000000023 10.3899999999994 0.100000000000023 7.09000000000014 C 0.100000000000023 3.79000000000087 3.60000000000002 0.0900000000001455 6.80000000000001 0.0900000000001455 Z" mask="url(#clip1983)" transform="matrix(1 0 0 1 -301 -8979 ) matrix(1 0 0 1 301 8979 )"/></g></svg>