<svg xmlns="http://www.w3.org/2000/svg" xmlns:xlink="http://www.w3.org/1999/xlink" width="13" height="14" version="1.1"><defs><mask id="clip1978" fill="#fff"><path fill-rule="evenodd" d="M 0.399999999999977 7.59000000000015 C 0.399999999999977 7.59000000000015 7.10000000000002 0.590000000000146 7.10000000000002 0.590000000000146 C 7.10000000000002 0.590000000000146 12.8 7.59000000000015 12.8 7.59000000000015 C 12.8 7.59000000000015 7.10000000000002 13.5900000000001 7.10000000000002 13.5900000000001 C 7.10000000000002 13.5900000000001 0.399999999999977 7.59000000000015 0.399999999999977 7.59000000000015 Z"/></mask></defs><g><path fill="#fff" fill-opacity="0" fill-rule="nonzero" stroke="none" d="M 0.399999999999977 7.59000000000015 C 0.399999999999977 7.59000000000015 7.10000000000002 0.590000000000146 7.10000000000002 0.590000000000146 C 7.10000000000002 0.590000000000146 12.8 7.59000000000015 12.8 7.59000000000015 C 12.8 7.59000000000015 7.10000000000002 13.5900000000001 7.10000000000002 13.5900000000001 C 7.10000000000002 13.5900000000001 0.399999999999977 7.59000000000015 0.399999999999977 7.59000000000015 Z" transform="matrix(1 0 0 1 -501 -9009 ) matrix(1 0 0 1 501 9009 )"/><path fill="none" stroke="#d4cdc7" stroke-width="2" d="M 0.399999999999977 7.59000000000015 C 0.399999999999977 7.59000000000015 7.10000000000002 0.590000000000146 7.10000000000002 0.590000000000146 C 7.10000000000002 0.590000000000146 12.8 7.59000000000015 12.8 7.59000000000015 C 12.8 7.59000000000015 7.10000000000002 13.5900000000001 7.10000000000002 13.5900000000001 C 7.10000000000002 13.5900000000001 0.399999999999977 7.59000000000015 0.399999999999977 7.59000000000015 Z" mask="url(#clip1978)" transform="matrix(1 0 0 1 -501 -9009 ) matrix(1 0 0 1 501 9009 )"/></g></svg>