<svg xmlns="http://www.w3.org/2000/svg" xmlns:xlink="http://www.w3.org/1999/xlink" width="14" height="14" version="1.1"><defs><mask id="clip1998" fill="#fff"><path fill-rule="evenodd" d="M 6.5 0.190000000000509 C 9.69999999999999 0.190000000000509 13.2 3.88999999999942 13.2 7.19000000000051 C 13.2 10.4899999999998 9.69999999999999 13.1900000000005 6.5 13.1900000000005 C 3.39999999999998 13.1900000000005 0.899999999999977 10.4899999999998 0.899999999999977 7.19000000000051 C 0.899999999999977 3.88999999999942 3.39999999999998 0.190000000000509 6.5 0.190000000000509 Z"/></mask></defs><g><path fill="#fff" fill-opacity="0" fill-rule="nonzero" stroke="none" d="M 6.5 0.190000000000509 C 9.69999999999999 0.190000000000509 13.2 3.88999999999942 13.2 7.19000000000051 C 13.2 10.4899999999998 9.69999999999999 13.1900000000005 6.5 13.1900000000005 C 3.39999999999998 13.1900000000005 0.899999999999977 10.4899999999998 0.899999999999977 7.19000000000051 C 0.899999999999977 3.88999999999942 3.39999999999998 0.190000000000509 6.5 0.190000000000509 Z" transform="matrix(1 0 0 1 -367 -9036 ) matrix(1 0 0 1 367 9036 )"/><path fill="none" stroke="#00ae9d" stroke-width="2" d="M 6.5 0.190000000000509 C 9.69999999999999 0.190000000000509 13.2 3.88999999999942 13.2 7.19000000000051 C 13.2 10.4899999999998 9.69999999999999 13.1900000000005 6.5 13.1900000000005 C 3.39999999999998 13.1900000000005 0.899999999999977 10.4899999999998 0.899999999999977 7.19000000000051 C 0.899999999999977 3.88999999999942 3.39999999999998 0.190000000000509 6.5 0.190000000000509 Z" mask="url(#clip1998)" transform="matrix(1 0 0 1 -367 -9036 ) matrix(1 0 0 1 367 9036 )"/></g></svg>