<svg xmlns="http://www.w3.org/2000/svg" xmlns:xlink="http://www.w3.org/1999/xlink" width="14" height="14" version="1.1"><defs><mask id="clip1976" fill="#fff"><path fill-rule="evenodd" d="M 0.899999999999977 7.29000000000087 C 0.899999999999977 7.29000000000087 6.5 0.290000000000873 6.5 0.290000000000873 C 6.5 0.290000000000873 13.2 7.29000000000087 13.2 7.29000000000087 C 13.2 7.29000000000087 6.5 13.2900000000009 6.5 13.2900000000009 C 6.5 13.2900000000009 0.899999999999977 7.29000000000087 0.899999999999977 7.29000000000087 Z"/></mask></defs><g><path fill="#fff" fill-opacity="0" fill-rule="nonzero" stroke="none" d="M 0.899999999999977 7.29000000000087 C 0.899999999999977 7.29000000000087 6.5 0.290000000000873 6.5 0.290000000000873 C 6.5 0.290000000000873 13.2 7.29000000000087 13.2 7.29000000000087 C 13.2 7.29000000000087 6.5 13.2900000000009 6.5 13.2900000000009 C 6.5 13.2900000000009 0.899999999999977 7.29000000000087 0.899999999999977 7.29000000000087 Z" transform="matrix(1 0 0 1 -367 -8937 ) matrix(1 0 0 1 367 8937 )"/><path fill="none" stroke="#d4cdc7" stroke-width="2" d="M 0.899999999999977 7.29000000000087 C 0.899999999999977 7.29000000000087 6.5 0.290000000000873 6.5 0.290000000000873 C 6.5 0.290000000000873 13.2 7.29000000000087 13.2 7.29000000000087 C 13.2 7.29000000000087 6.5 13.2900000000009 6.5 13.2900000000009 C 6.5 13.2900000000009 0.899999999999977 7.29000000000087 0.899999999999977 7.29000000000087 Z" mask="url(#clip1976)" transform="matrix(1 0 0 1 -367 -8937 ) matrix(1 0 0 1 367 8937 )"/></g></svg>