<svg xmlns="http://www.w3.org/2000/svg" xmlns:xlink="http://www.w3.org/1999/xlink" width="13" height="14" version="1.1"><defs><mask id="clip1994" fill="#fff"><path fill-rule="evenodd" d="M 7 0.889999999999986 C 10.1 0.889999999999986 12.7 4.59000000000003 12.7 7.88999999999999 C 12.7 11.1900000000001 10.1 13.89 7 13.89 C 3.90000000000001 13.89 0.300000000000011 11.1900000000001 0.300000000000011 7.88999999999999 C 0.300000000000011 4.59000000000003 3.90000000000001 0.889999999999986 7 0.889999999999986 Z"/></mask></defs><g><path fill="#00ae9d" fill-rule="nonzero" stroke="none" d="M 7 0.889999999999986 C 10.1 0.889999999999986 12.7 4.59000000000003 12.7 7.88999999999999 C 12.7 11.1900000000001 10.1 13.89 7 13.89 C 3.90000000000001 13.89 0.300000000000011 11.1900000000001 0.300000000000011 7.88999999999999 C 0.300000000000011 4.59000000000003 3.90000000000001 0.889999999999986 7 0.889999999999986 Z" transform="matrix(1 0 0 1 -234 -9119 ) matrix(1 0 0 1 234 9119 )"/><path fill="none" stroke="#00ae9d" stroke-width="2" d="M 7 0.889999999999986 C 10.1 0.889999999999986 12.7 4.59000000000003 12.7 7.88999999999999 C 12.7 11.1900000000001 10.1 13.89 7 13.89 C 3.90000000000001 13.89 0.300000000000011 11.1900000000001 0.300000000000011 7.88999999999999 C 0.300000000000011 4.59000000000003 3.90000000000001 0.889999999999986 7 0.889999999999986 Z" mask="url(#clip1994)" transform="matrix(1 0 0 1 -234 -9119 ) matrix(1 0 0 1 234 9119 )"/></g></svg>