<svg xmlns="http://www.w3.org/2000/svg" xmlns:xlink="http://www.w3.org/1999/xlink" width="13" height="14" version="1.1"><defs><mask id="clip1974" fill="#fff"><path fill-rule="evenodd" d="M 0.300000000000011 7.09000000000003 C 0.300000000000011 7.09000000000003 7 0.0900000000000318 7 0.0900000000000318 C 7 0.0900000000000318 12.7 7.09000000000003 12.7 7.09000000000003 C 12.7 7.09000000000003 7 13.09 7 13.09 C 7 13.09 0.300000000000011 7.09000000000003 0.300000000000011 7.09000000000003 Z"/></mask></defs><g><path fill="#d4cdc7" fill-rule="nonzero" stroke="none" d="M 0.300000000000011 7.09000000000003 C 0.300000000000011 7.09000000000003 7 0.0900000000000318 7 0.0900000000000318 C 7 0.0900000000000318 12.7 7.09000000000003 12.7 7.09000000000003 C 12.7 7.09000000000003 7 13.09 7 13.09 C 7 13.09 0.300000000000011 7.09000000000003 0.300000000000011 7.09000000000003 Z" transform="matrix(1 0 0 1 -234 -8960 ) matrix(1 0 0 1 234 8960 )"/><path fill="none" stroke="#d4cdc7" stroke-width="2" d="M 0.300000000000011 7.09000000000003 C 0.300000000000011 7.09000000000003 7 0.0900000000000318 7 0.0900000000000318 C 7 0.0900000000000318 12.7 7.09000000000003 12.7 7.09000000000003 C 12.7 7.09000000000003 7 13.09 7 13.09 C 7 13.09 0.300000000000011 7.09000000000003 0.300000000000011 7.09000000000003 Z" mask="url(#clip1974)" transform="matrix(1 0 0 1 -234 -8960 ) matrix(1 0 0 1 234 8960 )"/></g></svg>