<?xml version="1.0" encoding="utf-8"?>
<svg version="1.1" xmlns:xlink="http://www.w3.org/1999/xlink" width="313px" height="42px" xmlns="http://www.w3.org/2000/svg">
  <defs>
    <mask fill="white" id="clip747">
      <path d="M 11.89 41.23  C 11.89 41.23  300.79 41.23  300.79 41.23  C 307.09 41.23  312.19 36.13  312.19 29.83  C 312.19 29.83  312.19 11.43  312.19 11.43  C 312.19 5.23000000000002  307.09 0.129999999999995  300.79 0.129999999999995  C 300.79 0.129999999999995  11.89 0.129999999999995  11.89 0.129999999999995  C 5.69 0.129999999999995  0.590000000000003 5.23000000000002  0.590000000000003 11.43  C 0.590000000000003 11.43  0.590000000000003 29.83  0.590000000000003 29.83  C 0.590000000000003 36.13  5.69 41.23  11.89 41.23  Z " fill-rule="evenodd" />
    </mask>
  </defs>
  <g transform="matrix(1 0 0 1 -143 -13174 )">
    <path d="M 11.89 41.23  C 11.89 41.23  300.79 41.23  300.79 41.23  C 307.09 41.23  312.19 36.13  312.19 29.83  C 312.19 29.83  312.19 11.43  312.19 11.43  C 312.19 5.23000000000002  307.09 0.129999999999995  300.79 0.129999999999995  C 300.79 0.129999999999995  11.89 0.129999999999995  11.89 0.129999999999995  C 5.69 0.129999999999995  0.590000000000003 5.23000000000002  0.590000000000003 11.43  C 0.590000000000003 11.43  0.590000000000003 29.83  0.590000000000003 29.83  C 0.590000000000003 36.13  5.69 41.23  11.89 41.23  Z " fill-rule="nonzero" fill="#ffaf00" stroke="none" transform="matrix(1 0 0 1 143 13174 )" />
    <path d="M 11.89 41.23  C 11.89 41.23  300.79 41.23  300.79 41.23  C 307.09 41.23  312.19 36.13  312.19 29.83  C 312.19 29.83  312.19 11.43  312.19 11.43  C 312.19 5.23000000000002  307.09 0.129999999999995  300.79 0.129999999999995  C 300.79 0.129999999999995  11.89 0.129999999999995  11.89 0.129999999999995  C 5.69 0.129999999999995  0.590000000000003 5.23000000000002  0.590000000000003 11.43  C 0.590000000000003 11.43  0.590000000000003 29.83  0.590000000000003 29.83  C 0.590000000000003 36.13  5.69 41.23  11.89 41.23  Z " stroke-width="2" stroke="#ffaf00" fill="none" transform="matrix(1 0 0 1 143 13174 )" mask="url(#clip747)" />
  </g>
</svg>