<svg xmlns="http://www.w3.org/2000/svg" xmlns:xlink="http://www.w3.org/1999/xlink" width="14" height="14" version="1.1"><defs><mask id="clip1981" fill="#fff"><path fill-rule="evenodd" d="M 0.700000000000045 7.29000000000087 C 0.700000000000045 7.29000000000087 7.39999999999998 0.290000000000873 7.39999999999998 0.290000000000873 C 7.39999999999998 0.290000000000873 13.1 7.29000000000087 13.1 7.29000000000087 C 13.1 7.29000000000087 7.39999999999998 13.2900000000009 7.39999999999998 13.2900000000009 C 7.39999999999998 13.2900000000009 0.700000000000045 7.29000000000087 0.700000000000045 7.29000000000087 Z"/></mask></defs><g><path fill="#fff" fill-opacity="0" fill-rule="nonzero" stroke="none" d="M 0.700000000000045 7.29000000000087 C 0.700000000000045 7.29000000000087 7.39999999999998 0.290000000000873 7.39999999999998 0.290000000000873 C 7.39999999999998 0.290000000000873 13.1 7.29000000000087 13.1 7.29000000000087 C 13.1 7.29000000000087 7.39999999999998 13.2900000000009 7.39999999999998 13.2900000000009 C 7.39999999999998 13.2900000000009 0.700000000000045 7.29000000000087 0.700000000000045 7.29000000000087 Z" transform="matrix(1 0 0 1 -701 -9093 ) matrix(1 0 0 1 701 9093 )"/><path fill="none" stroke="#d4cdc7" stroke-width="2" d="M 0.700000000000045 7.29000000000087 C 0.700000000000045 7.29000000000087 7.39999999999998 0.290000000000873 7.39999999999998 0.290000000000873 C 7.39999999999998 0.290000000000873 13.1 7.29000000000087 13.1 7.29000000000087 C 13.1 7.29000000000087 7.39999999999998 13.2900000000009 7.39999999999998 13.2900000000009 C 7.39999999999998 13.2900000000009 0.700000000000045 7.29000000000087 0.700000000000045 7.29000000000087 Z" mask="url(#clip1981)" transform="matrix(1 0 0 1 -701 -9093 ) matrix(1 0 0 1 701 9093 )"/></g></svg>