<?xml version="1.0" encoding="utf-8"?>
<svg version="1.1" xmlns:xlink="http://www.w3.org/1999/xlink" width="313px" height="42px" xmlns="http://www.w3.org/2000/svg">
  <defs>
    <mask fill="white" id="clip660">
      <path d="M 11.89 41.6  C 11.89 41.6  300.79 41.6  300.79 41.6  C 307.09 41.6  312.19 36.5  312.19 30.2  C 312.19 30.2  312.19 11.8  312.19 11.8  C 312.19 5.60000000000002  307.09 0.5  300.79 0.5  C 300.79 0.5  11.89 0.5  11.89 0.5  C 5.69 0.5  0.590000000000003 5.60000000000002  0.590000000000003 11.8  C 0.590000000000003 11.8  0.590000000000003 30.2  0.590000000000003 30.2  C 0.590000000000003 36.5  5.69 41.6  11.89 41.6  Z " fill-rule="evenodd" />
    </mask>
  </defs>
  <g transform="matrix(1 0 0 1 -143 -12804 )">
    <path d="M 11.89 41.6  C 11.89 41.6  300.79 41.6  300.79 41.6  C 307.09 41.6  312.19 36.5  312.19 30.2  C 312.19 30.2  312.19 11.8  312.19 11.8  C 312.19 5.60000000000002  307.09 0.5  300.79 0.5  C 300.79 0.5  11.89 0.5  11.89 0.5  C 5.69 0.5  0.590000000000003 5.60000000000002  0.590000000000003 11.8  C 0.590000000000003 11.8  0.590000000000003 30.2  0.590000000000003 30.2  C 0.590000000000003 36.5  5.69 41.6  11.89 41.6  Z " fill-rule="nonzero" fill="#1bbc9d" stroke="none" transform="matrix(1 0 0 1 143 12804 )" />
    <path d="M 11.89 41.6  C 11.89 41.6  300.79 41.6  300.79 41.6  C 307.09 41.6  312.19 36.5  312.19 30.2  C 312.19 30.2  312.19 11.8  312.19 11.8  C 312.19 5.60000000000002  307.09 0.5  300.79 0.5  C 300.79 0.5  11.89 0.5  11.89 0.5  C 5.69 0.5  0.590000000000003 5.60000000000002  0.590000000000003 11.8  C 0.590000000000003 11.8  0.590000000000003 30.2  0.590000000000003 30.2  C 0.590000000000003 36.5  5.69 41.6  11.89 41.6  Z " stroke-width="2" stroke="#1bbc9d" fill="none" transform="matrix(1 0 0 1 143 12804 )" mask="url(#clip660)" />
  </g>
</svg>