<?xml version="1.0" encoding="utf-8"?>
<svg version="1.1" xmlns:xlink="http://www.w3.org/1999/xlink" width="38px" height="41px" xmlns="http://www.w3.org/2000/svg">
  <defs>
    <mask fill="white" id="clip762">
      <path d="M 6.72000000000003 27.88  C 8.92000000000007 27.88  10.72 31.6800000000001  10.72 33.88  C 10.72 36.08  8.92000000000007 37.88  6.72000000000003 37.88  C 4.51999999999998 37.88  0.720000000000027 36.08  0.720000000000027 33.88  C 0.720000000000027 31.6800000000001  4.51999999999998 27.88  6.72000000000003 27.88  Z " fill-rule="evenodd" />
    </mask>
  </defs>
  <g transform="matrix(1 0 0 1 -1004 -13062 )">
    <path d="M 6.72000000000003 27.88  C 8.92000000000007 27.88  10.72 31.6800000000001  10.72 33.88  C 10.72 36.08  8.92000000000007 37.88  6.72000000000003 37.88  C 4.51999999999998 37.88  0.720000000000027 36.08  0.720000000000027 33.88  C 0.720000000000027 31.6800000000001  4.51999999999998 27.88  6.72000000000003 27.88  Z " fill-rule="nonzero" fill="#ffffff" stroke="none" fill-opacity="0" transform="matrix(1 0 0 1 1005 13063 )" />
    <path d="M 6.72000000000003 27.88  C 8.92000000000007 27.88  10.72 31.6800000000001  10.72 33.88  C 10.72 36.08  8.92000000000007 37.88  6.72000000000003 37.88  C 4.51999999999998 37.88  0.720000000000027 36.08  0.720000000000027 33.88  C 0.720000000000027 31.6800000000001  4.51999999999998 27.88  6.72000000000003 27.88  Z " stroke-width="4" stroke="#268ea8" fill="none" transform="matrix(1 0 0 1 1005 13063 )" mask="url(#clip762)" />
    <path d="M 34.4200000000001 0.680000000000064  L 5.72000000000003 32.88  " stroke-width="2" stroke="#268ea8" fill="none" transform="matrix(1 0 0 1 1005 13063 )" mask="url(#clip762)" />
  </g>
</svg>