<svg xmlns="http://www.w3.org/2000/svg" xmlns:xlink="http://www.w3.org/1999/xlink" width="13" height="13" version="1.1"><defs><mask id="clip2006" fill="#fff"><path fill-rule="evenodd" d="M 6.93000000000001 0.210000000000036 C 10.03 0.210000000000036 12.63 3.81000000000006 12.63 6.91000000000008 C 12.63 10.0100000000001 10.03 12.6100000000001 6.93000000000001 12.6100000000001 C 3.82999999999998 12.6100000000001 0.230000000000018 10.0100000000001 0.230000000000018 6.91000000000008 C 0.230000000000018 3.81000000000006 3.82999999999998 0.210000000000036 6.93000000000001 0.210000000000036 Z"/></mask></defs><g><path fill="#595757" fill-rule="nonzero" stroke="none" d="M 6.93000000000001 0.210000000000036 C 10.03 0.210000000000036 12.63 3.81000000000006 12.63 6.91000000000008 C 12.63 10.0100000000001 10.03 12.6100000000001 6.93000000000001 12.6100000000001 C 3.82999999999998 12.6100000000001 0.230000000000018 10.0100000000001 0.230000000000018 6.91000000000008 C 0.230000000000018 3.81000000000006 3.82999999999998 0.210000000000036 6.93000000000001 0.210000000000036 Z" transform="matrix(1 0 0 1 -420 -9266 ) matrix(1 0 0 1 420 9266 )"/><path fill="none" stroke="#595757" stroke-width="2" d="M 6.93000000000001 0.210000000000036 C 10.03 0.210000000000036 12.63 3.81000000000006 12.63 6.91000000000008 C 12.63 10.0100000000001 10.03 12.6100000000001 6.93000000000001 12.6100000000001 C 3.82999999999998 12.6100000000001 0.230000000000018 10.0100000000001 0.230000000000018 6.91000000000008 C 0.230000000000018 3.81000000000006 3.82999999999998 0.210000000000036 6.93000000000001 0.210000000000036 Z" mask="url(#clip2006)" transform="matrix(1 0 0 1 -420 -9266 ) matrix(1 0 0 1 420 9266 )"/></g></svg>