<?xml version="1.0" encoding="utf-8"?>
<svg version="1.1" xmlns:xlink="http://www.w3.org/1999/xlink" width="14px" height="52px" xmlns="http://www.w3.org/2000/svg">
  <defs>
    <mask fill="white" id="clip604">
      <path d="M 4.23000000000002 0.600000000000023  C 6.43000000000006 0.600000000000023  10.23 4.39999999999998  10.23 6.60000000000002  C 10.23 8.80000000000001  6.43000000000006 10.6  4.23000000000002 10.6  C 2.03000000000009 10.6  0.230000000000018 8.80000000000001  0.230000000000018 6.60000000000002  C 0.230000000000018 4.39999999999998  2.03000000000009 0.600000000000023  4.23000000000002 0.600000000000023  Z " fill-rule="evenodd" />
    </mask>
  </defs>
  <g transform="matrix(1 0 0 1 -962 -12658 )">
    <path d="M 4.23000000000002 0.600000000000023  C 6.43000000000006 0.600000000000023  10.23 4.39999999999998  10.23 6.60000000000002  C 10.23 8.80000000000001  6.43000000000006 10.6  4.23000000000002 10.6  C 2.03000000000009 10.6  0.230000000000018 8.80000000000001  0.230000000000018 6.60000000000002  C 0.230000000000018 4.39999999999998  2.03000000000009 0.600000000000023  4.23000000000002 0.600000000000023  Z " fill-rule="nonzero" fill="#ffffff" stroke="none" fill-opacity="0" transform="matrix(1 0 0 1 963 12659 )" />
    <path d="M 4.23000000000002 0.600000000000023  C 6.43000000000006 0.600000000000023  10.23 4.39999999999998  10.23 6.60000000000002  C 10.23 8.80000000000001  6.43000000000006 10.6  4.23000000000002 10.6  C 2.03000000000009 10.6  0.230000000000018 8.80000000000001  0.230000000000018 6.60000000000002  C 0.230000000000018 4.39999999999998  2.03000000000009 0.600000000000023  4.23000000000002 0.600000000000023  Z " stroke-width="4" stroke="#2d85c1" fill="none" transform="matrix(1 0 0 1 963 12659 )" mask="url(#clip604)" />
    <path d="M 2.73000000000002 48.7  L 5.23000000000002 5.60000000000002  " stroke-width="2" stroke="#2d85c1" fill="none" transform="matrix(1 0 0 1 963 12659 )" mask="url(#clip604)" />
  </g>
</svg>