<?xml version="1.0" encoding="utf-8"?>
<svg version="1.1" xmlns:xlink="http://www.w3.org/1999/xlink" width="29px" height="14px" xmlns="http://www.w3.org/2000/svg">
  <defs>
    <mask fill="white" id="clip757">
      <path d="M 11.91 0.520000000000039  C 14.01 0.520000000000039  17.71 4.22000000000003  17.71 6.32000000000005  C 17.71 8.42000000000007  14.01 10.1200000000001  11.91 10.1200000000001  C 9.90999999999997 10.1200000000001  8.21000000000004 8.42000000000007  8.21000000000004 6.32000000000005  C 8.21000000000004 4.22000000000003  9.90999999999997 0.520000000000039  11.91 0.520000000000039  Z " fill-rule="evenodd" />
    </mask>
  </defs>
  <g transform="matrix(1 0 0 1 -851 -12877 )">
    <path d="M 11.91 0.520000000000039  C 14.01 0.520000000000039  17.71 4.22000000000003  17.71 6.32000000000005  C 17.71 8.42000000000007  14.01 10.1200000000001  11.91 10.1200000000001  C 9.90999999999997 10.1200000000001  8.21000000000004 8.42000000000007  8.21000000000004 6.32000000000005  C 8.21000000000004 4.22000000000003  9.90999999999997 0.520000000000039  11.91 0.520000000000039  Z " fill-rule="nonzero" fill="#ffffff" stroke="none" fill-opacity="0" transform="matrix(1 0 0 1 852 12878 )" />
    <path d="M 11.91 0.520000000000039  C 14.01 0.520000000000039  17.71 4.22000000000003  17.71 6.32000000000005  C 17.71 8.42000000000007  14.01 10.1200000000001  11.91 10.1200000000001  C 9.90999999999997 10.1200000000001  8.21000000000004 8.42000000000007  8.21000000000004 6.32000000000005  C 8.21000000000004 4.22000000000003  9.90999999999997 0.520000000000039  11.91 0.520000000000039  Z " stroke-width="4" stroke="#268ea8" fill="none" transform="matrix(1 0 0 1 852 12878 )" mask="url(#clip757)" />
    <path d="M 0.610000000000014 5.32000000000005  L 25.3100000000001 5.32000000000005  " stroke-width="2" stroke="#268ea8" fill="none" transform="matrix(1 0 0 1 852 12878 )" mask="url(#clip757)" />
  </g>
</svg>