<svg xmlns="http://www.w3.org/2000/svg" xmlns:xlink="http://www.w3.org/1999/xlink" width="91" height="38" version="1.1"><defs><mask id="clip2001" fill="#fff"><path fill-rule="evenodd" d="M 0.710000000000036 1.90999999999997 C 0.710000000000036 1.11000000000001 1.50999999999999 0.409999999999968 2.61000000000001 0.409999999999968 C 2.61000000000001 0.409999999999968 88.11 0.409999999999968 88.11 0.409999999999968 C 89.21 0.409999999999968 90.11 1.11000000000001 90.11 1.90999999999997 C 90.11 1.90999999999997 90.11 36.3099999999999 90.11 36.3099999999999 C 90.11 37.11 89.21 37.8099999999999 88.11 37.8099999999999 C 88.11 37.8099999999999 2.61000000000001 37.8099999999999 2.61000000000001 37.8099999999999 C 1.50999999999999 37.8099999999999 0.710000000000036 37.11 0.710000000000036 36.3099999999999 C 0.710000000000036 36.3099999999999 0.710000000000036 1.90999999999997 0.710000000000036 1.90999999999997 Z"/></mask></defs><g><path fill="#fff" fill-opacity=".098" fill-rule="nonzero" stroke="none" d="M 0.710000000000036 1.90999999999997 C 0.710000000000036 1.11000000000001 1.50999999999999 0.409999999999968 2.61000000000001 0.409999999999968 C 2.61000000000001 0.409999999999968 88.11 0.409999999999968 88.11 0.409999999999968 C 89.21 0.409999999999968 90.11 1.11000000000001 90.11 1.90999999999997 C 90.11 1.90999999999997 90.11 36.3099999999999 90.11 36.3099999999999 C 90.11 37.11 89.21 37.8099999999999 88.11 37.8099999999999 C 88.11 37.8099999999999 2.61000000000001 37.8099999999999 2.61000000000001 37.8099999999999 C 1.50999999999999 37.8099999999999 0.710000000000036 37.11 0.710000000000036 36.3099999999999 C 0.710000000000036 36.3099999999999 0.710000000000036 1.90999999999997 0.710000000000036 1.90999999999997 Z" transform="matrix(1 0 0 1 -812 -9139 ) matrix(1 0 0 1 812 9139 )"/><path fill="none" stroke="#fff" stroke-opacity=".498" stroke-width="2" d="M 0.710000000000036 1.90999999999997 C 0.710000000000036 1.11000000000001 1.50999999999999 0.409999999999968 2.61000000000001 0.409999999999968 C 2.61000000000001 0.409999999999968 88.11 0.409999999999968 88.11 0.409999999999968 C 89.21 0.409999999999968 90.11 1.11000000000001 90.11 1.90999999999997 C 90.11 1.90999999999997 90.11 36.3099999999999 90.11 36.3099999999999 C 90.11 37.11 89.21 37.8099999999999 88.11 37.8099999999999 C 88.11 37.8099999999999 2.61000000000001 37.8099999999999 2.61000000000001 37.8099999999999 C 1.50999999999999 37.8099999999999 0.710000000000036 37.11 0.710000000000036 36.3099999999999 C 0.710000000000036 36.3099999999999 0.710000000000036 1.90999999999997 0.710000000000036 1.90999999999997 Z" mask="url(#clip2001)" transform="matrix(1 0 0 1 -812 -9139 ) matrix(1 0 0 1 812 9139 )"/></g></svg>