<svg xmlns="http://www.w3.org/2000/svg" xmlns:xlink="http://www.w3.org/1999/xlink" width="13" height="14" version="1.1"><defs><mask id="clip2000" fill="#fff"><path fill-rule="evenodd" d="M 7.10000000000002 0.0900000000001455 C 10.2 0.0900000000001455 12.8 3.79000000000087 12.8 7.09000000000014 C 12.8 10.3899999999994 10.2 13.0900000000001 7.10000000000002 13.0900000000001 C 4 13.0900000000001 0.399999999999977 10.3899999999994 0.399999999999977 7.09000000000014 C 0.399999999999977 3.79000000000087 4 0.0900000000001455 7.10000000000002 0.0900000000001455 Z"/></mask></defs><g><path fill="#fff" fill-opacity="0" fill-rule="nonzero" stroke="none" d="M 7.10000000000002 0.0900000000001455 C 10.2 0.0900000000001455 12.8 3.79000000000087 12.8 7.09000000000014 C 12.8 10.3899999999994 10.2 13.0900000000001 7.10000000000002 13.0900000000001 C 4 13.0900000000001 0.399999999999977 10.3899999999994 0.399999999999977 7.09000000000014 C 0.399999999999977 3.79000000000087 4 0.0900000000001455 7.10000000000002 0.0900000000001455 Z" transform="matrix(1 0 0 1 -501 -8960 ) matrix(1 0 0 1 501 8960 )"/><path fill="none" stroke="#00ae9d" stroke-width="2" d="M 7.10000000000002 0.0900000000001455 C 10.2 0.0900000000001455 12.8 3.79000000000087 12.8 7.09000000000014 C 12.8 10.3899999999994 10.2 13.0900000000001 7.10000000000002 13.0900000000001 C 4 13.0900000000001 0.399999999999977 10.3899999999994 0.399999999999977 7.09000000000014 C 0.399999999999977 3.79000000000087 4 0.0900000000001455 7.10000000000002 0.0900000000001455 Z" mask="url(#clip2000)" transform="matrix(1 0 0 1 -501 -8960 ) matrix(1 0 0 1 501 8960 )"/></g></svg>