<svg xmlns="http://www.w3.org/2000/svg" xmlns:xlink="http://www.w3.org/1999/xlink" width="14" height="14" version="1.1"><defs><mask id="clip2004" fill="#fff"><path fill-rule="evenodd" d="M 7.39999999999998 0.889999999999418 C 10.5 0.889999999999418 13.1 4.59000000000015 13.1 7.88999999999942 C 13.1 11.1900000000005 10.5 13.8899999999994 7.39999999999998 13.8899999999994 C 4.29999999999995 13.8899999999994 0.700000000000045 11.1900000000005 0.700000000000045 7.88999999999942 C 0.700000000000045 4.59000000000015 4.29999999999995 0.889999999999418 7.39999999999998 0.889999999999418 Z"/></mask></defs><g><path fill="#fff" fill-opacity="0" fill-rule="nonzero" stroke="none" d="M 7.39999999999998 0.889999999999418 C 10.5 0.889999999999418 13.1 4.59000000000015 13.1 7.88999999999942 C 13.1 11.1900000000005 10.5 13.8899999999994 7.39999999999998 13.8899999999994 C 4.29999999999995 13.8899999999994 0.700000000000045 11.1900000000005 0.700000000000045 7.88999999999942 C 0.700000000000045 4.59000000000015 4.29999999999995 0.889999999999418 7.39999999999998 0.889999999999418 Z" transform="matrix(1 0 0 1 -701 -8845 ) matrix(1 0 0 1 701 8845 )"/><path fill="none" stroke="#00ae9d" stroke-width="2" d="M 7.39999999999998 0.889999999999418 C 10.5 0.889999999999418 13.1 4.59000000000015 13.1 7.88999999999942 C 13.1 11.1900000000005 10.5 13.8899999999994 7.39999999999998 13.8899999999994 C 4.29999999999995 13.8899999999994 0.700000000000045 11.1900000000005 0.700000000000045 7.88999999999942 C 0.700000000000045 4.59000000000015 4.29999999999995 0.889999999999418 7.39999999999998 0.889999999999418 Z" mask="url(#clip2004)" transform="matrix(1 0 0 1 -701 -8845 ) matrix(1 0 0 1 701 8845 )"/></g></svg>