<?xml version="1.0" encoding="utf-8"?>
<svg version="1.1" xmlns:xlink="http://www.w3.org/1999/xlink" width="37px" height="41px" xmlns="http://www.w3.org/2000/svg">
  <defs>
    <mask fill="white" id="clip664">
      <path d="M 29.83 0.699999999999989  C 32.0300000000001 0.699999999999989  33.83 4.5  33.83 6.69999999999999  C 33.83 8.89999999999998  32.0300000000001 10.7  29.83 10.7  C 27.63 10.7  23.83 8.89999999999998  23.83 6.69999999999999  C 23.83 4.5  27.63 0.699999999999989  29.83 0.699999999999989  Z " fill-rule="evenodd" />
    </mask>
  </defs>
  <g transform="matrix(1 0 0 1 -979 -12597 )">
    <path d="M 29.83 0.699999999999989  C 32.0300000000001 0.699999999999989  33.83 4.5  33.83 6.69999999999999  C 33.83 8.89999999999998  32.0300000000001 10.7  29.83 10.7  C 27.63 10.7  23.83 8.89999999999998  23.83 6.69999999999999  C 23.83 4.5  27.63 0.699999999999989  29.83 0.699999999999989  Z " fill-rule="nonzero" fill="#ffffff" stroke="none" fill-opacity="0" transform="matrix(1 0 0 1 980 12598 )" />
    <path d="M 29.83 0.699999999999989  C 32.0300000000001 0.699999999999989  33.83 4.5  33.83 6.69999999999999  C 33.83 8.89999999999998  32.0300000000001 10.7  29.83 10.7  C 27.63 10.7  23.83 8.89999999999998  23.83 6.69999999999999  C 23.83 4.5  27.63 0.699999999999989  29.83 0.699999999999989  Z " stroke-width="4" stroke="#2d85c1" fill="none" transform="matrix(1 0 0 1 980 12598 )" mask="url(#clip664)" />
    <path d="M 0.129999999999995 37.9  L 28.83 5.69999999999999  " stroke-width="2" stroke="#2d85c1" fill="none" transform="matrix(1 0 0 1 980 12598 )" mask="url(#clip664)" />
  </g>
</svg>