<?xml version="1.0" encoding="utf-8"?>
<svg version="1.1" xmlns:xlink="http://www.w3.org/1999/xlink" width="41px" height="81px" xmlns="http://www.w3.org/2000/svg">
  <defs>
    <mask fill="white" id="clip682">
      <path d="M 31.12 0.980000000000018  C 33.3200000000001 0.980000000000018  37.12 4.77999999999997  37.12 6.98000000000002  C 37.12 9.18000000000006  33.3200000000001 10.98  31.12 10.98  C 28.9200000000001 10.98  27.12 9.18000000000006  27.12 6.98000000000002  C 27.12 4.77999999999997  28.9200000000001 0.980000000000018  31.12 0.980000000000018  Z " fill-rule="evenodd" />
    </mask>
  </defs>
  <g transform="matrix(1 0 0 1 -937 -13028 )">
    <path d="M 31.12 0.980000000000018  C 33.3200000000001 0.980000000000018  37.12 4.77999999999997  37.12 6.98000000000002  C 37.12 9.18000000000006  33.3200000000001 10.98  31.12 10.98  C 28.9200000000001 10.98  27.12 9.18000000000006  27.12 6.98000000000002  C 27.12 4.77999999999997  28.9200000000001 0.980000000000018  31.12 0.980000000000018  Z " fill-rule="nonzero" fill="#ffffff" stroke="none" fill-opacity="0" transform="matrix(1 0 0 1 938 13029 )" />
    <path d="M 31.12 0.980000000000018  C 33.3200000000001 0.980000000000018  37.12 4.77999999999997  37.12 6.98000000000002  C 37.12 9.18000000000006  33.3200000000001 10.98  31.12 10.98  C 28.9200000000001 10.98  27.12 9.18000000000006  27.12 6.98000000000002  C 27.12 4.77999999999997  28.9200000000001 0.980000000000018  31.12 0.980000000000018  Z " stroke-width="4" stroke="#268ea8" fill="none" transform="matrix(1 0 0 1 938 13029 )" mask="url(#clip682)" />
    <path d="M 0.920000000000073 77.78  L 32.12 5.98000000000002  " stroke-width="2" stroke="#268ea8" fill="none" transform="matrix(1 0 0 1 938 13029 )" mask="url(#clip682)" />
  </g>
</svg>