<svg xmlns="http://www.w3.org/2000/svg" xmlns:xlink="http://www.w3.org/1999/xlink" width="13" height="14" version="1.1"><defs><mask id="clip2003" fill="#fff"><path fill-rule="evenodd" d="M 5.60000000000002 0.590000000000146 C 8.79999999999995 0.590000000000146 12.3 4.29000000000087 12.3 7.59000000000015 C 12.3 10.8899999999994 8.79999999999995 13.5900000000001 5.60000000000002 13.5900000000001 C 2.5 13.5900000000001 0 10.8899999999994 0 7.59000000000015 C 0 4.29000000000087 2.5 0.590000000000146 5.60000000000002 0.590000000000146 Z"/></mask></defs><g><path fill="#fff" fill-opacity="0" fill-rule="nonzero" stroke="none" d="M 5.60000000000002 0.590000000000146 C 8.79999999999995 0.590000000000146 12.3 4.29000000000087 12.3 7.59000000000015 C 12.3 10.8899999999994 8.79999999999995 13.5900000000001 5.60000000000002 13.5900000000001 C 2.5 13.5900000000001 0 10.8899999999994 0 7.59000000000015 C 0 4.29000000000087 2.5 0.590000000000146 5.60000000000002 0.590000000000146 Z" transform="matrix(1 0 0 1 -635 -8891 ) matrix(1 0 0 1 635 8891 )"/><path fill="none" stroke="#00ae9d" stroke-width="2" d="M 5.60000000000002 0.590000000000146 C 8.79999999999995 0.590000000000146 12.3 4.29000000000087 12.3 7.59000000000015 C 12.3 10.8899999999994 8.79999999999995 13.5900000000001 5.60000000000002 13.5900000000001 C 2.5 13.5900000000001 0 10.8899999999994 0 7.59000000000015 C 0 4.29000000000087 2.5 0.590000000000146 5.60000000000002 0.590000000000146 Z" mask="url(#clip2003)" transform="matrix(1 0 0 1 -635 -8891 ) matrix(1 0 0 1 635 8891 )"/></g></svg>