<?xml version="1.0" encoding="utf-8"?>
<svg version="1.1" xmlns:xlink="http://www.w3.org/1999/xlink" width="37px" height="41px" xmlns="http://www.w3.org/2000/svg">
  <defs>
    <mask fill="white" id="clip676">
      <path d="M 29.72 0.0800000000000409  C 31.9200000000001 0.0800000000000409  33.72 3.88  33.72 6.08000000000004  C 33.72 8.27999999999997  31.9200000000001 10.08  29.72 10.08  C 27.52 10.08  23.72 8.27999999999997  23.72 6.08000000000004  C 23.72 3.88  27.52 0.0800000000000409  29.72 0.0800000000000409  Z " fill-rule="evenodd" />
    </mask>
  </defs>
  <g transform="matrix(1 0 0 1 -981 -12968 )">
    <path d="M 29.72 0.0800000000000409  C 31.9200000000001 0.0800000000000409  33.72 3.88  33.72 6.08000000000004  C 33.72 8.27999999999997  31.9200000000001 10.08  29.72 10.08  C 27.52 10.08  23.72 8.27999999999997  23.72 6.08000000000004  C 23.72 3.88  27.52 0.0800000000000409  29.72 0.0800000000000409  Z " fill-rule="nonzero" fill="#ffffff" stroke="none" fill-opacity="0" transform="matrix(1 0 0 1 982 12969 )" />
    <path d="M 29.72 0.0800000000000409  C 31.9200000000001 0.0800000000000409  33.72 3.88  33.72 6.08000000000004  C 33.72 8.27999999999997  31.9200000000001 10.08  29.72 10.08  C 27.52 10.08  23.72 8.27999999999997  23.72 6.08000000000004  C 23.72 3.88  27.52 0.0800000000000409  29.72 0.0800000000000409  Z " stroke-width="4" stroke="#268ea8" fill="none" transform="matrix(1 0 0 1 982 12969 )" mask="url(#clip676)" />
    <path d="M 0.0199999999999818 37.28  L 28.72 5.08000000000004  " stroke-width="2" stroke="#268ea8" fill="none" transform="matrix(1 0 0 1 982 12969 )" mask="url(#clip676)" />
  </g>
</svg>