<svg xmlns="http://www.w3.org/2000/svg" xmlns:xlink="http://www.w3.org/1999/xlink" width="15" height="15" version="1.1"><defs><mask id="clip2005" fill="#fff"><path fill-rule="evenodd" d="M 0.759999999999991 7.91000000000008 C 0.759999999999991 7.91000000000008 8.36000000000001 0.310000000000059 8.36000000000001 0.310000000000059 C 8.36000000000001 0.310000000000059 14.96 7.91000000000008 14.96 7.91000000000008 C 14.96 7.91000000000008 8.36000000000001 14.5100000000001 8.36000000000001 14.5100000000001 C 8.36000000000001 14.5100000000001 0.759999999999991 7.91000000000008 0.759999999999991 7.91000000000008 Z"/></mask></defs><g><path fill="#d4cdc7" fill-rule="nonzero" stroke="none" d="M 0.759999999999991 7.91000000000008 C 0.759999999999991 7.91000000000008 8.36000000000001 0.310000000000059 8.36000000000001 0.310000000000059 C 8.36000000000001 0.310000000000059 14.96 7.91000000000008 14.96 7.91000000000008 C 14.96 7.91000000000008 8.36000000000001 14.5100000000001 8.36000000000001 14.5100000000001 C 8.36000000000001 14.5100000000001 0.759999999999991 7.91000000000008 0.759999999999991 7.91000000000008 Z" transform="matrix(1 0 0 1 -324 -9265 ) matrix(1 0 0 1 324 9265 )"/><path fill="none" stroke="#d4cdc7" stroke-width="2" d="M 0.759999999999991 7.91000000000008 C 0.759999999999991 7.91000000000008 8.36000000000001 0.310000000000059 8.36000000000001 0.310000000000059 C 8.36000000000001 0.310000000000059 14.96 7.91000000000008 14.96 7.91000000000008 C 14.96 7.91000000000008 8.36000000000001 14.5100000000001 8.36000000000001 14.5100000000001 C 8.36000000000001 14.5100000000001 0.759999999999991 7.91000000000008 0.759999999999991 7.91000000000008 Z" mask="url(#clip2005)" transform="matrix(1 0 0 1 -324 -9265 ) matrix(1 0 0 1 324 9265 )"/></g></svg>