<svg xmlns="http://www.w3.org/2000/svg" xmlns:xlink="http://www.w3.org/1999/xlink" width="14" height="13" version="1.1"><defs><mask id="clip2007" fill="#fff"><path fill-rule="evenodd" d="M 7.49000000000001 0.210000000000036 C 10.59 0.210000000000036 13.19 3.81000000000006 13.19 6.91000000000008 C 13.19 10.0100000000001 10.59 12.6100000000001 7.49000000000001 12.6100000000001 C 4.38999999999999 12.6100000000001 0.79000000000002 10.0100000000001 0.79000000000002 6.91000000000008 C 0.79000000000002 3.81000000000006 4.38999999999999 0.210000000000036 7.49000000000001 0.210000000000036 Z"/></mask></defs><g><path fill="#00ae9d" fill-rule="nonzero" stroke="none" d="M 7.49000000000001 0.210000000000036 C 10.59 0.210000000000036 13.19 3.81000000000006 13.19 6.91000000000008 C 13.19 10.0100000000001 10.59 12.6100000000001 7.49000000000001 12.6100000000001 C 4.38999999999999 12.6100000000001 0.79000000000002 10.0100000000001 0.79000000000002 6.91000000000008 C 0.79000000000002 3.81000000000006 4.38999999999999 0.210000000000036 7.49000000000001 0.210000000000036 Z" transform="matrix(1 0 0 1 -514 -9266 ) matrix(1 0 0 1 514 9266 )"/><path fill="none" stroke="#00ae9d" stroke-width="2" d="M 7.49000000000001 0.210000000000036 C 10.59 0.210000000000036 13.19 3.81000000000006 13.19 6.91000000000008 C 13.19 10.0100000000001 10.59 12.6100000000001 7.49000000000001 12.6100000000001 C 4.38999999999999 12.6100000000001 0.79000000000002 10.0100000000001 0.79000000000002 6.91000000000008 C 0.79000000000002 3.81000000000006 4.38999999999999 0.210000000000036 7.49000000000001 0.210000000000036 Z" mask="url(#clip2007)" transform="matrix(1 0 0 1 -514 -9266 ) matrix(1 0 0 1 514 9266 )"/></g></svg>