<svg xmlns="http://www.w3.org/2000/svg" xmlns:xlink="http://www.w3.org/1999/xlink" width="13" height="14" version="1.1"><defs><mask id="clip2002" fill="#fff"><path fill-rule="evenodd" d="M 6.89999999999998 0.489999999999782 C 10 0.489999999999782 12.5 4.19000000000051 12.5 7.48999999999978 C 12.5 10.7900000000009 10 13.4899999999998 6.89999999999998 13.4899999999998 C 3.70000000000005 13.4899999999998 0.200000000000045 10.7900000000009 0.200000000000045 7.48999999999978 C 0.200000000000045 4.19000000000051 3.70000000000005 0.489999999999782 6.89999999999998 0.489999999999782 Z"/></mask></defs><g><path fill="#fff" fill-opacity="0" fill-rule="nonzero" stroke="none" d="M 6.89999999999998 0.489999999999782 C 10 0.489999999999782 12.5 4.19000000000051 12.5 7.48999999999978 C 12.5 10.7900000000009 10 13.4899999999998 6.89999999999998 13.4899999999998 C 3.70000000000005 13.4899999999998 0.200000000000045 10.7900000000009 0.200000000000045 7.48999999999978 C 0.200000000000045 4.19000000000051 3.70000000000005 0.489999999999782 6.89999999999998 0.489999999999782 Z" transform="matrix(1 0 0 1 -568 -8952 ) matrix(1 0 0 1 568 8952 )"/><path fill="none" stroke="#00ae9d" stroke-width="2" d="M 6.89999999999998 0.489999999999782 C 10 0.489999999999782 12.5 4.19000000000051 12.5 7.48999999999978 C 12.5 10.7900000000009 10 13.4899999999998 6.89999999999998 13.4899999999998 C 3.70000000000005 13.4899999999998 0.200000000000045 10.7900000000009 0.200000000000045 7.48999999999978 C 0.200000000000045 4.19000000000051 3.70000000000005 0.489999999999782 6.89999999999998 0.489999999999782 Z" mask="url(#clip2002)" transform="matrix(1 0 0 1 -568 -8952 ) matrix(1 0 0 1 568 8952 )"/></g></svg>