<?xml version="1.0" encoding="utf-8"?>
<svg version="1.1" xmlns:xlink="http://www.w3.org/1999/xlink" width="67px" height="14px" xmlns="http://www.w3.org/2000/svg">
  <defs>
    <mask fill="white" id="clip612">
      <path d="M 6.97 0.379999999999995  C 9.17000000000002 0.379999999999995  10.97 4.18000000000006  10.97 6.38  C 10.97 8.58000000000004  9.17000000000002 10.38  6.97 10.38  C 4.77000000000001 10.38  0.969999999999999 8.58000000000004  0.969999999999999 6.38  C 0.969999999999999 4.18000000000006  4.77000000000001 0.379999999999995  6.97 0.379999999999995  Z " fill-rule="evenodd" />
    </mask>
  </defs>
  <g transform="matrix(1 0 0 1 -235 -13086 )">
    <path d="M 6.97 0.379999999999995  C 9.17000000000002 0.379999999999995  10.97 4.18000000000006  10.97 6.38  C 10.97 8.58000000000004  9.17000000000002 10.38  6.97 10.38  C 4.77000000000001 10.38  0.969999999999999 8.58000000000004  0.969999999999999 6.38  C 0.969999999999999 4.18000000000006  4.77000000000001 0.379999999999995  6.97 0.379999999999995  Z " fill-rule="nonzero" fill="#ffffff" stroke="none" fill-opacity="0" transform="matrix(1 0 0 1 236 13087 )" />
    <path d="M 6.97 0.379999999999995  C 9.17000000000002 0.379999999999995  10.97 4.18000000000006  10.97 6.38  C 10.97 8.58000000000004  9.17000000000002 10.38  6.97 10.38  C 4.77000000000001 10.38  0.969999999999999 8.58000000000004  0.969999999999999 6.38  C 0.969999999999999 4.18000000000006  4.77000000000001 0.379999999999995  6.97 0.379999999999995  Z " stroke-width="4" stroke="#e19a00" fill="none" transform="matrix(1 0 0 1 236 13087 )" mask="url(#clip612)" />
    <path d="M 63.37 8.88  L 5.97 5.38  " stroke-width="2" stroke="#e19a00" fill="none" transform="matrix(1 0 0 1 236 13087 )" mask="url(#clip612)" />
  </g>
</svg>