<?xml version="1.0" encoding="utf-8"?>
<svg version="1.1" xmlns:xlink="http://www.w3.org/1999/xlink" width="30px" height="47px" xmlns="http://www.w3.org/2000/svg">
  <defs>
    <mask fill="white" id="clip644">
      <path d="M 22.37 33.33  C 24.57 33.33  26.37 37.13  26.37 39.33  C 26.37 41.63  24.57 43.33  22.37 43.33  C 20.17 43.33  16.37 41.63  16.37 39.33  C 16.37 37.13  20.17 33.33  22.37 33.33  Z " fill-rule="evenodd" />
    </mask>
  </defs>
  <g transform="matrix(1 0 0 1 -471 -13644 )">
    <path d="M 22.37 33.33  C 24.57 33.33  26.37 37.13  26.37 39.33  C 26.37 41.63  24.57 43.33  22.37 43.33  C 20.17 43.33  16.37 41.63  16.37 39.33  C 16.37 37.13  20.17 33.33  22.37 33.33  Z " fill-rule="nonzero" fill="#ffffff" stroke="none" fill-opacity="0" transform="matrix(1 0 0 1 472 13645 )" />
    <path d="M 22.37 33.33  C 24.57 33.33  26.37 37.13  26.37 39.33  C 26.37 41.63  24.57 43.33  22.37 43.33  C 20.17 43.33  16.37 41.63  16.37 39.33  C 16.37 37.13  20.17 33.33  22.37 33.33  Z " stroke-width="4" stroke="#a52a2a" fill="none" transform="matrix(1 0 0 1 472 13645 )" mask="url(#clip644)" />
    <path d="M 0.0699999999999932 0.0299999999999727  L 21.37 38.33  " stroke-width="2" stroke="#a52a2a" fill="none" transform="matrix(1 0 0 1 472 13645 )" mask="url(#clip644)" />
  </g>
</svg>