<?xml version="1.0" encoding="utf-8"?>
<svg version="1.1" xmlns:xlink="http://www.w3.org/1999/xlink" width="29px" height="14px" xmlns="http://www.w3.org/2000/svg">
  <defs>
    <mask fill="white" id="clip681">
      <path d="M 12.18 0.520000000000039  C 14.28 0.520000000000039  17.98 4.22000000000003  17.98 6.32000000000005  C 17.98 8.42000000000007  14.28 10.1200000000001  12.18 10.1200000000001  C 10.18 10.1200000000001  8.48000000000002 8.42000000000007  8.48000000000002 6.32000000000005  C 8.48000000000002 4.22000000000003  10.18 0.520000000000039  12.18 0.520000000000039  Z " fill-rule="evenodd" />
    </mask>
  </defs>
  <g transform="matrix(1 0 0 1 -494 -12877 )">
    <path d="M 12.18 0.520000000000039  C 14.28 0.520000000000039  17.98 4.22000000000003  17.98 6.32000000000005  C 17.98 8.42000000000007  14.28 10.1200000000001  12.18 10.1200000000001  C 10.18 10.1200000000001  8.48000000000002 8.42000000000007  8.48000000000002 6.32000000000005  C 8.48000000000002 4.22000000000003  10.18 0.520000000000039  12.18 0.520000000000039  Z " fill-rule="nonzero" fill="#ffffff" stroke="none" fill-opacity="0" transform="matrix(1 0 0 1 495 12878 )" />
    <path d="M 12.18 0.520000000000039  C 14.28 0.520000000000039  17.98 4.22000000000003  17.98 6.32000000000005  C 17.98 8.42000000000007  14.28 10.1200000000001  12.18 10.1200000000001  C 10.18 10.1200000000001  8.48000000000002 8.42000000000007  8.48000000000002 6.32000000000005  C 8.48000000000002 4.22000000000003  10.18 0.520000000000039  12.18 0.520000000000039  Z " stroke-width="4" stroke="#476482" fill="none" transform="matrix(1 0 0 1 495 12878 )" mask="url(#clip681)" />
    <path d="M 0.879999999999995 5.32000000000005  L 25.58 5.32000000000005  " stroke-width="2" stroke="#476482" fill="none" transform="matrix(1 0 0 1 495 12878 )" mask="url(#clip681)" />
  </g>
</svg>