<?xml version="1.0" encoding="utf-8"?>
<svg version="1.1" xmlns:xlink="http://www.w3.org/1999/xlink" width="58px" height="70px" xmlns="http://www.w3.org/2000/svg">
  <defs>
    <mask fill="white" id="clip647">
      <path d="M 6.37 0.930000000000007  C 8.67000000000002 0.930000000000007  10.37 4.73000000000002  10.37 6.93000000000001  C 10.37 9.13  8.67000000000002 10.93  6.37 10.93  C 4.17000000000002 10.93  0.370000000000005 9.13  0.370000000000005 6.93000000000001  C 0.370000000000005 4.73000000000002  4.17000000000002 0.930000000000007  6.37 0.930000000000007  Z " fill-rule="evenodd" />
    </mask>
  </defs>
  <g transform="matrix(1 0 0 1 -371 -13724 )">
    <path d="M 6.37 0.930000000000007  C 8.67000000000002 0.930000000000007  10.37 4.73000000000002  10.37 6.93000000000001  C 10.37 9.13  8.67000000000002 10.93  6.37 10.93  C 4.17000000000002 10.93  0.370000000000005 9.13  0.370000000000005 6.93000000000001  C 0.370000000000005 4.73000000000002  4.17000000000002 0.930000000000007  6.37 0.930000000000007  Z " fill-rule="nonzero" fill="#ffffff" stroke="none" fill-opacity="0" transform="matrix(1 0 0 1 372 13725 )" />
    <path d="M 6.37 0.930000000000007  C 8.67000000000002 0.930000000000007  10.37 4.73000000000002  10.37 6.93000000000001  C 10.37 9.13  8.67000000000002 10.93  6.37 10.93  C 4.17000000000002 10.93  0.370000000000005 9.13  0.370000000000005 6.93000000000001  C 0.370000000000005 4.73000000000002  4.17000000000002 0.930000000000007  6.37 0.930000000000007  Z " stroke-width="4" stroke="#a52a2a" fill="none" transform="matrix(1 0 0 1 372 13725 )" mask="url(#clip647)" />
    <path d="M 54.97 66.53  L 5.37 5.93000000000001  " stroke-width="2" stroke="#a52a2a" fill="none" transform="matrix(1 0 0 1 372 13725 )" mask="url(#clip647)" />
  </g>
</svg>