<?xml version="1.0" encoding="utf-8"?>
<svg version="1.1" xmlns:xlink="http://www.w3.org/1999/xlink" width="35px" height="66px" xmlns="http://www.w3.org/2000/svg">
  <defs>
    <mask fill="white" id="clip695">
      <path d="M 27.07 0.730000000000018  C 29.27 0.730000000000018  31.07 4.53  31.07 6.73000000000002  C 31.07 8.93000000000001  29.27 10.73  27.07 10.73  C 24.77 10.73  21.07 8.93000000000001  21.07 6.73000000000002  C 21.07 4.53  24.77 0.730000000000018  27.07 0.730000000000018  Z " fill-rule="evenodd" />
    </mask>
  </defs>
  <g transform="matrix(1 0 0 1 -338 -13531 )">
    <path d="M 27.07 0.730000000000018  C 29.27 0.730000000000018  31.07 4.53  31.07 6.73000000000002  C 31.07 8.93000000000001  29.27 10.73  27.07 10.73  C 24.77 10.73  21.07 8.93000000000001  21.07 6.73000000000002  C 21.07 4.53  24.77 0.730000000000018  27.07 0.730000000000018  Z " fill-rule="nonzero" fill="#ffffff" stroke="none" fill-opacity="0" transform="matrix(1 0 0 1 339 13532 )" />
    <path d="M 27.07 0.730000000000018  C 29.27 0.730000000000018  31.07 4.53  31.07 6.73000000000002  C 31.07 8.93000000000001  29.27 10.73  27.07 10.73  C 24.77 10.73  21.07 8.93000000000001  21.07 6.73000000000002  C 21.07 4.53  24.77 0.730000000000018  27.07 0.730000000000018  Z " stroke-width="4" stroke="#a52a2a" fill="none" transform="matrix(1 0 0 1 339 13532 )" mask="url(#clip695)" />
    <path d="M 0.170000000000016 62.33  L 26.07 5.73000000000002  " stroke-width="2" stroke="#a52a2a" fill="none" transform="matrix(1 0 0 1 339 13532 )" mask="url(#clip695)" />
  </g>
</svg>