<?xml version="1.0" encoding="utf-8"?>
<svg version="1.1" xmlns:xlink="http://www.w3.org/1999/xlink" width="66px" height="33px" xmlns="http://www.w3.org/2000/svg">
  <defs>
    <mask fill="white" id="clip674">
      <path d="M 58.77 19.58  C 60.97 19.58  62.77 23.38  62.77 25.58  C 62.77 27.78  60.97 29.58  58.77 29.58  C 56.57 29.58  52.77 27.78  52.77 25.58  C 52.77 23.38  56.57 19.58  58.77 19.58  Z " fill-rule="evenodd" />
    </mask>
  </defs>
  <g transform="matrix(1 0 0 1 -298 -12952 )">
    <path d="M 58.77 19.58  C 60.97 19.58  62.77 23.38  62.77 25.58  C 62.77 27.78  60.97 29.58  58.77 29.58  C 56.57 29.58  52.77 27.78  52.77 25.58  C 52.77 23.38  56.57 19.58  58.77 19.58  Z " fill-rule="nonzero" fill="#ffffff" stroke="none" fill-opacity="0" transform="matrix(1 0 0 1 299 12953 )" />
    <path d="M 58.77 19.58  C 60.97 19.58  62.77 23.38  62.77 25.58  C 62.77 27.78  60.97 29.58  58.77 29.58  C 56.57 29.58  52.77 27.78  52.77 25.58  C 52.77 23.38  56.57 19.58  58.77 19.58  Z " stroke-width="4" stroke="#e19a00" fill="none" transform="matrix(1 0 0 1 299 12953 )" mask="url(#clip674)" />
    <path d="M 0.370000000000005 0.779999999999973  L 57.77 24.58  " stroke-width="2" stroke="#e19a00" fill="none" transform="matrix(1 0 0 1 299 12953 )" mask="url(#clip674)" />
  </g>
</svg>