<?xml version="1.0" encoding="utf-8"?>
<svg version="1.1" xmlns:xlink="http://www.w3.org/1999/xlink" width="42px" height="29px" xmlns="http://www.w3.org/2000/svg">
  <defs>
    <mask fill="white" id="clip712">
      <path d="M 6.16999999999996 0.629999999999995  C 8.37 0.629999999999995  10.17 4.43000000000001  10.17 6.63  C 10.17 8.83000000000004  8.37 10.63  6.16999999999996 10.63  C 3.97000000000003 10.63  0.169999999999959 8.83000000000004  0.169999999999959 6.63  C 0.169999999999959 4.43000000000001  3.97000000000003 0.629999999999995  6.16999999999996 0.629999999999995  Z " fill-rule="evenodd" />
    </mask>
  </defs>
  <g transform="matrix(1 0 0 1 -387 -13697 )">
    <path d="M 6.16999999999996 0.629999999999995  C 8.37 0.629999999999995  10.17 4.43000000000001  10.17 6.63  C 10.17 8.83000000000004  8.37 10.63  6.16999999999996 10.63  C 3.97000000000003 10.63  0.169999999999959 8.83000000000004  0.169999999999959 6.63  C 0.169999999999959 4.43000000000001  3.97000000000003 0.629999999999995  6.16999999999996 0.629999999999995  Z " fill-rule="nonzero" fill="#ffffff" stroke="none" fill-opacity="0" transform="matrix(1 0 0 1 388 13698 )" />
    <path d="M 6.16999999999996 0.629999999999995  C 8.37 0.629999999999995  10.17 4.43000000000001  10.17 6.63  C 10.17 8.83000000000004  8.37 10.63  6.16999999999996 10.63  C 3.97000000000003 10.63  0.169999999999959 8.83000000000004  0.169999999999959 6.63  C 0.169999999999959 4.43000000000001  3.97000000000003 0.629999999999995  6.16999999999996 0.629999999999995  Z " stroke-width="4" stroke="#008000" fill="none" transform="matrix(1 0 0 1 388 13698 )" mask="url(#clip712)" />
    <path d="M 38.97 25.93  L 5.16999999999996 5.63  " stroke-width="2" stroke="#008000" fill="none" transform="matrix(1 0 0 1 388 13698 )" mask="url(#clip712)" />
  </g>
</svg>