<?xml version="1.0" encoding="utf-8"?>
<svg version="1.1" xmlns:xlink="http://www.w3.org/1999/xlink" width="151px" height="30px" xmlns="http://www.w3.org/2000/svg">
  <defs>
    <mask fill="white" id="clip716">
      <path d="M 0.939999999999941 29.89  C 0.939999999999941 29.89  0.939999999999941 0.590000000000032  0.939999999999941 0.590000000000032  C 0.939999999999941 0.590000000000032  150.44 0.590000000000032  150.44 0.590000000000032  C 150.44 0.590000000000032  150.44 29.89  150.44 29.89  C 150.44 29.89  0.939999999999941 29.89  0.939999999999941 29.89  Z " fill-rule="evenodd" />
    </mask>
  </defs>
  <g transform="matrix(1 0 0 1 -1009 -13683 )">
    <path d="M 0.939999999999941 29.89  C 0.939999999999941 29.89  0.939999999999941 0.590000000000032  0.939999999999941 0.590000000000032  C 0.939999999999941 0.590000000000032  150.44 0.590000000000032  150.44 0.590000000000032  C 150.44 0.590000000000032  150.44 29.89  150.44 29.89  C 150.44 29.89  0.939999999999941 29.89  0.939999999999941 29.89  Z " fill-rule="nonzero" fill="#f6fafc" stroke="none" transform="matrix(1 0 0 1 1009 13683 )" />
    <path d="M 0.939999999999941 29.89  C 0.939999999999941 29.89  0.939999999999941 0.590000000000032  0.939999999999941 0.590000000000032  C 0.939999999999941 0.590000000000032  150.44 0.590000000000032  150.44 0.590000000000032  C 150.44 0.590000000000032  150.44 29.89  150.44 29.89  C 150.44 29.89  0.939999999999941 29.89  0.939999999999941 29.89  Z " stroke-width="2" stroke="#ffffff" fill="none" transform="matrix(1 0 0 1 1009 13683 )" mask="url(#clip716)" />
  </g>
</svg>