<svg xmlns="http://www.w3.org/2000/svg" xmlns:xlink="http://www.w3.org/1999/xlink" width="10" height="9" version="1.1"><defs><mask id="clip2025" fill="#fff"><path fill-rule="evenodd" d="M 5.64000000000004 0.289999999999964 C 7.74000000000001 0.289999999999964 9.44000000000005 2.99000000000001 9.44000000000005 5.08999999999992 C 9.44000000000005 7.18999999999994 7.74000000000001 8.88999999999999 5.64000000000004 8.88999999999999 C 3.54000000000002 8.88999999999999 0.840000000000032 7.18999999999994 0.840000000000032 5.08999999999992 C 0.840000000000032 2.99000000000001 3.54000000000002 0.289999999999964 5.64000000000004 0.289999999999964 Z"/></mask></defs><g><path fill="#ff6a6a" fill-rule="nonzero" stroke="none" d="M 5.64000000000004 0.289999999999964 C 7.74000000000001 0.289999999999964 9.44000000000005 2.99000000000001 9.44000000000005 5.08999999999992 C 9.44000000000005 7.18999999999994 7.74000000000001 8.88999999999999 5.64000000000004 8.88999999999999 C 3.54000000000002 8.88999999999999 0.840000000000032 7.18999999999994 0.840000000000032 5.08999999999992 C 0.840000000000032 2.99000000000001 3.54000000000002 0.289999999999964 5.64000000000004 0.289999999999964 Z" transform="matrix(1 0 0 1 -362 -12050 ) matrix(1 0 0 1 362 12050 )"/><path fill="none" stroke="#ff6a6a" stroke-width="2" d="M 5.64000000000004 0.289999999999964 C 7.74000000000001 0.289999999999964 9.44000000000005 2.99000000000001 9.44000000000005 5.08999999999992 C 9.44000000000005 7.18999999999994 7.74000000000001 8.88999999999999 5.64000000000004 8.88999999999999 C 3.54000000000002 8.88999999999999 0.840000000000032 7.18999999999994 0.840000000000032 5.08999999999992 C 0.840000000000032 2.99000000000001 3.54000000000002 0.289999999999964 5.64000000000004 0.289999999999964 Z" mask="url(#clip2025)" transform="matrix(1 0 0 1 -362 -12050 ) matrix(1 0 0 1 362 12050 )"/></g></svg>