<svg xmlns="http://www.w3.org/2000/svg" xmlns:xlink="http://www.w3.org/1999/xlink" width="9" height="9" version="1.1"><defs><mask id="clip2028" fill="#fff"><path fill-rule="evenodd" d="M 5.11000000000001 0.240000000000009 C 7.20999999999998 0.240000000000009 8.91000000000003 2.94000000000005 8.91000000000003 5.03999999999996 C 8.91000000000003 7.13999999999999 7.20999999999998 8.84000000000003 5.11000000000001 8.84000000000003 C 3.00999999999999 8.84000000000003 0.310000000000002 7.13999999999999 0.310000000000002 5.03999999999996 C 0.310000000000002 2.94000000000005 3.00999999999999 0.240000000000009 5.11000000000001 0.240000000000009 Z"/></mask></defs><g><path fill="#ff6a6a" fill-rule="nonzero" stroke="none" d="M 5.11000000000001 0.240000000000009 C 7.20999999999998 0.240000000000009 8.91000000000003 2.94000000000005 8.91000000000003 5.03999999999996 C 8.91000000000003 7.13999999999999 7.20999999999998 8.84000000000003 5.11000000000001 8.84000000000003 C 3.00999999999999 8.84000000000003 0.310000000000002 7.13999999999999 0.310000000000002 5.03999999999996 C 0.310000000000002 2.94000000000005 3.00999999999999 0.240000000000009 5.11000000000001 0.240000000000009 Z" transform="matrix(1 0 0 1 -463 -12031 ) matrix(1 0 0 1 463 12031 )"/><path fill="none" stroke="#ff6a6a" stroke-width="2" d="M 5.11000000000001 0.240000000000009 C 7.20999999999998 0.240000000000009 8.91000000000003 2.94000000000005 8.91000000000003 5.03999999999996 C 8.91000000000003 7.13999999999999 7.20999999999998 8.84000000000003 5.11000000000001 8.84000000000003 C 3.00999999999999 8.84000000000003 0.310000000000002 7.13999999999999 0.310000000000002 5.03999999999996 C 0.310000000000002 2.94000000000005 3.00999999999999 0.240000000000009 5.11000000000001 0.240000000000009 Z" mask="url(#clip2028)" transform="matrix(1 0 0 1 -463 -12031 ) matrix(1 0 0 1 463 12031 )"/></g></svg>