<?xml version="1.0" encoding="utf-8"?>
<svg version="1.1" xmlns:xlink="http://www.w3.org/1999/xlink" width="33px" height="67px" xmlns="http://www.w3.org/2000/svg">
  <defs>
    <mask fill="white" id="clip624">
      <path d="M 6.91999999999996 53.38  C 9.12 53.38  10.92 57.1800000000001  10.92 59.38  C 10.92 61.58  9.12 63.38  6.91999999999996 63.38  C 4.72000000000003 63.38  0.919999999999959 61.58  0.919999999999959 59.38  C 0.919999999999959 57.1800000000001  4.72000000000003 53.38  6.91999999999996 53.38  Z " fill-rule="evenodd" />
    </mask>
  </defs>
  <g transform="matrix(1 0 0 1 -704 -13033 )">
    <path d="M 6.91999999999996 53.38  C 9.12 53.38  10.92 57.1800000000001  10.92 59.38  C 10.92 61.58  9.12 63.38  6.91999999999996 63.38  C 4.72000000000003 63.38  0.919999999999959 61.58  0.919999999999959 59.38  C 0.919999999999959 57.1800000000001  4.72000000000003 53.38  6.91999999999996 53.38  Z " fill-rule="nonzero" fill="#ffffff" stroke="none" fill-opacity="0" transform="matrix(1 0 0 1 705 13034 )" />
    <path d="M 6.91999999999996 53.38  C 9.12 53.38  10.92 57.1800000000001  10.92 59.38  C 10.92 61.58  9.12 63.38  6.91999999999996 63.38  C 4.72000000000003 63.38  0.919999999999959 61.58  0.919999999999959 59.38  C 0.919999999999959 57.1800000000001  4.72000000000003 53.38  6.91999999999996 53.38  Z " stroke-width="4" stroke="#476482" fill="none" transform="matrix(1 0 0 1 705 13034 )" mask="url(#clip624)" />
    <path d="M 29.72 0.980000000000018  L 5.91999999999996 58.38  " stroke-width="2" stroke="#476482" fill="none" transform="matrix(1 0 0 1 705 13034 )" mask="url(#clip624)" />
  </g>
</svg>