<svg xmlns="http://www.w3.org/2000/svg" xmlns:xlink="http://www.w3.org/1999/xlink" width="9" height="10" version="1.1"><defs><mask id="clip2024" fill="#fff"><path fill-rule="evenodd" d="M 5 0.420000000000073 C 7.09999999999999 0.420000000000073 8.79999999999998 3.12000000000012 8.79999999999998 5.22000000000003 C 8.79999999999998 7.32000000000005 7.09999999999999 9.0200000000001 5 9.0200000000001 C 2.89999999999998 9.0200000000001 0.199999999999989 7.32000000000005 0.199999999999989 5.22000000000003 C 0.199999999999989 3.12000000000012 2.89999999999998 0.420000000000073 5 0.420000000000073 Z"/></mask></defs><g><path fill="#ff6a6a" fill-rule="nonzero" stroke="none" d="M 5 0.420000000000073 C 7.09999999999999 0.420000000000073 8.79999999999998 3.12000000000012 8.79999999999998 5.22000000000003 C 8.79999999999998 7.32000000000005 7.09999999999999 9.0200000000001 5 9.0200000000001 C 2.89999999999998 9.0200000000001 0.199999999999989 7.32000000000005 0.199999999999989 5.22000000000003 C 0.199999999999989 3.12000000000012 2.89999999999998 0.420000000000073 5 0.420000000000073 Z" transform="matrix(1 0 0 1 -327 -12056 ) matrix(1 0 0 1 327 12056 )"/><path fill="none" stroke="#ff6a6a" stroke-width="2" d="M 5 0.420000000000073 C 7.09999999999999 0.420000000000073 8.79999999999998 3.12000000000012 8.79999999999998 5.22000000000003 C 8.79999999999998 7.32000000000005 7.09999999999999 9.0200000000001 5 9.0200000000001 C 2.89999999999998 9.0200000000001 0.199999999999989 7.32000000000005 0.199999999999989 5.22000000000003 C 0.199999999999989 3.12000000000012 2.89999999999998 0.420000000000073 5 0.420000000000073 Z" mask="url(#clip2024)" transform="matrix(1 0 0 1 -327 -12056 ) matrix(1 0 0 1 327 12056 )"/></g></svg>