<svg xmlns="http://www.w3.org/2000/svg" xmlns:xlink="http://www.w3.org/1999/xlink" width="10" height="9" version="1.1"><defs><mask id="clip2023" fill="#fff"><path fill-rule="evenodd" d="M 5.74000000000001 0.399999999999977 C 7.84 0.399999999999977 9.53999999999999 3.10000000000002 9.53999999999999 5.19999999999993 C 9.53999999999999 7.29999999999995 7.84 9 5.74000000000001 9 C 3.63999999999999 9 0.939999999999998 7.29999999999995 0.939999999999998 5.19999999999993 C 0.939999999999998 3.10000000000002 3.63999999999999 0.399999999999977 5.74000000000001 0.399999999999977 Z"/></mask></defs><g><path fill="#ff6a6a" fill-rule="nonzero" stroke="none" d="M 5.74000000000001 0.399999999999977 C 7.84 0.399999999999977 9.53999999999999 3.10000000000002 9.53999999999999 5.19999999999993 C 9.53999999999999 7.29999999999995 7.84 9 5.74000000000001 9 C 3.63999999999999 9 0.939999999999998 7.29999999999995 0.939999999999998 5.19999999999993 C 0.939999999999998 3.10000000000002 3.63999999999999 0.399999999999977 5.74000000000001 0.399999999999977 Z" transform="matrix(1 0 0 1 -302 -12061 ) matrix(1 0 0 1 302 12061 )"/><path fill="none" stroke="#ff6a6a" stroke-width="2" d="M 5.74000000000001 0.399999999999977 C 7.84 0.399999999999977 9.53999999999999 3.10000000000002 9.53999999999999 5.19999999999993 C 9.53999999999999 7.29999999999995 7.84 9 5.74000000000001 9 C 3.63999999999999 9 0.939999999999998 7.29999999999995 0.939999999999998 5.19999999999993 C 0.939999999999998 3.10000000000002 3.63999999999999 0.399999999999977 5.74000000000001 0.399999999999977 Z" mask="url(#clip2023)" transform="matrix(1 0 0 1 -302 -12061 ) matrix(1 0 0 1 302 12061 )"/></g></svg>