<svg xmlns="http://www.w3.org/2000/svg" xmlns:xlink="http://www.w3.org/1999/xlink" width="10" height="9" version="1.1"><defs><mask id="clip2022" fill="#fff"><path fill-rule="evenodd" d="M 5.78000000000003 0.269999999999982 C 7.88000000000002 0.269999999999982 9.58000000000001 2.97000000000003 9.58000000000001 5.06999999999994 C 9.58000000000001 7.16999999999996 7.88000000000002 8.87 5.78000000000003 8.87 C 3.68000000000001 8.87 0.980000000000018 7.16999999999996 0.980000000000018 5.06999999999994 C 0.980000000000018 2.97000000000003 3.68000000000001 0.269999999999982 5.78000000000003 0.269999999999982 Z"/></mask></defs><g><path fill="#ff6a6a" fill-rule="nonzero" stroke="none" d="M 5.78000000000003 0.269999999999982 C 7.88000000000002 0.269999999999982 9.58000000000001 2.97000000000003 9.58000000000001 5.06999999999994 C 9.58000000000001 7.16999999999996 7.88000000000002 8.87 5.78000000000003 8.87 C 3.68000000000001 8.87 0.980000000000018 7.16999999999996 0.980000000000018 5.06999999999994 C 0.980000000000018 2.97000000000003 3.68000000000001 0.269999999999982 5.78000000000003 0.269999999999982 Z" transform="matrix(1 0 0 1 -312 -12065 ) matrix(1 0 0 1 312 12065 )"/><path fill="none" stroke="#ff6a6a" stroke-width="2" d="M 5.78000000000003 0.269999999999982 C 7.88000000000002 0.269999999999982 9.58000000000001 2.97000000000003 9.58000000000001 5.06999999999994 C 9.58000000000001 7.16999999999996 7.88000000000002 8.87 5.78000000000003 8.87 C 3.68000000000001 8.87 0.980000000000018 7.16999999999996 0.980000000000018 5.06999999999994 C 0.980000000000018 2.97000000000003 3.68000000000001 0.269999999999982 5.78000000000003 0.269999999999982 Z" mask="url(#clip2022)" transform="matrix(1 0 0 1 -312 -12065 ) matrix(1 0 0 1 312 12065 )"/></g></svg>