<?xml version="1.0" encoding="utf-8"?>
<svg version="1.1" xmlns:xlink="http://www.w3.org/1999/xlink" width="43px" height="29px" xmlns="http://www.w3.org/2000/svg">
  <defs>
    <mask fill="white" id="clip663">
      <path d="M 6.97000000000003 15.93  C 9.16999999999996 15.93  10.97 19.73  10.97 21.93  C 10.97 24.13  9.16999999999996 25.93  6.97000000000003 25.93  C 4.76999999999998 25.93  0.970000000000027 24.13  0.970000000000027 21.93  C 0.970000000000027 19.73  4.76999999999998 15.93  6.97000000000003 15.93  Z " fill-rule="evenodd" />
    </mask>
  </defs>
  <g transform="matrix(1 0 0 1 -420 -13702 )">
    <path d="M 6.97000000000003 15.93  C 9.16999999999996 15.93  10.97 19.73  10.97 21.93  C 10.97 24.13  9.16999999999996 25.93  6.97000000000003 25.93  C 4.76999999999998 25.93  0.970000000000027 24.13  0.970000000000027 21.93  C 0.970000000000027 19.73  4.76999999999998 15.93  6.97000000000003 15.93  Z " fill-rule="nonzero" fill="#ffffff" stroke="none" fill-opacity="0" transform="matrix(1 0 0 1 421 13703 )" />
    <path d="M 6.97000000000003 15.93  C 9.16999999999996 15.93  10.97 19.73  10.97 21.93  C 10.97 24.13  9.16999999999996 25.93  6.97000000000003 25.93  C 4.76999999999998 25.93  0.970000000000027 24.13  0.970000000000027 21.93  C 0.970000000000027 19.73  4.76999999999998 15.93  6.97000000000003 15.93  Z " stroke-width="4" stroke="#008000" fill="none" transform="matrix(1 0 0 1 421 13703 )" mask="url(#clip663)" />
    <path d="M 39.77 0.629999999999995  L 5.97000000000003 20.93  " stroke-width="2" stroke="#008000" fill="none" transform="matrix(1 0 0 1 421 13703 )" mask="url(#clip663)" />
  </g>
</svg>