<svg xmlns="http://www.w3.org/2000/svg" xmlns:xlink="http://www.w3.org/1999/xlink" width="10" height="9" version="1.1"><defs><mask id="clip2026" fill="#fff"><path fill-rule="evenodd" d="M 5.44 0.129999999999995 C 7.53999999999996 0.129999999999995 9.24000000000001 2.83000000000004 9.24000000000001 4.92999999999995 C 9.24000000000001 7.02999999999997 7.53999999999996 8.73000000000002 5.44 8.73000000000002 C 3.33999999999998 8.73000000000002 0.639999999999986 7.02999999999997 0.639999999999986 4.92999999999995 C 0.639999999999986 2.83000000000004 3.33999999999998 0.129999999999995 5.44 0.129999999999995 Z"/></mask></defs><g><path fill="#ff6a6a" fill-rule="nonzero" stroke="none" d="M 5.44 0.129999999999995 C 7.53999999999996 0.129999999999995 9.24000000000001 2.83000000000004 9.24000000000001 4.92999999999995 C 9.24000000000001 7.02999999999997 7.53999999999996 8.73000000000002 5.44 8.73000000000002 C 3.33999999999998 8.73000000000002 0.639999999999986 7.02999999999997 0.639999999999986 4.92999999999995 C 0.639999999999986 2.83000000000004 3.33999999999998 0.129999999999995 5.44 0.129999999999995 Z" transform="matrix(1 0 0 1 -402 -12044 ) matrix(1 0 0 1 402 12044 )"/><path fill="none" stroke="#ff6a6a" stroke-width="2" d="M 5.44 0.129999999999995 C 7.53999999999996 0.129999999999995 9.24000000000001 2.83000000000004 9.24000000000001 4.92999999999995 C 9.24000000000001 7.02999999999997 7.53999999999996 8.73000000000002 5.44 8.73000000000002 C 3.33999999999998 8.73000000000002 0.639999999999986 7.02999999999997 0.639999999999986 4.92999999999995 C 0.639999999999986 2.83000000000004 3.33999999999998 0.129999999999995 5.44 0.129999999999995 Z" mask="url(#clip2026)" transform="matrix(1 0 0 1 -402 -12044 ) matrix(1 0 0 1 402 12044 )"/></g></svg>