<svg xmlns="http://www.w3.org/2000/svg" xmlns:xlink="http://www.w3.org/1999/xlink" width="10" height="10" version="1.1"><defs><mask id="clip2029" fill="#fff"><path fill-rule="evenodd" d="M 5.27000000000004 0.680000000000064 C 7.37 0.680000000000064 9.07000000000005 3.38000000000011 9.07000000000005 5.48000000000002 C 9.07000000000005 7.58000000000004 7.37 9.28000000000009 5.27000000000004 9.28000000000009 C 3.17000000000002 9.28000000000009 0.470000000000027 7.58000000000004 0.470000000000027 5.48000000000002 C 0.470000000000027 3.38000000000011 3.17000000000002 0.680000000000064 5.27000000000004 0.680000000000064 Z"/></mask></defs><g><path fill="#ff6a6a" fill-rule="nonzero" stroke="none" d="M 5.27000000000004 0.680000000000064 C 7.37 0.680000000000064 9.07000000000005 3.38000000000011 9.07000000000005 5.48000000000002 C 9.07000000000005 7.58000000000004 7.37 9.28000000000009 5.27000000000004 9.28000000000009 C 3.17000000000002 9.28000000000009 0.470000000000027 7.58000000000004 0.470000000000027 5.48000000000002 C 0.470000000000027 3.38000000000011 3.17000000000002 0.680000000000064 5.27000000000004 0.680000000000064 Z" transform="matrix(1 0 0 1 -476 -12024 ) matrix(1 0 0 1 476 12024 )"/><path fill="none" stroke="#ff6a6a" stroke-width="2" d="M 5.27000000000004 0.680000000000064 C 7.37 0.680000000000064 9.07000000000005 3.38000000000011 9.07000000000005 5.48000000000002 C 9.07000000000005 7.58000000000004 7.37 9.28000000000009 5.27000000000004 9.28000000000009 C 3.17000000000002 9.28000000000009 0.470000000000027 7.58000000000004 0.470000000000027 5.48000000000002 C 0.470000000000027 3.38000000000011 3.17000000000002 0.680000000000064 5.27000000000004 0.680000000000064 Z" mask="url(#clip2029)" transform="matrix(1 0 0 1 -476 -12024 ) matrix(1 0 0 1 476 12024 )"/></g></svg>