<svg xmlns="http://www.w3.org/2000/svg" xmlns:xlink="http://www.w3.org/1999/xlink" width="10" height="9" version="1.1"><defs><mask id="clip2030" fill="#fff"><path fill-rule="evenodd" d="M 5.60000000000002 0.0499999999999545 C 7.69999999999999 0.0499999999999545 9.40000000000003 2.75 9.40000000000003 4.84999999999991 C 9.40000000000003 6.94999999999993 7.69999999999999 8.64999999999998 5.60000000000002 8.64999999999998 C 3.5 8.64999999999998 0.800000000000011 6.94999999999993 0.800000000000011 4.84999999999991 C 0.800000000000011 2.75 3.5 0.0499999999999545 5.60000000000002 0.0499999999999545 Z"/></mask></defs><g><path fill="#ff6a6a" fill-rule="nonzero" stroke="none" d="M 5.60000000000002 0.0499999999999545 C 7.69999999999999 0.0499999999999545 9.40000000000003 2.75 9.40000000000003 4.84999999999991 C 9.40000000000003 6.94999999999993 7.69999999999999 8.64999999999998 5.60000000000002 8.64999999999998 C 3.5 8.64999999999998 0.800000000000011 6.94999999999993 0.800000000000011 4.84999999999991 C 0.800000000000011 2.75 3.5 0.0499999999999545 5.60000000000002 0.0499999999999545 Z" transform="matrix(1 0 0 1 -512 -12018 ) matrix(1 0 0 1 512 12018 )"/><path fill="none" stroke="#ff6a6a" stroke-width="2" d="M 5.60000000000002 0.0499999999999545 C 7.69999999999999 0.0499999999999545 9.40000000000003 2.75 9.40000000000003 4.84999999999991 C 9.40000000000003 6.94999999999993 7.69999999999999 8.64999999999998 5.60000000000002 8.64999999999998 C 3.5 8.64999999999998 0.800000000000011 6.94999999999993 0.800000000000011 4.84999999999991 C 0.800000000000011 2.75 3.5 0.0499999999999545 5.60000000000002 0.0499999999999545 Z" mask="url(#clip2030)" transform="matrix(1 0 0 1 -512 -12018 ) matrix(1 0 0 1 512 12018 )"/></g></svg>