<svg xmlns="http://www.w3.org/2000/svg" xmlns:xlink="http://www.w3.org/1999/xlink" width="10" height="10" version="1.1"><defs><mask id="clip2040" fill="#fff"><path fill-rule="evenodd" d="M 5.4799999999999 0.509999999999991 C 7.57999999999993 0.509999999999991 9.27999999999997 3.21000000000004 9.27999999999997 5.30999999999995 C 9.27999999999997 7.40999999999997 7.57999999999993 9.11000000000001 5.4799999999999 9.11000000000001 C 3.38 9.11000000000001 0.67999999999995 7.40999999999997 0.67999999999995 5.30999999999995 C 0.67999999999995 3.21000000000004 3.38 0.509999999999991 5.4799999999999 0.509999999999991 Z"/></mask></defs><g><path fill="#ff6a6a" fill-rule="nonzero" stroke="none" d="M 5.4799999999999 0.509999999999991 C 7.57999999999993 0.509999999999991 9.27999999999997 3.21000000000004 9.27999999999997 5.30999999999995 C 9.27999999999997 7.40999999999997 7.57999999999993 9.11000000000001 5.4799999999999 9.11000000000001 C 3.38 9.11000000000001 0.67999999999995 7.40999999999997 0.67999999999995 5.30999999999995 C 0.67999999999995 3.21000000000004 3.38 0.509999999999991 5.4799999999999 0.509999999999991 Z" transform="matrix(1 0 0 1 -729 -11947 ) matrix(1 0 0 1 729 11947 )"/><path fill="none" stroke="#ff6a6a" stroke-width="2" d="M 5.4799999999999 0.509999999999991 C 7.57999999999993 0.509999999999991 9.27999999999997 3.21000000000004 9.27999999999997 5.30999999999995 C 9.27999999999997 7.40999999999997 7.57999999999993 9.11000000000001 5.4799999999999 9.11000000000001 C 3.38 9.11000000000001 0.67999999999995 7.40999999999997 0.67999999999995 5.30999999999995 C 0.67999999999995 3.21000000000004 3.38 0.509999999999991 5.4799999999999 0.509999999999991 Z" mask="url(#clip2040)" transform="matrix(1 0 0 1 -729 -11947 ) matrix(1 0 0 1 729 11947 )"/></g></svg>