<svg xmlns="http://www.w3.org/2000/svg" xmlns:xlink="http://www.w3.org/1999/xlink" width="10" height="10" version="1.1"><defs><mask id="clip2039" fill="#fff"><path fill-rule="evenodd" d="M 5.65999999999997 0.440000000000055 C 7.75999999999999 0.440000000000055 9.46000000000004 3.1400000000001 9.46000000000004 5.24000000000001 C 9.46000000000004 7.34000000000003 7.75999999999999 9.04000000000008 5.65999999999997 9.04000000000008 C 3.56000000000006 9.04000000000008 0.860000000000014 7.34000000000003 0.860000000000014 5.24000000000001 C 0.860000000000014 3.1400000000001 3.56000000000006 0.440000000000055 5.65999999999997 0.440000000000055 Z"/></mask></defs><g><path fill="#ff6a6a" fill-rule="nonzero" stroke="none" d="M 5.65999999999997 0.440000000000055 C 7.75999999999999 0.440000000000055 9.46000000000004 3.1400000000001 9.46000000000004 5.24000000000001 C 9.46000000000004 7.34000000000003 7.75999999999999 9.04000000000008 5.65999999999997 9.04000000000008 C 3.56000000000006 9.04000000000008 0.860000000000014 7.34000000000003 0.860000000000014 5.24000000000001 C 0.860000000000014 3.1400000000001 3.56000000000006 0.440000000000055 5.65999999999997 0.440000000000055 Z" transform="matrix(1 0 0 1 -737 -11954 ) matrix(1 0 0 1 737 11954 )"/><path fill="none" stroke="#ff6a6a" stroke-width="2" d="M 5.65999999999997 0.440000000000055 C 7.75999999999999 0.440000000000055 9.46000000000004 3.1400000000001 9.46000000000004 5.24000000000001 C 9.46000000000004 7.34000000000003 7.75999999999999 9.04000000000008 5.65999999999997 9.04000000000008 C 3.56000000000006 9.04000000000008 0.860000000000014 7.34000000000003 0.860000000000014 5.24000000000001 C 0.860000000000014 3.1400000000001 3.56000000000006 0.440000000000055 5.65999999999997 0.440000000000055 Z" mask="url(#clip2039)" transform="matrix(1 0 0 1 -737 -11954 ) matrix(1 0 0 1 737 11954 )"/></g></svg>