<?xml version="1.0" encoding="utf-8"?>
<svg version="1.1" xmlns:xlink="http://www.w3.org/1999/xlink" width="50px" height="50px" xmlns="http://www.w3.org/2000/svg">
  <defs>
    <radialGradient cx="0.600000000000023" cy="0.820000000000043" r="68" gradientTransform="matrix(1 0 0 0.999999999999999 0 5.55111512312578E-16 )" gradientUnits="userSpaceOnUse" id="RadialGradient771">
      <stop id="Stop772" stop-color="#aab597" offset="0" />
      <stop id="Stop773" stop-color="#556b2f" offset="1" />
    </radialGradient>
    <mask fill="white" id="clip774">
      <path d="M 25.2 0.319999999999993  C 38.4 0.319999999999993  49.2 12.12  49.2 25.42  C 49.2 38.62  38.4 49.42  25.2 49.42  C 11.9 49.42  0.100000000000023 38.62  0.100000000000023 25.42  C 0.100000000000023 12.12  11.9 0.319999999999993  25.2 0.319999999999993  Z " fill-rule="evenodd" />
    </mask>
  </defs>
  <g transform="matrix(1 0 0 1 -384 -14775 )">
    <path d="M 25.2 0.319999999999993  C 38.4 0.319999999999993  49.2 12.12  49.2 25.42  C 49.2 38.62  38.4 49.42  25.2 49.42  C 11.9 49.42  0.100000000000023 38.62  0.100000000000023 25.42  C 0.100000000000023 12.12  11.9 0.319999999999993  25.2 0.319999999999993  Z " fill-rule="nonzero" fill="url(#RadialGradient771)" stroke="none" transform="matrix(1 0 0 1 384 14775 )" />
    <path d="M 25.2 0.319999999999993  C 38.4 0.319999999999993  49.2 12.12  49.2 25.42  C 49.2 38.62  38.4 49.42  25.2 49.42  C 11.9 49.42  0.100000000000023 38.62  0.100000000000023 25.42  C 0.100000000000023 12.12  11.9 0.319999999999993  25.2 0.319999999999993  Z " stroke-width="2" stroke="#556b2f" fill="none" transform="matrix(1 0 0 1 384 14775 )" mask="url(#clip774)" />
  </g>
</svg>