<svg xmlns="http://www.w3.org/2000/svg" xmlns:xlink="http://www.w3.org/1999/xlink" width="10" height="10" version="1.1"><defs><mask id="clip2063" fill="#fff"><path fill-rule="evenodd" d="M 5.64999999999998 0.889999999999986 C 7.75 0.889999999999986 9.45000000000005 3.58999999999998 9.45000000000005 5.69 C 9.45000000000005 7.78999999999996 7.75 9.49000000000001 5.64999999999998 9.49000000000001 C 3.55000000000007 9.49000000000001 0.850000000000023 7.78999999999996 0.850000000000023 5.69 C 0.850000000000023 3.58999999999998 3.55000000000007 0.889999999999986 5.64999999999998 0.889999999999986 Z"/></mask></defs><g><path fill="#ff6a6a" fill-rule="nonzero" stroke="none" d="M 5.64999999999998 0.889999999999986 C 7.75 0.889999999999986 9.45000000000005 3.58999999999998 9.45000000000005 5.69 C 9.45000000000005 7.78999999999996 7.75 9.49000000000001 5.64999999999998 9.49000000000001 C 3.55000000000007 9.49000000000001 0.850000000000023 7.78999999999996 0.850000000000023 5.69 C 0.850000000000023 3.58999999999998 3.55000000000007 0.889999999999986 5.64999999999998 0.889999999999986 Z" transform="matrix(1 0 0 1 -647 -11767 ) matrix(1 0 0 1 647 11767 )"/><path fill="none" stroke="#ff6a6a" stroke-width="2" d="M 5.64999999999998 0.889999999999986 C 7.75 0.889999999999986 9.45000000000005 3.58999999999998 9.45000000000005 5.69 C 9.45000000000005 7.78999999999996 7.75 9.49000000000001 5.64999999999998 9.49000000000001 C 3.55000000000007 9.49000000000001 0.850000000000023 7.78999999999996 0.850000000000023 5.69 C 0.850000000000023 3.58999999999998 3.55000000000007 0.889999999999986 5.64999999999998 0.889999999999986 Z" mask="url(#clip2063)" transform="matrix(1 0 0 1 -647 -11767 ) matrix(1 0 0 1 647 11767 )"/></g></svg>