<?xml version="1.0" encoding="utf-8"?>
<svg version="1.1" xmlns:xlink="http://www.w3.org/1999/xlink" width="36px" height="36px" xmlns="http://www.w3.org/2000/svg">
  <defs>
    <radialGradient cx="1.09999999999998" cy="0.859999999999943" r="48.6000000000001" gradientTransform="matrix(0.999999999999999 0 0 1 1.55431223447522E-15 0 )" gradientUnits="userSpaceOnUse" id="RadialGradient857">
      <stop id="Stop858" stop-color="#ffd780" offset="0" />
      <stop id="Stop859" stop-color="#ffaf00" offset="1" />
    </radialGradient>
    <mask fill="white" id="clip860">
      <path d="M 18.8 0.360000000000014  C 28.3 0.360000000000014  36 9.06000000000006  36 18.5600000000001  C 36 28.0600000000001  28.3 35.76  18.8 35.76  C 9.30000000000001 35.76  0.599999999999994 28.0600000000001  0.599999999999994 18.5600000000001  C 0.599999999999994 9.06000000000006  9.30000000000001 0.360000000000014  18.8 0.360000000000014  Z " fill-rule="evenodd" />
    </mask>
  </defs>
  <g transform="matrix(1 0 0 1 -338 -14908 )">
    <path d="M 18.8 0.360000000000014  C 28.3 0.360000000000014  36 9.06000000000006  36 18.5600000000001  C 36 28.0600000000001  28.3 35.76  18.8 35.76  C 9.30000000000001 35.76  0.599999999999994 28.0600000000001  0.599999999999994 18.5600000000001  C 0.599999999999994 9.06000000000006  9.30000000000001 0.360000000000014  18.8 0.360000000000014  Z " fill-rule="nonzero" fill="url(#RadialGradient857)" stroke="none" transform="matrix(1 0 0 1 338 14908 )" />
    <path d="M 18.8 0.360000000000014  C 28.3 0.360000000000014  36 9.06000000000006  36 18.5600000000001  C 36 28.0600000000001  28.3 35.76  18.8 35.76  C 9.30000000000001 35.76  0.599999999999994 28.0600000000001  0.599999999999994 18.5600000000001  C 0.599999999999994 9.06000000000006  9.30000000000001 0.360000000000014  18.8 0.360000000000014  Z " stroke-width="2" stroke="#ffaf00" fill="none" transform="matrix(1 0 0 1 338 14908 )" mask="url(#clip860)" />
  </g>
</svg>