<svg xmlns="http://www.w3.org/2000/svg" xmlns:xlink="http://www.w3.org/1999/xlink" width="9" height="9" version="1.1"><defs><mask id="clip2041" fill="#fff"><path fill-rule="evenodd" d="M 5.17999999999995 0.399999999999977 C 7.27999999999997 0.399999999999977 8.98000000000002 3.10000000000002 8.98000000000002 5.19999999999993 C 8.98000000000002 7.29999999999995 7.27999999999997 9 5.17999999999995 9 C 3.08000000000004 9 0.379999999999995 7.29999999999995 0.379999999999995 5.19999999999993 C 0.379999999999995 3.10000000000002 3.08000000000004 0.399999999999977 5.17999999999995 0.399999999999977 Z"/></mask></defs><g><path fill="#ff6a6a" fill-rule="nonzero" stroke="none" d="M 5.17999999999995 0.399999999999977 C 7.27999999999997 0.399999999999977 8.98000000000002 3.10000000000002 8.98000000000002 5.19999999999993 C 8.98000000000002 7.29999999999995 7.27999999999997 9 5.17999999999995 9 C 3.08000000000004 9 0.379999999999995 7.29999999999995 0.379999999999995 5.19999999999993 C 0.379999999999995 3.10000000000002 3.08000000000004 0.399999999999977 5.17999999999995 0.399999999999977 Z" transform="matrix(1 0 0 1 -785 -11940 ) matrix(1 0 0 1 785 11940 )"/><path fill="none" stroke="#ff6a6a" stroke-width="2" d="M 5.17999999999995 0.399999999999977 C 7.27999999999997 0.399999999999977 8.98000000000002 3.10000000000002 8.98000000000002 5.19999999999993 C 8.98000000000002 7.29999999999995 7.27999999999997 9 5.17999999999995 9 C 3.08000000000004 9 0.379999999999995 7.29999999999995 0.379999999999995 5.19999999999993 C 0.379999999999995 3.10000000000002 3.08000000000004 0.399999999999977 5.17999999999995 0.399999999999977 Z" mask="url(#clip2041)" transform="matrix(1 0 0 1 -785 -11940 ) matrix(1 0 0 1 785 11940 )"/></g></svg>