<svg xmlns="http://www.w3.org/2000/svg" xmlns:xlink="http://www.w3.org/1999/xlink" width="9" height="10" version="1.1"><defs><mask id="clip2066" fill="#fff"><path fill-rule="evenodd" d="M 4.80999999999995 0.509999999999991 C 6.90999999999997 0.509999999999991 8.61000000000001 3.20999999999998 8.61000000000001 5.31 C 8.61000000000001 7.40999999999997 6.90999999999997 9.11000000000001 4.80999999999995 9.11000000000001 C 2.71000000000004 9.11000000000001 0.00999999999999091 7.40999999999997 0.00999999999999091 5.31 C 0.00999999999999091 3.20999999999998 2.71000000000004 0.509999999999991 4.80999999999995 0.509999999999991 Z"/></mask></defs><g><path fill="#ff6a6a" fill-rule="nonzero" stroke="none" d="M 4.80999999999995 0.509999999999991 C 6.90999999999997 0.509999999999991 8.61000000000001 3.20999999999998 8.61000000000001 5.31 C 8.61000000000001 7.40999999999997 6.90999999999997 9.11000000000001 4.80999999999995 9.11000000000001 C 2.71000000000004 9.11000000000001 0.00999999999999091 7.40999999999997 0.00999999999999091 5.31 C 0.00999999999999091 3.20999999999998 2.71000000000004 0.509999999999991 4.80999999999995 0.509999999999991 Z" transform="matrix(1 0 0 1 -762 -11745 ) matrix(1 0 0 1 762 11745 )"/><path fill="none" stroke="#ff6a6a" stroke-width="2" d="M 4.80999999999995 0.509999999999991 C 6.90999999999997 0.509999999999991 8.61000000000001 3.20999999999998 8.61000000000001 5.31 C 8.61000000000001 7.40999999999997 6.90999999999997 9.11000000000001 4.80999999999995 9.11000000000001 C 2.71000000000004 9.11000000000001 0.00999999999999091 7.40999999999997 0.00999999999999091 5.31 C 0.00999999999999091 3.20999999999998 2.71000000000004 0.509999999999991 4.80999999999995 0.509999999999991 Z" mask="url(#clip2066)" transform="matrix(1 0 0 1 -762 -11745 ) matrix(1 0 0 1 762 11745 )"/></g></svg>