<svg xmlns="http://www.w3.org/2000/svg" xmlns:xlink="http://www.w3.org/1999/xlink" width="9" height="9" version="1.1"><defs><mask id="clip2038" fill="#fff"><path fill-rule="evenodd" d="M 4.91999999999996 0.25 C 7.01999999999998 0.25 8.72000000000003 2.95000000000005 8.72000000000003 5.04999999999995 C 8.72000000000003 7.14999999999998 7.01999999999998 8.85000000000002 4.91999999999996 8.85000000000002 C 2.82000000000005 8.85000000000002 0.120000000000005 7.14999999999998 0.120000000000005 5.04999999999995 C 0.120000000000005 2.95000000000005 2.82000000000005 0.25 4.91999999999996 0.25 Z"/></mask></defs><g><path fill="#ff6a6a" fill-rule="nonzero" stroke="none" d="M 4.91999999999996 0.25 C 7.01999999999998 0.25 8.72000000000003 2.95000000000005 8.72000000000003 5.04999999999995 C 8.72000000000003 7.14999999999998 7.01999999999998 8.85000000000002 4.91999999999996 8.85000000000002 C 2.82000000000005 8.85000000000002 0.120000000000005 7.14999999999998 0.120000000000005 5.04999999999995 C 0.120000000000005 2.95000000000005 2.82000000000005 0.25 4.91999999999996 0.25 Z" transform="matrix(1 0 0 1 -718 -11961 ) matrix(1 0 0 1 718 11961 )"/><path fill="none" stroke="#ff6a6a" stroke-width="2" d="M 4.91999999999996 0.25 C 7.01999999999998 0.25 8.72000000000003 2.95000000000005 8.72000000000003 5.04999999999995 C 8.72000000000003 7.14999999999998 7.01999999999998 8.85000000000002 4.91999999999996 8.85000000000002 C 2.82000000000005 8.85000000000002 0.120000000000005 7.14999999999998 0.120000000000005 5.04999999999995 C 0.120000000000005 2.95000000000005 2.82000000000005 0.25 4.91999999999996 0.25 Z" mask="url(#clip2038)" transform="matrix(1 0 0 1 -718 -11961 ) matrix(1 0 0 1 718 11961 )"/></g></svg>