<svg xmlns="http://www.w3.org/2000/svg" xmlns:xlink="http://www.w3.org/1999/xlink" width="9" height="9" version="1.1"><defs><mask id="clip2062" fill="#fff"><path fill-rule="evenodd" d="M 4.98000000000002 0.370000000000005 C 7.08000000000004 0.370000000000005 8.78000000000009 3.06999999999999 8.78000000000009 5.17000000000002 C 8.78000000000009 7.26999999999998 7.08000000000004 8.97000000000003 4.98000000000002 8.97000000000003 C 2.88000000000011 8.97000000000003 0.180000000000064 7.26999999999998 0.180000000000064 5.17000000000002 C 0.180000000000064 3.06999999999999 2.88000000000011 0.370000000000005 4.98000000000002 0.370000000000005 Z"/></mask></defs><g><path fill="#ff6a6a" fill-rule="nonzero" stroke="none" d="M 4.98000000000002 0.370000000000005 C 7.08000000000004 0.370000000000005 8.78000000000009 3.06999999999999 8.78000000000009 5.17000000000002 C 8.78000000000009 7.26999999999998 7.08000000000004 8.97000000000003 4.98000000000002 8.97000000000003 C 2.88000000000011 8.97000000000003 0.180000000000064 7.26999999999998 0.180000000000064 5.17000000000002 C 0.180000000000064 3.06999999999999 2.88000000000011 0.370000000000005 4.98000000000002 0.370000000000005 Z" transform="matrix(1 0 0 1 -633 -11775 ) matrix(1 0 0 1 633 11775 )"/><path fill="none" stroke="#ff6a6a" stroke-width="2" d="M 4.98000000000002 0.370000000000005 C 7.08000000000004 0.370000000000005 8.78000000000009 3.06999999999999 8.78000000000009 5.17000000000002 C 8.78000000000009 7.26999999999998 7.08000000000004 8.97000000000003 4.98000000000002 8.97000000000003 C 2.88000000000011 8.97000000000003 0.180000000000064 7.26999999999998 0.180000000000064 5.17000000000002 C 0.180000000000064 3.06999999999999 2.88000000000011 0.370000000000005 4.98000000000002 0.370000000000005 Z" mask="url(#clip2062)" transform="matrix(1 0 0 1 -633 -11775 ) matrix(1 0 0 1 633 11775 )"/></g></svg>