<svg xmlns="http://www.w3.org/2000/svg" xmlns:xlink="http://www.w3.org/1999/xlink" width="10" height="9" version="1.1"><defs><mask id="clip2047" fill="#fff"><path fill-rule="evenodd" d="M 5.22000000000003 0.0400000000000205 C 7.32000000000005 0.0400000000000205 9.0200000000001 2.74000000000001 9.0200000000001 4.84000000000003 C 9.0200000000001 6.94 7.32000000000005 8.64000000000004 5.22000000000003 8.64000000000004 C 3.12000000000012 8.64000000000004 0.420000000000073 6.94 0.420000000000073 4.84000000000003 C 0.420000000000073 2.74000000000001 3.12000000000012 0.0400000000000205 5.22000000000003 0.0400000000000205 Z"/></mask></defs><g><path fill="#ff6a6a" fill-rule="nonzero" stroke="none" d="M 5.22000000000003 0.0400000000000205 C 7.32000000000005 0.0400000000000205 9.0200000000001 2.74000000000001 9.0200000000001 4.84000000000003 C 9.0200000000001 6.94 7.32000000000005 8.64000000000004 5.22000000000003 8.64000000000004 C 3.12000000000012 8.64000000000004 0.420000000000073 6.94 0.420000000000073 4.84000000000003 C 0.420000000000073 2.74000000000001 3.12000000000012 0.0400000000000205 5.22000000000003 0.0400000000000205 Z" transform="matrix(1 0 0 1 -645 -11895 ) matrix(1 0 0 1 645 11895 )"/><path fill="none" stroke="#ff6a6a" stroke-width="2" d="M 5.22000000000003 0.0400000000000205 C 7.32000000000005 0.0400000000000205 9.0200000000001 2.74000000000001 9.0200000000001 4.84000000000003 C 9.0200000000001 6.94 7.32000000000005 8.64000000000004 5.22000000000003 8.64000000000004 C 3.12000000000012 8.64000000000004 0.420000000000073 6.94 0.420000000000073 4.84000000000003 C 0.420000000000073 2.74000000000001 3.12000000000012 0.0400000000000205 5.22000000000003 0.0400000000000205 Z" mask="url(#clip2047)" transform="matrix(1 0 0 1 -645 -11895 ) matrix(1 0 0 1 645 11895 )"/></g></svg>