<svg xmlns="http://www.w3.org/2000/svg" xmlns:xlink="http://www.w3.org/1999/xlink" width="10" height="10" version="1.1"><defs><mask id="clip2069" fill="#fff"><path fill-rule="evenodd" d="M 5.69999999999993 0.680000000000007 C 7.79999999999995 0.680000000000007 9.5 3.38 9.5 5.48000000000002 C 9.5 7.57999999999998 7.79999999999995 9.28000000000003 5.69999999999993 9.28000000000003 C 3.60000000000002 9.28000000000003 0.899999999999977 7.57999999999998 0.899999999999977 5.48000000000002 C 0.899999999999977 3.38 3.60000000000002 0.680000000000007 5.69999999999993 0.680000000000007 Z"/></mask></defs><g><path fill="#ff6a6a" fill-rule="nonzero" stroke="none" d="M 5.69999999999993 0.680000000000007 C 7.79999999999995 0.680000000000007 9.5 3.38 9.5 5.48000000000002 C 9.5 7.57999999999998 7.79999999999995 9.28000000000003 5.69999999999993 9.28000000000003 C 3.60000000000002 9.28000000000003 0.899999999999977 7.57999999999998 0.899999999999977 5.48000000000002 C 0.899999999999977 3.38 3.60000000000002 0.680000000000007 5.69999999999993 0.680000000000007 Z" transform="matrix(1 0 0 1 -849 -11722 ) matrix(1 0 0 1 849 11722 )"/><path fill="none" stroke="#ff6a6a" stroke-width="2" d="M 5.69999999999993 0.680000000000007 C 7.79999999999995 0.680000000000007 9.5 3.38 9.5 5.48000000000002 C 9.5 7.57999999999998 7.79999999999995 9.28000000000003 5.69999999999993 9.28000000000003 C 3.60000000000002 9.28000000000003 0.899999999999977 7.57999999999998 0.899999999999977 5.48000000000002 C 0.899999999999977 3.38 3.60000000000002 0.680000000000007 5.69999999999993 0.680000000000007 Z" mask="url(#clip2069)" transform="matrix(1 0 0 1 -849 -11722 ) matrix(1 0 0 1 849 11722 )"/></g></svg>