<svg xmlns="http://www.w3.org/2000/svg" xmlns:xlink="http://www.w3.org/1999/xlink" width="9" height="10" version="1.1"><defs><mask id="clip2045" fill="#fff"><path fill-rule="evenodd" d="M 4.98000000000002 0.529999999999973 C 7.08000000000004 0.529999999999973 8.78000000000009 3.22999999999996 8.78000000000009 5.32999999999998 C 8.78000000000009 7.42999999999995 7.08000000000004 9.13 4.98000000000002 9.13 C 2.88000000000011 9.13 0.180000000000064 7.42999999999995 0.180000000000064 5.32999999999998 C 0.180000000000064 3.22999999999996 2.88000000000011 0.529999999999973 4.98000000000002 0.529999999999973 Z"/></mask></defs><g><path fill="#ff6a6a" fill-rule="nonzero" stroke="none" d="M 4.98000000000002 0.529999999999973 C 7.08000000000004 0.529999999999973 8.78000000000009 3.22999999999996 8.78000000000009 5.32999999999998 C 8.78000000000009 7.42999999999995 7.08000000000004 9.13 4.98000000000002 9.13 C 2.88000000000011 9.13 0.180000000000064 7.42999999999995 0.180000000000064 5.32999999999998 C 0.180000000000064 3.22999999999996 2.88000000000011 0.529999999999973 4.98000000000002 0.529999999999973 Z" transform="matrix(1 0 0 1 -604 -11910 ) matrix(1 0 0 1 604 11910 )"/><path fill="none" stroke="#ff6a6a" stroke-width="2" d="M 4.98000000000002 0.529999999999973 C 7.08000000000004 0.529999999999973 8.78000000000009 3.22999999999996 8.78000000000009 5.32999999999998 C 8.78000000000009 7.42999999999995 7.08000000000004 9.13 4.98000000000002 9.13 C 2.88000000000011 9.13 0.180000000000064 7.42999999999995 0.180000000000064 5.32999999999998 C 0.180000000000064 3.22999999999996 2.88000000000011 0.529999999999973 4.98000000000002 0.529999999999973 Z" mask="url(#clip2045)" transform="matrix(1 0 0 1 -604 -11910 ) matrix(1 0 0 1 604 11910 )"/></g></svg>