<svg xmlns="http://www.w3.org/2000/svg" xmlns:xlink="http://www.w3.org/1999/xlink" width="815" height="20" version="1.1"><defs><mask id="clip2074" fill="#fff"><path fill-rule="evenodd" d="M 0.430000000000007 19.5 C 0.430000000000007 19.5 0.430000000000007 0.5 0.430000000000007 0.5 C 0.430000000000007 0.5 814.53 0.5 814.53 0.5 C 814.53 0.5 814.53 19.5 814.53 19.5 C 814.53 19.5 0.430000000000007 19.5 0.430000000000007 19.5 Z"/></mask></defs><g><path fill="#ee7c31" fill-rule="nonzero" stroke="none" d="M 0.430000000000007 19.5 C 0.430000000000007 19.5 0.430000000000007 0.5 0.430000000000007 0.5 C 0.430000000000007 0.5 814.53 0.5 814.53 0.5 C 814.53 0.5 814.53 19.5 814.53 19.5 C 814.53 19.5 0.430000000000007 19.5 0.430000000000007 19.5 Z" transform="matrix(1 0 0 1 -291 -11503 ) matrix(1 0 0 1 291 11503 )"/><path fill="none" stroke="#ee7c31" stroke-width="2" d="M 0.430000000000007 19.5 C 0.430000000000007 19.5 0.430000000000007 0.5 0.430000000000007 0.5 C 0.430000000000007 0.5 814.53 0.5 814.53 0.5 C 814.53 0.5 814.53 19.5 814.53 19.5 C 814.53 19.5 0.430000000000007 19.5 0.430000000000007 19.5 Z" mask="url(#clip2074)" transform="matrix(1 0 0 1 -291 -11503 ) matrix(1 0 0 1 291 11503 )"/></g></svg>