<svg xmlns="http://www.w3.org/2000/svg" xmlns:xlink="http://www.w3.org/1999/xlink" width="9" height="10" version="1.1"><defs><mask id="clip2033" fill="#fff"><path fill-rule="evenodd" d="M 5.15999999999997 0.649999999999977 C 7.25999999999999 0.649999999999977 8.96000000000004 3.35000000000002 8.96000000000004 5.44999999999993 C 8.96000000000004 7.54999999999995 7.25999999999999 9.25 5.15999999999997 9.25 C 3.06000000000006 9.25 0.360000000000014 7.54999999999995 0.360000000000014 5.44999999999993 C 0.360000000000014 3.35000000000002 3.06000000000006 0.649999999999977 5.15999999999997 0.649999999999977 Z"/></mask></defs><g><path fill="#ff6a6a" fill-rule="nonzero" stroke="none" d="M 5.15999999999997 0.649999999999977 C 7.25999999999999 0.649999999999977 8.96000000000004 3.35000000000002 8.96000000000004 5.44999999999993 C 8.96000000000004 7.54999999999995 7.25999999999999 9.25 5.15999999999997 9.25 C 3.06000000000006 9.25 0.360000000000014 7.54999999999995 0.360000000000014 5.44999999999993 C 0.360000000000014 3.35000000000002 3.06000000000006 0.649999999999977 5.15999999999997 0.649999999999977 Z" transform="matrix(1 0 0 1 -646 -11996 ) matrix(1 0 0 1 646 11996 )"/><path fill="none" stroke="#ff6a6a" stroke-width="2" d="M 5.15999999999997 0.649999999999977 C 7.25999999999999 0.649999999999977 8.96000000000004 3.35000000000002 8.96000000000004 5.44999999999993 C 8.96000000000004 7.54999999999995 7.25999999999999 9.25 5.15999999999997 9.25 C 3.06000000000006 9.25 0.360000000000014 7.54999999999995 0.360000000000014 5.44999999999993 C 0.360000000000014 3.35000000000002 3.06000000000006 0.649999999999977 5.15999999999997 0.649999999999977 Z" mask="url(#clip2033)" transform="matrix(1 0 0 1 -646 -11996 ) matrix(1 0 0 1 646 11996 )"/></g></svg>