<svg xmlns="http://www.w3.org/2000/svg" xmlns:xlink="http://www.w3.org/1999/xlink" width="10" height="10" version="1.1"><defs><mask id="clip2048" fill="#fff"><path fill-rule="evenodd" d="M 5.38999999999987 0.990000000000009 C 7.4899999999999 0.990000000000009 9.18999999999994 3.69 9.18999999999994 5.79000000000002 C 9.18999999999994 7.88999999999999 7.4899999999999 9.59000000000003 5.38999999999987 9.59000000000003 C 3.28999999999996 9.59000000000003 0.589999999999918 7.88999999999999 0.589999999999918 5.79000000000002 C 0.589999999999918 3.69 3.28999999999996 0.990000000000009 5.38999999999987 0.990000000000009 Z"/></mask></defs><g><path fill="#ff6a6a" fill-rule="nonzero" stroke="none" d="M 5.38999999999987 0.990000000000009 C 7.4899999999999 0.990000000000009 9.18999999999994 3.69 9.18999999999994 5.79000000000002 C 9.18999999999994 7.88999999999999 7.4899999999999 9.59000000000003 5.38999999999987 9.59000000000003 C 3.28999999999996 9.59000000000003 0.589999999999918 7.88999999999999 0.589999999999918 5.79000000000002 C 0.589999999999918 3.69 3.28999999999996 0.990000000000009 5.38999999999987 0.990000000000009 Z" transform="matrix(1 0 0 1 -662 -11886 ) matrix(1 0 0 1 662 11886 )"/><path fill="none" stroke="#ff6a6a" stroke-width="2" d="M 5.38999999999987 0.990000000000009 C 7.4899999999999 0.990000000000009 9.18999999999994 3.69 9.18999999999994 5.79000000000002 C 9.18999999999994 7.88999999999999 7.4899999999999 9.59000000000003 5.38999999999987 9.59000000000003 C 3.28999999999996 9.59000000000003 0.589999999999918 7.88999999999999 0.589999999999918 5.79000000000002 C 0.589999999999918 3.69 3.28999999999996 0.990000000000009 5.38999999999987 0.990000000000009 Z" mask="url(#clip2048)" transform="matrix(1 0 0 1 -662 -11886 ) matrix(1 0 0 1 662 11886 )"/></g></svg>