<?xml version="1.0" encoding="utf-8"?>
<svg version="1.1" xmlns:xlink="http://www.w3.org/1999/xlink" width="32px" height="66px" xmlns="http://www.w3.org/2000/svg">
  <defs>
    <mask fill="white" id="clip700">
      <path d="M 24.9200000000001 52.98  C 27.12 52.98  28.9200000000001 56.78  28.9200000000001 58.98  C 28.9200000000001 61.1800000000001  27.12 62.98  24.9200000000001 62.98  C 22.72 62.98  18.9200000000001 61.1800000000001  18.9200000000001 58.98  C 18.9200000000001 56.78  22.72 52.98  24.9200000000001 52.98  Z " fill-rule="evenodd" />
    </mask>
  </defs>
  <g transform="matrix(1 0 0 1 -1067 -12976 )">
    <path d="M 24.9200000000001 52.98  C 27.12 52.98  28.9200000000001 56.78  28.9200000000001 58.98  C 28.9200000000001 61.1800000000001  27.12 62.98  24.9200000000001 62.98  C 22.72 62.98  18.9200000000001 61.1800000000001  18.9200000000001 58.98  C 18.9200000000001 56.78  22.72 52.98  24.9200000000001 52.98  Z " fill-rule="nonzero" fill="#ffffff" stroke="none" fill-opacity="0" transform="matrix(1 0 0 1 1068 12977 )" />
    <path d="M 24.9200000000001 52.98  C 27.12 52.98  28.9200000000001 56.78  28.9200000000001 58.98  C 28.9200000000001 61.1800000000001  27.12 62.98  24.9200000000001 62.98  C 22.72 62.98  18.9200000000001 61.1800000000001  18.9200000000001 58.98  C 18.9200000000001 56.78  22.72 52.98  24.9200000000001 52.98  Z " stroke-width="4" stroke="#268ea8" fill="none" transform="matrix(1 0 0 1 1068 12977 )" mask="url(#clip700)" />
    <path d="M 0.120000000000005 0.580000000000041  L 23.9200000000001 57.98  " stroke-width="2" stroke="#268ea8" fill="none" transform="matrix(1 0 0 1 1068 12977 )" mask="url(#clip700)" />
  </g>
</svg>