<svg xmlns="http://www.w3.org/2000/svg" xmlns:xlink="http://www.w3.org/1999/xlink" width="10" height="9" version="1.1"><defs><mask id="clip2031" fill="#fff"><path fill-rule="evenodd" d="M 5.5 0.0299999999999727 C 7.59999999999997 0.0299999999999727 9.30000000000001 2.73000000000002 9.30000000000001 4.82999999999993 C 9.30000000000001 6.92999999999995 7.59999999999997 8.63 5.5 8.63 C 3.39999999999998 8.63 0.699999999999989 6.92999999999995 0.699999999999989 4.82999999999993 C 0.699999999999989 2.73000000000002 3.39999999999998 0.0299999999999727 5.5 0.0299999999999727 Z"/></mask></defs><g><path fill="#ff6a6a" fill-rule="nonzero" stroke="none" d="M 5.5 0.0299999999999727 C 7.59999999999997 0.0299999999999727 9.30000000000001 2.73000000000002 9.30000000000001 4.82999999999993 C 9.30000000000001 6.92999999999995 7.59999999999997 8.63 5.5 8.63 C 3.39999999999998 8.63 0.699999999999989 6.92999999999995 0.699999999999989 4.82999999999993 C 0.699999999999989 2.73000000000002 3.39999999999998 0.0299999999999727 5.5 0.0299999999999727 Z" transform="matrix(1 0 0 1 -560 -12011 ) matrix(1 0 0 1 560 12011 )"/><path fill="none" stroke="#ff6a6a" stroke-width="2" d="M 5.5 0.0299999999999727 C 7.59999999999997 0.0299999999999727 9.30000000000001 2.73000000000002 9.30000000000001 4.82999999999993 C 9.30000000000001 6.92999999999995 7.59999999999997 8.63 5.5 8.63 C 3.39999999999998 8.63 0.699999999999989 6.92999999999995 0.699999999999989 4.82999999999993 C 0.699999999999989 2.73000000000002 3.39999999999998 0.0299999999999727 5.5 0.0299999999999727 Z" mask="url(#clip2031)" transform="matrix(1 0 0 1 -560 -12011 ) matrix(1 0 0 1 560 12011 )"/></g></svg>