<svg xmlns="http://www.w3.org/2000/svg" xmlns:xlink="http://www.w3.org/1999/xlink" width="10" height="9" version="1.1"><defs><mask id="clip2037" fill="#fff"><path fill-rule="evenodd" d="M 5.6099999999999 0.100000000000023 C 7.70999999999992 0.100000000000023 9.40999999999997 2.80000000000007 9.40999999999997 4.89999999999998 C 9.40999999999997 7 7.70999999999992 8.70000000000005 5.6099999999999 8.70000000000005 C 3.50999999999999 8.70000000000005 0.809999999999945 7 0.809999999999945 4.89999999999998 C 0.809999999999945 2.80000000000007 3.50999999999999 0.100000000000023 5.6099999999999 0.100000000000023 Z"/></mask></defs><g><path fill="#ff6a6a" fill-rule="nonzero" stroke="none" d="M 5.6099999999999 0.100000000000023 C 7.70999999999992 0.100000000000023 9.40999999999997 2.80000000000007 9.40999999999997 4.89999999999998 C 9.40999999999997 7 7.70999999999992 8.70000000000005 5.6099999999999 8.70000000000005 C 3.50999999999999 8.70000000000005 0.809999999999945 7 0.809999999999945 4.89999999999998 C 0.809999999999945 2.80000000000007 3.50999999999999 0.100000000000023 5.6099999999999 0.100000000000023 Z" transform="matrix(1 0 0 1 -661 -11968 ) matrix(1 0 0 1 661 11968 )"/><path fill="none" stroke="#ff6a6a" stroke-width="2" d="M 5.6099999999999 0.100000000000023 C 7.70999999999992 0.100000000000023 9.40999999999997 2.80000000000007 9.40999999999997 4.89999999999998 C 9.40999999999997 7 7.70999999999992 8.70000000000005 5.6099999999999 8.70000000000005 C 3.50999999999999 8.70000000000005 0.809999999999945 7 0.809999999999945 4.89999999999998 C 0.809999999999945 2.80000000000007 3.50999999999999 0.100000000000023 5.6099999999999 0.100000000000023 Z" mask="url(#clip2037)" transform="matrix(1 0 0 1 -661 -11968 ) matrix(1 0 0 1 661 11968 )"/></g></svg>