<svg xmlns="http://www.w3.org/2000/svg" xmlns:xlink="http://www.w3.org/1999/xlink" width="9" height="10" version="1.1"><defs><mask id="clip2034" fill="#fff"><path fill-rule="evenodd" d="M 4.80999999999995 0.440000000000055 C 6.90999999999997 0.440000000000055 8.61000000000001 3.1400000000001 8.61000000000001 5.24000000000001 C 8.61000000000001 7.34000000000003 6.90999999999997 9.04000000000008 4.80999999999995 9.04000000000008 C 2.71000000000004 9.04000000000008 0.00999999999999091 7.34000000000003 0.00999999999999091 5.24000000000001 C 0.00999999999999091 3.1400000000001 2.71000000000004 0.440000000000055 4.80999999999995 0.440000000000055 Z"/></mask></defs><g><path fill="#ff6a6a" fill-rule="nonzero" stroke="none" d="M 4.80999999999995 0.440000000000055 C 6.90999999999997 0.440000000000055 8.61000000000001 3.1400000000001 8.61000000000001 5.24000000000001 C 8.61000000000001 7.34000000000003 6.90999999999997 9.04000000000008 4.80999999999995 9.04000000000008 C 2.71000000000004 9.04000000000008 0.00999999999999091 7.34000000000003 0.00999999999999091 5.24000000000001 C 0.00999999999999091 3.1400000000001 2.71000000000004 0.440000000000055 4.80999999999995 0.440000000000055 Z" transform="matrix(1 0 0 1 -675 -11989 ) matrix(1 0 0 1 675 11989 )"/><path fill="none" stroke="#ff6a6a" stroke-width="2" d="M 4.80999999999995 0.440000000000055 C 6.90999999999997 0.440000000000055 8.61000000000001 3.1400000000001 8.61000000000001 5.24000000000001 C 8.61000000000001 7.34000000000003 6.90999999999997 9.04000000000008 4.80999999999995 9.04000000000008 C 2.71000000000004 9.04000000000008 0.00999999999999091 7.34000000000003 0.00999999999999091 5.24000000000001 C 0.00999999999999091 3.1400000000001 2.71000000000004 0.440000000000055 4.80999999999995 0.440000000000055 Z" mask="url(#clip2034)" transform="matrix(1 0 0 1 -675 -11989 ) matrix(1 0 0 1 675 11989 )"/></g></svg>