<svg xmlns="http://www.w3.org/2000/svg" xmlns:xlink="http://www.w3.org/1999/xlink" width="10" height="9" version="1.1"><defs><mask id="clip2072" fill="#fff"><path fill-rule="evenodd" d="M 5.42999999999995 0.25 C 7.52999999999997 0.25 9.23000000000002 2.94999999999999 9.23000000000002 5.05000000000001 C 9.23000000000002 7.14999999999998 7.52999999999997 8.85000000000002 5.42999999999995 8.85000000000002 C 3.33000000000004 8.85000000000002 0.629999999999995 7.14999999999998 0.629999999999995 5.05000000000001 C 0.629999999999995 2.94999999999999 3.33000000000004 0.25 5.42999999999995 0.25 Z"/></mask></defs><g><path fill="#ff6a6a" fill-rule="nonzero" stroke="none" d="M 5.42999999999995 0.25 C 7.52999999999997 0.25 9.23000000000002 2.94999999999999 9.23000000000002 5.05000000000001 C 9.23000000000002 7.14999999999998 7.52999999999997 8.85000000000002 5.42999999999995 8.85000000000002 C 3.33000000000004 8.85000000000002 0.629999999999995 7.14999999999998 0.629999999999995 5.05000000000001 C 0.629999999999995 2.94999999999999 3.33000000000004 0.25 5.42999999999995 0.25 Z" transform="matrix(1 0 0 1 -905 -11699 ) matrix(1 0 0 1 905 11699 )"/><path fill="none" stroke="#ff6a6a" stroke-width="2" d="M 5.42999999999995 0.25 C 7.52999999999997 0.25 9.23000000000002 2.94999999999999 9.23000000000002 5.05000000000001 C 9.23000000000002 7.14999999999998 7.52999999999997 8.85000000000002 5.42999999999995 8.85000000000002 C 3.33000000000004 8.85000000000002 0.629999999999995 7.14999999999998 0.629999999999995 5.05000000000001 C 0.629999999999995 2.94999999999999 3.33000000000004 0.25 5.42999999999995 0.25 Z" mask="url(#clip2072)" transform="matrix(1 0 0 1 -905 -11699 ) matrix(1 0 0 1 905 11699 )"/></g></svg>