<svg xmlns="http://www.w3.org/2000/svg" xmlns:xlink="http://www.w3.org/1999/xlink" width="9" height="9" version="1.1"><defs><mask id="clip2036" fill="#fff"><path fill-rule="evenodd" d="M 5.08999999999992 0.120000000000005 C 7.18999999999994 0.120000000000005 8.88999999999999 2.82000000000005 8.88999999999999 4.91999999999996 C 8.88999999999999 7.01999999999998 7.18999999999994 8.72000000000003 5.08999999999992 8.72000000000003 C 2.99000000000001 8.72000000000003 0.289999999999964 7.01999999999998 0.289999999999964 4.91999999999996 C 0.289999999999964 2.82000000000005 2.99000000000001 0.120000000000005 5.08999999999992 0.120000000000005 Z"/></mask></defs><g><path fill="#ff6a6a" fill-rule="nonzero" stroke="none" d="M 5.08999999999992 0.120000000000005 C 7.18999999999994 0.120000000000005 8.88999999999999 2.82000000000005 8.88999999999999 4.91999999999996 C 8.88999999999999 7.01999999999998 7.18999999999994 8.72000000000003 5.08999999999992 8.72000000000003 C 2.99000000000001 8.72000000000003 0.289999999999964 7.01999999999998 0.289999999999964 4.91999999999996 C 0.289999999999964 2.82000000000005 2.99000000000001 0.120000000000005 5.08999999999992 0.120000000000005 Z" transform="matrix(1 0 0 1 -697 -11975 ) matrix(1 0 0 1 697 11975 )"/><path fill="none" stroke="#ff6a6a" stroke-width="2" d="M 5.08999999999992 0.120000000000005 C 7.18999999999994 0.120000000000005 8.88999999999999 2.82000000000005 8.88999999999999 4.91999999999996 C 8.88999999999999 7.01999999999998 7.18999999999994 8.72000000000003 5.08999999999992 8.72000000000003 C 2.99000000000001 8.72000000000003 0.289999999999964 7.01999999999998 0.289999999999964 4.91999999999996 C 0.289999999999964 2.82000000000005 2.99000000000001 0.120000000000005 5.08999999999992 0.120000000000005 Z" mask="url(#clip2036)" transform="matrix(1 0 0 1 -697 -11975 ) matrix(1 0 0 1 697 11975 )"/></g></svg>