<svg xmlns="http://www.w3.org/2000/svg" xmlns:xlink="http://www.w3.org/1999/xlink" width="9" height="9" version="1.1"><defs><mask id="clip2035" fill="#fff"><path fill-rule="evenodd" d="M 4.88 0.309999999999945 C 6.98000000000002 0.309999999999945 8.68000000000006 3.00999999999999 8.68000000000006 5.1099999999999 C 8.68000000000006 7.20999999999992 6.98000000000002 8.90999999999997 4.88 8.90999999999997 C 2.78000000000009 8.90999999999997 0.0800000000000409 7.20999999999992 0.0800000000000409 5.1099999999999 C 0.0800000000000409 3.00999999999999 2.78000000000009 0.309999999999945 4.88 0.309999999999945 Z"/></mask></defs><g><path fill="#ff6a6a" fill-rule="nonzero" stroke="none" d="M 4.88 0.309999999999945 C 6.98000000000002 0.309999999999945 8.68000000000006 3.00999999999999 8.68000000000006 5.1099999999999 C 8.68000000000006 7.20999999999992 6.98000000000002 8.90999999999997 4.88 8.90999999999997 C 2.78000000000009 8.90999999999997 0.0800000000000409 7.20999999999992 0.0800000000000409 5.1099999999999 C 0.0800000000000409 3.00999999999999 2.78000000000009 0.309999999999945 4.88 0.309999999999945 Z" transform="matrix(1 0 0 1 -723 -11982 ) matrix(1 0 0 1 723 11982 )"/><path fill="none" stroke="#ff6a6a" stroke-width="2" d="M 4.88 0.309999999999945 C 6.98000000000002 0.309999999999945 8.68000000000006 3.00999999999999 8.68000000000006 5.1099999999999 C 8.68000000000006 7.20999999999992 6.98000000000002 8.90999999999997 4.88 8.90999999999997 C 2.78000000000009 8.90999999999997 0.0800000000000409 7.20999999999992 0.0800000000000409 5.1099999999999 C 0.0800000000000409 3.00999999999999 2.78000000000009 0.309999999999945 4.88 0.309999999999945 Z" mask="url(#clip2035)" transform="matrix(1 0 0 1 -723 -11982 ) matrix(1 0 0 1 723 11982 )"/></g></svg>