<svg xmlns="http://www.w3.org/2000/svg" xmlns:xlink="http://www.w3.org/1999/xlink" width="10" height="10" version="1.1"><defs><mask id="clip2064" fill="#fff"><path fill-rule="evenodd" d="M 5.25 0.460000000000036 C 7.35000000000002 0.460000000000036 9.05000000000007 3.16000000000003 9.05000000000007 5.26000000000005 C 9.05000000000007 7.36000000000001 7.35000000000002 9.06000000000006 5.25 9.06000000000006 C 3.15000000000009 9.06000000000006 0.450000000000045 7.36000000000001 0.450000000000045 5.26000000000005 C 0.450000000000045 3.16000000000003 3.15000000000009 0.460000000000036 5.25 0.460000000000036 Z"/></mask></defs><g><path fill="#ff6a6a" fill-rule="nonzero" stroke="none" d="M 5.25 0.460000000000036 C 7.35000000000002 0.460000000000036 9.05000000000007 3.16000000000003 9.05000000000007 5.26000000000005 C 9.05000000000007 7.36000000000001 7.35000000000002 9.06000000000006 5.25 9.06000000000006 C 3.15000000000009 9.06000000000006 0.450000000000045 7.36000000000001 0.450000000000045 5.26000000000005 C 0.450000000000045 3.16000000000003 3.15000000000009 0.460000000000036 5.25 0.460000000000036 Z" transform="matrix(1 0 0 1 -650 -11760 ) matrix(1 0 0 1 650 11760 )"/><path fill="none" stroke="#ff6a6a" stroke-width="2" d="M 5.25 0.460000000000036 C 7.35000000000002 0.460000000000036 9.05000000000007 3.16000000000003 9.05000000000007 5.26000000000005 C 9.05000000000007 7.36000000000001 7.35000000000002 9.06000000000006 5.25 9.06000000000006 C 3.15000000000009 9.06000000000006 0.450000000000045 7.36000000000001 0.450000000000045 5.26000000000005 C 0.450000000000045 3.16000000000003 3.15000000000009 0.460000000000036 5.25 0.460000000000036 Z" mask="url(#clip2064)" transform="matrix(1 0 0 1 -650 -11760 ) matrix(1 0 0 1 650 11760 )"/></g></svg>