<svg xmlns="http://www.w3.org/2000/svg" xmlns:xlink="http://www.w3.org/1999/xlink" width="9" height="10" version="1.1"><defs><mask id="clip2067" fill="#fff"><path fill-rule="evenodd" d="M 4.79999999999995 0.95999999999998 C 6.89999999999998 0.95999999999998 8.60000000000002 3.65999999999997 8.60000000000002 5.75999999999999 C 8.60000000000002 7.85999999999996 6.89999999999998 9.56 4.79999999999995 9.56 C 2.70000000000005 9.56 0 7.85999999999996 0 5.75999999999999 C 0 3.65999999999997 2.70000000000005 0.95999999999998 4.79999999999995 0.95999999999998 Z"/></mask></defs><g><path fill="#ff6a6a" fill-rule="nonzero" stroke="none" d="M 4.79999999999995 0.95999999999998 C 6.89999999999998 0.95999999999998 8.60000000000002 3.65999999999997 8.60000000000002 5.75999999999999 C 8.60000000000002 7.85999999999996 6.89999999999998 9.56 4.79999999999995 9.56 C 2.70000000000005 9.56 0 7.85999999999996 0 5.75999999999999 C 0 3.65999999999997 2.70000000000005 0.95999999999998 4.79999999999995 0.95999999999998 Z" transform="matrix(1 0 0 1 -801 -11737 ) matrix(1 0 0 1 801 11737 )"/><path fill="none" stroke="#ff6a6a" stroke-width="2" d="M 4.79999999999995 0.95999999999998 C 6.89999999999998 0.95999999999998 8.60000000000002 3.65999999999997 8.60000000000002 5.75999999999999 C 8.60000000000002 7.85999999999996 6.89999999999998 9.56 4.79999999999995 9.56 C 2.70000000000005 9.56 0 7.85999999999996 0 5.75999999999999 C 0 3.65999999999997 2.70000000000005 0.95999999999998 4.79999999999995 0.95999999999998 Z" mask="url(#clip2067)" transform="matrix(1 0 0 1 -801 -11737 ) matrix(1 0 0 1 801 11737 )"/></g></svg>