<svg xmlns="http://www.w3.org/2000/svg" xmlns:xlink="http://www.w3.org/1999/xlink" width="9" height="9" version="1.1"><defs><mask id="clip2053" fill="#fff"><path fill-rule="evenodd" d="M 5.1099999999999 0.389999999999986 C 7.20999999999992 0.389999999999986 8.90999999999997 3.08999999999998 8.90999999999997 5.19 C 8.90999999999997 7.28999999999996 7.20999999999992 8.99000000000001 5.1099999999999 8.99000000000001 C 3.00999999999999 8.99000000000001 0.309999999999945 7.28999999999996 0.309999999999945 5.19 C 0.309999999999945 3.08999999999998 3.00999999999999 0.389999999999986 5.1099999999999 0.389999999999986 Z"/></mask></defs><g><path fill="#ff6a6a" fill-rule="nonzero" stroke="none" d="M 5.1099999999999 0.389999999999986 C 7.20999999999992 0.389999999999986 8.90999999999997 3.08999999999998 8.90999999999997 5.19 C 8.90999999999997 7.28999999999996 7.20999999999992 8.99000000000001 5.1099999999999 8.99000000000001 C 3.00999999999999 8.99000000000001 0.309999999999945 7.28999999999996 0.309999999999945 5.19 C 0.309999999999945 3.08999999999998 3.00999999999999 0.389999999999986 5.1099999999999 0.389999999999986 Z" transform="matrix(1 0 0 1 -679 -11845 ) matrix(1 0 0 1 679 11845 )"/><path fill="none" stroke="#ff6a6a" stroke-width="2" d="M 5.1099999999999 0.389999999999986 C 7.20999999999992 0.389999999999986 8.90999999999997 3.08999999999998 8.90999999999997 5.19 C 8.90999999999997 7.28999999999996 7.20999999999992 8.99000000000001 5.1099999999999 8.99000000000001 C 3.00999999999999 8.99000000000001 0.309999999999945 7.28999999999996 0.309999999999945 5.19 C 0.309999999999945 3.08999999999998 3.00999999999999 0.389999999999986 5.1099999999999 0.389999999999986 Z" mask="url(#clip2053)" transform="matrix(1 0 0 1 -679 -11845 ) matrix(1 0 0 1 679 11845 )"/></g></svg>