<svg xmlns="http://www.w3.org/2000/svg" xmlns:xlink="http://www.w3.org/1999/xlink" width="9" height="10" version="1.1"><defs><mask id="clip2049" fill="#fff"><path fill-rule="evenodd" d="M 4.92999999999995 0.740000000000009 C 7.02999999999997 0.740000000000009 8.73000000000002 3.44 8.73000000000002 5.54000000000002 C 8.73000000000002 7.63999999999999 7.02999999999997 9.34000000000003 4.92999999999995 9.34000000000003 C 2.83000000000004 9.34000000000003 0.129999999999995 7.63999999999999 0.129999999999995 5.54000000000002 C 0.129999999999995 3.44 2.83000000000004 0.740000000000009 4.92999999999995 0.740000000000009 Z"/></mask></defs><g><path fill="#ff6a6a" fill-rule="nonzero" stroke="none" d="M 4.92999999999995 0.740000000000009 C 7.02999999999997 0.740000000000009 8.73000000000002 3.44 8.73000000000002 5.54000000000002 C 8.73000000000002 7.63999999999999 7.02999999999997 9.34000000000003 4.92999999999995 9.34000000000003 C 2.83000000000004 9.34000000000003 0.129999999999995 7.63999999999999 0.129999999999995 5.54000000000002 C 0.129999999999995 3.44 2.83000000000004 0.740000000000009 4.92999999999995 0.740000000000009 Z" transform="matrix(1 0 0 1 -672 -11878 ) matrix(1 0 0 1 672 11878 )"/><path fill="none" stroke="#ff6a6a" stroke-width="2" d="M 4.92999999999995 0.740000000000009 C 7.02999999999997 0.740000000000009 8.73000000000002 3.44 8.73000000000002 5.54000000000002 C 8.73000000000002 7.63999999999999 7.02999999999997 9.34000000000003 4.92999999999995 9.34000000000003 C 2.83000000000004 9.34000000000003 0.129999999999995 7.63999999999999 0.129999999999995 5.54000000000002 C 0.129999999999995 3.44 2.83000000000004 0.740000000000009 4.92999999999995 0.740000000000009 Z" mask="url(#clip2049)" transform="matrix(1 0 0 1 -672 -11878 ) matrix(1 0 0 1 672 11878 )"/></g></svg>