<?xml version="1.0" encoding="utf-8"?>
<svg version="1.1" xmlns:xlink="http://www.w3.org/1999/xlink" width="43px" height="43px" xmlns="http://www.w3.org/2000/svg">
  <defs>
    <radialGradient cx="0.629999999999995" cy="0.829999999999885" r="58.3" gradientTransform="matrix(1 0 0 0.999999999999999 0 7.7715611723761E-16 )" gradientUnits="userSpaceOnUse" id="RadialGradient763">
      <stop id="Stop764" stop-color="#dedbb5" offset="0" />
      <stop id="Stop765" stop-color="#bdb76b" offset="1" />
    </radialGradient>
    <mask fill="white" id="clip766">
      <path d="M 21.73 0.329999999999927  C 33.13 0.329999999999927  42.33 10.53  42.33 21.9299999999999  C 42.33 33.3299999999999  33.13 42.53  21.73 42.53  C 10.33 42.53  0.129999999999995 33.3299999999999  0.129999999999995 21.9299999999999  C 0.129999999999995 10.53  10.33 0.329999999999927  21.73 0.329999999999927  Z " fill-rule="evenodd" />
    </mask>
  </defs>
  <g transform="matrix(1 0 0 1 -216 -14939 )">
    <path d="M 21.73 0.329999999999927  C 33.13 0.329999999999927  42.33 10.53  42.33 21.9299999999999  C 42.33 33.3299999999999  33.13 42.53  21.73 42.53  C 10.33 42.53  0.129999999999995 33.3299999999999  0.129999999999995 21.9299999999999  C 0.129999999999995 10.53  10.33 0.329999999999927  21.73 0.329999999999927  Z " fill-rule="nonzero" fill="url(#RadialGradient763)" stroke="none" transform="matrix(1 0 0 1 216 14939 )" />
    <path d="M 21.73 0.329999999999927  C 33.13 0.329999999999927  42.33 10.53  42.33 21.9299999999999  C 42.33 33.3299999999999  33.13 42.53  21.73 42.53  C 10.33 42.53  0.129999999999995 33.3299999999999  0.129999999999995 21.9299999999999  C 0.129999999999995 10.53  10.33 0.329999999999927  21.73 0.329999999999927  Z " stroke-width="2" stroke="#bdb76b" fill="none" transform="matrix(1 0 0 1 216 14939 )" mask="url(#clip766)" />
  </g>
</svg>