<svg xmlns="http://www.w3.org/2000/svg" xmlns:xlink="http://www.w3.org/1999/xlink" width="10" height="9" version="1.1"><defs><mask id="clip2059" fill="#fff"><path fill-rule="evenodd" d="M 5.25999999999999 0.100000000000023 C 7.36000000000001 0.100000000000023 9.06000000000006 2.80000000000001 9.06000000000006 4.90000000000003 C 9.06000000000006 7 7.36000000000001 8.70000000000005 5.25999999999999 8.70000000000005 C 3.16000000000008 8.70000000000005 0.460000000000036 7 0.460000000000036 4.90000000000003 C 0.460000000000036 2.80000000000001 3.16000000000008 0.100000000000023 5.25999999999999 0.100000000000023 Z"/></mask></defs><g><path fill="#ff6a6a" fill-rule="nonzero" stroke="none" d="M 5.25999999999999 0.100000000000023 C 7.36000000000001 0.100000000000023 9.06000000000006 2.80000000000001 9.06000000000006 4.90000000000003 C 9.06000000000006 7 7.36000000000001 8.70000000000005 5.25999999999999 8.70000000000005 C 3.16000000000008 8.70000000000005 0.460000000000036 7 0.460000000000036 4.90000000000003 C 0.460000000000036 2.80000000000001 3.16000000000008 0.100000000000023 5.25999999999999 0.100000000000023 Z" transform="matrix(1 0 0 1 -648 -11798 ) matrix(1 0 0 1 648 11798 )"/><path fill="none" stroke="#ff6a6a" stroke-width="2" d="M 5.25999999999999 0.100000000000023 C 7.36000000000001 0.100000000000023 9.06000000000006 2.80000000000001 9.06000000000006 4.90000000000003 C 9.06000000000006 7 7.36000000000001 8.70000000000005 5.25999999999999 8.70000000000005 C 3.16000000000008 8.70000000000005 0.460000000000036 7 0.460000000000036 4.90000000000003 C 0.460000000000036 2.80000000000001 3.16000000000008 0.100000000000023 5.25999999999999 0.100000000000023 Z" mask="url(#clip2059)" transform="matrix(1 0 0 1 -648 -11798 ) matrix(1 0 0 1 648 11798 )"/></g></svg>