<svg xmlns="http://www.w3.org/2000/svg" xmlns:xlink="http://www.w3.org/1999/xlink" width="9" height="10" version="1.1"><defs><mask id="clip2032" fill="#fff"><path fill-rule="evenodd" d="M 4.8599999999999 0.940000000000055 C 6.95999999999992 0.940000000000055 8.65999999999997 3.6400000000001 8.65999999999997 5.74000000000001 C 8.65999999999997 7.84000000000003 6.95999999999992 9.54000000000008 4.8599999999999 9.54000000000008 C 2.75999999999999 9.54000000000008 0.0599999999999454 7.84000000000003 0.0599999999999454 5.74000000000001 C 0.0599999999999454 3.6400000000001 2.75999999999999 0.940000000000055 4.8599999999999 0.940000000000055 Z"/></mask></defs><g><path fill="#ff6a6a" fill-rule="nonzero" stroke="none" d="M 4.8599999999999 0.940000000000055 C 6.95999999999992 0.940000000000055 8.65999999999997 3.6400000000001 8.65999999999997 5.74000000000001 C 8.65999999999997 7.84000000000003 6.95999999999992 9.54000000000008 4.8599999999999 9.54000000000008 C 2.75999999999999 9.54000000000008 0.0599999999999454 7.84000000000003 0.0599999999999454 5.74000000000001 C 0.0599999999999454 3.6400000000001 2.75999999999999 0.940000000000055 4.8599999999999 0.940000000000055 Z" transform="matrix(1 0 0 1 -626 -12003 ) matrix(1 0 0 1 626 12003 )"/><path fill="none" stroke="#ff6a6a" stroke-width="2" d="M 4.8599999999999 0.940000000000055 C 6.95999999999992 0.940000000000055 8.65999999999997 3.6400000000001 8.65999999999997 5.74000000000001 C 8.65999999999997 7.84000000000003 6.95999999999992 9.54000000000008 4.8599999999999 9.54000000000008 C 2.75999999999999 9.54000000000008 0.0599999999999454 7.84000000000003 0.0599999999999454 5.74000000000001 C 0.0599999999999454 3.6400000000001 2.75999999999999 0.940000000000055 4.8599999999999 0.940000000000055 Z" mask="url(#clip2032)" transform="matrix(1 0 0 1 -626 -12003 ) matrix(1 0 0 1 626 12003 )"/></g></svg>