<svg xmlns="http://www.w3.org/2000/svg" xmlns:xlink="http://www.w3.org/1999/xlink" width="10" height="10" version="1.1"><defs><mask id="clip2057" fill="#fff"><path fill-rule="evenodd" d="M 5.53999999999996 0.639999999999986 C 7.63999999999999 0.639999999999986 9.34000000000003 3.33999999999998 9.34000000000003 5.44 C 9.34000000000003 7.53999999999996 7.63999999999999 9.24000000000001 5.53999999999996 9.24000000000001 C 3.44000000000005 9.24000000000001 0.740000000000009 7.53999999999996 0.740000000000009 5.44 C 0.740000000000009 3.33999999999998 3.44000000000005 0.639999999999986 5.53999999999996 0.639999999999986 Z"/></mask></defs><g><path fill="#ff6a6a" fill-rule="nonzero" stroke="none" d="M 5.53999999999996 0.639999999999986 C 7.63999999999999 0.639999999999986 9.34000000000003 3.33999999999998 9.34000000000003 5.44 C 9.34000000000003 7.53999999999996 7.63999999999999 9.24000000000001 5.53999999999996 9.24000000000001 C 3.44000000000005 9.24000000000001 0.740000000000009 7.53999999999996 0.740000000000009 5.44 C 0.740000000000009 3.33999999999998 3.44000000000005 0.639999999999986 5.53999999999996 0.639999999999986 Z" transform="matrix(1 0 0 1 -632 -11813 ) matrix(1 0 0 1 632 11813 )"/><path fill="none" stroke="#ff6a6a" stroke-width="2" d="M 5.53999999999996 0.639999999999986 C 7.63999999999999 0.639999999999986 9.34000000000003 3.33999999999998 9.34000000000003 5.44 C 9.34000000000003 7.53999999999996 7.63999999999999 9.24000000000001 5.53999999999996 9.24000000000001 C 3.44000000000005 9.24000000000001 0.740000000000009 7.53999999999996 0.740000000000009 5.44 C 0.740000000000009 3.33999999999998 3.44000000000005 0.639999999999986 5.53999999999996 0.639999999999986 Z" mask="url(#clip2057)" transform="matrix(1 0 0 1 -632 -11813 ) matrix(1 0 0 1 632 11813 )"/></g></svg>