<svg xmlns="http://www.w3.org/2000/svg" xmlns:xlink="http://www.w3.org/1999/xlink" width="10" height="10" version="1.1"><defs><mask id="clip2043" fill="#fff"><path fill-rule="evenodd" d="M 5.29999999999995 0.870000000000005 C 7.39999999999998 0.870000000000005 9.10000000000002 3.57000000000005 9.10000000000002 5.66999999999996 C 9.10000000000002 7.76999999999998 7.39999999999998 9.47000000000003 5.29999999999995 9.47000000000003 C 3.20000000000005 9.47000000000003 0.5 7.76999999999998 0.5 5.66999999999996 C 0.5 3.57000000000005 3.20000000000005 0.870000000000005 5.29999999999995 0.870000000000005 Z"/></mask></defs><g><path fill="#ff6a6a" fill-rule="nonzero" stroke="none" d="M 5.29999999999995 0.870000000000005 C 7.39999999999998 0.870000000000005 9.10000000000002 3.57000000000005 9.10000000000002 5.66999999999996 C 9.10000000000002 7.76999999999998 7.39999999999998 9.47000000000003 5.29999999999995 9.47000000000003 C 3.20000000000005 9.47000000000003 0.5 7.76999999999998 0.5 5.66999999999996 C 0.5 3.57000000000005 3.20000000000005 0.870000000000005 5.29999999999995 0.870000000000005 Z" transform="matrix(1 0 0 1 -671 -11925 ) matrix(1 0 0 1 671 11925 )"/><path fill="none" stroke="#ff6a6a" stroke-width="2" d="M 5.29999999999995 0.870000000000005 C 7.39999999999998 0.870000000000005 9.10000000000002 3.57000000000005 9.10000000000002 5.66999999999996 C 9.10000000000002 7.76999999999998 7.39999999999998 9.47000000000003 5.29999999999995 9.47000000000003 C 3.20000000000005 9.47000000000003 0.5 7.76999999999998 0.5 5.66999999999996 C 0.5 3.57000000000005 3.20000000000005 0.870000000000005 5.29999999999995 0.870000000000005 Z" mask="url(#clip2043)" transform="matrix(1 0 0 1 -671 -11925 ) matrix(1 0 0 1 671 11925 )"/></g></svg>