<svg xmlns="http://www.w3.org/2000/svg" xmlns:xlink="http://www.w3.org/1999/xlink" width="10" height="9" version="1.1"><defs><mask id="clip2042" fill="#fff"><path fill-rule="evenodd" d="M 5.58999999999992 0.230000000000018 C 7.68999999999994 0.230000000000018 9.38999999999999 2.93000000000006 9.38999999999999 5.02999999999997 C 9.38999999999999 7.13 7.68999999999994 8.83000000000004 5.58999999999992 8.83000000000004 C 3.49000000000001 8.83000000000004 0.789999999999964 7.13 0.789999999999964 5.02999999999997 C 0.789999999999964 2.93000000000006 3.49000000000001 0.230000000000018 5.58999999999992 0.230000000000018 Z"/></mask></defs><g><path fill="#ff6a6a" fill-rule="nonzero" stroke="none" d="M 5.58999999999992 0.230000000000018 C 7.68999999999994 0.230000000000018 9.38999999999999 2.93000000000006 9.38999999999999 5.02999999999997 C 9.38999999999999 7.13 7.68999999999994 8.83000000000004 5.58999999999992 8.83000000000004 C 3.49000000000001 8.83000000000004 0.789999999999964 7.13 0.789999999999964 5.02999999999997 C 0.789999999999964 2.93000000000006 3.49000000000001 0.230000000000018 5.58999999999992 0.230000000000018 Z" transform="matrix(1 0 0 1 -742 -11933 ) matrix(1 0 0 1 742 11933 )"/><path fill="none" stroke="#ff6a6a" stroke-width="2" d="M 5.58999999999992 0.230000000000018 C 7.68999999999994 0.230000000000018 9.38999999999999 2.93000000000006 9.38999999999999 5.02999999999997 C 9.38999999999999 7.13 7.68999999999994 8.83000000000004 5.58999999999992 8.83000000000004 C 3.49000000000001 8.83000000000004 0.789999999999964 7.13 0.789999999999964 5.02999999999997 C 0.789999999999964 2.93000000000006 3.49000000000001 0.230000000000018 5.58999999999992 0.230000000000018 Z" mask="url(#clip2042)" transform="matrix(1 0 0 1 -742 -11933 ) matrix(1 0 0 1 742 11933 )"/></g></svg>