<svg xmlns="http://www.w3.org/2000/svg" xmlns:xlink="http://www.w3.org/1999/xlink" width="10" height="10" version="1.1"><defs><mask id="clip2058" fill="#fff"><path fill-rule="evenodd" d="M 5.36999999999989 0.870000000000005 C 7.46999999999991 0.870000000000005 9.16999999999996 3.56999999999999 9.16999999999996 5.67000000000002 C 9.16999999999996 7.76999999999998 7.46999999999991 9.47000000000003 5.36999999999989 9.47000000000003 C 3.26999999999998 9.47000000000003 0.569999999999936 7.76999999999998 0.569999999999936 5.67000000000002 C 0.569999999999936 3.56999999999999 3.26999999999998 0.870000000000005 5.36999999999989 0.870000000000005 Z"/></mask></defs><g><path fill="#ff6a6a" fill-rule="nonzero" stroke="none" d="M 5.36999999999989 0.870000000000005 C 7.46999999999991 0.870000000000005 9.16999999999996 3.56999999999999 9.16999999999996 5.67000000000002 C 9.16999999999996 7.76999999999998 7.46999999999991 9.47000000000003 5.36999999999989 9.47000000000003 C 3.26999999999998 9.47000000000003 0.569999999999936 7.76999999999998 0.569999999999936 5.67000000000002 C 0.569999999999936 3.56999999999999 3.26999999999998 0.870000000000005 5.36999999999989 0.870000000000005 Z" transform="matrix(1 0 0 1 -644 -11805 ) matrix(1 0 0 1 644 11805 )"/><path fill="none" stroke="#ff6a6a" stroke-width="2" d="M 5.36999999999989 0.870000000000005 C 7.46999999999991 0.870000000000005 9.16999999999996 3.56999999999999 9.16999999999996 5.67000000000002 C 9.16999999999996 7.76999999999998 7.46999999999991 9.47000000000003 5.36999999999989 9.47000000000003 C 3.26999999999998 9.47000000000003 0.569999999999936 7.76999999999998 0.569999999999936 5.67000000000002 C 0.569999999999936 3.56999999999999 3.26999999999998 0.870000000000005 5.36999999999989 0.870000000000005 Z" mask="url(#clip2058)" transform="matrix(1 0 0 1 -644 -11805 ) matrix(1 0 0 1 644 11805 )"/></g></svg>