<svg xmlns="http://www.w3.org/2000/svg" xmlns:xlink="http://www.w3.org/1999/xlink" width="10" height="10" version="1.1"><defs><mask id="clip2061" fill="#fff"><path fill-rule="evenodd" d="M 5.47000000000003 0.860000000000014 C 7.57000000000005 0.860000000000014 9.2700000000001 3.56 9.2700000000001 5.66000000000003 C 9.2700000000001 7.75999999999999 7.57000000000005 9.46000000000004 5.47000000000003 9.46000000000004 C 3.37000000000012 9.46000000000004 0.670000000000073 7.75999999999999 0.670000000000073 5.66000000000003 C 0.670000000000073 3.56 3.37000000000012 0.860000000000014 5.47000000000003 0.860000000000014 Z"/></mask></defs><g><path fill="#ff6a6a" fill-rule="nonzero" stroke="none" d="M 5.47000000000003 0.860000000000014 C 7.57000000000005 0.860000000000014 9.2700000000001 3.56 9.2700000000001 5.66000000000003 C 9.2700000000001 7.75999999999999 7.57000000000005 9.46000000000004 5.47000000000003 9.46000000000004 C 3.37000000000012 9.46000000000004 0.670000000000073 7.75999999999999 0.670000000000073 5.66000000000003 C 0.670000000000073 3.56 3.37000000000012 0.860000000000014 5.47000000000003 0.860000000000014 Z" transform="matrix(1 0 0 1 -615 -11782 ) matrix(1 0 0 1 615 11782 )"/><path fill="none" stroke="#ff6a6a" stroke-width="2" d="M 5.47000000000003 0.860000000000014 C 7.57000000000005 0.860000000000014 9.2700000000001 3.56 9.2700000000001 5.66000000000003 C 9.2700000000001 7.75999999999999 7.57000000000005 9.46000000000004 5.47000000000003 9.46000000000004 C 3.37000000000012 9.46000000000004 0.670000000000073 7.75999999999999 0.670000000000073 5.66000000000003 C 0.670000000000073 3.56 3.37000000000012 0.860000000000014 5.47000000000003 0.860000000000014 Z" mask="url(#clip2061)" transform="matrix(1 0 0 1 -615 -11782 ) matrix(1 0 0 1 615 11782 )"/></g></svg>