<svg xmlns="http://www.w3.org/2000/svg" xmlns:xlink="http://www.w3.org/1999/xlink" width="10" height="10" version="1.1"><defs><mask id="clip2073" fill="#fff"><path fill-rule="evenodd" d="M 5.25 0.54000000000002 C 7.35000000000002 0.54000000000002 9.05000000000007 3.24000000000001 9.05000000000007 5.34000000000003 C 9.05000000000007 7.44 7.35000000000002 9.14000000000004 5.25 9.14000000000004 C 3.15000000000009 9.14000000000004 0.450000000000045 7.44 0.450000000000045 5.34000000000003 C 0.450000000000045 3.24000000000001 3.15000000000009 0.54000000000002 5.25 0.54000000000002 Z"/></mask></defs><g><path fill="#ff6a6a" fill-rule="nonzero" stroke="none" d="M 5.25 0.54000000000002 C 7.35000000000002 0.54000000000002 9.05000000000007 3.24000000000001 9.05000000000007 5.34000000000003 C 9.05000000000007 7.44 7.35000000000002 9.14000000000004 5.25 9.14000000000004 C 3.15000000000009 9.14000000000004 0.450000000000045 7.44 0.450000000000045 5.34000000000003 C 0.450000000000045 3.24000000000001 3.15000000000009 0.54000000000002 5.25 0.54000000000002 Z" transform="matrix(1 0 0 1 -953 -11691 ) matrix(1 0 0 1 953 11691 )"/><path fill="none" stroke="#ff6a6a" stroke-width="2" d="M 5.25 0.54000000000002 C 7.35000000000002 0.54000000000002 9.05000000000007 3.24000000000001 9.05000000000007 5.34000000000003 C 9.05000000000007 7.44 7.35000000000002 9.14000000000004 5.25 9.14000000000004 C 3.15000000000009 9.14000000000004 0.450000000000045 7.44 0.450000000000045 5.34000000000003 C 0.450000000000045 3.24000000000001 3.15000000000009 0.54000000000002 5.25 0.54000000000002 Z" mask="url(#clip2073)" transform="matrix(1 0 0 1 -953 -11691 ) matrix(1 0 0 1 953 11691 )"/></g></svg>