<svg xmlns="http://www.w3.org/2000/svg" xmlns:xlink="http://www.w3.org/1999/xlink" width="10" height="10" version="1.1"><defs><mask id="clip2046" fill="#fff"><path fill-rule="evenodd" d="M 5.33999999999992 0.850000000000023 C 7.43999999999994 0.850000000000023 9.13999999999999 3.55000000000001 9.13999999999999 5.65000000000003 C 9.13999999999999 7.75 7.43999999999994 9.45000000000005 5.33999999999992 9.45000000000005 C 3.24000000000001 9.45000000000005 0.539999999999964 7.75 0.539999999999964 5.65000000000003 C 0.539999999999964 3.55000000000001 3.24000000000001 0.850000000000023 5.33999999999992 0.850000000000023 Z"/></mask></defs><g><path fill="#ff6a6a" fill-rule="nonzero" stroke="none" d="M 5.33999999999992 0.850000000000023 C 7.43999999999994 0.850000000000023 9.13999999999999 3.55000000000001 9.13999999999999 5.65000000000003 C 9.13999999999999 7.75 7.43999999999994 9.45000000000005 5.33999999999992 9.45000000000005 C 3.24000000000001 9.45000000000005 0.539999999999964 7.75 0.539999999999964 5.65000000000003 C 0.539999999999964 3.55000000000001 3.24000000000001 0.850000000000023 5.33999999999992 0.850000000000023 Z" transform="matrix(1 0 0 1 -628 -11902 ) matrix(1 0 0 1 628 11902 )"/><path fill="none" stroke="#ff6a6a" stroke-width="2" d="M 5.33999999999992 0.850000000000023 C 7.43999999999994 0.850000000000023 9.13999999999999 3.55000000000001 9.13999999999999 5.65000000000003 C 9.13999999999999 7.75 7.43999999999994 9.45000000000005 5.33999999999992 9.45000000000005 C 3.24000000000001 9.45000000000005 0.539999999999964 7.75 0.539999999999964 5.65000000000003 C 0.539999999999964 3.55000000000001 3.24000000000001 0.850000000000023 5.33999999999992 0.850000000000023 Z" mask="url(#clip2046)" transform="matrix(1 0 0 1 -628 -11902 ) matrix(1 0 0 1 628 11902 )"/></g></svg>