<svg xmlns="http://www.w3.org/2000/svg" xmlns:xlink="http://www.w3.org/1999/xlink" width="10" height="9" version="1.1"><defs><mask id="clip2065" fill="#fff"><path fill-rule="evenodd" d="M 5.26999999999998 0.00999999999999091 C 7.37 0.00999999999999091 9.07000000000005 2.70999999999998 9.07000000000005 4.81 C 9.07000000000005 6.90999999999997 7.37 8.61000000000001 5.26999999999998 8.61000000000001 C 3.17000000000007 8.61000000000001 0.470000000000027 6.90999999999997 0.470000000000027 4.81 C 0.470000000000027 2.70999999999998 3.17000000000007 0.00999999999999091 5.26999999999998 0.00999999999999091 Z"/></mask></defs><g><path fill="#ff6a6a" fill-rule="nonzero" stroke="none" d="M 5.26999999999998 0.00999999999999091 C 7.37 0.00999999999999091 9.07000000000005 2.70999999999998 9.07000000000005 4.81 C 9.07000000000005 6.90999999999997 7.37 8.61000000000001 5.26999999999998 8.61000000000001 C 3.17000000000007 8.61000000000001 0.470000000000027 6.90999999999997 0.470000000000027 4.81 C 0.470000000000027 2.70999999999998 3.17000000000007 0.00999999999999091 5.26999999999998 0.00999999999999091 Z" transform="matrix(1 0 0 1 -708 -11753 ) matrix(1 0 0 1 708 11753 )"/><path fill="none" stroke="#ff6a6a" stroke-width="2" d="M 5.26999999999998 0.00999999999999091 C 7.37 0.00999999999999091 9.07000000000005 2.70999999999998 9.07000000000005 4.81 C 9.07000000000005 6.90999999999997 7.37 8.61000000000001 5.26999999999998 8.61000000000001 C 3.17000000000007 8.61000000000001 0.470000000000027 6.90999999999997 0.470000000000027 4.81 C 0.470000000000027 2.70999999999998 3.17000000000007 0.00999999999999091 5.26999999999998 0.00999999999999091 Z" mask="url(#clip2065)" transform="matrix(1 0 0 1 -708 -11753 ) matrix(1 0 0 1 708 11753 )"/></g></svg>