<?xml version="1.0" encoding="utf-8"?>
<svg version="1.1" xmlns:xlink="http://www.w3.org/1999/xlink" width="81px" height="20px" xmlns="http://www.w3.org/2000/svg">
  <defs>
    <mask fill="white" id="clip703">
      <path d="M 4.92000000000007 6.77999999999997  C 7.12 6.77999999999997  10.9200000000001 10.58  10.9200000000001 12.78  C 10.9200000000001 14.98  7.12 16.78  4.92000000000007 16.78  C 2.72000000000003 16.78  0.920000000000073 14.98  0.920000000000073 12.78  C 0.920000000000073 10.58  2.72000000000003 6.77999999999997  4.92000000000007 6.77999999999997  Z " fill-rule="evenodd" />
    </mask>
  </defs>
  <g transform="matrix(1 0 0 1 -932 -13094 )">
    <path d="M 4.92000000000007 6.77999999999997  C 7.12 6.77999999999997  10.9200000000001 10.58  10.9200000000001 12.78  C 10.9200000000001 14.98  7.12 16.78  4.92000000000007 16.78  C 2.72000000000003 16.78  0.920000000000073 14.98  0.920000000000073 12.78  C 0.920000000000073 10.58  2.72000000000003 6.77999999999997  4.92000000000007 6.77999999999997  Z " fill-rule="nonzero" fill="#ffffff" stroke="none" fill-opacity="0" transform="matrix(1 0 0 1 933 13095 )" />
    <path d="M 4.92000000000007 6.77999999999997  C 7.12 6.77999999999997  10.9200000000001 10.58  10.9200000000001 12.78  C 10.9200000000001 14.98  7.12 16.78  4.92000000000007 16.78  C 2.72000000000003 16.78  0.920000000000073 14.98  0.920000000000073 12.78  C 0.920000000000073 10.58  2.72000000000003 6.77999999999997  4.92000000000007 6.77999999999997  Z " stroke-width="4" stroke="#268ea8" fill="none" transform="matrix(1 0 0 1 933 13095 )" mask="url(#clip703)" />
    <path d="M 77.72 0.879999999999995  L 5.92000000000007 11.78  " stroke-width="2" stroke="#268ea8" fill="none" transform="matrix(1 0 0 1 933 13095 )" mask="url(#clip703)" />
  </g>
</svg>