<svg xmlns="http://www.w3.org/2000/svg" xmlns:xlink="http://www.w3.org/1999/xlink" width="9" height="10" version="1.1"><defs><mask id="clip2056" fill="#fff"><path fill-rule="evenodd" d="M 4.82999999999993 0.620000000000005 C 6.92999999999995 0.620000000000005 8.63 3.31999999999999 8.63 5.42000000000002 C 8.63 7.51999999999998 6.92999999999995 9.22000000000003 4.82999999999993 9.22000000000003 C 2.73000000000002 9.22000000000003 0.0299999999999727 7.51999999999998 0.0299999999999727 5.42000000000002 C 0.0299999999999727 3.31999999999999 2.73000000000002 0.620000000000005 4.82999999999993 0.620000000000005 Z"/></mask></defs><g><path fill="#ff6a6a" fill-rule="nonzero" stroke="none" d="M 4.82999999999993 0.620000000000005 C 6.92999999999995 0.620000000000005 8.63 3.31999999999999 8.63 5.42000000000002 C 8.63 7.51999999999998 6.92999999999995 9.22000000000003 4.82999999999993 9.22000000000003 C 2.73000000000002 9.22000000000003 0.0299999999999727 7.51999999999998 0.0299999999999727 5.42000000000002 C 0.0299999999999727 3.31999999999999 2.73000000000002 0.620000000000005 4.82999999999993 0.620000000000005 Z" transform="matrix(1 0 0 1 -624 -11821 ) matrix(1 0 0 1 624 11821 )"/><path fill="none" stroke="#ff6a6a" stroke-width="2" d="M 4.82999999999993 0.620000000000005 C 6.92999999999995 0.620000000000005 8.63 3.31999999999999 8.63 5.42000000000002 C 8.63 7.51999999999998 6.92999999999995 9.22000000000003 4.82999999999993 9.22000000000003 C 2.73000000000002 9.22000000000003 0.0299999999999727 7.51999999999998 0.0299999999999727 5.42000000000002 C 0.0299999999999727 3.31999999999999 2.73000000000002 0.620000000000005 4.82999999999993 0.620000000000005 Z" mask="url(#clip2056)" transform="matrix(1 0 0 1 -624 -11821 ) matrix(1 0 0 1 624 11821 )"/></g></svg>