<?xml version="1.0" encoding="utf-8"?>
<svg version="1.1" xmlns:xlink="http://www.w3.org/1999/xlink" width="10px" height="10px" xmlns="http://www.w3.org/2000/svg">
  <defs>
    <mask fill="white" id="clip2052">
      <path d="M 5.22000000000003 0.580000000000041  C 7.32000000000005 0.580000000000041  9.0200000000001 3.28000000000003  9.0200000000001 5.38000000000005  C 9.0200000000001 7.48000000000002  7.32000000000005 9.18000000000006  5.22000000000003 9.18000000000006  C 3.12000000000012 9.18000000000006  0.420000000000073 7.48000000000002  0.420000000000073 5.38000000000005  C 0.420000000000073 3.28000000000003  3.12000000000012 0.580000000000041  5.22000000000003 0.580000000000041  Z " fill-rule="evenodd" />
    </mask>
  </defs>
  <g transform="matrix(1 0 0 1 -686 -11853 )">
    <path d="M 5.22000000000003 0.580000000000041  C 7.32000000000005 0.580000000000041  9.0200000000001 3.28000000000003  9.0200000000001 5.38000000000005  C 9.0200000000001 7.48000000000002  7.32000000000005 9.18000000000006  5.22000000000003 9.18000000000006  C 3.12000000000012 9.18000000000006  0.420000000000073 7.48000000000002  0.420000000000073 5.38000000000005  C 0.420000000000073 3.28000000000003  3.12000000000012 0.580000000000041  5.22000000000003 0.580000000000041  Z " fill-rule="nonzero" fill="#ff6a6a" stroke="none" transform="matrix(1 0 0 1 686 11853 )" />
    <path d="M 5.22000000000003 0.580000000000041  C 7.32000000000005 0.580000000000041  9.0200000000001 3.28000000000003  9.0200000000001 5.38000000000005  C 9.0200000000001 7.48000000000002  7.32000000000005 9.18000000000006  5.22000000000003 9.18000000000006  C 3.12000000000012 9.18000000000006  0.420000000000073 7.48000000000002  0.420000000000073 5.38000000000005  C 0.420000000000073 3.28000000000003  3.12000000000012 0.580000000000041  5.22000000000003 0.580000000000041  Z " stroke-width="2" stroke="#ff6a6a" fill="none" transform="matrix(1 0 0 1 686 11853 )" mask="url(#clip2052)" />
  </g>
</svg>