<?xml version="1.0" encoding="utf-8"?>
<svg version="1.1" xmlns:xlink="http://www.w3.org/1999/xlink" width="24px" height="39px" xmlns="http://www.w3.org/2000/svg">
  <defs>
    <mask fill="white" id="clip739">
      <path d="M 6.17000000000002 0.230000000000018  C 8.37 0.230000000000018  10.17 4.02999999999997  10.17 6.23000000000002  C 10.17 8.43000000000001  8.37 10.23  6.17000000000002 10.23  C 3.97000000000003 10.23  0.170000000000016 8.43000000000001  0.170000000000016 6.23000000000002  C 0.170000000000016 4.02999999999997  3.97000000000003 0.230000000000018  6.17000000000002 0.230000000000018  Z " fill-rule="evenodd" />
    </mask>
  </defs>
  <g transform="matrix(1 0 0 1 -372 -13667 )">
    <path d="M 6.17000000000002 0.230000000000018  C 8.37 0.230000000000018  10.17 4.02999999999997  10.17 6.23000000000002  C 10.17 8.43000000000001  8.37 10.23  6.17000000000002 10.23  C 3.97000000000003 10.23  0.170000000000016 8.43000000000001  0.170000000000016 6.23000000000002  C 0.170000000000016 4.02999999999997  3.97000000000003 0.230000000000018  6.17000000000002 0.230000000000018  Z " fill-rule="nonzero" fill="#ffffff" stroke="none" fill-opacity="0" transform="matrix(1 0 0 1 373 13668 )" />
    <path d="M 6.17000000000002 0.230000000000018  C 8.37 0.230000000000018  10.17 4.02999999999997  10.17 6.23000000000002  C 10.17 8.43000000000001  8.37 10.23  6.17000000000002 10.23  C 3.97000000000003 10.23  0.170000000000016 8.43000000000001  0.170000000000016 6.23000000000002  C 0.170000000000016 4.02999999999997  3.97000000000003 0.230000000000018  6.17000000000002 0.230000000000018  Z " stroke-width="4" stroke="#008000" fill="none" transform="matrix(1 0 0 1 373 13668 )" mask="url(#clip739)" />
    <path d="M 20.17 35.63  L 5.17000000000002 5.23000000000002  " stroke-width="2" stroke="#008000" fill="none" transform="matrix(1 0 0 1 373 13668 )" mask="url(#clip739)" />
  </g>
</svg>