<?xml version="1.0" encoding="utf-8"?>
<svg version="1.1" xmlns:xlink="http://www.w3.org/1999/xlink" width="96px" height="24px" xmlns="http://www.w3.org/2000/svg">
  <defs>
    <mask fill="white" id="clip764">
      <path d="M 0.42999999999995 23.35  C 0.42999999999995 23.35  0.42999999999995 0.649999999999977  0.42999999999995 0.649999999999977  C 0.42999999999995 0.649999999999977  95.93 0.649999999999977  95.93 0.649999999999977  C 95.93 0.649999999999977  95.93 23.35  95.93 23.35  C 95.93 23.35  0.42999999999995 23.35  0.42999999999995 23.35  Z " fill-rule="evenodd" />
    </mask>
  </defs>
  <g transform="matrix(1 0 0 1 -955 -14504 )">
    <path d="M 0.42999999999995 23.35  C 0.42999999999995 23.35  0.42999999999995 0.649999999999977  0.42999999999995 0.649999999999977  C 0.42999999999995 0.649999999999977  95.93 0.649999999999977  95.93 0.649999999999977  C 95.93 0.649999999999977  95.93 23.35  95.93 23.35  C 95.93 23.35  0.42999999999995 23.35  0.42999999999995 23.35  Z " fill-rule="nonzero" fill="#78bcff" stroke="none" transform="matrix(1 0 0 1 955 14504 )" />
    <path d="M 0.42999999999995 23.35  C 0.42999999999995 23.35  0.42999999999995 0.649999999999977  0.42999999999995 0.649999999999977  C 0.42999999999995 0.649999999999977  95.93 0.649999999999977  95.93 0.649999999999977  C 95.93 0.649999999999977  95.93 23.35  95.93 23.35  C 95.93 23.35  0.42999999999995 23.35  0.42999999999995 23.35  Z " stroke-width="2" stroke="#4ba6ff" fill="none" transform="matrix(1 0 0 1 955 14504 )" mask="url(#clip764)" />
  </g>
</svg>