<?xml version="1.0" encoding="utf-8"?>
<svg version="1.1" xmlns:xlink="http://www.w3.org/1999/xlink" width="70px" height="37px" xmlns="http://www.w3.org/2000/svg">
  <defs>
    <mask fill="white" id="clip640">
      <path d="M 62.97 0.830000000000013  C 65.17 0.830000000000013  66.97 4.63  66.97 6.82999999999998  C 66.97 9.03  65.17 10.83  62.97 10.83  C 60.77 10.83  56.97 9.03  56.97 6.82999999999998  C 56.97 4.63  60.77 0.830000000000013  62.97 0.830000000000013  Z " fill-rule="evenodd" />
    </mask>
  </defs>
  <g transform="matrix(1 0 0 1 -364 -13503 )">
    <path d="M 62.97 0.830000000000013  C 65.17 0.830000000000013  66.97 4.63  66.97 6.82999999999998  C 66.97 9.03  65.17 10.83  62.97 10.83  C 60.77 10.83  56.97 9.03  56.97 6.82999999999998  C 56.97 4.63  60.77 0.830000000000013  62.97 0.830000000000013  Z " fill-rule="nonzero" fill="#ffffff" stroke="none" fill-opacity="0" transform="matrix(1 0 0 1 365 13504 )" />
    <path d="M 62.97 0.830000000000013  C 65.17 0.830000000000013  66.97 4.63  66.97 6.82999999999998  C 66.97 9.03  65.17 10.83  62.97 10.83  C 60.77 10.83  56.97 9.03  56.97 6.82999999999998  C 56.97 4.63  60.77 0.830000000000013  62.97 0.830000000000013  Z " stroke-width="4" stroke="#a52a2a" fill="none" transform="matrix(1 0 0 1 365 13504 )" mask="url(#clip640)" />
    <path d="M 0.0699999999999932 33.73  L 61.97 5.82999999999998  " stroke-width="2" stroke="#a52a2a" fill="none" transform="matrix(1 0 0 1 365 13504 )" mask="url(#clip640)" />
  </g>
</svg>