<svg xmlns="http://www.w3.org/2000/svg" xmlns:xlink="http://www.w3.org/1999/xlink" width="10" height="9" version="1.1"><defs><mask id="clip2076" fill="#fff"><path fill-rule="evenodd" d="M 0.920000000000073 9 C 0.920000000000073 9 5.72000000000003 0 5.72000000000003 0 C 5.72000000000003 0 9.51999999999998 9 9.51999999999998 9 C 9.51999999999998 9 0.920000000000073 9 0.920000000000073 9 Z"/></mask></defs><g><path fill="#fff" fill-opacity="0" fill-rule="nonzero" stroke="none" d="M 0.920000000000073 9 C 0.920000000000073 9 5.72000000000003 0 5.72000000000003 0 C 5.72000000000003 0 9.51999999999998 9 9.51999999999998 9 C 9.51999999999998 9 0.920000000000073 9 0.920000000000073 9 Z" transform="matrix(1 0 0 1 -570 -8059 ) matrix(1 0 0 1 570 8059 )"/><path fill="none" stroke="#fb9d53" stroke-width="2" d="M 0.920000000000073 9 C 0.920000000000073 9 5.72000000000003 0 5.72000000000003 0 C 5.72000000000003 0 9.51999999999998 9 9.51999999999998 9 C 9.51999999999998 9 0.920000000000073 9 0.920000000000073 9 Z" mask="url(#clip2076)" transform="matrix(1 0 0 1 -570 -8059 ) matrix(1 0 0 1 570 8059 )"/></g></svg>