<?xml version="1.0" encoding="utf-8"?>
<svg version="1.1" xmlns:xlink="http://www.w3.org/1999/xlink" width="96px" height="117px" xmlns="http://www.w3.org/2000/svg">
  <defs>
    <mask fill="white" id="clip892">
      <path d="M 0.42999999999995 116.66  C 0.42999999999995 116.66  0.42999999999995 0.45999999999998  0.42999999999995 0.45999999999998  C 0.42999999999995 0.45999999999998  95.93 0.45999999999998  95.93 0.45999999999998  C 95.93 0.45999999999998  95.93 116.66  95.93 116.66  C 95.93 116.66  0.42999999999995 116.66  0.42999999999995 116.66  Z " fill-rule="evenodd" />
    </mask>
  </defs>
  <g transform="matrix(1 0 0 1 -955 -14559 )">
    <path d="M 0.42999999999995 116.66  C 0.42999999999995 116.66  0.42999999999995 0.45999999999998  0.42999999999995 0.45999999999998  C 0.42999999999995 0.45999999999998  95.93 0.45999999999998  95.93 0.45999999999998  C 95.93 0.45999999999998  95.93 116.66  95.93 116.66  C 95.93 116.66  0.42999999999995 116.66  0.42999999999995 116.66  Z " fill-rule="nonzero" fill="#1e8fff" stroke="none" transform="matrix(1 0 0 1 955 14559 )" />
    <path d="M 0.42999999999995 116.66  C 0.42999999999995 116.66  0.42999999999995 0.45999999999998  0.42999999999995 0.45999999999998  C 0.42999999999995 0.45999999999998  95.93 0.45999999999998  95.93 0.45999999999998  C 95.93 0.45999999999998  95.93 116.66  95.93 116.66  C 95.93 116.66  0.42999999999995 116.66  0.42999999999995 116.66  Z " stroke-width="2" stroke="#0074e4" fill="none" transform="matrix(1 0 0 1 955 14559 )" mask="url(#clip892)" />
  </g>
</svg>