<?xml version="1.0" encoding="utf-8"?>
<svg version="1.1" xmlns:xlink="http://www.w3.org/1999/xlink" width="26px" height="66px" xmlns="http://www.w3.org/2000/svg">
  <defs>
    <mask fill="white" id="clip2119">
      <path d="M 6.97000000000003 52.6  C 9.17000000000002 52.6  10.97 56.4  10.97 58.6  C 10.97 60.8  9.17000000000002 62.6  6.97000000000003 62.6  C 4.77000000000001 62.6  0.969999999999999 60.8  0.969999999999999 58.6  C 0.969999999999999 56.4  4.77000000000001 52.6  6.97000000000003 52.6  Z " fill-rule="evenodd" />
    </mask>
  </defs>
  <g transform="matrix(1 0 0 1 -333 -12606 )">
    <path d="M 6.97000000000003 52.6  C 9.17000000000002 52.6  10.97 56.4  10.97 58.6  C 10.97 60.8  9.17000000000002 62.6  6.97000000000003 62.6  C 4.77000000000001 62.6  0.969999999999999 60.8  0.969999999999999 58.6  C 0.969999999999999 56.4  4.77000000000001 52.6  6.97000000000003 52.6  Z " fill-rule="nonzero" fill="#ffffff" stroke="none" fill-opacity="0" transform="matrix(1 0 0 1 334 12607 )" />
    <path d="M 6.97000000000003 52.6  C 9.17000000000002 52.6  10.97 56.4  10.97 58.6  C 10.97 60.8  9.17000000000002 62.6  6.97000000000003 62.6  C 4.77000000000001 62.6  0.969999999999999 60.8  0.969999999999999 58.6  C 0.969999999999999 56.4  4.77000000000001 52.6  6.97000000000003 52.6  Z " stroke-width="4" stroke="#16a58a" fill="none" transform="matrix(1 0 0 1 334 12607 )" mask="url(#clip2119)" />
    <path d="M 22.77 0.199999999999989  L 5.97 57.6  " stroke-width="2" stroke="#16a58a" fill="none" transform="matrix(1 0 0 1 334 12607 )" mask="url(#clip2119)" />
  </g>
</svg>