<svg xmlns="http://www.w3.org/2000/svg" xmlns:xlink="http://www.w3.org/1999/xlink" width="24" height="76" version="1.1"><defs><mask id="clip2117" fill="#fff"><path fill-rule="evenodd" d="M 16.37 0.400000000000006 C 18.57 0.400000000000006 20.37 4.19999999999999 20.37 6.40000000000001 C 20.37 8.59999999999999 18.57 10.4 16.37 10.4 C 14.17 10.4 10.37 8.59999999999999 10.37 6.40000000000001 C 10.37 4.19999999999999 14.17 0.400000000000006 16.37 0.400000000000006 Z"/></mask></defs><g><path fill="#fff" fill-opacity="0" fill-rule="nonzero" stroke="none" d="M 16.37 0.400000000000006 C 18.57 0.400000000000006 20.37 4.19999999999999 20.37 6.40000000000001 C 20.37 8.59999999999999 18.57 10.4 16.37 10.4 C 14.17 10.4 10.37 8.59999999999999 10.37 6.40000000000001 C 10.37 4.19999999999999 14.17 0.400000000000006 16.37 0.400000000000006 Z" transform="matrix(1 0 0 1 -283 -12577 ) matrix(1 0 0 1 284 12578 )"/><path fill="none" stroke="#16a58a" stroke-width="4" d="M 16.37 0.400000000000006 C 18.57 0.400000000000006 20.37 4.19999999999999 20.37 6.40000000000001 C 20.37 8.59999999999999 18.57 10.4 16.37 10.4 C 14.17 10.4 10.37 8.59999999999999 10.37 6.40000000000001 C 10.37 4.19999999999999 14.17 0.400000000000006 16.37 0.400000000000006 Z" mask="url(#clip2117)" transform="matrix(1 0 0 1 -283 -12577 ) matrix(1 0 0 1 284 12578 )"/><path fill="none" stroke="#16a58a" stroke-width="2" d="M 0.969999999999999 72.2 L 15.37 5.40000000000001" mask="url(#clip2117)" transform="matrix(1 0 0 1 -283 -12577 ) matrix(1 0 0 1 284 12578 )"/></g></svg>