<svg xmlns="http://www.w3.org/2000/svg" xmlns:xlink="http://www.w3.org/1999/xlink" width="66" height="33" version="1.1"><defs><mask id="clip2118" fill="#fff"><path fill-rule="evenodd" d="M 58.77 19.2 C 60.97 19.2 62.77 23 62.77 25.2 C 62.77 27.4 60.97 29.2 58.77 29.2 C 56.57 29.2 52.77 27.4 52.77 25.2 C 52.77 23 56.57 19.2 58.77 19.2 Z"/></mask></defs><g><path fill="#fff" fill-opacity="0" fill-rule="nonzero" stroke="none" d="M 58.77 19.2 C 60.97 19.2 62.77 23 62.77 25.2 C 62.77 27.4 60.97 29.2 58.77 29.2 C 56.57 29.2 52.77 27.4 52.77 25.2 C 52.77 23 56.57 19.2 58.77 19.2 Z" transform="matrix(1 0 0 1 -298 -12582 ) matrix(1 0 0 1 299 12583 )"/><path fill="none" stroke="#16a58a" stroke-width="4" d="M 58.77 19.2 C 60.97 19.2 62.77 23 62.77 25.2 C 62.77 27.4 60.97 29.2 58.77 29.2 C 56.57 29.2 52.77 27.4 52.77 25.2 C 52.77 23 56.57 19.2 58.77 19.2 Z" mask="url(#clip2118)" transform="matrix(1 0 0 1 -298 -12582 ) matrix(1 0 0 1 299 12583 )"/><path fill="none" stroke="#16a58a" stroke-width="2" d="M 0.370000000000005 0.400000000000006 L 57.77 24.2" mask="url(#clip2118)" transform="matrix(1 0 0 1 -298 -12582 ) matrix(1 0 0 1 299 12583 )"/></g></svg>