<?xml version="1.0" encoding="utf-8"?>
<svg version="1.1" xmlns:xlink="http://www.w3.org/1999/xlink" width="41px" height="81px" xmlns="http://www.w3.org/2000/svg">
  <defs>
    <mask fill="white" id="clip2120">
      <path d="M 33.17 67.4  C 35.37 67.4  37.17 71.2  37.17 73.4  C 37.17 75.6  35.37 77.4  33.17 77.4  C 30.97 77.4  27.17 75.6  27.17 73.4  C 27.17 71.2  30.97 67.4  33.17 67.4  Z " fill-rule="evenodd" />
    </mask>
  </defs>
  <g transform="matrix(1 0 0 1 -338 -12663 )">
    <path d="M 33.17 67.4  C 35.37 67.4  37.17 71.2  37.17 73.4  C 37.17 75.6  35.37 77.4  33.17 77.4  C 30.97 77.4  27.17 75.6  27.17 73.4  C 27.17 71.2  30.97 67.4  33.17 67.4  Z " fill-rule="nonzero" fill="#ffffff" stroke="none" fill-opacity="0" transform="matrix(1 0 0 1 339 12664 )" />
    <path d="M 33.17 67.4  C 35.37 67.4  37.17 71.2  37.17 73.4  C 37.17 75.6  35.37 77.4  33.17 77.4  C 30.97 77.4  27.17 75.6  27.17 73.4  C 27.17 71.2  30.97 67.4  33.17 67.4  Z " stroke-width="4" stroke="#16a58a" fill="none" transform="matrix(1 0 0 1 339 12664 )" mask="url(#clip2120)" />
    <path d="M 0.969999999999999 0.600000000000023  L 32.17 72.4  " stroke-width="2" stroke="#16a58a" fill="none" transform="matrix(1 0 0 1 339 12664 )" mask="url(#clip2120)" />
  </g>
</svg>