<?xml version="1.0" encoding="utf-8"?>
<svg version="1.1" xmlns:xlink="http://www.w3.org/1999/xlink" width="24px" height="76px" xmlns="http://www.w3.org/2000/svg">
  <defs>
    <mask fill="white" id="clip2117">
      <path d="M 16.37 0.400000000000006  C 18.57 0.400000000000006  20.37 4.19999999999999  20.37 6.40000000000001  C 20.37 8.59999999999999  18.57 10.4  16.37 10.4  C 14.17 10.4  10.37 8.59999999999999  10.37 6.40000000000001  C 10.37 4.19999999999999  14.17 0.400000000000006  16.37 0.400000000000006  Z " fill-rule="evenodd" />
    </mask>
  </defs>
  <g transform="matrix(1 0 0 1 -283 -12577 )">
    <path d="M 16.37 0.400000000000006  C 18.57 0.400000000000006  20.37 4.19999999999999  20.37 6.40000000000001  C 20.37 8.59999999999999  18.57 10.4  16.37 10.4  C 14.17 10.4  10.37 8.59999999999999  10.37 6.40000000000001  C 10.37 4.19999999999999  14.17 0.400000000000006  16.37 0.400000000000006  Z " fill-rule="nonzero" fill="#ffffff" stroke="none" fill-opacity="0" transform="matrix(1 0 0 1 284 12578 )" />
    <path d="M 16.37 0.400000000000006  C 18.57 0.400000000000006  20.37 4.19999999999999  20.37 6.40000000000001  C 20.37 8.59999999999999  18.57 10.4  16.37 10.4  C 14.17 10.4  10.37 8.59999999999999  10.37 6.40000000000001  C 10.37 4.19999999999999  14.17 0.400000000000006  16.37 0.400000000000006  Z " stroke-width="4" stroke="#16a58a" fill="none" transform="matrix(1 0 0 1 284 12578 )" mask="url(#clip2117)" />
    <path d="M 0.969999999999999 72.2  L 15.37 5.40000000000001  " stroke-width="2" stroke="#16a58a" fill="none" transform="matrix(1 0 0 1 284 12578 )" mask="url(#clip2117)" />
  </g>
</svg>