<svg xmlns="http://www.w3.org/2000/svg" xmlns:xlink="http://www.w3.org/1999/xlink" width="14" height="66" version="1.1"><defs><mask id="clip2124" fill="#fff"><path fill-rule="evenodd" d="M 6.47 0.600000000000023 C 8.67000000000002 0.600000000000023 10.47 4.39999999999998 10.47 6.60000000000002 C 10.47 8.80000000000001 8.67000000000002 10.6 6.47 10.6 C 4.27000000000001 10.6 0.469999999999999 8.80000000000001 0.469999999999999 6.60000000000002 C 0.469999999999999 4.39999999999998 4.27000000000001 0.600000000000023 6.47 0.600000000000023 Z"/></mask></defs><g><path fill="#fff" fill-opacity="0" fill-rule="nonzero" stroke="none" d="M 6.47 0.600000000000023 C 8.67000000000002 0.600000000000023 10.47 4.39999999999998 10.47 6.60000000000002 C 10.47 8.80000000000001 8.67000000000002 10.6 6.47 10.6 C 4.27000000000001 10.6 0.469999999999999 8.80000000000001 0.469999999999999 6.60000000000002 C 0.469999999999999 4.39999999999998 4.27000000000001 0.600000000000023 6.47 0.600000000000023 Z" transform="matrix(1 0 0 1 -232 -12658 ) matrix(1 0 0 1 233 12659 )"/><path fill="none" stroke="#16a58a" stroke-width="4" d="M 6.47 0.600000000000023 C 8.67000000000002 0.600000000000023 10.47 4.39999999999998 10.47 6.60000000000002 C 10.47 8.80000000000001 8.67000000000002 10.6 6.47 10.6 C 4.27000000000001 10.6 0.469999999999999 8.80000000000001 0.469999999999999 6.60000000000002 C 0.469999999999999 4.39999999999998 4.27000000000001 0.600000000000023 6.47 0.600000000000023 Z" mask="url(#clip2124)" transform="matrix(1 0 0 1 -232 -12658 ) matrix(1 0 0 1 233 12659 )"/><path fill="none" stroke="#16a58a" stroke-width="2" d="M 8.97 63 L 5.47 5.60000000000002" mask="url(#clip2124)" transform="matrix(1 0 0 1 -232 -12658 ) matrix(1 0 0 1 233 12659 )"/></g></svg>