<svg xmlns="http://www.w3.org/2000/svg" xmlns:xlink="http://www.w3.org/1999/xlink" width="26" height="66" version="1.1"><defs><mask id="clip2119" fill="#fff"><path fill-rule="evenodd" d="M 6.97000000000003 52.6 C 9.17000000000002 52.6 10.97 56.4 10.97 58.6 C 10.97 60.8 9.17000000000002 62.6 6.97000000000003 62.6 C 4.77000000000001 62.6 0.969999999999999 60.8 0.969999999999999 58.6 C 0.969999999999999 56.4 4.77000000000001 52.6 6.97000000000003 52.6 Z"/></mask></defs><g><path fill="#fff" fill-opacity="0" fill-rule="nonzero" stroke="none" d="M 6.97000000000003 52.6 C 9.17000000000002 52.6 10.97 56.4 10.97 58.6 C 10.97 60.8 9.17000000000002 62.6 6.97000000000003 62.6 C 4.77000000000001 62.6 0.969999999999999 60.8 0.969999999999999 58.6 C 0.969999999999999 56.4 4.77000000000001 52.6 6.97000000000003 52.6 Z" transform="matrix(1 0 0 1 -333 -12606 ) matrix(1 0 0 1 334 12607 )"/><path fill="none" stroke="#16a58a" stroke-width="4" d="M 6.97000000000003 52.6 C 9.17000000000002 52.6 10.97 56.4 10.97 58.6 C 10.97 60.8 9.17000000000002 62.6 6.97000000000003 62.6 C 4.77000000000001 62.6 0.969999999999999 60.8 0.969999999999999 58.6 C 0.969999999999999 56.4 4.77000000000001 52.6 6.97000000000003 52.6 Z" mask="url(#clip2119)" transform="matrix(1 0 0 1 -333 -12606 ) matrix(1 0 0 1 334 12607 )"/><path fill="none" stroke="#16a58a" stroke-width="2" d="M 22.77 0.199999999999989 L 5.97 57.6" mask="url(#clip2119)" transform="matrix(1 0 0 1 -333 -12606 ) matrix(1 0 0 1 334 12607 )"/></g></svg>