<svg xmlns="http://www.w3.org/2000/svg" xmlns:xlink="http://www.w3.org/1999/xlink" width="41" height="81" version="1.1"><defs><mask id="clip2120" fill="#fff"><path fill-rule="evenodd" d="M 33.17 67.4 C 35.37 67.4 37.17 71.2 37.17 73.4 C 37.17 75.6 35.37 77.4 33.17 77.4 C 30.97 77.4 27.17 75.6 27.17 73.4 C 27.17 71.2 30.97 67.4 33.17 67.4 Z"/></mask></defs><g><path fill="#fff" fill-opacity="0" fill-rule="nonzero" stroke="none" d="M 33.17 67.4 C 35.37 67.4 37.17 71.2 37.17 73.4 C 37.17 75.6 35.37 77.4 33.17 77.4 C 30.97 77.4 27.17 75.6 27.17 73.4 C 27.17 71.2 30.97 67.4 33.17 67.4 Z" transform="matrix(1 0 0 1 -338 -12663 ) matrix(1 0 0 1 339 12664 )"/><path fill="none" stroke="#16a58a" stroke-width="4" d="M 33.17 67.4 C 35.37 67.4 37.17 71.2 37.17 73.4 C 37.17 75.6 35.37 77.4 33.17 77.4 C 30.97 77.4 27.17 75.6 27.17 73.4 C 27.17 71.2 30.97 67.4 33.17 67.4 Z" mask="url(#clip2120)" transform="matrix(1 0 0 1 -338 -12663 ) matrix(1 0 0 1 339 12664 )"/><path fill="none" stroke="#16a58a" stroke-width="2" d="M 0.969999999999999 0.600000000000023 L 32.17 72.4" mask="url(#clip2120)" transform="matrix(1 0 0 1 -338 -12663 ) matrix(1 0 0 1 339 12664 )"/></g></svg>