<svg xmlns="http://www.w3.org/2000/svg" xmlns:xlink="http://www.w3.org/1999/xlink" width="55" height="23" version="1.1"><defs><mask id="clip2125" fill="#fff"><path fill-rule="evenodd" d="M 47.97 0.199999999999989 C 50.27 0.199999999999989 51.97 4 51.97 6.19999999999999 C 51.97 8.5 50.27 10.2 47.97 10.2 C 45.77 10.2 41.97 8.5 41.97 6.19999999999999 C 41.97 4 45.77 0.199999999999989 47.97 0.199999999999989 Z"/></mask></defs><g><path fill="#fff" fill-opacity="0" fill-rule="nonzero" stroke="none" d="M 47.97 0.199999999999989 C 50.27 0.199999999999989 51.97 4 51.97 6.19999999999999 C 51.97 8.5 50.27 10.2 47.97 10.2 C 45.77 10.2 41.97 8.5 41.97 6.19999999999999 C 41.97 4 45.77 0.199999999999989 47.97 0.199999999999989 Z" transform="matrix(1 0 0 1 -237 -12644 ) matrix(1 0 0 1 238 12645 )"/><path fill="none" stroke="#16a58a" stroke-width="4" d="M 47.97 0.199999999999989 C 50.27 0.199999999999989 51.97 4 51.97 6.19999999999999 C 51.97 8.5 50.27 10.2 47.97 10.2 C 45.77 10.2 41.97 8.5 41.97 6.19999999999999 C 41.97 4 45.77 0.199999999999989 47.97 0.199999999999989 Z" mask="url(#clip2125)" transform="matrix(1 0 0 1 -237 -12644 ) matrix(1 0 0 1 238 12645 )"/><path fill="none" stroke="#16a58a" stroke-width="2" d="M 0.469999999999999 19.6 L 46.97 5.19999999999999" mask="url(#clip2125)" transform="matrix(1 0 0 1 -237 -12644 ) matrix(1 0 0 1 238 12645 )"/></g></svg>