<svg xmlns="http://www.w3.org/2000/svg" xmlns:xlink="http://www.w3.org/1999/xlink" width="81" height="40" version="1.1"><defs><mask id="clip2121" fill="#fff"><path fill-rule="evenodd" d="M 6.37 0.199999999999989 C 8.56999999999999 0.199999999999989 10.37 4 10.37 6.19999999999999 C 10.37 8.39999999999998 8.56999999999999 10.2 6.37 10.2 C 4.17000000000002 10.2 0.370000000000005 8.39999999999998 0.370000000000005 6.19999999999999 C 0.370000000000005 4 4.17000000000002 0.199999999999989 6.37 0.199999999999989 Z"/></mask></defs><g><path fill="#fff" fill-opacity="0" fill-rule="nonzero" stroke="none" d="M 6.37 0.199999999999989 C 8.56999999999999 0.199999999999989 10.37 4 10.37 6.19999999999999 C 10.37 8.39999999999998 8.56999999999999 10.2 6.37 10.2 C 4.17000000000002 10.2 0.370000000000005 8.39999999999998 0.370000000000005 6.19999999999999 C 0.370000000000005 4 4.17000000000002 0.199999999999989 6.37 0.199999999999989 Z" transform="matrix(1 0 0 1 -293 -12699 ) matrix(1 0 0 1 294 12700 )"/><path fill="none" stroke="#16a58a" stroke-width="4" d="M 6.37 0.199999999999989 C 8.56999999999999 0.199999999999989 10.37 4 10.37 6.19999999999999 C 10.37 8.39999999999998 8.56999999999999 10.2 6.37 10.2 C 4.17000000000002 10.2 0.370000000000005 8.39999999999998 0.370000000000005 6.19999999999999 C 0.370000000000005 4 4.17000000000002 0.199999999999989 6.37 0.199999999999989 Z" mask="url(#clip2121)" transform="matrix(1 0 0 1 -293 -12699 ) matrix(1 0 0 1 294 12700 )"/><path fill="none" stroke="#16a58a" stroke-width="2" d="M 77.17 36.4 L 5.37 5.19999999999999" mask="url(#clip2121)" transform="matrix(1 0 0 1 -293 -12699 ) matrix(1 0 0 1 294 12700 )"/></g></svg>