<svg xmlns="http://www.w3.org/2000/svg" xmlns:xlink="http://www.w3.org/1999/xlink" width="37" height="61" version="1.1"><defs><mask id="clip2128" fill="#fff"><path fill-rule="evenodd" d="M 29.8499999999999 47.9 C 32.05 47.9 33.8499999999999 51.7 33.8499999999999 53.9 C 33.8499999999999 56.1 32.05 57.9 29.8499999999999 57.9 C 27.65 57.9 23.85 56.1 23.85 53.9 C 23.85 51.7 27.65 47.9 29.8499999999999 47.9 Z"/></mask></defs><g><path fill="#fff" fill-opacity="0" fill-rule="nonzero" stroke="none" d="M 29.8499999999999 47.9 C 32.05 47.9 33.8499999999999 51.7 33.8499999999999 53.9 C 33.8499999999999 56.1 32.05 57.9 29.8499999999999 57.9 C 27.65 57.9 23.85 56.1 23.85 53.9 C 23.85 51.7 27.65 47.9 29.8499999999999 47.9 Z" transform="matrix(1 0 0 1 -650 -12582 ) matrix(1 0 0 1 651 12583 )"/><path fill="none" stroke="#c26383" stroke-width="4" d="M 29.8499999999999 47.9 C 32.05 47.9 33.8499999999999 51.7 33.8499999999999 53.9 C 33.8499999999999 56.1 32.05 57.9 29.8499999999999 57.9 C 27.65 57.9 23.85 56.1 23.85 53.9 C 23.85 51.7 27.65 47.9 29.8499999999999 47.9 Z" mask="url(#clip2128)" transform="matrix(1 0 0 1 -650 -12582 ) matrix(1 0 0 1 651 12583 )"/><path fill="none" stroke="#c26383" stroke-width="2" d="M 0.149999999999977 0.400000000000006 L 28.8499999999999 52.9" mask="url(#clip2128)" transform="matrix(1 0 0 1 -650 -12582 ) matrix(1 0 0 1 651 12583 )"/></g></svg>