<?xml version="1.0" encoding="utf-8"?>
<svg version="1.1" xmlns:xlink="http://www.w3.org/1999/xlink" width="62px" height="62px" xmlns="http://www.w3.org/2000/svg">
  <defs>
    <mask fill="white" id="clip966">
      <path d="M 31.13 0.529999999999973  C 47.73 0.529999999999973  61.1300000000001 14.93  61.1300000000001 31.53  C 61.1300000000001 48.13  47.73 61.53  31.13 61.53  C 14.53 61.53  0.129999999999995 48.13  0.129999999999995 31.53  C 0.129999999999995 14.93  14.53 0.529999999999973  31.13 0.529999999999973  Z " fill-rule="evenodd" />
    </mask>
  </defs>
  <g transform="matrix(1 0 0 1 -1049 -15423 )">
    <path d="M 31.13 0.529999999999973  C 47.73 0.529999999999973  61.1300000000001 14.93  61.1300000000001 31.53  C 61.1300000000001 48.13  47.73 61.53  31.13 61.53  C 14.53 61.53  0.129999999999995 48.13  0.129999999999995 31.53  C 0.129999999999995 14.93  14.53 0.529999999999973  31.13 0.529999999999973  Z " fill-rule="nonzero" fill="#ffb539" stroke="none" transform="matrix(1 0 0 1 1049 15423 )" />
    <path d="M 31.13 0.529999999999973  C 47.73 0.529999999999973  61.1300000000001 14.93  61.1300000000001 31.53  C 61.1300000000001 48.13  47.73 61.53  31.13 61.53  C 14.53 61.53  0.129999999999995 48.13  0.129999999999995 31.53  C 0.129999999999995 14.93  14.53 0.529999999999973  31.13 0.529999999999973  Z " stroke-width="2" stroke="#ffb539" fill="none" transform="matrix(1 0 0 1 1049 15423 )" mask="url(#clip966)" />
  </g>
</svg>