<svg xmlns="http://www.w3.org/2000/svg" xmlns:xlink="http://www.w3.org/1999/xlink" width="46" height="66" version="1.1"><defs><mask id="clip2134" fill="#fff"><path fill-rule="evenodd" d="M 6.75 0.199999999999989 C 8.94999999999993 0.199999999999989 10.75 4 10.75 6.19999999999999 C 10.75 8.39999999999998 8.94999999999993 10.2 6.75 10.2 C 4.54999999999995 10.2 0.75 8.39999999999998 0.75 6.19999999999999 C 0.75 4 4.54999999999995 0.199999999999989 6.75 0.199999999999989 Z"/></mask></defs><g><path fill="#fff" fill-opacity="0" fill-rule="nonzero" stroke="none" d="M 6.75 0.199999999999989 C 8.94999999999993 0.199999999999989 10.75 4 10.75 6.19999999999999 C 10.75 8.39999999999998 8.94999999999993 10.2 6.75 10.2 C 4.54999999999995 10.2 0.75 8.39999999999998 0.75 6.19999999999999 C 0.75 4 4.54999999999995 0.199999999999989 6.75 0.199999999999989 Z" transform="matrix(1 0 0 1 -587 -12601 ) matrix(1 0 0 1 588 12602 )"/><path fill="none" stroke="#c26383" stroke-width="4" d="M 6.75 0.199999999999989 C 8.94999999999993 0.199999999999989 10.75 4 10.75 6.19999999999999 C 10.75 8.39999999999998 8.94999999999993 10.2 6.75 10.2 C 4.54999999999995 10.2 0.75 8.39999999999998 0.75 6.19999999999999 C 0.75 4 4.54999999999995 0.199999999999989 6.75 0.199999999999989 Z" mask="url(#clip2134)" transform="matrix(1 0 0 1 -587 -12601 ) matrix(1 0 0 1 588 12602 )"/><path fill="none" stroke="#c26383" stroke-width="2" d="M 42.85 62.6 L 5.75 5.19999999999999" mask="url(#clip2134)" transform="matrix(1 0 0 1 -587 -12601 ) matrix(1 0 0 1 588 12602 )"/></g></svg>