<svg xmlns="http://www.w3.org/2000/svg" xmlns:xlink="http://www.w3.org/1999/xlink" width="42" height="38" version="1.1"><defs><mask id="clip2129" fill="#fff"><path fill-rule="evenodd" d="M 34.05 24.6 C 36.25 24.6 38.05 28.4 38.05 30.6 C 38.05 32.8 36.25 34.6 34.05 34.6 C 31.8499999999999 34.6 28.05 32.8 28.05 30.6 C 28.05 28.4 31.8499999999999 24.6 34.05 24.6 Z"/></mask></defs><g><path fill="#fff" fill-opacity="0" fill-rule="nonzero" stroke="none" d="M 34.05 24.6 C 36.25 24.6 38.05 28.4 38.05 30.6 C 38.05 32.8 36.25 34.6 34.05 34.6 C 31.8499999999999 34.6 28.05 32.8 28.05 30.6 C 28.05 28.4 31.8499999999999 24.6 34.05 24.6 Z" transform="matrix(1 0 0 1 -678 -12634 ) matrix(1 0 0 1 679 12635 )"/><path fill="none" stroke="#c26383" stroke-width="4" d="M 34.05 24.6 C 36.25 24.6 38.05 28.4 38.05 30.6 C 38.05 32.8 36.25 34.6 34.05 34.6 C 31.8499999999999 34.6 28.05 32.8 28.05 30.6 C 28.05 28.4 31.8499999999999 24.6 34.05 24.6 Z" mask="url(#clip2129)" transform="matrix(1 0 0 1 -678 -12634 ) matrix(1 0 0 1 679 12635 )"/><path fill="none" stroke="#c26383" stroke-width="2" d="M 0.849999999999909 0.899999999999977 L 33.05 29.6" mask="url(#clip2129)" transform="matrix(1 0 0 1 -678 -12634 ) matrix(1 0 0 1 679 12635 )"/></g></svg>