<?xml version="1.0" encoding="utf-8"?>
<svg version="1.1" xmlns:xlink="http://www.w3.org/1999/xlink" width="28px" height="14px" xmlns="http://www.w3.org/2000/svg">
  <defs>
    <mask fill="white" id="clip2135">
      <path d="M 11.5699999999999 0.450000000000003  C 13.67 0.450000000000003  17.37 4.15000000000001  17.37 6.25  C 17.37 8.34999999999999  13.67 10.05  11.5699999999999 10.05  C 9.56999999999994 10.05  7.87 8.34999999999999  7.87 6.25  C 7.87 4.15000000000001  9.56999999999994 0.450000000000003  11.5699999999999 0.450000000000003  Z " fill-rule="evenodd" />
    </mask>
  </defs>
  <g transform="matrix(1 0 0 1 -853 -12510 )">
    <path d="M 11.5699999999999 0.450000000000003  C 13.67 0.450000000000003  17.37 4.15000000000001  17.37 6.25  C 17.37 8.34999999999999  13.67 10.05  11.5699999999999 10.05  C 9.56999999999994 10.05  7.87 8.34999999999999  7.87 6.25  C 7.87 4.15000000000001  9.56999999999994 0.450000000000003  11.5699999999999 0.450000000000003  Z " fill-rule="nonzero" fill="#ffffff" stroke="none" fill-opacity="0" transform="matrix(1 0 0 1 854 12511 )" />
    <path d="M 11.5699999999999 0.450000000000003  C 13.67 0.450000000000003  17.37 4.15000000000001  17.37 6.25  C 17.37 8.34999999999999  13.67 10.05  11.5699999999999 10.05  C 9.56999999999994 10.05  7.87 8.34999999999999  7.87 6.25  C 7.87 4.15000000000001  9.56999999999994 0.450000000000003  11.5699999999999 0.450000000000003  Z " stroke-width="4" stroke="#2d85c1" fill="none" transform="matrix(1 0 0 1 854 12511 )" mask="url(#clip2135)" />
    <path d="M 0.269999999999982 5.25  L 24.97 5.25  " stroke-width="2" stroke="#2d85c1" fill="none" transform="matrix(1 0 0 1 854 12511 )" mask="url(#clip2135)" />
  </g>
</svg>