<?xml version="1.0" encoding="utf-8"?>
<svg version="1.1" xmlns:xlink="http://www.w3.org/1999/xlink" width="29px" height="30px" xmlns="http://www.w3.org/2000/svg">
  <defs>
    <radialGradient cx="0.509999999999982" cy="1.06999999999992" r="38.9" gradientTransform="matrix(1 0 0 1 0 0 )" gradientUnits="userSpaceOnUse" id="RadialGradient789">
      <stop id="Stop790" stop-color="#b2cce1" offset="0" />
      <stop id="Stop791" stop-color="#6598c2" offset="1" />
    </radialGradient>
    <mask fill="white" id="clip792">
      <path d="M 13.71 0.569999999999936  C 21.31 0.569999999999936  28.51 6.76999999999998  28.51 14.27  C 28.51 21.8699999999999  21.31 29.0699999999999  13.71 29.0699999999999  C 6.20999999999998 29.0699999999999  0.00999999999999091 21.8699999999999  0.00999999999999091 14.27  C 0.00999999999999091 6.76999999999998  6.20999999999998 0.569999999999936  13.71 0.569999999999936  Z " fill-rule="evenodd" />
    </mask>
  </defs>
  <g transform="matrix(1 0 0 1 -223 -14808 )">
    <path d="M 13.71 0.569999999999936  C 21.31 0.569999999999936  28.51 6.76999999999998  28.51 14.27  C 28.51 21.8699999999999  21.31 29.0699999999999  13.71 29.0699999999999  C 6.20999999999998 29.0699999999999  0.00999999999999091 21.8699999999999  0.00999999999999091 14.27  C 0.00999999999999091 6.76999999999998  6.20999999999998 0.569999999999936  13.71 0.569999999999936  Z " fill-rule="nonzero" fill="url(#RadialGradient789)" stroke="none" transform="matrix(1 0 0 1 223 14808 )" />
    <path d="M 13.71 0.569999999999936  C 21.31 0.569999999999936  28.51 6.76999999999998  28.51 14.27  C 28.51 21.8699999999999  21.31 29.0699999999999  13.71 29.0699999999999  C 6.20999999999998 29.0699999999999  0.00999999999999091 21.8699999999999  0.00999999999999091 14.27  C 0.00999999999999091 6.76999999999998  6.20999999999998 0.569999999999936  13.71 0.569999999999936  Z " stroke-width="2" stroke="#6598c2" fill="none" transform="matrix(1 0 0 1 223 14808 )" mask="url(#clip792)" />
  </g>
</svg>