<svg xmlns="http://www.w3.org/2000/svg" xmlns:xlink="http://www.w3.org/1999/xlink" width="52" height="47" version="1.1"><defs><mask id="clip2132" fill="#fff"><path fill-rule="evenodd" d="M 6.04999999999995 0.699999999999989 C 8.25 0.699999999999989 10.05 4.39999999999998 10.05 6.69999999999999 C 10.05 8.89999999999998 8.25 10.7 6.04999999999995 10.7 C 3.85000000000002 10.7 0.0499999999999545 8.89999999999998 0.0499999999999545 6.69999999999999 C 0.0499999999999545 4.39999999999998 3.85000000000002 0.699999999999989 6.04999999999995 0.699999999999989 Z"/></mask></defs><g><path fill="#fff" fill-opacity="0" fill-rule="nonzero" stroke="none" d="M 6.04999999999995 0.699999999999989 C 8.25 0.699999999999989 10.05 4.39999999999998 10.05 6.69999999999999 C 10.05 8.89999999999998 8.25 10.7 6.04999999999995 10.7 C 3.85000000000002 10.7 0.0499999999999545 8.89999999999998 0.0499999999999545 6.69999999999999 C 0.0499999999999545 4.39999999999998 3.85000000000002 0.699999999999989 6.04999999999995 0.699999999999989 Z" transform="matrix(1 0 0 1 -602 -12701 ) matrix(1 0 0 1 603 12702 )"/><path fill="none" stroke="#c26383" stroke-width="4" d="M 6.04999999999995 0.699999999999989 C 8.25 0.699999999999989 10.05 4.39999999999998 10.05 6.69999999999999 C 10.05 8.89999999999998 8.25 10.7 6.04999999999995 10.7 C 3.85000000000002 10.7 0.0499999999999545 8.89999999999998 0.0499999999999545 6.69999999999999 C 0.0499999999999545 4.39999999999998 3.85000000000002 0.699999999999989 6.04999999999995 0.699999999999989 Z" mask="url(#clip2132)" transform="matrix(1 0 0 1 -602 -12701 ) matrix(1 0 0 1 603 12702 )"/><path fill="none" stroke="#c26383" stroke-width="2" d="M 48.15 43.8 L 5.04999999999995 5.69999999999999" mask="url(#clip2132)" transform="matrix(1 0 0 1 -602 -12701 ) matrix(1 0 0 1 603 12702 )"/></g></svg>