<?xml version="1.0" encoding="utf-8"?>
<svg version="1.1" xmlns:xlink="http://www.w3.org/1999/xlink" width="62px" height="62px" xmlns="http://www.w3.org/2000/svg">
  <defs>
    <mask fill="white" id="clip883">
      <path d="M 31.48 0.949999999999989  C 48.08 0.949999999999989  61.48 15.35  61.48 31.95  C 61.48 48.55  48.08 61.95  31.48 61.95  C 14.88 61.95  0.480000000000018 48.55  0.480000000000018 31.95  C 0.480000000000018 15.35  14.88 0.949999999999989  31.48 0.949999999999989  Z " fill-rule="evenodd" />
    </mask>
  </defs>
  <g transform="matrix(1 0 0 1 -877 -15315 )">
    <path d="M 31.48 0.949999999999989  C 48.08 0.949999999999989  61.48 15.35  61.48 31.95  C 61.48 48.55  48.08 61.95  31.48 61.95  C 14.88 61.95  0.480000000000018 48.55  0.480000000000018 31.95  C 0.480000000000018 15.35  14.88 0.949999999999989  31.48 0.949999999999989  Z " fill-rule="nonzero" fill="#ffb539" stroke="none" transform="matrix(1 0 0 1 877 15315 )" />
    <path d="M 31.48 0.949999999999989  C 48.08 0.949999999999989  61.48 15.35  61.48 31.95  C 61.48 48.55  48.08 61.95  31.48 61.95  C 14.88 61.95  0.480000000000018 48.55  0.480000000000018 31.95  C 0.480000000000018 15.35  14.88 0.949999999999989  31.48 0.949999999999989  Z " stroke-width="2" stroke="#ffb539" fill="none" transform="matrix(1 0 0 1 877 15315 )" mask="url(#clip883)" />
  </g>
</svg>