<svg xmlns="http://www.w3.org/2000/svg" xmlns:xlink="http://www.w3.org/1999/xlink" width="37" height="61" version="1.1"><defs><mask id="clip2131" fill="#fff"><path fill-rule="evenodd" d="M 6.14999999999998 47.8 C 8.35000000000002 47.8 10.15 51.6 10.15 53.8 C 10.15 56 8.35000000000002 57.8 6.14999999999998 57.8 C 3.94999999999993 57.8 0.149999999999977 56 0.149999999999977 53.8 C 0.149999999999977 51.6 3.94999999999993 47.8 6.14999999999998 47.8 Z"/></mask></defs><g><path fill="#fff" fill-opacity="0" fill-rule="nonzero" stroke="none" d="M 6.14999999999998 47.8 C 8.35000000000002 47.8 10.15 51.6 10.15 53.8 C 10.15 56 8.35000000000002 57.8 6.14999999999998 57.8 C 3.94999999999993 57.8 0.149999999999977 56 0.149999999999977 53.8 C 0.149999999999977 51.6 3.94999999999993 47.8 6.14999999999998 47.8 Z" transform="matrix(1 0 0 1 -645 -12692 ) matrix(1 0 0 1 646 12693 )"/><path fill="none" stroke="#c26383" stroke-width="4" d="M 6.14999999999998 47.8 C 8.35000000000002 47.8 10.15 51.6 10.15 53.8 C 10.15 56 8.35000000000002 57.8 6.14999999999998 57.8 C 3.94999999999993 57.8 0.149999999999977 56 0.149999999999977 53.8 C 0.149999999999977 51.6 3.94999999999993 47.8 6.14999999999998 47.8 Z" mask="url(#clip2131)" transform="matrix(1 0 0 1 -645 -12692 ) matrix(1 0 0 1 646 12693 )"/><path fill="none" stroke="#c26383" stroke-width="2" d="M 33.8499999999999 0.299999999999955 L 5.14999999999998 52.8" mask="url(#clip2131)" transform="matrix(1 0 0 1 -645 -12692 ) matrix(1 0 0 1 646 12693 )"/></g></svg>