<svg xmlns="http://www.w3.org/2000/svg" xmlns:xlink="http://www.w3.org/1999/xlink" width="29" height="14" version="1.1"><defs><mask id="clip2127" fill="#fff"><path fill-rule="evenodd" d="M 12.23 0.5 C 14.3299999999999 0.5 18.03 4.2 18.03 6.3 C 18.03 8.39999999999999 14.3299999999999 10.1 12.23 10.1 C 10.23 10.1 8.52999999999997 8.39999999999999 8.52999999999997 6.3 C 8.52999999999997 4.2 10.23 0.5 12.23 0.5 Z"/></mask></defs><g><path fill="#fff" fill-opacity="0" fill-rule="nonzero" stroke="none" d="M 12.23 0.5 C 14.3299999999999 0.5 18.03 4.2 18.03 6.3 C 18.03 8.39999999999999 14.3299999999999 10.1 12.23 10.1 C 10.23 10.1 8.52999999999997 8.39999999999999 8.52999999999997 6.3 C 8.52999999999997 4.2 10.23 0.5 12.23 0.5 Z" transform="matrix(1 0 0 1 -493 -12509 ) matrix(1 0 0 1 494 12510 )"/><path fill="none" stroke="#c26383" stroke-width="4" d="M 12.23 0.5 C 14.3299999999999 0.5 18.03 4.2 18.03 6.3 C 18.03 8.39999999999999 14.3299999999999 10.1 12.23 10.1 C 10.23 10.1 8.52999999999997 8.39999999999999 8.52999999999997 6.3 C 8.52999999999997 4.2 10.23 0.5 12.23 0.5 Z" mask="url(#clip2127)" transform="matrix(1 0 0 1 -493 -12509 ) matrix(1 0 0 1 494 12510 )"/><path fill="none" stroke="#c26383" stroke-width="2" d="M 0.92999999999995 5.3 L 25.6299999999999 5.3" mask="url(#clip2127)" transform="matrix(1 0 0 1 -493 -12509 ) matrix(1 0 0 1 494 12510 )"/></g></svg>