<svg xmlns="http://www.w3.org/2000/svg" xmlns:xlink="http://www.w3.org/1999/xlink" width="37" height="41" version="1.1"><defs><mask id="clip2136" fill="#fff"><path fill-rule="evenodd" d="M 29.83 0.699999999999989 C 32.0300000000001 0.699999999999989 33.83 4.5 33.83 6.69999999999999 C 33.83 8.89999999999998 32.0300000000001 10.7 29.83 10.7 C 27.63 10.7 23.83 8.89999999999998 23.83 6.69999999999999 C 23.83 4.5 27.63 0.699999999999989 29.83 0.699999999999989 Z"/></mask></defs><g><path fill="#fff" fill-opacity="0" fill-rule="nonzero" stroke="none" d="M 29.83 0.699999999999989 C 32.0300000000001 0.699999999999989 33.83 4.5 33.83 6.69999999999999 C 33.83 8.89999999999998 32.0300000000001 10.7 29.83 10.7 C 27.63 10.7 23.83 8.89999999999998 23.83 6.69999999999999 C 23.83 4.5 27.63 0.699999999999989 29.83 0.699999999999989 Z" transform="matrix(1 0 0 1 -979 -12597 ) matrix(1 0 0 1 980 12598 )"/><path fill="none" stroke="#2d85c1" stroke-width="4" d="M 29.83 0.699999999999989 C 32.0300000000001 0.699999999999989 33.83 4.5 33.83 6.69999999999999 C 33.83 8.89999999999998 32.0300000000001 10.7 29.83 10.7 C 27.63 10.7 23.83 8.89999999999998 23.83 6.69999999999999 C 23.83 4.5 27.63 0.699999999999989 29.83 0.699999999999989 Z" mask="url(#clip2136)" transform="matrix(1 0 0 1 -979 -12597 ) matrix(1 0 0 1 980 12598 )"/><path fill="none" stroke="#2d85c1" stroke-width="2" d="M 0.129999999999995 37.9 L 28.83 5.69999999999999" mask="url(#clip2136)" transform="matrix(1 0 0 1 -979 -12597 ) matrix(1 0 0 1 980 12598 )"/></g></svg>