<svg xmlns="http://www.w3.org/2000/svg" xmlns:xlink="http://www.w3.org/1999/xlink" width="42" height="38" version="1.1"><defs><mask id="clip2130" fill="#fff"><path fill-rule="evenodd" d="M 6.84999999999991 24.3 C 9.04999999999995 24.3 10.8499999999999 28.1 10.8499999999999 30.3 C 10.8499999999999 32.5 9.04999999999995 34.3 6.84999999999991 34.3 C 4.64999999999998 34.3 0.850000000000023 32.5 0.850000000000023 30.3 C 0.850000000000023 28.1 4.64999999999998 24.3 6.84999999999991 24.3 Z"/></mask></defs><g><path fill="#fff" fill-opacity="0" fill-rule="nonzero" stroke="none" d="M 6.84999999999991 24.3 C 9.04999999999995 24.3 10.8499999999999 28.1 10.8499999999999 30.3 C 10.8499999999999 32.5 9.04999999999995 34.3 6.84999999999991 34.3 C 4.64999999999998 34.3 0.850000000000023 32.5 0.850000000000023 30.3 C 0.850000000000023 28.1 4.64999999999998 24.3 6.84999999999991 24.3 Z" transform="matrix(1 0 0 1 -673 -12663 ) matrix(1 0 0 1 674 12664 )"/><path fill="none" stroke="#c26383" stroke-width="4" d="M 6.84999999999991 24.3 C 9.04999999999995 24.3 10.8499999999999 28.1 10.8499999999999 30.3 C 10.8499999999999 32.5 9.04999999999995 34.3 6.84999999999991 34.3 C 4.64999999999998 34.3 0.850000000000023 32.5 0.850000000000023 30.3 C 0.850000000000023 28.1 4.64999999999998 24.3 6.84999999999991 24.3 Z" mask="url(#clip2130)" transform="matrix(1 0 0 1 -673 -12663 ) matrix(1 0 0 1 674 12664 )"/><path fill="none" stroke="#c26383" stroke-width="2" d="M 38.05 0.600000000000023 L 5.84999999999991 29.3" mask="url(#clip2130)" transform="matrix(1 0 0 1 -673 -12663 ) matrix(1 0 0 1 674 12664 )"/></g></svg>