<svg xmlns="http://www.w3.org/2000/svg" xmlns:xlink="http://www.w3.org/1999/xlink" width="52" height="27" version="1.1"><defs><mask id="clip2137" fill="#fff"><path fill-rule="evenodd" d="M 44.9300000000001 13.5 C 47.1300000000001 13.5 48.9300000000001 17.3 48.9300000000001 19.5 C 48.9300000000001 21.7 47.1300000000001 23.5 44.9300000000001 23.5 C 42.6300000000001 23.5 38.9300000000001 21.7 38.9300000000001 19.5 C 38.9300000000001 17.3 42.6300000000001 13.5 44.9300000000001 13.5 Z"/></mask></defs><g><path fill="#fff" fill-opacity="0" fill-rule="nonzero" stroke="none" d="M 44.9300000000001 13.5 C 47.1300000000001 13.5 48.9300000000001 17.3 48.9300000000001 19.5 C 48.9300000000001 21.7 47.1300000000001 23.5 44.9300000000001 23.5 C 42.6300000000001 23.5 38.9300000000001 21.7 38.9300000000001 19.5 C 38.9300000000001 17.3 42.6300000000001 13.5 44.9300000000001 13.5 Z" transform="matrix(1 0 0 1 -1007 -12602 ) matrix(1 0 0 1 1008 12603 )"/><path fill="none" stroke="#2d85c1" stroke-width="4" d="M 44.9300000000001 13.5 C 47.1300000000001 13.5 48.9300000000001 17.3 48.9300000000001 19.5 C 48.9300000000001 21.7 47.1300000000001 23.5 44.9300000000001 23.5 C 42.6300000000001 23.5 38.9300000000001 21.7 38.9300000000001 19.5 C 38.9300000000001 17.3 42.6300000000001 13.5 44.9300000000001 13.5 Z" mask="url(#clip2137)" transform="matrix(1 0 0 1 -1007 -12602 ) matrix(1 0 0 1 1008 12603 )"/><path fill="none" stroke="#2d85c1" stroke-width="2" d="M 0.830000000000041 0.699999999999989 L 43.9300000000001 18.5" mask="url(#clip2137)" transform="matrix(1 0 0 1 -1007 -12602 ) matrix(1 0 0 1 1008 12603 )"/></g></svg>