<svg xmlns="http://www.w3.org/2000/svg" xmlns:xlink="http://www.w3.org/1999/xlink" width="31" height="52" version="1.1"><defs><mask id="clip2133" fill="#fff"><path fill-rule="evenodd" d="M 23.85 0.600000000000023 C 26.05 0.600000000000023 27.85 4.39999999999998 27.85 6.60000000000002 C 27.85 8.80000000000001 26.05 10.6 23.85 10.6 C 21.65 10.6 17.85 8.80000000000001 17.85 6.60000000000002 C 17.85 4.39999999999998 21.65 0.600000000000023 23.85 0.600000000000023 Z"/></mask></defs><g><path fill="#fff" fill-opacity="0" fill-rule="nonzero" stroke="none" d="M 23.85 0.600000000000023 C 26.05 0.600000000000023 27.85 4.39999999999998 27.85 6.60000000000002 C 27.85 8.80000000000001 26.05 10.6 23.85 10.6 C 21.65 10.6 17.85 8.80000000000001 17.85 6.60000000000002 C 17.85 4.39999999999998 21.65 0.600000000000023 23.85 0.600000000000023 Z" transform="matrix(1 0 0 1 -607 -12658 ) matrix(1 0 0 1 608 12659 )"/><path fill="none" stroke="#c26383" stroke-width="4" d="M 23.85 0.600000000000023 C 26.05 0.600000000000023 27.85 4.39999999999998 27.85 6.60000000000002 C 27.85 8.80000000000001 26.05 10.6 23.85 10.6 C 21.65 10.6 17.85 8.80000000000001 17.85 6.60000000000002 C 17.85 4.39999999999998 21.65 0.600000000000023 23.85 0.600000000000023 Z" mask="url(#clip2133)" transform="matrix(1 0 0 1 -607 -12658 ) matrix(1 0 0 1 608 12659 )"/><path fill="none" stroke="#c26383" stroke-width="2" d="M 0.0499999999999545 48.7 L 22.85 5.60000000000002" mask="url(#clip2133)" transform="matrix(1 0 0 1 -607 -12658 ) matrix(1 0 0 1 608 12659 )"/></g></svg>