<svg xmlns="http://www.w3.org/2000/svg" xmlns:xlink="http://www.w3.org/1999/xlink" width="67" height="33" version="1.1"><defs><mask id="clip2126" fill="#fff"><path fill-rule="evenodd" d="M 59.15 0.400000000000006 C 61.35 0.400000000000006 63.15 4.19999999999999 63.15 6.40000000000001 C 63.15 8.59999999999999 61.35 10.4 59.15 10.4 C 56.9499999999999 10.4 53.15 8.59999999999999 53.15 6.40000000000001 C 53.15 4.19999999999999 56.9499999999999 0.400000000000006 59.15 0.400000000000006 Z"/></mask></defs><g><path fill="#fff" fill-opacity="0" fill-rule="nonzero" stroke="none" d="M 59.15 0.400000000000006 C 61.35 0.400000000000006 63.15 4.19999999999999 63.15 6.40000000000001 C 63.15 8.59999999999999 61.35 10.4 59.15 10.4 C 56.9499999999999 10.4 53.15 8.59999999999999 53.15 6.40000000000001 C 53.15 4.19999999999999 56.9499999999999 0.400000000000006 59.15 0.400000000000006 Z" transform="matrix(1 0 0 1 -592 -12577 ) matrix(1 0 0 1 593 12578 )"/><path fill="none" stroke="#c26383" stroke-width="4" d="M 59.15 0.400000000000006 C 61.35 0.400000000000006 63.15 4.19999999999999 63.15 6.40000000000001 C 63.15 8.59999999999999 61.35 10.4 59.15 10.4 C 56.9499999999999 10.4 53.15 8.59999999999999 53.15 6.40000000000001 C 53.15 4.19999999999999 56.9499999999999 0.400000000000006 59.15 0.400000000000006 Z" mask="url(#clip2126)" transform="matrix(1 0 0 1 -592 -12577 ) matrix(1 0 0 1 593 12578 )"/><path fill="none" stroke="#c26383" stroke-width="2" d="M 0.75 29.2 L 58.15 5.40000000000001" mask="url(#clip2126)" transform="matrix(1 0 0 1 -592 -12577 ) matrix(1 0 0 1 593 12578 )"/></g></svg>