<svg xmlns="http://www.w3.org/2000/svg" xmlns:xlink="http://www.w3.org/1999/xlink" width="47" height="53" version="1.1"><defs><mask id="clip2148" fill="#fff"><path fill-rule="evenodd" d="M 6.47000000000003 39.08 C 8.67000000000002 39.08 10.47 42.78 10.47 45.08 C 10.47 47.28 8.67000000000002 49.08 6.47000000000003 49.08 C 4.17000000000002 49.08 0.469999999999999 47.28 0.469999999999999 45.08 C 0.469999999999999 42.78 4.17000000000002 39.08 6.47000000000003 39.08 Z"/></mask></defs><g><path fill="#fff" fill-opacity="0" fill-rule="nonzero" stroke="none" d="M 6.47000000000003 39.08 C 8.67000000000002 39.08 10.47 42.78 10.47 45.08 C 10.47 47.28 8.67000000000002 49.08 6.47000000000003 49.08 C 4.17000000000002 49.08 0.469999999999999 47.28 0.469999999999999 45.08 C 0.469999999999999 42.78 4.17000000000002 39.08 6.47000000000003 39.08 Z" transform="matrix(1 0 0 1 -336 -13033 ) matrix(1 0 0 1 337 13034 )"/><path fill="none" stroke="#e19a00" stroke-width="4" d="M 6.47000000000003 39.08 C 8.67000000000002 39.08 10.47 42.78 10.47 45.08 C 10.47 47.28 8.67000000000002 49.08 6.47000000000003 49.08 C 4.17000000000002 49.08 0.469999999999999 47.28 0.469999999999999 45.08 C 0.469999999999999 42.78 4.17000000000002 39.08 6.47000000000003 39.08 Z" mask="url(#clip2148)" transform="matrix(1 0 0 1 -336 -13033 ) matrix(1 0 0 1 337 13034 )"/><path fill="none" stroke="#e19a00" stroke-width="2" d="M 43.57 0.980000000000018 L 5.47000000000003 44.08" mask="url(#clip2148)" transform="matrix(1 0 0 1 -336 -13033 ) matrix(1 0 0 1 337 13034 )"/></g></svg>