<svg xmlns="http://www.w3.org/2000/svg" xmlns:xlink="http://www.w3.org/1999/xlink" width="14" height="52" version="1.1"><defs><mask id="clip2142" fill="#fff"><path fill-rule="evenodd" d="M 4.23000000000002 0.600000000000023 C 6.43000000000006 0.600000000000023 10.23 4.39999999999998 10.23 6.60000000000002 C 10.23 8.80000000000001 6.43000000000006 10.6 4.23000000000002 10.6 C 2.03000000000009 10.6 0.230000000000018 8.80000000000001 0.230000000000018 6.60000000000002 C 0.230000000000018 4.39999999999998 2.03000000000009 0.600000000000023 4.23000000000002 0.600000000000023 Z"/></mask></defs><g><path fill="#fff" fill-opacity="0" fill-rule="nonzero" stroke="none" d="M 4.23000000000002 0.600000000000023 C 6.43000000000006 0.600000000000023 10.23 4.39999999999998 10.23 6.60000000000002 C 10.23 8.80000000000001 6.43000000000006 10.6 4.23000000000002 10.6 C 2.03000000000009 10.6 0.230000000000018 8.80000000000001 0.230000000000018 6.60000000000002 C 0.230000000000018 4.39999999999998 2.03000000000009 0.600000000000023 4.23000000000002 0.600000000000023 Z" transform="matrix(1 0 0 1 -962 -12658 ) matrix(1 0 0 1 963 12659 )"/><path fill="none" stroke="#2d85c1" stroke-width="4" d="M 4.23000000000002 0.600000000000023 C 6.43000000000006 0.600000000000023 10.23 4.39999999999998 10.23 6.60000000000002 C 10.23 8.80000000000001 6.43000000000006 10.6 4.23000000000002 10.6 C 2.03000000000009 10.6 0.230000000000018 8.80000000000001 0.230000000000018 6.60000000000002 C 0.230000000000018 4.39999999999998 2.03000000000009 0.600000000000023 4.23000000000002 0.600000000000023 Z" mask="url(#clip2142)" transform="matrix(1 0 0 1 -962 -12658 ) matrix(1 0 0 1 963 12659 )"/><path fill="none" stroke="#2d85c1" stroke-width="2" d="M 2.73000000000002 48.7 L 5.23000000000002 5.60000000000002" mask="url(#clip2142)" transform="matrix(1 0 0 1 -962 -12658 ) matrix(1 0 0 1 963 12659 )"/></g></svg>