<svg xmlns="http://www.w3.org/2000/svg" xmlns:xlink="http://www.w3.org/1999/xlink" width="28" height="14" version="1.1"><defs><mask id="clip2144" fill="#fff"><path fill-rule="evenodd" d="M 11.39 0.520000000000039 C 13.49 0.520000000000039 17.19 4.22000000000003 17.19 6.32000000000005 C 17.19 8.42000000000007 13.49 10.1200000000001 11.39 10.1200000000001 C 9.39 10.1200000000001 7.69 8.42000000000007 7.69 6.32000000000005 C 7.69 4.22000000000003 9.39 0.520000000000039 11.39 0.520000000000039 Z"/></mask></defs><g><path fill="#fff" fill-opacity="0" fill-rule="nonzero" stroke="none" d="M 11.39 0.520000000000039 C 13.49 0.520000000000039 17.19 4.22000000000003 17.19 6.32000000000005 C 17.19 8.42000000000007 13.49 10.1200000000001 11.39 10.1200000000001 C 9.39 10.1200000000001 7.69 8.42000000000007 7.69 6.32000000000005 C 7.69 4.22000000000003 9.39 0.520000000000039 11.39 0.520000000000039 Z" transform="matrix(1 0 0 1 -143 -12877 ) matrix(1 0 0 1 144 12878 )"/><path fill="none" stroke="#e19a00" stroke-width="4" d="M 11.39 0.520000000000039 C 13.49 0.520000000000039 17.19 4.22000000000003 17.19 6.32000000000005 C 17.19 8.42000000000007 13.49 10.1200000000001 11.39 10.1200000000001 C 9.39 10.1200000000001 7.69 8.42000000000007 7.69 6.32000000000005 C 7.69 4.22000000000003 9.39 0.520000000000039 11.39 0.520000000000039 Z" mask="url(#clip2144)" transform="matrix(1 0 0 1 -143 -12877 ) matrix(1 0 0 1 144 12878 )"/><path fill="none" stroke="#e19a00" stroke-width="2" d="M 0.0900000000000034 5.32000000000005 L 24.79 5.32000000000005" mask="url(#clip2144)" transform="matrix(1 0 0 1 -143 -12877 ) matrix(1 0 0 1 144 12878 )"/></g></svg>