<svg xmlns="http://www.w3.org/2000/svg" xmlns:xlink="http://www.w3.org/1999/xlink" width="52" height="26" version="1.1"><defs><mask id="clip2149" fill="#fff"><path fill-rule="evenodd" d="M 6.37 12.88 C 8.56999999999999 12.88 10.37 16.6800000000001 10.37 18.88 C 10.37 21.08 8.56999999999999 22.88 6.37 22.88 C 4.17000000000002 22.88 0.370000000000005 21.08 0.370000000000005 18.88 C 0.370000000000005 16.6800000000001 4.17000000000002 12.88 6.37 12.88 Z"/></mask></defs><g><path fill="#fff" fill-opacity="0" fill-rule="nonzero" stroke="none" d="M 6.37 12.88 C 8.56999999999999 12.88 10.37 16.6800000000001 10.37 18.88 C 10.37 21.08 8.56999999999999 22.88 6.37 22.88 C 4.17000000000002 22.88 0.370000000000005 21.08 0.370000000000005 18.88 C 0.370000000000005 16.6800000000001 4.17000000000002 12.88 6.37 12.88 Z" transform="matrix(1 0 0 1 -293 -13077 ) matrix(1 0 0 1 294 13078 )"/><path fill="none" stroke="#e19a00" stroke-width="4" d="M 6.37 12.88 C 8.56999999999999 12.88 10.37 16.6800000000001 10.37 18.88 C 10.37 21.08 8.56999999999999 22.88 6.37 22.88 C 4.17000000000002 22.88 0.370000000000005 21.08 0.370000000000005 18.88 C 0.370000000000005 16.6800000000001 4.17000000000002 12.88 6.37 12.88 Z" mask="url(#clip2149)" transform="matrix(1 0 0 1 -293 -13077 ) matrix(1 0 0 1 294 13078 )"/><path fill="none" stroke="#e19a00" stroke-width="2" d="M 48.47 0.0800000000000409 L 5.37 17.88" mask="url(#clip2149)" transform="matrix(1 0 0 1 -293 -13077 ) matrix(1 0 0 1 294 13078 )"/></g></svg>