<svg xmlns="http://www.w3.org/2000/svg" xmlns:xlink="http://www.w3.org/1999/xlink" width="67" height="25" version="1.1"><defs><mask id="clip2140" fill="#fff"><path fill-rule="evenodd" d="M 6.83000000000004 0.199999999999989 C 9.03000000000009 0.199999999999989 10.83 4 10.83 6.19999999999999 C 10.83 8.39999999999998 9.03000000000009 10.2 6.83000000000004 10.2 C 4.63 10.2 0.830000000000041 8.39999999999998 0.830000000000041 6.19999999999999 C 0.830000000000041 4 4.63 0.199999999999989 6.83000000000004 0.199999999999989 Z"/></mask></defs><g><path fill="#fff" fill-opacity="0" fill-rule="nonzero" stroke="none" d="M 6.83000000000004 0.199999999999989 C 9.03000000000009 0.199999999999989 10.83 4 10.83 6.19999999999999 C 10.83 8.39999999999998 9.03000000000009 10.2 6.83000000000004 10.2 C 4.63 10.2 0.830000000000041 8.39999999999998 0.830000000000041 6.19999999999999 C 0.830000000000041 4 4.63 0.199999999999989 6.83000000000004 0.199999999999989 Z" transform="matrix(1 0 0 1 -1002 -12699 ) matrix(1 0 0 1 1003 12700 )"/><path fill="none" stroke="#2d85c1" stroke-width="4" d="M 6.83000000000004 0.199999999999989 C 9.03000000000009 0.199999999999989 10.83 4 10.83 6.19999999999999 C 10.83 8.39999999999998 9.03000000000009 10.2 6.83000000000004 10.2 C 4.63 10.2 0.830000000000041 8.39999999999998 0.830000000000041 6.19999999999999 C 0.830000000000041 4 4.63 0.199999999999989 6.83000000000004 0.199999999999989 Z" mask="url(#clip2140)" transform="matrix(1 0 0 1 -1002 -12699 ) matrix(1 0 0 1 1003 12700 )"/><path fill="none" stroke="#2d85c1" stroke-width="2" d="M 63.23 22 L 5.83000000000004 5.19999999999999" mask="url(#clip2140)" transform="matrix(1 0 0 1 -1002 -12699 ) matrix(1 0 0 1 1003 12700 )"/></g></svg>