<svg xmlns="http://www.w3.org/2000/svg" xmlns:xlink="http://www.w3.org/1999/xlink" width="66" height="33" version="1.1"><defs><mask id="clip2146" fill="#fff"><path fill-rule="evenodd" d="M 58.77 19.58 C 60.97 19.58 62.77 23.38 62.77 25.58 C 62.77 27.78 60.97 29.58 58.77 29.58 C 56.57 29.58 52.77 27.78 52.77 25.58 C 52.77 23.38 56.57 19.58 58.77 19.58 Z"/></mask></defs><g><path fill="#fff" fill-opacity="0" fill-rule="nonzero" stroke="none" d="M 58.77 19.58 C 60.97 19.58 62.77 23.38 62.77 25.58 C 62.77 27.78 60.97 29.58 58.77 29.58 C 56.57 29.58 52.77 27.78 52.77 25.58 C 52.77 23.38 56.57 19.58 58.77 19.58 Z" transform="matrix(1 0 0 1 -298 -12952 ) matrix(1 0 0 1 299 12953 )"/><path fill="none" stroke="#e19a00" stroke-width="4" d="M 58.77 19.58 C 60.97 19.58 62.77 23.38 62.77 25.58 C 62.77 27.78 60.97 29.58 58.77 29.58 C 56.57 29.58 52.77 27.78 52.77 25.58 C 52.77 23.38 56.57 19.58 58.77 19.58 Z" mask="url(#clip2146)" transform="matrix(1 0 0 1 -298 -12952 ) matrix(1 0 0 1 299 12953 )"/><path fill="none" stroke="#e19a00" stroke-width="2" d="M 0.370000000000005 0.779999999999973 L 57.77 24.58" mask="url(#clip2146)" transform="matrix(1 0 0 1 -298 -12952 ) matrix(1 0 0 1 299 12953 )"/></g></svg>