<svg xmlns="http://www.w3.org/2000/svg" xmlns:xlink="http://www.w3.org/1999/xlink" width="27" height="52" version="1.1"><defs><mask id="clip2138" fill="#fff"><path fill-rule="evenodd" d="M 19.73 38.6 C 21.9300000000001 38.6 23.73 42.4 23.73 44.6 C 23.73 46.8 21.9300000000001 48.6 19.73 48.6 C 17.53 48.6 13.73 46.8 13.73 44.6 C 13.73 42.4 17.53 38.6 19.73 38.6 Z"/></mask></defs><g><path fill="#fff" fill-opacity="0" fill-rule="nonzero" stroke="none" d="M 19.73 38.6 C 21.9300000000001 38.6 23.73 42.4 23.73 44.6 C 23.73 46.8 21.9300000000001 48.6 19.73 48.6 C 17.53 48.6 13.73 46.8 13.73 44.6 C 13.73 42.4 17.53 38.6 19.73 38.6 Z" transform="matrix(1 0 0 1 -1050 -12620 ) matrix(1 0 0 1 1051 12621 )"/><path fill="none" stroke="#2d85c1" stroke-width="4" d="M 19.73 38.6 C 21.9300000000001 38.6 23.73 42.4 23.73 44.6 C 23.73 46.8 21.9300000000001 48.6 19.73 48.6 C 17.53 48.6 13.73 46.8 13.73 44.6 C 13.73 42.4 17.53 38.6 19.73 38.6 Z" mask="url(#clip2138)" transform="matrix(1 0 0 1 -1050 -12620 ) matrix(1 0 0 1 1051 12621 )"/><path fill="none" stroke="#2d85c1" stroke-width="2" d="M 0.930000000000064 0.5 L 18.73 43.6" mask="url(#clip2138)" transform="matrix(1 0 0 1 -1050 -12620 ) matrix(1 0 0 1 1051 12621 )"/></g></svg>