<svg xmlns="http://www.w3.org/2000/svg" xmlns:xlink="http://www.w3.org/1999/xlink" width="52" height="14" version="1.1"><defs><mask id="clip2141" fill="#fff"><path fill-rule="evenodd" d="M 6.73000000000002 0.699999999999989 C 8.93000000000006 0.699999999999989 10.73 4.39999999999998 10.73 6.69999999999999 C 10.73 8.89999999999998 8.93000000000006 10.7 6.73000000000002 10.7 C 4.53000000000009 10.7 0.730000000000018 8.89999999999998 0.730000000000018 6.69999999999999 C 0.730000000000018 4.39999999999998 4.53000000000009 0.699999999999989 6.73000000000002 0.699999999999989 Z"/></mask></defs><g><path fill="#fff" fill-opacity="0" fill-rule="nonzero" stroke="none" d="M 6.73000000000002 0.699999999999989 C 8.93000000000006 0.699999999999989 10.73 4.39999999999998 10.73 6.69999999999999 C 10.73 8.89999999999998 8.93000000000006 10.7 6.73000000000002 10.7 C 4.53000000000009 10.7 0.730000000000018 8.89999999999998 0.730000000000018 6.69999999999999 C 0.730000000000018 4.39999999999998 4.53000000000009 0.699999999999989 6.73000000000002 0.699999999999989 Z" transform="matrix(1 0 0 1 -959 -12701 ) matrix(1 0 0 1 960 12702 )"/><path fill="none" stroke="#2d85c1" stroke-width="4" d="M 6.73000000000002 0.699999999999989 C 8.93000000000006 0.699999999999989 10.73 4.39999999999998 10.73 6.69999999999999 C 10.73 8.89999999999998 8.93000000000006 10.7 6.73000000000002 10.7 C 4.53000000000009 10.7 0.730000000000018 8.89999999999998 0.730000000000018 6.69999999999999 C 0.730000000000018 4.39999999999998 4.53000000000009 0.699999999999989 6.73000000000002 0.699999999999989 Z" mask="url(#clip2141)" transform="matrix(1 0 0 1 -959 -12701 ) matrix(1 0 0 1 960 12702 )"/><path fill="none" stroke="#2d85c1" stroke-width="2" d="M 48.83 3.19999999999999 L 5.73000000000002 5.69999999999999" mask="url(#clip2141)" transform="matrix(1 0 0 1 -959 -12701 ) matrix(1 0 0 1 960 12702 )"/></g></svg>