<svg xmlns="http://www.w3.org/2000/svg" xmlns:xlink="http://www.w3.org/1999/xlink" width="52" height="47" version="1.1"><defs><mask id="clip2145" fill="#fff"><path fill-rule="evenodd" d="M 44.37 0.779999999999973 C 46.57 0.779999999999973 48.37 4.58000000000004 48.37 6.77999999999997 C 48.37 8.98000000000002 46.57 10.78 44.37 10.78 C 42.17 10.78 38.37 8.98000000000002 38.37 6.77999999999997 C 38.37 4.58000000000004 42.17 0.779999999999973 44.37 0.779999999999973 Z"/></mask></defs><g><path fill="#fff" fill-opacity="0" fill-rule="nonzero" stroke="none" d="M 44.37 0.779999999999973 C 46.57 0.779999999999973 48.37 4.58000000000004 48.37 6.77999999999997 C 48.37 8.98000000000002 46.57 10.78 44.37 10.78 C 42.17 10.78 38.37 8.98000000000002 38.37 6.77999999999997 C 38.37 4.58000000000004 42.17 0.779999999999973 44.37 0.779999999999973 Z" transform="matrix(1 0 0 1 -255 -12947 ) matrix(1 0 0 1 256 12948 )"/><path fill="none" stroke="#e19a00" stroke-width="4" d="M 44.37 0.779999999999973 C 46.57 0.779999999999973 48.37 4.58000000000004 48.37 6.77999999999997 C 48.37 8.98000000000002 46.57 10.78 44.37 10.78 C 42.17 10.78 38.37 8.98000000000002 38.37 6.77999999999997 C 38.37 4.58000000000004 42.17 0.779999999999973 44.37 0.779999999999973 Z" mask="url(#clip2145)" transform="matrix(1 0 0 1 -255 -12947 ) matrix(1 0 0 1 256 12948 )"/><path fill="none" stroke="#e19a00" stroke-width="2" d="M 0.27000000000001 43.88 L 43.37 5.77999999999997" mask="url(#clip2145)" transform="matrix(1 0 0 1 -255 -12947 ) matrix(1 0 0 1 256 12948 )"/></g></svg>