<svg xmlns="http://www.w3.org/2000/svg" xmlns:xlink="http://www.w3.org/1999/xlink" width="21" height="38" version="1.1"><defs><mask id="clip2143" fill="#fff"><path fill-rule="evenodd" d="M 13.13 0.899999999999977 C 15.33 0.899999999999977 17.13 4.69999999999999 17.13 6.89999999999998 C 17.13 9.09999999999999 15.33 10.9 13.13 10.9 C 10.9300000000001 10.9 7.13 9.09999999999999 7.13 6.89999999999998 C 7.13 4.69999999999999 10.9300000000001 0.899999999999977 13.13 0.899999999999977 Z"/></mask></defs><g><path fill="#fff" fill-opacity="0" fill-rule="nonzero" stroke="none" d="M 13.13 0.899999999999977 C 15.33 0.899999999999977 17.13 4.69999999999999 17.13 6.89999999999998 C 17.13 9.09999999999999 15.33 10.9 13.13 10.9 C 10.9300000000001 10.9 7.13 9.09999999999999 7.13 6.89999999999998 C 7.13 4.69999999999999 10.9300000000001 0.899999999999977 13.13 0.899999999999977 Z" transform="matrix(1 0 0 1 -967 -12629 ) matrix(1 0 0 1 968 12630 )"/><path fill="none" stroke="#2d85c1" stroke-width="4" d="M 13.13 0.899999999999977 C 15.33 0.899999999999977 17.13 4.69999999999999 17.13 6.89999999999998 C 17.13 9.09999999999999 15.33 10.9 13.13 10.9 C 10.9300000000001 10.9 7.13 9.09999999999999 7.13 6.89999999999998 C 7.13 4.69999999999999 10.9300000000001 0.899999999999977 13.13 0.899999999999977 Z" mask="url(#clip2143)" transform="matrix(1 0 0 1 -967 -12629 ) matrix(1 0 0 1 968 12630 )"/><path fill="none" stroke="#2d85c1" stroke-width="2" d="M 0.230000000000018 34.6 L 12.13 5.89999999999998" mask="url(#clip2143)" transform="matrix(1 0 0 1 -967 -12629 ) matrix(1 0 0 1 968 12630 )"/></g></svg>