<svg xmlns="http://www.w3.org/2000/svg" xmlns:xlink="http://www.w3.org/1999/xlink" width="67" height="53" version="1.1"><defs><mask id="clip2166" fill="#fff"><path fill-rule="evenodd" d="M 6.01999999999998 0.980000000000018 C 8.21999999999997 0.980000000000018 10.02 4.77999999999997 10.02 6.98000000000002 C 10.02 9.18000000000006 8.21999999999997 10.98 6.01999999999998 10.98 C 3.81999999999999 10.98 0.0199999999999818 9.18000000000006 0.0199999999999818 6.98000000000002 C 0.0199999999999818 4.77999999999997 3.81999999999999 0.980000000000018 6.01999999999998 0.980000000000018 Z"/></mask></defs><g><path fill="#fff" fill-opacity="0" fill-rule="nonzero" stroke="none" d="M 6.01999999999998 0.980000000000018 C 8.21999999999997 0.980000000000018 10.02 4.77999999999997 10.02 6.98000000000002 C 10.02 9.18000000000006 8.21999999999997 10.98 6.01999999999998 10.98 C 3.81999999999999 10.98 0.0199999999999818 9.18000000000006 0.0199999999999818 6.98000000000002 C 0.0199999999999818 4.77999999999997 3.81999999999999 0.980000000000018 6.01999999999998 0.980000000000018 Z" transform="matrix(1 0 0 1 -546 -13028 ) matrix(1 0 0 1 547 13029 )"/><path fill="none" stroke="#476482" stroke-width="4" d="M 6.01999999999998 0.980000000000018 C 8.21999999999997 0.980000000000018 10.02 4.77999999999997 10.02 6.98000000000002 C 10.02 9.18000000000006 8.21999999999997 10.98 6.01999999999998 10.98 C 3.81999999999999 10.98 0.0199999999999818 9.18000000000006 0.0199999999999818 6.98000000000002 C 0.0199999999999818 4.77999999999997 3.81999999999999 0.980000000000018 6.01999999999998 0.980000000000018 Z" mask="url(#clip2166)" transform="matrix(1 0 0 1 -546 -13028 ) matrix(1 0 0 1 547 13029 )"/><path fill="none" stroke="#476482" stroke-width="2" d="M 63.42 49.08 L 5.01999999999998 5.98000000000002" mask="url(#clip2166)" transform="matrix(1 0 0 1 -546 -13028 ) matrix(1 0 0 1 547 13029 )"/></g></svg>