<svg xmlns="http://www.w3.org/2000/svg" xmlns:xlink="http://www.w3.org/1999/xlink" width="14" height="67" version="1.1"><defs><mask id="clip2151" fill="#fff"><path fill-rule="evenodd" d="M 6.47 0.980000000000018 C 8.67000000000002 0.980000000000018 10.47 4.77999999999997 10.47 6.98000000000002 C 10.47 9.18000000000006 8.67000000000002 10.98 6.47 10.98 C 4.27000000000001 10.98 0.469999999999999 9.18000000000006 0.469999999999999 6.98000000000002 C 0.469999999999999 4.77999999999997 4.27000000000001 0.980000000000018 6.47 0.980000000000018 Z"/></mask></defs><g><path fill="#fff" fill-opacity="0" fill-rule="nonzero" stroke="none" d="M 6.47 0.980000000000018 C 8.67000000000002 0.980000000000018 10.47 4.77999999999997 10.47 6.98000000000002 C 10.47 9.18000000000006 8.67000000000002 10.98 6.47 10.98 C 4.27000000000001 10.98 0.469999999999999 9.18000000000006 0.469999999999999 6.98000000000002 C 0.469999999999999 4.77999999999997 4.27000000000001 0.980000000000018 6.47 0.980000000000018 Z" transform="matrix(1 0 0 1 -232 -13028 ) matrix(1 0 0 1 233 13029 )"/><path fill="none" stroke="#e19a00" stroke-width="4" d="M 6.47 0.980000000000018 C 8.67000000000002 0.980000000000018 10.47 4.77999999999997 10.47 6.98000000000002 C 10.47 9.18000000000006 8.67000000000002 10.98 6.47 10.98 C 4.27000000000001 10.98 0.469999999999999 9.18000000000006 0.469999999999999 6.98000000000002 C 0.469999999999999 4.77999999999997 4.27000000000001 0.980000000000018 6.47 0.980000000000018 Z" mask="url(#clip2151)" transform="matrix(1 0 0 1 -232 -13028 ) matrix(1 0 0 1 233 13029 )"/><path fill="none" stroke="#e19a00" stroke-width="2" d="M 8.97 63.38 L 5.47 5.98000000000002" mask="url(#clip2151)" transform="matrix(1 0 0 1 -232 -13028 ) matrix(1 0 0 1 233 13029 )"/></g></svg>