<svg xmlns="http://www.w3.org/2000/svg" xmlns:xlink="http://www.w3.org/1999/xlink" width="52" height="26" version="1.1"><defs><mask id="clip2164" fill="#fff"><path fill-rule="evenodd" d="M 6.41999999999996 0.0800000000000409 C 8.62 0.0800000000000409 10.42 3.77999999999997 10.42 6.08000000000004 C 10.42 8.27999999999997 8.62 10.08 6.41999999999996 10.08 C 4.22000000000003 10.08 0.419999999999959 8.27999999999997 0.419999999999959 6.08000000000004 C 0.419999999999959 3.77999999999997 4.22000000000003 0.0800000000000409 6.41999999999996 0.0800000000000409 Z"/></mask></defs><g><path fill="#fff" fill-opacity="0" fill-rule="nonzero" stroke="none" d="M 6.41999999999996 0.0800000000000409 C 8.62 0.0800000000000409 10.42 3.77999999999997 10.42 6.08000000000004 C 10.42 8.27999999999997 8.62 10.08 6.41999999999996 10.08 C 4.22000000000003 10.08 0.419999999999959 8.27999999999997 0.419999999999959 6.08000000000004 C 0.419999999999959 3.77999999999997 4.22000000000003 0.0800000000000409 6.41999999999996 0.0800000000000409 Z" transform="matrix(1 0 0 1 -604 -13072 ) matrix(1 0 0 1 605 13073 )"/><path fill="none" stroke="#476482" stroke-width="4" d="M 6.41999999999996 0.0800000000000409 C 8.62 0.0800000000000409 10.42 3.77999999999997 10.42 6.08000000000004 C 10.42 8.27999999999997 8.62 10.08 6.41999999999996 10.08 C 4.22000000000003 10.08 0.419999999999959 8.27999999999997 0.419999999999959 6.08000000000004 C 0.419999999999959 3.77999999999997 4.22000000000003 0.0800000000000409 6.41999999999996 0.0800000000000409 Z" mask="url(#clip2164)" transform="matrix(1 0 0 1 -604 -13072 ) matrix(1 0 0 1 605 13073 )"/><path fill="none" stroke="#476482" stroke-width="2" d="M 48.52 22.88 L 5.41999999999996 5.08000000000004" mask="url(#clip2164)" transform="matrix(1 0 0 1 -604 -13072 ) matrix(1 0 0 1 605 13073 )"/></g></svg>