<svg xmlns="http://www.w3.org/2000/svg" xmlns:xlink="http://www.w3.org/1999/xlink" width="312" height="42" version="1.1"><defs><mask id="clip2156" fill="#fff"><path fill-rule="evenodd" d="M 11.41 41.6 C 11.41 41.6 300.31 41.6 300.31 41.6 C 306.61 41.6 311.71 36.5 311.71 30.2 C 311.71 30.2 311.71 11.8 311.71 11.8 C 311.71 5.60000000000002 306.61 0.5 300.31 0.5 C 300.31 0.5 11.41 0.5 11.41 0.5 C 5.21000000000004 0.5 0.110000000000014 5.60000000000002 0.110000000000014 11.8 C 0.110000000000014 11.8 0.110000000000014 30.2 0.110000000000014 30.2 C 0.110000000000014 36.5 5.21000000000004 41.6 11.41 41.6 Z"/></mask></defs><g><path fill="#2d85c1" fill-rule="nonzero" stroke="none" d="M 11.41 41.6 C 11.41 41.6 300.31 41.6 300.31 41.6 C 306.61 41.6 311.71 36.5 311.71 30.2 C 311.71 30.2 311.71 11.8 311.71 11.8 C 311.71 5.60000000000002 306.61 0.5 300.31 0.5 C 300.31 0.5 11.41 0.5 11.41 0.5 C 5.21000000000004 0.5 0.110000000000014 5.60000000000002 0.110000000000014 11.8 C 0.110000000000014 11.8 0.110000000000014 30.2 0.110000000000014 30.2 C 0.110000000000014 36.5 5.21000000000004 41.6 11.41 41.6 Z" transform="matrix(1 0 0 1 -852 -12804 ) matrix(1 0 0 1 852 12804 )"/><path fill="none" stroke="#2d85c1" stroke-width="2" d="M 11.41 41.6 C 11.41 41.6 300.31 41.6 300.31 41.6 C 306.61 41.6 311.71 36.5 311.71 30.2 C 311.71 30.2 311.71 11.8 311.71 11.8 C 311.71 5.60000000000002 306.61 0.5 300.31 0.5 C 300.31 0.5 11.41 0.5 11.41 0.5 C 5.21000000000004 0.5 0.110000000000014 5.60000000000002 0.110000000000014 11.8 C 0.110000000000014 11.8 0.110000000000014 30.2 0.110000000000014 30.2 C 0.110000000000014 36.5 5.21000000000004 41.6 11.41 41.6 Z" mask="url(#clip2156)" transform="matrix(1 0 0 1 -852 -12804 ) matrix(1 0 0 1 852 12804 )"/></g></svg>