<svg xmlns="http://www.w3.org/2000/svg" xmlns:xlink="http://www.w3.org/1999/xlink" width="67" height="14" version="1.1"><defs><mask id="clip2150" fill="#fff"><path fill-rule="evenodd" d="M 6.97 0.379999999999995 C 9.17000000000002 0.379999999999995 10.97 4.18000000000006 10.97 6.38 C 10.97 8.58000000000004 9.17000000000002 10.38 6.97 10.38 C 4.77000000000001 10.38 0.969999999999999 8.58000000000004 0.969999999999999 6.38 C 0.969999999999999 4.18000000000006 4.77000000000001 0.379999999999995 6.97 0.379999999999995 Z"/></mask></defs><g><path fill="#fff" fill-opacity="0" fill-rule="nonzero" stroke="none" d="M 6.97 0.379999999999995 C 9.17000000000002 0.379999999999995 10.97 4.18000000000006 10.97 6.38 C 10.97 8.58000000000004 9.17000000000002 10.38 6.97 10.38 C 4.77000000000001 10.38 0.969999999999999 8.58000000000004 0.969999999999999 6.38 C 0.969999999999999 4.18000000000006 4.77000000000001 0.379999999999995 6.97 0.379999999999995 Z" transform="matrix(1 0 0 1 -235 -13086 ) matrix(1 0 0 1 236 13087 )"/><path fill="none" stroke="#e19a00" stroke-width="4" d="M 6.97 0.379999999999995 C 9.17000000000002 0.379999999999995 10.97 4.18000000000006 10.97 6.38 C 10.97 8.58000000000004 9.17000000000002 10.38 6.97 10.38 C 4.77000000000001 10.38 0.969999999999999 8.58000000000004 0.969999999999999 6.38 C 0.969999999999999 4.18000000000006 4.77000000000001 0.379999999999995 6.97 0.379999999999995 Z" mask="url(#clip2150)" transform="matrix(1 0 0 1 -235 -13086 ) matrix(1 0 0 1 236 13087 )"/><path fill="none" stroke="#e19a00" stroke-width="2" d="M 63.37 8.88 L 5.97 5.38" mask="url(#clip2150)" transform="matrix(1 0 0 1 -235 -13086 ) matrix(1 0 0 1 236 13087 )"/></g></svg>