<svg xmlns="http://www.w3.org/2000/svg" xmlns:xlink="http://www.w3.org/1999/xlink" width="76" height="23" version="1.1"><defs><mask id="clip2160" fill="#fff"><path fill-rule="evenodd" d="M 68.72 9.98000000000002 C 70.92 9.98000000000002 72.72 13.78 72.72 15.98 C 72.72 18.1800000000001 70.92 19.98 68.72 19.98 C 66.52 19.98 62.72 18.1800000000001 62.72 15.98 C 62.72 13.78 66.52 9.98000000000002 68.72 9.98000000000002 Z"/></mask></defs><g><path fill="#fff" fill-opacity="0" fill-rule="nonzero" stroke="none" d="M 68.72 9.98000000000002 C 70.92 9.98000000000002 72.72 13.78 72.72 15.98 C 72.72 18.1800000000001 70.92 19.98 68.72 19.98 C 66.52 19.98 62.72 18.1800000000001 62.72 15.98 C 62.72 13.78 66.52 9.98000000000002 68.72 9.98000000000002 Z" transform="matrix(1 0 0 1 -666 -13019 ) matrix(1 0 0 1 667 13020 )"/><path fill="none" stroke="#476482" stroke-width="4" d="M 68.72 9.98000000000002 C 70.92 9.98000000000002 72.72 13.78 72.72 15.98 C 72.72 18.1800000000001 70.92 19.98 68.72 19.98 C 66.52 19.98 62.72 18.1800000000001 62.72 15.98 C 62.72 13.78 66.52 9.98000000000002 68.72 9.98000000000002 Z" mask="url(#clip2160)" transform="matrix(1 0 0 1 -666 -13019 ) matrix(1 0 0 1 667 13020 )"/><path fill="none" stroke="#476482" stroke-width="2" d="M 0.819999999999936 0.580000000000041 L 67.72 14.98" mask="url(#clip2160)" transform="matrix(1 0 0 1 -666 -13019 ) matrix(1 0 0 1 667 13020 )"/></g></svg>