<svg xmlns="http://www.w3.org/2000/svg" xmlns:xlink="http://www.w3.org/1999/xlink" width="312" height="42" version="1.1"><defs><mask id="clip2161" fill="#fff"><path fill-rule="evenodd" d="M 11.68 41.23 C 11.68 41.23 300.58 41.23 300.58 41.23 C 306.88 41.23 311.98 36.13 311.98 29.83 C 311.98 29.83 311.98 11.43 311.98 11.43 C 311.98 5.23000000000002 306.88 0.129999999999995 300.58 0.129999999999995 C 300.58 0.129999999999995 11.68 0.129999999999995 11.68 0.129999999999995 C 5.48000000000002 0.129999999999995 0.379999999999996 5.23000000000002 0.379999999999996 11.43 C 0.379999999999996 11.43 0.379999999999996 29.83 0.379999999999996 29.83 C 0.379999999999996 36.13 5.48000000000002 41.23 11.68 41.23 Z"/></mask></defs><g><path fill="#527294" fill-rule="nonzero" stroke="none" d="M 11.68 41.23 C 11.68 41.23 300.58 41.23 300.58 41.23 C 306.88 41.23 311.98 36.13 311.98 29.83 C 311.98 29.83 311.98 11.43 311.98 11.43 C 311.98 5.23000000000002 306.88 0.129999999999995 300.58 0.129999999999995 C 300.58 0.129999999999995 11.68 0.129999999999995 11.68 0.129999999999995 C 5.48000000000002 0.129999999999995 0.379999999999996 5.23000000000002 0.379999999999996 11.43 C 0.379999999999996 11.43 0.379999999999996 29.83 0.379999999999996 29.83 C 0.379999999999996 36.13 5.48000000000002 41.23 11.68 41.23 Z" transform="matrix(1 0 0 1 -495 -13174 ) matrix(1 0 0 1 495 13174 )"/><path fill="none" stroke="#527294" stroke-width="2" d="M 11.68 41.23 C 11.68 41.23 300.58 41.23 300.58 41.23 C 306.88 41.23 311.98 36.13 311.98 29.83 C 311.98 29.83 311.98 11.43 311.98 11.43 C 311.98 5.23000000000002 306.88 0.129999999999995 300.58 0.129999999999995 C 300.58 0.129999999999995 11.68 0.129999999999995 11.68 0.129999999999995 C 5.48000000000002 0.129999999999995 0.379999999999996 5.23000000000002 0.379999999999996 11.43 C 0.379999999999996 11.43 0.379999999999996 29.83 0.379999999999996 29.83 C 0.379999999999996 36.13 5.48000000000002 41.23 11.68 41.23 Z" mask="url(#clip2161)" transform="matrix(1 0 0 1 -495 -13174 ) matrix(1 0 0 1 495 13174 )"/></g></svg>