<svg xmlns="http://www.w3.org/2000/svg" xmlns:xlink="http://www.w3.org/1999/xlink" width="33" height="67" version="1.1"><defs><mask id="clip2162" fill="#fff"><path fill-rule="evenodd" d="M 6.91999999999996 53.38 C 9.12 53.38 10.92 57.1800000000001 10.92 59.38 C 10.92 61.58 9.12 63.38 6.91999999999996 63.38 C 4.72000000000003 63.38 0.919999999999959 61.58 0.919999999999959 59.38 C 0.919999999999959 57.1800000000001 4.72000000000003 53.38 6.91999999999996 53.38 Z"/></mask></defs><g><path fill="#fff" fill-opacity="0" fill-rule="nonzero" stroke="none" d="M 6.91999999999996 53.38 C 9.12 53.38 10.92 57.1800000000001 10.92 59.38 C 10.92 61.58 9.12 63.38 6.91999999999996 63.38 C 4.72000000000003 63.38 0.919999999999959 61.58 0.919999999999959 59.38 C 0.919999999999959 57.1800000000001 4.72000000000003 53.38 6.91999999999996 53.38 Z" transform="matrix(1 0 0 1 -704 -13033 ) matrix(1 0 0 1 705 13034 )"/><path fill="none" stroke="#476482" stroke-width="4" d="M 6.91999999999996 53.38 C 9.12 53.38 10.92 57.1800000000001 10.92 59.38 C 10.92 61.58 9.12 63.38 6.91999999999996 63.38 C 4.72000000000003 63.38 0.919999999999959 61.58 0.919999999999959 59.38 C 0.919999999999959 57.1800000000001 4.72000000000003 53.38 6.91999999999996 53.38 Z" mask="url(#clip2162)" transform="matrix(1 0 0 1 -704 -13033 ) matrix(1 0 0 1 705 13034 )"/><path fill="none" stroke="#476482" stroke-width="2" d="M 29.72 0.980000000000018 L 5.91999999999996 58.38" mask="url(#clip2162)" transform="matrix(1 0 0 1 -704 -13033 ) matrix(1 0 0 1 705 13034 )"/></g></svg>