<svg xmlns="http://www.w3.org/2000/svg" xmlns:xlink="http://www.w3.org/1999/xlink" width="23" height="35" version="1.1"><defs><mask id="clip2158" fill="#fff"><path fill-rule="evenodd" d="M 15.8199999999999 21.58 C 18.12 21.58 19.8199999999999 25.38 19.8199999999999 27.58 C 19.8199999999999 29.88 18.12 31.58 15.8199999999999 31.58 C 13.62 31.58 9.81999999999994 29.88 9.81999999999994 27.58 C 9.81999999999994 25.38 13.62 21.58 15.8199999999999 21.58 Z"/></mask></defs><g><path fill="#fff" fill-opacity="0" fill-rule="nonzero" stroke="none" d="M 15.8199999999999 21.58 C 18.12 21.58 19.8199999999999 25.38 19.8199999999999 27.58 C 19.8199999999999 29.88 18.12 31.58 15.8199999999999 31.58 C 13.62 31.58 9.81999999999994 29.88 9.81999999999994 27.58 C 9.81999999999994 25.38 13.62 21.58 15.8199999999999 21.58 Z" transform="matrix(1 0 0 1 -652 -12993 ) matrix(1 0 0 1 653 12994 )"/><path fill="none" stroke="#476482" stroke-width="4" d="M 15.8199999999999 21.58 C 18.12 21.58 19.8199999999999 25.38 19.8199999999999 27.58 C 19.8199999999999 29.88 18.12 31.58 15.8199999999999 31.58 C 13.62 31.58 9.81999999999994 29.88 9.81999999999994 27.58 C 9.81999999999994 25.38 13.62 21.58 15.8199999999999 21.58 Z" mask="url(#clip2158)" transform="matrix(1 0 0 1 -652 -12993 ) matrix(1 0 0 1 653 12994 )"/><path fill="none" stroke="#476482" stroke-width="2" d="M 0.519999999999982 0.379999999999995 L 14.8199999999999 26.58" mask="url(#clip2158)" transform="matrix(1 0 0 1 -652 -12993 ) matrix(1 0 0 1 653 12994 )"/></g></svg>