<?xml version="1.0" encoding="utf-8"?>
<svg version="1.1" xmlns:xlink="http://www.w3.org/1999/xlink" width="67px" height="52px" xmlns="http://www.w3.org/2000/svg">
  <defs>
    <mask fill="white" id="clip2168">
      <path d="M 59.42 0.879999999999995  C 61.62 0.879999999999995  63.42 4.68000000000006  63.42 6.88  C 63.42 9.08000000000004  61.62 10.88  59.42 10.88  C 57.22 10.88  53.42 9.08000000000004  53.42 6.88  C 53.42 4.68000000000006  57.22 0.879999999999995  59.42 0.879999999999995  Z " fill-rule="evenodd" />
    </mask>
  </defs>
  <g transform="matrix(1 0 0 1 -551 -12985 )">
    <path d="M 59.42 0.879999999999995  C 61.62 0.879999999999995  63.42 4.68000000000006  63.42 6.88  C 63.42 9.08000000000004  61.62 10.88  59.42 10.88  C 57.22 10.88  53.42 9.08000000000004  53.42 6.88  C 53.42 4.68000000000006  57.22 0.879999999999995  59.42 0.879999999999995  Z " fill-rule="nonzero" fill="#ffffff" stroke="none" fill-opacity="0" transform="matrix(1 0 0 1 552 12986 )" />
    <path d="M 59.42 0.879999999999995  C 61.62 0.879999999999995  63.42 4.68000000000006  63.42 6.88  C 63.42 9.08000000000004  61.62 10.88  59.42 10.88  C 57.22 10.88  53.42 9.08000000000004  53.42 6.88  C 53.42 4.68000000000006  57.22 0.879999999999995  59.42 0.879999999999995  Z " stroke-width="4" stroke="#476482" fill="none" transform="matrix(1 0 0 1 552 12986 )" mask="url(#clip2168)" />
    <path d="M 0.0199999999999818 48.98  L 58.42 5.88  " stroke-width="2" stroke="#476482" fill="none" transform="matrix(1 0 0 1 552 12986 )" mask="url(#clip2168)" />
  </g>
</svg>