<svg xmlns="http://www.w3.org/2000/svg" xmlns:xlink="http://www.w3.org/1999/xlink" width="313" height="42" version="1.1"><defs><mask id="clip2159" fill="#fff"><path fill-rule="evenodd" d="M 11.89 41.23 C 11.89 41.23 300.79 41.23 300.79 41.23 C 307.09 41.23 312.19 36.13 312.19 29.83 C 312.19 29.83 312.19 11.43 312.19 11.43 C 312.19 5.23000000000002 307.09 0.129999999999995 300.79 0.129999999999995 C 300.79 0.129999999999995 11.89 0.129999999999995 11.89 0.129999999999995 C 5.69 0.129999999999995 0.590000000000003 5.23000000000002 0.590000000000003 11.43 C 0.590000000000003 11.43 0.590000000000003 29.83 0.590000000000003 29.83 C 0.590000000000003 36.13 5.69 41.23 11.89 41.23 Z"/></mask></defs><g><path fill="#ffaf00" fill-rule="nonzero" stroke="none" d="M 11.89 41.23 C 11.89 41.23 300.79 41.23 300.79 41.23 C 307.09 41.23 312.19 36.13 312.19 29.83 C 312.19 29.83 312.19 11.43 312.19 11.43 C 312.19 5.23000000000002 307.09 0.129999999999995 300.79 0.129999999999995 C 300.79 0.129999999999995 11.89 0.129999999999995 11.89 0.129999999999995 C 5.69 0.129999999999995 0.590000000000003 5.23000000000002 0.590000000000003 11.43 C 0.590000000000003 11.43 0.590000000000003 29.83 0.590000000000003 29.83 C 0.590000000000003 36.13 5.69 41.23 11.89 41.23 Z" transform="matrix(1 0 0 1 -143 -13174 ) matrix(1 0 0 1 143 13174 )"/><path fill="none" stroke="#ffaf00" stroke-width="2" d="M 11.89 41.23 C 11.89 41.23 300.79 41.23 300.79 41.23 C 307.09 41.23 312.19 36.13 312.19 29.83 C 312.19 29.83 312.19 11.43 312.19 11.43 C 312.19 5.23000000000002 307.09 0.129999999999995 300.79 0.129999999999995 C 300.79 0.129999999999995 11.89 0.129999999999995 11.89 0.129999999999995 C 5.69 0.129999999999995 0.590000000000003 5.23000000000002 0.590000000000003 11.43 C 0.590000000000003 11.43 0.590000000000003 29.83 0.590000000000003 29.83 C 0.590000000000003 36.13 5.69 41.23 11.89 41.23 Z" mask="url(#clip2159)" transform="matrix(1 0 0 1 -143 -13174 ) matrix(1 0 0 1 143 13174 )"/></g></svg>