<svg xmlns="http://www.w3.org/2000/svg" xmlns:xlink="http://www.w3.org/1999/xlink" width="313" height="42" version="1.1"><defs><mask id="clip2154" fill="#fff"><path fill-rule="evenodd" d="M 11.89 41.6 C 11.89 41.6 300.79 41.6 300.79 41.6 C 307.09 41.6 312.19 36.5 312.19 30.2 C 312.19 30.2 312.19 11.8 312.19 11.8 C 312.19 5.60000000000002 307.09 0.5 300.79 0.5 C 300.79 0.5 11.89 0.5 11.89 0.5 C 5.69 0.5 0.590000000000003 5.60000000000002 0.590000000000003 11.8 C 0.590000000000003 11.8 0.590000000000003 30.2 0.590000000000003 30.2 C 0.590000000000003 36.5 5.69 41.6 11.89 41.6 Z"/></mask></defs><g><path fill="#1bbc9d" fill-rule="nonzero" stroke="none" d="M 11.89 41.6 C 11.89 41.6 300.79 41.6 300.79 41.6 C 307.09 41.6 312.19 36.5 312.19 30.2 C 312.19 30.2 312.19 11.8 312.19 11.8 C 312.19 5.60000000000002 307.09 0.5 300.79 0.5 C 300.79 0.5 11.89 0.5 11.89 0.5 C 5.69 0.5 0.590000000000003 5.60000000000002 0.590000000000003 11.8 C 0.590000000000003 11.8 0.590000000000003 30.2 0.590000000000003 30.2 C 0.590000000000003 36.5 5.69 41.6 11.89 41.6 Z" transform="matrix(1 0 0 1 -143 -12804 ) matrix(1 0 0 1 143 12804 )"/><path fill="none" stroke="#1bbc9d" stroke-width="2" d="M 11.89 41.6 C 11.89 41.6 300.79 41.6 300.79 41.6 C 307.09 41.6 312.19 36.5 312.19 30.2 C 312.19 30.2 312.19 11.8 312.19 11.8 C 312.19 5.60000000000002 307.09 0.5 300.79 0.5 C 300.79 0.5 11.89 0.5 11.89 0.5 C 5.69 0.5 0.590000000000003 5.60000000000002 0.590000000000003 11.8 C 0.590000000000003 11.8 0.590000000000003 30.2 0.590000000000003 30.2 C 0.590000000000003 36.5 5.69 41.6 11.89 41.6 Z" mask="url(#clip2154)" transform="matrix(1 0 0 1 -143 -12804 ) matrix(1 0 0 1 143 12804 )"/></g></svg>