<svg xmlns="http://www.w3.org/2000/svg" xmlns:xlink="http://www.w3.org/1999/xlink" width="67" height="52" version="1.1"><defs><mask id="clip2168" fill="#fff"><path fill-rule="evenodd" d="M 59.42 0.879999999999995 C 61.62 0.879999999999995 63.42 4.68000000000006 63.42 6.88 C 63.42 9.08000000000004 61.62 10.88 59.42 10.88 C 57.22 10.88 53.42 9.08000000000004 53.42 6.88 C 53.42 4.68000000000006 57.22 0.879999999999995 59.42 0.879999999999995 Z"/></mask></defs><g><path fill="#fff" fill-opacity="0" fill-rule="nonzero" stroke="none" d="M 59.42 0.879999999999995 C 61.62 0.879999999999995 63.42 4.68000000000006 63.42 6.88 C 63.42 9.08000000000004 61.62 10.88 59.42 10.88 C 57.22 10.88 53.42 9.08000000000004 53.42 6.88 C 53.42 4.68000000000006 57.22 0.879999999999995 59.42 0.879999999999995 Z" transform="matrix(1 0 0 1 -551 -12985 ) matrix(1 0 0 1 552 12986 )"/><path fill="none" stroke="#476482" stroke-width="4" d="M 59.42 0.879999999999995 C 61.62 0.879999999999995 63.42 4.68000000000006 63.42 6.88 C 63.42 9.08000000000004 61.62 10.88 59.42 10.88 C 57.22 10.88 53.42 9.08000000000004 53.42 6.88 C 53.42 4.68000000000006 57.22 0.879999999999995 59.42 0.879999999999995 Z" mask="url(#clip2168)" transform="matrix(1 0 0 1 -551 -12985 ) matrix(1 0 0 1 552 12986 )"/><path fill="none" stroke="#476482" stroke-width="2" d="M 0.0199999999999818 48.98 L 58.42 5.88" mask="url(#clip2168)" transform="matrix(1 0 0 1 -551 -12985 ) matrix(1 0 0 1 552 12986 )"/></g></svg>