<svg xmlns="http://www.w3.org/2000/svg" xmlns:xlink="http://www.w3.org/1999/xlink" width="312" height="42" version="1.1"><defs><mask id="clip2155" fill="#fff"><path fill-rule="evenodd" d="M 11.68 41.6 C 11.68 41.6 300.58 41.6 300.58 41.6 C 306.88 41.6 311.98 36.5 311.98 30.2 C 311.98 30.2 311.98 11.8 311.98 11.8 C 311.98 5.60000000000002 306.88 0.5 300.58 0.5 C 300.58 0.5 11.68 0.5 11.68 0.5 C 5.48000000000002 0.5 0.379999999999996 5.60000000000002 0.379999999999996 11.8 C 0.379999999999996 11.8 0.379999999999996 30.2 0.379999999999996 30.2 C 0.379999999999996 36.5 5.48000000000002 41.6 11.68 41.6 Z"/></mask></defs><g><path fill="#dd7195" fill-rule="nonzero" stroke="none" d="M 11.68 41.6 C 11.68 41.6 300.58 41.6 300.58 41.6 C 306.88 41.6 311.98 36.5 311.98 30.2 C 311.98 30.2 311.98 11.8 311.98 11.8 C 311.98 5.60000000000002 306.88 0.5 300.58 0.5 C 300.58 0.5 11.68 0.5 11.68 0.5 C 5.48000000000002 0.5 0.379999999999996 5.60000000000002 0.379999999999996 11.8 C 0.379999999999996 11.8 0.379999999999996 30.2 0.379999999999996 30.2 C 0.379999999999996 36.5 5.48000000000002 41.6 11.68 41.6 Z" transform="matrix(1 0 0 1 -495 -12804 ) matrix(1 0 0 1 495 12804 )"/><path fill="none" stroke="#dd7195" stroke-width="2" d="M 11.68 41.6 C 11.68 41.6 300.58 41.6 300.58 41.6 C 306.88 41.6 311.98 36.5 311.98 30.2 C 311.98 30.2 311.98 11.8 311.98 11.8 C 311.98 5.60000000000002 306.88 0.5 300.58 0.5 C 300.58 0.5 11.68 0.5 11.68 0.5 C 5.48000000000002 0.5 0.379999999999996 5.60000000000002 0.379999999999996 11.8 C 0.379999999999996 11.8 0.379999999999996 30.2 0.379999999999996 30.2 C 0.379999999999996 36.5 5.48000000000002 41.6 11.68 41.6 Z" mask="url(#clip2155)" transform="matrix(1 0 0 1 -495 -12804 ) matrix(1 0 0 1 495 12804 )"/></g></svg>