<svg xmlns="http://www.w3.org/2000/svg" xmlns:xlink="http://www.w3.org/1999/xlink" width="66" height="14" version="1.1"><defs><mask id="clip2163" fill="#fff"><path fill-rule="evenodd" d="M 6.51999999999998 0.879999999999995 C 8.72000000000003 0.879999999999995 10.52 4.68000000000006 10.52 6.88 C 10.52 9.08000000000004 8.72000000000003 10.88 6.51999999999998 10.88 C 4.31999999999994 10.88 0.519999999999982 9.08000000000004 0.519999999999982 6.88 C 0.519999999999982 4.68000000000006 4.31999999999994 0.879999999999995 6.51999999999998 0.879999999999995 Z"/></mask></defs><g><path fill="#fff" fill-opacity="0" fill-rule="nonzero" stroke="none" d="M 6.51999999999998 0.879999999999995 C 8.72000000000003 0.879999999999995 10.52 4.68000000000006 10.52 6.88 C 10.52 9.08000000000004 8.72000000000003 10.88 6.51999999999998 10.88 C 4.31999999999994 10.88 0.519999999999982 9.08000000000004 0.519999999999982 6.88 C 0.519999999999982 4.68000000000006 4.31999999999994 0.879999999999995 6.51999999999998 0.879999999999995 Z" transform="matrix(1 0 0 1 -647 -13089 ) matrix(1 0 0 1 648 13090 )"/><path fill="none" stroke="#476482" stroke-width="4" d="M 6.51999999999998 0.879999999999995 C 8.72000000000003 0.879999999999995 10.52 4.68000000000006 10.52 6.88 C 10.52 9.08000000000004 8.72000000000003 10.88 6.51999999999998 10.88 C 4.31999999999994 10.88 0.519999999999982 9.08000000000004 0.519999999999982 6.88 C 0.519999999999982 4.68000000000006 4.31999999999994 0.879999999999995 6.51999999999998 0.879999999999995 Z" mask="url(#clip2163)" transform="matrix(1 0 0 1 -647 -13089 ) matrix(1 0 0 1 648 13090 )"/><path fill="none" stroke="#476482" stroke-width="2" d="M 62.92 2.38 L 5.51999999999998 5.88" mask="url(#clip2163)" transform="matrix(1 0 0 1 -647 -13089 ) matrix(1 0 0 1 648 13090 )"/></g></svg>