<svg xmlns="http://www.w3.org/2000/svg" xmlns:xlink="http://www.w3.org/1999/xlink" width="52" height="14" version="1.1"><defs><mask id="clip2157" fill="#fff"><path fill-rule="evenodd" d="M 44.52 0.379999999999995 C 46.72 0.379999999999995 48.52 2.18000000000006 48.52 4.38 C 48.52 6.58000000000004 46.72 10.38 44.52 10.38 C 42.3199999999999 10.38 38.52 6.58000000000004 38.52 4.38 C 38.52 2.18000000000006 42.3199999999999 0.379999999999995 44.52 0.379999999999995 Z"/></mask></defs><g><path fill="#fff" fill-opacity="0" fill-rule="nonzero" stroke="none" d="M 44.52 0.379999999999995 C 46.72 0.379999999999995 48.52 2.18000000000006 48.52 4.38 C 48.52 6.58000000000004 46.72 10.38 44.52 10.38 C 42.3199999999999 10.38 38.52 6.58000000000004 38.52 4.38 C 38.52 2.18000000000006 42.3199999999999 0.379999999999995 44.52 0.379999999999995 Z" transform="matrix(1 0 0 1 -609 -12988 ) matrix(1 0 0 1 610 12989 )"/><path fill="none" stroke="#476482" stroke-width="4" d="M 44.52 0.379999999999995 C 46.72 0.379999999999995 48.52 2.18000000000006 48.52 4.38 C 48.52 6.58000000000004 46.72 10.38 44.52 10.38 C 42.3199999999999 10.38 38.52 6.58000000000004 38.52 4.38 C 38.52 2.18000000000006 42.3199999999999 0.379999999999995 44.52 0.379999999999995 Z" mask="url(#clip2157)" transform="matrix(1 0 0 1 -609 -12988 ) matrix(1 0 0 1 610 12989 )"/><path fill="none" stroke="#476482" stroke-width="2" d="M 0.419999999999959 2.88 L 43.52 5.38" mask="url(#clip2157)" transform="matrix(1 0 0 1 -609 -12988 ) matrix(1 0 0 1 610 12989 )"/></g></svg>