<svg xmlns="http://www.w3.org/2000/svg" xmlns:xlink="http://www.w3.org/1999/xlink" width="29" height="14" version="1.1"><defs><mask id="clip2153" fill="#fff"><path fill-rule="evenodd" d="M 12.18 0.520000000000039 C 14.28 0.520000000000039 17.98 4.22000000000003 17.98 6.32000000000005 C 17.98 8.42000000000007 14.28 10.1200000000001 12.18 10.1200000000001 C 10.18 10.1200000000001 8.48000000000002 8.42000000000007 8.48000000000002 6.32000000000005 C 8.48000000000002 4.22000000000003 10.18 0.520000000000039 12.18 0.520000000000039 Z"/></mask></defs><g><path fill="#fff" fill-opacity="0" fill-rule="nonzero" stroke="none" d="M 12.18 0.520000000000039 C 14.28 0.520000000000039 17.98 4.22000000000003 17.98 6.32000000000005 C 17.98 8.42000000000007 14.28 10.1200000000001 12.18 10.1200000000001 C 10.18 10.1200000000001 8.48000000000002 8.42000000000007 8.48000000000002 6.32000000000005 C 8.48000000000002 4.22000000000003 10.18 0.520000000000039 12.18 0.520000000000039 Z" transform="matrix(1 0 0 1 -494 -12877 ) matrix(1 0 0 1 495 12878 )"/><path fill="none" stroke="#476482" stroke-width="4" d="M 12.18 0.520000000000039 C 14.28 0.520000000000039 17.98 4.22000000000003 17.98 6.32000000000005 C 17.98 8.42000000000007 14.28 10.1200000000001 12.18 10.1200000000001 C 10.18 10.1200000000001 8.48000000000002 8.42000000000007 8.48000000000002 6.32000000000005 C 8.48000000000002 4.22000000000003 10.18 0.520000000000039 12.18 0.520000000000039 Z" mask="url(#clip2153)" transform="matrix(1 0 0 1 -494 -12877 ) matrix(1 0 0 1 495 12878 )"/><path fill="none" stroke="#476482" stroke-width="2" d="M 0.879999999999995 5.32000000000005 L 25.58 5.32000000000005" mask="url(#clip2153)" transform="matrix(1 0 0 1 -494 -12877 ) matrix(1 0 0 1 495 12878 )"/></g></svg>