<?xml version="1.0" encoding="utf-8"?>
<svg version="1.1" xmlns:xlink="http://www.w3.org/1999/xlink" width="62px" height="62px" xmlns="http://www.w3.org/2000/svg">
  <defs>
    <mask fill="white" id="clip895">
      <path d="M 31.43 0.669999999999959  C 48.03 0.669999999999959  61.43 15.0699999999999  61.43 31.67  C 61.43 48.27  48.03 61.67  31.43 61.67  C 14.83 61.67  0.430000000000007 48.27  0.430000000000007 31.67  C 0.430000000000007 15.0699999999999  14.83 0.669999999999959  31.43 0.669999999999959  Z " fill-rule="evenodd" />
    </mask>
  </defs>
  <g transform="matrix(1 0 0 1 -405 -15550 )">
    <path d="M 31.43 0.669999999999959  C 48.03 0.669999999999959  61.43 15.0699999999999  61.43 31.67  C 61.43 48.27  48.03 61.67  31.43 61.67  C 14.83 61.67  0.430000000000007 48.27  0.430000000000007 31.67  C 0.430000000000007 15.0699999999999  14.83 0.669999999999959  31.43 0.669999999999959  Z " fill-rule="nonzero" fill="#1e6183" stroke="none" transform="matrix(1 0 0 1 405 15550 )" />
    <path d="M 31.43 0.669999999999959  C 48.03 0.669999999999959  61.43 15.0699999999999  61.43 31.67  C 61.43 48.27  48.03 61.67  31.43 61.67  C 14.83 61.67  0.430000000000007 48.27  0.430000000000007 31.67  C 0.430000000000007 15.0699999999999  14.83 0.669999999999959  31.43 0.669999999999959  Z " stroke-width="2" stroke="#1d6183" fill="none" transform="matrix(1 0 0 1 405 15550 )" mask="url(#clip895)" />
  </g>
</svg>