<?xml version="1.0" encoding="utf-8"?>
<svg version="1.1" xmlns:xlink="http://www.w3.org/1999/xlink" width="25px" height="25px" xmlns="http://www.w3.org/2000/svg">
  <defs>
    <mask fill="white" id="clip901">
      <path d="M 11.9699999999999 0.639999999999986  C 18.27 0.639999999999986  24.4699999999999 5.74000000000001  24.4699999999999 12.04  C 24.4699999999999 18.34  18.27 24.54  11.9699999999999 24.54  C 5.66999999999996 24.54  0.569999999999936 18.34  0.569999999999936 12.04  C 0.569999999999936 5.74000000000001  5.66999999999996 0.639999999999986  11.9699999999999 0.639999999999986  Z " fill-rule="evenodd" />
    </mask>
  </defs>
  <g transform="matrix(1 0 0 1 -638 -15373 )">
    <path d="M 11.9699999999999 0.639999999999986  C 18.27 0.639999999999986  24.4699999999999 5.74000000000001  24.4699999999999 12.04  C 24.4699999999999 18.34  18.27 24.54  11.9699999999999 24.54  C 5.66999999999996 24.54  0.569999999999936 18.34  0.569999999999936 12.04  C 0.569999999999936 5.74000000000001  5.66999999999996 0.639999999999986  11.9699999999999 0.639999999999986  Z " fill-rule="nonzero" fill="#ffb539" stroke="none" transform="matrix(1 0 0 1 638 15373 )" />
    <path d="M 11.9699999999999 0.639999999999986  C 18.27 0.639999999999986  24.4699999999999 5.74000000000001  24.4699999999999 12.04  C 24.4699999999999 18.34  18.27 24.54  11.9699999999999 24.54  C 5.66999999999996 24.54  0.569999999999936 18.34  0.569999999999936 12.04  C 0.569999999999936 5.74000000000001  5.66999999999996 0.639999999999986  11.9699999999999 0.639999999999986  Z " stroke-width="2" stroke="#ffb539" fill="none" transform="matrix(1 0 0 1 638 15373 )" mask="url(#clip901)" />
  </g>
</svg>