<svg xmlns="http://www.w3.org/2000/svg" xmlns:xlink="http://www.w3.org/1999/xlink" width="21" height="37" version="1.1"><defs><mask id="clip2177" fill="#fff"><path fill-rule="evenodd" d="M 13.02 0.279999999999973 C 15.22 0.279999999999973 17.02 4.08000000000004 17.02 6.27999999999997 C 17.02 8.48000000000002 15.22 10.28 13.02 10.28 C 10.8200000000001 10.28 7.01999999999998 8.48000000000002 7.01999999999998 6.27999999999997 C 7.01999999999998 4.08000000000004 10.8200000000001 0.279999999999973 13.02 0.279999999999973 Z"/></mask></defs><g><path fill="#fff" fill-opacity="0" fill-rule="nonzero" stroke="none" d="M 13.02 0.279999999999973 C 15.22 0.279999999999973 17.02 4.08000000000004 17.02 6.27999999999997 C 17.02 8.48000000000002 15.22 10.28 13.02 10.28 C 10.8200000000001 10.28 7.01999999999998 8.48000000000002 7.01999999999998 6.27999999999997 C 7.01999999999998 4.08000000000004 10.8200000000001 0.279999999999973 13.02 0.279999999999973 Z" transform="matrix(1 0 0 1 -969 -13000 ) matrix(1 0 0 1 970 13001 )"/><path fill="none" stroke="#268ea8" stroke-width="4" d="M 13.02 0.279999999999973 C 15.22 0.279999999999973 17.02 4.08000000000004 17.02 6.27999999999997 C 17.02 8.48000000000002 15.22 10.28 13.02 10.28 C 10.8200000000001 10.28 7.01999999999998 8.48000000000002 7.01999999999998 6.27999999999997 C 7.01999999999998 4.08000000000004 10.8200000000001 0.279999999999973 13.02 0.279999999999973 Z" mask="url(#clip2177)" transform="matrix(1 0 0 1 -969 -13000 ) matrix(1 0 0 1 970 13001 )"/><path fill="none" stroke="#268ea8" stroke-width="2" d="M 0.120000000000005 33.98 L 12.02 5.27999999999997" mask="url(#clip2177)" transform="matrix(1 0 0 1 -969 -13000 ) matrix(1 0 0 1 970 13001 )"/></g></svg>