<svg xmlns="http://www.w3.org/2000/svg" xmlns:xlink="http://www.w3.org/1999/xlink" width="32" height="66" version="1.1"><defs><mask id="clip2172" fill="#fff"><path fill-rule="evenodd" d="M 24.9200000000001 52.98 C 27.12 52.98 28.9200000000001 56.78 28.9200000000001 58.98 C 28.9200000000001 61.1800000000001 27.12 62.98 24.9200000000001 62.98 C 22.72 62.98 18.9200000000001 61.1800000000001 18.9200000000001 58.98 C 18.9200000000001 56.78 22.72 52.98 24.9200000000001 52.98 Z"/></mask></defs><g><path fill="#fff" fill-opacity="0" fill-rule="nonzero" stroke="none" d="M 24.9200000000001 52.98 C 27.12 52.98 28.9200000000001 56.78 28.9200000000001 58.98 C 28.9200000000001 61.1800000000001 27.12 62.98 24.9200000000001 62.98 C 22.72 62.98 18.9200000000001 61.1800000000001 18.9200000000001 58.98 C 18.9200000000001 56.78 22.72 52.98 24.9200000000001 52.98 Z" transform="matrix(1 0 0 1 -1067 -12976 ) matrix(1 0 0 1 1068 12977 )"/><path fill="none" stroke="#268ea8" stroke-width="4" d="M 24.9200000000001 52.98 C 27.12 52.98 28.9200000000001 56.78 28.9200000000001 58.98 C 28.9200000000001 61.1800000000001 27.12 62.98 24.9200000000001 62.98 C 22.72 62.98 18.9200000000001 61.1800000000001 18.9200000000001 58.98 C 18.9200000000001 56.78 22.72 52.98 24.9200000000001 52.98 Z" mask="url(#clip2172)" transform="matrix(1 0 0 1 -1067 -12976 ) matrix(1 0 0 1 1068 12977 )"/><path fill="none" stroke="#268ea8" stroke-width="2" d="M 0.120000000000005 0.580000000000041 L 23.9200000000001 57.98" mask="url(#clip2172)" transform="matrix(1 0 0 1 -1067 -12976 ) matrix(1 0 0 1 1068 12977 )"/></g></svg>