<svg xmlns="http://www.w3.org/2000/svg" xmlns:xlink="http://www.w3.org/1999/xlink" width="67" height="14" version="1.1"><defs><mask id="clip2171" fill="#fff"><path fill-rule="evenodd" d="M 59.12 0.580000000000041 C 61.3200000000001 0.580000000000041 63.12 4.38 63.12 6.58000000000004 C 63.12 8.77999999999997 61.3200000000001 10.58 59.12 10.58 C 56.9200000000001 10.58 53.12 8.77999999999997 53.12 6.58000000000004 C 53.12 4.38 56.9200000000001 0.580000000000041 59.12 0.580000000000041 Z"/></mask></defs><g><path fill="#fff" fill-opacity="0" fill-rule="nonzero" stroke="none" d="M 59.12 0.580000000000041 C 61.3200000000001 0.580000000000041 63.12 4.38 63.12 6.58000000000004 C 63.12 8.77999999999997 61.3200000000001 10.58 59.12 10.58 C 56.9200000000001 10.58 53.12 8.77999999999997 53.12 6.58000000000004 C 53.12 4.38 56.9200000000001 0.580000000000041 59.12 0.580000000000041 Z" transform="matrix(1 0 0 1 -1009 -12971 ) matrix(1 0 0 1 1010 12972 )"/><path fill="none" stroke="#268ea8" stroke-width="4" d="M 59.12 0.580000000000041 C 61.3200000000001 0.580000000000041 63.12 4.38 63.12 6.58000000000004 C 63.12 8.77999999999997 61.3200000000001 10.58 59.12 10.58 C 56.9200000000001 10.58 53.12 8.77999999999997 53.12 6.58000000000004 C 53.12 4.38 56.9200000000001 0.580000000000041 59.12 0.580000000000041 Z" mask="url(#clip2171)" transform="matrix(1 0 0 1 -1009 -12971 ) matrix(1 0 0 1 1010 12972 )"/><path fill="none" stroke="#268ea8" stroke-width="2" d="M 0.720000000000027 2.08000000000004 L 58.12 5.58000000000004" mask="url(#clip2171)" transform="matrix(1 0 0 1 -1009 -12971 ) matrix(1 0 0 1 1010 12972 )"/></g></svg>