<svg xmlns="http://www.w3.org/2000/svg" xmlns:xlink="http://www.w3.org/1999/xlink" width="37" height="41" version="1.1"><defs><mask id="clip2170" fill="#fff"><path fill-rule="evenodd" d="M 29.72 0.0800000000000409 C 31.9200000000001 0.0800000000000409 33.72 3.88 33.72 6.08000000000004 C 33.72 8.27999999999997 31.9200000000001 10.08 29.72 10.08 C 27.52 10.08 23.72 8.27999999999997 23.72 6.08000000000004 C 23.72 3.88 27.52 0.0800000000000409 29.72 0.0800000000000409 Z"/></mask></defs><g><path fill="#fff" fill-opacity="0" fill-rule="nonzero" stroke="none" d="M 29.72 0.0800000000000409 C 31.9200000000001 0.0800000000000409 33.72 3.88 33.72 6.08000000000004 C 33.72 8.27999999999997 31.9200000000001 10.08 29.72 10.08 C 27.52 10.08 23.72 8.27999999999997 23.72 6.08000000000004 C 23.72 3.88 27.52 0.0800000000000409 29.72 0.0800000000000409 Z" transform="matrix(1 0 0 1 -981 -12968 ) matrix(1 0 0 1 982 12969 )"/><path fill="none" stroke="#268ea8" stroke-width="4" d="M 29.72 0.0800000000000409 C 31.9200000000001 0.0800000000000409 33.72 3.88 33.72 6.08000000000004 C 33.72 8.27999999999997 31.9200000000001 10.08 29.72 10.08 C 27.52 10.08 23.72 8.27999999999997 23.72 6.08000000000004 C 23.72 3.88 27.52 0.0800000000000409 29.72 0.0800000000000409 Z" mask="url(#clip2170)" transform="matrix(1 0 0 1 -981 -12968 ) matrix(1 0 0 1 982 12969 )"/><path fill="none" stroke="#268ea8" stroke-width="2" d="M 0.0199999999999818 37.28 L 28.72 5.08000000000004" mask="url(#clip2170)" transform="matrix(1 0 0 1 -981 -12968 ) matrix(1 0 0 1 982 12969 )"/></g></svg>