<svg xmlns="http://www.w3.org/2000/svg" xmlns:xlink="http://www.w3.org/1999/xlink" width="41" height="81" version="1.1"><defs><mask id="clip2176" fill="#fff"><path fill-rule="evenodd" d="M 31.12 0.980000000000018 C 33.3200000000001 0.980000000000018 37.12 4.77999999999997 37.12 6.98000000000002 C 37.12 9.18000000000006 33.3200000000001 10.98 31.12 10.98 C 28.9200000000001 10.98 27.12 9.18000000000006 27.12 6.98000000000002 C 27.12 4.77999999999997 28.9200000000001 0.980000000000018 31.12 0.980000000000018 Z"/></mask></defs><g><path fill="#fff" fill-opacity="0" fill-rule="nonzero" stroke="none" d="M 31.12 0.980000000000018 C 33.3200000000001 0.980000000000018 37.12 4.77999999999997 37.12 6.98000000000002 C 37.12 9.18000000000006 33.3200000000001 10.98 31.12 10.98 C 28.9200000000001 10.98 27.12 9.18000000000006 27.12 6.98000000000002 C 27.12 4.77999999999997 28.9200000000001 0.980000000000018 31.12 0.980000000000018 Z" transform="matrix(1 0 0 1 -937 -13028 ) matrix(1 0 0 1 938 13029 )"/><path fill="none" stroke="#268ea8" stroke-width="4" d="M 31.12 0.980000000000018 C 33.3200000000001 0.980000000000018 37.12 4.77999999999997 37.12 6.98000000000002 C 37.12 9.18000000000006 33.3200000000001 10.98 31.12 10.98 C 28.9200000000001 10.98 27.12 9.18000000000006 27.12 6.98000000000002 C 27.12 4.77999999999997 28.9200000000001 0.980000000000018 31.12 0.980000000000018 Z" mask="url(#clip2176)" transform="matrix(1 0 0 1 -937 -13028 ) matrix(1 0 0 1 938 13029 )"/><path fill="none" stroke="#268ea8" stroke-width="2" d="M 0.920000000000073 77.78 L 32.12 5.98000000000002" mask="url(#clip2176)" transform="matrix(1 0 0 1 -937 -13028 ) matrix(1 0 0 1 938 13029 )"/></g></svg>