<svg xmlns="http://www.w3.org/2000/svg" xmlns:xlink="http://www.w3.org/1999/xlink" width="81" height="20" version="1.1"><defs><mask id="clip2175" fill="#fff"><path fill-rule="evenodd" d="M 4.92000000000007 6.77999999999997 C 7.12 6.77999999999997 10.9200000000001 10.58 10.9200000000001 12.78 C 10.9200000000001 14.98 7.12 16.78 4.92000000000007 16.78 C 2.72000000000003 16.78 0.920000000000073 14.98 0.920000000000073 12.78 C 0.920000000000073 10.58 2.72000000000003 6.77999999999997 4.92000000000007 6.77999999999997 Z"/></mask></defs><g><path fill="#fff" fill-opacity="0" fill-rule="nonzero" stroke="none" d="M 4.92000000000007 6.77999999999997 C 7.12 6.77999999999997 10.9200000000001 10.58 10.9200000000001 12.78 C 10.9200000000001 14.98 7.12 16.78 4.92000000000007 16.78 C 2.72000000000003 16.78 0.920000000000073 14.98 0.920000000000073 12.78 C 0.920000000000073 10.58 2.72000000000003 6.77999999999997 4.92000000000007 6.77999999999997 Z" transform="matrix(1 0 0 1 -932 -13094 ) matrix(1 0 0 1 933 13095 )"/><path fill="none" stroke="#268ea8" stroke-width="4" d="M 4.92000000000007 6.77999999999997 C 7.12 6.77999999999997 10.9200000000001 10.58 10.9200000000001 12.78 C 10.9200000000001 14.98 7.12 16.78 4.92000000000007 16.78 C 2.72000000000003 16.78 0.920000000000073 14.98 0.920000000000073 12.78 C 0.920000000000073 10.58 2.72000000000003 6.77999999999997 4.92000000000007 6.77999999999997 Z" mask="url(#clip2175)" transform="matrix(1 0 0 1 -932 -13094 ) matrix(1 0 0 1 933 13095 )"/><path fill="none" stroke="#268ea8" stroke-width="2" d="M 77.72 0.879999999999995 L 5.92000000000007 11.78" mask="url(#clip2175)" transform="matrix(1 0 0 1 -932 -13094 ) matrix(1 0 0 1 933 13095 )"/></g></svg>