<svg xmlns="http://www.w3.org/2000/svg" xmlns:xlink="http://www.w3.org/1999/xlink" width="61" height="38" version="1.1"><defs><mask id="clip2173" fill="#fff"><path fill-rule="evenodd" d="M 6.42000000000007 24.6800000000001 C 8.62 24.6800000000001 10.4200000000001 28.48 10.4200000000001 30.6800000000001 C 10.4200000000001 32.88 8.62 34.6800000000001 6.42000000000007 34.6800000000001 C 4.22000000000003 34.6800000000001 0.420000000000073 32.88 0.420000000000073 30.6800000000001 C 0.420000000000073 28.48 4.22000000000003 24.6800000000001 6.42000000000007 24.6800000000001 Z"/></mask></defs><g><path fill="#fff" fill-opacity="0" fill-rule="nonzero" stroke="none" d="M 6.42000000000007 24.6800000000001 C 8.62 24.6800000000001 10.4200000000001 28.48 10.4200000000001 30.6800000000001 C 10.4200000000001 32.88 8.62 34.6800000000001 6.42000000000007 34.6800000000001 C 4.22000000000003 34.6800000000001 0.420000000000073 32.88 0.420000000000073 30.6800000000001 C 0.420000000000073 28.48 4.22000000000003 24.6800000000001 6.42000000000007 24.6800000000001 Z" transform="matrix(1 0 0 1 -1033 -13033 ) matrix(1 0 0 1 1034 13034 )"/><path fill="none" stroke="#268ea8" stroke-width="4" d="M 6.42000000000007 24.6800000000001 C 8.62 24.6800000000001 10.4200000000001 28.48 10.4200000000001 30.6800000000001 C 10.4200000000001 32.88 8.62 34.6800000000001 6.42000000000007 34.6800000000001 C 4.22000000000003 34.6800000000001 0.420000000000073 32.88 0.420000000000073 30.6800000000001 C 0.420000000000073 28.48 4.22000000000003 24.6800000000001 6.42000000000007 24.6800000000001 Z" mask="url(#clip2173)" transform="matrix(1 0 0 1 -1033 -13033 ) matrix(1 0 0 1 1034 13034 )"/><path fill="none" stroke="#268ea8" stroke-width="2" d="M 57.9200000000001 0.980000000000018 L 5.42000000000007 29.6800000000001" mask="url(#clip2173)" transform="matrix(1 0 0 1 -1033 -13033 ) matrix(1 0 0 1 1034 13034 )"/></g></svg>