<svg xmlns="http://www.w3.org/2000/svg" xmlns:xlink="http://www.w3.org/1999/xlink" width="38" height="41" version="1.1"><defs><mask id="clip2174" fill="#fff"><path fill-rule="evenodd" d="M 6.72000000000003 27.88 C 8.92000000000007 27.88 10.72 31.6800000000001 10.72 33.88 C 10.72 36.08 8.92000000000007 37.88 6.72000000000003 37.88 C 4.51999999999998 37.88 0.720000000000027 36.08 0.720000000000027 33.88 C 0.720000000000027 31.6800000000001 4.51999999999998 27.88 6.72000000000003 27.88 Z"/></mask></defs><g><path fill="#fff" fill-opacity="0" fill-rule="nonzero" stroke="none" d="M 6.72000000000003 27.88 C 8.92000000000007 27.88 10.72 31.6800000000001 10.72 33.88 C 10.72 36.08 8.92000000000007 37.88 6.72000000000003 37.88 C 4.51999999999998 37.88 0.720000000000027 36.08 0.720000000000027 33.88 C 0.720000000000027 31.6800000000001 4.51999999999998 27.88 6.72000000000003 27.88 Z" transform="matrix(1 0 0 1 -1004 -13062 ) matrix(1 0 0 1 1005 13063 )"/><path fill="none" stroke="#268ea8" stroke-width="4" d="M 6.72000000000003 27.88 C 8.92000000000007 27.88 10.72 31.6800000000001 10.72 33.88 C 10.72 36.08 8.92000000000007 37.88 6.72000000000003 37.88 C 4.51999999999998 37.88 0.720000000000027 36.08 0.720000000000027 33.88 C 0.720000000000027 31.6800000000001 4.51999999999998 27.88 6.72000000000003 27.88 Z" mask="url(#clip2174)" transform="matrix(1 0 0 1 -1004 -13062 ) matrix(1 0 0 1 1005 13063 )"/><path fill="none" stroke="#268ea8" stroke-width="2" d="M 34.4200000000001 0.680000000000064 L 5.72000000000003 32.88" mask="url(#clip2174)" transform="matrix(1 0 0 1 -1004 -13062 ) matrix(1 0 0 1 1005 13063 )"/></g></svg>