<?xml version="1.0" encoding="utf-8"?>
<svg version="1.1" xmlns:xlink="http://www.w3.org/1999/xlink" width="37px" height="43px" xmlns="http://www.w3.org/2000/svg">
  <defs>
    <mask fill="white" id="clip964">
      <path d="M 36.97 36.08  C 36.97 36.08  1.57000000000005 42.58  1.57000000000005 42.58  C 1.17000000000002 40.48  0.970000000000027 38.2800000000001  0.970000000000027 36.08  C 0.970000000000027 16.7800000000001  17.67 0.0800000000000409  36.97 0.0800000000000409  C 36.97 0.0800000000000409  36.97 36.08  36.97 36.08  Z " fill-rule="evenodd" />
    </mask>
  </defs>
  <g transform="matrix(1 0 0 1 -508 -16657 )">
    <path d="M 36.97 36.08  C 36.97 36.08  1.57000000000005 42.58  1.57000000000005 42.58  C 1.17000000000002 40.48  0.970000000000027 38.2800000000001  0.970000000000027 36.08  C 0.970000000000027 16.7800000000001  17.67 0.0800000000000409  36.97 0.0800000000000409  C 36.97 0.0800000000000409  36.97 36.08  36.97 36.08  Z " fill-rule="nonzero" fill="#ee7c31" stroke="none" transform="matrix(1 0 0 1 508 16657 )" />
    <path d="M 36.97 36.08  C 36.97 36.08  1.57000000000005 42.58  1.57000000000005 42.58  C 1.17000000000002 40.48  0.970000000000027 38.2800000000001  0.970000000000027 36.08  C 0.970000000000027 16.7800000000001  17.67 0.0800000000000409  36.97 0.0800000000000409  C 36.97 0.0800000000000409  36.97 36.08  36.97 36.08  Z " stroke-width="2" stroke="#ee7c31" fill="none" transform="matrix(1 0 0 1 508 16657 )" mask="url(#clip964)" />
  </g>
</svg>