<svg xmlns="http://www.w3.org/2000/svg" xmlns:xlink="http://www.w3.org/1999/xlink" width="70" height="37" version="1.1"><defs><mask id="clip2178" fill="#fff"><path fill-rule="evenodd" d="M 62.97 0.830000000000013 C 65.17 0.830000000000013 66.97 4.63 66.97 6.82999999999998 C 66.97 9.03 65.17 10.83 62.97 10.83 C 60.77 10.83 56.97 9.03 56.97 6.82999999999998 C 56.97 4.63 60.77 0.830000000000013 62.97 0.830000000000013 Z"/></mask></defs><g><path fill="#fff" fill-opacity="0" fill-rule="nonzero" stroke="none" d="M 62.97 0.830000000000013 C 65.17 0.830000000000013 66.97 4.63 66.97 6.82999999999998 C 66.97 9.03 65.17 10.83 62.97 10.83 C 60.77 10.83 56.97 9.03 56.97 6.82999999999998 C 56.97 4.63 60.77 0.830000000000013 62.97 0.830000000000013 Z" transform="matrix(1 0 0 1 -364 -13503 ) matrix(1 0 0 1 365 13504 )"/><path fill="none" stroke="brown" stroke-width="4" d="M 62.97 0.830000000000013 C 65.17 0.830000000000013 66.97 4.63 66.97 6.82999999999998 C 66.97 9.03 65.17 10.83 62.97 10.83 C 60.77 10.83 56.97 9.03 56.97 6.82999999999998 C 56.97 4.63 60.77 0.830000000000013 62.97 0.830000000000013 Z" mask="url(#clip2178)" transform="matrix(1 0 0 1 -364 -13503 ) matrix(1 0 0 1 365 13504 )"/><path fill="none" stroke="brown" stroke-width="2" d="M 0.0699999999999932 33.73 L 61.97 5.82999999999998" mask="url(#clip2178)" transform="matrix(1 0 0 1 -364 -13503 ) matrix(1 0 0 1 365 13504 )"/></g></svg>