<?xml version="1.0" encoding="utf-8"?>
<svg version="1.1" xmlns:xlink="http://www.w3.org/1999/xlink" width="134px" height="12px" xmlns="http://www.w3.org/2000/svg">
  <defs>
    <mask fill="white" id="clip906">
      <path d="M 0.92999999999995 11.45  C 0.92999999999995 11.45  0.92999999999995 0.350000000000023  0.92999999999995 0.350000000000023  C 0.92999999999995 0.350000000000023  133.23 0.350000000000023  133.23 0.350000000000023  C 133.23 0.350000000000023  133.23 11.45  133.23 11.45  C 133.23 11.45  0.92999999999995 11.45  0.92999999999995 11.45  Z " fill-rule="evenodd" />
    </mask>
  </defs>
  <g transform="matrix(1 0 0 1 -903 -16509 )">
    <path d="M 0.92999999999995 11.45  C 0.92999999999995 11.45  0.92999999999995 0.350000000000023  0.92999999999995 0.350000000000023  C 0.92999999999995 0.350000000000023  133.23 0.350000000000023  133.23 0.350000000000023  C 133.23 0.350000000000023  133.23 11.45  133.23 11.45  C 133.23 11.45  0.92999999999995 11.45  0.92999999999995 11.45  Z " fill-rule="nonzero" fill="#ffaf00" stroke="none" transform="matrix(1 0 0 1 903 16509 )" />
    <path d="M 0.92999999999995 11.45  C 0.92999999999995 11.45  0.92999999999995 0.350000000000023  0.92999999999995 0.350000000000023  C 0.92999999999995 0.350000000000023  133.23 0.350000000000023  133.23 0.350000000000023  C 133.23 0.350000000000023  133.23 11.45  133.23 11.45  C 133.23 11.45  0.92999999999995 11.45  0.92999999999995 11.45  Z " stroke-width="2" stroke="#ffaf00" fill="none" transform="matrix(1 0 0 1 903 16509 )" mask="url(#clip906)" />
  </g>
</svg>