<svg xmlns="http://www.w3.org/2000/svg" xmlns:xlink="http://www.w3.org/1999/xlink" width="71" height="48" version="1.1"><defs><mask id="clip2184" fill="#fff"><path fill-rule="evenodd" d="M 6.97000000000003 34.53 C 9.16999999999996 34.53 10.97 38.33 10.97 40.53 C 10.97 42.73 9.16999999999996 44.53 6.97000000000003 44.53 C 4.76999999999998 44.53 0.970000000000027 42.73 0.970000000000027 40.53 C 0.970000000000027 38.33 4.76999999999998 34.53 6.97000000000003 34.53 Z"/></mask></defs><g><path fill="#fff" fill-opacity="0" fill-rule="nonzero" stroke="none" d="M 6.97000000000003 34.53 C 9.16999999999996 34.53 10.97 38.33 10.97 40.53 C 10.97 42.73 9.16999999999996 44.53 6.97000000000003 44.53 C 4.76999999999998 44.53 0.970000000000027 42.73 0.970000000000027 40.53 C 0.970000000000027 38.33 4.76999999999998 34.53 6.97000000000003 34.53 Z" transform="matrix(1 0 0 1 -420 -13751 ) matrix(1 0 0 1 421 13752 )"/><path fill="none" stroke="brown" stroke-width="4" d="M 6.97000000000003 34.53 C 9.16999999999996 34.53 10.97 38.33 10.97 40.53 C 10.97 42.73 9.16999999999996 44.53 6.97000000000003 44.53 C 4.76999999999998 44.53 0.970000000000027 42.73 0.970000000000027 40.53 C 0.970000000000027 38.33 4.76999999999998 34.53 6.97000000000003 34.53 Z" mask="url(#clip2184)" transform="matrix(1 0 0 1 -420 -13751 ) matrix(1 0 0 1 421 13752 )"/><path fill="none" stroke="brown" stroke-width="2" d="M 67.97 0.42999999999995 L 5.97000000000003 39.53" mask="url(#clip2184)" transform="matrix(1 0 0 1 -420 -13751 ) matrix(1 0 0 1 421 13752 )"/></g></svg>