<?xml version="1.0" encoding="utf-8"?>
<svg version="1.1" xmlns:xlink="http://www.w3.org/1999/xlink" width="225px" height="12px" xmlns="http://www.w3.org/2000/svg">
  <defs>
    <mask fill="white" id="clip1047">
      <path d="M 0.92999999999995 11.96  C 0.92999999999995 11.96  0.92999999999995 0.360000000000014  0.92999999999995 0.360000000000014  C 0.92999999999995 0.360000000000014  224.23 0.360000000000014  224.23 0.360000000000014  C 224.23 0.360000000000014  224.23 11.96  224.23 11.96  C 224.23 11.96  0.92999999999995 11.96  0.92999999999995 11.96  Z " fill-rule="evenodd" />
    </mask>
  </defs>
  <g transform="matrix(1 0 0 1 -903 -16774 )">
    <path d="M 0.92999999999995 11.96  C 0.92999999999995 11.96  0.92999999999995 0.360000000000014  0.92999999999995 0.360000000000014  C 0.92999999999995 0.360000000000014  224.23 0.360000000000014  224.23 0.360000000000014  C 224.23 0.360000000000014  224.23 11.96  224.23 11.96  C 224.23 11.96  0.92999999999995 11.96  0.92999999999995 11.96  Z " fill-rule="nonzero" fill="#527294" stroke="none" transform="matrix(1 0 0 1 903 16774 )" />
    <path d="M 0.92999999999995 11.96  C 0.92999999999995 11.96  0.92999999999995 0.360000000000014  0.92999999999995 0.360000000000014  C 0.92999999999995 0.360000000000014  224.23 0.360000000000014  224.23 0.360000000000014  C 224.23 0.360000000000014  224.23 11.96  224.23 11.96  C 224.23 11.96  0.92999999999995 11.96  0.92999999999995 11.96  Z " stroke-width="2" stroke="#527294" fill="none" transform="matrix(1 0 0 1 903 16774 )" mask="url(#clip1047)" />
  </g>
</svg>