<svg xmlns="http://www.w3.org/2000/svg" xmlns:xlink="http://www.w3.org/1999/xlink" width="58" height="61" version="1.1"><defs><mask id="clip2179" fill="#fff"><path fill-rule="evenodd" d="M 50.47 47.13 C 52.67 47.13 54.47 50.93 54.47 53.13 C 54.47 55.33 52.67 57.13 50.47 57.13 C 48.27 57.13 44.47 55.33 44.47 53.13 C 44.47 50.93 48.27 47.13 50.47 47.13 Z"/></mask></defs><g><path fill="#fff" fill-opacity="0" fill-rule="nonzero" stroke="none" d="M 50.47 47.13 C 52.67 47.13 54.47 50.93 54.47 53.13 C 54.47 55.33 52.67 57.13 50.47 57.13 C 48.27 57.13 44.47 55.33 44.47 53.13 C 44.47 50.93 48.27 47.13 50.47 47.13 Z" transform="matrix(1 0 0 1 -425 -13508 ) matrix(1 0 0 1 426 13509 )"/><path fill="none" stroke="brown" stroke-width="4" d="M 50.47 47.13 C 52.67 47.13 54.47 50.93 54.47 53.13 C 54.47 55.33 52.67 57.13 50.47 57.13 C 48.27 57.13 44.47 55.33 44.47 53.13 C 44.47 50.93 48.27 47.13 50.47 47.13 Z" mask="url(#clip2179)" transform="matrix(1 0 0 1 -425 -13508 ) matrix(1 0 0 1 426 13509 )"/><path fill="none" stroke="brown" stroke-width="2" d="M 0.970000000000027 0.829999999999984 L 49.47 52.13" mask="url(#clip2179)" transform="matrix(1 0 0 1 -425 -13508 ) matrix(1 0 0 1 426 13509 )"/></g></svg>