<?xml version="1.0" encoding="utf-8"?>
<svg version="1.1" xmlns:xlink="http://www.w3.org/1999/xlink" width="33px" height="34px" xmlns="http://www.w3.org/2000/svg">
  <defs>
    <radialGradient cx="0.610000000000031" cy="1.48000000000004" r="44.3" gradientTransform="matrix(0.999999999999998 0 0 1 9.99200722162641E-16 0 )" gradientUnits="userSpaceOnUse" id="RadialGradient1027">
      <stop id="Stop1028" stop-color="#fbfbfb" offset="0" />
      <stop id="Stop1029" stop-color="#e1e1e1" offset="1" />
    </radialGradient>
    <mask fill="white" id="clip1030">
      <path d="M 15.71 33.28  C 7.11000000000001 33.28  0.110000000000014 25.28  0.110000000000014 16.58  C 0.110000000000014 7.98000000000002  7.11000000000001 0.980000000000018  15.71 0.980000000000018  C 24.41 0.980000000000018  32.41 7.98000000000002  32.41 16.58  C 32.41 25.28  24.41 33.28  15.71 33.28  Z " fill-rule="evenodd" />
    </mask>
  </defs>
  <g transform="matrix(1 0 0 1 -634 -16421 )">
    <path d="M 15.71 33.28  C 7.11000000000001 33.28  0.110000000000014 25.28  0.110000000000014 16.58  C 0.110000000000014 7.98000000000002  7.11000000000001 0.980000000000018  15.71 0.980000000000018  C 24.41 0.980000000000018  32.41 7.98000000000002  32.41 16.58  C 32.41 25.28  24.41 33.28  15.71 33.28  Z " fill-rule="nonzero" fill="url(#RadialGradient1027)" stroke="none" transform="matrix(1 0 0 1 634 16421 )" />
    <path d="M 15.71 33.28  C 7.11000000000001 33.28  0.110000000000014 25.28  0.110000000000014 16.58  C 0.110000000000014 7.98000000000002  7.11000000000001 0.980000000000018  15.71 0.980000000000018  C 24.41 0.980000000000018  32.41 7.98000000000002  32.41 16.58  C 32.41 25.28  24.41 33.28  15.71 33.28  Z " stroke-width="2" stroke="#909090" fill="none" transform="matrix(1 0 0 1 634 16421 )" mask="url(#clip1030)" />
  </g>
</svg>