<svg xmlns="http://www.w3.org/2000/svg" xmlns:xlink="http://www.w3.org/1999/xlink" width="14" height="78" version="1.1"><defs><mask id="clip2183" fill="#fff"><path fill-rule="evenodd" d="M 6.97000000000003 64.43 C 9.16999999999996 64.43 10.97 68.23 10.97 70.43 C 10.97 72.63 9.16999999999996 74.43 6.97000000000003 74.43 C 4.76999999999998 74.43 0.970000000000027 72.63 0.970000000000027 70.43 C 0.970000000000027 68.23 4.76999999999998 64.43 6.97000000000003 64.43 Z"/></mask></defs><g><path fill="#fff" fill-opacity="0" fill-rule="nonzero" stroke="none" d="M 6.97000000000003 64.43 C 9.16999999999996 64.43 10.97 68.23 10.97 70.43 C 10.97 72.63 9.16999999999996 74.43 6.97000000000003 74.43 C 4.76999999999998 74.43 0.970000000000027 72.63 0.970000000000027 70.43 C 0.970000000000027 68.23 4.76999999999998 64.43 6.97000000000003 64.43 Z" transform="matrix(1 0 0 1 -482 -13682 ) matrix(1 0 0 1 483 13683 )"/><path fill="none" stroke="brown" stroke-width="4" d="M 6.97000000000003 64.43 C 9.16999999999996 64.43 10.97 68.23 10.97 70.43 C 10.97 72.63 9.16999999999996 74.43 6.97000000000003 74.43 C 4.76999999999998 74.43 0.970000000000027 72.63 0.970000000000027 70.43 C 0.970000000000027 68.23 4.76999999999998 64.43 6.97000000000003 64.43 Z" mask="url(#clip2183)" transform="matrix(1 0 0 1 -482 -13682 ) matrix(1 0 0 1 483 13683 )"/><path fill="none" stroke="brown" stroke-width="2" d="M 10.37 0.330000000000041 L 5.97000000000003 69.43" mask="url(#clip2183)" transform="matrix(1 0 0 1 -482 -13682 ) matrix(1 0 0 1 483 13683 )"/></g></svg>