<?xml version="1.0" encoding="utf-8"?>
<svg version="1.1" xmlns:xlink="http://www.w3.org/1999/xlink" width="32px" height="37px" xmlns="http://www.w3.org/2000/svg">
  <defs>
    <mask fill="white" id="clip1050">
      <path d="M 31.05 36.08  C 31.05 36.08  0.449999999999932 16.2800000000001  0.449999999999932 16.2800000000001  C 6.64999999999998 6.58000000000004  18.55 0.0800000000000409  31.05 0.0800000000000409  C 31.05 0.0800000000000409  31.05 36.08  31.05 36.08  Z " fill-rule="evenodd" />
    </mask>
  </defs>
  <g transform="matrix(1 0 0 1 -624 -16657 )">
    <path d="M 31.05 36.08  C 31.05 36.08  0.449999999999932 16.2800000000001  0.449999999999932 16.2800000000001  C 6.64999999999998 6.58000000000004  18.55 0.0800000000000409  31.05 0.0800000000000409  C 31.05 0.0800000000000409  31.05 36.08  31.05 36.08  Z " fill-rule="nonzero" fill="#ee7c31" stroke="none" transform="matrix(1 0 0 1 624 16657 )" />
    <path d="M 31.05 36.08  C 31.05 36.08  0.449999999999932 16.2800000000001  0.449999999999932 16.2800000000001  C 6.64999999999998 6.58000000000004  18.55 0.0800000000000409  31.05 0.0800000000000409  C 31.05 0.0800000000000409  31.05 36.08  31.05 36.08  Z " stroke-width="2" stroke="#ee7c31" fill="none" transform="matrix(1 0 0 1 624 16657 )" mask="url(#clip1050)" />
  </g>
</svg>