<svg xmlns="http://www.w3.org/2000/svg" xmlns:xlink="http://www.w3.org/1999/xlink" width="30" height="48" version="1.1"><defs><mask id="clip2181" fill="#fff"><path fill-rule="evenodd" d="M 6.06999999999999 34.03 C 8.26999999999998 34.03 10.07 37.83 10.07 40.03 C 10.07 42.23 8.26999999999998 44.03 6.06999999999999 44.03 C 3.87 44.03 0.0699999999999932 42.23 0.0699999999999932 40.03 C 0.0699999999999932 37.83 3.87 34.03 6.06999999999999 34.03 Z"/></mask></defs><g><path fill="#fff" fill-opacity="0" fill-rule="nonzero" stroke="none" d="M 6.06999999999999 34.03 C 8.26999999999998 34.03 10.07 37.83 10.07 40.03 C 10.07 42.23 8.26999999999998 44.03 6.06999999999999 44.03 C 3.87 44.03 0.0699999999999932 42.23 0.0699999999999932 40.03 C 0.0699999999999932 37.83 3.87 34.03 6.06999999999999 34.03 Z" transform="matrix(1 0 0 1 -466 -13605 ) matrix(1 0 0 1 467 13606 )"/><path fill="none" stroke="brown" stroke-width="4" d="M 6.06999999999999 34.03 C 8.26999999999998 34.03 10.07 37.83 10.07 40.03 C 10.07 42.23 8.26999999999998 44.03 6.06999999999999 44.03 C 3.87 44.03 0.0699999999999932 42.23 0.0699999999999932 40.03 C 0.0699999999999932 37.83 3.87 34.03 6.06999999999999 34.03 Z" mask="url(#clip2181)" transform="matrix(1 0 0 1 -466 -13605 ) matrix(1 0 0 1 467 13606 )"/><path fill="none" stroke="brown" stroke-width="2" d="M 26.37 0.730000000000018 L 5.06999999999999 39.03" mask="url(#clip2181)" transform="matrix(1 0 0 1 -466 -13605 ) matrix(1 0 0 1 467 13606 )"/></g></svg>