<?xml version="1.0" encoding="utf-8"?>
<svg version="1.1" xmlns:xlink="http://www.w3.org/1999/xlink" width="138px" height="12px" xmlns="http://www.w3.org/2000/svg">
  <defs>
    <mask fill="white" id="clip1011">
      <path d="M 0.92999999999995 11.77  C 0.92999999999995 11.77  0.92999999999995 0.669999999999987  0.92999999999995 0.669999999999987  C 0.92999999999995 0.669999999999987  137.13 0.669999999999987  137.13 0.669999999999987  C 137.13 0.669999999999987  137.13 11.77  137.13 11.77  C 137.13 11.77  0.92999999999995 11.77  0.92999999999995 11.77  Z " fill-rule="evenodd" />
    </mask>
  </defs>
  <g transform="matrix(1 0 0 1 -903 -16363 )">
    <path d="M 0.92999999999995 11.77  C 0.92999999999995 11.77  0.92999999999995 0.669999999999987  0.92999999999995 0.669999999999987  C 0.92999999999995 0.669999999999987  137.13 0.669999999999987  137.13 0.669999999999987  C 137.13 0.669999999999987  137.13 11.77  137.13 11.77  C 137.13 11.77  0.92999999999995 11.77  0.92999999999995 11.77  Z " fill-rule="nonzero" fill="#ffaf00" stroke="none" transform="matrix(1 0 0 1 903 16363 )" />
    <path d="M 0.92999999999995 11.77  C 0.92999999999995 11.77  0.92999999999995 0.669999999999987  0.92999999999995 0.669999999999987  C 0.92999999999995 0.669999999999987  137.13 0.669999999999987  137.13 0.669999999999987  C 137.13 0.669999999999987  137.13 11.77  137.13 11.77  C 137.13 11.77  0.92999999999995 11.77  0.92999999999995 11.77  Z " stroke-width="2" stroke="#ffaf00" fill="none" transform="matrix(1 0 0 1 903 16363 )" mask="url(#clip1011)" />
  </g>
</svg>