<?xml version="1.0" encoding="utf-8"?>
<svg version="1.1" xmlns:xlink="http://www.w3.org/1999/xlink" width="27px" height="54px" xmlns="http://www.w3.org/2000/svg">
  <defs>
    <mask fill="white" id="clip2180">
      <path d="M 19.37 40.73  C 21.57 40.73  23.37 44.53  23.37 46.73  C 23.37 48.93  21.57 50.73  19.37 50.73  C 17.17 50.73  13.37 48.93  13.37 46.73  C 13.37 44.53  17.17 40.73  19.37 40.73  Z " fill-rule="evenodd" />
    </mask>
  </defs>
  <g transform="matrix(1 0 0 1 -474 -13560 )">
    <path d="M 19.37 40.73  C 21.57 40.73  23.37 44.53  23.37 46.73  C 23.37 48.93  21.57 50.73  19.37 50.73  C 17.17 50.73  13.37 48.93  13.37 46.73  C 13.37 44.53  17.17 40.73  19.37 40.73  Z " fill-rule="nonzero" fill="#ffffff" stroke="none" fill-opacity="0" transform="matrix(1 0 0 1 475 13561 )" />
    <path d="M 19.37 40.73  C 21.57 40.73  23.37 44.53  23.37 46.73  C 23.37 48.93  21.57 50.73  19.37 50.73  C 17.17 50.73  13.37 48.93  13.37 46.73  C 13.37 44.53  17.17 40.73  19.37 40.73  Z " stroke-width="4" stroke="#a52a2a" fill="none" transform="matrix(1 0 0 1 475 13561 )" mask="url(#clip2180)" />
    <path d="M 0.470000000000027 0.129999999999995  L 18.37 45.73  " stroke-width="2" stroke="#a52a2a" fill="none" transform="matrix(1 0 0 1 475 13561 )" mask="url(#clip2180)" />
  </g>
</svg>