<svg xmlns="http://www.w3.org/2000/svg" xmlns:xlink="http://www.w3.org/1999/xlink" width="27" height="54" version="1.1"><defs><mask id="clip2180" fill="#fff"><path fill-rule="evenodd" d="M 19.37 40.73 C 21.57 40.73 23.37 44.53 23.37 46.73 C 23.37 48.93 21.57 50.73 19.37 50.73 C 17.17 50.73 13.37 48.93 13.37 46.73 C 13.37 44.53 17.17 40.73 19.37 40.73 Z"/></mask></defs><g><path fill="#fff" fill-opacity="0" fill-rule="nonzero" stroke="none" d="M 19.37 40.73 C 21.57 40.73 23.37 44.53 23.37 46.73 C 23.37 48.93 21.57 50.73 19.37 50.73 C 17.17 50.73 13.37 48.93 13.37 46.73 C 13.37 44.53 17.17 40.73 19.37 40.73 Z" transform="matrix(1 0 0 1 -474 -13560 ) matrix(1 0 0 1 475 13561 )"/><path fill="none" stroke="brown" stroke-width="4" d="M 19.37 40.73 C 21.57 40.73 23.37 44.53 23.37 46.73 C 23.37 48.93 21.57 50.73 19.37 50.73 C 17.17 50.73 13.37 48.93 13.37 46.73 C 13.37 44.53 17.17 40.73 19.37 40.73 Z" mask="url(#clip2180)" transform="matrix(1 0 0 1 -474 -13560 ) matrix(1 0 0 1 475 13561 )"/><path fill="none" stroke="brown" stroke-width="2" d="M 0.470000000000027 0.129999999999995 L 18.37 45.73" mask="url(#clip2180)" transform="matrix(1 0 0 1 -474 -13560 ) matrix(1 0 0 1 475 13561 )"/></g></svg>