<svg xmlns="http://www.w3.org/2000/svg" xmlns:xlink="http://www.w3.org/1999/xlink" width="151" height="30" version="1.1"><defs><mask id="clip2197" fill="#fff"><path fill-rule="evenodd" d="M 0.939999999999941 29.89 C 0.939999999999941 29.89 0.939999999999941 0.689999999999998 0.939999999999941 0.689999999999998 C 0.939999999999941 0.689999999999998 150.44 0.689999999999998 150.44 0.689999999999998 C 150.44 0.689999999999998 150.44 29.89 150.44 29.89 C 150.44 29.89 0.939999999999941 29.89 0.939999999999941 29.89 Z"/></mask></defs><g><path fill="#f6fafc" fill-rule="nonzero" stroke="none" d="M 0.939999999999941 29.89 C 0.939999999999941 29.89 0.939999999999941 0.689999999999998 0.939999999999941 0.689999999999998 C 0.939999999999941 0.689999999999998 150.44 0.689999999999998 150.44 0.689999999999998 C 150.44 0.689999999999998 150.44 29.89 150.44 29.89 C 150.44 29.89 0.939999999999941 29.89 0.939999999999941 29.89 Z" transform="matrix(1 0 0 1 -1009 -13570 ) matrix(1 0 0 1 1009 13570 )"/><path fill="none" stroke="#fff" stroke-width="2" d="M 0.939999999999941 29.89 C 0.939999999999941 29.89 0.939999999999941 0.689999999999998 0.939999999999941 0.689999999999998 C 0.939999999999941 0.689999999999998 150.44 0.689999999999998 150.44 0.689999999999998 C 150.44 0.689999999999998 150.44 29.89 150.44 29.89 C 150.44 29.89 0.939999999999941 29.89 0.939999999999941 29.89 Z" mask="url(#clip2197)" transform="matrix(1 0 0 1 -1009 -13570 ) matrix(1 0 0 1 1009 13570 )"/></g></svg>