<svg xmlns="http://www.w3.org/2000/svg" xmlns:xlink="http://www.w3.org/1999/xlink" width="116" height="30" version="1.1"><defs><mask id="clip2216" fill="#fff"><path fill-rule="evenodd" d="M 0.0399999999999636 29.59 C 0.0399999999999636 29.59 0.0399999999999636 0.389999999999986 0.0399999999999636 0.389999999999986 C 0.0399999999999636 0.389999999999986 115.54 0.389999999999986 115.54 0.389999999999986 C 115.54 0.389999999999986 115.54 29.59 115.54 29.59 C 115.54 29.59 0.0399999999999636 29.59 0.0399999999999636 29.59 Z"/></mask></defs><g><path fill="#cfebf6" fill-rule="nonzero" stroke="none" d="M 0.0399999999999636 29.59 C 0.0399999999999636 29.59 0.0399999999999636 0.389999999999986 0.0399999999999636 0.389999999999986 C 0.0399999999999636 0.389999999999986 115.54 0.389999999999986 115.54 0.389999999999986 C 115.54 0.389999999999986 115.54 29.59 115.54 29.59 C 115.54 29.59 0.0399999999999636 29.59 0.0399999999999636 29.59 Z" transform="matrix(1 0 0 1 -747 -13655 ) matrix(1 0 0 1 747 13655 )"/><path fill="none" stroke="#fff" stroke-width="2" d="M 0.0399999999999636 29.59 C 0.0399999999999636 29.59 0.0399999999999636 0.389999999999986 0.0399999999999636 0.389999999999986 C 0.0399999999999636 0.389999999999986 115.54 0.389999999999986 115.54 0.389999999999986 C 115.54 0.389999999999986 115.54 29.59 115.54 29.59 C 115.54 29.59 0.0399999999999636 29.59 0.0399999999999636 29.59 Z" mask="url(#clip2216)" transform="matrix(1 0 0 1 -747 -13655 ) matrix(1 0 0 1 747 13655 )"/></g></svg>