<svg xmlns="http://www.w3.org/2000/svg" xmlns:xlink="http://www.w3.org/1999/xlink" width="150" height="30" version="1.1"><defs><mask id="clip2212" fill="#fff"><path fill-rule="evenodd" d="M 0.539999999999964 29.89 C 0.539999999999964 29.89 0.539999999999964 0.590000000000032 0.539999999999964 0.590000000000032 C 0.539999999999964 0.590000000000032 149.94 0.590000000000032 149.94 0.590000000000032 C 149.94 0.590000000000032 149.94 29.89 149.94 29.89 C 149.94 29.89 0.539999999999964 29.89 0.539999999999964 29.89 Z"/></mask></defs><g><path fill="#f6fafc" fill-rule="nonzero" stroke="none" d="M 0.539999999999964 29.89 C 0.539999999999964 29.89 0.539999999999964 0.590000000000032 0.539999999999964 0.590000000000032 C 0.539999999999964 0.590000000000032 149.94 0.590000000000032 149.94 0.590000000000032 C 149.94 0.590000000000032 149.94 29.89 149.94 29.89 C 149.94 29.89 0.539999999999964 29.89 0.539999999999964 29.89 Z" transform="matrix(1 0 0 1 -861 -13683 ) matrix(1 0 0 1 861 13683 )"/><path fill="none" stroke="#fff" stroke-width="2" d="M 0.539999999999964 29.89 C 0.539999999999964 29.89 0.539999999999964 0.590000000000032 0.539999999999964 0.590000000000032 C 0.539999999999964 0.590000000000032 149.94 0.590000000000032 149.94 0.590000000000032 C 149.94 0.590000000000032 149.94 29.89 149.94 29.89 C 149.94 29.89 0.539999999999964 29.89 0.539999999999964 29.89 Z" mask="url(#clip2212)" transform="matrix(1 0 0 1 -861 -13683 ) matrix(1 0 0 1 861 13683 )"/></g></svg>