<svg xmlns="http://www.w3.org/2000/svg" xmlns:xlink="http://www.w3.org/1999/xlink" width="93" height="18" version="1.1"><defs><mask id="clip2196" fill="#fff"><path fill-rule="evenodd" d="M 6.76999999999998 0.629999999999995 C 8.97000000000003 0.629999999999995 10.77 4.43000000000001 10.77 6.63 C 10.77 8.83000000000004 8.97000000000003 10.63 6.76999999999998 10.63 C 4.56999999999999 10.63 0.769999999999982 8.83000000000004 0.769999999999982 6.63 C 0.769999999999982 4.43000000000001 4.56999999999999 0.629999999999995 6.76999999999998 0.629999999999995 Z"/></mask></defs><g><path fill="#fff" fill-opacity="0" fill-rule="nonzero" stroke="none" d="M 6.76999999999998 0.629999999999995 C 8.97000000000003 0.629999999999995 10.77 4.43000000000001 10.77 6.63 C 10.77 8.83000000000004 8.97000000000003 10.63 6.76999999999998 10.63 C 4.56999999999999 10.63 0.769999999999982 8.83000000000004 0.769999999999982 6.63 C 0.769999999999982 4.43000000000001 4.56999999999999 0.629999999999995 6.76999999999998 0.629999999999995 Z" transform="matrix(1 0 0 1 -454 -13697 ) matrix(1 0 0 1 455 13698 )"/><path fill="none" stroke="green" stroke-width="4" d="M 6.76999999999998 0.629999999999995 C 8.97000000000003 0.629999999999995 10.77 4.43000000000001 10.77 6.63 C 10.77 8.83000000000004 8.97000000000003 10.63 6.76999999999998 10.63 C 4.56999999999999 10.63 0.769999999999982 8.83000000000004 0.769999999999982 6.63 C 0.769999999999982 4.43000000000001 4.56999999999999 0.629999999999995 6.76999999999998 0.629999999999995 Z" mask="url(#clip2196)" transform="matrix(1 0 0 1 -454 -13697 ) matrix(1 0 0 1 455 13698 )"/><path fill="none" stroke="green" stroke-width="2" d="M 89.0700000000001 14.63 L 5.76999999999998 5.63" mask="url(#clip2196)" transform="matrix(1 0 0 1 -454 -13697 ) matrix(1 0 0 1 455 13698 )"/></g></svg>