<svg xmlns="http://www.w3.org/2000/svg" xmlns:xlink="http://www.w3.org/1999/xlink" width="151" height="30" version="1.1"><defs><mask id="clip2218" fill="#fff"><path fill-rule="evenodd" d="M 0.939999999999941 29.79 C 0.939999999999941 29.79 0.939999999999941 0.590000000000032 0.939999999999941 0.590000000000032 C 0.939999999999941 0.590000000000032 150.44 0.590000000000032 150.44 0.590000000000032 C 150.44 0.590000000000032 150.44 29.79 150.44 29.79 C 150.44 29.79 0.939999999999941 29.79 0.939999999999941 29.79 Z"/></mask></defs><g><path fill="#f6fafc" fill-rule="nonzero" stroke="none" d="M 0.939999999999941 29.79 C 0.939999999999941 29.79 0.939999999999941 0.590000000000032 0.939999999999941 0.590000000000032 C 0.939999999999941 0.590000000000032 150.44 0.590000000000032 150.44 0.590000000000032 C 150.44 0.590000000000032 150.44 29.79 150.44 29.79 C 150.44 29.79 0.939999999999941 29.79 0.939999999999941 29.79 Z" transform="matrix(1 0 0 1 -1009 -13796 ) matrix(1 0 0 1 1009 13796 )"/><path fill="none" stroke="#fff" stroke-width="2" d="M 0.939999999999941 29.79 C 0.939999999999941 29.79 0.939999999999941 0.590000000000032 0.939999999999941 0.590000000000032 C 0.939999999999941 0.590000000000032 150.44 0.590000000000032 150.44 0.590000000000032 C 150.44 0.590000000000032 150.44 29.79 150.44 29.79 C 150.44 29.79 0.939999999999941 29.79 0.939999999999941 29.79 Z" mask="url(#clip2218)" transform="matrix(1 0 0 1 -1009 -13796 ) matrix(1 0 0 1 1009 13796 )"/></g></svg>