<?xml version="1.0" encoding="utf-8"?>
<svg version="1.1" xmlns:xlink="http://www.w3.org/1999/xlink" width="150px" height="30px" xmlns="http://www.w3.org/2000/svg">
  <defs>
    <mask fill="white" id="clip2212">
      <path d="M 0.539999999999964 29.89  C 0.539999999999964 29.89  0.539999999999964 0.590000000000032  0.539999999999964 0.590000000000032  C 0.539999999999964 0.590000000000032  149.94 0.590000000000032  149.94 0.590000000000032  C 149.94 0.590000000000032  149.94 29.89  149.94 29.89  C 149.94 29.89  0.539999999999964 29.89  0.539999999999964 29.89  Z " fill-rule="evenodd" />
    </mask>
  </defs>
  <g transform="matrix(1 0 0 1 -861 -13683 )">
    <path d="M 0.539999999999964 29.89  C 0.539999999999964 29.89  0.539999999999964 0.590000000000032  0.539999999999964 0.590000000000032  C 0.539999999999964 0.590000000000032  149.94 0.590000000000032  149.94 0.590000000000032  C 149.94 0.590000000000032  149.94 29.89  149.94 29.89  C 149.94 29.89  0.539999999999964 29.89  0.539999999999964 29.89  Z " fill-rule="nonzero" fill="#f6fafc" stroke="none" transform="matrix(1 0 0 1 861 13683 )" />
    <path d="M 0.539999999999964 29.89  C 0.539999999999964 29.89  0.539999999999964 0.590000000000032  0.539999999999964 0.590000000000032  C 0.539999999999964 0.590000000000032  149.94 0.590000000000032  149.94 0.590000000000032  C 149.94 0.590000000000032  149.94 29.89  149.94 29.89  C 149.94 29.89  0.539999999999964 29.89  0.539999999999964 29.89  Z " stroke-width="2" stroke="#ffffff" fill="none" transform="matrix(1 0 0 1 861 13683 )" mask="url(#clip2212)" />
  </g>
</svg>