<svg xmlns="http://www.w3.org/2000/svg" xmlns:xlink="http://www.w3.org/1999/xlink" width="116" height="45" version="1.1"><defs><mask id="clip2198" fill="#fff"><path fill-rule="evenodd" d="M 0.0399999999999636 44.69 C 0.0399999999999636 44.69 0.0399999999999636 0.990000000000009 0.0399999999999636 0.990000000000009 C 0.0399999999999636 0.990000000000009 115.54 0.990000000000009 115.54 0.990000000000009 C 115.54 0.990000000000009 115.54 44.69 115.54 44.69 C 115.54 44.69 0.0399999999999636 44.69 0.0399999999999636 44.69 Z"/></mask></defs><g><path fill="#93c7d7" fill-rule="nonzero" stroke="none" d="M 0.0399999999999636 44.69 C 0.0399999999999636 44.69 0.0399999999999636 0.990000000000009 0.0399999999999636 0.990000000000009 C 0.0399999999999636 0.990000000000009 115.54 0.990000000000009 115.54 0.990000000000009 C 115.54 0.990000000000009 115.54 44.69 115.54 44.69 C 115.54 44.69 0.0399999999999636 44.69 0.0399999999999636 44.69 Z" transform="matrix(1 0 0 1 -747 -13527 ) matrix(1 0 0 1 747 13527 )"/><path fill="none" stroke="#fff" stroke-width="2" d="M 0.0399999999999636 44.69 C 0.0399999999999636 44.69 0.0399999999999636 0.990000000000009 0.0399999999999636 0.990000000000009 C 0.0399999999999636 0.990000000000009 115.54 0.990000000000009 115.54 0.990000000000009 C 115.54 0.990000000000009 115.54 44.69 115.54 44.69 C 115.54 44.69 0.0399999999999636 44.69 0.0399999999999636 44.69 Z" mask="url(#clip2198)" transform="matrix(1 0 0 1 -747 -13527 ) matrix(1 0 0 1 747 13527 )"/></g></svg>