<svg xmlns="http://www.w3.org/2000/svg" xmlns:xlink="http://www.w3.org/1999/xlink" width="150" height="30" version="1.1"><defs><mask id="clip2195" fill="#fff"><path fill-rule="evenodd" d="M 0.539999999999964 29.89 C 0.539999999999964 29.89 0.539999999999964 0.689999999999998 0.539999999999964 0.689999999999998 C 0.539999999999964 0.689999999999998 149.94 0.689999999999998 149.94 0.689999999999998 C 149.94 0.689999999999998 149.94 29.89 149.94 29.89 C 149.94 29.89 0.539999999999964 29.89 0.539999999999964 29.89 Z"/></mask></defs><g><path fill="#f6fafc" fill-rule="nonzero" stroke="none" d="M 0.539999999999964 29.89 C 0.539999999999964 29.89 0.539999999999964 0.689999999999998 0.539999999999964 0.689999999999998 C 0.539999999999964 0.689999999999998 149.94 0.689999999999998 149.94 0.689999999999998 C 149.94 0.689999999999998 149.94 29.89 149.94 29.89 C 149.94 29.89 0.539999999999964 29.89 0.539999999999964 29.89 Z" transform="matrix(1 0 0 1 -861 -13570 ) matrix(1 0 0 1 861 13570 )"/><path fill="none" stroke="#fff" stroke-width="2" d="M 0.539999999999964 29.89 C 0.539999999999964 29.89 0.539999999999964 0.689999999999998 0.539999999999964 0.689999999999998 C 0.539999999999964 0.689999999999998 149.94 0.689999999999998 149.94 0.689999999999998 C 149.94 0.689999999999998 149.94 29.89 149.94 29.89 C 149.94 29.89 0.539999999999964 29.89 0.539999999999964 29.89 Z" mask="url(#clip2195)" transform="matrix(1 0 0 1 -861 -13570 ) matrix(1 0 0 1 861 13570 )"/></g></svg>