<svg xmlns="http://www.w3.org/2000/svg" xmlns:xlink="http://www.w3.org/1999/xlink" width="14" height="60" version="1.1"><defs><mask id="clip2187" fill="#fff"><path fill-rule="evenodd" d="M 6.87 0.0299999999999727 C 9.06999999999999 0.0299999999999727 10.87 3.83000000000004 10.87 6.02999999999997 C 10.87 8.23000000000002 9.06999999999999 10.03 6.87 10.03 C 4.67000000000002 10.03 0.870000000000005 8.23000000000002 0.870000000000005 6.02999999999997 C 0.870000000000005 3.83000000000004 4.67000000000002 0.0299999999999727 6.87 0.0299999999999727 Z"/></mask></defs><g><path fill="#fff" fill-opacity="0" fill-rule="nonzero" stroke="none" d="M 6.87 0.0299999999999727 C 9.06999999999999 0.0299999999999727 10.87 3.83000000000004 10.87 6.02999999999997 C 10.87 8.23000000000002 9.06999999999999 10.03 6.87 10.03 C 4.67000000000002 10.03 0.870000000000005 8.23000000000002 0.870000000000005 6.02999999999997 C 0.870000000000005 3.83000000000004 4.67000000000002 0.0299999999999727 6.87 0.0299999999999727 Z" transform="matrix(1 0 0 1 -330 -13639 ) matrix(1 0 0 1 331 13640 )"/><path fill="none" stroke="brown" stroke-width="4" d="M 6.87 0.0299999999999727 C 9.06999999999999 0.0299999999999727 10.87 3.83000000000004 10.87 6.02999999999997 C 10.87 8.23000000000002 9.06999999999999 10.03 6.87 10.03 C 4.67000000000002 10.03 0.870000000000005 8.23000000000002 0.870000000000005 6.02999999999997 C 0.870000000000005 3.83000000000004 4.67000000000002 0.0299999999999727 6.87 0.0299999999999727 Z" mask="url(#clip2187)" transform="matrix(1 0 0 1 -330 -13639 ) matrix(1 0 0 1 331 13640 )"/><path fill="none" stroke="brown" stroke-width="2" d="M 6.17000000000002 56.93 L 5.87 5.02999999999997" mask="url(#clip2187)" transform="matrix(1 0 0 1 -330 -13639 ) matrix(1 0 0 1 331 13640 )"/></g></svg>