<svg xmlns="http://www.w3.org/2000/svg" xmlns:xlink="http://www.w3.org/1999/xlink" width="19" height="37" version="1.1"><defs><mask id="clip2214" fill="#fff"><path fill-rule="evenodd" d="M 6.37 0.0299999999999727 C 8.56999999999999 0.0299999999999727 10.37 3.83000000000004 10.37 6.02999999999997 C 10.37 8.23000000000002 8.56999999999999 10.03 6.37 10.03 C 4.17000000000002 10.03 0.370000000000005 8.23000000000002 0.370000000000005 6.02999999999997 C 0.370000000000005 3.83000000000004 4.17000000000002 0.0299999999999727 6.37 0.0299999999999727 Z"/></mask></defs><g><path fill="#fff" fill-opacity="0" fill-rule="nonzero" stroke="none" d="M 6.37 0.0299999999999727 C 8.56999999999999 0.0299999999999727 10.37 3.83000000000004 10.37 6.02999999999997 C 10.37 8.23000000000002 8.56999999999999 10.03 6.37 10.03 C 4.17000000000002 10.03 0.370000000000005 8.23000000000002 0.370000000000005 6.02999999999997 C 0.370000000000005 3.83000000000004 4.17000000000002 0.0299999999999727 6.37 0.0299999999999727 Z" transform="matrix(1 0 0 1 -362 -13639 ) matrix(1 0 0 1 363 13640 )"/><path fill="none" stroke="green" stroke-width="4" d="M 6.37 0.0299999999999727 C 8.56999999999999 0.0299999999999727 10.37 3.83000000000004 10.37 6.02999999999997 C 10.37 8.23000000000002 8.56999999999999 10.03 6.37 10.03 C 4.17000000000002 10.03 0.370000000000005 8.23000000000002 0.370000000000005 6.02999999999997 C 0.370000000000005 3.83000000000004 4.17000000000002 0.0299999999999727 6.37 0.0299999999999727 Z" mask="url(#clip2214)" transform="matrix(1 0 0 1 -362 -13639 ) matrix(1 0 0 1 363 13640 )"/><path fill="none" stroke="green" stroke-width="2" d="M 15.17 33.23 L 5.37 5.02999999999997" mask="url(#clip2214)" transform="matrix(1 0 0 1 -362 -13639 ) matrix(1 0 0 1 363 13640 )"/></g></svg>