<svg xmlns="http://www.w3.org/2000/svg" xmlns:xlink="http://www.w3.org/1999/xlink" width="151" height="30" version="1.1"><defs><mask id="clip2228" fill="#fff"><path fill-rule="evenodd" d="M 0.939999999999941 29.59 C 0.939999999999941 29.59 0.939999999999941 0.289999999999964 0.939999999999941 0.289999999999964 C 0.939999999999941 0.289999999999964 150.44 0.289999999999964 150.44 0.289999999999964 C 150.44 0.289999999999964 150.44 29.59 150.44 29.59 C 150.44 29.59 0.939999999999941 29.59 0.939999999999941 29.59 Z"/></mask></defs><g><path fill="#cfebf6" fill-rule="nonzero" stroke="none" d="M 0.939999999999941 29.59 C 0.939999999999941 29.59 0.939999999999941 0.289999999999964 0.939999999999941 0.289999999999964 C 0.939999999999941 0.289999999999964 150.44 0.289999999999964 150.44 0.289999999999964 C 150.44 0.289999999999964 150.44 29.59 150.44 29.59 C 150.44 29.59 0.939999999999941 29.59 0.939999999999941 29.59 Z" transform="matrix(1 0 0 1 -1009 -13881 ) matrix(1 0 0 1 1009 13881 )"/><path fill="none" stroke="#fff" stroke-width="2" d="M 0.939999999999941 29.59 C 0.939999999999941 29.59 0.939999999999941 0.289999999999964 0.939999999999941 0.289999999999964 C 0.939999999999941 0.289999999999964 150.44 0.289999999999964 150.44 0.289999999999964 C 150.44 0.289999999999964 150.44 29.59 150.44 29.59 C 150.44 29.59 0.939999999999941 29.59 0.939999999999941 29.59 Z" mask="url(#clip2228)" transform="matrix(1 0 0 1 -1009 -13881 ) matrix(1 0 0 1 1009 13881 )"/></g></svg>