<svg xmlns="http://www.w3.org/2000/svg" xmlns:xlink="http://www.w3.org/1999/xlink" width="58" height="70" version="1.1"><defs><mask id="clip2185" fill="#fff"><path fill-rule="evenodd" d="M 6.37 0.930000000000007 C 8.67000000000002 0.930000000000007 10.37 4.73000000000002 10.37 6.93000000000001 C 10.37 9.13 8.67000000000002 10.93 6.37 10.93 C 4.17000000000002 10.93 0.370000000000005 9.13 0.370000000000005 6.93000000000001 C 0.370000000000005 4.73000000000002 4.17000000000002 0.930000000000007 6.37 0.930000000000007 Z"/></mask></defs><g><path fill="#fff" fill-opacity="0" fill-rule="nonzero" stroke="none" d="M 6.37 0.930000000000007 C 8.67000000000002 0.930000000000007 10.37 4.73000000000002 10.37 6.93000000000001 C 10.37 9.13 8.67000000000002 10.93 6.37 10.93 C 4.17000000000002 10.93 0.370000000000005 9.13 0.370000000000005 6.93000000000001 C 0.370000000000005 4.73000000000002 4.17000000000002 0.930000000000007 6.37 0.930000000000007 Z" transform="matrix(1 0 0 1 -371 -13724 ) matrix(1 0 0 1 372 13725 )"/><path fill="none" stroke="brown" stroke-width="4" d="M 6.37 0.930000000000007 C 8.67000000000002 0.930000000000007 10.37 4.73000000000002 10.37 6.93000000000001 C 10.37 9.13 8.67000000000002 10.93 6.37 10.93 C 4.17000000000002 10.93 0.370000000000005 9.13 0.370000000000005 6.93000000000001 C 0.370000000000005 4.73000000000002 4.17000000000002 0.930000000000007 6.37 0.930000000000007 Z" mask="url(#clip2185)" transform="matrix(1 0 0 1 -371 -13724 ) matrix(1 0 0 1 372 13725 )"/><path fill="none" stroke="brown" stroke-width="2" d="M 54.97 66.53 L 5.37 5.93000000000001" mask="url(#clip2185)" transform="matrix(1 0 0 1 -371 -13724 ) matrix(1 0 0 1 372 13725 )"/></g></svg>