<svg xmlns="http://www.w3.org/2000/svg" xmlns:xlink="http://www.w3.org/1999/xlink" width="42" height="29" version="1.1"><defs><mask id="clip2206" fill="#fff"><path fill-rule="evenodd" d="M 6.16999999999996 0.629999999999995 C 8.37 0.629999999999995 10.17 4.43000000000001 10.17 6.63 C 10.17 8.83000000000004 8.37 10.63 6.16999999999996 10.63 C 3.97000000000003 10.63 0.169999999999959 8.83000000000004 0.169999999999959 6.63 C 0.169999999999959 4.43000000000001 3.97000000000003 0.629999999999995 6.16999999999996 0.629999999999995 Z"/></mask></defs><g><path fill="#fff" fill-opacity="0" fill-rule="nonzero" stroke="none" d="M 6.16999999999996 0.629999999999995 C 8.37 0.629999999999995 10.17 4.43000000000001 10.17 6.63 C 10.17 8.83000000000004 8.37 10.63 6.16999999999996 10.63 C 3.97000000000003 10.63 0.169999999999959 8.83000000000004 0.169999999999959 6.63 C 0.169999999999959 4.43000000000001 3.97000000000003 0.629999999999995 6.16999999999996 0.629999999999995 Z" transform="matrix(1 0 0 1 -387 -13697 ) matrix(1 0 0 1 388 13698 )"/><path fill="none" stroke="green" stroke-width="4" d="M 6.16999999999996 0.629999999999995 C 8.37 0.629999999999995 10.17 4.43000000000001 10.17 6.63 C 10.17 8.83000000000004 8.37 10.63 6.16999999999996 10.63 C 3.97000000000003 10.63 0.169999999999959 8.83000000000004 0.169999999999959 6.63 C 0.169999999999959 4.43000000000001 3.97000000000003 0.629999999999995 6.16999999999996 0.629999999999995 Z" mask="url(#clip2206)" transform="matrix(1 0 0 1 -387 -13697 ) matrix(1 0 0 1 388 13698 )"/><path fill="none" stroke="green" stroke-width="2" d="M 38.97 25.93 L 5.16999999999996 5.63" mask="url(#clip2206)" transform="matrix(1 0 0 1 -387 -13697 ) matrix(1 0 0 1 388 13698 )"/></g></svg>