<?xml version="1.0" encoding="utf-8"?>
<svg version="1.1" xmlns:xlink="http://www.w3.org/1999/xlink" width="37px" height="46px" xmlns="http://www.w3.org/2000/svg">
  <defs>
    <mask fill="white" id="clip982">
      <path d="M 36.33 36.76  C 36.33 36.76  1.43000000000006 45.46  1.43000000000006 45.46  C 0.730000000000018 42.66  0.330000000000041 39.76  0.330000000000041 36.76  C 0.330000000000041 17.46  17.0300000000001 0.759999999999991  36.33 0.759999999999991  C 36.33 0.759999999999991  36.33 36.76  36.33 36.76  Z " fill-rule="evenodd" />
    </mask>
  </defs>
  <g transform="matrix(1 0 0 1 -674 -16740 )">
    <path d="M 36.33 36.76  C 36.33 36.76  1.43000000000006 45.46  1.43000000000006 45.46  C 0.730000000000018 42.66  0.330000000000041 39.76  0.330000000000041 36.76  C 0.330000000000041 17.46  17.0300000000001 0.759999999999991  36.33 0.759999999999991  C 36.33 0.759999999999991  36.33 36.76  36.33 36.76  Z " fill-rule="nonzero" fill="#ee7c31" stroke="none" transform="matrix(1 0 0 1 674 16740 )" />
    <path d="M 36.33 36.76  C 36.33 36.76  1.43000000000006 45.46  1.43000000000006 45.46  C 0.730000000000018 42.66  0.330000000000041 39.76  0.330000000000041 36.76  C 0.330000000000041 17.46  17.0300000000001 0.759999999999991  36.33 0.759999999999991  C 36.33 0.759999999999991  36.33 36.76  36.33 36.76  Z " stroke-width="2" stroke="#ee7c31" fill="none" transform="matrix(1 0 0 1 674 16740 )" mask="url(#clip982)" />
  </g>
</svg>