<svg xmlns="http://www.w3.org/2000/svg" xmlns:xlink="http://www.w3.org/1999/xlink" width="43" height="29" version="1.1"><defs><mask id="clip2201" fill="#fff"><path fill-rule="evenodd" d="M 6.97000000000003 15.93 C 9.16999999999996 15.93 10.97 19.73 10.97 21.93 C 10.97 24.13 9.16999999999996 25.93 6.97000000000003 25.93 C 4.76999999999998 25.93 0.970000000000027 24.13 0.970000000000027 21.93 C 0.970000000000027 19.73 4.76999999999998 15.93 6.97000000000003 15.93 Z"/></mask></defs><g><path fill="#fff" fill-opacity="0" fill-rule="nonzero" stroke="none" d="M 6.97000000000003 15.93 C 9.16999999999996 15.93 10.97 19.73 10.97 21.93 C 10.97 24.13 9.16999999999996 25.93 6.97000000000003 25.93 C 4.76999999999998 25.93 0.970000000000027 24.13 0.970000000000027 21.93 C 0.970000000000027 19.73 4.76999999999998 15.93 6.97000000000003 15.93 Z" transform="matrix(1 0 0 1 -420 -13702 ) matrix(1 0 0 1 421 13703 )"/><path fill="none" stroke="green" stroke-width="4" d="M 6.97000000000003 15.93 C 9.16999999999996 15.93 10.97 19.73 10.97 21.93 C 10.97 24.13 9.16999999999996 25.93 6.97000000000003 25.93 C 4.76999999999998 25.93 0.970000000000027 24.13 0.970000000000027 21.93 C 0.970000000000027 19.73 4.76999999999998 15.93 6.97000000000003 15.93 Z" mask="url(#clip2201)" transform="matrix(1 0 0 1 -420 -13702 ) matrix(1 0 0 1 421 13703 )"/><path fill="none" stroke="green" stroke-width="2" d="M 39.77 0.629999999999995 L 5.97000000000003 20.93" mask="url(#clip2201)" transform="matrix(1 0 0 1 -420 -13702 ) matrix(1 0 0 1 421 13703 )"/></g></svg>