<svg xmlns="http://www.w3.org/2000/svg" xmlns:xlink="http://www.w3.org/1999/xlink" width="150" height="30" version="1.1"><defs><mask id="clip2225" fill="#fff"><path fill-rule="evenodd" d="M 0.539999999999964 29.29 C 0.539999999999964 29.29 0.539999999999964 0.0900000000000318 0.539999999999964 0.0900000000000318 C 0.539999999999964 0.0900000000000318 149.94 0.0900000000000318 149.94 0.0900000000000318 C 149.94 0.0900000000000318 149.94 29.29 149.94 29.29 C 149.94 29.29 0.539999999999964 29.29 0.539999999999964 29.29 Z"/></mask></defs><g><path fill="#f6fafc" fill-rule="nonzero" stroke="none" d="M 0.539999999999964 29.29 C 0.539999999999964 29.29 0.539999999999964 0.0900000000000318 0.539999999999964 0.0900000000000318 C 0.539999999999964 0.0900000000000318 149.94 0.0900000000000318 149.94 0.0900000000000318 C 149.94 0.0900000000000318 149.94 29.29 149.94 29.29 C 149.94 29.29 0.539999999999964 29.29 0.539999999999964 29.29 Z" transform="matrix(1 0 0 1 -861 -13853 ) matrix(1 0 0 1 861 13853 )"/><path fill="none" stroke="#fff" stroke-width="2" d="M 0.539999999999964 29.29 C 0.539999999999964 29.29 0.539999999999964 0.0900000000000318 0.539999999999964 0.0900000000000318 C 0.539999999999964 0.0900000000000318 149.94 0.0900000000000318 149.94 0.0900000000000318 C 149.94 0.0900000000000318 149.94 29.29 149.94 29.29 C 149.94 29.29 0.539999999999964 29.29 0.539999999999964 29.29 Z" mask="url(#clip2225)" transform="matrix(1 0 0 1 -861 -13853 ) matrix(1 0 0 1 861 13853 )"/></g></svg>