<svg xmlns="http://www.w3.org/2000/svg" xmlns:xlink="http://www.w3.org/1999/xlink" width="151" height="31" version="1.1"><defs><mask id="clip2223" fill="#fff"><path fill-rule="evenodd" d="M 0.939999999999941 30.09 C 0.939999999999941 30.09 0.939999999999941 0.789999999999964 0.939999999999941 0.789999999999964 C 0.939999999999941 0.789999999999964 150.44 0.789999999999964 150.44 0.789999999999964 C 150.44 0.789999999999964 150.44 30.09 150.44 30.09 C 150.44 30.09 0.939999999999941 30.09 0.939999999999941 30.09 Z"/></mask></defs><g><path fill="#cfebf6" fill-rule="nonzero" stroke="none" d="M 0.939999999999941 30.09 C 0.939999999999941 30.09 0.939999999999941 0.789999999999964 0.939999999999941 0.789999999999964 C 0.939999999999941 0.789999999999964 150.44 0.789999999999964 150.44 0.789999999999964 C 150.44 0.789999999999964 150.44 30.09 150.44 30.09 C 150.44 30.09 0.939999999999941 30.09 0.939999999999941 30.09 Z" transform="matrix(1 0 0 1 -1009 -13824 ) matrix(1 0 0 1 1009 13824 )"/><path fill="none" stroke="#fff" stroke-width="2" d="M 0.939999999999941 30.09 C 0.939999999999941 30.09 0.939999999999941 0.789999999999964 0.939999999999941 0.789999999999964 C 0.939999999999941 0.789999999999964 150.44 0.789999999999964 150.44 0.789999999999964 C 150.44 0.789999999999964 150.44 30.09 150.44 30.09 C 150.44 30.09 0.939999999999941 30.09 0.939999999999941 30.09 Z" mask="url(#clip2223)" transform="matrix(1 0 0 1 -1009 -13824 ) matrix(1 0 0 1 1009 13824 )"/></g></svg>