<svg xmlns="http://www.w3.org/2000/svg" xmlns:xlink="http://www.w3.org/1999/xlink" width="150" height="30" version="1.1"><defs><mask id="clip2208" fill="#fff"><path fill-rule="evenodd" d="M 0.539999999999964 29.59 C 0.539999999999964 29.59 0.539999999999964 0.389999999999986 0.539999999999964 0.389999999999986 C 0.539999999999964 0.389999999999986 149.94 0.389999999999986 149.94 0.389999999999986 C 149.94 0.389999999999986 149.94 29.59 149.94 29.59 C 149.94 29.59 0.539999999999964 29.59 0.539999999999964 29.59 Z"/></mask></defs><g><path fill="#cfebf6" fill-rule="nonzero" stroke="none" d="M 0.539999999999964 29.59 C 0.539999999999964 29.59 0.539999999999964 0.389999999999986 0.539999999999964 0.389999999999986 C 0.539999999999964 0.389999999999986 149.94 0.389999999999986 149.94 0.389999999999986 C 149.94 0.389999999999986 149.94 29.59 149.94 29.59 C 149.94 29.59 0.539999999999964 29.59 0.539999999999964 29.59 Z" transform="matrix(1 0 0 1 -861 -13655 ) matrix(1 0 0 1 861 13655 )"/><path fill="none" stroke="#fff" stroke-width="2" d="M 0.539999999999964 29.59 C 0.539999999999964 29.59 0.539999999999964 0.389999999999986 0.539999999999964 0.389999999999986 C 0.539999999999964 0.389999999999986 149.94 0.389999999999986 149.94 0.389999999999986 C 149.94 0.389999999999986 149.94 29.59 149.94 29.59 C 149.94 29.59 0.539999999999964 29.59 0.539999999999964 29.59 Z" mask="url(#clip2208)" transform="matrix(1 0 0 1 -861 -13655 ) matrix(1 0 0 1 861 13655 )"/></g></svg>