<svg xmlns="http://www.w3.org/2000/svg" xmlns:xlink="http://www.w3.org/1999/xlink" width="14" height="60" version="1.1"><defs><mask id="clip2188" fill="#fff"><path fill-rule="evenodd" d="M 6.17000000000002 0.329999999999984 C 8.37 0.329999999999984 10.17 4.13 10.17 6.32999999999998 C 10.17 8.52999999999997 8.37 10.33 6.17000000000002 10.33 C 3.97 10.33 0.170000000000016 8.52999999999997 0.170000000000016 6.32999999999998 C 0.170000000000016 4.13 3.97 0.329999999999984 6.17000000000002 0.329999999999984 Z"/></mask></defs><g><path fill="#fff" fill-opacity="0" fill-rule="nonzero" stroke="none" d="M 6.17000000000002 0.329999999999984 C 8.37 0.329999999999984 10.17 4.13 10.17 6.32999999999998 C 10.17 8.52999999999997 8.37 10.33 6.17000000000002 10.33 C 3.97 10.33 0.170000000000016 8.52999999999997 0.170000000000016 6.32999999999998 C 0.170000000000016 4.13 3.97 0.329999999999984 6.17000000000002 0.329999999999984 Z" transform="matrix(1 0 0 1 -333 -13588 ) matrix(1 0 0 1 334 13589 )"/><path fill="none" stroke="brown" stroke-width="4" d="M 6.17000000000002 0.329999999999984 C 8.37 0.329999999999984 10.17 4.13 10.17 6.32999999999998 C 10.17 8.52999999999997 8.37 10.33 6.17000000000002 10.33 C 3.97 10.33 0.170000000000016 8.52999999999997 0.170000000000016 6.32999999999998 C 0.170000000000016 4.13 3.97 0.329999999999984 6.17000000000002 0.329999999999984 Z" mask="url(#clip2188)" transform="matrix(1 0 0 1 -333 -13588 ) matrix(1 0 0 1 334 13589 )"/><path fill="none" stroke="brown" stroke-width="2" d="M 2.87 56.03 L 5.17000000000002 5.32999999999998" mask="url(#clip2188)" transform="matrix(1 0 0 1 -333 -13588 ) matrix(1 0 0 1 334 13589 )"/></g></svg>