<svg xmlns="http://www.w3.org/2000/svg" xmlns:xlink="http://www.w3.org/1999/xlink" width="150" height="31" version="1.1"><defs><mask id="clip2199" fill="#fff"><path fill-rule="evenodd" d="M 0.539999999999964 30.09 C 0.539999999999964 30.09 0.539999999999964 0.889999999999986 0.539999999999964 0.889999999999986 C 0.539999999999964 0.889999999999986 149.94 0.889999999999986 149.94 0.889999999999986 C 149.94 0.889999999999986 149.94 30.09 149.94 30.09 C 149.94 30.09 0.539999999999964 30.09 0.539999999999964 30.09 Z"/></mask></defs><g><path fill="#cfebf6" fill-rule="nonzero" stroke="none" d="M 0.539999999999964 30.09 C 0.539999999999964 30.09 0.539999999999964 0.889999999999986 0.539999999999964 0.889999999999986 C 0.539999999999964 0.889999999999986 149.94 0.889999999999986 149.94 0.889999999999986 C 149.94 0.889999999999986 149.94 30.09 149.94 30.09 C 149.94 30.09 0.539999999999964 30.09 0.539999999999964 30.09 Z" transform="matrix(1 0 0 1 -861 -13598 ) matrix(1 0 0 1 861 13598 )"/><path fill="none" stroke="#fff" stroke-width="2" d="M 0.539999999999964 30.09 C 0.539999999999964 30.09 0.539999999999964 0.889999999999986 0.539999999999964 0.889999999999986 C 0.539999999999964 0.889999999999986 149.94 0.889999999999986 149.94 0.889999999999986 C 149.94 0.889999999999986 149.94 30.09 149.94 30.09 C 149.94 30.09 0.539999999999964 30.09 0.539999999999964 30.09 Z" mask="url(#clip2199)" transform="matrix(1 0 0 1 -861 -13598 ) matrix(1 0 0 1 861 13598 )"/></g></svg>