<svg xmlns="http://www.w3.org/2000/svg" xmlns:xlink="http://www.w3.org/1999/xlink" width="116" height="30" version="1.1"><defs><mask id="clip2234" fill="#fff"><path fill-rule="evenodd" d="M 0.0399999999999636 29.29 C 0.0399999999999636 29.29 0.0399999999999636 0.0900000000000318 0.0399999999999636 0.0900000000000318 C 0.0399999999999636 0.0900000000000318 115.54 0.0900000000000318 115.54 0.0900000000000318 C 115.54 0.0900000000000318 115.54 29.29 115.54 29.29 C 115.54 29.29 0.0399999999999636 29.29 0.0399999999999636 29.29 Z"/></mask></defs><g><path fill="#f6fafc" fill-rule="nonzero" stroke="none" d="M 0.0399999999999636 29.29 C 0.0399999999999636 29.29 0.0399999999999636 0.0900000000000318 0.0399999999999636 0.0900000000000318 C 0.0399999999999636 0.0900000000000318 115.54 0.0900000000000318 115.54 0.0900000000000318 C 115.54 0.0900000000000318 115.54 29.29 115.54 29.29 C 115.54 29.29 0.0399999999999636 29.29 0.0399999999999636 29.29 Z" transform="matrix(1 0 0 1 -747 -13853 ) matrix(1 0 0 1 747 13853 )"/><path fill="none" stroke="#fff" stroke-width="2" d="M 0.0399999999999636 29.29 C 0.0399999999999636 29.29 0.0399999999999636 0.0900000000000318 0.0399999999999636 0.0900000000000318 C 0.0399999999999636 0.0900000000000318 115.54 0.0900000000000318 115.54 0.0900000000000318 C 115.54 0.0900000000000318 115.54 29.29 115.54 29.29 C 115.54 29.29 0.0399999999999636 29.29 0.0399999999999636 29.29 Z" mask="url(#clip2234)" transform="matrix(1 0 0 1 -747 -13853 ) matrix(1 0 0 1 747 13853 )"/></g></svg>