<svg xmlns="http://www.w3.org/2000/svg" xmlns:xlink="http://www.w3.org/1999/xlink" width="21" height="36" version="1.1"><defs><mask id="clip2217" fill="#fff"><path fill-rule="evenodd" d="M 13.17 0.0299999999999727 C 15.37 0.0299999999999727 17.17 3.83000000000004 17.17 6.02999999999997 C 17.17 8.23000000000002 15.37 10.03 13.17 10.03 C 10.97 10.03 7.17000000000002 8.23000000000002 7.17000000000002 6.02999999999997 C 7.17000000000002 3.83000000000004 10.97 0.0299999999999727 13.17 0.0299999999999727 Z"/></mask></defs><g><path fill="#fff" fill-opacity="0" fill-rule="nonzero" stroke="none" d="M 13.17 0.0299999999999727 C 15.37 0.0299999999999727 17.17 3.83000000000004 17.17 6.02999999999997 C 17.17 8.23000000000002 15.37 10.03 13.17 10.03 C 10.97 10.03 7.17000000000002 8.23000000000002 7.17000000000002 6.02999999999997 C 7.17000000000002 3.83000000000004 10.97 0.0299999999999727 13.17 0.0299999999999727 Z" transform="matrix(1 0 0 1 -367 -13612 ) matrix(1 0 0 1 368 13613 )"/><path fill="none" stroke="green" stroke-width="4" d="M 13.17 0.0299999999999727 C 15.37 0.0299999999999727 17.17 3.83000000000004 17.17 6.02999999999997 C 17.17 8.23000000000002 15.37 10.03 13.17 10.03 C 10.97 10.03 7.17000000000002 8.23000000000002 7.17000000000002 6.02999999999997 C 7.17000000000002 3.83000000000004 10.97 0.0299999999999727 13.17 0.0299999999999727 Z" mask="url(#clip2217)" transform="matrix(1 0 0 1 -367 -13612 ) matrix(1 0 0 1 368 13613 )"/><path fill="none" stroke="green" stroke-width="2" d="M 0.370000000000005 32.03 L 12.17 5.02999999999997" mask="url(#clip2217)" transform="matrix(1 0 0 1 -367 -13612 ) matrix(1 0 0 1 368 13613 )"/></g></svg>