<svg xmlns="http://www.w3.org/2000/svg" xmlns:xlink="http://www.w3.org/1999/xlink" width="28" height="29" version="1.1"><defs><mask id="clip2220" fill="#fff"><path fill-rule="evenodd" d="M 20.97 0.230000000000018 C 23.17 0.230000000000018 24.97 4.02999999999997 24.97 6.23000000000002 C 24.97 8.43000000000001 23.17 10.23 20.97 10.23 C 18.77 10.23 14.97 8.43000000000001 14.97 6.23000000000002 C 14.97 4.02999999999997 18.77 0.230000000000018 20.97 0.230000000000018 Z"/></mask></defs><g><path fill="#fff" fill-opacity="0" fill-rule="nonzero" stroke="none" d="M 20.97 0.230000000000018 C 23.17 0.230000000000018 24.97 4.02999999999997 24.97 6.23000000000002 C 24.97 8.43000000000001 23.17 10.23 20.97 10.23 C 18.77 10.23 14.97 8.43000000000001 14.97 6.23000000000002 C 14.97 4.02999999999997 18.77 0.230000000000018 20.97 0.230000000000018 Z" transform="matrix(1 0 0 1 -379 -13592 ) matrix(1 0 0 1 380 13593 )"/><path fill="none" stroke="green" stroke-width="4" d="M 20.97 0.230000000000018 C 23.17 0.230000000000018 24.97 4.02999999999997 24.97 6.23000000000002 C 24.97 8.43000000000001 23.17 10.23 20.97 10.23 C 18.77 10.23 14.97 8.43000000000001 14.97 6.23000000000002 C 14.97 4.02999999999997 18.77 0.230000000000018 20.97 0.230000000000018 Z" mask="url(#clip2220)" transform="matrix(1 0 0 1 -379 -13592 ) matrix(1 0 0 1 380 13593 )"/><path fill="none" stroke="green" stroke-width="2" d="M 0.170000000000016 25.03 L 19.97 5.23000000000002" mask="url(#clip2220)" transform="matrix(1 0 0 1 -379 -13592 ) matrix(1 0 0 1 380 13593 )"/></g></svg>