<svg xmlns="http://www.w3.org/2000/svg" xmlns:xlink="http://www.w3.org/1999/xlink" width="29" height="14" version="1.1"><defs><mask id="clip2226" fill="#fff"><path fill-rule="evenodd" d="M 12.17 0.790000000000077 C 14.27 0.790000000000077 17.97 4.49000000000001 17.97 6.59000000000003 C 17.97 8.69000000000005 14.27 10.39 12.17 10.39 C 10.17 10.39 8.47000000000003 8.69000000000005 8.47000000000003 6.59000000000003 C 8.47000000000003 4.49000000000001 10.17 0.790000000000077 12.17 0.790000000000077 Z"/></mask></defs><g><path fill="#fff" fill-opacity="0" fill-rule="nonzero" stroke="none" d="M 12.17 0.790000000000077 C 14.27 0.790000000000077 17.97 4.49000000000001 17.97 6.59000000000003 C 17.97 8.69000000000005 14.27 10.39 12.17 10.39 C 10.17 10.39 8.47000000000003 8.69000000000005 8.47000000000003 6.59000000000003 C 8.47000000000003 4.49000000000001 10.17 0.790000000000077 12.17 0.790000000000077 Z" transform="matrix(1 0 0 1 -338 -13885 ) matrix(1 0 0 1 339 13886 )"/><path fill="none" stroke="brown" stroke-width="4" d="M 12.17 0.790000000000077 C 14.27 0.790000000000077 17.97 4.49000000000001 17.97 6.59000000000003 C 17.97 8.69000000000005 14.27 10.39 12.17 10.39 C 10.17 10.39 8.47000000000003 8.69000000000005 8.47000000000003 6.59000000000003 C 8.47000000000003 4.49000000000001 10.17 0.790000000000077 12.17 0.790000000000077 Z" mask="url(#clip2226)" transform="matrix(1 0 0 1 -338 -13885 ) matrix(1 0 0 1 339 13886 )"/><path fill="none" stroke="brown" stroke-width="2" d="M 0.870000000000005 5.59000000000003 L 25.57 5.59000000000003" mask="url(#clip2226)" transform="matrix(1 0 0 1 -338 -13885 ) matrix(1 0 0 1 339 13886 )"/></g></svg>