<svg xmlns="http://www.w3.org/2000/svg" xmlns:xlink="http://www.w3.org/1999/xlink" width="116" height="31" version="1.1"><defs><mask id="clip2213" fill="#fff"><path fill-rule="evenodd" d="M 0.0399999999999636 30.09 C 0.0399999999999636 30.09 0.0399999999999636 0.889999999999986 0.0399999999999636 0.889999999999986 C 0.0399999999999636 0.889999999999986 115.54 0.889999999999986 115.54 0.889999999999986 C 115.54 0.889999999999986 115.54 30.09 115.54 30.09 C 115.54 30.09 0.0399999999999636 30.09 0.0399999999999636 30.09 Z"/></mask></defs><g><path fill="#cfebf6" fill-rule="nonzero" stroke="none" d="M 0.0399999999999636 30.09 C 0.0399999999999636 30.09 0.0399999999999636 0.889999999999986 0.0399999999999636 0.889999999999986 C 0.0399999999999636 0.889999999999986 115.54 0.889999999999986 115.54 0.889999999999986 C 115.54 0.889999999999986 115.54 30.09 115.54 30.09 C 115.54 30.09 0.0399999999999636 30.09 0.0399999999999636 30.09 Z" transform="matrix(1 0 0 1 -747 -13598 ) matrix(1 0 0 1 747 13598 )"/><path fill="none" stroke="#fff" stroke-width="2" d="M 0.0399999999999636 30.09 C 0.0399999999999636 30.09 0.0399999999999636 0.889999999999986 0.0399999999999636 0.889999999999986 C 0.0399999999999636 0.889999999999986 115.54 0.889999999999986 115.54 0.889999999999986 C 115.54 0.889999999999986 115.54 30.09 115.54 30.09 C 115.54 30.09 0.0399999999999636 30.09 0.0399999999999636 30.09 Z" mask="url(#clip2213)" transform="matrix(1 0 0 1 -747 -13598 ) matrix(1 0 0 1 747 13598 )"/></g></svg>