<svg xmlns="http://www.w3.org/2000/svg" xmlns:xlink="http://www.w3.org/1999/xlink" width="150" height="30" version="1.1"><defs><mask id="clip2203" fill="#fff"><path fill-rule="evenodd" d="M 0.539999999999964 29.39 C 0.539999999999964 29.39 0.539999999999964 0.0900000000000318 0.539999999999964 0.0900000000000318 C 0.539999999999964 0.0900000000000318 149.94 0.0900000000000318 149.94 0.0900000000000318 C 149.94 0.0900000000000318 149.94 29.39 149.94 29.39 C 149.94 29.39 0.539999999999964 29.39 0.539999999999964 29.39 Z"/></mask></defs><g><path fill="#f6fafc" fill-rule="nonzero" stroke="none" d="M 0.539999999999964 29.39 C 0.539999999999964 29.39 0.539999999999964 0.0900000000000318 0.539999999999964 0.0900000000000318 C 0.539999999999964 0.0900000000000318 149.94 0.0900000000000318 149.94 0.0900000000000318 C 149.94 0.0900000000000318 149.94 29.39 149.94 29.39 C 149.94 29.39 0.539999999999964 29.39 0.539999999999964 29.39 Z" transform="matrix(1 0 0 1 -861 -13627 ) matrix(1 0 0 1 861 13627 )"/><path fill="none" stroke="#fff" stroke-width="2" d="M 0.539999999999964 29.39 C 0.539999999999964 29.39 0.539999999999964 0.0900000000000318 0.539999999999964 0.0900000000000318 C 0.539999999999964 0.0900000000000318 149.94 0.0900000000000318 149.94 0.0900000000000318 C 149.94 0.0900000000000318 149.94 29.39 149.94 29.39 C 149.94 29.39 0.539999999999964 29.39 0.539999999999964 29.39 Z" mask="url(#clip2203)" transform="matrix(1 0 0 1 -861 -13627 ) matrix(1 0 0 1 861 13627 )"/></g></svg>