<svg xmlns="http://www.w3.org/2000/svg" xmlns:xlink="http://www.w3.org/1999/xlink" width="151" height="30" version="1.1"><defs><mask id="clip2209" fill="#fff"><path fill-rule="evenodd" d="M 0.939999999999941 29.59 C 0.939999999999941 29.59 0.939999999999941 0.389999999999986 0.939999999999941 0.389999999999986 C 0.939999999999941 0.389999999999986 150.44 0.389999999999986 150.44 0.389999999999986 C 150.44 0.389999999999986 150.44 29.59 150.44 29.59 C 150.44 29.59 0.939999999999941 29.59 0.939999999999941 29.59 Z"/></mask></defs><g><path fill="#cfebf6" fill-rule="nonzero" stroke="none" d="M 0.939999999999941 29.59 C 0.939999999999941 29.59 0.939999999999941 0.389999999999986 0.939999999999941 0.389999999999986 C 0.939999999999941 0.389999999999986 150.44 0.389999999999986 150.44 0.389999999999986 C 150.44 0.389999999999986 150.44 29.59 150.44 29.59 C 150.44 29.59 0.939999999999941 29.59 0.939999999999941 29.59 Z" transform="matrix(1 0 0 1 -1009 -13655 ) matrix(1 0 0 1 1009 13655 )"/><path fill="none" stroke="#fff" stroke-width="2" d="M 0.939999999999941 29.59 C 0.939999999999941 29.59 0.939999999999941 0.389999999999986 0.939999999999941 0.389999999999986 C 0.939999999999941 0.389999999999986 150.44 0.389999999999986 150.44 0.389999999999986 C 150.44 0.389999999999986 150.44 29.59 150.44 29.59 C 150.44 29.59 0.939999999999941 29.59 0.939999999999941 29.59 Z" mask="url(#clip2209)" transform="matrix(1 0 0 1 -1009 -13655 ) matrix(1 0 0 1 1009 13655 )"/></g></svg>