<svg xmlns="http://www.w3.org/2000/svg" xmlns:xlink="http://www.w3.org/1999/xlink" width="49" height="21" version="1.1"><defs><mask id="clip2191" fill="#fff"><path fill-rule="evenodd" d="M 41.47 0.730000000000018 C 43.67 0.730000000000018 45.47 4.52999999999997 45.47 6.73000000000002 C 45.47 8.93000000000001 43.67 10.73 41.47 10.73 C 39.27 10.73 35.47 8.93000000000001 35.47 6.73000000000002 C 35.47 4.52999999999997 39.27 0.730000000000018 41.47 0.730000000000018 Z"/></mask></defs><g><path fill="#fff" fill-opacity="0" fill-rule="nonzero" stroke="none" d="M 41.47 0.730000000000018 C 43.67 0.730000000000018 45.47 4.52999999999997 45.47 6.73000000000002 C 45.47 8.93000000000001 43.67 10.73 41.47 10.73 C 39.27 10.73 35.47 8.93000000000001 35.47 6.73000000000002 C 35.47 4.52999999999997 39.27 0.730000000000018 41.47 0.730000000000018 Z" transform="matrix(1 0 0 1 -425 -13570 ) matrix(1 0 0 1 426 13571 )"/><path fill="none" stroke="green" stroke-width="4" d="M 41.47 0.730000000000018 C 43.67 0.730000000000018 45.47 4.52999999999997 45.47 6.73000000000002 C 45.47 8.93000000000001 43.67 10.73 41.47 10.73 C 39.27 10.73 35.47 8.93000000000001 35.47 6.73000000000002 C 35.47 4.52999999999997 39.27 0.730000000000018 41.47 0.730000000000018 Z" mask="url(#clip2191)" transform="matrix(1 0 0 1 -425 -13570 ) matrix(1 0 0 1 426 13571 )"/><path fill="none" stroke="green" stroke-width="2" d="M 0.970000000000027 17.73 L 40.47 5.73000000000002" mask="url(#clip2191)" transform="matrix(1 0 0 1 -425 -13570 ) matrix(1 0 0 1 426 13571 )"/></g></svg>