<svg xmlns="http://www.w3.org/2000/svg" xmlns:xlink="http://www.w3.org/1999/xlink" width="49" height="43" version="1.1"><defs><mask id="clip2186" fill="#fff"><path fill-rule="evenodd" d="M 6.17000000000002 0.930000000000007 C 8.47000000000003 0.930000000000007 10.17 4.73000000000002 10.17 6.93000000000001 C 10.17 9.13 8.47000000000003 10.93 6.17000000000002 10.93 C 3.97 10.93 0.170000000000016 9.13 0.170000000000016 6.93000000000001 C 0.170000000000016 4.73000000000002 3.97 0.930000000000007 6.17000000000002 0.930000000000007 Z"/></mask></defs><g><path fill="#fff" fill-opacity="0" fill-rule="nonzero" stroke="none" d="M 6.17000000000002 0.930000000000007 C 8.47000000000003 0.930000000000007 10.17 4.73000000000002 10.17 6.93000000000001 C 10.17 9.13 8.47000000000003 10.93 6.17000000000002 10.93 C 3.97 10.93 0.170000000000016 9.13 0.170000000000016 6.93000000000001 C 0.170000000000016 4.73000000000002 3.97 0.930000000000007 6.17000000000002 0.930000000000007 Z" transform="matrix(1 0 0 1 -331 -13690 ) matrix(1 0 0 1 332 13691 )"/><path fill="none" stroke="brown" stroke-width="4" d="M 6.17000000000002 0.930000000000007 C 8.47000000000003 0.930000000000007 10.17 4.73000000000002 10.17 6.93000000000001 C 10.17 9.13 8.47000000000003 10.93 6.17000000000002 10.93 C 3.97 10.93 0.170000000000016 9.13 0.170000000000016 6.93000000000001 C 0.170000000000016 4.73000000000002 3.97 0.930000000000007 6.17000000000002 0.930000000000007 Z" mask="url(#clip2186)" transform="matrix(1 0 0 1 -331 -13690 ) matrix(1 0 0 1 332 13691 )"/><path fill="none" stroke="brown" stroke-width="2" d="M 45.37 39.93 L 5.17000000000002 5.93000000000001" mask="url(#clip2186)" transform="matrix(1 0 0 1 -331 -13690 ) matrix(1 0 0 1 332 13691 )"/></g></svg>