<svg xmlns="http://www.w3.org/2000/svg" xmlns:xlink="http://www.w3.org/1999/xlink" width="35" height="66" version="1.1"><defs><mask id="clip2189" fill="#fff"><path fill-rule="evenodd" d="M 27.07 0.730000000000018 C 29.27 0.730000000000018 31.07 4.53 31.07 6.73000000000002 C 31.07 8.93000000000001 29.27 10.73 27.07 10.73 C 24.77 10.73 21.07 8.93000000000001 21.07 6.73000000000002 C 21.07 4.53 24.77 0.730000000000018 27.07 0.730000000000018 Z"/></mask></defs><g><path fill="#fff" fill-opacity="0" fill-rule="nonzero" stroke="none" d="M 27.07 0.730000000000018 C 29.27 0.730000000000018 31.07 4.53 31.07 6.73000000000002 C 31.07 8.93000000000001 29.27 10.73 27.07 10.73 C 24.77 10.73 21.07 8.93000000000001 21.07 6.73000000000002 C 21.07 4.53 24.77 0.730000000000018 27.07 0.730000000000018 Z" transform="matrix(1 0 0 1 -338 -13531 ) matrix(1 0 0 1 339 13532 )"/><path fill="none" stroke="brown" stroke-width="4" d="M 27.07 0.730000000000018 C 29.27 0.730000000000018 31.07 4.53 31.07 6.73000000000002 C 31.07 8.93000000000001 29.27 10.73 27.07 10.73 C 24.77 10.73 21.07 8.93000000000001 21.07 6.73000000000002 C 21.07 4.53 24.77 0.730000000000018 27.07 0.730000000000018 Z" mask="url(#clip2189)" transform="matrix(1 0 0 1 -338 -13531 ) matrix(1 0 0 1 339 13532 )"/><path fill="none" stroke="brown" stroke-width="2" d="M 0.170000000000016 62.33 L 26.07 5.73000000000002" mask="url(#clip2189)" transform="matrix(1 0 0 1 -338 -13531 ) matrix(1 0 0 1 339 13532 )"/></g></svg>