<svg xmlns="http://www.w3.org/2000/svg" xmlns:xlink="http://www.w3.org/1999/xlink" width="116" height="30" version="1.1"><defs><mask id="clip2207" fill="#fff"><path fill-rule="evenodd" d="M 0.0399999999999636 29.89 C 0.0399999999999636 29.89 0.0399999999999636 0.689999999999998 0.0399999999999636 0.689999999999998 C 0.0399999999999636 0.689999999999998 115.54 0.689999999999998 115.54 0.689999999999998 C 115.54 0.689999999999998 115.54 29.89 115.54 29.89 C 115.54 29.89 0.0399999999999636 29.89 0.0399999999999636 29.89 Z"/></mask></defs><g><path fill="#f6fafc" fill-rule="nonzero" stroke="none" d="M 0.0399999999999636 29.89 C 0.0399999999999636 29.89 0.0399999999999636 0.689999999999998 0.0399999999999636 0.689999999999998 C 0.0399999999999636 0.689999999999998 115.54 0.689999999999998 115.54 0.689999999999998 C 115.54 0.689999999999998 115.54 29.89 115.54 29.89 C 115.54 29.89 0.0399999999999636 29.89 0.0399999999999636 29.89 Z" transform="matrix(1 0 0 1 -747 -13570 ) matrix(1 0 0 1 747 13570 )"/><path fill="none" stroke="#fff" stroke-width="2" d="M 0.0399999999999636 29.89 C 0.0399999999999636 29.89 0.0399999999999636 0.689999999999998 0.0399999999999636 0.689999999999998 C 0.0399999999999636 0.689999999999998 115.54 0.689999999999998 115.54 0.689999999999998 C 115.54 0.689999999999998 115.54 29.89 115.54 29.89 C 115.54 29.89 0.0399999999999636 29.89 0.0399999999999636 29.89 Z" mask="url(#clip2207)" transform="matrix(1 0 0 1 -747 -13570 ) matrix(1 0 0 1 747 13570 )"/></g></svg>