<svg xmlns="http://www.w3.org/2000/svg" xmlns:xlink="http://www.w3.org/1999/xlink" width="67" height="21" version="1.1"><defs><mask id="clip2192" fill="#fff"><path fill-rule="evenodd" d="M 59.5700000000001 7.73000000000002 C 61.77 7.73000000000002 63.5700000000001 11.53 63.5700000000001 13.73 C 63.5700000000001 15.93 61.77 17.73 59.5700000000001 17.73 C 57.37 17.73 53.5700000000001 15.93 53.5700000000001 13.73 C 53.5700000000001 11.53 57.37 7.73000000000002 59.5700000000001 7.73000000000002 Z"/></mask></defs><g><path fill="#fff" fill-opacity="0" fill-rule="nonzero" stroke="none" d="M 59.5700000000001 7.73000000000002 C 61.77 7.73000000000002 63.5700000000001 11.53 63.5700000000001 13.73 C 63.5700000000001 15.93 61.77 17.73 59.5700000000001 17.73 C 57.37 17.73 53.5700000000001 15.93 53.5700000000001 13.73 C 53.5700000000001 11.53 57.37 7.73000000000002 59.5700000000001 7.73000000000002 Z" transform="matrix(1 0 0 1 -465 -13575 ) matrix(1 0 0 1 466 13576 )"/><path fill="none" stroke="green" stroke-width="4" d="M 59.5700000000001 7.73000000000002 C 61.77 7.73000000000002 63.5700000000001 11.53 63.5700000000001 13.73 C 63.5700000000001 15.93 61.77 17.73 59.5700000000001 17.73 C 57.37 17.73 53.5700000000001 15.93 53.5700000000001 13.73 C 53.5700000000001 11.53 57.37 7.73000000000002 59.5700000000001 7.73000000000002 Z" mask="url(#clip2192)" transform="matrix(1 0 0 1 -465 -13575 ) matrix(1 0 0 1 466 13576 )"/><path fill="none" stroke="green" stroke-width="2" d="M 0.470000000000027 0.730000000000018 L 58.5700000000001 12.73" mask="url(#clip2192)" transform="matrix(1 0 0 1 -465 -13575 ) matrix(1 0 0 1 466 13576 )"/></g></svg>