<?xml version="1.0" encoding="utf-8"?>
<svg version="1.1" xmlns:xlink="http://www.w3.org/1999/xlink" width="49px" height="43px" xmlns="http://www.w3.org/2000/svg">
  <defs>
    <mask fill="white" id="clip2186">
      <path d="M 6.17000000000002 0.930000000000007  C 8.47000000000003 0.930000000000007  10.17 4.73000000000002  10.17 6.93000000000001  C 10.17 9.13  8.47000000000003 10.93  6.17000000000002 10.93  C 3.97 10.93  0.170000000000016 9.13  0.170000000000016 6.93000000000001  C 0.170000000000016 4.73000000000002  3.97 0.930000000000007  6.17000000000002 0.930000000000007  Z " fill-rule="evenodd" />
    </mask>
  </defs>
  <g transform="matrix(1 0 0 1 -331 -13690 )">
    <path d="M 6.17000000000002 0.930000000000007  C 8.47000000000003 0.930000000000007  10.17 4.73000000000002  10.17 6.93000000000001  C 10.17 9.13  8.47000000000003 10.93  6.17000000000002 10.93  C 3.97 10.93  0.170000000000016 9.13  0.170000000000016 6.93000000000001  C 0.170000000000016 4.73000000000002  3.97 0.930000000000007  6.17000000000002 0.930000000000007  Z " fill-rule="nonzero" fill="#ffffff" stroke="none" fill-opacity="0" transform="matrix(1 0 0 1 332 13691 )" />
    <path d="M 6.17000000000002 0.930000000000007  C 8.47000000000003 0.930000000000007  10.17 4.73000000000002  10.17 6.93000000000001  C 10.17 9.13  8.47000000000003 10.93  6.17000000000002 10.93  C 3.97 10.93  0.170000000000016 9.13  0.170000000000016 6.93000000000001  C 0.170000000000016 4.73000000000002  3.97 0.930000000000007  6.17000000000002 0.930000000000007  Z " stroke-width="4" stroke="#a52a2a" fill="none" transform="matrix(1 0 0 1 332 13691 )" mask="url(#clip2186)" />
    <path d="M 45.37 39.93  L 5.17000000000002 5.93000000000001  " stroke-width="2" stroke="#a52a2a" fill="none" transform="matrix(1 0 0 1 332 13691 )" mask="url(#clip2186)" />
  </g>
</svg>