<svg xmlns="http://www.w3.org/2000/svg" xmlns:xlink="http://www.w3.org/1999/xlink" width="29" height="14" version="1.1"><defs><mask id="clip2229" fill="#fff"><path fill-rule="evenodd" d="M 11.86 0.790000000000077 C 13.96 0.790000000000077 17.66 4.49000000000001 17.66 6.59000000000003 C 17.66 8.69000000000005 13.96 10.39 11.86 10.39 C 9.86000000000001 10.39 8.16000000000003 8.69000000000005 8.16000000000003 6.59000000000003 C 8.16000000000003 4.49000000000001 9.86000000000001 0.790000000000077 11.86 0.790000000000077 Z"/></mask></defs><g><path fill="#fff" fill-opacity="0" fill-rule="nonzero" stroke="none" d="M 11.86 0.790000000000077 C 13.96 0.790000000000077 17.66 4.49000000000001 17.66 6.59000000000003 C 17.66 8.69000000000005 13.96 10.39 11.86 10.39 C 9.86000000000001 10.39 8.16000000000003 8.69000000000005 8.16000000000003 6.59000000000003 C 8.16000000000003 4.49000000000001 9.86000000000001 0.790000000000077 11.86 0.790000000000077 Z" transform="matrix(1 0 0 1 -435 -13885 ) matrix(1 0 0 1 436 13886 )"/><path fill="none" stroke="green" stroke-width="4" d="M 11.86 0.790000000000077 C 13.96 0.790000000000077 17.66 4.49000000000001 17.66 6.59000000000003 C 17.66 8.69000000000005 13.96 10.39 11.86 10.39 C 9.86000000000001 10.39 8.16000000000003 8.69000000000005 8.16000000000003 6.59000000000003 C 8.16000000000003 4.49000000000001 9.86000000000001 0.790000000000077 11.86 0.790000000000077 Z" mask="url(#clip2229)" transform="matrix(1 0 0 1 -435 -13885 ) matrix(1 0 0 1 436 13886 )"/><path fill="none" stroke="green" stroke-width="2" d="M 0.560000000000002 5.59000000000003 L 25.26 5.59000000000003" mask="url(#clip2229)" transform="matrix(1 0 0 1 -435 -13885 ) matrix(1 0 0 1 436 13886 )"/></g></svg>