<svg xmlns="http://www.w3.org/2000/svg" xmlns:xlink="http://www.w3.org/1999/xlink" width="151" height="30" version="1.1"><defs><mask id="clip2224" fill="#fff"><path fill-rule="evenodd" d="M 0.939999999999941 29.29 C 0.939999999999941 29.29 0.939999999999941 0.0900000000000318 0.939999999999941 0.0900000000000318 C 0.939999999999941 0.0900000000000318 150.44 0.0900000000000318 150.44 0.0900000000000318 C 150.44 0.0900000000000318 150.44 29.29 150.44 29.29 C 150.44 29.29 0.939999999999941 29.29 0.939999999999941 29.29 Z"/></mask></defs><g><path fill="#f6fafc" fill-rule="nonzero" stroke="none" d="M 0.939999999999941 29.29 C 0.939999999999941 29.29 0.939999999999941 0.0900000000000318 0.939999999999941 0.0900000000000318 C 0.939999999999941 0.0900000000000318 150.44 0.0900000000000318 150.44 0.0900000000000318 C 150.44 0.0900000000000318 150.44 29.29 150.44 29.29 C 150.44 29.29 0.939999999999941 29.29 0.939999999999941 29.29 Z" transform="matrix(1 0 0 1 -1009 -13853 ) matrix(1 0 0 1 1009 13853 )"/><path fill="none" stroke="#fff" stroke-width="2" d="M 0.939999999999941 29.29 C 0.939999999999941 29.29 0.939999999999941 0.0900000000000318 0.939999999999941 0.0900000000000318 C 0.939999999999941 0.0900000000000318 150.44 0.0900000000000318 150.44 0.0900000000000318 C 150.44 0.0900000000000318 150.44 29.29 150.44 29.29 C 150.44 29.29 0.939999999999941 29.29 0.939999999999941 29.29 Z" mask="url(#clip2224)" transform="matrix(1 0 0 1 -1009 -13853 ) matrix(1 0 0 1 1009 13853 )"/></g></svg>