<?xml version="1.0" encoding="utf-8"?>
<svg version="1.1" xmlns:xlink="http://www.w3.org/1999/xlink" width="37px" height="37px" xmlns="http://www.w3.org/2000/svg">
  <defs>
    <mask fill="white" id="clip978">
      <path d="M 36.61 36.76  C 36.61 36.76  0.910000000000025 32.36  0.910000000000025 32.36  C 3.00999999999999 15.0599999999999  18.71 0.759999999999991  36.61 0.759999999999991  C 36.61 0.759999999999991  36.61 36.76  36.61 36.76  Z " fill-rule="evenodd" />
    </mask>
  </defs>
  <g transform="matrix(1 0 0 1 -566 -16740 )">
    <path d="M 36.61 36.76  C 36.61 36.76  0.910000000000025 32.36  0.910000000000025 32.36  C 3.00999999999999 15.0599999999999  18.71 0.759999999999991  36.61 0.759999999999991  C 36.61 0.759999999999991  36.61 36.76  36.61 36.76  Z " fill-rule="nonzero" fill="#ee7c31" stroke="none" transform="matrix(1 0 0 1 566 16740 )" />
    <path d="M 36.61 36.76  C 36.61 36.76  0.910000000000025 32.36  0.910000000000025 32.36  C 3.00999999999999 15.0599999999999  18.71 0.759999999999991  36.61 0.759999999999991  C 36.61 0.759999999999991  36.61 36.76  36.61 36.76  Z " stroke-width="2" stroke="#ee7c31" fill="none" transform="matrix(1 0 0 1 566 16740 )" mask="url(#clip978)" />
  </g>
</svg>