<svg xmlns="http://www.w3.org/2000/svg" xmlns:xlink="http://www.w3.org/1999/xlink" width="36" height="36" version="1.1"><defs><radialGradient id="RadialGradient2269" cx="1.1" cy=".86" r="48.6" gradientTransform="matrix(0.999999999999999 0 0 1 1.55431223447522E-15 0 )" gradientUnits="userSpaceOnUse"><stop id="Stop2270" offset="0" stop-color="#ffd780"/><stop id="Stop2271" offset="1" stop-color="#ffaf00"/></radialGradient><mask id="clip2272" fill="#fff"><path fill-rule="evenodd" d="M 18.8 0.360000000000014 C 28.3 0.360000000000014 36 9.06000000000006 36 18.5600000000001 C 36 28.0600000000001 28.3 35.76 18.8 35.76 C 9.30000000000001 35.76 0.599999999999994 28.0600000000001 0.599999999999994 18.5600000000001 C 0.599999999999994 9.06000000000006 9.30000000000001 0.360000000000014 18.8 0.360000000000014 Z"/></mask></defs><g><path fill="url(#RadialGradient2269)" fill-rule="nonzero" stroke="none" d="M 18.8 0.360000000000014 C 28.3 0.360000000000014 36 9.06000000000006 36 18.5600000000001 C 36 28.0600000000001 28.3 35.76 18.8 35.76 C 9.30000000000001 35.76 0.599999999999994 28.0600000000001 0.599999999999994 18.5600000000001 C 0.599999999999994 9.06000000000006 9.30000000000001 0.360000000000014 18.8 0.360000000000014 Z" transform="matrix(1 0 0 1 -338 -14908 ) matrix(1 0 0 1 338 14908 )"/><path fill="none" stroke="#ffaf00" stroke-width="2" d="M 18.8 0.360000000000014 C 28.3 0.360000000000014 36 9.06000000000006 36 18.5600000000001 C 36 28.0600000000001 28.3 35.76 18.8 35.76 C 9.30000000000001 35.76 0.599999999999994 28.0600000000001 0.599999999999994 18.5600000000001 C 0.599999999999994 9.06000000000006 9.30000000000001 0.360000000000014 18.8 0.360000000000014 Z" mask="url(#clip2272)" transform="matrix(1 0 0 1 -338 -14908 ) matrix(1 0 0 1 338 14908 )"/></g></svg>