<?xml version="1.0" encoding="utf-8"?>
<svg version="1.1" xmlns:xlink="http://www.w3.org/1999/xlink" width="34px" height="132px" xmlns="http://www.w3.org/2000/svg">
  <defs>
    <mask fill="white" id="clip915">
      <path d="M 0.519999999999982 131.27  C 0.519999999999982 131.27  0.519999999999982 0.170000000000016  0.519999999999982 0.170000000000016  C 0.519999999999982 0.170000000000016  33.52 0.170000000000016  33.52 0.170000000000016  C 33.52 0.170000000000016  33.52 131.27  33.52 131.27  C 33.52 131.27  0.519999999999982 131.27  0.519999999999982 131.27  Z " fill-rule="evenodd" />
    </mask>
  </defs>
  <g transform="matrix(1 0 0 1 -275 -16387 )">
    <path d="M 0.519999999999982 131.27  C 0.519999999999982 131.27  0.519999999999982 0.170000000000016  0.519999999999982 0.170000000000016  C 0.519999999999982 0.170000000000016  33.52 0.170000000000016  33.52 0.170000000000016  C 33.52 0.170000000000016  33.52 131.27  33.52 131.27  C 33.52 131.27  0.519999999999982 131.27  0.519999999999982 131.27  Z " fill-rule="nonzero" fill="#ffaf00" stroke="none" transform="matrix(1 0 0 1 275 16387 )" />
    <path d="M 0.519999999999982 131.27  C 0.519999999999982 131.27  0.519999999999982 0.170000000000016  0.519999999999982 0.170000000000016  C 0.519999999999982 0.170000000000016  33.52 0.170000000000016  33.52 0.170000000000016  C 33.52 0.170000000000016  33.52 131.27  33.52 131.27  C 33.52 131.27  0.519999999999982 131.27  0.519999999999982 131.27  Z " stroke-width="2" stroke="#ffaf00" fill="none" transform="matrix(1 0 0 1 275 16387 )" mask="url(#clip915)" />
  </g>
</svg>