<svg xmlns="http://www.w3.org/2000/svg" xmlns:xlink="http://www.w3.org/1999/xlink" width="29" height="30" version="1.1"><defs><radialGradient id="RadialGradient2261" cx=".51" cy="1.07" r="38.9" gradientTransform="matrix(1 0 0 1 0 0 )" gradientUnits="userSpaceOnUse"><stop id="Stop2262" offset="0" stop-color="#b2cce1"/><stop id="Stop2263" offset="1" stop-color="#6598c2"/></radialGradient><mask id="clip2264" fill="#fff"><path fill-rule="evenodd" d="M 13.71 0.569999999999936 C 21.31 0.569999999999936 28.51 6.76999999999998 28.51 14.27 C 28.51 21.8699999999999 21.31 29.0699999999999 13.71 29.0699999999999 C 6.20999999999998 29.0699999999999 0.00999999999999091 21.8699999999999 0.00999999999999091 14.27 C 0.00999999999999091 6.76999999999998 6.20999999999998 0.569999999999936 13.71 0.569999999999936 Z"/></mask></defs><g><path fill="url(#RadialGradient2261)" fill-rule="nonzero" stroke="none" d="M 13.71 0.569999999999936 C 21.31 0.569999999999936 28.51 6.76999999999998 28.51 14.27 C 28.51 21.8699999999999 21.31 29.0699999999999 13.71 29.0699999999999 C 6.20999999999998 29.0699999999999 0.00999999999999091 21.8699999999999 0.00999999999999091 14.27 C 0.00999999999999091 6.76999999999998 6.20999999999998 0.569999999999936 13.71 0.569999999999936 Z" transform="matrix(1 0 0 1 -223 -14808 ) matrix(1 0 0 1 223 14808 )"/><path fill="none" stroke="#6598c2" stroke-width="2" d="M 13.71 0.569999999999936 C 21.31 0.569999999999936 28.51 6.76999999999998 28.51 14.27 C 28.51 21.8699999999999 21.31 29.0699999999999 13.71 29.0699999999999 C 6.20999999999998 29.0699999999999 0.00999999999999091 21.8699999999999 0.00999999999999091 14.27 C 0.00999999999999091 6.76999999999998 6.20999999999998 0.569999999999936 13.71 0.569999999999936 Z" mask="url(#clip2264)" transform="matrix(1 0 0 1 -223 -14808 ) matrix(1 0 0 1 223 14808 )"/></g></svg>