<?xml version="1.0" encoding="utf-8"?>
<svg version="1.1" xmlns:xlink="http://www.w3.org/1999/xlink" width="133px" height="87px" xmlns="http://www.w3.org/2000/svg">
  <defs>
    <mask fill="white" id="clip1094">
      <path d="M 82.5 0.350000000000023  C 82.5 0.350000000000023  132.5 70.1500000000001  132.5 70.1500000000001  C 118.4 80.35  101.2 86.35  82.5 86.35  C 44.7 86.35  11.7 60.75  0.700000000000045 26.65  C 0.700000000000045 26.65  82.5 0.350000000000023  82.5 0.350000000000023  Z " fill-rule="evenodd" />
    </mask>
  </defs>
  <g transform="matrix(1 0 0 1 -853 -17584 )">
    <path d="M 82.5 0.350000000000023  C 82.5 0.350000000000023  132.5 70.1500000000001  132.5 70.1500000000001  C 118.4 80.35  101.2 86.35  82.5 86.35  C 44.7 86.35  11.7 60.75  0.700000000000045 26.65  C 0.700000000000045 26.65  82.5 0.350000000000023  82.5 0.350000000000023  Z " fill-rule="nonzero" fill="#eb6d71" stroke="none" transform="matrix(1 0 0 1 853 17584 )" />
    <path d="M 82.5 0.350000000000023  C 82.5 0.350000000000023  132.5 70.1500000000001  132.5 70.1500000000001  C 118.4 80.35  101.2 86.35  82.5 86.35  C 44.7 86.35  11.7 60.75  0.700000000000045 26.65  C 0.700000000000045 26.65  82.5 0.350000000000023  82.5 0.350000000000023  Z " stroke-width="2" stroke="#eb6d71" fill="none" transform="matrix(1 0 0 1 853 17584 )" mask="url(#clip1094)" />
  </g>
</svg>