<?xml version="1.0" encoding="utf-8"?>
<svg version="1.1" xmlns:xlink="http://www.w3.org/1999/xlink" width="34px" height="57px" xmlns="http://www.w3.org/2000/svg">
  <defs>
    <mask fill="white" id="clip914">
      <path d="M 0.949999999999989 56.27  C 0.949999999999989 56.27  0.949999999999989 0.370000000000005  0.949999999999989 0.370000000000005  C 0.949999999999989 0.370000000000005  33.95 0.370000000000005  33.95 0.370000000000005  C 33.95 0.370000000000005  33.95 56.27  33.95 56.27  C 33.95 56.27  0.949999999999989 56.27  0.949999999999989 56.27  Z " fill-rule="evenodd" />
    </mask>
  </defs>
  <g transform="matrix(1 0 0 1 -217 -16462 )">
    <path d="M 0.949999999999989 56.27  C 0.949999999999989 56.27  0.949999999999989 0.370000000000005  0.949999999999989 0.370000000000005  C 0.949999999999989 0.370000000000005  33.95 0.370000000000005  33.95 0.370000000000005  C 33.95 0.370000000000005  33.95 56.27  33.95 56.27  C 33.95 56.27  0.949999999999989 56.27  0.949999999999989 56.27  Z " fill-rule="nonzero" fill="#ffaf00" stroke="none" transform="matrix(1 0 0 1 217 16462 )" />
    <path d="M 0.949999999999989 56.27  C 0.949999999999989 56.27  0.949999999999989 0.370000000000005  0.949999999999989 0.370000000000005  C 0.949999999999989 0.370000000000005  33.95 0.370000000000005  33.95 0.370000000000005  C 33.95 0.370000000000005  33.95 56.27  33.95 56.27  C 33.95 56.27  0.949999999999989 56.27  0.949999999999989 56.27  Z " stroke-width="2" stroke="#ffaf00" fill="none" transform="matrix(1 0 0 1 217 16462 )" mask="url(#clip914)" />
  </g>
</svg>