<?xml version="1.0" encoding="utf-8"?>
<svg version="1.1" xmlns:xlink="http://www.w3.org/1999/xlink" width="165px" height="12px" xmlns="http://www.w3.org/2000/svg">
  <defs>
    <mask fill="white" id="clip866">
      <path d="M 0.92999999999995 11.61  C 0.92999999999995 11.61  0.92999999999995 0.509999999999991  0.92999999999995 0.509999999999991  C 0.92999999999995 0.509999999999991  164.23 0.509999999999991  164.23 0.509999999999991  C 164.23 0.509999999999991  164.23 11.61  164.23 11.61  C 164.23 11.61  0.92999999999995 11.61  0.92999999999995 11.61  Z " fill-rule="evenodd" />
    </mask>
  </defs>
  <g transform="matrix(1 0 0 1 -903 -16436 )">
    <path d="M 0.92999999999995 11.61  C 0.92999999999995 11.61  0.92999999999995 0.509999999999991  0.92999999999995 0.509999999999991  C 0.92999999999995 0.509999999999991  164.23 0.509999999999991  164.23 0.509999999999991  C 164.23 0.509999999999991  164.23 11.61  164.23 11.61  C 164.23 11.61  0.92999999999995 11.61  0.92999999999995 11.61  Z " fill-rule="nonzero" fill="#ffaf00" stroke="none" transform="matrix(1 0 0 1 903 16436 )" />
    <path d="M 0.92999999999995 11.61  C 0.92999999999995 11.61  0.92999999999995 0.509999999999991  0.92999999999995 0.509999999999991  C 0.92999999999995 0.509999999999991  164.23 0.509999999999991  164.23 0.509999999999991  C 164.23 0.509999999999991  164.23 11.61  164.23 11.61  C 164.23 11.61  0.92999999999995 11.61  0.92999999999995 11.61  Z " stroke-width="2" stroke="#ffaf00" fill="none" transform="matrix(1 0 0 1 903 16436 )" mask="url(#clip866)" />
  </g>
</svg>