<svg xmlns="http://www.w3.org/2000/svg" xmlns:xlink="http://www.w3.org/1999/xlink" width="57" height="57" version="1.1"><defs><radialGradient id="RadialGradient2249" cx="1.2" cy=".61" r="77.7" gradientTransform="matrix(0.999999999999999 0 0 1 8.88178419700125E-16 0 )" gradientUnits="userSpaceOnUse"><stop id="Stop2250" offset="0" stop-color="#c3e7f5"/><stop id="Stop2251" offset="1" stop-color="#87ceeb"/></radialGradient><mask id="clip2252" fill="#fff"><path fill-rule="evenodd" d="M 29.2 0.110000000000014 C 44.4 0.110000000000014 56.7 13.41 56.7 28.61 C 56.7 43.8100000000001 44.4 56.11 29.2 56.11 C 14.0000000000001 56.11 0.700000000000045 43.8100000000001 0.700000000000045 28.61 C 0.700000000000045 13.41 14.0000000000001 0.110000000000014 29.2 0.110000000000014 Z"/></mask></defs><g><path fill="url(#RadialGradient2249)" fill-rule="nonzero" stroke="none" d="M 29.2 0.110000000000014 C 44.4 0.110000000000014 56.7 13.41 56.7 28.61 C 56.7 43.8100000000001 44.4 56.11 29.2 56.11 C 14.0000000000001 56.11 0.700000000000045 43.8100000000001 0.700000000000045 28.61 C 0.700000000000045 13.41 14.0000000000001 0.110000000000014 29.2 0.110000000000014 Z" transform="matrix(1 0 0 1 -399 -14875 ) matrix(1 0 0 1 399 14875 )"/><path fill="none" stroke="#87ceeb" stroke-width="2" d="M 29.2 0.110000000000014 C 44.4 0.110000000000014 56.7 13.41 56.7 28.61 C 56.7 43.8100000000001 44.4 56.11 29.2 56.11 C 14.0000000000001 56.11 0.700000000000045 43.8100000000001 0.700000000000045 28.61 C 0.700000000000045 13.41 14.0000000000001 0.110000000000014 29.2 0.110000000000014 Z" mask="url(#clip2252)" transform="matrix(1 0 0 1 -399 -14875 ) matrix(1 0 0 1 399 14875 )"/></g></svg>