<svg xmlns="http://www.w3.org/2000/svg" xmlns:xlink="http://www.w3.org/1999/xlink" width="22" height="23" version="1.1"><defs><radialGradient id="RadialGradient2253" cx=".6" cy="1.2" r="29.2" gradientTransform="matrix(0.999999999999996 0 0 1 2.44249065417534E-15 0 )" gradientUnits="userSpaceOnUse"><stop id="Stop2254" offset="0" stop-color="#ffc080"/><stop id="Stop2255" offset="1" stop-color="#ff8000"/></radialGradient><mask id="clip2256" fill="#fff"><path fill-rule="evenodd" d="M 11.4 0.700000000000045 C 17.1 0.700000000000045 21.7 6.30000000000007 21.7 12 C 21.7 17.7 17.1 22.3000000000001 11.4 22.3000000000001 C 5.70000000000005 22.3000000000001 0.100000000000023 17.7 0.100000000000023 12 C 0.100000000000023 6.30000000000007 5.70000000000005 0.700000000000045 11.4 0.700000000000045 Z"/></mask></defs><g><path fill="url(#RadialGradient2253)" fill-rule="nonzero" stroke="none" d="M 11.4 0.700000000000045 C 17.1 0.700000000000045 21.7 6.30000000000007 21.7 12 C 21.7 17.7 17.1 22.3000000000001 11.4 22.3000000000001 C 5.70000000000005 22.3000000000001 0.100000000000023 17.7 0.100000000000023 12 C 0.100000000000023 6.30000000000007 5.70000000000005 0.700000000000045 11.4 0.700000000000045 Z" transform="matrix(1 0 0 1 -512 -14926 ) matrix(1 0 0 1 512 14926 )"/><path fill="none" stroke="#ff8000" stroke-width="2" d="M 11.4 0.700000000000045 C 17.1 0.700000000000045 21.7 6.30000000000007 21.7 12 C 21.7 17.7 17.1 22.3000000000001 11.4 22.3000000000001 C 5.70000000000005 22.3000000000001 0.100000000000023 17.7 0.100000000000023 12 C 0.100000000000023 6.30000000000007 5.70000000000005 0.700000000000045 11.4 0.700000000000045 Z" mask="url(#clip2256)" transform="matrix(1 0 0 1 -512 -14926 ) matrix(1 0 0 1 512 14926 )"/></g></svg>