<svg xmlns="http://www.w3.org/2000/svg" xmlns:xlink="http://www.w3.org/1999/xlink" width="43" height="43" version="1.1"><defs><radialGradient id="RadialGradient2257" cx=".63" cy=".83" r="58.3" gradientTransform="matrix(1 0 0 0.999999999999999 0 7.7715611723761E-16 )" gradientUnits="userSpaceOnUse"><stop id="Stop2258" offset="0" stop-color="#dedbb5"/><stop id="Stop2259" offset="1" stop-color="#bdb76b"/></radialGradient><mask id="clip2260" fill="#fff"><path fill-rule="evenodd" d="M 21.73 0.329999999999927 C 33.13 0.329999999999927 42.33 10.53 42.33 21.9299999999999 C 42.33 33.3299999999999 33.13 42.53 21.73 42.53 C 10.33 42.53 0.129999999999995 33.3299999999999 0.129999999999995 21.9299999999999 C 0.129999999999995 10.53 10.33 0.329999999999927 21.73 0.329999999999927 Z"/></mask></defs><g><path fill="url(#RadialGradient2257)" fill-rule="nonzero" stroke="none" d="M 21.73 0.329999999999927 C 33.13 0.329999999999927 42.33 10.53 42.33 21.9299999999999 C 42.33 33.3299999999999 33.13 42.53 21.73 42.53 C 10.33 42.53 0.129999999999995 33.3299999999999 0.129999999999995 21.9299999999999 C 0.129999999999995 10.53 10.33 0.329999999999927 21.73 0.329999999999927 Z" transform="matrix(1 0 0 1 -216 -14939 ) matrix(1 0 0 1 216 14939 )"/><path fill="none" stroke="#bdb76b" stroke-width="2" d="M 21.73 0.329999999999927 C 33.13 0.329999999999927 42.33 10.53 42.33 21.9299999999999 C 42.33 33.3299999999999 33.13 42.53 21.73 42.53 C 10.33 42.53 0.129999999999995 33.3299999999999 0.129999999999995 21.9299999999999 C 0.129999999999995 10.53 10.33 0.329999999999927 21.73 0.329999999999927 Z" mask="url(#clip2260)" transform="matrix(1 0 0 1 -216 -14939 ) matrix(1 0 0 1 216 14939 )"/></g></svg>