<svg xmlns="http://www.w3.org/2000/svg" xmlns:xlink="http://www.w3.org/1999/xlink" width="1045" height="43" version="1.1"><defs><mask id="clip2236" fill="#fff"><path fill-rule="evenodd" d="M 0.280000000000001 42.99 C 0.280000000000001 42.99 0.280000000000001 0.189999999999998 0.280000000000001 0.189999999999998 C 0.280000000000001 0.189999999999998 1044.78 0.189999999999998 1044.78 0.189999999999998 C 1044.78 0.189999999999998 1044.78 42.99 1044.78 42.99 C 1044.78 42.99 0.280000000000001 42.99 0.280000000000001 42.99 Z"/></mask></defs><g><path fill="#549fb3" fill-rule="nonzero" stroke="none" d="M 0.280000000000001 42.99 C 0.280000000000001 42.99 0.280000000000001 0.189999999999998 0.280000000000001 0.189999999999998 C 0.280000000000001 0.189999999999998 1044.78 0.189999999999998 1044.78 0.189999999999998 C 1044.78 0.189999999999998 1044.78 42.99 1044.78 42.99 C 1044.78 42.99 0.280000000000001 42.99 0.280000000000001 42.99 Z" transform="matrix(1 0 0 1 -128 -13328 ) matrix(1 0 0 1 128 13328 )"/><path fill="none" stroke="#549fb3" stroke-width="2" d="M 0.280000000000001 42.99 C 0.280000000000001 42.99 0.280000000000001 0.189999999999998 0.280000000000001 0.189999999999998 C 0.280000000000001 0.189999999999998 1044.78 0.189999999999998 1044.78 0.189999999999998 C 1044.78 0.189999999999998 1044.78 42.99 1044.78 42.99 C 1044.78 42.99 0.280000000000001 42.99 0.280000000000001 42.99 Z" mask="url(#clip2236)" transform="matrix(1 0 0 1 -128 -13328 ) matrix(1 0 0 1 128 13328 )"/></g></svg>