<?xml version="1.0" encoding="utf-8"?>
<svg version="1.1" xmlns:xlink="http://www.w3.org/1999/xlink" width="25px" height="26px" xmlns="http://www.w3.org/2000/svg">
  <defs>
    <radialGradient cx="457.23" cy="549.27" r="33.4999999999999" gradientTransform="matrix(1 0 0 1 0 0 )" gradientUnits="userSpaceOnUse" id="RadialGradient1138">
      <stop id="Stop1139" stop-color="#fbfbfb" offset="0" />
      <stop id="Stop1140" stop-color="#e1e1e1" offset="1" />
    </radialGradient>
    <mask fill="white" id="clip1141">
      <path d="M 13.14 25.29  C 6.63999999999999 25.29  0.340000000000032 18.99  0.340000000000032 12.39  C 0.340000000000032 5.88999999999999  6.63999999999999 0.589999999999975  13.14 0.589999999999975  C 19.74 0.589999999999975  24.9400000000001 5.88999999999999  24.9400000000001 12.39  C 24.9400000000001 18.99  19.74 25.29  13.14 25.29  Z " fill-rule="evenodd" />
    </mask>
  </defs>
  <g transform="matrix(1 0 0 1 -657 -17227 )">
    <path d="M 13.14 25.29  C 6.63999999999999 25.29  0.340000000000032 18.99  0.340000000000032 12.39  C 0.340000000000032 5.88999999999999  6.63999999999999 0.589999999999975  13.14 0.589999999999975  C 19.74 0.589999999999975  24.9400000000001 5.88999999999999  24.9400000000001 12.39  C 24.9400000000001 18.99  19.74 25.29  13.14 25.29  Z " fill-rule="nonzero" fill="url(#RadialGradient1138)" stroke="none" transform="matrix(1 0 0 1 657 17227 )" />
    <path d="M 13.14 25.29  C 6.63999999999999 25.29  0.340000000000032 18.99  0.340000000000032 12.39  C 0.340000000000032 5.88999999999999  6.63999999999999 0.589999999999975  13.14 0.589999999999975  C 19.74 0.589999999999975  24.9400000000001 5.88999999999999  24.9400000000001 12.39  C 24.9400000000001 18.99  19.74 25.29  13.14 25.29  Z " stroke-width="2" stroke="#909090" fill="none" transform="matrix(1 0 0 1 657 17227 )" mask="url(#clip1141)" />
  </g>
</svg>