<svg xmlns="http://www.w3.org/2000/svg" xmlns:xlink="http://www.w3.org/1999/xlink" width="96" height="117" version="1.1"><defs><mask id="clip2304" fill="#fff"><path fill-rule="evenodd" d="M 0.42999999999995 116.66 C 0.42999999999995 116.66 0.42999999999995 0.45999999999998 0.42999999999995 0.45999999999998 C 0.42999999999995 0.45999999999998 95.93 0.45999999999998 95.93 0.45999999999998 C 95.93 0.45999999999998 95.93 116.66 95.93 116.66 C 95.93 116.66 0.42999999999995 116.66 0.42999999999995 116.66 Z"/></mask></defs><g><path fill="#1e8fff" fill-rule="nonzero" stroke="none" d="M 0.42999999999995 116.66 C 0.42999999999995 116.66 0.42999999999995 0.45999999999998 0.42999999999995 0.45999999999998 C 0.42999999999995 0.45999999999998 95.93 0.45999999999998 95.93 0.45999999999998 C 95.93 0.45999999999998 95.93 116.66 95.93 116.66 C 95.93 116.66 0.42999999999995 116.66 0.42999999999995 116.66 Z" transform="matrix(1 0 0 1 -955 -14559 ) matrix(1 0 0 1 955 14559 )"/><path fill="none" stroke="#0074e4" stroke-width="2" d="M 0.42999999999995 116.66 C 0.42999999999995 116.66 0.42999999999995 0.45999999999998 0.42999999999995 0.45999999999998 C 0.42999999999995 0.45999999999998 95.93 0.45999999999998 95.93 0.45999999999998 C 95.93 0.45999999999998 95.93 116.66 95.93 116.66 C 95.93 116.66 0.42999999999995 116.66 0.42999999999995 116.66 Z" mask="url(#clip2304)" transform="matrix(1 0 0 1 -955 -14559 ) matrix(1 0 0 1 955 14559 )"/></g></svg>