<svg xmlns="http://www.w3.org/2000/svg" xmlns:xlink="http://www.w3.org/1999/xlink" width="96" height="35" version="1.1"><defs><mask id="clip2303" fill="#fff"><path fill-rule="evenodd" d="M 0.42999999999995 34.48 C 0.42999999999995 34.48 0.42999999999995 0.379999999999995 0.42999999999995 0.379999999999995 C 0.42999999999995 0.379999999999995 95.93 0.379999999999995 95.93 0.379999999999995 C 95.93 0.379999999999995 95.93 34.48 95.93 34.48 C 95.93 34.48 0.42999999999995 34.48 0.42999999999995 34.48 Z"/></mask></defs><g><path fill="#4ba5ff" fill-rule="nonzero" stroke="none" d="M 0.42999999999995 34.48 C 0.42999999999995 34.48 0.42999999999995 0.379999999999995 0.42999999999995 0.379999999999995 C 0.42999999999995 0.379999999999995 95.93 0.379999999999995 95.93 0.379999999999995 C 95.93 0.379999999999995 95.93 34.48 95.93 34.48 C 95.93 34.48 0.42999999999995 34.48 0.42999999999995 34.48 Z" transform="matrix(1 0 0 1 -955 -14526 ) matrix(1 0 0 1 955 14526 )"/><path fill="none" stroke="#1e90ff" stroke-width="2" d="M 0.42999999999995 34.48 C 0.42999999999995 34.48 0.42999999999995 0.379999999999995 0.42999999999995 0.379999999999995 C 0.42999999999995 0.379999999999995 95.93 0.379999999999995 95.93 0.379999999999995 C 95.93 0.379999999999995 95.93 34.48 95.93 34.48 C 95.93 34.48 0.42999999999995 34.48 0.42999999999995 34.48 Z" mask="url(#clip2303)" transform="matrix(1 0 0 1 -955 -14526 ) matrix(1 0 0 1 955 14526 )"/></g></svg>