<svg xmlns="http://www.w3.org/2000/svg" xmlns:xlink="http://www.w3.org/1999/xlink" width="96" height="36" version="1.1"><defs><mask id="clip2301" fill="#fff"><path fill-rule="evenodd" d="M 0.42999999999995 35.7 C 0.42999999999995 35.7 0.42999999999995 0.199999999999989 0.42999999999995 0.199999999999989 C 0.42999999999995 0.199999999999989 95.93 0.199999999999989 95.93 0.199999999999989 C 95.93 0.199999999999989 95.93 35.7 95.93 35.7 C 95.93 35.7 0.42999999999995 35.7 0.42999999999995 35.7 Z"/></mask></defs><g><path fill="#a5d3ff" fill-rule="nonzero" stroke="none" d="M 0.42999999999995 35.7 C 0.42999999999995 35.7 0.42999999999995 0.199999999999989 0.42999999999995 0.199999999999989 C 0.42999999999995 0.199999999999989 95.93 0.199999999999989 95.93 0.199999999999989 C 95.93 0.199999999999989 95.93 35.7 95.93 35.7 C 95.93 35.7 0.42999999999995 35.7 0.42999999999995 35.7 Z" transform="matrix(1 0 0 1 -955 -14470 ) matrix(1 0 0 1 955 14470 )"/><path fill="none" stroke="#78bcff" stroke-width="2" d="M 0.42999999999995 35.7 C 0.42999999999995 35.7 0.42999999999995 0.199999999999989 0.42999999999995 0.199999999999989 C 0.42999999999995 0.199999999999989 95.93 0.199999999999989 95.93 0.199999999999989 C 95.93 0.199999999999989 95.93 35.7 95.93 35.7 C 95.93 35.7 0.42999999999995 35.7 0.42999999999995 35.7 Z" mask="url(#clip2301)" transform="matrix(1 0 0 1 -955 -14470 ) matrix(1 0 0 1 955 14470 )"/></g></svg>