<svg xmlns="http://www.w3.org/2000/svg" xmlns:xlink="http://www.w3.org/1999/xlink" width="96" height="24" version="1.1"><defs><mask id="clip2302" fill="#fff"><path fill-rule="evenodd" d="M 0.42999999999995 23.35 C 0.42999999999995 23.35 0.42999999999995 0.649999999999977 0.42999999999995 0.649999999999977 C 0.42999999999995 0.649999999999977 95.93 0.649999999999977 95.93 0.649999999999977 C 95.93 0.649999999999977 95.93 23.35 95.93 23.35 C 95.93 23.35 0.42999999999995 23.35 0.42999999999995 23.35 Z"/></mask></defs><g><path fill="#78bcff" fill-rule="nonzero" stroke="none" d="M 0.42999999999995 23.35 C 0.42999999999995 23.35 0.42999999999995 0.649999999999977 0.42999999999995 0.649999999999977 C 0.42999999999995 0.649999999999977 95.93 0.649999999999977 95.93 0.649999999999977 C 95.93 0.649999999999977 95.93 23.35 95.93 23.35 C 95.93 23.35 0.42999999999995 23.35 0.42999999999995 23.35 Z" transform="matrix(1 0 0 1 -955 -14504 ) matrix(1 0 0 1 955 14504 )"/><path fill="none" stroke="#4ba6ff" stroke-width="2" d="M 0.42999999999995 23.35 C 0.42999999999995 23.35 0.42999999999995 0.649999999999977 0.42999999999995 0.649999999999977 C 0.42999999999995 0.649999999999977 95.93 0.649999999999977 95.93 0.649999999999977 C 95.93 0.649999999999977 95.93 23.35 95.93 23.35 C 95.93 23.35 0.42999999999995 23.35 0.42999999999995 23.35 Z" mask="url(#clip2302)" transform="matrix(1 0 0 1 -955 -14504 ) matrix(1 0 0 1 955 14504 )"/></g></svg>