<?xml version="1.0" encoding="utf-8"?>
<svg version="1.1" xmlns:xlink="http://www.w3.org/1999/xlink" width="72px" height="72px" xmlns="http://www.w3.org/2000/svg">
  <defs>
    <mask fill="white" id="clip998">
      <path d="M 36.61 36.76  C 36.61 36.76  36.61 0.759999999999991  36.61 0.759999999999991  C 55.91 0.759999999999991  71.51 17.46  71.51 36.76  C 71.51 56.0599999999999  55.91 71.66  36.61 71.66  C 17.31 71.66  0.610000000000014 56.0599999999999  0.610000000000014 36.76  C 0.610000000000014 35.26  0.710000000000036 32.76  0.910000000000025 31.36  C 0.910000000000025 31.36  36.61 36.76  36.61 36.76  Z " fill-rule="evenodd" />
    </mask>
  </defs>
  <g transform="matrix(1 0 0 1 -566 -16740 )">
    <path d="M 36.61 36.76  C 36.61 36.76  36.61 0.759999999999991  36.61 0.759999999999991  C 55.91 0.759999999999991  71.51 17.46  71.51 36.76  C 71.51 56.0599999999999  55.91 71.66  36.61 71.66  C 17.31 71.66  0.610000000000014 56.0599999999999  0.610000000000014 36.76  C 0.610000000000014 35.26  0.710000000000036 32.76  0.910000000000025 31.36  C 0.910000000000025 31.36  36.61 36.76  36.61 36.76  Z " fill-rule="nonzero" fill="#2da2bf" stroke="none" transform="matrix(1 0 0 1 566 16740 )" />
    <path d="M 36.61 36.76  C 36.61 36.76  36.61 0.759999999999991  36.61 0.759999999999991  C 55.91 0.759999999999991  71.51 17.46  71.51 36.76  C 71.51 56.0599999999999  55.91 71.66  36.61 71.66  C 17.31 71.66  0.610000000000014 56.0599999999999  0.610000000000014 36.76  C 0.610000000000014 35.26  0.710000000000036 32.76  0.910000000000025 31.36  C 0.910000000000025 31.36  36.61 36.76  36.61 36.76  Z " stroke-width="2" stroke="#2da2bf" fill="none" transform="matrix(1 0 0 1 566 16740 )" mask="url(#clip998)" />
  </g>
</svg>