<?xml version="1.0" encoding="utf-8"?>
<svg version="1.1" xmlns:xlink="http://www.w3.org/1999/xlink" width="87px" height="113px" xmlns="http://www.w3.org/2000/svg">
  <defs>
    <mask fill="white" id="clip1038">
      <path d="M 86.5 86.35  C 86.5 86.35  4.70000000000005 112.65  4.70000000000005 112.65  C 2 104.35  0.5 95.5500000000001  0.5 86.35  C 0.5 39.45  39.6 0.350000000000023  86.5 0.350000000000023  C 86.5 0.350000000000023  86.5 86.35  86.5 86.35  Z " fill-rule="evenodd" />
    </mask>
  </defs>
  <g transform="matrix(1 0 0 1 -849 -17499 )">
    <path d="M 86.5 86.35  C 86.5 86.35  4.70000000000005 112.65  4.70000000000005 112.65  C 2 104.35  0.5 95.5500000000001  0.5 86.35  C 0.5 39.45  39.6 0.350000000000023  86.5 0.350000000000023  C 86.5 0.350000000000023  86.5 86.35  86.5 86.35  Z " fill-rule="nonzero" fill="#64c5c5" stroke="none" transform="matrix(1 0 0 1 849 17499 )" />
    <path d="M 86.5 86.35  C 86.5 86.35  4.70000000000005 112.65  4.70000000000005 112.65  C 2 104.35  0.5 95.5500000000001  0.5 86.35  C 0.5 39.45  39.6 0.350000000000023  86.5 0.350000000000023  C 86.5 0.350000000000023  86.5 86.35  86.5 86.35  Z " stroke-width="2" stroke="#64c5c5" fill="none" transform="matrix(1 0 0 1 849 17499 )" mask="url(#clip1038)" />
  </g>
</svg>