<svg xmlns="http://www.w3.org/2000/svg" xmlns:xlink="http://www.w3.org/1999/xlink" width="47" height="47" version="1.1"><defs><mask id="clip2368" fill="#fff"><path fill-rule="evenodd" d="M 24.38 0.100000000000023 C 36.78 0.100000000000023 46.88 11.2 46.88 23.7 C 46.88 36.1 36.78 46.2 24.38 46.2 C 11.88 46.2 0.779999999999973 36.1 0.779999999999973 23.7 C 0.779999999999973 11.2 11.88 0.100000000000023 24.38 0.100000000000023 Z"/></mask></defs><g><path fill="#8ae0ae" fill-rule="nonzero" stroke="none" d="M 24.38 0.100000000000023 C 36.78 0.100000000000023 46.88 11.2 46.88 23.7 C 46.88 36.1 36.78 46.2 24.38 46.2 C 11.88 46.2 0.779999999999973 36.1 0.779999999999973 23.7 C 0.779999999999973 11.2 11.88 0.100000000000023 24.38 0.100000000000023 Z" transform="matrix(1 0 0 1 -455 -15558 ) matrix(1 0 0 1 455 15558 )"/><path fill="none" stroke="#8ae0ae" stroke-width="2" d="M 24.38 0.100000000000023 C 36.78 0.100000000000023 46.88 11.2 46.88 23.7 C 46.88 36.1 36.78 46.2 24.38 46.2 C 11.88 46.2 0.779999999999973 36.1 0.779999999999973 23.7 C 0.779999999999973 11.2 11.88 0.100000000000023 24.38 0.100000000000023 Z" mask="url(#clip2368)" transform="matrix(1 0 0 1 -455 -15558 ) matrix(1 0 0 1 455 15558 )"/></g></svg>