<svg xmlns="http://www.w3.org/2000/svg" xmlns:xlink="http://www.w3.org/1999/xlink" width="62" height="62" version="1.1"><defs><mask id="clip2362" fill="#fff"><path fill-rule="evenodd" d="M 31.61 0.889999999999986 C 48.21 0.889999999999986 61.61 15.29 61.61 31.89 C 61.61 48.49 48.21 61.89 31.61 61.89 C 15.01 61.89 0.610000000000014 48.49 0.610000000000014 31.89 C 0.610000000000014 15.29 15.01 0.889999999999986 31.61 0.889999999999986 Z"/></mask></defs><g><path fill="#1e6183" fill-rule="nonzero" stroke="none" d="M 31.61 0.889999999999986 C 48.21 0.889999999999986 61.61 15.29 61.61 31.89 C 61.61 48.49 48.21 61.89 31.61 61.89 C 15.01 61.89 0.610000000000014 48.49 0.610000000000014 31.89 C 0.610000000000014 15.29 15.01 0.889999999999986 31.61 0.889999999999986 Z" transform="matrix(1 0 0 1 -319 -15540 ) matrix(1 0 0 1 319 15540 )"/><path fill="none" stroke="#1d6183" stroke-width="2" d="M 31.61 0.889999999999986 C 48.21 0.889999999999986 61.61 15.29 61.61 31.89 C 61.61 48.49 48.21 61.89 31.61 61.89 C 15.01 61.89 0.610000000000014 48.49 0.610000000000014 31.89 C 0.610000000000014 15.29 15.01 0.889999999999986 31.61 0.889999999999986 Z" mask="url(#clip2362)" transform="matrix(1 0 0 1 -319 -15540 ) matrix(1 0 0 1 319 15540 )"/></g></svg>