<svg xmlns="http://www.w3.org/2000/svg" xmlns:xlink="http://www.w3.org/1999/xlink" width="40" height="39" version="1.1"><defs><mask id="clip2369" fill="#fff"><path fill-rule="evenodd" d="M 20.61 0.269999999999982 C 31.01 0.269999999999982 39.41 9.66999999999996 39.41 20.17 C 39.41 30.5699999999999 31.01 38.97 20.61 38.97 C 10.11 38.97 0.70999999999998 30.5699999999999 0.70999999999998 20.17 C 0.70999999999998 9.66999999999996 10.11 0.269999999999982 20.61 0.269999999999982 Z"/></mask></defs><g><path fill="#ec574a" fill-rule="nonzero" stroke="none" d="M 20.61 0.269999999999982 C 31.01 0.269999999999982 39.41 9.66999999999996 39.41 20.17 C 39.41 30.5699999999999 31.01 38.97 20.61 38.97 C 10.11 38.97 0.70999999999998 30.5699999999999 0.70999999999998 20.17 C 0.70999999999998 9.66999999999996 10.11 0.269999999999982 20.61 0.269999999999982 Z" transform="matrix(1 0 0 1 -516 -15630 ) matrix(1 0 0 1 516 15630 )"/><path fill="none" stroke="#ee5a5d" stroke-width="2" d="M 20.61 0.269999999999982 C 31.01 0.269999999999982 39.41 9.66999999999996 39.41 20.17 C 39.41 30.5699999999999 31.01 38.97 20.61 38.97 C 10.11 38.97 0.70999999999998 30.5699999999999 0.70999999999998 20.17 C 0.70999999999998 9.66999999999996 10.11 0.269999999999982 20.61 0.269999999999982 Z" mask="url(#clip2369)" transform="matrix(1 0 0 1 -516 -15630 ) matrix(1 0 0 1 516 15630 )"/></g></svg>