<svg xmlns="http://www.w3.org/2000/svg" xmlns:xlink="http://www.w3.org/1999/xlink" width="17" height="18" version="1.1"><defs><mask id="clip2370" fill="#fff"><path fill-rule="evenodd" d="M 9.15999999999997 0.870000000000005 C 13.46 0.870000000000005 16.86 5.37 16.86 9.57000000000005 C 16.86 13.87 13.46 17.27 9.15999999999997 17.27 C 4.95999999999998 17.27 0.45999999999998 13.87 0.45999999999998 9.57000000000005 C 0.45999999999998 5.37 4.95999999999998 0.870000000000005 9.15999999999997 0.870000000000005 Z"/></mask></defs><g><path fill="#ffb539" fill-rule="nonzero" stroke="none" d="M 9.15999999999997 0.870000000000005 C 13.46 0.870000000000005 16.86 5.37 16.86 9.57000000000005 C 16.86 13.87 13.46 17.27 9.15999999999997 17.27 C 4.95999999999998 17.27 0.45999999999998 13.87 0.45999999999998 9.57000000000005 C 0.45999999999998 5.37 4.95999999999998 0.870000000000005 9.15999999999997 0.870000000000005 Z" transform="matrix(1 0 0 1 -556 -15665 ) matrix(1 0 0 1 556 15665 )"/><path fill="none" stroke="#ffb539" stroke-width="2" d="M 9.15999999999997 0.870000000000005 C 13.46 0.870000000000005 16.86 5.37 16.86 9.57000000000005 C 16.86 13.87 13.46 17.27 9.15999999999997 17.27 C 4.95999999999998 17.27 0.45999999999998 13.87 0.45999999999998 9.57000000000005 C 0.45999999999998 5.37 4.95999999999998 0.870000000000005 9.15999999999997 0.870000000000005 Z" mask="url(#clip2370)" transform="matrix(1 0 0 1 -556 -15665 ) matrix(1 0 0 1 556 15665 )"/></g></svg>