<svg xmlns="http://www.w3.org/2000/svg" xmlns:xlink="http://www.w3.org/1999/xlink" width="47" height="48" version="1.1"><defs><mask id="clip2372" fill="#fff"><path fill-rule="evenodd" d="M 24.2 0.960000000000036 C 36.6 0.960000000000036 46.7 12.0600000000001 46.7 24.5600000000001 C 46.7 36.96 36.6 47.0600000000001 24.2 47.0600000000001 C 11.7 47.0600000000001 0.600000000000023 36.96 0.600000000000023 24.5600000000001 C 0.600000000000023 12.0600000000001 11.7 0.960000000000036 24.2 0.960000000000036 Z"/></mask></defs><g><path fill="#ffb539" fill-rule="nonzero" stroke="none" d="M 24.2 0.960000000000036 C 36.6 0.960000000000036 46.7 12.0600000000001 46.7 24.5600000000001 C 46.7 36.96 36.6 47.0600000000001 24.2 47.0600000000001 C 11.7 47.0600000000001 0.600000000000023 36.96 0.600000000000023 24.5600000000001 C 0.600000000000023 12.0600000000001 11.7 0.960000000000036 24.2 0.960000000000036 Z" transform="matrix(1 0 0 1 -541 -15430 ) matrix(1 0 0 1 541 15430 )"/><path fill="none" stroke="#ffb539" stroke-width="2" d="M 24.2 0.960000000000036 C 36.6 0.960000000000036 46.7 12.0600000000001 46.7 24.5600000000001 C 46.7 36.96 36.6 47.0600000000001 24.2 47.0600000000001 C 11.7 47.0600000000001 0.600000000000023 36.96 0.600000000000023 24.5600000000001 C 0.600000000000023 12.0600000000001 11.7 0.960000000000036 24.2 0.960000000000036 Z" mask="url(#clip2372)" transform="matrix(1 0 0 1 -541 -15430 ) matrix(1 0 0 1 541 15430 )"/></g></svg>