<svg xmlns="http://www.w3.org/2000/svg" xmlns:xlink="http://www.w3.org/1999/xlink" width="62" height="62" version="1.1"><defs><mask id="clip2361" fill="#fff"><path fill-rule="evenodd" d="M 31.61 0.909999999999968 C 48.21 0.909999999999968 61.61 15.3099999999999 61.61 31.91 C 61.61 48.51 48.21 61.91 31.61 61.91 C 15.01 61.91 0.610000000000014 48.51 0.610000000000014 31.91 C 0.610000000000014 15.3099999999999 15.01 0.909999999999968 31.61 0.909999999999968 Z"/></mask></defs><g><path fill="#8ae0ae" fill-rule="nonzero" stroke="none" d="M 31.61 0.909999999999968 C 48.21 0.909999999999968 61.61 15.3099999999999 61.61 31.91 C 61.61 48.51 48.21 61.91 31.61 61.91 C 15.01 61.91 0.610000000000014 48.51 0.610000000000014 31.91 C 0.610000000000014 15.3099999999999 15.01 0.909999999999968 31.61 0.909999999999968 Z" transform="matrix(1 0 0 1 -319 -15628 ) matrix(1 0 0 1 319 15628 )"/><path fill="none" stroke="#8ae0ae" stroke-width="2" d="M 31.61 0.909999999999968 C 48.21 0.909999999999968 61.61 15.3099999999999 61.61 31.91 C 61.61 48.51 48.21 61.91 31.61 61.91 C 15.01 61.91 0.610000000000014 48.51 0.610000000000014 31.91 C 0.610000000000014 15.3099999999999 15.01 0.909999999999968 31.61 0.909999999999968 Z" mask="url(#clip2361)" transform="matrix(1 0 0 1 -319 -15628 ) matrix(1 0 0 1 319 15628 )"/></g></svg>