<svg xmlns="http://www.w3.org/2000/svg" xmlns:xlink="http://www.w3.org/1999/xlink" width="48" height="47" version="1.1"><defs><mask id="clip2364" fill="#fff"><path fill-rule="evenodd" d="M 24.5500000000001 0.420000000000016 C 36.95 0.420000000000016 47.0500000000001 11.52 47.0500000000001 24.02 C 47.0500000000001 36.42 36.95 46.52 24.5500000000001 46.52 C 12.0500000000001 46.52 0.950000000000045 36.42 0.950000000000045 24.02 C 0.950000000000045 11.52 12.0500000000001 0.420000000000016 24.5500000000001 0.420000000000016 Z"/></mask></defs><g><path fill="#8ae0ae" fill-rule="nonzero" stroke="none" d="M 24.5500000000001 0.420000000000016 C 36.95 0.420000000000016 47.0500000000001 11.52 47.0500000000001 24.02 C 47.0500000000001 36.42 36.95 46.52 24.5500000000001 46.52 C 12.0500000000001 46.52 0.950000000000045 36.42 0.950000000000045 24.02 C 0.950000000000045 11.52 12.0500000000001 0.420000000000016 24.5500000000001 0.420000000000016 Z" transform="matrix(1 0 0 1 -369 -15499 ) matrix(1 0 0 1 369 15499 )"/><path fill="none" stroke="#8ae0ae" stroke-width="2" d="M 24.5500000000001 0.420000000000016 C 36.95 0.420000000000016 47.0500000000001 11.52 47.0500000000001 24.02 C 47.0500000000001 36.42 36.95 46.52 24.5500000000001 46.52 C 12.0500000000001 46.52 0.950000000000045 36.42 0.950000000000045 24.02 C 0.950000000000045 11.52 12.0500000000001 0.420000000000016 24.5500000000001 0.420000000000016 Z" mask="url(#clip2364)" transform="matrix(1 0 0 1 -369 -15499 ) matrix(1 0 0 1 369 15499 )"/></g></svg>