<?xml version="1.0" encoding="utf-8"?>
<svg version="1.1" xmlns:xlink="http://www.w3.org/1999/xlink" width="47px" height="47px" xmlns="http://www.w3.org/2000/svg">
  <defs>
    <mask fill="white" id="clip2368">
      <path d="M 24.38 0.100000000000023  C 36.78 0.100000000000023  46.88 11.2  46.88 23.7  C 46.88 36.1  36.78 46.2  24.38 46.2  C 11.88 46.2  0.779999999999973 36.1  0.779999999999973 23.7  C 0.779999999999973 11.2  11.88 0.100000000000023  24.38 0.100000000000023  Z " fill-rule="evenodd" />
    </mask>
  </defs>
  <g transform="matrix(1 0 0 1 -455 -15558 )">
    <path d="M 24.38 0.100000000000023  C 36.78 0.100000000000023  46.88 11.2  46.88 23.7  C 46.88 36.1  36.78 46.2  24.38 46.2  C 11.88 46.2  0.779999999999973 36.1  0.779999999999973 23.7  C 0.779999999999973 11.2  11.88 0.100000000000023  24.38 0.100000000000023  Z " fill-rule="nonzero" fill="#8ae0ae" stroke="none" transform="matrix(1 0 0 1 455 15558 )" />
    <path d="M 24.38 0.100000000000023  C 36.78 0.100000000000023  46.88 11.2  46.88 23.7  C 46.88 36.1  36.78 46.2  24.38 46.2  C 11.88 46.2  0.779999999999973 36.1  0.779999999999973 23.7  C 0.779999999999973 11.2  11.88 0.100000000000023  24.38 0.100000000000023  Z " stroke-width="2" stroke="#8ae0ae" fill="none" transform="matrix(1 0 0 1 455 15558 )" mask="url(#clip2368)" />
  </g>
</svg>