<svg xmlns="http://www.w3.org/2000/svg" xmlns:xlink="http://www.w3.org/1999/xlink" width="62" height="62" version="1.1"><defs><mask id="clip2375" fill="#fff"><path fill-rule="evenodd" d="M 31.8299999999999 0.330000000000041 C 48.43 0.330000000000041 61.8299999999999 14.73 61.8299999999999 31.33 C 61.8299999999999 47.9300000000001 48.43 61.33 31.8299999999999 61.33 C 15.2299999999999 61.33 0.829999999999927 47.9300000000001 0.829999999999927 31.33 C 0.829999999999927 14.73 15.2299999999999 0.330000000000041 31.8299999999999 0.330000000000041 Z"/></mask></defs><g><path fill="#1e6183" fill-rule="nonzero" stroke="none" d="M 31.8299999999999 0.330000000000041 C 48.43 0.330000000000041 61.8299999999999 14.73 61.8299999999999 31.33 C 61.8299999999999 47.9300000000001 48.43 61.33 31.8299999999999 61.33 C 15.2299999999999 61.33 0.829999999999927 47.9300000000001 0.829999999999927 31.33 C 0.829999999999927 14.73 15.2299999999999 0.330000000000041 31.8299999999999 0.330000000000041 Z" transform="matrix(1 0 0 1 -705 -15521 ) matrix(1 0 0 1 705 15521 )"/><path fill="none" stroke="#1d6183" stroke-width="2" d="M 31.8299999999999 0.330000000000041 C 48.43 0.330000000000041 61.8299999999999 14.73 61.8299999999999 31.33 C 61.8299999999999 47.9300000000001 48.43 61.33 31.8299999999999 61.33 C 15.2299999999999 61.33 0.829999999999927 47.9300000000001 0.829999999999927 31.33 C 0.829999999999927 14.73 15.2299999999999 0.330000000000041 31.8299999999999 0.330000000000041 Z" mask="url(#clip2375)" transform="matrix(1 0 0 1 -705 -15521 ) matrix(1 0 0 1 705 15521 )"/></g></svg>