<svg xmlns="http://www.w3.org/2000/svg" xmlns:xlink="http://www.w3.org/1999/xlink" width="32" height="33" version="1.1"><defs><mask id="clip2366" fill="#fff"><path fill-rule="evenodd" d="M 15.39 0.769999999999982 C 23.79 0.769999999999982 31.59 7.56999999999994 31.59 15.87 C 31.59 24.27 23.79 32.0699999999999 15.39 32.0699999999999 C 7.08999999999998 32.0699999999999 0.289999999999964 24.27 0.289999999999964 15.87 C 0.289999999999964 7.56999999999994 7.08999999999998 0.769999999999982 15.39 0.769999999999982 Z"/></mask></defs><g><path fill="#1e6183" fill-rule="nonzero" stroke="none" d="M 15.39 0.769999999999982 C 23.79 0.769999999999982 31.59 7.56999999999994 31.59 15.87 C 31.59 24.27 23.79 32.0699999999999 15.39 32.0699999999999 C 7.08999999999998 32.0699999999999 0.289999999999964 24.27 0.289999999999964 15.87 C 0.289999999999964 7.56999999999994 7.08999999999998 0.769999999999982 15.39 0.769999999999982 Z" transform="matrix(1 0 0 1 -420 -15643 ) matrix(1 0 0 1 420 15643 )"/><path fill="none" stroke="#1d6183" stroke-width="2" d="M 15.39 0.769999999999982 C 23.79 0.769999999999982 31.59 7.56999999999994 31.59 15.87 C 31.59 24.27 23.79 32.0699999999999 15.39 32.0699999999999 C 7.08999999999998 32.0699999999999 0.289999999999964 24.27 0.289999999999964 15.87 C 0.289999999999964 7.56999999999994 7.08999999999998 0.769999999999982 15.39 0.769999999999982 Z" mask="url(#clip2366)" transform="matrix(1 0 0 1 -420 -15643 ) matrix(1 0 0 1 420 15643 )"/></g></svg>