<svg xmlns="http://www.w3.org/2000/svg" xmlns:xlink="http://www.w3.org/1999/xlink" width="47" height="47" version="1.1"><defs><mask id="clip2376" fill="#fff"><path fill-rule="evenodd" d="M 23.6800000000001 0.719999999999999 C 36.08 0.719999999999999 46.1800000000001 11.82 46.1800000000001 24.32 C 46.1800000000001 36.72 36.08 46.82 23.6800000000001 46.82 C 11.1800000000001 46.82 0.0800000000000409 36.72 0.0800000000000409 24.32 C 0.0800000000000409 11.82 11.1800000000001 0.719999999999999 23.6800000000001 0.719999999999999 Z"/></mask></defs><g><path fill="#ffb539" fill-rule="nonzero" stroke="none" d="M 23.6800000000001 0.719999999999999 C 36.08 0.719999999999999 46.1800000000001 11.82 46.1800000000001 24.32 C 46.1800000000001 36.72 36.08 46.82 23.6800000000001 46.82 C 11.1800000000001 46.82 0.0800000000000409 36.72 0.0800000000000409 24.32 C 0.0800000000000409 11.82 11.1800000000001 0.719999999999999 23.6800000000001 0.719999999999999 Z" transform="matrix(1 0 0 1 -799 -15352 ) matrix(1 0 0 1 799 15352 )"/><path fill="none" stroke="#ffb539" stroke-width="2" d="M 23.6800000000001 0.719999999999999 C 36.08 0.719999999999999 46.1800000000001 11.82 46.1800000000001 24.32 C 46.1800000000001 36.72 36.08 46.82 23.6800000000001 46.82 C 11.1800000000001 46.82 0.0800000000000409 36.72 0.0800000000000409 24.32 C 0.0800000000000409 11.82 11.1800000000001 0.719999999999999 23.6800000000001 0.719999999999999 Z" mask="url(#clip2376)" transform="matrix(1 0 0 1 -799 -15352 ) matrix(1 0 0 1 799 15352 )"/></g></svg>