<svg xmlns="http://www.w3.org/2000/svg" xmlns:xlink="http://www.w3.org/1999/xlink" width="62" height="62" version="1.1"><defs><mask id="clip2371" fill="#fff"><path fill-rule="evenodd" d="M 31.17 0.330000000000041 C 47.77 0.330000000000041 61.17 14.73 61.17 31.33 C 61.17 47.9300000000001 47.77 61.33 31.17 61.33 C 14.57 61.33 0.170000000000016 47.9300000000001 0.170000000000016 31.33 C 0.170000000000016 14.73 14.57 0.330000000000041 31.17 0.330000000000041 Z"/></mask></defs><g><path fill="#8ae0ae" fill-rule="nonzero" stroke="none" d="M 31.17 0.330000000000041 C 47.77 0.330000000000041 61.17 14.73 61.17 31.33 C 61.17 47.9300000000001 47.77 61.33 31.17 61.33 C 14.57 61.33 0.170000000000016 47.9300000000001 0.170000000000016 31.33 C 0.170000000000016 14.73 14.57 0.330000000000041 31.17 0.330000000000041 Z" transform="matrix(1 0 0 1 -534 -15521 ) matrix(1 0 0 1 534 15521 )"/><path fill="none" stroke="#8ae0ae" stroke-width="2" d="M 31.17 0.330000000000041 C 47.77 0.330000000000041 61.17 14.73 61.17 31.33 C 61.17 47.9300000000001 47.77 61.33 31.17 61.33 C 14.57 61.33 0.170000000000016 47.9300000000001 0.170000000000016 31.33 C 0.170000000000016 14.73 14.57 0.330000000000041 31.17 0.330000000000041 Z" mask="url(#clip2371)" transform="matrix(1 0 0 1 -534 -15521 ) matrix(1 0 0 1 534 15521 )"/></g></svg>