<?xml version="1.0" encoding="utf-8"?>
<svg version="1.1" xmlns:xlink="http://www.w3.org/1999/xlink" width="314px" height="51px" xmlns="http://www.w3.org/2000/svg">
  <defs>
    <mask fill="white" id="clip1149">
      <path d="M 0.760000000000005 50.82  C 0.760000000000005 50.82  0.760000000000005 0.719999999999999  0.760000000000005 0.719999999999999  C 0.760000000000005 0.719999999999999  313.76 0.719999999999999  313.76 0.719999999999999  C 313.76 0.719999999999999  313.76 50.82  313.76 50.82  C 313.76 50.82  0.760000000000005 50.82  0.760000000000005 50.82  Z " fill-rule="evenodd" />
    </mask>
  </defs>
  <g transform="matrix(1 0 0 1 -154 -18158 )">
    <path d="M 0.760000000000005 50.82  C 0.760000000000005 50.82  0.760000000000005 0.719999999999999  0.760000000000005 0.719999999999999  C 0.760000000000005 0.719999999999999  313.76 0.719999999999999  313.76 0.719999999999999  C 313.76 0.719999999999999  313.76 50.82  313.76 50.82  C 313.76 50.82  0.760000000000005 50.82  0.760000000000005 50.82  Z " fill-rule="nonzero" fill="#3498db" stroke="none" transform="matrix(1 0 0 1 154 18158 )" />
    <path d="M 0.760000000000005 50.82  C 0.760000000000005 50.82  0.760000000000005 0.719999999999999  0.760000000000005 0.719999999999999  C 0.760000000000005 0.719999999999999  313.76 0.719999999999999  313.76 0.719999999999999  C 313.76 0.719999999999999  313.76 50.82  313.76 50.82  C 313.76 50.82  0.760000000000005 50.82  0.760000000000005 50.82  Z " stroke-width="2" stroke="#3498db" fill="none" transform="matrix(1 0 0 1 154 18158 )" mask="url(#clip1149)" />
  </g>
</svg>