<svg xmlns="http://www.w3.org/2000/svg" xmlns:xlink="http://www.w3.org/1999/xlink" width="62" height="62" version="1.1"><defs><mask id="clip2365" fill="#fff"><path fill-rule="evenodd" d="M 31.52 0.730000000000018 C 48.12 0.730000000000018 61.52 15.13 61.52 31.73 C 61.52 48.33 48.12 61.73 31.52 61.73 C 14.92 61.73 0.519999999999982 48.33 0.519999999999982 31.73 C 0.519999999999982 15.13 14.92 0.730000000000018 31.52 0.730000000000018 Z"/></mask></defs><g><path fill="#8ae0ae" fill-rule="nonzero" stroke="none" d="M 31.52 0.730000000000018 C 48.12 0.730000000000018 61.52 15.13 61.52 31.73 C 61.52 48.33 48.12 61.73 31.52 61.73 C 14.92 61.73 0.519999999999982 48.33 0.519999999999982 31.73 C 0.519999999999982 15.13 14.92 0.730000000000018 31.52 0.730000000000018 Z" transform="matrix(1 0 0 1 -362 -15325 ) matrix(1 0 0 1 362 15325 )"/><path fill="none" stroke="#8ae0ae" stroke-width="2" d="M 31.52 0.730000000000018 C 48.12 0.730000000000018 61.52 15.13 61.52 31.73 C 61.52 48.33 48.12 61.73 31.52 61.73 C 14.92 61.73 0.519999999999982 48.33 0.519999999999982 31.73 C 0.519999999999982 15.13 14.92 0.730000000000018 31.52 0.730000000000018 Z" mask="url(#clip2365)" transform="matrix(1 0 0 1 -362 -15325 ) matrix(1 0 0 1 362 15325 )"/></g></svg>