<?xml version="1.0" encoding="utf-8"?>
<svg version="1.1" xmlns:xlink="http://www.w3.org/1999/xlink" width="17px" height="18px" xmlns="http://www.w3.org/2000/svg">
  <defs>
    <mask fill="white" id="clip2374">
      <path d="M 8.81000000000006 0.759999999999991  C 13.11 0.759999999999991  16.51 5.25999999999999  16.51 9.46000000000004  C 16.51 13.76  13.11 17.16  8.81000000000006 17.16  C 4.61000000000001 17.16  0.110000000000014 13.76  0.110000000000014 9.46000000000004  C 0.110000000000014 5.25999999999999  4.61000000000001 0.759999999999991  8.81000000000006 0.759999999999991  Z " fill-rule="evenodd" />
    </mask>
  </defs>
  <g transform="matrix(1 0 0 1 -728 -15670 )">
    <path d="M 8.81000000000006 0.759999999999991  C 13.11 0.759999999999991  16.51 5.25999999999999  16.51 9.46000000000004  C 16.51 13.76  13.11 17.16  8.81000000000006 17.16  C 4.61000000000001 17.16  0.110000000000014 13.76  0.110000000000014 9.46000000000004  C 0.110000000000014 5.25999999999999  4.61000000000001 0.759999999999991  8.81000000000006 0.759999999999991  Z " fill-rule="nonzero" fill="#ffb539" stroke="none" transform="matrix(1 0 0 1 728 15670 )" />
    <path d="M 8.81000000000006 0.759999999999991  C 13.11 0.759999999999991  16.51 5.25999999999999  16.51 9.46000000000004  C 16.51 13.76  13.11 17.16  8.81000000000006 17.16  C 4.61000000000001 17.16  0.110000000000014 13.76  0.110000000000014 9.46000000000004  C 0.110000000000014 5.25999999999999  4.61000000000001 0.759999999999991  8.81000000000006 0.759999999999991  Z " stroke-width="2" stroke="#ffb539" fill="none" transform="matrix(1 0 0 1 728 15670 )" mask="url(#clip2374)" />
  </g>
</svg>