<svg xmlns="http://www.w3.org/2000/svg" xmlns:xlink="http://www.w3.org/1999/xlink" width="62" height="62" version="1.1"><defs><mask id="clip2367" fill="#fff"><path fill-rule="evenodd" d="M 31.43 0.669999999999959 C 48.03 0.669999999999959 61.43 15.0699999999999 61.43 31.67 C 61.43 48.27 48.03 61.67 31.43 61.67 C 14.83 61.67 0.430000000000007 48.27 0.430000000000007 31.67 C 0.430000000000007 15.0699999999999 14.83 0.669999999999959 31.43 0.669999999999959 Z"/></mask></defs><g><path fill="#1e6183" fill-rule="nonzero" stroke="none" d="M 31.43 0.669999999999959 C 48.03 0.669999999999959 61.43 15.0699999999999 61.43 31.67 C 61.43 48.27 48.03 61.67 31.43 61.67 C 14.83 61.67 0.430000000000007 48.27 0.430000000000007 31.67 C 0.430000000000007 15.0699999999999 14.83 0.669999999999959 31.43 0.669999999999959 Z" transform="matrix(1 0 0 1 -405 -15550 ) matrix(1 0 0 1 405 15550 )"/><path fill="none" stroke="#1d6183" stroke-width="2" d="M 31.43 0.669999999999959 C 48.03 0.669999999999959 61.43 15.0699999999999 61.43 31.67 C 61.43 48.27 48.03 61.67 31.43 61.67 C 14.83 61.67 0.430000000000007 48.27 0.430000000000007 31.67 C 0.430000000000007 15.0699999999999 14.83 0.669999999999959 31.43 0.669999999999959 Z" mask="url(#clip2367)" transform="matrix(1 0 0 1 -405 -15550 ) matrix(1 0 0 1 405 15550 )"/></g></svg>