<svg xmlns="http://www.w3.org/2000/svg" xmlns:xlink="http://www.w3.org/1999/xlink" width="62" height="62" version="1.1"><defs><mask id="clip2378" fill="#fff"><path fill-rule="evenodd" d="M 31.13 0.529999999999973 C 47.73 0.529999999999973 61.1300000000001 14.93 61.1300000000001 31.53 C 61.1300000000001 48.13 47.73 61.53 31.13 61.53 C 14.53 61.53 0.129999999999995 48.13 0.129999999999995 31.53 C 0.129999999999995 14.93 14.53 0.529999999999973 31.13 0.529999999999973 Z"/></mask></defs><g><path fill="#ffb539" fill-rule="nonzero" stroke="none" d="M 31.13 0.529999999999973 C 47.73 0.529999999999973 61.1300000000001 14.93 61.1300000000001 31.53 C 61.1300000000001 48.13 47.73 61.53 31.13 61.53 C 14.53 61.53 0.129999999999995 48.13 0.129999999999995 31.53 C 0.129999999999995 14.93 14.53 0.529999999999973 31.13 0.529999999999973 Z" transform="matrix(1 0 0 1 -1049 -15423 ) matrix(1 0 0 1 1049 15423 )"/><path fill="none" stroke="#ffb539" stroke-width="2" d="M 31.13 0.529999999999973 C 47.73 0.529999999999973 61.1300000000001 14.93 61.1300000000001 31.53 C 61.1300000000001 48.13 47.73 61.53 31.13 61.53 C 14.53 61.53 0.129999999999995 48.13 0.129999999999995 31.53 C 0.129999999999995 14.93 14.53 0.529999999999973 31.13 0.529999999999973 Z" mask="url(#clip2378)" transform="matrix(1 0 0 1 -1049 -15423 ) matrix(1 0 0 1 1049 15423 )"/></g></svg>