<svg xmlns="http://www.w3.org/2000/svg" xmlns:xlink="http://www.w3.org/1999/xlink" width="17" height="18" version="1.1"><defs><mask id="clip2374" fill="#fff"><path fill-rule="evenodd" d="M 8.81000000000006 0.759999999999991 C 13.11 0.759999999999991 16.51 5.25999999999999 16.51 9.46000000000004 C 16.51 13.76 13.11 17.16 8.81000000000006 17.16 C 4.61000000000001 17.16 0.110000000000014 13.76 0.110000000000014 9.46000000000004 C 0.110000000000014 5.25999999999999 4.61000000000001 0.759999999999991 8.81000000000006 0.759999999999991 Z"/></mask></defs><g><path fill="#ffb539" fill-rule="nonzero" stroke="none" d="M 8.81000000000006 0.759999999999991 C 13.11 0.759999999999991 16.51 5.25999999999999 16.51 9.46000000000004 C 16.51 13.76 13.11 17.16 8.81000000000006 17.16 C 4.61000000000001 17.16 0.110000000000014 13.76 0.110000000000014 9.46000000000004 C 0.110000000000014 5.25999999999999 4.61000000000001 0.759999999999991 8.81000000000006 0.759999999999991 Z" transform="matrix(1 0 0 1 -728 -15670 ) matrix(1 0 0 1 728 15670 )"/><path fill="none" stroke="#ffb539" stroke-width="2" d="M 8.81000000000006 0.759999999999991 C 13.11 0.759999999999991 16.51 5.25999999999999 16.51 9.46000000000004 C 16.51 13.76 13.11 17.16 8.81000000000006 17.16 C 4.61000000000001 17.16 0.110000000000014 13.76 0.110000000000014 9.46000000000004 C 0.110000000000014 5.25999999999999 4.61000000000001 0.759999999999991 8.81000000000006 0.759999999999991 Z" mask="url(#clip2374)" transform="matrix(1 0 0 1 -728 -15670 ) matrix(1 0 0 1 728 15670 )"/></g></svg>