<svg xmlns="http://www.w3.org/2000/svg" xmlns:xlink="http://www.w3.org/1999/xlink" width="25" height="25" version="1.1"><defs><mask id="clip2373" fill="#fff"><path fill-rule="evenodd" d="M 11.9699999999999 0.639999999999986 C 18.27 0.639999999999986 24.4699999999999 5.74000000000001 24.4699999999999 12.04 C 24.4699999999999 18.34 18.27 24.54 11.9699999999999 24.54 C 5.66999999999996 24.54 0.569999999999936 18.34 0.569999999999936 12.04 C 0.569999999999936 5.74000000000001 5.66999999999996 0.639999999999986 11.9699999999999 0.639999999999986 Z"/></mask></defs><g><path fill="#ffb539" fill-rule="nonzero" stroke="none" d="M 11.9699999999999 0.639999999999986 C 18.27 0.639999999999986 24.4699999999999 5.74000000000001 24.4699999999999 12.04 C 24.4699999999999 18.34 18.27 24.54 11.9699999999999 24.54 C 5.66999999999996 24.54 0.569999999999936 18.34 0.569999999999936 12.04 C 0.569999999999936 5.74000000000001 5.66999999999996 0.639999999999986 11.9699999999999 0.639999999999986 Z" transform="matrix(1 0 0 1 -638 -15373 ) matrix(1 0 0 1 638 15373 )"/><path fill="none" stroke="#ffb539" stroke-width="2" d="M 11.9699999999999 0.639999999999986 C 18.27 0.639999999999986 24.4699999999999 5.74000000000001 24.4699999999999 12.04 C 24.4699999999999 18.34 18.27 24.54 11.9699999999999 24.54 C 5.66999999999996 24.54 0.569999999999936 18.34 0.569999999999936 12.04 C 0.569999999999936 5.74000000000001 5.66999999999996 0.639999999999986 11.9699999999999 0.639999999999986 Z" mask="url(#clip2373)" transform="matrix(1 0 0 1 -638 -15373 ) matrix(1 0 0 1 638 15373 )"/></g></svg>