<?xml version="1.0" encoding="utf-8"?>
<svg version="1.1" xmlns:xlink="http://www.w3.org/1999/xlink" width="26px" height="26px" xmlns="http://www.w3.org/2000/svg">
  <defs>
    <radialGradient cx="118.39" cy="275.18" r="33.5000000000001" gradientTransform="matrix(0.999999999999997 0 0 1 3.5527136788005E-13 0 )" gradientUnits="userSpaceOnUse" id="RadialGradient1149">
      <stop id="Stop1150" stop-color="#fbfbfb" offset="0" />
      <stop id="Stop1151" stop-color="#e1e1e1" offset="1" />
    </radialGradient>
    <mask fill="white" id="clip1152">
      <path d="M 13.71 25.29  C 7.21000000000004 25.29  0.910000000000025 18.99  0.910000000000025 12.39  C 0.910000000000025 5.88999999999999  7.21000000000004 0.589999999999975  13.71 0.589999999999975  C 20.31 0.589999999999975  25.51 5.88999999999999  25.51 12.39  C 25.51 18.99  20.31 25.29  13.71 25.29  Z " fill-rule="evenodd" />
    </mask>
  </defs>
  <g transform="matrix(1 0 0 1 -422 -17227 )">
    <path d="M 13.71 25.29  C 7.21000000000004 25.29  0.910000000000025 18.99  0.910000000000025 12.39  C 0.910000000000025 5.88999999999999  7.21000000000004 0.589999999999975  13.71 0.589999999999975  C 20.31 0.589999999999975  25.51 5.88999999999999  25.51 12.39  C 25.51 18.99  20.31 25.29  13.71 25.29  Z " fill-rule="nonzero" fill="url(#RadialGradient1149)" stroke="none" transform="matrix(1 0 0 1 422 17227 )" />
    <path d="M 13.71 25.29  C 7.21000000000004 25.29  0.910000000000025 18.99  0.910000000000025 12.39  C 0.910000000000025 5.88999999999999  7.21000000000004 0.589999999999975  13.71 0.589999999999975  C 20.31 0.589999999999975  25.51 5.88999999999999  25.51 12.39  C 25.51 18.99  20.31 25.29  13.71 25.29  Z " stroke-width="2" stroke="#909090" fill="none" transform="matrix(1 0 0 1 422 17227 )" mask="url(#clip1152)" />
  </g>
</svg>