<?xml version="1.0" encoding="utf-8"?>
<svg version="1.1" xmlns:xlink="http://www.w3.org/1999/xlink" width="131px" height="32px" xmlns="http://www.w3.org/2000/svg">
  <defs>
    <mask fill="white" id="clip1178">
      <path d="M 0.0600000000000023 31.39  C 0.0600000000000023 31.39  0.0600000000000023 0.889999999999986  0.0600000000000023 0.889999999999986  C 0.0600000000000023 0.889999999999986  130.66 0.889999999999986  130.66 0.889999999999986  C 130.66 0.889999999999986  130.66 31.39  130.66 31.39  C 130.66 31.39  0.0600000000000023 31.39  0.0600000000000023 31.39  Z " fill-rule="evenodd" />
    </mask>
  </defs>
  <g transform="matrix(1 0 0 1 -215 -19256 )">
    <path d="M 0.0600000000000023 31.39  C 0.0600000000000023 31.39  0.0600000000000023 0.889999999999986  0.0600000000000023 0.889999999999986  C 0.0600000000000023 0.889999999999986  130.66 0.889999999999986  130.66 0.889999999999986  C 130.66 0.889999999999986  130.66 31.39  130.66 31.39  C 130.66 31.39  0.0600000000000023 31.39  0.0600000000000023 31.39  Z " fill-rule="nonzero" fill="#fc5c57" stroke="none" transform="matrix(1 0 0 1 215 19256 )" />
    <path d="M 0.0600000000000023 31.39  C 0.0600000000000023 31.39  0.0600000000000023 0.889999999999986  0.0600000000000023 0.889999999999986  C 0.0600000000000023 0.889999999999986  130.66 0.889999999999986  130.66 0.889999999999986  C 130.66 0.889999999999986  130.66 31.39  130.66 31.39  C 130.66 31.39  0.0600000000000023 31.39  0.0600000000000023 31.39  Z " stroke-width="2" stroke="#fc5c57" fill="none" transform="matrix(1 0 0 1 215 19256 )" mask="url(#clip1178)" />
  </g>
</svg>