<?xml version="1.0" encoding="utf-8"?>
<svg version="1.1" xmlns:xlink="http://www.w3.org/1999/xlink" width="167px" height="49px" xmlns="http://www.w3.org/2000/svg">
  <defs>
    <mask fill="white" id="clip1170">
      <path d="M 0.759999999999991 48.85  C 0.759999999999991 48.85  0.759999999999991 0.849999999999994  0.759999999999991 0.849999999999994  C 0.759999999999991 0.849999999999994  166.76 0.849999999999994  166.76 0.849999999999994  C 166.76 0.849999999999994  166.76 48.85  166.76 48.85  C 166.76 48.85  0.759999999999991 48.85  0.759999999999991 48.85  Z " fill-rule="evenodd" />
    </mask>
  </defs>
  <g transform="matrix(1 0 0 1 -979 -18207 )">
    <path d="M 0.759999999999991 48.85  C 0.759999999999991 48.85  0.759999999999991 0.849999999999994  0.759999999999991 0.849999999999994  C 0.759999999999991 0.849999999999994  166.76 0.849999999999994  166.76 0.849999999999994  C 166.76 0.849999999999994  166.76 48.85  166.76 48.85  C 166.76 48.85  0.759999999999991 48.85  0.759999999999991 48.85  Z " fill-rule="nonzero" fill="#ffffff" stroke="none" fill-opacity="0" transform="matrix(1 0 0 1 979 18207 )" />
    <path d="M 0.759999999999991 48.85  C 0.759999999999991 48.85  0.759999999999991 0.849999999999994  0.759999999999991 0.849999999999994  C 0.759999999999991 0.849999999999994  166.76 0.849999999999994  166.76 0.849999999999994  C 166.76 0.849999999999994  166.76 48.85  166.76 48.85  C 166.76 48.85  0.759999999999991 48.85  0.759999999999991 48.85  Z " stroke-width="2" stroke="#ffffff" fill="none" transform="matrix(1 0 0 1 979 18207 )" mask="url(#clip1170)" />
  </g>
</svg>