<svg xmlns="http://www.w3.org/2000/svg" xmlns:xlink="http://www.w3.org/1999/xlink" width="71" height="71" version="1.1"><defs><mask id="clip2456" fill="#fff"><path fill-rule="evenodd" d="M 34.97 36.08 C 34.97 36.08 34.97 0.0800000000000409 34.97 0.0800000000000409 C 54.27 0.0800000000000409 70.87 16.7800000000001 70.87 36.08 C 70.87 55.38 54.27 70.98 34.97 70.98 C 17.87 70.98 3.67000000000002 58.7800000000001 0.57000000000005 42.58 C 0.57000000000005 42.58 34.97 36.08 34.97 36.08 Z"/></mask></defs><g><path fill="#2da2bf" fill-rule="nonzero" stroke="none" d="M 34.97 36.08 C 34.97 36.08 34.97 0.0800000000000409 34.97 0.0800000000000409 C 54.27 0.0800000000000409 70.87 16.7800000000001 70.87 36.08 C 70.87 55.38 54.27 70.98 34.97 70.98 C 17.87 70.98 3.67000000000002 58.7800000000001 0.57000000000005 42.58 C 0.57000000000005 42.58 34.97 36.08 34.97 36.08 Z" transform="matrix(1 0 0 1 -509 -16657 ) matrix(1 0 0 1 509 16657 )"/><path fill="none" stroke="#2da2bf" stroke-width="2" d="M 34.97 36.08 C 34.97 36.08 34.97 0.0800000000000409 34.97 0.0800000000000409 C 54.27 0.0800000000000409 70.87 16.7800000000001 70.87 36.08 C 70.87 55.38 54.27 70.98 34.97 70.98 C 17.87 70.98 3.67000000000002 58.7800000000001 0.57000000000005 42.58 C 0.57000000000005 42.58 34.97 36.08 34.97 36.08 Z" mask="url(#clip2456)" transform="matrix(1 0 0 1 -509 -16657 ) matrix(1 0 0 1 509 16657 )"/></g></svg>