<?xml version="1.0" encoding="utf-8"?>
<svg version="1.1" xmlns:xlink="http://www.w3.org/1999/xlink" width="34px" height="86px" xmlns="http://www.w3.org/2000/svg">
  <defs>
    <mask fill="white" id="clip2385">
      <path d="M 0.379999999999995 85.22  C 0.379999999999995 85.22  0.379999999999995 0.920000000000016  0.379999999999995 0.920000000000016  C 0.379999999999995 0.920000000000016  33.38 0.920000000000016  33.38 0.920000000000016  C 33.38 0.920000000000016  33.38 85.22  33.38 85.22  C 33.38 85.22  0.379999999999995 85.22  0.379999999999995 85.22  Z " fill-rule="evenodd" />
    </mask>
  </defs>
  <g transform="matrix(1 0 0 1 -160 -16433 )">
    <path d="M 0.379999999999995 85.22  C 0.379999999999995 85.22  0.379999999999995 0.920000000000016  0.379999999999995 0.920000000000016  C 0.379999999999995 0.920000000000016  33.38 0.920000000000016  33.38 0.920000000000016  C 33.38 0.920000000000016  33.38 85.22  33.38 85.22  C 33.38 85.22  0.379999999999995 85.22  0.379999999999995 85.22  Z " fill-rule="nonzero" fill="#ffaf00" stroke="none" transform="matrix(1 0 0 1 160 16433 )" />
    <path d="M 0.379999999999995 85.22  C 0.379999999999995 85.22  0.379999999999995 0.920000000000016  0.379999999999995 0.920000000000016  C 0.379999999999995 0.920000000000016  33.38 0.920000000000016  33.38 0.920000000000016  C 33.38 0.920000000000016  33.38 85.22  33.38 85.22  C 33.38 85.22  0.379999999999995 85.22  0.379999999999995 85.22  Z " stroke-width="2" stroke="#ffaf00" fill="none" transform="matrix(1 0 0 1 160 16433 )" mask="url(#clip2385)" />
  </g>
</svg>