<svg xmlns="http://www.w3.org/2000/svg" xmlns:xlink="http://www.w3.org/1999/xlink" width="165" height="12" version="1.1"><defs><mask id="clip2404" fill="#fff"><path fill-rule="evenodd" d="M 0.92999999999995 11.61 C 0.92999999999995 11.61 0.92999999999995 0.509999999999991 0.92999999999995 0.509999999999991 C 0.92999999999995 0.509999999999991 164.23 0.509999999999991 164.23 0.509999999999991 C 164.23 0.509999999999991 164.23 11.61 164.23 11.61 C 164.23 11.61 0.92999999999995 11.61 0.92999999999995 11.61 Z"/></mask></defs><g><path fill="#ffaf00" fill-rule="nonzero" stroke="none" d="M 0.92999999999995 11.61 C 0.92999999999995 11.61 0.92999999999995 0.509999999999991 0.92999999999995 0.509999999999991 C 0.92999999999995 0.509999999999991 164.23 0.509999999999991 164.23 0.509999999999991 C 164.23 0.509999999999991 164.23 11.61 164.23 11.61 C 164.23 11.61 0.92999999999995 11.61 0.92999999999995 11.61 Z" transform="matrix(1 0 0 1 -903 -16436 ) matrix(1 0 0 1 903 16436 )"/><path fill="none" stroke="#ffaf00" stroke-width="2" d="M 0.92999999999995 11.61 C 0.92999999999995 11.61 0.92999999999995 0.509999999999991 0.92999999999995 0.509999999999991 C 0.92999999999995 0.509999999999991 164.23 0.509999999999991 164.23 0.509999999999991 C 164.23 0.509999999999991 164.23 11.61 164.23 11.61 C 164.23 11.61 0.92999999999995 11.61 0.92999999999995 11.61 Z" mask="url(#clip2404)" transform="matrix(1 0 0 1 -903 -16436 ) matrix(1 0 0 1 903 16436 )"/></g></svg>