<svg xmlns="http://www.w3.org/2000/svg" xmlns:xlink="http://www.w3.org/1999/xlink" width="34" height="57" version="1.1"><defs><mask id="clip2386" fill="#fff"><path fill-rule="evenodd" d="M 0.949999999999989 56.27 C 0.949999999999989 56.27 0.949999999999989 0.370000000000005 0.949999999999989 0.370000000000005 C 0.949999999999989 0.370000000000005 33.95 0.370000000000005 33.95 0.370000000000005 C 33.95 0.370000000000005 33.95 56.27 33.95 56.27 C 33.95 56.27 0.949999999999989 56.27 0.949999999999989 56.27 Z"/></mask></defs><g><path fill="#ffaf00" fill-rule="nonzero" stroke="none" d="M 0.949999999999989 56.27 C 0.949999999999989 56.27 0.949999999999989 0.370000000000005 0.949999999999989 0.370000000000005 C 0.949999999999989 0.370000000000005 33.95 0.370000000000005 33.95 0.370000000000005 C 33.95 0.370000000000005 33.95 56.27 33.95 56.27 C 33.95 56.27 0.949999999999989 56.27 0.949999999999989 56.27 Z" transform="matrix(1 0 0 1 -217 -16462 ) matrix(1 0 0 1 217 16462 )"/><path fill="none" stroke="#ffaf00" stroke-width="2" d="M 0.949999999999989 56.27 C 0.949999999999989 56.27 0.949999999999989 0.370000000000005 0.949999999999989 0.370000000000005 C 0.949999999999989 0.370000000000005 33.95 0.370000000000005 33.95 0.370000000000005 C 33.95 0.370000000000005 33.95 56.27 33.95 56.27 C 33.95 56.27 0.949999999999989 56.27 0.949999999999989 56.27 Z" mask="url(#clip2386)" transform="matrix(1 0 0 1 -217 -16462 ) matrix(1 0 0 1 217 16462 )"/></g></svg>