<svg xmlns="http://www.w3.org/2000/svg" xmlns:xlink="http://www.w3.org/1999/xlink" width="34" height="132" version="1.1"><defs><mask id="clip2387" fill="#fff"><path fill-rule="evenodd" d="M 0.519999999999982 131.27 C 0.519999999999982 131.27 0.519999999999982 0.170000000000016 0.519999999999982 0.170000000000016 C 0.519999999999982 0.170000000000016 33.52 0.170000000000016 33.52 0.170000000000016 C 33.52 0.170000000000016 33.52 131.27 33.52 131.27 C 33.52 131.27 0.519999999999982 131.27 0.519999999999982 131.27 Z"/></mask></defs><g><path fill="#ffaf00" fill-rule="nonzero" stroke="none" d="M 0.519999999999982 131.27 C 0.519999999999982 131.27 0.519999999999982 0.170000000000016 0.519999999999982 0.170000000000016 C 0.519999999999982 0.170000000000016 33.52 0.170000000000016 33.52 0.170000000000016 C 33.52 0.170000000000016 33.52 131.27 33.52 131.27 C 33.52 131.27 0.519999999999982 131.27 0.519999999999982 131.27 Z" transform="matrix(1 0 0 1 -275 -16387 ) matrix(1 0 0 1 275 16387 )"/><path fill="none" stroke="#ffaf00" stroke-width="2" d="M 0.519999999999982 131.27 C 0.519999999999982 131.27 0.519999999999982 0.170000000000016 0.519999999999982 0.170000000000016 C 0.519999999999982 0.170000000000016 33.52 0.170000000000016 33.52 0.170000000000016 C 33.52 0.170000000000016 33.52 131.27 33.52 131.27 C 33.52 131.27 0.519999999999982 131.27 0.519999999999982 131.27 Z" mask="url(#clip2387)" transform="matrix(1 0 0 1 -275 -16387 ) matrix(1 0 0 1 275 16387 )"/></g></svg>