<svg xmlns="http://www.w3.org/2000/svg" xmlns:xlink="http://www.w3.org/1999/xlink" width="49" height="12" version="1.1"><defs><mask id="clip2424" fill="#fff"><path fill-rule="evenodd" d="M 0.92999999999995 11.65 C 0.92999999999995 11.65 0.92999999999995 0.549999999999983 0.92999999999995 0.549999999999983 C 0.92999999999995 0.549999999999983 48.3299999999999 0.549999999999983 48.3299999999999 0.549999999999983 C 48.3299999999999 0.549999999999983 48.3299999999999 11.65 48.3299999999999 11.65 C 48.3299999999999 11.65 0.92999999999995 11.65 0.92999999999995 11.65 Z"/></mask></defs><g><path fill="#3498db" fill-rule="nonzero" stroke="none" d="M 0.92999999999995 11.65 C 0.92999999999995 11.65 0.92999999999995 0.549999999999983 0.92999999999995 0.549999999999983 C 0.92999999999995 0.549999999999983 48.3299999999999 0.549999999999983 48.3299999999999 0.549999999999983 C 48.3299999999999 0.549999999999983 48.3299999999999 11.65 48.3299999999999 11.65 C 48.3299999999999 11.65 0.92999999999995 11.65 0.92999999999995 11.65 Z" transform="matrix(1 0 0 1 -903 -16353 ) matrix(1 0 0 1 903 16353 )"/><path fill="none" stroke="#3498db" stroke-width="2" d="M 0.92999999999995 11.65 C 0.92999999999995 11.65 0.92999999999995 0.549999999999983 0.92999999999995 0.549999999999983 C 0.92999999999995 0.549999999999983 48.3299999999999 0.549999999999983 48.3299999999999 0.549999999999983 C 48.3299999999999 0.549999999999983 48.3299999999999 11.65 48.3299999999999 11.65 C 48.3299999999999 11.65 0.92999999999995 11.65 0.92999999999995 11.65 Z" mask="url(#clip2424)" transform="matrix(1 0 0 1 -903 -16353 ) matrix(1 0 0 1 903 16353 )"/></g></svg>