<svg xmlns="http://www.w3.org/2000/svg" xmlns:xlink="http://www.w3.org/1999/xlink" width="28" height="13" version="1.1"><defs><mask id="clip2425" fill="#fff"><path fill-rule="evenodd" d="M 0.0999999999999091 12.28 C 0.0999999999999091 12.28 0.0999999999999091 0.780000000000001 0.0999999999999091 0.780000000000001 C 0.0999999999999091 0.780000000000001 27.9999999999999 0.780000000000001 27.9999999999999 0.780000000000001 C 27.9999999999999 0.780000000000001 27.9999999999999 12.28 27.9999999999999 12.28 C 27.9999999999999 12.28 0.0999999999999091 12.28 0.0999999999999091 12.28 Z"/></mask></defs><g><path fill="#ffaf00" fill-rule="nonzero" stroke="none" d="M 0.0999999999999091 12.28 C 0.0999999999999091 12.28 0.0999999999999091 0.780000000000001 0.0999999999999091 0.780000000000001 C 0.0999999999999091 0.780000000000001 27.9999999999999 0.780000000000001 27.9999999999999 0.780000000000001 C 27.9999999999999 0.780000000000001 27.9999999999999 12.28 27.9999999999999 12.28 C 27.9999999999999 12.28 0.0999999999999091 12.28 0.0999999999999091 12.28 Z" transform="matrix(1 0 0 1 -927 -16314 ) matrix(1 0 0 1 927 16314 )"/><path fill="none" stroke="#ffaf00" stroke-width="2" d="M 0.0999999999999091 12.28 C 0.0999999999999091 12.28 0.0999999999999091 0.780000000000001 0.0999999999999091 0.780000000000001 C 0.0999999999999091 0.780000000000001 27.9999999999999 0.780000000000001 27.9999999999999 0.780000000000001 C 27.9999999999999 0.780000000000001 27.9999999999999 12.28 27.9999999999999 12.28 C 27.9999999999999 12.28 0.0999999999999091 12.28 0.0999999999999091 12.28 Z" mask="url(#clip2425)" transform="matrix(1 0 0 1 -927 -16314 ) matrix(1 0 0 1 927 16314 )"/></g></svg>