<svg xmlns="http://www.w3.org/2000/svg" xmlns:xlink="http://www.w3.org/1999/xlink" width="28" height="12" version="1.1"><defs><mask id="clip2426" fill="#fff"><path fill-rule="evenodd" d="M 0.0999999999999091 11.78 C 0.0999999999999091 11.78 0.0999999999999091 0.280000000000001 0.0999999999999091 0.280000000000001 C 0.0999999999999091 0.280000000000001 27.9999999999999 0.280000000000001 27.9999999999999 0.280000000000001 C 27.9999999999999 0.280000000000001 27.9999999999999 11.78 27.9999999999999 11.78 C 27.9999999999999 11.78 0.0999999999999091 11.78 0.0999999999999091 11.78 Z"/></mask></defs><g><path fill="#3498db" fill-rule="nonzero" stroke="none" d="M 0.0999999999999091 11.78 C 0.0999999999999091 11.78 0.0999999999999091 0.280000000000001 0.0999999999999091 0.280000000000001 C 0.0999999999999091 0.280000000000001 27.9999999999999 0.280000000000001 27.9999999999999 0.280000000000001 C 27.9999999999999 0.280000000000001 27.9999999999999 11.78 27.9999999999999 11.78 C 27.9999999999999 11.78 0.0999999999999091 11.78 0.0999999999999091 11.78 Z" transform="matrix(1 0 0 1 -927 -16294 ) matrix(1 0 0 1 927 16294 )"/><path fill="none" stroke="#3498db" stroke-width="2" d="M 0.0999999999999091 11.78 C 0.0999999999999091 11.78 0.0999999999999091 0.280000000000001 0.0999999999999091 0.280000000000001 C 0.0999999999999091 0.280000000000001 27.9999999999999 0.280000000000001 27.9999999999999 0.280000000000001 C 27.9999999999999 0.280000000000001 27.9999999999999 11.78 27.9999999999999 11.78 C 27.9999999999999 11.78 0.0999999999999091 11.78 0.0999999999999091 11.78 Z" mask="url(#clip2426)" transform="matrix(1 0 0 1 -927 -16294 ) matrix(1 0 0 1 927 16294 )"/></g></svg>