<svg xmlns="http://www.w3.org/2000/svg" xmlns:xlink="http://www.w3.org/1999/xlink" width="134" height="12" version="1.1"><defs><mask id="clip2400" fill="#fff"><path fill-rule="evenodd" d="M 0.92999999999995 11.45 C 0.92999999999995 11.45 0.92999999999995 0.350000000000023 0.92999999999995 0.350000000000023 C 0.92999999999995 0.350000000000023 133.23 0.350000000000023 133.23 0.350000000000023 C 133.23 0.350000000000023 133.23 11.45 133.23 11.45 C 133.23 11.45 0.92999999999995 11.45 0.92999999999995 11.45 Z"/></mask></defs><g><path fill="#ffaf00" fill-rule="nonzero" stroke="none" d="M 0.92999999999995 11.45 C 0.92999999999995 11.45 0.92999999999995 0.350000000000023 0.92999999999995 0.350000000000023 C 0.92999999999995 0.350000000000023 133.23 0.350000000000023 133.23 0.350000000000023 C 133.23 0.350000000000023 133.23 11.45 133.23 11.45 C 133.23 11.45 0.92999999999995 11.45 0.92999999999995 11.45 Z" transform="matrix(1 0 0 1 -903 -16509 ) matrix(1 0 0 1 903 16509 )"/><path fill="none" stroke="#ffaf00" stroke-width="2" d="M 0.92999999999995 11.45 C 0.92999999999995 11.45 0.92999999999995 0.350000000000023 0.92999999999995 0.350000000000023 C 0.92999999999995 0.350000000000023 133.23 0.350000000000023 133.23 0.350000000000023 C 133.23 0.350000000000023 133.23 11.45 133.23 11.45 C 133.23 11.45 0.92999999999995 11.45 0.92999999999995 11.45 Z" mask="url(#clip2400)" transform="matrix(1 0 0 1 -903 -16509 ) matrix(1 0 0 1 903 16509 )"/></g></svg>