<svg xmlns="http://www.w3.org/2000/svg" xmlns:xlink="http://www.w3.org/1999/xlink" width="219" height="13" version="1.1"><defs><mask id="clip2402" fill="#fff"><path fill-rule="evenodd" d="M 0.92999999999995 12.03 C 0.92999999999995 12.03 0.92999999999995 0.92999999999995 0.92999999999995 0.92999999999995 C 0.92999999999995 0.92999999999995 218.23 0.92999999999995 218.23 0.92999999999995 C 218.23 0.92999999999995 218.23 12.03 218.23 12.03 C 218.23 12.03 0.92999999999995 12.03 0.92999999999995 12.03 Z"/></mask></defs><g><path fill="#ffaf00" fill-rule="nonzero" stroke="none" d="M 0.92999999999995 12.03 C 0.92999999999995 12.03 0.92999999999995 0.92999999999995 0.92999999999995 0.92999999999995 C 0.92999999999995 0.92999999999995 218.23 0.92999999999995 218.23 0.92999999999995 C 218.23 0.92999999999995 218.23 12.03 218.23 12.03 C 218.23 12.03 0.92999999999995 12.03 0.92999999999995 12.03 Z" transform="matrix(1 0 0 1 -903 -16472 ) matrix(1 0 0 1 903 16472 )"/><path fill="none" stroke="#ffaf00" stroke-width="2" d="M 0.92999999999995 12.03 C 0.92999999999995 12.03 0.92999999999995 0.92999999999995 0.92999999999995 0.92999999999995 C 0.92999999999995 0.92999999999995 218.23 0.92999999999995 218.23 0.92999999999995 C 218.23 0.92999999999995 218.23 12.03 218.23 12.03 C 218.23 12.03 0.92999999999995 12.03 0.92999999999995 12.03 Z" mask="url(#clip2402)" transform="matrix(1 0 0 1 -903 -16472 ) matrix(1 0 0 1 903 16472 )"/></g></svg>