<svg xmlns="http://www.w3.org/2000/svg" xmlns:xlink="http://www.w3.org/1999/xlink" width="122" height="13" version="1.1"><defs><mask id="clip2457" fill="#fff"><path fill-rule="evenodd" d="M 0.92999999999995 12.4 C 0.92999999999995 12.4 0.92999999999995 0.799999999999955 0.92999999999995 0.799999999999955 C 0.92999999999995 0.799999999999955 121.63 0.799999999999955 121.63 0.799999999999955 C 121.63 0.799999999999955 121.63 12.4 121.63 12.4 C 121.63 12.4 0.92999999999995 12.4 0.92999999999995 12.4 Z"/></mask></defs><g><path fill="#dd7195" fill-rule="nonzero" stroke="none" d="M 0.92999999999995 12.4 C 0.92999999999995 12.4 0.92999999999995 0.799999999999955 0.92999999999995 0.799999999999955 C 0.92999999999995 0.799999999999955 121.63 0.799999999999955 121.63 0.799999999999955 C 121.63 0.799999999999955 121.63 12.4 121.63 12.4 C 121.63 12.4 0.92999999999995 12.4 0.92999999999995 12.4 Z" transform="matrix(1 0 0 1 -903 -16801 ) matrix(1 0 0 1 903 16801 )"/><path fill="none" stroke="#dd7195" stroke-width="2" d="M 0.92999999999995 12.4 C 0.92999999999995 12.4 0.92999999999995 0.799999999999955 0.92999999999995 0.799999999999955 C 0.92999999999995 0.799999999999955 121.63 0.799999999999955 121.63 0.799999999999955 C 121.63 0.799999999999955 121.63 12.4 121.63 12.4 C 121.63 12.4 0.92999999999995 12.4 0.92999999999995 12.4 Z" mask="url(#clip2457)" transform="matrix(1 0 0 1 -903 -16801 ) matrix(1 0 0 1 903 16801 )"/></g></svg>