<svg xmlns="http://www.w3.org/2000/svg" xmlns:xlink="http://www.w3.org/1999/xlink" width="34" height="86" version="1.1"><defs><mask id="clip2385" fill="#fff"><path fill-rule="evenodd" d="M 0.379999999999995 85.22 C 0.379999999999995 85.22 0.379999999999995 0.920000000000016 0.379999999999995 0.920000000000016 C 0.379999999999995 0.920000000000016 33.38 0.920000000000016 33.38 0.920000000000016 C 33.38 0.920000000000016 33.38 85.22 33.38 85.22 C 33.38 85.22 0.379999999999995 85.22 0.379999999999995 85.22 Z"/></mask></defs><g><path fill="#ffaf00" fill-rule="nonzero" stroke="none" d="M 0.379999999999995 85.22 C 0.379999999999995 85.22 0.379999999999995 0.920000000000016 0.379999999999995 0.920000000000016 C 0.379999999999995 0.920000000000016 33.38 0.920000000000016 33.38 0.920000000000016 C 33.38 0.920000000000016 33.38 85.22 33.38 85.22 C 33.38 85.22 0.379999999999995 85.22 0.379999999999995 85.22 Z" transform="matrix(1 0 0 1 -160 -16433 ) matrix(1 0 0 1 160 16433 )"/><path fill="none" stroke="#ffaf00" stroke-width="2" d="M 0.379999999999995 85.22 C 0.379999999999995 85.22 0.379999999999995 0.920000000000016 0.379999999999995 0.920000000000016 C 0.379999999999995 0.920000000000016 33.38 0.920000000000016 33.38 0.920000000000016 C 33.38 0.920000000000016 33.38 85.22 33.38 85.22 C 33.38 85.22 0.379999999999995 85.22 0.379999999999995 85.22 Z" mask="url(#clip2385)" transform="matrix(1 0 0 1 -160 -16433 ) matrix(1 0 0 1 160 16433 )"/></g></svg>