<svg xmlns="http://www.w3.org/2000/svg" xmlns:xlink="http://www.w3.org/1999/xlink" width="37" height="43" version="1.1"><defs><mask id="clip2458" fill="#fff"><path fill-rule="evenodd" d="M 36.97 36.08 C 36.97 36.08 1.57000000000005 42.58 1.57000000000005 42.58 C 1.17000000000002 40.48 0.970000000000027 38.2800000000001 0.970000000000027 36.08 C 0.970000000000027 16.7800000000001 17.67 0.0800000000000409 36.97 0.0800000000000409 C 36.97 0.0800000000000409 36.97 36.08 36.97 36.08 Z"/></mask></defs><g><path fill="#ee7c31" fill-rule="nonzero" stroke="none" d="M 36.97 36.08 C 36.97 36.08 1.57000000000005 42.58 1.57000000000005 42.58 C 1.17000000000002 40.48 0.970000000000027 38.2800000000001 0.970000000000027 36.08 C 0.970000000000027 16.7800000000001 17.67 0.0800000000000409 36.97 0.0800000000000409 C 36.97 0.0800000000000409 36.97 36.08 36.97 36.08 Z" transform="matrix(1 0 0 1 -508 -16657 ) matrix(1 0 0 1 508 16657 )"/><path fill="none" stroke="#ee7c31" stroke-width="2" d="M 36.97 36.08 C 36.97 36.08 1.57000000000005 42.58 1.57000000000005 42.58 C 1.17000000000002 40.48 0.970000000000027 38.2800000000001 0.970000000000027 36.08 C 0.970000000000027 16.7800000000001 17.67 0.0800000000000409 36.97 0.0800000000000409 C 36.97 0.0800000000000409 36.97 36.08 36.97 36.08 Z" mask="url(#clip2458)" transform="matrix(1 0 0 1 -508 -16657 ) matrix(1 0 0 1 508 16657 )"/></g></svg>