<svg xmlns="http://www.w3.org/2000/svg" xmlns:xlink="http://www.w3.org/1999/xlink" width="60" height="12" version="1.1"><defs><mask id="clip2411" fill="#fff"><path fill-rule="evenodd" d="M 0.92999999999995 11.49 C 0.92999999999995 11.49 0.92999999999995 0.389999999999986 0.92999999999995 0.389999999999986 C 0.92999999999995 0.389999999999986 59.8299999999999 0.389999999999986 59.8299999999999 0.389999999999986 C 59.8299999999999 0.389999999999986 59.8299999999999 11.49 59.8299999999999 11.49 C 59.8299999999999 11.49 0.92999999999995 11.49 0.92999999999995 11.49 Z"/></mask></defs><g><path fill="#3498db" fill-rule="nonzero" stroke="none" d="M 0.92999999999995 11.49 C 0.92999999999995 11.49 0.92999999999995 0.389999999999986 0.92999999999995 0.389999999999986 C 0.92999999999995 0.389999999999986 59.8299999999999 0.389999999999986 59.8299999999999 0.389999999999986 C 59.8299999999999 0.389999999999986 59.8299999999999 11.49 59.8299999999999 11.49 C 59.8299999999999 11.49 0.92999999999995 11.49 0.92999999999995 11.49 Z" transform="matrix(1 0 0 1 -903 -16426 ) matrix(1 0 0 1 903 16426 )"/><path fill="none" stroke="#3498db" stroke-width="2" d="M 0.92999999999995 11.49 C 0.92999999999995 11.49 0.92999999999995 0.389999999999986 0.92999999999995 0.389999999999986 C 0.92999999999995 0.389999999999986 59.8299999999999 0.389999999999986 59.8299999999999 0.389999999999986 C 59.8299999999999 0.389999999999986 59.8299999999999 11.49 59.8299999999999 11.49 C 59.8299999999999 11.49 0.92999999999995 11.49 0.92999999999995 11.49 Z" mask="url(#clip2411)" transform="matrix(1 0 0 1 -903 -16426 ) matrix(1 0 0 1 903 16426 )"/></g></svg>