<?xml version="1.0" encoding="utf-8"?>
<svg version="1.1" xmlns:xlink="http://www.w3.org/1999/xlink" width="26px" height="13px" xmlns="http://www.w3.org/2000/svg">
  <defs>
    <mask fill="white" id="clip2422">
      <path d="M 0.92999999999995 12.07  C 0.92999999999995 12.07  0.92999999999995 0.96999999999997  0.92999999999995 0.96999999999997  C 0.92999999999995 0.96999999999997  25.13 0.96999999999997  25.13 0.96999999999997  C 25.13 0.96999999999997  25.13 12.07  25.13 12.07  C 25.13 12.07  0.92999999999995 12.07  0.92999999999995 12.07  Z " fill-rule="evenodd" />
    </mask>
  </defs>
  <g transform="matrix(1 0 0 1 -903 -16389 )">
    <path d="M 0.92999999999995 12.07  C 0.92999999999995 12.07  0.92999999999995 0.96999999999997  0.92999999999995 0.96999999999997  C 0.92999999999995 0.96999999999997  25.13 0.96999999999997  25.13 0.96999999999997  C 25.13 0.96999999999997  25.13 12.07  25.13 12.07  C 25.13 12.07  0.92999999999995 12.07  0.92999999999995 12.07  Z " fill-rule="nonzero" fill="#3498db" stroke="none" transform="matrix(1 0 0 1 903 16389 )" />
    <path d="M 0.92999999999995 12.07  C 0.92999999999995 12.07  0.92999999999995 0.96999999999997  0.92999999999995 0.96999999999997  C 0.92999999999995 0.96999999999997  25.13 0.96999999999997  25.13 0.96999999999997  C 25.13 0.96999999999997  25.13 12.07  25.13 12.07  C 25.13 12.07  0.92999999999995 12.07  0.92999999999995 12.07  Z " stroke-width="2" stroke="#3498db" fill="none" transform="matrix(1 0 0 1 903 16389 )" mask="url(#clip2422)" />
  </g>
</svg>