<svg xmlns="http://www.w3.org/2000/svg" xmlns:xlink="http://www.w3.org/1999/xlink" width="162" height="12" version="1.1"><defs><mask id="clip2453" fill="#fff"><path fill-rule="evenodd" d="M 0.92999999999995 11.95 C 0.92999999999995 11.95 0.92999999999995 0.350000000000023 0.92999999999995 0.350000000000023 C 0.92999999999995 0.350000000000023 161.43 0.350000000000023 161.43 0.350000000000023 C 161.43 0.350000000000023 161.43 11.95 161.43 11.95 C 161.43 11.95 0.92999999999995 11.95 0.92999999999995 11.95 Z"/></mask></defs><g><path fill="#527294" fill-rule="nonzero" stroke="none" d="M 0.92999999999995 11.95 C 0.92999999999995 11.95 0.92999999999995 0.350000000000023 0.92999999999995 0.350000000000023 C 0.92999999999995 0.350000000000023 161.43 0.350000000000023 161.43 0.350000000000023 C 161.43 0.350000000000023 161.43 11.95 161.43 11.95 C 161.43 11.95 0.92999999999995 11.95 0.92999999999995 11.95 Z" transform="matrix(1 0 0 1 -903 -16812 ) matrix(1 0 0 1 903 16812 )"/><path fill="none" stroke="#527294" stroke-width="2" d="M 0.92999999999995 11.95 C 0.92999999999995 11.95 0.92999999999995 0.350000000000023 0.92999999999995 0.350000000000023 C 0.92999999999995 0.350000000000023 161.43 0.350000000000023 161.43 0.350000000000023 C 161.43 0.350000000000023 161.43 11.95 161.43 11.95 C 161.43 11.95 0.92999999999995 11.95 0.92999999999995 11.95 Z" mask="url(#clip2453)" transform="matrix(1 0 0 1 -903 -16812 ) matrix(1 0 0 1 903 16812 )"/></g></svg>