<svg xmlns="http://www.w3.org/2000/svg" xmlns:xlink="http://www.w3.org/1999/xlink" width="34" height="158" version="1.1"><defs><mask id="clip2388" fill="#fff"><path fill-rule="evenodd" d="M 0.0799999999999841 157.27 C 0.0799999999999841 157.27 0.0799999999999841 0.77000000000001 0.0799999999999841 0.77000000000001 C 0.0799999999999841 0.77000000000001 33.08 0.77000000000001 33.08 0.77000000000001 C 33.08 0.77000000000001 33.08 157.27 33.08 157.27 C 33.08 157.27 0.0799999999999841 157.27 0.0799999999999841 157.27 Z"/></mask></defs><g><path fill="#ffaf00" fill-rule="nonzero" stroke="none" d="M 0.0799999999999841 157.27 C 0.0799999999999841 157.27 0.0799999999999841 0.77000000000001 0.0799999999999841 0.77000000000001 C 0.0799999999999841 0.77000000000001 33.08 0.77000000000001 33.08 0.77000000000001 C 33.08 0.77000000000001 33.08 157.27 33.08 157.27 C 33.08 157.27 0.0799999999999841 157.27 0.0799999999999841 157.27 Z" transform="matrix(1 0 0 1 -333 -16361 ) matrix(1 0 0 1 333 16361 )"/><path fill="none" stroke="#ffaf00" stroke-width="2" d="M 0.0799999999999841 157.27 C 0.0799999999999841 157.27 0.0799999999999841 0.77000000000001 0.0799999999999841 0.77000000000001 C 0.0799999999999841 0.77000000000001 33.08 0.77000000000001 33.08 0.77000000000001 C 33.08 0.77000000000001 33.08 157.27 33.08 157.27 C 33.08 157.27 0.0799999999999841 157.27 0.0799999999999841 157.27 Z" mask="url(#clip2388)" transform="matrix(1 0 0 1 -333 -16361 ) matrix(1 0 0 1 333 16361 )"/></g></svg>