<svg xmlns="http://www.w3.org/2000/svg" xmlns:xlink="http://www.w3.org/1999/xlink" width="111" height="12" version="1.1"><defs><mask id="clip2421" fill="#fff"><path fill-rule="evenodd" d="M 0.92999999999995 11.19 C 0.92999999999995 11.19 0.92999999999995 0.089999999999975 0.92999999999995 0.089999999999975 C 0.92999999999995 0.089999999999975 110.13 0.089999999999975 110.13 0.089999999999975 C 110.13 0.089999999999975 110.13 11.19 110.13 11.19 C 110.13 11.19 0.92999999999995 11.19 0.92999999999995 11.19 Z"/></mask></defs><g><path fill="#ffaf00" fill-rule="nonzero" stroke="none" d="M 0.92999999999995 11.19 C 0.92999999999995 11.19 0.92999999999995 0.089999999999975 0.92999999999995 0.089999999999975 C 0.92999999999995 0.089999999999975 110.13 0.089999999999975 110.13 0.089999999999975 C 110.13 0.089999999999975 110.13 11.19 110.13 11.19 C 110.13 11.19 0.92999999999995 11.19 0.92999999999995 11.19 Z" transform="matrix(1 0 0 1 -903 -16400 ) matrix(1 0 0 1 903 16400 )"/><path fill="none" stroke="#ffaf00" stroke-width="2" d="M 0.92999999999995 11.19 C 0.92999999999995 11.19 0.92999999999995 0.089999999999975 0.92999999999995 0.089999999999975 C 0.92999999999995 0.089999999999975 110.13 0.089999999999975 110.13 0.089999999999975 C 110.13 0.089999999999975 110.13 11.19 110.13 11.19 C 110.13 11.19 0.92999999999995 11.19 0.92999999999995 11.19 Z" mask="url(#clip2421)" transform="matrix(1 0 0 1 -903 -16400 ) matrix(1 0 0 1 903 16400 )"/></g></svg>