<?xml version="1.0" encoding="utf-8"?>
<svg version="1.1" xmlns:xlink="http://www.w3.org/1999/xlink" width="122px" height="13px" xmlns="http://www.w3.org/2000/svg">
  <defs>
    <mask fill="white" id="clip2457">
      <path d="M 0.92999999999995 12.4  C 0.92999999999995 12.4  0.92999999999995 0.799999999999955  0.92999999999995 0.799999999999955  C 0.92999999999995 0.799999999999955  121.63 0.799999999999955  121.63 0.799999999999955  C 121.63 0.799999999999955  121.63 12.4  121.63 12.4  C 121.63 12.4  0.92999999999995 12.4  0.92999999999995 12.4  Z " fill-rule="evenodd" />
    </mask>
  </defs>
  <g transform="matrix(1 0 0 1 -903 -16801 )">
    <path d="M 0.92999999999995 12.4  C 0.92999999999995 12.4  0.92999999999995 0.799999999999955  0.92999999999995 0.799999999999955  C 0.92999999999995 0.799999999999955  121.63 0.799999999999955  121.63 0.799999999999955  C 121.63 0.799999999999955  121.63 12.4  121.63 12.4  C 121.63 12.4  0.92999999999995 12.4  0.92999999999995 12.4  Z " fill-rule="nonzero" fill="#dd7195" stroke="none" transform="matrix(1 0 0 1 903 16801 )" />
    <path d="M 0.92999999999995 12.4  C 0.92999999999995 12.4  0.92999999999995 0.799999999999955  0.92999999999995 0.799999999999955  C 0.92999999999995 0.799999999999955  121.63 0.799999999999955  121.63 0.799999999999955  C 121.63 0.799999999999955  121.63 12.4  121.63 12.4  C 121.63 12.4  0.92999999999995 12.4  0.92999999999995 12.4  Z " stroke-width="2" stroke="#dd7195" fill="none" transform="matrix(1 0 0 1 903 16801 )" mask="url(#clip2457)" />
  </g>
</svg>