<svg xmlns="http://www.w3.org/2000/svg" xmlns:xlink="http://www.w3.org/1999/xlink" width="95" height="12" version="1.1"><defs><mask id="clip2403" fill="#fff"><path fill-rule="evenodd" d="M 0.92999999999995 11.91 C 0.92999999999995 11.91 0.92999999999995 0.810000000000002 0.92999999999995 0.810000000000002 C 0.92999999999995 0.810000000000002 94.63 0.810000000000002 94.63 0.810000000000002 C 94.63 0.810000000000002 94.63 11.91 94.63 11.91 C 94.63 11.91 0.92999999999995 11.91 0.92999999999995 11.91 Z"/></mask></defs><g><path fill="#3498db" fill-rule="nonzero" stroke="none" d="M 0.92999999999995 11.91 C 0.92999999999995 11.91 0.92999999999995 0.810000000000002 0.92999999999995 0.810000000000002 C 0.92999999999995 0.810000000000002 94.63 0.810000000000002 94.63 0.810000000000002 C 94.63 0.810000000000002 94.63 11.91 94.63 11.91 C 94.63 11.91 0.92999999999995 11.91 0.92999999999995 11.91 Z" transform="matrix(1 0 0 1 -903 -16462 ) matrix(1 0 0 1 903 16462 )"/><path fill="none" stroke="#3498db" stroke-width="2" d="M 0.92999999999995 11.91 C 0.92999999999995 11.91 0.92999999999995 0.810000000000002 0.92999999999995 0.810000000000002 C 0.92999999999995 0.810000000000002 94.63 0.810000000000002 94.63 0.810000000000002 C 94.63 0.810000000000002 94.63 11.91 94.63 11.91 C 94.63 11.91 0.92999999999995 11.91 0.92999999999995 11.91 Z" mask="url(#clip2403)" transform="matrix(1 0 0 1 -903 -16462 ) matrix(1 0 0 1 903 16462 )"/></g></svg>