<svg xmlns="http://www.w3.org/2000/svg" xmlns:xlink="http://www.w3.org/1999/xlink" width="34" height="101" version="1.1"><defs><mask id="clip2391" fill="#fff"><path fill-rule="evenodd" d="M 0.639999999999986 100.27 C 0.639999999999986 100.27 0.639999999999986 0.670000000000016 0.639999999999986 0.670000000000016 C 0.639999999999986 0.670000000000016 33.64 0.670000000000016 33.64 0.670000000000016 C 33.64 0.670000000000016 33.64 100.27 33.64 100.27 C 33.64 100.27 0.639999999999986 100.27 0.639999999999986 100.27 Z"/></mask></defs><g><path fill="#ffaf00" fill-rule="nonzero" stroke="none" d="M 0.639999999999986 100.27 C 0.639999999999986 100.27 0.639999999999986 0.670000000000016 0.639999999999986 0.670000000000016 C 0.639999999999986 0.670000000000016 33.64 0.670000000000016 33.64 0.670000000000016 C 33.64 0.670000000000016 33.64 100.27 33.64 100.27 C 33.64 100.27 0.639999999999986 100.27 0.639999999999986 100.27 Z" transform="matrix(1 0 0 1 -390 -16418 ) matrix(1 0 0 1 390 16418 )"/><path fill="none" stroke="#ffaf00" stroke-width="2" d="M 0.639999999999986 100.27 C 0.639999999999986 100.27 0.639999999999986 0.670000000000016 0.639999999999986 0.670000000000016 C 0.639999999999986 0.670000000000016 33.64 0.670000000000016 33.64 0.670000000000016 C 33.64 0.670000000000016 33.64 100.27 33.64 100.27 C 33.64 100.27 0.639999999999986 100.27 0.639999999999986 100.27 Z" mask="url(#clip2391)" transform="matrix(1 0 0 1 -390 -16418 ) matrix(1 0 0 1 390 16418 )"/></g></svg>