<svg xmlns="http://www.w3.org/2000/svg" xmlns:xlink="http://www.w3.org/1999/xlink" width="64" height="12" version="1.1"><defs><mask id="clip2401" fill="#fff"><path fill-rule="evenodd" d="M 0.92999999999995 11.33 C 0.92999999999995 11.33 0.92999999999995 0.230000000000018 0.92999999999995 0.230000000000018 C 0.92999999999995 0.230000000000018 63.7299999999999 0.230000000000018 63.7299999999999 0.230000000000018 C 63.7299999999999 0.230000000000018 63.7299999999999 11.33 63.7299999999999 11.33 C 63.7299999999999 11.33 0.92999999999995 11.33 0.92999999999995 11.33 Z"/></mask></defs><g><path fill="#3498db" fill-rule="nonzero" stroke="none" d="M 0.92999999999995 11.33 C 0.92999999999995 11.33 0.92999999999995 0.230000000000018 0.92999999999995 0.230000000000018 C 0.92999999999995 0.230000000000018 63.7299999999999 0.230000000000018 63.7299999999999 0.230000000000018 C 63.7299999999999 0.230000000000018 63.7299999999999 11.33 63.7299999999999 11.33 C 63.7299999999999 11.33 0.92999999999995 11.33 0.92999999999995 11.33 Z" transform="matrix(1 0 0 1 -903 -16499 ) matrix(1 0 0 1 903 16499 )"/><path fill="none" stroke="#3498db" stroke-width="2" d="M 0.92999999999995 11.33 C 0.92999999999995 11.33 0.92999999999995 0.230000000000018 0.92999999999995 0.230000000000018 C 0.92999999999995 0.230000000000018 63.7299999999999 0.230000000000018 63.7299999999999 0.230000000000018 C 63.7299999999999 0.230000000000018 63.7299999999999 11.33 63.7299999999999 11.33 C 63.7299999999999 11.33 0.92999999999995 11.33 0.92999999999995 11.33 Z" mask="url(#clip2401)" transform="matrix(1 0 0 1 -903 -16499 ) matrix(1 0 0 1 903 16499 )"/></g></svg>