<svg xmlns="http://www.w3.org/2000/svg" xmlns:xlink="http://www.w3.org/1999/xlink" width="33" height="34" version="1.1"><defs><radialGradient id="RadialGradient2439" cx=".61" cy="1.48" r="44.3" gradientTransform="matrix(0.999999999999998 0 0 1 9.99200722162641E-16 0 )" gradientUnits="userSpaceOnUse"><stop id="Stop2440" offset="0" stop-color="#fbfbfb"/><stop id="Stop2441" offset="1" stop-color="#e1e1e1"/></radialGradient><mask id="clip2442" fill="#fff"><path fill-rule="evenodd" d="M 15.71 33.28 C 7.11000000000001 33.28 0.110000000000014 25.28 0.110000000000014 16.58 C 0.110000000000014 7.98000000000002 7.11000000000001 0.980000000000018 15.71 0.980000000000018 C 24.41 0.980000000000018 32.41 7.98000000000002 32.41 16.58 C 32.41 25.28 24.41 33.28 15.71 33.28 Z"/></mask></defs><g><path fill="url(#RadialGradient2439)" fill-rule="nonzero" stroke="none" d="M 15.71 33.28 C 7.11000000000001 33.28 0.110000000000014 25.28 0.110000000000014 16.58 C 0.110000000000014 7.98000000000002 7.11000000000001 0.980000000000018 15.71 0.980000000000018 C 24.41 0.980000000000018 32.41 7.98000000000002 32.41 16.58 C 32.41 25.28 24.41 33.28 15.71 33.28 Z" transform="matrix(1 0 0 1 -634 -16421 ) matrix(1 0 0 1 634 16421 )"/><path fill="none" stroke="#909090" stroke-width="2" d="M 15.71 33.28 C 7.11000000000001 33.28 0.110000000000014 25.28 0.110000000000014 16.58 C 0.110000000000014 7.98000000000002 7.11000000000001 0.980000000000018 15.71 0.980000000000018 C 24.41 0.980000000000018 32.41 7.98000000000002 32.41 16.58 C 32.41 25.28 24.41 33.28 15.71 33.28 Z" mask="url(#clip2442)" transform="matrix(1 0 0 1 -634 -16421 ) matrix(1 0 0 1 634 16421 )"/></g></svg>