<svg xmlns="http://www.w3.org/2000/svg" xmlns:xlink="http://www.w3.org/1999/xlink" width="149" height="12" version="1.1"><defs><mask id="clip2469" fill="#fff"><path fill-rule="evenodd" d="M 0.92999999999995 12 C 0.92999999999995 12 0.92999999999995 0.399999999999977 0.92999999999995 0.399999999999977 C 0.92999999999995 0.399999999999977 148.93 0.399999999999977 148.93 0.399999999999977 C 148.93 0.399999999999977 148.93 12 148.93 12 C 148.93 12 0.92999999999995 12 0.92999999999995 12 Z"/></mask></defs><g><path fill="#527294" fill-rule="nonzero" stroke="none" d="M 0.92999999999995 12 C 0.92999999999995 12 0.92999999999995 0.399999999999977 0.92999999999995 0.399999999999977 C 0.92999999999995 0.399999999999977 148.93 0.399999999999977 148.93 0.399999999999977 C 148.93 0.399999999999977 148.93 12 148.93 12 C 148.93 12 0.92999999999995 12 0.92999999999995 12 Z" transform="matrix(1 0 0 1 -903 -16660 ) matrix(1 0 0 1 903 16660 )"/><path fill="none" stroke="#527294" stroke-width="2" d="M 0.92999999999995 12 C 0.92999999999995 12 0.92999999999995 0.399999999999977 0.92999999999995 0.399999999999977 C 0.92999999999995 0.399999999999977 148.93 0.399999999999977 148.93 0.399999999999977 C 148.93 0.399999999999977 148.93 12 148.93 12 C 148.93 12 0.92999999999995 12 0.92999999999995 12 Z" mask="url(#clip2469)" transform="matrix(1 0 0 1 -903 -16660 ) matrix(1 0 0 1 903 16660 )"/></g></svg>