<svg xmlns="http://www.w3.org/2000/svg" xmlns:xlink="http://www.w3.org/1999/xlink" width="71" height="72" version="1.1"><defs><mask id="clip2475" fill="#fff"><path fill-rule="evenodd" d="M 34.33 36.76 C 34.33 36.76 34.33 0.759999999999991 34.33 0.759999999999991 C 53.63 0.759999999999991 70.23 17.46 70.23 36.76 C 70.23 56.0599999999999 53.63 71.66 34.33 71.66 C 18.0300000000001 71.66 4.33000000000004 60.5599999999999 0.430000000000064 45.46 C 0.430000000000064 45.46 34.33 36.76 34.33 36.76 Z"/></mask></defs><g><path fill="#2da2bf" fill-rule="nonzero" stroke="none" d="M 34.33 36.76 C 34.33 36.76 34.33 0.759999999999991 34.33 0.759999999999991 C 53.63 0.759999999999991 70.23 17.46 70.23 36.76 C 70.23 56.0599999999999 53.63 71.66 34.33 71.66 C 18.0300000000001 71.66 4.33000000000004 60.5599999999999 0.430000000000064 45.46 C 0.430000000000064 45.46 34.33 36.76 34.33 36.76 Z" transform="matrix(1 0 0 1 -675 -16740 ) matrix(1 0 0 1 675 16740 )"/><path fill="none" stroke="#2da2bf" stroke-width="2" d="M 34.33 36.76 C 34.33 36.76 34.33 0.759999999999991 34.33 0.759999999999991 C 53.63 0.759999999999991 70.23 17.46 70.23 36.76 C 70.23 56.0599999999999 53.63 71.66 34.33 71.66 C 18.0300000000001 71.66 4.33000000000004 60.5599999999999 0.430000000000064 45.46 C 0.430000000000064 45.46 34.33 36.76 34.33 36.76 Z" mask="url(#clip2475)" transform="matrix(1 0 0 1 -675 -16740 ) matrix(1 0 0 1 675 16740 )"/></g></svg>