<svg xmlns="http://www.w3.org/2000/svg" xmlns:xlink="http://www.w3.org/1999/xlink" width="105" height="12" version="1.1"><defs><mask id="clip2466" fill="#fff"><path fill-rule="evenodd" d="M 0.92999999999995 11.99 C 0.92999999999995 11.99 0.92999999999995 0.389999999999986 0.92999999999995 0.389999999999986 C 0.92999999999995 0.389999999999986 104.13 0.389999999999986 104.13 0.389999999999986 C 104.13 0.389999999999986 104.13 11.99 104.13 11.99 C 104.13 11.99 0.92999999999995 11.99 0.92999999999995 11.99 Z"/></mask></defs><g><path fill="#527294" fill-rule="nonzero" stroke="none" d="M 0.92999999999995 11.99 C 0.92999999999995 11.99 0.92999999999995 0.389999999999986 0.92999999999995 0.389999999999986 C 0.92999999999995 0.389999999999986 104.13 0.389999999999986 104.13 0.389999999999986 C 104.13 0.389999999999986 104.13 11.99 104.13 11.99 C 104.13 11.99 0.92999999999995 11.99 0.92999999999995 11.99 Z" transform="matrix(1 0 0 1 -903 -16698 ) matrix(1 0 0 1 903 16698 )"/><path fill="none" stroke="#527294" stroke-width="2" d="M 0.92999999999995 11.99 C 0.92999999999995 11.99 0.92999999999995 0.389999999999986 0.92999999999995 0.389999999999986 C 0.92999999999995 0.389999999999986 104.13 0.389999999999986 104.13 0.389999999999986 C 104.13 0.389999999999986 104.13 11.99 104.13 11.99 C 104.13 11.99 0.92999999999995 11.99 0.92999999999995 11.99 Z" mask="url(#clip2466)" transform="matrix(1 0 0 1 -903 -16698 ) matrix(1 0 0 1 903 16698 )"/></g></svg>