<svg xmlns="http://www.w3.org/2000/svg" xmlns:xlink="http://www.w3.org/1999/xlink" width="157" height="13" version="1.1"><defs><mask id="clip2460" fill="#fff"><path fill-rule="evenodd" d="M 0.92999999999995 12.41 C 0.92999999999995 12.41 0.92999999999995 0.809999999999945 0.92999999999995 0.809999999999945 C 0.92999999999995 0.809999999999945 156.13 0.809999999999945 156.13 0.809999999999945 C 156.13 0.809999999999945 156.13 12.41 156.13 12.41 C 156.13 12.41 0.92999999999995 12.41 0.92999999999995 12.41 Z"/></mask></defs><g><path fill="#dd7195" fill-rule="nonzero" stroke="none" d="M 0.92999999999995 12.41 C 0.92999999999995 12.41 0.92999999999995 0.809999999999945 0.92999999999995 0.809999999999945 C 0.92999999999995 0.809999999999945 156.13 0.809999999999945 156.13 0.809999999999945 C 156.13 0.809999999999945 156.13 12.41 156.13 12.41 C 156.13 12.41 0.92999999999995 12.41 0.92999999999995 12.41 Z" transform="matrix(1 0 0 1 -903 -16763 ) matrix(1 0 0 1 903 16763 )"/><path fill="none" stroke="#dd7195" stroke-width="2" d="M 0.92999999999995 12.41 C 0.92999999999995 12.41 0.92999999999995 0.809999999999945 0.92999999999995 0.809999999999945 C 0.92999999999995 0.809999999999945 156.13 0.809999999999945 156.13 0.809999999999945 C 156.13 0.809999999999945 156.13 12.41 156.13 12.41 C 156.13 12.41 0.92999999999995 12.41 0.92999999999995 12.41 Z" mask="url(#clip2460)" transform="matrix(1 0 0 1 -903 -16763 ) matrix(1 0 0 1 903 16763 )"/></g></svg>