<svg xmlns="http://www.w3.org/2000/svg" xmlns:xlink="http://www.w3.org/1999/xlink" width="29" height="13" version="1.1"><defs><mask id="clip2473" fill="#fff"><path fill-rule="evenodd" d="M 0.759999999999991 12.03 C 0.759999999999991 12.03 0.759999999999991 0.53000000000003 0.759999999999991 0.53000000000003 C 0.759999999999991 0.53000000000003 28.66 0.53000000000003 28.66 0.53000000000003 C 28.66 0.53000000000003 28.66 12.03 28.66 12.03 C 28.66 12.03 0.759999999999991 12.03 0.759999999999991 12.03 Z"/></mask></defs><g><path fill="#527294" fill-rule="nonzero" stroke="none" d="M 0.759999999999991 12.03 C 0.759999999999991 12.03 0.759999999999991 0.53000000000003 0.759999999999991 0.53000000000003 C 0.759999999999991 0.53000000000003 28.66 0.53000000000003 28.66 0.53000000000003 C 28.66 0.53000000000003 28.66 12.03 28.66 12.03 C 28.66 12.03 0.759999999999991 12.03 0.759999999999991 12.03 Z" transform="matrix(1 0 0 1 -902 -16618 ) matrix(1 0 0 1 902 16618 )"/><path fill="none" stroke="#527294" stroke-width="2" d="M 0.759999999999991 12.03 C 0.759999999999991 12.03 0.759999999999991 0.53000000000003 0.759999999999991 0.53000000000003 C 0.759999999999991 0.53000000000003 28.66 0.53000000000003 28.66 0.53000000000003 C 28.66 0.53000000000003 28.66 12.03 28.66 12.03 C 28.66 12.03 0.759999999999991 12.03 0.759999999999991 12.03 Z" mask="url(#clip2473)" transform="matrix(1 0 0 1 -902 -16618 ) matrix(1 0 0 1 902 16618 )"/></g></svg>