<svg xmlns="http://www.w3.org/2000/svg" xmlns:xlink="http://www.w3.org/1999/xlink" width="97" height="13" version="1.1"><defs><mask id="clip2465" fill="#fff"><path fill-rule="evenodd" d="M 0.92999999999995 12.4200000000001 C 0.92999999999995 12.4200000000001 0.92999999999995 0.82000000000005 0.92999999999995 0.82000000000005 C 0.92999999999995 0.82000000000005 96.93 0.82000000000005 96.93 0.82000000000005 C 96.93 0.82000000000005 96.93 12.4200000000001 96.93 12.4200000000001 C 96.93 12.4200000000001 0.92999999999995 12.4200000000001 0.92999999999995 12.4200000000001 Z"/></mask></defs><g><path fill="#dd7195" fill-rule="nonzero" stroke="none" d="M 0.92999999999995 12.4200000000001 C 0.92999999999995 12.4200000000001 0.92999999999995 0.82000000000005 0.92999999999995 0.82000000000005 C 0.92999999999995 0.82000000000005 96.93 0.82000000000005 96.93 0.82000000000005 C 96.93 0.82000000000005 96.93 12.4200000000001 96.93 12.4200000000001 C 96.93 12.4200000000001 0.92999999999995 12.4200000000001 0.92999999999995 12.4200000000001 Z" transform="matrix(1 0 0 1 -903 -16725 ) matrix(1 0 0 1 903 16725 )"/><path fill="none" stroke="#dd7195" stroke-width="2" d="M 0.92999999999995 12.4200000000001 C 0.92999999999995 12.4200000000001 0.92999999999995 0.82000000000005 0.92999999999995 0.82000000000005 C 0.92999999999995 0.82000000000005 96.93 0.82000000000005 96.93 0.82000000000005 C 96.93 0.82000000000005 96.93 12.4200000000001 96.93 12.4200000000001 C 96.93 12.4200000000001 0.92999999999995 12.4200000000001 0.92999999999995 12.4200000000001 Z" mask="url(#clip2465)" transform="matrix(1 0 0 1 -903 -16725 ) matrix(1 0 0 1 903 16725 )"/></g></svg>