<svg xmlns="http://www.w3.org/2000/svg" xmlns:xlink="http://www.w3.org/1999/xlink" width="29" height="12" version="1.1"><defs><mask id="clip2474" fill="#fff"><path fill-rule="evenodd" d="M 0.759999999999991 11.53 C 0.759999999999991 11.53 0.759999999999991 0.0300000000000296 0.759999999999991 0.0300000000000296 C 0.759999999999991 0.0300000000000296 28.66 0.0300000000000296 28.66 0.0300000000000296 C 28.66 0.0300000000000296 28.66 11.53 28.66 11.53 C 28.66 11.53 0.759999999999991 11.53 0.759999999999991 11.53 Z"/></mask></defs><g><path fill="#dd7195" fill-rule="nonzero" stroke="none" d="M 0.759999999999991 11.53 C 0.759999999999991 11.53 0.759999999999991 0.0300000000000296 0.759999999999991 0.0300000000000296 C 0.759999999999991 0.0300000000000296 28.66 0.0300000000000296 28.66 0.0300000000000296 C 28.66 0.0300000000000296 28.66 11.53 28.66 11.53 C 28.66 11.53 0.759999999999991 11.53 0.759999999999991 11.53 Z" transform="matrix(1 0 0 1 -902 -16598 ) matrix(1 0 0 1 902 16598 )"/><path fill="none" stroke="#dd7195" stroke-width="2" d="M 0.759999999999991 11.53 C 0.759999999999991 11.53 0.759999999999991 0.0300000000000296 0.759999999999991 0.0300000000000296 C 0.759999999999991 0.0300000000000296 28.66 0.0300000000000296 28.66 0.0300000000000296 C 28.66 0.0300000000000296 28.66 11.53 28.66 11.53 C 28.66 11.53 0.759999999999991 11.53 0.759999999999991 11.53 Z" mask="url(#clip2474)" transform="matrix(1 0 0 1 -902 -16598 ) matrix(1 0 0 1 902 16598 )"/></g></svg>