<svg xmlns="http://www.w3.org/2000/svg" xmlns:xlink="http://www.w3.org/1999/xlink" width="72" height="72" version="1.1"><defs><mask id="clip2470" fill="#fff"><path fill-rule="evenodd" d="M 36.61 36.76 C 36.61 36.76 36.61 0.759999999999991 36.61 0.759999999999991 C 55.91 0.759999999999991 71.51 17.46 71.51 36.76 C 71.51 56.0599999999999 55.91 71.66 36.61 71.66 C 17.31 71.66 0.610000000000014 56.0599999999999 0.610000000000014 36.76 C 0.610000000000014 35.26 0.710000000000036 32.76 0.910000000000025 31.36 C 0.910000000000025 31.36 36.61 36.76 36.61 36.76 Z"/></mask></defs><g><path fill="#2da2bf" fill-rule="nonzero" stroke="none" d="M 36.61 36.76 C 36.61 36.76 36.61 0.759999999999991 36.61 0.759999999999991 C 55.91 0.759999999999991 71.51 17.46 71.51 36.76 C 71.51 56.0599999999999 55.91 71.66 36.61 71.66 C 17.31 71.66 0.610000000000014 56.0599999999999 0.610000000000014 36.76 C 0.610000000000014 35.26 0.710000000000036 32.76 0.910000000000025 31.36 C 0.910000000000025 31.36 36.61 36.76 36.61 36.76 Z" transform="matrix(1 0 0 1 -566 -16740 ) matrix(1 0 0 1 566 16740 )"/><path fill="none" stroke="#2da2bf" stroke-width="2" d="M 36.61 36.76 C 36.61 36.76 36.61 0.759999999999991 36.61 0.759999999999991 C 55.91 0.759999999999991 71.51 17.46 71.51 36.76 C 71.51 56.0599999999999 55.91 71.66 36.61 71.66 C 17.31 71.66 0.610000000000014 56.0599999999999 0.610000000000014 36.76 C 0.610000000000014 35.26 0.710000000000036 32.76 0.910000000000025 31.36 C 0.910000000000025 31.36 36.61 36.76 36.61 36.76 Z" mask="url(#clip2470)" transform="matrix(1 0 0 1 -566 -16740 ) matrix(1 0 0 1 566 16740 )"/></g></svg>