<svg xmlns="http://www.w3.org/2000/svg" xmlns:xlink="http://www.w3.org/1999/xlink" width="56" height="13" version="1.1"><defs><mask id="clip2468" fill="#fff"><path fill-rule="evenodd" d="M 0.92999999999995 12.4400000000001 C 0.92999999999995 12.4400000000001 0.92999999999995 0.840000000000032 0.92999999999995 0.840000000000032 C 0.92999999999995 0.840000000000032 55.7299999999999 0.840000000000032 55.7299999999999 0.840000000000032 C 55.7299999999999 0.840000000000032 55.7299999999999 12.4400000000001 55.7299999999999 12.4400000000001 C 55.7299999999999 12.4400000000001 0.92999999999995 12.4400000000001 0.92999999999995 12.4400000000001 Z"/></mask></defs><g><path fill="#dd7195" fill-rule="nonzero" stroke="none" d="M 0.92999999999995 12.4400000000001 C 0.92999999999995 12.4400000000001 0.92999999999995 0.840000000000032 0.92999999999995 0.840000000000032 C 0.92999999999995 0.840000000000032 55.7299999999999 0.840000000000032 55.7299999999999 0.840000000000032 C 55.7299999999999 0.840000000000032 55.7299999999999 12.4400000000001 55.7299999999999 12.4400000000001 C 55.7299999999999 12.4400000000001 0.92999999999995 12.4400000000001 0.92999999999995 12.4400000000001 Z" transform="matrix(1 0 0 1 -903 -16687 ) matrix(1 0 0 1 903 16687 )"/><path fill="none" stroke="#dd7195" stroke-width="2" d="M 0.92999999999995 12.4400000000001 C 0.92999999999995 12.4400000000001 0.92999999999995 0.840000000000032 0.92999999999995 0.840000000000032 C 0.92999999999995 0.840000000000032 55.7299999999999 0.840000000000032 55.7299999999999 0.840000000000032 C 55.7299999999999 0.840000000000032 55.7299999999999 12.4400000000001 55.7299999999999 12.4400000000001 C 55.7299999999999 12.4400000000001 0.92999999999995 12.4400000000001 0.92999999999995 12.4400000000001 Z" mask="url(#clip2468)" transform="matrix(1 0 0 1 -903 -16687 ) matrix(1 0 0 1 903 16687 )"/></g></svg>