<svg xmlns="http://www.w3.org/2000/svg" xmlns:xlink="http://www.w3.org/1999/xlink" width="34" height="37" version="1.1"><defs><mask id="clip2467" fill="#fff"><path fill-rule="evenodd" d="M 33.63 36.08 C 33.63 36.08 0.129999999999995 23.1800000000001 0.129999999999995 23.1800000000001 C 5.23000000000002 10.1800000000001 18.83 0.0800000000000409 33.63 0.0800000000000409 C 33.63 0.0800000000000409 33.63 36.08 33.63 36.08 Z"/></mask></defs><g><path fill="#ee7c31" fill-rule="nonzero" stroke="none" d="M 33.63 36.08 C 33.63 36.08 0.129999999999995 23.1800000000001 0.129999999999995 23.1800000000001 C 5.23000000000002 10.1800000000001 18.83 0.0800000000000409 33.63 0.0800000000000409 C 33.63 0.0800000000000409 33.63 36.08 33.63 36.08 Z" transform="matrix(1 0 0 1 -723 -16657 ) matrix(1 0 0 1 723 16657 )"/><path fill="none" stroke="#ee7c31" stroke-width="2" d="M 33.63 36.08 C 33.63 36.08 0.129999999999995 23.1800000000001 0.129999999999995 23.1800000000001 C 5.23000000000002 10.1800000000001 18.83 0.0800000000000409 33.63 0.0800000000000409 C 33.63 0.0800000000000409 33.63 36.08 33.63 36.08 Z" mask="url(#clip2467)" transform="matrix(1 0 0 1 -723 -16657 ) matrix(1 0 0 1 723 16657 )"/></g></svg>