<svg xmlns="http://www.w3.org/2000/svg" xmlns:xlink="http://www.w3.org/1999/xlink" width="37" height="37" version="1.1"><defs><mask id="clip2472" fill="#fff"><path fill-rule="evenodd" d="M 36.61 36.76 C 36.61 36.76 0.910000000000025 32.36 0.910000000000025 32.36 C 3.00999999999999 15.0599999999999 18.71 0.759999999999991 36.61 0.759999999999991 C 36.61 0.759999999999991 36.61 36.76 36.61 36.76 Z"/></mask></defs><g><path fill="#ee7c31" fill-rule="nonzero" stroke="none" d="M 36.61 36.76 C 36.61 36.76 0.910000000000025 32.36 0.910000000000025 32.36 C 3.00999999999999 15.0599999999999 18.71 0.759999999999991 36.61 0.759999999999991 C 36.61 0.759999999999991 36.61 36.76 36.61 36.76 Z" transform="matrix(1 0 0 1 -566 -16740 ) matrix(1 0 0 1 566 16740 )"/><path fill="none" stroke="#ee7c31" stroke-width="2" d="M 36.61 36.76 C 36.61 36.76 0.910000000000025 32.36 0.910000000000025 32.36 C 3.00999999999999 15.0599999999999 18.71 0.759999999999991 36.61 0.759999999999991 C 36.61 0.759999999999991 36.61 36.76 36.61 36.76 Z" mask="url(#clip2472)" transform="matrix(1 0 0 1 -566 -16740 ) matrix(1 0 0 1 566 16740 )"/></g></svg>