<svg xmlns="http://www.w3.org/2000/svg" xmlns:xlink="http://www.w3.org/1999/xlink" width="71" height="13" version="1.1"><defs><mask id="clip2471" fill="#fff"><path fill-rule="evenodd" d="M 0.92999999999995 12.45 C 0.92999999999995 12.45 0.92999999999995 0.850000000000023 0.92999999999995 0.850000000000023 C 0.92999999999995 0.850000000000023 70.03 0.850000000000023 70.03 0.850000000000023 C 70.03 0.850000000000023 70.03 12.45 70.03 12.45 C 70.03 12.45 0.92999999999995 12.45 0.92999999999995 12.45 Z"/></mask></defs><g><path fill="#dd7195" fill-rule="nonzero" stroke="none" d="M 0.92999999999995 12.45 C 0.92999999999995 12.45 0.92999999999995 0.850000000000023 0.92999999999995 0.850000000000023 C 0.92999999999995 0.850000000000023 70.03 0.850000000000023 70.03 0.850000000000023 C 70.03 0.850000000000023 70.03 12.45 70.03 12.45 C 70.03 12.45 0.92999999999995 12.45 0.92999999999995 12.45 Z" transform="matrix(1 0 0 1 -903 -16649 ) matrix(1 0 0 1 903 16649 )"/><path fill="none" stroke="#dd7195" stroke-width="2" d="M 0.92999999999995 12.45 C 0.92999999999995 12.45 0.92999999999995 0.850000000000023 0.92999999999995 0.850000000000023 C 0.92999999999995 0.850000000000023 70.03 0.850000000000023 70.03 0.850000000000023 C 70.03 0.850000000000023 70.03 12.45 70.03 12.45 C 70.03 12.45 0.92999999999995 12.45 0.92999999999995 12.45 Z" mask="url(#clip2471)" transform="matrix(1 0 0 1 -903 -16649 ) matrix(1 0 0 1 903 16649 )"/></g></svg>