<svg xmlns="http://www.w3.org/2000/svg" xmlns:xlink="http://www.w3.org/1999/xlink" width="225" height="12" version="1.1"><defs><mask id="clip2459" fill="#fff"><path fill-rule="evenodd" d="M 0.92999999999995 11.96 C 0.92999999999995 11.96 0.92999999999995 0.360000000000014 0.92999999999995 0.360000000000014 C 0.92999999999995 0.360000000000014 224.23 0.360000000000014 224.23 0.360000000000014 C 224.23 0.360000000000014 224.23 11.96 224.23 11.96 C 224.23 11.96 0.92999999999995 11.96 0.92999999999995 11.96 Z"/></mask></defs><g><path fill="#527294" fill-rule="nonzero" stroke="none" d="M 0.92999999999995 11.96 C 0.92999999999995 11.96 0.92999999999995 0.360000000000014 0.92999999999995 0.360000000000014 C 0.92999999999995 0.360000000000014 224.23 0.360000000000014 224.23 0.360000000000014 C 224.23 0.360000000000014 224.23 11.96 224.23 11.96 C 224.23 11.96 0.92999999999995 11.96 0.92999999999995 11.96 Z" transform="matrix(1 0 0 1 -903 -16774 ) matrix(1 0 0 1 903 16774 )"/><path fill="none" stroke="#527294" stroke-width="2" d="M 0.92999999999995 11.96 C 0.92999999999995 11.96 0.92999999999995 0.360000000000014 0.92999999999995 0.360000000000014 C 0.92999999999995 0.360000000000014 224.23 0.360000000000014 224.23 0.360000000000014 C 224.23 0.360000000000014 224.23 11.96 224.23 11.96 C 224.23 11.96 0.92999999999995 11.96 0.92999999999995 11.96 Z" mask="url(#clip2459)" transform="matrix(1 0 0 1 -903 -16774 ) matrix(1 0 0 1 903 16774 )"/></g></svg>