<svg xmlns="http://www.w3.org/2000/svg" xmlns:xlink="http://www.w3.org/1999/xlink" width="37" height="46" version="1.1"><defs><mask id="clip2476" fill="#fff"><path fill-rule="evenodd" d="M 36.33 36.76 C 36.33 36.76 1.43000000000006 45.46 1.43000000000006 45.46 C 0.730000000000018 42.66 0.330000000000041 39.76 0.330000000000041 36.76 C 0.330000000000041 17.46 17.0300000000001 0.759999999999991 36.33 0.759999999999991 C 36.33 0.759999999999991 36.33 36.76 36.33 36.76 Z"/></mask></defs><g><path fill="#ee7c31" fill-rule="nonzero" stroke="none" d="M 36.33 36.76 C 36.33 36.76 1.43000000000006 45.46 1.43000000000006 45.46 C 0.730000000000018 42.66 0.330000000000041 39.76 0.330000000000041 36.76 C 0.330000000000041 17.46 17.0300000000001 0.759999999999991 36.33 0.759999999999991 C 36.33 0.759999999999991 36.33 36.76 36.33 36.76 Z" transform="matrix(1 0 0 1 -674 -16740 ) matrix(1 0 0 1 674 16740 )"/><path fill="none" stroke="#ee7c31" stroke-width="2" d="M 36.33 36.76 C 36.33 36.76 1.43000000000006 45.46 1.43000000000006 45.46 C 0.730000000000018 42.66 0.330000000000041 39.76 0.330000000000041 36.76 C 0.330000000000041 17.46 17.0300000000001 0.759999999999991 36.33 0.759999999999991 C 36.33 0.759999999999991 36.33 36.76 36.33 36.76 Z" mask="url(#clip2476)" transform="matrix(1 0 0 1 -674 -16740 ) matrix(1 0 0 1 674 16740 )"/></g></svg>