<svg xmlns="http://www.w3.org/2000/svg" xmlns:xlink="http://www.w3.org/1999/xlink" width="218" height="12" version="1.1"><defs><mask id="clip2463" fill="#fff"><path fill-rule="evenodd" d="M 0.92999999999995 11.97 C 0.92999999999995 11.97 0.92999999999995 0.370000000000005 0.92999999999995 0.370000000000005 C 0.92999999999995 0.370000000000005 217.03 0.370000000000005 217.03 0.370000000000005 C 217.03 0.370000000000005 217.03 11.97 217.03 11.97 C 217.03 11.97 0.92999999999995 11.97 0.92999999999995 11.97 Z"/></mask></defs><g><path fill="#527294" fill-rule="nonzero" stroke="none" d="M 0.92999999999995 11.97 C 0.92999999999995 11.97 0.92999999999995 0.370000000000005 0.92999999999995 0.370000000000005 C 0.92999999999995 0.370000000000005 217.03 0.370000000000005 217.03 0.370000000000005 C 217.03 0.370000000000005 217.03 11.97 217.03 11.97 C 217.03 11.97 0.92999999999995 11.97 0.92999999999995 11.97 Z" transform="matrix(1 0 0 1 -903 -16736 ) matrix(1 0 0 1 903 16736 )"/><path fill="none" stroke="#527294" stroke-width="2" d="M 0.92999999999995 11.97 C 0.92999999999995 11.97 0.92999999999995 0.370000000000005 0.92999999999995 0.370000000000005 C 0.92999999999995 0.370000000000005 217.03 0.370000000000005 217.03 0.370000000000005 C 217.03 0.370000000000005 217.03 11.97 217.03 11.97 C 217.03 11.97 0.92999999999995 11.97 0.92999999999995 11.97 Z" mask="url(#clip2463)" transform="matrix(1 0 0 1 -903 -16736 ) matrix(1 0 0 1 903 16736 )"/></g></svg>