<?xml version="1.0" encoding="utf-8"?>
<svg version="1.1" xmlns:xlink="http://www.w3.org/1999/xlink" width="97px" height="13px" xmlns="http://www.w3.org/2000/svg">
  <defs>
    <mask fill="white" id="clip2465">
      <path d="M 0.92999999999995 12.4200000000001  C 0.92999999999995 12.4200000000001  0.92999999999995 0.82000000000005  0.92999999999995 0.82000000000005  C 0.92999999999995 0.82000000000005  96.93 0.82000000000005  96.93 0.82000000000005  C 96.93 0.82000000000005  96.93 12.4200000000001  96.93 12.4200000000001  C 96.93 12.4200000000001  0.92999999999995 12.4200000000001  0.92999999999995 12.4200000000001  Z " fill-rule="evenodd" />
    </mask>
  </defs>
  <g transform="matrix(1 0 0 1 -903 -16725 )">
    <path d="M 0.92999999999995 12.4200000000001  C 0.92999999999995 12.4200000000001  0.92999999999995 0.82000000000005  0.92999999999995 0.82000000000005  C 0.92999999999995 0.82000000000005  96.93 0.82000000000005  96.93 0.82000000000005  C 96.93 0.82000000000005  96.93 12.4200000000001  96.93 12.4200000000001  C 96.93 12.4200000000001  0.92999999999995 12.4200000000001  0.92999999999995 12.4200000000001  Z " fill-rule="nonzero" fill="#dd7195" stroke="none" transform="matrix(1 0 0 1 903 16725 )" />
    <path d="M 0.92999999999995 12.4200000000001  C 0.92999999999995 12.4200000000001  0.92999999999995 0.82000000000005  0.92999999999995 0.82000000000005  C 0.92999999999995 0.82000000000005  96.93 0.82000000000005  96.93 0.82000000000005  C 96.93 0.82000000000005  96.93 12.4200000000001  96.93 12.4200000000001  C 96.93 12.4200000000001  0.92999999999995 12.4200000000001  0.92999999999995 12.4200000000001  Z " stroke-width="2" stroke="#dd7195" fill="none" transform="matrix(1 0 0 1 903 16725 )" mask="url(#clip2465)" />
  </g>
</svg>