<svg xmlns="http://www.w3.org/2000/svg" xmlns:xlink="http://www.w3.org/1999/xlink" width="213" height="31" version="1.1"><defs><mask id="clip2511" fill="#fff"><path fill-rule="evenodd" d="M 0.240000000000009 15.15 C 0.240000000000009 7.15000000000003 5.34000000000003 0.550000000000011 11.54 0.550000000000011 C 11.54 0.550000000000011 201.14 0.550000000000011 201.14 0.550000000000011 C 207.44 0.550000000000011 212.54 7.15000000000003 212.54 15.15 C 212.54 23.25 207.44 30.85 201.14 30.85 C 201.14 30.85 11.54 30.85 11.54 30.85 C 5.34000000000003 30.85 0.240000000000009 23.25 0.240000000000009 15.15 Z"/></mask></defs><g><path fill="#9b9b9b" fill-rule="nonzero" stroke="none" d="M 0.240000000000009 15.15 C 0.240000000000009 7.15000000000003 5.34000000000003 0.550000000000011 11.54 0.550000000000011 C 11.54 0.550000000000011 201.14 0.550000000000011 201.14 0.550000000000011 C 207.44 0.550000000000011 212.54 7.15000000000003 212.54 15.15 C 212.54 23.25 207.44 30.85 201.14 30.85 C 201.14 30.85 11.54 30.85 11.54 30.85 C 5.34000000000003 30.85 0.240000000000009 23.25 0.240000000000009 15.15 Z" transform="matrix(1 0 0 1 -420 -17416 ) matrix(1 0 0 1 420 17416 )"/><path fill="none" stroke="#9b9b9b" stroke-width="2" d="M 0.240000000000009 15.15 C 0.240000000000009 7.15000000000003 5.34000000000003 0.550000000000011 11.54 0.550000000000011 C 11.54 0.550000000000011 201.14 0.550000000000011 201.14 0.550000000000011 C 207.44 0.550000000000011 212.54 7.15000000000003 212.54 15.15 C 212.54 23.25 207.44 30.85 201.14 30.85 C 201.14 30.85 11.54 30.85 11.54 30.85 C 5.34000000000003 30.85 0.240000000000009 23.25 0.240000000000009 15.15 Z" mask="url(#clip2511)" transform="matrix(1 0 0 1 -420 -17416 ) matrix(1 0 0 1 420 17416 )"/></g></svg>