<?xml version="1.0" encoding="utf-8"?>
<svg version="1.1" xmlns:xlink="http://www.w3.org/1999/xlink" width="87px" height="156px" xmlns="http://www.w3.org/2000/svg">
  <defs>
    <mask fill="white" id="clip2504">
      <path d="M 0.5 86.35  C 0.5 86.35  0.5 0.350000000000023  0.5 0.350000000000023  C 47.4 0.350000000000023  86.5 39.45  86.5 86.35  C 86.5 114.65  72.7 139.65  51.5 155.15  C 51.5 155.15  0.5 86.35  0.5 86.35  Z " fill-rule="evenodd" />
    </mask>
  </defs>
  <g transform="matrix(1 0 0 1 -934 -17499 )">
    <path d="M 0.5 86.35  C 0.5 86.35  0.5 0.350000000000023  0.5 0.350000000000023  C 47.4 0.350000000000023  86.5 39.45  86.5 86.35  C 86.5 114.65  72.7 139.65  51.5 155.15  C 51.5 155.15  0.5 86.35  0.5 86.35  Z " fill-rule="nonzero" fill="#fed372" stroke="none" transform="matrix(1 0 0 1 934 17499 )" />
    <path d="M 0.5 86.35  C 0.5 86.35  0.5 0.350000000000023  0.5 0.350000000000023  C 47.4 0.350000000000023  86.5 39.45  86.5 86.35  C 86.5 114.65  72.7 139.65  51.5 155.15  C 51.5 155.15  0.5 86.35  0.5 86.35  Z " stroke-width="2" stroke="#fed372" fill="none" transform="matrix(1 0 0 1 934 17499 )" mask="url(#clip2504)" />
  </g>
</svg>