<svg xmlns="http://www.w3.org/2000/svg" xmlns:xlink="http://www.w3.org/1999/xlink" width="32" height="32" version="1.1"><defs><radialGradient id="RadialGradient2500" cx="1.45" cy="1.3" r="41.4" gradientTransform="matrix(1 0 0 0.999999999999999 0 8.88178419700125E-16 )" gradientUnits="userSpaceOnUse"><stop id="Stop2501" offset="0" stop-color="#fbfbfb"/><stop id="Stop2502" offset="1" stop-color="#e1e1e1"/></radialGradient><mask id="clip2503" fill="#fff"><path fill-rule="evenodd" d="M 16.55 31.0999999999999 C 8.44999999999999 31.0999999999999 0.949999999999989 23.5 0.949999999999989 15.4 C 0.949999999999989 7.29999999999995 8.44999999999999 0.799999999999955 16.55 0.799999999999955 C 24.65 0.799999999999955 31.15 7.29999999999995 31.15 15.4 C 31.15 23.5 24.65 31.0999999999999 16.55 31.0999999999999 Z"/></mask></defs><g><path fill="url(#RadialGradient2500)" fill-rule="nonzero" stroke="none" d="M 16.55 31.0999999999999 C 8.44999999999999 31.0999999999999 0.949999999999989 23.5 0.949999999999989 15.4 C 0.949999999999989 7.29999999999995 8.44999999999999 0.799999999999955 16.55 0.799999999999955 C 24.65 0.799999999999955 31.15 7.29999999999995 31.15 15.4 C 31.15 23.5 24.65 31.0999999999999 16.55 31.0999999999999 Z" transform="matrix(1 0 0 1 -226 -17552 ) matrix(1 0 0 1 226 17552 )"/><path fill="none" stroke="#909090" stroke-width="2" d="M 16.55 31.0999999999999 C 8.44999999999999 31.0999999999999 0.949999999999989 23.5 0.949999999999989 15.4 C 0.949999999999989 7.29999999999995 8.44999999999999 0.799999999999955 16.55 0.799999999999955 C 24.65 0.799999999999955 31.15 7.29999999999995 31.15 15.4 C 31.15 23.5 24.65 31.0999999999999 16.55 31.0999999999999 Z" mask="url(#clip2503)" transform="matrix(1 0 0 1 -226 -17552 ) matrix(1 0 0 1 226 17552 )"/></g></svg>