<svg xmlns="http://www.w3.org/2000/svg" xmlns:xlink="http://www.w3.org/1999/xlink" width="87" height="113" version="1.1"><defs><mask id="clip2510" fill="#fff"><path fill-rule="evenodd" d="M 86.5 86.35 C 86.5 86.35 4.70000000000005 112.65 4.70000000000005 112.65 C 2 104.35 0.5 95.5500000000001 0.5 86.35 C 0.5 39.45 39.6 0.350000000000023 86.5 0.350000000000023 C 86.5 0.350000000000023 86.5 86.35 86.5 86.35 Z"/></mask></defs><g><path fill="#64c5c5" fill-rule="nonzero" stroke="none" d="M 86.5 86.35 C 86.5 86.35 4.70000000000005 112.65 4.70000000000005 112.65 C 2 104.35 0.5 95.5500000000001 0.5 86.35 C 0.5 39.45 39.6 0.350000000000023 86.5 0.350000000000023 C 86.5 0.350000000000023 86.5 86.35 86.5 86.35 Z" transform="matrix(1 0 0 1 -849 -17499 ) matrix(1 0 0 1 849 17499 )"/><path fill="none" stroke="#64c5c5" stroke-width="2" d="M 86.5 86.35 C 86.5 86.35 4.70000000000005 112.65 4.70000000000005 112.65 C 2 104.35 0.5 95.5500000000001 0.5 86.35 C 0.5 39.45 39.6 0.350000000000023 86.5 0.350000000000023 C 86.5 0.350000000000023 86.5 86.35 86.5 86.35 Z" mask="url(#clip2510)" transform="matrix(1 0 0 1 -849 -17499 ) matrix(1 0 0 1 849 17499 )"/></g></svg>