<svg xmlns="http://www.w3.org/2000/svg" xmlns:xlink="http://www.w3.org/1999/xlink" width="87" height="156" version="1.1"><defs><mask id="clip2504" fill="#fff"><path fill-rule="evenodd" d="M 0.5 86.35 C 0.5 86.35 0.5 0.350000000000023 0.5 0.350000000000023 C 47.4 0.350000000000023 86.5 39.45 86.5 86.35 C 86.5 114.65 72.7 139.65 51.5 155.15 C 51.5 155.15 0.5 86.35 0.5 86.35 Z"/></mask></defs><g><path fill="#fed372" fill-rule="nonzero" stroke="none" d="M 0.5 86.35 C 0.5 86.35 0.5 0.350000000000023 0.5 0.350000000000023 C 47.4 0.350000000000023 86.5 39.45 86.5 86.35 C 86.5 114.65 72.7 139.65 51.5 155.15 C 51.5 155.15 0.5 86.35 0.5 86.35 Z" transform="matrix(1 0 0 1 -934 -17499 ) matrix(1 0 0 1 934 17499 )"/><path fill="none" stroke="#fed372" stroke-width="2" d="M 0.5 86.35 C 0.5 86.35 0.5 0.350000000000023 0.5 0.350000000000023 C 47.4 0.350000000000023 86.5 39.45 86.5 86.35 C 86.5 114.65 72.7 139.65 51.5 155.15 C 51.5 155.15 0.5 86.35 0.5 86.35 Z" mask="url(#clip2504)" transform="matrix(1 0 0 1 -934 -17499 ) matrix(1 0 0 1 934 17499 )"/></g></svg>