<svg xmlns="http://www.w3.org/2000/svg" xmlns:xlink="http://www.w3.org/1999/xlink" width="15" height="15" version="1.1"><defs><mask id="clip2525" fill="#fff"><path fill-rule="evenodd" d="M 8 0.850000000000023 C 11.6 0.850000000000023 14.5 4.75 14.5 8.35000000000002 C 14.5 11.95 11.6 14.85 8 14.85 C 4.39999999999998 14.85 0.5 11.95 0.5 8.35000000000002 C 0.5 4.75 4.39999999999998 0.850000000000023 8 0.850000000000023 Z"/></mask></defs><g><path fill="#fed372" fill-rule="nonzero" stroke="none" d="M 8 0.850000000000023 C 11.6 0.850000000000023 14.5 4.75 14.5 8.35000000000002 C 14.5 11.95 11.6 14.85 8 14.85 C 4.39999999999998 14.85 0.5 11.95 0.5 8.35000000000002 C 0.5 4.75 4.39999999999998 0.850000000000023 8 0.850000000000023 Z" transform="matrix(1 0 0 1 -1039 -17507 ) matrix(1 0 0 1 1039 17507 )"/><path fill="none" stroke="#fed372" stroke-width="2" d="M 8 0.850000000000023 C 11.6 0.850000000000023 14.5 4.75 14.5 8.35000000000002 C 14.5 11.95 11.6 14.85 8 14.85 C 4.39999999999998 14.85 0.5 11.95 0.5 8.35000000000002 C 0.5 4.75 4.39999999999998 0.850000000000023 8 0.850000000000023 Z" mask="url(#clip2525)" transform="matrix(1 0 0 1 -1039 -17507 ) matrix(1 0 0 1 1039 17507 )"/></g></svg>