<svg xmlns="http://www.w3.org/2000/svg" xmlns:xlink="http://www.w3.org/1999/xlink" width="26" height="26" version="1.1"><defs><radialGradient id="RadialGradient2621" cx="118.39" cy="275.18" r="33.5" gradientTransform="matrix(0.999999999999997 0 0 1 3.5527136788005E-13 0 )" gradientUnits="userSpaceOnUse"><stop id="Stop2622" offset="0" stop-color="#fbfbfb"/><stop id="Stop2623" offset="1" stop-color="#e1e1e1"/></radialGradient><mask id="clip2624" fill="#fff"><path fill-rule="evenodd" d="M 13.71 25.29 C 7.21000000000004 25.29 0.910000000000025 18.99 0.910000000000025 12.39 C 0.910000000000025 5.88999999999999 7.21000000000004 0.589999999999975 13.71 0.589999999999975 C 20.31 0.589999999999975 25.51 5.88999999999999 25.51 12.39 C 25.51 18.99 20.31 25.29 13.71 25.29 Z"/></mask></defs><g><path fill="url(#RadialGradient2621)" fill-rule="nonzero" stroke="none" d="M 13.71 25.29 C 7.21000000000004 25.29 0.910000000000025 18.99 0.910000000000025 12.39 C 0.910000000000025 5.88999999999999 7.21000000000004 0.589999999999975 13.71 0.589999999999975 C 20.31 0.589999999999975 25.51 5.88999999999999 25.51 12.39 C 25.51 18.99 20.31 25.29 13.71 25.29 Z" transform="matrix(1 0 0 1 -422 -17227 ) matrix(1 0 0 1 422 17227 )"/><path fill="none" stroke="#909090" stroke-width="2" d="M 13.71 25.29 C 7.21000000000004 25.29 0.910000000000025 18.99 0.910000000000025 12.39 C 0.910000000000025 5.88999999999999 7.21000000000004 0.589999999999975 13.71 0.589999999999975 C 20.31 0.589999999999975 25.51 5.88999999999999 25.51 12.39 C 25.51 18.99 20.31 25.29 13.71 25.29 Z" mask="url(#clip2624)" transform="matrix(1 0 0 1 -422 -17227 ) matrix(1 0 0 1 422 17227 )"/></g></svg>