<svg xmlns="http://www.w3.org/2000/svg" xmlns:xlink="http://www.w3.org/1999/xlink" width="340" height="31" version="1.1"><defs><mask id="clip2629" fill="#fff"><path fill-rule="evenodd" d="M 0.240000000000009 15.15 C 0.240000000000009 7.14999999999999 8.34000000000003 0.549999999999997 18.4400000000001 0.549999999999997 C 18.4400000000001 0.549999999999997 321.34 0.549999999999997 321.34 0.549999999999997 C 331.34 0.549999999999997 339.54 7.14999999999999 339.54 15.15 C 339.54 23.25 331.34 30.85 321.34 30.85 C 321.34 30.85 18.4400000000001 30.85 18.4400000000001 30.85 C 8.34000000000003 30.85 0.240000000000009 23.25 0.240000000000009 15.15 Z"/></mask></defs><g><path fill="#9b9b9b" fill-rule="nonzero" stroke="none" d="M 0.240000000000009 15.15 C 0.240000000000009 7.14999999999999 8.34000000000003 0.549999999999997 18.4400000000001 0.549999999999997 C 18.4400000000001 0.549999999999997 321.34 0.549999999999997 321.34 0.549999999999997 C 331.34 0.549999999999997 339.54 7.14999999999999 339.54 15.15 C 339.54 23.25 331.34 30.85 321.34 30.85 C 321.34 30.85 18.4400000000001 30.85 18.4400000000001 30.85 C 8.34000000000003 30.85 0.240000000000009 23.25 0.240000000000009 15.15 Z" transform="matrix(1 0 0 1 -816 -17072 ) matrix(1 0 0 1 816 17072 )"/><path fill="none" stroke="#9b9b9b" stroke-width="2" d="M 0.240000000000009 15.15 C 0.240000000000009 7.14999999999999 8.34000000000003 0.549999999999997 18.4400000000001 0.549999999999997 C 18.4400000000001 0.549999999999997 321.34 0.549999999999997 321.34 0.549999999999997 C 331.34 0.549999999999997 339.54 7.14999999999999 339.54 15.15 C 339.54 23.25 331.34 30.85 321.34 30.85 C 321.34 30.85 18.4400000000001 30.85 18.4400000000001 30.85 C 8.34000000000003 30.85 0.240000000000009 23.25 0.240000000000009 15.15 Z" mask="url(#clip2629)" transform="matrix(1 0 0 1 -816 -17072 ) matrix(1 0 0 1 816 17072 )"/></g></svg>