<svg xmlns="http://www.w3.org/2000/svg" xmlns:xlink="http://www.w3.org/1999/xlink" width="26" height="26" version="1.1"><defs><radialGradient id="RadialGradient2591" cx=".98" cy="1.09" r="33.5" gradientTransform="matrix(1 0 0 0.999999999999999 0 6.66133814775094E-16 )" gradientUnits="userSpaceOnUse"><stop id="Stop2592" offset="0" stop-color="#fbfbfb"/><stop id="Stop2593" offset="1" stop-color="#e1e1e1"/></radialGradient><mask id="clip2594" fill="#fff"><path fill-rule="evenodd" d="M 13.28 25.29 C 6.77999999999999 25.29 0.47999999999999 18.99 0.47999999999999 12.39 C 0.47999999999999 5.88999999999999 6.77999999999999 0.589999999999975 13.28 0.589999999999975 C 19.88 0.589999999999975 25.08 5.88999999999999 25.08 12.39 C 25.08 18.99 19.88 25.29 13.28 25.29 Z"/></mask></defs><g><path fill="url(#RadialGradient2591)" fill-rule="nonzero" stroke="none" d="M 13.28 25.29 C 6.77999999999999 25.29 0.47999999999999 18.99 0.47999999999999 12.39 C 0.47999999999999 5.88999999999999 6.77999999999999 0.589999999999975 13.28 0.589999999999975 C 19.88 0.589999999999975 25.08 5.88999999999999 25.08 12.39 C 25.08 18.99 19.88 25.29 13.28 25.29 Z" transform="matrix(1 0 0 1 -200 -17227 ) matrix(1 0 0 1 200 17227 )"/><path fill="none" stroke="#909090" stroke-width="2" d="M 13.28 25.29 C 6.77999999999999 25.29 0.47999999999999 18.99 0.47999999999999 12.39 C 0.47999999999999 5.88999999999999 6.77999999999999 0.589999999999975 13.28 0.589999999999975 C 19.88 0.589999999999975 25.08 5.88999999999999 25.08 12.39 C 25.08 18.99 19.88 25.29 13.28 25.29 Z" mask="url(#clip2594)" transform="matrix(1 0 0 1 -200 -17227 ) matrix(1 0 0 1 200 17227 )"/></g></svg>