<svg xmlns="http://www.w3.org/2000/svg" xmlns:xlink="http://www.w3.org/1999/xlink" width="25" height="26" version="1.1"><defs><radialGradient id="RadialGradient2632" cx="457.23" cy="549.27" r="33.5" gradientTransform="matrix(1 0 0 1 0 0 )" gradientUnits="userSpaceOnUse"><stop id="Stop2633" offset="0" stop-color="#fbfbfb"/><stop id="Stop2634" offset="1" stop-color="#e1e1e1"/></radialGradient><mask id="clip2635" fill="#fff"><path fill-rule="evenodd" d="M 13.14 25.29 C 6.63999999999999 25.29 0.340000000000032 18.99 0.340000000000032 12.39 C 0.340000000000032 5.88999999999999 6.63999999999999 0.589999999999975 13.14 0.589999999999975 C 19.74 0.589999999999975 24.9400000000001 5.88999999999999 24.9400000000001 12.39 C 24.9400000000001 18.99 19.74 25.29 13.14 25.29 Z"/></mask></defs><g><path fill="url(#RadialGradient2632)" fill-rule="nonzero" stroke="none" d="M 13.14 25.29 C 6.63999999999999 25.29 0.340000000000032 18.99 0.340000000000032 12.39 C 0.340000000000032 5.88999999999999 6.63999999999999 0.589999999999975 13.14 0.589999999999975 C 19.74 0.589999999999975 24.9400000000001 5.88999999999999 24.9400000000001 12.39 C 24.9400000000001 18.99 19.74 25.29 13.14 25.29 Z" transform="matrix(1 0 0 1 -657 -17227 ) matrix(1 0 0 1 657 17227 )"/><path fill="none" stroke="#909090" stroke-width="2" d="M 13.14 25.29 C 6.63999999999999 25.29 0.340000000000032 18.99 0.340000000000032 12.39 C 0.340000000000032 5.88999999999999 6.63999999999999 0.589999999999975 13.14 0.589999999999975 C 19.74 0.589999999999975 24.9400000000001 5.88999999999999 24.9400000000001 12.39 C 24.9400000000001 18.99 19.74 25.29 13.14 25.29 Z" mask="url(#clip2635)" transform="matrix(1 0 0 1 -657 -17227 ) matrix(1 0 0 1 657 17227 )"/></g></svg>