<svg xmlns="http://www.w3.org/2000/svg" xmlns:xlink="http://www.w3.org/1999/xlink" width="174" height="49" version="1.1"><defs><mask id="clip2639" fill="#fff"><path fill-rule="evenodd" d="M 0.759999999999991 48.85 C 0.759999999999991 48.85 0.759999999999991 0.849999999999994 0.759999999999991 0.849999999999994 C 0.759999999999991 0.849999999999994 173.76 0.849999999999994 173.76 0.849999999999994 C 173.76 0.849999999999994 173.76 48.85 173.76 48.85 C 173.76 48.85 0.759999999999991 48.85 0.759999999999991 48.85 Z"/></mask></defs><g><path fill="#fff" fill-opacity="0" fill-rule="nonzero" stroke="none" d="M 0.759999999999991 48.85 C 0.759999999999991 48.85 0.759999999999991 0.849999999999994 0.759999999999991 0.849999999999994 C 0.759999999999991 0.849999999999994 173.76 0.849999999999994 173.76 0.849999999999994 C 173.76 0.849999999999994 173.76 48.85 173.76 48.85 C 173.76 48.85 0.759999999999991 48.85 0.759999999999991 48.85 Z" transform="matrix(1 0 0 1 -466 -18207 ) matrix(1 0 0 1 466 18207 )"/><path fill="none" stroke="#fff" stroke-width="2" d="M 0.759999999999991 48.85 C 0.759999999999991 48.85 0.759999999999991 0.849999999999994 0.759999999999991 0.849999999999994 C 0.759999999999991 0.849999999999994 173.76 0.849999999999994 173.76 0.849999999999994 C 173.76 0.849999999999994 173.76 48.85 173.76 48.85 C 173.76 48.85 0.759999999999991 48.85 0.759999999999991 48.85 Z" mask="url(#clip2639)" transform="matrix(1 0 0 1 -466 -18207 ) matrix(1 0 0 1 466 18207 )"/></g></svg>