<svg xmlns="http://www.w3.org/2000/svg" xmlns:xlink="http://www.w3.org/1999/xlink" width="174" height="51" version="1.1"><defs><mask id="clip2644" fill="#fff"><path fill-rule="evenodd" d="M 0.759999999999991 50.82 C 0.759999999999991 50.82 0.759999999999991 0.719999999999999 0.759999999999991 0.719999999999999 C 0.759999999999991 0.719999999999999 173.76 0.719999999999999 173.76 0.719999999999999 C 173.76 0.719999999999999 173.76 50.82 173.76 50.82 C 173.76 50.82 0.759999999999991 50.82 0.759999999999991 50.82 Z"/></mask></defs><g><path fill="#3498db" fill-rule="nonzero" stroke="none" d="M 0.759999999999991 50.82 C 0.759999999999991 50.82 0.759999999999991 0.719999999999999 0.759999999999991 0.719999999999999 C 0.759999999999991 0.719999999999999 173.76 0.719999999999999 173.76 0.719999999999999 C 173.76 0.719999999999999 173.76 50.82 173.76 50.82 C 173.76 50.82 0.759999999999991 50.82 0.759999999999991 50.82 Z" transform="matrix(1 0 0 1 -466 -18158 ) matrix(1 0 0 1 466 18158 )"/><path fill="none" stroke="#3498db" stroke-width="2" d="M 0.759999999999991 50.82 C 0.759999999999991 50.82 0.759999999999991 0.719999999999999 0.759999999999991 0.719999999999999 C 0.759999999999991 0.719999999999999 173.76 0.719999999999999 173.76 0.719999999999999 C 173.76 0.719999999999999 173.76 50.82 173.76 50.82 C 173.76 50.82 0.759999999999991 50.82 0.759999999999991 50.82 Z" mask="url(#clip2644)" transform="matrix(1 0 0 1 -466 -18158 ) matrix(1 0 0 1 466 18158 )"/></g></svg>