<svg xmlns="http://www.w3.org/2000/svg" xmlns:xlink="http://www.w3.org/1999/xlink" width="172" height="49" version="1.1"><defs><mask id="clip2641" fill="#fff"><path fill-rule="evenodd" d="M 0.759999999999991 48.85 C 0.759999999999991 48.85 0.759999999999991 0.849999999999994 0.759999999999991 0.849999999999994 C 0.759999999999991 0.849999999999994 171.76 0.849999999999994 171.76 0.849999999999994 C 171.76 0.849999999999994 171.76 48.85 171.76 48.85 C 171.76 48.85 0.759999999999991 48.85 0.759999999999991 48.85 Z"/></mask></defs><g><path fill="#fff" fill-opacity="0" fill-rule="nonzero" stroke="none" d="M 0.759999999999991 48.85 C 0.759999999999991 48.85 0.759999999999991 0.849999999999994 0.759999999999991 0.849999999999994 C 0.759999999999991 0.849999999999994 171.76 0.849999999999994 171.76 0.849999999999994 C 171.76 0.849999999999994 171.76 48.85 171.76 48.85 C 171.76 48.85 0.759999999999991 48.85 0.759999999999991 48.85 Z" transform="matrix(1 0 0 1 -809 -18207 ) matrix(1 0 0 1 809 18207 )"/><path fill="none" stroke="#fff" stroke-width="2" d="M 0.759999999999991 48.85 C 0.759999999999991 48.85 0.759999999999991 0.849999999999994 0.759999999999991 0.849999999999994 C 0.759999999999991 0.849999999999994 171.76 0.849999999999994 171.76 0.849999999999994 C 171.76 0.849999999999994 171.76 48.85 171.76 48.85 C 171.76 48.85 0.759999999999991 48.85 0.759999999999991 48.85 Z" mask="url(#clip2641)" transform="matrix(1 0 0 1 -809 -18207 ) matrix(1 0 0 1 809 18207 )"/></g></svg>