<svg xmlns="http://www.w3.org/2000/svg" xmlns:xlink="http://www.w3.org/1999/xlink" width="131" height="32" version="1.1"><defs><mask id="clip2672" fill="#fff"><path fill-rule="evenodd" d="M 0.0600000000000023 31.39 C 0.0600000000000023 31.39 0.0600000000000023 0.889999999999986 0.0600000000000023 0.889999999999986 C 0.0600000000000023 0.889999999999986 130.66 0.889999999999986 130.66 0.889999999999986 C 130.66 0.889999999999986 130.66 31.39 130.66 31.39 C 130.66 31.39 0.0600000000000023 31.39 0.0600000000000023 31.39 Z"/></mask></defs><g><path fill="#fc5c57" fill-rule="nonzero" stroke="none" d="M 0.0600000000000023 31.39 C 0.0600000000000023 31.39 0.0600000000000023 0.889999999999986 0.0600000000000023 0.889999999999986 C 0.0600000000000023 0.889999999999986 130.66 0.889999999999986 130.66 0.889999999999986 C 130.66 0.889999999999986 130.66 31.39 130.66 31.39 C 130.66 31.39 0.0600000000000023 31.39 0.0600000000000023 31.39 Z" transform="matrix(1 0 0 1 -215 -19256 ) matrix(1 0 0 1 215 19256 )"/><path fill="none" stroke="#fc5c57" stroke-width="2" d="M 0.0600000000000023 31.39 C 0.0600000000000023 31.39 0.0600000000000023 0.889999999999986 0.0600000000000023 0.889999999999986 C 0.0600000000000023 0.889999999999986 130.66 0.889999999999986 130.66 0.889999999999986 C 130.66 0.889999999999986 130.66 31.39 130.66 31.39 C 130.66 31.39 0.0600000000000023 31.39 0.0600000000000023 31.39 Z" mask="url(#clip2672)" transform="matrix(1 0 0 1 -215 -19256 ) matrix(1 0 0 1 215 19256 )"/></g></svg>