<svg xmlns="http://www.w3.org/2000/svg" xmlns:xlink="http://www.w3.org/1999/xlink" width="131" height="31" version="1.1"><defs><mask id="clip2667" fill="#fff"><path fill-rule="evenodd" d="M 0.58499999999998 30.015 C 0.58499999999998 30.015 0.58499999999998 0.264999999999986 0.58499999999998 0.264999999999986 C 0.58499999999998 0.264999999999986 130.435 0.264999999999986 130.435 0.264999999999986 C 130.435 0.264999999999986 130.435 30.015 130.435 30.015 C 130.435 30.015 0.58499999999998 30.015 0.58499999999998 30.015 Z"/></mask></defs><g><path fill="#33b2c3" fill-rule="nonzero" stroke="none" d="M 0.58499999999998 30.015 C 0.58499999999998 30.015 0.58499999999998 0.264999999999986 0.58499999999998 0.264999999999986 C 0.58499999999998 0.264999999999986 130.435 0.264999999999986 130.435 0.264999999999986 C 130.435 0.264999999999986 130.435 30.015 130.435 30.015 C 130.435 30.015 0.58499999999998 30.015 0.58499999999998 30.015 Z" transform="matrix(1 0 0 1 -467 -19257 ) matrix(1 0 0 1 467 19257 )"/><path fill="none" stroke="#33b2c3" stroke-width=".5" d="M 0.58499999999998 30.015 C 0.58499999999998 30.015 0.58499999999998 0.264999999999986 0.58499999999998 0.264999999999986 C 0.58499999999998 0.264999999999986 130.435 0.264999999999986 130.435 0.264999999999986 C 130.435 0.264999999999986 130.435 30.015 130.435 30.015 C 130.435 30.015 0.58499999999998 30.015 0.58499999999998 30.015 Z" mask="url(#clip2667)" transform="matrix(1 0 0 1 -467 -19257 ) matrix(1 0 0 1 467 19257 )"/></g></svg>