<svg xmlns="http://www.w3.org/2000/svg" xmlns:xlink="http://www.w3.org/1999/xlink" width="131" height="31" version="1.1"><defs><mask id="clip2657" fill="#fff"><path fill-rule="evenodd" d="M 0.884999999999991 30.015 C 0.884999999999991 30.015 0.884999999999991 0.264999999999986 0.884999999999991 0.264999999999986 C 0.884999999999991 0.264999999999986 130.735 0.264999999999986 130.735 0.264999999999986 C 130.735 0.264999999999986 130.735 30.015 130.735 30.015 C 130.735 30.015 0.884999999999991 30.015 0.884999999999991 30.015 Z"/></mask></defs><g><path fill="#2f7a8e" fill-rule="nonzero" stroke="none" d="M 0.884999999999991 30.015 C 0.884999999999991 30.015 0.884999999999991 0.264999999999986 0.884999999999991 0.264999999999986 C 0.884999999999991 0.264999999999986 130.735 0.264999999999986 130.735 0.264999999999986 C 130.735 0.264999999999986 130.735 30.015 130.735 30.015 C 130.735 30.015 0.884999999999991 30.015 0.884999999999991 30.015 Z" transform="matrix(1 0 0 1 -971 -19257 ) matrix(1 0 0 1 971 19257 )"/><path fill="none" stroke="#2f7a8e" stroke-width=".5" d="M 0.884999999999991 30.015 C 0.884999999999991 30.015 0.884999999999991 0.264999999999986 0.884999999999991 0.264999999999986 C 0.884999999999991 0.264999999999986 130.735 0.264999999999986 130.735 0.264999999999986 C 130.735 0.264999999999986 130.735 30.015 130.735 30.015 C 130.735 30.015 0.884999999999991 30.015 0.884999999999991 30.015 Z" mask="url(#clip2657)" transform="matrix(1 0 0 1 -971 -19257 ) matrix(1 0 0 1 971 19257 )"/></g></svg>