<svg xmlns="http://www.w3.org/2000/svg" xmlns:xlink="http://www.w3.org/1999/xlink" width="131" height="31" version="1.1"><defs><mask id="clip2662" fill="#fff"><path fill-rule="evenodd" d="M 0.7349999999999 30.015 C 0.7349999999999 30.015 0.7349999999999 0.264999999999986 0.7349999999999 0.264999999999986 C 0.7349999999999 0.264999999999986 130.585 0.264999999999986 130.585 0.264999999999986 C 130.585 0.264999999999986 130.585 30.015 130.585 30.015 C 130.585 30.015 0.7349999999999 30.015 0.7349999999999 30.015 Z"/></mask></defs><g><path fill="#fb9d53" fill-rule="nonzero" stroke="none" d="M 0.7349999999999 30.015 C 0.7349999999999 30.015 0.7349999999999 0.264999999999986 0.7349999999999 0.264999999999986 C 0.7349999999999 0.264999999999986 130.585 0.264999999999986 130.585 0.264999999999986 C 130.585 0.264999999999986 130.585 30.015 130.585 30.015 C 130.585 30.015 0.7349999999999 30.015 0.7349999999999 30.015 Z" transform="matrix(1 0 0 1 -719 -19257 ) matrix(1 0 0 1 719 19257 )"/><path fill="none" stroke="#fb9d53" stroke-width=".5" d="M 0.7349999999999 30.015 C 0.7349999999999 30.015 0.7349999999999 0.264999999999986 0.7349999999999 0.264999999999986 C 0.7349999999999 0.264999999999986 130.585 0.264999999999986 130.585 0.264999999999986 C 130.585 0.264999999999986 130.585 30.015 130.585 30.015 C 130.585 30.015 0.7349999999999 30.015 0.7349999999999 30.015 Z" mask="url(#clip2662)" transform="matrix(1 0 0 1 -719 -19257 ) matrix(1 0 0 1 719 19257 )"/></g></svg>