<?xml version="1.0" encoding="utf-8"?>
<svg version="1.1" xmlns:xlink="http://www.w3.org/1999/xlink" width="14px" height="14px" xmlns="http://www.w3.org/2000/svg">
  <g transform="matrix(1 0 0 1 -803 -118 )">
    <path d="M 12.9321164954545 5.611613328125  L 9.14725805 5.611613328125  C 10.6138465363636 0.291860125  8.13676643181818 0.0201563437500001  8.13676643181818 0.0201563437500001  C 7.086877525 0.0201563437500001  7.30452313181818 0.83550753125  7.22512620454546 0.971431375  C 7.22512620454546 3.5730275  4.41160627727273 5.611613328125  4.41160627727273 5.611613328125  L 4.41160627727273 12.98929925  C 4.41160627727273 13.7175415  5.42209789545455 13.979827671875  5.81849647272727 13.979827671875  L 11.5052346022727 13.979827671875  C 12.0404353681818 13.979827671875  12.4762638159091 12.601322296875  12.4762638159091 12.601322296875  C 13.8831703022727 7.902795890625  13.8831703022727 6.504799734375  13.8831703022727 6.504799734375  C 13.8831865772727 5.534049921875  12.9321164954545 5.611613328125  12.9321164954545 5.611613328125  Z M 2.858408875 5.614059671875  L 0.592055418181818 5.614059671875  C 0.124009120454545 5.614059671875  0.116797131818182 6.065561546875  0.116797131818182 6.065561546875  L 0.584843429545454 13.50622878125  C 0.584843429545454 13.9798116875  1.06786721363636 13.9798116875  1.06786721363636 13.9798116875  L 3.02941263863636 13.9798116875  C 3.43805369090909 13.9798116875  3.43443955909091 13.66653609375  3.43443955909091 13.66653609375  L 3.43443955909091 6.178301109375  C 3.43443955909091 5.6068325625  2.858408875 5.614059671875  2.858408875 5.614059671875  Z " fill-rule="nonzero" fill="#fe7548" stroke="none" transform="matrix(1 0 0 1 803 118 )" />
  </g>
</svg>