<svg xmlns="http://www.w3.org/2000/svg" xmlns:xlink="http://www.w3.org/1999/xlink" width="12" height="20" version="1.1"><g><path fill="#999" fill-rule="nonzero" stroke="none" d="M 11.7938144329897 9.53907815631263 C 11.9312714776632 9.67267869071476 12 9.82631930527722 12 10 C 12 10.1736806947228 11.9312714776632 10.3273213092852 11.7938144329897 10.4609218436874 L 2.18556701030928 19.7995991983968 C 2.04810996563574 19.9331997327989 1.89003436426117 20 1.71134020618557 20 C 1.53264604810997 20 1.3745704467354 19.9331997327989 1.23711340206186 19.7995991983968 L 0.206185567010309 18.7975951903808 C 0.0687285223367698 18.6639946559786 0 18.5103540414162 0 18.3366733466934 C 0 18.1629926519706 0.0687285223367698 18.0093520374081 0.206185567010309 17.875751503006 L 8.30927835051546 10 L 0.206185567010309 2.12424849699399 C 0.0687285223367698 1.99064796259185 0 1.83700734802939 0 1.66332665330661 C 0 1.48964595858383 0.0687285223367698 1.33600534402137 0.206185567010309 1.20240480961924 L 1.23711340206186 0.200400801603207 C 1.3745704467354 0.0668002672010681 1.53264604810997 0 1.71134020618557 0 C 1.89003436426117 0 2.04810996563574 0.0668002672010681 2.18556701030928 0.200400801603207 L 11.7938144329897 9.53907815631263 Z" transform="matrix(1 0 0 1 -271 -10 ) matrix(1 0 0 1 271 10 )"/></g></svg>