<?xml version="1.0" encoding="utf-8"?>
<svg version="1.1" xmlns:xlink="http://www.w3.org/1999/xlink" width="43px" height="42px" xmlns="http://www.w3.org/2000/svg">
  <g transform="matrix(1 0 0 1 -261 -3922 )">
    <path d="M 29.6066666666667 16.52  C 33.22 12.6933333333333  33.0733333333334 7.24000000000001  34.38 2.49333333333334  C 36.1133333333333 -0.960000000000036  41.5933333333333 0.306666666666615  42.02 4.02666666666664  C 42.5666666666667 18.4133333333333  30.14 31.9733333333334  15.6466666666667 32.2266666666667  C 17.98 34.0133333333333  21.4333333333333 37.0799999999999  18.6333333333333 40.0933333333332  C 15.5133333333333 43.3466666666666  11.5666666666667 39.52  8.79333333333335 37.72  C 5.81999999999999 35.1466666666666  1.18000000000001 33.6533333333333  0.0733333333333519 29.5333333333333  C 2.79333333333335 23.92  7.11333333333334 19.28  10.8066666666667 14.3066666666666  C 12.5266666666667 14.8399999999999  14.66 14.8666666666666  15.8466666666667 16.4666666666667  C 17.46 19.4399999999999  14.6333333333333 22.2266666666667  13.5266666666667 24.8  C 19.62 23.9333333333333  25.9 21.7333333333333  29.6066666666667 16.52  Z " fill-rule="nonzero" fill="#0066ff" stroke="none" transform="matrix(1 0 0 1 261 3922 )" />
  </g>
</svg>