<?xml version="1.0" encoding="utf-8"?>
<svg version="1.1" xmlns:xlink="http://www.w3.org/1999/xlink" width="73px" height="101px" xmlns="http://www.w3.org/2000/svg">
  <g transform="matrix(1 0 0 1 -459 -4359 )">
    <path d="M 13.6473145780051 5.54957453416137  C 13.6253657289002 7.27720652173957  13.6363401534527 9.00483850931687  13.6363401534527 10.7429409937886  C 11.0792992327365 10.7324704968942  8.52225831202043 10.7324704968942  5.97619181585674 10.7324704968942  C 5.97619181585674 11.3816413043478  5.96521739130435 12.6695124223606  5.95424296675185 13.3186832298134  C 4.12151406649616 11.6119922360249  2.29975959079275 9.90530124223642  0.44508184143217 8.24049223602469  C 2.2448874680307 6.49191925465857  4.07761636828639 4.75381677018595  5.92131969309469 3.03665527950307  C 5.94326854219946 3.67535559006228  5.99814066496151 4.94228571428539  6.0310639386189 5.57051552795019  C 8.5551815856777 5.54957453416137  11.1012480818414 5.54957453416137  13.6473145780051 5.54957453416137  Z M 27.0460892857143 15.2900790673211  C 30.1986607142857 23.2788532608693  32.8805357142858 31.4412964586254  35.956482142857 39.4517792776996  C 36.4052857142857 39.7882629733522  37.3028928571428 40.4720846774198  37.7516964285713 40.8085683730715  C 36.2301428571428 32.5158734221595  34.9931964285714 24.1797612201963  33.4716428571428 15.8870662692843  C 32.9790535714285 11.5887584151469  31.7202142857142 7.37728506311396  32.0486071428572 3.00299701963559  C 33.4825892857142 2.0044002454415  34.9384642857143 1.03836640953705  36.438125 0.104895511921313  C 37.664125 0.897260343618655  38.9667499999999 1.61364498597504  40.1380178571428 2.53626157082726  C 41.2655 5.03275350631156  41.648625 7.81145757363265  42.1412142857142 10.4924728260867  C 44.0349464285714 20.2939172510523  45.9067857142857 30.0953616760171  47.9428214285715 39.8642431626931  C 48.3259464285713 39.5603224053293  49.1031428571428 38.9524808906026  49.4972142857142 38.6485601332397  C 50.4276607142857 27.7616844319773  47.8443035714286 16.9399346072933  48.6215 6.04220459326825  C 49.0374642857142 4.59858099579287  50.3729285714285 3.64340147265102  51.1939107142856 2.41686413043499  C 53.2737321428572 2.63395038569433  56.2292678571429 3.38289796633944  56.1416964285715 6.02049596774214  C 58.024482142857 12.3919775596078  56.5138749999999 19.1107971598876  58.2653035714285 25.4822787517533  C 58.3966607142858 31.0288325736328  58.1011071428572 36.6730752103786  60.3122857142856 41.9157082748952  C 63.2787678571428 36.6188036465637  60.6625714285714 30.1496332398319  62.0089821428569 24.4077017882191  C 63.213089285714 19.9899964936885  61.6368035714285 14.9535953716686  64.4281428571427 11.0351884642359  C 66.9896071428572 10.7421220196356  68.9161785714284 12.088056802244  70.459625 13.9549985974754  C 70.7223392857144 25.4062985624123  69.5948571428571 36.9661416549789  71.4229107142856 48.3306071178122  C 71.5433214285714 52.3358485273493  71.3353392857142 56.3953615007012  72.506607142857 60.2920597826087  C 72.6160714285713 66.6961043127631  73.240017857143 73.2629635343619  71.3134464285713 79.4933390603082  C 69.6386428571426 82.5976725105193  68.2374999999998 85.8322577138852  67.318 89.2405119214591  C 68.2374999999998 91.3896658485273  68.2703392857142 93.7341974053297  68.3579107142855 96.0244573983173  C 65.6650892857142 96.8168222300137  62.9175357142856 97.4138094319778  60.1261964285715 97.5657698106588  C 53.8648392857143 98.9442675315568  47.4392857142857 100.127387622721  41.035625 100.724374824685  C 39.4155535714285 97.7068758765781  40.4007321428571 93.9838465988778  38.3646964285715 91.172579593268  C 36.8103035714286 89.142823106592  34.7852142857142 87.5038218793825  32.5959285714287 86.2230129733516  C 25.1742499999999 82.5216923211783  21.5290892857142 74.6306069424963  18.1356964285714 67.5644493338004  C 15.5851785714285 61.9093523842921  11.1847142857142 57.155163394109  9.67410714285711 51.0333309957923  C 8.87501785714278 47.5165336605887  6.52153571428573 44.726975280505  4.85767857142855 41.6226418302949  C 4.18994642857149 40.2767070476857  5.89758928571416 39.2455473352038  6.36828571428578 38.1166988078539  C 8.1635 38.1492617461427  9.95871428571422 38.1601160589062  11.764875 38.1492617461427  C 18.9238392857143 41.3838469495095  19.1318214285714 51.5217750701258  26.247 54.723797335203  C 26.9804107142857 52.2924312762971  28.2939821428571 49.7742307152876  27.5824642857142 47.1691956521736  C 24.9662678571428 36.086942321178  20.9051428571428 25.3303183730714  18.8362678571427 14.1503762272087  C 19.7995535714285 13.1517794530155  20.7518928571428 12.1314740532962  21.6932857142857 11.1003143408134  C 24.2766428571429 10.9917712131837  26.2141607142858 13.0649449509119  27.0460892857143 15.2900790673211  Z M 13.6363401534527 22.1662531055899  C 11.0902736572889 22.1557826086955  8.54420716112531 22.1557826086955  6.0200895140664 22.1453121118011  C 5.98716624040912 22.7944829192547  5.92131969309469 24.0928245341611  5.8774219948848 24.7315248447203  C 4.08859079283877 23.003892857143  2.28878516624036 21.2867313664592  0.467030690537058 19.5905108695652  C 2.27781074168797 17.8733493788823  4.08859079283877 16.1561878881985  5.91034526854219 14.4390263975156  C 5.94326854219946 15.0777267080748  5.99814066496151 16.3551273291923  6.0310639386189 16.9938276397515  C 8.56615601023009 16.9728866459627  11.1012480818414 16.9624161490683  13.6473145780051 16.9624161490683  C 13.6253657289002 18.70051863354  13.6253657289002 20.4281506211182  13.6363401534527 22.1662531055899  Z " fill-rule="nonzero" fill="#0066ff" stroke="none" transform="matrix(1 0 0 1 459 4359 )" />
  </g>
</svg>