<?xml version="1.0" encoding="utf-8"?>
<svg version="1.1" xmlns:xlink="http://www.w3.org/1999/xlink" width="88px" height="100px" xmlns="http://www.w3.org/2000/svg">
  <g transform="matrix(1 0 0 1 -238 -4360 )">
    <path d="M 28.2771964285714 11.6734853884536  C 29.0872321428571 19.6363684960797  31.1451607142858 27.413560228083  32.1084464285714 35.3655203136141  C 32.4368392857143 37.0476657163217  33.1702499999999 38.6315039201709  33.8379821428571 40.21534212402  C 34.4400357142857 30.974465431219  33.7066249999999 21.7008196721308  34.3305714285714 12.4599429793298  C 34.6589642857142 8.34196364932268  33.8817678571429 3.77614041339984  36.4541785714285 0.193389166072848  C 38.0961428571427 0.226158232359012  39.7381071428571 0.248004276550091  41.391017857143 0.248004276550091  C 42.343357142857 1.63522808267953  44.1933035714285 2.76029935851784  43.9086964285715 4.69367426942244  C 44.0400535714285 16.0317712045617  43.7226071428572 27.391714183892  44.0400535714285 38.7298111190303  C 43.9196428571428 39.4834996436211  45.9228392857143 42.2470242337849  45.8571607142857 39.7347291518172  C 48.7032321428571 28.6260156806838  48.9659464285714 16.9493050605843  51.6697142857143 5.79689950106876  C 53.7385892857143 4.45336778332148  56.3328928571428 4.08198503207404  58.2375714285715 5.94982181040632  C 58.7739464285714 12.0776372059872  58.1171607142858 18.2928367783325  57.0991428571427 24.3441910192441  C 57.3399642857142 31.3349251603704  54.8003928571429 38.1945830363511  56.3766785714286 45.2071632216675  C 56.7488571428571 44.6391660727013  57.4713214285714 43.5031717747679  57.8325535714285 42.9351746258017  C 60.0765714285714 34.1749109052034  61.3901428571429 25.1852637205984  63.9844464285713 16.5123841767636  C 65.5607321428571 15.9553100498933  67.1589107142858 15.4965431218816  68.7899285714286 15.1033143264431  C 69.5561785714285 16.4686920883823  70.3990535714286 17.8231468282256  70.9792142857143 19.2977548111194  C 68.3301785714285 36.2502851033496  65.0571964285714 53.1809693513896  64.4989285714286 70.3301140413396  C 63.3714464285713 76.6982359230224  61.8717857142856 83.3175873129012  57.5041607142857 88.3421774768358  C 54.8003928571429 91.6409301496788  54.5267321428572 95.802601568068  54.8551249999999 99.8768888096938  C 45.3645714285715 99.8768888096938  35.8849642857142 99.8768888096938  26.3944107142858 99.8768888096938  C 25.8908749999999 95.4530648610125  28.1020535714285 89.8058624376336  23.8219999999999 86.7146471846045  C 16.8929107142856 81.4060584461868  12.4814999999999 73.3339451176053  10.8833214285714 64.8358339272991  C 9.94192857142866 60.6741625089098  8.24523214285705 56.7418745545256  6.55948214285706 52.8532786885244  C 4.47966071428573 47.8723806129719  5.23496428571423 42.1487170349255  2.57498214285715 37.375356379187  C 1.67737499999987 36.0209016393446  2.12617857142857 34.4916785459727  2.4217321428572 33.03891660727  C 3.48353571428561 32.5801496792583  4.54533928571425 32.0886136849604  5.60714285714278 31.5752316464723  C 6.70178571428562 32.5801496792583  8.16860714285713 32.7221489665008  9.6025892857142 32.8532252316463  C 15.1195892857144 37.9761225944403  14.7583571428571 46.5288488952247  19.8265535714286 51.990359942979  C 24.1503928571429 47.5993050605848  23.5811785714285 40.9253385602278  22.1143571428571 35.4529044903775  C 22.4865357142857 29.8712401995726  20.6584821428571 24.5189593727728  20.8993035714286 18.9591411261581  C 20.8445714285714 15.6385424091231  18.8085357142857 12.2633285816109  21.1839107142856 9.25949750534528  C 22.2347678571429 8.77888453314335  23.2965714285714 8.27642551674944  24.3474285714285 7.76304347826044  C 25.7704642857142 8.94272986457599  27.4343214285715 9.958570919458  28.2771964285714 11.6734853884536  Z M 12.5235570652173 19.6368545150499  C 12.501902173913 21.4973812709031  12.4910747282609 23.3579080267555  12.4694198369566 25.2297107023414  C 10.0982092391304 25.207158862876  7.72699864130436 25.207158862876  5.37744293478249 25.2184347826087  C 5.42075271739122 25.8273344481604  5.51819972826081 27.0451337792638  5.57233695652178 27.6653093645482  C 3.91573777173915 25.9175418060204  2.22665625000002 24.2261538461535  0.515919836956527 22.5460418060202  C 2.0858994565217 20.7644464882942  3.75332608695635 19.0617826086955  5.47488994565219 17.4267742474913  L 5.43158016304346 19.6143026755854  C 7.78113586956511 19.6143026755854  10.1523464673913 19.6255785953181  12.5235570652173 19.6368545150499  Z M 74.3066035805626 24.4275885093166  C 74.2846547314577 22.6894860248449  74.2736803069054 20.9513835403723  74.2736803069054 19.2132810559006  C 76.8087723785166 19.2132810559006  79.3438644501279 19.223751552795  81.878956521739 19.2551630434782  C 81.9338286445012 18.6269332298134  82.0435728900255 17.3704736024847  82.0984450127877 16.7422437888199  C 83.8543529411764 18.4489347826084  85.6322097186701 20.1346847826089  87.4210409207161 21.830905279503  C 85.6102608695653 23.527125776398  83.8214296675192 25.2338167701864  82.054547314578 26.9719192546581  C 82.0216240409206 26.3332189440989  81.9557774936061 25.045347826087  81.9228542199489 24.4066475155278  C 79.3767877237851 24.4066475155278  76.8416956521739 24.4066475155278  74.3066035805626 24.4275885093166  Z " fill-rule="nonzero" fill="#0066ff" stroke="none" transform="matrix(1 0 0 1 238 4360 )" />
  </g>
</svg>