<?xml version="1.0" encoding="utf-8"?>
<svg version="1.1" xmlns:xlink="http://www.w3.org/1999/xlink" width="66px" height="104px" xmlns="http://www.w3.org/2000/svg">
  <g transform="matrix(1 0 0 1 -879 -4480 )">
    <path d="M 36.9948439897698 6.33893961352624  C 35.0962685421994 2.82529468599023  30.9479360613809 2.35888164251173  27.2056572890024 2.72164734299531  C 25.9655473145779 4.12088647342989  24.7473861892581 5.54085507246418  23.5950716112532 6.99191787439577  C 24.0011253196931 5.72742028985522  24.4401023017901 4.46292270531376  24.8242071611255 3.18806038647381  C 25.6911867007675 2.33815217391293  26.6020639386188 1.51933816425117  27.5129411764706 0.690159420290001  C 29.3456700767263 0.710888888888803  31.200347826087 0.721253623188204  33.0550255754474 0.741983091787915  C 34.8987289002557 2.1826811594201  36.9509462915603 3.86176811594214  36.9948439897698 6.33893961352624  Z M 13.5401745819399 62.0832340579709  C 15.2026551839463 58.4265557971012  18.3537622073577 55.8037597826087  22.1133588628761 54.508686231884  C 23.1999474916386 54.2039630434783  24.2974020066888 53.8992398550727  25.4057224080268 53.594516666667  C 25.7208331103679 43.6692471014494  25.2970635451504 33.7439775362318  25.6230401337793 23.8295909420285  C 26.2315297658865 18.5839989130436  26.3619204013378 13.3057579710148  26.6878969899665 8.04928297101469  C 27.6875585284281 5.87268876811595  30.0563217391305 6.48213514492727  32.0013153846153 6.38418840579743  C 32.6967321070231 7.3310068840583  33.4247464882944 8.26694239130484  34.1636267558529 9.2137608695657  C 34.1636267558529 11.934503623188  34.1418949832776 14.6878952898551  34.7612505016721 17.3542231884057  C 35.9999615384615 22.719527898551  34.5873963210702 28.2807260869567  35.8043755852843 33.646030797102  C 36.4128652173913 36.0511673913043  36.391133444816 38.5324847826087  36.4780605351168 41.0029192028987  C 37.358197324415 40.9920362318844  39.1293367892977 40.9593873188405  40.0203394648827 40.9376213768119  C 40.6396949832777 41.2532275362319  41.8892719063542 41.8626739130432  42.519493311037 42.1673971014498  C 44.8230612040131 44.1045659420288  46.5833347826087 46.5532344202902  47.6264598662206 49.4045728260871  C 49.2237451505014 49.6331152173916  50.7558351170567 50.1228489130435  52.2770591973247 50.7214123188405  C 55.047860200669 53.4095061594198  58.2641625418059 55.9343554347824  59.1442993311036 59.9284057971017  C 59.9592408026754 64.7277960144929  66.5548337792641 66.6431989130433  65.6203675585284 71.9432057971017  C 63.425458528428 79.8986576086954  62.1758816053512 88.2567793478265  58.144637792642 95.5701358695651  C 58.5358096989969 97.3005282608692  59.0791040133781 98.987388768116  59.4920076923079 100.71778115942  C 59.7745207357859 101.457823188406  60.3395468227425 102.927024275363  60.6220598662208 103.656183333334  C 49.7344418060202 103.732364130435  38.8576896321067 103.667066304348  27.9809374581939 103.699715217392  C 27.6549608695652 101.882259057971  27.0682030100336 100.162749637681  26.3727862876253 98.4867721014489  C 24.8732939799331 94.6668492753624  21.7330528428095 92.0005213768118  19.4620826086957 88.7573960144928  C 17.625747826087 79.8442427536229  15.7894130434784 70.89844057971  13.5401745819399 62.0832340579709  Z M 16.9731273291925 10.6661600790512  C 16.9731273291925 16.4230296442693  16.9515517598345 22.1689960474305  16.9839151138715 27.9258656126485  C 11.5145082815734 27.9912845849803  6.04510144927531 27.9367687747035  0.575694616977216 27.9694782608694  C 0.543331262939773 22.2017055335964  0.564906832297993 16.4339328063243  0.564906832297993 10.6661600790512  C 6.03431366459608 10.6661600790512  11.4929327122156 10.6661600790512  16.9731273291925 10.6661600790512  Z " fill-rule="nonzero" fill="#0066ff" stroke="none" transform="matrix(1 0 0 1 879 4480 )" />
  </g>
</svg>