<?xml version="1.0" encoding="utf-8"?>
<svg version="1.1" xmlns:xlink="http://www.w3.org/1999/xlink" width="95px" height="97px" xmlns="http://www.w3.org/2000/svg">
  <g transform="matrix(1 0 0 1 -432 -5124 )">
    <path d="M 51.1460674157304 11.047191011236  C 53.0775280898877 8.33707865168537  54.6247191011236 5.10112359550567  57.6078651685393 3.37191011235961  C 62.3202247191011 0.773033707865125  67.8719101123595 0.6415730337078  73.1202247191011 0.894382022471859  C 74 3.46292134831469  74.5460674157304 6.16292134831463  74.4752808988765 8.89325842696633  C 74.2426966292135 23.6573033707865  74.4044943820224 38.4213483146067  74.323595505618 53.185393258427  C 78.914606741573 49.5247191011237  83.9606741573034 44.8629213483146  90.2606741573034 45.4191011235956  C 94.4876404494382 45.7022471910112  95.7921348314607 51.314606741573  93.638202247191 54.3786516853933  C 89.5224719101124 60.2134831460675  83.6067415730337 64.4000000000001  78.085393258427 68.7988764044944  C 74.4449438202247 71.3977528089888  72.6247191011237 75.7662921348315  69.176404494382 78.547191011236  C 61.6224719101124 82.7842696629214  53.4617977528089 85.9898876404495  44.9775280898876 87.8000000000001  C 40.2044943820225 88.6898876404495  37.4134831460674 93.038202247191  34.3494382022472 96.3651685393259  C 23.0640449438202 89.7820224719102  12.1022471910112 82.6730337078651  0.715730337078668 76.261797752809  C 9.74606741573035 71.4584269662922  17.5831460674158 64.4808988764045  23.3775280898876 56.047191011236  C 27.0685393258427 50.4752808988765  30.3752808988764 44.6505617977527  33.2168539325843 38.603370786517  C 37.8786516853933 28.6224719101124  44.785393258427 19.9662921348314  51.1460674157304 11.047191011236  Z " fill-rule="nonzero" fill="#000000" stroke="none" transform="matrix(1 0 0 1 432 5124 )" />
  </g>
</svg>