<?xml version="1.0" encoding="utf-8"?>
<svg version="1.1" xmlns:xlink="http://www.w3.org/1999/xlink" width="95px" height="95px" xmlns="http://www.w3.org/2000/svg">
  <g transform="matrix(1 0 0 1 -678 -5096 )">
    <path d="M 50.8078651685394 10.261797752809  C 52.9617977528089 7.41011235955068  54.9640449438202 4.27528089887642  58.0179775280899 2.2932584269663  C 60.6977528089888 0.867415730337143  63.7820224719101 0.847191011235964  66.7449438202248 0.78651685393254  C 66.7651685393258 19.4337078651686  66.6033707865168 38.0808988764045  66.8056179775281 56.7280898876405  C 74.3797752808988 52.8247191011236  79.8 44.5123595505618  88.9415730337079 44.0573033707866  C 92.652808988764 43.6629213483146  95.2719101123596 47.7584269662922  93.8258426966291 51.0752808988764  C 91.570786516854 56.1921348314607  87.2325842696629 60.085393258427  82.8033707865168 63.3314606741574  C 77.3932584269663 66.6179775280899  73.5202247191012 71.6640449438203  69.3134831460674 76.2449438202248  C 61.7191011235956 80.9370786516854  53.1134831460674 83.8191011235955  44.4573033707866 85.8314606741574  C 39.6438202247191 86.6505617977527  37.0348314606741 91.2011235955056  33.5561797752808 94.123595505618  C 22.7460674157303 87.3685393258427  11.5921348314607 81.1595505617978  0.802247191011247 74.3640449438202  C 7.39550561797751 70.056179775281  14.4134831460674 65.9404494382023  19.2674157303371 59.5797752808988  C 24.1314606741573 53.1280898876404  28.5606741573034 46.3022471910112  32.0089887640449 38.9707865168539  C 36.8629213483147 28.5550561797753  44.0325842696629 19.4741573033708  50.8078651685394 10.261797752809  Z " fill-rule="nonzero" fill="#000000" stroke="none" transform="matrix(1 0 0 1 678 5096 )" />
  </g>
</svg>