<?xml version="1.0" encoding="utf-8"?>
<svg version="1.1" xmlns:xlink="http://www.w3.org/1999/xlink" width="66px" height="105px" xmlns="http://www.w3.org/2000/svg">
  <g transform="matrix(1 0 0 1 -249 -4479 )">
    <path d="M 12.7439466403164 25.5413167701863  C 10.1162845849803 25.4765900621114  7.43410671936772 25.7570724637681  4.8936699604742 25.001927536232  C 1.90620355731198 23.5671521739132  1.08846640316187 20.3416045548656  0.205310276679711 17.4720538302281  C 1.15388537549416 14.9477122153212  1.51368972332011 11.7221645962736  4.32670553359685 10.4815693581777  C 6.79082015810286 8.85261387163519  9.86551185770736 9.61854658385073  12.6567213438732 9.40279089026899  C 14.5211620553357 11.2151387163558  16.2547648221341 13.1785155279504  17.6285632411068 15.4007991718427  C 18.3154624505928 19.5864596273295  15.7096067193675 22.941460662526  12.7439466403164 25.5413167701863  Z M 30.8770971867009 0.756382608695276  C 34.0706547314576 1.70520000000033  38.2080127877236 3.86935652173906  37.3190843989771 7.73925217391297  C 36.4960025575447 6.00153043478258  35.4424578005116 4.41306086956502  33.6536265984655 3.53886956521728  C 31.8647953964191 2.81393043478238  29.9223222506394 2.79260869565223  28.1444654731458 3.50688695652207  C 26.465378516624 4.46636521739129  25.3459872122762 6.01219130434765  24.3582890025575 7.59000000000015  C 24.0510051150895 3.76274782608653  27.3762557544756 1.42801739130391  30.8770971867009 0.756382608695276  Z M 19.0579008152174 57.023134387352  C 21.0176684782609 56.1072687747037  23.0099184782607 55.2568221343872  25.0563057065215 54.5154071146244  C 25.3161644021739 54.297343873518  25.8358817934782 53.8503142292493  26.0957404891305 53.632250988142  C 26.5180108695654 39.2509802371542  26.0740855978261 24.8370000000004  26.3014619565217 10.4448260869567  C 26.6695951086954 9.81244268774662  27.3842065217391 8.55857905138328  27.7415122282607 7.9261956521741  C 28.6943274456523 7.4791660079054  29.6579701086957 7.04303952569171  30.6216127717391 6.5851067193671  C 31.4986358695653 7.03213636363671  32.3864864130433 7.46826284584949  33.3068192934784 7.89348616600819  C 33.8048817934782 8.74393280632376  34.3354266304348 9.59437944664023  34.8876263586956 10.4339229249008  C 35.0067282608695 14.9587351778655  34.5194932065215 19.548966403162  35.6347201086955 23.986553359684  C 36.8365665760869 29.9178735177866  34.6927323369566 36.3289328063238  37.3995937500001 41.9658675889332  C 38.9695733695651 42.031286561265  40.5287255434782 42.1294150197627  42.1203600543479 42.2166403162055  C 44.2858491847826 44.3100474308303  46.8627812499999 46.3162292490115  47.3500163043477 49.532662055336  C 49.5804701086959 50.3722055335966  52.0166453804347 50.9609762845848  53.7382092391304 52.7709011857705  C 54.1604796195652 52.934448616601  55.0158478260869 53.272446640316  55.4381182065217 53.4468972332015  C 56.4125883152174 54.9406304347822  57.4303682065217 56.4234604743087  58.4589755434781 57.9062905138344  C 59.5200652173912 61.0464011857712  60.2238491847827 65.1786996047431  63.7969062500001 66.3998537549405  C 68.0737472826086 73.6286501976283  62.681679347826 81.6642806324107  61.7830013586954 89.1220434782608  C 60.6461195652173 92.2730573122526  58.1774619565217 95.1296857707512  58.7946263586955 98.6841166007907  C 59.7366141304346 100.679395256917  60.0614374999998 102.89273715415  60.9276331521737 104.920725296442  C 50.1759796195652 104.8335  39.4351535326086 104.909822134387  28.6835000000001 104.877112648222  C 28.1637826086953 103.208928853755  27.6007554347827 101.562551383399  27.1026929347825 99.8943675889332  C 25.4677486413041 96.1654861660081  22.901644021739 93.0362786561263  19.9024415760869 90.3541007905142  C 18.5814932065216 81.2826699604739  15.9395964673913 72.4620118577077  14.3263070652174 63.4450968379451  C 14.163895380435 60.5012430830038  16.7408274456523 58.3424169960472  19.0579008152174 57.023134387352  Z M 2.5058774703557 19.0794337474117  C 6.77991699604763 19.0794337474117  11.0648596837943 19.0794337474117  15.3498023715415 19.0794337474117  C 15.3498023715415 18.2811376811596  15.3498023715415 16.6737577639751  15.3498023715415 15.8754616977221  C 11.0757628458496 15.8754616977221  6.80172332015786 15.8754616977221  2.52768379446638 15.8754616977221  C 2.52768379446638 16.6737577639751  2.51678063241116 18.2811376811596  2.5058774703557 19.0794337474117  Z " fill-rule="nonzero" fill="#0066ff" stroke="none" transform="matrix(1 0 0 1 249 4479 )" />
  </g>
</svg>