<?xml version="1.0" encoding="utf-8"?>
<svg version="1.1" xmlns:xlink="http://www.w3.org/1999/xlink" width="43px" height="42px" xmlns="http://www.w3.org/2000/svg">
  <g transform="matrix(1 0 0 1 -151 -3922 )">
    <path d="M 1.45380952380954 14.1041860465116  C 4.40238095238097 9.66325581395349  7.3509523809524 5.06604651162791  11.2550793650794 1.32837209302326  C 13.1798412698413 -0.364651162790699  15.3639682539683 1.64093023255813  17.0839682539683 2.6046511627907  C 20.5512698412699 5.02697674418604  24.2096825396826 7.25395348837209  27.4039682539683 10.0279069767442  C 29.1512698412699 11.6948837209302  27.7861904761905 14.1562790697674  27.7042857142857 16.1358139534884  C 24.1277777777778 16.9693023255814  20.9198412698413 15.4195348837209  18.0531746031746 13.5572093023256  C 18.9268253968254 20.0167441860465  21.6706349206349 26.6846511627907  27.7179365079365 30.2530232558139  C 31.4036507936508 32.9227906976744  36.1677777777778 32.8706976744186  40.454126984127 33.9386046511628  C 44.6176190476191 35.1237209302326  43.034126984127 42.0260465116279  38.6795238095238 41.5832558139535  C 24.1414285714286 41.6744186046512  11.6373015873016 30.0055813953488  10.1766666666667 16.4223255813953  C 8.51126984126986 17.6725581395349  7.1325396825397 19.8213953488372  4.7573015873016 19.7432558139535  C 2.23190476190478 19.3786046511628  -0.184285714285696 16.3832558139535  1.45380952380954 14.1041860465116  Z " fill-rule="nonzero" fill="#0066ff" stroke="none" transform="matrix(1 0 0 1 151 3922 )" />
  </g>
</svg>