<?xml version="1.0" encoding="utf-8"?>
<svg version="1.1" xmlns:xlink="http://www.w3.org/1999/xlink" width="67px" height="99px" xmlns="http://www.w3.org/2000/svg">
  <g transform="matrix(1 0 0 1 -134 -4113 )">
    <path d="M 26.4072187168611 46.3522411067194  C 26.2983348356309 32.8759328063241  26.7992006892895 19.3451086956522  25.3619334570519 5.91241304347827  C 25.1659424708377 3.70997430830039  26.8645310180275 1.91095256916995  28.1058072640509 0.275478260869562  C 29.0639854188759 0.319090909090903  30.9694533404029 0.417219367588927  31.927631495228 0.471735177865611  C 32.6135999469777 1.34398814229249  33.2886800106044 2.21624110671937  33.9855368504772 3.08849407114624  C 33.7133271474019 6.66473122529644  34.8892730646871 10.0883241106719  35.1070408271474 13.6100454545455  C 34.704170466596 20.7734229249012  36.9362900318133 27.7078339920949  36.2285448038176 34.8930177865613  C 37.8944681866384 35.0238557312253  39.6148335100742 35.0020494071146  41.2045381760339 35.6126264822134  C 44.111737804878 36.7465553359684  46.3329689819724 38.8181561264822  47.3020355249205 41.8492351778656  C 47.813789766702 44.0298675889328  50.3834493637328 43.648256916996  52.0602611346766 44.1934150197629  C 56.6333841463414 47.3335256916996  60.3245477200424 51.8365316205534  61.5767123541887 57.342628458498  C 65.1263268822906 58.5310731225296  66.6942547720042 62.4235019762846  66.509152173913 65.8689011857707  C 64.9194475079534 71.9092529644269  63.8306086956522 78.0586363636364  62.1537969247083 84.0662786561265  C 59.3663695652174 88.5147687747036  58.5388520678685 93.5847391304348  59.0832714740191 98.7637411067194  C 47.7157942735949 98.7746442687747  36.3374286850477 98.7419347826087  24.9699514846235 98.78554743083  C 24.1315455991516 94.2607351778656  25.8083573700954 88.4166403162055  21.6054395546129 85.2220138339921  C 17.2283075291622 82.5180296442688  14.7784202014846 77.8296699604743  12.1325418875928 73.599243083004  C 9.19267709437963 67.3626343873518  8.56115058324494 60.2973853754941  5.3490760869565 54.1589051383399  C 3.18228685047717 50.4082173913044  3.69404109225874 45.9815335968379  2.33299257688228 41.9800731225296  C 1.62524734888652 39.4178300395257  -0.33466251325558 37.0736501976285  0.514631760339313 34.2715375494071  C 1.58169379639446 33.8572173913043  2.60520227995755 33.3774782608696  3.60693398727463 32.8105138339921  C 5.50151352067866 33.911733201581  7.690079533404 34.5550197628459  9.42133324496285 35.9179150197629  C 12.7531800106044 41.5330434782609  12.9709477730647 49.3069980237154  19.1991057794274 52.8396225296443  C 23.2931397136797 55.1619960474308  26.363665164369 49.9284782608696  26.4072187168611 46.3522411067194  Z " fill-rule="nonzero" fill="#0066ff" stroke="none" transform="matrix(1 0 0 1 134 4113 )" />
  </g>
</svg>