<?xml version="1.0" encoding="utf-8"?>
<svg version="1.1" xmlns:xlink="http://www.w3.org/1999/xlink" width="69px" height="100px" xmlns="http://www.w3.org/2000/svg">
  <g transform="matrix(1 0 0 1 -975 -4360 )">
    <path d="M 33.0070588235294 2.95652173913044  C 33.8941058823529 2.04991090520315  34.7703352941176 1.14330007127586  35.6465647058823 0.236689237348571  C 36.7716 0.225766215253032  37.8966352941176 0.236689237348571  39.0216705882353 0.247612259444054  C 39.8979 1.14330007127586  40.7741294117647 2.03898788310761  41.6503588235294 2.92375267284393  C 41.7152647058823 9.76156450463293  41.9640705882353 16.5993763364219  42.5806764705882 23.41534212402  C 43.0674705882353 29.3465431218816  42.3102352941176 35.332359230221  43.0891058823529 41.2526372059872  C 44.7333882352941 39.6360299358518  44.9713764705882 37.3749643620812  45.0579176470588 35.1903599429794  C 46.6481117647059 25.8948681397006  47.7082411764706 16.5119921596579  49.395794117647 7.22742337847467  C 50.2828411764706 6.25527441197437  51.1590705882353 5.27220242337842  52.0353 4.28913043478258  C 54.0041117647058 4.52943692088377  55.464494117647 5.85112259444043  56.8599705882353 7.16188524590166  C 56.7842470588235 9.5103349964362  57.0114176470588 11.9243228795439  56.3623588235294 14.2290805416964  C 55.1399647058823 18.0084461867427  56.2541823529411 22.0718104062722  55.1940529411764 25.8948681397006  C 54.1339235294117 29.7070028510335  55.1616 33.748521026372  54.0365647058823 37.5497327156095  C 53.2360588235294 40.1384889522451  53.1603352941176 43.1204739843193  55.1832352941176 45.1740021382751  C 57.7145647058823 36.2717391304348  59.2506705882353 27.1182466143977  61.2952058823529 18.0849073414113  C 62.1173470588235 17.1673734853885  62.9394882352941 16.2607626514612  63.7616294117647 15.3541518175339  C 64.3457823529412 15.3650748396293  65.5032705882352 15.3759978617248  66.0766058823529 15.3869208838204  C 66.9744705882352 16.3263007840342  67.8831529411764 17.2656806842481  68.8026529411765 18.2050605844619  C 67.1691882352941 33.4317533856023  63.3072882352941 48.4618317890236  63.1342058823529 63.8086778332146  C 62.0524411764706 69.1718816821096  62.2796117647059 74.7535459729152  60.2026235294117 79.8982893799001  C 58.9694117647059 84.4313435495367  55.5077647058823 87.7956343549537  53.6579470588235 92.0009978617248  C 53.3875058823529 94.6443692088382  53.5281352941176 97.3205096222381  53.5173176470588 99.9857270135425  C 44.1384176470588 99.9748039914469  34.7595176470588 99.9748039914469  25.3914352941176 99.9748039914469  C 25.856594117647 94.7863684960798  25.4996117647059 88.8551674982181  21.1617352941176 85.3270313613684  C 14.454794117647 80.6519779044904  11.1229588235294 72.5580185317177  9.33804705882352 64.8026728439058  C 8.21301176470587 59.166393442623  5.07589411764704 54.1636493228796  3.92922352941176 48.5492159657877  C 3.73450588235292 44.2564682822523  2.44720588235293 40.1275659301497  0.77047058823527 36.2062009978617  C -0.0733058823529689 34.8735923022095  1.40871176470588 33.70482893799  1.89550588235292 32.568834640057  C 3.79941176470587 32.6125267284391  5.70331764705881 32.6562188168211  7.60722352941175 32.6889878831076  C 13.1999470588235 37.2875801853171  13.535294117647 45.1740021382751  17.0510294117647 51.1598182466144  C 17.7325411764706 51.1598182466144  19.1063823529412 51.1598182466144  19.7987117647058 51.1598182466144  C 23.1305470588235 42.4650926585888  19.7338058823529 33.16960085531  19.9285235294117 24.2345687811832  C 18.6628588235294 19.7779757662153  18.7818529411765 15.1029223093371  19.0306588235294 10.5152530292231  C 20.1340588235294 8.16680327868858  22.8276529411764 8.97510691375624  24.8830058823529 8.72387740555951  C 27.2845235294117 12.8746258018532  27.2845235294117 17.8336778332144  28.2797470588235 22.4213471133286  C 29.1559764705882 28.2105488239487  30.4432764705882 33.9342124019958  31.2329647058824 39.7452601568068  C 32.4445411764706 39.4940306486101  33.0178764705882 38.7949572344975  32.9746058823529 37.648039914469  C 33.0719647058824 26.0805595153244  32.9746058823529 14.5240021382751  33.0070588235294 2.95652173913044  Z M 39.1406647058823 53.6721133285815  C 35.6465647058823 55.3651817533856  37.9182705882353 60.1931575196008  37.4855647058823 63.3171418389165  C 37.993994117647 63.1969885958661  39.0216705882353 62.9676051318603  39.5301 62.8474518888097  C 39.5192823529412 59.7780826799715  39.5733705882353 56.7087134711334  39.1406647058823 53.6721133285815  Z M 33.0070588235294 59.5705452601568  C 32.4878117647059 58.7513186029936  31.9577470588235 57.9430149679258  31.4385 57.1347113328582  C 30.2485588235294 60.1494654312188  27.7064117647058 63.2079116179615  28.9720764705882 66.626817533856  C 29.8266705882353 69.8709550962224  32.6176235294117 71.8480220955096  35.0299588235294 73.8906272273699  C 37.3341176470588 73.8578581610834  39.6382764705882 73.8578581610834  41.9424352941176 73.8469351389879  C 43.1323764705882 72.9949394155382  44.3331352941176 72.1975588025659  45.5663470588235 71.4329472558802  C 49.0171764705882 67.2931218816821  49.0712647058823 61.2417676407697  45.4906235294117 57.1674803991447  C 45.1336411764706 57.6699394155381  44.4088588235294 58.653011404134  44.0410588235294 59.1445473984319  C 44.7658411764706 60.968692088382  45.9557823529412 62.7054526015681  46.0315058823529 64.7262116892373  C 45.5014411764706 67.7300427655025  43.143194117647 69.8272630078404  40.9796647058823 71.7387918745545  C 39.9519882352941 71.7497148966501  37.9074529411764 71.7606379187455  36.8797764705882 71.771560940841  C 35.1165 70.67925873129  33.4505823529412 69.4449572344975  31.9036588235294 68.0577334283678  C 31.1031529411765 65.1194404846757  31.5142235294117 62.2029935851746  33.0070588235294 59.5705452601568  Z " fill-rule="nonzero" fill="#0066ff" stroke="none" transform="matrix(1 0 0 1 975 4360 )" />
  </g>
</svg>