<?xml version="1.0" encoding="utf-8"?>
<svg version="1.1" xmlns:xlink="http://www.w3.org/1999/xlink" width="64px" height="64px" xmlns="http://www.w3.org/2000/svg">
  <g transform="matrix(1 0 0 1 -250 -4148 )">
    <path d="M 25.0170969899665 2.0174983277592  C 26.2307959866221 3.24213154960981  27.6959821627647 3.26399999999998  29.1392998885173 2.45486733556299  C 30.2545908584169 1.87535340022296  31.3698818283166 1.30677369007805  32.4961070234114 0.738193979933101  C 34.8469654403567 1.65666889632107  37.1650211817168 2.69542028985506  39.1987870680044 4.22621181716835  C 41.8667380156076 4.16060646599777  44.5346889632107 4.14967224080269  47.2135741360089 4.0950011148272  C 49.0395897435897 5.89914827201784  50.8656053511705 7.71422965440357  52.6260156075808 9.60585061315496  C 54.5395050167224 9.58398216276476  56.452994425864 9.56211371237458  58.3664838350056 9.56211371237458  C 59.8098015607581 11.2022474916388  61.5155406911928 12.6455652173913  62.685502787068 14.5043835005574  C 63.3634247491639 16.9536499442586  63.5055696767001 19.5559955406912  63.2868851727982 22.0818015607581  C 63.0682006688963 31.539906354515  62.4340156075808 41.4244459308807  58.2899442586399 50.1062207357859  C 55.2502296544035 53.9988049052397  56.8684949832776 59.225364548495  56.693547380156 63.7630680044593  C 45.8139933110368 63.7630680044593  34.9344392419175 63.7630680044593  24.0548851727982 63.7630680044593  C 23.7705953177257 63.0742118171683  23.223884057971 61.7074336677815  22.9505284280936 61.0185774804905  C 21.4525395763656 51.7572887402453  11.1524994425864 48.2911393534002  7.87223188405795 40.0248651059086  C 4.38421404682273 37.3897168338908  -0.568989966555222 34.1531861761427  0.994604236343349 28.9594292084727  C 4.51542474916386 20.8790367892977  10.2886956521739 13.990474916388  13.9516610925306 5.9756878483835  C 14.9576098104794 4.48863322185062  16.302519509476 3.2749342251951  17.5162185061315 1.96282720178371  C 20.0092218506131 1.91909030100334  22.5131594202898 1.91909030100334  25.0170969899665 2.0174983277592  Z " fill-rule="nonzero" fill="#0066ff" stroke="none" transform="matrix(1 0 0 1 250 4148 )" />
  </g>
</svg>