<?xml version="1.0" encoding="utf-8"?>
<svg version="1.1" xmlns:xlink="http://www.w3.org/1999/xlink" width="120px" height="72px" xmlns="http://www.w3.org/2000/svg">
  <g transform="matrix(1 0 0 1 -744 -5089 )">
    <path d="M 0.744943820224762 7.78651685393254  C 0.846067415730317 5.94606741573045  0.795505617977483 3.72134831460676  2.46404494382023 2.52808988764048  C 4.476404494382 0.819101123595487  7.2775280898876 0.819101123595487  9.77528089887642 0.738202247190998  C 39.4550561797752 0.889887640449501  69.1348314606742 0.768539325842767  98.814606741573 0.808988764045012  C 104.073033707865 0.940449438202222  109.422471910112 0.252808988764059  114.620224719101 1.31460674157302  C 118.007865168539 2.03258426966295  119.261797752809 5.74382022471912  119.079775280899 8.84831460674161  C 119.039325842697 26.7471910112359  118.998876404494 44.656179775281  119.079775280899 62.5651685393259  C 119.221348314607 65.608988764045  118.361797752809 69.7550561797752  114.822471910112 70.3921348314607  C 106.307865168539 71.2820224719102  97.6314606741573 69.5730337078652  89.1775280898877 71.3932584269662  C 86.2550561797754 61.2404494382023  84.5561797752808 50.6932584269664  80.4808988764045 40.914606741573  C 77.9629213483146 41.3393258426967  75.1719101123596 41.2988764044944  73.038202247191 42.8764044943821  C 71.9865168539326 46.0314606741573  72.8056179775281 49.3887640449439  73.3314606741573 52.5741573033708  C 74.5550561797753 58.5101123595505  75.7179775280898 64.4561797752809  76.7393258426965 70.4224719101124  C 56.767415730337 70.6550561797753  36.7752808988764 70.7764044943821  16.8033707865168 70.3314606741574  C 21.2325842696629 67.085393258427  25.570786516854 63.1921348314607  27.8258426966291 58.0752808988764  C 29.2719101123596 54.7584269662922  26.652808988764 50.6629213483146  22.9415730337079 51.0573033707866  C 13.8 51.5123595505618  8.3797752808988 59.8247191011236  0.805617977528073 63.7280898876405  C 0.603370786516848 45.0808988764045  0.765168539325828 26.4337078651686  0.744943820224762 7.78651685393254  Z M 81.7348314606742 30.1044943820225  C 80.6831460674158 28.1123595505618  78.9438202247192 26.2213483146068  76.8 25.4730337078652  C 75.0808988764045 26.7168539325843  73.3415730337078 28.1629213483146  72.391011235955 30.1044943820225  C 72.7247191011236 32.6730337078652  73.4730337078652 35.1606741573034  74.0393258426966 37.6887640449439  C 76.0921348314606 37.638202247191  78.1550561797753 37.5977528089887  80.2280898876404 37.5674157303371  C 80.7337078651685 35.0797752808988  81.4112359550561 32.6224719101124  81.7348314606742 30.1044943820225  Z M 74.1303370786517 39.2561797752809  C 70.085393258427 39.8932584269663  65.8280898876404 39.9539325842698  62.1876404494382 37.8101123595507  C 60.4382022471909 39.5595505617978  58.7494382022471 41.3797752808989  57.1415730337078 43.2707865168539  C 58.7898876404494 44.7067415730337  60.2157303370786 46.6786516853933  62.3089887640449 47.4977528089887  C 64.8573033707864 47.2247191011236  67.3044943820225 46.3550561797753  69.7921348314607 45.7483146067417  C 70.8539325842696 43.3415730337078  72.2696629213483 41.1168539325843  74.1303370786517 39.2561797752809  Z M 92.7977528089887 38.1134831460674  C 88.843820224719 39.0640449438203  84.7988764044943 39.6101123595506  80.7337078651685 39.1550561797752  C 82.4932584269662 41.1775280898876  83.9898876404494 43.4022471910113  85.3348314606741 45.7179775280899  C 87.7921348314607 46.314606741573  90.2191011235955 47.1943820224719  92.7573033707865 47.4573033707866  C 94.9213483146067 46.4561797752809  96.2056179775281 44.2719101123596  97.7730337078651 42.5629213483146  C 96.1651685393258 41.0258426966292  94.7494382022472 39.1955056179776  92.7977528089887 38.1134831460674  Z " fill-rule="nonzero" fill="#979598" stroke="none" transform="matrix(1 0 0 1 744 5089 )" />
  </g>
</svg>