<?xml version="1.0" encoding="utf-8"?>
<svg version="1.1" xmlns:xlink="http://www.w3.org/1999/xlink" width="69px" height="100px" xmlns="http://www.w3.org/2000/svg">
  <g transform="matrix(1 0 0 1 -779 -4112 )">
    <path d="M 32.9223529411764 3.11406857546837  C 33.7985823529411 2.23649699540474  34.6748117647059 1.33725698126545  35.5618588235294 0.438016967126202  C 36.7517999999999 0.438016967126202  37.9633764705882 0.438016967126202  39.1857705882353 0.438016967126202  C 39.9754588235293 1.30475433015201  40.7651470588235 2.17149169317781  41.5764705882352 3.03822905620359  C 41.5115647058824 6.85187345351713  41.6089235294118 10.6655178508307  42.1281705882353 14.4574938140686  C 42.7555941176471 23.2007069635914  42.5933294117647 31.9872569812655  42.7231411764704 40.7521385648639  C 43.3938352941176 40.0262460233298  44.0537117647059 39.3003534817957  44.7352235294117 38.5744609402616  C 45.8494411764706 28.1302757158006  47.6127176470588 17.729427359491  49.3110882352941 7.35024743725697  C 50.1224117647058 6.48351007423116  50.9337352941177 5.60593849416756  51.7558764705882 4.7175326970661  C 52.3400294117648 4.7175326970661  53.4975176470589 4.72836691410393  54.0708529411763 4.72836691410393  C 54.947082352941 5.63844114528101  55.8341294117647 6.54851537645811  56.7428117647059 7.44775539059739  C 57.218788235294 12.4531636620714  55.2175235294118 17.2093849416755  55.6177764705882 22.2147932131495  C 54.4927411764708 28.9970130788265  54.4927411764708 35.8767408978437  53.3677058823529 42.6697949805585  C 53.919405882353 43.3523506539413  54.4927411764708 44.0349063273241  55.0660764705881 44.7282962177448  C 57.7380352941178 36.0392541534111  59.1118764705883 26.9926829268293  61.2213176470588 18.1519618239661  C 62.0110058823531 17.2527218098268  62.8223294117646 16.3534817956875  63.6228352941177 15.4434075645104  C 64.2178058823529 15.4434075645104  65.3861117647057 15.4434075645104  65.9810823529413 15.4434075645104  C 66.8681294117648 16.3751502297632  67.7876294117647 17.3068928950159  68.7179470588234 18.2278013432308  C 67.1710235294119 33.3306998939555  63.1576764705882 48.2277483209615  63.1360411764705 63.4498232591021  C 61.9352823529414 69.0619476846942  62.1191823529413 74.9774301873453  59.7825705882351 80.3403676210675  C 58.4303647058823 84.3706963591375  55.2932470588235 87.4151113467656  53.5840588235294 91.2612583951926  C 53.1188999999998 93.8939731353835  53.2811647058824 96.5808589607635  53.2595294117647 99.2460763520679  C 43.9563529411764 99.2460763520679  34.6531764705883 99.2569105691057  25.3499999999999 99.2460763520679  C 25.3175470588235 95.3565924354896  25.8908823529412 91.1854188759279  23.7165352941176 87.7076352067868  C 21.369105882353 84.3490279250619  17.6911058823529 82.2146871686108  15.2679529411763 78.9210851891127  C 12.1957411764706 74.1756981265465  10.2161117647058 68.8019264757865  8.9937176470587 63.2981442205727  C 7.8037764705881 58.1952279957582  5.09936470588229 53.5906857546836  3.89860588235285 48.5094379639449  C 3.71470588235286 43.8832272887946  2.27595882352932 39.4845351714387  0.426141176470537 35.2916931778013  C 0.469411764705796 31.4780487804878  5.06691176470588 32.2364439731354  7.60905882352938 32.6156415694592  C 13.1260588235294 37.2960233297985  13.5912176470588 45.0533227288795  17.128588235294 51.0446447507953  C 17.7019235294117 51.001307882644  18.8485941176471 50.9363025804171  19.4219294117646 50.9037999293036  C 20.0385352941177 49.354506892895  21.1094823529411 47.8810533757512  21.0121235294117 46.1367444326617  C 20.9796705882353 41.0663308589608  21.5097352941177 35.8875751148816  20.0493529411765 30.9580063626723  C 20.2332529411764 24.0457758925415  18.231988235294 17.3502297631672  18.8161411764706 10.4163308589608  C 20.6551411764705 8.20615058324495  24.8415705882352 7.80528455284553  26.1288705882353 10.7413573700954  C 27.7623352941176 18.8128490632732  28.8873705882353 26.9710144927536  30.5100176470587 35.0533404029692  C 30.9427235294116 36.7434782608696  30.3153 39.2678508306822  32.5978235294117 39.7337221633086  C 33.3226058823529 27.556062212796  32.7384529411764 15.3242311770944  32.9223529411764 3.11406857546837  Z " fill-rule="nonzero" fill="#0066ff" stroke="none" transform="matrix(1 0 0 1 779 4112 )" />
  </g>
</svg>