<?xml version="1.0" encoding="utf-8"?>
<svg version="1.1" xmlns:xlink="http://www.w3.org/1999/xlink" width="94px" height="95px" xmlns="http://www.w3.org/2000/svg">
  <g transform="matrix(1 0 0 1 -658 -4673 )">
    <path d="M 51.4292134831461 9.83258426966292  C 52.8348314606742 7.90112359550562  53.8865168539326 5.62584269662922  55.8078651685394 4.13932584269664  C 58.7101123595506 2.12696629213484  62.2696629213483 1.60112359550561  65.6269662921349 0.832584269662931  C 65.4853932584269 19.7123595505618  65.5460674157304 38.6022471910112  65.5966292134832 57.4820224719101  C 73.0898876404494 54.5797752808989  77.9033707865168 47.3494382022472  85.6393258426966 44.9426966292135  C 87.3786516853933 44.4067415730337  89.4011235955056 43.8707865168539  91.1303370786517 44.7808988764045  C 94.1134831460674 46.3179775280899  94.8314606741574 50.6865168539326  92.9606741573034 53.3460674157303  C 90.1089887640449 57.4921348314607  86.5191011235955 61.1325842696629  82.4337078651686 64.0752808988764  C 77.2460674157303 67.2505617977528  73.423595505618 71.9629213483146  69.6011235955057 76.5741573033708  C 61.8955056179775 80.9325842696629  53.5426966292135 84.3  44.8865168539326 86.2820224719101  C 39.9719101123595 87.0101123595506  37.2314606741573 91.5303370786517  33.9044943820224 94.6955056179775  C 22.7606741573034 88.2134831460674  11.6876404494383 81.6101123595506  0.70561797752805 74.8752808988764  C 7.94606741573034 70.4157303370787  15.156179775281 65.4707865168539  20.3033707865169 58.5842696629214  C 25.6123595505618 51.8089887640449  29.5966292134832 44.1337078651685  33.4595505617978 36.4685393258427  C 38.232584269663 26.8213483146068  45.1696629213483 18.5191011235955  51.4292134831461 9.83258426966292  Z " fill-rule="nonzero" fill="#000000" stroke="none" transform="matrix(1 0 0 1 658 4673 )" />
  </g>
</svg>