<?xml version="1.0" encoding="utf-8"?>
<svg version="1.1" xmlns:xlink="http://www.w3.org/1999/xlink" width="100px" height="80px" xmlns="http://www.w3.org/2000/svg">
  <g transform="matrix(1 0 0 1 -285 -4008 )">
    <path d="M 70.1518613242397 34.1935403726706  C 71.982325660699 30.7922153209112  69.7006905370845 27.4035817805383  68.4631935208868 24.2433954451345  C 66.6327291844274 19.9409730848862  63.8741420858197 16.0192960662527  62.4175049730038 11.5772670807452  C 61.4893822108554 9.94006211180129  64.4413282182439 8.11248447204943  65.6014816709293 9.49585921325064  C 69.8940494458651 13.8363561076606  71.6213890309747 19.9409730848862  75.5014578005112 24.6114492753622  C 74.1350548451264 17.0726915113873  69.8553776641088 10.3588819875778  68.6436618357488 2.78204968944117  C 69.5846751918155 2.03325051759855  70.5256885478827 1.27175983436834  71.4924830917875 0.510269151138666  C 77.1127820403523 6.75449275362339  77.8604364876385 15.7527743271224  81.8565206024438 22.9869358178054  C 82.3205819835179 15.372028985507  78.2987166808753 8.30285714285738  79.0850429099173 0.649875776397333  C 79.8713691389597 0.764099378881891  81.4311310031258 0.979855072463953  82.2174572321681 1.08138716356092  C 85.4143245240124 8.21401656314693  85.865495311168 16.2223602484472  89.1010343847685 23.3549896480332  C 89.9775947712419 17.0980745341614  87.1932264847966 10.9807660455488  87.9537715260015 4.6350103519666  C 88.8818942881499 4.6350103519666  90.7381398124468 4.64770186335419  91.6662625745952 4.66039337474125  C 93.6385234441602 16.7934782608694  97.1060932082978 28.6092753623191  99.7099931798809 40.6027536231886  C 98.6787456663826 44.8036438923394  97.8666382495026 49.1441407867494  99.117025859619 53.408488612836  C 93.8705541346972 54.8299378881989  88.5596294401819 56.3529192546583  83.8932344416027 59.1577432712213  C 83.1069082125603 56.9621118012422  82.3334725774366 54.7791718426496  81.4569121909632 52.6343064182198  C 77.2545785734583 51.0732505175988  72.9620107985221 49.2456728778469  70.2420954816711 45.539751552795  C 65.5757004830918 39.3716770186337  59.7878238135833 33.7112629399588  56.8616589940324 26.5024844720499  C 57.8800159136119 26.0836645962734  58.91126342711 25.6775362318839  59.9554015345269 25.2587163561079  C 64.1190633702755 27.2639751552796  66.7100727479396 31.2618012422359  70.1518613242397 34.1935403726706  Z M 48.8709718670076 6.07292679028112  C 51.026662404092 6.07292679028112  53.1954177323104 6.07292679028112  55.3772378516625 6.07292679028112  C 56.2133844842282 9.13008791560113  53.064769820972 15.4354827365729  58.2122975277066 15.3208391943735  C 56.3570971867006 17.065968670077  54.5541560102301 18.8238363171358  52.7512148337595 20.5944421355499  C 51.1703751065642 19.0658615728898  49.5895353793689 17.5500191815857  48.0217604433075 16.0469149616368  C 49.1192028985507 12.8241576086957  48.831777493606 9.4103276854222  48.8709718670076 6.07292679028112  Z M 7.79329589680842 26.6420910973086  C 8.42790392527537 25.9821325051759  9.68416879795407 24.6495238095239  10.3058256421661 23.9895652173912  C 10.9145313021237 24.7256728778468  12.118991437785 26.1725051759833  12.7147459134881 26.9086128364389  C 11.419627488046 32.2771221532093  11.4714322250639 37.8360041407867  10.0597531413322 43.1918219461696  C 10.8756777493608 42.3161076604554  11.7045535416434 41.4403933747412  12.5334293339265 40.5646790890269  C 14.3983998665627 33.7366459627329  14.8387401312132 26.0455900621117  19.0996797509175 20.1948033126294  C 19.7472389636384 20.8801449275362  21.055308573335 22.2635196687369  21.7028677860559 22.9488612836437  C 20.420700544868 29.7388198757766  18.193096853108 36.439937888199  17.985877905037 43.3441200828159  C 21.6899166018015 36.6176190476188  23.5030823974204 29.0661697722568  26.9999021461134 22.2381366459628  C 28.0100945179586 22.2508281573498  30.0563816301569 22.2635196687369  31.0795251862561 22.2762111801245  C 31.32559768709 30.6272256728779  25.1737851662401 37.6329399585922  24.6168842433004 45.8316563146999  C 27.4661447792728 40.3996894409936  30.9370621594575 35.310393374741  33.6827132213946 29.8149689440994  C 34.6799544089848 29.8149689440994  36.6614855999108 29.8149689440994  37.645775603247 29.8276604554865  C 37.3608495496497 37.0491304347824  31.7270843989771 42.5699378881986  29.6419437340153 49.2583643892334  C 29.3958712331814 51.0478674948236  29.6807972867787 52.7612215320914  30.470819526298 54.3984265010348  C 32.8408862448571 51.4793788819877  35.4052207272322 48.7126293995864  38.0213599466251 45.9966459627327  C 40.0805982430779 46.1489440993789  42.3729578561102 45.9712629399586  43.810539308351 47.7734575569358  C 40.9612787723785 50.3244513457556  39.5495996886467 53.8780745341618  37.2831424441233 56.8351966873706  C 32.5948137440231 61.4041407867497  30.0952351829198 68.0164182194623  23.865715556544 70.9608488612834  C 19.4364105415322 71.696956521739  17.364221060825 75.4790269151143  15.8618836873124 79.2103312629404  C 13.8026453908596 78.1950103519664  11.652748804626 77.4208281573502  9.5158034026464 76.6212629399589  C 8.25953852996771 76.2278260869564  7.01622484154314 75.8216977225675  5.79881352162789 75.4028778467909  C 4.06335483153538 74.7809937888194  2.36674969420673 74.0956521739131  0.683095741132066 73.4230020703934  C 1.04572890025579 71.8873291925464  1.82279995552094 70.4024223602488  1.95231179806516 68.8413664596277  C 0.838509952184803 64.5389440993784  0.825558767930809 60.0588405797102  1.26589903258077 55.667577639752  C 4.07630601578991 46.1489440993789  6.39456799733112 36.452629399586  7.79329589680842 26.6420910973086  Z M 47.3427109974424 26.1060310102301  C 47.3427109974424 29.0358104219949  47.3557757885763 31.9655898337597  47.3688405797102 34.8953692455245  C 45.1086317135548 34.8953692455245  42.8614876385338 34.8953692455245  40.6404731457801 34.9081074168798  C 40.4967604433078 31.621659207161  41.1761295822673 28.067709398977  39.3209292412617 25.1251918158569  C 40.9409633418583 23.520182225064  42.5740622335891 21.9406489769822  44.2332907075874 20.3483775575446  C 46.0884910485934 22.2081505754474  47.9698209718668 24.055185421995  49.7727621483373 25.9786492966754  L 47.3427109974424 26.1060310102301  Z " fill-rule="nonzero" fill="#0066ff" stroke="none" transform="matrix(1 0 0 1 285 4008 )" />
  </g>
</svg>