<?xml version="1.0" encoding="utf-8"?>
<svg version="1.1" xmlns:xlink="http://www.w3.org/1999/xlink" width="88px" height="80px" xmlns="http://www.w3.org/2000/svg">
  <g transform="matrix(1 0 0 1 -1088 -4008 )">
    <path d="M 33.0925708985508 22.6757880434782  C 32.1293968695651 22.0134031329925  31.1787315942029 21.338280051151  30.2405750724638 20.6504187979536  C 29.2023485217391 20.6504187979536  27.138404173913 20.6504187979536  26.1001776231883 20.6631569693095  C 26.1752301449275 17.8225447570335  26.8882291014492 15.0965760869568  27.7888593623188 12.4342982736572  C 28.2141569855071 13.02025415601  29.0772609855071 14.1794277493607  29.5025586086956 14.7653836317134  C 29.9778912463768 14.1157368925826  30.9285565217391 12.8164434143218  31.4038891594203 12.166796675192  C 33.3302372173913 11.810127877238  34.6186388405796 10.2942854859333  35.969584231884 8.98225383631678  C 37.2329683478261 10.8675031969313  38.4588262028986 12.7909670716112  39.4345089855073 14.867289002558  C 37.6082309565216 16.2812260230181  35.8069704347825 17.7588539002553  33.6554648115942 18.6250495524291  C 33.5178685217391 19.6441032608698  33.2301671884057 21.6694725063944  33.0925708985508 22.6757880434782  Z M 50.9585808695652 9.89587723785114  C 50.3581606956521 9.60740664961657  49.1573203478261 9.04300767263468  48.556900173913 8.75453708439904  C 46.568008347826 10.5355294117651  44.4039939710144 12.0907621483371  42.1899445797101 13.5581994884909  C 41.1267005217391 11.6894117647055  39.9008426666666 9.8707928388745  39.2879137391304 7.80132992327387  C 41.1767355362318 6.18338618925811  43.3032236521739 4.90408184143234  45.304624231884 3.44918670076689  C 45.1920454492752 2.65902813299202  44.9793966376811 1.09125319693061  44.8668178550725 0.301094629155748  C 47.030832231884 1.86886956521716  49.620144231884 2.19496675191776  52.2094562318841 2.20750895140715  C 52.0468424347826 4.80374424552471  51.7716498550724 7.39997953964228  50.9585808695652 9.89587723785114  Z M 61.8302252173913 60.5450570029044  C 58.9665024347826 56.3232251072869  55.8060876521739 52.2034314447956  53.6647453913043 47.5734466166721  C 52.4521780869565 44.2316944817717  55.8963852173913 41.8720603407169  57.9087309565217 39.7675217824786  C 55.2514026086956 32.6376002427498  52.826268 25.4183952490359  50.2979361739129 18.250209371884  C 49.3046629565217 16.1074064762237  50.5688288695652 13.9646035805623  51.2396107826087 11.9621032554513  C 56.2962744347827 16.9237123412377  58.1409246956522 24.1429173349517  60.9143499130435 30.4692877888074  C 62.7203012173912 30.4692877888074  64.5520518260869 30.4692877888074  66.3838024347826 30.4565330096664  C 67.054584347826 31.2728388746804  67.7511655652174 32.0891447396934  68.4477467826086 32.9054506047075  C 70.1505008695652 33.0585079543979  71.8532549565218 33.2625844206514  73.5560090434783 33.517680003468  C 76.0327422608696 34.9462152672416  78.0450880000001 36.9742251506346  80.0316344347826 39.0022350340287  C 82.7663606956521 39.2190662794222  83.7983328695652 41.8848151198579  84.6368102608696 44.0786371320824  C 85.152796347826 48.6065837270796  84.7400074782608 53.1855494386411  84.869004 57.7262508127794  C 85.5526855652173 58.3257254323989  86.9071490434783 59.4991651133558  87.5908306086956 60.0986397329753  C 84.8819036521738 63.22356062248  80.276727826087 63.3638631930294  76.6261262608695 64.8689271316481  C 74.5492822608695 65.7234973340843  72.4853379130435 66.5653127573804  70.4471928695651 67.4709020763797  C 67.9833593043478 64.6520958862546  64.7713459130433 62.7516337942699  61.8302252173913 60.5450570029044  Z M 19.8721674655355 44.2325000000004  C 21.5208059384941 43.6143487394956  23.1694444114527 42.9961974789919  24.8306679109226 42.4038025210083  C 25.1327085471898 42.9318067226888  25.7493748462354 43.98781512605  26.0640005090138 44.5158193277316  C 28.7320261293743 38.3214285714284  31.3874667232237 32.1270378151263  33.9799821845174 25.9068907563029  C 35.4901853658537 26.2674789915967  38.0071906680805 25.5720588235293  38.0197756945918 27.9030042016808  C 35.6412056839874 36.1578991596637  32.7718196394486 44.2711344537811  29.8017533828207 52.3199789915966  C 31.6769223329798 54.4448739495794  34.4582131919405 56.6727941176471  34.5840634570519 59.660525210084  C 31.878282757158 64.3481722689081  29.0466517921526 68.9714285714281  26.0765855355248 73.4787815126048  C 21.9990369459172 75.5650420168069  19.0038006362673 82.3518277310926  13.8565247932131 78.8232142857145  C 10.9745537221633 77.7414495798321  8.10516767762455 76.6468067226892  5.27353671261921 75.4233823529413  C 4.11571427359488 75.1658193277313  1.8000693955461 74.6378151260508  0.642246956521776 74.3673739495802  C 1.51061378578999 72.8992647058818  2.3789806150582 71.4440336134452  3.25993247083773 69.9888025210085  C 2.94530680805937 64.2193907563021  3.51163300106041 58.475735294118  5.16027147401905 52.9510084033609  C 7.42557624602322 51.470021008403  10.3956425026511 50.9935294117649  11.3521045174973 47.9671638655461  C 13.4789739978791 46.589201680672  15.9833942735949 46.4217857142862  18.4374744432661 46.3702731092438  C 18.789855185578 45.8422689075633  19.5072016967126 44.7605042016809  19.8721674655355 44.2325000000004  Z " fill-rule="nonzero" fill="#0066ff" stroke="none" transform="matrix(1 0 0 1 1088 4008 )" />
  </g>
</svg>