<?xml version="1.0" encoding="utf-8"?>
<svg version="1.1" xmlns:xlink="http://www.w3.org/1999/xlink" width="60px" height="104px" xmlns="http://www.w3.org/2000/svg">
  <g transform="matrix(1 0 0 1 -784 -4480 )">
    <path d="M 14.7262105978261 89.9436398550724  C 12.5498940217392 82.0970177536228  11.1964633152172 74.0545021739126  9.28000543478242 66.1425822463771  C 8.13229619565209 62.6273826086954  8.80359782608662 58.5789173913045  12.2467255434783 56.7070463768114  C 14.2389755434781 56.0105362318836  16.1770883152174 55.1507815217392  18.1043736413042 54.2583778985509  C 19.4794592391302 53.9210057971013  20.5730312499998 52.7674108695655  20.4539293478258 51.265560869565  C 21.1144035326085 37.2591771739135  20.6704782608695 23.2310275362315  20.8004076086954 9.2137608695657  C 21.5691562499999 8.27782536231916  22.3379048913043 7.34188985507262  23.1066535326088 6.40595434782608  C 24.9364918478261 6.51478405797116  27.3401847826085 5.78562499999953  28.1630706521739 8.03840000000037  C 30.5451086956523 13.4690025362315  28.8235448369567 19.5090514492749  29.6897404891306 25.1790793478258  C 31.1731005434783 30.3267246376809  30.3177323369566 35.724678260869  30.5775910326086 40.9920362318844  C 32.1259157608695 40.9593873188405  33.6958953804346 40.9376213768119  35.2767024456523 40.9158554347823  C 38.9472065217392 42.5374181159423  41.0477309782607 45.8567242753625  42.2170951086955 49.6004663043477  C 43.0074986413042 49.5895833333334  44.5883057065216 49.5569344202895  45.3787092391303 49.5460514492752  C 45.7468423913042 50.0249021739128  46.4722812499999 50.982603623188  46.8404144021738 51.4614543478265  C 47.2951671195651 51.5376351449277  48.2155 51.7117626811596  48.6810801630434 51.7879434782608  C 52.6330978260871 55.0201858695655  53.3260543478259 60.2657778985504  55.9354687499999 64.4121898550729  C 60.7103722826087 65.8596250000001  60.2447921195651 71.9214398550721  59.2811494565217 75.795777536232  C 57.3322092391304 81.5093373188402  56.8774565217391 87.7343967391307  53.813289402174 93.0235206521738  C 52.1783451086956 96.4951884057973  54.387144021739 100.151866666667  54.6145203804347 103.688832246376  C 44.4583763586957 103.656183333334  34.3022323369564 103.743247101449  24.1569157608694 103.656183333334  C 22.1538383152174 103.656183333334  21.9156345108695 101.1531  21.6016385869566 99.6838989130438  C 20.2915176630436 95.7551463768114  17.1840407608697 93.067052536232  14.7262105978261 89.9436398550724  Z M 31.783839673913 6.55659903381638  C 30.6794402173914 5.26100724637672  29.5100760869564 4.01723913043497  28.3948491847827 2.73201207729471  C 24.940894021739 2.60763526570008  20.9239116847825 2.31742270531413  19.0615910326085 5.75851449275342  C 19.1915203804347 -1.64190579710157  32.585070652174 -0.72980917874429  31.783839673913 6.55659903381638  Z M 0.495579710144739 9.42221946169775  C 1.86150362318858 9.40064389233976  3.21632246376794 9.37906832298177  4.60445652173917 9.36828053830232  C 4.65998188405774 14.7298095238093  4.62666666666678 20.0805507246378  4.63777173913059 25.4420797101448  C 3.23853260869555 25.4420797101448  1.86150362318858 25.4420797101448  0.495579710144739 25.4528674948242  C 0.48447463768116 20.1021262939958  0.48447463768116 14.7621728778467  0.495579710144739 9.42221946169775  Z M 12.2641217391306 9.40064389233976  C 12.2641217391306 14.7513850931673  12.2747826086957 20.1021262939958  12.2641217391306 25.4528674948242  C 11.464556521739 25.4528674948242  9.88674782608678 25.4528674948242  9.08718260869568 25.4528674948242  C 9.06586086956531 20.1021262939958  9.07652173913039 14.7513850931673  9.07652173913039 9.40064389233976  C 9.8760869565217 9.40064389233976  11.4752173913043 9.40064389233976  12.2641217391306 9.40064389233976  Z " fill-rule="nonzero" fill="#0066ff" stroke="none" transform="matrix(1 0 0 1 784 4480 )" />
  </g>
</svg>