<?xml version="1.0" encoding="utf-8"?>
<svg version="1.1" xmlns:xlink="http://www.w3.org/1999/xlink" width="42px" height="100px" xmlns="http://www.w3.org/2000/svg">
  <g transform="matrix(1 0 0 1 -474 -4112 )">
    <path d="M 24.1557943143813 3.61332626369742  C 25.0168645484949 2.71408624955814  25.8779347826086 1.80401201838106  26.7390050167224 0.893937787203953  C 29.3652692307692 0.406398020501939  31.7655025083611 1.78234358430541  32.1852742474916 4.52340049487452  C 31.9700066889632 10.5472251679039  30.4308436454849 16.6902262283492  30.3985535117056 22.8223930717568  C 28.9562608695652 27.8603039943443  29.5590100334448 33.1148992576882  29.3545058528427 38.2719865676918  C 30.3770267558529 38.8462000706963  31.3995476588628 39.3987451396253  32.4543586956522 39.907953340403  C 34.4886371237458 41.6955991516437  35.61879180602 44.176634853305  36.2107775919732 46.7876811594203  C 38.6433010033444 47.8819370802404  41.2372750836121 50.0704489218805  41.2480384615384 52.974019088017  C 41.3233821070233 60.6013078826441  41.2265117056857 68.2285966772711  41.2910919732441 75.8558854718982  C 41.4525426421405 78.3260869565217  40.5914724080268 80.6662778366914  39.9994866220736 83.0173029338989  C 38.4710869565216 86.3867444326617  36.1677240802676 89.6911806291976  37.0503210702341 93.6023329798516  C 37.9436814381271 95.6066631318487  38.5571939799331 97.7193354542241  39.3106304347825 99.7778366914104  C 28.7840468227424 99.8103393425238  18.2574632107023 99.7886709084482  7.74164297658865 99.7886709084482  C 7.95691053511706 97.5784906327324  8.3982090301003 95.3899787910923  8.65653010033435 93.1906327324143  C 8.23675836120395 88.6727642276423  5.7611814381271 84.8049487451396  3.78071989966554 80.8504595263344  C 2.47835117056849 76.4300989749028  1.20827257525076 71.8905620360551  1.44506688963207 67.2210144927536  C 1.86483862876247 62.2264404383174  -1.5902056856188 56.7118239660658  1.67109782608691 52.118115942029  C 3.56545234113713 49.918769883351  5.49209698996657 47.5460763520679  5.6966011705685 44.4908271474019  C 5.79347157190637 40.1138034641216  6.04102926421399 35.6826086956522  5.2014857859532 31.359756097561  C 3.94217056856189 25.1084128667374  5.42751672240797 18.6512195121951  4.12514799331103 12.4107104984093  C 3.72690301003342 10.6230646871686  3.58697909698992 8.80291622481442  3.51163545150501 6.97193354542242  C 4.34041555183944 6.06185931424531  5.15843227424745 5.14095086603041  5.97644899665545 4.22004241781548  C 7.19271070234106 4.20920820077765  8.40897240802673 4.19837398373983  9.63599749163876 4.187539766702  C 10.4540142140468 5.09761399787911  11.2720309364548 6.00768822905621  12.1008110367893 6.91776246023329  C 13.3924163879599 18.1203428773418  15.3836413043477 29.2579179922234  17.0089113712374 40.4171615411806  C 19.0754799331103 38.9545422410746  18.4619673913043 36.2134853305055  19.0216630434782 34.0574761399788  C 20.0764740802675 29.2579179922234  20.3670852842809 24.2958465889007  21.6586906354514 19.5504595263344  C 22.207622909699 14.1875220926122  23.8759464882943 8.99793213149522  24.1557943143813 3.61332626369742  Z " fill-rule="nonzero" fill="#0066ff" stroke="none" transform="matrix(1 0 0 1 474 4112 )" />
  </g>
</svg>