<?xml version="1.0" encoding="utf-8"?>
<svg version="1.1" xmlns:xlink="http://www.w3.org/1999/xlink" width="67px" height="105px" xmlns="http://www.w3.org/2000/svg">
  <g transform="matrix(1 0 0 1 -359 -4479 )">
    <path d="M 34.4558874680307 1.5003206521742  C 35.6850230179028 2.99284239130429  37.221442455243 4.38042119565216  37.2653401534527 6.54924184782612  C 35.0924040920716 4.94011684782618  33.1389565217391 2.03669565217388  30.1758618925831 2.51476902173908  C 27.9480537084399 3.17940760869533  26.3787109974424 5.12668206521721  24.578905370844 6.54924184782612  C 24.6447519181585 4.39208152173887  26.1482480818414 2.99284239130429  27.388358056266 1.5003206521742  C 29.7039616368286 0.427570652173927  32.140283887468 0.404249999999593  34.4558874680307 1.5003206521742  Z M 15.0131331103679 66.0752494654316  C 14.458972909699 63.0058802565927  14.4155093645485 59.0189771917321  17.5666163879598 57.3368317890236  C 18.4793508361204 56.8452957947256  19.4029511705685 56.3428367783317  20.3156856187291 55.8513007840338  C 22.2498133779264 54.8245367070558  25.683433444816 54.6606913756241  25.6942993311037 51.809782608696  C 26.6830949832776 37.3149322879544  27.019937458194 22.7763898788307  26.8026197324415 8.23784746970796  C 28.149989632107 7.28754454739828  29.5190913043478 6.37001069137568  30.8881929765886 5.46339985744817  C 32.0399769230769 6.38093371347077  33.1917608695652 7.30939059158936  34.3326789297659 8.25969351389904  C 35.5061946488294 14.3656628652889  35.6474511705685 20.5262473271559  35.5931217391304 26.7305238774052  C 36.7449056856187 31.4383464005705  36.6036491638796 36.2881682109764  36.8209668896321 41.1052209550962  C 39.1462665551839 41.4547576621526  41.9170675585284 40.8321454027082  43.7642682274247 42.6453670705632  C 45.9700431438127 44.1964362081253  46.9153752508361 46.7961154668565  47.9476344481605 49.1773342836777  L 48.6973806020067 49.1991803278688  C 50.3272635451505 49.9528688524588  51.9680123745819 50.6737883107626  53.6087612040133 51.3947077690664  C 56.0861832775919 53.612081254455  58.5853371237458 56.0042230933714  59.3676809364548 59.3903599429796  C 60.3347448160535 64.5897184604419  67.5605591973244 66.6104775481108  65.9632739130435 72.5962936564501  C 63.974816722408 80.4171774768356  62.6165809364548 88.5985210263716  58.7809230769231 95.8077156094087  C 59.4872056856187 98.6040092658586  60.2369518394648 101.411225944405  60.7585143812709 104.251211689238  C 50.4793859531772 104.251211689238  40.2111234113712 104.31674982181  29.9319949832776 104.240288667142  C 27.9326719063545 104.382287954383  27.976135451505 101.771685673557  27.6392929765886 100.428153955809  C 27.367645819398 99.8492337847474  26.8243515050167 98.6913934426229  26.5527043478261 98.1124732715607  C 24.8358943143813 94.103724162509  20.8807117056856 91.5258909479689  19.5659394648829 87.3314504632926  C 18.2837648829431 80.1987170349248  16.6212842809364 73.1424447612262  15.0131331103679 66.0752494654316  Z M 2.82318972332014 21.4135869565216  C 4.58950197628457 21.3917806324107  6.34491106719366 21.3808774703557  8.11122332015808 21.3808774703557  C 8.27477075098813 23.6923478260869  8.51464031620552 26.0038181818181  8.85263833992093 28.3043853754943  C 3.55370158102764 28.2934822134384  -0.120664031620578 22.7110632411068  0.555332015810251 17.7610276679843  C 1.88551778656125 15.4059446640313  3.66273320158101 13.3670533596842  5.69072134387349 11.5898379446644  C 8.86354150197626 11.8079011857708  12.7014545454545 10.8702292490116  15.1110533596838 13.5633102766797  C 18.3929051383399 16.3654229249014  18.3820019762846 20.9011383399211  16.7138181818182 24.5646007905143  C 15.1546660079051 25.9820118577072  13.4755790513834 27.2794881422924  11.5675256916996 28.2062569169957  C 11.0223675889328 27.5084545454547  10.477209486166 26.8106521739128  9.93205138339918 26.1237529644268  C 10.1065019762846 24.9353083003953  10.4554031620553 22.5693221343872  10.6298537549407 21.3808774703557  C 12.3743596837945 21.3808774703557  14.1188656126482 21.3917806324107  15.8633715415019 21.4135869565216  C 15.8742747035573 20.595849802372  15.8851778656126 18.9712786561267  15.896081027668 18.1535415019762  C 14.0752529644269 18.1535415019762  12.2653280632411 18.1535415019762  10.4554031620553 18.1644446640312  C 10.4445 16.7143241106714  10.4335968379446 15.2642035573126  10.4226936758893 13.8249861660079  C 9.8775355731225 13.8249861660079  8.79812252964425 13.8249861660079  8.26386758893278 13.8358893280629  C 8.25296442687744 15.2642035573126  8.25296442687744 16.7143241106714  8.24206126482211 18.1644446640312  C 6.421233201581 18.1535415019762  4.61130830039524 18.1535415019762  2.79048023715413 18.1535415019762  C 2.80138339920947 18.9712786561267  2.82318972332014 20.595849802372  2.82318972332014 21.4135869565216  Z " fill-rule="nonzero" fill="#0066ff" stroke="none" transform="matrix(1 0 0 1 359 4479 )" />
  </g>
</svg>