<?xml version="1.0" encoding="utf-8"?>
<svg version="1.1" xmlns:xlink="http://www.w3.org/1999/xlink" width="71px" height="119px" xmlns="http://www.w3.org/2000/svg">
  <g transform="matrix(1 0 0 1 -515 -4637 )">
    <path d="M 0.38539325842703 9.4808988764045  C 0.203370786516871 6.31573033707866  1.54831460674154 3.41348314606742  3.1359550561798 0.764044943820224  C 17.738202247191 0.066292134831464  32.370786516854 0.642696629213482  46.9831460674158 0.470786516853934  C 53.2629213483145 0.683146067415727  59.6033707865168 -0.115730337078652  65.8325842696629 0.834831460674152  C 68.9674157303371 1.35056179775281  70.2820224719102 4.67752808988764  70.2314606741573 7.51910112359551  C 70.3932584269663 16.5595505617978  70.1404494382023 25.5898876404494  70.2516853932584 34.6303370786517  C 70.261797752809 57.7168539325843  70.1910112359551 80.8033707865169  70.2820224719102 103.879775280899  C 69.7561797752809 108.683146067416  72.2235955056179 115.731460674157  66.8033707865169 118.401123595506  C 61.3426966292135 119.321348314607  55.7606741573034 118.593258426966  50.2494382022472 118.795505617978  C 36.3247191011236 118.724719101124  22.4 118.775280898876  8.48539325842694 118.84606741573  C 5.66404494382016 118.84606741573  1.77078651685395 118.593258426966  0.901123595505624 115.286516853933  C -0.120224719101088 110.119101123595  0.577528089887664 104.8  0.466292134831519 99.561797752809  C 0.435955056179751 69.538202247191  0.547191011235896 39.5044943820225  0.38539325842703 9.4808988764045  Z " fill-rule="nonzero" fill="#979598" stroke="none" transform="matrix(1 0 0 1 515 4637 )" />
  </g>
</svg>