<?xml version="1.0" encoding="utf-8"?>
<svg version="1.1" xmlns:xlink="http://www.w3.org/1999/xlink" width="96px" height="94px" xmlns="http://www.w3.org/2000/svg">
  <g transform="matrix(1 0 0 1 -124 -5336 )">
    <path d="M 49.0078651685393 12.5382022471911  C 51.7685393258428 8.92808988764045  54.023595505618 4.79213483146066  57.7651685393258 2.07191011235955  C 59.9494382022472 0.423595505617982  62.8213483146068 0.716853932584286  65.3898876404494 0.413483146067506  C 66.623595505618 18.7370786516855  65.5516853932585 37.1415730337078  65.9561797752809 55.4955056179776  C 74.5213483146068 53.1595505617978  79.2842696629214 44.1393258426967  88.2033707865169 42.5719101123595  C 92.2685393258427 41.2269662921349  96.4853932584269 46.0101123595505  94.7460674157303 49.8730337078651  C 91.9752808988763 55.6067415730337  86.8483146067416 59.7123595505618  81.7213483146068 63.2921348314607  C 77.0494382022472 66.7101123595505  73.5606741573033 71.4022471910112  69.6370786516853 75.5786516853932  C 61.8202247191011 80.8977528089887  52.4258426966293 83.1932584269664  43.4460674157303 85.7820224719101  C 39.2898876404495 86.8842696629214  36.8224719101123 90.6966292134831  34.2741573033708 93.8516853932584  C 23.1202247191011 87.147191011236  12.0370786516854 80.3314606741574  0.711235955056168 73.9505617977529  C 8.25505617977524 69.4808988764045  15.7988764044943 64.5056179775281  20.9359550561798 57.2348314606742  C 28.31797752809 47.870786516854  32.3123595505618 36.4842696629214  38.9056179775281 26.6247191011236  C 42.1314606741573 21.8314606741573  45.4988764044944 17.129213483146  49.0078651685393 12.5382022471911  Z " fill-rule="nonzero" fill="#000000" stroke="none" transform="matrix(1 0 0 1 124 5336 )" />
  </g>
</svg>