<?xml version="1.0" encoding="utf-8"?>
<svg version="1.1" xmlns:xlink="http://www.w3.org/1999/xlink" width="64px" height="117px" xmlns="http://www.w3.org/2000/svg">
  <g transform="matrix(1 0 0 1 -535 -4896 )">
    <path d="M 5.15168539325839 9.94943820224717  C 4.88876404494386 7.44157303370793  4.31235955056184 4.66067415730339  5.60674157303379 2.34494382022473  C 7.41685393258422 -0.294382022471893  11.947191011236 -0.203370786516814  13.4337078651686 2.74943820224718  C 15.3044943820224 6.47078651685393  15.7595505617977 10.6977528089888  16.7606741573034 14.7022471910112  C 18.6921348314607 22.8426966292135  20.5224719101124 31.023595505618  22.5146067415731 39.1539325842697  C 24.5977528089887 39.4775280898876  26.6910112359551 39.7404494382023  28.7438202247191 40.2258426966292  C 33.7797752808989 41.176404494382  35.7011235955057 47.1831460674157  40.7775280898876 48.1539325842697  C 43.9123595505619 49.1348314606742  47.1786516853932 50.2269662921348  49.5247191011235 52.6640449438202  C 52.2752808988764 55.1314606741573  53.3370786516854 58.832584269663  55.6730337078652 61.6134831460674  C 57.9078651685393 63.7674157303371  61.6494382022472 64.6168539325843  62.5595505617978 67.9337078651686  C 64.6629213483146 73.2528089887641  62.3573033707866 78.8752808988764  62.3977528089888 84.3359550561798  C 62.4685393258427 89.8370786516854  60.6786516853932 95.0752808988764  59.5460674157304 100.394382022472  C 60.638202247191 103.589887640449  62.3674157303371 106.522471910112  63.6112359550561 109.667415730337  C 58.2415730337078 111.113483146067  52.6797752808989 111.629213483146  47.2191011235955 112.630337078652  C 39.9685393258427 113.742696629213  32.7887640449438 115.330337078652  25.4977528089887 116.098876404494  C 23.7584269662922 111.811235955056  21.2404494382023 107.766292134831  17.6 104.843820224719  C 15.4258426966293 102.962921348315  12.7966292134831 101.365168539326  11.8258426966293 98.5033707865168  C 8.67078651685392 90.8280898876405  5.75842696629218 83.0415730337079  2.53258426966295 75.3966292134832  C 1.32921348314608 72.6865168539326  0.65168539325839 69.8044943820225  0.226966292134762 66.9022471910112  C 3.46292134831458 62.6044943820224  8.04382022471907 59.7325842696629  12.4831460674158 56.8505617977528  C 10.1775280898877 41.1966292134832  7.67977528089887 25.5629213483146  5.15168539325839 9.94943820224717  Z " fill-rule="nonzero" fill="#000000" stroke="none" transform="matrix(1 0 0 1 535 4896 )" />
  </g>
</svg>