<?xml version="1.0" encoding="utf-8"?>
<svg version="1.1" xmlns:xlink="http://www.w3.org/1999/xlink" width="46px" height="97px" xmlns="http://www.w3.org/2000/svg">
  <g transform="matrix(1 0 0 1 -578 -4115 )">
    <path d="M 17.3167678571429 3.68614176105225  C 17.6451607142858 3.03439532334673  18.2909999999999 1.72004000730726  18.6193928571429 1.06829356960176  C 20.5788035714285 -0.180887102667157  22.6257857142856 -0.104850018268166  24.5633035714285 1.16605553525758  C 24.9245357142856 1.82866441359153  25.6251071428571 3.15388217025941  25.9753928571429 3.81649104859335  C 26.2162142857142 15.6022391304348  25.8221428571427 27.4097120935331  26.1614821428572 39.1845977347461  C 26.5227142857143 39.488746072342  27.256125 40.0970427475338  27.6173571428573 40.4011910851297  C 29.8066428571428 33.4926788454512  29.8504285714286 26.1713938618926  30.9012857142858 19.0673576909024  C 32.1163392857142 15.1242917427841  30.6166785714285 10.5729291194739  33.2547678571428 7.04263591523565  C 34.5683392857142 5.391544939715  36.8670892857142 6.21709042747534  38.651357142857 6.33657727438802  C 39.056375 7.06436079649251  39.8883035714285 8.51992784070151  40.3042678571428 9.247711362806  C 39.5927499999999 15.2655034709536  38.8921785714285 21.2398458165875  39.0782678571428 27.3119501278772  C 37.5019821428571 33.666477895506  38.2135 40.2382544757033  38.0930892857142 46.7231315308732  C 42.329357142857 50.2316998538546  46.0730357142855 55.0111737303617  45.7884285714285 60.789992144684  C 45.5695000000001 69.5451192911947  44.113625 78.3328337595908  41.2456607142857 86.6534632809646  C 40.8187499999999 87.0662360248447  39.9539821428572 87.8700566313482  39.5270714285714 88.2828293752283  C 40.2933214285714 91.0962014979905  41.0376785714286 93.9204360613811  41.6178392857142 96.7881203872853  C 32.2039107142856 96.7663955060285  22.7790357142857 96.8858823529412  13.365107142857 96.7663955060285  C 12.2923571428572 91.9651967482645  10.913107142857 86.9684740591889  7.51971428571437 83.2100696017537  C 6.12951785714279 81.7219152356595  6.19519642857142 79.5494271099744  5.60408928571428 77.7136746437706  C 4.12632142857137 69.9035798319327  2.34205357142855 62.1477972232371  0.853339285714242 54.3594272926562  C 0.185607142857179 50.7639594446474  2.75801785714282 47.8311004749726  5.23191071428562 45.593437705517  C 5.96532142857131 38.978211362806  3.6994107142857 32.6019587139203  4.14821428571429 26.0084572524662  C 3.57899999999995 20.2730886006576  1.4882321428571 13.8642486298867  4.29051785714285 8.44389075630252  C 5.647875 8.45475319693094  7.01617857142855 8.45475319693094  8.39542857142851 8.45475319693094  C 9.07410714285709 9.73652119108513  9.77467857142847 11.0182891852393  10.2453750000001 12.3978191450493  C 11.9858571428571 22.0871161856047  13.1790178571428 31.928487394958  15.5325 41.4982975886007  C 16.2768571428571 39.3258094629156  17.3824464285714 37.1750462184874  17.2839285714285 34.8070341614907  C 17.3167678571429 24.4334033613445  17.2291964285714 14.0597725611984  17.3167678571429 3.68614176105225  Z " fill-rule="nonzero" fill="#0066ff" stroke="none" transform="matrix(1 0 0 1 578 4115 )" />
  </g>
</svg>