<?xml version="1.0" encoding="utf-8"?>
<svg version="1.1" xmlns:xlink="http://www.w3.org/1999/xlink" width="90px" height="80px" xmlns="http://www.w3.org/2000/svg">
  <g transform="matrix(1 0 0 1 -935 -4008 )">
    <path d="M 41.3289554347826 5.412974877167  C 43.7456413043478 3.67518494484156  46.1753201086955 1.92489292667097  48.7609141304347 0.412140539537815  C 50.0991864130435 2.03741169926765  51.4504516304348 3.6626828589964  52.7757309782609 5.31295819041439  C 51.5154163043478 6.27561880040822  50.216122826087 7.18827106702466  48.6569706521739 7.60083989987915  C 47.1757760869565 9.03857977194786  45.9934190217391 10.7013571892088  45.096906521739 12.539163808288  C 42.6542347826087 12.2016074904979  40.2895206521739 11.5014906832297  37.9507923913043 10.8013738759614  C 39.1981141304347 7.87588578844882  39.4709657608695 4.73786224158691  39.7827961956522 1.63734495225723  C 40.1725842391304 2.57500139056291  40.9391673913043 4.47531843886132  41.3289554347826 5.412974877167  Z M 78.2814445387062 61.7711442786073  C 75.9517845174973 62.5416077507196  73.6607376458112 63.4276407436499  71.4083039236479 64.429243257397  C 69.4776464475079 62.4902435192454  67.8558941675503 59.9220319455355  65.0113921527041 59.2799790521075  C 60.7253325556733 54.5801518722179  57.4303437963944 49.0199738151351  54.4700023329797 43.4212725844457  C 54.7274233297985 40.454988216811  57.3659885471897 38.4004189578426  59.258032873807 36.3330086410057  C 56.4907571580064 28.1917779523434  53.3502209968187 20.1789578423675  50.6086873806998 12.0248860958366  C 51.3423372216331 10.1886148206334  52.6680553552492 9.50803875360084  54.5858417815482 9.95747577899971  C 57.6620226935312 15.6717465305049  60.1203932131495 21.6942026708562  62.6045058324496 27.6781356376018  C 64.4836791092259 27.7680230426816  66.375723435843 27.7166588112074  68.2677677624602 27.7423409269445  C 68.9241913043478 28.6155328620062  69.5934858960763 29.5015658549354  70.2627804878049 30.3875988478657  C 72.0518564156946 30.3362346163915  73.8409323435842 30.2848703849174  75.642879321315 30.2463472113118  C 77.2260184517497 31.8643205027498  78.8348996818663 33.4694527363183  80.4952651113467 35.0360617962822  C 82.4001804878048 35.6395915161035  83.8417380699894 37.0392668237753  85.244682502651 38.4004189578426  C 85.1288430540827 43.2671798900232  87.0080163308589 47.8899607227026  86.6476269353128 52.7695627127517  C 86.2100112407211 55.0295888976167  88.0377003181336 56.4677873788953  89.299063202545 58.0600785545952  C 87.3169215270414 58.5865619272064  85.4120061505832 59.2414558785018  83.4684776246023 59.8706677140613  C 81.7437569459173 60.4998795496197  79.9932941675504 61.1034092694421  78.2814445387062 61.7711442786073  Z M 35.6999373913043 19.0666209326044  C 31.9643686956521 18.0914582367665  29.11152 21.004444238435  26.6040834782609 23.2173134328354  C 24.9921599999999 21.4420172429777  23.22672 19.5667043663674  23.0732034782608 17.0662871975523  C 25.1072973913043 15.8785890423662  27.103012173913 14.6283804579586  29.1882782608696 13.52819690368  C 29.2522434782608 13.0031092982299  29.3929669565217 11.9529340873275  29.456932173913 11.4278464818763  C 31.7213008695652 11.4278464818763  33.9856695652174 11.4403485677204  36.2628313043478 11.4528506535645  C 35.9813843478261 13.9782719940667  35.7766956521739 16.516195420413  35.6999373913043 19.0666209326044  Z M 13.6634220735786 44.7837675293389  C 15.6053404682274 44.3047970171245  17.5997431438127 44.1365100804012  19.6072668896321 44.0329488885716  C 20.0927464882943 43.4115817375907  21.0637056856187 42.1559022866511  21.5491852842809 41.5345351356703  C 23.3336508361203 41.5604254336282  25.1181163879598 41.5733705826061  26.9157030100334 41.612206029543  C 30.22221270903 35.307918476886  31.363745819398 27.5278839406502  37.0845324414716 22.7899594144238  C 37.6356173913043 24.8094026551108  38.9214822742475 26.9712425345642  37.950523076923 29.1071921160598  C 35.4575197324414 36.4341464380381  32.636489632107 43.6445944192079  30.22221270903 50.9974390391452  C 32.5052789297658 53.1463337696187  35.5362461538461 55.5152960327324  34.4603183946488 59.0881571508709  C 31.5211986622074 63.9814234648418  28.7657739130434 69.1206476094109  24.8294528428093 73.3278210275082  C 21.7460013377926 74.3245974988727  19.7909618729097 77.0042433374763  17.521016722408 79.101357472036  C 15.4741297658862 78.1693067455642  13.3878795986622 77.3408172109241  11.3147505016723 76.499382527304  C 7.49651906354509 75.2825385233013  3.48147157190631 74.3116523498937  0.188082943143809 71.9556352357589  C 4.3474622073579 68.2921580747697  2.39242274247492 62.5833473751357  2.82541806020065 57.7936422529944  C 2.81229698996651 54.7256419450282  4.16376722408024 50.764426357527  7.66709297658854 50.194839802462  C 9.60901137123744 48.3307383495195  11.5640508361203 46.479582045557  13.6634220735786 44.7837675293389  Z " fill-rule="nonzero" fill="#0066ff" stroke="none" transform="matrix(1 0 0 1 935 4008 )" />
  </g>
</svg>