<?xml version="1.0" encoding="utf-8"?>
<svg version="1.1" xmlns:xlink="http://www.w3.org/1999/xlink" width="105px" height="80px" xmlns="http://www.w3.org/2000/svg">
  <g transform="matrix(1 0 0 1 -448 -4008 )">
    <path d="M 62.7807034930677 3.82724137930977  C 65.9950546843451 3.78391518526392  69.1942438417014 3.76947312058197  72.3934329990577 3.76947312058197  C 72.4237570669 6.16685585778559  72.4540811347422 8.5786806596699  72.4995672365056 10.9905054615555  C 68.4513041795665 11.4959777254224  62.2348702719074 9.09859498822008  61.6132268811415 14.8320946669528  C 61.2341760331134 14.2544120796748  60.4912363709786 13.0846048404369  60.1121855229506 12.5069222531589  C 58.3230655202584 11.0482737202833  56.5794316193296 9.56074105804246  54.8206356844797 8.08765046048362  C 57.2465611118589 5.34365817091447  59.8847550141338 2.80185478689261  62.568435018172 0.288935532233405  C 62.6139211199354 1.16990147783232  62.7352173913043 2.94627543371211  62.7807034930677 3.82724137930977  Z M 79.6749943456974 38.2039580209901  C 80.5441667553616 28.9934218604986  76.1833189758395 20.1399985721419  76.8726626110904 10.8848233026345  C 78.1464497631845 10.8699435996284  80.6640526049705 10.8401841936173  81.9378397570645 10.8253044906125  C 84.7251857604704 19.7828857000071  85.0398861156937 29.3505347326334  88.4416470983449 38.1295595059607  C 89.3407909704113 30.2879560219888  88.8612475719759 22.2975555079606  87.467574570273 14.5303505390169  C 88.8162903783726 13.1316584564862  90.1050632616678 11.6883272649384  91.4837505321697 10.3491539944311  C 94.6457398156032 14.2773955879201  92.7425519530626 19.4555322338833  94.06129629876 23.9492025415868  C 95.320097719653 28.3684743342609  94.900497246022 32.9811822660097  94.9154829772231 37.5194916827303  L 96.2641987853227 37.430213464696  C 96.4590132909371 31.2700164203614  97.7927433678356 25.2288570000709  98.0475007982544 19.0686599557363  C 98.6769015087009 18.3395545084605  99.950688660795 16.8813436139078  100.580089371242 16.1522381666309  C 103.876950235485 20.9583822374532  101.793933598531 26.9400228457204  102.573191620989 32.311595630756  C 103.966864622692 42.6678689226813  104.446408021127 53.1580595416581  103.682135729871 63.5738516456055  C 102.078662491352 67.3681759120443  100.220431822415 71.1476204754769  100.984704113671 75.4032155350897  C 99.0665305199297 75.8198472192478  97.1483569261881 76.2959977154279  95.3051119884519 76.9953437566926  C 92.652637565856 77.2482987077895  89.8353201000479 77.084621974727  87.4376031078707 78.4684343542515  C 86.3286589989889 78.5725922752907  84.110770781225 78.7809081173704  83.0018266723431 78.8850660384096  C 81.4732820898302 75.5668922681522  82.0876970690756 70.1358006710933  77.4421203967324 69.4513343328335  C 67.0719944055664 61.6097308488616  64.0298909717418 48.3370357678309  57.6459694800702 37.6534090097805  C 59.2344569873875 36.2547169272511  61.122659118727 35.6000099950023  63.3255616052897 35.7190476190477  C 66.2777506519078 39.2604169343896  68.6454961816827 43.2184179338897  71.4178564538875 46.8788248732782  C 73.7256590588579 47.0127422003284  74.4000169629077 44.2451174412794  73.7706162524612 42.4595530806029  C 71.6875996155074 34.4393931605624  68.6454961816827 26.5977896765905  67.6714236536108 18.3246748054544  C 68.8552964184982 18.2800356964372  71.2380276794742 18.2056371814091  72.4219004443616 18.1609980723919  C 74.999446210952 24.7824659099018  77.3372202783247 31.4932119654459  79.6749943456974 38.2039580209901  Z M 43.5147642841819 2.43638104024912  C 45.2799228582666 4.5515880521283  47.2395480549199 6.48015915119372  49.2889270773741 8.2998593011181  C 47.1647532000858 10.8349971168267  44.9059485840961 13.2768169761277  42.67706191004 15.7341898281623  C 42.4526773455377 14.8010102640985  41.9889492455663 12.9502041287046  41.7496057100972 12.0325775573756  C 38.458632097397 12.1103425210471  35.1826174556636 12.1414485065154  31.8916438429634 12.172554491985  C 31.8766848719965 9.52854572713665  31.8617259010297 6.9000899550231  31.8467669300629 4.28718717564309  C 35.6912224685354 3.75838542267267  40.5828059746853 5.82693345634872  43.5147642841819 2.43638104024912  Z M 3.72383152173911 16.0183208395806  C 9.20856836384436 22.2677961019496  6.95803775743705 30.8831441422143  7.73305491990844 38.3825144570575  C 9.71531035469104 35.510731776968  8.73163472540043 31.8652045405869  9.55136441647593 28.6511886913687  C 11.071590389016 23.2796159063331  10.1624356407322 17.6402084671946  11.071590389016 12.1644777611198  C 12.6961455949656 12.1644777611198  14.3356049771167 12.1793574641247  15.9601601830663 12.1942371671308  C 17.346248569794 20.3929535232388  15.6322683066361 28.6363089883626  15.0808137871853 36.8201456414656  C 16.0048727116705 35.8232055400869  16.9140274599542 34.8262654387095  17.8380863844393 33.8293253373308  C 18.1510740846682 26.8656243306922  20.1780420480549 20.125118869137  21.3107594393592 13.2655757835365  C 21.7727889016018 10.31939458842  24.8877617276888 10.9145827086455  27.0637714530892 10.6467480545438  C 28.1219679633867 20.1102391661309  23.3824399313501 29.2761362176052  24.5002531464531 38.5610708931249  C 26.4676044050343 31.6122495894913  29.2397811784897 24.9312629399581  31.7436827803203 18.175877775398  C 32.8167834668192 18.2056371814091  34.9629848398169 18.2651559934324  36.0360855263158 18.2800356964372  C 36.1553189359267 26.3448347254949  32.0566704805492 33.6210094952523  30.8047196796338 41.4774926822303  C 29.8806607551487 43.8880045691446  31.728778604119 46.0902006139792  32.3547540045766 48.3221560648248  C 34.7990389016018 43.8731248661384  37.4817906178489 39.5282515884913  40.8948469679634 35.7488070250587  C 42.638635583524 35.9124837581212  44.3675200228833 36.0910401941886  46.1113086384439 36.2844763332622  C 43.8905863844393 43.0398614978223  40.8352302631579 49.4976526022709  37.1538987414187 55.5834511315773  C 34.4264344965675 61.728768472907  30.4470194508009 68.0080031412869  23.8444693935926 70.448274434211  C 22.6223269450801 73.186139787249  22.2795308924485 76.1769600913826  21.7429805491991 79.093381880488  C 17.3909610983981 78.3196373241951  13.1134625286041 77.1887798957662  8.68692219679633 76.9655843506816  C 6.89842105263154 76.3108774184341  5.0503032036613 75.8198472192478  3.18728117848967 75.4180952380958  C 3.53007723112126 70.9541843364034  2.57620995423338 66.6241907617624  0.161733409610955 62.8447461983298  C -0.225775171624742 54.6013907332047  0.146829233409573 46.4026743770968  1.50310926773454 38.2634768330122  C 2.66563501144163 30.9277832512315  -0.643092105263185 22.53563075605  3.72383152173911 16.0183208395806  Z " fill-rule="nonzero" fill="#0066ff" stroke="none" transform="matrix(1 0 0 1 448 4008 )" />
  </g>
</svg>