<?xml version="1.0" encoding="utf-8"?>
<svg version="1.1" xmlns:xlink="http://www.w3.org/1999/xlink" width="71px" height="120px" xmlns="http://www.w3.org/2000/svg">
  <g transform="matrix(1 0 0 1 -505 -4844 )">
    <path d="M 0.29438202247195 11.923595505618  C 0.314606741573016 8.61685393258426  0.36516853932585 4.85505617977532  2.8325842696629 2.3370786516854  C 4.54157303370789 0.597752808988758  7.20112359550558 0.901123595505624  9.42584269662916 0.749438202247205  C 27.6483146067416 0.911235955056185  45.8808988764044 0.749438202247205  64.1134831460674 0.820224719101134  C 68.5022471910112 0.385393258426973  71.0606741573034 5.04719101123595  70.7876404494382 8.9202247191011  C 70.7573033707865 39.3280898876404  70.7674157303371 69.7460674157304  70.7775280898876 100.15393258427  C 65.7011235955057 99.1831460674157  63.7797752808989 93.176404494382  58.7438202247191 92.2258426966292  C 56.6910112359551 91.7404494382023  54.5977528089887 91.4775280898876  52.5146067415731 91.1539325842697  C 50.5224719101124 83.023595505618  48.6921348314607 74.8426966292135  46.7606741573034 66.7022471910112  C 45.7595505617977 62.6977528089888  45.3044943820224 58.4707865168539  43.4337078651686 54.7494382022472  C 41.947191011236 51.7966292134832  37.4168539325842 51.7056179775281  35.6067415730338 54.3449438202247  C 34.3123595505618 56.6606741573034  34.8887640449439 59.4415730337079  35.1516853932584 61.9494382022472  C 37.6797752808989 77.5629213483146  40.1775280898877 93.1966292134832  42.4831460674158 108.850561797753  C 38.0438202247191 111.732584269663  33.4629213483146 114.604494382022  30.2269662921348 118.902247191011  C 21.5606741573033 119.387640449438  12.8539325842697 119.225842696629  4.19775280898875 118.851685393258  C 8.24269662921347 115.150561797753  13.056179775281 112.308988764045  16.5752808988764 108.041573033708  C 18.6483146067416 105.55393258427  21.4393258426966 102.712359550562  20.5595505617978 99.1730337078652  C 20.1449438202247 96.4426966292135  17.3842696629214 94.4  14.6438202247191 94.9157303370787  C 9.12247191011238 95.8561797752809  4.66292134831463 99.5876404494383  0.355056179775261 102.924719101124  C 0.355056179775261 85.7539325842697  0.36516853932585 68.5932584269663  0.395505617977506 51.4325842696629  C 0.314606741573016 38.2561797752809  0.44606741573034 25.0898876404494  0.29438202247195 11.923595505618  Z M 31.0966292134831 51.4831460674158  C 29.5696629213484 49.5719101123595  27.8101123595505 47.8629213483146  25.929213483146 46.3157303370787  C 24.3213483146068 48.0044943820225  22.7337078651685 49.7134831460675  21.2168539325843 51.4932584269663  C 22.5314606741573 54.6584269662922  22.7741573033708 58.0966292134831  22.8348314606742 61.4842696629213  C 25.0393258426966 61.5044943820225  27.2539325842696 61.5044943820225  29.4685393258427 61.4943820224719  C 29.529213483146 58.0966292134831  29.761797752809 54.6483146067416  31.0966292134831 51.4831460674158  Z " fill-rule="nonzero" fill="#979598" stroke="none" transform="matrix(1 0 0 1 505 4844 )" />
  </g>
</svg>