<?xml version="1.0" encoding="utf-8"?>
<svg version="1.1" xmlns:xlink="http://www.w3.org/1999/xlink" width="130px" height="163px" xmlns="http://www.w3.org/2000/svg">
  <g transform="matrix(1 0 0 1 -436 -4634 )">
    <path d="M 69.5258426966292 13.7550561797753  C 70.6078651685393 10.0943820224719  70.3853932584269 6.25168539325843  70.3955056179775 2.48988764044944  C 72.2561797752809 1.66067415730337  74.0561797752808 0.0224719101123654  76.2404494382023 0.467415730337081  C 78.4348314606742 1.07415730337079  80.2955056179775 2.47977528089888  82.1359550561798 3.76404494382022  C 80.5483146067415 6.41348314606742  79.2033707865169 9.31573033707866  79.385393258427 12.4808988764045  C 79.5471910112359 42.5044943820225  79.4359550561798 72.538202247191  79.4662921348315 102.561797752809  C 79.5775280898877 107.8  78.8797752808989 113.119101123595  79.9011235955056 118.286516853933  C 80.7707865168539 121.593258426966  84.6640449438202 121.84606741573  87.4853932584269 121.84606741573  C 101.4 121.775280898876  115.324719101124 121.724719101124  129.249438202247 121.795505617978  C 116.983146067416 131.230337078652  103.92808988764 140.584269662921  88.5067415730338 143.911235955056  C 83.7235955056179 145.326966292135  78.5258426966292 144.538202247191  73.8741573033708 146.469662921348  C 71.2449438202248 147.784269662921  68.9292134831461 149.634831460674  66.4820224719101 151.262921348315  C 62.0224719101124 154.003370786517  59.423595505618 158.695505617978  56.1168539325843 162.598876404494  C 52.4056179775281 160.9  48.7449438202248 159.120224719101  45.2865168539325 156.956179775281  C 30.9977528089888 148.229213483146  16.4359550561798 139.937078651685  2.11685393258426 131.250561797753  C 1.22696629213482 131.02808988764  -0.0573033707865136 129.339325842697  1.40898876404495 128.944943820225  C 9.93370786516854 124.667415730337  17.0629213483146 118.256179775281  24.1011235955056 111.925842696629  C 28.0449438202247 107.8  32.7067415730337 104.189887640449  35.5280898876405 99.1337078651686  C 39.9775280898876 91.2561797752809  44.9022471910113 83.6415730337079  50.1707865168539 76.2898876404494  C 52.0921348314607 73.5494382022472  52.9820224719101 70.2831460674157  54.3067415730337 67.2393258426966  C 55.6820224719102 63.9224719101124  57.6842696629213 60.8584269662921  58.5337078651686 57.3292134831461  C 60.6067415730338 48.9157303370787  62.2955056179775 40.4011235955056  63.3573033707866 31.7955056179775  C 64.0955056179776 25.3741573033708  67.9786516853933 19.9438202247191  69.5258426966292 13.7550561797753  Z " fill-rule="nonzero" fill="#000000" stroke="none" transform="matrix(1 0 0 1 436 4634 )" />
  </g>
</svg>