<?xml version="1.0" encoding="utf-8"?>
<svg version="1.1" xmlns:xlink="http://www.w3.org/1999/xlink" width="59px" height="98px" xmlns="http://www.w3.org/2000/svg">
  <g transform="matrix(1 0 0 1 -882 -4238 )">
    <path d="M 5.74381055900619 14.6119021739132  C 3.98476708074531 12.7018297101449  2.2990170807453 10.7251268115942  0.529503105590038 8.84836956521758  C 1.05302795031054 8.70400362318833  2.11054813664592 8.42637681159431  2.63407298136644 8.28201086956506  C 2.84348291925463 5.77226449275349  2.77018944099373 3.26251811594193  2.83301242236021 0.752771739130367  C 4.64440838509316 0.874927536231553  6.44533385093166 1.01929347826081  8.25672981366458 1.14144927536199  C 8.22531832298134 3.56235507246402  8.20437732919254 5.97215579710155  8.15202484472047 8.38195652173908  C 8.79072515527946 8.45969202898596  10.0576552795031 8.61516304347788  10.6963555900621 8.69289855072475  C 9.02107608695653 10.6362862318838  7.38767857142855 12.624094202899  5.74381055900619 14.6119021739132  Z M 18.7937377717391 32.5051086956519  C 18.5663614130435 24.4517101449273  20.0497214673913 16.3983115942028  19.1185611413043 8.36667898550695  C 18.7829103260869 6.69070144927537  19.1293885869565 5.02560688405811  19.4758668478261 3.40404420289815  C 20.407027173913 2.47899166666684  21.3165326086956 1.55393913043463  22.2152105978261 0.607120652173762  C 23.7635353260869 0.944492753623308  25.257722826087 1.45599239130388  26.7302554347826 2.03278985507222  C 28.1594782608695 8.18166847826069  28.2244429347826 14.4393768115942  28.1919605978261 20.7079681159421  C 29.1989130434783 25.5291242753619  29.372152173913 30.4373442028982  29.2097404891304 35.367330072464  C 30.7797201086956 35.3455641304345  32.3496997282608 35.3237981884058  33.9196793478261 35.3020322463772  C 36.9946739130434 36.6515206521735  39.0302336956522 39.2199018115944  40.2212527173913 42.3106655797101  C 40.5893858695652 44.1390047101449  42.4841888586956 43.8995793478261  43.9025842391304 44.1934195652175  C 45.8840067934783 45.6190887681159  48.1902527173913 46.783566666667  49.6303029891304 48.8295652173911  C 51.5684157608696 52.0073927536232  52.3046820652174 55.805549637681  54.6109279891304 58.7766007246373  C 58.4546711956522 59.9737275362322  58.9743885869565 64.9581282608697  58.2381222826087 68.3427322463767  C 56.6140054347826 73.6209731884055  55.3471942934783 79.0080438405794  53.8963165760869 84.3406996376816  C 52.9868111413043 86.0493260869562  52.1422703804348 87.7906014492755  51.2977296195652 89.5427597826092  C 51.6333804347826 91.0010778985506  51.9257214673913 92.459396014493  52.2505448369565 93.9285971014497  C 52.6728152173913 95.2236706521735  53.0192934782608 96.5513931159421  53.2899796195652 97.9008815217394  C 42.5924633152174 97.9444134057967  31.8949470108696 97.8791155797098  21.2082581521739 97.9335304347824  C 20.6344035326087 95.8331170289857  20.0388940217391 93.7435865942025  19.2593179347826 91.719353985507  C 17.2345855978261 87.8450163043481  12.8927798913043 85.5813583333329  12.0698940217391 81.0431594202901  C 11.0412866847826 72.0102934782608  7.27333559782608 63.3692144927536  7.48988451086953 54.2275188405793  C 9.54709918478255 51.8332652173913  12.0698940217391 49.9613942028982  15.0582690217391 48.9275119565218  C 16.1193586956521 48.6010228260866  17.1804483695652 48.2854166666666  18.2415380434782 47.9806934782609  C 18.5880163043478 42.8330481884059  18.9236671195652 37.6745199275365  18.7937377717391 32.5051086956519  Z " fill-rule="nonzero" fill="#0066ff" stroke="none" transform="matrix(1 0 0 1 882 4238 )" />
  </g>
</svg>