<?xml version="1.0" encoding="utf-8"?>
<svg version="1.1" xmlns:xlink="http://www.w3.org/1999/xlink" width="96px" height="94px" xmlns="http://www.w3.org/2000/svg">
  <g transform="matrix(1 0 0 1 -937 -4674 )">
    <path d="M 32.5146067415729 38.2505617977528  C 37.8134831460674 27.5314606741573  45.2966292134831 18.147191011236  52.2134831460673 8.46966292134832  C 54.8831460674156 4.6067415730337  58.5033707865168 -0.0348314606741553  63.8123595505618 0.774157303370799  C 64.4999999999999 0.774157303370799  65.8955056179775 0.784269662921346  66.5932584269663 0.784269662921346  C 67.038202247191 19.3404494382023  66.4112359550562 37.9067415730337  66.8662921348314 56.452808988764  C 74.4101123595506 52.7820224719101  79.5977528089887 44.9550561797753  88.2134831460673 43.4280898876405  C 92.5112359550561 42.2955056179775  96.6775280898877 47.7561797752809  94.3213483146067 51.5584269662921  C 91.4797752808989 56.2808988764045  87.161797752809 59.9314606741573  82.7932584269663 63.1977528089888  C 77.5449438202247 66.3224719101124  73.894382022472 71.2471910112359  69.8797752808989 75.6865168539326  C 62.0022471910113 80.914606741573  52.6483146067416 83.2808988764045  43.6483146067416 85.8494382022472  C 39.48202247191 86.9516853932584  37.0247191011235 90.7741573033708  34.4662921348315 93.9191011235955  C 23.3629213483146 87.1539325842697  12.2595505617977 80.3786516853933  0.903370786516803 74.0280898876404  C 6.98089887640447 70.3269662921348  13.1696629213483 66.5550561797753  17.952808988764 61.185393258427  C 23.9696629213483 54.3595505617978  28.5303370786517 46.4011235955056  32.5146067415729 38.2505617977528  Z " fill-rule="nonzero" fill="#000000" stroke="none" transform="matrix(1 0 0 1 937 4674 )" />
  </g>
</svg>