<?xml version="1.0" encoding="utf-8"?>
<svg version="1.1" xmlns:xlink="http://www.w3.org/1999/xlink" width="81px" height="80px" xmlns="http://www.w3.org/2000/svg">
  <g transform="matrix(1 0 0 1 -790 -4008 )">
    <path d="M 38.0464729531338 13.1168071072821  C 36.7679993224167 11.7652200834566  35.4670963297571 10.4482891371653  34.1661933370976 9.13135819087314  C 33.4708831168831 9.05049400996129  32.0914773574252 8.90031767398078  31.3961671372105 8.83100551891211  C 31.3064496894409 9.76671961233047  31.1270147939018 11.6612518508545  31.0372973461321 12.5969659442729  C 29.4223832862789 10.4367371113202  26.7869332580463 8.88876564813568  25.7663972896669 6.38197603984353  C 27.437384754376 4.29105936195954  29.3999539243365 2.4773913043483  31.2840203274986 0.60596311751253  C 31.2840203274986 1.55322923677503  31.2840203274986 3.43620944945494  31.2840203274986 4.37192354287235  C 32.9886518351214 4.90331673172669  34.682068661773 5.45781397227122  36.4203442123095 5.88523892852352  C 39.5716695652173 8.51910082110599  42.4426278938452 11.9731565486606  42.5435600225861 16.3629263696327  C 42.5099159796724 21.468921792973  39.055794240542 25.8471395881009  34.7830007905138 28.1113366536546  C 32.1026920383964 28.8275622560238  29.3102364765669 28.7698021268003  26.6411424054206 28.0997846278095  C 22.3347049124789 25.8933476914794  19.3628144551101 21.7346183874006  18.6899335968379 16.8250074034193  C 20.0469099943534 16.8365594292635  21.4151010728401 16.8481114551086  22.7832921513269 16.8712155067978  C 23.1982353472614 19.8054300713423  24.8580081309994 22.1273872661196  27.1458030491248 23.8255350652846  C 27.8523279503105 24.1374397630907  29.2653777526821 24.7496971328579  29.9831173348391 25.061601830664  C 30.8354330886505 24.8998734688384  31.6989635234331 24.7381451070128  32.5737086391869 24.5764167451881  C 33.7848941840767 23.9179512720416  34.9960797289666 23.2363817472067  36.2072652738565 22.566364248217  C 38.3044106154715 19.8862942522551  39.0445795595708 16.4206864988553  38.0464729531338 13.1168071072821  Z M 64.1376300465838 67.661646413635  C 63.409026242236 64.3765604040087  60.1823522515527 63.0011437702198  57.3720232919254 61.7734991714669  C 55.0705604813664 57.4653759962128  51.6472791149068 53.7369738814806  49.8546824534161 49.1901420342459  C 49.0104272515528 46.1096634577447  53.2317032608695 45.1093604513536  53.4745711956522 42.4267296614849  C 51.4391065993788 34.6402801230962  47.2178305900621 27.3767162471392  46.2926194099379 19.3401909571529  C 47.1715700310559 19.3174567979172  48.9410364130435 19.2606213998261  49.8199870341614 19.2378872405903  C 52.2949269409938 24.6940854572715  54.5963897515528 30.2298532312795  57.4298489906832 35.5269123333069  C 59.0720988354037 31.7189406612478  62.4722499223602 36.0270638365029  64.3458025621118 37.2319742760201  C 65.918661568323 37.2888096741104  67.5030857142857 37.3342779925827  69.0990749999999 37.3797463110551  C 70.5100220496894 38.7665300244618  71.9209690993789 40.1646808174863  73.3550464285714 41.5400974512742  C 76.0612891304348 41.7788061232539  77.0558911490683 44.5637406296852  77.6457132763975 46.7803211552114  C 77.865450931677 50.4973561903257  77.6572784161491 54.2371253846757  77.7729298136646 57.9768945790267  C 78.7212712732919 59.1704379389251  79.6349173136646 60.398082537678  80.4907376552794 61.6825625345222  C 74.9857311335403 63.5240294326525  69.3766383540372 65.1608888976568  64.1376300465838 67.661646413635  Z M 11.4240375 49.8502027933405  C 13.181938742236 49.5091904047972  14.9629702639751 49.3727854493801  16.7555669254658 49.2704817328175  C 17.1950422360248 48.7248619111501  18.0508625776398 47.6222551881955  18.4903378881987 47.0652682869092  C 20.1672831521739 47.0993695257637  21.844228416149 47.1221036849994  23.5327388198757 47.1675720034718  C 26.4818494565217 41.7113737867907  27.9274919254658 35.4367458376079  31.9174651397515 30.5602686814487  C 32.7732854813664 31.7879132802016  35.2135299689441 32.7313808885035  33.999190295031 34.5273794681605  C 31.6283366459627 41.472665114811  28.6676608695652 48.2701787264264  27.0022807453416 55.420071806202  C 29.060875621118 57.1023995896786  31.0269493788819 59.1371068413163  31.0385145186335 61.96750966622  C 27.9853176242236 65.4117347904991  26.2852420807453 69.7880604434623  23.2783057453416 73.2436526473602  C 20.6877144409937 75.3124611378524  17.5188661490683 76.8015485678217  15.8881814440994 79.8365588258505  C 14.1996710403726 79.0635974118203  12.4649000776397 78.4043067939714  10.7532593944099 77.6995478576502  C 7.13337065217391 76.4719032588973  3.50191677018626 75.2556257397622  0.00924456521739239 73.7210699913205  C 0.726283229813638 72.3115521186772  2.5420101708074 71.1975783161047  2.27601195652169 69.4811492937745  C 1.54740815217384 65.0934565611935  3.75634984472042 60.9331054209734  3.12026715838511 56.5113114495379  C 3.98765263975156 55.9088562297802  4.855038121118 55.3177680896394  5.73398874223599 54.7380470291165  C 7.73475791925465 53.2375925195294  9.66613625776398 51.6348342933797  11.4240375 49.8502027933405  Z " fill-rule="nonzero" fill="#0066ff" stroke="none" transform="matrix(1 0 0 1 790 4008 )" />
  </g>
</svg>