<?xml version="1.0" encoding="utf-8"?>
<svg version="1.1" xmlns:xlink="http://www.w3.org/1999/xlink" width="64px" height="117px" xmlns="http://www.w3.org/2000/svg">
  <g transform="matrix(1 0 0 1 -552 -5339 )">
    <path d="M 4.89438202247197 9.50224719101129  C 4.71235955056181 6.62022471910109  3.75168539325841 2.24157303370794  7.26067415730336 0.977528089887642  C 10.4865168539326 -0.448314606741576  13.7629213483146 2.02921348314601  14.2483146067416 5.30561797752807  C 17.1808988764045 16.6516853932584  19.5674157303371 28.1494382022472  22.3786516853933 39.5460674157304  C 27.3640449438202 39.9  32.814606741573 40.8808988764044  35.6966292134831 45.4617977528089  C 36.3033707865169 46.2303370786517  36.9101123595506 47.0089887640451  37.5168539325844 47.8078651685394  C 41.8853932584269 48.323595505618  46.3449438202247 49.7292134831461  49.4797752808988 52.9853932584271  C 52.847191011236 56.1303370786517  53.6662921348315 61.4696629213483  58.0752808988764 63.5831460674158  C 62.1808988764045 65.3932584269663  63.7078651685393 70.2269662921349  63.2325842696629 74.4134831460674  C 62.0494382022472 81.8056179775281  62.4640449438202 89.4303370786516  60.1584269662922 96.6303370786517  C 58.0651685393258 101.312359550562  61.9685393258427 105.569662921348  63.3134831460675 109.877528089888  C 50.7438202247191 112.314606741573  38.1033707865168 114.448314606742  25.4325842696629 116.319101123595  C 23.7033707865168 112.324719101124  21.4382022471909 108.451685393258  18.0910112359551 105.589887640449  C 15.876404494382 103.456179775281  12.7719101123596 102  11.7202247191011 98.9056179775281  C 8.57528089887649 91.2202247191011  5.64269662921345 83.4539325842696  2.42696629213481 75.7887640449438  C 0.960674157303288 72.370786516854  -0.637078651685329 68.0123595505619  1.95168539325834 64.6955056179775  C 4.64157303370791 61.4595505617977  8.57528089887649 59.6494382022472  11.861797752809 57.0808988764045  C 11.861797752809 53.0662921348314  11.1337078651685 49.1224719101124  10.5269662921348 45.1786516853932  C 8.7067415730337 33.2764044943821  6.76516853932583 21.394382022472  4.89438202247197 9.50224719101129  Z " fill-rule="nonzero" fill="#000000" stroke="none" transform="matrix(1 0 0 1 552 5339 )" />
  </g>
</svg>