<?xml version="1.0" encoding="utf-8"?>
<svg version="1.1" xmlns:xlink="http://www.w3.org/1999/xlink" width="95px" height="94px" xmlns="http://www.w3.org/2000/svg">
  <g transform="matrix(1 0 0 1 -180 -4916 )">
    <path d="M 34.8 32.9348314606742  C 40.1898876404494 23.1561797752809  47.561797752809 14.6820224719101  53.8314606741573 5.47977528089888  C 57.0573033707865 0.939325842696633  63.0134831460674 0.120224719101088  68.1707865168539 0.575280898876429  C 68.2112359550562 18.8685393258427  67.9685393258427 37.1719101123596  68.2516853932584 55.4651685393258  C 75.1483146067416 51.9157303370787  80.0123595505618 44.1595505617977  88.3651685393258 43.8561797752809  C 92.4808988764045 43.3  96.0707865168539 48.6494382022472  93.4213483146067 52.0674157303371  C 89.1842696629214 58.2258426966292  83.0056179775281 62.6449438202247  77.1505617977528 67.1348314606742  C 73.2168539325843 69.9865168539326  71.4168539325843 75.0629213483146  66.9067415730337 77.2067415730337  C 60.9404494382022 80.3314606741573  54.7011235955056 83.0314606741573  48.138202247191 84.6393258426967  C 45.347191011236 85.4584269662922  42.2730337078652 85.8426966292135  39.9674157303371 87.7539325842696  C 37.6820224719101 89.5337078651685  35.9022471910112 91.8494382022472  33.8797752808989 93.9022471910112  C 22.523595505618 87.561797752809  11.5921348314607 80.4932584269663  0.225842696629208 74.1730337078652  C 5.4438202247191 71.1696629213483  10.6719101123595 67.9943820224719  14.838202247191 63.585393258427  C 23.8786516853933 55.1516853932584  29.3191011235955 43.8157303370787  34.8 32.9348314606742  Z " fill-rule="nonzero" fill="#000000" stroke="none" transform="matrix(1 0 0 1 180 4916 )" />
  </g>
</svg>