<?xml version="1.0" encoding="utf-8"?>
<svg version="1.1" xmlns:xlink="http://www.w3.org/1999/xlink" width="110px" height="80px" xmlns="http://www.w3.org/2000/svg">
  <g transform="matrix(1 0 0 1 -617 -4008 )">
    <path d="M 53.5369526397515 3.98025362318809  C 53.5060170807453 6.61374223602512  53.4750815217391 9.24723084886084  53.4441459627329 11.8807194616979  C 49.948427795031 11.8331262939955  46.4681774068322 11.8172619047618  42.9724592391304 11.8172619047618  C 43.0033947981366 12.6580745341614  43.0343303571428 14.3396997929605  43.0652659161491 15.1646480331263  C 40.8379056677018 12.7691252587985  38.5486743012422 10.4529244306416  36.2903784937888 8.08913043478242  C 38.0537053571428 6.18540372670785  39.8634355590062 4.31340579710195  41.6267624223602 2.40967908902738  C 45.0606094720497 5.09076086956546  49.5772010869565 3.63123706004184  53.5369526397515 3.98025362318809  Z M 13.4303016858917 8.40630434782595  C 14.3395578231293 8.26760425909535  16.1580700976042 7.99020408163285  17.0673262348417 7.85150399290095  C 17.2830819284235 16.6358429458744  16.7899260573794 25.4201818988466  16.974859509021 34.2045208518188  L 18.1615158237208 34.1428763679388  C 20.3036616385685 25.7900488021291  21.3670289855072 17.2214655427394  23.3550635906536 8.83781573498969  C 24.0639751552795 8.09808192842346  25.4663871635611 6.60320319432166  26.1598876072168 5.86346938775543  C 26.9920881396036 6.63402543626164  28.6410780834072 8.17513753327408  29.457867494824 8.9456935817803  C 29.334578527063 17.7454436557231  25.4972094055013 26.2061490683235  26.4835211475894 35.0367213842063  C 29.457867494824 27.8397278911559  30.8448683821354 19.9030005915405  35.1445711328009 13.3070408163271  C 36.0692383910085 14.1546524696839  37.9185729074238 15.8344646554269  38.8432401656314 16.6820763087838  C 36.8089721975747 24.8653815439216  34.0349704229518 32.8791644483876  32.3089248742975 41.1395252883761  C 32.7712585034014 42.4957039337473  32.3551582372079 46.0402617568772  34.7747042295179 44.8998388050872  C 37.4870615202602 41.5093921916598  39.4596850044366 37.5795563442768  41.9562866015972 34.0195874001776  C 43.8518544809228 33.8346539485363  45.7474223602484 33.6805427388351  47.6429902395741 33.5418426501032  C 47.2577122153209 43.0659154096416  40.3227077787637 50.6944202898558  36.6394498669032 59.1705368234255  C 34.6668263827269 64.3486734693878  29.6736231884058 66.7682194616983  25.697553978113 70.1432549541551  C 23.9869195504288 72.5628009464656  23.5091748003549 75.6296140195211  22.800263235729 78.4652602780248  C 20.2882505175983 76.3539367051167  16.8823927832002 77.0012037858617  13.8618130730553 76.6005146406392  C 10.7025332741792 74.9052913339256  7.05009760425907 75.3984472049693  3.61341762792072 75.2597471162374  C 6.47988612836437 68.5867317361733  0.531193433895234 62.9924948240166  1.0089381839692 56.2886572020112  C 1.54832741792364 42.2645371191954  1.94901656314694 28.2095947944396  3.1510839988169 14.2008858325945  C 4.24527358769593 14.2317080745345  6.43365276545398 14.3087636793851  7.527842354333 14.3549970422958  C 7.78983141082518 21.7985684708661  7.14256433007985 29.4733067139896  10.2864330079858 36.4699556344281  C 11.0107556935817 27.0845829636203  10.795 17.4834545992313  13.4303016858917 8.40630434782595  Z M 68.8332026397515 15.6896650399293  C 68.7249281832298 14.7622781721384  68.4929114906832 12.9075044365579  68.3846370341614 11.980117568767  C 65.244677795031 12.0399489795922  62.1047185559006 12.0549068322985  58.9802270962733 12.0698646850048  C 58.9802270962733 9.58686113575823  58.9802270962733 7.10385758651293  58.9802270962733 4.63581188997393  C 62.1511218944099 4.63581188997393  65.3374844720497 4.65076974268024  68.5238470496894 4.68068544809285  C 68.5702503881987 3.75329858030195  68.6475892857142 1.91348269742645  68.6939926242236 1.00105368234186  C 71.246176242236 3.46909937888215  73.7983598602484 5.92218722271484  76.3660112577639 8.37527506654884  C 73.8292954192546 10.7834893522626  71.2925795807453 13.2066614906827  68.8332026397515 15.6896650399293  Z M 72.4984826974268 13.8917954192545  C 74.8872064477965 14.0000698757766  76.8752410529429 15.2374922360247  77.7228527062999 17.5267236024839  C 80.4814433599527 23.5746253881981  81.7605664004732 30.2103027950307  84.9814906832298 36.0725912267078  C 84.5962126589766 26.17321234472  80.4506211180124 16.5677212732914  81.9917332150251 6.57553571428512  C 83.1321561668145 6.60647127329217  85.3821798284531 6.63740683229792  86.5226027802425 6.65287461180144  C 89.6818825791186 15.9026067546581  89.2811934338953 26.1886801242235  93.2264404022478 35.067185559006  C 93.3189071280685 26.8692624223604  92.3017731440402 18.686807065217  92.6099955634427 10.4734161490679  C 93.3959627329192 9.70002717391253  94.9370748299319 8.16871700310523  95.7076308784383 7.39532802794981  C 96.4781869269447 8.16871700310523  98.0192990239574 9.71549495341606  98.8052661934338 10.4888839285715  C 98.5432771369417 19.2745826863354  99.1597219757468 28.4005725931677  101.717968056788 36.7377057453411  C 102.334412895593 29.1275582298139  100.76247855664 21.2235229037261  103.767647145815 13.9536665372673  C 106.310482105886 13.8144565217395  108.437216799763 14.8198621894413  107.99029429163 17.7587402950316  C 108.375572315883 27.0858113354032  107.173504880213 36.5211568322983  109.331061816031 45.6935500776399  C 109.531406388642 52.2518885869561  110.718062703342 59.3051960403721  107.666660751257 65.3840333850933  C 106.079315291334 68.5239926242242  106.541648920438 72.1434530279501  106.248837622005 75.530896739131  C 102.842979887607 75.5927678571425  99.2675998225377 75.3143478260868  96.1237311446317 76.9384646739127  C 93.1339736764271 77.1395458074533  89.9130493936705 76.8611257763977  87.3856255545696 78.8410015527955  C 86.8154140786749 76.4589635093164  86.460958296362 74.0305221273294  86.3068470866607 71.5866129658389  C 84.7040905057675 69.9006250000002  83.0088671990535 68.2455725931673  80.7588435374149 67.4876513975154  C 74.3015838509317 62.8473175465842  72.0053268263827 55.0206211180128  68.1217243419106 48.4622826086953  C 65.7021783496007 44.0849010093163  64.4846997929607 39.1197437888202  61.494942324756 35.0517177795025  C 62.5583096716948 34.123651009317  63.6987326234841 33.3038586956523  64.9008000591541 32.5768730590062  C 71.4042931085477 34.3866032608691  72.1748491570541 42.0740896739127  77.137230109435 45.7863567546584  C 79.6492428275658 34.8042333074539  71.4659375924283 24.8893866459626  72.4984826974268 13.8917954192545  Z " fill-rule="nonzero" fill="#0066ff" stroke="none" transform="matrix(1 0 0 1 617 4008 )" />
  </g>
</svg>