<?xml version="1.0" encoding="utf-8"?>
<svg version="1.1" xmlns:xlink="http://www.w3.org/1999/xlink" width="50px" height="120px" xmlns="http://www.w3.org/2000/svg">
  <g transform="matrix(1 0 0 1 -1076 -4887 )">
    <path d="M 27.6707865168539 10.5056179775281  C 28.2067415730337 7.79550561797754  28.4292134831461 4.87303370786515  29.9359550561798 2.47640449438205  C 31.9584269662921 0.221348314606757  36.6404494382023 0.23146067415729  37.9449438202247 3.28539325842695  C 38.9662921348314 5.88426966292133  38.1775280898877 8.73595505617982  37.9550561797753 11.4157303370787  C 36.7011235955056 19.808988764045  36.0134831460674 28.2730337078652  35.0022471910113 36.6865168539326  C 34.6988764044943 39.5483146067416  34.7494382022472 42.4303370786517  34.8606741573034 45.3022471910112  C 36.6202247191012 46.3134831460674  38.5921348314606 47.1224719101124  39.9977528089887 48.6494382022472  C 41.4640449438202 50.661797752809  42.2022471910112 53.0988764044944  43.5775280898877 55.1820224719101  C 45.2966292134831 56.8202247191011  47.632584269663 57.9426966292135  48.623595505618 60.238202247191  C 50.1910112359551 63.261797752809  49.9584269662921 66.7606741573034  49.9786516853932 70.0573033707865  C 49.8977528089888 75.8011235955057  49.9483146067415 81.5449438202248  49.9786516853932 87.2786516853932  C 50.1707865168539 93.4370786516854  47.9056179775281 99.3426966292135  45.2056179775282 104.773033707865  C 42.1719101123596 109.53595505618  45.923595505618 114.794382022472  47.0258426966292 119.587640449438  C 34.5168539325842 119.638202247191  22.0078651685393 119.648314606742  9.49887640449435 119.587640449438  C 9.36741573033703 115.340449438202  9.88314606741574 111.032584269663  9.15505617977522 106.83595505618  C 7.19325842696628 102.386516853933  4.55393258426966 98.2101123595506  3.22921348314605 93.4876404494382  C 1.07528089887637 87.1977528089888  1.73258426966299 80.4730337078652  0.650561797752744 74.0011235955056  C 0.28651685393254 70.7449438202248  0.104494382022494 67.4280898876405  0.579775280898957 64.1820224719101  C 1.2775280898876 60.6123595505618  5.23146067415723 58.8426966292135  5.81797752808984 55.2325842696629  C 7.18314606741569 49.114606741573  6.41460674157304 42.7539325842697  5.69662921348311 36.5955056179775  C 5.36292134831456 31.9640449438202  5.53483146067413 27.3224719101124  5.1101123595505 22.7112359550562  C 4.67528089887639 17.6955056179775  3.85617977528079 12.6191011235955  4.61460674157297 7.59325842696631  C 4.98876404494376 3.73033707865164  10.8842696629214 3.02247191011236  12.7955056179775 6.06629213483143  C 14.4842696629214 8.67528089887645  14.6662921348315 11.8910112359551  15.2123595505617 14.8741573033708  C 16.152808988764 22.1853932584269  17.4168539325843 29.4359550561798  18.4483146067415 36.7269662921348  C 18.9134831460675 40.3269662921348  19.4292134831461 43.9269662921348  20.1775280898877 47.4764044943821  C 22.6550561797752 44.5539325842697  22.4224719101123 40.5292134831461  23.0595505617977 36.9696629213483  C 24.5359550561798 28.1415730337079  26.3460674157303 19.3640449438203  27.6707865168539 10.5056179775281  Z " fill-rule="nonzero" fill="#000000" stroke="none" transform="matrix(1 0 0 1 1076 4887 )" />
  </g>
</svg>