<?xml version="1.0" encoding="utf-8"?>
<svg version="1.1" xmlns:xlink="http://www.w3.org/1999/xlink" width="94px" height="96px" xmlns="http://www.w3.org/2000/svg">
  <g transform="matrix(1 0 0 1 -432 -4895 )">
    <path d="M 31.9044943820225 37.8078651685393  C 37.6887640449438 26.1786516853933  45.9910112359551 16.1269662921349  53.3528089887641 5.50898876404494  C 55.0415730337079 3.1426966292135  57.529213483146 1.21123595505617  60.391011235955 0.55393258426966  C 64.708988764045 0.0887640449437868  69.0674157303371 0.412359550561803  73.3955056179775 0.432584269662925  C 73.3651685393259 17.5932584269663  73.3550561797753 34.7539325842697  73.3550561797753 51.9247191011236  C 77.6629213483146 48.5876404494383  82.1224719101124 44.8561797752809  87.6438202247191 43.9157303370787  C 90.3842696629214 43.4  93.1449438202247 45.4426966292135  93.5595505617978 48.1730337078652  C 94.4393258426966 51.7123595505618  91.6483146067416 54.5539325842697  89.5752808988764 57.0415730337078  C 86.056179775281 61.308988764045  81.2426966292135 64.1505617977528  77.1977528089888 67.8516853932585  C 73.0011235955056 71.1078651685393  70.7056179775281 76.5179775280899  65.6494382022472 78.6415730337079  C 58.6719101123596 82.423595505618  51.138202247191 84.9820224719102  43.4224719101123 86.7820224719101  C 38.8719101123595 87.7730337078652  36.2831460674157 91.838202247191  33.7247191011236 95.3269662921348  C 22.6820224719101 88.4101123595506  11.3662921348315 81.9483146067416  0.374157303370794 74.9404494382023  C 7.74606741573035 70.0764044943821  15.6033707865168 65.2426966292135  20.4876404494382 57.6483146067416  C 25.0584269662921 51.5  28.6483146067416 44.714606741573  31.9044943820225 37.8078651685393  Z " fill-rule="nonzero" fill="#000000" stroke="none" transform="matrix(1 0 0 1 432 4895 )" />
  </g>
</svg>