<?xml version="1.0" encoding="utf-8"?>
<svg version="1.1" xmlns:xlink="http://www.w3.org/1999/xlink" width="1252px" height="3300px" xmlns="http://www.w3.org/2000/svg">
  <defs>
    <mask fill="white" id="clip1356">
      <path d="M 1248.99760191847 3298  L 2.00159872102318 3298  C 0.600479616306956 3297.9375  -0.500399680255795 3293.4  0.500399680255795 3287.625  L 0.500399680255795 0  L 1251.49960031974 0  L 1251.49960031974 3287.625  C 1251.49960031974 3293.4  1250.39872102318 3297.9375  1248.99760191847 3298  Z " fill-rule="evenodd" />
    </mask>
  </defs>
  <g transform="matrix(1 0 0 1 -24 -497 )">
    <path d="M 1248.99760191847 3298  L 2.00159872102318 3298  C 0.600479616306956 3297.9375  -0.500399680255795 3293.4  0.500399680255795 3287.625  L 0.500399680255795 0  L 1251.49960031974 0  L 1251.49960031974 3287.625  C 1251.49960031974 3293.4  1250.39872102318 3297.9375  1248.99760191847 3298  Z " fill-rule="nonzero" fill="#ffffff" stroke="none" transform="matrix(1 0 0 1 24 497 )" />
    <path d="M 1248.99760191847 3298  L 2.00159872102318 3298  C 0.600479616306956 3297.9375  -0.500399680255795 3293.4  0.500399680255795 3287.625  L 0.500399680255795 0  L 1251.49960031974 0  L 1251.49960031974 3287.625  C 1251.49960031974 3293.4  1250.39872102318 3297.9375  1248.99760191847 3298  Z " stroke-width="2" stroke="#e4e4e4" fill="none" transform="matrix(1 0 0 1 24 497 )" mask="url(#clip1356)" />
  </g>
</svg>