<svg xmlns="http://www.w3.org/2000/svg" xmlns:xlink="http://www.w3.org/1999/xlink" width="1252" height="3300" version="1.1"><defs><mask id="clip2829" fill="#fff"><path fill-rule="evenodd" d="M 1248.99760191847 3298 L 2.00159872102318 3298 C 0.600479616306956 3297.9375 -0.500399680255795 3293.4 0.500399680255795 3287.625 L 0.500399680255795 0 L 1251.49960031974 0 L 1251.49960031974 3287.625 C 1251.49960031974 3293.4 1250.39872102318 3297.9375 1248.99760191847 3298 Z"/></mask></defs><g><path fill="#fff" fill-rule="nonzero" stroke="none" d="M 1248.99760191847 3298 L 2.00159872102318 3298 C 0.600479616306956 3297.9375 -0.500399680255795 3293.4 0.500399680255795 3287.625 L 0.500399680255795 0 L 1251.49960031974 0 L 1251.49960031974 3287.625 C 1251.49960031974 3293.4 1250.39872102318 3297.9375 1248.99760191847 3298 Z" transform="matrix(1 0 0 1 -24 -497 ) matrix(1 0 0 1 24 497 )"/><path fill="none" stroke="#e4e4e4" stroke-width="2" d="M 1248.99760191847 3298 L 2.00159872102318 3298 C 0.600479616306956 3297.9375 -0.500399680255795 3293.4 0.500399680255795 3287.625 L 0.500399680255795 0 L 1251.49960031974 0 L 1251.49960031974 3287.625 C 1251.49960031974 3293.4 1250.39872102318 3297.9375 1248.99760191847 3298 Z" mask="url(#clip2829)" transform="matrix(1 0 0 1 -24 -497 ) matrix(1 0 0 1 24 497 )"/></g></svg>