<svg xmlns="http://www.w3.org/2000/svg" xmlns:xlink="http://www.w3.org/1999/xlink" width="230" height="132" version="1.1"><g><path fill="#fff" fill-rule="nonzero" stroke="none" d="M 0.5 129 C 0.5 129 0.5 15.9999999999999 0.5 15.9999999999999 C 0.5 14.6192881254229 1.61928812542302 13.4999999999999 3 13.4999999999999 C 3 13.4999999999999 19.2462007487253 13.4999999999999 19.2462007487253 13.4999999999999 C 19.2462007487253 13.4999999999999 29 0.820060973342832 29 0.820060973342832 C 29 0.820060973342832 38.7537992512747 13.4999999999999 38.7537992512747 13.4999999999999 C 38.7537992512747 13.4999999999999 227 13.4999999999999 227 13.4999999999999 C 228.380711874577 13.4999999999999 229.5 14.6192881254229 229.5 15.9999999999999 C 229.5 15.9999999999999 229.5 129 229.5 129 C 229.5 130.380711874577 228.380711874577 131.5 227 131.5 C 227 131.5 3 131.5 3 131.5 C 1.61928812542302 131.5 0.5 130.380711874577 0.5 129 Z"/><path fill="#d0d0d0" fill-rule="nonzero" stroke="none" d="M 0 129 C 0 129 0 15.9999999999999 0 15.9999999999999 C 0 14.3431457505075 1.34314575050762 12.9999999999999 3 12.9999999999999 C 3 12.9999999999999 19 12.9999999999999 19 12.9999999999999 C 19 12.9999999999999 29 0 29 0 C 29 0 39 12.9999999999999 39 12.9999999999999 C 39 12.9999999999999 227 12.9999999999999 227 12.9999999999999 C 228.656854249492 12.9999999999999 230 14.3431457505075 230 15.9999999999999 C 230 15.9999999999999 230 129 230 129 C 230 130.656854249493 228.656854249492 132 227 132 C 227 132 3 132 3 132 C 1.34314575050762 132 0 130.656854249493 0 129 Z M 1 129 C 1 130.104569499662 1.89543050033841 131 3 131 C 3 131 227 131 227 131 C 228.104569499662 131 229 130.104569499662 229 129 C 229 129 229 15.9999999999999 229 15.9999999999999 C 229 14.8954305003383 228.104569499662 13.9999999999999 227 13.9999999999999 C 227 13.9999999999999 38.5075985025495 13.9999999999999 38.5075985025495 13.9999999999999 C 38.5075985025495 13.9999999999999 29 1.64012194668566 29 1.64012194668566 C 29 1.64012194668566 19.4924014974505 13.9999999999999 19.4924014974505 13.9999999999999 C 19.4924014974505 13.9999999999999 3 13.9999999999999 3 13.9999999999999 C 1.89543050033841 13.9999999999999 1 14.8954305003383 1 15.9999999999999 C 1 15.9999999999999 1 129 1 129 Z"/></g></svg>