<svg xmlns="http://www.w3.org/2000/svg" xmlns:xlink="http://www.w3.org/1999/xlink" width="1252" height="1635" version="1.1"><defs><mask id="clip2830" fill="#fff"><path fill-rule="evenodd" d="M 1248.99760191847 1634 L 2.00159872102318 1634 C 0.600479616306956 1633.978125 -0.500399680255795 1631.73 0.500399680255795 1628.86875 L 0.500399680255795 0 L 1251.49960031974 0 L 1251.49960031974 1628.86875 C 1251.49960031974 1631.73 1250.39872102318 1633.978125 1248.99760191847 1634 Z"/></mask></defs><g><path fill="#fff" fill-rule="nonzero" stroke="none" d="M 1248.99760191847 1634 L 2.00159872102318 1634 C 0.600479616306956 1633.978125 -0.500399680255795 1631.73 0.500399680255795 1628.86875 L 0.500399680255795 0 L 1251.49960031974 0 L 1251.49960031974 1628.86875 C 1251.49960031974 1631.73 1250.39872102318 1633.978125 1248.99760191847 1634 Z" transform="matrix(1 0 0 1 -24 -3871 ) matrix(1 0 0 1 24 3871 )"/><path fill="none" stroke="#e4e4e4" stroke-width="2" d="M 1248.99760191847 1634 L 2.00159872102318 1634 C 0.600479616306956 1633.978125 -0.500399680255795 1631.73 0.500399680255795 1628.86875 L 0.500399680255795 0 L 1251.49960031974 0 L 1251.49960031974 1628.86875 C 1251.49960031974 1631.73 1250.39872102318 1633.978125 1248.99760191847 1634 Z" mask="url(#clip2830)" transform="matrix(1 0 0 1 -24 -3871 ) matrix(1 0 0 1 24 3871 )"/></g></svg>