<svg xmlns="http://www.w3.org/2000/svg" xmlns:xlink="http://www.w3.org/1999/xlink" width="230" height="131" version="1.1"><g><path fill="#fff" fill-rule="nonzero" stroke="none" d="M 0.49999999999998 116 C 0.49999999999998 116 0.49999999999998 2.99999999999987 0.49999999999998 2.99999999999987 C 0.49999999999998 1.61928812542288 1.619288125423 0.499999999999866 2.99999999999998 0.499999999999866 C 2.99999999999998 0.499999999999866 227 0.499999999999866 227 0.499999999999866 C 228.380711874577 0.499999999999866 229.5 1.61928812542288 229.5 2.99999999999987 C 229.5 2.99999999999987 229.5 116 229.5 116 C 229.5 117.380711874577 228.380711874577 118.5 227 118.5 C 227 118.5 205.765812527008 118.5 205.765812527008 118.5 C 205.765812527008 118.5 195.966400824362 130.259294043175 195.966400824362 130.259294043175 C 195.966400824362 130.259294043175 184.207106781187 118.5 184.207106781187 118.5 C 184.207106781187 118.5 2.99999999999998 118.5 2.99999999999998 118.5 C 1.619288125423 118.5 0.49999999999998 117.380711874577 0.49999999999998 116 Z"/><path fill="#d0d0d0" fill-rule="nonzero" stroke="none" d="M 0 116 C 0 116 0 2.99999999999987 0 2.99999999999987 C 0 1.34314575050749 1.3431457505076 0 2.99999999999998 0 C 2.99999999999998 0 227 0 227 0 C 228.656854249492 0 230 1.34314575050749 230 2.99999999999987 C 230 2.99999999999987 230 116 230 116 C 230 117.656854249493 228.656854249492 119 227 119 C 227 119 206 119 206 119 C 206 119 196 131 196 131 C 196 131 184 119 184 119 C 184 119 2.99999999999998 119 2.99999999999998 119 C 1.3431457505076 119 0 117.656854249493 0 116 Z M 0.99999999999998 116 C 0.99999999999998 117.104569499662 1.89543050033839 118 2.99999999999998 118 C 2.99999999999998 118 184.414213562373 118 184.414213562373 118 C 184.414213562373 118 195.932801648724 129.51858808635 195.932801648724 129.51858808635 C 195.932801648724 129.51858808635 205.531625054016 118 205.531625054016 118 C 205.531625054016 118 227 118 227 118 C 228.104569499661 118 229 117.104569499662 229 116 C 229 116 229 2.99999999999987 229 2.99999999999987 C 229 1.89543050033828 228.104569499661 0.999999999999866 227 0.999999999999866 C 227 0.999999999999866 2.99999999999998 0.999999999999866 2.99999999999998 0.999999999999866 C 1.89543050033839 0.999999999999866 0.99999999999998 1.89543050033828 0.99999999999998 2.99999999999987 C 0.99999999999998 2.99999999999987 0.99999999999998 116 0.99999999999998 116 Z"/></g></svg>