<?xml version="1.0" encoding="utf-8"?>
<svg version="1.1" xmlns:xlink="http://www.w3.org/1999/xlink" width="43px" height="42px" xmlns="http://www.w3.org/2000/svg">
  <g transform="matrix(1 0 0 1 -371 -3922 )">
    <path d="M 26.6866666666667 9.77333333333333  C 25.0066666666667 8.06666666666667  22.02 6.52  22.7266666666667 3.64  C 23.4333333333333 0.653333333333332  27.2866666666666 -0.306666666666668  29.54 1.61333333333333  C 34.1533333333334 4.86666666666667  39.5 7.54666666666667  42.7 12.3866666666667  C 39.22 17.6666666666667  35.4866666666667 22.76  31.5266666666666 27.68  C 29.5666666666667 27.0933333333333  26.6066666666666 27.0133333333333  26.0866666666666 24.52  C 25.5266666666666 21.7733333333333  27.8066666666667 19.5466666666667  28.8066666666667 17.2  C 22.6866666666667 18.0533333333333  16.3800000000001 20.3066666666667  12.6733333333333 25.5333333333333  C 9.11333333333329 29.3466666666667  9.24666666666667 34.7466666666667  7.9666666666667 39.4666666666667  C 6.25999999999999 42.9866666666667  0.686666666666667 41.68  0.300000000000011 37.9333333333333  C -0.206666666666649 23.56  12.2066666666666 10.0266666666667  26.6866666666667 9.77333333333333  Z " fill-rule="nonzero" fill="#0066ff" stroke="none" transform="matrix(1 0 0 1 371 3922 )" />
  </g>
</svg>