<svg xmlns="http://www.w3.org/2000/svg" xmlns:xlink="http://www.w3.org/1999/xlink" width="59" height="104" version="1.1"><g><path fill="#06f" fill-rule="nonzero" stroke="none" d="M 17.7474961636826 6.05855706521743 C 17.7474961636826 -1.20582608695622 30.0608005115091 -1.10088315217399 30.3351611253196 6.12851902173861 C 29.2596675191816 5.16071195652148 28.228071611253 4.15792391304331 27.2403734015347 3.14347554347842 C 25.0454884910487 3.12015489130408 22.8615780051152 3.12015489130408 20.6886419437338 3.1318152173917 C 19.72289258312 4.12294293478226 18.7351943734013 5.0907500000003 17.7474961636826 6.05855706521743 Z M 7.87271331521708 64.2380623188401 C 6.97403532608689 60.9405221014495 8.8688383152172 58.3394920289857 11.348323369565 56.4567380434783 C 12.3444483695652 56.0649510869562 13.3405733695652 55.673164130435 14.3475258152172 55.2596112318843 C 15.8092309782609 54.7263456521741 17.2492812500001 54.1386652173915 18.7218138586957 53.6162826086957 C 18.7867785326085 40.8179086956525 20.23765625 28.0848326086962 19.8478682065215 15.2864586956521 C 20.0102798913043 12.1956949275364 19.0141548913042 8.63696340579736 21.5152948369565 6.24270978260847 C 23.3776154891304 6.65626268115921 26.1927513586958 5.68767826086969 27.1130842391303 8.00575108695648 C 28.3907228260869 14.0240340579712 28.7480285326087 20.1076148550728 28.5423070652174 26.2564934782604 C 29.3002282608696 31.1211815217393 29.8957377717391 36.0076355072461 29.6142241847826 40.9485043478262 C 31.075929347826 40.9593873188405 32.5484619565218 40.9811532608692 34.0318220108696 41.0029192028987 C 35.309460597826 41.8082590579706 36.5979266304348 42.6135989130435 37.9080475543478 43.408055797101 C 39.0341019021737 45.3561076086953 40.1168464673912 47.3476913043478 40.9505597826088 49.4589876811597 C 45.2382282608696 49.6222322463764 49.3959673913042 52.6694641304348 51.0417391304347 56.6743974637684 C 52.2219307065218 59.2101297101453 53.0881263586957 61.8982235507246 54.4523845108695 64.3686579710147 C 58.6101236413041 65.2610615942031 59.5304565217391 70.3107601449274 58.6209510869563 73.9021405797102 C 57.018489130435 79.2239134057972 55.7516779891304 84.6327499999998 54.289972826087 89.9871717391306 C 54.0084592391303 90.5422032608694 53.4454320652171 91.6631492753622 53.1639184782607 92.218180797101 C 52.6008913043477 93.2520630434783 52.0486915760871 94.2968282608699 51.5073192934784 95.3524764492759 C 52.2652404891302 98.105868115942 52.9690244565218 100.891908695652 53.6944633152173 103.667066304348 C 42.8886725543475 103.677949275362 32.0828817934782 103.754130072463 21.2879184782607 103.634417391304 C 20.8006834239131 98.1820489130432 17.4766576086954 93.6003181159422 13.4921576086954 90.10688442029 C 11.326668478261 81.5528692028984 9.60510461956494 72.8791413043473 7.87271331521708 64.2380623188401 Z M 0.659316770186138 11.4419130434781 C 3.96799378881963 14.8323770903007 7.42325776397502 18.0721538461539 10.4911133540372 21.6994122073575 C 7.18243633540385 24.9930058528425 3.9261118012422 28.3404163879595 0.659316770186138 31.6663001672241 C 0.648846273291724 24.9284255852845 0.659316770186138 18.1905510033448 0.659316770186138 11.4419130434781 Z" transform="matrix(1 0 0 1 -681 -4480 ) matrix(1 0 0 1 681 4480 )"/></g></svg>