<svg xmlns="http://www.w3.org/2000/svg" xmlns:xlink="http://www.w3.org/1999/xlink" width="120" height="71" version="1.1"><g><path fill="#979598" fill-rule="nonzero" stroke="none" d="M 0.889887640449388 7.13258426966297 C 0.930337078651746 4.63483146067415 1.85056179775279 1.64157303370791 4.51011235955059 0.842696629213492 C 8.57528089887637 -0.299999999999955 12.8730337078651 0.296629213483129 17.0393258426966 0.215730337078639 C 48.7415730337078 0.246067415730295 80.4438202247192 0.266292134831474 112.14606741573 0.195505617977574 C 114.026966292135 0.256179775280884 116.201123595506 0.27640449438195 117.53595505618 1.87415730337079 C 119.396629213483 3.45168539325834 119.113483146067 6.08089887640449 119.244943820225 8.28539325842701 C 119.062921348315 26.8415730337078 119.255056179775 45.4179775280899 119.16404494382 63.9741573033708 C 119.487640449438 67.3314606741574 116.494382022472 70.3247191011236 113.137078651685 70.0011235955056 C 90.2123595505618 70.0415730337079 67.2775280898876 69.9910112359551 44.3426966292135 70.0112359550562 C 37.1629213483146 69.9606741573034 29.9629213483146 70.2539325842697 22.7932584269663 69.6573033707865 C 27.576404494382 66.0977528089887 32.4505617977528 62.2752808988764 35.5651685393259 57.0977528089888 C 37.8606741573034 53.3157303370787 33.7853932584269 47.9258426966292 29.5179775280899 49.0887640449438 C 20.5179775280899 50.5449438202247 15.552808988764 59.4842696629214 7.06853932584272 62.0224719101124 C 5.01573033707871 62.7202247191011 2.92247191011234 63.2662921348315 0.849438202247143 63.8426966292135 C 0.859550561797732 44.9426966292135 0.829213483146077 26.0325842696629 0.889887640449388 7.13258426966297 Z M 66.9134831460675 24.5056179775281 C 65.052808988764 22.4123595505617 63.1011235955056 20.4202247191012 61.0786516853932 18.5191011235955 C 60.6134831460674 19.570786516854 60.1685393258426 20.6325842696629 59.7337078651685 21.6943820224719 C 56.1741573033709 22.8168539325843 52.3213483146067 24.0505617977528 50.1471910112359 27.3269662921348 C 46.3752808988764 31.7966292134832 46.4561797752809 38.632584269663 49.7528089887641 43.3449438202248 C 54.0404494382022 49.6146067415731 64.0011235955056 50.9292134831461 69.6842696629213 45.8224719101124 C 72.7685393258427 43.2741573033708 73.7696629213483 39.2292134831461 74.8011235955056 35.5584269662921 C 73.2539325842697 35.5988764044944 71.7370786516855 35.7202247191012 70.2202247191011 35.9123595505617 C 68.9359550561799 39.1280898876405 67.4089887640449 42.7988764044944 63.8696629213482 44.0831460674158 C 57.3168539325843 46.9752808988765 49.3887640449439 39.2898876404495 52.3112359550562 32.6561797752809 C 53.3224719101123 29.0460674157304 56.5786516853933 26.9123595505619 60.1078651685393 26.2449438202248 C 60.3505617977528 27.7213483146068 60.6033707865168 29.2078651685393 60.8662921348315 30.714606741573 C 62.9595505617978 28.7123595505618 64.9921348314606 26.6595505617978 66.9134831460675 24.5056179775281 Z" transform="matrix(1 0 0 1 -1026 -5111 ) matrix(1 0 0 1 1026 5111 )"/></g></svg>