<svg xmlns="http://www.w3.org/2000/svg" xmlns:xlink="http://www.w3.org/1999/xlink" width="108" height="103" version="1.1"><g><path fill="#000" fill-rule="nonzero" stroke="none" d="M 5.49325842696624 9.67752808988764 C 3.51123595505624 7.5438202247191 4.18876404494381 4.4191011235955 3.96629213483141 1.77977528089887 C 8.39550561797751 0.556179775280896 13.0775280898876 0.475280898876406 17.5067415730337 1.75955056179775 C 29.5303370786517 4.86404494382023 41.776404494382 6.9370786516854 53.891011235955 9.64719101123595 C 63.0022471910112 11.9629213483146 74.2067415730337 14.0460674157303 78.7674157303371 23.3797752808989 C 85.2898876404495 40.2977528089888 94.3101123595505 56.4269662921348 97.4853932584269 74.4775280898876 C 99.0325842696628 84.5292134831461 103.279775280899 93.8123595505618 107.789887640449 102.832584269663 C 94.6033707865168 103.055056179775 81.4168539325842 102.95393258427 68.2303370786517 102.893258426966 C 66.1977528089888 95.9764044943821 64.7011235955057 88.9179775280899 62.6887640449438 82.0011235955056 C 62.3044943820225 79.7460674157304 59.7764044943821 79.3719101123596 58.0674157303371 78.5325842696629 C 52.7685393258427 76.4797752808989 47.8640449438202 73.4561797752809 43.5359550561798 69.785393258427 C 39.3089887640449 66.185393258427 37.5898876404494 59.8044943820225 31.8359550561798 58.1056179775281 C 26.314606741573 55.7494382022472 20.4191011235954 53.9595505617978 15.676404494382 50.1269662921348 C 11.085393258427 46.385393258427 5.60449438202238 44.0696629213483 0.153932584269683 41.8752808988764 C 0.517977528089887 39.5696629213483 -0.0179775280898866 36.647191011236 2.04494382022472 35.0089887640449 C 4.71460674157299 32.9157303370787 8.40561797752798 31.7022471910112 11.7426966292135 32.7943820224719 C 18.9426966292135 34.9887640449438 25.6168539325841 38.5685393258427 32.6752808988764 41.1674157303371 C 36.5887640449438 42.6337078651685 40.8359550561797 42.3505617977528 44.9314606741573 42.2898876404494 C 43.4044943820224 37.4865168539326 41.4932584269662 32.7842696629214 40.5831460674158 27.808988764045 C 40.1786516853933 26.3224719101124 40.1179775280898 24.6640449438202 39.2280898876404 23.3696629213483 C 37.0438202247191 21.8932584269663 34.4044943820224 21.3876404494382 31.9269662921348 20.6393258426966 C 27.0629213483146 19.3752808988764 22.552808988764 17.0797752808989 17.708988764045 15.785393258427 C 13.3505617977528 14.4910112359551 8.51685393258424 13.3483146067416 5.49325842696624 9.67752808988764 Z" transform="matrix(1 0 0 1 -788 -4679 ) matrix(1 0 0 1 788 4679 )"/></g></svg>