<svg xmlns="http://www.w3.org/2000/svg" xmlns:xlink="http://www.w3.org/1999/xlink" width="67" height="98" version="1.1"><g><path fill="#06f" fill-rule="nonzero" stroke="none" d="M 17.459823435843 51.213326449275 C 17.9824660657476 51.5833474637684 19.0168629374336 52.3016235507248 19.5286171792153 52.660761594203 C 21.0747682926828 52.6389956521743 22.6209194061506 52.6281126811591 24.1779589077412 52.6281126811591 C 24.9183693001061 51.2459753623189 25.6805564687168 49.8638380434786 26.4536320254507 48.4925836956518 C 26.5189623541887 33.1475945652173 26.3338597560975 17.8026054347829 26.5298507423119 2.46849927536277 C 27.684019883351 0.0633626811595605 30.4605588547189 0.857819565217142 32.5946829268293 0.879585507246702 C 36.8084891304347 6.22312427536235 34.0537269353127 13.6888423913042 35.8720877518557 19.848603985507 C 36.6233865323436 25.0071322463773 35.7849806468718 30.3397880434786 37.5380111346765 35.3786036231886 C 39.1277158006362 35.3894865942029 40.717420466596 35.4003695652173 42.3180135206787 35.4330184782611 C 43.2761916755037 36.3036561594199 44.2561466065748 37.1416449275366 45.2578783138918 37.9687507246381 C 46.9238016967125 40.6568445652174 48.5026179745493 43.5843637681155 51.9542370095439 44.1285123188409 C 57.3984310710498 46.3377554347826 60.1640816542947 51.8445387681159 62.0368844114527 57.0574818840578 C 65.9458157476139 58.6463956521739 67.6226275185577 63.2172434782606 66.4902351537645 67.1568789855073 C 64.4649949628844 74.5137673913041 63.8987987804877 82.3603894927537 60.1749700424178 89.1622463768117 C 58.3566092258748 91.817691304348 59.4236712619299 95.0716996376814 59.9572022799575 97.9556869565222 C 48.4263992576881 97.9230380434783 36.8955962354189 97.944803985507 25.3647932131495 97.944803985507 C 25.2341325556733 93.9507536231886 26.3556365323435 89.1513634057974 22.8604639448569 86.2238442028984 C 16.9045156415694 80.891188405797 11.6018706256629 74.2416931159423 9.97950079533393 66.2318264492751 C 8.62934066808054 60.2570753623186 5.82013653234344 54.7829409420292 3.72956601272529 49.0802641304344 C 3.91466861081653 44.7161927536235 2.42295943796387 40.6024297101449 0.539268292682891 36.7389750000002 C -0.342691145281151 35.3786036231886 1.34500901378578 34.2032427536233 1.91120519618244 33.1258286231887 C 2.94560206786844 33.136711594203 5.00350742311764 33.1802434782612 6.03790429480375 33.1911264492755 C 7.59494379639443 34.5623807971015 9.29353234358427 35.8356884057976 10.5783621420996 37.4899000000005 C 12.9193655885472 42.0498648550729 13.605334040297 47.5457652173909 17.459823435843 51.213326449275 Z M 20.9440903010033 16.6635999999999 C 21.3500234113712 17.1220173913043 22.1506137123746 18.0281913043482 22.5565468227423 18.4866086956517 C 19.9067056856188 18.539913043478 17.2681404682274 18.5932173913043 14.6295752508361 18.6145391304344 C 14.6070234113712 16.3117913043479 14.5844715719063 13.9983826086955 14.550643812709 11.695634782609 C 14.8889214046823 12.0367826086958 15.5654765886287 12.7084173913045 15.9150301003343 13.0495652173913 C 17.5951421404682 11.0773043478257 19.455668896321 9.25429565217382 21.3387474916389 7.45260869565209 C 22.4776153846154 8.54001739130399 23.6615869565217 9.60610434782575 24.7440752508361 10.7788 C 24.1464515050167 12.9856 21.8461638795986 14.4994434782611 20.9440903010033 16.6635999999999 Z M 12.9679983277591 24.6272695652169 C 11.4795769230769 26.7807652173915 9.92349999999999 28.9022782608699 8.11935284280935 30.8318956521744 C 6.80007023411372 29.6272173913039 5.49206354515036 28.4225391304344 4.18405685618723 27.2285217391309 C 4.90571571906355 24.4353739130438 9.75436120401332 22.4950956521743 6.84517391304348 19.6059999999998 C 9.47246321070224 19.648643478261 12.122304347826 19.648643478261 14.7608695652174 19.648643478261 C 14.749593645485 21.9727130434785 14.7608695652174 24.2861217391301 14.7608695652174 26.6101913043476 C 14.3098327759197 26.1197913043479 13.4190351170568 25.1176695652175 12.9679983277591 24.6272695652169 Z" transform="matrix(1 0 0 1 -134 -4238 ) matrix(1 0 0 1 134 4238 )"/></g></svg>