<svg xmlns="http://www.w3.org/2000/svg" xmlns:xlink="http://www.w3.org/1999/xlink" width="72" height="101" version="1.1"><g><path fill="#06f" fill-rule="nonzero" stroke="none" d="M 21.4760869565217 1.96184448160511 C 19.8103260869566 3.49536956521752 18.8663949275362 5.55886287625435 18.1667753623188 7.67873578595299 C 16.4676992753623 7.633632107023 14.7686231884056 7.61108026755846 13.0917572463767 7.58852842809392 C 13.0695471014492 8.28763545150468 13.0140217391304 9.68584949832803 12.9918115942029 10.3849565217388 C 11.1705797101449 8.58080936454826 9.38266304347826 6.74283444816046 7.6391666666666 4.85975585284268 C 9.28271739130435 3.39388628762572 10.9040579710145 1.89418896321058 12.3921376811594 0.270456521739106 C 13.9246376811593 3.69833612040111 18.5554528985507 1.37549665551796 21.4760869565217 1.96184448160511 Z M 37.17875 7.53038932806339 C 35.1021014492753 7.54129249011839 33.0476630434782 7.54129249011839 30.9932246376811 7.55219565217431 C 30.9821195652173 6.87619960474331 30.9710144927535 5.53511067193722 30.9710144927535 4.85911462450622 C 30.0715036231885 3.97595849802383 29.1942028985507 3.08189920948644 28.3391123188405 2.17693675889313 C 31.6373188405796 1.80622924901218 35.3686231884059 3.01648023715461 38.3447826086956 1.14113636363618 C 39.6551811594204 2.47132213438726 40.9766847826087 3.81241106719335 42.2981884057972 5.15350000000035 C 40.7434782608694 6.77807114624466 39.1332427536231 8.33722332015805 37.5341123188405 9.90727865612644 C 37.4452717391304 9.30760474308318 37.26759057971 8.11916007905165 37.17875 7.53038932806339 Z M 26.3303003952569 57.6911125319693 C 27.7695177865612 55.171026306175 29.2196383399208 52.4662785896971 28.5000296442688 49.4573825356229 C 26.2321719367588 38.3016560102305 24.2805059288538 27.0807548410667 22.1107766798419 15.9141658750459 C 21.6201343873516 12.7749205334312 20.4971086956522 9.66826251370094 20.9550415019762 6.45298008768714 C 22.8849011857707 4.21531731823143 25.9268833992095 3.02044884910447 28.314675889328 5.3124238217024 C 31.4983992094863 15.5231180124219 33.700837944664 26.016235659481 36.7755296442687 36.2595171720859 C 37.1135276679842 38.214756485203 39.9265434782608 37.0090255754476 40.4280889328063 35.74898246255 L 40.0900909090909 37.1610997442458 C 40.8860217391303 37.1502373036174 42.4560770750987 37.1067875411036 43.2520079051383 37.0959251004751 C 46.2612806324111 38.2799311289737 47.7550138339921 41.2996896236755 49.9574525691698 43.2440664961632 C 57.4043122529644 42.8964683960539 62.8122806324111 49.0771971136282 65.6907154150197 55.2470633905732 C 69.7466916996048 54.7039413591519 71.3930691699605 59.34220350749 71.2295217391303 62.611798136646 C 71.0877806324112 66.9676368286446 71.0332648221344 71.3234755206431 71.0986837944662 75.6901766532701 C 71.3167470355733 79.7418670076722 69.5068221343872 83.5002714651073 68.8962450592886 87.4433374132259 C 68.6999881422926 90.0394607234193 69.823013833992 92.4835098648155 70.2155276679844 95.0144585312382 C 67.522446640316 95.840004018999 64.7530434782609 96.4157133723056 61.9400276679842 96.6112373036167 C 53.5118833992094 98.1971536353667 44.963804347826 99.8591070515158 36.4048221343874 100.891038911217 C 34.8783794466402 96.4808880160763 35.4889565217391 90.3653339422726 30.1464071146245 88.4535443916693 C 23.5718003952568 84.5973779685792 17.9239624505929 78.5687234198031 15.1981719367589 71.3886501644138 C 12.4178656126481 64.8929106686155 7.18434782608688 59.6246269638286 5.41803557312244 52.6835274022651 C 4.61120158102756 49.4030703324806 2.11437747035575 46.9807460723423 0.609741106719298 44.0370246620387 C 1.80908893280628 42.4511083302887 3.92430237154144 39.5616991231273 6.17035375494072 40.7457051516258 C 13.9770177865612 43.2332040555357 14.3150158102767 53.5199353306543 21.4674901185771 56.876429484837 C 22.9067075098815 57.8214618195107 24.6730197628459 57.5281759225427 26.3303003952569 57.6911125319693 Z" transform="matrix(1 0 0 1 -459 -4235 ) matrix(1 0 0 1 459 4235 )"/></g></svg>