<svg xmlns="http://www.w3.org/2000/svg" xmlns:xlink="http://www.w3.org/1999/xlink" width="52" height="105" version="1.1"><g><path fill="#06f" fill-rule="nonzero" stroke="none" d="M 18.5526751918158 2.3798260869562 C 17.0162557544757 2.52907826086994 15.5127595907927 2.69965217391291 14.0202378516624 2.9874956521744 C 12.3740741687978 4.11754782608659 11.2437084398977 5.74866086956536 10.0145728900255 7.2625043478256 C 10.4096521739129 4.81050434782628 11.4631969309463 1.84678260869532 14.2616751918158 1.17514782608669 C 18.5197519181585 -1.23420869565234 23.4472685421995 2.73163478260904 23.7216291560102 7.09193043478263 C 22.2839795396419 5.23693913043462 20.5829437340152 3.60582608695677 18.5526751918158 2.3798260869562 Z M 6.15883831521739 55.9031679841901 C 7.43647690217381 55.4343320158105 8.69246059782597 54.910980237154 9.99175407608698 54.4639505928853 C 10.5114714673913 54.1477588932803 11.5400788043478 53.4935691699602 12.0597961956521 53.1773774703561 C 12.362964673913 39.3085553359688 12.0056589673912 25.4179268774706 12.2222078804347 11.5491047430833 C 12.2113804347825 7.78751383399231 16.2391902173912 4.56017786561279 19.4765964673912 7.29687154150179 C 19.8014198369565 7.96196442687778 20.461894021739 9.28124703557296 20.7867173913044 9.94633992094896 C 20.8625095108696 13.0973537549407 20.6134782608696 16.2919802371543 21.2198152173913 19.4102845849802 C 22.7789673913043 26.3337924901189 20.8625095108696 33.5952984189726 23.2337201086956 40.3988715415016 C 23.9483315217391 40.6932569169958 25.3775543478262 41.303833992095 26.0921657608695 41.6091225296441 C 26.5469184782608 41.64183201581 27.4672513586956 41.6963478260868 27.9220040760869 41.7181541501977 C 31.9281589673913 42.8738893280633 31.852366847826 47.8348280632408 35.1655652173913 49.6665592885374 C 38.2946970108695 50.811391304348 41.618722826087 52.3487371541505 43.3619415760869 55.3907193675886 C 44.8453016304347 58.2037351778654 45.7764619565216 61.2566205533594 47.1190652173912 64.1459584980239 C 50.9411535326086 65.4652411067191 52.8684388586956 70.0445691699606 51.4716983695652 73.7952569169956 C 49.5768953804347 81.1112786561262 48.4616684782609 88.7980079051385 44.6720624999999 95.4271304347822 C 44.6070978260869 97.5859565217388 45.6248777173912 99.5812351778659 46.0038383152173 101.67464229249 C 46.2961793478261 102.361541501976 46.859206521739 103.713533596838 47.1407201086955 104.389529644269 C 36.3024470108695 104.444045454546 25.4533464673913 104.400432806324 14.6150733695652 104.41133596838 C 13.6514307065218 99.8211047430832 11.5725611413043 95.2962924901185 8.04281385869569 92.1561818181817 C 7.24158288043475 91.1967035573125 6.01808152173919 90.3789664031619 5.888152173913 89.0487806324109 C 4.24238043478249 80.2608320158106 2.25013043478259 71.5601086956522 0.268707880434818 62.8484822134387 C 0.57187635869559 59.5448241106715 3.32204755434782 57.1897411067193 6.15883831521739 55.9031679841901 Z" transform="matrix(1 0 0 1 -366 -4231 ) matrix(1 0 0 1 366 4231 )"/></g></svg>