<svg xmlns="http://www.w3.org/2000/svg" xmlns:xlink="http://www.w3.org/1999/xlink" width="77" height="102" version="1.1"><g><path fill="#06f" fill-rule="nonzero" stroke="none" d="M 72.1838179347826 72.5155217391302 C 72.0971983695651 71.8727943143813 71.9239592391305 70.5986153846152 71.837339673913 69.967163879599 C 69.3795095108695 70.0235434782608 66.9325067934782 70.0348193979935 64.4963315217392 70.0460953177262 C 64.485504076087 68.0728093645484 64.4963315217392 66.1220752508361 64.5071589673912 64.1600652173911 C 66.8675421195652 64.1713411371238 69.217097826087 64.1938929765884 71.588308423913 64.2615484949829 C 71.8589945652174 63.8781672240802 72.4111942934782 63.1339565217395 72.6927078804348 62.7618511705687 C 74.0461385869565 64.3179280936456 75.4645339673913 65.8289013377926 76.9262391304347 67.2947709030104 C 75.3887418478259 69.0876421404682 73.7862798913044 70.8015819397997 72.1838179347826 72.5155217391302 Z M 30.2662248875563 9.82652034782586 C 30.1030952023988 16.231357565217 30.3097261369315 22.6470688695654 30.1792223888056 29.0519060869565 C 30.2009730134932 32.3793766956524 28.8633095952023 36.0656921739128 30.9948708145927 39.0234438260868 C 32.8980504747626 28.7909280000003 34.8121054472763 18.558412173913 36.7696616691654 8.33677043478292 C 37.0959210394802 5.50950782608652 37.7701904047975 2.55175617391342 39.8038738130935 0.431309217391572 C 41.3046669165417 0.474805565217139 42.8054600199899 0.496553739130832 44.317128435782 0.507427826087223 C 45.4590362318839 2.20378539130434 47.5470962018991 3.87839478260867 46.5900687156421 6.18370121739099 C 45.5569140429784 9.27194191304352 45.9701759120438 12.6320347826086 44.7738915542227 15.6659050434782 C 44.2083753123438 24.5717822608694 41.2067891054472 33.2493036521737 41.4242953523238 42.187803130435 C 43.6319837581209 39.947741217391 44.066996251874 36.7290114782609 45.143652173913 33.9017488695654 C 47.4927196401799 26.5617401739128 50.1897971014491 19.3304723478259 52.3974855072464 11.9469673043477 C 53.1043808095951 10.6203286956525 53.811276111944 9.2936900869563 54.5834232883558 7.99967373913023 C 56.0624657671164 8.02142191304301 57.5523835582208 8.04317008695671 59.064051974013 8.0540441739131 C 59.6513188405797 9.19582330434787 60.2385857071464 10.3267283478262 60.8584785107446 11.468507478261 C 57.8568923038481 21.5922824347826 55.1271889055472 31.8030500869563 52.299607696152 41.9811954782608 C 51.6362136431784 43.8406643478265 51.9733483258369 45.776251826087 52.4518620689655 47.6357206956518 C 56.9107401299351 39.7085113043477 59.3794360319839 30.8243822608692 63.3162991004498 22.636194782609 C 64.1754487756122 21.0594521739131 66.0786284357821 20.5157478260871 67.470668415792 19.5153318260873 C 68.8844590204898 21.1464448695651 71.6576636681659 22.8210542608695 70.3961274362819 25.3547165217387 C 66.0568778110944 37.794672 61.5436231884057 50.1911311304348 58.0526479260369 62.8920646956522 C 56.3778498250874 70.6996591304351 54.4637948525738 78.7247353043476 49.8417871064468 85.3905506086958 C 47.8081036981509 88.4461690434782 44.9587718640679 90.8058459130434 42.5879537731133 93.5787380869569 C 41.9354350324838 96.2972598260867 41.1089112943528 98.9940333913046 41.2937916041979 101.832170086956 C 39.4341131934032 100.636020521739 37.1937988505747 100.777383652174 35.1274895052472 100.375042434783 C 27.7322771114442 98.9831593043482 20.2609375312343 97.9827433043474 12.941852323838 96.2320153043474 C 14.0946354322839 93.5134935652177 14.2251391804098 90.5557419130437 14.6927776111944 87.6849829565217 C 14.3882688655673 86.4235888695657 14.1163860569715 85.1513206956524 13.8662538730634 83.8899266086955 C 10.5275329835083 79.6599067826082 6.97130584707634 75.4081387826091 5.63364242878561 70.0472139130434 C 3.8500912043977 65.6540827826084 4.67661494252866 60.847736347826 3.5238318340829 56.3241161739133 C 3.29545027486245 52.2028372173909 2.16441779110437 48.2337954782606 1.24001624187895 44.2430055652176 C 0.620123438280871 39.1213106086961 1.91428560719635 33.7930079999996 0.000230634682566233 28.867046608696 C 0.282988755622114 28.2363495652171 0.848504997501209 26.9640813913047 1.13126311844064 26.3225102608694 C 2.79518590704652 26.3660066086959 4.45910869565216 26.3768806956523 6.14478210894549 26.4095029565215 C 12.1370792103947 30.7265154782608 11.4628098450773 38.8385843478263 13.2246104447776 45.2651697391302 C 13.9750069965017 46.178593043478 14.7362788605697 47.0920163478258 15.5084260369815 48.0163137391301 C 17.3572291354322 45.6348886956521 19.5322916041979 43.0359819130435 19.5105409795103 39.860748521739 C 19.4126631684157 35.4567433043476 21.0330847076461 31.2267234782612 20.6524487756121 26.8118441739134 C 20.1956856571715 21.9837495652173 22.2184937531235 17.3948848695654 21.739980009995 12.5776643478257 C 21.2397156421789 10.0113798260873 22.7296334332833 7.88005878260901 24.1107981009494 5.89010086956478 C 25.024324337831 5.86835269565199 26.8622521239381 5.82485634782643 27.7757783608195 5.80310817391273 C 28.6675539730135 7.09712452173881 29.4723270864567 8.45638539130414 30.2662248875563 9.82652034782586 Z M 72.7251902173913 83.5498369565221 C 70.6788029891304 81.2177717391305 67.1923654891305 82.7724818840579 64.5179864130434 82.3615942028982 C 64.4963315217392 80.2072101449276 64.4963315217392 78.0417210144924 64.5179864130434 75.8873369565217 C 67.1490557065218 75.4098188405796 70.906179347826 77.2532608695656 72.6385706521738 74.5103079710143 C 73.9920013586956 76.0094927536229 75.3995692934783 77.4642572463772 76.8071372282608 78.907916666667 C 75.4537065217392 80.4626268115944 74.0569660326087 81.9840217391302 72.7251902173913 83.5498369565221 Z" transform="matrix(1 0 0 1 -354 -4358 ) matrix(1 0 0 1 354 4358 )"/></g></svg>