<svg xmlns="http://www.w3.org/2000/svg" xmlns:xlink="http://www.w3.org/1999/xlink" width="69" height="104" version="1.1"><g><path fill="#06f" fill-rule="nonzero" stroke="none" d="M 39.3810281329922 6.04872705314028 C 37.7348644501278 2.31742270531413 33.3560690537083 2.61800000000039 29.8332787723785 2.71128260869591 C 28.7138874680306 4.02760386473437 27.6383938618926 5.37501932367195 26.5738746803069 6.73279951690802 C 26.8262864450128 5.54085507246418 27.1445447570333 4.35927536231884 27.4079309462915 3.1776956521735 C 28.3297826086956 2.32778743961353 29.284557544757 1.50897342995177 30.2503069053708 0.690159420290001 C 32.0501125319694 0.710888888888803 33.8828414322251 0.721253623188204 35.7045959079284 0.741983091787915 C 37.7348644501278 1.90283333333355 39.3810281329922 3.69593236714991 39.3810281329922 6.04872705314028 Z M 16.2149424749164 62.1702978260873 C 17.3341287625417 59.8522249999996 18.9857434782609 57.9041731884063 20.8872735785953 56.2064297101451 C 22.2237775919731 55.705813043478 23.5494157190634 55.1616644927535 24.896785618729 54.6610478260873 C 25.6791294314381 54.3998565217389 27.2438170568561 53.8774739130431 28.0152949832775 53.6162826086957 C 28.0152949832775 38.4127721014493 28.5694551839465 23.2201445652172 29.3192013377927 8.04928297101469 C 30.351460535117 5.86180579710162 32.7854190635451 6.50390108695683 34.7412785953177 6.35153949275355 C 35.4149635451505 7.26570905797144 36.1103802675585 8.17987862318842 36.8057969899666 9.0940481884063 C 36.3494297658862 14.1437467391306 38.4900093645484 18.9322539855075 37.924983277592 23.9928355072461 C 37.403420735786 29.7390442028982 39.3701461538462 35.2784764492753 39.1093648829432 41.0246851449274 C 40.0003675585283 41.0029192028987 41.7715070234113 40.9485043478262 42.6625096989966 40.9267384057966 C 43.2818652173912 41.2314615942032 44.5314421404682 41.8517909420289 45.1507976588628 42.1565141304345 C 47.5630244147156 44.0501510869562 49.2255050167223 46.6185322463771 50.3012277591972 49.4807536231883 C 53.3219441471571 49.2739771739125 55.5168531772574 51.4614543478265 57.7878234113712 53.1047829710142 C 62.0907143812707 56.7179293478257 61.3626999999999 63.7047967391309 66.7195819397995 66.3058268115947 C 69.8489571906356 70.3216431159417 67.4258645484949 75.2189800724636 66.4262030100333 79.5286365942029 C 65.0136377926419 85.0571858695648 63.6336702341137 90.6292670289859 60.841137458194 95.6571996376815 C 61.5474200668895 98.3452934782608 62.3406297658862 101.011621376811 63.1555712374584 103.677949275362 C 52.2896849498327 103.699715217392 41.434664548495 103.699715217392 30.5905100334447 103.677949275362 C 30.3297287625418 102.33934384058 30.003752173913 101.033387318841 29.6343120401338 99.7383137681163 C 28.8736999999999 98.2908786231883 28.1348197324414 96.8325605072459 27.4285371237457 95.3742423913045 C 25.7551906354514 92.7079144927538 23.1147802675586 90.7816286231882 21.7130809364548 87.919407246377 C 20.517833444816 79.2347963768116 18.3446561872909 70.6590152173912 16.2149424749164 62.1702978260873 Z M 0.167877090300976 22.0000708534626 C 2.30978929765888 17.8522028985508 6.78735451505008 15.0399049919488 9.88720735785944 11.4458099838967 C 9.87644397993313 14.6815813204512 9.87644397993313 17.9064943639287 9.89797073578598 21.1422657004832 C 13.191564381271 17.7327616747179 16.7327157190634 14.5838566827697 20.2415769230769 11.402376811594 C 20.1447065217391 18.4819838969406 20.1231797658863 25.5724492753625 20.2415769230769 32.6520563607082 C 16.8941663879598 29.057961352657 13.3530150501672 25.6593156199679 9.88720735785944 22.1846618357486 C 9.87644397993313 25.3987165861508 9.88720735785944 28.6236296296302 9.88720735785944 31.8376843800324 C 6.67972073578596 28.5259049919487 3.22467642140452 25.4530080515297 0.167877090300976 22.0000708534626 Z" transform="matrix(1 0 0 1 -567 -4480 ) matrix(1 0 0 1 567 4480 )"/></g></svg>