<svg xmlns="http://www.w3.org/2000/svg" xmlns:xlink="http://www.w3.org/1999/xlink" width="64" height="116" version="1.1"><g><path fill="#000" fill-rule="nonzero" stroke="none" d="M 5.45280898876399 10.2910112359551 C 5.15955056179769 8.11685393258426 4.7044943820224 5.90224719101121 5.02808988764048 3.69775280898875 C 5.64494382022474 0.148314606741565 10.8629213483146 -0.974157303370817 13.158426966292 1.64494382022474 C 14.2101123595506 3.1820224719101 14.7157303370786 5.01235955056183 15.2314606741573 6.79213483146066 C 17.870786516854 17.6022471910113 20.0955056179774 28.523595505618 22.9775280898876 39.2831460674157 C 25.4449438202248 39.5460674157303 27.9426966292134 39.6876404494382 30.3696629213482 40.2842696629214 C 33.0191011235954 40.9314606741573 34.7988764044944 43.176404494382 36.4674157303371 45.1786516853933 C 37.0539325842697 45.9168539325843 37.6404494382023 46.6651685393259 38.2269662921349 47.423595505618 C 42.3831460674157 47.9595505617978 46.5898876404494 49.2640449438202 49.7752808988764 52.1056179775281 C 52.4348314606741 54.6640449438203 53.3651685393257 58.4662921348315 55.8730337078651 61.1561797752809 C 58.0471910112359 63.3808988764045 61.7786516853932 64.108988764045 62.8505617977528 67.3449438202247 C 64.114606741573 74.6258426966292 62.3449438202247 81.9471910112359 62.0516853932584 89.2280898876405 C 61.8494382022473 92.9898876404495 60.1101123595506 96.5191011235955 60.1303370786517 100.301123595506 C 60.7674157303371 103.496629213483 62.6483146067416 106.277528089888 63.9123595505617 109.250561797753 C 51.3426966292134 111.707865168539 38.7022471910112 113.861797752809 26.0314606741573 115.68202247191 C 23.7865168539325 111.859550561798 21.8853932584269 107.622471910112 18.3561797752808 104.770786516854 C 15.9595505617976 102.808988764045 13.0471910112359 101.1 11.9550561797753 98.0258426966292 C 8.29438202247195 88.8438202247191 4.57303370786508 79.6719101123596 1.02359550561789 70.4494382022472 C -0.291011235955011 67.9314606741573 1.57977528089884 65.4337078651686 2.99550561797753 63.4314606741573 C 5.84719101123585 60.6404494382023 9.4370786516854 58.7797752808989 12.7235955056179 56.5651685393259 C 12.1977528089888 52.5303370786517 11.4898876404494 48.5157303370787 10.8426966292135 44.5011235955056 C 9.11348314606732 33.0943820224719 7.40449438202245 21.6674157303371 5.45280898876399 10.2910112359551 Z" transform="matrix(1 0 0 1 -814 -4892 ) matrix(1 0 0 1 814 4892 )"/></g></svg>