<svg xmlns="http://www.w3.org/2000/svg" xmlns:xlink="http://www.w3.org/1999/xlink" width="119" height="71" version="1.1"><g><path fill="#979598" fill-rule="nonzero" stroke="none" d="M 0.626966292134853 6.83258426966293 C 0.414606741573039 4.11235955056179 2.24494382022476 1.55393258426966 4.95505617977528 1.05842696629214 C 9.16179775280898 0.249438202247191 13.4797752808988 0.724719101123597 17.7370786516855 0.66404494382023 C 45.3842696629214 0.684269662921345 73.0314606741572 0.674157303370791 100.668539325843 0.66404494382023 C 105.259550561798 0.744943820224719 109.911235955056 0.219101123595507 114.461797752809 1.04831460674157 C 116.797752808989 1.46292134831461 118.456179775281 3.59662921348315 118.658426966292 5.90224719101124 C 119.244943820225 11.1303370786517 118.8 16.4089887640449 118.891011235955 21.6471910112359 C 106.776404494382 18.9370786516854 94.5303370786517 16.8640449438202 82.5067415730337 13.7595505617978 C 78.0775280898876 12.4752808988764 73.3955056179775 12.5561797752809 68.9662921348314 13.7797752808989 C 69.1887640449438 16.4191011235955 68.5112359550562 19.5438202247191 70.4932584269662 21.6775280898876 C 73.5168539325842 25.3483146067416 78.3505617977528 26.4910112359551 82.708988764045 27.785393258427 C 87.552808988764 29.0797752808989 92.0629213483146 31.3752808988764 96.9269662921348 32.6393258426966 C 99.4044943820224 33.3876404494382 102.043820224719 33.8932584269663 104.22808988764 35.3696629213483 C 105.11797752809 36.6640449438202 105.178651685393 38.3224719101124 105.583146067416 39.808988764045 C 106.493258426966 44.7842696629214 108.404494382022 49.4865168539326 109.931460674157 54.2898876404494 C 105.83595505618 54.3505617977528 101.588764044944 54.6337078651685 97.6752808988764 53.1674157303371 C 90.6168539325841 50.5685393258427 83.9426966292135 46.9887640449438 76.7426966292135 44.7943820224719 C 73.405617977528 43.7022471910112 69.714606741573 44.9157303370787 67.0449438202247 47.0089887640449 C 64.9820224719101 48.647191011236 65.5179775280899 51.5696629213483 65.1539325842697 53.8752808988764 C 70.6044943820224 56.0696629213483 76.085393258427 58.385393258427 80.676404494382 62.1269662921348 C 85.4191011235954 65.9595505617978 91.314606741573 67.7494382022472 96.8359550561798 70.1056179775281 C 78.9168539325842 70.8539325842697 60.9573033707865 70.2573033707865 43.0280898876405 70.4494382022472 C 34.4932584269662 70.3280898876405 25.9483146067415 70.7932584269663 17.4337078651686 70.0752808988764 C 21.5191011235955 67.1325842696629 25.1089887640449 63.4921348314607 27.9606741573034 59.3460674157303 C 29.8314606741574 56.6865168539326 29.1134831460674 52.3179775280899 26.1303370786517 50.7808988764045 C 24.4011235955056 49.8707865168539 22.3786516853933 50.4067415730337 20.6393258426966 50.9426966292135 C 12.9033707865168 53.3494382022472 8.08988764044943 60.5797752808989 0.596629213483197 63.4820224719101 C 0.546067415730363 44.6022471910112 0.485393258426939 25.7123595505618 0.626966292134853 6.83258426966293 Z M 64.2640449438202 22.5977528089888 C 62.1707865168538 24.4584269662921 60.1584269662922 26.4101123595506 58.2674157303371 28.4730337078652 C 60.3606741573034 29.7269662921348 62.3123595505618 32.1337078651685 64.9921348314607 31.7393258426966 C 66.9640449438201 31.061797752809 68.5415730337079 29.6258426966292 70.2606741573034 28.4730337078652 C 68.3595505617977 26.4101123595506 66.3471910112359 24.4584269662921 64.2640449438202 22.5977528089888 Z M 65.0730337078651 32.9831460674157 C 62.2112359550562 32.447191011236 60.391011235955 35.238202247191 58.3280898876404 36.6842696629214 C 60.2191011235955 38.6966292134831 62.2011235955057 40.6179775280899 64.2640449438202 42.4584269662921 C 66.3168539325842 40.6179775280899 68.2988764044944 38.6966292134831 70.1999999999999 36.6842696629214 C 68.5213483146067 35.4202247191011 67.085393258427 33.6910112359551 65.0730337078651 32.9831460674157 Z" transform="matrix(1 0 0 1 -723 -4667 ) matrix(1 0 0 1 723 4667 )"/></g></svg>