<svg xmlns="http://www.w3.org/2000/svg" xmlns:xlink="http://www.w3.org/1999/xlink" width="81" height="91" version="1.1"><g><path fill="#06f" fill-rule="nonzero" stroke="none" d="M 26.2097453746531 15.8536756756757 C 23.9392069842738 14.411576968273 22.0616463922294 12.3030538582061 19.4854586031452 11.3635047003527 C 16.9311029139685 11.1996298472386 14.2785027752081 11.3635047003527 11.9206359851989 10.1508307873091 C 11.527658186864 9.70290618879699 10.7417025901942 8.80705699177452 10.3487247918594 8.37005738347034 C 9.4208605457909 4.37151096748948 13.4052187789084 3.06051214257695 16.4507967160037 2.35038777908358 C 20.40240679926 -0.52288464551475 25.5111181776133 0.132614766940605 29.9648665587419 1.2688137485311 C 34.6151038390379 1.78228828828833 39.5164102682701 0.788114179396871 43.784585800185 3.25716196631402 C 46.972072386679 4.78666059537773 48.3584107308048 8.17340755973328 50.7490256706753 10.5769054054053 C 54.7006357539315 14.5099018801411 58.4557569380204 18.7815730513121 63.4880559666975 21.3817207207212 C 66.1406561054579 23.5448687818252 69.8957772895467 24.9760424990209 70.8563896854764 28.6140642381515 C 73.1815083256244 32.9622103407755 69.5246315911193 37.5616312181746 70.8673057354301 42.0190272228747 C 72.166315679926 47.055447708578 72.8758589269195 52.2011180963573 73.7273108233118 57.3140135135136 C 74.0547923219241 62.1319341950648 73.5526540240518 66.960779866823 73.9237997224791 71.7787005483742 C 75.0809010175763 76.4327463768113 76.4890714616096 81.0321672542104 78.410296253469 85.4349383078734 C 79.2835802497687 87.0190618879751 80.1241160962071 88.6359604386998 80.953735892692 90.2637839796316 C 70.0813501387604 90.3621088915006 59.2198804347826 90.2528589894246 48.347494680851 90.3184089306696 C 47.7580279833487 86.855187034861 47.3868822849213 83.2827152369764 45.3564969935245 80.3001929103011 C 42.2454227567067 75.831871915394 37.365948427382 73.0241494320408 34.0256371415356 68.7524782608698 C 31.9734197502312 66.5674802193498 31.1328839037927 63.5958828828825 29.571888760407 61.0940601253424 C 28.021809666975 59.4662365844106 26.0023404255319 58.4065125342731 24.2448563829787 57.0518137485315 C 22.334547641073 55.7189649432039 20.5006512488436 54.2768662358012 18.4702659574468 53.1406672542107 C 14.6933126734505 50.0379700352523 11.9097199352451 45.7116739130433 7.53238390379278 43.4065009792403 C 6.58268755781683 42.5325017626319 5.65482331174837 41.6585025460245 4.72695906567992 40.7845033294161 C 5.96047271045325 39.0365048962003 7.4123073543015 37.4523813160986 8.91872224791859 35.9447326674499 C 14.1147620259019 35.4203331374856 17.815302960222 39.4079545632585 21.9961500925069 41.7349774774775 C 23.7972983348751 42.7400765765769 25.5002021276595 43.9199755189975 27.1485256706753 45.1544994124561 C 28.840513413506 45.8099988249123 30.5325011563367 46.4545732471597 32.2354049491212 47.077297688993 C 33.2396815448658 46.5419731688207 34.2767062904718 46.0612735996865 35.3246470860315 45.6242739913823 C 36.5472446808511 44.4771500195848 37.7261780758556 43.3191010575792 38.8832793709528 42.1173521347437 C 39.6037386679001 36.206932432432 39.2107608695652 29.0401388562477 34.1347976410731 25.0634424206819 C 30.9691431544866 22.4742197414807 28.927841813136 18.8580479827651 26.2097453746531 15.8536756756757 Z M 8.11978832951939 30.6438086956523 C 5.66848970251715 30.590504347826 3.21719107551485 30.579843478261 0.765892448512602 30.590504347826 C 0.744851258581207 28.2877565217395 0.734330663615538 25.9956695652172 0.744851258581207 23.7035826086958 C 1.15515446224254 24.1620000000003 1.97576086956519 25.0681739130432 2.37554347826085 25.5265913043477 C 4.23768878718533 21.5287652173911 8.11978832951939 19.1407304347822 10.2765102974828 15.3667826086958 C 11.6441876430206 16.7313739130432 13.022385583524 18.1066260869566 14.3900629290617 19.492539130435 C 11.5495022883295 22.083130434783 9.23497139588096 25.1534608695656 6.94148169336381 28.2451130434783 C 7.3307437070938 29.0340173913046 7.72000572082379 29.844243478261 8.11978832951939 30.6438086956523 Z M 15.4224456521739 20.4378695652176 C 17.3436231884058 22.0297312252969 19.3536413043478 23.5234644268776 21.4302898550724 24.9408754940714 C 20.2198369565217 26.2601581027666 19.1093297101449 27.6884723320154 17.8433514492754 28.9641422924906 C 15.4446557971014 28.7024664031624 13.9898913043478 26.4782213438739 12.4129710144927 24.9299723320155 C 13.1014855072464 23.2508853754944 14.4340942028986 21.9316027667983 15.4224456521739 20.4378695652176 Z" transform="matrix(1 0 0 1 -670 -4369 ) matrix(1 0 0 1 670 4369 )"/></g></svg>