<svg xmlns="http://www.w3.org/2000/svg" xmlns:xlink="http://www.w3.org/1999/xlink" width="95" height="95" version="1.1"><g><path fill="#000" fill-rule="nonzero" stroke="none" d="M 51.0876404494383 10.7134831460675 C 52.8067415730337 8.40786516853933 54.1112359550561 5.738202247191 56.3966292134832 3.90786516853933 C 59.0460674157304 1.82471910112361 62.4842696629213 1.25842696629212 65.7404494382023 0.874157303370794 C 65.7202247191011 19.6325842696629 65.447191011236 38.4011235955056 65.8820224719101 57.1595505617978 C 70.9887640449439 55.6022471910113 74.8820224719101 51.9314606741573 78.8561797752809 48.5741573033708 C 82.3651685393259 45.8539325842697 86.9662921348314 43.6191011235955 91.4966292134831 44.8022471910112 C 94.0449438202246 46.1876404494382 96.0775280898875 49.9393258426966 93.9741573033708 52.5280898876404 C 90.7280898876404 57.2505617977528 86.3696629213483 61.123595505618 81.8393258426967 64.5921348314607 C 79.3314606741573 66.4932584269663 76.6112359550561 68.1921348314607 74.6595505617978 70.7101123595506 C 72.4247191011236 73.4808988764045 70.3820224719101 76.6258426966293 67.0651685393259 78.223595505618 C 60.0168539325842 81.823595505618 52.4831460674158 84.4224719101124 44.7977528089888 86.2831460674157 C 40.1460674157304 87.152808988764 37.9415730337079 91.8247191011236 34.2404494382023 94.2516853932585 C 30.0842696629213 92.5528089887641 26.443820224719 89.8224719101124 22.5404494382022 87.6280898876405 C 15.370786516854 83.1988764044944 7.8977528089888 79.2651685393258 0.950561797752812 74.4921348314607 C 12.2157303370786 68.9606741573033 21.1449438202247 59.4550561797753 27.3033707865169 48.6449438202247 C 31.5910112359551 41.9303370786517 34.291011235955 34.3460674157304 38.7910112359551 27.7629213483146 C 42.7247191011236 21.9685393258427 46.9314606741573 16.3561797752809 51.0876404494383 10.7134831460675 Z" transform="matrix(1 0 0 1 -677 -4872 ) matrix(1 0 0 1 677 4872 )"/></g></svg>