<svg xmlns="http://www.w3.org/2000/svg" xmlns:xlink="http://www.w3.org/1999/xlink" width="69" height="104" version="1.1"><g><path fill="#06f" fill-rule="nonzero" stroke="none" d="M 40.7377595907927 7.37292173913011 C 39.541547314578 5.80577391304359 38.3014373401535 4.28126956521737 37.0284040920715 2.77808695652129 C 34.2957723785165 2.82073043478249 31.442421994885 2.63949565217354 28.9951253196931 3.99342608695679 C 28.5780971867008 4.6330782608693 27.7550153452686 5.90172173913015 27.3489616368287 6.5307130434785 C 27.3160383631713 3.98276521739172 29.1268184143223 2.0105043478261 31.2448823529412 0.752521739130316 C 33.0227391304347 0.741860869565244 34.8005959079282 0.7205391304351 36.6004015345268 0.699217391304046 C 37.5442020460358 1.54142608695656 38.4770281329924 2.38363478260908 39.4318030690537 3.24716521739174 C 39.8159079283887 4.6330782608693 40.2658593350383 5.99766956521762 40.7377595907927 7.37292173913011 Z M 21.9295964673913 56.2934934782606 C 22.5575883152173 56.0540681159418 23.8135720108695 55.5534514492756 24.4415638586956 55.3031431159425 C 26.2172649456521 54.2366119565213 29.3680516304348 53.8774739130431 29.4005339673913 51.2873268115945 C 29.4871535326085 37.2591771739135 29.4005339673913 23.2201445652172 29.4330163043478 9.19199492753614 C 30.255902173913 8.2560594202896 31.0896154891304 7.30924094202874 31.9125013586955 6.36242246376787 C 33.1143478260869 6.37330543478311 34.3161942934782 6.42772028985473 35.5396956521739 6.52566702898548 C 38.8853763586957 9.6164307971012 38.0083532608695 14.5137677536231 38.0841453804347 18.5948818840579 C 37.8675964673912 21.8597731884056 38.538898097826 25.0593666666664 39.0694429347825 28.2698431159424 C 39.3401290760869 32.5033188405796 39.0910978260869 36.747677536232 39.1993722826087 40.9920362318844 C 40.7585244565217 40.9593873188405 42.339331521739 40.9376213768119 43.9201385869566 40.904972463768 C 47.6339524456521 42.4938862318841 49.6370298913043 45.911139130435 50.9579782608695 49.5787003623191 C 51.6617622282608 49.5787003623191 53.0476752717391 49.6004663043477 53.7406317934782 49.611349275362 C 54.596 50.209912681159 55.4730230978259 50.7975931159417 56.3825285326087 51.3743905797101 C 59.2409741847825 53.3224423913043 61.3739809782608 56.0867170289857 62.1752119565217 59.514852898551 C 62.9006508152173 63.0953503623186 66.3221236413043 64.7822108695655 68.2060991847825 67.6009003623185 C 69.537875 73.9565554347828 66.430398097826 79.8660086956525 65.2718614130434 85.9713554347827 C 64.687179347826 90.3463097826088 60.9625380434783 93.8506264492753 61.9803179347825 98.4650061594202 C 63.0630624999999 99.9995050724638 62.9547880434783 101.914907971014 63.2038192934783 103.699715217392 C 52.7228519021739 103.710598188406 42.2310570652174 103.62353442029 31.750089673913 103.743247101449 C 31.1870625 102.382875724637 30.6673451086956 101.033387318841 30.2017649456523 99.6621329710142 C 28.8916440217391 94.4491898550723 23.0881331521739 92.0114043478261 22.4601413043478 86.5916847826084 C 20.9226440217391 79.1477326086952 19.2010801630433 71.7255463768115 17.5877907608694 64.3033601449279 C 16.6458029891304 60.8208094202901 18.7679823369564 57.5885670289854 21.9295964673913 56.2934934782606 Z M 9.9361429765886 32.9126553945252 C 9.97919648829429 29.3511352657006 9.97919648829429 25.7787568438007 9.95766973244145 22.217236714976 C 6.70712959866228 25.409574879227 3.49964297658858 28.6344879227054 0.27062959866214 31.8485426731077 C 0.249102842809407 25.0403929146541 0.259866220735717 18.2431014492749 0.259866220735717 11.4566682769728 C 3.510406354515 14.6272898550724 6.68560284280943 17.8956360708535 9.95766973244145 21.0662576489531 C 9.97919648829429 17.8522028985508 9.95766973244145 14.6490064412237 9.96843311036776 11.4458099838967 C 13.5956914715719 14.9638969404186 17.3844005016722 18.3299677938812 20.9470785953177 21.9349210950077 C 17.2982934782608 25.6158824476652 13.5203478260869 29.1665442834137 9.9361429765886 32.9126553945252 Z" transform="matrix(1 0 0 1 -461 -4480 ) matrix(1 0 0 1 461 4480 )"/></g></svg>