<svg xmlns="http://www.w3.org/2000/svg" xmlns:xlink="http://www.w3.org/1999/xlink" width="96" height="94" version="1.1"><g><path fill="#000" fill-rule="nonzero" stroke="none" d="M 32.2123595505617 37.3966292134832 C 37.7741573033708 25.676404494382 46.3595505617977 15.8269662921349 53.6404494382023 5.1988764044944 C 55.2179775280898 2.96404494382023 57.5337078651686 1.4370786516854 59.8898876404494 0.132584269662971 C 59.8292134831461 19.0325842696629 59.8595505617977 37.9426966292135 59.8494382022471 56.8426966292135 C 61.9224719101123 56.2662921348315 64.0157303370787 55.7202247191011 66.0685393258427 55.0224719101124 C 74.552808988764 52.4842696629214 79.5179775280899 43.5449438202247 88.5179775280899 42.0887640449438 C 92.7853932584269 40.9258426966292 96.8606741573034 46.3157303370787 94.5651685393259 50.0977528089888 C 91.4505617977528 55.2752808988764 86.576404494382 59.0977528089887 81.7932584269663 62.6573033707865 C 77.7887640449438 65.3168539325843 74.5022471910113 68.876404494382 71.6505617977527 72.708988764045 C 68.7786516853932 76.6224719101124 63.9550561797752 78.1494382022472 59.7078651685393 80.0404494382024 C 54.2471910112359 82.3966292134832 48.4325842696629 83.6910112359551 42.7696629213483 85.4101123595506 C 38.7955056179775 86.4820224719102 36.6719101123596 90.2539325842697 34.3359550561797 93.2977528089889 C 23.0808988764045 86.7752808988764 11.8460674157303 80.2123595505618 0.813483146067369 73.3258426966293 C 7.96292134831458 69.0483146067417 14.8292134831461 64.123595505618 20.0370786516854 57.5404494382022 C 24.9314606741573 51.3719101123596 28.8449438202248 44.4955056179776 32.2123595505617 37.3966292134832 Z" transform="matrix(1 0 0 1 -967 -5118 ) matrix(1 0 0 1 967 5118 )"/></g></svg>