<svg xmlns="http://www.w3.org/2000/svg" xmlns:xlink="http://www.w3.org/1999/xlink" width="42" height="110" version="1.1"><g><path fill="#06f" fill-rule="nonzero" stroke="none" d="M 11.0116445012788 15.1164140953715 C 13.0419130434782 24.0060962482466 13.8430460358056 33.1128646563811 15.4453120204603 42.0785269985972 C 15.4672608695652 44.8355224403931 16.125726342711 47.5056833800845 17.4207084398977 49.9587580645166 C 19.4839002557545 37.7368018934085 21.7775549872122 25.5365543478256 23.7968491048593 13.3363068022445 C 24.5211611253196 11.2414244389902 26.6831227621483 10.3079535413744 28.4280562659846 9.18995932678808 C 29.6571918158567 10.1451388499299 30.8863273657288 11.122026998597 32.115462915601 12.098915147265 C 31.8520767263427 20.413318723703 29.7779104859335 28.5323446704069 29.6791406649616 36.8576025596076 C 28.9438542199488 40.5914861500705 28.2195421994884 44.4556214936883 29.2950358056266 48.22206802244 C 29.9315524296675 48.2112137096774 31.2045856777493 48.2003593969148 31.8411023017903 48.1895050841513 C 33.1580332480818 49.7633804347824 34.4091176470587 51.4240902875172 35.2760971867007 53.2910320827486 C 36.6917979539642 56.6233061009816 40.9389002557544 58.0452210729309 41.4766470588235 61.8876477910235 C 42.332652173913 68.3025466339413 41.7400332480818 74.8368429172515 41.948547314578 81.3060133239833 C 42.332652173913 86.4618118863955 39.8963299232736 91.2051465638151 38.4257570332481 96.0136071178122 C 35.7150741687979 98.4666818022442 36.6588746803069 101.733829943899 37.888010230179 104.664494389902 C 38.601347826087 106.194952489481 38.678168797954 107.899079593268 38.9086317135549 109.559789446002 C 28.3731841432225 109.570643758766 17.8267621483376 109.538080820477 7.29131457800509 109.570643758766 C 8.02660102301792 106.097263674615 8.23511508951407 102.439360273493 7.64249616368284 98.9442715638152 C 6.04023017902813 95.4274742286116 4.26237340153449 91.9975113955115 2.63815856777489 88.4915683730715 C 0.651787723785105 84.4429097124821 1.88092327365723 79.8732440392705 0.520094629155949 75.6834793127628 C -0.0725242966752262 71.3960257713889 0.245734015345249 67.0325920406731 0.267682864450137 62.7125755610095 C 0.432299232736568 60.2377922510523 2.69303069053706 58.7181884642359 4.58063171355496 57.4482338709677 C 4.27334782608693 48.0809619565216 5.52443222506395 38.5617296633945 3.61488235294115 29.3247095021034 C 3.34052173913045 24.2883083800843 3.59293350383626 19.2410529453018 3.51611253196927 14.2046518232819 C 4.0538593350384 13.8356051893406 5.12935294117642 13.097511921459 5.66709974424549 12.7284652875178 C 6.41336061381071 12.7176109747543 7.88393350383626 12.6959023492282 8.63019437340154 12.6850480364656 C 9.42035294117642 13.4882671809255 10.2105115089514 14.302340638149 11.0116445012788 15.1164140953715 Z M 21.2181383399209 5.20196521739126 C 20.5857549407114 5.15932173913006 19.3318913043478 5.08469565217365 18.6995079051383 5.04205217391336 C 18.6777015810276 5.57509565217424 18.6340889328063 6.65184347826107 18.6013794466403 7.19554782608702 C 17.3148063241106 7.18488695652195 16.0391363636364 7.18488695652195 14.763466403162 7.20620869565209 C 14.3818557312253 6.51325217391332 13.6295375494071 5.11667826086978 13.2479268774704 4.42372173913009 C 14.4799841897233 3.14441739130416 15.6902351778656 1.86511304347823 16.9222924901186 0.585808695652304 C 18.3615098814229 2.1209739130436 19.8116304347826 3.63481739130475 21.2181383399209 5.20196521739126 Z M 18.9673043478261 12.031693236715 C 19.4257217391304 12.0109637681162 20.3318956521739 11.9695048309177 20.7903130434783 11.9487753623189 C 19.3937391304348 13.2858260869561 18.0078260869565 14.6228768115943 16.6219130434782 15.970292270531 C 15.6197913043478 14.8301714975842 14.6070086956522 13.7004154589376 13.5942260869565 12.5810241545896 C 13.914052173913 11.5134565217395 14.2232173913043 10.4562536231888 14.5217217391304 9.39905072463807 C 16.6645565217391 9.38868599033776 19.3404347826087 8.95336714975838 18.9673043478261 12.031693236715 Z" transform="matrix(1 0 0 1 -988 -4226 ) matrix(1 0 0 1 988 4226 )"/></g></svg>