<svg xmlns="http://www.w3.org/2000/svg" xmlns:xlink="http://www.w3.org/1999/xlink" width="109" height="103" version="1.1"><g><path fill="#000" fill-rule="nonzero" stroke="none" d="M 5.03370786516848 8.23258426966292 C 3.88089887640444 5.86629213483145 4.05280898876413 2.11460674157304 6.9348314606741 1.12359550561797 C 12.1831460674157 -0.0191011235955045 17.4820224719101 1.74044943820225 22.5887640449438 2.85280898876405 C 33.2775280898876 5.62359550561798 44.2089887640449 7.29213483146069 54.9584269662921 9.8 C 62.4112359550561 11.8629213483146 70.7741573033708 13.1168539325843 76.4573033707865 18.8404494382022 C 80.714606741573 24.3213483146067 82.1 31.3191011235955 85.0932584269663 37.4674157303371 C 90.867415730337 49.723595505618 95.9741573033708 62.4550561797753 98.3303370786516 75.8640449438202 C 100.029213483146 85.4808988764045 104.023595505618 94.4606741573034 108.725842696629 102.955056179775 C 95.3573033707866 102.85393258427 81.9887640449438 103.187640449438 68.6303370786517 102.773033707865 C 66.7595505617978 95.2494382022472 64.9595505617976 87.7056179775281 62.6943820224719 80.2932584269663 C 55.9393258426966 77.2595505617978 48.6584269662922 74.5494382022472 43.6123595505618 68.876404494382 C 39.638202247191 65.3876404494382 37.4438202247192 59.7550561797753 32.0741573033707 58.076404494382 C 28.3528089887641 56.438202247191 24.5303370786518 55.0224719101124 20.9404494382022 53.1112359550562 C 16.6123595505618 50.8561797752809 13.0932584269663 47.2966292134831 8.59325842696637 45.3247191011236 C 6.11573033707862 44.0505617977528 3.23370786516853 43.3224719101124 1.20112359550558 41.3303370786517 C -0.224719101123583 39.6415730337079 0.816853932584309 37.4067415730337 2.06067415730342 35.9707865168539 C 4.5078651685393 32.8561797752809 8.95730337078646 31.6224719101124 12.6887640449438 32.947191011236 C 19.9089887640449 35.2022471910112 26.6134831460674 38.8022471910112 33.7224719101123 41.3606741573034 C 37.5752808988764 42.776404494382 41.7415730337078 42.5741573033708 45.7662921348315 42.3719101123596 C 43.1674157303371 36.1831460674157 41.7719101123596 29.5898876404494 39.6078651685393 23.2898876404494 C 35.7247191011236 20.9741573033708 31.0629213483146 20.5696629213483 26.9168539325843 18.8505617977528 C 22.4674157303371 17.0303370786517 17.8157303370787 15.7662921348315 13.2651685393259 14.2292134831461 C 10.1101123595506 12.985393258427 6.53033707865166 11.5089887640449 5.03370786516848 8.23258426966292 Z" transform="matrix(1 0 0 1 -1067 -4679 ) matrix(1 0 0 1 1067 4679 )"/></g></svg>