<svg xmlns="http://www.w3.org/2000/svg" xmlns:xlink="http://www.w3.org/1999/xlink" width="71" height="106" version="1.1"><g><path fill="#06f" fill-rule="nonzero" stroke="none" d="M 22.1375268878719 32.3864869565214 C 21.0612700228833 31.4080190217392 19.7349736842104 31.0122342391305 18.3434496567505 30.8583179347825 C 10.6683249427917 27.3842070652172 6.80902002288326 17.6435038043483 10.3421864988558 9.84874239130477 C 12.1468192219679 6.27568532608711 15.1255503432494 3.54916793478242 18.680459382151 1.82310652173874 C 22.898516590389 0.152015217391636 27.2796430205949 0.536805978261327 31.3998586956521 2.32883152173872 C 34.4981739130435 4.56061793478239 37.7595583524028 7.18818913043469 39.0314982837529 10.9701326086961 C 40.6295766590389 17.0278385869569 39.6511613272311 24.2069347826091 34.4112036613271 28.2197527173912 C 33.856768306636 27.406195108696 33.3132042334096 26.6036315217389 32.7805114416476 25.7900739130437 C 35.1613220823798 22.0081304347823 37.150766590389 17.8963663043478 36.248450228833 13.2568891304345 C 34.7155995423341 9.72780815217357 32.215204805492 6.90234456521739 28.9429490846682 4.93441467391312 C 24.3117831807781 4.2967614130439 18.8978850114416 4.39570760869537 15.7778272311213 8.50747173913078 C 10.4617705949656 13.5097516304349 12.0815915331807 22.887652173913 18.2999645308925 26.3727570652172 C 20.8873295194508 27.3072489130436 21.3330520594966 30.0667483695652 22.1375268878719 32.3864869565214 Z M 26.1654692653672 61.6254047101447 C 27.3073770614692 59.4488105072469 28.9930504747626 57.2395673913043 28.3622823588205 54.6058884057975 C 25.86096051974 42.1884184782612 23.7185239880059 29.6947677536227 21.2824540229885 17.2555318840577 C 20.7060624687656 15.0136398550721 20.5755587206397 12.6738010869567 20.8365662168915 10.3774942028986 C 22.0437258870564 7.92882572463805 24.9365589705147 8.9518250000001 27.1116214392803 8.62533586956488 C 29.6564445277361 12.6629181159424 30.0588310844578 17.5167231884061 31.4508710644677 21.9896242753621 C 32.9734147926038 28.3888112318837 35.104976011994 34.6465195652172 36.2577591204397 41.1436532608695 C 38.9439612693652 41.0457065217388 41.7389165417291 40.947759782609 44.2076124437781 42.2101844202898 C 46.3500489755122 43.4943750000002 47.8508420789605 45.4750757246375 49.2428820589705 47.4993083333329 C 56.6815957021489 47.009574637681 61.6733640679661 53.5502402173915 65.3057183908045 59.133204347826 C 68.0680477261369 59.5902891304349 69.8733495752123 62.060723550725 70.6781226886557 64.5855728260867 C 70.9826314342829 69.2217184782612 70.6998733133433 73.8905130434778 70.8195017491254 78.5375416666666 C 71.3958933033483 85.1979199275365 66.5890052473762 91.6297557971011 69.6014667666166 98.1921873188403 C 70.525868315842 101.53325942029 66.2518705647176 100.064058333333 64.3595662168915 100.651738768116 C 55.0720494752624 102.828332971015 45.4582733633183 103.601023913044 36.2142578710644 105.973511594203 C 35.3224822588705 103.524843115942 34.9092203898051 100.97822789855 34.6482128935531 98.4098467391304 C 33.6585594702649 95.7652847826084 31.2986166916542 93.8716478260867 28.9169232883557 92.5003934782608 C 21.2280774612693 88.4083963768117 16.8562018990503 80.4964764492752 13.4087278860569 72.8348648550727 C 11.190164167916 67.6328047101451 6.62253298350822 63.6387543478259 5.45887456271862 57.9796094202902 C 4.75197926036981 55.0303242753626 3.09893178410789 52.4619431159417 1.23925337331332 50.1221043478263 C -0.620425037481255 48.5984884057971 1.7503930534732 46.7701492753622 2.40291179410292 45.3444800724637 C 4.39309395302348 45.4315438405793 6.44852798600686 45.3335971014494 8.3734582708646 45.9648094202894 C 14.1482491254372 49.969742753623 14.7681419290354 58.6870025362323 21.4455837081459 61.6580536231886 C 23.0116286856571 61.6362876811591 24.5885489755123 61.6254047101447 26.1654692653672 61.6254047101447 Z" transform="matrix(1 0 0 1 -876 -4354 ) matrix(1 0 0 1 876 4354 )"/></g></svg>