<svg xmlns="http://www.w3.org/2000/svg" xmlns:xlink="http://www.w3.org/1999/xlink" width="104" height="91" version="1.1"><g><path fill="#06f" fill-rule="nonzero" stroke="none" d="M 33.8603722826087 8.75416079122601 C 33.4597567934782 6.14308813160983 34.9214619565217 3.36814061887975 37.8448722826087 3.83791519780647 C 39.8154673913044 2.9092910301606 41.8077173913043 1.98066686251468 43.6267282608695 0.757067959263622 C 50.9893913043478 0.86631786133961 58.2762622282609 2.46136643164903 65.6605801630434 2.96391598119857 C 67.0789755434782 4.00179005092048 68.6922649456521 4.79931433607516 69.9374211956522 6.07753819036424 C 73.6728899456521 11.288758519389 78.6210326086956 15.4184048178614 83.0711127717391 19.9741257344301 C 84.6735747282609 20.8699749314532 86.2327269021739 21.8204490795143 87.8460163043478 22.7053732863299 C 88.2682866847826 23.0877479435957 89.1128274456521 23.8634222483353 89.5350978260869 24.2457969056013 C 93.2705665760869 26.0811952604779 95.2952989130434 30.8772659616137 94.5482051630435 34.9413623188406 C 94.3316562499999 37.3557851547199 93.0865 39.7374330199765 93.8769035326087 42.1627808460635 C 95.0029578804347 46.9370015667842 95.7933614130434 51.7767722287505 96.6270747282608 56.6056179005092 C 97.1467921195652 61.7512882882883 96.5296277173913 66.9515836271054 96.8977608695652 72.108179005092 C 98.0996073369565 76.7512998433216 99.2689714673912 81.4708956130042 101.40197826087 85.7862667450059 C 102.214036684783 87.3594653349002 102.982785326087 88.9545139052095 103.69739673913 90.5823374461418 C 93.1081548913043 90.7025123384254 82.5080855978261 90.5277124951038 71.91884375 90.6697373678026 C 70.738652173913 87.9712647865257 70.6628600543478 84.966892479436 69.5584605978261 82.2356449275362 C 67.501245923913 78.5429982373678 64.2854945652173 75.7571257344301 60.8423668478261 73.4301028202115 C 57.47503125 71.0703049353701 55.8509144021739 67.2356333725029 54.053558423913 63.6959365452409 C 51.1084932065218 59.8831149627889 47.0915108695651 57.0316925186055 43.0203913043478 54.5517197414806 C 39.2416127717391 51.3179226400314 36.2532377717391 47.1555013709362 31.9655692934783 44.5335037211124 C 30.893652173913 43.5174796318057 29.0962961956521 42.993080101841 28.7606453804348 41.3871065413239 C 28.9880217391304 38.8852837837838 31.4783342391304 37.7053848413631 33.2648627717391 36.3943860164512 C 22.5565190217391 36.2305111633373 11.8481752717391 36.3288360752056 1.15065896739122 36.3397610654132 C -0.419320652173951 28.583018018018 0.869145380434759 20.5203752448101 0.436047554347795 12.6325323149236 C 12.8551277173913 12.4140325107716 25.2850353260869 12.5779073638856 37.7149429347826 12.5560573834704 C 36.4156494565217 11.2778335291814 35.1380108695652 10.0214596553075 33.8603722826087 8.75416079122601 Z M 41.5153763586956 11.7476081081081 C 40.54090625 11.6602081864473 38.5919660326086 11.4963333333333 37.6283233695652 11.4089334116725 C 39.1225108695652 19.5371261261261 38.0830760869565 27.9602935761849 38.2346603260869 36.2195861731296 C 37.5092214673913 36.3397610654132 36.0475163043478 36.5801108499804 35.3112499999999 36.700285742264 C 36.5780611413043 37.2246852722287 37.8556997282608 37.7600097924011 39.1225108695652 38.2844093223658 C 40.0211888586956 38.8634338033685 40.9306942934782 39.4533832745789 41.8293722826087 40.0433327457893 C 44.092308423913 41.5400564042304 46.4310366847826 42.883830199765 48.7156277173913 44.3477788875833 C 51.7581399456521 47.6471259302781 57.1285529891304 48.5102001566784 60.4850611413043 45.2327030943988 C 63.9173614130435 40.4584823736781 62.7263423913043 33.9034882491187 60.344304347826 28.9326177046612 C 57.9947486413043 25.8954704269486 54.7356875 23.6558474343909 52.7217826086956 20.3128004308657 C 49.6359605978261 16.7294036427732 46.4851739130434 12.4905074422248 41.5153763586956 11.7476081081081 Z" transform="matrix(1 0 0 1 -1072 -4369 ) matrix(1 0 0 1 1072 4369 )"/></g></svg>