<svg xmlns="http://www.w3.org/2000/svg" xmlns:xlink="http://www.w3.org/1999/xlink" width="120" height="72" version="1.1"><g><path fill="#979598" fill-rule="nonzero" stroke="none" d="M 0.882022471910091 63.1595505617978 C 0.447191011235986 44.4011235955056 0.720224719101111 25.6325842696629 0.74044943820229 6.87415730337079 C 0.619101123595556 2.65730337078651 4.91685393258433 -0.0123595505618255 8.77977528089889 0.341573033707903 C 42.4943820224719 0.361797752808968 76.208988764045 0.39213483146068 109.913483146067 0.321348314606723 C 112.370786516854 0.452808988764104 115.030337078652 0.40224719101127 117.224719101124 1.69662921348316 C 119.166292134831 3.13258426966291 118.842696629213 5.86292134831461 119.034831460674 7.98651685393259 C 119.004494382022 25.5516853932585 118.923595505618 43.1168539325843 119.065168539326 60.6719101123596 C 118.873033707865 63.2707865168539 119.408988764045 66.3044943820225 117.770786516854 68.5393258426967 C 115.212359550562 70.7033707865169 111.602247191011 70.6325842696629 108.467415730337 71.1786516853933 C 106.798876404494 69.176404494382 105.019101123595 66.9314606741573 102.369662921348 66.2842696629214 C 99.9426966292134 65.6876404494382 97.4449438202248 65.5460674157303 94.9775280898876 65.2831460674157 C 92.0955056179774 54.523595505618 89.870786516854 43.6022471910113 87.2314606741573 32.7921348314607 C 86.7157303370786 31.0123595505618 86.2101123595506 29.1820224719101 85.158426966292 27.6449438202247 C 82.8629213483146 25.0258426966292 77.6449438202247 26.1483146067416 77.0280898876405 29.6977528089888 C 76.7044943820224 31.9022471910112 77.1595505617977 34.1168539325843 77.452808988764 36.2910112359551 C 79.4044943820224 47.6674157303371 81.1134831460673 59.0943820224719 82.8426966292135 70.5011235955056 C 60.8584269662921 71.0168539325843 38.8337078651685 70.7943820224719 16.8393258426967 70.5921348314607 C 21.3696629213483 67.123595505618 25.7280898876404 63.2505617977528 28.9741573033708 58.5280898876404 C 31.0775280898876 55.9393258426966 29.0449438202246 52.1876404494382 26.4966292134831 50.8022471910112 C 21.9662921348314 49.6191011235955 17.3651685393259 51.8539325842697 13.8561797752809 54.5741573033708 C 9.88202247191009 57.9314606741573 5.98876404494388 61.6022471910113 0.882022471910091 63.1595505617978 Z" transform="matrix(1 0 0 1 -742 -4866 ) matrix(1 0 0 1 742 4866 )"/></g></svg>