<svg xmlns="http://www.w3.org/2000/svg" xmlns:xlink="http://www.w3.org/1999/xlink" width="67" height="98" version="1.1"><g><path fill="#06f" fill-rule="nonzero" stroke="none" d="M 23.8147876458114 52.2259398550723 C 24.6640819194063 51.2791213768114 25.5351529692472 50.3540688405792 26.4171124072108 49.4181333333336 C 28.3770222693529 44.074594565217 26.4497775715799 38.5133963768112 26.6131033934249 33.0283789855075 C 26.6239917815484 23.0486945652174 26.460665959703 13.0581271739129 26.5804382290562 3.07844275362277 C 27.2119647401908 2.14250724637714 27.8326028632024 1.2065717391306 28.4532409862143 0.270636231884055 C 30.2171598621419 0.28151920289838 32.002855514316 0.292402173912706 33.7885511664897 0.303285144927941 C 34.1369795864262 1.0106782608691 34.8447248144222 2.40369855072458 35.1931532343586 3.10020869565233 C 34.8447248144222 7.70370543478293 35.857344909862 12.1657235507246 36.3364339872746 16.693039492754 C 35.8029029692472 22.8201521739129 37.9805805938495 28.7187224637682 37.4688263520677 34.8458351449272 C 39.0258658536585 34.8131862318842 40.604682131495 34.7914202898555 42.194386797455 34.769654347826 C 45.4173496818663 36.2388554347826 47.7039111876989 38.894300362319 48.716531283139 42.3006702898547 C 50.0993565747614 42.7468721014493 51.4712934782608 43.2474887681155 52.8976723223753 43.6392757246376 C 57.7321166489924 46.7844543478259 61.2164008483562 51.5403126811598 62.7081100212091 57.1123938405799 C 64.3958101802757 57.6021275362318 65.593532873807 58.9189670289852 66.8130323435844 60.1160938405801 C 67.7276569459173 67.864769202899 64.766015376458 75.2107746376814 63.3831900848355 82.7091416666663 C 62.4685654825028 85.027214492754 61.4123918345704 87.2908724637682 60.4759904559915 89.5980623188407 C 60.0948968716858 92.2752731884057 60.3344414103922 95.0068989130432 60.2908878579003 97.7167586956521 C 48.6838661187699 97.7276416666664 37.0659559915164 97.3576206521739 25.4589342523858 97.4664503623189 C 25.2956084305408 93.1459108695653 26.4715543478261 88.2812228260873 23.1505959703077 84.8422039855068 C 18.8387942735947 82.9485670289851 16.7482237539767 78.4865489130434 14.1785641569458 74.8516365942032 C 10.3458515376458 69.0401300724634 10.1063069989395 61.8138373188403 7.11200026511142 55.6214268115946 C 3.7039347826086 49.1895909420291 4.52056389183463 41.4300326086959 0.437418345705055 35.2811539855074 C 2.0815649522799 32.7563047101448 4.78188520678668 31.8856670289852 7.52575901378577 33.2460384057968 C 13.4925957051962 36.532695652174 12.6324130434783 44.6078601449271 16.7808889183455 49.3746014492754 C 17.5975180275716 50.2996539855076 18.4685890774125 51.1811746376816 19.3396601272535 52.0953442028986 C 20.8095925238599 52.1171101449272 22.3013016967128 52.1715249999997 23.8147876458114 52.2259398550723 Z M 23.9052360248447 16.1041739130433 C 23.4759456521739 15.6457565217388 22.6278354037266 14.7075999999997 22.2090155279502 14.2385217391302 C 20.5860885093168 16.2001217391307 19.0573959627327 18.2256869565217 17.6124673913042 20.315217391304 C 16.2094208074534 18.9399652173915 14.8168447204968 17.5540521739131 13.4242686335405 16.1787999999997 C 14.9424906832297 13.9933217391308 19.3610403726709 12.0956869565216 16.4711832298135 9.17460869565184 C 18.8061040372671 9.19593043478289 21.1305543478262 9.18526956521782 23.4759456521739 9.17460869565184 C 23.8214720496895 11.4666956521742 23.8947655279502 13.7907652173917 23.9052360248447 16.1041739130433 Z M 13.4175279503104 29.5236521739134 C 10.9255496894409 29.4810086956522 8.45451242236027 29.4703478260872 5.97300465838509 29.4916695652173 C 5.93112267080733 27.1249565217395 5.86829968944107 24.7475826086957 5.73218322981359 22.3915304347829 C 6.13006211180107 22.7966434782611 6.90487888198766 23.6068695652175 7.29228726708072 24.0013217391306 C 8.68486335403736 21.9224521739134 10.4020248447204 20.0994434782606 12.1820093167701 18.3617217391302 C 13.0615310559007 19.7049913043475 15.2289239130434 20.5898434782612 15.2812763975157 22.3169043478265 C 14.171403726708 23.9799999999996 12.9254145962733 25.547147826087 11.8678944099378 27.2422260869562 C 12.2553027950308 27.8179130434783 13.0301195652173 28.9586260869564 13.4175279503104 29.5236521739134 Z" transform="matrix(1 0 0 1 -249 -4238 ) matrix(1 0 0 1 249 4238 )"/></g></svg>