<svg xmlns="http://www.w3.org/2000/svg" xmlns:xlink="http://www.w3.org/1999/xlink" width="52" height="98" version="1.1"><g><path fill="#06f" fill-rule="nonzero" stroke="none" d="M 12.6240067934782 4.48534637681161 C 12.3858029891305 2.61347536231884 14.1181942934782 1.43811449275361 14.9843899456521 0.0124452898550658 C 16.348648097826 0.0342112318840577 17.7129062499999 0.0668601449275457 19.0879918478261 0.110392028985501 C 19.8026032608695 1.04632753623187 20.5280421195652 1.98226304347827 21.2751358695652 2.90731557971014 C 21.3401005434782 7.46728043478262 20.8528654891304 12.114309057971 22.0980217391304 16.576327173913 C 22.8126331521739 22.5946101449275 21.6216141304348 28.7979036231884 23.5272445652174 34.6747079710145 C 25.0106046195652 34.6529420289855 26.493964673913 34.620293115942 27.988152173913 34.598527173913 C 30.2943980978261 36.5574619565217 32.8388478260869 38.5163967391304 33.7266983695652 41.5853945652174 C 34.0623491847826 43.5334463768116 36.206183423913 43.1634253623188 37.6462336956521 43.4137336956522 C 39.9741345108695 45.111477173913 42.182933423913 47.0159971014493 43.9586345108695 49.2905380434783 C 45.2795828804348 51.4127173913043 45.7668179347826 53.9375666666667 46.914527173913 56.1576927536232 C 48.2463029891304 57.9751489130435 50.1086236413043 59.3246373188406 51.4620543478261 61.1312105072464 C 52.2524578804347 63.862836231884 51.8734972826086 66.7359405797101 51.3212975543478 69.4675663043478 C 49.8487649456521 74.5499137681159 48.7335380434782 79.719325 47.0336290760869 84.7254916666666 C 45.8967472826087 86.6626605072464 44.727383152174 88.686893115942 45.1279986413043 91.0376148550724 C 46.0266766304348 93.0400815217391 46.4489470108695 95.2166757246377 47.2718328804348 97.2517913043478 C 36.5634891304347 97.1538445652174 25.8551453804347 97.2517913043478 15.1468016304347 97.1973764492754 C 14.8219782608696 96.4899833333333 14.1831589673913 95.0860800724638 13.8691630434782 94.3786869565217 C 13.793370923913 93.8563043478261 13.6417866847826 92.8115391304348 13.5659945652174 92.2891565217391 C 11.6062269021739 88.752190942029 9.28915353260868 85.4220018115942 6.2791236413043 82.701259057971 C 4.71997146739125 74.0275311594203 2.76020380434773 65.429984057971 0.778781249999952 56.8433199275362 C 0.172444293478236 52.8275036231884 3.86460326086956 50.0523460144927 7.25359374999994 48.8987510869565 C 9.18087907608691 48.0063474637681 12.5806970108696 47.7560391304348 12.5915244565217 44.9591155797102 C 12.6781440217391 31.4642315217391 12.5590421195652 17.9802304347826 12.6240067934782 4.48534637681161 Z" transform="matrix(1 0 0 1 -366 -4114 ) matrix(1 0 0 1 366 4114 )"/></g></svg>