<svg xmlns="http://www.w3.org/2000/svg" xmlns:xlink="http://www.w3.org/1999/xlink" width="123" height="71" version="1.1"><g><path fill="#979598" fill-rule="nonzero" stroke="none" d="M 3.59325842696626 7.78426966292135 C 2.89550561797751 7.78426966292135 1.49999999999989 7.7741573033708 0.812359550561837 7.7741573033708 C 4.16966292134839 5.45842696629214 6.10112359550567 0.432584269662925 10.7730337078652 0.695505617977531 C 44.8415730337078 0.614606741573034 78.9101123595506 0.786516853932589 112.988764044944 0.624719101123596 C 116.133707865169 0.594382022471912 120.026966292135 0.97865168539326 121.715730337079 4.08314606741573 C 122.555056179775 9.94831460674158 121.938202247191 15.9044943820225 121.958426966292 21.8 C 111.208988764045 19.2921348314607 100.277528089888 17.623595505618 89.5887640449438 14.8528089887641 C 84.4820224719101 13.7404494382022 79.1831460674157 11.9808988764045 73.9348314606741 13.123595505618 C 71.0528089887641 14.114606741573 70.8808988764044 17.8662921348315 72.0337078651685 20.2325842696629 C 73.5303370786517 23.5089887640449 77.1101123595506 24.985393258427 80.2651685393259 26.2292134831461 C 84.8157303370787 27.7662921348315 89.4674157303371 29.0303370786517 93.9168539325843 30.8505617977528 C 98.0629213483146 32.5696629213483 102.724719101124 32.9741573033708 106.607865168539 35.2898876404494 C 108.77191011236 41.5898876404494 110.167415730337 48.1831460674157 112.766292134831 54.3719101123596 C 108.741573033708 54.5741573033708 104.575280898876 54.776404494382 100.722471910112 53.3606741573034 C 93.6134831460674 50.8022471910112 86.9089887640449 47.2022471910112 79.6887640449438 44.947191011236 C 75.9573033707865 43.6224719101124 71.5078651685393 44.8561797752809 69.0606741573034 47.9707865168539 C 67.8168539325843 49.4067415730337 66.7752808988764 51.6415730337079 68.2011235955056 53.3303370786517 C 70.2337078651685 55.3224719101124 73.1157303370786 56.0505617977528 75.5932584269664 57.3247191011236 C 80.0932584269663 59.2966292134831 83.6123595505618 62.8561797752809 87.9404494382022 65.1112359550562 C 91.5303370786518 67.0224719101124 95.3528089887641 68.438202247191 99.0741573033707 70.076404494382 C 80.7910112359551 70.9359550561798 62.4674157303371 70.238202247191 44.1741573033707 70.4606741573034 C 36.0438202247191 70.4101123595506 27.9134831460674 70.652808988764 19.7932584269663 70.1977528089888 C 24.161797752809 66.9314606741573 28.4797752808989 63.2808988764045 31.3213483146067 58.5584269662921 C 33.6775280898877 54.7561797752809 29.5112359550561 49.2955056179775 25.2134831460673 50.4280898876405 C 16.5977528089887 51.9550561797753 11.4101123595506 59.7820224719101 3.86629213483138 63.452808988764 C 3.41123595505621 44.9067415730337 4.03820224719095 26.3404494382023 3.59325842696626 7.78426966292135 Z M 66.4617977528089 22.7910112359551 C 64.0449438202247 22.5280898876404 62.8415730337078 24.8943820224719 61.4460674157303 26.4011235955056 C 63.1449438202247 28.3224719101124 64.8741573033708 30.2337078651685 66.623595505618 32.1247191011236 C 68.6865168539326 30.3550561797753 70.6179775280899 28.4438202247191 72.438202247191 26.4213483146067 C 70.9314606741573 24.5404494382023 69.2325842696629 22.1842696629214 66.4617977528089 22.7910112359551 Z M 72.3876404494382 40.2955056179775 C 70.5067415730337 38.2528089887641 68.6359550561798 36.2202247191011 66.7247191011236 34.2179775280899 C 64.6516853932584 36.3213483146067 62.6191011235956 38.4449438202247 60.6775280898877 40.6494382022472 C 62.8314606741574 42.3483146067416 65.1775280898876 44.5831460674157 68.191011235955 43.9056179775281 C 70.2842696629214 43.8348314606742 71.1033707865168 41.6 72.3876404494382 40.2955056179775 Z" transform="matrix(1 0 0 1 -1000 -4667 ) matrix(1 0 0 1 1000 4667 )"/></g></svg>