<svg xmlns="http://www.w3.org/2000/svg" xmlns:xlink="http://www.w3.org/1999/xlink" width="71" height="101" version="1.1"><g><path fill="#06f" fill-rule="nonzero" stroke="none" d="M 18.3656340579707 7.36204710144921 C 16.0779891304346 7.81735507246412 11.7025905797102 5.82954710144895 11.9135869565216 9.63858695652198 C 10.3366666666666 7.99503623188411 8.64869565217373 6.46253623188386 7.2050362318837 4.71903985507197 C 7.96018115942002 2.86449275362338 9.74809782608691 1.66514492753595 11.0251811594203 0.16596014492734 C 14.1234963768115 1.89835144927565 17.8214855072463 0.921105072463433 21.2196376811596 1.19873188405836 C 20.2979166666667 2.0982427536228 19.3761956521737 2.99775362318815 18.4766847826086 3.89726449275349 C 18.4433695652174 4.76346014492719 18.3878442028984 6.49585144927551 18.3656340579707 7.36204710144921 Z M 24.8699942528733 34.2500592885372 C 23.0755677161419 25.1786284584978 21.5747746126938 16.0635849802375 19.6498443278363 7.02486363636399 C 19.9652283858072 5.97816007905112 20.3567396301848 4.96416600790508 20.8243780609696 3.97197826086995 C 21.9662858570714 3.53585177865625 23.119068965517 3.08882213438756 24.2609767616191 2.60908300395295 C 25.218004247876 3.02340316205573 26.1859070464766 3.4377233201576 27.1755604697651 3.84114031620538 C 27.9042063968016 5.81461264822156 28.4805979510245 7.84260079051364 29.1766179410292 9.83787944664073 C 31.2538025987005 18.6694407114628 33.5702441279361 27.4573893280631 36.1911944027986 36.1472094861656 C 38.3445062468766 36.0708873517788 40.4978180909545 36.0599841897238 42.683755872064 36.0381778656129 C 44.9566961519242 37.8808122529645 47.1752598700648 39.8542845849806 48.7086789105447 42.4056245059292 C 50.3399757621189 42.4601403162051 51.9712726136931 42.5255592885378 53.6460707146425 42.5800750988146 C 58.5617118940529 45.0987055335972 62.3354452773613 49.4599703557315 64.7715152423789 54.377296442688 C 69.0781389305348 53.9520731225293 70.5463060969514 59.2837193675887 70.763812343828 62.6527964426878 C 69.7741589205395 68.5950197628463 69.5784032983509 74.5808557312248 69.5566526736629 80.5884980237151 C 67.1967098950524 84.9933754940712 67.5990964517739 89.81257312253 69.3826476761619 94.3373853754938 C 64.1189965017493 95.7438932806326 58.605213143428 95.951053359684 53.3524372813592 97.4011739130437 C 49.1763173413294 98.1207826086957 44.8261924037981 98.2952332015811 40.8023268365816 99.6036126482213 C 38.8012693653175 99.8216758893277 36.8110872063967 99.9634169960473 34.8861569215394 100.475865612648 C 34.7665284857571 98.5569090909094 35.2559175412293 96.4198893280636 33.9400047476261 94.7844150197625 C 33.8530022488753 93.7050019762846 33.7768750624687 92.6255889328058 33.7333738130937 91.546175889328 C 32.2217053973011 90.1069584980232 30.7535382308845 88.5914189723317 28.9264857571216 87.5665217391306 C 22.4121736631685 83.9030592885374 17.4747818590706 77.8409011857711 14.4296944027985 71.0809407114621 C 12.0044997501248 65.7929071146245 9.06816541729131 60.7883557312252 5.77294577711154 56.0127707509882 C 4.95729735132409 51.8804723320154 3.09761894052963 48.0752687747035 0.694174912543758 44.6516758893276 C -0.719615692153866 43.2778774703556 0.62892303848048 41.7187252964432 1.24881584207901 40.3340237154152 C 3.2281226886555 40.3667332015812 5.22918015991991 40.3885395256921 7.23023763118408 40.3776363636362 C 12.6570184907546 44.0738083003953 14.0381831584209 51.0845415019767 18.8015699650177 55.3912905138341 C 20.6177471264368 55.9146422924905 22.3795477261367 56.9940553359684 24.3697298850575 56.6778636363633 C 25.3811339330337 55.8383201581028 26.3164107946027 54.8897450592885 27.2951889055473 53.9847826086952 C 28.0238348325836 47.2684347826089 25.8487723638179 40.8137628458499 24.8699942528733 34.2500592885372 Z" transform="matrix(1 0 0 1 -675 -4235 ) matrix(1 0 0 1 675 4235 )"/></g></svg>