<svg xmlns="http://www.w3.org/2000/svg" xmlns:xlink="http://www.w3.org/1999/xlink" width="66" height="104" version="1.1"><g><path fill="#06f" fill-rule="nonzero" stroke="none" d="M 36.9321841432227 6.55203478260864 C 35.6042787723786 5.32603478260899 34.3202710997441 4.07871304347827 33.0252890025574 2.86337391304369 C 31.0389181585676 2.84205217391263 29.085470588235 2.84205217391263 27.1320230179026 2.83139130434756 C 25.8150920716112 4.3132521739135 24.5530332480819 5.82709565217374 23.2470767263428 7.30895652173876 C 23.5324117647058 4.57977391304303 25.3212429667519 2.51156521739176 27.2637161125319 0.699217391304046 C 29.1183938618924 0.7205391304351 30.9950204603581 0.731200000000172 32.8826214833757 0.7205391304351 C 34.4629386189258 2.50090434782578 36.9431585677748 3.91880000000037 36.9321841432227 6.55203478260864 Z M 18.3025879598663 56.2390786231881 C 19.8238120401336 55.5643344202899 21.3667678929764 54.8678242753622 22.9314555183946 54.225728985507 C 24.4635454849495 54.051601449275 25.6261953177257 52.8871235507249 25.4306093645487 51.2437949275363 C 25.506670568562 37.5856663043478 25.4088775919734 23.9275376811593 25.4632070234111 10.2694090579707 C 26.2672826086957 8.974335507246 27.0604923076924 7.65749601449261 27.9188973244147 6.37330543478311 C 29.1250107023413 6.39507137681176 30.341989966555 6.41683731884041 31.5915668896323 6.44948623188429 C 32.4173742474916 7.35277282608695 33.275779264214 8.26694239130484 34.1450501672241 9.18111195652182 C 33.9060006688962 13.7519597826085 34.2537090301003 18.2901586956523 35.1447117056857 22.7739427536235 C 35.2425046822743 28.8466405797099 34.9925892976587 34.9628702898553 36.5355451505015 40.9158554347823 C 41.8489635451501 40.1213985507247 45.9454026755852 44.7248952898553 47.3796996655519 49.3936898550728 C 48.651008361204 49.6222322463764 49.9331829431437 49.8725405797104 51.2262234113712 50.1881467391304 C 54.2469397993311 52.6912300724634 57.6914257525082 55.2813771739129 58.604160200669 59.3407253623191 C 59.3756381270905 64.1509985507246 65.1454237458192 65.892273913043 65.4931321070233 70.9093235507244 C 64.3739458193977 76.992904347826 62.2659638795988 82.8261768115945 61.0815822742475 88.8988746376808 C 59.7668100334447 91.9569894927536 56.626568896321 95.2109978260869 58.7997461538462 98.6500166666665 C 59.1039909698995 100.380409057971 59.5494923076922 102.099918478261 60.2883725752508 103.710598188406 C 49.4985474916386 103.667066304348 38.7087224080267 103.688832246376 27.9188973244147 103.699715217392 C 27.3973347826086 101.969322826087 26.8214428093645 100.260696376812 26.3216120401337 98.5303039855071 C 24.4418137123746 94.9715724637681 22.0295869565216 91.7502130434787 19.117529431438 88.9968213768116 C 17.6832324414713 79.9639554347823 15.3144692307692 71.0834510869563 13.4890003344481 62.1158829710148 C 13.9996969899664 59.4386721014489 15.9881541806019 57.4906202898546 18.3025879598663 56.2390786231881 Z M 5.33624016563158 25.183172877847 C 3.52389233954432 23.8562753623191 1.81942236024815 22.2812587991721 0.665129399585794 20.3610331262944 C 0.384646997929622 18.3437173913044 0.492524844720492 16.3264016563144 0.492524844720492 14.3090859213253 C 1.495788819876 12.6585548654248 2.65008178053836 11.0619627329197 4.24667391304342 9.91845755693612 C 8.83148240165633 8.27871428571416 14.851066252588 9.15252484472057 16.684989648033 14.2767225672878 C 16.684989648033 16.3695527950313 16.684989648033 18.4731708074532 16.7173530020702 20.5875766045547 C 15.1423364389232 22.2488954451346 13.5241687370599 23.8670631469977 11.9060010351966 25.4852308488616 C 9.70529296066252 25.3989285714288 7.47222153209123 25.647047619048 5.33624016563158 25.183172877847 Z" transform="matrix(1 0 0 1 -976 -4480 ) matrix(1 0 0 1 976 4480 )"/></g></svg>