<svg xmlns="http://www.w3.org/2000/svg" xmlns:xlink="http://www.w3.org/1999/xlink" width="97" height="80" version="1.1"><g><path fill="#06f" fill-rule="nonzero" stroke="none" d="M 61.2210257548308 12.051479397092 C 62.3395101449273 10.0316168089903 64.5639116847821 11.2814067853782 65.4310512681161 12.8468002911568 C 68.3466510265698 17.6439739378981 70.9355025362319 22.64313384345 73.9013712560385 27.4150592078398 C 72.5315420591788 20.8378816553338 69.6787785024157 14.715173185151 67.6931545289853 8.32735775027962 C 66.8511494263285 6.30749516217788 68.0199027777779 4.40124984465715 68.8116389190822 2.60862179771698 C 69.5405388586958 3.07571502121518 70.9983387379224 3.99727732703698 71.7272386775362 4.46437055053518 C 74.768510839372 11.2814067853782 76.8295382548306 18.4897913966659 79.9964828200482 25.2437069256305 C 79.9336466183576 18.3383017025584 77.8851864432364 11.5212654677153 76.301714160628 4.8304706446288 C 76.9803451388888 4.16139116232006 78.3376070954106 2.81060805652706 79.0036708333334 2.14152857421831 C 80.1598569444445 3.60592895059187 81.3663120169081 5.08295346814141 81.6804930253624 7.00182292683811 C 82.9246498188407 12.1146001029701 84.5583910628014 17.1516324320484 85.3626944444443 22.3654027375859 C 86.1418633454106 23.2364684787047 86.9587339673916 24.094910078648 87.8007390700484 24.9407275374154 C 86.2675357487922 19.5375951142438 86.4183426328502 13.8819798675592 85.1113496376811 8.42835087968466 C 85.7271444142509 7.80976796207844 86.9713012077292 6.57260212686646 87.5870959842994 5.95401920926023 C 88.1903235205316 6.58522626804197 89.3967785929952 7.82239210325442 89.9874388888888 8.45359916203616 C 91.0430870772947 16.4573046673887 92.7773662439614 24.4105136080387 94.9640660628018 32.1869845722301 C 96.8994210748792 37.9309688071442 97.1256314009661 44.3187842420151 95.4541884359904 50.1511374651583 C 95.9066090881641 51.7796516768154 96.3213280193234 53.4081658884725 96.7611814311593 55.0493042413051 C 91.6588818538649 56.6651943117867 86.5063133152171 58.2558360999164 81.6427913043477 60.5029332291792 C 80.9138913647344 57.6246290411351 79.7074362922708 54.8094455589685 77.2065554649761 53.0799382179064 C 75.7487555857488 52.5875967120567 74.3286574275359 52.044758641504 72.9085592693237 51.5271688533033 C 66.2353546497583 45.0636085713779 60.6429326992753 37.6153652777531 55.6034693236713 29.8262701723862 C 54.4095814915459 26.6702348784775 58.9714897342994 28.3492456548371 60.6052309782606 27.7432868784064 C 63.2317842089371 30.6215910664515 66.0217115640097 33.361029701564 68.8242061594201 36.087844195501 C 70.2066025966183 27.0868315372732 61.3969671195652 20.7368885259288 61.2210257548308 12.051479397092 Z M 52.6884217344452 20.3070195627156 C 52.6382765882683 17.8779606744382 52.6257403017241 15.4489017861612 52.6006677286355 13.0321108720666 C 50.2939910044975 10.5539800870565 47.8995602745503 7.75688197328271 44.0258477323839 8.39481663080986 C 44.1136017381931 9.73202581678114 44.2389646036356 11.069235002752 44.3768637556222 12.4064441887228 C 42.5465659201652 10.5049081903237 40.5282237865444 8.77512383048995 38.8483613896174 6.75090809025876 C 39.4250305706521 4.10102566668327 42.5089570605324 2.65340471306364 44.1762831709149 0.604653024465848 C 44.1762831709149 1.34073147545897 44.1762831709149 2.8374243258118 44.1762831709149 3.58577075098822 C 48.940072057721 4.9720518336918 54.7945178738753 6.68956821934271 56.1609731071962 12.0752088857759 C 59.3577261759743 17.632601190774 55.7848845108693 24.2695752238953 51.1213859164168 27.876359633762 C 49.9680475543478 28.3548106269076 48.8272454788228 28.845529594236 47.7240522629309 29.3730524841148 C 44.4270089017994 29.5693400710463 41.0422115348576 29.6306799419624 38.0460390507872 28.1339870916095 C 34.3478345202397 25.5699804873167 31.3391257496249 21.766908490519 31.113472591829 17.1909541201783 C 32.0286215095578 17.1541501976284 33.8338467719264 17.0928103267123 34.7364594031108 17.0682743783457 C 35.9524791979009 22.3189673287635 41.2804009791981 27.2997648471504 47.0094839299099 25.2142092360032 C 49.103043782796 23.8279281532996 50.970950477886 22.1349477160153 52.6884217344452 20.3070195627156 Z M 6.03526853864722 38.8622012562134 C 7.06578224637673 34.6381235422073 7.34226153381656 30.1655706685535 9.31531826690818 26.2272393881418 C 9.99394924516922 26.0905780503361 11.3386439613525 25.8172553747237 12.0172749396138 25.6805940369175 C 12.8467128019324 31.9173205440681 10.8610888285024 37.8931481335885 10.7856853864731 44.0429083348624 C 15.5989384359903 37.2471127185049 13.4876420591787 27.3329538485729 19.7461277475847 21.4068212909819 C 22.8502361111111 28.8734998383872 17.5594279287438 36.4271446916688 17.9867141002416 44.0801796088092 C 21.4427051932367 37.545282910082 23.5288670893719 30.3146557643422 26.3564961654591 23.4691651160558 C 27.9274012077293 23.4815888740379 29.5108734903377 23.5064363900026 31.106913013285 23.5188601479852 C 30.4785509963767 31.2837088869671 25.6778651871978 38.00496195543 24.4839773550725 45.6455731145878 C 28.027939130435 41.0487826611109 30.277475150966 35.6320241807969 33.5700921195652 30.8488773575839 C 34.5629041062803 30.8613011155665 36.54852807971 30.8985723895133 37.5413400664248 30.923419905478 C 36.5736625603866 35.8680755824619 33.5700921195652 40.0673057805034 31.7352750301933 44.7013675079276 C 30.4282820350242 47.981239615274 27.8394305253623 51.3853493024436 29.3600666062802 55.0379341492603 C 32.2379646437197 52.4040974569975 35.015324758454 49.6708707008758 37.7047141908213 46.8382538808952 C 39.1876485507246 46.8631013968604 40.6957173913042 46.8755251548429 42.203786231884 46.8879489128255 C 42.1912189915459 47.6085268758028 42.1535172705317 49.0496828017574 42.1409500301934 49.7702607647356 C 36.9506797705314 56.6778702029335 32.1625612016904 64.0078874125322 25.6652979468595 69.8470536642468 C 24.5216790760867 71.0645819465194 22.9005050724636 71.5242609918669 21.3044655495168 71.648498571691 C 18.5899416364733 73.3008583833458 16.8053935084539 76.021661381485 16.5289142210148 79.1772959090073 C 13.0854903683575 78.0343101746294 9.70490271739132 76.77951061841 6.34944954710149 75.450168514296 C 4.48949797705319 74.9035231630722 2.64211364734272 74.3071827799181 0.807296557970789 73.7729611866759 C 3.40871530797071 69.9091724541589 1.27228445048281 65.4117720645408 0.731893115942142 61.3119319303582 C 2.1394240338165 53.7458633190941 4.89164966787417 46.4903886573891 6.03526853864722 38.8622012562134 Z" transform="matrix(1 0 0 1 -124 -4008 ) matrix(1 0 0 1 124 4008 )"/></g></svg>