<svg xmlns="http://www.w3.org/2000/svg" xmlns:xlink="http://www.w3.org/1999/xlink" width="86" height="102" version="1.1"><g><path fill="#06f" fill-rule="nonzero" stroke="none" d="M 0.547369565217423 5.7515999999996 C 2.08653260869562 4.04586086956533 3.6885186335403 2.4040869565215 5.34285714285716 0.794295652173787 C 5.34285714285716 2.54267826086925 5.34285714285716 4.28039999999964 5.34285714285716 6.03944347826109 C 7.07048913043468 4.28039999999964 8.80859161490685 2.53201739130418 10.578105590062 0.815617391303931 C 10.578105590062 4.29106086956563 10.578105590062 7.76650434782641 10.578105590062 11.2526086956523 C 8.84000310558997 9.54686956521709 7.13331211180116 7.8091478260867 5.35332763975157 6.16737391304378 C 5.34285714285716 7.19081739130434 5.33238664596274 9.24836521739144 5.32191614906833 10.2824695652171 C 3.73040062111795 8.75796521739176 2.1493555900621 7.24412173913061 0.547369565217423 5.7515999999996 Z M 73.2244223602485 10.2559114906835 C 73.1558881987577 6.99958695652185 73.0302422360248 3.75373291925462 73.0188198757763 0.507878881987381 C 74.8121304347826 2.09939440993821 76.6054409937888 3.70138043478255 78.375906832298 5.31383695652221 C 76.7196645962732 7.01005745341627 74.9720434782608 8.63298447204943 73.2244223602485 10.2559114906835 Z M 32.2206124763704 8.90927329192527 C 26.848461247637 8.78362732919231 21.4763100189036 8.8521614906831 16.1151672967862 8.8521614906831 C 16.1041587901701 6.95604968944099 16.0931502835538 5.05993788819887 16.1041587901701 3.18667080745308 C 22.4010245746692 3.17524844720538 28.6978903591682 3.1980931677017 34.9947561436672 3.16382608695676 C 33.7397863894139 4.88860248447236 32.7049867674857 6.78471428571447 32.2206124763704 8.90927329192527 Z M 42.4757132107023 3.23236024844755 C 49.0736638795986 3.1181366459623 55.671614548495 3.20951552795032 62.2695652173912 3.17524844720538 C 62.2588018394649 5.05993788819887 62.2588018394649 6.95604968944099 62.2695652173912 8.84073913043449 C 56.5542115384616 8.84073913043449 50.8388578595317 8.84073913043449 45.123504180602 8.84073913043449 C 45.1019774247492 8.10970807453396 45.0481605351171 6.63622360248428 45.0266337792642 5.90519254658375 C 44.1655635451505 5.01424844720532 43.3152566889631 4.12330434782598 42.4757132107023 3.23236024844755 Z M 35.6818537549407 57.2971934782608 C 37.2410059288538 57.2971934782608 38.8001581027668 57.3189594202895 40.3702134387352 57.373374275362 C 41.6567865612648 55.1750141304347 43.3467766798419 52.8895902173917 42.7034901185771 50.1797304347829 C 40.3375039525691 37.9799199275367 38.1350652173912 25.7365775362323 35.7799822134386 13.5258840579709 C 35.1257924901186 11.098981521739 34.8532134387351 8.56324927536207 35.1475988142292 6.06016594202902 C 36.4014624505928 3.64414637681148 39.2580909090909 4.60184782608667 41.4496264822135 4.30800760869533 C 44.1099980237154 8.35647282608716 44.4370928853755 13.2973416666664 45.8763102766798 17.8137746376815 C 47.3700434782609 24.1694297101449 49.61609486166 30.3618402173915 50.5973794466403 36.826325 C 52.7234960474308 36.8154420289857 54.8605158102766 36.8045590579713 57.0084387351778 36.8045590579713 C 59.8650671936758 38.2193452898555 62.2092470355731 40.3088757246378 63.6157549407114 43.2146289855073 C 67.6499249011857 42.6595974637685 71.2152588932805 44.6838300724639 74.246337944664 47.1324985507244 C 76.9067094861661 49.7117626811596 78.0406383399209 53.7493449275362 81.4751343873518 55.5123862318842 C 83.4158972332016 56.7421619565221 85.4656916996047 58.6466818840581 85.2258221343874 61.1715311594198 C 85.2367252964426 66.678314492754 85.3675632411067 72.1850978260873 85.1495 77.6809981884053 C 83.9610553359684 83.4054409420287 81.7259071146244 89.3475431159422 84.4298913043478 95.0284539855074 C 81.7150039525691 96.279995652174 78.6185059288537 95.8120278985507 75.8818122529643 96.9438568840578 C 70.1031363636363 97.5750692028987 64.444395256917 98.9898554347828 58.6548162055336 99.5884188405798 C 56.1034762845849 100.861726449275 53.0614940711463 100.154333333334 50.5210573122529 101.50382173913 C 49.746932806324 98.9680894927533 49.0927430830039 96.388825362319 49.1690652173913 93.7224974637684 C 46.9993359683795 89.4237239130434 42.3218794466403 87.7042144927536 38.7892549407114 84.8093442028985 C 33.5339308300395 80.2058474637679 30.1757569169961 74.0352028985508 27.3409347826087 67.7557286231886 C 25.2584308300395 62.7386789855072 20.7772312252964 58.9622880434781 19.7414308300395 53.5099195652174 C 18.880081027668 49.9076561594202 16.4377727272727 47.0345518115937 14.5624288537549 43.9546710144932 C 15.3910691699605 42.9425547101446 16.2415158102766 41.9413213768112 17.0919624505927 40.9400880434787 C 20.0140098814229 40.9183221014491 23.3612806324111 41.2992260869569 25.2584308300395 43.8240753623186 C 28.6166047430829 48.384040217391 30.4374328063241 54.4240891304344 35.6818537549407 57.2971934782608 Z M 67.6617329192546 1.03907023411375 C 69.2380186335403 2.71918227424794 71.5567577639752 3.9257056856186 72.4248571428571 6.15833779264176 C 71.8880062111801 8.5826605351167 69.2722857142857 9.66514882943193 67.7302670807453 11.4016404682279 C 67.6274658385092 7.93993311036775 67.6274658385092 4.4895016722412 67.6617329192546 1.03907023411375 Z" transform="matrix(1 0 0 1 -124 -4358 ) matrix(1 0 0 1 124 4358 )"/></g></svg>