<svg xmlns="http://www.w3.org/2000/svg" xmlns:xlink="http://www.w3.org/1999/xlink" width="85" height="118" version="1.1"><g><path fill="#000" fill-rule="nonzero" stroke="none" d="M 25.3314606741573 12.5741573033708 C 24.8056179775281 9.38876404494386 23.9865168539326 6.0314606741573 25.038202247191 2.87640449438209 C 27.1719101123596 1.29887640449442 29.9629213483146 1.33932584269667 32.4808988764045 0.914606741573039 C 36.5561797752808 10.6932584269664 38.2550561797754 21.2404494382023 41.1775280898877 31.3932584269662 C 41.9865168539326 34.4067415730337 42.8056179775281 37.4303370786516 43.7865168539325 40.4033707865169 C 46.3348314606742 40.1404494382023 48.9842696629214 40.0393258426967 51.4314606741573 41 C 54.505617977528 42.0820224719101 56.2044943820225 45.0550561797752 58.5202247191011 47.1483146067416 C 62.0089887640449 48.3112359550562 65.8719101123595 48.6651685393258 68.8853932584269 50.9707865168539 C 72.9101123595506 53.3775280898876 74.6999999999999 57.9280898876405 77.8550561797753 61.1943820224719 C 80.2213483146068 63.1460674157304 83.3966292134832 64.6325842696629 84.2561797752809 67.8584269662922 C 85.7730337078652 71.1449438202247 84.438202247191 74.6943820224719 84.2865168539325 78.1022471910113 C 83.8617977528089 83.552808988764 84.852808988764 89.1348314606742 83.2955056179775 94.4741573033707 C 82.6887640449438 97.4674157303371 81.0606741573033 100.480898876404 81.9404494382022 103.605617977528 C 82.3348314606741 105.830337078652 82.8808988764046 108.024719101124 83.3157303370787 110.259550561798 C 69.9168539325842 113.080898876405 56.3359550561798 114.951685393258 42.876404494382 117.530337078652 C 42.0067415730337 113.960674157303 41.6629213483146 110.249438202247 40.3179775280898 106.821348314607 C 37.9213483146067 103.049438202247 33.461797752809 101.532584269663 30.2157303370786 98.6808988764045 C 25.0685393258426 94.3022471910112 20.5584269662921 88.9629213483147 18.0808988764045 82.6123595505619 C 14.8449438202247 74.3910112359551 8.22134831460676 67.8887640449439 6.06741573033707 59.2123595505618 C 4.97528089887635 55.5011235955056 2.48764044943823 52.4977528089887 0.111235955056145 49.5550561797753 C 0.889887640449388 48.3112359550562 1.57752808988755 46.9865168539326 2.60898876404497 45.9449438202248 C 6.5629213483146 44.5696629213484 11.2348314606742 46.1370786516854 13.5707865168539 49.6157303370787 C 16.8876404494382 54.338202247191 18.9910112359551 60.1426966292136 23.8550561797753 63.6011235955057 C 26.1404494382023 65.2696629213483 30.185393258427 66.038202247191 31.8842696629213 63.1966292134832 C 33.8157303370787 60.9719101123595 33.9269662921348 57.8775280898876 33.4011235955056 55.1269662921349 C 31.8842696629213 46.885393258427 30.3168539325843 38.6539325842697 28.7393258426965 30.4224719101124 C 27.7179775280898 24.4561797752809 26.5550561797753 18.5101123595505 25.3314606741573 12.5741573033708 Z" transform="matrix(1 0 0 1 -792 -5129 ) matrix(1 0 0 1 792 5129 )"/></g></svg>