<?xml version="1.0" encoding="utf-8"?>
<svg version="1.1" xmlns:xlink="http://www.w3.org/1999/xlink" width="120px" height="71px" xmlns="http://www.w3.org/2000/svg">
  <g transform="matrix(1 0 0 1 -1029 -4853 )">
    <path d="M 0.860674157303379 7.90898876404498  C 0.577528089887664 5.24943820224718  1.63932584269662 2.32696629213484  4.37977528089891 1.44719101123593  C 8.505617977528 0.425842696629218  12.823595505618 0.992134831460646  17.0505617977528 0.901123595505624  C 45.6988764044944 0.931460674157279  74.347191011236 0.941573033707868  103.005617977528 0.901123595505624  C 107.17191011236 0.992134831460646  111.469662921348 0.395505617977562  115.534831460674 1.52808988764048  C 119.043820224719 2.67078651685398  119.23595505618 6.8977528089888  119.24606741573 9.98202247191011  C 119.144943820225 27.1932584269663  119.144943820225 44.414606741573  119.24606741573 61.6359550561798  C 119.205617977528 64.5584269662921  119.06404494382 68.1078651685393  116.394382022472 69.938202247191  C 114.119101123596 70.9696629213483  111.51011235955 70.6561797752809  109.093258426966 70.7674157303371  C 100.062921348315 70.6157303370787  91.0325842696628 70.7674157303371  82.0022471910113 70.6865168539326  C 83.0134831460674 62.2730337078652  83.7011235955056 53.808988764045  84.9550561797753 45.4157303370787  C 85.1775280898877 42.7359550561798  85.9662921348314 39.8842696629213  84.9449438202247 37.285393258427  C 83.6404494382023 34.2314606741573  78.9584269662921 34.2213483146068  76.9359550561798 36.4764044943821  C 75.4292134831461 38.8730337078651  75.2067415730337 41.7955056179775  74.6707865168539 44.5056179775281  C 73.3460674157303 53.3640449438203  71.5359550561798 62.1415730337079  70.0595505617977 70.9696629213483  C 68.5123595505618 70.8887640449439  66.9752808988763 70.8078651685394  65.4483146067415 70.7269662921348  C 64.4168539325843 63.4359550561798  63.152808988764 56.1853932584269  62.2123595505617 48.8741573033708  C 61.6662921348315 45.8910112359551  61.4842696629214 42.6752808988765  59.7955056179775 40.0662921348314  C 57.8842696629214 37.0224719101124  51.9887640449438 37.7303370786516  51.614606741573 41.5932584269663  C 50.8561797752808 46.6191011235955  51.6752808988764 51.6955056179775  52.1101123595505 56.7112359550562  C 52.5348314606741 61.3224719101124  52.3629213483146 65.9640449438202  52.6966292134831 70.5955056179775  C 41.0573033707865 70.6662921348315  29.3876404494382 71.0404494382022  17.7584269662922 70.3224719101124  C 21.6314606741572 67.5213483146068  24.9786516853933 64.0224719101124  27.8606741573034 60.2101123595506  C 29.7719101123596 57.9550561797753  29.9741573033707 54.0213483146068  27.4258426966292 52.1404494382022  C 25.6966292134831 50.5426966292135  23.1786516853932 50.5730337078652  21.0752808988764 51.3011235955056  C 13.1876404494382 53.4348314606742  8.48539325842694 60.9280898876405  0.941573033707868 63.7696629213483  C 0.74943820224712 45.152808988764  0.941573033707868 26.5258426966292  0.860674157303379 7.90898876404498  Z M 67.6022471910112 23.7752808988764  C 65.8932584269662 25.4033707865169  64.214606741573 27.061797752809  62.576404494382 28.7505617977528  C 64.0123595505619 30.0955056179775  65.0842696629213 32.7651685393259  67.4606741573034 32.3202247191011  C 69.4831460674158 31.7235955056179  70.7977528089888 29.8022471910112  72.4258426966292 28.5280898876405  C 70.8280898876404 26.9303370786517  69.2101123595506 25.3426966292135  67.6022471910112 23.7752808988764  Z M 66.6921348314607 34.2213483146068  C 64.7202247191011 34.3528089887641  63.9314606741573 36.6078651685394  62.7078651685393 37.8516853932584  C 64.2044943820224 39.4797752808989  65.7820224719102 41.0370786516854  67.4 42.5539325842697  C 68.7853932584269 40.9561797752809  70.1707865168539 39.3584269662921  71.576404494382 37.7606741573034  C 70.1606741573033 36.3752808988764  69.0685393258427 33.7662921348315  66.6921348314607 34.2213483146068  Z " fill-rule="nonzero" fill="#979598" stroke="none" transform="matrix(1 0 0 1 1029 4853 )" />
  </g>
</svg>