<svg xmlns="http://www.w3.org/2000/svg" xmlns:xlink="http://www.w3.org/1999/xlink" width="54" height="102" version="1.1"><g><path fill="#06f" fill-rule="nonzero" stroke="none" d="M 19.5320276679842 3.58268347826086 C 19.7609940711462 3.0498532173913 20.2298300395257 1.98419269565218 20.469699604743 1.4513624347826 C 21.5164031620552 1.15776208695652 22.574009881423 0.853287652173918 23.6316166007905 0.527065043478274 C 24.6238043478261 0.918532173913036 25.6159920948616 1.30999930434783 26.6190830039525 1.70146643478262 C 27.1097252964427 2.96286052173912 27.9601719367588 4.13726191304349 28.0146877470355 5.54001913043479 C 28.2436541501976 18.4366862608696 27.7966245059289 31.3551015652174 28.2218478260869 44.2626427826087 C 30.5224150197628 40.1087415652174 30.0208695652173 35.3023951304348 31.1220889328062 30.8331453913044 C 31.6890533596838 24.0042187826087 33.3572371541502 17.3057812173913 33.5643972332016 10.4659805217391 C 34.4475533596838 9.51993495652175 35.3198063241106 8.57388939130436 36.2029624505929 7.61696973913044 C 37.9801778656126 7.71483652173913 40.1390039525692 7.37773982608695 41.0548695652172 9.34594956521738 C 41.2620296442688 12.8691537391304 41.3928675889329 16.4793506086957 40.4879051383398 19.9373102608696 C 39.6047490118577 23.4496403478261 40.4660988142291 27.1250817391305 39.6592648221343 30.6482859130435 C 38.3617885375495 36.0418330434782 39.1141067193676 41.6311137391304 39.0377845849803 47.1225276521739 C 39.6919743083004 46.3830897391304 40.3570671936758 45.6545259130435 41.0221600790513 44.915088 C 41.2620296442688 39.891259826087 43.0283418972332 35.1066615652174 43.6825316205533 30.137203826087 C 44.7074288537549 26.1029175652174 44.7183320158101 21.5140528695652 47.6403794466403 18.2518267826087 C 50.1044940711462 18.0560932173913 51.7835810276679 19.6654580869565 53.3536363636364 21.3074452173913 C 51.4019703557311 30.1154556521739 50.616942687747 39.140947826087 48.8397272727271 47.9815805217391 C 48.5998577075098 56.3763756521739 48.9487588932806 64.7820448695652 48.7306956521739 73.17684 C 48.0983122529644 77.8418233043478 46.7245138339921 82.3763175652174 45.296199604743 86.8564413913043 C 44.2713023715414 88.7811547826087 43.2027924901184 90.6949940869565 42.3523458498023 92.6958260869565 C 41.7199624505928 95.6970740869565 43.1264703557313 98.5787071304348 43.5844031620553 101.492962434783 C 34.1313616600791 101.525584695652 24.689223320158 101.503836521739 15.2361818181818 101.503836521739 C 14.0259308300396 96.8714754782609 13.3063221343873 91.6519137391304 9.69737549407114 88.1722059130435 C 8.6615750988143 86.9978045217391 7.33138932806321 86.0191366956522 6.66629644268767 84.5946313043478 C 4.75824308300389 75.9388580869565 3.31902569169949 67.1852180869565 1.07297430830033 58.5946893913043 C 0.0807865612647447 54.940996173913 1.52000395256903 50.0041606956522 5.58688339920946 49.0146187826087 C 6.61178063241107 48.4600403478261 7.61487154150188 47.8510914782609 8.59615612648224 47.2095203478261 C 8.55254347826087 41.9790845217391 6.91706916996043 36.9226340869565 7.27687351778661 31.6704500869565 C 5.81584980237153 25.4287241739131 6.53545849802367 18.9586424347826 5.04172529644268 12.6951683478261 C 5.92488142292495 9.5525572173913 10.8858201581027 8.33465947826087 12.4340691699604 11.4881446956522 C 14.5928952569169 21.0573412173913 15.7704367588932 30.8222713043478 17.4277173913043 40.4893346086957 C 17.8311343873518 41.2396466086956 18.2781640316205 41.9790845217391 18.779709486166 42.685900173913 C 20.1644110671937 29.7239885217391 18.7251936758894 16.5772173913043 19.5320276679842 3.58268347826086 Z" transform="matrix(1 0 0 1 -683 -4110 ) matrix(1 0 0 1 683 4110 )"/></g></svg>