<svg xmlns="http://www.w3.org/2000/svg" xmlns:xlink="http://www.w3.org/1999/xlink" width="28" height="31" version="1.1"><g><path fill="#fff" fill-rule="nonzero" stroke="none" d="M 12.7337078651685 3.69438202247193 C 13.1685393258426 2.63258426966286 13.6134831460674 1.57078651685401 14.0786516853932 0.519101123595533 C 16.1011235955056 2.42022471910116 18.052808988764 4.41235955056175 19.9134831460675 6.50561797752812 C 17.9921348314606 8.6595505617978 15.9595505617978 10.7123595505618 13.8662921348315 12.714606741573 C 13.6033707865168 11.2078651685393 13.3505617977528 9.72134831460676 13.1078651685393 8.24494382022476 C 9.57865168539331 8.91235955056186 6.32247191011231 11.0460674157304 5.31123595505619 14.6561797752809 C 2.38876404494386 21.2898876404495 10.3168539325843 28.9752808988765 16.8696629213482 26.0831460674158 C 20.4089887640449 24.7988764044944 21.9359550561799 21.1280898876405 23.2202247191011 17.9123595505617 C 24.7370786516855 17.7202247191012 26.2539325842697 17.5988764044944 27.8011235955056 17.5584269662921 C 26.7696629213483 21.2292134831461 25.7685393258427 25.2741573033708 22.6842696629213 27.8224719101124 C 17.0011235955056 32.9292134831461 7.04044943820224 31.6146067415731 2.75280898876406 25.3449438202248 C -0.54382022471907 20.632584269663 -0.62471910112356 13.7966292134832 3.14719101123592 9.32696629213478 C 5.32134831460667 6.05056179775283 9.17415730337086 4.81685393258431 12.7337078651685 3.69438202247193 Z" transform="matrix(1 0 0 1 -1073 -5129 ) matrix(1 0 0 1 1073 5129 )"/></g></svg>