<svg xmlns="http://www.w3.org/2000/svg" xmlns:xlink="http://www.w3.org/1999/xlink" width="70" height="120" version="1.1"><g><path fill="#979598" fill-rule="nonzero" stroke="none" d="M 0.0696629213483248 9.07191011235955 C 0.271910112359549 7.11011235955056 -0.284269662921361 4.67303370786522 1.36404494382022 3.20674157303375 C 3.99325842696629 0.719101123595522 7.90674157303371 1.06292134831466 11.2438202247191 0.951685393258458 C 28.1112359550562 1.14382022471909 44.9786516853933 0.921348314606746 61.8460674157303 1.04269662921348 C 66.2955056179775 0.739325842696644 70.1887640449438 4.63258426966291 69.9056179775281 9.09213483146073 C 69.9865168539326 42.8168539325843 69.814606741573 76.5516853932584 69.9865168539326 110.276404494382 C 69.9056179775281 112.774157303371 69.885393258427 115.555056179775 68.1966292134832 117.587640449438 C 66.5483146067416 119.984269662921 63.3123595505618 119.195505617978 60.8348314606742 119.41797752809 C 43.6033707865168 119.124719101124 26.3719101123595 119.630337078652 9.1505617977528 119.134831460674 C 15.0056179775281 114.644943820225 21.1842696629214 110.225842696629 25.4213483146067 104.067415730337 C 28.0707865168539 100.649438202247 24.4808988764045 95.3 20.3651685393258 95.8561797752809 C 12.0123595505618 96.1595505617977 7.14831460674158 103.915730337079 0.251685393258427 107.465168539326 C -0.0314606741573016 89.1719101123596 0.211235955056168 70.8685393258427 0.170786516853937 52.5752808988764 C 0.0797752808988719 38.0741573033708 0.221348314606743 23.5730337078652 0.0696629213483248 9.07191011235955 Z M 40.9033707865169 43.4943820224719 C 39.0224719101124 41.3606741573034 37.0303370786517 39.338202247191 34.9674157303371 37.3865168539326 C 34.6438202247191 38.5595505617978 34.3202247191011 39.7325842696629 33.9966292134831 40.9157303370786 C 30.2752808988764 42.2 25.9876404494382 43.3325842696629 23.7932584269663 46.9325842696629 C 20.2741573033708 51.8168539325843 20.4460674157303 59.0168539325843 24.6022471910112 63.476404494382 C 29.4966292134832 69.9685393258427 40.4179775280899 69.7662921348315 45.3831460674157 63.476404494382 C 47.4966292134831 60.9988764044944 48.0730337078652 57.7022471910113 48.8112359550562 54.638202247191 C 47.2640449438202 54.6483146067416 45.7168539325843 54.6988764044944 44.1797752808989 54.7797752808989 C 43.3505617977528 58.8449438202247 41.1157303370787 63.2943820224719 36.4640449438202 63.6887640449439 C 29.5370786516854 65.4988764044944 23.2674157303371 57.0044943820225 26.7460674157303 50.9067415730337 C 27.9393258426966 47.7415730337079 31.3370786516854 46.6292134831461 34.1584269662921 45.385393258427 C 34.3910112359551 46.8112359550561 34.6134831460674 48.2471910112359 34.8460674157303 49.6831460674157 C 36.9595505617978 47.7213483146068 39.0022471910112 45.6584269662922 40.9033707865169 43.4943820224719 Z" transform="matrix(1 0 0 1 -248 -4864 ) matrix(1 0 0 1 248 4864 )"/></g></svg>