<svg xmlns="http://www.w3.org/2000/svg" xmlns:xlink="http://www.w3.org/1999/xlink" width="95" height="97" version="1.1"><g><path fill="#000" fill-rule="nonzero" stroke="none" d="M 50.6033707865169 10.685393258427 C 52.6157303370786 8.01573033707865 53.9505617977528 4.60786516853932 57.0044943820225 2.90898876404495 C 62.1921348314607 -0.215730337078654 68.4820224719101 1.04831460674157 74.2157303370787 0.916853932584274 C 74.185393258427 18.0775280898877 74.1752808988764 35.238202247191 74.1651685393258 52.3988764044944 C 78.4224719101124 49.0921348314607 82.9224719101124 45.4921348314607 88.4134831460674 44.7033707865169 C 92.4685393258427 44.1775280898876 95.876404494382 49.152808988764 93.7426966292135 52.6921348314607 C 89.7786516853933 59.2348314606742 83.3269662921348 63.6640449438203 77.552808988764 68.4775280898876 C 74.3168539325843 71.1168539325843 72.2134831460674 74.8685393258427 69.038202247191 77.5786516853933 C 61.4741573033708 82.2505617977528 53.0606741573034 85.3752808988764 44.4449438202247 87.4584269662921 C 39.6011235955056 88.2977528089887 36.638202247191 92.4943820224719 33.8067415730337 96.0842696629214 C 22.9157303370786 89.3191011235955 11.9438202247191 82.7056179775281 0.931460674157297 76.152808988764 C 3.65168539325842 73.4123595505618 7.1505617977528 71.6932584269663 10.1438202247191 69.2966292134832 C 15.4426966292135 64.8370786516854 20.2359550561798 59.7101123595506 23.9775280898876 53.8449438202247 C 29.6606741573034 45.3808988764045 33.1292134831461 35.6629213483146 38.8022471910112 27.1786516853933 C 42.5741573033708 21.5662921348315 46.5988764044944 16.1258426966292 50.6033707865169 10.685393258427 Z" transform="matrix(1 0 0 1 -165 -4684 ) matrix(1 0 0 1 165 4684 )"/></g></svg>