<svg xmlns="http://www.w3.org/2000/svg" xmlns:xlink="http://www.w3.org/1999/xlink" width="28" height="32" version="1.1"><g><path fill="#fff" fill-rule="nonzero" stroke="none" d="M 12.9966292134831 3.91573033707863 C 13.3202247191011 2.73258426966288 13.6438202247191 1.55955056179778 13.9674157303371 0.386516853932562 C 16.0303370786517 2.33820224719102 18.0224719101124 4.36067415730338 19.9033707865169 6.49438202247194 C 18.0022471910112 8.65842696629215 15.9595505617978 10.7213483146068 13.8460674157303 12.6831460674157 C 13.6134831460674 11.2471910112359 13.3910112359551 9.81123595505613 13.1584269662921 8.38539325842697 C 10.3370786516854 9.62921348314609 6.93932584269662 10.7415730337079 5.74606741573034 13.9067415730337 C 2.26741573033708 20.0044943820225 8.53707865168538 28.4988764044944 15.4640449438202 26.6887640449439 C 20.1157303370787 26.2943820224719 22.3505617977528 21.8449438202247 23.1797752808989 17.7797752808989 C 24.7168539325843 17.6988764044944 26.2640449438202 17.6483146067416 27.8112359550562 17.638202247191 C 27.0730337078652 20.7022471910113 26.4966292134831 23.9988764044944 24.3831460674157 26.476404494382 C 19.4179775280899 32.7662921348315 8.49662921348315 32.9685393258427 3.60224719101123 26.476404494382 C -0.553932584269674 22.0168539325843 -0.725842696629215 14.8168539325843 2.79325842696629 9.93258426966293 C 4.9876404494382 6.3325842696629 9.2752808988764 5.20000000000005 12.9966292134831 3.91573033707863 Z" transform="matrix(1 0 0 1 -269 -4901 ) matrix(1 0 0 1 269 4901 )"/></g></svg>