<svg xmlns="http://www.w3.org/2000/svg" xmlns:xlink="http://www.w3.org/1999/xlink" width="95" height="95" version="1.1"><g><path fill="#000" fill-rule="nonzero" stroke="none" d="M 29.6955056179776 56.6168539325843 C 30.0494382022472 43.7134831460673 29.7359550561797 30.7898876404495 29.8370786516854 17.8764044943821 C 29.9584269662921 12.2438202247191 28.9674157303371 6.37865168539327 31.0404494382022 0.978651685393288 C 34.7820224719101 1.9292134831461 39.2516853932583 2.64719101123592 41.5370786516854 6.16629213483145 C 48.0898876404493 16.1067415730337 56.2202247191011 25.0359550561799 61.5797752808988 35.7449438202246 C 66.4134831460674 45.3415730337078 71.4696629213482 55.0191011235955 78.8314606741574 62.9674157303372 C 83.5438202247191 67.6595505617978 89.0651685393259 71.4213483146068 94.7280898876404 74.8595505617978 C 83.7359550561797 81.5943820224719 72.652808988764 88.1977528089888 61.4887640449438 94.6393258426966 C 59.1123595505618 92.2224719101124 56.9382022471909 89.5730337078652 54.2179775280899 87.5606741573033 C 52.3168539325843 86.4786516853933 50.1022471910112 86.185393258427 48.0393258426966 85.5887640449439 C 40.7078651685393 83.808988764045 33.7 80.8966292134833 27.1370786516854 77.2056179775281 C 24.3359550561797 75.6584269662922 22.8191011235955 72.6955056179776 20.8269662921349 70.3393258426967 C 18.9258426966293 67.8011235955056 16.2258426966291 66.0719101123595 13.7078651685392 64.2213483146068 C 9.05617977528095 60.8741573033708 4.78876404494383 56.9000000000001 1.44157303370775 52.238202247191 C -0.51011235955059 49.6393258426966 0.561797752808957 45.4325842696629 3.51460674157306 44.0775280898877 C 5.35505617977526 43.1269662921349 7.49887640449435 43.6426966292136 9.3797752808988 44.2292134831461 C 17.1662921348315 46.656179775281 21.8280898876404 54.291011235955 29.6955056179776 56.6168539325843 Z" transform="matrix(1 0 0 1 -279 -5335 ) matrix(1 0 0 1 279 5335 )"/></g></svg>