<svg xmlns="http://www.w3.org/2000/svg" xmlns:xlink="http://www.w3.org/1999/xlink" width="120" height="71" version="1.1"><g><path fill="#979598" fill-rule="nonzero" stroke="none" d="M 1.08202247191014 62.523595505618 C 0.566292134831428 43.7853932584269 0.970786516853878 25.0269662921349 0.879775280898798 6.28876404494383 C 0.596629213483197 2.9921348314607 3.61011235955061 0.0696629213483106 6.89662921348315 0.393258426966327 C 41.9662921348314 0.352808988764025 77.056179775281 0.453932584269694 112.13595505618 0.342696629213492 C 113.784269662921 0.484269662921349 115.73595505618 0.261797752809002 117.020224719101 1.57640449438207 C 119.33595505618 3.47752808988764 119.133707865169 6.73370786516853 119.234831460674 9.4438202247191 C 119.133707865169 26.6651685393259 119.143820224719 43.8865168539326 119.234831460674 61.1078651685393 C 119.113483146067 63.7775280898876 119.244943820225 67.0842696629214 116.848314606742 68.8640449438203 C 114.148314606742 70.5932584269663 110.740449438202 70.1786516853932 107.696629213483 70.4617977528089 C 104.814606741573 65.8808988764044 99.3640449438202 64.9 94.3786516853933 64.5460674157304 C 91.5674157303371 53.1494382022472 89.1808988764045 41.6516853932584 86.2483146067416 30.3056179775281 C 85.7629213483146 27.029213483146 82.4865168539326 24.5516853932584 79.2606741573034 25.9775280898876 C 75.7516853932584 27.2415730337079 76.7123595505618 31.6202247191011 76.894382022472 34.5022471910113 C 78.7651685393258 46.394382022472 80.7067415730337 58.2764044943821 82.5269662921348 70.1786516853932 C 60.6337078651685 69.9865168539327 38.7202247191011 70.5426966292135 16.8370786516854 69.8752808988764 C 21.023595505618 66.7505617977529 25.1797752808989 63.3528089887641 28.0719101123595 58.943820224719 C 29.8011235955056 56.5269662921348 29.6393258426966 52.7146067415731 27.1011235955057 50.9247191011236 C 24.7449438202248 49.2460674157303 21.6404494382022 50.0146067415731 19.152808988764 50.9348314606742 C 12.2764044943819 53.4325842696629 7.9685393258427 60.0157303370787 1.08202247191014 62.523595505618 Z M 58.0752808988765 19.5662921348314 C 56.0022471910112 21.5280898876404 53.9797752808988 23.5505617977528 52.0685393258427 25.6539325842697 C 53.9999999999999 27.8078651685394 56.0528089887641 29.8606741573034 58.1460674157303 31.8730337078651 C 58.4089887640449 30.3865168539327 58.68202247191 28.9101123595506 58.9651685393259 27.4337078651686 C 61.3719101123596 28.4247191011236 64.2640449438203 29.1831460674158 65.629213483146 31.6404494382023 C 67.0146067415729 34.3101123595505 67.0146067415729 37.6067415730337 66.2258426966292 40.4685393258427 C 64.0820224719101 44.4426966292134 58.6719101123595 47.6179775280899 54.3741573033707 44.9483146067415 C 51.1078651685393 43.5629213483147 49.7426966292135 40.1449438202246 48.8022471910112 36.9898876404495 C 47.2348314606742 36.8584269662921 45.667415730337 36.7876404494382 44.1202247191011 36.7977528089888 C 44.8483146067416 39.8719101123595 45.4955056179775 43.1685393258426 47.6595505617977 45.6157303370787 C 51.9573033707865 50.7022471910112 60.1179775280899 51.470786516854 65.629213483146 47.9719101123595 C 71.5044943820225 44.2 73.4359550561798 35.6146067415731 69.6235955056179 29.7191011235955 C 67.6213483146067 25.623595505618 63.1011235955056 24.0966292134831 58.9853932584269 23.1157303370787 C 58.6719101123595 21.9224719101124 58.3685393258427 20.7393258426966 58.0752808988765 19.5662921348314 Z" transform="matrix(1 0 0 1 -480 -5314 ) matrix(1 0 0 1 480 5314 )"/></g></svg>