<svg xmlns="http://www.w3.org/2000/svg" xmlns:xlink="http://www.w3.org/1999/xlink" width="72" height="119" version="1.1"><g><path fill="#979598" fill-rule="nonzero" stroke="none" d="M 1.31348314606737 7.33146067415731 C 1.44494382022469 5.43033707865169 1.37415730337079 3.22584269662923 2.82022471910113 1.7696629213483 C 4.55955056179778 0.101123595505669 7.17865168539322 0.374157303370794 9.4033707865168 0.232584269662937 C 27.6359550561798 0.353932584269671 45.8685393258427 0.313483146067426 64.1011235955057 0.252808988764059 C 65.7393258426966 0.404494382022506 67.7415730337078 0.0910112359550794 68.9348314606741 1.5168539325843 C 71.3011235955056 3.80224719101125 71.1393258426966 7.35168539325849 71.2101123595505 10.385393258427 C 70.9573033707865 40.0449438202247 71.3213483146068 69.7044943820225 71.0280898876405 99.3539325842697 C 67.1247191011237 98.3932584269663 65.3550561797753 94.3280898876404 62.038202247191 92.4370786516854 C 59.3179775280898 91.2640449438203 56.294382022472 91.2033707865169 53.4123595505619 90.7584269662922 C 50.8842696629214 80.1404494382023 48.4269662921348 69.5022471910112 45.9595505617978 58.8640449438202 C 45.2516853932584 56.4168539325843 44.685393258427 53.5449438202247 42.4101123595506 52.0483146067415 C 40.0741573033708 51.2797752808989 36.9898876404494 51.8157303370788 36.0089887640449 54.3337078651685 C 35.2606741573034 57.9033707865169 36.0595505617978 61.5539325842698 36.585393258427 65.0932584269664 C 38.4157303370787 75.5494382022472 39.8415730337078 86.0764044943821 41.6314606741573 96.5426966292134 C 42.2685393258427 100.395505617978 42.7337078651685 104.278651685393 42.8752808988764 108.18202247191 C 38.6078651685393 111.114606741573 34.3101123595505 114.148314606742 31.185393258427 118.344943820225 C 22.5089887640449 118.597752808989 13.6606741573033 119.376404494382 5.08539325842696 117.798876404494 C 10.6067415730337 113.4 16.5224719101124 109.213483146067 20.638202247191 103.378651685393 C 22.7921348314607 100.314606741573 21.4876404494382 94.7022471910112 17.2606741573034 94.4191011235956 C 10.9606741573034 93.8629213483146 5.91460674157304 98.5247191011237 1.32359550561796 102.185393258427 C 1.40449438202245 87.4213483146067 1.24269662921347 72.6573033707865 1.47528089887646 57.8932584269663 C 1.54606741573036 55.1629213483146 1 52.4629213483147 0.120224719101088 49.8943820224719 C 0.393258426966327 49.6011235955057 0.9292134831461 49.0247191011235 1.20224719101122 48.7314606741573 C 1.5966292134832 34.938202247191 1.23258426966288 21.1348314606742 1.31348314606737 7.33146067415731 Z M 28.4348314606741 45.808988764045 C 26.2202247191011 45.7887640449438 24.0056179775281 45.7887640449438 21.8011235955056 45.8191011235955 C 21.608988764045 48.3775280898876 21.4269662921348 50.9460674157303 21.2247191011236 53.5146067415731 C 20.638202247191 53.7876404494382 19.4651685393259 54.3134831460674 18.8786516853933 54.5865168539325 C 20.8505617977528 56.7404494382022 22.8730337078651 58.8539325842696 24.9258426966293 60.947191011236 C 27.2314606741572 58.9853932584269 29.385393258427 56.8617977528089 31.3573033707866 54.5865168539325 C 30.7707865168539 54.3134831460674 29.5977528089887 53.7876404494382 29.0112359550562 53.5146067415731 C 28.8089887640449 50.9460674157303 28.6168539325843 48.3775280898876 28.4348314606741 45.808988764045 Z" transform="matrix(1 0 0 1 -505 -5075 ) matrix(1 0 0 1 505 5075 )"/></g></svg>