<svg xmlns="http://www.w3.org/2000/svg" xmlns:xlink="http://www.w3.org/1999/xlink" width="10" height="70" version="1.1"><g><path fill="#000" fill-rule="nonzero" stroke="none" d="M 0.282022471910182 69.8797752808989 C 0.191011235955102 46.8033707865169 0.261797752809002 23.7168539325843 0.251685393258413 0.630337078651692 C 2.23370786516853 1.65168539325843 4.51910112359553 2.43033707865168 5.98539325842694 4.19999999999999 C 7.70449438202252 7.82022471910113 7.00674157303376 11.9258426966292 7.67415730337086 15.7584269662921 C 8.67528089887639 19.4595505617978 10.4348314606741 23.2213483146067 9.47415730337082 27.1449438202247 C 9.14044943820227 30.0674157303371 7.4213483146068 32.9595505617978 8.523595505618 35.9224719101124 C 10.2022471910112 42.6370786516854 10.3337078651685 50.9595505617978 4.31685393258419 55.6213483146067 C 5.23707865168535 58.5640449438203 7.36067415730338 61.8404494382023 5.7224719101124 64.914606741573 C 4.77191011235959 67.3415730337078 2.49662921348317 68.7674157303371 0.282022471910182 69.8797752808989 Z" transform="matrix(1 0 0 1 -585 -4671 ) matrix(1 0 0 1 585 4671 )"/></g></svg>