<svg xmlns="http://www.w3.org/2000/svg" xmlns:xlink="http://www.w3.org/1999/xlink" width="94" height="95" version="1.1"><g><path fill="#000" fill-rule="nonzero" stroke="none" d="M 49.3865168539326 11.5505617977528 C 51.8134831460674 8.30449438202254 53.9573033707865 4.64382022471921 57.4662921348315 2.43932584269658 C 60.4494382022472 0.831460674157256 63.9179775280899 0.98314606741576 67.2044943820225 0.993258426966349 C 67.3056179775281 19.3775280898876 66.8707865168539 37.761797752809 67.3865168539326 56.1258426966292 C 73.2921348314607 52.9808988764045 77.5191011235955 47.2067415730337 84.0112359550562 45.0831460674157 C 86.4483146067416 44.294382022472 89.3808988764045 43.738202247191 91.6966292134831 45.1640449438203 C 94.1539325842697 46.7921348314607 93.961797752809 50.4022471910113 92.6067415730337 52.6977528089889 C 89.0674157303371 59.1494382022472 82.5247191011236 62.870786516854 77.0943820224719 67.5022471910113 C 72.847191011236 70.7078651685393 70.561797752809 76.1280898876405 65.5258426966292 78.2820224719101 C 58.6898876404494 81.7808988764045 51.3786516853933 84.2988764044944 43.8955056179775 85.9775280898876 C 39.0820224719101 86.8269662921349 36.4325842696629 91.3674157303371 32.923595505618 94.2797752808989 C 22.123595505618 87.5146067415731 10.9595505617977 81.3561797752809 0.199999999999996 74.5303370786517 C 7.00561797752808 70.1011235955056 14.2662921348315 65.8438202247191 19.1404494382022 59.1595505617978 C 23.9640449438202 52.6573033707865 28.261797752809 45.7404494382023 31.7808988764045 38.4494382022472 C 36.3415730337079 28.6910112359551 43.0157303370787 20.1561797752809 49.3865168539326 11.5505617977528 Z" transform="matrix(1 0 0 1 -170 -5146 ) matrix(1 0 0 1 170 5146 )"/></g></svg>