<svg xmlns="http://www.w3.org/2000/svg" xmlns:xlink="http://www.w3.org/1999/xlink" width="28" height="32" version="1.1"><g><path fill="#fff" fill-rule="nonzero" stroke="none" d="M 14.1460674157303 12.8730337078651 C 12.0528089887641 10.8606741573034 9.99999999999989 8.80786516853937 8.06853932584272 6.65393258426968 C 9.97977528089882 4.55056179775278 12.0022471910112 2.52808988764042 14.0752808988765 0.566292134831428 C 14.3685393258427 1.73932584269664 14.6719101123595 2.92247191011239 14.9853932584269 4.11573033707867 C 19.1011235955056 5.09662921348314 23.6213483146067 6.62359550561797 25.6235955056179 10.7191011235955 C 29.4359550561798 16.6146067415731 27.5044943820225 25.2 21.629213483146 28.9719101123595 C 16.1179775280899 32.470786516854 7.95730337078646 31.7022471910112 3.65955056179769 26.6157303370787 C 1.49550561797753 24.1685393258426 0.84831460674161 20.8719101123595 0.120224719101088 17.7977528089888 C 1.66741573033698 17.7876404494382 3.23483146067417 17.8584269662921 4.80224719101125 17.9898876404495 C 5.74269662921347 21.1449438202246 7.10786516853932 24.5629213483147 10.3741573033707 25.9483146067415 C 14.6719101123595 28.6179775280899 20.0820224719101 25.4426966292134 22.2258426966292 21.4685393258427 C 23.0146067415729 18.6067415730337 23.0146067415729 15.3101123595505 21.629213483146 12.6404494382023 C 20.2640449438203 10.1831460674158 17.3719101123596 9.42471910112363 14.9651685393259 8.43370786516857 C 14.68202247191 9.91011235955057 14.4089887640449 11.3865168539327 14.1460674157303 12.8730337078651 Z" transform="matrix(1 0 0 1 -524 -5333 ) matrix(1 0 0 1 524 5333 )"/></g></svg>