<svg xmlns="http://www.w3.org/2000/svg" xmlns:xlink="http://www.w3.org/1999/xlink" width="71" height="120" version="1.1"><g><path fill="#979598" fill-rule="nonzero" stroke="none" d="M 0.124719101123588 9.3752808988764 C 0.26629213483146 7.12022471910112 0.013483146067415 4.50112359550562 1.60112359550563 2.66067415730337 C 3.97752808988764 0.648314606741572 7.30449438202247 0.739325842696633 10.247191011236 0.638202247191014 C 26.7910112359551 0.749438202247191 43.3348314606741 0.698876404494381 59.8786516853933 0.658426966292136 C 62.7606741573034 0.800000000000001 66.1483146067416 0.719101123595504 68.2820224719101 3.00449438202247 C 69.9808988764045 4.64269662921348 69.8797752808989 7.17078651685394 70.0112359550562 9.33483146067416 C 69.9101123595505 37.0022471910112 69.9910112359551 64.6696629213483 69.9606741573034 92.3370786516854 C 69.9303370786517 98.8494382022472 70.1932584269663 105.37191011236 69.6674157303371 111.874157303371 C 64.752808988764 110.519101123596 62.6595505617977 104.512359550562 57.4011235955056 104.006741573034 C 55.5910112359551 103.723595505618 53.7707865168539 103.662921348315 51.9505617977528 103.57191011236 C 49.1696629213483 92.6303370786517 46.8539325842697 81.5775280898876 44.1640449438202 70.6157303370786 C 43.4561797752809 68.2089887640449 42.5662921348315 64.8921348314607 39.5224719101124 64.7101123595506 C 35.9325842696629 63.7696629213483 33.1415730337079 67.3494382022472 34.0011235955056 70.7067415730337 C 36.3674157303371 86.9977528089888 39.3404494382023 103.207865168539 41.5044943820225 119.529213483146 C 33.4651685393258 119.822471910112 25.4157303370787 119.529213483146 17.376404494382 119.660674157303 C 12.7550561797753 119.660674157303 7.97191011235955 120.196629213483 3.55280898876404 118.477528089888 C 9.32696629213484 113.66404494382 15.7786516853933 109.234831460674 19.7426966292135 102.692134831461 C 21.876404494382 99.152808988764 18.4685393258427 94.1775280898876 14.4134831460674 94.7033707865169 C 8.92247191011236 95.4921348314607 4.42247191011235 99.0921348314607 0.165168539325848 102.398876404494 C 0.175280898876395 85.238202247191 0.185393258426956 68.0775280898877 0.215730337078654 50.9168539325843 C 0.144943820224711 37.0730337078652 0.246067415730337 23.2292134831461 0.124719101123588 9.3752808988764 Z" transform="matrix(1 0 0 1 -239 -4634 ) matrix(1 0 0 1 239 4634 )"/></g></svg>