<svg xmlns="http://www.w3.org/2000/svg" xmlns:xlink="http://www.w3.org/1999/xlink" width="70" height="119" version="1.1"><g><path fill="#979598" fill-rule="nonzero" stroke="none" d="M 0.0932584269662868 10.5528089887641 C 0.204494382022474 7.761797752809 -0.129213483146074 4.46516853932582 2.06516853932584 2.35168539325844 C 3.90561797752808 0.400000000000034 6.76741573033708 0.470786516853934 9.23483146067414 0.389887640449444 C 26.1123595505618 0.480898876404467 42.9898876404494 0.521348314606769 59.8573033707865 0.379775280898912 C 62.9011235955056 0.440449438202279 66.4404494382023 0.278651685393243 68.7359550561798 2.65505617977533 C 70.161797752809 3.83820224719102 69.838202247191 5.84044943820226 70 7.48876404494382 C 69.9089887640449 42.2348314606742 69.929213483146 76.9910112359551 69.9898876404494 111.747191011236 C 69.929213483146 114.052808988764 69.7775280898877 117.076404494382 67.2898876404495 118.138202247191 C 64.2561797752809 119.179775280899 60.9595505617978 118.755056179775 57.8044943820225 118.83595505618 C 41.9078651685393 118.542696629214 25.9910112359551 119.149438202247 10.0943820224719 118.502247191011 C 15.5247191011236 113.870786516854 22.0674157303371 110.149438202247 25.6067415730337 103.697752808989 C 26.961797752809 101.402247191011 27.1539325842697 97.7921348314607 24.6966292134831 96.1640449438203 C 22.3808988764045 94.738202247191 19.4483146067416 95.294382022472 17.0112359550562 96.0831460674157 C 10.5191011235955 98.2067415730337 6.29213483146067 103.980898876404 0.386516853932577 107.125842696629 C -0.129213483146074 88.761797752809 0.305617977528087 70.3775280898876 0.204494382022474 51.9932584269663 C 0.123595505617971 38.1797752808989 0.255056179775281 24.3662921348315 0.0932584269662868 10.5528089887641 Z" transform="matrix(1 0 0 1 -237 -5095 ) matrix(1 0 0 1 237 5095 )"/></g></svg>