<svg xmlns="http://www.w3.org/2000/svg" xmlns:xlink="http://www.w3.org/1999/xlink" width="122" height="71" version="1.1"><g><path fill="#979598" fill-rule="nonzero" stroke="none" d="M 0.95617977528093 62.4955056179776 C 0.551685393258481 44.1415730337078 1.62359550561803 25.7370786516855 0.389887640449388 7.41348314606751 C 0.986516853932585 4.08651685393261 3.80786516853937 0.314606741573016 7.54943820224719 0.607865168539377 C 42.629213483146 0.617977528089909 77.7191011235955 0.607865168539377 112.808988764045 0.617977528089909 C 116.752808988764 0.405617977528152 118.643820224719 4.51123595505624 121.040449438202 6.97865168539329 C 118.967415730337 12.3786516853933 119.958426966292 18.2438202247191 119.837078651685 23.8764044943821 C 119.73595505618 36.7898876404495 120.049438202247 49.7134831460673 119.695505617978 62.6168539325843 C 111.82808988764 60.291011235955 107.166292134831 52.656179775281 99.3797752808988 50.2292134831461 C 97.4988764044944 49.6426966292136 95.3550561797753 49.1269662921349 93.5146067415731 50.0775280898877 C 90.561797752809 51.4325842696629 89.4898876404494 55.6393258426966 91.4415730337078 58.238202247191 C 94.7887640449438 62.9000000000001 99.056179775281 66.8741573033708 103.707865168539 70.2213483146068 C 74.7157303370786 70.5550561797753 45.7134831460675 70.4134831460674 16.7213483146068 70.2921348314607 C 21.8483146067416 66.7123595505618 26.9752808988763 62.6067415730337 29.7460674157303 56.8730337078651 C 31.4853932584269 53.0101123595505 27.2685393258427 48.2269662921349 23.2033707865169 49.5719101123595 C 14.2842696629214 51.1393258426967 9.52134831460683 60.1595505617978 0.95617977528093 62.4955056179776 Z M 60.3865168539326 14.2696629213483 C 44.7123595505618 14.3 29.614606741573 20.5494382022472 17.5404494382022 30.3483146067416 C 16.5898876404494 30.0348314606742 15.6494382022472 29.7314606741572 14.7191011235956 29.438202247191 C 14.0820224719101 31.976404494382 13.4550561797753 34.5146067415731 12.8483146067416 37.0730337078652 C 15.1539325842697 37.6898876404495 17.4797752808988 38.2865168539327 19.8157303370787 38.852808988764 C 20.6146067415731 37.1741573033707 21.3426966292135 35.3640449438202 22.8494382022471 34.1808988764045 C 31.2426966292135 27.2640449438203 41.547191011236 22.7438202247191 52.2764044943821 21.085393258427 C 58.8089887640449 20.5393258426967 65.4325842696629 20.4685393258427 71.9550561797753 21.2168539325843 C 81.8752808988764 22.9561797752809 91.4314606741573 27.061797752809 99.3696629213483 33.2707865168539 C 101.01797752809 34.3528089887641 101.139325842697 36.4258426966292 101.584269662921 38.1651685393258 C 103.960674157303 37.6595505617978 106.337078651685 37.1337078651686 108.733707865169 36.6280898876405 C 108.278651685393 34.2112359550562 108.298876404494 31.5011235955056 106.893258426966 29.4078651685394 C 104.820224719101 28.6191011235956 102.534831460674 28.2752808988764 100.785393258427 26.7988764044944 C 89.1764044943819 18.3044943820225 74.7561797752809 13.8955056179775 60.3865168539326 14.2696629213483 Z" transform="matrix(1 0 0 1 -189 -5329 ) matrix(1 0 0 1 189 5329 )"/></g></svg>