<svg xmlns="http://www.w3.org/2000/svg" xmlns:xlink="http://www.w3.org/1999/xlink" width="11" height="18" version="1.1"><g><path fill="#ccc" fill-rule="nonzero" stroke="none" d="M 10.8109965635739 8.58517034068136 C 10.9369988545246 8.70541082164329 11 8.8436873747495 11 9 C 11 9.1563126252505 10.9369988545246 9.29458917835671 10.8109965635739 9.41482965931864 L 2.00343642611684 17.8196392785571 C 1.87743413516609 17.939879759519 1.73253150057274 18 1.56872852233677 18 C 1.4049255441008 18 1.26002290950745 17.939879759519 1.1340206185567 17.8196392785571 L 0.189003436426117 16.9178356713427 C 0.0630011454753723 16.7975951903808 0 16.6593186372745 0 16.503006012024 C 0 16.3466933867735 0.0630011454753723 16.2084168336673 0.189003436426117 16.0881763527054 L 7.61683848797251 9 L 0.189003436426117 1.91182364729459 C 0.0630011454753723 1.79158316633266 0 1.65330661322645 0 1.49699398797595 C 0 1.34068136272545 0.0630011454753723 1.20240480961924 0.189003436426117 1.08216432865731 L 1.1340206185567 0.180360721442886 C 1.26002290950745 0.0601202404809613 1.4049255441008 0 1.56872852233677 0 C 1.73253150057274 0 1.87743413516609 0.0601202404809613 2.00343642611684 0.180360721442886 L 10.8109965635739 8.58517034068136 Z" transform="matrix(1 0 0 1 -565 -37 ) matrix(1 0 0 1 565 37 )"/></g></svg>