<?xml version="1.0" encoding="utf-8"?>
<svg version="1.1" xmlns:xlink="http://www.w3.org/1999/xlink" width="22px" height="20px" xmlns="http://www.w3.org/2000/svg">
  <g transform="matrix(1 0 0 1 -20 -15 )">
    <path d="M 13.2872596153846 9.75260416666667  C 13.4547275641026 9.58767361111111  13.5384615384615 9.39236111111111  13.5384615384615 9.16666666666667  C 13.5384615384615 8.94097222222222  13.4547275641026 8.74565972222222  13.2872596153846 8.58072916666667  C 13.1197916666667 8.41579861111111  12.9214743589744 8.33333333333333  12.6923076923077 8.33333333333333  L 9.30769230769231 8.33333333333333  C 9.07852564102564 8.33333333333333  8.88020833333333 8.41579861111111  8.71274038461539 8.58072916666667  C 8.54527243589744 8.74565972222222  8.46153846153846 8.94097222222222  8.46153846153846 9.16666666666667  C 8.46153846153846 9.39236111111111  8.54527243589744 9.58767361111111  8.71274038461539 9.75260416666667  C 8.88020833333333 9.91753472222222  9.07852564102564 10  9.30769230769231 10  L 12.6923076923077 10  C 12.9214743589744 10  13.1197916666667 9.91753472222222  13.2872596153846 9.75260416666667  Z M 20.9026442307692 6.08072916666667  C 21.0701121794872 6.24565972222222  21.1538461538462 6.44097222222222  21 6.66666666666667  L 21 19.1666666666667  C 21.1538461538462 19.3923611111111  21.0701121794872 19.5876736111111  20.9026442307692 19.7526041666667  C 20.7351762820513 19.9175347222222  20.536858974359 20  20.3076923076923 20  L 1.69230769230769 20  C 1.46314102564103 20  1.26482371794872 19.9175347222222  1.09735576923077 19.7526041666667  C 0.929887820512821 19.5876736111111  0.846153846153846 19.3923611111111  1 19.1666666666667  L 1 6.66666666666667  C 0.846153846153846 6.44097222222222  0.929887820512821 6.24565972222222  1.09735576923077 6.08072916666667  C 1.26482371794872 5.91579861111111  1.46314102564103 5.83333333333333  1.69230769230769 6  L 20.3076923076923 6  C 20.536858974359 5.83333333333333  20.7351762820513 5.91579861111111  20.9026442307692 6.08072916666667  Z M 21.7487980769231 0.247395833333333  C 21.916266025641 0.412326388888886  22 0.607638888888886  22 0.833333333333333  L 22 4.16666666666667  C 22 4.39236111111111  21.916266025641 4.58767361111111  21.7487980769231 4.75260416666667  C 21.5813301282051 4.91753472222222  21.3830128205128 5  21.1538461538462 5  L 0.846153846153846 5  C 0.61698717948718 5  0.418669871794872 4.91753472222222  0.251201923076923 4.75260416666667  C 0.0837339743589745 4.58767361111111  0 4.39236111111111  0 4.16666666666667  L 0 0.833333333333333  C 0 0.607638888888886  0.0837339743589745 0.412326388888886  0.251201923076923 0.247395833333333  C 0.418669871794872 0.0824652777777768  0.61698717948718 0  0.846153846153846 0  L 21.1538461538462 0  C 21.3830128205128 0  21.5813301282051 0.0824652777777768  21.7487980769231 0.247395833333333  Z " fill-rule="nonzero" fill="#cccccc" stroke="none" transform="matrix(1 0 0 1 20 15 )" />
  </g>
</svg>