<?xml version="1.0" encoding="utf-8"?>
<svg version="1.1" xmlns:xlink="http://www.w3.org/1999/xlink" width="26px" height="25px" xmlns="http://www.w3.org/2000/svg">
  <g transform="matrix(1 0 0 1 -16 -13 )">
    <path d="M 5.4970703125 16.765625  C 5.89485677083333 16.2760416666667  6.09375 15.6875  6.09375 15  C 6.09375 14.3125  5.89485677083333 13.7239583333333  5.4970703125 13.234375  C 5.09928385416667 12.7447916666667  4.62109375 12.5  4.0625 12.5  C 3.50390625 12.5  3.02571614583333 12.7447916666667  2.6279296875 13.234375  C 2.23014322916667 13.7239583333333  2.03125 14.3125  2.03125 15  C 2.03125 15.6875  2.23014322916667 16.2760416666667  2.6279296875 16.765625  C 3.02571614583333 17.2552083333333  3.50390625 17.5  4.0625 17.5  C 4.62109375 17.5  5.09928385416667 17.2552083333333  5.4970703125 16.765625  Z M 7.6806640625 4.421875  L 6.55078125 10  L 19.44921875 10  L 18.3193359375 4.421875  C 18.3024088541667 4.33854166666667  18.2431640625 4.24739583333333  18.1416015625 4.1484375  C 18.0400390625 4.04947916666666  17.951171875 4  17.875 4  L 8.125 4  C 8.048828125 4  7.9599609375 4.04947916666666  7.8583984375 4.1484375  C 7.7568359375 4.24739583333333  7.69759114583333 4.33854166666667  7.6806640625 4.421875  Z M 23.3720703125 16.765625  C 23.7698567708333 16.2760416666667  23.96875 15.6875  23.96875 15  C 23.96875 14.3125  23.7698567708333 13.7239583333333  23.3720703125 13.234375  C 22.9742838541667 12.7447916666667  22.49609375 12.5  21.9375 12.5  C 21.37890625 12.5  20.9007161458333 12.7447916666667  20.5029296875 13.234375  C 20.1051432291667 13.7239583333333  19.90625 14.3125  19.90625 15  C 19.90625 15.6875  20.1051432291667 16.2760416666667  20.5029296875 16.765625  C 20.9007161458333 17.2552083333333  21.37890625 17.5  21.9375 17.5  C 22.49609375 17.5  22.9742838541667 17.2552083333333  23.3720703125 16.765625  Z M 25.16845703125 11.0234375  C 25.7228190104167 11.7057291666667  26 12.53125  26 13.5  L 26 19.5  C 26 19.6458333333333  25.9619140625 19.765625  25.8857421875 19.859375  C 25.8095703125 19.953125  25.7122395833333 20  25.59375 20  L 24.375 20  L 24.375 22  C 24.375 22.8333333333333  24.1380208333333 23.5416666666667  23.6640625 24.125  C 23.1901041666667 24.7083333333333  22.6145833333333 25  21.9375 25  C 21.2604166666667 25  20.6848958333333 24.7083333333333  20.2109375 24.125  C 19.7369791666667 23.5416666666667  19.5 22.8333333333333  19.5 22  L 19.5 20  L 6.5 20  L 6.5 22  C 6.5 22.8333333333333  6.26302083333333 23.5416666666667  5.7890625 24.125  C 5.31510416666667 24.7083333333333  4.73958333333333 25  4.0625 25  C 3.38541666666667 25  2.80989583333333 24.7083333333333  2.3359375 24.125  C 1.86197916666667 23.5416666666667  1.625 22.8333333333333  1.625 22  L 1.625 20  L 0.40625 20  C 0.287760416666667 20  0.1904296875 19.953125  0.1142578125 19.859375  C 0.0380859375 19.765625  0 19.6458333333333  0 19.5  L 0 13.5  C 0 12.53125  0.277180989583333 11.7057291666667  0.83154296875 11.0234375  C 1.38590494791667 10.3411458333333  2.056640625 10  2.84375 10  L 3.19921875 10  L 4.5322265625 3.453125  C 4.72688802083333 2.47395833333333  5.1669921875 1.65364583333333  5.8525390625 0.9921875  C 6.5380859375 0.330729166666666  7.29557291666667 0  8.125 0  L 17.875 0  C 18.7044270833333 0  19.4619140625 0.330729166666666  20.1474609375 0.9921875  C 20.8330078125 1.65364583333333  21.2731119791667 2.47395833333333  21.4677734375 3.453125  L 22.80078125 10  L 23.15625 10  C 23.943359375 10  24.6140950520833 10.3411458333333  25.16845703125 11.0234375  Z " fill-rule="nonzero" fill="#cccccc" stroke="none" transform="matrix(1 0 0 1 16 13 )" />
  </g>
</svg>