<?xml version="1.0" encoding="utf-8"?>
<svg version="1.1" xmlns:xlink="http://www.w3.org/1999/xlink" width="26px" height="20px" xmlns="http://www.w3.org/2000/svg">
  <g transform="matrix(1 0 0 1 -59 -16 )">
    <path d="M 5.4970703125 13.4125  C 5.89485677083333 13.0208333333333  6.09375 12.55  6.09375 12  C 6.09375 11.45  5.89485677083333 10.9791666666667  5.4970703125 10.5875  C 5.09928385416667 10.1958333333333  4.62109375 10  4.0625 10  C 3.50390625 10  3.02571614583333 10.1958333333333  2.6279296875 10.5875  C 2.23014322916667 10.9791666666667  2.03125 11.45  2.03125 12  C 2.03125 12.55  2.23014322916667 13.0208333333333  2.6279296875 13.4125  C 3.02571614583333 13.8041666666667  3.50390625 14  4.0625 14  C 4.62109375 14  5.09928385416667 13.8041666666667  5.4970703125 13.4125  Z M 7.6806640625 3.5375  L 6.55078125 8  L 19.44921875 8  L 18.3193359375 3.5375  C 18.3024088541667 3.47083333333333  18.2431640625 3.39791666666666  18.1416015625 3.31875  C 18.0400390625 3.23958333333333  17.951171875 3.2  17.875 3.2  L 8.125 3.2  C 8.048828125 3.2  7.9599609375 3.23958333333333  7.8583984375 3.31875  C 7.7568359375 3.39791666666666  7.69759114583333 3.47083333333333  7.6806640625 3.5375  Z M 23.3720703125 13.4125  C 23.7698567708333 13.0208333333333  23.96875 12.55  23.96875 12  C 23.96875 11.45  23.7698567708333 10.9791666666667  23.3720703125 10.5875  C 22.9742838541667 10.1958333333333  22.49609375 10  21.9375 10  C 21.37890625 10  20.9007161458333 10.1958333333333  20.5029296875 10.5875  C 20.1051432291667 10.9791666666667  19.90625 11.45  19.90625 12  C 19.90625 12.55  20.1051432291667 13.0208333333333  20.5029296875 13.4125  C 20.9007161458333 13.8041666666667  21.37890625 14  21.9375 14  C 22.49609375 14  22.9742838541667 13.8041666666667  23.3720703125 13.4125  Z M 25.16845703125 8.81875  C 25.7228190104167 9.36458333333333  26 10.025  26 10.8  L 26 15.6  C 26 15.7166666666667  25.9619140625 15.8125  25.8857421875 15.8875  C 25.8095703125 15.9625  25.7122395833333 16  25.59375 16  L 24.375 16  L 24.375 17.6  C 24.375 18.2666666666667  24.1380208333333 18.8333333333333  23.6640625 19.3  C 23.1901041666667 19.7666666666667  22.6145833333333 20  21.9375 20  C 21.2604166666667 20  20.6848958333333 19.7666666666667  20.2109375 19.3  C 19.7369791666667 18.8333333333333  19.5 18.2666666666667  19.5 17.6  L 19.5 16  L 6.5 16  L 6.5 17.6  C 6.5 18.2666666666667  6.26302083333333 18.8333333333333  5.7890625 19.3  C 5.31510416666667 19.7666666666667  4.73958333333333 20  4.0625 20  C 3.38541666666667 20  2.80989583333333 19.7666666666667  2.3359375 19.3  C 1.86197916666667 18.8333333333333  1.625 18.2666666666667  1.625 17.6  L 1.625 16  L 0.40625 16  C 0.287760416666667 16  0.1904296875 15.9625  0.1142578125 15.8875  C 0.0380859375 15.8125  0 15.7166666666667  0 15.6  L 0 10.8  C 0 10.025  0.277180989583333 9.36458333333333  0.83154296875 8.81875  C 1.38590494791667 8.27291666666667  2.056640625 8  2.84375 8  L 3.19921875 8  L 4.5322265625 2.7625  C 4.72688802083333 1.97916666666667  5.1669921875 1.32291666666666  5.8525390625 0.79375  C 6.5380859375 0.264583333333333  7.29557291666667 0  8.125 0  L 17.875 0  C 18.7044270833333 0  19.4619140625 0.264583333333333  20.1474609375 0.79375  C 20.8330078125 1.32291666666666  21.2731119791667 1.97916666666667  21.4677734375 2.7625  L 22.80078125 8  L 23.15625 8  C 23.943359375 8  24.6140950520833 8.27291666666667  25.16845703125 8.81875  Z " fill-rule="nonzero" fill="#cccccc" stroke="none" transform="matrix(1 0 0 1 59 16 )" />
  </g>
</svg>