<?xml version="1.0" encoding="utf-8"?>
<svg version="1.1" xmlns:xlink="http://www.w3.org/1999/xlink" width="1024px" height="631px" xmlns="http://www.w3.org/2000/svg">
  <g transform="matrix(1 0 0 1 -88 -70 )">
    <path d="M 89 73  A 2 2 0 0 1 91 71 L 1109 71  A 2 2 0 0 1 1111 73 L 1111 698  A 2 2 0 0 1 1109 700 L 91 700  A 2 2 0 0 1 89 698 L 89 73  Z " fill-rule="nonzero" fill="#ffffff" stroke="none" fill-opacity="0" />
    <path d="M 88.5 73  A 2.5 2.5 0 0 1 91 70.5 L 1109 70.5  A 2.5 2.5 0 0 1 1111.5 73 L 1111.5 698  A 2.5 2.5 0 0 1 1109 700.5 L 91 700.5  A 2.5 2.5 0 0 1 88.5 698 L 88.5 73  Z " stroke-width="1" stroke-dasharray="9,4" stroke="#cccccc" fill="none" stroke-dashoffset="0.5" />
  </g>
</svg>