<svg xmlns="http://www.w3.org/2000/svg" xmlns:xlink="http://www.w3.org/1999/xlink" width="43" height="42" version="1.1"><g><path fill="#06f" fill-rule="nonzero" stroke="none" d="M 29.6066666666667 25.48 C 33.22 29.3066666666667 33.0733333333334 34.76 34.38 39.5066666666667 C 36.1133333333333 42.96 41.5933333333333 41.6933333333334 42.02 37.9733333333334 C 42.5666666666667 23.5866666666667 30.14 10.0266666666666 15.6466666666667 9.77333333333331 C 17.98 7.98666666666668 21.4333333333333 4.92000000000007 18.6333333333333 1.90666666666675 C 15.5133333333333 -1.34666666666658 11.5666666666667 2.48000000000002 8.79333333333335 4.27999999999997 C 5.81999999999999 6.85333333333335 1.18000000000001 8.34666666666669 0.0733333333333505 12.4666666666667 C 2.79333333333335 18.08 7.11333333333334 22.72 10.8066666666667 27.6933333333334 C 12.5266666666667 27.1600000000001 14.66 27.1333333333334 15.8466666666667 25.5333333333333 C 17.46 22.5600000000001 14.6333333333333 19.7733333333333 13.5266666666667 17.2 C 19.62 18.0666666666667 25.9 20.2666666666667 29.6066666666667 25.48 Z" transform="matrix(1 0 0 1 -1200 -788 ) matrix(1 0 0 1 1200 788 )"/></g></svg>