<svg xmlns="http://www.w3.org/2000/svg" xmlns:xlink="http://www.w3.org/1999/xlink" width="1024" height="631" version="1.1"><g><path fill="#fff" fill-opacity="0" fill-rule="nonzero" stroke="none" d="M 89 73 A 2 2 0 0 1 91 71 L 1109 71 A 2 2 0 0 1 1111 73 L 1111 698 A 2 2 0 0 1 1109 700 L 91 700 A 2 2 0 0 1 89 698 L 89 73 Z" transform="matrix(1 0 0 1 -88 -70 )"/><path fill="none" stroke="#ccc" stroke-dasharray="9 4" stroke-dashoffset=".5" stroke-width="1" d="M 88.5 73 A 2.5 2.5 0 0 1 91 70.5 L 1109 70.5 A 2.5 2.5 0 0 1 1111.5 73 L 1111.5 698 A 2.5 2.5 0 0 1 1109 700.5 L 91 700.5 A 2.5 2.5 0 0 1 88.5 698 L 88.5 73 Z" transform="matrix(1 0 0 1 -88 -70 )"/></g></svg>