<svg xmlns="http://www.w3.org/2000/svg" xmlns:xlink="http://www.w3.org/1999/xlink" width="12" height="12" version="1.1"><g><path fill="#fff" fill-rule="nonzero" stroke="none" d="M 51 535 C 54.36 535 57 537.64 57 541 C 57 544.36 54.36 547 51 547 C 47.64 547 45 544.36 45 541 C 45 537.64 47.64 535 51 535 Z" transform="matrix(1 0 0 1 -45 -535 )"/><path fill="none" stroke="#fff" stroke-width="1" d="M 51 535.5 C 54.08 535.5 56.5 537.92 56.5 541 C 56.5 544.08 54.08 546.5 51 546.5 C 47.92 546.5 45.5 544.08 45.5 541 C 45.5 537.92 47.92 535.5 51 535.5 Z" transform="matrix(1 0 0 1 -45 -535 )"/></g></svg>