<?xml version="1.0" encoding="utf-8"?>
<svg version="1.1" xmlns:xlink="http://www.w3.org/1999/xlink" width="23px" height="30px" xmlns="http://www.w3.org/2000/svg">
  <defs>
    <filter x="887px" y="616px" width="23px" height="30px" filterUnits="userSpaceOnUse" id="filter1199">
      <feOffset dx="0" dy="0" in="SourceAlpha" result="shadowOffsetInner" />
      <feGaussianBlur stdDeviation="2.5" in="shadowOffsetInner" result="shadowGaussian" />
      <feComposite in2="shadowGaussian" operator="atop" in="SourceAlpha" result="shadowComposite" />
      <feColorMatrix type="matrix" values="0 0 0 0 0.419607843137255  0 0 0 0 0.67843137254902  0 0 0 0 1  0 0 0 1 0  " in="shadowComposite" />
    </filter>
    <g id="widget1200">
      <path d="M 3.4150390625 9.41515907673113  L 12.4287109375 0.187668954044524  C 12.5895182291666 0.0230470645317597  12.7249348958334 -0.0332709503015365  12.8349609375 0.0187149095446356  C 12.9449869791666 0.0707007693907508  13 0.209329728980372  13 0.434601788313557  L 13 19.5653982116864  C 13 19.7906702710196  12.9449869791666 19.9292992306092  12.8349609375 19.9812850904554  C 12.7249348958334 20.0332709503015  12.5895182291666 19.9769529354682  12.4287109375 19.8123310459555  L 3.4150390625 10.5848409232689  C 3.3388671875 10.5068621334997  3.28385416666663 10.4245511887433  3.25 10.3379080889998  L 3.25 19.1495113329175  C 3.25 19.3747833922506  3.16959635416663 19.5697303666736  3.0087890625 19.7343522561863  C 2.84798177083337 19.898974145699  2.65755208333337 19.9812850904554  2.4375 19.9812850904554  L 0.8125 19.9812850904554  C 0.592447916666629 19.9812850904554  0.402018229166629 19.898974145699  0.2412109375 19.7343522561863  C 0.0804036458333712 19.5697303666736  0 19.3747833922506  0 19.1495113329175  L 0 0.850488667082535  C 0 0.625216607749351  0.0804036458333712 0.430269633326433  0.2412109375 0.265647743813668  C 0.402018229166629 0.101025854300961  0.592447916666629 0.0187149095446356  0.8125 0.0187149095446356  L 2.4375 0.0187149095446356  C 2.65755208333337 0.0187149095446356  2.84798177083337 0.101025854300961  3.0087890625 0.265647743813668  C 3.16959635416663 0.430269633326433  3.25 0.625216607749351  3.25 0.850488667082535  L 3.25 9.66209191100022  C 3.28385416666663 9.5667845012823  3.3388671875 9.48447355652597  3.4150390625 9.41515907673113  Z " fill-rule="nonzero" fill="#ffffff" stroke="none" transform="matrix(1 0 0 1 892 621 )" />
    </g>
  </defs>
  <g transform="matrix(1 0 0 1 -887 -616 )">
    <use xlink:href="#widget1200" filter="url(#filter1199)" />
    <use xlink:href="#widget1200" />
  </g>
</svg>