<?xml version="1.0" encoding="utf-8"?>
<svg version="1.1" xmlns:xlink="http://www.w3.org/1999/xlink" width="32px" height="29px" xmlns="http://www.w3.org/2000/svg">
  <defs>
    <filter x="1099px" y="541px" width="32px" height="29px" filterUnits="userSpaceOnUse" id="filter2586">
      <feOffset dx="0" dy="0" in="SourceAlpha" result="shadowOffsetInner" />
      <feGaussianBlur stdDeviation="2.5" in="shadowOffsetInner" result="shadowGaussian" />
      <feComposite in2="shadowGaussian" operator="atop" in="SourceAlpha" result="shadowComposite" />
      <feColorMatrix type="matrix" values="0 0 0 0 0.419607843137255  0 0 0 0 0.67843137254902  0 0 0 0 1  0 0 0 1 0  " in="shadowComposite" />
    </filter>
    <g id="widget2587">
      <path d="M 11.5401785714286 18.77734375  C 11.3928571428572 18.92578125  11.2127976190476 19  11 19  C 10.7872023809524 19  10.6071428571428 18.92578125  10.4598214285714 18.77734375  L 2.79910714285711 11.3307291666666  C 2.71726190476193 11.2647569444445  2.60472470238085 11.1575520833334  2.46149553571433 11.0091145833334  C 2.31826636904759 10.8606770833333  2.09114583333326 10.5906032986111  1.78013392857144 10.1988932291667  C 1.46912202380952 9.80718315972218  1.19084821428578 9.40516493055553  0.9453125 8.99283854166665  C 0.699776785714221 8.58051215277782  0.480840773809518 8.08159722222218  0.288504464285779 7.49609375000001  C 0.0961681547619264 6.91059027777782  0 6.34157986111111  0 5.7890625  C 0 3.97482638888888  0.519717261904816 2.55642361111111  1.55915178571422 1.53385416666664  C 2.59858630952385 0.511284722222175  4.0349702380953 0  5.86830357142856 0  C 6.37574404761915 0  6.89341517857144 0.0886501736111171  7.42131696428578 0.265950520833351  C 7.94921875 0.443250868055527  8.44029017857144 0.682400173611122  8.89453125 0.983398437500005  C 9.34877232142867 1.28439670138889  9.73958333333337 1.56684027777782  10.0669642857142 1.83072916666665  C 10.3943452380952 2.09461805555553  10.7053571428571 2.37500000000001  11 2.671875  C 11.2946428571429 2.37500000000001  11.6056547619048 2.09461805555553  11.9330357142858 1.83072916666665  C 12.2604166666666 1.56684027777782  12.6512276785713 1.28439670138889  13.10546875 0.983398437500005  C 13.5597098214286 0.682400173611122  14.05078125 0.443250868055527  14.5786830357142 0.265950520833351  C 15.1065848214286 0.0886501736111171  15.6242559523808 0  16.1316964285714 0  C 17.9650297619047 0  19.4014136904761 0.511284722222175  20.4408482142857 1.53385416666664  C 21.4802827380952 2.55642361111111  22 3.97482638888888  22 5.7890625  C 22 7.61154513888888  21.0628720238095 9.46701388888889  19.1886160714286 11.35546875  L 11.5401785714286 18.77734375  Z " fill-rule="nonzero" fill="#ffffff" stroke="none" transform="matrix(1 0 0 1 1104 546 )" />
    </g>
  </defs>
  <g transform="matrix(1 0 0 1 -1099 -541 )">
    <use xlink:href="#widget2587" filter="url(#filter2586)" />
    <use xlink:href="#widget2587" />
  </g>
</svg>