<?xml version="1.0" encoding="utf-8"?>
<svg version="1.1" xmlns:xlink="http://www.w3.org/1999/xlink" width="23px" height="30px" xmlns="http://www.w3.org/2000/svg">
  <defs>
    <filter x="975px" y="616px" width="23px" height="30px" filterUnits="userSpaceOnUse" id="filter1221">
      <feOffset dx="0" dy="0" in="SourceAlpha" result="shadowOffsetInner" />
      <feGaussianBlur stdDeviation="2.5" in="shadowOffsetInner" result="shadowGaussian" />
      <feComposite in2="shadowGaussian" operator="atop" in="SourceAlpha" result="shadowComposite" />
      <feColorMatrix type="matrix" values="0 0 0 0 0.419607843137255  0 0 0 0 0.67843137254902  0 0 0 0 1  0 0 0 1 0  " in="shadowComposite" />
    </filter>
    <g id="widget1222">
      <path d="M 9.5849609375 10.5848409232689  L 0.5712890625 19.8123310459555  C 0.410481770833371 19.9769529354682  0.275065104166629 20.0332709503015  0.1650390625 19.9812850904554  C 0.0550130208333712 19.9292992306092  0 19.7906702710196  0 19.5653982116864  L 0 0.434601788313557  C 0 0.209329728980372  0.0550130208333712 0.0707007693907508  0.1650390625 0.0187149095446356  C 0.275065104166629 -0.0332709503015365  0.410481770833371 0.0230470645317597  0.5712890625 0.187668954044524  L 9.5849609375 9.41515907673113  C 9.65266927083337 9.48447355652597  9.70768229166663 9.5667845012823  9.75 9.66209191100022  L 9.75 0.850488667082535  C 9.75 0.625216607749351  9.83040364583337 0.430269633326433  9.9912109375 0.265647743813668  C 10.1520182291666 0.101025854300961  10.3424479166666 0.0187149095446356  10.5625 0.0187149095446356  L 12.1875 0.0187149095446356  C 12.4075520833334 0.0187149095446356  12.5979817708334 0.101025854300961  12.7587890625 0.265647743813668  C 12.9195963541666 0.430269633326433  13 0.625216607749351  13 0.850488667082535  L 13 19.1495113329175  C 13 19.3747833922506  12.9195963541666 19.5697303666736  12.7587890625 19.7343522561863  C 12.5979817708334 19.898974145699  12.4075520833334 19.9812850904554  12.1875 19.9812850904554  L 10.5625 19.9812850904554  C 10.3424479166666 19.9812850904554  10.1520182291666 19.898974145699  9.9912109375 19.7343522561863  C 9.83040364583337 19.5697303666736  9.75 19.3747833922506  9.75 19.1495113329175  L 9.75 10.3379080889998  C 9.70768229166663 10.4245511887433  9.65266927083337 10.5068621334997  9.5849609375 10.5848409232689  Z " fill-rule="nonzero" fill="#ffffff" stroke="none" transform="matrix(1 0 0 1 980 621 )" />
    </g>
  </defs>
  <g transform="matrix(1 0 0 1 -975 -616 )">
    <use xlink:href="#widget1222" filter="url(#filter1221)" />
    <use xlink:href="#widget1222" />
  </g>
</svg>