<?xml version="1.0" encoding="utf-8"?>
<svg version="1.1" xmlns:xlink="http://www.w3.org/1999/xlink" width="36px" height="30px" xmlns="http://www.w3.org/2000/svg">
  <defs>
    <filter x="1095px" y="616px" width="36px" height="30px" filterUnits="userSpaceOnUse" id="filter1211">
      <feOffset dx="0" dy="0" in="SourceAlpha" result="shadowOffsetInner" />
      <feGaussianBlur stdDeviation="2.5" in="shadowOffsetInner" result="shadowGaussian" />
      <feComposite in2="shadowGaussian" operator="atop" in="SourceAlpha" result="shadowComposite" />
      <feColorMatrix type="matrix" values="0 0 0 0 0.419607843137255  0 0 0 0 0.67843137254902  0 0 0 0 1  0 0 0 1 0  " in="shadowComposite" />
    </filter>
    <g id="widget1212">
      <path d="M 4.7589285714286 15.3409090909091  C 5.30059523809523 15.8712121212121  5.57142857142854 16.5151515151515  5.57142857142854 17.2727272727273  C 5.57142857142854 18.030303030303  5.30059523809523 18.6742424242424  4.7589285714286 19.2045454545454  C 4.21726190476186 19.7348484848485  3.55952380952377 20  2.78571428571433 20  C 2.01190476190477 20  1.35416666666667 19.7348484848485  0.812500000000051 19.2045454545454  C 0.270833333333312 18.6742424242424  0 18.030303030303  0 17.2727272727273  C 0 16.5151515151515  0.270833333333312 15.8712121212121  0.812500000000051 15.3409090909091  C 1.35416666666667 14.8106060606061  2.01190476190477 14.5454545454546  2.78571428571433 14.5454545454546  C 3.55952380952377 14.5454545454546  4.21726190476186 14.8106060606061  4.7589285714286 15.3409090909091  Z M 4.7589285714286 8.06818181818181  C 5.30059523809523 8.59848484848487  5.57142857142854 9.24242424242425  5.57142857142854 10  C 5.57142857142854 10.7575757575758  5.30059523809523 11.4015151515151  4.7589285714286 11.9318181818182  C 4.21726190476186 12.4621212121212  3.55952380952377 12.7272727272727  2.78571428571433 12.7272727272727  C 2.01190476190477 12.7272727272727  1.35416666666667 12.4621212121212  0.812500000000051 11.9318181818182  C 0.270833333333312 11.4015151515151  0 10.7575757575758  0 10  C 0 9.24242424242425  0.270833333333312 8.59848484848487  0.812500000000051 8.06818181818181  C 1.35416666666667 7.53787878787878  2.01190476190477 7.27272727272728  2.78571428571433 7.27272727272728  C 3.55952380952377 7.27272727272728  4.21726190476186 7.53787878787878  4.7589285714286 8.06818181818181  Z M 25.8621651785715 15.5894886363636  C 25.9540550595238 15.6794507575758  26 15.7859848484849  26 15.9090909090909  L 26 18.6363636363636  C 26 18.7594696969697  25.9540550595238 18.8660037878788  25.8621651785715 18.9559659090909  C 25.770275297619 19.045928030303  25.6614583333333 19.0909090909091  25.5357142857142 19  L 7.89285714285711 19  C 7.76711309523804 19.0909090909091  7.65829613095241 19.045928030303  7.56640624999999 18.9559659090909  C 7.47451636904767 18.8660037878788  7.42857142857146 18.7594696969697  7.42857142857146 18.6363636363636  L 7.42857142857146 15.9090909090909  C 7.42857142857146 15.7859848484849  7.47451636904767 15.6794507575758  7.56640624999999 15.5894886363636  C 7.65829613095241 15.4995265151515  7.76711309523804 15.4545454545454  7.89285714285711 15.4545454545454  L 25.5357142857142 15.4545454545454  C 25.6614583333333 15.4545454545454  25.770275297619 15.4995265151515  25.8621651785715 15.5894886363636  Z M 4.7589285714286 0.795454545454533  C 5.30059523809523 1.32575757575756  5.57142857142854 1.96969696969697  5.57142857142854 2.72727272727272  C 5.57142857142854 3.48484848484847  5.30059523809523 4.12878787878788  4.7589285714286 4.65909090909091  C 4.21726190476186 5.18939393939394  3.55952380952377 5.45454545454547  2.78571428571433 5.45454545454547  C 2.01190476190477 5.45454545454547  1.35416666666667 5.18939393939394  0.812500000000051 4.65909090909091  C 0.270833333333312 4.12878787878788  0 3.48484848484847  0 2.72727272727272  C 0 1.96969696969697  0.270833333333312 1.32575757575756  0.812500000000051 0.795454545454533  C 1.35416666666667 0.265151515151501  2.01190476190477 0  2.78571428571433 0  C 3.55952380952377 0  4.21726190476186 0.265151515151501  4.7589285714286 0.795454545454533  Z M 25.8621651785715 8.31676136363637  C 25.9540550595238 8.4067234848485  26 8.51325757575756  26 8.63636363636363  L 26 11.3636363636364  C 26 11.4867424242424  25.9540550595238 11.5932765151515  25.8621651785715 11.6832386363636  C 25.770275297619 11.7732007575758  25.6614583333333 11.8181818181818  25.5357142857142 11.8181818181818  L 7.89285714285711 11.8181818181818  C 7.76711309523804 11.8181818181818  7.65829613095241 11.7732007575758  7.56640624999999 11.6832386363636  C 7.47451636904767 11.5932765151515  7.42857142857146 11.4867424242424  7.42857142857146 11.3636363636364  L 7.42857142857146 8.63636363636363  C 7.42857142857146 8.51325757575756  7.47451636904767 8.4067234848485  7.56640624999999 8.31676136363637  C 7.65829613095241 8.22679924242425  7.76711309523804 8.18181818181819  7.89285714285711 8.18181818181819  L 25.5357142857142 8.18181818181819  C 25.6614583333333 8.18181818181819  25.770275297619 8.22679924242425  25.8621651785715 8.31676136363637  Z M 25.8621651785715 1.04403409090909  C 25.9540550595238 1.13399621212122  26 1.24053030303031  26 1.36363636363637  L 26 4.09090909090909  C 26 4.21401515151516  25.9540550595238 4.32054924242425  25.8621651785715 4.41051136363637  C 25.770275297619 4.5004734848485  25.6614583333333 4.54545454545453  25.5357142857142 4.54545454545453  L 7.89285714285711 4.54545454545453  C 7.76711309523804 4.54545454545453  7.65829613095241 4.5004734848485  7.56640624999999 4.41051136363637  C 7.47451636904767 4.32054924242425  7.42857142857146 4.21401515151516  7.42857142857146 4.09090909090909  L 7.42857142857146 1.36363636363637  C 7.42857142857146 1.24053030303031  7.47451636904767 1.13399621212122  7.56640624999999 1.04403409090909  C 7.65829613095241 0.954071969696969  7.76711309523804 0.909090909090907  7.89285714285711 1  L 25.5357142857142 1  C 25.6614583333333 0.909090909090907  25.770275297619 0.954071969696969  25.8621651785715 1.04403409090909  Z " fill-rule="nonzero" fill="#ffffff" stroke="none" transform="matrix(1 0 0 1 1100 621 )" />
    </g>
  </defs>
  <g transform="matrix(1 0 0 1 -1095 -616 )">
    <use xlink:href="#widget1212" filter="url(#filter1211)" />
    <use xlink:href="#widget1212" />
  </g>
</svg>