<?xml version="1.0" encoding="utf-8"?>
<svg version="1.1" xmlns:xlink="http://www.w3.org/1999/xlink" width="119px" height="65px" xmlns="http://www.w3.org/2000/svg">
  <defs>
    <filter x="102px" y="43px" width="119px" height="65px" filterUnits="userSpaceOnUse" id="filter2618">
      <feOffset dx="0" dy="0" in="SourceAlpha" result="shadowOffsetInner" />
      <feGaussianBlur stdDeviation="5" in="shadowOffsetInner" result="shadowGaussian" />
      <feComposite in2="shadowGaussian" operator="atop" in="SourceAlpha" result="shadowComposite" />
      <feColorMatrix type="matrix" values="0 0 0 0 0  0 0 0 0 0  0 0 0 0 0  0 0 0 0.349019607843137 0  " in="shadowComposite" />
    </filter>
    <g id="widget2619">
      <path d="M 112.5 57  A 3.5 3.5 0 0 1 116 53.5 L 207 53.5  A 3.5 3.5 0 0 1 210.5 57 L 210.5 94  A 3.5 3.5 0 0 1 207 97.5 L 116 97.5  A 3.5 3.5 0 0 1 112.5 94 L 112.5 57  Z " fill-rule="nonzero" fill="#333333" stroke="none" fill-opacity="0.898039215686275" />
      <path d="M 112.5 57  A 3.5 3.5 0 0 1 116 53.5 L 207 53.5  A 3.5 3.5 0 0 1 210.5 57 L 210.5 94  A 3.5 3.5 0 0 1 207 97.5 L 116 97.5  A 3.5 3.5 0 0 1 112.5 94 L 112.5 57  Z " stroke-width="1" stroke="#828282" fill="none" />
    </g>
  </defs>
  <g transform="matrix(1 0 0 1 -102 -43 )">
    <use xlink:href="#widget2619" filter="url(#filter2618)" />
    <use xlink:href="#widget2619" />
  </g>
</svg>