<?xml version="1.0" encoding="utf-8"?>
<svg version="1.1" xmlns:xlink="http://www.w3.org/1999/xlink" width="30px" height="28px" xmlns="http://www.w3.org/2000/svg">
  <defs>
    <filter x="1136px" y="619px" width="30px" height="28px" filterUnits="userSpaceOnUse" id="filter1214">
      <feOffset dx="0" dy="0" in="SourceAlpha" result="shadowOffsetInner" />
      <feGaussianBlur stdDeviation="2.5" in="shadowOffsetInner" result="shadowGaussian" />
      <feComposite in2="shadowGaussian" operator="atop" in="SourceAlpha" result="shadowComposite" />
      <feColorMatrix type="matrix" values="0 0 0 0 0.419607843137255  0 0 0 0 0.67843137254902  0 0 0 0 1  0 0 0 1 0  " in="shadowComposite" />
    </filter>
    <g id="widget1215">
      <path d="M 9.00240384615381 1.54430379746835  C 9.15464743589746 1.70464135021097  9.23076923076917 1.89451476793251  9.23076923076917 2.11392405063289  L 9.23076923076917 15.8860759493671  C 9.23076923076917 16.1054852320675  9.15464743589746 16.295358649789  9.00240384615381 16.4556962025316  C 8.85016025641028 16.6160337552743  8.66987179487182 16.6962025316456  8.46153846153845 16.6962025316456  C 8.2532051282052 16.6962025316456  8.07291666666663 16.6160337552743  7.92067307692309 16.4556962025316  L 3.91826923076917 12.2405063291139  L 0.76923076923083 12.2405063291139  C 0.560897435897459 12.2405063291139  0.380608974359006 12.1603375527426  0.228365384615358 12  C 0.076121794871824 11.8396624472574  0 11.6497890295359  0 11.4303797468355  L 0 6.56962025316454  C 0 6.35021097046416  0.076121794871824 6.16033755274262  0.228365384615358 6  C 0.380608974359006 5.83966244725738  0.560897435897459 5.75949367088606  0.76923076923083 5.75949367088606  L 3.91826923076917 5.75949367088606  L 7.92067307692309 1.54430379746835  C 8.07291666666663 1.38396624472573  8.2532051282052 1.30379746835442  8.46153846153845 1.30379746835442  C 8.66987179487182 1.30379746835442  8.85016025641028 1.38396624472573  9.00240384615381 1.54430379746835  Z M 13.3353365384615 7.20253164556961  C 13.6758814102564 7.75949367088608  13.8461538461538 8.35864978902954  13.8461538461538 8.99999999999997  C 13.8461538461538 9.64135021097046  13.6758814102564 10.2383966244726  13.3353365384615 10.7911392405063  C 12.9947916666666 11.3438818565401  12.5440705128206 11.7383966244726  11.9831730769231 11.9746835443038  C 11.9030448717948 12.0168776371308  11.8028846153846 12.0379746835443  11.6826923076924 12.0379746835443  C 11.474358974359 12.0379746835443  11.2940705128206 11.9599156118143  11.1418269230769 11.8037974683545  C 10.9895833333334 11.6476793248945  10.9134615384615 11.4556962025317  10.9134615384615 11.2278481012659  C 10.9134615384615 11.0506329113924  10.9615384615385 10.9008438818565  11.0576923076924 10.7784810126583  C 11.1538461538462 10.6561181434599  11.270032051282 10.5506329113924  11.40625 10.4620253164557  C 11.542467948718 10.373417721519  11.6786858974359 10.2763713080169  11.8149038461538 10.1708860759494  C 11.9511217948718 10.0654008438819  12.0673076923076 9.91561181434596  12.1634615384615 9.72151898734178  C 12.2596153846154 9.52742616033753  12.3076923076924 9.28691983122366  12.3076923076924 8.99999999999997  C 12.3076923076924 8.71308016877635  12.2596153846154 8.47257383966241  12.1634615384615 8.27848101265823  C 12.0673076923076 8.08438818565404  11.9511217948718 7.93459915611813  11.8149038461538 7.82911392405062  C 11.6786858974359 7.72362869198311  11.542467948718 7.62658227848102  11.40625 7.53797468354429  C 11.270032051282 7.44936708860761  11.1538461538462 7.3438818565401  11.0576923076924 7.22151898734175  C 10.9615384615385 7.09915611814346  10.9134615384615 6.94936708860761  10.9134615384615 6.77215189873414  C 10.9134615384615 6.54430379746834  10.9895833333334 6.35232067510551  11.1418269230769 6.19620253164554  C 11.2940705128206 6.04008438818569  11.474358974359 5.96202531645573  11.6826923076924 5.96202531645573  C 11.8028846153846 5.96202531645573  11.9030448717948 5.98312236286922  11.9831730769231 6.0253164556962  C 12.5440705128206 6.25316455696201  12.9947916666666 6.64556962025314  13.3353365384615 7.20253164556961  Z M 15.9014423076924 5.42405063291139  C 16.582532051282 6.51687763713079  16.9230769230769 7.70886075949368  16.9230769230769 8.99999999999997  C 16.9230769230769 10.2911392405063  16.582532051282 11.4831223628692  15.9014423076924 12.5759493670886  C 15.2203525641025 13.668776371308  14.3189102564103 14.4641350210971  13.1971153846154 14.9620253164557  C 13.0929487179487 15.0042194092827  12.9927884615385 15.0253164556962  12.8966346153846 15.0253164556962  C 12.6802884615385 15.0253164556962  12.4959935897436 14.9451476793249  12.34375 14.7848101265823  C 12.1915064102564 14.6244725738397  12.1153846153846 14.4345991561181  12.1153846153846 14.2151898734177  C 12.1153846153846 13.8860759493671  12.2716346153846 13.6371308016877  12.5841346153846 13.4683544303797  C 13.0328525641025 13.2236286919831  13.3373397435897 13.0379746835443  13.4975961538462 12.9113924050633  C 14.0905448717948 12.4556962025317  14.5532852564103 11.8839662447257  14.8858173076924 11.1962025316456  C 15.2183493589744 10.5084388185654  15.3846153846154 9.77637130801688  15.3846153846154 8.99999999999997  C 15.3846153846154 8.22362869198312  15.2183493589744 7.4915611814346  14.8858173076924 6.80379746835441  C 14.5532852564103 6.11603375527429  14.0905448717948 5.54430379746833  13.4975961538462 5.08860759493672  C 13.3373397435897 4.96202531645572  13.0328525641025 4.7763713080169  12.5841346153846 4.53164556962025  C 12.2716346153846 4.36286919831227  12.1153846153846 4.11392405063291  12.1153846153846 3.78481012658231  C 12.1153846153846 3.56540084388186  12.1915064102564 3.37552742616033  12.34375 3.2151898734177  C 12.4959935897436 3.05485232067508  12.676282051282 2.97468354430377  12.8846153846154 2.97468354430377  C 12.988782051282 2.97468354430377  13.0929487179487 2.99578059071732  13.1971153846154 3.0379746835443  C 14.3189102564103 3.53586497890295  15.2203525641025 4.331223628692  15.9014423076924 5.42405063291139  Z M 18.4735576923076 3.65189873417718  C 19.4911858974359 5.27637130801684  20 7.05907172995783  20 8.99999999999997  C 20 10.9409282700422  19.4911858974359 12.7236286919832  18.4735576923076 14.3481012658228  C 17.4559294871796 15.9725738396625  16.1017628205128 17.168776371308  14.4110576923076 17.9367088607595  C 14.306891025641 17.9789029535865  14.2027243589744 18  14.0985576923076 18  C 13.8902243589744 18  13.7099358974359 17.9198312236287  13.5576923076924 17.7594936708861  C 13.4054487179487 17.5991561181434  13.3293269230769 17.4092827004219  13.3293269230769 17.1898734177215  C 13.3293269230769 16.8860759493671  13.4855769230769 16.6371308016878  13.7980769230769 16.4430379746836  C 13.8541666666666 16.409282700422  13.9443108974359 16.3649789029536  14.0685096153846 16.3101265822785  C 14.1927083333334 16.2552742616033  14.2828525641025 16.210970464135  14.3389423076924 16.1772151898734  C 14.707532051282 15.9662447257384  15.0360576923076 15.7510548523207  15.3245192307692 15.5316455696202  C 16.3100961538462 14.7637130801687  17.0793269230769 13.8059071729958  17.6322115384615 12.6582278481013  C 18.1850961538462 11.5105485232068  18.4615384615385 10.2911392405063  18.4615384615385 8.99999999999997  C 18.4615384615385 7.70886075949368  18.1850961538462 6.48945147679323  17.6322115384615 5.34177215189873  C 17.0793269230769 4.19409282700422  16.3100961538462 3.23628691983125  15.3245192307692 2.46835443037976  C 15.0360576923076 2.24894514767932  14.707532051282 2.03375527426158  14.3389423076924 1.82278481012656  C 14.2828525641025 1.789029535865  14.1927083333334 1.7447257383966  14.0685096153846 1.68987341772155  C 13.9443108974359 1.63502109704644  13.8541666666666 1.59071729957804  13.7980769230769 1.55696202531642  C 13.4855769230769 1.36286919831224  13.3293269230769 1.11392405063294  13.3293269230769 0.810126582278476  C 13.3293269230769 0.590717299578092  13.4054487179487 0.400843881856558  13.5576923076924 0.240506329113935  C 13.7099358974359 0.0801687763713116  13.8902243589744 0  14.0985576923076 0  C 14.2027243589744 0  14.306891025641 0.0210970464134904  14.4110576923076 0.0632911392405312  C 16.1017628205128 0.831223628691967  17.4559294871796 2.02742616033752  18.4735576923076 3.65189873417718  Z " fill-rule="nonzero" fill="#ffffff" stroke="none" transform="matrix(1 0 0 1 1141 624 )" />
    </g>
  </defs>
  <g transform="matrix(1 0 0 1 -1136 -619 )">
    <use xlink:href="#widget1215" filter="url(#filter1214)" />
    <use xlink:href="#widget1215" />
  </g>
</svg>