<?xml version="1.0" encoding="utf-8"?>
<svg version="1.1" xmlns:xlink="http://www.w3.org/1999/xlink" width="41px" height="41px" xmlns="http://www.w3.org/2000/svg">
  <g transform="matrix(1 0 0 1 -755 -802 )">
    <path d="M 30.75 19.0319010416667  C 31.3194444444445 19.3522135416667  31.6041666666667 19.8415798611111  31.6041666666667 20.5  C 31.6041666666667 21.1584201388889  31.3194444444445 21.6477864583333  30.75 21.9680989583333  L 16.2291666666667 30.509765625  C 15.9622395833333 30.669921875  15.6775173611111 30.75  15.375 30.75  C 15.0902777777778 30.75  14.8055555555555 30.6788194444445  14.5208333333333 30.5364583333333  C 13.9513888888889 30.1983506944445  13.6666666666667 29.7000868055555  14 29.0416666666667  L 14 11.9583333333333  C 13.6666666666667 11.2999131944445  13.9513888888889 10.8016493055555  14.5208333333333 10.4635416666667  C 15.1080729166667 10.1432291666667  15.6775173611111 10.1521267361111  16.2291666666667 10.490234375  L 30.75 19.0319010416667  Z M 33.072265625 27.787109375  C 34.3713107638889 25.5627170138889  35.0208333333333 23.1336805555555  35.0208333333333 20.5  C 35.0208333333333 17.8663194444445  34.3713107638889 15.4372829861111  33.072265625 13.212890625  C 31.7732204861111 10.9884982638889  30.0115017361111 9.22677951388891  27.787109375 7.927734375  C 25.5627170138889 6.62868923611109  23.1336805555555 5.97916666666669  20.5 5.97916666666669  C 17.8663194444445 5.97916666666669  15.4372829861111 6.62868923611109  13.212890625 7.927734375  C 10.9884982638889 9.22677951388891  9.22677951388891 10.9884982638889  7.927734375 13.212890625  C 6.62868923611109 15.4372829861111  5.97916666666669 17.8663194444445  5.97916666666669 20.5  C 5.97916666666669 23.1336805555555  6.62868923611109 25.5627170138889  7.927734375 27.787109375  C 9.22677951388891 30.0115017361111  10.9884982638889 31.7732204861111  13.212890625 33.072265625  C 15.4372829861111 34.3713107638889  17.8663194444445 35.0208333333333  20.5 35.0208333333333  C 23.1336805555555 35.0208333333333  25.5627170138889 34.3713107638889  27.787109375 33.072265625  C 30.0115017361111 31.7732204861111  31.7732204861111 30.0115017361111  33.072265625 27.787109375  Z M 38.2506510416667 10.2099609375  C 40.0835503472222 13.3508029513889  41 16.7808159722222  41 20.5  C 41 24.2191840277778  40.0835503472222 27.6491970486111  38.2506510416667 30.7900390625  C 36.4177517361111 33.9308810763889  33.9308810763889 36.4177517361111  30.7900390625 38.2506510416667  C 27.6491970486111 40.0835503472222  24.2191840277778 41  20.5 41  C 16.7808159722222 41  13.3508029513889 40.0835503472222  10.2099609375 38.2506510416667  C 7.06911892361109 36.4177517361111  4.58224826388891 33.9308810763889  2.74934895833331 30.7900390625  C 0.916449652777771 27.6491970486111  0 24.2191840277778  0 20.5  C 0 16.7808159722222  0.916449652777771 13.3508029513889  2.74934895833331 10.2099609375  C 4.58224826388891 7.06911892361109  7.06911892361109 4.58224826388886  10.2099609375 2.74934895833331  C 13.3508029513889 0.916449652777771  16.7808159722222 0  20.5 0  C 24.2191840277778 0  27.6491970486111 0.916449652777771  30.7900390625 2.74934895833331  C 33.9308810763889 4.58224826388886  36.4177517361111 7.06911892361109  38.2506510416667 10.2099609375  Z " fill-rule="nonzero" fill="#cccccc" stroke="none" transform="matrix(1 0 0 1 755 802 )" />
  </g>
</svg>