<?xml version="1.0" encoding="utf-8"?>
<svg version="1.1" xmlns:xlink="http://www.w3.org/1999/xlink" width="265px" height="265px" xmlns="http://www.w3.org/2000/svg">
  <defs>
    <filter x="49px" y="217px" width="265px" height="265px" filterUnits="userSpaceOnUse" id="filter1235">
      <feOffset dx="0" dy="0" in="SourceAlpha" result="shadowOffsetInner" />
      <feGaussianBlur stdDeviation="5" in="shadowOffsetInner" result="shadowGaussian" />
      <feComposite in2="shadowGaussian" operator="atop" in="SourceAlpha" result="shadowComposite" />
      <feColorMatrix type="matrix" values="0 0 0 0 1  0 0 0 0 1  0 0 0 0 1  0 0 0 0.349019607843137 0  " in="shadowComposite" />
    </filter>
    <g id="widget1236">
      <path d="M 181.5 231.5  C 247.58 231.5  299.5 283.42  299.5 349.5  C 299.5 415.58  247.58 467.5  181.5 467.5  C 115.42 467.5  63.5 415.58  63.5 349.5  C 63.5 283.42  115.42 231.5  181.5 231.5  Z " fill-rule="nonzero" fill="#333333" stroke="none" fill-opacity="0.298039215686275" />
      <path d="M 181.5 229.5  C 248.7 229.5  301.5 282.3  301.5 349.5  C 301.5 416.7  248.7 469.5  181.5 469.5  C 114.3 469.5  61.5 416.7  61.5 349.5  C 61.5 282.3  114.3 229.5  181.5 229.5  Z " stroke-width="5" stroke="#ffffff" fill="none" stroke-opacity="0.0980392156862745" />
    </g>
  </defs>
  <g transform="matrix(1 0 0 1 -49 -217 )">
    <use xlink:href="#widget1236" filter="url(#filter1235)" />
    <use xlink:href="#widget1236" />
  </g>
</svg>