<?xml version="1.0" encoding="utf-8"?>
<svg version="1.1" xmlns:xlink="http://www.w3.org/1999/xlink" width="117px" height="65px" xmlns="http://www.w3.org/2000/svg">
  <defs>
    <filter x="101px" y="43px" width="117px" height="65px" filterUnits="userSpaceOnUse" id="filter1419">
      <feOffset dx="0" dy="0" in="SourceAlpha" result="shadowOffsetInner" />
      <feGaussianBlur stdDeviation="5" in="shadowOffsetInner" result="shadowGaussian" />
      <feComposite in2="shadowGaussian" operator="atop" in="SourceAlpha" result="shadowComposite" />
      <feColorMatrix type="matrix" values="0 0 0 0 0  0 0 0 0 0  0 0 0 0 0  0 0 0 0.349019607843137 0  " in="shadowComposite" />
    </filter>
    <g id="widget1420">
      <path d="M 111.5 57  A 3.5 3.5 0 0 1 115 53.5 L 204 53.5  A 3.5 3.5 0 0 1 207.5 57 L 207.5 94  A 3.5 3.5 0 0 1 204 97.5 L 115 97.5  A 3.5 3.5 0 0 1 111.5 94 L 111.5 57  Z " fill-rule="nonzero" fill="#333333" stroke="none" fill-opacity="0.898039215686275" />
      <path d="M 111.5 57  A 3.5 3.5 0 0 1 115 53.5 L 204 53.5  A 3.5 3.5 0 0 1 207.5 57 L 207.5 94  A 3.5 3.5 0 0 1 204 97.5 L 115 97.5  A 3.5 3.5 0 0 1 111.5 94 L 111.5 57  Z " stroke-width="1" stroke="#828282" fill="none" />
    </g>
  </defs>
  <g transform="matrix(1 0 0 1 -101 -43 )">
    <use xlink:href="#widget1420" filter="url(#filter1419)" />
    <use xlink:href="#widget1420" />
  </g>
</svg>