<?xml version="1.0" encoding="utf-8"?>
<svg version="1.1" xmlns:xlink="http://www.w3.org/1999/xlink" width="192px" height="103px" xmlns="http://www.w3.org/2000/svg">
  <defs>
    <filter x="68px" y="12px" width="192px" height="103px" filterUnits="userSpaceOnUse" id="filter1248">
      <feOffset dx="0" dy="0" in="SourceAlpha" result="shadowOffsetInner" />
      <feGaussianBlur stdDeviation="5" in="shadowOffsetInner" result="shadowGaussian" />
      <feComposite in2="shadowGaussian" operator="atop" in="SourceAlpha" result="shadowComposite" />
      <feColorMatrix type="matrix" values="0 0 0 0 0  0 0 0 0 0  0 0 0 0 0  0 0 0 0.349019607843137 0  " in="shadowComposite" />
    </filter>
    <g id="widget1249">
      <path d="M 78.5 26  A 3.5 3.5 0 0 1 82 22.5 L 246 22.5  A 3.5 3.5 0 0 1 249.5 26 L 249.5 101  A 3.5 3.5 0 0 1 246 104.5 L 82 104.5  A 3.5 3.5 0 0 1 78.5 101 L 78.5 26  Z " fill-rule="nonzero" fill="#333333" stroke="none" fill-opacity="0.898039215686275" />
      <path d="M 78.5 26  A 3.5 3.5 0 0 1 82 22.5 L 246 22.5  A 3.5 3.5 0 0 1 249.5 26 L 249.5 101  A 3.5 3.5 0 0 1 246 104.5 L 82 104.5  A 3.5 3.5 0 0 1 78.5 101 L 78.5 26  Z " stroke-width="1" stroke="#828282" fill="none" />
    </g>
  </defs>
  <g transform="matrix(1 0 0 1 -68 -12 )">
    <use xlink:href="#widget1249" filter="url(#filter1248)" />
    <use xlink:href="#widget1249" />
  </g>
</svg>