<?xml version="1.0" encoding="utf-8"?>
<svg version="1.1" xmlns:xlink="http://www.w3.org/1999/xlink" width="160px" height="65px" xmlns="http://www.w3.org/2000/svg">
  <defs>
    <filter x="82px" y="43px" width="160px" height="65px" filterUnits="userSpaceOnUse" id="filter1250">
      <feOffset dx="0" dy="0" in="SourceAlpha" result="shadowOffsetInner" />
      <feGaussianBlur stdDeviation="5" in="shadowOffsetInner" result="shadowGaussian" />
      <feComposite in2="shadowGaussian" operator="atop" in="SourceAlpha" result="shadowComposite" />
      <feColorMatrix type="matrix" values="0 0 0 0 0  0 0 0 0 0  0 0 0 0 0  0 0 0 0.349019607843137 0  " in="shadowComposite" />
    </filter>
    <g id="widget1251">
      <path d="M 92.5 57  A 3.5 3.5 0 0 1 96 53.5 L 228 53.5  A 3.5 3.5 0 0 1 231.5 57 L 231.5 94  A 3.5 3.5 0 0 1 228 97.5 L 96 97.5  A 3.5 3.5 0 0 1 92.5 94 L 92.5 57  Z " fill-rule="nonzero" fill="#333333" stroke="none" fill-opacity="0.898039215686275" />
      <path d="M 92.5 57  A 3.5 3.5 0 0 1 96 53.5 L 228 53.5  A 3.5 3.5 0 0 1 231.5 57 L 231.5 94  A 3.5 3.5 0 0 1 228 97.5 L 96 97.5  A 3.5 3.5 0 0 1 92.5 94 L 92.5 57  Z " stroke-width="1" stroke="#828282" fill="none" />
    </g>
  </defs>
  <g transform="matrix(1 0 0 1 -82 -43 )">
    <use xlink:href="#widget1251" filter="url(#filter1250)" />
    <use xlink:href="#widget1251" />
  </g>
</svg>