<?xml version="1.0" encoding="utf-8"?>
<svg version="1.1" xmlns:xlink="http://www.w3.org/1999/xlink" width="32px" height="30px" xmlns="http://www.w3.org/2000/svg">
  <defs>
    <filter x="1132px" y="541px" width="32px" height="30px" filterUnits="userSpaceOnUse" id="filter2769">
      <feOffset dx="0" dy="0" in="SourceAlpha" result="shadowOffsetInner" />
      <feGaussianBlur stdDeviation="2.5" in="shadowOffsetInner" result="shadowGaussian" />
      <feComposite in2="shadowGaussian" operator="atop" in="SourceAlpha" result="shadowComposite" />
      <feColorMatrix type="matrix" values="0 0 0 0 0.419607843137255  0 0 0 0 0.67843137254902  0 0 0 0 1  0 0 0 1 0  " in="shadowComposite" />
    </filter>
    <g id="widget2770">
      <path d="M 18.3377403846154 12.5  C 18.5228365384616 12.578125  18.6153846153846 12.7039930555555  18.6153846153846 12.8776041666667  L 18.6153846153846 16.25  C 18.6153846153846 17.2829861111111  18.2429887820513 18.1662326388889  17.4981971153846 18.8997395833333  C 16.753405448718 19.6332465277778  15.8565705128205 20  14.8076923076923 20  L 3.80769230769231 20  C 2.7588141025641 20  1.86197916666667 19.6332465277778  1.11718750000001 18.8997395833333  C 0.372395833333345 18.1662326388889  0 17.2829861111111  0 16.25  L 0 5.41666666666669  C 0 4.38368055555554  0.372395833333345 3.50043402777777  1.11718750000001 2.76692708333331  C 1.86197916666667 2.03342013888891  2.7588141025641 1.66666666666669  3.80769230769231 1.66666666666669  L 7.17908653846154 1.66666666666669  C 7.29366987179489 1.66666666666669  7.392828525641 1.70789930555554  7.47656250000003 1.79036458333331  C 7.560296474359 1.87282986111109  7.60216346153845 1.97048611111109  7.60216346153845 2.08333333333331  C 7.60216346153845 2.31770833333331  7.48758012820515 2.45659722222223  7.25841346153849 2.5  C 6.57972756410254 2.72569444444446  5.99358974358976 2.98611111111109  5.49999999999997 3.28125  C 5.41185897435899 3.31597222222223  5.34134615384618 3.33333333333331  5.28846153846154 3.33333333333331  L 3.80769230769231 3.33333333333331  C 3.22596153846154 3.33333333333331  2.72796474358974 3.53732638888891  2.31370192307691 3.9453125  C 1.89943910256411 4.35329861111109  1.69230769230769 4.84375  2 5.41666666666669  L 2 16.25  C 1.69230769230769 16.8229166666667  1.89943910256411 17.3133680555555  2.31370192307691 17.7213541666667  C 2.72796474358974 18.1293402777778  3.22596153846154 18.3333333333333  3.80769230769231 18  L 14.8076923076923 18  C 15.3894230769231 18.3333333333333  15.8874198717949 18.1293402777778  16.3016826923077 17.7213541666667  C 16.7159455128205 17.3133680555555  16.9230769230769 16.8229166666667  16.9230769230769 16.25  L 16.9230769230769 13.4635416666667  C 16.9230769230769 13.2986111111111  17.0024038461538 13.1727430555555  17.1610576923077 13.0859375  C 17.4078525641026 12.9730902777778  17.6458333333333 12.8125  17.875 12.6041666666667  C 18.0160256410256 12.4652777777778  18.1702724358974 12.4305555555555  18.3377403846154 12.5  Z M 22 5.83333333333331  C 22 6.05902777777777  21.916266025641 6.25434027777777  21.7487980769231 6.41927083333331  L 16.671875 11.4192708333333  C 16.5132211538461 11.5842013888889  16.3149038461539 11.6666666666667  16.0769230769231 11.6666666666667  C 15.9711538461538 11.6666666666667  15.8609775641026 11.6449652777778  15.7463942307693 11.6015625  C 15.4026442307692 11.4539930555555  15.2307692307692 11.1979166666667  15.2307692307692 10.8333333333333  L 15.2307692307692 8.33333333333331  L 13.1153846153846 8.33333333333331  C 10.2684294871795 8.33333333333331  8.338141025641 8.90190972222223  7.32451923076923 10.0390625  C 6.27564102564105 11.2282986111111  5.94951923076921 13.28125  6.34615384615386 16.1979166666667  C 6.37259615384618 16.3975694444445  6.28445512820514 16.5451388888889  6.0817307692308 16.640625  C 6.01121794871793 16.6579861111111  5.95833333333335 16.6666666666667  5.92307692307694 16.6666666666667  C 5.78205128205127 16.6666666666667  5.66746794871797 16.6102430555555  5.57932692307693 16.4973958333333  C 5.49118589743588 16.3758680555555  5.39863782051283 16.2413194444445  5.3016826923077 16.09375  C 5.20472756410257 15.9461805555555  5.03064903846153 15.6488715277778  4.77944711538462 15.2018229166667  C 4.52824519230769 14.7547743055555  4.31009615384615 14.3229166666667  4.12500000000001 13.90625  C 3.93990384615384 13.4895833333333  3.77023237179486 12.9947916666667  3.61598557692309 12.421875  C 3.46173878205128 11.8489583333333  3.38461538461539 11.3194444444445  3.38461538461539 10.8333333333333  C 3.38461538461539 10.4079861111111  3.40004006410256 10.0130208333333  3.43088942307692 9.6484375  C 3.46173878205128 9.28385416666669  3.5234375 8.89322916666669  3.61598557692309 8.4765625  C 3.70853365384614 8.05989583333331  3.83193108974359 7.67795138888891  3.9861778846154 7.33072916666669  C 4.14042467948717 6.98350694444446  4.34755608974359 6.62977430555554  4.60757211538461 6.26953125  C 4.86758814102563 5.90928819444446  5.16947115384617 5.58810763888891  5.51322115384613 5.30598958333331  C 5.85697115384615 5.02387152777777  6.27343750000002 4.75694444444446  6.76262019230767 4.50520833333331  C 7.25180288461538 4.25347222222223  7.80048076923078 4.04296875  8.40865384615386 3.87369791666669  C 9.01682692307695 3.70442708333331  9.71975160256413 3.57204861111109  10.5174278846154 3.4765625  C 11.3151041666667 3.38107638888891  12.1810897435898 3.33333333333331  13.1153846153846 3.33333333333331  L 15.2307692307692 3.33333333333331  L 15.2307692307692 0.833333333333314  C 15.2307692307692 0.46875  15.4026442307692 0.212673611111086  15.7463942307693 0.0651041666666856  C 15.8609775641026 0.0217013888889142  15.9711538461538 0  16.0769230769231 0  C 16.3060897435898 0  16.504407051282 0.0824652777777715  16.671875 0.247395833333314  L 21.7487980769231 5.24739583333331  C 21.916266025641 5.41232638888891  22 5.60763888888891  22 5.83333333333331  Z " fill-rule="nonzero" fill="#ffffff" stroke="none" transform="matrix(1 0 0 1 1137 546 )" />
    </g>
  </defs>
  <g transform="matrix(1 0 0 1 -1132 -541 )">
    <use xlink:href="#widget2770" filter="url(#filter2769)" />
    <use xlink:href="#widget2770" />
  </g>
</svg>