<svg xmlns="http://www.w3.org/2000/svg" xmlns:xlink="http://www.w3.org/1999/xlink" width="81" height="81" version="1.1"><g><path fill="#ccc" fill-rule="nonzero" stroke="none" d="M 60.75 37.599609375 C 61.875 38.232421875 62.4375 39.19921875 62.4375 40.5 C 62.4375 41.80078125 61.875 42.767578125 60.75 43.400390625 L 32.0625 60.275390625 C 31.53515625 60.591796875 30.97265625 60.75 30.375 60.75 C 29.8125 60.75 29.25 60.609375 28.6875 60.328125 C 27.5625000000001 59.66015625 27 58.67578125 27 57.375 L 27 23.625 C 27 22.32421875 27.5625000000001 21.33984375 28.6875 20.671875 C 29.84765625 20.0390625 30.97265625 20.056640625 32.0625 20.724609375 L 60.75 37.599609375 Z M 65.337890625 54.896484375 C 67.904296875 50.501953125 69.1875 45.703125 69.1875 40.5 C 69.1875 35.296875 67.904296875 30.498046875 65.337890625 26.103515625 C 62.771484375 21.7089843750001 59.291015625 18.2285156250001 54.896484375 15.662109375 C 50.501953125 13.095703125 45.703125 11.8125 40.5 11.8125 C 35.296875 11.8125 30.498046875 13.095703125 26.103515625 15.662109375 C 21.7089843750001 18.2285156250001 18.2285156250001 21.7089843750001 15.662109375 26.103515625 C 13.095703125 30.498046875 11.8125 35.296875 11.8125 40.5 C 11.8125 45.703125 13.095703125 50.501953125 15.662109375 54.896484375 C 18.2285156250001 59.291015625 21.7089843750001 62.771484375 26.103515625 65.337890625 C 30.498046875 67.904296875 35.296875 69.1875 40.5 69.1875 C 45.703125 69.1875 50.501953125 67.904296875 54.896484375 65.337890625 C 59.291015625 62.771484375 62.771484375 59.291015625 65.337890625 54.896484375 Z M 75.568359375 20.1708984375 C 79.189453125 26.3759765625001 81 33.15234375 81 40.5 C 81 47.84765625 79.189453125 54.6240234375 75.568359375 60.8291015625 C 71.947265625 67.0341796875 67.0341796875 71.947265625 60.8291015625 75.568359375 C 54.6240234375 79.189453125 47.84765625 81 40.5 81 C 33.15234375 81 26.3759765625001 79.189453125 20.1708984375 75.568359375 C 13.9658203125 71.947265625 9.05273437500005 67.0341796875 5.43164062499996 60.8291015625 C 1.81054687499999 54.6240234375 0 47.84765625 0 40.5 C 0 33.15234375 1.81054687499999 26.3759765625001 5.43164062499996 20.1708984375 C 9.05273437500005 13.9658203125 13.9658203125 9.05273437499994 20.1708984375 5.43164062499996 C 26.3759765625001 1.81054687499999 33.15234375 0 40.5 0 C 47.84765625 0 54.6240234375 1.81054687499999 60.8291015625 5.43164062499996 C 67.0341796875 9.05273437499994 71.947265625 13.9658203125 75.568359375 20.1708984375 Z" transform="matrix(1 0 0 1 -282 -657 ) matrix(1 0 0 1 282 657 )"/></g></svg>