<svg xmlns="http://www.w3.org/2000/svg" xmlns:xlink="http://www.w3.org/1999/xlink" width="1252" height="758" version="1.1"><defs><mask id="clip2773" fill="#fff"><path fill-rule="evenodd" d="M 1248.99760191847 757.52625 L 2.00159872102318 757.52625 C 0.600479616306956 757.52625 -0.500399680255795 756.484 0.500399680255795 755.1575 L 0.500399680255795 0 L 1251.49960031974 0 L 1251.49960031974 755.1575 C 1251.49960031974 756.484 1250.39872102318 757.52625 1248.99760191847 757.52625 Z"/></mask></defs><g><path fill="#fff" fill-rule="nonzero" stroke="none" d="M 1248.99760191847 757.52625 L 2.00159872102318 757.52625 C 0.600479616306956 757.52625 -0.500399680255795 756.484 0.500399680255795 755.1575 L 0.500399680255795 0 L 1251.49960031974 0 L 1251.49960031974 755.1575 C 1251.49960031974 756.484 1250.39872102318 757.52625 1248.99760191847 757.52625 Z" transform="matrix(1 0 0 1 -24 -1864 ) matrix(1 0 0 1 24 1864 )"/><path fill="none" stroke="#e4e4e4" stroke-width="2" d="M 1248.99760191847 757.52625 L 2.00159872102318 757.52625 C 0.600479616306956 757.52625 -0.500399680255795 756.484 0.500399680255795 755.1575 L 0.500399680255795 0 L 1251.49960031974 0 L 1251.49960031974 755.1575 C 1251.49960031974 756.484 1250.39872102318 757.52625 1248.99760191847 757.52625 Z" mask="url(#clip2773)" transform="matrix(1 0 0 1 -24 -1864 ) matrix(1 0 0 1 24 1864 )"/></g></svg>