<svg xmlns="http://www.w3.org/2000/svg" xmlns:xlink="http://www.w3.org/1999/xlink" width="192" height="103" version="1.1"><defs><filter id="filter2795" width="192" height="103" x="68" y="12" filterUnits="userSpaceOnUse"><feOffset dx="0" dy="0" in="SourceAlpha" result="shadowOffsetInner"/><feGaussianBlur in="shadowOffsetInner" result="shadowGaussian" stdDeviation="5"/><feComposite in="SourceAlpha" in2="shadowGaussian" operator="atop" result="shadowComposite"/><feColorMatrix in="shadowComposite" type="matrix" values="0 0 0 0 0 0 0 0 0 0 0 0 0 0 0 0 0 0 0.349019607843137 0"/></filter><g id="widget2796"><path fill="#333" fill-opacity=".898" fill-rule="nonzero" stroke="none" d="M 78.5 26 A 3.5 3.5 0 0 1 82 22.5 L 246 22.5 A 3.5 3.5 0 0 1 249.5 26 L 249.5 101 A 3.5 3.5 0 0 1 246 104.5 L 82 104.5 A 3.5 3.5 0 0 1 78.5 101 L 78.5 26 Z"/><path fill="none" stroke="#828282" stroke-width="1" d="M 78.5 26 A 3.5 3.5 0 0 1 82 22.5 L 246 22.5 A 3.5 3.5 0 0 1 249.5 26 L 249.5 101 A 3.5 3.5 0 0 1 246 104.5 L 82 104.5 A 3.5 3.5 0 0 1 78.5 101 L 78.5 26 Z"/></g></defs><g transform="matrix(1 0 0 1 -68 -12 )"><use filter="url(#filter2795)" xlink:href="#widget2796"/><use xlink:href="#widget2796"/></g></svg>