<svg xmlns="http://www.w3.org/2000/svg" xmlns:xlink="http://www.w3.org/1999/xlink" width="265" height="265" version="1.1"><defs><filter id="filter2782" width="265" height="265" x="49" y="217" filterUnits="userSpaceOnUse"><feOffset dx="0" dy="0" in="SourceAlpha" result="shadowOffsetInner"/><feGaussianBlur in="shadowOffsetInner" result="shadowGaussian" stdDeviation="5"/><feComposite in="SourceAlpha" in2="shadowGaussian" operator="atop" result="shadowComposite"/><feColorMatrix in="shadowComposite" type="matrix" values="0 0 0 0 1 0 0 0 0 1 0 0 0 0 1 0 0 0 0.349019607843137 0"/></filter><g id="widget2783"><path fill="#333" fill-opacity=".298" fill-rule="nonzero" stroke="none" d="M 181.5 231.5 C 247.58 231.5 299.5 283.42 299.5 349.5 C 299.5 415.58 247.58 467.5 181.5 467.5 C 115.42 467.5 63.5 415.58 63.5 349.5 C 63.5 283.42 115.42 231.5 181.5 231.5 Z"/><path fill="none" stroke="#fff" stroke-opacity=".098" stroke-width="5" d="M 181.5 229.5 C 248.7 229.5 301.5 282.3 301.5 349.5 C 301.5 416.7 248.7 469.5 181.5 469.5 C 114.3 469.5 61.5 416.7 61.5 349.5 C 61.5 282.3 114.3 229.5 181.5 229.5 Z"/></g></defs><g transform="matrix(1 0 0 1 -49 -217 )"><use filter="url(#filter2782)" xlink:href="#widget2783"/><use xlink:href="#widget2783"/></g></svg>