<svg xmlns="http://www.w3.org/2000/svg" xmlns:xlink="http://www.w3.org/1999/xlink" width="129" height="65" version="1.1"><defs><filter id="filter2801" width="129" height="65" x="97" y="43" filterUnits="userSpaceOnUse"><feOffset dx="0" dy="0" in="SourceAlpha" result="shadowOffsetInner"/><feGaussianBlur in="shadowOffsetInner" result="shadowGaussian" stdDeviation="5"/><feComposite in="SourceAlpha" in2="shadowGaussian" operator="atop" result="shadowComposite"/><feColorMatrix in="shadowComposite" type="matrix" values="0 0 0 0 0 0 0 0 0 0 0 0 0 0 0 0 0 0 0.349019607843137 0"/></filter><g id="widget2802"><path fill="#333" fill-opacity=".898" fill-rule="nonzero" stroke="none" d="M 107.5 57 A 3.5 3.5 0 0 1 111 53.5 L 212 53.5 A 3.5 3.5 0 0 1 215.5 57 L 215.5 94 A 3.5 3.5 0 0 1 212 97.5 L 111 97.5 A 3.5 3.5 0 0 1 107.5 94 L 107.5 57 Z"/><path fill="none" stroke="#828282" stroke-width="1" d="M 107.5 57 A 3.5 3.5 0 0 1 111 53.5 L 212 53.5 A 3.5 3.5 0 0 1 215.5 57 L 215.5 94 A 3.5 3.5 0 0 1 212 97.5 L 111 97.5 A 3.5 3.5 0 0 1 107.5 94 L 107.5 57 Z"/></g></defs><g transform="matrix(1 0 0 1 -97 -43 )"><use filter="url(#filter2801)" xlink:href="#widget2802"/><use xlink:href="#widget2802"/></g></svg>