<svg xmlns="http://www.w3.org/2000/svg" xmlns:xlink="http://www.w3.org/1999/xlink" width="117" height="65" version="1.1"><defs><filter id="filter2793" width="117" height="65" x="101" y="43" filterUnits="userSpaceOnUse"><feOffset dx="0" dy="0" in="SourceAlpha" result="shadowOffsetInner"/><feGaussianBlur in="shadowOffsetInner" result="shadowGaussian" stdDeviation="5"/><feComposite in="SourceAlpha" in2="shadowGaussian" operator="atop" result="shadowComposite"/><feColorMatrix in="shadowComposite" type="matrix" values="0 0 0 0 0 0 0 0 0 0 0 0 0 0 0 0 0 0 0.349019607843137 0"/></filter><g id="widget2794"><path fill="#333" fill-opacity=".898" fill-rule="nonzero" stroke="none" d="M 111.5 57 A 3.5 3.5 0 0 1 115 53.5 L 204 53.5 A 3.5 3.5 0 0 1 207.5 57 L 207.5 94 A 3.5 3.5 0 0 1 204 97.5 L 115 97.5 A 3.5 3.5 0 0 1 111.5 94 L 111.5 57 Z"/><path fill="none" stroke="#828282" stroke-width="1" d="M 111.5 57 A 3.5 3.5 0 0 1 115 53.5 L 204 53.5 A 3.5 3.5 0 0 1 207.5 57 L 207.5 94 A 3.5 3.5 0 0 1 204 97.5 L 115 97.5 A 3.5 3.5 0 0 1 111.5 94 L 111.5 57 Z"/></g></defs><g transform="matrix(1 0 0 1 -101 -43 )"><use filter="url(#filter2793)" xlink:href="#widget2794"/><use xlink:href="#widget2794"/></g></svg>