<svg xmlns="http://www.w3.org/2000/svg" xmlns:xlink="http://www.w3.org/1999/xlink" width="160" height="65" version="1.1"><defs><filter id="filter2797" width="160" height="65" x="82" y="43" filterUnits="userSpaceOnUse"><feOffset dx="0" dy="0" in="SourceAlpha" result="shadowOffsetInner"/><feGaussianBlur in="shadowOffsetInner" result="shadowGaussian" stdDeviation="5"/><feComposite in="SourceAlpha" in2="shadowGaussian" operator="atop" result="shadowComposite"/><feColorMatrix in="shadowComposite" type="matrix" values="0 0 0 0 0 0 0 0 0 0 0 0 0 0 0 0 0 0 0.349019607843137 0"/></filter><g id="widget2798"><path fill="#333" fill-opacity=".898" fill-rule="nonzero" stroke="none" d="M 92.5 57 A 3.5 3.5 0 0 1 96 53.5 L 228 53.5 A 3.5 3.5 0 0 1 231.5 57 L 231.5 94 A 3.5 3.5 0 0 1 228 97.5 L 96 97.5 A 3.5 3.5 0 0 1 92.5 94 L 92.5 57 Z"/><path fill="none" stroke="#828282" stroke-width="1" d="M 92.5 57 A 3.5 3.5 0 0 1 96 53.5 L 228 53.5 A 3.5 3.5 0 0 1 231.5 57 L 231.5 94 A 3.5 3.5 0 0 1 228 97.5 L 96 97.5 A 3.5 3.5 0 0 1 92.5 94 L 92.5 57 Z"/></g></defs><g transform="matrix(1 0 0 1 -82 -43 )"><use filter="url(#filter2797)" xlink:href="#widget2798"/><use xlink:href="#widget2798"/></g></svg>