<?xml version="1.0" encoding="utf-8"?>
<svg version="1.1" xmlns:xlink="http://www.w3.org/1999/xlink" width="10px" height="10px" xmlns="http://www.w3.org/2000/svg">
  <g transform="matrix(1 0 0 1 -48 -526 )">
    <path d="M 53 526  C 55.8 526  58 528.2  58 531  C 58 533.8  55.8 536  53 536  C 50.2 536  48 533.8  48 531  C 48 528.2  50.2 526  53 526  Z " fill-rule="nonzero" fill="#ffffff" stroke="none" />
    <path d="M 53 526.5  C 55.52 526.5  57.5 528.48  57.5 531  C 57.5 533.52  55.52 535.5  53 535.5  C 50.48 535.5  48.5 533.52  48.5 531  C 48.5 528.48  50.48 526.5  53 526.5  Z " stroke-width="1" stroke="#ffffff" fill="none" />
  </g>
</svg>