<svg xmlns="http://www.w3.org/2000/svg" xmlns:xlink="http://www.w3.org/1999/xlink" width="160" height="120" version="1.1"><g><path fill="#ccc" fill-rule="nonzero" stroke="none" d="M 20 10 L 180 10 L 180 130 L 20 130 L 20 10" transform="matrix(1 0 0 1 -20 -10 )"/><path fill="#fff" fill-rule="nonzero" stroke="none" d="M 28 18 L 172 18 L 172 122 L 28 122 L 28 18" transform="matrix(1 0 0 1 -20 -10 )"/><path fill="#ccc" fill-rule="nonzero" stroke="none" d="M 112.2 46 C 107.16 46 103.2 42.04 103.2 37 C 103.2 31.96 107.16 28 112.2 28 C 117.24 28 121.2 31.96 121.2 37 C 121.2 42.04 117.24 46 112.2 46" transform="matrix(1 0 0 1 -20 -10 )"/><path fill="#169bd5" fill-rule="nonzero" stroke="none" d="M 31 119 L 31 65.1 L 65.5 40.6 L 113.8 74.9 L 141.4 55.3 L 169 74.9 L 169 119 L 31 119" transform="matrix(1 0 0 1 -20 -10 )"/></g></svg>